<svg xmlns="http://www.w3.org/2000/svg" width="25" height="px" viewBox="0 0 25 19"><path d="M0 0h25v19H0z" style="fill:#000001;fill-opacity:1;stroke:none"/><path d="M16.668 0H25v19h-8.332Zm0 0" style="stroke:none;fill-rule:evenodd;fill:#090;fill-opacity:1"/><path d="M8.332 0h8.336v19H8.332Zm0 0" style="stroke:none;fill-rule:evenodd;fill:#bf0000;fill-opacity:1"/><path d="M319.523 225.805h8.275c0 3.155 1.975 6.588 4.514 8.537h-15.986c2.445-2.227 3.197-5.011 3.197-8.537Zm0 0" style="fill-rule:evenodd;fill:#fff;fill-opacity:1;stroke-width:.5;stroke-linecap:butt;stroke-linejoin:miter;stroke:#bd6b00;stroke-opacity:1;stroke-miterlimit:4" transform="matrix(.04154 0 0 .0421 .04 1.08)"/><path d="m11.117 8.594.192.21 2.367.008.191-.21-.605-.012-.29-.211h-.956l-.274.215Zm0 0" style="stroke:none;fill-rule:evenodd;fill:#fff;fill-opacity:1"/><path d="M289.997 172.726h19.747c2.539-1.392 3.479-5.94 3.479-8.445 0-7.423-5.36-10.95-10.532-11.135-.94-.093-1.598-.557-1.88-1.392-.47-1.578-.377-2.691-1.035-2.598-.376 0-.282 1.02-.658 2.412-.376.928-1.128 1.392-1.975 1.67-6.488.279-10.625 4.919-10.531 11.043.094 3.99.564 6.403 3.385 8.445Zm0 0" style="fill-rule:evenodd;fill:#fff;fill-opacity:1;stroke-width:.5;stroke-linecap:butt;stroke-linejoin:miter;stroke:#bd6b00;stroke-opacity:1;stroke-miterlimit:4" transform="matrix(.04154 0 0 .0421 .04 1.08)"/><path d="M10.746 11.3h3.5l-.312-.257H11.05Zm0 0" style="stroke:none;fill-rule:evenodd;fill:#fff;fill-opacity:1"/><path d="m296.391 219.68 1.505 4.64h3.479l-2.821-4.64Zm-1.975 4.64.94 4.547h4.044l-1.504-4.547Zm6.959 0 2.82 4.547h5.925l-4.608-4.547Zm-34.51 10.393c3.103-2.877 5.172-5.29 5.172-8.816h7.522c0 2.042.658 2.97 1.88 2.97h7.617v-4.454h-5.547v-24.684c-.189-8.815 10.625-13.826 14.95-13.826h-26.234v-.836h55.29v.836H301c7.898 0 15.515 7.516 15.61 13.826v6.96h-1.035l-.094-6.867c0-6.96-8.651-13.363-15.704-13.084-6.018.093-15.421 5.846-15.233 12.991v2.134l14.293.093-.094 2.506 2.163 1.392 4.513 1.484v3.805l3.197.835v3.712l3.762 1.67v3.805l2.538 1.577-.094 3.898 3.292 2.227h-7.805l4.89 5.568h-7.335l-3.573-5.568h-4.702l2.069 5.475h-4.984l-1.316-5.475h-6.112v5.846Zm22.191-15.033v4.64h5.36l-1.034-4.64h-4.42Zm0 0" style="fill-rule:evenodd;fill:#fff;fill-opacity:1;stroke-width:.5;stroke-linecap:butt;stroke-linejoin:miter;stroke:#bd6b00;stroke-opacity:1;stroke-miterlimit:4" transform="matrix(.04154 0 0 .0421 .04 1.08)"/><path d="M289.433 211.7h3.29v7.609h-3.29Zm0 0" style="fill:none;stroke-width:.5;stroke-linecap:butt;stroke-linejoin:miter;stroke:#bd6b00;stroke-opacity:1;stroke-miterlimit:4" transform="matrix(.04154 0 0 .0421 .04 1.08)"/><path d="M284.731 219.773h3.197v-5.568c0-2.412 2.163-4.918 3.197-5.01 1.129 0 2.915 2.32 3.01 4.825v5.753h3.384V205.39h-12.788Zm25.577 3.34h3.95v3.156h-3.95Zm-2.445-5.289h4.043v3.062h-4.043Zm-3.855-5.382h3.949v3.062h-3.95Zm-3.291-4.547h3.949v3.062h-3.95Zm0 0" style="fill:none;stroke-width:.5;stroke-linecap:butt;stroke-linejoin:miter;stroke:#bd6b00;stroke-opacity:1;stroke-miterlimit:4" transform="matrix(.04154 0 0 .0421 .04 1.08)"/><path d="m297.99 219.773 4.231.186 7.24 6.402v-3.804l-2.444-1.763v-2.97l-3.574-2.041v-3.248l-3.573-1.206v-4.362l-1.692-1.485Zm0 0" style="fill:none;stroke-width:.5;stroke-linecap:butt;stroke-linejoin:miter;stroke:#bd6b00;stroke-opacity:1;stroke-miterlimit:4" transform="matrix(.04154 0 0 .0421 .04 1.08)"/><path d="M315.386 210.308h1.034v7.052h-1.034ZM257.273 186.46c-1.128-1.95-2.632 2.876-7.804 6.31-2.257 1.67-3.95 5.938-3.95 8.722a61 61 0 0 1 0 5.846c-.094 1.021-1.41 3.805-.564 4.455 2.257 1.577 5.172 5.382 6.488 6.68 1.129 1.022 2.163-5.289 2.915-7.98 1.035-2.969.659-6.68 3.198-9.372 1.88-2.041 6.488-3.805 6.018-4.64Zm0 0" style="fill-rule:evenodd;fill:#fff;fill-opacity:1;stroke-width:.5;stroke-linecap:butt;stroke-linejoin:miter;stroke:#bd6b00;stroke-opacity:1;stroke-miterlimit:4" transform="matrix(.04154 0 0 .0421 .04 1.08)"/><path d="M256.991 201.863c-.376-.928-.94-1.763-1.598-2.598-.658-.742-1.41-1.392-2.351-1.763-.94-.278-1.787-.742-2.445-1.485-.376-.464-.658-.928-.752-1.484v-2.042l-.376.278c-2.257 1.67-3.95 5.94-3.95 8.723v2.32c.094.557.282.928.565 1.3l1.128.742 2.727.742c.94.464 1.88 1.114 2.539 2.041.752.743 1.316 1.578 1.786 2.599l.282-.835c.753-2.691.659-5.94 2.54-8.538Zm0 0" style="fill-rule:evenodd;fill:#bf0000;fill-opacity:1;stroke-width:.5;stroke-linecap:butt;stroke-linejoin:miter;stroke:#bd6b00;stroke-opacity:1;stroke-miterlimit:4" transform="matrix(.04154 0 0 .0421 .04 1.08)"/><path d="M249.845 192.398c-.564 3.34 1.316 4.547 3.197 5.104 1.787.742 3.291 2.598 3.95 4.361m-11.66 1.578c.752 2.97 2.726 2.598 4.607 3.155 1.787.65 3.667 2.97 4.42 4.825" style="fill:none;stroke-width:.5;stroke-linecap:butt;stroke-linejoin:miter;stroke:#bd6b00;stroke-opacity:1;stroke-miterlimit:4" transform="matrix(.04154 0 0 .0421 .04 1.08)"/><path d="m255.58 184.51 1.035-.649 17.678 29.973-1.034.557Zm0 0" style="fill-rule:evenodd;fill:#fff;fill-opacity:1;stroke-width:.5;stroke-linecap:butt;stroke-linejoin:miter;stroke:#bd6b00;stroke-opacity:1;stroke-miterlimit:4" transform="matrix(.04154 0 0 .0421 .04 1.08)"/><path d="M257.461 183.304c0 1.114-.846 2.042-1.974 2.042s-1.975-.928-1.975-2.042.846-2.041 1.975-2.041c1.128 0 1.974.928 1.974 2.041Zm15.234-24.034h7.24v1.67h-7.24Zm0 3.155h7.24v13.734h-7.24Zm-.376-5.01h7.992c.189-2.692-2.538-5.661-4.043-5.661-1.599.186-4.043 3.062-3.95 5.66Zm0 0" style="fill-rule:evenodd;fill:#fff;fill-opacity:1;stroke-width:.5;stroke-linecap:butt;stroke-linejoin:miter;stroke:#bd6b00;stroke-opacity:1;stroke-miterlimit:4" transform="matrix(.04154 0 0 .0421 .04 1.08)"/><path d="M12.195 7.64c-.062.024-.113.094-.14.18a.5.5 0 0 0-.028.258.2.2 0 0 0 .02.063q.017.018.027.02.02 0 .028-.013l.007-.035a.8.8 0 0 1 .016-.226.32.32 0 0 1 .125-.184.1.1 0 0 0 .02-.031l-.012-.027a.05.05 0 0 0-.063-.004m.008.015c.016-.008.031-.004.04.004l.007.008c0 .004-.008.008-.016.016a.35.35 0 0 0-.129.195.8.8 0 0 0-.011.234l-.008.028s0 .004-.008 0l-.015-.012-.02-.05a.6.6 0 0 1 .031-.255c.031-.082.07-.136.125-.168Zm0 0" style="stroke:none;fill-rule:evenodd;fill:#bd6b00;fill-opacity:1"/><path d="M12.3 7.719a.26.26 0 0 0-.124.176.7.7 0 0 0-.012.25c.016.054.035.082.066.082q.024.01.036-.012a.05.05 0 0 0 .007-.043.6.6 0 0 1-.011-.211.27.27 0 0 1 .09-.176q.021-.016.02-.031l-.009-.027a.07.07 0 0 0-.062-.008m.008.02a.1.1 0 0 1 .043 0l.003.015-.011.016a.3.3 0 0 0-.102.183.6.6 0 0 0 .012.219v.035l-.024.004c-.011 0-.039-.02-.05-.07a.6.6 0 0 1 .015-.243q.03-.117.114-.16" style="stroke:none;fill-rule:evenodd;fill:#bd6b00;fill-opacity:1"/><path d="M272.319 187.387h7.992v11.043h-7.992Zm.47 17.446h7.71v2.413h-7.71Zm-.188 4.083h7.993v8.723H272.6Zm-.564 10.486h8.65v4.918h-8.65Zm1.034-16.61h7.052l1.41-2.413h-9.59Zm9.403-8.63.094-5.94h4.796c-2.069 1.578-3.667 3.62-4.89 5.94Zm0 0" style="fill-rule:evenodd;fill:#fff;fill-opacity:1;stroke-width:.5;stroke-linecap:butt;stroke-linejoin:miter;stroke:#bd6b00;stroke-opacity:1;stroke-miterlimit:4" transform="matrix(.04154 0 0 .0421 .04 1.08)"/><path d="M273.635 196.667c0 1.299 1.505.835 1.505.093v-5.568c0-1.02 2.35-.835 2.35-.093v6.032c0 .928 1.693.835 1.599 0v-7.053c0-2.134-5.454-2.041-5.454-.092Zm0 13.362h5.642v6.96h-5.642Zm0 0" style="fill:none;stroke-width:.5;stroke-linecap:butt;stroke-linejoin:miter;stroke:#bd6b00;stroke-opacity:1;stroke-miterlimit:4" transform="matrix(.04154 0 0 .0421 .04 1.08)"/><path d="M277.208 212.999h1.975v1.02h-1.975Zm-3.479 0h1.975v1.02h-1.975Zm1.975-2.97h1.504V213h-1.504Zm0 3.99h1.504v3.063h-1.504Zm-31.69-74.978c.377 5.475-1.41 8.537-4.325 8.073-.752-2.97 1.035-5.104 4.326-8.073Zm-6.487 12.249c-2.633-1.3-.753-11.507.282-15.775.658 5.475 1.974 13.27-.282 15.775Zm0 0" style="fill-rule:evenodd;fill:#fff;fill-opacity:1;stroke-width:.5;stroke-linecap:butt;stroke-linejoin:miter;stroke:#bd6b00;stroke-opacity:1;stroke-miterlimit:4" transform="matrix(.04154 0 0 .0421 .04 1.08)"/><path d="M238.373 151.754c4.42 1.577 7.993-3.155 9.121-8.63-3.573 5.01-9.497 5.01-9.027 8.63Zm-3.291 5.104c-3.385-.836-1.41-11.693-.659-15.961.659 4.547 3.104 14.476.659 15.96Zm1.222-.279c.188-3.712 3.855-2.69 6.488-4.64-.47 1.95-1.974 5.197-6.488 4.64Zm-4.231 5.011c-3.386-1.02-1.41-12.62-1.599-17.353 1.034 4.176 4.232 16.24 1.599 17.353Zm1.598-.464c2.821.835 6.488-1.02 6.865-4.361-2.54 1.763-6.3.464-6.865 4.361Zm0 0" style="fill-rule:evenodd;fill:#fff;fill-opacity:1;stroke-width:.5;stroke-linecap:butt;stroke-linejoin:miter;stroke:#bd6b00;stroke-opacity:1;stroke-miterlimit:4" transform="matrix(.04154 0 0 .0421 .04 1.08)"/><path d="M229.534 166.694c-3.197.278-1.88-9.558-1.88-18.837 1.222 8.63 4.513 16.517 1.88 18.837Zm0 0" style="fill-rule:evenodd;fill:#fff;fill-opacity:1;stroke-width:.5;stroke-linecap:butt;stroke-linejoin:miter;stroke:#bd6b00;stroke-opacity:1;stroke-miterlimit:4" transform="matrix(.04154 0 0 .0421 .04 1.08)"/><path d="M230.662 166.323c2.257 1.02 6.112-.743 7.24-4.454-4.043 1.763-6.582 0-7.24 4.454Zm25.671-22.178c-.658 4.825-2.633 7.609-5.548 7.145-.752-2.97 1.599-5.011 5.548-7.145Zm-7.805 12.341c4.89.743 6.583-2.969 9.968-7.887-4.702 3.433-10.156 3.99-9.968 7.98Zm0 0" style="fill-rule:evenodd;fill:#fff;fill-opacity:1;stroke-width:.5;stroke-linecap:butt;stroke-linejoin:miter;stroke:#bd6b00;stroke-opacity:1;stroke-miterlimit:4" transform="matrix(.04154 0 0 .0421 .04 1.08)"/><path d="M247.024 156.022c-2.633-3.247 0-7.33 1.975-10.764-.377 5.104 1.316 8.073-1.975 10.764Zm-1.034 5.29c-.377-3.248 4.983-3.898 7.428-5.568-.94 1.763-1.975 6.681-7.523 5.568Zm0 0" style="fill-rule:evenodd;fill:#fff;fill-opacity:1;stroke-width:.5;stroke-linecap:butt;stroke-linejoin:miter;stroke:#bd6b00;stroke-opacity:1;stroke-miterlimit:4" transform="matrix(.04154 0 0 .0421 .04 1.08)"/><path d="M244.767 161.312c-3.667-.371-2.163-6.681.564-10.115-1.128 4.825 1.975 8.073-.564 10.115Zm0 0" style="fill-rule:evenodd;fill:#fff;fill-opacity:1;stroke-width:.5;stroke-linecap:butt;stroke-linejoin:miter;stroke:#bd6b00;stroke-opacity:1;stroke-miterlimit:4" transform="matrix(.04154 0 0 .0421 .04 1.08)"/><path d="M242.04 166.601c-4.231-2.041-1.504-7.238 0-10.3-.658 4.083 2.727 7.238 0 10.207Zm0 0" style="fill-rule:evenodd;fill:#fff;fill-opacity:1;stroke-width:.5;stroke-linecap:butt;stroke-linejoin:miter;stroke:#bd6b00;stroke-opacity:1;stroke-miterlimit:4" transform="matrix(.04154 0 0 .0421 .04 1.08)"/><path d="M242.792 166.044c2.163 2.97 6.489-.835 7.429-5.289-3.761 3.155-6.488 2.691-7.429 5.382Zm-9.59 20.23c-.377-4.269 2.82-11.97.47-16.147-.283-.65.751-2.134 1.41-1.206 1.034 1.485 1.974 5.66 2.539 4.083.47-1.577.47-4.64 1.974-5.196 1.035-.279 2.351-.65 1.88 1.02-.375 1.392-1.221 3.34-.281 3.434.47 0 1.975-1.949 3.291-2.97 1.034-.835 2.633.65 1.034 1.763-4.795 4.083-9.497 5.94-12.318 15.219Zm-8.746 64.493c-.564 0-1.222-.279-.564.65 5.736 6.959 7.334 9 15.61 7.98 8.274-1.114 10.343-3.434 16.173-6.682 3.48-1.763 7.522-2.134 11.19-1.02 1.598.464 2.633.464 1.41-.65-1.128-1.206-2.445-2.784-3.95-3.805-3.76-2.505-8.274-3.433-12.694-2.783-6.018 1.02-11.095 4.918-17.208 6.402a22.6 22.6 0 0 1-9.967 0Zm47.863 12.527c.94.186 1.692 2.227 2.256.928.847-2.32.189-3.99-.752-3.897-1.222.278-3.103 2.969-1.504 2.969Zm0 0" style="fill-rule:evenodd;fill:#fff;fill-opacity:1;stroke-width:.5;stroke-linecap:butt;stroke-linejoin:miter;stroke:#bd6b00;stroke-opacity:1;stroke-miterlimit:4" transform="matrix(.04154 0 0 .0421 .04 1.08)"/><path d="M9.203 8.785c-.05-.058-.035-.082.043-.082.059 0 .172.043.219.004.043-.027.02-.156.043-.21.008-.036.027-.083.082-.009.148.246.332.54.414.828.043.157 0 .41-.14.579 0-.141-.052-.239-.114-.36-.082-.156-.375-.59-.547-.754Zm0 0" style="stroke:none;fill-rule:evenodd;fill:#fff;fill-opacity:1"/><path d="M235.458 213.37c4.043 0 4.701-5.29 4.701-6.774-1.974.371-5.36 3.712-4.701 6.774Zm34.51 51.965c2.82.557 2.727-6.217-.188-9.093 1.316 4.36-1.975 8.351.094 9Zm-1.129-.092c.189 3.155-7.992-.464-10.061-3.063 4.796 2.135 9.78.464 10.061 3.063Zm-3.573-4.64c.376 3.062-6.958.278-9.309-2.134 4.984 1.67 9.027-.464 9.31 2.041Zm1.317.371c2.915.742 2.445-6.403-.376-8.815 1.41 4.732-1.787 8.166.376 8.815Zm-3.01-4.268c2.916.65 1.223-5.383-.846-7.795.376 4.361-1.034 7.516.94 7.795Zm-1.504 0c.376 3.155-5.36.835-7.523-2.32 4.796 1.484 7.241-.279 7.523 2.32Zm-1.504-2.506c1.88-1.3-.094-4.825-3.668-4.64.376 2.135 1.599 5.94 3.668 4.64Zm14.01 14.662c.094 3.248-7.992 1.67-10.531-1.763 5.172 1.02 10.25-.836 10.437 1.763Zm-32.347-5.754c.282 3.155-8.65-.37-10.814-3.433 4.702 1.67 10.532.835 10.814 3.433Zm5.36 1.3c1.88-1.3-1.88-4.733-4.984-5.475.376 2.041 3.01 6.774 4.984 5.567Zm.658 2.32c.188 2.876-9.591 1.299-12.036-1.393 8.275 1.485 11.66-1.113 12.036 1.392Zm0 0" style="fill-rule:evenodd;fill:#fff;fill-opacity:1;stroke-width:.5;stroke-linecap:butt;stroke-linejoin:miter;stroke:#bd6b00;stroke-opacity:1;stroke-miterlimit:4" transform="matrix(.04154 0 0 .0421 .04 1.08)"/><path d="M252.76 268.583c1.034 2.691-8.275 2.042-11.566.557 5.266 0 10.814-2.413 11.566-.557Zm0 0" style="fill-rule:evenodd;fill:#fff;fill-opacity:1;stroke-width:.5;stroke-linecap:butt;stroke-linejoin:miter;stroke:#bd6b00;stroke-opacity:1;stroke-miterlimit:4" transform="matrix(.04154 0 0 .0421 .04 1.08)"/><path d="M257.085 270.625c1.035 2.413-7.616 2.413-11.754 1.02 5.548 0 10.814-3.433 11.754-1.02Zm6.3 1.299c1.6 2.877-7.616 3.062-10.531 1.67 5.266-.65 9.215-3.99 10.532-1.67Zm-10.72-4.918c-2.82 1.763-2.632-3.62-4.983-7.331 3.573 3.34 7.053 5.66 4.984 7.33Zm0 0" style="fill-rule:evenodd;fill:#fff;fill-opacity:1;stroke-width:.5;stroke-linecap:butt;stroke-linejoin:miter;stroke:#bd6b00;stroke-opacity:1;stroke-miterlimit:4" transform="matrix(.04154 0 0 .0421 .04 1.08)"/><path d="M257.932 268.955c-2.445 2.134-4.42-5.29-6.677-9.466 3.668 3.99 8.84 7.702 6.677 9.373Zm6.77 2.041c-1.975 2.413-7.993-6.96-10.156-11.97 3.292 3.897 11.755 9.929 10.156 11.97Zm-5.83 7.238c-.94 3.526-16.174-3.433-17.96-7.145 8.745 4.64 18.148 3.619 17.96 7.052Zm-48.709-73.865c-.376-.464-1.316 0-1.128 1.113.282 1.485 2.445 9.187 6.3 11.785 2.633 2.042 16.926 5.104 23.32 6.496 3.573.743 6.582 2.506 8.933 5.382-.846-3.34-1.787-6.681-3.009-9.836-1.222-2.97-4.42-6.217-7.805-6.31-6.112-.279-14.105-.835-19.935-3.34q-4.09-1.67-6.77-5.29Zm0 0" style="fill-rule:evenodd;fill:#fff;fill-opacity:1;stroke-width:.5;stroke-linecap:butt;stroke-linejoin:miter;stroke:#bd6b00;stroke-opacity:1;stroke-miterlimit:4" transform="matrix(.04154 0 0 .0421 .04 1.08)"/><path d="M245.52 234.899c1.974 1.392 4.043-3.712 1.692-8.63-.094 4.732-3.855 6.31-1.693 8.63Zm0 0" style="fill-rule:evenodd;fill:#fff;fill-opacity:1;stroke-width:.5;stroke-linecap:butt;stroke-linejoin:miter;stroke:#bd6b00;stroke-opacity:1;stroke-miterlimit:4" transform="matrix(.04154 0 0 .0421 .04 1.08)"/><path d="M247.4 239.631c2.727.743 3.48-3.99 1.787-7.795.282 4.083-4.326 6.589-1.787 7.795Zm0 0" style="fill-rule:evenodd;fill:#fff;fill-opacity:1;stroke-width:.5;stroke-linecap:butt;stroke-linejoin:miter;stroke:#bd6b00;stroke-opacity:1;stroke-miterlimit:4" transform="matrix(.04154 0 0 .0421 .04 1.08)"/><path d="M249.469 243.436c2.633 1.299 3.573-3.62 1.692-7.145.282 4.547-3.667 5.938-1.692 7.052Zm0 0" style="fill-rule:evenodd;fill:#fff;fill-opacity:1;stroke-width:.5;stroke-linecap:butt;stroke-linejoin:miter;stroke:#bd6b00;stroke-opacity:1;stroke-miterlimit:4" transform="matrix(.04154 0 0 .0421 .04 1.08)"/><path d="M248.434 243.714c-1.034 2.97-7.052-2.69-7.992-5.846 3.667 3.712 8.65 3.248 7.992 5.753Zm0 0" style="fill-rule:evenodd;fill:#fff;fill-opacity:1;stroke-width:.5;stroke-linecap:butt;stroke-linejoin:miter;stroke:#bd6b00;stroke-opacity:1;stroke-miterlimit:4" transform="matrix(.04154 0 0 .0421 .04 1.08)"/><path d="M245.707 238.982c-1.222 3.062-8.745-5.011-10.437-8.723 3.761 3.712 11.19 6.496 10.437 8.63Zm0 0" style="fill-rule:evenodd;fill:#fff;fill-opacity:1;stroke-width:.5;stroke-linecap:butt;stroke-linejoin:miter;stroke:#bd6b00;stroke-opacity:1;stroke-miterlimit:4" transform="matrix(.04154 0 0 .0421 .04 1.08)"/><path d="M244.203 234.342c-1.223 3.433-9.31-5.846-11.66-9.187 3.95 3.62 12.6 6.681 11.66 9.187Zm-.282-3.434c3.009-.65-.094-2.97-3.762-6.866-.094 4.083.565 6.96 3.762 6.866Zm0 0" style="fill-rule:evenodd;fill:#fff;fill-opacity:1;stroke-width:.5;stroke-linecap:butt;stroke-linejoin:miter;stroke:#bd6b00;stroke-opacity:1;stroke-miterlimit:4" transform="matrix(.04154 0 0 .0421 .04 1.08)"/><path d="M239.031 228.496c1.223-1.3-1.128-1.856-4.137-5.29-.47 2.32 2.82 6.496 4.231 5.29Zm14.011 15.218c1.599 1.02 2.539-2.32.658-5.196-.47 3.155-2.069 3.99-.658 5.196Zm-34.228-20.322c-3.291 2.041-8.65-6.032-9.967-9.28 2.82 3.805 10.531 7.146 9.967 9.28Zm0 0" style="fill-rule:evenodd;fill:#fff;fill-opacity:1;stroke-width:.5;stroke-linecap:butt;stroke-linejoin:miter;stroke:#bd6b00;stroke-opacity:1;stroke-miterlimit:4" transform="matrix(.04154 0 0 .0421 .04 1.08)"/><path d="M221.73 228.032c-1.976 1.948-7.712-3.526-9.686-6.31 2.915 2.69 10.437 2.97 9.685 6.31Zm0 0" style="fill-rule:evenodd;fill:#fff;fill-opacity:1;stroke-width:.5;stroke-linecap:butt;stroke-linejoin:miter;stroke:#bd6b00;stroke-opacity:1;stroke-miterlimit:4" transform="matrix(.04154 0 0 .0421 .04 1.08)"/><path d="M224.832 232.208c-.658 2.783-9.027-3.527-11.002-6.496 3.574 3.526 11.566 3.155 11.002 6.496Zm0 0" style="fill-rule:evenodd;fill:#fff;fill-opacity:1;stroke-width:.5;stroke-linecap:butt;stroke-linejoin:miter;stroke:#bd6b00;stroke-opacity:1;stroke-miterlimit:4" transform="matrix(.04154 0 0 .0421 .04 1.08)"/><path d="M223.516 235.27c-1.317 2.505-8.181-3.805-9.874-6.96 4.232 3.62 11.002 4.454 9.968 6.96Zm-3.48-12.25c2.07-2.32 1.129-3.433-.47-7.052-.752 3.712-2.068 5.197.47 7.053Zm2.821 4.27c4.044.185 0-4.548-.94-8.723.376 4.64-1.034 8.351.94 8.722Zm0 0" style="fill-rule:evenodd;fill:#fff;fill-opacity:1;stroke-width:.5;stroke-linecap:butt;stroke-linejoin:miter;stroke:#bd6b00;stroke-opacity:1;stroke-miterlimit:4" transform="matrix(.04154 0 0 .0421 .04 1.08)"/><path d="M225.396 231.094c2.727-.557 1.975-4.454-.188-9.187.47 5.104-2.35 7.98.188 9.187Zm-1.034 7.702c-.94 2.97-8.745-3.99-9.967-6.774 4.043 3.34 10.72 4.454 9.967 6.774Zm0 0" style="fill-rule:evenodd;fill:#fff;fill-opacity:1;stroke-width:.5;stroke-linecap:butt;stroke-linejoin:miter;stroke:#bd6b00;stroke-opacity:1;stroke-miterlimit:4" transform="matrix(.04154 0 0 .0421 .04 1.08)"/><path d="M229.064 243.621c-1.035 2.97-9.31-3.247-11.754-6.588 4.89 3.99 12.412 3.526 11.754 6.588Zm0 0" style="fill-rule:evenodd;fill:#fff;fill-opacity:1;stroke-width:.5;stroke-linecap:butt;stroke-linejoin:miter;stroke:#bd6b00;stroke-opacity:1;stroke-miterlimit:4" transform="matrix(.04154 0 0 .0421 .04 1.08)"/><path d="M233.86 248.54c-1.223 4.268-9.874-2.599-12.319-6.032 5.36 4.176 12.977 2.97 12.318 6.032Zm-7.993-11.043c2.35 1.113 3.197-5.382 1.974-10.115 0 5.011-4.701 8.816-2.069 10.022Zm0 0" style="fill-rule:evenodd;fill:#fff;fill-opacity:1;stroke-width:.5;stroke-linecap:butt;stroke-linejoin:miter;stroke:#bd6b00;stroke-opacity:1;stroke-miterlimit:4" transform="matrix(.04154 0 0 .0421 .04 1.08)"/><path d="M229.816 242.693c2.82.836 1.975-6.31-.47-10.95-.376 4.64-2.351 9.002.47 10.95Zm4.984 4.919c3.009.092 1.034-6.125-1.599-9.651.376 4.547-1.034 9.001 1.599 9.65Zm-5.454 2.598c-1.035 1.577-3.291-1.3-7.053-3.526 3.385 1.02 7.429 2.041 7.053 3.526Zm-1.88-52.708c3.008-2.227.751-6.217 0-10.022-.941 3.62-3.386 8.445 0 10.022Zm0 5.29c-4.42-.465-3.762-6.125-3.95-9.651 1.41 4.825 4.983 5.66 3.95 9.743Zm.657-.65c3.668-.279 3.48-4.454 3.668-8.63-1.881 3.897-3.95 4.454-3.668 8.63Zm0 0" style="fill-rule:evenodd;fill:#fff;fill-opacity:1;stroke-width:.5;stroke-linecap:butt;stroke-linejoin:miter;stroke:#bd6b00;stroke-opacity:1;stroke-miterlimit:4" transform="matrix(.04154 0 0 .0421 .04 1.08)"/><path d="M228.03 207.338c-3.01.279-4.42-2.598-4.984-7.052 2.632 4.083 5.077 2.784 4.983 7.052Zm.94-.37c3.76.556 3.009-3.805 3.009-6.96-1.223 2.969-4.138 3.99-3.01 6.96Zm0 0" style="fill-rule:evenodd;fill:#fff;fill-opacity:1;stroke-width:.5;stroke-linecap:butt;stroke-linejoin:miter;stroke:#bd6b00;stroke-opacity:1;stroke-miterlimit:4" transform="matrix(.04154 0 0 .0421 .04 1.08)"/><path d="M223.234 205.204c.282 2.784 2.068 7.61 4.983 6.496 1.129-3.434-2.633-4.083-4.983-6.496Zm0 0" style="fill-rule:evenodd;fill:#fff;fill-opacity:1;stroke-width:.5;stroke-linecap:butt;stroke-linejoin:miter;stroke:#bd6b00;stroke-opacity:1;stroke-miterlimit:4" transform="matrix(.04154 0 0 .0421 .04 1.08)"/><path d="M228.97 211.978c-1.129-2.413 3.009-3.712 3.855-6.867.47 4.547.094 7.61-3.855 6.96ZM217.12 182.84c2.257-2.412.283-6.403-.376-10.207-1.034 3.526-2.539 8.351.376 10.207Zm0 4.547c-4.043.557-4.983-7.702-5.547-11.32 1.41 4.917 6.018 7.052 5.547 11.413Zm.753 0c2.82-1.484 2.257-4.732 3.009-6.96-1.787 2.877-3.573 3.249-3.01 6.96Zm0 0" style="fill-rule:evenodd;fill:#fff;fill-opacity:1;stroke-width:.5;stroke-linecap:butt;stroke-linejoin:miter;stroke:#bd6b00;stroke-opacity:1;stroke-miterlimit:4" transform="matrix(.04154 0 0 .0421 .04 1.08)"/><path d="M217.027 192.77c-4.137.37-6.582-8.816-6.864-12.342 1.317 4.918 7.429 7.516 6.958 12.341Zm.847-.186c4.043-.928 3.573-3.526 2.915-7.61-1.317 4.27-3.48 3.341-2.915 7.61Zm0 0" style="fill-rule:evenodd;fill:#fff;fill-opacity:1;stroke-width:.5;stroke-linecap:butt;stroke-linejoin:miter;stroke:#bd6b00;stroke-opacity:1;stroke-miterlimit:4" transform="matrix(.04154 0 0 .0421 .04 1.08)"/><path d="M217.027 197.966c-4.607.835-4.325-6.588-7.992-11.878 3.197 3.99 8.933 9.001 7.992 11.878Zm.94-.278c3.668.185 4.044-5.104 3.856-7.331-.94 2.227-4.984 4.268-3.761 7.423Zm0 0" style="fill-rule:evenodd;fill:#fff;fill-opacity:1;stroke-width:.5;stroke-linecap:butt;stroke-linejoin:miter;stroke:#bd6b00;stroke-opacity:1;stroke-miterlimit:4" transform="matrix(.04154 0 0 .0421 .04 1.08)"/><path d="M209.787 192.306c1.693 5.66 4.231 11.413 7.24 10.95 1.505-3.248-2.915-3.62-7.24-10.95Zm0 0" style="fill-rule:evenodd;fill:#fff;fill-opacity:1;stroke-width:.5;stroke-linecap:butt;stroke-linejoin:miter;stroke:#bd6b00;stroke-opacity:1;stroke-miterlimit:4" transform="matrix(.04154 0 0 .0421 .04 1.08)"/><path d="M218.062 202.42c-1.129-2.505 3.009-3.712 3.855-6.96.47 4.64.094 7.61-3.855 6.96Zm-7.053-3.619c2.445 5.104 3.574 11.043 6.959 10.115 1.316-3.99-3.762-4.825-6.959-10.115Zm0 0" style="fill-rule:evenodd;fill:#fff;fill-opacity:1;stroke-width:.5;stroke-linecap:butt;stroke-linejoin:miter;stroke:#bd6b00;stroke-opacity:1;stroke-miterlimit:4" transform="matrix(.04154 0 0 .0421 .04 1.08)"/><path d="M218.72 207.988c-1.504-2.784 2.727-3.712 3.761-7.424.565 4.826 0 8.352-3.761 7.331Zm7.147-34.52c2.444.65 5.077-2.041 4.137-6.124-2.821.556-4.043 3.155-4.137 6.124Zm-7.9-2.041c.189 1.206 1.693 1.299 1.223-.464-.376-1.021-.376-2.228 0-3.341a7.8 7.8 0 0 0 0-4.64c-.376-1.02-1.786-.371-1.222.464.658.742.752 2.784.188 3.62-.376 1.484-.47 2.969-.188 4.36Zm22.945 15.96c-1.035 1.3-2.915.372-1.41-1.484 1.222-1.485 3.008-2.784 3.008-4.362.188-2.041 1.317-5.01 2.351-6.124 1.129-1.114 2.445.37 1.223 1.206-1.317.742-2.163 4.361-2.07 5.753-.093 2.042-1.974 3.527-3.102 5.011Zm-3.01-2.32c-1.034 1.392-2.444.557-1.598-1.67.658-1.485.752-3.526 1.599-4.64 1.222-1.67 3.009-3.062 4.137-4.175 1.129-1.021 1.975 0 .94 1.02a26.6 26.6 0 0 0-3.29 3.99c-1.411 2.228-.753 3.99-1.787 5.475Zm-15.703-7.145c-.094 1.949 1.505 2.413 1.41-.464 0-2.97-2.162-5.753-1.034-10.3.847-2.134.847-6.217.47-8.352-.47-2.134-2.068-.835-1.316.928.564 1.949-.094 5.568-.658 7.424-1.505 5.475 1.222 8.073 1.034 10.764Zm4.326-11.042c-.188 1.948-1.787 2.041-1.317-.464q.564-2.924 0-5.29c-.564-2.134-.376-5.753 0-7.238.47-1.577 1.975-.65 1.41.557a8.9 8.9 0 0 0-.281 5.846c.564 2.042.47 4.825.188 6.681Zm-15.61 37.118c.753.928 1.975.278.94-1.021-.94-1.02-.658-1.206-1.222-2.413-.658-1.392-.564-2.041-1.222-2.97-.752-1.02-1.599 0-1.035.743.847.928.659 1.578 1.035 2.506 1.034 1.484.658 2.227 1.504 3.155Zm20.405 24.59c2.445 1.392 4.044 3.898 4.42 6.682a16 16 0 0 0 1.975 7.145c-1.975-.557-3.01-3.712-3.292-6.774-.282-3.248-2.068-4.547-3.009-7.052Zm5.078 5.94c1.693 3.062 4.044 4.268 4.232 6.588.188 2.691.376 2.784 1.034 5.382-1.975-.464-2.445-.742-3.009-4.733-.282-2.783-2.539-4.64-2.257-7.238Zm0 0" style="fill-rule:evenodd;fill:#fff;fill-opacity:1;stroke-width:.5;stroke-linecap:butt;stroke-linejoin:miter;stroke:#bd6b00;stroke-opacity:1;stroke-miterlimit:4" transform="matrix(.04154 0 0 .0421 .04 1.08)"/><path d="M12.043 12.164c.043.074.086.191.168.168 0-.055-.086-.098-.168-.168m.125.027c.156.067.293.047.312.149-.148.02-.207-.04-.316-.149Zm-.668-.535a.57.57 0 0 1 .207.324c.035.114.086.227.152.329a.55.55 0 0 1-.222-.313 1 1 0 0 0-.137-.336Zm.129 0c.117.09.223.2.258.332.031.121.054.215.133.336-.125-.078-.172-.199-.207-.328-.032-.125-.106-.219-.184-.336Zm.383.305a.05.05 0 0 1 .027-.05l.11-.032c.042-.012.066.016.066.035V12q0 .04-.027.04a.2.2 0 0 0-.102.026q-.04.023-.063-.02Zm.441 0c0-.027-.012-.043-.027-.05a.2.2 0 0 0-.098-.016c-.039 0-.05.007-.047.027v.086c0 .035 0 .035.016.043a.17.17 0 0 1 .105.023q.036.018.047-.023Zm0 0" style="stroke:none;fill-rule:evenodd;fill:#fff;fill-opacity:1"/><path d="M257.345 186.46c-1.223-1.95-2.727 2.876-7.805 6.31-2.35 1.67-4.043 5.938-4.043 8.722a61 61 0 0 1 0 5.846c-.094 1.021-1.41 3.805-.47 4.455 2.162 1.577 5.077 5.382 6.394 6.68 1.222 1.022 2.163-5.289 3.009-7.98.94-2.969.564-6.68 3.197-9.372 1.787-2.041 6.394-3.805 6.018-4.64Zm0 0" style="fill-rule:evenodd;fill:#fff;fill-opacity:1;stroke-width:.5;stroke-linecap:butt;stroke-linejoin:miter;stroke:#bd6b00;stroke-opacity:1;stroke-miterlimit:4" transform="matrix(-.04154 0 0 .0421 24.964 1.08)"/><path d="M256.969 201.863c-.376-.928-.94-1.763-1.599-2.598a5.6 5.6 0 0 0-2.35-1.763c-.94-.278-1.787-.742-2.445-1.485-.377-.464-.659-.928-.753-1.484v-2.042l-.282.278c-2.35 1.67-4.043 5.94-4.043 8.723v2.32c.094.557.376.928.564 1.3l1.128.742 2.727.742c1.035.464 1.881 1.114 2.54 2.041.751.743 1.41 1.578 1.88 2.599l.188-.835c.752-2.691.658-5.94 2.539-8.538Zm0 0" style="fill-rule:evenodd;fill:#bf0000;fill-opacity:1;stroke-width:.5;stroke-linecap:butt;stroke-linejoin:miter;stroke:#bd6b00;stroke-opacity:1;stroke-miterlimit:4" transform="matrix(-.04154 0 0 .0421 24.964 1.08)"/><path d="M249.822 192.398c-.564 3.34 1.41 4.547 3.197 5.104 1.787.742 3.292 2.598 3.95 4.361m-11.66 1.578c.752 2.97 2.82 2.598 4.607 3.155 1.787.65 3.668 2.97 4.514 4.825" style="fill:none;stroke-width:.5;stroke-linecap:butt;stroke-linejoin:miter;stroke:#bd6b00;stroke-opacity:1;stroke-miterlimit:4" transform="matrix(-.04154 0 0 .0421 24.964 1.08)"/><path d="m255.558 184.51 1.035-.649 17.678 29.973-.94.557Zm0 0" style="fill-rule:evenodd;fill:#fff;fill-opacity:1;stroke-width:.5;stroke-linecap:butt;stroke-linejoin:miter;stroke:#bd6b00;stroke-opacity:1;stroke-miterlimit:4" transform="matrix(-.04154 0 0 .0421 24.964 1.08)"/><path d="M257.533 183.304c0 1.114-.94 2.042-2.069 2.042-1.034 0-1.974-.928-1.974-2.042s.94-2.041 1.974-2.041c1.129 0 2.069.928 2.069 2.041Zm15.14-24.034h7.24v1.67h-7.24Zm0 3.155h7.24v13.734h-7.24Zm-.377-5.01h7.993c.188-2.692-2.445-5.661-3.95-5.661-1.598.186-4.137 3.062-4.043 5.66Zm0 0" style="fill-rule:evenodd;fill:#fff;fill-opacity:1;stroke-width:.5;stroke-linecap:butt;stroke-linejoin:miter;stroke:#bd6b00;stroke-opacity:1;stroke-miterlimit:4" transform="matrix(-.04154 0 0 .0421 24.964 1.08)"/><path d="M12.809 7.64c.062.024.113.094.14.18.031.082.043.18.028.258a.13.13 0 0 1-.024.063q-.012.018-.023.02c-.016 0-.024-.005-.032-.013l-.007-.035a.7.7 0 0 0-.012-.226.32.32 0 0 0-.125-.184q-.016-.013-.02-.031l.012-.027q.03-.023.063-.004m-.008.015a.04.04 0 0 0-.043.004l-.004.008q0 .005.012.016a.32.32 0 0 1 .129.195.7.7 0 0 1 .015.234l.008.028s0 .004.008 0l.015-.012.016-.05a.5.5 0 0 0-.027-.255.32.32 0 0 0-.125-.168Zm0 0" style="stroke:none;fill-rule:evenodd;fill:#bd6b00;fill-opacity:1"/><path d="M12.7 7.719a.25.25 0 0 1 .124.176.6.6 0 0 1 .016.25q-.025.082-.067.082-.023.01-.035-.012a.05.05 0 0 1-.008-.043.6.6 0 0 0 .012-.211.3.3 0 0 0-.09-.176q-.023-.016-.023-.031l.008-.027a.07.07 0 0 1 .062-.008m-.008.02a.07.07 0 0 0-.039 0l-.004.015.012.016c.055.046.09.113.098.183a.6.6 0 0 1-.008.219v.035l.023.004c.012 0 .04-.02.047-.07a.6.6 0 0 0-.011-.243q-.036-.117-.118-.16" style="stroke:none;fill-rule:evenodd;fill:#bd6b00;fill-opacity:1"/><path d="M272.296 187.387h7.993v11.043h-7.993Zm.47 17.446h7.71v2.413h-7.71Zm-.188 4.083h7.993v8.723h-7.993Zm-.564 10.486h8.651v4.918h-8.651Zm1.128-16.61h6.959l1.41-2.413h-9.591Zm9.404-8.63.094-5.94h4.795a16.7 16.7 0 0 0-4.89 5.94Zm0 0" style="fill-rule:evenodd;fill:#fff;fill-opacity:1;stroke-width:.5;stroke-linecap:butt;stroke-linejoin:miter;stroke:#bd6b00;stroke-opacity:1;stroke-miterlimit:4" transform="matrix(-.04154 0 0 .0421 24.964 1.08)"/><path d="M273.613 196.667c0 1.299 1.504.835 1.504.093v-5.568c0-1.02 2.35-.835 2.35-.093v6.032c0 .928 1.693.835 1.6 0v-7.053c0-2.134-5.454-2.041-5.454-.092Zm0 13.362h5.642v6.96h-5.642Zm0 0" style="fill:none;stroke-width:.5;stroke-linecap:butt;stroke-linejoin:miter;stroke:#bd6b00;stroke-opacity:1;stroke-miterlimit:4" transform="matrix(-.04154 0 0 .0421 24.964 1.08)"/><path d="M277.186 212.999h1.974v1.02h-1.974Zm-3.48 0h1.975v1.02h-1.974Zm1.975-2.97h1.505V213h-1.505Zm0 3.99h1.505v3.063h-1.505Zm-31.689-74.978c.376 5.475-1.41 8.537-4.325 8.073-.753-2.97 1.034-5.104 4.325-8.073Zm-6.488 12.249c-2.633-1.3-.658-11.507.282-15.775.752 5.475 1.975 13.27-.282 15.775Zm0 0" style="fill-rule:evenodd;fill:#fff;fill-opacity:1;stroke-width:.5;stroke-linecap:butt;stroke-linejoin:miter;stroke:#bd6b00;stroke-opacity:1;stroke-miterlimit:4" transform="matrix(-.04154 0 0 .0421 24.964 1.08)"/><path d="M238.444 151.754c4.326 1.577 7.993-3.155 9.027-8.63-3.573 5.01-9.497 5.01-8.933 8.63Zm-3.385 5.104c-3.385-.836-1.316-11.693-.658-15.961.658 4.547 3.103 14.476.658 15.96Zm1.223-.279c.188-3.712 3.949-2.69 6.488-4.64-.47 1.95-1.975 5.197-6.488 4.64Zm-4.138 5.011c-3.48-1.02-1.41-12.62-1.598-17.353.94 4.176 4.137 16.24 1.598 17.353Zm1.599-.464c2.727.835 6.488-1.02 6.77-4.361-2.539 1.763-6.3.464-6.77 4.361Zm0 0" style="fill-rule:evenodd;fill:#fff;fill-opacity:1;stroke-width:.5;stroke-linecap:butt;stroke-linejoin:miter;stroke:#bd6b00;stroke-opacity:1;stroke-miterlimit:4" transform="matrix(-.04154 0 0 .0421 24.964 1.08)"/><path d="M229.511 166.694c-3.197.278-1.786-9.558-1.786-18.837 1.128 8.63 4.513 16.517 1.786 18.837Zm0 0" style="fill-rule:evenodd;fill:#fff;fill-opacity:1;stroke-width:.5;stroke-linecap:butt;stroke-linejoin:miter;stroke:#bd6b00;stroke-opacity:1;stroke-miterlimit:4" transform="matrix(-.04154 0 0 .0421 24.964 1.08)"/><path d="M230.734 166.323c2.162 1.02 6.112-.743 7.146-4.454-3.95 1.763-6.582 0-7.146 4.454Zm25.577-22.178c-.565 4.825-2.633 7.609-5.548 7.145-.753-2.97 1.598-5.011 5.548-7.145Zm-7.805 12.341c4.89.743 6.582-2.969 9.967-7.887-4.701 3.433-10.155 3.99-9.967 7.98Zm0 0" style="fill-rule:evenodd;fill:#fff;fill-opacity:1;stroke-width:.5;stroke-linecap:butt;stroke-linejoin:miter;stroke:#bd6b00;stroke-opacity:1;stroke-miterlimit:4" transform="matrix(-.04154 0 0 .0421 24.964 1.08)"/><path d="M247.001 156.022c-2.633-3.247 0-7.33 1.975-10.764-.376 5.104 1.316 8.073-1.975 10.764Zm-1.034 5.29c-.376-3.248 5.078-3.898 7.429-5.568-.94 1.763-1.975 6.681-7.523 5.568Zm0 0" style="fill-rule:evenodd;fill:#fff;fill-opacity:1;stroke-width:.5;stroke-linecap:butt;stroke-linejoin:miter;stroke:#bd6b00;stroke-opacity:1;stroke-miterlimit:4" transform="matrix(-.04154 0 0 .0421 24.964 1.08)"/><path d="M244.839 161.312c-3.762-.371-2.257-6.681.47-10.115-1.129 4.825 1.974 8.073-.47 10.115Zm0 0" style="fill-rule:evenodd;fill:#fff;fill-opacity:1;stroke-width:.5;stroke-linecap:butt;stroke-linejoin:miter;stroke:#bd6b00;stroke-opacity:1;stroke-miterlimit:4" transform="matrix(-.04154 0 0 .0421 24.964 1.08)"/><path d="M242.018 166.601c-4.232-2.041-1.505-7.238 0-10.3-.659 4.083 2.82 7.238 0 10.207Zm0 0" style="fill-rule:evenodd;fill:#fff;fill-opacity:1;stroke-width:.5;stroke-linecap:butt;stroke-linejoin:miter;stroke:#bd6b00;stroke-opacity:1;stroke-miterlimit:4" transform="matrix(-.04154 0 0 .0421 24.964 1.08)"/><path d="M242.77 166.044c2.257 2.97 6.488-.835 7.428-5.289-3.667 3.155-6.488 2.691-7.428 5.382Zm-9.592 20.23c-.376-4.269 2.821-11.97.565-16.147-.376-.65.658-2.134 1.316-1.206 1.035 1.485 2.069 5.66 2.539 4.083s.47-4.64 1.975-5.196c1.034-.279 2.35-.65 1.88 1.02-.376 1.392-1.128 3.34-.282 3.434.564 0 2.069-1.949 3.291-2.97 1.035-.835 2.633.65 1.035 1.763-4.796 4.083-9.498 5.94-12.319 15.219Zm-8.65 64.493c-.659 0-1.317-.279-.659.65 5.736 6.959 7.335 9 15.61 7.98 8.275-1.114 10.343-3.434 16.267-6.682 3.386-1.763 7.429-2.134 11.19-1.02 1.599.464 2.54.464 1.41-.65-1.222-1.206-2.538-2.784-4.043-3.805-3.761-2.505-8.275-3.433-12.694-2.783-6.018 1.02-11.096 4.918-17.208 6.402-3.291.743-6.676.743-9.874 0Zm47.768 12.527c1.034.186 1.693 2.227 2.35.928.753-2.32.189-3.99-.845-3.897-1.223.278-3.103 2.969-1.505 2.969Zm0 0" style="fill-rule:evenodd;fill:#fff;fill-opacity:1;stroke-width:.5;stroke-linecap:butt;stroke-linejoin:miter;stroke:#bd6b00;stroke-opacity:1;stroke-miterlimit:4" transform="matrix(-.04154 0 0 .0421 24.964 1.08)"/><path d="M15.8 8.785c.052-.058.036-.082-.042-.082-.059 0-.176.043-.219.004-.043-.027-.023-.156-.043-.21-.008-.036-.027-.083-.082-.009-.148.246-.332.54-.414.828-.043.157 0 .41.14.579 0-.141.047-.239.11-.36.086-.156.379-.59.55-.754Zm0 0" style="stroke:none;fill-rule:evenodd;fill:#fff;fill-opacity:1"/><path d="M235.53 213.37c3.949 0 4.7-5.29 4.7-6.774-2.068.371-5.453 3.712-4.7 6.774Zm34.51 51.965c2.726.557 2.632-6.217-.283-9.093 1.317 4.36-1.974 8.351.188 9Zm-1.223-.092c.188 3.155-7.993-.464-10.062-3.063 4.89 2.135 9.874.464 10.062 3.063Zm-3.48-4.64c.283 3.062-7.052.278-9.309-2.134 4.89 1.67 8.934-.464 9.31 2.041Zm1.223.371c2.915.742 2.445-6.403-.376-8.815 1.41 4.732-1.787 8.166.376 8.815Zm-2.915-4.268c2.821.65 1.128-5.383-.94-7.795.376 4.361-1.035 7.516 1.034 7.795Zm-1.504 0c.282 3.155-5.454.835-7.617-2.32 4.796 1.484 7.24-.279 7.617 2.32Zm-1.505-2.506c1.787-1.3-.094-4.825-3.761-4.64.47 2.135 1.598 5.94 3.761 4.64Zm14.01 14.662c.095 3.248-8.086 1.67-10.625-1.763 5.172 1.02 10.25-.836 10.438 1.763Zm-32.44-5.754c.282 3.155-8.651-.37-10.814-3.433 4.702 1.67 10.532.835 10.814 3.433Zm5.36 1.3c1.974-1.3-1.881-4.733-4.984-5.475.376 2.041 3.009 6.774 4.983 5.567Zm.658 2.32c.188 2.876-9.498 1.299-12.036-1.393 8.274 1.485 11.754-1.113 12.036 1.392Zm0 0" style="fill-rule:evenodd;fill:#fff;fill-opacity:1;stroke-width:.5;stroke-linecap:butt;stroke-linejoin:miter;stroke:#bd6b00;stroke-opacity:1;stroke-miterlimit:4" transform="matrix(-.04154 0 0 .0421 24.964 1.08)"/><path d="M252.831 268.583c.94 2.691-8.369 2.042-11.66.557 5.36 0 10.814-2.413 11.66-.557Zm0 0" style="fill-rule:evenodd;fill:#fff;fill-opacity:1;stroke-width:.5;stroke-linecap:butt;stroke-linejoin:miter;stroke:#bd6b00;stroke-opacity:1;stroke-miterlimit:4" transform="matrix(-.04154 0 0 .0421 24.964 1.08)"/><path d="M257.063 270.625c1.034 2.413-7.523 2.413-11.754 1.02 5.548 0 10.813-3.433 11.754-1.02Zm6.3 1.299c1.599 2.877-7.523 3.062-10.438 1.67 5.172-.65 9.216-3.99 10.438-1.67Zm-10.626-4.918c-2.915 1.763-2.727-3.62-5.077-7.331 3.667 3.34 7.052 5.66 5.077 7.33Zm0 0" style="fill-rule:evenodd;fill:#fff;fill-opacity:1;stroke-width:.5;stroke-linecap:butt;stroke-linejoin:miter;stroke:#bd6b00;stroke-opacity:1;stroke-miterlimit:4" transform="matrix(-.04154 0 0 .0421 24.964 1.08)"/><path d="M257.91 268.955c-2.446 2.134-4.42-5.29-6.583-9.466 3.573 3.99 8.745 7.702 6.582 9.373Zm6.77 2.041c-1.975 2.413-7.993-6.96-10.156-11.97 3.291 3.897 11.754 9.929 10.155 11.97Zm-5.737 7.238c-1.034 3.526-16.267-3.433-18.054-7.145 8.84 4.64 18.243 3.619 18.054 7.052Zm-48.708-73.865c-.47-.464-1.411 0-1.223 1.113.282 1.485 2.445 9.187 6.3 11.785 2.727 2.042 17.02 5.104 23.414 6.496 3.48.743 6.489 2.506 8.84 5.382a70 70 0 0 0-3.01-9.836c-1.128-2.97-4.325-6.217-7.71-6.31-6.112-.279-14.105-.835-20.03-3.34-2.726-1.114-4.983-2.877-6.676-5.29Zm0 0" style="fill-rule:evenodd;fill:#fff;fill-opacity:1;stroke-width:.5;stroke-linecap:butt;stroke-linejoin:miter;stroke:#bd6b00;stroke-opacity:1;stroke-miterlimit:4" transform="matrix(-.04154 0 0 .0421 24.964 1.08)"/><path d="M245.497 234.899c1.974 1.392 4.137-3.712 1.692-8.63-.094 4.732-3.76 6.31-1.692 8.63Zm0 0" style="fill-rule:evenodd;fill:#fff;fill-opacity:1;stroke-width:.5;stroke-linecap:butt;stroke-linejoin:miter;stroke:#bd6b00;stroke-opacity:1;stroke-miterlimit:4" transform="matrix(-.04154 0 0 .0421 24.964 1.08)"/><path d="M247.377 239.631c2.727.743 3.48-3.99 1.787-7.795.376 4.083-4.231 6.589-1.787 7.795ZM249.54 243.436c2.54 1.299 3.48-3.62 1.693-7.145.188 4.547-3.762 5.938-1.693 7.052Zm0 0" style="fill-rule:evenodd;fill:#fff;fill-opacity:1;stroke-width:.5;stroke-linecap:butt;stroke-linejoin:miter;stroke:#bd6b00;stroke-opacity:1;stroke-miterlimit:4" transform="matrix(-.04154 0 0 .0421 24.964 1.08)"/><path d="M248.412 243.714c-1.035 2.97-7.053-2.69-7.993-5.846 3.667 3.712 8.651 3.248 7.993 5.753Zm0 0" style="fill-rule:evenodd;fill:#fff;fill-opacity:1;stroke-width:.5;stroke-linecap:butt;stroke-linejoin:miter;stroke:#bd6b00;stroke-opacity:1;stroke-miterlimit:4" transform="matrix(-.04154 0 0 .0421 24.964 1.08)"/><path d="M245.685 238.982c-1.223 3.062-8.651-5.011-10.344-8.723 3.668 3.712 11.19 6.496 10.344 8.63Zm0 0" style="fill-rule:evenodd;fill:#fff;fill-opacity:1;stroke-width:.5;stroke-linecap:butt;stroke-linejoin:miter;stroke:#bd6b00;stroke-opacity:1;stroke-miterlimit:4" transform="matrix(-.04154 0 0 .0421 24.964 1.08)"/><path d="M244.18 234.342c-1.222 3.433-9.309-5.846-11.66-9.187 3.95 3.62 12.6 6.681 11.66 9.187Zm-.282-3.434c3.01-.65-.094-2.97-3.667-6.866-.094 4.083.47 6.96 3.667 6.866Zm0 0" style="fill-rule:evenodd;fill:#fff;fill-opacity:1;stroke-width:.5;stroke-linecap:butt;stroke-linejoin:miter;stroke:#bd6b00;stroke-opacity:1;stroke-miterlimit:4" transform="matrix(-.04154 0 0 .0421 24.964 1.08)"/><path d="M239.009 228.496c1.316-1.3-1.129-1.856-4.138-5.29-.47 2.32 2.821 6.496 4.232 5.29Zm14.01 15.218c1.599 1.02 2.54-2.32.659-5.196-.47 3.155-2.07 3.99-.659 5.196Zm-34.228-20.322c-3.29 2.041-8.556-6.032-9.967-9.28 2.915 3.805 10.532 7.146 9.967 9.28Zm0 0" style="fill-rule:evenodd;fill:#fff;fill-opacity:1;stroke-width:.5;stroke-linecap:butt;stroke-linejoin:miter;stroke:#bd6b00;stroke-opacity:1;stroke-miterlimit:4" transform="matrix(-.04154 0 0 .0421 24.964 1.08)"/><path d="M221.707 228.032c-1.881 1.948-7.711-3.526-9.686-6.31 3.01 2.69 10.438 2.97 9.686 6.31Zm0 0" style="fill-rule:evenodd;fill:#fff;fill-opacity:1;stroke-width:.5;stroke-linecap:butt;stroke-linejoin:miter;stroke:#bd6b00;stroke-opacity:1;stroke-miterlimit:4" transform="matrix(-.04154 0 0 .0421 24.964 1.08)"/><path d="M224.81 232.208c-.565 2.783-9.028-3.527-11.002-6.496 3.573 3.526 11.566 3.155 11.002 6.496Zm0 0" style="fill-rule:evenodd;fill:#fff;fill-opacity:1;stroke-width:.5;stroke-linecap:butt;stroke-linejoin:miter;stroke:#bd6b00;stroke-opacity:1;stroke-miterlimit:4" transform="matrix(-.04154 0 0 .0421 24.964 1.08)"/><path d="M223.493 235.27c-1.316 2.505-8.18-3.805-9.873-6.96 4.325 3.62 11.002 4.454 9.967 6.96Zm-3.48-12.25c2.07-2.32 1.223-3.433-.375-7.052-.847 3.712-2.163 5.197.376 7.053Zm2.916 4.27c3.95.185 0-4.548-1.034-8.723.376 4.64-1.035 8.351 1.034 8.722Zm0 0" style="fill-rule:evenodd;fill:#fff;fill-opacity:1;stroke-width:.5;stroke-linecap:butt;stroke-linejoin:miter;stroke:#bd6b00;stroke-opacity:1;stroke-miterlimit:4" transform="matrix(-.04154 0 0 .0421 24.964 1.08)"/><path d="M225.374 231.094c2.727-.557 2.068-4.454-.188-9.187.47 5.104-2.257 7.98.188 9.187Zm-.94 7.702c-1.035 2.97-8.84-3.99-10.062-6.774 4.043 3.34 10.72 4.454 10.061 6.774Zm0 0" style="fill-rule:evenodd;fill:#fff;fill-opacity:1;stroke-width:.5;stroke-linecap:butt;stroke-linejoin:miter;stroke:#bd6b00;stroke-opacity:1;stroke-miterlimit:4" transform="matrix(-.04154 0 0 .0421 24.964 1.08)"/><path d="M229.135 243.621c-1.128 2.97-9.31-3.247-11.848-6.588 4.89 3.99 12.412 3.526 11.848 6.588Zm0 0" style="fill-rule:evenodd;fill:#fff;fill-opacity:1;stroke-width:.5;stroke-linecap:butt;stroke-linejoin:miter;stroke:#bd6b00;stroke-opacity:1;stroke-miterlimit:4" transform="matrix(-.04154 0 0 .0421 24.964 1.08)"/><path d="M233.93 248.54c-1.316 4.268-9.967-2.599-12.412-6.032 5.36 4.176 12.977 2.97 12.413 6.032Zm-7.992-11.043c2.257 1.113 3.197-5.382 1.88-10.115 0 5.011-4.701 8.816-1.974 10.022Zm0 0" style="fill-rule:evenodd;fill:#fff;fill-opacity:1;stroke-width:.5;stroke-linecap:butt;stroke-linejoin:miter;stroke:#bd6b00;stroke-opacity:1;stroke-miterlimit:4" transform="matrix(-.04154 0 0 .0421 24.964 1.08)"/><path d="M229.793 242.693c2.821.836 1.975-6.31-.47-10.95-.282 4.64-2.35 9.002.47 10.95Zm4.984 4.919c3.01.092 1.034-6.125-1.599-9.651.377 4.547-.94 9.001 1.599 9.65Zm-5.454 2.598c-1.034 1.577-3.197-1.3-7.052-3.526 3.385 1.02 7.428 2.041 7.052 3.526Zm-1.786-52.708c3.009-2.227.658-6.217 0-10.022-1.035 3.62-3.48 8.445 0 10.022Zm0 5.29c-4.514-.465-3.856-6.125-4.044-9.651 1.41 4.825 4.984 5.66 4.044 9.743Zm.564-.65c3.667-.279 3.479-4.454 3.667-8.63-1.88 3.897-3.95 4.454-3.667 8.63Zm0 0" style="fill-rule:evenodd;fill:#fff;fill-opacity:1;stroke-width:.5;stroke-linecap:butt;stroke-linejoin:miter;stroke:#bd6b00;stroke-opacity:1;stroke-miterlimit:4" transform="matrix(-.04154 0 0 .0421 24.964 1.08)"/><path d="M228.007 207.338c-3.01.279-4.42-2.598-4.984-7.052 2.633 4.083 5.078 2.784 4.984 7.052Zm1.034-.37c3.667.556 2.915-3.805 2.915-6.96-1.128 2.969-4.137 3.99-2.915 6.96Zm0 0" style="fill-rule:evenodd;fill:#fff;fill-opacity:1;stroke-width:.5;stroke-linecap:butt;stroke-linejoin:miter;stroke:#bd6b00;stroke-opacity:1;stroke-miterlimit:4" transform="matrix(-.04154 0 0 .0421 24.964 1.08)"/><path d="M223.211 205.204c.282 2.784 2.069 7.61 4.984 6.496 1.128-3.434-2.633-4.083-4.984-6.496Zm0 0" style="fill-rule:evenodd;fill:#fff;fill-opacity:1;stroke-width:.5;stroke-linecap:butt;stroke-linejoin:miter;stroke:#bd6b00;stroke-opacity:1;stroke-miterlimit:4" transform="matrix(-.04154 0 0 .0421 24.964 1.08)"/><path d="M229.041 211.978c-1.222-2.413 2.915-3.712 3.761-6.867.47 4.547.094 7.61-3.76 6.96ZM217.1 182.84c2.257-2.412.282-6.403-.376-10.207-1.035 3.526-2.54 8.351.376 10.207Zm0 4.547c-4.044.557-4.984-7.702-5.454-11.32 1.316 4.917 5.924 7.052 5.454 11.413Zm.846 0c2.727-1.484 2.163-4.732 2.915-6.96-1.786 2.877-3.573 3.249-2.915 6.96Zm0 0" style="fill-rule:evenodd;fill:#fff;fill-opacity:1;stroke-width:.5;stroke-linecap:butt;stroke-linejoin:miter;stroke:#bd6b00;stroke-opacity:1;stroke-miterlimit:4" transform="matrix(-.04154 0 0 .0421 24.964 1.08)"/><path d="M217.005 192.77c-4.138.37-6.582-8.816-6.77-12.342 1.222 4.918 7.334 7.516 6.864 12.341Zm.94-.186c3.95-.928 3.48-3.526 2.821-7.61-1.222 4.27-3.479 3.341-2.82 7.61Zm0 0" style="fill-rule:evenodd;fill:#fff;fill-opacity:1;stroke-width:.5;stroke-linecap:butt;stroke-linejoin:miter;stroke:#bd6b00;stroke-opacity:1;stroke-miterlimit:4" transform="matrix(-.04154 0 0 .0421 24.964 1.08)"/><path d="M217.005 197.966c-4.608.835-4.326-6.588-7.993-11.878 3.197 3.99 9.027 9.001 7.993 11.878Zm1.034-.278c3.573.185 3.95-5.104 3.762-7.331-.94 2.227-4.984 4.268-3.668 7.423Zm0 0" style="fill-rule:evenodd;fill:#fff;fill-opacity:1;stroke-width:.5;stroke-linecap:butt;stroke-linejoin:miter;stroke:#bd6b00;stroke-opacity:1;stroke-miterlimit:4" transform="matrix(-.04154 0 0 .0421 24.964 1.08)"/><path d="M209.764 192.306c1.693 5.66 4.232 11.413 7.24 10.95 1.505-3.248-2.914-3.62-7.24-10.95Zm0 0" style="fill-rule:evenodd;fill:#fff;fill-opacity:1;stroke-width:.5;stroke-linecap:butt;stroke-linejoin:miter;stroke:#bd6b00;stroke-opacity:1;stroke-miterlimit:4" transform="matrix(-.04154 0 0 .0421 24.964 1.08)"/><path d="M218.133 202.42c-1.222-2.505 3.01-3.712 3.762-6.96.47 4.64.094 7.61-3.762 6.96Zm-7.146-3.619c2.539 5.104 3.573 11.043 7.052 10.115 1.223-3.99-3.855-4.825-7.052-10.115Zm0 0" style="fill-rule:evenodd;fill:#fff;fill-opacity:1;stroke-width:.5;stroke-linecap:butt;stroke-linejoin:miter;stroke:#bd6b00;stroke-opacity:1;stroke-miterlimit:4" transform="matrix(-.04154 0 0 .0421 24.964 1.08)"/><path d="M218.697 207.988c-1.504-2.784 2.727-3.712 3.762-7.424.564 4.826 0 8.352-3.762 7.331Zm7.241-34.52c2.35.65 4.984-2.041 4.043-6.124-2.82.556-3.949 3.155-4.043 6.124Zm-7.899-2.041c.188 1.206 1.693 1.299 1.129-.464-.377-1.021-.377-2.228 0-3.341a7.8 7.8 0 0 0 0-4.64c-.377-1.02-1.787-.371-1.129.464.564.742.658 2.784.188 3.62-.47 1.484-.564 2.969-.188 4.36Zm22.85 15.96c-1.034 1.3-2.915.372-1.41-1.484 1.222-1.485 3.009-2.784 3.009-4.362.188-2.041 1.316-5.01 2.445-6.124 1.034-1.114 2.35.37 1.128 1.206-1.222.742-2.163 4.361-2.069 5.753-.094 2.042-1.974 3.527-3.103 5.011Zm-3.009-2.32c-.94 1.392-2.35.557-1.598-1.67.752-1.485.846-3.526 1.598-4.64 1.223-1.67 3.01-3.062 4.138-4.175 1.222-1.021 1.974 0 .94 1.02-1.223 1.207-2.257 2.599-3.291 3.99-1.41 2.228-.753 3.99-1.787 5.475Zm-15.703-7.145c-.094 1.949 1.504 2.413 1.41-.464 0-2.97-2.163-5.753-.94-10.3.752-2.134.752-6.217.376-8.352-.376-2.134-2.069-.835-1.316.928.564 1.949-.095 5.568-.565 7.424-1.504 5.475 1.129 8.073.94 10.764Zm4.325-11.042c-.188 1.948-1.786 2.041-1.316-.464q.564-2.924 0-5.29c-.564-2.134-.376-5.753 0-7.238.47-1.577 1.974-.65 1.41.557a10.3 10.3 0 0 0-.282 5.846c.564 2.042.47 4.825.188 6.681Zm-15.61 37.118c.847.928 1.975.278 1.035-1.021-1.034-1.02-.752-1.206-1.316-2.413-.565-1.392-.47-2.041-1.223-2.97-.658-1.02-1.598 0-1.034.743.846.928.658 1.578 1.034 2.506 1.035 1.484.752 2.227 1.505 3.155Zm20.406 24.59c2.445 1.392 4.043 3.898 4.42 6.682a16 16 0 0 0 1.974 7.145c-1.975-.557-3.009-3.712-3.291-6.774-.282-3.248-1.975-4.547-3.01-7.052Zm5.078 5.94c1.692 3.062 4.043 4.268 4.231 6.588.188 2.691.376 2.784 1.128 5.382-2.068-.464-2.538-.742-3.009-4.733-.282-2.783-2.632-4.64-2.35-7.238Zm0 0" style="fill-rule:evenodd;fill:#fff;fill-opacity:1;stroke-width:.5;stroke-linecap:butt;stroke-linejoin:miter;stroke:#bd6b00;stroke-opacity:1;stroke-miterlimit:4" transform="matrix(-.04154 0 0 .0421 24.964 1.08)"/><path d="M12.957 12.164c-.039.074-.082.191-.164.168 0-.055.086-.098.164-.168m-.125.027c-.152.067-.289.047-.309.149.149.02.207-.04.317-.149Zm.672-.535a.57.57 0 0 0-.207.324 1.3 1.3 0 0 1-.152.329.55.55 0 0 0 .222-.313 1 1 0 0 1 .137-.336Zm-.129 0c-.117.09-.227.2-.258.332-.035.121-.055.215-.133.336.125-.078.168-.199.207-.328.028-.125.106-.219.184-.336Zm-.383.305a.046.046 0 0 0-.031-.05l-.106-.032c-.043-.012-.066.016-.066.035V12q0 .04.027.04c.036 0 .067.007.102.026q.04.023.062-.02Zm-.441 0q0-.04.027-.05a.2.2 0 0 1 .098-.016q.052-.002.047.027v.086c0 .035 0 .035-.02.043a.16.16 0 0 0-.101.023q-.036.018-.047-.023Zm0 0" style="stroke:none;fill-rule:evenodd;fill:#fff;fill-opacity:1"/><path d="M13.684 13.145c0 .05.011.093.043.132a.8.8 0 0 0-.575.043c-.074.035-.164-.039-.078-.113.125-.094.403-.039.61-.062m-2.387 0a.3.3 0 0 1-.016.125c.184-.07.375-.008.563.07.125.055.136-.043.117-.074a.3.3 0 0 0-.207-.121Zm.156-.915q-.083-.03-.164.06c-.18.179-.39.35-.562.487-.063.055-.125.157.14.254.016.008.211.086.336.086.05 0 .05.074.04.094-.02.043-.005.059-.048.098-.043.043 0 .09.043.054.149-.133.399-.047.637.032.059.015.156.011.156-.07 0-.079.063-.141.102-.145.097.015.582.02.726.004.082-.012.09.12.137.168.031.039.152.046.242.007.164-.074.414-.074.52 0 .039.032.078 0 .05-.027-.03-.043-.027-.07-.042-.102-.043-.085-.008-.101.03-.105.458-.062.606-.219.466-.352-.184-.16-.383-.324-.555-.511-.05-.051-.082-.07-.18-.032a2.7 2.7 0 0 1-1.05.25 3.1 3.1 0 0 1-1.024-.246Zm0 0" style="stroke:none;fill-rule:evenodd;fill:#fff;fill-opacity:1"/><path d="m13.605 12.258-.066.015c-.371.137-.715.227-1.066.227-.344 0-.707-.102-1.036-.234a.1.1 0 0 0-.062 0 .14.14 0 0 0-.055.027q-.229.234-.488.434c-.031.023-.027.078.02.093.343.13.683.36 1.644.352.977-.012 1.32-.238 1.629-.344a.1.1 0 0 0 .055-.039l.004-.035-.024-.035c-.18-.145-.367-.266-.492-.438q-.02-.03-.063-.02Zm0 .02q.041 0 .047.011c.125.184.32.297.496.445l.016.028v.015a.06.06 0 0 1-.043.032c-.316.109-.652.336-1.621.343-.96.008-1.293-.222-1.64-.347-.032-.016-.028-.051-.016-.059a5 5 0 0 0 .492-.437l.043-.028h.05c.329.145.68.227 1.04.239.36 0 .707-.094 1.078-.227l.062-.016Zm0 0" style="stroke:none;fill-rule:evenodd;fill:#bd6b00;fill-opacity:1"/><path d="M11.242 5.906c0-.058.082-.066.074.016-.011.098.188.348.204.504.015.105-.063.195-.133.254a.29.29 0 0 1-.282.02c-.039-.032-.07-.138-.043-.18.012-.012.055.156.157.156.136 0 .25-.106.25-.2.008-.16-.223-.41-.227-.57m.395.395c.027-.016.058.054.035.07-.027.02-.063-.055-.035-.074Zm.062-.149c-.011.008-.031 0-.027-.007a.6.6 0 0 1 .148-.141c.016-.008.043.02.032.031a.4.4 0 0 1-.153.117m.524-.422c.011-.023.086-.054.109-.07.016-.02.023.016.016.031-.012.028-.078.07-.11.075q-.023-.005-.015-.028Zm.18.016a.35.35 0 0 1 .1-.144c.024-.012.056 0 .048.015a.35.35 0 0 1-.121.14c-.012.013-.032 0-.028-.01m-.152.112c-.012.012-.008.024.004.032a.1.1 0 0 0 .082 0c.023-.016.012-.121-.02-.067-.027.035-.043.028-.066.035m-.305.235c-.054-.043.016-.102.07-.059.114.086-.167.414-.316.563-.027.03-.054-.04-.015-.078q.165-.14.277-.32c.016-.02.031-.067-.016-.106m.637-.278c.004-.043-.066 0-.066-.054 0-.032.078-.051.109-.016.055.059.012.156-.082.164-.074 0-.207.113-.188.133.02.031.227.047.344.031.078-.015.059.055-.015.063-.075.008-.133 0-.2.023-.082.024-.117.13-.16.168-.008.012-.035-.031-.027-.047.035-.05.086-.129.14-.152.036-.016-.097-.02-.14-.031-.031-.008-.024-.055-.012-.078.016-.036.14-.165.195-.16.047 0 .098-.012.102-.044m.207.008.063-.074c.011-.012.035 0 .03.031-.003.032-.038.051-.062.074-.02.012-.039-.02-.027-.03Zm.27-.097c.035 0 .043.07.007.078-.023.008-.043-.075-.007-.078m-.086.21c0 .063.027.06.082.055.054-.004.097 0 .097-.05 0-.055-.027-.106-.039-.067-.004.035-.011.094-.035.066-.015-.02-.008-.023-.039.008-.023.024-.023-.008-.035-.023-.008-.012-.031.008-.031.015Zm-.383.305c-.012.078 0 .188.035.188.05 0 .152-.168.2-.258.03-.05.073-.063.054-.008a.6.6 0 0 0 0 .305c.016.023.125-.024.14-.063.036-.07.004-.203.02-.281.004-.05.05-.066.047-.016l-.004.317c0 .043.121.101.137-.024.008-.078.05-.156 0-.242-.031-.055.047-.05.09.027.027.051-.028.133-.024.196 0 .101-.074.16-.129.16-.047 0-.082-.063-.12-.063-.044 0-.095.075-.126.067-.152-.008-.07-.223-.117-.227-.05 0-.105.211-.168.207-.059-.007-.125-.175-.094-.242.02-.07.063-.086.059-.043m.7-.336c-.071-.043 0-.156.038-.12.067.085.133.273.184.292.027.008.023-.144.043-.21.02-.056.078-.04.07.027-.008.023-.086.27-.078.28.058.102.101.216.137.329.015.05-.043.016-.051.008-.04-.059-.102-.274-.102-.262l-.07.324c-.008.043-.07.035-.055-.043.012-.058.098-.347.094-.36a.7.7 0 0 0-.21-.265" style="stroke:none;fill-rule:evenodd;fill:#fff;fill-opacity:1"/><path d="M13.414 6.605c-.016 0-.047.04.05.063.13.023.274-.023.317-.152.055-.157.082-.305.114-.36.03-.062.074-.058.039-.152-.02-.07-.063-.047-.07-.012-.02.098-.106.422-.137.477q-.075.159-.313.136" style="stroke:none;fill-rule:evenodd;fill:#fff;fill-opacity:1"/><path d="M13.68 6.09c-.016-.031-.047 0-.04.031q0 .02.016.031.012.013.035.008c.028 0 .09.004.09-.039 0-.035-.031-.066-.047-.027q-.03.046-.054 0Zm.03-.125c-.007.008 0 .047.013.039a.24.24 0 0 0 .136-.031c.008-.008.004-.032-.007-.032-.043 0-.11 0-.141.024m.363.094c.035-.047.117-.055.086.02l-.262.515c-.035.058-.058.031-.035-.016.032-.058.203-.504.211-.52" style="stroke:none;fill-rule:evenodd;fill:#fff;fill-opacity:1"/><path d="M13.758 6.68c-.012-.035-.063-.086-.055.008.008.16.227.109.29.054.062-.054.01.18.093.207.039.012.121-.047.164-.101.113-.149.188-.364.293-.504.039-.059-.023-.102-.043-.055-.102.16-.215.488-.344.57-.105.067-.07-.082-.078-.132-.004-.036-.043-.086-.098-.04a.24.24 0 0 1-.152.051c-.031 0-.058 0-.07-.058" style="stroke:none;fill-rule:evenodd;fill:#fff;fill-opacity:1"/><path d="M14.148 6.383c0-.012-.046-.016-.043.031 0 .035.043.043.047.043.063-.05-.015-.027-.004-.078Zm-.097.187c-.012 0-.024.043.008.047l.164-.008c.015 0 .023-.039-.02-.035-.047 0-.11-.011-.152 0Zm-2.574-.699c.02 0 .066.059.062.078 0 .012-.05 0-.062-.011-.012-.012-.008-.067 0-.067m-.223.438c-.04.027.008.07.043.05.117-.078.289-.16.332-.316.012-.05.059-.129.105-.148.04-.02.106.082.149 0 .023-.04.113.03.133-.016.023-.055.011-.082.011-.14 0-.036-.027-.044-.05.011q-.002.041-.004.066-.017.019-.04.008c-.007-.008 0-.027-.027-.043-.011 0-.02 0-.031.012-.031.055-.043.102-.09.039-.035-.039-.055-.129-.082-.012-.008.043-.07.102-.105.102-.047 0-.036-.125-.133-.106-.055.012-.05.114-.043.149.012.055.164.015.152.05-.023.114-.183.227-.32.294m-.941.554c-.004.024.019.074.046.078.024 0 .04-.054.032-.078-.008-.011-.075-.011-.079 0m.137.207c-.015-.015-.066.032-.023.063.02.023.101.047.125.008.031-.047-.031-.23 0-.25.02-.024.113.117.164.125.113.015.082-.192.207-.176.078.008.09-.094.074-.16-.008-.063-.105-.153-.152-.196-.059-.05-.086.043-.051.07.05.04.137.122.152.173.004.023-.058.074-.086.062-.058-.035-.105-.168-.156-.2-.015-.007-.058.016-.043.056.027.046.125.113.13.164.003.043-.04.136-.075.136-.031 0-.125-.113-.152-.168-.02-.023-.063-.023-.07.016a1 1 0 0 0 .019.23c.008.07-.04.075-.063.047m-.168-.363c-.015.02.035.05.043.043.016-.016.086-.098.074-.125s-.105-.086-.125-.055c-.027.047.094.07.07.082Zm.172-.352s.035.106.059.06c.015-.032-.059-.06-.059-.06m.05.168c-.007 0-.042.032-.019.043.032.016.118.032.098-.03-.012-.036.133 0 .098-.102a.2.2 0 0 0-.075-.07c-.015 0-.062.019-.03.038.019.008.081.047.062.07-.032.028-.047-.011-.078-.003-.02 0-.004.05-.02.062 0 .008-.027-.015-.035-.011Zm.227-.398a.16.16 0 0 0-.046.082q0 .023.02.023a.14.14 0 0 0 .05-.082c0-.011-.008-.035-.024-.023m.118-.016c-.032-.039.043-.109.07-.02.023.056.23.333.27.427.035.062 0 .09-.036.043-.105-.137-.191-.305-.304-.45m.214.004c.04-.039.114-.125.094-.168-.02-.039-.062-.039-.07-.027-.043.055.031.043.02.059-.024.035-.04.074-.055.109-.004.012.004.039.011.027m3.235.137c-.031-.02.023-.125.062-.086.094.117.141.488.168.774 0 0-.039.035-.039.027 0-.149-.062-.606-.191-.715m-2.207-.363c-.031-.074.047-.102.058-.051.055.246.188.43.29.594.03.05 0 .086-.07.035-.048-.035-.102-.164-.126-.168-.047-.008-.156.21-.375.148-.058-.02-.055-.191-.058-.265 0-.04.039-.043.039 0 0 .07 0 .218.09.226.074 0 .23-.101.265-.187.031-.082-.078-.246-.113-.336Zm0 0" style="stroke:none;fill-rule:evenodd;fill:#fff;fill-opacity:1"/><path d="M14.355 6.906c.016-.05.254-.453.286-.543.015-.043.082.074.015.14-.058.052-.226.337-.261.438-.016.04-.06.02-.04-.035" style="stroke:none;fill-rule:evenodd;fill:#fff;fill-opacity:1"/><path d="M14.758 6.523c.039-.168.148.024.055.118-.141.144-.188.418-.418.46-.06.012-.165-.03-.2-.054-.011-.012.008-.07.047-.04.055.044.172.056.235.005.132-.133.23-.301.28-.489m-2.366.536c-.016.011-.043.011-.047.027-.012.062 0 .094-.012.152-.012.059-.055.059-.05.012 0-.059.054-.145.015-.148-.024-.004-.04-.04-.016-.055.043-.027.074-.031.102-.02q.018.013.008.032" style="stroke:none;fill-rule:evenodd;fill:#fff;fill-opacity:1"/><path d="M12.355 6.973c-.058.058-.117.082-.168.148-.027.027-.023.063-.039.102-.011.039-.058.043-.07.039-.02-.02-.015-.086-.043-.051-.023.031-.035.082-.07.082-.031 0-.082-.063-.055-.063.098-.011.094-.082.125-.093.043-.004.043.066.07.05.02-.007.032-.085.051-.109.063-.066.114-.101.18-.152.027-.024.055.023.02.05Zm.223.21c-.05.008-.043.075-.027.079.02.011.058.015.07-.055.008-.031.012.145.074.078.043-.043.13.008.168-.043.028-.035.043-.062.016-.113-.008-.012-.04-.008-.04.031 0 .035-.023.07-.054.067-.02-.004.008-.079-.008-.102a.04.04 0 0 0-.03 0c-.013.016.01.094-.024.102-.051.007-.028-.051-.043-.059-.07-.035-.075.008-.102.012Zm.371-.124c.04-.008.028-.008.086-.055.02-.016.024.031.02.055 0 .027-.043.007-.055.039-.016.035-.008.125-.016.16 0 .015-.035.015-.035 0-.008-.043.004-.086 0-.14 0-.016-.02-.048 0-.056Zm-.207-.106a1 1 0 0 0-.008.098c0 .02.043.008.043.004 0-.035.008-.086 0-.098q-.023-.011-.035-.004" style="stroke:none;fill-rule:evenodd;fill:#fff;fill-opacity:1"/><path d="m12.48 6.563-.058.234-.082-.16V6.8l-.184-.219.063.234-.164-.14.09.16-.293-.191.183.218-.23-.117.164.145-.371-.145.359.18a1.3 1.3 0 0 1 .523-.11q.313.008.52.11l.367-.18-.375.145.164-.145-.226.117.18-.218-.294.19.094-.16-.168.138.063-.231-.18.219v-.164l-.082.16Zm0 0" style="stroke:none;fill-rule:evenodd;fill:#fff;fill-opacity:1"/><path d="m12.16 11.676-.012.105h-.015l-.004-.074-.02-.062-.02-.051-.038-.055.031-.086a.24.24 0 0 1 .059.094q.021.06.02.125m.273-.164q-.001.041-.02.058-.01.02-.05.028l.015.058v.082l-.004.051h-.016l-.004-.05-.007-.044-.016-.039-.027-.054-.04-.067.024-.078.04.04a.07.07 0 0 0 .038.01q.047-.002.047-.05h.016v.055m.25.187-.02.086q-.024-.002-.031-.027l-.016-.055-.004-.066-.039.008a.1.1 0 0 1-.05-.016q-.025-.013-.02-.04 0-.052.027-.089.03-.042.059-.043t.039.016l.012.035v.078q0 .052.011.074.001.017.032.04m-.078-.137q-.001-.037-.032-.032l-.023.004q-.007.006-.008.012-.001.019.04.02Zm.34.117-.012.105a.2.2 0 0 1-.055-.082l-.05-.16-.071.219-.031.027v-.101a.14.14 0 0 0 .039-.059l.031-.066.02-.106h.015l.035.106q.012.04.035.062l.04.055" style="stroke:none;fill-rule:nonzero;fill:#fff;fill-opacity:1"/><path d="M13.703 12.645a.1.1 0 0 1 .027.046l.016.063-.031.004-.04-.059-.042-.047-.067-.062-.078-.067q-.023-.011-.023-.02l-.012-.03-.008-.063.106.086.097.086Zm-.371-.23-.008.077h-.12l.01-.078Zm.328.35-.297.09-.05-.078.253-.078-.027-.031-.035-.023c.004.011-.004.027-.016.039l-.039.023a.1.1 0 0 1-.07 0 .1.1 0 0 1-.05-.027.2.2 0 0 1-.028-.09q0-.06.035-.07.04-.01.117.027a.3.3 0 0 1 .117.098Zm-.226-.16-.032-.011h-.023l-.02.011v.028l.02.008h.023l.016-.012Zm-.313-.062-.02.082-.124-.016.02-.078Zm.293.305-.066.015h-.067l-.058-.015a.1.1 0 0 1-.059.047l-.062.027-.047.012-.04-.082.044-.012.05-.016.036-.02-.04-.019h-.035l-.008.012h-.019q-.03-.048-.012-.078c.02-.031.035-.031.078-.04a.2.2 0 0 1 .102-.007q.046 0 .059.035a.1.1 0 0 1 .007.027l-.015.047h.043l.066-.011Zm-.312.074-.063.012a.13.13 0 0 1-.086-.016.25.25 0 0 1-.066-.105l-.032-.086a.06.06 0 0 0-.03-.04l-.036-.019.024-.086a.12.12 0 0 1 .054.043l.04.066.019.059.043.086c.011.012.027.016.039.012l.066-.008Zm-.274-.297-.039.074-.117-.027.039-.078Zm.07.332-.293.027-.015-.082.242-.027-.023-.031-.04-.024.02-.078a.2.2 0 0 1 .063.051c.011.02.023.05.03.082Zm-.234.04-.086-.009-.066-.02-.051.016h-.145l-.046-.011q-.016-.014-.032-.04a.2.2 0 0 1-.058.04l-.067.004h-.066l.008-.086h.066q.047.007.082-.016c.031-.008.05-.04.05-.07l.028.004-.004.05q0 .017.012.028a.07.07 0 0 0 .04.011h.058q.06.002.078-.007.034-.007.039-.043l.004-.016s.012 0 .02-.008l.019-.008v.028l-.012.043.078.02c.004-.009 0-.016-.004-.028l-.011-.024.004-.011.011-.008.04-.035.019.039v.039Zm-.441-.345-.078.051-.051-.035-.055.039-.074-.039.07-.055.059.035.058-.043.07.043m-.117.325-.285-.047.032-.082.242.039q-.001-.023-.008-.04l-.02-.03.063-.067q.023.031.027.063.005.034-.02.082Zm-.238-.04-.062-.011q-.053-.017-.059-.05-.01-.035.031-.11l.047-.078q.018-.03.012-.047l-.012-.032.086-.062q.018.033.012.055a.13.13 0 0 1-.027.074l-.032.055a.3.3 0 0 0-.035.085c0 .016.008.028.02.028l.062.015Zm-.148-.32-.098.047-.07-.07.101-.04Zm-.04.262-.062.059-.066.023-.094-.004-.11-.027a.3.3 0 0 1-.132-.082q-.036-.046 0-.086a.24.24 0 0 1 .078-.063.6.6 0 0 1 .148-.062l.016.02-.11.046a.13.13 0 0 0-.05.04q-.02.021.008.062a.4.4 0 0 0 .246.086q.071.001.09-.028c.011-.007.015-.023.02-.039l.007-.062.098-.059-.004.059a.13.13 0 0 1-.04.062Zm0 0" style="stroke:none;fill-rule:nonzero;fill:#bf0000;fill-opacity:1"/></svg>