<svg xmlns="http://www.w3.org/2000/svg" width="25" height="px" viewBox="0 0 25 19"><path d="M0 0h25v19H0z" style="fill:#fff;fill-opacity:1;stroke:none"/><path d="M.004 0H25v7.602H0Zm0 0" style="stroke:none;fill-rule:evenodd;fill:#000001;fill-opacity:1"/><path d="M3.7 7.54h17.577v4.155H3.7Zm0 0" style="stroke:none;fill-rule:evenodd;fill:#0072c6;fill-opacity:1"/><path d="M25 .004V19H12.496L25 0Zm-25 0V19h12.496L0 0Zm0 0" style="stroke:none;fill-rule:evenodd;fill:#ce1126;fill-opacity:1"/><path d="m19.047 7.543-2.8-.715 2.378-1.82-2.918.426 1.5-2.579-2.59 1.52.469-3-1.754 2.367-.707-2.746-.793 2.828-1.75-2.41.5 3.086-2.594-1.605 1.504 2.578-2.836-.465 2.336 1.777-2.926.758Zm0 0" style="stroke:none;fill-rule:evenodd;fill:#fcd116;fill-opacity:1"/></svg>