<?xml version="1.0" encoding="UTF-8"?>
<svg xmlns="http://www.w3.org/2000/svg" xmlns:xlink="http://www.w3.org/1999/xlink" width="25px" height="px" viewBox="0 0 25 19" version="1.1">
<g id="surface1">
<rect x="0" y="0" width="25" height="19" style="fill:rgb(100%,0%,0%);fill-opacity:1;stroke:none;"/>
<path style=" stroke:none;fill-rule:nonzero;fill:rgb(0%,0%,0.392157%);fill-opacity:1;" d="M 10.625 3.691406 C 10.445312 3.691406 10.144531 3.753906 10.148438 3.890625 C 9.640625 3.808594 9.589844 4.019531 9.621094 4.207031 C 9.671875 4.132812 9.722656 4.089844 9.773438 4.085938 C 9.839844 4.078125 9.910156 4.09375 9.984375 4.140625 C 10.054688 4.183594 10.117188 4.238281 10.171875 4.300781 C 9.992188 4.347656 9.851562 4.320312 9.710938 4.292969 C 9.632812 4.277344 9.554688 4.246094 9.488281 4.199219 C 9.429688 4.160156 9.410156 4.121094 9.320312 4.03125 C 9.214844 3.917969 9.101562 3.949219 9.136719 4.121094 C 9.21875 4.277344 9.355469 4.351562 9.527344 4.382812 C 9.609375 4.394531 9.734375 4.421875 9.875 4.421875 C 10.015625 4.421875 10.171875 4.402344 10.257812 4.421875 C 10.207031 4.453125 10.148438 4.511719 10.03125 4.53125 C 9.914062 4.550781 9.738281 4.460938 9.628906 4.4375 C 9.640625 4.527344 9.757812 4.617188 9.984375 4.664062 C 10.359375 4.742188 10.667969 4.804688 10.875 4.921875 C 11.039062 5.011719 11.183594 5.136719 11.300781 5.285156 C 11.484375 5.503906 11.496094 5.671875 11.503906 5.710938 C 11.542969 6.058594 11.421875 6.257812 11.195312 6.320312 C 11.085938 6.347656 10.882812 6.292969 10.8125 6.207031 C 10.734375 6.121094 10.667969 5.96875 10.6875 5.730469 C 10.707031 5.644531 10.808594 5.402344 10.722656 5.355469 C 10.316406 5.128906 9.894531 4.929688 9.460938 4.757812 C 9.363281 4.71875 9.285156 4.851562 9.253906 4.910156 C 8.667969 4.828125 8.152344 4.480469 7.847656 3.96875 C 7.683594 3.667969 7.40625 3.96875 7.453125 4.257812 C 7.527344 4.574219 7.765625 4.804688 8.054688 4.972656 C 8.34375 5.136719 8.71875 5.296875 9.089844 5.289062 C 9.292969 5.328125 9.289062 5.589844 9.050781 5.640625 C 8.578125 5.640625 8.199219 5.632812 7.84375 5.285156 C 7.574219 5.035156 7.425781 5.332031 7.5 5.5 C 7.632812 6.015625 8.363281 6.164062 9.101562 5.996094 C 9.390625 5.949219 9.21875 6.257812 9.140625 6.261719 C 8.828125 6.488281 8.277344 6.707031 7.789062 6.261719 C 7.566406 6.089844 7.414062 6.230469 7.5 6.480469 C 7.714844 7.132812 8.542969 6.996094 9.109375 6.675781 C 9.253906 6.59375 9.386719 6.785156 9.210938 6.929688 C 8.503906 7.429688 8.152344 7.4375 7.832031 7.246094 C 7.433594 7.085938 7.402344 7.53125 7.636719 7.683594 C 7.898438 7.839844 8.566406 7.722656 9.058594 7.40625 C 9.269531 7.246094 9.277344 7.496094 9.144531 7.597656 C 8.5625 8.105469 8.332031 8.242188 7.726562 8.15625 C 7.425781 8.132812 7.429688 8.511719 7.664062 8.65625 C 7.988281 8.859375 8.621094 8.527344 9.109375 8.109375 C 9.316406 8 9.351562 8.183594 9.25 8.398438 C 9.035156 8.710938 8.738281 8.957031 8.398438 9.113281 C 8.125 9.21875 7.867188 9.203125 7.683594 9.140625 C 7.457031 9.0625 7.429688 9.296875 7.554688 9.511719 C 7.628906 9.640625 7.9375 9.683594 8.273438 9.5625 C 8.609375 9.445312 8.96875 9.160156 9.214844 8.832031 C 9.429688 8.636719 9.40625 8.894531 9.304688 9.078125 C 8.8125 9.867188 8.359375 10.160156 7.761719 10.113281 C 7.5 10.066406 7.4375 10.273438 7.605469 10.46875 C 7.902344 10.714844 8.269531 10.707031 8.597656 10.460938 C 8.882812 10.183594 9.433594 9.574219 9.722656 9.25 C 9.925781 9.089844 9.992188 9.25 9.929688 9.582031 C 9.875 9.773438 9.742188 9.980469 9.371094 10.121094 C 9.117188 10.269531 9.308594 10.46875 9.496094 10.476562 C 9.601562 10.476562 9.8125 10.351562 9.976562 10.167969 C 10.1875 9.921875 10.203125 9.761719 10.320312 9.382812 C 10.429688 9.199219 10.628906 9.285156 10.628906 9.476562 C 10.53125 9.855469 10.453125 9.921875 10.257812 10.078125 C 10.074219 10.257812 10.386719 10.316406 10.492188 10.238281 C 10.796875 10.035156 10.90625 9.765625 11.007812 9.519531 C 11.085938 9.34375 11.296875 9.429688 11.195312 9.71875 C 10.960938 10.40625 10.570312 10.675781 9.894531 10.816406 C 9.828125 10.828125 9.785156 10.871094 9.808594 10.949219 L 10.082031 11.226562 C 9.664062 11.351562 9.324219 11.421875 8.902344 11.542969 L 8.324219 11.15625 C 8.273438 11.027344 8.246094 10.828125 7.941406 10.96875 C 7.738281 10.875 7.640625 10.910156 7.527344 11.007812 C 7.691406 11.007812 7.761719 11.054688 7.828125 11.128906 C 7.914062 11.355469 8.109375 11.378906 8.308594 11.316406 C 8.4375 11.421875 8.503906 11.511719 8.636719 11.621094 L 7.984375 11.601562 C 7.75 11.351562 7.570312 11.363281 7.40625 11.5625 C 7.277344 11.582031 7.226562 11.582031 7.140625 11.738281 C 7.273438 11.679688 7.359375 11.664062 7.417969 11.722656 C 7.664062 11.871094 7.824219 11.839844 7.945312 11.722656 L 8.628906 11.769531 C 8.542969 11.847656 8.425781 11.886719 8.335938 11.957031 C 7.984375 11.855469 7.796875 11.996094 7.734375 12.285156 C 7.683594 12.402344 7.667969 12.53125 7.6875 12.65625 C 7.714844 12.535156 7.78125 12.441406 7.878906 12.378906 C 8.191406 12.457031 8.308594 12.328125 8.328125 12.136719 C 8.484375 12.007812 8.710938 11.980469 8.863281 11.855469 C 9.042969 11.910156 9.128906 11.945312 9.308594 12.003906 C 9.371094 12.203125 9.519531 12.277344 9.75 12.226562 C 10.023438 12.234375 9.976562 12.355469 10 12.445312 C 10.078125 12.3125 10.074219 12.183594 9.902344 12.066406 C 9.839844 11.894531 9.699219 11.816406 9.519531 11.914062 C 9.347656 11.867188 9.304688 11.796875 9.132812 11.746094 C 9.5625 11.605469 9.867188 11.574219 10.296875 11.4375 L 10.597656 11.703125 C 10.65625 11.746094 10.707031 11.746094 10.746094 11.703125 C 11.015625 11.308594 11.136719 10.964844 11.382812 10.703125 C 11.480469 10.59375 11.601562 10.449219 11.734375 10.414062 C 11.800781 10.394531 11.882812 10.40625 11.9375 10.464844 C 11.988281 10.519531 12.03125 10.628906 12.015625 10.789062 C 11.988281 11.015625 11.933594 11.089844 11.871094 11.226562 C 11.808594 11.359375 11.730469 11.449219 11.648438 11.554688 C 11.492188 11.765625 11.28125 11.886719 11.15625 11.96875 C 10.90625 12.132812 10.804688 12.0625 10.609375 12.050781 C 10.359375 12.078125 10.296875 12.199219 10.5 12.371094 C 10.6875 12.472656 10.859375 12.484375 11 12.457031 C 11.117188 12.433594 11.257812 12.277344 11.359375 12.195312 C 11.46875 12.066406 11.65625 12.21875 11.527344 12.375 C 11.296875 12.652344 11.070312 12.832031 10.785156 12.828125 C 10.484375 12.867188 10.542969 13.039062 10.738281 13.121094 C 11.097656 13.269531 11.417969 12.992188 11.582031 12.804688 C 11.707031 12.667969 11.796875 12.664062 11.777344 12.878906 C 11.648438 13.273438 11.480469 13.421875 11.199219 13.441406 C 10.972656 13.417969 10.96875 13.601562 11.136719 13.71875 C 11.511719 13.980469 11.785156 13.53125 11.914062 13.261719 C 12.003906 13.015625 12.144531 13.128906 12.160156 13.332031 C 12.160156 13.605469 12.042969 13.824219 11.71875 14.097656 C 11.964844 14.5 12.253906 14.90625 12.5 15.308594 L 13.25 6.835938 L 12.5 5.503906 C 12.421875 5.429688 12.15625 5.113281 12.089844 5.066406 C 12.0625 5.042969 12.050781 5.027344 12.085938 5.011719 C 12.121094 4.996094 12.203125 4.980469 12.261719 4.972656 C 12.105469 4.808594 11.964844 4.757812 11.664062 4.671875 C 11.738281 4.640625 11.808594 4.65625 12.027344 4.648438 C 11.894531 4.464844 11.710938 4.324219 11.5 4.242188 C 11.664062 4.125 11.695312 4.117188 11.859375 3.976562 C 11.601562 3.957031 11.34375 3.90625 11.097656 3.828125 C 10.949219 3.757812 10.792969 3.710938 10.628906 3.691406 Z M 10.65625 4.027344 C 10.804688 4.027344 10.894531 4.078125 10.894531 4.140625 C 10.894531 4.203125 10.804688 4.253906 10.65625 4.253906 C 10.507812 4.253906 10.414062 4.195312 10.414062 4.136719 C 10.414062 4.074219 10.507812 4.027344 10.65625 4.027344 "/>
<path style=" stroke:none;fill-rule:nonzero;fill:rgb(0%,0%,0.392157%);fill-opacity:1;" d="M 14.375 3.691406 C 14.554688 3.691406 14.855469 3.753906 14.851562 3.890625 C 15.359375 3.808594 15.410156 4.019531 15.378906 4.207031 C 15.328125 4.132812 15.277344 4.089844 15.226562 4.085938 C 15.160156 4.078125 15.089844 4.09375 15.015625 4.140625 C 14.945312 4.183594 14.882812 4.238281 14.828125 4.300781 C 15.007812 4.347656 15.148438 4.320312 15.289062 4.292969 C 15.367188 4.277344 15.445312 4.246094 15.511719 4.199219 C 15.570312 4.160156 15.589844 4.121094 15.679688 4.03125 C 15.785156 3.917969 15.898438 3.949219 15.863281 4.121094 C 15.78125 4.277344 15.644531 4.351562 15.472656 4.382812 C 15.390625 4.394531 15.265625 4.421875 15.125 4.421875 C 14.984375 4.421875 14.828125 4.402344 14.742188 4.421875 C 14.792969 4.453125 14.851562 4.511719 14.96875 4.53125 C 15.085938 4.550781 15.261719 4.460938 15.371094 4.4375 C 15.359375 4.527344 15.242188 4.617188 15.015625 4.664062 C 14.640625 4.742188 14.332031 4.804688 14.125 4.921875 C 13.960938 5.011719 13.816406 5.136719 13.699219 5.285156 C 13.515625 5.503906 13.503906 5.671875 13.496094 5.710938 C 13.457031 6.058594 13.578125 6.257812 13.804688 6.320312 C 13.914062 6.347656 14.117188 6.292969 14.1875 6.207031 C 14.265625 6.121094 14.332031 5.96875 14.3125 5.730469 C 14.292969 5.644531 14.191406 5.402344 14.277344 5.355469 C 14.683594 5.128906 15.105469 4.929688 15.539062 4.757812 C 15.636719 4.71875 15.714844 4.851562 15.746094 4.910156 C 16.332031 4.828125 16.847656 4.480469 17.152344 3.96875 C 17.316406 3.667969 17.59375 3.96875 17.546875 4.257812 C 17.472656 4.574219 17.234375 4.804688 16.945312 4.972656 C 16.65625 5.136719 16.28125 5.296875 15.910156 5.289062 C 15.707031 5.328125 15.710938 5.589844 15.949219 5.640625 C 16.421875 5.640625 16.800781 5.632812 17.15625 5.285156 C 17.425781 5.035156 17.574219 5.332031 17.5 5.5 C 17.367188 6.015625 16.636719 6.164062 15.898438 5.996094 C 15.609375 5.949219 15.78125 6.257812 15.859375 6.261719 C 16.171875 6.488281 16.722656 6.707031 17.210938 6.261719 C 17.433594 6.089844 17.585938 6.230469 17.5 6.480469 C 17.285156 7.132812 16.457031 6.996094 15.890625 6.675781 C 15.746094 6.59375 15.613281 6.785156 15.789062 6.929688 C 16.496094 7.429688 16.847656 7.4375 17.167969 7.246094 C 17.566406 7.085938 17.597656 7.53125 17.363281 7.683594 C 17.101562 7.839844 16.433594 7.722656 15.941406 7.40625 C 15.730469 7.246094 15.722656 7.496094 15.855469 7.597656 C 16.4375 8.105469 16.667969 8.242188 17.273438 8.15625 C 17.574219 8.132812 17.570312 8.511719 17.335938 8.65625 C 17.011719 8.859375 16.378906 8.527344 15.890625 8.109375 C 15.683594 8 15.648438 8.183594 15.75 8.398438 C 15.964844 8.710938 16.261719 8.957031 16.601562 9.113281 C 16.875 9.21875 17.132812 9.203125 17.316406 9.140625 C 17.542969 9.0625 17.570312 9.296875 17.445312 9.511719 C 17.371094 9.640625 17.0625 9.683594 16.726562 9.5625 C 16.390625 9.445312 16.03125 9.160156 15.785156 8.832031 C 15.570312 8.636719 15.59375 8.894531 15.695312 9.078125 C 16.1875 9.867188 16.640625 10.160156 17.238281 10.113281 C 17.5 10.066406 17.5625 10.273438 17.394531 10.46875 C 17.097656 10.714844 16.730469 10.707031 16.402344 10.460938 C 16.117188 10.183594 15.566406 9.574219 15.277344 9.25 C 15.074219 9.089844 15.007812 9.25 15.070312 9.582031 C 15.125 9.773438 15.257812 9.980469 15.628906 10.121094 C 15.882812 10.269531 15.691406 10.46875 15.503906 10.476562 C 15.398438 10.476562 15.1875 10.351562 15.023438 10.167969 C 14.8125 9.921875 14.796875 9.761719 14.679688 9.382812 C 14.570312 9.199219 14.371094 9.285156 14.371094 9.476562 C 14.46875 9.855469 14.546875 9.921875 14.742188 10.078125 C 14.925781 10.257812 14.613281 10.316406 14.507812 10.238281 C 14.203125 10.035156 14.09375 9.765625 13.992188 9.519531 C 13.914062 9.34375 13.703125 9.429688 13.804688 9.71875 C 14.039062 10.40625 14.429688 10.675781 15.105469 10.816406 C 15.171875 10.828125 15.214844 10.871094 15.191406 10.949219 L 14.917969 11.226562 C 15.335938 11.351562 15.675781 11.421875 16.097656 11.542969 L 16.675781 11.15625 C 16.726562 11.027344 16.753906 10.828125 17.058594 10.96875 C 17.261719 10.875 17.359375 10.910156 17.472656 11.007812 C 17.308594 11.007812 17.238281 11.054688 17.171875 11.128906 C 17.085938 11.355469 16.890625 11.378906 16.691406 11.316406 C 16.5625 11.421875 16.496094 11.511719 16.363281 11.621094 L 17.015625 11.601562 C 17.25 11.351562 17.429688 11.363281 17.59375 11.5625 C 17.722656 11.582031 17.773438 11.582031 17.859375 11.738281 C 17.726562 11.679688 17.640625 11.664062 17.582031 11.722656 C 17.335938 11.871094 17.175781 11.839844 17.054688 11.722656 L 16.371094 11.769531 C 16.457031 11.847656 16.574219 11.886719 16.664062 11.957031 C 17.015625 11.855469 17.203125 11.996094 17.265625 12.285156 C 17.316406 12.402344 17.332031 12.53125 17.3125 12.65625 C 17.285156 12.535156 17.21875 12.441406 17.121094 12.378906 C 16.808594 12.457031 16.691406 12.328125 16.671875 12.136719 C 16.515625 12.007812 16.289062 11.980469 16.136719 11.855469 C 15.957031 11.910156 15.871094 11.945312 15.691406 12.003906 C 15.628906 12.203125 15.480469 12.277344 15.25 12.226562 C 14.976562 12.234375 15.023438 12.355469 15 12.445312 C 14.921875 12.3125 14.925781 12.183594 15.097656 12.066406 C 15.160156 11.894531 15.300781 11.816406 15.480469 11.914062 C 15.652344 11.867188 15.695312 11.796875 15.867188 11.746094 C 15.4375 11.605469 15.132812 11.574219 14.703125 11.4375 L 14.402344 11.703125 C 14.34375 11.746094 14.292969 11.746094 14.253906 11.703125 C 13.984375 11.308594 13.863281 10.964844 13.617188 10.703125 C 13.519531 10.59375 13.398438 10.449219 13.265625 10.414062 C 13.199219 10.394531 13.117188 10.40625 13.0625 10.464844 C 13.011719 10.519531 12.96875 10.628906 12.984375 10.789062 C 13.011719 11.015625 13.066406 11.089844 13.128906 11.226562 C 13.191406 11.359375 13.269531 11.449219 13.351562 11.554688 C 13.507812 11.765625 13.71875 11.886719 13.84375 11.96875 C 14.09375 12.132812 14.195312 12.0625 14.390625 12.050781 C 14.640625 12.078125 14.703125 12.199219 14.5 12.371094 C 14.3125 12.472656 14.140625 12.484375 14 12.457031 C 13.882812 12.433594 13.742188 12.277344 13.640625 12.195312 C 13.53125 12.066406 13.34375 12.21875 13.472656 12.375 C 13.703125 12.652344 13.929688 12.832031 14.214844 12.828125 C 14.515625 12.867188 14.457031 13.039062 14.261719 13.121094 C 13.902344 13.269531 13.582031 12.992188 13.417969 12.804688 C 13.292969 12.667969 13.203125 12.664062 13.222656 12.878906 C 13.351562 13.273438 13.519531 13.421875 13.800781 13.441406 C 14.027344 13.417969 14.03125 13.601562 13.863281 13.71875 C 13.488281 13.980469 13.214844 13.53125 13.085938 13.261719 C 12.996094 13.015625 12.855469 13.128906 12.839844 13.332031 C 12.839844 13.605469 12.957031 13.824219 13.28125 14.097656 C 13.035156 14.5 12.746094 14.90625 12.5 15.308594 L 11.75 6.835938 L 12.5 5.503906 C 12.578125 5.429688 12.84375 5.113281 12.910156 5.066406 C 12.9375 5.042969 12.949219 5.027344 12.914062 5.011719 C 12.878906 4.996094 12.796875 4.980469 12.738281 4.972656 C 12.894531 4.808594 13.035156 4.757812 13.335938 4.671875 C 13.261719 4.640625 13.191406 4.65625 12.972656 4.648438 C 13.105469 4.464844 13.289062 4.324219 13.5 4.242188 C 13.335938 4.125 13.304688 4.117188 13.140625 3.976562 C 13.398438 3.957031 13.65625 3.90625 13.902344 3.828125 C 14.050781 3.757812 14.207031 3.710938 14.371094 3.691406 Z M 14.34375 4.027344 C 14.195312 4.027344 14.105469 4.078125 14.105469 4.140625 C 14.105469 4.203125 14.195312 4.253906 14.34375 4.253906 C 14.492188 4.253906 14.585938 4.195312 14.585938 4.136719 C 14.585938 4.074219 14.492188 4.027344 14.34375 4.027344 "/>
</g>
</svg>
