<svg xmlns="http://www.w3.org/2000/svg" width="25" height="px" viewBox="0 0 25 19"><path d="M0 0h25v9.64H0Zm0 0" style="stroke:none;fill-rule:evenodd;fill:red;fill-opacity:1"/><path d="M0 9.36h25V19H0Zm0 0" style="stroke:none;fill-rule:evenodd;fill:#000001;fill-opacity:1"/><path d="M8.934 5.867c6.453 1.715 2.304 10.117-2.786 6.617l-.343.54c2.996 2.16 5.96.417 6.797-1.836.867-2.329-.297-5.602-3.618-5.938Zm0 0" style="stroke:none;fill-rule:evenodd;fill:#ffec00;fill-opacity:1"/><path d="m6.64 13.094.848.398-.398.863-.848-.402Zm5.82-3.938h.938v.95h-.937Zm-.456-1.539.871-.34.34.88-.871.347Zm-1.016-1.152.668-.668.66.672-.664.668ZM9.965 4.887l.875.336-.332.886-.875-.336Zm2.379 5.8.87.352-.35.879-.868-.352Zm-2.73 2.77.859-.367.37.87-.859.372Zm-1.544.113h.938v.95H8.07Zm1.614-4.593-.793-.594-.793.578.312-.91-.793-.594h.957l.332-.894.305.898.965-.012-.766.606Zm0 0" style="stroke:none;fill-rule:evenodd;fill:#ffec00;fill-opacity:1"/><path d="M13.125 13.71c-.047.017-.242.493-.379.724l.145.039c.53.187.797.363 1.023.691.11.106.277.117.399.027 0 0 .109-.039.25-.195.117-.18.085-.32-.055-.441-.43-.317-.895-.555-1.383-.844" style="stroke:none;fill-rule:evenodd;fill:#fe0;fill-opacity:1"/><path d="M14.27 14.758a.17.17 0 1 1-.34 0 .17.17 0 0 1 .168-.172.17.17 0 0 1 .168.172Zm-.836-.54a.17.17 0 1 1-.34 0 .17.17 0 1 1 .34 0m.425.278a.17.17 0 1 1-.34 0c0-.098.075-.172.172-.172.094 0 .168.074.168.172" style="stroke:none;fill-rule:evenodd;fill:#000001;fill-opacity:1"/><path d="M12.676 14.395c-1.664-.961-3.41-1.997-5.078-2.957-.73-.465-.766-1.325-.274-1.977.047-.09.11-.07.133-.02.059.317.234.645.445.852q2.596 1.652 5.145 3.387c-.133.23-.235.488-.371.71Zm0 0" style="stroke:none;fill-rule:evenodd;fill:#fe0;fill-opacity:1"/><path d="m11.61 12.094.695.633-.625.703-.696-.633Zm0 0" style="stroke:none;fill-rule:evenodd;fill:#ffec00;fill-opacity:1"/><path d="m331.5 348.849-125-75.592m109.6 58.125L274 304.145m18.2 42.631-42.9-24.77" style="fill:none;stroke-width:3;stroke-linecap:butt;stroke-linejoin:miter;stroke:#000;stroke-opacity:1;stroke-miterlimit:4" transform="scale(.03906 .03958)"/></svg>