<svg xmlns="http://www.w3.org/2000/svg" width="25" height="px" viewBox="0 0 25 19"><path d="M0 0h25v19H0z" style="fill:#3a7dce;fill-opacity:1;stroke:none"/><path d="M6.16 9.137c-.137-.309-.137-.309-.137-.617-.07 0-.078.011-.117 0-.043-.012-.058.285-.187.226-.02-.031.093-.242-.028-.336-.039-.027.008-.203-.007-.285 0 0-.157.098-.274-.227-.058-.09-.137.079-.137.079s.036.093-.027.117c-.086-.07-.152-.031-.262-.133-.109-.106.024-.215-.187-.297.137-.387.137-.312.476-.469-.203-.156-.203-.156-.34-.386-.203-.079-.273-.16-.476-.309-.273-.39-.41-1.168-.41-1.71.172-.18.41.62.75.855l.476.234c.274.152.34.309.547.46l.61.24c.273.23.41.538.613.616.223 0 .266-.144.336-.152.402-.023.605-.082.684-.219.082-.11.273.063.82-.172l-.067-.312s.145-.133.34-.078c-.004-.137-.02-.516.176-.688-.117-.14.07-.355.078-.426-.055-.34.055-.343.078-.445.024-.098-.093-.066-.062-.207.035-.137.234-.168.258-.285.027-.113-.043-.566-.051-.664.367-.11.484-.453.613-.309.066-.468.137-.625.547-.625.055-.144-.152-.265-.07-.312.136-.02.238-.008.398.226.05.078.063-.109.113-.129s.172-.02.192-.109c.02-.098.047-.223.117-.379.055-.125.098.055.148.297.29.012.938.086 1.211.172.203.059.34-.059.536-.086.144.164.28.039.359.394.105.192.285.016.324.07.227.72 1.008.235 1.07.247.098 0 .22.316.301.312.125-.023.09-.12.203-.082-.03.27.22.579.22.782 0 0 .058.035.116-.028.055-.062.106-.21.157-.207.117.02.859.239 1.007.313.067.136.13.207.266.183.11.086.031.2.094.203.136-.078.183-.156.32-.082a.9.9 0 0 1 .34.387c0 .078-.07.387 0 .856.035.156.379 1.277.379 1.394 0 .156-.106.235-.176.39.273.235 0 .622-.137.856 1.024.235.547.696 1.364.461-.204.547-.133.504.07 1.047-.406.309-.008.402-.277.793-.02.027.16.34.41.34-.067.617-.274.387-.203 1.316-.536-.011-.32.7-.68.621.02.446.203.485.133.93-.274.082-.274.082-.407.316l-.203-.082c-.07.391-.207.47 0 .856 0 0-.265.008-.343 0-.004.137.117.172.136.309-.008.054-.386.3-.68.312-.078.191.204.398.188.492-.32.07-.46.516-.46.516s.163.078.136.156c-.086-.07-.137-.078-.274-.078-.066.02-.234 0-.39.305-.176.062-.258.039-.39.238-.06-.188-.145.004-.247.078-.105.07-.242.258-.262.25.004-.055.063-.25.063-.25l-.38.09c-.026.004-.019-.223-.085-.215s-.25.29-.312.297c-.063.008-.083-.09-.137-.082s-.156.297-.196.305c-.039.003-.195-.176-.324-.149-.668.27-.777-.531-.879-.078-.14-.09-.117-.043-.261.004-.09.027-.098-.137-.18-.137-.16.008-.156.184-.242.133-.07-.367-.508-.3-.547-.457-.04-.156.187-.16.258-.27.054-.156-.059-.222.168-.37.293-.227.265-.786.191-1.005 0 0-.23-.699-.273-.699-.137-.039-.137.258-.336.34-.41.16-1.133-.39-1.258-.39-.113 0-.645.14-.625-.16-.078.292-.371.07-.39.07-.274 0-.169.238-.352.23-.082-.031-.922-.09-.922-.09v.16l-1.02-.468c-.41-.157-.207-.543-.886-.309v-.469h-.34c.136-.933 0-.465-.07-1.32l-.274.078c-.273-.418.383-.34-.203-.621 0 0 .012-.46-.137-.309-.027.02.07.23.07.23-.546-.077-.68-.23-.68-.85 0 0 .446.07.407 0-.062-.118-.145-.872-.133-.926-.004-.102.418-.356.336-.602a1 1 0 0 1 .207-.027" style="stroke:none;fill-rule:nonzero;fill:#fff;fill-opacity:1"/><path d="M595.552 297.56c-.697 1.325-.581 2.55 0 3.67 1.163-1.733.233-2.447 0-3.67ZM119.506 148.168s-3.023-.408-2.442 2.345c1.047-2.039 2.325-2.243 2.442-2.345Zm-.35-6.322c-1.627 0-3.72-.204-2.905 2.447.93-2.141 2.906-2.345 2.906-2.447Zm12.789 36.302s2.557-.204 1.976 2.448c-1.046-2.04-1.976-2.346-1.976-2.448Zm0 0" style="fill:none;stroke-width:2.5;stroke-linecap:butt;stroke-linejoin:round;stroke:#fff;stroke-opacity:1;stroke-miterlimit:4" transform="scale(.0336 .0383)"/></svg>