<svg xmlns="http://www.w3.org/2000/svg" width="25" height="px" viewBox="0 0 25 19"><path d="M0 0h25v19H0z" style="fill:#74acdf;fill-opacity:1;stroke:none"/><path d="M0 6.332h25v6.336H0Zm0 0" style="stroke:none;fill-rule:nonzero;fill:#fff;fill-opacity:1"/><path d="m396.77 251.336 28.543 61.986s.52 1.131 1.25.926c.833-.412.312-1.645.312-1.645l-23.646-64.042m-.729 24.26c-.417 9.354 5.417 14.597 4.688 23.026-.73 8.327 3.854 13.158 5 16.447 1.041 3.29-1.146 5.243-.313 5.757 1.042.411 3.02-2.159 2.396-6.887-.521-4.626-4.167-5.963-3.333-16.242.729-10.28-4.271-12.747-3.021-21.998" style="fill-rule:nonzero;fill:#f6b40e;fill-opacity:1;stroke-width:1.1;stroke-linecap:butt;stroke-linejoin:miter;stroke:#85340a;stroke-opacity:1;stroke-miterlimit:4" transform="matrix(.0375 0 0 .038 -2.5 0)"/><path d="m396.824 251.315 28.487 61.97s.512 1.234 1.282.916c.827-.454.354-1.594.354-1.594l-23.714-64.057m-.781 24.245c-.392 9.398 5.498 14.635 4.77 22.948-.69 8.408 3.788 13.23 4.933 16.538 1.049 3.349-1.1 5.24-.247 5.665 1.028.576 2.997-2.02 2.382-6.772-.576-4.657-4.158-5.955-3.368-16.296.83-10.246-4.248-12.705-3.025-22.002" style="fill-rule:nonzero;fill:#f6b40e;fill-opacity:1;stroke-width:1.1;stroke-linecap:butt;stroke-linejoin:miter;stroke:#85340a;stroke-opacity:1;stroke-miterlimit:4" transform="matrix(.03465 .01454 -.01435 .0351 2.23 -5.094)"/><path d="m396.772 251.338 28.491 61.932s.504 1.24 1.384.942c.735-.443.304-1.611.304-1.611l-23.795-64.012m-.673 24.223c-.355 9.368 5.464 14.598 4.75 23.017-.714 8.42 3.79 13.219 4.94 16.43 1.002 3.36-1.206 5.277-.258 5.783 1.021.432 3.014-2.142 2.387-6.894-.628-4.606-4.204-5.972-3.405-16.221.8-10.395-4.16-12.704-3-22.004" style="fill-rule:nonzero;fill:#f6b40e;fill-opacity:1;stroke-width:1.1;stroke-linecap:butt;stroke-linejoin:miter;stroke:#85340a;stroke-opacity:1;stroke-miterlimit:4" transform="rotate(45.38 13.787 6.21)scale(.03775)skewX(.759)"/><path d="m396.804 251.27 28.512 61.983s.496 1.22 1.265.975c.849-.438.353-1.658.353-1.658l-23.698-63.936m-.768 24.149c-.349 9.439 5.398 14.638 4.702 23.032s3.872 13.217 5.06 16.527c.998 3.232-1.234 5.127-.324 5.617 1.005.528 2.96-2.044 2.37-6.798-.629-4.658-4.183-6.018-3.38-16.283s-4.205-12.68-3.017-21.996" style="fill-rule:nonzero;fill:#f6b40e;fill-opacity:1;stroke-width:1.1;stroke-linecap:butt;stroke-linejoin:miter;stroke:#85340a;stroke-opacity:1;stroke-miterlimit:4" transform="matrix(.01435 .0351 -.03465 .01454 15.421 -8.178)"/><path d="M12.66 10.426c.02.344.211.496.172.812.086-.25-.113-.441-.102-.808m-.289-.903.73 1.618-.612-1.668" style="stroke:none;fill-rule:nonzero;fill:#85340a;fill-opacity:1"/><path d="M12.297 10.418c-.11.324.008.539-.145.816.168-.195.059-.453.207-.785m.075-.949.066 1.781.063-1.777" style="stroke:none;fill-rule:nonzero;fill:#85340a;fill-opacity:1"/><path d="M11.969 10.27c-.227.257-.2.5-.446.699.23-.117.227-.399.489-.649m.425-.843-.609 1.668.73-1.618" style="stroke:none;fill-rule:nonzero;fill:#85340a;fill-opacity:1"/><path d="M11.715 10.004c-.305.148-.367.387-.672.473.258-.016.36-.278.695-.407m.715-.617-1.195 1.305 1.285-1.211" style="stroke:none;fill-rule:nonzero;fill:#85340a;fill-opacity:1"/><path d="m396.813 251.25 28.475 62.083s.514 1.146 1.336.834c.823-.417.309-1.563.309-1.563l-23.746-63.958m-.72 24.167c-.411 9.375 5.448 14.583 4.729 23.02-.72 8.334 3.803 13.125 5.037 16.459.925 3.333-1.234 5.208-.309 5.729.926.52 2.981-2.083 2.365-6.771-.617-4.792-4.215-6.042-3.393-16.354.823-10.313-4.214-12.708-2.98-21.98" style="fill-rule:nonzero;fill:#f6b40e;fill-opacity:1;stroke-width:1.1;stroke-linecap:butt;stroke-linejoin:miter;stroke:#85340a;stroke-opacity:1;stroke-miterlimit:4" transform="matrix(0 .038 -.0375 0 21.875 -5.7)"/><path d="m396.771 251.338 28.54 61.916s.518 1.251 1.278.936c.854-.354.336-1.605.336-1.605l-23.736-64.019m-.666 24.18c-.435 9.425 5.41 14.67 4.67 23.095-.643 8.384 3.798 13.197 5.019 16.412.935 3.333-1.175 5.222-.287 5.756.984.495 3.006-2.147 2.391-6.853-.614-4.707-4.23-5.915-3.41-16.29.767-10.239-4.247-12.672-2.987-21.988" style="fill-rule:nonzero;fill:#f6b40e;fill-opacity:1;stroke-width:1.1;stroke-linecap:butt;stroke-linejoin:miter;stroke:#85340a;stroke-opacity:1;stroke-miterlimit:4" transform="matrix(-.01435 .0351 -.03465 -.01454 26.902 -.907)"/><path d="m396.79 251.296 28.506 61.943s.52 1.248 1.25.96c.876-.433.356-1.534.356-1.534l-23.692-64.107m-.717 24.287c-.377 9.363 5.438 14.597 4.689 23.006-.677 8.337 3.818 13.123 5.011 16.497 1.046 3.226-1.21 5.187-.328 5.632 1.1.519 2.986-2.103 2.443-6.716-.544-4.76-4.211-6.1-3.4-16.34.736-10.311-4.183-12.758-3-22.043" style="fill-rule:nonzero;fill:#f6b40e;fill-opacity:1;stroke-width:1.1;stroke-linecap:butt;stroke-linejoin:miter;stroke:#85340a;stroke-opacity:1;stroke-miterlimit:4" transform="matrix(-.02652 .02687 -.02652 -.02687 29.736 5.47)"/><path d="m396.746 251.323 28.549 62.006s.512 1.213 1.325.882c.757-.465.341-1.639.341-1.639l-23.803-63.934m-.667 24.202c-.4 9.403 5.353 14.568 4.69 22.972s3.801 13.146 4.992 16.532c1.037 3.211-1.14 5.202-.314 5.656 1.02.533 3.01-2.092 2.465-6.768-.64-4.715-4.279-6-3.39-16.313.794-10.353-4.189-12.751-3.037-22.065" style="fill-rule:nonzero;fill:#f6b40e;fill-opacity:1;stroke-width:1.1;stroke-linecap:butt;stroke-linejoin:miter;stroke:#85340a;stroke-opacity:1;stroke-miterlimit:4" transform="matrix(-.03465 .01454 -.01435 -.0351 29.946 12.46)"/><path d="M11.586 9.664c-.34.02-.488.211-.8.176.245.082.437-.121.796-.11m.89-.293-1.597.743 1.648-.617" style="stroke:none;fill-rule:nonzero;fill:#85340a;fill-opacity:1"/><path d="M11.594 9.297c-.32-.113-.531.008-.805-.149.195.172.445.059.774.211m.937.075-1.758.066 1.754.066" style="stroke:none;fill-rule:nonzero;fill:#85340a;fill-opacity:1"/><path d="M11.738 8.96c-.25-.23-.492-.198-.687-.448.117.234.39.226.636.492m.836.434-1.644-.622 1.594.743" style="stroke:none;fill-rule:nonzero;fill:#85340a;fill-opacity:1"/><path d="M12 8.707c-.145-.309-.379-.375-.465-.684.02.262.274.364.402.707m.61.723-1.29-1.215 1.196 1.305" style="stroke:none;fill-rule:nonzero;fill:#85340a;fill-opacity:1"/><path d="m396.77 251.336 28.543 61.986s.52 1.131 1.25.926c.833-.412.312-1.645.312-1.645l-23.646-64.042m-.729 24.26c-.417 9.354 5.417 14.597 4.688 23.026-.73 8.327 3.854 13.158 5 16.447 1.041 3.29-1.146 5.243-.313 5.757 1.042.411 3.02-2.159 2.396-6.887-.521-4.626-4.167-5.963-3.333-16.242.729-10.28-4.271-12.747-3.021-21.998" style="fill-rule:nonzero;fill:#f6b40e;fill-opacity:1;stroke-width:1.1;stroke-linecap:butt;stroke-linejoin:miter;stroke:#85340a;stroke-opacity:1;stroke-miterlimit:4" transform="matrix(-.0375 0 0 -.038 27.5 19)"/><path d="m396.824 251.315 28.487 61.97s.512 1.234 1.282.916c.827-.454.354-1.594.354-1.594l-23.714-64.057m-.781 24.245c-.392 9.398 5.498 14.635 4.77 22.948-.69 8.408 3.788 13.23 4.933 16.538 1.049 3.349-1.1 5.24-.247 5.665 1.028.576 2.997-2.02 2.382-6.772-.576-4.657-4.158-5.955-3.368-16.296.83-10.246-4.248-12.705-3.025-22.002" style="fill-rule:nonzero;fill:#f6b40e;fill-opacity:1;stroke-width:1.1;stroke-linecap:butt;stroke-linejoin:miter;stroke:#85340a;stroke-opacity:1;stroke-miterlimit:4" transform="matrix(-.03465 -.01454 .01435 -.0351 22.77 24.094)"/><path d="m396.772 251.338 28.491 61.932s.504 1.24 1.384.942c.735-.443.304-1.611.304-1.611l-23.795-64.012m-.673 24.223c-.355 9.368 5.464 14.598 4.75 23.017-.714 8.42 3.79 13.219 4.94 16.43 1.002 3.36-1.206 5.277-.258 5.783 1.021.432 3.014-2.142 2.387-6.894-.628-4.606-4.204-5.972-3.405-16.221.8-10.395-4.16-12.704-3-22.004" style="fill-rule:nonzero;fill:#f6b40e;fill-opacity:1;stroke-width:1.1;stroke-linecap:butt;stroke-linejoin:miter;stroke:#85340a;stroke-opacity:1;stroke-miterlimit:4" transform="rotate(224.62 13.771 10.102)scale(.03775)skewY(.759)"/><path d="m396.804 251.27 28.512 61.983s.496 1.22 1.265.975c.849-.438.353-1.658.353-1.658l-23.698-63.936m-.768 24.149c-.349 9.439 5.398 14.638 4.702 23.032s3.872 13.217 5.06 16.527c.998 3.232-1.234 5.127-.324 5.617 1.005.528 2.96-2.044 2.37-6.798-.629-4.658-4.183-6.018-3.38-16.283s-4.205-12.68-3.017-21.996" style="fill-rule:nonzero;fill:#f6b40e;fill-opacity:1;stroke-width:1.1;stroke-linecap:butt;stroke-linejoin:miter;stroke:#85340a;stroke-opacity:1;stroke-miterlimit:4" transform="matrix(-.01435 -.0351 .03465 -.01454 9.579 27.178)"/><path d="M12.34 8.574c-.02-.344-.211-.496-.172-.812-.086.25.113.441.102.808m.289.903-.73-1.618.612 1.668" style="stroke:none;fill-rule:nonzero;fill:#85340a;fill-opacity:1"/><path d="M12.703 8.582c.11-.324-.008-.539.145-.816-.168.195-.059.453-.207.785m-.075.949L12.5 7.719l-.062 1.777" style="stroke:none;fill-rule:nonzero;fill:#85340a;fill-opacity:1"/><path d="M13.031 8.73c.227-.257.2-.5.446-.699-.23.117-.227.399-.489.649m-.425.843.609-1.668-.73 1.618" style="stroke:none;fill-rule:nonzero;fill:#85340a;fill-opacity:1"/><path d="M13.285 8.996c.305-.148.367-.387.672-.473-.258.016-.36.278-.695.407m-.715.617 1.195-1.305-1.285 1.211" style="stroke:none;fill-rule:nonzero;fill:#85340a;fill-opacity:1"/><path d="m396.813 251.25 28.475 62.083s.514 1.146 1.336.834c.823-.417.309-1.563.309-1.563l-23.746-63.958m-.72 24.167c-.411 9.375 5.448 14.583 4.729 23.02-.72 8.334 3.803 13.125 5.037 16.459.925 3.333-1.234 5.208-.309 5.729.926.52 2.981-2.083 2.365-6.771-.617-4.792-4.215-6.042-3.393-16.354.823-10.313-4.214-12.708-2.98-21.98" style="fill-rule:nonzero;fill:#f6b40e;fill-opacity:1;stroke-width:1.1;stroke-linecap:butt;stroke-linejoin:miter;stroke:#85340a;stroke-opacity:1;stroke-miterlimit:4" transform="matrix(0 -.038 .0375 0 3.125 24.7)"/><path d="m396.771 251.338 28.54 61.916s.518 1.251 1.278.936c.854-.354.336-1.605.336-1.605l-23.736-64.019m-.666 24.18c-.435 9.425 5.41 14.67 4.67 23.095-.643 8.384 3.798 13.197 5.019 16.412.935 3.333-1.175 5.222-.287 5.756.984.495 3.006-2.147 2.391-6.853-.614-4.707-4.23-5.915-3.41-16.29.767-10.239-4.247-12.672-2.987-21.988" style="fill-rule:nonzero;fill:#f6b40e;fill-opacity:1;stroke-width:1.1;stroke-linecap:butt;stroke-linejoin:miter;stroke:#85340a;stroke-opacity:1;stroke-miterlimit:4" transform="matrix(.01435 -.0351 .03465 .01454 -1.902 19.907)"/><path d="m396.79 251.296 28.506 61.943s.52 1.248 1.25.96c.876-.433.356-1.534.356-1.534l-23.692-64.107m-.717 24.287c-.377 9.363 5.438 14.597 4.689 23.006-.677 8.337 3.818 13.123 5.011 16.497 1.046 3.226-1.21 5.187-.328 5.632 1.1.519 2.986-2.103 2.443-6.716-.544-4.76-4.211-6.1-3.4-16.34.736-10.311-4.183-12.758-3-22.043" style="fill-rule:nonzero;fill:#f6b40e;fill-opacity:1;stroke-width:1.1;stroke-linecap:butt;stroke-linejoin:miter;stroke:#85340a;stroke-opacity:1;stroke-miterlimit:4" transform="matrix(.02652 -.02687 .02652 .02687 -4.736 13.53)"/><path d="m396.746 251.323 28.549 62.006s.512 1.213 1.325.882c.757-.465.341-1.639.341-1.639l-23.803-63.934m-.667 24.202c-.4 9.403 5.353 14.568 4.69 22.972s3.801 13.146 4.992 16.532c1.037 3.211-1.14 5.202-.314 5.656 1.02.533 3.01-2.092 2.465-6.768-.64-4.715-4.279-6-3.39-16.313.794-10.353-4.189-12.751-3.037-22.065" style="fill-rule:nonzero;fill:#f6b40e;fill-opacity:1;stroke-width:1.1;stroke-linecap:butt;stroke-linejoin:miter;stroke:#85340a;stroke-opacity:1;stroke-miterlimit:4" transform="matrix(.03465 -.01454 .01435 .0351 -4.946 6.54)"/><path d="M13.414 9.336c.34-.02.488-.211.8-.176-.245-.082-.437.121-.796.11m-.89.293 1.597-.743-1.648.617" style="stroke:none;fill-rule:nonzero;fill:#85340a;fill-opacity:1"/><path d="M13.406 9.703c.32.113.531-.008.805.149-.195-.172-.445-.059-.774-.211m-.937-.075 1.758-.066-1.754-.066" style="stroke:none;fill-rule:nonzero;fill:#85340a;fill-opacity:1"/><path d="M13.262 10.04c.25.23.492.198.687.448-.117-.234-.39-.226-.636-.492m-.836-.434 1.644.622-1.594-.743" style="stroke:none;fill-rule:nonzero;fill:#85340a;fill-opacity:1"/><path d="M13 10.293c.145.309.379.375.465.684-.02-.262-.274-.364-.402-.707m-.61-.723 1.29 1.215-1.196-1.305" style="stroke:none;fill-rule:nonzero;fill:#85340a;fill-opacity:1"/><path d="M346.7 240c0-14.704-12-26.743-26.7-26.743s-26.7 12.04-26.7 26.743c0 14.704 12 26.743 26.7 26.743s26.7-12.04 26.7-26.743Zm0 0" style="fill-rule:nonzero;fill:#f6b40e;fill-opacity:1;stroke-width:1.4;stroke-linecap:butt;stroke-linejoin:miter;stroke:#85340a;stroke-opacity:1;stroke-miterlimit:4" transform="scale(.03906 .03958)"/><path d="M12.852 9.273a.2.2 0 0 0-.176.098c.078.074.258.078.379-.008a.26.26 0 0 0-.2-.09Zm0 .016c.07 0 .136.031.144.066-.078.09-.207.079-.289.016q.063-.082.148-.082Zm0 0" style="stroke:none;fill-rule:nonzero;fill:#843511;fill-opacity:1"/><path d="M12.867 9.223c-.105 0-.129.023-.176.066-.046.04-.074.031-.078.04-.011.007 0 .034.012.026a.4.4 0 0 0 .098-.066c.07-.055.097-.039.144-.039.145 0 .223.121.238.113.02-.008-.078-.14-.238-.14" style="stroke:none;fill-rule:nonzero;fill:#85340a;fill-opacity:1"/><path d="M13.156 9.273c-.183-.16-.418-.187-.547-.066a.3.3 0 0 0-.058.133.4.4 0 0 0 .082.297l-.031.02a.6.6 0 0 1-.063-.376l.024-.09c.175-.148.417-.16.593.079Zm0 0" style="stroke:none;fill-rule:nonzero;fill:#85340a;fill-opacity:1"/><path d="M12.922 9.355c0-.043-.031-.074-.07-.074s-.07.031-.07.074c0 .04.03.07.07.07a.07.07 0 0 0 .07-.07m0 0" style="stroke:none;fill-rule:nonzero;fill:#85340a;fill-opacity:1"/><path d="M13.059 9.402c-.137.106-.274.098-.352.051-.078-.05-.078-.066-.062-.066.015 0 .03.015.093.05.067.032.16.032.32-.035M12.344 9.645c-.031.007-.051.035-.055.066 0 .031.016.059.043.07a.07.07 0 0 0 .082-.02.17.17 0 0 0 .086.024h.008a.2.2 0 0 0 .09-.023q.016.028.058.027a.07.07 0 0 0 .074-.066.07.07 0 0 0-.062-.078q.03.016.031.05c0 .024-.02.047-.047.047a.047.047 0 0 1-.047-.047.12.12 0 0 1-.101.067.12.12 0 0 1-.098-.067q-.006.041-.05.047-.041-.006-.047-.047c-.008-.043.011-.039.03-.05Zm.078.214c-.082 0-.117.079-.188.125.04-.015.07-.05.13-.082.058-.03.1.008.136.008.035 0 .078-.039.137-.008q.075.054.129.082c-.075-.05-.106-.12-.188-.12a.2.2 0 0 0-.078.023Zm0 0" style="stroke:none;fill-rule:nonzero;fill:#85340a;fill-opacity:1"/><path d="M12.39 9.96a.6.6 0 0 0-.132.024c.144-.03.176.02.242.02.063 0 .098-.05.238-.02-.156-.05-.191-.015-.238-.015-.031 0-.055-.012-.11-.008" style="stroke:none;fill-rule:nonzero;fill:#85340a;fill-opacity:1"/><path d="M12.266 9.984h-.032c.168.02.09.118.266.118s.098-.098.266-.118c-.176-.015-.121.09-.266.09-.137 0-.094-.09-.234-.09M12.645 10.25a.15.15 0 0 0-.145-.148.15.15 0 0 0-.145.148.146.146 0 0 1 .145-.117c.07 0 .129.047.145.117M11.852 9.273c.183-.16.418-.187.546-.066a.3.3 0 0 1 .059.133.4.4 0 0 1-.082.297l.031.02a.6.6 0 0 0 .063-.376l-.024-.09c-.175-.148-.418-.16-.593.079Zm0 0" style="stroke:none;fill-rule:nonzero;fill:#85340a;fill-opacity:1"/><path d="M12.14 9.223c.106 0 .13.023.176.066.047.04.075.031.079.04.011.007 0 .034-.012.026a.4.4 0 0 1-.098-.066c-.07-.055-.098-.039-.144-.039-.145 0-.223.121-.239.113-.02-.008.078-.14.239-.14" style="stroke:none;fill-rule:nonzero;fill:#85340a;fill-opacity:1"/><path d="M12.133 9.273a.2.2 0 0 0-.176.098c.078.074.258.078.379-.008a.26.26 0 0 0-.2-.09Zm0 .016c.07 0 .137.031.144.066-.078.09-.207.079-.289.016.043-.055.09-.082.149-.082Zm0 0" style="stroke:none;fill-rule:nonzero;fill:#843511;fill-opacity:1"/><path d="M12.215 9.355c0-.043-.031-.074-.07-.074s-.07.031-.07.074c0 .04.03.07.07.07a.07.07 0 0 0 .07-.07m0 0" style="stroke:none;fill-rule:nonzero;fill:#85340a;fill-opacity:1"/><path d="M11.95 9.402c.136.106.273.098.35.051.079-.05.079-.066.063-.066-.015 0-.031.015-.093.05-.067.032-.16.032-.32-.035" style="stroke:none;fill-rule:nonzero;fill:#85340a;fill-opacity:1"/></svg>