<?xml version="1.0" encoding="UTF-8"?>
<svg xmlns="http://www.w3.org/2000/svg" xmlns:xlink="http://www.w3.org/1999/xlink" width="25px" height="px" viewBox="0 0 25 19" version="1.1">
<g id="surface1">
<rect x="0" y="0" width="25" height="19" style="fill:rgb(45.490196%,67.450982%,87.450981%);fill-opacity:1;stroke:none;"/>
<path style=" stroke:none;fill-rule:nonzero;fill:rgb(100%,100%,100%);fill-opacity:1;" d="M 0 6.332031 L 25 6.332031 L 25 12.667969 L 0 12.667969 Z M 0 6.332031 "/>
<path style="fill-rule:nonzero;fill:rgb(96.470588%,70.588237%,5.490196%);fill-opacity:1;stroke-width:1.1;stroke-linecap:butt;stroke-linejoin:miter;stroke:rgb(52.156866%,20.392157%,3.921569%);stroke-opacity:1;stroke-miterlimit:4;" d="M 396.770842 251.336354 L 425.31251 313.322375 C 425.31251 313.322375 425.833343 314.453132 426.56251 314.24754 C 427.395843 313.836356 426.87501 312.602803 426.87501 312.602803 L 403.229176 248.560861 M 402.500009 272.82073 C 402.083342 282.175171 407.916676 287.41777 407.187509 295.847046 C 406.458342 304.173527 411.041676 309.004941 412.187509 312.294415 C 413.229176 315.583889 411.041676 317.537014 411.875009 318.050994 C 412.916676 318.462178 414.895843 315.892277 414.270843 311.163658 C 413.750009 306.537836 410.104176 305.201487 410.937509 294.921882 C 411.666676 284.642276 406.666676 282.175171 407.916676 272.923526 " transform="matrix(0.0375,0,0,0.038,-2.5,0)"/>
<path style="fill-rule:nonzero;fill:rgb(96.470588%,70.588237%,5.490196%);fill-opacity:1;stroke-width:1.1;stroke-linecap:butt;stroke-linejoin:miter;stroke:rgb(52.156866%,20.392157%,3.921569%);stroke-opacity:1;stroke-miterlimit:4;" d="M 396.824174 251.315476 L 425.311435 313.284791 C 425.311435 313.284791 425.822833 314.519416 426.592733 314.200513 C 427.419532 313.746777 426.947472 312.607123 426.947472 312.607123 L 403.232745 248.549693 M 402.451695 272.79533 C 402.059754 282.192725 407.949936 287.430262 407.221511 295.743112 C 406.532425 304.150933 411.00995 308.972221 412.154979 312.280966 C 413.20377 315.629575 411.055641 317.520749 411.908434 317.94637 C 412.936142 318.522071 414.905139 315.926235 414.289763 311.174178 C 413.713725 306.517092 410.131856 305.21911 410.92209 294.877876 C 411.751662 284.631613 406.674242 282.172858 407.897198 272.876307 " transform="matrix(0.0346455,0.014542,-0.0143506,0.0351074,2.229464,-5.093644)"/>
<path style="fill-rule:nonzero;fill:rgb(96.470588%,70.588237%,5.490196%);fill-opacity:1;stroke-width:1.1;stroke-linecap:butt;stroke-linejoin:miter;stroke:rgb(52.156866%,20.392157%,3.921569%);stroke-opacity:1;stroke-miterlimit:4;" d="M 396.771703 251.338422 L 425.263378 313.270355 C 425.263378 313.270355 425.767346 314.510894 426.647353 314.212389 C 427.381984 313.768509 426.950704 312.600659 426.950704 312.600659 L 403.155629 248.588885 M 402.483025 272.812333 C 402.128309 282.180335 407.947208 287.409979 407.23293 295.829163 C 406.518651 304.248347 411.023356 309.04768 412.172792 312.259511 C 413.174914 315.618656 410.967144 317.535675 411.914992 318.041582 C 412.936498 318.473832 414.929113 315.899715 414.302059 311.147872 C 413.674037 306.542374 410.097798 305.175843 410.897363 294.926865 C 411.697898 284.531543 406.737684 282.222978 407.896812 272.922818 " transform="matrix(0.0265165,0.0268701,-0.0265165,0.0268701,8.522524,-7.965537)"/>
<path style="fill-rule:nonzero;fill:rgb(96.470588%,70.588237%,5.490196%);fill-opacity:1;stroke-width:1.1;stroke-linecap:butt;stroke-linejoin:miter;stroke:rgb(52.156866%,20.392157%,3.921569%);stroke-opacity:1;stroke-miterlimit:4;" d="M 396.803855 251.269335 L 425.315843 313.252777 C 425.315843 313.252777 425.811818 314.472959 426.580959 314.227802 C 427.429826 313.79017 426.933851 312.569988 426.933851 312.569988 L 403.236025 248.634415 M 402.468392 272.783026 C 402.119127 282.222036 407.865508 287.420995 407.170348 295.814738 C 406.475187 304.20848 411.042052 309.031617 412.229817 312.342335 C 413.22764 315.574377 410.996443 317.468914 411.906292 317.958535 C 412.911112 318.487495 414.866767 315.915078 414.276945 311.160798 C 413.647259 306.502755 410.093463 305.143474 410.896466 294.877664 C 411.699468 284.611855 406.690613 282.198872 407.879374 272.882093 " transform="matrix(0.0143506,0.0351074,-0.0346455,0.014542,15.421119,-8.178461)"/>
<path style=" stroke:none;fill-rule:nonzero;fill:rgb(52.156866%,20.392157%,3.921569%);fill-opacity:1;" d="M 12.660156 10.425781 C 12.679688 10.769531 12.871094 10.921875 12.832031 11.238281 C 12.917969 10.988281 12.71875 10.796875 12.730469 10.429688 M 12.441406 9.527344 L 13.171875 11.144531 L 12.558594 9.476562 "/>
<path style=" stroke:none;fill-rule:nonzero;fill:rgb(52.156866%,20.392157%,3.921569%);fill-opacity:1;" d="M 12.296875 10.417969 C 12.1875 10.742188 12.304688 10.957031 12.152344 11.234375 C 12.320312 11.039062 12.210938 10.78125 12.359375 10.449219 M 12.433594 9.5 L 12.5 11.28125 L 12.5625 9.503906 "/>
<path style=" stroke:none;fill-rule:nonzero;fill:rgb(52.156866%,20.392157%,3.921569%);fill-opacity:1;" d="M 11.96875 10.269531 C 11.742188 10.527344 11.769531 10.769531 11.523438 10.96875 C 11.753906 10.851562 11.75 10.570312 12.011719 10.320312 M 12.4375 9.476562 L 11.828125 11.144531 L 12.558594 9.527344 "/>
<path style=" stroke:none;fill-rule:nonzero;fill:rgb(52.156866%,20.392157%,3.921569%);fill-opacity:1;" d="M 11.714844 10.003906 C 11.410156 10.152344 11.347656 10.390625 11.042969 10.476562 C 11.300781 10.460938 11.402344 10.199219 11.738281 10.070312 M 12.453125 9.453125 L 11.257812 10.757812 L 12.542969 9.546875 "/>
<path style="fill-rule:nonzero;fill:rgb(96.470588%,70.588237%,5.490196%);fill-opacity:1;stroke-width:1.1;stroke-linecap:butt;stroke-linejoin:miter;stroke:rgb(52.156866%,20.392157%,3.921569%);stroke-opacity:1;stroke-miterlimit:4;" d="M 396.813331 251.250006 L 425.287838 313.33334 C 425.287838 313.33334 425.801819 314.479174 426.624187 314.166674 C 427.446556 313.750007 426.932575 312.604174 426.932575 312.604174 L 403.186687 248.645839 M 402.467114 272.812506 C 402.05593 282.187506 407.915305 287.39584 407.195733 295.83334 C 406.47616 304.166673 410.999187 308.95834 412.232739 312.291674 C 413.157904 315.625007 410.999187 317.500007 411.924351 318.02084 C 412.849516 318.541674 414.905437 315.937507 414.288661 311.250007 C 413.671884 306.45834 410.074022 305.20834 410.896391 294.89584 C 411.718759 284.58334 406.681753 282.187506 407.915305 272.916673 " transform="matrix(0.000000000000000002,0.038,-0.0375,0.000000000000000002,21.875,-5.7)"/>
<path style="fill-rule:nonzero;fill:rgb(96.470588%,70.588237%,5.490196%);fill-opacity:1;stroke-width:1.1;stroke-linecap:butt;stroke-linejoin:miter;stroke:rgb(52.156866%,20.392157%,3.921569%);stroke-opacity:1;stroke-miterlimit:4;" d="M 396.770991 251.337506 L 425.31055 313.254003 C 425.31055 313.254003 425.828768 314.50509 426.588537 314.190383 C 427.443278 313.836338 426.92506 312.585251 426.92506 312.585251 L 403.189167 248.56626 M 402.522861 272.745082 C 402.08774 282.170749 407.932463 287.41673 407.193684 295.840684 C 406.549876 304.225299 410.991151 309.037865 412.211654 312.25304 C 413.147244 315.586229 411.036759 317.475163 411.925489 318.009033 C 412.90919 318.503564 414.930577 315.862291 414.316265 311.155783 C 413.701954 306.449275 410.086052 305.24105 410.906932 294.866352 C 411.672703 284.627231 406.659226 282.193913 407.918597 272.877828 " transform="matrix(-0.0143506,0.0351074,-0.0346455,-0.014542,26.901622,-0.907476)"/>
<path style="fill-rule:nonzero;fill:rgb(96.470588%,70.588237%,5.490196%);fill-opacity:1;stroke-width:1.1;stroke-linecap:butt;stroke-linejoin:miter;stroke:rgb(52.156866%,20.392157%,3.921569%);stroke-opacity:1;stroke-miterlimit:4;" d="M 396.789148 251.295779 L 425.29633 313.239342 C 425.29633 313.239342 425.816774 314.486664 426.546559 314.198821 C 427.42172 313.765602 426.902245 312.664624 426.902245 312.664624 L 403.209903 248.557872 M 402.492717 272.845285 C 402.115709 282.208441 407.930732 287.441962 407.181564 295.851454 C 406.505083 304.188259 411.000095 308.974023 412.193144 312.347705 C 413.238879 315.574074 410.98362 317.534706 411.864596 317.979555 C 412.965573 318.49903 414.85061 315.877424 414.307874 311.264172 C 413.76417 306.504576 410.096829 305.163244 410.907055 294.924927 C 411.643625 284.612953 406.725084 282.165797 407.907472 272.881144 " transform="matrix(-0.0265165,0.0268701,-0.0265165,-0.0268701,29.735728,5.469491)"/>
<path style="fill-rule:nonzero;fill:rgb(96.470588%,70.588237%,5.490196%);fill-opacity:1;stroke-width:1.1;stroke-linecap:butt;stroke-linejoin:miter;stroke:rgb(52.156866%,20.392157%,3.921569%);stroke-opacity:1;stroke-miterlimit:4;" d="M 396.746189 251.322593 L 425.29481 313.328626 C 425.29481 313.328626 425.806902 314.542133 426.620357 314.211483 C 427.376912 313.745999 426.961058 312.572356 426.961058 312.572356 L 403.15759 248.637532 M 402.490863 272.839806 C 402.091126 282.243076 407.844289 287.407755 407.181834 295.812078 C 406.519379 304.216401 410.982117 308.957834 412.172782 312.34393 C 413.210309 315.55533 411.032663 317.546226 411.859462 317.999963 C 412.878735 318.533425 414.868124 315.908222 414.324434 311.232392 C 413.684506 306.5167 410.045044 305.231716 410.934401 294.918598 C 411.727522 284.565617 406.744952 282.167972 407.897027 272.8538 " transform="matrix(-0.0346455,0.014542,-0.0143506,-0.0351074,29.94585,12.460067)"/>
<path style=" stroke:none;fill-rule:nonzero;fill:rgb(52.156866%,20.392157%,3.921569%);fill-opacity:1;" d="M 11.585938 9.664062 C 11.246094 9.683594 11.097656 9.875 10.785156 9.839844 C 11.03125 9.921875 11.222656 9.71875 11.582031 9.730469 M 12.472656 9.4375 L 10.875 10.179688 L 12.523438 9.5625 "/>
<path style=" stroke:none;fill-rule:nonzero;fill:rgb(52.156866%,20.392157%,3.921569%);fill-opacity:1;" d="M 11.59375 9.296875 C 11.273438 9.183594 11.0625 9.304688 10.789062 9.148438 C 10.984375 9.320312 11.234375 9.207031 11.5625 9.359375 M 12.5 9.433594 L 10.742188 9.5 L 12.496094 9.566406 "/>
<path style=" stroke:none;fill-rule:nonzero;fill:rgb(52.156866%,20.392157%,3.921569%);fill-opacity:1;" d="M 11.738281 8.960938 C 11.488281 8.730469 11.246094 8.761719 11.050781 8.511719 C 11.167969 8.746094 11.441406 8.738281 11.6875 9.003906 M 12.523438 9.4375 L 10.878906 8.816406 L 12.472656 9.558594 "/>
<path style=" stroke:none;fill-rule:nonzero;fill:rgb(52.156866%,20.392157%,3.921569%);fill-opacity:1;" d="M 12 8.707031 C 11.855469 8.398438 11.621094 8.332031 11.535156 8.023438 C 11.554688 8.285156 11.808594 8.386719 11.9375 8.730469 M 12.546875 9.453125 L 11.257812 8.238281 L 12.453125 9.542969 "/>
<path style="fill-rule:nonzero;fill:rgb(96.470588%,70.588237%,5.490196%);fill-opacity:1;stroke-width:1.1;stroke-linecap:butt;stroke-linejoin:miter;stroke:rgb(52.156866%,20.392157%,3.921569%);stroke-opacity:1;stroke-miterlimit:4;" d="M 396.770842 251.336354 L 425.31251 313.322375 C 425.31251 313.322375 425.833343 314.453132 426.56251 314.24754 C 427.395843 313.836356 426.87501 312.602803 426.87501 312.602803 L 403.229176 248.560861 M 402.500009 272.82073 C 402.083342 282.175171 407.916676 287.41777 407.187509 295.847046 C 406.458342 304.173527 411.041676 309.004941 412.187509 312.294415 C 413.229176 315.583889 411.041676 317.537014 411.875009 318.050994 C 412.916676 318.462178 414.895843 315.892277 414.270843 311.163658 C 413.750009 306.537836 410.104176 305.201487 410.937509 294.921882 C 411.666676 284.642276 406.666676 282.175171 407.916676 272.923526 " transform="matrix(-0.0375,0.000000000000000005,-0.000000000000000005,-0.038,27.5,19)"/>
<path style="fill-rule:nonzero;fill:rgb(96.470588%,70.588237%,5.490196%);fill-opacity:1;stroke-width:1.1;stroke-linecap:butt;stroke-linejoin:miter;stroke:rgb(52.156866%,20.392157%,3.921569%);stroke-opacity:1;stroke-miterlimit:4;" d="M 396.824174 251.315476 L 425.311435 313.284791 C 425.311435 313.284791 425.822833 314.519416 426.592733 314.200513 C 427.419532 313.746777 426.947472 312.607123 426.947472 312.607123 L 403.232745 248.549693 M 402.451695 272.79533 C 402.059754 282.192725 407.949936 287.430262 407.221511 295.743112 C 406.532425 304.150933 411.00995 308.972221 412.154979 312.280966 C 413.20377 315.629575 411.055641 317.520749 411.908434 317.94637 C 412.936142 318.522071 414.905139 315.926235 414.289763 311.174178 C 413.713725 306.517092 410.131856 305.21911 410.92209 294.877876 C 411.751662 284.631613 406.674242 282.172858 407.897198 272.876307 " transform="matrix(-0.0346455,-0.014542,0.0143506,-0.0351074,22.770536,24.093644)"/>
<path style="fill-rule:nonzero;fill:rgb(96.470588%,70.588237%,5.490196%);fill-opacity:1;stroke-width:1.1;stroke-linecap:butt;stroke-linejoin:miter;stroke:rgb(52.156866%,20.392157%,3.921569%);stroke-opacity:1;stroke-miterlimit:4;" d="M 396.771703 251.338422 L 425.263378 313.270355 C 425.263378 313.270355 425.767346 314.510894 426.647353 314.212389 C 427.381984 313.768509 426.950704 312.600659 426.950704 312.600659 L 403.155629 248.588885 M 402.483025 272.812333 C 402.128309 282.180335 407.947208 287.409979 407.23293 295.829163 C 406.518651 304.248347 411.023356 309.04768 412.172792 312.259511 C 413.174914 315.618656 410.967144 317.535675 411.914992 318.041582 C 412.936498 318.473832 414.929113 315.899715 414.302059 311.147872 C 413.674037 306.542374 410.097798 305.175843 410.897363 294.926865 C 411.697898 284.531543 406.737684 282.222978 407.896812 272.922818 " transform="matrix(-0.0265165,-0.0268701,0.0265165,-0.0268701,16.477476,26.965537)"/>
<path style="fill-rule:nonzero;fill:rgb(96.470588%,70.588237%,5.490196%);fill-opacity:1;stroke-width:1.1;stroke-linecap:butt;stroke-linejoin:miter;stroke:rgb(52.156866%,20.392157%,3.921569%);stroke-opacity:1;stroke-miterlimit:4;" d="M 396.803855 251.269335 L 425.315843 313.252777 C 425.315843 313.252777 425.811818 314.472959 426.580959 314.227802 C 427.429826 313.79017 426.933851 312.569988 426.933851 312.569988 L 403.236025 248.634415 M 402.468392 272.783026 C 402.119127 282.222036 407.865508 287.420995 407.170348 295.814738 C 406.475187 304.20848 411.042052 309.031617 412.229817 312.342335 C 413.22764 315.574377 410.996443 317.468914 411.906292 317.958535 C 412.911112 318.487495 414.866767 315.915078 414.276945 311.160798 C 413.647259 306.502755 410.093463 305.143474 410.896466 294.877664 C 411.699468 284.611855 406.690613 282.198872 407.879374 272.882093 " transform="matrix(-0.0143506,-0.0351074,0.0346455,-0.014542,9.578881,27.178461)"/>
<path style=" stroke:none;fill-rule:nonzero;fill:rgb(52.156866%,20.392157%,3.921569%);fill-opacity:1;" d="M 12.339844 8.574219 C 12.320312 8.230469 12.128906 8.078125 12.167969 7.761719 C 12.082031 8.011719 12.28125 8.203125 12.269531 8.570312 M 12.558594 9.472656 L 11.828125 7.855469 L 12.441406 9.523438 "/>
<path style=" stroke:none;fill-rule:nonzero;fill:rgb(52.156866%,20.392157%,3.921569%);fill-opacity:1;" d="M 12.703125 8.582031 C 12.8125 8.257812 12.695312 8.042969 12.847656 7.765625 C 12.679688 7.960938 12.789062 8.21875 12.640625 8.550781 M 12.566406 9.5 L 12.5 7.71875 L 12.4375 9.496094 "/>
<path style=" stroke:none;fill-rule:nonzero;fill:rgb(52.156866%,20.392157%,3.921569%);fill-opacity:1;" d="M 13.03125 8.730469 C 13.257812 8.472656 13.230469 8.230469 13.476562 8.03125 C 13.246094 8.148438 13.25 8.429688 12.988281 8.679688 M 12.5625 9.523438 L 13.171875 7.855469 L 12.441406 9.472656 "/>
<path style=" stroke:none;fill-rule:nonzero;fill:rgb(52.156866%,20.392157%,3.921569%);fill-opacity:1;" d="M 13.285156 8.996094 C 13.589844 8.847656 13.652344 8.609375 13.957031 8.523438 C 13.699219 8.539062 13.597656 8.800781 13.261719 8.929688 M 12.546875 9.546875 L 13.742188 8.242188 L 12.457031 9.453125 "/>
<path style="fill-rule:nonzero;fill:rgb(96.470588%,70.588237%,5.490196%);fill-opacity:1;stroke-width:1.1;stroke-linecap:butt;stroke-linejoin:miter;stroke:rgb(52.156866%,20.392157%,3.921569%);stroke-opacity:1;stroke-miterlimit:4;" d="M 396.813331 251.250006 L 425.287838 313.33334 C 425.287838 313.33334 425.801819 314.479174 426.624187 314.166674 C 427.446556 313.750007 426.932575 312.604174 426.932575 312.604174 L 403.186687 248.645839 M 402.467114 272.812506 C 402.05593 282.187506 407.915305 287.39584 407.195733 295.83334 C 406.47616 304.166673 410.999187 308.95834 412.232739 312.291674 C 413.157904 315.625007 410.999187 317.500007 411.924351 318.02084 C 412.849516 318.541674 414.905437 315.937507 414.288661 311.250007 C 413.671884 306.45834 410.074022 305.20834 410.896391 294.89584 C 411.718759 284.58334 406.681753 282.187506 407.915305 272.916673 " transform="matrix(0.000000000000000002,-0.038,0.0375,0.000000000000000002,3.125,24.7)"/>
<path style="fill-rule:nonzero;fill:rgb(96.470588%,70.588237%,5.490196%);fill-opacity:1;stroke-width:1.1;stroke-linecap:butt;stroke-linejoin:miter;stroke:rgb(52.156866%,20.392157%,3.921569%);stroke-opacity:1;stroke-miterlimit:4;" d="M 396.770991 251.337506 L 425.31055 313.254003 C 425.31055 313.254003 425.828768 314.50509 426.588537 314.190383 C 427.443278 313.836338 426.92506 312.585251 426.92506 312.585251 L 403.189167 248.56626 M 402.522861 272.745082 C 402.08774 282.170749 407.932463 287.41673 407.193684 295.840684 C 406.549876 304.225299 410.991151 309.037865 412.211654 312.25304 C 413.147244 315.586229 411.036759 317.475163 411.925489 318.009033 C 412.90919 318.503564 414.930577 315.862291 414.316265 311.155783 C 413.701954 306.449275 410.086052 305.24105 410.906932 294.866352 C 411.672703 284.627231 406.659226 282.193913 407.918597 272.877828 " transform="matrix(0.0143506,-0.0351074,0.0346455,0.014542,-1.901622,19.907476)"/>
<path style="fill-rule:nonzero;fill:rgb(96.470588%,70.588237%,5.490196%);fill-opacity:1;stroke-width:1.1;stroke-linecap:butt;stroke-linejoin:miter;stroke:rgb(52.156866%,20.392157%,3.921569%);stroke-opacity:1;stroke-miterlimit:4;" d="M 396.789148 251.295779 L 425.29633 313.239342 C 425.29633 313.239342 425.816774 314.486664 426.546559 314.198821 C 427.42172 313.765602 426.902245 312.664624 426.902245 312.664624 L 403.209903 248.557872 M 402.492717 272.845285 C 402.115709 282.208441 407.930732 287.441962 407.181564 295.851454 C 406.505083 304.188259 411.000095 308.974023 412.193144 312.347705 C 413.238879 315.574074 410.98362 317.534706 411.864596 317.979555 C 412.965573 318.49903 414.85061 315.877424 414.307874 311.264172 C 413.76417 306.504576 410.096829 305.163244 410.907055 294.924927 C 411.643625 284.612953 406.725084 282.165797 407.907472 272.881144 " transform="matrix(0.0265165,-0.0268701,0.0265165,0.0268701,-4.735728,13.530509)"/>
<path style="fill-rule:nonzero;fill:rgb(96.470588%,70.588237%,5.490196%);fill-opacity:1;stroke-width:1.1;stroke-linecap:butt;stroke-linejoin:miter;stroke:rgb(52.156866%,20.392157%,3.921569%);stroke-opacity:1;stroke-miterlimit:4;" d="M 396.746189 251.322593 L 425.29481 313.328626 C 425.29481 313.328626 425.806902 314.542133 426.620357 314.211483 C 427.376912 313.745999 426.961058 312.572356 426.961058 312.572356 L 403.15759 248.637532 M 402.490863 272.839806 C 402.091126 282.243076 407.844289 287.407755 407.181834 295.812078 C 406.519379 304.216401 410.982117 308.957834 412.172782 312.34393 C 413.210309 315.55533 411.032663 317.546226 411.859462 317.999963 C 412.878735 318.533425 414.868124 315.908222 414.324434 311.232392 C 413.684506 306.5167 410.045044 305.231716 410.934401 294.918598 C 411.727522 284.565617 406.744952 282.167972 407.897027 272.8538 " transform="matrix(0.0346455,-0.014542,0.0143506,0.0351074,-4.94585,6.539933)"/>
<path style=" stroke:none;fill-rule:nonzero;fill:rgb(52.156866%,20.392157%,3.921569%);fill-opacity:1;" d="M 13.414062 9.335938 C 13.753906 9.316406 13.902344 9.125 14.214844 9.160156 C 13.96875 9.078125 13.777344 9.28125 13.417969 9.269531 M 12.527344 9.5625 L 14.125 8.820312 L 12.476562 9.4375 "/>
<path style=" stroke:none;fill-rule:nonzero;fill:rgb(52.156866%,20.392157%,3.921569%);fill-opacity:1;" d="M 13.40625 9.703125 C 13.726562 9.816406 13.9375 9.695312 14.210938 9.851562 C 14.015625 9.679688 13.765625 9.792969 13.4375 9.640625 M 12.5 9.566406 L 14.257812 9.5 L 12.503906 9.433594 "/>
<path style=" stroke:none;fill-rule:nonzero;fill:rgb(52.156866%,20.392157%,3.921569%);fill-opacity:1;" d="M 13.261719 10.039062 C 13.511719 10.269531 13.753906 10.238281 13.949219 10.488281 C 13.832031 10.253906 13.558594 10.261719 13.3125 9.996094 M 12.476562 9.5625 L 14.121094 10.183594 L 12.527344 9.441406 "/>
<path style=" stroke:none;fill-rule:nonzero;fill:rgb(52.156866%,20.392157%,3.921569%);fill-opacity:1;" d="M 13 10.292969 C 13.144531 10.601562 13.378906 10.667969 13.464844 10.976562 C 13.445312 10.714844 13.191406 10.613281 13.0625 10.269531 M 12.453125 9.546875 L 13.742188 10.761719 L 12.546875 9.457031 "/>
<path style="fill-rule:nonzero;fill:rgb(96.470588%,70.588237%,5.490196%);fill-opacity:1;stroke-width:1.4;stroke-linecap:butt;stroke-linejoin:miter;stroke:rgb(52.156866%,20.392157%,3.921569%);stroke-opacity:1;stroke-miterlimit:4;" d="M 346.7 240 C 346.7 225.296053 334.7 213.256579 320 213.256579 C 305.3 213.256579 293.3 225.296053 293.3 240 C 293.3 254.703947 305.3 266.743421 320 266.743421 C 334.7 266.743421 346.7 254.703947 346.7 240 Z M 346.7 240 " transform="matrix(0.0390625,0,0,0.0395833,0,0)"/>
<path style=" stroke:none;fill-rule:nonzero;fill:rgb(51.764709%,20.784314%,6.666667%);fill-opacity:1;" d="M 12.851562 9.273438 C 12.785156 9.273438 12.714844 9.304688 12.675781 9.371094 C 12.753906 9.445312 12.933594 9.449219 13.054688 9.363281 C 13.003906 9.304688 12.929688 9.273438 12.855469 9.273438 Z M 12.851562 9.289062 C 12.921875 9.289062 12.988281 9.320312 12.996094 9.355469 C 12.917969 9.445312 12.789062 9.433594 12.707031 9.371094 C 12.75 9.316406 12.796875 9.289062 12.855469 9.289062 Z M 12.851562 9.289062 "/>
<path style=" stroke:none;fill-rule:nonzero;fill:rgb(52.156866%,20.392157%,3.921569%);fill-opacity:1;" d="M 12.867188 9.222656 C 12.761719 9.222656 12.738281 9.246094 12.691406 9.289062 C 12.644531 9.328125 12.617188 9.320312 12.613281 9.328125 C 12.601562 9.335938 12.613281 9.363281 12.625 9.355469 C 12.644531 9.347656 12.675781 9.328125 12.722656 9.289062 C 12.792969 9.234375 12.820312 9.25 12.867188 9.25 C 13.011719 9.25 13.089844 9.371094 13.105469 9.363281 C 13.125 9.355469 13.027344 9.222656 12.867188 9.222656 "/>
<path style=" stroke:none;fill-rule:nonzero;fill:rgb(52.156866%,20.392157%,3.921569%);fill-opacity:1;" d="M 13.15625 9.273438 C 12.972656 9.113281 12.738281 9.085938 12.609375 9.207031 C 12.578125 9.246094 12.558594 9.292969 12.550781 9.339844 C 12.535156 9.4375 12.5625 9.535156 12.632812 9.636719 L 12.601562 9.65625 C 12.539062 9.53125 12.519531 9.40625 12.539062 9.28125 L 12.5625 9.191406 C 12.738281 9.042969 12.980469 9.03125 13.15625 9.269531 Z M 13.15625 9.273438 "/>
<path style=" stroke:none;fill-rule:nonzero;fill:rgb(52.156866%,20.392157%,3.921569%);fill-opacity:1;" d="M 12.921875 9.355469 C 12.921875 9.3125 12.890625 9.28125 12.851562 9.28125 C 12.8125 9.28125 12.78125 9.3125 12.78125 9.355469 C 12.78125 9.394531 12.8125 9.425781 12.851562 9.425781 C 12.890625 9.425781 12.921875 9.394531 12.921875 9.355469 Z M 12.921875 9.355469 "/>
<path style=" stroke:none;fill-rule:nonzero;fill:rgb(52.156866%,20.392157%,3.921569%);fill-opacity:1;" d="M 13.058594 9.402344 C 12.921875 9.507812 12.785156 9.5 12.707031 9.453125 C 12.628906 9.402344 12.628906 9.386719 12.644531 9.386719 C 12.660156 9.386719 12.675781 9.402344 12.738281 9.4375 C 12.804688 9.46875 12.898438 9.46875 13.058594 9.402344 "/>
<path style=" stroke:none;fill-rule:nonzero;fill:rgb(52.156866%,20.392157%,3.921569%);fill-opacity:1;" d="M 12.34375 9.644531 C 12.3125 9.652344 12.292969 9.679688 12.289062 9.710938 C 12.289062 9.742188 12.304688 9.769531 12.332031 9.78125 C 12.363281 9.792969 12.394531 9.785156 12.414062 9.761719 C 12.441406 9.777344 12.46875 9.785156 12.5 9.785156 L 12.507812 9.785156 C 12.535156 9.785156 12.5625 9.777344 12.597656 9.761719 C 12.609375 9.78125 12.628906 9.789062 12.65625 9.789062 C 12.695312 9.792969 12.730469 9.761719 12.730469 9.722656 C 12.734375 9.683594 12.707031 9.648438 12.667969 9.644531 C 12.6875 9.65625 12.699219 9.671875 12.699219 9.695312 C 12.699219 9.71875 12.679688 9.742188 12.652344 9.742188 C 12.625 9.742188 12.605469 9.71875 12.605469 9.695312 C 12.585938 9.734375 12.546875 9.757812 12.503906 9.761719 C 12.460938 9.757812 12.425781 9.734375 12.40625 9.695312 C 12.402344 9.722656 12.386719 9.738281 12.355469 9.742188 C 12.328125 9.738281 12.3125 9.722656 12.308594 9.695312 C 12.300781 9.652344 12.320312 9.65625 12.339844 9.644531 Z M 12.421875 9.859375 C 12.339844 9.859375 12.304688 9.9375 12.234375 9.984375 C 12.273438 9.96875 12.304688 9.933594 12.363281 9.902344 C 12.421875 9.871094 12.464844 9.910156 12.5 9.910156 C 12.535156 9.910156 12.578125 9.871094 12.636719 9.902344 C 12.6875 9.9375 12.730469 9.964844 12.765625 9.984375 C 12.691406 9.933594 12.660156 9.863281 12.578125 9.863281 C 12.558594 9.863281 12.535156 9.871094 12.5 9.886719 Z M 12.421875 9.859375 "/>
<path style=" stroke:none;fill-rule:nonzero;fill:rgb(52.156866%,20.392157%,3.921569%);fill-opacity:1;" d="M 12.390625 9.960938 C 12.363281 9.960938 12.316406 9.96875 12.257812 9.984375 C 12.402344 9.953125 12.433594 10.003906 12.5 10.003906 C 12.5625 10.003906 12.597656 9.953125 12.738281 9.984375 C 12.582031 9.933594 12.546875 9.96875 12.5 9.96875 C 12.46875 9.96875 12.445312 9.957031 12.390625 9.960938 "/>
<path style=" stroke:none;fill-rule:nonzero;fill:rgb(52.156866%,20.392157%,3.921569%);fill-opacity:1;" d="M 12.265625 9.984375 L 12.234375 9.984375 C 12.402344 10.003906 12.324219 10.101562 12.5 10.101562 C 12.675781 10.101562 12.597656 10.003906 12.765625 9.984375 C 12.589844 9.96875 12.644531 10.074219 12.5 10.074219 C 12.363281 10.074219 12.40625 9.984375 12.265625 9.984375 "/>
<path style=" stroke:none;fill-rule:nonzero;fill:rgb(52.156866%,20.392157%,3.921569%);fill-opacity:1;" d="M 12.644531 10.25 C 12.644531 10.167969 12.578125 10.101562 12.5 10.101562 C 12.421875 10.101562 12.355469 10.167969 12.355469 10.25 C 12.371094 10.179688 12.429688 10.132812 12.5 10.132812 C 12.570312 10.132812 12.628906 10.179688 12.644531 10.25 "/>
<path style=" stroke:none;fill-rule:nonzero;fill:rgb(52.156866%,20.392157%,3.921569%);fill-opacity:1;" d="M 11.851562 9.273438 C 12.035156 9.113281 12.269531 9.085938 12.398438 9.207031 C 12.429688 9.246094 12.449219 9.292969 12.457031 9.339844 C 12.472656 9.4375 12.445312 9.535156 12.375 9.636719 L 12.40625 9.65625 C 12.46875 9.53125 12.488281 9.40625 12.46875 9.28125 L 12.445312 9.191406 C 12.269531 9.042969 12.027344 9.03125 11.851562 9.269531 Z M 11.851562 9.273438 "/>
<path style=" stroke:none;fill-rule:nonzero;fill:rgb(52.156866%,20.392157%,3.921569%);fill-opacity:1;" d="M 12.140625 9.222656 C 12.246094 9.222656 12.269531 9.246094 12.316406 9.289062 C 12.363281 9.328125 12.390625 9.320312 12.394531 9.328125 C 12.40625 9.335938 12.394531 9.363281 12.382812 9.355469 C 12.363281 9.347656 12.332031 9.328125 12.285156 9.289062 C 12.214844 9.234375 12.1875 9.25 12.140625 9.25 C 11.996094 9.25 11.917969 9.371094 11.902344 9.363281 C 11.882812 9.355469 11.980469 9.222656 12.140625 9.222656 "/>
<path style=" stroke:none;fill-rule:nonzero;fill:rgb(51.764709%,20.784314%,6.666667%);fill-opacity:1;" d="M 12.132812 9.273438 C 12.066406 9.273438 11.996094 9.304688 11.957031 9.371094 C 12.035156 9.445312 12.214844 9.449219 12.335938 9.363281 C 12.285156 9.304688 12.210938 9.273438 12.136719 9.273438 Z M 12.132812 9.289062 C 12.203125 9.289062 12.269531 9.320312 12.277344 9.355469 C 12.199219 9.445312 12.070312 9.433594 11.988281 9.371094 C 12.03125 9.316406 12.078125 9.289062 12.136719 9.289062 Z M 12.132812 9.289062 "/>
<path style=" stroke:none;fill-rule:nonzero;fill:rgb(52.156866%,20.392157%,3.921569%);fill-opacity:1;" d="M 12.214844 9.355469 C 12.214844 9.3125 12.183594 9.28125 12.144531 9.28125 C 12.105469 9.28125 12.074219 9.3125 12.074219 9.355469 C 12.074219 9.394531 12.105469 9.425781 12.144531 9.425781 C 12.183594 9.425781 12.214844 9.394531 12.214844 9.355469 Z M 12.214844 9.355469 "/>
<path style=" stroke:none;fill-rule:nonzero;fill:rgb(52.156866%,20.392157%,3.921569%);fill-opacity:1;" d="M 11.949219 9.402344 C 12.085938 9.507812 12.222656 9.5 12.300781 9.453125 C 12.378906 9.402344 12.378906 9.386719 12.363281 9.386719 C 12.347656 9.386719 12.332031 9.402344 12.269531 9.4375 C 12.203125 9.46875 12.109375 9.46875 11.949219 9.402344 "/>
</g>
</svg>
