<svg xmlns="http://www.w3.org/2000/svg" width="25" height="px" viewBox="0 0 25 19"><path d="M0 0h25v19H0z" style="fill:#006233;fill-opacity:1;stroke:none"/><path d="M1071.93 2779.581c-25.857 39.08-7.152 64.438 19.53 66.228 17.603 1.193 54.187-25.06 53.912-55.786l-9.902-5.668c5.501 15.81-.275 20.882-12.103 31.622-23.38 21.18-71.517 22.97-51.437-36.396Zm0 0" style="fill-rule:evenodd;fill:#fff;fill-opacity:1;stroke-width:.4;stroke-linecap:butt;stroke-linejoin:miter;stroke:#fff;stroke-opacity:1;stroke-miterlimit:4" transform="matrix(.0142 0 0 .0131 -5.078 -26.556)"/><path d="M1277.128 2881.607c145.785 4.176 192.271-136.929 102.325-257.748l-9.078 13.424c6.052 56.084 14.304 111.572 15.129 169.446-17.604 20.584-43.185 12.827-48.411-10.143.275-31.026-9.903-57.576-22.556-82.635l-7.427 13.126c8.527 20.883 17.605 44.152 19.53 69.509-41.535 50.117-87.746 60.26-70.417-5.37-33.008 57.277 16.78 97.849 73.168 9.248 12.103 60.559 58.864 22.97 61.614 10.143 5.227-39.677 2.476-103.517-7.701-153.933 40.71 70.403 42.085 121.118 20.354 154.828-23.93 37.886-76.193 55.487-126.53 70.105Zm0 0" style="fill-rule:evenodd;fill:#fff;fill-opacity:1;stroke-width:1;stroke-linecap:butt;stroke-linejoin:miter;stroke:#fff;stroke-opacity:1;stroke-miterlimit:4" transform="matrix(.0142 0 0 .0131 -5.078 -26.556)"/><path d="M1359.923 2722.304c-31.357 2.088-47.311-4.176-30.257-27.445 16.504-22.374 32.182-4.475 36.308 25.655 4.126 28.34-54.738 64.437-75.092 64.437-30.533 0-44.836-39.378-16.504-74.878-36.309 103.517 78.668 43.555 85.545 12.231Zm-21.73-24.164c-3.576 0-6.602 6.563-4.676 7.756 5.501 3.879 14.303 1.492 15.128-.298 1.926-4.176-4.95-7.16-10.452-7.458Zm0 0" style="fill-rule:evenodd;fill:#fff;fill-opacity:1;stroke-width:1;stroke-linecap:butt;stroke-linejoin:miter;stroke:#fff;stroke-opacity:1;stroke-miterlimit:4" transform="matrix(.0142 0 0 .0131 -5.078 -26.556)"/><path d="M1190.483 2771.229c-29.982 58.769 0 83.23 38.509 76.37 22.28-3.879 50.612-19.988 67.116-41.467.275-48.03-.275-95.462-4.676-141.702 15.128-17.9-1.1-17.6-6.877-36.992-2.75 11.337-9.077 23.27-2.75 31.92q6.6 70.255 6.601 142.3c-30.257 24.461-53.088 33.411-69.316 33.113-33.283-.299-40.71-28.34-28.607-63.542Zm0 0" style="fill-rule:evenodd;fill:#fff;fill-opacity:1;stroke-width:1;stroke-linecap:butt;stroke-linejoin:miter;stroke:#fff;stroke-opacity:1;stroke-miterlimit:4" transform="matrix(.0142 0 0 .0131 -5.078 -26.556)"/><path d="M1251.822 2786.741c-.55-44.45-1.1-95.164-5.226-126.19 15.679-17.302-.825-17.6-5.776-36.99-3.026 11.037-9.628 22.97-3.851 31.92 2.475 47.432 4.95 95.163 5.501 142.596 3.576-2.088 7.702-2.983 9.352-11.336Zm0 0" style="fill-rule:evenodd;fill:#fff;fill-opacity:1;stroke-width:1;stroke-linecap:butt;stroke-linejoin:miter;stroke:#fff;stroke-opacity:1;stroke-miterlimit:4" transform="matrix(.0142 0 0 .0131 -5.078 -26.556)"/><path d="M1135.47 2784.653c-3.851-4.773-6.602-10.143-9.628-14.916-.55-6.861 3.851-12.828 4.676-16.408 4.952 8.055 7.977 14.021 12.103 17.9m5.502 2.983c7.426 2.983 16.504 2.983 25.03 3.281 32.733.597 67.392-4.773 63.54 39.677-1.925 34.605-30.532 61.454-65.19 61.752-41.535-.298-77.293-46.24-12.928-130.962 6.327-1.194 14.304.596 20.905 1.193 11.553.895 23.38-.298 36.859-11.038-1.65-27.744-1.65-54.294-4.951-79.353-5.777-8.95.825-20.882 3.85-31.92 4.952 19.39 21.456 19.689 5.777 37.29 3.85 27.743 4.126 56.382 4.126 73.386-7.702 11.933-13.753 24.463-36.584 29.236-23.38-3.282-33.833-36.097-58.039-25.06 6.602-29.533 68.217-36.096 74.543-13.125-4.126 24.462-61.89 14.617-77.018 92.777-4.676 24.164 20.63 46.24 46.761 44.45 25.581-1.492 52.813-19.39 55.288-49.223 2.2-24.76-33.008-21.777-47.586-21.479-21.455.298-34.933-2.983-42.91-7.458m21.73-53.996c3.85-3.58 17.054-6.264 22.005-.298-3.576 2.386-7.152 5.071-9.902 8.055-5.227-2.685-8.527-5.072-12.103-7.757Zm0 0" style="fill-rule:evenodd;fill:#fff;fill-opacity:1;stroke-width:.4;stroke-linecap:butt;stroke-linejoin:miter;stroke:#fff;stroke-opacity:1;stroke-miterlimit:4" transform="matrix(.0142 0 0 .0131 -5.078 -26.556)"/><path d="M1194.059 2651.006c3.3 6.264 4.95 13.722 5.226 20.882-2.2 10.441-11.003 19.987-20.355 20.286-5.501.298-12.103-1.194-16.504-10.143-.55-1.193-3.026-3.878-5.226-2.387-10.178 16.408-17.604 23.568-26.682 23.27-18.154-.299-12.928-16.408-29.707-21.48-6.876 0-18.429 6.862-24.205 20.883-22.556 63.542-42.91-.299-34.108-29.832 1.1 28.34 7.976 45.046 15.128 44.748 4.951-.597 9.352-12.53 15.954-24.76 4.951-9.547 17.054-26.551 29.707-26.551 11.553.298 4.401 21.479 27.507 21.18 11.277-.298 21.455-8.95 31.907-25.953 2.2-.597 3.026 3.58 3.3 5.07 1.651 5.967 11.829 22.077 25.582 7.16-.55-2.983-.275-8.352-3.85-9.546Zm0 0" style="fill-rule:evenodd;fill:#fff;fill-opacity:1;stroke-width:1;stroke-linecap:butt;stroke-linejoin:miter;stroke:#fff;stroke-opacity:1;stroke-miterlimit:4" transform="matrix(.0142 0 0 .0131 -5.078 -26.556)"/><path d="M1266.95 2598.203c-12.377 6.265-21.454.597-26.405-4.773 8.802-1.79 15.678-5.072 17.879-11.933-4.126-8.95-13.753-13.126-26.957-13.126-17.879.597-27.231 7.756-28.331 17.6 8.252.3 15.954-2.087 18.98 5.967-14.58 7.16-31.908 9.845-50.613 9.845-30.807 1.491-35.483-12.53-43.46-24.462-.55-.895-3.3-2.089-4.676-2.089-9.628 0-16.504 33.412-27.232 33.114-10.727-1.492-8.252-21.48-11.552-32.815-2.476 17.899 3.3 84.424 36.583 12.23.825-2.386 2.2-1.79 3.301.3 8.802 20.285 26.956 27.146 46.486 28.34 16.229.894 37.134-6.265 59.414-18.795 5.777 6.265 10.453 13.723 22.83 15.215 14.58.596 29.983-9.845 33.559-22.673 1.925-6.861 2.2-19.987-4.952-20.285-9.902-.299-17.054 23.865-14.853 45.344.275-.298 1.375-5.37 1.375-5.37m-43.735-28.937c6.326-2.983 12.653-4.176 17.604 2.387-3.026.895-5.776 2.088-8.252 3.878-2.75-2.088-6.602-3.281-9.352-6.265Zm47.586 14.916c1.65-7.16 2.75-12.827 8.527-16.407 1.1 7.458 1.375 11.634-8.527 16.407Zm39.06 11.038c-1.926-5.966-3.852-11.336-4.402-17.899-1.375-13.424 10.178-21.18 20.63-19.987 10.728 1.193 17.604 5.071 28.057 8.65 7.977 2.686 18.704 4.774 28.882 7.757 5.776 2.387 0 9.248-1.376 10.143-25.856 10.143-44.01 26.252-60.514 26.849-9.627.597-18.43-5.966-26.406-19.093-.55-25.357-1.376-55.189-3.851-73.685 3.85-3.878 4.676-6.563 6.326-9.844 1.926 24.76 2.751 50.714 3.301 76.966 2.2 4.475 4.676 8.353 9.352 10.143Zm16.503 2.089c-13.753 3.878-12.103-7.757-13.203-14.916-1.65-8.652-.55-17.9 10.178-15.513 13.753 3.58 26.406 8.353 38.784 13.723Zm0 0" style="fill-rule:evenodd;fill:#fff;fill-opacity:1;stroke-width:.4;stroke-linecap:butt;stroke-linejoin:miter;stroke:#fff;stroke-opacity:1;stroke-miterlimit:4" transform="matrix(.0142 0 0 .0131 -5.078 -26.556)"/><path d="m1314.262 2621.174 1.926 9.546h1.375l-.55-8.95" style="fill-rule:evenodd;fill:#fff;fill-opacity:1;stroke-width:.4;stroke-linecap:butt;stroke-linejoin:miter;stroke:#fff;stroke-opacity:1;stroke-miterlimit:4" transform="matrix(.0142 0 0 .0131 -5.078 -26.556)"/><path d="m1094.21 2718.426 6.876-7.16 8.252 6.862-7.426 6.861Zm17.88-2.387 6.876-7.16 8.252 6.862-7.427 6.861Zm-49.513-74.58 7.152-7.16 7.977 6.862-7.427 6.861Zm3.026 21.181 7.152-7.16 7.977 6.862-7.427 6.861Zm128.73 35.5 6.327-5.37 6.052 6.563-6.877 4.774Zm-85.82-135.735 4.401-4.475 5.502 4.475-4.952 4.176Zm11.553-1.492 4.676-4.773 5.226 4.773-4.95 4.177Zm245.633 53.698-4.4 3.878-4.127-4.475 4.401-3.282Zm0 0" style="fill-rule:evenodd;fill:#fff;fill-opacity:1;stroke-width:4;stroke-linecap:round;stroke-linejoin:round;stroke:#fff;stroke-opacity:1;stroke-miterlimit:4" transform="matrix(.0142 0 0 .0131 -5.078 -26.556)"/><path d="m1158.575 2747.363-.275 8.055 12.378 1.193 10.177-7.756Zm0 0" style="fill-rule:evenodd;fill:#fff;fill-opacity:1;stroke-width:.4;stroke-linecap:butt;stroke-linejoin:miter;stroke:#fff;stroke-opacity:1;stroke-miterlimit:4" transform="matrix(.0142 0 0 .0131 -5.078 -26.556)"/><path d="m1265.3 2599.695 3.576-.597-.275 10.143-2.475.895Zm0 0" style="fill-rule:evenodd;fill:#fff;fill-opacity:1;stroke-width:1;stroke-linecap:butt;stroke-linejoin:miter;stroke:#fff;stroke-opacity:1;stroke-miterlimit:4" transform="matrix(.0142 0 0 .0131 -5.078 -26.556)"/><path d="M12.5 12.918c2.016 0 3.656-1.516 3.656-3.375a3.25 3.25 0 0 0-1.273-2.547c.48.512.75 1.191.75 1.899 0 1.613-1.403 2.925-3.133 2.925s-3.133-1.312-3.133-2.93c0-.722.281-1.39.75-1.898a3.26 3.26 0 0 0-1.273 2.555c0 1.855 1.64 3.371 3.656 3.371" style="stroke:none;fill-rule:nonzero;fill:#fff;fill-opacity:1"/><path d="M-54.14 1622.943c-87.816 43.92-197.8 31.9-290.732-27.74-4.263-2.312-5.968.925-2.131 12.02 9.805 28.665 17.904 51.781-11.936 94.778-13.215 18.955 2.131 22.192 23.872 19.88 112.115-11.096 222.1-36.062 274.96-56.866Zm-1.704 52.243c-34.957 13.87-95.064 30.976-161.992 42.996-27.283 3.7-26.004 20.805 21.74 26.816 49.025 5.085 112.116-30.052 150.056-61.028Zm0 0" style="fill-rule:nonzero;fill:#fff;fill-opacity:1;stroke-width:8;stroke-linecap:butt;stroke-linejoin:miter;stroke:#000;stroke-opacity:1;stroke-miterlimit:4" transform="matrix(.00916 0 0 .00845 12.5 1.08)"/><path d="M0 1579.021c11.936 0 34.104-5.085 55.844-7.86 41.351-6.934 11.084 55.943-55.844 55.943v20.804c68.207 0 138.972-73.972 124.051-106.798-20.888-48.082-78.864-6.935-124.051-6.935s-103.163-41.147-124.051 6.935c-14.92 32.826 55.844 106.798 124.051 106.798v-20.804c-66.928 0-97.195-62.877-55.844-55.942 21.74 2.774 43.908 7.86 55.844 7.86Zm0 0" style="fill-rule:nonzero;fill:#fff;fill-opacity:1;stroke-width:8;stroke-linecap:butt;stroke-linejoin:miter;stroke:#000;stroke-opacity:1;stroke-miterlimit:4" transform="matrix(.00916 0 0 .00845 12.5 1.08)"/><path d="M54.14 1622.943c87.816 43.92 197.8 31.9 290.732-27.74 4.263-2.312 5.968.925 2.131 12.02-9.805 28.665-17.904 51.781 11.936 94.778 13.215 18.955-2.131 22.192-23.872 19.88-112.115-11.096-222.1-36.062-274.96-56.866Zm1.704 52.243c34.957 13.87 94.211 30.976 161.992 42.996 27.283 3.7 26.004 20.805-21.74 26.816-49.025 5.085-112.116-30.052-150.056-61.028Zm0 0" style="fill-rule:nonzero;fill:#fff;fill-opacity:1;stroke-width:8;stroke-linecap:butt;stroke-linejoin:miter;stroke:#000;stroke-opacity:1;stroke-miterlimit:4" transform="matrix(.00916 0 0 .00845 12.5 1.08)"/><path d="M2.984 1665.015c2.132 17.106 5.116 54.092 28.135 37.91 30.694-20.804 37.94-36.986 37.94-67.037 0-18.956-23.02-46.695-69.059-46.695s-69.06 27.74-69.06 46.695c0 30.051 7.247 46.233 37.94 67.038 23.02 16.181 25.152-20.805 28.136-37.911.853-6.01 5.968-4.161 5.968 0ZM-28.988 383.9c-13.215-73.973-121.92-79.058-138.972-91.079-20.036-12.945-17.052 0-10.23 20.342 20.035 51.781 88.242 73.048 119.361 79.059 24.725 3.698 32.825 5.548 29.841-8.322Zm0 0" style="fill-rule:nonzero;fill:#fff;fill-opacity:1;stroke-width:8;stroke-linecap:butt;stroke-linejoin:miter;stroke:#000;stroke-opacity:1;stroke-miterlimit:4" transform="matrix(.00916 0 0 .00845 12.5 1.08)"/><path d="M3.837 386.211c11.083-76.284-96.77-112.346-109.984-128.99-14.92-18.03-17.052-7.397-9.805 13.87 12.789 44.846 60.108 98.014 87.817 111.884 23.02 12.02 30.266 17.106 31.972 3.236Zm0 0" style="fill-rule:nonzero;fill:#fff;fill-opacity:1;stroke-width:8;stroke-linecap:butt;stroke-linejoin:miter;stroke:#000;stroke-opacity:1;stroke-miterlimit:4" transform="matrix(.00916 0 0 .00845 12.5 1.08)"/><path d="M92.932 430.133C103.163 339.053 14.92 325.184-8.1 296.057c-14.92-18.03-15.772-7.86-11.083 12.945 10.23 45.771 54.14 99.864 80.996 116.97 21.314 12.945 30.266 18.03 31.12 4.16Zm0 0" style="fill-rule:nonzero;fill:#fff;fill-opacity:1;stroke-width:8;stroke-linecap:butt;stroke-linejoin:miter;stroke:#000;stroke-opacity:1;stroke-miterlimit:4" transform="matrix(.00916 0 0 .00845 12.5 1.08)"/><path d="M66.076 409.79C-25.151 351.074-89.095 383.9-115.1 381.126c-24.725-3.236-32.825 12.945 10.23 36.986 52.861 28.665 127.036 24.966 156.024 13.87 29.84-12.02 20.889-18.03 14.92-22.192Zm136.84 40.223c-27.71-98.014-92.932-81.832-112.115-93.853-18.757-12.02-20.889-9.247-16.626 12.945 7.673 38.836 75.028 81.833 107.852 94.778 11.937 4.16 26.857 10.171 20.889-13.87Zm0 0" style="fill-rule:nonzero;fill:#fff;fill-opacity:1;stroke-width:8;stroke-linecap:butt;stroke-linejoin:miter;stroke:#000;stroke-opacity:1;stroke-miterlimit:4" transform="matrix(.00916 0 0 .00845 12.5 1.08)"/><path d="M190.127 467.12c-78.012-63.34-138.972-16.182-163.27-23.117-17.905-5.086-9.805 6.935-2.985 12.02 50.303 35.137 112.116 54.093 160.287 31.901 18.757-7.86 20.036-9.709 5.968-20.805Zm168.812 63.8c.853-61.952-127.035-87.842-153.892-125.753-16.199-23.116-29.84-11.096-22.167 25.89 11.936 48.083 100.18 100.788 147.924 110.96 28.988 6.01 28.135-4.161 28.135-11.096Zm0 0" style="fill-rule:nonzero;fill:#fff;fill-opacity:1;stroke-width:8;stroke-linecap:butt;stroke-linejoin:miter;stroke:#000;stroke-opacity:1;stroke-miterlimit:4" transform="matrix(.00916 0 0 .00845 12.5 1.08)"/><path d="M355.103 542.017c-80.996-73.049-149.203-49.007-173.928-55.942-25.151-6.01-35.383 8.784 3.837 38.835 48.17 36.062 121.92 42.997 153.039 36.062 31.12-6.935 23.02-13.87 17.052-18.956Zm144.94 106.798c-23.02-105.874-95.916-127.603-114.247-147.946-16.626-19.88-34.956-13.87-19.61 34.213C384.091 591.948 442.92 641.88 474.04 653.9c29.84 12.945 28.135 3.237 26.004-5.085Zm0 0" style="fill-rule:nonzero;fill:#fff;fill-opacity:1;stroke-width:8;stroke-linecap:butt;stroke-linejoin:miter;stroke:#000;stroke-opacity:1;stroke-miterlimit:4" transform="matrix(.00916 0 0 .00845 12.5 1.08)"/><path d="M499.19 663.147c-59.255-95.24-135.988-92.004-160.286-104.949-23.02-14.332-38.793-2.312-8.1 38.836 36.235 49.931 109.984 78.133 144.087 79.983 34.104 1.849 28.136-6.935 24.3-13.87Zm0 0" style="fill-rule:nonzero;fill:#fff;fill-opacity:1;stroke-width:8;stroke-linecap:butt;stroke-linejoin:miter;stroke:#000;stroke-opacity:1;stroke-miterlimit:4" transform="matrix(.00916 0 0 .00845 12.5 1.08)"/><path d="M575.07 775.955c34.104-108.185-43.908-147.945-52.007-165.976-8.953-18.03-17.905-18.03-23.02.925-22.168 77.209 49.023 152.106 60.107 166.9 10.657 14.333 12.789 7.398 14.92-1.849Zm0 0" style="fill-rule:nonzero;fill:#fff;fill-opacity:1;stroke-width:8;stroke-linecap:butt;stroke-linejoin:miter;stroke:#000;stroke-opacity:1;stroke-miterlimit:4" transform="matrix(.00916 0 0 .00845 12.5 1.08)"/><path d="M558.871 806.007c-26.856-121.13-98.047-114.196-113.82-130.84-17.052-17.106-19.183-5.085-16.2 16.644 8.1 59.178 79.291 99.401 111.263 119.281 9.805 6.01 21.741 12.945 18.757-5.085Zm68.207 141.935c49.024-113.733-8.952-190.942-27.283-208.049-17.904-15.719-28.988-23.116-22.593 0 7.673 35.138-20.036 125.292 22.593 190.943 14.068 22.191 16.2 42.996 27.283 17.106Zm0 0" style="fill-rule:nonzero;fill:#fff;fill-opacity:1;stroke-width:8;stroke-linecap:butt;stroke-linejoin:miter;stroke:#000;stroke-opacity:1;stroke-miterlimit:4" transform="matrix(.00916 0 0 .00845 12.5 1.08)"/><path d="M601.074 971.058c11.084-70.274-28.988-134.075-72.043-159.041-25.152-14.795-26.004-11.096-26.004 10.171 2.131 64.726 63.091 118.819 80.996 148.87 17.051 27.74 15.772 6.935 17.051 0Zm0 0" style="fill-rule:nonzero;fill:#fff;fill-opacity:1;stroke-width:8;stroke-linecap:butt;stroke-linejoin:miter;stroke:#000;stroke-opacity:1;stroke-miterlimit:4" transform="matrix(.00916 0 0 .00845 12.5 1.08)"/><path d="M589.99 1153.216c-35.808-132.226 39.22-208.048 61.813-223.305 22.168-15.72 36.235-21.73 26.004 3.236-14.92 36.987 1.279 139.624-55.844 204.812-17.905 22.192-25.152 44.846-31.972 15.257Zm0 0" style="fill-rule:nonzero;fill:#fff;fill-opacity:1;stroke-width:8;stroke-linecap:butt;stroke-linejoin:miter;stroke:#000;stroke-opacity:1;stroke-miterlimit:4" transform="matrix(.00916 0 0 .00845 12.5 1.08)"/><path d="M598.09 1124.09c29.84-115.12-34.956-180.31-54.992-193.254-19.183-12.946-31.12-18.031-22.167 3.236 11.936 31.9-.853 122.055 49.024 177.997 16.199 18.955 22.167 37.91 28.135 12.02Zm0 0" style="fill-rule:nonzero;fill:#fff;fill-opacity:1;stroke-width:8;stroke-linecap:butt;stroke-linejoin:miter;stroke:#000;stroke-opacity:1;stroke-miterlimit:4" transform="matrix(.00916 0 0 .00845 12.5 1.08)"/><path d="M561.003 1069.997c-54.14 57.79-54.992 142.86-31.12 192.791 14.92 29.127 17.052 27.277 31.12 6.01 37.94-61.027 14.92-148.87 17.051-187.705.853-36.987-11.083-17.107-17.051-11.096Zm0 0" style="fill-rule:nonzero;fill:#fff;fill-opacity:1;stroke-width:8;stroke-linecap:butt;stroke-linejoin:miter;stroke:#000;stroke-opacity:1;stroke-miterlimit:4" transform="matrix(.00916 0 0 .00845 12.5 1.08)"/><path d="M650.098 1162c0 79.983-49.024 145.172-101.032 165.052-30.266 11.096-30.266 7.86-26.003-16.182 14.067-89.692 83.127-122.98 107.852-151.644 23.872-28.202 19.183-5.085 19.183 2.774Zm0 0" style="fill-rule:nonzero;fill:#fff;fill-opacity:1;stroke-width:8;stroke-linecap:butt;stroke-linejoin:miter;stroke:#000;stroke-opacity:1;stroke-miterlimit:4" transform="matrix(.00916 0 0 .00845 12.5 1.08)"/><path d="M463.808 1400.1c88.242-79.983 41.35-135.925 45.187-188.168 2.131-27.74-8.952-20.805-19.183-11.096-55.845 55.017-58.829 153.03-46.893 190.942 5.116 17.106 13.215 15.257 20.889 8.322Zm0 0" style="fill-rule:nonzero;fill:#fff;fill-opacity:1;stroke-width:8;stroke-linecap:butt;stroke-linejoin:miter;stroke:#000;stroke-opacity:1;stroke-miterlimit:4" transform="matrix(.00916 0 0 .00845 12.5 1.08)"/><path d="M581.891 1347.857c-28.988 88.305-105.72 141.935-170.944 145.171-37.94 1.85-37.087-.925-23.872-26.815 49.024-94.315 135.988-105.411 174.78-128.99 36.235-22.192 23.02 1.85 20.036 10.634Zm0 0" style="fill-rule:nonzero;fill:#fff;fill-opacity:1;stroke-width:8;stroke-linecap:butt;stroke-linejoin:miter;stroke:#000;stroke-opacity:1;stroke-miterlimit:4" transform="matrix(.00916 0 0 .00845 12.5 1.08)"/><path d="M343.167 1512.908c113.82-56.866 90.8-152.106 111.688-175.685 15.347-17.106-2.984-15.257-11.936-9.247-66.928 38.836-121.067 101.25-121.92 166.901 0 24.966 2.132 28.202 22.168 18.031Zm0 0" style="fill-rule:nonzero;fill:#fff;fill-opacity:1;stroke-width:8;stroke-linecap:butt;stroke-linejoin:miter;stroke:#000;stroke-opacity:1;stroke-miterlimit:4" transform="matrix(.00916 0 0 .00845 12.5 1.08)"/><path d="M187.143 1618.782c143.661 23.116 211.015-85.994 252.792-95.703 22.167-5.085 5.968-13.87-5.115-15.256-95.916-10.634-217.836 34.212-254.924 84.144-14.92 19.88-14.92 24.04 7.247 26.815Zm0 0" style="fill-rule:nonzero;fill:#fff;fill-opacity:1;stroke-width:8;stroke-linecap:butt;stroke-linejoin:miter;stroke:#000;stroke-opacity:1;stroke-miterlimit:4" transform="matrix(.00916 0 0 .00845 12.5 1.08)"/><path d="M332.935 1448.182c-28.988 94.778-136.84 172.911-217.836 178.922-37.94 2.774-37.94-.925-24.298-25.89 65.223-118.357 178.19-138.237 218.262-168.289 34.104-25.89 26.857 6.01 23.872 15.257ZM28.988 383.9c13.215-73.973 121.92-79.058 138.972-91.079 20.036-12.945 17.052 0 10.23 20.342-20.035 51.781-88.242 73.048-119.361 79.059-24.725 3.698-32.825 5.548-29.841-8.322Zm0 0" style="fill-rule:nonzero;fill:#fff;fill-opacity:1;stroke-width:8;stroke-linecap:butt;stroke-linejoin:miter;stroke:#000;stroke-opacity:1;stroke-miterlimit:4" transform="matrix(.00916 0 0 .00845 12.5 1.08)"/><path d="M-3.837 386.211c-11.083-76.284 96.77-112.346 109.984-128.99 14.92-18.03 17.052-7.397 9.805 13.87-12.789 44.846-60.108 98.014-87.817 111.884-23.02 12.02-30.266 17.106-31.972 3.236Zm0 0" style="fill-rule:nonzero;fill:#fff;fill-opacity:1;stroke-width:8;stroke-linecap:butt;stroke-linejoin:miter;stroke:#000;stroke-opacity:1;stroke-miterlimit:4" transform="matrix(.00916 0 0 .00845 12.5 1.08)"/><path d="M-92.932 430.133C-103.163 339.053-14.92 325.184 8.1 296.057c14.92-18.03 15.772-7.86 11.083 12.945-10.23 45.771-54.14 99.864-80.996 116.97-21.314 12.945-30.266 18.03-31.12 4.16Zm0 0" style="fill-rule:nonzero;fill:#fff;fill-opacity:1;stroke-width:8;stroke-linecap:butt;stroke-linejoin:miter;stroke:#000;stroke-opacity:1;stroke-miterlimit:4" transform="matrix(.00916 0 0 .00845 12.5 1.08)"/><path d="M-66.076 409.79C25.151 351.074 89.095 383.9 115.1 381.126c24.725-3.236 32.825 12.945-10.23 36.986-52.861 28.665-127.036 24.966-156.024 13.87-29.84-12.02-20.889-18.03-14.92-22.192Zm-136.84 40.223c27.71-98.014 92.932-81.832 112.115-93.853 18.757-12.02 20.889-9.247 16.626 12.945-7.673 38.836-75.028 81.833-107.852 94.778-11.937 4.16-26.857 10.171-20.889-13.87Zm0 0" style="fill-rule:nonzero;fill:#fff;fill-opacity:1;stroke-width:8;stroke-linecap:butt;stroke-linejoin:miter;stroke:#000;stroke-opacity:1;stroke-miterlimit:4" transform="matrix(.00916 0 0 .00845 12.5 1.08)"/><path d="M-190.127 467.12c78.012-63.34 138.972-16.182 163.27-23.117 17.905-5.086 9.805 6.935 2.985 12.02-50.303 35.137-112.116 54.093-160.287 31.901-18.757-7.86-20.036-9.709-5.968-20.805Zm-168.812 63.8c-.853-61.952 127.035-87.842 153.892-125.753 16.199-23.116 29.84-11.096 22.167 25.89-11.936 48.083-100.18 100.788-147.924 110.96-28.988 6.01-28.135-4.161-28.135-11.096Zm0 0" style="fill-rule:nonzero;fill:#fff;fill-opacity:1;stroke-width:8;stroke-linecap:butt;stroke-linejoin:miter;stroke:#000;stroke-opacity:1;stroke-miterlimit:4" transform="matrix(.00916 0 0 .00845 12.5 1.08)"/><path d="M-355.103 542.017c80.996-73.049 149.203-49.007 173.928-55.942 25.151-6.01 35.383 8.784-3.837 38.835-48.17 36.062-121.92 42.997-153.039 36.062-31.12-6.935-23.02-13.87-17.052-18.956Zm-144.94 106.798c23.02-105.874 95.916-127.603 114.247-147.946 16.626-19.88 34.956-13.87 19.61 34.213C-384.091 591.948-442.92 641.88-474.04 653.9c-29.84 12.945-28.135 3.237-26.004-5.085Zm0 0" style="fill-rule:nonzero;fill:#fff;fill-opacity:1;stroke-width:8;stroke-linecap:butt;stroke-linejoin:miter;stroke:#000;stroke-opacity:1;stroke-miterlimit:4" transform="matrix(.00916 0 0 .00845 12.5 1.08)"/><path d="M-499.19 663.147c59.255-95.24 135.988-92.004 160.286-104.949 23.02-14.332 38.793-2.312 8.1 38.836-36.235 49.931-109.984 78.133-144.087 79.983-34.104 1.849-28.136-6.935-24.3-13.87Zm0 0" style="fill-rule:nonzero;fill:#fff;fill-opacity:1;stroke-width:8;stroke-linecap:butt;stroke-linejoin:miter;stroke:#000;stroke-opacity:1;stroke-miterlimit:4" transform="matrix(.00916 0 0 .00845 12.5 1.08)"/><path d="M-575.07 775.955c-34.104-108.185 43.908-147.945 52.007-165.976 8.953-18.03 17.905-18.03 23.02.925 22.168 77.209-49.023 152.106-60.107 166.9-10.657 14.333-12.789 7.398-14.92-1.849Zm0 0" style="fill-rule:nonzero;fill:#fff;fill-opacity:1;stroke-width:8;stroke-linecap:butt;stroke-linejoin:miter;stroke:#000;stroke-opacity:1;stroke-miterlimit:4" transform="matrix(.00916 0 0 .00845 12.5 1.08)"/><path d="M-558.871 806.007c26.856-121.13 98.047-114.196 113.82-130.84 17.052-17.106 19.183-5.085 16.2 16.644-8.1 59.178-79.291 99.401-111.263 119.281-9.805 6.01-21.741 12.945-18.757-5.085Zm-68.207 141.935c-49.024-113.733 8.952-190.942 27.283-208.049 17.904-15.719 28.988-23.116 22.593 0-7.673 35.138 20.036 125.292-22.593 190.943-14.068 22.191-16.2 42.996-27.283 17.106Zm0 0" style="fill-rule:nonzero;fill:#fff;fill-opacity:1;stroke-width:8;stroke-linecap:butt;stroke-linejoin:miter;stroke:#000;stroke-opacity:1;stroke-miterlimit:4" transform="matrix(.00916 0 0 .00845 12.5 1.08)"/><path d="M-601.074 971.058c-11.084-70.274 28.988-134.075 72.043-159.041 25.152-14.795 26.004-11.096 26.004 10.171-2.131 64.726-63.091 118.819-80.996 148.87-17.051 27.74-15.772 6.935-17.051 0Zm0 0" style="fill-rule:nonzero;fill:#fff;fill-opacity:1;stroke-width:8;stroke-linecap:butt;stroke-linejoin:miter;stroke:#000;stroke-opacity:1;stroke-miterlimit:4" transform="matrix(.00916 0 0 .00845 12.5 1.08)"/><path d="M-589.99 1153.216c35.808-132.226-39.22-208.048-61.813-223.305-22.168-15.72-36.235-21.73-26.004 3.236 14.92 36.987-1.279 139.624 55.844 204.812 17.905 22.192 23.873 44.846 31.972 15.257Zm0 0" style="fill-rule:nonzero;fill:#fff;fill-opacity:1;stroke-width:8;stroke-linecap:butt;stroke-linejoin:miter;stroke:#000;stroke-opacity:1;stroke-miterlimit:4" transform="matrix(.00916 0 0 .00845 12.5 1.08)"/><path d="M-598.09 1124.09c-29.84-115.12 34.956-180.31 54.992-193.254 19.183-12.946 31.12-18.031 22.167 3.236-11.936 31.9.853 122.055-49.024 177.997-16.199 18.955-22.167 37.91-28.135 12.02Zm0 0" style="fill-rule:nonzero;fill:#fff;fill-opacity:1;stroke-width:8;stroke-linecap:butt;stroke-linejoin:miter;stroke:#000;stroke-opacity:1;stroke-miterlimit:4" transform="matrix(.00916 0 0 .00845 12.5 1.08)"/><path d="M-561.003 1069.997c54.14 57.79 54.992 142.86 31.12 192.791-14.92 29.127-17.052 27.277-31.12 6.01-37.94-61.027-14.92-148.87-17.051-187.705-.853-36.987 11.083-17.107 17.051-11.096Zm0 0" style="fill-rule:nonzero;fill:#fff;fill-opacity:1;stroke-width:8;stroke-linecap:butt;stroke-linejoin:miter;stroke:#000;stroke-opacity:1;stroke-miterlimit:4" transform="matrix(.00916 0 0 .00845 12.5 1.08)"/><path d="M-650.098 1162c0 79.983 49.024 145.172 101.032 165.052 30.266 11.096 30.266 7.86 26.003-16.182-14.067-89.692-83.127-122.98-107.852-151.644-23.872-28.202-19.183-5.085-19.183 2.774Zm0 0" style="fill-rule:nonzero;fill:#fff;fill-opacity:1;stroke-width:8;stroke-linecap:butt;stroke-linejoin:miter;stroke:#000;stroke-opacity:1;stroke-miterlimit:4" transform="matrix(.00916 0 0 .00845 12.5 1.08)"/><path d="M-463.808 1400.1c-88.242-79.983-41.35-135.925-45.187-188.168-2.131-27.74 8.952-20.805 19.183-11.096 55.845 55.017 58.829 153.03 46.893 190.942-5.116 17.106-13.215 15.257-20.889 8.322Zm0 0" style="fill-rule:nonzero;fill:#fff;fill-opacity:1;stroke-width:8;stroke-linecap:butt;stroke-linejoin:miter;stroke:#000;stroke-opacity:1;stroke-miterlimit:4" transform="matrix(.00916 0 0 .00845 12.5 1.08)"/><path d="M-581.891 1347.857c28.988 88.305 105.72 141.935 170.944 145.171 37.94 1.85 37.087-.925 23.872-26.815-49.024-94.315-135.988-105.411-174.78-128.99-36.235-22.192-23.02 1.85-20.036 10.634Zm0 0" style="fill-rule:nonzero;fill:#fff;fill-opacity:1;stroke-width:8;stroke-linecap:butt;stroke-linejoin:miter;stroke:#000;stroke-opacity:1;stroke-miterlimit:4" transform="matrix(.00916 0 0 .00845 12.5 1.08)"/><path d="M-343.167 1512.908c-113.82-56.866-90.8-152.106-111.688-175.685-15.347-17.106 2.984-15.257 11.936-9.247 66.928 38.836 121.067 101.25 121.92 166.901 0 24.966-2.132 28.202-22.168 18.031Zm0 0" style="fill-rule:nonzero;fill:#fff;fill-opacity:1;stroke-width:8;stroke-linecap:butt;stroke-linejoin:miter;stroke:#000;stroke-opacity:1;stroke-miterlimit:4" transform="matrix(.00916 0 0 .00845 12.5 1.08)"/><path d="M-187.143 1618.782c-143.661 23.116-211.015-85.994-252.792-95.703-22.167-5.085-5.968-13.87 5.115-15.256 95.916-10.634 217.836 34.212 254.924 84.144 14.92 19.88 14.92 24.04-7.247 26.815Zm0 0" style="fill-rule:nonzero;fill:#fff;fill-opacity:1;stroke-width:8;stroke-linecap:butt;stroke-linejoin:miter;stroke:#000;stroke-opacity:1;stroke-miterlimit:4" transform="matrix(.00916 0 0 .00845 12.5 1.08)"/><path d="M-332.935 1448.182c28.988 94.778 136.84 172.911 217.836 178.922 37.94 2.774 37.94-.925 24.298-25.89-65.223-118.357-178.19-138.237-218.262-168.289-34.104-25.89-26.857 6.01-23.872 15.257Zm0 0" style="fill-rule:nonzero;fill:#fff;fill-opacity:1;stroke-width:8;stroke-linecap:butt;stroke-linejoin:miter;stroke:#000;stroke-opacity:1;stroke-miterlimit:4" transform="matrix(.00916 0 0 .00845 12.5 1.08)"/><path d="M14.047 5.102c-.172-.118-.813-.051-.934-.13.23.176.742.051.938.13Zm1.55.3c-.136-.226-.952-.379-1.074-.582.215.39.844.336 1.075.582m-.118.262c-.304-.27-1.007-.156-1.222-.316.496.41.77.09 1.219.316Zm-1.77-1.2c.192.095.43.188.548.407-.137-.168-.383-.234-.586-.379a.1.1 0 0 0 .039-.027m3.008 1.742c-.121-.254-.547-.531-.582-.625.117.328.468.406.578.625Zm.105.445c-.367-.527-.941-.472-1.172-.672.176.196.836.317 1.172.672m.852.82c.027-.566-.43-.773-.446-1.097-.011.383.47.895.446 1.098m-.227.304c-.094-.488-.715-.523-.824-.812 0 .27.73.55.82.812Zm.512-.277c.332.375.102.938.238 1.352-.164-.305-.082-1.067-.234-1.352Zm-.54 1.586c.493.492.294 1.039.493 1.277-.246-.328-.21-.968-.492-1.273Zm1.028.07c-.426.43-.168 1.078-.39 1.387.25-.262.214-1.07.39-1.387m-.535 0c-.055-.5-.559-.761-.602-1.031-.058.27.485.695.602 1.031m-.254 1.188c.078.347-.223 1.094-.129 1.32-.203-.394.172-1.148.13-1.316Zm.649.797c-.2.617-.606.574-.73.949.089-.356.624-.68.73-.95M17 11.427c-.266.418-.047.886-.266 1.183.313-.296.145-.843.266-1.183m.64 1.133c-.32.55-.98.5-1.245.894.265-.496 1.082-.582 1.25-.894Zm-1.163-.067c-.567.363-.391.746-.825 1.149.54-.403.496-.852.825-1.149m-.266 1.473c-.547-.02-1.336.64-1.813.59.477.093 1.356-.5 1.813-.594Zm-.887-.594c-.039.516-1.469.848-1.62 1.191.171-.453 1.429-.792 1.62-1.187Zm-3.234-9.5c-.184-.144-.406-.266-.469-.406.047.183.227.316.41.445.02-.008.04-.035.059-.043Zm-.313.149c-.285-.13-.613-.122-.761-.293.093.171.402.238.668.336a.3.3 0 0 1 .093-.04Zm-.824 1.078c.172-.118.813-.047.934-.125-.23.175-.742.05-.938.125Zm-1.55.304c.136-.226.952-.379 1.074-.582-.211.39-.844.336-1.075.582m.118.262c.304-.27 1.011-.156 1.222-.316-.496.41-.77.09-1.219.316Zm1.222-.793c.172-.34.664-.379.797-.586-.195.305-.613.36-.797.586m1.406-.297c.508-.215 1.004-.031 1.243-.133-.293.141-.993.075-1.239.133ZM8.285 6.207c.117-.254.54-.535.578-.625-.117.328-.468.406-.578.625m-.11.445c.368-.527.942-.472 1.173-.672-.172.196-.832.317-1.172.672m-.852.82c-.027-.566.43-.773.45-1.097.007.383-.47.895-.45 1.098m.227.304c.094-.488.715-.523.824-.812 0 .27-.73.55-.82.812ZM7.039 7.5c-.328.375-.101.934-.234 1.352.16-.305.078-1.067.234-1.352m.54 1.586c-.493.492-.294 1.039-.493 1.277.246-.328.21-.968.492-1.273Zm-1.024.07c.422.43.164 1.078.383 1.387-.247-.262-.211-1.07-.383-1.387m.53 0c.056-.5.56-.761.603-1.031.058.27-.485.695-.602 1.031m.254 1.188c-.078.347.223 1.094.129 1.32.203-.394-.172-1.148-.13-1.316Zm-.649.797c.204.617.606.574.735.949-.094-.356-.625-.68-.735-.95M8 11.427c.266.418.047.886.266 1.183-.313-.296-.145-.843-.266-1.183m-.64 1.133c.32.55.98.5 1.25.894-.27-.496-1.087-.582-1.25-.894m1.163-.067c.567.363.395.746.825 1.149-.54-.403-.493-.852-.825-1.149m.266 1.469c.547-.016 1.34.644 1.813.594-.473.09-1.356-.5-1.813-.594m.89-.594c.036.52 1.466.848 1.622 1.195-.176-.453-1.43-.792-1.625-1.19Zm2.079-8.777c.11-.453.664-.535.734-.809-.027.29-.68.61-.734.809m1.62-1.13c-.077.349-.675.54-.757.802.027-.356.64-.555.758-.801m-.469.82c.285-.422.871-.316 1.074-.554-.148.285-.87.293-1.074.55Zm0 0" style="stroke:none;fill-rule:nonzero;fill:#006233;fill-opacity:1"/><path d="M429.8 240c0 55.46-49.3 100.362-110.3 100.362-60.9 0-110.3-44.901-110.3-100.263 0-55.46 49.4-100.362 110.3-100.362 61 0 110.3 45 110.3 100.362Zm0 0" style="fill:none;stroke-width:1.8;stroke-linecap:round;stroke-linejoin:round;stroke:#f7c608;stroke-opacity:1;stroke-miterlimit:4" transform="scale(.03906 .03958)"/><path d="m11.64 13.477-.019.05q-.018.048-.082.047l-.312-.078.101-.305.313.07q.057.013.039.071l-.008.04m-.742-.192.015-.047c.012-.035.04-.051.078-.04l.305.098-.098.305a2.4 2.4 0 0 1-.308-.09c-.031-.015-.04-.078-.027-.113" style="stroke:none;fill-rule:nonzero;fill:#f7c608;fill-opacity:1"/><path d="m11.578 13.45-.012.034q-.018.042-.066.036l-.258-.067.07-.219c.094.028.192.047.258.059q.052.012.04.055l-.008.027m-.618-.156.012-.043q.017-.03.063-.024.109.042.254.082l-.07.22-.255-.075c-.027-.016-.039-.059-.027-.082" style="stroke:none;fill-rule:nonzero;fill:#006233;fill-opacity:1"/><path d="m10.457 13.094-.027.039c-.024.031-.055.043-.094.027-.078-.047-.184-.098-.274-.152l.188-.27.277.145q.049.034.02.082l-.024.039m-.652-.379.027-.043c.028-.031.055-.035.09-.02q.11.083.262.176l-.191.27-.262-.168c-.027-.027-.016-.09 0-.117" style="stroke:none;fill-rule:nonzero;fill:#f7c608;fill-opacity:1"/><path d="m10.41 13.05-.023.032q-.023.03-.075.012c-.062-.04-.148-.078-.226-.125l.137-.196c.078.051.168.094.23.122q.038.024.02.066l-.02.023m-.539-.312.02-.031q.03-.037.07-.008l.219.14-.137.196a3 3 0 0 1-.219-.14c-.023-.02-.02-.067-.004-.087" style="stroke:none;fill-rule:nonzero;fill:#006233;fill-opacity:1"/><path d="m9.445 12.418-.039.031a.1.1 0 0 1-.101 0c-.059-.062-.145-.14-.215-.219l.262-.21c.078.085.164.16.222.214.028.028.024.055-.004.079l-.035.035m-.508-.532.04-.035q.046-.034.09.008c.062.082.124.16.195.238l-.262.203a3 3 0 0 1-.203-.23c-.02-.031.011-.086.039-.11" style="stroke:none;fill-rule:nonzero;fill:#f7c608;fill-opacity:1"/><path d="m9.41 12.367-.031.024q-.032.021-.074-.008l-.18-.184.191-.148.184.176q.03.041 0 .066l-.027.02m-.422-.442.027-.023q.04-.023.07.007.07.089.168.2l-.191.144-.168-.191c-.016-.024.004-.067.023-.082" style="stroke:none;fill-rule:nonzero;fill:#006233;fill-opacity:1"/><path d="m8.68 11.508-.051.02a.09.09 0 0 1-.094-.024l-.14-.27.316-.132c.05.101.105.199.148.261q.02.053-.03.082l-.04.016m-.328-.645.047-.023q.057-.014.086.031c.035.098.074.188.117.278l-.313.132a3 3 0 0 1-.128-.27c-.008-.038.039-.081.074-.097" style="stroke:none;fill-rule:nonzero;fill:#f7c608;fill-opacity:1"/><path d="m8.66 11.45-.035.01q-.04.013-.07-.023l-.117-.222.226-.098.125.219c.012.031.004.055-.02.062l-.03.012m-.274-.531.039-.012q.04-.018.062.024l.098.226-.223.098-.105-.227c-.008-.027.023-.062.047-.074" style="stroke:none;fill-rule:nonzero;fill:#006233;fill-opacity:1"/><path d="m8.223 10.43-.055.008a.07.07 0 0 1-.078-.047l-.059-.293.344-.043q.025.147.066.289-.002.053-.054.066l-.047.008m-.117-.7.054-.007q.06-.006.07.047.006.127.028.297l-.344.043-.039-.293c.008-.035.067-.067.102-.07" style="stroke:none;fill-rule:nonzero;fill:#f7c608;fill-opacity:1"/><path d="m8.223 10.371-.04.004c-.027.004-.046-.012-.058-.04l-.043-.245.246-.031.05.242q.006.042-.038.054l-.031.004m-.098-.582.039-.007q.046 0 .05.043.009.111.028.246l-.246.03a2 2 0 0 1-.031-.241c0-.028.043-.055.07-.059" style="stroke:none;fill-rule:nonzero;fill:#006233;fill-opacity:1"/><path d="m8.113 9.281-.054-.008Q8 9.267 7.996 9.207c.012-.078.02-.191.04-.293l.339.047a3 3 0 0 0-.027.293q-.012.058-.07.05l-.048-.007m.102-.7.055.005c.035.011.054.03.054.066q-.041.147-.066.293l-.344-.047q.024-.152.055-.293c.016-.031.082-.047.117-.039" style="stroke:none;fill-rule:nonzero;fill:#f7c608;fill-opacity:1"/><path d="M8.133 9.223h-.04c-.027-.012-.038-.032-.042-.059l.031-.242.246.031-.023.246q-.007.043-.055.04h-.031m.082-.59.039.007c.027.008.043.024.039.055a3 3 0 0 0-.05.238l-.247-.027.043-.246c.012-.028.059-.04.086-.04" style="stroke:none;fill-rule:nonzero;fill:#006233;fill-opacity:1"/><path d="m8.36 8.152-.051-.023q-.052-.02-.04-.078c.04-.078.079-.18.126-.274l.312.137q-.064.133-.117.277-.025.041-.078.028l-.047-.02m.312-.652.051.027q.05.022.031.078a3 3 0 0 0-.148.262l-.316-.137q.065-.14.14-.265c.024-.028.094-.028.125-.012" style="stroke:none;fill-rule:nonzero;fill:#f7c608;fill-opacity:1"/><path d="m8.398 8.102-.039-.016c-.023-.008-.03-.04-.023-.063l.101-.226.227.098-.098.226q-.022.04-.062.024l-.031-.012m.261-.535.036.015c.027.008.03.032.02.063l-.126.219-.223-.098q.054-.124.118-.219c.015-.027.066-.031.09-.02" style="stroke:none;fill-rule:nonzero;fill:#006233;fill-opacity:1"/><path d="m8.941 7.133-.043-.035q-.039-.038-.015-.086c.062-.067.133-.157.203-.23l.266.21q-.103.112-.196.235a.07.07 0 0 1-.094 0l-.035-.024m.5-.543.04.035c.03.024.035.055.007.086l-.222.211-.266-.21c.074-.079.144-.153.219-.22.03-.019.097 0 .125.02" style="stroke:none;fill-rule:nonzero;fill:#f7c608;fill-opacity:1"/><path d="m8.992 7.094-.031-.024q-.029-.03-.004-.066l.168-.195.188.148-.165.2q-.03.033-.07.007l-.023-.02m.414-.449.031.024c.02.015.02.039 0 .062l-.187.18-.188-.149c.059-.07.121-.128.18-.183.027-.02.078-.008.093.008" style="stroke:none;fill-rule:nonzero;fill:#006233;fill-opacity:1"/><path d="m9.805 6.3-.028-.038c-.02-.032-.011-.063.016-.09.078-.043.172-.113.266-.168l.187.27q-.134.082-.262.175a.09.09 0 0 1-.086-.015l-.027-.04m.645-.39.027.039q.031.057-.016.086a3 3 0 0 0-.28.144l-.188-.27q.136-.087.273-.151c.04-.008.094.027.113.054" style="stroke:none;fill-rule:nonzero;fill:#f7c608;fill-opacity:1"/><path d="m9.871 6.277-.023-.027c-.012-.027-.004-.047.015-.066.067-.047.14-.09.223-.141l.133.191-.215.145q-.04.03-.07-.012l-.02-.023m.535-.324.024.03c.011.024.004.048-.02.063l-.234.121-.133-.191.226-.129c.032-.008.075.016.09.035" style="stroke:none;fill-rule:nonzero;fill:#006233;fill-opacity:1"/><path d="m10.898 5.734-.02-.05c-.003-.036.009-.059.04-.079l.309-.09.097.305a3 3 0 0 0-.304.102q-.054.013-.079-.04l-.011-.038m.734-.215.016.05q.013.054-.04.071l-.316.07-.097-.304q.153-.048.312-.082c.035 0 .078.05.09.082" style="stroke:none;fill-rule:nonzero;fill:#f7c608;fill-opacity:1"/><path d="m10.96 5.727-.01-.04q-.006-.03.038-.054l.254-.078.07.218-.253.082q-.046.012-.063-.023l-.012-.027m.614-.176.011.035q.013.042-.039.055-.117.021-.258.054l-.07-.214.258-.063c.031-.008.063.031.07.055" style="stroke:none;fill-rule:nonzero;fill:#006233;fill-opacity:1"/><path d="M12.11 5.469v-.051q.006-.051.066-.066l.32-.008v.32c-.105 0-.215.004-.32.016q-.064 0-.063-.059v-.039m.77-.008v.047q-.004.053-.067.059l-.32-.016v-.32q.169.001.32.008c.04.007.067.066.067.101" style="stroke:none;fill-rule:nonzero;fill:#f7c608;fill-opacity:1"/><path d="M12.18 5.48v-.039q-.001-.035.05-.046l.27-.004v.23a3 3 0 0 0-.27.012q-.044-.005-.05-.04V5.56m.636-.004v.035q.001.04-.05.039L12.5 5.62v-.23l.266.004c.03.007.05.046.05.074" style="stroke:none;fill-rule:nonzero;fill:#006233;fill-opacity:1"/><path d="m13.281 5.527.012-.05q.018-.048.082-.047l.313.074-.098.309-.313-.067q-.053-.017-.043-.074l.012-.04m.742.188-.015.047q-.02.054-.078.04l-.305-.095.098-.308q.158.036.304.09c.031.015.04.078.031.11" style="stroke:none;fill-rule:nonzero;fill:#f7c608;fill-opacity:1"/><path d="m13.34 5.555.008-.035q.018-.042.066-.036l.258.063-.067.219-.261-.055q-.043-.012-.04-.055l.012-.027m.618.156-.012.035q-.017.037-.063.028l-.254-.082.067-.22q.135.035.258.075c.027.012.039.059.027.078" style="stroke:none;fill-rule:nonzero;fill:#006233;fill-opacity:1"/><path d="m14.46 5.902.028-.039c.024-.031.055-.043.094-.027.078.043.184.094.277.148l-.183.274a4 4 0 0 0-.285-.14c-.032-.024-.04-.056-.02-.087l.027-.039m.657.375-.032.043a.08.08 0 0 1-.085.02l-.262-.172.183-.274c.098.055.184.11.266.168.027.024.016.086-.004.118" style="stroke:none;fill-rule:nonzero;fill:#f7c608;fill-opacity:1"/><path d="m14.512 5.945.02-.03q.022-.029.073-.017a8 8 0 0 1 .227.125l-.133.2-.234-.121q-.04-.028-.016-.067l.016-.027m.547.312-.024.032q-.023.033-.07.007l-.219-.14.133-.196.223.137c.023.024.02.067.004.09" style="stroke:none;fill-rule:nonzero;fill:#006233;fill-opacity:1"/><path d="m15.48 6.57.04-.035q.045-.03.097 0l.219.219-.258.207c-.07-.07-.148-.14-.226-.207-.028-.027-.024-.055.003-.082l.036-.031m.515.527-.039.035a.076.076 0 0 1-.094-.008 3 3 0 0 0-.195-.234l.262-.207q.11.116.203.226c.016.032-.012.09-.04.11" style="stroke:none;fill-rule:nonzero;fill:#f7c608;fill-opacity:1"/><path d="m15.516 6.621.027-.023q.03-.019.078.004c.05.054.113.117.18.183l-.188.149-.187-.176q-.03-.038 0-.063l.027-.023m.43.437-.031.028q-.036.021-.07-.008l-.169-.195.188-.149.172.184c.015.031-.004.074-.024.09" style="stroke:none;fill-rule:nonzero;fill:#006233;fill-opacity:1"/><path d="m16.254 7.477.05-.024c.036-.012.067 0 .094.027l.145.262-.316.14a1.5 1.5 0 0 0-.157-.26q-.017-.053.035-.083l.04-.02m.335.641-.05.024a.06.06 0 0 1-.082-.032 2 2 0 0 0-.121-.273l.312-.137.129.274c.008.035-.04.078-.07.093" style="stroke:none;fill-rule:nonzero;fill:#f7c608;fill-opacity:1"/><path d="m16.273 7.535.036-.015q.04-.012.07.023l.117.219-.226.097-.125-.214q-.017-.04.02-.063l.03-.016m.274.536-.032.011c-.027.012-.046.004-.066-.023-.027-.067-.058-.145-.101-.23l.226-.098.11.226c.003.032-.028.067-.051.078" style="stroke:none;fill-rule:nonzero;fill:#006233;fill-opacity:1"/><path d="m16.719 8.547.054-.008a.08.08 0 0 1 .082.047l.06.289-.345.05a2 2 0 0 0-.066-.288q-.005-.054.055-.067l.043-.008m.125.7-.055.008q-.06.006-.07-.051l-.032-.293.344-.051q.022.154.04.297c0 .035-.063.066-.099.07" style="stroke:none;fill-rule:nonzero;fill:#f7c608;fill-opacity:1"/><path d="m16.719 8.605.039-.003q.041-.002.058.039.024.112.047.242l-.246.039-.05-.246q-.008-.046.038-.051l.032-.008m.101.582-.039.008q-.042 0-.054-.039l-.028-.25.246-.035q.03.129.035.246c0 .027-.043.055-.07.059" style="stroke:none;fill-rule:nonzero;fill:#006233;fill-opacity:1"/><path d="m16.84 9.695.055.004q.06.012.066.07l-.035.293-.344-.042c.016-.11.023-.22.023-.297.004-.032.04-.055.075-.047l.043.004m-.094.703-.055-.008q-.06-.007-.054-.066.04-.124.062-.29l.344.04a5 5 0 0 1-.051.293c-.016.035-.082.05-.117.046" style="stroke:none;fill-rule:nonzero;fill:#f7c608;fill-opacity:1"/><path d="M16.82 9.754h.04a.07.07 0 0 1 .046.059l-.031.246-.246-.032.023-.246q.005-.042.051-.043h.035m-.078.59-.039-.004c-.027-.008-.043-.023-.039-.054.02-.075.035-.153.047-.243l.246.032-.04.238c-.01.031-.062.047-.085.039" style="stroke:none;fill-rule:nonzero;fill:#006233;fill-opacity:1"/><path d="m16.605 10.824.051.024q.052.024.04.078l-.118.277-.32-.133q.065-.133.117-.277.025-.046.078-.031l.047.015m-.309.657-.046-.024q-.053-.024-.036-.078.074-.11.149-.262l.316.133-.137.266c-.023.027-.093.027-.128.011" style="stroke:none;fill-rule:nonzero;fill:#f7c608;fill-opacity:1"/><path d="m16.57 10.879.04.012q.029.018.023.066l-.102.227-.23-.094.097-.227q.023-.04.063-.035l.031.02m-.254.535-.039-.012q-.04-.023-.015-.062l.117-.22.23.095-.117.218c-.02.024-.07.032-.094.016" style="stroke:none;fill-rule:nonzero;fill:#006233;fill-opacity:1"/><path d="m16.035 11.852.043.03q.04.043.016.09c-.063.067-.133.153-.203.231l-.266-.21c.078-.079.148-.169.195-.235.028-.024.055-.028.09-.004l.035.027m-.492.547-.039-.035q-.046-.034-.012-.082c.067-.059.141-.129.223-.219l.266.211-.215.223c-.031.02-.098 0-.125-.024" style="stroke:none;fill-rule:nonzero;fill:#f7c608;fill-opacity:1"/><path d="m15.984 11.89.032.024q.029.025.004.066l-.168.192-.192-.145q.1-.11.164-.199.036-.033.07-.008l.024.02m-.406.453-.032-.023q-.03-.025 0-.067l.18-.176.195.145c-.062.07-.125.129-.183.187-.024.016-.07.004-.094-.011" style="stroke:none;fill-rule:nonzero;fill:#006233;fill-opacity:1"/><path d="m15.176 12.688.027.039c.02.035.016.062-.012.09l-.261.171-.196-.27q.134-.081.262-.175a.09.09 0 0 1 .086.016l.027.035m-.64.398-.028-.039q-.03-.053.016-.09l.281-.144.188.27-.274.156c-.035.007-.09-.028-.113-.055" style="stroke:none;fill-rule:nonzero;fill:#f7c608;fill-opacity:1"/><path d="m15.113 12.71.02.032q.019.03-.016.067l-.219.14-.136-.191.218-.149c.028-.015.047-.011.067.012l.02.027m-.532.329-.023-.032q-.017-.036.02-.066l.234-.121.132.191c-.078.047-.152.094-.226.13-.027.01-.074-.013-.086-.032" style="stroke:none;fill-rule:nonzero;fill:#006233;fill-opacity:1"/><path d="m14.094 13.266.015.046q.013.054-.039.079l-.304.097-.102-.308q.154-.043.3-.102.06-.007.079.04l.016.038m-.735.219-.015-.05q-.013-.06.039-.071.141-.024.312-.074l.106.308a5 5 0 0 1-.313.082c-.039 0-.078-.05-.09-.082" style="stroke:none;fill-rule:nonzero;fill:#f7c608;fill-opacity:1"/><path d="m14.023 13.273.016.036q.007.04-.039.058l-.25.078-.074-.218.25-.082c.035-.008.054 0 .066.023l.008.027m-.61.18-.011-.035q-.007-.042.039-.055l.258-.058.074.218-.258.067c-.031 0-.066-.035-.078-.059" style="stroke:none;fill-rule:nonzero;fill:#006233;fill-opacity:1"/><path d="M12.879 13.54v.05q-.005.053-.063.066c-.093 0-.21.012-.32.012l-.004-.32q.16-.001.32-.02.064 0 .063.059v.039m-.766.015v-.046q0-.053.063-.06c.09.005.2.009.32.013v.32l-.32-.004c-.035-.008-.063-.066-.063-.101" style="stroke:none;fill-rule:nonzero;fill:#f7c608;fill-opacity:1"/><path d="M12.813 13.531v.035q-.004.036-.055.047l-.266.008v-.226q.157-.005.266-.016.047 0 .055.039v.031m-.641.012v-.04q-.001-.033.05-.038.119.013.27.008v.23h-.265c-.032-.008-.055-.05-.055-.074" style="stroke:none;fill-rule:nonzero;fill:#006233;fill-opacity:1"/></svg>