<svg xmlns="http://www.w3.org/2000/svg" width="25" height="px" viewBox="0 0 25 19"><path d="M0 0h25v19H0z" style="fill:#006;fill-opacity:1;stroke:none"/><path d="m-.023 9.5 25-9.5v19Zm0 0" style="stroke:none;fill-rule:nonzero;fill:#bd1021;fill-opacity:1"/><path d="m2.332 9.5 22.656-8.484v16.968" style="stroke:none;fill-rule:nonzero;fill:#fff;fill-opacity:1"/><path d="M18.516 10.703c.199.012.195.215.195.215l.703.016c.09-.25.188-.223.36-.094q.157.105.34.164c.066-.356.566-.285.566-.285.218-.516.234-.512.105-.574a.46.46 0 0 1-.18-.176 1.1 1.1 0 0 1-.195-.492c-.015-.133-.164.062-.195.023-.024-.04-.246-.016-.246-.016.054.059-.133.024-.133.024.02.015 0 .066 0 .066-.016-.023-.16-.047-.16-.047l-.043.063c-.078-.031-.235-.027-.235-.027a.8.8 0 0 0-.425.113c-.063.035-.29.148-.48.336-.184.18-.29.156-.29.156-.055.207-.5.457-.5.457-.07.063-.297.094-.41 0-.113-.098 0-.273 0-.273.047-.079.086-.075.09-.356.004-.187.195-.336.39-.555.247-.27.586-.714.586-.714 0 .136.07.16.07.16.067-.14.165-.25.165-.25q.012.016.02.015a2 2 0 0 1 .116-.14c-.02-.012-.234 0-.43.172-.195.175-.327.12-.327.12-.137-.05-.149-.16-.149-.16-.097-.43.29-.738.29-.738-.524-.129-.145-.804.507-1.09.652-.285.64-.414.64-.414q.042.053.071.118c.004 0 .055-.075.43-.243s.554-.316.554-.316c.047.094.04.16.04.16 1.027-.363 2.03-1.195 2.03-1.195.032.066.02.172.02.172.164-.157.77-.524.77-.524a.36.36 0 0 1-.18.328l.031.09q.288-.18.563-.375c.168.145.015.387.015.387.063-.012.102-.063.102-.063.047.25-.23.473-.23.473.05 0 .128-.05.128-.05-.05.277-.562.577-.562.577.074.07 0 .16-.063.2-.058.039-.168.129-.132.164.035.035.261-.125.261-.125.04.113-.254.34-.254.34.204.027.766-.235.766-.235-.043.223-.258.399-.52.496-.261.098-.25.117-.25.117.047.032.41-.07.41-.07-.109.246-.488.414-.488.414.106.094.247-.015.391-.113q.26-.165.547-.254c.207-.074.36-.02.36-.02a.47.47 0 0 1 .327.024c.34.027.375.156.375.156.04.008.067.024.157.09.082.063.078.262.078.363-.008.098-.035.098-.051.121a.3.3 0 0 0-.02.098c0 .04-.085.273-.613.273h-.793a.24.24 0 0 0-.097.028c-.223.11-.106-.078-.368.14-.261.223-.398.184-.398.184a3.5 3.5 0 0 1-.48.414c-.157.106-.13.094.011.152.14.059.344 0 .344 0-.133.09-.04.133-.04.133.173-.105.282-.066.282-.066.055.156-.148.398-.148.398.078.012.226 0 .226 0a.5.5 0 0 1-.289.25c-.105.043-.09.055-.054.121.027.063.003.13.003.13-.187-.13-.195-.016-.195-.016-.02.16-.015.379-.015.379-.133-.067-.137.023-.137.023-.04.14-.2.305-.2.305-.007-.09-.085-.114-.085-.114-.086.168-.239.266-.239.266-.02.14.02.34.02.34-.102-.024-.137-.024-.156 0-.012.027.023.039.023.039l1.305.031c.02 0 .097.012.097.153 0 .144-.117.152-.117.152l-1.422-.035s.004.039-.07.082c-.074.039-.047-.047-.066.133s-.305-.016-.305-.016a1 1 0 0 1-.156.16c-.067-.2-.133-.254-.235-.09-.101.168.188.145.188.145s1.672-.25 1.762-.258.19-.004.234.121c.043.129-.207.152-.207.152l-1.719.188c-.035.105-.176.098-.176.098.012.097-.09.156-.14.195-.055.035-.219.02-.219.02-.195.136-.297.03-.297.03-.129.055-.21.032-.316-.015-.11-.05-.098-.18-.098-.18l-1.086.118a.4.4 0 0 0-.086.046c.04.055-.078.172-.078.172.035.02.098.082.105.219.008.145-.175.168-.085.277.09.098.261.012.449-.082.187-.09.37-.078.449-.078.078 0 .305.063.445.114.14.046.188.015.196-.06.007-.07.074-.089.074-.089-.02.07.02.102.02.102a.4.4 0 0 0 .144-.051c-.008.055-.078.09-.078.09-.133.09.054.058.054.058.196-.054.399-.078.602-.058.191.054.375.125.559.203.015-.047.004-.156.004-.156a.3.3 0 0 1 .164.097c.046-.047.015-.133.015-.133.38.215-.078.317-.199.356s-.117.09-.117.09q.122-.04.25-.051c.086-.008.055 0 .254-.04.203-.038.304.048.304.048-.168.008-.214.058-.214.058.101.067 0 .137 0 .137-.149-.2-.282.004-.282.004.086 0 .172.016.25.055l.211.105c.14.063.114.024.219.063.11.043.066.148.066.148a.3.3 0 0 0-.144-.121c-.008.121-.121.14-.121.14.14-.16-.16-.23-.305-.226-.14 0-.246.094-.246.094.285.273.48.183.48.183-.035.098-.27.059-.27.059.11.09.099.145.099.145-.059-.055-.157-.028-.36-.16-.203-.137-.387-.09-.387-.09.204.21-.07.34-.07.34-.101.062.04.14.04.14-.126.023-.141-.105-.141-.105-.067-.016-.164.062-.164.062.007-.125.18-.062.18-.195.007-.14-.157-.246-.637-.18s-.625-.086-.625-.086c-.04 0-.047.04-.047.04.078.077.113.108.101.167-.015.05.024.07.024.07-.09-.007-.094-.113-.094-.113 0 .047-.02.05-.05.094-.032.043 0 .105 0 .105-.04-.03-.106-.07-.04-.168.047-.074-.105-.168-.105-.168-.059-.058-.22 0-.22 0a.58.58 0 0 1-.519-.148.5.5 0 0 1-.113-.023c-.348.16-.652-.18-.652-.18-.262.05-.383-.078-.461-.207a.48.48 0 0 0-.203-.2c-.102-.062-.203-.242-.102-.343.078-.082.059-.102.059-.102-.137-.234.238-.304.246-.363.011-.082.09-.133.176-.137s.085 0 .144-.054c.05-.059.156.011.156.011.028-.015.215-.16.38-.086.167.075.308.024.308.024.117-.028 1.094-.16 1.094-.16.058-.098.105-.211.375-.278.27-.062.468-.234.468-.234-.047-.05-.125-.05-.164-.055-.043 0-.125-.078-.125-.078-.05.024-.078.012-.43.23-.316.2-.324-.19-.324-.19h-.691a.26.26 0 0 1-.117.206l-.254.012c-.14-.07-.14-.324-.14-.324-.759.011-1.177.285-1.177.285-.859-.445-1.53-.547-1.53-.547.55-.04 1.089-.176 1.593-.402.336.207.719.328 1.113.355.02-.215.16-.265.16-.265Zm0 0" style="stroke:none;fill-rule:nonzero;fill:#000;fill-opacity:1"/><path d="M17.277 12.453c-.215.125-.175.2-.156.238.02.04.02.079-.039.141-.059.059-.055.078-.055.078.012.215.157.262.223.32.055.04.14.176.14.176.114.164.231.168.317.168.09 0 .078-.011.04-.05l-.134-.11q.13.06.23.164c.22.246.423.211.512.203s.079-.066.079-.066l-.094-.016c-.332-.031-.43-.254-.43-.254a.92.92 0 0 0 .61.239c.093-.004.09.023.066.03l-.094-.007c-.043 0-.043.012-.035.031q.023.023.105.016c.055 0 .012.004.149.113.14.11.48.02.48.02-.222-.051-.25-.16-.25-.16-.3.039-.421-.141-.421-.141a1.2 1.2 0 0 0-.22-.14.35.35 0 0 1-.195-.227c.051.07.145.148.262.18.117.03.149.046.149.046a.14.14 0 0 1-.09-.008c-.117-.039-.051.012-.051.012.133.11.168.102.168.102.336.035.168-.106.168-.106.242.059.281-.03.281-.03.051.108.235.065.235.065-.243.122-.059.086-.059.086.246-.043.297.02.297.02.062.059.133.055.133.055s.047 0 .136.015c.094.02.243.098.375.086.137-.02.157.024.157.024-.024-.012-.086-.02-.188.027-.105.055-.289.066-.555 0-.265-.063-.289-.05-.289-.05q.09.058.133.16c.012.046.059.046.059.046.02-.058.097-.082.097-.082.063.043.125.078.196.11.015-.028 0-.051 0-.051.101.097.218.066.218.066.032-.02.024-.078.024-.078.039 0 .047.024.078.047.027.016.117.004.117.004-.031-.016-.058-.067-.058-.067.136-.09.43-.05.43-.05.206.039.183.175.183.175q.054.035.098.086c.02-.05 0-.101 0-.101.101.047.117.16.117.16.117-.129-.106-.27-.106-.27.106-.015.223-.007.293 0a.54.54 0 0 1 .258.122.7.7 0 0 0 .23.101c-.003-.031-.085-.082-.105-.09s-.023-.035-.023-.035c.074.016.12.008.12.008-.25-.156-.316-.234-.316-.234.094.011.149-.047.149-.047-.2 0-.211-.047-.211-.047.027.004.12.027.242.004.121-.024.281 0 .281 0-.086-.14-.418-.117-.527-.11s-.148-.008-.148-.008c.015-.007.035-.023.117-.027.086 0 .168.008.265-.066.09-.063.223-.04.223-.04-.031-.062-.184-.085-.313 0-.136.087-.253.06-.253.06.207-.032.27-.106.27-.106-.063-.016-.099.004-.227.031-.125.024-.157-.02-.157-.02.137-.082.235-.117.235-.117-.118-.023-.227-.082-.227-.082-.125.121-.219.184-.457.067-.234-.13-.36-.114-.36-.114a.55.55 0 0 1 .579.024c.156.094.195.015.195.015-.047-.027-.039-.058-.039-.058.375.195.54.078.621.02.082-.06-.039-.133-.039-.133-.008.117-.156.18-.281.136-.117-.039-.235-.093-.406-.168-.172-.078-.391-.03-.59.008-.203.043-.23.024-.25.008s-.028-.066-.133-.023c-.102.043-.344-.075-.492-.11a.9.9 0 0 0-.606.102c-.21.12-.32.09-.383.062-.062-.031-.105-.11-.035-.183.07-.07.078-.09.07-.196-.007-.105-.109-.168-.109-.168.094-.097.117-.117.086-.156-.031-.05.016-.05.07-.074s.032-.027.02-.059c-.012-.03-.047-.023-.047-.023-.12.004-.191-.031-.191-.031-.203-.094-.395.09-.395.09-.117-.09-.144-.028-.164-.008-.02.023-.058.039-.117.039-.047.008-.121.027-.148.078 0 0-.024.039.003.078 0 0 .032.047-.023.105-.059.059-.078.07-.059.133q.024.076-.011.13s-.028-.028-.02-.067q.012-.06 0-.078s-.058.054-.07.093c0 0-.024-.062.062-.148.082-.074.114-.129.094-.156-.016-.024-.078.015-.09.023Zm0 0" style="stroke:none;fill-rule:nonzero;fill:#ffc221;fill-opacity:1"/><path d="M17.516 13.379s-.106-.078-.094-.195c.012-.106.012-.118 0-.145 0 0-.02.012-.016.055a.2.2 0 0 1-.011.09s-.051-.09-.079-.11c0 0 .024-.094-.007-.133-.028-.043-.059-.05-.094-.035-.047.02-.082.063.078.192 0 0 .059.05.098.156.039.101.109.117.12.125Zm.507-.309s-.003-.058.051-.172a.24.24 0 0 0 .012-.218c-.012-.032-.023-.02.035-.07.067-.06-.027-.133.09-.235 0 0 .07-.066.09-.094 0 0-.117.067-.203.102-.078.031-.375.18-.313.281.07.098.063.106.05.149 0 0-.179-.098-.116-.254 0 0 .031-.059.105-.133.07-.063.031.015.168-.067 0 0 .106-.066.168-.156 0 0-.078.047-.101.055 0 0-.157.031-.227.101-.062.067-.2.184-.156.317 0 0-.156-.016-.196-.188 0 0-.296.371.329.547 0 0 .117.031.218.04Zm0 0" style="stroke:none;fill-rule:nonzero;fill:#000;fill-opacity:1"/><path d="M20.766 11.836c.234-.04 1.578-.246 1.703-.258.133-.012.183-.031.23.078.051.121-.187.125-.187.125l-1.606.184c-.078.008-.097-.024-.097-.024l-.059-.078s-.02-.023.016-.031Zm0 0" style="stroke:none;fill-rule:nonzero;fill:#ffc221;fill-opacity:1"/><path d="M17.473 12.574s-.172.371.507.461q-.004-.005.032-.098c.031-.062.09-.18.031-.253-.059-.079.047-.036.059-.137.02-.098-.008-.086.039-.149 0 0-.211.079-.297.176-.078.098.113.168 0 .274 0 0-.098-.04-.157-.141 0 0-.128 0-.214-.133" style="stroke:none;fill-rule:nonzero;fill:#5a3719;fill-opacity:1"/><path d="M18.145 13.031s.168.145.367.14c.199-.01.289-.062.34-.14 0 0 .039.059.039.102 0 0 .172-.145.468-.02.297.13.211.09.278.102 0 0-.13-.024-.418.113-.301.137-1.082.09-1.078-.297Zm0 0" style="stroke:none;fill-rule:nonzero;fill:#000;fill-opacity:1"/><path d="M17.863 12.375s.075.012.149-.078c0 0-.102.02-.149.082Zm-.574.688s-.14-.11-.05-.133c0 0 .066-.012.05.133" style="stroke:none;fill-rule:nonzero;fill:#5a3719;fill-opacity:1"/><path d="M20.36 13.766s.078-.137.292-.137c.215 0 .239.101.512.117 0 0-.328.098-.555.012a.33.33 0 0 0-.25.008" style="stroke:none;fill-rule:nonzero;fill:#000;fill-opacity:1"/><path d="M18.215 13.129s.328.2.613-.02q.006.001.047.079s.219-.211.605.015c0 0-.046-.004-.23.074-.238.106-.836.176-1.035-.152Zm0 0" style="stroke:none;fill-rule:nonzero;fill:#5a3719;fill-opacity:1"/><path d="M19.465 13.328s.312.04.574.024c.16-.008.336-.04.25.015-.09.051-.043.059.328.028.367-.04-.004.066.25.101 0 0-.62.32-1.402-.168" style="stroke:none;fill-rule:nonzero;fill:#000;fill-opacity:1"/><path d="M20.281 13.129s.18-.066.352.012c.168.082.14.09.254.101 0 0-.078.113-.262.024-.184-.094-.234-.114-.344-.137m.203.566s.18-.09.375 0c.024.016.078.04.13.047 0 0-.15.051-.305 0-.067-.02-.118-.035-.2-.047m-.886-.324s.402.04.617-.004c0 0-.25.117.379.067 0 0 .136-.016.117.004-.012.019-.023.039.047.058 0 0-.469.215-1.16-.125" style="stroke:none;fill-rule:nonzero;fill:#5a3719;fill-opacity:1"/><path d="M17.605 13.031s.008.028.094.067c.067.035.121.09.156.156a.23.23 0 0 0 .137.113s-.312.067-.453-.101c0 0-.105-.121.063-.239" style="stroke:none;fill-rule:nonzero;fill:#000;fill-opacity:1"/><path d="M20.066 13.758s-.12-.008-.293-.067c-.168-.058-.21-.007-.308-.078-.094-.074-.285-.027-.32-.023-.04.004-.141 0-.012-.086 0 0-.102 0-.14-.055 0 0-.048.047-.22.031 0 0 .079.122-.234.086a.38.38 0 0 0 .434.118c0 .007-.02.097.117.14.148.035.176.063.25.09 0 0 .012-.059-.18-.2 0 0 .102-.007.25.028s.477.125.656.016m.079.148s.03.07.125.055a.66.66 0 0 1 .398.031s.027-.125-.273-.133c0 0-.188.008-.25.047m-2.547-.832s-.118.098-.012.2c.094.09.242.081.312.078 0 0-.039-.024-.078-.079-.039-.058-.039-.101-.117-.136-.082-.035-.09-.043-.105-.063m-.118-.5s-.18.371.508.461q-.007-.005.028-.098c.023-.062.082-.18.03-.253-.062-.079.044-.036.06-.137.015-.098-.012-.086.039-.149 0 0-.215.079-.301.176-.078.098.113.168 0 .274 0 0-.098-.04-.157-.141 0 0-.128 0-.214-.133Zm0 0" style="stroke:none;fill-rule:nonzero;fill:#5a3719;fill-opacity:1"/><path d="M19.27 13.43s.144-.024.507.117c.368.133.52.101.57.098 0 0-.202.109-.523-.032-.281-.129-.297-.078-.554-.183" style="stroke:none;fill-rule:nonzero;fill:#000;fill-opacity:1"/><path d="M21.555 13.348s.078 0 .133.02c0 0 .027-.028.105-.04 0 0-.05-.047-.238.02m-.25-.207s.082 0 .11-.047c0 0-.044-.051-.11-.078 0 0 .015.062 0 .125m-2.801-.942s-.02-.039.07-.054l1.223-.18s.058 0 .066.039c.012.047-.004.078-.281.11l-1 .124s-.074.012-.078-.039" style="stroke:none;fill-rule:nonzero;fill:#ffc221;fill-opacity:1"/><path d="M19.61 12.148s0 .16.163.188c.157.023.215-.008.254-.094.012-.027.063-.195-.007-.207a.2.2 0 0 0-.114.012c-.054.027-.105.055-.09.078.04.063.047.078.04.078-.047.012-.07-.023-.079-.047-.011-.031.02-.047-.086-.031q-.074 0-.078.023Zm.683-.128c.078.015.074.19-.023.273-.11.09-.211.055-.211.055-.055-.02-.047-.016-.004-.082.039-.059.058-.141.035-.196q-.007-.034.039-.039s.078-.02.164-.011" style="stroke:none;fill-rule:nonzero;fill:#ffc221;fill-opacity:1"/><path d="M20.363 12.04s.063.077-.015.214c0 0-.032.039.043.035.07-.008.238-.086.222-.187 0 0-.008-.024-.05-.024s-.008-.02.011-.031c.016 0 .074-.027-.074-.121 0 0-.023-.024-.05-.012-.024.008-.102.04-.102.086q.008.04.015.043Zm0 0" style="stroke:none;fill-rule:nonzero;fill:#ffc221;fill-opacity:1"/><path d="M20.523 11.91s.118.082.118.11c0 .03-.012.062.02.054.03 0 .155-.027.116-.113-.027-.078-.066-.121-.125-.133-.058-.023-.074.004-.125.043 0 0-.035.024-.004.04m-.628.12s.02-.062-.086-.09c0 0 .043-.039.132-.015.086.015.079.078.079.082 0 0-.07 0-.125.023m.226-.02s.117-.019.176-.015c0 0-.063-.129-.223-.09 0 0 .059.07.047.106m.207-.032s0-.043.102-.082c0 0-.047-.046-.117-.039-.079 0-.098.028-.098.028s.09.031.113.093m.04-.14s.066.015.105.05c0 0 .058-.066.109-.078 0 0-.098-.054-.215.028" style="stroke:none;fill-rule:nonzero;fill:#ffc221;fill-opacity:1"/><path d="M17.023 11.516s.282-.246.438-.215.078.008.25-.02c.172-.027.352-.043.422-.035 0 0-.211-.152-.582-.148 0 0-.258.093-.442.21 0 0-.347-.195-.703-.078 0 0 .387.145.617.286" style="stroke:none;fill-rule:nonzero;fill:#5a3719;fill-opacity:1"/><path d="m20.008 11.93.047-.008s.078.098.023.098c-.047 0-.031-.012-.039-.04a.1.1 0 0 0-.031-.05m-.352.008s-.031.039.024.03c.066-.011.054 0 .12-.05 0 0 .048-.043.126-.016 0 0 .07.024.125-.004.054-.03.066-.027.097-.023.032.004.032.008.067-.023.039-.028.11-.004.152-.04.043-.035.098-.007 0-.078 0 0-.02-.023-.02-.043 0 0 .04.016.071.043.031.032.078.02.086.016 0 0 .008-.094.09-.172.09-.078.09-.086.039-.086s-.137-.023-.168 0c-.031.024-.281.188-.43.215-.148.031-.285.074-.379.23m-3.957-.925s.457.117.559.168c0 0 .023-.078-.184-.137 0 0 .504-.016 1.031.23 0 0 .258-.222 1.082-.156 0 0 0-.07.008-.129 0 0-.578-.015-1.11-.343 0 0-.48.238-1.386.367m2.528.222c-.028-.468.148-.515.148-.515s.082 0 .172.02c0 0-.14.171-.102.507 0 0 .016.05-.105.05s-.113-.058-.113-.058Zm0 0" style="stroke:none;fill-rule:nonzero;fill:#ffc221;fill-opacity:1"/><path d="M18.352 11.547s-.09-.09-.098-.195c0 0 0-.024.086-.024s.098-.008.117.043.078.16.09.172Zm0 0" style="stroke:none;fill-rule:nonzero;fill:#5a3719;fill-opacity:1"/><path d="m18.535 11.309-.008-.18c.004-.258.047-.234.067-.203h.09s-.067-.293-.145-.121c-.059.129-.078.273-.059.414a.5.5 0 0 0 .024.156Zm0 0" style="stroke:none;fill-rule:nonzero;fill:#ffc221;fill-opacity:1"/><path d="M19.54 11.309s.167.03-.09.09c0 0 .01.324.32.101 0 0 .183-.121.312-.168 0 0 .063-.023.055-.07 0 0 .008-.059-.059-.043 0 0-.055 0-.09-.012 0 0-.039-.047-.062-.031-.024.02-.082.008-.035.066.047.055.058.04.078.024s.12-.055.035.027c-.086.082-.164-.047-.195-.07Zm-.86.039h-.078s-.04.062-.067-.04l-.027.063s.09.348.172-.023" style="stroke:none;fill-rule:nonzero;fill:#5a3719;fill-opacity:1"/><path d="M18.57 10.95s-.039.23.012.363l.824.019s-.008-.156 0-.383h-.11s-.019.18 0 .297h-.019s-.015-.16 0-.297h-.097s-.016.168 0 .297h-.02s-.015-.148 0-.297h-.098s-.019.153 0 .297h-.023s-.02-.156 0-.297h-.105s-.024.14 0 .297h-.02s-.023-.144 0-.297h-.105s-.024.164 0 .297h-.024s-.015-.16.004-.297h-.098s-.027.137 0 .297h-.027s-.016-.121.008-.297Zm.871.41s-.02-.403.055-.512c.078-.106.098-.082.227 0 .132.086.3.175.332.187.023.012.062.02.062.094 0 .078.012.098-.101 0a.5.5 0 0 0-.106-.07c-.101-.036.024.02.059.078.031.039.058.039-.024.058q-.252.077-.504.164" style="stroke:none;fill-rule:nonzero;fill:#ffc221;fill-opacity:1"/><path d="M19.727 11.066s-.059-.07.02-.09c.077-.019.081.118.097.204.011.086-.098-.086-.11-.11Zm-.106.356s-.09.039-.027.066c.054.028.215-.11.164-.101-.063.011-.137.039-.137.039Zm.117-.117s.078-.012.063.02c-.012.038-.04.015-.055.007-.016-.008-.062-.027-.004-.031Zm0 0" style="stroke:none;fill-rule:nonzero;fill:#000;fill-opacity:1"/><path d="M20.156 11.195s.024.157.157.196c0 0 .078.015.058-.051 0 0-.012-.059-.023-.078-.012-.028-.063-.04-.07-.043-.008 0-.012-.02.023-.008.039.012.039.016.039-.012 0-.027-.024-.015-.055-.031-.015-.008 0-.016.012-.012.015 0 .05.012.05-.043 0 0 .005-.031-.035-.031-.042 0-.039-.023-.027-.027s.059.03.074-.024c.016-.054-.062-.02-.054-.047.011-.03.066.012.066-.02.008-.03.05-.042-.023-.054-.035-.004 0-.023.039-.015.039.007.062-.047.09-.067.027-.015.164-.101-.024-.074-.187.027-.238.121-.246.14a.53.53 0 0 0-.05.301" style="stroke:none;fill-rule:nonzero;fill:#ffc221;fill-opacity:1"/><path d="M20.586 11.313q.039-.005.055.019c.03.063-.04.04-.078.086-.04.05-.04.043-.094.023-.055-.023-.078-.101-.078-.101q0-.04.047-.024s.09.008.152 0Zm-.195-.032s0 .016.035.02c.027 0 .117.011.176-.004 0 0 .015-.004.007-.04 0 0 0-.027-.047-.015a.6.6 0 0 1-.144-.004q-.039-.015-.031.04Zm-.008-.113s-.004.05.043.055c.05.007.113.007.137 0 .019 0 .054-.008.058-.04 0-.027.008-.046-.05-.03-.06.015-.134 0-.141 0-.004 0-.047-.012-.047.015m.02-.102s-.012.024-.008.047q-.002.031.097.032c.098 0 .117-.008.125-.032.004-.027.02-.05-.027-.039a.6.6 0 0 1-.14 0q-.042-.018-.048-.008" style="stroke:none;fill-rule:nonzero;fill:#ffc221;fill-opacity:1"/><path d="M22.738 11.32s0 .04.035.086l-1.765-.05s.023-.016.031-.086Zm0 0" style="stroke:none;fill-rule:nonzero;fill:#5a3719;fill-opacity:1"/><path d="M20.418 10.996s-.016.043.016.055a.4.4 0 0 0 .156.004s.039 0 .05-.04c.012-.038.012-.015-.09-.03 0 0-.03-.012.06-.012 0 0 .054 0 .058-.008.012-.008.078-.067-.012-.059-.09 0-.043-.02 0-.02s.063.012.078 0c.016-.011 0-.007-.027-.03-.027-.028-.004-.024.012-.004q.022.022.05 0c.028-.028-.015-.051 0-.043.012 0 .024.035.079 0a.2.2 0 0 1 .156 0c.023.02.086.043.121 0 .04-.032-.043-.067-.012-.07.04-.005.063.007.075-.02.015-.031-.055-.055.011-.07.067-.016.008-.2-.012-.22 0 0-.074.044-.148.173-.082.128-.129.203-.234.164-.153-.059-.235.023-.254.039-.04.023.078.035.008.039-.067 0-.067.008-.07.015q-.006.012.011.024c.012 0 .035.023-.004.023s-.07-.011-.058.035q-.006 0 .023.012c.023 0 .031.031-.012.031q-.039 0-.031.012m.16.45s-.027.019.012.023c.047 0 .066.011.082-.012.015-.023.07-.016.031-.05-.039-.032-.062-.012-.125.042Zm0 0" style="stroke:none;fill-rule:nonzero;fill:#ffc221;fill-opacity:1"/><path d="M20.762 10.906s.148-.14.27-.047c.124.098.132.11.136.114 0 0 .016.011-.016.039-.035.031 0 .031.035.011s.04 0 .055.02c.02.02.043.031-.012.031h-.18s-.081.008-.038-.027c.039-.035.031-.074.011-.078-.023 0 0 .023-.011.039q-.023.022-.075.027-.076.014-.007.04c.043.015-.008.027-.032.027-.023 0-.136.007-.02.023.118.02-.01.016.079.063.094.054.023.167-.012.18 0 0-.039.019.008.015.05-.008.078-.012.04.015-.032.024-.102.118-.196.051 0 0-.047-.027.031-.031s-.062-.02-.09-.04c-.02-.01-.117-.105-.058-.097.062.016.039-.02.004-.031-.036-.012-.04-.062 0-.055.039.008.078.035.117.032q.046-.001-.047-.032c-.067-.023-.094-.027-.078-.082.015-.058.09.024.07-.023-.016-.04-.078-.02-.047-.074.031-.055.04-.032.059-.024.012.004.039 0-.004-.031-.031-.02 0-.05.008-.055" style="stroke:none;fill-rule:nonzero;fill:#ffc221;fill-opacity:1"/><path d="M20.867 10.945s0-.02.031-.015c.024 0 .016-.008.024-.016.008 0 .074.02.012.04-.024.01-.063.007-.063-.009Zm0 0" style="stroke:none;fill-rule:nonzero;fill:#000;fill-opacity:1"/><path d="M21.012 11.102s-.051.023-.008.082c.039.039.039.058.039.086-.004.03 1.695.05 1.695.05s0-.113.07-.175Zm0 0" style="stroke:none;fill-rule:nonzero;fill:#ffc221;fill-opacity:1"/><path d="M22.766 11.29s.007-.095.062-.122c.027-.02.063-.012.078.062.024.106-.066.204-.105.157-.04-.043-.031-.098-.031-.098Zm0 0" style="stroke:none;fill-rule:nonzero;fill:#5a3719;fill-opacity:1"/><path d="M20.816 11.691s.114-.097.133-.14c0 0 .305.222.285.015l.008-.101s.113.012.13-.082l-.286-.012s-.031-.004-.078.043c-.04.05-.133.102-.215.059 0 0-.04-.032-.074 0-.04.02-.04.027-.008.058a.5.5 0 0 1 .105.156Zm.657-.609-.168-.008s-.059-.086-.18-.18c0 0-.035-.015.031-.074.067-.058.094-.105.09-.136 0-.024 0-.067.024-.04.023.032.195.196.226.145.02-.039.031-.07.027-.082.008-.016.012-.059.04-.012.027.047.039.032.042.153 0 0 0 .117.02.156 0 0-.219-.066-.148.078Zm-.727-.363s.129.078.195-.024c.059-.097.102-.11.055-.21-.047-.09 0-.133.035-.172.035-.04.07-.032.07-.184.008-.152.11-.2.157-.25s.164-.117-.016-.145c-.172-.03-.523-.12-.613-.257-.09-.141-.129-.059-.129-.051s-.031.105.059.289c.09.18.164.3.253.355.09.055.165.09.118.215-.047.121-.117.34-.184.434" style="stroke:none;fill-rule:nonzero;fill:#7b3c20;fill-opacity:1"/><path d="M21.219 10.332s.023.316.246.426c0 0 .05-.117.031-.242 0 0 .074.004.094.043 0 0 0-.094-.102-.13-.105-.027-.054-.238-.015-.257s.023-.067 0-.102c-.024-.035-.032-.09.054-.066s.078-.024.02-.07c-.05-.043-.05-.098.027-.098.078 0 .196-.074.125-.094-.078-.023-.097-.05 0-.078.106-.035.156-.07.078-.082-.078-.008-.129-.035-.054-.047.074-.012-.012-.09-.098-.09-.09-.008-.273.028-.129-.09.145-.12-.21-.035-.062-.113s-.051-.043-.079-.043c-.027 0-.027 0-.015-.039s-.02-.062-.067-.035c-.039.023-.039.023-.039-.027 0-.063-.05-.016-.082 0-.035.011-.117.074-.152.039-.027-.035-.047-.067-.148-.008-.102.059-.079.008-.079-.02 0-.027.04-.136-.093-.02-.133.114-.028-.12-.137-.042-.11.082-.117.098-.137.062-.02-.039-.039-.07-.156.012-.121.074-.031-.05-.02-.082.02-.023.07-.195-.035-.062 0 0-.05.097-.164-.075 0 0-.117.172-.152.094-.031-.078-.059-.078-.102-.031-.039.047-.007-.004-.027-.047s-.027-.113-.227.031c-.199.149.07.04-.082.11-.152.066-.527.273-.187.23.34-.05-.164.133-.047.168.117.031.078.137.523.012.438-.121.368-.016.594-.121.227-.094-.054.039.25.035.301-.008.051 0 .11.062.058.063.312.211.55.239.239.023.301-.07.23.039-.07.101-.093.14-.132.18-.039.03-.156.12-.156.261 0 .149-.188.172-.117.328l.16-.156Zm0 0" style="stroke:none;fill-rule:nonzero;fill:#5a3719;fill-opacity:1"/><path d="M21.613 10.684s-.054-.04-.054-.11c0 0 .039.008.054.031 0 0 .137-.16-.031-.214-.16-.055-.078-.211-.023-.211.054 0 .066-.012.015-.078-.047-.059-.039-.063.051-.079.09-.015.082-.039.04-.058-.028-.02-.056-.04-.075-.067 0 0 .265-.113.18-.168-.086-.054 0-.039.078-.093.078-.055.086-.067.097-.09 0 0-.078.012-.133 0 0 0 .067-.035 0-.09-.066-.055-.09-.102-.195-.078s-.07-.008-.031-.055c.039-.043.023-.066-.05-.078 0 0 .007-.047.066-.098 0 0-.145.008-.196-.015 0 0 .063-.04.063-.094 0 0-.078.031-.176.024 0 0 .059-.055.059-.098 0 0-.172.039-.25.101q-.007.007-.032-.027c-.015-.016-.023-.039-.215.027 0 0 .02-.09.067-.12.047-.032.039-.102-.254.081 0 0-.04-.023-.074-.113 0 0-.067.09-.114.121 0 0-.039.024-.039-.039.008-.059-.027-.02-.054 0-.032.016-.051.063-.04-.059.012-.117-.038-.14-.038-.14s-.09.129-.145.144c0 0-.098-.093-.133-.156-.035-.066-.031-.09-.066.024-.035.105-.078.117-.078.117s-.059-.051-.063-.078c0 0-.012.027-.031.039 0 0-.05-.059-.047-.149 0 0-.32.18-.36.285 0 0-.3-.02-.421.004 0 0 .027-.093.105-.144 0 0-.078-.008-.078-.09 0 0 .063.008.102 0s-.055-.125.043-.129c.097-.004.164.047.117-.086-.04-.133-.024-.133-.024-.133s.172.106.2.078c.03-.023-.02-.082.133-.054.152.023.109-.063.171-.07.059 0 .09.039.051-.243-.039-.277.188.14.035-.281 0 0-.039-.133-.129-.187 0 0-.023.09-.125.011-.101-.078-.304-.11-.218-.176.086-.062.125-.152.101-.203 0 0-.101.102-.273.028-.14-.059-.172.05-.313.02 0 0 0-.04.121-.138.118-.09-.07.032-.14.055-.07.02-.094 0 .058-.125.157-.117.47-.336.43-.515 0 0 .07.093.262.023.191-.066.336-.09.39-.195a.9.9 0 0 1 .25-.223c.043-.02.094-.04.036.059-.063.097-.157.261-.422.375-.266.109-.371.187-.418.246-.047.062-.29.191-.13.172.157-.028.427 0 .298-.04-.125-.035-.27.024-.153-.082.117-.109.137-.144.309-.214s.36-.243.34-.063c-.02.176-.336.36-.414.418-.078.055-.047.047-.047.07s-.016.07-.047.094-.02.047-.012.094c.008.05-.008.07.016.078.023.008.047.008.055.043.007.035.023.04.07.04q.071-.012.078.022c0 .032.047.07.05-.015.005-.086.04-.098-.046-.059s-.102.024-.102-.015c0-.04-.008-.032-.039-.035-.039 0-.05-.051.012-.086.062-.032.062 0 .14-.063.079-.066.079-.082.09-.121.012-.027-.113.094-.171.121-.059.031-.04-.023-.032-.086.012-.066.157-.156.223-.156s.219.039.156.129c-.066.09-.25.207-.176.215.082.007.094-.024.141.015.047.04 0 .125-.016.176a.3.3 0 0 1-.085.106s-.086-.153-.083-.032c0 .121-.02.164 0 .168s.11.07.141.07-.16.09-.078.098c.078.004.207-.039.25-.117 0 0-.164-.043-.23-.105 0 0 .19-.047.136-.23 0 0 .192.054.106.14-.078.082-.13.07-.059.093q.111.042.106.047c-.004.008.05.024.02.067-.028.039-.028.101 0 .097.019 0 .1-.039.034-.078-.066-.043.074-.031.016-.07-.063-.04-.078-.043-.094-.063-.02-.011.77-.48.371-.308 0 0 .082-.18.2-.18.117 0 .124.09.058.164-.066.067-.11.184-.262.207 0 0 .22.106-.039.285 0 0-.058.028-.039.047.02.02.176-.066.195-.117a.24.24 0 0 1 .118-.121c.168-.098.316-.227.437-.379.09-.156.11-.16.281-.297.172-.14.141-.113.165-.144.019-.035.027-.09.105-.133s.383-.215.48-.285c.094-.07.29-.2.375-.309.086-.11.313-.246.368-.223.054.024-.008.114-.137.215-.137.098-.469.367-.52.41a1.8 1.8 0 0 1-.437.262c-.106.012-.094.051-.156.121-.063.067-.207.211-.254.25-.047.043-.168.121-.172.18s.02.062-.074.148a2 2 0 0 1-.465.325s.176.062.07.18c-.101.12-.098.105-.101.113 0 0 .261-.043.078.168 0 0-.04.058.043 0 .09-.075.054-.16.039-.176 0 0 .144-.094.308-.094q.236.005.008-.055s.106-.125.195-.062c.086.058.055.098-.035.148-.093.047-.226.07-.332.13 0 0 .196.038.297-.044.102-.082.11-.043.117-.023.02.015.032.039-.015.101s-.051.07-.047.086c0 .016-.004.059-.098.078-.09.012-.137.055-.101.098.027.047.027.156-.047.145-.078-.012-.063-.075-.09-.098-.031-.024-.074-.059-.211.008-.14.074-.149-.012-.145-.059 0 0-.09.078-.164.008s-.008-.105.04-.14c.038-.04.214-.118.109-.098-.106.011-.262.015-.297-.063-.04-.086.078-.074.094-.066.02.008.09.066.097-.016 0-.078.117-.09.078-.101s-.097.035-.113.05c0 0-.078-.113-.21-.078-.134.04.038.028.077.031.032.008.012.07-.105.184-.117.11-.067.07.02.07.085 0 .308 0 .18.102-.126.11-.177.16-.235.145-.07-.02 0-.063.03-.083.032-.023.048-.05-.015-.027-.062.027-.082.031-.133-.058-.05-.086-.03-.063-.007-.122s.07-.12.015-.097c-.062.023-.054.027-.05-.043.003-.067-.067-.082-.067-.082s.031.066.004.11q-.04.055.016.066c.039.015.078.05.023.09-.055.038-.047.027-.016.05.04.028.09.051.036.11-.055.054-.012.039.015.039.032 0 .09.023.09.078 0 .047 0 .058.09.011.09-.05.262-.043.262.024 0 .066-.024.09.07.031s.137.055.203 0c.063-.058.102-.11.18-.015.078.093.05.12-.04.19s.044.017.114-.019c.07-.035.262-.062.371-.007.113.046.145.039.227 0 .082-.032.125-.04.246.043.129.085.222.101.289.097 0 0-.137.055-.293.063q-.227.024-.262.066s.09.059.11.125c0 0 .101-.012.148.008 0 0-.023.074.039.113.063.043.105.059.059.11-.047.05.074.03.003.105-.07.074-.082.121-.085.18 0 .062.015.07-.043.078-.063.004.007.074-.02.16-.027.078-.195.066-.187.281 0 0 .046-.105.148-.195.098-.094.102-.105.098-.16 0-.055-.004-.043.047-.086.054-.04-.024-.078.03-.14.052-.063.009-.052.071-.11.059-.063-.058-.067.008-.129.058-.063-.156-.14-.09-.18.059-.039.168-.093-.195-.09 0 0 .09-.144.39-.117 0 0-.078.067-.086.121l.063.02s-.016.043-.074.09c0 0 .164.093.191.152 0 0-.101.031-.129.07 0 0 .047.051.063.118 0 0-.114-.016-.125.07-.012.082-.051.027-.051.078 0 .05.004.066-.035.078-.04 0-.004.043 0 .07.008.028.023.094.015.114 0 0-.058 0-.082.008 0 0 .016.117-.05.136-.067.02.039.04-.036.051-.074.012-.058.02-.144.18 0 0 .074-.04.148-.094.078-.055-.007-.04.118-.16.128-.13.105-.137.093-.203-.008-.063-.011-.117.035-.176.047-.059.059-.129.223-.121 0 0-.047-.11-.105-.137 0 0 .078-.05.156-.059 0 0-.07-.093-.219-.175 0 0 .117-.102.152-.153 0 0-.058.012-.105 0 0 0 .023-.05.133-.125 0 0 .058.055.055.118 0 0 .187-.11.292-.098 0 0 .055.137-.207.398 0 0 .165.012.235 0 0 0-.04.125-.235.196-.195.082.04.168-.16.152-.199-.016-.136.05-.133.152.004.106.012.211.008.239 0 0-.156-.051-.156.105.004.156-.078.188-.098.2 0 0-.047-.04-.117-.067 0 0-.097.195-.254.305" style="stroke:none;fill-rule:nonzero;fill:#5a3719;fill-opacity:1"/><path d="M21.383 8.727s.055-.008.148.05c.09.059.18-.062.078-.093-.101-.032 0-.07.094.007.094.079.129.036.164.012.031-.027.074-.043.012-.086-.063-.043.039-.023.09.012.047.027.027.059.023.066-.008.008-.012.117.078.02.094-.098.145-.188.14-.235 0 0 .052.032.06.09.007.059.078-.03.101-.062a.35.35 0 0 0 .059-.176s.062.098.156 0 .055-.039.164-.066a.7.7 0 0 0 .332-.207c.078-.098.082-.032.18-.055.097-.024.3-.168.32-.242s.012-.121-.016-.094c-.027.023-.015 0-.058-.023-.043-.024-.106.035-.106.035s.063.047.012.066c-.047.024-.09.09-.18.063-.09-.028-.187.09-.187.09s.078.062-.027.105c-.106.039-.09.055-.153.008 0 0-.113.144-.18.18 0 0-.027 0-.046-.036 0 0-.078.086-.11.102 0 0-.05-.04-.09-.059 0 0-.09.114-.164.145 0 0-.023-.04-.07-.067 0 0-.023.141-.18.23 0 0 .008-.038-.07-.093 0 0-.195.172-.27.188-.074.015-.007-.036 0-.059.016-.02.063-.094-.03-.121-.095-.027-.079.02-.098.027-.02.008-.024-.015-.086-.008-.063.008-.051.04-.078.051-.032.008-.141-.02-.133.055.004.07.058.121-.04.164-.097.039.04.031.16.016" style="stroke:none;fill-rule:nonzero;fill:#7b3c20;fill-opacity:1"/><path d="M21.777 8.523s.024-.101-.058-.14c0 0 .515-.082.125-.285 0 0 .465-.09.351-.243-.105-.148-.21-.117-.226-.117s.097-.082.129-.07c.03.012.398.152.304.027-.093-.117-.086-.113-.101-.152 0 0 .12 0 .308.184 0 0 .04-.04.036-.114 0 0 .128.04.171.078 0 0 .024-.046.012-.07 0 0 .117.059.156.125 0 0 .051-.047.059-.101 0 0 .117.05.145.085 0 0 .039-.05.023-.117 0 0 .191.051.215-.066 0 0 .191.043.066.117-.156.098-.015-.023-.18.09-.125.09-.195.195-.257.176-.043-.02-.098.113-.157.05-.058-.066-.058-.039-.105.028q-.048.074-.11.137s-.03-.02-.062-.047c0 0-.031.062-.078.113 0 0-.04-.055-.102-.082 0 0-.09.11-.148.148 0 0-.055-.054-.113-.074 0 0-.008.149-.121.223 0 0-.024-.047-.102-.078 0 0-.055.09-.18.172Zm0 0" style="stroke:none;fill-rule:nonzero;fill:#5a3719;fill-opacity:1"/><path d="M21.508 8.293s-.063.047-.024.098c.04.05.043-.008.094-.012.05-.008.684-.117.11-.29 0 0 .027-.023.12-.03.102-.012.462-.106.294-.239-.168-.129-.309.043-.168-.11.117-.12.023-.183.023-.183s-.332.223-.406.266c-.07.039-.18.121-.055.16.129.04.211-.137.223-.098.011.043-.25.192-.211.254.035.075.027.133.094.118.066-.016.234.03.097.027-.144-.004-.195.039-.195.039Zm0 0" style="stroke:none;fill-rule:nonzero;fill:#5a3719;fill-opacity:1"/><path d="M21.734 7.969s-.058.043.02.023.23-.054.203-.094c-.027-.043-.133.008-.223.07" style="stroke:none;fill-rule:nonzero;fill:#000;fill-opacity:1"/><path d="M22.75 7.305s.293-.008.41.074q.169.124.215.148s-.004.114-.195.028c0 0 .015.058-.008.113 0 0-.067-.047-.149-.066 0 0-.015.039-.039.066 0 0-.082-.086-.18-.117 0 0-.015.047-.03.066 0 0-.102-.066-.18-.066 0 0 .015.07 0 .094 0 0-.211-.172-.403-.153 0 0 .09.14.149.203 0 0-.383-.027-.313-.238.059-.21-.007-.156.243-.156Zm0 0" style="stroke:none;fill-rule:nonzero;fill:#7b3c20;fill-opacity:1"/><path d="M20.95 7.883s-.044.039 0 .066c.042.031.195-.078.214-.097.02-.016.078-.016 0 .046a1 1 0 0 0-.195.18s.25-.07.414-.215c.168-.144-.004-.05.273-.187.285-.14.434-.36.282-.336s-.286.195-.407.265c-.117.067-.183.079-.164.04.02-.04.106-.024.27-.16.16-.13.125-.118.125-.165 0-.05-.059-.16.183-.293s1-.574 1.067-.734c0 0-.223.023-.516.242q-.241.206-.523.348c-.078.031-.07.008-.121.074a6 6 0 0 1-.395.39c-.05.04-.07.063-.074.15 0 .038-.328.288-.43.386Zm0 0" style="stroke:none;fill-rule:nonzero;fill:#5a3719;fill-opacity:1"/><path d="M21.953 7.297s-.058.023-.117 0c-.05-.031-.031-.145.098-.219q.234-.128.492-.191s-.02.152-.395.281c0 0 .024.078-.078.129" style="stroke:none;fill-rule:nonzero;fill:#5a3719;fill-opacity:1"/><path d="M22.086 7.195s.012.04 0 .07c0 0 .7.07 1.059-.363 0 0-.497.047-.692.172 0 0 .125-.16.496-.289.371-.133.524-.293.555-.383 0 0-.469.168-.692.168 0 0-.046 0-.09.02-.042.027-.343.246-.421.285 0 0 .168-.016.23-.07 0 0-.117.316-.445.394Zm0 0" style="stroke:none;fill-rule:nonzero;fill:#aa5323;fill-opacity:1"/><path d="M20.742 7.602s-.09.066-.05.093c.038.035.101.04.234-.074.14-.121.472-.406.265-.418 0 0-.273-.016-.261.152.011.165-.172.239-.188.247m-.62-.102s.179.11.108.195c0 0 .547-.468.391-.57-.148-.102-.27.09-.234.105.039.024.117-.015.09.024q-.167.141-.352.246Zm-.142-.148s.118.039.125.09c.004.046.36-.255.266-.383-.043-.059-.234-.079-.25.03-.008.118.18-.01.117.071-.086.106-.23.176-.258.192m1.274-.254s-.074.054-.004.09c.07.027.11-.024.145-.051.035-.028.207-.157.242-.239.035-.078.097-.105.16-.144.062-.04.492-.262.762-.504.265-.242.156-.18.43-.332.273-.156.456-.297.515-.469 0 0-.129.04-.242.121l-.418.258c-.051.02-.117.024-.157.063s-.039.09-.167.199c-.137.113-.82.605-.907.672Zm0 0" style="stroke:none;fill-rule:nonzero;fill:#5a3719;fill-opacity:1"/><path d="M20.703 7.258s.078-.04.219-.031c.14.007.695-.536.86-.645q.373-.258.73-.547c.07-.07.078-.14.14-.18.059-.039.118-.035.25-.117.133-.078.793-.472.754-.703 0 0-.976.594-1.199.785q-.468.37-.965.7c-.11.074-.195.199-.387.347-.183.156-.37.285-.402.395Zm0 0" style="stroke:none;fill-rule:nonzero;fill:#aa5323;fill-opacity:1"/><path d="M20.5 7.047s.18-.016.203.074c0 0 .39-.27.477-.379.086-.113-.032-.047.191-.195q.54-.362 1.055-.754c.105-.094.304-.219.465-.328.156-.11.777-.418.707-.672l-.555.375c-.105.074-.152.035-.254.117s-.332.25-.371.3q-.27.236-.563.435c-.171.12-.55.34-.738.507l-.617.524Zm0 0" style="stroke:none;fill-rule:nonzero;fill:#aa5323;fill-opacity:1"/><path d="M19.938 7s.09 0 .12.035c0 0 .169-.156.348 0 0 0 .657-.457.723-.57s.176-.117.43-.3c.257-.192.418-.274.586-.407.171-.133.316-.29.437-.367.121-.079.43-.286.383-.461 0 0-.254.14-.414.324-.164.18-.149.027-.317.176-.191.18-.406.336-.636.465-.215.105-.086.093-.243.199-.152.097-.14.078-.195.097a.4.4 0 0 0-.2.118c-.062.066-.21.16-.374.257q-.344.188-.648.434" style="stroke:none;fill-rule:nonzero;fill:#aa5323;fill-opacity:1"/><path d="M20.137 6.648s-.04-.074.027-.128c.066-.055.18-.192.195-.278s.004-.074.188-.148a7.5 7.5 0 0 0 1.492-.856c.07-.062.25-.183.324-.246 0 0 .032.098-.047.164a8 8 0 0 1-.84.59 4 4 0 0 0-.374.219c-.075.062-.063.078-.399.25-.332.16-.351.183-.34.195.012.012.164-.055.235-.098.07-.042.343-.167.43-.238.085-.07.179-.136.273-.195q.357-.211.703-.445c.137-.106.176-.137.207-.118s.078.016.016.079a4 4 0 0 1-.34.289c-.078.05-.317.199-.383.23-.067.04-.094.098-.133.125s-.144.11-.273.14c-.13.032-.157.13-.246.188-.09.059-.704.399-.723.41 0 0 .035-.039.008-.129" style="stroke:none;fill-rule:nonzero;fill:#aa5323;fill-opacity:1"/><path d="M22.277 5.242s-.035.031-.015.047c.023.024.11.086.218-.023q.23-.218.489-.399c.09-.058.14-.11.136-.183 0 0-.445.238-.828.558m.61-.039s.066-.117.234-.226c.168-.11.422-.266.45-.301 0 0 .062.066-.067.148l-.422.278a.5.5 0 0 1-.195.101" style="stroke:none;fill-rule:nonzero;fill:#aa5323;fill-opacity:1"/><path d="M19.492 6.453s-.187.102-.12.164c.066.059.163.04.21.024l.125-.04c.016 0 .176-.05.219-.124a1 1 0 0 1 .234-.23c.086-.063.117-.126.106-.173Zm-1.11.871s.134-.082.313-.027c0 0-.008-.047-.039-.07 0 0 .223-.059.27-.157.047-.101.058-.078.097-.105.047-.031.34-.266.305-.32-.035-.051-.039-.122-.066-.145 0 0-.059.082-.352.227-.281.14-.601.242-.836.562-.234.316-.207.496.078.582 0 0 .196-.129.688-.086.484.043.648.23.68.262.03.035.128.16.035.36 0 0 .097.042.101-.052.012-.09.016-.07.04-.058.023.012.05.02.038-.055a.66.66 0 0 0-.09-.285c-.042-.059.008-.031.036-.023.027.007.129.097.07-.059-.059-.152-.078-.082-.078-.074 0 .011-.016.047-.149-.055a1 1 0 0 0-.343-.172c-.09-.027-.028-.027.027-.043.055-.023.121-.031.148-.093 0 0-.054.011-.148-.024a.5.5 0 0 0-.45.078s.048-.176-.097-.168c-.14.012-.242.008-.39.125 0 0-.012-.183.132-.277s.125-.04.203-.063.09-.105.055-.136c0 0 .188.039.5-.227 0 0-.168.223-.37.27 0 0-.036.117-.224.144-.187.027-.18.137-.18.164Zm0 0" style="stroke:none;fill-rule:nonzero;fill:#7b3c20;fill-opacity:1"/><path d="M17.852 8.418s.085-.559.605-.598c.445-.039.59.02.68.055.09.031.312.094.226.164s-.136.059-.136.059.097-.114.007-.13c-.09-.019-.093.036-.105.079-.016.05-.02.101-.063.144 0 0-.046-.058-.113-.007-.066.046-.008.046.02.039.027-.008.058-.02.05.02-.007.038-.039.109-.148.163-.11.059-.102.051-.227.078-.128.02-.246.07-.41.207-.164.145-.34.098-.375-.058-.031-.133-.015-.215-.015-.215Zm0 0" style="stroke:none;fill-rule:nonzero;fill:#5a3719;fill-opacity:1"/><path d="M18.438 8.398s.046-.105-.04-.156c0 0-.27.047-.351-.035 0 0 .293-.016.476-.094.18-.066.13-.117.067-.133-.063-.015-.18.02-.192.079 0 0-.039-.063.008-.102a.18.18 0 0 1 .184-.031c.066.015.12.047.336-.067 0 0 .12.032.129.114 0 .086-.012.117-.024.129q-.01.034-.05.039c-.024-.008-.06-.012-.09.05a.34.34 0 0 1-.102.145s.059-.184-.098-.227c0 0-.128.082-.226.086 0 0 .125.117-.031.203Zm0 0" style="stroke:none;fill-rule:nonzero;fill:#000;fill-opacity:1"/><path d="M18.723 8.066s-.063-.062.015-.074c.078-.004.18.055.164.106-.023.047-.117.043-.18-.032" style="stroke:none;fill-rule:nonzero;fill:#5a3719;fill-opacity:1"/><path d="M23.148 7.188s-.144.039-.007.132c.132.09.195.164.293.188.097.027.195.058.195.16 0 .098-.02.137-.074.207-.055.066.03.094.101.059.07-.036.13-.063.176-.09.043-.028.117-.024.055.011-.075.043-.145.063-.055.063.09.004.633.016.746-.023.113-.043.266-.051.274-.2 0 0 .007-.062.05-.093.04-.028.07-.094.008-.051q-.093.074-.117.054c-.012-.011-.02-.023.027-.046.047-.02.07 0 .114-.059.039-.062.039-.055.015-.078-.023-.024-.07-.04-.047-.07.024-.032.047-.122-.054-.067-.102.05-.297.188-.391.207-.086.02-.156.047-.277.07a1.1 1.1 0 0 0-.332.133c-.13.07-.118-.043-.098-.058 0 0 .05.09.184-.028.132-.117.09-.004.414-.117.324-.11.246-.12.37-.187.126-.07.25-.075.157-.16-.086-.094-.094-.098-.207 0a1.35 1.35 0 0 1-.625.253s.734-.316.66-.363a.8.8 0 0 0-.207-.101c-.05-.012-.066-.024-.183.03-.118.06-.137.067-.168.071q-.063-.006-.274.094c-.14.074-.215.101-.312.16 0 0 .066-.133.355-.219.29-.086.434-.168.406-.183a.3.3 0 0 0-.156-.02c-.059.012-.039-.004-.219.067-.18.074-.101.058-.242.09-.144.027-.2.058-.27.09 0 0 .032-.04.122-.075.05-.016-.051-.035.086-.039h.039a1.3 1.3 0 0 0 .336-.133.67.67 0 0 0-.371.063c-.176.082-.098.054-.157.062a.8.8 0 0 0-.234.133c-.043.035-.106.059-.106.059Zm0 0" style="stroke:none;fill-rule:nonzero;fill:#fff;fill-opacity:1"/><path d="M18.855 7.988s.07.02.086.07c.02.047.063-.023.063-.042-.004-.024-.047-.118-.117-.075-.078.043-.04.043-.032.047" style="stroke:none;fill-rule:nonzero;fill:#5a3719;fill-opacity:1"/><path d="M18.668 8.945s.145-.07.27-.058c0 0-.051-.176.035-.149.082.035.058.016.078.016 0 0 .004-.113-.02-.156 0 0 .09.02.18.02 0 0-.086-.165.008-.278a.28.28 0 0 0 .164.137v-.094s.066-.012.117.015c.055.032.098-.3-.059-.367 0 0-.039.059-.183.09-.145.031-.145.063-.203.172-.059.11-.117.113-.242.2a.6.6 0 0 0-.196.25s.059.081.051.202" style="stroke:none;fill-rule:nonzero;fill:#7b3c20;fill-opacity:1"/><path d="M23.559 7.04c.05-.009-.055-.036.078-.04h.039c.117-.027.234-.07.34-.133a.7.7 0 0 0-.371.059c-.172.086-.098.058-.157.07a.7.7 0 0 0-.234.129c-.043.035-.106.059-.106.059s-.144.039-.007.136c.132.09.195.164.293.188.097.027.195.058.195.16a.3.3 0 0 1-.074.207c-.051.066.03.094.101.059.07-.036.13-.063.176-.09.043-.028.117-.024.05.011-.07.043-.14.063-.05.063.09.004.633.016.746-.023.113-.043.266-.051.274-.2 0 0 .007-.062.05-.093.04-.028.07-.094.008-.051-.058.047-.11.07-.117.054-.008-.015-.02-.023.027-.046.047-.02.07 0 .114-.059.039-.062.039-.055.015-.078l-.039-.035s-.035-.028-.074-.004c-.086.047-.18.082-.273.105a.9.9 0 0 0-.254.098c-.168.086-.32.18-.352.066l-.11.04c-.132.07-.117-.028-.097-.055 0 0-.07.078-.066.008 0-.07.046-.06.128-.086.083-.024.196-.079.149-.118s-.106.04-.164.07c-.055.028-.168.048-.188-.034s-.015-.141-.168-.149c-.156-.008-.152-.11-.109-.152.043-.043.078-.11.223-.137Zm0 0" style="stroke:none;fill-rule:nonzero;fill:#999;fill-opacity:1"/><path d="M24.047 7.793s.238-.11.457-.16c.223-.051.047.008.012.015a7 7 0 0 0-.461.165c-.078.039-.067.007-.008-.016Zm.055.05s.27-.09.32-.054c.05.04.008.024-.05.031-.063.004-.224.032-.267.032s-.003-.008-.003-.008m.43-.098s.054-.008.058.016c.004.015-.024.02-.05.015-.028-.004-.052-.02-.005-.03Zm0 0" style="stroke:none;fill-rule:nonzero;fill:#000;fill-opacity:1"/><path d="M17.422 10.129s-.012-.246.11-.363c.12-.121.695-.735.784-.903 0 0 .079.051.079.149 0 0 .097-.168.175-.235 0 0 .067.07.059.211 0 0 .137-.074.351-.074 0 0-.078.094-.082.156 0 0 .297-.043.457-.011 0 0-.414.234-.3.254.12.019.242 0 .242 0s-.133.132-.344.16c0 0 .27 0 .32.058 0 0-.257.04-.468.2 0 0-.016-.008-.016-.067 0 0-.012.055-.07.106-.059.046-.2.156-.254.21-.055.051-.149.157-.258.157 0 0 .023-.082-.055-.11a.23.23 0 0 0-.234.059s-.273.004-.367.02c0 0 .062-.102.117-.102.062 0 .297.039.316-.129.024-.156-.148-.117-.086-.21.067-.099.051-.09.055-.106 0 0-.055.03-.086.12a.44.44 0 0 1-.164.235.6.6 0 0 0-.187.2s-.051 0-.094.015" style="stroke:none;fill-rule:nonzero;fill:#fff;fill-opacity:1"/><path d="M17.688 9.984s.011-.03.09-.05c.085-.012.09-.051.077-.07-.011-.02-.058-.016.02-.11 0 0 .031.012.047.031.023.024.113.219-.235.2" style="stroke:none;fill-rule:nonzero;fill:#fff;fill-opacity:1"/><path d="M17.496 9.813c0 .16.207.097.207.097a1 1 0 0 0-.148.145c.015-.078-.117-.098-.117-.098a.5.5 0 0 1 .058-.145m.754-.851.066-.098s.079.051.079.149c0 0 .097-.168.175-.235 0 0 .067.07.059.211 0 0 .137-.074.351-.074 0 0-.078.094-.082.156 0 0 .297-.043.457-.011 0 0-.414.234-.3.254.12.019.242 0 .242 0s-.133.132-.344.16c0 0 .27 0 .32.058 0 0-.078.012-.18.047 0 0-.073-.07-.296-.058 0 0 .172-.102.312-.133 0 0-.062-.082-.156-.004 0 0-.191-.133-.031-.246 0 0-.11-.02-.184.031 0 0 0-.09.082-.133 0 0-.21-.039-.261.121 0 0-.04-.058-.02-.136 0 0-.129.078-.187.16 0 0-.02-.16-.102-.22m-.406 1.017a1 1 0 0 1-.157.007c-.003-.004.012-.015.051-.043 0 0 .016.036.106.036" style="stroke:none;fill-rule:nonzero;fill:#999;fill-opacity:1"/><path d="M18.227 9.371s.097.078.128.117c0 0 .09-.054.118-.105 0 0 .074.043.093.11 0 0 .051-.032.059-.079 0 0 .117.024.164.063 0 0 .016-.118 0-.192 0 0 .082.008.133.027 0 0-.047-.078.195-.175 0 0-.183.043-.254.117 0 0-.078.008-.113-.016v.18s-.047-.023-.137-.043c0 0-.023.04-.039.047 0 0-.058-.047-.082-.11 0 0-.09.086-.117.122 0 0-.09-.063-.148-.063" style="stroke:none;fill-rule:nonzero;fill:#000;fill-opacity:1"/><path d="M17.676 10.582s.039.016.129-.059c.09-.07.34-.23.36-.363.026-.129-.08-.133-.157-.098-.086.04-.051.106-.047.133 0 .024.008.117-.129.239Zm0 0" style="stroke:none;fill-rule:nonzero;fill:#ffc221;fill-opacity:1"/><path d="M17.652 10.621s-.203-.09-.023-.18.262-.113.281-.191c.024-.078.008-.062-.058-.031-.067.031-.32.152-.36.043 0 0 .106.039.235-.028.132-.066.242-.082.156-.109a1.4 1.4 0 0 0-.43.02c-.055.015-.039.011-.05.062a.6.6 0 0 1-.087.188c-.02.03-.07.16.024.218.098.051.21.055.312.008" style="stroke:none;fill-rule:nonzero;fill:#ffc221;fill-opacity:1"/><path d="M17.574 10.172s-.05.008-.039.027q.011.026.04.016c.01 0 .038-.008.042-.02 0-.011-.031-.027-.043-.02Zm0 0" style="stroke:none;fill-rule:nonzero;fill:#000;fill-opacity:1"/><path d="M17.637 10.574s-.094-.047.015-.105c.11-.059.22-.117.235-.14 0 0-.051.073-.25.245" style="stroke:none;fill-rule:nonzero;fill:#fff;fill-opacity:1"/></svg>