<svg xmlns="http://www.w3.org/2000/svg" width="25" height="px" viewBox="0 0 25 19"><path d="M0 0h25v19H0z" style="fill:#0039a6;fill-opacity:1;stroke:none"/><path d="M18.125 9.5c0-3.148-2.52-5.7-5.625-5.7S6.875 6.353 6.875 9.5s2.52 5.7 5.625 5.7 5.625-2.552 5.625-5.7m0 0" style="stroke:none;fill-rule:nonzero;fill:#fff;fill-opacity:1"/><path d="M17.863 9.5c0-3-2.402-5.434-5.363-5.434-2.96 0-5.363 2.434-5.363 5.434s2.402 5.434 5.363 5.434c2.96 0 5.363-2.434 5.363-5.434m0 0" style="stroke:none;fill-rule:nonzero;fill:#ed2939;fill-opacity:1"/><path d="M11.055 9.5c-.938-.57-1.367-1.71-1.367-2.852h.43v.04c0 .378.058 1.765 1.089 2.812a4.2 4.2 0 0 0-1.09 2.813v.039h-.43c0-1.141.45-2.282 1.368-2.852" style="stroke:none;fill-rule:nonzero;fill:#f9e300;fill-opacity:1"/><path d="M10.25 6.688v-.04h.45v.059c0 .379.073 1.711.808 2.793-.75 1.082-.809 2.414-.809 2.793v.059h-.449v-.04c0-.378.094-1.765 1.086-2.812a4.2 4.2 0 0 1-1.086-2.812" style="stroke:none;fill-rule:nonzero;fill:#f9e300;fill-opacity:1"/><path d="m11.676 9.5-.04-.04a5.15 5.15 0 0 1-.784-2.753v-.059h.41v.079c0 .398.058 1.671.562 2.773a7.3 7.3 0 0 0-.562 2.773v.079h-.41v-.059c0-.379.035-1.578.785-2.754" style="stroke:none;fill-rule:nonzero;fill:#f9e300;fill-opacity:1"/><path d="M11.977 9.5a7.1 7.1 0 0 1-.563-2.852h.43v.133c0 .477.039 1.637.281 2.719a13.5 13.5 0 0 0-.281 2.719v.133h-.414v-.079c0-.398.039-1.71.527-2.753" style="stroke:none;fill-rule:nonzero;fill:#f9e300;fill-opacity:1"/><path d="M12.273 9.5a13.5 13.5 0 0 1-.261-2.719v-.133h.414v5.704h-.414v-.133c0-.457 0-1.637.261-2.7M13.945 9.5c.938-.57 1.367-1.71 1.367-2.852h-.43v.04c0 .378-.058 1.765-1.089 2.812a4.2 4.2 0 0 1 1.09 2.813v.039h.43c0-1.141-.45-2.282-1.368-2.852" style="stroke:none;fill-rule:nonzero;fill:#f9e300;fill-opacity:1"/><path d="M14.75 6.688v-.04h-.45v.059c0 .379-.073 1.711-.808 2.793.75 1.082.809 2.414.809 2.793v.059h.449v-.04c0-.378-.094-1.765-1.086-2.812a4.2 4.2 0 0 0 1.086-2.812" style="stroke:none;fill-rule:nonzero;fill:#f9e300;fill-opacity:1"/><path d="m13.324 9.5.04-.04a5.15 5.15 0 0 0 .784-2.753v-.059h-.41v.079c0 .398-.058 1.671-.562 2.773.367.879.558 1.82.562 2.773v.079h.41v-.059c0-.379-.035-1.578-.785-2.754" style="stroke:none;fill-rule:nonzero;fill:#f9e300;fill-opacity:1"/><path d="M13.023 9.5a7.1 7.1 0 0 0 .563-2.852h-.43v.133c0 .477-.039 1.637-.281 2.719.184.895.281 1.805.281 2.719v.133h.414v-.079c0-.398-.039-1.71-.527-2.753" style="stroke:none;fill-rule:nonzero;fill:#f9e300;fill-opacity:1"/><path d="M12.727 9.5c.18-.895.265-1.805.261-2.719v-.133h-.414v5.704h.414v-.133c0-.457 0-1.637-.261-2.7" style="stroke:none;fill-rule:nonzero;fill:#f9e300;fill-opacity:1"/></svg>