<?xml version="1.0" encoding="UTF-8"?>
<svg xmlns="http://www.w3.org/2000/svg" xmlns:xlink="http://www.w3.org/1999/xlink" width="25px" height="px" viewBox="0 0 25 19" version="1.1">
<g id="surface1">
<rect x="0" y="0" width="25" height="19" style="fill:rgb(0%,22.352941%,65.098041%);fill-opacity:1;stroke:none;"/>
<path style=" stroke:none;fill-rule:nonzero;fill:rgb(100%,100%,100%);fill-opacity:1;" d="M 18.125 9.5 C 18.125 6.351562 15.605469 3.800781 12.5 3.800781 C 9.394531 3.800781 6.875 6.351562 6.875 9.5 C 6.875 12.648438 9.394531 15.199219 12.5 15.199219 C 15.605469 15.199219 18.125 12.648438 18.125 9.5 Z M 18.125 9.5 "/>
<path style=" stroke:none;fill-rule:nonzero;fill:rgb(92.941177%,16.078432%,22.352941%);fill-opacity:1;" d="M 17.863281 9.5 C 17.863281 6.5 15.460938 4.066406 12.5 4.066406 C 9.539062 4.066406 7.136719 6.5 7.136719 9.5 C 7.136719 12.5 9.539062 14.933594 12.5 14.933594 C 15.460938 14.933594 17.863281 12.5 17.863281 9.5 Z M 17.863281 9.5 "/>
<path style=" stroke:none;fill-rule:nonzero;fill:rgb(97.647059%,89.019608%,0%);fill-opacity:1;" d="M 11.054688 9.5 C 10.117188 8.929688 9.6875 7.789062 9.6875 6.648438 L 10.117188 6.648438 L 10.117188 6.6875 C 10.117188 7.066406 10.175781 8.453125 11.207031 9.5 C 10.511719 10.265625 10.121094 11.269531 10.117188 12.3125 L 10.117188 12.351562 L 9.6875 12.351562 C 9.6875 11.210938 10.136719 10.070312 11.054688 9.5 "/>
<path style=" stroke:none;fill-rule:nonzero;fill:rgb(97.647059%,89.019608%,0%);fill-opacity:1;" d="M 10.25 6.6875 L 10.25 6.648438 L 10.699219 6.648438 L 10.699219 6.707031 C 10.699219 7.085938 10.773438 8.417969 11.507812 9.5 C 10.757812 10.582031 10.699219 11.914062 10.699219 12.292969 L 10.699219 12.351562 L 10.25 12.351562 L 10.25 12.3125 C 10.25 11.933594 10.34375 10.546875 11.335938 9.5 C 10.640625 8.734375 10.253906 7.730469 10.25 6.6875 "/>
<path style=" stroke:none;fill-rule:nonzero;fill:rgb(97.647059%,89.019608%,0%);fill-opacity:1;" d="M 11.675781 9.5 L 11.636719 9.460938 C 11.121094 8.636719 10.847656 7.683594 10.851562 6.707031 L 10.851562 6.648438 L 11.261719 6.648438 L 11.261719 6.726562 C 11.261719 7.125 11.320312 8.398438 11.824219 9.5 C 11.457031 10.378906 11.265625 11.320312 11.261719 12.273438 L 11.261719 12.351562 L 10.851562 12.351562 L 10.851562 12.292969 C 10.851562 11.914062 10.886719 10.714844 11.636719 9.539062 "/>
<path style=" stroke:none;fill-rule:nonzero;fill:rgb(97.647059%,89.019608%,0%);fill-opacity:1;" d="M 11.976562 9.5 C 11.59375 8.601562 11.402344 7.628906 11.414062 6.648438 L 11.84375 6.648438 L 11.84375 6.78125 C 11.84375 7.257812 11.882812 8.417969 12.125 9.5 C 11.941406 10.394531 11.84375 11.304688 11.84375 12.21875 L 11.84375 12.351562 L 11.429688 12.351562 L 11.429688 12.273438 C 11.429688 11.875 11.46875 10.5625 11.957031 9.519531 "/>
<path style=" stroke:none;fill-rule:nonzero;fill:rgb(97.647059%,89.019608%,0%);fill-opacity:1;" d="M 12.273438 9.5 C 12.09375 8.605469 12.007812 7.695312 12.011719 6.78125 L 12.011719 6.648438 L 12.425781 6.648438 L 12.425781 12.351562 L 12.011719 12.351562 L 12.011719 12.21875 C 12.011719 11.761719 12.011719 10.582031 12.273438 9.519531 "/>
<path style=" stroke:none;fill-rule:nonzero;fill:rgb(97.647059%,89.019608%,0%);fill-opacity:1;" d="M 13.945312 9.5 C 14.882812 8.929688 15.3125 7.789062 15.3125 6.648438 L 14.882812 6.648438 L 14.882812 6.6875 C 14.882812 7.066406 14.824219 8.453125 13.792969 9.5 C 14.488281 10.265625 14.878906 11.269531 14.882812 12.3125 L 14.882812 12.351562 L 15.3125 12.351562 C 15.3125 11.210938 14.863281 10.070312 13.945312 9.5 "/>
<path style=" stroke:none;fill-rule:nonzero;fill:rgb(97.647059%,89.019608%,0%);fill-opacity:1;" d="M 14.75 6.6875 L 14.75 6.648438 L 14.300781 6.648438 L 14.300781 6.707031 C 14.300781 7.085938 14.226562 8.417969 13.492188 9.5 C 14.242188 10.582031 14.300781 11.914062 14.300781 12.292969 L 14.300781 12.351562 L 14.75 12.351562 L 14.75 12.3125 C 14.75 11.933594 14.65625 10.546875 13.664062 9.5 C 14.359375 8.734375 14.746094 7.730469 14.75 6.6875 "/>
<path style=" stroke:none;fill-rule:nonzero;fill:rgb(97.647059%,89.019608%,0%);fill-opacity:1;" d="M 13.324219 9.5 L 13.363281 9.460938 C 13.878906 8.636719 14.152344 7.683594 14.148438 6.707031 L 14.148438 6.648438 L 13.738281 6.648438 L 13.738281 6.726562 C 13.738281 7.125 13.679688 8.398438 13.175781 9.5 C 13.542969 10.378906 13.734375 11.320312 13.738281 12.273438 L 13.738281 12.351562 L 14.148438 12.351562 L 14.148438 12.292969 C 14.148438 11.914062 14.113281 10.714844 13.363281 9.539062 "/>
<path style=" stroke:none;fill-rule:nonzero;fill:rgb(97.647059%,89.019608%,0%);fill-opacity:1;" d="M 13.023438 9.5 C 13.40625 8.601562 13.597656 7.628906 13.585938 6.648438 L 13.15625 6.648438 L 13.15625 6.78125 C 13.15625 7.257812 13.117188 8.417969 12.875 9.5 C 13.058594 10.394531 13.15625 11.304688 13.15625 12.21875 L 13.15625 12.351562 L 13.570312 12.351562 L 13.570312 12.273438 C 13.570312 11.875 13.53125 10.5625 13.042969 9.519531 "/>
<path style=" stroke:none;fill-rule:nonzero;fill:rgb(97.647059%,89.019608%,0%);fill-opacity:1;" d="M 12.726562 9.5 C 12.90625 8.605469 12.992188 7.695312 12.988281 6.78125 L 12.988281 6.648438 L 12.574219 6.648438 L 12.574219 12.351562 L 12.988281 12.351562 L 12.988281 12.21875 C 12.988281 11.761719 12.988281 10.582031 12.726562 9.519531 "/>
</g>
</svg>
