<svg xmlns="http://www.w3.org/2000/svg" width="25" height="px" viewBox="0 0 25 19"><path d="M0 0h25v19H0z" style="fill:#00008b;fill-opacity:1;stroke:none"/><path d="M1.465 0 6.23 3.582 10.977 0H12.5v1.227L7.813 4.77 12.5 8.293V9.5h-1.562L6.25 5.957 1.582 9.5H0V8.313l4.668-3.524L0 1.266V0Zm0 0" style="stroke:none;fill-rule:nonzero;fill:#fff;fill-opacity:1"/><path d="M8.281 5.563 12.5 8.707V9.5L7.207 5.563Zm-3.594.394.118.691L1.055 9.5H0ZM12.5 0v.059L7.637 3.78l.039-.87L11.523 0ZM0 0l4.668 3.484H3.496L0 .832Zm0 0" style="stroke:none;fill-rule:nonzero;fill:red;fill-opacity:1"/><path d="M4.707 0v9.5h3.125V0ZM0 3.168v3.164h12.5V3.168Zm0 0" style="stroke:none;fill-rule:nonzero;fill:#fff;fill-opacity:1"/><path d="M0 3.82V5.72h12.5V3.82ZM5.332 0v9.5h1.875V0Zm0 0" style="stroke:none;fill-rule:nonzero;fill:red;fill-opacity:1"/><path d="m20.586 15.703-.8.102.085.812-.578-.57-.574.574.078-.812-.8-.094.675-.445-.426-.692.766.258.27-.774.277.77.761-.266-.418.696Zm-.145-4.64.106-.512-.383-.36.516-.058.215-.477.214.477.516.058-.383.36.106.511-.453-.261Zm-4.066-2.376-.793.09.07.801-.562-.574-.578.559.093-.801-.789-.11.676-.425-.41-.696.754.27.281-.754.262.762.758-.25-.426.687.668.441Zm7.96-1.296-.815.105.09.828-.59-.582-.586.586.082-.832-.817-.094.692-.457-.434-.707.781.266.274-.785.281.785.777-.274-.43.711Zm-3.753-3.305-.809.09.075.824-.575-.586-.59.57.094-.82-.808-.11.691-.437-.418-.707.77.274.285-.774.265.781.774-.257-.434.695ZM9.141 15.266l-1.79.214.18 1.817-1.281-1.281-1.29 1.273.192-1.816-1.789-.23 1.52-.981-.938-1.559 1.703.594.618-1.719.605 1.723 1.707-.582-.95 1.55 1.517.993Zm0 0" style="stroke:none;fill-rule:nonzero;fill:#fff;fill-opacity:1"/></svg>