<svg xmlns="http://www.w3.org/2000/svg" width="25" height="px" viewBox="0 0 25 19"><path d="M0 0h25v19H0z" style="fill:#39c;fill-opacity:1;stroke:none"/><path d="M0 12.668v1.055h28.125v-1.055Zm0 2.11v1.054h28.125v-1.055Zm0 0" style="stroke:none;fill-rule:nonzero;fill:#ff0;fill-opacity:1"/><path d="m5.574 1.11.114.117Zm-.117.238.117.117Zm.23 0 .118.117Zm0 0" style="stroke:none;fill-rule:nonzero;fill:#9cc;fill-opacity:1"/><path d="m5.457 1.465.117.113-.117-.117m.23 0 .118.117Zm0 0" style="stroke:none;fill-rule:nonzero;fill:#ccf;fill-opacity:1"/><path d="m5.34 1.695.117.117Zm0 0" style="stroke:none;fill-rule:nonzero;fill:#6cc;fill-opacity:1"/><path d="m5.574 1.695.114.117Zm0 0" style="stroke:none;fill-rule:nonzero;fill:#c66;fill-opacity:1"/><path d="m5.805 1.695.113.117Zm0 0" style="stroke:none;fill-rule:nonzero;fill:#6cc;fill-opacity:1"/><path d="m5.34 1.813.117.12Zm.465 0 .113.12Zm0 0" style="stroke:none;fill-rule:nonzero;fill:#ccf;fill-opacity:1"/><path d="m5.457 1.926.117.12Zm.23 0 .118.12Zm0 0" style="stroke:none;fill-rule:nonzero;fill:#fcc;fill-opacity:1"/><path d="m5.227 2.047.117.117Zm0 0" style="stroke:none;fill-rule:nonzero;fill:#6cc;fill-opacity:1"/><path d="M142.2 34.046 121.5 112.5l-78.7 21.513 78.4 20.526 21 78.356 20.9-78.356 78.4-21.02-78.4-20.92-21-78.356Zm0 0" style="fill-rule:nonzero;fill:#c00;fill-opacity:1;stroke-width:3.7;stroke-linecap:butt;stroke-linejoin:miter;stroke:#fff;stroke-opacity:1;stroke-miterlimit:4" transform="scale(.03906 .03958)"/><path d="m5.918 2.047.117.117Zm0 0" style="stroke:none;fill-rule:nonzero;fill:#6cc;fill-opacity:1"/><path d="m5.227 2.16.117.121Zm.691 0 .117.121Zm0 0" style="stroke:none;fill-rule:nonzero;fill:#9cf;fill-opacity:1"/><path d="m5.34 2.281.117.117Zm.465 0 .113.117Zm0 0" style="stroke:none;fill-rule:nonzero;fill:#fcc;fill-opacity:1"/><path d="m5.11 2.395.117.117Zm0 0" style="stroke:none;fill-rule:nonzero;fill:#69c;fill-opacity:1"/><path d="m5.379 2.473.039.082Zm.46 0 .04.082Zm0 0" style="stroke:none;fill-rule:nonzero;fill:#c33;fill-opacity:1"/><path d="m6.035 2.395.117.117Zm0 0" style="stroke:none;fill-rule:nonzero;fill:#69c;fill-opacity:1"/><path d="m5.11 2.512.117.12Zm.925 0 .117.12Zm0 0" style="stroke:none;fill-rule:nonzero;fill:#9cf;fill-opacity:1"/><path d="m5.227 2.629.117.117Zm.691 0 .117.117Zm0 0" style="stroke:none;fill-rule:nonzero;fill:#fcc;fill-opacity:1"/><path d="m4.996 2.746.117.121Zm1.152 0 .118.121Zm0 0" style="stroke:none;fill-rule:nonzero;fill:#69c;fill-opacity:1"/><path d="m4.996 2.863.117.117Zm1.152 0 .118.117Zm0 0" style="stroke:none;fill-rule:nonzero;fill:#9cc;fill-opacity:1"/><path d="m4.996 2.98.117.118Zm1.152 0 .118.118Zm0 0" style="stroke:none;fill-rule:nonzero;fill:#cff;fill-opacity:1"/><path d="m4.883 3.098.113.117Zm0 0" style="stroke:none;fill-rule:nonzero;fill:#69c;fill-opacity:1"/><path d="m5.11 3.098.117.117Zm.925 0 .117.12Zm0 0" style="stroke:none;fill-rule:nonzero;fill:#fcc;fill-opacity:1"/><path d="m6.266 3.098.117.117Zm0 0" style="stroke:none;fill-rule:nonzero;fill:#69c;fill-opacity:1"/><path d="m4.883 3.215.113.117Zm0 0" style="stroke:none;fill-rule:nonzero;fill:#9cc;fill-opacity:1"/><path d="m5.148 3.293.04.078Zm.922 0 .04.078Zm0 0" style="stroke:none;fill-rule:nonzero;fill:#c33;fill-opacity:1"/><path d="m6.266 3.215.117.117Zm0 0" style="stroke:none;fill-rule:nonzero;fill:#9cc;fill-opacity:1"/><path d="m4.883 3.332.113.121Zm1.387 0 .117.121Zm0 0" style="stroke:none;fill-rule:nonzero;fill:#cff;fill-opacity:1"/><path d="m4.996 3.45.117.116Zm1.152 0 .118.116Zm0 0" style="stroke:none;fill-rule:nonzero;fill:#fcc;fill-opacity:1"/><path d="m4.766 3.563.117.117Zm0 0" style="stroke:none;fill-rule:nonzero;fill:#9cc;fill-opacity:1"/><path d="m5.035 3.64.04.083Zm1.152 0 .04.083Zm0 0" style="stroke:none;fill-rule:nonzero;fill:#c33;fill-opacity:1"/><path d="m6.379 3.563.117.117Zm0 0" style="stroke:none;fill-rule:nonzero;fill:#9cc;fill-opacity:1"/><path d="m4.766 3.68.117.12Zm1.613 0 .117.12Zm0 0" style="stroke:none;fill-rule:nonzero;fill:#ccf;fill-opacity:1"/><path d="m4.883 3.8.113.118Zm1.387 0 .117.118Zm0 0" style="stroke:none;fill-rule:nonzero;fill:#fcc;fill-opacity:1"/><path d="m4.648 3.918.118.117Zm0 0" style="stroke:none;fill-rule:nonzero;fill:#9cc;fill-opacity:1"/><path d="m4.922 3.992.035.082Zm1.383 0 .039.082Zm0 0" style="stroke:none;fill-rule:nonzero;fill:#c33;fill-opacity:1"/><path d="m6.496 3.918.117.117Zm0 0" style="stroke:none;fill-rule:nonzero;fill:#9cc;fill-opacity:1"/><path d="m4.648 4.035.118.117Zm1.848 0 .117.117Zm0 0" style="stroke:none;fill-rule:nonzero;fill:#ccf;fill-opacity:1"/><path d="m4.766 4.148.117.118Zm1.613 0 .117.118Zm0 0" style="stroke:none;fill-rule:nonzero;fill:#fcc;fill-opacity:1"/><path d="m4.531 4.266.117.12Zm0 0" style="stroke:none;fill-rule:nonzero;fill:#9cc;fill-opacity:1"/><path d="m4.766 4.266.117.12Zm1.613 0 .117.12Zm0 0" style="stroke:none;fill-rule:nonzero;fill:#c33;fill-opacity:1"/><path d="m6.61 4.266.117.12Zm-2.423.12.118.114Zm0 0" style="stroke:none;fill-rule:nonzero;fill:#9cc;fill-opacity:1"/><path d="m4.305 4.383.117.117Zm2.539 0 .113.117Zm0 0" style="stroke:none;fill-rule:nonzero;fill:#ccf;fill-opacity:1"/><path d="m6.953 4.383.117.117Zm-3.11.117.118.121Zm0 0" style="stroke:none;fill-rule:nonzero;fill:#9cc;fill-opacity:1"/><path d="m3.957 4.5.117.121Zm0 0" style="stroke:none;fill-rule:nonzero;fill:#ccf;fill-opacity:1"/><path d="m4.418 4.5.117.121Zm0 0" style="stroke:none;fill-rule:nonzero;fill:#fcc;fill-opacity:1"/><path d="m4.531 4.5.117.121Zm2.078 0 .118.121Zm0 0" style="stroke:none;fill-rule:nonzero;fill:#c33;fill-opacity:1"/><path d="m6.727 4.5.117.121Zm0 0" style="stroke:none;fill-rule:nonzero;fill:#fcc;fill-opacity:1"/><path d="m7.188 4.5.117.121Zm0 0" style="stroke:none;fill-rule:nonzero;fill:#ccf;fill-opacity:1"/><path d="m7.305 4.5.113.121Zm0 0" style="stroke:none;fill-rule:nonzero;fill:#9cc;fill-opacity:1"/><path d="m3.383 4.617.117.117Zm0 0" style="stroke:none;fill-rule:nonzero;fill:#69c;fill-opacity:1"/><path d="m3.496 4.617.117.117Zm0 0" style="stroke:none;fill-rule:nonzero;fill:#9cc;fill-opacity:1"/><path d="m3.613 4.617.117.117Zm0 0" style="stroke:none;fill-rule:nonzero;fill:#cff;fill-opacity:1"/><path d="m4.074 4.617.117.117Zm0 0" style="stroke:none;fill-rule:nonzero;fill:#fcc;fill-opacity:1"/><path d="m4.266 4.656.078.04Zm2.652 0 .078.04Zm0 0" style="stroke:none;fill-rule:nonzero;fill:#c33;fill-opacity:1"/><path d="m7.07 4.617.117.117Zm0 0" style="stroke:none;fill-rule:nonzero;fill:#fcc;fill-opacity:1"/><path d="m7.531 4.617.117.117Zm0 0" style="stroke:none;fill-rule:nonzero;fill:#cff;fill-opacity:1"/><path d="m7.648 4.617.118.117Zm0 0" style="stroke:none;fill-rule:nonzero;fill:#9cc;fill-opacity:1"/><path d="m7.762 4.617.117.117Zm-4.727.117.117.118Zm0 0" style="stroke:none;fill-rule:nonzero;fill:#69c;fill-opacity:1"/><path d="m3.152 4.734.118.118Zm0 0" style="stroke:none;fill-rule:nonzero;fill:#9cc;fill-opacity:1"/><path d="m3.266 4.734.117.118Zm0 0" style="stroke:none;fill-rule:nonzero;fill:#cff;fill-opacity:1"/><path d="m3.727 4.734.117.118Zm0 0" style="stroke:none;fill-rule:nonzero;fill:#fcc;fill-opacity:1"/><path d="m3.918 4.773.078.04Zm3.344 0 .078.04Zm0 0" style="stroke:none;fill-rule:nonzero;fill:#c33;fill-opacity:1"/><path d="m7.418 4.734.117.118Zm0 0" style="stroke:none;fill-rule:nonzero;fill:#fcc;fill-opacity:1"/><path d="m7.879 4.734.117.118Zm0 0" style="stroke:none;fill-rule:nonzero;fill:#cff;fill-opacity:1"/><path d="m7.992 4.734.117.118Zm0 0" style="stroke:none;fill-rule:nonzero;fill:#9cc;fill-opacity:1"/><path d="m8.11 4.734.117.118Zm-5.422.118.117.117Zm0 0" style="stroke:none;fill-rule:nonzero;fill:#69c;fill-opacity:1"/><path d="m2.805 4.848.117.12Zm0 0" style="stroke:none;fill-rule:nonzero;fill:#9cf;fill-opacity:1"/><path d="m3.383 4.848.117.12Zm0 0" style="stroke:none;fill-rule:nonzero;fill:#fcc;fill-opacity:1"/><path d="m3.574 4.887.078.043Zm4.035 0 .079.043Zm0 0" style="stroke:none;fill-rule:nonzero;fill:#c33;fill-opacity:1"/><path d="m7.762 4.848.117.12Zm0 0" style="stroke:none;fill-rule:nonzero;fill:#fcc;fill-opacity:1"/><path d="m8.34 4.848.117.12Zm0 0" style="stroke:none;fill-rule:nonzero;fill:#9cf;fill-opacity:1"/><path d="m8.453 4.848.117.12Zm0 0" style="stroke:none;fill-rule:nonzero;fill:#69c;fill-opacity:1"/><path d="m2.344 4.969.117.117Zm0 0" style="stroke:none;fill-rule:nonzero;fill:#6cc;fill-opacity:1"/><path d="m2.46 4.969.114.117Zm0 0" style="stroke:none;fill-rule:nonzero;fill:#9cf;fill-opacity:1"/><path d="m2.922 4.969.113.117Zm5.305 0 .113.117Zm0 0" style="stroke:none;fill-rule:nonzero;fill:#fcc;fill-opacity:1"/><path d="m8.684 4.969.117.117Zm0 0" style="stroke:none;fill-rule:nonzero;fill:#9cf;fill-opacity:1"/><path d="m8.8 4.969.118.117Zm-6.804.117.117.117Zm0 0" style="stroke:none;fill-rule:nonzero;fill:#6cc;fill-opacity:1"/><path d="m2.11 5.082.117.121Zm0 0" style="stroke:none;fill-rule:nonzero;fill:#ccf;fill-opacity:1"/><path d="m2.574 5.082.117.121Zm0 0" style="stroke:none;fill-rule:nonzero;fill:#fcc;fill-opacity:1"/><path d="m2.766 5.121.078.04Zm5.652 0 .078.04Zm0 0" style="stroke:none;fill-rule:nonzero;fill:#c33;fill-opacity:1"/><path d="m8.57 5.082.117.121Zm0 0" style="stroke:none;fill-rule:nonzero;fill:#fcc;fill-opacity:1"/><path d="m9.031 5.082.117.121Zm0 0" style="stroke:none;fill-rule:nonzero;fill:#ccf;fill-opacity:1"/><path d="m9.148 5.082.118.121Zm0 0" style="stroke:none;fill-rule:nonzero;fill:#6cc;fill-opacity:1"/><path d="m1.652 5.203.118.117Zm0 0" style="stroke:none;fill-rule:nonzero;fill:#9cc;fill-opacity:1"/><path d="m1.766 5.203.117.117Zm0 0" style="stroke:none;fill-rule:nonzero;fill:#ccf;fill-opacity:1"/><path d="m2.227 5.203.117.117Zm6.691 0 .117.117Zm0 0" style="stroke:none;fill-rule:nonzero;fill:#fcc;fill-opacity:1"/><path d="m9.375 5.203.117.117Zm0 0" style="stroke:none;fill-rule:nonzero;fill:#ccf;fill-opacity:1"/><path d="m9.492 5.203.117.117Zm-8.07.117.117.114Zm0 0" style="stroke:none;fill-rule:nonzero;fill:#9cc;fill-opacity:1"/><path d="m1.996 5.316.117.118Zm7.149 0 .117.118Zm0 0" style="stroke:none;fill-rule:nonzero;fill:#c66;fill-opacity:1"/><path d="m9.727 5.316.113.118Zm-8.07.118.116.12Zm0 0" style="stroke:none;fill-rule:nonzero;fill:#9cc;fill-opacity:1"/><path d="m1.766 5.434.117.12Zm0 0" style="stroke:none;fill-rule:nonzero;fill:#ccf;fill-opacity:1"/><path d="m2.227 5.434.117.12Zm6.691 0 .117.12Zm0 0" style="stroke:none;fill-rule:nonzero;fill:#fcc;fill-opacity:1"/><path d="m9.375 5.434.117.12Zm0 0" style="stroke:none;fill-rule:nonzero;fill:#ccf;fill-opacity:1"/><path d="m9.492 5.434.117.12Zm0 0" style="stroke:none;fill-rule:nonzero;fill:#9cc;fill-opacity:1"/><path d="m1.996 5.555.117.113Zm0 0" style="stroke:none;fill-rule:nonzero;fill:#6cc;fill-opacity:1"/><path d="m2.11 5.555.117.113Zm0 0" style="stroke:none;fill-rule:nonzero;fill:#ccf;fill-opacity:1"/><path d="m2.574 5.555.117.113Zm0 0" style="stroke:none;fill-rule:nonzero;fill:#fcc;fill-opacity:1"/><path d="m2.766 5.59.078.039Zm5.652 0 .078.039Zm0 0" style="stroke:none;fill-rule:nonzero;fill:#c33;fill-opacity:1"/><path d="m8.57 5.555.117.113Zm0 0" style="stroke:none;fill-rule:nonzero;fill:#fcc;fill-opacity:1"/><path d="m9.031 5.555.117.113Zm0 0" style="stroke:none;fill-rule:nonzero;fill:#ccf;fill-opacity:1"/><path d="m9.148 5.555.118.113Zm-6.804.117.117.121Zm0 0" style="stroke:none;fill-rule:nonzero;fill:#6cc;fill-opacity:1"/><path d="m2.46 5.668.114.117Zm0 0" style="stroke:none;fill-rule:nonzero;fill:#9cf;fill-opacity:1"/><path d="m2.922 5.668.113.117Zm5.305 0 .113.117Zm0 0" style="stroke:none;fill-rule:nonzero;fill:#fcc;fill-opacity:1"/><path d="m8.684 5.668.117.117Zm0 0" style="stroke:none;fill-rule:nonzero;fill:#9cf;fill-opacity:1"/><path d="m8.8 5.668.118.117Zm0 0" style="stroke:none;fill-rule:nonzero;fill:#6cc;fill-opacity:1"/><path d="m2.688 5.785.117.117Zm0 0" style="stroke:none;fill-rule:nonzero;fill:#69c;fill-opacity:1"/><path d="m2.805 5.785.117.117Zm0 0" style="stroke:none;fill-rule:nonzero;fill:#9cf;fill-opacity:1"/><path d="m3.383 5.785.117.117Zm0 0" style="stroke:none;fill-rule:nonzero;fill:#fcc;fill-opacity:1"/><path d="m3.574 5.824.078.04Zm4.035 0 .079.04Zm0 0" style="stroke:none;fill-rule:nonzero;fill:#c33;fill-opacity:1"/><path d="m7.762 5.785.117.117Zm0 0" style="stroke:none;fill-rule:nonzero;fill:#fcc;fill-opacity:1"/><path d="m8.34 5.785.117.117Zm0 0" style="stroke:none;fill-rule:nonzero;fill:#9cf;fill-opacity:1"/><path d="m8.453 5.785.117.117Zm-5.418.121.117.117Zm0 0" style="stroke:none;fill-rule:nonzero;fill:#69c;fill-opacity:1"/><path d="m3.152 5.902.118.118Zm0 0" style="stroke:none;fill-rule:nonzero;fill:#9cc;fill-opacity:1"/><path d="m3.266 5.902.117.118Zm0 0" style="stroke:none;fill-rule:nonzero;fill:#cff;fill-opacity:1"/><path d="m3.727 5.902.117.118Zm0 0" style="stroke:none;fill-rule:nonzero;fill:#fcc;fill-opacity:1"/><path d="m3.918 5.938.078.039Zm3.344 0 .078.039Zm0 0" style="stroke:none;fill-rule:nonzero;fill:#c33;fill-opacity:1"/><path d="m7.418 5.902.117.118Zm0 0" style="stroke:none;fill-rule:nonzero;fill:#fcc;fill-opacity:1"/><path d="m7.879 5.902.117.118Zm0 0" style="stroke:none;fill-rule:nonzero;fill:#cff;fill-opacity:1"/><path d="m7.992 5.902.117.118Zm0 0" style="stroke:none;fill-rule:nonzero;fill:#9cc;fill-opacity:1"/><path d="m8.11 5.902.117.118Zm-4.727.118.113.117Zm0 0" style="stroke:none;fill-rule:nonzero;fill:#69c;fill-opacity:1"/><path d="m3.496 6.016.117.12Zm0 0" style="stroke:none;fill-rule:nonzero;fill:#9cc;fill-opacity:1"/><path d="m3.613 6.016.117.12Zm0 0" style="stroke:none;fill-rule:nonzero;fill:#cff;fill-opacity:1"/><path d="m4.074 6.016.117.12Zm0 0" style="stroke:none;fill-rule:nonzero;fill:#fcc;fill-opacity:1"/><path d="m4.266 6.055.078.043Zm2.652 0 .078.043Zm0 0" style="stroke:none;fill-rule:nonzero;fill:#c33;fill-opacity:1"/><path d="m7.07 6.016.117.12Zm0 0" style="stroke:none;fill-rule:nonzero;fill:#fcc;fill-opacity:1"/><path d="m7.531 6.016.117.12Zm0 0" style="stroke:none;fill-rule:nonzero;fill:#cff;fill-opacity:1"/><path d="m7.648 6.016.118.12Zm0 0" style="stroke:none;fill-rule:nonzero;fill:#9cc;fill-opacity:1"/><path d="m7.762 6.016.117.12Zm0 0" style="stroke:none;fill-rule:nonzero;fill:#69c;fill-opacity:1"/><path d="m3.844 6.137.117.117Zm0 0" style="stroke:none;fill-rule:nonzero;fill:#9cc;fill-opacity:1"/><path d="m3.957 6.137.117.117Zm0 0" style="stroke:none;fill-rule:nonzero;fill:#ccf;fill-opacity:1"/><path d="m4.418 6.137.117.117Zm0 0" style="stroke:none;fill-rule:nonzero;fill:#fcc;fill-opacity:1"/><path d="m4.531 6.137.117.117Zm2.078 0 .118.117Zm0 0" style="stroke:none;fill-rule:nonzero;fill:#c33;fill-opacity:1"/><path d="m6.727 6.137.117.117Zm0 0" style="stroke:none;fill-rule:nonzero;fill:#fcc;fill-opacity:1"/><path d="m7.188 6.137.117.117Zm0 0" style="stroke:none;fill-rule:nonzero;fill:#ccf;fill-opacity:1"/><path d="m7.305 6.137.113.117Zm-3.114.117.118.117Zm0 0" style="stroke:none;fill-rule:nonzero;fill:#9cc;fill-opacity:1"/><path d="m4.305 6.254.117.117Zm2.539 0 .113.117Zm0 0" style="stroke:none;fill-rule:nonzero;fill:#ccf;fill-opacity:1"/><path d="m6.953 6.254.117.117Zm-2.422.117.117.117Zm0 0" style="stroke:none;fill-rule:nonzero;fill:#9cc;fill-opacity:1"/><path d="m4.766 6.371.117.117Zm1.613 0 .117.121Zm0 0" style="stroke:none;fill-rule:nonzero;fill:#c33;fill-opacity:1"/><path d="m6.61 6.371.117.117Zm0 0" style="stroke:none;fill-rule:nonzero;fill:#9cc;fill-opacity:1"/><path d="m4.766 6.488.117.117Zm1.613 0 .117.117Zm0 0" style="stroke:none;fill-rule:nonzero;fill:#fcc;fill-opacity:1"/><path d="m4.648 6.602.118.12Zm0 0" style="stroke:none;fill-rule:nonzero;fill:#ccf;fill-opacity:1"/><path d="m4.922 6.684.035.078Zm1.383 0 .039.078Zm0 0" style="stroke:none;fill-rule:nonzero;fill:#c33;fill-opacity:1"/><path d="m6.496 6.602.117.12Zm0 0" style="stroke:none;fill-rule:nonzero;fill:#ccf;fill-opacity:1"/><path d="m4.648 6.723.118.117Zm1.848 0 .117.117Zm0 0" style="stroke:none;fill-rule:nonzero;fill:#9cc;fill-opacity:1"/><path d="m4.883 6.836.113.117Zm1.387 0 .117.117Zm0 0" style="stroke:none;fill-rule:nonzero;fill:#fcc;fill-opacity:1"/><path d="m4.766 6.953.117.121Zm0 0" style="stroke:none;fill-rule:nonzero;fill:#ccf;fill-opacity:1"/><path d="m5.035 7.031.04.078Zm1.152 0 .04.078Zm0 0" style="stroke:none;fill-rule:nonzero;fill:#c33;fill-opacity:1"/><path d="m6.379 6.953.117.121Zm0 0" style="stroke:none;fill-rule:nonzero;fill:#ccf;fill-opacity:1"/><path d="m4.766 7.07.117.117Zm1.613 0 .117.117Zm0 0" style="stroke:none;fill-rule:nonzero;fill:#9cc;fill-opacity:1"/><path d="m4.996 7.188.117.12Zm1.152 0 .118.12Zm0 0" style="stroke:none;fill-rule:nonzero;fill:#fcc;fill-opacity:1"/><path d="m4.883 7.305.113.117Zm0 0" style="stroke:none;fill-rule:nonzero;fill:#cff;fill-opacity:1"/><path d="m5.148 7.383.04.078Zm.922 0 .04.078Zm0 0" style="stroke:none;fill-rule:nonzero;fill:#c33;fill-opacity:1"/><path d="m6.266 7.305.117.117Zm0 0" style="stroke:none;fill-rule:nonzero;fill:#cff;fill-opacity:1"/><path d="m4.883 7.422.113.117Zm1.387 0 .117.117Zm0 0" style="stroke:none;fill-rule:nonzero;fill:#9cc;fill-opacity:1"/><path d="m4.883 7.535.113.121Zm0 0" style="stroke:none;fill-rule:nonzero;fill:#69c;fill-opacity:1"/><path d="m5.11 7.535.117.121Zm.925 0 .117.121Zm0 0" style="stroke:none;fill-rule:nonzero;fill:#fcc;fill-opacity:1"/><path d="m6.266 7.535.117.121Zm0 0" style="stroke:none;fill-rule:nonzero;fill:#69c;fill-opacity:1"/><path d="m4.996 7.656.117.117Zm1.152 0 .118.117Zm0 0" style="stroke:none;fill-rule:nonzero;fill:#cff;fill-opacity:1"/><path d="m4.996 7.77.117.12Zm1.152 0 .118.12Zm0 0" style="stroke:none;fill-rule:nonzero;fill:#9cc;fill-opacity:1"/><path d="m4.996 7.89.117.118Zm1.152 0 .118.118Zm0 0" style="stroke:none;fill-rule:nonzero;fill:#69c;fill-opacity:1"/><path d="m5.227 8.004.117.117Zm.691 0 .117.117Zm0 0" style="stroke:none;fill-rule:nonzero;fill:#fcc;fill-opacity:1"/><path d="m5.11 8.121.117.121Zm0 0" style="stroke:none;fill-rule:nonzero;fill:#9cf;fill-opacity:1"/><path d="m5.379 8.203.039.078Zm.46 0 .04.078Zm0 0" style="stroke:none;fill-rule:nonzero;fill:#c33;fill-opacity:1"/><path d="m6.035 8.121.117.121Zm0 0" style="stroke:none;fill-rule:nonzero;fill:#9cf;fill-opacity:1"/><path d="m5.11 8.242.117.113Zm.925 0 .117.117Zm0 0" style="stroke:none;fill-rule:nonzero;fill:#69c;fill-opacity:1"/><path d="m5.34 8.355.117.122Zm.465 0 .113.122Zm0 0" style="stroke:none;fill-rule:nonzero;fill:#fcc;fill-opacity:1"/><path d="m5.227 8.473.117.117Zm.691 0 .117.117Zm0 0" style="stroke:none;fill-rule:nonzero;fill:#9cf;fill-opacity:1"/><path d="m5.227 8.59.117.117Zm.691 0 .117.117Zm0 0" style="stroke:none;fill-rule:nonzero;fill:#6cc;fill-opacity:1"/><path d="m5.457 8.707.117.121Zm.23 0 .118.121Zm0 0" style="stroke:none;fill-rule:nonzero;fill:#fcc;fill-opacity:1"/><path d="m5.34 8.824.117.117Zm.465 0 .113.117Zm0 0" style="stroke:none;fill-rule:nonzero;fill:#ccf;fill-opacity:1"/><path d="m5.34 8.941.117.121Zm0 0" style="stroke:none;fill-rule:nonzero;fill:#6cc;fill-opacity:1"/><path d="m5.574 8.941.114.121Zm0 0" style="stroke:none;fill-rule:nonzero;fill:#c66;fill-opacity:1"/><path d="m5.805 8.941.113.121Zm0 0" style="stroke:none;fill-rule:nonzero;fill:#6cc;fill-opacity:1"/><path d="m5.457 9.176.117.117Zm.23 0 .118.117Zm0 0" style="stroke:none;fill-rule:nonzero;fill:#ccf;fill-opacity:1"/><path d="m5.457 9.29.117.12Zm.23 0 .118.12Zm-.117.237.117.114Zm0 0" style="stroke:none;fill-rule:nonzero;fill:#9cc;fill-opacity:1"/></svg>