<?xml version="1.0" encoding="UTF-8"?>
<svg xmlns="http://www.w3.org/2000/svg" xmlns:xlink="http://www.w3.org/1999/xlink" width="25px" height="px" viewBox="0 0 25 19" version="1.1">
<g id="surface1">
<rect x="0" y="0" width="25" height="19" style="fill:rgb(20%,60.000002%,80.000001%);fill-opacity:1;stroke:none;"/>
<path style=" stroke:none;fill-rule:nonzero;fill:rgb(100%,100%,0%);fill-opacity:1;" d="M 0 12.667969 L 0 13.722656 L 28.125 13.722656 L 28.125 12.667969 Z M 0 14.777344 L 0 15.832031 L 28.125 15.832031 L 28.125 14.777344 Z M 0 14.777344 "/>
<path style=" stroke:none;fill-rule:nonzero;fill:rgb(60.000002%,80.000001%,80.000001%);fill-opacity:1;" d="M 5.574219 1.109375 L 5.6875 1.226562 Z M 5.457031 1.347656 L 5.574219 1.464844 Z M 5.6875 1.347656 L 5.804688 1.464844 Z M 5.6875 1.347656 "/>
<path style=" stroke:none;fill-rule:nonzero;fill:rgb(80.000001%,80.000001%,100%);fill-opacity:1;" d="M 5.457031 1.464844 L 5.574219 1.578125 L 5.457031 1.460938 M 5.6875 1.460938 L 5.804688 1.578125 Z M 5.6875 1.460938 "/>
<path style=" stroke:none;fill-rule:nonzero;fill:rgb(40.000001%,80.000001%,80.000001%);fill-opacity:1;" d="M 5.339844 1.695312 L 5.457031 1.8125 Z M 5.339844 1.695312 "/>
<path style=" stroke:none;fill-rule:nonzero;fill:rgb(80.000001%,40.000001%,40.000001%);fill-opacity:1;" d="M 5.574219 1.695312 L 5.6875 1.8125 Z M 5.574219 1.695312 "/>
<path style=" stroke:none;fill-rule:nonzero;fill:rgb(40.000001%,80.000001%,80.000001%);fill-opacity:1;" d="M 5.804688 1.695312 L 5.917969 1.8125 Z M 5.804688 1.695312 "/>
<path style=" stroke:none;fill-rule:nonzero;fill:rgb(80.000001%,80.000001%,100%);fill-opacity:1;" d="M 5.339844 1.8125 L 5.457031 1.933594 Z M 5.804688 1.8125 L 5.917969 1.933594 Z M 5.804688 1.8125 "/>
<path style=" stroke:none;fill-rule:nonzero;fill:rgb(100%,80.000001%,80.000001%);fill-opacity:1;" d="M 5.457031 1.925781 L 5.574219 2.046875 Z M 5.6875 1.925781 L 5.804688 2.046875 Z M 5.6875 1.925781 "/>
<path style=" stroke:none;fill-rule:nonzero;fill:rgb(40.000001%,80.000001%,80.000001%);fill-opacity:1;" d="M 5.226562 2.046875 L 5.34375 2.164062 Z M 5.226562 2.046875 "/>
<path style="fill-rule:nonzero;fill:rgb(80.000001%,0%,0%);fill-opacity:1;stroke-width:3.7;stroke-linecap:butt;stroke-linejoin:miter;stroke:rgb(100%,100%,100%);stroke-opacity:1;stroke-miterlimit:4;" d="M 142.2 34.046053 L 121.5 112.5 L 42.8 134.013158 L 121.2 154.539474 L 142.2 232.894737 L 163.1 154.539474 L 241.5 133.519737 L 163.1 112.598684 L 142.1 34.243421 Z M 142.2 34.046053 " transform="matrix(0.0390625,0,0,0.0395833,0,0)"/>
<path style=" stroke:none;fill-rule:nonzero;fill:rgb(40.000001%,80.000001%,80.000001%);fill-opacity:1;" d="M 5.917969 2.046875 L 6.035156 2.164062 Z M 5.917969 2.046875 "/>
<path style=" stroke:none;fill-rule:nonzero;fill:rgb(60.000002%,80.000001%,100%);fill-opacity:1;" d="M 5.226562 2.160156 L 5.34375 2.28125 Z M 5.917969 2.160156 L 6.035156 2.28125 Z M 5.917969 2.160156 "/>
<path style=" stroke:none;fill-rule:nonzero;fill:rgb(100%,80.000001%,80.000001%);fill-opacity:1;" d="M 5.339844 2.28125 L 5.457031 2.398438 Z M 5.804688 2.28125 L 5.917969 2.398438 Z M 5.804688 2.28125 "/>
<path style=" stroke:none;fill-rule:nonzero;fill:rgb(40.000001%,60.000002%,80.000001%);fill-opacity:1;" d="M 5.109375 2.394531 L 5.226562 2.511719 Z M 5.109375 2.394531 "/>
<path style=" stroke:none;fill-rule:nonzero;fill:rgb(80.000001%,20%,20%);fill-opacity:1;" d="M 5.378906 2.472656 L 5.417969 2.554688 Z M 5.839844 2.472656 L 5.878906 2.554688 Z M 5.839844 2.472656 "/>
<path style=" stroke:none;fill-rule:nonzero;fill:rgb(40.000001%,60.000002%,80.000001%);fill-opacity:1;" d="M 6.035156 2.394531 L 6.152344 2.511719 Z M 6.035156 2.394531 "/>
<path style=" stroke:none;fill-rule:nonzero;fill:rgb(60.000002%,80.000001%,100%);fill-opacity:1;" d="M 5.109375 2.511719 L 5.226562 2.632812 Z M 6.035156 2.511719 L 6.152344 2.632812 Z M 6.035156 2.511719 "/>
<path style=" stroke:none;fill-rule:nonzero;fill:rgb(100%,80.000001%,80.000001%);fill-opacity:1;" d="M 5.226562 2.628906 L 5.34375 2.746094 Z M 5.917969 2.628906 L 6.035156 2.746094 Z M 5.917969 2.628906 "/>
<path style=" stroke:none;fill-rule:nonzero;fill:rgb(40.000001%,60.000002%,80.000001%);fill-opacity:1;" d="M 4.996094 2.746094 L 5.113281 2.867188 Z M 6.148438 2.746094 L 6.265625 2.867188 Z M 6.148438 2.746094 "/>
<path style=" stroke:none;fill-rule:nonzero;fill:rgb(60.000002%,80.000001%,80.000001%);fill-opacity:1;" d="M 4.996094 2.863281 L 5.113281 2.980469 Z M 6.148438 2.863281 L 6.265625 2.980469 Z M 6.148438 2.863281 "/>
<path style=" stroke:none;fill-rule:nonzero;fill:rgb(80.000001%,100%,100%);fill-opacity:1;" d="M 4.996094 2.980469 L 5.113281 3.097656 Z M 6.148438 2.980469 L 6.265625 3.097656 Z M 6.148438 2.980469 "/>
<path style=" stroke:none;fill-rule:nonzero;fill:rgb(40.000001%,60.000002%,80.000001%);fill-opacity:1;" d="M 4.882812 3.097656 L 4.996094 3.214844 Z M 4.882812 3.097656 "/>
<path style=" stroke:none;fill-rule:nonzero;fill:rgb(100%,80.000001%,80.000001%);fill-opacity:1;" d="M 5.109375 3.097656 L 5.226562 3.214844 Z M 6.035156 3.097656 L 6.152344 3.21875 Z M 6.035156 3.097656 "/>
<path style=" stroke:none;fill-rule:nonzero;fill:rgb(40.000001%,60.000002%,80.000001%);fill-opacity:1;" d="M 6.265625 3.097656 L 6.382812 3.214844 Z M 6.265625 3.097656 "/>
<path style=" stroke:none;fill-rule:nonzero;fill:rgb(60.000002%,80.000001%,80.000001%);fill-opacity:1;" d="M 4.882812 3.214844 L 4.996094 3.332031 Z M 4.882812 3.214844 "/>
<path style=" stroke:none;fill-rule:nonzero;fill:rgb(80.000001%,20%,20%);fill-opacity:1;" d="M 5.148438 3.292969 L 5.1875 3.371094 Z M 6.070312 3.292969 L 6.109375 3.371094 Z M 6.070312 3.292969 "/>
<path style=" stroke:none;fill-rule:nonzero;fill:rgb(60.000002%,80.000001%,80.000001%);fill-opacity:1;" d="M 6.265625 3.214844 L 6.382812 3.332031 Z M 6.265625 3.214844 "/>
<path style=" stroke:none;fill-rule:nonzero;fill:rgb(80.000001%,100%,100%);fill-opacity:1;" d="M 4.882812 3.332031 L 4.996094 3.453125 Z M 6.269531 3.332031 L 6.386719 3.453125 Z M 6.269531 3.332031 "/>
<path style=" stroke:none;fill-rule:nonzero;fill:rgb(100%,80.000001%,80.000001%);fill-opacity:1;" d="M 4.996094 3.449219 L 5.113281 3.566406 Z M 6.148438 3.449219 L 6.265625 3.566406 Z M 6.148438 3.449219 "/>
<path style=" stroke:none;fill-rule:nonzero;fill:rgb(60.000002%,80.000001%,80.000001%);fill-opacity:1;" d="M 4.765625 3.5625 L 4.882812 3.679688 Z M 4.765625 3.5625 "/>
<path style=" stroke:none;fill-rule:nonzero;fill:rgb(80.000001%,20%,20%);fill-opacity:1;" d="M 5.035156 3.640625 L 5.074219 3.722656 Z M 6.1875 3.640625 L 6.226562 3.722656 Z M 6.1875 3.640625 "/>
<path style=" stroke:none;fill-rule:nonzero;fill:rgb(60.000002%,80.000001%,80.000001%);fill-opacity:1;" d="M 6.378906 3.5625 L 6.496094 3.679688 Z M 6.378906 3.5625 "/>
<path style=" stroke:none;fill-rule:nonzero;fill:rgb(80.000001%,80.000001%,100%);fill-opacity:1;" d="M 4.765625 3.679688 L 4.882812 3.800781 Z M 6.378906 3.679688 L 6.496094 3.800781 Z M 6.378906 3.679688 "/>
<path style=" stroke:none;fill-rule:nonzero;fill:rgb(100%,80.000001%,80.000001%);fill-opacity:1;" d="M 4.882812 3.800781 L 4.996094 3.917969 Z M 6.269531 3.800781 L 6.386719 3.917969 Z M 6.269531 3.800781 "/>
<path style=" stroke:none;fill-rule:nonzero;fill:rgb(60.000002%,80.000001%,80.000001%);fill-opacity:1;" d="M 4.648438 3.917969 L 4.765625 4.035156 Z M 4.648438 3.917969 "/>
<path style=" stroke:none;fill-rule:nonzero;fill:rgb(80.000001%,20%,20%);fill-opacity:1;" d="M 4.921875 3.992188 L 4.957031 4.074219 Z M 6.304688 3.992188 L 6.34375 4.074219 Z M 6.304688 3.992188 "/>
<path style=" stroke:none;fill-rule:nonzero;fill:rgb(60.000002%,80.000001%,80.000001%);fill-opacity:1;" d="M 6.496094 3.917969 L 6.613281 4.035156 Z M 6.496094 3.917969 "/>
<path style=" stroke:none;fill-rule:nonzero;fill:rgb(80.000001%,80.000001%,100%);fill-opacity:1;" d="M 4.648438 4.035156 L 4.765625 4.152344 Z M 6.496094 4.035156 L 6.613281 4.152344 Z M 6.496094 4.035156 "/>
<path style=" stroke:none;fill-rule:nonzero;fill:rgb(100%,80.000001%,80.000001%);fill-opacity:1;" d="M 4.765625 4.148438 L 4.882812 4.265625 Z M 6.378906 4.148438 L 6.496094 4.265625 Z M 6.378906 4.148438 "/>
<path style=" stroke:none;fill-rule:nonzero;fill:rgb(60.000002%,80.000001%,80.000001%);fill-opacity:1;" d="M 4.53125 4.265625 L 4.648438 4.386719 Z M 4.53125 4.265625 "/>
<path style=" stroke:none;fill-rule:nonzero;fill:rgb(80.000001%,20%,20%);fill-opacity:1;" d="M 4.765625 4.265625 L 4.882812 4.386719 Z M 6.378906 4.265625 L 6.496094 4.386719 Z M 6.378906 4.265625 "/>
<path style=" stroke:none;fill-rule:nonzero;fill:rgb(60.000002%,80.000001%,80.000001%);fill-opacity:1;" d="M 6.609375 4.265625 L 6.726562 4.386719 Z M 4.1875 4.386719 L 4.304688 4.5 Z M 4.1875 4.386719 "/>
<path style=" stroke:none;fill-rule:nonzero;fill:rgb(80.000001%,80.000001%,100%);fill-opacity:1;" d="M 4.304688 4.382812 L 4.421875 4.5 Z M 6.84375 4.382812 L 6.957031 4.5 Z M 6.84375 4.382812 "/>
<path style=" stroke:none;fill-rule:nonzero;fill:rgb(60.000002%,80.000001%,80.000001%);fill-opacity:1;" d="M 6.953125 4.382812 L 7.070312 4.5 Z M 3.84375 4.5 L 3.960938 4.621094 Z M 3.84375 4.5 "/>
<path style=" stroke:none;fill-rule:nonzero;fill:rgb(80.000001%,80.000001%,100%);fill-opacity:1;" d="M 3.957031 4.5 L 4.074219 4.621094 Z M 3.957031 4.5 "/>
<path style=" stroke:none;fill-rule:nonzero;fill:rgb(100%,80.000001%,80.000001%);fill-opacity:1;" d="M 4.417969 4.5 L 4.535156 4.621094 Z M 4.417969 4.5 "/>
<path style=" stroke:none;fill-rule:nonzero;fill:rgb(80.000001%,20%,20%);fill-opacity:1;" d="M 4.53125 4.5 L 4.648438 4.621094 Z M 6.609375 4.5 L 6.726562 4.621094 Z M 6.609375 4.5 "/>
<path style=" stroke:none;fill-rule:nonzero;fill:rgb(100%,80.000001%,80.000001%);fill-opacity:1;" d="M 6.726562 4.5 L 6.84375 4.621094 Z M 6.726562 4.5 "/>
<path style=" stroke:none;fill-rule:nonzero;fill:rgb(80.000001%,80.000001%,100%);fill-opacity:1;" d="M 7.1875 4.5 L 7.304688 4.621094 Z M 7.1875 4.5 "/>
<path style=" stroke:none;fill-rule:nonzero;fill:rgb(60.000002%,80.000001%,80.000001%);fill-opacity:1;" d="M 7.304688 4.5 L 7.417969 4.621094 Z M 7.304688 4.5 "/>
<path style=" stroke:none;fill-rule:nonzero;fill:rgb(40.000001%,60.000002%,80.000001%);fill-opacity:1;" d="M 3.382812 4.617188 L 3.5 4.734375 Z M 3.382812 4.617188 "/>
<path style=" stroke:none;fill-rule:nonzero;fill:rgb(60.000002%,80.000001%,80.000001%);fill-opacity:1;" d="M 3.496094 4.617188 L 3.613281 4.734375 Z M 3.496094 4.617188 "/>
<path style=" stroke:none;fill-rule:nonzero;fill:rgb(80.000001%,100%,100%);fill-opacity:1;" d="M 3.613281 4.617188 L 3.730469 4.734375 Z M 3.613281 4.617188 "/>
<path style=" stroke:none;fill-rule:nonzero;fill:rgb(100%,80.000001%,80.000001%);fill-opacity:1;" d="M 4.074219 4.617188 L 4.191406 4.734375 Z M 4.074219 4.617188 "/>
<path style=" stroke:none;fill-rule:nonzero;fill:rgb(80.000001%,20%,20%);fill-opacity:1;" d="M 4.265625 4.65625 L 4.34375 4.695312 Z M 6.917969 4.65625 L 6.996094 4.695312 Z M 6.917969 4.65625 "/>
<path style=" stroke:none;fill-rule:nonzero;fill:rgb(100%,80.000001%,80.000001%);fill-opacity:1;" d="M 7.070312 4.617188 L 7.1875 4.734375 Z M 7.070312 4.617188 "/>
<path style=" stroke:none;fill-rule:nonzero;fill:rgb(80.000001%,100%,100%);fill-opacity:1;" d="M 7.53125 4.617188 L 7.648438 4.734375 Z M 7.53125 4.617188 "/>
<path style=" stroke:none;fill-rule:nonzero;fill:rgb(60.000002%,80.000001%,80.000001%);fill-opacity:1;" d="M 7.648438 4.617188 L 7.765625 4.734375 Z M 7.648438 4.617188 "/>
<path style=" stroke:none;fill-rule:nonzero;fill:rgb(40.000001%,60.000002%,80.000001%);fill-opacity:1;" d="M 7.761719 4.617188 L 7.878906 4.734375 Z M 3.035156 4.734375 L 3.152344 4.851562 Z M 3.035156 4.734375 "/>
<path style=" stroke:none;fill-rule:nonzero;fill:rgb(60.000002%,80.000001%,80.000001%);fill-opacity:1;" d="M 3.152344 4.734375 L 3.269531 4.851562 Z M 3.152344 4.734375 "/>
<path style=" stroke:none;fill-rule:nonzero;fill:rgb(80.000001%,100%,100%);fill-opacity:1;" d="M 3.265625 4.734375 L 3.382812 4.851562 Z M 3.265625 4.734375 "/>
<path style=" stroke:none;fill-rule:nonzero;fill:rgb(100%,80.000001%,80.000001%);fill-opacity:1;" d="M 3.726562 4.734375 L 3.84375 4.851562 Z M 3.726562 4.734375 "/>
<path style=" stroke:none;fill-rule:nonzero;fill:rgb(80.000001%,20%,20%);fill-opacity:1;" d="M 3.917969 4.773438 L 3.996094 4.8125 Z M 7.261719 4.773438 L 7.339844 4.8125 Z M 7.261719 4.773438 "/>
<path style=" stroke:none;fill-rule:nonzero;fill:rgb(100%,80.000001%,80.000001%);fill-opacity:1;" d="M 7.417969 4.734375 L 7.535156 4.851562 Z M 7.417969 4.734375 "/>
<path style=" stroke:none;fill-rule:nonzero;fill:rgb(80.000001%,100%,100%);fill-opacity:1;" d="M 7.878906 4.734375 L 7.996094 4.851562 Z M 7.878906 4.734375 "/>
<path style=" stroke:none;fill-rule:nonzero;fill:rgb(60.000002%,80.000001%,80.000001%);fill-opacity:1;" d="M 7.992188 4.734375 L 8.109375 4.851562 Z M 7.992188 4.734375 "/>
<path style=" stroke:none;fill-rule:nonzero;fill:rgb(40.000001%,60.000002%,80.000001%);fill-opacity:1;" d="M 8.109375 4.734375 L 8.226562 4.851562 Z M 2.6875 4.851562 L 2.804688 4.96875 Z M 2.6875 4.851562 "/>
<path style=" stroke:none;fill-rule:nonzero;fill:rgb(60.000002%,80.000001%,100%);fill-opacity:1;" d="M 2.804688 4.847656 L 2.921875 4.96875 Z M 2.804688 4.847656 "/>
<path style=" stroke:none;fill-rule:nonzero;fill:rgb(100%,80.000001%,80.000001%);fill-opacity:1;" d="M 3.382812 4.847656 L 3.5 4.96875 Z M 3.382812 4.847656 "/>
<path style=" stroke:none;fill-rule:nonzero;fill:rgb(80.000001%,20%,20%);fill-opacity:1;" d="M 3.574219 4.886719 L 3.652344 4.929688 Z M 7.609375 4.886719 L 7.6875 4.929688 Z M 7.609375 4.886719 "/>
<path style=" stroke:none;fill-rule:nonzero;fill:rgb(100%,80.000001%,80.000001%);fill-opacity:1;" d="M 7.761719 4.847656 L 7.878906 4.96875 Z M 7.761719 4.847656 "/>
<path style=" stroke:none;fill-rule:nonzero;fill:rgb(60.000002%,80.000001%,100%);fill-opacity:1;" d="M 8.339844 4.847656 L 8.457031 4.96875 Z M 8.339844 4.847656 "/>
<path style=" stroke:none;fill-rule:nonzero;fill:rgb(40.000001%,60.000002%,80.000001%);fill-opacity:1;" d="M 8.453125 4.847656 L 8.570312 4.96875 Z M 8.453125 4.847656 "/>
<path style=" stroke:none;fill-rule:nonzero;fill:rgb(40.000001%,80.000001%,80.000001%);fill-opacity:1;" d="M 2.34375 4.96875 L 2.460938 5.085938 Z M 2.34375 4.96875 "/>
<path style=" stroke:none;fill-rule:nonzero;fill:rgb(60.000002%,80.000001%,100%);fill-opacity:1;" d="M 2.460938 4.96875 L 2.574219 5.085938 Z M 2.460938 4.96875 "/>
<path style=" stroke:none;fill-rule:nonzero;fill:rgb(100%,80.000001%,80.000001%);fill-opacity:1;" d="M 2.921875 4.96875 L 3.035156 5.085938 Z M 8.226562 4.96875 L 8.339844 5.085938 Z M 8.226562 4.96875 "/>
<path style=" stroke:none;fill-rule:nonzero;fill:rgb(60.000002%,80.000001%,100%);fill-opacity:1;" d="M 8.683594 4.96875 L 8.800781 5.085938 Z M 8.683594 4.96875 "/>
<path style=" stroke:none;fill-rule:nonzero;fill:rgb(40.000001%,80.000001%,80.000001%);fill-opacity:1;" d="M 8.800781 4.96875 L 8.917969 5.085938 Z M 1.996094 5.085938 L 2.113281 5.203125 Z M 1.996094 5.085938 "/>
<path style=" stroke:none;fill-rule:nonzero;fill:rgb(80.000001%,80.000001%,100%);fill-opacity:1;" d="M 2.109375 5.082031 L 2.226562 5.203125 Z M 2.109375 5.082031 "/>
<path style=" stroke:none;fill-rule:nonzero;fill:rgb(100%,80.000001%,80.000001%);fill-opacity:1;" d="M 2.574219 5.082031 L 2.691406 5.203125 Z M 2.574219 5.082031 "/>
<path style=" stroke:none;fill-rule:nonzero;fill:rgb(80.000001%,20%,20%);fill-opacity:1;" d="M 2.765625 5.121094 L 2.84375 5.160156 Z M 8.417969 5.121094 L 8.496094 5.160156 Z M 8.417969 5.121094 "/>
<path style=" stroke:none;fill-rule:nonzero;fill:rgb(100%,80.000001%,80.000001%);fill-opacity:1;" d="M 8.570312 5.082031 L 8.6875 5.203125 Z M 8.570312 5.082031 "/>
<path style=" stroke:none;fill-rule:nonzero;fill:rgb(80.000001%,80.000001%,100%);fill-opacity:1;" d="M 9.03125 5.082031 L 9.148438 5.203125 Z M 9.03125 5.082031 "/>
<path style=" stroke:none;fill-rule:nonzero;fill:rgb(40.000001%,80.000001%,80.000001%);fill-opacity:1;" d="M 9.148438 5.082031 L 9.265625 5.203125 Z M 9.148438 5.082031 "/>
<path style=" stroke:none;fill-rule:nonzero;fill:rgb(60.000002%,80.000001%,80.000001%);fill-opacity:1;" d="M 1.652344 5.203125 L 1.769531 5.320312 Z M 1.652344 5.203125 "/>
<path style=" stroke:none;fill-rule:nonzero;fill:rgb(80.000001%,80.000001%,100%);fill-opacity:1;" d="M 1.765625 5.203125 L 1.882812 5.320312 Z M 1.765625 5.203125 "/>
<path style=" stroke:none;fill-rule:nonzero;fill:rgb(100%,80.000001%,80.000001%);fill-opacity:1;" d="M 2.226562 5.203125 L 2.34375 5.320312 Z M 8.917969 5.203125 L 9.035156 5.320312 Z M 8.917969 5.203125 "/>
<path style=" stroke:none;fill-rule:nonzero;fill:rgb(80.000001%,80.000001%,100%);fill-opacity:1;" d="M 9.375 5.203125 L 9.492188 5.320312 Z M 9.375 5.203125 "/>
<path style=" stroke:none;fill-rule:nonzero;fill:rgb(60.000002%,80.000001%,80.000001%);fill-opacity:1;" d="M 9.492188 5.203125 L 9.609375 5.320312 Z M 1.421875 5.320312 L 1.539062 5.433594 Z M 1.421875 5.320312 "/>
<path style=" stroke:none;fill-rule:nonzero;fill:rgb(80.000001%,40.000001%,40.000001%);fill-opacity:1;" d="M 1.996094 5.316406 L 2.113281 5.433594 Z M 9.144531 5.316406 L 9.261719 5.433594 Z M 9.144531 5.316406 "/>
<path style=" stroke:none;fill-rule:nonzero;fill:rgb(60.000002%,80.000001%,80.000001%);fill-opacity:1;" d="M 9.726562 5.316406 L 9.839844 5.433594 Z M 1.65625 5.433594 L 1.773438 5.554688 Z M 1.65625 5.433594 "/>
<path style=" stroke:none;fill-rule:nonzero;fill:rgb(80.000001%,80.000001%,100%);fill-opacity:1;" d="M 1.765625 5.433594 L 1.882812 5.554688 Z M 1.765625 5.433594 "/>
<path style=" stroke:none;fill-rule:nonzero;fill:rgb(100%,80.000001%,80.000001%);fill-opacity:1;" d="M 2.226562 5.433594 L 2.34375 5.554688 Z M 8.917969 5.433594 L 9.035156 5.554688 Z M 8.917969 5.433594 "/>
<path style=" stroke:none;fill-rule:nonzero;fill:rgb(80.000001%,80.000001%,100%);fill-opacity:1;" d="M 9.375 5.433594 L 9.492188 5.554688 Z M 9.375 5.433594 "/>
<path style=" stroke:none;fill-rule:nonzero;fill:rgb(60.000002%,80.000001%,80.000001%);fill-opacity:1;" d="M 9.492188 5.433594 L 9.609375 5.554688 Z M 9.492188 5.433594 "/>
<path style=" stroke:none;fill-rule:nonzero;fill:rgb(40.000001%,80.000001%,80.000001%);fill-opacity:1;" d="M 1.996094 5.554688 L 2.113281 5.667969 Z M 1.996094 5.554688 "/>
<path style=" stroke:none;fill-rule:nonzero;fill:rgb(80.000001%,80.000001%,100%);fill-opacity:1;" d="M 2.109375 5.554688 L 2.226562 5.667969 Z M 2.109375 5.554688 "/>
<path style=" stroke:none;fill-rule:nonzero;fill:rgb(100%,80.000001%,80.000001%);fill-opacity:1;" d="M 2.574219 5.554688 L 2.691406 5.667969 Z M 2.574219 5.554688 "/>
<path style=" stroke:none;fill-rule:nonzero;fill:rgb(80.000001%,20%,20%);fill-opacity:1;" d="M 2.765625 5.589844 L 2.84375 5.628906 Z M 8.417969 5.589844 L 8.496094 5.628906 Z M 8.417969 5.589844 "/>
<path style=" stroke:none;fill-rule:nonzero;fill:rgb(100%,80.000001%,80.000001%);fill-opacity:1;" d="M 8.570312 5.554688 L 8.6875 5.667969 Z M 8.570312 5.554688 "/>
<path style=" stroke:none;fill-rule:nonzero;fill:rgb(80.000001%,80.000001%,100%);fill-opacity:1;" d="M 9.03125 5.554688 L 9.148438 5.667969 Z M 9.03125 5.554688 "/>
<path style=" stroke:none;fill-rule:nonzero;fill:rgb(40.000001%,80.000001%,80.000001%);fill-opacity:1;" d="M 9.148438 5.554688 L 9.265625 5.667969 Z M 2.34375 5.671875 L 2.460938 5.792969 Z M 2.34375 5.671875 "/>
<path style=" stroke:none;fill-rule:nonzero;fill:rgb(60.000002%,80.000001%,100%);fill-opacity:1;" d="M 2.460938 5.667969 L 2.574219 5.785156 Z M 2.460938 5.667969 "/>
<path style=" stroke:none;fill-rule:nonzero;fill:rgb(100%,80.000001%,80.000001%);fill-opacity:1;" d="M 2.921875 5.667969 L 3.035156 5.785156 Z M 8.226562 5.667969 L 8.339844 5.785156 Z M 8.226562 5.667969 "/>
<path style=" stroke:none;fill-rule:nonzero;fill:rgb(60.000002%,80.000001%,100%);fill-opacity:1;" d="M 8.683594 5.667969 L 8.800781 5.785156 Z M 8.683594 5.667969 "/>
<path style=" stroke:none;fill-rule:nonzero;fill:rgb(40.000001%,80.000001%,80.000001%);fill-opacity:1;" d="M 8.800781 5.667969 L 8.917969 5.785156 Z M 8.800781 5.667969 "/>
<path style=" stroke:none;fill-rule:nonzero;fill:rgb(40.000001%,60.000002%,80.000001%);fill-opacity:1;" d="M 2.6875 5.785156 L 2.804688 5.902344 Z M 2.6875 5.785156 "/>
<path style=" stroke:none;fill-rule:nonzero;fill:rgb(60.000002%,80.000001%,100%);fill-opacity:1;" d="M 2.804688 5.785156 L 2.921875 5.902344 Z M 2.804688 5.785156 "/>
<path style=" stroke:none;fill-rule:nonzero;fill:rgb(100%,80.000001%,80.000001%);fill-opacity:1;" d="M 3.382812 5.785156 L 3.5 5.902344 Z M 3.382812 5.785156 "/>
<path style=" stroke:none;fill-rule:nonzero;fill:rgb(80.000001%,20%,20%);fill-opacity:1;" d="M 3.574219 5.824219 L 3.652344 5.863281 Z M 7.609375 5.824219 L 7.6875 5.863281 Z M 7.609375 5.824219 "/>
<path style=" stroke:none;fill-rule:nonzero;fill:rgb(100%,80.000001%,80.000001%);fill-opacity:1;" d="M 7.761719 5.785156 L 7.878906 5.902344 Z M 7.761719 5.785156 "/>
<path style=" stroke:none;fill-rule:nonzero;fill:rgb(60.000002%,80.000001%,100%);fill-opacity:1;" d="M 8.339844 5.785156 L 8.457031 5.902344 Z M 8.339844 5.785156 "/>
<path style=" stroke:none;fill-rule:nonzero;fill:rgb(40.000001%,60.000002%,80.000001%);fill-opacity:1;" d="M 8.453125 5.785156 L 8.570312 5.902344 Z M 3.035156 5.90625 L 3.152344 6.023438 Z M 3.035156 5.90625 "/>
<path style=" stroke:none;fill-rule:nonzero;fill:rgb(60.000002%,80.000001%,80.000001%);fill-opacity:1;" d="M 3.152344 5.902344 L 3.269531 6.019531 Z M 3.152344 5.902344 "/>
<path style=" stroke:none;fill-rule:nonzero;fill:rgb(80.000001%,100%,100%);fill-opacity:1;" d="M 3.265625 5.902344 L 3.382812 6.019531 Z M 3.265625 5.902344 "/>
<path style=" stroke:none;fill-rule:nonzero;fill:rgb(100%,80.000001%,80.000001%);fill-opacity:1;" d="M 3.726562 5.902344 L 3.84375 6.019531 Z M 3.726562 5.902344 "/>
<path style=" stroke:none;fill-rule:nonzero;fill:rgb(80.000001%,20%,20%);fill-opacity:1;" d="M 3.917969 5.9375 L 3.996094 5.976562 Z M 7.261719 5.9375 L 7.339844 5.976562 Z M 7.261719 5.9375 "/>
<path style=" stroke:none;fill-rule:nonzero;fill:rgb(100%,80.000001%,80.000001%);fill-opacity:1;" d="M 7.417969 5.902344 L 7.535156 6.019531 Z M 7.417969 5.902344 "/>
<path style=" stroke:none;fill-rule:nonzero;fill:rgb(80.000001%,100%,100%);fill-opacity:1;" d="M 7.878906 5.902344 L 7.996094 6.019531 Z M 7.878906 5.902344 "/>
<path style=" stroke:none;fill-rule:nonzero;fill:rgb(60.000002%,80.000001%,80.000001%);fill-opacity:1;" d="M 7.992188 5.902344 L 8.109375 6.019531 Z M 7.992188 5.902344 "/>
<path style=" stroke:none;fill-rule:nonzero;fill:rgb(40.000001%,60.000002%,80.000001%);fill-opacity:1;" d="M 8.109375 5.902344 L 8.226562 6.019531 Z M 3.382812 6.019531 L 3.496094 6.136719 Z M 3.382812 6.019531 "/>
<path style=" stroke:none;fill-rule:nonzero;fill:rgb(60.000002%,80.000001%,80.000001%);fill-opacity:1;" d="M 3.496094 6.015625 L 3.613281 6.136719 Z M 3.496094 6.015625 "/>
<path style=" stroke:none;fill-rule:nonzero;fill:rgb(80.000001%,100%,100%);fill-opacity:1;" d="M 3.613281 6.015625 L 3.730469 6.136719 Z M 3.613281 6.015625 "/>
<path style=" stroke:none;fill-rule:nonzero;fill:rgb(100%,80.000001%,80.000001%);fill-opacity:1;" d="M 4.074219 6.015625 L 4.191406 6.136719 Z M 4.074219 6.015625 "/>
<path style=" stroke:none;fill-rule:nonzero;fill:rgb(80.000001%,20%,20%);fill-opacity:1;" d="M 4.265625 6.054688 L 4.34375 6.097656 Z M 6.917969 6.054688 L 6.996094 6.097656 Z M 6.917969 6.054688 "/>
<path style=" stroke:none;fill-rule:nonzero;fill:rgb(100%,80.000001%,80.000001%);fill-opacity:1;" d="M 7.070312 6.015625 L 7.1875 6.136719 Z M 7.070312 6.015625 "/>
<path style=" stroke:none;fill-rule:nonzero;fill:rgb(80.000001%,100%,100%);fill-opacity:1;" d="M 7.53125 6.015625 L 7.648438 6.136719 Z M 7.53125 6.015625 "/>
<path style=" stroke:none;fill-rule:nonzero;fill:rgb(60.000002%,80.000001%,80.000001%);fill-opacity:1;" d="M 7.648438 6.015625 L 7.765625 6.136719 Z M 7.648438 6.015625 "/>
<path style=" stroke:none;fill-rule:nonzero;fill:rgb(40.000001%,60.000002%,80.000001%);fill-opacity:1;" d="M 7.761719 6.015625 L 7.878906 6.136719 Z M 7.761719 6.015625 "/>
<path style=" stroke:none;fill-rule:nonzero;fill:rgb(60.000002%,80.000001%,80.000001%);fill-opacity:1;" d="M 3.84375 6.136719 L 3.960938 6.253906 Z M 3.84375 6.136719 "/>
<path style=" stroke:none;fill-rule:nonzero;fill:rgb(80.000001%,80.000001%,100%);fill-opacity:1;" d="M 3.957031 6.136719 L 4.074219 6.253906 Z M 3.957031 6.136719 "/>
<path style=" stroke:none;fill-rule:nonzero;fill:rgb(100%,80.000001%,80.000001%);fill-opacity:1;" d="M 4.417969 6.136719 L 4.535156 6.253906 Z M 4.417969 6.136719 "/>
<path style=" stroke:none;fill-rule:nonzero;fill:rgb(80.000001%,20%,20%);fill-opacity:1;" d="M 4.53125 6.136719 L 4.648438 6.253906 Z M 6.609375 6.136719 L 6.726562 6.253906 Z M 6.609375 6.136719 "/>
<path style=" stroke:none;fill-rule:nonzero;fill:rgb(100%,80.000001%,80.000001%);fill-opacity:1;" d="M 6.726562 6.136719 L 6.84375 6.253906 Z M 6.726562 6.136719 "/>
<path style=" stroke:none;fill-rule:nonzero;fill:rgb(80.000001%,80.000001%,100%);fill-opacity:1;" d="M 7.1875 6.136719 L 7.304688 6.253906 Z M 7.1875 6.136719 "/>
<path style=" stroke:none;fill-rule:nonzero;fill:rgb(60.000002%,80.000001%,80.000001%);fill-opacity:1;" d="M 7.304688 6.136719 L 7.417969 6.253906 Z M 4.191406 6.253906 L 4.308594 6.371094 Z M 4.191406 6.253906 "/>
<path style=" stroke:none;fill-rule:nonzero;fill:rgb(80.000001%,80.000001%,100%);fill-opacity:1;" d="M 4.304688 6.253906 L 4.421875 6.371094 Z M 6.84375 6.253906 L 6.957031 6.371094 Z M 6.84375 6.253906 "/>
<path style=" stroke:none;fill-rule:nonzero;fill:rgb(60.000002%,80.000001%,80.000001%);fill-opacity:1;" d="M 6.953125 6.253906 L 7.070312 6.371094 Z M 4.53125 6.371094 L 4.648438 6.488281 Z M 4.53125 6.371094 "/>
<path style=" stroke:none;fill-rule:nonzero;fill:rgb(80.000001%,20%,20%);fill-opacity:1;" d="M 4.765625 6.371094 L 4.882812 6.488281 Z M 6.378906 6.371094 L 6.496094 6.492188 Z M 6.378906 6.371094 "/>
<path style=" stroke:none;fill-rule:nonzero;fill:rgb(60.000002%,80.000001%,80.000001%);fill-opacity:1;" d="M 6.609375 6.371094 L 6.726562 6.488281 Z M 6.609375 6.371094 "/>
<path style=" stroke:none;fill-rule:nonzero;fill:rgb(100%,80.000001%,80.000001%);fill-opacity:1;" d="M 4.765625 6.488281 L 4.882812 6.605469 Z M 6.378906 6.488281 L 6.496094 6.605469 Z M 6.378906 6.488281 "/>
<path style=" stroke:none;fill-rule:nonzero;fill:rgb(80.000001%,80.000001%,100%);fill-opacity:1;" d="M 4.648438 6.601562 L 4.765625 6.722656 Z M 4.648438 6.601562 "/>
<path style=" stroke:none;fill-rule:nonzero;fill:rgb(80.000001%,20%,20%);fill-opacity:1;" d="M 4.921875 6.683594 L 4.957031 6.761719 Z M 6.304688 6.683594 L 6.34375 6.761719 Z M 6.304688 6.683594 "/>
<path style=" stroke:none;fill-rule:nonzero;fill:rgb(80.000001%,80.000001%,100%);fill-opacity:1;" d="M 6.496094 6.601562 L 6.613281 6.722656 Z M 6.496094 6.601562 "/>
<path style=" stroke:none;fill-rule:nonzero;fill:rgb(60.000002%,80.000001%,80.000001%);fill-opacity:1;" d="M 4.648438 6.722656 L 4.765625 6.839844 Z M 6.496094 6.722656 L 6.613281 6.839844 Z M 6.496094 6.722656 "/>
<path style=" stroke:none;fill-rule:nonzero;fill:rgb(100%,80.000001%,80.000001%);fill-opacity:1;" d="M 4.882812 6.835938 L 4.996094 6.953125 Z M 6.269531 6.835938 L 6.386719 6.953125 Z M 6.269531 6.835938 "/>
<path style=" stroke:none;fill-rule:nonzero;fill:rgb(80.000001%,80.000001%,100%);fill-opacity:1;" d="M 4.765625 6.953125 L 4.882812 7.074219 Z M 4.765625 6.953125 "/>
<path style=" stroke:none;fill-rule:nonzero;fill:rgb(80.000001%,20%,20%);fill-opacity:1;" d="M 5.035156 7.03125 L 5.074219 7.109375 Z M 6.1875 7.03125 L 6.226562 7.109375 Z M 6.1875 7.03125 "/>
<path style=" stroke:none;fill-rule:nonzero;fill:rgb(80.000001%,80.000001%,100%);fill-opacity:1;" d="M 6.378906 6.953125 L 6.496094 7.074219 Z M 6.378906 6.953125 "/>
<path style=" stroke:none;fill-rule:nonzero;fill:rgb(60.000002%,80.000001%,80.000001%);fill-opacity:1;" d="M 4.765625 7.070312 L 4.882812 7.1875 Z M 6.378906 7.070312 L 6.496094 7.1875 Z M 6.378906 7.070312 "/>
<path style=" stroke:none;fill-rule:nonzero;fill:rgb(100%,80.000001%,80.000001%);fill-opacity:1;" d="M 4.996094 7.1875 L 5.113281 7.308594 Z M 6.148438 7.1875 L 6.265625 7.308594 Z M 6.148438 7.1875 "/>
<path style=" stroke:none;fill-rule:nonzero;fill:rgb(80.000001%,100%,100%);fill-opacity:1;" d="M 4.882812 7.304688 L 4.996094 7.421875 Z M 4.882812 7.304688 "/>
<path style=" stroke:none;fill-rule:nonzero;fill:rgb(80.000001%,20%,20%);fill-opacity:1;" d="M 5.148438 7.382812 L 5.1875 7.460938 Z M 6.070312 7.382812 L 6.109375 7.460938 Z M 6.070312 7.382812 "/>
<path style=" stroke:none;fill-rule:nonzero;fill:rgb(80.000001%,100%,100%);fill-opacity:1;" d="M 6.265625 7.304688 L 6.382812 7.421875 Z M 6.265625 7.304688 "/>
<path style=" stroke:none;fill-rule:nonzero;fill:rgb(60.000002%,80.000001%,80.000001%);fill-opacity:1;" d="M 4.882812 7.421875 L 4.996094 7.539062 Z M 6.269531 7.421875 L 6.386719 7.539062 Z M 6.269531 7.421875 "/>
<path style=" stroke:none;fill-rule:nonzero;fill:rgb(40.000001%,60.000002%,80.000001%);fill-opacity:1;" d="M 4.882812 7.535156 L 4.996094 7.65625 Z M 4.882812 7.535156 "/>
<path style=" stroke:none;fill-rule:nonzero;fill:rgb(100%,80.000001%,80.000001%);fill-opacity:1;" d="M 5.109375 7.535156 L 5.226562 7.65625 Z M 6.035156 7.535156 L 6.152344 7.65625 Z M 6.035156 7.535156 "/>
<path style=" stroke:none;fill-rule:nonzero;fill:rgb(40.000001%,60.000002%,80.000001%);fill-opacity:1;" d="M 6.265625 7.535156 L 6.382812 7.65625 Z M 6.265625 7.535156 "/>
<path style=" stroke:none;fill-rule:nonzero;fill:rgb(80.000001%,100%,100%);fill-opacity:1;" d="M 4.996094 7.65625 L 5.113281 7.773438 Z M 6.148438 7.65625 L 6.265625 7.773438 Z M 6.148438 7.65625 "/>
<path style=" stroke:none;fill-rule:nonzero;fill:rgb(60.000002%,80.000001%,80.000001%);fill-opacity:1;" d="M 4.996094 7.769531 L 5.113281 7.890625 Z M 6.148438 7.769531 L 6.265625 7.890625 Z M 6.148438 7.769531 "/>
<path style=" stroke:none;fill-rule:nonzero;fill:rgb(40.000001%,60.000002%,80.000001%);fill-opacity:1;" d="M 4.996094 7.890625 L 5.113281 8.007812 Z M 6.148438 7.890625 L 6.265625 8.007812 Z M 6.148438 7.890625 "/>
<path style=" stroke:none;fill-rule:nonzero;fill:rgb(100%,80.000001%,80.000001%);fill-opacity:1;" d="M 5.226562 8.003906 L 5.34375 8.121094 Z M 5.917969 8.003906 L 6.035156 8.121094 Z M 5.917969 8.003906 "/>
<path style=" stroke:none;fill-rule:nonzero;fill:rgb(60.000002%,80.000001%,100%);fill-opacity:1;" d="M 5.109375 8.121094 L 5.226562 8.242188 Z M 5.109375 8.121094 "/>
<path style=" stroke:none;fill-rule:nonzero;fill:rgb(80.000001%,20%,20%);fill-opacity:1;" d="M 5.378906 8.203125 L 5.417969 8.28125 Z M 5.839844 8.203125 L 5.878906 8.28125 Z M 5.839844 8.203125 "/>
<path style=" stroke:none;fill-rule:nonzero;fill:rgb(60.000002%,80.000001%,100%);fill-opacity:1;" d="M 6.035156 8.121094 L 6.152344 8.242188 Z M 6.035156 8.121094 "/>
<path style=" stroke:none;fill-rule:nonzero;fill:rgb(40.000001%,60.000002%,80.000001%);fill-opacity:1;" d="M 5.109375 8.242188 L 5.226562 8.355469 Z M 6.035156 8.242188 L 6.152344 8.359375 Z M 6.035156 8.242188 "/>
<path style=" stroke:none;fill-rule:nonzero;fill:rgb(100%,80.000001%,80.000001%);fill-opacity:1;" d="M 5.339844 8.355469 L 5.457031 8.476562 Z M 5.804688 8.355469 L 5.917969 8.476562 Z M 5.804688 8.355469 "/>
<path style=" stroke:none;fill-rule:nonzero;fill:rgb(60.000002%,80.000001%,100%);fill-opacity:1;" d="M 5.226562 8.472656 L 5.34375 8.589844 Z M 5.917969 8.472656 L 6.035156 8.589844 Z M 5.917969 8.472656 "/>
<path style=" stroke:none;fill-rule:nonzero;fill:rgb(40.000001%,80.000001%,80.000001%);fill-opacity:1;" d="M 5.226562 8.589844 L 5.34375 8.707031 Z M 5.917969 8.589844 L 6.035156 8.707031 Z M 5.917969 8.589844 "/>
<path style=" stroke:none;fill-rule:nonzero;fill:rgb(100%,80.000001%,80.000001%);fill-opacity:1;" d="M 5.457031 8.707031 L 5.574219 8.828125 Z M 5.6875 8.707031 L 5.804688 8.828125 Z M 5.6875 8.707031 "/>
<path style=" stroke:none;fill-rule:nonzero;fill:rgb(80.000001%,80.000001%,100%);fill-opacity:1;" d="M 5.339844 8.824219 L 5.457031 8.941406 Z M 5.804688 8.824219 L 5.917969 8.941406 Z M 5.804688 8.824219 "/>
<path style=" stroke:none;fill-rule:nonzero;fill:rgb(40.000001%,80.000001%,80.000001%);fill-opacity:1;" d="M 5.339844 8.941406 L 5.457031 9.0625 Z M 5.339844 8.941406 "/>
<path style=" stroke:none;fill-rule:nonzero;fill:rgb(80.000001%,40.000001%,40.000001%);fill-opacity:1;" d="M 5.574219 8.941406 L 5.6875 9.0625 Z M 5.574219 8.941406 "/>
<path style=" stroke:none;fill-rule:nonzero;fill:rgb(40.000001%,80.000001%,80.000001%);fill-opacity:1;" d="M 5.804688 8.941406 L 5.917969 9.0625 Z M 5.804688 8.941406 "/>
<path style=" stroke:none;fill-rule:nonzero;fill:rgb(80.000001%,80.000001%,100%);fill-opacity:1;" d="M 5.457031 9.175781 L 5.574219 9.292969 Z M 5.6875 9.175781 L 5.804688 9.292969 Z M 5.6875 9.175781 "/>
<path style=" stroke:none;fill-rule:nonzero;fill:rgb(60.000002%,80.000001%,80.000001%);fill-opacity:1;" d="M 5.457031 9.289062 L 5.574219 9.410156 Z M 5.6875 9.289062 L 5.804688 9.410156 Z M 5.570312 9.527344 L 5.6875 9.640625 Z M 5.570312 9.527344 "/>
</g>
</svg>
