<?xml version="1.0" encoding="UTF-8"?>
<svg xmlns="http://www.w3.org/2000/svg" xmlns:xlink="http://www.w3.org/1999/xlink" width="25px" height="px" viewBox="0 0 25 19" version="1.1">
<g id="surface1">
<path style=" stroke:none;fill-rule:nonzero;fill:rgb(24.705882%,61.176473%,20.784314%);fill-opacity:1;" d="M 0.00390625 0 L 25.003906 0 L 25.003906 19 L 0.00390625 19 Z M 0.00390625 0 "/>
<path style=" stroke:none;fill-rule:nonzero;fill:rgb(92.941177%,16.078432%,22.352941%);fill-opacity:1;" d="M 0.00390625 0 L 25.003906 0 L 25.003906 12.667969 L 0.00390625 12.667969 Z M 0.00390625 0 "/>
<path style=" stroke:none;fill-rule:nonzero;fill:rgb(0%,72.549021%,89.411765%);fill-opacity:1;" d="M 0.00390625 0 L 25.003906 0 L 25.003906 6.332031 L 0.00390625 6.332031 Z M 0.00390625 0 "/>
<path style=" stroke:none;fill-rule:nonzero;fill:rgb(100%,100%,100%);fill-opacity:1;" d="M 14.6875 9.5 C 14.6875 7.925781 13.429688 6.648438 11.875 6.648438 C 10.320312 6.648438 9.0625 7.925781 9.0625 9.5 C 9.0625 11.074219 10.320312 12.351562 11.875 12.351562 C 13.429688 12.351562 14.6875 11.074219 14.6875 9.5 Z M 14.6875 9.5 "/>
<path style=" stroke:none;fill-rule:nonzero;fill:rgb(92.941177%,16.078432%,22.352941%);fill-opacity:1;" d="M 14.84375 9.5 C 14.84375 8.1875 13.792969 7.125 12.5 7.125 C 11.207031 7.125 10.15625 8.1875 10.15625 9.5 C 10.15625 10.8125 11.207031 11.875 12.5 11.875 C 13.792969 11.875 14.84375 10.8125 14.84375 9.5 Z M 14.84375 9.5 "/>
<path style=" stroke:none;fill-rule:nonzero;fill:rgb(100%,100%,100%);fill-opacity:1;" d="M 15 7.917969 L 15.300781 8.769531 L 16.105469 8.378906 L 15.722656 9.199219 L 16.5625 9.5 L 15.722656 9.804688 L 16.105469 10.621094 L 15.300781 10.230469 L 15 11.082031 L 14.699219 10.230469 L 13.894531 10.621094 L 14.277344 9.804688 L 13.4375 9.5 L 14.277344 9.195312 L 13.894531 8.378906 L 14.699219 8.769531 Z M 15 7.917969 "/>
</g>
</svg>
