<svg xmlns="http://www.w3.org/2000/svg" width="25" height="px" viewBox="0 0 25 19"><path d="M.004 0h25v19h-25Zm0 0" style="stroke:none;fill-rule:nonzero;fill:#3f9c35;fill-opacity:1"/><path d="M.004 0h25v12.668h-25Zm0 0" style="stroke:none;fill-rule:nonzero;fill:#ed2939;fill-opacity:1"/><path d="M.004 0h25v6.332h-25Zm0 0" style="stroke:none;fill-rule:nonzero;fill:#00b9e4;fill-opacity:1"/><path d="M14.688 9.5c0-1.574-1.258-2.852-2.813-2.852S9.063 7.926 9.063 9.5s1.257 2.852 2.812 2.852 2.813-1.278 2.813-2.852m0 0" style="stroke:none;fill-rule:nonzero;fill:#fff;fill-opacity:1"/><path d="M14.844 9.5c0-1.312-1.051-2.375-2.344-2.375S10.156 8.188 10.156 9.5s1.051 2.375 2.344 2.375 2.344-1.062 2.344-2.375m0 0" style="stroke:none;fill-rule:nonzero;fill:#ed2939;fill-opacity:1"/><path d="m15 7.918.3.852.805-.391-.382.82.84.301-.84.305.382.816-.804-.39-.301.851-.3-.852-.805.391.382-.816-.84-.305.84-.305-.382-.816.804.39Zm0 0" style="stroke:none;fill-rule:nonzero;fill:#fff;fill-opacity:1"/></svg>