<?xml version="1.0" encoding="UTF-8"?>
<svg xmlns="http://www.w3.org/2000/svg" xmlns:xlink="http://www.w3.org/1999/xlink" width="25px" height="px" viewBox="0 0 25 19" version="1.1">
<g id="surface1">
<rect x="0" y="0" width="25" height="19" style="fill:rgb(0%,0%,60.000002%);fill-opacity:1;stroke:none;"/>
<path style=" stroke:none;fill-rule:evenodd;fill:rgb(100%,80.000001%,0%);fill-opacity:1;" d="M 5.195312 0 L 23.90625 19.011719 L 23.90625 0.0117188 Z M 5.195312 0 "/>
<path style=" stroke:none;fill-rule:evenodd;fill:rgb(100%,100%,100%);fill-opacity:1;" d="M 19.234375 17.867188 L 18.210938 17.113281 L 17.164062 17.863281 L 17.5625 16.632812 L 16.527344 15.871094 L 17.808594 15.871094 L 18.207031 14.640625 L 18.597656 15.875 L 19.878906 15.875 L 18.855469 16.644531 Z M 22.210938 18.253906 L 20.929688 18.25 L 20.539062 17.015625 L 20.144531 18.246094 L 18.859375 18.246094 L 19.894531 19.007812 L 19.5 20.238281 L 20.546875 19.488281 L 21.570312 20.242188 L 21.1875 19.019531 Z M 16.515625 14.277344 L 17.539062 13.507812 L 16.257812 13.503906 L 15.867188 12.273438 L 15.46875 13.503906 L 14.1875 13.5 L 15.222656 14.261719 L 14.824219 15.496094 L 15.871094 14.742188 L 16.898438 15.5 Z M 14.160156 11.882812 L 15.183594 11.117188 L 13.902344 11.113281 L 13.511719 9.878906 L 13.113281 11.109375 L 11.832031 11.109375 L 12.867188 11.871094 L 12.472656 13.101562 L 13.519531 12.355469 L 14.539062 13.105469 Z M 11.828125 9.523438 L 12.851562 8.753906 L 11.570312 8.753906 L 11.179688 7.515625 L 10.785156 8.746094 L 9.503906 8.746094 L 10.539062 9.503906 L 10.140625 10.738281 L 11.1875 9.984375 L 12.214844 10.742188 L 11.828125 9.519531 Z M 9.46875 7.136719 L 10.492188 6.371094 L 9.210938 6.367188 L 8.820312 5.132812 L 8.421875 6.363281 L 7.140625 6.363281 L 8.179688 7.125 L 7.78125 8.355469 L 8.832031 7.609375 L 9.851562 8.359375 L 9.472656 7.136719 Z M 7.140625 4.765625 L 8.160156 3.996094 L 6.878906 3.996094 L 6.492188 2.757812 L 6.089844 3.992188 L 4.808594 3.992188 L 5.851562 4.75 L 5.449219 5.980469 L 6.496094 5.234375 L 7.515625 5.988281 Z M 4.796875 2.390625 L 5.816406 1.621094 L 4.535156 1.621094 L 4.148438 0.382812 L 3.746094 1.617188 L 2.464844 1.617188 L 3.507812 2.375 L 3.101562 3.609375 L 4.152344 2.859375 L 5.171875 3.613281 Z M 2.453125 0.015625 L 3.46875 -0.753906 L 2.1875 -0.753906 L 1.796875 -1.988281 L 1.402344 -0.757812 L 0.121094 -0.757812 L 1.160156 0 L 0.761719 1.230469 L 1.808594 0.484375 L 2.828125 1.238281 Z M 2.453125 0.015625 "/>
</g>
</svg>
