<svg xmlns="http://www.w3.org/2000/svg" width="25" height="px" viewBox="0 0 25 19"><path d="M0 0h25v19H0z" style="fill:#00267f;fill-opacity:1;stroke:none"/><path d="M8.332 0h8.336v19H8.332Zm0 0" style="stroke:none;fill-rule:nonzero;fill:#ffc726;fill-opacity:1"/><path d="M12.492 5.363c-.273.754-.547 1.528-1.14 2.125.183-.062.507-.117.71-.11v3.145l-.874.133c-.032 0-.04-.05-.04-.12-.085-.977-.312-1.802-.578-2.65-.02-.116-.351-.554-.093-.476.03 0 .37.14.32.074a3.33 3.33 0 0 0-1.813-.949c-.058-.012-.093.02-.039.086.875 1.371 1.614 2.988 1.606 4.91.344 0 1.172-.207 1.511-.207v2.223h.438l.098-6.203Zm0 0" style="stroke:none;fill-rule:nonzero;fill:#000001;fill-opacity:1"/><path d="M12.488 5.363c.274.754.547 1.528 1.14 2.125a2.4 2.4 0 0 0-.71-.11v3.145l.875.133c.031 0 .039-.05.039-.12.086-.977.313-1.802.578-2.65.02-.116.352-.554.094-.476-.031 0-.371.14-.32.074a3.33 3.33 0 0 1 1.812-.949c.059-.012.094.02.04.086-.876 1.371-1.614 2.988-1.606 4.91-.344 0-1.172-.207-1.512-.207v2.223h-.438l-.097-6.203Zm0 0" style="stroke:none;fill-rule:nonzero;fill:#000001;fill-opacity:1"/></svg>