<?xml version="1.0" encoding="UTF-8"?>
<svg xmlns="http://www.w3.org/2000/svg" xmlns:xlink="http://www.w3.org/1999/xlink" width="25px" height="px" viewBox="0 0 25 19" version="1.1">
<g id="surface1">
<rect x="0" y="0" width="25" height="19" style="fill:rgb(0%,14.901961%,49.803922%);fill-opacity:1;stroke:none;"/>
<path style=" stroke:none;fill-rule:nonzero;fill:rgb(100%,78.039217%,14.901961%);fill-opacity:1;" d="M 8.332031 0 L 16.667969 0 L 16.667969 19 L 8.332031 19 Z M 8.332031 0 "/>
<path style=" stroke:none;fill-rule:nonzero;fill:rgb(0%,0%,0.392157%);fill-opacity:1;" d="M 12.492188 5.363281 C 12.21875 6.117188 11.945312 6.890625 11.351562 7.488281 C 11.535156 7.425781 11.859375 7.371094 12.0625 7.378906 L 12.0625 10.523438 L 11.1875 10.65625 C 11.15625 10.65625 11.148438 10.605469 11.148438 10.535156 C 11.0625 9.558594 10.835938 8.734375 10.570312 7.886719 C 10.550781 7.769531 10.21875 7.332031 10.476562 7.410156 C 10.507812 7.410156 10.847656 7.550781 10.796875 7.484375 C 10.304688 6.984375 9.671875 6.652344 8.984375 6.535156 C 8.925781 6.523438 8.890625 6.554688 8.945312 6.621094 C 9.820312 7.992188 10.558594 9.609375 10.550781 11.53125 C 10.894531 11.53125 11.722656 11.324219 12.0625 11.324219 L 12.0625 13.546875 L 12.5 13.546875 L 12.597656 7.34375 Z M 12.492188 5.363281 "/>
<path style=" stroke:none;fill-rule:nonzero;fill:rgb(0%,0%,0.392157%);fill-opacity:1;" d="M 12.488281 5.363281 C 12.761719 6.117188 13.035156 6.890625 13.628906 7.488281 C 13.445312 7.425781 13.121094 7.371094 12.917969 7.378906 L 12.917969 10.523438 L 13.792969 10.65625 C 13.824219 10.65625 13.832031 10.605469 13.832031 10.535156 C 13.917969 9.558594 14.144531 8.734375 14.410156 7.886719 C 14.429688 7.769531 14.761719 7.332031 14.503906 7.410156 C 14.472656 7.410156 14.132812 7.550781 14.183594 7.484375 C 14.675781 6.984375 15.308594 6.652344 15.996094 6.535156 C 16.054688 6.523438 16.089844 6.554688 16.035156 6.621094 C 15.160156 7.992188 14.421875 9.609375 14.429688 11.53125 C 14.085938 11.53125 13.257812 11.324219 12.917969 11.324219 L 12.917969 13.546875 L 12.480469 13.546875 L 12.382812 7.34375 Z M 12.488281 5.363281 "/>
</g>
</svg>
