<?xml version="1.0" encoding="UTF-8"?>
<svg xmlns="http://www.w3.org/2000/svg" xmlns:xlink="http://www.w3.org/1999/xlink" width="25px" height="px" viewBox="0 0 25 19" version="1.1">
<defs>
<clipPath id="clip1">
  <path d="M 0.00390625 0 L 24.996094 0 L 24.996094 19 L 0.00390625 19 Z M 0.00390625 0 "/>
</clipPath>
<clipPath id="clip2">
  <path d="M 0.00390625 0 L 24.996094 0 L 24.996094 19 L 0.00390625 19 Z M 0.00390625 0 "/>
</clipPath>
</defs>
<g id="surface1">
<g clip-path="url(#clip1)" clip-rule="nonzero">
<path style=" stroke:none;fill-rule:evenodd;fill:rgb(9.411765%,71.372551%,21.568628%);fill-opacity:1;" d="M -3.203125 0 L 12.5 9.5 L -3.203125 19 Z M 28.203125 0 L 12.5 9.5 L 28.203125 19 Z M 28.203125 0 "/>
<path style=" stroke:none;fill-rule:evenodd;fill:rgb(81.176472%,3.529412%,12.941177%);fill-opacity:1;" d="M -3.203125 0 L 12.5 9.5 L 28.203125 0 Z M -3.203125 19 L 12.5 9.5 L 28.203125 19 Z M -3.203125 19 "/>
<path style=" stroke:none;fill-rule:evenodd;fill:rgb(100%,100%,100%);fill-opacity:1;" d="M 28.203125 0 L 25.277344 0 L -3.203125 17.230469 L -3.203125 19 L -0.277344 19 L 28.203125 1.769531 Z M 28.203125 0 "/>
</g>
<path style=" stroke:none;fill-rule:evenodd;fill:rgb(100%,100%,100%);fill-opacity:1;" d="M 17.925781 9.5 C 17.925781 12.535156 15.496094 14.992188 12.503906 14.992188 C 9.507812 14.992188 7.082031 12.535156 7.082031 9.5 C 7.082031 6.464844 9.507812 4.007812 12.5 4.007812 C 15.496094 4.007812 17.921875 6.464844 17.921875 9.5 Z M 17.925781 9.5 "/>
<g clip-path="url(#clip2)" clip-rule="nonzero">
<path style=" stroke:none;fill-rule:evenodd;fill:rgb(100%,100%,100%);fill-opacity:1;" d="M -3.203125 0 L -3.203125 1.769531 L 25.277344 19 L 28.203125 19 L 28.203125 17.230469 L -0.277344 0 Z M -3.203125 0 "/>
</g>
<path style="fill-rule:evenodd;fill:rgb(81.176472%,3.529412%,12.941177%);fill-opacity:1;stroke-width:3.9;stroke-linecap:butt;stroke-linejoin:miter;stroke:rgb(9.411765%,71.372551%,21.568628%);stroke-opacity:1;stroke-miterlimit:4;" d="M 279.999998 200.210526 L 260.693332 200.526316 L 250.666665 216.947368 L 240.853332 200.526316 L 221.653332 200.105263 L 230.933332 183.157895 L 221.653332 166.421053 L 240.853332 166 L 250.879998 149.578947 L 260.799998 166.105263 L 279.999998 166.526316 L 270.719998 183.263158 Z M 215.359998 311.789474 L 196.159998 312.105263 L 186.239998 328.526316 L 176.319998 312.105263 L 157.119998 311.684211 L 166.399998 294.842105 L 157.226665 278 L 176.426665 277.578947 L 186.453332 261.157895 L 196.266665 277.684211 L 215.466665 278.105263 L 206.186665 294.947368 Z M 346.026665 311.789474 L 326.826665 312.105263 L 316.799998 328.526316 L 306.773332 312.105263 L 287.679998 311.684211 L 296.959998 294.842105 L 287.679998 278 L 306.879998 277.578947 L 316.906665 261.157895 L 326.933332 277.684211 L 346.133332 278.105263 L 336.746665 294.947368 Z M 346.026665 311.789474 " transform="matrix(0.0366211,0,0,0.0371094,3.316406,0)"/>
</g>
</svg>
