<?xml version="1.0" encoding="UTF-8"?>
<svg xmlns="http://www.w3.org/2000/svg" xmlns:xlink="http://www.w3.org/1999/xlink" width="25px" height="px" viewBox="0 0 25 19" version="1.1">
<g id="surface1">
<rect x="0" y="0" width="25" height="19" style="fill:rgb(81.176472%,7.843138%,16.862746%);fill-opacity:1;stroke:none;"/>
<path style=" stroke:none;fill-rule:nonzero;fill:rgb(100%,100%,100%);fill-opacity:1;" d="M 21.863281 5.167969 L 21.863281 11.566406 C 21.863281 13.273438 18.496094 13.832031 18.496094 13.832031 C 18.496094 13.832031 15.121094 13.277344 15.121094 11.558594 L 15.121094 5.167969 Z M 21.863281 5.167969 "/>
<path style=" stroke:none;fill-rule:nonzero;fill:rgb(18.431373%,56.078434%,13.333334%);fill-opacity:1;" d="M 21.863281 11.566406 C 21.863281 13.273438 18.496094 13.832031 18.496094 13.832031 C 18.496094 13.832031 15.121094 13.277344 15.121094 11.558594 C 15.121094 11.558594 15.121094 11.417969 15.191406 11.34375 C 15.191406 11.34375 15.152344 11.625 15.367188 11.84375 C 15.367188 11.84375 15.199219 11.535156 15.367188 11.238281 C 15.367188 11.238281 15.300781 11.625 15.539062 11.84375 C 15.539062 11.84375 15.410156 11.53125 15.554688 11.183594 C 15.554688 11.183594 15.484375 11.75 15.738281 11.867188 C 15.738281 11.867188 15.808594 11.535156 15.707031 11.328125 C 15.707031 11.328125 15.882812 11.398438 15.875 11.875 C 15.875 11.875 15.929688 11.804688 15.945312 11.460938 C 15.945312 11.460938 15.953125 11.855469 16.082031 11.945312 C 16.082031 11.945312 16.128906 11.90625 16.070312 11.730469 C 16.007812 11.554688 16.09375 11.492188 16.109375 11.492188 C 16.109375 11.492188 16.078125 11.6875 16.242188 11.839844 C 16.242188 11.839844 16.171875 11.527344 16.269531 11.484375 C 16.269531 11.484375 16.246094 11.75 16.457031 11.804688 C 16.457031 11.804688 16.46875 11.730469 16.425781 11.644531 C 16.425781 11.644531 16.386719 11.546875 16.414062 11.46875 C 16.414062 11.46875 16.480469 11.703125 16.570312 11.746094 C 16.570312 11.746094 16.515625 11.601562 16.570312 11.46875 C 16.570312 11.46875 16.578125 11.664062 16.753906 11.75 C 16.753906 11.75 16.636719 11.589844 16.679688 11.421875 L 17.800781 11.480469 L 18.386719 11.507812 L 20.132812 11.386719 L 20.429688 11.121094 C 20.429688 11.121094 20.550781 11.285156 20.359375 11.550781 C 20.359375 11.550781 20.546875 11.519531 20.605469 11.222656 C 20.605469 11.222656 20.683594 11.382812 20.578125 11.570312 C 20.578125 11.570312 20.785156 11.355469 20.8125 11.121094 C 20.8125 11.121094 20.894531 11.351562 20.699219 11.597656 C 20.699219 11.597656 20.871094 11.535156 20.945312 11.277344 C 20.945312 11.277344 21.007812 11.4375 20.839844 11.652344 C 20.839844 11.652344 21.15625 11.492188 21.148438 11.140625 C 21.148438 11.140625 21.277344 11.328125 21.128906 11.597656 C 21.128906 11.597656 21.285156 11.453125 21.304688 11.230469 C 21.304688 11.230469 21.394531 11.328125 21.296875 11.601562 C 21.296875 11.601562 21.492188 11.410156 21.523438 11.210938 C 21.523438 11.210938 21.5625 11.398438 21.398438 11.636719 C 21.398438 11.636719 21.511719 11.605469 21.621094 11.375 C 21.621094 11.375 21.648438 11.472656 21.550781 11.636719 C 21.550781 11.636719 21.660156 11.617188 21.730469 11.402344 C 21.730469 11.402344 21.742188 11.53125 21.710938 11.640625 C 21.710938 11.640625 21.792969 11.589844 21.8125 11.351562 C 21.8125 11.414062 21.828125 11.472656 21.859375 11.527344 L 21.859375 11.558594 Z M 21.863281 11.566406 "/>
<path style="fill-rule:nonzero;fill:rgb(83.137256%,0%,0%);fill-opacity:1;stroke-width:1.2;stroke-linecap:butt;stroke-linejoin:round;stroke:rgb(0%,0%,0%);stroke-opacity:1;stroke-miterlimit:4;" d="M 515.4 198.651316 C 515.4 198.651316 512.4 199.342105 508.4 198.059211 C 504.6 196.875 503.1 197.368421 501.9 198.059211 C 501.9 198.059211 503.4 195 499.6 192.532895 C 499.6 192.532895 500.8 195.690789 499.1 197.072368 C 499.1 197.072368 498.4 197.763158 497.5 196.776316 C 497.5 196.776316 496.2 195.296053 494.7 194.407895 C 494.7 194.407895 498 193.223684 497.4 189.868421 C 496.8 186.611842 495 186.315789 494.1 185.822368 C 493.9 186.611842 493.9 187.401316 494.1 188.190789 C 494.1 188.190789 490.6 186.217105 495.3 183.453947 C 500 180.789474 499.3 179.111842 498.4 177.730263 C 497.5 176.25 496.3 175.065789 494.9 174.078947 C 494.9 174.078947 495.9 175.657895 495.6 177.039474 C 495.5 178.223684 493.2 179.013158 493.6 176.940789 C 494.1 174.473684 493.6 174.868421 493.6 172.598684 C 493.6 172.598684 497.8 173.980263 499.6 169.835526 C 499.6 169.835526 501.2 165.493421 495.8 163.421053 C 495.8 163.421053 497.1 165.197368 496.5 166.381579 C 496.5 166.381579 495.3 168.552632 494 166.973684 C 492.7 165.394737 491.8 164.802632 491.9 162.828947 C 491.9 162.828947 496.8 163.519737 495.5 158.092105 C 495.5 158.092105 494.6 161.743421 488.3 156.907895 C 488.3 156.907895 492.5 152.664474 490.8 149.309211 C 490.8 149.309211 490.3 147.828947 485.9 148.618421 C 485.9 148.618421 489.7 146.151316 488.2 144.078947 C 488.2 144.078947 487.3 142.796053 483.6 144.473684 C 483.6 144.473684 485.1 142.203947 481.5 139.539474 C 481.5 139.539474 479.1 140.723684 477.9 141.907895 C 477.9 141.907895 475.5 138.947368 473.9 137.565789 C 473.9 137.565789 471.1 138.651316 470.4 141.907895 C 470.4 141.907895 469.1 140.427632 466.1 139.539474 C 466.1 139.539474 464.7 142.302632 466.6 144.473684 C 466.6 144.473684 465.2 144.473684 462.6 143.388158 C 462.6 143.388158 459.8 142.203947 460.3 144.473684 C 460.6 146.940789 460.9 147.532895 461.5 148.717105 C 461.5 148.717105 455 147.236842 455.3 150.690789 C 455.4 153.059211 456.5 155.328947 458.3 156.907895 C 458.3 156.907895 454.8 161.743421 451.7 158.092105 C 451.7 158.092105 450.5 159.276316 452.9 162.335526 C 452.9 162.335526 455.3 164.802632 453.2 166.480263 C 453.2 166.480263 450.7 168.453947 449.5 164.506579 C 449.5 164.506579 445.4 168.552632 450.3 171.710526 C 450.3 171.710526 453.3 173.486842 456.6 170.723684 C 456.6 170.723684 455.6 178.717105 452.6 177.138158 C 452.6 177.138158 450.7 175.855263 454 174.177632 C 454 174.177632 449.2 173.585526 448.5 178.223684 C 448.5 178.223684 447.9 181.677632 452 183.157895 C 452 183.157895 455.1 184.440789 452 186.809211 C 452 186.809211 449.5 188.486842 451.1 191.151316 C 451.1 191.151316 452.9 194.013158 448.2 194.407895 C 448.2 194.407895 445.8 194.407895 444.9 194.013158 C 444.9 194.013158 443.9 195.986842 444.5 197.960526 C 444.5 197.960526 442.2 196.282895 437 198.157895 C 431.8 200.230263 432.1 198.848684 431.8 199.440789 L 430.2 201.809211 C 430.2 201.809211 433 205.361842 433.1 205.065789 L 432.5 209.111842 L 433.9 209.703947 L 444.7 204.868421 L 455.7 199.243421 L 464.6 199.638158 L 470.2 200.921053 L 477.4 201.513158 L 482.8 198.651316 L 490.4 198.651316 L 498.8 202.894737 L 508.3 208.618421 L 513.3 209.605263 L 517.2 209.309211 L 517.2 201.513158 Z M 515.4 198.651316 " transform="matrix(0.0390625,0,0,0.0395833,0,0)"/>
<path style="fill-rule:nonzero;fill:rgb(83.137256%,0%,0%);fill-opacity:1;stroke-width:1.2;stroke-linecap:butt;stroke-linejoin:round;stroke:rgb(0%,0%,0%);stroke-opacity:1;stroke-miterlimit:4;" d="M 428.2 207.730263 C 428.2 207.730263 432.4 209.901316 434.2 207.434211 C 434.2 207.434211 436.4 202.993421 431.4 201.414474 C 431.4 201.414474 434.2 198.157895 431.2 195.197368 C 431.2 195.197368 429.6 193.618421 427 194.703947 C 427 194.703947 425.8 192.434211 423.3 192.532895 C 423.3 192.532895 420.9 192.532895 420.3 195 C 420.3 195 417.1 193.815789 415.4 195.592105 C 415.4 195.592105 412.4 198.848684 416.5 201.414474 L 419.4 201.710526 L 422.2 200.328947 L 425.5 201.217105 C 425.5 201.217105 424.6 204.375 428.2 207.730263 Z M 428.2 207.730263 " transform="matrix(0.0390625,0,0,0.0395833,0,0)"/>
<path style="fill-rule:nonzero;fill:rgb(39.215687%,70.588237%,81.960785%);fill-opacity:1;stroke-width:1.2;stroke-linecap:butt;stroke-linejoin:miter;stroke:rgb(0%,0%,0%);stroke-opacity:1;stroke-miterlimit:4;" d="M 521.6 200.131579 C 524.5 199.835526 527.2 201.315789 528.5 203.881579 C 531.1 210.098684 525.5 213.453947 525.5 213.453947 C 525.9 214.835526 526 216.710526 526 216.710526 C 533.8 217.697368 532.4 226.480263 532.4 226.480263 L 529.8 224.309211 C 525.3 222.532895 520.5 226.480263 517.2 232.894737 C 513.8 239.506579 515.4 242.368421 516 250.164474 C 516.6 257.861842 529 262.598684 529 262.598684 L 519.3 287.565789 C 515.5 297.631579 507.3 293.486842 505 291.315789 C 502.7 289.342105 502.1 290.526316 501 291.315789 C 499.9 292.302632 506.3 297.335526 494.5 302.072368 C 482.8 306.809211 480.8 310.361842 478.8 311.644737 C 476.8 312.828947 468.8 312.138158 468 310.953947 C 467 309.967105 467.6 309.967105 464.5 308.092105 C 461.5 306.414474 456.3 304.638158 450.7 301.875 C 445.1 299.210526 445.3 295.657895 445.4 294.967105 C 445.4 294.276316 447.3 288.453947 440.7 293.092105 C 434.2 297.828947 428.6 290.921053 428.6 290.921053 C 427.4 289.243421 421.8 274.539474 421.8 274.539474 C 420.6 270.394737 419.2 266.348684 417.5 262.5 C 417.5 262.5 417.1 263.289474 422 260.526316 C 426.8 257.763158 429 253.223684 430.7 248.585526 C 432.4 244.046053 430.7 236.052632 430.1 234.572368 C 429.5 232.993421 425.9 225.690789 421.4 224.210526 C 417 222.631579 413.9 226.578947 413.9 226.578947 C 413.9 226.578947 412.6 217.598684 420.5 216.611842 C 420.5 216.611842 420.5 214.835526 420.9 213.453947 C 420.9 213.453947 415.3 210.098684 417.9 203.881579 C 417.9 203.881579 419.7 199.638158 424.7 200.131579 L 423.6 202.5 C 423.6 202.5 422.4 215.131579 440.8 206.743421 C 459.3 198.059211 458.8 196.480263 469.5 201.907895 L 477.1 201.809211 C 477.1 201.809211 488.1 196.480263 491.8 198.848684 C 495.3 201.118421 508.1 208.223684 508.1 208.223684 C 508.1 208.223684 520.5 212.861842 523 204.177632 Z M 521.6 200.131579 " transform="matrix(0.0390625,0,0,0.0395833,0,0)"/>
<path style="fill-rule:nonzero;fill:rgb(100%,100%,100%);fill-opacity:1;stroke-width:1.2;stroke-linecap:butt;stroke-linejoin:miter;stroke:rgb(0%,14.117648%,49.019608%);stroke-opacity:1;stroke-miterlimit:10;" d="M 465.8 255 C 465.8 255 465.2 251.052632 464.6 248.585526 C 464.6 248.585526 463.1 244.736842 465.6 241.776316 L 468.4 238.519737 C 468.4 238.519737 470.2 236.052632 472.4 235.756579 C 472.4 235.756579 474.7 235.756579 474.8 235.263158 C 475.1 234.769737 477.6 230.822368 483.4 235.263158 C 483.4 235.263158 485.2 232.302632 488.2 231.710526 C 488.2 231.710526 491.2 230.921053 492.7 233.092105 C 492.7 233.092105 496.2 230.526316 499.1 234.769737 C 499.1 234.769737 503.2 232.401316 506.3 237.138158 C 506.3 237.138158 510.3 235.065789 512.7 239.210526 C 515.2 243.453947 514.7 245.230263 514.7 245.230263 L 516.7 252.039474 L 523.2 260.032895 L 508 265.756579 L 501 265.756579 L 487.3 269.407895 L 463 271.282895 L 456.3 263.289474 L 465.9 255 Z M 465.8 255 " transform="matrix(0.0390625,0,0,0.0395833,0,0)"/>
<path style="fill-rule:nonzero;fill:rgb(83.137256%,0%,0%);fill-opacity:1;stroke-width:1.2;stroke-linecap:butt;stroke-linejoin:round;stroke:rgb(0%,0%,0%);stroke-opacity:1;stroke-miterlimit:4;" d="M 445.3 295.460526 C 445.3 295.460526 441.7 295.559211 439.8 296.743421 C 438 297.532895 436.5 298.519737 434.4 299.901316 C 434.4 299.901316 433.4 301.184211 429.2 300.394737 C 429.2 300.394737 422 298.717105 422 304.440789 C 422 304.440789 413.2 305.032895 416.8 312.730263 C 416.8 312.730263 419.1 318.651316 424.1 314.506579 C 424.1 314.506579 420.9 319.046053 427.1 320.822368 C 427.1 320.822368 431.5 322.006579 432.9 317.269737 C 432.9 317.269737 433.6 315.493421 431.9 313.322368 C 431.9 313.322368 434 312.927632 435.5 310.559211 C 435.5 310.559211 430.9 316.381579 436 318.552632 C 436 318.552632 442.3 320.131579 442.6 313.618421 C 442.6 313.618421 442 310.361842 444.6 309.276316 C 444.6 309.276316 449.6 308.092105 451.6 302.664474 C 451.6 302.664474 444.6 298.815789 445.3 295.460526 Z M 430.6 238.026316 C 430.6 238.026316 425 235.460526 422.2 238.026316 C 422.2 238.026316 418.7 235.756579 414.7 238.026316 C 414.7 238.026316 411 240.394737 408.4 243.157895 C 408.4 243.157895 406.6 244.736842 407.2 249.572368 C 407.2 249.572368 408.2 253.125 407.7 254.703947 C 407.7 254.703947 406.5 254.506579 404 257.467105 C 404 257.467105 400.9 261.019737 398 257.763158 C 398 257.763158 399 262.401316 404.1 261.611842 C 404.1 261.611842 401.6 263.585526 403.8 268.618421 C 403.8 268.618421 405.4 272.171053 402.8 276.809211 C 402.8 276.809211 407.3 275.032895 407.2 269.605263 C 407.2 269.605263 406.7 265.953947 408.2 263.585526 C 408.2 263.585526 406.7 265.756579 409.8 270.690789 C 409.8 270.690789 412.2 274.342105 410.3 277.894737 C 410.3 277.894737 414.7 276.315789 414.3 270.888158 C 413.9 265.460526 411.3 267.730263 412.9 262.697368 C 412.9 262.697368 413.4 265.263158 414.7 266.743421 C 416.8 268.421053 417.7 271.085526 417.1 273.651316 C 417.1 273.651316 419.7 270.296053 419.1 266.940789 C 418.9 265.361842 418.5 263.881579 417.8 262.5 L 426.2 257.664474 L 430.5 250.164474 Z M 430.6 238.026316 " transform="matrix(0.0390625,0,0,0.0395833,0,0)"/>
<path style="fill:none;stroke-width:1.2;stroke-linecap:butt;stroke-linejoin:miter;stroke:rgb(0%,0%,0%);stroke-opacity:1;stroke-miterlimit:10;" d="M 417.8 259.539474 C 417.8 259.539474 414.3 259.342105 413.8 256.480263 M 407.7 254.703947 C 407.7 254.703947 408.9 254.703947 410.1 255.888158 C 410.1 255.888158 410.8 257.072368 412 256.875 " transform="matrix(0.0390625,0,0,0.0395833,0,0)"/>
<path style=" stroke:none;fill-rule:nonzero;fill:rgb(0%,0%,0%);fill-opacity:1;" d="M 16.523438 9.863281 C 16.523438 9.863281 16.453125 9.863281 16.40625 9.832031 C 16.40625 9.832031 16.371094 9.804688 16.347656 9.847656 C 16.347656 9.847656 16.308594 9.910156 16.378906 9.9375 C 16.378906 9.9375 16.464844 9.988281 16.332031 10.074219 C 16.332031 10.074219 16.488281 10.011719 16.425781 9.929688 C 16.425781 9.929688 16.355469 9.882812 16.378906 9.863281 C 16.378906 9.863281 16.386719 9.847656 16.417969 9.863281 C 16.441406 9.886719 16.496094 9.878906 16.523438 9.863281 "/>
<path style="fill-rule:nonzero;fill:rgb(47.058824%,26.666668%,12.941177%);fill-opacity:1;stroke-width:1.2;stroke-linecap:butt;stroke-linejoin:miter;stroke:rgb(0%,0%,0%);stroke-opacity:1;stroke-miterlimit:4;" d="M 477.6 259.046053 L 479.7 258.355263 L 465.7 210.394737 L 465.3 210.394737 Z M 477.6 259.046053 " transform="matrix(0.0390625,0,0,0.0395833,0,0)"/>
<path style=" stroke:none;fill-rule:nonzero;fill:rgb(0%,0%,0%);fill-opacity:1;" d="M 16.84375 12.363281 C 16.84375 12.363281 16.71875 12.285156 16.609375 12.375 C 16.609375 12.375 16.625 12.328125 16.703125 12.304688 C 16.703125 12.304688 16.75 12.179688 16.871094 12.191406 C 16.871094 12.191406 16.820312 12.253906 16.753906 12.300781 C 16.753906 12.300781 16.824219 12.308594 16.847656 12.363281 Z M 16.84375 12.363281 "/>
<path style="fill-rule:nonzero;fill:rgb(39.215687%,70.588237%,81.960785%);fill-opacity:1;stroke-width:1.2;stroke-linecap:butt;stroke-linejoin:miter;stroke:rgb(0%,14.117648%,49.019608%);stroke-opacity:1;stroke-miterlimit:2.6;" d="M 419.7 319.835526 C 419.7 319.835526 414.5 316.578947 417.4 311.052632 C 417.4 311.052632 418.2 309.572368 419.7 309.868421 C 419.7 309.868421 423 310.855263 420.5 315.394737 C 420.5 315.394737 419.1 318.256579 419.7 319.934211 Z M 430.2 325.065789 C 430.2 325.065789 422.8 321.710526 425.1 315.888158 C 425.1 315.888158 425.8 313.914474 427.5 314.111842 C 427.5 314.111842 430.3 314.309211 429.8 318.059211 C 429.8 318.059211 428.9 321.710526 430.2 325.065789 Z M 430.2 325.065789 " transform="matrix(0.0390625,0,0,0.0395833,0,0)"/>
<path style=" stroke:none;fill-rule:nonzero;fill:rgb(0%,0%,0%);fill-opacity:1;" d="M 16.746094 12.015625 C 16.746094 12.015625 16.65625 12.085938 16.625 12.128906 C 16.625 12.128906 16.585938 12.082031 16.539062 12.058594 C 16.539062 12.058594 16.597656 12.046875 16.625 12.070312 C 16.625 12.070312 16.671875 12.03125 16.742188 12.015625 Z M 16.746094 12.015625 "/>
<path style="fill-rule:nonzero;fill:rgb(39.215687%,70.588237%,81.960785%);fill-opacity:1;stroke-width:1.2;stroke-linecap:butt;stroke-linejoin:miter;stroke:rgb(0%,14.117648%,49.019608%);stroke-opacity:1;stroke-miterlimit:2.6;" d="M 435.2 323.585526 C 435.2 323.585526 441.2 322.203947 440 316.085526 C 440 316.085526 439.4 313.519737 437 313.914474 C 437 313.914474 434 314.703947 436 318.453947 C 436 318.453947 437.1 321.118421 435.2 323.585526 Z M 435.2 323.585526 " transform="matrix(0.0390625,0,0,0.0395833,0,0)"/>
<path style="fill-rule:nonzero;fill:rgb(96.078432%,80.784315%,0%);fill-opacity:1;stroke-width:1.2;stroke-linecap:butt;stroke-linejoin:miter;stroke:rgb(0%,0%,0%);stroke-opacity:1;stroke-miterlimit:2.6;" d="M 461.6 196.677632 L 467.3 198.552632 C 467.3 198.552632 472.7 200.921053 479.6 198.552632 L 484.8 196.578947 L 481.3 202.006579 L 481.3 204.868421 L 483.4 208.125 C 483.4 208.125 482.1 208.717105 478 206.052632 C 478 206.052632 473.6 202.697368 468.4 206.052632 C 468.4 206.052632 465.4 208.125 463 208.125 L 466.5 204.276316 L 465.2 200.822368 L 461.6 196.480263 Z M 461.6 196.677632 " transform="matrix(0.0390625,0,0,0.0395833,0,0)"/>
<path style=" stroke:none;fill-rule:nonzero;fill:rgb(100%,100%,100%);fill-opacity:1;" d="M 17.089844 12.527344 C 17.089844 12.527344 17.097656 12.511719 17.089844 12.507812 L 17.070312 12.515625 C 17.070312 12.515625 17.046875 12.554688 17.070312 12.609375 C 17.070312 12.609375 17.089844 12.648438 17.082031 12.683594 L 17.082031 12.699219 C 17.082031 12.699219 17.09375 12.695312 17.09375 12.683594 C 17.09375 12.683594 17.109375 12.652344 17.085938 12.609375 C 17.085938 12.609375 17.0625 12.554688 17.089844 12.527344 "/>
<path style="fill-rule:nonzero;fill:rgb(83.137256%,0%,0%);fill-opacity:1;stroke-width:1.2;stroke-linecap:butt;stroke-linejoin:round;stroke:rgb(0%,0%,0%);stroke-opacity:1;stroke-miterlimit:4;" d="M 518 207.730263 C 518 207.730263 513.8 209.901316 512 207.434211 C 512 207.434211 509.9 202.993421 514.9 201.414474 C 514.9 201.414474 512.1 198.157895 515 195.197368 C 515 195.197368 516.6 193.618421 519.2 194.703947 C 519.2 194.703947 520.4 192.434211 522.9 192.532895 C 522.9 192.532895 525.3 192.532895 525.9 195 C 525.9 195 529.2 193.815789 530.9 195.592105 C 530.9 195.592105 533.7 198.848684 529.7 201.414474 L 526.8 201.710526 L 523.9 200.328947 L 520.9 201.217105 C 520.9 201.217105 521.7 204.375 517.9 207.730263 Z M 518 207.730263 " transform="matrix(0.0390625,0,0,0.0395833,0,0)"/>
<path style="fill-rule:nonzero;fill:rgb(96.078432%,80.784315%,0%);fill-opacity:1;stroke-width:1.2;stroke-linecap:butt;stroke-linejoin:miter;stroke:rgb(0%,0%,0%);stroke-opacity:1;stroke-miterlimit:2.6;" d="M 484.8 204.375 C 484.8 204.375 484.8 205.164474 484 205.361842 C 484 205.361842 483 205.657895 482.5 204.473684 L 482.5 204.177632 C 482.5 203.684211 482.2 202.203947 483.9 200.921053 C 483.9 200.921053 486.5 198.848684 491.5 201.414474 C 496.3 204.078947 501.3 206.644737 506.3 208.914474 C 506.3 208.914474 509.4 210.493421 514.2 210.690789 C 514.2 210.690789 520.7 211.184211 523.5 206.644737 C 523.5 206.644737 525.6 203.092105 523.5 200.822368 C 523.5 200.822368 522.6 199.835526 521.2 200.032895 C 520.5 200.131579 519.8 200.625 519.4 201.217105 C 519.4 201.217105 518.4 202.598684 519.5 203.684211 C 519.5 203.684211 521.1 204.671053 521.7 202.697368 C 521.7 202.894737 522.2 204.375 521.3 205.559211 C 521.3 205.559211 517.3 211.578947 506.4 205.460526 L 492.1 197.368421 C 492.1 197.368421 485 193.717105 480.5 199.539474 C 480.5 199.539474 477.1 204.276316 481.6 207.434211 C 481.6 207.434211 485 209.407895 487 206.151316 C 487 206.151316 488.8 203.092105 486 201.809211 C 486 201.809211 483.6 200.625 482.7 202.993421 C 481.7 205.361842 484.5 205.953947 484.7 204.276316 C 484.7 204.276316 484.7 203.881579 485 204.276316 Z M 484.8 204.375 " transform="matrix(0.0390625,0,0,0.0395833,0,0)"/>
<path style="fill-rule:nonzero;fill:rgb(89.411765%,79.607844%,36.862746%);fill-opacity:1;stroke-width:1.2;stroke-linecap:butt;stroke-linejoin:miter;stroke:rgb(0%,0%,0%);stroke-opacity:1;stroke-miterlimit:2.6;" d="M 428 229.243421 L 428 220.164474 C 428 219.375 428 218.980263 429.2 217.993421 C 430.2 217.203947 431.3 215.723684 432.9 219.671053 C 432.9 219.671053 436.1 216.217105 437.1 215.723684 C 437.1 215.723684 439.1 214.243421 440.4 216.414474 C 440.4 216.414474 442 213.848684 443.4 213.157895 C 443.4 213.157895 446.6 211.184211 446.7 217.401316 L 449.2 215.032895 C 449.2 215.032895 451.2 213.453947 453.4 215.723684 C 453.4 215.723684 456.9 219.276316 457.4 220.263158 C 457.4 220.263158 458.2 221.348684 458.4 223.026316 C 458.4 223.026316 458.4 225 459.4 225.986842 C 459.4 225.986842 460.5 226.973684 461.6 227.171053 C 461.6 227.171053 464.1 227.269737 465.2 229.835526 C 465.2 229.835526 465.5 229.342105 466.8 240.986842 L 466.8 262.5 L 452.4 279.572368 L 429.3 272.960526 L 420.1 269.111842 L 417.9 262.5 L 426.9 256.578947 L 431.7 243.552632 L 430.2 234.276316 L 428 229.144737 Z M 428 229.243421 " transform="matrix(0.0390625,0,0,0.0395833,0,0)"/>
<path style="fill-rule:nonzero;fill:rgb(47.058824%,26.666668%,12.941177%);fill-opacity:1;stroke-width:1.2;stroke-linecap:butt;stroke-linejoin:miter;stroke:rgb(0%,0%,0%);stroke-opacity:1;stroke-miterlimit:4;" d="M 491.6 240.394737 L 492.8 238.914474 L 495.3 236.940789 C 495.3 236.940789 499.3 247.302632 499.5 249.572368 L 499.5 252.828947 C 499.5 252.828947 505.5 254.407895 506.7 263.486842 L 501.7 272.664474 L 493.9 268.322368 L 491.6 266.842105 Z M 491.6 240.394737 " transform="matrix(0.0390625,0,0,0.0395833,0,0)"/>
<path style=" stroke:none;fill-rule:nonzero;fill:rgb(100%,100%,100%);fill-opacity:1;" d="M 16.339844 12.367188 C 16.339844 12.367188 16.347656 12.355469 16.339844 12.34375 L 16.320312 12.359375 C 16.320312 12.359375 16.261719 12.425781 16.3125 12.53125 C 16.3125 12.53125 16.3125 12.546875 16.324219 12.539062 C 16.324219 12.539062 16.335938 12.539062 16.324219 12.527344 C 16.324219 12.527344 16.28125 12.433594 16.339844 12.371094 Z M 16.339844 12.367188 "/>
<path style="fill:none;stroke-width:1.2;stroke-linecap:butt;stroke-linejoin:miter;stroke:rgb(0%,0%,0%);stroke-opacity:1;stroke-miterlimit:10;" d="M 441.7 310.559211 C 441.7 310.559211 441.8 309.769737 441.3 308.980263 C 441.2 308.980263 441.1 308.486842 441.1 307.5 M 446.7 217.401316 C 446.7 217.401316 446.7 219.671053 447.4 221.447368 C 448 223.026316 450.3 225.888158 450.4 227.269737 " transform="matrix(0.0390625,0,0,0.0395833,0,0)"/>
<path style="fill-rule:nonzero;fill:rgb(83.137256%,0%,0%);fill-opacity:1;stroke-width:1.2;stroke-linecap:butt;stroke-linejoin:round;stroke:rgb(0%,0%,0%);stroke-opacity:1;stroke-miterlimit:4;" d="M 501 295.460526 C 501 295.460526 504.6 295.559211 506.5 296.743421 C 508.5 297.532895 509.9 298.519737 512 299.901316 C 512 299.901316 513 301.184211 517.2 300.394737 C 517.2 300.394737 524.4 298.717105 524.4 304.440789 C 524.4 304.440789 533.1 305.032895 529.6 312.730263 C 529.6 312.730263 527.2 318.651316 522.2 314.506579 C 522.2 314.506579 525.4 319.046053 519.2 320.822368 C 519.2 320.822368 514.8 322.006579 513.5 317.269737 C 513.5 317.269737 512.7 315.493421 514.5 313.322368 C 514.5 313.322368 512.4 312.927632 511 310.559211 C 511 310.559211 515.5 316.381579 510.5 318.552632 C 510.5 318.552632 504.2 320.131579 503.8 313.618421 C 503.8 313.618421 504.3 310.361842 501.8 309.276316 C 501.8 309.276316 496.8 308.092105 494.6 302.664474 C 494.6 302.664474 501.8 298.815789 501.1 295.460526 Z M 501 295.460526 " transform="matrix(0.0390625,0,0,0.0395833,0,0)"/>
<path style="fill:none;stroke-width:1.2;stroke-linecap:butt;stroke-linejoin:miter;stroke:rgb(0%,0%,0%);stroke-opacity:1;stroke-miterlimit:10;" d="M 443.8 227.368421 L 449.8 275.230263 M 445.3 227.269737 L 451.9 271.875 M 446.4 227.072368 L 454.2 271.282895 " transform="matrix(0.0390625,0,0,0.0395833,0,0)"/>
<path style="fill-rule:nonzero;fill:rgb(47.058824%,26.666668%,12.941177%);fill-opacity:1;stroke-width:1.2;stroke-linecap:butt;stroke-linejoin:miter;stroke:rgb(0%,0%,0%);stroke-opacity:1;stroke-miterlimit:4;" d="M 458.6 267.532895 L 460.8 266.842105 L 446.8 218.782895 L 446.3 218.782895 Z M 458.6 267.532895 " transform="matrix(0.0390625,0,0,0.0395833,0,0)"/>
<path style="fill:none;stroke-width:1.2;stroke-linecap:butt;stroke-linejoin:miter;stroke:rgb(0%,0%,0%);stroke-opacity:1;stroke-miterlimit:10;" d="M 450.7 225.296053 L 464.8 260.822368 M 449.8 225.789474 L 463.4 262.796053 " transform="matrix(0.0390625,0,0,0.0395833,0,0)"/>
<path style=" stroke:none;fill-rule:nonzero;fill:rgb(100%,100%,100%);fill-opacity:1;" d="M 16.703125 12.730469 C 16.703125 12.730469 16.636719 12.671875 16.648438 12.558594 C 16.648438 12.558594 16.648438 12.535156 16.636719 12.53125 C 16.636719 12.53125 16.625 12.527344 16.625 12.554688 C 16.625 12.554688 16.605469 12.671875 16.683594 12.734375 C 16.683594 12.738281 16.6875 12.742188 16.699219 12.742188 C 16.703125 12.742188 16.703125 12.738281 16.699219 12.730469 Z M 16.703125 12.730469 "/>
<path style="fill:none;stroke-width:1.2;stroke-linecap:butt;stroke-linejoin:miter;stroke:rgb(0%,0%,0%);stroke-opacity:1;stroke-miterlimit:10;" d="M 451.5 224.802632 L 465.8 257.171053 M 447.5 226.776316 L 456.5 270.493421 " transform="matrix(0.0390625,0,0,0.0395833,0,0)"/>
<path style="fill-rule:nonzero;fill:rgb(96.078432%,80.784315%,0%);fill-opacity:1;stroke-width:1.2;stroke-linecap:butt;stroke-linejoin:miter;stroke:rgb(0%,0%,0%);stroke-opacity:1;stroke-miterlimit:2.6;" d="M 520 259.046053 C 513.7 255.394737 512.3 247.598684 512.3 247.598684 C 511.4 242.763158 512 237.828947 513.9 233.289474 C 517.9 224.703947 525 223.026316 525 223.026316 C 525 223.026316 518.1 227.763158 516.2 234.177632 C 516.2 234.177632 514.8 239.703947 515.6 244.934211 C 516.4 250.361842 516.1 248.980263 517.4 253.223684 L 520 259.243421 Z M 520 259.046053 " transform="matrix(0.0390625,0,0,0.0395833,0,0)"/>
<path style="fill-rule:nonzero;fill:rgb(47.058824%,26.666668%,12.941177%);fill-opacity:1;stroke-width:1.2;stroke-linecap:butt;stroke-linejoin:miter;stroke:rgb(0%,0%,0%);stroke-opacity:1;stroke-miterlimit:4;" d="M 492.7 238.717105 L 466.1 247.203947 L 464.7 259.243421 C 458.4 268.322368 445.5 269.901316 445.5 269.901316 L 455.5 280.559211 L 474.5 284.605263 L 484.7 276.809211 L 493.9 268.421053 C 492.9 263.881579 493.4 257.171053 493.4 257.171053 C 493.4 255.986842 493.9 253.421053 493.9 253.421053 C 493.9 253.421053 492.4 242.664474 492.7 238.914474 Z M 492.7 238.717105 " transform="matrix(0.0390625,0,0,0.0395833,0,0)"/>
<path style="fill:none;stroke-width:1.2;stroke-linecap:butt;stroke-linejoin:miter;stroke:rgb(0%,0%,0%);stroke-opacity:1;stroke-miterlimit:10;" d="M 465 256.184211 C 465 256.184211 482.6 250.657895 493 246.217105 M 456.6 266.151316 C 456.6 266.151316 478.6 262.203947 493.9 253.421053 L 499.5 249.572368 " transform="matrix(0.0390625,0,0,0.0395833,0,0)"/>
<path style="fill:none;stroke-width:1.2;stroke-linecap:butt;stroke-linejoin:miter;stroke:rgb(0%,0%,0%);stroke-opacity:1;stroke-miterlimit:10;" d="M 499.5 252.828947 L 493.5 257.171053 C 493.5 257.171053 469 268.421053 450.3 268.815789 M 493.4 265.164474 C 493.4 265.164474 474.6 275.032895 464 275.032895 " transform="matrix(0.0390625,0,0,0.0395833,0,0)"/>
<path style="fill-rule:nonzero;fill:rgb(83.137256%,0%,0%);fill-opacity:1;stroke-width:1.2;stroke-linecap:butt;stroke-linejoin:round;stroke:rgb(0%,0%,0%);stroke-opacity:1;stroke-miterlimit:4;" d="M 515.8 238.026316 C 515.8 238.026316 521.4 235.460526 524.2 238.026316 C 524.2 238.026316 527.8 235.756579 531.8 238.026316 C 531.8 238.026316 535.4 240.394737 538 243.157895 C 538 243.157895 539.8 244.736842 539.2 249.572368 C 539.2 249.572368 538.2 253.125 538.9 254.703947 C 538.9 254.703947 540 254.506579 542.4 257.467105 C 542.4 257.467105 545.7 261.019737 548.4 257.763158 C 548.4 257.763158 547.6 262.401316 542.4 261.611842 C 542.4 261.611842 544.8 263.585526 542.7 268.618421 C 542.7 268.618421 541.1 272.171053 543.7 276.809211 C 543.7 276.809211 539.1 275.032895 539.3 269.605263 C 539.3 269.605263 539.7 265.953947 538.3 263.585526 C 538.3 263.585526 539.7 265.756579 536.6 270.690789 C 536.6 270.690789 534.2 274.342105 536.2 277.894737 C 536.2 277.894737 531.7 276.315789 532.2 270.888158 C 532.5 265.460526 535.2 267.730263 533.5 262.697368 C 533.5 262.697368 533.1 265.263158 531.8 266.743421 C 529.7 268.421053 528.8 271.085526 529.4 273.651316 C 529.4 273.651316 526.8 270.296053 527.4 266.940789 C 528 263.388158 528.6 262.5 528.6 262.5 L 520.3 257.664474 L 516.1 250.164474 Z M 515.8 238.026316 " transform="matrix(0.0390625,0,0,0.0395833,0,0)"/>
<path style="fill-rule:nonzero;fill:rgb(100%,100%,100%);fill-opacity:1;stroke-width:1.2;stroke-linecap:butt;stroke-linejoin:miter;stroke:rgb(0%,14.117648%,49.019608%);stroke-opacity:1;stroke-miterlimit:10;" d="M 420.6 268.421053 C 420.6 268.421053 421.4 264.671053 424.9 265.953947 C 424.9 265.953947 426.1 260.032895 432.6 259.835526 C 439.1 259.638158 439.4 266.151316 439.4 266.644737 C 439.4 266.644737 441.4 263.782895 444.5 264.078947 C 444.5 264.078947 450 263.782895 448.1 272.565789 L 449.1 273.848684 C 449.1 273.848684 453.2 263.881579 461.8 266.447368 C 461.8 266.447368 470.2 269.013158 464.8 277.105263 C 464.8 277.105263 469 282.631579 472.4 282.138158 C 476 281.644737 479.1 280.460526 482.6 274.342105 C 486.2 268.125 494.3 267.138158 496.3 267.532895 C 498.3 267.828947 500 269.309211 500.3 270.690789 C 500.3 270.690789 504.6 256.381579 520.1 258.453947 L 526.3 261.809211 L 528.7 262.796053 L 525.1 272.763158 L 516.7 292.006579 L 510.1 293.980263 L 503.3 290.131579 L 500.9 291.315789 L 500.9 297.236842 L 491.9 303.552632 L 485.7 306.118421 L 478.9 310.855263 L 477.2 315.098684 C 477.2 315.098684 473.5 313.421053 469.2 315.098684 L 467.8 311.546053 L 463.8 307.796053 L 448.2 300.394737 L 445.5 291.414474 L 442.6 290.131579 L 439.4 293.684211 L 434.9 294.276316 L 427.9 289.539474 L 420.5 268.519737 Z M 420.6 268.421053 " transform="matrix(0.0390625,0,0,0.0395833,0,0)"/>
<path style="fill:none;stroke-width:1.2;stroke-linecap:butt;stroke-linejoin:miter;stroke:rgb(0%,0%,0%);stroke-opacity:1;stroke-miterlimit:2.6;" d="M 488.2 197.960526 C 488.2 197.960526 482.2 197.763158 482.5 203.980263 " transform="matrix(0.0390625,0,0,0.0395833,0,0)"/>
<path style="fill-rule:nonzero;fill:rgb(96.078432%,80.784315%,0%);fill-opacity:1;stroke-width:1.2;stroke-linecap:butt;stroke-linejoin:miter;stroke:rgb(0%,0%,0%);stroke-opacity:1;stroke-miterlimit:2.6;" d="M 527 263.289474 C 516.8 260.131579 514 248.980263 514 248.980263 C 512.8 243.848684 513.2 238.421053 515.2 233.486842 C 520 222.532895 527.9 222.532895 527.9 222.532895 C 530 222.236842 532 223.618421 532.4 225.690789 C 532.8 228.059211 531.1 229.046053 531.1 229.046053 C 528.4 230.526316 526.6 228.453947 526.6 228.453947 C 525.4 226.875 526.3 225.592105 526.3 225.592105 C 527 224.605263 528.3 225.197368 528.3 225.197368 C 529.6 225.394737 529.3 226.776316 529.3 226.776316 C 529.3 226.776316 529.7 225.197368 528.1 225 C 528.1 225 524.9 224.309211 521.3 228.848684 C 521.3 228.848684 516.6 234.868421 516.6 242.861842 C 516.6 242.861842 516 257.664474 531.3 261.513158 C 531.3 261.513158 529.7 263.881579 526.7 272.565789 C 526.7 272.565789 523.4 283.815789 520.3 289.934211 C 520.3 289.934211 516 298.519737 506.4 294.967105 C 506.4 294.967105 500.8 292.5 500.8 288.453947 C 500.8 288.453947 500.5 284.703947 503.8 284.506579 C 503.8 284.506579 507.1 284.210526 507.1 286.973684 C 507.1 286.973684 507.1 290.032895 503.6 289.440789 C 503.6 289.440789 502.4 289.144737 502.5 287.861842 C 502.5 287.861842 502.7 286.677632 504.3 287.269737 C 505.8 287.861842 504.3 287.269737 504.3 287.171053 C 504.3 287.171053 503.7 286.875 503.1 287.171053 C 503.1 287.171053 502.5 287.171053 502.5 288.157895 C 502.4 288.355263 502.6 288.651316 503.2 289.342105 L 504.9 289.539474 C 504.9 289.539474 505.9 291.513158 507.9 292.203947 C 510.3 292.993421 513 292.5 515 291.019737 C 516.3 289.835526 517.4 288.355263 518 286.677632 C 520 282.335526 521.8 277.796053 523.2 273.157895 C 523.2 273.157895 525 267.532895 526.6 264.473684 Z M 527 263.289474 " transform="matrix(0.0390625,0,0,0.0395833,0,0)"/>
<path style="fill-rule:nonzero;fill:rgb(96.078432%,80.784315%,0%);fill-opacity:1;stroke-width:1.2;stroke-linecap:butt;stroke-linejoin:miter;stroke:rgb(0%,0%,0%);stroke-opacity:1;stroke-miterlimit:2.6;" d="M 498 291.414474 C 498 291.414474 500 291.217105 500 292.894737 C 500 292.894737 499.9 295.263158 496.8 294.769737 C 496.8 294.769737 493.8 294.177632 494.8 290.822368 C 494.8 290.822368 495.6 288.453947 498.4 288.848684 C 498.4 288.848684 501.2 288.848684 502.4 292.598684 C 502.4 292.598684 503.4 295.855263 501.7 298.618421 C 499.9 301.578947 495.5 303.552632 493.3 304.638158 C 493.3 304.638158 484.6 307.894737 482 309.868421 C 482 309.868421 478 312.828947 479.8 315.493421 C 479.8 315.493421 480.5 316.578947 481.5 316.578947 C 481.5 316.578947 482.7 316.578947 482.8 315.394737 C 482.8 315.394737 482.8 316.085526 482.1 316.381579 C 482.1 316.381579 481.3 316.776316 480.4 316.085526 C 480.4 316.085526 479.4 315.098684 480.2 313.717105 C 480.2 313.717105 481.2 312.138158 483.8 313.125 C 483.8 313.125 485.8 314.210526 485 316.381579 C 485 316.381579 484.1 318.453947 481.6 318.355263 C 481.6 318.355263 479.7 318.355263 478.4 317.171053 C 476.4 315.098684 476.4 311.151316 478.2 309.177632 C 478.2 309.177632 479.7 307.105263 482.9 305.625 L 491.9 302.072368 C 494.6 301.085526 496.7 299.703947 498.3 298.026316 C 498.3 298.026316 499.6 296.644737 500.1 293.980263 C 500.1 293.980263 500.5 292.006579 499.3 291.611842 L 498.1 291.315789 Z M 498 291.414474 " transform="matrix(0.0390625,0,0,0.0395833,0,0)"/>
<path style="fill:none;stroke-width:1.2;stroke-linecap:butt;stroke-linejoin:miter;stroke:rgb(0%,0%,0%);stroke-opacity:1;stroke-miterlimit:2.6;" d="M 498.2 291.414474 C 498.2 291.414474 500.3 291.019737 501.7 293.585526 C 501.7 293.585526 502.4 295.065789 502.5 296.052632 M 503.2 287.072368 C 503.2 287.072368 501.1 287.368421 502.2 290.526316 C 503.3 293.388158 505.2 294.177632 505.7 294.671053 " transform="matrix(0.0390625,0,0,0.0395833,0,0)"/>
<path style="fill-rule:nonzero;fill:rgb(96.078432%,80.784315%,0%);fill-opacity:1;stroke-width:1.2;stroke-linecap:butt;stroke-linejoin:miter;stroke:rgb(0%,0%,0%);stroke-opacity:1;stroke-miterlimit:2.6;" d="M 461.6 204.375 C 461.6 204.375 461.6 205.164474 462.6 205.361842 C 462.6 205.361842 463.4 205.559211 463.9 204.473684 L 463.9 204.177632 C 463.9 203.684211 464.2 202.203947 462.7 200.921053 C 462.7 200.921053 459.9 198.848684 454.9 201.414474 C 454.9 201.414474 450.9 203.388158 448.2 204.967105 C 448.2 204.967105 441.1 208.815789 440.2 209.013158 C 440.2 209.013158 437 210.592105 432.2 210.789474 C 432.2 210.789474 425.7 211.282895 423 206.743421 C 423 206.743421 420.8 203.190789 423 200.921053 C 423 200.921053 423.8 199.934211 425.2 200.131579 C 425.8 200.131579 426.4 200.526316 427 201.315789 C 427 201.315789 428 202.697368 426.9 203.782895 C 426.9 203.782895 425.3 204.769737 424.7 202.796053 C 424.7 202.993421 424.4 204.375 425.2 205.756579 C 425.2 205.756579 429.2 211.677632 440 205.460526 L 454.3 197.467105 C 454.3 197.467105 461.5 193.815789 465.9 199.539474 C 465.9 199.539474 469.3 204.276316 464.9 207.532895 C 464.9 207.532895 461.6 209.506579 459.4 206.348684 C 459.4 206.348684 457.8 203.289474 460.4 201.907895 C 460.4 201.907895 462.8 200.723684 463.9 203.092105 C 464.9 205.460526 461.9 206.052632 461.7 204.375 C 461.7 204.375 461.7 203.980263 461.6 204.375 Z M 426.4 259.144737 C 432.7 255.592105 434.2 247.598684 434.2 247.598684 C 435.6 239.605263 432.5 233.289474 432.5 233.289474 C 428.5 224.703947 421.5 223.026316 421.5 223.026316 C 421.5 223.026316 428.3 227.763158 430.2 234.177632 C 430.2 234.177632 431.8 239.703947 430.8 244.934211 C 430 250.361842 430.3 248.980263 429 253.223684 Z M 426.4 259.144737 " transform="matrix(0.0390625,0,0,0.0395833,0,0)"/>
<path style="fill:none;stroke-width:1.2;stroke-linecap:butt;stroke-linejoin:miter;stroke:rgb(0%,0%,0%);stroke-opacity:1;stroke-miterlimit:2.6;" d="M 458.4 197.960526 C 458.4 197.960526 464.4 197.763158 464 203.980263 " transform="matrix(0.0390625,0,0,0.0395833,0,0)"/>
<path style="fill-rule:nonzero;fill:rgb(96.078432%,80.784315%,0%);fill-opacity:1;stroke-width:1.2;stroke-linecap:butt;stroke-linejoin:miter;stroke:rgb(0%,0%,0%);stroke-opacity:1;stroke-miterlimit:2.6;" d="M 419.3 263.289474 C 429.6 260.131579 432.3 248.980263 432.3 248.980263 C 433.5 243.848684 433.1 238.421053 431.2 233.486842 C 426.4 222.532895 418.5 222.532895 418.5 222.532895 C 416.4 222.236842 414.4 223.618421 414 225.690789 C 413.7 228.059211 415.3 229.046053 415.3 229.046053 C 418.1 230.526316 419.9 228.453947 419.9 228.453947 C 421 226.875 420.1 225.592105 420.1 225.592105 C 419.4 224.605263 418.1 225.197368 418.1 225.197368 C 416.9 225.394737 417.1 226.776316 417.1 226.776316 C 417.1 226.776316 416.8 225.197368 418.3 225 C 418.3 225 421.5 224.309211 425.1 228.848684 C 425.1 228.848684 429.9 234.868421 429.9 242.861842 C 429.9 242.861842 430.5 257.664474 415.1 261.513158 C 415.1 261.513158 416.8 263.881579 419.7 272.565789 C 419.7 272.565789 423.1 283.815789 426.3 289.934211 C 426.3 289.934211 430.5 298.519737 440 294.967105 C 440 294.967105 445.6 292.5 445.6 288.453947 C 445.6 288.453947 446 284.703947 442.6 284.506579 C 442.6 284.506579 439.3 284.210526 439.3 286.973684 C 439.3 286.973684 439.3 290.032895 442.9 289.440789 C 442.9 289.440789 444.1 289.144737 443.9 287.861842 C 443.9 287.861842 443.7 286.677632 442.2 287.269737 C 440.6 287.861842 442.2 287.269737 442.2 287.171053 C 442.2 287.171053 442.7 286.875 443.3 287.171053 C 443.3 287.171053 443.9 287.171053 443.9 288.157895 C 444 288.355263 443.8 288.651316 443.2 289.342105 L 441.7 289.539474 C 441.7 289.539474 440.7 291.513158 438.5 292.203947 C 436.1 292.894737 433.5 292.5 431.5 291.019737 C 430.2 289.835526 429.1 288.355263 428.5 286.677632 C 426.4 282.335526 424.7 277.796053 423.2 273.157895 C 423.2 273.157895 421.4 267.532895 420 264.473684 L 419.4 263.289474 Z M 419.3 263.289474 " transform="matrix(0.0390625,0,0,0.0395833,0,0)"/>
<path style="fill-rule:nonzero;fill:rgb(96.078432%,80.784315%,0%);fill-opacity:1;stroke-width:1.2;stroke-linecap:butt;stroke-linejoin:miter;stroke:rgb(0%,0%,0%);stroke-opacity:1;stroke-miterlimit:2.6;" d="M 448.5 291.414474 C 448.5 291.414474 446.5 291.217105 446.5 292.894737 C 446.5 292.894737 446.5 295.263158 449.7 294.769737 C 449.7 294.769737 452.7 294.177632 451.6 290.822368 C 451.6 290.822368 450.9 288.453947 448 288.848684 C 448 288.848684 445.3 288.848684 444 292.598684 C 444 292.598684 443.1 295.855263 444.8 298.618421 C 446.6 301.578947 451 303.552632 453.1 304.638158 C 453.1 304.638158 461.8 307.894737 464.5 309.868421 C 464.5 309.868421 468.4 312.828947 466.6 315.493421 C 466.6 315.493421 466 316.578947 464.9 316.578947 C 464.9 316.578947 463.7 316.578947 463.6 315.394737 C 463.6 315.394737 463.6 316.085526 464.3 316.381579 C 464.3 316.381579 465.2 316.776316 466 316.085526 C 466 316.085526 467 315.098684 466.2 313.717105 C 466.2 313.717105 465.2 312.138158 462.8 313.125 C 462.8 313.125 460.6 314.210526 461.6 316.381579 C 461.6 316.381579 462.3 318.453947 464.8 318.355263 C 464.8 318.355263 466.8 318.355263 468 317.171053 C 470 315.098684 470 311.151316 468.4 309.177632 C 468.4 309.177632 466.7 307.105263 463.6 305.625 C 461.7 305.032895 458.1 303.453947 454.6 302.072368 C 451.9 301.085526 449.7 299.703947 448.1 298.026316 C 448.1 298.026316 446.8 296.644737 446.3 293.980263 C 446.3 293.980263 446 292.006579 447.2 291.611842 L 448.4 291.315789 Z M 448.5 291.414474 " transform="matrix(0.0390625,0,0,0.0395833,0,0)"/>
<path style="fill:none;stroke-width:1.2;stroke-linecap:butt;stroke-linejoin:miter;stroke:rgb(0%,0%,0%);stroke-opacity:1;stroke-miterlimit:2.6;" d="M 448.2 291.414474 C 448.2 291.414474 446.1 291.019737 444.8 293.585526 C 444.8 293.585526 444.1 295.065789 443.9 296.052632 M 443.2 287.072368 C 443.2 287.072368 445.4 287.368421 444.3 290.526316 C 443.1 293.388158 441.3 294.177632 440.7 294.671053 M 468.1 203.585526 C 468.1 203.585526 473.3 200.328947 478.5 203.881579 M 438.8 235.164474 C 438.8 235.164474 439.5 232.203947 436.2 227.171053 C 436.2 227.171053 434 222.532895 433 219.671053 M 440.4 216.414474 L 442.7 223.026316 L 445.7 229.835526 " transform="matrix(0.0390625,0,0,0.0395833,0,0)"/>
<path style="fill:none;stroke-width:1.2;stroke-linecap:butt;stroke-linejoin:miter;stroke:rgb(0%,0%,0%);stroke-opacity:1;stroke-miterlimit:10;" d="M 441.2 238.322368 C 441.2 238.322368 443.2 240.394737 443 243.947368 M 434.9 235.953947 C 434.9 235.953947 437 237.039474 436.8 242.763158 C 436.8 242.763158 436.7 246.809211 439.8 248.980263 M 434.5 250.361842 C 434.5 250.361842 441.2 249.671053 441.7 253.914474 C 441.7 253.914474 441.7 257.861842 444.1 258.157895 C 444.1 258.157895 447.4 258.453947 448.1 261.809211 M 436.7 255 C 436.7 255 437.9 256.677632 439.1 257.565789 M 445.3 250.559211 C 445.3 250.559211 446.9 253.322368 447.3 254.703947 M 452.6 219.671053 C 452.6 219.671053 454.2 221.842105 455.7 222.730263 M 458.8 232.302632 C 458.8 232.302632 462.2 233.881579 461.8 242.269737 C 461.8 242.269737 461.2 247.302632 462.7 249.967105 " transform="matrix(0.0390625,0,0,0.0395833,0,0)"/>
<path style="fill-rule:nonzero;fill:rgb(47.058824%,26.666668%,12.941177%);fill-opacity:1;stroke-width:1.2;stroke-linecap:butt;stroke-linejoin:miter;stroke:rgb(0%,0%,0%);stroke-opacity:1;stroke-miterlimit:4;" d="M 443.1 226.578947 L 443.5 227.368421 C 443.5 227.368421 449.5 227.664474 452.6 223.618421 L 452.3 222.828947 C 452.3 222.828947 447 222.532895 443.3 226.578947 Z M 443.1 226.578947 " transform="matrix(0.0390625,0,0,0.0395833,0,0)"/>
<path style="fill:none;stroke-width:1.2;stroke-linecap:butt;stroke-linejoin:miter;stroke:rgb(0%,0%,0%);stroke-opacity:1;stroke-miterlimit:10;" d="M 464.7 258.453947 C 464.7 258.453947 485.3 252.532895 493.3 248.881579 " transform="matrix(0.0390625,0,0,0.0395833,0,0)"/>
<path style="fill-rule:nonzero;fill:rgb(47.058824%,26.666668%,12.941177%);fill-opacity:1;stroke-width:1.2;stroke-linecap:butt;stroke-linejoin:miter;stroke:rgb(0%,0%,0%);stroke-opacity:1;stroke-miterlimit:4;" d="M 462.5 220.460526 L 462.3 219.868421 L 472.4 215.921053 L 472.7 216.710526 Z M 462.5 220.460526 " transform="matrix(0.0390625,0,0,0.0395833,0,0)"/>
<path style="fill:none;stroke-width:1.2;stroke-linecap:butt;stroke-linejoin:miter;stroke:rgb(0%,0%,0%);stroke-opacity:1;stroke-miterlimit:10;" d="M 463.4 220.065789 L 470.2 253.421053 M 464.6 219.769737 L 472.3 252.828947 M 465.9 219.177632 L 474.3 252.138158 M 469.3 217.993421 L 480.8 242.565789 M 470.8 217.598684 L 483.1 241.776316 M 471.8 217.006579 L 485.2 241.282895 M 469.7 253.717105 L 474.9 252.138158 M 465.8 250.460526 C 465.8 250.460526 481 246.019737 492.8 241.282895 M 465.4 252.039474 C 465.4 252.039474 484.9 247.006579 492.6 243.157895 M 471.4 267.828947 L 472.4 271.085526 L 475.2 270.098684 L 474.2 267.039474 M 479.2 265.657895 L 480.2 268.717105 L 483 267.828947 L 482 264.769737 M 466 247.203947 L 465.8 242.960526 L 491.3 235.263158 L 492.6 238.914474 M 476.6 239.703947 L 477.9 243.453947 M 485.5 237.138158 L 487.1 240.690789 M 487.6 236.447368 L 489.2 239.703947 M 489.6 235.657895 L 491.2 239.309211 M 491.2 235.263158 L 494 233.684211 L 495.2 236.842105 M 492.6 234.473684 L 494 237.828947 " transform="matrix(0.0390625,0,0,0.0395833,0,0)"/>
<path style="fill:none;stroke-width:1.2;stroke-linecap:butt;stroke-linejoin:miter;stroke:rgb(0%,14.117648%,49.019608%);stroke-opacity:1;stroke-miterlimit:10;" d="M 429.5 283.125 C 429.5 283.125 424.5 277.993421 429.5 273.059211 C 429.5 273.059211 424 270.493421 424.9 266.052632 M 438.5 287.072368 C 438.5 287.072368 433.2 287.763158 434.8 277.697368 C 434.8 277.697368 432.6 281.743421 431.9 283.717105 C 431.4 285.789474 432.2 287.861842 433.9 289.144737 C 434.8 289.736842 439.4 290.921053 440.9 287.861842 M 432.6 271.677632 C 432.6 271.677632 430.5 273.552632 432 277.105263 M 434.8 272.072368 C 434.8 272.072368 435 275.625 436.8 277.5 M 436.3 270.789474 C 436.3 270.789474 436.3 274.835526 439.2 277.401316 M 437.7 269.407895 C 437.7 269.407895 437.7 273.947368 441.1 276.809211 M 454.6 276.118421 C 454.6 276.118421 456.2 272.171053 459.8 272.467105 C 459.8 272.467105 458.1 273.256579 458.1 275.032895 C 458.1 275.032895 457.9 277.993421 461 278.190789 C 461 278.190789 463.5 278.585526 464.8 277.203947 " transform="matrix(0.0390625,0,0,0.0395833,0,0)"/>
<path style="fill:none;stroke-width:1.2;stroke-linecap:butt;stroke-linejoin:miter;stroke:rgb(0%,14.117648%,49.019608%);stroke-opacity:1;stroke-miterlimit:10;" d="M 463.1 293.092105 C 463.1 293.092105 454.2 288.947368 455.1 283.026316 C 455.1 283.026316 455.5 279.375 459.1 277.598684 M 457.1 281.447368 C 457.1 281.447368 456.3 283.914474 458.1 285.690789 M 459.2 279.671053 C 459.2 279.671053 458 282.532895 459.9 284.506579 M 461.4 278.190789 C 461.4 278.190789 460 280.559211 461.6 282.730263 M 453.2 293.684211 C 453.2 293.684211 458 298.026316 461.8 298.026316 M 451.7 295.065789 C 451.7 295.065789 456.2 298.717105 459.1 299.309211 M 450.1 296.052632 C 450.1 296.052632 455.6 300.986842 459.1 301.282895 M 472.8 305.921053 C 472.8 305.921053 467.3 308.881579 471.6 312.138158 M 469.2 302.664474 L 478.2 298.125 M 471.5 304.342105 C 471.5 304.342105 480.5 298.815789 483.2 297.631579 M 476.2 304.835526 C 476.2 304.835526 483.9 299.605263 488.1 297.335526 M 481.3 304.440789 C 481.3 304.440789 486.6 300.394737 491.8 297.335526 M 493.5 292.203947 C 493.5 292.203947 490.9 288.256579 482.3 292.203947 C 482.3 292.203947 485.6 289.342105 491.8 286.973684 M 500.3 270.690789 C 500.3 270.690789 501.1 273.848684 500.3 275.723684 " transform="matrix(0.0390625,0,0,0.0395833,0,0)"/>
<path style="fill:none;stroke-width:1.2;stroke-linecap:butt;stroke-linejoin:miter;stroke:rgb(0%,14.117648%,49.019608%);stroke-opacity:1;stroke-miterlimit:10;" d="M 486.5 285.690789 C 486.5 285.690789 488.3 283.125 492.8 281.743421 C 492.8 281.743421 494 284.703947 497.6 284.210526 C 497.6 284.210526 502.8 283.125 501.2 277.203947 C 501.2 277.203947 500.1 272.960526 494 272.467105 M 512.1 265.164474 C 512.1 265.164474 518.2 266.447368 518.1 271.282895 C 518.1 271.282895 518.7 278.881579 510.7 280.263158 M 517.3 268.322368 C 517.3 268.322368 518.9 264.572368 522.8 263.092105 M 518.2 260.921053 C 518.2 260.921053 519.9 263.684211 521 263.980263 M 517.4 262.993421 C 517.4 262.993421 518.9 265.065789 519.4 265.460526 M 516.8 264.967105 L 518.3 266.644737 M 485 235.756579 C 485 235.756579 486.2 233.782895 489.3 234.572368 M 501.4 250.361842 C 501.4 250.361842 503.4 242.565789 509.9 245.427632 M 507.3 244.835526 C 507.3 244.835526 507.9 241.184211 506.3 239.309211 M 502.7 244.539474 C 502.7 244.539474 503.6 246.019737 502.8 247.203947 " transform="matrix(0.0390625,0,0,0.0395833,0,0)"/>
<path style="fill-rule:nonzero;fill:rgb(39.215687%,70.588237%,81.960785%);fill-opacity:1;stroke-width:1.2;stroke-linecap:butt;stroke-linejoin:miter;stroke:rgb(0%,14.117648%,49.019608%);stroke-opacity:1;stroke-miterlimit:2.6;" d="M 516.2 324.967105 C 516.2 324.967105 523.6 321.710526 521.3 315.888158 C 521.3 315.888158 520.6 313.914474 518.9 314.111842 C 518.9 314.111842 516.1 314.210526 516.6 318.059211 C 516.6 318.059211 517.6 321.907895 516.1 325.065789 Z M 516.2 324.967105 " transform="matrix(0.0390625,0,0,0.0395833,0,0)"/>
<path style=" stroke:none;fill-rule:nonzero;fill:rgb(100%,100%,100%);fill-opacity:1;" d="M 20.265625 12.730469 C 20.265625 12.730469 20.332031 12.671875 20.324219 12.558594 C 20.324219 12.558594 20.316406 12.535156 20.324219 12.53125 C 20.324219 12.53125 20.339844 12.527344 20.339844 12.554688 C 20.339844 12.554688 20.359375 12.671875 20.285156 12.734375 C 20.285156 12.738281 20.28125 12.742188 20.269531 12.742188 C 20.265625 12.742188 20.265625 12.738281 20.269531 12.730469 Z M 20.265625 12.730469 "/>
<path style="fill-rule:nonzero;fill:rgb(39.215687%,70.588237%,81.960785%);fill-opacity:1;stroke-width:1.2;stroke-linecap:butt;stroke-linejoin:miter;stroke:rgb(0%,14.117648%,49.019608%);stroke-opacity:1;stroke-miterlimit:2.6;" d="M 526.7 319.835526 C 526.7 319.835526 531.9 316.578947 529.1 311.052632 C 529.1 311.052632 528.2 309.572368 526.7 309.868421 C 526.7 309.868421 523.5 310.855263 526 315.394737 C 526 315.394737 527.2 318.256579 526.7 319.934211 Z M 526.7 319.835526 " transform="matrix(0.0390625,0,0,0.0395833,0,0)"/>
<path style=" stroke:none;fill-rule:nonzero;fill:rgb(100%,100%,100%);fill-opacity:1;" d="M 20.625 12.367188 C 20.625 12.367188 20.617188 12.355469 20.625 12.34375 L 20.640625 12.359375 C 20.640625 12.359375 20.699219 12.425781 20.652344 12.53125 C 20.652344 12.53125 20.648438 12.546875 20.632812 12.539062 L 20.632812 12.527344 C 20.632812 12.527344 20.679688 12.433594 20.625 12.371094 Z M 20.625 12.367188 "/>
<path style="fill-rule:nonzero;fill:rgb(39.215687%,70.588237%,81.960785%);fill-opacity:1;stroke-width:1.2;stroke-linecap:butt;stroke-linejoin:miter;stroke:rgb(0%,14.117648%,49.019608%);stroke-opacity:1;stroke-miterlimit:2.6;" d="M 511 323.585526 C 511 323.585526 505.2 322.203947 506.3 316.085526 C 506.3 316.085526 506.9 313.519737 509.4 313.914474 C 509.4 313.914474 512.4 314.703947 510.4 318.453947 C 510.4 318.453947 509.3 321.118421 511.1 323.585526 Z M 511 323.585526 " transform="matrix(0.0390625,0,0,0.0395833,0,0)"/>
<path style=" stroke:none;fill-rule:nonzero;fill:rgb(100%,100%,100%);fill-opacity:1;" d="M 19.875 12.527344 L 19.875 12.507812 C 19.875 12.507812 19.890625 12.507812 19.894531 12.515625 C 19.894531 12.515625 19.917969 12.554688 19.898438 12.609375 C 19.898438 12.609375 19.878906 12.648438 19.890625 12.683594 C 19.890625 12.683594 19.886719 12.691406 19.878906 12.699219 L 19.871094 12.683594 C 19.871094 12.683594 19.859375 12.652344 19.878906 12.609375 C 19.878906 12.609375 19.902344 12.554688 19.878906 12.527344 Z M 19.875 12.527344 "/>
<path style=" stroke:none;fill-rule:nonzero;fill:rgb(0%,0%,0%);fill-opacity:1;" d="M 20.125 12.363281 C 20.125 12.363281 20.257812 12.285156 20.359375 12.375 C 20.359375 12.375 20.351562 12.328125 20.265625 12.304688 C 20.265625 12.304688 20.226562 12.179688 20.101562 12.191406 C 20.101562 12.191406 20.148438 12.253906 20.21875 12.300781 C 20.21875 12.300781 20.148438 12.308594 20.125 12.363281 M 20.21875 12.015625 C 20.21875 12.015625 20.3125 12.085938 20.34375 12.128906 C 20.34375 12.128906 20.378906 12.082031 20.421875 12.058594 C 20.421875 12.058594 20.375 12.046875 20.34375 12.070312 C 20.34375 12.070312 20.300781 12.03125 20.226562 12.015625 Z M 20.21875 12.015625 "/>
<path style="fill:none;stroke-width:1.2;stroke-linecap:butt;stroke-linejoin:miter;stroke:rgb(0%,0%,0%);stroke-opacity:1;stroke-miterlimit:10;" d="M 504.8 310.559211 C 504.8 310.559211 504.5 309.769737 505.1 308.980263 C 505.1 308.980263 505.5 308.388158 505.3 307.5 M 528.7 259.539474 C 528.7 259.539474 532.2 259.342105 532.7 256.480263 M 538.7 254.703947 C 538.7 254.703947 537.5 254.703947 536.5 255.888158 C 536.5 255.888158 535.6 257.072368 534.5 256.875 " transform="matrix(0.0390625,0,0,0.0395833,0,0)"/>
<path style=" stroke:none;fill-rule:nonzero;fill:rgb(0%,0%,0%);fill-opacity:1;" d="M 20.453125 9.863281 C 20.453125 9.863281 20.523438 9.863281 20.558594 9.832031 C 20.558594 9.832031 20.601562 9.804688 20.625 9.847656 C 20.625 9.847656 20.664062 9.910156 20.59375 9.9375 C 20.59375 9.9375 20.507812 9.988281 20.644531 10.074219 C 20.644531 10.074219 20.480469 10.011719 20.550781 9.929688 C 20.550781 9.929688 20.621094 9.882812 20.589844 9.863281 C 20.589844 9.863281 20.582031 9.847656 20.554688 9.863281 C 20.527344 9.886719 20.472656 9.878906 20.453125 9.863281 "/>
<path style="fill-rule:nonzero;fill:rgb(39.215687%,70.588237%,81.960785%);fill-opacity:1;stroke-width:1.2;stroke-linecap:butt;stroke-linejoin:miter;stroke:rgb(0%,14.117648%,49.019608%);stroke-opacity:1;stroke-miterlimit:2.6;" d="M 526 205.559211 C 526 205.559211 526.8 204.375 526.5 201.217105 C 526.2 197.960526 529.1 197.467105 530.1 198.355263 C 530.1 198.355263 531.3 199.440789 530.1 201.513158 C 529.3 203.289474 527.8 204.769737 526 205.559211 Z M 526 205.559211 " transform="matrix(0.0390625,0,0,0.0395833,0,0)"/>
<path style=" stroke:none;fill-rule:nonzero;fill:rgb(100%,100%,100%);fill-opacity:1;" d="M 20.585938 8.035156 C 20.585938 8.035156 20.632812 7.992188 20.609375 7.894531 L 20.617188 7.886719 L 20.628906 7.886719 C 20.628906 7.886719 20.652344 7.996094 20.605469 8.050781 C 20.605469 8.050781 20.597656 8.0625 20.585938 8.050781 Z M 20.585938 8.035156 "/>
<path style="fill-rule:nonzero;fill:rgb(39.215687%,70.588237%,81.960785%);fill-opacity:1;stroke-width:1.2;stroke-linecap:butt;stroke-linejoin:miter;stroke:rgb(0%,14.117648%,49.019608%);stroke-opacity:1;stroke-miterlimit:2.6;" d="M 525.1 204.375 C 525.1 204.375 525.1 202.993421 522.8 200.822368 C 520.4 198.355263 522.3 196.381579 523.8 196.381579 C 523.8 196.381579 525.1 196.381579 525.8 198.651316 C 526.3 200.625 526 202.697368 525.1 204.375 Z M 525.1 204.375 " transform="matrix(0.0390625,0,0,0.0395833,0,0)"/>
<path style=" stroke:none;fill-rule:nonzero;fill:rgb(100%,100%,100%);fill-opacity:1;" d="M 20.5 7.972656 C 20.5 7.972656 20.5 7.910156 20.414062 7.839844 L 20.414062 7.824219 L 20.429688 7.824219 C 20.429688 7.824219 20.519531 7.898438 20.519531 7.976562 C 20.519531 7.980469 20.515625 7.984375 20.507812 7.988281 C 20.503906 7.992188 20.503906 7.984375 20.5 7.972656 "/>
<path style="fill-rule:nonzero;fill:rgb(39.215687%,70.588237%,81.960785%);fill-opacity:1;stroke-width:1.2;stroke-linecap:butt;stroke-linejoin:miter;stroke:rgb(0%,14.117648%,49.019608%);stroke-opacity:1;stroke-miterlimit:2.6;" d="M 522 203.289474 C 522 203.289474 521.3 202.302632 518.5 201.217105 C 515.6 200.230263 516.3 197.664474 517.5 197.171053 C 517.5 197.171053 518.8 196.677632 520.1 198.256579 C 521.3 199.736842 521.9 201.513158 521.9 203.289474 Z M 522 203.289474 " transform="matrix(0.0390625,0,0,0.0395833,0,0)"/>
<path style=" stroke:none;fill-rule:nonzero;fill:rgb(100%,100%,100%);fill-opacity:1;" d="M 20.335938 7.96875 C 20.335938 7.96875 20.3125 7.914062 20.210938 7.886719 C 20.207031 7.886719 20.207031 7.882812 20.203125 7.875 C 20.203125 7.871094 20.207031 7.871094 20.214844 7.871094 C 20.214844 7.871094 20.328125 7.894531 20.359375 7.964844 L 20.355469 7.976562 C 20.355469 7.976562 20.34375 7.976562 20.339844 7.96875 Z M 20.335938 7.96875 "/>
<path style="fill-rule:nonzero;fill:rgb(39.215687%,70.588237%,81.960785%);fill-opacity:1;stroke-width:1.2;stroke-linecap:butt;stroke-linejoin:miter;stroke:rgb(0%,14.117648%,49.019608%);stroke-opacity:1;stroke-miterlimit:2.6;" d="M 523.7 204.375 C 523.7 204.375 522.4 204.868421 519.3 203.388158 C 516.2 201.907895 514.9 204.473684 515.5 205.657895 C 515.5 205.657895 516 207.335526 518.3 206.940789 C 520.3 206.842105 522.3 205.953947 523.7 204.473684 Z M 523.7 204.375 " transform="matrix(0.0390625,0,0,0.0395833,0,0)"/>
<path style=" stroke:none;fill-rule:nonzero;fill:rgb(100%,100%,100%);fill-opacity:1;" d="M 20.179688 8.128906 C 20.179688 8.128906 20.234375 8.171875 20.332031 8.128906 L 20.34375 8.128906 C 20.34375 8.128906 20.34375 8.136719 20.335938 8.140625 C 20.335938 8.140625 20.234375 8.191406 20.164062 8.144531 C 20.160156 8.144531 20.160156 8.140625 20.164062 8.132812 Z M 20.179688 8.128906 "/>
<path style="fill:none;stroke-width:1.2;stroke-linecap:butt;stroke-linejoin:miter;stroke:rgb(0%,0%,0%);stroke-opacity:1;stroke-miterlimit:2.6;" d="M 519.3 194.703947 C 519.3 194.703947 520.7 195.493421 520.5 197.171053 " transform="matrix(0.0390625,0,0,0.0395833,0,0)"/>
<path style="fill:none;stroke-width:1.2;stroke-linecap:butt;stroke-linejoin:miter;stroke:rgb(0%,0%,0%);stroke-opacity:1;stroke-miterlimit:10;" d="M 526 195 C 526 195 526.6 196.875 526 197.960526 " transform="matrix(0.0390625,0,0,0.0395833,0,0)"/>
<path style="fill-rule:nonzero;fill:rgb(39.215687%,70.588237%,81.960785%);fill-opacity:1;stroke-width:1.2;stroke-linecap:butt;stroke-linejoin:miter;stroke:rgb(0%,14.117648%,49.019608%);stroke-opacity:1;stroke-miterlimit:2.6;" d="M 420.2 205.559211 C 420.2 205.559211 419.4 204.375 419.7 201.217105 C 420.1 197.763158 417.2 197.467105 416.2 198.355263 C 416.2 198.355263 415 199.440789 416 201.513158 C 416.8 203.388158 418.3 204.769737 420.2 205.559211 Z M 420.2 205.559211 " transform="matrix(0.0390625,0,0,0.0395833,0,0)"/>
<path style=" stroke:none;fill-rule:nonzero;fill:rgb(100%,100%,100%);fill-opacity:1;" d="M 16.371094 8.035156 C 16.371094 8.035156 16.332031 7.992188 16.347656 7.894531 L 16.347656 7.886719 L 16.332031 7.886719 C 16.332031 7.886719 16.3125 7.996094 16.359375 8.050781 C 16.359375 8.050781 16.367188 8.0625 16.371094 8.050781 Z M 16.371094 8.035156 "/>
<path style="fill-rule:nonzero;fill:rgb(39.215687%,70.588237%,81.960785%);fill-opacity:1;stroke-width:1.2;stroke-linecap:butt;stroke-linejoin:miter;stroke:rgb(0%,14.117648%,49.019608%);stroke-opacity:1;stroke-miterlimit:2.6;" d="M 421.2 204.375 C 421.2 204.375 421.2 202.993421 423.6 200.822368 C 425.9 198.355263 424 196.381579 422.6 196.381579 C 422.6 196.381579 421 196.381579 420.6 198.651316 C 420.1 200.625 420.3 202.598684 421.2 204.375 Z M 421.2 204.375 " transform="matrix(0.0390625,0,0,0.0395833,0,0)"/>
<path style=" stroke:none;fill-rule:nonzero;fill:rgb(100%,100%,100%);fill-opacity:1;" d="M 16.464844 7.972656 C 16.464844 7.972656 16.464844 7.910156 16.542969 7.839844 C 16.542969 7.839844 16.554688 7.828125 16.542969 7.824219 L 16.535156 7.824219 C 16.535156 7.824219 16.441406 7.898438 16.441406 7.976562 C 16.4375 7.980469 16.445312 7.984375 16.457031 7.988281 C 16.460938 7.992188 16.460938 7.984375 16.464844 7.972656 "/>
<path style="fill-rule:nonzero;fill:rgb(39.215687%,70.588237%,81.960785%);fill-opacity:1;stroke-width:1.2;stroke-linecap:butt;stroke-linejoin:miter;stroke:rgb(0%,14.117648%,49.019608%);stroke-opacity:1;stroke-miterlimit:2.6;" d="M 424.3 203.289474 C 424.3 203.289474 424.9 202.302632 427.8 201.217105 C 430.6 200.230263 429.8 197.664474 428.7 197.171053 C 428.7 197.171053 427.5 196.677632 426.1 198.256579 C 424.9 199.736842 424.3 201.513158 424.3 203.289474 Z M 424.3 203.289474 " transform="matrix(0.0390625,0,0,0.0395833,0,0)"/>
<path style=" stroke:none;fill-rule:nonzero;fill:rgb(100%,100%,100%);fill-opacity:1;" d="M 16.625 7.96875 C 16.625 7.96875 16.648438 7.914062 16.75 7.886719 C 16.753906 7.886719 16.753906 7.882812 16.757812 7.875 C 16.757812 7.871094 16.753906 7.871094 16.75 7.871094 C 16.75 7.871094 16.636719 7.894531 16.605469 7.964844 L 16.605469 7.976562 C 16.605469 7.976562 16.621094 7.976562 16.625 7.96875 "/>
<path style="fill-rule:nonzero;fill:rgb(39.215687%,70.588237%,81.960785%);fill-opacity:1;stroke-width:1.2;stroke-linecap:butt;stroke-linejoin:miter;stroke:rgb(0%,14.117648%,49.019608%);stroke-opacity:1;stroke-miterlimit:2.6;" d="M 422.5 204.375 C 422.5 204.375 423.9 204.868421 426.9 203.388158 C 429.9 201.907895 431.3 204.473684 430.9 205.657895 C 430.9 205.657895 430.2 207.335526 427.9 206.940789 C 425.9 206.842105 423.9 205.953947 422.5 204.473684 Z M 422.5 204.375 " transform="matrix(0.0390625,0,0,0.0395833,0,0)"/>
<path style=" stroke:none;fill-rule:nonzero;fill:rgb(100%,100%,100%);fill-opacity:1;" d="M 16.78125 8.128906 C 16.78125 8.128906 16.730469 8.171875 16.628906 8.128906 L 16.621094 8.128906 L 16.621094 8.140625 C 16.621094 8.140625 16.730469 8.191406 16.796875 8.144531 C 16.800781 8.144531 16.800781 8.140625 16.796875 8.132812 Z M 16.78125 8.128906 "/>
<path style="fill:none;stroke-width:1.2;stroke-linecap:butt;stroke-linejoin:miter;stroke:rgb(0%,0%,0%);stroke-opacity:1;stroke-miterlimit:2.6;" d="M 427 194.703947 C 427 194.703947 425.5 195.493421 425.8 197.171053 " transform="matrix(0.0390625,0,0,0.0395833,0,0)"/>
<path style="fill:none;stroke-width:1.2;stroke-linecap:butt;stroke-linejoin:miter;stroke:rgb(0%,0%,0%);stroke-opacity:1;stroke-miterlimit:10;" d="M 420.2 195 C 420.2 195 419.6 196.875 420.2 197.960526 " transform="matrix(0.0390625,0,0,0.0395833,0,0)"/>
<path style=" stroke:none;fill-rule:nonzero;fill:rgb(0%,0%,0%);fill-opacity:1;" d="M 19.011719 7.03125 C 19.011719 7.03125 19.050781 7.136719 19.035156 7.234375 C 19.023438 7.332031 19.042969 7.351562 19.074219 7.371094 C 19.101562 7.382812 19.167969 7.355469 19.171875 7.285156 C 19.171875 7.285156 19.25 7.433594 19.101562 7.53125 C 19.101562 7.53125 18.996094 7.601562 18.90625 7.515625 C 18.875 7.480469 18.859375 7.398438 18.878906 7.320312 C 18.878906 7.320312 18.902344 7.210938 18.859375 7.101562 C 18.859375 7.101562 18.921875 7.164062 18.90625 7.296875 C 18.90625 7.296875 18.875 7.53125 19.046875 7.515625 C 19.046875 7.515625 19.164062 7.515625 19.164062 7.375 C 19.164062 7.375 19.121094 7.421875 19.070312 7.40625 C 19.019531 7.394531 18.992188 7.34375 19 7.296875 C 19.003906 7.230469 19.023438 7.125 19.011719 7.03125 M 18.828125 7.402344 C 18.828125 7.402344 18.8125 7.59375 18.648438 7.636719 C 18.648438 7.636719 18.671875 7.601562 18.636719 7.503906 C 18.636719 7.503906 18.597656 7.457031 18.597656 7.375 C 18.597656 7.375 18.550781 7.414062 18.609375 7.523438 C 18.648438 7.59375 18.609375 7.667969 18.605469 7.671875 C 18.589844 7.675781 18.875 7.632812 18.824219 7.40625 Z M 18.609375 7.222656 C 18.609375 7.222656 18.566406 7.175781 18.5625 7.074219 C 18.5625 6.964844 18.542969 6.9375 18.527344 6.929688 C 18.527344 6.929688 18.546875 7.023438 18.542969 7.074219 C 18.539062 7.113281 18.542969 7.15625 18.558594 7.191406 C 18.558594 7.191406 18.464844 7.203125 18.40625 7.074219 C 18.355469 6.941406 18.300781 6.953125 18.273438 6.953125 C 18.273438 6.953125 18.304688 6.957031 18.367188 7.074219 C 18.429688 7.191406 18.449219 7.21875 18.609375 7.21875 Z M 18.1875 6.945312 C 18.1875 6.945312 18.234375 7.074219 18.242188 7.136719 C 18.242188 7.136719 18.121094 7.097656 18.085938 7 C 18.085938 7 17.960938 7.039062 18.007812 7.183594 C 18.007812 7.183594 17.894531 7.144531 17.84375 7.058594 C 17.84375 7.058594 17.90625 7.105469 17.964844 7.125 C 17.964844 7.125 17.957031 7.003906 18.105469 6.957031 C 18.105469 6.957031 18.128906 7.066406 18.207031 7.089844 Z M 18.382812 6.734375 C 18.382812 6.734375 18.429688 6.792969 18.515625 6.792969 C 18.5625 6.792969 18.609375 6.773438 18.640625 6.734375 C 18.640625 6.734375 18.636719 6.835938 18.515625 6.839844 C 18.515625 6.839844 18.386719 6.839844 18.386719 6.734375 Z M 17.859375 7.464844 L 17.9375 7.539062 C 17.9375 7.539062 17.984375 7.589844 18.015625 7.527344 C 18.015625 7.527344 18.066406 7.433594 18.128906 7.441406 C 18.128906 7.441406 18.082031 7.46875 18.035156 7.558594 C 18.035156 7.558594 18.027344 7.589844 17.988281 7.59375 C 17.96875 7.59375 17.949219 7.601562 17.917969 7.5625 C 17.914062 7.5625 17.894531 7.53125 17.859375 7.46875 Z M 18.511719 6.300781 C 18.386719 6.300781 18.492188 6.398438 18.492188 6.398438 C 18.492188 6.554688 18.371094 6.609375 18.285156 6.5625 C 18.199219 6.515625 18.269531 6.40625 18.269531 6.40625 C 18.269531 6.40625 18.175781 6.464844 18.230469 6.558594 C 18.292969 6.652344 18.453125 6.605469 18.511719 6.523438 C 18.570312 6.609375 18.734375 6.652344 18.789062 6.558594 C 18.855469 6.464844 18.757812 6.402344 18.757812 6.402344 C 18.757812 6.402344 18.828125 6.515625 18.738281 6.558594 C 18.65625 6.609375 18.527344 6.558594 18.535156 6.402344 C 18.535156 6.402344 18.640625 6.300781 18.515625 6.300781 Z M 18.589844 6.128906 C 18.589844 6.128906 18.636719 6.207031 18.628906 6.324219 C 18.628906 6.324219 18.664062 6.207031 18.589844 6.132812 Z M 18.199219 6.3125 C 18.199219 6.3125 18.1875 6.226562 18.105469 6.21875 C 18.105469 6.21875 18.179688 6.269531 18.199219 6.3125 M 18.824219 6.3125 C 18.824219 6.3125 18.835938 6.226562 18.921875 6.21875 C 18.921875 6.21875 18.851562 6.269531 18.828125 6.3125 Z M 18.074219 6.441406 C 18.074219 6.441406 18.136719 6.460938 18.175781 6.414062 Z M 17.863281 5.921875 C 17.863281 5.921875 17.9375 5.917969 18.011719 6.027344 C 18.011719 6.027344 17.9375 6.066406 17.917969 6.09375 C 17.917969 6.09375 17.917969 6.050781 17.957031 6.023438 C 17.957031 6.023438 17.941406 5.96875 17.863281 5.925781 Z M 19.113281 5.921875 C 19.113281 5.921875 19.035156 5.917969 18.960938 6.027344 C 18.960938 6.027344 19.039062 6.066406 19.054688 6.09375 C 19.054688 6.09375 19.054688 6.050781 19.015625 6.023438 C 19.015625 6.023438 19.03125 5.96875 19.113281 5.925781 Z M 18.539062 6.007812 C 18.539062 6.007812 18.605469 6.027344 18.6875 5.980469 C 18.6875 5.980469 18.789062 5.925781 18.855469 5.980469 C 18.855469 5.980469 18.800781 5.953125 18.6875 6.007812 C 18.6875 6.007812 18.582031 6.070312 18.539062 6.007812 "/>
<path style=" stroke:none;fill-rule:nonzero;fill:rgb(100%,100%,100%);fill-opacity:1;" d="M 18.609375 6.078125 C 18.609375 6.078125 18.664062 5.980469 18.84375 6 C 18.84375 6 18.792969 6.144531 18.609375 6.078125 "/>
<path style=" stroke:none;fill-rule:nonzero;fill:rgb(47.058824%,26.666668%,12.941177%);fill-opacity:1;" d="M 18.757812 6.046875 C 18.757812 6.023438 18.742188 6.003906 18.726562 6.003906 C 18.710938 6.003906 18.695312 6.023438 18.695312 6.046875 C 18.695312 6.074219 18.710938 6.09375 18.726562 6.09375 C 18.742188 6.09375 18.757812 6.074219 18.757812 6.046875 Z M 18.757812 6.046875 "/>
<path style=" stroke:none;fill-rule:nonzero;fill:rgb(0%,0%,0%);fill-opacity:1;" d="M 18.746094 6.046875 C 18.746094 6.03125 18.738281 6.019531 18.726562 6.019531 C 18.714844 6.019531 18.707031 6.03125 18.707031 6.046875 C 18.707031 6.0625 18.714844 6.074219 18.726562 6.074219 C 18.738281 6.074219 18.746094 6.0625 18.746094 6.046875 Z M 18.746094 6.046875 "/>
<path style=" stroke:none;fill-rule:nonzero;fill:rgb(0%,0%,0%);fill-opacity:1;" d="M 18.234375 5.863281 C 18.234375 5.863281 18.34375 5.875 18.414062 5.910156 C 18.414062 5.910156 18.484375 5.957031 18.5625 5.898438 C 18.5625 5.898438 18.648438 5.84375 18.707031 5.773438 C 18.707031 5.773438 18.570312 5.867188 18.519531 5.882812 C 18.519531 5.882812 18.472656 5.84375 18.460938 5.792969 C 18.460938 5.792969 18.460938 5.75 18.539062 5.683594 C 18.539062 5.683594 18.441406 5.714844 18.421875 5.800781 C 18.433594 5.832031 18.453125 5.863281 18.476562 5.890625 C 18.476562 5.890625 18.460938 5.902344 18.414062 5.867188 C 18.414062 5.867188 18.304688 5.835938 18.234375 5.867188 Z M 18.515625 6.535156 C 18.421875 6.617188 18.515625 6.609375 18.515625 6.609375 C 18.515625 6.609375 18.609375 6.617188 18.515625 6.53125 Z M 18.460938 6.011719 C 18.460938 6.011719 18.390625 6.03125 18.304688 5.984375 C 18.304688 5.984375 18.203125 5.929688 18.136719 5.984375 C 18.136719 5.984375 18.195312 5.957031 18.304688 6.011719 C 18.304688 6.011719 18.417969 6.074219 18.460938 6.011719 "/>
<path style=" stroke:none;fill-rule:nonzero;fill:rgb(100%,100%,100%);fill-opacity:1;" d="M 18.390625 6.078125 C 18.390625 6.078125 18.332031 5.980469 18.15625 6 C 18.15625 6 18.203125 6.144531 18.390625 6.078125 "/>
<path style=" stroke:none;fill-rule:nonzero;fill:rgb(47.058824%,26.666668%,12.941177%);fill-opacity:1;" d="M 18.300781 6.046875 C 18.300781 6.023438 18.285156 6.003906 18.269531 6.003906 C 18.253906 6.003906 18.238281 6.023438 18.238281 6.046875 C 18.238281 6.074219 18.253906 6.09375 18.269531 6.09375 C 18.285156 6.09375 18.300781 6.074219 18.300781 6.046875 Z M 18.300781 6.046875 "/>
<path style=" stroke:none;fill-rule:nonzero;fill:rgb(0%,0%,0%);fill-opacity:1;" d="M 18.289062 6.046875 C 18.289062 6.03125 18.28125 6.019531 18.269531 6.019531 C 18.257812 6.019531 18.25 6.03125 18.25 6.046875 C 18.25 6.0625 18.257812 6.074219 18.269531 6.074219 C 18.28125 6.074219 18.289062 6.0625 18.289062 6.046875 Z M 18.289062 6.046875 "/>
<path style="fill:none;stroke-width:1.2;stroke-linecap:butt;stroke-linejoin:miter;stroke:rgb(0%,0%,0%);stroke-opacity:1;stroke-miterlimit:4;" d="M 560 130.559211 L 560 292.203947 C 560 335.328947 473.8 349.440789 473.8 349.440789 C 473.8 349.440789 387.4 335.427632 387.4 292.203947 L 387.4 130.559211 Z M 560 130.559211 " transform="matrix(0.0390625,0,0,0.0395833,0,0)"/>
<path style=" stroke:none;fill-rule:nonzero;fill:rgb(0%,0%,40.000001%);fill-opacity:1;" d="M 0 0 L 12.5 0 L 12.5 9.5 L 0 9.5 Z M 0 0 "/>
<path style=" stroke:none;fill-rule:nonzero;fill:rgb(100%,100%,100%);fill-opacity:1;" d="M 1.464844 0 L 6.230469 3.582031 L 10.976562 0 L 12.5 0 L 12.5 1.226562 L 7.8125 4.769531 L 12.5 8.292969 L 12.5 9.5 L 10.9375 9.5 L 6.25 5.957031 L 1.582031 9.5 L 0 9.5 L 0 8.3125 L 4.667969 4.789062 L 0 1.265625 L 0 0 Z M 1.464844 0 "/>
<path style=" stroke:none;fill-rule:nonzero;fill:rgb(78.431374%,6.27451%,18.039216%);fill-opacity:1;" d="M 8.28125 5.5625 L 12.5 8.707031 L 12.5 9.5 L 7.207031 5.5625 Z M 4.6875 5.957031 L 4.804688 6.648438 L 1.054688 9.5 L 0 9.5 Z M 12.5 0 L 12.5 0.0585938 L 7.636719 3.78125 L 7.675781 2.910156 L 11.523438 0 Z M 0 0 L 4.667969 3.484375 L 3.496094 3.484375 L 0 0.832031 Z M 0 0 "/>
<path style=" stroke:none;fill-rule:nonzero;fill:rgb(100%,100%,100%);fill-opacity:1;" d="M 4.707031 0 L 4.707031 9.5 L 7.832031 9.5 L 7.832031 0 Z M 0 3.167969 L 0 6.332031 L 12.5 6.332031 L 12.5 3.167969 Z M 0 3.167969 "/>
<path style=" stroke:none;fill-rule:nonzero;fill:rgb(78.431374%,6.27451%,18.039216%);fill-opacity:1;" d="M 0 3.820312 L 0 5.71875 L 12.5 5.71875 L 12.5 3.820312 Z M 5.332031 0 L 5.332031 9.5 L 7.207031 9.5 L 7.207031 0 Z M 5.332031 0 "/>
</g>
</svg>
