<svg xmlns="http://www.w3.org/2000/svg" width="25" height="px" viewBox="0 0 25 19"><path d="M0 0h25v19H0z" style="fill:#cf142b;fill-opacity:1;stroke:none"/><path d="M21.863 5.168v6.398c0 1.707-3.367 2.266-3.367 2.266s-3.375-.555-3.375-2.273V5.168Zm0 0" style="stroke:none;fill-rule:nonzero;fill:#fff;fill-opacity:1"/><path d="M21.863 11.566c0 1.707-3.367 2.266-3.367 2.266s-3.375-.555-3.375-2.273c0 0 0-.141.07-.215 0 0-.039.281.176.5 0 0-.168-.309 0-.606 0 0-.066.387.172.606 0 0-.129-.313.016-.66 0 0-.07.566.183.683 0 0 .07-.332-.031-.539 0 0 .176.07.168.547 0 0 .055-.07.07-.414 0 0 .008.394.137.484 0 0 .047-.039-.012-.215-.062-.175.024-.238.04-.238 0 0-.032.195.132.348 0 0-.07-.313.028-.356 0 0-.024.266.187.32 0 0 .012-.074-.031-.16 0 0-.04-.097-.012-.175 0 0 .066.234.156.277 0 0-.054-.144 0-.277 0 0 .008.195.184.281 0 0-.117-.16-.074-.328l1.12.058.587.028 1.746-.121.297-.266s.12.164-.07.43c0 0 .187-.031.245-.328 0 0 .079.16-.027.347 0 0 .207-.215.235-.449 0 0 .082.23-.114.477 0 0 .172-.063.246-.32 0 0 .063.16-.105.374 0 0 .316-.16.308-.511 0 0 .13.187-.02.457 0 0 .157-.145.177-.368 0 0 .09.098-.008.372 0 0 .195-.192.226-.391 0 0 .04.187-.125.426 0 0 .114-.032.223-.262 0 0 .027.098-.07.262 0 0 .11-.02.18-.235 0 0 .011.13-.02.239 0 0 .082-.051.102-.29q0 .095.046.176v.032Zm0 0" style="stroke:none;fill-rule:nonzero;fill:#2f8f22;fill-opacity:1"/><path d="M515.4 198.651s-3 .691-7-.592c-3.8-1.184-5.3-.69-6.5 0 0 0 1.5-3.059-2.3-5.526 0 0 1.2 3.158-.5 4.54 0 0-.7.69-1.6-.297 0 0-1.3-1.48-2.8-2.368 0 0 3.3-1.184 2.7-4.54-.6-3.256-2.4-3.552-3.3-4.046q-.3 1.185 0 2.369s-3.5-1.974 1.2-4.737c4.7-2.665 4-4.342 3.1-5.724-.9-1.48-2.1-2.664-3.5-3.651 0 0 1 1.579.7 2.96-.1 1.185-2.4 1.974-2-.098.5-2.467 0-2.073 0-4.342 0 0 4.2 1.381 6-2.763 0 0 1.6-4.343-3.8-6.415 0 0 1.3 1.776.7 2.96 0 0-1.2 2.172-2.5.593s-2.2-2.171-2.1-4.145c0 0 4.9.69 3.6-4.737 0 0-.9 3.651-7.2-1.184 0 0 4.2-4.244 2.5-7.599 0 0-.5-1.48-4.9-.69 0 0 3.8-2.468 2.3-4.54 0 0-.9-1.283-4.6.395 0 0 1.5-2.27-2.1-4.935 0 0-2.4 1.185-3.6 2.369 0 0-2.4-2.96-4-4.342 0 0-2.8 1.085-3.5 4.342 0 0-1.3-1.48-4.3-2.369 0 0-1.4 2.764.5 4.935 0 0-1.4 0-4-1.086 0 0-2.8-1.184-2.3 1.086.3 2.467.6 3.059 1.2 4.243 0 0-6.5-1.48-6.2 1.974.1 2.368 1.2 4.638 3 6.217 0 0-3.5 4.835-6.6 1.184 0 0-1.2 1.184 1.2 4.244 0 0 2.4 2.467.3 4.144 0 0-2.5 1.974-3.7-1.973 0 0-4.1 4.046.8 7.204 0 0 3 1.776 6.3-.987 0 0-1 7.993-4 6.414 0 0-1.9-1.283 1.4-2.96 0 0-4.8-.592-5.5 4.046 0 0-.6 3.454 3.5 4.934 0 0 3.1 1.283 0 3.651 0 0-2.5 1.678-.9 4.342 0 0 1.8 2.862-2.9 3.257 0 0-2.4 0-3.3-.395 0 0-1 1.974-.4 3.948 0 0-2.3-1.678-7.5.197-5.2 2.072-4.9.69-5.2 1.283l-1.6 2.368s2.8 3.553 2.9 3.257l-.6 4.046 1.4.592 10.8-4.836 11-5.625 8.9.395 5.6 1.283 7.2.592 5.4-2.862h7.6l8.4 4.244 9.5 5.723 5 .987 3.9-.296v-7.796Zm0 0" style="fill-rule:nonzero;fill:#d40000;fill-opacity:1;stroke-width:1.2;stroke-linecap:butt;stroke-linejoin:round;stroke:#000;stroke-opacity:1;stroke-miterlimit:4" transform="scale(.03906 .03958)"/><path d="M428.2 207.73s4.2 2.171 6-.296c0 0 2.2-4.44-2.8-6.02 0 0 2.8-3.256-.2-6.217 0 0-1.6-1.579-4.2-.493 0 0-1.2-2.27-3.7-2.171 0 0-2.4 0-3 2.467 0 0-3.2-1.184-4.9.592 0 0-3 3.257 1.1 5.822l2.9.297 2.8-1.382 3.3.888s-.9 3.158 2.7 6.513Zm0 0" style="fill-rule:nonzero;fill:#d40000;fill-opacity:1;stroke-width:1.2;stroke-linecap:butt;stroke-linejoin:round;stroke:#000;stroke-opacity:1;stroke-miterlimit:4" transform="scale(.03906 .03958)"/><path d="M521.6 200.132c2.9-.296 5.6 1.184 6.9 3.75 2.6 6.217-3 9.572-3 9.572.4 1.382.5 3.257.5 3.257 7.8.986 6.4 9.77 6.4 9.77l-2.6-2.172c-4.5-1.776-9.3 2.171-12.6 8.586-3.4 6.612-1.8 9.473-1.2 17.27.6 7.697 13 12.434 13 12.434l-9.7 24.967c-3.8 10.066-12 5.92-14.3 3.75-2.3-1.974-2.9-.79-4 0-1.1.987 5.3 6.02-6.5 10.756-11.7 4.737-13.7 8.29-15.7 9.573-2 1.184-10 .493-10.8-.691-1-.987-.4-.987-3.5-2.862-3-1.678-8.2-3.454-13.8-6.217-5.6-2.664-5.4-6.217-5.3-6.908 0-.69 1.9-6.513-4.7-1.875-6.5 4.737-12.1-2.17-12.1-2.17-1.2-1.679-6.8-16.383-6.8-16.383-1.2-4.144-2.6-8.19-4.3-12.039 0 0-.4.79 4.5-1.974 4.8-2.763 7-7.302 8.7-11.94 1.7-4.54 0-12.533-.6-14.014-.6-1.579-4.2-8.881-8.7-10.361-4.4-1.58-7.5 2.368-7.5 2.368s-1.3-8.98 6.6-9.967c0 0 0-1.776.4-3.158 0 0-5.6-3.355-3-9.572 0 0 1.8-4.244 6.8-3.75l-1.1 2.368s-1.2 12.632 17.2 4.243c18.5-8.684 18-10.263 28.7-4.835l7.6-.099s11-5.329 14.7-2.96c3.5 2.27 16.3 9.375 16.3 9.375s12.4 4.638 14.9-4.046Zm0 0" style="fill-rule:nonzero;fill:#64b4d1;fill-opacity:1;stroke-width:1.2;stroke-linecap:butt;stroke-linejoin:miter;stroke:#000;stroke-opacity:1;stroke-miterlimit:4" transform="scale(.03906 .03958)"/><path d="M465.8 255s-.6-3.947-1.2-6.414c0 0-1.5-3.85 1-6.81l2.8-3.256s1.8-2.467 4-2.763c0 0 2.3 0 2.4-.494.3-.493 2.8-4.44 8.6 0 0 0 1.8-2.96 4.8-3.552 0 0 3-.79 4.5 1.381 0 0 3.5-2.566 6.4 1.678 0 0 4.1-2.369 7.2 2.368 0 0 4-2.072 6.4 2.073 2.5 4.243 2 6.02 2 6.02l2 6.808 6.5 7.994-15.2 5.724h-7l-13.7 3.65-24.3 1.876-6.7-7.994 9.6-8.289Zm0 0" style="fill-rule:nonzero;fill:#fff;fill-opacity:1;stroke-width:1.2;stroke-linecap:butt;stroke-linejoin:miter;stroke:#00247d;stroke-opacity:1;stroke-miterlimit:10" transform="scale(.03906 .03958)"/><path d="M445.3 295.46s-3.6.1-5.5 1.283c-1.8.79-3.3 1.777-5.4 3.158 0 0-1 1.283-5.2.494 0 0-7.2-1.678-7.2 4.046 0 0-8.8.592-5.2 8.29 0 0 2.3 5.92 7.3 1.776 0 0-3.2 4.54 3 6.315 0 0 4.4 1.185 5.8-3.552 0 0 .7-1.777-1-3.948 0 0 2.1-.394 3.6-2.763 0 0-4.6 5.823.5 7.994 0 0 6.3 1.579 6.6-4.935 0 0-.6-3.256 2-4.342 0 0 5-1.184 7-6.612 0 0-7-3.848-6.3-7.203Zm-14.7-57.434s-5.6-2.565-8.4 0c0 0-3.5-2.27-7.5 0 0 0-3.7 2.369-6.3 5.132 0 0-1.8 1.579-1.2 6.414 0 0 1 3.553.5 5.132 0 0-1.2-.197-3.7 2.763 0 0-3.1 3.553-6 .296 0 0 1 4.638 6.1 3.849 0 0-2.5 1.974-.3 7.006 0 0 1.6 3.553-1 8.191 0 0 4.5-1.776 4.4-7.204 0 0-.5-3.651 1-6.02 0 0-1.5 2.172 1.6 7.106 0 0 2.4 3.651.5 7.204 0 0 4.4-1.58 4-7.007s-3-3.158-1.4-8.19c0 0 .5 2.565 1.8 4.045 2.1 1.678 3 4.343 2.4 6.908 0 0 2.6-3.355 2-6.71-.2-1.58-.6-3.06-1.3-4.441l8.4-4.836 4.3-7.5Zm0 0" style="fill-rule:nonzero;fill:#d40000;fill-opacity:1;stroke-width:1.2;stroke-linecap:butt;stroke-linejoin:round;stroke:#000;stroke-opacity:1;stroke-miterlimit:4" transform="scale(.03906 .03958)"/><path d="M417.8 259.54s-3.5-.198-4-3.06m-6.1-1.776s1.2 0 2.4 1.184c0 0 .7 1.184 1.9.987" style="fill:none;stroke-width:1.2;stroke-linecap:butt;stroke-linejoin:miter;stroke:#000;stroke-opacity:1;stroke-miterlimit:10" transform="scale(.03906 .03958)"/><path d="M16.523 9.863s-.07 0-.117-.031c0 0-.035-.027-.058.016 0 0-.04.062.03.09 0 0 .087.05-.046.136 0 0 .156-.062.094-.144 0 0-.07-.047-.047-.067 0 0 .008-.015.039 0 .023.024.078.016.105 0" style="stroke:none;fill-rule:nonzero;fill:#000;fill-opacity:1"/><path d="m477.6 259.046 2.1-.69-14-47.961h-.4Zm0 0" style="fill-rule:nonzero;fill:#784421;fill-opacity:1;stroke-width:1.2;stroke-linecap:butt;stroke-linejoin:miter;stroke:#000;stroke-opacity:1;stroke-miterlimit:4" transform="scale(.03906 .03958)"/><path d="M16.844 12.363s-.125-.078-.235.012c0 0 .016-.047.094-.07 0 0 .047-.125.168-.114 0 0-.05.063-.117.11 0 0 .07.008.094.062Zm0 0" style="stroke:none;fill-rule:nonzero;fill:#000;fill-opacity:1"/><path d="M419.7 319.836s-5.2-3.257-2.3-8.783c0 0 .8-1.48 2.3-1.185 0 0 3.3.987.8 5.527 0 0-1.4 2.862-.8 4.54Zm10.5 5.23s-7.4-3.355-5.1-9.178c0 0 .7-1.974 2.4-1.776 0 0 2.8.197 2.3 3.947 0 0-.9 3.652.4 7.007Zm0 0" style="fill-rule:nonzero;fill:#64b4d1;fill-opacity:1;stroke-width:1.2;stroke-linecap:butt;stroke-linejoin:miter;stroke:#00247d;stroke-opacity:1;stroke-miterlimit:2.6" transform="scale(.03906 .03958)"/><path d="M16.746 12.016s-.09.07-.121.113c0 0-.04-.047-.086-.07 0 0 .059-.012.086.011 0 0 .047-.039.117-.054Zm0 0" style="stroke:none;fill-rule:nonzero;fill:#000;fill-opacity:1"/><path d="M435.2 323.586s6-1.382 4.8-7.5c0 0-.6-2.566-3-2.172 0 0-3 .79-1 4.54 0 0 1.1 2.664-.8 5.132Zm0 0" style="fill-rule:nonzero;fill:#64b4d1;fill-opacity:1;stroke-width:1.2;stroke-linecap:butt;stroke-linejoin:miter;stroke:#00247d;stroke-opacity:1;stroke-miterlimit:2.6" transform="scale(.03906 .03958)"/><path d="m461.6 196.678 5.7 1.875s5.4 2.368 12.3 0l5.2-1.974-3.5 5.428v2.861l2.1 3.257s-1.3.592-5.4-2.072c0 0-4.4-3.356-9.6 0 0 0-3 2.072-5.4 2.072l3.5-3.849-1.3-3.454-3.6-4.342Zm0 0" style="fill-rule:nonzero;fill:#f5ce00;fill-opacity:1;stroke-width:1.2;stroke-linecap:butt;stroke-linejoin:miter;stroke:#000;stroke-opacity:1;stroke-miterlimit:2.6" transform="scale(.03906 .03958)"/><path d="M17.09 12.527s.008-.015 0-.02l-.02.009s-.023.039 0 .093c0 0 .02.04.012.075v.015s.012-.004.012-.015c0 0 .015-.032-.008-.075 0 0-.023-.054.004-.082" style="stroke:none;fill-rule:nonzero;fill:#fff;fill-opacity:1"/><path d="M518 207.73s-4.2 2.171-6-.296c0 0-2.1-4.44 2.9-6.02 0 0-2.8-3.256.1-6.217 0 0 1.6-1.579 4.2-.493 0 0 1.2-2.27 3.7-2.171 0 0 2.4 0 3 2.467 0 0 3.3-1.184 5 .592 0 0 2.8 3.257-1.2 5.822l-2.9.297-2.9-1.382-3 .888s.8 3.158-3 6.513Zm0 0" style="fill-rule:nonzero;fill:#d40000;fill-opacity:1;stroke-width:1.2;stroke-linecap:butt;stroke-linejoin:round;stroke:#000;stroke-opacity:1;stroke-miterlimit:4" transform="scale(.03906 .03958)"/><path d="M484.8 204.375s0 .79-.8.987c0 0-1 .296-1.5-.888v-.296c0-.494-.3-1.974 1.4-3.257 0 0 2.6-2.072 7.6.493 4.8 2.665 9.8 5.23 14.8 7.5 0 0 3.1 1.58 7.9 1.777 0 0 6.5.493 9.3-4.046 0 0 2.1-3.553 0-5.823 0 0-.9-.986-2.3-.79-.7.1-1.4.593-1.8 1.185 0 0-1 1.382.1 2.467 0 0 1.6.987 2.2-.987 0 .198.5 1.678-.4 2.862 0 0-4 6.02-14.9-.098l-14.3-8.093s-7.1-3.65-11.6 2.171c0 0-3.4 4.737 1.1 7.895 0 0 3.4 1.974 5.4-1.283 0 0 1.8-3.059-1-4.342 0 0-2.4-1.184-3.3 1.184-1 2.369 1.8 2.96 2 1.283 0 0 0-.394.3 0Zm0 0" style="fill-rule:nonzero;fill:#f5ce00;fill-opacity:1;stroke-width:1.2;stroke-linecap:butt;stroke-linejoin:miter;stroke:#000;stroke-opacity:1;stroke-miterlimit:2.6" transform="scale(.03906 .03958)"/><path d="M428 229.243v-9.079c0-.789 0-1.184 1.2-2.17 1-.79 2.1-2.27 3.7 1.677 0 0 3.2-3.454 4.2-3.947 0 0 2-1.48 3.3.69 0 0 1.6-2.565 3-3.256 0 0 3.2-1.974 3.3 4.243l2.5-2.368s2-1.58 4.2.69c0 0 3.5 3.553 4 4.54 0 0 .8 1.086 1 2.763 0 0 0 1.974 1 2.96 0 0 1.1.988 2.2 1.185 0 0 2.5.099 3.6 2.665 0 0 .3-.494 1.6 11.15V262.5l-14.4 17.072-23.1-6.611-9.2-3.85-2.2-6.611 9-5.921 4.8-13.026-1.5-9.277-2.2-5.131Zm0 0" style="fill-rule:nonzero;fill:#e4cb5e;fill-opacity:1;stroke-width:1.2;stroke-linecap:butt;stroke-linejoin:miter;stroke:#000;stroke-opacity:1;stroke-miterlimit:2.6" transform="scale(.03906 .03958)"/><path d="m491.6 240.395 1.2-1.48 2.5-1.974s4 10.362 4.2 12.631v3.257s6 1.579 7.2 10.658l-5 9.177-7.8-4.342-2.3-1.48Zm0 0" style="fill-rule:nonzero;fill:#784421;fill-opacity:1;stroke-width:1.2;stroke-linecap:butt;stroke-linejoin:miter;stroke:#000;stroke-opacity:1;stroke-miterlimit:4" transform="scale(.03906 .03958)"/><path d="M16.34 12.367s.008-.012 0-.023l-.02.015s-.058.067-.008.172c0 0 0 .016.012.008 0 0 .012 0 0-.012 0 0-.043-.093.016-.156Zm0 0" style="stroke:none;fill-rule:nonzero;fill:#fff;fill-opacity:1"/><path d="M441.7 310.56s.1-.79-.4-1.58c-.1 0-.2-.493-.2-1.48m5.6-90.099s0 2.27.7 4.046c.6 1.58 2.9 4.441 3 5.823" style="fill:none;stroke-width:1.2;stroke-linecap:butt;stroke-linejoin:miter;stroke:#000;stroke-opacity:1;stroke-miterlimit:10" transform="scale(.03906 .03958)"/><path d="M501 295.46s3.6.1 5.5 1.283c2 .79 3.4 1.777 5.5 3.158 0 0 1 1.283 5.2.494 0 0 7.2-1.678 7.2 4.046 0 0 8.7.592 5.2 8.29 0 0-2.4 5.92-7.4 1.776 0 0 3.2 4.54-3 6.315 0 0-4.4 1.185-5.7-3.552 0 0-.8-1.777 1-3.948 0 0-2.1-.394-3.5-2.763 0 0 4.5 5.823-.5 7.994 0 0-6.3 1.579-6.7-4.935 0 0 .5-3.256-2-4.342 0 0-5-1.184-7.2-6.612 0 0 7.2-3.848 6.5-7.203Zm0 0" style="fill-rule:nonzero;fill:#d40000;fill-opacity:1;stroke-width:1.2;stroke-linecap:butt;stroke-linejoin:round;stroke:#000;stroke-opacity:1;stroke-miterlimit:4" transform="scale(.03906 .03958)"/><path d="m443.8 227.368 6 47.862m-4.5-47.96 6.6 44.605m-5.5-44.803 7.8 44.21" style="fill:none;stroke-width:1.2;stroke-linecap:butt;stroke-linejoin:miter;stroke:#000;stroke-opacity:1;stroke-miterlimit:10" transform="scale(.03906 .03958)"/><path d="m458.6 267.533 2.2-.69-14-48.06h-.5Zm0 0" style="fill-rule:nonzero;fill:#784421;fill-opacity:1;stroke-width:1.2;stroke-linecap:butt;stroke-linejoin:miter;stroke:#000;stroke-opacity:1;stroke-miterlimit:4" transform="scale(.03906 .03958)"/><path d="m450.7 225.296 14.1 35.526m-15-35.033 13.6 37.007" style="fill:none;stroke-width:1.2;stroke-linecap:butt;stroke-linejoin:miter;stroke:#000;stroke-opacity:1;stroke-miterlimit:10" transform="scale(.03906 .03958)"/><path d="M16.703 12.73s-.066-.058-.055-.171c0 0 0-.024-.011-.028 0 0-.012-.004-.012.024 0 0-.02.117.059.18q-.002.006.015.007.006 0 0-.012Zm0 0" style="stroke:none;fill-rule:nonzero;fill:#fff;fill-opacity:1"/><path d="m451.5 224.803 14.3 32.368m-18.3-30.395 9 43.717" style="fill:none;stroke-width:1.2;stroke-linecap:butt;stroke-linejoin:miter;stroke:#000;stroke-opacity:1;stroke-miterlimit:10" transform="scale(.03906 .03958)"/><path d="M520 259.046c-6.3-3.651-7.7-11.447-7.7-11.447-.9-4.836-.3-9.77 1.6-14.31 4-8.585 11.1-10.263 11.1-10.263s-6.9 4.737-8.8 11.152c0 0-1.4 5.526-.6 10.756.8 5.428.5 4.046 1.8 8.29l2.6 6.02Zm0 0" style="fill-rule:nonzero;fill:#f5ce00;fill-opacity:1;stroke-width:1.2;stroke-linecap:butt;stroke-linejoin:miter;stroke:#000;stroke-opacity:1;stroke-miterlimit:2.6" transform="scale(.03906 .03958)"/><path d="m492.7 238.717-26.6 8.487-1.4 12.04c-6.3 9.078-19.2 10.657-19.2 10.657l10 10.658 19 4.046 10.2-7.796 9.2-8.388c-1-4.54-.5-11.25-.5-11.25 0-1.184.5-3.75.5-3.75s-1.5-10.757-1.2-14.507Zm0 0" style="fill-rule:nonzero;fill:#784421;fill-opacity:1;stroke-width:1.2;stroke-linecap:butt;stroke-linejoin:miter;stroke:#000;stroke-opacity:1;stroke-miterlimit:4" transform="scale(.03906 .03958)"/><path d="M465 256.184s17.6-5.526 28-9.967m-36.4 19.934s22-3.947 37.3-12.73l5.6-3.849" style="fill:none;stroke-width:1.2;stroke-linecap:butt;stroke-linejoin:miter;stroke:#000;stroke-opacity:1;stroke-miterlimit:10" transform="scale(.03906 .03958)"/><path d="m499.5 252.829-6 4.342s-24.5 11.25-43.2 11.645m43.1-3.652s-18.8 9.869-29.4 9.869" style="fill:none;stroke-width:1.2;stroke-linecap:butt;stroke-linejoin:miter;stroke:#000;stroke-opacity:1;stroke-miterlimit:10" transform="scale(.03906 .03958)"/><path d="M515.8 238.026s5.6-2.565 8.4 0c0 0 3.6-2.27 7.6 0 0 0 3.6 2.369 6.2 5.132 0 0 1.8 1.579 1.2 6.414 0 0-1 3.553-.3 5.132 0 0 1.1-.197 3.5 2.763 0 0 3.3 3.553 6 .296 0 0-.8 4.638-6 3.849 0 0 2.4 1.974.3 7.006 0 0-1.6 3.553 1 8.191 0 0-4.6-1.776-4.4-7.204 0 0 .4-3.651-1-6.02 0 0 1.4 2.172-1.7 7.106 0 0-2.4 3.651-.4 7.204 0 0-4.5-1.58-4-7.007.3-5.427 3-3.158 1.3-8.19 0 0-.4 2.565-1.7 4.045a6.8 6.8 0 0 0-2.4 6.908s-2.6-3.355-2-6.71c.6-3.553 1.2-4.441 1.2-4.441l-8.3-4.836-4.2-7.5Zm0 0" style="fill-rule:nonzero;fill:#d40000;fill-opacity:1;stroke-width:1.2;stroke-linecap:butt;stroke-linejoin:round;stroke:#000;stroke-opacity:1;stroke-miterlimit:4" transform="scale(.03906 .03958)"/><path d="M420.6 268.421s.8-3.75 4.3-2.467c0 0 1.2-5.921 7.7-6.118s6.8 6.315 6.8 6.809c0 0 2-2.862 5.1-2.566 0 0 5.5-.296 3.6 8.487l1 1.283s4.1-9.967 12.7-7.402c0 0 8.4 2.566 3 10.658 0 0 4.2 5.527 7.6 5.033 3.6-.493 6.7-1.677 10.2-7.796 3.6-6.217 11.7-7.204 13.7-6.81 2 .297 3.7 1.777 4 3.159 0 0 4.3-14.31 19.8-12.237l6.2 3.355 2.4.987-3.6 9.967-8.4 19.244-6.6 1.973-6.8-3.848-2.4 1.184v5.92l-9 6.317-6.2 2.565-6.8 4.737-1.7 4.244s-3.7-1.678-8 0l-1.4-3.553-4-3.75-15.6-7.401-2.7-8.98-2.9-1.283-3.2 3.552-4.5.592-7-4.737-7.4-21.02Zm0 0" style="fill-rule:nonzero;fill:#fff;fill-opacity:1;stroke-width:1.2;stroke-linecap:butt;stroke-linejoin:miter;stroke:#00247d;stroke-opacity:1;stroke-miterlimit:10" transform="scale(.03906 .03958)"/><path d="M488.2 197.96s-6-.197-5.7 6.02" style="fill:none;stroke-width:1.2;stroke-linecap:butt;stroke-linejoin:miter;stroke:#000;stroke-opacity:1;stroke-miterlimit:2.6" transform="scale(.03906 .03958)"/><path d="M527 263.29c-10.2-3.158-13-14.31-13-14.31-1.2-5.131-.8-10.559 1.2-15.493 4.8-10.954 12.7-10.954 12.7-10.954 2.1-.296 4.1 1.085 4.5 3.158.4 2.368-1.3 3.355-1.3 3.355-2.7 1.48-4.5-.592-4.5-.592-1.2-1.579-.3-2.862-.3-2.862.7-.987 2-.395 2-.395 1.3.198 1 1.58 1 1.58s.4-1.58-1.2-1.777c0 0-3.2-.69-6.8 3.849 0 0-4.7 6.02-4.7 14.013 0 0-.6 14.802 14.7 18.651 0 0-1.6 2.369-4.6 11.053 0 0-3.3 11.25-6.4 17.368 0 0-4.3 8.586-13.9 5.033 0 0-5.6-2.467-5.6-6.513 0 0-.3-3.75 3-3.947 0 0 3.3-.296 3.3 2.467 0 0 0 3.059-3.5 2.467 0 0-1.2-.296-1.1-1.58 0 0 .2-1.183 1.8-.591 1.5.592 0 0 0-.099 0 0-.6-.296-1.2 0 0 0-.6 0-.6.987-.1.197.1.493.7 1.184l1.7.197s1 1.974 3 2.665c2.4.79 5.1.296 7.1-1.184 1.3-1.184 2.4-2.665 3-4.342 2-4.342 3.8-8.882 5.2-13.52 0 0 1.8-5.625 3.4-8.684Zm0 0" style="fill-rule:nonzero;fill:#f5ce00;fill-opacity:1;stroke-width:1.2;stroke-linecap:butt;stroke-linejoin:miter;stroke:#000;stroke-opacity:1;stroke-miterlimit:2.6" transform="scale(.03906 .03958)"/><path d="M498 291.414s2-.197 2 1.48c0 0-.1 2.37-3.2 1.876 0 0-3-.592-2-3.948 0 0 .8-2.368 3.6-1.973 0 0 2.8 0 4 3.75 0 0 1 3.256-.7 6.02-1.8 2.96-6.2 4.934-8.4 6.02 0 0-8.7 3.256-11.3 5.23 0 0-4 2.96-2.2 5.624 0 0 .7 1.086 1.7 1.086 0 0 1.2 0 1.3-1.184 0 0 0 .69-.7.987 0 0-.8.394-1.7-.296 0 0-1-.987-.2-2.369 0 0 1-1.579 3.6-.592 0 0 2 1.086 1.2 3.257 0 0-.9 2.072-3.4 1.973 0 0-1.9 0-3.2-1.184-2-2.072-2-6.02-.2-7.993 0 0 1.5-2.073 4.7-3.553l9-3.553c2.7-.986 4.8-2.368 6.4-4.046 0 0 1.3-1.381 1.8-4.046 0 0 .4-1.973-.8-2.368l-1.2-.296Zm0 0" style="fill-rule:nonzero;fill:#f5ce00;fill-opacity:1;stroke-width:1.2;stroke-linecap:butt;stroke-linejoin:miter;stroke:#000;stroke-opacity:1;stroke-miterlimit:2.6" transform="scale(.03906 .03958)"/><path d="M498.2 291.414s2.1-.394 3.5 2.172c0 0 .7 1.48.8 2.467m.7-8.98s-2.1.295-1 3.453c1.1 2.862 3 3.652 3.5 4.145" style="fill:none;stroke-width:1.2;stroke-linecap:butt;stroke-linejoin:miter;stroke:#000;stroke-opacity:1;stroke-miterlimit:2.6" transform="scale(.03906 .03958)"/><path d="M461.6 204.375s0 .79 1 .987c0 0 .8.197 1.3-.888v-.296c0-.494.3-1.974-1.2-3.257 0 0-2.8-2.072-7.8.493 0 0-4 1.974-6.7 3.553 0 0-7.1 3.849-8 4.046 0 0-3.2 1.58-8 1.776 0 0-6.5.494-9.2-4.046 0 0-2.2-3.552 0-5.822 0 0 .8-.987 2.2-.79q.9 0 1.8 1.185s1 1.381-.1 2.467c0 0-1.6.987-2.2-.987 0 .197-.3 1.579.5 2.96 0 0 4 5.922 14.8-.295l14.3-7.994s7.2-3.651 11.6 2.072c0 0 3.4 4.737-1 7.994 0 0-3.3 1.974-5.5-1.184 0 0-1.6-3.06 1-4.441 0 0 2.4-1.184 3.5 1.184 1 2.369-2 2.96-2.2 1.283 0 0 0-.395-.1 0Zm-35.2 54.77c6.3-3.553 7.8-11.546 7.8-11.546 1.4-7.994-1.7-14.31-1.7-14.31-4-8.585-11-10.263-11-10.263s6.8 4.737 8.7 11.152c0 0 1.6 5.526.6 10.756-.8 5.428-.5 4.046-1.8 8.29Zm0 0" style="fill-rule:nonzero;fill:#f5ce00;fill-opacity:1;stroke-width:1.2;stroke-linecap:butt;stroke-linejoin:miter;stroke:#000;stroke-opacity:1;stroke-miterlimit:2.6" transform="scale(.03906 .03958)"/><path d="M458.4 197.96s6-.197 5.6 6.02" style="fill:none;stroke-width:1.2;stroke-linecap:butt;stroke-linejoin:miter;stroke:#000;stroke-opacity:1;stroke-miterlimit:2.6" transform="scale(.03906 .03958)"/><path d="M419.3 263.29c10.3-3.158 13-14.31 13-14.31 1.2-5.131.8-10.559-1.1-15.493-4.8-10.954-12.7-10.954-12.7-10.954-2.1-.296-4.1 1.085-4.5 3.158-.3 2.368 1.3 3.355 1.3 3.355 2.8 1.48 4.6-.592 4.6-.592 1.1-1.579.2-2.862.2-2.862-.7-.987-2-.395-2-.395-1.2.198-1 1.58-1 1.58s-.3-1.58 1.2-1.777c0 0 3.2-.69 6.8 3.849 0 0 4.8 6.02 4.8 14.013 0 0 .6 14.802-14.8 18.651 0 0 1.7 2.369 4.6 11.053 0 0 3.4 11.25 6.6 17.368 0 0 4.2 8.586 13.7 5.033 0 0 5.6-2.467 5.6-6.513 0 0 .4-3.75-3-3.947 0 0-3.3-.296-3.3 2.467 0 0 0 3.059 3.6 2.467 0 0 1.2-.296 1-1.58 0 0-.2-1.183-1.7-.591-1.6.592 0 0 0-.099 0 0 .5-.296 1.1 0 0 0 .6 0 .6.987.1.197-.1.493-.7 1.184l-1.5.197s-1 1.974-3.2 2.665c-2.4.69-5 .296-7-1.184-1.3-1.184-2.4-2.665-3-4.342-2.1-4.342-3.8-8.882-5.3-13.52 0 0-1.8-5.625-3.2-8.684l-.6-1.185Zm0 0" style="fill-rule:nonzero;fill:#f5ce00;fill-opacity:1;stroke-width:1.2;stroke-linecap:butt;stroke-linejoin:miter;stroke:#000;stroke-opacity:1;stroke-miterlimit:2.6" transform="scale(.03906 .03958)"/><path d="M448.5 291.414s-2-.197-2 1.48c0 0 0 2.37 3.2 1.876 0 0 3-.592 1.9-3.948 0 0-.7-2.368-3.6-1.973 0 0-2.7 0-4 3.75 0 0-.9 3.256.8 6.02 1.8 2.96 6.2 4.934 8.3 6.02 0 0 8.7 3.256 11.4 5.23 0 0 3.9 2.96 2.1 5.624 0 0-.6 1.086-1.7 1.086 0 0-1.2 0-1.3-1.184 0 0 0 .69.7.987 0 0 .9.394 1.7-.296 0 0 1-.987.2-2.369 0 0-1-1.579-3.4-.592 0 0-2.2 1.086-1.2 3.257 0 0 .7 2.072 3.2 1.973 0 0 2 0 3.2-1.184 2-2.072 2-6.02.4-7.993 0 0-1.7-2.073-4.8-3.553-1.9-.592-5.5-2.171-9-3.553-2.7-.986-4.9-2.368-6.5-4.046 0 0-1.3-1.381-1.8-4.046 0 0-.3-1.973.9-2.368l1.2-.296Zm0 0" style="fill-rule:nonzero;fill:#f5ce00;fill-opacity:1;stroke-width:1.2;stroke-linecap:butt;stroke-linejoin:miter;stroke:#000;stroke-opacity:1;stroke-miterlimit:2.6" transform="scale(.03906 .03958)"/><path d="M448.2 291.414s-2.1-.394-3.4 2.172c0 0-.7 1.48-.9 2.467m-.7-8.98s2.2.295 1.1 3.453c-1.2 2.862-3 3.652-3.6 4.145m27.4-91.085s5.2-3.257 10.4.296m-39.7 31.282s.7-2.96-2.6-7.993c0 0-2.2-4.638-3.2-7.5m7.4-3.257 2.3 6.612 3 6.81" style="fill:none;stroke-width:1.2;stroke-linecap:butt;stroke-linejoin:miter;stroke:#000;stroke-opacity:1;stroke-miterlimit:2.6" transform="scale(.03906 .03958)"/><path d="M441.2 238.322s2 2.073 1.8 5.625m-8.1-7.993s2.1 1.085 1.9 6.81c0 0-.1 4.045 3 6.216m-5.3 1.382s6.7-.69 7.2 3.552c0 0 0 3.948 2.4 4.244 0 0 3.3.296 4 3.651M436.7 255s1.2 1.678 2.4 2.566m6.2-7.007s1.6 2.763 2 4.145m5.3-35.033s1.6 2.171 3.1 3.06m3.1 9.572s3.4 1.579 3 9.967c0 0-.6 5.033.9 7.697" style="fill:none;stroke-width:1.2;stroke-linecap:butt;stroke-linejoin:miter;stroke:#000;stroke-opacity:1;stroke-miterlimit:10" transform="scale(.03906 .03958)"/><path d="m443.1 226.579.4.79s6 .295 9.1-3.75l-.3-.79s-5.3-.296-9 3.75Zm0 0" style="fill-rule:nonzero;fill:#784421;fill-opacity:1;stroke-width:1.2;stroke-linecap:butt;stroke-linejoin:miter;stroke:#000;stroke-opacity:1;stroke-miterlimit:4" transform="scale(.03906 .03958)"/><path d="M464.7 258.454s20.6-5.921 28.6-9.572" style="fill:none;stroke-width:1.2;stroke-linecap:butt;stroke-linejoin:miter;stroke:#000;stroke-opacity:1;stroke-miterlimit:10" transform="scale(.03906 .03958)"/><path d="m462.5 220.46-.2-.592 10.1-3.947.3.79Zm0 0" style="fill-rule:nonzero;fill:#784421;fill-opacity:1;stroke-width:1.2;stroke-linecap:butt;stroke-linejoin:miter;stroke:#000;stroke-opacity:1;stroke-miterlimit:4" transform="scale(.03906 .03958)"/><path d="m463.4 220.066 6.8 33.355m-5.6-33.651 7.7 33.059m-6.4-33.651 8.4 32.96m-5-34.145 11.5 24.573m-10-24.967 12.3 24.177m-11.3-24.77 13.4 24.277m-15.5 12.434 5.2-1.579m-9.1-1.677s15.2-4.441 27-9.178m-27.4 10.756s19.5-5.032 27.2-8.881m-21.2 24.67 1 3.258 2.8-.987-1-3.06m5-1.381 1 3.06 2.8-.89-1-3.058m-16-17.566-.2-4.243 25.5-7.698 1.3 3.651m-16 .79 1.3 3.75m7.6-6.316 1.6 3.553m.5-4.244 1.6 3.257m.4-4.046 1.6 3.651m0-4.046 2.8-1.579 1.2 3.158m-2.6-2.368 1.4 3.355" style="fill:none;stroke-width:1.2;stroke-linecap:butt;stroke-linejoin:miter;stroke:#000;stroke-opacity:1;stroke-miterlimit:10" transform="scale(.03906 .03958)"/><path d="M429.5 283.125s-5-5.132 0-10.066c0 0-5.5-2.566-4.6-7.006m13.6 21.02s-5.3.69-3.7-9.376c0 0-2.2 4.046-2.9 6.02-.5 2.072.3 4.145 2 5.428.9.592 5.5 1.776 7-1.283m-8.3-16.184s-2.1 1.875-.6 5.427m2.8-5.033s.2 3.553 2 5.428m-.5-6.71s0 4.046 2.9 6.611m-1.5-7.993s0 4.54 3.4 7.401m13.5-.69s1.6-3.948 5.2-3.652c0 0-1.7.79-1.7 2.566 0 0-.2 2.96 2.9 3.158 0 0 2.5.395 3.8-.987" style="fill:none;stroke-width:1.2;stroke-linecap:butt;stroke-linejoin:miter;stroke:#00247d;stroke-opacity:1;stroke-miterlimit:10" transform="scale(.03906 .03958)"/><path d="M463.1 293.092s-8.9-4.145-8-10.066c0 0 .4-3.651 4-5.427m-2 3.848s-.8 2.467 1 4.244m1.1-6.02s-1.2 2.862.7 4.836m1.5-6.316s-1.4 2.368.2 4.54m-8.4 10.953s4.8 4.342 8.6 4.342m-10.1-2.96s4.5 3.651 7.4 4.243m-9-3.256s5.5 4.934 9 5.23m13.7 4.638s-5.5 2.96-1.2 6.217m-2.4-9.474 9-4.539m-6.7 6.217s9-5.526 11.7-6.71m-7 7.204s7.7-5.23 11.9-7.5m-6.8 7.105s5.3-4.046 10.5-7.105m1.7-5.132s-2.6-3.947-11.2 0c0 0 3.3-2.862 9.5-5.23m8.5-16.283s.8 3.158 0 5.033" style="fill:none;stroke-width:1.2;stroke-linecap:butt;stroke-linejoin:miter;stroke:#00247d;stroke-opacity:1;stroke-miterlimit:10" transform="scale(.03906 .03958)"/><path d="M486.5 285.69s1.8-2.565 6.3-3.947c0 0 1.2 2.96 4.8 2.468 0 0 5.2-1.086 3.6-7.007 0 0-1.1-4.243-7.2-4.737m18.1-7.303s6.1 1.283 6 6.119c0 0 .6 7.599-7.4 8.98m6.6-11.94s1.6-3.75 5.5-5.23m-4.6-2.172s1.7 2.763 2.8 3.06m-3.6-.988s1.5 2.073 2 2.468m-2.6-.494 1.5 1.678M485 235.757s1.2-1.974 4.3-1.185m12.1 15.79s2-7.796 8.5-4.934m-2.6-.592s.6-3.652-1-5.527m-3.6 5.23s.9 1.48.1 2.665" style="fill:none;stroke-width:1.2;stroke-linecap:butt;stroke-linejoin:miter;stroke:#00247d;stroke-opacity:1;stroke-miterlimit:10" transform="scale(.03906 .03958)"/><path d="M516.2 324.967s7.4-3.256 5.1-9.079c0 0-.7-1.974-2.4-1.776 0 0-2.8.099-2.3 3.947 0 0 1 3.849-.5 7.007Zm0 0" style="fill-rule:nonzero;fill:#64b4d1;fill-opacity:1;stroke-width:1.2;stroke-linecap:butt;stroke-linejoin:miter;stroke:#00247d;stroke-opacity:1;stroke-miterlimit:2.6" transform="scale(.03906 .03958)"/><path d="M20.266 12.73s.066-.058.058-.171c0 0-.008-.024 0-.028 0 0 .016-.004.016.024 0 0 .02.117-.055.18q0 .006-.015.007-.006 0 0-.012Zm0 0" style="stroke:none;fill-rule:nonzero;fill:#fff;fill-opacity:1"/><path d="M526.7 319.836s5.2-3.257 2.4-8.783c0 0-.9-1.48-2.4-1.185 0 0-3.2.987-.7 5.527 0 0 1.2 2.862.7 4.54Zm0 0" style="fill-rule:nonzero;fill:#64b4d1;fill-opacity:1;stroke-width:1.2;stroke-linecap:butt;stroke-linejoin:miter;stroke:#00247d;stroke-opacity:1;stroke-miterlimit:2.6" transform="scale(.03906 .03958)"/><path d="M20.625 12.367s-.008-.012 0-.023l.016.015s.058.067.011.172c0 0-.004.016-.02.008v-.012s.048-.093-.007-.156Zm0 0" style="stroke:none;fill-rule:nonzero;fill:#fff;fill-opacity:1"/><path d="M511 323.586s-5.8-1.382-4.7-7.5c0 0 .6-2.566 3.1-2.172 0 0 3 .79 1 4.54 0 0-1.1 2.664.7 5.132Zm0 0" style="fill-rule:nonzero;fill:#64b4d1;fill-opacity:1;stroke-width:1.2;stroke-linecap:butt;stroke-linejoin:miter;stroke:#00247d;stroke-opacity:1;stroke-miterlimit:2.6" transform="scale(.03906 .03958)"/><path d="M19.875 12.527v-.02s.016 0 .02.009c0 0 .023.039.003.093 0 0-.02.04-.007.075q0 .002-.012.015l-.008-.015s-.012-.032.008-.075c0 0 .023-.054 0-.082Zm0 0" style="stroke:none;fill-rule:nonzero;fill:#fff;fill-opacity:1"/><path d="M20.125 12.363s.133-.078.234.012c0 0-.007-.047-.093-.07 0 0-.04-.125-.164-.114 0 0 .046.063.117.11 0 0-.07.008-.094.062m.094-.347s.093.07.125.113c0 0 .035-.047.078-.07 0 0-.047-.012-.078.011 0 0-.043-.039-.117-.054Zm0 0" style="stroke:none;fill-rule:nonzero;fill:#000;fill-opacity:1"/><path d="M504.8 310.56s-.3-.79.3-1.58c0 0 .4-.592.2-1.48m23.4-47.96s3.5-.198 4-3.06m6-1.776s-1.2 0-2.2 1.184c0 0-.9 1.184-2 .987" style="fill:none;stroke-width:1.2;stroke-linecap:butt;stroke-linejoin:miter;stroke:#000;stroke-opacity:1;stroke-miterlimit:10" transform="scale(.03906 .03958)"/><path d="M20.453 9.863s.07 0 .106-.031c0 0 .043-.027.066.016 0 0 .04.062-.031.09 0 0-.086.05.05.136 0 0-.164-.062-.093-.144 0 0 .07-.047.039-.067 0 0-.008-.015-.035 0-.028.024-.082.016-.102 0" style="stroke:none;fill-rule:nonzero;fill:#000;fill-opacity:1"/><path d="M526 205.56s.8-1.185.5-4.343c-.3-3.256 2.6-3.75 3.6-2.862 0 0 1.2 1.086 0 3.158a8.14 8.14 0 0 1-4.1 4.046Zm0 0" style="fill-rule:nonzero;fill:#64b4d1;fill-opacity:1;stroke-width:1.2;stroke-linecap:butt;stroke-linejoin:miter;stroke:#00247d;stroke-opacity:1;stroke-miterlimit:2.6" transform="scale(.03906 .03958)"/><path d="M20.586 8.035s.047-.043.023-.14l.008-.008h.012s.023.11-.024.164c0 0-.007.011-.02 0Zm0 0" style="stroke:none;fill-rule:nonzero;fill:#fff;fill-opacity:1"/><path d="M525.1 204.375s0-1.382-2.3-3.553c-2.4-2.467-.5-4.44 1-4.44 0 0 1.3 0 2 2.27a8.04 8.04 0 0 1-.7 5.723Zm0 0" style="fill-rule:nonzero;fill:#64b4d1;fill-opacity:1;stroke-width:1.2;stroke-linecap:butt;stroke-linejoin:miter;stroke:#00247d;stroke-opacity:1;stroke-miterlimit:2.6" transform="scale(.03906 .03958)"/><path d="M20.5 7.973s0-.063-.086-.133v-.016h.016s.09.074.09.153q0 .005-.012.011c-.004.004-.004-.004-.008-.015" style="stroke:none;fill-rule:nonzero;fill:#fff;fill-opacity:1"/><path d="M522 203.29s-.7-.987-3.5-2.073c-2.9-.987-2.2-3.553-1-4.046 0 0 1.3-.493 2.6 1.086a7.97 7.97 0 0 1 1.8 5.032Zm0 0" style="fill-rule:nonzero;fill:#64b4d1;fill-opacity:1;stroke-width:1.2;stroke-linecap:butt;stroke-linejoin:miter;stroke:#00247d;stroke-opacity:1;stroke-miterlimit:2.6" transform="scale(.03906 .03958)"/><path d="M20.336 7.969s-.023-.055-.125-.082q-.004 0-.008-.012 0-.005.012-.004s.113.024.144.094l-.004.012s-.011 0-.015-.008Zm0 0" style="stroke:none;fill-rule:nonzero;fill:#fff;fill-opacity:1"/><path d="M523.7 204.375s-1.3.493-4.4-.987-4.4 1.086-3.8 2.27c0 0 .5 1.678 2.8 1.283 2-.099 4-.987 5.4-2.467Zm0 0" style="fill-rule:nonzero;fill:#64b4d1;fill-opacity:1;stroke-width:1.2;stroke-linecap:butt;stroke-linejoin:miter;stroke:#00247d;stroke-opacity:1;stroke-miterlimit:2.6" transform="scale(.03906 .03958)"/><path d="M20.18 8.129s.054.043.152 0h.012s0 .008-.008.012c0 0-.102.05-.172.004q-.006 0 0-.012Zm0 0" style="stroke:none;fill-rule:nonzero;fill:#fff;fill-opacity:1"/><path d="M519.3 194.704s1.4.79 1.2 2.467" style="fill:none;stroke-width:1.2;stroke-linecap:butt;stroke-linejoin:miter;stroke:#000;stroke-opacity:1;stroke-miterlimit:2.6" transform="scale(.03906 .03958)"/><path d="M526 195s.6 1.875 0 2.96" style="fill:none;stroke-width:1.2;stroke-linecap:butt;stroke-linejoin:miter;stroke:#000;stroke-opacity:1;stroke-miterlimit:10" transform="scale(.03906 .03958)"/><path d="M420.2 205.56s-.8-1.185-.5-4.343c.4-3.454-2.5-3.75-3.5-2.862 0 0-1.2 1.086-.2 3.158.8 1.875 2.3 3.257 4.2 4.046Zm0 0" style="fill-rule:nonzero;fill:#64b4d1;fill-opacity:1;stroke-width:1.2;stroke-linecap:butt;stroke-linejoin:miter;stroke:#00247d;stroke-opacity:1;stroke-miterlimit:2.6" transform="scale(.03906 .03958)"/><path d="M16.371 8.035s-.039-.043-.023-.14v-.008h-.016s-.02.11.027.164c0 0 .008.011.012 0Zm0 0" style="stroke:none;fill-rule:nonzero;fill:#fff;fill-opacity:1"/><path d="M421.2 204.375s0-1.382 2.4-3.553c2.3-2.467.4-4.44-1-4.44 0 0-1.6 0-2 2.27-.5 1.973-.3 3.947.6 5.723Zm0 0" style="fill-rule:nonzero;fill:#64b4d1;fill-opacity:1;stroke-width:1.2;stroke-linecap:butt;stroke-linejoin:miter;stroke:#00247d;stroke-opacity:1;stroke-miterlimit:2.6" transform="scale(.03906 .03958)"/><path d="M16.465 7.973s0-.063.078-.133c0 0 .012-.012 0-.016h-.008s-.094.074-.094.153q-.003.005.016.011c.004.004.004-.004.008-.015" style="stroke:none;fill-rule:nonzero;fill:#fff;fill-opacity:1"/><path d="M424.3 203.29s.6-.987 3.5-2.073c2.8-.987 2-3.553.9-4.046 0 0-1.2-.493-2.6 1.086a7.97 7.97 0 0 0-1.8 5.032Zm0 0" style="fill-rule:nonzero;fill:#64b4d1;fill-opacity:1;stroke-width:1.2;stroke-linecap:butt;stroke-linejoin:miter;stroke:#00247d;stroke-opacity:1;stroke-miterlimit:2.6" transform="scale(.03906 .03958)"/><path d="M16.625 7.969s.023-.055.125-.082q.004 0 .008-.012-.001-.005-.008-.004s-.113.024-.145.094v.012s.016 0 .02-.008" style="stroke:none;fill-rule:nonzero;fill:#fff;fill-opacity:1"/><path d="M422.5 204.375s1.4.493 4.4-.987 4.4 1.086 4 2.27c0 0-.7 1.678-3 1.283-2-.099-4-.987-5.4-2.467Zm0 0" style="fill-rule:nonzero;fill:#64b4d1;fill-opacity:1;stroke-width:1.2;stroke-linecap:butt;stroke-linejoin:miter;stroke:#00247d;stroke-opacity:1;stroke-miterlimit:2.6" transform="scale(.03906 .03958)"/><path d="M16.781 8.129s-.05.043-.152 0h-.008v.012s.11.05.176.004q.006 0 0-.012Zm0 0" style="stroke:none;fill-rule:nonzero;fill:#fff;fill-opacity:1"/><path d="M427 194.704s-1.5.79-1.2 2.467" style="fill:none;stroke-width:1.2;stroke-linecap:butt;stroke-linejoin:miter;stroke:#000;stroke-opacity:1;stroke-miterlimit:2.6" transform="scale(.03906 .03958)"/><path d="M420.2 195s-.6 1.875 0 2.96" style="fill:none;stroke-width:1.2;stroke-linecap:butt;stroke-linejoin:miter;stroke:#000;stroke-opacity:1;stroke-miterlimit:10" transform="scale(.03906 .03958)"/><path d="M19.012 7.031s.039.106.023.203c-.012.098.008.118.04.137.027.012.093-.016.097-.086 0 0 .078.149-.07.246 0 0-.106.07-.196-.015-.031-.036-.047-.118-.027-.196 0 0 .023-.11-.02-.218 0 0 .063.062.047.195 0 0-.031.234.14.219 0 0 .118 0 .118-.141 0 0-.043.047-.094.031a.095.095 0 0 1-.07-.11c.004-.066.023-.171.012-.265m-.184.371s-.015.192-.18.235c0 0 .024-.035-.011-.133 0 0-.04-.047-.04-.129 0 0-.046.04.012.148.04.07 0 .145-.004.149-.015.004.27-.04.22-.266Zm-.219-.18s-.043-.046-.047-.148c0-.11-.019-.136-.035-.144 0 0 .02.093.016.144-.004.04 0 .082.016.117 0 0-.094.012-.153-.117-.05-.133-.105-.12-.133-.12 0 0 .032.003.094.12.063.117.082.145.242.145Zm-.422-.277s.047.13.055.192c0 0-.12-.04-.156-.137 0 0-.125.04-.078.184 0 0-.113-.04-.164-.125 0 0 .062.046.12.066 0 0-.007-.121.141-.168 0 0 .024.11.102.133Zm.196-.21s.047.058.133.058a.16.16 0 0 0 .125-.059s-.004.102-.125.106c0 0-.13 0-.13-.106Zm-.524.73.078.074s.047.05.079-.012c0 0 .05-.093.113-.086 0 0-.047.028-.094.118 0 0-.008.03-.047.035-.02 0-.039.008-.07-.032a.5.5 0 0 1-.059-.093Zm.653-1.164c-.125 0-.02.097-.02.097 0 .157-.12.211-.207.165-.086-.047-.015-.157-.015-.157s-.094.059-.04.153c.063.093.223.046.282-.036.058.086.222.13.277.036.066-.094-.031-.157-.031-.157s.07.114-.02.157c-.082.05-.21 0-.203-.157 0 0 .106-.101-.02-.101Zm.078-.172s.047.078.039.195c0 0 .035-.117-.04-.191Zm-.39.184s-.012-.086-.095-.094c0 0 .075.05.094.093m.625 0s.012-.085.098-.093c0 0-.07.05-.094.093Zm-.75.13s.063.019.102-.028Zm-.21-.52s.073-.004.148.105c0 0-.075.04-.094.067 0 0 0-.043.039-.07 0 0-.016-.055-.094-.098Zm1.25 0s-.079-.004-.153.105c0 0 .078.04.094.067 0 0 0-.043-.04-.07 0 0 .016-.055.098-.098Zm-.575.086s.066.02.148-.028c0 0 .102-.054.168 0 0 0-.054-.027-.168.028 0 0-.105.062-.148 0" style="stroke:none;fill-rule:nonzero;fill:#000;fill-opacity:1"/><path d="M18.61 6.078s.054-.098.234-.078c0 0-.051.145-.235.078" style="stroke:none;fill-rule:nonzero;fill:#fff;fill-opacity:1"/><path d="M18.758 6.047c0-.024-.016-.043-.031-.043-.016 0-.032.02-.032.043 0 .027.016.047.032.047.015 0 .03-.02.03-.047m0 0" style="stroke:none;fill-rule:nonzero;fill:#784421;fill-opacity:1"/><path d="M18.746 6.047q-.001-.026-.02-.027-.018.001-.019.027.001.026.02.027.018-.001.02-.027M18.234 5.863s.11.012.18.047c0 0 .07.047.148-.012 0 0 .086-.054.145-.125 0 0-.137.094-.187.11 0 0-.047-.04-.06-.09 0 0 0-.043.08-.11 0 0-.099.032-.118.118a.3.3 0 0 0 .055.09s-.016.011-.063-.024c0 0-.11-.031-.18 0Zm.282.672c-.094.082 0 .074 0 .074s.093.008 0-.078Zm-.055-.523s-.07.02-.156-.028c0 0-.102-.054-.168 0 0 0 .058-.027.168.028 0 0 .113.062.156 0" style="stroke:none;fill-rule:nonzero;fill:#000;fill-opacity:1"/><path d="M18.39 6.078s-.058-.098-.234-.078c0 0 .047.145.235.078" style="stroke:none;fill-rule:nonzero;fill:#fff;fill-opacity:1"/><path d="M18.3 6.047c0-.024-.015-.043-.03-.043-.016 0-.032.02-.032.043 0 .027.016.047.032.047.015 0 .03-.02.03-.047m0 0" style="stroke:none;fill-rule:nonzero;fill:#784421;fill-opacity:1"/><path d="M18.29 6.047q-.002-.026-.02-.027-.019.001-.02.027.001.026.02.027.018-.001.02-.027m0 0" style="stroke:none;fill-rule:nonzero;fill:#000;fill-opacity:1"/><path d="M560 130.56v161.644c0 43.125-86.2 57.237-86.2 57.237s-86.4-14.013-86.4-57.237V130.559Zm0 0" style="fill:none;stroke-width:1.2;stroke-linecap:butt;stroke-linejoin:miter;stroke:#000;stroke-opacity:1;stroke-miterlimit:4" transform="scale(.03906 .03958)"/><path d="M0 0h12.5v9.5H0Zm0 0" style="stroke:none;fill-rule:nonzero;fill:#006;fill-opacity:1"/><path d="M1.465 0 6.23 3.582 10.977 0H12.5v1.227L7.813 4.77 12.5 8.293V9.5h-1.562L6.25 5.957 1.582 9.5H0V8.313l4.668-3.524L0 1.266V0Zm0 0" style="stroke:none;fill-rule:nonzero;fill:#fff;fill-opacity:1"/><path d="M8.281 5.563 12.5 8.707V9.5L7.207 5.563Zm-3.594.394.118.691L1.055 9.5H0ZM12.5 0v.059L7.637 3.78l.039-.87L11.523 0ZM0 0l4.668 3.484H3.496L0 .832Zm0 0" style="stroke:none;fill-rule:nonzero;fill:#c8102e;fill-opacity:1"/><path d="M4.707 0v9.5h3.125V0ZM0 3.168v3.164h12.5V3.168Zm0 0" style="stroke:none;fill-rule:nonzero;fill:#fff;fill-opacity:1"/><path d="M0 3.82V5.72h12.5V3.82ZM5.332 0v9.5h1.875V0Zm0 0" style="stroke:none;fill-rule:nonzero;fill:#c8102e;fill-opacity:1"/></svg>