<?xml version="1.0" encoding="UTF-8"?>
<svg xmlns="http://www.w3.org/2000/svg" xmlns:xlink="http://www.w3.org/1999/xlink" width="25px" height="px" viewBox="0 0 25 19" version="1.1">
<g id="surface1">
<rect x="0" y="0" width="25" height="19" style="fill:rgb(96.862745%,87.843138%,9.019608%);fill-opacity:1;stroke:none;"/>
<path style=" stroke:none;fill-rule:nonzero;fill:rgb(100%,100%,100%);fill-opacity:1;" d="M 0 1.316406 L 0 9.765625 L 25 13.722656 L 25 9.234375 Z M 0 1.316406 "/>
<path style=" stroke:none;fill-rule:nonzero;fill:rgb(0%,0%,0.392157%);fill-opacity:1;" d="M 0 5.808594 L 0 9.765625 L 25 17.683594 L 25 13.722656 Z M 0 5.808594 "/>
<path style=" stroke:none;fill-rule:nonzero;fill:rgb(81.176472%,6.666667%,14.901961%);fill-opacity:1;" d="M 11.867188 15.035156 C 11.410156 14.984375 10.96875 14.828125 10.582031 14.578125 C 10.519531 14.539062 10.460938 14.5 10.449219 14.5 C 10.441406 14.5 10.433594 14.550781 10.433594 14.609375 C 10.433594 14.777344 10.367188 14.863281 10.199219 14.90625 C 10.039062 14.949219 9.792969 14.863281 9.597656 14.695312 C 9.410156 14.53125 9.191406 14.410156 8.953125 14.339844 C 8.707031 14.28125 8.449219 14.3125 8.222656 14.433594 C 8.203125 14.449219 8.175781 14.460938 8.152344 14.46875 C 8.121094 14.46875 8.125 14.285156 8.15625 14.230469 C 8.195312 14.152344 8.289062 14.078125 8.402344 14.039062 C 8.457031 14.019531 8.503906 13.992188 8.503906 13.976562 C 8.503906 13.964844 8.484375 13.925781 8.460938 13.882812 C 8.386719 13.746094 8.414062 13.621094 8.550781 13.515625 C 8.683594 13.410156 8.914062 13.394531 9.113281 13.472656 L 9.21875 13.507812 C 9.246094 13.507812 9.230469 13.46875 9.15625 13.359375 C 9.074219 13.238281 9.054688 13.175781 9.066406 13.027344 C 9.082031 12.835938 9.230469 12.6875 9.417969 12.667969 C 9.566406 12.660156 9.660156 12.710938 9.886719 12.925781 C 10.488281 13.539062 11.277344 13.925781 12.125 14.023438 C 12.339844 14.050781 12.769531 14.035156 13.023438 13.996094 C 13.824219 13.863281 14.566406 13.488281 15.152344 12.921875 C 15.320312 12.761719 15.398438 12.71875 15.535156 12.71875 C 15.652344 12.71875 15.738281 12.757812 15.824219 12.851562 C 15.902344 12.9375 15.925781 13.019531 15.917969 13.15625 C 15.910156 13.238281 15.898438 13.277344 15.847656 13.363281 C 15.777344 13.480469 15.789062 13.496094 15.933594 13.4375 C 16.128906 13.359375 16.371094 13.394531 16.503906 13.523438 C 16.617188 13.632812 16.628906 13.742188 16.539062 13.890625 C 16.503906 13.945312 16.480469 13.996094 16.480469 14.007812 C 16.480469 14.023438 16.503906 14.027344 16.621094 14.050781 C 16.777344 14.074219 16.871094 14.191406 16.871094 14.371094 C 16.871094 14.425781 16.863281 14.46875 16.855469 14.46875 C 16.847656 14.46875 16.785156 14.445312 16.722656 14.417969 C 16.542969 14.34375 16.4375 14.324219 16.222656 14.328125 C 16.0625 14.328125 16.007812 14.335938 15.894531 14.371094 C 15.707031 14.4375 15.535156 14.539062 15.386719 14.675781 C 15.222656 14.824219 15.117188 14.871094 14.957031 14.871094 C 14.804688 14.871094 14.703125 14.828125 14.648438 14.738281 C 14.621094 14.691406 14.613281 14.664062 14.621094 14.558594 C 14.628906 14.488281 14.625 14.433594 14.621094 14.433594 C 14.613281 14.433594 14.558594 14.472656 14.492188 14.515625 C 14.34375 14.625 14.179688 14.710938 14.011719 14.777344 C 13.324219 15.027344 12.589844 15.117188 11.867188 15.035156 "/>
<path style=" stroke:none;fill-rule:nonzero;fill:rgb(81.176472%,6.666667%,14.901961%);fill-opacity:1;" d="M 12.144531 13.859375 C 11.125 13.765625 10.195312 13.230469 9.59375 12.390625 C 8.957031 11.511719 8.761719 10.355469 8.953125 9.296875 C 9.058594 8.8125 9.265625 8.332031 9.617188 7.988281 C 9.328125 8.597656 9.25 9.289062 9.390625 9.949219 C 9.625 11.261719 10.71875 12.375 12.027344 12.566406 C 12.550781 12.71875 13.082031 12.554688 13.578125 12.394531 C 14.671875 12.003906 15.503906 10.953125 15.605469 9.78125 C 15.691406 9.144531 15.597656 8.484375 15.3125 7.90625 C 15.472656 7.992188 15.675781 8.332031 15.796875 8.5625 C 16.214844 9.378906 16.230469 10.359375 15.988281 11.230469 C 15.652344 12.34375 14.816406 13.316406 13.707031 13.667969 C 13.203125 13.828125 12.675781 13.894531 12.144531 13.859375 Z M 12.144531 13.859375 "/>
<path style=" stroke:none;fill-rule:nonzero;fill:rgb(81.176472%,6.666667%,14.901961%);fill-opacity:1;" d="M 7.082031 12.398438 C 7.019531 12.390625 6.945312 12.457031 6.972656 12.523438 C 7.019531 12.59375 7.101562 12.628906 7.175781 12.660156 C 7.367188 12.738281 7.574219 12.769531 7.777344 12.757812 C 7.929688 12.757812 8.078125 12.730469 8.222656 12.675781 C 8.300781 12.652344 8.398438 12.625 8.429688 12.535156 C 8.464844 12.480469 8.402344 12.421875 8.347656 12.433594 C 8.269531 12.449219 8.191406 12.484375 8.113281 12.507812 C 7.941406 12.558594 7.765625 12.574219 7.585938 12.5625 C 7.457031 12.542969 7.332031 12.503906 7.210938 12.449219 C 7.167969 12.433594 7.128906 12.40625 7.082031 12.398438 "/>
<path style=" stroke:none;fill-rule:nonzero;fill:rgb(81.176472%,6.666667%,14.901961%);fill-opacity:1;" d="M 7.15625 12.125 C 7.089844 12.113281 7.035156 12.195312 7.058594 12.257812 C 7.113281 12.332031 7.199219 12.371094 7.277344 12.40625 C 7.417969 12.460938 7.570312 12.488281 7.722656 12.480469 L 7.761719 12.480469 C 7.890625 12.480469 8.015625 12.457031 8.136719 12.40625 C 8.207031 12.378906 8.292969 12.351562 8.324219 12.269531 C 8.347656 12.226562 8.332031 12.164062 8.273438 12.15625 C 8.226562 12.15625 8.183594 12.1875 8.136719 12.203125 C 7.964844 12.273438 7.78125 12.300781 7.597656 12.285156 C 7.484375 12.273438 7.378906 12.230469 7.273438 12.179688 C 7.234375 12.164062 7.199219 12.132812 7.15625 12.128906 Z M 7.15625 12.125 "/>
<path style=" stroke:none;fill-rule:nonzero;fill:rgb(81.176472%,6.666667%,14.901961%);fill-opacity:1;" d="M 7.246094 11.863281 C 7.191406 11.855469 7.152344 11.921875 7.160156 11.972656 C 7.167969 12.019531 7.207031 12.050781 7.242188 12.078125 C 7.382812 12.179688 7.554688 12.226562 7.726562 12.21875 L 7.769531 12.21875 C 7.875 12.21875 7.984375 12.191406 8.082031 12.144531 C 8.144531 12.117188 8.222656 12.082031 8.246094 12.007812 C 8.253906 11.972656 8.261719 11.921875 8.222656 11.902344 C 8.179688 11.878906 8.140625 11.914062 8.105469 11.929688 C 7.980469 11.996094 7.839844 12.03125 7.699219 12.03125 C 7.578125 12.027344 7.460938 11.988281 7.359375 11.925781 C 7.320312 11.90625 7.289062 11.871094 7.246094 11.863281 "/>
<path style=" stroke:none;fill-rule:nonzero;fill:rgb(81.176472%,6.666667%,14.901961%);fill-opacity:1;" d="M 6.289062 7.988281 C 6.207031 8.074219 6.269531 8.234375 6.261719 8.34375 C 6.308594 8.691406 6.363281 9.042969 6.492188 9.375 C 6.648438 9.691406 6.980469 9.863281 7.183594 10.144531 C 7.253906 10.277344 7.230469 10.441406 7.246094 10.59375 C 7.253906 10.996094 7.253906 11.402344 7.246094 11.804688 C 7.425781 11.902344 7.621094 11.992188 7.832031 11.957031 C 7.953125 11.929688 8.183594 11.910156 8.207031 11.785156 L 8.183594 9.6875 C 8.113281 9.472656 7.894531 9.363281 7.738281 9.226562 C 7.605469 9.09375 7.480469 8.949219 7.367188 8.800781 C 7.300781 8.683594 7.03125 8.640625 7.128906 8.84375 C 7.183594 9.019531 7.328125 9.148438 7.363281 9.332031 C 7.371094 9.4375 7.496094 9.625 7.390625 9.683594 C 7.324219 9.566406 7.230469 9.476562 7.113281 9.417969 C 6.996094 9.332031 6.808594 9.292969 6.765625 9.140625 C 6.726562 8.921875 6.628906 8.722656 6.480469 8.5625 C 6.519531 8.367188 6.480469 8.121094 6.3125 7.992188 Z M 6.289062 7.988281 "/>
<path style=" stroke:none;fill-rule:nonzero;fill:rgb(81.176472%,6.666667%,14.901961%);fill-opacity:1;" d="M 6.546875 8.027344 C 6.46875 8.039062 6.472656 8.136719 6.507812 8.191406 C 6.546875 8.304688 6.554688 8.425781 6.535156 8.542969 C 6.679688 8.707031 6.773438 8.902344 6.8125 9.117188 C 6.8125 9.195312 6.894531 9.222656 6.949219 9.261719 C 7.078125 9.34375 7.21875 9.40625 7.332031 9.507812 C 7.355469 9.535156 7.375 9.5625 7.359375 9.507812 C 7.339844 9.4375 7.332031 9.367188 7.28125 9.316406 C 7.207031 9.234375 7.121094 9.167969 7.015625 9.144531 C 7.007812 9.035156 6.957031 8.933594 6.910156 8.839844 C 6.855469 8.746094 6.800781 8.648438 6.714844 8.59375 C 6.714844 8.429688 6.714844 8.261719 6.644531 8.113281 C 6.625 8.074219 6.59375 8.03125 6.546875 8.027344 "/>
<path style=" stroke:none;fill-rule:nonzero;fill:rgb(81.176472%,6.666667%,14.901961%);fill-opacity:1;" d="M 6.761719 8.089844 C 6.710938 8.105469 6.722656 8.175781 6.738281 8.214844 C 6.761719 8.328125 6.769531 8.445312 6.761719 8.5625 C 6.863281 8.640625 6.925781 8.757812 6.980469 8.871094 C 7.019531 8.941406 7.046875 9.023438 7.0625 9.105469 C 7.144531 9.128906 7.214844 9.183594 7.277344 9.234375 C 7.25 9.164062 7.199219 9.105469 7.160156 9.03125 C 7.121094 8.960938 7.082031 8.886719 7.0625 8.804688 C 6.984375 8.722656 6.941406 8.601562 6.957031 8.488281 C 6.964844 8.363281 6.925781 8.234375 6.839844 8.136719 C 6.820312 8.117188 6.792969 8.09375 6.761719 8.089844 "/>
<path style=" stroke:none;fill-rule:nonzero;fill:rgb(81.176472%,6.666667%,14.901961%);fill-opacity:1;" d="M 7.011719 8.128906 C 6.980469 8.132812 6.964844 8.160156 6.949219 8.183594 C 6.941406 8.207031 6.96875 8.230469 6.972656 8.257812 C 7.007812 8.34375 7.019531 8.4375 7.011719 8.53125 C 7.011719 8.601562 7.027344 8.660156 7.0625 8.714844 C 7.074219 8.675781 7.109375 8.644531 7.152344 8.640625 C 7.167969 8.640625 7.191406 8.648438 7.179688 8.625 C 7.171875 8.496094 7.148438 8.371094 7.105469 8.253906 C 7.09375 8.207031 7.066406 8.167969 7.035156 8.136719 C 7.027344 8.128906 7.019531 8.125 7.007812 8.128906 Z M 7.011719 8.128906 "/>
<path style=" stroke:none;fill-rule:nonzero;fill:rgb(81.176472%,6.666667%,14.901961%);fill-opacity:1;" d="M 17.917969 12.398438 C 17.980469 12.390625 18.054688 12.457031 18.027344 12.523438 C 17.980469 12.59375 17.898438 12.628906 17.824219 12.660156 C 17.632812 12.738281 17.425781 12.769531 17.222656 12.757812 C 17.070312 12.757812 16.921875 12.730469 16.777344 12.675781 C 16.699219 12.652344 16.601562 12.625 16.570312 12.535156 C 16.535156 12.480469 16.597656 12.421875 16.652344 12.433594 C 16.730469 12.449219 16.808594 12.484375 16.886719 12.507812 C 17.058594 12.558594 17.234375 12.574219 17.414062 12.5625 C 17.542969 12.542969 17.667969 12.503906 17.789062 12.449219 C 17.832031 12.433594 17.871094 12.40625 17.917969 12.398438 "/>
<path style=" stroke:none;fill-rule:nonzero;fill:rgb(81.176472%,6.666667%,14.901961%);fill-opacity:1;" d="M 17.84375 12.125 C 17.910156 12.113281 17.964844 12.195312 17.941406 12.257812 C 17.886719 12.332031 17.800781 12.371094 17.722656 12.40625 C 17.582031 12.460938 17.429688 12.488281 17.277344 12.480469 L 17.238281 12.480469 C 17.109375 12.480469 16.984375 12.457031 16.863281 12.40625 C 16.792969 12.378906 16.707031 12.351562 16.675781 12.269531 C 16.652344 12.226562 16.667969 12.164062 16.726562 12.15625 C 16.773438 12.15625 16.816406 12.1875 16.863281 12.203125 C 17.035156 12.273438 17.21875 12.300781 17.402344 12.285156 C 17.515625 12.273438 17.621094 12.230469 17.726562 12.179688 C 17.765625 12.164062 17.800781 12.132812 17.84375 12.128906 Z M 17.84375 12.125 "/>
<path style=" stroke:none;fill-rule:nonzero;fill:rgb(81.176472%,6.666667%,14.901961%);fill-opacity:1;" d="M 17.753906 11.863281 C 17.808594 11.855469 17.847656 11.921875 17.839844 11.972656 C 17.832031 12.019531 17.792969 12.050781 17.757812 12.078125 C 17.617188 12.179688 17.445312 12.226562 17.273438 12.21875 L 17.230469 12.21875 C 17.125 12.21875 17.015625 12.191406 16.917969 12.144531 C 16.855469 12.117188 16.777344 12.082031 16.753906 12.007812 C 16.746094 11.972656 16.738281 11.921875 16.777344 11.902344 C 16.820312 11.878906 16.859375 11.914062 16.894531 11.929688 C 17.019531 11.996094 17.160156 12.03125 17.300781 12.03125 C 17.421875 12.027344 17.539062 11.988281 17.640625 11.925781 C 17.679688 11.90625 17.710938 11.871094 17.753906 11.863281 "/>
<path style=" stroke:none;fill-rule:nonzero;fill:rgb(81.176472%,6.666667%,14.901961%);fill-opacity:1;" d="M 18.710938 7.988281 C 18.792969 8.074219 18.730469 8.234375 18.738281 8.34375 C 18.691406 8.691406 18.636719 9.042969 18.507812 9.375 C 18.351562 9.691406 18.019531 9.863281 17.816406 10.144531 C 17.746094 10.277344 17.769531 10.441406 17.753906 10.59375 C 17.746094 10.996094 17.746094 11.402344 17.753906 11.804688 C 17.574219 11.902344 17.378906 11.992188 17.167969 11.957031 C 17.046875 11.929688 16.816406 11.910156 16.792969 11.785156 L 16.816406 9.6875 C 16.886719 9.472656 17.105469 9.363281 17.261719 9.226562 C 17.394531 9.09375 17.519531 8.949219 17.632812 8.800781 C 17.699219 8.683594 17.96875 8.640625 17.871094 8.84375 C 17.816406 9.019531 17.671875 9.148438 17.636719 9.332031 C 17.628906 9.4375 17.503906 9.625 17.609375 9.683594 C 17.675781 9.566406 17.769531 9.476562 17.886719 9.417969 C 18.003906 9.332031 18.191406 9.292969 18.234375 9.140625 C 18.273438 8.921875 18.371094 8.722656 18.519531 8.5625 C 18.480469 8.367188 18.519531 8.121094 18.6875 7.992188 Z M 18.710938 7.988281 "/>
<path style=" stroke:none;fill-rule:nonzero;fill:rgb(81.176472%,6.666667%,14.901961%);fill-opacity:1;" d="M 18.453125 8.027344 C 18.53125 8.039062 18.527344 8.136719 18.492188 8.191406 C 18.453125 8.304688 18.445312 8.425781 18.464844 8.542969 C 18.320312 8.707031 18.226562 8.902344 18.1875 9.117188 C 18.1875 9.195312 18.105469 9.222656 18.050781 9.261719 C 17.921875 9.34375 17.78125 9.40625 17.667969 9.507812 C 17.644531 9.535156 17.625 9.5625 17.640625 9.507812 C 17.660156 9.4375 17.667969 9.367188 17.71875 9.316406 C 17.792969 9.234375 17.878906 9.167969 17.984375 9.144531 C 17.992188 9.035156 18.042969 8.933594 18.089844 8.839844 C 18.144531 8.746094 18.199219 8.648438 18.285156 8.59375 C 18.285156 8.429688 18.285156 8.261719 18.355469 8.113281 C 18.375 8.074219 18.40625 8.03125 18.453125 8.027344 "/>
<path style=" stroke:none;fill-rule:nonzero;fill:rgb(81.176472%,6.666667%,14.901961%);fill-opacity:1;" d="M 18.238281 8.089844 C 18.289062 8.105469 18.277344 8.175781 18.261719 8.214844 C 18.242188 8.328125 18.230469 8.445312 18.238281 8.5625 C 18.136719 8.640625 18.074219 8.757812 18.019531 8.871094 C 17.980469 8.941406 17.953125 9.023438 17.9375 9.105469 C 17.855469 9.128906 17.785156 9.183594 17.722656 9.234375 C 17.75 9.164062 17.800781 9.105469 17.839844 9.03125 C 17.878906 8.960938 17.917969 8.886719 17.9375 8.804688 C 18.015625 8.722656 18.058594 8.601562 18.042969 8.488281 C 18.035156 8.363281 18.074219 8.234375 18.160156 8.136719 C 18.179688 8.117188 18.207031 8.09375 18.238281 8.089844 "/>
<path style=" stroke:none;fill-rule:nonzero;fill:rgb(81.176472%,6.666667%,14.901961%);fill-opacity:1;" d="M 17.988281 8.128906 C 18.019531 8.132812 18.035156 8.160156 18.050781 8.183594 C 18.058594 8.207031 18.03125 8.230469 18.027344 8.257812 C 17.992188 8.34375 17.980469 8.4375 17.988281 8.53125 C 17.988281 8.601562 17.972656 8.660156 17.9375 8.714844 C 17.925781 8.675781 17.890625 8.644531 17.847656 8.640625 C 17.832031 8.640625 17.808594 8.648438 17.820312 8.625 C 17.828125 8.496094 17.851562 8.371094 17.894531 8.253906 C 17.90625 8.207031 17.933594 8.167969 17.964844 8.136719 C 17.972656 8.128906 17.980469 8.125 17.992188 8.128906 Z M 17.988281 8.128906 "/>
<path style=" stroke:none;fill-rule:nonzero;fill:rgb(81.176472%,6.666667%,14.901961%);fill-opacity:1;" d="M 12.386719 12.5625 C 12.03125 12.519531 11.726562 12.273438 11.609375 11.929688 C 11.617188 11.871094 11.6875 11.960938 11.722656 11.96875 C 11.785156 12.003906 11.855469 12.027344 11.929688 12.035156 C 12.019531 12.074219 12.078125 12.167969 12.167969 12.21875 C 12.207031 12.25 12.355469 12.3125 12.324219 12.210938 C 12.292969 12.15625 12.269531 12.089844 12.300781 12.027344 C 12.347656 11.917969 12.421875 11.824219 12.5 11.730469 C 12.554688 11.710938 12.59375 11.824219 12.632812 11.863281 C 12.6875 11.949219 12.753906 12.054688 12.722656 12.160156 C 12.691406 12.199219 12.667969 12.320312 12.753906 12.28125 C 12.859375 12.234375 12.945312 12.15625 13.03125 12.082031 C 13.109375 12.027344 13.207031 12.027344 13.285156 11.976562 C 13.324219 11.96875 13.398438 11.894531 13.414062 11.933594 C 13.367188 12.050781 13.300781 12.160156 13.222656 12.257812 C 13.097656 12.410156 12.921875 12.511719 12.730469 12.546875 C 12.617188 12.566406 12.503906 12.570312 12.386719 12.5625 "/>
<path style=" stroke:none;fill-rule:nonzero;fill:rgb(81.176472%,6.666667%,14.901961%);fill-opacity:1;" d="M 12.800781 12.144531 C 12.804688 12.074219 12.792969 12.003906 12.753906 11.933594 C 12.699219 11.824219 12.628906 11.71875 12.546875 11.617188 C 12.472656 11.578125 12.433594 11.714844 12.386719 11.757812 C 12.3125 11.871094 12.21875 11.984375 12.214844 12.125 C 12.171875 12.191406 12.09375 12.074219 12.058594 12.035156 C 11.992188 11.941406 11.953125 11.832031 11.957031 11.714844 C 11.949219 11.53125 11.980469 11.347656 12.050781 11.171875 C 12.101562 11.023438 12.183594 10.882812 12.175781 10.722656 C 12.179688 10.601562 12.15625 10.46875 12.058594 10.386719 C 11.964844 10.3125 12.121094 10.296875 12.167969 10.332031 C 12.25 10.34375 12.292969 10.480469 12.371094 10.445312 C 12.398438 10.375 12.40625 10.285156 12.46875 10.230469 C 12.527344 10.148438 12.589844 10.265625 12.613281 10.324219 C 12.65625 10.371094 12.613281 10.496094 12.679688 10.496094 C 12.761719 10.4375 12.824219 10.339844 12.929688 10.316406 C 12.972656 10.289062 13.046875 10.316406 12.988281 10.363281 C 12.910156 10.441406 12.84375 10.53125 12.828125 10.644531 C 12.804688 10.785156 12.839844 10.925781 12.898438 11.050781 C 13.015625 11.300781 13.105469 11.578125 13.046875 11.855469 C 13.019531 11.976562 12.9375 12.082031 12.839844 12.15625 C 12.824219 12.164062 12.804688 12.164062 12.800781 12.144531 "/>
<path style=" stroke:none;fill-rule:nonzero;fill:rgb(81.176472%,6.666667%,14.901961%);fill-opacity:1;" d="M 12.675781 10.28125 C 12.640625 10.210938 12.589844 10.148438 12.527344 10.097656 C 12.464844 10.097656 12.425781 10.175781 12.386719 10.21875 C 12.355469 10.273438 12.320312 10.367188 12.246094 10.292969 C 12.128906 10.226562 12.113281 10.074219 12.113281 9.953125 C 12.105469 9.75 12.183594 9.5625 12.253906 9.382812 C 12.300781 9.269531 12.289062 9.136719 12.261719 9.023438 C 12.226562 8.890625 12.121094 8.796875 12.039062 8.691406 C 12.042969 8.648438 12.148438 8.671875 12.1875 8.679688 C 12.277344 8.703125 12.328125 8.78125 12.394531 8.835938 C 12.441406 8.820312 12.417969 8.726562 12.441406 8.683594 C 12.441406 8.617188 12.527344 8.535156 12.558594 8.625 C 12.613281 8.683594 12.558594 8.796875 12.625 8.832031 C 12.6875 8.808594 12.71875 8.738281 12.777344 8.707031 C 12.835938 8.667969 12.914062 8.664062 12.980469 8.695312 C 13.003906 8.753906 12.910156 8.800781 12.886719 8.855469 C 12.777344 8.984375 12.742188 9.164062 12.785156 9.328125 C 12.824219 9.460938 12.886719 9.578125 12.910156 9.710938 C 12.9375 9.863281 12.933594 10.015625 12.894531 10.164062 C 12.871094 10.253906 12.796875 10.3125 12.71875 10.351562 C 12.703125 10.332031 12.6875 10.308594 12.675781 10.28125 "/>
<path style=" stroke:none;fill-rule:nonzero;fill:rgb(81.176472%,6.666667%,14.901961%);fill-opacity:1;" d="M 12.28125 8.625 C 12.191406 8.5625 12.164062 8.5 12.164062 8.375 C 12.164062 8.316406 12.175781 8.28125 12.214844 8.222656 C 12.277344 8.140625 12.265625 8.109375 12.183594 8.136719 C 12.046875 8.175781 11.976562 8.136719 11.972656 8.023438 C 11.972656 7.964844 11.984375 7.941406 12.058594 7.84375 C 12.121094 7.773438 12.148438 7.730469 12.132812 7.71875 C 12.121094 7.707031 12.042969 7.773438 11.898438 7.925781 C 11.804688 8.023438 11.707031 8.117188 11.601562 8.203125 C 11.347656 8.378906 11.101562 8.40625 10.988281 8.269531 C 10.933594 8.203125 10.933594 8.164062 11 8.121094 C 11.042969 8.09375 11.078125 8.0625 11.113281 8.023438 C 11.242188 7.90625 11.382812 7.804688 11.535156 7.71875 C 11.628906 7.667969 11.648438 7.640625 11.589844 7.640625 C 11.511719 7.640625 11.261719 7.804688 11.074219 7.976562 C 11.019531 8.03125 10.9375 8.089844 10.894531 8.109375 C 10.78125 8.152344 10.65625 8.160156 10.535156 8.136719 C 10.476562 8.117188 10.371094 8.015625 10.371094 7.980469 C 10.371094 7.972656 10.394531 7.949219 10.421875 7.933594 C 10.464844 7.910156 10.503906 7.878906 10.542969 7.847656 C 10.691406 7.714844 10.980469 7.578125 11.207031 7.527344 C 11.277344 7.511719 11.25 7.472656 11.167969 7.480469 C 10.929688 7.523438 10.707031 7.632812 10.519531 7.789062 C 10.300781 7.96875 9.976562 7.949219 9.871094 7.753906 C 9.855469 7.71875 9.839844 7.6875 9.847656 7.683594 C 10.03125 7.632812 10.210938 7.566406 10.378906 7.476562 C 10.523438 7.390625 10.683594 7.332031 10.847656 7.304688 C 10.921875 7.292969 10.925781 7.253906 10.855469 7.246094 C 10.761719 7.234375 10.621094 7.285156 10.375 7.40625 C 10.054688 7.566406 9.964844 7.59375 9.796875 7.585938 C 9.640625 7.574219 9.554688 7.535156 9.433594 7.414062 C 9.347656 7.335938 9.234375 7.136719 9.253906 7.113281 C 9.390625 7.144531 9.527344 7.15625 9.667969 7.148438 C 9.882812 7.148438 9.941406 7.144531 10.058594 7.109375 C 10.28125 7.039062 10.492188 6.929688 10.683594 6.789062 C 10.949219 6.5625 11.289062 6.433594 11.640625 6.429688 C 11.964844 6.429688 12.167969 6.503906 12.347656 6.691406 C 12.410156 6.753906 12.464844 6.796875 12.472656 6.789062 C 12.480469 6.78125 12.488281 6.667969 12.488281 6.542969 C 12.488281 6.542969 12.585938 6.53125 12.605469 6.558594 C 12.605469 6.761719 12.605469 6.78125 12.636719 6.78125 C 12.660156 6.78125 12.675781 6.761719 12.691406 6.730469 C 12.714844 6.664062 12.820312 6.570312 12.929688 6.511719 C 13.164062 6.394531 13.574219 6.390625 13.902344 6.503906 C 14.058594 6.566406 14.203125 6.648438 14.335938 6.753906 C 14.527344 6.890625 14.738281 7 14.960938 7.070312 C 15.136719 7.125 15.457031 7.136719 15.613281 7.097656 L 15.753906 7.070312 C 15.816406 7.070312 15.714844 7.273438 15.59375 7.390625 C 15.375 7.609375 15.089844 7.605469 14.691406 7.390625 C 14.441406 7.25 14.144531 7.179688 14.144531 7.25 C 14.144531 7.269531 14.160156 7.277344 14.183594 7.277344 C 14.273438 7.277344 14.433594 7.335938 14.671875 7.449219 C 14.820312 7.535156 14.980469 7.59375 15.148438 7.621094 C 15.210938 7.621094 15.210938 7.664062 15.152344 7.746094 C 15.09375 7.832031 14.992188 7.878906 14.847656 7.878906 C 14.710938 7.878906 14.632812 7.847656 14.511719 7.746094 C 14.300781 7.570312 13.792969 7.375 13.808594 7.480469 C 13.8125 7.5 13.839844 7.511719 13.894531 7.519531 C 14.113281 7.570312 14.320312 7.667969 14.496094 7.8125 L 14.648438 7.925781 C 14.675781 7.941406 14.675781 7.945312 14.652344 7.992188 C 14.617188 8.066406 14.519531 8.121094 14.414062 8.128906 C 14.28125 8.148438 14.15625 8.105469 14.035156 8 C 13.777344 7.78125 13.535156 7.621094 13.457031 7.621094 C 13.390625 7.621094 13.417969 7.65625 13.535156 7.71875 C 13.683594 7.796875 13.820312 7.894531 13.945312 8.007812 C 13.996094 8.058594 14.058594 8.105469 14.074219 8.117188 C 14.125 8.144531 14.121094 8.179688 14.070312 8.25 C 14.019531 8.316406 13.929688 8.347656 13.816406 8.335938 C 13.59375 8.3125 13.417969 8.203125 13.140625 7.914062 C 13.074219 7.839844 13.003906 7.769531 12.925781 7.707031 C 12.890625 7.710938 12.910156 7.753906 12.984375 7.839844 C 13.074219 7.9375 13.089844 7.992188 13.054688 8.078125 C 13.027344 8.144531 12.976562 8.164062 12.878906 8.136719 C 12.773438 8.109375 12.757812 8.136719 12.824219 8.21875 C 12.925781 8.347656 12.910156 8.5 12.785156 8.609375 C 12.761719 8.632812 12.730469 8.652344 12.699219 8.667969 C 12.683594 8.667969 12.664062 8.644531 12.636719 8.605469 C 12.5625 8.484375 12.488281 8.484375 12.410156 8.605469 L 12.359375 8.683594 Z M 12.28125 8.625 "/>
<path style=" stroke:none;fill-rule:nonzero;fill:rgb(81.176472%,6.666667%,14.901961%);fill-opacity:1;" d="M 12.675781 6.148438 L 12.539062 6.253906 L 12.417969 6.164062 L 12.417969 6.898438 L 12.675781 6.898438 Z M 12.675781 6.148438 "/>
<path style=" stroke:none;fill-rule:nonzero;fill:rgb(81.176472%,6.666667%,14.901961%);fill-opacity:1;" d="M 11.847656 5.390625 C 11.824219 5.6875 11.742188 5.976562 11.613281 6.242188 L 11.902344 5.972656 L 12.101562 6.214844 L 12.320312 5.964844 L 12.542969 6.175781 L 12.753906 5.957031 L 12.976562 6.222656 L 13.167969 6.007812 L 13.496094 6.242188 C 13.378906 5.980469 13.21875 5.753906 13.238281 5.378906 C 12.921875 5.617188 12.167969 5.65625 11.847656 5.386719 Z M 11.847656 5.390625 "/>
<path style=" stroke:none;fill-rule:nonzero;fill:rgb(81.176472%,6.666667%,14.901961%);fill-opacity:1;" d="M 12.421875 5.214844 C 12.300781 5.210938 12.183594 5.21875 12.074219 5.242188 C 12 5.253906 11.929688 5.28125 11.871094 5.320312 C 11.878906 5.546875 12.9375 5.640625 13.222656 5.324219 C 13.15625 5.28125 13.085938 5.25 13.007812 5.238281 C 12.902344 5.21875 12.785156 5.21875 12.671875 5.210938 L 12.671875 5.398438 L 12.421875 5.398438 Z M 12.421875 5.214844 "/>
<path style=" stroke:none;fill-rule:nonzero;fill:rgb(81.176472%,6.666667%,14.901961%);fill-opacity:1;" d="M 12.628906 4.0625 L 12.464844 4.0625 L 12.464844 5.367188 L 12.628906 5.367188 Z M 12.628906 4.0625 "/>
<path style=" stroke:none;fill-rule:nonzero;fill:rgb(81.176472%,6.666667%,14.901961%);fill-opacity:1;" d="M 12.628906 4.09375 L 12.566406 4.722656 L 13.199219 5.035156 L 12.878906 4.597656 L 13.316406 4.453125 Z M 12.558594 3.933594 C 12.460938 3.933594 12.390625 3.972656 12.390625 4.015625 C 12.390625 4.054688 12.460938 4.09375 12.558594 4.09375 C 12.652344 4.09375 12.722656 4.054688 12.722656 4.015625 C 12.722656 3.972656 12.652344 3.933594 12.558594 3.933594 "/>
<path style=" stroke:none;fill-rule:nonzero;fill:rgb(96.862745%,87.843138%,9.019608%);fill-opacity:1;" d="M 12.265625 14.878906 C 12.363281 14.851562 12.433594 14.777344 12.472656 14.65625 C 12.492188 14.59375 12.507812 14.53125 12.503906 14.515625 C 12.496094 14.476562 12.449219 14.476562 12.402344 14.519531 C 12.367188 14.546875 12.363281 14.5625 12.371094 14.621094 C 12.398438 14.769531 12.34375 14.808594 12.070312 14.835938 C 12.042969 14.835938 11.960938 14.835938 11.894531 14.824219 C 11.761719 14.808594 11.71875 14.820312 11.761719 14.863281 L 11.84375 14.898438 C 11.917969 14.917969 12.1875 14.90625 12.265625 14.878906 M 12.839844 14.855469 C 12.855469 14.839844 12.90625 14.816406 12.957031 14.796875 C 13.019531 14.78125 13.0625 14.75 13.085938 14.710938 C 13.167969 14.589844 13.152344 14.484375 13.035156 14.339844 C 12.96875 14.261719 12.941406 14.265625 12.890625 14.351562 C 12.84375 14.425781 12.847656 14.433594 12.910156 14.449219 C 12.945312 14.457031 12.972656 14.480469 12.992188 14.511719 C 13.0625 14.636719 13.042969 14.703125 12.9375 14.710938 C 12.84375 14.710938 12.820312 14.726562 12.792969 14.789062 L 12.769531 14.863281 C 12.769531 14.886719 12.808594 14.882812 12.839844 14.855469 M 12.652344 14.71875 C 12.667969 14.664062 12.675781 14.578125 12.671875 14.402344 C 12.675781 14.316406 12.671875 14.230469 12.660156 14.148438 C 12.644531 14.132812 12.570312 14.179688 12.558594 14.214844 C 12.554688 14.242188 12.5625 14.273438 12.578125 14.296875 C 12.601562 14.34375 12.605469 14.390625 12.597656 14.574219 C 12.585938 14.808594 12.601562 14.855469 12.652344 14.71875 "/>
<path style=" stroke:none;fill-rule:nonzero;fill:rgb(96.862745%,87.843138%,9.019608%);fill-opacity:1;" d="M 12.210938 14.605469 L 12.238281 14.410156 C 12.242188 14.339844 12.257812 14.257812 12.265625 14.222656 C 12.292969 14.128906 12.269531 14.109375 12.195312 14.160156 L 12.144531 14.199219 L 12.152344 14.328125 C 12.164062 14.449219 12.144531 14.664062 12.117188 14.753906 C 12.109375 14.777344 12.121094 14.769531 12.152344 14.734375 C 12.175781 14.707031 12.203125 14.644531 12.210938 14.601562 Z M 11.820312 14.667969 C 11.914062 14.589844 11.902344 14.449219 11.925781 14.335938 C 11.925781 14.261719 11.972656 14.175781 11.941406 14.109375 C 11.851562 14.125 11.796875 14.210938 11.84375 14.292969 C 11.84375 14.390625 11.84375 14.5 11.792969 14.585938 C 11.753906 14.644531 11.621094 14.628906 11.628906 14.546875 C 11.660156 14.429688 11.515625 14.488281 11.460938 14.519531 C 11.417969 14.550781 11.324219 14.554688 11.359375 14.480469 C 11.335938 14.371094 11.207031 14.441406 11.136719 14.441406 C 11.070312 14.441406 11.132812 14.300781 11.035156 14.320312 C 10.859375 14.308594 10.664062 14.324219 10.507812 14.21875 C 10.417969 14.175781 10.429688 14.0625 10.480469 13.992188 C 10.535156 13.898438 10.550781 13.773438 10.636719 13.699219 C 10.726562 13.617188 10.558594 13.652344 10.519531 13.679688 C 10.433594 13.726562 10.511719 13.851562 10.441406 13.917969 C 10.402344 13.988281 10.347656 14.082031 10.253906 14.070312 C 10.117188 14.042969 10.039062 13.914062 9.941406 13.835938 C 9.855469 13.816406 9.902344 13.96875 9.949219 14 C 10.035156 14.066406 10.132812 14.113281 10.238281 14.144531 C 10.339844 14.125 10.34375 14.261719 10.433594 14.28125 C 10.589844 14.359375 10.769531 14.378906 10.945312 14.390625 C 11.015625 14.394531 10.976562 14.523438 11.066406 14.496094 C 11.117188 14.511719 11.234375 14.476562 11.238281 14.535156 C 11.160156 14.628906 11.3125 14.625 11.367188 14.613281 C 11.441406 14.597656 11.53125 14.574219 11.550781 14.667969 C 11.609375 14.738281 11.71875 14.726562 11.792969 14.6875 Z M 11.820312 14.667969 "/>
<path style=" stroke:none;fill-rule:nonzero;fill:rgb(96.862745%,87.843138%,9.019608%);fill-opacity:1;" d="M 10.265625 13.871094 C 10.300781 13.816406 10.332031 13.761719 10.359375 13.703125 C 10.378906 13.652344 10.40625 13.605469 10.4375 13.5625 C 10.480469 13.507812 10.460938 13.488281 10.382812 13.496094 C 10.347656 13.503906 10.328125 13.523438 10.324219 13.558594 C 10.308594 13.65625 10.273438 13.746094 10.226562 13.835938 C 10.160156 13.933594 10.160156 13.9375 10.1875 13.9375 C 10.203125 13.933594 10.230469 13.910156 10.265625 13.871094 M 9.289062 13.25 C 9.214844 13.25 9.210938 13.296875 9.28125 13.320312 C 9.316406 13.332031 9.347656 13.359375 9.371094 13.410156 C 9.4375 13.550781 9.480469 13.578125 9.664062 13.59375 L 9.78125 13.601562 L 9.789062 13.675781 C 9.792969 13.722656 9.796875 13.746094 9.808594 13.746094 L 9.910156 13.707031 C 9.996094 13.660156 10.078125 13.558594 10.078125 13.488281 C 10.078125 13.449219 10.007812 13.402344 9.945312 13.402344 C 9.917969 13.402344 9.867188 13.425781 9.824219 13.457031 C 9.691406 13.554688 9.550781 13.539062 9.472656 13.410156 C 9.414062 13.304688 9.351562 13.253906 9.289062 13.253906 Z M 9.925781 13.503906 C 9.960938 13.503906 9.96875 13.53125 9.949219 13.585938 C 9.945312 13.597656 9.929688 13.609375 9.914062 13.609375 C 9.902344 13.609375 9.886719 13.597656 9.882812 13.585938 C 9.867188 13.546875 9.886719 13.503906 9.921875 13.503906 Z M 14.867188 13.347656 C 14.816406 13.347656 14.804688 13.355469 14.773438 13.402344 C 14.722656 13.476562 14.71875 13.640625 14.765625 13.695312 C 14.792969 13.730469 14.796875 13.730469 14.855469 13.703125 C 14.941406 13.667969 14.957031 13.671875 14.953125 13.714844 C 14.953125 13.835938 14.789062 14.058594 14.617188 14.179688 C 14.582031 14.199219 14.550781 14.226562 14.523438 14.257812 C 14.511719 14.289062 14.574219 14.285156 14.652344 14.242188 C 14.78125 14.167969 14.886719 14.058594 14.960938 13.925781 C 15.003906 13.835938 15.011719 13.808594 15.019531 13.648438 C 15.019531 13.496094 15.019531 13.449219 14.996094 13.402344 C 14.964844 13.347656 14.957031 13.34375 14.886719 13.34375 L 14.867188 13.34375 Z M 14.871094 13.445312 C 14.910156 13.445312 14.910156 13.453125 14.917969 13.511719 C 14.921875 13.546875 14.910156 13.578125 14.890625 13.601562 C 14.859375 13.628906 14.851562 13.628906 14.828125 13.585938 C 14.789062 13.523438 14.8125 13.445312 14.871094 13.445312 M 14.082031 14.574219 C 14.234375 14.496094 14.324219 14.414062 14.378906 14.289062 L 14.429688 14.167969 C 14.429688 14.144531 14.355469 14.109375 14.3125 14.109375 C 14.269531 14.109375 14.257812 14.074219 14.273438 13.988281 C 14.292969 13.90625 14.273438 13.796875 14.234375 13.796875 C 14.214844 13.800781 14.199219 13.816406 14.183594 13.84375 C 14.160156 13.882812 14.15625 13.898438 14.175781 13.949219 C 14.203125 14.027344 14.179688 14.09375 14.109375 14.144531 C 14.074219 14.167969 14.058594 14.195312 14.058594 14.222656 L 14.0625 14.261719 L 14.144531 14.222656 L 14.222656 14.175781 L 14.265625 14.214844 C 14.292969 14.234375 14.308594 14.257812 14.3125 14.28125 C 14.3125 14.375 14.046875 14.535156 13.867188 14.550781 C 13.769531 14.558594 13.75 14.550781 13.71875 14.519531 C 13.691406 14.492188 13.683594 14.464844 13.691406 14.441406 L 13.710938 14.335938 C 13.722656 14.257812 13.699219 14.265625 13.632812 14.359375 C 13.585938 14.441406 13.570312 14.523438 13.597656 14.566406 C 13.621094 14.605469 13.769531 14.636719 13.878906 14.628906 C 13.945312 14.628906 14.011719 14.613281 14.082031 14.574219 M 15.097656 14 C 15.191406 13.902344 15.234375 13.78125 15.234375 13.605469 L 15.234375 13.464844 L 15.3125 13.425781 C 15.417969 13.378906 15.515625 13.28125 15.515625 13.226562 C 15.515625 13.167969 15.492188 13.171875 15.445312 13.234375 C 15.410156 13.277344 15.367188 13.304688 15.210938 13.378906 C 15.171875 13.394531 15.167969 13.40625 15.15625 13.578125 C 15.148438 13.773438 15.117188 13.847656 15.011719 13.980469 C 14.945312 14.058594 14.941406 14.074219 14.988281 14.074219 C 15.007812 14.074219 15.058594 14.039062 15.097656 13.996094 Z M 14.054688 13.890625 C 14.0625 13.863281 14.007812 13.84375 13.988281 13.867188 C 13.976562 13.875 13.972656 13.886719 13.980469 13.902344 C 13.996094 13.925781 14.042969 13.917969 14.054688 13.890625 M 15.492188 13.515625 C 15.503906 13.480469 15.449219 13.460938 15.425781 13.484375 C 15.414062 13.5 15.414062 13.511719 15.421875 13.527344 C 15.4375 13.550781 15.484375 13.542969 15.492188 13.515625 M 13.761719 12.488281 C 13.726562 12.515625 13.699219 12.546875 13.679688 12.578125 C 13.660156 12.589844 13.675781 12.601562 13.683594 12.621094 C 13.75 12.6875 13.777344 12.785156 13.808594 12.875 C 13.839844 12.984375 13.878906 13.097656 13.847656 13.207031 C 13.835938 13.25 13.800781 13.292969 13.753906 13.28125 C 13.675781 13.277344 13.597656 13.253906 13.519531 13.253906 C 13.445312 13.257812 13.390625 13.324219 13.320312 13.316406 C 13.273438 13.316406 13.273438 13.222656 13.234375 13.25 C 13.210938 13.300781 13.222656 13.355469 13.21875 13.40625 C 13.230469 13.414062 13.246094 13.417969 13.261719 13.414062 L 13.40625 13.414062 C 13.414062 13.460938 13.414062 13.523438 13.445312 13.5625 C 13.496094 13.570312 13.550781 13.566406 13.601562 13.542969 C 13.648438 13.519531 13.65625 13.457031 13.671875 13.410156 C 13.6875 13.359375 13.75 13.371094 13.789062 13.351562 C 13.882812 13.316406 13.945312 13.226562 13.945312 13.125 C 13.9375 12.972656 13.882812 12.832031 13.835938 12.691406 C 13.816406 12.625 13.796875 12.558594 13.777344 12.496094 Z M 13.527344 13.351562 C 13.578125 13.351562 13.601562 13.414062 13.589844 13.457031 C 13.570312 13.519531 13.496094 13.480469 13.484375 13.4375 C 13.457031 13.398438 13.472656 13.347656 13.523438 13.351562 Z M 13.527344 13.351562 "/>
<path style=" stroke:none;fill-rule:nonzero;fill:rgb(96.862745%,87.843138%,9.019608%);fill-opacity:1;" d="M 11.5625 12.855469 C 11.535156 12.855469 11.511719 12.867188 11.484375 12.882812 C 11.347656 12.984375 11.308594 13.097656 11.40625 13.144531 C 11.472656 13.175781 11.453125 13.21875 11.347656 13.273438 C 11.191406 13.351562 11.054688 13.339844 10.792969 13.234375 C 10.734375 13.207031 10.710938 13.21875 10.726562 13.273438 C 10.742188 13.332031 10.796875 13.363281 10.925781 13.390625 C 11.066406 13.429688 11.238281 13.417969 11.347656 13.371094 C 11.410156 13.339844 11.46875 13.292969 11.515625 13.238281 L 11.601562 13.144531 L 11.699219 13.15625 C 11.820312 13.171875 11.824219 13.171875 11.824219 13.234375 C 11.824219 13.28125 11.824219 13.28125 11.9375 13.292969 L 12.121094 13.300781 C 12.171875 13.300781 12.203125 13.3125 12.214844 13.335938 C 12.238281 13.363281 12.25 13.367188 12.433594 13.351562 C 12.605469 13.335938 12.636719 13.335938 12.714844 13.363281 C 12.773438 13.378906 12.828125 13.386719 12.875 13.382812 C 13.007812 13.367188 13.1875 13.261719 13.214844 13.179688 C 13.214844 13.167969 13.265625 13.152344 13.320312 13.140625 C 13.449219 13.113281 13.457031 13.089844 13.335938 13.070312 C 13.273438 13.0625 13.214844 13.046875 13.15625 13.027344 C 13.113281 13.007812 13.066406 12.996094 13.019531 12.992188 C 12.953125 12.992188 12.890625 13.03125 12.890625 13.078125 C 12.890625 13.105469 12.898438 13.109375 12.980469 13.101562 C 13.050781 13.09375 13.074219 13.097656 13.113281 13.128906 C 13.140625 13.152344 13.15625 13.171875 13.152344 13.179688 C 13.132812 13.214844 12.976562 13.285156 12.910156 13.296875 C 12.871094 13.300781 12.828125 13.296875 12.792969 13.277344 C 12.730469 13.246094 12.644531 13.242188 12.625 13.269531 C 12.617188 13.277344 12.601562 13.273438 12.574219 13.25 L 12.535156 13.207031 L 12.441406 13.25 C 12.351562 13.289062 12.308594 13.289062 12.3125 13.242188 C 12.3125 13.222656 12.285156 13.21875 12.148438 13.230469 C 11.996094 13.238281 11.980469 13.234375 11.953125 13.199219 C 11.925781 13.175781 11.925781 13.15625 11.945312 13.132812 C 11.960938 13.101562 11.960938 13.09375 11.945312 13.074219 C 11.933594 13.058594 11.902344 13.058594 11.847656 13.074219 C 11.695312 13.113281 11.652344 13.09375 11.652344 12.976562 C 11.648438 12.894531 11.617188 12.855469 11.5625 12.855469 M 11.523438 12.96875 C 11.53125 12.96875 11.539062 12.972656 11.550781 12.984375 C 11.5625 13 11.566406 13.015625 11.5625 13.035156 C 11.550781 13.070312 11.484375 13.070312 11.472656 13.035156 C 11.464844 13.015625 11.472656 12.996094 11.492188 12.984375 Z M 11.523438 12.96875 "/>
<path style=" stroke:none;fill-rule:nonzero;fill:rgb(96.862745%,87.843138%,9.019608%);fill-opacity:1;" d="M 11.25 13.078125 C 11.34375 13.019531 11.34375 13.023438 11.355469 12.859375 C 11.363281 12.742188 11.363281 12.734375 11.332031 12.734375 C 11.285156 12.734375 11.261719 12.78125 11.261719 12.878906 C 11.261719 12.945312 11.253906 12.972656 11.222656 13 C 11.144531 13.078125 10.957031 13.042969 10.929688 12.949219 C 10.921875 12.921875 10.9375 12.882812 10.972656 12.828125 C 11.054688 12.710938 11.039062 12.679688 10.933594 12.769531 C 10.867188 12.832031 10.855469 12.832031 10.867188 12.78125 C 10.878906 12.730469 10.855469 12.710938 10.796875 12.726562 C 10.769531 12.730469 10.75 12.753906 10.746094 12.789062 C 10.738281 12.820312 10.722656 12.839844 10.695312 12.847656 C 10.648438 12.859375 10.570312 12.816406 10.570312 12.777344 C 10.570312 12.75 10.6875 12.601562 10.839844 12.445312 C 10.894531 12.386719 10.941406 12.328125 10.941406 12.324219 C 10.9375 12.3125 10.914062 12.304688 10.875 12.304688 C 10.824219 12.304688 10.800781 12.316406 10.804688 12.339844 C 10.804688 12.355469 10.730469 12.457031 10.636719 12.5625 C 10.441406 12.785156 10.425781 12.828125 10.519531 12.886719 C 10.597656 12.9375 10.699219 12.933594 10.777344 12.878906 L 10.839844 12.835938 L 10.839844 12.917969 C 10.839844 13.015625 10.859375 13.054688 10.9375 13.09375 C 11.035156 13.144531 11.15625 13.140625 11.25 13.078125 M 15.328125 11.707031 C 15.257812 11.753906 15.3125 11.84375 15.328125 11.90625 C 15.296875 11.984375 15.191406 12.007812 15.113281 12.027344 C 15.003906 12.046875 14.925781 12.136719 14.886719 12.234375 C 14.863281 12.296875 14.808594 12.394531 14.75 12.296875 C 14.699219 12.246094 14.605469 12.203125 14.546875 12.265625 C 14.5 12.308594 14.488281 12.375 14.46875 12.433594 C 14.441406 12.390625 14.429688 12.324219 14.375 12.304688 C 14.28125 12.316406 14.316406 12.4375 14.359375 12.484375 C 14.398438 12.542969 14.4375 12.613281 14.398438 12.683594 C 14.359375 12.761719 14.242188 12.816406 14.175781 12.75 C 14.113281 12.714844 14.15625 12.589844 14.089844 12.582031 C 14.058594 12.605469 14.058594 12.738281 14.007812 12.667969 C 13.96875 12.605469 13.992188 12.523438 13.945312 12.472656 C 13.894531 12.480469 13.851562 12.570312 13.867188 12.621094 C 13.9375 12.714844 13.96875 12.832031 13.996094 12.949219 C 14.011719 12.996094 13.992188 13.085938 14.035156 13.105469 C 14.0625 13.03125 14.035156 12.949219 14.058594 12.871094 C 14.128906 12.863281 14.203125 12.894531 14.273438 12.878906 C 14.378906 12.867188 14.457031 12.777344 14.492188 12.6875 C 14.5 12.613281 14.5 12.542969 14.488281 12.472656 C 14.566406 12.488281 14.652344 12.488281 14.730469 12.511719 C 14.769531 12.570312 14.71875 12.660156 14.707031 12.722656 C 14.667969 12.855469 14.5625 12.953125 14.464844 13.039062 C 14.421875 13.066406 14.417969 13.132812 14.476562 13.097656 C 14.609375 13.035156 14.714844 12.921875 14.769531 12.78125 C 14.8125 12.679688 14.777344 12.5625 14.808594 12.460938 C 14.847656 12.382812 14.945312 12.398438 15.019531 12.398438 C 15.09375 12.398438 15.15625 12.304688 15.132812 12.230469 C 15.109375 12.144531 15.199219 12.105469 15.257812 12.074219 C 15.339844 12.035156 15.402344 11.949219 15.394531 11.855469 C 15.394531 11.804688 15.394531 11.710938 15.328125 11.707031 M 15.042969 12.203125 C 15.128906 12.226562 15.027344 12.394531 14.980469 12.285156 C 14.964844 12.246094 15 12.203125 15.042969 12.203125 M 14.640625 12.324219 C 14.753906 12.316406 14.710938 12.480469 14.617188 12.410156 C 14.566406 12.382812 14.582031 12.324219 14.640625 12.324219 M 10.546875 12.96875 C 10.546875 12.953125 10.539062 12.941406 10.523438 12.941406 C 10.496094 12.941406 10.476562 12.96875 10.488281 12.992188 C 10.503906 13.019531 10.539062 13.003906 10.546875 12.96875 M 11.875 12.824219 C 11.875 12.796875 11.863281 12.789062 11.84375 12.792969 C 11.800781 12.800781 11.792969 12.859375 11.839844 12.859375 C 11.863281 12.859375 11.875 12.847656 11.875 12.820312 Z M 10.234375 12.015625 C 10.183594 12.003906 10.148438 12.054688 10.128906 12.097656 C 10.09375 12.171875 10.039062 12.226562 9.972656 12.265625 C 9.921875 12.277344 9.871094 12.265625 9.820312 12.234375 C 9.769531 12.207031 9.78125 12.144531 9.757812 12.101562 C 9.71875 12.070312 9.652344 12.113281 9.65625 12.160156 C 9.652344 12.222656 9.707031 12.257812 9.757812 12.28125 C 9.796875 12.308594 9.859375 12.324219 9.875 12.375 C 9.875 12.417969 9.890625 12.46875 9.941406 12.453125 C 10 12.453125 10.019531 12.523438 9.992188 12.566406 C 9.964844 12.617188 9.957031 12.671875 9.964844 12.726562 C 9.992188 12.753906 10.019531 12.6875 10.042969 12.671875 L 10.082031 12.613281 C 10.1875 12.625 10.289062 12.632812 10.394531 12.632812 C 10.472656 12.632812 10.53125 12.582031 10.578125 12.527344 C 10.648438 12.457031 10.703125 12.375 10.777344 12.3125 C 10.832031 12.296875 10.804688 12.195312 10.746094 12.226562 C 10.695312 12.246094 10.679688 12.304688 10.644531 12.34375 C 10.585938 12.417969 10.523438 12.488281 10.449219 12.546875 C 10.390625 12.570312 10.328125 12.558594 10.269531 12.546875 C 10.246094 12.527344 10.316406 12.507812 10.328125 12.484375 C 10.363281 12.457031 10.394531 12.421875 10.417969 12.378906 C 10.398438 12.339844 10.34375 12.339844 10.304688 12.339844 C 10.210938 12.347656 10.136719 12.429688 10.039062 12.4375 C 9.964844 12.4375 10.003906 12.359375 10.039062 12.332031 C 10.105469 12.25 10.171875 12.175781 10.238281 12.105469 C 10.257812 12.082031 10.328125 12.058594 10.285156 12.027344 C 10.269531 12.019531 10.253906 12.015625 10.234375 12.015625 M 10.28125 12.414062 C 10.332031 12.441406 10.25 12.484375 10.21875 12.480469 C 10.175781 12.492188 10.171875 12.449219 10.210938 12.441406 C 10.234375 12.425781 10.257812 12.414062 10.28125 12.414062 M 10.132812 12.515625 C 10.160156 12.515625 10.21875 12.542969 10.164062 12.558594 C 10.125 12.589844 10.085938 12.527344 10.132812 12.515625 "/>
<path style=" stroke:none;fill-rule:nonzero;fill:rgb(96.862745%,87.843138%,9.019608%);fill-opacity:1;" d="M 11.304688 12.578125 C 11.304688 12.539062 11.242188 12.546875 11.234375 12.585938 C 11.226562 12.609375 11.238281 12.617188 11.265625 12.609375 C 11.292969 12.609375 11.304688 12.597656 11.304688 12.578125 M 14.222656 12.316406 C 14.230469 12.28125 14.183594 12.257812 14.15625 12.285156 C 14.128906 12.3125 14.15625 12.363281 14.1875 12.355469 C 14.203125 12.351562 14.214844 12.339844 14.226562 12.316406 Z M 9.6875 11.957031 C 9.730469 11.917969 9.734375 11.914062 9.714844 11.828125 C 9.683594 11.703125 9.6875 11.6875 9.734375 11.675781 C 9.792969 11.664062 9.941406 11.746094 9.96875 11.808594 C 10 11.859375 9.996094 11.863281 9.953125 11.902344 C 9.90625 11.945312 9.90625 11.996094 9.953125 11.996094 C 9.992188 11.996094 10.097656 11.894531 10.097656 11.859375 C 10.097656 11.808594 9.980469 11.683594 9.886719 11.640625 C 9.832031 11.617188 9.769531 11.601562 9.707031 11.601562 C 9.585938 11.601562 9.570312 11.628906 9.601562 11.769531 C 9.636719 11.9375 9.589844 11.957031 9.457031 11.832031 C 9.359375 11.746094 9.308594 11.621094 9.320312 11.492188 C 9.320312 11.332031 9.386719 11.246094 9.519531 11.230469 C 9.609375 11.214844 9.609375 11.199219 9.519531 11.183594 C 9.378906 11.160156 9.261719 11.253906 9.21875 11.417969 C 9.167969 11.605469 9.28125 11.832031 9.480469 11.945312 C 9.585938 12.003906 9.625 12.007812 9.6875 11.957031 M 15.125 11.753906 C 15.136719 11.738281 15.144531 11.71875 15.144531 11.695312 C 15.148438 11.664062 15.160156 11.632812 15.1875 11.601562 C 15.214844 11.566406 15.226562 11.542969 15.226562 11.53125 C 15.226562 11.5 15.175781 11.5 15.136719 11.53125 C 15.089844 11.566406 15.0625 11.566406 15.058594 11.53125 L 15.105469 11.496094 C 15.167969 11.464844 15.171875 11.4375 15.121094 11.410156 C 15.054688 11.378906 14.984375 11.4375 14.980469 11.53125 C 14.976562 11.59375 14.980469 11.601562 15.027344 11.628906 C 15.074219 11.65625 15.078125 11.667969 15.070312 11.707031 C 15.0625 11.777344 15.082031 11.792969 15.125 11.753906 M 15.632812 11.695312 C 15.675781 11.65625 15.699219 11.625 15.703125 11.609375 C 15.707031 11.59375 15.734375 11.566406 15.777344 11.53125 C 15.886719 11.453125 15.914062 11.371094 15.863281 11.242188 C 15.84375 11.191406 15.785156 11.121094 15.648438 11.003906 C 15.585938 10.9375 15.515625 10.878906 15.4375 10.828125 C 15.402344 10.828125 15.410156 10.964844 15.445312 10.976562 C 15.511719 11 15.554688 11.027344 15.65625 11.121094 C 15.78125 11.234375 15.835938 11.339844 15.804688 11.398438 C 15.777344 11.457031 15.738281 11.441406 15.628906 11.320312 C 15.59375 11.277344 15.550781 11.238281 15.503906 11.207031 C 15.492188 11.207031 15.484375 11.226562 15.484375 11.261719 C 15.480469 11.296875 15.507812 11.34375 15.5625 11.398438 C 15.652344 11.503906 15.660156 11.5625 15.589844 11.617188 L 15.535156 11.65625 C 15.445312 11.503906 15.328125 11.367188 15.183594 11.261719 C 15.171875 11.261719 15.164062 11.28125 15.164062 11.316406 C 15.164062 11.367188 15.171875 11.382812 15.210938 11.402344 C 15.3125 11.484375 15.40625 11.578125 15.484375 11.679688 L 15.554688 11.761719 Z M 15.867188 11.03125 C 15.847656 10.984375 15.539062 10.660156 15.503906 10.660156 C 15.488281 10.660156 15.484375 10.683594 15.488281 10.730469 C 15.488281 10.792969 15.5 10.800781 15.542969 10.8125 C 15.609375 10.855469 15.671875 10.902344 15.722656 10.960938 C 15.765625 11.007812 15.8125 11.046875 15.867188 11.078125 Z M 14 14.699219 C 14.003906 14.714844 14 14.730469 13.980469 14.742188 C 13.964844 14.75 13.945312 14.75 13.929688 14.742188 C 13.910156 14.730469 13.90625 14.714844 13.910156 14.699219 C 13.90625 14.679688 13.910156 14.664062 13.929688 14.652344 C 13.945312 14.644531 13.964844 14.644531 13.980469 14.652344 C 14 14.664062 14.003906 14.679688 14 14.699219 M 14.164062 14.640625 C 14.164062 14.664062 14.144531 14.679688 14.117188 14.679688 C 14.089844 14.679688 14.070312 14.664062 14.070312 14.640625 C 14.070312 14.621094 14.089844 14.601562 14.117188 14.601562 C 14.144531 14.601562 14.164062 14.621094 14.164062 14.640625 "/>
</g>
</svg>
