<svg xmlns="http://www.w3.org/2000/svg" width="25" height="px" viewBox="0 0 25 19"><path d="M0 0h25v19H0z" style="fill:#f7e017;fill-opacity:1;stroke:none"/><path d="M0 1.316v8.45l25 3.957V9.234Zm0 0" style="stroke:none;fill-rule:nonzero;fill:#fff;fill-opacity:1"/><path d="M0 5.809v3.957l25 7.918v-3.961Zm0 0" style="stroke:none;fill-rule:nonzero;fill:#000001;fill-opacity:1"/><path d="M11.867 15.035a3 3 0 0 1-1.285-.457c-.062-.039-.121-.078-.133-.078-.008 0-.015.05-.015.11 0 .167-.067.253-.235.296-.16.043-.406-.043-.601-.21a1.7 1.7 0 0 0-.645-.356 1.03 1.03 0 0 0-.73.094.2.2 0 0 1-.07.035c-.032 0-.028-.184.003-.239a.44.44 0 0 1 .246-.19c.055-.02.102-.048.102-.063 0-.012-.02-.051-.043-.094-.074-.137-.047-.262.09-.367.133-.106.363-.121.562-.043l.106.035c.027 0 .011-.04-.063-.149a.42.42 0 0 1-.09-.332.39.39 0 0 1 .352-.359c.148-.008.242.043.469.258.601.613 1.39 1 2.238 1.097.215.028.645.012.898-.027a4 4 0 0 0 2.13-1.074c.167-.16.245-.203.382-.203.117 0 .203.039.29.133.077.085.1.168.093.304a.4.4 0 0 1-.07.207c-.07.117-.059.133.086.075.195-.079.437-.043.57.085.113.11.125.22.035.368a.4.4 0 0 0-.059.117c0 .015.024.02.141.043.156.023.25.14.25.32 0 .055-.008.098-.016.098-.007 0-.07-.024-.132-.051a1.05 1.05 0 0 0-.5-.09.9.9 0 0 0-.328.043 1.5 1.5 0 0 0-.508.305c-.164.148-.27.195-.43.195q-.227.001-.309-.133c-.027-.047-.035-.074-.027-.18a.4.4 0 0 0 0-.124c-.008 0-.062.039-.129.082-.148.109-.312.195-.48.261a4.7 4.7 0 0 1-2.145.258" style="stroke:none;fill-rule:nonzero;fill:#cf1126;fill-opacity:1"/><path d="M12.145 13.86a3.54 3.54 0 0 1-2.551-1.47c-.637-.878-.832-2.035-.64-3.093.105-.485.312-.965.663-1.309-.289.61-.367 1.301-.226 1.961.234 1.313 1.328 2.426 2.636 2.617.524.153 1.055-.011 1.551-.171 1.094-.391 1.926-1.442 2.027-2.614a3.27 3.27 0 0 0-.293-1.875c.16.086.364.426.485.657.418.816.433 1.796.191 2.667-.336 1.114-1.172 2.086-2.281 2.438a4.2 4.2 0 0 1-1.562.191M7.082 12.398c-.062-.007-.137.059-.11.125.048.07.13.106.204.137.191.078.398.11.601.098q.229 0 .446-.082c.078-.024.175-.051.207-.14.035-.056-.028-.114-.082-.102-.078.015-.157.05-.235.074a1.5 1.5 0 0 1-.527.055 1.4 1.4 0 0 1-.375-.114c-.043-.015-.082-.043-.129-.05" style="stroke:none;fill-rule:nonzero;fill:#cf1126;fill-opacity:1"/><path d="M7.156 12.125c-.066-.012-.12.07-.097.133a.5.5 0 0 0 .218.148c.141.055.293.082.446.074h.039a1 1 0 0 0 .375-.074c.07-.027.156-.054.187-.136.024-.043.008-.106-.05-.114-.047 0-.09.031-.137.047-.172.07-.356.098-.54.082a1 1 0 0 1-.324-.105c-.039-.016-.074-.047-.117-.051Zm0 0" style="stroke:none;fill-rule:nonzero;fill:#cf1126;fill-opacity:1"/><path d="M7.246 11.863c-.055-.008-.094.059-.086.11.008.047.047.078.082.105.14.102.313.149.485.14h.043a.7.7 0 0 0 .312-.073c.063-.028.14-.063.164-.137.008-.035.016-.086-.023-.106-.043-.023-.082.012-.118.028a.9.9 0 0 1-.406.101.7.7 0 0 1-.34-.105c-.039-.02-.07-.055-.113-.063" style="stroke:none;fill-rule:nonzero;fill:#cf1126;fill-opacity:1"/><path d="M6.29 7.988c-.083.086-.02.246-.028.356.047.347.101.699.23 1.031.156.316.488.488.692.77.07.132.046.296.062.449.008.402.008.808 0 1.21.18.098.375.188.586.153.121-.027.352-.047.375-.172l-.023-2.097c-.07-.215-.29-.325-.446-.461a4 4 0 0 1-.37-.426c-.067-.117-.337-.16-.24.043.056.176.2.304.235.488.008.105.133.293.028.352a.65.65 0 0 0-.278-.266c-.117-.086-.304-.125-.347-.277a1.14 1.14 0 0 0-.286-.578c.04-.196 0-.442-.168-.57Zm0 0" style="stroke:none;fill-rule:nonzero;fill:#cf1126;fill-opacity:1"/><path d="M6.547 8.027c-.078.012-.074.11-.04.164.04.114.048.235.028.352.145.164.238.36.277.574 0 .078.083.106.137.145.13.082.27.144.383.246.023.027.043.055.027 0-.02-.07-.027-.14-.078-.192a.5.5 0 0 0-.265-.171.8.8 0 0 0-.106-.305c-.055-.094-.11-.192-.195-.246 0-.164 0-.332-.07-.48-.02-.04-.051-.083-.098-.087" style="stroke:none;fill-rule:nonzero;fill:#cf1126;fill-opacity:1"/><path d="M6.762 8.09c-.051.015-.04.086-.024.125q.036.17.024.348a.8.8 0 0 1 .218.308c.04.07.067.152.082.234a.6.6 0 0 1 .215.13c-.027-.07-.078-.13-.117-.204a1 1 0 0 1-.098-.226.4.4 0 0 1-.105-.317.49.49 0 0 0-.117-.351c-.02-.02-.047-.043-.078-.047M7.012 8.129c-.032.004-.047.031-.063.055-.008.023.02.046.024.074a.6.6 0 0 1 .039.273q-.001.104.05.184a.11.11 0 0 1 .09-.074c.016 0 .04.007.028-.016a1.3 1.3 0 0 0-.075-.371.26.26 0 0 0-.07-.117q-.01-.013-.027-.008ZM17.918 12.398c.062-.007.137.059.11.125-.048.07-.13.106-.204.137-.191.078-.398.11-.601.098q-.229 0-.446-.082c-.078-.024-.175-.051-.207-.14-.035-.056.028-.114.082-.102.078.015.157.05.235.074a1.5 1.5 0 0 0 .527.055q.194-.032.375-.114c.043-.015.082-.043.129-.05" style="stroke:none;fill-rule:nonzero;fill:#cf1126;fill-opacity:1"/><path d="M17.844 12.125c.066-.012.12.07.097.133a.5.5 0 0 1-.218.148 1.1 1.1 0 0 1-.446.074h-.039a1 1 0 0 1-.375-.074c-.07-.027-.156-.054-.187-.136-.024-.043-.008-.106.05-.114.047 0 .09.031.137.047.172.07.356.098.54.082a1 1 0 0 0 .324-.105c.039-.016.074-.047.117-.051Zm0 0" style="stroke:none;fill-rule:nonzero;fill:#cf1126;fill-opacity:1"/><path d="M17.754 11.863c.055-.008.094.059.086.11-.008.047-.047.078-.082.105a.77.77 0 0 1-.485.14h-.043a.7.7 0 0 1-.312-.073c-.063-.028-.14-.063-.164-.137-.008-.035-.016-.086.023-.106.043-.023.082.012.118.028a.9.9 0 0 0 .406.101.7.7 0 0 0 .34-.105c.039-.02.07-.055.113-.063" style="stroke:none;fill-rule:nonzero;fill:#cf1126;fill-opacity:1"/><path d="M18.71 7.988c.083.086.02.246.028.356-.047.347-.101.699-.23 1.031-.156.316-.488.488-.692.77-.07.132-.046.296-.062.449-.008.402-.008.808 0 1.21-.18.098-.375.188-.586.153-.121-.027-.352-.047-.375-.172l.023-2.097c.07-.215.29-.325.446-.461a4 4 0 0 0 .37-.426c.067-.117.337-.16.24.043-.056.176-.2.304-.235.488-.008.105-.133.293-.028.352a.65.65 0 0 1 .278-.266c.117-.086.304-.125.347-.277a1.14 1.14 0 0 1 .286-.578c-.04-.196 0-.442.168-.57Zm0 0" style="stroke:none;fill-rule:nonzero;fill:#cf1126;fill-opacity:1"/><path d="M18.453 8.027c.078.012.074.11.04.164a.7.7 0 0 0-.028.352 1.2 1.2 0 0 0-.277.574c0 .078-.083.106-.137.145-.13.082-.27.144-.383.246-.023.027-.043.055-.027 0 .02-.07.027-.14.078-.192a.5.5 0 0 1 .265-.171.8.8 0 0 1 .106-.305c.055-.094.11-.192.195-.246 0-.164 0-.332.07-.48.02-.04.051-.083.098-.087" style="stroke:none;fill-rule:nonzero;fill:#cf1126;fill-opacity:1"/><path d="M18.238 8.09c.051.015.04.086.024.125-.02.113-.032.23-.024.348a.8.8 0 0 0-.218.308.8.8 0 0 0-.082.234.6.6 0 0 0-.215.13c.027-.07.078-.13.117-.204a1 1 0 0 0 .098-.226.4.4 0 0 0 .105-.317.49.49 0 0 1 .117-.351c.02-.02.047-.043.078-.047" style="stroke:none;fill-rule:nonzero;fill:#cf1126;fill-opacity:1"/><path d="M17.988 8.129c.032.004.047.031.063.055.008.023-.02.046-.024.074a.6.6 0 0 0-.039.273q.001.104-.05.184a.11.11 0 0 0-.09-.074c-.016 0-.04.007-.028-.016q.011-.194.075-.371a.26.26 0 0 1 .07-.117q.01-.013.027-.008ZM12.387 12.563a.95.95 0 0 1-.778-.633c.008-.059.079.03.114.039a.5.5 0 0 0 .207.066c.09.04.148.133.238.184.039.031.187.094.156-.008-.031-.055-.054-.121-.023-.184.047-.109.12-.203.199-.297.055-.02.094.094.133.133.055.086.12.192.09.297-.032.04-.055.16.03.121.106-.047.192-.125.278-.199.078-.055.176-.055.254-.105.04-.008.113-.082.13-.043a1.3 1.3 0 0 1-.192.324.83.83 0 0 1-.493.289 1.4 1.4 0 0 1-.343.015" style="stroke:none;fill-rule:nonzero;fill:#cf1126;fill-opacity:1"/><path d="M12.8 12.145a.4.4 0 0 0-.046-.211 1.8 1.8 0 0 0-.207-.317c-.074-.039-.113.098-.16.14-.075.114-.168.227-.172.368-.043.066-.121-.05-.156-.09a.52.52 0 0 1-.102-.32 1.3 1.3 0 0 1 .094-.543c.05-.149.133-.29.125-.45.004-.12-.02-.253-.117-.335-.094-.075.062-.09.109-.055.082.012.125.148.203.113.027-.07.035-.16.098-.215.058-.082.12.036.144.094.043.047 0 .172.067.172.082-.059.144-.156.25-.18.043-.027.117 0 .058.047a.5.5 0 0 0-.16.282.7.7 0 0 0 .07.406c.118.25.207.527.149.804a.54.54 0 0 1-.207.301c-.016.008-.035.008-.04-.011" style="stroke:none;fill-rule:nonzero;fill:#cf1126;fill-opacity:1"/><path d="M12.676 10.281a.6.6 0 0 0-.149-.183c-.062 0-.101.078-.14.12-.032.055-.067.15-.14.075-.118-.066-.134-.219-.134-.34-.008-.203.07-.39.14-.57a.6.6 0 0 0 .009-.36c-.035-.132-.14-.226-.223-.332.004-.043.11-.02.149-.011.09.023.14.101.207.156.046-.016.023-.11.046-.152 0-.067.086-.149.118-.059.054.059 0 .172.066.207.063-.023.094-.094.152-.125a.21.21 0 0 1 .203-.012c.024.059-.07.106-.093.16a.53.53 0 0 0-.102.473c.04.133.102.25.125.383q.042.23-.015.453c-.024.09-.098.149-.176.188a.3.3 0 0 1-.043-.07" style="stroke:none;fill-rule:nonzero;fill:#cf1126;fill-opacity:1"/><path d="M12.281 8.625c-.09-.062-.117-.125-.117-.25 0-.059.012-.094.05-.152.063-.082.052-.114-.03-.086q-.205.058-.211-.114c0-.058.011-.082.086-.18.062-.07.09-.113.074-.124-.012-.012-.09.054-.235.207a3 3 0 0 1-.296.277c-.254.176-.5.203-.614.067-.054-.067-.054-.106.012-.149a.5.5 0 0 0 .113-.098q.195-.175.422-.304.141-.077.055-.078c-.078 0-.328.164-.516.336a.8.8 0 0 1-.18.132.66.66 0 0 1-.359.028c-.058-.02-.164-.121-.164-.157 0-.007.024-.03.05-.046q.065-.038.122-.086c.148-.133.437-.27.664-.32.07-.016.043-.055-.039-.048-.238.043-.461.153-.648.31-.22.179-.543.16-.649-.036-.016-.035-.031-.066-.023-.07.183-.051.363-.118.53-.207.145-.086.306-.145.47-.172.074-.012.078-.051.007-.059-.093-.012-.234.04-.48.16-.32.16-.41.188-.578.18a.5.5 0 0 1-.363-.172c-.086-.078-.2-.277-.18-.3q.204.045.414.034c.215 0 .273-.003.39-.039.223-.07.434-.18.626-.32.265-.226.605-.355.957-.36.324 0 .527.075.707.262.062.063.117.106.125.098s.015-.121.015-.246c0 0 .098-.012.117.016 0 .203 0 .222.032.222.023 0 .039-.02.054-.05.024-.067.13-.16.239-.22.234-.116.644-.12.972-.007q.235.092.434.25c.191.137.402.246.625.316.176.055.496.067.652.028l.14-.028c.063 0-.038.203-.16.32-.218.22-.503.215-.902 0-.25-.14-.546-.21-.546-.14q.002.028.039.027.133.001.488.172.223.13.476.172.094.001.004.125-.088.131-.304.133c-.137 0-.215-.031-.336-.133-.211-.176-.719-.371-.703-.266.004.02.03.032.086.04.218.05.425.148.601.293l.152.113c.028.015.028.02.004.066-.035.074-.132.13-.238.137q-.199.03-.379-.129c-.258-.219-.5-.379-.578-.379q-.098.002.078.098.223.118.41.289c.051.05.114.097.13.11.05.027.046.062-.005.132-.05.066-.14.098-.254.086-.222-.024-.398-.133-.675-.422a2 2 0 0 0-.215-.207q-.053.005.058.133c.09.098.106.152.07.238-.027.067-.077.086-.175.059-.106-.028-.121 0-.055.082.102.129.086.281-.039.39a.3.3 0 0 1-.086.059q-.022-.002-.062-.063-.111-.18-.227 0l-.05.079Zm0 0" style="stroke:none;fill-rule:nonzero;fill:#cf1126;fill-opacity:1"/><path d="m12.676 6.148-.137.106-.121-.09v.734h.258Zm0 0" style="stroke:none;fill-rule:nonzero;fill:#cf1126;fill-opacity:1"/><path d="M11.848 5.39a2.4 2.4 0 0 1-.235.852l.29-.27.199.243.218-.25.223.21.21-.218.224.266.191-.215.328.234c-.117-.262-.277-.488-.258-.863-.316.238-1.07.277-1.39.008Zm0 0" style="stroke:none;fill-rule:nonzero;fill:#cf1126;fill-opacity:1"/><path d="M12.422 5.215a1.4 1.4 0 0 0-.348.027.5.5 0 0 0-.203.078c.008.227 1.066.32 1.352.004a.54.54 0 0 0-.215-.086c-.106-.02-.223-.02-.336-.027v.187h-.25Zm0 0" style="stroke:none;fill-rule:nonzero;fill:#cf1126;fill-opacity:1"/><path d="M12.629 4.063h-.164v1.304h.164Zm0 0" style="stroke:none;fill-rule:nonzero;fill:#cf1126;fill-opacity:1"/><path d="m12.629 4.094-.063.629.633.312-.32-.437.437-.145Zm-.07-.16c-.098 0-.168.039-.168.082 0 .039.07.078.168.078.093 0 .164-.04.164-.078 0-.043-.07-.082-.164-.082" style="stroke:none;fill-rule:nonzero;fill:#cf1126;fill-opacity:1"/><path d="M12.266 14.879q.147-.041.207-.223a.5.5 0 0 0 .03-.14c-.007-.04-.054-.04-.1.004-.036.027-.04.043-.032.101.027.149-.027.188-.3.215-.028 0-.11 0-.176-.012q-.198-.024-.133.04l.082.034c.074.02.344.008.422-.02m.574-.023a.5.5 0 0 1 .117-.058.2.2 0 0 0 .129-.086c.082-.121.066-.227-.05-.371-.067-.078-.095-.074-.145.012-.047.074-.043.082.02.097a.13.13 0 0 1 .081.063q.105.187-.055.199c-.093 0-.117.016-.144.078l-.023.074c0 .024.039.02.07-.008m-.188-.136a1.2 1.2 0 0 0 .02-.317q.006-.13-.012-.254c-.015-.015-.09.032-.101.067a.12.12 0 0 0 .02.082c.023.047.026.094.019.277q-.02.35.054.145" style="stroke:none;fill-rule:nonzero;fill:#f7e017;fill-opacity:1"/><path d="m12.21 14.605.028-.195c.004-.07.02-.152.028-.187q.04-.14-.07-.063l-.051.04.007.128a1.5 1.5 0 0 1-.035.426q-.012.034.035-.02a.34.34 0 0 0 .059-.132Zm-.39.063c.094-.078.082-.219.106-.332 0-.074.047-.16.015-.227-.09.016-.144.102-.097.184 0 .098 0 .207-.051.293-.04.059-.172.043-.164-.04.031-.116-.113-.058-.168-.026-.043.03-.137.035-.102-.04-.023-.109-.152-.039-.222-.039-.067 0-.004-.14-.102-.12-.176-.012-.37.003-.527-.102-.09-.043-.078-.156-.028-.227.055-.094.07-.219.157-.293.09-.082-.078-.047-.117-.02-.086.048-.008.173-.079.239-.039.07-.093.164-.187.152-.137-.027-.215-.156-.313-.234-.086-.02-.039.133.008.164a.9.9 0 0 0 .29.145c.1-.02.105.117.195.136.156.078.336.098.511.11.07.004.032.132.121.105.051.016.168-.02.172.04-.078.093.075.089.13.077.073-.015.163-.039.183.055.058.07.168.059.242.02Zm0 0" style="stroke:none;fill-rule:nonzero;fill:#f7e017;fill-opacity:1"/><path d="M10.266 13.871q.053-.082.093-.168a.6.6 0 0 1 .079-.14q.063-.08-.055-.067-.053.01-.059.063a.9.9 0 0 1-.097.277c-.067.098-.067.101-.04.101q.024-.006.079-.066m-.977-.621c-.074 0-.078.047-.008.07q.054.016.09.09c.066.14.11.168.293.184l.117.008.008.074q.004.07.02.07l.101-.039c.086-.047.168-.148.168-.219 0-.039-.07-.086-.133-.086a.27.27 0 0 0-.12.055c-.134.098-.274.082-.352-.047q-.089-.157-.184-.156Zm.637.254q.053 0 .023.082c-.004.012-.02.023-.035.023-.012 0-.027-.011-.031-.023-.016-.04.004-.082.039-.082Zm4.941-.156c-.05 0-.062.007-.094.054-.05.075-.054.239-.007.293.027.035.03.035.09.008.085-.035.101-.031.097.012 0 .12-.164.344-.336.465a.4.4 0 0 0-.094.078c-.011.031.051.027.13-.016a.83.83 0 0 0 .308-.316c.043-.09.05-.117.059-.278 0-.152 0-.199-.024-.246-.031-.054-.039-.058-.11-.058h-.019Zm.004.097c.04 0 .04.008.047.067a.12.12 0 0 1-.027.09c-.032.027-.04.027-.063-.016-.039-.063-.015-.14.043-.14m-.789 1.128c.152-.078.242-.16.297-.285l.05-.121c0-.023-.074-.059-.117-.059-.042 0-.054-.035-.039-.12.02-.083 0-.192-.039-.192q-.029.006-.05.047c-.024.039-.028.054-.008.105q.04.118-.067.196-.051.035-.05.078l.004.039.082-.04.078-.046.043.039q.041.03.046.066c0 .094-.265.254-.445.27-.097.008-.117 0-.148-.031q-.04-.043-.028-.079l.02-.105q.02-.117-.078.023c-.047.082-.063.164-.035.207.023.04.172.07.28.063a.4.4 0 0 0 .204-.055M15.098 14c.093-.098.136-.219.136-.395v-.14l.079-.04c.105-.046.203-.144.203-.198q0-.087-.07.007c-.036.043-.079.07-.235.145-.04.016-.043.027-.055.2-.008.194-.039.269-.144.401-.067.079-.07.094-.024.094.02 0 .07-.035.11-.078Zm-1.043-.11c.008-.027-.047-.046-.067-.023q-.018.012-.008.035c.016.024.063.016.075-.011m1.437-.375c.012-.036-.043-.055-.066-.032q-.017.022-.004.043c.015.024.062.016.07-.011m-1.73-1.028a.4.4 0 0 0-.082.09c-.02.012-.004.024.004.043.066.066.093.164.125.254.03.11.07.223.039.332-.012.043-.047.086-.094.074-.078-.004-.156-.027-.234-.027-.075.004-.13.07-.2.062-.047 0-.047-.093-.086-.066-.023.05-.011.105-.015.156a.05.05 0 0 0 .043.008h.144c.008.047.008.11.04.149.05.007.105.003.156-.02.046-.023.054-.086.07-.133.015-.05.078-.039.117-.058a.24.24 0 0 0 .156-.227c-.008-.152-.062-.293-.11-.434q-.028-.1-.058-.195Zm-.235.864c.051 0 .075.062.063.105-.02.063-.094.023-.106-.02-.027-.039-.011-.09.04-.085Zm0 0" style="stroke:none;fill-rule:nonzero;fill:#f7e017;fill-opacity:1"/><path d="M11.563 12.855a.16.16 0 0 0-.079.028c-.136.101-.175.215-.078.262q.1.046-.058.128c-.157.079-.293.067-.555-.039q-.09-.041-.066.04c.015.058.07.09.199.117.14.039.312.027.422-.02a.6.6 0 0 0 .168-.133l.086-.093.097.011c.121.016.125.016.125.078 0 .047 0 .047.114.059l.183.008q.076 0 .094.035c.023.027.035.031.219.016.171-.016.203-.016.28.011a.5.5 0 0 0 .161.02c.133-.016.313-.121.34-.203 0-.012.05-.028.105-.04q.196-.04.016-.07a1 1 0 0 1-.18-.043.4.4 0 0 0-.136-.035c-.067 0-.13.04-.13.086 0 .027.008.031.09.024.07-.008.094-.004.133.027.028.023.043.043.04.05-.02.036-.176.106-.243.118a.2.2 0 0 1-.117-.02c-.063-.03-.148-.035-.168-.007q-.01.012-.05-.02l-.04-.043-.094.043q-.134.062-.129-.008c0-.02-.027-.023-.164-.012-.152.008-.168.004-.195-.03q-.038-.034-.008-.067c.016-.031.016-.04 0-.059q-.016-.023-.097 0c-.153.04-.196.02-.196-.097q-.007-.123-.09-.122m-.039.114q.011 0 .028.015a.06.06 0 0 1 .011.051c-.011.035-.078.035-.09 0q-.01-.032.02-.05Zm0 0" style="stroke:none;fill-rule:nonzero;fill:#f7e017;fill-opacity:1"/><path d="M11.25 13.078c.094-.058.094-.055.105-.219.008-.117.008-.125-.023-.125q-.07-.001-.07.145c0 .066-.008.094-.04.121-.077.078-.265.043-.292-.05q-.01-.04.043-.122c.082-.117.066-.148-.04-.058-.066.062-.078.062-.066.011q.018-.077-.07-.054c-.027.003-.047.027-.05.062q-.012.046-.052.059c-.047.011-.125-.032-.125-.07 0-.028.117-.176.27-.333.055-.058.101-.117.101-.12q-.007-.019-.066-.02-.076 0-.07.035c0 .015-.075.117-.168.223-.196.222-.211.265-.117.324a.23.23 0 0 0 .257-.008l.063-.043v.082c0 .098.02.137.098.176a.31.31 0 0 0 .312-.016m4.078-1.371c-.07.047-.015.137 0 .2-.031.077-.137.1-.215.12-.11.02-.187.11-.226.207-.024.063-.078.16-.137.063-.05-.05-.145-.094-.203-.031-.047.043-.059.109-.078.168-.028-.043-.04-.11-.094-.13-.094.012-.059.133-.016.18.04.059.079.13.04.2-.04.078-.157.132-.223.066-.063-.035-.02-.16-.086-.168-.031.023-.031.156-.082.086-.04-.063-.016-.145-.063-.195-.05.007-.093.097-.078.148.07.094.102.211.13.328.015.047-.005.137.038.156.027-.074 0-.156.024-.234.07-.008.144.024.214.008.106-.012.184-.102.22-.191a.8.8 0 0 0-.005-.215c.078.015.164.015.242.039.04.058-.011.148-.023.21-.039.133-.145.231-.242.317-.043.027-.047.094.012.059a.58.58 0 0 0 .293-.317c.043-.101.007-.219.039-.32.039-.078.136-.063.21-.063.075 0 .137-.093.114-.168-.024-.085.066-.125.125-.156.082-.039.144-.125.137-.219 0-.05 0-.144-.067-.148m-.285.496c.086.024-.016.192-.063.082-.015-.039.02-.082.063-.082m-.402.121c.113-.008.07.156-.024.086-.05-.027-.035-.086.024-.086m-4.094.645c0-.016-.008-.028-.024-.028-.027 0-.046.028-.035.051.016.028.051.012.059-.023m1.328-.145q-.001-.039-.031-.031c-.043.008-.051.066-.004.066q.035.002.035-.039Zm-1.64-.808c-.051-.012-.087.039-.106.082a.4.4 0 0 1-.156.168.2.2 0 0 1-.153-.032c-.05-.027-.039-.09-.062-.132-.04-.032-.106.011-.102.058-.004.063.051.098.102.121.039.028.101.043.117.094 0 .043.016.094.066.078.059 0 .079.07.051.113q-.04.078-.027.16c.027.028.055-.039.078-.054l.039-.059q.156.019.313.02c.078 0 .136-.051.183-.106.07-.07.125-.152.2-.214.054-.016.027-.118-.032-.086-.05.02-.066.078-.101.117a1.2 1.2 0 0 1-.196.203c-.058.023-.12.012-.18 0-.023-.02.047-.04.06-.063a.3.3 0 0 0 .089-.105c-.02-.04-.074-.04-.113-.04-.094.009-.168.09-.266.098-.074 0-.035-.078 0-.105a4 4 0 0 1 .2-.227c.019-.023.09-.046.046-.078a.1.1 0 0 0-.05-.011m.046.398c.051.027-.031.07-.062.066-.043.012-.047-.03-.008-.039a.13.13 0 0 1 .07-.027m-.148.102c.027 0 .086.027.031.043-.039.03-.078-.032-.031-.043" style="stroke:none;fill-rule:nonzero;fill:#f7e017;fill-opacity:1"/><path d="M11.305 12.578c0-.039-.063-.031-.07.008q-.011.035.03.023.041 0 .04-.03m2.918-.263c.007-.035-.04-.058-.067-.03-.027.027 0 .077.031.07q.023-.005.04-.04Zm-4.536-.359c.043-.039.047-.043.028-.129-.031-.125-.027-.14.02-.152.058-.012.206.07.234.133.031.05.027.054-.016.093-.047.043-.047.094 0 .094.04 0 .145-.101.145-.137 0-.05-.118-.175-.211-.218a.5.5 0 0 0-.18-.04c-.121 0-.137.028-.105.169q.053.25-.145.062a.4.4 0 0 1-.137-.34q0-.239.2-.262.135-.022 0-.046c-.141-.024-.258.07-.301.234-.051.187.062.414.261.527.106.059.145.063.207.012m5.438-.203a.1.1 0 0 0 .02-.059.17.17 0 0 1 .043-.093q.04-.054.039-.07c0-.032-.051-.032-.09 0q-.072.051-.078 0l.046-.036q.094-.046.016-.086c-.066-.031-.137.027-.14.121-.004.063 0 .07.046.098.047.027.051.039.043.078q-.01.105.055.047m.508-.059a.25.25 0 0 0 .07-.086q.008-.024.074-.078c.11-.078.137-.16.086-.289-.02-.05-.078-.12-.215-.238a1.2 1.2 0 0 0-.21-.176c-.036 0-.028.137.007.149.067.023.11.05.211.144.125.113.18.219.149.277-.028.059-.067.043-.176-.078a.6.6 0 0 0-.125-.113q-.019.001-.02.055-.005.054.079.136c.09.106.097.165.027.22l-.055.038a1.3 1.3 0 0 0-.351-.394q-.019.002-.02.054c0 .051.008.067.047.086.101.082.195.176.273.278l.07.082Zm.234-.664c-.02-.047-.328-.37-.363-.37q-.023 0-.016.07c0 .062.012.07.055.082.066.042.129.09.18.148q.064.07.144.117ZM14 14.7q.008.025-.02.043a.06.06 0 0 1-.05 0c-.02-.012-.024-.027-.02-.043q-.008-.03.02-.047a.06.06 0 0 1 .05 0c.02.012.024.028.02.047m.164-.058c0 .023-.02.039-.047.039s-.047-.016-.047-.04c0-.019.02-.038.047-.038.028 0 .047.02.047.039" style="stroke:none;fill-rule:nonzero;fill:#f7e017;fill-opacity:1"/></svg>