<svg xmlns="http://www.w3.org/2000/svg" width="25" height="px" viewBox="0 0 25 19"><path d="M0 0h25v19H0z" style="fill:#229e45;fill-opacity:1;stroke:none"/><path d="m12.555 17.258 11.777-7.746-11.848-7.77L.668 9.527Zm0 0" style="stroke:none;fill-rule:evenodd;fill:#f8e509;fill-opacity:1"/><path d="M17.688 9.5c0 2.781-2.231 5.04-4.985 5.04-2.746-.005-4.973-2.267-4.969-5.052s2.235-5.039 4.98-5.035c2.75.004 4.977 2.262 4.974 5.047" style="stroke:none;fill-rule:evenodd;fill:#2b49a3;fill-opacity:1"/><path d="m11.066 12.52-.156-.09-.156.078.035-.176-.125-.137.176-.02.086-.16.074.169.172.03-.129.122m3.36 1.039-.153-.09-.156.078.031-.18-.121-.128.176-.02.082-.164.078.168.172.031-.133.121m-1.414-1.187-.133-.078-.137.07.032-.152-.11-.114.156-.02.07-.14.063.145.153.031-.118.106m3.399-.336-.133-.079-.137.07.032-.155-.106-.11.152-.015.07-.141.063.144.149.028-.114.101m-3.41-.87-.156-.087-.156.078.031-.18-.121-.132.176-.02.082-.16.078.164.172.032-.133.129M8.793 8.926l-.156-.086-.157.078.04-.184-.13-.129.18-.02.078-.163.079.168.171.031-.128.121m.52 2.266-.157-.09-.156.078.035-.18-.125-.129.175-.023.083-.16.078.168.172.031-.13.121m5.157-2.664-.14-.078-.141.07.03-.156-.108-.117.156-.024.074-.14.066.148.157.032-.118.105m-.261 1.516-.106-.063-.113.055.023-.125-.086-.094.125-.016.06-.109.05.117.117.02-.086.09m-5.555 1.992-.105-.059-.106.051.024-.117-.082-.086.117-.016.055-.11.05.114.118.024-.09.078m7.82.605-.086-.043-.086.04.02-.09-.067-.067.094-.012.047-.078.04.078.097.02-.074.062" style="stroke:none;fill-rule:evenodd;fill:#ffffef;fill-opacity:1"/><path d="m8.566 11.383-.105-.059-.106.051.024-.117-.082-.086.117-.016.055-.11.05.114.118.024-.09.078" style="stroke:none;fill-rule:evenodd;fill:#ffffef;fill-opacity:1"/><path d="m8.566 11.383-.105-.059-.106.051.024-.117-.082-.086.117-.016.055-.11.05.114.118.024-.09.078m1.652.117-.101-.055-.106.051.024-.117-.082-.086.117-.016.054-.11.051.114.117.02-.09.082m-.187.672-.101-.059-.106.055.024-.117-.083-.094.118-.016.054-.105.051.109.117.027-.09.079m3.415-.88-.102-.062-.11.055.024-.121-.078-.09.117-.012.055-.105.047.109.117.02-.086.082m-.98.12-.106-.058-.105.055.023-.121-.078-.09.117-.012.055-.11.047.114.117.02-.086.082m-2.688-.227-.066-.039-.066.031.015-.078-.05-.055.074-.007.03-.067.032.07.074.012-.054.051m6.554 1.797-.101-.059-.106.055.024-.117-.082-.09.117-.016.055-.11.05.114.117.024-.09.078m-.812.238-.086-.055-.09.047.02-.105-.066-.07.097-.012.047-.09.04.094.097.015-.074.07m.406.094-.078-.047-.082.04.015-.094-.062-.067.09-.011.043-.078.039.078.09.02-.067.062m1.137-.903-.078-.039-.078.04.02-.09-.063-.067.09-.012.038-.078.04.082.082.016-.063.062m-1.516 1.657-.097-.055-.106.047.024-.113-.078-.079.117-.011.05-.098.047.102.118.02-.09.073m.023.563-.094-.055-.093.051.023-.11-.074-.078.105-.015.047-.102.043.106.106.02-.078.077m-.743-.914-.074-.047-.078.04.016-.09-.059-.067.086-.008.04-.078.038.078.086.016-.062.063m-.696.093-.078-.047-.078.04.02-.09-.063-.067.09-.008.039-.078.04.078.081.016-.062.063m-1.188-.973-.078-.043-.078.039.02-.09-.063-.062.086-.012.039-.082.039.082.086.02-.063.058m.145 2.254-.063-.035-.07.035.016-.078-.051-.055.074-.008.035-.066.032.07.074.012-.055.05M11.066 10l-.156-.094-.156.082.035-.18-.125-.128.176-.024.086-.16.074.168.172.031-.129.121" style="stroke:none;fill-rule:evenodd;fill:#ffffef;fill-opacity:1"/><path d="M17.36 11.313q.145-.381.226-.786c-2.648-2.351-5.598-3.562-9.324-3.312a5 5 0 0 0-.332.828c4.414-.426 7.656 1.55 9.43 3.27" style="stroke:none;fill-rule:evenodd;fill:#fff;fill-opacity:1"/><path d="m16.172 9.992.09.051a.11.11 0 0 0-.012.086.1.1 0 0 0 .055.066c.027.024.05.032.078.028q.034.001.05-.028l.008-.035-.02-.039a1 1 0 0 0-.058-.07.3.3 0 0 1-.07-.121.16.16 0 0 1 .078-.172.14.14 0 0 1 .09-.008q.053.011.102.047.083.06.101.125a.16.16 0 0 1-.023.133l-.094-.059q.018-.04.008-.07-.006-.031-.047-.055a.1.1 0 0 0-.07-.027.04.04 0 0 0-.036.02q-.01.016-.004.038c.004.024.028.051.063.09q.053.054.078.098a.16.16 0 0 1-.012.168.2.2 0 0 1-.074.058c-.027.012-.062.016-.094.012a.4.4 0 0 1-.109-.05q-.089-.065-.105-.133a.18.18 0 0 1 .023-.157Zm-.453-.3.097.05a.13.13 0 0 0-.007.086q.017.042.054.063.043.034.078.023.035.002.051-.031L16 9.852q-.001-.02-.02-.04l-.062-.07q-.065-.062-.078-.113a.17.17 0 0 1 .015-.121.2.2 0 0 1 .063-.055c.027-.012.059-.015.086-.012a.25.25 0 0 1 .101.04c.06.039.094.082.106.12a.17.17 0 0 1-.016.137l-.097-.054q.018-.042.007-.07a.1.1 0 0 0-.05-.055.12.12 0 0 0-.075-.024q-.018.001-.03.02-.012.016-.005.039c.008.023.032.05.067.09q.06.058.078.093a.16.16 0 0 1 0 .164.14.14 0 0 1-.07.067c-.028.012-.063.015-.094.012a.4.4 0 0 1-.114-.043.24.24 0 0 1-.109-.13.2.2 0 0 1 .016-.156m-.555-.152.285-.473.344.215-.047.082-.25-.16-.062.106.234.148-.05.078-.235-.144-.078.129.261.16-.046.078Zm-.809-.672.043-.078.211.106-.097.199q-.047.01-.117.008a.5.5 0 0 1-.13-.04.4.4 0 0 1-.117-.105.24.24 0 0 1-.039-.137.4.4 0 0 1 .04-.148.3.3 0 0 1 .101-.117.2.2 0 0 1 .14-.043q.055-.002.126.039a.23.23 0 0 1 .12.11c.02.042.024.093.012.14l-.105-.031a.12.12 0 0 0-.008-.082.1.1 0 0 0-.062-.055.16.16 0 0 0-.121-.012q-.06.019-.102.102c-.027.058-.04.105-.027.152.011.04.039.074.078.094q.03.021.066.02h.07l.032-.063Zm-3.523-.883.078-.554.164.027.043.387.153-.356.164.024-.079.547-.105-.016.066-.43-.171.414-.106-.015-.043-.45-.062.438Zm-.55-.066.05-.555.402.04-.007.093-.293-.027-.012.12.273.028-.011.094-.274-.027-.012.148.305.027-.008.098ZM8.457 7.574c0-.058.008-.11.027-.144q.022-.043.055-.075a.14.14 0 0 1 .07-.046.3.3 0 0 1 .118-.02c.082 0 .144.027.195.078.05.059.074.14.062.219a.28.28 0 0 1-.078.207.26.26 0 0 1-.195.066.26.26 0 0 1-.188-.078.27.27 0 0 1-.066-.207" style="stroke:none;fill-rule:nonzero;fill:#309e3a;fill-opacity:1"/><path d="M8.57 7.574q-.001.089.04.14.04.053.109.052.06-.001.11-.043.038-.05.042-.145c.004-.066-.012-.113-.039-.144a.16.16 0 0 0-.105-.051.14.14 0 0 0-.11.047q-.04.045-.047.144" style="stroke:none;fill-rule:nonzero;fill:#f7ffff;fill-opacity:1"/><path d="m9.102 7.855.007-.55h.235c.058 0 .097.004.125.02a.1.1 0 0 1 .062.05c.024.04.024.055.024.09 0 .039-.016.074-.04.101a.2.2 0 0 1-.105.051l.059.047a.4.4 0 0 1 .058.09l.067.11H9.46l-.078-.126-.055-.078-.035-.023-.055-.008h-.023v.226Zm0 0" style="stroke:none;fill-rule:nonzero;fill:#309e3a;fill-opacity:1"/><path d="M9.219 7.54h.078c.055 0 .09 0 .101-.009q.019-.001.032-.02.017-.022.011-.038 0-.036-.015-.047-.011-.018-.04-.024H9.31l-.09-.004Zm0 0" style="stroke:none;fill-rule:nonzero;fill:#fff;fill-opacity:1"/><path d="m9.727 7.332.203.012q.065 0 .101.011a.2.2 0 0 1 .078.055q.036.041.047.094.018.057.012.133a.4.4 0 0 1-.02.117.24.24 0 0 1-.066.094.2.2 0 0 1-.078.043q-.04.009-.098.007L9.7 7.887Zm0 0" style="stroke:none;fill-rule:nonzero;fill:#309e3a;fill-opacity:1"/><path d="m9.832 7.43-.02.367h.149q.03.002.047-.02a.1.1 0 0 0 .031-.05.5.5 0 0 0 .016-.102l-.004-.102a.1.1 0 0 0-.031-.054l-.047-.028-.09-.011Zm0 0" style="stroke:none;fill-rule:nonzero;fill:#fff;fill-opacity:1"/><path d="m12.406 8.32.13-.539.171.04.125.038c.027.02.05.043.063.079q.018.052.007.109a.16.16 0 0 1-.039.078.17.17 0 0 1-.117.059.4.4 0 0 1-.117-.024l-.066-.02-.047.208Zm0 0" style="stroke:none;fill-rule:nonzero;fill:#309e3a;fill-opacity:1"/><path d="m12.617 7.902-.031.149.059.015q.063.018.085.012a.075.075 0 0 0 .063-.058q-.001-.03-.008-.051c-.008-.016-.023-.032-.039-.035l-.074-.02-.05-.012Zm0 0" style="stroke:none;fill-rule:nonzero;fill:#fff;fill-opacity:1"/><path d="m12.914 8.477.184-.524.214.078q.089.031.118.055.031.03.039.07a.2.2 0 0 1 0 .094.17.17 0 0 1-.07.086.2.2 0 0 1-.118.012q.023.029.04.062l.03.11.024.12-.121-.042-.04-.145-.027-.094-.023-.03q-.01-.018-.05-.028l-.02-.008-.078.223Zm0 0" style="stroke:none;fill-rule:nonzero;fill:#309e3a;fill-opacity:1"/><path d="m13.125 8.21.074.028c.051.016.086.028.098.028a.06.06 0 0 0 .035-.012.06.06 0 0 0 .023-.035.05.05 0 0 0 0-.047.1.1 0 0 0-.03-.04l-.157-.054-.047.133Zm0 0" style="stroke:none;fill-rule:nonzero;fill:#fff;fill-opacity:1"/><path d="M13.555 8.453a.4.4 0 0 1 .066-.125.3.3 0 0 1 .07-.058l.079-.028q.058-.007.12.016c.07.02.13.066.165.129.03.062.035.14.008.226a.3.3 0 0 1-.133.18.26.26 0 0 1-.203.016.27.27 0 0 1-.165-.133.3.3 0 0 1-.007-.223" style="stroke:none;fill-rule:nonzero;fill:#309e3a;fill-opacity:1"/><path d="M13.664 8.488q-.03.09 0 .149c.027.058.047.062.09.078q.058.021.117-.016.053-.03.082-.125.03-.085 0-.148a.15.15 0 0 0-.086-.078.15.15 0 0 0-.117.011c-.04.024-.066.063-.086.13" style="stroke:none;fill-rule:nonzero;fill:#fff;fill-opacity:1"/><path d="m14.621 9.227.25-.493.207.11q.059.029.106.074a.1.1 0 0 1 .03.074c0 .047 0 .059-.015.09a.15.15 0 0 1-.078.078.2.2 0 0 1-.121-.008c.016.028.027.047.031.067a.6.6 0 0 1 .016.11l.008.128-.117-.059-.016-.148-.012-.098-.02-.039-.046-.027-.02-.012-.105.203Zm0 0" style="stroke:none;fill-rule:nonzero;fill:#309e3a;fill-opacity:1"/><path d="m14.863 8.992.075.04a.3.3 0 0 0 .09.042.1.1 0 0 0 .038-.008.1.1 0 0 0 .028-.035.07.07 0 0 0 .008-.047l-.028-.039-.07-.039-.078-.039Zm0 0" style="stroke:none;fill-rule:nonzero;fill:#fff;fill-opacity:1"/><path d="M16.645 10.238a.35.35 0 0 1 .097-.101.3.3 0 0 1 .086-.035.3.3 0 0 1 .086 0 .3.3 0 0 1 .11.046.28.28 0 0 1 .117.176.32.32 0 0 1-.055.219.28.28 0 0 1-.176.129.28.28 0 0 1-.32-.219.3.3 0 0 1 .055-.215" style="stroke:none;fill-rule:nonzero;fill:#309e3a;fill-opacity:1"/><path d="M16.742 10.305q-.053.075-.043.14.014.06.063.102a.16.16 0 0 0 .117.023q.06-.016.113-.097.054-.082.043-.141a.2.2 0 0 0-.062-.105c-.055-.043-.078-.032-.118-.02q-.058.014-.117.098Zm0 0" style="stroke:none;fill-rule:nonzero;fill:#fff;fill-opacity:1"/><path d="m11.79 8.094.089-.387.281.066-.012.063-.207-.047-.02.09.192.043-.015.066-.192-.047-.023.106.215.05-.016.063Zm0 0" style="stroke:none;fill-rule:nonzero;fill:#309e3a;fill-opacity:1"/></svg>