<?xml version="1.0" encoding="UTF-8"?>
<svg xmlns="http://www.w3.org/2000/svg" xmlns:xlink="http://www.w3.org/1999/xlink" width="25px" height="px" viewBox="0 0 25 19" version="1.1">
<g id="surface1">
<rect x="0" y="0" width="25" height="19" style="fill:rgb(13.333334%,61.960787%,27.058825%);fill-opacity:1;stroke:none;"/>
<path style=" stroke:none;fill-rule:evenodd;fill:rgb(97.254902%,89.803922%,3.529412%);fill-opacity:1;" d="M 12.554688 17.257812 L 24.332031 9.511719 L 12.484375 1.742188 L 0.667969 9.527344 Z M 12.554688 17.257812 "/>
<path style=" stroke:none;fill-rule:evenodd;fill:rgb(16.862746%,28.627452%,63.921571%);fill-opacity:1;" d="M 17.6875 9.5 C 17.6875 12.28125 15.457031 14.539062 12.703125 14.539062 C 9.957031 14.535156 7.730469 12.273438 7.734375 9.488281 C 7.738281 6.703125 9.96875 4.449219 12.714844 4.453125 C 15.464844 4.457031 17.691406 6.714844 17.6875 9.5 "/>
<path style=" stroke:none;fill-rule:evenodd;fill:rgb(100%,100%,93.725491%);fill-opacity:1;" d="M 11.066406 12.519531 L 10.910156 12.429688 L 10.753906 12.507812 L 10.789062 12.332031 L 10.664062 12.195312 L 10.839844 12.175781 L 10.925781 12.015625 L 11 12.183594 L 11.171875 12.214844 L 11.042969 12.335938 M 14.402344 13.375 L 14.25 13.285156 L 14.09375 13.363281 L 14.125 13.183594 L 14.003906 13.054688 L 14.179688 13.035156 L 14.261719 12.871094 L 14.339844 13.039062 L 14.511719 13.070312 L 14.378906 13.191406 M 12.964844 12.003906 L 12.832031 11.925781 L 12.695312 11.996094 L 12.726562 11.84375 L 12.617188 11.730469 L 12.773438 11.710938 L 12.84375 11.570312 L 12.90625 11.714844 L 13.058594 11.746094 L 12.941406 11.851562 M 16.339844 11.515625 L 16.207031 11.4375 L 16.070312 11.507812 L 16.101562 11.351562 L 15.996094 11.242188 L 16.148438 11.226562 L 16.21875 11.085938 L 16.28125 11.230469 L 16.429688 11.257812 L 16.316406 11.359375 M 12.90625 10.488281 L 12.75 10.402344 L 12.59375 10.480469 L 12.625 10.300781 L 12.503906 10.167969 L 12.679688 10.148438 L 12.761719 9.988281 L 12.839844 10.152344 L 13.011719 10.183594 L 12.878906 10.3125 M 8.792969 8.925781 L 8.636719 8.839844 L 8.480469 8.917969 L 8.519531 8.734375 L 8.390625 8.605469 L 8.570312 8.585938 L 8.648438 8.421875 L 8.726562 8.589844 L 8.898438 8.621094 L 8.769531 8.742188 M 9.289062 11.007812 L 9.132812 10.917969 L 8.976562 10.996094 L 9.011719 10.816406 L 8.886719 10.6875 L 9.0625 10.664062 L 9.144531 10.503906 L 9.222656 10.671875 L 9.394531 10.703125 L 9.265625 10.824219 M 14.421875 8.160156 L 14.28125 8.082031 L 14.140625 8.152344 L 14.171875 7.996094 L 14.0625 7.878906 L 14.21875 7.855469 L 14.292969 7.714844 L 14.359375 7.863281 L 14.515625 7.894531 L 14.398438 8 M 14.136719 9.515625 L 14.03125 9.453125 L 13.917969 9.507812 L 13.941406 9.382812 L 13.855469 9.289062 L 13.980469 9.273438 L 14.039062 9.164062 L 14.089844 9.28125 L 14.207031 9.300781 L 14.121094 9.390625 M 8.566406 11.382812 L 8.460938 11.324219 L 8.355469 11.375 L 8.378906 11.257812 L 8.296875 11.171875 L 8.414062 11.15625 L 8.46875 11.046875 L 8.519531 11.160156 L 8.636719 11.183594 L 8.546875 11.261719 M 16.367188 11.867188 L 16.28125 11.824219 L 16.195312 11.863281 L 16.214844 11.773438 L 16.148438 11.707031 L 16.242188 11.695312 L 16.289062 11.617188 L 16.328125 11.695312 L 16.425781 11.714844 L 16.351562 11.777344 "/>
<path style=" stroke:none;fill-rule:evenodd;fill:rgb(100%,100%,93.725491%);fill-opacity:1;" d="M 8.566406 11.382812 L 8.460938 11.324219 L 8.355469 11.375 L 8.378906 11.257812 L 8.296875 11.171875 L 8.414062 11.15625 L 8.46875 11.046875 L 8.519531 11.160156 L 8.636719 11.183594 L 8.546875 11.261719 "/>
<path style=" stroke:none;fill-rule:evenodd;fill:rgb(100%,100%,93.725491%);fill-opacity:1;" d="M 8.566406 11.382812 L 8.460938 11.324219 L 8.355469 11.375 L 8.378906 11.257812 L 8.296875 11.171875 L 8.414062 11.15625 L 8.46875 11.046875 L 8.519531 11.160156 L 8.636719 11.183594 L 8.546875 11.261719 M 10.199219 11.378906 L 10.097656 11.324219 L 9.992188 11.375 L 10.015625 11.257812 L 9.933594 11.171875 L 10.050781 11.15625 L 10.105469 11.046875 L 10.15625 11.160156 L 10.273438 11.179688 L 10.183594 11.261719 M 9.996094 11.933594 L 9.894531 11.875 L 9.789062 11.929688 L 9.8125 11.8125 L 9.730469 11.71875 L 9.847656 11.703125 L 9.902344 11.597656 L 9.953125 11.707031 L 10.070312 11.734375 L 9.980469 11.8125 M 13.394531 10.933594 L 13.292969 10.871094 L 13.183594 10.925781 L 13.207031 10.804688 L 13.128906 10.714844 L 13.246094 10.703125 L 13.300781 10.597656 L 13.347656 10.707031 L 13.464844 10.726562 L 13.378906 10.808594 M 12.398438 10.929688 L 12.292969 10.871094 L 12.1875 10.925781 L 12.210938 10.804688 L 12.132812 10.714844 L 12.25 10.703125 L 12.304688 10.59375 L 12.351562 10.707031 L 12.46875 10.726562 L 12.382812 10.808594 M 9.695312 10.582031 L 9.628906 10.542969 L 9.5625 10.574219 L 9.578125 10.496094 L 9.527344 10.441406 L 9.601562 10.433594 L 9.632812 10.367188 L 9.664062 10.4375 L 9.738281 10.449219 L 9.683594 10.5 M 16.238281 12.296875 L 16.136719 12.238281 L 16.03125 12.292969 L 16.054688 12.175781 L 15.972656 12.085938 L 16.089844 12.070312 L 16.144531 11.960938 L 16.195312 12.074219 L 16.3125 12.097656 L 16.222656 12.175781 M 15.410156 12.414062 L 15.324219 12.359375 L 15.234375 12.40625 L 15.253906 12.300781 L 15.1875 12.230469 L 15.285156 12.21875 L 15.332031 12.128906 L 15.371094 12.222656 L 15.46875 12.238281 L 15.394531 12.308594 M 15.800781 12.402344 L 15.722656 12.355469 L 15.640625 12.394531 L 15.65625 12.300781 L 15.59375 12.234375 L 15.683594 12.222656 L 15.726562 12.144531 L 15.765625 12.222656 L 15.855469 12.242188 L 15.789062 12.304688 M 16.925781 11.402344 L 16.847656 11.363281 L 16.769531 11.402344 L 16.789062 11.3125 L 16.726562 11.246094 L 16.816406 11.234375 L 16.855469 11.15625 L 16.894531 11.238281 L 16.976562 11.253906 L 16.914062 11.316406 M 15.398438 12.972656 L 15.300781 12.917969 L 15.195312 12.964844 L 15.21875 12.851562 L 15.140625 12.773438 L 15.257812 12.761719 L 15.308594 12.664062 L 15.355469 12.765625 L 15.472656 12.785156 L 15.382812 12.859375 M 15.40625 13.421875 L 15.3125 13.367188 L 15.21875 13.417969 L 15.242188 13.308594 L 15.167969 13.230469 L 15.273438 13.214844 L 15.320312 13.113281 L 15.363281 13.21875 L 15.46875 13.238281 L 15.390625 13.316406 M 14.648438 12.402344 L 14.574219 12.355469 L 14.496094 12.394531 L 14.511719 12.304688 L 14.453125 12.238281 L 14.539062 12.230469 L 14.578125 12.152344 L 14.617188 12.230469 L 14.703125 12.246094 L 14.640625 12.308594 M 13.945312 12.402344 L 13.867188 12.355469 L 13.789062 12.394531 L 13.808594 12.304688 L 13.746094 12.238281 L 13.835938 12.230469 L 13.875 12.152344 L 13.914062 12.230469 L 13.996094 12.246094 L 13.933594 12.308594 M 12.746094 11.335938 L 12.667969 11.292969 L 12.589844 11.332031 L 12.609375 11.242188 L 12.546875 11.179688 L 12.632812 11.167969 L 12.671875 11.085938 L 12.710938 11.167969 L 12.796875 11.1875 L 12.734375 11.246094 M 12.878906 13.5 L 12.816406 13.464844 L 12.746094 13.5 L 12.761719 13.421875 L 12.710938 13.367188 L 12.785156 13.359375 L 12.820312 13.292969 L 12.851562 13.363281 L 12.925781 13.375 L 12.871094 13.425781 M 11.066406 10 L 10.910156 9.90625 L 10.753906 9.988281 L 10.789062 9.808594 L 10.664062 9.679688 L 10.839844 9.65625 L 10.925781 9.496094 L 11 9.664062 L 11.171875 9.695312 L 11.042969 9.816406 "/>
<path style=" stroke:none;fill-rule:evenodd;fill:rgb(100%,100%,100%);fill-opacity:1;" d="M 17.359375 11.3125 C 17.457031 11.058594 17.53125 10.796875 17.585938 10.527344 C 14.9375 8.175781 11.988281 6.964844 8.261719 7.214844 C 8.125 7.480469 8.015625 7.757812 7.929688 8.042969 C 12.34375 7.617188 15.585938 9.59375 17.359375 11.3125 "/>
<path style=" stroke:none;fill-rule:nonzero;fill:rgb(18.82353%,61.960787%,22.745098%);fill-opacity:1;" d="M 16.171875 9.992188 L 16.261719 10.042969 C 16.246094 10.070312 16.242188 10.101562 16.25 10.128906 C 16.257812 10.15625 16.277344 10.183594 16.304688 10.195312 C 16.332031 10.21875 16.355469 10.226562 16.382812 10.222656 C 16.40625 10.222656 16.421875 10.214844 16.433594 10.195312 L 16.441406 10.160156 L 16.421875 10.121094 C 16.414062 10.109375 16.394531 10.085938 16.363281 10.050781 C 16.332031 10.015625 16.308594 9.976562 16.292969 9.929688 C 16.277344 9.863281 16.308594 9.792969 16.371094 9.757812 C 16.398438 9.746094 16.429688 9.742188 16.460938 9.75 C 16.496094 9.757812 16.53125 9.773438 16.5625 9.796875 C 16.617188 9.835938 16.652344 9.878906 16.664062 9.921875 C 16.675781 9.96875 16.667969 10.015625 16.640625 10.054688 L 16.546875 9.996094 C 16.558594 9.96875 16.5625 9.945312 16.554688 9.925781 C 16.550781 9.90625 16.535156 9.886719 16.507812 9.871094 C 16.488281 9.855469 16.464844 9.84375 16.4375 9.84375 C 16.421875 9.84375 16.410156 9.851562 16.402344 9.863281 C 16.394531 9.875 16.394531 9.886719 16.398438 9.902344 C 16.402344 9.925781 16.425781 9.953125 16.460938 9.992188 C 16.496094 10.027344 16.523438 10.0625 16.539062 10.089844 C 16.566406 10.144531 16.5625 10.207031 16.527344 10.257812 C 16.507812 10.28125 16.484375 10.304688 16.453125 10.316406 C 16.425781 10.328125 16.390625 10.332031 16.359375 10.328125 C 16.324219 10.320312 16.289062 10.300781 16.25 10.277344 C 16.191406 10.234375 16.15625 10.191406 16.144531 10.144531 C 16.128906 10.089844 16.136719 10.035156 16.167969 9.988281 Z M 15.71875 9.691406 L 15.816406 9.742188 C 15.804688 9.769531 15.800781 9.800781 15.808594 9.828125 C 15.820312 9.855469 15.839844 9.878906 15.863281 9.890625 C 15.890625 9.914062 15.917969 9.921875 15.941406 9.914062 C 15.964844 9.914062 15.980469 9.90625 15.992188 9.882812 L 16 9.851562 C 16 9.839844 15.992188 9.824219 15.980469 9.8125 L 15.917969 9.742188 C 15.875 9.699219 15.847656 9.664062 15.839844 9.628906 C 15.828125 9.589844 15.835938 9.546875 15.855469 9.507812 C 15.871094 9.484375 15.894531 9.464844 15.917969 9.453125 C 15.945312 9.441406 15.976562 9.4375 16.003906 9.441406 C 16.039062 9.445312 16.074219 9.460938 16.105469 9.480469 C 16.164062 9.519531 16.199219 9.5625 16.210938 9.601562 C 16.226562 9.648438 16.21875 9.699219 16.195312 9.738281 L 16.097656 9.683594 C 16.109375 9.65625 16.113281 9.632812 16.105469 9.613281 C 16.09375 9.589844 16.078125 9.570312 16.054688 9.558594 C 16.035156 9.542969 16.007812 9.535156 15.980469 9.535156 C 15.96875 9.535156 15.957031 9.542969 15.949219 9.554688 C 15.941406 9.566406 15.941406 9.578125 15.945312 9.59375 C 15.953125 9.617188 15.976562 9.644531 16.011719 9.683594 C 16.050781 9.722656 16.078125 9.753906 16.089844 9.777344 C 16.121094 9.828125 16.121094 9.890625 16.089844 9.941406 C 16.074219 9.972656 16.050781 9.992188 16.019531 10.007812 C 15.992188 10.019531 15.957031 10.023438 15.925781 10.019531 C 15.886719 10.011719 15.847656 9.996094 15.8125 9.976562 C 15.761719 9.949219 15.722656 9.902344 15.703125 9.847656 C 15.6875 9.796875 15.691406 9.738281 15.71875 9.691406 M 15.164062 9.539062 L 15.449219 9.066406 L 15.792969 9.28125 L 15.746094 9.363281 L 15.496094 9.203125 L 15.433594 9.308594 L 15.667969 9.457031 L 15.617188 9.535156 L 15.382812 9.390625 L 15.304688 9.519531 L 15.566406 9.679688 L 15.519531 9.757812 Z M 14.355469 8.867188 L 14.398438 8.789062 L 14.609375 8.894531 L 14.511719 9.09375 C 14.480469 9.101562 14.441406 9.101562 14.394531 9.101562 C 14.347656 9.09375 14.304688 9.082031 14.265625 9.0625 C 14.21875 9.035156 14.179688 9 14.148438 8.957031 C 14.121094 8.917969 14.109375 8.867188 14.109375 8.820312 C 14.113281 8.769531 14.125 8.71875 14.148438 8.671875 C 14.171875 8.625 14.207031 8.585938 14.25 8.554688 C 14.292969 8.523438 14.339844 8.507812 14.390625 8.511719 C 14.425781 8.511719 14.46875 8.523438 14.515625 8.550781 C 14.578125 8.578125 14.617188 8.617188 14.636719 8.660156 C 14.65625 8.703125 14.660156 8.753906 14.648438 8.800781 L 14.542969 8.769531 C 14.550781 8.742188 14.546875 8.714844 14.535156 8.6875 C 14.523438 8.664062 14.503906 8.644531 14.472656 8.632812 C 14.433594 8.613281 14.390625 8.609375 14.351562 8.621094 C 14.3125 8.632812 14.277344 8.667969 14.25 8.722656 C 14.222656 8.78125 14.210938 8.828125 14.222656 8.875 C 14.234375 8.914062 14.261719 8.949219 14.300781 8.96875 C 14.320312 8.984375 14.34375 8.988281 14.367188 8.988281 L 14.4375 8.988281 L 14.46875 8.925781 Z M 10.832031 7.984375 L 10.910156 7.429688 L 11.074219 7.457031 L 11.117188 7.84375 L 11.269531 7.488281 L 11.433594 7.511719 L 11.355469 8.058594 L 11.25 8.042969 L 11.316406 7.613281 L 11.144531 8.027344 L 11.039062 8.011719 L 10.996094 7.5625 L 10.933594 8 Z M 10.28125 7.917969 L 10.332031 7.363281 L 10.734375 7.402344 L 10.726562 7.496094 L 10.433594 7.46875 L 10.421875 7.589844 L 10.695312 7.617188 L 10.683594 7.710938 L 10.410156 7.683594 L 10.398438 7.832031 L 10.703125 7.859375 L 10.695312 7.957031 Z M 10.28125 7.917969 "/>
<path style=" stroke:none;fill-rule:nonzero;fill:rgb(18.82353%,61.960787%,22.745098%);fill-opacity:1;" d="M 8.457031 7.574219 C 8.457031 7.515625 8.464844 7.464844 8.484375 7.429688 C 8.5 7.402344 8.515625 7.375 8.539062 7.355469 C 8.558594 7.332031 8.582031 7.316406 8.609375 7.308594 C 8.648438 7.292969 8.6875 7.289062 8.726562 7.289062 C 8.808594 7.289062 8.871094 7.316406 8.921875 7.367188 C 8.972656 7.425781 8.996094 7.507812 8.984375 7.585938 C 8.984375 7.671875 8.957031 7.742188 8.90625 7.792969 C 8.851562 7.839844 8.78125 7.867188 8.710938 7.859375 C 8.640625 7.859375 8.574219 7.832031 8.523438 7.78125 C 8.472656 7.722656 8.449219 7.648438 8.457031 7.574219 "/>
<path style=" stroke:none;fill-rule:nonzero;fill:rgb(96.862745%,100%,100%);fill-opacity:1;" d="M 8.570312 7.574219 C 8.570312 7.632812 8.582031 7.679688 8.609375 7.714844 C 8.636719 7.75 8.671875 7.765625 8.71875 7.765625 C 8.757812 7.765625 8.796875 7.75 8.828125 7.722656 C 8.855469 7.691406 8.867188 7.640625 8.871094 7.578125 C 8.875 7.511719 8.859375 7.464844 8.832031 7.433594 C 8.804688 7.402344 8.765625 7.386719 8.726562 7.382812 C 8.683594 7.382812 8.644531 7.398438 8.617188 7.429688 C 8.589844 7.460938 8.574219 7.507812 8.570312 7.574219 "/>
<path style=" stroke:none;fill-rule:nonzero;fill:rgb(18.82353%,61.960787%,22.745098%);fill-opacity:1;" d="M 9.101562 7.855469 L 9.109375 7.304688 L 9.34375 7.304688 C 9.402344 7.304688 9.441406 7.308594 9.46875 7.324219 C 9.496094 7.332031 9.515625 7.347656 9.53125 7.375 C 9.554688 7.414062 9.554688 7.429688 9.554688 7.464844 C 9.554688 7.503906 9.539062 7.539062 9.515625 7.566406 C 9.484375 7.59375 9.449219 7.609375 9.410156 7.617188 L 9.46875 7.664062 C 9.484375 7.679688 9.503906 7.710938 9.527344 7.753906 L 9.59375 7.863281 L 9.460938 7.863281 L 9.382812 7.738281 L 9.328125 7.660156 L 9.292969 7.636719 L 9.238281 7.628906 L 9.214844 7.628906 L 9.214844 7.855469 Z M 9.101562 7.855469 "/>
<path style=" stroke:none;fill-rule:nonzero;fill:rgb(100%,100%,100%);fill-opacity:1;" d="M 9.21875 7.539062 L 9.296875 7.539062 C 9.351562 7.539062 9.386719 7.539062 9.398438 7.53125 C 9.410156 7.53125 9.421875 7.523438 9.429688 7.511719 C 9.441406 7.496094 9.445312 7.484375 9.441406 7.472656 C 9.441406 7.449219 9.4375 7.433594 9.425781 7.425781 C 9.417969 7.414062 9.40625 7.40625 9.386719 7.402344 L 9.308594 7.402344 L 9.21875 7.398438 Z M 9.21875 7.539062 "/>
<path style=" stroke:none;fill-rule:nonzero;fill:rgb(18.82353%,61.960787%,22.745098%);fill-opacity:1;" d="M 9.726562 7.332031 L 9.929688 7.34375 C 9.972656 7.34375 10.007812 7.347656 10.03125 7.355469 C 10.0625 7.367188 10.089844 7.386719 10.109375 7.410156 C 10.132812 7.4375 10.148438 7.46875 10.15625 7.503906 C 10.167969 7.542969 10.171875 7.585938 10.167969 7.636719 C 10.167969 7.675781 10.160156 7.714844 10.148438 7.753906 C 10.132812 7.792969 10.109375 7.824219 10.082031 7.847656 C 10.058594 7.867188 10.03125 7.882812 10.003906 7.890625 C 9.976562 7.898438 9.945312 7.898438 9.90625 7.898438 L 9.699219 7.886719 Z M 9.726562 7.332031 "/>
<path style=" stroke:none;fill-rule:nonzero;fill:rgb(100%,100%,100%);fill-opacity:1;" d="M 9.832031 7.429688 L 9.8125 7.796875 L 9.960938 7.796875 C 9.980469 7.796875 9.996094 7.792969 10.007812 7.777344 C 10.019531 7.765625 10.03125 7.75 10.039062 7.726562 C 10.046875 7.703125 10.050781 7.667969 10.054688 7.625 L 10.050781 7.523438 C 10.046875 7.503906 10.035156 7.484375 10.019531 7.46875 L 9.972656 7.441406 L 9.882812 7.429688 Z M 9.832031 7.429688 "/>
<path style=" stroke:none;fill-rule:nonzero;fill:rgb(18.82353%,61.960787%,22.745098%);fill-opacity:1;" d="M 12.40625 8.320312 L 12.535156 7.78125 L 12.707031 7.820312 L 12.832031 7.859375 C 12.859375 7.878906 12.882812 7.902344 12.894531 7.9375 C 12.90625 7.972656 12.910156 8.007812 12.902344 8.046875 C 12.894531 8.078125 12.882812 8.105469 12.863281 8.125 C 12.832031 8.160156 12.792969 8.179688 12.746094 8.183594 C 12.71875 8.183594 12.679688 8.175781 12.628906 8.160156 L 12.5625 8.140625 L 12.515625 8.347656 Z M 12.40625 8.320312 "/>
<path style=" stroke:none;fill-rule:nonzero;fill:rgb(100%,100%,100%);fill-opacity:1;" d="M 12.617188 7.902344 L 12.585938 8.050781 L 12.644531 8.066406 C 12.6875 8.078125 12.714844 8.082031 12.730469 8.078125 C 12.761719 8.074219 12.785156 8.050781 12.792969 8.019531 C 12.792969 8 12.789062 7.984375 12.785156 7.96875 C 12.777344 7.953125 12.761719 7.9375 12.746094 7.933594 L 12.671875 7.914062 L 12.621094 7.902344 Z M 12.617188 7.902344 "/>
<path style=" stroke:none;fill-rule:nonzero;fill:rgb(18.82353%,61.960787%,22.745098%);fill-opacity:1;" d="M 12.914062 8.476562 L 13.097656 7.953125 L 13.3125 8.03125 C 13.371094 8.050781 13.410156 8.070312 13.429688 8.085938 C 13.449219 8.105469 13.464844 8.128906 13.46875 8.15625 C 13.476562 8.203125 13.476562 8.21875 13.46875 8.25 C 13.453125 8.289062 13.429688 8.316406 13.398438 8.335938 C 13.367188 8.351562 13.328125 8.355469 13.28125 8.347656 C 13.296875 8.367188 13.308594 8.386719 13.320312 8.410156 L 13.351562 8.519531 L 13.375 8.640625 L 13.253906 8.597656 L 13.214844 8.453125 L 13.1875 8.359375 L 13.164062 8.328125 C 13.15625 8.316406 13.140625 8.308594 13.113281 8.300781 L 13.09375 8.292969 L 13.015625 8.515625 Z M 12.914062 8.476562 "/>
<path style=" stroke:none;fill-rule:nonzero;fill:rgb(100%,100%,100%);fill-opacity:1;" d="M 13.125 8.210938 L 13.199219 8.238281 C 13.25 8.253906 13.285156 8.265625 13.296875 8.265625 C 13.308594 8.265625 13.320312 8.261719 13.332031 8.253906 C 13.34375 8.246094 13.351562 8.234375 13.355469 8.21875 C 13.363281 8.203125 13.363281 8.1875 13.355469 8.171875 C 13.347656 8.15625 13.339844 8.144531 13.324219 8.132812 L 13.167969 8.078125 L 13.121094 8.210938 Z M 13.125 8.210938 "/>
<path style=" stroke:none;fill-rule:nonzero;fill:rgb(18.82353%,61.960787%,22.745098%);fill-opacity:1;" d="M 13.554688 8.453125 C 13.566406 8.410156 13.589844 8.367188 13.621094 8.328125 C 13.640625 8.304688 13.664062 8.285156 13.691406 8.269531 L 13.769531 8.242188 C 13.808594 8.238281 13.847656 8.242188 13.890625 8.257812 C 13.960938 8.277344 14.019531 8.324219 14.054688 8.386719 C 14.085938 8.449219 14.089844 8.527344 14.0625 8.613281 C 14.042969 8.6875 13.996094 8.753906 13.929688 8.792969 C 13.871094 8.824219 13.800781 8.832031 13.726562 8.808594 C 13.65625 8.789062 13.597656 8.742188 13.5625 8.675781 C 13.53125 8.605469 13.527344 8.527344 13.554688 8.453125 "/>
<path style=" stroke:none;fill-rule:nonzero;fill:rgb(100%,100%,100%);fill-opacity:1;" d="M 13.664062 8.488281 C 13.644531 8.546875 13.644531 8.597656 13.664062 8.636719 C 13.691406 8.695312 13.710938 8.699219 13.753906 8.714844 C 13.792969 8.730469 13.832031 8.722656 13.871094 8.699219 C 13.90625 8.679688 13.933594 8.636719 13.953125 8.574219 C 13.972656 8.515625 13.972656 8.46875 13.953125 8.425781 C 13.9375 8.390625 13.90625 8.363281 13.867188 8.347656 C 13.828125 8.335938 13.785156 8.339844 13.75 8.359375 C 13.710938 8.382812 13.683594 8.421875 13.664062 8.488281 "/>
<path style=" stroke:none;fill-rule:nonzero;fill:rgb(18.82353%,61.960787%,22.745098%);fill-opacity:1;" d="M 14.621094 9.226562 L 14.871094 8.734375 L 15.078125 8.84375 C 15.117188 8.863281 15.152344 8.886719 15.183594 8.917969 C 15.203125 8.9375 15.214844 8.960938 15.214844 8.992188 C 15.214844 9.039062 15.214844 9.050781 15.199219 9.082031 C 15.183594 9.117188 15.15625 9.144531 15.121094 9.160156 C 15.082031 9.171875 15.042969 9.167969 15 9.152344 C 15.015625 9.179688 15.027344 9.199219 15.03125 9.21875 C 15.039062 9.242188 15.042969 9.28125 15.046875 9.328125 L 15.054688 9.457031 L 14.9375 9.398438 L 14.921875 9.25 L 14.910156 9.152344 L 14.890625 9.113281 L 14.84375 9.085938 L 14.824219 9.074219 L 14.71875 9.277344 Z M 14.621094 9.226562 "/>
<path style=" stroke:none;fill-rule:nonzero;fill:rgb(100%,100%,100%);fill-opacity:1;" d="M 14.863281 8.992188 L 14.9375 9.03125 C 14.984375 9.058594 15.015625 9.074219 15.027344 9.074219 C 15.039062 9.074219 15.054688 9.070312 15.066406 9.066406 C 15.078125 9.058594 15.085938 9.046875 15.09375 9.03125 C 15.101562 9.015625 15.105469 9 15.101562 8.984375 L 15.074219 8.945312 L 15.003906 8.90625 L 14.925781 8.867188 Z M 14.863281 8.992188 "/>
<path style=" stroke:none;fill-rule:nonzero;fill:rgb(18.82353%,61.960787%,22.745098%);fill-opacity:1;" d="M 16.644531 10.238281 C 16.667969 10.199219 16.703125 10.164062 16.742188 10.136719 C 16.769531 10.121094 16.796875 10.109375 16.828125 10.101562 C 16.855469 10.097656 16.886719 10.097656 16.914062 10.101562 C 16.953125 10.109375 16.988281 10.125 17.023438 10.148438 C 17.082031 10.1875 17.125 10.25 17.140625 10.324219 C 17.152344 10.390625 17.132812 10.464844 17.085938 10.542969 C 17.046875 10.605469 16.984375 10.65625 16.910156 10.671875 C 16.839844 10.683594 16.765625 10.667969 16.707031 10.628906 C 16.648438 10.589844 16.605469 10.527344 16.589844 10.453125 C 16.578125 10.382812 16.597656 10.3125 16.644531 10.238281 "/>
<path style=" stroke:none;fill-rule:nonzero;fill:rgb(100%,100%,100%);fill-opacity:1;" d="M 16.742188 10.304688 C 16.707031 10.355469 16.691406 10.402344 16.699219 10.445312 C 16.707031 10.484375 16.730469 10.519531 16.761719 10.546875 C 16.800781 10.570312 16.839844 10.578125 16.878906 10.570312 C 16.917969 10.558594 16.957031 10.527344 16.992188 10.472656 C 17.027344 10.417969 17.042969 10.371094 17.035156 10.332031 C 17.027344 10.292969 17.007812 10.257812 16.972656 10.226562 C 16.917969 10.183594 16.894531 10.195312 16.855469 10.207031 C 16.816406 10.214844 16.777344 10.25 16.738281 10.304688 Z M 16.742188 10.304688 "/>
<path style=" stroke:none;fill-rule:nonzero;fill:rgb(18.82353%,61.960787%,22.745098%);fill-opacity:1;" d="M 11.789062 8.09375 L 11.878906 7.707031 L 12.160156 7.773438 L 12.148438 7.835938 L 11.941406 7.789062 L 11.921875 7.878906 L 12.113281 7.921875 L 12.097656 7.988281 L 11.90625 7.941406 L 11.882812 8.046875 L 12.097656 8.097656 L 12.082031 8.160156 Z M 11.789062 8.09375 "/>
</g>
</svg>
