<svg xmlns="http://www.w3.org/2000/svg" width="25" height="px" viewBox="0 0 25 19"><path d="M.004 0h25.004v19H.004Zm0 0" style="stroke:none;fill-rule:nonzero;fill:#ffd520;fill-opacity:1"/><path d="M.004 19h25.004V0Zm0 0" style="stroke:none;fill-rule:nonzero;fill:#ff4e12;fill-opacity:1"/><path d="M345.4 150c-4-1.283-6.6.69-6.4 5.921 0 5.033 2.8 7.993 6.8 6.118Zm0 0" style="fill-rule:nonzero;fill:#fff;fill-opacity:1;stroke-width:.4;stroke-linecap:butt;stroke-linejoin:miter;stroke:#000;stroke-opacity:1;stroke-miterlimit:4" transform="scale(.03906 .03958)"/><path d="M348.9 140.428c-3.3-2.665-6.4-1.48-8 3.355-1.6 4.934.1 8.585 4.5 7.993Zm0 0" style="fill-rule:nonzero;fill:#fff;fill-opacity:1;stroke-width:.4;stroke-linecap:butt;stroke-linejoin:miter;stroke:#000;stroke-opacity:1;stroke-miterlimit:4" transform="scale(.03906 .03958)"/><path d="M354.4 130.954c-2.8-2.96-6-2.368-8.4 2.27-2.3 4.54-1.3 8.487 3.2 8.684Zm-3.6 45.592c-4.9 1.776-5.4 8.487-2.3 12.533 3 4.145 8.7 4.934 11.8 0Zm0 0" style="fill-rule:nonzero;fill:#fff;fill-opacity:1;stroke-width:.4;stroke-linecap:butt;stroke-linejoin:miter;stroke:#000;stroke-opacity:1;stroke-miterlimit:4" transform="scale(.03906 .03958)"/><path d="M345.1 162.336c-4.6-1.58-8.8 4.638-9.5 10.263-.9 7.006-11 9.375-5.4 20.131 1.2-6.809 5.7-10.658 9.3-10.855s9-.987 11.3-5.329Zm14.7 27.532c-5.4 1.283-6.2 8.487-2.3 13.619 3.3 4.44 13.7 3.454 13.4-.987Zm15.3 43.421c.3-4.736-7.2-6.513-10.8-5.625-3.6.889-10.5-.098-12-3.947-1.4 3.06.5 6.513 5.7 8.19 4 1.185 3.9 3.948 2.7 5.429 3 .493 11.7.493 14.4-4.047Zm0 0" style="fill-rule:nonzero;fill:#fff;fill-opacity:1;stroke-width:.4;stroke-linecap:butt;stroke-linejoin:miter;stroke:#000;stroke-opacity:1;stroke-miterlimit:4" transform="scale(.03906 .03958)"/><path d="M370.9 203.684c-5.3-2.368-8.4 1.184-10.4 4.638-3 4.935-12.1-1.381-15.2 5.23 4.2-1.776 8.4 2.073 10.4 3.356 5.7 3.651 16.6 2.566 18.2-6.217Zm0 0" style="fill-rule:nonzero;fill:#fff;fill-opacity:1;stroke-width:.4;stroke-linecap:butt;stroke-linejoin:miter;stroke:#000;stroke-opacity:1;stroke-miterlimit:4" transform="scale(.03906 .03958)"/><path d="M374 209.803c-5.3 4.046-7.4 8.783-7.2 12.04.1 3.157 4.6 10.262 9.5 10.657 2.8-5.822 4.3-17.96-2.3-22.697Zm-22 24.868c0-1.974 2.8-2.664 4.8-1.974 1.9.592 4.9 2.467 3.8 4.639Zm-29-10.658c-.5-2.27 3.2-6.316 8.2-4.145 5 2.27 5.7 6.415 3.6 8.093Zm0 0" style="fill-rule:nonzero;fill:#fff;fill-opacity:1;stroke-width:.4;stroke-linecap:butt;stroke-linejoin:miter;stroke:#000;stroke-opacity:1;stroke-miterlimit:4" transform="scale(.03906 .03958)"/><path d="M335.2 228.355c-.4-1.283 3.3-3.848 9.4-2.368 6.2 1.579 7.7 5.625 7.5 8.684Zm-12.9-4.243c3.3-2.369 2-7.007-.9-8.487-5.2-2.664-3.3-9.178-6.7-10.56-3.3-1.282-6.5-3.552-6.7-5.92-1.6 3.256-.6 6.118 1.7 8.29 2.3 1.973-1.8 10.361 1.2 12.532Zm-69-1.776c-2.7-4.244-9.1-3.553-11.8-.494-2.7 2.96-2.3 7.303.2 9.276Zm15.5-6.316c-1-5.724-7.9-6.316-11.6-4.934-3.8 1.381-6.3 7.105-3.9 11.25Zm0 0" style="fill-rule:nonzero;fill:#fff;fill-opacity:1;stroke-width:.4;stroke-linecap:butt;stroke-linejoin:miter;stroke:#000;stroke-opacity:1;stroke-miterlimit:4" transform="scale(.03906 .03958)"/><path d="M279 215.23c2.5-4.737-2.3-11.842-7.7-12.829-4.5-.987-9.8-.888-11.6-5.329-1 3.85 1.8 6.316 5.2 8.487 3.3 2.27-.6 7.796 4.8 11.053Zm0 0" style="fill-rule:nonzero;fill:#fff;fill-opacity:1;stroke-width:.4;stroke-linecap:butt;stroke-linejoin:miter;stroke:#000;stroke-opacity:1;stroke-miterlimit:4" transform="scale(.03906 .03958)"/><path d="M278.6 215.428c-1.2-3.454 1.1-7.994 5.7-7.6 4.7.297 7.3 3.554 5.3 7.896Zm0 0" style="fill-rule:nonzero;fill:#fff;fill-opacity:1;stroke-width:.4;stroke-linecap:butt;stroke-linejoin:miter;stroke:#000;stroke-opacity:1;stroke-miterlimit:4" transform="scale(.03906 .03958)"/><path d="M288.9 215.724c-.7-3.652 2.2-7.796 6.8-6.81s6.6 4.639 4 8.487l-10.8-1.776Zm0 0" style="fill-rule:nonzero;fill:#fff;fill-opacity:1;stroke-width:.4;stroke-linecap:butt;stroke-linejoin:miter;stroke:#000;stroke-opacity:1;stroke-miterlimit:4" transform="scale(.03906 .03958)"/><path d="M299 217.303c-.4-3.652 2.7-7.6 7.2-6.415s6.4 5.033 3.6 8.684l-10.7-2.27Zm-77.6 59.013c-8.7 0-10.8 1.973-12 10.954-1.6 11.052 13.5 12.335 12-10.954Zm0 0" style="fill-rule:nonzero;fill:#fff;fill-opacity:1;stroke-width:.4;stroke-linecap:butt;stroke-linejoin:miter;stroke:#000;stroke-opacity:1;stroke-miterlimit:4" transform="scale(.03906 .03958)"/><path d="M225.2 264.671c-13.2-4.934-20.4 15.987-33.6 12.237 4.7 7.5 16.1 0 20.4.79 7.2 1.282 22.8-1.382 13.2-13.027Zm-8.6 28.717c-6.6-2.96-13.6 7.007-12.4 11.546 1.7 5.428 16.7.987 12.4-11.546ZM186 336.711c3.6.986 8 2.96 7.2 9.967-.8 7.006-14 21.118-25.8 22.006-11.8.691-16 15-26.3 11.053 9.6-1.875 9.6-12.632 17-16.086-5.4-1.973-8.2 10.362-15.2 10.362s-10.3 11.053-18.8 10.263-9.3 13.52-26.4 13.717c-13 .1-29 15.296-34.9 8.685 12.7-1.777 17.8-8.783 25.3-16.48 12-12.336 25.7-6.81 30.4-17.665a32.47 32.47 0 0 1-18.3 5.329c-8-.198-16.6 12.631-25.5 7.006 5.1-.69 8.5-2.861 13.9-8.585 5.5-5.822 13.7-1.974 20.1-7.994 10-9.177 18.7-1.48 28.3-13.026-2.7-1.381-8.5-.493-13.9 2.467-5.4 2.763-12.3-2.072-18.5 1.382.7-7.599 15.2-3.355 24.2-8.487 10.2-6.02 18.6-4.243 26.6-3.553-11.2 0-15.5-10.658-31-7.598-6.7 1.381-12.1-9.277-18.8-3.849.2-4.046 7.2-7.204 14.4-3.355 7.2 3.947 10.1-3.356 24.5 5.723 6 3.75 16.1-2.368 22.5 1.58-.8-2.37-4.5-3.948-8.8-3.553 2.7-5.625 20.2-4.934 27.8.69Zm0 0" style="fill-rule:nonzero;fill:#fff;fill-opacity:1;stroke-width:.4;stroke-linecap:butt;stroke-linejoin:miter;stroke:#000;stroke-opacity:1;stroke-miterlimit:4" transform="scale(.03906 .03958)"/><path d="M197.4 328.322c-5.6-4.44-13.5.889-19-1.184 0 3.553 1.9 8.98 7.8 11.053 1.8-1.283 10-8.388 11.2-9.869Zm0 0" style="fill-rule:nonzero;fill:#fff;fill-opacity:1;stroke-width:.4;stroke-linecap:butt;stroke-linejoin:miter;stroke:#000;stroke-opacity:1;stroke-miterlimit:4" transform="scale(.03906 .03958)"/><path d="M206.3 315.79c-8.9-4.441-10.4 6.71-17.4 4.44.3 3.158 2.9 7.204 8.5 8.092Zm0 0" style="fill-rule:nonzero;fill:#fff;fill-opacity:1;stroke-width:.4;stroke-linecap:butt;stroke-linejoin:miter;stroke:#000;stroke-opacity:1;stroke-miterlimit:4" transform="scale(.03906 .03958)"/><path d="M211.6 305.625c-13.1-5.132-14.8 7.5-22.5 4.934 1.8 4.441 12.8 6.81 18.5 5.23Zm18-55.263c-3.5-4.934-10.8-.987-12 4.934-1.1 5.822 1.7 13.915 6.6 12.04Zm0 0" style="fill-rule:nonzero;fill:#fff;fill-opacity:1;stroke-width:.4;stroke-linecap:butt;stroke-linejoin:miter;stroke:#000;stroke-opacity:1;stroke-miterlimit:4" transform="scale(.03906 .03958)"/><path d="M238.5 234.967c-6-1.48-13-.79-12.2 5.033-2.4 1.086-3 8.684 3.3 10.362Zm0 0" style="fill-rule:nonzero;fill:#fff;fill-opacity:1;stroke-width:.4;stroke-linecap:butt;stroke-linejoin:miter;stroke:#000;stroke-opacity:1;stroke-miterlimit:4" transform="scale(.03906 .03958)"/><path d="M242.5 231.02c-6-7.007-12.5-6.908-16.2-4.046-6.9 5.526-13.5 2.467-13.7 7.796 4.1-3.158 7.8.592 11-.494 3.4-1.184 5.9 5.33 15.2 2.665Zm-14.3 103.914c.9 1.678 6.4 2.369 9.1-.395 3.6-3.848-.3-14.21-6-15-5.7-.69-6.2 11.744-3.1 15.395Zm0 0" style="fill-rule:nonzero;fill:#fff;fill-opacity:1;stroke-width:.4;stroke-linecap:butt;stroke-linejoin:miter;stroke:#000;stroke-opacity:1;stroke-miterlimit:4" transform="scale(.03906 .03958)"/><path d="M221.8 335.132c8 2.96 11.5-3.75 7.2-7.994a90 90 0 0 1-7.2 7.994Zm0 0" style="fill-rule:nonzero;fill:#fff;fill-opacity:1;stroke-width:.4;stroke-linecap:butt;stroke-linejoin:miter;stroke:#000;stroke-opacity:1;stroke-miterlimit:4" transform="scale(.03906 .03958)"/><path d="M191.4 346.184c-1.6 4.737-9.6 5.428-18.6 19.836s-17.6 8.388-19.8 18.256c10.8-8.684 19.3-2.96 25.8-11.546 9.7-13.125 17.8-11.25 21.6-20.033 5.4-12.73 29-12.434 30.4-32.27-8-1.48-33.3 19.836-39.4 25.757ZM394.6 151.48c10.3 3.454 10.5 16.678 22.4 21.119s13 15 22.7 12.434c-9-2.566-8.4-12.928-17.8-15.494-11-3.059-15.2-19.835-24-22.4m44 74.308c1.8 4.145 1.5 11.448-5 13.323 3.5 2.27 8.7.197 11.5-4.54-4.2 9.375-1.4 17.862 5.3 19.54-3.2-6.612 4-9.671 1.7-14.013 4.2 1.973 8 7.697 7.8 11.348 5.6-6.217-4-14.506-2.3-20.329ZM375 287.566c-6.3-5.428-9 1.579-12-.987-3-2.171-6.8-2.467-8.3-.296 5.4.197 2.8 4.44 13.3 5.428-10.5.69-8.6 12.532-15.6 11.842 7.4 7.006 11.3-6.217 17.4-4.046-1.8.493 2.8 4.736-.4 10.361 5.2-.098 7.3-7.302 8-10.954Zm-139 60.197c-2.2-1.974-9-2.862-11.5-1.283-2.6 1.48-1.7 1.974 1.4 2.171 3.1.296 7 5.23.4 5.527-3.1.098-2 7.598-8.5 8.092 2.6 3.256 10.2 1.085 12.9-2.369-.5 2.862 3.3 5.527 1.8 8.98 4.7.494 2-9.67 9.5-9.177-3 .395-1.8 7.401 3.6 5.625-3.2 1.48-1.5 5.23 2 4.342-2.2.69-3 3.75.2 5.428 3.1-4.342-.4-19.54-11.7-27.336Zm280.6-142.105c6.7.592 13.1-2.763 16.6-8.487a17.88 17.88 0 0 0 0-18.651c-3.5-5.724-9.9-8.98-16.6-8.487-9.3.69-16.6 8.487-16.6 17.862 0 9.276 7.3 17.072 16.6 17.763Zm0 0" style="fill-rule:nonzero;fill:#fff;fill-opacity:1;stroke-width:.4;stroke-linecap:butt;stroke-linejoin:miter;stroke:#000;stroke-opacity:1;stroke-miterlimit:4" transform="scale(.03906 .03958)"/><path d="M423.4 227.171c5.5-5.033 13.7-7.697 19.4-3.75 5.6 3.75 24.4 8.388 33.7 1.974 9.3-6.415 13.7-9.77 17.8-8.98 3 4.539 6.8 6.907 11.4 7.203 1.4 1.58 6.5 2.764 9.3 2.468 4.1.986 9.1-.297 13.1-4.639 6.2.987 12-3.75 14.2-10.756 6.6-.691 7-7.994 2.8-13.027-3.8-.69-.9-13.717-14.9-11.15 6 3.552 1.4 10.756 6.3 14.21-3.3 0-7.7 1.381-8.7 6.414 1.3-3.454-.2-5.822-1-6.513 0-3.06-6.5-10.362-12.7-7.599 4.4.987 2 7.994 5.2 10.757-2.5.099-4.8 1.283-6.2 3.355-1.7-3.06-7.6-6.02-11.2-6.316 0-.986-.2-3.059-.7-4.144-1.6-3.06-3-6.81-2.3-11.448a49.8 49.8 0 0 0-7.2 11.349c-4.9-3.355-17 1.48-22.7 2.862-5.7 1.283-24.7-1.875-29-6.415-6.1-4.934-13.3-8.29-21-9.868-11-3.158-11-15.197-23.1-23.487-.3 15 22.4 62.467 27.5 67.5ZM297.2 341.053c9.6 0 17.3-7.698 17.3-17.27s-7.7-17.27-17.3-17.27-17.3 7.698-17.3 17.27 7.7 17.27 17.3 17.27Zm0 0" style="fill-rule:nonzero;fill:#fff;fill-opacity:1;stroke-width:.4;stroke-linecap:butt;stroke-linejoin:miter;stroke:#000;stroke-opacity:1;stroke-miterlimit:4" transform="scale(.03906 .03958)"/><path d="M256 327.829c3.5 4.44 9.4 4.145 11.9 3.849 2 5.427 8.6 5.23 11.4 8.19 2.8 3.06 12.5 2.764 15.3.987-2.5-.197-5.9-1.776-9-4.44-4-3.257-2.2-9.77-5.2-12.04 1.9-2.368 2.7-5.526 2.2-8.586 2.4-1.381 4.2-3.65 4.4-4.934 3.6-.098 7-1.579 9.6-4.046 2.2 1.974 7.7-.592 10.7 2.763.6-8.486-7.5-12.927-13-10.065-2.1-1.185-7.9-.395-9 1.085-1.7-.79-6.8 1.776-9 3.553 2.5-1.48 2.9-5.724 1.9-7.204 2.2-1.086 4.6-3.948 4.9-6.02 3 .493 7.7-1.579 9.7-1.085-3.3-4.441-8.8-6.02-14.5-5.527-5.9.296-8.4 4.342-9.2 8.783-3.4 2.072-4.6 8.98-3.3 11.546-2 0-3.9 1.875-4.6 2.96-3-1.184-6.2-1.874-9.4-1.973m1.3-7.007c-1.2-3.454.3-6.414 1.1-8.98 2-6.81.8-8.684-5.3-7.697.4 5.723 1.8 11.447 4.2 16.677Zm0 0" style="fill-rule:nonzero;fill:#fff;fill-opacity:1;stroke-width:.4;stroke-linecap:butt;stroke-linejoin:miter;stroke:#000;stroke-opacity:1;stroke-miterlimit:4" transform="scale(.03906 .03958)"/><path d="M248.6 282.336c1.6 1.578 7 2.27 7.6-2.665.7-5.526-1.6-7.796-6.5-5.526-.4 1.283-.8 6.414-1 8.19Zm0 0" style="fill-rule:nonzero;fill:#fff;fill-opacity:1;stroke-width:.4;stroke-linecap:butt;stroke-linejoin:miter;stroke:#000;stroke-opacity:1;stroke-miterlimit:4" transform="scale(.03906 .03958)"/><path d="M249.8 273.947c2 .79 6.5 2.467 9-2.368 2-3.947-.7-7.007-5-6.81-1 1.185-3 5.33-4 9.178Zm0 0" style="fill-rule:nonzero;fill:#fff;fill-opacity:1;stroke-width:.4;stroke-linecap:butt;stroke-linejoin:miter;stroke:#000;stroke-opacity:1;stroke-miterlimit:4" transform="scale(.03906 .03958)"/><path d="M253.6 264.375c.5 1.579 5.8 6.71 9.6 3.06 3.9-3.75 3.9-9.376-1.9-11.35-1.5.198-6.2 5.626-7.7 8.29Zm0 0" style="fill-rule:nonzero;fill:#fff;fill-opacity:1;stroke-width:.4;stroke-linecap:butt;stroke-linejoin:miter;stroke:#000;stroke-opacity:1;stroke-miterlimit:4" transform="scale(.03906 .03958)"/><path d="M261.3 255.987c1.1 3.355 4.8 8.783 11.5 6.316s3.8-10.954.7-12.73c-4.5 1.282-8.6 3.552-12.2 6.513Zm0 0" style="fill-rule:nonzero;fill:#fff;fill-opacity:1;stroke-width:.4;stroke-linecap:butt;stroke-linejoin:miter;stroke:#000;stroke-opacity:1;stroke-miterlimit:4" transform="scale(.03906 .03958)"/><path d="M273.5 249.572c-.5 2.96 0 10.658 9.2 10.56 9.1-.198 6.6-10.954 4.2-12.435-3.7 0-10 .1-13.4 1.974Zm0 0" style="fill-rule:nonzero;fill:#fff;fill-opacity:1;stroke-width:.4;stroke-linecap:butt;stroke-linejoin:miter;stroke:#000;stroke-opacity:1;stroke-miterlimit:4" transform="scale(.03906 .03958)"/><path d="M287.3 247.993c-1 2.27-3.3 16.678 14.6 12.73 2.3-.493 8.3-13.815-14.6-12.63Zm0 0" style="fill-rule:nonzero;fill:#fff;fill-opacity:1;stroke-width:.4;stroke-linecap:butt;stroke-linejoin:miter;stroke:#000;stroke-opacity:1;stroke-miterlimit:4" transform="scale(.03906 .03958)"/><path d="M297.1 249.375c-1.8 1.776 2.8 16.283 15 13.914 12-2.467 1.9-16.282-15-14.013Zm0 0" style="fill-rule:nonzero;fill:#fff;fill-opacity:1;stroke-width:.4;stroke-linecap:butt;stroke-linejoin:miter;stroke:#000;stroke-opacity:1;stroke-miterlimit:4" transform="scale(.03906 .03958)"/><path d="M307.4 251.645c-2 3.947 1 15.79 15.9 15.79 13.5 0-.7-15.593-15.9-15.79Zm0 0" style="fill-rule:nonzero;fill:#fff;fill-opacity:1;stroke-width:.4;stroke-linecap:butt;stroke-linejoin:miter;stroke:#000;stroke-opacity:1;stroke-miterlimit:4" transform="scale(.03906 .03958)"/><path d="M319.1 255c-1 2.27-2.1 14.803 15.5 15.888 12.7.79 9.6-17.27-15.5-15.888Zm0 0" style="fill-rule:nonzero;fill:#fff;fill-opacity:1;stroke-width:.4;stroke-linecap:butt;stroke-linejoin:miter;stroke:#000;stroke-opacity:1;stroke-miterlimit:4" transform="scale(.03906 .03958)"/><path d="M338 260.329c-2.1 3.849-4.4 13.52 14.9 14.31 12.3.493 4.7-14.014-14.8-14.31Zm0 0" style="fill-rule:nonzero;fill:#fff;fill-opacity:1;stroke-width:.4;stroke-linecap:butt;stroke-linejoin:miter;stroke:#000;stroke-opacity:1;stroke-miterlimit:4" transform="scale(.03906 .03958)"/><path d="M354.1 263.29c-2.8 3.848-.7 11.447 6.5 12.828 9 1.777 10.3-6.71 4.1-10.855-6.2-3.947-10.6-1.974-10.6-1.974Zm0 0" style="fill-rule:nonzero;fill:#fff;fill-opacity:1;stroke-width:.4;stroke-linecap:butt;stroke-linejoin:miter;stroke:#000;stroke-opacity:1;stroke-miterlimit:4" transform="scale(.03906 .03958)"/><path d="M363 264.967c-2.1 3.75-.9 12.434 12.8 12.434 2.8 0 13.6-10.954-12.9-12.335Zm-105.9 168.06c11 0 20-8.98 20-20.034 0-11.052-9-20.032-20-20.032s-20 8.98-20 20.032c0 11.053 9 20.033 20 20.033Zm0 0" style="fill-rule:nonzero;fill:#fff;fill-opacity:1;stroke-width:.4;stroke-linecap:butt;stroke-linejoin:miter;stroke:#000;stroke-opacity:1;stroke-miterlimit:4" transform="scale(.03906 .03958)"/><path d="M404.1 141.71c-2.2 2.369-4 5.132-5.4 7.994-6.7 20.033 11.2 35.033 21.6 56.743a62.94 62.94 0 0 1-5.6 60.691c-4.4 5.724-3.1 7.5-8.8 13.323-2.2 2.368-4.6 5.23-3.8 13.42 3.6-1.282 8.7 1.974 9.7 5.033 2.6-1.381 6.2-.888 7.5.691 4.4-1.973 8-.987 11.9 2.96 3.3-.394 7 0 10.3 3.75 1.8-3.65 5.4-5.032 8-4.144-.3-4.638 4.3-7.993 8.4-6.217-.7-2.665.2-5.428 2.2-7.303 2.1-1.875 5-2.565 7.6-1.677 4.7-3.553 14-3.849 18.6 1.48-8.3-2.27-8 6.513-15 5.724 1.8 5.131-2.8 8.092-7.4 9.868 3-1.48 6.2-3.158 7.2-1.382 2.6-2.27 7.7-1.381 9-.296 3.4-.986 6.7-.197 8.2 3.948 4.7 2.763 7.8 9.967 4.4 15.395-1-5.625-4.9-5.428-6.4-7.698-3.6 1.283-7.2 1.283-8.3-.987-2 1.974-9 3.849-12 .79-1.2 4.54-5.2 8.487-9.9 8.487 1.3 3.552-2.3 9.67-5.1 12.829 4.4 2.27 3 7.5 2 10.559 6.8.987 1 7.006 12.7 10.855-5.7 1.776-16.8 0-18.3-7.007-5.7-.197-9.5-5.92-9.3-11.842-4.4-4.144-5-9.967 1-14.21-5.1 1.579-8-6.71-15.4-3.257-3.7 1.678-13.5-1.184-13.4-4.638-1.5 2.467-11 1.48-12.2-2.862-3.1 1.678-10.3-1.085-10.2-5.427-4 1.776-9.4-1.382-9.1-5.527-3.8-.493-4.2-3.848-4-6.71-3.3-1.58-2.4-4.737-1-8.586-2.4-2.566-1.4-6.217.4-9.572-2.5-2.566-2-5.625-1.3-9.276-12.3-.987-27.8-4.046-63.3-14.902-53.6-16.579-68 22.204-56.2 46.382 13.7 28.026-1.5 33.947 3.1 54.77 5 .986 7.5 5.23 7.2 9.572 3 .099 5 2.862 4 8.092 2.8-.493 5.6.395 7.6 2.27 1.8-3.454 7.8-4.244 10.8-.296 6.7-.494 10.1 4.934 9.8 11.546a18.09 18.09 0 0 1-1.5 19.342c.4-2.665 0-6.513-.1-8.882-.3-4.243-6.2-5.131-5.6-8.585-3 .296-6-1.48-7-3.75a6.68 6.68 0 0 1-6.6 1.283c3.4 1.48 6.2 7.697 5.1 11.842 1.8 3.059 1.4 8.783-.7 11.151-1 5.033-5 6.81-10 4.638 2.9-1.776 3.9-5.033 3.8-7.697-1.7-1.678-2.7-3.947-2.9-6.316-5 .79-12-3.454-13.2-5.23-5.3 0-10.4 2.17-14.2 5.92-3.7 3.75-5.8 8.882-5.8 14.211-.6-4.046-5.8-8.19-5.1-11.644-3.1-9.573 1.3-18.454 13.9-20.23-1.6-3.652 3.8-7.303 1.8-11.448-4-7.303-9-14.013-14.7-20.033 4.4-7.5 3-17.566.5-23.783-3.7-8.881-7.2-6.612-20.3 7.698-21.4 23.585-50 17.072-75.2 32.565-6.7 3.948-13.4 5.625-6.2-1.579s26.2-14.407 38.6-20.625c23.2-11.644 42.8-30.888 50.5-68.486 18.1-88.421 85-59.21 127.2-42.83 39.7 15.494 32.5-19.539 12.4-40.657-24.2-25.362-19.3-45.296-8-61.382 20.3-2.763 59.4 4.342 51.5 11.152Zm0 0" style="fill-rule:nonzero;fill:#fff;fill-opacity:1;stroke-width:.4;stroke-linecap:butt;stroke-linejoin:miter;stroke:#000;stroke-opacity:1;stroke-miterlimit:4" transform="scale(.03906 .03958)"/><path d="M475.9 358.816c12.2 0 22.1-9.869 22.1-22.105 0-12.139-9.9-22.007-22.1-22.007s-22 9.868-22 22.007c0 12.138 9.8 22.006 22 22.006Zm0 0" style="fill-rule:nonzero;fill:#fff;fill-opacity:1;stroke-width:.4;stroke-linecap:butt;stroke-linejoin:miter;stroke:#000;stroke-opacity:1;stroke-miterlimit:4" transform="scale(.03906 .03958)"/><path d="M391.8 142.697c-5 21.71-.8 31.48 6.4 40.954 14.9 19.737 26.8 64.638 9.8 94.046" style="fill:none;stroke-width:.4;stroke-linecap:butt;stroke-linejoin:miter;stroke:#000;stroke-opacity:1;stroke-miterlimit:4" transform="scale(.03906 .03958)"/><path d="M417.5 252.336c2-.691 6-3.257 6.8-7.402m-5.2-2.072c.6-3.651 6.4-5.23 6.5-9.276m-6.4-5.23c-.4-3.85 5.8-7.402 4.9-11.152m-8.3-2.665c-.5-2.27 5.2-6.315 3.6-9.868m-7.8-3.75c-1.2-2.467 2.7-5.23 1-7.796m-7.2-3.06c-.4-1.578 2-5.23.7-7.5m-6.9-5.13c.5-.692 2.6-2.27 1.8-4.146m-6-5.328c.8-.395 3.3-1.185 3-2.961" style="fill:none;stroke-width:.4;stroke-linecap:round;stroke-linejoin:miter;stroke:#000;stroke-opacity:1;stroke-miterlimit:4" transform="scale(.03906 .03958)"/><path d="M266 410.921c-5-1.776-11.5.69-12.8 5.033m3.9 4.046c.6-4.44 7.3-6.316 9.3-4.342-4.2-2.27-6.3 6.02-2.5 6.217m34.6-103.816c-3 1.678-4 7.204 0 11.546m4.6-10.164c-2.1 1.776-2 7.204 1.2 8.487-2.7-2.073 0-5.33 2-5.428 1.9-.099 3.2 2.171.8 4.54m177 5.131c-7.2-1.974-13 6.415-6.4 13.915-.2-7.204 5-11.941 11.3-10.658m-3 4.934c-1.5 0-2.7 1.283-2.7 2.763 0 1.382 1.2 2.763 3.2 2.763 1.3 0 2.4-1.48 2.4-2.664m22.6-161.053c1.2 4.44 7.2 6.316 12 5.23m0-2.763c-3.7.099-6.8-3.454-6.6-6.316 0 2.171 5 3.158 6.6 1.777" style="fill:none;stroke-width:.4;stroke-linecap:round;stroke-linejoin:round;stroke:#000;stroke-opacity:1;stroke-miterlimit:4" transform="scale(.03906 .03958)"/><path d="M267.9 331.678c-1-2.566 3-5.132 3.2-7.6.1-2.466 4.6-4.341 9.3.198m-2.2-27.335-2.5 1.184m11.4 12.73c-1.1 0-3.4 0-4.6-.888m0 5.822c-.8.494-2.8 1.185-4 1.48m-40.1 76.284c-.2 2.368 2.2 5.723 3.4 6.71m6.6-12.138c-1.4 2.27-1.9 4.934-1.3 7.599m20.5 0c-2.3-1.48-.8-5.428-1-7.994-.3-2.664 2.7-6.71 8.5-3.256M246 381.02c2.3-.395 4.7-.296 6.3.394m23-7.697c-.8 1.184-1.3 2.566-1.4 3.947m12.3-4.243c-1.8 0-3.4 1.283-4.2 2.566M261.2 307.5c2 .69 7.4 4.046 7.6 7.401m14.3-24.177c-6.3-.099-8.8-6.513-4-6.513m15.3 15.197c-2.4.987-1.3 5.23 2.2 7.303m-17.3 33.059c-1.2-1.58.4-5.921 4.4-4.638m5 51.71c.3-4.046 5.2-6.217 7.2-1.875m-25.5 13.026c-.3-4.342 2-5.723 3.8-6.02 2-.197 4.7 1.382 6 4.244m-48.1 4.934c.2-2.565 2.4-5.23 4.7-4.835m231-109.441c-1.7 1.184-2.8 6.71 3.5 7.204m-13.3 1.875c0 .69.8 1.579 1.3 2.072m29 8.29c-1.6-1.283-6 3.947-2 7.697m-39 35.625c-.9-3.75 2.5-4.737 5.8-3.947m-14-22.204c2-1.184 4-2.665 6.4-3.257m-7.4 17.467c0-2.96 1.6-5.723 3-6.414m8.4-29.112c-.2 3.257.7 6.513 2.4 9.276m28.2-9.079q-3 .74-4.2 2.96m2.1 7.698q1.65-1.332 2.4-2.368m46.3-110.132c0 3.553-4.5 5.527-7.5 3.257m17.3-3.06c2 1.48 8.9 0 7.3-4.045m-15.8 24.77c-1.9-.593-3.6-1.678-4.9-3.06m19.1-7.697c-2.3.493-3.9 0-5-.494m-31.6 13.421c2.3-.098 4.5-.69 6.5-1.579M502 200.822c-1.7-.197-3 0-3.9.79m29.8 5.526c-.5 1.974-1.5 3.75-3 5.132" style="fill:none;stroke-width:.4;stroke-linecap:round;stroke-linejoin:miter;stroke:#000;stroke-opacity:1;stroke-miterlimit:4" transform="scale(.03906 .03958)"/><path d="M497.5 212.763c3.2-1.381 7.2 9.573 15 5.724m.6-11.349a11 11 0 0 0-1.8 5.526" style="fill:none;stroke-width:.4;stroke-linecap:round;stroke-linejoin:round;stroke:#000;stroke-opacity:1;stroke-miterlimit:4" transform="scale(.03906 .03958)"/><path d="M359 190.362c1-.198 2.9-.494 3.3-1.776M226.5 310.263c3.9 2.27 6.6 5.921 5 11.448M403.6 178.52c1.2.79 5.5.79 8 0m3 2.566c0 1.776.5 8.585-3 9.967m1.3-.79c3.2 1.086 9.6.592 11.7-5.23m-4.5 4.934c1.7 2.665 2.2 7.599-2.8 10.362m4-6.02c3.8 1.184 12.4 1.382 11.5-6.02m-3 6.02c2.7 3.454 14 7.796 12.2.296m-22.5 9.967c4.3 1.086 10.5-1.875 8-9.572m12.3 3.947c.6 2.96 15 5.921 13.1-.79m-2.7 3.948c2.7 6.217 17 5.724 12.5-2.566m-2.3 6.415c2.8 3.454 15.5 1.48 10.4-6.908m-.1 6.71c7.9 6.02 17-2.467 7-8.684m4.6 6.81c7 5.526 15.5-4.441 9.4-7.303m-64.4 5.033c2.2.592 6.8.395 7.9-3.651m-1.8 2.763c-.2 5.822 9.6 7.993 12.1 1.283m-3.3 3.65c1.8 3.948 10.5 5.429 11.9-.098m-1.4 2.665c1.4 3.75 8.9 3.355 11-.592m-2.8 2.565c2.3 5.033 11.9 5.033 14-2.27m-1.6 3.159c3.7 2.27 11.7 1.381 11-5.823m-1.5 5.23c5.6 4.54 13.4.1 9.5-7.5m-.3 13.421c3-.493 4.5-6.414 1.4-7.993m-70 8.98c6-3.256 7.3-8.98 3-14.506m2.2 8.881c3.9 2.369 11.2-.197 12.5-5.822m-7.2 6.414c2.2 2.862 2.6 6.316-.3 9.573m2-5.921c6.9-4.244 15.4 3.552 9 8.388m-1-8.783c1.5-.395 4.2-3.257 4.4-6.414m-1.4 9.375c2.9-2.961 22.2 3.059 10 9.276m-1-17.369c3.8 1.382 5.7 6.71 0 8.487m5 4.441c4-4.342 17-1.579 12.3 3.75m-3.1-5.428c2.3-7.894 16.1-3.059 11.6.198m-14.4-7.994c.4 1.48.5 5.23-2 7.402m13.6-9.08c.6 1.777.3 3.75-.8 5.33m9.5-5.23c.8 1.48 2 4.144-.8 6.315m-109.4-65.526c.1 7.303 2.7 12.237 12.6 7.599m-9.5 1.184c-5 6.513.6 13.618 10.3 6.513M365 165c6.7 7.204 18.7 1.974 11-8.98m8 15.197c-1.2 7.105 4.6 8.487 9.3 5.33m-34.2-10.363c1.2 7.105 8.5 12.73 15.6 8.388m-6.9 1.382c0 10.263 14 11.349 17.3.888m-5 6.316c4.5 9.375 14.3 5.526 17.5-.099m-27.4-14.704c1.8 4.54 5.4 9.573 13.7 5.823m-39.5-7.994c1.2 3.75 7.9 8.191 15.6 3.06m-10.8 1.776c-4.2 6.02 4 11.644 14 2.664m-9.1 4.737c1.6 8.487 5 15.395 17 4.342m-6 4.44c4.4 5.429 11.1 8.685 17.4-.394" style="fill:none;stroke-width:.4;stroke-linecap:butt;stroke-linejoin:miter;stroke:#000;stroke-opacity:1;stroke-miterlimit:4" transform="scale(.03906 .03958)"/><path d="M387.3 188.783c-.4 6.513.8 9.67 5.9 9.375 4-.197 7.7-3.257 9.9-6.612m-10.8 6.612c-.2 7.401 5.6 13.224 16.5 5.724m-12 3.059c-2 5.427 4.1 14.506 16.2 9.868m-41.9-24.572c-.7 7.006 5.8 11.743 16.4 2.664m-11.2 5.132c.4 5.724 7 12.73 16.6 2.664m-12 4.737c-.7 9.869 8.4 12.632 16.1 5.033m-29.8-12.434c2 .197 3.7-1.678 4.7-3.06m-.4 10.264c1.8.395 5-1.283 6-3.355m-1.4 15c2 2.27 9 .69 9.9-2.27m-2.2 2.17c3.8 8.981 14.1 8.685 18.4-1.48m-2 3.553c2 5.33 6.9 8.684 14.9 6.81m-11-1.382c-4.5 7.303 1.4 15.987 11.5 7.5m-9 3.553c-.5 4.539 3.7 9.868 9.5 10.46m-28.6-23.98c-1.5 10.362 6 15.395 15.3 9.77m-26.2-4.737c2.4 1.875 6.8 2.072 11 .592m5 5.92c-2.4 8.882 6.6 15.1 14.3 5.33M380 230.23c.2 4.44 4.5 9.374 12.1 7.993m21.3 8.98c-5.2 3.355-6.2 9.572 1 13.618m-13.6-15.394c.2 5.131 2.7 8.19 8.5 8.684m-16.1-11.448c-7.8 7.007-.2 15.297 9 8.29m-3.6 2.27c-2.6 8.092 7 12.927 12.2 4.737m-28.2-22.007c-2.8 8.092.8 13.224 7.4 12.73m-17.6-14.309c.4 4.836 4.5 6.513 9.2 5.428m-6.2-.395c-3.5 6.71 1.8 10.263 8.8 7.796m21 15c-1 4.243-.4 7.204 5.9 8.684m-5.4-2.664c-7.6 3.355-8.3 10.756-2.4 15.493m-3.8-23.684a7.71 7.71 0 0 0-2.6 6.414c.3 2.467 1.7 4.639 3.8 5.823m-35-35.724c-4.3 4.243-.2 16.184 9.5 9.671m15.7 5.33c-6 4.933-3.3 13.716 6.5 11.348m-16.3-15c-3.1 8.684-.2 11.842 6.8 11.94" style="fill:none;stroke-width:.4;stroke-linecap:butt;stroke-linejoin:miter;stroke:#000;stroke-opacity:1;stroke-miterlimit:4" transform="scale(.03906 .03958)"/><path d="M359.3 236.053c-1.9 1.381-3.2 3.454-3.5 5.822s.4 4.638 2 6.414c2.3 2.566 6.7 1.382 8-1.875M348.2 232.6c-5.9 7.598 0 16.579 8.4 14.013m23.3 8.585c-6 2.073-10.7 7.6-7 12.533 2.3 2.763 11.8 3.158 14.5-7.796M369 248.092c-3.5 5.033-2.4 9.77 4 12.237m-4.4-2.862c-3.8 2.072-6.2 4.54-5.3 9.08m-3.1-16.975c-1.4 6.02.3 9.869 4 11.645m-4.1-4.44c-5.8-.395-8.8 2.072-6.8 7.795m.5-6.414c-5.7-1.974-6.6-7.007-4.1-11.94m-.8 7.598c-6.2.197-9 3.256-9 7.5" style="fill:none;stroke-width:.4;stroke-linecap:butt;stroke-linejoin:miter;stroke:#000;stroke-opacity:1;stroke-miterlimit:4" transform="scale(.03906 .03958)"/><path d="M340.5 229.737c-4.5 1.875-6 7.993-4.3 11.25 1.7 3.355 7 3.651 10.2 1.381M328 224.901c-4.1 4.638.6 13.717 8 11.546m-18.6-15.098c-3.8 5.329.4 14.309 10.3 11.743m.5 25.066c-1-6.316 5.7-10.56 14-2.27m-4-13.026c-2.4 2.17-3.6 5.329-3.3 8.585m-28-33.256c-4.3 7.204.9 13.816 10 11.25m13.8 6.612c-6 6.02-4 12.138.5 15.69m-4.4-8.585c-9.1.099-9.6 10.756-2.2 14.013m-4.7-24.572c-3.8 2.565-5 9.67 1.5 12.533m-1.8 3.355c-3.9-1.776-8.5.395-8.1 4.934m2.3-4.835c-3.5-8.191-13.6-6.81-12.7 1.677m15.5-11.842c-2.1.395-6.5 1.678-8.2 4.934m.6-14.21c-1.6 1.677-2.3 4.046-1.8 6.316s2.1 4.144 4.3 5.032m-14.8-24.473c-.8 5.625 1.4 8.29 8.4 7.796m-6-.691c-2.6 6.71 1 9.671 8 9.276m-6.4-.987c-4.1 4.935-1.3 10.066 2.7 12.237m-4.6-6.02c-7.4-.986-8.5 7.6-6 11.448" style="fill:none;stroke-width:.4;stroke-linecap:butt;stroke-linejoin:miter;stroke:#000;stroke-opacity:1;stroke-miterlimit:4" transform="scale(.03906 .03958)"/><path d="M292.9 215.526c-4.5 1.974-7.1 7.599-4.7 10.954 2.5 3.553 7.4 2.467 10 .592m-8.4.987c-3.8 5.724-.4 10.066 3.6 11.645" style="fill:none;stroke-width:.4;stroke-linecap:butt;stroke-linejoin:miter;stroke:#000;stroke-opacity:1;stroke-miterlimit:4" transform="scale(.03906 .03958)"/><path d="M275.3 214.836c-3 3.059-1.1 9.375 6 9.572 5.9 0 8.8-5.428 7-9.276m-8 9.276c-2.3 5.131-.8 10.658 8 9.77m3.6 7.993c-5.3-2.368-12.6 0-9.5 6.513m-.7-15.592c-2.2 3.06-1.5 7.5 1 10.165m-1.4-1.974c-3.6.69-7.1 2.664-5 8.29m-.5-4.54c-4.6-1.48-10.5 1.974-7 6.71m-.7-4.54c-4-.69-8.7 3.554-4.9 7.797m-1.5-3.454c-3.6.987-7.9 4.934-4.1 8.29m22.3-28.52c-5.2 2.27-5.7 8.092-3.3 12.335m-2.2-22.993c-7.7 3.06-7.6 13.224 1 16.48m-3.7-2.368c-4.6 2.763-5.5 7.894-2.4 11.25m-5.7-29.21c-3 .986-2.8 10.46 5.4 10.262m-13.9-7.105c-6.2 4.145 1.3 14.507 11.3 7.007m-5.5 2.763c-.9 4.145.3 8.783 7.1 9.375m-6.7-3.849c-4.9 1.875-5.8 11.94 3 12.73m-18.6-21.809c-6.3 5.823 5.2 10.855 9.4 2.369m-18.1 7.204c-3.1 3.848 7.7 13.618 12.5-2.764m1.1-.296c.3 4.046 2.7 6.217 7.3 6.514m0 3.65c-7.7 1.284-10.1 10.757-1.6 12.83m-12.5-14.013c-.3 3.552 3.5 6.513 7.7 5.92m3.9 7.797c-7 1.579-7.9 10.559-1.7 9.967m-3.2 8.487c-5.8-1.777-6-8.685-.8-11.25" style="fill:none;stroke-width:.4;stroke-linecap:butt;stroke-linejoin:miter;stroke:#000;stroke-opacity:1;stroke-miterlimit:4" transform="scale(.03906 .03958)"/><path d="M245.7 267.829c-4.9 2.96-3 9.967-.4 10.954s4.7-.197 5-2.369m-.5 9.968c.6 3.355-11.9 1.973-5.5-8.389m0 8.882c-4.2 6.612 2.6 12.04 6.9 6.316m-6.4 1.579c-1.7 5.329 4.7 9.177 8.8 5.033M231 245.428c-2.3 4.638 9.3 6.513 10-3.356m-13.2 10.362c-2.3 9.277 15.2 7.402 10.7-4.638m.4 6.217c2.4 1.086 5.1.987 7.4-.197 2.3-1.283 3.8-3.553 4.2-6.119m-5.3 6.612c.6 2.665 2.3 4.934 4.7 6.316m-13.1-3.947c-.8 5.033 4.3 9.177 10 8.783m-9.1-3.85c-2.8 3.85-3.7 11.25 5.2 11.744M224 262.993c-1.4 4.046 7 8.093 11.8 1.48m-14.4 8.685c-.7 3.06 6.8 7.006 11-5.724m-3.3 6.513c1.8 3.158 7.9 5.724 11.6-.592m-6 3.948c-1.6 4.54 2.7 8.684 7.8 7.5m-17.5-8.487c-1 6.414 6.5 10.066 11 6.809m-15.9-4.046c-2.2 8.19 8.4 11.349 12.4 5.132m-2.7 2.467c.4 4.638 7.6 8.585 13.2 4.835m-26.1-.987c-.5 2.073 8.1 4.145 9.4-3.059m-4.4 4.934c2 5.23 9 6.513 13 0m-2.3 2.566c1 5.033 7.2 7.697 12.8 4.342m2.3 1.974c-1.4 6.513 5.4 11.842 9.6 8.19m-20.6-9.374c-2 7.204 7 11.348 12 7.302m-22.8-10.954c-.5 6.71 4.8 10.757 10.8 7.796m-22.3-7.006c-1.8 4.243 7.8 7.895 12.3 4.145m-18.2 7.697c2.5 2.862 11 0 11.7-6.316m-2.3 4.638c3.1 3.553 10.5 5.625 13.4-2.17m-2.6 3.947c0 5.625 9.8 9.67 13-.592m11.7 1.973c-1 2.763 1.2 7.007 5.7 7.5m-13.9-9.177c-.6 3.059 3.9 7.4 8.7 5.723m.9 1.283c-1.3 3.355-.2 8.092 4.3 7.994m-3.9-1.777c-3.4 2.763-2 7.895 2.9 7.994m-4.6-3.158c-4.8 3.158-3.1 10.263 3.2 9.868M239 313.026c0 7.007 8.7 7.994 10.3 1.58m-3.3 3.947c-1.3 4.243 2 8.29 7.3 7.006m-6.3 42.83c1.2 1.677 6-1.185 4.7-3.948-1.3-2.862-6.4-1.382-5.8 1.677m4.6-2.96c.6-5.526-6-6.415-7.7-1.58m2.4-2.86c1.7-2.863-4-6.711-6.3-2.567m2-1.677c1.6-4.046-4.8-6.02-5.3-2.171m-1.5-5.428c.8-1.974 8-.79 5 3.553m5.5 5.033c2.8-2.566-2-7.797-5-5.922m24 13.816c-2.2.198-4.5 1.777-2.9 6.513 1.2 3.356 6.1 3.454 6.9 1.58" style="fill:none;stroke-width:.4;stroke-linecap:butt;stroke-linejoin:miter;stroke:#000;stroke-opacity:1;stroke-miterlimit:4" transform="scale(.03906 .03958)"/><path d="M260.5 365.921c-2.2-1.48-7 .987-4.8 5.625 1.6 3.454 5.8 1.974 6.4.197m-14 .79c1.2 1.974 6.6.987 7.6-.987m-3.8-5.428c1.2-.79 3.3.198 3.7 1.185m-4-32.96c-3.8 2.466-1.5 9.966 4.3 7.993m-5.6-1.974c-3 2.368-.2 9.67 5.3 6.81m-4.3 0c-2.1 2.17-.1 7.795 5.2 6.71m-6-3.75c-1.2-.494-4.2-.198-5.5 1.776m2.1-28.026c-2.8 2.861-1.4 8.29 3.8 8.782m-4.8-2.96c-4 1.974-4 9.967 4 10.263m-4.3-1.283c-2.3 1.777-1.2 8.783 4.6 7.895m-2.8-.296c-.8.888-1 3.06-.2 3.947m-2.3-6.513c-2 0-4.8 1.48-5.5 3.651m-3.7-7.5c.7-1.973 7.1-1.973 7.6 4.145m.6-7.204c-.9.198-2.6.987-3 2.763m.2-21.71c-2.7 2.664-4 10.56 4.3 12.04m-9.9 4.44c0-2.17 5.8-4.046 7.8-.888M232 322.796c.8 1.579 4.8 3.849 7.2 1.974m-28-14.606c-.1 1.875.7 3.75 2.1 4.935 1.4 1.283 3.2 1.875 5.1 1.579 4.3-.494 5.2-4.145 3.9-6.71m-3.2 6.907c-2.9 3.454.6 8.29 3.8 6.908m-.6-9.375c1.7-.592 7.2-1.382 8.9 1.184m-26.8-.197c-1.3 1.973 6.7 3.947 9.4.197m-2.7 1.875c-.3 2.665 1 7.007 7.6 5.132" style="fill:none;stroke-width:.4;stroke-linecap:butt;stroke-linejoin:miter;stroke:#000;stroke-opacity:1;stroke-miterlimit:4" transform="scale(.03906 .03958)"/><path d="M219.8 326.645c1-2.27-3.8-5.823-7.6-1.875-3.8 4.046.6 8.487 2.9 7.006m-12.4-13.815c-2 3.453 5.5 9.572 9.8 3.848" style="fill:none;stroke-width:.4;stroke-linecap:butt;stroke-linejoin:miter;stroke:#000;stroke-opacity:1;stroke-miterlimit:4" transform="scale(.03906 .03958)"/><path d="M197.7 323.783c-2.7 2.862.7 7.895 4.7 6.316 4.1-1.48 3.7-5.823 2.7-6.908" style="fill:none;stroke-width:.4;stroke-linecap:butt;stroke-linejoin:miter;stroke:#000;stroke-opacity:1;stroke-miterlimit:4" transform="scale(.03906 .03958)"/><path d="M192.5 329.013c-2.2 1.974 0 6.612 3 6.612s4.9-2.368 4.3-5.428m5-1.579c-.4 2.96 4 4.935 6.9 2.171m0-5.427c.5-.592.2-1.678-.5-2.27m-23.4 9.77c-2.5 2.072 3 7.599 6.3 2.566m13.1-3.553c-1.6 1.48 1 5.526 3.6 4.342m-12.4-1.48c.4 2.664 5.8 4.737 9.2.592m-6.3 2.072c-.8 1.777.9 4.54 3 4.244m48.3 11.743c-2 3.948 4.4 8.487 9 3.75m-4.4 2.073c-1 2.072.2 5.131 2 6.217m-8-1.777c.4-1.973 3.2-3.75 5.7-2.862m-9-2.17c.3-1.777 2.6-3.553 4.4-3.06m147.2-77.368c-9.2.098-5.3 14.802 2.6 11.94m-5.6-.986c-1.8 2.862 1.7 7.598 5.6 4.737m-1 .592c-2.8 4.54 6.9 11.447 10.8 4.342m-3.1 2.664c0 4.342 12.5 7.007 10.7-1.48m-1.2 4.638c3 4.934 14 5.428 12.9-2.072m-2.5 5.23c2.3 3.355 13.2 5.428 12.8-1.48m-56.7-40.855c1.5 4.046 6.8 5.427 12.6 3.059m-16-.198c3.7 2.27-1.6 12.83-7.1 8.586m7.2-1.974c4 1.875 8.9.494 10.3-5.23m-2.5 4.44c.4 2.961 4.7 5.231 10.2 4.047m-20.1-.987c5.2 4.44-2.3 13.421-5.7 9.276m7.6-6.02c2.5 1.876 8.8.889 9.4-3.947m-2.8 3.948c.5 3.157 3 4.342 6.4 4.44m-14.4-.098c2.6 3.552 9 4.638 11.9-.1m-2.9 2.665c-.2 3.454 3.6 6.316 7.6 5.527m-21.5 2.072c3.3 1.776 7-4.638 4.1-8.98m-.2 15.69c4 .198 4.5-5.822.7-9.177m8.4 14.704c3.4-.79 2.3-8.092-5.8-8.684m16 14.112c3.2-.889.6-9.08-8.3-8.487m20.5 11.348c2.2-3.355-5-8.98-11-6.02m17 10.659c4 1.184 6.8-9.474-5.9-7.698m13.3 7.698c3.5-.987 6-7.204-4.2-5.23m12 5.723c3 1.579 4.4-7.5-5-5.033m-47-22.993c3.9 2.072 10-.395 9.4-5.33m-1.5 4.244c1.3 2.27.8 6.81-1.7 7.994m2-2.566c2.6.987 6.1.098 8.2-4.046m-3.6 4.046c.7 1.776 1 5.329-.7 7.204M393 300c2.9 1.579 6.2-.493 7.6-3.454m-1.8 2.566c2 1.283 3.9 7.302.4 9.77m2-2.764c2.4 0 6 0 8.3-3.059m-1.7 1.777c2.2.592 4.8 4.144 3.9 7.4m.1-1.183c2.5-.296 6.7-1.974 7.9-4.935m-1.2 1.974c2.2 1.382 3.4 3.947 3.2 6.513m0-2.072c2.5-.099 4.7-1.48 5.3-4.145m-.6 1.776c1.8.593 4 2.764 4.1 5.132m-.3-1.48c1.7-.395 3.2-1.382 4.3-3.257m4.9-.296c2.3 2.369-.8 10.066-5.6 8.684m-43.9-164.704c-4.7 2.862-18.3 1.974-11.6-9.276m13 1.678c-9.5 3.75-21-3.553-9-11.349m-3.2-2.566c-7.8 0-13.1 12.533-2.6 16.974m-27.9-11.743c-2 4.046 5.3 8.486 10.3 4.44 3.9-3.059 3.6-11.546 1.3-14.704m-15.6 19.836c-2.6 8.487 16.4 8.98 13.4-4.54m-14.4 17.171c.6 6.415 18.1 4.343 12.5-8.684m2-3.552c1.4 1.973 5.3 5.23 11.9 4.54m-9-13.422c.6 2.27 4.5 3.947 9.5 2.27m-185.1 193.52c-4.5 3.059 2.4 8.092 4.9 2.565m-8.4-.197c-4.4 3.158 2.4 8.19 4.9 2.664m-8.6-.296c-4.4 3.257 2.4 8.092 5 2.764m-8.8-.494c-4.3 2.27.7 7.796 5 2.96m-9.2-.888c-4.3 2.27.7 7.797 5 2.961m16.6-9.572c-.1 3.256 6.1 4.638 8.4-.296m-4.5 3.256c-2 2.566 1.6 5.526 3.5 4.44m-11.8-4.835c-.2 2.862 5.2 4.441 7.8 1.283m-4.9 1.678c-1.7 2.171 1.7 5.23 4 4.342m-10.5-4.737c.2 2.171 3.3 4.638 6.6 3.257m-4.6-.296c-1.3 1.085-.7 3.848 1.1 4.737m-7.8-5.033c-.5 1.973 2.9 5.625 6.4 3.256m-5.7-.987c-2 1.777-1.8 4.145.8 4.54m-5.8-4.737c-.2 1.382 1.5 3.651 3.7 3.355m-14.7-3.454c-2 1.086 3.2 6.71 6.5 1.48m-11.6.889c-2.6 1.184 3.8 7.401 6.7 1.085m10-1.283c-2 .395-3.3 3.257-1.6 4.441m-5-3.454c-.2 1.184 2.3 2.96 4.3 2.369m-5.9-1.875c-2 1.184-.9 4.54 1.4 4.046m-8.3-1.777c-1.8 1.283-.5 4.046 2 3.454m1.3-3.65c0 .69 1.7 1.775 3 1.282m-12.5-2.467c-2.3.987-2.1 6.612 5.5 3.552m-10.6-1.282c-3.2 1.48-2.1 5.822 4.8 1.677m.5.296c-.8.79-1.7 3.553 1.5 2.467m-7.2-.986c-1.3 1.085-.5 3.453 2.3 2.565m-9-2.17c-2.3 1.282 2.8 3.058 6.2-.494m-4.6 2.072c-1 .987-1 4.046 1.6 2.96m-8.2-1.677c-1.5 1.086 1 2.665 6 .494m-4 1.085c-1.9 1.48-1.7 3.454 1 2.862m-6.4-2.072c-2 1.973.9 3.157 4.4 1.677m-4.4.494c-3.4 1.48-1.9 4.342.2 3.256m113.8 6.513c-.8 1.678 1.8 3.06 4.3 2.665 2.3-.296 4.6-2.27 2.8-4.934m.1 3.355c2.4 1.776 6.5-.296 6.5-2.96" style="fill:none;stroke-width:.4;stroke-linecap:butt;stroke-linejoin:miter;stroke:#000;stroke-opacity:1;stroke-miterlimit:4" transform="scale(.03906 .03958)"/><path d="M396.8 103.026c-10.3-5.033-31.7-14.605-37.8-6.908 5.6-2.27 21.8.1 35.2 12.435Zm0 0" style="fill-rule:nonzero;fill:#fff;fill-opacity:1;stroke-width:.4;stroke-linecap:butt;stroke-linejoin:miter;stroke:#000;stroke-opacity:1;stroke-miterlimit:4" transform="scale(.03906 .03958)"/><path d="M403 102.533c-11.9-13.915-19-10.855-27.5-15.494-8-4.539-20.8-5.427-23.3 1.678 11.7-5.724 22.5 2.96 29.2 4.145 9 1.48 14.2 8.585 16.9 11.743l4.7-1.973Zm44.9-1.875c-6.2-14.013-19.4-10.362-25.2-16.382-8.5-8.783-30-16.973-39-10.855 19.6-.987 28 13.52 38.4 18.553 7.5 3.651 15.5 11.348 25.8 8.684Zm0 0" style="fill-rule:nonzero;fill:#fff;fill-opacity:1;stroke-width:.4;stroke-linecap:butt;stroke-linejoin:miter;stroke:#000;stroke-opacity:1;stroke-miterlimit:4" transform="scale(.03906 .03958)"/><path d="M424.7 99.178c-10.5-13.125-26.8-24.671-34.2-20.33 9.8.593 12.9 7.303 19.8 11.744 7 4.342 3.9 10.757 14.4 8.586Zm-50.2 23.19c-11-4.046-32.7-6.217-42.8 6.415 16.8 2.96 42 1.283 42.8-6.415Zm0 0" style="fill-rule:nonzero;fill:#fff;fill-opacity:1;stroke-width:.4;stroke-linecap:butt;stroke-linejoin:miter;stroke:#000;stroke-opacity:1;stroke-miterlimit:4" transform="scale(.03906 .03958)"/><path d="M372.4 127.303c-11-5.23-19.7 1.973-30.1.986-19.8-1.973-34-.789-35.8 8.783 11.3-10.164 30.4-1.776 38.1-3.848 7.7-2.171 36.3-.296 45.3 3.552-4.6-5.723-11.8-7.204-17.5-9.473Zm34.8-29.507c-2.6-8.487-2.4-17.467 10.3-16.875-3.2-4.046-15-6.02-17 8.882-14-10.264-29.4-12.139-32.2-3.158 7.2-6.217 18.4-1.777 31.8 13.42 2.2-1.085 4.6-1.874 7.1-2.269Zm0 0" style="fill-rule:nonzero;fill:#fff;fill-opacity:1;stroke-width:.4;stroke-linecap:butt;stroke-linejoin:miter;stroke:#000;stroke-opacity:1;stroke-miterlimit:4" transform="scale(.03906 .03958)"/><path d="M387.9 109.54c-8-5.23-18.8-13.52.1-16.974-8-4.244-20-2.369-18.7 12.533-21.6-8.685-37.1-5.823-40.4 2.862-3.6 9.572 9.8 14.802 12.1 8.782-2.4.987-10.8-1.875-6.4-7.204 4.4-5.427 26.8-1.381 48.1 9.77 6 2.96 26.3 2.566 5.2-9.77Zm0 0" style="fill-rule:nonzero;fill:#fff;fill-opacity:1;stroke-width:.4;stroke-linecap:butt;stroke-linejoin:miter;stroke:#000;stroke-opacity:1;stroke-miterlimit:4" transform="scale(.03906 .03958)"/><path d="M382.2 123.651c-6.1-12.533-26.1-1.184-30.1-13.322-5.6 17.862 28.4 7.993 30.1 13.322Zm127.1 13.619c4.2 2.17 7.8-1.184 1.4-3.652 4.2 1.974 7.9-1.085 1.5-3.75 4.2 2.073 7.8-1.085 1.4-3.65-1.7 1.677-4.1 7.993-4.3 11.052Zm2.2-24.178c9.3-9.77-.7-13.125 10.6-23.19 9.3-8.191 1.8-13.718 10.5-20.034 2.9-2.072 9-6.217 9.6-10.361 3.7 9.276-11.6 10.559-10.6 25.46.7 9.572-5.8 8.684-8.2 24.869-.5 3.256-2.9 10.756-11.9 3.256Zm0 0" style="fill-rule:nonzero;fill:#fff;fill-opacity:1;stroke-width:.4;stroke-linecap:butt;stroke-linejoin:miter;stroke:#000;stroke-opacity:1;stroke-miterlimit:4" transform="scale(.03906 .03958)"/><path d="M515.6 117.533c5.2-11.053 11.1-10.954 14-15.197 5.4-8.29 16.8 1.381 26.5-6.02-1.7 10.46-14.7 6.809-20.4 13.52s-10.3 9.67-20 7.697Zm0 0" style="fill-rule:nonzero;fill:#fff;fill-opacity:1;stroke-width:.4;stroke-linecap:butt;stroke-linejoin:miter;stroke:#000;stroke-opacity:1;stroke-miterlimit:4" transform="scale(.03906 .03958)"/><path d="M517 121.086c9-7.204 15.6-2.369 21.8-6.218 15.7-9.473 22 2.073 36-2.565-3.6 8.98-24.4 1.283-33.4 7.993s-40.7 13.224-24.5.79ZM490.7 172.5c-.2-4.145-4-9.375-9.4-9.967-5.4-.69-7.8-6.415-11.9-6.612-4.1-.296-6.8-8.487-12.5-8.388-5.6.099-8 7.5 5.3 14.21 13.3 6.612 28 14.31 28.5 10.757Zm-16.8 3.454c-5.6.197-6.4 8.585-11.8 8.783 7.4 3.947 12.9-1.875 16.7-7.007l-4.8-1.776Zm0 0" style="fill-rule:nonzero;fill:#fff;fill-opacity:1;stroke-width:.4;stroke-linecap:butt;stroke-linejoin:miter;stroke:#000;stroke-opacity:1;stroke-miterlimit:4" transform="scale(.03906 .03958)"/><path d="M478.6 177.04c-5 4.046-6.4 12.631.7 15.197-4.2-5.921 7.5-8.586 3.9-14.013Zm0 0" style="fill-rule:nonzero;fill:#fff;fill-opacity:1;stroke-width:.4;stroke-linecap:butt;stroke-linejoin:miter;stroke:#000;stroke-opacity:1;stroke-miterlimit:4" transform="scale(.03906 .03958)"/><path d="M483.4 177.336c-3.8 7.4 6.1 8.289 3.5 14.013 5.7-1.382 6.6-12.04 1.4-14.803l-4.9.69Zm0 0" style="fill-rule:nonzero;fill:#fff;fill-opacity:1;stroke-width:.4;stroke-linecap:butt;stroke-linejoin:miter;stroke:#000;stroke-opacity:1;stroke-miterlimit:4" transform="scale(.03906 .03958)"/><path d="M445.6 161.349c9.3-.592 17.7 4.44 23.4 12.533 3.6 5.131 15.7 7.204 19.9 3.059 4-4.046 1.8-12.83-8.5-10.066-2.6-4.243-10-2.763-13.7-6.414-3.7-3.553-17.5-13.816-21.1.888Zm0 0" style="fill-rule:nonzero;fill:#fff;fill-opacity:1;stroke-width:.4;stroke-linecap:butt;stroke-linejoin:miter;stroke:#000;stroke-opacity:1;stroke-miterlimit:4" transform="scale(.03906 .03958)"/><path d="M480.4 166.974c-2.5.493-3.3 4.737-1.7 6.908m7-4.343c.7 1.283.2 3.06-.2 3.948m-25.2-11.744c4.7.198 5.6 3.652 10.8 4.935" style="fill-rule:nonzero;fill:#fff;fill-opacity:1;stroke-width:.4;stroke-linecap:round;stroke-linejoin:miter;stroke:#000;stroke-opacity:1;stroke-miterlimit:4" transform="scale(.03906 .03958)"/><path d="M457.1 150c13 2.566 25.6 6.71 37.6 12.336 8.1 4.539 20.7 5.92 31.6 2.763 11-2.96 32.2-5.921 31.1 7.796 5.8-6.908-1.5-14.21-16.2-15.494.3-6.71-6.9-12.73-12-8.684 4.7-.69 8.8 8.19-.6 11.744.9-3.158-.2-6.514-2.7-8.586-2.5-2.171-6-2.566-9-1.184 4.4 1.283 9 8.783-1 11.645-6.3 1.776-15.4-.494-22.2-4.639-6.8-4.144-45-19.046-36.6-7.796Zm0 0" style="fill-rule:nonzero;fill:#fff;fill-opacity:1;stroke-width:.4;stroke-linecap:butt;stroke-linejoin:miter;stroke:#000;stroke-opacity:1;stroke-miterlimit:4" transform="scale(.03906 .03958)"/><path d="M498.6 143.29c-5.1 2.27-1.8 7.697-9.7 10.855-8 2.96-13.6 10.066-11.8 16.184 5.4-11.94 15-11.349 18.3-15.987 3.3-4.737 8.3-11.447 3.2-11.053Zm0 0" style="fill-rule:nonzero;fill:#fff;fill-opacity:1;stroke-width:.4;stroke-linecap:butt;stroke-linejoin:miter;stroke:#000;stroke-opacity:1;stroke-miterlimit:4" transform="scale(.03906 .03958)"/><path d="M500 143.98c-.2 9.375-7.6 6.02-4.7 19.244.9 4.046 2.6 10.756-.3 17.467 8.3-6.02 3-18.652 6.7-23.487 1.8-2.368 4.2-6.02 5-8.98-1.9 5.23-1.7 15.394 3.5 17.96-4.2-9.967 11.5-18.256.7-30-1.6 3.06-6.5 7.994-10.8 7.796Zm-26.2-9.375c1.3 1.974 2.6 6.81 1.4 9.573 2.6-1.58 6.3-5.625 7.5-8.29 5.3.79 7.3 7.303 2.3 10.165 3 0 8.4 0 11.3-3.454-3.6-4.046-14.8-10.165-22.5-7.994Zm0 0" style="fill-rule:nonzero;fill:#fff;fill-opacity:1;stroke-width:.4;stroke-linecap:butt;stroke-linejoin:miter;stroke:#000;stroke-opacity:1;stroke-miterlimit:4" transform="scale(.03906 .03958)"/><path d="M393.7 116.053c-1.4-.987-3.1-1.678-4.8-1.974-7.8-1.579-3.7-8.586 2.9-8.487 14.2-15.493 22.1-3.553 39.4-8.388 6-1.776 10.2-1.283 13.4.197 7.8-5.23 16.8-3.848 23.4 2.27.6-1.184 1.7-1.974 3-2.368 6.1-1.678 11 3.355 12.7 10.065 4.7-.79 10.1 1.58 13.7 4.737 4.9-2.566 8.1-2.566 9.5 0 4.4-1.973 10-3.454 12.9 3.553s-6.7 4.934-8.3 19.638c-1 8.98-11 12.632-19 7.204-12.8-8.684-25.3-9.967-31.5 2.96-6.1 13.224-11 20.823-26 16.58-6.4-1.48-13 1.085-16.7 6.414-4.4 6.02-11 .493-19 1.085 10-1.578 6.1-4.046 14.9-4.638 8-.493 5.9-7.993 11-8.98-20 5.033-19.3-2.467-35.8 2.763 7.2-9.276 18.6-4.046 24.2-9.473-14.9-.297-21.6-9.968-28.3-6.02-10.5 6.513-6 24.77-33.5 23.19-13.4-.69-21.9.987-29.8 8.98 13.9-28.716 32.8-12.927 42-22.104 4.8-4.244 8.9-9.178 12.3-14.704.8-1.58 2.3-2.764 4-3.158-22.9-7.204-9-18.454 13.4-19.342Zm0 0" style="fill-rule:nonzero;fill:#fff;fill-opacity:1;stroke-width:.4;stroke-linecap:butt;stroke-linejoin:miter;stroke:#000;stroke-opacity:1;stroke-miterlimit:4" transform="scale(.03906 .03958)"/><path d="M506.9 112.007c.3.79.5 1.776.5 2.96 0 5.625-8.5 5.822-9 14.21-.3 4.441-.8 6.81-3.7 6.316s-5.6-5.131-2.8-10.46" style="fill-rule:nonzero;fill:#fff;fill-opacity:1;stroke-width:.4;stroke-linecap:round;stroke-linejoin:miter;stroke:#000;stroke-opacity:1;stroke-miterlimit:4" transform="scale(.03906 .03958)"/><path d="M398 107.664c-1.8-1.282-4-1.973-6.2-2.072m52.8-8.29c6.8 2.961 10.1 9.968 20 10.362 9.6.297 15.5 14.211 31.5 5.132l1.2-.592M468 99.67c-1.4 2.566-1.8 5.428-1.4 8.19m-29.8 21.02c-12 0-15.2 6.119-15.2 12.04s5.7 13.717 15.7 13.717 15.5-6.217 15.5-12.927c0-6.711-6.2-12.928-16-12.928Zm0 0" style="fill-rule:nonzero;fill:#fff;fill-opacity:1;stroke-width:.4;stroke-linecap:butt;stroke-linejoin:miter;stroke:#000;stroke-opacity:1;stroke-miterlimit:4" transform="scale(.03906 .03958)"/><path d="M439 154.342c-.2-3.355-6.3-2.862-6-5.428s3.3-3.65 3.3-7.203c0-3.652 5.4-3.948 7.2-.987 1.8 2.763 7.2 8.29 8.4 5.427m-8.4-5.427c-3.4 3.651-3.5 9.177-.4 13.125m4.3-8.882c-1 2.072-1.2 5.033-.1 6.81" style="fill-rule:nonzero;fill:#fff;fill-opacity:1;stroke-width:.4;stroke-linecap:butt;stroke-linejoin:miter;stroke:#000;stroke-opacity:1;stroke-miterlimit:4" transform="scale(.03906 .03958)"/><path d="M495.5 135.592c9.5.79 11-9.67 4-10.263m-15.7-17.862c-3.2-4.145-10.8-5.526-11 3.257" style="fill:none;stroke-width:.4;stroke-linecap:butt;stroke-linejoin:miter;stroke:#000;stroke-opacity:1;stroke-miterlimit:4" transform="scale(.03906 .03958)"/><path d="M472 120.79c-3.2-7.994-11.5-9.08-15.8-5.132-3.7 3.355-3.8 12.04 4 13.816 2.8-3.257 8-7.5 11.8-8.685Zm-3.5-5.033c-4.7-4.046-11.5 3.75-5.3 10.855m-83 8.684c3.2-.69 7.7.79 14.7 4.046 4.3 2.072 17.5 6.415 25.7 2.072-8.5 3.06-15-9.67-21.4-8.19-6.4 1.579-18.2 3.947-23.1-.79 12 .79 18.5-8.881 32.4-.493 3.9 2.368 8.5 3.651 13.1 3.552-11.3-13.618-26.2-4.934-27.8-15.986 6.8 7.4 23.5-1.58 32 12.138m-29.5-10.066c-1.6-1.974-1-3.947-2.6-5.526" style="fill-rule:nonzero;fill:#fff;fill-opacity:1;stroke-width:.4;stroke-linecap:butt;stroke-linejoin:miter;stroke:#000;stroke-opacity:1;stroke-miterlimit:4" transform="scale(.03906 .03958)"/><path d="M18.898 4.254c-.109-.117-.351-.027-.28.215a.4.4 0 0 1 .28-.219Zm-.683.656a.8.8 0 0 1 .223-.129.5.5 0 0 0-.149-.207c-.059-.039-.223.188-.074.332Zm0 0" style="stroke:none;fill-rule:nonzero;fill:#000;fill-opacity:1"/><path d="M458.7 113.487c-4.6-3.06-8.9-2.763-10.3-.296-3.3 0-6.1 2.368-6.2 7.204m7.1 2.072c-5.5-3.75-13.1-2.368-12.6 6.119m-3.4 4.934c2.7-2.171 6.6-3.849 9.6 0m31.8-8.388c-1 1.381-1.8 3.552-.1 7.006-2-2.862-7.2-2.862-12.8 4.342m25.1-11.743c-6.7.79-6.5 5.131-1.1 7.006m-46.5-23.486c-5.7-1.086-9.8 2.27-2 5.032m12.8-8.782c-8-1.974-11.2.098-7.6 1.973m-15.5 30c-.2 2.96 1.3 6.612 6 2.467m-4.4 6.02c.1.888-.2 1.678-.7 2.467M410 107.368c-4.9-1.48-5.8-5.92 0-5.526m-1.6 15.987c-5.4-1.974-5.4-7.105-1-6.612m11 3.75c-6.3-1.48-6.5-5.822-1.8-5.131m2.6-8.191c-3.4-.198-8.5 3.454.1 5.625m9.3 1.875c-7.9-1.184-7.7 1.973-3.1 4.046m9-11.546c-6-1.184-8.1 2.467-4 3.947m-15 18.355c-1.5-1.283-2.7-7.006 4.3-5.329m10.3 3.454c-4.7-1.283-9.2 3.454-4.9 6.02m11.2-11.447c-5-1.086-9.2.493-6.5 2.27" style="fill:none;stroke-width:.4;stroke-linecap:round;stroke-linejoin:miter;stroke:#000;stroke-opacity:1;stroke-miterlimit:4" transform="scale(.03906 .03958)"/><path d="M483.6 107.467c-3 .69-5.6 2.665-7 5.428" style="fill-rule:nonzero;fill:#fff;fill-opacity:1;stroke-width:.4;stroke-linecap:butt;stroke-linejoin:miter;stroke:#000;stroke-opacity:1;stroke-miterlimit:4" transform="scale(.03906 .03958)"/></svg>