<?xml version="1.0" encoding="UTF-8"?>
<svg xmlns="http://www.w3.org/2000/svg" xmlns:xlink="http://www.w3.org/1999/xlink" width="25px" height="px" viewBox="0 0 25 19" version="1.1">
<g id="surface1">
<path style=" stroke:none;fill-rule:nonzero;fill:rgb(100%,83.529413%,12.54902%);fill-opacity:1;" d="M 0.00390625 0 L 25.007812 0 L 25.007812 19 L 0.00390625 19 Z M 0.00390625 0 "/>
<path style=" stroke:none;fill-rule:nonzero;fill:rgb(100%,30.588236%,7.058824%);fill-opacity:1;" d="M 0.00390625 19 L 25.007812 19 L 25.007812 0 Z M 0.00390625 19 "/>
<path style="fill-rule:nonzero;fill:rgb(100%,100%,100%);fill-opacity:1;stroke-width:0.4;stroke-linecap:butt;stroke-linejoin:miter;stroke:rgb(0%,0%,0%);stroke-opacity:1;stroke-miterlimit:4;" d="M 345.4 150 C 341.4 148.717105 338.8 150.690789 339 155.921053 C 339 160.953947 341.8 163.914474 345.8 162.039474 Z M 345.4 150 " transform="matrix(0.0390625,0,0,0.0395833,0,0)"/>
<path style="fill-rule:nonzero;fill:rgb(100%,100%,100%);fill-opacity:1;stroke-width:0.4;stroke-linecap:butt;stroke-linejoin:miter;stroke:rgb(0%,0%,0%);stroke-opacity:1;stroke-miterlimit:4;" d="M 348.9 140.427632 C 345.6 137.763158 342.5 138.947368 340.9 143.782895 C 339.3 148.717105 341 152.368421 345.4 151.776316 Z M 348.9 140.427632 " transform="matrix(0.0390625,0,0,0.0395833,0,0)"/>
<path style="fill-rule:nonzero;fill:rgb(100%,100%,100%);fill-opacity:1;stroke-width:0.4;stroke-linecap:butt;stroke-linejoin:miter;stroke:rgb(0%,0%,0%);stroke-opacity:1;stroke-miterlimit:4;" d="M 354.4 130.953947 C 351.6 127.993421 348.4 128.585526 346 133.223684 C 343.7 137.763158 344.7 141.710526 349.2 141.907895 Z M 350.8 176.546053 C 345.9 178.322368 345.4 185.032895 348.5 189.078947 C 351.5 193.223684 357.2 194.013158 360.3 189.078947 Z M 350.8 176.546053 " transform="matrix(0.0390625,0,0,0.0395833,0,0)"/>
<path style="fill-rule:nonzero;fill:rgb(100%,100%,100%);fill-opacity:1;stroke-width:0.4;stroke-linecap:butt;stroke-linejoin:miter;stroke:rgb(0%,0%,0%);stroke-opacity:1;stroke-miterlimit:4;" d="M 345.1 162.335526 C 340.5 160.756579 336.3 166.973684 335.6 172.598684 C 334.7 179.605263 324.6 181.973684 330.2 192.730263 C 331.4 185.921053 335.9 182.072368 339.5 181.875 C 343.1 181.677632 348.5 180.888158 350.8 176.546053 Z M 359.8 189.868421 C 354.4 191.151316 353.6 198.355263 357.5 203.486842 C 360.8 207.927632 371.2 206.940789 370.9 202.5 Z M 375.1 233.289474 C 375.4 228.552632 367.9 226.776316 364.3 227.664474 C 360.7 228.552632 353.8 227.565789 352.3 223.717105 C 350.9 226.776316 352.8 230.230263 358 231.907895 C 362 233.092105 361.9 235.855263 360.7 237.335526 C 363.7 237.828947 372.4 237.828947 375.1 233.289474 Z M 375.1 233.289474 " transform="matrix(0.0390625,0,0,0.0395833,0,0)"/>
<path style="fill-rule:nonzero;fill:rgb(100%,100%,100%);fill-opacity:1;stroke-width:0.4;stroke-linecap:butt;stroke-linejoin:miter;stroke:rgb(0%,0%,0%);stroke-opacity:1;stroke-miterlimit:4;" d="M 370.9 203.684211 C 365.6 201.315789 362.5 204.868421 360.5 208.322368 C 357.5 213.256579 348.4 206.940789 345.3 213.552632 C 349.5 211.776316 353.7 215.625 355.7 216.907895 C 361.4 220.559211 372.3 219.473684 373.9 210.690789 Z M 370.9 203.684211 " transform="matrix(0.0390625,0,0,0.0395833,0,0)"/>
<path style="fill-rule:nonzero;fill:rgb(100%,100%,100%);fill-opacity:1;stroke-width:0.4;stroke-linecap:butt;stroke-linejoin:miter;stroke:rgb(0%,0%,0%);stroke-opacity:1;stroke-miterlimit:4;" d="M 374 209.802632 C 368.7 213.848684 366.6 218.585526 366.8 221.842105 C 366.9 225 371.4 232.105263 376.3 232.5 C 379.1 226.677632 380.6 214.539474 374 209.802632 Z M 352 234.671053 C 352 232.697368 354.8 232.006579 356.8 232.697368 C 358.7 233.289474 361.7 235.164474 360.6 237.335526 Z M 323 224.013158 C 322.5 221.743421 326.2 217.697368 331.2 219.868421 C 336.2 222.138158 336.9 226.282895 334.8 227.960526 Z M 323 224.013158 " transform="matrix(0.0390625,0,0,0.0395833,0,0)"/>
<path style="fill-rule:nonzero;fill:rgb(100%,100%,100%);fill-opacity:1;stroke-width:0.4;stroke-linecap:butt;stroke-linejoin:miter;stroke:rgb(0%,0%,0%);stroke-opacity:1;stroke-miterlimit:4;" d="M 335.2 228.355263 C 334.8 227.072368 338.5 224.506579 344.6 225.986842 C 350.8 227.565789 352.3 231.611842 352.1 234.671053 Z M 322.3 224.111842 C 325.6 221.743421 324.3 217.105263 321.4 215.625 C 316.2 212.960526 318.1 206.447368 314.7 205.065789 C 311.4 203.782895 308.2 201.513158 308 199.144737 C 306.4 202.401316 307.4 205.263158 309.7 207.434211 C 312 209.407895 307.9 217.796053 310.9 219.967105 Z M 253.3 222.335526 C 250.6 218.092105 244.2 218.782895 241.5 221.842105 C 238.8 224.802632 239.2 229.144737 241.7 231.118421 Z M 268.8 216.019737 C 267.8 210.296053 260.9 209.703947 257.2 211.085526 C 253.4 212.467105 250.9 218.190789 253.3 222.335526 Z M 268.8 216.019737 " transform="matrix(0.0390625,0,0,0.0395833,0,0)"/>
<path style="fill-rule:nonzero;fill:rgb(100%,100%,100%);fill-opacity:1;stroke-width:0.4;stroke-linecap:butt;stroke-linejoin:miter;stroke:rgb(0%,0%,0%);stroke-opacity:1;stroke-miterlimit:4;" d="M 279 215.230263 C 281.5 210.493421 276.7 203.388158 271.3 202.401316 C 266.8 201.414474 261.5 201.513158 259.7 197.072368 C 258.7 200.921053 261.5 203.388158 264.9 205.559211 C 268.2 207.828947 264.3 213.355263 269.7 216.611842 Z M 279 215.230263 " transform="matrix(0.0390625,0,0,0.0395833,0,0)"/>
<path style="fill-rule:nonzero;fill:rgb(100%,100%,100%);fill-opacity:1;stroke-width:0.4;stroke-linecap:butt;stroke-linejoin:miter;stroke:rgb(0%,0%,0%);stroke-opacity:1;stroke-miterlimit:4;" d="M 278.6 215.427632 C 277.4 211.973684 279.7 207.434211 284.3 207.828947 C 289 208.125 291.6 211.381579 289.6 215.723684 Z M 278.6 215.427632 " transform="matrix(0.0390625,0,0,0.0395833,0,0)"/>
<path style="fill-rule:nonzero;fill:rgb(100%,100%,100%);fill-opacity:1;stroke-width:0.4;stroke-linecap:butt;stroke-linejoin:miter;stroke:rgb(0%,0%,0%);stroke-opacity:1;stroke-miterlimit:4;" d="M 288.9 215.723684 C 288.2 212.072368 291.1 207.927632 295.7 208.914474 C 300.3 209.901316 302.3 213.552632 299.7 217.401316 L 288.9 215.625 Z M 288.9 215.723684 " transform="matrix(0.0390625,0,0,0.0395833,0,0)"/>
<path style="fill-rule:nonzero;fill:rgb(100%,100%,100%);fill-opacity:1;stroke-width:0.4;stroke-linecap:butt;stroke-linejoin:miter;stroke:rgb(0%,0%,0%);stroke-opacity:1;stroke-miterlimit:4;" d="M 299 217.302632 C 298.6 213.651316 301.7 209.703947 306.2 210.888158 C 310.7 212.072368 312.6 215.921053 309.8 219.572368 L 299.1 217.302632 Z M 221.4 276.315789 C 212.7 276.315789 210.6 278.289474 209.4 287.269737 C 207.8 298.322368 222.9 299.605263 221.4 276.315789 Z M 221.4 276.315789 " transform="matrix(0.0390625,0,0,0.0395833,0,0)"/>
<path style="fill-rule:nonzero;fill:rgb(100%,100%,100%);fill-opacity:1;stroke-width:0.4;stroke-linecap:butt;stroke-linejoin:miter;stroke:rgb(0%,0%,0%);stroke-opacity:1;stroke-miterlimit:4;" d="M 225.2 264.671053 C 212 259.736842 204.8 280.657895 191.6 276.907895 C 196.3 284.407895 207.7 276.907895 212 277.697368 C 219.2 278.980263 234.8 276.315789 225.2 264.671053 Z M 216.6 293.388158 C 210 290.427632 203 300.394737 204.2 304.934211 C 205.9 310.361842 220.9 305.921053 216.6 293.388158 Z M 186 336.710526 C 189.6 337.697368 194 339.671053 193.2 346.677632 C 192.4 353.684211 179.2 367.796053 167.4 368.684211 C 155.6 369.375 151.4 383.684211 141.1 379.736842 C 150.7 377.861842 150.7 367.105263 158.1 363.651316 C 152.7 361.677632 149.9 374.013158 142.9 374.013158 C 135.9 374.013158 132.6 385.065789 124.1 384.276316 C 115.6 383.486842 114.8 397.796053 97.7 397.993421 C 84.7 398.092105 68.7 413.289474 62.8 406.677632 C 75.5 404.901316 80.6 397.894737 88.1 390.197368 C 100.1 377.861842 113.8 383.388158 118.5 372.532895 C 113.1 376.085526 106.7 377.960526 100.2 377.861842 C 92.2 377.664474 83.6 390.493421 74.7 384.868421 C 79.8 384.177632 83.2 382.006579 88.6 376.282895 C 94.1 370.460526 102.3 374.309211 108.7 368.289474 C 118.7 359.111842 127.4 366.809211 137 355.263158 C 134.3 353.881579 128.5 354.769737 123.1 357.730263 C 117.7 360.493421 110.8 355.657895 104.6 359.111842 C 105.3 351.513158 119.8 355.756579 128.8 350.625 C 139 344.605263 147.4 346.381579 155.4 347.072368 C 144.2 347.072368 139.9 336.414474 124.4 339.473684 C 117.7 340.855263 112.3 330.197368 105.6 335.625 C 105.8 331.578947 112.8 328.421053 120 332.269737 C 127.2 336.217105 130.1 328.914474 144.5 337.993421 C 150.5 341.743421 160.6 335.625 167 339.572368 C 166.2 337.203947 162.5 335.625 158.2 336.019737 C 160.9 330.394737 178.4 331.085526 186 336.710526 Z M 186 336.710526 " transform="matrix(0.0390625,0,0,0.0395833,0,0)"/>
<path style="fill-rule:nonzero;fill:rgb(100%,100%,100%);fill-opacity:1;stroke-width:0.4;stroke-linecap:butt;stroke-linejoin:miter;stroke:rgb(0%,0%,0%);stroke-opacity:1;stroke-miterlimit:4;" d="M 197.4 328.322368 C 191.8 323.881579 183.9 329.210526 178.4 327.138158 C 178.4 330.690789 180.3 336.118421 186.2 338.190789 C 188 336.907895 196.2 329.802632 197.4 328.322368 Z M 197.4 328.322368 " transform="matrix(0.0390625,0,0,0.0395833,0,0)"/>
<path style="fill-rule:nonzero;fill:rgb(100%,100%,100%);fill-opacity:1;stroke-width:0.4;stroke-linecap:butt;stroke-linejoin:miter;stroke:rgb(0%,0%,0%);stroke-opacity:1;stroke-miterlimit:4;" d="M 206.3 315.789474 C 197.4 311.348684 195.9 322.5 188.9 320.230263 C 189.2 323.388158 191.8 327.434211 197.4 328.322368 Z M 206.3 315.789474 " transform="matrix(0.0390625,0,0,0.0395833,0,0)"/>
<path style="fill-rule:nonzero;fill:rgb(100%,100%,100%);fill-opacity:1;stroke-width:0.4;stroke-linecap:butt;stroke-linejoin:miter;stroke:rgb(0%,0%,0%);stroke-opacity:1;stroke-miterlimit:4;" d="M 211.6 305.625 C 198.5 300.493421 196.8 313.125 189.1 310.559211 C 190.9 315 201.9 317.368421 207.6 315.789474 Z M 229.6 250.361842 C 226.1 245.427632 218.8 249.375 217.6 255.296053 C 216.5 261.118421 219.3 269.210526 224.2 267.335526 Z M 229.6 250.361842 " transform="matrix(0.0390625,0,0,0.0395833,0,0)"/>
<path style="fill-rule:nonzero;fill:rgb(100%,100%,100%);fill-opacity:1;stroke-width:0.4;stroke-linecap:butt;stroke-linejoin:miter;stroke:rgb(0%,0%,0%);stroke-opacity:1;stroke-miterlimit:4;" d="M 238.5 234.967105 C 232.5 233.486842 225.5 234.177632 226.3 240 C 223.9 241.085526 223.3 248.684211 229.6 250.361842 Z M 238.5 234.967105 " transform="matrix(0.0390625,0,0,0.0395833,0,0)"/>
<path style="fill-rule:nonzero;fill:rgb(100%,100%,100%);fill-opacity:1;stroke-width:0.4;stroke-linecap:butt;stroke-linejoin:miter;stroke:rgb(0%,0%,0%);stroke-opacity:1;stroke-miterlimit:4;" d="M 242.5 231.019737 C 236.5 224.013158 230 224.111842 226.3 226.973684 C 219.4 232.5 212.8 229.440789 212.6 234.769737 C 216.7 231.611842 220.4 235.361842 223.6 234.276316 C 227 233.092105 229.5 239.605263 238.8 236.940789 Z M 228.2 334.934211 C 229.1 336.611842 234.6 337.302632 237.3 334.539474 C 240.9 330.690789 237 320.328947 231.3 319.539474 C 225.6 318.848684 225.1 331.282895 228.2 334.934211 Z M 228.2 334.934211 " transform="matrix(0.0390625,0,0,0.0395833,0,0)"/>
<path style="fill-rule:nonzero;fill:rgb(100%,100%,100%);fill-opacity:1;stroke-width:0.4;stroke-linecap:butt;stroke-linejoin:miter;stroke:rgb(0%,0%,0%);stroke-opacity:1;stroke-miterlimit:4;" d="M 221.8 335.131579 C 229.8 338.092105 233.3 331.381579 229 327.138158 C 226.8 329.901316 224.4 332.565789 221.8 335.131579 Z M 221.8 335.131579 " transform="matrix(0.0390625,0,0,0.0395833,0,0)"/>
<path style="fill-rule:nonzero;fill:rgb(100%,100%,100%);fill-opacity:1;stroke-width:0.4;stroke-linecap:butt;stroke-linejoin:miter;stroke:rgb(0%,0%,0%);stroke-opacity:1;stroke-miterlimit:4;" d="M 191.4 346.184211 C 189.8 350.921053 181.8 351.611842 172.8 366.019737 C 163.8 380.427632 155.2 374.407895 153 384.276316 C 163.8 375.592105 172.3 381.315789 178.8 372.730263 C 188.5 359.605263 196.6 361.480263 200.4 352.697368 C 205.8 339.967105 229.4 340.263158 230.8 320.427632 C 222.8 318.947368 197.5 340.263158 191.4 346.184211 Z M 394.6 151.480263 C 404.9 154.934211 405.1 168.157895 417 172.598684 C 428.9 177.039474 430 187.598684 439.7 185.032895 C 430.7 182.467105 431.3 172.105263 421.9 169.539474 C 410.9 166.480263 406.7 149.703947 397.9 147.138158 M 441.9 221.447368 C 443.7 225.592105 443.4 232.894737 436.9 234.769737 C 440.4 237.039474 445.6 234.967105 448.4 230.230263 C 444.2 239.605263 447 248.092105 453.7 249.769737 C 450.5 243.157895 457.7 240.098684 455.4 235.756579 C 459.6 237.730263 463.4 243.453947 463.2 247.105263 C 468.8 240.888158 459.2 232.598684 460.9 226.776316 Z M 375 287.565789 C 368.7 282.138158 366 289.144737 363 286.578947 C 360 284.407895 356.2 284.111842 354.7 286.282895 C 360.1 286.480263 357.5 290.723684 368 291.710526 C 357.5 292.401316 359.4 304.243421 352.4 303.552632 C 359.8 310.559211 363.7 297.335526 369.8 299.506579 C 368 300 372.6 304.243421 369.4 309.868421 C 374.6 309.769737 376.7 302.565789 377.4 298.914474 Z M 236 347.763158 C 233.8 345.789474 227 344.901316 224.5 346.480263 C 221.9 347.960526 222.8 348.453947 225.9 348.651316 C 229 348.947368 232.9 353.881579 226.3 354.177632 C 223.2 354.276316 224.3 361.776316 217.8 362.269737 C 220.4 365.526316 228 363.355263 230.7 359.901316 C 230.2 362.763158 234 365.427632 232.5 368.881579 C 237.2 369.375 234.5 359.210526 242 359.703947 C 239 360.098684 240.2 367.105263 245.6 365.328947 C 242.4 366.809211 244.1 370.559211 247.6 369.671053 C 245.4 370.361842 244.6 373.421053 247.8 375.098684 C 250.9 370.756579 247.4 355.559211 236.1 347.763158 Z M 516.6 205.657895 C 523.3 206.25 529.7 202.894737 533.2 197.171053 C 536.7 191.447368 536.7 184.243421 533.2 178.519737 C 529.7 172.796053 523.3 169.539474 516.6 170.032895 C 507.3 170.723684 500 178.519737 500 187.894737 C 500 197.171053 507.3 204.967105 516.6 205.657895 Z M 516.6 205.657895 " transform="matrix(0.0390625,0,0,0.0395833,0,0)"/>
<path style="fill-rule:nonzero;fill:rgb(100%,100%,100%);fill-opacity:1;stroke-width:0.4;stroke-linecap:butt;stroke-linejoin:miter;stroke:rgb(0%,0%,0%);stroke-opacity:1;stroke-miterlimit:4;" d="M 423.4 227.171053 C 428.9 222.138158 437.1 219.473684 442.8 223.421053 C 448.4 227.171053 467.2 231.809211 476.5 225.394737 C 485.8 218.980263 490.2 215.625 494.3 216.414474 C 497.3 220.953947 501.1 223.322368 505.7 223.618421 C 507.1 225.197368 512.2 226.381579 515 226.085526 C 519.1 227.072368 524.1 225.789474 528.1 221.447368 C 534.3 222.434211 540.1 217.697368 542.3 210.690789 C 548.9 210 549.3 202.697368 545.1 197.664474 C 541.3 196.973684 544.2 183.947368 530.2 186.513158 C 536.2 190.065789 531.6 197.269737 536.5 200.723684 C 533.2 200.723684 528.8 202.105263 527.8 207.138158 C 529.1 203.684211 527.6 201.315789 526.8 200.625 C 526.8 197.565789 520.3 190.263158 514.1 193.026316 C 518.5 194.013158 516.1 201.019737 519.3 203.782895 C 516.8 203.881579 514.5 205.065789 513.1 207.138158 C 511.4 204.078947 505.5 201.118421 501.9 200.822368 C 501.9 199.835526 501.7 197.763158 501.2 196.677632 C 499.6 193.618421 498.2 189.868421 498.9 185.230263 C 496 188.684211 493.6 192.434211 491.7 196.578947 C 486.8 193.223684 474.7 198.059211 469 199.440789 C 463.3 200.723684 444.3 197.565789 440 193.026316 C 433.9 188.092105 426.7 184.736842 419 183.157895 C 408 180 408 167.960526 395.9 159.671053 C 395.6 174.671053 418.3 222.138158 423.4 227.171053 Z M 297.2 341.052632 C 306.8 341.052632 314.5 333.355263 314.5 323.782895 C 314.5 314.210526 306.8 306.513158 297.2 306.513158 C 287.6 306.513158 279.9 314.210526 279.9 323.782895 C 279.9 333.355263 287.6 341.052632 297.2 341.052632 Z M 297.2 341.052632 " transform="matrix(0.0390625,0,0,0.0395833,0,0)"/>
<path style="fill-rule:nonzero;fill:rgb(100%,100%,100%);fill-opacity:1;stroke-width:0.4;stroke-linecap:butt;stroke-linejoin:miter;stroke:rgb(0%,0%,0%);stroke-opacity:1;stroke-miterlimit:4;" d="M 256 327.828947 C 259.5 332.269737 265.4 331.973684 267.9 331.677632 C 269.9 337.105263 276.5 336.907895 279.3 339.868421 C 282.1 342.927632 291.8 342.631579 294.6 340.855263 C 292.1 340.657895 288.7 339.078947 285.6 336.414474 C 281.6 333.157895 283.4 326.644737 280.4 324.375 C 282.3 322.006579 283.1 318.848684 282.6 315.789474 C 285 314.407895 286.8 312.138158 287 310.855263 C 290.6 310.756579 294 309.276316 296.6 306.809211 C 298.8 308.782895 304.3 306.217105 307.3 309.572368 C 307.9 301.085526 299.8 296.644737 294.3 299.506579 C 292.2 298.322368 286.4 299.111842 285.3 300.592105 C 283.6 299.802632 278.5 302.368421 276.3 304.144737 C 278.8 302.664474 279.2 298.421053 278.2 296.940789 C 280.4 295.855263 282.8 292.993421 283.1 290.921053 C 286.1 291.414474 290.8 289.342105 292.8 289.835526 C 289.5 285.394737 284 283.815789 278.3 284.309211 C 272.4 284.605263 269.9 288.651316 269.1 293.092105 C 265.7 295.164474 264.5 302.072368 265.8 304.638158 C 263.8 304.638158 261.9 306.513158 261.2 307.598684 C 258.2 306.414474 255 305.723684 251.8 305.625 M 253.1 298.618421 C 251.9 295.164474 253.4 292.203947 254.2 289.638158 C 256.2 282.828947 255 280.953947 248.9 281.940789 C 249.3 287.664474 250.7 293.388158 253.1 298.618421 Z M 253.1 298.618421 " transform="matrix(0.0390625,0,0,0.0395833,0,0)"/>
<path style="fill-rule:nonzero;fill:rgb(100%,100%,100%);fill-opacity:1;stroke-width:0.4;stroke-linecap:butt;stroke-linejoin:miter;stroke:rgb(0%,0%,0%);stroke-opacity:1;stroke-miterlimit:4;" d="M 248.6 282.335526 C 250.2 283.914474 255.6 284.605263 256.2 279.671053 C 256.9 274.144737 254.6 271.875 249.7 274.144737 C 249.3 275.427632 248.9 280.559211 248.7 282.335526 Z M 248.6 282.335526 " transform="matrix(0.0390625,0,0,0.0395833,0,0)"/>
<path style="fill-rule:nonzero;fill:rgb(100%,100%,100%);fill-opacity:1;stroke-width:0.4;stroke-linecap:butt;stroke-linejoin:miter;stroke:rgb(0%,0%,0%);stroke-opacity:1;stroke-miterlimit:4;" d="M 249.8 273.947368 C 251.8 274.736842 256.3 276.414474 258.8 271.578947 C 260.8 267.631579 258.1 264.572368 253.8 264.769737 C 252.8 265.953947 250.8 270.098684 249.8 273.947368 Z M 249.8 273.947368 " transform="matrix(0.0390625,0,0,0.0395833,0,0)"/>
<path style="fill-rule:nonzero;fill:rgb(100%,100%,100%);fill-opacity:1;stroke-width:0.4;stroke-linecap:butt;stroke-linejoin:miter;stroke:rgb(0%,0%,0%);stroke-opacity:1;stroke-miterlimit:4;" d="M 253.6 264.375 C 254.1 265.953947 259.4 271.085526 263.2 267.434211 C 267.1 263.684211 267.1 258.059211 261.3 256.085526 C 259.8 256.282895 255.1 261.710526 253.6 264.375 Z M 253.6 264.375 " transform="matrix(0.0390625,0,0,0.0395833,0,0)"/>
<path style="fill-rule:nonzero;fill:rgb(100%,100%,100%);fill-opacity:1;stroke-width:0.4;stroke-linecap:butt;stroke-linejoin:miter;stroke:rgb(0%,0%,0%);stroke-opacity:1;stroke-miterlimit:4;" d="M 261.3 255.986842 C 262.4 259.342105 266.1 264.769737 272.8 262.302632 C 279.5 259.835526 276.6 251.348684 273.5 249.572368 C 269 250.855263 264.9 253.125 261.3 256.085526 Z M 261.3 255.986842 " transform="matrix(0.0390625,0,0,0.0395833,0,0)"/>
<path style="fill-rule:nonzero;fill:rgb(100%,100%,100%);fill-opacity:1;stroke-width:0.4;stroke-linecap:butt;stroke-linejoin:miter;stroke:rgb(0%,0%,0%);stroke-opacity:1;stroke-miterlimit:4;" d="M 273.5 249.572368 C 273 252.532895 273.5 260.230263 282.7 260.131579 C 291.8 259.934211 289.3 249.177632 286.9 247.697368 C 283.2 247.697368 276.9 247.796053 273.5 249.671053 Z M 273.5 249.572368 " transform="matrix(0.0390625,0,0,0.0395833,0,0)"/>
<path style="fill-rule:nonzero;fill:rgb(100%,100%,100%);fill-opacity:1;stroke-width:0.4;stroke-linecap:butt;stroke-linejoin:miter;stroke:rgb(0%,0%,0%);stroke-opacity:1;stroke-miterlimit:4;" d="M 287.3 247.993421 C 286.3 250.263158 284 264.671053 301.9 260.723684 C 304.2 260.230263 310.2 246.907895 287.3 248.092105 Z M 287.3 247.993421 " transform="matrix(0.0390625,0,0,0.0395833,0,0)"/>
<path style="fill-rule:nonzero;fill:rgb(100%,100%,100%);fill-opacity:1;stroke-width:0.4;stroke-linecap:butt;stroke-linejoin:miter;stroke:rgb(0%,0%,0%);stroke-opacity:1;stroke-miterlimit:4;" d="M 297.1 249.375 C 295.3 251.151316 299.9 265.657895 312.1 263.289474 C 324.1 260.822368 314 247.006579 297.1 249.276316 Z M 297.1 249.375 " transform="matrix(0.0390625,0,0,0.0395833,0,0)"/>
<path style="fill-rule:nonzero;fill:rgb(100%,100%,100%);fill-opacity:1;stroke-width:0.4;stroke-linecap:butt;stroke-linejoin:miter;stroke:rgb(0%,0%,0%);stroke-opacity:1;stroke-miterlimit:4;" d="M 307.4 251.644737 C 305.4 255.592105 308.4 267.434211 323.3 267.434211 C 336.8 267.434211 322.6 251.842105 307.4 251.644737 Z M 307.4 251.644737 " transform="matrix(0.0390625,0,0,0.0395833,0,0)"/>
<path style="fill-rule:nonzero;fill:rgb(100%,100%,100%);fill-opacity:1;stroke-width:0.4;stroke-linecap:butt;stroke-linejoin:miter;stroke:rgb(0%,0%,0%);stroke-opacity:1;stroke-miterlimit:4;" d="M 319.1 255 C 318.1 257.269737 317 269.802632 334.6 270.888158 C 347.3 271.677632 344.2 253.618421 319.1 255 Z M 319.1 255 " transform="matrix(0.0390625,0,0,0.0395833,0,0)"/>
<path style="fill-rule:nonzero;fill:rgb(100%,100%,100%);fill-opacity:1;stroke-width:0.4;stroke-linecap:butt;stroke-linejoin:miter;stroke:rgb(0%,0%,0%);stroke-opacity:1;stroke-miterlimit:4;" d="M 338 260.328947 C 335.9 264.177632 333.6 273.848684 352.9 274.638158 C 365.2 275.131579 357.6 260.625 338.1 260.328947 Z M 338 260.328947 " transform="matrix(0.0390625,0,0,0.0395833,0,0)"/>
<path style="fill-rule:nonzero;fill:rgb(100%,100%,100%);fill-opacity:1;stroke-width:0.4;stroke-linecap:butt;stroke-linejoin:miter;stroke:rgb(0%,0%,0%);stroke-opacity:1;stroke-miterlimit:4;" d="M 354.1 263.289474 C 351.3 267.138158 353.4 274.736842 360.6 276.118421 C 369.6 277.894737 370.9 269.407895 364.7 265.263158 C 358.5 261.315789 354.1 263.289474 354.1 263.289474 Z M 354.1 263.289474 " transform="matrix(0.0390625,0,0,0.0395833,0,0)"/>
<path style="fill-rule:nonzero;fill:rgb(100%,100%,100%);fill-opacity:1;stroke-width:0.4;stroke-linecap:butt;stroke-linejoin:miter;stroke:rgb(0%,0%,0%);stroke-opacity:1;stroke-miterlimit:4;" d="M 363 264.967105 C 360.9 268.717105 362.1 277.401316 375.8 277.401316 C 378.6 277.401316 389.4 266.447368 362.9 265.065789 Z M 257.1 433.026316 C 268.1 433.026316 277.1 424.046053 277.1 412.993421 C 277.1 401.940789 268.1 392.960526 257.1 392.960526 C 246.1 392.960526 237.1 401.940789 237.1 412.993421 C 237.1 424.046053 246.1 433.026316 257.1 433.026316 Z M 257.1 433.026316 " transform="matrix(0.0390625,0,0,0.0395833,0,0)"/>
<path style="fill-rule:nonzero;fill:rgb(100%,100%,100%);fill-opacity:1;stroke-width:0.4;stroke-linecap:butt;stroke-linejoin:miter;stroke:rgb(0%,0%,0%);stroke-opacity:1;stroke-miterlimit:4;" d="M 404.1 141.710526 C 401.9 144.078947 400.1 146.842105 398.7 149.703947 C 392 169.736842 409.9 184.736842 420.3 206.447368 C 429 226.282895 426.9 249.177632 414.7 267.138158 C 410.3 272.861842 411.6 274.638158 405.9 280.460526 C 403.7 282.828947 401.3 285.690789 402.1 293.881579 C 405.7 292.598684 410.8 295.855263 411.8 298.914474 C 414.4 297.532895 418 298.026316 419.3 299.605263 C 423.7 297.631579 427.3 298.618421 431.2 302.565789 C 434.5 302.171053 438.2 302.565789 441.5 306.315789 C 443.3 302.664474 446.9 301.282895 449.5 302.171053 C 449.2 297.532895 453.8 294.177632 457.9 295.953947 C 457.2 293.289474 458.1 290.526316 460.1 288.651316 C 462.2 286.776316 465.1 286.085526 467.7 286.973684 C 472.4 283.421053 481.7 283.125 486.3 288.453947 C 478 286.184211 478.3 294.967105 471.3 294.177632 C 473.1 299.309211 468.5 302.269737 463.9 304.046053 C 466.9 302.565789 470.1 300.888158 471.1 302.664474 C 473.7 300.394737 478.8 301.282895 480.1 302.368421 C 483.5 301.381579 486.8 302.171053 488.3 306.315789 C 493 309.078947 496.1 316.282895 492.7 321.710526 C 491.7 316.085526 487.8 316.282895 486.3 314.013158 C 482.7 315.296053 479.1 315.296053 478 313.026316 C 476 315 469 316.875 466 313.815789 C 464.8 318.355263 460.8 322.302632 456.1 322.302632 C 457.4 325.855263 453.8 331.973684 451 335.131579 C 455.4 337.401316 454 342.631579 453 345.690789 C 459.8 346.677632 454 352.697368 465.7 356.546053 C 460 358.322368 448.9 356.546053 447.4 349.539474 C 441.7 349.342105 437.9 343.618421 438.1 337.697368 C 433.7 333.552632 433.1 327.730263 439.1 323.486842 C 434 325.065789 431.1 316.776316 423.7 320.230263 C 420 321.907895 410.2 319.046053 410.3 315.592105 C 408.8 318.059211 399.3 317.072368 398.1 312.730263 C 395 314.407895 387.8 311.644737 387.9 307.302632 C 383.9 309.078947 378.5 305.921053 378.8 301.776316 C 375 301.282895 374.6 297.927632 374.8 295.065789 C 371.5 293.486842 372.4 290.328947 373.8 286.480263 C 371.4 283.914474 372.4 280.263158 374.2 276.907895 C 371.7 274.342105 372.2 271.282895 372.9 267.631579 C 360.6 266.644737 345.1 263.585526 309.6 252.730263 C 256 236.151316 241.6 274.934211 253.4 299.111842 C 267.1 327.138158 251.9 333.059211 256.5 353.881579 C 261.5 354.868421 264 359.111842 263.7 363.453947 C 266.7 363.552632 268.7 366.315789 267.7 371.546053 C 270.5 371.052632 273.3 371.940789 275.3 373.815789 C 277.1 370.361842 283.1 369.572368 286.1 373.519737 C 292.8 373.026316 296.2 378.453947 295.9 385.065789 C 299.2 391.282895 298.6 398.782895 294.4 404.407895 C 294.8 401.743421 294.4 397.894737 294.3 395.526316 C 294 391.282895 288.1 390.394737 288.7 386.940789 C 285.7 387.236842 282.7 385.460526 281.7 383.190789 C 279.9 384.769737 277.4 385.263158 275.1 384.473684 C 278.5 385.953947 281.3 392.171053 280.2 396.315789 C 282 399.375 281.6 405.098684 279.5 407.467105 C 278.5 412.5 274.5 414.276316 269.5 412.105263 C 272.4 410.328947 273.4 407.072368 273.3 404.407895 C 271.6 402.730263 270.6 400.460526 270.4 398.092105 C 265.4 398.881579 258.4 394.638158 257.2 392.861842 C 251.9 392.861842 246.8 395.032895 243 398.782895 C 239.3 402.532895 237.2 407.664474 237.2 412.993421 C 236.6 408.947368 231.4 404.802632 232.1 401.348684 C 229 391.776316 233.4 382.894737 246 381.118421 C 244.4 377.467105 249.8 373.815789 247.8 369.671053 C 243.8 362.368421 238.8 355.657895 233.1 349.638158 C 237.5 342.138158 236.1 332.072368 233.6 325.855263 C 229.9 316.973684 226.4 319.243421 213.3 333.552632 C 191.9 357.138158 163.3 350.625 138.1 366.118421 C 131.4 370.065789 124.7 371.743421 131.9 364.539474 C 139.1 357.335526 158.1 350.131579 170.5 343.914474 C 193.7 332.269737 213.3 313.026316 221 275.427632 C 239.1 187.006579 306 216.217105 348.2 232.598684 C 387.9 248.092105 380.7 213.059211 360.6 191.940789 C 336.4 166.578947 341.3 146.644737 352.6 130.559211 C 372.9 127.796053 412 134.901316 404.1 141.710526 Z M 404.1 141.710526 " transform="matrix(0.0390625,0,0,0.0395833,0,0)"/>
<path style="fill-rule:nonzero;fill:rgb(100%,100%,100%);fill-opacity:1;stroke-width:0.4;stroke-linecap:butt;stroke-linejoin:miter;stroke:rgb(0%,0%,0%);stroke-opacity:1;stroke-miterlimit:4;" d="M 475.9 358.815789 C 488.1 358.815789 498 348.947368 498 336.710526 C 498 324.572368 488.1 314.703947 475.9 314.703947 C 463.7 314.703947 453.9 324.572368 453.9 336.710526 C 453.9 348.848684 463.7 358.717105 475.9 358.717105 Z M 475.9 358.815789 " transform="matrix(0.0390625,0,0,0.0395833,0,0)"/>
<path style="fill:none;stroke-width:0.4;stroke-linecap:butt;stroke-linejoin:miter;stroke:rgb(0%,0%,0%);stroke-opacity:1;stroke-miterlimit:4;" d="M 391.8 142.697368 C 386.8 164.407895 391 174.177632 398.2 183.651316 C 413.1 203.388158 425 248.289474 408 277.697368 " transform="matrix(0.0390625,0,0,0.0395833,0,0)"/>
<path style="fill:none;stroke-width:0.4;stroke-linecap:round;stroke-linejoin:miter;stroke:rgb(0%,0%,0%);stroke-opacity:1;stroke-miterlimit:4;" d="M 417.5 252.335526 C 419.5 251.644737 423.5 249.078947 424.3 244.934211 M 419.1 242.861842 C 419.7 239.210526 425.5 237.631579 425.6 233.585526 M 419.2 228.355263 C 418.8 224.506579 425 220.953947 424.1 217.203947 M 415.8 214.539474 C 415.3 212.269737 421 208.223684 419.4 204.671053 M 411.6 200.921053 C 410.4 198.453947 414.3 195.690789 412.6 193.125 M 405.4 190.065789 C 405 188.486842 407.4 184.835526 406.1 182.565789 M 399.2 177.434211 C 399.7 176.743421 401.8 175.164474 401 173.289474 M 395 167.960526 C 395.8 167.565789 398.3 166.776316 398 165 " transform="matrix(0.0390625,0,0,0.0395833,0,0)"/>
<path style="fill:none;stroke-width:0.4;stroke-linecap:round;stroke-linejoin:round;stroke:rgb(0%,0%,0%);stroke-opacity:1;stroke-miterlimit:4;" d="M 266 410.921053 C 261 409.144737 254.5 411.611842 253.2 415.953947 M 257.1 420 C 257.7 415.559211 264.4 413.684211 266.4 415.657895 C 262.2 413.388158 260.1 421.677632 263.9 421.875 M 298.5 318.059211 C 295.5 319.736842 294.5 325.263158 298.5 329.605263 M 303.1 319.440789 C 301 321.217105 301.1 326.644737 304.3 327.927632 C 301.6 325.855263 304.3 322.598684 306.3 322.5 C 308.2 322.401316 309.5 324.671053 307.1 327.039474 M 484.1 332.171053 C 476.9 330.197368 471.1 338.585526 477.7 346.085526 C 477.5 338.881579 482.7 334.144737 489 335.427632 M 486 340.361842 C 484.5 340.361842 483.3 341.644737 483.3 343.125 C 483.3 344.506579 484.5 345.888158 486.5 345.888158 C 487.8 345.888158 488.9 344.407895 488.9 343.223684 M 511.5 182.171053 C 512.7 186.611842 518.7 188.486842 523.5 187.401316 M 523.5 184.638158 C 519.8 184.736842 516.7 181.184211 516.9 178.322368 C 516.9 180.493421 521.9 181.480263 523.5 180.098684 " transform="matrix(0.0390625,0,0,0.0395833,0,0)"/>
<path style="fill:none;stroke-width:0.4;stroke-linecap:round;stroke-linejoin:miter;stroke:rgb(0%,0%,0%);stroke-opacity:1;stroke-miterlimit:4;" d="M 267.9 331.677632 C 266.9 329.111842 270.9 326.546053 271.1 324.078947 C 271.2 321.611842 275.7 319.736842 280.4 324.276316 M 278.2 296.940789 L 275.7 298.125 M 287.1 310.855263 C 286 310.855263 283.7 310.855263 282.5 309.967105 M 282.5 315.789474 C 281.7 316.282895 279.7 316.973684 278.5 317.269737 M 238.4 393.552632 C 238.2 395.921053 240.6 399.276316 241.8 400.263158 M 248.4 388.125 C 247 390.394737 246.5 393.059211 247.1 395.723684 M 267.6 395.723684 C 265.3 394.243421 266.8 390.296053 266.6 387.730263 C 266.3 385.065789 269.3 381.019737 275.1 384.473684 M 246 381.019737 C 248.3 380.625 250.7 380.723684 252.3 381.414474 M 275.3 373.717105 C 274.5 374.901316 274 376.282895 273.9 377.664474 M 286.2 373.421053 C 284.4 373.421053 282.8 374.703947 282 375.986842 M 261.2 307.5 C 263.2 308.190789 268.6 311.546053 268.8 314.901316 M 283.1 290.723684 C 276.8 290.625 274.3 284.210526 279.1 284.210526 M 294.4 299.407895 C 292 300.394737 293.1 304.638158 296.6 306.710526 M 279.3 339.769737 C 278.1 338.190789 279.7 333.848684 283.7 335.131579 M 288.7 386.842105 C 289 382.796053 293.9 380.625 295.9 384.967105 M 270.4 397.993421 C 270.1 393.651316 272.4 392.269737 274.2 391.973684 C 276.2 391.776316 278.9 393.355263 280.2 396.217105 M 232.1 401.151316 C 232.3 398.585526 234.5 395.921053 236.8 396.315789 M 467.8 286.875 C 466.1 288.059211 465 293.585526 471.3 294.078947 M 458 295.953947 C 458 296.644737 458.8 297.532895 459.3 298.026316 M 488.3 306.315789 C 486.7 305.032895 482.3 310.263158 486.3 314.013158 M 447.3 349.638158 C 446.4 345.888158 449.8 344.901316 453.1 345.690789 M 439.1 323.486842 C 441.1 322.302632 443.1 320.822368 445.5 320.230263 M 438.1 337.697368 C 438.1 334.736842 439.7 331.973684 441.1 331.282895 M 449.5 302.171053 C 449.3 305.427632 450.2 308.684211 451.9 311.447368 M 480.1 302.368421 C 478.1 302.861842 476.7 303.848684 475.9 305.328947 M 478 313.026316 C 479.1 312.138158 479.9 311.348684 480.4 310.657895 M 526.7 200.526316 C 526.7 204.078947 522.2 206.052632 519.2 203.782895 M 536.5 200.723684 C 538.5 202.203947 545.4 200.723684 543.8 196.677632 M 528 221.447368 C 526.1 220.855263 524.4 219.769737 523.1 218.388158 M 542.2 210.690789 C 539.9 211.184211 538.3 210.690789 537.2 210.197368 M 505.6 223.618421 C 507.9 223.519737 510.1 222.927632 512.1 222.039474 M 502 200.822368 C 500.3 200.625 499 200.822368 498.1 201.611842 M 527.9 207.138158 C 527.4 209.111842 526.4 210.888158 524.9 212.269737 " transform="matrix(0.0390625,0,0,0.0395833,0,0)"/>
<path style="fill:none;stroke-width:0.4;stroke-linecap:round;stroke-linejoin:round;stroke:rgb(0%,0%,0%);stroke-opacity:1;stroke-miterlimit:4;" d="M 497.5 212.763158 C 500.7 211.381579 504.7 222.335526 512.5 218.486842 M 513.1 207.138158 C 512 208.815789 511.4 210.690789 511.3 212.664474 " transform="matrix(0.0390625,0,0,0.0395833,0,0)"/>
<path style="fill:none;stroke-width:0.4;stroke-linecap:butt;stroke-linejoin:miter;stroke:rgb(0%,0%,0%);stroke-opacity:1;stroke-miterlimit:4;" d="M 359 190.361842 C 360 190.164474 361.9 189.868421 362.3 188.585526 M 226.5 310.263158 C 230.4 312.532895 233.1 316.184211 231.5 321.710526 M 403.6 178.519737 C 404.8 179.309211 409.1 179.309211 411.6 178.519737 M 414.6 181.085526 C 414.6 182.861842 415.1 189.671053 411.6 191.052632 M 412.9 190.263158 C 416.1 191.348684 422.5 190.855263 424.6 185.032895 M 420.1 189.967105 C 421.8 192.631579 422.3 197.565789 417.3 200.328947 M 421.3 194.309211 C 425.1 195.493421 433.7 195.690789 432.8 188.289474 M 429.8 194.309211 C 432.5 197.763158 443.8 202.105263 442 194.605263 M 419.5 204.572368 C 423.8 205.657895 430 202.697368 427.5 195 M 439.8 198.947368 C 440.4 201.907895 454.8 204.868421 452.9 198.157895 M 450.2 202.105263 C 452.9 208.322368 467.2 207.828947 462.7 199.539474 M 460.4 205.953947 C 463.2 209.407895 475.9 207.434211 470.8 199.046053 M 470.7 205.756579 C 478.6 211.776316 487.7 203.289474 477.7 197.072368 M 482.3 203.881579 C 489.3 209.407895 497.8 199.440789 491.7 196.578947 M 427.3 201.611842 C 429.5 202.203947 434.1 202.006579 435.2 197.960526 M 433.4 200.723684 C 433.2 206.546053 443 208.717105 445.5 202.006579 M 442.2 205.657895 C 444 209.605263 452.7 211.085526 454.1 205.559211 M 452.7 208.223684 C 454.1 211.973684 461.6 211.578947 463.7 207.631579 M 460.9 210.197368 C 463.2 215.230263 472.8 215.230263 474.9 207.927632 M 473.3 211.085526 C 477 213.355263 485 212.467105 484.3 205.263158 M 482.8 210.493421 C 488.4 215.032895 496.2 210.592105 492.3 202.993421 M 492 216.414474 C 495 215.921053 496.5 210 493.4 208.421053 M 423.4 217.401316 C 429.4 214.144737 430.7 208.421053 426.4 202.894737 M 428.6 211.776316 C 432.5 214.144737 439.8 211.578947 441.1 205.953947 M 433.9 212.368421 C 436.1 215.230263 436.5 218.684211 433.6 221.940789 M 435.6 216.019737 C 442.5 211.776316 451 219.572368 444.6 224.407895 M 443.6 215.625 C 445.1 215.230263 447.8 212.368421 448 209.210526 M 446.6 218.585526 C 449.5 215.625 468.8 221.644737 456.6 227.861842 M 455.6 210.493421 C 459.4 211.875 461.3 217.203947 455.6 218.980263 M 460.6 223.421053 C 464.6 219.078947 477.6 221.842105 472.9 227.171053 M 469.8 221.743421 C 472.1 213.848684 485.9 218.684211 481.4 221.940789 M 467 213.947368 C 467.4 215.427632 467.5 219.177632 465 221.348684 M 478.6 212.269737 C 479.2 214.046053 478.9 216.019737 477.8 217.598684 M 487.3 212.368421 C 488.1 213.848684 489.3 216.513158 486.5 218.684211 M 377.1 153.157895 C 377.2 160.460526 379.8 165.394737 389.7 160.756579 M 380.2 161.940789 C 375.2 168.453947 380.8 175.559211 390.5 168.453947 M 365 165 C 371.7 172.203947 383.7 166.973684 376 156.019737 M 384 171.217105 C 382.8 178.322368 388.6 179.703947 393.3 176.546053 M 359.1 166.184211 C 360.3 173.289474 367.6 178.914474 374.7 174.572368 M 367.8 175.953947 C 367.8 186.217105 381.8 187.302632 385.1 176.842105 M 380.1 183.157895 C 384.6 192.532895 394.4 188.684211 397.6 183.059211 M 370.2 168.355263 C 372 172.894737 375.6 177.927632 383.9 174.177632 M 344.4 166.184211 C 345.6 169.934211 352.3 174.375 360 169.243421 M 349.2 171.019737 C 345 177.039474 353.2 182.664474 363.2 173.684211 M 354.1 178.421053 C 355.7 186.907895 359.1 193.815789 371.1 182.763158 M 365.1 187.203947 C 369.5 192.631579 376.2 195.888158 382.5 186.809211 " transform="matrix(0.0390625,0,0,0.0395833,0,0)"/>
<path style="fill:none;stroke-width:0.4;stroke-linecap:butt;stroke-linejoin:miter;stroke:rgb(0%,0%,0%);stroke-opacity:1;stroke-miterlimit:4;" d="M 387.3 188.782895 C 386.9 195.296053 388.1 198.453947 393.2 198.157895 C 397.2 197.960526 400.9 194.901316 403.1 191.546053 M 392.3 198.157895 C 392.1 205.559211 397.9 211.381579 408.8 203.881579 M 396.8 206.940789 C 394.8 212.368421 400.9 221.447368 413 216.809211 M 371.1 192.236842 C 370.4 199.243421 376.9 203.980263 387.5 194.901316 M 376.3 200.032895 C 376.7 205.756579 383.3 212.763158 392.9 202.697368 M 380.9 207.434211 C 380.2 217.302632 389.3 220.065789 397 212.467105 M 367.2 200.032895 C 369.2 200.230263 370.9 198.355263 371.9 196.973684 M 371.5 207.236842 C 373.3 207.631579 376.5 205.953947 377.5 203.881579 M 376.1 218.881579 C 378.1 221.151316 385.1 219.572368 386 216.611842 M 383.8 218.782895 C 387.6 227.763158 397.9 227.467105 402.2 217.302632 M 400.2 220.855263 C 402.2 226.184211 407.1 229.539474 415.1 227.664474 M 404.1 226.282895 C 399.6 233.585526 405.5 242.269737 415.6 233.782895 M 406.6 237.335526 C 406.1 241.875 410.3 247.203947 416.1 247.796053 M 387.5 223.815789 C 386 234.177632 393.5 239.210526 402.8 233.585526 M 376.6 228.848684 C 379 230.723684 383.4 230.921053 387.6 229.440789 M 392.6 235.361842 C 390.2 244.243421 399.2 250.460526 406.9 240.690789 M 380 230.230263 C 380.2 234.671053 384.5 239.605263 392.1 238.223684 M 413.4 247.203947 C 408.2 250.559211 407.2 256.776316 414.4 260.822368 M 400.8 245.427632 C 401 250.559211 403.5 253.618421 409.3 254.111842 M 393.2 242.664474 C 385.4 249.671053 393 257.960526 402.2 250.953947 M 398.6 253.223684 C 396 261.315789 405.6 266.151316 410.8 257.960526 M 382.6 235.953947 C 379.8 244.046053 383.4 249.177632 390 248.684211 M 372.4 234.375 C 372.8 239.210526 376.9 240.888158 381.6 239.802632 M 375.4 239.407895 C 371.9 246.118421 377.2 249.671053 384.2 247.203947 M 405.2 262.203947 C 404.2 266.447368 404.8 269.407895 411.1 270.888158 M 405.7 268.223684 C 398.1 271.578947 397.4 278.980263 403.3 283.717105 M 399.5 260.032895 C 397.7 261.611842 396.7 263.980263 396.9 266.447368 C 397.2 268.914474 398.6 271.085526 400.7 272.269737 M 365.7 236.546053 C 361.4 240.789474 365.5 252.730263 375.2 246.217105 M 390.9 251.546053 C 384.9 256.480263 387.6 265.263158 397.4 262.894737 M 381.1 247.894737 C 378 256.578947 380.9 259.736842 387.9 259.835526 " transform="matrix(0.0390625,0,0,0.0395833,0,0)"/>
<path style="fill:none;stroke-width:0.4;stroke-linecap:butt;stroke-linejoin:miter;stroke:rgb(0%,0%,0%);stroke-opacity:1;stroke-miterlimit:4;" d="M 359.3 236.052632 C 357.4 237.434211 356.1 239.506579 355.8 241.875 C 355.5 244.243421 356.2 246.513158 357.8 248.289474 C 360.1 250.855263 364.5 249.671053 365.8 246.414474 M 348.2 232.598684 C 342.3 240.197368 348.2 249.177632 356.6 246.611842 M 379.9 255.197368 C 373.9 257.269737 369.2 262.796053 372.9 267.730263 C 375.2 270.493421 384.7 270.888158 387.4 259.934211 M 369 248.092105 C 365.5 253.125 366.6 257.861842 373 260.328947 M 368.6 257.467105 C 364.8 259.539474 362.4 262.006579 363.3 266.546053 M 360.2 249.572368 C 358.8 255.592105 360.5 259.440789 364.2 261.217105 M 360.1 256.776316 C 354.3 256.381579 351.3 258.848684 353.3 264.572368 M 353.8 258.157895 C 348.1 256.184211 347.2 251.151316 349.7 246.217105 M 348.9 253.815789 C 342.7 254.013158 339.9 257.072368 339.9 261.315789 " transform="matrix(0.0390625,0,0,0.0395833,0,0)"/>
<path style="fill:none;stroke-width:0.4;stroke-linecap:butt;stroke-linejoin:miter;stroke:rgb(0%,0%,0%);stroke-opacity:1;stroke-miterlimit:4;" d="M 340.5 229.736842 C 336 231.611842 334.5 237.730263 336.2 240.986842 C 337.9 244.342105 343.2 244.638158 346.4 242.368421 M 328 224.901316 C 323.9 229.539474 328.6 238.618421 336 236.447368 M 317.4 221.348684 C 313.6 226.677632 317.8 235.657895 327.7 233.092105 M 328.2 258.157895 C 327.2 251.842105 333.9 247.598684 342.2 255.888158 M 338.2 242.861842 C 335.8 245.032895 334.6 248.190789 334.9 251.447368 M 306.9 218.190789 C 302.6 225.394737 307.8 232.006579 316.9 229.440789 M 330.7 236.052632 C 324.7 242.072368 326.7 248.190789 331.2 251.743421 M 326.8 243.157895 C 317.7 243.256579 317.2 253.914474 324.6 257.171053 M 319.9 232.598684 C 316.1 235.164474 314.9 242.269737 321.4 245.131579 M 319.6 248.486842 C 315.7 246.710526 311.1 248.881579 311.5 253.421053 M 313.8 248.585526 C 310.3 240.394737 300.2 241.776316 301.1 250.263158 M 316.6 238.421053 C 314.5 238.815789 310.1 240.098684 308.4 243.355263 M 309 229.144737 C 307.4 230.822368 306.7 233.190789 307.2 235.460526 C 307.7 237.730263 309.3 239.605263 311.5 240.493421 M 296.7 216.019737 C 295.9 221.644737 298.1 224.309211 305.1 223.815789 M 299.1 223.125 C 296.5 229.835526 300.1 232.796053 307.1 232.401316 M 300.7 231.414474 C 296.6 236.348684 299.4 241.480263 303.4 243.651316 M 298.8 237.631579 C 291.4 236.644737 290.3 245.230263 292.8 249.078947 " transform="matrix(0.0390625,0,0,0.0395833,0,0)"/>
<path style="fill:none;stroke-width:0.4;stroke-linecap:butt;stroke-linejoin:miter;stroke:rgb(0%,0%,0%);stroke-opacity:1;stroke-miterlimit:4;" d="M 292.9 215.526316 C 288.4 217.5 285.8 223.125 288.2 226.480263 C 290.7 230.032895 295.6 228.947368 298.2 227.072368 M 289.8 228.059211 C 286 233.782895 289.4 238.125 293.4 239.703947 " transform="matrix(0.0390625,0,0,0.0395833,0,0)"/>
<path style="fill:none;stroke-width:0.4;stroke-linecap:butt;stroke-linejoin:miter;stroke:rgb(0%,0%,0%);stroke-opacity:1;stroke-miterlimit:4;" d="M 275.3 214.835526 C 272.3 217.894737 274.2 224.210526 281.3 224.407895 C 287.2 224.407895 290.1 218.980263 288.3 215.131579 M 280.3 224.407895 C 278 229.539474 279.5 235.065789 288.3 234.177632 M 291.9 242.171053 C 286.6 239.802632 279.3 242.171053 282.4 248.684211 M 281.7 233.092105 C 279.5 236.151316 280.2 240.592105 282.7 243.256579 M 281.3 241.282895 C 277.7 241.973684 274.2 243.947368 276.3 249.572368 M 275.8 245.032895 C 271.2 243.552632 265.3 247.006579 268.8 251.743421 M 268.1 247.203947 C 264.1 246.513158 259.4 250.756579 263.2 255 M 261.7 251.546053 C 258.1 252.532895 253.8 256.480263 257.6 259.835526 M 279.9 231.315789 C 274.7 233.585526 274.2 239.407895 276.6 243.651316 M 274.4 220.657895 C 266.7 223.717105 266.8 233.881579 275.4 237.138158 M 271.7 234.769737 C 267.1 237.532895 266.2 242.664474 269.3 246.019737 M 263.6 216.809211 C 260.6 217.796053 260.8 227.269737 269 227.072368 M 255.1 219.967105 C 248.9 224.111842 256.4 234.473684 266.4 226.973684 M 260.9 229.736842 C 260 233.881579 261.2 238.519737 268 239.111842 M 261.3 235.263158 C 256.4 237.138158 255.5 247.203947 264.3 247.993421 M 245.7 226.184211 C 239.4 232.006579 250.9 237.039474 255.1 228.552632 M 237 235.756579 C 233.9 239.605263 244.7 249.375 249.5 232.993421 M 250.6 232.697368 C 250.9 236.743421 253.3 238.914474 257.9 239.210526 M 257.9 242.861842 C 250.2 244.144737 247.8 253.618421 256.3 255.690789 M 243.8 241.677632 C 243.5 245.230263 247.3 248.190789 251.5 247.598684 M 255.4 255.394737 C 248.4 256.973684 247.5 265.953947 253.7 265.361842 M 250.5 273.848684 C 244.7 272.072368 244.5 265.164474 249.7 262.598684 " transform="matrix(0.0390625,0,0,0.0395833,0,0)"/>
<path style="fill:none;stroke-width:0.4;stroke-linecap:butt;stroke-linejoin:miter;stroke:rgb(0%,0%,0%);stroke-opacity:1;stroke-miterlimit:4;" d="M 245.7 267.828947 C 240.8 270.789474 242.7 277.796053 245.3 278.782895 C 247.9 279.769737 250 278.585526 250.3 276.414474 M 249.8 286.381579 C 250.4 289.736842 237.9 288.355263 244.3 277.993421 M 244.3 286.875 C 240.1 293.486842 246.9 298.914474 251.2 293.190789 M 244.8 294.769737 C 243.1 300.098684 249.5 303.947368 253.6 299.802632 M 231 245.427632 C 228.7 250.065789 240.3 251.940789 241 242.072368 M 227.8 252.434211 C 225.5 261.710526 243 259.835526 238.5 247.796053 M 238.9 254.013158 C 241.3 255.098684 244 255 246.3 253.815789 C 248.6 252.532895 250.1 250.263158 250.5 247.697368 M 245.2 254.309211 C 245.8 256.973684 247.5 259.243421 249.9 260.625 M 236.8 256.677632 C 236 261.710526 241.1 265.855263 246.8 265.460526 M 237.7 261.611842 C 234.9 265.460526 234 272.861842 242.9 273.355263 M 224 262.993421 C 222.6 267.039474 231 271.085526 235.8 264.473684 M 221.4 273.157895 C 220.7 276.217105 228.2 280.164474 232.4 267.434211 M 229.1 273.947368 C 230.9 277.105263 237 279.671053 240.7 273.355263 M 234.7 277.302632 C 233.1 281.842105 237.4 285.986842 242.5 284.802632 M 225 276.315789 C 224 282.730263 231.5 286.381579 236 283.125 M 220.1 279.078947 C 217.9 287.269737 228.5 290.427632 232.5 284.210526 M 229.8 286.677632 C 230.2 291.315789 237.4 295.263158 243 291.513158 M 216.9 290.526316 C 216.4 292.598684 225 294.671053 226.3 287.467105 M 221.9 292.401316 C 223.9 297.631579 230.9 298.914474 234.9 292.401316 M 232.6 294.967105 C 233.6 300 239.8 302.664474 245.4 299.309211 M 247.7 301.282895 C 246.3 307.796053 253.1 313.125 257.3 309.473684 M 236.7 300.098684 C 234.7 307.302632 243.7 311.447368 248.7 307.401316 M 225.9 296.447368 C 225.4 303.157895 230.7 307.203947 236.7 304.243421 M 214.4 297.236842 C 212.6 301.480263 222.2 305.131579 226.7 301.381579 M 208.5 309.078947 C 211 311.940789 219.5 309.078947 220.2 302.763158 M 217.9 307.401316 C 221 310.953947 228.4 313.026316 231.3 305.230263 M 228.7 309.177632 C 228.7 314.802632 238.5 318.848684 241.7 308.585526 M 253.4 310.559211 C 252.4 313.322368 254.6 317.565789 259.1 318.059211 M 245.2 308.881579 C 244.6 311.940789 249.1 316.282895 253.9 314.605263 M 254.8 315.888158 C 253.5 319.243421 254.6 323.980263 259.1 323.881579 M 255.2 322.105263 C 251.8 324.868421 253.2 330 258.1 330.098684 M 253.5 326.940789 C 248.7 330.098684 250.4 337.203947 256.7 336.809211 M 239 313.026316 C 239 320.032895 247.7 321.019737 249.3 314.605263 M 246 318.552632 C 244.7 322.796053 248 326.842105 253.3 325.559211 M 247 368.388158 C 248.2 370.065789 253 367.203947 251.7 364.440789 C 250.4 361.578947 245.3 363.059211 245.9 366.118421 M 250.5 363.157895 C 251.1 357.631579 244.5 356.743421 242.8 361.578947 M 245.2 358.717105 C 246.9 355.855263 241.2 352.006579 238.9 356.151316 M 240.9 354.473684 C 242.5 350.427632 236.1 348.453947 235.6 352.302632 M 234.1 346.875 C 234.9 344.901316 242.1 346.085526 239.1 350.427632 M 244.6 355.460526 C 247.4 352.894737 242.6 347.664474 239.6 349.539474 M 263.6 363.355263 C 261.4 363.552632 259.1 365.131579 260.7 369.868421 C 261.9 373.223684 266.8 373.322368 267.6 371.447368 " transform="matrix(0.0390625,0,0,0.0395833,0,0)"/>
<path style="fill:none;stroke-width:0.4;stroke-linecap:butt;stroke-linejoin:miter;stroke:rgb(0%,0%,0%);stroke-opacity:1;stroke-miterlimit:4;" d="M 260.5 365.921053 C 258.3 364.440789 253.5 366.907895 255.7 371.546053 C 257.3 375 261.5 373.519737 262.1 371.743421 M 248.1 372.532895 C 249.3 374.506579 254.7 373.519737 255.7 371.546053 M 251.9 366.118421 C 253.1 365.328947 255.2 366.315789 255.6 367.302632 M 251.6 334.342105 C 247.8 336.809211 250.1 344.309211 255.9 342.335526 M 250.3 340.361842 C 247.3 342.730263 250.1 350.032895 255.6 347.171053 M 251.3 347.171053 C 249.2 349.342105 251.2 354.967105 256.5 353.881579 M 250.5 350.131579 C 249.3 349.638158 246.3 349.934211 245 351.907895 M 247.1 323.881579 C 244.3 326.743421 245.7 332.171053 250.9 332.664474 M 246.1 329.703947 C 242.1 331.677632 242.1 339.671053 250.1 339.967105 M 245.8 338.684211 C 243.5 340.460526 244.6 347.467105 250.4 346.578947 M 247.6 346.282895 C 246.8 347.171053 246.6 349.342105 247.4 350.230263 M 245.1 343.717105 C 243.1 343.717105 240.3 345.197368 239.6 347.368421 M 235.9 339.868421 C 236.6 337.894737 243 337.894737 243.5 344.013158 M 244.1 336.809211 C 243.2 337.006579 241.5 337.796053 241.1 339.572368 M 241.3 317.861842 C 238.6 320.526316 237.3 328.421053 245.6 329.901316 M 235.7 334.342105 C 235.7 332.171053 241.5 330.296053 243.5 333.453947 M 232 322.796053 C 232.8 324.375 236.8 326.644737 239.2 324.769737 M 211.2 310.164474 C 211.1 312.039474 211.9 313.914474 213.3 315.098684 C 214.7 316.381579 216.5 316.973684 218.4 316.677632 C 222.7 316.184211 223.6 312.532895 222.3 309.967105 M 219.1 316.875 C 216.2 320.328947 219.7 325.164474 222.9 323.782895 M 222.3 314.407895 C 224 313.815789 229.5 313.026316 231.2 315.592105 M 204.4 315.394737 C 203.1 317.368421 211.1 319.342105 213.8 315.592105 M 211.1 317.467105 C 210.8 320.131579 212.1 324.473684 218.7 322.598684 " transform="matrix(0.0390625,0,0,0.0395833,0,0)"/>
<path style="fill:none;stroke-width:0.4;stroke-linecap:butt;stroke-linejoin:miter;stroke:rgb(0%,0%,0%);stroke-opacity:1;stroke-miterlimit:4;" d="M 219.8 326.644737 C 220.8 324.375 216 320.822368 212.2 324.769737 C 208.4 328.815789 212.8 333.256579 215.1 331.776316 M 202.7 317.960526 C 200.7 321.414474 208.2 327.532895 212.5 321.809211 " transform="matrix(0.0390625,0,0,0.0395833,0,0)"/>
<path style="fill:none;stroke-width:0.4;stroke-linecap:butt;stroke-linejoin:miter;stroke:rgb(0%,0%,0%);stroke-opacity:1;stroke-miterlimit:4;" d="M 197.7 323.782895 C 195 326.644737 198.4 331.677632 202.4 330.098684 C 206.5 328.618421 206.1 324.276316 205.1 323.190789 " transform="matrix(0.0390625,0,0,0.0395833,0,0)"/>
<path style="fill:none;stroke-width:0.4;stroke-linecap:butt;stroke-linejoin:miter;stroke:rgb(0%,0%,0%);stroke-opacity:1;stroke-miterlimit:4;" d="M 192.5 329.013158 C 190.3 330.986842 192.5 335.625 195.5 335.625 C 198.5 335.625 200.4 333.256579 199.8 330.197368 M 204.8 328.618421 C 204.4 331.578947 208.8 333.552632 211.7 330.789474 M 211.7 325.361842 C 212.2 324.769737 211.9 323.684211 211.2 323.092105 M 187.8 332.861842 C 185.3 334.934211 190.8 340.460526 194.1 335.427632 M 207.2 331.875 C 205.6 333.355263 208.2 337.401316 210.8 336.217105 M 198.4 334.736842 C 198.8 337.401316 204.2 339.473684 207.6 335.328947 M 201.3 337.401316 C 200.5 339.177632 202.2 341.940789 204.3 341.644737 M 252.6 353.388158 C 250.6 357.335526 257 361.875 261.6 357.138158 M 257.2 359.210526 C 256.2 361.282895 257.4 364.342105 259.2 365.427632 M 251.2 363.651316 C 251.6 361.677632 254.4 359.901316 256.9 360.789474 M 247.9 358.618421 C 248.2 356.842105 250.5 355.065789 252.3 355.559211 M 399.5 278.190789 C 390.3 278.289474 394.2 292.993421 402.1 290.131579 M 396.5 289.144737 C 394.7 292.006579 398.2 296.743421 402.1 293.881579 M 401.1 294.473684 C 398.3 299.013158 408 305.921053 411.9 298.815789 M 408.8 301.480263 C 408.8 305.822368 421.3 308.486842 419.5 300 M 418.3 304.638158 C 421.3 309.572368 432.3 310.065789 431.2 302.565789 M 428.7 307.796053 C 431 311.151316 441.9 313.223684 441.5 306.315789 M 384.8 265.460526 C 386.3 269.506579 391.6 270.888158 397.4 268.519737 M 381.4 268.322368 C 385.1 270.592105 379.8 281.151316 374.3 276.907895 M 381.5 274.934211 C 385.5 276.809211 390.4 275.427632 391.8 269.703947 M 389.3 274.144737 C 389.7 277.105263 394 279.375 399.5 278.190789 M 379.4 277.203947 C 384.6 281.644737 377.1 290.625 373.7 286.480263 M 381.3 280.460526 C 383.8 282.335526 390.1 281.348684 390.7 276.513158 M 387.9 280.460526 C 388.4 283.618421 390.9 284.802632 394.3 284.901316 M 379.9 284.802632 C 382.5 288.355263 388.9 289.440789 391.8 284.703947 M 388.9 287.368421 C 388.7 290.822368 392.5 293.684211 396.5 292.894737 M 375 294.967105 C 378.3 296.743421 382 290.328947 379.1 285.986842 M 378.9 301.677632 C 382.9 301.875 383.4 295.855263 379.6 292.5 M 388 307.203947 C 391.4 306.414474 390.3 299.111842 382.2 298.519737 M 398.2 312.631579 C 401.4 311.743421 398.8 303.552632 389.9 304.144737 M 410.4 315.493421 C 412.6 312.138158 405.4 306.513158 399.4 309.473684 M 416.4 320.131579 C 420.4 321.315789 423.2 310.657895 410.5 312.434211 M 423.8 320.131579 C 427.3 319.144737 429.8 312.927632 419.6 314.901316 M 431.6 320.625 C 434.6 322.203947 436 313.125 426.6 315.592105 M 379.6 292.598684 C 383.5 294.671053 389.6 292.203947 389 287.269737 M 387.5 291.513158 C 388.8 293.782895 388.3 298.322368 385.8 299.506579 M 387.8 296.940789 C 390.4 297.927632 393.9 297.039474 396 292.894737 M 392.4 296.940789 C 393.1 298.717105 393.4 302.269737 391.7 304.144737 M 393 300 C 395.9 301.578947 399.2 299.506579 400.6 296.546053 M 398.8 299.111842 C 400.8 300.394737 402.7 306.414474 399.2 308.881579 M 401.2 306.118421 C 403.6 306.118421 407.2 306.118421 409.5 303.059211 M 407.8 304.835526 C 410 305.427632 412.6 308.980263 411.7 312.236842 M 411.8 311.052632 C 414.3 310.756579 418.5 309.078947 419.7 306.118421 M 418.5 308.092105 C 420.7 309.473684 421.9 312.039474 421.7 314.605263 M 421.7 312.532895 C 424.2 312.434211 426.4 311.052632 427 308.388158 M 426.4 310.164474 C 428.2 310.756579 430.4 312.927632 430.5 315.296053 M 430.2 313.815789 C 431.9 313.421053 433.4 312.434211 434.5 310.559211 M 439.4 310.263158 C 441.7 312.631579 438.6 320.328947 433.8 318.947368 M 389.9 154.243421 C 385.2 157.105263 371.6 156.217105 378.3 144.967105 M 391.3 146.644737 C 381.8 150.394737 370.3 143.092105 382.3 135.296053 M 379.1 132.730263 C 371.3 132.730263 366 145.263158 376.5 149.703947 M 348.6 137.960526 C 346.6 142.006579 353.9 146.447368 358.9 142.401316 C 362.8 139.342105 362.5 130.855263 360.2 127.697368 M 344.6 147.532895 C 342 156.019737 361 156.513158 358 142.993421 M 343.6 160.164474 C 344.2 166.578947 361.7 164.506579 356.1 151.480263 M 358.1 147.927632 C 359.5 149.901316 363.4 153.157895 370 152.467105 M 361 139.046053 C 361.6 141.315789 365.5 142.993421 370.5 141.315789 M 185.4 334.835526 C 180.9 337.894737 187.8 342.927632 190.3 337.401316 M 181.9 337.203947 C 177.5 340.361842 184.3 345.394737 186.8 339.868421 M 178.2 339.572368 C 173.8 342.828947 180.6 347.664474 183.2 342.335526 M 174.4 341.842105 C 170.1 344.111842 175.1 349.638158 179.4 344.802632 M 170.2 343.914474 C 165.9 346.184211 170.9 351.710526 175.2 346.875 M 191.8 337.302632 C 191.7 340.559211 197.9 341.940789 200.2 337.006579 M 195.7 340.263158 C 193.7 342.828947 197.3 345.789474 199.2 344.703947 M 187.4 339.868421 C 187.2 342.730263 192.6 344.309211 195.2 341.151316 M 190.3 342.828947 C 188.6 345 192 348.059211 194.3 347.171053 M 183.8 342.434211 C 184 344.605263 187.1 347.072368 190.4 345.690789 M 185.8 345.394737 C 184.5 346.480263 185.1 349.243421 186.9 350.131579 M 179.1 345.098684 C 178.6 347.072368 182 350.723684 185.5 348.355263 M 179.8 347.368421 C 177.8 349.144737 178 351.513158 180.6 351.907895 M 174.8 347.171053 C 174.6 348.552632 176.3 350.822368 178.5 350.526316 M 163.8 347.072368 C 161.8 348.157895 167 353.782895 170.3 348.552632 M 158.7 349.440789 C 156.1 350.625 162.5 356.842105 165.4 350.526316 M 175.4 349.243421 C 173.4 349.638158 172.1 352.5 173.8 353.684211 M 168.8 350.230263 C 168.6 351.414474 171.1 353.190789 173.1 352.598684 M 167.2 350.723684 C 165.2 351.907895 166.3 355.263158 168.6 354.769737 M 160.3 352.993421 C 158.5 354.276316 159.8 357.039474 162.3 356.447368 M 163.6 352.796053 C 163.6 353.486842 165.3 354.572368 166.6 354.078947 M 154.1 351.611842 C 151.8 352.598684 152 358.223684 159.6 355.164474 M 149 353.881579 C 145.8 355.361842 146.9 359.703947 153.8 355.559211 M 154.3 355.855263 C 153.5 356.644737 152.6 359.407895 155.8 358.322368 M 148.6 357.335526 C 147.3 358.421053 148.1 360.789474 150.9 359.901316 M 141.9 357.730263 C 139.6 359.013158 144.7 360.789474 148.1 357.236842 M 143.5 359.309211 C 142.5 360.296053 142.5 363.355263 145.1 362.269737 M 136.9 360.592105 C 135.4 361.677632 137.9 363.256579 142.9 361.085526 M 138.9 362.171053 C 137 363.651316 137.2 365.625 139.9 365.032895 M 133.5 362.960526 C 131.5 364.934211 134.4 366.118421 137.9 364.638158 M 133.5 365.131579 C 130.1 366.611842 131.6 369.473684 133.7 368.388158 M 247.5 374.901316 C 246.7 376.578947 249.3 377.960526 251.8 377.565789 C 254.1 377.269737 256.4 375.296053 254.6 372.631579 M 254.7 375.986842 C 257.1 377.763158 261.2 375.690789 261.2 373.026316 " transform="matrix(0.0390625,0,0,0.0395833,0,0)"/>
<path style="fill-rule:nonzero;fill:rgb(100%,100%,100%);fill-opacity:1;stroke-width:0.4;stroke-linecap:butt;stroke-linejoin:miter;stroke:rgb(0%,0%,0%);stroke-opacity:1;stroke-miterlimit:4;" d="M 396.8 103.026316 C 386.5 97.993421 365.1 88.421053 359 96.118421 C 364.6 93.848684 380.8 96.217105 394.2 108.552632 Z M 396.8 103.026316 " transform="matrix(0.0390625,0,0,0.0395833,0,0)"/>
<path style="fill-rule:nonzero;fill:rgb(100%,100%,100%);fill-opacity:1;stroke-width:0.4;stroke-linecap:butt;stroke-linejoin:miter;stroke:rgb(0%,0%,0%);stroke-opacity:1;stroke-miterlimit:4;" d="M 403 102.532895 C 391.1 88.618421 384 91.677632 375.5 87.039474 C 367.5 82.5 354.7 81.611842 352.2 88.717105 C 363.9 82.993421 374.7 91.677632 381.4 92.861842 C 390.4 94.342105 395.6 101.447368 398.3 104.605263 L 403 102.631579 Z M 447.9 100.657895 C 441.7 86.644737 428.5 90.296053 422.7 84.276316 C 414.2 75.493421 392.7 67.302632 383.7 73.421053 C 403.3 72.434211 411.7 86.940789 422.1 91.973684 C 429.6 95.625 437.6 103.322368 447.9 100.657895 Z M 447.9 100.657895 " transform="matrix(0.0390625,0,0,0.0395833,0,0)"/>
<path style="fill-rule:nonzero;fill:rgb(100%,100%,100%);fill-opacity:1;stroke-width:0.4;stroke-linecap:butt;stroke-linejoin:miter;stroke:rgb(0%,0%,0%);stroke-opacity:1;stroke-miterlimit:4;" d="M 424.7 99.177632 C 414.2 86.052632 397.9 74.506579 390.5 78.848684 C 400.3 79.440789 403.4 86.151316 410.3 90.592105 C 417.3 94.934211 414.2 101.348684 424.7 99.177632 Z M 374.5 122.368421 C 363.5 118.322368 341.8 116.151316 331.7 128.782895 C 348.5 131.743421 373.7 130.065789 374.5 122.368421 Z M 374.5 122.368421 " transform="matrix(0.0390625,0,0,0.0395833,0,0)"/>
<path style="fill-rule:nonzero;fill:rgb(100%,100%,100%);fill-opacity:1;stroke-width:0.4;stroke-linecap:butt;stroke-linejoin:miter;stroke:rgb(0%,0%,0%);stroke-opacity:1;stroke-miterlimit:4;" d="M 372.4 127.302632 C 361.4 122.072368 352.7 129.276316 342.3 128.289474 C 322.5 126.315789 308.3 127.5 306.5 137.072368 C 317.8 126.907895 336.9 135.296053 344.6 133.223684 C 352.3 131.052632 380.9 132.927632 389.9 136.776316 C 385.3 131.052632 378.1 129.572368 372.4 127.302632 Z M 407.2 97.796053 C 404.6 89.309211 404.8 80.328947 417.5 80.921053 C 414.3 76.875 402.5 74.901316 400.5 89.802632 C 386.5 79.539474 371.1 77.664474 368.3 86.644737 C 375.5 80.427632 386.7 84.868421 400.1 100.065789 C 402.3 98.980263 404.7 98.190789 407.2 97.796053 Z M 407.2 97.796053 " transform="matrix(0.0390625,0,0,0.0395833,0,0)"/>
<path style="fill-rule:nonzero;fill:rgb(100%,100%,100%);fill-opacity:1;stroke-width:0.4;stroke-linecap:butt;stroke-linejoin:miter;stroke:rgb(0%,0%,0%);stroke-opacity:1;stroke-miterlimit:4;" d="M 387.9 109.539474 C 379.9 104.309211 369.1 96.019737 388 92.565789 C 380 88.322368 368 90.197368 369.3 105.098684 C 347.7 96.414474 332.2 99.276316 328.9 107.960526 C 325.3 117.532895 338.7 122.763158 341 116.743421 C 338.6 117.730263 330.2 114.868421 334.6 109.539474 C 339 104.111842 361.4 108.157895 382.7 119.309211 C 388.7 122.269737 409 121.875 387.9 109.539474 Z M 387.9 109.539474 " transform="matrix(0.0390625,0,0,0.0395833,0,0)"/>
<path style="fill-rule:nonzero;fill:rgb(100%,100%,100%);fill-opacity:1;stroke-width:0.4;stroke-linecap:butt;stroke-linejoin:miter;stroke:rgb(0%,0%,0%);stroke-opacity:1;stroke-miterlimit:4;" d="M 382.2 123.651316 C 376.1 111.118421 356.1 122.467105 352.1 110.328947 C 346.5 128.190789 380.5 118.322368 382.2 123.651316 Z M 509.3 137.269737 C 513.5 139.440789 517.1 136.085526 510.7 133.618421 C 514.9 135.592105 518.6 132.532895 512.2 129.868421 C 516.4 131.940789 520 128.782895 513.6 126.217105 C 511.9 127.894737 509.5 134.210526 509.3 137.269737 Z M 511.5 113.092105 C 520.8 103.322368 510.8 99.967105 522.1 89.901316 C 531.4 81.710526 523.9 76.184211 532.6 69.868421 C 535.5 67.796053 541.6 63.651316 542.2 59.506579 C 545.9 68.782895 530.6 70.065789 531.6 84.967105 C 532.3 94.539474 525.8 93.651316 523.4 109.835526 C 522.9 113.092105 520.5 120.592105 511.5 113.092105 Z M 511.5 113.092105 " transform="matrix(0.0390625,0,0,0.0395833,0,0)"/>
<path style="fill-rule:nonzero;fill:rgb(100%,100%,100%);fill-opacity:1;stroke-width:0.4;stroke-linecap:butt;stroke-linejoin:miter;stroke:rgb(0%,0%,0%);stroke-opacity:1;stroke-miterlimit:4;" d="M 515.6 117.532895 C 520.8 106.480263 526.7 106.578947 529.6 102.335526 C 535 94.046053 546.4 103.717105 556.1 96.315789 C 554.4 106.776316 541.4 103.125 535.7 109.835526 C 530 116.546053 525.4 119.506579 515.7 117.532895 Z M 515.6 117.532895 " transform="matrix(0.0390625,0,0,0.0395833,0,0)"/>
<path style="fill-rule:nonzero;fill:rgb(100%,100%,100%);fill-opacity:1;stroke-width:0.4;stroke-linecap:butt;stroke-linejoin:miter;stroke:rgb(0%,0%,0%);stroke-opacity:1;stroke-miterlimit:4;" d="M 517 121.085526 C 526 113.881579 532.6 118.717105 538.8 114.868421 C 554.5 105.394737 560.8 116.940789 574.8 112.302632 C 571.2 121.282895 550.4 113.585526 541.4 120.296053 C 532.4 127.006579 500.7 133.519737 516.9 121.085526 Z M 490.7 172.5 C 490.5 168.355263 486.7 163.125 481.3 162.532895 C 475.9 161.842105 473.5 156.118421 469.4 155.921053 C 465.3 155.625 462.6 147.434211 456.9 147.532895 C 451.3 147.631579 448.9 155.032895 462.2 161.743421 C 475.5 168.355263 490.2 176.052632 490.7 172.5 Z M 473.9 175.953947 C 468.3 176.151316 467.5 184.539474 462.1 184.736842 C 469.5 188.684211 475 182.861842 478.8 177.730263 L 474 175.953947 Z M 473.9 175.953947 " transform="matrix(0.0390625,0,0,0.0395833,0,0)"/>
<path style="fill-rule:nonzero;fill:rgb(100%,100%,100%);fill-opacity:1;stroke-width:0.4;stroke-linecap:butt;stroke-linejoin:miter;stroke:rgb(0%,0%,0%);stroke-opacity:1;stroke-miterlimit:4;" d="M 478.6 177.039474 C 473.6 181.085526 472.2 189.671053 479.3 192.236842 C 475.1 186.315789 486.8 183.651316 483.2 178.223684 Z M 478.6 177.039474 " transform="matrix(0.0390625,0,0,0.0395833,0,0)"/>
<path style="fill-rule:nonzero;fill:rgb(100%,100%,100%);fill-opacity:1;stroke-width:0.4;stroke-linecap:butt;stroke-linejoin:miter;stroke:rgb(0%,0%,0%);stroke-opacity:1;stroke-miterlimit:4;" d="M 483.4 177.335526 C 479.6 184.736842 489.5 185.625 486.9 191.348684 C 492.6 189.967105 493.5 179.309211 488.3 176.546053 L 483.4 177.236842 Z M 483.4 177.335526 " transform="matrix(0.0390625,0,0,0.0395833,0,0)"/>
<path style="fill-rule:nonzero;fill:rgb(100%,100%,100%);fill-opacity:1;stroke-width:0.4;stroke-linecap:butt;stroke-linejoin:miter;stroke:rgb(0%,0%,0%);stroke-opacity:1;stroke-miterlimit:4;" d="M 445.6 161.348684 C 454.9 160.756579 463.3 165.789474 469 173.881579 C 472.6 179.013158 484.7 181.085526 488.9 176.940789 C 492.9 172.894737 490.7 164.111842 480.4 166.875 C 477.8 162.631579 470.4 164.111842 466.7 160.460526 C 463 156.907895 449.2 146.644737 445.6 161.348684 Z M 445.6 161.348684 " transform="matrix(0.0390625,0,0,0.0395833,0,0)"/>
<path style="fill-rule:nonzero;fill:rgb(100%,100%,100%);fill-opacity:1;stroke-width:0.4;stroke-linecap:round;stroke-linejoin:miter;stroke:rgb(0%,0%,0%);stroke-opacity:1;stroke-miterlimit:4;" d="M 480.4 166.973684 C 477.9 167.467105 477.1 171.710526 478.7 173.881579 M 485.7 169.539474 C 486.4 170.822368 485.9 172.598684 485.5 173.486842 M 460.3 161.743421 C 465 161.940789 465.9 165.394737 471.1 166.677632 " transform="matrix(0.0390625,0,0,0.0395833,0,0)"/>
<path style="fill-rule:nonzero;fill:rgb(100%,100%,100%);fill-opacity:1;stroke-width:0.4;stroke-linecap:butt;stroke-linejoin:miter;stroke:rgb(0%,0%,0%);stroke-opacity:1;stroke-miterlimit:4;" d="M 457.1 150 C 470.1 152.565789 482.7 156.710526 494.7 162.335526 C 502.8 166.875 515.4 168.256579 526.3 165.098684 C 537.3 162.138158 558.5 159.177632 557.4 172.894737 C 563.2 165.986842 555.9 158.684211 541.2 157.401316 C 541.5 150.690789 534.3 144.671053 529.2 148.717105 C 533.9 148.026316 538 156.907895 528.6 160.460526 C 529.5 157.302632 528.4 153.947368 525.9 151.875 C 523.4 149.703947 519.9 149.309211 516.9 150.690789 C 521.3 151.973684 525.9 159.473684 515.9 162.335526 C 509.6 164.111842 500.5 161.842105 493.7 157.697368 C 486.9 153.552632 448.7 138.651316 457.1 149.901316 Z M 457.1 150 " transform="matrix(0.0390625,0,0,0.0395833,0,0)"/>
<path style="fill-rule:nonzero;fill:rgb(100%,100%,100%);fill-opacity:1;stroke-width:0.4;stroke-linecap:butt;stroke-linejoin:miter;stroke:rgb(0%,0%,0%);stroke-opacity:1;stroke-miterlimit:4;" d="M 498.6 143.289474 C 493.5 145.559211 496.8 150.986842 488.9 154.144737 C 480.9 157.105263 475.3 164.210526 477.1 170.328947 C 482.5 158.388158 492.1 158.980263 495.4 154.342105 C 498.7 149.605263 503.7 142.894737 498.6 143.289474 Z M 498.6 143.289474 " transform="matrix(0.0390625,0,0,0.0395833,0,0)"/>
<path style="fill-rule:nonzero;fill:rgb(100%,100%,100%);fill-opacity:1;stroke-width:0.4;stroke-linecap:butt;stroke-linejoin:miter;stroke:rgb(0%,0%,0%);stroke-opacity:1;stroke-miterlimit:4;" d="M 500 143.980263 C 499.8 153.355263 492.4 150 495.3 163.223684 C 496.2 167.269737 497.9 173.980263 495 180.690789 C 503.3 174.671053 498 162.039474 501.7 157.203947 C 503.5 154.835526 505.9 151.184211 506.7 148.223684 C 504.8 153.453947 505 163.618421 510.2 166.184211 C 506 156.217105 521.7 147.927632 510.9 136.184211 C 509.3 139.243421 504.4 144.177632 500.1 143.980263 Z M 473.8 134.605263 C 475.1 136.578947 476.4 141.414474 475.2 144.177632 C 477.8 142.598684 481.5 138.552632 482.7 135.888158 C 488 136.677632 490 143.190789 485 146.052632 C 488 146.052632 493.4 146.052632 496.3 142.598684 C 492.7 138.552632 481.5 132.434211 473.8 134.605263 Z M 473.8 134.605263 " transform="matrix(0.0390625,0,0,0.0395833,0,0)"/>
<path style="fill-rule:nonzero;fill:rgb(100%,100%,100%);fill-opacity:1;stroke-width:0.4;stroke-linecap:butt;stroke-linejoin:miter;stroke:rgb(0%,0%,0%);stroke-opacity:1;stroke-miterlimit:4;" d="M 393.7 116.052632 C 392.3 115.065789 390.6 114.375 388.9 114.078947 C 381.1 112.5 385.2 105.493421 391.8 105.592105 C 406 90.098684 413.9 102.039474 431.2 97.203947 C 437.2 95.427632 441.4 95.921053 444.6 97.401316 C 452.4 92.171053 461.4 93.552632 468 99.671053 C 468.6 98.486842 469.7 97.697368 471 97.302632 C 477.1 95.625 482 100.657895 483.7 107.368421 C 488.4 106.578947 493.8 108.947368 497.4 112.105263 C 502.3 109.539474 505.5 109.539474 506.9 112.105263 C 511.3 110.131579 516.9 108.651316 519.8 115.657895 C 522.7 122.664474 513.1 120.592105 511.5 135.296053 C 510.5 144.276316 500.5 147.927632 492.5 142.5 C 479.7 133.815789 467.2 132.532895 461 145.460526 C 454.9 158.684211 450 166.282895 435 162.039474 C 428.6 160.559211 422 163.125 418.3 168.453947 C 413.9 174.473684 407.3 168.947368 399.3 169.539474 C 409.3 167.960526 405.4 165.493421 414.2 164.901316 C 422.2 164.407895 420.1 156.907895 425.2 155.921053 C 405.2 160.953947 405.9 153.453947 389.4 158.684211 C 396.6 149.407895 408 154.638158 413.6 149.210526 C 398.7 148.914474 392 139.243421 385.3 143.190789 C 374.8 149.703947 379.3 167.960526 351.8 166.381579 C 338.4 165.690789 329.9 167.368421 322 175.361842 C 335.9 146.644737 354.8 162.434211 364 153.256579 C 368.8 149.013158 372.9 144.078947 376.3 138.552632 C 377.1 136.973684 378.6 135.789474 380.3 135.394737 C 357.4 128.190789 371.3 116.940789 393.7 116.052632 Z M 393.7 116.052632 " transform="matrix(0.0390625,0,0,0.0395833,0,0)"/>
<path style="fill-rule:nonzero;fill:rgb(100%,100%,100%);fill-opacity:1;stroke-width:0.4;stroke-linecap:round;stroke-linejoin:miter;stroke:rgb(0%,0%,0%);stroke-opacity:1;stroke-miterlimit:4;" d="M 506.9 112.006579 C 507.2 112.796053 507.4 113.782895 507.4 114.967105 C 507.4 120.592105 498.9 120.789474 498.4 129.177632 C 498.1 133.618421 497.6 135.986842 494.7 135.493421 C 491.8 135 489.1 130.361842 491.9 125.032895 " transform="matrix(0.0390625,0,0,0.0395833,0,0)"/>
<path style="fill-rule:nonzero;fill:rgb(100%,100%,100%);fill-opacity:1;stroke-width:0.4;stroke-linecap:butt;stroke-linejoin:miter;stroke:rgb(0%,0%,0%);stroke-opacity:1;stroke-miterlimit:4;" d="M 398 107.664474 C 396.2 106.381579 394 105.690789 391.8 105.592105 M 444.6 97.302632 C 451.4 100.263158 454.7 107.269737 464.6 107.664474 C 474.2 107.960526 480.1 121.875 496.1 112.796053 L 497.3 112.203947 M 468 99.671053 C 466.6 102.236842 466.2 105.098684 466.6 107.861842 M 436.8 128.881579 C 424.8 128.881579 421.6 135 421.6 140.921053 C 421.6 146.842105 427.3 154.638158 437.3 154.638158 C 447.3 154.638158 452.8 148.421053 452.8 141.710526 C 452.8 135 446.6 128.782895 436.8 128.782895 Z M 436.8 128.881579 " transform="matrix(0.0390625,0,0,0.0395833,0,0)"/>
<path style="fill-rule:nonzero;fill:rgb(100%,100%,100%);fill-opacity:1;stroke-width:0.4;stroke-linecap:butt;stroke-linejoin:miter;stroke:rgb(0%,0%,0%);stroke-opacity:1;stroke-miterlimit:4;" d="M 439 154.342105 C 438.8 150.986842 432.7 151.480263 433 148.914474 C 433.3 146.348684 436.3 145.263158 436.3 141.710526 C 436.3 138.059211 441.7 137.763158 443.5 140.723684 C 445.3 143.486842 450.7 149.013158 451.9 146.151316 M 443.5 140.723684 C 440.1 144.375 440 149.901316 443.1 153.848684 M 447.4 144.967105 C 446.4 147.039474 446.2 150 447.3 151.776316 " transform="matrix(0.0390625,0,0,0.0395833,0,0)"/>
<path style="fill:none;stroke-width:0.4;stroke-linecap:butt;stroke-linejoin:miter;stroke:rgb(0%,0%,0%);stroke-opacity:1;stroke-miterlimit:4;" d="M 495.5 135.592105 C 505 136.381579 506.5 125.921053 499.5 125.328947 M 483.8 107.467105 C 480.6 103.322368 473 101.940789 472.8 110.723684 " transform="matrix(0.0390625,0,0,0.0395833,0,0)"/>
<path style="fill-rule:nonzero;fill:rgb(100%,100%,100%);fill-opacity:1;stroke-width:0.4;stroke-linecap:butt;stroke-linejoin:miter;stroke:rgb(0%,0%,0%);stroke-opacity:1;stroke-miterlimit:4;" d="M 472 120.789474 C 468.8 112.796053 460.5 111.710526 456.2 115.657895 C 452.5 119.013158 452.4 127.697368 460.2 129.473684 C 463 126.217105 468.2 121.973684 472 120.789474 Z M 468.5 115.756579 C 463.8 111.710526 457 119.506579 463.2 126.611842 M 380.2 135.296053 C 383.4 134.605263 387.9 136.085526 394.9 139.342105 C 399.2 141.414474 412.4 145.756579 420.6 141.414474 C 412.1 144.473684 405.6 131.743421 399.2 133.223684 C 392.8 134.802632 381 137.171053 376.1 132.434211 C 388.1 133.223684 394.6 123.552632 408.5 131.940789 C 412.4 134.309211 417 135.592105 421.6 135.493421 C 410.3 121.875 395.4 130.559211 393.8 119.506579 C 400.6 126.907895 417.3 117.927632 425.8 131.644737 M 396.3 121.578947 C 394.7 119.605263 395.3 117.631579 393.7 116.052632 " transform="matrix(0.0390625,0,0,0.0395833,0,0)"/>
<path style=" stroke:none;fill-rule:nonzero;fill:rgb(0%,0%,0%);fill-opacity:1;" d="M 18.898438 4.253906 C 18.789062 4.136719 18.546875 4.226562 18.617188 4.46875 C 18.671875 4.355469 18.777344 4.273438 18.898438 4.25 Z M 18.214844 4.910156 C 18.28125 4.855469 18.355469 4.8125 18.4375 4.78125 C 18.40625 4.699219 18.355469 4.628906 18.289062 4.574219 C 18.230469 4.535156 18.066406 4.761719 18.214844 4.90625 Z M 18.214844 4.910156 "/>
<path style="fill:none;stroke-width:0.4;stroke-linecap:round;stroke-linejoin:miter;stroke:rgb(0%,0%,0%);stroke-opacity:1;stroke-miterlimit:4;" d="M 458.7 113.486842 C 454.1 110.427632 449.8 110.723684 448.4 113.190789 C 445.1 113.190789 442.3 115.559211 442.2 120.394737 M 449.3 122.467105 C 443.8 118.717105 436.2 120.098684 436.7 128.585526 M 433.3 133.519737 C 436 131.348684 439.9 129.671053 442.9 133.519737 M 474.7 125.131579 C 473.7 126.513158 472.9 128.684211 474.6 132.138158 C 472.6 129.276316 467.4 129.276316 461.8 136.480263 M 486.9 124.736842 C 480.2 125.526316 480.4 129.868421 485.8 131.743421 M 439.3 108.256579 C 433.6 107.171053 429.5 110.526316 437.3 113.289474 M 450.1 104.506579 C 442.1 102.532895 438.9 104.605263 442.5 106.480263 M 427 136.480263 C 426.8 139.440789 428.3 143.092105 433 138.947368 M 428.6 144.967105 C 428.7 145.855263 428.4 146.644737 427.9 147.434211 M 410 107.368421 C 405.1 105.888158 404.2 101.447368 410 101.842105 M 408.4 117.828947 C 403 115.855263 403 110.723684 407.4 111.217105 M 418.4 114.967105 C 412.1 113.486842 411.9 109.144737 416.6 109.835526 M 419.2 101.644737 C 415.8 101.447368 410.7 105.098684 419.3 107.269737 M 428.6 109.144737 C 420.7 107.960526 420.9 111.118421 425.5 113.190789 M 434.5 101.644737 C 428.5 100.460526 426.4 104.111842 430.5 105.592105 M 415.5 123.947368 C 414 122.664474 412.8 116.940789 419.8 118.618421 M 430.1 122.072368 C 425.4 120.789474 420.9 125.526316 425.2 128.092105 M 436.4 116.644737 C 431.4 115.559211 427.2 117.138158 429.9 118.914474 " transform="matrix(0.0390625,0,0,0.0395833,0,0)"/>
<path style="fill-rule:nonzero;fill:rgb(100%,100%,100%);fill-opacity:1;stroke-width:0.4;stroke-linecap:butt;stroke-linejoin:miter;stroke:rgb(0%,0%,0%);stroke-opacity:1;stroke-miterlimit:4;" d="M 483.6 107.467105 C 480.6 108.157895 478 110.131579 476.6 112.894737 " transform="matrix(0.0390625,0,0,0.0395833,0,0)"/>
</g>
</svg>
