<svg xmlns="http://www.w3.org/2000/svg" width="25" height="px" viewBox="0 0 25 19"><defs><clipPath id="a"><path d="M0 0h2v9H0Zm0 0"/></clipPath><clipPath id="b"><path d="M.195 0h4.133v12.836h.164v5.996L4.328 19H.195Zm0 0"/></clipPath><clipPath id="c"><path d="M2 0h3v9H2Zm0 0"/></clipPath><clipPath id="d"><path d="M.195 0h4.133v12.836h.164v5.996L4.328 19H.195Zm0 0"/></clipPath><clipPath id="e"><path d="M0 0h5v6H0Zm0 0"/></clipPath><clipPath id="f"><path d="M.195 0h4.133v12.836h.164v5.996L4.328 19H.195Zm0 0"/></clipPath><clipPath id="g"><path d="M0 10h2v9H0Zm0 0"/></clipPath><clipPath id="h"><path d="M.195 0h4.133v12.836h.164v5.996L4.328 19H.195Zm0 0"/></clipPath><clipPath id="i"><path d="M2 10h3v9H2Zm0 0"/></clipPath><clipPath id="j"><path d="M.195 0h4.133v12.836h.164v5.996L4.328 19H.195Zm0 0"/></clipPath><clipPath id="k"><path d="M0 13h5v6H0Zm0 0"/></clipPath><clipPath id="l"><path d="M.195 0h4.133v12.836h.164v5.996L4.328 19H.195Zm0 0"/></clipPath><clipPath id="m"><path d="M0 7h5v5H0Zm0 0"/></clipPath><clipPath id="n"><path d="M.195 0h4.133v12.836h.164v5.996L4.328 19H.195Zm0 0"/></clipPath></defs><path d="M0 0h25v19H0z" style="fill:#ce1720;fill-opacity:1;stroke:none"/><g clip-path="url(#a)"><g clip-path="url(#b)"><path d="M.938 0v.297H.754V.59H.527v.34H.36v.273H.031V.508H.36V.125H.031V0Zm.539 1.625v.316h-.165v.254h-.167v-.254H.98v-.316H.816v-.422H.98V.887h.165V.633h.167v.254h.165v.316h.164v.422Zm-.352-.02h.207v-.382h-.207Zm-.54 2.258h.169v-.379H.586Zm1.118 0h.164v-.379h-.164ZM.031 6.438h.29v.277h.12v.336H.63v.316h.25v-.316h.184v-.336h.164v-.277H.98V6.12h.434v.211h.27v.36h.226v.402h-.164v.297h-.144v.273h-.125v.293h-.188v.254h-.144v.234H.96v.293H.69v-.316H.504v-.293H.359v-.191H.031v-.485H.36v-.422H.031Zm0 0" style="stroke:none;fill-rule:nonzero;fill:#fff;fill-opacity:1"/></g></g><g clip-path="url(#c)"><g clip-path="url(#d)"><path d="M3.582 0v.297h.188V.59h.226v.34h.164v.273h.332V.508H4.16V.125h.332V0Zm-.535 1.625v.316h.164v.254h.164v-.254h.168v-.316h.164v-.422h-.164V.887h-.168V.633h-.164v.254h-.164v.316h-.164v.422Zm.351-.02h-.207v-.382h.207Zm.536 2.258H3.77v-.379h.164Zm-1.114 0h-.168v-.379h.168Zm1.672 2.575h-.289v.277h-.125v.336h-.183v.316h-.25v-.316H3.46v-.336h-.168v-.277h.25V6.12h-.434v.211h-.27v.36h-.226v.402h.164v.297h.145v.273h.125v.293h.183v.254h.145v.234h.188v.293h.269v-.316h.184v-.293h.144v-.191h.332v-.485H4.16v-.422h.332Zm0 0" style="stroke:none;fill-rule:nonzero;fill:#fff;fill-opacity:1"/></g></g><g clip-path="url(#e)"><g clip-path="url(#f)"><path d="M2.18 0v.676h.164V0h.66v.297H2.84V.59h-.25v.34h-.164v.273h-.328V.93H1.93V.59h-.246V.297h-.168V0Zm-.043 5.785v-.234h-.125v-.274h-.145V4.98h-.164v-.293H1.54v-.21h-.187V4.18h-.247v.297H.918v.21H.773v.293H.61v.297H.484v.274H.36v.36H.031v-.93H.36v-.422H.031v-.696H.36v.297h.207v.293h.207V4.16H.98v-.297h.165v-.379H.98v-.296H.773V2.89H.566v.297H.36v.296H.031v-.867H.36v-.402H.031v-.59H.36v.273h.168v.34h.227v.274h.184v.316h.144v.254h.29v-.254h.144v-.316h.187v-.274h.227v-.34h.168v-.273h.328v.273h.164v.34h.23v.274h.184v.316h.144v.254h.29v-.254h.144v-.316h.188v-.274h.226v-.34h.164v-.273h.332v.59H4.16v.402h.332v.867H4.16v-.296h-.203V2.89H3.75v.297h-.207v.296h-.168v.38h.168v.296h.207v.293h.207V4.16h.203v-.297h.332v.696H4.16v.421h.332v.93H4.16v-.36h-.12v-.273h-.126V4.98H3.75v-.293h-.145v-.21h-.187V4.18h-.246v.297h-.188v.21H2.82v.293h-.168v.297h-.144v.274h-.121v.234Zm.043-3.527v.57h.164v-.57Zm-.082 1.226v-.296H1.89V2.89h-.207v.297h-.207v.296h-.165v.38h.165v.296h.207v.293h.207V4.16h.207v-.297h.328v.297h.207v.293h.207V4.16h.207v-.297h.164v-.379h-.164v-.296H2.84V2.89h-.207v.297h-.207v.296Zm.082.97v.57h.164v-.57Zm0 0" style="stroke:none;fill-rule:nonzero;fill:#fff;fill-opacity:1"/></g></g><g clip-path="url(#g)"><g clip-path="url(#h)"><path d="M.938 19v-.297H.754v-.293H.527v-.34H.36v-.273H.031v.695H.36v.383H.031V19Zm.539-1.625v-.316h-.165v-.254h-.167v.254H.98v.316H.816v.422H.98v.316h.165v.254h.167v-.254h.165v-.316h.164v-.422Zm-.352.02h.207v.382h-.207Zm-.54-2.258h.169v.379H.586Zm1.118 0h.164v.379h-.164ZM.031 12.562h.29v-.277h.12v-.336H.63v-.316h.25v.316h.184v.336h.164v.277H.98v.317h.434v-.211h.27v-.36h.226v-.402h-.164v-.297h-.144v-.273h-.125v-.293h-.188v-.254h-.144v-.234H.96v-.293H.69v.316H.504v.293H.359v.191H.031v.485H.36v.422H.031Zm0 0" style="stroke:none;fill-rule:nonzero;fill:#fff;fill-opacity:1"/></g></g><g clip-path="url(#i)"><g clip-path="url(#j)"><path d="M3.582 19v-.297h.188v-.293h.226v-.34h.164v-.273h.332v.695H4.16v.383h.332V19Zm-.535-1.625v-.316h.164v-.254h.164v.254h.168v.316h.164v.422h-.164v.316h-.168v.254h-.164v-.254h-.164v-.316h-.164v-.422Zm.351.02h-.207v.382h.207Zm.536-2.258H3.77v.379h.164Zm-1.114 0h-.168v.379h.168Zm1.672-2.575h-.289v-.277h-.125v-.336h-.183v-.316h-.25v.316H3.46v.336h-.168v.277h.25v.317h-.434v-.211h-.27v-.36h-.226v-.402h.164v-.297h.145v-.273h.125v-.293h.183v-.254h.145v-.234h.188v-.293h.269v.316h.184v.293h.144v.191h.332v.485H4.16v.422h.332Zm0 0" style="stroke:none;fill-rule:nonzero;fill:#fff;fill-opacity:1"/></g></g><g clip-path="url(#k)"><g clip-path="url(#l)"><path d="M2.18 19v-.676h.164V19h.66v-.297H2.84v-.293h-.25v-.34h-.164v-.273h-.328v.273H1.93v.34h-.246v.293h-.168V19Zm-.043-5.785v.234h-.125v.274h-.145v.297h-.164v.293H1.54v.21h-.187v.297h-.247v-.297H.918v-.21H.773v-.293H.61v-.297H.484v-.274H.36v-.36H.031v.93H.36v.422H.031v.696H.36v-.297h.207v-.293h.207v.293H.98v.297h.165v.379H.98v.297H.773v.296H.566v-.297H.36v-.296H.031v.867H.36v.402H.031v.59H.36v-.273h.168v-.34h.227v-.274h.184v-.316h.144v-.254h.29v.254h.144v.316h.187v.274h.227v.34h.168v.273h.328v-.273h.164v-.34h.23v-.274h.184v-.316h.144v-.254h.29v.254h.144v.316h.188v.274h.226v.34h.164v.273h.332v-.59H4.16v-.402h.332v-.867H4.16v.297h-.203v.296H3.75v-.297h-.207v-.296h-.168v-.38h.168v-.296h.207v-.293h.207v.293h.203v.297h.332v-.696H4.16v-.421h.332v-.93H4.16v.36h-.12v.273h-.126v.297H3.75v.293h-.145v.21h-.187v.297h-.246v-.297h-.188v-.21H2.82v-.293h-.168v-.297h-.144v-.274h-.121v-.234Zm.043 3.527v-.57h.164v.57Zm-.082-1.226v.297H1.89v.296h-.207v-.297h-.207v-.296h-.165v-.38h.165v-.296h.207v-.293h.207v.293h.207v.297h.328v-.297h.207v-.293h.207v.293h.207v.297h.164v.379h-.164v.297H2.84v.296h-.207v-.297h-.207v-.296Zm.082-.97v-.57h.164v.57Zm0 0" style="stroke:none;fill-rule:nonzero;fill:#fff;fill-opacity:1"/></g></g><g clip-path="url(#m)"><g clip-path="url(#n)"><path d="M.031 8.613H.36v.297h.145v.168h.168v.297h.144v.25H.672v.297H.504v.168H.359v.297H.031Zm4.461 0v1.774H4.16v-.297h-.144v-.168h-.164v-.297h-.145v-.25h.145v-.297h.164V8.91h.144v-.297ZM1.477 9.691h.164V9.31h-.164Zm1.57 0V9.31h-.164v.382ZM2.18 8.445h.164v-.383H2.18Zm0 2.11v.379h.164v-.38ZM1.145 8.973h.289v-.235h.207v-.21h.105v-.212h.121v-.293h.168v-.296h.082v-.274h.29v.274h.081v.296h.164v.293h.125v.211h.106v.211h.203v.235h.289v1.054h-.29v.235h-.202v.21h-.106v.212h-.125v.293h-.164v.296h-.082v.274h-.289v-.274h-.082v-.296h-.168v-.293h-.12v-.211H1.64v-.211h-.207v-.235h-.29Zm1.035.191v-.32h-.168v-.211h-.164v.531h.164v.188h.105v.296h-.105v.188h-.164v.531h.164v-.21h.168v-.321h.164v.32h.164v.211h.168v-.531h-.168v-.188h-.102v-.296h.102v-.188h.168v-.531h-.168v.21h-.164v.321Zm0 0" style="stroke:none;fill-rule:nonzero;fill:#fff;fill-opacity:1"/></g></g><path d="M4.297 12.668H25V19H4.297Zm0 0" style="stroke:none;fill-rule:nonzero;fill:#007c30;fill-opacity:1"/></svg>