<?xml version="1.0" encoding="UTF-8"?>
<svg xmlns="http://www.w3.org/2000/svg" xmlns:xlink="http://www.w3.org/1999/xlink" width="25px" height="px" viewBox="0 0 25 19" version="1.1">
<defs>
<clipPath id="clip1">
  <path d="M 0 0 L 2 0 L 2 9 L 0 9 Z M 0 0 "/>
</clipPath>
<clipPath id="clip2">
  <path d="M 0.195312 0 L 4.328125 0 L 4.328125 12.835938 L 4.492188 12.835938 L 4.492188 18.832031 L 4.328125 19 L 0.195312 19 Z M 0.195312 0 "/>
</clipPath>
<clipPath id="clip3">
  <path d="M 2 0 L 5 0 L 5 9 L 2 9 Z M 2 0 "/>
</clipPath>
<clipPath id="clip4">
  <path d="M 0.195312 0 L 4.328125 0 L 4.328125 12.835938 L 4.492188 12.835938 L 4.492188 18.832031 L 4.328125 19 L 0.195312 19 Z M 0.195312 0 "/>
</clipPath>
<clipPath id="clip5">
  <path d="M 0 0 L 5 0 L 5 6 L 0 6 Z M 0 0 "/>
</clipPath>
<clipPath id="clip6">
  <path d="M 0.195312 0 L 4.328125 0 L 4.328125 12.835938 L 4.492188 12.835938 L 4.492188 18.832031 L 4.328125 19 L 0.195312 19 Z M 0.195312 0 "/>
</clipPath>
<clipPath id="clip7">
  <path d="M 0 10 L 2 10 L 2 19 L 0 19 Z M 0 10 "/>
</clipPath>
<clipPath id="clip8">
  <path d="M 0.195312 0 L 4.328125 0 L 4.328125 12.835938 L 4.492188 12.835938 L 4.492188 18.832031 L 4.328125 19 L 0.195312 19 Z M 0.195312 0 "/>
</clipPath>
<clipPath id="clip9">
  <path d="M 2 10 L 5 10 L 5 19 L 2 19 Z M 2 10 "/>
</clipPath>
<clipPath id="clip10">
  <path d="M 0.195312 0 L 4.328125 0 L 4.328125 12.835938 L 4.492188 12.835938 L 4.492188 18.832031 L 4.328125 19 L 0.195312 19 Z M 0.195312 0 "/>
</clipPath>
<clipPath id="clip11">
  <path d="M 0 13 L 5 13 L 5 19 L 0 19 Z M 0 13 "/>
</clipPath>
<clipPath id="clip12">
  <path d="M 0.195312 0 L 4.328125 0 L 4.328125 12.835938 L 4.492188 12.835938 L 4.492188 18.832031 L 4.328125 19 L 0.195312 19 Z M 0.195312 0 "/>
</clipPath>
<clipPath id="clip13">
  <path d="M 0 7 L 5 7 L 5 12 L 0 12 Z M 0 7 "/>
</clipPath>
<clipPath id="clip14">
  <path d="M 0.195312 0 L 4.328125 0 L 4.328125 12.835938 L 4.492188 12.835938 L 4.492188 18.832031 L 4.328125 19 L 0.195312 19 Z M 0.195312 0 "/>
</clipPath>
</defs>
<g id="surface1">
<rect x="0" y="0" width="25" height="19" style="fill:rgb(80.784315%,9.019608%,12.54902%);fill-opacity:1;stroke:none;"/>
<g clip-path="url(#clip1)" clip-rule="nonzero">
<g clip-path="url(#clip2)" clip-rule="nonzero">
<path style=" stroke:none;fill-rule:nonzero;fill:rgb(100%,100%,100%);fill-opacity:1;" d="M 0.9375 0 L 0.9375 0.296875 L 0.753906 0.296875 L 0.753906 0.589844 L 0.527344 0.589844 L 0.527344 0.929688 L 0.359375 0.929688 L 0.359375 1.203125 L 0.03125 1.203125 L 0.03125 0.507812 L 0.359375 0.507812 L 0.359375 0.125 L 0.03125 0.125 L 0.03125 0 Z M 1.476562 1.625 L 1.476562 1.941406 L 1.3125 1.941406 L 1.3125 2.195312 L 1.144531 2.195312 L 1.144531 1.941406 L 0.980469 1.941406 L 0.980469 1.625 L 0.816406 1.625 L 0.816406 1.203125 L 0.980469 1.203125 L 0.980469 0.886719 L 1.144531 0.886719 L 1.144531 0.632812 L 1.3125 0.632812 L 1.3125 0.886719 L 1.476562 0.886719 L 1.476562 1.203125 L 1.640625 1.203125 L 1.640625 1.625 Z M 1.125 1.605469 L 1.332031 1.605469 L 1.332031 1.222656 L 1.125 1.222656 Z M 0.585938 3.863281 L 0.753906 3.863281 L 0.753906 3.484375 L 0.585938 3.484375 Z M 1.703125 3.863281 L 1.867188 3.863281 L 1.867188 3.484375 L 1.703125 3.484375 Z M 0.03125 6.4375 L 0.320312 6.4375 L 0.320312 6.714844 L 0.441406 6.714844 L 0.441406 7.050781 L 0.628906 7.050781 L 0.628906 7.367188 L 0.878906 7.367188 L 0.878906 7.050781 L 1.0625 7.050781 L 1.0625 6.714844 L 1.226562 6.714844 L 1.226562 6.4375 L 0.980469 6.4375 L 0.980469 6.121094 L 1.414062 6.121094 L 1.414062 6.332031 L 1.683594 6.332031 L 1.683594 6.691406 L 1.910156 6.691406 L 1.910156 7.09375 L 1.746094 7.09375 L 1.746094 7.390625 L 1.601562 7.390625 L 1.601562 7.664062 L 1.476562 7.664062 L 1.476562 7.957031 L 1.289062 7.957031 L 1.289062 8.210938 L 1.144531 8.210938 L 1.144531 8.445312 L 0.960938 8.445312 L 0.960938 8.738281 L 0.691406 8.738281 L 0.691406 8.421875 L 0.503906 8.421875 L 0.503906 8.128906 L 0.359375 8.128906 L 0.359375 7.9375 L 0.03125 7.9375 L 0.03125 7.453125 L 0.359375 7.453125 L 0.359375 7.03125 L 0.03125 7.03125 Z M 0.03125 6.4375 "/>
</g>
</g>
<g clip-path="url(#clip3)" clip-rule="nonzero">
<g clip-path="url(#clip4)" clip-rule="nonzero">
<path style=" stroke:none;fill-rule:nonzero;fill:rgb(100%,100%,100%);fill-opacity:1;" d="M 3.582031 0 L 3.582031 0.296875 L 3.769531 0.296875 L 3.769531 0.589844 L 3.996094 0.589844 L 3.996094 0.929688 L 4.160156 0.929688 L 4.160156 1.203125 L 4.492188 1.203125 L 4.492188 0.507812 L 4.160156 0.507812 L 4.160156 0.125 L 4.492188 0.125 L 4.492188 0 Z M 3.046875 1.625 L 3.046875 1.941406 L 3.210938 1.941406 L 3.210938 2.195312 L 3.375 2.195312 L 3.375 1.941406 L 3.542969 1.941406 L 3.542969 1.625 L 3.707031 1.625 L 3.707031 1.203125 L 3.542969 1.203125 L 3.542969 0.886719 L 3.375 0.886719 L 3.375 0.632812 L 3.210938 0.632812 L 3.210938 0.886719 L 3.046875 0.886719 L 3.046875 1.203125 L 2.882812 1.203125 L 2.882812 1.625 Z M 3.398438 1.605469 L 3.191406 1.605469 L 3.191406 1.222656 L 3.398438 1.222656 Z M 3.933594 3.863281 L 3.769531 3.863281 L 3.769531 3.484375 L 3.933594 3.484375 Z M 2.820312 3.863281 L 2.652344 3.863281 L 2.652344 3.484375 L 2.820312 3.484375 Z M 4.492188 6.4375 L 4.203125 6.4375 L 4.203125 6.714844 L 4.078125 6.714844 L 4.078125 7.050781 L 3.894531 7.050781 L 3.894531 7.367188 L 3.644531 7.367188 L 3.644531 7.050781 L 3.460938 7.050781 L 3.460938 6.714844 L 3.292969 6.714844 L 3.292969 6.4375 L 3.542969 6.4375 L 3.542969 6.121094 L 3.109375 6.121094 L 3.109375 6.332031 L 2.839844 6.332031 L 2.839844 6.691406 L 2.613281 6.691406 L 2.613281 7.09375 L 2.777344 7.09375 L 2.777344 7.390625 L 2.921875 7.390625 L 2.921875 7.664062 L 3.046875 7.664062 L 3.046875 7.957031 L 3.230469 7.957031 L 3.230469 8.210938 L 3.375 8.210938 L 3.375 8.445312 L 3.5625 8.445312 L 3.5625 8.738281 L 3.832031 8.738281 L 3.832031 8.421875 L 4.015625 8.421875 L 4.015625 8.128906 L 4.160156 8.128906 L 4.160156 7.9375 L 4.492188 7.9375 L 4.492188 7.453125 L 4.160156 7.453125 L 4.160156 7.03125 L 4.492188 7.03125 Z M 4.492188 6.4375 "/>
</g>
</g>
<g clip-path="url(#clip5)" clip-rule="nonzero">
<g clip-path="url(#clip6)" clip-rule="nonzero">
<path style=" stroke:none;fill-rule:nonzero;fill:rgb(100%,100%,100%);fill-opacity:1;" d="M 2.179688 0 L 2.179688 0.675781 L 2.34375 0.675781 L 2.34375 0 L 3.003906 0 L 3.003906 0.296875 L 2.839844 0.296875 L 2.839844 0.589844 L 2.589844 0.589844 L 2.589844 0.929688 L 2.425781 0.929688 L 2.425781 1.203125 L 2.097656 1.203125 L 2.097656 0.929688 L 1.929688 0.929688 L 1.929688 0.589844 L 1.683594 0.589844 L 1.683594 0.296875 L 1.515625 0.296875 L 1.515625 0 Z M 2.136719 5.785156 L 2.136719 5.550781 L 2.011719 5.550781 L 2.011719 5.277344 L 1.867188 5.277344 L 1.867188 4.980469 L 1.703125 4.980469 L 1.703125 4.6875 L 1.539062 4.6875 L 1.539062 4.476562 L 1.351562 4.476562 L 1.351562 4.179688 L 1.105469 4.179688 L 1.105469 4.476562 L 0.917969 4.476562 L 0.917969 4.6875 L 0.773438 4.6875 L 0.773438 4.980469 L 0.609375 4.980469 L 0.609375 5.277344 L 0.484375 5.277344 L 0.484375 5.550781 L 0.359375 5.550781 L 0.359375 5.910156 L 0.03125 5.910156 L 0.03125 4.980469 L 0.359375 4.980469 L 0.359375 4.558594 L 0.03125 4.558594 L 0.03125 3.863281 L 0.359375 3.863281 L 0.359375 4.160156 L 0.566406 4.160156 L 0.566406 4.453125 L 0.773438 4.453125 L 0.773438 4.160156 L 0.980469 4.160156 L 0.980469 3.863281 L 1.144531 3.863281 L 1.144531 3.484375 L 0.980469 3.484375 L 0.980469 3.1875 L 0.773438 3.1875 L 0.773438 2.890625 L 0.566406 2.890625 L 0.566406 3.1875 L 0.359375 3.1875 L 0.359375 3.484375 L 0.03125 3.484375 L 0.03125 2.617188 L 0.359375 2.617188 L 0.359375 2.214844 L 0.03125 2.214844 L 0.03125 1.625 L 0.359375 1.625 L 0.359375 1.898438 L 0.527344 1.898438 L 0.527344 2.238281 L 0.753906 2.238281 L 0.753906 2.511719 L 0.9375 2.511719 L 0.9375 2.828125 L 1.082031 2.828125 L 1.082031 3.082031 L 1.371094 3.082031 L 1.371094 2.828125 L 1.515625 2.828125 L 1.515625 2.511719 L 1.703125 2.511719 L 1.703125 2.238281 L 1.929688 2.238281 L 1.929688 1.898438 L 2.097656 1.898438 L 2.097656 1.625 L 2.425781 1.625 L 2.425781 1.898438 L 2.589844 1.898438 L 2.589844 2.238281 L 2.820312 2.238281 L 2.820312 2.511719 L 3.003906 2.511719 L 3.003906 2.828125 L 3.148438 2.828125 L 3.148438 3.082031 L 3.4375 3.082031 L 3.4375 2.828125 L 3.582031 2.828125 L 3.582031 2.511719 L 3.769531 2.511719 L 3.769531 2.238281 L 3.996094 2.238281 L 3.996094 1.898438 L 4.160156 1.898438 L 4.160156 1.625 L 4.492188 1.625 L 4.492188 2.214844 L 4.160156 2.214844 L 4.160156 2.617188 L 4.492188 2.617188 L 4.492188 3.484375 L 4.160156 3.484375 L 4.160156 3.1875 L 3.957031 3.1875 L 3.957031 2.890625 L 3.75 2.890625 L 3.75 3.1875 L 3.542969 3.1875 L 3.542969 3.484375 L 3.375 3.484375 L 3.375 3.863281 L 3.542969 3.863281 L 3.542969 4.160156 L 3.75 4.160156 L 3.75 4.453125 L 3.957031 4.453125 L 3.957031 4.160156 L 4.160156 4.160156 L 4.160156 3.863281 L 4.492188 3.863281 L 4.492188 4.558594 L 4.160156 4.558594 L 4.160156 4.980469 L 4.492188 4.980469 L 4.492188 5.910156 L 4.160156 5.910156 L 4.160156 5.550781 L 4.039062 5.550781 L 4.039062 5.277344 L 3.914062 5.277344 L 3.914062 4.980469 L 3.75 4.980469 L 3.75 4.6875 L 3.605469 4.6875 L 3.605469 4.476562 L 3.417969 4.476562 L 3.417969 4.179688 L 3.171875 4.179688 L 3.171875 4.476562 L 2.984375 4.476562 L 2.984375 4.6875 L 2.820312 4.6875 L 2.820312 4.980469 L 2.652344 4.980469 L 2.652344 5.277344 L 2.507812 5.277344 L 2.507812 5.550781 L 2.386719 5.550781 L 2.386719 5.785156 Z M 2.179688 2.257812 L 2.179688 2.828125 L 2.34375 2.828125 L 2.34375 2.257812 Z M 2.097656 3.484375 L 2.097656 3.1875 L 1.890625 3.1875 L 1.890625 2.890625 L 1.683594 2.890625 L 1.683594 3.1875 L 1.476562 3.1875 L 1.476562 3.484375 L 1.3125 3.484375 L 1.3125 3.863281 L 1.476562 3.863281 L 1.476562 4.160156 L 1.683594 4.160156 L 1.683594 4.453125 L 1.890625 4.453125 L 1.890625 4.160156 L 2.097656 4.160156 L 2.097656 3.863281 L 2.425781 3.863281 L 2.425781 4.160156 L 2.632812 4.160156 L 2.632812 4.453125 L 2.839844 4.453125 L 2.839844 4.160156 L 3.046875 4.160156 L 3.046875 3.863281 L 3.210938 3.863281 L 3.210938 3.484375 L 3.046875 3.484375 L 3.046875 3.1875 L 2.839844 3.1875 L 2.839844 2.890625 L 2.632812 2.890625 L 2.632812 3.1875 L 2.425781 3.1875 L 2.425781 3.484375 Z M 2.179688 4.453125 L 2.179688 5.023438 L 2.34375 5.023438 L 2.34375 4.453125 Z M 2.179688 4.453125 "/>
</g>
</g>
<g clip-path="url(#clip7)" clip-rule="nonzero">
<g clip-path="url(#clip8)" clip-rule="nonzero">
<path style=" stroke:none;fill-rule:nonzero;fill:rgb(100%,100%,100%);fill-opacity:1;" d="M 0.9375 19 L 0.9375 18.703125 L 0.753906 18.703125 L 0.753906 18.410156 L 0.527344 18.410156 L 0.527344 18.070312 L 0.359375 18.070312 L 0.359375 17.796875 L 0.03125 17.796875 L 0.03125 18.492188 L 0.359375 18.492188 L 0.359375 18.875 L 0.03125 18.875 L 0.03125 19 Z M 1.476562 17.375 L 1.476562 17.058594 L 1.3125 17.058594 L 1.3125 16.804688 L 1.144531 16.804688 L 1.144531 17.058594 L 0.980469 17.058594 L 0.980469 17.375 L 0.816406 17.375 L 0.816406 17.796875 L 0.980469 17.796875 L 0.980469 18.113281 L 1.144531 18.113281 L 1.144531 18.367188 L 1.3125 18.367188 L 1.3125 18.113281 L 1.476562 18.113281 L 1.476562 17.796875 L 1.640625 17.796875 L 1.640625 17.375 Z M 1.125 17.394531 L 1.332031 17.394531 L 1.332031 17.777344 L 1.125 17.777344 Z M 0.585938 15.136719 L 0.753906 15.136719 L 0.753906 15.515625 L 0.585938 15.515625 Z M 1.703125 15.136719 L 1.867188 15.136719 L 1.867188 15.515625 L 1.703125 15.515625 Z M 0.03125 12.5625 L 0.320312 12.5625 L 0.320312 12.285156 L 0.441406 12.285156 L 0.441406 11.949219 L 0.628906 11.949219 L 0.628906 11.632812 L 0.878906 11.632812 L 0.878906 11.949219 L 1.0625 11.949219 L 1.0625 12.285156 L 1.226562 12.285156 L 1.226562 12.5625 L 0.980469 12.5625 L 0.980469 12.878906 L 1.414062 12.878906 L 1.414062 12.667969 L 1.683594 12.667969 L 1.683594 12.308594 L 1.910156 12.308594 L 1.910156 11.90625 L 1.746094 11.90625 L 1.746094 11.609375 L 1.601562 11.609375 L 1.601562 11.335938 L 1.476562 11.335938 L 1.476562 11.042969 L 1.289062 11.042969 L 1.289062 10.789062 L 1.144531 10.789062 L 1.144531 10.554688 L 0.960938 10.554688 L 0.960938 10.261719 L 0.691406 10.261719 L 0.691406 10.578125 L 0.503906 10.578125 L 0.503906 10.871094 L 0.359375 10.871094 L 0.359375 11.0625 L 0.03125 11.0625 L 0.03125 11.546875 L 0.359375 11.546875 L 0.359375 11.96875 L 0.03125 11.96875 Z M 0.03125 12.5625 "/>
</g>
</g>
<g clip-path="url(#clip9)" clip-rule="nonzero">
<g clip-path="url(#clip10)" clip-rule="nonzero">
<path style=" stroke:none;fill-rule:nonzero;fill:rgb(100%,100%,100%);fill-opacity:1;" d="M 3.582031 19 L 3.582031 18.703125 L 3.769531 18.703125 L 3.769531 18.410156 L 3.996094 18.410156 L 3.996094 18.070312 L 4.160156 18.070312 L 4.160156 17.796875 L 4.492188 17.796875 L 4.492188 18.492188 L 4.160156 18.492188 L 4.160156 18.875 L 4.492188 18.875 L 4.492188 19 Z M 3.046875 17.375 L 3.046875 17.058594 L 3.210938 17.058594 L 3.210938 16.804688 L 3.375 16.804688 L 3.375 17.058594 L 3.542969 17.058594 L 3.542969 17.375 L 3.707031 17.375 L 3.707031 17.796875 L 3.542969 17.796875 L 3.542969 18.113281 L 3.375 18.113281 L 3.375 18.367188 L 3.210938 18.367188 L 3.210938 18.113281 L 3.046875 18.113281 L 3.046875 17.796875 L 2.882812 17.796875 L 2.882812 17.375 Z M 3.398438 17.394531 L 3.191406 17.394531 L 3.191406 17.777344 L 3.398438 17.777344 Z M 3.933594 15.136719 L 3.769531 15.136719 L 3.769531 15.515625 L 3.933594 15.515625 Z M 2.820312 15.136719 L 2.652344 15.136719 L 2.652344 15.515625 L 2.820312 15.515625 Z M 4.492188 12.5625 L 4.203125 12.5625 L 4.203125 12.285156 L 4.078125 12.285156 L 4.078125 11.949219 L 3.894531 11.949219 L 3.894531 11.632812 L 3.644531 11.632812 L 3.644531 11.949219 L 3.460938 11.949219 L 3.460938 12.285156 L 3.292969 12.285156 L 3.292969 12.5625 L 3.542969 12.5625 L 3.542969 12.878906 L 3.109375 12.878906 L 3.109375 12.667969 L 2.839844 12.667969 L 2.839844 12.308594 L 2.613281 12.308594 L 2.613281 11.90625 L 2.777344 11.90625 L 2.777344 11.609375 L 2.921875 11.609375 L 2.921875 11.335938 L 3.046875 11.335938 L 3.046875 11.042969 L 3.230469 11.042969 L 3.230469 10.789062 L 3.375 10.789062 L 3.375 10.554688 L 3.5625 10.554688 L 3.5625 10.261719 L 3.832031 10.261719 L 3.832031 10.578125 L 4.015625 10.578125 L 4.015625 10.871094 L 4.160156 10.871094 L 4.160156 11.0625 L 4.492188 11.0625 L 4.492188 11.546875 L 4.160156 11.546875 L 4.160156 11.96875 L 4.492188 11.96875 Z M 4.492188 12.5625 "/>
</g>
</g>
<g clip-path="url(#clip11)" clip-rule="nonzero">
<g clip-path="url(#clip12)" clip-rule="nonzero">
<path style=" stroke:none;fill-rule:nonzero;fill:rgb(100%,100%,100%);fill-opacity:1;" d="M 2.179688 19 L 2.179688 18.324219 L 2.34375 18.324219 L 2.34375 19 L 3.003906 19 L 3.003906 18.703125 L 2.839844 18.703125 L 2.839844 18.410156 L 2.589844 18.410156 L 2.589844 18.070312 L 2.425781 18.070312 L 2.425781 17.796875 L 2.097656 17.796875 L 2.097656 18.070312 L 1.929688 18.070312 L 1.929688 18.410156 L 1.683594 18.410156 L 1.683594 18.703125 L 1.515625 18.703125 L 1.515625 19 Z M 2.136719 13.214844 L 2.136719 13.449219 L 2.011719 13.449219 L 2.011719 13.722656 L 1.867188 13.722656 L 1.867188 14.019531 L 1.703125 14.019531 L 1.703125 14.3125 L 1.539062 14.3125 L 1.539062 14.523438 L 1.351562 14.523438 L 1.351562 14.820312 L 1.105469 14.820312 L 1.105469 14.523438 L 0.917969 14.523438 L 0.917969 14.3125 L 0.773438 14.3125 L 0.773438 14.019531 L 0.609375 14.019531 L 0.609375 13.722656 L 0.484375 13.722656 L 0.484375 13.449219 L 0.359375 13.449219 L 0.359375 13.089844 L 0.03125 13.089844 L 0.03125 14.019531 L 0.359375 14.019531 L 0.359375 14.441406 L 0.03125 14.441406 L 0.03125 15.136719 L 0.359375 15.136719 L 0.359375 14.839844 L 0.566406 14.839844 L 0.566406 14.546875 L 0.773438 14.546875 L 0.773438 14.839844 L 0.980469 14.839844 L 0.980469 15.136719 L 1.144531 15.136719 L 1.144531 15.515625 L 0.980469 15.515625 L 0.980469 15.8125 L 0.773438 15.8125 L 0.773438 16.109375 L 0.566406 16.109375 L 0.566406 15.8125 L 0.359375 15.8125 L 0.359375 15.515625 L 0.03125 15.515625 L 0.03125 16.382812 L 0.359375 16.382812 L 0.359375 16.785156 L 0.03125 16.785156 L 0.03125 17.375 L 0.359375 17.375 L 0.359375 17.101562 L 0.527344 17.101562 L 0.527344 16.761719 L 0.753906 16.761719 L 0.753906 16.488281 L 0.9375 16.488281 L 0.9375 16.171875 L 1.082031 16.171875 L 1.082031 15.917969 L 1.371094 15.917969 L 1.371094 16.171875 L 1.515625 16.171875 L 1.515625 16.488281 L 1.703125 16.488281 L 1.703125 16.761719 L 1.929688 16.761719 L 1.929688 17.101562 L 2.097656 17.101562 L 2.097656 17.375 L 2.425781 17.375 L 2.425781 17.101562 L 2.589844 17.101562 L 2.589844 16.761719 L 2.820312 16.761719 L 2.820312 16.488281 L 3.003906 16.488281 L 3.003906 16.171875 L 3.148438 16.171875 L 3.148438 15.917969 L 3.4375 15.917969 L 3.4375 16.171875 L 3.582031 16.171875 L 3.582031 16.488281 L 3.769531 16.488281 L 3.769531 16.761719 L 3.996094 16.761719 L 3.996094 17.101562 L 4.160156 17.101562 L 4.160156 17.375 L 4.492188 17.375 L 4.492188 16.785156 L 4.160156 16.785156 L 4.160156 16.382812 L 4.492188 16.382812 L 4.492188 15.515625 L 4.160156 15.515625 L 4.160156 15.8125 L 3.957031 15.8125 L 3.957031 16.109375 L 3.75 16.109375 L 3.75 15.8125 L 3.542969 15.8125 L 3.542969 15.515625 L 3.375 15.515625 L 3.375 15.136719 L 3.542969 15.136719 L 3.542969 14.839844 L 3.75 14.839844 L 3.75 14.546875 L 3.957031 14.546875 L 3.957031 14.839844 L 4.160156 14.839844 L 4.160156 15.136719 L 4.492188 15.136719 L 4.492188 14.441406 L 4.160156 14.441406 L 4.160156 14.019531 L 4.492188 14.019531 L 4.492188 13.089844 L 4.160156 13.089844 L 4.160156 13.449219 L 4.039062 13.449219 L 4.039062 13.722656 L 3.914062 13.722656 L 3.914062 14.019531 L 3.75 14.019531 L 3.75 14.3125 L 3.605469 14.3125 L 3.605469 14.523438 L 3.417969 14.523438 L 3.417969 14.820312 L 3.171875 14.820312 L 3.171875 14.523438 L 2.984375 14.523438 L 2.984375 14.3125 L 2.820312 14.3125 L 2.820312 14.019531 L 2.652344 14.019531 L 2.652344 13.722656 L 2.507812 13.722656 L 2.507812 13.449219 L 2.386719 13.449219 L 2.386719 13.214844 Z M 2.179688 16.742188 L 2.179688 16.171875 L 2.34375 16.171875 L 2.34375 16.742188 Z M 2.097656 15.515625 L 2.097656 15.8125 L 1.890625 15.8125 L 1.890625 16.109375 L 1.683594 16.109375 L 1.683594 15.8125 L 1.476562 15.8125 L 1.476562 15.515625 L 1.3125 15.515625 L 1.3125 15.136719 L 1.476562 15.136719 L 1.476562 14.839844 L 1.683594 14.839844 L 1.683594 14.546875 L 1.890625 14.546875 L 1.890625 14.839844 L 2.097656 14.839844 L 2.097656 15.136719 L 2.425781 15.136719 L 2.425781 14.839844 L 2.632812 14.839844 L 2.632812 14.546875 L 2.839844 14.546875 L 2.839844 14.839844 L 3.046875 14.839844 L 3.046875 15.136719 L 3.210938 15.136719 L 3.210938 15.515625 L 3.046875 15.515625 L 3.046875 15.8125 L 2.839844 15.8125 L 2.839844 16.109375 L 2.632812 16.109375 L 2.632812 15.8125 L 2.425781 15.8125 L 2.425781 15.515625 Z M 2.179688 14.546875 L 2.179688 13.976562 L 2.34375 13.976562 L 2.34375 14.546875 Z M 2.179688 14.546875 "/>
</g>
</g>
<g clip-path="url(#clip13)" clip-rule="nonzero">
<g clip-path="url(#clip14)" clip-rule="nonzero">
<path style=" stroke:none;fill-rule:nonzero;fill:rgb(100%,100%,100%);fill-opacity:1;" d="M 0.03125 8.613281 L 0.359375 8.613281 L 0.359375 8.910156 L 0.503906 8.910156 L 0.503906 9.078125 L 0.671875 9.078125 L 0.671875 9.375 L 0.816406 9.375 L 0.816406 9.625 L 0.671875 9.625 L 0.671875 9.921875 L 0.503906 9.921875 L 0.503906 10.089844 L 0.359375 10.089844 L 0.359375 10.386719 L 0.03125 10.386719 Z M 4.492188 8.613281 L 4.492188 10.386719 L 4.160156 10.386719 L 4.160156 10.089844 L 4.015625 10.089844 L 4.015625 9.921875 L 3.851562 9.921875 L 3.851562 9.625 L 3.707031 9.625 L 3.707031 9.375 L 3.851562 9.375 L 3.851562 9.078125 L 4.015625 9.078125 L 4.015625 8.910156 L 4.160156 8.910156 L 4.160156 8.613281 Z M 1.476562 9.691406 L 1.640625 9.691406 L 1.640625 9.308594 L 1.476562 9.308594 Z M 3.046875 9.691406 L 3.046875 9.308594 L 2.882812 9.308594 L 2.882812 9.691406 Z M 2.179688 8.445312 L 2.34375 8.445312 L 2.34375 8.0625 L 2.179688 8.0625 Z M 2.179688 10.554688 L 2.179688 10.933594 L 2.34375 10.933594 L 2.34375 10.554688 Z M 1.144531 8.972656 L 1.433594 8.972656 L 1.433594 8.738281 L 1.640625 8.738281 L 1.640625 8.527344 L 1.746094 8.527344 L 1.746094 8.316406 L 1.867188 8.316406 L 1.867188 8.023438 L 2.035156 8.023438 L 2.035156 7.726562 L 2.117188 7.726562 L 2.117188 7.453125 L 2.40625 7.453125 L 2.40625 7.726562 L 2.488281 7.726562 L 2.488281 8.023438 L 2.652344 8.023438 L 2.652344 8.316406 L 2.777344 8.316406 L 2.777344 8.527344 L 2.882812 8.527344 L 2.882812 8.738281 L 3.085938 8.738281 L 3.085938 8.972656 L 3.375 8.972656 L 3.375 10.027344 L 3.085938 10.027344 L 3.085938 10.261719 L 2.882812 10.261719 L 2.882812 10.472656 L 2.777344 10.472656 L 2.777344 10.683594 L 2.652344 10.683594 L 2.652344 10.976562 L 2.488281 10.976562 L 2.488281 11.273438 L 2.40625 11.273438 L 2.40625 11.546875 L 2.117188 11.546875 L 2.117188 11.273438 L 2.035156 11.273438 L 2.035156 10.976562 L 1.867188 10.976562 L 1.867188 10.683594 L 1.746094 10.683594 L 1.746094 10.472656 L 1.640625 10.472656 L 1.640625 10.261719 L 1.433594 10.261719 L 1.433594 10.027344 L 1.144531 10.027344 Z M 2.179688 9.164062 L 2.179688 8.84375 L 2.011719 8.84375 L 2.011719 8.632812 L 1.847656 8.632812 L 1.847656 9.164062 L 2.011719 9.164062 L 2.011719 9.351562 L 2.117188 9.351562 L 2.117188 9.648438 L 2.011719 9.648438 L 2.011719 9.835938 L 1.847656 9.835938 L 1.847656 10.367188 L 2.011719 10.367188 L 2.011719 10.15625 L 2.179688 10.15625 L 2.179688 9.835938 L 2.34375 9.835938 L 2.34375 10.15625 L 2.507812 10.15625 L 2.507812 10.367188 L 2.675781 10.367188 L 2.675781 9.835938 L 2.507812 9.835938 L 2.507812 9.648438 L 2.40625 9.648438 L 2.40625 9.351562 L 2.507812 9.351562 L 2.507812 9.164062 L 2.675781 9.164062 L 2.675781 8.632812 L 2.507812 8.632812 L 2.507812 8.84375 L 2.34375 8.84375 L 2.34375 9.164062 Z M 2.179688 9.164062 "/>
</g>
</g>
<path style=" stroke:none;fill-rule:nonzero;fill:rgb(0%,48.627451%,18.82353%);fill-opacity:1;" d="M 4.296875 12.667969 L 25 12.667969 L 25 19 L 4.296875 19 Z M 4.296875 12.667969 "/>
</g>
</svg>
