<svg xmlns="http://www.w3.org/2000/svg" width="25" height="px" viewBox="0 0 25 19"><defs><radialGradient id="a" cx="247.1" cy="238.3" r="36" fx="247.1" fy="238.3" gradientTransform="scale(1.22624 .8155)" gradientUnits="userSpaceOnUse"><stop offset="0" style="stop-color:#ffef5d;stop-opacity:1"/><stop offset="1" style="stop-color:#ea5700;stop-opacity:1"/></radialGradient><radialGradient id="b" cx="322" cy="152.9" r="10.6" fx="322" fy="152.9" gradientTransform="scale(.93615 1.06821)" gradientUnits="userSpaceOnUse"><stop offset="0" style="stop-color:#ffef5d;stop-opacity:1"/><stop offset="1" style="stop-color:#ea5700;stop-opacity:1"/></radialGradient><radialGradient id="c" cx="364.2" cy="237.8" r="36" fx="364.2" fy="237.8" gradientTransform="scale(1.2242 .81686)" gradientUnits="userSpaceOnUse"><stop offset="0" style="stop-color:#952d1a;stop-opacity:1"/><stop offset="1" style="stop-color:#570a00;stop-opacity:1"/></radialGradient><radialGradient id="d" cx="468.1" cy="156.1" r="10.7" fx="468.1" fy="156.1" gradientTransform="scale(.95596 1.04607)" gradientUnits="userSpaceOnUse"><stop offset="0" style="stop-color:#952d1a;stop-opacity:1"/><stop offset="1" style="stop-color:#570a00;stop-opacity:1"/></radialGradient></defs><path d="M0 0h25v19H0z" style="fill:#ce1126;fill-opacity:1;stroke:none"/><path d="M0 1.36h25v16.28H0Zm0 0" style="stroke:none;fill-rule:nonzero;fill:#003f87;fill-opacity:1"/><path d="M19.867 9.5c0-4.121-3.297-7.465-7.367-7.465S5.133 5.38 5.133 9.5s3.297 7.465 7.367 7.465 7.367-3.344 7.367-7.465m0 0" style="stroke:none;fill-rule:nonzero;fill:#fff;fill-opacity:1"/><path d="M476.3 239.013c0-86.349-70-156.316-156.3-156.316s-156.3 69.967-156.3 156.316S233.7 395.33 320 395.33s156.3-69.967 156.3-156.316Zm0 0" style="fill:none;stroke-width:3.9;stroke-linecap:butt;stroke-linejoin:miter;stroke:#552300;stroke-opacity:1;stroke-miterlimit:4" transform="scale(.03906 .03958)"/><path d="M11.797 2.898c.547-.601 1.05.09 1.035.418-.012.325-.566 1.04-1.074.465.523.133.68-.457.941-.465-.261.008-.37-.578-.906-.418ZM6.047 7.61c-.29-.77.547-.91.832-.754s.676.973-.063 1.172c.352-.41-.105-.812.008-1.054-.113.238-.683.082-.777.636m12.387-.761c.757.3.296 1.023-.008 1.125-.309.105-1.172-.16-.82-.84.062.539.664.476.769.715-.102-.243.402-.551.059-1m-9.887 8.09c-.809-.079-.559-.899-.293-1.083.266-.187 1.172-.171 1.016.582-.207-.5-.77-.269-.938-.476.168.207-.234.644.215.976m8.176-.593c.011.82-.825.668-1.04.422-.214-.246-.3-1.149.462-1.082-.47.261-.18.8-.368.988.188-.188.668.16.946-.324ZM6.64 6.054c-.075-.812.773-.722 1.004-.495.234.226.39 1.125-.375 1.113.449-.3.117-.809.289-1.012-.172.2-.676-.11-.918.395m.867 7.64c-.801-.136-.496-.937-.219-1.105.277-.164 1.176-.09.977.652-.176-.515-.754-.316-.903-.539.149.219-.281.633.145.988ZM13.84 2.93c.726-.364.95.46.82.761-.125.297-.898.77-1.164.055.438.313.793-.187 1.043-.098-.25-.09-.144-.671-.7-.718m1.552 12.441c-.364.73-1.036.207-1.114-.11-.078-.316.254-1.156.899-.75-.54.02-.524.634-.774.712.25-.078.52.453.989.148m3.535-7.074c.61.543-.067 1.062-.39 1.058-.321-.007-1.048-.546-.49-1.07-.116.531.47.672.485.934-.011-.266.567-.387.39-.922ZM8.652 3.988c.184-.789.957-.441 1.11-.152.152.289.02 1.187-.703.941.52-.144.363-.734.586-.87-.223.136-.606-.317-.993.081m-2.406 6.828c-.71-.394-.164-1.046.156-1.109.313-.07 1.141.305.703.938.008-.543-.601-.555-.671-.813.07.258-.47.504-.188.988ZM16.543 4.5c.805-.117.758.742.547.98-.215.247-1.094.454-1.13-.316.321.438.813.078 1.024.238-.21-.16.075-.683-.441-.902m-4.578 11.652c-.742.336-.93-.5-.793-.789.14-.297.933-.738 1.172-.004-.43-.332-.801.149-1.047.051.246.098.117.68.668.742m6.66-4.554c.336.746-.492.937-.785.8-.293-.14-.735-.933-.008-1.175-.328.43.156.804.055 1.05.097-.246.675-.117.742-.675Zm-12.7-2.399c-.468-.672.313-1.015.626-.933.312.082.89.78.222 1.156.243-.488-.296-.766-.246-1.027-.05.261-.644.242-.601.8Zm4.388 6.461c-.766.281-.899-.562-.739-.848.156-.285.977-.667 1.168.079-.402-.36-.808.093-1.047-.02.235.113.07.684.617.79M10.09 3.23c.453-.68 1.055-.079 1.094.25.035.32-.403 1.113-.993.624.54.051.602-.554.86-.601-.258.047-.457-.516-.961-.277Zm7.82 9.976c.05.816-.793.703-1.015.465-.227-.235-.356-1.133.406-1.102-.457.285-.14.809-.32 1.008.18-.2.675.129.93-.371m-.208-7.691c.797.156.469.949.184 1.105-.285.16-1.18.05-.953-.68.156.52.742.344.882.57-.14-.226.301-.62-.117-.995ZM7.61 4.938c.008-.817.84-.645 1.047-.395s.274 1.16-.484 1.07c.476-.25.195-.793.39-.976-.195.183-.664-.18-.953.3M6.602 12.31c-.727-.371-.2-1.043.113-1.118.312-.078 1.152.266.742.91-.016-.542-.625-.53-.703-.785.078.254-.453.52-.156.989Zm8.71-8.707c.762-.29.899.554.743.84s-.973.675-1.168-.067c.406.355.808-.105 1.05.012-.242-.117-.078-.688-.624-.785m-1.614 12.46c-.594.563-1.043-.16-1.008-.488.036-.324.637-1 1.102-.39-.508-.168-.703.414-.973.394.266.02.332.61.88.485m5.183-6.254c.555.597-.172 1.05-.492 1.007-.32-.039-.993-.644-.383-1.105-.172.512.402.71.39.976.012-.265.602-.332.485-.878" style="stroke:none;fill-rule:nonzero;fill:#007f00;fill-opacity:1"/><path d="M11.758 3.781c.523.133.652-.449.918-.457-.156.188-.555.66-.918.457m.039-.883c.547-.601 1.05.09 1.035.418-.45-.789-.586-.671-1.039-.418Zm-4.985 5.13c.352-.41-.109-.79 0-1.028.102.219.348.793 0 1.027m-.769-.422c-.29-.765.547-.906.832-.753-.902.054-.86.238-.832.753m11.559-.468c.062.535.652.449.753.691-.23-.078-.82-.281-.753-.695Zm.828-.29c.758.301.297 1.024-.012 1.126.574-.707.41-.793.012-1.125m-9.16 7.59c-.207-.5-.75-.254-.915-.465.243.011.86.047.915.464m-.723.5c-.809-.078-.559-.898-.293-1.082-.36.832-.18.875.293 1.082m7.598-1.253c-.47.261-.165.777-.352.96-.016-.234-.05-.863.352-.96m.578.66c.011.82-.825.668-1.04.422.872.261.887.078 1.04-.422m-9.457-7.68c.449-.297.105-.781.273-.988.04.242.117.863-.273.988m-.63-.61c-.074-.812.774-.722 1.005-.495-.887-.196-.891-.008-1.004.496m1.62 7.187c-.171-.515-.73-.3-.878-.523.238.027.855.105.879.523m-.754.453c-.8-.136-.496-.937-.219-1.105-.414.812-.234.863.219 1.105m5.988-9.949c.442.313.77-.187 1.02-.101-.211.12-.754.421-1.016.101Zm.348-.816c.726-.364.95.46.82.761-.137-.902-.312-.832-.82-.761m1.336 11.582c-.54.02-.5.617-.754.695.098-.223.351-.789.754-.691Zm.215.86c-.364.73-1.036.206-1.114-.11.653.636.75.476 1.114.11m2.656-7.087c-.121.531.465.645.476.91-.191-.152-.671-.543-.476-.91m.879.012c.61.543-.067 1.062-.39 1.058.776-.476.651-.613.39-1.058M9.059 4.773c.52-.14.343-.71.57-.851-.04.238-.156.851-.57.855Zm-.407-.785c.184-.789.957-.441 1.11-.152-.782-.465-.844-.285-1.11.156ZM7.11 10.641c.004-.54-.593-.528-.664-.786.22.11.778.383.664.79Zm-.859.175c-.715-.394-.168-1.046.152-1.109-.656.629-.507.734-.156 1.11Zm9.71-5.652c.321.438.79.066 1 .227-.237.046-.847.164-1-.227m.583-.664c.805-.117.758.742.547.98.144-.898-.04-.89-.547-.98m-4.2 10.86c-.429-.333-.777.152-1.019.054.215-.11.77-.387 1.016-.055Zm-.378.792c-.742.336-.93-.5-.793-.789.105.903.281.848.793.79m5.867-4.934c-.328.43.156.777.059 1.023-.11-.21-.391-.77-.059-1.027Zm.793.375c.336.746-.492.937-.785.8.898-.113.844-.285.785-.8M6.777 9.418c.243-.488-.3-.738-.25-1 .149.191.528.687.25 1m-.851-.227c-.469-.668.312-1.007.625-.93-.864.278-.774.434-.625.934Zm4.816 5.7c-.402-.36-.781.097-1.023-.016.222-.094.797-.336 1.023.012Zm-.43.77c-.765.28-.898-.563-.738-.848.043.91.223.867.739.847m-.118-11.555c.535.051.575-.546.832-.593-.12.21-.445.742-.836.593Zm-.105-.878c.453-.676 1.055-.07 1.094.25-.567-.715-.688-.567-1.094-.25m7.215 9.343c-.457.285-.13.785-.309.985-.027-.242-.09-.864.313-.985Zm.61.637c.05.816-.794.703-1.017.465.875.226.887.039 1.016-.465m-.977-7.266c.157.52.723.329.864.555-.235-.039-.852-.14-.86-.555Zm.77-.425c.797.156.469.949.184 1.105.441-.793.265-.855-.184-1.105m-9.531.101c.476-.254.183-.777.375-.957.011.242.031.867-.375.957m-.563-.68c.008-.816.84-.644 1.047-.394-.86-.281-.883-.094-1.047.398Zm-.156 7.165c-.012-.543-.61-.508-.687-.762.222.098.789.355.687.762m-.855.207c-.723-.371-.196-1.043.117-1.118-.633.649-.48.75-.117 1.118m8.289-7.93c.406.355.78-.113 1.023 0-.223.101-.793.344-1.023 0m.422-.777c.761-.29.898.554.742.843-.047-.91-.227-.867-.742-.843m-1.52 11.582c-.508-.168-.68.406-.945.394.168-.176.601-.625.945-.394m-.094.879c-.594.562-1.043-.16-1.008-.489.391.82.54.711 1.008.489m4.309-6.352c-.172.512.398.684.387.95-.176-.169-.618-.606-.387-.95m.875.098c.555.597-.172 1.05-.492 1.007.82-.39.707-.535.492-1.007" style="stroke:none;fill-rule:nonzero;fill:#005800;fill-opacity:1"/><path d="M349 120.296s.6-1.283 1.7-.592c1 .79 1.3 4.243 1.3 4.243l-1.6.79s.9-1.382-1.3-4.44Zm-8.8 30.69s.8-.986-.3-3.354l1.5-.494s.6 1.776-.2 3.849h-1m27-5.428-3.7 2.369 1.9.79 4.5-2.665-2.7-.494m-49.7 14.605c-1 .79-1 2.172-1.7 3.06-.4.69-2 1.776-2 2.96-.2 1.086-.3 1.875.2 3.553.6 1.48 3 8.487 2 13.618-1 5.33-.6 7.5-.3 8.388.4.79 1.6 2.96 2.3 2.96 1.6-.196.9-.69 1.5-1.677 1.4-2.565 0-22.204-.7-27.631-.5-4.244-2.5-7.994-2.7-8.388l-.8-2.566c-1.5-3.553-3.3-6.513-3.3-13.915 0 0-4.7 1.086-8.8-8.19-2.2-4.737-5.3-4.244-9-5.724l1.6-1.086s3.2 1.58 4.7 1.58c1.6 0 1-3.159 1-3.159l1.7-1.579v6.81c0 3.158 4.3 7.4 6.8 8.684 1.6.79 3.6-2.369 3.1-5.526-.5-3.06 0-7.303 0-7.303l2.2 1.283s-.8 1.283-.6 2.072 1.3-.69 2.1-1.48c-.1.099.3.099 1 .197l-2.3 3.948c-.8 1.283-.8 6.217-.8 8.092 0 1.973.7 6.118.7 7.598 0 .987 1.8 4.935 3.3 7.402l1.6 3.454c1.2 1.875 1.3 3.158 2 4.737.4.69.9 3.059 1.6 7.006l.7 7.007c.2 2.368 2.2.592 4.5-1.086 2.4-1.776 2.4-5.92 2.4-5.92s1.8-1.679 1.5-.79c-.2 1.085 1 2.072 1 2.072-1.4 3.257-.6 2.862.9 2.763s6.5-3.947 6.5-3.947c.7-.198 3.8-.198 3.3 0-.5.197-1.4 1.677-1.4 1.677l3.3-.394c-1.1.888-5.5 3.355-6.5 3.947a76 76 0 0 1-8.6 4.145c-2.3.987-6.7 3.158-6.9 5.427 0 2.27.3 8.29 0 10.264l-1 10.559h-10.4s2-7.599 0-9.671c-2.1-2.073-7-8.388-10-10.46-3.2-2.073 2-.494 2-.494v-2.171l4.8 5.723s8.3-7.302 0-17.27c-2.6-3.157-5.3-7.894-7.3-8.387-2.2-.593-3.3-.987-6.9 0-3.7 1.085-12.6 1.085-16.3-4.836l3.1-.493 2.7-.987s-1.1 3.651 6.3 3.651 8.4 0 7.8-6.81l2.2-1.085 1.6 1.48s-1.1 3.85-.5 5.33c.5 1.578 3 2.763 5.1 4.243.9.592 1.7.888 2.2.79.9-.1 1-.1 2.2-1.283 1.8-2.073 1.4-1.875 3.2-3.454l1-1.58Zm0 0" style="fill-rule:nonzero;fill:#730000;fill-opacity:1;stroke-width:.5;stroke-linecap:butt;stroke-linejoin:miter;stroke:#000;stroke-opacity:1;stroke-miterlimit:4" transform="scale(.03906 .03958)"/><path d="M319 155.033c.5-.395 1.2-1.974 2-3.158 1.1-1.974 2.5-3.158 4-5.526 1.5-2.27 2-5.625 1.5-7.994l1.4.888v3.652l2.7-1.974.8.395s-5.9 6.02-11.3 15.888Zm-51.3-20.33c.8 1.383 1.6 3.948 3.9 6.02l1.6-.394s-3.6-4.243-3.6-6.02l-1.9.395m9.2-2.368s.5 4.934-.8 6.907l1.6-.888s1-3.355.7-5.23Zm51.4-15.691s-.3 6.908 1.1 11.25l1.9-.494s-.3-1.283 1.2-1.875c1.6-.493 5.3-2.072 7.2-3.651l-.6-1.579s-2.8 2.27-4.2 2.862c-1.3.493-2 1.085-3.1.79-1.1-.395-2.4-2.073-1.6-6.02l-1.9-1.283m20.7 32.763s-.4 5.033-.2 7.204l1.7.395s-.4-6.02.7-6.514l-2.2-.986m7.5 3.65s-1.9 3.257-4 3.554l3.4-.691s1-.494 2.4-1.974l-1.8-.888" style="fill-rule:nonzero;fill:#730000;fill-opacity:1;stroke-width:.5;stroke-linecap:butt;stroke-linejoin:miter;stroke:#000;stroke-opacity:1;stroke-miterlimit:4" transform="scale(.03906 .03958)"/><path d="m326.6 138.355 1.3.888 1.3.198 3.2 2.566c1.2.986 1.2-.198 1.2-.198l.8 3.06h1l-.2 3.256 1.8-1.579 2.2 1.875s1.5-1.382 2.3-1.382 1.1-.888 1.1-.888h.1c-5.3-2.368-7.3-4.835-5.9-7.598 2.6-4.342 6.8-1.58 8.1-.987l19 10.263s1.3-.79.4-1.678c-.9-.79-1.4-2.664-1-3.454.2-.79 2.4 2.369 3.4 2.665l3.5.69v-.986s3 2.27 3 3.355c0 0 2.3-1.184 1.5-1.875-.8-.79 3.5 1.678 3.7 2.96l1-.986c-.2 0 .2-3.257 1.3-4.638.5-.79 1.2-1.48 2-1.875 0 0 1-1.678 2-1.678 0 0-1-.592-1.4-1.382-.5-.888-1.6-1.283-1.6-1.283s1.4-.986 1.8-1.48c.5-.493.7-.79.8-.69.1.098-2.2-1.876-3.8-2.172 0 0-.1-2.565-2-2.763h.8s-1.4-2.763-2.8-2.763c0 0 .9-.987 1.6-1.085 0 0-1.6-2.172-3.9-1.382l1.5-.592s-1-1.184-4.4-.592c0 0 .3-1.382-1.2-2.467 0 0-1.2 0-1.2.986 0 0-1.2-.986-2.7-.986-1.4 0 .5 1.579.5 1.579s-2-1.283-3.1-.987c0 0 .5-2.171-.8-3.257 0 0-1.4.69-1.8 1.678l-.4-.987s-2 2.368-2.4 1.678c-.3-.395-.6-1.974-.6-1.974l-1.1 1.678.2-2.369s-1.4.79-2.5 3.257c0 0-1.3 1.283-1.3 2.467 0 0-1.1-1.283-2 0-1 1.381 0 1.085 0 1.085s-.5.494-1.5.691l.2.79s-1.2-.691-2.2-.395l.5 1.184s-2.6.197-2.7-1.974c0 0-2.1-.986-2.4.198l-1.6.987s-.5-.987-1.3-1.185c-1-.296-.2 1.283-.2 1.283s-.3-1.184-1.5-1.776c-1.2-.493-.2.987-.2.987s-1.5-1.184-.8-2.171c0 0-1.4 1.381-.7 2.664l-1 .691s-.5-.493-.4-.987c0-.296-1.7 1.283-1.7 1.283s-1-2.566 0-2.566c.1 0-1.8 0-2.1 2.171 0 0-1.3 0-2.5.395s1 1.283 1 1.283-2-.395-3 .197l.7.888s-.7-.69-2.4-.098.4.79.4.79-1.7-.395-2.6 0c-.9.493.3 1.085.3 1.085s-3.2-1.086-3.7-.592c-.5.296 1 1.776 1 1.776s-2 .493-2.3 1.974l1.8.69s-.8.395-1.2 1.086c-.4.69 1.2.395 1.2.395s-2.2 1.677-2.2 2.862c0 0 1.6.493 2.7-.691 1.1-1.283.4-.888.4-.888l.1.888s2.3-1.086 2.3-1.678c0-.493-.4.79-.4.79l2.2-1.185Zm0 0" style="fill-rule:nonzero;fill:#289400;fill-opacity:1;stroke-width:.5;stroke-linecap:butt;stroke-linejoin:miter;stroke:#030;stroke-opacity:1;stroke-miterlimit:4" transform="scale(.03906 .03958)"/><path d="m324.7 107.96-.5-2.17 5 .592.9-1.974s2.4.987 3.1 1.776c0 0 4.6-1.184 6-.69l-.6 2.072s4.2.296 5.6.79c1.2.591-.6 1.677-.6 1.677s4.8.592 6.8 1.776c2.2 1.283 2.2 2.369 1.1 2.665l2.6 4.243s-4.2.494-5 1.48c-.7 1.086-1.5-.986-1.5-.986l-.8 2.861s-2.6-1.381-3.7-2.368c0 0-1.3 1.579-.5 2.368l-4.8-3.059s-2-.296-2 1.48l-3-3.355-2.6.79s-.8-.987-1.7-1.382c-1.1-.197-.3 1.382-.3 1.382l-1.6-1.974-1.6-1.776s-1.3 1.776-2.4 1.776-1-1.184-.8-2.072c.3-.79-3.1-.987-3.4 0 0 0-1-3.948 2.6-4.935l3.7-1.085Zm-19 13.323-1.6 1.579-1-.494-1.9 2.171-.4-1.184-1 1.777-1.7-.593-.8 1.283-1.5-.296s-1.2 1.185-2 1.48c-.8.198 0-1.776 0-1.776s-1.2 1.974-2 1.974-.6-.987-.6-.987-.5 1.382-1.4 1.58c-.9 0-.5-.988-.5-.988l-1.6 1.184v-.986l-.7-.296s.4-1.777 1.1-2.172c.7-.394-.7-1.578-.7-1.578l.7-.79s-2-.493-2-.099c0 0 1-2.565 2.4-3.059l.1-3.06s1.4-1.085 2.6-1.183c1.4-.198-.4-2.27-.4-2.27l3.2-1.776.4-2.369 4.7.494 1-2.073 3.8.987 3.3-1.677 2.3 2.763 3.5.296v3.059s4.1 1.283 4.6 1.678c0 0-.8 2.565-.8 3.059 0 0 3-.888 3.8-.592l.4 3.355s5 1.579 5.3 2.467c0 0-1 .69-1.7 1.678 0 0 .6 2.96.6 3.947l-.4.493s-1.4-1.282-2.6-1.48l-1 2.073-1.7-1.086h-1.1s-.9-.987-1.6-.987v-.987l-1.4.889s-2.2-1.086-2.2-1.777l.1-1.579-2.2 1.58s-.5-1.086-.4-1.678c.1-.494-.9 1.184-.9 1.184s-1.2-2.073-1-2.467l-.4 1.677s-2.3-.79-2.6-2.368Zm0 0" style="fill-rule:nonzero;fill:#289400;fill-opacity:1;stroke-width:.5;stroke-linecap:butt;stroke-linejoin:miter;stroke:#030;stroke-opacity:1;stroke-miterlimit:4" transform="scale(.03906 .03958)"/><path d="M274.5 130.855s4.1 2.073 4.1 3.06c0 0 1.1-2.073.5-3.06l1.6 1.184s.5-1.973-.1-2.565c-.5-.494 3.5-2.073 4.4.493 0 0 2.4-2.467-2.3-4.638 0 0-.4-1.678 2.5-1.184 0 0-.2-1.086-.9-1.382h2.7s-1.6-1.381-4-1.776-1-.69-1-1.184c-.2-.494 0-2.171 0-2.171s-1.4-.494-2.5 0l.4-.395s-2.5-.69-3.5-.099c0 0-1.5-.592-1.3-2.17 0 0-1.5-.1-2.1 1.48 0 0-1.4 1.578-3.3 1.578-.3 0-1.7-.79-1.7-.79l-1.2 2.665H265l.5.987s-2.8-.79-3.7 0c0 0 1.1 1.678.8 2.763 0 0-2.2.494-2.7.888-.5.395.8.691.8.691s-2.6.79-3.2 1.58l1 .69-1.2 1.579 1 .197-2.5.79c-.9.296 1.5.493 1.5.493l-1.1 1.086 1.8.296s-1.4 3.947-1.5 5.723c0 0 2.2-2.664 2.8-2.96l-1.8 2.96s3.4-.986 3.7-1.578l.5-.987.1 1.579s1.3-1.678 1.5-2.369c.2-.69 2 .691 2 .691v-.987l2.4.69c.7-.098.9-.196.8-.295l1.6-.197-.3 1.381s1.2-.79 1.5-1.579c.2-.79.8 0 .8 0l.8-3.158Zm-13.4 13.816 1.6 3.355c-1.3 0-3.1 1.48-3.1 1.48.3 5.428-1 5.132-1 5.132.3.987-.3 2.763-.3 2.763l7.7-4.638.1-.493 9.2-4.244.3.494 2.6-1.48 1.9 4.835-1.9.987c.1 1.776 2.1 4.638 2.1 4.638l2.4-.592 2.7-.987v.987c0-.296 2.9-1.283 2.9-1.283l1.3 1.283c1-.099 2.7-2.467 2.7-2.467l2 .79s.7-1.185.7-2.073c0-.79 2.6-.79 2.6-.79l1.7 1.185 2.3-1.777s.7 1.283 1.6 1.48 3.4 2.073 3.4 1.678 1-2.566 1-2.566l4.1 1.678c-.5-1.875-2-4.046-2-4.046s2-1.579 1.7-1.974c-.3-.394-1.6 0-1.6 0l1.2-2.467h-1.6l.5-.592-2.5-.987 1.3-2.763c-.6-.69-7.3-1.974-7.3-1.974l1.6-1.579s-.8-1.184-1.6-1.184-4.9.099-5-.296l-1.8-1.776-2.6 1.875-1.3-.395-2.2.79s0 1.283-.3.394-2.3-2.763-2.3-2.763c-.4.691-3 3.75-3 3.75s-.5 1.777-1.3.494c-1-1.185-3-2.369-3.4-1.48-.2 1.085-2.1 2.072-2.5 1.874-.4-.394-2.5-.098-2.7.494-.1.69-2.5 2.368-2.5 2.368-1.4-.69-3.8-.296-3.8-.296s-.7 1.086-.8 1.974Zm44.2 39.671v-2.072l2.3 1.579 1.4-1.58 1.8 1.777 1-1.776v2.862l2.7-2.369 1.5.592v-2.17s1.9-3.06 1.1-3.652l1.6-.494s-2.7-2.664-3.4-3.157c-.8-.593-1.9-.593-1.9-.593s-2-1.973-3.4-2.664c-1.3-.493-2 .592-2 .592s-.8-1.48-2.2-1.776c-1.3-.296-1.3.987-1.3.987s-1-.987-2.2-1.382c-1.3-.69-.4 1.184-.4 1.184l-4.5-1.381.6 1.381-4.2-1.085.5 1.48-3-.493-.2 1.282-4.2.79.8 1.382-2.6-1.086v1.875l-3 .987 1.1 1.085-4.7 2.369c-.7.493 1.6 1.579 1.6 1.579l-4.2-.592 1.6 1.381-3.7 3.454 2.6 1.875-1.6 2.27 4 .79 1.5 2.664 3.2-.592v2.96l4.7-3.75s3.4 3.06 3.7 2.171c.2-.79.2-3.454.2-3.454h1.7v-2.565l1.2.986 2.2-3.059 2.8 3.849 2.2-4.934Zm19.1-11.842-.4-4.54-1.4 1.48.6-4.243-2.2-.394.8-4.145-1.6-.79.4-1.973 1.6-1.086 2.8-2.763 6.6.099.7-2.171 4.7.79c.8.789 3.3-1.777 3.3-1.777h1l1 1.974s3.4-.395 5 .592l-1.9 2.664 3.5.296 2.3.494 2.4-.79 3.2-.197.7 1.283h3l-1 1.085 3.8 1.776-.8.79s2.2.888 3.7.888h.8s.8 1.776-.3 2.566c0 0 1.1 2.566 3.4 3.06 2.4.493 2.4.493 2.7.986.3.592 0 3.257-2.7 3.257v2.664s-2 1.776-2.3 2.664l-1.6-1.085s-1.3 1.579-1.3 2.566c0 0-3.5-4.54-4.7-4.737-1.4-.197-1 2.664-1 2.664l-3.8-3.158-.5 2.073-3.1-2.566-1.9 1.283-3.3-3.454-3.2.395 1.2-1.58h-3.9l-.7-3.453-.6 2.862-2.4-1.678-3 3.355s-.4-.394-.9-2.072c-.5-1.48-1.8 2.072-1.8 2.072l-1.1-2.565-1.3 2.467s-1-1.875-2.1-2.467c-1-.494-2 3.059-2.4 4.539Zm.6 10.263.2-1.579 5.6-2.17 4.7-1.678 2.3-1.185 1.1 1.974 1.4-2.763 2.1 2.862 1.2-1.48 1.8 1.381h1.6l.3 1.974s3.9.296 4.2-.494.8 2.665.8 2.665l3.7.493.8 4.244s1.8 3.848 1.2 5.427c-.5 1.678-2-2.072-2-2.072s-.3 2.96-.6 3.75-5-.79-5-.79l-2 3.85s-2.2-3.06-3.2-3.06-1 3.06-1 3.06l-4.5-5.231c-1.3-1.58-1.6 1.579-1.6 1.579s-2-3.454-2-4.441-1.9-2.171-1.9-2.171-3.2 3.651-5.6 4.737c0 0 .3-2.369-.5-3.06-.7-.888-3 1.48-3 1.48s-1.7-3.552 0-7.4Zm0 0" style="fill-rule:nonzero;fill:#289400;fill-opacity:1;stroke-width:.5;stroke-linecap:butt;stroke-linejoin:miter;stroke:#030;stroke-opacity:1;stroke-miterlimit:4" transform="scale(.03906 .03958)"/><path d="m350.8 124.54.5 1.973s1.8-.395 3-.296l-.7 2.171s2.3-.395 3.4.296l-.5 1.184 2.7 1.185-2.5 2.072s4 1.48 4.9 2.664c0 0-2.7 1.777-3 1.678-.5-.197-.2.79.5 1.776l-2.2-.098s.9 1.973.8 2.763c-.2.79-3.8.592-3.8.592m14.1-5.329s.7-3.849-.4-4.835c0 0 2.5 2.17 4.2 2.27 1.7.098 0-3.159 0-3.159s2.3 1.185 3.5 1.48c1.2.198-.9-2.466-.9-2.466s.7-1.283 2.7-.1m-45.4-15.493s0-.986-.3-1.381c-2.4-3.158 2.4 2.368 3.4 2.566m4.5 0s1.6 1.283 2.3 1.283c.8 0-.5-3.158-.9-3.553-.3-.395 2.9 1.283 4 1.381 1.2.297 1.4-1.973 1.4-1.973s3.6.69 4.4 1.184m-25-.69-.5-2.961m-24.2 12.631c-.2-.296 1-1.973.5-2.862 0 0 .7.593 1.4.691.7.099.4-2.17.4-2.17l.7.295s2-.987 1.7-1.776c-.3-.79 1.4 1.184 1.4 1.184s1.1-1.184 1.1-1.678c0-.493 1.4 1.185 1.4 1.185s1.5-.296 1.5-1.185c0-.986 1.8.297 1.8.297s.8-.987.7-1.875m-19.7 9.868s.9-2.072-.1-3.454m-23.6 9.868c0-1.085.5-3.65 0-4.046-.5-.394 1 .395 2.2.691m9.3-.395c-1.2-1.085-1.9-1.677-3.7-1.677m-16.2 8.29c.3-.692.8-2.37.5-3.257m25 51.612 1.3-2.566 1.6 3.75 1-2.369.4.691 2.4-2.467 2.5 3.849m40.7-16.58 1.7-3.256 2.3 1.184 1-3.256 2.4 1.48 1.3-3.06 2.7.692.2-2.171s1.8.986 2.3 1.875c.6.79 0-2.665 0-2.665l2.2.987s1.5-1.579-.6-2.368" style="fill:none;stroke-width:.5;stroke-linecap:butt;stroke-linejoin:miter;stroke:#004b00;stroke-opacity:1;stroke-miterlimit:4" transform="scale(.03906 .03958)"/><path d="m343.6 163.125 2.3 3.355 2-2.17 1.7 3.75 2.3-1.382 3.2 1.875 1.5-1.185 3.5 2.566 1.4-3.059 3.2.987 2-3.454m-84.4-9.178s1.4-2.368 1-3.454c-.7-.987 2.8 1.777 2.8 1.777s.7-2.27.3-3.356c-.6-.986 3.9 3.158 3.9 3.158s.7-3.651 0-4.342c-.8-.79 4.3.987 4.3.987s2-.592 1.2-1.579c-.8-1.085 3.4 1.48 3.4 1.48s1-2.565 0-3.552c-1-1.086 3.2 1.283 3.2 1.283l-1.6-2.862 3.4.197-.3-3.158m30.3 45.099 2.2-.987 2 1.974 2.2-3.454 2.6 2.467.4-2.467 2.8 1.184.6-1.579 3.1 1.678.3-2.467 1.6.592.3-1.58" style="fill:none;stroke-width:.5;stroke-linecap:butt;stroke-linejoin:miter;stroke:#004b00;stroke-opacity:1;stroke-miterlimit:4" transform="scale(.03906 .03958)"/><path d="M11.059 11.8a3 3 0 0 1-.235-.515l1.656-1.473 1.653 1.47a2.7 2.7 0 0 1-.242.527l-.012.02-.125-.048s-.055.051-.098.055c-.054.008-.105-.05-.105-.05s-.07.062-.145.05c-.074-.008-.101-.055-.101-.055s-.078.063-.133.051c-.047-.012-.082-.047-.082-.047s-.047.059-.11.047a.4.4 0 0 1-.117-.047s-.097.04-.156.05c-.062.013-.117-.054-.117-.054s-.078.055-.11.055c-.03 0-.144-.055-.144-.055s-.117.04-.16.04-.156-.051-.156-.051-.114.03-.16.03c-.055 0-.133-.03-.133-.03s-.09.043-.141.03a.4.4 0 0 1-.094-.03c-.008-.008-.101.043-.164.03-.062-.01-.133-.054-.133-.054s-.011.031-.133.055" style="stroke:none;fill-rule:nonzero;fill:#9dd7ff;fill-opacity:1"/><path d="M319.5 205.066v42.927l-42.3 37.402a85.8 85.8 0 0 1-4.4-27.138v-53.29h46.7" style="fill-rule:nonzero;fill:#fff;fill-opacity:1;stroke-width:.7;stroke-linecap:butt;stroke-linejoin:miter;stroke:#000;stroke-opacity:1;stroke-miterlimit:4" transform="scale(.03906 .03958)"/><path d="M319.5 205.066v42.927l42.2 37.402c2.9-8.684 4.4-17.862 4.3-27.138v-53.29h-46.5" style="fill-rule:nonzero;fill:#ffd83c;fill-opacity:1;stroke-width:.7;stroke-linecap:butt;stroke-linejoin:miter;stroke:#000;stroke-opacity:1;stroke-miterlimit:4" transform="scale(.03906 .03958)"/><path d="M292.2 289.243c3.2 1.678 2 1.185 8.7 3.454 6.7 2.073 13.7 3.06 20.7 2.764 8 0 12.4-.691 15-1.382 2.6-.69 3.1-1.776 3.1-1.776l-6.5 6.71s-26.3 1.382-31-1.677c-2-.987-6-4.244-10-7.994Zm0 0" style="fill-rule:nonzero;fill:#730000;fill-opacity:1;stroke-width:.5;stroke-linecap:butt;stroke-linejoin:miter;stroke:#000;stroke-opacity:1;stroke-miterlimit:4" transform="scale(.03906 .03958)"/><path d="M330.8 276.81s8.4 4.835 0 14.012m-37.8-.986 12-11.645-1.3 15.395m6.3 1.381v-25.756m20.8 25.756v-27.335m-10.5 27.829v-29.507" style="fill:none;stroke-width:.5;stroke-linecap:butt;stroke-linejoin:miter;stroke:#000;stroke-opacity:1;stroke-miterlimit:4" transform="scale(.03906 .03958)"/><path d="m310 270.592-5.4 1.678 5.4.592v-2.27m10.3-3.947-5.8 2.072 5.8.197v-2.368m10.5 1.579-5.8 2.171 5.8.296v-2.566Zm3.4 12.336c-.3-1.086 3.4-.987 3.4-.987s1 3.947 0 6.315l-3.1-.592s.3-2.565-.3-4.736Zm0 0" style="fill-rule:nonzero;fill:#ff0018;fill-opacity:1;stroke-width:.5;stroke-linecap:butt;stroke-linejoin:miter;stroke:#000;stroke-opacity:1;stroke-miterlimit:4" transform="scale(.03906 .03958)"/><path d="m294.8 288.06 10.3-9.968-.5 6.02s-5.3 3.454-5.3 5.92l-4.5-1.973m5.5 2.171s1-3.158 4-4.737l-.3 6.316Zm14.7-17.368s4.2-.592 7.4 0c0 0-.5 4.243 0 5.033 0 0-5.8-1.382-8.1.79 0 0-.8-3.948.7-5.823Zm-8.9 1.085s4.2-.592 7.4 0c0 0-.8 4.737-.3 5.428 0 0-4.7-2.566-7-.395 0 0-1.6-3.256 0-4.934Zm0 0" style="fill-rule:nonzero;fill:#fff;fill-opacity:1;stroke-width:.5;stroke-linecap:butt;stroke-linejoin:miter;stroke:#000;stroke-opacity:1;stroke-miterlimit:4" transform="scale(.03906 .03958)"/><path d="M305.9 279.375s4.2-.395 7.3 0c0 0-.5 4.342 0 5.033 0 0-5.5-1.184-7.8.79 0 0-1.1-3.85.5-5.823Zm8.4-.69s6-.79 9.1-.297c0 0-1.2 3.454.3 5.724 0 0-6.5-1.678-9 .296 0 0-2-3.947-.4-5.724Zm-9 6.512 8.2.592s-.8 6.02-.3 6.711c0 0-6.6-1.48-7.8.592 0 0-2.2-5.428 0-7.895Zm9.2 0s7-.493 10.3 0c0 0-1.9 4.54.2 8.389 0 0-9.2-2.566-10.5-.494 0 0-2.1-5.428 0-7.895Zm10.8-12.335s4.2-.592 7.3 0c0 0-.5 4.243 0 5.033 0 0-5.8-1.382-8 .79 0 0-.9-3.948.7-5.823Zm0 5.822s4.2-.493 7.3 0c0 0-.5 4.244 0 5.033 0 0-5.8-1.283-8 .69 0 0-.9-3.946.7-5.723Zm.5 6.02s4.2-.592 7.4 0c0 0-1 6.612-.6 7.401 0 0-4.8-2.27-7-.296 0 0-1.4-5.23.2-7.006Zm0 0" style="fill-rule:nonzero;fill:#fff;fill-opacity:1;stroke-width:.5;stroke-linecap:butt;stroke-linejoin:miter;stroke:#000;stroke-opacity:1;stroke-miterlimit:4" transform="scale(.03906 .03958)"/><path d="M334.5 285.197s1.3 5.033 3 5.625l-2.2 2.764s-2.9-1.974-3.2-4.343c0 0 1.9-2.17 2.4-4.046Zm0 0" style="fill-rule:nonzero;fill:#fff;fill-opacity:1;stroke-width:.5;stroke-linecap:butt;stroke-linejoin:miter;stroke:#000;stroke-opacity:1;stroke-miterlimit:4" transform="scale(.03906 .03958)"/><path d="M13.883 11.824c-.32.531-.82.93-1.406 1.121a2.64 2.64 0 0 1-1.418-1.14h.004c.117-.028.132-.059.132-.059s.07.043.133.055c.063.011.164-.031.164-.031s.04.02.094.03c.055.012.14-.03.14-.03s.079.03.13.03c.05 0 .16-.03.16-.03s.117.05.156.05c.043 0 .164-.039.164-.039s.113.055.144.055c.028 0 .11-.055.11-.055s.055.067.117.055c.059-.008.156-.05.156-.05s.055.034.117.046.11-.047.11-.047a.2.2 0 0 0 .082.047c.055.012.129-.05.129-.05s.031.046.105.054c.07.012.145-.05.145-.05s.05.058.105.05c.043-.004.098-.055.098-.055l.129.04" style="stroke:none;fill-rule:nonzero;fill:#006ac8;fill-opacity:1"/><path d="M353.7 301.184c-1.4.099-1.6-.79-1.6-.79s-2 1.58-3.8 1.284c-2-.296-2.9-1.48-2.9-1.48s-2 1.578-3.4 1.282c-.8-.098-1.6-.493-2.3-1.085 0 0-1.3 1.381-3 1.085s-3-1.085-3-1.085-2.7.987-4.4 1.283c-1.6.296-3-1.48-3-1.48s-3.8 1.184-4.6 1.184c-.9 0-3.6-1.185-3.6-1.185s-1.9 1.086-3 1.086-4.2-1.283-4.2-1.283-3 .79-4.3.79c-1.4 0-3.5-.79-3.5-.79s-2.5.987-3.9.79l-2.4-.79s-2.7.987-4.4.79c-1.6-.395-3.6-1.382-3.6-1.382s-.3.69-3.5 1.381h-.1" style="fill:none;stroke-width:.5;stroke-linecap:butt;stroke-linejoin:miter;stroke:#000;stroke-opacity:1;stroke-miterlimit:4" transform="scale(.03906 .03958)"/><path d="M293.1 305.23s-.3.691-2.8 1.184l-.7.198.6-.198-.7.297c3.2 4.342 7.2 8.092 11.7 10.953 4.5 3.06 9.6 6.612 18.4 9.277a72 72 0 0 0 17.8-9.08c6-4.44 9.2-7.203 12.6-11.644-2.7 1.48-2.3 1.48-3.7 1.283-1.3-.296-2.3-1.283-2.3-1.283s-1.3 1.48-3 1.283c-1.6-.296-3-1.283-3-1.283s-2.2 1.48-4.4 1.382c-1.6-.099-3-1.58-3-1.58s-3.8 1.284-4.6 1.284c-.9 0-3.6-1.283-3.6-1.283s-1.9 1.184-3 1.184-4.2-1.382-4.2-1.382-3 .79-4.3.79-3.4-.79-3.4-.79-2.5.987-4 .79c-1.3-.296-2.4-.79-2.4-.79s-2.7.987-4.4.79c-1.6-.296-3.6-1.382-3.6-1.382Zm0 0" style="fill-rule:nonzero;fill:#5ac800;fill-opacity:1;stroke-width:.6;stroke-linecap:butt;stroke-linejoin:miter;stroke:#000;stroke-opacity:1;stroke-miterlimit:4" transform="scale(.03906 .03958)"/><path d="M319.6 326.94c6-2.269 11.7-5.13 17.1-8.683-1 0-4-.987-2.9-1.185 0 0-1.2.987-2.3.987s-4.2-1.283-4.2-1.283-3 .691-4.3.691c-1.4 0-3.4-.69-3.4-.69s-2.6.986-4 .69l-2.4-.69s-2.8.986-4.4.69-3.6-1.283-3.6-1.283-2.4 1.283-4 1.382a55.9 55.9 0 0 0 18.4 9.375Zm0 0" style="fill-rule:nonzero;fill:#ffd800;fill-opacity:1;stroke-width:.6;stroke-linecap:butt;stroke-linejoin:miter;stroke:#000;stroke-opacity:1;stroke-miterlimit:4" transform="scale(.03906 .03958)"/><path d="M313.2 248.98c1.9-1.579 3-2.96 2.3-4.144-.7-.987-1.8.592-3 .197 0 0-2-1.086-2.5-2.072-1-1.185-2.5-2.27-3.3-3.356-.9-.987-4.2-5.329-9.1-10.263-1.5-.987-1.1-4.44-2.2-5.526 0-.79-10-10.658-13.4-14.013-1.5-1.086-2.2-1.777-4.7.493-2 1.678-2.7 3.651-.1 5.822l12.8 11.645c1.9 1.875 4.5 2.171 5.6 3.06l13 13.42c1.7 1.382 2.5 2.369 1.5 3.553-1 1.974.1 2.27.3 2.27.2.098 1.1.098 1.7-.395Zm0 0" style="fill-rule:nonzero;fill:#b34b00;fill-opacity:1;stroke-width:.5;stroke-linecap:butt;stroke-linejoin:miter;stroke:#000;stroke-opacity:1;stroke-miterlimit:4" transform="scale(.03906 .03958)"/><path d="m280.7 214.046 13.4 13.125" style="fill:none;stroke-width:.5;stroke-linecap:butt;stroke-linejoin:miter;stroke:#000;stroke-opacity:1;stroke-miterlimit:4" transform="scale(.03906 .03958)"/><path d="m298.8 219.967 1.1-2.467c.2-.395 3.8-6.217 5.6-6.316l11.3 8.191c0 .493-5 7.796-5.3 7.204 0 0-13.2-5.526-12.7-6.612Zm0 0" style="fill-rule:nonzero;fill:#fff;fill-opacity:1;stroke-width:.6;stroke-linecap:butt;stroke-linejoin:miter;stroke:#000;stroke-opacity:1;stroke-miterlimit:4" transform="scale(.03906 .03958)"/><path d="M11.953 8.79c-.062-.052-.16-.099-.242-.153l-.035.078c.027.031.39.203.453.238 0 0-.07-.078-.18-.164Zm0 0" style="stroke:none;fill-rule:nonzero;fill:#ccb8c8;fill-opacity:1"/><path d="m299.8 217.993 5 3.06c2.7 2.072 4.4 4.046 6.4 5.23" style="fill:none;stroke-width:.4;stroke-linecap:butt;stroke-linejoin:miter;stroke:#000;stroke-opacity:1;stroke-miterlimit:4" transform="scale(.03906 .03958)"/><path d="m277.1 253.026 25.5-31.677c.5-.494 2.9-.494 3.2 1.973l-24.2 32.96s-2.7-.295-4.5-3.354Zm0 0" style="fill-rule:nonzero;fill:#782121;fill-opacity:1;stroke-width:.5;stroke-linecap:butt;stroke-linejoin:miter;stroke:#000;stroke-opacity:1;stroke-miterlimit:4" transform="scale(.03906 .03958)"/><path d="M362.7 253.322c-1 .691-2.4.79-2.4.79-1.7-1.875-3-4.046-5.4-6.513l-25.5-31.283 2.7-2.665 23 26.941c.6.69 4.6 4.934 8.4 9.77 0 0 .3 2.072-.8 2.96Zm0 0" style="fill-rule:nonzero;fill:#730000;fill-opacity:1;stroke-width:.5;stroke-linecap:butt;stroke-linejoin:miter;stroke:#000;stroke-opacity:1;stroke-miterlimit:4" transform="scale(.03906 .03958)"/><path d="m338.1 220.263-4-4.934s-3.2.493-3.8 2.072c0 0-2.2 3.652-8.2 4.145 0 0 1.7 6.908 8.6 10.658 0 0 2.5-7.204 5-8.388 0 0 2.5-1.875 2.4-3.652Zm0 0" style="fill-rule:nonzero;fill:#fff;fill-opacity:1;stroke-width:.5;stroke-linecap:butt;stroke-linejoin:miter;stroke:#000;stroke-opacity:1;stroke-miterlimit:4" transform="scale(.03906 .03958)"/><path d="M327.9 241.974c-.6-.198-1.3 0-2 .394-.9.494-1.8.296-1.7-.69 0-.79 0-.691 1-1.382a5.92 5.92 0 0 1 5-.493l-2.3 2.072m27.8-27.632c-.2-.79-.4-1.48.3-2.27.7-.789.7-2.17-1-1.48-1.8.691-2.1 2.468-.9 5.428Zm0 0" style="fill-rule:nonzero;fill:#730000;fill-opacity:1;stroke-width:.5;stroke-linecap:butt;stroke-linejoin:miter;stroke:#000;stroke-opacity:1;stroke-miterlimit:4" transform="scale(.03906 .03958)"/><path d="m327.3 242.467 28.9-28.618 7.1 7.598s-1.5-.69-2-.296c-.5.494.5 1.974.5 1.974s-1.3-.493-1.9-.099c-.7.395 0 1.974 0 1.974s-1.2-.79-1.8-.493c-.5.394 0 2.27 0 2.27s-1.5-.494-2-.1c-.3.395 0 1.974 0 1.974s-1.5-.69-2.3 0c-.8.79.4 1.974.4 1.974s-2-.79-2.7.395c-.7 1.184.1 2.17.1 2.17s-1.6-.69-2-.394c-.4.395 0 2.27 0 2.27s-1.3-.79-2.2.197c-.9 1.086.1 2.073.1 2.073s-1.3-.79-2-.395.2 2.17.2 2.17-1.2-.887-2.1 0c-.9.889 0 1.975 0 1.975s-1-.987-2.2 0c-1 .986 0 2.072 0 2.072s-1.5-.79-2.1 0c-.6.888.2 1.974.2 1.974s-1.2-.691-2-.296c-.7.394 0 2.072 0 2.072s-1.1-1.283-1.6-.592c-.5.69 0 2.368 0 2.368s-1-1.283-1.6-.592c-.7.592.4 1.974.4 1.974s-2-.79-1.5-.79Zm0 0" style="fill-rule:nonzero;fill:#fff;fill-opacity:1;stroke-width:.5;stroke-linecap:butt;stroke-linejoin:miter;stroke:#000;stroke-opacity:1;stroke-miterlimit:4" transform="scale(.03906 .03958)"/><path d="m13.848 8.559-.086.086.02.304s.019-.086.042-.027c0 0 .008-.07.028-.059-.016-.008 0-.308 0-.308m-.168.168-.063.062.024.305s.015-.117.043-.024v-.343M13 9.406l-.059.067.016.187s.02-.12.043-.031l-.008-.102Zm0 0" style="stroke:none;fill-rule:nonzero;fill:#7e4b7e;fill-opacity:1"/><path d="M330.9 218.29c1 .986 4 5.032 4 5.032m-2.6-2.96c-.2.592-.6 2.368-1.5 3.256m2-2.861c-.2.394-.2 1.776-1.5 3.059m2-2.369c-.2.592-.5 1.185-.8 1.678m1-.987c-.1.296-.2.592-.4.79m-3.2-2.764c-1.5 1.086-3.1 2.073-4.8 2.862m4-1.875c-.9.888-2 1.678-3.1 2.27m2.8-.987c-.5.395-1.5 1.382-2.3 1.678m1.8-.494c-.5.494-1 .79-1.5 1.086" style="fill:none;stroke-width:.9;stroke-linecap:butt;stroke-linejoin:miter;stroke:#7e4b7e;stroke-opacity:1;stroke-miterlimit:4" transform="scale(.03906 .03958)"/><path d="M311.3 224.704c.3-.592.9-1.776 1.6-2.763 1-1.48 1.3-1.678 1.8-2.073" style="fill:none;stroke-width:.9;stroke-linecap:square;stroke-linejoin:miter;stroke:#7e4b7e;stroke-opacity:1;stroke-miterlimit:4" transform="scale(.03906 .03958)"/><path d="M217 303.355c1.5.79 0-4.737.5-6.71.6-2.27 4.8 5.131 6.8 6.118 2.2 1.086 15.3-5.131 15.3-5.131l3.1-5.823 1.7 4.836s3.6-4.244 4.6-5.823c1.1-1.579 0 3.06-1 4.639-1.1 1.578 3.1 2.17 2.6 5.328-.5 3.06 4.2-2.17 4.2-2.17l12.1.986s2-7.302 5.3-11.546l1 4.836 5-5.132c7.1 18.651 22.3 33.06 41.3 39.276 18-6.02 32.6-19.342 40.2-36.611l6.7 7.006s5.3-1.677 6.3-2.27c5.4 1.283 10.6 3.158 15.5 5.625 1 .691.3-3.453.3-3.453s5.8 1.085 5.3 4.144c0 0 1.2-2.862 2.3-3.355s3.6 2.664 4.2 3.651c.5.987 13 2.665 14.7 3.652 0 0 1.3 1.579 1.3 2.664 0 0 2.7-.296 4.7-.296 0 0-1.5.79-1.5 2.368 0 1.678-.8 2.862-2.4 3.652-1.5.79 0 1.381 2 1.579 2.2.296 0 2.96-4.1 4.54 0 0-1 2.269.8 3.058 0 0-3.7.296-4.2-.79 0 0-1.3 2.468-1.3 3.75 0 0-4-1.282-5-1.874 0 0-1.6 1.579-.5 2.368 0 0-7.1-.79-8.5-3.454 0 0-2.5.79-2 1.678 0 0-5-3.355-6.6-3.355l-1 1.677s-3.5-1.973-4.5-1.973-.2 1.48-.2 1.48l-4.8-2.862-1.9 2.96-5-2.664c-1-.79-1.2 1.58-2 1.875 0 0-1.6-2.17-3.7-1.875 0 0-.8 2.566-.5 3.355l-7.1-1.48c-1.1-.296-.5 1.184 0 2.27 0 0-4.5-1.283-5.5-1.974l-.3 1.974s-3.7-.296-4.5-.987l-2.3 3.06h-3.5l-.7 2.96s-6.6-1.875-7.2-.79c-.5.987.3 2.566.3 2.566l-5.7-.69-.5 2.27s-6.7-1.975-8.2-.988c0 0-2 1.974-3.4 2.665-1.3.493 0-.888 0-.888l-2-2.862s-2.4 1.283-3.8.79c-1.4-.494-5.5 1.973-6.8 1.282 0 0 0-1.875-1.1-2.368-1-.395-2.8-.395-3.6.79l-2.2-2.961c-1.2-2.27-3.1.098-3.1.098l-.3-2.565-3.6-.297c-2.2-.296-2.6-2.17-2.6-2.17s-5.6.592-6.4.295l1.4-1.282s-7.6 1.579-9.2.986c-1.7-.493 1.8-2.565 1.8-2.565l-8.4-2.073c-1.3-.394-9 1.283-10 1.283s-1.6-1.875-1.6-1.875-1.8 1.678-3.4 2.171c0 0-1.3-3.158-.5-3.454 0 0-5 1.283-5.3 2.665 0 0-1.2-2.073-1-3.06 0 0-2.4 3.85-3.5 4.639-1 .79-.2-1.875-.2-1.875s-2.9 3.651-4 3.947v-2.566s-8.4 4.441-10.7 3.849c0 0 0-1.875.8-2.368l-5.3-.198c-1.3-.395-2.7-.69-4.2-1.085-1.3-.198 1.9-1.58 4-.987 0 0-5.8-2.171-7.6-1.086 0 0-.8-2.17 2.3-2.96 0 0-4-3.849-6.3-3.553 0 0 2.6-1.678 4.8-.888 0 0-2.5-6.513-4-7.401 0 0 5.5-.987 7.1-.198Zm0 0" style="fill-rule:nonzero;fill:#289400;fill-opacity:1;stroke-width:.5;stroke-linecap:butt;stroke-linejoin:miter;stroke:#060;stroke-opacity:1;stroke-miterlimit:4" transform="scale(.03906 .03958)"/><path d="m208.9 188.783 71.1-36.81c.3-1.973-.7-3.355-1.9-4.934-20.3 9.968-38.8 22.204-61.4 29.507-1.3.493-12.5 5.132-18.3 12.04a8.53 8.53 0 0 0-2 4.539s.2 3.06.9 3.947c0 0 .1.79 1.2 1.48 0 0 .7.395 1.1.297.4-.198 1.4 0 2.6-2.073 2-2.862 4.2-5.526 6.7-7.993Zm0 0" style="fill-rule:nonzero;fill:#730000;fill-opacity:1;stroke-width:.5;stroke-linecap:butt;stroke-linejoin:miter;stroke:#000;stroke-opacity:1;stroke-miterlimit:4" transform="scale(.03906 .03958)"/><path d="m266.1 152.368 9.2-4.342s3.1 2.27 2.8 4.935c0 0 .7 6.02 8.2 10.263 0 0-6.3 7.993-17.4 8.585 0 0 1.2-10.362-1.1-13.52 0 0-.4.395-.2-.098.3-.987-.2-4.54-1.7-5.33Zm0 0" style="fill-rule:nonzero;fill:#fff;fill-opacity:1;stroke-width:.5;stroke-linecap:butt;stroke-linejoin:miter;stroke:#000;stroke-opacity:1;stroke-miterlimit:4" transform="scale(.03906 .03958)"/><path d="M276.9 153.553c-2 .888-8.3 4.144-8.3 4.144m5.2-2.072c0 .987-.6 3.257 0 4.934m-.8-4.638c0 .493-.8 2.171 0 4.54m-1-4.047c-.2.987-.4 1.48 0 2.566m-.8-1.973q-.15.74 0 1.184m5.8-1.48c.3.69 2.9 4.835 4.5 6.513m-4.1-4.737c.3.79 1.7 3.651 2.8 4.737m-3-3.06c.4.987 1.1 2.764 2 3.75m-2-1.776c.2.888.6 1.678 1.1 2.467" style="fill:none;stroke-width:.8;stroke-linecap:butt;stroke-linejoin:miter;stroke:#7e4b7e;stroke-opacity:1;stroke-miterlimit:4" transform="scale(.03906 .03958)"/><path d="m342.3 148.322 26.1 12.73c5.2 2.566 7.1.297 10 1.58l51.6 26.15c4.5 1.975 7 2.567 6.3 4.836-.1 3.652 1.7 3.652 2.2 3.75.4 0 2.1-.197 2.8-1.184l.6-.592c.6-.592.5-.69.7-.987 2.1-2.96 3.3-5.822 1-7.5-2.5-1.283-2.8 1.48-5.6 1.184 0 0-4.8-1.776-6.6-3.059-3.2-1.875-7.8-3.947-8.8-5.033-3.3-.592-28-14.605-42.1-21.611-1.5-1.185-2.3-5.922-5.3-7.402-.8-1.283-19.8-9.967-29.8-15-3.6-1.283-5.7-2.17-8.3 2.27-2.3 4.44-1.8 6.81 5.2 9.868Zm0 0" style="fill-rule:nonzero;fill:#b34b00;fill-opacity:1;stroke-width:.5;stroke-linecap:butt;stroke-linejoin:miter;stroke:#000;stroke-opacity:1;stroke-miterlimit:4" transform="scale(.03906 .03958)"/><path d="m344.5 142.796 29.2 14.605" style="fill:none;stroke-width:.5;stroke-linecap:butt;stroke-linejoin:miter;stroke:#000;stroke-opacity:1;stroke-miterlimit:4" transform="scale(.03906 .03958)"/><path d="M309.688 165.09c-.209.617-.73.206-.73.412-.312 2.158-.208 3.29-.729 4.523-.833 1.13-1.875 2.056-3.125 2.57-1.979.72-4.479 3.083-8.541.925l-.521-.514s1.041 4.112-3.021 6.168l-15.73 8.223s-1.458 2.776-.52 6.476c0 .617.312 1.131-.313 1.542-.937.72-2.708 2.776-3.645 5.962 0 0-3.021-1.233-3.021-3.186 0-1.85 1.25-2.981 1.458-4.42.313-1.234 1.042-4.626.73-5.654-.417-1.131-2.292-1.542-3.022-2.056-.52-.309-1.354.514-1.25 1.439.105 1.028.834.822 1.563 1.028 0 0-.833 1.953-.73 3.392l-9.27 4.729 1.667 2.364c.312.72 1.25 10.177 3.958 14.7s3.75 3.187 4.27 3.803l2.084 1.954c.73.514 3.958.822 4.48-.926.624-1.747 1.77-3.083 3.124-4.111 2.084-1.645 6.042-5.449 6.042-7.196 0 0 2.292 6.784 1.979 12.335 0 0 8.542 1.748 16.146 1.953 7.604 0 11.458-1.541 11.458-1.541s1.042-6.374.625-7.71c0 0 1.146 4.214 2.188 5.654 1.041 1.747 2.083 5.242 4.27 5.448 2.188.103 4.063-2.056 4.271-2.981v-6.785h8.646s3.854 1.44 5 1.337c1.25-.206 1.98-1.337.834-1.748l-.417-.308c1.25 0 2.604.72 2.604.72h4.27l-.103-.515c-.313-1.233-2.604-2.158-4.167-2.98-1.562-.515-3.542-1.234-4.687-1.337-2.084-.206-4.167 0-6.25.411-.73 0-3.855.411-5.73 1.336-.52.309-1.041.412-.833-1.028.313-1.336.208-7.812-1.25-10.485-1.25-2.056-1.042-3.598-.937-5.242.104-2.879.104-5.86 0-8.738-.313-1.748-2.5-4.01-6.563-4.42-3.854-.514-7.083-3.701-7.396-6.168-.208-2.673.417-7.196.834-9.355" style="fill-rule:nonzero;fill:url(#a);stroke-width:.5;stroke-linecap:butt;stroke-linejoin:miter;stroke:#000;stroke-opacity:1;stroke-miterlimit:4" transform="matrix(.0375 0 0 .038 -1.563 0)"/><path d="M292.396 153.577c-.73 3.29-.73 6.168-.625 9.355.104 2.056 1.146 4.523 1.979 6.681.625 1.542 1.563 2.879 2.813 3.907 3.645 2.261 7.083-.206 8.958-1.028 1.146-.514 2.083-1.44 2.708-2.467.521-1.234.313-2.159.73-4.523l.729-.412c1.041-1.439.729-1.953 1.25-2.98.416-1.029-.521-2.16-1.875-2.057.729-1.953.937-3.906.416-5.859-.208-.617.521-2.159-.625-1.747-4.583 1.747-10 1.336-14.791 1.336-.313 0-.73-.822-1.355-.72l-.312.514" style="fill-rule:nonzero;fill:url(#b);stroke-width:.5;stroke-linecap:butt;stroke-linejoin:miter;stroke:#000;stroke-opacity:1;stroke-miterlimit:4" transform="matrix(.0375 0 0 .038 -1.563 0)"/><path d="M291.98 155.325c-.522-.309-.522-1.44 0-3.187.728-2.056 0-2.056 1.145-3.29 1.042-1.13.833-1.541 1.563-1.85.729-.308 2.812-.205 3.541-.514 2.813-1.336 6.042-1.439 8.959-.308 1.562.822 2.5 2.775 3.437 3.598.938.72 1.667 3.598 1.458 7.915-.312 4.318-1.145 3.495-1.145 3.495s-1.25-1.953-2.188-.308c0 0 0-1.645.104-2.981.104-1.131-.52-3.393.104-4.934 0 0-5.729 1.85-8.645 1.747-3.021-.206-7.396-.925-7.605-1.645l-.729 2.262" style="fill-rule:nonzero;fill:#000001;fill-opacity:1;stroke-width:.5;stroke-linecap:butt;stroke-linejoin:miter;stroke:#000;stroke-opacity:1;stroke-miterlimit:4" transform="matrix(.0375 0 0 .038 -1.563 0)"/><path d="M295 151.83c-.312-.617-1.77-2.981-.625-3.598 1.042-.617.417 2.775 1.98 3.495 0 0-.522 1.44-1.355.103Zm0 0" style="fill-rule:nonzero;fill:#fff;fill-opacity:1;stroke-width:.5;stroke-linecap:butt;stroke-linejoin:miter;stroke:#fff;stroke-opacity:1;stroke-miterlimit:4" transform="matrix(.0375 0 0 .038 -1.563 0)"/><path d="m298.333 160.053-.937 3.29m10.625 1.542c.208.617.417.308.937.411m.313-4.009c.52-.514 1.25-.206.833 1.336m-17.708-4.934 2.812 1.028c1.459.617.625 2.878.209 4.318-.209.616-1.042 1.953-.625 2.467.52.822 1.146.308 1.979.41 0-.308.625-.513.833-.513.73 0 1.146.514 1.667.308.625-.205.52-1.233.312-1.747m-.104-4.42c0-.412 1.042-.823 1.563-.926 2.083-.41 3.541-.72 5.312.514m-5.625 11.102c-1.875.411-3.646.72-5.208-.205m0-.823c.729-.41 1.042-.822 2.083-.308l1.146-.411c.73 0 1.458.308 2.188.822m-5.521.308c.937-.308 3.333-.308 5.416.103" style="fill:none;stroke-width:.5;stroke-linecap:butt;stroke-linejoin:miter;stroke:#000;stroke-opacity:1;stroke-miterlimit:4" transform="matrix(.0375 0 0 .038 -1.563 0)"/><path d="M292.292 160.053c.729 0 1.562-.822 3.229.309 1.042.822-1.771 1.542-1.354 1.439-1.354.206-1.771-.514-1.875-1.234-.104-.205-.104-.308 0-.514Zm8.437.823c.625-1.337 1.771-.925 2.813-.823.937.309.625.103 1.666.72-1.25.103-.937.206-1.666.617-.938.514-1.771.617-2.292.308-.417-.205-.625-.514-.73-1.028 0 .206 0 .309.21.309Zm0 0" style="fill-rule:nonzero;fill:#fff;fill-opacity:1;stroke-width:.3;stroke-linecap:butt;stroke-linejoin:miter;stroke:#000;stroke-opacity:1;stroke-miterlimit:4" transform="matrix(.0375 0 0 .038 -1.563 0)"/><path d="M293.75 161.39c.417-.103.73-.309.73-.823 0-.616-.21-.925-.73-.925s-.833.309-.833.925c0 .514.312.72.833.823Zm8.646.205c.417 0 .625-.308.729-1.028-.104-.41-.417-.72-.833-.72-.417 0-.625.206-.73.72.105.72.417 1.028.834 1.028Zm0 0" style="fill-rule:nonzero;fill:#000001;fill-opacity:1;stroke-width:.3;stroke-linecap:butt;stroke-linejoin:miter;stroke:#000;stroke-opacity:1;stroke-miterlimit:4" transform="matrix(.0375 0 0 .038 -1.563 0)"/><path d="M345.938 213.713c-.521-.617-1.146-1.13-1.98-1.44l-1.979-.924c-.729-.309-1.562-.617-2.396-.925m.521 2.57-.937-.515c-.313 0-.625 0-.938-.205l-.208-.206c-.938-.103-1.771-.617-2.396-1.233m-62.812-9.355c.937.72 3.229 2.262 3.437 5.14.104 1.028.52 2.056.938 2.981m-13.23-7.607c.521 1.748.625 7.402 6.042 13.364m-5-21.382c-.417 1.13-1.042 2.262.208 2.981m14.375 10.794c1.146-2.673 4.584-2.467 4.584-4.832" style="fill:none;stroke-width:.5;stroke-linecap:butt;stroke-linejoin:miter;stroke:#000;stroke-opacity:1;stroke-miterlimit:4" transform="matrix(.0375 0 0 .038 -1.563 0)"/><path d="M284.792 207.34c-.313-2.981-1.042-4.523-.417-8.738.208-1.234.417-5.86 0-8.12 0 0 1.667 7.812-3.646 9.354m34.375 12.438c0-4.01 1.042-6.168 1.042-6.168 1.146-5.654-1.25-7.71-.313-9.149.834-1.13 1.98-3.803.417-8.84 0 0 2.813 10.485-4.48 10.485-7.5 0-7.187-2.673-7.187-2.673" style="fill:none;stroke-width:.5;stroke-linecap:butt;stroke-linejoin:miter;stroke:#000;stroke-opacity:1;stroke-miterlimit:4" transform="matrix(.0375 0 0 .038 -1.563 0)"/><path d="M284.375 190.481c0 2.056 0 8.43 9.063 8.43 2.812 0 5.729-2.057 7.395-3.29m2.188-2.673q-.47-3.084-.313-7.093m-13.645-3.392c2.395-.308 4.479-.514 9.062-.514m.208-6.373c.417 2.261-.312 5.859 3.959 6.373m4.27-7.196c-.52 1.645-.52 3.393-.729 4.42m.209 2.776c1.666 0 5-1.13 8.958-.308m1.354 22.718c.938 1.644 1.042 3.803 3.646 6.27m-31.667-11.41c.209 1.233-1.875 5.654-.312 9.251 1.354 3.701.937 7.813-1.25 11m6.77-19.018c-.937 1.748-2.291 3.393-2.603 4.729m6.562-1.542c0 .925-2.708 8.635-4.687 10.896 0 0 3.541 1.337 3.02 6.58m7.396-20.971c0 1.13-.208 1.542.938 2.364m2.396 0c1.354 1.542 5.52 6.476 4.687 9.15m-7.5-6.477c.313 1.028.313 6.27-.52 9.046m-2.084-.206c-1.146 0-2.813.823-3.021 2.673m8.646-2.981c1.146-.308 3.333 1.542 3.333 6.99m15.73-10.177c-2.084.617-3.021 1.645-2.396 1.028-1.146 1.028-2.188 1.645-2.188 1.645" style="fill:none;stroke-width:.5;stroke-linecap:butt;stroke-linejoin:miter;stroke:#000;stroke-opacity:1;stroke-miterlimit:4" transform="matrix(.0375 0 0 .038 -1.563 0)"/><path d="M289.792 197.985c.625 0 1.041-.308 1.146-1.028-.105-.308-.521-.617-1.146-.617s-.938.309-1.042.72c.104.617.417.822 1.042.925Zm23.02.309c.626 0 1.042-.309 1.042-1.028q0-.618-.937-.617c-.625-.103-.938.103-1.146.72-.104.822.52.925 1.042.925Zm0 0" style="fill-rule:nonzero;fill:#000001;fill-opacity:1;stroke-width:.3;stroke-linecap:butt;stroke-linejoin:miter;stroke:#000;stroke-opacity:1;stroke-miterlimit:4" transform="matrix(.0375 0 0 .038 -1.563 0)"/><path d="M280.52 239.823c1.25-8.018 5-14.494 5.105-15.214 0 0 3.854.926 10.625 1.542 6.667.514 8.333.309 11.458.103l6.771-.72s1.25 2.365 1.354 4.73c.313 5.242 2.292 27.754 2.5 33.716 0 0 .73 3.598.73 12.336 0 9.56 2.604 28.988 2.604 39.37l-2.604.515s-14.48 1.13-14.48-.823c0-2.056-.833-26.932 1.459-42.043 0 0-.521-3.084-1.459-5.551-.833-2.467-4.27-9.971-4.27-11.719 0 0-5.73 16.036-6.042 18.812-.313 2.672-1.146 38.445-1.667 41.324 0 0-8.229 6.27-9.27 6.99-1.146.411-9.063-3.392-9.376-4.42.73-11.102 2.188-22.204 4.688-33.204 1.354-7.092.52-8.326.52-10.382 0-1.953.105-27.447 1.355-35.362Zm0 0" style="fill-rule:nonzero;fill:#fff;fill-opacity:1;stroke-width:.5;stroke-linecap:butt;stroke-linejoin:miter;stroke:#000;stroke-opacity:1;stroke-miterlimit:4" transform="matrix(.0375 0 0 .038 -1.563 0)"/><path d="M294.27 274.98c-.52 2.261-1.666 4.214-3.54 5.756m-2.71-53.66c-.312 1.337-2.29 7.299-7.187 10.897m14.271-9.766c-1.146 3.598-5.52 22.718-6.354 45.436m-.208 7.093-1.771 20.765m-.73 2.98c-1.77 6.066-2.708 12.44-2.708 18.71m32.188-35.979c-.208 1.953-1.042 15.728 3.542 27.96m-18.438-85.937c-.312 2.262-.833 16.653-.833 17.784 0 1.13 1.562 2.775 2.396 2.981 0 0-1.563.617-1.98 5.962m-3.958-12.747c-.312 1.645-2.083 8.533-3.02 11.308m13.02-25.493s5 .925 5.208 0c0 0 1.667 29.502 3.855 45.95m-11.25-42.147-.521 16.447m2.5 2.16s1.875 2.775 1.354 4.008m-17.813-28.063 3.021.822m5.209 1.542c-.313.925-.625 4.626-.625 4.626m8.854 38.96c.52.72 1.354 1.953.729 4.317" style="fill:none;stroke-width:.5;stroke-linecap:butt;stroke-linejoin:miter;stroke:#000;stroke-opacity:1;stroke-miterlimit:4" transform="matrix(.0375 0 0 .038 -1.563 0)"/><path d="M285 224.404s0-3.187 1.146-4.832c0 0 3.437.72 8.333 1.234 5 .617 9.167.822 12.604.514 3.75-.411 7.396-1.336 7.396-1.336s1.042 4.831.521 5.55c0 0-3.958.72-8.333.926-4.792.205-9.688-.103-14.48-.72-2.395-.308-4.895-.72-7.291-1.336Zm0 0" style="fill-rule:nonzero;fill:#9b5f00;fill-opacity:1;stroke-width:.5;stroke-linecap:butt;stroke-linejoin:miter;stroke:#000;stroke-opacity:1;stroke-miterlimit:4" transform="matrix(.0375 0 0 .038 -1.563 0)"/><path d="m288.02 224.815.73-4.831h.938l-.209 5.14-1.354-.206m21.98-4.112.103 5.448 1.25-.103-.104-5.653-1.25.308m-15.625 0-.416 5.345h.729l.729-5.345h-1.042" style="fill-rule:nonzero;fill:#fff;fill-opacity:1;stroke-width:.5;stroke-linecap:butt;stroke-linejoin:miter;stroke:#000;stroke-opacity:1;stroke-miterlimit:4" transform="matrix(.0375 0 0 .038 -1.563 0)"/><path d="M276.77 320.826c-.416 1.337-.728 3.187-.937 5.449 0 .514-.625 3.29.938 3.392 1.042 0 1.458-2.878 1.458-2.878s-1.041 3.29.313 3.7c1.77.412 1.979-3.598 1.979-3.598-.208 1.131-1.458 4.01.312 4.318 1.875.308 2.396-3.906 2.396-3.906s-1.666 4.214.313 4.317c1.666 0 1.666-4.009 1.666-4.009s-.937 5.037 1.459 4.523c1.458-.206 1.77-2.056 2.083-3.084.313-1.439 1.25-3.392.104-6.579-.729-2.261-.416-2.98-.416-2.98s-2.917 2.158-5.105 3.597c-1.041.617-6.562-2.262-6.562-2.262Zm29.688-4.42c-.416-.308-.312 1.85-.52 2.879s.208 3.186 3.541 2.98c3.438-.205 6.771-.925 8.959-.513 2.083.616 5.312.72 6.979.72s2.916-.104 3.646-.515c.729-.308 2.187.411 3.02.411s1.667-.925 1.667-1.747c0-1.336-1.354-1.336-3.02-1.44-1.772-.102-3.438-.41-5-1.027-1.147-.206-3.126-1.44-5.73-1.953l-5.937.205c-.938 0-6.98.309-7.605 0Zm0 0" style="fill-rule:nonzero;fill:#ffa54b;fill-opacity:1;stroke-width:.5;stroke-linecap:butt;stroke-linejoin:miter;stroke:#000;stroke-opacity:1;stroke-miterlimit:4" transform="matrix(.0375 0 0 .038 -1.563 0)"/><path d="M255.73 189.762c-.522.308-1.147-1.954.416-2.879 0 0 .312-1.953 1.979-2.056 0 0 1.354-1.953 3.23-1.747 0 0 2.29-1.44 3.02-1.234.938.103 3.02 2.056 3.02 2.879.21.72 0 1.85-.52 2.364s-.937-.103-1.042-1.028c0 0 .417 1.645-.833 2.261s-1.146.206-1.25-.616c0 0-.312 1.644-1.146 1.85-.833.308-1.354-.411-1.979-.411 0 0 1.042.822.417 1.439-.834.411-1.459.411-2.084-.103-.416-.514-1.145-1.85-3.229-.617Zm0 0" style="fill-rule:nonzero;fill:#ffb366;fill-opacity:1;stroke-width:.5;stroke-linecap:butt;stroke-linejoin:miter;stroke:#000;stroke-opacity:1;stroke-miterlimit:4" transform="matrix(.0375 0 0 .038 -1.563 0)"/><path d="M265.73 185.958c-.522-1.44-2.188-2.981-4.063-2.775m2.187 4.42c-.104-.411-.416-.823-.729-1.234-.937-1.439-2.812-1.336-4.375-1.747m2.396 4.523c-.625-.411-.833-1.234-1.458-1.542-.938-.514-1.98-.72-3.334-.72" style="fill:none;stroke-width:.5;stroke-linecap:butt;stroke-linejoin:miter;stroke:#000;stroke-opacity:1;stroke-miterlimit:4" transform="matrix(.0375 0 0 .038 -1.563 0)"/><path d="M439.063 165.09c.729-.308.52.617.625 1.028.416 1.234.416 2.673.937 3.907.52 1.13.73 1.439 1.77 1.953 1.563 1.028 6.355 3.598 9.793 1.542l.729-.514s-1.354 4.112 3.02 6.168l15.521 8.223s1.563 2.673.625 6.476c-.312.617-.208 1.131.209 1.542 1.041.72 2.604 2.776 3.854 5.962 0 0 2.917-1.233 2.917-3.186 0-1.85-1.25-2.981-1.563-4.42-.208-1.234-1.042-4.626-.625-5.654.417-1.131 2.083-1.542 2.813-2.056.729-.309 1.562.514 1.354 1.439 0 1.028-.834.822-1.667 1.028 0 0 1.042 1.953.833 3.392l9.375 4.729-1.562 2.364c-.521.72-1.563 10.177-4.271 14.597-2.604 4.42-3.646 3.29-4.167 4.01l-2.083 1.747c-.625.514-3.75.925-4.48-.823-.624-1.644-1.666-3.083-3.124-4.111-1.98-1.645-6.042-5.449-6.042-7.196 0 0-2.291 6.784-1.979 12.335 0 0-8.333 1.748-16.146 1.953-7.604 0-11.562-1.541-11.562-1.541s-.938-6.374-.521-7.71c0 0-1.25 4.214-2.083 5.654-1.042 1.747-2.188 5.242-4.375 5.448-2.188.103-3.959-2.056-4.167-2.981v-6.785h-8.75s-3.75 1.44-5 1.337c-1.146-.206-1.875-1.337-.833-1.748l.312-.308c-.833.102-1.667.308-2.5.72h-4.27l.103-.515c.313-1.233 2.605-2.158 4.271-2.98 1.667-.515 3.334-1.234 4.688-1.337 1.875-.206 3.125-.103 6.146.411.833 0 4.062.411 5.833 1.336.52.309.937.412.729-1.028-.208-1.336-1.146-5.448.313-8.326 1.041-1.85.937-3.495.833-5.14-.208-1.747-1.146-5.654-1.146-7.298 0-5.757 4.48-8.019 8.23-9.252 4.27-1.336 7.083-2.776 6.978-5.243-.208-2.775.521-6.99.105-9.046" style="fill-rule:nonzero;fill:url(#c);stroke-width:.5;stroke-linecap:butt;stroke-linejoin:miter;stroke:#000;stroke-opacity:1;stroke-miterlimit:4" transform="matrix(.0375 0 0 .038 -1.563 0)"/><path d="M456.25 153.577c.73 1.748 1.042 3.495 1.25 5.346 0 1.13-.52 1.336-.104 2.775.729 2.365-.833 5.037-2.5 8.018-.833 1.234-1.354 2.981-2.708 3.804-3.438 2.056-7.5-.411-9.584-1.337a3.7 3.7 0 0 1-1.979-2.158 30 30 0 0 1-.833-4.01c0-.308 0-1.233-.625-.925-1.25-1.439-.938-1.953-1.563-2.98-.52-1.029 1.042-2.16 1.98-2.057a10.2 10.2 0 0 1-.209-5.859c.208-.617-.625-2.159.52-1.747 4.48 1.747 10 1.336 14.793 1.336.416 0 .729-.822 1.354-.72l.208.514" style="fill-rule:nonzero;fill:url(#d);stroke-width:.5;stroke-linecap:butt;stroke-linejoin:miter;stroke:#000;stroke-opacity:1;stroke-miterlimit:4" transform="matrix(.0375 0 0 .038 -1.563 0)"/><path d="M456.77 155.325c.418-.411.105-2.364-.416-4.318-.104-1.028-.937-1.542-1.979-2.57-.937-1.13-1.562-1.027-2.292-1.439-.625-.205-1.979-.205-2.812-.514-.521-.308-2.188-.102-3.646.103-1.98.309-3.23.206-4.687 1.028-1.563.823-2.813 1.748-3.334 3.29-.416 1.028-1.041 2.467-.833 6.784s1.042 3.495 1.042 3.495 1.041-1.645 1.875-.617l-.313-3.597c-.104-1.131.104-2.673.52-4.523 0 0 4.584 1.644 8.96 1.644 3.02 0 7.083-.308 7.187-1.028l.625 2.262Zm0 0" style="fill-rule:nonzero;fill:#000001;fill-opacity:1;stroke-width:.5;stroke-linecap:butt;stroke-linejoin:miter;stroke:#000;stroke-opacity:1;stroke-miterlimit:4" transform="matrix(.0375 0 0 .038 -1.563 0)"/><path d="M450.417 160.053c.729 1.85.104 1.337.416 2.468m-10.208 1.953c0 .822-.625.616-1.042.616" style="fill:none;stroke-width:.5;stroke-linecap:butt;stroke-linejoin:miter;stroke:#000;stroke-opacity:1;stroke-miterlimit:4" transform="matrix(.0375 0 0 .038 -1.563 0)"/><path d="M456.875 158.82c-.937-.72-2.708-.206-3.437.103-1.563.72-.73 2.261-.209 3.7.209.72.938 1.645.521 2.365-.417.822-.73.41-1.667.514 0-.309-.833 0-1.041 0-.625 0-1.042.41-1.563.205s-.52-1.233-.312-1.747m.104-4.42c0-.412-1.25-.823-2.708-.926-2.292 0-2.5.103-4.167 1.337m11.458 8.943c-.312-.72-.937-.822-2.083-.411 0-.206-1.563-.411-1.563-.411-.625 0-1.354.308-2.083.72m5.625.616c-1.042-.617-3.333-.206-5.625-.206m.208.823c1.667.514 3.438.822 5.209 0" style="fill:none;stroke-width:.5;stroke-linecap:butt;stroke-linejoin:miter;stroke:#000;stroke-opacity:1;stroke-miterlimit:4" transform="matrix(.0375 0 0 .038 -1.563 0)"/><path d="M456.354 160.053c-.625 0-.937-.822-3.02.309-1.146.72 1.77 1.542 1.354 1.439 1.25.206 1.562-.514 1.666-1.234.209-.205.209-.308 0-.514Zm-8.229.823c0-.823-1.875-.925-2.917-.823-1.041.309-.52.103-1.458.72.938.103.625.206 1.563.617.937.514.937.925 2.291.308.313-.103.625-.514.834-1.028q0 .309-.313.309Zm0 0" style="fill-rule:nonzero;fill:#fff;fill-opacity:1;stroke-width:.3;stroke-linecap:butt;stroke-linejoin:miter;stroke:#000;stroke-opacity:1;stroke-miterlimit:4" transform="matrix(.0375 0 0 .038 -1.563 0)"/><path d="M455.104 161.39a1.12 1.12 0 0 1-.833-.823c0-.616.312-.925.833-.925.417 0 .625.309.73.925 0 .514-.313.72-.73.823Zm-8.75.205c-.312 0-.625-.308-.625-1.028 0-.514.313-.72.73-.72.624 0 .833.206.729.72 0 .72-.209 1.028-.834 1.028Zm0 0" style="fill-rule:nonzero;fill:#000001;fill-opacity:1;stroke-width:.3;stroke-linecap:butt;stroke-linejoin:miter;stroke:#000;stroke-opacity:1;stroke-miterlimit:4" transform="matrix(.0375 0 0 .038 -1.563 0)"/><path d="M345.883 213.713c-.416-.617-1.146-1.13-1.875-1.44l-1.979-.924a59 59 0 0 1-2.396-.925m.417 2.57-.833-.515c-.313 0-.73 0-1.042-.205 0 0 0-.103-.208-.206-.938-.103-1.771-.617-2.396-1.233m-62.813-9.355c1.042.72 3.23 2.262 3.438 5.14.208 1.028.52 2.056 1.041 2.981m-13.229-7.607c.521 1.748.625 7.402 6.042 13.364m-5-21.382c-.417 1.13-1.042 2.262.104 2.981m14.48 10.794c1.041-2.673 4.583-2.467 4.583-4.832" style="fill:none;stroke-width:.5;stroke-linecap:butt;stroke-linejoin:miter;stroke:#000;stroke-opacity:1;stroke-miterlimit:4" transform="matrix(-.0375 0 0 .038 26.517 0)"/><path d="M284.842 207.34c-.313-2.981-1.042-4.523-.417-8.738.208-1.234.417-5.86 0-8.12 0 0 1.562 7.812-3.75 9.354m34.375 12.438c0-4.01 1.042-6.168 1.042-6.168 1.25-5.654-1.146-7.71-.313-9.149.938-1.13 1.98-3.803.521-8.84 0 0 2.812 10.485-4.48 10.485-7.5 0-7.187-2.673-7.187-2.673" style="fill:none;stroke-width:.5;stroke-linecap:butt;stroke-linejoin:miter;stroke:#000;stroke-opacity:1;stroke-miterlimit:4" transform="matrix(-.0375 0 0 .038 26.517 0)"/><path d="M284.425 190.481c0 2.056 0 8.43 8.958 8.43 2.813 0 5.834-2.057 7.396-3.29m2.188-2.673q-.313-3.084-.313-7.093m-13.542-3.392c2.396-.308 4.375-.514 8.959-.514m.208-6.373c.521 2.261-.312 5.859 4.063 6.373m4.27-7.196c-.625 1.645-.625 3.393-.833 4.42m.208 2.776c1.667 0 5-1.13 9.063-.308m1.354 22.718c.938 1.644 1.042 3.803 3.646 6.27m-31.77-11.41c.207 1.233-1.772 5.654-.313 9.251 1.458 3.701 1.041 7.813-1.146 11m6.666-19.018c-.937 1.748-2.291 3.393-2.604 4.729m6.667-1.542c0 .925-2.708 8.635-4.792 10.896 0 0 3.646 1.337 3.021 6.58m7.396-20.971c0 1.13-.208 1.542 1.042 2.364m2.395 0c1.25 1.542 5.521 6.476 4.584 9.15m-7.396-6.477c.312 1.028.312 6.27-.625 9.046m-2.083-.206c-1.042 0-2.813.823-3.021 2.673m8.75-2.981c1.041-.308 3.229 1.542 3.229 6.99m15.73-10.177c-2.084.617-3.022 1.645-2.397 1.028-1.041 1.028-2.187 1.645-2.187 1.645" style="fill:none;stroke-width:.5;stroke-linecap:butt;stroke-linejoin:miter;stroke:#000;stroke-opacity:1;stroke-miterlimit:4" transform="matrix(-.0375 0 0 .038 26.517 0)"/><path d="M289.842 197.985c.625 0 1.041-.308 1.041-1.028 0-.308-.416-.617-1.041-.617s-.938.309-1.042.72c.104.617.417.822 1.042.925Zm22.916.309c.73 0 1.042-.309 1.146-1.028-.104-.412-.417-.617-1.042-.617-.52-.103-.937.103-1.041.72-.104.822.52.925.937.925Zm0 0" style="fill-rule:nonzero;fill:#000001;fill-opacity:1;stroke-width:.3;stroke-linecap:butt;stroke-linejoin:miter;stroke:#000;stroke-opacity:1;stroke-miterlimit:4" transform="matrix(-.0375 0 0 .038 26.517 0)"/><path d="M280.467 239.823c1.354-8.018 5-14.494 5.104-15.214 0 0 3.958.926 10.625 1.542 6.666.514 8.437.309 11.458.103l6.875-.72s1.146 2.365 1.25 4.73c.313 5.242 2.292 27.754 2.5 33.716 0 0 .833 3.598.833 12.336 0 9.56 2.605 28.988 2.605 39.37l-2.605.515s-14.479 1.13-14.479-.823c0-2.056-.833-26.932 1.354-42.043 0 0-.52-3.084-1.354-5.551-.937-2.467-4.375-9.971-4.375-11.719 0 0-5.625 16.036-5.937 18.812-.313 2.672-1.25 38.445-1.771 41.324 0 0-8.125 6.27-9.27 6.99-1.043.411-8.96-3.392-9.272-4.42.625-11.102 2.188-22.204 4.584-33.204 1.458-7.092.625-8.326.625-10.382 0-1.953.104-27.447 1.25-35.362Zm0 0" style="fill-rule:nonzero;fill:#fff;fill-opacity:1;stroke-width:.5;stroke-linecap:butt;stroke-linejoin:miter;stroke:#000;stroke-opacity:1;stroke-miterlimit:4" transform="matrix(-.0375 0 0 .038 26.517 0)"/><path d="M294.32 274.98c-.52 2.261-1.77 4.214-3.645 5.756m-2.708-53.66c-.313 1.337-2.292 7.299-7.188 10.897m14.271-9.766c-1.042 3.598-5.417 22.718-6.25 45.436m-.313 7.093-1.666 20.765m-.834 2.98c-1.666 6.066-2.604 12.44-2.708 18.71m32.188-35.979c-.209 1.953-.938 15.728 3.645 27.96m-18.541-85.937c-.313 2.262-.73 16.653-.73 17.784 0 1.13 1.563 2.775 2.396 2.981 0 0-1.666.617-2.083 5.962m-3.958-12.747c-.313 1.645-1.98 8.533-3.021 11.308m13.02-25.493s5 .925 5.313 0c0 0 1.563 29.502 3.75 45.95m-11.146-42.147-.625 16.447m2.5 2.16s1.875 2.775 1.459 4.008m-17.813-28.063 2.917.822m5.208 1.542c-.208.925-.52 4.626-.52 4.626m8.75 38.96c.624.72 1.458 1.953.833 4.317" style="fill:none;stroke-width:.5;stroke-linecap:butt;stroke-linejoin:miter;stroke:#000;stroke-opacity:1;stroke-miterlimit:4" transform="matrix(-.0375 0 0 .038 26.517 0)"/><path d="M285.05 224.404s0-3.187 1.042-4.832c0 0 3.541.72 8.437 1.234 4.896.617 9.063.822 12.604.514 3.646-.411 7.396-1.336 7.396-1.336s.938 4.831.521 5.55c0 0-4.063.72-8.333.926-4.896.205-9.688-.103-14.48-.72-2.5-.308-4.895-.72-7.291-1.336Zm0 0" style="fill-rule:nonzero;fill:#9b5f00;fill-opacity:1;stroke-width:.5;stroke-linecap:butt;stroke-linejoin:miter;stroke:#000;stroke-opacity:1;stroke-miterlimit:4" transform="matrix(-.0375 0 0 .038 26.517 0)"/><path d="m287.967 224.815.729-4.831h1.041l-.208 5.14-1.458-.206m21.979-4.112.104 5.448 1.354-.103-.104-5.653-1.354.308m-15.52 0-.418 5.345h.73l.625-5.345h-.938" style="fill-rule:nonzero;fill:#fff;fill-opacity:1;stroke-width:.5;stroke-linecap:butt;stroke-linejoin:miter;stroke:#000;stroke-opacity:1;stroke-miterlimit:4" transform="matrix(-.0375 0 0 .038 26.517 0)"/><path d="M276.82 320.826c-.416 1.337-.728 3.187-1.04 5.449 0 .514-.626 3.29 1.04 3.392.938 0 1.355-2.878 1.355-2.878s-.938 3.29.312 3.7c1.771.412 1.98-3.598 1.98-3.598-.209 1.131-1.355 4.01.312 4.318 1.875.308 2.396-3.906 2.396-3.906s-1.563 4.214.312 4.317c1.667 0 1.667-4.009 1.667-4.009s-.833 5.037 1.563 4.523c1.354-.206 1.666-2.056 1.979-3.084.416-1.439 1.354-3.392.208-6.579-.833-2.261-.52-2.98-.52-2.98s-2.917 2.158-5.105 3.597c-.937.617-6.458-2.262-6.458-2.262Zm29.688-4.42c-.52-.308-.416 1.85-.625 2.879-.208 1.028.209 3.186 3.646 2.98 3.333-.205 6.667-.925 8.854-.513 2.084.616 5.313.72 6.98.72 1.666 0 2.916-.104 3.75-.515.729-.308 2.187.411 3.02.411.73 0 1.667-.925 1.563-1.747 0-1.336-1.25-1.336-3.021-1.44-1.667-.102-3.333-.41-5-1.027-1.042-.206-3.125-1.44-5.625-1.953l-5.938.205c-1.041 0-6.979.309-7.604 0Zm0 0" style="fill-rule:nonzero;fill:#730000;fill-opacity:1;stroke-width:.5;stroke-linecap:butt;stroke-linejoin:miter;stroke:#000;stroke-opacity:1;stroke-miterlimit:4" transform="matrix(-.0375 0 0 .038 26.517 0)"/><path d="M491.563 193.462c.52.206 2.083-1.953.52-2.98 0 0-.52-1.954-1.979-1.954 0 0-1.354-2.056-3.437-1.748 0 0-1.98-1.439-2.917-1.336-.937.206-2.917 2.159-2.917 2.981-.208.514 0 1.748.417 2.364.52.617 1.042-.102 1.042-1.027 0 0-.313 1.541.937 2.261 1.146.72 1.042 0 1.146-.72 0 0 .313 1.645 1.146 1.954.833.205 1.354-.412 1.979-.412 0 0-1.042.72-.312 1.234.729.514 1.562.308 1.979 0 .625-.514.312-1.748 2.396-.617Zm0 0" style="fill-rule:nonzero;fill:#730000;fill-opacity:1;stroke-width:.5;stroke-linecap:butt;stroke-linejoin:miter;stroke:#000;stroke-opacity:1;stroke-miterlimit:4" transform="matrix(.0375 0 0 .038 -1.563 0)"/><path d="M482.5 189.762c.52-1.748 2.188-3.187 3.958-2.879m-1.979 4.42c.104-.41.209-.822.521-1.233 1.042-1.542 3.02-1.542 4.583-1.85m-2.5 4.523c.625-.412.834-1.131 1.459-1.44.937-.616 2.083-.822 3.125-.72" style="fill:none;stroke-width:.5;stroke-linecap:butt;stroke-linejoin:miter;stroke:#000;stroke-opacity:1;stroke-miterlimit:4" transform="matrix(.0375 0 0 .038 -1.563 0)"/><path d="M16.523 7.098a.24.24 0 0 0-.07.086c0 .023 0 .07.02.093.023.016.039.004.039-.03 0 .019 0 .058.031.077.047.024.043.004.047-.027 0 0 .012.058.039.074.035.008.05-.02.074-.02 0 0-.035.032-.012.051.028.02.059.012.075 0 .023-.02.011-.066.093-.023q.023.005.04-.043l-.29-.207Zm0 0" style="stroke:none;fill-rule:nonzero;fill:#730000;fill-opacity:1"/><path d="M480.73 188.22c-1.563 2.57.52 4.111 1.04 2.57-.103 2.364 1.772 2.261 2.293 1.541.729 2.468 1.979 1.337 3.02 1.131-1.25 2.364 1.459 1.645 1.98 1.028 1.041-1.336 1.458-.205 2.083-.308l1.25-1.234m-8.021-5.756c-1.667 1.028-2.5 2.261-2.604 3.7m5-2.158c-1.771.925-2.604 2.158-2.604 3.7m5.416-1.747c-1.666.925-1.77 1.747-2.5 2.775" style="fill:none;stroke-width:.5;stroke-linecap:butt;stroke-linejoin:miter;stroke:#000;stroke-opacity:1;stroke-miterlimit:4" transform="matrix(.0375 0 0 .038 -1.563 0)"/><path d="m9.316 12.297-.007-.176.074.063.015-.133c.032-.008.082.05.082.05l-.007-.136.109.125s-.008-.106.031-.168c0 0 .086.074.086.16 0 .074.07-.105.07-.105l.063.199.05-.074.04.156.094-.137.07.156.164-.011.02.097.074-.082.094.063s.078-.028.12-.028c.044 0 .094.059.094.059s.032-.059.059-.078.074.035.086.066l.062-.117s.079.082.09.117c0 0 .012-.097.031-.129.02-.027.047.012.07.051l.052-.164s.054.012.09.074c.042.059.042-.093.042-.093s.094.125.118.207c0 0-.633.222-1.079.16q-.48-.066-.957-.172m4.332-.02s.028-.082.07-.125c0 0 .079.094.079.125l.066-.039.063.059.07-.05.07.062.125-.055.051.055.195-.024.07.031.071-.09.063.07.105-.1s.05.038.059.07c0 0 .086-.04.105-.07 0 0 .078-.032.09.019 0 0 .05-.04.047-.078-.004-.047.058-.016.078.039 0 0 .02-.086.078-.094 0 0 .047.05.035.145 0 0 .09-.075.133-.082 0 0 .02.101-.012.199 0 0 .094-.16.118-.11.003.032.027.141.003.211l.086-.05.032.101.09-.02s-.543.083-1.055.036-.988-.235-.988-.235m-.375.387c.023-.016-.172.406-.645.43-.66.031-1.223-.305-1.223-.305s.07-.113.114-.144c0 0 .09.074.117.164 0 0 .015-.059.047-.114 0 0 .113.055.133.125 0 0 .039-.07.07-.09.031-.023.062.079.062.141 0 0 .075-.078.117-.078 0 0 .079.039.102.172 0 0 .078-.074.102-.063 0 0 .09.063.07.149-.012.047.09-.055.215-.086l.113.086.133-.188s.082.032.082.082c0 0 .039-.148.07-.16.031-.02.07.043.07.086 0 0 .012-.11.075-.133 0 0 .062.04.062.082 0 0 .063-.125.114-.156" style="stroke:none;fill-rule:nonzero;fill:#5ac800;fill-opacity:1"/><path d="m238.5 310.658-.2-4.44 1.9 1.578.4-3.355c.8-.198 2.1 1.283 2.1 1.283l-.2-3.454 2.8 3.158s-.2-2.665.8-4.244c0 0 2.2 1.875 2.2 4.046 0 1.875 1.8-2.664 1.8-2.664l1.6 5.033 1.3-1.875 1 3.947 2.4-3.454 1.8 3.947 4.2-.296.5 2.468 1.9-2.073 2.4 1.58s2-.692 3.1-.692 2.4 1.48 2.4 1.48.8-1.48 1.5-1.973c.8-.494 1.9.888 2.2 1.678l1.6-2.961s2 2.171 2.3 2.96c0 0 .3-2.467.8-3.256.5-.69 1.2.296 1.8 1.283l1.3-4.145s1.4.296 2.3 1.875c1.1 1.48 1.1-2.368 1.1-2.368s2.4 3.158 3 5.23m58.7-.79s.8-2.072 1.9-3.157c0 0 2 2.368 2 3.157l1.7-.986 1.6 1.48 1.8-1.283 1.8 1.579 3.2-1.382 1.3 1.382 5-.592 1.8.79 1.8-2.172 1.6 1.678 2.7-2.566s1.2.987 1.5 1.776c0 0 2.2-.986 2.7-1.776 0 0 2-.79 2.3.494 0 0 1.3-.987 1.2-1.974-.1-1.184 1.5-.395 2 .987 0 0 .5-2.171 2-2.369 0 0 1.2 1.283.9 3.652 0 0 2.3-1.875 3.4-1.974 0 0 .5 2.467-.3 4.934 0 0 2.4-4.046 3-2.763.1.79.7 3.553.1 5.329l2.2-1.283.8 2.566 2.3-.494m-109.8 7.994s1.8-2.96 2.9-3.652c0 0 2.3 1.777 3.1 4.145 0 0 .3-1.579 1-2.96 0 0 3 1.381 3.5 3.158 0 0 1-1.777 1.9-2.27.7-.592 1.5 1.974 1.5 3.552 0 0 1.9-1.973 3-1.973 0 0 2 .987 2.6 4.44 0 0 2-1.973 2.6-1.677 0 0 2.4 1.678 1.8 3.75-.3 1.184 2.3-1.382 5.5-2.072l2.9 2.072 3.4-4.737s2.1.79 2.1 2.072c0 0 1-3.65 1.8-4.046.8-.493 1.9 1.086 1.9 2.171 0 0 .3-2.763 1.8-3.355 0 0 1.6.987 1.6 2.073 0 0 1.6-3.158 3-3.948" style="fill:none;stroke-width:.5;stroke-linecap:butt;stroke-linejoin:miter;stroke:#060;stroke-opacity:1;stroke-miterlimit:4" transform="scale(.03906 .03958)"/><path d="M12.48 14.324c.86.008 1.368-.308 1.641-.496.656-.445.793-.46.899-.453.12.012.3.05.312.16.008.168-.258.238-.41.238s-.567-.101-.567-.101l-.105.074c.07.031.906.316 1.066.047.16-.266.329-.707.329-.707s-.184-.332-.59-.332c-.414 0-.813.266-1.078.465-.266.195-.606.465-1.497.465-.894 0-1.234-.27-1.5-.465-.27-.2-.668-.465-1.078-.465a.7.7 0 0 0-.593.332s.164.437.328.71c.16.267.996-.019 1.066-.054l-.101-.07s-.407.101-.563.101-.426-.07-.414-.234c.008-.113.188-.152.313-.164.105-.008.242.008.894.453a2.8 2.8 0 0 0 1.648.496" style="stroke:none;fill-rule:nonzero;fill:#fff;fill-opacity:1"/><path d="M11.098 13.3s0-.073-.012-.183c-.016-.137-.094-.172-.156-.152-.047.015-.13.117-.13.117v.004l-.116-.07a.7.7 0 0 1 .246-.145c.039 0 .566.215.734.363.04.04.07.278.047.356a1.9 1.9 0 0 1-.613-.285m-.254.539s-.114.117-.117.328c0 .25.175.262.293.258.144 0 .257-.086.253-.356 0 0-.234-.097-.43-.234m3.012-.54.016-.183c.016-.137.094-.172.156-.152.04.015.125.117.125.117v.004l.118-.07a.7.7 0 0 0-.243-.145c-.039 0-.566.215-.734.363-.04.04-.07.278-.05.356.218-.055.429-.152.612-.285Zm.254.544s.114.117.118.328c.007.25-.176.262-.293.258-.141 0-.254-.086-.254-.356 0 0 .234-.097.43-.234" style="stroke:none;fill-rule:nonzero;fill:#fff;fill-opacity:1"/><path d="M10.598 13.672s-.407.101-.559.101-.426-.07-.414-.234c.008-.113.188-.152.313-.164.09-.008.207 0 .664.297m3.753 0s.41.101.567.101c.152 0 .418-.07.406-.234-.008-.113-.187-.152-.308-.164-.09-.008-.211 0-.665.297m-3.257-.367-.121-.09c-.059-.043-.118-.082-.176-.13 0 0 .082-.105.125-.116.066-.024.144.011.16.148.012.11.012.188.012.188m-.278 1.09c.07.043.153.043.2.035.144 0 .257-.086.253-.356 0 0 .176.094.461.16 0 0 .047.059.055.176.012.098-.055.2-.129.195 0 0-.402-.078-.644-.117-.145-.027-.196-.093-.196-.093m3.035-1.09.125-.09.172-.13s-.082-.105-.125-.116c-.062-.024-.14.011-.156.148Zm.278 1.09a.3.3 0 0 1-.2.035c-.14 0-.253-.086-.253-.356 0 0-.176.094-.457.16 0 0-.051.059-.059.176-.008.098.059.2.133.195 0 0 .402-.078.644-.117.141-.027.196-.093.196-.093" style="stroke:none;fill-rule:nonzero;fill:#69f;fill-opacity:1"/><path d="M319.5 361.875c22 .197 35-7.796 42-12.533 16.8-11.25 20.3-11.645 23-11.447 3.1.296 7.7 1.283 8 4.046.2 4.243-6.6 6.02-10.5 6.02s-14.5-2.566-14.5-2.566l-2.7 1.875c1.8.79 23.2 7.993 27.3 1.184 4.1-6.71 8.4-17.862 8.4-17.862s-4.7-8.388-15.1-8.388c-10.6 0-20.8 6.71-27.7 11.743-6.9 4.935-15.4 11.744-38.2 11.744s-31.6-6.81-38.4-11.744c-6.9-5.033-17.1-11.743-27.6-11.743s-15.2 8.388-15.2 8.388 4.2 11.053 8.4 17.96c4.1 6.711 25.5-.493 27.4-1.38l-2.7-1.777S261 347.96 257 347.96s-10.9-1.777-10.6-5.922c.2-2.861 4.8-3.848 8-4.144 2.7-.198 6.2.197 22.9 11.447 12.4 8.487 27.2 12.83 42.2 12.533Zm0 0" style="fill:none;stroke-width:.7;stroke-linecap:butt;stroke-linejoin:miter;stroke:#000;stroke-opacity:1;stroke-miterlimit:4" transform="scale(.03906 .03958)"/><path d="M271.3 345.395s-10.4 2.566-14.3 2.566-10.9-1.777-10.6-5.922c.2-2.861 4.8-3.848 8-4.144 2.3-.198 5.3 0 17 7.5Zm96.2 0s10.5 2.566 14.5 2.566c3.9 0 10.7-1.777 10.4-5.922-.2-2.861-4.8-3.848-7.9-4.144-2.3-.198-5.4 0-17 7.5Zm-83.4-9.277-3.1-2.27c-1.5-1.085-3-2.072-4.5-3.256 0 0 2.1-2.664 3.2-2.96 1.7-.593 3.7.296 4.1 3.75.3 2.861.3 4.736.3 4.736Zm0 0" style="fill:none;stroke-width:.7;stroke-linecap:butt;stroke-linejoin:miter;stroke:#000;stroke-opacity:1;stroke-miterlimit:4" transform="scale(.03906 .03958)"/><path d="M284.1 336.02s0-1.875-.3-4.638c-.4-3.454-2.4-4.343-4-3.85-1.2.396-3.3 2.961-3.3 2.961v.1l-3-1.777c1.8-1.678 4-2.862 6.3-3.652 1 0 14.5 5.428 18.8 9.178 1 .987 1.8 7.007 1.2 8.98-5.6-1.48-11-3.848-15.7-7.204m-6.5 13.619s-2.9 2.96-3 8.29c0 6.315 4.5 6.611 7.5 6.512 3.7 0 6.6-2.17 6.5-8.98 0 0-6-2.467-11-5.92Zm0 0" style="fill:none;stroke-width:.7;stroke-linecap:butt;stroke-linejoin:miter;stroke:#000;stroke-opacity:1;stroke-miterlimit:4" transform="scale(.03906 .03958)"/><path d="M280.1 351.118s-2.3 2.468-2.7 6.514c-.2 3.059 1.8 4.835 4.5 4.638 3.7-.198 5.1-5.23 3.4-8.092l-5.2-2.96" style="fill:none;stroke-width:.7;stroke-linecap:butt;stroke-linejoin:miter;stroke:#000;stroke-opacity:1;stroke-miterlimit:4" transform="scale(.03906 .03958)"/><path d="M277 363.651c1.8 1.086 3.9 1.086 5.2.888 3.6 0 6.5-2.17 6.4-8.98 0 0 4.5 2.369 11.8 4.046 0 0 1.2 1.48 1.4 4.54.3 2.368-1.4 4.934-3.3 4.737L282 366.02c-3.7-.691-5-2.369-5-2.369Zm77.7-27.533 3.3-2.27c1.3-1.085 2.8-2.072 4.4-3.256 0 0-2.2-2.664-3.3-2.96-1.6-.593-3.6.296-4 3.75Zm0 0" style="fill:none;stroke-width:.7;stroke-linecap:butt;stroke-linejoin:miter;stroke:#000;stroke-opacity:1;stroke-miterlimit:4" transform="scale(.03906 .03958)"/><path d="m354.7 336.02.4-4.638c.4-3.454 2.4-4.343 4-3.85 1 .396 3.2 2.961 3.2 2.961v.1l3-1.777c-.7-.888-5.2-3.652-6.2-3.652s-14.5 5.428-18.8 9.178c-1 .987-1.8 7.007-1.3 8.98 5.6-1.381 11-3.848 15.7-7.204m6.5 13.619s2.9 2.96 3 8.29c.2 6.315-4.5 6.611-7.5 6.512-3.6 0-6.5-2.17-6.5-8.98 0 0 6-2.467 11-5.92Zm0 0" style="fill:none;stroke-width:.7;stroke-linecap:butt;stroke-linejoin:miter;stroke:#000;stroke-opacity:1;stroke-miterlimit:4" transform="scale(.03906 .03958)"/><path d="M358.7 351.118s2.4 2.468 2.8 6.514c.3 3.059-1.9 4.835-4.5 4.638-3.7-.198-5.1-5.23-3.4-8.092l5.1-2.96" style="fill:none;stroke-width:.7;stroke-linecap:butt;stroke-linejoin:miter;stroke:#000;stroke-opacity:1;stroke-miterlimit:4" transform="scale(.03906 .03958)"/><path d="M361.9 363.651c-2 1.086-4 1.086-5.2.888-3.6 0-6.5-2.17-6.5-8.98 0 0-4.5 2.369-11.7 4.046 0 0-1.3 1.48-1.5 4.54-.2 2.368 1.5 4.934 3.4 4.737l16.5-2.862c3.6-.691 5-2.369 5-2.369Zm0 0" style="fill:none;stroke-width:.7;stroke-linecap:butt;stroke-linejoin:miter;stroke:#000;stroke-opacity:1;stroke-miterlimit:4" transform="scale(.03906 .03958)"/><path d="M299.6 361.382s3.3 2.467-.7 5.329m-9-6.81 10 4.342m-8.3-2.17 7.2 3.157m-4.6-5.033 5.4 2.467m39.7-1.282s-3.3 2.467.6 5.329m9-6.81-10 4.342m8.4-2.17-7.2 3.157m4.6-5.033-5.4 2.467" style="fill:none;stroke-width:.7;stroke-linecap:butt;stroke-linejoin:miter;stroke:#fff;stroke-opacity:1;stroke-miterlimit:4" transform="scale(.03906 .03958)"/><path d="M261 331.382c.1.197.2.493.3.69v.79c-.1.79-.5 1.381-1.2 1.677-.7.395-1.4.494-2.2.395l-1-.395-1-.592-.3.395-.4-.099.4-2.96.5.099c0 .394.1.79.2.986l.3.987.7.691c.2.197.5.296.9.395h.7c.4 0 .7-.296.9-.592l.2-.691-.1-.987-.7-.69-.8-.494-.8-.592c-.5-.296-.8-.592-1-.987s-.2-.888-.1-1.382c0-.394.1-.592.4-.79.4-.493.9-.887 1.5-1.085h1l1 .494.8.592.3-.395.5.099-.5 2.763-.5-.099v-.987l-.4-.79-.5-.69-.8-.395-1 .198c-.4.197-.6.395-.6.79v.986l.7.69.8.494 1.3.987c.2.099.4.198.5.494m12 1.579-1-.198c-.2 0-.4.099-.5.296l-.6 1.086-1.8 3.059c-.3.79-1.1 1.283-1.9 1.283h-1.1l-1-.494-1-.79-.7-.986-.1-.987.2-.79 2.4-4.341.1-.395v-.296l-.3-.296-.4-.296.2-.296 3.1 1.677-.2.296-.3-.098-.4-.099h-.4l-.2.296-2.2 4.046-.3.69v.79c0 .198.1.395.2.691l.9.79 1 .296c.5.098 1.1-.099 1.5-.494l.5-.592 1.6-2.96.5-1.086v-.592c0-.099-.1-.296-.4-.493l-.4-.296.2-.395 3 1.677-.2.297m4.3 7.5c.3.592.3 1.282 0 1.875l-.8.789-1 .296-1-.099-.9-.394-3.5-2.073.2-.394.8.296h.3l.3-.296 3-5.23.1-.297-.1-.395-.3-.296-.3-.197.2-.493 3.4 2.072.7.493.6.691c.2.494.2 1.086 0 1.58l-.6.591-.7.296h-.7l-.8-.197v.099l.6.592Zm-.6-1.777c.2 0 .4-.098.5-.296l.5-.592c.2-.395.3-.79.2-1.184q-.15-.444-.9-.888l-.4-.198-.4-.296-1.6 2.763.6.395.8.296Zm-.6 2.763c.3-.493.3-.888.1-1.381 0-.395-.3-.691-1-1.086l-.5-.394-.4-.1-1.5 2.468c-.1.296-.1.493 0 .79.1.197.4.295.7.493.5.197 1 .296 1.4.296.5-.197.9-.592 1.2-.987Zm18.9 4.244h-.5l-.6-.099c-.1 0-.3.099-.4.395l-.5.987-1.5 3.355c-.1.395-.4.69-.7.987l-1 .395h-1.1c-.8-.1-1.6-.494-2.2-.987l-.7-.79-.3-.987.2-.986 2-4.441v-.395l-.1-.296-.3-.296-.4-.197.2-.395 3.3 1.381-.2.395-.4-.099h-.7l-.2.296-1.9 4.244-.2.79c0 .493.1.986.4 1.38.2.198.5.494 1 .692l1 .197c.6 0 1.1-.296 1.5-.69l.4-.593 1.3-3.158.3-.987v-.69l-.4-.395-.5-.296.2-.395 3.1 1.382-.1.296m9.2 10.855-3.6-1.085v-.395h.6l.4.098.4-.197.2-.296 1.7-5.724h-.1l-4.8 5.921h-.3l-.6-7.894-1.5 4.835-.2 1.086.1.592.5.395.5.296-.2.394-3.2-.986v-.395h1.1c.2 0 .4-.099.5-.395l.3-.987 1.2-4.243.1-.592-.1-.395-.4-.395-.5-.197.1-.395 2.8.79.6 6.71 3.5-4.54.3-.493.2-.395 2.7.79-.1.493h-.5l-.4-.098-.3.098-.1.395-1.7 5.724v.296l.1.296.8.395-.1.493m8.7-2.664c.5.394.8 1.085.7 1.677l-.4 1.086c-.2.197-.5.394-.8.592-.3.099-.7.197-1 .296h-1l-4-.494v-.394h.9l.3-.198.1-.493.8-5.921v-.296l-.3-.296-.4-.198h-.3v-.592l3.9.592c.3 0 .6 0 .9.198l.7.395q.6.591.6 1.48l-.2.79-.6.493-.6.296-.8.197.8.296Zm-1.3-1.48.4-.494.2-.69c0-.396-.1-.79-.3-1.086-.2-.395-.6-.494-1.1-.494l-1-.099-.4 3.158h1.6Zm.5 2.762c0-.493-.1-.888-.3-1.282-.3-.296-.8-.494-1.4-.593l-.7-.098h-.4l-.3 2.862.2.69.8.296c.5 0 1-.098 1.5-.394q.45-.445.6-1.48Zm11.4 2.665h-2.2l-1.4-2.072-1.3-1.777h-1v2.763l.1.395.3.198h.4l.5.098v.395h-3.6v-.395h.4l.4-.098.2-.198.1-.395v-6.414l-.3-.296h-.4l-.4-.099v-.395h4.9l.9.395.6.592c.3.494.3 1.185 0 1.777l-.4.69-.7.395-.8.296 1 1.382c.3.395.7.79 1 1.48l1 .79.8.098Zm-3.1-6.217c0-.592-.1-.987-.4-1.184-.3-.395-.8-.494-1.3-.494h-1v3.553h.8c.5 0 1-.198 1.3-.494s.5-.79.6-1.381Zm13 5.625-3.6.296v-.395l.7-.197c.2-.099.3-.198.3-.198v-.296l-.9-1.875-3 .198-.2.69-.1.593-.1.493v.296c0 .197.1.296.4.296l.9.099v.395l-3.2.296v-.395l.4-.099.7-.592.2-.493 1.1-3.652 1.1-3.552h.5l3.4 6.908.2.394.7.395h.4v.395Zm-3.7-3.158-1.6-3.158-1 3.355Zm15.7-6.71-.4.197-.8-.888c-.4-.198-.7-.296-1-.296h-.3l-.6.197-1.4.395.9 3.256 1-.197.6-.296.3-.395.1-.395v-.69l.4-.198.9 3.257-.4.098-.3-.493-.4-.395-.5-.197-.6.099-1 .296.8 2.763s0 .197.2.296l.3.197h.4l.4-.098.1.394-3.5.987-.1-.395.8-.394.2-.296v-.296l-1.6-5.921-.2-.297-.3-.197h-.9l-.1-.296 6.4-1.776.6 1.973m9.4-.69 1 2.467-6 2.763-.2-.296.4-.296.3-.198.1-.296v-.394L347.7 345l-.2-.296h-1.2l-.2-.296 3.3-1.58.2.396-.4.197-.3.296-.2.296.1.395 2.5 5.033q0 .296.3.592l.3.197h.4l.7-.296.4-.197.4-.296.3-.198.2-.296.2-2.072.3-.197m4.5-8.29 1.5.79 1.2 1.381.6 1.777v1.578l-.7 1.48-1.2.988c-1 .592-2.1.69-3.2.394l-1.4-.69-1.2-1.382-.6-1.678v-1.677c.3-1.086 1-1.974 2-2.467l1.5-.593Zm2.3 5.625-.2-1.283-.7-1.381-1-1.382-1-.79-1-.197q-.75 0-1.2.296c-.4.296-.7.592-.9.987l-.3 1.086c0 .394.1.888.3 1.283.3.888.8 1.776 1.5 2.565.3.395.7.691 1 .79l1.2.296c.3 0 .7-.099 1.1-.296.8-.296 1.3-1.086 1.2-1.974Zm10.5-5.724-1.9 1.283-2.3-.888-2-.592-.8.494 1.6 2.072.2.296h.4l.3-.099.4-.296.3.395-3 2.072-.2-.296.6-.493v-.69l-3.6-5.034-.2-.197h-.4l-.7.296-.3-.395 3.2-2.17.9-.593.9-.197.8.098c.6.296 1 .79 1.1 1.48v.79l-.2.69-.5.79 3.2.987 1.2.099h.4l.4-.296Zm-6.2-3.256c-.3-.395-.6-.69-1-.69-.5-.198-.9-.1-1.3.295l-.8.592 2 2.96.7-.493c.4-.296.7-.69.8-1.184.1-.493-.1-.987-.4-1.48Zm13.2-2.072.7 2.467-6.6 2.368-.2-.395.8-.394.2-.296v-.395l-2.2-5.625-.1-.296-.4-.099h-.9l-.1-.296 6.1-2.27.7 1.875-.4.099-.8-.69-.9-.297-.4.197-1.8.593 1.1 3.059 1-.296c.2 0 .4-.099.5-.296l.3-.395v-1.086l.4-.098 1.1 2.96-.4.198-.3-.494-.4-.296-.5-.197c-.2 0-.4.098-.6.197l-.9.296.9 2.467.2.494.3.296h.5l.7-.296 1.5-.592.2-.296.2-.987v-1.086l.5-.098m7.1-5.724c.4.197.7.69 1 1.283.3.493.5.987.6 1.677v1.777l-.8 1.48c-.6.888-1.6 1.48-2.7 1.678-1.1.098-2.2-.198-3-.889l-1-1.282-.6-1.678v-1.875l.8-1.48q1.05-1.333 2.7-1.48h1.6Zm-.1 5.92c.2-.394.3-.789.3-1.282v-1.48l-.4-1.48-.7-1.185-.9-.69-1.1-.1c-.5 0-.9.1-1.2.494-.3.198-.6.592-.7.987l-.3 1.184c-.1.987 0 2.073.4 2.96l.7 1.086c.2.494.5.691.9.79.3.197.7.197 1.2.197l1-.493.8-1.086Zm0 0" style="fill-rule:nonzero;fill:#000;fill-opacity:1;stroke-width:.7;stroke-linecap:butt;stroke-linejoin:miter;stroke:#000;stroke-opacity:1;stroke-miterlimit:4" transform="scale(.03906 .03958)"/><path d="M366 205.066v52.993c0 10.658-1.4 52.599-46.5 69.08-45.3-16.481-46.7-58.422-46.7-69.08v-52.993H366" style="fill:none;stroke-width:1;stroke-linecap:butt;stroke-linejoin:miter;stroke:#000;stroke-opacity:1;stroke-miterlimit:4" transform="scale(.03906 .03958)"/></svg>