<svg xmlns="http://www.w3.org/2000/svg" width="25" height="px" viewBox="0 0 25 19"><path d="M5.863 0h13.27v19H5.859Zm0 0" style="stroke:none;fill-rule:nonzero;fill:#fff;fill-opacity:1"/><path d="M-.77 0h6.633v19H-.77Zm19.903 0h6.633v19h-6.63ZM7.852 9.184l-.52.175 2.398 2.137c.184.543-.062.703-.218.988l2.601-.332-.062 2.653.543-.012-.121-2.637 2.605.317c-.16-.344-.305-.528-.156-1.078l2.394-2.016-.418-.16c-.343-.27.149-1.29.22-1.934 0 0-1.395.485-1.485.227l-.36-.692L14 8.238c-.137.035-.195-.02-.23-.14l.585-2.961-.93.531c-.081.035-.152.004-.202-.086l-.899-1.82-.922 1.89c-.074.067-.136.075-.195.028l-.895-.504.536 2.933c-.043.121-.145.153-.262.09L9.367 6.801c-.156.258-.265.676-.476.773-.211.094-.918-.18-1.391-.277.164.586.664 1.566.352 1.887" style="stroke:none;fill-rule:nonzero;fill:#d52b1e;fill-opacity:1"/></svg>