<?xml version="1.0" encoding="UTF-8"?>
<svg xmlns="http://www.w3.org/2000/svg" xmlns:xlink="http://www.w3.org/1999/xlink" width="25px" height="px" viewBox="0 0 25 19" version="1.1">
<g id="surface1">
<path style=" stroke:none;fill-rule:nonzero;fill:rgb(100%,100%,100%);fill-opacity:1;" d="M 5.863281 0 L 19.132812 0 L 19.132812 19 L 5.859375 19 Z M 5.863281 0 "/>
<path style=" stroke:none;fill-rule:nonzero;fill:rgb(83.529413%,16.862746%,11.764706%);fill-opacity:1;" d="M -0.769531 0 L 5.863281 0 L 5.863281 19 L -0.769531 19 Z M 19.132812 0 L 25.765625 0 L 25.765625 19 L 19.136719 19 Z M 7.851562 9.183594 L 7.332031 9.359375 L 9.730469 11.496094 C 9.914062 12.039062 9.667969 12.199219 9.511719 12.484375 L 12.113281 12.152344 L 12.050781 14.804688 L 12.59375 14.792969 L 12.472656 12.15625 L 15.078125 12.472656 C 14.917969 12.128906 14.773438 11.945312 14.921875 11.394531 L 17.316406 9.378906 L 16.898438 9.21875 C 16.554688 8.949219 17.046875 7.929688 17.117188 7.285156 C 17.117188 7.285156 15.722656 7.769531 15.632812 7.511719 L 15.273438 6.820312 L 14 8.238281 C 13.863281 8.273438 13.804688 8.21875 13.769531 8.097656 L 14.355469 5.136719 L 13.425781 5.667969 C 13.34375 5.703125 13.273438 5.671875 13.222656 5.582031 L 12.324219 3.761719 L 11.402344 5.652344 C 11.328125 5.71875 11.265625 5.726562 11.207031 5.679688 L 10.3125 5.175781 L 10.847656 8.109375 C 10.804688 8.230469 10.703125 8.261719 10.585938 8.199219 L 9.367188 6.800781 C 9.210938 7.058594 9.101562 7.476562 8.890625 7.574219 C 8.679688 7.667969 7.972656 7.394531 7.5 7.296875 C 7.664062 7.882812 8.164062 8.863281 7.851562 9.183594 "/>
</g>
</svg>
