<svg xmlns="http://www.w3.org/2000/svg" width="25" height="px" viewBox="0 0 25 19"><path d="M0 0h25v19H0z" style="fill:green;fill-opacity:1;stroke:none"/><path d="M15.105 9.5c0-1.457-1.168-2.64-2.605-2.64S9.895 8.042 9.895 9.5s1.168 2.64 2.605 2.64 2.605-1.183 2.605-2.64m0 0" style="stroke:none;fill-rule:nonzero;fill:#ffe000;fill-opacity:1"/><path d="M15.457 9.5c0-1.2-.96-2.172-2.145-2.172-1.183 0-2.144.973-2.144 2.172s.96 2.172 2.145 2.172c1.183 0 2.144-.973 2.144-2.172m0 0" style="stroke:none;fill-rule:nonzero;fill:green;fill-opacity:1"/><path d="M7.016 6.86c0-1.528-1.223-2.762-2.727-2.762S1.563 5.332 1.563 6.859s1.222 2.762 2.726 2.762S7.016 8.387 7.016 6.86m0 0" style="stroke:none;fill-rule:nonzero;fill:#ffe000;fill-opacity:1"/><path d="M105 225.987h17.5s.7-1.58-.2-2.369c-1-.79-4.7-.986-3.7-3.848 2-5.724 2.4-3.948 3.7-17.763 1-11.843 1.6-23.685 2-35.527h-2.6s.5 6.71-1 15.494c-1.4 8.783-1.9 9.572-3.5 16.283q-1.2 5.772-3.3 11.25c-1.4 3.947-1.6 4.046-3.8 7.796-2.3 3.552-1.5 2.17-2.7 4.44-.7 1.086-1.4.79-1.9 1.58-.5.789-.5 2.664-.5 2.664Zm0 0" style="fill-rule:nonzero;fill:#802000;fill-opacity:1;stroke-width:1.5;stroke-linecap:butt;stroke-linejoin:miter;stroke:#7b3100;stroke-opacity:1;stroke-miterlimit:4" transform="scale(.03906 .03958)"/><path d="M4.621 4.848a1 1 0 0 1-.047.367 1 1 0 0 0-.09.387c-.07.023-.144-.157-.214-.047.05.144.171.261.25.39.015.04.132.149.062.172-.168-.062-.21-.277-.312-.41a.75.75 0 0 0-.606-.394c-.098.003-.406-.02-.328.144.117.082.266.137.383.227.09.007.246.16.238.214-.156-.062-.227-.14-.39-.207-.227-.086-.536-.035-.665.192-.02.058-.054.23.02.25.086-.137.207-.29.387-.246.14.011-.157.265-.043.215.039-.02.117-.075.18-.082.058 0 .09.039.132.046.09.012.117.051.106.075-.012.023-.04 0-.13.03-.042.016-.066.056-.116.075a.36.36 0 0 1-.204 0c-.144-.059-.379-.05-.421.129 0 .082-.07-.008-.102.031-.027.086-.031.172-.156.164-.078.078-.157.168-.258.227.058.133.285-.137.273-.02-.097.137.055.164.118.059.113-.117.253-.266.417-.14.079.074.125-.044.184-.044.04.102.082.008.125-.02.066-.007.047.09.125.028.16-.105.356-.015.512-.117.168-.078.023.059-.02.113-.074.145-.011.336-.168.422-.066.168.075.395-.066.524-.02.078.18.07.234.101.102 0 0-.23.098-.262.133.079.125-.148.098-.222.015-.157.023-.34.101-.485.086-.18.164.075.07.145-.054.164-.132.371-.011.527.039.008.066.094.11.117.046.028.108-.003.116-.082.063-.238.032-.492.117-.722.06-.074.141-.012.176.054.117.137.2.309.34.422.133.055.242.16.305.29 0 .105.289.12.203 0-.082-.106-.027-.223.055-.298.046.012.035-.07 0-.039-.059-.011-.063-.117.015-.066.137.043-.008-.098-.058-.102-.114-.074-.243-.152-.297-.277.148 0 .3.082.449.035.121-.066.242 0 .285.11.094-.016.055-.11 0-.141.067-.031.117-.09.031-.14-.039-.055.059-.157-.066-.149.004-.102-.031-.188-.137-.223-.105-.086-.414.133-.402-.066-.031-.113.125-.016.168-.074.043-.117-.215-.102-.129-.196.055-.03.316-.086.113-.125a.3.3 0 0 1-.273-.043c-.074.125-.281-.07-.246.153-.028.082-.215.3-.266.133.04-.13.266-.168.195-.348-.011-.106-.101.02-.14.012-.024-.067.062-.153.125-.168.117.097.117-.118.234-.098.082-.02-.027-.055-.05-.07.023-.059.152-.09.027-.149-.114-.078-.196.086-.285.094-.086-.102.078-.148.125-.2.003-.038-.094-.01-.067-.046.027-.043.203-.047.117-.121a.56.56 0 0 0-.398.027c-.078.024-.098.195-.164.188-.027-.078.012-.23-.094-.25m.586 1.675c.094-.015 0 .145-.039.141 0-.055-.14-.05-.05-.101a.3.3 0 0 1 .089-.04" style="stroke:none;fill-rule:nonzero;fill:green;fill-opacity:1"/><path d="m18.754 12.82.172.54.523-.2-.308.473.48.293-.558.047.078.566-.387-.414-.39.414.077-.566-.558-.047.484-.293-.312-.473.523.2ZM15.629 7.805l.172.543.523-.203-.308.476.48.29-.558.05.078.562-.387-.414-.39.414.077-.562-.558-.05.48-.29-.308-.476.523.203ZM18.754 4.375l.172.54.523-.2-.308.473.48.292-.558.047.078.567-.387-.414-.39.414.077-.567-.558-.047.484-.293-.312-.472.523.2ZM21.531 6.96l.172.544.524-.203-.309.472.484.293-.562.051.078.563-.387-.414-.386.414.074-.563-.559-.05.485-.294-.313-.472.527.199ZM20.004 9.5l.137.34.355.027-.273.235.086.355-.305-.195-.309.195.086-.355-.273-.235.36-.027Zm0 0" style="stroke:none;fill-rule:nonzero;fill:#ffe000;fill-opacity:1"/></svg>