<?xml version="1.0" encoding="UTF-8"?>
<svg xmlns="http://www.w3.org/2000/svg" xmlns:xlink="http://www.w3.org/1999/xlink" width="25px" height="px" viewBox="0 0 25 19" version="1.1">
<g id="surface1">
<rect x="0" y="0" width="25" height="19" style="fill:rgb(0%,20%,60.000002%);fill-opacity:1;stroke:none;"/>
<path style="fill:none;stroke-width:27.5;stroke-linecap:butt;stroke-linejoin:miter;stroke:rgb(100%,80.000001%,0%);stroke-opacity:1;stroke-miterlimit:4;" d="M 350.4 249.769737 C 350.4 232.993421 336.8 219.375 320 219.375 C 303.2 219.375 289.6 232.993421 289.6 249.769737 C 289.6 266.546053 303.2 280.164474 320 280.164474 C 336.8 280.164474 350.4 266.546053 350.4 249.769737 Z M 350.4 249.769737 " transform="matrix(0.0390625,0,0,0.0395833,0,0)"/>
<path style="fill:none;stroke-width:27.5;stroke-linecap:butt;stroke-linejoin:miter;stroke:rgb(100%,80.000001%,0%);stroke-opacity:1;stroke-miterlimit:4;" d="M 408.3 249.769737 C 408.3 201.019737 368.8 161.546053 320 161.546053 C 271.2 161.546053 231.7 201.019737 231.7 249.769737 C 231.7 298.519737 271.2 338.092105 320 338.092105 C 368.8 338.092105 408.3 298.519737 408.3 249.769737 Z M 408.3 249.769737 " transform="matrix(0.0390625,0,0,0.0395833,0,0)"/>
<path style=" stroke:none;fill-rule:nonzero;fill:rgb(0%,20%,60.000002%);fill-opacity:1;" d="M 15.808594 6.535156 L 19.117188 9.886719 L 15.808594 13.242188 L 12.5 9.886719 Z M 15.808594 6.535156 "/>
<path style=" stroke:none;fill-rule:nonzero;fill:rgb(100%,80.000001%,0%);fill-opacity:1;" d="M 6.863281 9.34375 L 9.175781 9.34375 L 9.175781 10.433594 L 6.863281 10.433594 Z M 16.984375 9.34375 L 20.433594 9.34375 L 20.433594 10.433594 L 16.984375 10.433594 Z M 14.179688 7.417969 L 15.695312 5.882812 L 16.453125 6.652344 L 14.941406 8.1875 Z M 11.964844 1.921875 L 13.039062 1.921875 L 13.039062 6.164062 L 11.964844 6.164062 Z M 11.964844 1.921875 "/>
<path style=" stroke:none;fill-rule:nonzero;fill:rgb(100%,80.000001%,0%);fill-opacity:1;" d="M 9.328125 6.316406 C 9.328125 6.019531 9.089844 5.773438 8.792969 5.773438 C 8.496094 5.773438 8.257812 6.019531 8.257812 6.316406 C 8.257812 6.617188 8.496094 6.859375 8.792969 6.859375 C 9.089844 6.859375 9.328125 6.617188 9.328125 6.316406 Z M 9.328125 6.316406 "/>
<path style=" stroke:none;fill-rule:nonzero;fill:rgb(100%,80.000001%,0%);fill-opacity:1;" d="M 6.171875 9.886719 C 6.171875 9.589844 5.933594 9.34375 5.636719 9.34375 C 5.339844 9.34375 5.101562 9.589844 5.101562 9.886719 C 5.101562 10.1875 5.339844 10.429688 5.636719 10.429688 C 5.933594 10.429688 6.171875 10.1875 6.171875 9.886719 Z M 6.171875 9.886719 "/>
<path style=" stroke:none;fill-rule:nonzero;fill:rgb(100%,80.000001%,0%);fill-opacity:1;" d="M 13.035156 15.097656 C 13.035156 14.796875 12.796875 14.554688 12.5 14.554688 C 12.203125 14.554688 11.964844 14.796875 11.964844 15.097656 C 11.964844 15.398438 12.203125 15.640625 12.5 15.640625 C 12.796875 15.640625 13.035156 15.398438 13.035156 15.097656 Z M 13.035156 15.097656 "/>
<path style=" stroke:none;fill-rule:nonzero;fill:rgb(100%,80.000001%,0%);fill-opacity:1;" d="M 13.035156 16.84375 C 13.035156 16.542969 12.796875 16.300781 12.5 16.300781 C 12.203125 16.300781 11.964844 16.542969 11.964844 16.84375 C 11.964844 17.140625 12.203125 17.386719 12.5 17.386719 C 12.796875 17.386719 13.035156 17.140625 13.035156 16.84375 Z M 13.035156 16.84375 "/>
<path style=" stroke:none;fill-rule:nonzero;fill:rgb(100%,80.000001%,0%);fill-opacity:1;" d="M 16.484375 9.886719 C 16.484375 9.589844 16.246094 9.34375 15.949219 9.34375 C 15.652344 9.34375 15.414062 9.589844 15.414062 9.886719 C 15.414062 10.1875 15.652344 10.429688 15.949219 10.429688 C 16.246094 10.429688 16.484375 10.1875 16.484375 9.886719 Z M 16.484375 9.886719 "/>
<path style=" stroke:none;fill-rule:nonzero;fill:rgb(100%,80.000001%,0%);fill-opacity:1;" d="M 8.136719 13.519531 L 8.898438 12.75 L 9.65625 13.519531 L 8.898438 14.289062 Z M 16.132812 14.347656 L 16.894531 13.578125 L 17.65625 14.347656 L 16.894531 15.117188 Z M 16.132812 14.347656 "/>
</g>
</svg>
