<svg xmlns="http://www.w3.org/2000/svg" width="25" height="px" viewBox="0 0 25 19"><path d="M0 0h25v19H0z" style="fill:#039;fill-opacity:1;stroke:none"/><path d="M350.4 249.77c0-16.777-13.6-30.395-30.4-30.395s-30.4 13.618-30.4 30.395c0 16.776 13.6 30.394 30.4 30.394s30.4-13.618 30.4-30.394Zm0 0" style="fill:none;stroke-width:27.5;stroke-linecap:butt;stroke-linejoin:miter;stroke:#fc0;stroke-opacity:1;stroke-miterlimit:4" transform="scale(.03906 .03958)"/><path d="M408.3 249.77c0-48.75-39.5-88.224-88.3-88.224s-88.3 39.474-88.3 88.224 39.5 88.322 88.3 88.322 88.3-39.572 88.3-88.322Zm0 0" style="fill:none;stroke-width:27.5;stroke-linecap:butt;stroke-linejoin:miter;stroke:#fc0;stroke-opacity:1;stroke-miterlimit:4" transform="scale(.03906 .03958)"/><path d="m15.809 6.535 3.308 3.352-3.308 3.355L12.5 9.887Zm0 0" style="stroke:none;fill-rule:nonzero;fill:#039;fill-opacity:1"/><path d="M6.863 9.344h2.313v1.09H6.863Zm10.121 0h3.45v1.09h-3.45ZM14.18 7.418l1.515-1.535.758.77-1.512 1.535Zm-2.215-5.496h1.074v4.242h-1.074ZM9.328 6.316a.54.54 0 0 0-.535-.543.54.54 0 0 0-.535.543c0 .301.238.543.535.543a.54.54 0 0 0 .535-.543M6.172 9.887a.54.54 0 0 0-.535-.543.54.54 0 0 0-.535.543c0 .3.238.543.535.543a.54.54 0 0 0 .535-.543M13.035 15.098c0-.301-.238-.543-.535-.543a.54.54 0 0 0-.535.543c0 .3.238.543.535.543a.54.54 0 0 0 .535-.543M13.035 16.844c0-.301-.238-.543-.535-.543a.54.54 0 0 0-.535.543.54.54 0 0 0 .535.543.54.54 0 0 0 .535-.543M16.484 9.887a.54.54 0 0 0-.535-.543.54.54 0 0 0-.535.543c0 .3.238.543.535.543a.54.54 0 0 0 .535-.543M8.137 13.52l.761-.77.758.77-.758.77Zm7.996.828.762-.77.761.77-.761.77Zm0 0" style="stroke:none;fill-rule:nonzero;fill:#fc0;fill-opacity:1"/></svg>