<svg xmlns="http://www.w3.org/2000/svg" width="25" height="px" viewBox="0 0 25 19"><path d="M0 0h25v19H0z" style="fill:#006;fill-opacity:1;stroke:none"/><path d="m18.422 8.43.203-.66-.547-.418.688-.008L19 6.69l.219.653.691.02-.55.413.195.66-.567-.394m1.059.516.406-.551-.379-.586.653.23.43-.535v.696l.64.253-.656.2-.032.691-.398-.57m-3.844.593-.027-.69-.656-.208.652-.246v-.688l.426.536.656-.223-.383.582.402.555-.664-.18m-1.546 1.621-.29-.625-.68.07.5-.488L15 8.352l.594.324.52-.465-.134.687.582.352-.675.098m-.692 2.203-.52-.442-.585.368.25-.665-.504-.457.676.028.273-.649.168.68.672.059-.57.39m.125 2.39-.645-.19-.394.574-.028-.707-.64-.22.629-.245v-.711l.418.555.64-.22-.375.595m1.152 2.007-.664.098-.136.688-.305-.633-.668.062.477-.484-.278-.652.598.34.5-.47-.11.688m1.758 1.504-.59.324.102.7-.496-.493-.61.301.286-.629-.48-.512.675.106.313-.613.132.687m2.102.356-.324.605.457.523-.68-.132-.348.593-.093-.683-.672-.156.617-.293-.066-.696.476.508m2.242-.52-.02.692.638.25-.665.2-.046.69-.391-.562-.664.172.422-.55-.367-.583.648.227m2.129-8.04.469.5.62-.292-.323.625.449.52-.664-.114-.352.613-.082-.695-.664-.14.613-.317m1.336.832.215.656.684.012-.555.426.184.664-.551-.395-.57.399.21-.664-.539-.422.688-.016m.762 1.316-.078.688.613.305-.676.144-.105.684-.34-.598-.68.113.469-.511-.317-.617.625.285m.118 1.578-.305.617.465.504-.68-.11-.328.606-.117-.684-.68-.132.61-.317-.09-.687.492.488m-.383 1.547-.574.363.148.684-.527-.453-.586.34.246-.645-.512-.48.68.058.273-.633.172.684" style="stroke:none;fill-rule:evenodd;fill:#fff;fill-opacity:1"/><path d="M0 0h12.5v9.5H0Zm0 0" style="stroke:none;fill-rule:nonzero;fill:#006;fill-opacity:1"/><path d="M1.465 0 6.23 3.582 10.977 0H12.5v1.227L7.813 4.77 12.5 8.293V9.5h-1.562L6.25 5.957 1.582 9.5H0V8.313l4.668-3.524L0 1.266V0Zm0 0" style="stroke:none;fill-rule:nonzero;fill:#fff;fill-opacity:1"/><path d="M8.281 5.563 12.5 8.707V9.5L7.207 5.563Zm-3.594.394.118.691L1.055 9.5H0ZM12.5 0v.059L7.637 3.78l.039-.87L11.523 0ZM0 0l4.668 3.484H3.496L0 .832Zm0 0" style="stroke:none;fill-rule:nonzero;fill:#c8102e;fill-opacity:1"/><path d="M4.707 0v9.5h3.125V0ZM0 3.168v3.164h12.5V3.168Zm0 0" style="stroke:none;fill-rule:nonzero;fill:#fff;fill-opacity:1"/><path d="M0 3.82V5.72h12.5V3.82ZM5.332 0v9.5h1.875V0Zm0 0" style="stroke:none;fill-rule:nonzero;fill:#c8102e;fill-opacity:1"/></svg>