<?xml version="1.0" encoding="UTF-8"?>
<svg xmlns="http://www.w3.org/2000/svg" xmlns:xlink="http://www.w3.org/1999/xlink" width="25px" height="px" viewBox="0 0 25 19" version="1.1">
<g id="surface1">
<rect x="0" y="0" width="25" height="19" style="fill:rgb(93.333334%,10.980392%,14.509805%);fill-opacity:1;stroke:none;"/>
<path style=" stroke:none;fill-rule:nonzero;fill:rgb(100%,100%,0%);fill-opacity:1;" d="M 3 7.03125 L 4.6875 1.898438 L 6.375 7.03125 L 1.875 3.894531 L 7.5 3.894531 Z M 3 7.03125 "/>
<path style=" stroke:none;fill-rule:nonzero;fill:rgb(100%,100%,0%);fill-opacity:1;" d="M 10.320312 2 L 8.582031 2.386719 L 9.742188 1.019531 L 9.628906 2.863281 L 8.664062 1.230469 Z M 10.320312 2 "/>
<path style=" stroke:none;fill-rule:nonzero;fill:rgb(100%,100%,0%);fill-opacity:1;" d="M 12.070312 4.25 L 10.320312 3.925781 L 11.914062 3.121094 L 11.105469 4.773438 L 10.839844 2.890625 Z M 12.070312 4.25 "/>
<path style=" stroke:none;fill-rule:nonzero;fill:rgb(100%,100%,0%);fill-opacity:1;" d="M 11.816406 7.40625 L 10.347656 6.390625 L 12.125 6.3125 L 10.722656 7.484375 L 11.238281 5.660156 Z M 11.816406 7.40625 "/>
<path style=" stroke:none;fill-rule:nonzero;fill:rgb(100%,100%,0%);fill-opacity:1;" d="M 9.609375 9.46875 L 8.644531 7.957031 L 10.3125 8.578125 L 8.570312 9.113281 L 9.742188 7.628906 Z M 9.609375 9.46875 "/>
</g>
</svg>
