<?xml version="1.0" encoding="UTF-8"?>
<svg xmlns="http://www.w3.org/2000/svg" xmlns:xlink="http://www.w3.org/1999/xlink" width="25px" height="px" viewBox="0 0 25 19" version="1.1">
<g id="surface1">
<path style=" stroke:none;fill-rule:evenodd;fill:rgb(100%,100%,100%);fill-opacity:1;" d="M -0.0117188 8.667969 L 31.066406 8.667969 L 31.066406 16.335938 L -0.015625 16.335938 Z M -0.0117188 8.667969 "/>
<path style=" stroke:none;fill-rule:evenodd;fill:rgb(3.137255%,9.411765%,45.09804%);fill-opacity:1;" d="M 0.0117188 0 L 31.074219 0 L 31.074219 9.546875 L 0.0117188 9.546875 Z M 0.0195312 14.359375 L 31.308594 14.359375 L 31.308594 19.050781 L 0.0195312 19.050781 Z M 0.0195312 14.359375 "/>
<path style=" stroke:none;fill-rule:evenodd;fill:rgb(87.058824%,22.352941%,16.078432%);fill-opacity:1;" d="M 0.0195312 11.257812 L 31.085938 11.257812 L 31.085938 12.734375 L 0.0195312 12.734375 Z M 0.0195312 11.257812 "/>
<path style=" stroke:none;fill-rule:evenodd;fill:rgb(100%,80.784315%,3.137255%);fill-opacity:1;" d="M 9.328125 14.855469 L 9.570312 15.613281 L 10.359375 15.613281 L 9.71875 16.085938 L 9.960938 16.847656 L 9.328125 16.371094 L 8.691406 16.84375 L 8.9375 16.082031 L 8.296875 15.609375 L 9.085938 15.609375 M 16.160156 9.316406 L 16.40625 10.078125 L 17.1875 10.078125 L 16.546875 10.546875 L 16.789062 11.3125 L 16.152344 10.839844 L 15.511719 11.3125 L 15.753906 10.546875 L 15.117188 10.078125 L 15.910156 10.078125 M 7.757812 12.476562 L 8 13.238281 L 8.789062 13.238281 L 8.15625 13.714844 L 8.402344 14.472656 L 7.761719 14.003906 L 7.121094 14.472656 L 7.363281 13.714844 L 6.726562 13.242188 L 7.515625 13.242188 M 16.160156 12.261719 L 16.40625 13.019531 L 17.1875 13.019531 L 16.546875 13.492188 L 16.789062 14.25 L 16.152344 13.78125 L 15.511719 14.253906 L 15.753906 13.492188 L 15.117188 13.019531 L 15.910156 13.019531 M 14.421875 7.003906 L 14.667969 7.761719 L 15.460938 7.761719 L 14.824219 8.234375 L 15.066406 8.996094 L 14.425781 8.523438 L 13.789062 8.996094 L 14.035156 8.234375 L 13.390625 7.761719 L 14.183594 7.761719 M 11.816406 6.078125 L 12.0625 6.84375 L 12.851562 6.84375 L 12.210938 7.3125 L 12.453125 8.074219 L 11.816406 7.605469 L 11.175781 8.074219 L 11.421875 7.3125 L 10.785156 6.84375 L 11.570312 6.84375 M 9.199219 6.949219 L 9.445312 7.714844 L 10.238281 7.714844 L 9.597656 8.183594 L 9.84375 8.945312 L 9.199219 8.472656 L 8.5625 8.945312 L 8.808594 8.183594 L 8.167969 7.714844 L 8.960938 7.714844 M 7.683594 9.320312 L 7.925781 10.082031 L 8.71875 10.082031 L 8.078125 10.550781 L 8.324219 11.316406 L 7.683594 10.84375 L 7.046875 11.316406 L 7.289062 10.550781 L 6.648438 10.082031 L 7.4375 10.082031 M 11.816406 15.640625 L 12.0625 16.40625 L 12.851562 16.40625 L 12.210938 16.875 L 12.457031 17.636719 L 11.816406 17.164062 L 11.175781 17.636719 L 11.421875 16.875 L 10.785156 16.40625 L 11.570312 16.40625 M 14.585938 14.855469 L 14.832031 15.613281 L 15.621094 15.613281 L 14.984375 16.085938 L 15.230469 16.847656 L 14.589844 16.375 L 13.949219 16.847656 L 14.195312 16.085938 L 13.554688 15.613281 L 14.34375 15.613281 "/>
</g>
</svg>
