<svg xmlns="http://www.w3.org/2000/svg" width="25" height="px" viewBox="0 0 25 19"><path d="M-.012 8.668h31.078v7.668H-.016Zm0 0" style="stroke:none;fill-rule:evenodd;fill:#fff;fill-opacity:1"/><path d="M.012 0h31.062v9.547H.012ZM.02 14.36h31.289v4.69H.019Zm0 0" style="stroke:none;fill-rule:evenodd;fill:#081873;fill-opacity:1"/><path d="M.02 11.258h31.066v1.476H.02Zm0 0" style="stroke:none;fill-rule:evenodd;fill:#de3929;fill-opacity:1"/><path d="m9.328 14.855.242.758h.79l-.641.473.242.762-.633-.477-.637.473.246-.762-.64-.473h.789m7.074-6.293.246.762h.782l-.641.469.242.765-.637-.472-.64.473.242-.766-.637-.469h.793m-8.152 2.399.242.761h.79l-.634.477.246.758-.64-.47-.64.47.241-.758-.636-.473h.789m8.644-.98.246.758h.782l-.641.472.242.758-.637-.469-.64.473.242-.762-.637-.472h.793m-1.488-6.016.246.758h.793l-.637.472.242.762-.64-.473-.637.473.246-.762-.644-.472h.793m-2.368-1.684.246.766h.79l-.641.468.242.762-.637-.469-.64.47.246-.762-.637-.47h.785M9.2 6.95l.245.766h.793l-.64.469.246.761-.645-.472-.636.472.246-.761-.641-.47h.793M7.684 9.32l.242.762h.793l-.64.469.245.765-.64-.472-.637.472.242-.765-.64-.469h.789m4.378 5.559.246.765h.79l-.641.469.246.762-.64-.473-.641.473.246-.762-.637-.469h.785m3.016-1.55.246.757h.79l-.638.473.246.762-.64-.473-.64.473.245-.762-.64-.473h.789" style="stroke:none;fill-rule:evenodd;fill:#ffce08;fill-opacity:1"/></svg>