<svg xmlns="http://www.w3.org/2000/svg" width="25" height="px" viewBox="0 0 25 19"><path d="M0 0h25v19H0z" style="fill:#0021ad;fill-opacity:1;stroke:none"/><path d="M0 0h25v19Zm0 0" style="stroke:none;fill-rule:nonzero;fill:#1c8a42;fill-opacity:1"/><path d="M14.758 9.5c0-1.262-1.012-2.29-2.258-2.29s-2.258 1.028-2.258 2.29 1.012 2.29 2.258 2.29 2.258-1.028 2.258-2.29m0 0" style="stroke:none;fill-rule:nonzero;fill:#ffc639;fill-opacity:1"/><path d="M11.121 8.473c.156.214.39.574.578.48.145 0 .223.012.242.113.496.047.985-.168 1.29-.566 0 0 .03 0 .019-.18 0-.078.11-.062.11-.039.015.04.015.067.035.07.039-.015.105-.117.156-.18a.3.3 0 0 0 .008-.097c.027-.066.093-.05.109-.015l.023.062c.07.05.196 0 .204 0 .011-.055.046-.047.046-.047.047-.011.028-.008.059.008-.027.305.059.316.05.477.005.171-.05.222-.05.289.016.078.273.082.18.152-.078.04 0 .121-.117.152-.344.176-.407.328-.407.328s-.086.165-.097.165c-.059.113-.13.05-.172.105-.02.066-.04.219 0 .293.02.105 0 .164-.028.273-.023.22-.109.258-.12.332-.04.086.007.473-.032.473-.254.008-.45-.047-.55-.066.097-.43.058-.805.058-.848-.024-.309-.453-.23-.52-.277-.054-.008-.09-.051-.105-.07-.063-.008-.086-.024-.145-.028-.03.016-.011.031-.078.05-.176.02-.25-.148-.25-.148.008-.058-.387.012-.597-.039-.09.051-.13.196-.2.211 0 .047-.117-.039-.14-.078-.008-.133.11-.191.11-.191.093-.067.148-.078.194-.121.02-.114.008-.2.059-.282.039-.066.098-.039.137-.062.043-.031.062-.223.023-.277l-.183-.168c-.055-.16.066-.27.101-.254" style="stroke:none;fill-rule:nonzero;fill:#1c8a42;fill-opacity:1"/><path d="M21.95 5.637c-.102-.407-1.016-1.293-1.708-1.856-.164-.113-.273-.043-.25.117.086.145.149.301.235.45.023.097.07.164.093.261 0 0 .008.164.024.18.21.238.242.441.242.441q.166.353.45.618c.241.152.062.632.07.89 0 .157-.114.14-.215.117-.786-.73-1.567-.73-2.258-.945-.266-.027-.274.102-.184.172.43.488.95.887 1.528 1.172l.3.191.344.29c.266.175.285.331.285.347.008.324-.164.578-.215.684-.09.343-.273.402-.273.402-1.469 1.004-2.242 1.266-4.625.953-.04-.016-.266.02 0 .117.605.207 2.098.535 3.539-.156.352-.246.578-.168.832-.316.356-.223.727-.43 1.106-.61.324-.18 1.222-.37 1.43-.547.238-.02.484-.05.5-.257.077-.051.195-.012.28-.18.188-.04.157-.106.157-.106-.047-.132-.227-.187-.352-.289-.187-.062-.312-.078-.45-.015l-.128.058s-.2-.027-.2-.043c-.445-.023-.402-1.515-.558-2.136Zm0 0" style="stroke:none;fill-rule:nonzero;fill:#ffc639;fill-opacity:1"/><path d="M22.992 8.082c-.012.04-.07.055-.129.035s-.093-.062-.082-.101c.012-.04.07-.055.13-.036.058.02.093.067.081.102" style="stroke:none;fill-rule:nonzero;fill:#1c8a42;fill-opacity:1"/><path d="m4.703 8.004-.316-.3L4.063 8l.035-.441-.434-.07.363-.247-.215-.387.418.133.16-.41.16.414.419-.125-.223.38.363.253-.433.063ZM5.836 11.664l-.348-.23-.332.246.117-.395-.34-.238.419-.012.125-.394.136.39.418-.004-.332.246.133.391ZM4.766 14.824l-.317-.304-.324.296.035-.441-.433-.07.363-.246-.215-.387.418.137.16-.414.16.414.418-.125-.222.379.363.253-.434.063ZM1.902 11.125l-.32-.3-.32.296.035-.441-.434-.07.364-.247-.215-.386.414.132.164-.41.156.414.418-.125-.219.38.36.253-.434.063ZM7.414 10.16l-.32-.305-.32.297.035-.441-.434-.07.363-.246-.215-.387.418.137.16-.415.16.415.415-.125-.219.378.36.254-.43.063Zm0 0" style="stroke:none;fill-rule:nonzero;fill:#fff;fill-opacity:1"/></svg>