<?xml version="1.0" encoding="UTF-8"?>
<svg xmlns="http://www.w3.org/2000/svg" xmlns:xlink="http://www.w3.org/1999/xlink" width="25px" height="px" viewBox="0 0 25 19" version="1.1">
<g id="surface1">
<rect x="0" y="0" width="25" height="19" style="fill:rgb(100%,100%,100%);fill-opacity:1;stroke:none;"/>
<path style=" stroke:none;fill-rule:nonzero;fill:rgb(26.274511%,31.764707%,14.509805%);fill-opacity:1;" d="M 12.023438 15.777344 L 12.015625 15.769531 L 12.011719 15.769531 L 11.960938 15.714844 L 11.8125 15.535156 L 11.621094 15.285156 L 11.597656 15.25 L 11.355469 15.175781 L 11.175781 15.09375 L 11.269531 14.984375 L 11.597656 15.125 L 11.839844 15.175781 L 12.289062 15.511719 L 12.160156 15.628906 L 12.03125 15.765625 L 12.058594 15.746094 L 12.089844 15.769531 Z M 10.359375 15.269531 C 10.140625 15.269531 9.921875 15.207031 9.734375 15.09375 C 9.734375 15.09375 9.761719 15.042969 9.824219 15 C 9.886719 14.949219 9.996094 14.898438 10.175781 14.894531 C 10.390625 14.894531 10.644531 14.964844 10.9375 15.109375 C 10.761719 15.214844 10.5625 15.269531 10.359375 15.265625 Z M 9.441406 15.066406 C 9.398438 15.066406 9.367188 15.050781 9.339844 15.027344 C 9.316406 15 9.300781 14.964844 9.296875 14.929688 C 9.285156 14.886719 9.28125 14.839844 9.285156 14.796875 L 9.335938 14.789062 C 9.414062 14.789062 9.476562 14.855469 9.503906 14.921875 C 9.519531 14.960938 9.523438 14.996094 9.511719 15.023438 C 9.5 15.046875 9.476562 15.0625 9.441406 15.0625 Z M 11.054688 14.875 C 10.511719 14.796875 10.28125 14.597656 10.183594 14.445312 C 10.082031 14.28125 10.105469 14.128906 10.105469 14.128906 C 10.105469 14.128906 10.136719 14.121094 10.183594 14.121094 C 10.332031 14.121094 10.699219 14.195312 11.054688 14.871094 Z M 9.941406 14.765625 C 9.710938 14.765625 9.535156 14.726562 9.417969 14.644531 C 9.367188 14.613281 9.328125 14.570312 9.300781 14.515625 L 9.285156 14.453125 C 9.375 14.414062 9.46875 14.394531 9.566406 14.394531 C 9.847656 14.40625 10.113281 14.53125 10.304688 14.742188 C 10.171875 14.757812 10.050781 14.765625 9.941406 14.765625 M 8.820312 14.726562 C 8.578125 14.726562 8.242188 14.644531 8.03125 14.4375 C 8.03125 14.4375 8.261719 14.375 8.515625 14.367188 L 8.5625 14.367188 C 8.792969 14.367188 8.96875 14.414062 9.085938 14.503906 C 9.125 14.535156 9.148438 14.5625 9.152344 14.589844 C 9.15625 14.617188 9.148438 14.640625 9.121094 14.65625 C 9.066406 14.699219 8.972656 14.71875 8.839844 14.722656 L 8.820312 14.722656 Z M 8.027344 14.308594 C 7.996094 14.308594 7.96875 14.292969 7.949219 14.269531 C 7.933594 14.246094 7.921875 14.21875 7.917969 14.191406 C 7.90625 14.136719 7.910156 14.078125 7.910156 14.074219 L 7.949219 14.066406 C 7.984375 14.070312 8.011719 14.082031 8.027344 14.109375 C 8.050781 14.128906 8.070312 14.15625 8.082031 14.1875 C 8.09375 14.222656 8.09375 14.25 8.082031 14.273438 C 8.082031 14.289062 8.058594 14.3125 8.03125 14.3125 Z M 9.859375 14.269531 C 9.816406 14.269531 9.785156 14.257812 9.757812 14.230469 C 9.734375 14.203125 9.71875 14.171875 9.714844 14.136719 C 9.703125 14.089844 9.699219 14.046875 9.703125 14 L 9.753906 13.992188 C 9.832031 13.992188 9.898438 14.058594 9.921875 14.128906 C 9.9375 14.167969 9.941406 14.199219 9.933594 14.226562 C 9.921875 14.253906 9.894531 14.265625 9.855469 14.265625 Z M 8.96875 14.230469 C 8.476562 14.214844 8.21875 14.070312 8.09375 13.953125 C 8.039062 13.90625 7.996094 13.847656 7.960938 13.78125 C 7.941406 13.742188 7.933594 13.714844 7.933594 13.703125 C 7.9375 13.691406 7.976562 13.683594 8.050781 13.6875 L 8.066406 13.6875 C 8.230469 13.6875 8.570312 13.757812 8.964844 14.230469 Z M 9.5 14.183594 C 9.21875 14.152344 8.957031 14.019531 8.761719 13.816406 C 8.6875 13.734375 8.632812 13.640625 8.601562 13.539062 C 8.601562 13.539062 8.648438 13.527344 8.71875 13.523438 L 8.757812 13.523438 C 8.953125 13.527344 9.316406 13.617188 9.5 14.183594 M 7.46875 13.984375 C 7.34375 13.984375 7.21875 13.972656 7.097656 13.945312 C 6.890625 13.890625 6.800781 13.8125 6.761719 13.75 C 6.746094 13.726562 6.734375 13.699219 6.730469 13.671875 L 6.730469 13.640625 C 6.730469 13.640625 6.867188 13.601562 7.058594 13.597656 C 7.15625 13.59375 7.253906 13.601562 7.347656 13.621094 C 7.546875 13.664062 7.722656 13.777344 7.847656 13.941406 C 7.847656 13.941406 7.691406 13.988281 7.46875 13.988281 Z M 8.386719 13.652344 C 8.351562 13.65625 8.3125 13.640625 8.289062 13.613281 C 8.265625 13.585938 8.25 13.550781 8.246094 13.519531 C 8.230469 13.453125 8.234375 13.390625 8.234375 13.382812 L 8.28125 13.371094 L 8.285156 13.371094 C 8.363281 13.371094 8.425781 13.441406 8.453125 13.511719 C 8.46875 13.550781 8.472656 13.582031 8.460938 13.605469 C 8.449219 13.632812 8.421875 13.644531 8.386719 13.648438 Z M 7.699219 13.554688 C 7.566406 13.515625 7.441406 13.460938 7.324219 13.386719 C 7.152344 13.28125 6.9375 13.089844 6.914062 12.792969 L 6.953125 12.789062 L 6.964844 12.789062 C 7.015625 12.789062 7.121094 12.800781 7.25 12.898438 C 7.414062 13.03125 7.5625 13.246094 7.699219 13.554688 M 8.148438 13.539062 C 8.039062 13.488281 7.941406 13.421875 7.851562 13.34375 C 7.625 13.144531 7.445312 12.890625 7.332031 12.605469 C 7.332031 12.605469 7.367188 12.585938 7.421875 12.582031 L 7.445312 12.582031 C 7.523438 12.582031 7.636719 12.621094 7.761719 12.757812 C 7.910156 12.917969 8.039062 13.175781 8.152344 13.539062 Z M 6.980469 13.5 C 6.828125 13.5 6.777344 13.421875 6.761719 13.382812 C 6.746094 13.34375 6.742188 13.304688 6.746094 13.265625 L 6.824219 13.257812 C 6.921875 13.253906 7.015625 13.296875 7.078125 13.375 C 7.085938 13.390625 7.109375 13.429688 7.089844 13.464844 C 7.074219 13.492188 7.039062 13.503906 6.980469 13.503906 Z M 6.648438 13.074219 C 6.53125 13.074219 6.414062 13.066406 6.296875 13.046875 C 6.164062 13.023438 6.089844 12.90625 6.046875 12.8125 C 6.007812 12.714844 5.992188 12.613281 5.992188 12.613281 C 6.40625 12.628906 6.605469 12.75 6.695312 12.851562 C 6.753906 12.910156 6.789062 12.988281 6.796875 13.070312 C 6.796875 13.070312 6.734375 13.078125 6.648438 13.078125 Z M 7.078125 12.640625 L 6.984375 12.503906 C 6.933594 12.425781 6.890625 12.347656 6.890625 12.28125 C 6.890625 12.214844 6.875 12.085938 6.867188 12.003906 L 6.84375 11.828125 C 6.855469 11.828125 7.101562 11.921875 7.101562 12.160156 C 7.101562 12.398438 7.078125 12.636719 7.078125 12.636719 Z M 6.757812 12.613281 L 6.75 12.613281 C 6.480469 12.535156 6.238281 12.386719 6.039062 12.1875 C 5.972656 12.109375 5.929688 11.984375 5.917969 11.816406 C 5.910156 11.695312 5.917969 11.597656 5.917969 11.585938 L 5.960938 11.582031 C 6.011719 11.582031 6.078125 11.609375 6.15625 11.660156 C 6.230469 11.714844 6.296875 11.773438 6.359375 11.835938 C 6.484375 11.960938 6.582031 12.089844 6.582031 12.089844 C 6.59375 12.105469 6.660156 12.234375 6.71875 12.363281 C 6.746094 12.421875 6.765625 12.480469 6.78125 12.542969 C 6.785156 12.566406 6.785156 12.585938 6.78125 12.597656 L 6.769531 12.613281 L 6.753906 12.613281 Z M 6.757812 12.613281 "/>
<path style=" stroke:none;fill-rule:nonzero;fill:rgb(26.274511%,31.764707%,14.509805%);fill-opacity:1;" d="M 11.167969 15.777344 L 11.175781 15.769531 L 11.179688 15.769531 L 11.230469 15.714844 L 11.378906 15.535156 L 11.570312 15.285156 L 11.59375 15.25 L 11.835938 15.175781 L 12.015625 15.09375 L 11.921875 14.984375 L 11.59375 15.125 L 11.351562 15.175781 L 10.902344 15.511719 L 11.03125 15.628906 L 11.160156 15.765625 L 11.132812 15.746094 L 11.101562 15.769531 Z M 12.832031 15.269531 C 13.050781 15.269531 13.269531 15.207031 13.457031 15.09375 C 13.457031 15.09375 13.429688 15.042969 13.367188 15 C 13.304688 14.949219 13.195312 14.898438 13.015625 14.894531 C 12.800781 14.894531 12.546875 14.964844 12.253906 15.109375 C 12.429688 15.214844 12.628906 15.269531 12.832031 15.265625 Z M 13.75 15.066406 C 13.792969 15.066406 13.824219 15.050781 13.851562 15.027344 C 13.875 15 13.890625 14.964844 13.894531 14.929688 C 13.90625 14.886719 13.910156 14.839844 13.90625 14.796875 L 13.855469 14.789062 C 13.777344 14.789062 13.714844 14.855469 13.6875 14.921875 C 13.671875 14.960938 13.667969 14.996094 13.679688 15.023438 C 13.691406 15.046875 13.714844 15.0625 13.75 15.0625 Z M 12.136719 14.875 C 12.679688 14.796875 12.910156 14.597656 13.007812 14.445312 C 13.109375 14.28125 13.085938 14.128906 13.085938 14.128906 C 13.085938 14.128906 13.054688 14.121094 13.007812 14.121094 C 12.859375 14.121094 12.492188 14.195312 12.136719 14.871094 Z M 13.25 14.765625 C 13.480469 14.765625 13.65625 14.726562 13.773438 14.644531 C 13.824219 14.613281 13.863281 14.570312 13.890625 14.515625 L 13.90625 14.453125 C 13.816406 14.414062 13.722656 14.394531 13.625 14.394531 C 13.34375 14.40625 13.078125 14.53125 12.886719 14.742188 C 13.019531 14.757812 13.140625 14.765625 13.25 14.765625 M 14.371094 14.726562 C 14.613281 14.726562 14.949219 14.644531 15.160156 14.4375 C 15.160156 14.4375 14.929688 14.375 14.675781 14.367188 L 14.628906 14.367188 C 14.398438 14.367188 14.222656 14.414062 14.105469 14.503906 C 14.066406 14.535156 14.042969 14.5625 14.039062 14.589844 C 14.035156 14.617188 14.042969 14.640625 14.070312 14.65625 C 14.125 14.699219 14.21875 14.71875 14.351562 14.722656 L 14.371094 14.722656 Z M 15.164062 14.308594 C 15.195312 14.308594 15.222656 14.292969 15.242188 14.269531 C 15.257812 14.246094 15.269531 14.21875 15.273438 14.191406 C 15.285156 14.136719 15.28125 14.078125 15.28125 14.074219 L 15.242188 14.066406 C 15.207031 14.070312 15.179688 14.082031 15.164062 14.109375 C 15.140625 14.128906 15.121094 14.15625 15.109375 14.1875 C 15.097656 14.222656 15.097656 14.25 15.109375 14.273438 C 15.109375 14.289062 15.132812 14.3125 15.160156 14.3125 Z M 13.332031 14.269531 C 13.375 14.269531 13.40625 14.257812 13.433594 14.230469 C 13.457031 14.203125 13.472656 14.171875 13.476562 14.136719 C 13.488281 14.089844 13.492188 14.046875 13.488281 14 L 13.4375 13.992188 C 13.359375 13.992188 13.292969 14.058594 13.269531 14.128906 C 13.253906 14.167969 13.25 14.199219 13.257812 14.226562 C 13.269531 14.253906 13.296875 14.265625 13.335938 14.265625 Z M 14.222656 14.230469 C 14.714844 14.214844 14.972656 14.070312 15.097656 13.953125 C 15.152344 13.90625 15.195312 13.847656 15.230469 13.78125 C 15.25 13.742188 15.257812 13.714844 15.257812 13.703125 C 15.253906 13.691406 15.214844 13.683594 15.140625 13.6875 L 15.125 13.6875 C 14.960938 13.6875 14.621094 13.757812 14.226562 14.230469 Z M 13.691406 14.183594 C 13.972656 14.152344 14.234375 14.019531 14.429688 13.816406 C 14.503906 13.734375 14.558594 13.640625 14.589844 13.539062 C 14.589844 13.539062 14.542969 13.527344 14.472656 13.523438 L 14.433594 13.523438 C 14.238281 13.527344 13.875 13.617188 13.691406 14.183594 M 15.722656 13.984375 C 15.847656 13.984375 15.972656 13.972656 16.09375 13.945312 C 16.300781 13.890625 16.390625 13.8125 16.429688 13.75 C 16.445312 13.726562 16.457031 13.699219 16.460938 13.671875 L 16.460938 13.640625 C 16.460938 13.640625 16.324219 13.601562 16.132812 13.597656 C 16.035156 13.59375 15.9375 13.601562 15.84375 13.621094 C 15.644531 13.664062 15.46875 13.777344 15.34375 13.941406 C 15.34375 13.941406 15.5 13.988281 15.722656 13.988281 Z M 14.804688 13.652344 C 14.839844 13.65625 14.878906 13.640625 14.902344 13.613281 C 14.925781 13.585938 14.941406 13.550781 14.945312 13.519531 C 14.960938 13.453125 14.957031 13.390625 14.957031 13.382812 L 14.910156 13.371094 L 14.90625 13.371094 C 14.828125 13.371094 14.765625 13.441406 14.738281 13.511719 C 14.722656 13.550781 14.71875 13.582031 14.730469 13.605469 C 14.742188 13.632812 14.769531 13.644531 14.804688 13.648438 Z M 15.492188 13.554688 C 15.625 13.515625 15.75 13.460938 15.867188 13.386719 C 16.039062 13.28125 16.253906 13.089844 16.277344 12.792969 L 16.238281 12.789062 L 16.226562 12.789062 C 16.175781 12.789062 16.070312 12.800781 15.941406 12.898438 C 15.777344 13.03125 15.628906 13.246094 15.492188 13.554688 M 15.042969 13.539062 C 15.152344 13.488281 15.25 13.421875 15.339844 13.34375 C 15.566406 13.144531 15.746094 12.890625 15.859375 12.605469 C 15.859375 12.605469 15.824219 12.585938 15.769531 12.582031 L 15.746094 12.582031 C 15.667969 12.582031 15.554688 12.621094 15.429688 12.757812 C 15.28125 12.917969 15.152344 13.175781 15.039062 13.539062 Z M 16.210938 13.5 C 16.363281 13.5 16.414062 13.421875 16.429688 13.382812 C 16.445312 13.34375 16.449219 13.304688 16.445312 13.265625 L 16.367188 13.257812 C 16.269531 13.253906 16.175781 13.296875 16.113281 13.375 C 16.105469 13.390625 16.082031 13.429688 16.101562 13.464844 C 16.117188 13.492188 16.152344 13.503906 16.210938 13.503906 Z M 16.542969 13.074219 C 16.660156 13.074219 16.777344 13.066406 16.894531 13.046875 C 17.027344 13.023438 17.101562 12.90625 17.144531 12.8125 C 17.183594 12.714844 17.199219 12.613281 17.199219 12.613281 C 16.785156 12.628906 16.585938 12.75 16.496094 12.851562 C 16.4375 12.910156 16.402344 12.988281 16.394531 13.070312 C 16.394531 13.070312 16.457031 13.078125 16.542969 13.078125 Z M 16.113281 12.640625 L 16.207031 12.503906 C 16.257812 12.425781 16.300781 12.347656 16.300781 12.28125 C 16.300781 12.214844 16.316406 12.085938 16.324219 12.003906 L 16.347656 11.828125 C 16.335938 11.828125 16.089844 11.921875 16.089844 12.160156 C 16.089844 12.398438 16.113281 12.636719 16.113281 12.636719 Z M 16.433594 12.613281 L 16.441406 12.613281 C 16.710938 12.535156 16.953125 12.386719 17.152344 12.1875 C 17.21875 12.109375 17.261719 11.984375 17.273438 11.816406 C 17.28125 11.695312 17.273438 11.597656 17.273438 11.585938 L 17.230469 11.582031 C 17.179688 11.582031 17.113281 11.609375 17.035156 11.660156 C 16.960938 11.714844 16.894531 11.773438 16.832031 11.835938 C 16.707031 11.960938 16.609375 12.089844 16.609375 12.089844 C 16.597656 12.105469 16.53125 12.234375 16.472656 12.363281 C 16.445312 12.421875 16.425781 12.480469 16.410156 12.542969 C 16.40625 12.566406 16.40625 12.585938 16.410156 12.597656 L 16.421875 12.613281 L 16.4375 12.613281 Z M 16.433594 12.613281 "/>
<path style=" stroke:none;fill-rule:nonzero;fill:rgb(83.137256%,46.27451%,0%);fill-opacity:1;" d="M 20.273438 3.023438 L 20.203125 3.050781 L 20.171875 3.0625 L 20.085938 3.058594 L 20 3.097656 L 19.851562 3.203125 L 19.847656 3.207031 L 19.789062 3.222656 L 19.738281 3.199219 L 19.710938 3.214844 L 19.699219 3.273438 L 19.671875 3.316406 L 19.636719 3.339844 L 19.519531 3.351562 L 19.421875 3.40625 L 19.289062 3.367188 L 19.230469 3.394531 L 19.101562 3.515625 L 19.035156 3.542969 L 19.015625 3.542969 L 18.925781 3.539062 L 18.890625 3.550781 L 18.835938 3.601562 L 18.734375 3.609375 L 18.699219 3.632812 L 18.648438 3.738281 L 18.59375 3.800781 L 18.5625 3.804688 L 18.53125 3.792969 L 18.503906 3.796875 L 18.492188 3.863281 L 18.46875 3.890625 L 18.398438 3.914062 L 18.34375 3.960938 L 18.292969 3.984375 L 18.214844 3.984375 L 18.148438 4.027344 L 18.027344 4.035156 L 17.976562 4.082031 L 17.964844 4.09375 L 17.941406 4.105469 L 17.902344 4.128906 L 17.894531 4.136719 L 17.847656 4.128906 L 17.792969 4.148438 L 17.769531 4.117188 L 17.730469 4.136719 L 17.683594 4.140625 L 17.621094 4.113281 L 17.570312 4.089844 L 17.535156 4.097656 L 17.523438 4.15625 L 17.523438 4.164062 L 17.484375 4.210938 L 17.417969 4.253906 L 17.410156 4.265625 L 17.332031 4.371094 L 17.183594 4.527344 L 17.058594 4.589844 L 16.929688 4.632812 L 16.839844 4.707031 L 16.605469 4.824219 L 16.226562 5.015625 L 16.148438 5.039062 L 16.039062 5.054688 L 15.84375 5.128906 L 15.671875 5.179688 L 15.660156 5.183594 L 15.628906 5.199219 L 15.382812 5.273438 L 15.269531 5.257812 L 15.203125 5.285156 L 15.027344 5.265625 L 14.90625 5.265625 L 14.828125 5.28125 L 14.683594 5.351562 L 14.4375 5.46875 L 14.359375 5.550781 L 14.234375 5.613281 L 14.085938 5.660156 L 14.085938 5.597656 L 14.035156 5.613281 L 13.996094 5.625 L 13.878906 5.640625 L 13.8125 5.640625 L 13.769531 5.628906 L 13.761719 5.628906 L 13.519531 5.710938 L 13.246094 5.738281 L 13.109375 5.78125 L 13.007812 5.78125 L 12.945312 5.804688 L 12.820312 5.820312 L 12.773438 5.808594 L 12.765625 5.804688 L 12.398438 5.820312 L 12.230469 5.800781 L 12.152344 5.820312 L 12.015625 5.769531 L 11.820312 5.746094 L 11.773438 5.734375 L 11.671875 5.703125 L 11.625 5.730469 L 11.585938 5.734375 L 11.507812 5.703125 L 11.476562 5.703125 L 11.40625 5.726562 L 11.367188 5.71875 L 11.328125 5.6875 L 11.246094 5.675781 L 11.191406 5.632812 L 10.898438 5.671875 L 10.820312 5.648438 L 10.550781 5.570312 L 10.511719 5.570312 L 10.457031 5.609375 L 10.378906 5.640625 L 10.304688 5.65625 L 10.210938 5.660156 L 10.101562 5.632812 L 9.992188 5.578125 L 9.949219 5.566406 L 9.855469 5.578125 L 9.828125 5.578125 L 9.65625 5.484375 L 9.4375 5.347656 L 9.289062 5.273438 L 9.230469 5.265625 L 9.222656 5.292969 L 9.25 5.378906 L 9.261719 5.46875 L 9.261719 5.550781 L 9.257812 5.601562 L 9.269531 5.644531 L 9.324219 5.707031 L 9.347656 5.765625 L 9.363281 5.933594 L 9.363281 6.105469 L 9.335938 6.371094 L 9.328125 6.414062 L 9.296875 6.554688 L 9.269531 6.6875 L 9.15625 7.03125 L 9.128906 7.070312 L 9.050781 7.121094 L 8.882812 7.238281 L 8.757812 7.3125 L 8.71875 7.328125 L 8.617188 7.335938 L 8.554688 7.335938 L 8.476562 7.292969 L 8.398438 7.269531 L 8.296875 7.195312 L 8.1875 7.171875 L 8.0625 7.101562 L 8.03125 7.0625 L 7.964844 7.054688 L 7.871094 7.027344 L 7.835938 7.015625 L 7.8125 7.011719 L 7.695312 7.007812 L 7.582031 6.953125 L 7.523438 6.9375 L 7.445312 6.9375 L 7.363281 6.980469 L 7.320312 6.996094 L 7.265625 6.972656 L 7.226562 6.972656 L 7.1875 7.042969 L 7.179688 7.054688 L 7.148438 7.070312 L 7.082031 7.070312 L 7.050781 7.082031 L 7.007812 7.101562 L 6.949219 7.125 L 6.9375 7.125 L 6.917969 7.132812 L 6.894531 7.132812 L 6.824219 7.097656 L 6.785156 7.089844 L 6.765625 7.101562 L 6.761719 7.175781 L 6.742188 7.21875 L 6.679688 7.277344 L 6.617188 7.332031 L 6.578125 7.394531 L 6.460938 7.660156 L 6.386719 7.765625 L 6.367188 7.792969 L 6.289062 7.878906 L 6.222656 7.929688 L 6.070312 8.046875 L 5.925781 8.105469 L 5.800781 8.128906 L 5.738281 8.128906 L 5.621094 8.113281 L 5.519531 8.082031 L 5.402344 8.011719 L 5.28125 7.910156 L 5.097656 7.730469 L 5.074219 7.714844 L 5.066406 7.710938 L 5.011719 7.671875 L 4.96875 7.671875 L 4.953125 7.703125 L 4.941406 7.742188 L 4.933594 7.777344 L 4.914062 7.976562 L 4.914062 7.988281 L 4.925781 8.070312 L 5.066406 8.269531 L 5.105469 8.371094 L 5.113281 8.382812 L 5.140625 8.429688 L 5.164062 8.472656 L 5.214844 8.613281 L 5.179688 8.691406 L 5.195312 8.746094 L 5.15625 8.78125 L 5.148438 8.828125 L 5.269531 8.984375 L 5.296875 9.050781 L 5.269531 9.148438 L 5.21875 9.203125 L 5.207031 9.214844 L 5.214844 9.253906 L 5.269531 9.308594 L 5.367188 9.398438 L 5.417969 9.523438 L 5.457031 9.5625 L 5.503906 9.550781 L 5.527344 9.570312 L 5.566406 9.570312 L 5.605469 9.609375 L 5.628906 9.617188 L 5.667969 9.636719 L 5.699219 9.679688 L 5.703125 9.804688 L 5.761719 9.957031 L 5.761719 10.054688 L 5.800781 10.113281 L 5.808594 10.160156 L 5.789062 10.292969 L 5.835938 10.332031 L 5.882812 10.324219 L 5.914062 10.328125 L 5.964844 10.371094 L 6.027344 10.464844 L 6.089844 10.457031 L 6.128906 10.472656 L 6.3125 10.644531 L 6.351562 10.667969 L 6.386719 10.683594 L 6.425781 10.722656 L 6.480469 10.683594 L 6.488281 10.683594 L 6.550781 10.675781 L 6.578125 10.695312 L 6.632812 10.730469 L 6.699219 10.730469 L 6.855469 10.777344 L 6.917969 10.792969 L 7.050781 10.878906 L 7.109375 10.914062 L 7.140625 10.941406 L 7.1875 10.980469 L 7.273438 11.019531 L 7.390625 11.042969 L 7.425781 11.054688 L 7.589844 11.121094 L 7.679688 11.144531 L 7.757812 11.175781 L 7.820312 11.195312 L 7.867188 11.195312 L 7.929688 11.144531 L 7.988281 11.144531 L 8.039062 11.152344 L 8.089844 11.144531 L 8.167969 11.09375 L 8.179688 11.070312 L 8.234375 11.046875 L 8.421875 11.023438 L 8.476562 11.039062 L 8.617188 10.980469 L 8.710938 11.003906 L 8.789062 10.976562 L 8.972656 11.015625 L 9.019531 11.050781 L 9.074219 11.109375 L 9.140625 11.109375 L 9.113281 11.15625 L 9.191406 11.242188 L 9.265625 11.347656 L 9.269531 11.363281 L 9.320312 11.519531 L 9.359375 11.574219 L 9.386719 11.648438 L 9.386719 11.695312 L 9.347656 11.734375 L 9.339844 11.75 L 9.339844 11.757812 L 9.347656 11.777344 L 9.363281 11.769531 L 9.390625 11.753906 L 9.429688 11.746094 L 9.492188 11.753906 L 9.535156 11.757812 L 9.601562 11.722656 L 9.648438 11.699219 L 9.71875 11.734375 L 9.796875 11.734375 L 9.832031 11.746094 L 9.925781 11.789062 L 9.972656 11.792969 L 9.988281 11.78125 L 10 11.757812 L 9.996094 11.722656 L 9.957031 11.679688 L 9.878906 11.585938 L 9.847656 11.539062 L 9.824219 11.472656 L 9.816406 11.382812 L 9.808594 11.324219 L 9.820312 11.246094 L 9.839844 11.21875 L 9.859375 11.140625 L 9.90625 11.078125 L 10.023438 11 L 10.148438 10.890625 L 10.246094 10.820312 L 10.347656 10.777344 L 10.347656 10.765625 L 10.363281 10.769531 L 10.621094 10.679688 L 10.738281 10.660156 L 11.519531 10.714844 L 11.546875 10.707031 L 11.574219 10.632812 L 11.585938 10.621094 L 11.597656 10.613281 L 11.683594 10.574219 L 11.722656 10.566406 L 11.878906 10.605469 L 11.953125 10.566406 L 12.003906 10.566406 L 12.109375 10.503906 L 12.175781 10.503906 L 12.203125 10.496094 L 12.332031 10.402344 L 12.453125 10.367188 L 12.484375 10.351562 L 12.496094 10.34375 L 12.625 10.277344 L 12.703125 10.210938 L 12.773438 10.171875 L 12.851562 10.15625 L 13.046875 10.140625 L 13.089844 10.074219 L 13.175781 10.0625 L 13.226562 10.003906 L 13.285156 9.980469 L 13.328125 9.914062 L 13.367188 9.863281 L 13.414062 9.835938 L 13.574219 9.824219 L 13.761719 9.847656 L 13.789062 9.832031 L 13.828125 9.679688 L 13.875 9.652344 L 13.992188 9.472656 L 13.992188 9.410156 L 13.996094 9.355469 L 14.015625 9.273438 L 14.003906 9.140625 L 14.019531 8.996094 L 14.09375 8.820312 L 14.160156 8.746094 L 14.265625 8.671875 L 14.320312 8.648438 L 14.398438 8.636719 L 14.40625 8.636719 L 14.425781 8.628906 L 14.785156 8.628906 L 14.875 8.625 L 15.097656 8.664062 L 15.113281 8.664062 L 15.1875 8.691406 L 15.273438 8.761719 L 15.367188 8.851562 L 15.382812 8.867188 L 15.441406 8.894531 L 15.460938 8.902344 L 15.507812 8.894531 L 15.578125 8.855469 L 15.632812 8.816406 L 15.703125 8.777344 L 15.703125 8.769531 L 15.746094 8.707031 L 15.761719 8.679688 L 15.902344 8.625 L 16.066406 8.617188 L 16.085938 8.605469 L 16.09375 8.605469 L 16.136719 8.550781 L 16.175781 8.550781 L 16.277344 8.589844 L 16.34375 8.574219 L 16.398438 8.59375 L 16.441406 8.589844 L 16.519531 8.578125 L 16.609375 8.640625 L 16.660156 8.648438 L 16.835938 8.75 L 16.851562 8.75 L 16.859375 8.753906 L 16.878906 8.746094 L 16.910156 8.738281 L 16.914062 8.738281 L 16.917969 8.742188 L 16.941406 8.773438 L 16.96875 8.777344 L 17 8.734375 L 16.984375 8.703125 L 16.917969 8.691406 L 16.863281 8.59375 L 16.917969 8.535156 L 16.832031 8.429688 L 16.816406 8.410156 L 16.816406 8.40625 L 16.785156 8.359375 L 16.636719 8.128906 L 16.441406 7.972656 L 16.375 7.921875 L 16.351562 7.902344 L 16.246094 7.792969 L 16.171875 7.695312 L 16.164062 7.675781 L 16.148438 7.640625 L 16.105469 7.542969 L 16.027344 7.484375 L 15.964844 7.414062 L 15.832031 7.230469 L 15.8125 7.203125 L 15.78125 7.183594 L 15.714844 7.183594 L 15.710938 7.175781 L 15.707031 7.175781 L 15.707031 7.171875 L 15.738281 7.140625 L 15.777344 7.132812 L 15.789062 7.097656 L 15.722656 6.902344 L 15.722656 6.894531 L 15.71875 6.835938 L 15.769531 6.554688 L 15.777344 6.519531 L 15.871094 6.332031 L 15.925781 6.285156 L 15.988281 6.164062 L 16.042969 6.082031 L 16.09375 6.03125 L 16.101562 6.027344 L 16.191406 5.972656 L 16.269531 5.960938 L 16.34375 5.949219 L 16.472656 5.988281 L 16.589844 5.988281 L 16.671875 5.976562 L 16.761719 5.949219 L 16.804688 5.921875 L 16.828125 5.890625 L 16.875 5.730469 L 16.890625 5.679688 L 16.917969 5.625 L 17.085938 5.429688 L 17.210938 5.3125 L 17.492188 5.105469 L 17.628906 5.023438 L 17.699219 4.980469 L 18.328125 4.695312 L 18.492188 4.527344 L 18.578125 4.441406 L 18.726562 4.339844 L 18.902344 4.261719 L 19.058594 4.144531 L 19.089844 4.101562 L 19.128906 3.960938 L 19.167969 3.953125 L 19.195312 3.886719 L 19.207031 3.867188 L 19.328125 3.78125 L 19.34375 3.773438 L 19.824219 3.527344 L 19.894531 3.539062 L 19.933594 3.480469 L 20.070312 3.457031 L 20.097656 3.457031 L 20.132812 3.4375 L 20.160156 3.382812 L 20.160156 3.371094 L 20.164062 3.238281 L 20.195312 3.203125 L 20.210938 3.113281 L 20.226562 3.089844 L 20.242188 3.070312 L 20.28125 3.042969 Z M 20.273438 3.023438 "/>
</g>
</svg>
