<svg xmlns="http://www.w3.org/2000/svg" width="25" height="px" viewBox="0 0 25 19"><path d="M0 0h25v19H0z" style="fill:#fff;fill-opacity:1;stroke:none"/><path d="m12.023 15.777-.007-.007h-.004l-.051-.055-.149-.18-.19-.25-.024-.035-.243-.074-.18-.082.095-.11.328.141.242.05.45.337-.13.117-.129.137.028-.02.03.024Zm-1.664-.507c-.218 0-.437-.063-.625-.176 0 0 .028-.051.09-.094.063-.05.172-.102.352-.105q.323-.001.761.214c-.175.106-.374.16-.578.157Zm-.918-.204a.15.15 0 0 1-.101-.039.2.2 0 0 1-.043-.097c-.012-.043-.016-.09-.012-.133l.05-.008c.08 0 .142.066.169.133q.025.06.008.101c-.012.024-.035.04-.07.04Zm1.614-.191c-.543-.078-.774-.277-.871-.43-.102-.164-.079-.316-.079-.316s.032-.008.079-.008c.148 0 .515.074.87.75Zm-1.114-.11q-.346.001-.523-.12a.3.3 0 0 1-.117-.13l-.016-.062a.7.7 0 0 1 .281-.058c.282.011.547.136.739.347a3 3 0 0 1-.364.024m-1.12-.04c-.243 0-.579-.081-.79-.289 0 0 .23-.062.485-.07h.046q.348.001.524.137.06.046.066.086.008.041-.03.066-.084.063-.282.067h-.02Zm-.794-.417a.1.1 0 0 1-.078-.04.2.2 0 0 1-.031-.078c-.012-.054-.008-.113-.008-.117l.04-.008q.053.004.077.043.036.03.055.079.018.052 0 .085c0 .016-.023.04-.05.04Zm1.832-.04a.13.13 0 0 1-.101-.039.17.17 0 0 1-.043-.093c-.012-.047-.016-.09-.012-.137l.05-.008c.079 0 .145.067.169.137q.023.057.012.098-.02.04-.079.039Zm-.89-.039c-.492-.015-.75-.16-.875-.277a.6.6 0 0 1-.133-.172.2.2 0 0 1-.027-.078c.003-.012.043-.02.117-.015h.015c.164 0 .504.07.899.542Zm.531-.046a1.2 1.2 0 0 1-.738-.368.7.7 0 0 1-.16-.277s.046-.012.117-.016h.039c.195.004.558.094.742.66m-2.031-.199q-.188.002-.371-.039c-.207-.054-.297-.133-.336-.195a.2.2 0 0 1-.032-.078v-.031s.137-.04.329-.043q.147-.006.289.023c.199.043.375.156.5.32 0 0-.157.047-.38.047Zm.918-.332a.12.12 0 0 1-.098-.039.2.2 0 0 1-.043-.093c-.016-.067-.012-.13-.012-.137l.047-.012h.004c.078 0 .14.07.168.14q.025.06.008.094c-.012.028-.04.04-.074.043Zm-.688-.097a1.5 1.5 0 0 1-.375-.168c-.172-.106-.386-.297-.41-.594l.04-.004h.01c.052 0 .157.012.286.11.164.132.313.347.45.656m.448-.016a1.3 1.3 0 0 1-.296-.195 1.94 1.94 0 0 1-.52-.739s.035-.02.09-.023h.023c.078 0 .192.04.317.176q.221.238.39.781ZM6.98 13.5c-.152 0-.203-.078-.218-.117a.24.24 0 0 1-.016-.117l.078-.008a.31.31 0 0 1 .254.117c.008.016.031.055.012.09q-.022.04-.11.039Zm-.332-.426q-.176 0-.351-.027c-.133-.024-.207-.14-.25-.235-.04-.097-.055-.199-.055-.199.414.016.613.137.703.239a.36.36 0 0 1 .102.218s-.063.008-.149.008Zm.43-.433-.094-.137c-.05-.078-.093-.156-.093-.223 0-.066-.016-.195-.024-.277l-.023-.176c.011 0 .258.094.258.332s-.024.477-.024.477Zm-.32-.028H6.75a1.66 1.66 0 0 1-.71-.425q-.102-.12-.122-.372c-.008-.12 0-.218 0-.23l.043-.004q.077 0 .195.078.11.082.203.176c.125.125.223.254.223.254.012.015.078.144.137.273a1 1 0 0 1 .062.18.1.1 0 0 1 0 .055l-.011.015h-.016Zm0 0" style="stroke:none;fill-rule:nonzero;fill:#435125;fill-opacity:1"/><path d="m11.168 15.777.008-.007h.004l.05-.055.149-.18.191-.25.024-.035.242-.074.18-.082-.094-.11-.328.141-.242.05-.45.337.13.117.128.137-.027-.02-.031.024Zm1.664-.507c.219 0 .438-.063.625-.176 0 0-.027-.051-.09-.094-.062-.05-.172-.102-.351-.105q-.323-.001-.762.214c.176.106.375.16.578.157Zm.918-.204a.15.15 0 0 0 .102-.039.2.2 0 0 0 .043-.097c.011-.043.015-.09.011-.133l-.05-.008c-.079 0-.141.066-.168.133q-.025.06-.008.101c.011.024.035.04.07.04Zm-1.613-.191c.543-.078.773-.277.87-.43.102-.164.079-.316.079-.316s-.031-.008-.078-.008c-.149 0-.516.074-.871.75Zm1.113-.11q.346.001.523-.12a.3.3 0 0 0 .118-.13l.015-.062a.7.7 0 0 0-.281-.058 1.06 1.06 0 0 0-.738.347q.2.024.363.024m1.121-.04c.242 0 .578-.081.79-.289 0 0-.231-.062-.485-.07h-.047q-.346.001-.524.137-.06.046-.066.086-.008.041.031.066.082.063.282.067h.02Zm.793-.417a.1.1 0 0 0 .078-.04.2.2 0 0 0 .031-.078c.012-.054.008-.113.008-.117l-.039-.008q-.053.004-.078.043a.2.2 0 0 0-.055.079q-.017.052 0 .085c0 .016.024.04.051.04Zm-1.832-.04a.13.13 0 0 0 .102-.039.17.17 0 0 0 .043-.093c.011-.047.015-.09.011-.137l-.05-.008c-.079 0-.145.067-.168.137q-.024.057-.012.098.019.04.078.039Zm.89-.039c.493-.015.75-.16.876-.277a.6.6 0 0 0 .132-.172.2.2 0 0 0 .028-.078c-.004-.012-.043-.02-.117-.015h-.016c-.164 0-.504.07-.898.542Zm-.53-.046c.28-.032.542-.164.738-.368a.7.7 0 0 0 .16-.277s-.047-.012-.117-.016h-.04c-.195.004-.558.094-.742.66m2.032-.199q.189.002.37-.039c.208-.054.298-.133.337-.195a.2.2 0 0 0 .03-.078v-.031s-.136-.04-.327-.043a1.2 1.2 0 0 0-.29.023.85.85 0 0 0-.5.32s.157.047.38.047Zm-.918-.332a.12.12 0 0 0 .097-.039.2.2 0 0 0 .043-.093c.016-.067.012-.13.012-.137l-.047-.012h-.004c-.078 0-.14.07-.168.14q-.024.06-.008.094c.012.028.04.04.075.043Zm.687-.097a1.5 1.5 0 0 0 .375-.168c.172-.106.387-.297.41-.594l-.039-.004h-.011a.47.47 0 0 0-.286.11c-.164.132-.312.347-.449.656m-.449-.016q.163-.077.297-.195c.226-.2.406-.453.52-.739 0 0-.036-.02-.09-.023h-.024c-.078 0-.191.04-.316.176q-.223.238-.39.781Zm1.168-.039c.152 0 .203-.078.219-.117q.023-.06.015-.117l-.078-.008a.31.31 0 0 0-.254.117c-.008.016-.031.055-.011.09q.022.04.109.039Zm.332-.426q.175 0 .352-.027c.132-.024.207-.14.25-.235.039-.097.054-.199.054-.199-.414.016-.613.137-.703.239a.36.36 0 0 0-.101.218s.062.008.148.008Zm-.43-.433.094-.137c.05-.078.094-.156.094-.223 0-.066.015-.195.023-.277l.024-.176c-.012 0-.258.094-.258.332s.023.477.023.477Zm.32-.028h.008c.27-.078.512-.226.711-.425.067-.079.11-.204.121-.372.008-.12 0-.218 0-.23l-.043-.004a.4.4 0 0 0-.195.078q-.11.082-.203.176c-.125.125-.223.254-.223.254a3 3 0 0 0-.136.273 1 1 0 0 0-.063.18.1.1 0 0 0 0 .055l.012.015h.015Zm0 0" style="stroke:none;fill-rule:nonzero;fill:#435125;fill-opacity:1"/><path d="m20.273 3.023-.07.028-.031.011-.086-.003-.086.039-.148.105-.004.004-.059.016-.05-.024-.028.016-.012.058-.027.043-.035.024-.117.012-.098.054-.133-.039-.059.028-.128.12-.067.028h-.02l-.09-.004-.034.012-.055.05-.102.008-.035.024-.05.105-.055.063-.032.004-.03-.012-.028.004-.012.066-.023.028-.07.023-.055.047-.051.023h-.078l-.067.043-.12.008-.051.047-.012.012-.024.011-.039.024-.007.008-.047-.008-.055.02-.023-.032-.04.02-.046.004-.063-.028-.05-.023-.036.008-.012.058v.008l-.039.047-.066.043-.008.012-.078.105-.148.156-.125.063-.13.043-.09.074-.234.117-.378.192-.079.023-.109.016-.195.074-.172.05-.012.005-.031.015-.246.074-.113-.015-.067.027-.176-.02h-.12l-.079.016-.144.07-.246.118-.079.082-.125.062-.148.047v-.062l-.05.015-.04.012-.117.016h-.066l-.043-.012h-.008l-.242.082-.274.027-.137.043h-.101l-.063.024-.125.015-.047-.011-.007-.004-.368.015-.168-.02-.078.02-.136-.05-.196-.024-.047-.012-.101-.03-.047.026-.04.004-.077-.03h-.031l-.07.023-.04-.008-.039-.032-.082-.011-.055-.043-.293.039-.078-.024-.27-.078h-.038l-.055.04-.078.03-.074.016-.094.004-.11-.027-.109-.055-.043-.012-.094.012h-.027l-.172-.094-.219-.136-.148-.075-.059-.007-.007.027.027.086.012.09v.082l-.004.05.012.044.054.062.024.059.015.168v.171l-.027.266-.008.043-.031.14-.027.133-.114.344-.027.04-.078.05-.168.117-.125.074-.04.016-.1.008h-.063l-.078-.043-.079-.023-.101-.075-.11-.023-.124-.07-.032-.04-.066-.007-.094-.028-.035-.011-.024-.004-.117-.004-.113-.055-.059-.016h-.078l-.082.043-.043.016-.054-.023h-.04l-.038.07-.008.012-.032.015h-.066l-.031.012-.043.02-.059.023h-.011l-.02.008h-.023l-.07-.035-.04-.008-.02.012-.003.074-.02.043-.062.058-.063.055-.039.063-.117.265-.074.106-.02.027-.078.086-.066.05-.153.118-.144.058-.125.024h-.063l-.117-.016-.101-.031-.118-.07-.12-.102-.184-.18-.024-.015-.008-.004-.054-.04h-.043l-.016.032-.012.04-.007.034-.02.2v.011l.012.082.14.2.04.101.007.012.028.047.023.043.05.14-.034.078.015.055-.039.035-.008.047.122.156.027.067-.027.097-.051.055-.012.012.008.039.055.055.097.09.051.124.039.04.047-.012.023.02h.04l.038.038.024.008.039.02.031.043.004.125.059.152v.098l.039.058.008.047-.02.133.047.039.047-.008.031.004.05.043.063.094.063-.008.039.016.184.172.039.023.035.016.039.039.054-.04h.008l.063-.007.027.02.055.034h.066l.156.047.063.016.133.086.058.035.032.027.046.04.086.039.118.023.035.012.164.066.09.024.078.03.062.02h.047l.063-.05h.058l.051.007.05-.007.079-.051.012-.024.054-.023.188-.024.055.016.14-.059.094.024.078-.027.184.039.047.035.054.058h.067l-.028.047.078.086.075.106.004.015.05.157.04.054.027.074v.047l-.04.04-.007.015v.008l.008.02.015-.008.028-.016.039-.008.062.008.043.004.067-.035.046-.024.07.035h.079l.035.012.094.043.047.004.015-.012.012-.023-.004-.035-.039-.043-.078-.094-.031-.047-.024-.066-.008-.09-.007-.059.011-.078.02-.027.02-.078.046-.063.117-.078.125-.11.098-.07.102-.043v-.011l.015.004.258-.09.117-.02.782.055.027-.008.027-.074.012-.012.012-.008.086-.039.039-.008.156.04.074-.04h.05l.106-.062h.067l.027-.008.129-.094.121-.035.031-.015.012-.008.129-.067.078-.066.07-.04.079-.015.195-.015.043-.067.086-.011.05-.06.06-.023.042-.066.04-.05.046-.028.16-.012.188.024.027-.016.04-.152.046-.028.117-.18V9.41l.004-.055.02-.082-.012-.132.016-.145.074-.176.066-.074.106-.074.054-.024.078-.011h.008l.02-.008h.36l.089-.004.223.04h.015l.075.026.085.07.094.09.016.016.058.028.02.007.047-.007.07-.04.055-.039.07-.039V8.77l.043-.063.016-.027.14-.055.164-.008.02-.012h.008l.043-.054h.039l.101.039.067-.016.054.02.043-.004.079-.012.09.063.05.007.176.102h.016l.007.004.02-.008.031-.008h.004l.004.004.023.031.028.004.031-.043-.016-.03-.066-.013-.055-.097.055-.059-.086-.105-.016-.02v-.004l-.03-.047-.15-.23-.195-.156-.066-.051-.023-.02-.106-.109-.074-.098-.008-.02-.016-.034-.043-.098-.078-.059-.062-.07-.133-.184-.02-.027-.03-.02h-.067l-.004-.007h-.004v-.004l.031-.031.04-.008.011-.035-.066-.196v-.007l-.004-.06.05-.28.008-.035.094-.188.055-.047.062-.12.055-.083.05-.05.009-.005.09-.054.078-.012.074-.012.129.04h.117l.082-.012.09-.028.043-.027.023-.031.047-.16.016-.051.027-.055.168-.195.125-.117.281-.208.137-.082.07-.043.63-.285.163-.168.086-.086.149-.101.175-.078.157-.117.03-.043.04-.141.039-.008.027-.066.012-.02.121-.086.016-.008.48-.246.07.012.04-.059.136-.023h.028l.035-.02.027-.054V3.37l.004-.133.031-.035.016-.09.016-.023.015-.02.04-.027Zm0 0" style="stroke:none;fill-rule:nonzero;fill:#d47600;fill-opacity:1"/></svg>