<?xml version="1.0" encoding="UTF-8"?>
<svg xmlns="http://www.w3.org/2000/svg" xmlns:xlink="http://www.w3.org/1999/xlink" width="25px" height="px" viewBox="0 0 25 19" version="1.1">
<g id="surface1">
<rect x="0" y="0" width="25" height="19" style="fill:rgb(100%,100%,100%);fill-opacity:1;stroke:none;"/>
<path style=" stroke:none;fill-rule:evenodd;fill:rgb(0%,0%,38.82353%);fill-opacity:1;" d="M 25 16.472656 C 24.71875 16.738281 24.480469 17.34375 23.734375 17.34375 C 22.246094 17.34375 21.875 16.058594 20.757812 16.058594 C 20.015625 16.058594 19.644531 17.34375 18.898438 17.34375 C 17.410156 17.34375 17.039062 16.058594 15.921875 16.058594 C 15.179688 16.058594 14.808594 17.34375 14.066406 17.34375 C 12.574219 17.34375 12.203125 16.058594 11.085938 16.058594 C 10.34375 16.058594 9.96875 17.34375 9.226562 17.34375 C 7.738281 17.34375 7.367188 16.058594 6.25 16.058594 C 5.507812 16.058594 5.132812 17.34375 4.390625 17.34375 C 2.898438 17.34375 2.527344 16.058594 1.414062 16.058594 C 0.671875 16.058594 0.445312 16.976562 0 16.976562 L 0 18.628906 C 0.445312 18.628906 0.667969 17.71875 1.417969 17.71875 C 2.53125 17.71875 2.902344 19 4.386719 19 C 5.132812 19 5.503906 17.714844 6.25 17.714844 C 7.367188 17.714844 7.738281 19 9.230469 19 C 9.972656 19 10.339844 17.714844 11.085938 17.714844 C 12.203125 17.714844 12.574219 19 14.0625 19 C 14.804688 19 15.179688 17.714844 15.921875 17.714844 C 17.039062 17.714844 17.410156 19 18.898438 19 C 19.640625 19 20.015625 17.714844 20.757812 17.714844 C 21.875 17.714844 22.25 19 23.734375 19 C 24.476562 19 24.71875 18.636719 25 18.375 Z M 25 13.261719 C 24.71875 13.527344 24.480469 14.132812 23.734375 14.132812 C 22.246094 14.132812 21.875 12.84375 20.757812 12.84375 C 20.015625 12.84375 19.644531 14.132812 18.898438 14.132812 C 17.410156 14.132812 17.039062 12.84375 15.921875 12.84375 C 15.179688 12.84375 14.808594 14.132812 14.066406 14.132812 C 12.574219 14.132812 12.203125 12.84375 11.085938 12.84375 C 10.34375 12.84375 9.96875 14.132812 9.226562 14.132812 C 7.738281 14.132812 7.367188 12.84375 6.25 12.84375 C 5.507812 12.84375 5.132812 14.132812 4.390625 14.132812 C 2.898438 14.132812 2.527344 12.84375 1.414062 12.84375 C 0.671875 12.84375 0.445312 13.761719 0 13.761719 L 0 15.417969 C 0.445312 15.417969 0.667969 14.503906 1.417969 14.503906 C 2.53125 14.503906 2.902344 15.789062 4.386719 15.789062 C 5.132812 15.789062 5.503906 14.503906 6.25 14.503906 C 7.367188 14.503906 7.738281 15.789062 9.230469 15.789062 C 9.972656 15.789062 10.339844 14.503906 11.085938 14.503906 C 12.203125 14.503906 12.574219 15.789062 14.066406 15.789062 C 14.808594 15.789062 15.179688 14.503906 15.921875 14.503906 C 17.039062 14.503906 17.410156 15.789062 18.898438 15.789062 C 19.640625 15.789062 20.015625 14.503906 20.757812 14.503906 C 21.875 14.503906 22.25 15.789062 23.734375 15.789062 C 24.476562 15.789062 24.71875 15.425781 25 15.164062 Z M 25 10.050781 C 24.71875 10.316406 24.480469 10.921875 23.734375 10.921875 C 22.246094 10.921875 21.875 9.632812 20.757812 9.632812 C 20.015625 9.632812 19.644531 10.921875 18.898438 10.921875 C 17.410156 10.921875 17.039062 9.632812 15.921875 9.632812 C 15.179688 9.632812 14.808594 10.921875 14.066406 10.921875 C 12.574219 10.921875 12.203125 9.632812 11.085938 9.632812 C 10.34375 9.632812 9.96875 10.921875 9.226562 10.921875 C 7.738281 10.921875 7.367188 9.632812 6.25 9.632812 C 5.507812 9.632812 5.132812 10.921875 4.390625 10.921875 C 2.898438 10.921875 2.527344 9.632812 1.414062 9.632812 C 0.671875 9.632812 0.445312 10.554688 0 10.554688 L 0 12.207031 C 0.445312 12.207031 0.667969 11.289062 1.417969 11.289062 C 2.53125 11.289062 2.902344 12.574219 4.386719 12.574219 C 5.132812 12.574219 5.503906 11.289062 6.25 11.289062 C 7.367188 11.289062 7.738281 12.574219 9.230469 12.574219 C 9.972656 12.574219 10.339844 11.289062 11.085938 11.289062 C 12.203125 11.289062 12.574219 12.574219 14.066406 12.574219 C 14.808594 12.574219 15.179688 11.289062 15.921875 11.289062 C 17.039062 11.289062 17.410156 12.574219 18.898438 12.574219 C 19.640625 12.574219 20.015625 11.289062 20.757812 11.289062 C 21.875 11.289062 22.25 12.574219 23.734375 12.574219 C 24.476562 12.574219 24.71875 12.210938 25 11.949219 Z M 25 6.839844 C 24.71875 7.101562 24.480469 7.710938 23.734375 7.710938 C 22.246094 7.710938 21.875 6.425781 20.757812 6.425781 C 20.015625 6.425781 19.644531 7.710938 18.898438 7.710938 C 17.410156 7.710938 17.039062 6.425781 15.921875 6.425781 C 15.179688 6.425781 14.808594 7.710938 14.066406 7.710938 C 12.574219 7.710938 12.203125 6.425781 11.085938 6.425781 C 10.34375 6.425781 9.96875 7.710938 9.226562 7.710938 C 7.738281 7.710938 7.367188 6.425781 6.25 6.425781 C 5.507812 6.425781 5.132812 7.710938 4.390625 7.710938 C 2.898438 7.710938 2.527344 6.425781 1.414062 6.425781 C 0.671875 6.425781 0.445312 7.34375 0 7.34375 L 0 8.992188 C 0.445312 8.992188 0.667969 8.082031 1.417969 8.082031 C 2.53125 8.082031 2.902344 9.367188 4.386719 9.367188 C 5.132812 9.367188 5.503906 8.078125 6.25 8.078125 C 7.367188 8.078125 7.738281 9.367188 9.230469 9.367188 C 9.972656 9.367188 10.339844 8.078125 11.085938 8.078125 C 12.203125 8.078125 12.574219 9.367188 14.066406 9.367188 C 14.808594 9.367188 15.179688 8.078125 15.921875 8.078125 C 17.039062 8.078125 17.410156 9.367188 18.898438 9.367188 C 19.640625 9.367188 20.015625 8.078125 20.757812 8.078125 C 21.875 8.078125 22.25 9.367188 23.734375 9.367188 C 24.476562 9.367188 24.71875 8.996094 25 8.734375 Z M 25 3.621094 C 24.71875 3.886719 24.480469 4.496094 23.734375 4.496094 C 22.246094 4.496094 21.875 3.210938 20.757812 3.210938 C 20.015625 3.210938 19.644531 4.496094 18.898438 4.496094 C 17.410156 4.496094 17.039062 3.210938 15.921875 3.210938 C 15.179688 3.210938 14.808594 4.496094 14.066406 4.496094 C 12.574219 4.496094 12.203125 3.210938 11.085938 3.210938 C 10.34375 3.210938 9.96875 4.496094 9.226562 4.496094 C 7.738281 4.496094 7.367188 3.210938 6.25 3.210938 C 5.507812 3.210938 5.132812 4.496094 4.390625 4.496094 C 2.898438 4.496094 2.527344 3.210938 1.414062 3.210938 C 0.671875 3.214844 0.445312 4.132812 0 4.132812 L 0 5.785156 C 0.445312 5.785156 0.667969 4.871094 1.414062 4.871094 C 2.527344 4.871094 2.902344 6.160156 4.390625 6.160156 C 5.132812 6.160156 5.503906 4.871094 6.25 4.871094 C 7.367188 4.871094 7.738281 6.160156 9.230469 6.160156 C 9.972656 6.160156 10.339844 4.871094 11.082031 4.871094 C 12.203125 4.871094 12.574219 6.160156 14.0625 6.160156 C 14.804688 6.160156 15.179688 4.871094 15.921875 4.871094 C 17.039062 4.871094 17.410156 6.160156 18.898438 6.160156 C 19.640625 6.160156 20.015625 4.871094 20.757812 4.871094 C 21.875 4.871094 22.25 6.160156 23.734375 6.160156 C 24.476562 6.160156 24.71875 5.792969 25 5.53125 Z M 25 0.414062 C 24.71875 0.675781 24.480469 1.285156 23.734375 1.285156 C 22.246094 1.285156 21.875 0 20.757812 0 C 20.015625 0 19.644531 1.285156 18.898438 1.285156 C 17.410156 1.285156 17.039062 0 15.921875 0 C 15.179688 0 14.808594 1.285156 14.066406 1.285156 C 12.574219 1.285156 12.203125 0 11.085938 0 C 10.34375 0 9.96875 1.285156 9.226562 1.285156 C 7.734375 1.285156 7.367188 0 6.25 0 C 5.507812 0 5.132812 1.285156 4.390625 1.285156 C 2.898438 1.285156 2.527344 0 1.414062 0 C 0.671875 0 0.445312 0.917969 0 0.917969 L 0 2.578125 C 0.445312 2.574219 0.667969 1.664062 1.414062 1.664062 C 2.527344 1.664062 2.902344 2.945312 4.390625 2.945312 C 5.132812 2.945312 5.503906 1.664062 6.25 1.664062 C 7.367188 1.664062 7.738281 2.945312 9.230469 2.945312 C 9.972656 2.945312 10.339844 1.664062 11.082031 1.664062 C 12.203125 1.664062 12.574219 2.945312 14.0625 2.945312 C 14.804688 2.945312 15.179688 1.664062 15.921875 1.664062 C 17.039062 1.664062 17.410156 2.945312 18.898438 2.945312 C 19.640625 2.945312 20.015625 1.664062 20.757812 1.664062 C 21.875 1.664062 22.25 2.945312 23.734375 2.945312 C 24.476562 2.945312 24.71875 2.582031 25 2.320312 Z M 25 0.414062 "/>
<path style="fill-rule:evenodd;fill:rgb(63.529414%,26.274511%,0%);fill-opacity:1;stroke-width:2.1;stroke-linecap:butt;stroke-linejoin:miter;stroke:rgb(100%,100%,100%);stroke-opacity:1;stroke-miterlimit:4;" d="M 474.8 131.743421 L 471.3 460.657895 C 471.3 478.026316 487 478.026316 488.7 460.657895 L 485.2 131.743421 Z M 474.8 131.743421 " transform="matrix(0.0390625,0,0,0.0395833,0,0)"/>
<path style="fill-rule:evenodd;fill:rgb(0%,42.745098%,0%);fill-opacity:1;stroke-width:1.8;stroke-linecap:butt;stroke-linejoin:miter;stroke:rgb(100%,100%,100%);stroke-opacity:1;stroke-miterlimit:4;" d="M 510.7 254.013158 L 499.7 242.072368 L 497.1 254.210526 L 492.4 236.743421 L 487.9 245.526316 L 487.1 226.875 L 482.7 235.657895 L 481.9 217.105263 L 477.5 225.888158 L 475 203.980263 L 470.6 212.763158 L 468 190.953947 L 463.5 199.835526 L 461 177.927632 L 459.7 166.875 L 461.9 162.631579 L 467.7 164.703947 L 476.8 173.388158 L 495.1 190.756579 L 483.8 186.513158 L 502.1 203.881579 L 490.7 199.638158 L 509 216.907895 L 497.6 212.664474 L 514.2 226.677632 L 502.9 222.532895 L 519.4 236.546053 L 508.1 232.302632 L 520.7 247.5 L 507.6 239.901316 L 510.6 254.210526 Z M 510.7 254.013158 " transform="matrix(0.0390625,0,0,0.0395833,0,0)"/>
<path style="fill:none;stroke-width:0.3;stroke-linecap:butt;stroke-linejoin:miter;stroke:rgb(0%,0%,0%);stroke-opacity:1;stroke-miterlimit:4;" d="M 510.7 254.013158 L 462 162.631579 M 495.1 190.756579 L 469 175.559211 L 463.6 199.736842 " transform="matrix(0.0390625,0,0,0.0395833,0,0)"/>
<path style="fill:none;stroke-width:0.3;stroke-linecap:butt;stroke-linejoin:miter;stroke:rgb(0%,0%,0%);stroke-opacity:1;stroke-miterlimit:4;" d="M 502.2 203.782895 L 475.9 188.684211 L 470.6 212.763158 " transform="matrix(0.0390625,0,0,0.0395833,0,0)"/>
<path style="fill:none;stroke-width:0.3;stroke-linecap:butt;stroke-linejoin:miter;stroke:rgb(0%,0%,0%);stroke-opacity:1;stroke-miterlimit:4;" d="M 509.1 216.809211 L 482.9 201.809211 L 477.5 225.789474 " transform="matrix(0.0390625,0,0,0.0395833,0,0)"/>
<path style="fill:none;stroke-width:0.3;stroke-linecap:butt;stroke-linejoin:miter;stroke:rgb(0%,0%,0%);stroke-opacity:1;stroke-miterlimit:4;" d="M 514.3 226.677632 L 489.8 214.835526 L 482.8 235.756579 " transform="matrix(0.0390625,0,0,0.0395833,0,0)"/>
<path style="fill:none;stroke-width:0.3;stroke-linecap:butt;stroke-linejoin:miter;stroke:rgb(0%,0%,0%);stroke-opacity:1;stroke-miterlimit:4;" d="M 519.5 236.546053 L 495 224.605263 L 488 245.625 " transform="matrix(0.0390625,0,0,0.0395833,0,0)"/>
<path style="fill:none;stroke-width:0.3;stroke-linecap:butt;stroke-linejoin:miter;stroke:rgb(0%,0%,0%);stroke-opacity:1;stroke-miterlimit:4;" d="M 520.8 247.401316 L 498.5 231.217105 L 497.1 254.210526 " transform="matrix(0.0390625,0,0,0.0395833,0,0)"/>
<path style="fill-rule:evenodd;fill:rgb(0%,42.745098%,0%);fill-opacity:1;stroke-width:2;stroke-linecap:butt;stroke-linejoin:miter;stroke:rgb(100%,100%,100%);stroke-opacity:1;stroke-miterlimit:4;" d="M 383 97.894737 L 400.8 104.703947 L 395.6 91.184211 L 411.2 106.480263 L 409.7 95.526316 L 422.3 113.881579 L 420.8 102.927632 L 433.4 121.282895 L 431.9 110.328947 L 448.2 131.052632 L 446.7 120.098684 L 463 140.921053 L 461.6 129.868421 L 477.8 150.690789 L 486 161.052632 L 486.7 166.578947 L 480 167.171053 L 466 162.927632 L 437.8 154.243421 L 451.1 153.059211 L 423 144.375 L 436.3 143.289474 L 408.2 134.605263 L 421.5 133.421053 L 397.1 127.203947 L 410.4 126.118421 L 386 119.901316 L 399.3 118.717105 L 377.8 109.440789 L 394.9 110.723684 L 383.1 97.993421 Z M 383 97.894737 " transform="matrix(0.0390625,0,0,0.0395833,0,0)"/>
<path style="fill:none;stroke-width:0.3;stroke-linecap:butt;stroke-linejoin:miter;stroke:rgb(0%,0%,0%);stroke-opacity:1;stroke-miterlimit:4;" d="M 383 97.894737 L 486.7 166.578947 M 437.8 154.243421 L 471.9 156.809211 L 461.6 129.868421 " transform="matrix(0.0390625,0,0,0.0395833,0,0)"/>
<path style="fill:none;stroke-width:0.3;stroke-linecap:butt;stroke-linejoin:miter;stroke:rgb(0%,0%,0%);stroke-opacity:1;stroke-miterlimit:4;" d="M 423 144.375 L 457 147.039474 L 446.7 120 " transform="matrix(0.0390625,0,0,0.0395833,0,0)"/>
<path style="fill:none;stroke-width:0.3;stroke-linecap:butt;stroke-linejoin:miter;stroke:rgb(0%,0%,0%);stroke-opacity:1;stroke-miterlimit:4;" d="M 408.2 134.605263 L 442.2 137.171053 L 431.9 110.230263 " transform="matrix(0.0390625,0,0,0.0395833,0,0)"/>
<path style="fill:none;stroke-width:0.3;stroke-linecap:butt;stroke-linejoin:miter;stroke:rgb(0%,0%,0%);stroke-opacity:1;stroke-miterlimit:4;" d="M 397 127.203947 L 427.5 127.302632 L 420.8 102.927632 " transform="matrix(0.0390625,0,0,0.0395833,0,0)"/>
<path style="fill:none;stroke-width:0.3;stroke-linecap:butt;stroke-linejoin:miter;stroke:rgb(0%,0%,0%);stroke-opacity:1;stroke-miterlimit:4;" d="M 386 119.802632 L 416.4 120 L 409.7 95.526316 " transform="matrix(0.0390625,0,0,0.0395833,0,0)"/>
<path style="fill:none;stroke-width:0.3;stroke-linecap:butt;stroke-linejoin:miter;stroke:rgb(0%,0%,0%);stroke-opacity:1;stroke-miterlimit:4;" d="M 377.8 109.440789 L 408.9 115.065789 L 395.7 91.184211 " transform="matrix(0.0390625,0,0,0.0395833,0,0)"/>
<path style="fill-rule:evenodd;fill:rgb(0%,42.745098%,0%);fill-opacity:1;stroke-width:2;stroke-linecap:butt;stroke-linejoin:miter;stroke:rgb(100%,100%,100%);stroke-opacity:1;stroke-miterlimit:4;" d="M 589.8 120.789474 L 575 131.743421 L 591.4 133.519737 L 568.5 138.947368 L 580.7 142.5 L 556 144.276316 L 568.2 147.927632 L 543.5 149.703947 L 555.6 153.355263 L 526.7 157.006579 L 538.9 160.559211 L 510 164.210526 L 522.2 167.763158 L 493.3 171.414474 L 478.8 173.190789 L 472.8 171.414474 L 475 165.986842 L 485.7 157.006579 L 507 138.947368 L 502.4 149.703947 L 523.7 131.743421 L 519.1 142.5 L 540.4 124.539474 L 535.8 135.296053 L 553 119.013158 L 548.5 129.868421 L 565.5 113.585526 L 561 124.440789 L 580 111.809211 L 571.3 124.539474 L 589.9 120.888158 Z M 589.8 120.789474 " transform="matrix(0.0390625,0,0,0.0395833,0,0)"/>
<path style="fill:none;stroke-width:0.3;stroke-linecap:butt;stroke-linejoin:miter;stroke:rgb(0%,0%,0%);stroke-opacity:1;stroke-miterlimit:4;" d="M 589.8 120.789474 L 472.8 171.414474 M 506.9 138.947368 L 489.5 164.210526 L 522.2 167.763158 " transform="matrix(0.0390625,0,0,0.0395833,0,0)"/>
<path style="fill:none;stroke-width:0.3;stroke-linecap:butt;stroke-linejoin:miter;stroke:rgb(0%,0%,0%);stroke-opacity:1;stroke-miterlimit:4;" d="M 523.7 131.743421 L 506.2 157.006579 L 538.9 160.559211 " transform="matrix(0.0390625,0,0,0.0395833,0,0)"/>
<path style="fill:none;stroke-width:0.3;stroke-linecap:butt;stroke-linejoin:miter;stroke:rgb(0%,0%,0%);stroke-opacity:1;stroke-miterlimit:4;" d="M 540.4 124.440789 L 522.9 149.703947 L 555.6 153.355263 " transform="matrix(0.0390625,0,0,0.0395833,0,0)"/>
<path style="fill:none;stroke-width:0.3;stroke-linecap:butt;stroke-linejoin:miter;stroke:rgb(0%,0%,0%);stroke-opacity:1;stroke-miterlimit:4;" d="M 553 119.013158 L 539.7 142.5 L 568.2 147.927632 " transform="matrix(0.0390625,0,0,0.0395833,0,0)"/>
<path style="fill:none;stroke-width:0.3;stroke-linecap:butt;stroke-linejoin:miter;stroke:rgb(0%,0%,0%);stroke-opacity:1;stroke-miterlimit:4;" d="M 565.5 113.585526 L 552.2 137.072368 L 580.7 142.5 " transform="matrix(0.0390625,0,0,0.0395833,0,0)"/>
<path style="fill:none;stroke-width:0.3;stroke-linecap:butt;stroke-linejoin:miter;stroke:rgb(0%,0%,0%);stroke-opacity:1;stroke-miterlimit:4;" d="M 580 111.809211 L 560.6 133.519737 L 591.3 133.519737 " transform="matrix(0.0390625,0,0,0.0395833,0,0)"/>
<path style="fill-rule:evenodd;fill:rgb(0%,42.745098%,0%);fill-opacity:1;stroke-width:2;stroke-linecap:butt;stroke-linejoin:miter;stroke:rgb(100%,100%,100%);stroke-opacity:1;stroke-miterlimit:4;" d="M 587.4 230.328947 L 569 225 L 575.6 238.026316 L 558.5 224.013158 L 561.1 234.671053 L 546.6 217.5 L 549.3 228.256579 L 534.8 210.986842 L 537.4 221.842105 L 518.9 202.401316 L 521.6 213.157895 L 503.1 193.815789 L 505.8 204.572368 L 487.3 185.230263 L 478.1 175.460526 L 476.8 170.131579 L 483.4 168.947368 L 497.9 172.105263 L 526.9 178.519737 L 513.7 180.690789 L 542.7 187.105263 L 529.5 189.276316 L 558.5 195.690789 L 545.3 197.960526 L 570.3 202.203947 L 557.1 204.375 L 582.1 208.618421 L 569 210.986842 L 591.3 218.486842 L 574.3 218.486842 L 587.3 230.526316 Z M 587.4 230.328947 " transform="matrix(0.0390625,0,0,0.0395833,0,0)"/>
<path style="fill:none;stroke-width:0.3;stroke-linecap:butt;stroke-linejoin:miter;stroke:rgb(0%,0%,0%);stroke-opacity:1;stroke-miterlimit:4;" d="M 587.4 230.328947 L 476.8 170.131579 M 526.8 178.519737 L 492.6 178.717105 L 505.8 204.671053 " transform="matrix(0.0390625,0,0,0.0395833,0,0)"/>
<path style="fill:none;stroke-width:0.3;stroke-linecap:butt;stroke-linejoin:miter;stroke:rgb(0%,0%,0%);stroke-opacity:1;stroke-miterlimit:4;" d="M 542.6 187.105263 L 508.4 187.302632 L 521.6 213.256579 " transform="matrix(0.0390625,0,0,0.0395833,0,0)"/>
<path style="fill:none;stroke-width:0.3;stroke-linecap:butt;stroke-linejoin:miter;stroke:rgb(0%,0%,0%);stroke-opacity:1;stroke-miterlimit:4;" d="M 558.4 195.690789 L 524.2 195.888158 L 537.4 221.940789 " transform="matrix(0.0390625,0,0,0.0395833,0,0)"/>
<path style="fill:none;stroke-width:0.3;stroke-linecap:butt;stroke-linejoin:miter;stroke:rgb(0%,0%,0%);stroke-opacity:1;stroke-miterlimit:4;" d="M 570.3 202.203947 L 540 204.473684 L 549.3 228.256579 " transform="matrix(0.0390625,0,0,0.0395833,0,0)"/>
<path style="fill:none;stroke-width:0.3;stroke-linecap:butt;stroke-linejoin:miter;stroke:rgb(0%,0%,0%);stroke-opacity:1;stroke-miterlimit:4;" d="M 582.2 208.717105 L 551.9 210.888158 L 561.1 234.671053 " transform="matrix(0.0390625,0,0,0.0395833,0,0)"/>
<path style="fill:none;stroke-width:0.3;stroke-linecap:butt;stroke-linejoin:miter;stroke:rgb(0%,0%,0%);stroke-opacity:1;stroke-miterlimit:4;" d="M 591.3 218.388158 L 559.8 215.230263 L 575.6 238.026316 " transform="matrix(0.0390625,0,0,0.0395833,0,0)"/>
<path style="fill-rule:evenodd;fill:rgb(0%,42.745098%,0%);fill-opacity:1;stroke-width:1.8;stroke-linecap:butt;stroke-linejoin:miter;stroke:rgb(100%,100%,100%);stroke-opacity:1;stroke-miterlimit:4;" d="M 395.2 236.644737 L 404.5 223.618421 L 390.4 225.690789 L 407.8 215.822368 L 396.7 215.328947 L 416.7 208.322368 L 405.6 207.730263 L 425.6 200.723684 L 414.5 200.131579 L 437.5 190.460526 L 426.3 189.967105 L 449.3 180.296053 L 438.2 179.802632 L 461.2 170.230263 L 472.7 165.296053 L 478.3 165.592105 L 477.9 170.921053 L 471.6 181.282895 L 459 202.105263 L 459.8 191.546053 L 447.2 212.269737 L 447.9 201.611842 L 435.3 222.434211 L 436 211.776316 L 426.4 230.032895 L 427.1 219.375 L 417.5 237.631579 L 418.2 226.973684 L 406 242.368421 L 409.7 229.243421 Z M 395.2 236.644737 " transform="matrix(0.0390625,0,0,0.0395833,0,0)"/>
<path style="fill:none;stroke-width:0.3;stroke-linecap:butt;stroke-linejoin:miter;stroke:rgb(0%,0%,0%);stroke-opacity:1;stroke-miterlimit:4;" d="M 395.2 236.644737 L 478.2 165.592105 M 459.1 202.105263 L 466.4 175.657895 L 438.2 179.802632 " transform="matrix(0.0390625,0,0,0.0395833,0,0)"/>
<path style="fill:none;stroke-width:0.3;stroke-linecap:butt;stroke-linejoin:miter;stroke:rgb(0%,0%,0%);stroke-opacity:1;stroke-miterlimit:4;" d="M 447.2 212.269737 L 454.5 185.921053 L 426.3 189.868421 " transform="matrix(0.0390625,0,0,0.0395833,0,0)"/>
<path style="fill:none;stroke-width:0.3;stroke-linecap:butt;stroke-linejoin:miter;stroke:rgb(0%,0%,0%);stroke-opacity:1;stroke-miterlimit:4;" d="M 435.3 222.434211 L 442.7 195.986842 L 414.5 200.131579 " transform="matrix(0.0390625,0,0,0.0395833,0,0)"/>
<path style="fill:none;stroke-width:0.3;stroke-linecap:butt;stroke-linejoin:miter;stroke:rgb(0%,0%,0%);stroke-opacity:1;stroke-miterlimit:4;" d="M 426.4 230.032895 L 430.8 206.151316 L 405.6 207.730263 " transform="matrix(0.0390625,0,0,0.0395833,0,0)"/>
<path style="fill:none;stroke-width:0.3;stroke-linecap:butt;stroke-linejoin:miter;stroke:rgb(0%,0%,0%);stroke-opacity:1;stroke-miterlimit:4;" d="M 417.5 237.631579 L 421.9 213.848684 L 396.7 215.328947 " transform="matrix(0.0390625,0,0,0.0395833,0,0)"/>
<path style="fill:none;stroke-width:0.3;stroke-linecap:butt;stroke-linejoin:miter;stroke:rgb(0%,0%,0%);stroke-opacity:1;stroke-miterlimit:4;" d="M 406 242.368421 L 416 218.881579 L 390.4 225.690789 " transform="matrix(0.0390625,0,0,0.0395833,0,0)"/>
<path style="fill-rule:evenodd;fill:rgb(0%,42.745098%,0%);fill-opacity:1;stroke-width:2;stroke-linecap:butt;stroke-linejoin:miter;stroke:rgb(100%,100%,100%);stroke-opacity:1;stroke-miterlimit:4;" d="M 563 66.217105 L 545.1 78.157895 L 542.2 65.328947 L 531.7 83.092105 L 529.7 74.605263 L 521.1 92.763158 L 519.9 84.375 L 513.2 103.125 L 509.4 94.144737 L 502.7 116.842105 L 498.9 107.763158 L 492.2 130.460526 L 488.3 121.480263 L 481.6 144.177632 L 478.3 155.625 L 480.2 160.065789 L 487.4 157.697368 L 499.8 148.519737 L 524.8 130.065789 L 510.4 134.802632 L 535.3 116.348684 L 520.9 121.085526 L 545.8 102.631579 L 531.4 107.368421 L 556.4 92.960526 L 539.4 97.006579 L 566 83.289474 L 549.7 87.532895 L 569.4 71.940789 L 552.4 80.032895 Z M 563 66.217105 " transform="matrix(0.0390625,0,0,0.0395833,0,0)"/>
<path style="fill:none;stroke-width:0.3;stroke-linecap:butt;stroke-linejoin:miter;stroke:rgb(0%,0%,0%);stroke-opacity:1;stroke-miterlimit:4;" d="M 556 72.730263 L 530.2 94.934211 L 480.2 160.065789 " transform="matrix(0.0390625,0,0,0.0395833,0,0)"/>
<path style="fill:none;stroke-width:0.3;stroke-linecap:butt;stroke-linejoin:miter;stroke:rgb(0%,0%,0%);stroke-opacity:1;stroke-miterlimit:4;" d="M 519.3 132.828947 L 490.7 146.348684 L 488.3 125.526316 " transform="matrix(0.0390625,0,0,0.0395833,0,0)"/>
<path style="fill:none;stroke-width:0.3;stroke-linecap:butt;stroke-linejoin:miter;stroke:rgb(0%,0%,0%);stroke-opacity:1;stroke-miterlimit:4;" d="M 530.2 119.210526 L 501.2 132.631579 L 498.9 111.809211 " transform="matrix(0.0390625,0,0,0.0395833,0,0)"/>
<path style="fill:none;stroke-width:0.3;stroke-linecap:butt;stroke-linejoin:miter;stroke:rgb(0%,0%,0%);stroke-opacity:1;stroke-miterlimit:4;" d="M 540.5 105.493421 L 511.8 118.914474 L 509.6 98.190789 " transform="matrix(0.0390625,0,0,0.0395833,0,0)"/>
<path style="fill:none;stroke-width:0.3;stroke-linecap:butt;stroke-linejoin:miter;stroke:rgb(0%,0%,0%);stroke-opacity:1;stroke-miterlimit:4;" d="M 549.1 95.328947 L 522.3 105.197368 L 519.3 88.223684 " transform="matrix(0.0390625,0,0,0.0395833,0,0)"/>
<path style="fill:none;stroke-width:0.3;stroke-linecap:butt;stroke-linejoin:miter;stroke:rgb(0%,0%,0%);stroke-opacity:1;stroke-miterlimit:4;" d="M 559 85.460526 L 530.2 95.032895 L 529.2 78.552632 " transform="matrix(0.0390625,0,0,0.0395833,0,0)"/>
<path style="fill:none;stroke-width:0.3;stroke-linecap:butt;stroke-linejoin:miter;stroke:rgb(0%,0%,0%);stroke-opacity:1;stroke-miterlimit:4;" d="M 562.8 76.184211 L 536.2 89.802632 L 541.4 69.177632 " transform="matrix(0.0390625,0,0,0.0395833,0,0)"/>
<path style="fill-rule:evenodd;fill:rgb(0%,42.745098%,0%);fill-opacity:1;stroke-width:2;stroke-linecap:butt;stroke-linejoin:miter;stroke:rgb(100%,100%,100%);stroke-opacity:1;stroke-miterlimit:4;" d="M 466.1 43.815789 L 474.1 61.973684 L 484.4 52.401316 L 482.7 72.236842 L 489.5 65.822368 L 485.8 85.164474 L 491.8 78.552632 L 486.3 97.598684 L 495 91.578947 L 487 113.881579 L 495.6 107.861842 L 487.6 130.361842 L 496.3 124.440789 L 488.3 146.842105 L 484.3 157.993421 L 479.9 160.953947 L 475.1 155.723684 L 470.1 142.302632 L 460.1 115.361842 L 469.5 125.921053 L 459.4 98.881579 L 468.8 109.539474 L 458.8 82.5 L 468 92.960526 L 455.5 69.572368 L 467.5 80.723684 L 453.1 56.842105 L 464.4 67.796053 L 457.1 45.592105 L 466.7 60.197368 Z M 466.1 43.815789 " transform="matrix(0.0390625,0,0,0.0395833,0,0)"/>
<path style="fill:none;stroke-width:0.3;stroke-linecap:butt;stroke-linejoin:miter;stroke:rgb(0%,0%,0%);stroke-opacity:1;stroke-miterlimit:4;" d="M 468.2 52.401316 L 476.7 82.894737 L 479.9 160.855263 " transform="matrix(0.0390625,0,0,0.0395833,0,0)"/>
<path style="fill:none;stroke-width:0.3;stroke-linecap:butt;stroke-linejoin:miter;stroke:rgb(0%,0%,0%);stroke-opacity:1;stroke-miterlimit:4;" d="M 463 120.197368 L 479.2 144.473684 L 493.9 127.796053 " transform="matrix(0.0390625,0,0,0.0395833,0,0)"/>
<path style="fill:none;stroke-width:0.3;stroke-linecap:butt;stroke-linejoin:miter;stroke:rgb(0%,0%,0%);stroke-opacity:1;stroke-miterlimit:4;" d="M 462 103.717105 L 478.5 128.092105 L 493.2 111.414474 " transform="matrix(0.0390625,0,0,0.0395833,0,0)"/>
<path style="fill:none;stroke-width:0.3;stroke-linecap:butt;stroke-linejoin:miter;stroke:rgb(0%,0%,0%);stroke-opacity:1;stroke-miterlimit:4;" d="M 461.5 87.335526 L 477.9 111.710526 L 492.3 95.032895 " transform="matrix(0.0390625,0,0,0.0395833,0,0)"/>
<path style="fill:none;stroke-width:0.3;stroke-linecap:butt;stroke-linejoin:miter;stroke:rgb(0%,0%,0%);stroke-opacity:1;stroke-miterlimit:4;" d="M 460.4 74.901316 L 477.2 95.328947 L 490.2 82.302632 " transform="matrix(0.0390625,0,0,0.0395833,0,0)"/>
<path style="fill:none;stroke-width:0.3;stroke-linecap:butt;stroke-linejoin:miter;stroke:rgb(0%,0%,0%);stroke-opacity:1;stroke-miterlimit:4;" d="M 458 61.973684 L 476.7 82.993421 L 487.7 69.375 " transform="matrix(0.0390625,0,0,0.0395833,0,0)"/>
<path style="fill:none;stroke-width:0.3;stroke-linecap:butt;stroke-linejoin:miter;stroke:rgb(0%,0%,0%);stroke-opacity:1;stroke-miterlimit:4;" d="M 460.3 52.401316 L 474.7 75.888158 L 482.8 55.953947 " transform="matrix(0.0390625,0,0,0.0395833,0,0)"/>
<path style="fill-rule:evenodd;fill:rgb(0%,42.745098%,0%);fill-opacity:1;stroke-width:1.9;stroke-linecap:butt;stroke-linejoin:miter;stroke:rgb(100%,100%,100%);stroke-opacity:1;stroke-miterlimit:4;" d="M 359 178.026316 L 382.3 161.842105 L 370.6 155.822368 L 391.1 159.177632 L 384.1 149.901316 L 403.9 157.401316 L 396.9 148.125 L 416.8 155.526316 L 409.8 146.348684 L 433.8 154.440789 L 426.8 145.065789 L 450.1 157.203947 L 443.1 147.927632 L 467.1 156.118421 L 478.8 162.138158 L 482.3 166.677632 L 477.6 170.032895 L 464.7 171.809211 L 444 180.394737 L 447.8 172.993421 L 422.1 176.644737 L 431.4 170.230263 L 405.1 177.828947 L 414.5 171.315789 L 392.3 179.605263 L 402.2 169.243421 L 379.4 181.381579 L 389.4 171.019737 L 370.6 184.046053 L 381.1 169.638158 Z M 359 178.026316 " transform="matrix(0.0390625,0,0,0.0395833,0,0)"/>
<path style="fill:none;stroke-width:0.3;stroke-linecap:butt;stroke-linejoin:miter;stroke:rgb(0%,0%,0%);stroke-opacity:1;stroke-miterlimit:4;" d="M 366.3 173.585526 L 390.5 163.125 L 403.4 161.348684 L 414.1 161.052632 L 432.6 162.335526 L 449.3 163.026316 L 482.3 166.677632 " transform="matrix(0.0390625,0,0,0.0395833,0,0)"/>
<path style="fill:none;stroke-width:0.3;stroke-linecap:butt;stroke-linejoin:miter;stroke:rgb(0%,0%,0%);stroke-opacity:1;stroke-miterlimit:4;" d="M 447.2 176.940789 L 465.7 165.493421 L 446.9 150.789474 " transform="matrix(0.0390625,0,0,0.0395833,0,0)"/>
<path style="fill:none;stroke-width:0.3;stroke-linecap:butt;stroke-linejoin:miter;stroke:rgb(0%,0%,0%);stroke-opacity:1;stroke-miterlimit:4;" d="M 426.5 175.164474 L 449.2 163.026316 L 430.5 148.223684 " transform="matrix(0.0390625,0,0,0.0395833,0,0)"/>
<path style="fill:none;stroke-width:0.3;stroke-linecap:butt;stroke-linejoin:miter;stroke:rgb(0%,0%,0%);stroke-opacity:1;stroke-miterlimit:4;" d="M 411.7 174.769737 L 432.6 162.335526 L 413.6 148.618421 M 384.1 178.223684 L 403.4 161.348684 L 387.8 152.763158 " transform="matrix(0.0390625,0,0,0.0395833,0,0)"/>
<path style="fill:none;stroke-width:0.3;stroke-linecap:butt;stroke-linejoin:miter;stroke:rgb(0%,0%,0%);stroke-opacity:1;stroke-miterlimit:4;" d="M 375.5 179.309211 L 390.5 163.223684 L 378.5 158.684211 M 396.9 176.447368 L 415.9 161.151316 L 400.7 150.789474 " transform="matrix(0.0390625,0,0,0.0395833,0,0)"/>
<path style="fill-rule:evenodd;fill:rgb(80.000001%,0%,0%);fill-opacity:1;stroke-width:1.25;stroke-linecap:butt;stroke-linejoin:miter;stroke:rgb(0%,0%,0%);stroke-opacity:1;stroke-miterlimit:4;" d="M 541.209245 1173.059558 L 539.662933 944.293881 L 478.583604 837.370792 C 463.120483 784.323679 470.852043 759.457844 495.593037 757.800122 C 520.334032 756.142399 545.075026 771.0619 580.640205 772.719622 C 616.205384 774.377345 609.246979 713.04162 661.821591 714.699342 C 714.396204 716.357064 806.401776 747.024927 884.490538 751.998094 C 962.579301 757.800122 1002.783416 725.474537 1093.242676 722.159092 C 1182.928779 718.014786 1206.896617 764.431011 1211.535553 764.431011 C 1216.947646 764.431011 1242.461796 745.367204 1267.975946 742.05176 C 1293.490096 738.736315 1301.994813 751.998094 1301.994813 751.998094 C 1301.994813 751.998094 1300.448501 810.018374 1288.078004 844.001681 C 1276.480663 877.984989 1233.957079 934.347547 1232.410767 934.347547 C 1230.864455 934.347547 1216.947646 1183.834753 1216.947646 1185.492476 C 1216.947646 1187.150198 541.209245 1178.032725 541.209245 1173.059558 Z M 541.209245 1173.059558 " transform="matrix(0.00505234,0,0,0.00471279,14.355469,8.530208)"/>
<path style="fill-rule:evenodd;fill:rgb(100%,94.509804%,0%);fill-opacity:1;stroke-width:1.25;stroke-linecap:butt;stroke-linejoin:miter;stroke:rgb(0%,0%,0%);stroke-opacity:1;stroke-miterlimit:4;" d="M 531.158028 584.888583 C 531.158028 584.888583 463.120294 532.67033 461.573982 407.512297 C 460.800826 335.401376 496.366005 283.183124 584.505796 283.183124 C 708.983923 283.183124 886.036661 336.230238 886.036661 336.230238 L 886.036661 354.465183 C 886.036661 354.465183 743.775946 301.418069 584.505796 301.418069 C 514.148594 301.418069 478.583415 352.807461 478.583415 406.683435 C 478.583415 495.371579 548.940617 584.888583 548.940617 584.888583 L 548.940617 726.62384 L 531.158028 726.62384 Z M 531.158028 584.888583 " transform="matrix(-0.00505234,0,0,0.00471279,23.304687,10.196667)"/>
<path style="fill-rule:evenodd;fill:rgb(100%,100%,100%);fill-opacity:1;stroke-width:1.25;stroke-linecap:butt;stroke-linejoin:miter;stroke:rgb(0%,0%,0%);stroke-opacity:1;stroke-miterlimit:4;" d="M 478.583604 549.269759 C 478.583604 555.900648 475.49098 562.531537 470.078887 565.846982 C 463.893639 569.162426 456.935234 569.162426 451.523142 565.846982 C 445.337893 562.531537 442.245269 555.900648 443.018425 549.269759 C 443.791581 540.152286 451.523142 532.692536 460.801015 532.692536 C 470.078887 532.692536 477.810448 540.152286 478.583604 549.269759 Z M 478.583604 549.269759 " transform="matrix(-0.00505234,0,0,0.00471279,23.222656,10.18875)"/>
<path style="fill-rule:evenodd;fill:rgb(100%,100%,100%);fill-opacity:1;stroke-width:1.25;stroke-linecap:butt;stroke-linejoin:miter;stroke:rgb(0%,0%,0%);stroke-opacity:1;stroke-miterlimit:4;" d="M 478.58351 548.971266 C 478.58351 555.602156 475.490885 562.233045 470.078793 565.548489 C 463.893544 568.863934 456.93514 568.863934 451.523047 565.548489 C 445.337799 562.233045 442.245175 555.602156 443.018331 548.971266 C 443.791487 539.853794 451.523047 532.394043 460.80092 532.394043 C 470.078793 532.394043 477.810354 539.853794 478.58351 548.971266 Z M 478.58351 548.971266 " transform="matrix(-0.00505234,0,0,0.00471279,23.3125,9.99875)"/>
<path style="fill-rule:evenodd;fill:rgb(100%,100%,100%);fill-opacity:1;stroke-width:1.25;stroke-linecap:butt;stroke-linejoin:miter;stroke:rgb(0%,0%,0%);stroke-opacity:1;stroke-miterlimit:4;" d="M 478.583604 549.52384 C 478.583604 556.15473 475.49098 561.956758 470.078887 566.101063 C 463.893639 569.416508 456.935234 569.416508 451.523142 566.101063 C 445.337893 561.956758 442.245269 556.15473 443.018425 549.52384 C 443.791581 539.577507 451.523142 532.946617 460.801015 532.946617 C 470.078887 532.946617 477.810448 539.577507 478.583604 549.52384 Z M 478.583604 549.52384 " transform="matrix(-0.00505234,0,0,0.00471279,23.359375,9.800834)"/>
<path style="fill-rule:evenodd;fill:rgb(100%,100%,100%);fill-opacity:1;stroke-width:1.25;stroke-linecap:butt;stroke-linejoin:miter;stroke:rgb(0%,0%,0%);stroke-opacity:1;stroke-miterlimit:4;" d="M 478.583793 549.269759 C 478.583793 555.900648 475.491169 562.531537 470.079076 565.846982 C 463.893828 569.162426 456.935423 569.162426 451.523331 565.846982 C 445.338082 562.531537 442.245458 555.900648 443.018614 549.269759 C 443.79177 540.152286 451.523331 532.692536 460.801203 532.692536 C 470.079076 532.692536 477.810637 540.152286 478.583793 549.269759 Z M 478.583793 549.269759 " transform="matrix(-0.00505234,0,0,0.00471279,23.394532,9.595)"/>
<path style="fill-rule:evenodd;fill:rgb(100%,100%,100%);fill-opacity:1;stroke-width:1.25;stroke-linecap:butt;stroke-linejoin:miter;stroke:rgb(0%,0%,0%);stroke-opacity:1;stroke-miterlimit:4;" d="M 478.583698 549.059704 C 478.583698 555.690593 475.491074 562.321482 470.078982 565.636927 C 463.893733 568.952371 456.935329 568.952371 451.523236 565.636927 C 445.337988 562.321482 442.245363 555.690593 443.018519 549.059704 C 443.791676 539.942231 451.523236 532.482481 460.801109 532.482481 C 470.078982 532.482481 477.810542 539.942231 478.583698 549.059704 Z M 478.583698 549.059704 " transform="matrix(-0.00505234,0,0,0.00471279,23.386719,9.373333)"/>
<path style="fill-rule:evenodd;fill:rgb(100%,100%,100%);fill-opacity:1;stroke-width:1.25;stroke-linecap:butt;stroke-linejoin:miter;stroke:rgb(0%,0%,0%);stroke-opacity:1;stroke-miterlimit:4;" d="M 478.583698 548.794391 C 478.583698 556.254142 475.491074 562.05617 470.078982 565.371614 C 463.893733 569.51592 456.935329 569.51592 451.523236 565.371614 C 445.337988 562.05617 442.245363 556.254142 443.018519 548.794391 C 443.791676 539.676919 451.523236 533.046029 460.801109 533.046029 C 470.078982 533.046029 477.810542 539.676919 478.583698 548.794391 Z M 478.583698 548.794391 " transform="matrix(-0.00505234,0,0,0.00471279,23.09375,10.358959)"/>
<path style="fill-rule:evenodd;fill:rgb(100%,100%,100%);fill-opacity:1;stroke-width:1.25;stroke-linecap:butt;stroke-linejoin:miter;stroke:rgb(0%,0%,0%);stroke-opacity:1;stroke-miterlimit:4;" d="M 478.583698 548.8277 C 478.583698 555.458589 475.491074 562.089478 470.078982 565.404923 C 463.893733 569.549228 456.935329 569.549228 451.523236 565.404923 C 445.337988 562.089478 442.245363 555.458589 443.018519 548.8277 C 443.791676 539.710227 451.523236 533.079338 460.801109 533.079338 C 470.078982 533.079338 477.810542 539.710227 478.583698 548.8277 Z M 478.583698 548.8277 " transform="matrix(-0.00505234,0,0,0.00471279,23.308594,9.159583)"/>
<path style="fill-rule:evenodd;fill:rgb(100%,100%,100%);fill-opacity:1;stroke-width:1.25;stroke-linecap:butt;stroke-linejoin:miter;stroke:rgb(0%,0%,0%);stroke-opacity:1;stroke-miterlimit:4;" d="M 478.583604 549.302811 C 478.583604 555.9337 475.49098 562.564589 470.078887 565.880034 C 463.893639 569.195478 456.935234 569.195478 451.523142 565.880034 C 445.337893 562.564589 442.245269 555.9337 443.018425 549.302811 C 443.791581 540.185338 451.523142 532.725588 460.801015 532.725588 C 470.078887 532.725588 477.810448 540.185338 478.583604 549.302811 Z M 478.583604 549.302811 " transform="matrix(-0.00505234,0,0,0.00471279,23.144531,8.989375)"/>
<path style="fill-rule:evenodd;fill:rgb(100%,100%,100%);fill-opacity:1;stroke-width:1.25;stroke-linecap:butt;stroke-linejoin:miter;stroke:rgb(0%,0%,0%);stroke-opacity:1;stroke-miterlimit:4;" d="M 478.58351 549.612278 C 478.58351 556.243167 475.490885 562.045195 470.078793 565.36064 C 463.893544 569.504946 456.93514 569.504946 451.523047 565.36064 C 445.337799 562.045195 442.245175 556.243167 443.018331 549.612278 C 443.791487 539.665944 451.523047 533.035055 460.80092 533.035055 C 470.078793 533.035055 477.810354 539.665944 478.58351 549.612278 Z M 478.58351 549.612278 " transform="matrix(-0.00505234,0,0,0.00471279,22.921875,8.878542)"/>
<path style="fill-rule:evenodd;fill:rgb(100%,100%,100%);fill-opacity:1;stroke-width:1.25;stroke-linecap:butt;stroke-linejoin:miter;stroke:rgb(0%,0%,0%);stroke-opacity:1;stroke-miterlimit:4;" d="M 478.583604 548.8277 C 478.583604 555.458589 475.49098 562.089478 470.078887 565.404923 C 463.893639 569.549228 456.935234 569.549228 451.523142 565.404923 C 445.337893 562.089478 442.245269 555.458589 443.018425 548.8277 C 443.791581 539.710227 451.523142 533.079338 460.801015 533.079338 C 470.078887 533.079338 477.810448 539.710227 478.583604 548.8277 Z M 478.583604 548.8277 " transform="matrix(-0.00505234,0,0,0.00471279,22.695312,8.862708)"/>
<path style="fill-rule:evenodd;fill:rgb(100%,100%,100%);fill-opacity:1;stroke-width:1.25;stroke-linecap:butt;stroke-linejoin:miter;stroke:rgb(0%,0%,0%);stroke-opacity:1;stroke-miterlimit:4;" d="M 478.583604 548.816597 C 478.583604 555.447486 475.49098 562.078375 470.078887 565.39382 C 463.893639 569.538126 456.935234 569.538126 451.523142 565.39382 C 445.337893 562.078375 442.245269 555.447486 443.018425 548.816597 C 443.791581 539.699124 451.523142 533.068235 460.801015 533.068235 C 470.078887 533.068235 477.810448 539.699124 478.583604 548.816597 Z M 478.583604 548.816597 " transform="matrix(-0.00505234,0,0,0.00471279,22.460938,8.866667)"/>
<path style="fill-rule:evenodd;fill:rgb(100%,100%,100%);fill-opacity:1;stroke-width:1.25;stroke-linecap:butt;stroke-linejoin:miter;stroke:rgb(0%,0%,0%);stroke-opacity:1;stroke-miterlimit:4;" d="M 478.58351 549.534943 C 478.58351 556.165832 475.490885 561.96786 470.078793 566.112166 C 463.893544 569.427611 456.93514 569.427611 451.523047 566.112166 C 445.337799 561.96786 442.245175 556.165832 443.018331 549.534943 C 443.791487 539.588609 451.523047 532.95772 460.80092 532.95772 C 470.078793 532.95772 477.810354 539.588609 478.58351 549.534943 Z M 478.58351 549.534943 " transform="matrix(-0.00505234,0,0,0.00471279,22.21875,8.90625)"/>
<path style="fill-rule:evenodd;fill:rgb(100%,100%,100%);fill-opacity:1;stroke-width:1.25;stroke-linecap:butt;stroke-linejoin:miter;stroke:rgb(0%,0%,0%);stroke-opacity:1;stroke-miterlimit:4;" d="M 478.583698 549.457608 C 478.583698 556.088498 475.491074 561.890526 470.078982 566.034831 C 463.893733 569.350276 456.935329 569.350276 451.523236 566.034831 C 445.337988 561.890526 442.245363 556.088498 443.018519 549.457608 C 443.791676 539.511275 451.523236 532.880385 460.801109 532.880385 C 470.078982 532.880385 477.810542 539.511275 478.583698 549.457608 Z M 478.583698 549.457608 " transform="matrix(-0.00505234,0,0,0.00471279,21.980469,8.933958)"/>
<path style="fill-rule:evenodd;fill:rgb(100%,100%,100%);fill-opacity:1;stroke-width:1.25;stroke-linecap:butt;stroke-linejoin:miter;stroke:rgb(0%,0%,0%);stroke-opacity:1;stroke-miterlimit:4;" d="M 478.583604 549.358068 C 478.583604 555.988957 475.49098 562.619847 470.078887 565.935291 C 463.893639 569.250736 456.935234 569.250736 451.523142 565.935291 C 445.337893 562.619847 442.245269 555.988957 443.018425 549.358068 C 443.791581 540.240596 451.523142 532.780845 460.801015 532.780845 C 470.078887 532.780845 477.810448 540.240596 478.583604 549.358068 Z M 478.583604 549.358068 " transform="matrix(-0.00505234,0,0,0.00471279,21.71875,8.969584)"/>
<path style="fill-rule:evenodd;fill:rgb(100%,100%,100%);fill-opacity:1;stroke-width:1.25;stroke-linecap:butt;stroke-linejoin:miter;stroke:rgb(0%,0%,0%);stroke-opacity:1;stroke-miterlimit:4;" d="M 478.583793 549.192296 C 478.583793 555.823185 475.491169 562.454074 470.079076 565.769519 C 463.893828 569.084964 456.935423 569.084964 451.523331 565.769519 C 445.338082 562.454074 442.245458 555.823185 443.018614 549.192296 C 443.79177 540.074823 451.523331 532.615073 460.801203 532.615073 C 470.079076 532.615073 477.810637 540.074823 478.583793 549.192296 Z M 478.583793 549.192296 " transform="matrix(-0.00505234,0,0,0.00471279,21.500001,9.028959)"/>
<path style="fill-rule:evenodd;fill:rgb(100%,100%,100%);fill-opacity:1;stroke-width:1.25;stroke-linecap:butt;stroke-linejoin:miter;stroke:rgb(0%,0%,0%);stroke-opacity:1;stroke-miterlimit:4;" d="M 478.583604 549.269759 C 478.583604 555.900648 475.49098 562.531537 470.078887 565.846982 C 463.893639 569.162426 456.935234 569.162426 451.523142 565.846982 C 445.337893 562.531537 442.245269 555.900648 443.018425 549.269759 C 443.791581 540.152286 451.523142 532.692536 460.801015 532.692536 C 470.078887 532.692536 477.810448 540.152286 478.583604 549.269759 Z M 478.583604 549.269759 " transform="matrix(0.00505234,0,0,0.00471279,14.433594,10.18875)"/>
<path style="fill-rule:evenodd;fill:rgb(100%,100%,100%);fill-opacity:1;stroke-width:1.25;stroke-linecap:butt;stroke-linejoin:miter;stroke:rgb(0%,0%,0%);stroke-opacity:1;stroke-miterlimit:4;" d="M 478.58351 548.971266 C 478.58351 555.602156 475.490885 562.233045 470.078793 565.548489 C 463.893544 568.863934 456.93514 568.863934 451.523047 565.548489 C 445.337799 562.233045 442.245175 555.602156 443.018331 548.971266 C 443.791487 539.853794 451.523047 532.394043 460.80092 532.394043 C 470.078793 532.394043 477.810354 539.853794 478.58351 548.971266 Z M 478.58351 548.971266 " transform="matrix(0.00505234,0,0,0.00471279,14.34375,9.99875)"/>
<path style="fill-rule:evenodd;fill:rgb(100%,100%,100%);fill-opacity:1;stroke-width:1.25;stroke-linecap:butt;stroke-linejoin:miter;stroke:rgb(0%,0%,0%);stroke-opacity:1;stroke-miterlimit:4;" d="M 478.583604 549.52384 C 478.583604 556.15473 475.49098 561.956758 470.078887 566.101063 C 463.893639 569.416508 456.935234 569.416508 451.523142 566.101063 C 445.337893 561.956758 442.245269 556.15473 443.018425 549.52384 C 443.791581 539.577507 451.523142 532.946617 460.801015 532.946617 C 470.078887 532.946617 477.810448 539.577507 478.583604 549.52384 Z M 478.583604 549.52384 " transform="matrix(0.00505234,0,0,0.00471279,14.296875,9.800834)"/>
<path style="fill-rule:evenodd;fill:rgb(100%,100%,100%);fill-opacity:1;stroke-width:1.25;stroke-linecap:butt;stroke-linejoin:miter;stroke:rgb(0%,0%,0%);stroke-opacity:1;stroke-miterlimit:4;" d="M 478.58351 549.269759 C 478.58351 555.900648 475.490885 562.531537 470.078793 565.846982 C 463.893544 569.162426 456.93514 569.162426 451.523047 565.846982 C 445.337799 562.531537 442.245175 555.900648 443.018331 549.269759 C 443.791487 540.152286 451.523047 532.692536 460.80092 532.692536 C 470.078793 532.692536 477.810354 540.152286 478.58351 549.269759 Z M 478.58351 549.269759 " transform="matrix(0.00505234,0,0,0.00471279,14.265625,9.595)"/>
<path style="fill-rule:evenodd;fill:rgb(100%,100%,100%);fill-opacity:1;stroke-width:1.25;stroke-linecap:butt;stroke-linejoin:miter;stroke:rgb(0%,0%,0%);stroke-opacity:1;stroke-miterlimit:4;" d="M 478.583651 549.059704 C 478.583651 555.690593 475.491027 562.321482 470.078935 565.636927 C 463.893686 568.952371 456.935281 568.952371 451.523189 565.636927 C 445.33794 562.321482 442.245316 555.690593 443.018472 549.059704 C 443.791628 539.942231 451.523189 532.482481 460.801062 532.482481 C 470.078935 532.482481 477.810495 539.942231 478.583651 549.059704 Z M 478.583651 549.059704 " transform="matrix(0.00505234,0,0,0.00471279,14.273437,9.373333)"/>
<path style="fill-rule:evenodd;fill:rgb(100%,100%,100%);fill-opacity:1;stroke-width:1.25;stroke-linecap:butt;stroke-linejoin:miter;stroke:rgb(0%,0%,0%);stroke-opacity:1;stroke-miterlimit:4;" d="M 478.583698 548.8277 C 478.583698 555.458589 475.491074 562.089478 470.078982 565.404923 C 463.893733 569.549228 456.935329 569.549228 451.523236 565.404923 C 445.337988 562.089478 442.245363 555.458589 443.018519 548.8277 C 443.791676 539.710227 451.523236 533.079338 460.801109 533.079338 C 470.078982 533.079338 477.810542 539.710227 478.583698 548.8277 Z M 478.583698 548.8277 " transform="matrix(0.00505234,0,0,0.00471279,14.347656,9.159583)"/>
<path style="fill-rule:evenodd;fill:rgb(100%,100%,100%);fill-opacity:1;stroke-width:1.25;stroke-linecap:butt;stroke-linejoin:miter;stroke:rgb(0%,0%,0%);stroke-opacity:1;stroke-miterlimit:4;" d="M 478.583651 549.302811 C 478.583651 555.9337 475.491027 562.564589 470.078935 565.880034 C 463.893686 569.195478 456.935281 569.195478 451.523189 565.880034 C 445.33794 562.564589 442.245316 555.9337 443.018472 549.302811 C 443.791628 540.185338 451.523189 532.725588 460.801062 532.725588 C 470.078935 532.725588 477.810495 540.185338 478.583651 549.302811 Z M 478.583651 549.302811 " transform="matrix(0.00505234,0,0,0.00471279,14.507812,8.989375)"/>
<path style="fill-rule:evenodd;fill:rgb(100%,100%,100%);fill-opacity:1;stroke-width:1.25;stroke-linecap:butt;stroke-linejoin:miter;stroke:rgb(0%,0%,0%);stroke-opacity:1;stroke-miterlimit:4;" d="M 478.58351 549.612278 C 478.58351 556.243167 475.490885 562.045195 470.078793 565.36064 C 463.893544 569.504946 456.93514 569.504946 451.523047 565.36064 C 445.337799 562.045195 442.245175 556.243167 443.018331 549.612278 C 443.791487 539.665944 451.523047 533.035055 460.80092 533.035055 C 470.078793 533.035055 477.810354 539.665944 478.58351 549.612278 Z M 478.58351 549.612278 " transform="matrix(0.00505234,0,0,0.00471279,14.734375,8.878542)"/>
<path style="fill-rule:evenodd;fill:rgb(100%,100%,100%);fill-opacity:1;stroke-width:1.25;stroke-linecap:butt;stroke-linejoin:miter;stroke:rgb(0%,0%,0%);stroke-opacity:1;stroke-miterlimit:4;" d="M 478.583651 548.8277 C 478.583651 555.458589 475.491027 562.089478 470.078935 565.404923 C 463.893686 569.549228 456.935281 569.549228 451.523189 565.404923 C 445.33794 562.089478 442.245316 555.458589 443.018472 548.8277 C 443.791628 539.710227 451.523189 533.079338 460.801062 533.079338 C 470.078935 533.079338 477.810495 539.710227 478.583651 548.8277 Z M 478.583651 548.8277 " transform="matrix(0.00505234,0,0,0.00471279,14.957031,8.862708)"/>
<path style="fill-rule:evenodd;fill:rgb(100%,100%,100%);fill-opacity:1;stroke-width:1.25;stroke-linecap:butt;stroke-linejoin:miter;stroke:rgb(0%,0%,0%);stroke-opacity:1;stroke-miterlimit:4;" d="M 478.583604 548.816597 C 478.583604 555.447486 475.49098 562.078375 470.078887 565.39382 C 463.893639 569.538126 456.935234 569.538126 451.523142 565.39382 C 445.337893 562.078375 442.245269 555.447486 443.018425 548.816597 C 443.791581 539.699124 451.523142 533.068235 460.801015 533.068235 C 470.078887 533.068235 477.810448 539.699124 478.583604 548.816597 Z M 478.583604 548.816597 " transform="matrix(0.00505234,0,0,0.00471279,15.195312,8.866667)"/>
<path style="fill-rule:evenodd;fill:rgb(100%,100%,100%);fill-opacity:1;stroke-width:1.25;stroke-linecap:butt;stroke-linejoin:miter;stroke:rgb(0%,0%,0%);stroke-opacity:1;stroke-miterlimit:4;" d="M 478.58351 549.534943 C 478.58351 556.165832 475.490885 561.96786 470.078793 566.112166 C 463.893544 569.427611 456.93514 569.427611 451.523047 566.112166 C 445.337799 561.96786 442.245175 556.165832 443.018331 549.534943 C 443.791487 539.588609 451.523047 532.95772 460.80092 532.95772 C 470.078793 532.95772 477.810354 539.588609 478.58351 549.534943 Z M 478.58351 549.534943 " transform="matrix(0.00505234,0,0,0.00471279,15.4375,8.90625)"/>
<path style="fill-rule:evenodd;fill:rgb(100%,100%,100%);fill-opacity:1;stroke-width:1.25;stroke-linecap:butt;stroke-linejoin:miter;stroke:rgb(0%,0%,0%);stroke-opacity:1;stroke-miterlimit:4;" d="M 478.583651 549.457608 C 478.583651 556.088498 475.491027 561.890526 470.078935 566.034831 C 463.893686 569.350276 456.935281 569.350276 451.523189 566.034831 C 445.33794 561.890526 442.245316 556.088498 443.018472 549.457608 C 443.791628 539.511275 451.523189 532.880385 460.801062 532.880385 C 470.078935 532.880385 477.810495 539.511275 478.583651 549.457608 Z M 478.583651 549.457608 " transform="matrix(0.00505234,0,0,0.00471279,15.679687,8.933958)"/>
<path style="fill-rule:evenodd;fill:rgb(100%,100%,100%);fill-opacity:1;stroke-width:1.25;stroke-linecap:butt;stroke-linejoin:miter;stroke:rgb(0%,0%,0%);stroke-opacity:1;stroke-miterlimit:4;" d="M 478.583651 549.358068 C 478.583651 555.988957 475.491027 562.619847 470.078935 565.935291 C 463.893686 569.250736 456.935281 569.250736 451.523189 565.935291 C 445.33794 562.619847 442.245316 555.988957 443.018472 549.358068 C 443.791628 540.240596 451.523189 532.780845 460.801062 532.780845 C 470.078935 532.780845 477.810495 540.240596 478.583651 549.358068 Z M 478.583651 549.358068 " transform="matrix(0.00505234,0,0,0.00471279,15.933594,8.969584)"/>
<path style="fill-rule:evenodd;fill:rgb(100%,100%,100%);fill-opacity:1;stroke-width:1.25;stroke-linecap:butt;stroke-linejoin:miter;stroke:rgb(0%,0%,0%);stroke-opacity:1;stroke-miterlimit:4;" d="M 478.583557 549.192296 C 478.583557 555.823185 475.490933 562.454074 470.07884 565.769519 C 463.893592 569.084964 456.935187 569.084964 451.523095 565.769519 C 445.337846 562.454074 442.245222 555.823185 443.018378 549.192296 C 443.791534 540.074823 451.523095 532.615073 460.800967 532.615073 C 470.07884 532.615073 477.810401 540.074823 478.583557 549.192296 Z M 478.583557 549.192296 " transform="matrix(0.00505234,0,0,0.00471279,16.15625,9.028959)"/>
<path style="fill-rule:evenodd;fill:rgb(100%,100%,100%);fill-opacity:1;stroke-width:1.25;stroke-linecap:butt;stroke-linejoin:miter;stroke:rgb(0%,0%,0%);stroke-opacity:1;stroke-miterlimit:4;" d="M 478.583698 548.794391 C 478.583698 556.254142 475.491074 562.05617 470.078982 565.371614 C 463.893733 569.51592 456.935329 569.51592 451.523236 565.371614 C 445.337988 562.05617 442.245363 556.254142 443.018519 548.794391 C 443.791676 539.676919 451.523236 533.046029 460.801109 533.046029 C 470.078982 533.046029 477.810542 539.676919 478.583698 548.794391 Z M 478.583698 548.794391 " transform="matrix(0.00505234,0,0,0.00471279,14.5625,10.358959)"/>
<path style="fill-rule:evenodd;fill:rgb(100%,94.509804%,0%);fill-opacity:1;stroke-width:1.25;stroke-linecap:butt;stroke-linejoin:miter;stroke:rgb(0%,0%,0%);stroke-opacity:1;stroke-miterlimit:4;" d="M 531.158216 584.888583 C 531.158216 584.888583 463.120483 532.67033 461.574171 407.512297 C 460.801015 335.401376 496.366194 283.183124 584.505985 283.183124 C 708.984111 283.183124 886.03685 336.230238 886.03685 336.230238 L 886.03685 354.465183 C 886.03685 354.465183 743.776134 301.418069 584.505985 301.418069 C 514.148783 301.418069 478.583604 352.807461 478.583604 406.683435 C 478.583604 495.371579 548.940806 584.888583 548.940806 584.888583 L 548.940806 726.62384 L 531.158216 726.62384 Z M 531.158216 584.888583 " transform="matrix(0.00505234,0,0,0.00471279,14.355469,10.196667)"/>
<path style="fill-rule:evenodd;fill:rgb(100%,94.509804%,0%);fill-opacity:1;stroke-width:3;stroke-linecap:butt;stroke-linejoin:miter;stroke:rgb(0%,0%,0%);stroke-opacity:1;stroke-miterlimit:4;" d="M 1241.01103 532.030454 C 1241.01103 532.030454 1254.928914 495.04563 1310.60045 495.04563 C 1350.034454 495.04563 1382.509517 532.030454 1382.509517 566.8397 L 1382.509517 638.633771 L 1417.304226 638.633771 L 1417.304226 566.8397 C 1417.304226 532.030454 1452.098936 495.04563 1489.213293 495.04563 C 1540.245534 495.04563 1558.802713 532.030454 1558.802713 532.030454 C 1558.802713 532.030454 1558.802713 425.427138 1489.213293 425.427138 C 1435.861405 425.427138 1417.304226 460.236384 1417.304226 460.236384 C 1417.304226 460.236384 1435.861405 408.022515 1435.861405 353.633068 C 1435.861405 301.419198 1398.747048 266.609952 1398.747048 266.609952 C 1398.747048 273.136686 1363.952338 301.419198 1363.952338 353.633068 C 1363.952338 408.022515 1382.509517 460.236384 1382.509517 460.236384 C 1382.509517 460.236384 1363.952338 425.427138 1310.60045 425.427138 C 1241.01103 425.427138 1241.01103 532.030454 1241.01103 532.030454 Z M 1241.01103 532.030454 " transform="matrix(0.00168398,0,0,0.0017955,15.574219,12.306458)"/>
<path style="fill-rule:evenodd;fill:rgb(100%,94.509804%,0%);fill-opacity:1;stroke-width:3;stroke-linecap:butt;stroke-linejoin:miter;stroke:rgb(0%,0%,0%);stroke-opacity:1;stroke-miterlimit:4;" d="M 1241.011314 532.030454 C 1241.011314 532.030454 1254.929197 495.04563 1310.600733 495.04563 C 1350.034737 495.04563 1382.5098 532.030454 1382.5098 566.8397 L 1382.5098 638.633771 L 1417.304509 638.633771 L 1417.304509 566.8397 C 1417.304509 532.030454 1452.099219 495.04563 1489.213576 495.04563 C 1540.245817 495.04563 1558.802996 532.030454 1558.802996 532.030454 C 1558.802996 532.030454 1558.802996 425.427138 1489.213576 425.427138 C 1435.861688 425.427138 1417.304509 460.236384 1417.304509 460.236384 C 1417.304509 460.236384 1435.861688 408.022515 1435.861688 353.633068 C 1435.861688 301.419198 1398.747331 266.609952 1398.747331 266.609952 C 1398.747331 273.136686 1363.952621 301.419198 1363.952621 353.633068 C 1363.952621 408.022515 1382.5098 460.236384 1382.5098 460.236384 C 1382.5098 460.236384 1363.952621 425.427138 1310.600733 425.427138 C 1241.011314 425.427138 1241.011314 532.030454 1241.011314 532.030454 Z M 1241.011314 532.030454 " transform="matrix(0.00168398,0,0,0.0017955,17.363281,12.306458)"/>
<path style="fill-rule:evenodd;fill:rgb(100%,94.509804%,0%);fill-opacity:1;stroke-width:1.25;stroke-linecap:butt;stroke-linejoin:miter;stroke:rgb(0%,0%,0%);stroke-opacity:1;stroke-miterlimit:4;" d="M 531.158216 832.718067 L 531.158216 673.576726 C 531.158216 673.576726 566.723395 726.62384 620.071164 726.62384 C 663.367904 726.62384 708.984111 655.341781 708.984111 655.341781 C 708.984111 655.341781 749.961383 708.388894 797.123903 708.388894 C 839.647486 708.388894 886.03685 640.42228 886.03685 640.42228 C 886.03685 640.42228 929.33359 708.388894 974.176642 708.388894 C 1019.792849 708.388894 1063.089589 655.341781 1063.089589 655.341781 C 1063.089589 655.341781 1109.478953 726.62384 1169.01197 726.62384 C 1222.359738 726.62384 1240.142328 673.576726 1240.142328 673.576726 L 1240.142328 832.718067 Z M 531.158216 832.718067 " transform="matrix(0.00505234,0,0,0.00471279,14.355469,10.196667)"/>
<path style="fill-rule:evenodd;fill:rgb(100%,94.509804%,0%);fill-opacity:1;stroke-width:1.25;stroke-linecap:butt;stroke-linejoin:miter;stroke:rgb(0%,0%,0%);stroke-opacity:1;stroke-miterlimit:4;" d="M 708.984111 832.718067 L 708.984111 708.388894 C 708.984111 708.388894 814.906492 744.029924 814.906492 832.718067 Z M 708.984111 832.718067 " transform="matrix(0.00505234,0,0,0.00471279,13.457031,10.196667)"/>
<path style="fill-rule:evenodd;fill:rgb(100%,94.509804%,0%);fill-opacity:1;stroke-width:1.25;stroke-linecap:butt;stroke-linejoin:miter;stroke:rgb(0%,0%,0%);stroke-opacity:1;stroke-miterlimit:4;" d="M 708.9843 832.718067 L 708.9843 708.388894 C 708.9843 708.388894 814.906681 744.029924 814.906681 832.718067 Z M 708.9843 832.718067 " transform="matrix(-0.00505234,0,0,0.00471279,24.195313,10.196667)"/>
<path style="fill-rule:evenodd;fill:rgb(100%,94.509804%,0%);fill-opacity:1;stroke-width:1.25;stroke-linecap:butt;stroke-linejoin:miter;stroke:rgb(0%,0%,0%);stroke-opacity:1;stroke-miterlimit:4;" d="M 602.288574 832.718067 C 602.288574 744.029924 708.984111 687.667366 708.984111 687.667366 C 708.984111 687.667366 814.906492 744.029924 814.906492 832.718067 Z M 602.288574 832.718067 " transform="matrix(0.00505234,0,0,0.00471279,14.355469,10.196667)"/>
<path style="fill-rule:evenodd;fill:rgb(100%,94.509804%,0%);fill-opacity:1;stroke-width:1.25;stroke-linecap:butt;stroke-linejoin:miter;stroke:rgb(0%,0%,0%);stroke-opacity:1;stroke-miterlimit:4;" d="M 602.288669 832.718067 C 602.288669 744.029924 708.984206 687.667366 708.984206 687.667366 C 708.984206 687.667366 814.906587 744.029924 814.906587 832.718067 Z M 602.288669 832.718067 " transform="matrix(0.00505234,0,0,0.00471279,16.144531,10.196667)"/>
<path style="fill-rule:evenodd;fill:rgb(100%,94.509804%,0%);fill-opacity:1;stroke-width:1.25;stroke-linecap:butt;stroke-linejoin:miter;stroke:rgb(0%,0%,0%);stroke-opacity:1;stroke-miterlimit:4;" d="M 584.506032 847.825545 C 584.506032 759.137402 708.984159 687.855343 708.984159 687.855343 C 708.984159 687.855343 832.689129 759.137402 832.689129 847.825545 Z M 584.506032 847.825545 " transform="matrix(0.00505234,0,0,0.00471279,15.25,10.129375)"/>
<path style="fill-rule:evenodd;fill:rgb(100%,100%,100%);fill-opacity:1;stroke-width:1.25;stroke-linecap:butt;stroke-linejoin:miter;stroke:rgb(0%,0%,0%);stroke-opacity:1;stroke-miterlimit:4;" d="M 1275.414381 655.49645 C 1240.225143 638.090366 1109.633971 619.855421 899.280526 619.855421 C 688.927081 619.855421 548.952112 638.090366 513.762874 655.49645 C 478.573637 672.902534 478.573637 708.543564 513.762874 726.778509 C 548.952112 744.184593 688.927081 761.590678 899.280526 761.590678 C 1109.633971 761.590678 1240.225143 744.184593 1275.414381 726.778509 C 1311.385602 708.543564 1311.385602 672.902534 1275.414381 655.49645 Z M 1275.414381 655.49645 " transform="matrix(0.00499531,0,0,0.00471279,14.335938,11.031875)"/>
<path style=" stroke:none;fill-rule:evenodd;fill:rgb(50.196081%,50.196081%,50.196081%);fill-opacity:1;" d="M 20.621094 14.457031 C 20.621094 14.621094 19.128906 14.621094 18.828125 14.621094 C 18.503906 14.621094 17.039062 14.667969 17.039062 14.457031 C 17.039062 14.289062 18.515625 14.289062 18.828125 14.289062 C 19.140625 14.289062 20.621094 14.320312 20.621094 14.457031 "/>
<path style=" stroke:none;fill-rule:evenodd;fill:rgb(80.000001%,0%,0%);fill-opacity:1;" d="M 17.21875 13.855469 C 17.21875 13.910156 17.179688 13.957031 17.128906 13.957031 C 17.078125 13.957031 17.039062 13.910156 17.039062 13.855469 C 17.039062 13.796875 17.078125 13.753906 17.128906 13.753906 C 17.179688 13.753906 17.21875 13.800781 17.21875 13.855469 M 20.617188 13.855469 C 20.617188 13.910156 20.578125 13.957031 20.527344 13.957031 C 20.476562 13.957031 20.4375 13.910156 20.4375 13.855469 C 20.4375 13.796875 20.476562 13.753906 20.527344 13.753906 C 20.578125 13.753906 20.617188 13.800781 20.617188 13.855469 "/>
<path style=" stroke:none;fill-rule:evenodd;fill:rgb(0%,0%,0%);fill-opacity:1;" d="M 19.007812 13.808594 C 19.007812 13.859375 18.925781 13.902344 18.828125 13.902344 C 18.730469 13.902344 18.648438 13.859375 18.648438 13.800781 C 18.648438 13.746094 18.726562 13.703125 18.828125 13.703125 C 18.929688 13.703125 19.007812 13.75 19.007812 13.800781 Z M 19.007812 13.808594 "/>
<path style=" stroke:none;fill-rule:evenodd;fill:rgb(0%,38.82353%,0%);fill-opacity:1;" d="M 19.867188 13.808594 C 19.867188 13.859375 19.804688 13.902344 19.730469 13.902344 C 19.65625 13.902344 19.597656 13.859375 19.597656 13.800781 C 19.597656 13.746094 19.660156 13.703125 19.730469 13.703125 C 19.800781 13.703125 19.867188 13.75 19.867188 13.800781 Z M 18.023438 13.808594 C 18.023438 13.859375 17.964844 13.902344 17.890625 13.902344 C 17.816406 13.902344 17.753906 13.859375 17.753906 13.800781 C 17.753906 13.746094 17.8125 13.703125 17.890625 13.703125 C 17.964844 13.703125 18.023438 13.75 18.023438 13.800781 Z M 18.023438 13.808594 "/>
<path style="fill-rule:evenodd;fill:rgb(100%,94.509804%,0%);fill-opacity:1;stroke-width:2.2;stroke-linecap:butt;stroke-linejoin:miter;stroke:rgb(0%,0%,0%);stroke-opacity:1;stroke-miterlimit:4;" d="M 1258.45747 495.935065 C 1258.45747 495.935065 1293.64015 443.721196 1328.822829 443.721196 L 1364.005509 443.721196 L 1364.005509 478.530442 C 1364.005509 532.194697 1311.231489 549.59932 1311.231489 549.59932 L 1453.315388 549.59932 C 1453.315388 549.59932 1399.188189 532.194697 1399.188189 478.530442 L 1399.188189 443.721196 L 1435.724048 443.721196 C 1470.906728 443.721196 1506.089408 495.935065 1506.089408 495.935065 L 1506.089408 353.79731 C 1506.089408 353.79731 1470.906728 407.461565 1435.724048 407.461565 L 1399.188189 407.461565 L 1399.188189 372.652318 C 1399.188189 318.988064 1453.315388 301.583441 1453.315388 301.583441 L 1311.231489 301.583441 C 1311.231489 301.583441 1364.005509 318.988064 1364.005509 372.652318 L 1364.005509 407.461565 L 1328.822829 407.461565 C 1293.64015 407.461565 1258.45747 353.79731 1258.45747 353.79731 Z M 1258.45747 495.935065 " transform="matrix(0.00288672,0,0,0.00269325,14.839844,11.894792)"/>
<path style="fill-rule:evenodd;fill:rgb(100%,94.509804%,0%);fill-opacity:1;stroke-width:3.3;stroke-linecap:butt;stroke-linejoin:miter;stroke:rgb(0%,0%,0%);stroke-opacity:1;stroke-miterlimit:4;" d="M 1382.575821 549.966156 L 1452.922144 549.966156 C 1452.922144 549.966156 1398.809588 531.731211 1398.809588 478.684097 L 1398.809588 442.214206 L 1433.98275 442.214206 C 1469.155911 442.214206 1507.034701 496.919042 1507.034701 496.919042 L 1507.034701 354.354924 C 1507.034701 354.354924 1469.155911 407.402038 1433.98275 407.402038 L 1398.809588 407.402038 L 1398.809588 372.58987 C 1398.809588 319.542756 1452.922144 301.307811 1452.922144 301.307811 L 1382.575821 301.307811 Z M 1382.575821 549.966156 " transform="matrix(0.00144375,0,0,0.0023564,15.039062,12.243125)"/>
<path style="fill-rule:evenodd;fill:rgb(100%,94.509804%,0%);fill-opacity:1;stroke-width:3.3;stroke-linecap:butt;stroke-linejoin:miter;stroke:rgb(0%,0%,0%);stroke-opacity:1;stroke-miterlimit:4;" d="M 1382.575821 549.966156 L 1452.922144 549.966156 C 1452.922144 549.966156 1398.809588 531.731211 1398.809588 478.684097 L 1398.809588 442.214206 L 1433.98275 442.214206 C 1469.155911 442.214206 1507.034701 496.919042 1507.034701 496.919042 L 1507.034701 354.354924 C 1507.034701 354.354924 1469.155911 407.402038 1433.98275 407.402038 L 1398.809588 407.402038 L 1398.809588 372.58987 C 1398.809588 319.542756 1452.922144 301.307811 1452.922144 301.307811 L 1382.575821 301.307811 Z M 1382.575821 549.966156 " transform="matrix(-0.00144375,0,0,0.0023564,22.617188,12.243125)"/>
<path style="fill-rule:evenodd;fill:rgb(100%,100%,100%);fill-opacity:1;stroke-width:1.25;stroke-linecap:butt;stroke-linejoin:miter;stroke:rgb(0%,0%,0%);stroke-opacity:1;stroke-miterlimit:4;" d="M 903.81944 602.294667 C 903.81944 612.241001 895.314723 619.700751 886.03685 619.700751 C 875.985821 619.700751 868.254261 612.241001 868.254261 602.294667 C 868.254261 592.348333 875.985821 584.888583 886.03685 584.888583 C 895.314723 584.888583 903.81944 592.348333 903.81944 602.294667 Z M 903.81944 602.294667 " transform="matrix(0.00505234,0,0,0.00471279,14.355469,10.196667)"/>
<path style="fill-rule:evenodd;fill:rgb(100%,94.509804%,0%);fill-opacity:1;stroke-width:2.2;stroke-linecap:butt;stroke-linejoin:miter;stroke:rgb(0%,0%,0%);stroke-opacity:1;stroke-miterlimit:4;" d="M 1258.45747 495.799517 C 1258.45747 495.799517 1293.64015 443.585647 1328.822829 443.585647 L 1364.005509 443.585647 L 1364.005509 478.394893 C 1364.005509 532.059148 1311.231489 549.463771 1311.231489 549.463771 L 1453.315388 549.463771 C 1453.315388 549.463771 1399.188189 532.059148 1399.188189 478.394893 L 1399.188189 443.585647 L 1435.724048 443.585647 C 1470.906728 443.585647 1506.089408 495.799517 1506.089408 495.799517 L 1506.089408 353.661761 C 1506.089408 353.661761 1470.906728 407.326016 1435.724048 407.326016 L 1399.188189 407.326016 L 1399.188189 372.51677 C 1399.188189 318.852515 1453.315388 301.447892 1453.315388 301.447892 L 1311.231489 301.447892 C 1311.231489 301.447892 1364.005509 318.852515 1364.005509 372.51677 L 1364.005509 407.326016 L 1328.822829 407.326016 C 1293.64015 407.326016 1258.45747 353.661761 1258.45747 353.661761 Z M 1258.45747 495.799517 " transform="matrix(0.00288672,0,0,0.00269325,14.839844,10.14125)"/>
<path style="fill-rule:evenodd;fill:rgb(100%,100%,100%);fill-opacity:1;stroke-width:1.25;stroke-linecap:butt;stroke-linejoin:miter;stroke:rgb(0%,0%,0%);stroke-opacity:1;stroke-miterlimit:4;" d="M 903.819345 602.173178 C 903.819345 612.119511 895.314629 620.408123 886.036756 620.408123 C 875.985727 620.408123 868.254166 612.119511 868.254166 602.173178 C 868.254166 592.226844 875.985727 584.767093 886.036756 584.767093 C 895.314629 584.767093 903.819345 592.226844 903.819345 602.173178 Z M 903.819345 602.173178 " transform="matrix(0.00505234,0,0,0.00471279,14.363282,8.458958)"/>
<path style="fill-rule:evenodd;fill:rgb(100%,94.509804%,0%);fill-opacity:1;stroke-width:1.25;stroke-linecap:butt;stroke-linejoin:miter;stroke:rgb(0%,0%,0%);stroke-opacity:1;stroke-miterlimit:4;" d="M 850.471671 655.8502 L 921.602029 655.8502 L 921.602029 708.897314 L 850.471671 708.897314 Z M 850.471671 655.8502 " transform="matrix(0.00505234,0,0,0.00471279,14.355469,8.530208)"/>
<path style="fill-rule:evenodd;fill:rgb(100%,94.509804%,0%);fill-opacity:1;stroke-width:1.25;stroke-linecap:butt;stroke-linejoin:miter;stroke:rgb(0%,0%,0%);stroke-opacity:1;stroke-miterlimit:4;" d="M 850.471671 683.202618 L 921.602029 683.202618 L 921.602029 885.444739 L 850.471671 885.444739 Z M 850.471671 683.202618 " transform="matrix(0.00505234,0,0,0.00471279,14.355469,8.530208)"/>
<path style="fill-rule:evenodd;fill:rgb(100%,100%,100%);fill-opacity:1;stroke-width:1.25;stroke-linecap:butt;stroke-linejoin:miter;stroke:rgb(0%,0%,0%);stroke-opacity:1;stroke-miterlimit:4;" d="M 478.583651 549.126064 C 478.583651 555.756953 475.491027 562.387842 470.078935 565.703287 C 463.893686 569.018732 456.935281 569.018732 451.523189 565.703287 C 445.33794 562.387842 442.245316 555.756953 443.018472 549.126064 C 443.791628 540.008591 451.523189 532.548841 460.801062 532.548841 C 470.078935 532.548841 477.810495 540.008591 478.583651 549.126064 Z M 478.583651 549.126064 " transform="matrix(0.00505234,0,0,0.00471279,16.5,9.943333)"/>
<path style="fill-rule:evenodd;fill:rgb(100%,100%,100%);fill-opacity:1;stroke-width:1.25;stroke-linecap:butt;stroke-linejoin:miter;stroke:rgb(0%,0%,0%);stroke-opacity:1;stroke-miterlimit:4;" d="M 478.583651 548.893932 C 478.583651 555.524821 475.491027 562.15571 470.078935 565.471155 C 463.893686 569.61546 456.935281 569.61546 451.523189 565.471155 C 445.33794 562.15571 442.245316 555.524821 443.018472 548.893932 C 443.791628 539.776459 451.523189 533.14557 460.801062 533.14557 C 470.078935 533.14557 477.810495 539.776459 478.583651 548.893932 Z M 478.583651 548.893932 " transform="matrix(0.00505234,0,0,0.00471279,16.5,9.729583)"/>
<path style="fill-rule:evenodd;fill:rgb(100%,100%,100%);fill-opacity:1;stroke-width:1.25;stroke-linecap:butt;stroke-linejoin:miter;stroke:rgb(0%,0%,0%);stroke-opacity:1;stroke-miterlimit:4;" d="M 478.583651 549.446506 C 478.583651 556.077395 475.491027 561.879423 470.078935 566.023729 C 463.893686 569.339173 456.935281 569.339173 451.523189 566.023729 C 445.33794 561.879423 442.245316 556.077395 443.018472 549.446506 C 443.791628 539.500172 451.523189 532.869283 460.801062 532.869283 C 470.078935 532.869283 477.810495 539.500172 478.583651 549.446506 Z M 478.583651 549.446506 " transform="matrix(0.00505234,0,0,0.00471279,16.5,9.531667)"/>
<path style="fill-rule:evenodd;fill:rgb(100%,100%,100%);fill-opacity:1;stroke-width:1.25;stroke-linecap:butt;stroke-linejoin:miter;stroke:rgb(0%,0%,0%);stroke-opacity:1;stroke-miterlimit:4;" d="M 478.583651 549.203399 C 478.583651 555.834288 475.491027 562.465177 470.078935 565.780622 C 463.893686 569.096066 456.935281 569.096066 451.523189 565.780622 C 445.33794 562.465177 442.245316 555.834288 443.018472 549.203399 C 443.791628 540.085926 451.523189 532.626176 460.801062 532.626176 C 470.078935 532.626176 477.810495 540.085926 478.583651 549.203399 Z M 478.583651 549.203399 " transform="matrix(0.00505234,0,0,0.00471279,16.5,9.321875)"/>
<path style=" stroke:none;fill-rule:evenodd;fill:rgb(0%,0%,0%);fill-opacity:1;" d="M 19.019531 14.125 C 19.019531 14.164062 18.9375 14.191406 18.832031 14.191406 C 18.726562 14.191406 18.65625 14.164062 18.65625 14.125 C 18.65625 14.082031 18.734375 14.054688 18.835938 14.054688 C 18.9375 14.054688 19.019531 14.085938 19.019531 14.125 M 20.664062 14.289062 C 20.652344 14.316406 20.5625 14.320312 20.464844 14.289062 C 20.363281 14.269531 20.292969 14.234375 20.300781 14.210938 C 20.3125 14.179688 20.402344 14.179688 20.5 14.203125 C 20.601562 14.226562 20.671875 14.261719 20.664062 14.289062 M 19.972656 14.179688 C 19.972656 14.210938 19.882812 14.230469 19.777344 14.226562 C 19.679688 14.21875 19.597656 14.1875 19.601562 14.148438 C 19.605469 14.117188 19.695312 14.097656 19.796875 14.109375 C 19.898438 14.117188 19.980469 14.144531 19.972656 14.179688 M 16.945312 14.289062 C 16.953125 14.316406 17.042969 14.320312 17.140625 14.289062 C 17.242188 14.269531 17.316406 14.234375 17.304688 14.210938 C 17.292969 14.179688 17.207031 14.179688 17.109375 14.203125 C 17.007812 14.226562 16.9375 14.261719 16.945312 14.289062 M 17.667969 14.164062 C 17.671875 14.195312 17.761719 14.214844 17.863281 14.207031 C 17.964844 14.199219 18.046875 14.167969 18.039062 14.132812 C 18.039062 14.105469 17.949219 14.078125 17.84375 14.085938 C 17.746094 14.09375 17.664062 14.128906 17.667969 14.164062 "/>
<path style=" stroke:none;fill-rule:nonzero;fill:rgb(0.392157%,12.941177%,41.176471%);fill-opacity:1;" d="M 0 0 L 12.5 0 L 12.5 9.5 L 0 9.5 Z M 0 0 "/>
<path style=" stroke:none;fill-rule:nonzero;fill:rgb(100%,100%,100%);fill-opacity:1;" d="M 1.464844 0 L 6.230469 3.582031 L 10.976562 0 L 12.5 0 L 12.5 1.226562 L 7.8125 4.769531 L 12.5 8.292969 L 12.5 9.5 L 10.9375 9.5 L 6.25 5.957031 L 1.582031 9.5 L 0 9.5 L 0 8.3125 L 4.667969 4.789062 L 0 1.265625 L 0 0 Z M 1.464844 0 "/>
<path style=" stroke:none;fill-rule:nonzero;fill:rgb(78.431374%,6.27451%,18.039216%);fill-opacity:1;" d="M 8.28125 5.5625 L 12.5 8.707031 L 12.5 9.5 L 7.207031 5.5625 Z M 4.6875 5.957031 L 4.804688 6.648438 L 1.054688 9.5 L 0 9.5 Z M 12.5 0 L 12.5 0.0585938 L 7.636719 3.78125 L 7.675781 2.910156 L 11.523438 0 Z M 0 0 L 4.667969 3.484375 L 3.496094 3.484375 L 0 0.832031 Z M 0 0 "/>
<path style=" stroke:none;fill-rule:nonzero;fill:rgb(100%,100%,100%);fill-opacity:1;" d="M 4.707031 0 L 4.707031 9.5 L 7.832031 9.5 L 7.832031 0 Z M 0 3.167969 L 0 6.332031 L 12.5 6.332031 L 12.5 3.167969 Z M 0 3.167969 "/>
<path style=" stroke:none;fill-rule:nonzero;fill:rgb(78.431374%,6.27451%,18.039216%);fill-opacity:1;" d="M 0 3.820312 L 0 5.71875 L 12.5 5.71875 L 12.5 3.820312 Z M 5.332031 0 L 5.332031 9.5 L 7.207031 9.5 L 7.207031 0 Z M 5.332031 0 "/>
</g>
</svg>
