<svg xmlns="http://www.w3.org/2000/svg" width="25" height="px" viewBox="0 0 25 19"><path d="M0 0h25v19H0z" style="fill:#fff;fill-opacity:1;stroke:none"/><path d="M25 16.473c-.281.265-.52.87-1.266.87-1.488 0-1.859-1.284-2.976-1.284-.742 0-1.113 1.285-1.86 1.285-1.488 0-1.859-1.285-2.976-1.285-.742 0-1.113 1.285-1.856 1.285-1.492 0-1.863-1.285-2.98-1.285-.742 0-1.117 1.285-1.86 1.285-1.488 0-1.859-1.285-2.976-1.285-.742 0-1.117 1.285-1.86 1.285-1.492 0-1.863-1.285-2.976-1.285-.742 0-.969.918-1.414.918v1.652c.445 0 .668-.91 1.418-.91C2.531 17.719 2.902 19 4.387 19c.746 0 1.117-1.285 1.863-1.285C7.367 17.715 7.738 19 9.23 19c.743 0 1.11-1.285 1.856-1.285 1.117 0 1.488 1.285 2.976 1.285.743 0 1.118-1.285 1.86-1.285 1.117 0 1.488 1.285 2.976 1.285.743 0 1.118-1.285 1.86-1.285 1.117 0 1.492 1.285 2.976 1.285.743 0 .985-.363 1.266-.625Zm0-3.211c-.281.265-.52.87-1.266.87-1.488 0-1.859-1.288-2.976-1.288-.742 0-1.113 1.289-1.86 1.289-1.488 0-1.859-1.29-2.976-1.29-.742 0-1.113 1.29-1.856 1.29-1.492 0-1.863-1.29-2.98-1.29-.742 0-1.117 1.29-1.86 1.29-1.488 0-1.859-1.29-2.976-1.29-.742 0-1.117 1.29-1.86 1.29-1.492 0-1.863-1.29-2.976-1.29-.742 0-.969.919-1.414.919v1.656c.445 0 .668-.914 1.418-.914 1.113 0 1.484 1.285 2.969 1.285.746 0 1.117-1.285 1.863-1.285 1.117 0 1.488 1.285 2.98 1.285.743 0 1.11-1.285 1.856-1.285 1.117 0 1.488 1.285 2.98 1.285.743 0 1.114-1.285 1.856-1.285 1.117 0 1.488 1.285 2.976 1.285.743 0 1.118-1.285 1.86-1.285 1.117 0 1.492 1.285 2.976 1.285.743 0 .985-.363 1.266-.625Zm0-3.211c-.281.265-.52.87-1.266.87-1.488 0-1.859-1.288-2.976-1.288-.742 0-1.113 1.289-1.86 1.289-1.488 0-1.859-1.29-2.976-1.29-.742 0-1.113 1.29-1.856 1.29-1.492 0-1.863-1.29-2.98-1.29-.742 0-1.117 1.29-1.86 1.29-1.488 0-1.859-1.29-2.976-1.29-.742 0-1.117 1.29-1.86 1.29-1.492 0-1.863-1.29-2.976-1.29-.742 0-.969.923-1.414.923v1.652c.445 0 .668-.918 1.418-.918 1.113 0 1.484 1.285 2.969 1.285.746 0 1.117-1.285 1.863-1.285 1.117 0 1.488 1.285 2.98 1.285.743 0 1.11-1.285 1.856-1.285 1.117 0 1.488 1.285 2.98 1.285.743 0 1.114-1.285 1.856-1.285 1.117 0 1.488 1.285 2.976 1.285.743 0 1.118-1.285 1.86-1.285 1.117 0 1.492 1.285 2.976 1.285.743 0 .985-.363 1.266-.625Zm0-3.211c-.281.262-.52.87-1.266.87-1.488 0-1.859-1.284-2.976-1.284-.742 0-1.113 1.285-1.86 1.285-1.488 0-1.859-1.285-2.976-1.285-.742 0-1.113 1.285-1.856 1.285-1.492 0-1.863-1.285-2.98-1.285-.742 0-1.117 1.285-1.86 1.285-1.488 0-1.859-1.285-2.976-1.285-.742 0-1.117 1.285-1.86 1.285-1.492 0-1.863-1.285-2.976-1.285-.742 0-.969.918-1.414.918v1.648c.445 0 .668-.91 1.418-.91 1.113 0 1.484 1.285 2.969 1.285.746 0 1.117-1.289 1.863-1.289 1.117 0 1.488 1.29 2.98 1.29.743 0 1.11-1.29 1.856-1.29 1.117 0 1.488 1.29 2.98 1.29.743 0 1.114-1.29 1.856-1.29 1.117 0 1.488 1.29 2.976 1.29.743 0 1.118-1.29 1.86-1.29 1.117 0 1.492 1.29 2.976 1.29.743 0 .985-.372 1.266-.634Zm0-3.219c-.281.266-.52.875-1.266.875-1.488 0-1.859-1.285-2.976-1.285-.742 0-1.113 1.285-1.86 1.285-1.488 0-1.859-1.285-2.976-1.285-.742 0-1.113 1.285-1.856 1.285-1.492 0-1.863-1.285-2.98-1.285-.742 0-1.117 1.285-1.86 1.285-1.488 0-1.859-1.285-2.976-1.285-.742 0-1.117 1.285-1.86 1.285-1.492 0-1.863-1.285-2.976-1.285-.742.004-.969.922-1.414.922v1.652c.445 0 .668-.914 1.414-.914 1.113 0 1.488 1.29 2.977 1.29.742 0 1.113-1.29 1.859-1.29 1.117 0 1.488 1.29 2.98 1.29.743 0 1.11-1.29 1.852-1.29 1.121 0 1.492 1.29 2.98 1.29.743 0 1.118-1.29 1.86-1.29 1.117 0 1.488 1.29 2.976 1.29.743 0 1.118-1.29 1.86-1.29 1.117 0 1.492 1.29 2.976 1.29.743 0 .985-.368 1.266-.63Zm0-3.207c-.281.262-.52.871-1.266.871C22.246 1.285 21.875 0 20.758 0c-.742 0-1.113 1.285-1.86 1.285C17.41 1.285 17.04 0 15.922 0c-.742 0-1.113 1.285-1.856 1.285-1.492 0-1.863-1.285-2.98-1.285-.742 0-1.117 1.285-1.86 1.285C7.735 1.285 7.368 0 6.25 0c-.742 0-1.117 1.285-1.86 1.285C2.899 1.285 2.528 0 1.415 0 .672 0 .445.918 0 .918v1.66c.445-.004.668-.914 1.414-.914 1.113 0 1.488 1.281 2.977 1.281.742 0 1.113-1.28 1.859-1.28 1.117 0 1.488 1.28 2.98 1.28.743 0 1.11-1.28 1.852-1.28 1.121 0 1.492 1.28 2.98 1.28.743 0 1.118-1.28 1.86-1.28 1.117 0 1.488 1.28 2.976 1.28.743 0 1.118-1.28 1.86-1.28 1.117 0 1.492 1.28 2.976 1.28.743 0 .985-.363 1.266-.625Zm0 0" style="stroke:none;fill-rule:evenodd;fill:#000063;fill-opacity:1"/><path d="m474.8 131.743-3.5 328.915c0 17.368 15.7 17.368 17.4 0l-3.5-328.915Zm0 0" style="fill-rule:evenodd;fill:#a24300;fill-opacity:1;stroke-width:2.1;stroke-linecap:butt;stroke-linejoin:miter;stroke:#fff;stroke-opacity:1;stroke-miterlimit:4" transform="scale(.03906 .03958)"/><path d="m510.7 254.013-11-11.94-2.6 12.138-4.7-17.468-4.5 8.783-.8-18.651-4.4 8.783-.8-18.553-4.4 8.783-2.5-21.908-4.4 8.783-2.6-21.81-4.5 8.883-2.5-21.908-1.3-11.053 2.2-4.243 5.8 2.072 9.1 8.684 18.3 17.369-11.3-4.244 18.3 17.369-11.4-4.244 18.3 17.27-11.4-4.244 16.6 14.014-11.3-4.145 16.5 14.013-11.3-4.243 12.6 15.197-13.1-7.599 3 14.31Zm0 0" style="fill-rule:evenodd;fill:#006d00;fill-opacity:1;stroke-width:1.8;stroke-linecap:butt;stroke-linejoin:miter;stroke:#fff;stroke-opacity:1;stroke-miterlimit:4" transform="scale(.03906 .03958)"/><path d="M510.7 254.013 462 162.632m33.1 28.125L469 175.559l-5.4 24.178" style="fill:none;stroke-width:.3;stroke-linecap:butt;stroke-linejoin:miter;stroke:#000;stroke-opacity:1;stroke-miterlimit:4" transform="scale(.03906 .03958)"/><path d="m502.2 203.783-26.3-15.099-5.3 24.08" style="fill:none;stroke-width:.3;stroke-linecap:butt;stroke-linejoin:miter;stroke:#000;stroke-opacity:1;stroke-miterlimit:4" transform="scale(.03906 .03958)"/><path d="m509.1 216.81-26.2-15-5.4 23.98" style="fill:none;stroke-width:.3;stroke-linecap:butt;stroke-linejoin:miter;stroke:#000;stroke-opacity:1;stroke-miterlimit:4" transform="scale(.03906 .03958)"/><path d="m514.3 226.678-24.5-11.842-7 20.92" style="fill:none;stroke-width:.3;stroke-linecap:butt;stroke-linejoin:miter;stroke:#000;stroke-opacity:1;stroke-miterlimit:4" transform="scale(.03906 .03958)"/><path d="m519.5 236.546-24.5-11.94-7 21.019" style="fill:none;stroke-width:.3;stroke-linecap:butt;stroke-linejoin:miter;stroke:#000;stroke-opacity:1;stroke-miterlimit:4" transform="scale(.03906 .03958)"/><path d="m520.8 247.401-22.3-16.184-1.4 22.994" style="fill:none;stroke-width:.3;stroke-linecap:butt;stroke-linejoin:miter;stroke:#000;stroke-opacity:1;stroke-miterlimit:4" transform="scale(.03906 .03958)"/><path d="m383 97.895 17.8 6.809-5.2-13.52 15.6 15.296-1.5-10.954 12.6 18.356-1.5-10.954 12.6 18.355-1.5-10.954 16.3 20.724-1.5-10.954L463 140.92l-1.4-11.053 16.2 20.823 8.2 10.362.7 5.526-6.7.592-14-4.243-28.2-8.685 13.3-1.184-28.1-8.684 13.3-1.086-28.1-8.684 13.3-1.184-24.4-6.217 13.3-1.086-24.4-6.217 13.3-1.184-21.5-9.276 17.1 1.283-11.8-12.73Zm0 0" style="fill-rule:evenodd;fill:#006d00;fill-opacity:1;stroke-width:2;stroke-linecap:butt;stroke-linejoin:miter;stroke:#fff;stroke-opacity:1;stroke-miterlimit:4" transform="scale(.03906 .03958)"/><path d="m383 97.895 103.7 68.684m-48.9-12.336 34.1 2.566-10.3-26.94" style="fill:none;stroke-width:.3;stroke-linecap:butt;stroke-linejoin:miter;stroke:#000;stroke-opacity:1;stroke-miterlimit:4" transform="scale(.03906 .03958)"/><path d="m423 144.375 34 2.664L446.7 120" style="fill:none;stroke-width:.3;stroke-linecap:butt;stroke-linejoin:miter;stroke:#000;stroke-opacity:1;stroke-miterlimit:4" transform="scale(.03906 .03958)"/><path d="m408.2 134.605 34 2.566-10.3-26.94" style="fill:none;stroke-width:.3;stroke-linecap:butt;stroke-linejoin:miter;stroke:#000;stroke-opacity:1;stroke-miterlimit:4" transform="scale(.03906 .03958)"/><path d="m397 127.204 30.5.099-6.7-24.375" style="fill:none;stroke-width:.3;stroke-linecap:butt;stroke-linejoin:miter;stroke:#000;stroke-opacity:1;stroke-miterlimit:4" transform="scale(.03906 .03958)"/><path d="m386 119.803 30.4.197-6.7-24.474" style="fill:none;stroke-width:.3;stroke-linecap:butt;stroke-linejoin:miter;stroke:#000;stroke-opacity:1;stroke-miterlimit:4" transform="scale(.03906 .03958)"/><path d="m377.8 109.44 31.1 5.626-13.2-23.882" style="fill:none;stroke-width:.3;stroke-linecap:butt;stroke-linejoin:miter;stroke:#000;stroke-opacity:1;stroke-miterlimit:4" transform="scale(.03906 .03958)"/><path d="M589.8 120.79 575 131.742l16.4 1.777-22.9 5.427 12.2 3.553-24.7 1.776 12.2 3.652-24.7 1.776 12.1 3.651-28.9 3.652 12.2 3.552-28.9 3.652 12.2 3.552-28.9 3.651-14.5 1.777-6-1.777 2.2-5.427 10.7-8.98 21.3-18.06-4.6 10.757 21.3-17.96-4.6 10.756 21.3-17.96-4.6 10.756 17.2-16.283-4.5 10.855 17-16.282-4.5 10.855 19-12.632-8.7 12.73 18.6-3.65Zm0 0" style="fill-rule:evenodd;fill:#006d00;fill-opacity:1;stroke-width:2;stroke-linecap:butt;stroke-linejoin:miter;stroke:#fff;stroke-opacity:1;stroke-miterlimit:4" transform="scale(.03906 .03958)"/><path d="m589.8 120.79-117 50.624m34.1-32.467-17.4 25.264 32.7 3.552" style="fill:none;stroke-width:.3;stroke-linecap:butt;stroke-linejoin:miter;stroke:#000;stroke-opacity:1;stroke-miterlimit:4" transform="scale(.03906 .03958)"/><path d="m523.7 131.743-17.5 25.264 32.7 3.552" style="fill:none;stroke-width:.3;stroke-linecap:butt;stroke-linejoin:miter;stroke:#000;stroke-opacity:1;stroke-miterlimit:4" transform="scale(.03906 .03958)"/><path d="m540.4 124.44-17.5 25.264 32.7 3.651" style="fill:none;stroke-width:.3;stroke-linecap:butt;stroke-linejoin:miter;stroke:#000;stroke-opacity:1;stroke-miterlimit:4" transform="scale(.03906 .03958)"/><path d="M553 119.013 539.7 142.5l28.5 5.428" style="fill:none;stroke-width:.3;stroke-linecap:butt;stroke-linejoin:miter;stroke:#000;stroke-opacity:1;stroke-miterlimit:4" transform="scale(.03906 .03958)"/><path d="m565.5 113.586-13.3 23.486 28.5 5.428" style="fill:none;stroke-width:.3;stroke-linecap:butt;stroke-linejoin:miter;stroke:#000;stroke-opacity:1;stroke-miterlimit:4" transform="scale(.03906 .03958)"/><path d="m580 111.81-19.4 21.71h30.7" style="fill:none;stroke-width:.3;stroke-linecap:butt;stroke-linejoin:miter;stroke:#000;stroke-opacity:1;stroke-miterlimit:4" transform="scale(.03906 .03958)"/><path d="M587.4 230.329 569 225l6.6 13.026-17.1-14.013 2.6 10.658-14.5-17.171 2.7 10.757-14.5-17.27 2.6 10.855-18.5-19.44 2.7 10.756-18.5-19.342 2.7 10.756-18.5-19.342-9.2-9.77-1.3-5.328 6.6-1.185 14.5 3.158 29 6.415-13.2 2.17 29 6.415-13.2 2.171 29 6.415-13.2 2.27 25 4.243-13.2 2.171 25 4.243-13.1 2.369 22.3 7.5h-17l13 12.04Zm0 0" style="fill-rule:evenodd;fill:#006d00;fill-opacity:1;stroke-width:2;stroke-linecap:butt;stroke-linejoin:miter;stroke:#fff;stroke-opacity:1;stroke-miterlimit:4" transform="scale(.03906 .03958)"/><path d="m587.4 230.329-110.6-60.197m50 8.388-34.2.197 13.2 25.954" style="fill:none;stroke-width:.3;stroke-linecap:butt;stroke-linejoin:miter;stroke:#000;stroke-opacity:1;stroke-miterlimit:4" transform="scale(.03906 .03958)"/><path d="m542.6 187.105-34.2.198 13.2 25.954" style="fill:none;stroke-width:.3;stroke-linecap:butt;stroke-linejoin:miter;stroke:#000;stroke-opacity:1;stroke-miterlimit:4" transform="scale(.03906 .03958)"/><path d="m558.4 195.69-34.2.198 13.2 26.053" style="fill:none;stroke-width:.3;stroke-linecap:butt;stroke-linejoin:miter;stroke:#000;stroke-opacity:1;stroke-miterlimit:4" transform="scale(.03906 .03958)"/><path d="m570.3 202.204-30.3 2.27 9.3 23.783" style="fill:none;stroke-width:.3;stroke-linecap:butt;stroke-linejoin:miter;stroke:#000;stroke-opacity:1;stroke-miterlimit:4" transform="scale(.03906 .03958)"/><path d="m582.2 208.717-30.3 2.171 9.2 23.783" style="fill:none;stroke-width:.3;stroke-linecap:butt;stroke-linejoin:miter;stroke:#000;stroke-opacity:1;stroke-miterlimit:4" transform="scale(.03906 .03958)"/><path d="m591.3 218.388-31.5-3.158 15.8 22.796" style="fill:none;stroke-width:.3;stroke-linecap:butt;stroke-linejoin:miter;stroke:#000;stroke-opacity:1;stroke-miterlimit:4" transform="scale(.03906 .03958)"/><path d="m395.2 236.645 9.3-13.027-14.1 2.073 17.4-9.869-11.1-.493 20-7.007-11.1-.592 20-7.006-11.1-.592 23-9.671-11.2-.494 23-9.67-11.1-.494 23-9.573 11.5-4.934 5.6.296-.4 5.33-6.3 10.36-12.6 20.823.8-10.559-12.6 20.724.7-10.658-12.6 20.822.7-10.658-9.6 18.257.7-10.658-9.6 18.257.7-10.658-12.2 15.394 3.7-13.125Zm0 0" style="fill-rule:evenodd;fill:#006d00;fill-opacity:1;stroke-width:1.8;stroke-linecap:butt;stroke-linejoin:miter;stroke:#fff;stroke-opacity:1;stroke-miterlimit:4" transform="scale(.03906 .03958)"/><path d="m395.2 236.645 83-71.053m-19.1 36.513 7.3-26.447-28.2 4.145" style="fill:none;stroke-width:.3;stroke-linecap:butt;stroke-linejoin:miter;stroke:#000;stroke-opacity:1;stroke-miterlimit:4" transform="scale(.03906 .03958)"/><path d="m447.2 212.27 7.3-26.349-28.2 3.947" style="fill:none;stroke-width:.3;stroke-linecap:butt;stroke-linejoin:miter;stroke:#000;stroke-opacity:1;stroke-miterlimit:4" transform="scale(.03906 .03958)"/><path d="m435.3 222.434 7.4-26.447-28.2 4.145" style="fill:none;stroke-width:.3;stroke-linecap:butt;stroke-linejoin:miter;stroke:#000;stroke-opacity:1;stroke-miterlimit:4" transform="scale(.03906 .03958)"/><path d="m426.4 230.033 4.4-23.882-25.2 1.58" style="fill:none;stroke-width:.3;stroke-linecap:butt;stroke-linejoin:miter;stroke:#000;stroke-opacity:1;stroke-miterlimit:4" transform="scale(.03906 .03958)"/><path d="m417.5 237.632 4.4-23.783-25.2 1.48" style="fill:none;stroke-width:.3;stroke-linecap:butt;stroke-linejoin:miter;stroke:#000;stroke-opacity:1;stroke-miterlimit:4" transform="scale(.03906 .03958)"/><path d="m406 242.368 10-23.486-25.6 6.809" style="fill:none;stroke-width:.3;stroke-linecap:butt;stroke-linejoin:miter;stroke:#000;stroke-opacity:1;stroke-miterlimit:4" transform="scale(.03906 .03958)"/><path d="m563 66.217-17.9 11.94-2.9-12.828-10.5 17.763-2-8.487-8.6 18.158-1.2-8.388-6.7 18.75-3.8-8.98-6.7 22.697-3.8-9.079-6.7 22.698-3.9-8.98-6.7 22.697-3.3 11.447 1.9 4.44 7.2-2.368 12.4-9.177 25-18.454-14.4 4.737 24.9-18.454-14.4 4.737 24.9-18.454-14.4 4.736 25-14.407-17 4.046L566 83.289l-16.3 4.244 19.7-15.592-17 8.092Zm0 0" style="fill-rule:evenodd;fill:#006d00;fill-opacity:1;stroke-width:2;stroke-linecap:butt;stroke-linejoin:miter;stroke:#fff;stroke-opacity:1;stroke-miterlimit:4" transform="scale(.03906 .03958)"/><path d="m556 72.73-25.8 22.204-50 65.132" style="fill:none;stroke-width:.3;stroke-linecap:butt;stroke-linejoin:miter;stroke:#000;stroke-opacity:1;stroke-miterlimit:4" transform="scale(.03906 .03958)"/><path d="m519.3 132.829-28.6 13.52-2.4-20.823" style="fill:none;stroke-width:.3;stroke-linecap:butt;stroke-linejoin:miter;stroke:#000;stroke-opacity:1;stroke-miterlimit:4" transform="scale(.03906 .03958)"/><path d="m530.2 119.21-29 13.422-2.3-20.823" style="fill:none;stroke-width:.3;stroke-linecap:butt;stroke-linejoin:miter;stroke:#000;stroke-opacity:1;stroke-miterlimit:4" transform="scale(.03906 .03958)"/><path d="m540.5 105.493-28.7 13.421-2.2-20.723" style="fill:none;stroke-width:.3;stroke-linecap:butt;stroke-linejoin:miter;stroke:#000;stroke-opacity:1;stroke-miterlimit:4" transform="scale(.03906 .03958)"/><path d="m549.1 95.329-26.8 9.868-3-16.973" style="fill:none;stroke-width:.3;stroke-linecap:butt;stroke-linejoin:miter;stroke:#000;stroke-opacity:1;stroke-miterlimit:4" transform="scale(.03906 .03958)"/><path d="m559 85.46-28.8 9.573-1-16.48" style="fill:none;stroke-width:.3;stroke-linecap:butt;stroke-linejoin:miter;stroke:#000;stroke-opacity:1;stroke-miterlimit:4" transform="scale(.03906 .03958)"/><path d="m562.8 76.184-26.6 13.619 5.2-20.625" style="fill:none;stroke-width:.3;stroke-linecap:butt;stroke-linejoin:miter;stroke:#000;stroke-opacity:1;stroke-miterlimit:4" transform="scale(.03906 .03958)"/><path d="m466.1 43.816 8 18.158 10.3-9.573-1.7 19.836 6.8-6.415-3.7 19.342 6-6.611-5.5 19.046 8.7-6.02-8 22.303 8.6-6.02-8 22.5 8.7-5.921-8 22.401-4 11.151-4.4 2.96-4.8-5.23-5-13.42-10-26.941 9.4 10.56-10.1-27.04 9.4 10.657-10-27.039 9.2 10.46-12.5-23.388 12 11.152-14.4-23.882 11.3 10.954-7.3-22.204 9.6 14.605Zm0 0" style="fill-rule:evenodd;fill:#006d00;fill-opacity:1;stroke-width:2;stroke-linecap:butt;stroke-linejoin:miter;stroke:#fff;stroke-opacity:1;stroke-miterlimit:4" transform="scale(.03906 .03958)"/><path d="m468.2 52.401 8.5 30.494 3.2 77.96" style="fill:none;stroke-width:.3;stroke-linecap:butt;stroke-linejoin:miter;stroke:#000;stroke-opacity:1;stroke-miterlimit:4" transform="scale(.03906 .03958)"/><path d="m463 120.197 16.2 24.277 14.7-16.678" style="fill:none;stroke-width:.3;stroke-linecap:butt;stroke-linejoin:miter;stroke:#000;stroke-opacity:1;stroke-miterlimit:4" transform="scale(.03906 .03958)"/><path d="m462 103.717 16.5 24.375 14.7-16.678" style="fill:none;stroke-width:.3;stroke-linecap:butt;stroke-linejoin:miter;stroke:#000;stroke-opacity:1;stroke-miterlimit:4" transform="scale(.03906 .03958)"/><path d="m461.5 87.336 16.4 24.375 14.4-16.678" style="fill:none;stroke-width:.3;stroke-linecap:butt;stroke-linejoin:miter;stroke:#000;stroke-opacity:1;stroke-miterlimit:4" transform="scale(.03906 .03958)"/><path d="m460.4 74.901 16.8 20.428 13-13.026" style="fill:none;stroke-width:.3;stroke-linecap:butt;stroke-linejoin:miter;stroke:#000;stroke-opacity:1;stroke-miterlimit:4" transform="scale(.03906 .03958)"/><path d="m458 61.974 18.7 21.02 11-13.619" style="fill:none;stroke-width:.3;stroke-linecap:butt;stroke-linejoin:miter;stroke:#000;stroke-opacity:1;stroke-miterlimit:4" transform="scale(.03906 .03958)"/><path d="m460.3 52.401 14.4 23.487 8.1-19.934" style="fill:none;stroke-width:.3;stroke-linecap:butt;stroke-linejoin:miter;stroke:#000;stroke-opacity:1;stroke-miterlimit:4" transform="scale(.03906 .03958)"/><path d="m359 178.026 23.3-16.184-11.7-6.02 20.5 3.356-7-9.277 19.8 7.5-7-9.276 19.9 7.401-7-9.177 24 8.092-7-9.375 23.3 12.138-7-9.276 24 8.19 11.7 6.02 3.5 4.54-4.7 3.355-12.9 1.776-20.7 8.586 3.8-7.402-25.7 3.652 9.3-6.415-26.3 7.599 9.4-6.513-22.2 8.29 9.9-10.363-22.8 12.139 10-10.362-18.8 13.026 10.5-14.408Zm0 0" style="fill-rule:evenodd;fill:#006d00;fill-opacity:1;stroke-width:1.9;stroke-linecap:butt;stroke-linejoin:miter;stroke:#fff;stroke-opacity:1;stroke-miterlimit:4" transform="scale(.03906 .03958)"/><path d="m366.3 173.586 24.2-10.461 12.9-1.776 10.7-.296 18.5 1.283 16.7.69 33 3.652" style="fill:none;stroke-width:.3;stroke-linecap:butt;stroke-linejoin:miter;stroke:#000;stroke-opacity:1;stroke-miterlimit:4" transform="scale(.03906 .03958)"/><path d="m447.2 176.94 18.5-11.447-18.8-14.704" style="fill:none;stroke-width:.3;stroke-linecap:butt;stroke-linejoin:miter;stroke:#000;stroke-opacity:1;stroke-miterlimit:4" transform="scale(.03906 .03958)"/><path d="m426.5 175.164 22.7-12.138-18.7-14.802" style="fill:none;stroke-width:.3;stroke-linecap:butt;stroke-linejoin:miter;stroke:#000;stroke-opacity:1;stroke-miterlimit:4" transform="scale(.03906 .03958)"/><path d="m411.7 174.77 20.9-12.434-19-13.718m-29.5 29.606 19.3-16.875-15.6-8.586" style="fill:none;stroke-width:.3;stroke-linecap:butt;stroke-linejoin:miter;stroke:#000;stroke-opacity:1;stroke-miterlimit:4" transform="scale(.03906 .03958)"/><path d="m375.5 179.31 15-16.086-12-4.54m18.4 17.763 19-15.296-15.2-10.362" style="fill:none;stroke-width:.3;stroke-linecap:butt;stroke-linejoin:miter;stroke:#000;stroke-opacity:1;stroke-miterlimit:4" transform="scale(.03906 .03958)"/><path d="m541.21 1173.06-1.547-228.766-61.08-106.923c-15.463-53.047-7.731-77.913 17.01-79.57 24.741-1.659 49.482 13.26 85.047 14.919 35.565 1.657 28.607-59.678 81.182-58.02 52.574 1.657 144.58 32.325 222.669 37.298 78.088 5.802 118.292-26.523 208.752-29.839 89.686-4.144 113.654 42.272 118.293 42.272 5.412 0 30.926-19.064 56.44-22.38s34.019 9.947 34.019 9.947-1.546 58.02-13.917 92.004c-11.597 33.983-54.12 90.346-55.667 90.346s-15.463 249.487-15.463 251.144-675.739-7.46-675.739-12.432Zm0 0" style="fill-rule:evenodd;fill:#c00;fill-opacity:1;stroke-width:1.25;stroke-linecap:butt;stroke-linejoin:miter;stroke:#000;stroke-opacity:1;stroke-miterlimit:4" transform="matrix(.00505 0 0 .00471 14.355 8.53)"/><path d="M531.158 584.889s-68.038-52.219-69.584-177.377c-.773-72.11 34.792-124.329 122.932-124.329 124.478 0 301.53 53.047 301.53 53.047v18.235s-142.26-53.047-301.53-53.047c-70.357 0-105.923 51.39-105.923 105.265 0 88.689 70.358 178.206 70.358 178.206v141.735h-17.783Zm0 0" style="fill-rule:evenodd;fill:#fff100;fill-opacity:1;stroke-width:1.25;stroke-linecap:butt;stroke-linejoin:miter;stroke:#000;stroke-opacity:1;stroke-miterlimit:4" transform="matrix(-.00505 0 0 .00471 23.305 10.197)"/><path d="M478.584 549.27c0 6.63-3.093 13.262-8.505 16.577-6.185 3.315-13.144 3.315-18.556 0-6.185-3.315-9.278-9.946-8.505-16.577.774-9.118 8.505-16.577 17.783-16.577s17.01 7.46 17.783 16.577Zm0 0" style="fill-rule:evenodd;fill:#fff;fill-opacity:1;stroke-width:1.25;stroke-linecap:butt;stroke-linejoin:miter;stroke:#000;stroke-opacity:1;stroke-miterlimit:4" transform="matrix(-.00505 0 0 .00471 23.223 10.189)"/><path d="M478.584 548.971c0 6.631-3.093 13.262-8.505 16.577-6.185 3.316-13.144 3.316-18.556 0-6.185-3.315-9.278-9.946-8.505-16.577.773-9.117 8.505-16.577 17.783-16.577s17.01 7.46 17.783 16.577Zm0 0" style="fill-rule:evenodd;fill:#fff;fill-opacity:1;stroke-width:1.25;stroke-linecap:butt;stroke-linejoin:miter;stroke:#000;stroke-opacity:1;stroke-miterlimit:4" transform="matrix(-.00505 0 0 .00471 23.313 9.999)"/><path d="M478.584 549.524c0 6.63-3.093 12.433-8.505 16.577-6.185 3.316-13.144 3.316-18.556 0-6.185-4.144-9.278-9.946-8.505-16.577.774-9.946 8.505-16.577 17.783-16.577s17.01 6.63 17.783 16.577Zm0 0" style="fill-rule:evenodd;fill:#fff;fill-opacity:1;stroke-width:1.25;stroke-linecap:butt;stroke-linejoin:miter;stroke:#000;stroke-opacity:1;stroke-miterlimit:4" transform="matrix(-.00505 0 0 .00471 23.36 9.8)"/><path d="M478.584 549.27c0 6.63-3.093 13.262-8.505 16.577-6.185 3.315-13.144 3.315-18.556 0-6.185-3.315-9.278-9.946-8.504-16.577.773-9.118 8.504-16.577 17.782-16.577s17.01 7.46 17.783 16.577Zm0 0" style="fill-rule:evenodd;fill:#fff;fill-opacity:1;stroke-width:1.25;stroke-linecap:butt;stroke-linejoin:miter;stroke:#000;stroke-opacity:1;stroke-miterlimit:4" transform="matrix(-.00505 0 0 .00471 23.395 9.595)"/><path d="M478.584 549.06c0 6.63-3.093 13.261-8.505 16.577-6.185 3.315-13.144 3.315-18.556 0-6.185-3.316-9.278-9.946-8.504-16.577.773-9.118 8.504-16.578 17.782-16.578s17.01 7.46 17.783 16.578Zm0 0" style="fill-rule:evenodd;fill:#fff;fill-opacity:1;stroke-width:1.25;stroke-linecap:butt;stroke-linejoin:miter;stroke:#000;stroke-opacity:1;stroke-miterlimit:4" transform="matrix(-.00505 0 0 .00471 23.387 9.373)"/><path d="M478.584 548.794c0 7.46-3.093 13.262-8.505 16.578-6.185 4.144-13.144 4.144-18.556 0-6.185-3.316-9.278-9.118-8.504-16.578.773-9.117 8.504-15.748 17.782-15.748s17.01 6.63 17.783 15.748Zm0 0" style="fill-rule:evenodd;fill:#fff;fill-opacity:1;stroke-width:1.25;stroke-linecap:butt;stroke-linejoin:miter;stroke:#000;stroke-opacity:1;stroke-miterlimit:4" transform="matrix(-.00505 0 0 .00471 23.094 10.359)"/><path d="M478.584 548.828c0 6.63-3.093 13.261-8.505 16.577-6.185 4.144-13.144 4.144-18.556 0-6.185-3.316-9.278-9.946-8.504-16.577.773-9.118 8.504-15.749 17.782-15.749s17.01 6.631 17.783 15.749Zm0 0" style="fill-rule:evenodd;fill:#fff;fill-opacity:1;stroke-width:1.25;stroke-linecap:butt;stroke-linejoin:miter;stroke:#000;stroke-opacity:1;stroke-miterlimit:4" transform="matrix(-.00505 0 0 .00471 23.309 9.16)"/><path d="M478.584 549.303c0 6.63-3.093 13.262-8.505 16.577-6.185 3.315-13.144 3.315-18.556 0-6.185-3.315-9.278-9.946-8.505-16.577.774-9.118 8.505-16.577 17.783-16.577s17.01 7.46 17.783 16.577Zm0 0" style="fill-rule:evenodd;fill:#fff;fill-opacity:1;stroke-width:1.25;stroke-linecap:butt;stroke-linejoin:miter;stroke:#000;stroke-opacity:1;stroke-miterlimit:4" transform="matrix(-.00505 0 0 .00471 23.145 8.99)"/><path d="M478.584 549.612c0 6.631-3.093 12.433-8.505 15.749-6.185 4.144-13.144 4.144-18.556 0-6.185-3.316-9.278-9.118-8.505-15.749.773-9.946 8.505-16.577 17.783-16.577s17.01 6.63 17.783 16.577Zm0 0" style="fill-rule:evenodd;fill:#fff;fill-opacity:1;stroke-width:1.25;stroke-linecap:butt;stroke-linejoin:miter;stroke:#000;stroke-opacity:1;stroke-miterlimit:4" transform="matrix(-.00505 0 0 .00471 22.922 8.879)"/><path d="M478.584 548.828c0 6.63-3.093 13.261-8.505 16.577-6.185 4.144-13.144 4.144-18.556 0-6.185-3.316-9.278-9.946-8.505-16.577.774-9.118 8.505-15.749 17.783-15.749s17.01 6.631 17.783 15.749Zm0 0" style="fill-rule:evenodd;fill:#fff;fill-opacity:1;stroke-width:1.25;stroke-linecap:butt;stroke-linejoin:miter;stroke:#000;stroke-opacity:1;stroke-miterlimit:4" transform="matrix(-.00505 0 0 .00471 22.695 8.863)"/><path d="M478.584 548.817c0 6.63-3.093 13.261-8.505 16.577-6.185 4.144-13.144 4.144-18.556 0-6.185-3.316-9.278-9.947-8.505-16.577.774-9.118 8.505-15.749 17.783-15.749s17.01 6.631 17.783 15.749Zm0 0" style="fill-rule:evenodd;fill:#fff;fill-opacity:1;stroke-width:1.25;stroke-linecap:butt;stroke-linejoin:miter;stroke:#000;stroke-opacity:1;stroke-miterlimit:4" transform="matrix(-.00505 0 0 .00471 22.46 8.867)"/><path d="M478.584 549.535c0 6.63-3.093 12.433-8.505 16.577-6.185 3.316-13.144 3.316-18.556 0-6.185-4.144-9.278-9.946-8.505-16.577.773-9.946 8.505-16.577 17.783-16.577s17.01 6.63 17.783 16.577Zm0 0" style="fill-rule:evenodd;fill:#fff;fill-opacity:1;stroke-width:1.25;stroke-linecap:butt;stroke-linejoin:miter;stroke:#000;stroke-opacity:1;stroke-miterlimit:4" transform="matrix(-.00505 0 0 .00471 22.219 8.906)"/><path d="M478.584 549.458c0 6.63-3.093 12.433-8.505 16.577-6.185 3.315-13.144 3.315-18.556 0-6.185-4.144-9.278-9.947-8.504-16.577.773-9.947 8.504-16.578 17.782-16.578s17.01 6.631 17.783 16.578Zm0 0" style="fill-rule:evenodd;fill:#fff;fill-opacity:1;stroke-width:1.25;stroke-linecap:butt;stroke-linejoin:miter;stroke:#000;stroke-opacity:1;stroke-miterlimit:4" transform="matrix(-.00505 0 0 .00471 21.98 8.934)"/><path d="M478.584 549.358c0 6.631-3.093 13.262-8.505 16.577-6.185 3.316-13.144 3.316-18.556 0-6.185-3.315-9.278-9.946-8.505-16.577.774-9.117 8.505-16.577 17.783-16.577s17.01 7.46 17.783 16.577Zm0 0" style="fill-rule:evenodd;fill:#fff;fill-opacity:1;stroke-width:1.25;stroke-linecap:butt;stroke-linejoin:miter;stroke:#000;stroke-opacity:1;stroke-miterlimit:4" transform="matrix(-.00505 0 0 .00471 21.719 8.97)"/><path d="M478.584 549.192c0 6.631-3.093 13.262-8.505 16.578-6.185 3.315-13.144 3.315-18.556 0-6.185-3.316-9.278-9.947-8.504-16.578.773-9.117 8.504-16.577 17.782-16.577s17.01 7.46 17.783 16.577Zm0 0" style="fill-rule:evenodd;fill:#fff;fill-opacity:1;stroke-width:1.25;stroke-linecap:butt;stroke-linejoin:miter;stroke:#000;stroke-opacity:1;stroke-miterlimit:4" transform="matrix(-.00505 0 0 .00471 21.5 9.029)"/><path d="M478.584 549.27c0 6.63-3.093 13.262-8.505 16.577-6.185 3.315-13.144 3.315-18.556 0-6.185-3.315-9.278-9.946-8.505-16.577.774-9.118 8.505-16.577 17.783-16.577s17.01 7.46 17.783 16.577Zm0 0" style="fill-rule:evenodd;fill:#fff;fill-opacity:1;stroke-width:1.25;stroke-linecap:butt;stroke-linejoin:miter;stroke:#000;stroke-opacity:1;stroke-miterlimit:4" transform="matrix(.00505 0 0 .00471 14.434 10.189)"/><path d="M478.584 548.971c0 6.631-3.093 13.262-8.505 16.577-6.185 3.316-13.144 3.316-18.556 0-6.185-3.315-9.278-9.946-8.505-16.577.773-9.117 8.505-16.577 17.783-16.577s17.01 7.46 17.783 16.577Zm0 0" style="fill-rule:evenodd;fill:#fff;fill-opacity:1;stroke-width:1.25;stroke-linecap:butt;stroke-linejoin:miter;stroke:#000;stroke-opacity:1;stroke-miterlimit:4" transform="matrix(.00505 0 0 .00471 14.344 9.999)"/><path d="M478.584 549.524c0 6.63-3.093 12.433-8.505 16.577-6.185 3.316-13.144 3.316-18.556 0-6.185-4.144-9.278-9.946-8.505-16.577.774-9.946 8.505-16.577 17.783-16.577s17.01 6.63 17.783 16.577Zm0 0" style="fill-rule:evenodd;fill:#fff;fill-opacity:1;stroke-width:1.25;stroke-linecap:butt;stroke-linejoin:miter;stroke:#000;stroke-opacity:1;stroke-miterlimit:4" transform="matrix(.00505 0 0 .00471 14.297 9.8)"/><path d="M478.584 549.27c0 6.63-3.093 13.262-8.505 16.577-6.185 3.315-13.144 3.315-18.556 0-6.185-3.315-9.278-9.946-8.505-16.577.773-9.118 8.505-16.577 17.783-16.577s17.01 7.46 17.783 16.577Zm0 0" style="fill-rule:evenodd;fill:#fff;fill-opacity:1;stroke-width:1.25;stroke-linecap:butt;stroke-linejoin:miter;stroke:#000;stroke-opacity:1;stroke-miterlimit:4" transform="matrix(.00505 0 0 .00471 14.266 9.595)"/><path d="M478.584 549.06c0 6.63-3.093 13.261-8.505 16.577-6.185 3.315-13.144 3.315-18.556 0-6.185-3.316-9.278-9.946-8.505-16.577.774-9.118 8.505-16.578 17.783-16.578s17.01 7.46 17.783 16.578Zm0 0" style="fill-rule:evenodd;fill:#fff;fill-opacity:1;stroke-width:1.25;stroke-linecap:butt;stroke-linejoin:miter;stroke:#000;stroke-opacity:1;stroke-miterlimit:4" transform="matrix(.00505 0 0 .00471 14.273 9.373)"/><path d="M478.584 548.828c0 6.63-3.093 13.261-8.505 16.577-6.185 4.144-13.144 4.144-18.556 0-6.185-3.316-9.278-9.946-8.504-16.577.773-9.118 8.504-15.749 17.782-15.749s17.01 6.631 17.783 15.749Zm0 0" style="fill-rule:evenodd;fill:#fff;fill-opacity:1;stroke-width:1.25;stroke-linecap:butt;stroke-linejoin:miter;stroke:#000;stroke-opacity:1;stroke-miterlimit:4" transform="matrix(.00505 0 0 .00471 14.348 9.16)"/><path d="M478.584 549.303c0 6.63-3.093 13.262-8.505 16.577-6.185 3.315-13.144 3.315-18.556 0-6.185-3.315-9.278-9.946-8.505-16.577.774-9.118 8.505-16.577 17.783-16.577s17.01 7.46 17.783 16.577Zm0 0" style="fill-rule:evenodd;fill:#fff;fill-opacity:1;stroke-width:1.25;stroke-linecap:butt;stroke-linejoin:miter;stroke:#000;stroke-opacity:1;stroke-miterlimit:4" transform="matrix(.00505 0 0 .00471 14.508 8.99)"/><path d="M478.584 549.612c0 6.631-3.093 12.433-8.505 15.749-6.185 4.144-13.144 4.144-18.556 0-6.185-3.316-9.278-9.118-8.505-15.749.773-9.946 8.505-16.577 17.783-16.577s17.01 6.63 17.783 16.577Zm0 0" style="fill-rule:evenodd;fill:#fff;fill-opacity:1;stroke-width:1.25;stroke-linecap:butt;stroke-linejoin:miter;stroke:#000;stroke-opacity:1;stroke-miterlimit:4" transform="matrix(.00505 0 0 .00471 14.734 8.879)"/><path d="M478.584 548.828c0 6.63-3.093 13.261-8.505 16.577-6.185 4.144-13.144 4.144-18.556 0-6.185-3.316-9.278-9.946-8.505-16.577.774-9.118 8.505-15.749 17.783-15.749s17.01 6.631 17.783 15.749Zm0 0" style="fill-rule:evenodd;fill:#fff;fill-opacity:1;stroke-width:1.25;stroke-linecap:butt;stroke-linejoin:miter;stroke:#000;stroke-opacity:1;stroke-miterlimit:4" transform="matrix(.00505 0 0 .00471 14.957 8.863)"/><path d="M478.584 548.817c0 6.63-3.093 13.261-8.505 16.577-6.185 4.144-13.144 4.144-18.556 0-6.185-3.316-9.278-9.947-8.505-16.577.774-9.118 8.505-15.749 17.783-15.749s17.01 6.631 17.783 15.749Zm0 0" style="fill-rule:evenodd;fill:#fff;fill-opacity:1;stroke-width:1.25;stroke-linecap:butt;stroke-linejoin:miter;stroke:#000;stroke-opacity:1;stroke-miterlimit:4" transform="matrix(.00505 0 0 .00471 15.195 8.867)"/><path d="M478.584 549.535c0 6.63-3.093 12.433-8.505 16.577-6.185 3.316-13.144 3.316-18.556 0-6.185-4.144-9.278-9.946-8.505-16.577.773-9.946 8.505-16.577 17.783-16.577s17.01 6.63 17.783 16.577Zm0 0" style="fill-rule:evenodd;fill:#fff;fill-opacity:1;stroke-width:1.25;stroke-linecap:butt;stroke-linejoin:miter;stroke:#000;stroke-opacity:1;stroke-miterlimit:4" transform="matrix(.00505 0 0 .00471 15.438 8.906)"/><path d="M478.584 549.458c0 6.63-3.093 12.433-8.505 16.577-6.185 3.315-13.144 3.315-18.556 0-6.185-4.144-9.278-9.947-8.505-16.577.774-9.947 8.505-16.578 17.783-16.578s17.01 6.631 17.783 16.578Zm0 0" style="fill-rule:evenodd;fill:#fff;fill-opacity:1;stroke-width:1.25;stroke-linecap:butt;stroke-linejoin:miter;stroke:#000;stroke-opacity:1;stroke-miterlimit:4" transform="matrix(.00505 0 0 .00471 15.68 8.934)"/><path d="M478.584 549.358c0 6.631-3.093 13.262-8.505 16.577-6.185 3.316-13.144 3.316-18.556 0-6.185-3.315-9.278-9.946-8.505-16.577.774-9.117 8.505-16.577 17.783-16.577s17.01 7.46 17.783 16.577Zm0 0" style="fill-rule:evenodd;fill:#fff;fill-opacity:1;stroke-width:1.25;stroke-linecap:butt;stroke-linejoin:miter;stroke:#000;stroke-opacity:1;stroke-miterlimit:4" transform="matrix(.00505 0 0 .00471 15.934 8.97)"/><path d="M478.584 549.192c0 6.631-3.093 13.262-8.505 16.578-6.185 3.315-13.144 3.315-18.556 0-6.185-3.316-9.278-9.947-8.505-16.578.774-9.117 8.505-16.577 17.783-16.577s17.01 7.46 17.783 16.577Zm0 0" style="fill-rule:evenodd;fill:#fff;fill-opacity:1;stroke-width:1.25;stroke-linecap:butt;stroke-linejoin:miter;stroke:#000;stroke-opacity:1;stroke-miterlimit:4" transform="matrix(.00505 0 0 .00471 16.156 9.029)"/><path d="M478.584 548.794c0 7.46-3.093 13.262-8.505 16.578-6.185 4.144-13.144 4.144-18.556 0-6.185-3.316-9.278-9.118-8.504-16.578.773-9.117 8.504-15.748 17.782-15.748s17.01 6.63 17.783 15.748Zm0 0" style="fill-rule:evenodd;fill:#fff;fill-opacity:1;stroke-width:1.25;stroke-linecap:butt;stroke-linejoin:miter;stroke:#000;stroke-opacity:1;stroke-miterlimit:4" transform="matrix(.00505 0 0 .00471 14.563 10.359)"/><path d="M531.158 584.889s-68.038-52.219-69.584-177.377c-.773-72.11 34.792-124.329 122.932-124.329 124.478 0 301.53 53.047 301.53 53.047v18.235s-142.26-53.047-301.53-53.047c-70.357 0-105.922 51.39-105.922 105.265 0 88.689 70.357 178.206 70.357 178.206v141.735h-17.783Zm0 0" style="fill-rule:evenodd;fill:#fff100;fill-opacity:1;stroke-width:1.25;stroke-linecap:butt;stroke-linejoin:miter;stroke:#000;stroke-opacity:1;stroke-miterlimit:4" transform="matrix(.00505 0 0 .00471 14.355 10.197)"/><path d="M1241.011 532.03s13.918-36.984 69.59-36.984c39.433 0 71.909 36.984 71.909 71.794v71.794h34.794V566.84c0-34.81 34.795-71.794 71.91-71.794 51.032 0 69.589 36.984 69.589 36.984s0-106.603-69.59-106.603c-53.352 0-71.909 34.81-71.909 34.81s18.557-52.214 18.557-106.604c0-52.214-37.114-87.023-37.114-87.023 0 6.527-34.795 34.81-34.795 87.023 0 54.39 18.558 106.603 18.558 106.603s-18.558-34.809-71.91-34.809c-69.589 0-69.589 106.603-69.589 106.603Zm0 0" style="fill-rule:evenodd;fill:#fff100;fill-opacity:1;stroke-width:3;stroke-linecap:butt;stroke-linejoin:miter;stroke:#000;stroke-opacity:1;stroke-miterlimit:4" transform="matrix(.00168 0 0 .0018 15.574 12.306)"/><path d="M1241.011 532.03s13.918-36.984 69.59-36.984c39.434 0 71.909 36.984 71.909 71.794v71.794h34.795V566.84c0-34.81 34.794-71.794 71.909-71.794 51.032 0 69.589 36.984 69.589 36.984s0-106.603-69.59-106.603c-53.351 0-71.908 34.81-71.908 34.81s18.557-52.214 18.557-106.604c0-52.214-37.115-87.023-37.115-87.023 0 6.527-34.794 34.81-34.794 87.023 0 54.39 18.557 106.603 18.557 106.603s-18.557-34.809-71.91-34.809c-69.589 0-69.589 106.603-69.589 106.603Zm0 0" style="fill-rule:evenodd;fill:#fff100;fill-opacity:1;stroke-width:3;stroke-linecap:butt;stroke-linejoin:miter;stroke:#000;stroke-opacity:1;stroke-miterlimit:4" transform="matrix(.00168 0 0 .0018 17.363 12.306)"/><path d="M531.158 832.718V673.577s35.565 53.047 88.913 53.047c43.297 0 88.913-71.282 88.913-71.282s40.977 53.047 88.14 53.047c42.523 0 88.913-67.967 88.913-67.967s43.297 67.967 88.14 67.967c45.616 0 88.913-53.047 88.913-53.047s46.389 71.282 105.922 71.282c53.348 0 71.13-53.047 71.13-53.047v159.141Zm0 0" style="fill-rule:evenodd;fill:#fff100;fill-opacity:1;stroke-width:1.25;stroke-linecap:butt;stroke-linejoin:miter;stroke:#000;stroke-opacity:1;stroke-miterlimit:4" transform="matrix(.00505 0 0 .00471 14.355 10.197)"/><path d="M708.984 832.718v-124.33s105.922 35.642 105.922 124.33Zm0 0" style="fill-rule:evenodd;fill:#fff100;fill-opacity:1;stroke-width:1.25;stroke-linecap:butt;stroke-linejoin:miter;stroke:#000;stroke-opacity:1;stroke-miterlimit:4" transform="matrix(.00505 0 0 .00471 13.457 10.197)"/><path d="M708.984 832.718v-124.33s105.923 35.642 105.923 124.33Zm0 0" style="fill-rule:evenodd;fill:#fff100;fill-opacity:1;stroke-width:1.25;stroke-linecap:butt;stroke-linejoin:miter;stroke:#000;stroke-opacity:1;stroke-miterlimit:4" transform="matrix(-.00505 0 0 .00471 24.195 10.197)"/><path d="M602.289 832.718c0-88.688 106.695-145.05 106.695-145.05s105.922 56.362 105.922 145.05Zm0 0" style="fill-rule:evenodd;fill:#fff100;fill-opacity:1;stroke-width:1.25;stroke-linecap:butt;stroke-linejoin:miter;stroke:#000;stroke-opacity:1;stroke-miterlimit:4" transform="matrix(.00505 0 0 .00471 14.355 10.197)"/><path d="M602.289 832.718c0-88.688 106.695-145.05 106.695-145.05s105.923 56.362 105.923 145.05Zm0 0" style="fill-rule:evenodd;fill:#fff100;fill-opacity:1;stroke-width:1.25;stroke-linecap:butt;stroke-linejoin:miter;stroke:#000;stroke-opacity:1;stroke-miterlimit:4" transform="matrix(.00505 0 0 .00471 16.145 10.197)"/><path d="M584.506 847.826c0-88.689 124.478-159.97 124.478-159.97s123.705 71.281 123.705 159.97Zm0 0" style="fill-rule:evenodd;fill:#fff100;fill-opacity:1;stroke-width:1.25;stroke-linecap:butt;stroke-linejoin:miter;stroke:#000;stroke-opacity:1;stroke-miterlimit:4" transform="matrix(.00505 0 0 .00471 15.25 10.13)"/><path d="M1275.414 655.496c-35.189-17.406-165.78-35.64-376.133-35.64-210.354 0-350.329 18.234-385.518 35.64-35.19 17.407-35.19 53.048 0 71.283 35.19 17.406 175.164 34.812 385.518 34.812s340.944-17.406 376.133-34.812c35.972-18.235 35.972-53.876 0-71.283Zm0 0" style="fill-rule:evenodd;fill:#fff;fill-opacity:1;stroke-width:1.25;stroke-linecap:butt;stroke-linejoin:miter;stroke:#000;stroke-opacity:1;stroke-miterlimit:4" transform="matrix(.005 0 0 .00471 14.336 11.032)"/><path d="M20.621 14.457c0 .164-1.492.164-1.793.164-.324 0-1.789.047-1.789-.164 0-.168 1.477-.168 1.79-.168s1.792.031 1.792.168" style="stroke:none;fill-rule:evenodd;fill:gray;fill-opacity:1"/><path d="M17.219 13.855c0 .055-.04.102-.09.102s-.09-.047-.09-.102c0-.058.04-.101.09-.101s.09.047.09.101m3.398 0c0 .055-.039.102-.09.102s-.09-.047-.09-.102c0-.058.04-.101.09-.101.051 0 .09.047.09.101" style="stroke:none;fill-rule:evenodd;fill:#c00;fill-opacity:1"/><path d="M19.008 13.809c0 .05-.082.093-.18.093s-.18-.043-.18-.101c0-.055.079-.098.18-.098.102 0 .18.047.18.098Zm0 0" style="stroke:none;fill-rule:evenodd;fill:#000;fill-opacity:1"/><path d="M19.867 13.809c0 .05-.062.093-.137.093-.074 0-.132-.043-.132-.101 0-.055.062-.098.132-.098s.137.047.137.098Zm-1.844 0c0 .05-.058.093-.132.093s-.137-.043-.137-.101c0-.055.058-.098.137-.098.074 0 .132.047.132.098Zm0 0" style="stroke:none;fill-rule:evenodd;fill:#006300;fill-opacity:1"/><path d="M1258.457 495.935s35.183-52.214 70.366-52.214h35.183v34.81c0 53.664-52.775 71.068-52.775 71.068h142.084s-54.127-17.404-54.127-71.069v-34.809h36.536c35.183 0 70.365 52.214 70.365 52.214V353.797s-35.182 53.665-70.365 53.665h-36.536v-34.81c0-53.664 54.127-71.069 54.127-71.069h-142.084s52.775 17.405 52.775 71.07v34.809h-35.183c-35.183 0-70.366-53.665-70.366-53.665Zm0 0" style="fill-rule:evenodd;fill:#fff100;fill-opacity:1;stroke-width:2.2;stroke-linecap:butt;stroke-linejoin:miter;stroke:#000;stroke-opacity:1;stroke-miterlimit:4" transform="matrix(.00289 0 0 .0027 14.84 11.895)"/><path d="M1382.576 549.966h70.346s-54.112-18.235-54.112-71.282v-36.47h35.173c35.173 0 73.052 54.705 73.052 54.705V354.355s-37.88 53.047-73.052 53.047h-35.173V372.59c0-53.047 54.112-71.282 54.112-71.282h-70.346Zm0 0" style="fill-rule:evenodd;fill:#fff100;fill-opacity:1;stroke-width:3.3;stroke-linecap:butt;stroke-linejoin:miter;stroke:#000;stroke-opacity:1;stroke-miterlimit:4" transform="matrix(.00144 0 0 .00236 15.04 12.243)"/><path d="M1382.576 549.966h70.346s-54.112-18.235-54.112-71.282v-36.47h35.173c35.173 0 73.052 54.705 73.052 54.705V354.355s-37.88 53.047-73.052 53.047h-35.173V372.59c0-53.047 54.112-71.282 54.112-71.282h-70.346Zm0 0" style="fill-rule:evenodd;fill:#fff100;fill-opacity:1;stroke-width:3.3;stroke-linecap:butt;stroke-linejoin:miter;stroke:#000;stroke-opacity:1;stroke-miterlimit:4" transform="matrix(-.00144 0 0 .00236 22.617 12.243)"/><path d="M903.82 602.295c0 9.946-8.505 17.406-17.783 17.406-10.051 0-17.783-7.46-17.783-17.406 0-9.947 7.732-17.406 17.783-17.406 9.278 0 17.782 7.46 17.782 17.406Zm0 0" style="fill-rule:evenodd;fill:#fff;fill-opacity:1;stroke-width:1.25;stroke-linecap:butt;stroke-linejoin:miter;stroke:#000;stroke-opacity:1;stroke-miterlimit:4" transform="matrix(.00505 0 0 .00471 14.355 10.197)"/><path d="M1258.457 495.8s35.183-52.214 70.366-52.214h35.183v34.809c0 53.664-52.775 71.069-52.775 71.069h142.084s-54.127-17.405-54.127-71.07v-34.808h36.536c35.183 0 70.365 52.214 70.365 52.214V353.662s-35.182 53.664-70.365 53.664h-36.536v-34.81c0-53.663 54.127-71.068 54.127-71.068h-142.084s52.775 17.405 52.775 71.069v34.809h-35.183c-35.183 0-70.366-53.664-70.366-53.664Zm0 0" style="fill-rule:evenodd;fill:#fff100;fill-opacity:1;stroke-width:2.2;stroke-linecap:butt;stroke-linejoin:miter;stroke:#000;stroke-opacity:1;stroke-miterlimit:4" transform="matrix(.00289 0 0 .0027 14.84 10.141)"/><path d="M903.82 602.173c0 9.947-8.505 18.235-17.783 18.235-10.051 0-17.783-8.288-17.783-18.235s7.732-17.406 17.783-17.406c9.278 0 17.782 7.46 17.782 17.406Zm0 0" style="fill-rule:evenodd;fill:#fff;fill-opacity:1;stroke-width:1.25;stroke-linecap:butt;stroke-linejoin:miter;stroke:#000;stroke-opacity:1;stroke-miterlimit:4" transform="matrix(.00505 0 0 .00471 14.363 8.459)"/><path d="M850.472 655.85h71.13v53.047h-71.13Zm0 0" style="fill-rule:evenodd;fill:#fff100;fill-opacity:1;stroke-width:1.25;stroke-linecap:butt;stroke-linejoin:miter;stroke:#000;stroke-opacity:1;stroke-miterlimit:4" transform="matrix(.00505 0 0 .00471 14.355 8.53)"/><path d="M850.472 683.203h71.13v202.242h-71.13Zm0 0" style="fill-rule:evenodd;fill:#fff100;fill-opacity:1;stroke-width:1.25;stroke-linecap:butt;stroke-linejoin:miter;stroke:#000;stroke-opacity:1;stroke-miterlimit:4" transform="matrix(.00505 0 0 .00471 14.355 8.53)"/><path d="M478.584 549.126c0 6.631-3.093 13.262-8.505 16.577-6.185 3.316-13.144 3.316-18.556 0-6.185-3.315-9.278-9.946-8.505-16.577.774-9.117 8.505-16.577 17.783-16.577s17.01 7.46 17.783 16.577Zm0 0" style="fill-rule:evenodd;fill:#fff;fill-opacity:1;stroke-width:1.25;stroke-linecap:butt;stroke-linejoin:miter;stroke:#000;stroke-opacity:1;stroke-miterlimit:4" transform="matrix(.00505 0 0 .00471 16.5 9.943)"/><path d="M478.584 548.894c0 6.63-3.093 13.262-8.505 16.577-6.185 4.144-13.144 4.144-18.556 0-6.185-3.315-9.278-9.946-8.505-16.577.774-9.118 8.505-15.748 17.783-15.748s17.01 6.63 17.783 15.748Zm0 0" style="fill-rule:evenodd;fill:#fff;fill-opacity:1;stroke-width:1.25;stroke-linecap:butt;stroke-linejoin:miter;stroke:#000;stroke-opacity:1;stroke-miterlimit:4" transform="matrix(.00505 0 0 .00471 16.5 9.73)"/><path d="M478.584 549.447c0 6.63-3.093 12.432-8.505 16.577-6.185 3.315-13.144 3.315-18.556 0-6.185-4.145-9.278-9.947-8.505-16.577.774-9.947 8.505-16.578 17.783-16.578s17.01 6.631 17.783 16.578Zm0 0" style="fill-rule:evenodd;fill:#fff;fill-opacity:1;stroke-width:1.25;stroke-linecap:butt;stroke-linejoin:miter;stroke:#000;stroke-opacity:1;stroke-miterlimit:4" transform="matrix(.00505 0 0 .00471 16.5 9.532)"/><path d="M478.584 549.203c0 6.631-3.093 13.262-8.505 16.578-6.185 3.315-13.144 3.315-18.556 0-6.185-3.316-9.278-9.947-8.505-16.578.774-9.117 8.505-16.577 17.783-16.577s17.01 7.46 17.783 16.577Zm0 0" style="fill-rule:evenodd;fill:#fff;fill-opacity:1;stroke-width:1.25;stroke-linecap:butt;stroke-linejoin:miter;stroke:#000;stroke-opacity:1;stroke-miterlimit:4" transform="matrix(.00505 0 0 .00471 16.5 9.322)"/><path d="M19.02 14.125c0 .04-.082.066-.188.066-.105 0-.176-.027-.176-.066 0-.043.078-.07.18-.07s.184.03.184.07m1.644.164c-.012.027-.102.031-.2 0-.1-.02-.171-.055-.163-.078.012-.031.101-.031.199-.008.102.024.172.059.164.086m-.691-.11c0 .032-.09.051-.196.048-.097-.008-.18-.04-.175-.079.003-.03.093-.05.195-.039.101.008.183.036.176.07m-3.028.11c.008.027.098.031.196 0 .101-.02.175-.055.164-.078-.012-.031-.098-.031-.196-.008-.101.024-.172.059-.164.086m.723-.125c.004.031.094.05.195.043s.184-.039.176-.074c0-.028-.09-.055-.195-.047-.098.008-.18.043-.176.078" style="stroke:none;fill-rule:evenodd;fill:#000;fill-opacity:1"/><path d="M0 0h12.5v9.5H0Zm0 0" style="stroke:none;fill-rule:nonzero;fill:#012169;fill-opacity:1"/><path d="M1.465 0 6.23 3.582 10.977 0H12.5v1.227L7.813 4.77 12.5 8.293V9.5h-1.562L6.25 5.957 1.582 9.5H0V8.313l4.668-3.524L0 1.266V0Zm0 0" style="stroke:none;fill-rule:nonzero;fill:#fff;fill-opacity:1"/><path d="M8.281 5.563 12.5 8.707V9.5L7.207 5.563Zm-3.594.394.118.691L1.055 9.5H0ZM12.5 0v.059L7.637 3.78l.039-.87L11.523 0ZM0 0l4.668 3.484H3.496L0 .832Zm0 0" style="stroke:none;fill-rule:nonzero;fill:#c8102e;fill-opacity:1"/><path d="M4.707 0v9.5h3.125V0ZM0 3.168v3.164h12.5V3.168Zm0 0" style="stroke:none;fill-rule:nonzero;fill:#fff;fill-opacity:1"/><path d="M0 3.82V5.72h12.5V3.82ZM5.332 0v9.5h1.875V0Zm0 0" style="stroke:none;fill-rule:nonzero;fill:#c8102e;fill-opacity:1"/></svg>