<svg xmlns="http://www.w3.org/2000/svg" width="25" height="px" viewBox="0 0 25 19"><path d="M0 0h25v19H0z" style="fill:#108c00;fill-opacity:1;stroke:none"/><path d="M-6.434 6.629H31.48v1.867H-6.434Zm0 0" style="stroke:none;fill-rule:evenodd;fill:#ffd600;fill-opacity:1"/><path d="M9.758 0h1.781v19.05H9.762Zm0 0" style="stroke:none;fill-rule:evenodd;fill:#ffd600;fill-opacity:1"/><path d="M11.477 0h1.777v19.05h-1.777Zm0 0" style="stroke:none;fill-rule:evenodd;fill:#000001;fill-opacity:1"/><path d="M-6.434 8.43H31.48v1.87H-6.434Zm0 0" style="stroke:none;fill-rule:evenodd;fill:#000001;fill-opacity:1"/><path d="M-6.434 10.3H31.48v1.864H-6.434Zm0 0" style="stroke:none;fill-rule:evenodd;fill:#fff;fill-opacity:1"/><path d="M13.254 0h1.781v19.05h-1.781Zm0 0" style="stroke:none;fill-rule:evenodd;fill:#fff;fill-opacity:1"/><path d="M12.574 14.656c-2.773 0-5.023-2.289-5.023-5.117 0-2.824 2.25-5.113 5.023-5.113 2.778 0 5.028 2.289 5.028 5.113 0 2.828-2.25 5.117-5.028 5.117m0 0" style="stroke:none;fill-rule:evenodd;fill:#e72910;fill-opacity:1"/><path d="m12.313 5.098.203-.594.187.582s.629.02.629.008-.496.383-.496.383l.223.656c-.004-.02-.543-.406-.543-.406s-.543.386-.532.386.207-.633.207-.633l-.488-.375.61-.011Zm0 0" style="stroke:none;fill-rule:evenodd;fill:#000;fill-opacity:1"/><path d="m12.34 5.125.172-.512.164.508s.547.012.547.008c0-.008-.43.332-.43.332l.191.566c-.007-.02-.472-.347-.472-.347s-.469.332-.461.332.183-.551.183-.551l-.425-.328.527-.004Zm0 0" style="stroke:none;fill-rule:evenodd;fill:#ffe700;fill-opacity:1"/><path d="m12.414 5.21.102-.3.097.297s.313.004.313 0c0-.008-.246.191-.246.191l.11.329a5 5 0 0 0-.274-.2l-.262.192c.008 0 .101-.317.101-.317l-.242-.187Zm0 0" style="stroke:none;fill-rule:evenodd;fill:#108c00;fill-opacity:1"/><path d="m16.219 7.879.203-.594.183.586s.633.02.633.008c0-.008-.496.387-.496.387l.223.652c-.008-.02-.543-.406-.543-.406s-.543.386-.531.386c.011 0 .207-.628.207-.628l-.489-.383Zm0 0" style="stroke:none;fill-rule:evenodd;fill:#000;fill-opacity:1"/><path d="m16.242 7.91.18-.515.164.507s.543.016.543.008-.43.336-.43.336l.196.563a15 15 0 0 0-.473-.352s-.469.336-.461.336.18-.55.18-.55l-.422-.325Zm0 0" style="stroke:none;fill-rule:evenodd;fill:#ffe700;fill-opacity:1"/><path d="m16.32 7.996.102-.297.094.29.316.007-.25.191s.117.333.11.325c0-.008-.27-.2-.27-.2l-.266.192.102-.316L16.016 8Zm0 0" style="stroke:none;fill-rule:evenodd;fill:#108c00;fill-opacity:1"/><path d="m15.078 12.3.207-.593.184.586s.633.02.633.012-.497.383-.497.383l.22.652c-.009-.02-.54-.402-.54-.402s-.543.382-.535.382.207-.633.207-.633l-.488-.37Zm0 0" style="stroke:none;fill-rule:evenodd;fill:#000;fill-opacity:1"/><path d="m15.105 12.332.18-.516.16.508s.547.02.547.008-.43.332-.43.332l.192.566c-.004-.02-.469-.347-.469-.347s-.469.332-.46.332c.007 0 .179-.55.179-.55l-.422-.321Zm0 0" style="stroke:none;fill-rule:evenodd;fill:#ffe700;fill-opacity:1"/><path d="m15.184 12.418.101-.3.094.296s.312.012.312.004-.246.191-.246.191l.11.325c0-.008-.27-.2-.27-.2l-.27.192.106-.317-.242-.183Zm0 0" style="stroke:none;fill-rule:evenodd;fill:#108c00;fill-opacity:1"/><path d="m9.621 12.3.203-.593.184.586s.629.02.629.012-.496.383-.496.383l.226.652c-.008-.02-.543-.402-.543-.402s-.543.382-.535.382.211-.633.211-.633l-.488-.37Zm0 0" style="stroke:none;fill-rule:evenodd;fill:#000;fill-opacity:1"/><path d="m9.648 12.332.176-.516.164.508s.543.02.543.008-.43.332-.43.332l.196.566c-.008-.02-.473-.347-.473-.347s-.469.332-.46.332c.007 0 .179-.55.179-.55l-.422-.321Zm0 0" style="stroke:none;fill-rule:evenodd;fill:#ffe700;fill-opacity:1"/><path d="m9.723 12.418.101-.3.094.296s.316.012.316.004-.25.191-.25.191l.11.325c0-.008-.27-.2-.27-.2l-.265.192.101-.317-.242-.183Zm0 0" style="stroke:none;fill-rule:evenodd;fill:#108c00;fill-opacity:1"/><path d="m8.621 7.766.207-.594.188.586s.625.02.625.008-.496.386-.496.386l.226.653c-.012-.02-.543-.403-.543-.403s-.543.38-.535.38c.012 0 .207-.634.207-.634l-.488-.37Zm0 0" style="stroke:none;fill-rule:evenodd;fill:#000;fill-opacity:1"/><path d="m8.652 7.797.176-.516.164.508s.54.016.54.008c0-.012-.43.332-.43.332l.195.566c-.008-.02-.469-.347-.469-.347s-.473.332-.46.332c.01 0 .175-.551.175-.551l-.422-.324Zm0 0" style="stroke:none;fill-rule:evenodd;fill:#ffe700;fill-opacity:1"/><path d="m8.723 7.879.105-.297.094.297h.312l-.246.195.11.324c-.004-.007-.27-.203-.27-.203l-.265.196c.007 0 .101-.317.101-.317l-.242-.187Zm0 0" style="stroke:none;fill-rule:evenodd;fill:#108c00;fill-opacity:1"/><path d="m15.031 6.477-.203.597-.183-.586s-.633-.02-.633-.011c0 .007.496-.383.496-.383l-.223-.649c.008.016.543.399.543.399s.543-.383.531-.383c-.011 0-.207.633-.207.633l.489.375Zm0 0" style="stroke:none;fill-rule:evenodd;fill:#000;fill-opacity:1"/><path d="M15.008 6.45c0 .01-.184.515-.184.515l-.16-.504s-.543-.02-.543-.012.43-.332.43-.332l-.196-.566c.008.02.473.351.473.351s.469-.336.461-.336-.18.551-.18.551l.422.324Zm0 0" style="stroke:none;fill-rule:evenodd;fill:#ffe700;fill-opacity:1"/><path d="m14.93 6.363-.102.297-.094-.289s-.316-.012-.316-.004.25-.195.25-.195l-.11-.324c0 .007.27.203.27.203l.266-.196c-.008 0-.106.317-.106.317l.246.187-.304.008Zm0 0" style="stroke:none;fill-rule:evenodd;fill:#108c00;fill-opacity:1"/><path d="m16.602 10.8-.207.598-.184-.59s-.633-.019-.633-.007c0 .011.496-.383.496-.383l-.219-.656c.008.02.54.402.54.402s.543-.383.53-.383c-.01 0-.202.633-.202.633l.492.375Zm0 0" style="stroke:none;fill-rule:evenodd;fill:#000;fill-opacity:1"/><path d="m16.574 10.773-.18.512-.16-.508s-.547-.011-.547-.004c0 .004.43-.335.43-.335l-.191-.567c.008.02.469.352.469.352s.468-.336.46-.336c-.003 0-.18.55-.18.55l.423.329Zm0 0" style="stroke:none;fill-rule:evenodd;fill:#ffe700;fill-opacity:1"/><path d="m16.496 10.688-.101.296-.094-.293s-.313-.007-.313 0c0 .008.25-.195.25-.195l-.113-.328c0 .012.27.203.27.203l.27-.195c-.009 0-.11.32-.11.32l.246.188Zm0 0" style="stroke:none;fill-rule:evenodd;fill:#108c00;fill-opacity:1"/><path d="m12.71 13.965-.202.594-.184-.586s-.633-.02-.633-.012.496-.383.496-.383l-.222-.652c.008.02.543.402.543.402s.543-.383.531-.383-.207.633-.207.633l.488.375Zm0 0" style="stroke:none;fill-rule:evenodd;fill:#000;fill-opacity:1"/><path d="m12.688 13.93-.18.523-.164-.512s-.543-.02-.543-.007c0 .011.43-.332.43-.332l-.196-.567c.008.016.473.348.473.348s.469-.332.46-.332c-.007 0-.179.55-.179.55l.422.32-.524.013Zm0 0" style="stroke:none;fill-rule:evenodd;fill:#ffe700;fill-opacity:1"/><path d="m12.61 13.848-.102.3-.094-.296s-.316-.012-.316-.004c0 .007.25-.192.25-.192l-.11-.324c0 .008.27.2.27.2l.265-.192-.101.316.242.184Zm0 0" style="stroke:none;fill-rule:evenodd;fill:#108c00;fill-opacity:1"/><path d="m9.063 10.8-.211.598-.184-.59s-.629-.019-.629-.007c0 .011.492-.383.492-.383l-.219-.656c.008.02.54.402.54.402l.539-.379-.207.633.488.375-.61.012Zm0 0" style="stroke:none;fill-rule:evenodd;fill:#000;fill-opacity:1"/><path d="m9.031 10.773-.18.512-.16-.508s-.543-.011-.543-.004c0 .004.43-.335.43-.335l-.195-.567c.008.02.469.352.469.352s.472-.336.464-.336-.18.55-.18.55l.423.329Zm0 0" style="stroke:none;fill-rule:evenodd;fill:#ffe700;fill-opacity:1"/><path d="m8.957 10.688-.105.296-.09-.293s-.317-.007-.317 0c0 .008.25-.195.25-.195l-.11-.328c0 .012.267.203.267.203l.27-.195-.102.32.242.188Zm0 0" style="stroke:none;fill-rule:evenodd;fill:#108c00;fill-opacity:1"/><path d="m10.41 6.543-.207.594-.191-.586s-.625-.016-.625-.008c0 .004.496-.387.496-.387l-.223-.648c.008.02.54.402.54.402s.542-.383.534-.383c-.004 0-.203.63-.203.63l.485.374Zm0 0" style="stroke:none;fill-rule:evenodd;fill:#000;fill-opacity:1"/><path d="m10.379 6.512-.18.52-.16-.509s-.543-.02-.543-.007c0 .011.43-.336.43-.336l-.196-.567c.008.02.47.352.47.352s.472-.336.464-.336-.176.55-.176.55l.418.325-.527.012Zm0 0" style="stroke:none;fill-rule:evenodd;fill:#ffe700;fill-opacity:1"/><path d="m10.305 6.43-.106.297-.09-.293s-.312-.012-.312-.004.246-.196.246-.196l-.11-.32c0 .004.266.2.266.2l.27-.196-.106.316.246.188Zm0 0" style="stroke:none;fill-rule:evenodd;fill:#108c00;fill-opacity:1"/><path d="M710.855 586.327c0-104.87-13.7-190.001-30.597-189.826-16.896-.385-31.052 84.9-31.052 189.77s14.156 189.512 31.052 189.897c16.897-.176 30.597-85.53 30.597-189.84Zm0 0" style="fill-rule:evenodd;fill:#009200;fill-opacity:1;stroke-width:2.5;stroke-linecap:butt;stroke-linejoin:miter;stroke:#000;stroke-opacity:1;stroke-miterlimit:4" transform="matrix(.00855 -.00108 0 .00697 7.06 7.28)"/><path d="M710.85 586.127c0-104.871-13.64-189.583-30.688-189.62s-30.687 84.614-30.687 189.485 13.639 190.144 30.687 190.181c17.049-.523 30.688-85.175 30.688-190.046Zm0 0" style="fill-rule:evenodd;fill:#009200;fill-opacity:1;stroke-width:2.5;stroke-linecap:butt;stroke-linejoin:miter;stroke:#000;stroke-opacity:1;stroke-miterlimit:4" transform="matrix(.00916 -.00116 0 .00697 6.981 7.313)"/><path d="M711.156 585.99c0-104.513-13.852-189.804-30.9-189.831-17.05-.027-30.901 84.964-30.901 189.988s13.852 189.805 30.9 189.832c17.049.027 30.9-84.964 30.9-189.988Zm0 0" style="fill-rule:evenodd;fill:#009200;fill-opacity:1;stroke-width:2.5;stroke-linecap:butt;stroke-linejoin:miter;stroke:#000;stroke-opacity:1;stroke-miterlimit:4" transform="matrix(.00733 -.00093 0 .00766 8.094 6.803)"/><path d="M388.5-53.029c6.035-.303 3.375-3.23 6.444-4.946 2.966-1.615 7.262-.606 8.592 1.413 1.228 1.918.307 3.937 1.944 3.937 1.739 0 47.054-2.524 48.588-.909 1.637 1.616 2.046 5.048.307 6.36-1.534 1.413-58.92 2.927-60.863 1.615-2.046-1.413-5.013-7.066-5.013-7.47Zm0 0" style="fill-rule:evenodd;fill:#a95600;fill-opacity:1;stroke-width:.5;stroke-linecap:butt;stroke-linejoin:miter;stroke:#000;stroke-opacity:1;stroke-miterlimit:4" transform="matrix(.03819 0 0 .0387 -3.305 12.993)"/><path d="M529.337 405.827c0 39.368 45.69 27.255 47.054 60.567-.682 35.33-76.378 4.038-78.424-60.567 2.046-65.615 75.014-97.917 76.378-61.577 1.364 31.293-45.008 21.198-45.008 61.577Zm0 0" style="fill-rule:evenodd;fill:#ff0;fill-opacity:1;stroke-width:3.9;stroke-linecap:butt;stroke-linejoin:miter;stroke:#000;stroke-opacity:1;stroke-miterlimit:4" transform="matrix(.00573 0 0 .00387 9.694 9.832)"/><path d="M529.266 405.836c0 39.369 45.69 27.255 47.054 60.567-.682 35.331-76.378 4.038-78.423-60.567 2.045-65.614 75.013-97.917 76.377-61.577 1.364 31.293-45.008 21.199-45.008 61.577Zm0 0" style="fill-rule:evenodd;fill:#ff0;fill-opacity:1;stroke-width:3.9;stroke-linecap:butt;stroke-linejoin:miter;stroke:#000;stroke-opacity:1;stroke-miterlimit:4" transform="matrix(.00573 0 0 .00387 9.847 9.836)"/><path d="M529.923 405.817c0 39.369 45.008 27.255 46.372 60.567-.682 35.331-76.378 4.038-78.424-60.567 2.046-65.614 75.014-97.917 76.378-61.576 1.364 31.293-45.008 21.198-45.008 61.576Zm0 0" style="fill-rule:evenodd;fill:#ff0;fill-opacity:1;stroke-width:3.9;stroke-linecap:butt;stroke-linejoin:miter;stroke:#000;stroke-opacity:1;stroke-miterlimit:4" transform="matrix(.00573 0 0 .00387 10.011 9.828)"/><path d="M529.852 405.817c0 39.369 45.008 27.255 46.372 60.567-.682 35.331-76.378 4.038-78.424-60.567 2.046-65.614 75.014-97.917 76.378-61.576 1.364 31.293-45.008 21.198-45.008 61.576Zm0 0" style="fill-rule:evenodd;fill:#ff0;fill-opacity:1;stroke-width:3.9;stroke-linecap:butt;stroke-linejoin:miter;stroke:#000;stroke-opacity:1;stroke-miterlimit:4" transform="matrix(.00573 0 0 .00387 10.164 9.828)"/><path d="M481.885-41.112c.06-1.844-1.55-3.396-3.502-3.362-1.954-.054-3.507 1.465-3.472 3.396a3.43 3.43 0 0 0 3.502 3.362c1.954.054 3.507-1.465 3.472-3.396Zm0 0" style="fill-rule:evenodd;fill:#a95600;fill-opacity:1;stroke-width:.4;stroke-linecap:butt;stroke-linejoin:miter;stroke:#000;stroke-opacity:1;stroke-miterlimit:4" transform="matrix(.042 .00077 -.00076 .0445 -6.192 13.175)"/><path d="M448.156 905.072c-.472-13.343-9.268-24.28-20.762-24.267s-20.838 10.924-20.963 24.235c-.126 13.31 9.328 23.967 20.822 23.953s20.778-10.61 20.903-23.921Zm0 0" style="fill-rule:evenodd;fill:#009200;fill-opacity:1;stroke-width:2.5;stroke-linecap:butt;stroke-linejoin:miter;stroke:#000;stroke-opacity:1;stroke-miterlimit:4" transform="matrix(.00646 -.00066 .00123 .01232 9.113 .574)"/><path d="M447.853 905.067c.126-13.31-9.268-24.281-20.762-24.267s-20.838 10.924-20.963 24.235c-.126 13.31 9.328 23.967 20.822 23.953s20.778-10.61 20.903-23.921Zm0 0" style="fill-rule:evenodd;fill:#009200;fill-opacity:1;stroke-width:2.5;stroke-linecap:butt;stroke-linejoin:miter;stroke:#000;stroke-opacity:1;stroke-miterlimit:4" transform="matrix(.00646 -.00066 .00123 .01232 8.888 .554)"/><path d="M447.81 904.892c.126-13.31-9.328-23.967-20.822-23.953s-20.778 10.61-20.904 23.92c.473 13.344 9.268 24.282 20.762 24.268s20.838-10.925 20.964-24.235Zm0 0" style="fill-rule:evenodd;fill:#009200;fill-opacity:1;stroke-width:2.5;stroke-linecap:butt;stroke-linejoin:miter;stroke:#000;stroke-opacity:1;stroke-miterlimit:4" transform="matrix(.00646 -.00066 .00123 .01232 8.729 .263)"/><path d="M448.14 905.058c-.247-13.347-9.4-24.208-20.977-24.166s-21.06 10.908-20.812 24.255c-.325 13.03 9.464 23.921 21.04 23.879 10.941-.072 20.36-10.65 20.75-23.968Zm0 0" style="fill-rule:evenodd;fill:#009200;fill-opacity:1;stroke-width:2.5;stroke-linecap:butt;stroke-linejoin:miter;stroke:#000;stroke-opacity:1;stroke-miterlimit:4" transform="matrix(.00608 -.00063 .00135 .01347 8.948 -.88)"/><path d="M448.142 904.89c-.438-13.243-9.783-23.85-21.296-24.11-10.94.077-20.296 10.992-20.493 24.204s9.084 24.122 20.66 24.078 20.868-10.657 21.13-24.172Zm0 0" style="fill-rule:evenodd;fill:#009200;fill-opacity:1;stroke-width:2.5;stroke-linecap:butt;stroke-linejoin:miter;stroke:#000;stroke-opacity:1;stroke-miterlimit:4" transform="matrix(.00608 -.00063 .00127 .0127 9.334 -.126)"/><path d="M448.128 904.991c-.44-13.242-9.72-24.153-21.297-24.109-10.94.077-20.232 10.688-20.493 24.204-.197 13.211 9.084 24.122 20.66 24.077s20.932-10.96 21.13-24.172Zm0 0" style="fill-rule:evenodd;fill:#009200;fill-opacity:1;stroke-width:2.5;stroke-linecap:butt;stroke-linejoin:miter;stroke:#000;stroke-opacity:1;stroke-miterlimit:4" transform="matrix(.00608 -.00063 .00127 .0127 9.163 -.233)"/><path d="M448.132 905.036c-.44-13.243-9.72-24.154-21.297-24.109-10.94.076-20.232 10.688-20.493 24.203-.197 13.212 9.148 23.819 20.66 24.078 11.577-.045 20.932-10.96 21.13-24.172Zm0 0" style="fill-rule:evenodd;fill:#009200;fill-opacity:1;stroke-width:2.5;stroke-linecap:butt;stroke-linejoin:miter;stroke:#000;stroke-opacity:1;stroke-miterlimit:4" transform="matrix(.00608 -.00063 .00127 .0127 8.948 -.386)"/><path d="M447.773 904.893c.198-13.212-9.083-24.123-20.66-24.078s-20.932 10.96-21.129 24.172c.439 13.242 9.72 24.154 21.296 24.109 11.577-.045 20.868-10.656 20.493-24.203Zm0 0" style="fill-rule:evenodd;fill:#009200;fill-opacity:1;stroke-width:2.5;stroke-linecap:butt;stroke-linejoin:miter;stroke:#000;stroke-opacity:1;stroke-miterlimit:4" transform="matrix(.00608 -.00063 .00127 .0127 8.747 -.474)"/><path d="M482.574-140.96s-11.662 9.993-10.025 36.844c1.74 27.054 26.494 39.47 26.494 39.47s6.137-7.672 5.114-29.476c-1.943-31.798-13.707-45.728-13.707-45.728l-7.876-1.212Zm0 0" style="fill-rule:evenodd;fill:#804bff;fill-opacity:1;stroke-width:.5;stroke-linecap:butt;stroke-linejoin:miter;stroke:#000;stroke-opacity:1;stroke-miterlimit:4" transform="matrix(.03819 0 0 .0387 -6.088 13.373)"/><path d="M448.111 905.06c-.157-13.284-9.632-24.279-21.076-24.117-11.49-.152-20.75 10.677-20.594 23.96-.442 13.31 9.033 24.304 20.477 24.142 11.49.153 20.75-10.676 21.193-23.985Zm0 0" style="fill-rule:evenodd;fill:#009200;fill-opacity:1;stroke-width:2.5;stroke-linecap:butt;stroke-linejoin:miter;stroke:#000;stroke-opacity:1;stroke-miterlimit:4" transform="matrix(.00647 .00052 -.00096 .01234 11.401 .088)"/><path d="M447.891 904.87c-.157-13.283-9.586-23.964-21.03-23.802-11.49-.152-20.75 10.677-20.593 23.96s9.586 23.965 21.076 24.117c11.444-.162 20.704-10.991 20.547-24.275Zm0 0" style="fill-rule:evenodd;fill:#009200;fill-opacity:1;stroke-width:2.5;stroke-linecap:butt;stroke-linejoin:miter;stroke:#000;stroke-opacity:1;stroke-miterlimit:4" transform="matrix(.00647 .00052 -.00096 .01234 11.184 .028)"/><path d="M447.968 905.076c-.157-13.283-9.633-24.278-21.077-24.116-11.49-.153-20.75 10.677-20.593 23.96s9.033 24.304 21.076 24.117c11.491.152 20.751-10.677 20.594-23.96Zm0 0" style="fill-rule:evenodd;fill:#009200;fill-opacity:1;stroke-width:2.5;stroke-linecap:butt;stroke-linejoin:miter;stroke:#000;stroke-opacity:1;stroke-miterlimit:4" transform="matrix(.00647 .00052 -.00096 .01234 11.078 -.287)"/><path d="M447.716 905.083c.273-13.318-9.306-24.256-20.828-24.13-11.571-.163-20.575 10.865-20.847 24.183.365 13.295 9.257 23.969 20.779 23.844 11.57.162 21.261-10.602 20.896-23.897Zm0 0" style="fill-rule:evenodd;fill:#009200;fill-opacity:1;stroke-width:2.5;stroke-linecap:butt;stroke-linejoin:miter;stroke:#000;stroke-opacity:1;stroke-miterlimit:4" transform="matrix(.0061 .00049 -.00105 .0135 11.495 -1.372)"/><path d="M447.603 905.09c.371-13.516-9.06-24.202-20.581-24.07-11.571-.172-20.723 10.61-20.457 24.101-.421 13.21 9.009 23.897 20.58 24.069 11.522-.133 20.674-10.915 20.458-24.1Zm0 0" style="fill-rule:evenodd;fill:#009200;fill-opacity:1;stroke-width:2.5;stroke-linecap:butt;stroke-linejoin:miter;stroke:#000;stroke-opacity:1;stroke-miterlimit:4" transform="matrix(.0061 .00049 -.00099 .01273 11.743 -.56)"/><path d="M447.9 905.037c-.216-13.186-9.058-24.201-20.58-24.069-11.571-.172-20.723 10.61-21.095 24.125.217 13.186 9.647 23.873 20.581 24.07 11.522-.134 21.311-10.94 21.095-24.126Zm0 0" style="fill-rule:evenodd;fill:#009200;fill-opacity:1;stroke-width:2.5;stroke-linecap:butt;stroke-linejoin:miter;stroke:#000;stroke-opacity:1;stroke-miterlimit:4" transform="matrix(.0061 .00049 -.00099 .01273 11.592 -.696)"/><path d="M448.02 904.874c-.217-13.186-9.647-23.872-21.218-24.044-10.885.108-20.674 10.914-20.457 24.1.265 13.49 9.058 24.202 20.58 24.069 11.571.172 20.723-10.61 21.095-24.125Zm0 0" style="fill-rule:evenodd;fill:#009200;fill-opacity:1;stroke-width:2.5;stroke-linecap:butt;stroke-linejoin:miter;stroke:#000;stroke-opacity:1;stroke-miterlimit:4" transform="matrix(.0061 .00049 -.00099 .01273 11.408 -.886)"/><path d="M447.78 905.048c.371-13.515-9.059-24.201-20.58-24.068-11.572-.173-20.724 10.61-21.095 24.124.216 13.186 9.646 23.873 21.218 24.045 11.521-.133 20.673-10.915 20.457-24.1Zm0 0" style="fill-rule:evenodd;fill:#009200;fill-opacity:1;stroke-width:2.5;stroke-linecap:butt;stroke-linejoin:miter;stroke:#000;stroke-opacity:1;stroke-miterlimit:4" transform="matrix(.0061 .00049 -.00099 .01273 11.226 -1.009)"/><path d="M682.7 606.21c.22-102.876-25.895-186.676-58.417-186.898-31.966 0-58.24 83.706-57.904 186.805-.22 102.876 25.894 186.675 57.86 186.675 32.742-.362 58.242-83.705 58.461-186.582Zm0 0" style="fill-rule:evenodd;fill:#c90000;fill-opacity:1;stroke-width:1.25;stroke-linecap:butt;stroke-linejoin:miter;stroke:#000;stroke-opacity:1;stroke-miterlimit:4" transform="matrix(.00611 -.00232 .0023 .0058 8.026 7.762)"/><path d="M228.804 356.648c.163-7.07-4.77-12.677-10.655-12.876-6.136.142-10.92 5.975-10.827 13.04s4.774 13.014 10.655 12.877c6.136-.143 10.924-5.639 10.827-13.04Zm0 0" style="fill-rule:evenodd;fill:#009200;fill-opacity:1;stroke-width:1.5;stroke-linecap:butt;stroke-linejoin:miter;stroke:#000;stroke-opacity:1;stroke-miterlimit:4" transform="matrix(.01527 .00027 -.0002 .0116 9.753 4.58)"/><path d="M228.991 356.76c-.105-7.064-4.871-13.025-11.008-12.9-5.844.12-10.726 5.94-10.62 13.005-.187 7.07 4.866 12.689 10.716 12.906 5.844-.119 10.726-5.94 10.912-13.01Zm0 0" style="fill-rule:evenodd;fill:#009200;fill-opacity:1;stroke-width:1.6;stroke-linecap:butt;stroke-linejoin:miter;stroke:#000;stroke-opacity:1;stroke-miterlimit:4" transform="matrix(.01336 .00024 -.0002 .0116 10.222 4.375)"/><path d="M228.94 356.728c-.105-7.065-4.866-12.69-10.716-12.907-6.136.125-11.018 5.946-10.912 13.01.105 7.066 4.871 13.027 10.716 12.908 6.136-.125 10.726-5.94 10.913-13.011Zm0 0" style="fill-rule:evenodd;fill:#009200;fill-opacity:1;stroke-width:1.6;stroke-linecap:butt;stroke-linejoin:miter;stroke:#000;stroke-opacity:1;stroke-miterlimit:4" transform="matrix(.01336 .00024 -.0002 .0116 10.024 4.372)"/><path d="M229.018 356.68c-.09-7.102-4.861-12.597-10.947-12.825-5.805.139-10.71 5.865-10.895 12.974.09 7.103 4.866 12.971 10.947 12.826 5.81.235 10.709-5.865 10.895-12.974Zm0 0" style="fill-rule:evenodd;fill:#009200;fill-opacity:1;stroke-width:1.6;stroke-linecap:butt;stroke-linejoin:miter;stroke:#000;stroke-opacity:1;stroke-miterlimit:4" transform="matrix(.01413 .00025 -.00018 .01045 9.926 4.467)"/><path d="M228.777 356.932c.186-7.109-4.589-12.977-10.675-13.206-6.081.146-10.709 5.866-10.895 12.975.09 7.102 4.866 12.97 10.947 12.825 5.81.235 10.714-5.491 10.623-12.594Zm0 0" style="fill-rule:evenodd;fill:#009200;fill-opacity:1;stroke-width:1.6;stroke-linecap:butt;stroke-linejoin:miter;stroke:#000;stroke-opacity:1;stroke-miterlimit:4" transform="matrix(.01413 .00025 -.00018 .01045 9.91 4.292)"/><path d="M228.767 356.933c.181-7.408-4.58-13.032-10.716-12.907-5.85-.217-10.732 5.603-10.626 12.668-.187 7.071 4.58 13.032 10.716 12.907 5.85.217 10.731-5.603 10.626-12.668Zm0 0" style="fill-rule:evenodd;fill:#009200;fill-opacity:1;stroke-width:1.6;stroke-linecap:butt;stroke-linejoin:miter;stroke:#000;stroke-opacity:1;stroke-miterlimit:4" transform="matrix(.01336 .00024 -.0002 .0116 9.835 4.26)"/><path d="M228.983 356.78c-.106-7.065-4.872-13.025-11.008-12.9-5.845.119-10.727 5.94-10.621 13.004-.187 7.071 4.867 12.69 10.716 12.907 6.137-.125 10.727-5.94 10.913-13.01Zm0 0" style="fill-rule:evenodd;fill:#009200;fill-opacity:1;stroke-width:1.6;stroke-linecap:butt;stroke-linejoin:miter;stroke:#000;stroke-opacity:1;stroke-miterlimit:4" transform="matrix(.01336 .00024 -.0002 .0116 9.875 4.152)"/><path d="M228.816 356.942c.159-7.408-4.774-13.014-10.655-12.877-6.141-.194-10.924 5.639-10.832 12.704.093 7.065 4.774 13.014 10.655 12.877 6.141.193 10.924-5.64 10.832-12.704Zm0 0" style="fill-rule:evenodd;fill:#009200;fill-opacity:1;stroke-width:1.5;stroke-linecap:butt;stroke-linejoin:miter;stroke:#000;stroke-opacity:1;stroke-miterlimit:4" transform="matrix(.01527 .00027 -.0002 .0116 9.295 4.069)"/><path d="M228.884 356.928c-.09-7.102-4.866-12.97-10.675-13.206-6.082.146-10.986 5.872-10.895 12.974.09 7.103 4.865 12.971 10.67 12.833 6.086.228 10.99-5.498 10.9-12.6Zm0 0" style="fill-rule:evenodd;fill:#009200;fill-opacity:1;stroke-width:1.6;stroke-linecap:butt;stroke-linejoin:miter;stroke:#000;stroke-opacity:1;stroke-miterlimit:4" transform="matrix(.01413 .00025 -.00018 .01045 9.8 4.077)"/><path d="M228.756 356.833c.187-7.07-4.58-13.031-10.716-12.906-5.844.119-10.731 5.603-10.62 13.004-.187 7.071 4.574 12.695 10.716 12.907 5.844-.12 10.726-5.94 10.62-13.005Zm0 0" style="fill-rule:evenodd;fill:#009200;fill-opacity:1;stroke-width:1.6;stroke-linecap:butt;stroke-linejoin:miter;stroke:#000;stroke-opacity:1;stroke-miterlimit:4" transform="matrix(.01336 .00024 -.0002 .0116 9.733 3.94)"/><path d="M228.995 356.748c-.105-7.065-4.866-12.689-11.008-12.9-5.844.119-10.726 5.94-10.62 13.004-.187 7.071 4.866 12.69 10.715 12.907 5.845-.12 10.727-5.94 10.913-13.01Zm0 0" style="fill-rule:evenodd;fill:#009200;fill-opacity:1;stroke-width:1.6;stroke-linecap:butt;stroke-linejoin:miter;stroke:#000;stroke-opacity:1;stroke-miterlimit:4" transform="matrix(.01336 .00024 -.0002 .0116 9.421 4.082)"/><path d="M228.752 356.655c.187-7.07-4.574-12.695-10.716-12.907-5.844.12-10.726 5.94-10.62 13.005-.187 7.071 4.58 13.032 10.716 12.907 5.844-.12 10.731-5.603 10.62-13.005Zm0 0" style="fill-rule:evenodd;fill:#009200;fill-opacity:1;stroke-width:1.6;stroke-linecap:butt;stroke-linejoin:miter;stroke:#000;stroke-opacity:1;stroke-miterlimit:4" transform="matrix(.01336 .00024 -.0002 .0116 9.471 4.056)"/><path d="M228.998 356.794c-.106-7.065-4.872-13.025-11.009-12.9-5.844.119-10.726 5.94-10.62 13.004-.187 7.071 4.866 12.69 10.716 12.907 5.844-.12 10.726-5.94 10.913-13.01Zm0 0" style="fill-rule:evenodd;fill:#009200;fill-opacity:1;stroke-width:1.6;stroke-linecap:butt;stroke-linejoin:miter;stroke:#000;stroke-opacity:1;stroke-miterlimit:4" transform="matrix(.01336 .00024 -.0002 .0116 9.535 3.937)"/><path d="M596.08 564.404c.017-113.703-30.117-205.314-67.218-205.344-37.616-.208-67.494 92.175-67.322 205.363-.016 113.703 29.928 205.83 67.03 205.86 37.29-.485 67.493-92.176 67.51-205.879Zm0 0" style="fill-rule:evenodd;fill:#009200;fill-opacity:1;stroke-width:2.5;stroke-linecap:butt;stroke-linejoin:miter;stroke:#000;stroke-opacity:1;stroke-miterlimit:4" transform="matrix(.00674 -.00232 .00247 .00673 8.299 7.494)"/><path d="M541.832 646.107c.395-22.378-5.788-41.002-13.249-40.93-7.461.07-12.992 18.575-13.387 40.952.126 22.603 5.987 40.539 13.248 40.93 7.461-.07 13.514-18.35 13.388-40.952Zm0 0" style="fill-rule:evenodd;fill:#009200;fill-opacity:1;stroke-width:2.5;stroke-linecap:butt;stroke-linejoin:miter;stroke:#000;stroke-opacity:1;stroke-miterlimit:4" transform="matrix(.0063 -.00307 .00273 .0071 8.54 7.342)"/><path d="M140.024 644.048c-.134 57.692-19.09 86.232-34.76 110.065 7.483-32.157 13.084-52.215 12.966-110.006.134-57.692 29.626-85.547 40.494-102.269-4.23 16.744-18.819 44.42-18.7 102.21Zm0 0" style="fill-rule:evenodd;fill:#009200;fill-opacity:1;stroke-width:1.5;stroke-linecap:butt;stroke-linejoin:miter;stroke:#000;stroke-opacity:1;stroke-miterlimit:4" transform="matrix(.01292 -.00356 .00653 .00913 7.567 4.906)"/><path d="M139.804 643.968c.118 57.79-18.838 86.33-34.508 110.163 7.483-32.157 12.832-52.314 12.967-110.006-.119-57.79 29.625-85.547 40.494-102.27-4.23 16.745-18.82 44.42-18.953 102.113Zm0 0" style="fill-rule:evenodd;fill:#009200;fill-opacity:1;stroke-width:1.5;stroke-linecap:butt;stroke-linejoin:miter;stroke:#000;stroke-opacity:1;stroke-miterlimit:4" transform="matrix(.01292 -.00356 .00653 .00913 7.594 5.324)"/><path d="M139.873 644.065c-.01 57.43-18.796 86.317-34.73 110.341 7.754-32.771 13.026-52.69 13.223-110.474-.236-57.537 29.457-85.203 40.307-101.847-4.094 16.51-18.85 44.088-18.8 101.98Zm0 0" style="fill-rule:evenodd;fill:#009200;fill-opacity:1;stroke-width:1.5;stroke-linecap:butt;stroke-linejoin:miter;stroke:#000;stroke-opacity:1;stroke-miterlimit:4" transform="matrix(.01285 -.00387 .00674 .00898 7.5 5.802)"/><path d="M541.823 646.159c.304-22.7-5.904-40.834-13.192-40.765-7.18-.212-13.42 18.27-13.326 40.76s5.905 40.833 13.482 40.835c7.288-.07 13.13-18.341 13.036-40.83Zm0 0" style="fill-rule:evenodd;fill:#009200;fill-opacity:1;stroke-width:1.4;stroke-linecap:butt;stroke-linejoin:miter;stroke:#000;stroke-opacity:1;stroke-miterlimit:4" transform="matrix(.01237 -.0031 .00481 .0127 3.695 3.273)"/><path d="M541.891 646.09c.104-22.414-6.053-40.661-13.335-40.78-7.282-.12-13.049 18.34-13.153 40.754-.104 22.415 5.936 41.016 13.335 40.78 7.282.12 13.379-18.283 13.153-40.753Zm0 0" style="fill-rule:evenodd;fill:#009200;fill-opacity:1;stroke-width:1.6;stroke-linecap:butt;stroke-linejoin:miter;stroke:#000;stroke-opacity:1;stroke-miterlimit:4" transform="matrix(.0112 -.00178 .00371 .01045 4.905 4.273)"/><path d="M541.895 646.088c-.027-22.643-5.916-40.952-13.248-40.917s-13.33 18.452-13.303 41.094c.136 22.288 6.025 40.596 13.357 40.561 7.333-.035 13.221-18.096 13.194-40.738Zm0 0" style="fill-rule:evenodd;fill:#009200;fill-opacity:1;stroke-width:1.6;stroke-linecap:butt;stroke-linejoin:miter;stroke:#000;stroke-opacity:1;stroke-miterlimit:4" transform="matrix(.0112 -.00155 .00344 .01053 4.83 4.273)"/><path d="M542.102 645.946c-.258-22.26-5.886-40.546-13.327-40.52s-13.5 17.994-13.412 40.724 5.887 40.546 13.328 40.52c7.27.445 13.5-17.994 13.411-40.724Zm0 0" style="fill-rule:evenodd;fill:#009200;fill-opacity:1;stroke-width:2.1;stroke-linecap:butt;stroke-linejoin:miter;stroke:#000;stroke-opacity:1;stroke-miterlimit:4" transform="matrix(.00894 -.00155 .00323 .00774 6.339 5.352)"/><path d="M541.98 646.205c-.055-22.548-6.058-40.947-13.34-40.886s-13.231 18.421-13.176 40.97c.055 22.547 5.788 40.422 13.482 40.413 7.14.411 13.09-17.949 13.034-40.497Zm0 0" style="fill-rule:evenodd;fill:#009200;fill-opacity:1;stroke-width:2.1;stroke-linecap:butt;stroke-linejoin:miter;stroke:#000;stroke-opacity:1;stroke-miterlimit:4" transform="matrix(.00914 -.001 .00275 .00797 6.429 5.078)"/><path d="M145.88 569.543c-.325 34.081-7.09 61.584-15.334 61.512-8.244-.071-14.701-27.616-15.002-61.534" style="fill-rule:evenodd;fill:#009200;fill-opacity:1;stroke-width:2.1;stroke-linecap:butt;stroke-linejoin:miter;stroke:#000;stroke-opacity:1;stroke-miterlimit:4" transform="matrix(.00708 -.00387 .00316 .00913 10.076 4.871)"/><path d="M542 645.878c-.055-22.549-5.789-40.423-13.482-40.414-7.283.06-13.09 17.949-13.035 40.497s6.059 40.947 13.34 40.886c7.283-.061 13.232-18.421 13.177-40.97Zm0 0" style="fill-rule:evenodd;fill:#009200;fill-opacity:1;stroke-width:2.1;stroke-linecap:butt;stroke-linejoin:miter;stroke:#000;stroke-opacity:1;stroke-miterlimit:4" transform="matrix(.00914 -.001 .00275 .00797 6.418 4.717)"/><path d="M542.064 646.02c-.03-22.327-5.849-40.843-13.604-40.618-7.205-.208-12.884 18.173-12.854 40.5-.105 22.8 5.85 40.844 13.054 41.052 7.34-.265 13.3-18.134 13.404-40.934Zm0 0" style="fill-rule:evenodd;fill:#009200;fill-opacity:1;stroke-width:2.1;stroke-linecap:butt;stroke-linejoin:miter;stroke:#000;stroke-opacity:1;stroke-miterlimit:4" transform="matrix(.00914 -.00077 .00261 .00805 6.318 4.673)"/><path d="M145.385 569.557c.256 34.22-6.407 61.22-14.316 61.62-8.513.046-15.52-28.045-15.48-61.46" style="fill-rule:evenodd;fill:#009200;fill-opacity:1;stroke-width:2.9;stroke-linecap:butt;stroke-linejoin:miter;stroke:#000;stroke-opacity:1;stroke-miterlimit:4" transform="matrix(.0046 -.00364 .00316 .0062 10.26 6.092)"/><path d="M145.842 569.619c-.35 33.864-6.716 61.669-15.23 61.714-8.204-.403-14.916-27.69-15.171-61.91" style="fill-rule:evenodd;fill:#009200;fill-opacity:1;stroke-width:2.9;stroke-linecap:butt;stroke-linejoin:miter;stroke:#000;stroke-opacity:1;stroke-miterlimit:4" transform="matrix(.0046 -.00364 .00316 .0062 10.34 5.957)"/><path d="M145.819 569.603c-.104 33.894-6.883 61.61-15.183 61.37-8.09.34-15.075-27.584-14.971-61.478" style="fill-rule:evenodd;fill:#009200;fill-opacity:1;stroke-width:2.1;stroke-linecap:butt;stroke-linejoin:miter;stroke:#000;stroke-opacity:1;stroke-miterlimit:4" transform="matrix(.00646 -.00495 .0044 .00851 9.712 4.9)"/><path d="M145.87 569.83c-.236 33.7-7.196 61.133-14.867 61.189-8.555.106-15.172-27.319-15.539-61.376" style="fill-rule:evenodd;fill:#009200;fill-opacity:1;stroke-width:2.7;stroke-linecap:butt;stroke-linejoin:miter;stroke:#000;stroke-opacity:1;stroke-miterlimit:4" transform="matrix(.0046 -.00402 .00316 .00681 10.46 5.534)"/><path d="M276.335 345.29c-12.147 9.178.64 25.237 12.147 30.743 12.787 7.8 86.308 58.273 136.176 11.93-40.917.918-118.914-62.861-148.323-42.672Zm0 0" style="fill-rule:evenodd;fill:#804bff;fill-opacity:1;stroke-width:2.5;stroke-linecap:butt;stroke-linejoin:miter;stroke:#000;stroke-opacity:1;stroke-miterlimit:4" transform="matrix(.00611 0 0 .00851 11.401 5.08)"/><path d="M276.135 345.496c-12.148 9.177.639 25.236 12.147 30.742 12.786 7.342 86.308 58.273 136.175 11.93-40.917.918-118.274-63.32-148.322-42.672Zm0 0" style="fill-rule:evenodd;fill:#804bff;fill-opacity:1;stroke-width:2.5;stroke-linecap:butt;stroke-linejoin:miter;stroke:#000;stroke-opacity:1;stroke-miterlimit:4" transform="matrix(.00611 0 0 .00851 11.348 4.852)"/><path d="M276.516 345.255c-12.786 9.177 0 25.237 11.508 30.743 13.426 7.8 86.948 58.273 136.815 11.93-40.917.917-118.914-62.862-148.323-42.673Zm0 0" style="fill-rule:evenodd;fill:#804bff;fill-opacity:1;stroke-width:2.5;stroke-linecap:butt;stroke-linejoin:miter;stroke:#000;stroke-opacity:1;stroke-miterlimit:4" transform="matrix(.00611 0 0 .00851 11.28 4.635)"/><path d="M276.597 345.44c-12.786 9.176 0 25.236 11.508 30.742 13.425 7.8 86.947 58.273 136.814 11.93-40.916.917-118.913-63.32-148.322-42.673Zm0 0" style="fill-rule:evenodd;fill:#804bff;fill-opacity:1;stroke-width:2.5;stroke-linecap:butt;stroke-linejoin:miter;stroke:#000;stroke-opacity:1;stroke-miterlimit:4" transform="matrix(.00611 0 0 .00851 11.13 4.387)"/><path d="M211.259 247.385c21.621-11.823 56.331-9.84 79.497 11.023 19.406 17.314 45.679 75.086 70.565 92.948-15.476.783-31.043-4.592-42.32-15.24-28.583 15.441-38.093 16.87-63.791 15.59-35.933-1.112-62.653-17.67-68.022-40.522-6.592-21.984 4.646-52.649 24.07-63.799Zm0 0" style="fill-rule:evenodd;fill:#804bff;fill-opacity:1;stroke-width:2.5;stroke-linecap:butt;stroke-linejoin:miter;stroke:#000;stroke-opacity:1;stroke-miterlimit:4" transform="matrix(.00766 -.00141 .00179 .007 10.075 5.786)"/><path d="M301.303 322.812c-.07-7.764-6.27-14.545-14.05-15.06-7.773.26-14.263 6.691-14.185 15.231s6.277 15.322 14.05 15.061 14.263-6.692 14.185-15.232Zm0 0" style="fill-rule:evenodd;fill:red;fill-opacity:1;stroke-width:2.5;stroke-linecap:butt;stroke-linejoin:miter;stroke:#000;stroke-opacity:1;stroke-miterlimit:4" transform="matrix(.00955 .00017 -.00009 .00503 9.847 5.72)"/><path d="M227.825 348.22c-.091-8.886-10.463-15.88-23.227-15.686-12.764.193-23.256 7.297-23.437 15.472.09 8.885 10.462 15.878 23.498 16.396 12.764-.193 23.256-7.297 23.166-16.183Zm0 0" style="fill-rule:evenodd;fill:#ff0;fill-opacity:1;stroke-width:2.5;stroke-linecap:butt;stroke-linejoin:miter;stroke:#000;stroke-opacity:1;stroke-miterlimit:4" transform="matrix(.00769 -.00296 .00256 .00662 9.724 5.996)"/><path d="M12.39 7.633c0-.024-.019-.043-.042-.047a.045.045 0 0 0-.047.047c0 .023.02.043.043.043.027.004.047-.016.047-.043m0 0" style="stroke:none;fill-rule:evenodd;fill:#000;fill-opacity:1"/><path d="M516.996 260.25c4.338 17.573-6.56 43.051-33.028 52.463-27.439 13.219-46.484 41.399-56.06 88.302-47.486-103.71-22.533-148.426 20.264-160.718 37.648-14.703 61.207-12.693 68.824 19.953Zm0 0" style="fill-rule:evenodd;fill:#ff0;fill-opacity:1;stroke-width:6.6;stroke-linecap:butt;stroke-linejoin:miter;stroke:#000;stroke-opacity:1;stroke-miterlimit:4" transform="matrix(.00382 .00007 -.00005 .0031 10.446 6.648)"/><path d="M12.012 7.797a.035.035 0 0 0-.035-.035.035.035 0 0 0-.036.035c0 .02.016.035.036.035s.035-.016.035-.035m0 0" style="stroke:none;fill-rule:evenodd;fill:#000;fill-opacity:1"/></svg>