<?xml version="1.0" encoding="UTF-8"?>
<svg xmlns="http://www.w3.org/2000/svg" xmlns:xlink="http://www.w3.org/1999/xlink" width="25px" height="px" viewBox="0 0 25 19" version="1.1">
<g id="surface1">
<rect x="0" y="0" width="25" height="19" style="fill:rgb(6.27451%,54.901963%,0%);fill-opacity:1;stroke:none;"/>
<path style=" stroke:none;fill-rule:evenodd;fill:rgb(100%,83.92157%,0%);fill-opacity:1;" d="M -6.433594 6.628906 L 31.480469 6.628906 L 31.480469 8.496094 L -6.433594 8.496094 Z M -6.433594 6.628906 "/>
<path style=" stroke:none;fill-rule:evenodd;fill:rgb(100%,83.92157%,0%);fill-opacity:1;" d="M 9.757812 0 L 11.539062 0 L 11.539062 19.050781 L 9.761719 19.050781 Z M 9.757812 0 "/>
<path style=" stroke:none;fill-rule:evenodd;fill:rgb(0%,0%,0.392157%);fill-opacity:1;" d="M 11.476562 0 L 13.253906 0 L 13.253906 19.050781 L 11.476562 19.050781 Z M 11.476562 0 "/>
<path style=" stroke:none;fill-rule:evenodd;fill:rgb(0%,0%,0.392157%);fill-opacity:1;" d="M -6.433594 8.429688 L 31.480469 8.429688 L 31.480469 10.300781 L -6.433594 10.300781 Z M -6.433594 8.429688 "/>
<path style=" stroke:none;fill-rule:evenodd;fill:rgb(100%,100%,100%);fill-opacity:1;" d="M -6.433594 10.300781 L 31.480469 10.300781 L 31.480469 12.164062 L -6.433594 12.164062 Z M -6.433594 10.300781 "/>
<path style=" stroke:none;fill-rule:evenodd;fill:rgb(100%,100%,100%);fill-opacity:1;" d="M 13.253906 0 L 15.035156 0 L 15.035156 19.050781 L 13.253906 19.050781 Z M 13.253906 0 "/>
<path style=" stroke:none;fill-rule:evenodd;fill:rgb(90.588236%,16.078432%,6.27451%);fill-opacity:1;" d="M 12.574219 14.65625 C 9.800781 14.65625 7.550781 12.367188 7.550781 9.539062 C 7.550781 6.714844 9.800781 4.425781 12.574219 4.425781 C 15.351562 4.425781 17.601562 6.714844 17.601562 9.539062 C 17.601562 12.367188 15.351562 14.65625 12.574219 14.65625 Z M 12.574219 14.65625 "/>
<path style=" stroke:none;fill-rule:evenodd;fill:rgb(0%,0%,0%);fill-opacity:1;" d="M 12.3125 5.097656 L 12.515625 4.503906 L 12.703125 5.085938 C 12.703125 5.085938 13.332031 5.105469 13.332031 5.09375 C 13.332031 5.082031 12.835938 5.476562 12.835938 5.476562 L 13.058594 6.132812 C 13.054688 6.113281 12.515625 5.726562 12.515625 5.726562 C 12.515625 5.726562 11.972656 6.113281 11.984375 6.113281 C 11.996094 6.113281 12.191406 5.480469 12.191406 5.480469 L 11.703125 5.105469 L 12.3125 5.09375 Z M 12.3125 5.097656 "/>
<path style=" stroke:none;fill-rule:evenodd;fill:rgb(100%,90.588236%,0%);fill-opacity:1;" d="M 12.339844 5.125 L 12.511719 4.613281 L 12.675781 5.121094 C 12.675781 5.121094 13.222656 5.132812 13.222656 5.128906 C 13.222656 5.121094 12.792969 5.460938 12.792969 5.460938 L 12.984375 6.027344 C 12.976562 6.007812 12.511719 5.679688 12.511719 5.679688 C 12.511719 5.679688 12.042969 6.011719 12.050781 6.011719 C 12.058594 6.011719 12.234375 5.460938 12.234375 5.460938 L 11.808594 5.132812 L 12.335938 5.128906 Z M 12.339844 5.125 "/>
<path style=" stroke:none;fill-rule:evenodd;fill:rgb(6.27451%,54.901963%,0%);fill-opacity:1;" d="M 12.414062 5.210938 L 12.515625 4.910156 L 12.613281 5.207031 C 12.613281 5.207031 12.925781 5.210938 12.925781 5.207031 C 12.925781 5.199219 12.679688 5.398438 12.679688 5.398438 L 12.789062 5.726562 C 12.785156 5.714844 12.515625 5.527344 12.515625 5.527344 L 12.253906 5.71875 C 12.261719 5.71875 12.355469 5.402344 12.355469 5.402344 L 12.113281 5.214844 Z M 12.414062 5.210938 "/>
<path style=" stroke:none;fill-rule:evenodd;fill:rgb(0%,0%,0%);fill-opacity:1;" d="M 16.21875 7.878906 L 16.421875 7.285156 L 16.605469 7.871094 C 16.605469 7.871094 17.238281 7.890625 17.238281 7.878906 C 17.238281 7.871094 16.742188 8.265625 16.742188 8.265625 L 16.964844 8.917969 C 16.957031 8.898438 16.421875 8.511719 16.421875 8.511719 C 16.421875 8.511719 15.878906 8.898438 15.890625 8.898438 C 15.902344 8.898438 16.097656 8.269531 16.097656 8.269531 L 15.609375 7.886719 Z M 16.21875 7.878906 "/>
<path style=" stroke:none;fill-rule:evenodd;fill:rgb(100%,90.588236%,0%);fill-opacity:1;" d="M 16.242188 7.910156 L 16.421875 7.394531 L 16.585938 7.902344 C 16.585938 7.902344 17.128906 7.917969 17.128906 7.910156 C 17.128906 7.902344 16.699219 8.246094 16.699219 8.246094 L 16.894531 8.808594 C 16.886719 8.792969 16.421875 8.457031 16.421875 8.457031 C 16.421875 8.457031 15.953125 8.792969 15.960938 8.792969 C 15.96875 8.792969 16.140625 8.242188 16.140625 8.242188 L 15.71875 7.917969 Z M 16.242188 7.910156 "/>
<path style=" stroke:none;fill-rule:evenodd;fill:rgb(6.27451%,54.901963%,0%);fill-opacity:1;" d="M 16.320312 7.996094 L 16.421875 7.699219 L 16.515625 7.988281 L 16.832031 7.996094 L 16.582031 8.1875 C 16.582031 8.1875 16.699219 8.519531 16.691406 8.511719 C 16.691406 8.503906 16.421875 8.3125 16.421875 8.3125 L 16.15625 8.503906 L 16.257812 8.1875 L 16.015625 8 Z M 16.320312 7.996094 "/>
<path style=" stroke:none;fill-rule:evenodd;fill:rgb(0%,0%,0%);fill-opacity:1;" d="M 15.078125 12.300781 L 15.285156 11.707031 L 15.46875 12.292969 C 15.46875 12.292969 16.101562 12.3125 16.101562 12.304688 C 16.101562 12.296875 15.605469 12.6875 15.605469 12.6875 L 15.824219 13.339844 C 15.816406 13.320312 15.285156 12.9375 15.285156 12.9375 C 15.285156 12.9375 14.742188 13.320312 14.75 13.320312 C 14.757812 13.320312 14.957031 12.6875 14.957031 12.6875 L 14.46875 12.316406 Z M 15.078125 12.300781 "/>
<path style=" stroke:none;fill-rule:evenodd;fill:rgb(100%,90.588236%,0%);fill-opacity:1;" d="M 15.105469 12.332031 L 15.285156 11.816406 L 15.445312 12.324219 C 15.445312 12.324219 15.992188 12.34375 15.992188 12.332031 C 15.992188 12.320312 15.5625 12.664062 15.5625 12.664062 L 15.753906 13.230469 C 15.75 13.210938 15.285156 12.882812 15.285156 12.882812 C 15.285156 12.882812 14.816406 13.214844 14.824219 13.214844 C 14.832031 13.214844 15.003906 12.664062 15.003906 12.664062 L 14.582031 12.34375 Z M 15.105469 12.332031 "/>
<path style=" stroke:none;fill-rule:evenodd;fill:rgb(6.27451%,54.901963%,0%);fill-opacity:1;" d="M 15.183594 12.417969 L 15.285156 12.117188 L 15.378906 12.414062 C 15.378906 12.414062 15.691406 12.425781 15.691406 12.417969 C 15.691406 12.410156 15.445312 12.609375 15.445312 12.609375 L 15.554688 12.933594 C 15.554688 12.925781 15.285156 12.734375 15.285156 12.734375 L 15.015625 12.925781 L 15.121094 12.609375 L 14.878906 12.425781 Z M 15.183594 12.417969 "/>
<path style=" stroke:none;fill-rule:evenodd;fill:rgb(0%,0%,0%);fill-opacity:1;" d="M 9.621094 12.300781 L 9.824219 11.707031 L 10.007812 12.292969 C 10.007812 12.292969 10.636719 12.3125 10.636719 12.304688 C 10.636719 12.296875 10.140625 12.6875 10.140625 12.6875 L 10.367188 13.339844 C 10.359375 13.320312 9.824219 12.9375 9.824219 12.9375 C 9.824219 12.9375 9.28125 13.320312 9.289062 13.320312 C 9.296875 13.320312 9.5 12.6875 9.5 12.6875 L 9.011719 12.316406 Z M 9.621094 12.300781 "/>
<path style=" stroke:none;fill-rule:evenodd;fill:rgb(100%,90.588236%,0%);fill-opacity:1;" d="M 9.648438 12.332031 L 9.824219 11.816406 L 9.988281 12.324219 C 9.988281 12.324219 10.53125 12.34375 10.53125 12.332031 C 10.53125 12.320312 10.101562 12.664062 10.101562 12.664062 L 10.296875 13.230469 C 10.289062 13.210938 9.824219 12.882812 9.824219 12.882812 C 9.824219 12.882812 9.355469 13.214844 9.363281 13.214844 C 9.371094 13.214844 9.542969 12.664062 9.542969 12.664062 L 9.121094 12.34375 Z M 9.648438 12.332031 "/>
<path style=" stroke:none;fill-rule:evenodd;fill:rgb(6.27451%,54.901963%,0%);fill-opacity:1;" d="M 9.722656 12.417969 L 9.824219 12.117188 L 9.917969 12.414062 C 9.917969 12.414062 10.234375 12.425781 10.234375 12.417969 C 10.234375 12.410156 9.984375 12.609375 9.984375 12.609375 L 10.09375 12.933594 C 10.09375 12.925781 9.824219 12.734375 9.824219 12.734375 L 9.558594 12.925781 L 9.660156 12.609375 L 9.417969 12.425781 Z M 9.722656 12.417969 "/>
<path style=" stroke:none;fill-rule:evenodd;fill:rgb(0%,0%,0%);fill-opacity:1;" d="M 8.621094 7.765625 L 8.828125 7.171875 L 9.015625 7.757812 C 9.015625 7.757812 9.640625 7.777344 9.640625 7.765625 C 9.640625 7.753906 9.144531 8.152344 9.144531 8.152344 L 9.371094 8.804688 C 9.359375 8.785156 8.828125 8.402344 8.828125 8.402344 C 8.828125 8.402344 8.285156 8.78125 8.292969 8.78125 C 8.304688 8.78125 8.5 8.148438 8.5 8.148438 L 8.011719 7.777344 Z M 8.621094 7.765625 "/>
<path style=" stroke:none;fill-rule:evenodd;fill:rgb(100%,90.588236%,0%);fill-opacity:1;" d="M 8.652344 7.796875 L 8.828125 7.28125 L 8.992188 7.789062 C 8.992188 7.789062 9.53125 7.804688 9.53125 7.796875 C 9.53125 7.785156 9.101562 8.128906 9.101562 8.128906 L 9.296875 8.695312 C 9.289062 8.675781 8.828125 8.347656 8.828125 8.347656 C 8.828125 8.347656 8.355469 8.679688 8.367188 8.679688 C 8.378906 8.679688 8.542969 8.128906 8.542969 8.128906 L 8.121094 7.804688 Z M 8.652344 7.796875 "/>
<path style=" stroke:none;fill-rule:evenodd;fill:rgb(6.27451%,54.901963%,0%);fill-opacity:1;" d="M 8.722656 7.878906 L 8.828125 7.582031 L 8.921875 7.878906 L 9.234375 7.878906 L 8.988281 8.074219 L 9.097656 8.398438 C 9.09375 8.390625 8.828125 8.195312 8.828125 8.195312 L 8.5625 8.390625 C 8.570312 8.390625 8.664062 8.074219 8.664062 8.074219 L 8.421875 7.886719 Z M 8.722656 7.878906 "/>
<path style=" stroke:none;fill-rule:evenodd;fill:rgb(0%,0%,0%);fill-opacity:1;" d="M 15.03125 6.476562 L 14.828125 7.074219 L 14.644531 6.488281 C 14.644531 6.488281 14.011719 6.46875 14.011719 6.476562 C 14.011719 6.484375 14.507812 6.09375 14.507812 6.09375 L 14.285156 5.445312 C 14.292969 5.460938 14.828125 5.84375 14.828125 5.84375 C 14.828125 5.84375 15.371094 5.460938 15.359375 5.460938 C 15.347656 5.460938 15.152344 6.09375 15.152344 6.09375 L 15.640625 6.46875 Z M 15.03125 6.476562 "/>
<path style=" stroke:none;fill-rule:evenodd;fill:rgb(100%,90.588236%,0%);fill-opacity:1;" d="M 15.007812 6.449219 C 15.007812 6.460938 14.824219 6.964844 14.824219 6.964844 L 14.664062 6.460938 C 14.664062 6.460938 14.121094 6.441406 14.121094 6.449219 C 14.121094 6.457031 14.550781 6.117188 14.550781 6.117188 L 14.355469 5.550781 C 14.363281 5.570312 14.828125 5.902344 14.828125 5.902344 C 14.828125 5.902344 15.296875 5.566406 15.289062 5.566406 C 15.28125 5.566406 15.109375 6.117188 15.109375 6.117188 L 15.53125 6.441406 Z M 15.007812 6.449219 "/>
<path style=" stroke:none;fill-rule:evenodd;fill:rgb(6.27451%,54.901963%,0%);fill-opacity:1;" d="M 14.929688 6.363281 L 14.828125 6.660156 L 14.734375 6.371094 C 14.734375 6.371094 14.417969 6.359375 14.417969 6.367188 C 14.417969 6.375 14.667969 6.171875 14.667969 6.171875 L 14.558594 5.847656 C 14.558594 5.855469 14.828125 6.050781 14.828125 6.050781 L 15.09375 5.855469 C 15.085938 5.855469 14.988281 6.171875 14.988281 6.171875 L 15.234375 6.359375 L 14.929688 6.367188 Z M 14.929688 6.363281 "/>
<path style=" stroke:none;fill-rule:evenodd;fill:rgb(0%,0%,0%);fill-opacity:1;" d="M 16.601562 10.800781 L 16.394531 11.398438 L 16.210938 10.808594 C 16.210938 10.808594 15.578125 10.789062 15.578125 10.800781 C 15.578125 10.8125 16.074219 10.417969 16.074219 10.417969 L 15.855469 9.761719 C 15.863281 9.78125 16.394531 10.164062 16.394531 10.164062 C 16.394531 10.164062 16.9375 9.78125 16.925781 9.78125 C 16.914062 9.78125 16.722656 10.414062 16.722656 10.414062 L 17.214844 10.789062 Z M 16.601562 10.800781 "/>
<path style=" stroke:none;fill-rule:evenodd;fill:rgb(100%,90.588236%,0%);fill-opacity:1;" d="M 16.574219 10.773438 L 16.394531 11.285156 L 16.234375 10.777344 C 16.234375 10.777344 15.6875 10.765625 15.6875 10.773438 C 15.6875 10.777344 16.117188 10.4375 16.117188 10.4375 L 15.925781 9.871094 C 15.933594 9.890625 16.394531 10.222656 16.394531 10.222656 C 16.394531 10.222656 16.863281 9.886719 16.855469 9.886719 C 16.851562 9.886719 16.675781 10.4375 16.675781 10.4375 L 17.097656 10.765625 Z M 16.574219 10.773438 "/>
<path style=" stroke:none;fill-rule:evenodd;fill:rgb(6.27451%,54.901963%,0%);fill-opacity:1;" d="M 16.496094 10.6875 L 16.394531 10.984375 L 16.300781 10.691406 C 16.300781 10.691406 15.988281 10.683594 15.988281 10.691406 C 15.988281 10.699219 16.238281 10.496094 16.238281 10.496094 L 16.125 10.167969 C 16.125 10.179688 16.394531 10.371094 16.394531 10.371094 L 16.664062 10.175781 C 16.65625 10.175781 16.554688 10.496094 16.554688 10.496094 L 16.800781 10.683594 Z M 16.496094 10.6875 "/>
<path style=" stroke:none;fill-rule:evenodd;fill:rgb(0%,0%,0%);fill-opacity:1;" d="M 12.710938 13.964844 L 12.507812 14.558594 L 12.324219 13.972656 C 12.324219 13.972656 11.691406 13.953125 11.691406 13.960938 C 11.691406 13.96875 12.1875 13.578125 12.1875 13.578125 L 11.964844 12.925781 C 11.972656 12.945312 12.507812 13.328125 12.507812 13.328125 C 12.507812 13.328125 13.050781 12.945312 13.039062 12.945312 C 13.027344 12.945312 12.832031 13.578125 12.832031 13.578125 L 13.320312 13.953125 Z M 12.710938 13.964844 "/>
<path style=" stroke:none;fill-rule:evenodd;fill:rgb(100%,90.588236%,0%);fill-opacity:1;" d="M 12.6875 13.929688 L 12.507812 14.453125 L 12.34375 13.941406 C 12.34375 13.941406 11.800781 13.921875 11.800781 13.933594 C 11.800781 13.945312 12.230469 13.601562 12.230469 13.601562 L 12.035156 13.035156 C 12.042969 13.050781 12.507812 13.382812 12.507812 13.382812 C 12.507812 13.382812 12.976562 13.050781 12.96875 13.050781 C 12.960938 13.050781 12.789062 13.601562 12.789062 13.601562 L 13.210938 13.921875 L 12.6875 13.933594 Z M 12.6875 13.929688 "/>
<path style=" stroke:none;fill-rule:evenodd;fill:rgb(6.27451%,54.901963%,0%);fill-opacity:1;" d="M 12.609375 13.847656 L 12.507812 14.148438 L 12.414062 13.851562 C 12.414062 13.851562 12.097656 13.839844 12.097656 13.847656 C 12.097656 13.855469 12.347656 13.65625 12.347656 13.65625 L 12.238281 13.332031 C 12.238281 13.339844 12.507812 13.53125 12.507812 13.53125 L 12.773438 13.339844 L 12.671875 13.65625 L 12.914062 13.839844 Z M 12.609375 13.847656 "/>
<path style=" stroke:none;fill-rule:evenodd;fill:rgb(0%,0%,0%);fill-opacity:1;" d="M 9.0625 10.800781 L 8.851562 11.398438 L 8.667969 10.808594 C 8.667969 10.808594 8.039062 10.789062 8.039062 10.800781 C 8.039062 10.8125 8.53125 10.417969 8.53125 10.417969 L 8.3125 9.761719 C 8.320312 9.78125 8.851562 10.164062 8.851562 10.164062 L 9.390625 9.785156 L 9.183594 10.417969 L 9.671875 10.792969 L 9.0625 10.804688 Z M 9.0625 10.800781 "/>
<path style=" stroke:none;fill-rule:evenodd;fill:rgb(100%,90.588236%,0%);fill-opacity:1;" d="M 9.03125 10.773438 L 8.851562 11.285156 L 8.691406 10.777344 C 8.691406 10.777344 8.148438 10.765625 8.148438 10.773438 C 8.148438 10.777344 8.578125 10.4375 8.578125 10.4375 L 8.382812 9.871094 C 8.390625 9.890625 8.851562 10.222656 8.851562 10.222656 C 8.851562 10.222656 9.324219 9.886719 9.316406 9.886719 C 9.308594 9.886719 9.136719 10.4375 9.136719 10.4375 L 9.558594 10.765625 Z M 9.03125 10.773438 "/>
<path style=" stroke:none;fill-rule:evenodd;fill:rgb(6.27451%,54.901963%,0%);fill-opacity:1;" d="M 8.957031 10.6875 L 8.851562 10.984375 L 8.761719 10.691406 C 8.761719 10.691406 8.445312 10.683594 8.445312 10.691406 C 8.445312 10.699219 8.695312 10.496094 8.695312 10.496094 L 8.585938 10.167969 C 8.585938 10.179688 8.851562 10.371094 8.851562 10.371094 L 9.121094 10.175781 L 9.019531 10.496094 L 9.261719 10.683594 Z M 8.957031 10.6875 "/>
<path style=" stroke:none;fill-rule:evenodd;fill:rgb(0%,0%,0%);fill-opacity:1;" d="M 10.410156 6.542969 L 10.203125 7.136719 L 10.011719 6.550781 C 10.011719 6.550781 9.386719 6.535156 9.386719 6.542969 C 9.386719 6.546875 9.882812 6.15625 9.882812 6.15625 L 9.660156 5.507812 C 9.667969 5.527344 10.199219 5.910156 10.199219 5.910156 C 10.199219 5.910156 10.742188 5.527344 10.734375 5.527344 C 10.730469 5.527344 10.53125 6.15625 10.53125 6.15625 L 11.015625 6.53125 Z M 10.410156 6.542969 "/>
<path style=" stroke:none;fill-rule:evenodd;fill:rgb(100%,90.588236%,0%);fill-opacity:1;" d="M 10.378906 6.511719 L 10.199219 7.03125 L 10.039062 6.523438 C 10.039062 6.523438 9.496094 6.503906 9.496094 6.515625 C 9.496094 6.527344 9.925781 6.179688 9.925781 6.179688 L 9.730469 5.613281 C 9.738281 5.632812 10.199219 5.964844 10.199219 5.964844 C 10.199219 5.964844 10.671875 5.628906 10.664062 5.628906 C 10.65625 5.628906 10.488281 6.179688 10.488281 6.179688 L 10.90625 6.503906 L 10.378906 6.515625 Z M 10.378906 6.511719 "/>
<path style=" stroke:none;fill-rule:evenodd;fill:rgb(6.27451%,54.901963%,0%);fill-opacity:1;" d="M 10.304688 6.429688 L 10.199219 6.726562 L 10.109375 6.433594 C 10.109375 6.433594 9.796875 6.421875 9.796875 6.429688 C 9.796875 6.4375 10.042969 6.234375 10.042969 6.234375 L 9.933594 5.914062 C 9.933594 5.917969 10.199219 6.113281 10.199219 6.113281 L 10.46875 5.917969 L 10.363281 6.234375 L 10.609375 6.421875 Z M 10.304688 6.429688 "/>
<path style="fill-rule:evenodd;fill:rgb(0%,57.254905%,0%);fill-opacity:1;stroke-width:2.5;stroke-linecap:butt;stroke-linejoin:miter;stroke:rgb(0%,0%,0%);stroke-opacity:1;stroke-miterlimit:4;" d="M 710.854528 586.327196 C 710.854528 481.456155 697.154796 396.325545 680.258459 396.501265 C 663.362123 396.116177 649.205733 481.400074 649.205733 586.271115 C 649.205733 691.142156 663.362123 775.782994 680.258459 776.168082 C 697.154796 775.992362 710.854528 690.637429 710.854528 586.327196 Z M 710.854528 586.327196 " transform="matrix(0.008554,-0.00108351,0,0.0069654,7.059976,7.279962)"/>
<path style="fill-rule:evenodd;fill:rgb(0%,57.254905%,0%);fill-opacity:1;stroke-width:2.5;stroke-linecap:butt;stroke-linejoin:miter;stroke:rgb(0%,0%,0%);stroke-opacity:1;stroke-miterlimit:4;" d="M 710.849694 586.126605 C 710.849694 481.255564 697.21085 396.543691 680.162295 396.506304 C 663.11374 396.468916 649.474895 481.12097 649.474895 585.992011 C 649.474895 690.863053 663.11374 776.135734 680.162295 776.173121 C 697.21085 775.6497 710.849694 690.997646 710.849694 586.126605 Z M 710.849694 586.126605 " transform="matrix(0.009165,-0.0011609,0,0.0069654,6.981157,7.312932)"/>
<path style="fill-rule:evenodd;fill:rgb(0%,57.254905%,0%);fill-opacity:1;stroke-width:2.5;stroke-linecap:butt;stroke-linejoin:miter;stroke:rgb(0%,0%,0%);stroke-opacity:1;stroke-miterlimit:4;" d="M 711.155913 585.990725 C 711.155913 481.476564 697.303963 396.186211 680.255408 396.15902 C 663.206853 396.131829 649.354903 481.123085 649.354903 586.147072 C 649.354903 691.171058 663.206853 775.951586 680.255408 775.978777 C 697.303963 776.005967 711.155913 691.014712 711.155913 585.990725 Z M 711.155913 585.990725 " transform="matrix(0.007332,-0.00092872,0,0.00766194,8.094399,6.803451)"/>
<path style="fill-rule:evenodd;fill:rgb(66.274512%,33.725491%,0%);fill-opacity:1;stroke-width:0.5;stroke-linecap:butt;stroke-linejoin:miter;stroke:rgb(0%,0%,0%);stroke-opacity:1;stroke-miterlimit:4;" d="M 388.49937 -53.028889 C 394.534559 -53.331725 391.874984 -56.259142 394.943724 -57.975213 C 397.910173 -59.590339 402.206408 -58.580886 403.536196 -56.561978 C 404.763692 -54.644015 403.84307 -52.625107 405.479731 -52.625107 C 407.218684 -52.625107 452.533743 -55.148742 454.068113 -53.533616 C 455.704774 -51.91849 456.113939 -48.486346 454.374987 -47.174056 C 452.840617 -45.760821 395.455181 -44.24664 393.511645 -45.55893 C 391.465819 -46.972166 388.49937 -52.625107 388.49937 -53.028889 Z M 388.49937 -53.028889 " transform="matrix(0.0381875,0,0,0.0386967,-3.304569,12.993447)"/>
<path style="fill-rule:evenodd;fill:rgb(100%,100%,0%);fill-opacity:1;stroke-width:3.9;stroke-linecap:butt;stroke-linejoin:miter;stroke:rgb(0%,0%,0%);stroke-opacity:1;stroke-miterlimit:4;" d="M 529.336801 405.826634 C 529.336801 445.195336 575.026926 433.08189 576.390811 466.393868 C 575.708868 501.724755 500.013287 470.431684 497.967461 405.826634 C 500.013287 340.212131 572.9811 307.909606 574.344984 344.249947 C 575.708868 375.543018 529.336801 365.448479 529.336801 405.826634 Z M 529.336801 405.826634 " transform="matrix(0.00572813,0,0,0.00386967,9.694455,9.83193)"/>
<path style="fill-rule:evenodd;fill:rgb(100%,100%,0%);fill-opacity:1;stroke-width:3.9;stroke-linecap:butt;stroke-linejoin:miter;stroke:rgb(0%,0%,0%);stroke-opacity:1;stroke-miterlimit:4;" d="M 529.26588 405.836104 C 529.26588 445.204806 574.956005 433.091359 576.31989 466.403337 C 575.637947 501.734224 499.942367 470.441153 497.89654 405.836104 C 499.942367 340.2216 572.910179 307.919076 574.274063 344.259416 C 575.637947 375.552487 529.26588 365.457948 529.26588 405.836104 Z M 529.26588 405.836104 " transform="matrix(0.00572813,0,0,0.00386967,9.847205,9.8358)"/>
<path style="fill-rule:evenodd;fill:rgb(100%,100%,0%);fill-opacity:1;stroke-width:3.9;stroke-linecap:butt;stroke-linejoin:miter;stroke:rgb(0%,0%,0%);stroke-opacity:1;stroke-miterlimit:4;" d="M 529.922606 405.817242 C 529.922606 445.185944 574.930789 433.072497 576.294673 466.384475 C 575.612731 501.715362 499.91715 470.422291 497.871324 405.817242 C 499.91715 340.202738 572.884962 307.900214 574.248847 344.240554 C 575.612731 375.533625 529.240663 365.439086 529.240663 405.817242 Z M 529.922606 405.817242 " transform="matrix(0.00572813,0,0,0.00386967,10.011412,9.82806)"/>
<path style="fill-rule:evenodd;fill:rgb(100%,100%,0%);fill-opacity:1;stroke-width:3.9;stroke-linecap:butt;stroke-linejoin:miter;stroke:rgb(0%,0%,0%);stroke-opacity:1;stroke-miterlimit:4;" d="M 529.851685 405.817242 C 529.851685 445.185944 574.859868 433.072497 576.223752 466.384475 C 575.54181 501.715362 499.846229 470.422291 497.800403 405.817242 C 499.846229 340.202738 572.814041 307.900214 574.177926 344.240554 C 575.54181 375.533625 529.169743 365.439086 529.169743 405.817242 Z M 529.851685 405.817242 " transform="matrix(0.00572813,0,0,0.00386967,10.164162,9.82806)"/>
<path style="fill-rule:evenodd;fill:rgb(66.274512%,33.725491%,0%);fill-opacity:1;stroke-width:0.4;stroke-linecap:butt;stroke-linejoin:miter;stroke:rgb(0%,0%,0%);stroke-opacity:1;stroke-miterlimit:4;" d="M 481.884874 -41.111699 C 481.944332 -42.956084 480.335247 -44.508115 478.38303 -44.474163 C 476.429218 -44.527962 474.875974 -43.008713 474.911075 -41.078195 C 474.94458 -39.235427 476.460702 -37.681779 478.412919 -37.715731 C 480.366731 -37.661931 481.919975 -39.181181 481.884874 -41.111699 Z M 481.884874 -41.111699 " transform="matrix(0.0420062,0.000773933,-0.00076375,0.0445012,-6.191544,13.175322)"/>
<path style="fill-rule:evenodd;fill:rgb(0%,57.254905%,0%);fill-opacity:1;stroke-width:2.5;stroke-linecap:butt;stroke-linejoin:miter;stroke:rgb(0%,0%,0%);stroke-opacity:1;stroke-miterlimit:4;" d="M 448.156384 905.072048 C 447.683506 891.729273 438.888332 880.791104 427.394285 880.805013 C 415.900238 880.818922 406.55639 891.729497 406.430635 905.039969 C 406.30488 918.350441 415.758694 929.007074 427.252741 928.993165 C 438.746789 928.979256 448.030629 918.38252 448.156384 905.072048 Z M 448.156384 905.072048 " transform="matrix(0.00645864,-0.000664792,0.00123491,0.0123195,9.112838,0.57364)"/>
<path style="fill-rule:evenodd;fill:rgb(0%,57.254905%,0%);fill-opacity:1;stroke-width:2.5;stroke-linecap:butt;stroke-linejoin:miter;stroke:rgb(0%,0%,0%);stroke-opacity:1;stroke-miterlimit:4;" d="M 447.853259 905.066756 C 447.979014 891.756284 438.585207 880.785812 427.09116 880.79972 C 415.597113 880.813629 406.253265 891.724205 406.12751 905.034677 C 406.001755 918.345148 415.455569 929.001781 426.949616 928.987872 C 438.443664 928.973964 447.727504 918.377227 447.853259 905.066756 Z M 447.853259 905.066756 " transform="matrix(0.00645864,-0.000664792,0.00123491,0.0123195,8.88824,0.553973)"/>
<path style="fill-rule:evenodd;fill:rgb(0%,57.254905%,0%);fill-opacity:1;stroke-width:2.5;stroke-linecap:butt;stroke-linejoin:miter;stroke:rgb(0%,0%,0%);stroke-opacity:1;stroke-miterlimit:4;" d="M 447.809771 904.891827 C 447.935526 891.581355 438.481712 880.924722 426.987665 880.938631 C 415.493617 880.952539 406.209777 891.549276 406.084022 904.859747 C 406.5569 918.202523 415.352074 929.140691 426.846121 929.126783 C 438.340168 929.112874 447.684016 918.202298 447.809771 904.891827 Z M 447.809771 904.891827 " transform="matrix(0.00645864,-0.000664792,0.00123491,0.0123195,8.728581,0.26313)"/>
<path style="fill-rule:evenodd;fill:rgb(0%,57.254905%,0%);fill-opacity:1;stroke-width:2.5;stroke-linecap:butt;stroke-linejoin:miter;stroke:rgb(0%,0%,0%);stroke-opacity:1;stroke-miterlimit:4;" d="M 448.140075 905.05796 C 447.892671 891.711096 438.73907 880.849668 427.162692 880.891919 C 415.586315 880.93417 406.103252 891.799905 406.350656 905.14677 C 406.02577 918.177161 415.815418 929.068124 427.391796 929.025872 C 438.332126 928.954086 447.751431 918.37529 448.140075 905.05796 Z M 448.140075 905.05796 " transform="matrix(0.00607872,-0.000625687,0.00135068,0.0134745,8.947969,-0.87965)"/>
<path style="fill-rule:evenodd;fill:rgb(0%,57.254905%,0%);fill-opacity:1;stroke-width:2.5;stroke-linecap:butt;stroke-linejoin:miter;stroke:rgb(0%,0%,0%);stroke-opacity:1;stroke-miterlimit:4;" d="M 448.142318 904.889659 C 447.703642 891.646882 438.358769 881.040174 426.846149 880.780656 C 415.905819 880.856793 406.550271 891.772399 406.352899 904.983851 C 406.155527 918.195304 415.436642 929.106341 427.01302 929.061529 C 438.589398 929.016717 447.881188 918.405441 448.142318 904.889659 Z M 448.142318 904.889659 " transform="matrix(0.00607872,-0.000625687,0.0012735,0.0127045,9.33443,-0.125955)"/>
<path style="fill-rule:evenodd;fill:rgb(0%,57.254905%,0%);fill-opacity:1;stroke-width:2.5;stroke-linecap:butt;stroke-linejoin:miter;stroke:rgb(0%,0%,0%);stroke-opacity:1;stroke-miterlimit:4;" d="M 448.127541 904.991487 C 447.688865 891.74871 438.40775 880.837673 426.831372 880.882485 C 415.891042 880.958621 406.599252 891.569898 406.338123 905.08568 C 406.14075 918.297132 415.421865 929.208169 426.998243 929.163357 C 438.574621 929.118546 447.930169 918.20294 448.127541 904.991487 Z M 448.127541 904.991487 " transform="matrix(0.00607872,-0.000625687,0.0012735,0.0127045,9.162515,-0.232727)"/>
<path style="fill-rule:evenodd;fill:rgb(0%,57.254905%,0%);fill-opacity:1;stroke-width:2.5;stroke-linecap:butt;stroke-linejoin:miter;stroke:rgb(0%,0%,0%);stroke-opacity:1;stroke-miterlimit:4;" d="M 448.131515 905.03615 C 447.692839 891.793373 438.411724 880.882335 426.835346 880.927147 C 415.895016 881.003284 406.603226 891.614561 406.342097 905.130342 C 406.144725 918.341795 415.489597 928.948503 427.002217 929.20802 C 438.578595 929.163208 447.934143 918.247602 448.131515 905.03615 Z M 448.131515 905.03615 " transform="matrix(0.00607872,-0.000625687,0.0012735,0.0127045,8.94759,-0.385635)"/>
<path style="fill-rule:evenodd;fill:rgb(0%,57.254905%,0%);fill-opacity:1;stroke-width:2.5;stroke-linecap:butt;stroke-linejoin:miter;stroke:rgb(0%,0%,0%);stroke-opacity:1;stroke-miterlimit:4;" d="M 447.77344 904.892501 C 447.970812 891.681049 438.689697 880.770012 427.113319 880.814823 C 415.536941 880.859635 406.181394 891.775241 405.984022 904.986694 C 406.422698 918.229471 415.703813 929.140508 427.28019 929.095696 C 438.856568 929.050884 448.148358 918.439608 447.77344 904.892501 Z M 447.77344 904.892501 " transform="matrix(0.00607872,-0.000625687,0.0012735,0.0127045,8.746824,-0.473878)"/>
<path style="fill-rule:evenodd;fill:rgb(50.196081%,29.411766%,100%);fill-opacity:1;stroke-width:0.5;stroke-linecap:butt;stroke-linejoin:miter;stroke:rgb(0%,0%,0%);stroke-opacity:1;stroke-miterlimit:4;" d="M 482.573677 -140.960622 C 482.573677 -140.960622 470.912465 -130.967028 472.549127 -104.115554 C 474.288079 -77.062189 499.042581 -64.645906 499.042581 -64.645906 C 499.042581 -64.645906 505.180061 -72.317756 504.157148 -94.121961 C 502.213612 -125.919759 490.450109 -139.850223 490.450109 -139.850223 L 482.573677 -141.061567 Z M 482.573677 -140.960622 " transform="matrix(0.0381875,0,0,0.0386967,-6.088438,13.372675)"/>
<path style="fill-rule:evenodd;fill:rgb(0%,57.254905%,0%);fill-opacity:1;stroke-width:2.5;stroke-linecap:butt;stroke-linejoin:miter;stroke:rgb(0%,0%,0%);stroke-opacity:1;stroke-miterlimit:4;" d="M 448.111128 905.059945 C 447.953977 891.776464 438.478618 880.781158 427.034712 880.943202 C 415.544217 880.790763 406.284187 891.620111 406.441337 904.903592 C 405.998628 918.212153 415.473987 929.207459 426.917893 929.045416 C 438.408388 929.197855 447.668419 918.368507 448.111128 905.059945 Z M 448.111128 905.059945 " transform="matrix(0.00647186,0.000516138,-0.00095877,0.0123448,11.401225,0.0881524)"/>
<path style="fill-rule:evenodd;fill:rgb(0%,57.254905%,0%);fill-opacity:1;stroke-width:2.5;stroke-linecap:butt;stroke-linejoin:miter;stroke:rgb(0%,0%,0%);stroke-opacity:1;stroke-miterlimit:4;" d="M 447.891189 904.870249 C 447.734039 891.586767 438.305269 880.905944 426.861363 881.067987 C 415.370868 880.915548 406.110837 891.744896 406.267987 905.028377 C 406.425137 918.311859 415.853908 928.992682 427.344402 929.145121 C 438.788309 928.983078 448.048339 918.15373 447.891189 904.870249 Z M 447.891189 904.870249 " transform="matrix(0.00647186,0.000516138,-0.00095877,0.0123448,11.183716,0.0281077)"/>
<path style="fill-rule:evenodd;fill:rgb(0%,57.254905%,0%);fill-opacity:1;stroke-width:2.5;stroke-linecap:butt;stroke-linejoin:miter;stroke:rgb(0%,0%,0%);stroke-opacity:1;stroke-miterlimit:4;" d="M 447.967867 905.076344 C 447.810716 891.792863 438.335358 880.797558 426.891451 880.959601 C 415.400956 880.807162 406.140926 891.63651 406.298076 904.919991 C 406.455226 918.203472 415.330726 929.223858 427.374491 929.036735 C 438.864986 929.189173 448.125017 918.359825 447.967867 905.076344 Z M 447.967867 905.076344 " transform="matrix(0.00647186,0.000516138,-0.00095877,0.0123448,11.077949,-0.286976)"/>
<path style="fill-rule:evenodd;fill:rgb(0%,57.254905%,0%);fill-opacity:1;stroke-width:2.5;stroke-linecap:butt;stroke-linejoin:miter;stroke:rgb(0%,0%,0%);stroke-opacity:1;stroke-miterlimit:4;" d="M 447.716181 905.083124 C 447.988557 891.765191 438.409836 880.826831 426.888035 880.952054 C 415.316734 880.789751 406.313303 891.818044 406.040927 905.135977 C 406.405902 918.430979 415.297772 929.104743 426.819572 928.97952 C 438.390874 929.141823 448.081155 918.378126 447.716181 905.083124 Z M 447.716181 905.083124 " transform="matrix(0.00609116,0.000485777,-0.00104865,0.0135021,11.495444,-1.37159)"/>
<path style="fill-rule:evenodd;fill:rgb(0%,57.254905%,0%);fill-opacity:1;stroke-width:2.5;stroke-linecap:butt;stroke-linejoin:miter;stroke:rgb(0%,0%,0%);stroke-opacity:1;stroke-miterlimit:4;" d="M 447.602608 905.089383 C 447.973985 891.574208 438.543765 880.887774 427.021965 881.020587 C 415.450663 880.848447 406.298731 891.630264 406.564704 905.121119 C 406.143827 918.331342 415.574046 929.017776 427.145347 929.189916 C 438.667148 929.057103 447.81908 918.275286 447.602608 905.089383 Z M 447.602608 905.089383 " transform="matrix(0.00609116,0.000485777,-0.000988732,0.0127305,11.742688,-0.560019)"/>
<path style="fill-rule:evenodd;fill:rgb(0%,57.254905%,0%);fill-opacity:1;stroke-width:2.5;stroke-linecap:butt;stroke-linejoin:miter;stroke:rgb(0%,0%,0%);stroke-opacity:1;stroke-miterlimit:4;" d="M 447.900675 905.037235 C 447.684202 891.851332 438.841833 880.835625 427.320032 880.968438 C 415.748731 880.796298 406.596798 891.578115 406.225422 905.093291 C 406.441894 918.279193 415.872113 928.965627 426.806065 929.162087 C 438.327865 929.029275 448.117148 918.223137 447.900675 905.037235 Z M 447.900675 905.037235 " transform="matrix(0.00609116,0.000485777,-0.000988732,0.0127305,11.592384,-0.696219)"/>
<path style="fill-rule:evenodd;fill:rgb(0%,57.254905%,0%);fill-opacity:1;stroke-width:2.5;stroke-linecap:butt;stroke-linejoin:miter;stroke:rgb(0%,0%,0%);stroke-opacity:1;stroke-miterlimit:4;" d="M 448.019776 904.873995 C 447.803303 891.688092 438.373084 881.001658 426.801783 880.829518 C 415.917332 880.938011 406.12805 891.744148 406.344522 904.930051 C 406.610495 918.420906 415.403364 929.13166 426.925165 928.998848 C 438.496466 929.170987 447.648399 918.38917 448.019776 904.873995 Z M 448.019776 904.873995 " transform="matrix(0.00609116,0.000485777,-0.000988732,0.0127305,11.407903,-0.885605)"/>
<path style="fill-rule:evenodd;fill:rgb(0%,57.254905%,0%);fill-opacity:1;stroke-width:2.5;stroke-linecap:butt;stroke-linejoin:miter;stroke:rgb(0%,0%,0%);stroke-opacity:1;stroke-miterlimit:4;" d="M 447.779809 905.048342 C 448.151186 891.533167 438.720967 880.846733 427.199166 880.979545 C 415.627865 880.807405 406.475933 891.589223 406.104556 905.104398 C 406.321029 918.290301 415.751248 928.976735 427.322549 929.148874 C 438.84435 929.016062 447.996282 918.234245 447.779809 905.048342 Z M 447.779809 905.048342 " transform="matrix(0.00609116,0.000485777,-0.000988732,0.0127305,11.225943,-1.008802)"/>
<path style="fill-rule:evenodd;fill:rgb(78.823531%,0%,0%);fill-opacity:1;stroke-width:1.25;stroke-linecap:butt;stroke-linejoin:miter;stroke:rgb(0%,0%,0%);stroke-opacity:1;stroke-miterlimit:4;" d="M 682.699988 606.210172 C 682.919433 503.333654 656.805296 419.534353 624.283324 419.31198 C 592.317283 419.31198 566.042223 503.017651 566.378709 606.116541 C 566.159265 708.993058 592.273401 792.79236 624.239442 792.79236 C 656.980861 792.429542 682.480544 709.086689 682.699988 606.210172 Z M 682.699988 606.210172 " transform="matrix(0.00611,-0.0023218,0.00229125,0.0058045,8.025662,7.761658)"/>
<path style="fill-rule:evenodd;fill:rgb(0%,57.254905%,0%);fill-opacity:1;stroke-width:1.5;stroke-linecap:butt;stroke-linejoin:miter;stroke:rgb(0%,0%,0%);stroke-opacity:1;stroke-miterlimit:4;" d="M 228.804178 356.648487 C 228.967376 349.577435 224.034404 343.971132 218.149144 343.771567 C 212.012599 343.914385 207.229375 349.746817 207.321867 356.811918 C 207.414358 363.877019 212.096045 369.825706 217.976901 369.688838 C 224.113445 369.54602 228.901074 364.050021 228.804178 356.648487 Z M 228.804178 356.648487 " transform="matrix(0.0152727,0.00027014,-0.000199939,0.0116072,9.752638,4.579739)"/>
<path style="fill-rule:evenodd;fill:rgb(0%,57.254905%,0%);fill-opacity:1;stroke-width:1.6;stroke-linecap:butt;stroke-linejoin:miter;stroke:rgb(0%,0%,0%);stroke-opacity:1;stroke-miterlimit:4;" d="M 228.991456 356.76086 C 228.885752 349.695759 224.119685 343.735171 217.98314 343.860137 C 212.138811 343.979152 207.256702 349.799683 207.362406 356.864784 C 207.175894 363.935835 212.229144 369.55404 218.078506 369.771458 C 223.922835 369.652442 228.804944 363.831912 228.991456 356.76086 Z M 228.991456 356.76086 " transform="matrix(0.0133636,0.000236372,-0.000199939,0.0116072,10.22212,4.375179)"/>
<path style="fill-rule:evenodd;fill:rgb(0%,57.254905%,0%);fill-opacity:1;stroke-width:1.6;stroke-linecap:butt;stroke-linejoin:miter;stroke:rgb(0%,0%,0%);stroke-opacity:1;stroke-miterlimit:4;" d="M 228.940562 356.727916 C 228.834858 349.662815 224.073825 344.03866 218.224462 343.821242 C 212.087917 343.946208 207.205808 349.766738 207.311513 356.831839 C 207.417217 363.89694 212.183284 369.857529 218.027612 369.738513 C 224.164158 369.613547 228.75405 363.798968 228.940562 356.727916 Z M 228.940562 356.727916 " transform="matrix(0.0133636,0.000236372,-0.000199939,0.0116072,10.023575,4.371667)"/>
<path style="fill-rule:evenodd;fill:rgb(0%,57.254905%,0%);fill-opacity:1;stroke-width:1.6;stroke-linecap:butt;stroke-linejoin:miter;stroke:rgb(0%,0%,0%);stroke-opacity:1;stroke-miterlimit:4;" d="M 229.017729 356.680625 C 228.927262 349.578143 224.156684 344.083323 218.070662 343.854972 C 212.265822 343.993823 207.361667 349.720061 207.175714 356.829155 C 207.266181 363.931638 212.041521 369.800272 218.122781 369.654809 C 223.932383 369.889773 228.831776 363.78972 229.017729 356.680625 Z M 229.017729 356.680625 " transform="matrix(0.0141272,0.000249879,-0.000179945,0.0104465,9.926455,4.466706)"/>
<path style="fill-rule:evenodd;fill:rgb(0%,57.254905%,0%);fill-opacity:1;stroke-width:1.6;stroke-linecap:butt;stroke-linejoin:miter;stroke:rgb(0%,0%,0%);stroke-opacity:1;stroke-miterlimit:4;" d="M 228.777472 356.932497 C 228.963425 349.823403 224.188086 343.954768 218.102064 343.726417 C 212.020803 343.87188 207.393069 349.591506 207.207115 356.7006 C 207.297583 363.803083 212.072923 369.671717 218.154183 369.526254 C 223.963785 369.761218 228.86794 364.03498 228.777472 356.932497 Z M 228.777472 356.932497 " transform="matrix(0.0141272,0.000249879,-0.000179945,0.0104465,9.910363,4.29226)"/>
<path style="fill-rule:evenodd;fill:rgb(0%,57.254905%,0%);fill-opacity:1;stroke-width:1.6;stroke-linecap:butt;stroke-linejoin:miter;stroke:rgb(0%,0%,0%);stroke-opacity:1;stroke-miterlimit:4;" d="M 228.766732 356.932712 C 228.948211 349.525227 224.187178 343.901072 218.050633 344.026038 C 212.20127 343.80862 207.319161 349.62915 207.424866 356.694251 C 207.238354 363.765303 212.00442 369.725891 218.140965 369.600925 C 223.990328 369.818343 228.872437 363.997813 228.766732 356.932712 Z M 228.766732 356.932712 " transform="matrix(0.0133636,0.000236372,-0.000199939,0.0116072,9.834533,4.259956)"/>
<path style="fill-rule:evenodd;fill:rgb(0%,57.254905%,0%);fill-opacity:1;stroke-width:1.6;stroke-linecap:butt;stroke-linejoin:miter;stroke:rgb(0%,0%,0%);stroke-opacity:1;stroke-miterlimit:4;" d="M 228.983031 356.780462 C 228.877327 349.715361 224.11126 343.754773 217.974715 343.879739 C 212.130386 343.998754 207.248277 349.819285 207.353981 356.884386 C 207.167469 363.955437 212.220719 369.573642 218.070081 369.79106 C 224.206626 369.666094 228.796519 363.851514 228.983031 356.780462 Z M 228.983031 356.780462 " transform="matrix(0.0133636,0.000236372,-0.000199939,0.0116072,9.874581,4.152297)"/>
<path style="fill-rule:evenodd;fill:rgb(0%,57.254905%,0%);fill-opacity:1;stroke-width:1.5;stroke-linecap:butt;stroke-linejoin:miter;stroke:rgb(0%,0%,0%);stroke-opacity:1;stroke-miterlimit:4;" d="M 228.815986 356.941719 C 228.97478 349.534234 224.041808 343.927931 218.160952 344.064799 C 212.020003 343.871184 207.236779 349.703616 207.32927 356.768717 C 207.421762 363.833818 212.103449 369.782505 217.984304 369.645637 C 224.125254 369.839252 228.908478 364.00682 228.815986 356.941719 Z M 228.815986 356.941719 " transform="matrix(0.0152727,0.00027014,-0.000199939,0.0116072,9.295485,4.06852)"/>
<path style="fill-rule:evenodd;fill:rgb(0%,57.254905%,0%);fill-opacity:1;stroke-width:1.6;stroke-linecap:butt;stroke-linejoin:miter;stroke:rgb(0%,0%,0%);stroke-opacity:1;stroke-miterlimit:4;" d="M 228.883913 356.928184 C 228.793445 349.825702 224.018106 343.957067 218.208505 343.722104 C 212.127244 343.867567 207.223089 349.593805 207.313557 356.696288 C 207.404024 363.79877 212.179364 369.667404 217.984204 369.528553 C 224.070226 369.756905 228.974381 364.030667 228.883913 356.928184 Z M 228.883913 356.928184 " transform="matrix(0.0141272,0.000249879,-0.000179945,0.0104465,9.799484,4.077434)"/>
<path style="fill-rule:evenodd;fill:rgb(0%,57.254905%,0%);fill-opacity:1;stroke-width:1.6;stroke-linecap:butt;stroke-linejoin:miter;stroke:rgb(0%,0%,0%);stroke-opacity:1;stroke-miterlimit:4;" d="M 228.75632 356.833217 C 228.942832 349.762166 224.176765 343.801577 218.04022 343.926543 C 212.195891 344.045559 207.308749 349.529656 207.419487 356.93119 C 207.232974 364.002242 211.994008 369.626397 218.135586 369.837864 C 223.979915 369.718849 228.862024 363.898318 228.75632 356.833217 Z M 228.75632 356.833217 " transform="matrix(0.0133636,0.000236372,-0.000199939,0.0116072,9.73309,3.940801)"/>
<path style="fill-rule:evenodd;fill:rgb(0%,57.254905%,0%);fill-opacity:1;stroke-width:1.6;stroke-linecap:butt;stroke-linejoin:miter;stroke:rgb(0%,0%,0%);stroke-opacity:1;stroke-miterlimit:4;" d="M 228.995304 356.748253 C 228.8896 349.683152 224.128566 344.058997 217.986988 343.84753 C 212.142659 343.966545 207.26055 349.787075 207.366254 356.852176 C 207.179742 363.923228 212.232992 369.541432 218.082354 369.75885 C 223.926683 369.639835 228.808792 363.819305 228.995304 356.748253 Z M 228.995304 356.748253 " transform="matrix(0.0133636,0.000236372,-0.000199939,0.0116072,9.421285,4.082356)"/>
<path style="fill-rule:evenodd;fill:rgb(0%,57.254905%,0%);fill-opacity:1;stroke-width:1.6;stroke-linecap:butt;stroke-linejoin:miter;stroke:rgb(0%,0%,0%);stroke-opacity:1;stroke-miterlimit:4;" d="M 228.752416 356.655133 C 228.938928 349.584082 224.177894 343.959926 218.036316 343.748459 C 212.191987 343.867475 207.309878 349.688005 207.415582 356.753106 C 207.22907 363.824157 211.995137 369.784746 218.131682 369.65978 C 223.976011 369.540765 228.863153 364.056668 228.752416 356.655133 Z M 228.752416 356.655133 " transform="matrix(0.0133636,0.000236372,-0.000199939,0.0116072,9.471387,4.05615)"/>
<path style="fill-rule:evenodd;fill:rgb(0%,57.254905%,0%);fill-opacity:1;stroke-width:1.6;stroke-linecap:butt;stroke-linejoin:miter;stroke:rgb(0%,0%,0%);stroke-opacity:1;stroke-miterlimit:4;" d="M 228.997643 356.794322 C 228.891938 349.729221 224.125871 343.768633 217.989326 343.893599 C 212.144998 344.012614 207.262888 349.833145 207.368593 356.898246 C 207.182081 363.969297 212.23533 369.587502 218.084693 369.80492 C 223.929021 369.685904 228.81113 363.865374 228.997643 356.794322 Z M 228.997643 356.794322 " transform="matrix(0.0133636,0.000236372,-0.000199939,0.0116072,9.534544,3.937289)"/>
<path style="fill-rule:evenodd;fill:rgb(0%,57.254905%,0%);fill-opacity:1;stroke-width:2.5;stroke-linecap:butt;stroke-linejoin:miter;stroke:rgb(0%,0%,0%);stroke-opacity:1;stroke-miterlimit:4;" d="M 596.080115 564.404239 C 596.096931 450.701439 565.963006 359.090002 528.861659 359.059644 C 491.245626 358.851807 461.368107 451.235041 461.540445 564.422921 C 461.523629 678.125722 491.4684 770.252079 528.569747 770.282437 C 565.860247 769.797875 596.063299 678.10704 596.080115 564.404239 Z M 596.080115 564.404239 " transform="matrix(0.00673628,-0.0023218,0.00247455,0.00673322,8.298931,7.493877)"/>
<path style="fill-rule:evenodd;fill:rgb(0%,57.254905%,0%);fill-opacity:1;stroke-width:2.5;stroke-linecap:butt;stroke-linejoin:miter;stroke:rgb(0%,0%,0%);stroke-opacity:1;stroke-miterlimit:4;" d="M 541.831514 646.106603 C 542.22682 623.72937 536.04434 605.105176 528.583077 605.17615 C 521.121814 605.247124 515.590852 623.752085 515.195546 646.129319 C 515.321786 668.732246 521.183171 686.667531 528.443983 687.059773 C 535.905246 686.988799 541.957754 668.70953 541.831514 646.106603 Z M 541.831514 646.106603 " transform="matrix(0.00630842,-0.00307366,0.0027299,0.00710281,8.540754,7.341859)"/>
<path style="fill-rule:evenodd;fill:rgb(0%,57.254905%,0%);fill-opacity:1;stroke-width:1.5;stroke-linecap:butt;stroke-linejoin:miter;stroke:rgb(0%,0%,0%);stroke-opacity:1;stroke-miterlimit:4;" d="M 140.023753 644.048406 C 139.889727 701.740346 120.933691 730.28042 105.263261 754.113039 C 112.746696 721.956063 118.348438 701.897587 118.22993 644.107202 C 118.363956 586.415262 147.85576 558.560474 158.724048 541.838263 C 154.49492 558.582213 139.905246 586.258021 140.023753 644.048406 Z M 140.023753 644.048406 " transform="matrix(0.0129226,-0.00356009,0.00653006,0.00913241,7.566877,4.905844)"/>
<path style="fill-rule:evenodd;fill:rgb(0%,57.254905%,0%);fill-opacity:1;stroke-width:1.5;stroke-linecap:butt;stroke-linejoin:miter;stroke:rgb(0%,0%,0%);stroke-opacity:1;stroke-miterlimit:4;" d="M 139.803813 643.967568 C 139.922321 701.757953 120.966285 730.298028 105.295854 754.130646 C 112.779289 721.97367 118.128498 701.816749 118.262524 644.124809 C 118.144016 586.334424 147.888353 558.578081 158.756641 541.85587 C 154.527513 558.59982 139.937839 586.275628 139.803813 643.967568 Z M 139.803813 643.967568 " transform="matrix(0.0129226,-0.00356009,0.00653006,0.00913241,7.593685,5.323768)"/>
<path style="fill-rule:evenodd;fill:rgb(0%,57.254905%,0%);fill-opacity:1;stroke-width:1.5;stroke-linecap:butt;stroke-linejoin:miter;stroke:rgb(0%,0%,0%);stroke-opacity:1;stroke-miterlimit:4;" d="M 139.873337 644.06478 C 139.8622 701.494427 121.076744 730.381551 105.143297 754.406457 C 112.897117 721.634536 118.169256 701.716428 118.366401 643.931847 C 118.129639 586.395348 147.823289 558.729156 158.672967 542.085378 C 154.579104 558.595379 139.822584 586.173347 139.873337 644.06478 Z M 139.873337 644.06478 " transform="matrix(0.0128539,-0.00386967,0.00673628,0.00897763,7.500202,5.802059)"/>
<path style="fill-rule:evenodd;fill:rgb(0%,57.254905%,0%);fill-opacity:1;stroke-width:1.4;stroke-linecap:butt;stroke-linejoin:miter;stroke:rgb(0%,0%,0%);stroke-opacity:1;stroke-miterlimit:4;" d="M 541.823486 646.158517 C 542.127072 623.458298 535.918903 605.325052 528.63067 605.393996 C 521.451752 605.181842 515.211309 623.664205 515.305401 646.153659 C 515.399494 668.643113 521.209985 686.987124 528.78658 686.988512 C 536.074813 686.919568 541.917578 668.647971 541.823486 646.158517 Z M 541.823486 646.158517 " transform="matrix(0.0123727,-0.00309573,0.00481162,0.0126925,3.694894,3.272845)"/>
<path style="fill-rule:evenodd;fill:rgb(0%,57.254905%,0%);fill-opacity:1;stroke-width:1.6;stroke-linecap:butt;stroke-linejoin:miter;stroke:rgb(0%,0%,0%);stroke-opacity:1;stroke-miterlimit:4;" d="M 541.891184 646.09054 C 541.995399 623.675987 535.838022 605.428849 528.555989 605.309822 C 521.273956 605.190795 515.507385 623.649676 515.40317 646.064229 C 515.298954 668.478782 521.33909 687.079817 528.738365 686.844947 C 536.020397 686.963975 542.116983 668.561318 541.891184 646.09054 Z M 541.891184 646.09054 " transform="matrix(0.0112042,-0.00178005,0.00371183,0.0104481,4.905361,4.272767)"/>
<path style="fill-rule:evenodd;fill:rgb(0%,57.254905%,0%);fill-opacity:1;stroke-width:1.6;stroke-linecap:butt;stroke-linejoin:miter;stroke:rgb(0%,0%,0%);stroke-opacity:1;stroke-miterlimit:4;" d="M 541.895226 646.087515 C 541.867954 623.445017 535.978989 605.136223 528.646758 605.171322 C 521.314526 605.206421 515.316698 623.62277 515.34397 646.265269 C 515.48017 668.552663 521.369135 686.861457 528.701366 686.826358 C 536.033598 686.791259 541.922499 668.730014 541.895226 646.087515 Z M 541.895226 646.087515 " transform="matrix(0.0112042,-0.00154787,0.00343688,0.0105255,4.829062,4.272767)"/>
<path style="fill-rule:evenodd;fill:rgb(0%,57.254905%,0%);fill-opacity:1;stroke-width:2.1;stroke-linecap:butt;stroke-linejoin:miter;stroke:rgb(0%,0%,0%);stroke-opacity:1;stroke-miterlimit:4;" d="M 542.102494 645.945996 C 541.844485 623.686409 536.215757 605.399947 528.77493 605.425962 C 521.334103 605.451978 515.27518 623.419817 515.363015 646.150097 C 515.450851 668.880377 521.249753 686.696147 528.69058 686.670131 C 535.961233 687.114808 542.19033 668.676276 542.102494 645.945996 Z M 542.102494 645.945996 " transform="matrix(0.00893587,-0.00154787,0.00323066,0.00773933,6.338538,5.35163)"/>
<path style="fill-rule:evenodd;fill:rgb(0%,57.254905%,0%);fill-opacity:1;stroke-width:2.1;stroke-linecap:butt;stroke-linejoin:miter;stroke:rgb(0%,0%,0%);stroke-opacity:1;stroke-miterlimit:4;" d="M 541.980395 646.204804 C 541.925284 623.656644 535.92209 605.258017 528.639965 605.318966 C 521.357839 605.379915 515.408705 623.740074 515.463816 646.288234 C 515.518928 668.836394 521.252452 686.710959 528.946234 686.701966 C 536.086372 687.113123 542.035507 668.752964 541.980395 646.204804 Z M 541.980395 646.204804 " transform="matrix(0.00914209,-0.00100611,0.0027495,0.00797151,6.428584,5.077657)"/>
<path style="fill-rule:evenodd;fill:rgb(0%,57.254905%,0%);fill-opacity:1;stroke-width:2.1;stroke-linecap:butt;stroke-linejoin:miter;stroke:rgb(0%,0%,0%);stroke-opacity:1;stroke-miterlimit:4;" d="M 145.879508 569.54284 C 145.555454 603.624307 138.790117 631.126803 130.546002 631.055412 C 122.301888 630.984021 115.844517 603.439233 115.544003 569.520854 " transform="matrix(0.00707996,-0.00386967,0.00316193,0.00913241,10.076483,4.871017)"/>
<path style="fill-rule:evenodd;fill:rgb(0%,57.254905%,0%);fill-opacity:1;stroke-width:2.1;stroke-linecap:butt;stroke-linejoin:miter;stroke:rgb(0%,0%,0%);stroke-opacity:1;stroke-miterlimit:4;" d="M 541.999958 645.877559 C 541.944846 623.329399 536.211322 605.454834 528.517541 605.463827 C 521.235415 605.524776 515.428267 623.41283 515.483379 645.96099 C 515.53849 668.50915 521.541684 686.907777 528.823809 686.846828 C 536.105935 686.785878 542.055069 668.425719 541.999958 645.877559 Z M 541.999958 645.877559 " transform="matrix(0.00914209,-0.00100611,0.0027495,0.00797151,6.417586,4.717005)"/>
<path style="fill-rule:evenodd;fill:rgb(0%,57.254905%,0%);fill-opacity:1;stroke-width:2.1;stroke-linecap:butt;stroke-linejoin:miter;stroke:rgb(0%,0%,0%);stroke-opacity:1;stroke-miterlimit:4;" d="M 542.064358 646.02024 C 542.034369 623.692895 536.215364 605.176743 528.460024 605.401666 C 521.255494 605.194237 515.576442 623.575435 515.606431 645.902781 C 515.501467 668.702464 521.455425 686.746278 528.659954 686.953707 C 535.999437 686.688798 541.959394 668.819924 542.064358 646.02024 Z M 542.064358 646.02024 " transform="matrix(0.00914209,-0.000773933,0.00261202,0.00804891,6.317917,4.67289)"/>
<path style="fill-rule:evenodd;fill:rgb(0%,57.254905%,0%);fill-opacity:1;stroke-width:2.9;stroke-linecap:butt;stroke-linejoin:miter;stroke:rgb(0%,0%,0%);stroke-opacity:1;stroke-miterlimit:4;" d="M 145.385128 569.557481 C 145.640605 603.776642 138.977814 630.776777 131.068949 631.177588 C 122.555686 631.223316 115.548449 603.132034 115.588709 569.717527 " transform="matrix(0.00460541,-0.00363749,0.00316193,0.00619147,10.260012,6.092284)"/>
<path style="fill-rule:evenodd;fill:rgb(0%,57.254905%,0%);fill-opacity:1;stroke-width:2.9;stroke-linecap:butt;stroke-linejoin:miter;stroke:rgb(0%,0%,0%);stroke-opacity:1;stroke-miterlimit:4;" d="M 145.841517 569.618805 C 145.492596 603.482882 139.125542 631.287672 130.612279 631.3334 C 122.407677 630.929557 115.696177 603.642929 115.4407 569.423768 " transform="matrix(0.00460541,-0.00363749,0.00316193,0.00619147,10.339748,5.956846)"/>
<path style="fill-rule:evenodd;fill:rgb(0%,57.254905%,0%);fill-opacity:1;stroke-width:2.1;stroke-linecap:butt;stroke-linejoin:miter;stroke:rgb(0%,0%,0%);stroke-opacity:1;stroke-miterlimit:4;" d="M 145.818973 569.603163 C 145.715379 603.497248 138.936169 631.213125 130.636194 630.972475 C 122.545479 631.31242 115.561152 603.388993 115.664746 569.494908 " transform="matrix(0.00646132,-0.00495317,0.0043992,0.00851327,9.712174,4.900427)"/>
<path style="fill-rule:evenodd;fill:rgb(0%,57.254905%,0%);fill-opacity:1;stroke-width:2.7;stroke-linecap:butt;stroke-linejoin:miter;stroke:rgb(0%,0%,0%);stroke-opacity:1;stroke-miterlimit:4;" d="M 145.870487 569.830608 C 145.6342 603.530632 138.674356 630.963431 131.002766 631.018646 C 122.447652 631.125331 115.831367 603.700021 115.464262 569.643447 " transform="matrix(0.00460541,-0.00402445,0.00316193,0.00681061,10.460038,5.534278)"/>
<path style="fill-rule:evenodd;fill:rgb(50.196081%,29.411766%,100%);fill-opacity:1;stroke-width:2.5;stroke-linecap:butt;stroke-linejoin:miter;stroke:rgb(0%,0%,0%);stroke-opacity:1;stroke-miterlimit:4;" d="M 276.335083 345.290735 C 264.187988 354.467588 276.974404 370.527083 288.482179 376.033195 C 301.268596 383.833521 374.79049 434.306216 424.657515 387.963105 C 383.740982 388.88079 305.743841 325.101656 276.335083 345.290735 Z M 276.335083 345.290735 " transform="matrix(0.00611,0,0,0.00851327,11.401436,5.079979)"/>
<path style="fill-rule:evenodd;fill:rgb(50.196081%,29.411766%,100%);fill-opacity:1;stroke-width:2.5;stroke-linecap:butt;stroke-linejoin:miter;stroke:rgb(0%,0%,0%);stroke-opacity:1;stroke-miterlimit:4;" d="M 276.134554 345.496013 C 263.987458 354.672867 276.773875 370.732361 288.28165 376.238473 C 301.068066 383.579956 374.589961 434.511495 424.456985 388.168383 C 383.540453 389.086068 306.182633 324.848092 276.134554 345.496013 Z M 276.134554 345.496013 " transform="matrix(0.00611,0,0,0.00851327,11.347974,4.851669)"/>
<path style="fill-rule:evenodd;fill:rgb(50.196081%,29.411766%,100%);fill-opacity:1;stroke-width:2.5;stroke-linecap:butt;stroke-linejoin:miter;stroke:rgb(0%,0%,0%);stroke-opacity:1;stroke-miterlimit:4;" d="M 276.516215 345.255396 C 263.729798 354.432249 276.516215 370.491744 288.023989 375.997856 C 301.449727 383.798182 374.971622 434.270877 424.838646 387.927766 C 383.922113 388.845451 305.924973 325.066317 276.516215 345.255396 Z M 276.516215 345.255396 " transform="matrix(0.00611,0,0,0.00851327,11.279236,4.634968)"/>
<path style="fill-rule:evenodd;fill:rgb(50.196081%,29.411766%,100%);fill-opacity:1;stroke-width:2.5;stroke-linecap:butt;stroke-linejoin:miter;stroke:rgb(0%,0%,0%);stroke-opacity:1;stroke-miterlimit:4;" d="M 276.596986 345.439188 C 263.810569 354.616041 276.596986 370.675536 288.104761 376.181648 C 301.530498 383.981974 375.052393 434.454669 424.919417 388.111558 C 384.002884 389.029243 306.005744 324.791267 276.596986 345.439188 Z M 276.596986 345.439188 " transform="matrix(0.00611,0,0,0.00851327,11.130305,4.387309)"/>
<path style="fill-rule:evenodd;fill:rgb(50.196081%,29.411766%,100%);fill-opacity:1;stroke-width:2.5;stroke-linecap:butt;stroke-linejoin:miter;stroke:rgb(0%,0%,0%);stroke-opacity:1;stroke-miterlimit:4;" d="M 211.258854 247.38536 C 232.880207 235.562195 267.590426 237.544738 290.755875 258.408074 C 310.162294 275.721721 336.434702 333.49433 361.320523 351.355802 C 345.844928 352.139375 330.277927 346.764445 319.000838 336.115375 C 290.41761 351.556974 280.90823 352.986635 255.209561 351.706691 C 219.2768 350.593753 192.557168 334.036688 187.187939 311.183633 C 180.596168 289.200183 191.833669 258.535447 211.258854 247.38536 Z M 211.258854 247.38536 " transform="matrix(0.007663,-0.00141256,0.00178912,0.00699811,10.075241,5.785937)"/>
<path style="fill-rule:evenodd;fill:rgb(100%,0%,0%);fill-opacity:1;stroke-width:2.5;stroke-linecap:butt;stroke-linejoin:miter;stroke:rgb(0%,0%,0%);stroke-opacity:1;stroke-miterlimit:4;" d="M 301.303001 322.812061 C 301.232531 315.048213 295.032564 308.266738 287.25256 307.751272 C 279.479603 308.01219 272.99033 314.442989 273.067847 322.983221 C 273.145364 331.523454 279.345331 338.304929 287.118288 338.044011 C 294.891245 337.783092 301.380518 331.352294 301.303001 322.812061 Z M 301.303001 322.812061 " transform="matrix(0.00954542,0.000168837,-0.0000866403,0.0050298,9.847217,5.71998)"/>
<path style="fill-rule:evenodd;fill:rgb(100%,100%,0%);fill-opacity:1;stroke-width:2.5;stroke-linecap:butt;stroke-linejoin:miter;stroke:rgb(0%,0%,0%);stroke-opacity:1;stroke-miterlimit:4;" d="M 227.824553 348.21937 C 227.733972 339.334163 217.36191 332.340902 204.597967 332.533935 C 191.834024 332.726967 181.34156 339.831478 181.16077 348.005777 C 181.251351 356.890985 191.623413 363.884245 204.658725 364.402121 C 217.422668 364.209089 227.915133 357.104578 227.824553 348.21937 Z M 227.824553 348.21937 " transform="matrix(0.00768965,-0.00296019,0.00255942,0.00662471,9.724056,5.99646)"/>
<path style=" stroke:none;fill-rule:evenodd;fill:rgb(0%,0%,0%);fill-opacity:1;" d="M 12.390625 7.632812 C 12.390625 7.609375 12.371094 7.589844 12.347656 7.585938 C 12.320312 7.585938 12.300781 7.605469 12.300781 7.632812 C 12.300781 7.65625 12.320312 7.675781 12.34375 7.675781 C 12.371094 7.679688 12.390625 7.660156 12.390625 7.632812 Z M 12.390625 7.632812 "/>
<path style="fill-rule:evenodd;fill:rgb(100%,100%,0%);fill-opacity:1;stroke-width:6.6;stroke-linecap:butt;stroke-linejoin:miter;stroke:rgb(0%,0%,0%);stroke-opacity:1;stroke-miterlimit:4;" d="M 516.996196 260.249967 C 521.33387 277.823458 510.435886 303.301432 483.967513 312.713009 C 456.529235 325.931776 437.484425 354.111523 427.908694 401.014811 C 380.422363 297.304108 405.374691 252.58934 448.171949 240.297468 C 485.820185 225.593921 509.378842 227.603918 516.996196 260.249967 Z M 516.996196 260.249967 " transform="matrix(0.00381817,0.000067535,-0.0000533171,0.00309526,10.446147,6.647824)"/>
<path style=" stroke:none;fill-rule:evenodd;fill:rgb(0%,0%,0%);fill-opacity:1;" d="M 12.011719 7.796875 C 12.011719 7.777344 11.996094 7.761719 11.976562 7.761719 C 11.957031 7.761719 11.941406 7.777344 11.941406 7.796875 C 11.941406 7.816406 11.957031 7.832031 11.976562 7.832031 C 11.996094 7.832031 12.011719 7.816406 12.011719 7.796875 Z M 12.011719 7.796875 "/>
</g>
</svg>
