<svg xmlns="http://www.w3.org/2000/svg" width="25" height="px" viewBox="0 0 25 19"><path d="M12.5 0H25v19H12.5Zm0 0" style="stroke:none;fill-rule:nonzero;fill:#fff;fill-opacity:1"/><path d="M0 0h12.5v19H0Zm0 0" style="stroke:none;fill-rule:nonzero;fill:#006233;fill-opacity:1"/><path d="M16.563 7.125a4.665 4.665 0 0 0-5.274-2.215C9.242 5.47 7.816 7.352 7.816 9.5s1.426 4.031 3.473 4.59a4.665 4.665 0 0 0 5.274-2.215 3.72 3.72 0 0 1-4.168 1.21A3.8 3.8 0 0 1 9.887 9.5a3.8 3.8 0 0 1 2.508-3.586 3.72 3.72 0 0 1 4.168 1.211m.156 2.375L12.5 8.105l2.625 3.645v-4.5L12.5 10.895Zm0 0" style="stroke:none;fill-rule:nonzero;fill:#d21034;fill-opacity:1"/></svg>