<?xml version="1.0" encoding="UTF-8"?>
<svg xmlns="http://www.w3.org/2000/svg" xmlns:xlink="http://www.w3.org/1999/xlink" width="25px" height="px" viewBox="0 0 25 19" version="1.1">
<g id="surface1">
<path style=" stroke:none;fill-rule:nonzero;fill:rgb(100%,100%,100%);fill-opacity:1;" d="M 0 12.921875 L 25 12.921875 L 25 13.773438 L 0 13.773438 Z M 0 12.921875 "/>
<path style=" stroke:none;fill-rule:nonzero;fill:rgb(100%,100%,100%);fill-opacity:1;" d="M 0 5.226562 L 25 5.226562 L 25 6.078125 L 0 6.078125 Z M 0 5.226562 "/>
<path style=" stroke:none;fill-rule:nonzero;fill:rgb(0%,52.941179%,100%);fill-opacity:1;" d="M 0 13.773438 L 25 13.773438 L 25 19 L 0 19 Z M 0 13.773438 "/>
<path style=" stroke:none;fill-rule:nonzero;fill:rgb(0%,52.941179%,100%);fill-opacity:1;" d="M 0 0 L 25 0 L 25 5.226562 L 0 5.226562 Z M 0 0 "/>
<path style=" stroke:none;fill-rule:nonzero;fill:rgb(100%,0%,0%);fill-opacity:1;" d="M 0 11.496094 L 25 11.496094 L 25 12.921875 L 0 12.921875 Z M 0 11.496094 "/>
<path style=" stroke:none;fill-rule:nonzero;fill:rgb(0%,0%,0.392157%);fill-opacity:1;" d="M 0 6.078125 L 25 6.078125 L 25 7.503906 L 0 7.503906 Z M 0 6.078125 "/>
<path style=" stroke:none;fill-rule:nonzero;fill:rgb(100%,100%,0%);fill-opacity:1;" d="M 0 8.171875 L 25 8.171875 L 25 10.828125 L 0 10.828125 Z M 0 8.171875 "/>
<path style=" stroke:none;fill-rule:nonzero;fill:rgb(0%,51.372552%,0%);fill-opacity:1;" d="M 0 10.828125 L 25 10.828125 L 25 11.496094 L 0 11.496094 Z M 0 10.828125 "/>
<path style=" stroke:none;fill-rule:nonzero;fill:rgb(0%,51.372552%,0%);fill-opacity:1;" d="M 0 7.503906 L 25 7.503906 L 25 8.171875 L 0 8.171875 Z M 0 7.503906 "/>
<path style="fill-rule:nonzero;fill:rgb(100%,100%,100%);fill-opacity:1;stroke-width:2;stroke-linecap:butt;stroke-linejoin:miter;stroke:rgb(0%,0%,0%);stroke-opacity:1;stroke-miterlimit:4;" d="M 319.571914 -589.455493 C 287.374098 -589.455493 258.270023 -570.006541 245.895062 -540.267736 C 233.520101 -510.415856 240.165913 -476.15404 262.853342 -453.199753 L 228.707616 -442.231449 L 231.801356 -434.429253 L 220.801391 -432.054672 L 228.822199 -406.386578 L 410.436211 -406.386578 L 418.342436 -432.054672 L 407.342471 -434.429253 L 410.436211 -442.344524 L 376.175902 -453.199753 C 398.863331 -476.15404 405.623726 -510.415856 393.248765 -540.154661 C 380.873804 -570.006541 351.884312 -589.455493 319.571914 -589.455493 Z M 319.571914 -589.455493 " transform="matrix(0.034091,0,0,0.0345456,1.605469,26.702916)"/>
<path style=" stroke:none;fill-rule:nonzero;fill:rgb(0%,51.372552%,0%);fill-opacity:1;" d="M 9.464844 11.792969 L 9.703125 12.574219 L 15.300781 12.574219 L 15.535156 11.792969 Z M 9.464844 11.792969 "/>
<path style=" stroke:none;fill-rule:nonzero;fill:rgb(100%,100%,100%);fill-opacity:1;" d="M 9.613281 11.894531 L 9.789062 12.472656 L 15.210938 12.472656 L 15.386719 11.894531 Z M 9.613281 11.894531 "/>
<path style=" stroke:none;fill-rule:nonzero;fill:rgb(0%,0%,0%);fill-opacity:1;" d="M 9.996094 12.234375 C 9.996094 12.246094 9.996094 12.261719 9.992188 12.273438 C 9.988281 12.28125 9.984375 12.292969 9.976562 12.300781 C 9.972656 12.308594 9.964844 12.316406 9.953125 12.320312 C 9.941406 12.328125 9.929688 12.328125 9.910156 12.328125 C 9.894531 12.328125 9.882812 12.328125 9.871094 12.324219 C 9.863281 12.320312 9.851562 12.3125 9.84375 12.308594 L 9.863281 12.261719 C 9.867188 12.265625 9.875 12.269531 9.882812 12.273438 C 9.890625 12.277344 9.898438 12.277344 9.90625 12.277344 C 9.921875 12.277344 9.929688 12.273438 9.933594 12.265625 C 9.941406 12.261719 9.945312 12.25 9.945312 12.230469 L 9.945312 12.058594 L 9.996094 12.058594 Z M 10.136719 12.328125 C 10.121094 12.328125 10.105469 12.328125 10.09375 12.320312 C 10.082031 12.316406 10.074219 12.308594 10.066406 12.300781 C 10.058594 12.289062 10.050781 12.277344 10.046875 12.265625 C 10.042969 12.253906 10.042969 12.238281 10.042969 12.222656 L 10.042969 12.058594 L 10.09375 12.058594 L 10.09375 12.21875 C 10.09375 12.230469 10.097656 12.238281 10.097656 12.246094 C 10.101562 12.253906 10.101562 12.257812 10.105469 12.261719 C 10.109375 12.269531 10.117188 12.273438 10.121094 12.273438 C 10.125 12.277344 10.132812 12.277344 10.136719 12.277344 C 10.152344 12.277344 10.160156 12.273438 10.167969 12.261719 C 10.175781 12.253906 10.179688 12.238281 10.179688 12.21875 L 10.179688 12.058594 L 10.234375 12.058594 L 10.234375 12.222656 C 10.234375 12.238281 10.230469 12.253906 10.226562 12.265625 C 10.222656 12.277344 10.21875 12.289062 10.210938 12.300781 C 10.203125 12.308594 10.191406 12.316406 10.179688 12.320312 C 10.167969 12.324219 10.152344 12.328125 10.136719 12.328125 Z M 10.34375 12.058594 C 10.347656 12.066406 10.355469 12.078125 10.359375 12.089844 L 10.375 12.128906 L 10.394531 12.175781 L 10.410156 12.21875 L 10.425781 12.175781 L 10.441406 12.128906 L 10.457031 12.089844 C 10.460938 12.078125 10.46875 12.066406 10.472656 12.058594 L 10.519531 12.058594 L 10.527344 12.117188 L 10.53125 12.1875 C 10.53125 12.210938 10.535156 12.234375 10.535156 12.257812 L 10.539062 12.324219 L 10.488281 12.324219 L 10.484375 12.238281 L 10.480469 12.148438 L 10.464844 12.183594 L 10.449219 12.222656 C 10.445312 12.234375 10.441406 12.25 10.4375 12.261719 L 10.425781 12.289062 L 10.390625 12.289062 L 10.378906 12.261719 L 10.347656 12.183594 L 10.335938 12.148438 C 10.332031 12.179688 10.332031 12.210938 10.332031 12.238281 L 10.328125 12.324219 L 10.277344 12.324219 L 10.28125 12.257812 L 10.289062 12.117188 L 10.296875 12.058594 Z M 10.675781 12.328125 C 10.660156 12.328125 10.644531 12.328125 10.632812 12.320312 C 10.621094 12.316406 10.613281 12.308594 10.605469 12.300781 C 10.597656 12.289062 10.589844 12.277344 10.585938 12.265625 C 10.582031 12.253906 10.582031 12.238281 10.582031 12.222656 L 10.582031 12.058594 L 10.632812 12.058594 L 10.632812 12.21875 C 10.632812 12.230469 10.632812 12.238281 10.636719 12.246094 C 10.640625 12.253906 10.640625 12.257812 10.644531 12.261719 C 10.648438 12.269531 10.652344 12.273438 10.660156 12.273438 C 10.664062 12.277344 10.671875 12.277344 10.675781 12.277344 C 10.691406 12.277344 10.699219 12.273438 10.707031 12.261719 C 10.714844 12.253906 10.71875 12.238281 10.71875 12.21875 L 10.71875 12.058594 L 10.773438 12.058594 L 10.773438 12.222656 C 10.773438 12.238281 10.769531 12.253906 10.765625 12.265625 C 10.761719 12.277344 10.757812 12.289062 10.75 12.300781 C 10.742188 12.308594 10.730469 12.316406 10.71875 12.320312 C 10.707031 12.324219 10.691406 12.328125 10.675781 12.328125 Z M 10.820312 12.058594 L 10.875 12.058594 L 10.875 12.324219 L 10.824219 12.324219 Z M 11.015625 12.167969 L 11.039062 12.113281 C 11.050781 12.09375 11.058594 12.078125 11.0625 12.058594 L 11.121094 12.058594 C 11.109375 12.085938 11.097656 12.117188 11.082031 12.140625 C 11.066406 12.167969 11.054688 12.195312 11.039062 12.222656 L 11.039062 12.324219 L 10.988281 12.324219 L 10.988281 12.222656 C 10.972656 12.195312 10.957031 12.167969 10.941406 12.144531 C 10.929688 12.117188 10.914062 12.089844 10.902344 12.058594 L 10.964844 12.058594 C 10.972656 12.078125 10.980469 12.09375 10.988281 12.113281 Z M 11.273438 12.324219 L 11.265625 12.296875 L 11.253906 12.265625 L 11.164062 12.265625 L 11.15625 12.296875 L 11.148438 12.324219 L 11.09375 12.324219 L 11.117188 12.246094 L 11.140625 12.175781 L 11.164062 12.117188 C 11.171875 12.097656 11.175781 12.078125 11.183594 12.058594 L 11.234375 12.058594 C 11.242188 12.078125 11.25 12.097656 11.257812 12.117188 L 11.28125 12.175781 L 11.304688 12.246094 L 11.328125 12.324219 Z M 11.210938 12.117188 C 11.207031 12.125 11.207031 12.128906 11.203125 12.136719 L 11.195312 12.15625 L 11.1875 12.1875 L 11.175781 12.21875 L 11.242188 12.21875 L 11.234375 12.1875 L 11.222656 12.15625 L 11.214844 12.136719 Z M 11.523438 12.167969 L 11.550781 12.113281 C 11.558594 12.09375 11.566406 12.078125 11.574219 12.058594 L 11.632812 12.058594 C 11.621094 12.085938 11.605469 12.117188 11.59375 12.140625 C 11.578125 12.167969 11.566406 12.195312 11.550781 12.222656 L 11.550781 12.324219 L 11.5 12.324219 L 11.5 12.222656 L 11.453125 12.144531 C 11.441406 12.117188 11.425781 12.085938 11.414062 12.058594 L 11.476562 12.058594 Z M 11.785156 12.324219 L 11.777344 12.296875 L 11.765625 12.265625 L 11.675781 12.265625 L 11.667969 12.296875 L 11.660156 12.324219 L 11.605469 12.324219 L 11.628906 12.246094 L 11.652344 12.175781 L 11.675781 12.117188 C 11.679688 12.097656 11.6875 12.078125 11.699219 12.058594 L 11.746094 12.058594 C 11.753906 12.078125 11.761719 12.097656 11.769531 12.117188 L 11.792969 12.175781 L 11.816406 12.246094 L 11.839844 12.324219 Z M 11.722656 12.117188 L 11.707031 12.15625 L 11.699219 12.1875 L 11.6875 12.21875 L 11.753906 12.21875 L 11.742188 12.1875 L 11.734375 12.15625 L 11.726562 12.136719 Z M 12.105469 12.324219 L 12.097656 12.296875 L 12.089844 12.265625 L 12 12.265625 L 11.988281 12.296875 L 11.980469 12.324219 L 11.925781 12.324219 L 11.953125 12.246094 C 11.960938 12.21875 11.96875 12.199219 11.976562 12.175781 L 11.996094 12.117188 C 12.003906 12.097656 12.011719 12.078125 12.019531 12.058594 L 12.070312 12.058594 C 12.078125 12.078125 12.085938 12.097656 12.09375 12.117188 L 12.136719 12.246094 L 12.164062 12.324219 Z M 12.042969 12.117188 L 12.039062 12.136719 L 12.03125 12.15625 L 12.023438 12.1875 L 12.011719 12.21875 L 12.078125 12.21875 L 12.066406 12.1875 L 12.058594 12.15625 Z M 12.191406 12.324219 L 12.191406 12.058594 L 12.347656 12.058594 L 12.347656 12.109375 L 12.246094 12.109375 L 12.246094 12.164062 L 12.335938 12.164062 L 12.335938 12.214844 L 12.246094 12.214844 L 12.246094 12.324219 Z M 12.453125 12.058594 C 12.488281 12.058594 12.515625 12.0625 12.535156 12.078125 C 12.550781 12.09375 12.5625 12.113281 12.5625 12.144531 C 12.5625 12.164062 12.558594 12.175781 12.550781 12.1875 C 12.542969 12.199219 12.53125 12.210938 12.519531 12.214844 L 12.53125 12.238281 L 12.5625 12.292969 L 12.574219 12.324219 L 12.519531 12.324219 L 12.503906 12.296875 L 12.492188 12.273438 L 12.476562 12.246094 L 12.464844 12.226562 L 12.4375 12.226562 L 12.4375 12.324219 L 12.386719 12.324219 L 12.386719 12.0625 C 12.398438 12.0625 12.410156 12.058594 12.421875 12.058594 Z M 12.457031 12.105469 L 12.445312 12.105469 L 12.4375 12.109375 L 12.4375 12.179688 L 12.453125 12.179688 C 12.472656 12.179688 12.484375 12.175781 12.496094 12.171875 C 12.503906 12.164062 12.507812 12.15625 12.507812 12.144531 C 12.507812 12.128906 12.503906 12.121094 12.496094 12.117188 C 12.484375 12.109375 12.472656 12.105469 12.457031 12.105469 Z M 12.609375 12.058594 L 12.660156 12.058594 L 12.660156 12.324219 L 12.609375 12.324219 Z M 12.851562 12.324219 C 12.847656 12.316406 12.84375 12.304688 12.835938 12.296875 L 12.816406 12.265625 C 12.808594 12.253906 12.800781 12.246094 12.792969 12.238281 C 12.785156 12.226562 12.777344 12.21875 12.769531 12.210938 L 12.769531 12.324219 L 12.714844 12.324219 L 12.714844 12.058594 L 12.769531 12.058594 L 12.769531 12.160156 C 12.78125 12.144531 12.796875 12.125 12.808594 12.109375 L 12.847656 12.058594 L 12.910156 12.058594 C 12.894531 12.082031 12.878906 12.101562 12.863281 12.121094 C 12.84375 12.140625 12.828125 12.160156 12.8125 12.179688 C 12.828125 12.199219 12.847656 12.21875 12.863281 12.242188 C 12.882812 12.269531 12.898438 12.296875 12.914062 12.324219 Z M 13.109375 12.324219 L 13.101562 12.296875 L 13.09375 12.265625 L 13.003906 12.265625 L 12.992188 12.296875 L 12.984375 12.324219 L 12.929688 12.324219 L 12.957031 12.246094 L 12.976562 12.175781 L 13 12.117188 C 13.007812 12.097656 13.015625 12.078125 13.023438 12.058594 L 13.074219 12.058594 C 13.082031 12.078125 13.089844 12.097656 13.09375 12.117188 L 13.117188 12.175781 L 13.140625 12.246094 L 13.164062 12.324219 Z M 13.046875 12.117188 L 13.042969 12.136719 L 13.035156 12.15625 L 13.023438 12.1875 L 13.015625 12.21875 L 13.082031 12.21875 L 13.058594 12.15625 L 13.050781 12.136719 Z M 13.339844 12.058594 C 13.34375 12.066406 13.347656 12.078125 13.351562 12.089844 L 13.367188 12.128906 L 13.386719 12.175781 L 13.402344 12.21875 L 13.417969 12.175781 L 13.433594 12.128906 L 13.449219 12.089844 C 13.457031 12.078125 13.460938 12.066406 13.464844 12.058594 L 13.511719 12.058594 L 13.519531 12.117188 L 13.523438 12.1875 C 13.523438 12.210938 13.527344 12.234375 13.527344 12.257812 L 13.53125 12.324219 L 13.480469 12.324219 L 13.476562 12.238281 L 13.472656 12.148438 L 13.460938 12.183594 L 13.445312 12.222656 C 13.4375 12.234375 13.433594 12.25 13.429688 12.261719 L 13.417969 12.289062 L 13.382812 12.289062 L 13.371094 12.261719 L 13.355469 12.222656 L 13.34375 12.183594 L 13.328125 12.148438 C 13.328125 12.179688 13.324219 12.210938 13.324219 12.238281 L 13.320312 12.324219 L 13.269531 12.324219 L 13.273438 12.257812 L 13.28125 12.117188 L 13.289062 12.058594 Z M 13.734375 12.324219 L 13.726562 12.296875 L 13.71875 12.265625 L 13.625 12.265625 L 13.617188 12.296875 L 13.609375 12.324219 L 13.554688 12.324219 L 13.578125 12.246094 L 13.601562 12.175781 L 13.625 12.117188 C 13.632812 12.097656 13.640625 12.078125 13.648438 12.058594 L 13.695312 12.058594 C 13.703125 12.078125 13.710938 12.097656 13.71875 12.117188 C 13.726562 12.136719 13.734375 12.15625 13.742188 12.175781 L 13.765625 12.246094 L 13.789062 12.324219 Z M 13.671875 12.117188 L 13.664062 12.136719 L 13.660156 12.15625 L 13.636719 12.21875 L 13.703125 12.21875 L 13.695312 12.1875 L 13.683594 12.15625 L 13.675781 12.136719 Z M 13.890625 12.277344 C 13.898438 12.277344 13.902344 12.277344 13.910156 12.277344 C 13.914062 12.273438 13.917969 12.273438 13.917969 12.269531 C 13.921875 12.269531 13.925781 12.265625 13.925781 12.261719 C 13.925781 12.257812 13.925781 12.253906 13.925781 12.25 C 13.925781 12.242188 13.925781 12.234375 13.917969 12.230469 C 13.910156 12.222656 13.898438 12.21875 13.878906 12.210938 L 13.855469 12.199219 C 13.847656 12.195312 13.84375 12.191406 13.835938 12.1875 C 13.832031 12.179688 13.824219 12.171875 13.820312 12.164062 C 13.816406 12.15625 13.816406 12.144531 13.816406 12.132812 C 13.816406 12.121094 13.816406 12.109375 13.820312 12.101562 C 13.824219 12.089844 13.832031 12.082031 13.839844 12.074219 C 13.847656 12.066406 13.855469 12.0625 13.867188 12.058594 C 13.875 12.054688 13.886719 12.054688 13.902344 12.054688 C 13.917969 12.054688 13.929688 12.054688 13.941406 12.058594 C 13.953125 12.0625 13.964844 12.066406 13.972656 12.070312 L 13.957031 12.117188 C 13.949219 12.113281 13.941406 12.113281 13.933594 12.109375 C 13.925781 12.105469 13.914062 12.105469 13.90625 12.105469 C 13.890625 12.105469 13.882812 12.105469 13.878906 12.109375 C 13.871094 12.113281 13.871094 12.121094 13.871094 12.128906 C 13.871094 12.132812 13.871094 12.136719 13.871094 12.140625 C 13.875 12.144531 13.878906 12.144531 13.882812 12.148438 L 13.894531 12.15625 L 13.910156 12.164062 C 13.921875 12.167969 13.933594 12.171875 13.941406 12.179688 C 13.949219 12.183594 13.957031 12.1875 13.964844 12.195312 C 13.96875 12.203125 13.972656 12.210938 13.976562 12.21875 C 13.980469 12.226562 13.980469 12.238281 13.980469 12.25 C 13.980469 12.277344 13.972656 12.292969 13.957031 12.308594 C 13.945312 12.320312 13.921875 12.328125 13.890625 12.328125 C 13.878906 12.328125 13.871094 12.328125 13.863281 12.328125 C 13.855469 12.324219 13.847656 12.324219 13.839844 12.320312 L 13.824219 12.316406 L 13.8125 12.308594 L 13.828125 12.261719 C 13.832031 12.265625 13.84375 12.269531 13.851562 12.273438 C 13.863281 12.277344 13.875 12.277344 13.890625 12.277344 M 14.160156 12.058594 L 14.214844 12.058594 L 14.214844 12.324219 L 14.160156 12.324219 L 14.160156 12.210938 L 14.074219 12.210938 L 14.074219 12.324219 L 14.023438 12.324219 L 14.023438 12.058594 L 14.074219 12.058594 L 14.074219 12.160156 L 14.160156 12.160156 Z M 14.421875 12.324219 L 14.414062 12.296875 L 14.40625 12.265625 L 14.316406 12.265625 L 14.308594 12.296875 L 14.300781 12.324219 L 14.246094 12.324219 C 14.253906 12.296875 14.261719 12.269531 14.269531 12.246094 C 14.277344 12.21875 14.285156 12.199219 14.292969 12.175781 L 14.316406 12.117188 C 14.320312 12.097656 14.328125 12.078125 14.335938 12.058594 L 14.386719 12.058594 C 14.394531 12.078125 14.402344 12.097656 14.410156 12.117188 L 14.433594 12.175781 L 14.457031 12.246094 L 14.480469 12.324219 Z M 14.359375 12.117188 L 14.355469 12.136719 L 14.347656 12.15625 L 14.339844 12.1875 L 14.328125 12.21875 L 14.394531 12.21875 L 14.382812 12.1875 L 14.375 12.15625 Z M 14.578125 12.058594 C 14.613281 12.058594 14.640625 12.0625 14.660156 12.078125 C 14.675781 12.09375 14.6875 12.113281 14.6875 12.144531 C 14.6875 12.164062 14.683594 12.175781 14.675781 12.1875 C 14.667969 12.199219 14.65625 12.210938 14.644531 12.214844 L 14.660156 12.238281 L 14.671875 12.265625 L 14.6875 12.292969 L 14.699219 12.324219 L 14.644531 12.324219 L 14.628906 12.296875 L 14.617188 12.273438 L 14.601562 12.246094 L 14.589844 12.226562 L 14.5625 12.226562 L 14.5625 12.324219 L 14.511719 12.324219 L 14.511719 12.0625 C 14.523438 12.0625 14.535156 12.058594 14.546875 12.058594 Z M 14.582031 12.105469 L 14.570312 12.105469 L 14.5625 12.109375 L 14.5625 12.179688 L 14.578125 12.179688 C 14.597656 12.179688 14.613281 12.175781 14.621094 12.171875 C 14.628906 12.164062 14.632812 12.15625 14.632812 12.144531 C 14.632812 12.128906 14.628906 12.121094 14.621094 12.117188 C 14.613281 12.109375 14.597656 12.105469 14.582031 12.105469 Z M 14.734375 12.058594 L 14.789062 12.058594 L 14.789062 12.324219 L 14.734375 12.324219 Z M 14.976562 12.324219 C 14.972656 12.316406 14.96875 12.304688 14.960938 12.296875 C 14.953125 12.285156 14.949219 12.277344 14.941406 12.265625 C 14.933594 12.253906 14.925781 12.246094 14.917969 12.238281 C 14.910156 12.226562 14.902344 12.21875 14.894531 12.210938 L 14.894531 12.324219 L 14.839844 12.324219 L 14.839844 12.058594 L 14.894531 12.058594 L 14.894531 12.160156 C 14.90625 12.144531 14.921875 12.125 14.933594 12.109375 L 14.972656 12.058594 L 15.035156 12.058594 C 15.019531 12.082031 15.003906 12.101562 14.988281 12.121094 C 14.972656 12.140625 14.953125 12.160156 14.9375 12.179688 C 14.953125 12.199219 14.972656 12.21875 14.988281 12.242188 C 15.007812 12.269531 15.023438 12.296875 15.039062 12.324219 Z M 15.070312 12.058594 L 15.121094 12.058594 L 15.121094 12.324219 L 15.070312 12.324219 Z M 15.070312 12.058594 "/>
<path style=" stroke:none;fill-rule:evenodd;fill:rgb(0%,51.372552%,0%);fill-opacity:1;" d="M 9.464844 11.792969 L 9.816406 11.695312 L 9.707031 11.5 L 10.320312 11.269531 L 10.320312 11.480469 L 10.507812 11.480469 L 10.507812 11.800781 L 9.484375 11.800781 Z M 9.464844 11.792969 "/>
<path style=" stroke:none;fill-rule:evenodd;fill:rgb(100%,100%,100%);fill-opacity:1;" d="M 10.417969 11.800781 L 9.675781 11.800781 L 10.417969 11.597656 Z M 10.253906 11.480469 L 9.921875 11.480469 L 10.265625 11.351562 Z M 9.820312 11.539062 L 9.894531 11.675781 L 10.390625 11.539062 Z M 9.820312 11.539062 "/>
<path style=" stroke:none;fill-rule:evenodd;fill:rgb(0%,51.372552%,0%);fill-opacity:1;" d="M 15.535156 11.792969 L 15.179688 11.695312 L 15.289062 11.5 L 14.679688 11.269531 L 14.679688 11.480469 L 14.492188 11.480469 L 14.492188 11.800781 L 15.515625 11.800781 Z M 15.535156 11.792969 "/>
<path style=" stroke:none;fill-rule:evenodd;fill:rgb(100%,100%,100%);fill-opacity:1;" d="M 14.582031 11.800781 L 15.324219 11.800781 L 14.582031 11.597656 Z M 14.746094 11.480469 L 15.074219 11.480469 L 14.734375 11.351562 Z M 15.175781 11.539062 L 15.101562 11.675781 L 14.609375 11.539062 Z M 15.175781 11.539062 "/>
<path style="fill-rule:nonzero;fill:rgb(100%,100%,0%);fill-opacity:1;stroke-width:1.2;stroke-linecap:butt;stroke-linejoin:miter;stroke:rgb(0%,0%,0%);stroke-opacity:1;stroke-miterlimit:4;" d="M 317.738586 -579.957167 C 284.165775 -578.939489 255.978364 -554.402149 250.249215 -521.384161 C 244.520066 -488.253097 262.853342 -455.68741 294.019911 -443.362202 L 294.019911 -451.164398 C 266.63458 -463.263455 251.395045 -492.889184 257.467942 -522.175688 C 263.54084 -551.462191 289.207426 -572.607273 319.228165 -572.833423 L 319.686497 -572.833423 C 349.707236 -572.833423 375.602987 -551.801417 381.790468 -522.401838 C 387.977949 -493.00226 372.738413 -463.263455 345.353083 -451.164398 L 345.353083 -443.362202 C 376.977983 -455.68741 395.425842 -488.931549 389.123778 -522.401838 C 382.936298 -555.872128 353.603057 -580.070242 319.571914 -579.957167 Z M 317.738586 -579.957167 " transform="matrix(0.034091,0,0,0.0345456,1.605469,26.702916)"/>
<path style="fill-rule:evenodd;fill:rgb(100%,100%,100%);fill-opacity:1;stroke-width:0.9;stroke-linecap:butt;stroke-linejoin:miter;stroke:rgb(0%,0%,0%);stroke-opacity:1;stroke-miterlimit:4;" d="M 339.051019 -458.288142 L 339.051019 -447.659063 C 332.748956 -446.754461 325.644811 -440.083018 323.696901 -438.952265 C 321.74899 -437.708437 318.65525 -435.107705 317.051088 -435.333855 C 314.071931 -435.673081 316.249007 -438.047663 316.249007 -438.047663 C 316.249007 -438.047663 314.186514 -435.560006 312.811518 -436.690759 C 311.436523 -437.595362 313.613599 -439.404566 313.613599 -439.404566 C 313.613599 -439.404566 312.926101 -438.386889 311.436523 -438.952265 C 309.946944 -439.291491 310.978191 -440.874545 310.978191 -440.874545 C 310.978191 -440.874545 307.196953 -438.952265 306.509455 -439.630717 C 305.478208 -440.874545 306.853204 -442.118374 306.853204 -442.118374 L 315.790676 -449.581344 C 315.790676 -449.581344 309.946944 -447.545988 315.790676 -449.581344 C 320.717743 -451.616699 322.092739 -448.789816 324.269816 -449.015967 C 328.051054 -450.033645 331.488543 -451.729774 334.4677 -454.104356 C 336.186445 -455.800485 335.728113 -457.60969 336.988526 -458.061991 C 338.248938 -458.627368 339.051019 -458.288142 339.051019 -458.288142 Z M 339.051019 -458.288142 " transform="matrix(0.034091,0,0,0.0345456,1.605469,26.702916)"/>
<path style="fill-rule:evenodd;fill:rgb(100%,100%,100%);fill-opacity:1;stroke-width:0.8;stroke-linecap:butt;stroke-linejoin:miter;stroke:rgb(0%,0%,0%);stroke-opacity:1;stroke-miterlimit:4;" d="M 299.978225 -457.496615 L 299.863642 -447.659063 C 305.93654 -446.867536 312.582352 -440.535319 314.41568 -439.291491 C 316.134424 -438.160738 319.113582 -436.351533 320.717743 -436.464608 C 323.353152 -436.803834 322.665654 -437.821512 322.665654 -437.821512 C 322.665654 -437.821512 323.926067 -437.256136 325.530228 -437.821512 C 327.13439 -438.386889 326.332309 -439.517642 326.332309 -439.517642 C 326.332309 -439.517642 328.738551 -438.83919 329.655215 -440.083018 C 330.686462 -441.213771 328.738551 -442.344524 328.738551 -442.344524 C 328.738551 -442.344524 329.655215 -443.136051 328.051054 -442.231449 C 326.446892 -441.326846 323.353152 -444.945256 320.144828 -445.171407 C 316.821922 -445.171407 316.478173 -442.005298 314.530263 -443.475277 C 312.353186 -445.058331 316.134424 -447.659063 317.394837 -448.111365 C 322.551071 -449.807494 327.248973 -447.659063 321.061492 -450.14672 C 317.853169 -451.277473 315.446927 -449.015967 313.26985 -449.129042 C 311.092774 -449.242118 305.707374 -452.069 304.332378 -453.652054 C 302.728217 -455.348184 303.071966 -456.931238 301.926136 -457.383539 C 300.665723 -457.722765 299.978225 -457.722765 299.863642 -457.496615 Z M 299.978225 -457.496615 " transform="matrix(0.034091,0,0,0.0345456,1.605469,26.702916)"/>
<path style="fill:none;stroke-width:0.8;stroke-linecap:butt;stroke-linejoin:miter;stroke:rgb(0%,0%,0%);stroke-opacity:1;stroke-miterlimit:4;" d="M 326.446892 -439.517642 L 322.092739 -441.326846 M 323.238569 -437.595362 L 318.196918 -440.648395 " transform="matrix(0.034091,0,0,0.0345456,1.605469,26.702916)"/>
<path style="fill-rule:evenodd;fill:rgb(0%,51.372552%,0%);fill-opacity:1;stroke-width:0.4;stroke-linecap:butt;stroke-linejoin:miter;stroke:rgb(0%,0%,0%);stroke-opacity:1;stroke-miterlimit:4;" d="M 291.842834 -462.585003 C 279.35329 -456.592012 278.780375 -472.422555 273.16581 -472.196404 C 283.707443 -479.207073 281.988698 -466.203413 291.842834 -462.585003 Z M 287.030349 -479.9986 C 280.842869 -468.69107 295.280323 -467.221091 294.821991 -461.680401 C 301.926136 -471.291802 289.780341 -470.500275 287.030349 -479.9986 Z M 287.030349 -479.9986 " transform="matrix(0.034091,0,0,0.0345456,1.605469,26.702916)"/>
<path style="fill-rule:evenodd;fill:rgb(0%,51.372552%,0%);fill-opacity:1;stroke-width:0.4;stroke-linecap:butt;stroke-linejoin:miter;stroke:rgb(0%,0%,0%);stroke-opacity:1;stroke-miterlimit:4;" d="M 280.957452 -475.588663 C 265.717916 -472.987931 269.842903 -486.217742 263.54084 -487.348495 C 276.947048 -491.30613 271.217899 -481.129353 280.957452 -475.588663 Z M 280.957452 -475.588663 " transform="matrix(0.034091,0,0,0.0345456,1.605469,26.702916)"/>
<path style="fill-rule:evenodd;fill:rgb(0%,51.372552%,0%);fill-opacity:1;stroke-width:0.4;stroke-linecap:butt;stroke-linejoin:miter;stroke:rgb(0%,0%,0%);stroke-opacity:1;stroke-miterlimit:4;" d="M 279.35329 -491.193055 C 270.988733 -481.355504 283.134528 -480.790127 281.64495 -475.588663 C 290.353256 -483.61701 281.415784 -483.277784 279.35329 -491.193055 Z M 270.644984 -489.38385 C 255.405449 -491.645356 265.030418 -507.136672 260.4471 -510.415856 C 272.936644 -509.511254 264.801253 -495.942218 270.644984 -489.38385 Z M 270.644984 -489.38385 " transform="matrix(0.034091,0,0,0.0345456,1.605469,26.702916)"/>
<path style="fill-rule:evenodd;fill:rgb(0%,51.372552%,0%);fill-opacity:1;stroke-width:0.4;stroke-linecap:butt;stroke-linejoin:miter;stroke:rgb(0%,0%,0%);stroke-opacity:1;stroke-miterlimit:4;" d="M 276.374133 -508.945877 C 262.39501 -502.274434 276.488716 -495.15069 270.988733 -489.044624 C 284.853273 -489.723076 272.592895 -498.656025 276.374133 -508.832802 Z M 268.582491 -508.493576 C 252.311708 -515.843471 269.269988 -529.864808 266.405414 -534.953197 C 277.519963 -523.645667 260.561683 -519.46188 268.582491 -508.493576 Z M 268.582491 -508.493576 " transform="matrix(0.034091,0,0,0.0345456,1.605469,26.702916)"/>
<path style="fill-rule:evenodd;fill:rgb(0%,51.372552%,0%);fill-opacity:1;stroke-width:0.4;stroke-linecap:butt;stroke-linejoin:miter;stroke:rgb(0%,0%,0%);stroke-opacity:1;stroke-miterlimit:4;" d="M 279.009541 -527.264076 C 265.030418 -525.454871 272.01998 -512.564287 269.155405 -508.041275 C 280.155371 -510.528932 271.332482 -516.974224 279.124124 -527.264076 Z M 272.249146 -531.221712 C 264.342921 -543.207694 277.519963 -545.921501 278.436626 -552.027568 C 282.217864 -536.197025 273.16581 -541.285414 272.249146 -531.221712 Z M 272.249146 -531.221712 " transform="matrix(0.034091,0,0,0.0345456,1.605469,26.702916)"/>
<path style="fill-rule:evenodd;fill:rgb(0%,51.372552%,0%);fill-opacity:1;stroke-width:0.4;stroke-linecap:butt;stroke-linejoin:miter;stroke:rgb(0%,0%,0%);stroke-opacity:1;stroke-miterlimit:4;" d="M 287.947013 -541.172338 C 274.999137 -544.903823 277.40538 -531.787088 273.051227 -528.734055 C 284.051192 -526.92485 281.64495 -537.440854 287.947013 -541.172338 Z M 281.988698 -546.826104 C 279.35329 -557.229031 284.624107 -555.532902 290.467838 -560.055914 C 293.676162 -551.688342 285.769937 -552.706019 281.988698 -546.826104 Z M 298.60323 -548.409158 C 288.634511 -555.759052 287.488681 -545.808426 282.332447 -544.451522 C 291.842834 -538.684682 292.301166 -547.16533 298.60323 -548.296083 Z M 292.644915 -553.384471 C 292.874081 -557.907483 298.946978 -563.787399 305.134459 -561.752044 C 304.79071 -554.289074 297.571983 -552.366793 292.644915 -553.271396 Z M 292.644915 -553.384471 " transform="matrix(0.034091,0,0,0.0345456,1.605469,26.702916)"/>
<path style="fill-rule:evenodd;fill:rgb(0%,51.372552%,0%);fill-opacity:1;stroke-width:0.4;stroke-linecap:butt;stroke-linejoin:miter;stroke:rgb(0%,0%,0%);stroke-opacity:1;stroke-miterlimit:4;" d="M 291.798982 -462.585003 C 279.424021 -456.592012 278.851107 -472.422555 273.236541 -472.196404 C 283.663591 -479.207073 281.944847 -466.203413 291.798982 -462.585003 Z M 286.986498 -479.9986 C 280.799017 -468.69107 295.351055 -467.221091 294.77814 -461.680401 C 301.882284 -471.291802 289.851072 -470.500275 286.986498 -479.9986 Z M 286.986498 -479.9986 " transform="matrix(-0.034091,0,0,0.0345456,23.393036,26.702916)"/>
<path style="fill-rule:evenodd;fill:rgb(0%,51.372552%,0%);fill-opacity:1;stroke-width:0.4;stroke-linecap:butt;stroke-linejoin:miter;stroke:rgb(0%,0%,0%);stroke-opacity:1;stroke-miterlimit:4;" d="M 281.028183 -475.588663 C 265.674065 -472.987931 269.913635 -486.217742 263.496988 -487.348495 C 277.017779 -491.30613 271.174047 -481.129353 281.028183 -475.588663 Z M 281.028183 -475.588663 " transform="matrix(-0.034091,0,0,0.0345456,23.393036,26.702916)"/>
<path style="fill-rule:evenodd;fill:rgb(0%,51.372552%,0%);fill-opacity:1;stroke-width:0.4;stroke-linecap:butt;stroke-linejoin:miter;stroke:rgb(0%,0%,0%);stroke-opacity:1;stroke-miterlimit:4;" d="M 279.424021 -491.193055 C 270.944881 -481.355504 283.090677 -480.790127 281.715681 -475.588663 C 290.423987 -483.61701 281.371932 -483.277784 279.424021 -491.193055 Z M 270.601132 -489.38385 C 255.361597 -491.645356 264.986567 -507.136672 260.403248 -510.415856 C 272.892792 -509.511254 264.757401 -495.942218 270.601132 -489.38385 Z M 270.601132 -489.38385 " transform="matrix(-0.034091,0,0,0.0345456,23.393036,26.702916)"/>
<path style="fill-rule:evenodd;fill:rgb(0%,51.372552%,0%);fill-opacity:1;stroke-width:0.4;stroke-linecap:butt;stroke-linejoin:miter;stroke:rgb(0%,0%,0%);stroke-opacity:1;stroke-miterlimit:4;" d="M 276.444864 -508.945877 C 262.351158 -502.274434 276.444864 -495.15069 270.944881 -489.044624 C 284.809421 -489.723076 272.549043 -498.656025 276.444864 -508.832802 Z M 268.653222 -508.493576 C 252.267857 -515.843471 269.34072 -529.864808 266.361562 -534.953197 C 277.476111 -523.645667 260.632414 -519.46188 268.653222 -508.493576 Z M 268.653222 -508.493576 " transform="matrix(-0.034091,0,0,0.0345456,23.393036,26.702916)"/>
<path style="fill-rule:evenodd;fill:rgb(0%,51.372552%,0%);fill-opacity:1;stroke-width:0.4;stroke-linecap:butt;stroke-linejoin:miter;stroke:rgb(0%,0%,0%);stroke-opacity:1;stroke-miterlimit:4;" d="M 278.965689 -527.264076 C 264.986567 -525.454871 271.976128 -512.564287 269.111554 -508.041275 C 280.111519 -510.528932 271.28863 -516.974224 279.080272 -527.264076 Z M 272.205294 -531.221712 C 264.299069 -543.207694 277.476111 -545.921501 278.392775 -552.027568 C 282.174013 -536.197025 273.236541 -541.285414 272.205294 -531.221712 Z M 272.205294 -531.221712 " transform="matrix(-0.034091,0,0,0.0345456,23.393036,26.702916)"/>
<path style="fill-rule:evenodd;fill:rgb(0%,51.372552%,0%);fill-opacity:1;stroke-width:0.4;stroke-linecap:butt;stroke-linejoin:miter;stroke:rgb(0%,0%,0%);stroke-opacity:1;stroke-miterlimit:4;" d="M 288.017744 -541.172338 C 274.955285 -544.903823 277.361528 -531.787088 273.007375 -528.734055 C 284.00734 -526.92485 281.715681 -537.440854 288.017744 -541.172338 Z M 281.944847 -546.826104 C 279.424021 -557.229031 284.580255 -555.532902 290.53857 -560.055914 C 293.746893 -551.688342 285.840668 -552.706019 281.944847 -546.826104 Z M 298.559378 -548.409158 C 288.590659 -555.759052 287.444829 -545.808426 282.288596 -544.451522 C 291.913565 -538.684682 292.257314 -547.16533 298.559378 -548.296083 Z M 292.601063 -553.384471 C 292.944812 -557.907483 298.903127 -563.787399 305.090607 -561.752044 C 304.746858 -554.289074 297.642714 -552.366793 292.601063 -553.271396 Z M 292.601063 -553.384471 " transform="matrix(-0.034091,0,0,0.0345456,23.393036,26.702916)"/>
<path style=" stroke:none;fill-rule:nonzero;fill:rgb(0%,0%,0%);fill-opacity:1;" d="M 12.082031 7.136719 L 12.101562 7.257812 L 12.164062 7.246094 C 12.183594 7.242188 12.195312 7.238281 12.199219 7.230469 C 12.203125 7.222656 12.207031 7.210938 12.207031 7.191406 L 12.214844 7.191406 L 12.230469 7.296875 L 12.222656 7.296875 L 12.214844 7.269531 L 12.199219 7.257812 L 12.171875 7.257812 L 12.105469 7.273438 L 12.121094 7.375 L 12.128906 7.398438 L 12.136719 7.402344 L 12.152344 7.402344 L 12.203125 7.394531 L 12.238281 7.382812 L 12.257812 7.367188 C 12.265625 7.355469 12.273438 7.339844 12.277344 7.320312 L 12.289062 7.320312 L 12.273438 7.394531 L 12.046875 7.4375 L 12.042969 7.429688 L 12.054688 7.429688 L 12.070312 7.417969 C 12.078125 7.414062 12.078125 7.410156 12.078125 7.40625 L 12.078125 7.375 L 12.042969 7.179688 C 12.042969 7.160156 12.039062 7.148438 12.035156 7.144531 C 12.027344 7.140625 12.019531 7.140625 12.007812 7.140625 L 11.996094 7.140625 L 11.996094 7.136719 L 12.222656 7.09375 L 12.238281 7.160156 L 12.230469 7.160156 L 12.214844 7.132812 L 12.195312 7.121094 L 12.164062 7.121094 Z M 12.519531 7.28125 L 12.402344 7.28125 L 12.382812 7.332031 L 12.375 7.359375 C 12.375 7.363281 12.378906 7.367188 12.382812 7.371094 C 12.386719 7.375 12.394531 7.375 12.410156 7.378906 L 12.410156 7.386719 L 12.316406 7.386719 L 12.316406 7.378906 C 12.328125 7.378906 12.335938 7.375 12.339844 7.371094 L 12.367188 7.324219 L 12.46875 7.070312 L 12.480469 7.070312 L 12.585938 7.328125 C 12.59375 7.347656 12.601562 7.359375 12.609375 7.367188 C 12.613281 7.371094 12.625 7.375 12.636719 7.375 L 12.636719 7.386719 L 12.515625 7.386719 L 12.515625 7.378906 C 12.527344 7.378906 12.535156 7.375 12.542969 7.371094 C 12.546875 7.367188 12.546875 7.363281 12.546875 7.359375 C 12.546875 7.351562 12.542969 7.339844 12.539062 7.328125 Z M 12.515625 7.265625 L 12.464844 7.140625 L 12.410156 7.265625 Z M 12.964844 7.125 L 12.957031 7.226562 L 12.949219 7.226562 C 12.949219 7.199219 12.9375 7.175781 12.921875 7.152344 C 12.90625 7.136719 12.886719 7.125 12.863281 7.125 C 12.847656 7.121094 12.828125 7.121094 12.808594 7.128906 C 12.789062 7.136719 12.773438 7.152344 12.761719 7.167969 C 12.75 7.191406 12.742188 7.21875 12.734375 7.253906 C 12.730469 7.277344 12.730469 7.300781 12.734375 7.324219 C 12.742188 7.347656 12.75 7.367188 12.765625 7.375 C 12.78125 7.394531 12.800781 7.402344 12.824219 7.402344 C 12.839844 7.40625 12.859375 7.40625 12.875 7.402344 C 12.890625 7.394531 12.910156 7.382812 12.933594 7.359375 L 12.941406 7.367188 C 12.921875 7.390625 12.898438 7.40625 12.878906 7.417969 C 12.855469 7.425781 12.832031 7.425781 12.800781 7.421875 C 12.753906 7.414062 12.71875 7.386719 12.699219 7.34375 C 12.683594 7.3125 12.675781 7.277344 12.683594 7.242188 C 12.691406 7.210938 12.699219 7.1875 12.71875 7.164062 C 12.734375 7.140625 12.757812 7.125 12.785156 7.113281 C 12.832031 7.09375 12.886719 7.101562 12.925781 7.132812 L 12.9375 7.140625 L 12.949219 7.140625 L 12.960938 7.125 Z M 12.964844 7.125 "/>
<path style=" stroke:none;fill-rule:nonzero;fill:rgb(100%,0%,0%);fill-opacity:1;" d="M 12.417969 7.691406 C 12.386719 7.691406 12.351562 7.695312 12.320312 7.707031 C 12.265625 7.800781 12.183594 7.871094 12.082031 7.90625 L 12.0625 7.914062 C 11.957031 7.960938 11.839844 7.964844 11.730469 7.925781 C 11.636719 7.988281 11.546875 8.0625 11.472656 8.148438 C 11.492188 8.261719 11.46875 8.378906 11.402344 8.476562 C 11.351562 8.578125 11.265625 8.660156 11.15625 8.699219 C 11.125 8.8125 11.105469 8.925781 11.101562 9.042969 C 11.167969 9.09375 11.226562 9.195312 11.25 9.316406 L 11.257812 9.339844 C 11.28125 9.472656 11.257812 9.597656 11.207031 9.667969 C 11.253906 9.777344 11.3125 9.875 11.378906 9.96875 C 11.460938 9.960938 11.570312 10.003906 11.664062 10.074219 L 11.683594 10.09375 C 11.785156 10.179688 11.847656 10.285156 11.851562 10.375 C 11.957031 10.433594 12.066406 10.472656 12.183594 10.496094 C 12.246094 10.4375 12.355469 10.394531 12.476562 10.394531 L 12.5 10.394531 C 12.632812 10.394531 12.75 10.433594 12.816406 10.496094 C 12.929688 10.472656 13.039062 10.433594 13.140625 10.375 C 13.160156 10.261719 13.222656 10.160156 13.3125 10.089844 C 13.398438 10.015625 13.507812 9.972656 13.621094 9.96875 C 13.6875 9.875 13.746094 9.777344 13.789062 9.675781 C 13.738281 9.582031 13.71875 9.472656 13.738281 9.367188 L 13.738281 9.347656 C 13.769531 9.210938 13.824219 9.109375 13.898438 9.050781 C 13.894531 8.933594 13.875 8.816406 13.839844 8.703125 C 13.742188 8.667969 13.660156 8.59375 13.609375 8.5 L 13.59375 8.480469 C 13.527344 8.363281 13.507812 8.238281 13.527344 8.152344 C 13.449219 8.0625 13.355469 7.984375 13.257812 7.921875 C 13.160156 7.957031 13.050781 7.957031 12.949219 7.921875 L 12.925781 7.910156 C 12.820312 7.875 12.726562 7.800781 12.667969 7.703125 C 12.613281 7.695312 12.554688 7.691406 12.496094 7.691406 L 12.414062 7.691406 Z M 12.691406 10.523438 "/>
<path style="fill-rule:nonzero;fill:rgb(98.431373%,94.117647%,7.843138%);fill-opacity:1;stroke-width:0.4;stroke-linecap:butt;stroke-linejoin:miter;stroke:rgb(0%,0%,0%);stroke-opacity:1;stroke-miterlimit:4;" d="M 354.748886 -509.398179 C 354.748886 -489.949227 338.936436 -474.231759 319.571914 -474.231759 C 300.092808 -474.231759 284.394941 -489.949227 284.394941 -509.398179 C 284.394941 -528.847131 300.092808 -544.564598 319.571914 -544.564598 C 338.936436 -544.564598 354.748886 -528.847131 354.748886 -509.398179 Z M 354.748886 -509.398179 " transform="matrix(0.034091,0,0,0.0345456,1.605469,26.702916)"/>
<path style="fill-rule:nonzero;fill:rgb(98.431373%,94.117647%,7.843138%);fill-opacity:1;stroke-width:0.4;stroke-linecap:butt;stroke-linejoin:miter;stroke:rgb(0%,0%,0%);stroke-opacity:1;stroke-miterlimit:4;" d="M 351.655146 -509.398179 C 351.655146 -491.645356 337.332274 -477.171717 319.457331 -477.171717 C 301.69697 -477.171717 287.259515 -491.645356 287.259515 -509.398179 C 287.259515 -527.151001 301.69697 -541.62464 319.457331 -541.62464 C 337.332274 -541.62464 351.655146 -527.151001 351.655146 -509.398179 Z M 351.655146 -509.398179 " transform="matrix(0.034091,0,0,0.0345456,1.605469,26.702916)"/>
<path style="fill-rule:evenodd;fill:rgb(0%,52.941179%,100%);fill-opacity:1;stroke-width:0.4;stroke-linecap:butt;stroke-linejoin:miter;stroke:rgb(0%,0%,0%);stroke-opacity:1;stroke-miterlimit:4;" d="M 309.946944 -525.228721 L 320.60316 -523.306441 L 319.228165 -512.677362 L 310.17611 -506.458221 L 305.249042 -511.99891 L 305.478208 -520.705709 Z M 309.946944 -525.228721 " transform="matrix(0.034091,0,0,0.0345456,1.605469,26.702916)"/>
<path style="fill-rule:evenodd;fill:rgb(100%,100%,100%);fill-opacity:1;stroke-width:0.4;stroke-linecap:butt;stroke-linejoin:miter;stroke:rgb(0%,0%,0%);stroke-opacity:1;stroke-miterlimit:4;" d="M 306.967787 -517.426525 L 302.8428 -517.200374 L 302.384468 -517.200374 L 302.384468 -516.974224 L 302.269885 -516.974224 L 302.155302 -516.748073 L 301.811553 -516.521923 L 301.811553 -516.295772 L 301.124055 -515.843471 L 301.009472 -515.843471 L 300.894889 -516.295772 L 300.321974 -516.295772 L 299.978225 -516.182697 L 299.978225 -516.748073 L 299.863642 -516.748073 L 299.863642 -517.765751 L 300.092808 -517.765751 L 300.092808 -518.670353 L 300.207391 -518.896504 L 300.207391 -519.122655 L 300.55114 -519.348805 L 300.780306 -519.46188 L 300.780306 -519.801106 L 300.894889 -520.140332 L 301.009472 -520.253408 L 300.894889 -520.366483 L 300.55114 -520.253408 L 300.321974 -520.366483 L 300.321974 -521.044935 L 300.55114 -521.15801 L 300.665723 -521.044935 L 300.894889 -521.949537 L 301.238638 -522.175688 L 301.009472 -522.741064 L 301.238638 -522.967215 L 301.124055 -523.419516 L 302.040719 -523.645667 L 302.040719 -523.984893 L 302.155302 -524.437194 L 302.8428 -524.663344 L 302.957383 -524.211043 L 302.957383 -523.871817 L 303.186548 -523.871817 L 303.415714 -524.324118 L 303.64488 -524.437194 L 303.64488 -524.663344 L 304.217795 -525.454871 L 304.446961 -525.567947 L 304.79071 -525.794097 L 305.249042 -525.794097 L 305.478208 -526.246399 L 305.478208 -526.585624 L 305.707374 -526.585624 L 305.93654 -526.811775 L 305.821957 -527.151001 L 305.821957 -527.829453 L 305.592791 -527.829453 L 305.592791 -528.055603 L 305.363625 -527.716378 L 305.249042 -527.829453 L 305.249042 -528.055603 L 304.561544 -528.055603 L 304.446961 -528.507905 L 304.217795 -528.394829 L 304.217795 -528.055603 L 303.988629 -528.168679 L 303.988629 -528.62098 L 303.64488 -528.62098 L 303.64488 -528.960206 L 304.103212 -529.751733 L 304.103212 -530.090959 L 303.64488 -530.54326 L 303.988629 -531.334787 L 304.446961 -531.674013 L 304.446961 -532.23939 L 304.103212 -532.126314 L 304.446961 -532.578616 L 305.249042 -532.917841 L 305.592791 -532.917841 L 306.165706 -532.46554 L 306.394872 -532.578616 L 306.738621 -532.578616 L 307.196953 -533.030917 L 307.655284 -532.578616 L 307.655284 -532.352465 L 308.113616 -532.352465 L 308.228199 -532.126314 L 308.457365 -532.126314 L 308.457365 -532.352465 L 309.144863 -532.691691 L 310.17611 -532.804766 L 311.092774 -533.257067 L 311.551106 -532.917841 L 312.696935 -532.917841 L 314.41568 -534.38782 L 319.571914 -533.143992 L 319.342748 -524.211043 L 313.842765 -521.15801 L 313.613599 -521.384161 L 313.499016 -521.271085 L 313.384433 -521.271085 L 313.384433 -521.836462 L 313.155267 -521.836462 L 313.155267 -521.15801 L 312.696935 -521.15801 L 312.353186 -521.384161 L 312.353186 -521.610311 L 312.696935 -521.610311 L 312.696935 -521.723386 L 312.353186 -521.836462 L 312.12402 -521.836462 L 312.12402 -521.949537 L 312.353186 -522.175688 L 312.353186 -522.288763 L 312.12402 -522.062612 L 311.894854 -522.175688 L 311.665688 -522.062612 L 311.894854 -521.836462 L 311.551106 -521.610311 L 311.551106 -521.384161 L 311.207357 -521.497236 L 311.207357 -521.271085 L 311.436523 -521.271085 L 310.749025 -520.931859 L 310.634442 -521.044935 L 310.634442 -521.15801 L 310.290693 -521.044935 L 309.946944 -521.044935 L 310.290693 -521.15801 L 310.17611 -521.271085 L 309.946944 -521.271085 L 309.946944 -521.610311 L 309.832361 -521.271085 L 309.603195 -521.271085 L 309.603195 -520.818784 L 309.144863 -520.818784 L 309.144863 -521.044935 C 309.144863 -521.044935 308.801114 -521.044935 308.915697 -520.818784 L 308.915697 -520.479558 L 308.571948 -520.705709 L 308.342782 -520.705709 L 308.342782 -520.366483 L 308.228199 -520.366483 L 307.769867 -520.592633 L 307.999033 -520.253408 L 307.426118 -520.253408 L 307.655284 -520.027257 L 307.655284 -519.801106 L 307.88445 -519.574956 L 307.769867 -519.46188 L 307.655284 -519.46188 L 307.426118 -519.23573 L 307.196953 -519.23573 L 307.08237 -518.896504 L 306.853204 -518.783429 L 306.967787 -518.557278 L 307.08237 -518.557278 L 307.08237 -518.444203 L 306.967787 -518.444203 L 306.624038 -517.991901 L 306.624038 -517.878826 L 306.853204 -517.878826 Z M 306.967787 -517.426525 " transform="matrix(0.034091,0,0,0.0345456,1.605469,26.702916)"/>
<path style="fill-rule:evenodd;fill:rgb(100%,100%,100%);fill-opacity:1;stroke-width:0.4;stroke-linecap:butt;stroke-linejoin:miter;stroke:rgb(0%,0%,0%);stroke-opacity:1;stroke-miterlimit:4;" d="M 314.186514 -517.31345 L 325.644811 -510.981233 L 325.759394 -510.07663 L 325.415645 -509.85048 L 325.530228 -509.511254 L 325.873977 -509.398179 L 325.98856 -508.945877 L 330.457296 -505.779769 L 330.801045 -506.005919 L 331.144794 -505.779769 L 331.259377 -506.23207 L 331.603126 -506.458221 L 332.061458 -507.588974 L 331.832292 -507.702049 L 331.946875 -508.15435 L 332.176041 -508.15435 L 332.634373 -508.606651 L 332.634373 -508.945877 L 332.405207 -509.285103 L 332.748956 -509.172028 L 333.092704 -510.07663 L 333.551036 -510.189706 L 333.551036 -510.868157 L 333.780202 -511.094308 C 333.780202 -511.094308 333.551036 -511.885835 333.780202 -512.225061 C 334.009368 -512.451212 335.155198 -512.451212 335.155198 -512.451212 L 335.728113 -513.242739 L 335.728113 -513.355814 L 336.071862 -513.69504 L 335.728113 -514.373492 L 336.530194 -514.147341 L 337.103109 -514.373492 L 337.446857 -514.373492 L 338.134355 -515.165019 L 338.134355 -515.504245 L 336.186445 -517.878826 L 336.186445 -529.638658 L 337.332274 -530.656335 L 339.051019 -533.143992 L 338.592687 -533.257067 L 336.75936 -533.143992 L 336.301028 -533.709369 L 336.071862 -533.709369 L 335.957279 -534.048594 L 335.61353 -534.274745 L 332.634373 -532.917841 L 332.51979 -532.352465 L 331.832292 -531.787088 L 331.832292 -531.447862 L 331.37396 -531.447862 L 328.28022 -532.23939 L 328.051054 -532.013239 L 327.13439 -532.013239 L 323.353152 -534.727046 L 320.717743 -534.727046 L 320.144828 -534.953197 L 320.144828 -535.179347 L 315.103178 -535.179347 L 314.071931 -534.16167 L 314.301097 -532.917841 L 314.759429 -532.917841 L 314.988595 -532.352465 L 315.446927 -532.352465 L 315.446927 -531.674013 L 315.332344 -531.674013 L 315.332344 -530.995561 L 315.446927 -530.656335 L 315.790676 -530.54326 L 315.790676 -529.977884 L 316.36359 -529.751733 L 316.478173 -528.960206 L 316.936505 -528.847131 L 316.936505 -528.507905 L 316.707339 -528.055603 L 317.051088 -527.490227 L 317.051088 -527.151001 L 317.165671 -526.585624 L 317.165671 -526.359474 L 317.051088 -525.794097 L 316.821922 -525.567947 L 316.707339 -525.228721 L 316.478173 -525.228721 L 316.478173 -524.437194 L 316.019841 -524.437194 L 315.790676 -524.097968 L 315.446927 -524.211043 L 315.446927 -523.532591 L 315.217761 -523.08029 L 314.874012 -523.08029 L 314.874012 -522.854139 L 314.530263 -522.627989 L 314.41568 -522.062612 L 314.41568 -521.610311 L 313.842765 -521.384161 L 313.842765 -520.479558 L 314.186514 -520.366483 L 314.41568 -520.366483 L 314.301097 -520.140332 L 314.644846 -520.027257 L 314.759429 -519.46188 L 315.217761 -519.801106 L 315.217761 -520.140332 L 315.676093 -520.140332 L 316.249007 -520.366483 L 316.707339 -519.688031 L 316.249007 -519.688031 L 316.249007 -519.46188 L 315.905258 -519.46188 L 315.446927 -519.574956 L 315.446927 -519.348805 L 315.56151 -519.23573 L 315.332344 -519.009579 L 315.217761 -519.23573 L 314.874012 -519.122655 L 314.644846 -519.122655 L 314.41568 -519.348805 L 314.41568 -518.896504 L 314.186514 -518.896504 L 313.957348 -518.444203 L 314.301097 -518.104977 L 314.644846 -517.878826 L 314.301097 -517.5396 Z M 331.832292 -495.489916 L 332.176041 -495.829142 L 332.176041 -496.055293 L 332.634373 -496.055293 L 332.748956 -496.507594 L 332.748956 -496.055293 L 332.634373 -495.829142 L 332.634373 -495.489916 L 332.405207 -495.489916 L 332.405207 -495.15069 L 332.290624 -495.376841 Z M 330.571879 -501.143681 L 330.571879 -501.822133 L 330.457296 -501.935209 L 330.915628 -502.161359 L 330.915628 -502.61366 L 331.37396 -502.839811 L 331.37396 -502.38751 L 331.144794 -502.38751 L 331.144794 -501.822133 L 331.259377 -501.482907 L 331.259377 -501.143681 L 331.603126 -501.030606 L 331.946875 -500.578305 L 331.946875 -500.352154 L 331.603126 -500.239079 L 331.144794 -500.69138 L 330.801045 -500.578305 Z M 332.061458 -503.744413 L 332.061458 -504.083639 L 332.290624 -504.535941 L 331.946875 -505.327468 L 332.405207 -505.327468 L 332.51979 -504.875166 L 332.748956 -504.875166 L 332.748956 -505.214392 C 332.748956 -505.214392 332.863539 -505.327468 332.863539 -505.214392 L 332.748956 -504.30979 L 332.863539 -503.857489 L 332.748956 -503.631338 L 332.405207 -503.292112 Z M 332.061458 -503.744413 " transform="matrix(0.034091,0,0,0.0345456,1.605469,26.702916)"/>
<path style="fill-rule:evenodd;fill:rgb(100%,100%,100%);fill-opacity:1;stroke-width:0.4;stroke-linecap:butt;stroke-linejoin:miter;stroke:rgb(0%,0%,0%);stroke-opacity:1;stroke-miterlimit:4;" d="M 334.353117 -487.46157 L 333.092704 -486.443892 L 331.259377 -485.652365 L 330.801045 -485.426214 L 329.884381 -485.426214 L 329.196883 -485.200064 L 328.853134 -484.973913 L 328.28022 -484.521612 L 327.478139 -484.973913 L 326.446892 -484.973913 L 326.217726 -484.747763 L 326.217726 -484.182386 L 325.530228 -483.956235 L 325.186479 -483.956235 L 324.84273 -483.730085 L 323.926067 -483.84316 L 323.467735 -484.182386 L 323.009403 -484.069311 L 322.207322 -483.503934 L 321.74899 -483.61701 L 321.74899 -483.84316 L 321.519824 -483.84316 L 321.290658 -483.61701 L 320.832326 -483.730085 L 320.832326 -484.069311 L 320.488577 -484.069311 L 320.144828 -484.747763 L 319.571914 -484.747763 L 319.457331 -484.408537 L 319.113582 -484.069311 L 318.65525 -484.182386 L 317.165671 -484.182386 L 316.821922 -484.860838 L 316.36359 -484.860838 L 316.019841 -485.878516 L 316.019841 -486.443892 L 316.249007 -486.556967 L 316.249007 -487.235419 L 315.790676 -487.46157 L 315.905258 -488.479248 L 315.790676 -488.705398 L 315.676093 -489.044624 L 314.988595 -489.836151 L 314.988595 -490.062302 L 314.186514 -490.740754 L 313.842765 -490.740754 L 313.842765 -490.062302 L 313.499016 -490.175377 L 313.26985 -490.514603 L 312.353186 -490.288452 L 311.894854 -490.853829 L 311.436523 -490.740754 L 310.978191 -490.966904 L 310.519859 -490.966904 L 310.061527 -491.419205 L 309.144863 -491.419205 L 309.03028 -491.984582 L 308.342782 -491.984582 L 308.228199 -492.097657 L 307.540701 -492.097657 L 307.540701 -492.436883 L 306.738621 -492.549958 L 306.280289 -492.776109 L 306.280289 -493.341486 L 305.707374 -493.567636 L 305.249042 -493.454561 L 305.019876 -494.133013 L 304.446961 -494.472239 L 304.446961 -495.15069 L 303.64488 -496.055293 L 303.64488 -496.507594 L 303.301131 -496.84682 L 303.301131 -497.751422 L 302.957383 -498.090648 L 302.957383 -498.542949 L 303.186548 -498.542949 L 303.186548 -498.7691 L 302.728217 -499.221401 L 302.499051 -499.560627 L 301.69697 -500.239079 L 301.124055 -500.239079 L 300.436557 -501.030606 L 300.436557 -501.369832 L 300.665723 -501.822133 L 301.124055 -501.822133 L 301.238638 -502.048284 L 301.238638 -502.38751 L 300.55114 -503.405187 L 300.55114 -503.857489 L 300.780306 -504.083639 L 300.665723 -504.649016 L 300.092808 -505.327468 L 300.092808 -505.892844 L 300.207391 -506.345145 L 300.207391 -506.571296 L 300.780306 -506.797447 L 301.124055 -507.023597 L 301.353221 -507.249748 L 301.353221 -507.588974 L 302.040719 -507.815124 L 302.040719 -508.15435 L 302.499051 -508.719727 L 302.499051 -508.945877 L 302.8428 -509.511254 L 303.530297 -509.85048 L 303.530297 -509.963555 L 303.988629 -510.302781 L 303.988629 -511.320459 L 303.759463 -511.433534 L 303.530297 -511.433534 L 303.186548 -511.546609 L 302.728217 -511.546609 L 302.728217 -511.77276 L 302.957383 -512.225061 L 302.8428 -512.451212 L 303.071966 -513.016588 L 304.103212 -513.129663 L 304.103212 -513.808115 L 304.217795 -514.147341 L 303.759463 -514.599642 L 303.759463 -515.61732 L 303.64488 -515.843471 L 303.64488 -516.182697 L 303.071966 -516.521923 L 302.728217 -517.200374 L 303.301131 -517.200374 L 303.64488 -517.5396 L 307.08237 -517.5396 L 307.196953 -517.200374 L 307.196953 -516.748073 L 306.967787 -516.295772 L 306.853204 -515.956546 L 306.853204 -515.051944 L 306.624038 -514.825793 L 306.624038 -514.486567 L 306.394872 -514.260417 L 306.738621 -514.260417 L 306.738621 -513.808115 L 306.509455 -513.355814 L 307.311536 -513.355814 L 306.967787 -512.790438 L 306.853204 -512.451212 L 306.967787 -511.77276 L 307.426118 -512.225061 L 307.655284 -511.885835 L 307.655284 -512.451212 L 307.769867 -512.790438 L 308.228199 -512.564287 L 308.342782 -512.790438 L 308.113616 -513.242739 L 308.457365 -513.581965 L 308.915697 -513.129663 L 309.144863 -513.016588 L 309.374029 -512.451212 L 309.717778 -513.129663 L 309.832361 -512.677362 L 310.17611 -512.677362 L 310.17611 -512.338136 L 310.519859 -511.885835 L 310.061527 -511.659685 L 310.061527 -511.207383 L 310.405276 -511.207383 L 310.405276 -511.659685 L 310.749025 -511.659685 L 310.634442 -512.225061 L 310.519859 -512.564287 L 310.863608 -513.242739 L 311.32194 -513.242739 L 311.551106 -512.677362 L 312.238603 -512.677362 L 312.811518 -513.355814 L 313.613599 -513.581965 L 313.384433 -514.147341 L 313.155267 -514.147341 L 312.926101 -513.808115 L 312.009437 -513.921191 L 311.665688 -514.147341 L 311.551106 -513.921191 L 311.207357 -513.921191 L 310.405276 -514.147341 L 310.405276 -514.486567 L 310.17611 -514.599642 L 310.634442 -514.825793 L 310.749025 -514.486567 L 310.978191 -514.486567 L 311.32194 -514.599642 L 311.665688 -514.260417 L 312.353186 -514.373492 L 312.353186 -514.712718 L 311.894854 -514.825793 L 311.894854 -515.051944 L 312.582352 -515.051944 L 312.696935 -515.278094 L 313.155267 -515.504245 L 312.926101 -515.843471 L 312.926101 -516.069621 L 313.842765 -515.843471 L 313.384433 -516.295772 L 313.499016 -516.748073 L 314.071931 -516.295772 L 314.071931 -516.521923 L 313.728182 -516.748073 L 314.301097 -517.426525 L 325.873977 -511.094308 L 325.98856 -510.189706 L 325.644811 -509.85048 L 325.644811 -509.511254 L 326.103143 -509.511254 L 326.103143 -509.058953 L 330.571879 -506.118995 L 330.915628 -505.553618 L 330.571879 -505.327468 L 330.342713 -504.875166 L 330.342713 -504.196715 L 330.113547 -503.744413 L 330.113547 -503.179037 L 329.655215 -502.839811 L 329.426049 -502.048284 L 329.426049 -501.595983 L 329.655215 -501.143681 L 329.540632 -500.578305 L 329.998964 -500.239079 L 330.342713 -500.239079 L 331.144794 -499.221401 L 331.603126 -498.7691 L 331.832292 -498.316799 L 331.603126 -497.751422 L 331.259377 -497.751422 L 331.030211 -496.733745 L 331.030211 -496.055293 L 331.37396 -495.716067 L 331.259377 -495.263766 L 331.144794 -494.698389 L 330.915628 -494.133013 L 331.144794 -493.454561 L 331.259377 -493.00226 L 331.488543 -492.776109 L 331.488543 -492.436883 L 331.259377 -492.436883 L 331.603126 -491.871507 L 331.946875 -491.645356 L 331.946875 -490.740754 L 332.290624 -490.401528 L 332.51979 -489.38385 L 332.290624 -489.044624 L 332.290624 -488.931549 L 332.863539 -488.931549 L 333.092704 -488.366172 L 333.551036 -488.479248 L 334.238534 -488.253097 L 334.4677 -487.68772 Z M 334.353117 -487.46157 " transform="matrix(0.034091,0,0,0.0345456,1.605469,26.702916)"/>
<path style="fill-rule:evenodd;fill:rgb(100%,100%,100%);fill-opacity:1;stroke-width:0.5;stroke-linecap:butt;stroke-linejoin:miter;stroke:rgb(0%,0%,0%);stroke-opacity:1;stroke-miterlimit:4;" d="M 298.144898 -512.903513 C 297.801149 -513.242739 299.061561 -513.921191 298.946978 -514.373492 C 298.946978 -515.278094 299.40531 -515.843471 300.55114 -516.069621 L 301.124055 -516.521923 C 301.353221 -516.295772 301.353221 -515.843471 301.69697 -516.069621 C 302.040719 -516.408847 302.728217 -517.426525 303.186548 -517.200374 C 302.8428 -516.748073 303.530297 -515.956546 303.874046 -515.730395 L 304.446961 -513.808115 C 304.332378 -513.242739 303.874046 -513.016588 303.071966 -513.242739 C 302.269885 -513.468889 302.155302 -512.903513 301.467804 -513.355814 C 301.353221 -512.677362 301.467804 -512.111986 300.55114 -511.77276 C 299.978225 -511.77276 299.634476 -511.885835 299.634476 -512.111986 C 299.176144 -512.677362 298.717813 -512.677362 298.374064 -512.111986 C 298.259481 -512.225061 298.144898 -512.451212 298.144898 -512.903513 " transform="matrix(0.034091,0,0,0.0345456,1.605469,26.702916)"/>
<path style="fill-rule:evenodd;fill:rgb(100%,100%,100%);fill-opacity:1;stroke-width:0.5;stroke-linecap:butt;stroke-linejoin:miter;stroke:rgb(0%,0%,0%);stroke-opacity:1;stroke-miterlimit:4;" d="M 298.374064 -512.111986 C 298.946978 -513.242739 299.519893 -511.99891 299.749059 -511.99891 C 301.238638 -511.77276 301.238638 -512.111986 301.467804 -513.468889 C 302.269885 -512.903513 302.040719 -513.468889 303.64488 -513.129663 C 303.415714 -513.129663 302.728217 -512.338136 303.186548 -512.338136 C 302.8428 -511.207383 303.64488 -511.207383 304.332378 -511.320459 C 303.988629 -510.868157 304.79071 -510.755082 303.988629 -510.302781 C 303.530297 -509.963555 303.530297 -510.302781 303.530297 -509.624329 L 302.8428 -509.511254 C 302.8428 -509.285103 303.186548 -508.945877 303.071966 -508.945877 C 303.071966 -508.719727 302.8428 -508.493576 302.499051 -508.15435 C 302.155302 -507.702049 301.69697 -507.362823 301.238638 -507.136672 L 300.55114 -506.910522 L 299.519893 -508.719727 C 299.519893 -509.285103 299.40531 -509.737404 299.176144 -510.302781 L 299.176144 -511.207383 C 298.832396 -511.433534 298.60323 -511.77276 298.374064 -512.225061 " transform="matrix(0.034091,0,0,0.0345456,1.605469,26.702916)"/>
</g>
</svg>
