<svg xmlns="http://www.w3.org/2000/svg" width="25" height="px" viewBox="0 0 25 19"><path d="M0 12.922h25v.851H0ZM0 5.227h25v.851H0Zm0 0" style="stroke:none;fill-rule:nonzero;fill:#fff;fill-opacity:1"/><path d="M0 13.773h25V19H0ZM0 0h25v5.227H0Zm0 0" style="stroke:none;fill-rule:nonzero;fill:#0087ff;fill-opacity:1"/><path d="M0 11.496h25v1.426H0Zm0 0" style="stroke:none;fill-rule:nonzero;fill:red;fill-opacity:1"/><path d="M0 6.078h25v1.426H0Zm0 0" style="stroke:none;fill-rule:nonzero;fill:#000001;fill-opacity:1"/><path d="M0 8.172h25v2.656H0Zm0 0" style="stroke:none;fill-rule:nonzero;fill:#ff0;fill-opacity:1"/><path d="M0 10.828h25v.668H0ZM0 7.504h25v.668H0Zm0 0" style="stroke:none;fill-rule:nonzero;fill:#008300;fill-opacity:1"/><path d="M319.572-589.455c-32.198 0-61.302 19.448-73.677 49.187-12.375 29.852-5.73 64.114 16.958 87.068l-34.145 10.969 3.093 7.802-11 2.374 8.021 25.668h181.614l7.906-25.668-11-2.374 3.094-7.916-34.26-10.855c22.687-22.954 29.448-57.216 17.073-86.955-12.375-29.852-41.365-49.3-73.677-49.3Zm0 0" style="fill-rule:nonzero;fill:#fff;fill-opacity:1;stroke-width:2;stroke-linecap:butt;stroke-linejoin:miter;stroke:#000;stroke-opacity:1;stroke-miterlimit:4" transform="matrix(.0341 0 0 .03455 1.605 26.703)"/><path d="m9.465 11.793.238.781h5.598l.234-.781Zm0 0" style="stroke:none;fill-rule:nonzero;fill:#008300;fill-opacity:1"/><path d="m9.613 11.895.176.578h5.422l.176-.578Zm0 0" style="stroke:none;fill-rule:nonzero;fill:#fff;fill-opacity:1"/><path d="M9.996 12.234c0 .012 0 .028-.004.04-.004.007-.008.019-.015.027a.04.04 0 0 1-.024.02c-.012.007-.023.007-.043.007q-.022.001-.039-.004l-.027-.015.02-.047q.006.006.019.011a.1.1 0 0 0 .023.004q.023 0 .028-.011.01-.006.011-.036v-.171h.051Zm.14.094q-.023.002-.042-.008-.017-.006-.028-.02-.012-.016-.02-.034-.004-.02-.003-.043v-.164h.05v.16c0 .011.005.02.005.027q.004.011.007.016c.004.008.012.011.016.011.004.004.012.004.016.004q.02 0 .031-.015.012-.013.012-.043v-.16h.054v.164a.1.1 0 0 1-.007.043.1.1 0 0 1-.016.035.1.1 0 0 1-.031.02.1.1 0 0 1-.043.007m.208-.27q.008.013.015.032l.016.039.02.047.015.043.016-.043.015-.047.016-.04c.004-.01.012-.023.016-.03h.047l.007.058.004.07c0 .024.004.047.004.07l.004.067h-.05l-.005-.086-.004-.09-.015.036-.016.039-.011.039-.012.027h-.035l-.012-.027-.031-.078-.012-.036q-.005.049-.004.09l-.004.086h-.05l.003-.066.008-.14.008-.06Zm.332.27q-.025.002-.043-.008a.1.1 0 0 1-.028-.02.2.2 0 0 1-.02-.034q-.004-.02-.003-.043v-.164h.05v.16q-.001.017.005.027.004.011.008.016.004.012.015.011c.004.004.012.004.016.004q.02 0 .031-.015.012-.013.012-.043v-.16h.054v.164a.1.1 0 0 1-.007.043.1.1 0 0 1-.016.035.1.1 0 0 1-.031.02.1.1 0 0 1-.043.007m.144-.27h.055v.266h-.05Zm.196.11.023-.055a.2.2 0 0 0 .024-.054h.058c-.012.027-.023.058-.039.082-.016.027-.027.054-.043.082v.101h-.05v-.101l-.048-.078c-.011-.028-.027-.055-.039-.086h.063l.023.054Zm.257.156-.007-.027-.012-.031h-.09l-.008.03-.008.028h-.054l.023-.078.024-.07.023-.059q.01-.03.02-.058h.05l.024.058.023.059.024.07.023.078Zm-.062-.207-.008.02-.008.02-.008.03-.011.032h.066l-.008-.031-.011-.032-.008-.02Zm.312.051.028-.055.023-.054h.059l-.04.082q-.021.04-.042.082v.101H11.5v-.101l-.047-.078-.039-.086h.063Zm.262.156-.008-.027-.011-.031h-.09l-.008.03-.008.028h-.055l.024-.078.023-.07.024-.059a.2.2 0 0 1 .023-.058h.047l.024.058.023.059.023.07.024.078Zm-.062-.207-.016.04-.008.03-.011.032h.066l-.012-.031-.008-.032-.007-.02Zm.382.207-.007-.027-.008-.031H12l-.012.03-.008.028h-.054l.027-.078c.008-.027.016-.047.024-.07l.02-.059.023-.058h.05l.024.058.043.13.027.077Zm-.062-.207-.004.02-.008.02-.008.03-.011.032h.066l-.012-.031-.007-.032Zm.148.207v-.265h.157v.05h-.102v.055h.09v.05h-.09v.11Zm.262-.265q.053-.002.082.02a.1.1 0 0 1 .027.066.07.07 0 0 1-.011.043.1.1 0 0 1-.031.027l.011.023.031.055.012.031h-.054l-.016-.027-.012-.024-.015-.027-.012-.02h-.027v.098h-.051v-.261c.011 0 .023-.004.035-.004Zm.004.046h-.012l-.008.004v.07h.016c.02 0 .031-.003.043-.007a.04.04 0 0 0 .012-.027q0-.023-.012-.028a.07.07 0 0 0-.039-.012m.152-.046h.051v.265h-.05Zm.243.265c-.004-.008-.008-.02-.016-.027l-.02-.031q-.01-.017-.023-.028l-.023-.027v.113h-.055v-.265h.055v.101l.039-.05.039-.051h.062q-.023.034-.047.062a1 1 0 0 0-.05.059c.015.02.035.039.05.062q.029.042.051.082Zm.257 0-.007-.027-.008-.031h-.09l-.012.03-.008.028h-.054l.027-.078.02-.07.023-.059.023-.058h.051q.013.03.02.058l.023.059.024.07.023.078Zm-.062-.207-.004.02-.008.02-.012.03-.007.032h.066l-.023-.063-.008-.02Zm.293-.058.012.03.015.04.02.047.015.043.016-.043.016-.047.015-.04c.008-.01.012-.023.016-.03h.047l.008.058.003.07q.002.036.004.07l.004.067h-.05l-.004-.086-.004-.09-.012.036-.016.039c-.008.011-.011.027-.015.039l-.012.027h-.035l-.012-.027-.016-.04-.011-.038-.016-.036c0 .032-.004.063-.004.09l-.004.086h-.05l.003-.066.008-.14.008-.06Zm.394.265-.007-.027-.008-.031h-.094l-.008.03-.008.028h-.054l.023-.078.024-.07.023-.059.023-.058h.047l.047.117.024.07.023.078Zm-.062-.207-.008.02-.004.02-.023.062h.066l-.008-.031-.011-.032-.008-.02Zm.219.16h.02q.006-.004.007-.007a.01.01 0 0 0 .008-.008v-.012q.002-.013-.008-.02-.011-.009-.04-.02l-.023-.01q-.009-.008-.02-.012-.006-.012-.015-.024-.005-.013-.004-.031-.001-.02.004-.031a.1.1 0 0 1 .02-.028.1.1 0 0 1 .027-.015q.012-.005.035-.004a.1.1 0 0 1 .04.004l.03.011-.015.047q-.012-.004-.023-.008c-.008-.004-.02-.004-.028-.004q-.022-.001-.027.004-.01.007-.008.02v.012q.006.004.012.007l.012.008.015.008q.02.005.031.016a.1.1 0 0 1 .024.015l.012.024q.004.013.003.031a.07.07 0 0 1-.023.059q-.019.018-.066.02h-.028c-.008-.005-.015-.005-.023-.009l-.016-.004-.011-.007.015-.047c.004.004.016.008.024.011q.016.005.039.004m.27-.218h.054v.265h-.055v-.113h-.086v.113h-.05v-.265h.05v.101h.086Zm.26.265-.007-.027-.008-.031h-.09l-.007.03-.008.028h-.055l.024-.078c.007-.027.015-.047.023-.07l.023-.059q.007-.03.02-.058h.05l.024.058.024.059.023.07.023.078Zm-.062-.207-.004.02-.007.02-.008.03-.012.032h.067l-.012-.031-.008-.032Zm.22-.058q.052-.002.081.02a.1.1 0 0 1 .027.066.07.07 0 0 1-.011.043.1.1 0 0 1-.031.027l.015.023.012.028.015.027.012.031h-.054l-.016-.027-.012-.024-.015-.027-.012-.02h-.027v.098h-.051v-.261c.011 0 .023-.004.035-.004Zm.003.046h-.012l-.008.004v.07h.016q.03 0 .043-.007a.04.04 0 0 0 .012-.027q0-.023-.012-.028-.014-.012-.039-.012m.152-.046h.055v.265h-.055Zm.243.265c-.004-.008-.008-.02-.016-.027l-.02-.031q-.01-.017-.023-.028l-.023-.027v.113h-.055v-.265h.055v.101l.039-.05.039-.051h.062q-.023.034-.047.062c-.015.02-.035.04-.05.059.015.02.035.039.05.062q.029.042.051.082Zm.093-.265h.051v.265h-.05Zm0 0" style="stroke:none;fill-rule:nonzero;fill:#000;fill-opacity:1"/><path d="m9.465 11.793.351-.098-.109-.195.613-.23v.21h.188v.32H9.484Zm0 0" style="stroke:none;fill-rule:evenodd;fill:#008300;fill-opacity:1"/><path d="M10.418 11.8h-.742l.742-.202Zm-.164-.32h-.332l.344-.128Zm-.434.06.075.136.496-.137Zm0 0" style="stroke:none;fill-rule:evenodd;fill:#fff;fill-opacity:1"/><path d="m15.535 11.793-.355-.098.11-.195-.61-.23v.21h-.188v.32h1.024Zm0 0" style="stroke:none;fill-rule:evenodd;fill:#008300;fill-opacity:1"/><path d="M14.582 11.8h.742l-.742-.202Zm.164-.32h.328l-.34-.128Zm.43.06-.074.136-.493-.137Zm0 0" style="stroke:none;fill-rule:evenodd;fill:#fff;fill-opacity:1"/><path d="M317.739-579.957c-33.573 1.018-61.76 25.555-67.49 58.573-5.729 33.13 12.604 65.697 43.77 78.022v-7.802c-27.384-12.1-42.624-41.725-36.551-71.012s31.74-50.431 61.76-50.657h.458c30.021 0 55.917 21.032 62.104 50.431 6.188 29.4-9.052 59.139-36.437 71.238v7.802c31.625-12.325 50.073-45.57 43.77-79.04-6.187-33.47-35.52-57.668-69.551-57.555Zm0 0" style="fill-rule:nonzero;fill:#ff0;fill-opacity:1;stroke-width:1.2;stroke-linecap:butt;stroke-linejoin:miter;stroke:#000;stroke-opacity:1;stroke-miterlimit:4" transform="matrix(.0341 0 0 .03455 1.605 26.703)"/><path d="M339.051-458.288v10.629c-6.302.905-13.406 7.576-15.354 8.707-1.948 1.244-5.042 3.844-6.646 3.618-2.98-.34-.802-2.714-.802-2.714s-2.062 2.488-3.437 1.357c-1.375-.904.802-2.714.802-2.714s-.688 1.018-2.177.453c-1.49-.34-.459-1.923-.459-1.923s-3.781 1.923-4.469 1.244c-1.03-1.244.344-2.487.344-2.487l8.938-7.463s-5.844 2.035 0 0c4.927-2.036 6.302.791 8.479.565 3.781-1.018 7.219-2.714 10.198-5.088 1.718-1.696 1.26-3.506 2.52-3.958 1.26-.565 2.063-.226 2.063-.226Zm0 0" style="fill-rule:evenodd;fill:#fff;fill-opacity:1;stroke-width:.9;stroke-linecap:butt;stroke-linejoin:miter;stroke:#000;stroke-opacity:1;stroke-miterlimit:4" transform="matrix(.0341 0 0 .03455 1.605 26.703)"/><path d="m299.978-457.497-.114 9.838c6.073.791 12.718 7.124 14.552 8.368 1.718 1.13 4.698 2.94 6.302 2.826 2.635-.339 1.948-1.357 1.948-1.357s1.26.566 2.864 0c1.604-.565.802-1.696.802-1.696s2.407.679 3.323-.565c1.031-1.13-.916-2.262-.916-2.262s.916-.791-.688.114c-1.604.904-4.698-2.714-7.906-2.94-3.323 0-3.667 3.166-5.615 1.696-2.177-1.583 1.604-4.184 2.865-4.636 5.156-1.696 9.854.452 3.666-2.036-3.208-1.13-5.614 1.131-7.791 1.018s-7.563-2.94-8.938-4.523c-1.604-1.696-1.26-3.28-2.406-3.732-1.26-.339-1.948-.339-2.062-.113Zm0 0" style="fill-rule:evenodd;fill:#fff;fill-opacity:1;stroke-width:.8;stroke-linecap:butt;stroke-linejoin:miter;stroke:#000;stroke-opacity:1;stroke-miterlimit:4" transform="matrix(.0341 0 0 .03455 1.605 26.703)"/><path d="m326.447-439.518-4.354-1.809m1.146 3.732-5.042-3.053" style="fill:none;stroke-width:.8;stroke-linecap:butt;stroke-linejoin:miter;stroke:#000;stroke-opacity:1;stroke-miterlimit:4" transform="matrix(.0341 0 0 .03455 1.605 26.703)"/><path d="M291.843-462.585c-12.49 5.993-13.063-9.838-18.677-9.611 10.541-7.011 8.823 5.993 18.677 9.611Zm-4.813-17.414c-6.187 11.308 8.25 12.778 7.792 18.319 7.104-9.612-5.042-8.82-7.792-18.319Zm0 0" style="fill-rule:evenodd;fill:#008300;fill-opacity:1;stroke-width:.4;stroke-linecap:butt;stroke-linejoin:miter;stroke:#000;stroke-opacity:1;stroke-miterlimit:4" transform="matrix(.0341 0 0 .03455 1.605 26.703)"/><path d="M280.957-475.589c-15.24 2.601-11.114-10.629-17.416-11.76 13.406-3.957 7.677 6.22 17.416 11.76Zm0 0" style="fill-rule:evenodd;fill:#008300;fill-opacity:1;stroke-width:.4;stroke-linecap:butt;stroke-linejoin:miter;stroke:#000;stroke-opacity:1;stroke-miterlimit:4" transform="matrix(.0341 0 0 .03455 1.605 26.703)"/><path d="M279.353-491.193c-8.364 9.837 3.782 10.403 2.292 15.604 8.708-8.028-.23-7.689-2.292-15.604Zm-8.708 1.81c-15.24-2.262-5.615-17.754-10.198-21.033 12.49.905 4.354 14.474 10.198 21.032Zm0 0" style="fill-rule:evenodd;fill:#008300;fill-opacity:1;stroke-width:.4;stroke-linecap:butt;stroke-linejoin:miter;stroke:#000;stroke-opacity:1;stroke-miterlimit:4" transform="matrix(.0341 0 0 .03455 1.605 26.703)"/><path d="M276.374-508.946c-13.979 6.672.115 13.795-5.385 19.901 13.864-.678 1.604-9.611 5.385-19.788Zm-7.792.452c-16.27-7.35.688-21.37-2.177-26.46 11.115 11.308-5.843 15.492 2.177 26.46Zm0 0" style="fill-rule:evenodd;fill:#008300;fill-opacity:1;stroke-width:.4;stroke-linecap:butt;stroke-linejoin:miter;stroke:#000;stroke-opacity:1;stroke-miterlimit:4" transform="matrix(.0341 0 0 .03455 1.605 26.703)"/><path d="M279.01-527.264c-13.98 1.81-6.99 14.7-9.855 19.223 11-2.488 2.177-8.933 9.97-19.223Zm-6.76-3.958c-7.907-11.986 5.27-14.7 6.187-20.806 3.78 15.831-5.271 10.743-6.188 20.806Zm0 0" style="fill-rule:evenodd;fill:#008300;fill-opacity:1;stroke-width:.4;stroke-linecap:butt;stroke-linejoin:miter;stroke:#000;stroke-opacity:1;stroke-miterlimit:4" transform="matrix(.0341 0 0 .03455 1.605 26.703)"/><path d="M287.947-541.172c-12.948-3.732-10.542 9.385-14.896 12.438 11 1.81 8.594-8.707 14.896-12.438Zm-5.958-5.654c-2.636-10.403 2.635-8.707 8.479-13.23 3.208 8.368-4.698 7.35-8.48 13.23Zm16.614-1.583c-9.968-7.35-11.114 2.6-16.27 3.957 9.51 5.767 9.968-2.713 16.27-3.844Zm-5.958-4.975c.23-4.523 6.302-10.403 12.49-8.368-.344 7.463-7.563 9.385-12.49 8.48Zm0 0" style="fill-rule:evenodd;fill:#008300;fill-opacity:1;stroke-width:.4;stroke-linecap:butt;stroke-linejoin:miter;stroke:#000;stroke-opacity:1;stroke-miterlimit:4" transform="matrix(.0341 0 0 .03455 1.605 26.703)"/><path d="M291.799-462.585c-12.375 5.993-12.948-9.838-18.562-9.611 10.427-7.011 8.708 5.993 18.562 9.611Zm-4.813-17.414c-6.187 11.308 8.365 12.778 7.792 18.319 7.104-9.612-4.927-8.82-7.792-18.319Zm0 0" style="fill-rule:evenodd;fill:#008300;fill-opacity:1;stroke-width:.4;stroke-linecap:butt;stroke-linejoin:miter;stroke:#000;stroke-opacity:1;stroke-miterlimit:4" transform="matrix(-.0341 0 0 .03455 23.393 26.703)"/><path d="M281.028-475.589c-15.354 2.601-11.114-10.629-17.531-11.76 13.52-3.957 7.677 6.22 17.531 11.76Zm0 0" style="fill-rule:evenodd;fill:#008300;fill-opacity:1;stroke-width:.4;stroke-linecap:butt;stroke-linejoin:miter;stroke:#000;stroke-opacity:1;stroke-miterlimit:4" transform="matrix(-.0341 0 0 .03455 23.393 26.703)"/><path d="M279.424-491.193c-8.48 9.837 3.667 10.403 2.292 15.604 8.708-8.028-.344-7.689-2.292-15.604Zm-8.823 1.81c-15.24-2.262-5.614-17.754-10.198-21.033 12.49.905 4.354 14.474 10.198 21.032Zm0 0" style="fill-rule:evenodd;fill:#008300;fill-opacity:1;stroke-width:.4;stroke-linecap:butt;stroke-linejoin:miter;stroke:#000;stroke-opacity:1;stroke-miterlimit:4" transform="matrix(-.0341 0 0 .03455 23.393 26.703)"/><path d="M276.445-508.946c-14.094 6.672 0 13.795-5.5 19.901 13.864-.678 1.604-9.611 5.5-19.788Zm-7.792.452c-16.385-7.35.688-21.37-2.291-26.46 11.114 11.308-5.73 15.492 2.291 26.46Zm0 0" style="fill-rule:evenodd;fill:#008300;fill-opacity:1;stroke-width:.4;stroke-linecap:butt;stroke-linejoin:miter;stroke:#000;stroke-opacity:1;stroke-miterlimit:4" transform="matrix(-.0341 0 0 .03455 23.393 26.703)"/><path d="M278.966-527.264c-13.98 1.81-6.99 14.7-9.854 19.223 11-2.488 2.177-8.933 9.968-19.223Zm-6.76-3.958c-7.907-11.986 5.27-14.7 6.187-20.806 3.781 15.831-5.156 10.743-6.188 20.806Zm0 0" style="fill-rule:evenodd;fill:#008300;fill-opacity:1;stroke-width:.4;stroke-linecap:butt;stroke-linejoin:miter;stroke:#000;stroke-opacity:1;stroke-miterlimit:4" transform="matrix(-.0341 0 0 .03455 23.393 26.703)"/><path d="M288.018-541.172c-13.063-3.732-10.656 9.385-15.01 12.438 11 1.81 8.708-8.707 15.01-12.438Zm-6.073-5.654c-2.521-10.403 2.635-8.707 8.594-13.23 3.208 8.368-4.698 7.35-8.594 13.23Zm16.614-1.583c-9.968-7.35-11.114 2.6-16.27 3.957 9.625 5.767 9.968-2.713 16.27-3.844Zm-5.958-4.975c.344-4.523 6.302-10.403 12.49-8.368-.344 7.463-7.448 9.385-12.49 8.48Zm0 0" style="fill-rule:evenodd;fill:#008300;fill-opacity:1;stroke-width:.4;stroke-linecap:butt;stroke-linejoin:miter;stroke:#000;stroke-opacity:1;stroke-miterlimit:4" transform="matrix(-.0341 0 0 .03455 23.393 26.703)"/><path d="m12.082 7.137.02.12.062-.01q.03-.006.035-.017a.1.1 0 0 0 .008-.039h.008l.015.106h-.007l-.008-.027-.016-.012h-.027l-.067.015.016.102.008.023.008.004h.015l.051-.007.035-.012.02-.016a.1.1 0 0 0 .02-.047h.011l-.016.075-.226.043-.004-.008h.012l.015-.012q.01-.006.008-.012v-.031l-.035-.195q-.001-.03-.008-.035-.01-.005-.027-.004h-.012v-.004l.227-.043.015.066h-.008l-.015-.027-.02-.012h-.03Zm.438.144h-.118l-.02.051-.007.027q.001.006.008.012c.004.004.012.004.027.008v.008h-.094v-.008q.018-.001.024-.008l.027-.047.102-.254h.011l.106.258q.012.028.023.04c.004.003.016.007.028.007v.012h-.121v-.008q.017-.001.027-.008.005-.006.004-.012a.1.1 0 0 0-.008-.03Zm-.004-.015-.051-.125-.055.125Zm.449-.141-.008.102h-.008a.13.13 0 0 0-.027-.075.08.08 0 0 0-.059-.027.1.1 0 0 0-.054.004.1.1 0 0 0-.047.039.4.4 0 0 0-.028.086.2.2 0 0 0 0 .07q.01.038.032.051a.07.07 0 0 0 .058.027.1.1 0 0 0 .051 0 .2.2 0 0 0 .059-.043l.007.008a.2.2 0 0 1-.062.051.2.2 0 0 1-.078.004.13.13 0 0 1-.102-.078.15.15 0 0 1-.015-.102.2.2 0 0 1 .035-.078.14.14 0 0 1 .066-.05.14.14 0 0 1 .14.019l.012.008h.012l.012-.016Zm0 0" style="stroke:none;fill-rule:nonzero;fill:#000;fill-opacity:1"/><path d="M12.418 7.691a.3.3 0 0 0-.098.016.44.44 0 0 1-.238.2l-.02.007a.44.44 0 0 1-.332.012 1.3 1.3 0 0 0-.257.222.45.45 0 0 1-.07.329.45.45 0 0 1-.247.222q-.047.17-.054.344c.066.05.125.152.148.273l.008.024a.45.45 0 0 1-.051.328c.047.11.105.207.172.3.082-.007.191.036.285.106l.02.02c.101.086.164.191.168.281q.156.088.332.121a.44.44 0 0 1 .293-.101h.023c.133 0 .25.039.316.101q.172-.034.325-.121a.46.46 0 0 1 .172-.285.5.5 0 0 1 .308-.121c.066-.094.125-.192.168-.293a.47.47 0 0 1-.05-.309v-.02a.5.5 0 0 1 .16-.296 1.3 1.3 0 0 0-.06-.348.43.43 0 0 1-.23-.203l-.015-.02c-.067-.117-.086-.242-.067-.328a1.3 1.3 0 0 0-.27-.23.47.47 0 0 1-.308 0l-.023-.012a.48.48 0 0 1-.258-.207 1 1 0 0 0-.172-.012h-.082Zm.273 2.832" style="stroke:none;fill-rule:nonzero;fill:red;fill-opacity:1"/><path d="M354.749-509.398c0 19.449-15.813 35.166-35.177 35.166-19.48 0-35.177-15.717-35.177-35.166 0-19.45 15.698-35.167 35.177-35.167 19.364 0 35.177 15.718 35.177 35.167Zm0 0" style="fill-rule:nonzero;fill:#fbf014;fill-opacity:1;stroke-width:.4;stroke-linecap:butt;stroke-linejoin:miter;stroke:#000;stroke-opacity:1;stroke-miterlimit:4" transform="matrix(.0341 0 0 .03455 1.605 26.703)"/><path d="M351.655-509.398c0 17.753-14.323 32.226-32.198 32.226-17.76 0-32.197-14.473-32.197-32.226s14.437-32.227 32.197-32.227c17.875 0 32.198 14.474 32.198 32.227Zm0 0" style="fill-rule:nonzero;fill:#fbf014;fill-opacity:1;stroke-width:.4;stroke-linecap:butt;stroke-linejoin:miter;stroke:#000;stroke-opacity:1;stroke-miterlimit:4" transform="matrix(.0341 0 0 .03455 1.605 26.703)"/><path d="m309.947-525.229 10.656 1.923-1.375 10.629-9.052 6.219-4.927-5.54.23-8.708Zm0 0" style="fill-rule:evenodd;fill:#0087ff;fill-opacity:1;stroke-width:.4;stroke-linecap:butt;stroke-linejoin:miter;stroke:#000;stroke-opacity:1;stroke-miterlimit:4" transform="matrix(.0341 0 0 .03455 1.605 26.703)"/><path d="m306.968-517.427-4.125.227h-.459v.226h-.114l-.115.226-.343.226v.226l-.688.453h-.115l-.114-.453h-.573l-.344.113v-.565h-.114v-1.018h.229v-.904l.114-.227v-.226l.344-.226.23-.113v-.34l.114-.338.114-.113-.114-.113-.344.113-.229-.113v-.679l.23-.113.114.113.229-.905.344-.226-.23-.565.23-.226-.115-.453.917-.226v-.339l.114-.452.688-.226.114.452v.34h.23l.229-.453.229-.113v-.226l.573-.792.229-.113.344-.226h.458l.23-.452v-.34h.228l.23-.226-.115-.339v-.678h-.23v-.227l-.228.34-.115-.113v-.227h-.687l-.115-.452-.23.113v.34l-.228-.114v-.452h-.344v-.34l.458-.79v-.34l-.458-.452.344-.792.458-.339v-.565l-.344.113.344-.453.802-.339h.344l.573.452.229-.113h.344l.458-.452.458.452v.227h.459l.114.226h.23v-.226l.687-.34 1.031-.113.917-.452.458.34h1.146l1.719-1.47 5.156 1.243-.23 8.933-5.5 3.053-.228-.226-.115.113h-.115v-.565h-.229v.678h-.458l-.344-.226v-.226h.344v-.113l-.344-.113h-.229v-.114l.23-.226v-.113l-.23.226-.23-.113-.228.113.229.227-.344.226v.226l-.344-.113v.226h.23l-.688.34-.115-.114v-.113l-.343.113h-.344l.344-.113-.115-.113h-.23v-.34l-.114.34h-.229v.452h-.458v-.226s-.344 0-.23.226v.34l-.343-.227h-.23v.34h-.114l-.458-.227.229.34h-.573l.23.226v.226l.228.226-.114.113h-.115l-.229.226h-.229l-.115.34-.229.113.115.226h.114v.113h-.114l-.344.452v.113h.23Zm0 0" style="fill-rule:evenodd;fill:#fff;fill-opacity:1;stroke-width:.4;stroke-linecap:butt;stroke-linejoin:miter;stroke:#000;stroke-opacity:1;stroke-miterlimit:4" transform="matrix(.0341 0 0 .03455 1.605 26.703)"/><path d="m314.187-517.313 11.458 6.332.114.904-.343.227.114.339.344.113.115.452 4.468 3.166.344-.226.344.226.114-.452.344-.226.458-1.131-.229-.113.115-.452h.229l.458-.453v-.339l-.229-.34.344.114.344-.905.458-.113v-.678l.23-.226s-.23-.792 0-1.131c.228-.226 1.374-.226 1.374-.226l.573-.792v-.113l.344-.339-.344-.678.802.226.573-.226h.344l.687-.792v-.34l-1.948-2.374v-11.76l1.146-1.017 1.719-2.488-.458-.113-1.834.113-.458-.565h-.23l-.114-.34-.343-.226-2.98 1.357-.114.566-.688.565v.34h-.458l-3.094-.792-.229.226h-.917l-3.78-2.714h-2.636l-.573-.226v-.226h-5.042l-1.031 1.017.23 1.244h.457l.23.566h.458v.678h-.115v.678l.115.34.344.113v.565l.573.226.114.792.459.113v.34l-.23.451.344.566v.339l.115.565v.227l-.115.565-.23.226-.114.34h-.229v.79h-.458l-.23.34-.343-.113v.678l-.23.453h-.343v.226l-.344.226-.114.565v.453l-.573.226v.904l.344.114h.229l-.115.226.344.113.114.565.459-.34v-.338h.458l.573-.226.458.678h-.458v.226h-.344l-.458-.113v.226l.115.113-.23.226-.114-.226-.344.113h-.23l-.228-.226v.452h-.23l-.229.453.344.339.344.226-.344.34Zm17.645 21.823.344-.34v-.225h.458l.115-.453v.453l-.115.226v.34h-.229v.338l-.114-.226Zm-1.26-5.654v-.678l-.115-.113.459-.226v-.453l.458-.226v.452h-.23v.566l.115.34v.338l.344.113.344.453v.226l-.344.113-.458-.452-.344.113Zm1.49-2.6v-.34l.229-.452-.344-.791h.458l.115.452h.229v-.34s.115-.112.115 0l-.115.905.115.453-.115.226-.344.339Zm0 0" style="fill-rule:evenodd;fill:#fff;fill-opacity:1;stroke-width:.4;stroke-linecap:butt;stroke-linejoin:miter;stroke:#000;stroke-opacity:1;stroke-miterlimit:4" transform="matrix(.0341 0 0 .03455 1.605 26.703)"/><path d="m334.353-487.462-1.26 1.018-1.834.792-.458.226h-.917l-.687.226-.344.226-.573.452-.802-.452h-1.031l-.23.226v.566l-.687.226h-.344l-.343.226-.917-.113-.458-.34-.459.114-.802.565-.458-.113v-.226h-.23l-.228.226-.459-.113v-.34h-.343l-.344-.678h-.573l-.115.34-.343.339-.459-.113h-1.49l-.343-.679h-.458l-.344-1.018v-.565l.229-.113v-.678l-.458-.227.114-1.017-.114-.226-.115-.34-.687-.791v-.226l-.802-.679h-.344v.679l-.344-.113-.23-.34-.916.227-.458-.566-.458.113-.459-.226h-.458l-.458-.452h-.917l-.115-.566h-.687l-.115-.113h-.687v-.339l-.802-.113-.459-.226v-.565l-.573-.227-.458.113-.23-.678-.572-.34v-.678l-.802-.904v-.453l-.344-.339v-.904l-.344-.34v-.452h.23v-.226l-.459-.452-.229-.34-.802-.678h-.573l-.687-.792v-.339l.229-.452h.458l.115-.226v-.34l-.688-1.017v-.452l.23-.227-.115-.565-.573-.678v-.566l.114-.452v-.226l.573-.226.344-.227.23-.226v-.339l.687-.226v-.34l.458-.565v-.226l.344-.565.687-.34v-.113l.459-.339v-1.017l-.23-.114h-.229l-.343-.113h-.459v-.226l.23-.452-.115-.226.229-.566 1.031-.113v-.678l.115-.34-.459-.452v-1.017l-.114-.226v-.34l-.573-.339-.344-.678h.573l.344-.34h3.437l.115.34v.452l-.23.452-.114.34v.904l-.229.226v.34l-.23.226h.345v.452l-.23.452h.803l-.344.566-.115.339.115.678.458-.452.23.34v-.566l.114-.34.458.227.115-.226-.23-.453.344-.339.459.452.229.113.229.566.344-.679.114.453h.344v.339l.344.452-.458.226v.453h.343v-.453h.344l-.115-.565-.114-.34.344-.678h.458l.23.566h.687l.573-.679.802-.226-.23-.565h-.229l-.229.339-.917-.113-.343-.226-.115.226h-.344l-.802-.226v-.34l-.229-.113.458-.226.115.34h.23l.343-.114.344.34.687-.113v-.34l-.458-.113v-.226h.687l.115-.226.458-.226-.229-.34v-.226l.917.227-.459-.453.115-.452.573.452v-.226l-.344-.226.573-.679 11.573 6.333.115.904-.344.34v.339h.458v.452l4.469 2.94.344.565-.344.227-.23.452v.678l-.228.453v.565l-.459.34-.229.79v.453l.23.452-.115.566.458.339h.344l.802 1.018.458.452.23.452-.23.566h-.344l-.229 1.017v.679l.344.339-.115.452-.114.566-.23.565.23.678.114.453.23.226v.34h-.23l.344.564.344.227v.904l.344.34.229 1.017-.23.34v.112h.574l.229.566.458-.113.688.226.229.565Zm0 0" style="fill-rule:evenodd;fill:#fff;fill-opacity:1;stroke-width:.4;stroke-linecap:butt;stroke-linejoin:miter;stroke:#000;stroke-opacity:1;stroke-miterlimit:4" transform="matrix(.0341 0 0 .03455 1.605 26.703)"/><path d="M298.145-512.904c-.344-.339.917-1.017.802-1.47 0-.904.458-1.47 1.604-1.696l.573-.452c.23.226.23.679.573.452.344-.339 1.031-1.357 1.49-1.13-.344.452.343 1.243.687 1.47l.573 1.922c-.115.565-.573.791-1.375.565s-.917.34-1.604-.113c-.115.679 0 1.244-.917 1.583-.573 0-.917-.113-.917-.339-.458-.565-.916-.565-1.26 0-.115-.113-.23-.34-.23-.792" style="fill-rule:evenodd;fill:#fff;fill-opacity:1;stroke-width:.5;stroke-linecap:butt;stroke-linejoin:miter;stroke:#000;stroke-opacity:1;stroke-miterlimit:4" transform="matrix(.0341 0 0 .03455 1.605 26.703)"/><path d="M298.374-512.112c.573-1.13 1.146.113 1.375.113 1.49.226 1.49-.113 1.719-1.47.802.565.573 0 2.177.34-.23 0-.917.79-.458.79-.344 1.132.458 1.132 1.145 1.019-.343.452.459.565-.343 1.017-.459.34-.459 0-.459.679l-.687.113c0 .226.344.565.229.565 0 .226-.23.452-.573.792a3.6 3.6 0 0 1-1.26 1.017l-.688.226-1.031-1.809c0-.565-.115-1.017-.344-1.583v-.904c-.344-.227-.573-.566-.802-1.018" style="fill-rule:evenodd;fill:#fff;fill-opacity:1;stroke-width:.5;stroke-linecap:butt;stroke-linejoin:miter;stroke:#000;stroke-opacity:1;stroke-miterlimit:4" transform="matrix(.0341 0 0 .03455 1.605 26.703)"/></svg>