<?xml version="1.0" encoding="UTF-8"?>
<svg xmlns="http://www.w3.org/2000/svg" xmlns:xlink="http://www.w3.org/1999/xlink" width="25px" height="px" viewBox="0 0 25 19" version="1.1">
<g id="surface1">
<rect x="0" y="0" width="25" height="19" style="fill:rgb(100%,90.980393%,0%);fill-opacity:1;stroke:none;"/>
<path style=" stroke:none;fill-rule:evenodd;fill:rgb(0%,7.843138%,55.686277%);fill-opacity:1;" d="M 0 9.5 L 25 9.5 L 25 19 L 0 19 Z M 0 9.5 "/>
<path style=" stroke:none;fill-rule:evenodd;fill:rgb(85.490197%,0%,6.27451%);fill-opacity:1;" d="M 0 14.25 L 25 14.25 L 25 19 L 0 19 Z M 0 14.25 "/>
<path style=" stroke:none;fill-rule:evenodd;fill:rgb(0%,0%,0%);fill-opacity:1;" d="M 10.53125 11.511719 L 7.695312 14.539062 L 7.648438 14.476562 L 10.476562 11.449219 L 10.523438 11.511719 Z M 12.5 12.003906 L 8.796875 15.964844 L 8.734375 15.902344 L 12.433594 11.941406 Z M 12.5 12.003906 "/>
<path style="fill-rule:evenodd;fill:rgb(50.196081%,50.196081%,50.196081%);fill-opacity:1;stroke-width:4.1;stroke-linecap:butt;stroke-linejoin:miter;stroke:rgb(0%,0%,0%);stroke-opacity:1;stroke-miterlimit:4;" d="M 478.298914 60.190758 L 478.430493 149.098651 L 496.297034 237.592071 L 513.19553 148.763125 L 513.778237 60.355232 Z M 478.298914 60.190758 " transform="matrix(-0.00273438,-0.00277083,-0.00390625,0.00395833,10.351562,17.005)"/>
<path style="fill-rule:evenodd;fill:rgb(50.196081%,50.196081%,50.196081%);fill-opacity:1;stroke-width:4.1;stroke-linecap:butt;stroke-linejoin:miter;stroke:rgb(0%,0%,0%);stroke-opacity:1;stroke-miterlimit:4;" d="M 478.148538 60.296082 L 478.280117 149.203976 L 496.146658 237.697395 L 513.750041 148.375028 L 513.627861 60.460556 Z M 478.148538 60.296082 " transform="matrix(-0.00273438,-0.00277083,-0.00390625,0.00395833,9.398438,15.457292)"/>
<path style="fill-rule:evenodd;fill:rgb(100%,87.450981%,0%);fill-opacity:1;stroke-width:1.25;stroke-linecap:butt;stroke-linejoin:miter;stroke:rgb(0%,0%,0%);stroke-opacity:1;stroke-miterlimit:4;" d="M 301.111116 272.765219 C 301.111116 272.765219 283.55556 609.370901 354.222228 609.370901 C 425.111119 609.370901 460.666675 574.060456 460.666675 574.060456 L 459.777787 389.027557 Z M 301.111116 272.765219 " transform="matrix(0.0175781,0,0,0.0253333,2.828125,-2.367083)"/>
<path style="fill-rule:evenodd;fill:rgb(0%,0%,76.862746%);fill-opacity:1;stroke-width:1.25;stroke-linecap:butt;stroke-linejoin:miter;stroke:rgb(0%,0%,0%);stroke-opacity:1;stroke-miterlimit:4;" d="M 344.44445 304.220812 C 344.44445 321.953131 336.666672 574.060456 372.000006 574.060456 C 407.333341 574.060456 460.666675 556.328136 460.666675 556.328136 L 459.777787 389.027557 Z M 344.44445 304.220812 " transform="matrix(0.0175781,0,0,0.0253333,2.828125,-2.367083)"/>
<path style="fill-rule:evenodd;fill:rgb(88.235295%,0%,0%);fill-opacity:1;stroke-width:1.25;stroke-linecap:butt;stroke-linejoin:miter;stroke:rgb(0%,0%,0%);stroke-opacity:1;stroke-miterlimit:4;" d="M 367.555562 321.182161 C 367.555562 338.91448 372.000006 538.595817 407.555563 538.595817 L 460.666675 538.595817 L 459.777787 389.027557 Z M 367.555562 321.182161 " transform="matrix(0.0175781,0,0,0.0253333,2.828125,-2.367083)"/>
<path style=" stroke:none;fill-rule:evenodd;fill:rgb(0%,0%,0%);fill-opacity:1;" d="M 8.054688 4.589844 L 10.882812 7.621094 L 10.933594 7.554688 L 8.105469 4.527344 Z M 8.054688 4.589844 "/>
<path style="fill-rule:evenodd;fill:rgb(100%,87.450981%,0%);fill-opacity:1;stroke-width:1.25;stroke-linecap:butt;stroke-linejoin:miter;stroke:rgb(0%,0%,0%);stroke-opacity:1;stroke-miterlimit:4;" d="M 301.206905 272.87139 C 301.206905 272.87139 265.862076 609.352711 372.068976 609.352711 C 460.517254 609.352711 460.517254 556.349741 478.275875 556.349741 L 460.517254 432.357806 Z M 301.206905 272.87139 " transform="matrix(0.0226562,0,0,0.0245417,0.375,-0.40375)"/>
<path style="fill:none;stroke-width:2.3;stroke-linecap:butt;stroke-linejoin:miter;stroke:rgb(0%,0%,0%);stroke-opacity:1;stroke-miterlimit:4;" d="M 269.645623 155.165133 C 270.656453 155.251776 297.894719 61.157911 388.502736 8.022056 " transform="matrix(0.015625,-0.0011875,-0.00195313,0.0138542,5.277344,5.834583)"/>
<path style="fill-rule:evenodd;fill:rgb(0%,35.686275%,0%);fill-opacity:1;stroke-width:1.25;stroke-linecap:butt;stroke-linejoin:miter;stroke:rgb(0%,0%,0%);stroke-opacity:1;stroke-miterlimit:4;" d="M 421.417846 -20.328308 C 421.257368 -2.253419 416.951847 11.422491 409.916984 25.038759 C 404.272924 7.005988 401.114414 -2.186707 400.765485 -20.357206 C 400.925962 -38.432095 407.708734 -55.264054 413.378926 -68.910143 C 415.770712 -56.692977 421.414772 -38.660206 421.417846 -20.328308 Z M 421.417846 -20.328308 " transform="matrix(0.00546875,-0.00870833,0.0117188,0.00554167,6.871094,10.18875)"/>
<path style="fill-rule:evenodd;fill:rgb(100%,0%,0%);fill-opacity:1;stroke-width:1.25;stroke-linecap:butt;stroke-linejoin:miter;stroke:rgb(0%,0%,0%);stroke-opacity:1;stroke-miterlimit:4;" d="M 454.169681 -169.505517 C 454.143106 -165.457682 450.456303 -161.821436 445.472507 -161.850604 C 441.150496 -162.070982 437.206368 -164.971552 437.232943 -169.019388 C 437.502583 -173.504739 440.946321 -176.703468 445.930117 -176.674301 C 450.252129 -176.453922 454.196256 -173.553352 454.169681 -169.505517 Z M 454.169681 -169.505517 " transform="matrix(0.00703125,-0.00395833,0.00390625,0.00672917,6.9375,10.161042)"/>
<path style="fill-rule:evenodd;fill:rgb(0%,35.686275%,0%);fill-opacity:1;stroke-width:1.25;stroke-linecap:butt;stroke-linejoin:miter;stroke:rgb(0%,0%,0%);stroke-opacity:1;stroke-miterlimit:4;" d="M 421.372443 -20.407364 C 421.246653 -2.119996 416.648758 11.513688 410.217705 24.916845 C 404.477179 6.968424 401.130338 -2.281049 400.98718 -20.171575 C 401.112971 -38.458943 407.691392 -55.504206 413.511393 -68.984205 C 415.757708 -56.643153 421.669286 -38.45789 421.372443 -20.407364 Z M 421.372443 -20.407364 " transform="matrix(0.00703125,0.00475,-0.00507812,0.0130625,7.070312,3.815833)"/>
<path style="fill-rule:evenodd;fill:rgb(0%,35.686275%,0%);fill-opacity:1;stroke-width:1.25;stroke-linecap:butt;stroke-linejoin:miter;stroke:rgb(0%,0%,0%);stroke-opacity:1;stroke-miterlimit:4;" d="M 421.105525 -20.401899 C 421.38799 -2.134595 416.734815 11.497413 410.288162 24.966377 C 404.134701 6.763431 400.785874 -2.213256 401.101234 -20.426213 C 400.872402 -38.389599 407.871115 -55.396892 413.122116 -68.974552 C 415.918883 -56.459535 421.420885 -38.614856 421.105525 -20.401899 Z M 421.105525 -20.401899 " transform="matrix(0.00664063,-0.0011875,-0.00117187,0.0130625,7.003906,6.305625)"/>
<path style="fill-rule:evenodd;fill:rgb(0%,35.686275%,0%);fill-opacity:1;stroke-width:1.25;stroke-linecap:butt;stroke-linejoin:miter;stroke:rgb(0%,0%,0%);stroke-opacity:1;stroke-miterlimit:4;" d="M 421.12627 -20.190731 C 421.506521 -2.409467 416.890393 11.255429 409.693387 25.185898 C 404.577501 6.909703 400.729118 -2.095608 401.023662 -20.226946 C 401.010384 -38.466926 407.887496 -55.451475 413.427091 -68.790441 C 415.689283 -56.81555 421.420813 -38.322069 421.12627 -20.190731 Z M 421.12627 -20.190731 " transform="matrix(0.00234375,0.00989583,-0.00664063,0.00791667,8.90625,1.801042)"/>
<path style="fill-rule:evenodd;fill:rgb(0%,35.686275%,0%);fill-opacity:1;stroke-width:1.25;stroke-linecap:butt;stroke-linejoin:miter;stroke:rgb(0%,0%,0%);stroke-opacity:1;stroke-miterlimit:4;" d="M 421.284077 -20.284098 C 421.233837 -2.233859 416.723071 11.276907 409.999985 24.999993 C 404.583119 6.916859 401.129172 -2.129194 400.906685 -20.406706 C 400.956924 -38.456945 407.837905 -55.337926 413.34269 -68.842711 C 415.644723 -56.644744 421.558599 -38.55862 421.284077 -20.284098 Z M 421.284077 -20.284098 " transform="matrix(0.0078125,-0.00791667,0.0078125,0.0095,5.871094,9.539583)"/>
<path style="fill-rule:evenodd;fill:rgb(0%,35.686275%,0%);fill-opacity:1;stroke-width:1.25;stroke-linecap:butt;stroke-linejoin:miter;stroke:rgb(0%,0%,0%);stroke-opacity:1;stroke-miterlimit:4;" d="M 421.341047 -20.380144 C 421.413482 -2.043887 416.59025 11.400558 410.164147 25.055528 C 404.427836 6.903482 401.108458 -2.175466 400.786821 -20.292425 C 400.916406 -38.40646 407.921988 -55.371372 413.445645 -69.03219 C 415.734322 -56.646226 421.470632 -38.494179 421.341047 -20.380144 Z M 421.341047 -20.380144 " transform="matrix(0.00859375,-0.00870833,0.00976562,0.00791667,5.296875,11.166459)"/>
<path style="fill-rule:evenodd;fill:rgb(0%,35.686275%,0%);fill-opacity:1;stroke-width:1.25;stroke-linecap:butt;stroke-linejoin:miter;stroke:rgb(0%,0%,0%);stroke-opacity:1;stroke-miterlimit:4;" d="M 421.347416 -20.248363 C 421.468286 -2.091233 416.833953 11.384134 409.956658 24.943651 C 404.538461 6.899995 401.017959 -2.176657 400.89709 -20.333787 C 400.967469 -38.242294 407.720324 -55.463582 413.476138 -68.981024 C 415.617101 -56.697772 421.536625 -38.502392 421.347416 -20.248363 Z M 421.347416 -20.248363 " transform="matrix(0.0101562,0.00395833,-0.0078125,0.0126667,5.109375,5.846458)"/>
<path style="fill-rule:evenodd;fill:rgb(0%,35.686275%,0%);fill-opacity:1;stroke-width:1.25;stroke-linecap:butt;stroke-linejoin:miter;stroke:rgb(0%,0%,0%);stroke-opacity:1;stroke-miterlimit:4;" d="M 421.531179 -20.219752 C 421.398786 -2.156811 416.895259 11.357161 409.856735 24.932853 C 404.593578 6.840747 401.246861 -2.228027 400.826893 -20.237387 C 400.959287 -38.300328 407.888207 -55.364897 413.496454 -68.986031 C 415.749303 -56.680008 421.338016 -38.435298 421.531179 -20.219752 Z M 421.531179 -20.219752 " transform="matrix(0.00585938,0.00791667,-0.0125,0.00870833,6.972656,4.088958)"/>
<path style="fill-rule:evenodd;fill:rgb(0%,35.686275%,0%);fill-opacity:1;stroke-width:1.25;stroke-linecap:butt;stroke-linejoin:miter;stroke:rgb(0%,0%,0%);stroke-opacity:1;stroke-miterlimit:4;" d="M 421.78518 -20.408496 C 421.212714 -2.164191 416.760633 11.720334 410.164993 25.094254 C 404.659297 6.948143 400.83467 -2.380216 400.810121 -20.251386 C 401.382587 -38.495691 407.870215 -55.502761 413.353325 -68.798127 C 415.739421 -56.720358 421.245117 -38.574246 421.78518 -20.408496 Z M 421.78518 -20.408496 " transform="matrix(0.003125,0.00395833,-0.00546875,0.00633333,9.792969,4.06125)"/>
<path style="fill-rule:evenodd;fill:rgb(0%,35.686275%,0%);fill-opacity:1;stroke-width:1.25;stroke-linecap:butt;stroke-linejoin:miter;stroke:rgb(0%,0%,0%);stroke-opacity:1;stroke-miterlimit:4;" d="M 421.659466 -20.42566 C 421.05575 -2.430305 417.201261 11.501584 409.882375 24.852977 C 404.486091 6.857621 401.05575 -2.430305 400.659466 -20.42566 C 401.263182 -38.421016 407.79569 -55.255381 413.650179 -69.18727 C 415.866897 -56.416372 421.263181 -38.421016 421.659466 -20.42566 Z M 421.659466 -20.42566 " transform="matrix(0.00390625,0,-0.003125,0.00672917,9.296875,5.399166)"/>
<path style="fill-rule:evenodd;fill:rgb(0%,35.686275%,0%);fill-opacity:1;stroke-width:1.25;stroke-linecap:butt;stroke-linejoin:miter;stroke:rgb(0%,0%,0%);stroke-opacity:1;stroke-miterlimit:4;" d="M 421.099658 -20.000044 C 421.468885 -2.142901 416.533332 11.428528 410.188004 24.999956 C 404.17968 7.142814 401.027155 -2.142901 400.657929 -20.000044 C 401.401752 -38.571472 407.673234 -55.714329 413.313674 -69.285758 C 415.835157 -56.428615 421.138594 -38.571472 421.099658 -20.000044 Z M 421.099658 -20.000044 " transform="matrix(0,0.00554167,-0.00546875,0.00316667,11.226562,3.210208)"/>
<path style="fill-rule:evenodd;fill:rgb(0%,35.686275%,0%);fill-opacity:1;stroke-width:1.25;stroke-linecap:butt;stroke-linejoin:miter;stroke:rgb(0%,0%,0%);stroke-opacity:1;stroke-miterlimit:4;" d="M 421.808767 -20.293557 C 421.136045 -2.081919 416.62159 11.454033 409.872145 25.164189 C 404.68497 6.91178 400.626409 -2.224617 400.876595 -20.154565 C 400.854357 -38.560792 407.509287 -55.497411 413.141237 -69.120465 C 415.754284 -56.388812 421.363994 -38.418093 421.808767 -20.293557 Z M 421.808767 -20.293557 " transform="matrix(0.00273438,0.00395833,-0.00976562,0.0059375,8.621094,4.575833)"/>
<path style="fill-rule:evenodd;fill:rgb(0%,35.686275%,0%);fill-opacity:1;stroke-width:1.25;stroke-linecap:butt;stroke-linejoin:miter;stroke:rgb(0%,0%,0%);stroke-opacity:1;stroke-miterlimit:4;" d="M 421.555338 -20.296387 C 421.275099 -2.224967 416.875345 11.496341 409.88538 25.106355 C 404.452077 6.905357 401.138582 -2.278746 400.885699 -20.257154 C 400.835656 -38.458685 407.744885 -55.433837 413.338325 -68.987936 C 415.53887 -56.605904 421.505295 -38.497919 421.555338 -20.296387 Z M 421.555338 -20.296387 " transform="matrix(0.00507812,0.00870833,-0.0128906,0.00791667,8.085938,2.774792)"/>
<path style="fill:none;stroke-width:2.4;stroke-linecap:butt;stroke-linejoin:miter;stroke:rgb(0%,0%,0%);stroke-opacity:1;stroke-miterlimit:4;" d="M 269.663742 155.126348 C 270.771929 155.213023 297.856725 61.072465 388.479533 8.086877 " transform="matrix(0.0136719,-0.00791667,0.00546875,0.0110833,4.367188,9.017083)"/>
<path style="fill-rule:evenodd;fill:rgb(100%,0%,0%);fill-opacity:1;stroke-width:1.25;stroke-linecap:butt;stroke-linejoin:miter;stroke:rgb(0%,0%,0%);stroke-opacity:1;stroke-miterlimit:4;" d="M 454.101621 -169.382978 C 454.075046 -165.335143 450.388243 -161.698897 445.647512 -162.165581 C 441.082435 -161.948443 437.381372 -165.28653 437.407947 -169.334365 C 437.434522 -173.3822 440.878261 -176.580929 445.862057 -176.551762 C 450.427133 -176.768899 454.128196 -173.430813 454.101621 -169.382978 Z M 454.101621 -169.382978 " transform="matrix(0.00703125,-0.00395833,0.00390625,0.00672917,7.824219,8.890417)"/>
<path style="fill-rule:evenodd;fill:rgb(100%,0%,0%);fill-opacity:1;stroke-width:1.25;stroke-linecap:butt;stroke-linejoin:miter;stroke:rgb(0%,0%,0%);stroke-opacity:1;stroke-miterlimit:4;" d="M 454.140491 -169.452974 C 454.113916 -165.405139 450.427113 -161.768893 445.443317 -161.798061 C 441.121305 -162.01844 437.420242 -165.356526 437.446817 -169.404361 C 437.473393 -173.452196 440.917131 -176.650926 445.900927 -176.621758 C 450.466003 -176.838896 454.167066 -173.500809 454.140491 -169.452974 Z M 454.140491 -169.452974 " transform="matrix(0.00703125,-0.00395833,0.00390625,0.00672917,8.246094,8.641042)"/>
<path style="fill-rule:evenodd;fill:rgb(100%,0%,0%);fill-opacity:1;stroke-width:1.25;stroke-linecap:butt;stroke-linejoin:miter;stroke:rgb(0%,0%,0%);stroke-opacity:1;stroke-miterlimit:4;" d="M 454.190168 -169.114828 C 454.325335 -165.215306 450.287058 -162.248799 445.694953 -161.985641 C 441.102848 -161.722483 437.372784 -165.350873 437.237616 -169.250394 C 437.102449 -173.149916 440.746787 -176.419453 445.732832 -176.379581 C 450.324937 -176.642739 454.264331 -173.612436 454.190168 -169.114828 Z M 454.190168 -169.114828 " transform="matrix(0.0078125,-0.00395833,0.00273438,0.00514583,6.515625,9.211042)"/>
<path style="fill-rule:evenodd;fill:rgb(100%,0%,0%);fill-opacity:1;stroke-width:1.25;stroke-linecap:butt;stroke-linejoin:miter;stroke:rgb(0%,0%,0%);stroke-opacity:1;stroke-miterlimit:4;" d="M 454.151118 -169.003213 C 454.286285 -165.103691 450.248008 -162.137184 445.655903 -161.874026 C 441.063798 -161.610868 437.333734 -165.239258 437.198566 -169.138779 C 437.272729 -173.636387 440.917067 -176.905925 445.693782 -176.267966 C 450.285887 -176.531124 454.225281 -173.500821 454.151118 -169.003213 Z M 454.151118 -169.003213 " transform="matrix(0.0078125,-0.00395833,0.00273438,0.00514583,6.640625,9.155625)"/>
<path style="fill-rule:evenodd;fill:rgb(100%,0%,0%);fill-opacity:1;stroke-width:1.25;stroke-linecap:butt;stroke-linejoin:miter;stroke:rgb(0%,0%,0%);stroke-opacity:1;stroke-miterlimit:4;" d="M 454.234826 -169.242466 C 454.369993 -165.342944 450.122386 -161.778351 445.739611 -162.113279 C 441.147506 -161.850121 437.208112 -164.880424 437.282274 -169.378032 C 437.147107 -173.277554 440.791445 -176.547091 445.77749 -176.507219 C 450.369595 -176.770377 454.099659 -173.141988 454.234826 -169.242466 Z M 454.234826 -169.242466 " transform="matrix(0.0078125,-0.00395833,0.00273438,0.00514583,6.566406,9.274375)"/>
<path style="fill-rule:evenodd;fill:rgb(100%,0%,0%);fill-opacity:1;stroke-width:0.3;stroke-linecap:butt;stroke-linejoin:miter;stroke:rgb(0%,0%,0%);stroke-opacity:1;stroke-miterlimit:4;" d="M 252.7 167.269737 C 253 168.256579 252.7 169.046053 251.7 169.638158 C 250.2 170.526316 249.7 169.835526 249.3 168.947368 C 248.9 167.960526 249.3 167.072368 250.3 166.578947 C 251.3 166.085526 252.3 166.381579 252.6 167.269737 Z M 252.7 167.269737 " transform="matrix(0.0390625,0,0,0.0395833,0,0)"/>
<path style="fill-rule:evenodd;fill:rgb(100%,0%,0%);fill-opacity:1;stroke-width:0.3;stroke-linecap:butt;stroke-linejoin:miter;stroke:rgb(0%,0%,0%);stroke-opacity:1;stroke-miterlimit:4;" d="M 255 164.901316 C 255.3 165.789474 255 166.578947 254 167.171053 C 252.5 168.059211 252 167.368421 251.5 166.578947 C 251 165.789474 251.5 164.703947 252.5 164.210526 C 253.5 163.717105 254.5 164.111842 254.9 164.901316 Z M 255 164.901316 " transform="matrix(0.0390625,0,0,0.0395833,0,0)"/>
<path style="fill-rule:evenodd;fill:rgb(100%,0%,0%);fill-opacity:1;stroke-width:0.3;stroke-linecap:butt;stroke-linejoin:miter;stroke:rgb(0%,0%,0%);stroke-opacity:1;stroke-miterlimit:4;" d="M 255.5 165.986842 C 255.9 166.776316 255.5 167.861842 254.5 168.256579 C 253.5 168.651316 252.5 168.453947 252.1 167.664474 C 251.7 166.875 252.1 165.888158 253.1 165.394737 C 254.1 164.901316 255.1 165.197368 255.5 165.986842 Z M 255.5 165.986842 " transform="matrix(0.0390625,0,0,0.0395833,0,0)"/>
<path style="fill-rule:evenodd;fill:rgb(0%,0%,76.862746%);fill-opacity:1;stroke-width:1.25;stroke-linecap:butt;stroke-linejoin:miter;stroke:rgb(0%,0%,0%);stroke-opacity:1;stroke-miterlimit:4;" d="M 336.551733 308.365872 C 336.551733 326.033529 301.206905 520.855259 389.827597 574.017398 C 425.172425 591.685055 478.275875 556.349741 478.275875 574.017398 L 460.517254 432.357806 Z M 336.551733 308.365872 " transform="matrix(0.0226562,0,0,0.0245417,0.375,-0.40375)"/>
<path style="fill-rule:evenodd;fill:rgb(88.235295%,0%,0%);fill-opacity:1;stroke-width:1.25;stroke-linecap:butt;stroke-linejoin:miter;stroke:rgb(0%,0%,0%);stroke-opacity:1;stroke-miterlimit:4;" d="M 372.068976 343.701186 C 372.068976 361.368842 354.310354 503.028434 407.413804 538.522916 C 442.931047 574.017398 531.551739 564.467313 531.551739 564.467313 L 460.517254 432.357806 Z M 372.068976 343.701186 " transform="matrix(0.0226562,0,0,0.0245417,0.375,-0.40375)"/>
<path style=" stroke:none;fill-rule:evenodd;fill:rgb(0%,0%,0%);fill-opacity:1;" d="M 7.179688 6.253906 L 10.882812 10.210938 L 10.949219 10.148438 L 7.246094 6.195312 Z M 7.179688 6.253906 "/>
<path style="fill-rule:evenodd;fill:rgb(80.784315%,80.784315%,80.000001%);fill-opacity:1;stroke-width:1.25;stroke-linecap:butt;stroke-linejoin:miter;stroke:rgb(0%,0%,0%);stroke-opacity:1;stroke-miterlimit:4;" d="M 460.530991 184.256576 L 478.082683 219.684207 L 478.167269 237.565786 C 477.805427 236.072365 478.251856 255.447365 460.512194 255.282891 C 442.772533 255.118417 442.960503 219.85526 442.960503 219.85526 C 442.960503 219.85526 425.390014 255.453944 425.202044 290.717101 C 425.371217 326.480258 443.190766 343.53289 443.190766 343.53289 C 443.190766 343.53289 440.535691 307.249995 460.761254 307.934206 C 480.991518 309.611837 478.585502 325.980258 478.585502 325.980258 L 478.397533 361.243416 L 496.137194 361.407889 L 496.174788 219.35526 L 514.10242 184.256576 L 486.531931 130.855261 Z M 460.530991 184.256576 " transform="matrix(0.00546875,-0.00554167,0.00390625,0.00395833,3.371094,7.607917)"/>
<path style="fill-rule:evenodd;fill:rgb(80.784315%,80.784315%,80.000001%);fill-opacity:1;stroke-width:1.25;stroke-linecap:butt;stroke-linejoin:miter;stroke:rgb(0%,0%,0%);stroke-opacity:1;stroke-miterlimit:4;" d="M 557.911813 95.77727 L 531.831566 166.548875 L 549.139884 219.900076 L 513.991248 202.149102 L 548.912463 255.062519 L 548.993685 290.718789 L 566.915225 290.774832 L 566.834004 255.118562 L 602.555251 201.746242 L 566.752782 219.462292 L 584.861131 166.527756 Z M 557.911813 95.77727 " transform="matrix(0.00390625,-0.00633333,0.00546875,0.00395833,4.453125,7.275417)"/>
<path style="fill-rule:evenodd;fill:rgb(88.235295%,0%,0%);fill-opacity:1;stroke-width:1.25;stroke-linecap:butt;stroke-linejoin:miter;stroke:rgb(0%,0%,0%);stroke-opacity:1;stroke-miterlimit:4;" d="M 422.499996 137.07016 C 422.499996 139.043844 420.499996 140.688581 418.249996 140.688581 C 415.999996 140.688581 413.749996 139.043844 413.749996 137.07016 C 413.749996 135.096476 415.749996 133.122792 418.249996 133.122792 C 420.499996 133.122792 422.499996 134.767528 422.499996 137.07016 Z M 416.249996 144.964896 C 416.249996 180.820158 437.249995 332.793836 438.999995 336.412257 C 438.999995 341.01752 433.999995 342.662257 431.749995 337.399099 C 425.249996 319.964889 410.999996 177.201737 410.499996 143.978054 C 410.249996 130.162265 414.249996 129.175423 418.749996 129.504371 C 422.499996 129.833318 426.999996 133.122792 426.999996 137.399107 C 426.999996 142.333318 421.249996 145.951738 416.249996 144.964896 Z M 416.249996 144.964896 " transform="matrix(0.015625,0,0,0.011875,1.710937,2.762917)"/>
<path style="fill-rule:evenodd;fill:rgb(0%,0%,76.862746%);fill-opacity:1;stroke-width:1.25;stroke-linecap:butt;stroke-linejoin:miter;stroke:rgb(0%,0%,0%);stroke-opacity:1;stroke-miterlimit:4;" d="M 422.533663 137.08526 C 422.524483 139.062004 420.543149 140.709291 418.220627 140.82557 C 415.783357 140.651152 413.817322 139.003865 413.826502 137.027121 C 413.835682 135.050377 415.702267 133.112392 418.139538 133.286811 C 420.462059 133.170532 422.428094 134.817818 422.533663 137.08526 Z M 416.344862 144.740299 C 447.753981 206.310063 465.143822 311.697656 466.63556 315.476726 C 466.73195 319.720912 461.962978 321.639516 459.550187 316.19378 C 457.242965 313.015485 446.895658 216.135644 410.543149 144.042624 C 410.142292 130.360454 414.210529 129.333323 418.737763 129.468981 C 422.567323 129.837198 427.079256 133.267431 427.175646 137.511617 C 427.036417 142.492237 421.331092 146.038748 416.344862 144.740299 Z M 416.344862 144.740299 " transform="matrix(0.0148437,0.00395833,-0.00585938,0.011875,2.96875,1.512083)"/>
<path style="fill-rule:evenodd;fill:rgb(88.235295%,0%,0%);fill-opacity:1;stroke-width:0.7;stroke-linecap:butt;stroke-linejoin:miter;stroke:rgb(0%,0%,0%);stroke-opacity:1;stroke-miterlimit:4;" d="M 186.7 151.480263 C 186.7 152.467105 185.7 153.453947 184.5 153.453947 C 183.3 153.453947 182.3 152.467105 182.3 151.480263 C 182.3 150.493421 183.3 149.703947 184.5 149.703947 C 185.8 149.802632 186.5 150.394737 186.6 151.480263 Z M 183.5 155.526316 C 183.5 173.388158 194 249.375 194.8 251.348684 C 194.8 253.519737 192.5 254.506579 191.3 251.743421 C 188 242.960526 180.9 171.710526 180.6 155.131579 C 180.5 148.223684 182.5 147.730263 184.8 147.828947 C 186.7 147.927632 188.9 149.703947 188.9 151.776316 C 188.9 154.243421 186 156.118421 183.5 155.526316 Z M 183.5 155.526316 " transform="matrix(0.0390625,0,0,0.0395833,0,0)"/>
<path style="fill-rule:evenodd;fill:rgb(0%,0%,76.862746%);fill-opacity:1;stroke-width:1.25;stroke-linecap:butt;stroke-linejoin:miter;stroke:rgb(0%,0%,0%);stroke-opacity:1;stroke-miterlimit:4;" d="M 422.51658 137.039772 C 422.537196 139.08925 420.519855 140.74763 418.189028 140.653645 C 415.933995 140.741567 413.73414 138.961916 413.789318 137.094344 C 413.768702 135.044865 415.71025 133.204579 418.225409 133.24096 C 420.480441 133.153039 422.495964 134.990293 422.51658 137.039772 Z M 416.235353 144.964827 C 447.805813 206.233927 465.064485 311.654739 466.656166 315.474773 C 466.773193 319.755637 462.023617 321.856655 459.673993 316.217558 C 457.052116 312.925052 446.868389 215.984109 410.4574 144.09774 C 410.096012 130.23041 414.227106 129.145035 418.780223 129.572515 C 422.552961 129.627087 427.137002 133.128785 427.069697 137.467252 C 427.045443 142.409042 421.275979 146.062328 416.235353 144.964827 Z M 416.235353 144.964827 " transform="matrix(0.01875,0.0059375,-0.0078125,0.019,0.652344,1.250833)"/>
<path style=" stroke:none;fill-rule:evenodd;fill:rgb(0%,0%,0%);fill-opacity:1;" d="M 14.46875 11.511719 L 17.300781 14.539062 L 17.351562 14.476562 L 14.519531 11.449219 Z M 12.5 12.003906 L 16.203125 15.964844 L 16.265625 15.902344 L 12.566406 11.941406 Z M 12.5 12.003906 "/>
<path style="fill-rule:evenodd;fill:rgb(50.196081%,50.196081%,50.196081%);fill-opacity:1;stroke-width:4.1;stroke-linecap:butt;stroke-linejoin:miter;stroke:rgb(0%,0%,0%);stroke-opacity:1;stroke-miterlimit:4;" d="M 478.298914 60.190758 L 478.430493 149.098651 L 496.297034 237.592071 L 513.19553 148.763125 L 513.778237 60.355232 Z M 478.298914 60.190758 " transform="matrix(0.00273438,-0.00277083,0.00390625,0.00395833,14.648438,17.005)"/>
<path style="fill-rule:evenodd;fill:rgb(50.196081%,50.196081%,50.196081%);fill-opacity:1;stroke-width:4.1;stroke-linecap:butt;stroke-linejoin:miter;stroke:rgb(0%,0%,0%);stroke-opacity:1;stroke-miterlimit:4;" d="M 478.148538 60.296082 L 478.280117 149.203976 L 496.146658 237.697395 L 513.750041 148.375028 L 513.627861 60.460556 Z M 478.148538 60.296082 " transform="matrix(0.00273438,-0.00277083,0.00390625,0.00395833,15.601562,15.457292)"/>
<path style="fill-rule:evenodd;fill:rgb(100%,87.450981%,0%);fill-opacity:1;stroke-width:1.25;stroke-linecap:butt;stroke-linejoin:miter;stroke:rgb(0%,0%,0%);stroke-opacity:1;stroke-miterlimit:4;" d="M 301.111065 272.765219 C 301.111065 272.765219 283.555509 609.370901 354.222177 609.370901 C 425.111068 609.370901 460.666625 574.060456 460.666625 574.060456 L 459.777736 389.027557 Z M 301.111065 272.765219 " transform="matrix(-0.0175781,0,0,0.0253333,22.171874,-2.367083)"/>
<path style="fill-rule:evenodd;fill:rgb(0%,0%,76.862746%);fill-opacity:1;stroke-width:1.25;stroke-linecap:butt;stroke-linejoin:miter;stroke:rgb(0%,0%,0%);stroke-opacity:1;stroke-miterlimit:4;" d="M 344.444399 304.220812 C 344.444399 321.953131 336.666621 574.060456 371.999956 574.060456 C 407.33329 574.060456 460.666625 556.328136 460.666625 556.328136 L 459.777736 389.027557 Z M 344.444399 304.220812 " transform="matrix(-0.0175781,0,0,0.0253333,22.171874,-2.367083)"/>
<path style="fill-rule:evenodd;fill:rgb(88.235295%,0%,0%);fill-opacity:1;stroke-width:1.25;stroke-linecap:butt;stroke-linejoin:miter;stroke:rgb(0%,0%,0%);stroke-opacity:1;stroke-miterlimit:4;" d="M 367.555511 321.182161 C 367.555511 338.91448 371.999956 538.595817 407.555512 538.595817 L 460.666625 538.595817 L 459.777736 389.027557 Z M 367.555511 321.182161 " transform="matrix(-0.0175781,0,0,0.0253333,22.171874,-2.367083)"/>
<path style=" stroke:none;fill-rule:evenodd;fill:rgb(0%,0%,0%);fill-opacity:1;" d="M 16.945312 4.589844 L 14.117188 7.621094 L 14.066406 7.554688 L 16.894531 4.527344 Z M 16.945312 4.589844 "/>
<path style="fill-rule:evenodd;fill:rgb(0%,35.686275%,0%);fill-opacity:1;stroke-width:1.25;stroke-linecap:butt;stroke-linejoin:miter;stroke:rgb(0%,0%,0%);stroke-opacity:1;stroke-miterlimit:4;" d="M 428.485996 -16.971974 C 428.485996 -16.971974 509.424139 73.651747 538.96105 137.077927 C 568.497961 200.504107 593.28436 293.431314 593.28436 293.431314 C 593.28436 293.431314 595.698064 207.353903 557.339383 130.321263 C 505.463954 32.822115 425.610911 -12.471803 428.485996 -16.971974 Z M 428.485996 -16.971974 " transform="matrix(0.00625,-0.00277083,0.003125,0.0138542,12.089844,8.352083)"/>
<path style="fill-rule:evenodd;fill:rgb(0%,35.686275%,0%);fill-opacity:1;stroke-width:1.25;stroke-linecap:butt;stroke-linejoin:miter;stroke:rgb(0%,0%,0%);stroke-opacity:1;stroke-miterlimit:4;" d="M 428.479671 -17.084792 C 428.479671 -17.084792 509.690669 73.740923 539.011501 137.109974 C 568.811375 200.538905 593.787738 293.46358 593.787738 293.46358 C 593.787738 293.46358 595.916637 207.38101 557.319096 130.516845 C 505.054678 32.700899 425.867002 -12.477165 428.479671 -17.084792 Z M 428.479671 -17.084792 " transform="matrix(0.0078125,-0.00197917,0.00273438,0.0158333,11.386719,7.227917)"/>
<path style="fill-rule:evenodd;fill:rgb(0%,35.686275%,0%);fill-opacity:1;stroke-width:1.25;stroke-linecap:butt;stroke-linejoin:miter;stroke:rgb(0%,0%,0%);stroke-opacity:1;stroke-miterlimit:4;" d="M 428.222172 -16.963291 C 428.222172 -16.963291 509.614417 73.710606 539.190273 137.125503 C 568.766128 200.5404 593.503517 293.52705 593.503517 293.52705 C 593.503517 293.52705 595.745283 207.380591 557.423941 130.250298 C 505.15277 32.837973 425.773189 -12.405489 428.222172 -16.963291 Z M 428.222172 -16.963291 " transform="matrix(0.00898438,0.00554167,-0.00117187,0.0158333,11.582031,2.747083)"/>
<path style="fill-rule:evenodd;fill:rgb(0%,35.686275%,0%);fill-opacity:1;stroke-width:1.25;stroke-linecap:butt;stroke-linejoin:miter;stroke:rgb(0%,0%,0%);stroke-opacity:1;stroke-miterlimit:4;" d="M 428.154552 -16.93159 C 428.154552 -16.93159 509.701987 73.725464 539.022684 137.216756 C 568.745575 200.680627 593.728015 293.400126 593.728015 293.400126 C 593.728015 293.400126 595.811388 207.357958 557.170235 130.372366 C 505.379847 32.752212 425.800804 -12.509743 428.154552 -16.93159 Z M 428.154552 -16.93159 " transform="matrix(0.00976562,0.0011875,0.00078125,0.0174167,10.71875,4.552083)"/>
<path style="fill-rule:evenodd;fill:rgb(0%,35.686275%,0%);fill-opacity:1;stroke-width:1.25;stroke-linecap:butt;stroke-linejoin:miter;stroke:rgb(0%,0%,0%);stroke-opacity:1;stroke-miterlimit:4;" d="M 428.404448 -17.179907 C 428.404448 -17.179907 509.689319 73.602029 539.337938 137.020821 C 568.485124 200.683166 593.534136 293.403723 593.534136 293.403723 C 593.534136 293.403723 595.566257 207.548269 557.283949 130.277871 C 505.104792 32.971655 426.074483 -12.664751 428.404448 -17.179907 Z M 428.404448 -17.179907 " transform="matrix(0.00703125,0.00672917,-0.0015625,0.0138542,12.890625,2.652083)"/>
<path style="fill-rule:evenodd;fill:rgb(0%,35.686275%,0%);fill-opacity:1;stroke-width:1.25;stroke-linecap:butt;stroke-linejoin:miter;stroke:rgb(0%,0%,0%);stroke-opacity:1;stroke-miterlimit:4;" d="M 428.304741 -17.003274 C 428.304741 -17.003274 509.506112 73.786198 539.062033 137.190803 C 568.617954 200.595407 593.474934 293.358564 593.474934 293.358564 C 593.474934 293.358564 595.977793 207.503302 557.354367 130.282908 C 505.282714 32.832252 425.986377 -12.562485 428.304741 -17.003274 Z M 428.304741 -17.003274 " transform="matrix(0.00898438,0,0.00117187,0.0158333,10.960938,5.616875)"/>
<path style="fill-rule:evenodd;fill:rgb(0%,35.686275%,0%);fill-opacity:1;stroke-width:1.25;stroke-linecap:butt;stroke-linejoin:miter;stroke:rgb(0%,0%,0%);stroke-opacity:1;stroke-miterlimit:4;" d="M 428.438423 -16.96703 C 428.438423 -16.96703 509.746242 73.582057 539.000031 137.142659 C 568.808923 200.545822 593.794284 293.444788 593.794284 293.444788 C 593.794284 293.444788 595.924432 207.358651 557.361067 130.396839 C 505.046808 32.723297 425.876619 -12.50473 428.438423 -16.96703 Z M 428.438423 -16.96703 " transform="matrix(0.0078125,-0.00277083,0.00273438,0.0150417,11.332031,7.79)"/>
<path style="fill-rule:evenodd;fill:rgb(0%,35.686275%,0%);fill-opacity:1;stroke-width:1.25;stroke-linecap:butt;stroke-linejoin:miter;stroke:rgb(0%,0%,0%);stroke-opacity:1;stroke-miterlimit:4;" d="M 428.258735 -17.035208 C 428.258735 -17.035208 509.578559 73.685488 539.226605 137.093301 C 568.874651 200.501114 593.651048 293.395526 593.651048 293.395526 C 593.651048 293.395526 595.639262 207.44267 557.420825 130.31642 C 505.274394 32.90215 426.126833 -12.507601 428.258735 -17.035208 Z M 428.258735 -17.035208 " transform="matrix(0.0078125,-0.0011875,0.00195313,0.0158333,11.433594,6.6025)"/>
<path style="fill-rule:evenodd;fill:rgb(0%,35.686275%,0%);fill-opacity:1;stroke-width:1.25;stroke-linecap:butt;stroke-linejoin:miter;stroke:rgb(0%,0%,0%);stroke-opacity:1;stroke-miterlimit:4;" d="M 428.384512 -17.108159 C 428.384512 -17.108159 509.480907 73.715978 539.316109 136.990864 C 568.734187 200.430405 593.519559 293.486041 593.519559 293.486041 C 593.519559 293.486041 595.776188 207.41521 557.360768 130.387363 C 505.186609 32.821068 425.805795 -12.454511 428.384512 -17.108159 Z M 428.384512 -17.108159 " transform="matrix(0.00859375,0.0059375,-0.00195313,0.0150417,11.914062,2.592708)"/>
<path style="fill-rule:evenodd;fill:rgb(0%,35.686275%,0%);fill-opacity:1;stroke-width:1.25;stroke-linecap:butt;stroke-linejoin:miter;stroke:rgb(0%,0%,0%);stroke-opacity:1;stroke-miterlimit:4;" d="M 428.333368 -17.056417 C 428.333368 -17.056417 509.58337 73.740533 539.166704 137.214915 C 568.750038 200.689297 593.750039 293.392647 593.750039 293.392647 C 593.750039 293.392647 595.833372 207.480066 557.500038 130.421653 C 505.000037 32.769141 425.833368 -12.510963 428.333368 -17.056417 Z M 428.333368 -17.056417 " transform="matrix(0.009375,0.00197917,0,0.0174167,10.894531,3.867292)"/>
<path style="fill-rule:evenodd;fill:rgb(0%,35.686275%,0%);fill-opacity:1;stroke-width:1.25;stroke-linecap:butt;stroke-linejoin:miter;stroke:rgb(0%,0%,0%);stroke-opacity:1;stroke-miterlimit:4;" d="M 428.118595 -16.9973 C 428.118595 -16.9973 509.580846 73.812413 539.04143 137.284071 C 568.502015 200.755729 593.556788 293.410922 593.556788 293.410922 C 593.556788 293.410922 595.569173 207.446013 557.1767 130.334004 C 505.092873 32.763157 426.114547 -12.675438 428.118595 -16.9973 Z M 428.118595 -16.9973 " transform="matrix(0.00664063,0.00672917,-0.00234375,0.0130625,13.242188,2.770833)"/>
<path style="fill-rule:evenodd;fill:rgb(0%,35.686275%,0%);fill-opacity:1;stroke-width:1.25;stroke-linecap:butt;stroke-linejoin:miter;stroke:rgb(0%,0%,0%);stroke-opacity:1;stroke-miterlimit:4;" d="M 428.333368 -16.992326 C 428.333368 -16.992326 509.58337 73.682015 539.166704 137.087716 C 568.750038 200.493417 593.750039 293.486836 593.750039 293.486836 C 593.750039 293.486836 595.833372 207.280697 557.500038 130.496707 C 505.000037 32.710525 425.833368 -12.426536 428.333368 -16.992326 Z M 428.333368 -16.992326 " transform="matrix(0.009375,0.000791667,0,0.0158333,10.796875,5.066667)"/>
<path style="fill-rule:evenodd;fill:rgb(100%,87.450981%,0%);fill-opacity:1;stroke-width:1.25;stroke-linecap:butt;stroke-linejoin:miter;stroke:rgb(0%,0%,0%);stroke-opacity:1;stroke-miterlimit:4;" d="M 301.206947 272.87139 C 301.206947 272.87139 265.862119 609.352711 372.069018 609.352711 C 460.517297 609.352711 460.517297 556.349741 478.275918 556.349741 L 460.517297 432.357806 Z M 301.206947 272.87139 " transform="matrix(-0.0226562,0,0,0.0245417,24.625001,-0.40375)"/>
<path style="fill-rule:evenodd;fill:rgb(0%,0%,76.862746%);fill-opacity:1;stroke-width:1.25;stroke-linecap:butt;stroke-linejoin:miter;stroke:rgb(0%,0%,0%);stroke-opacity:1;stroke-miterlimit:4;" d="M 336.551776 308.365872 C 336.551776 326.033529 301.206947 520.855259 389.82764 574.017398 C 425.172468 591.685055 478.275918 556.349741 478.275918 574.017398 L 460.517297 432.357806 Z M 336.551776 308.365872 " transform="matrix(-0.0226562,0,0,0.0245417,24.625001,-0.40375)"/>
<path style="fill-rule:evenodd;fill:rgb(88.235295%,0%,0%);fill-opacity:1;stroke-width:1.25;stroke-linecap:butt;stroke-linejoin:miter;stroke:rgb(0%,0%,0%);stroke-opacity:1;stroke-miterlimit:4;" d="M 372.069018 343.701186 C 372.069018 361.368842 354.310397 503.028434 407.413847 538.522916 C 442.931089 574.017398 531.551782 564.467313 531.551782 564.467313 L 460.517297 432.357806 Z M 372.069018 343.701186 " transform="matrix(-0.0226562,0,0,0.0245417,24.625001,-0.40375)"/>
<path style=" stroke:none;fill-rule:evenodd;fill:rgb(0%,0%,0%);fill-opacity:1;" d="M 17.820312 6.253906 L 14.117188 10.210938 L 14.050781 10.148438 L 17.753906 6.195312 Z M 17.820312 6.253906 "/>
<path style="fill-rule:evenodd;fill:rgb(80.784315%,80.784315%,80.000001%);fill-opacity:1;stroke-width:1.25;stroke-linecap:butt;stroke-linejoin:miter;stroke:rgb(0%,0%,0%);stroke-opacity:1;stroke-miterlimit:4;" d="M 460.531046 184.256652 L 478.082737 219.684284 L 478.167324 237.565862 C 477.805482 236.072441 478.25191 255.447441 460.512249 255.282967 C 442.772587 255.118494 442.960557 219.855336 442.960557 219.855336 C 442.960557 219.855336 425.390068 255.45402 425.202099 290.717177 C 425.371271 326.480335 443.19082 343.532966 443.19082 343.532966 C 443.19082 343.532966 440.535745 307.250072 460.761309 307.934282 C 480.991572 309.611914 478.585557 325.980335 478.585557 325.980335 L 478.397587 361.243492 L 496.137249 361.407966 L 496.174843 219.355336 L 514.102474 184.256652 L 486.531986 130.855338 Z M 460.531046 184.256652 " transform="matrix(-0.00546875,-0.00554167,-0.00390625,0.00395833,21.628907,7.607917)"/>
<path style="fill-rule:evenodd;fill:rgb(80.784315%,80.784315%,80.000001%);fill-opacity:1;stroke-width:1.25;stroke-linecap:butt;stroke-linejoin:miter;stroke:rgb(0%,0%,0%);stroke-opacity:1;stroke-miterlimit:4;" d="M 557.911813 95.77727 L 531.831566 166.548875 L 549.139884 219.900076 L 513.991248 202.149102 L 548.912463 255.062519 L 548.993685 290.718789 L 566.915225 290.774832 L 566.834004 255.118562 L 602.555251 201.746242 L 566.752782 219.462292 L 584.861131 166.527756 Z M 557.911813 95.77727 " transform="matrix(-0.00390625,-0.00633333,-0.00546875,0.00395833,20.546875,7.275417)"/>
<path style="fill-rule:evenodd;fill:rgb(88.235295%,0%,0%);fill-opacity:1;stroke-width:1.25;stroke-linecap:butt;stroke-linejoin:miter;stroke:rgb(0%,0%,0%);stroke-opacity:1;stroke-miterlimit:4;" d="M 422.499963 137.07016 C 422.499963 139.043844 420.499963 140.688581 418.249963 140.688581 C 415.999963 140.688581 413.749963 139.043844 413.749963 137.07016 C 413.749963 135.096476 415.749963 133.122792 418.249963 133.122792 C 420.499963 133.122792 422.499963 134.767528 422.499963 137.07016 Z M 416.249963 144.964896 C 416.249963 180.820158 437.249963 332.793836 438.999963 336.412257 C 438.999963 341.01752 433.999963 342.662257 431.749963 337.399099 C 425.249963 319.964889 410.999963 177.201737 410.499963 143.978054 C 410.249963 130.162265 414.249963 129.175423 418.749963 129.504371 C 422.499963 129.833318 426.999963 133.122792 426.999963 137.399107 C 426.999963 142.333318 421.249963 145.951738 416.249963 144.964896 Z M 416.249963 144.964896 " transform="matrix(-0.015625,0,0,0.011875,23.292968,2.762917)"/>
<path style="fill-rule:evenodd;fill:rgb(0%,0%,76.862746%);fill-opacity:1;stroke-width:1.25;stroke-linecap:butt;stroke-linejoin:miter;stroke:rgb(0%,0%,0%);stroke-opacity:1;stroke-miterlimit:4;" d="M 422.533663 137.08526 C 422.524483 139.062004 420.543149 140.709291 418.220627 140.82557 C 415.783357 140.651152 413.817322 139.003865 413.826502 137.027121 C 413.835682 135.050377 415.702267 133.112392 418.139538 133.286811 C 420.462059 133.170532 422.428094 134.817818 422.533663 137.08526 Z M 416.344862 144.740299 C 447.753981 206.310063 465.143822 311.697656 466.63556 315.476726 C 466.73195 319.720912 461.962978 321.639516 459.550187 316.19378 C 457.242965 313.015485 446.895658 216.135644 410.543149 144.042624 C 410.142292 130.360454 414.210529 129.333323 418.737763 129.468981 C 422.567323 129.837198 427.079256 133.267431 427.175646 137.511617 C 427.036417 142.492237 421.331092 146.038748 416.344862 144.740299 Z M 416.344862 144.740299 " transform="matrix(-0.0148437,0.00395833,0.00585938,0.011875,22.03125,1.512083)"/>
<path style="fill-rule:evenodd;fill:rgb(88.235295%,0%,0%);fill-opacity:1;stroke-width:0.7;stroke-linecap:butt;stroke-linejoin:miter;stroke:rgb(0%,0%,0%);stroke-opacity:1;stroke-miterlimit:4;" d="M 453.4 151.480263 C 453.4 152.467105 454.4 153.453947 455.5 153.453947 C 456.6 153.453947 457.7 152.467105 457.7 151.480263 C 457.7 150.493421 456.7 149.703947 455.5 149.703947 C 454.2 149.802632 453.5 150.394737 453.4 151.480263 Z M 456.4 155.526316 C 454 187.598684 450.3 219.572368 445.2 251.348684 C 445.2 253.519737 447.5 254.506579 448.7 251.743421 C 452 242.960526 459.1 171.710526 459.4 155.131579 C 459.5 148.223684 457.5 147.730263 455.2 147.828947 C 453.3 147.927632 451.1 149.703947 451.1 151.776316 C 451.1 154.243421 454 156.118421 456.5 155.526316 Z M 456.4 155.526316 " transform="matrix(0.0390625,0,0,0.0395833,0,0)"/>
<path style="fill-rule:evenodd;fill:rgb(0%,0%,76.862746%);fill-opacity:1;stroke-width:1.25;stroke-linecap:butt;stroke-linejoin:miter;stroke:rgb(0%,0%,0%);stroke-opacity:1;stroke-miterlimit:4;" d="M 422.516559 137.039778 C 422.537175 139.089257 420.519834 140.747637 418.189006 140.653652 C 415.933974 140.741573 413.734119 138.961923 413.789297 137.09435 C 413.768681 135.044872 415.710229 133.204586 418.225388 133.240967 C 420.48042 133.153045 422.495943 134.9903 422.516559 137.039778 Z M 416.235332 144.964833 C 447.805792 206.233934 465.064464 311.654746 466.656145 315.47478 C 466.773172 319.755643 462.023596 321.856662 459.673972 316.217564 C 457.052095 312.925059 446.868368 215.984116 410.457379 144.097746 C 410.095991 130.230416 414.227085 129.145042 418.780202 129.572521 C 422.55294 129.627093 427.136981 133.128791 427.069676 137.467258 C 427.045422 142.409048 421.275958 146.062335 416.235332 144.964833 Z M 416.235332 144.964833 " transform="matrix(-0.01875,0.0059375,0.0078125,0.019,24.347656,1.250833)"/>
<path style="fill-rule:evenodd;fill:rgb(88.235295%,0%,0%);fill-opacity:1;stroke-width:1.25;stroke-linecap:butt;stroke-linejoin:miter;stroke:rgb(0%,0%,0%);stroke-opacity:1;stroke-miterlimit:4;" d="M 478.448289 698.009332 C 494.8276 707.559417 515.000014 707.559417 531.551739 698.009332 L 531.551739 556.349741 L 496.034496 556.349741 C 513.793118 609.352711 513.793118 662.674018 478.275875 698.009332 Z M 478.448289 698.009332 " transform="matrix(0.0226562,0,0,0.0245417,0.375,-0.40375)"/>
<path style="fill-rule:evenodd;fill:rgb(0%,0%,76.862746%);fill-opacity:1;stroke-width:1.25;stroke-linecap:butt;stroke-linejoin:miter;stroke:rgb(0%,0%,0%);stroke-opacity:1;stroke-miterlimit:4;" d="M 513.714294 609.445499 C 513.714294 697.979335 471.428579 717.716178 471.428579 735.479336 C 488.857151 735.479336 500.857151 727.161667 513.714294 715.742493 C 531.42858 697.979335 533.142866 608.035725 531.42858 609.445499 Z M 513.714294 609.445499 " transform="matrix(0.0136719,0,0,0.0277083,4.824219,-3.5625)"/>
<path style="fill-rule:evenodd;fill:rgb(0%,0%,76.862746%);fill-opacity:1;stroke-width:1.25;stroke-linecap:butt;stroke-linejoin:miter;stroke:rgb(0%,0%,0%);stroke-opacity:1;stroke-miterlimit:4;" d="M 478.285722 609.445499 C 477.42858 661.184222 433.714293 709.116553 442.000008 719.689862 C 451.428579 729.135351 478.285722 697.979335 513.714294 715.742493 C 531.42858 697.979335 533.142866 608.035725 531.42858 609.445499 Z M 478.285722 609.445499 " transform="matrix(0.0136719,0,0,0.0277083,4.824219,-3.5625)"/>
<path style="fill-rule:evenodd;fill:rgb(100%,87.450981%,0%);fill-opacity:1;stroke-width:1.25;stroke-linecap:butt;stroke-linejoin:miter;stroke:rgb(0%,0%,0%);stroke-opacity:1;stroke-miterlimit:4;" d="M 513.714294 609.525161 C 513.714294 697.911887 473.142865 703.918752 473.142865 727.517149 C 490.857151 727.517149 513.714294 714.645296 513.714294 715.71795 C 531.42858 697.911887 533.142866 608.023444 531.42858 609.525161 Z M 513.714294 609.525161 " transform="matrix(0.0136719,0,0,0.0182083,4.394531,2.01875)"/>
<path style="fill-rule:evenodd;fill:rgb(100%,87.450981%,0%);fill-opacity:1;stroke-width:1.25;stroke-linecap:butt;stroke-linejoin:miter;stroke:rgb(0%,0%,0%);stroke-opacity:1;stroke-miterlimit:4;" d="M 478.285722 609.525161 C 477.42858 661.227105 434.571436 705.205937 442.85715 715.71795 C 452.285722 725.157309 478.285722 697.911887 513.714294 715.71795 C 531.42858 697.911887 533.142866 608.023444 531.42858 609.525161 Z M 478.285722 609.525161 " transform="matrix(0.0136719,0,0,0.0182083,4.394531,2.01875)"/>
<path style="fill-rule:evenodd;fill:rgb(88.235295%,0%,0%);fill-opacity:1;stroke-width:1.25;stroke-linecap:butt;stroke-linejoin:miter;stroke:rgb(0%,0%,0%);stroke-opacity:1;stroke-miterlimit:4;" d="M 478.448332 698.009332 C 494.827643 707.559417 515.000057 707.559417 531.551782 698.009332 L 531.551782 556.349741 L 496.034539 556.349741 C 513.79316 609.352711 513.79316 662.674018 478.275918 698.009332 Z M 478.448332 698.009332 " transform="matrix(-0.0226562,0,0,0.0245417,24.625001,-0.40375)"/>
<path style="fill-rule:evenodd;fill:rgb(0%,0%,76.862746%);fill-opacity:1;stroke-width:1.25;stroke-linecap:butt;stroke-linejoin:miter;stroke:rgb(0%,0%,0%);stroke-opacity:1;stroke-miterlimit:4;" d="M 513.714294 609.445499 C 513.714294 697.979335 471.428579 717.716178 471.428579 735.479336 C 488.857151 735.479336 500.857151 727.161667 513.714294 715.742493 C 531.42858 697.979335 533.142866 608.035725 531.42858 609.445499 Z M 513.714294 609.445499 " transform="matrix(-0.0136719,0,0,0.0277083,20.175781,-3.5625)"/>
<path style="fill-rule:evenodd;fill:rgb(0%,0%,76.862746%);fill-opacity:1;stroke-width:1.25;stroke-linecap:butt;stroke-linejoin:miter;stroke:rgb(0%,0%,0%);stroke-opacity:1;stroke-miterlimit:4;" d="M 478.285722 609.445499 C 477.42858 661.184222 433.714293 709.116553 442.000008 719.689862 C 451.428579 729.135351 478.285722 697.979335 513.714294 715.742493 C 531.42858 697.979335 533.142866 608.035725 531.42858 609.445499 Z M 478.285722 609.445499 " transform="matrix(-0.0136719,0,0,0.0277083,20.175781,-3.5625)"/>
<path style="fill-rule:evenodd;fill:rgb(100%,87.450981%,0%);fill-opacity:1;stroke-width:1.25;stroke-linecap:butt;stroke-linejoin:miter;stroke:rgb(0%,0%,0%);stroke-opacity:1;stroke-miterlimit:4;" d="M 513.714294 609.525161 C 513.714294 697.911887 473.142865 703.918752 473.142865 727.517149 C 490.857151 727.517149 513.714294 714.645296 513.714294 715.71795 C 531.42858 697.911887 533.142866 608.023444 531.42858 609.525161 Z M 513.714294 609.525161 " transform="matrix(-0.0136719,0,0,0.0182083,20.605469,2.01875)"/>
<path style="fill-rule:evenodd;fill:rgb(100%,87.450981%,0%);fill-opacity:1;stroke-width:1.25;stroke-linecap:butt;stroke-linejoin:miter;stroke:rgb(0%,0%,0%);stroke-opacity:1;stroke-miterlimit:4;" d="M 478.285722 609.525161 C 477.42858 661.227105 434.571436 705.205937 442.85715 715.71795 C 452.285722 725.157309 478.285722 697.911887 513.714294 715.71795 C 531.42858 697.911887 533.142866 608.023444 531.42858 609.525161 Z M 478.285722 609.525161 " transform="matrix(-0.0136719,0,0,0.0182083,20.605469,2.01875)"/>
<path style="fill-rule:evenodd;fill:rgb(56.470591%,56.078434%,54.11765%);fill-opacity:1;stroke-width:4.5;stroke-linecap:butt;stroke-linejoin:miter;stroke:rgb(0%,0%,0%);stroke-opacity:1;stroke-miterlimit:4;" d="M 198.333312 77.936631 L 109.166644 113.373234 L 198.333312 148.809837 L 243.333313 131.315818 L 265.833314 148.809837 L 288.333314 184.24644 L 310.833315 148.809837 L 333.333315 131.315818 L 1535.000009 131.315818 L 1535.000009 95.879215 L 333.333315 95.879215 L 310.833315 77.936631 C 310.833315 59.994047 314.999982 42.500028 333.333315 42.500028 L 422.499984 42.500028 C 422.499984 25.006009 377.499983 -10.430594 288.333314 -10.430594 C 198.333312 -10.430594 153.333311 25.006009 153.333311 42.500028 L 243.333313 42.500028 C 260.833314 42.500028 265.833314 59.994047 265.833314 77.936631 L 243.333313 95.879215 Z M 198.333312 77.936631 " transform="matrix(0.0046875,0,0,0.00870833,8.507813,12.840833)"/>
<path style="fill-rule:evenodd;fill:rgb(71.764708%,30.19608%,0%);fill-opacity:1;stroke-width:1.8;stroke-linecap:butt;stroke-linejoin:miter;stroke:rgb(0%,0%,0%);stroke-opacity:1;stroke-miterlimit:4;" d="M 204.285713 95.536036 L 541.071426 95.536036 L 541.071426 113.445392 L 204.285713 113.445392 Z M 204.285713 77.992177 L 541.071426 77.992177 L 541.071426 95.536036 L 204.285713 95.536036 Z M 204.285713 60.082821 L 541.071426 60.082821 L 541.071426 77.992177 L 204.285713 77.992177 Z M 204.285713 42.538962 L 541.071426 42.538962 L 541.071426 60.082821 L 204.285713 60.082821 Z M 204.285713 24.629606 L 541.071426 24.629606 L 541.071426 42.538962 L 204.285713 42.538962 Z M 204.285713 7.085747 L 541.071426 7.085747 L 541.071426 24.629606 L 204.285713 24.629606 Z M 204.285713 -10.458112 L 541.071426 -10.458112 L 541.071426 7.085747 L 204.285713 7.085747 Z M 204.285713 -10.458112 " transform="matrix(0.0109375,0,0,0.0106875,8.4375,13.244584)"/>
<path style="fill-rule:evenodd;fill:rgb(56.470591%,56.078434%,54.11765%);fill-opacity:1;stroke-width:3.3;stroke-linecap:butt;stroke-linejoin:miter;stroke:rgb(0%,0%,0%);stroke-opacity:1;stroke-miterlimit:4;" d="M 423.200024 60.297223 L 560.800024 184.200727 L 580.800024 184.200727 L 442.800024 60.297223 Z M 423.200024 60.297223 " transform="matrix(0.00976562,0,0,0.0106875,6.714844,12.476667)"/>
<path style="fill-rule:evenodd;fill:rgb(56.470591%,56.078434%,54.11765%);fill-opacity:1;stroke-width:3.3;stroke-linecap:butt;stroke-linejoin:miter;stroke:rgb(0%,0%,0%);stroke-opacity:1;stroke-miterlimit:4;" d="M 423.200024 60.29244 L 560.800024 184.195944 L 580.800024 184.195944 L 442.800024 60.29244 Z M 423.200024 60.29244 " transform="matrix(0.00976562,0,0,-0.0106875,6.714844,15.12875)"/>
<path style="fill-rule:evenodd;fill:rgb(56.470591%,56.078434%,54.11765%);fill-opacity:1;stroke-width:3.1;stroke-linecap:butt;stroke-linejoin:miter;stroke:rgb(0%,0%,0%);stroke-opacity:1;stroke-miterlimit:4;" d="M 425.357119 60.297223 L 425.357119 184.200727 L 442.857119 184.200727 L 442.857119 60.297223 Z M 425.357119 60.297223 " transform="matrix(0.0109375,0,0,0.0106875,6.234375,12.476667)"/>
<path style="fill-rule:evenodd;fill:rgb(56.470591%,56.078434%,54.11765%);fill-opacity:1;stroke-width:3.3;stroke-linecap:butt;stroke-linejoin:miter;stroke:rgb(0%,0%,0%);stroke-opacity:1;stroke-miterlimit:4;" d="M 423.200012 60.297223 L 560.800012 184.200727 L 580.800012 184.200727 L 442.800012 60.297223 Z M 423.200012 60.297223 " transform="matrix(0.00976562,0,0,0.0106875,8.445312,12.476667)"/>
<path style="fill-rule:evenodd;fill:rgb(56.470591%,56.078434%,54.11765%);fill-opacity:1;stroke-width:3.3;stroke-linecap:butt;stroke-linejoin:miter;stroke:rgb(0%,0%,0%);stroke-opacity:1;stroke-miterlimit:4;" d="M 423.200012 60.29244 L 560.800012 184.195944 L 580.800012 184.195944 L 442.800012 60.29244 Z M 423.200012 60.29244 " transform="matrix(0.00976562,0,0,-0.0106875,8.445312,15.12875)"/>
<path style="fill-rule:evenodd;fill:rgb(56.470591%,56.078434%,54.11765%);fill-opacity:1;stroke-width:3.1;stroke-linecap:butt;stroke-linejoin:miter;stroke:rgb(0%,0%,0%);stroke-opacity:1;stroke-miterlimit:4;" d="M 425.357163 60.297223 L 425.357163 184.200727 L 442.857163 184.200727 L 442.857163 60.297223 Z M 425.357163 60.297223 " transform="matrix(0.0109375,0,0,0.0106875,9.3125,12.476667)"/>
<path style="fill-rule:evenodd;fill:rgb(56.470591%,56.078434%,54.11765%);fill-opacity:1;stroke-width:3.1;stroke-linecap:butt;stroke-linejoin:miter;stroke:rgb(0%,0%,0%);stroke-opacity:1;stroke-miterlimit:4;" d="M 425.357141 60.297223 L 425.357141 184.200727 L 442.857141 184.200727 L 442.857141 60.297223 Z M 425.357141 60.297223 " transform="matrix(0.0109375,0,0,0.0106875,7.96875,12.476667)"/>
<path style="fill-rule:evenodd;fill:rgb(56.470591%,56.078434%,54.11765%);fill-opacity:1;stroke-width:3.1;stroke-linecap:butt;stroke-linejoin:miter;stroke:rgb(0%,0%,0%);stroke-opacity:1;stroke-miterlimit:4;" d="M 425.357141 60.297223 L 425.357141 184.200727 L 442.857141 184.200727 L 442.857141 60.297223 Z M 425.357141 60.297223 " transform="matrix(0.0109375,0,0,0.0106875,7.578125,12.476667)"/>
<path style="fill-rule:evenodd;fill:rgb(100%,87.450981%,0%);fill-opacity:1;stroke-width:1.25;stroke-linecap:butt;stroke-linejoin:miter;stroke:rgb(0%,0%,0%);stroke-opacity:1;stroke-miterlimit:4;" d="M 655.51726 396.863324 C 655.51726 484.883273 599.827603 556.349741 531.551739 556.349741 C 463.103461 556.349741 407.413804 484.883273 407.413804 396.863324 C 407.413804 308.843376 462.931047 237.376908 531.551739 237.376908 C 600.000017 237.376908 655.51726 308.843376 655.51726 396.863324 Z M 637.758638 396.863324 C 637.758638 475.17402 590.17243 538.522916 531.551739 538.522916 C 472.758634 538.522916 425.172425 475.17402 425.172425 396.863324 C 425.172425 318.552629 472.758634 255.044565 531.551739 255.044565 C 590.17243 255.044565 637.758638 318.552629 637.758638 396.863324 Z M 637.758638 396.863324 " transform="matrix(0.0226562,0,0,0.0245417,0.375,-0.40375)"/>
<path style="fill-rule:evenodd;fill:rgb(100%,87.450981%,0%);fill-opacity:1;stroke-width:1.25;stroke-linecap:butt;stroke-linejoin:miter;stroke:rgb(0%,0%,0%);stroke-opacity:1;stroke-miterlimit:4;" d="M 579.827602 249.951186 C 564.827602 241.833614 548.620705 237.376908 531.551739 237.376908 C 514.482773 237.376908 498.103462 241.833614 483.275875 249.951186 L 490.172427 266.345498 C 515.862083 251.542867 547.241394 251.542867 572.93105 266.345498 Z M 579.827602 249.951186 " transform="matrix(0.0226562,0,0,0.0245417,0.375,-0.40375)"/>
<path style="fill-rule:evenodd;fill:rgb(100%,87.450981%,0%);fill-opacity:1;stroke-width:1.25;stroke-linecap:butt;stroke-linejoin:miter;stroke:rgb(0%,0%,0%);stroke-opacity:1;stroke-miterlimit:4;" d="M 579.827603 250.038179 C 564.827602 241.920607 548.620705 237.4639 531.551739 237.4639 C 514.482773 237.4639 498.103462 241.920607 483.275876 249.879011 L 490.172428 266.273323 C 515.862083 251.62986 547.241395 251.62986 572.931051 266.273323 Z M 579.827603 250.038179 " transform="matrix(0.0226562,0,0,-0.0245417,0.382813,18.972291)"/>
<path style=" stroke:none;fill-rule:evenodd;fill:rgb(65.490198%,81.176472%,100%);fill-opacity:1;" d="M 14.828125 9.335938 C 14.828125 11.257812 13.746094 12.8125 12.417969 12.8125 C 11.089844 12.8125 10.011719 11.257812 10.011719 9.335938 C 10.011719 7.417969 11.089844 5.855469 12.417969 5.855469 C 13.746094 5.855469 14.828125 7.414062 14.828125 9.335938 "/>
<path style="fill-rule:evenodd;fill:rgb(68.627453%,100%,48.235294%);fill-opacity:1;stroke-width:1.25;stroke-linecap:butt;stroke-linejoin:miter;stroke:rgb(0%,0%,0%);stroke-opacity:1;stroke-miterlimit:4;" d="M 637.758638 396.863324 C 638.965535 423.444394 633.27588 436.496176 625.862086 464.191422 C 623.965535 467.215616 614.827603 457.665531 609.482776 453.049657 C 604.137948 448.274614 601.724155 457.188027 594.827603 450.025463 C 588.275878 442.544563 583.965533 451.93548 578.965533 445.727925 C 573.965533 439.679538 527.586221 438.724529 527.586221 438.247025 C 532.241394 436.018672 555.862084 438.406193 552.068981 427.10526 C 547.758636 415.326822 521.034497 426.627755 517.413807 411.665956 C 514.8276 396.704156 463.793116 396.067484 460.172426 392.565786 C 461.551737 398.136669 499.8276 400.52419 498.965531 415.008485 C 498.103462 421.056873 461.379323 422.648553 457.758633 427.741932 C 454.655185 433.949487 486.724151 425.991083 487.758634 433.631151 C 487.758634 436.973681 483.103462 433.631151 466.551737 438.724529 C 458.103461 441.271219 481.896565 449.070455 472.931047 453.367993 C 463.96553 457.665531 444.655185 459.575548 445.34484 461.326397 C 448.448288 470.239809 490.172427 480.904071 486.034496 482.336583 C 471.206909 489.021643 463.448289 493.319181 456.379323 497.139215 C 435.517253 467.852288 424.655184 432.83531 425.172425 396.863324 C 456.896564 385.562391 450.172426 383.174869 508.793117 383.174869 C 567.413809 383.174869 586.724154 385.403223 637.758638 396.863324 Z M 637.758638 396.863324 " transform="matrix(0.0226562,0,0,0.0245417,0.375,-0.40375)"/>
<path style="fill-rule:evenodd;fill:rgb(100%,100%,100%);fill-opacity:1;stroke-width:1.25;stroke-linecap:butt;stroke-linejoin:miter;stroke:rgb(0%,0%,0%);stroke-opacity:1;stroke-miterlimit:4;" d="M 637.758638 396.863324 C 629.827604 396.863324 621.379328 400.365022 612.758638 400.365022 C 604.137948 400.365022 595.344844 396.863324 586.379327 396.863324 C 577.241395 396.863324 567.068981 401.479199 557.758636 401.479199 C 548.448291 401.479199 540.344842 396.863324 531.034497 396.863324 C 521.724152 396.863324 512.413807 400.365022 503.275876 400.365022 C 494.137945 400.365022 485.000013 396.863324 476.034496 396.863324 C 467.241392 396.863324 458.448288 400.365022 449.827598 400.365022 C 441.379322 400.365022 433.10346 396.863324 425.172425 396.863324 C 425.344839 377.126482 428.10346 358.822153 433.620701 341.632 C 460.517254 343.701186 444.655185 326.033529 460.517254 326.033529 C 470.000013 325.556024 479.310358 329.057722 485.862082 335.742781 C 488.275875 335.742781 500.344841 324.441848 513.793118 326.033529 C 527.241394 327.625209 522.241394 353.25127 540.172429 354.524615 C 549.137946 361.368842 554.482774 365.666381 566.896567 368.531406 C 584.655189 370.123087 635.344845 365.984717 635.517259 368.372238 C 637.068983 377.763155 637.758638 387.313239 637.758638 396.863324 Z M 637.758638 396.863324 " transform="matrix(0.0226562,0,0,0.0245417,0.375,-0.40375)"/>
<path style="fill-rule:evenodd;fill:rgb(0%,0%,0%);fill-opacity:1;stroke-width:1.25;stroke-linecap:butt;stroke-linejoin:miter;stroke:rgb(0%,0%,0%);stroke-opacity:1;stroke-miterlimit:4;" d="M 550.000007 473.903519 C 550.000007 468.352532 563.500007 464.446282 563.500007 455.400229 C 563.500007 446.354177 551.500007 446.148585 551.000007 437.513716 C 551.000007 434.01865 561.500007 430.523584 566.000007 430.1124 C 570.500007 429.701216 574.500007 437.513716 574.500007 439.364045 C 574.500007 441.008782 569.500007 435.046611 566.000007 435.046611 C 562.000007 434.841018 553.500007 435.663387 553.500007 437.308124 C 553.500007 440.597598 568.500007 444.915032 567.000007 456.222598 C 566.000007 467.530164 554.500007 470.819638 554.500007 474.314704 C 554.500007 477.604177 559.500007 487.061414 559.500007 487.061414 C 559.500007 487.061414 550.000007 479.660098 550.000007 473.903519 Z M 550.000007 473.903519 " transform="matrix(0.0078125,0,0,0.019,8.484375,2.355208)"/>
<path style="fill-rule:evenodd;fill:rgb(0%,0%,0%);fill-opacity:1;stroke-width:1.25;stroke-linecap:butt;stroke-linejoin:miter;stroke:rgb(0%,0%,0%);stroke-opacity:1;stroke-miterlimit:4;" d="M 549.999931 473.914487 C 549.999931 468.3635 563.499931 464.45725 563.499931 455.411198 C 563.499931 446.365145 551.499931 446.159553 550.999931 437.524684 C 549.999931 433.618434 562.999931 430.945736 567.499931 430.740144 C 571.99993 430.32896 577.49993 438.758237 577.49993 440.197381 C 577.49993 441.842118 571.99993 435.057579 567.999931 435.057579 C 563.999931 434.851987 553.499931 435.674355 553.499931 437.319092 C 553.499931 440.608566 568.49993 444.926 566.999931 456.233566 C 565.999931 467.541132 554.499931 470.830606 554.499931 474.325672 C 554.499931 477.615145 559.499931 487.072382 559.499931 487.072382 C 559.499931 487.072382 549.999931 479.671067 549.999931 473.914487 Z M 549.999931 473.914487 " transform="matrix(-0.0078125,0,0,0.019,17.414062,2.339375)"/>
<path style=" stroke:none;fill-rule:evenodd;fill:rgb(0%,0%,0%);fill-opacity:1;" d="M 13.007812 10.484375 C 13.007812 10.535156 12.980469 10.582031 12.949219 10.582031 C 12.917969 10.582031 12.894531 10.535156 12.894531 10.480469 C 12.894531 10.425781 12.917969 10.386719 12.949219 10.386719 C 12.980469 10.386719 13.007812 10.429688 13.007812 10.484375 M 13.671875 10.84375 L 13.6875 10.84375 L 13.6875 11.613281 L 13.667969 11.613281 Z M 13.832031 10.777344 L 13.851562 10.777344 L 13.851562 11.558594 L 13.832031 11.558594 Z M 13.832031 10.777344 "/>
<path style=" stroke:none;fill-rule:evenodd;fill:rgb(0%,0%,0%);fill-opacity:1;" d="M 13.773438 11.128906 L 13.773438 11.109375 L 13.929688 11.140625 L 13.929688 11.160156 Z M 13.773438 11.128906 "/>
<path style="fill-rule:evenodd;fill:rgb(71.764708%,30.19608%,0%);fill-opacity:1;stroke-width:1.25;stroke-linecap:butt;stroke-linejoin:miter;stroke:rgb(0%,0%,0%);stroke-opacity:1;stroke-miterlimit:4;" d="M 497.241394 478.02419 C 497.241394 478.02419 523.275877 489.325124 528.965532 496.169351 C 534.655188 503.013578 532.413808 503.013578 532.413808 503.013578 L 590.172431 505.241932 C 590.172431 501.899402 600.344845 501.899402 602.586224 493.940998 C 604.827604 485.823426 604.827604 483.754241 604.827604 483.754241 L 586.724155 489.325124 L 587.758638 479.138366 L 572.068982 479.138366 L 569.655189 489.325124 L 535.689671 488.370115 L 537.93105 460.993205 L 531.206912 462.107382 L 530.172429 488.051779 C 528.965532 488.051779 498.44829 480.252543 497.241394 478.02419 Z M 497.241394 478.02419 " transform="matrix(0.0226562,0,0,0.0245417,0.273438,-0.376042)"/>
<path style="fill-rule:evenodd;fill:rgb(99.607843%,87.058824%,0%);fill-opacity:1;stroke-width:1.25;stroke-linecap:butt;stroke-linejoin:miter;stroke:rgb(99.607843%,87.058824%,0%);stroke-opacity:1;stroke-miterlimit:4;" d="M 440.517253 316.324276 C 440.517253 316.324276 478.275875 305.023342 532.586222 305.97835 C 587.068982 306.774191 624.65519 318.711797 623.965535 318.711797 C 623.103466 318.711797 613.448293 300.2483 613.448293 300.2483 C 613.448293 300.2483 575.17243 289.743206 531.724153 288.947366 C 488.620703 288.151525 450.862081 297.064938 451.72415 297.860778 Z M 440.517253 316.324276 " transform="matrix(0.0226562,0,0,0.0245417,0.375,-0.40375)"/>
<path style=" stroke:none;fill-rule:evenodd;fill:rgb(21.960784%,66.274512%,97.647059%);fill-opacity:1;" d="M 11.953125 6.722656 L 12.484375 6.714844 L 12.492188 7.027344 L 11.960938 7.039062 Z M 10.734375 6.890625 L 10.546875 7.203125 L 11.179688 7.125 L 11.128906 6.820312 L 10.734375 6.898438 Z M 11.269531 6.773438 L 11.800781 6.730469 L 11.824219 7.039062 L 11.296875 7.085938 Z M 13.179688 6.746094 L 12.652344 6.707031 L 12.632812 7.023438 L 13.160156 7.054688 Z M 14.320312 6.941406 L 14.511719 7.324219 L 13.941406 7.179688 L 14.003906 6.875 L 14.316406 6.9375 Z M 13.859375 6.824219 L 13.335938 6.757812 L 13.296875 7.066406 L 13.824219 7.136719 Z M 13.859375 6.824219 "/>
<path style="fill-rule:evenodd;fill:rgb(100%,87.450981%,0%);fill-opacity:1;stroke-width:1.25;stroke-linecap:butt;stroke-linejoin:miter;stroke:rgb(0%,0%,0%);stroke-opacity:1;stroke-miterlimit:4;" d="M 532.586222 323.486839 L 530.172428 309.957552 L 522.413807 321.576822 L 525.344842 308.047536 L 513.965531 315.687603 L 521.551738 304.38667 L 508.275876 307.251695 L 519.655187 299.611627 L 506.20691 297.064938 L 519.655187 294.518249 L 508.275876 286.878181 L 521.551738 289.743206 L 513.965531 278.442273 L 525.344842 286.08234 L 522.413807 272.553054 L 530.172428 284.172323 L 532.586222 270.643037 L 535.172429 284.172323 L 542.758636 272.553054 L 540.000015 286.08234 L 551.379326 278.442273 L 543.620705 289.743206 L 557.068981 286.878181 L 545.517256 294.518249 L 559.137946 297.064938 L 545.517256 299.611627 L 557.068981 307.251695 L 543.620705 304.38667 L 551.379326 315.687603 L 540.000015 308.047536 L 542.758636 321.576822 L 535.172429 309.957552 Z M 532.586222 323.486839 " transform="matrix(0.0226562,0,0,0.0245417,0.375,-0.40375)"/>
<path style="fill-rule:evenodd;fill:rgb(100%,87.450981%,0%);fill-opacity:1;stroke-width:1.25;stroke-linecap:butt;stroke-linejoin:miter;stroke:rgb(0%,0%,0%);stroke-opacity:1;stroke-miterlimit:4;" d="M 547.017552 293.900002 C 547.017552 303.176317 540.350885 310.676317 532.28071 310.676317 C 524.035096 310.676317 517.368429 303.176317 517.368429 293.900002 C 517.368429 284.623686 524.035096 276.926317 532.28071 276.926317 C 540.350885 276.926317 547.017552 284.623686 547.017552 294.09737 Z M 547.017552 293.900002 " transform="matrix(0.0222656,0,0,0.0197917,0.714844,0.862917)"/>
<path style=" stroke:none;fill-rule:evenodd;fill:rgb(0%,0%,0%);fill-opacity:1;" d="M 12.527344 6.753906 C 12.527344 6.773438 12.476562 6.792969 12.417969 6.792969 C 12.359375 6.792969 12.308594 6.773438 12.308594 6.753906 C 12.308594 6.734375 12.355469 6.714844 12.417969 6.714844 C 12.480469 6.714844 12.527344 6.730469 12.527344 6.753906 M 12.761719 6.753906 C 12.757812 6.777344 12.730469 6.789062 12.683594 6.792969 C 12.613281 6.796875 12.597656 6.773438 12.597656 6.753906 C 12.597656 6.734375 12.636719 6.714844 12.679688 6.714844 C 12.722656 6.714844 12.761719 6.730469 12.761719 6.753906 "/>
<path style="fill:none;stroke-width:1.25;stroke-linecap:butt;stroke-linejoin:miter;stroke:rgb(0%,0%,0%);stroke-opacity:1;stroke-miterlimit:4;" d="M 529.374192 297.943833 L 530.218903 298.690668 C 528.339434 296.646564 529.138383 297.544144 531.732276 301.940732 C 534.226031 301.373069 534.873696 300.416053 536.594882 299.452146 " transform="matrix(0.021875,-0.007125,0.00664063,0.02375,-1.042969,3.58625)"/>
<path style="fill:none;stroke-width:1.25;stroke-linecap:butt;stroke-linejoin:miter;stroke:rgb(0%,0%,0%);stroke-opacity:1;stroke-miterlimit:4;" d="M 527.758636 304.227502 L 528.620705 305.023342 C 526.724153 303.113325 527.586222 304.068334 531.724154 306.774191 C 535.862085 307.251695 539.827602 305.500846 542.241395 302.635821 " transform="matrix(0.0226562,0,0,0.0245417,0.339844,-0.40375)"/>
<path style=" stroke:none;fill-rule:evenodd;fill:rgb(71.764708%,88.235295%,100%);fill-opacity:1;" d="M 10.992188 7.710938 C 10.992188 7.710938 11.03125 8.027344 10.792969 8.421875 C 10.554688 8.820312 10.59375 8.675781 10.59375 8.675781 C 10.59375 8.675781 10.703125 8.894531 10.683594 8.894531 C 10.664062 8.894531 10.5 8.695312 10.5 8.695312 L 10.304688 8.914062 C 10.304688 8.914062 10.484375 8.578125 10.464844 8.578125 C 10.445312 8.578125 10.410156 8.457031 10.410156 8.457031 L 10.554688 8.398438 C 10.554688 8.398438 10.773438 7.988281 10.773438 8.007812 C 10.773438 8.027344 10.121094 8.457031 10.121094 8.457031 Z M 11.136719 7.828125 C 11.117188 7.828125 11.226562 8.144531 11.320312 8.304688 C 11.410156 8.464844 11.410156 8.65625 11.410156 8.65625 L 11.71875 8.816406 L 11.320312 8.207031 L 11.574219 8.300781 Z M 11.136719 8.65625 C 11.136719 8.65625 11.355469 8.894531 11.371094 8.972656 C 11.386719 9.050781 11.390625 9.226562 11.390625 9.226562 L 11.300781 9.027344 L 11.171875 9.207031 C 11.171875 9.207031 11.265625 8.929688 11.246094 8.910156 C 11.226562 8.890625 11.101562 9.007812 11.101562 9.007812 C 11.101562 9.007812 11.15625 8.851562 11.15625 8.835938 C 11.15625 8.820312 11.15625 8.714844 11.136719 8.65625 M 10.046875 9.207031 C 10.121094 9.148438 10.265625 9.109375 10.265625 9.109375 C 10.265625 9.109375 10.175781 9.265625 10.15625 9.265625 C 10.136719 9.265625 10.085938 9.265625 10.046875 9.207031 M 12.550781 8.34375 C 12.550781 8.34375 13.023438 8.636719 13.023438 8.65625 C 13.023438 8.675781 12.714844 8.519531 12.714844 8.519531 Z M 11.699219 7.730469 C 11.738281 7.75 12.390625 8.300781 12.371094 8.300781 C 12.351562 8.300781 12.082031 8.140625 12.082031 8.167969 L 12.082031 8.300781 L 11.933594 7.988281 L 11.898438 8.105469 Z M 11.863281 8.617188 L 12.042969 8.988281 L 12.226562 8.949219 C 12.226562 8.949219 11.882812 8.617188 11.863281 8.617188 M 12.425781 8.378906 L 12.445312 8.734375 C 12.445312 8.734375 12.550781 8.835938 12.550781 8.816406 C 12.550781 8.796875 12.445312 8.398438 12.425781 8.378906 "/>
<path style=" stroke:none;fill-rule:evenodd;fill:rgb(59.607846%,25.098041%,0%);fill-opacity:1;" d="M 7.132812 3.542969 C 7.132812 3.542969 7.953125 3.082031 8.886719 2.742188 C 9.574219 2.488281 10.28125 2.296875 11.003906 2.171875 C 11.277344 2.171875 11.753906 2.878906 11.832031 2.878906 C 11.910156 2.878906 12.226562 2.679688 12.625 2.679688 C 13.023438 2.679688 13.253906 2.996094 13.335938 2.996094 L 14.046875 2.996094 C 14.125 2.996094 13.808594 2.210938 14.046875 2.253906 C 14.164062 2.273438 15.171875 2.429688 16.109375 2.734375 C 17.046875 3.042969 18.375 3.589844 18.375 3.589844 C 18.375 3.589844 16.207031 3.878906 15.625 3.796875 C 15.546875 3.835938 15.625 4.3125 15.507812 4.101562 C 15.328125 4.0625 14.660156 3.953125 14.542969 3.953125 C 14.425781 3.953125 14.203125 4.089844 13.886719 4.167969 C 13.574219 4.246094 13.175781 4.367188 13.175781 4.367188 L 13.691406 5.183594 L 13.058594 5.503906 C 13.058594 5.503906 12.664062 4.558594 12.503906 4.558594 C 12.34375 4.558594 12.269531 5.226562 12.070312 5.183594 C 11.871094 5.144531 11.796875 4.558594 11.636719 4.402344 C 11.480469 4.246094 10.644531 4.1875 10.328125 4.113281 C 10.015625 4.035156 9.503906 3.972656 9.226562 3.894531 C 8.949219 3.816406 8.671875 4.09375 8.554688 4.09375 C 8.4375 4.09375 8.710938 3.855469 8.59375 3.816406 C 8.476562 3.777344 8.398438 3.933594 8.320312 3.933594 C 8.242188 3.933594 7.410156 3.777344 7.332031 3.738281 C 7.253906 3.695312 7.527344 3.542969 7.449219 3.542969 Z M 7.132812 3.542969 "/>
<path style="fill-rule:evenodd;fill:rgb(50.196081%,50.196081%,50.196081%);fill-opacity:1;stroke-width:3.7;stroke-linecap:butt;stroke-linejoin:miter;stroke:rgb(46.666667%,14.901961%,0%);stroke-opacity:1;stroke-miterlimit:4;" d="M 463.181793 -64.853241 C 463.181793 -43.977734 442.272702 -26.51822 417.272702 -26.51822 C 391.818156 -26.51822 371.363611 -43.977734 371.363611 -64.853241 C 371.363611 -86.108303 391.818156 -103.188263 417.272702 -103.188263 C 442.272702 -103.188263 463.181793 -86.108303 463.181793 -64.853241 Z M 463.181793 -64.853241 " transform="matrix(0.00859375,0,0,0.0102917,9.046875,3.819792)"/>
<path style="fill-rule:evenodd;fill:rgb(59.607846%,25.098041%,0%);fill-opacity:1;stroke-width:5.3;stroke-linecap:butt;stroke-linejoin:miter;stroke:rgb(46.666667%,14.901961%,0%);stroke-opacity:1;stroke-miterlimit:4;" d="M 284.814826 -59.958873 C 291.481493 -66.743413 299.62964 -76.611834 321.481491 -76.611834 C 326.296306 -78.153775 326.296306 -88.330585 338.148157 -88.330585 C 349.629638 -88.330585 346.296305 -78.153775 354.814823 -74.761505 C 362.962971 -71.677624 431.481487 -78.153775 431.481487 -78.153775 C 431.481487 -78.153775 437.777783 -73.219564 437.777783 -66.743413 C 437.777783 -59.958873 432.962968 -55.024663 431.481487 -55.024663 C 429.629635 -55.024663 362.962971 -59.958873 358.148157 -58.416933 C 352.962972 -56.566604 349.629638 -55.024663 338.148157 -55.024663 C 326.296306 -55.024663 322.962973 -66.743413 314.814825 -66.743413 C 306.296307 -66.743413 298.148159 -68.285354 284.814826 -59.958873 Z M 284.814826 -59.958873 " transform="matrix(0.0105469,0,0,0.0126667,8.023437,3.986042)"/>
<path style="fill:none;stroke-width:3.5;stroke-linecap:butt;stroke-linejoin:miter;stroke:rgb(46.666667%,14.901961%,0%);stroke-opacity:1;stroke-miterlimit:4;" d="M 487.777781 -76.476158 L 514.444447 -76.476158 C 524.074076 -76.476158 527.407409 -73.700664 536.296298 -73.392276 L 559.62963 -73.392276 C 568.148148 -73.700664 572.592592 -75.550993 581.111111 -76.476158 C 595.555554 -76.784546 590.74074 -78.018099 587.777777 -86.652967 C 585.185185 -93.129119 584.814814 -96.213 581.111111 -99.913658 C 579.629629 -107.931751 576.666666 -110.707244 575.925926 -119.958889 C 574.444444 -127.051817 571.851852 -131.677639 574.444444 -140.00412 C 578.148148 -134.144745 579.629629 -131.986027 589.629629 -131.369251 C 599.629628 -131.369251 603.333332 -131.677639 609.629628 -128.285369 C 614.074072 -123.351159 620.370368 -124.8931 629.629627 -124.8931 C 637.037034 -123.351159 638.518516 -119.650501 644.444441 -116.566619 C 651.481478 -112.557573 655.925922 -111.632409 665.925922 -111.632409 C 674.07407 -110.090468 681.111107 -108.856915 685.925921 -106.698198 C 690.370366 -101.455599 697.037032 -100.222046 705.92592 -99.913658 C 711.111105 -99.913658 715.185179 -100.530435 719.259253 -101.455599 C 727.037031 -101.147211 734.814808 -101.455599 744.444437 -101.455599 C 750.370363 -94.362671 751.851845 -91.587178 762.592585 -91.587178 C 769.999992 -86.344579 776.296288 -85.727803 782.592584 -83.260697 L 807.777768 -83.260697 C 816.666657 -82.643921 819.259249 -78.943263 827.777767 -76.476158 C 834.814804 -73.392276 841.851841 -70.616783 849.259248 -68.149677 C 856.296285 -66.916125 863.703692 -66.299348 870.740729 -66.607737 C 877.037025 -63.523855 884.444432 -63.215467 889.259247 -60.131585 C 895.925913 -58.589644 905.555542 -56.739315 910.740727 -54.888986 C 919.629616 -53.655434 922.962949 -50.87994 930.740726 -49.954776 C 937.407393 -48.104447 928.518504 -46.254118 924.07406 -45.020565 C 914.444431 -45.328953 913.70369 -49.029611 904.074061 -49.954776 C 899.259246 -53.038657 891.481469 -52.421881 884.074062 -54.888986 L 882.59258 -54.888986 C 889.259247 -50.87994 895.555543 -48.412835 892.59258 -41.628295 C 884.074062 -41.628295 877.037025 -42.55346 869.259247 -43.170236 C 860.740729 -45.020565 857.037026 -46.562506 847.777767 -46.562506 C 857.037026 -49.029611 859.259248 -46.254118 865.925914 -43.170236 C 868.148136 -35.152144 862.962951 -38.236025 854.074063 -38.236025 C 846.666656 -41.011519 841.851841 -44.403789 832.592582 -45.020565 L 812.592583 -45.020565 C 822.592583 -44.712177 824.444434 -41.011519 830.74073 -36.694085 C 831.481471 -33.918591 830.74073 -34.226979 825.925916 -33.301815 C 820.740731 -37.927637 814.074064 -39.16119 805.925917 -41.628295 C 798.148139 -41.936683 789.629621 -42.55346 782.592584 -45.020565 C 777.777769 -45.328953 778.51851 -51.188328 789.259251 -41.628295 C 795.925917 -37.927637 798.148139 -34.535367 797.777769 -31.451486 C 788.88888 -33.918591 784.814806 -37.310861 779.259251 -40.086354 C 771.851844 -42.55346 764.074066 -43.787012 755.925918 -43.170236 C 747.4074 -45.637341 757.03703 -46.870894 762.592585 -38.236025 C 775.185177 -29.601157 761.111103 -33.301815 755.925918 -35.152144 C 748.518511 -37.002473 740.740734 -40.086354 734.444438 -41.628295 C 729.259253 -43.170236 724.814809 -44.403789 719.259253 -45.020565 C 728.148142 -44.0954 730.740734 -41.011519 734.444438 -35.152144 C 742.962956 -28.98438 734.074068 -31.759874 725.92592 -33.301815 C 721.111105 -37.619249 714.444439 -40.086354 711.111105 -45.020565 C 702.592587 -49.029611 702.222217 -53.963822 707.777772 -43.170236 C 708.888883 -39.777966 708.518513 -32.37665 709.259254 -31.451486 C 703.333328 -38.236025 704.444439 -40.086354 697.777773 -40.086354 C 692.962958 -43.170236 686.296292 -45.637341 682.592588 -49.954776 C 676.296292 -50.571552 675.925922 -53.038657 669.259255 -54.888986 C 674.814811 -48.721223 681.851847 -42.55346 685.925921 -36.694085 C 693.703699 -32.37665 695.555551 -28.675992 701.111106 -24.975334 C 702.962958 -21.274676 708.888883 -18.190795 702.592587 -23.433393 C 695.555551 -30.217933 690.370366 -32.068262 679.259255 -36.694085 C 673.333329 -41.628295 671.111107 -43.478624 664.444441 -48.412835 C 655.555552 -51.188328 658.888885 -52.730269 664.444441 -43.170236 C 670.740737 -37.619249 675.555551 -31.143098 681.111107 -26.517275 C 685.185181 -21.583064 690.370366 -16.957242 695.925921 -13.256584 C 697.407402 -11.097867 701.851847 -10.789479 695.925921 -9.864314 C 691.111106 -14.490137 683.703699 -17.574018 677.777773 -21.583064 C 669.259255 -24.05017 665.555552 -28.367604 659.259256 -33.301815 C 655.555552 -39.16119 648.888886 -43.787012 644.444441 -48.412835 C 634.814812 -52.113493 646.296293 -44.712177 649.259256 -40.086354 C 651.481478 -33.918591 654.074071 -28.98438 655.925922 -23.433393 C 658.888885 -17.882406 647.777775 -24.666946 644.444441 -26.517275 C 637.777775 -30.834709 630.370368 -33.610203 622.59259 -35.152144 C 615.925924 -36.385696 609.259258 -37.310861 602.592591 -38.236025 C 595.185184 -40.394743 606.666665 -33.610203 611.111109 -26.517275 C 619.629628 -18.807571 602.962962 -25.283722 597.777777 -26.517275 C 589.629629 -28.059216 581.111111 -28.675992 572.962963 -28.367604 C 562.222222 -27.750828 569.62963 -26.208887 572.962963 -21.583064 C 575.925926 -19.115959 578.518518 -13.564972 577.777777 -11.714643 C 570.740741 -12.639808 564.814815 -14.798525 555.925926 -15.106913 C 549.25926 -12.639808 540.740742 -13.256584 532.962964 -13.256584 C 532.592594 -9.247538 534.444446 -12.639808 537.777779 -8.322373 C 543.703705 -5.855268 547.407408 -3.079775 546.296297 0.00410707 L 497.777781 0.00410707 C 492.592596 1.546048 498.888892 0.620883 502.962966 6.788647 C 500.740743 12.031246 497.777781 9.872528 491.111114 9.872528 C 486.66667 8.330588 477.777781 7.405423 472.962967 4.938318 C 468.148152 4.938318 468.518523 3.704765 464.444449 3.396377 C 478.518522 13.264798 471.481485 10.797693 479.629633 18.199009 C 480.740744 18.815785 484.074077 20.049338 481.111115 20.049338 M 371.481489 73.40049 C 370.370378 73.40049 368.148156 67.849503 364.814823 63.223681 C 362.22223 57.364306 359.259268 60.756576 356.296305 51.504931 C 356.666675 42.253286 357.037045 40.711345 356.296305 31.4597 C 349.629638 26.833877 346.666675 25.291937 341.481491 16.657068 C 332.962972 9.56414 342.592602 -2.462998 344.074083 -11.097867 C 336.666676 -12.948196 333.333343 0.312495 321.851862 4.938318 C 313.703714 10.489305 320.740751 -6.472044 317.037047 -16.340466 C 314.074084 -30.217933 305.925936 -9.247538 302.962974 -3.388163 C 297.777789 0.312495 295.925937 5.246706 288.148159 -1.846222 C 288.148159 -6.780433 292.962974 -21.274676 290.740752 -24.05017 C 282.962974 -20.041124 272.962975 -8.630762 264.814827 -6.780433 C 256.666679 -8.322373 266.666679 -21.583064 266.666679 -31.143098 C 263.333345 -32.068262 251.851864 -5.54688 247.03705 -5.238492 C 242.222235 -4.930104 244.444457 -31.143098 241.851865 -30.526321 C 238.518532 -25.592111 231.481495 -15.106913 226.66668 -11.714643 C 217.037051 -12.948196 227.777791 -28.98438 229.259273 -35.152144 C 230.740754 -42.245072 220.370384 -21.274676 214.814829 -20.041124 C 210.740755 -16.340466 202.592607 -13.87336 199.629644 -13.256584 C 202.962978 -19.424347 218.888903 -32.068262 217.777792 -35.460532 C 208.518533 -35.152144 194.444459 -23.125005 186.666682 -21.583064 C 181.481497 -21.583064 174.07409 -20.041124 173.333349 -20.041124 C 173.703719 -28.059216 192.592608 -34.535367 195.55557 -39.469578 C 186.296311 -37.927637 168.518534 -29.909545 163.333349 -23.433393 C 157.037053 -21.891453 149.259276 -20.349512 143.33335 -23.433393 C 144.074091 -30.834709 158.148164 -45.328953 161.111127 -49.954776 C 152.592609 -46.254118 148.518535 -43.478624 139.629647 -41.936683 C 137.777795 -40.086354 132.96298 -36.385696 134.444462 -40.086354 C 137.037054 -47.179282 141.111128 -49.954776 144.444461 -55.197374 C 137.037054 -53.655434 134.074091 -49.337999 126.296314 -45.020565 C 121.111129 -45.020565 106.666685 -30.217933 101.4815 -29.909545 C 93.333352 -23.433393 83.703723 -18.807571 73.333353 -16.648854 C 65.555576 -15.415301 61.851872 -13.564972 58.148168 -9.864314 C 62.222242 -16.648854 67.777798 -23.125005 73.333353 -26.517275 C 76.666686 -32.685038 81.851871 -37.310861 88.148167 -40.086354 C 90.370389 -42.245072 95.555574 -42.861848 90.000019 -43.170236 C 85.185204 -39.16119 77.037057 -34.226979 73.333353 -31.451486 C 68.148168 -28.367604 62.222242 -25.283722 60.00002 -26.517275 C 62.592613 -33.918591 67.407427 -35.460532 71.481501 -41.628295 C 80.37039 -47.179282 71.481501 -43.478624 64.814835 -41.628295 C 60.740761 -37.927637 52.962983 -34.843756 46.666687 -31.451486 C 39.629651 -29.909545 34.814836 -25.592111 26.666688 -23.433393 C 26.666688 -20.966288 28.88891 -27.750828 30.000021 -29.909545 C 36.666688 -37.310861 38.51854 -39.469578 46.666687 -41.628295 C 48.518539 -44.403789 51.111132 -43.170236 44.814836 -43.170236 C 40.370391 -39.16119 34.074095 -37.002473 28.14817 -33.301815 C 22.222244 -32.068262 14.814837 -31.451486 6.666689 -31.451486 C -3.703681 -30.526321 -2.96294 -29.601157 6.666689 -35.152144 C 11.851874 -40.086354 16.296318 -38.852802 16.666689 -45.020565 C 10.370393 -40.394743 2.592615 -37.002473 -5.185162 -33.301815 C -11.481458 -32.993427 -12.96294 -31.451486 -19.999977 -31.451486 C -16.666643 -35.152144 -14.814792 -39.16119 -9.999977 -41.628295 C -2.96294 -49.337999 -14.444421 -43.170236 -16.666643 -41.628295 L -41.851828 -41.628295 C -45.925901 -36.077308 -41.851828 -41.628295 -38.148124 -45.020565 C -34.07405 -47.179282 -29.629606 -49.954776 -29.999976 -51.496716 C -35.185161 -47.179282 -40.740717 -45.328953 -45.185161 -41.628295 C -49.629605 -40.086354 -55.18516 -39.469578 -55.18516 -38.236025 C -51.481457 -43.478624 -45.555531 -46.870894 -41.481457 -51.496716 C -35.925902 -52.730269 -31.111087 -54.580598 -29.999976 -56.739315 L -53.333309 -56.739315 L -36.666643 -56.739315 C -28.148124 -56.739315 -21.111088 -57.356092 -13.33331 -58.281256 C 0.0000226056 -60.439973 -14.444421 -61.673526 -21.851828 -61.673526 C -22.962939 -64.140631 -17.407384 -65.682572 -11.851829 -66.607737 C -6.666644 -69.074842 -0.370348 -71.233559 4.814837 -73.392276 C 9.629652 -74.625829 14.444466 -77.092934 18.14817 -79.868428 C 13.333355 -79.560039 13.333355 -78.634875 8.14817 -78.326487 C 15.925948 -78.943263 21.111133 -79.868428 30.000021 -79.868428 C 37.407429 -82.335533 44.444465 -85.111026 51.481502 -88.194908 C 54.444465 -91.895566 55.925946 -91.587178 48.148169 -91.587178 C 54.814835 -93.745895 64.444464 -94.67106 70.00002 -96.521389 C 76.666686 -98.063329 83.333353 -100.222046 90.000019 -103.305928 C 94.814834 -106.38981 97.777796 -110.398856 103.333352 -113.174349 C 109.629648 -108.856915 109.629648 -108.240139 121.481499 -108.240139 C 130.740758 -108.240139 136.666684 -110.707244 141.481498 -115.024678 C 148.518535 -116.875007 150.000017 -120.267277 158.148164 -121.50083 C 165.925942 -120.267277 173.703719 -119.650501 181.481497 -119.958889 C 189.629645 -122.117606 197.037052 -125.818264 202.962978 -129.82731 C 208.148162 -132.294416 214.444459 -135.995074 219.629644 -138.153791 C 225.92594 -135.069909 230.740754 -132.602804 238.148161 -131.369251 C 245.925939 -132.602804 250.000013 -136.61185 256.296309 -138.153791 C 260.370383 -142.471225 265.555568 -145.246719 271.481493 -146.480271 C 281.111123 -151.414482 280.370382 -144.93833 284.814826 -140.00412 C 289.629641 -134.761521 295.925937 -137.228626 302.962974 -134.761521 C 307.037047 -128.902146 309.62964 -124.8931 314.814825 -121.50083 C 318.518528 -116.875007 323.333343 -115.641455 331.481491 -115.024678 C 334.444454 -111.015632 331.851861 -108.240139 338.148157 -106.698198 C 340.370379 -103.922704 344.444453 -102.99754 348.148157 -101.455599 " transform="matrix(0.0105469,0,0,0.0126667,8.023437,4.152292)"/>
<path style="fill:none;stroke-width:3.1;stroke-linecap:butt;stroke-linejoin:miter;stroke:rgb(47.058824%,14.901961%,0%);stroke-opacity:1;stroke-miterlimit:4;" d="M 468.518523 30.842924 L 468.518523 31.4597 C 468.518523 29.300983 468.518523 30.534535 470.370374 34.85197 C 471.111115 38.552628 469.629634 38.24424 467.777782 40.711345 C 467.777782 44.412003 467.037041 47.187496 467.037041 51.504931 C 466.666671 55.205589 464.444449 58.597858 462.962967 61.68174 C 461.481486 64.765622 454.444449 66.615951 454.444449 70.933385 C 450.740745 71.858549 450.370375 69.391444 450.370375 64.765622 C 448.148153 62.298516 447.037042 58.597858 445.55556 54.8972 C 444.444449 51.504931 441.851857 49.037825 440.370375 45.028779 C 438.148153 41.328121 435.925931 40.094568 433.703709 35.777134 C 432.962968 33.926805 432.962968 31.151312 431.481487 29.917759 C 428.518524 26.525489 426.666672 25.908713 422.222228 25.908713 C 418.518524 26.525489 417.037043 28.06743 413.70371 28.992595 C 411.111117 29.917759 406.296303 29.609371 402.96297 30.842924 C 402.222229 32.076476 404.444451 32.693253 405.555562 35.777134 C 403.33334 37.627463 402.592599 40.711345 401.481488 43.17845 C 399.259266 45.953944 398.148155 46.879108 397.037044 50.888154 C 398.518525 53.046871 397.407414 56.130753 395.555562 58.28947 C 394.814822 61.990128 392.96297 64.148845 392.222229 67.541115 C 389.629637 69.391444 388.518526 70.933385 386.296304 74.017267 C 384.444452 76.79276 382.5926 76.484372 378.148156 76.484372 C 374.444452 75.559207 373.703711 73.708878 370.370378 72.475326 C 370.370378 71.550161 369.629638 70.933385 368.888897 70.933385 " transform="matrix(0.0105469,0,0,0.0126667,8.023437,4.152292)"/>
<path style=" stroke:none;fill-rule:evenodd;fill:rgb(50.588238%,18.039216%,0%);fill-opacity:1;" d="M 12.015625 4.96875 C 12.015625 4.96875 12 5.164062 11.875 5.296875 C 11.75 5.425781 11.492188 5.578125 11.492188 5.578125 C 11.492188 5.578125 11.839844 5.410156 11.875 5.445312 C 11.910156 5.480469 11.652344 5.773438 11.652344 5.773438 C 11.652344 5.773438 11.992188 5.46875 12.035156 5.46875 C 12.078125 5.46875 12.175781 5.765625 12.214844 5.757812 C 12.253906 5.75 12.136719 5.382812 12.152344 5.324219 C 12.167969 5.269531 12.152344 4.957031 12.152344 4.957031 L 12.019531 4.96875 Z M 12.816406 4.945312 C 12.816406 4.945312 12.800781 5.152344 12.675781 5.292969 C 12.550781 5.429688 12.292969 5.59375 12.292969 5.59375 C 12.292969 5.59375 12.640625 5.414062 12.675781 5.453125 C 12.710938 5.496094 12.453125 5.804688 12.453125 5.804688 C 12.453125 5.804688 12.792969 5.476562 12.835938 5.476562 C 12.878906 5.476562 12.976562 5.796875 13.015625 5.785156 C 13.054688 5.777344 12.9375 5.382812 12.953125 5.324219 C 12.96875 5.261719 12.953125 4.929688 12.953125 4.929688 Z M 11.695312 3.042969 C 11.695312 3.078125 11.65625 3.109375 11.613281 3.109375 C 11.570312 3.109375 11.527344 3.078125 11.527344 3.039062 C 11.527344 3 11.566406 2.96875 11.613281 2.96875 C 11.660156 2.96875 11.695312 3 11.695312 3.039062 Z M 11.695312 3.042969 "/>
</g>
</svg>
