<svg xmlns="http://www.w3.org/2000/svg" width="25" height="px" viewBox="0 0 25 19"><path d="M0 0h25v19H0z" style="fill:#ffe800;fill-opacity:1;stroke:none"/><path d="M0 9.5h25V19H0Zm0 0" style="stroke:none;fill-rule:evenodd;fill:#00148e;fill-opacity:1"/><path d="M0 14.25h25V19H0Zm0 0" style="stroke:none;fill-rule:evenodd;fill:#da0010;fill-opacity:1"/><path d="m10.531 11.512-2.836 3.027-.047-.062 2.829-3.028.046.063Zm1.969.492-3.703 3.96-.063-.062 3.7-3.96Zm0 0" style="stroke:none;fill-rule:evenodd;fill:#000;fill-opacity:1"/><path d="m478.299 60.19.131 88.909 17.867 88.493 16.899-88.829.582-88.408Zm0 0" style="fill-rule:evenodd;fill:gray;fill-opacity:1;stroke-width:4.1;stroke-linecap:butt;stroke-linejoin:miter;stroke:#000;stroke-opacity:1;stroke-miterlimit:4" transform="matrix(-.00273 -.00277 -.0039 .00396 10.352 17.005)"/><path d="m478.149 60.296.131 88.908 17.867 88.493 17.603-89.322-.122-87.914Zm0 0" style="fill-rule:evenodd;fill:gray;fill-opacity:1;stroke-width:4.1;stroke-linecap:butt;stroke-linejoin:miter;stroke:#000;stroke-opacity:1;stroke-miterlimit:4" transform="matrix(-.00273 -.00277 -.0039 .00396 9.398 15.457)"/><path d="M301.111 272.765s-17.555 336.606 53.111 336.606c70.89 0 106.445-35.31 106.445-35.31l-.89-185.033Zm0 0" style="fill-rule:evenodd;fill:#ffdf00;fill-opacity:1;stroke-width:1.25;stroke-linecap:butt;stroke-linejoin:miter;stroke:#000;stroke-opacity:1;stroke-miterlimit:4" transform="matrix(.01758 0 0 .02533 2.828 -2.367)"/><path d="M344.444 304.22c0 17.733-7.777 269.84 27.556 269.84s88.667-17.732 88.667-17.732l-.89-167.3Zm0 0" style="fill-rule:evenodd;fill:#0000c4;fill-opacity:1;stroke-width:1.25;stroke-linecap:butt;stroke-linejoin:miter;stroke:#000;stroke-opacity:1;stroke-miterlimit:4" transform="matrix(.01758 0 0 .02533 2.828 -2.367)"/><path d="M367.556 321.182c0 17.732 4.444 217.414 40 217.414h53.11l-.888-149.568Zm0 0" style="fill-rule:evenodd;fill:#e10000;fill-opacity:1;stroke-width:1.25;stroke-linecap:butt;stroke-linejoin:miter;stroke:#000;stroke-opacity:1;stroke-miterlimit:4" transform="matrix(.01758 0 0 .02533 2.828 -2.367)"/><path d="m8.055 4.59 2.828 3.031.05-.066-2.828-3.028Zm0 0" style="stroke:none;fill-rule:evenodd;fill:#000;fill-opacity:1"/><path d="M301.207 272.871s-35.345 336.482 70.862 336.482c88.448 0 88.448-53.003 106.207-53.003l-17.759-123.992Zm0 0" style="fill-rule:evenodd;fill:#ffdf00;fill-opacity:1;stroke-width:1.25;stroke-linecap:butt;stroke-linejoin:miter;stroke:#000;stroke-opacity:1;stroke-miterlimit:4" transform="matrix(.02266 0 0 .02454 .375 -.404)"/><path d="M269.646 155.165c1.01.087 28.249-94.007 118.857-147.143" style="fill:none;stroke-width:2.3;stroke-linecap:butt;stroke-linejoin:miter;stroke:#000;stroke-opacity:1;stroke-miterlimit:4" transform="matrix(.01563 -.00119 -.00195 .01385 5.277 5.835)"/><path d="M421.418-20.328c-.16 18.075-4.466 31.75-11.501 45.367-5.644-18.033-8.803-27.226-9.152-45.396.161-18.075 6.944-34.907 12.614-48.553 2.392 12.217 8.036 30.25 8.039 48.582Zm0 0" style="fill-rule:evenodd;fill:#005b00;fill-opacity:1;stroke-width:1.25;stroke-linecap:butt;stroke-linejoin:miter;stroke:#000;stroke-opacity:1;stroke-miterlimit:4" transform="matrix(.00547 -.0087 .01172 .00554 6.871 10.189)"/><path d="M454.17-169.506c-.027 4.048-3.714 7.685-8.697 7.655-4.323-.22-8.267-3.12-8.24-7.168.27-4.486 3.713-7.684 8.697-7.655 4.322.22 8.266 3.12 8.24 7.168Zm0 0" style="fill-rule:evenodd;fill:red;fill-opacity:1;stroke-width:1.25;stroke-linecap:butt;stroke-linejoin:miter;stroke:#000;stroke-opacity:1;stroke-miterlimit:4" transform="matrix(.00703 -.00396 .0039 .00673 6.938 10.161)"/><path d="M421.372-20.407c-.125 18.287-4.723 31.92-11.154 45.324-5.74-17.949-9.088-27.198-9.23-45.089.125-18.287 6.703-35.332 12.523-48.812 2.247 12.34 8.158 30.526 7.861 48.577Zm0 0" style="fill-rule:evenodd;fill:#005b00;fill-opacity:1;stroke-width:1.25;stroke-linecap:butt;stroke-linejoin:miter;stroke:#000;stroke-opacity:1;stroke-miterlimit:4" transform="matrix(.00703 .00475 -.00508 .01306 7.07 3.816)"/><path d="M421.106-20.402c.282 18.267-4.371 31.9-10.818 45.368-6.153-18.203-9.502-27.18-9.187-45.392-.229-17.964 6.77-34.97 12.021-48.549 2.797 12.515 8.299 30.36 7.984 48.573Zm0 0" style="fill-rule:evenodd;fill:#005b00;fill-opacity:1;stroke-width:1.25;stroke-linecap:butt;stroke-linejoin:miter;stroke:#000;stroke-opacity:1;stroke-miterlimit:4" transform="matrix(.00664 -.00119 -.00117 .01306 7.004 6.306)"/><path d="M421.126-20.19c.38 17.78-4.236 31.445-11.433 45.376-5.115-18.276-8.964-27.282-8.67-45.413-.013-18.24 6.864-35.224 12.404-48.563 2.262 11.974 7.994 30.468 7.7 48.6Zm0 0" style="fill-rule:evenodd;fill:#005b00;fill-opacity:1;stroke-width:1.25;stroke-linecap:butt;stroke-linejoin:miter;stroke:#000;stroke-opacity:1;stroke-miterlimit:4" transform="matrix(.00234 .0099 -.00664 .00792 8.906 1.801)"/><path d="M421.284-20.284c-.05 18.05-4.56 31.56-11.284 45.284-5.417-18.083-8.87-27.13-9.093-45.407.05-18.05 6.93-34.93 12.436-48.436 2.302 12.198 8.216 30.284 7.941 48.559Zm0 0" style="fill-rule:evenodd;fill:#005b00;fill-opacity:1;stroke-width:1.25;stroke-linecap:butt;stroke-linejoin:miter;stroke:#000;stroke-opacity:1;stroke-miterlimit:4" transform="matrix(.00781 -.00792 .00781 .0095 5.871 9.54)"/><path d="M421.341-20.38c.072 18.336-4.75 31.78-11.177 45.436-5.736-18.153-9.056-27.231-9.377-45.348.13-18.114 7.135-35.08 12.659-48.74 2.288 12.386 8.025 30.538 7.895 48.652Zm0 0" style="fill-rule:evenodd;fill:#005b00;fill-opacity:1;stroke-width:1.25;stroke-linecap:butt;stroke-linejoin:miter;stroke:#000;stroke-opacity:1;stroke-miterlimit:4" transform="matrix(.0086 -.0087 .00977 .00792 5.297 11.166)"/><path d="M421.347-20.248c.121 18.157-4.513 31.632-11.39 45.192-5.419-18.044-8.939-27.12-9.06-45.278.07-17.908 6.823-35.13 12.58-48.647 2.14 12.283 8.06 30.479 7.87 48.733Zm0 0" style="fill-rule:evenodd;fill:#005b00;fill-opacity:1;stroke-width:1.25;stroke-linecap:butt;stroke-linejoin:miter;stroke:#000;stroke-opacity:1;stroke-miterlimit:4" transform="matrix(.01016 .00396 -.00781 .01267 5.11 5.846)"/><path d="M421.531-20.22c-.132 18.063-4.636 31.577-11.674 45.153-5.263-18.092-8.61-27.161-9.03-45.17.132-18.063 7.061-35.128 12.67-48.749 2.252 12.306 7.841 30.55 8.034 48.766Zm0 0" style="fill-rule:evenodd;fill:#005b00;fill-opacity:1;stroke-width:1.25;stroke-linecap:butt;stroke-linejoin:miter;stroke:#000;stroke-opacity:1;stroke-miterlimit:4" transform="matrix(.00586 .00792 -.0125 .0087 6.973 4.089)"/><path d="M421.785-20.408c-.572 18.244-5.024 32.128-11.62 45.502-5.506-18.146-9.33-27.474-9.355-45.345.573-18.245 7.06-35.252 12.543-48.547 2.386 12.078 7.892 30.224 8.432 48.39Zm0 0" style="fill-rule:evenodd;fill:#005b00;fill-opacity:1;stroke-width:1.25;stroke-linecap:butt;stroke-linejoin:miter;stroke:#000;stroke-opacity:1;stroke-miterlimit:4" transform="matrix(.00313 .00396 -.00547 .00633 9.793 4.061)"/><path d="M421.66-20.426c-.604 17.996-4.459 31.928-11.778 45.279-5.396-17.995-8.826-27.283-9.223-45.279.604-17.995 7.137-34.83 12.991-48.761 2.217 12.77 7.613 30.766 8.01 48.761Zm0 0" style="fill-rule:evenodd;fill:#005b00;fill-opacity:1;stroke-width:1.25;stroke-linecap:butt;stroke-linejoin:miter;stroke:#000;stroke-opacity:1;stroke-miterlimit:4" transform="matrix(.0039 0 -.00313 .00673 9.297 5.4)"/><path d="M421.1-20c.369 17.857-4.567 31.429-10.912 45-6.008-17.857-9.16-27.143-9.53-45 .744-18.571 7.015-35.714 12.656-49.286C415.835-56.429 421.139-38.57 421.1-20Zm0 0" style="fill-rule:evenodd;fill:#005b00;fill-opacity:1;stroke-width:1.25;stroke-linecap:butt;stroke-linejoin:miter;stroke:#000;stroke-opacity:1;stroke-miterlimit:4" transform="matrix(0 .00554 -.00547 .00317 11.227 3.21)"/><path d="M421.809-20.294c-.673 18.212-5.187 31.748-11.937 45.458-5.187-18.252-9.246-27.389-8.995-45.319-.023-18.406 6.632-35.342 12.264-48.965 2.613 12.731 8.223 30.702 8.668 48.826Zm0 0" style="fill-rule:evenodd;fill:#005b00;fill-opacity:1;stroke-width:1.25;stroke-linecap:butt;stroke-linejoin:miter;stroke:#000;stroke-opacity:1;stroke-miterlimit:4" transform="matrix(.00273 .00396 -.00977 .00594 8.621 4.576)"/><path d="M421.555-20.296c-.28 18.071-4.68 31.792-11.67 45.402-5.433-18.2-8.746-27.385-9-45.363-.05-18.202 6.86-35.177 12.453-48.73 2.2 12.381 8.167 30.49 8.217 48.69Zm0 0" style="fill-rule:evenodd;fill:#005b00;fill-opacity:1;stroke-width:1.25;stroke-linecap:butt;stroke-linejoin:miter;stroke:#000;stroke-opacity:1;stroke-miterlimit:4" transform="matrix(.00508 .0087 -.0129 .00792 8.086 2.775)"/><path d="M269.664 155.126c1.108.087 28.193-94.054 118.816-147.04" style="fill:none;stroke-width:2.4;stroke-linecap:butt;stroke-linejoin:miter;stroke:#000;stroke-opacity:1;stroke-miterlimit:4" transform="matrix(.01367 -.00792 .00547 .01108 4.367 9.017)"/><path d="M454.102-169.383c-.027 4.048-3.714 7.684-8.454 7.217-4.566.218-8.267-3.12-8.24-7.168s3.47-7.247 8.454-7.218c4.565-.217 8.266 3.121 8.24 7.169Zm0 0" style="fill-rule:evenodd;fill:red;fill-opacity:1;stroke-width:1.25;stroke-linecap:butt;stroke-linejoin:miter;stroke:#000;stroke-opacity:1;stroke-miterlimit:4" transform="matrix(.00703 -.00396 .0039 .00673 7.824 8.89)"/><path d="M454.14-169.453c-.026 4.048-3.713 7.684-8.697 7.655-4.322-.22-8.023-3.559-7.996-7.606.026-4.048 3.47-7.247 8.454-7.218 4.565-.217 8.266 3.121 8.24 7.169Zm0 0" style="fill-rule:evenodd;fill:red;fill-opacity:1;stroke-width:1.25;stroke-linecap:butt;stroke-linejoin:miter;stroke:#000;stroke-opacity:1;stroke-miterlimit:4" transform="matrix(.00703 -.00396 .0039 .00673 8.246 8.641)"/><path d="M454.19-169.115c.135 3.9-3.903 6.866-8.495 7.13-4.592.263-8.322-3.366-8.457-7.265-.136-3.9 3.509-7.17 8.495-7.13 4.592-.263 8.531 2.768 8.457 7.265Zm0 0" style="fill-rule:evenodd;fill:red;fill-opacity:1;stroke-width:1.25;stroke-linecap:butt;stroke-linejoin:miter;stroke:#000;stroke-opacity:1;stroke-miterlimit:4" transform="matrix(.00781 -.00396 .00273 .00515 6.516 9.211)"/><path d="M454.151-169.003c.135 3.9-3.903 6.866-8.495 7.129s-8.322-3.365-8.457-7.265c.074-4.497 3.718-7.767 8.495-7.129 4.592-.263 8.531 2.767 8.457 7.265Zm0 0" style="fill-rule:evenodd;fill:red;fill-opacity:1;stroke-width:1.25;stroke-linecap:butt;stroke-linejoin:miter;stroke:#000;stroke-opacity:1;stroke-miterlimit:4" transform="matrix(.00781 -.00396 .00273 .00515 6.64 9.156)"/><path d="M454.235-169.242c.135 3.9-4.113 7.464-8.495 7.129-4.592.263-8.532-2.767-8.458-7.265-.135-3.9 3.51-7.17 8.495-7.13 4.593-.262 8.323 3.366 8.458 7.266Zm0 0" style="fill-rule:evenodd;fill:red;fill-opacity:1;stroke-width:1.25;stroke-linecap:butt;stroke-linejoin:miter;stroke:#000;stroke-opacity:1;stroke-miterlimit:4" transform="matrix(.00781 -.00396 .00273 .00515 6.566 9.274)"/><path d="M252.7 167.27c.3.987 0 1.776-1 2.368-1.5.888-2 .198-2.4-.69-.4-.987 0-1.876 1-2.37 1-.492 2-.196 2.3.692Zm0 0" style="fill-rule:evenodd;fill:red;fill-opacity:1;stroke-width:.3;stroke-linecap:butt;stroke-linejoin:miter;stroke:#000;stroke-opacity:1;stroke-miterlimit:4" transform="scale(.03906 .03958)"/><path d="M255 164.901c.3.888 0 1.678-1 2.27-1.5.888-2 .197-2.5-.592-.5-.79 0-1.875 1-2.368 1-.494 2-.1 2.4.69Zm0 0" style="fill-rule:evenodd;fill:red;fill-opacity:1;stroke-width:.3;stroke-linecap:butt;stroke-linejoin:miter;stroke:#000;stroke-opacity:1;stroke-miterlimit:4" transform="scale(.03906 .03958)"/><path d="M255.5 165.987c.4.79 0 1.875-1 2.27-1 .394-2 .197-2.4-.593-.4-.789 0-1.776 1-2.27 1-.493 2-.197 2.4.593Zm0 0" style="fill-rule:evenodd;fill:red;fill-opacity:1;stroke-width:.3;stroke-linecap:butt;stroke-linejoin:miter;stroke:#000;stroke-opacity:1;stroke-miterlimit:4" transform="scale(.03906 .03958)"/><path d="M336.552 308.366c0 17.668-35.345 212.49 53.276 265.651 35.344 17.668 88.448-17.667 88.448 0l-17.759-141.66Zm0 0" style="fill-rule:evenodd;fill:#0000c4;fill-opacity:1;stroke-width:1.25;stroke-linecap:butt;stroke-linejoin:miter;stroke:#000;stroke-opacity:1;stroke-miterlimit:4" transform="matrix(.02266 0 0 .02454 .375 -.404)"/><path d="M372.069 343.701c0 17.668-17.759 159.327 35.345 194.822 35.517 35.494 124.138 25.944 124.138 25.944l-71.035-132.11Zm0 0" style="fill-rule:evenodd;fill:#e10000;fill-opacity:1;stroke-width:1.25;stroke-linecap:butt;stroke-linejoin:miter;stroke:#000;stroke-opacity:1;stroke-miterlimit:4" transform="matrix(.02266 0 0 .02454 .375 -.404)"/><path d="m7.18 6.254 3.703 3.957.066-.063-3.703-3.953Zm0 0" style="stroke:none;fill-rule:evenodd;fill:#000;fill-opacity:1"/><path d="m460.531 184.257 17.552 35.427.084 17.882c-.362-1.494.085 17.881-17.655 17.717s-17.551-35.428-17.551-35.428-17.571 35.599-17.759 70.862c.17 35.763 17.989 52.816 17.989 52.816s-2.655-36.283 17.57-35.599c20.23 1.678 17.825 18.046 17.825 18.046l-.188 35.263 17.74.165.037-142.053 17.927-35.098-27.57-53.402Zm0 0" style="fill-rule:evenodd;fill:#cececc;fill-opacity:1;stroke-width:1.25;stroke-linecap:butt;stroke-linejoin:miter;stroke:#000;stroke-opacity:1;stroke-miterlimit:4" transform="matrix(.00547 -.00554 .0039 .00396 3.371 7.608)"/><path d="m557.912 95.777-26.08 70.772L549.14 219.9l-35.149-17.75 34.921 52.913.082 35.656 17.921.056-.081-35.656 35.721-53.373-35.802 17.716 18.108-52.934Zm0 0" style="fill-rule:evenodd;fill:#cececc;fill-opacity:1;stroke-width:1.25;stroke-linecap:butt;stroke-linejoin:miter;stroke:#000;stroke-opacity:1;stroke-miterlimit:4" transform="matrix(.0039 -.00633 .00547 .00396 4.453 7.275)"/><path d="M422.5 137.07c0 1.974-2 3.619-4.25 3.619s-4.5-1.645-4.5-3.619 2-3.947 4.5-3.947c2.25 0 4.25 1.645 4.25 3.947Zm-6.25 7.895c0 35.855 21 187.829 22.75 191.447 0 4.606-5 6.25-7.25.987-6.5-17.434-20.75-160.197-21.25-193.42-.25-13.817 3.75-14.804 8.25-14.475 3.75.33 8.25 3.619 8.25 7.895 0 4.934-5.75 8.553-10.75 7.566Zm0 0" style="fill-rule:evenodd;fill:#e10000;fill-opacity:1;stroke-width:1.25;stroke-linecap:butt;stroke-linejoin:miter;stroke:#000;stroke-opacity:1;stroke-miterlimit:4" transform="matrix(.01563 0 0 .01188 1.71 2.763)"/><path d="M422.534 137.085c-.01 1.977-1.99 3.624-4.313 3.74-2.438-.174-4.404-1.821-4.394-3.798s1.875-3.915 4.313-3.74c2.322-.116 4.288 1.53 4.394 3.798Zm-6.19 7.655c31.41 61.57 48.8 166.958 50.292 170.737.096 4.244-4.673 6.163-7.086.717-2.307-3.179-12.654-100.058-49.007-172.151-.4-13.683 3.668-14.71 8.195-14.574 3.83.368 8.341 3.798 8.438 8.043-.14 4.98-5.845 8.527-10.831 7.228Zm0 0" style="fill-rule:evenodd;fill:#0000c4;fill-opacity:1;stroke-width:1.25;stroke-linecap:butt;stroke-linejoin:miter;stroke:#000;stroke-opacity:1;stroke-miterlimit:4" transform="matrix(.01484 .00396 -.00586 .01188 2.969 1.512)"/><path d="M186.7 151.48c0 .987-1 1.974-2.2 1.974s-2.2-.987-2.2-1.974 1-1.776 2.2-1.776q1.95.148 2.1 1.776Zm-3.2 4.046c0 17.862 10.5 93.849 11.3 95.823 0 2.17-2.3 3.158-3.5.394-3.3-8.782-10.4-80.032-10.7-96.611-.1-6.908 1.9-7.402 4.2-7.303 1.9.099 4.1 1.875 4.1 3.947 0 2.467-2.9 4.342-5.4 3.75Zm0 0" style="fill-rule:evenodd;fill:#e10000;fill-opacity:1;stroke-width:.7;stroke-linecap:butt;stroke-linejoin:miter;stroke:#000;stroke-opacity:1;stroke-miterlimit:4" transform="scale(.03906 .03958)"/><path d="M422.517 137.04c.02 2.05-1.997 3.708-4.328 3.614-2.255.088-4.455-1.692-4.4-3.56-.02-2.05 1.921-3.89 4.436-3.853 2.255-.088 4.271 1.75 4.292 3.799Zm-6.282 7.925c31.57 61.269 48.83 166.69 50.421 170.51.117 4.28-4.632 6.382-6.982.743-2.622-3.293-12.806-100.234-49.217-172.12-.361-13.868 3.77-14.953 8.323-14.525 3.773.054 8.357 3.556 8.29 7.894-.025 4.942-5.794 8.595-10.835 7.498Zm0 0" style="fill-rule:evenodd;fill:#0000c4;fill-opacity:1;stroke-width:1.25;stroke-linecap:butt;stroke-linejoin:miter;stroke:#000;stroke-opacity:1;stroke-miterlimit:4" transform="matrix(.01875 .00594 -.00781 .019 .652 1.25)"/><path d="m14.469 11.512 2.832 3.027.05-.062-2.831-3.028Zm-1.969.492 3.703 3.96.063-.062-3.7-3.96Zm0 0" style="stroke:none;fill-rule:evenodd;fill:#000;fill-opacity:1"/><path d="m478.299 60.19.131 88.909 17.867 88.493 16.899-88.829.582-88.408Zm0 0" style="fill-rule:evenodd;fill:gray;fill-opacity:1;stroke-width:4.1;stroke-linecap:butt;stroke-linejoin:miter;stroke:#000;stroke-opacity:1;stroke-miterlimit:4" transform="matrix(.00273 -.00277 .0039 .00396 14.648 17.005)"/><path d="m478.149 60.296.131 88.908 17.867 88.493 17.603-89.322-.122-87.914Zm0 0" style="fill-rule:evenodd;fill:gray;fill-opacity:1;stroke-width:4.1;stroke-linecap:butt;stroke-linejoin:miter;stroke:#000;stroke-opacity:1;stroke-miterlimit:4" transform="matrix(.00273 -.00277 .0039 .00396 15.602 15.457)"/><path d="M301.111 272.765s-17.555 336.606 53.111 336.606c70.89 0 106.445-35.31 106.445-35.31l-.89-185.033Zm0 0" style="fill-rule:evenodd;fill:#ffdf00;fill-opacity:1;stroke-width:1.25;stroke-linecap:butt;stroke-linejoin:miter;stroke:#000;stroke-opacity:1;stroke-miterlimit:4" transform="matrix(-.01758 0 0 .02533 22.172 -2.367)"/><path d="M344.444 304.22c0 17.733-7.777 269.84 27.556 269.84s88.667-17.732 88.667-17.732l-.89-167.3Zm0 0" style="fill-rule:evenodd;fill:#0000c4;fill-opacity:1;stroke-width:1.25;stroke-linecap:butt;stroke-linejoin:miter;stroke:#000;stroke-opacity:1;stroke-miterlimit:4" transform="matrix(-.01758 0 0 .02533 22.172 -2.367)"/><path d="M367.556 321.182c0 17.732 4.444 217.414 40 217.414h53.11l-.888-149.568Zm0 0" style="fill-rule:evenodd;fill:#e10000;fill-opacity:1;stroke-width:1.25;stroke-linecap:butt;stroke-linejoin:miter;stroke:#000;stroke-opacity:1;stroke-miterlimit:4" transform="matrix(-.01758 0 0 .02533 22.172 -2.367)"/><path d="M16.945 4.59 14.117 7.62l-.05-.066 2.828-3.028Zm0 0" style="stroke:none;fill-rule:evenodd;fill:#000;fill-opacity:1"/><path d="M428.486-16.972s80.938 90.624 110.475 154.05 54.323 156.353 54.323 156.353 2.414-86.077-35.945-163.11C505.464 32.822 425.611-12.472 428.486-16.972Zm0 0" style="fill-rule:evenodd;fill:#005b00;fill-opacity:1;stroke-width:1.25;stroke-linecap:butt;stroke-linejoin:miter;stroke:#000;stroke-opacity:1;stroke-miterlimit:4" transform="matrix(.00625 -.00277 .00313 .01385 12.09 8.352)"/><path d="M428.48-17.085s81.21 90.826 110.532 154.195c29.8 63.429 54.776 156.354 54.776 156.354s2.129-86.083-36.469-162.947C505.055 32.7 425.867-12.477 428.48-17.085Zm0 0" style="fill-rule:evenodd;fill:#005b00;fill-opacity:1;stroke-width:1.25;stroke-linecap:butt;stroke-linejoin:miter;stroke:#000;stroke-opacity:1;stroke-miterlimit:4" transform="matrix(.00781 -.00198 .00273 .01583 11.387 7.228)"/><path d="M428.222-16.963S509.614 73.71 539.19 137.126s54.314 156.401 54.314 156.401 2.241-86.146-36.08-163.277C505.153 32.838 425.774-12.405 428.222-16.963Zm0 0" style="fill-rule:evenodd;fill:#005b00;fill-opacity:1;stroke-width:1.25;stroke-linecap:butt;stroke-linejoin:miter;stroke:#000;stroke-opacity:1;stroke-miterlimit:4" transform="matrix(.00898 .00554 -.00117 .01583 11.582 2.747)"/><path d="M428.155-16.932s81.547 90.657 110.868 154.149C568.746 200.68 593.728 293.4 593.728 293.4s2.083-86.042-36.558-163.028C505.38 32.752 425.8-12.51 428.155-16.932Zm0 0" style="fill-rule:evenodd;fill:#005b00;fill-opacity:1;stroke-width:1.25;stroke-linecap:butt;stroke-linejoin:miter;stroke:#000;stroke-opacity:1;stroke-miterlimit:4" transform="matrix(.00977 .00119 .00078 .01742 10.719 4.552)"/><path d="M428.404-17.18s81.285 90.782 110.934 154.2c29.147 63.663 54.196 156.384 54.196 156.384s2.032-85.856-36.25-163.126c-52.18-97.306-131.21-142.943-128.88-147.458Zm0 0" style="fill-rule:evenodd;fill:#005b00;fill-opacity:1;stroke-width:1.25;stroke-linecap:butt;stroke-linejoin:miter;stroke:#000;stroke-opacity:1;stroke-miterlimit:4" transform="matrix(.00703 .00673 -.00156 .01385 12.89 2.652)"/><path d="M428.305-17.003s81.201 90.79 110.757 154.194 54.413 156.168 54.413 156.168 2.503-85.856-36.12-163.076c-52.072-97.45-131.369-142.845-129.05-147.286Zm0 0" style="fill-rule:evenodd;fill:#005b00;fill-opacity:1;stroke-width:1.25;stroke-linecap:butt;stroke-linejoin:miter;stroke:#000;stroke-opacity:1;stroke-miterlimit:4" transform="matrix(.00898 0 .00117 .01583 10.96 5.617)"/><path d="M428.438-16.967S509.746 73.583 539 137.143c29.809 63.403 54.794 156.302 54.794 156.302s2.13-86.086-36.433-163.048C505.047 32.723 425.877-12.505 428.438-16.967Zm0 0" style="fill-rule:evenodd;fill:#005b00;fill-opacity:1;stroke-width:1.25;stroke-linecap:butt;stroke-linejoin:miter;stroke:#000;stroke-opacity:1;stroke-miterlimit:4" transform="matrix(.00781 -.00277 .00273 .01504 11.332 7.79)"/><path d="M428.259-17.035s81.32 90.72 110.968 154.128 54.424 156.303 54.424 156.303 1.988-85.953-36.23-163.08C505.274 32.902 426.127-12.508 428.259-17.035Zm0 0" style="fill-rule:evenodd;fill:#005b00;fill-opacity:1;stroke-width:1.25;stroke-linecap:butt;stroke-linejoin:miter;stroke:#000;stroke-opacity:1;stroke-miterlimit:4" transform="matrix(.00781 -.00119 .00195 .01583 11.434 6.603)"/><path d="M428.385-17.108S509.48 73.716 539.316 136.99c29.418 63.44 54.204 156.495 54.204 156.495s2.256-86.07-36.16-163.099C505.188 32.821 425.807-12.455 428.386-17.108Zm0 0" style="fill-rule:evenodd;fill:#005b00;fill-opacity:1;stroke-width:1.25;stroke-linecap:butt;stroke-linejoin:miter;stroke:#000;stroke-opacity:1;stroke-miterlimit:4" transform="matrix(.0086 .00594 -.00195 .01504 11.914 2.593)"/><path d="M428.333-17.056s81.25 90.797 110.834 154.27c29.583 63.475 54.583 156.179 54.583 156.179s2.083-85.913-36.25-162.971C505 32.769 425.833-12.511 428.333-17.056Zm0 0" style="fill-rule:evenodd;fill:#005b00;fill-opacity:1;stroke-width:1.25;stroke-linecap:butt;stroke-linejoin:miter;stroke:#000;stroke-opacity:1;stroke-miterlimit:4" transform="matrix(.00937 .00198 0 .01742 10.895 3.867)"/><path d="M428.119-16.997s81.462 90.81 110.922 154.281c29.461 63.472 54.516 156.127 54.516 156.127s2.012-85.965-36.38-163.077c-52.084-97.57-131.062-143.01-129.058-147.331Zm0 0" style="fill-rule:evenodd;fill:#005b00;fill-opacity:1;stroke-width:1.25;stroke-linecap:butt;stroke-linejoin:miter;stroke:#000;stroke-opacity:1;stroke-miterlimit:4" transform="matrix(.00664 .00673 -.00234 .01306 13.242 2.77)"/><path d="M428.333-16.992s81.25 90.674 110.834 154.08c29.583 63.405 54.583 156.399 54.583 156.399s2.083-86.206-36.25-162.99C505 32.71 425.833-12.427 428.333-16.993Zm0 0" style="fill-rule:evenodd;fill:#005b00;fill-opacity:1;stroke-width:1.25;stroke-linecap:butt;stroke-linejoin:miter;stroke:#000;stroke-opacity:1;stroke-miterlimit:4" transform="matrix(.00937 .0008 0 .01583 10.797 5.067)"/><path d="M301.207 272.871s-35.345 336.482 70.862 336.482c88.448 0 88.448-53.003 106.207-53.003l-17.759-123.992Zm0 0" style="fill-rule:evenodd;fill:#ffdf00;fill-opacity:1;stroke-width:1.25;stroke-linecap:butt;stroke-linejoin:miter;stroke:#000;stroke-opacity:1;stroke-miterlimit:4" transform="matrix(-.02266 0 0 .02454 24.625 -.404)"/><path d="M336.552 308.366c0 17.668-35.345 212.49 53.276 265.651 35.344 17.668 88.448-17.667 88.448 0l-17.759-141.66Zm0 0" style="fill-rule:evenodd;fill:#0000c4;fill-opacity:1;stroke-width:1.25;stroke-linecap:butt;stroke-linejoin:miter;stroke:#000;stroke-opacity:1;stroke-miterlimit:4" transform="matrix(-.02266 0 0 .02454 24.625 -.404)"/><path d="M372.069 343.701c0 17.668-17.759 159.327 35.345 194.822 35.517 35.494 124.138 25.944 124.138 25.944l-71.035-132.11Zm0 0" style="fill-rule:evenodd;fill:#e10000;fill-opacity:1;stroke-width:1.25;stroke-linecap:butt;stroke-linejoin:miter;stroke:#000;stroke-opacity:1;stroke-miterlimit:4" transform="matrix(-.02266 0 0 .02454 24.625 -.404)"/><path d="m17.82 6.254-3.703 3.957-.066-.063 3.703-3.953Zm0 0" style="stroke:none;fill-rule:evenodd;fill:#000;fill-opacity:1"/><path d="m460.531 184.257 17.552 35.427.084 17.882c-.362-1.494.085 17.881-17.655 17.717s-17.551-35.428-17.551-35.428-17.57 35.599-17.759 70.862c.17 35.763 17.989 52.816 17.989 52.816s-2.655-36.283 17.57-35.599c20.23 1.678 17.825 18.046 17.825 18.046l-.188 35.263 17.74.165.037-142.053 17.927-35.098-27.57-53.402Zm0 0" style="fill-rule:evenodd;fill:#cececc;fill-opacity:1;stroke-width:1.25;stroke-linecap:butt;stroke-linejoin:miter;stroke:#000;stroke-opacity:1;stroke-miterlimit:4" transform="matrix(-.00547 -.00554 -.0039 .00396 21.629 7.608)"/><path d="m557.912 95.777-26.08 70.772L549.14 219.9l-35.149-17.75 34.921 52.913.082 35.656 17.921.056-.081-35.656 35.721-53.373-35.802 17.716 18.108-52.934Zm0 0" style="fill-rule:evenodd;fill:#cececc;fill-opacity:1;stroke-width:1.25;stroke-linecap:butt;stroke-linejoin:miter;stroke:#000;stroke-opacity:1;stroke-miterlimit:4" transform="matrix(-.0039 -.00633 -.00547 .00396 20.547 7.275)"/><path d="M422.5 137.07c0 1.974-2 3.619-4.25 3.619s-4.5-1.645-4.5-3.619 2-3.947 4.5-3.947c2.25 0 4.25 1.645 4.25 3.947Zm-6.25 7.895c0 35.855 21 187.829 22.75 191.447 0 4.606-5 6.25-7.25.987-6.5-17.434-20.75-160.197-21.25-193.42-.25-13.817 3.75-14.804 8.25-14.475 3.75.33 8.25 3.619 8.25 7.895 0 4.934-5.75 8.553-10.75 7.566Zm0 0" style="fill-rule:evenodd;fill:#e10000;fill-opacity:1;stroke-width:1.25;stroke-linecap:butt;stroke-linejoin:miter;stroke:#000;stroke-opacity:1;stroke-miterlimit:4" transform="matrix(-.01563 0 0 .01188 23.293 2.763)"/><path d="M422.534 137.085c-.01 1.977-1.99 3.624-4.313 3.74-2.438-.174-4.404-1.821-4.394-3.798s1.875-3.915 4.313-3.74c2.322-.116 4.288 1.53 4.394 3.798Zm-6.19 7.655c31.41 61.57 48.8 166.958 50.292 170.737.096 4.244-4.673 6.163-7.086.717-2.307-3.179-12.654-100.058-49.007-172.151-.4-13.683 3.668-14.71 8.195-14.574 3.83.368 8.341 3.798 8.438 8.043-.14 4.98-5.845 8.527-10.831 7.228Zm0 0" style="fill-rule:evenodd;fill:#0000c4;fill-opacity:1;stroke-width:1.25;stroke-linecap:butt;stroke-linejoin:miter;stroke:#000;stroke-opacity:1;stroke-miterlimit:4" transform="matrix(-.01484 .00396 .00586 .01188 22.031 1.512)"/><path d="M453.4 151.48c0 .987 1 1.974 2.1 1.974s2.2-.987 2.2-1.974-1-1.776-2.2-1.776q-1.95.148-2.1 1.776Zm3 4.046c-2.4 32.073-6.1 64.046-11.2 95.823 0 2.17 2.3 3.158 3.5.394 3.3-8.782 10.4-80.032 10.7-96.611.1-6.908-1.9-7.402-4.2-7.303-1.9.099-4.1 1.875-4.1 3.947 0 2.467 2.9 4.342 5.4 3.75Zm0 0" style="fill-rule:evenodd;fill:#e10000;fill-opacity:1;stroke-width:.7;stroke-linecap:butt;stroke-linejoin:miter;stroke:#000;stroke-opacity:1;stroke-miterlimit:4" transform="scale(.03906 .03958)"/><path d="M422.517 137.04c.02 2.05-1.997 3.708-4.328 3.614-2.255.088-4.455-1.692-4.4-3.56-.02-2.05 1.921-3.89 4.436-3.853 2.255-.088 4.27 1.75 4.292 3.799Zm-6.282 7.925c31.57 61.269 48.83 166.69 50.421 170.51.117 4.28-4.632 6.382-6.982.743-2.622-3.293-12.806-100.234-49.217-172.12-.361-13.868 3.77-14.953 8.323-14.525 3.773.054 8.357 3.556 8.29 7.894-.025 4.942-5.794 8.595-10.835 7.498Zm0 0" style="fill-rule:evenodd;fill:#0000c4;fill-opacity:1;stroke-width:1.25;stroke-linecap:butt;stroke-linejoin:miter;stroke:#000;stroke-opacity:1;stroke-miterlimit:4" transform="matrix(-.01875 .00594 .00781 .019 24.348 1.25)"/><path d="M478.448 698.01c16.38 9.55 36.552 9.55 53.104 0V556.35h-35.518c17.76 53.003 17.76 106.324-17.758 141.66Zm0 0" style="fill-rule:evenodd;fill:#e10000;fill-opacity:1;stroke-width:1.25;stroke-linecap:butt;stroke-linejoin:miter;stroke:#000;stroke-opacity:1;stroke-miterlimit:4" transform="matrix(.02266 0 0 .02454 .375 -.404)"/><path d="M513.714 609.445c0 88.534-42.285 108.271-42.285 126.034 17.428 0 29.428-8.317 42.285-19.737 17.715-17.763 19.429-107.706 17.715-106.297Zm0 0" style="fill-rule:evenodd;fill:#0000c4;fill-opacity:1;stroke-width:1.25;stroke-linecap:butt;stroke-linejoin:miter;stroke:#000;stroke-opacity:1;stroke-miterlimit:4" transform="matrix(.01367 0 0 .0277 4.824 -3.563)"/><path d="M478.286 609.445c-.857 51.74-44.572 99.672-36.286 110.245 9.429 9.445 36.286-21.71 71.714-3.948 17.715-17.763 19.429-107.706 17.715-106.297Zm0 0" style="fill-rule:evenodd;fill:#0000c4;fill-opacity:1;stroke-width:1.25;stroke-linecap:butt;stroke-linejoin:miter;stroke:#000;stroke-opacity:1;stroke-miterlimit:4" transform="matrix(.01367 0 0 .0277 4.824 -3.563)"/><path d="M513.714 609.525c0 88.387-40.571 94.394-40.571 117.992 17.714 0 40.571-12.872 40.571-11.8 17.715-17.805 19.429-107.694 17.715-106.192Zm0 0" style="fill-rule:evenodd;fill:#ffdf00;fill-opacity:1;stroke-width:1.25;stroke-linecap:butt;stroke-linejoin:miter;stroke:#000;stroke-opacity:1;stroke-miterlimit:4" transform="matrix(.01367 0 0 .0182 4.395 2.019)"/><path d="M478.286 609.525c-.857 51.702-43.715 95.68-35.429 106.193 9.429 9.44 35.429-17.806 70.857 0 17.715-17.806 19.429-107.695 17.715-106.193Zm0 0" style="fill-rule:evenodd;fill:#ffdf00;fill-opacity:1;stroke-width:1.25;stroke-linecap:butt;stroke-linejoin:miter;stroke:#000;stroke-opacity:1;stroke-miterlimit:4" transform="matrix(.01367 0 0 .0182 4.395 2.019)"/><path d="M478.448 698.01c16.38 9.55 36.552 9.55 53.104 0V556.35h-35.517c17.758 53.003 17.758 106.324-17.76 141.66Zm0 0" style="fill-rule:evenodd;fill:#e10000;fill-opacity:1;stroke-width:1.25;stroke-linecap:butt;stroke-linejoin:miter;stroke:#000;stroke-opacity:1;stroke-miterlimit:4" transform="matrix(-.02266 0 0 .02454 24.625 -.404)"/><path d="M513.714 609.445c0 88.534-42.285 108.271-42.285 126.034 17.428 0 29.428-8.317 42.285-19.737 17.715-17.763 19.429-107.706 17.715-106.297Zm0 0" style="fill-rule:evenodd;fill:#0000c4;fill-opacity:1;stroke-width:1.25;stroke-linecap:butt;stroke-linejoin:miter;stroke:#000;stroke-opacity:1;stroke-miterlimit:4" transform="matrix(-.01367 0 0 .0277 20.176 -3.563)"/><path d="M478.286 609.445c-.857 51.74-44.572 99.672-36.286 110.245 9.429 9.445 36.286-21.71 71.714-3.948 17.715-17.763 19.429-107.706 17.715-106.297Zm0 0" style="fill-rule:evenodd;fill:#0000c4;fill-opacity:1;stroke-width:1.25;stroke-linecap:butt;stroke-linejoin:miter;stroke:#000;stroke-opacity:1;stroke-miterlimit:4" transform="matrix(-.01367 0 0 .0277 20.176 -3.563)"/><path d="M513.714 609.525c0 88.387-40.571 94.394-40.571 117.992 17.714 0 40.571-12.872 40.571-11.8 17.715-17.805 19.429-107.694 17.715-106.192Zm0 0" style="fill-rule:evenodd;fill:#ffdf00;fill-opacity:1;stroke-width:1.25;stroke-linecap:butt;stroke-linejoin:miter;stroke:#000;stroke-opacity:1;stroke-miterlimit:4" transform="matrix(-.01367 0 0 .0182 20.605 2.019)"/><path d="M478.286 609.525c-.857 51.702-43.715 95.68-35.429 106.193 9.429 9.44 35.429-17.806 70.857 0 17.715-17.806 19.429-107.695 17.715-106.193Zm0 0" style="fill-rule:evenodd;fill:#ffdf00;fill-opacity:1;stroke-width:1.25;stroke-linecap:butt;stroke-linejoin:miter;stroke:#000;stroke-opacity:1;stroke-miterlimit:4" transform="matrix(-.01367 0 0 .0182 20.605 2.019)"/><path d="m198.333 77.937-89.166 35.436 89.166 35.437 45-17.494 22.5 17.494 22.5 35.436 22.5-35.436 22.5-17.494H1535V95.879H333.333l-22.5-17.942c0-17.943 4.167-35.437 22.5-35.437H422.5c0-17.494-45-52.93-134.167-52.93-90 0-135 35.436-135 52.93h90c17.5 0 22.5 17.494 22.5 35.437l-22.5 17.942Zm0 0" style="fill-rule:evenodd;fill:#908f8a;fill-opacity:1;stroke-width:4.5;stroke-linecap:butt;stroke-linejoin:miter;stroke:#000;stroke-opacity:1;stroke-miterlimit:4" transform="matrix(.00469 0 0 .0087 8.508 12.84)"/><path d="M204.286 95.536H541.07v17.91H204.286Zm0-17.544H541.07v17.544H204.286Zm0-17.91H541.07v17.91H204.286Zm0-17.543H541.07v17.544H204.286Zm0-17.91H541.07v17.91H204.286Zm0-17.543H541.07V24.63H204.286Zm0-17.544H541.07V7.086H204.286Zm0 0" style="fill-rule:evenodd;fill:#b74d00;fill-opacity:1;stroke-width:1.8;stroke-linecap:butt;stroke-linejoin:miter;stroke:#000;stroke-opacity:1;stroke-miterlimit:4" transform="matrix(.01094 0 0 .01069 8.438 13.245)"/><path d="m423.2 60.297 137.6 123.904h20l-138-123.904Zm0 0" style="fill-rule:evenodd;fill:#908f8a;fill-opacity:1;stroke-width:3.3;stroke-linecap:butt;stroke-linejoin:miter;stroke:#000;stroke-opacity:1;stroke-miterlimit:4" transform="matrix(.00977 0 0 .01069 6.715 12.477)"/><path d="m423.2 60.292 137.6 123.904h20l-138-123.904Zm0 0" style="fill-rule:evenodd;fill:#908f8a;fill-opacity:1;stroke-width:3.3;stroke-linecap:butt;stroke-linejoin:miter;stroke:#000;stroke-opacity:1;stroke-miterlimit:4" transform="matrix(.00977 0 0 -.01069 6.715 15.129)"/><path d="M425.357 60.297v123.904h17.5V60.297Zm0 0" style="fill-rule:evenodd;fill:#908f8a;fill-opacity:1;stroke-width:3.1;stroke-linecap:butt;stroke-linejoin:miter;stroke:#000;stroke-opacity:1;stroke-miterlimit:4" transform="matrix(.01094 0 0 .01069 6.234 12.477)"/><path d="m423.2 60.297 137.6 123.904h20l-138-123.904Zm0 0" style="fill-rule:evenodd;fill:#908f8a;fill-opacity:1;stroke-width:3.3;stroke-linecap:butt;stroke-linejoin:miter;stroke:#000;stroke-opacity:1;stroke-miterlimit:4" transform="matrix(.00977 0 0 .01069 8.445 12.477)"/><path d="m423.2 60.292 137.6 123.904h20l-138-123.904Zm0 0" style="fill-rule:evenodd;fill:#908f8a;fill-opacity:1;stroke-width:3.3;stroke-linecap:butt;stroke-linejoin:miter;stroke:#000;stroke-opacity:1;stroke-miterlimit:4" transform="matrix(.00977 0 0 -.01069 8.445 15.129)"/><path d="M425.357 60.297v123.904h17.5V60.297Zm0 0" style="fill-rule:evenodd;fill:#908f8a;fill-opacity:1;stroke-width:3.1;stroke-linecap:butt;stroke-linejoin:miter;stroke:#000;stroke-opacity:1;stroke-miterlimit:4" transform="matrix(.01094 0 0 .01069 9.313 12.477)"/><path d="M425.357 60.297v123.904h17.5V60.297Zm0 0" style="fill-rule:evenodd;fill:#908f8a;fill-opacity:1;stroke-width:3.1;stroke-linecap:butt;stroke-linejoin:miter;stroke:#000;stroke-opacity:1;stroke-miterlimit:4" transform="matrix(.01094 0 0 .01069 7.969 12.477)"/><path d="M425.357 60.297v123.904h17.5V60.297Zm0 0" style="fill-rule:evenodd;fill:#908f8a;fill-opacity:1;stroke-width:3.1;stroke-linecap:butt;stroke-linejoin:miter;stroke:#000;stroke-opacity:1;stroke-miterlimit:4" transform="matrix(.01094 0 0 .01069 7.578 12.477)"/><path d="M655.517 396.863c0 88.02-55.69 159.487-123.965 159.487-68.449 0-124.138-71.467-124.138-159.487s55.517-159.486 124.138-159.486c68.448 0 123.965 71.466 123.965 159.486Zm-17.758 0c0 78.311-47.587 141.66-106.207 141.66-58.793 0-106.38-63.349-106.38-141.66 0-78.31 47.587-141.818 106.38-141.818 58.62 0 106.207 63.508 106.207 141.818Zm0 0" style="fill-rule:evenodd;fill:#ffdf00;fill-opacity:1;stroke-width:1.25;stroke-linecap:butt;stroke-linejoin:miter;stroke:#000;stroke-opacity:1;stroke-miterlimit:4" transform="matrix(.02266 0 0 .02454 .375 -.404)"/><path d="M579.828 249.951c-15-8.117-31.207-12.574-48.276-12.574s-33.449 4.457-48.276 12.574l6.896 16.394c25.69-14.802 57.07-14.802 82.759 0Zm0 0" style="fill-rule:evenodd;fill:#ffdf00;fill-opacity:1;stroke-width:1.25;stroke-linecap:butt;stroke-linejoin:miter;stroke:#000;stroke-opacity:1;stroke-miterlimit:4" transform="matrix(.02266 0 0 .02454 .375 -.404)"/><path d="M579.828 250.038c-15-8.117-31.207-12.574-48.276-12.574s-33.449 4.457-48.276 12.415l6.896 16.394a83.44 83.44 0 0 1 82.76 0Zm0 0" style="fill-rule:evenodd;fill:#ffdf00;fill-opacity:1;stroke-width:1.25;stroke-linecap:butt;stroke-linejoin:miter;stroke:#000;stroke-opacity:1;stroke-miterlimit:4" transform="matrix(.02266 0 0 -.02454 .383 18.972)"/><path d="M14.828 9.336c0 1.922-1.082 3.476-2.41 3.476s-2.406-1.554-2.406-3.476c0-1.918 1.078-3.48 2.406-3.48s2.41 1.558 2.41 3.48" style="stroke:none;fill-rule:evenodd;fill:#a7cfff;fill-opacity:1"/><path d="M637.759 396.863c1.207 26.581-4.483 39.633-11.897 67.328-1.896 3.025-11.034-6.525-16.38-11.141-5.344-4.775-7.758 4.138-14.654-3.025-6.552-7.48-10.862 1.91-15.862-4.297-5-6.048-51.38-7.003-51.38-7.481 4.655-2.228 28.276.16 24.483-11.142-4.31-11.778-31.035-.477-34.655-15.439-2.586-14.962-53.62-15.599-57.242-19.1 1.38 5.57 39.656 7.958 38.794 22.442-.863 6.049-37.587 7.64-41.207 12.734-3.104 6.207 28.965-1.75 30 5.89 0 3.342-4.656 0-21.207 5.093-8.449 2.546 15.345 10.345 6.379 14.643-8.965 4.298-28.276 6.208-27.586 7.958 3.103 8.914 44.827 19.578 40.69 21.01-14.828 6.686-22.587 10.983-29.656 14.803-20.862-29.287-31.724-64.304-31.207-100.276 31.725-11.3 25-13.688 83.621-13.688s77.931 2.228 128.966 13.688Zm0 0" style="fill-rule:evenodd;fill:#afff7b;fill-opacity:1;stroke-width:1.25;stroke-linecap:butt;stroke-linejoin:miter;stroke:#000;stroke-opacity:1;stroke-miterlimit:4" transform="matrix(.02266 0 0 .02454 .375 -.404)"/><path d="M637.759 396.863c-7.931 0-16.38 3.502-25 3.502s-17.414-3.502-26.38-3.502c-9.138 0-19.31 4.616-28.62 4.616s-17.414-4.616-26.725-4.616-18.62 3.502-27.758 3.502-18.276-3.502-27.242-3.502c-8.793 0-17.586 3.502-26.206 3.502-8.449 0-16.725-3.502-24.656-3.502.173-19.737 2.931-38.04 8.449-55.231 26.896 2.07 11.034-15.598 26.896-15.598 9.483-.478 18.793 3.024 25.345 9.709 2.414 0 14.483-11.301 27.931-9.71 13.448 1.592 8.448 27.218 26.38 28.492 8.965 6.844 14.31 11.141 26.724 14.006 17.758 1.592 68.448-2.546 68.62-.159 1.552 9.391 2.242 18.941 2.242 28.491Zm0 0" style="fill-rule:evenodd;fill:#fff;fill-opacity:1;stroke-width:1.25;stroke-linecap:butt;stroke-linejoin:miter;stroke:#000;stroke-opacity:1;stroke-miterlimit:4" transform="matrix(.02266 0 0 .02454 .375 -.404)"/><path d="M550 473.904c0-5.551 13.5-9.458 13.5-18.504s-12-9.251-12.5-17.886c0-3.495 10.5-6.99 15-7.402 4.5-.41 8.5 7.402 8.5 9.252 0 1.645-5-4.317-8.5-4.317-4-.206-12.5.616-12.5 2.261 0 3.29 15 7.607 13.5 18.915-1 11.307-12.5 14.597-12.5 18.092 0 3.29 5 12.746 5 12.746s-9.5-7.4-9.5-13.157Zm0 0" style="fill-rule:evenodd;fill:#000;fill-opacity:1;stroke-width:1.25;stroke-linecap:butt;stroke-linejoin:miter;stroke:#000;stroke-opacity:1;stroke-miterlimit:4" transform="matrix(.00781 0 0 .019 8.484 2.355)"/><path d="M550 473.914c0-5.55 13.5-9.457 13.5-18.503s-12-9.251-12.5-17.886c-1-3.907 12-6.58 16.5-6.785 4.5-.411 10 8.018 10 9.457 0 1.645-5.5-5.14-9.5-5.14-4-.205-14.5.617-14.5 2.262 0 3.29 15 7.607 13.5 18.915-1 11.307-12.5 14.597-12.5 18.092 0 3.29 5 12.746 5 12.746s-9.5-7.4-9.5-13.158Zm0 0" style="fill-rule:evenodd;fill:#000;fill-opacity:1;stroke-width:1.25;stroke-linecap:butt;stroke-linejoin:miter;stroke:#000;stroke-opacity:1;stroke-miterlimit:4" transform="matrix(-.00781 0 0 .019 17.414 2.34)"/><path d="M13.008 10.484c0 .051-.028.098-.059.098s-.054-.047-.054-.102.023-.093.054-.093.059.043.059.097m.664.36h.015v.77h-.019Zm.16-.067h.02v.782h-.02Zm0 0" style="stroke:none;fill-rule:evenodd;fill:#000;fill-opacity:1"/><path d="M13.773 11.129v-.02l.157.032v.02Zm0 0" style="stroke:none;fill-rule:evenodd;fill:#000;fill-opacity:1"/><path d="M497.241 478.024s26.035 11.301 31.725 18.145c5.69 6.845 3.448 6.845 3.448 6.845l57.758 2.228c0-3.343 10.173-3.343 12.414-11.301 2.242-8.118 2.242-10.187 2.242-10.187l-18.104 5.571 1.035-10.187h-15.69l-2.414 10.187-33.965-.955 2.241-27.377-6.724 1.114-1.035 25.945c-1.206 0-31.724-7.8-32.93-10.028Zm0 0" style="fill-rule:evenodd;fill:#b74d00;fill-opacity:1;stroke-width:1.25;stroke-linecap:butt;stroke-linejoin:miter;stroke:#000;stroke-opacity:1;stroke-miterlimit:4" transform="matrix(.02266 0 0 .02454 .273 -.376)"/><path d="M440.517 316.324s37.759-11.3 92.07-10.346c54.482.796 92.068 12.734 91.379 12.734-.863 0-10.518-18.464-10.518-18.464s-38.276-10.505-81.724-11.3c-43.103-.796-80.862 8.117-80 8.913Zm0 0" style="fill-rule:evenodd;fill:#fede00;fill-opacity:1;stroke-width:1.25;stroke-linecap:butt;stroke-linejoin:miter;stroke:#fede00;stroke-opacity:1;stroke-miterlimit:4" transform="matrix(.02266 0 0 .02454 .375 -.404)"/><path d="m11.953 6.723.531-.008.008.312-.531.012Zm-1.219.168-.187.312.633-.078-.051-.305-.395.078Zm.536-.118.53-.043.024.31-.527.046Zm1.91-.027-.528-.039-.02.316.528.032Zm1.14.195.192.383-.57-.144.062-.305.312.063Zm-.46-.117-.524-.066-.04.308.528.07Zm0 0" style="stroke:none;fill-rule:evenodd;fill:#38a9f9;fill-opacity:1"/><path d="m532.586 323.487-2.414-13.53-7.758 11.62 2.93-13.53-11.378 7.64 7.586-11.3-13.276 2.865 11.38-7.64-13.45-2.547 13.45-2.547-11.38-7.64 13.276 2.865-7.586-11.3 11.379 7.64-2.931-13.53 7.758 11.62 2.414-13.53 2.586 13.53 7.587-11.62-2.759 13.53 11.38-7.64-7.76 11.3 13.449-2.865-11.552 7.64 13.62 2.547-13.62 2.547 11.552 7.64-13.448-2.865 7.758 11.3-11.379-7.64 2.759 13.53-7.587-11.62Zm0 0" style="fill-rule:evenodd;fill:#ffdf00;fill-opacity:1;stroke-width:1.25;stroke-linecap:butt;stroke-linejoin:miter;stroke:#000;stroke-opacity:1;stroke-miterlimit:4" transform="matrix(.02266 0 0 .02454 .375 -.404)"/><path d="M547.018 293.9c0 9.276-6.667 16.776-14.737 16.776-8.246 0-14.913-7.5-14.913-16.776s6.667-16.974 14.913-16.974c8.07 0 14.737 7.698 14.737 17.171Zm0 0" style="fill-rule:evenodd;fill:#ffdf00;fill-opacity:1;stroke-width:1.25;stroke-linecap:butt;stroke-linejoin:miter;stroke:#000;stroke-opacity:1;stroke-miterlimit:4" transform="matrix(.02227 0 0 .0198 .715 .863)"/><path d="M12.527 6.754c0 .02-.05.039-.109.039s-.11-.02-.11-.04c0-.019.047-.038.11-.038.062 0 .11.015.11.039m.234 0q-.008.034-.078.039c-.07.004-.086-.02-.086-.04 0-.019.039-.038.082-.038s.082.015.082.039" style="stroke:none;fill-rule:evenodd;fill:#000;fill-opacity:1"/><path d="m529.374 297.944.845.747c-1.88-2.044-1.08-1.147 1.513 3.25 2.494-.568 3.142-1.525 4.863-2.489" style="fill:none;stroke-width:1.25;stroke-linecap:butt;stroke-linejoin:miter;stroke:#000;stroke-opacity:1;stroke-miterlimit:4" transform="matrix(.02187 -.00713 .00664 .02375 -1.043 3.586)"/><path d="m527.759 304.228.862.795c-1.897-1.91-1.035-.955 3.103 1.751 4.138.478 8.104-1.273 10.517-4.138" style="fill:none;stroke-width:1.25;stroke-linecap:butt;stroke-linejoin:miter;stroke:#000;stroke-opacity:1;stroke-miterlimit:4" transform="matrix(.02266 0 0 .02454 .34 -.404)"/><path d="M10.992 7.71s.04.317-.199.712c-.238.398-.2.254-.2.254s.11.219.09.219c-.019 0-.183-.2-.183-.2l-.195.22s.18-.337.16-.337-.055-.121-.055-.121l.145-.059s.218-.41.218-.39-.652.449-.652.449Zm.145.118c-.02 0 .09.317.183.477.09.16.09.351.09.351l.309.16-.399-.609.254.094Zm0 .828s.218.239.234.317.02.254.02.254l-.09-.2-.13.18s.095-.277.075-.297-.144.098-.144.098.054-.156.054-.172 0-.121-.02-.18m-1.09.551c.075-.059.22-.098.22-.098s-.09.157-.11.157-.07 0-.11-.059m2.505-.863s.472.293.472.312-.308-.136-.308-.136Zm-.852-.614c.04.02.692.57.672.57s-.289-.16-.289-.132v.133l-.148-.313-.036.117Zm.164.887.18.371.184-.039s-.344-.332-.364-.332m.563-.238.02.355s.105.102.105.082-.106-.418-.125-.437" style="stroke:none;fill-rule:evenodd;fill:#b7e1ff;fill-opacity:1"/><path d="M7.133 3.543s.82-.461 1.754-.8a12 12 0 0 1 2.117-.571c.273 0 .75.707.828.707s.395-.2.793-.2.629.317.71.317h.712c.078 0-.238-.785 0-.742.117.02 1.125.176 2.062.48.938.309 2.266.856 2.266.856s-2.168.289-2.75.207c-.078.039 0 .515-.117.305-.18-.04-.848-.149-.965-.149s-.34.137-.656.215c-.313.078-.711.2-.711.2l.515.816-.632.32s-.395-.945-.555-.945-.234.668-.434.625c-.199-.04-.273-.625-.433-.782-.157-.156-.992-.215-1.309-.289-.312-.078-.824-.14-1.101-.218-.278-.079-.555.199-.672.199s.156-.239.039-.278-.196.118-.274.118-.91-.157-.988-.196c-.078-.043.195-.195.117-.195Zm0 0" style="stroke:none;fill-rule:evenodd;fill:#984000;fill-opacity:1"/><path d="M463.182-64.853c0 20.875-20.91 38.335-45.91 38.335-25.454 0-45.908-17.46-45.908-38.335 0-21.255 20.454-38.335 45.909-38.335 25 0 45.909 17.08 45.909 38.335Zm0 0" style="fill-rule:evenodd;fill:gray;fill-opacity:1;stroke-width:3.7;stroke-linecap:butt;stroke-linejoin:miter;stroke:#772600;stroke-opacity:1;stroke-miterlimit:4" transform="matrix(.0086 0 0 .0103 9.047 3.82)"/><path d="M284.815-59.959c6.666-6.784 14.815-16.653 36.666-16.653 4.815-1.542 4.815-11.719 16.667-11.719 11.482 0 8.148 10.177 16.667 13.57 8.148 3.083 76.666-3.393 76.666-3.393s6.297 4.934 6.297 11.41c0 6.785-4.815 11.72-6.297 11.72-1.851 0-68.518-4.935-73.333-3.393-5.185 1.85-8.518 3.392-20 3.392-11.852 0-15.185-11.718-23.333-11.718-8.519 0-16.667-1.542-30 6.784Zm0 0" style="fill-rule:evenodd;fill:#984000;fill-opacity:1;stroke-width:5.3;stroke-linecap:butt;stroke-linejoin:miter;stroke:#772600;stroke-opacity:1;stroke-miterlimit:4" transform="matrix(.01055 0 0 .01267 8.023 3.986)"/><path d="M487.778-76.476h26.666c9.63 0 12.963 2.775 21.852 3.084h23.334c8.518-.309 12.963-2.159 21.481-3.084 14.445-.309 9.63-1.542 6.667-10.177-2.593-6.476-2.963-9.56-6.667-13.26-1.481-8.019-4.444-10.794-5.185-20.046-1.482-7.093-4.074-11.719-1.482-20.045 3.704 5.86 5.186 8.018 15.186 8.635 10 0 13.703-.309 20 3.084 4.444 4.934 10.74 3.392 20 3.392 7.407 1.542 8.889 5.242 14.814 8.326 7.037 4.01 11.482 4.935 21.482 4.935 8.148 1.542 15.185 2.775 20 4.934 4.444 5.242 11.111 6.476 20 6.784 5.185 0 9.26-.616 13.333-1.542 7.778.309 15.556 0 25.185 0 5.926 7.093 7.408 9.869 18.149 9.869 7.407 5.242 13.703 5.86 20 8.326h25.185c8.889.617 11.481 4.318 20 6.785 7.037 3.084 14.074 5.86 21.481 8.326 7.037 1.234 14.445 1.85 21.482 1.542 6.296 3.084 13.703 3.393 18.518 6.476 6.667 1.542 16.297 3.393 21.482 5.243 8.889 1.234 12.222 4.01 20 4.934 6.666 1.85-2.222 3.7-6.667 4.934-9.63-.308-10.37-4.009-20-4.934-4.815-3.084-12.593-2.467-20-4.934h-1.481c6.666 4.01 12.963 6.476 10 13.26-8.519 0-15.556-.924-23.334-1.541-8.518-1.85-12.222-3.393-21.481-3.393 9.259-2.467 11.481.309 18.148 3.393 2.222 8.018-2.963 4.934-11.852 4.934-7.407-2.776-12.222-6.168-21.481-6.785h-20c10 .309 11.851 4.01 18.148 8.327.74 2.775 0 2.467-4.815 3.392-5.185-4.626-11.852-5.86-20-8.326-7.778-.309-16.296-.925-23.333-3.393-4.815-.308-4.074-6.167 6.666 3.393 6.667 3.7 8.89 7.093 8.519 10.177-8.89-2.468-12.963-5.86-18.519-8.635-7.407-2.467-15.185-3.701-23.333-3.084-8.519-2.467 1.111-3.7 6.667 4.934 12.592 8.635-1.482 4.934-6.667 3.084-7.407-1.85-15.185-4.934-21.482-6.476-5.185-1.542-9.63-2.776-15.185-3.393 8.89.926 11.482 4.01 15.185 9.869 8.519 6.168-.37 3.392-8.518 1.85-4.815-4.317-11.482-6.784-14.815-11.719-8.518-4.009-8.889-8.943-3.333 1.85 1.11 3.393.74 10.794 1.481 11.72-5.926-6.785-4.815-8.635-11.481-8.635-4.815-3.084-11.482-5.551-15.185-9.869-6.297-.617-6.667-3.084-13.334-4.934 5.556 6.168 12.593 12.336 16.667 18.195 7.778 4.317 9.63 8.018 15.185 11.719 1.852 3.7 7.778 6.784 1.482 1.542-7.037-6.785-12.223-8.635-23.334-13.261-5.926-4.934-8.148-6.785-14.815-11.719-8.888-2.775-5.555-4.317 0 5.243 6.297 5.55 11.112 12.027 16.667 16.653 4.074 4.934 9.26 9.56 14.815 13.26 1.481 2.16 5.926 2.468 0 3.393-4.815-4.626-12.222-7.71-18.148-11.72-8.519-2.466-12.222-6.784-18.519-11.718-3.703-5.86-10.37-10.485-14.815-15.11-9.63-3.701 1.852 3.7 4.815 8.326 2.222 6.167 4.815 11.102 6.667 16.653 2.963 5.55-8.148-1.234-11.482-3.084-6.666-4.318-14.074-7.093-21.851-8.635-6.667-1.234-13.334-2.159-20-3.084-7.408-2.159 4.074 4.626 8.518 11.719 8.519 7.71-8.148 1.233-13.333 0a112.2 112.2 0 0 0-24.815-1.85c-10.74.616-3.333 2.158 0 6.784 2.963 2.467 5.556 8.018 4.815 9.868-7.037-.925-12.963-3.084-21.852-3.392-6.667 2.467-15.185 1.85-22.963 1.85-.37 4.01 1.481.617 4.815 4.935 5.926 2.467 9.63 5.242 8.518 8.326h-48.518c-5.185 1.542 1.11.617 5.185 6.785-2.222 5.242-5.185 3.084-11.852 3.084-4.444-1.542-13.333-2.468-18.148-4.935-4.815 0-4.444-1.233-8.519-1.542 14.075 9.869 7.037 7.402 15.186 14.803 1.11.617 4.444 1.85 1.481 1.85M371.481 73.4c-1.11 0-3.333-5.55-6.666-10.176-2.593-5.86-5.556-2.467-8.519-11.72.37-9.25.741-10.793 0-20.044-6.666-4.626-9.63-6.168-14.815-14.803-8.518-7.093 1.112-19.12 2.593-27.755-7.407-1.85-10.74 11.41-22.222 16.036-8.148 5.551-1.111-11.41-4.815-21.278-2.963-13.878-11.111 7.092-14.074 12.952-5.185 3.7-7.037 8.635-14.815 1.542 0-4.934 4.815-19.429 2.593-22.204-7.778 4.009-17.778 15.42-25.926 17.27-8.148-1.542 1.852-14.803 1.852-24.363-3.334-.925-14.815 25.596-19.63 25.905-4.815.308-2.593-25.905-5.185-25.288-3.333 4.934-10.37 15.42-15.185 18.811-9.63-1.233 1.11-17.27 2.592-23.437 1.482-7.093-8.889 13.877-14.444 15.11-4.074 3.702-12.222 6.169-15.185 6.785 3.333-6.167 19.259-18.811 18.148-22.204-9.26.309-23.334 12.336-31.111 13.878-5.186 0-12.593 1.542-13.334 1.542.37-8.018 19.26-14.494 22.223-19.429-9.26 1.542-27.037 9.56-32.223 16.037-6.296 1.542-14.074 3.083-20 0 .741-7.402 14.815-21.896 17.778-26.522-8.518 3.7-12.592 6.476-21.481 8.018-1.852 1.85-6.667 5.551-5.186 1.85 2.593-7.092 6.667-9.868 10-15.11-7.407 1.542-10.37 5.859-18.148 10.176-5.185 0-19.63 14.803-24.815 15.111-8.148 6.477-17.777 11.102-28.148 13.261-7.777 1.234-11.481 3.084-15.185 6.785 4.074-6.785 9.63-13.261 15.185-16.653 3.334-6.168 8.519-10.794 14.815-13.57 2.222-2.158 7.408-2.775 1.852-3.083-4.815 4.009-12.963 8.943-16.667 11.719-5.185 3.083-11.11 6.167-13.333 4.934 2.593-7.402 7.407-8.944 11.482-15.111 8.888-5.551 0-1.85-6.667 0-4.074 3.7-11.852 6.784-18.148 10.177-7.037 1.541-11.852 5.859-20 8.018 0 2.467 2.222-4.318 3.333-6.477 6.667-7.4 8.519-9.56 16.667-11.718 1.852-2.776 4.444-1.542-1.852-1.542-4.445 4.009-10.74 6.168-16.667 9.868-5.926 1.234-13.333 1.85-21.481 1.85-10.37.926-9.63 1.85 0-3.7 5.185-4.934 9.63-3.7 10-9.869C10.37-40.395 2.593-37.002-5.185-33.3c-6.296.308-7.778 1.85-14.815 1.85 3.333-3.701 5.185-7.71 10-10.177 7.037-7.71-4.444-1.542-6.667 0h-25.185c-4.074 5.55 0 0 3.704-3.393 4.074-2.158 8.518-4.934 8.148-6.476-5.185 4.318-10.74 6.168-15.185 9.869-4.445 1.542-10 2.158-10 3.392 3.704-5.243 9.63-8.635 13.704-13.26 5.555-1.234 10.37-3.085 11.481-5.243h-23.333 16.666c8.519 0 15.556-.617 23.334-1.542C0-60.44-14.444-61.674-21.852-61.674c-1.11-2.467 4.445-4.009 10-4.934 5.185-2.467 11.482-4.626 16.667-6.784 4.815-1.234 9.63-3.7 13.333-6.476-4.815.308-4.815 1.233-10 1.542 7.778-.617 12.963-1.542 21.852-1.542 7.407-2.468 14.444-5.243 21.482-8.327 2.962-3.7 4.444-3.392-3.334-3.392 6.667-2.159 16.296-3.084 21.852-4.934 6.667-1.542 13.333-3.701 20-6.785 4.815-3.084 7.778-7.093 13.333-9.868 6.297 4.317 6.297 4.934 18.148 4.934 9.26 0 15.186-2.467 20-6.785 7.038-1.85 8.519-5.242 16.667-6.476 7.778 1.234 15.556 1.85 23.333 1.542 8.149-2.159 15.556-5.86 21.482-9.868 5.185-2.467 11.481-6.168 16.667-8.327 6.296 3.084 11.11 5.551 18.518 6.785 7.778-1.234 11.852-5.243 18.148-6.785 4.074-4.317 9.26-7.093 15.185-8.326 9.63-4.934 8.89 1.542 13.334 6.476 4.815 5.242 11.11 2.775 18.148 5.242 4.074 5.86 6.667 9.869 11.852 13.261 3.704 4.626 8.518 5.86 16.666 6.476 2.963 4.01.37 6.785 6.667 8.327 2.222 2.775 6.296 3.7 10 5.242" style="fill:none;stroke-width:3.5;stroke-linecap:butt;stroke-linejoin:miter;stroke:#772600;stroke-opacity:1;stroke-miterlimit:4" transform="matrix(.01055 0 0 .01267 8.023 4.152)"/><path d="M468.519 30.843v.617c0-2.159 0-.925 1.851 3.392.741 3.7-.74 3.392-2.592 5.86 0 3.7-.741 6.475-.741 10.793-.37 3.7-2.593 7.093-4.074 10.177-1.482 3.084-8.519 4.934-8.519 9.251-3.703.926-4.074-1.542-4.074-6.167-2.222-2.467-3.333-6.168-4.814-9.869-1.112-3.392-3.704-5.86-5.186-9.868-2.222-3.7-4.444-4.934-6.666-9.252-.741-1.85-.741-4.626-2.223-5.86-2.962-3.392-4.814-4.008-9.259-4.008-3.703.616-5.185 2.158-8.518 3.084-2.593.925-7.408.616-10.741 1.85-.74 1.233 1.481 1.85 2.593 4.934-2.223 1.85-2.963 4.934-4.075 7.401-2.222 2.776-3.333 3.701-4.444 7.71 1.482 2.159.37 5.243-1.481 7.401-.741 3.701-2.593 5.86-3.334 9.252-2.592 1.85-3.703 3.392-5.926 6.476-1.852 2.776-3.703 2.467-8.148 2.467-3.704-.925-4.444-2.775-7.778-4.009 0-.925-.74-1.542-1.481-1.542" style="fill:none;stroke-width:3.1;stroke-linecap:butt;stroke-linejoin:miter;stroke:#782600;stroke-opacity:1;stroke-miterlimit:4" transform="matrix(.01055 0 0 .01267 8.023 4.152)"/><path d="M12.016 4.969s-.016.195-.141.328c-.125.129-.383.281-.383.281s.348-.168.383-.133-.223.328-.223.328.34-.304.383-.304.14.297.18.289-.078-.375-.063-.434c.016-.054 0-.367 0-.367l-.132.012Zm.8-.024s-.015.207-.14.348c-.125.137-.383.3-.383.3s.348-.179.383-.14c.035.043-.223.352-.223.352s.34-.328.383-.328.14.32.18.308c.039-.008-.079-.402-.063-.46.016-.063 0-.395 0-.395Zm-1.12-1.902c0 .035-.04.066-.083.066s-.086-.03-.086-.07c0-.039.04-.07.086-.07.047 0 .082.031.082.07Zm0 0" style="stroke:none;fill-rule:evenodd;fill:#812e00;fill-opacity:1"/></svg>