<svg xmlns="http://www.w3.org/2000/svg" width="25" height="px" viewBox="0 0 25 19"><path d="M0 12.668h25V19H0Zm0 0" style="stroke:none;fill-rule:nonzero;fill:#000001;fill-opacity:1"/><path d="M0 6.332h25v6.336H0Zm0 0" style="stroke:none;fill-rule:nonzero;fill:#fff;fill-opacity:1"/><path d="M0 0h25v6.332H0Zm0 0" style="stroke:none;fill-rule:nonzero;fill:#ce1126;fill-opacity:1"/><path d="m450.75 302.344 68.5 63.651-4.875-115.46c-.625-17.517-15.875-13.57-27-7.278-11.125 7.278-24 7.278-37.375 2.59-13.5 4.688-26.25 4.688-37.375-2.59-11-6.292-26.375-10.239-27 7.278l-4.875 115.46Zm0 0" style="fill-rule:nonzero;fill:#fff;fill-opacity:1;stroke-width:1.3;stroke-linecap:butt;stroke-linejoin:round;stroke:#c09300;stroke-opacity:1;stroke-miterlimit:4" transform="matrix(.03125 0 0 .03167 -1.563 0)"/><path d="m10.734 7.805-.148 3.558-.25.227.152-3.656a.7.7 0 0 1 .246-.13m.301.255-.125 2.976-.25.262.149-3.438c.05.051.199.176.226.2m.27.23-.094 2.48-.203.2.125-2.832c.047.05.148.12.172.152m.297.125-.094 2.113-.2.164.098-2.355c.051.023.149.078.196.078m.277 0-.074 1.762-.203.203.078-1.941c.047 0 .175 0 .199-.024M14.266 7.805l.148 3.558.25.227-.152-3.656a.7.7 0 0 0-.246-.13m-.301.255.125 2.976.25.262-.149-3.438c-.05.051-.199.176-.226.2m-.27.23.094 2.48.203.2-.125-2.832c-.047.05-.148.12-.172.152m-.297.125.094 2.113.2.164-.098-2.355c-.051.023-.149.078-.196.078m-.277 0 .074 1.762.203.203-.078-1.941c-.047 0-.175 0-.199-.024" style="stroke:none;fill-rule:nonzero;fill:#c09300;fill-opacity:1"/><path d="m453.25 315.05 9.5 43.79-3.125 3.208-3.375-2.59-5.375-38.981 2.375 38.98-3.25 4.071-3.125-4.07 2.375-38.981-5.5 38.98-3.375 2.59-3.125-3.207 9.5-43.79Zm0 0" style="fill-rule:nonzero;fill:#c09300;fill-opacity:1;stroke-width:1.1;stroke-linecap:butt;stroke-linejoin:miter;stroke:#c09300;stroke-opacity:1;stroke-miterlimit:4" transform="matrix(.03125 0 0 .03167 -1.563 0)"/><path d="m428.5 295.806-19.125 67.722 26.375 3.947 11-50.822Zm0 0" style="fill-rule:nonzero;fill:#fff;fill-opacity:1;stroke-width:1.2;stroke-linecap:butt;stroke-linejoin:round;stroke:#c09300;stroke-opacity:1;stroke-miterlimit:4" transform="matrix(.03125 0 0 .03167 -1.563 0)"/><path d="m422.25 318.997 2.25 5.55 12.375-11.841" style="fill:none;stroke-width:1.3;stroke-linecap:butt;stroke-linejoin:round;stroke:#c09300;stroke-opacity:1;stroke-miterlimit:4" transform="matrix(.03125 0 0 .03167 -1.563 0)"/><path d="m430.75 305.058 2.625 24.3 7.875-10.485m-3.125 4.071 4.25 14.926m1.75-5.428-8.75 13.2m2.75 13.198-2.875-13.199-2.375-13.445L427 340.09l-2.5-9.128-8.25 8.388 4.125 15.296 5.875-9.498 3 9.622 6-9.129" style="fill:none;stroke-width:1.3;stroke-linecap:butt;stroke-linejoin:round;stroke:#c09300;stroke-opacity:1;stroke-miterlimit:4" transform="matrix(.03125 0 0 .03167 -1.563 0)"/><path d="m415 362.048 5.25-7.525 3.5 11.472 4.75-8.018 3.125 9.622" style="fill:none;stroke-width:1.3;stroke-linecap:butt;stroke-linejoin:round;stroke:#c09300;stroke-opacity:1;stroke-miterlimit:4" transform="matrix(.03125 0 0 .03167 -1.563 0)"/><path d="m428.5 295.806-19.125 67.722 26.375 3.947 11-50.822Zm0 0" style="fill-rule:nonzero;fill:#fff;fill-opacity:1;stroke-width:1.2;stroke-linecap:butt;stroke-linejoin:round;stroke:#c09300;stroke-opacity:1;stroke-miterlimit:4" transform="matrix(-.03125 0 0 .03167 26.563 0)"/><path d="m422.25 318.997 2.25 5.55 12.375-11.841" style="fill:none;stroke-width:1.3;stroke-linecap:butt;stroke-linejoin:round;stroke:#c09300;stroke-opacity:1;stroke-miterlimit:4" transform="matrix(-.03125 0 0 .03167 26.563 0)"/><path d="m430.75 305.058 2.625 24.3 7.875-10.485m-3.125 4.071 4.25 14.926m1.75-5.428-8.75 13.2m2.75 13.198-2.875-13.199-2.375-13.445L427 340.09l-2.5-9.128-8.25 8.388 4.125 15.296 5.875-9.498 3 9.622 6-9.129" style="fill:none;stroke-width:1.3;stroke-linecap:butt;stroke-linejoin:round;stroke:#c09300;stroke-opacity:1;stroke-miterlimit:4" transform="matrix(-.03125 0 0 .03167 26.563 0)"/><path d="m415 362.048 5.25-7.525 3.5 11.472 4.75-8.018 3.125 9.622" style="fill:none;stroke-width:1.3;stroke-linecap:butt;stroke-linejoin:round;stroke:#c09300;stroke-opacity:1;stroke-miterlimit:4" transform="matrix(-.03125 0 0 .03167 26.563 0)"/><path d="M450 393.75c20 0 39-1.604 50.25-4.688 4.625-.863 4.625-3.207 4.625-6.414 4.875-1.604 2.375-7.278 5.75-7.278-3.375.987-4-5.428-8-4.687 0-5.551-5.75-6.292-10.375-4.688-9.5 3.084-26.375 3.947-42.25 3.947-16-.863-32.625-.863-42.25-4.07-4.625-1.48-10.25-.74-10.25 4.81-4-.74-4.75 5.675-8 4.688 3.25 0 .75 5.674 5.625 7.278 0 3.207 0 5.551 4.75 6.414 11 3.084 30.25 4.688 50.125 4.688" style="fill-rule:nonzero;fill:#fff;fill-opacity:1;stroke-width:2.4;stroke-linecap:round;stroke-linejoin:round;stroke:#c09300;stroke-opacity:1;stroke-miterlimit:4" transform="matrix(.03125 0 0 .03167 -1.563 0)"/><path d="M422.875 363.528c6.375.863 13.625 1.604 19.25.863 3.125 0 5.5 5.551-.875 6.292-5.5.74-14.375 0-19-.74a235 235 0 0 1-18.5-4.071c-5.5-2.344-1.5-7.032 1.625-6.415a109 109 0 0 0 17.5 4.071m54.25 0c-6.375.863-13.625 1.604-19 .863-3.375 0-5.75 5.551.625 6.292 5.625.74 14.375 0 19-.74 4-.864 12.875-2.344 18.5-4.071 5.5-2.344 1.5-7.032-1.625-6.415a109 109 0 0 1-17.5 4.071" style="fill-rule:nonzero;fill:#fff;fill-opacity:1;stroke-width:1.3;stroke-linecap:round;stroke-linejoin:round;stroke:#c09300;stroke-opacity:1;stroke-miterlimit:4" transform="matrix(.03125 0 0 .03167 -1.563 0)"/><path d="M403 360.444c-4.75-.987-7 4.688-5.5 7.895.75-1.604 4-1.604 4.75-3.207.875-2.468-.75-2.468.875-4.688Zm19.25 14.68c0-3.208 3-2.838 3-6.045 0-1.48-.75-3.947-2.375-3.947-1.75.123-3.125 1.48-3.125 3.207-.75 3.084 2.5 3.577 2.5 6.784m22.625-9.128c4.75 0 4.25 6.291 2 9.498 0-2.343-4-3.207-4-4.81 0-2.344 3.625-2.344 2-4.688m52-5.55c4.875-.988 7.25 4.687 5.625 7.894-.75-1.604-4-1.604-4.75-3.207-.875-2.468.75-2.468-.875-4.688M478 375c0-3.207-3.25-2.837-3.25-6.044 0-1.48.875-3.948 2.5-3.948 1.625.124 3 1.48 3.125 3.207.75 3.084-2.5 3.578-2.5 6.785Zm-23-9.005c-4.75 0-4.25 6.291-2 9.498 0-2.343 4-3.207 4-4.81 0-2.344-3.625-2.344-2-4.688" style="fill-rule:nonzero;fill:#fff;fill-opacity:1;stroke-width:1.3;stroke-linecap:round;stroke-linejoin:round;stroke:#c09300;stroke-opacity:1;stroke-miterlimit:4" transform="matrix(.03125 0 0 .03167 -1.563 0)"/><path d="M404.75 362.048c1.5 0 4 .616 4.625 1.603Zm7.875 2.343c.75 0 4 .74 5.5 1.604Zm28.625 3.208c-1.5 0-4.75 0-5.5.74l5.5-.864Zm-8.75 0c-.875-.864-4-.864-5.625 0Zm62.75-5.551c-1.625 0-3.25.493-4.625 1.603Zm-7.75 2.343c-1 0-4 .74-5.625 1.604Zm-28.75 3.208c1.5 0 4.75 0 5.625.74l-5.625-.864Zm8.75 0c.875-.864 4-.864 5.625 0Zm0 0" style="fill-rule:nonzero;fill:#fff;fill-opacity:1;stroke-width:.9;stroke-linecap:round;stroke-linejoin:round;stroke:#c09300;stroke-opacity:1;stroke-miterlimit:4" transform="matrix(.03125 0 0 .03167 -1.563 0)"/><path d="M11.04 11.863c-.017-.008-.02-.02-.017-.031q.007-.034.032-.027c.011 0 .027.02.027.027l-.012.02-.008.003c-.003.008-.007.008-.023.008m1.719.121q-.011-.006-.016-.02c0-.015.016-.03.031-.03l.024.011c.012.012.008.024-.004.04q-.012.005-.035 0m.012.082q-.016-.008-.02-.027c-.004-.012.004-.023.016-.027l.011-.008.012.008c.016.004.02.011.024.023q0 .017-.024.027-.013.006-.02 0Zm0 0" style="stroke:none;fill-rule:nonzero;fill:#c09300;fill-opacity:1"/><path d="M11.18 11.715a.1.1 0 0 0-.035.02c-.02.003-.043.015-.063 0-.02 0-.043 0-.047.027.004.02.031.031.05.02.013-.016.048-.032.052 0-.016.023-.012.05-.024.073a.2.2 0 0 1-.015.043c-.016 0-.032 0-.043.008-.02 0-.04.012-.051.028a.1.1 0 0 0-.027.062c0 .02.03.024.046.027l.063.02.101.027c.051.016.102.024.149.035l.016.004c.023.008.03-.015.03-.03l.032-.114c.008-.016.016-.047-.012-.043a.1.1 0 0 1-.05.027c-.028 0-.012.031 0 .04 0 .023-.004.038-.016.058a.07.07 0 0 1-.055-.008c-.015 0-.054-.008-.039-.031l.016-.059a.3.3 0 0 0 .015-.062c-.011-.02-.03.011-.046.011-.016.004-.047.012-.032.036.02.011.008.035 0 .05 0 .024-.023.032-.043.024-.02 0-.047-.016-.03-.035l.015-.055.023-.066q-.002-.031.02-.055c0-.024.015-.043.015-.063q0-.016-.015-.015Zm-.114.234h.008q.012.007 0 .02l-.008.004q-.024-.001-.02-.008.002-.006.009-.012Zm-.03.156q-.024-.016.007-.039a.02.02 0 0 1 .027 0q.03.022 0 .043-.005.01-.015.008-.007-.004-.02-.008Zm.093.032c-.016-.004-.024-.02-.02-.035q.005-.017.028-.016.028 0 .027.023c0 .012 0 .02-.008.024Zm2.785 0c-.004 0-.008-.008-.008-.016q0-.017.024-.027c.02-.012.03-.008.039.008q.015.023-.004.035-.006.012-.024.011-.022 0-.027-.007Zm-2.656.039q-.017-.006-.016-.024-.001-.015.004-.02l.02-.007.02.004q.024.017.007.039a.025.025 0 0 1-.035.008m.683.031-.007-.008q.001-.03.007-.054-.001-.024.004-.047l.016-.09q-.001-.024.004-.043a.4.4 0 0 1 .008-.07c0-.012.007-.032.02-.02a1 1 0 0 0 .042.047c.012.012 0 .023-.012.027q-.016.007-.015.031l-.004.036q-.001.033-.008.066l-.004.055-.004.039q0 .023-.011.035c-.016.008-.024.004-.032-.004Zm.926-.309-.039.036c-.02.015.016.023.02.035q.007.03.004.058a.1.1 0 0 1 .007.055c0 .02-.023.016-.039.027q-.016.013-.03.032l-.013.05c0 .016-.007.032 0 .043l.004.008h.016l.047-.004a1 1 0 0 1 .117-.008l.066-.007c.02.004.028-.016.028-.032-.012-.023 0-.043-.012-.062q-.005-.04-.004-.07c0-.02-.023-.024-.031-.012a.1.1 0 0 0-.04.027c-.007.02.02.02.024.031l.004.047c.004.02-.016.02-.031.024q-.03.011-.047-.008-.005-.023-.004-.05l-.012-.083c-.004-.035-.007-.066-.007-.101 0-.016-.004-.04-.028-.036m-.015.258h.007v.028h-.007l-.016.004h-.004c-.008-.004-.008-.016.004-.024Zm-.938-.289c-.012 0-.027.02-.039.016-.027.004-.023.035-.004.043v.023c.004.028-.012.051-.008.074l-.011.082a.4.4 0 0 0-.012.086c-.004.028-.02.016-.035.008v-.031c0-.023-.016-.035-.04-.035q-.029-.006-.023-.035a.1.1 0 0 1 .047-.012c.031.008.027-.035.012-.05-.016-.016-.04-.032-.043-.052 0-.027-.016-.046-.04-.066-.034 0-.062.027-.07.059a.1.1 0 0 0-.046.011c-.02.008-.051.047-.02.063.016 0 .066.015.043.035-.016.023-.035.027-.059.02-.023 0-.046-.012-.046-.04a.2.2 0 0 0-.012-.07c-.008-.027-.035-.02-.04.004-.019.023-.023.043-.003.066a.08.08 0 0 1-.008.067c-.008.035-.039.035-.059.039-.011.008-.05 0-.035.023a.1.1 0 0 0 .075.008.1.1 0 0 0 .062-.043c.016-.015.043-.008.07-.008.02 0 .047.016.07.004.008-.015.04-.047.047-.015q.006.045.047.039c.028 0 .016.02.016.039q.006.039.047.054h.023a.08.08 0 0 0 .059-.043c.004-.023.012-.046.016-.07l.011-.11a.4.4 0 0 0 .012-.1l.012-.071c0-.012-.008-.02-.016-.012m-.21.13q.006-.002.007.015-.001.018.016.023v.012l-.028.004q-.023.001-.035-.016l-.008-.004.024-.023c.011-.008.015-.012.023-.012m2.063-.25-.055.008c-.031 0-.047.031-.016.05.02.048.047-.011.078-.003.047.004.047.054.059.094 0 .035.008.066.02.105.03.035-.02.055-.043.031-.02-.023-.063-.047-.082-.02-.032.012-.032.052-.055.063-.04.012-.04-.039-.063-.058-.02-.028-.054-.032-.082-.036-.011-.03-.004-.078-.03-.097-.024.012-.067.055-.032.078.031.031-.016.043-.031.062a.15.15 0 0 0-.032.094c-.039.024-.047-.023-.05-.05 0-.036-.032-.028-.055-.016a.2.2 0 0 0-.063.066v.063c.008.027.04.015.055.011.031-.011.047.024.02.043-.02.016-.067.008-.063.043h.05c.032-.007.071-.035.071-.074.008-.031.055-.027.078-.035.032-.008.075-.012.082.031.024.024.07.051.094.02.027-.016.043-.047.035-.074-.004-.028.04-.028.055-.012.016.027.062.02.09 0 .023-.016.031-.047.066-.047l.172-.05c.043-.009-.008-.036-.02-.056-.03-.015-.062.055-.101.02-.031-.023-.027-.066-.035-.102-.012-.043-.008-.093-.04-.125a.1.1 0 0 0-.077-.027m-.211.3a.03.03 0 0 1 .015.005q.019.015.02.035c0 .004-.004.004-.008.008l-.016.008q-.018-.005-.023-.016v-.016q-.006-.012 0-.02Zm.203.013q.011.001.023.007.006.017-.011.028l-.016.008-.012-.012q-.012 0-.012-.012.005-.018.028-.023Zm-.281 0q.005.001.011.007.007.004.008.02v.016q.008.012-.02.007c-.023-.004-.019 0-.019-.02q.001-.013.008-.023.012-.005.012-.004Zm-.172.046.015.012c0 .012-.004.016-.008.02q-.018.006-.03 0v-.004c-.009-.004-.009-.004 0-.008v-.004l.007-.008a.03.03 0 0 1 .016-.008m.289.04.015.003v.02h-.039v-.008q-.001-.012.004-.012Zm-.535.152c-.004 0-.008-.004-.004-.008q.01-.013.027-.02a.1.1 0 0 0 .043-.03l.012-.032-.004-.043a.05.05 0 0 0-.024-.031q-.018-.001-.023-.02c0-.008.004-.02.012-.027l.02-.04q.016-.009.023.005l.015.035q.013.01.02.031l.011.031.008.04q-.001.028-.008.05l-.019.028a.1.1 0 0 1-.031.02.1.1 0 0 1-.028.015h-.046Zm-.215.012q-.01-.007-.008-.02c0-.012 0-.008.008-.02q.013-.017.043 0 .033.023.031.004.007-.01.031-.015l.016.008a.02.02 0 0 1 .012.02c0 .015 0 .015-.012.027q-.007.004-.02.003a.03.03 0 0 1-.027-.015q.001-.017-.004-.004l-.008.004c-.008 0-.015.008-.023.015h-.016c-.012 0-.015 0-.023-.007m-.617-.282c-.028 0-.043.016-.047.04.004.023.023.05.011.07.008.031-.027.047-.046.031a.3.3 0 0 0-.043-.098c-.024-.004-.032.035-.051.051.008.024.035.047.035.074q.005.052-.031.075c-.024.023-.055.015-.078.02-.032.019.02.026.035.026a.12.12 0 0 0 .093-.027c.024-.008.02-.055.047-.055l.153.008c.023.008.062-.004.082.016 0 .031.031.058.058.07.016.008.032-.015.047-.02.031-.007.024-.046.043-.062h.156c.004 0 .008-.016.02-.023l-.008-.059c-.008-.027 0-.059-.015-.078-.028-.008-.051.016-.075.016q-.052.022-.058.074c-.016.027-.043-.008-.032-.031v-.032c-.015-.015-.046-.011-.066-.011l-.094-.008q-.045.001-.086-.004c-.03 0-.03-.031-.03-.055Zm.062.118.031.003h.04q.046.008.093.004.01-.001.02.016v.062c0 .008-.004.02-.008.024l-.004.008-.024-.016V12.2l-.023-.008-.078-.004-.063-.003q-.016 0-.03-.012-.008-.013.015-.02Zm.352.007q.007 0 .007.012l.004.016q.001.005-.004.004c-.02.007-.03.007-.039 0a.03.03 0 0 1 .008-.016Zm0 0" style="stroke:none;fill-rule:nonzero;fill:#c09300;fill-opacity:1"/><path d="M450 327.262c32.625-25.042 29.75-61.801 29.75-61.801l-2.5.123c-6.875 0-23.125-3.947-27-8.882-4 4.441-20.75 9.005-27.5 9.005l-2.5-.246s-3 36.636 29.75 61.8Zm0 0" style="fill-rule:nonzero;fill:#fff;fill-opacity:1;stroke-width:1.1;stroke-linecap:butt;stroke-linejoin:miter;stroke:#c09300;stroke-opacity:1;stroke-miterlimit:4" transform="matrix(.03125 0 0 .03167 -1.563 0)"/><path d="M477.25 268.051h-.875c-6.125 0-20.625-3.207-26.125-7.895-5.875 4.318-20.5 7.895-26.625 7.895h-.875c.125 6.291 1 12.582 2.625 18.627 4 14.679 12.625 27.755 24.625 37.13 12-9.499 20.625-22.451 24.625-37.254a77 77 0 0 0 2.625-18.503Zm0 0" style="fill-rule:nonzero;fill:#fff;fill-opacity:1;stroke-width:.9;stroke-linecap:butt;stroke-linejoin:miter;stroke:#c09300;stroke-opacity:1;stroke-miterlimit:4" transform="matrix(.03125 0 0 .03167 -1.563 0)"/><path d="M12.168 8.39a2 2 0 0 1-.52.098l.004.13q.02.233.078.456c.086.313.235.602.438.852Zm.645 0v1.56a2.24 2.24 0 0 0 .457-.876q.06-.222.078-.457l.004-.129h-.028c-.117 0-.324-.035-.511-.101Zm0 0" style="stroke:none;fill-rule:nonzero;fill:#c09300;fill-opacity:1"/><path d="M462.25 253.002c.75.123-.875-3.454-.875-3.454 1.875 1.727 8.375 2.22 8.375 2.22-4-1.727-8-15.05-7.5-25.781.5-10.609-1.5-14.803-3-16.406-2-1.974-8.5-3.824-12.625-3.948-2.5-.123-2 1.727-2 1.727-4.5-1.11-9-1.603-11-.123-1.875 1.11-2.25 7.525-.875 6.414 3.375-2.714 6.25-.246 8.25 2.59 1.75 2.591 1.75 9.746-.875 18.257-2.375 6.415-5.75 12.46-10 17.764 4 0 9.625-3.578 9.625-3.578l-1.375 5.551c4.25-1.973 7.5-5.18 7.5-5.18l4 4.193c1.375-1.727 4-4.194 4-4.194s3.375 3.578 8.375 4.071Zm0 0" style="fill-rule:nonzero;fill:#fff;fill-opacity:1;stroke-width:1.2;stroke-linecap:butt;stroke-linejoin:miter;stroke:#c09300;stroke-opacity:1;stroke-miterlimit:4" transform="matrix(.03125 0 0 .03167 -1.563 0)"/><path d="M446.125 227.59s-2.25 16.407-6.375 20.97m10-21.463s-1 16.653-3.875 21.957m6.875-21.217s0 18.133 1 21.217m3-20.353s.875 15.296 4.625 20.847" style="fill:none;stroke-width:1.3;stroke-linecap:butt;stroke-linejoin:miter;stroke:#c09300;stroke-opacity:1;stroke-miterlimit:4" transform="matrix(.03125 0 0 .03167 -1.563 0)"/><path d="M442 219.572c-.125-1.11-.375-2.22-1-3.33-2-2.96-4.875-5.305-8.25-2.59 0 0 1.125-3.578 3.625-3.701 1.875 0 6.125 1.48 9.875 7.894 0 0-2.75-.616-3.5 0-1.125.987-.625 1.727-.625 1.727Zm0 0" style="fill-rule:nonzero;fill:#c09300;fill-opacity:1;stroke-width:.3;stroke-linecap:butt;stroke-linejoin:miter;stroke:#c09300;stroke-opacity:1;stroke-miterlimit:4" transform="matrix(.03125 0 0 .03167 -1.563 0)"/><path d="M432.375 209.334c.25-1.11.75-1.85 1.375-2.097 2-1.48 6.375-.987 10.875.123 0 0-.375-1.85 2-1.727 4.125.124 10.625 1.974 12.625 3.948.625.74 1.125 1.48 1.5 2.467-1-1.48-3.875-1.357-4.5-1.234-1 .123-1.75 0-3.125.37-.875.247-1.625.494-2.375.864-.375.37-.75 1.603-1.375 1.603-1 0-1-.246-1.25-.493-.25-.74-.625-1.11-.875-1.11-1.125.246-2.75-.617-5-2.467-2.375-1.727-3.25-2.22-6-1.974-3 .247-3.875 1.85-3.875 1.85Zm0 0" style="fill-rule:nonzero;fill:#c09300;fill-opacity:1;stroke-width:.3;stroke-linecap:butt;stroke-linejoin:miter;stroke:#c09300;stroke-opacity:1;stroke-miterlimit:4" transform="matrix(.03125 0 0 .03167 -1.563 0)"/><path d="M12.5 6.672a.04.04 0 0 0-.04-.04c-.019 0-.034.02-.034.04s.015.039.035.039a.04.04 0 0 0 .039-.04m0 0" style="stroke:none;fill-rule:nonzero;fill:#fff;fill-opacity:1"/></svg>