<?xml version="1.0" encoding="UTF-8"?>
<svg xmlns="http://www.w3.org/2000/svg" xmlns:xlink="http://www.w3.org/1999/xlink" width="25px" height="px" viewBox="0 0 25 19" version="1.1">
<g id="surface1">
<path style=" stroke:none;fill-rule:nonzero;fill:rgb(0%,0%,0.392157%);fill-opacity:1;" d="M 0 12.667969 L 25 12.667969 L 25 19 L 0 19 Z M 0 12.667969 "/>
<path style=" stroke:none;fill-rule:nonzero;fill:rgb(100%,100%,100%);fill-opacity:1;" d="M 0 6.332031 L 25 6.332031 L 25 12.667969 L 0 12.667969 Z M 0 6.332031 "/>
<path style=" stroke:none;fill-rule:nonzero;fill:rgb(80.784315%,6.666667%,14.901961%);fill-opacity:1;" d="M 0 0 L 25 0 L 25 6.332031 L 0 6.332031 Z M 0 0 "/>
<path style="fill-rule:nonzero;fill:rgb(100%,100%,100%);fill-opacity:1;stroke-width:1.3;stroke-linecap:butt;stroke-linejoin:round;stroke:rgb(75.294119%,57.647061%,0%);stroke-opacity:1;stroke-miterlimit:4;" d="M 450.749993 302.343745 L 519.249992 365.99506 L 514.374992 250.534536 C 513.749992 233.018089 498.499993 236.965457 487.374993 243.256575 C 476.249993 250.534536 463.374993 250.534536 449.999993 245.847036 C 436.499993 250.534536 423.749994 250.534536 412.624994 243.256575 C 401.624994 236.965457 386.249994 233.018089 385.624994 250.534536 L 380.749994 365.99506 Z M 450.749993 302.343745 " transform="matrix(0.03125,0,0,0.0316667,-1.5625,0)"/>
<path style=" stroke:none;fill-rule:nonzero;fill:rgb(75.294119%,57.647061%,0%);fill-opacity:1;" d="M 10.734375 7.804688 L 10.585938 11.363281 L 10.335938 11.589844 L 10.488281 7.933594 C 10.5625 7.875 10.644531 7.832031 10.734375 7.804688 M 11.035156 8.058594 L 10.910156 11.035156 L 10.660156 11.296875 L 10.808594 7.859375 C 10.859375 7.910156 11.007812 8.035156 11.035156 8.058594 M 11.304688 8.289062 L 11.210938 10.769531 L 11.007812 10.96875 L 11.132812 8.136719 C 11.179688 8.1875 11.28125 8.257812 11.304688 8.289062 M 11.601562 8.414062 L 11.507812 10.527344 L 11.308594 10.691406 L 11.40625 8.335938 C 11.457031 8.359375 11.554688 8.414062 11.601562 8.414062 M 11.878906 8.414062 L 11.804688 10.175781 L 11.601562 10.378906 L 11.679688 8.4375 C 11.726562 8.4375 11.855469 8.4375 11.878906 8.414062 "/>
<path style=" stroke:none;fill-rule:nonzero;fill:rgb(75.294119%,57.647061%,0%);fill-opacity:1;" d="M 14.265625 7.804688 L 14.414062 11.363281 L 14.664062 11.589844 L 14.511719 7.933594 C 14.4375 7.875 14.355469 7.832031 14.265625 7.804688 M 13.964844 8.058594 L 14.089844 11.035156 L 14.339844 11.296875 L 14.191406 7.859375 C 14.140625 7.910156 13.992188 8.035156 13.964844 8.058594 M 13.695312 8.289062 L 13.789062 10.769531 L 13.992188 10.96875 L 13.867188 8.136719 C 13.820312 8.1875 13.71875 8.257812 13.695312 8.289062 M 13.398438 8.414062 L 13.492188 10.527344 L 13.691406 10.691406 L 13.59375 8.335938 C 13.542969 8.359375 13.445312 8.414062 13.398438 8.414062 M 13.121094 8.414062 L 13.195312 10.175781 L 13.398438 10.378906 L 13.320312 8.4375 C 13.273438 8.4375 13.144531 8.4375 13.121094 8.414062 "/>
<path style="fill-rule:nonzero;fill:rgb(75.294119%,57.647061%,0%);fill-opacity:1;stroke-width:1.1;stroke-linecap:butt;stroke-linejoin:miter;stroke:rgb(75.294119%,57.647061%,0%);stroke-opacity:1;stroke-miterlimit:4;" d="M 453.249993 315.049337 L 462.749993 358.840455 L 459.624993 362.047692 L 456.249993 359.457231 L 450.874993 320.476969 L 453.249993 359.457231 L 449.999993 363.527955 L 446.874993 359.457231 L 449.249993 320.476969 L 443.749993 359.457231 L 440.374993 362.047692 L 437.249993 358.840455 L 446.749993 315.049337 Z M 453.249993 315.049337 " transform="matrix(0.03125,0,0,0.0316667,-1.5625,0)"/>
<path style="fill-rule:nonzero;fill:rgb(100%,100%,100%);fill-opacity:1;stroke-width:1.2;stroke-linecap:butt;stroke-linejoin:round;stroke:rgb(75.294119%,57.647061%,0%);stroke-opacity:1;stroke-miterlimit:4;" d="M 428.499994 295.805917 L 409.374994 363.527955 L 435.749994 367.475323 L 446.749993 316.652956 Z M 428.499994 295.805917 " transform="matrix(0.03125,0,0,0.0316667,-1.5625,0)"/>
<path style="fill:none;stroke-width:1.3;stroke-linecap:butt;stroke-linejoin:round;stroke:rgb(75.294119%,57.647061%,0%);stroke-opacity:1;stroke-miterlimit:4;" d="M 422.249994 318.996706 L 424.499994 324.547693 L 436.874993 312.705587 " transform="matrix(0.03125,0,0,0.0316667,-1.5625,0)"/>
<path style="fill:none;stroke-width:1.3;stroke-linecap:butt;stroke-linejoin:round;stroke:rgb(75.294119%,57.647061%,0%);stroke-opacity:1;stroke-miterlimit:4;" d="M 430.749994 305.057561 L 433.374994 329.358548 L 441.249993 318.873351 M 438.124993 322.944074 L 442.374993 337.870061 M 444.124993 332.442429 L 435.374994 345.641442 M 438.124993 358.840455 L 435.249994 345.641442 L 432.874994 332.195719 L 426.999994 340.090455 L 424.499994 330.962166 L 416.249994 339.350324 L 420.374994 354.646376 L 426.249994 345.148021 L 429.249994 354.769732 L 435.249994 345.641442 " transform="matrix(0.03125,0,0,0.0316667,-1.5625,0)"/>
<path style="fill:none;stroke-width:1.3;stroke-linecap:butt;stroke-linejoin:round;stroke:rgb(75.294119%,57.647061%,0%);stroke-opacity:1;stroke-miterlimit:4;" d="M 414.999994 362.047692 L 420.249994 354.523021 L 423.749994 365.99506 L 428.499994 357.976968 L 431.624994 367.598679 " transform="matrix(0.03125,0,0,0.0316667,-1.5625,0)"/>
<path style="fill-rule:nonzero;fill:rgb(100%,100%,100%);fill-opacity:1;stroke-width:1.2;stroke-linecap:butt;stroke-linejoin:round;stroke:rgb(75.294119%,57.647061%,0%);stroke-opacity:1;stroke-miterlimit:4;" d="M 428.500007 295.805917 L 409.375007 363.527955 L 435.750007 367.475323 L 446.750007 316.652956 Z M 428.500007 295.805917 " transform="matrix(-0.03125,0,0,0.0316667,26.5625,0)"/>
<path style="fill:none;stroke-width:1.3;stroke-linecap:butt;stroke-linejoin:round;stroke:rgb(75.294119%,57.647061%,0%);stroke-opacity:1;stroke-miterlimit:4;" d="M 422.250007 318.996706 L 424.500007 324.547693 L 436.875007 312.705587 " transform="matrix(-0.03125,0,0,0.0316667,26.5625,0)"/>
<path style="fill:none;stroke-width:1.3;stroke-linecap:butt;stroke-linejoin:round;stroke:rgb(75.294119%,57.647061%,0%);stroke-opacity:1;stroke-miterlimit:4;" d="M 430.750007 305.057561 L 433.375007 329.358548 L 441.250007 318.873351 M 438.125007 322.944074 L 442.375007 337.870061 M 444.125007 332.442429 L 435.375007 345.641442 M 438.125007 358.840455 L 435.250007 345.641442 L 432.875007 332.195719 L 427.000007 340.090455 L 424.500007 330.962166 L 416.250007 339.350324 L 420.375007 354.646376 L 426.250007 345.148021 L 429.250007 354.769732 L 435.250007 345.641442 " transform="matrix(-0.03125,0,0,0.0316667,26.5625,0)"/>
<path style="fill:none;stroke-width:1.3;stroke-linecap:butt;stroke-linejoin:round;stroke:rgb(75.294119%,57.647061%,0%);stroke-opacity:1;stroke-miterlimit:4;" d="M 415.000007 362.047692 L 420.250007 354.523021 L 423.750007 365.99506 L 428.500007 357.976968 L 431.625007 367.598679 " transform="matrix(-0.03125,0,0,0.0316667,26.5625,0)"/>
<path style="fill-rule:nonzero;fill:rgb(100%,100%,100%);fill-opacity:1;stroke-width:2.4;stroke-linecap:round;stroke-linejoin:round;stroke:rgb(75.294119%,57.647061%,0%);stroke-opacity:1;stroke-miterlimit:4;" d="M 449.999993 393.749994 C 469.999993 393.749994 488.999993 392.146376 500.249993 389.062494 C 504.874992 388.199007 504.874992 385.855257 504.874992 382.648021 C 509.749992 381.044402 507.249992 375.37006 510.624992 375.37006 C 507.249992 376.356902 506.624992 369.942429 502.624993 370.68256 C 502.624993 365.131574 496.874993 364.391442 492.249993 365.99506 C 482.749993 369.078942 465.874993 369.942429 449.999993 369.942429 C 433.999994 369.078942 417.374994 369.078942 407.749994 365.871705 C 403.124994 364.391442 397.499994 365.131574 397.499994 370.68256 C 393.499994 369.942429 392.749994 376.356902 389.499994 375.37006 C 392.749994 375.37006 390.249994 381.044402 395.124994 382.648021 C 395.124994 385.855257 395.124994 388.199007 399.874994 389.062494 C 410.874994 392.146376 430.124994 393.749994 449.999993 393.749994 " transform="matrix(0.03125,0,0,0.0316667,-1.5625,0)"/>
<path style="fill-rule:nonzero;fill:rgb(100%,100%,100%);fill-opacity:1;stroke-width:1.3;stroke-linecap:round;stroke-linejoin:round;stroke:rgb(75.294119%,57.647061%,0%);stroke-opacity:1;stroke-miterlimit:4;" d="M 422.874994 363.527955 C 429.249994 364.391442 436.499993 365.131574 442.124993 364.391442 C 445.249993 364.391442 447.624993 369.942429 441.249993 370.68256 C 435.749994 371.422692 426.874994 370.68256 422.249994 369.942429 C 415.999994 368.832231 409.874994 367.475323 403.749994 365.871705 C 398.249994 363.527955 402.249994 358.840455 405.374994 359.457231 C 411.124994 361.30756 416.999994 362.664468 422.874994 363.527955 M 477.124993 363.527955 C 470.749993 364.391442 463.499993 365.131574 458.124993 364.391442 C 454.749993 364.391442 452.374993 369.942429 458.749993 370.68256 C 464.374993 371.422692 473.124993 370.68256 477.749993 369.942429 C 481.749993 369.078942 490.624993 367.598679 496.249993 365.871705 C 501.749993 363.527955 497.749993 358.840455 494.624993 359.457231 C 488.874993 361.30756 482.999993 362.664468 477.124993 363.527955 " transform="matrix(0.03125,0,0,0.0316667,-1.5625,0)"/>
<path style="fill-rule:nonzero;fill:rgb(100%,100%,100%);fill-opacity:1;stroke-width:1.3;stroke-linecap:round;stroke-linejoin:round;stroke:rgb(75.294119%,57.647061%,0%);stroke-opacity:1;stroke-miterlimit:4;" d="M 402.999994 360.444074 C 398.249994 359.457231 395.999994 365.131574 397.499994 368.33881 C 398.249994 366.735192 401.499994 366.735192 402.249994 365.131574 C 403.124994 362.664468 401.499994 362.664468 403.124994 360.444074 Z M 422.249994 375.12335 C 422.249994 371.916113 425.249994 372.286179 425.249994 369.078942 C 425.249994 367.598679 424.499994 365.131574 422.874994 365.131574 C 421.124994 365.254929 419.749994 366.611837 419.749994 368.33881 C 418.999994 371.422692 422.249994 371.916113 422.249994 375.12335 M 444.874993 365.99506 C 449.624993 365.99506 449.124993 372.286179 446.874993 375.493415 C 446.874993 373.149665 442.874993 372.286179 442.874993 370.68256 C 442.874993 368.33881 446.499993 368.33881 444.874993 365.99506 M 496.874993 360.444074 C 501.749993 359.457231 504.124992 365.131574 502.499993 368.33881 C 501.749993 366.735192 498.499993 366.735192 497.749993 365.131574 C 496.874993 362.664468 498.499993 362.664468 496.874993 360.444074 M 477.999993 374.999994 C 477.999993 371.792758 474.749993 372.162823 474.749993 368.955587 C 474.749993 367.475323 475.624993 365.008218 477.249993 365.008218 C 478.874993 365.131574 480.249993 366.488481 480.374993 368.215455 C 481.124993 371.299337 477.874993 371.792758 477.874993 374.999994 Z M 454.999993 365.99506 C 450.249993 365.99506 450.749993 372.286179 452.999993 375.493415 C 452.999993 373.149665 456.999993 372.286179 456.999993 370.68256 C 456.999993 368.33881 453.374993 368.33881 454.999993 365.99506 " transform="matrix(0.03125,0,0,0.0316667,-1.5625,0)"/>
<path style="fill-rule:nonzero;fill:rgb(100%,100%,100%);fill-opacity:1;stroke-width:0.9;stroke-linecap:round;stroke-linejoin:round;stroke:rgb(75.294119%,57.647061%,0%);stroke-opacity:1;stroke-miterlimit:4;" d="M 404.749994 362.047692 C 406.249994 362.047692 408.749994 362.664468 409.374994 363.65131 Z M 412.624994 364.391442 C 413.374994 364.391442 416.624994 365.131574 418.124994 365.99506 Z M 441.249993 367.598679 C 439.749993 367.598679 436.499993 367.598679 435.749994 368.33881 L 441.249993 367.475323 Z M 432.499994 367.598679 C 431.624994 366.735192 428.499994 366.735192 426.874994 367.598679 Z M 495.249993 362.047692 C 493.624993 362.047692 491.999993 362.541113 490.624993 363.65131 Z M 487.499993 364.391442 C 486.499993 364.391442 483.499993 365.131574 481.874993 365.99506 Z M 458.749993 367.598679 C 460.249993 367.598679 463.499993 367.598679 464.374993 368.33881 L 458.749993 367.475323 Z M 467.499993 367.598679 C 468.374993 366.735192 471.499993 366.735192 473.124993 367.598679 Z M 467.499993 367.598679 " transform="matrix(0.03125,0,0,0.0316667,-1.5625,0)"/>
<path style=" stroke:none;fill-rule:nonzero;fill:rgb(75.294119%,57.647061%,0%);fill-opacity:1;" d="M 11.039062 11.863281 C 11.023438 11.855469 11.019531 11.84375 11.023438 11.832031 C 11.027344 11.808594 11.039062 11.800781 11.054688 11.804688 C 11.066406 11.804688 11.082031 11.824219 11.082031 11.832031 L 11.070312 11.851562 L 11.0625 11.855469 C 11.058594 11.863281 11.054688 11.863281 11.039062 11.863281 M 12.757812 11.984375 C 12.75 11.980469 12.746094 11.972656 12.742188 11.964844 C 12.742188 11.949219 12.757812 11.933594 12.773438 11.933594 L 12.796875 11.945312 C 12.808594 11.957031 12.804688 11.96875 12.792969 11.984375 C 12.785156 11.988281 12.773438 11.988281 12.757812 11.984375 Z M 12.769531 12.066406 C 12.757812 12.0625 12.753906 12.050781 12.75 12.039062 C 12.746094 12.027344 12.753906 12.015625 12.765625 12.011719 L 12.777344 12.003906 L 12.789062 12.011719 C 12.804688 12.015625 12.808594 12.023438 12.8125 12.035156 C 12.8125 12.046875 12.804688 12.054688 12.789062 12.0625 C 12.78125 12.066406 12.773438 12.066406 12.769531 12.0625 Z M 12.769531 12.066406 "/>
<path style=" stroke:none;fill-rule:nonzero;fill:rgb(75.294119%,57.647061%,0%);fill-opacity:1;" d="M 11.179688 11.714844 C 11.167969 11.71875 11.152344 11.726562 11.144531 11.734375 C 11.125 11.738281 11.101562 11.75 11.082031 11.734375 C 11.0625 11.734375 11.039062 11.734375 11.035156 11.761719 C 11.039062 11.78125 11.066406 11.792969 11.085938 11.78125 C 11.097656 11.765625 11.132812 11.75 11.136719 11.78125 C 11.121094 11.804688 11.125 11.832031 11.113281 11.855469 C 11.109375 11.871094 11.105469 11.882812 11.097656 11.898438 C 11.082031 11.898438 11.066406 11.898438 11.054688 11.90625 C 11.035156 11.90625 11.015625 11.917969 11.003906 11.933594 C 10.988281 11.949219 10.980469 11.972656 10.976562 11.996094 C 10.976562 12.015625 11.007812 12.019531 11.023438 12.023438 L 11.085938 12.042969 L 11.1875 12.070312 C 11.238281 12.085938 11.289062 12.09375 11.335938 12.105469 L 11.351562 12.109375 C 11.375 12.117188 11.382812 12.09375 11.382812 12.078125 L 11.414062 11.964844 C 11.421875 11.949219 11.429688 11.917969 11.402344 11.921875 C 11.386719 11.933594 11.371094 11.945312 11.351562 11.949219 C 11.324219 11.949219 11.339844 11.980469 11.351562 11.988281 C 11.351562 12.011719 11.347656 12.027344 11.335938 12.046875 C 11.320312 12.050781 11.300781 12.050781 11.28125 12.039062 C 11.265625 12.039062 11.226562 12.03125 11.242188 12.007812 L 11.257812 11.949219 C 11.265625 11.929688 11.269531 11.910156 11.273438 11.886719 C 11.261719 11.867188 11.242188 11.898438 11.226562 11.898438 C 11.210938 11.902344 11.179688 11.910156 11.195312 11.933594 C 11.214844 11.945312 11.203125 11.96875 11.195312 11.984375 C 11.195312 12.007812 11.171875 12.015625 11.152344 12.007812 C 11.132812 12.007812 11.105469 11.992188 11.121094 11.972656 L 11.136719 11.917969 L 11.160156 11.851562 C 11.160156 11.832031 11.164062 11.8125 11.179688 11.796875 C 11.179688 11.773438 11.195312 11.753906 11.195312 11.734375 C 11.195312 11.722656 11.191406 11.71875 11.179688 11.71875 Z M 11.066406 11.949219 L 11.074219 11.949219 C 11.082031 11.953125 11.082031 11.960938 11.074219 11.96875 L 11.066406 11.972656 C 11.050781 11.972656 11.042969 11.96875 11.046875 11.964844 C 11.046875 11.960938 11.050781 11.957031 11.054688 11.953125 Z M 11.035156 12.105469 C 11.019531 12.09375 11.023438 12.082031 11.042969 12.066406 C 11.050781 12.058594 11.0625 12.058594 11.070312 12.066406 C 11.089844 12.082031 11.089844 12.09375 11.070312 12.109375 C 11.066406 12.117188 11.0625 12.117188 11.054688 12.117188 C 11.050781 12.113281 11.042969 12.113281 11.035156 12.109375 Z M 11.128906 12.136719 C 11.113281 12.132812 11.105469 12.117188 11.109375 12.101562 C 11.113281 12.089844 11.121094 12.085938 11.136719 12.085938 C 11.15625 12.085938 11.164062 12.09375 11.164062 12.109375 C 11.164062 12.121094 11.164062 12.128906 11.15625 12.132812 Z M 13.914062 12.136719 C 13.910156 12.136719 13.90625 12.128906 13.90625 12.121094 C 13.90625 12.109375 13.914062 12.101562 13.929688 12.09375 C 13.949219 12.082031 13.960938 12.085938 13.96875 12.101562 C 13.980469 12.117188 13.976562 12.128906 13.964844 12.136719 C 13.960938 12.144531 13.953125 12.148438 13.941406 12.148438 C 13.925781 12.148438 13.917969 12.144531 13.914062 12.140625 Z M 11.257812 12.175781 C 11.246094 12.171875 11.242188 12.164062 11.242188 12.152344 C 11.242188 12.140625 11.242188 12.136719 11.246094 12.132812 L 11.265625 12.125 L 11.285156 12.128906 C 11.300781 12.140625 11.304688 12.152344 11.292969 12.167969 C 11.285156 12.179688 11.269531 12.183594 11.257812 12.175781 Z M 11.941406 12.207031 L 11.933594 12.199219 C 11.933594 12.179688 11.9375 12.160156 11.941406 12.144531 C 11.941406 12.128906 11.941406 12.113281 11.945312 12.097656 L 11.960938 12.007812 C 11.960938 11.992188 11.960938 11.976562 11.964844 11.964844 C 11.964844 11.9375 11.96875 11.914062 11.972656 11.894531 C 11.972656 11.882812 11.980469 11.863281 11.992188 11.875 C 12.003906 11.890625 12.019531 11.90625 12.035156 11.921875 C 12.046875 11.933594 12.035156 11.945312 12.023438 11.949219 C 12.011719 11.953125 12.007812 11.964844 12.007812 11.980469 L 12.003906 12.015625 C 12.003906 12.039062 12 12.058594 11.996094 12.082031 L 11.992188 12.136719 L 11.988281 12.175781 C 11.988281 12.191406 11.984375 12.203125 11.976562 12.210938 C 11.960938 12.21875 11.953125 12.214844 11.945312 12.207031 Z M 12.867188 11.898438 L 12.828125 11.933594 C 12.808594 11.949219 12.84375 11.957031 12.847656 11.96875 C 12.851562 11.988281 12.855469 12.007812 12.851562 12.027344 C 12.859375 12.046875 12.863281 12.0625 12.859375 12.082031 C 12.859375 12.101562 12.835938 12.097656 12.820312 12.109375 C 12.808594 12.117188 12.800781 12.128906 12.789062 12.140625 L 12.777344 12.191406 C 12.777344 12.207031 12.769531 12.222656 12.777344 12.234375 L 12.78125 12.242188 L 12.796875 12.242188 L 12.84375 12.238281 C 12.882812 12.234375 12.921875 12.230469 12.960938 12.230469 L 13.027344 12.222656 C 13.046875 12.226562 13.054688 12.207031 13.054688 12.191406 C 13.042969 12.167969 13.054688 12.148438 13.042969 12.128906 C 13.039062 12.101562 13.039062 12.078125 13.039062 12.058594 C 13.039062 12.039062 13.015625 12.035156 13.007812 12.046875 C 12.992188 12.054688 12.980469 12.0625 12.96875 12.074219 C 12.960938 12.09375 12.988281 12.09375 12.992188 12.105469 L 12.996094 12.152344 C 13 12.171875 12.980469 12.171875 12.964844 12.175781 C 12.945312 12.183594 12.929688 12.179688 12.917969 12.167969 C 12.914062 12.152344 12.914062 12.136719 12.914062 12.117188 C 12.910156 12.089844 12.90625 12.0625 12.902344 12.035156 C 12.898438 12 12.894531 11.96875 12.894531 11.933594 C 12.894531 11.917969 12.890625 11.894531 12.867188 11.898438 M 12.851562 12.15625 L 12.859375 12.15625 L 12.859375 12.183594 L 12.851562 12.183594 L 12.835938 12.1875 L 12.832031 12.1875 C 12.824219 12.183594 12.824219 12.171875 12.835938 12.164062 Z M 11.914062 11.867188 C 11.902344 11.867188 11.886719 11.886719 11.875 11.882812 C 11.847656 11.886719 11.851562 11.917969 11.871094 11.925781 L 11.871094 11.949219 C 11.875 11.976562 11.859375 12 11.863281 12.023438 C 11.859375 12.050781 11.855469 12.078125 11.851562 12.105469 C 11.84375 12.136719 11.839844 12.164062 11.839844 12.191406 C 11.835938 12.21875 11.820312 12.207031 11.804688 12.199219 L 11.804688 12.167969 C 11.804688 12.144531 11.789062 12.132812 11.765625 12.132812 C 11.746094 12.128906 11.738281 12.117188 11.742188 12.097656 C 11.753906 12.089844 11.769531 12.085938 11.789062 12.085938 C 11.820312 12.09375 11.816406 12.050781 11.800781 12.035156 C 11.785156 12.019531 11.761719 12.003906 11.757812 11.984375 C 11.757812 11.957031 11.742188 11.9375 11.71875 11.917969 C 11.683594 11.917969 11.65625 11.945312 11.648438 11.976562 C 11.628906 11.976562 11.617188 11.980469 11.601562 11.988281 C 11.582031 11.996094 11.550781 12.035156 11.582031 12.050781 C 11.597656 12.050781 11.648438 12.066406 11.625 12.085938 C 11.609375 12.109375 11.589844 12.113281 11.566406 12.105469 C 11.542969 12.105469 11.519531 12.09375 11.519531 12.066406 C 11.519531 12.042969 11.515625 12.019531 11.507812 11.996094 C 11.5 11.96875 11.472656 11.976562 11.46875 12 C 11.449219 12.023438 11.445312 12.042969 11.464844 12.066406 C 11.472656 12.089844 11.46875 12.113281 11.457031 12.132812 C 11.449219 12.167969 11.417969 12.167969 11.398438 12.171875 C 11.386719 12.179688 11.347656 12.171875 11.363281 12.195312 C 11.386719 12.207031 11.414062 12.210938 11.4375 12.203125 C 11.460938 12.199219 11.484375 12.183594 11.5 12.160156 C 11.515625 12.144531 11.542969 12.152344 11.570312 12.152344 C 11.589844 12.152344 11.617188 12.167969 11.640625 12.15625 C 11.648438 12.140625 11.679688 12.109375 11.6875 12.140625 C 11.691406 12.171875 11.707031 12.183594 11.734375 12.179688 C 11.761719 12.179688 11.75 12.199219 11.75 12.21875 C 11.753906 12.246094 11.769531 12.261719 11.796875 12.273438 L 11.820312 12.273438 C 11.847656 12.269531 11.867188 12.253906 11.878906 12.230469 C 11.882812 12.207031 11.890625 12.183594 11.894531 12.160156 C 11.898438 12.125 11.902344 12.089844 11.90625 12.050781 C 11.914062 12.019531 11.917969 11.988281 11.917969 11.949219 L 11.929688 11.878906 C 11.929688 11.867188 11.921875 11.859375 11.914062 11.867188 M 11.703125 11.996094 C 11.707031 11.996094 11.710938 12 11.710938 12.011719 C 11.710938 12.023438 11.714844 12.03125 11.726562 12.035156 L 11.726562 12.046875 L 11.699219 12.050781 C 11.683594 12.050781 11.671875 12.046875 11.664062 12.035156 L 11.65625 12.03125 L 11.679688 12.007812 C 11.691406 12 11.695312 11.996094 11.703125 11.996094 M 13.765625 11.746094 L 13.710938 11.753906 C 13.679688 11.753906 13.664062 11.785156 13.695312 11.804688 C 13.714844 11.851562 13.742188 11.792969 13.773438 11.800781 C 13.820312 11.804688 13.820312 11.855469 13.832031 11.894531 C 13.832031 11.929688 13.839844 11.960938 13.851562 12 C 13.882812 12.035156 13.832031 12.054688 13.808594 12.03125 C 13.789062 12.007812 13.746094 11.984375 13.726562 12.011719 C 13.695312 12.023438 13.695312 12.0625 13.671875 12.074219 C 13.632812 12.085938 13.632812 12.035156 13.609375 12.015625 C 13.589844 11.988281 13.554688 11.984375 13.527344 11.980469 C 13.515625 11.949219 13.523438 11.902344 13.496094 11.882812 C 13.472656 11.894531 13.429688 11.9375 13.464844 11.960938 C 13.496094 11.992188 13.449219 12.003906 13.433594 12.023438 C 13.410156 12.054688 13.402344 12.085938 13.402344 12.117188 C 13.363281 12.140625 13.355469 12.09375 13.351562 12.066406 C 13.351562 12.03125 13.320312 12.039062 13.296875 12.050781 C 13.269531 12.070312 13.25 12.089844 13.234375 12.117188 L 13.234375 12.179688 C 13.242188 12.207031 13.273438 12.195312 13.289062 12.191406 C 13.320312 12.179688 13.335938 12.214844 13.308594 12.234375 C 13.289062 12.25 13.242188 12.242188 13.246094 12.277344 L 13.296875 12.277344 C 13.328125 12.269531 13.367188 12.242188 13.367188 12.203125 C 13.375 12.171875 13.421875 12.175781 13.445312 12.167969 C 13.476562 12.160156 13.519531 12.15625 13.527344 12.199219 C 13.550781 12.222656 13.597656 12.25 13.621094 12.21875 C 13.648438 12.203125 13.664062 12.171875 13.65625 12.144531 C 13.652344 12.117188 13.695312 12.117188 13.710938 12.132812 C 13.726562 12.160156 13.773438 12.152344 13.800781 12.132812 C 13.824219 12.117188 13.832031 12.085938 13.867188 12.085938 L 14.039062 12.035156 C 14.082031 12.027344 14.03125 12 14.019531 11.980469 C 13.988281 11.964844 13.957031 12.035156 13.917969 12 C 13.886719 11.976562 13.890625 11.933594 13.882812 11.898438 C 13.871094 11.855469 13.875 11.804688 13.84375 11.773438 C 13.824219 11.753906 13.796875 11.742188 13.765625 11.746094 M 13.554688 12.046875 C 13.558594 12.046875 13.5625 12.046875 13.570312 12.050781 C 13.582031 12.0625 13.589844 12.070312 13.589844 12.085938 C 13.589844 12.089844 13.585938 12.089844 13.582031 12.09375 L 13.566406 12.101562 C 13.554688 12.097656 13.546875 12.09375 13.542969 12.085938 L 13.542969 12.070312 C 13.539062 12.0625 13.539062 12.054688 13.542969 12.050781 Z M 13.757812 12.058594 C 13.765625 12.058594 13.773438 12.0625 13.78125 12.066406 C 13.785156 12.078125 13.78125 12.085938 13.769531 12.09375 L 13.753906 12.101562 L 13.742188 12.089844 C 13.734375 12.089844 13.730469 12.085938 13.730469 12.078125 C 13.734375 12.066406 13.742188 12.058594 13.757812 12.054688 Z M 13.476562 12.058594 C 13.480469 12.058594 13.484375 12.0625 13.488281 12.066406 C 13.492188 12.070312 13.496094 12.074219 13.496094 12.085938 L 13.496094 12.101562 C 13.5 12.109375 13.496094 12.113281 13.476562 12.109375 C 13.453125 12.105469 13.457031 12.109375 13.457031 12.089844 C 13.457031 12.078125 13.460938 12.074219 13.464844 12.066406 C 13.472656 12.0625 13.476562 12.0625 13.476562 12.0625 Z M 13.304688 12.105469 L 13.320312 12.117188 C 13.320312 12.128906 13.316406 12.132812 13.3125 12.136719 C 13.300781 12.140625 13.289062 12.140625 13.28125 12.136719 L 13.28125 12.132812 C 13.273438 12.128906 13.273438 12.128906 13.28125 12.125 L 13.28125 12.121094 L 13.289062 12.113281 C 13.292969 12.109375 13.300781 12.105469 13.304688 12.105469 M 13.59375 12.144531 L 13.609375 12.148438 L 13.609375 12.167969 L 13.570312 12.167969 L 13.570312 12.160156 C 13.570312 12.152344 13.570312 12.148438 13.574219 12.148438 Z M 13.058594 12.296875 C 13.054688 12.296875 13.050781 12.292969 13.054688 12.289062 C 13.0625 12.28125 13.070312 12.273438 13.082031 12.269531 C 13.097656 12.265625 13.113281 12.253906 13.125 12.238281 L 13.136719 12.207031 L 13.132812 12.164062 C 13.128906 12.148438 13.121094 12.140625 13.109375 12.132812 C 13.097656 12.132812 13.089844 12.125 13.085938 12.113281 C 13.085938 12.105469 13.089844 12.09375 13.097656 12.085938 L 13.117188 12.046875 C 13.128906 12.039062 13.136719 12.042969 13.140625 12.050781 L 13.15625 12.085938 C 13.164062 12.09375 13.171875 12.101562 13.175781 12.117188 C 13.179688 12.128906 13.183594 12.140625 13.1875 12.148438 L 13.195312 12.1875 C 13.195312 12.207031 13.191406 12.222656 13.1875 12.238281 L 13.167969 12.265625 C 13.160156 12.273438 13.148438 12.28125 13.136719 12.285156 C 13.128906 12.292969 13.121094 12.296875 13.109375 12.300781 L 13.0625 12.300781 Z M 12.84375 12.308594 C 12.835938 12.304688 12.835938 12.296875 12.835938 12.289062 C 12.835938 12.277344 12.835938 12.28125 12.84375 12.269531 C 12.851562 12.257812 12.867188 12.257812 12.886719 12.269531 C 12.910156 12.285156 12.917969 12.285156 12.917969 12.273438 C 12.921875 12.265625 12.933594 12.261719 12.949219 12.257812 L 12.964844 12.265625 C 12.972656 12.269531 12.976562 12.277344 12.976562 12.285156 C 12.976562 12.300781 12.976562 12.300781 12.964844 12.3125 C 12.960938 12.316406 12.953125 12.316406 12.945312 12.316406 C 12.933594 12.316406 12.921875 12.308594 12.917969 12.300781 C 12.917969 12.289062 12.917969 12.289062 12.914062 12.296875 L 12.90625 12.300781 C 12.898438 12.300781 12.890625 12.308594 12.882812 12.316406 L 12.867188 12.316406 C 12.855469 12.316406 12.851562 12.316406 12.84375 12.308594 M 12.226562 12.027344 C 12.199219 12.027344 12.183594 12.042969 12.179688 12.066406 C 12.183594 12.089844 12.203125 12.117188 12.191406 12.136719 C 12.199219 12.167969 12.164062 12.183594 12.144531 12.167969 C 12.136719 12.132812 12.121094 12.101562 12.101562 12.070312 C 12.078125 12.066406 12.070312 12.105469 12.050781 12.121094 C 12.058594 12.144531 12.085938 12.167969 12.085938 12.195312 C 12.089844 12.230469 12.078125 12.253906 12.054688 12.269531 C 12.03125 12.292969 12 12.285156 11.976562 12.289062 C 11.945312 12.308594 11.996094 12.316406 12.011719 12.316406 C 12.046875 12.320312 12.078125 12.3125 12.105469 12.289062 C 12.128906 12.28125 12.125 12.234375 12.152344 12.234375 L 12.304688 12.242188 C 12.328125 12.25 12.367188 12.238281 12.386719 12.257812 C 12.386719 12.289062 12.417969 12.316406 12.445312 12.328125 C 12.460938 12.335938 12.476562 12.3125 12.492188 12.308594 C 12.523438 12.300781 12.515625 12.261719 12.535156 12.246094 L 12.691406 12.246094 C 12.695312 12.246094 12.699219 12.230469 12.710938 12.222656 L 12.703125 12.164062 C 12.695312 12.136719 12.703125 12.105469 12.6875 12.085938 C 12.660156 12.078125 12.636719 12.101562 12.613281 12.101562 C 12.578125 12.117188 12.558594 12.140625 12.554688 12.175781 C 12.539062 12.203125 12.511719 12.167969 12.523438 12.144531 L 12.523438 12.113281 C 12.507812 12.097656 12.476562 12.101562 12.457031 12.101562 L 12.363281 12.09375 C 12.332031 12.09375 12.304688 12.09375 12.277344 12.089844 C 12.246094 12.089844 12.246094 12.058594 12.246094 12.035156 Z M 12.289062 12.144531 L 12.320312 12.148438 L 12.359375 12.148438 C 12.390625 12.152344 12.421875 12.15625 12.453125 12.152344 C 12.460938 12.152344 12.464844 12.15625 12.472656 12.167969 L 12.472656 12.230469 C 12.472656 12.238281 12.46875 12.25 12.464844 12.253906 L 12.460938 12.261719 L 12.4375 12.246094 L 12.4375 12.199219 L 12.414062 12.191406 L 12.335938 12.1875 L 12.273438 12.183594 C 12.261719 12.183594 12.253906 12.179688 12.242188 12.171875 C 12.238281 12.164062 12.242188 12.15625 12.257812 12.152344 Z M 12.640625 12.152344 C 12.644531 12.152344 12.648438 12.15625 12.648438 12.164062 L 12.652344 12.179688 C 12.652344 12.183594 12.652344 12.183594 12.648438 12.183594 C 12.628906 12.191406 12.617188 12.191406 12.609375 12.183594 C 12.609375 12.179688 12.613281 12.171875 12.617188 12.167969 Z M 12.640625 12.152344 "/>
<path style="fill-rule:nonzero;fill:rgb(100%,100%,100%);fill-opacity:1;stroke-width:1.1;stroke-linecap:butt;stroke-linejoin:miter;stroke:rgb(75.294119%,57.647061%,0%);stroke-opacity:1;stroke-miterlimit:4;" d="M 449.999993 327.261508 C 482.624993 302.22039 479.749993 265.460522 479.749993 265.460522 L 477.249993 265.583878 C 470.374993 265.583878 454.124993 261.636509 450.249993 256.702299 C 446.249993 261.143088 429.499994 265.707233 422.749994 265.707233 L 420.249994 265.460522 C 420.249994 265.460522 417.249994 302.097035 449.999993 327.261508 Z M 449.999993 327.261508 " transform="matrix(0.03125,0,0,0.0316667,-1.5625,0)"/>
<path style="fill-rule:nonzero;fill:rgb(100%,100%,100%);fill-opacity:1;stroke-width:0.9;stroke-linecap:butt;stroke-linejoin:miter;stroke:rgb(75.294119%,57.647061%,0%);stroke-opacity:1;stroke-miterlimit:4;" d="M 477.249993 268.050983 L 476.374993 268.050983 C 470.249993 268.050983 455.749993 264.843746 450.249993 260.156246 C 444.374993 264.47368 429.749994 268.050983 423.624994 268.050983 L 422.749994 268.050983 C 422.874994 274.342101 423.749994 280.63322 425.374994 286.677627 C 429.374994 301.356903 437.999993 314.432561 449.999993 323.807561 C 461.999993 314.309206 470.624993 301.356903 474.624993 286.554272 C 476.249993 280.509864 477.124993 274.342101 477.249993 268.050983 Z M 477.249993 268.050983 " transform="matrix(0.03125,0,0,0.0316667,-1.5625,0)"/>
<path style=" stroke:none;fill-rule:nonzero;fill:rgb(75.294119%,57.647061%,0%);fill-opacity:1;" d="M 12.167969 8.390625 C 12 8.445312 11.828125 8.480469 11.648438 8.488281 L 11.652344 8.617188 C 11.664062 8.773438 11.691406 8.925781 11.730469 9.074219 C 11.816406 9.386719 11.964844 9.675781 12.167969 9.925781 Z M 12.8125 8.390625 L 12.8125 9.949219 C 13.027344 9.695312 13.183594 9.398438 13.269531 9.074219 C 13.308594 8.925781 13.335938 8.773438 13.347656 8.617188 L 13.351562 8.488281 L 13.324219 8.488281 C 13.207031 8.488281 13 8.453125 12.8125 8.386719 Z M 12.8125 8.390625 "/>
<path style="fill-rule:nonzero;fill:rgb(100%,100%,100%);fill-opacity:1;stroke-width:1.2;stroke-linecap:butt;stroke-linejoin:miter;stroke:rgb(75.294119%,57.647061%,0%);stroke-opacity:1;stroke-miterlimit:4;" d="M 462.249993 253.001641 C 462.999993 253.124996 461.374993 249.547694 461.374993 249.547694 C 463.249993 251.274667 469.749993 251.768088 469.749993 251.768088 C 465.749993 250.041115 461.749993 236.718746 462.249993 225.986839 C 462.749993 215.378286 460.749993 211.184207 459.249993 209.580589 C 457.249993 207.606905 450.749993 205.756576 446.624993 205.633221 C 444.124993 205.509865 444.624993 207.360194 444.624993 207.360194 C 440.124993 206.249997 435.624994 205.756576 433.624994 207.236839 C 431.749994 208.347036 431.374994 214.76151 432.749994 213.651313 C 436.124994 210.937497 438.999993 213.404602 440.999993 216.241773 C 442.749993 218.832234 442.749993 225.986839 440.124993 234.498352 C 437.749993 240.912825 434.374994 246.957233 430.124994 252.261509 C 434.124994 252.261509 439.749993 248.684207 439.749993 248.684207 L 438.374993 254.235194 C 442.624993 252.261509 445.874993 249.054273 445.874993 249.054273 L 449.874993 253.248351 C 451.249993 251.521378 453.874993 249.054273 453.874993 249.054273 C 453.874993 249.054273 457.249993 252.631575 462.249993 253.124996 Z M 462.249993 253.001641 " transform="matrix(0.03125,0,0,0.0316667,-1.5625,0)"/>
<path style="fill:none;stroke-width:1.3;stroke-linecap:butt;stroke-linejoin:miter;stroke:rgb(75.294119%,57.647061%,0%);stroke-opacity:1;stroke-miterlimit:4;" d="M 446.124993 227.590457 C 446.124993 227.590457 443.874993 243.996707 439.749993 248.560852 M 449.749993 227.097036 C 449.749993 227.097036 448.749993 243.749996 445.874993 249.054273 M 452.749993 227.837168 C 452.749993 227.837168 452.749993 245.970391 453.749993 249.054273 M 456.749993 228.700654 C 456.749993 228.700654 457.624993 243.996707 461.374993 249.547694 " transform="matrix(0.03125,0,0,0.0316667,-1.5625,0)"/>
<path style="fill-rule:nonzero;fill:rgb(75.294119%,57.647061%,0%);fill-opacity:1;stroke-width:0.3;stroke-linecap:butt;stroke-linejoin:miter;stroke:rgb(75.294119%,57.647061%,0%);stroke-opacity:1;stroke-miterlimit:4;" d="M 441.999993 219.572365 C 441.874993 218.462168 441.624993 217.35197 440.999993 216.241773 C 438.999993 213.281247 436.124994 210.937497 432.749994 213.651313 C 432.749994 213.651313 433.874994 210.07401 436.374993 209.950655 C 438.249993 209.950655 442.499993 211.430918 446.249993 217.845391 C 446.249993 217.845391 443.499993 217.228615 442.749993 217.845391 C 441.624993 218.832234 442.124993 219.572365 442.124993 219.572365 Z M 441.999993 219.572365 " transform="matrix(0.03125,0,0,0.0316667,-1.5625,0)"/>
<path style="fill-rule:nonzero;fill:rgb(75.294119%,57.647061%,0%);fill-opacity:1;stroke-width:0.3;stroke-linecap:butt;stroke-linejoin:miter;stroke:rgb(75.294119%,57.647061%,0%);stroke-opacity:1;stroke-miterlimit:4;" d="M 432.374994 209.333878 C 432.624994 208.223681 433.124994 207.48355 433.749994 207.236839 C 435.749994 205.756576 440.124993 206.249997 444.624993 207.360194 C 444.624993 207.360194 444.249993 205.509865 446.624993 205.633221 C 450.749993 205.756576 457.249993 207.606905 459.249993 209.580589 C 459.874993 210.320721 460.374993 211.060852 460.749993 212.047694 C 459.749993 210.567431 456.874993 210.690786 456.249993 210.814142 C 455.249993 210.937497 454.499993 210.814142 453.124993 211.184207 C 452.249993 211.430918 451.499993 211.677628 450.749993 212.047694 C 450.374993 212.41776 449.999993 213.651313 449.374993 213.651313 C 448.374993 213.651313 448.374993 213.404602 448.124993 213.157892 C 447.874993 212.41776 447.499993 212.047694 447.249993 212.047694 C 446.124993 212.294405 444.499993 211.430918 442.249993 209.580589 C 439.874993 207.853615 438.999993 207.360194 436.249993 207.606905 C 433.249994 207.853615 432.374994 209.457234 432.374994 209.457234 Z M 432.374994 209.333878 " transform="matrix(0.03125,0,0,0.0316667,-1.5625,0)"/>
<path style=" stroke:none;fill-rule:nonzero;fill:rgb(100%,100%,100%);fill-opacity:1;" d="M 12.5 6.671875 C 12.5 6.652344 12.484375 6.632812 12.460938 6.632812 C 12.441406 6.632812 12.425781 6.652344 12.425781 6.671875 C 12.425781 6.691406 12.441406 6.710938 12.460938 6.710938 C 12.484375 6.710938 12.5 6.691406 12.5 6.671875 Z M 12.5 6.671875 "/>
</g>
</svg>
