<svg xmlns="http://www.w3.org/2000/svg" width="25" height="px" viewBox="0 0 25 19"><path d="M0 0h25v9.5H0Zm0 0" style="stroke:none;fill-rule:evenodd;fill:#000001;fill-opacity:1"/><path d="M0 9.5h25V19H0Zm0 0" style="stroke:none;fill-rule:evenodd;fill:#007a3d;fill-opacity:1"/><path d="M0 5.54h25v7.917H0Zm0 0" style="stroke:none;fill-rule:evenodd;fill:#fff;fill-opacity:1"/><path d="m0 0 12.5 9.5L0 19ZM21.25 9.5c0-1.398-1.121-2.535-2.5-2.535-1.383 0-2.504 1.137-2.504 2.535s1.121 2.531 2.504 2.531c1.379 0 2.5-1.133 2.5-2.531m0 0" style="stroke:none;fill-rule:evenodd;fill:#c4111b;fill-opacity:1"/><path d="M22.188 9.5c0-1.398-1.118-2.535-2.5-2.535-1.38 0-2.5 1.137-2.5 2.535s1.12 2.531 2.5 2.531c1.382 0 2.5-1.133 2.5-2.531m0 0" style="stroke:none;fill-rule:evenodd;fill:#fff;fill-opacity:1"/><path d="m18.078 11.031 1.067-.77 1.058.782-.398-1.266L20.87 9l-1.312-.008-.403-1.265-.41 1.261-1.312-.008 1.054.79-.406 1.265Zm0 0" style="stroke:none;fill-rule:evenodd;fill:#c4111b;fill-opacity:1"/></svg>