<svg xmlns="http://www.w3.org/2000/svg" width="25" height="px" viewBox="0 0 25 19"><path d="M0 0h25v19H0z" style="fill:#be0027;fill-opacity:1;stroke:none"/><path d="m0 19 25-.012V9.5Zm0 0" style="stroke:none;fill-rule:evenodd;fill:#b4d7f4;fill-opacity:1"/><path d="m0 0 25 .012V9.5Zm0 0" style="stroke:none;fill-rule:evenodd;fill:#239e46;fill-opacity:1"/><path d="M7.273 14.266c-.418.117-.656.449-.652.757l2.063-.007c.015-.336-.254-.645-.664-.766 2.015-.04 3.765-.809 4.085-1.297-.312-.14-.68.082-.937.031.613-.289 2.46-1.5 2.16-2.8-.234.722-.937 1.32-1.242 1.48.691-1.059 1.633-2.168.816-3.023.04.496-.312 1.043-.468 1.086.402-1.125.78-2.536-.082-3.461.113.336.066 1.28-.09 1.328-.047-.766-.176-2.367-.969-2.348.25.227.36.848.367 1.473a2.3 2.3 0 0 0-.824-1.07 4.65 4.65 0 0 0-1.621-1.672c.07.503.129.898.82 1.421-.36-.023-.719-.714-1.105-.734-.309-.016-.547.281-1.051.11.055.167.289.242.34.363-.11.082-.364-.012-.574-.117.293.394.742.632 1.125.554.457-.09.945-.039 1.414.23-.29.06-.586.067-.88.024.27.277.45.461.923.457.418 0 .64-.23.746-.086.265.317.441.633.664 1.004-.489.05-.34-.558-.883-.871-.309.633.351 1.395.793 1.711-.012.434.082.863.277 1.246.137.258.313.524.246 1.106-.27-.2-.527-.864-.43-1.391-.335.094-.468.691-.312.992.117.223.195.664.063.86-.133.18-.145.156-.145.55.004.23-.125.508-.332.703.059-.203.074-.418.043-.625-.164.286-.582.579-.71.887-.13.309-.161.836-.782.961-.805.156-1.082.3-1.594.516-.059-.399.113-1.227.441-1.176.317.055 1.29-.34.938-1.168-.066.262-.293.512-.543.527.27-.351.742-.715.512-1.3a1.7 1.7 0 0 1-.637.714c.328-.636.04-.832-.352-.3-.148.199-.238.609-.332 1.125-.156-.418-.144-.973-.328-1.422-.187-.489.254-.618.461-.575.508.137 1.364.137 1.301-.718-.223.289-.605.375-1.023.277.468-.348.836-1 .312-1.344a1.23 1.23 0 0 1-.66.953 2.1 2.1 0 0 1-.012-.984c-.203.223-.351.676-.472 1.2-.012-.516.085-.884.156-1.16.11-.403.375-.142.781-.114.399.023.938-.195.836-.738-.133.214-.41.3-.691.277.34-.211.93-.578.605-1.149-.137.215-.18.395-.574.461.101-.234.117-.582.43-.71-.547-.114-.86.25-1.024.82-.062-.399-.14-.54-.156-.832.297-.328.328-.98-.313-1.125-.043.23-.027.468.047.687-.3-.18-.722-.277-1.008-.027.196.21.489.398.946.168-.11.355-.39.297-.774.156.235.45.532.527.86.477.172.46.18.808-.325 1.472.024-.41-.003-.718-.328-1.058-.28-.274-.508.015-.07.629-.266-.2-.562-.594-.652-.996-.086.492-.008 1.074.261 1.402-.129.137-.273-.016-.488-.356.078 1.082.535 1.293 1.149 1.051.015.594.015 1.145.05 1.863-.355-.523-.808-.914-1.058-1.007-.078.289.215.672.383.882-.254-.054-.801-.472-.801-.472-.055.476.558.926.957 1.12-.469-.019-.676-.194-.977-.487.008 1.336 1.43 1.101 1.7.898l.117 2.078c-.403-.074-.371-.199-.715-.226-.957-.04-1.715-1.164-1.965-1.993-.074.137-.016.278-.082.45-.156-.41-.352-.934-.621-1.18.07.238.078.477.054.922-.093-.285-.175-.375-.183-.715.004-.254.246-.445.234-.809-.011-.265-.25-.843-.285-1.289-.117.461-.187.946-.367 1.23.09-.491.062-.831.21-1.16.173-.347.317-.66.204-1.007-.11.137-.074.258-.352.586-.058-.356.36-.93.766-1.16.285-.149.645-.696.41-1.067-.27.196-.39.457-.77.91.274-1.07.977-1.355 1.817-1.359.184 0 .559-.066.664-.316-.234.09-.515.101-.765.054.183-.273.562-.234.921-.234.278 0 .715-.043.891-.445-.387.152-.809.18-1.21.074.534-.278 1.366-.309 1.796-.676-.488-.367-1.707.086-2.477.621.215-.2.555-.555.743-.84-.422-.203-1.485.992-1.852 1.703-.352.2-.488.516-.625.73.184-.636.203-1.097.36-1.62-1.192.41-.7 2.652-.958 3.191.032-.594.004-1.351-.234-1.742-.367.285-.398 1.957-.055 3.352-.125-.372-.36-.72-.433-1.176-.547 1.008.32 2.199 1.043 3.137-.547-.29-1.082-.907-1.438-1.426.098 1.804 1.953 2.175 2.242 2.62-.39-.187-1.136-.55-1.457-.167a3.9 3.9 0 0 1 1.262.48c.484.61 1.395.88 2.984.946" style="stroke:none;fill-rule:evenodd;fill:#f3e295;fill-opacity:1"/></svg>