<?xml version="1.0" encoding="UTF-8"?>
<svg xmlns="http://www.w3.org/2000/svg" xmlns:xlink="http://www.w3.org/1999/xlink" width="25px" height="px" viewBox="0 0 25 19" version="1.1">
<g id="surface1">
<rect x="0" y="0" width="25" height="19" style="fill:rgb(74.509805%,0%,15.294118%);fill-opacity:1;stroke:none;"/>
<path style=" stroke:none;fill-rule:evenodd;fill:rgb(70.588237%,84.313726%,95.686275%);fill-opacity:1;" d="M 0 19 L 25 18.988281 L 25 9.5 Z M 0 19 "/>
<path style=" stroke:none;fill-rule:evenodd;fill:rgb(13.725491%,61.960787%,27.450982%);fill-opacity:1;" d="M 0 0 L 25 0.0117188 L 25 9.5 Z M 0 0 "/>
<path style=" stroke:none;fill-rule:evenodd;fill:rgb(95.294118%,88.627452%,58.431375%);fill-opacity:1;" d="M 7.273438 14.265625 C 6.855469 14.382812 6.617188 14.714844 6.621094 15.023438 L 8.683594 15.015625 C 8.699219 14.679688 8.429688 14.371094 8.019531 14.25 C 10.035156 14.210938 11.785156 13.441406 12.105469 12.953125 C 11.792969 12.8125 11.425781 13.035156 11.167969 12.984375 C 11.78125 12.695312 13.628906 11.484375 13.328125 10.183594 C 13.09375 10.90625 12.390625 11.503906 12.085938 11.664062 C 12.777344 10.605469 13.71875 9.496094 12.902344 8.640625 C 12.941406 9.136719 12.589844 9.683594 12.433594 9.726562 C 12.835938 8.601562 13.214844 7.191406 12.351562 6.265625 C 12.464844 6.601562 12.417969 7.546875 12.261719 7.59375 C 12.214844 6.828125 12.085938 5.226562 11.292969 5.246094 C 11.542969 5.472656 11.652344 6.09375 11.660156 6.71875 C 11.496094 6.285156 11.210938 5.914062 10.835938 5.648438 C 10.445312 4.960938 9.886719 4.386719 9.214844 3.976562 C 9.285156 4.480469 9.34375 4.875 10.035156 5.398438 C 9.675781 5.375 9.316406 4.683594 8.929688 4.664062 C 8.621094 4.648438 8.382812 4.945312 7.878906 4.773438 C 7.933594 4.941406 8.167969 5.015625 8.21875 5.136719 C 8.109375 5.21875 7.855469 5.125 7.644531 5.019531 C 7.9375 5.414062 8.386719 5.652344 8.769531 5.574219 C 9.226562 5.484375 9.714844 5.535156 10.183594 5.804688 C 9.894531 5.863281 9.597656 5.871094 9.304688 5.828125 C 9.574219 6.105469 9.753906 6.289062 10.226562 6.285156 C 10.644531 6.285156 10.867188 6.054688 10.972656 6.199219 C 11.238281 6.515625 11.414062 6.832031 11.636719 7.203125 C 11.148438 7.253906 11.296875 6.644531 10.753906 6.332031 C 10.445312 6.964844 11.105469 7.726562 11.546875 8.042969 C 11.535156 8.476562 11.628906 8.90625 11.824219 9.289062 C 11.960938 9.546875 12.136719 9.8125 12.070312 10.394531 C 11.800781 10.195312 11.542969 9.53125 11.640625 9.003906 C 11.304688 9.097656 11.171875 9.695312 11.328125 9.996094 C 11.445312 10.21875 11.523438 10.660156 11.390625 10.855469 C 11.257812 11.035156 11.246094 11.011719 11.246094 11.40625 C 11.25 11.636719 11.121094 11.914062 10.914062 12.109375 C 10.972656 11.90625 10.988281 11.691406 10.957031 11.484375 C 10.792969 11.769531 10.375 12.0625 10.246094 12.371094 C 10.117188 12.679688 10.085938 13.207031 9.464844 13.332031 C 8.660156 13.488281 8.382812 13.632812 7.871094 13.847656 C 7.8125 13.449219 7.984375 12.621094 8.3125 12.671875 C 8.628906 12.726562 9.601562 12.332031 9.25 11.503906 C 9.183594 11.765625 8.957031 12.015625 8.707031 12.03125 C 8.976562 11.679688 9.449219 11.316406 9.21875 10.730469 C 9.078125 11.027344 8.855469 11.273438 8.582031 11.445312 C 8.910156 10.808594 8.621094 10.613281 8.230469 11.144531 C 8.082031 11.34375 7.992188 11.753906 7.898438 12.269531 C 7.742188 11.851562 7.753906 11.296875 7.570312 10.847656 C 7.382812 10.359375 7.824219 10.230469 8.03125 10.273438 C 8.539062 10.410156 9.394531 10.410156 9.332031 9.554688 C 9.109375 9.84375 8.726562 9.929688 8.308594 9.832031 C 8.777344 9.484375 9.144531 8.832031 8.621094 8.488281 C 8.574219 8.898438 8.324219 9.253906 7.960938 9.441406 C 7.878906 9.121094 7.875 8.78125 7.949219 8.457031 C 7.746094 8.679688 7.597656 9.132812 7.476562 9.65625 C 7.464844 9.140625 7.5625 8.773438 7.632812 8.496094 C 7.742188 8.09375 8.007812 8.355469 8.414062 8.382812 C 8.8125 8.40625 9.351562 8.1875 9.25 7.644531 C 9.117188 7.859375 8.839844 7.945312 8.558594 7.921875 C 8.898438 7.710938 9.488281 7.34375 9.164062 6.773438 C 9.027344 6.988281 8.984375 7.167969 8.589844 7.234375 C 8.691406 7 8.707031 6.652344 9.019531 6.523438 C 8.472656 6.410156 8.160156 6.773438 7.996094 7.34375 C 7.933594 6.945312 7.855469 6.804688 7.839844 6.511719 C 8.136719 6.183594 8.167969 5.53125 7.527344 5.386719 C 7.484375 5.617188 7.5 5.855469 7.574219 6.074219 C 7.273438 5.894531 6.851562 5.796875 6.566406 6.046875 C 6.761719 6.257812 7.054688 6.445312 7.511719 6.214844 C 7.402344 6.570312 7.121094 6.511719 6.738281 6.371094 C 6.972656 6.820312 7.269531 6.898438 7.597656 6.847656 C 7.769531 7.308594 7.777344 7.65625 7.273438 8.320312 C 7.296875 7.910156 7.269531 7.601562 6.945312 7.261719 C 6.664062 6.988281 6.4375 7.277344 6.875 7.890625 C 6.609375 7.691406 6.3125 7.296875 6.222656 6.894531 C 6.136719 7.386719 6.214844 7.96875 6.484375 8.296875 C 6.355469 8.433594 6.210938 8.28125 5.996094 7.941406 C 6.074219 9.023438 6.53125 9.234375 7.144531 8.992188 C 7.160156 9.585938 7.160156 10.136719 7.195312 10.855469 C 6.839844 10.332031 6.386719 9.941406 6.136719 9.847656 C 6.058594 10.136719 6.351562 10.519531 6.519531 10.730469 C 6.265625 10.675781 5.71875 10.257812 5.71875 10.257812 C 5.664062 10.734375 6.277344 11.183594 6.675781 11.378906 C 6.207031 11.359375 6 11.183594 5.699219 10.890625 C 5.707031 12.226562 7.128906 11.992188 7.398438 11.789062 L 7.515625 13.867188 C 7.113281 13.792969 7.144531 13.667969 6.800781 13.640625 C 5.84375 13.601562 5.085938 12.476562 4.835938 11.648438 C 4.761719 11.785156 4.820312 11.925781 4.753906 12.097656 C 4.597656 11.6875 4.402344 11.164062 4.132812 10.917969 C 4.203125 11.15625 4.210938 11.394531 4.1875 11.839844 C 4.09375 11.554688 4.011719 11.464844 4.003906 11.125 C 4.007812 10.871094 4.25 10.679688 4.238281 10.316406 C 4.226562 10.050781 3.988281 9.472656 3.953125 9.027344 C 3.835938 9.488281 3.765625 9.972656 3.585938 10.257812 C 3.675781 9.765625 3.648438 9.425781 3.796875 9.097656 C 3.96875 8.75 4.113281 8.4375 4 8.089844 C 3.890625 8.226562 3.925781 8.347656 3.648438 8.675781 C 3.589844 8.320312 4.007812 7.746094 4.414062 7.515625 C 4.699219 7.367188 5.058594 6.820312 4.824219 6.449219 C 4.554688 6.644531 4.433594 6.90625 4.054688 7.359375 C 4.328125 6.289062 5.03125 6.003906 5.871094 6 C 6.054688 6 6.429688 5.933594 6.535156 5.683594 C 6.300781 5.773438 6.019531 5.785156 5.769531 5.738281 C 5.953125 5.464844 6.332031 5.503906 6.691406 5.503906 C 6.96875 5.503906 7.40625 5.460938 7.582031 5.058594 C 7.195312 5.210938 6.773438 5.238281 6.371094 5.132812 C 6.90625 4.855469 7.738281 4.824219 8.167969 4.457031 C 7.679688 4.089844 6.460938 4.542969 5.691406 5.078125 C 5.90625 4.878906 6.246094 4.523438 6.433594 4.238281 C 6.011719 4.035156 4.949219 5.230469 4.582031 5.941406 C 4.230469 6.140625 4.09375 6.457031 3.957031 6.671875 C 4.140625 6.035156 4.160156 5.574219 4.316406 5.050781 C 3.125 5.460938 3.617188 7.703125 3.359375 8.242188 C 3.390625 7.648438 3.363281 6.890625 3.125 6.5 C 2.757812 6.785156 2.726562 8.457031 3.070312 9.851562 C 2.945312 9.480469 2.710938 9.132812 2.636719 8.675781 C 2.089844 9.683594 2.957031 10.875 3.679688 11.8125 C 3.132812 11.523438 2.597656 10.90625 2.242188 10.386719 C 2.339844 12.191406 4.195312 12.5625 4.484375 13.007812 C 4.09375 12.820312 3.347656 12.457031 3.027344 12.839844 C 3.472656 12.925781 3.898438 13.085938 4.289062 13.320312 C 4.773438 13.929688 5.683594 14.199219 7.273438 14.265625 "/>
</g>
</svg>
