<svg xmlns="http://www.w3.org/2000/svg" width="25" height="px" viewBox="0 0 25 19"><path d="M0 0h25v19H0z" style="fill:#fff;fill-opacity:1;stroke:none"/><path d="M25 16.234 3.582-.004H0v2.707L21.5 19H25Zm0 0" style="stroke:none;fill-rule:nonzero;fill:#09c;fill-opacity:1"/><path d="M12.36 13.945c-2.5 0-2.422-2.386-2.422-2.386V7.887h4.843v3.672s.086 2.386-2.422 2.386" style="stroke:none;fill-rule:nonzero;fill:#005bbf;fill-opacity:1"/><path d="M296.624 401.19c-60 0-58.125-56.479-58.125-56.479V257.82h116.344v86.891s1.968 56.48-58.219 56.48Zm0 0" style="fill:none;stroke-width:1;stroke-linecap:butt;stroke-linejoin:miter;stroke:#000;stroke-opacity:1;stroke-miterlimit:4" transform="matrix(.04167 0 0 .04226 0 -3.008)"/><path d="M12.336 5.582s-.516-.258-1.004.117c0 0-.879-.129-.945.727 0 .031-.008.094.008.117.02.016.035.05.035.074.004.024.008.04.02.047l.023.074c0 .047-.012.067.039.114.039.039.039.171.039.21 0 .04.023.137.039.157a.22.22 0 0 1 .055.129c0 .039.02.164.007.195-.011.035.051.074.102.09.05.015.664.219 1.566.199.899-.012 1.227-.062 1.602-.195a.1.1 0 0 0 .062-.098.24.24 0 0 1 .012-.129c.016-.023.125-.2.102-.226-.024-.036-.024-.102 0-.125a.8.8 0 0 0 .097-.211c.012-.051.016-.118.04-.13.023-.019.03-.081.038-.097a.2.2 0 0 1 .047-.066s.04-.22.016-.32c-.027-.106-.188-.563-.82-.47 0 0-.477-.367-1.18-.187" style="stroke:none;fill-rule:nonzero;fill:#d81126;fill-opacity:1"/><path d="M296.062 203.19s-12.375-6.009-24.094 2.773c0 0-21.094-2.958-22.688 17.193 0 .832-.187 2.31.188 2.866.469.554.75 1.109.844 1.756s.187 1.017.468 1.11c.188.184.282.739.563 1.755 0 1.017-.281 1.572.844 2.681 1.031 1.017 1.031 4.067 1.031 4.992s.562 3.327.937 3.79c.47.462 1.313 1.756 1.313 2.865s.469 4.067.187 4.714c-.187.74 1.22 1.757 2.438 2.127s16.031 5.176 37.594 4.806c21.656-.277 29.437-1.479 38.437-4.714 1.031-.277 1.687-1.294 1.5-2.311-.188-.555 0-2.588.281-3.05.375-.555 3-4.622 2.438-5.362-.563-.74-.563-2.403 0-2.958.468-.647 2.062-3.697 2.343-4.991s.375-2.773 1.032-3.143c.562-.37.656-1.849.75-2.219.28-.554.75-1.109 1.218-1.571 0 0 1.032-5.084.375-7.58-.562-2.496-4.5-13.311-19.78-11 0 0-11.344-8.69-28.22-4.53Zm0 0" style="fill:none;stroke-width:1.5;stroke-linecap:butt;stroke-linejoin:miter;stroke:#000;stroke-opacity:1;stroke-miterlimit:4" transform="matrix(.04167 0 0 .04226 0 -3.008)"/><path d="M14.066 7.164c-1.957-.625-3.476-.027-3.476-.027s.02.066.035.09.04.074.04.109v.117c0 .031-.017.16.093.156 0 0 1.367-.543 3.14.028 0 0 .051-.04.051-.106 0-.058.012-.117.04-.168a.5.5 0 0 0 .077-.199" style="stroke:none;fill-rule:nonzero;fill:#bcac0b;fill-opacity:1"/><path d="M12.25 10.484h-.855s-.082.774.578 1.012v.066h.136v.094s-.242.219-.03.477v.07h.034v.129h.04v.195s-.032.723-.731 1.07v.04h1.86v-.04c-.7-.343-.731-1.07-.731-1.07v-.195h.039v-.129h.039v-.074c.203-.254-.04-.477-.04-.477v-.09h.145v-.066c.653-.238.57-1.012.57-1.012h-1.058" style="stroke:none;fill-rule:nonzero;fill:#c8b100;fill-opacity:.898039"/><path d="M294 319.29h-20.532s-1.969 18.303 13.875 23.942v1.571h3.281v2.219s-5.812 5.176-.75 11.185v1.756h.844v3.05h.937v4.715s-.75 17.008-17.53 25.143v1.017h44.718v-1.017c-16.781-8.042-17.531-25.143-17.531-25.143v-4.714h1.03v-3.05h.75v-1.757c4.97-6.009-.75-11.185-.75-11.185v-2.219h3.376v-1.571c15.656-5.639 13.687-23.941 13.687-23.941Zm0 0" style="fill:none;stroke-width:1;stroke-linecap:butt;stroke-linejoin:miter;stroke:#000;stroke-opacity:1;stroke-miterlimit:4" transform="matrix(.04167 0 0 .04226 0 -3.008)"/><path d="M286.593 342.862h19.687m-18.937 1.572h18.375m-15 2.496h11.437m-12.28 11.462h13.124m-12.375 1.386h11.531m-11.53 2.866h11.437m-18.47 23.202h25.5m-32.718 5.823h40.031m-41.53.925h43.03" style="fill:none;stroke-width:.3;stroke-linecap:butt;stroke-linejoin:miter;stroke:#000;stroke-opacity:1;stroke-miterlimit:4" transform="matrix(.04167 0 0 .04226 0 -3.008)"/><path d="M12.36 10.441a.54.54 0 0 0 .511-.261.553.553 0 0 0-.512-.844c-.3 0-.543.25-.543.55 0 .305.243.552.543.552" style="stroke:none;fill-rule:nonzero;fill:#ccc;fill-opacity:1"/><path d="M296.624 318.274a13.01 13.01 0 0 0 13.031-13.034c0-7.21-5.812-13.033-13.03-13.033a13.01 13.01 0 0 0-13.032 13.033c0 7.118 5.812 12.942 13.031 12.942Zm0 0" style="fill:none;stroke-width:1;stroke-linecap:butt;stroke-linejoin:miter;stroke:#000;stroke-opacity:1;stroke-miterlimit:4" transform="matrix(.04167 0 0 .04226 0 -3.008)"/><path d="M11.094 8.828h-.336V8.48h-.301v.344h-.34v.305h.34v.336h.3v-.336h.333v-.3" style="stroke:none;fill-rule:nonzero;fill:#ccc;fill-opacity:1"/><path d="M266.343 280.005h-8.156v-8.227h-7.219v8.227h-8.156v7.21h8.156v7.95h7.219v-7.95h7.968v-7.21" style="fill:none;stroke-width:1;stroke-linecap:butt;stroke-linejoin:miter;stroke:#000;stroke-opacity:1;stroke-miterlimit:4" transform="matrix(.04167 0 0 .04226 0 -3.008)"/><path d="M14.617 8.828h-.34V8.48h-.293v.344h-.351v.305h.344v.336h.296v-.336h.34Zm0 0" style="stroke:none;fill-rule:nonzero;fill:#ccc;fill-opacity:1"/><path d="M350.811 280.005h-8.156v-8.227h-7.125v8.227h-8.25v7.21h8.25v7.95h7.125v-7.95h8.156v-7.21" style="fill:none;stroke-width:1;stroke-linecap:butt;stroke-linejoin:miter;stroke:#000;stroke-opacity:1;stroke-miterlimit:4" transform="matrix(.04167 0 0 .04226 0 -3.008)"/><path d="M12.832 8.39h-.34v-.34h-.305v.337h-.332v.304h.332v.348h.301v-.348h.34v-.3" style="stroke:none;fill-rule:nonzero;fill:#ccc;fill-opacity:1"/><path d="M307.968 269.744h-8.156v-8.042h-7.22v8.042h-7.968v7.118h7.969v8.227h7.219v-8.227h8.156v-7.118" style="fill:none;stroke-width:1;stroke-linecap:butt;stroke-linejoin:miter;stroke:#000;stroke-opacity:1;stroke-miterlimit:4" transform="matrix(.04167 0 0 .04226 0 -3.008)"/><path d="M11.094 10.313h-.336v-.348h-.301v.348h-.34v.304h.34v.336h.3v-.336h.333v-.305" style="stroke:none;fill-rule:nonzero;fill:#ccc;fill-opacity:1"/><path d="M266.343 315.224h-8.156v-8.227h-7.219v8.227h-8.156v7.21h8.156v7.95h7.219v-7.95h7.968v-7.21" style="fill:none;stroke-width:1;stroke-linecap:butt;stroke-linejoin:miter;stroke:#000;stroke-opacity:1;stroke-miterlimit:4" transform="matrix(.04167 0 0 .04226 0 -3.008)"/><path d="M14.617 10.313h-.34v-.348h-.293v.348h-.351v.304h.344v.336h.296v-.336h.34Zm0 0" style="stroke:none;fill-rule:nonzero;fill:#ccc;fill-opacity:1"/><path d="M350.811 315.224h-8.156v-8.227h-7.125v8.227h-8.25v7.21h8.25v7.95h7.125v-7.95h8.156v-7.21" style="fill:none;stroke-width:1;stroke-linecap:butt;stroke-linejoin:miter;stroke:#000;stroke-opacity:1;stroke-miterlimit:4" transform="matrix(.04167 0 0 .04226 0 -3.008)"/><path d="M11.094 11.813h-.336v-.34h-.301v.34h-.34v.304h.34v.34h.3v-.336h.333v-.309" style="stroke:none;fill-rule:nonzero;fill:#ccc;fill-opacity:1"/><path d="M266.343 350.72h-8.156v-8.135h-7.219v8.134h-8.156v7.21h8.156v8.043h7.219v-7.95h7.968v-7.303" style="fill:none;stroke-width:1;stroke-linecap:butt;stroke-linejoin:miter;stroke:#000;stroke-opacity:1;stroke-miterlimit:4" transform="matrix(.04167 0 0 .04226 0 -3.008)"/><path d="M14.617 11.813h-.34v-.34h-.293v.34h-.351v.304h.344v.34h.296v-.336h.34Zm0 0" style="stroke:none;fill-rule:nonzero;fill:#ccc;fill-opacity:1"/><path d="M350.811 350.72h-8.156v-8.135h-7.125v8.134h-8.25v7.21h8.25v8.043h7.125v-7.95h8.156v-7.303" style="fill:none;stroke-width:1;stroke-linecap:butt;stroke-linejoin:miter;stroke:#000;stroke-opacity:1;stroke-miterlimit:4" transform="matrix(.04167 0 0 .04226 0 -3.008)"/><path d="M12.355 4.844a.33.33 0 0 0 .329-.332.33.33 0 0 0-.329-.332.33.33 0 0 0-.328.332.33.33 0 0 0 .328.332" style="stroke:none;fill-rule:nonzero;fill:#005bbf;fill-opacity:1"/><path d="M296.53 185.811c4.313 0 7.782-3.512 7.782-7.857 0-4.344-3.47-7.857-7.782-7.857a7.827 7.827 0 0 0-7.875 7.857 7.827 7.827 0 0 0 7.875 7.857Zm0 0" style="fill:none;stroke-width:1;stroke-linecap:butt;stroke-linejoin:miter;stroke:#000;stroke-opacity:1;stroke-miterlimit:4" transform="matrix(.04167 0 0 .04226 0 -3.008)"/><path d="M12.656 4.453h-.265V4.02h.105v-.09h-.105v-.106h-.082v.102h-.106v.09h.102v.437h-.25v.059h.601Zm0 0" style="stroke:none;fill-rule:nonzero;fill:#fc0;fill-opacity:1"/><path d="M303.843 176.568h-6.469v-10.353h2.531v-2.034h-2.53v-2.496h-1.97v2.404h-2.53v2.126h2.437v10.353h-6v1.386h14.53v-1.386" style="fill-rule:nonzero;fill:#bcac0b;fill-opacity:1;stroke-width:.5;stroke-linecap:butt;stroke-linejoin:miter;stroke:#000;stroke-opacity:1;stroke-miterlimit:4" transform="matrix(.04167 0 0 .04226 0 -3.008)"/><path d="M11.05 5.238s.243-.027.38.028c0 0-.157.183-.125.425q.013.136.078.254a.43.43 0 0 1 .05.278h.047s.043-.2-.03-.309a.44.44 0 0 1-.04-.437c.078-.157.192-.223.192-.223.16.035.328.016.472-.055.078-.058.117-.136-.023-.14-.149-.008-.39-.004-.555.12 0 0-.086-.1-.523-.054s-.75.238-.852.637c-.05.207.137.636.309.734 0 0-.004-.066.011-.121 0 0-.293-.332-.207-.64.086-.31.442-.505.817-.497" style="stroke:none;fill-rule:nonzero;fill:#fc0;fill-opacity:1"/><path d="M265.218 195.055s5.812-.555 9.094.74c0 0-3.844 4.437-3 10.075.375 3.05 1.03 4.53 1.875 6.009.843 1.294 1.687 4.344 1.218 6.655h1.125s1.032-4.807-.75-7.395c-2.156-3.05-2.625-7.025-.937-10.353 1.875-3.79 4.594-5.269 4.594-5.269 3 1.202 9.562 0 11.343-1.294s2.813-3.235-.562-3.328c-3.563-.185-9.281-.092-13.313 2.866 0 0-2.062-2.403-12.562-1.294-10.5 1.201-18 5.73-20.437 15.16-1.22 4.806 3.28 14.882 7.406 17.285 0 0-.094-1.571.281-2.773 0 0-7.031-7.95-4.969-15.252 2.156-7.21 10.594-12.017 19.594-11.832Zm0 0" style="fill-rule:nonzero;fill:#bcac0b;fill-opacity:1;stroke-width:.7;stroke-linecap:butt;stroke-linejoin:miter;stroke:#000;stroke-opacity:1;stroke-miterlimit:4" transform="matrix(.04167 0 0 .04226 0 -3.008)"/><path d="M11.871 5.176c.078-.008.137-.02.133-.031 0-.012-.063-.012-.137-.008q-.125.013-.133.031c0 .012.063.012.137.008" style="stroke:none;fill-rule:nonzero;fill:#fff;fill-opacity:1"/><path d="M278.343 195.425s-2.063 1.941 0 0c1.969-2.034 6.375-3.236 8.812-2.68 2.438.554-.468.831-1.218.923-.844.093-2.438.37-4.875 0" style="fill:none;stroke-width:.7;stroke-linecap:butt;stroke-linejoin:miter;stroke:#000;stroke-opacity:1;stroke-miterlimit:4" transform="matrix(.04167 0 0 .04226 0 -3.008)"/><path d="M13.652 5.266s-.234-.028-.379.027a.63.63 0 0 1 .051.672.46.46 0 0 0-.054.285h-.04s-.05-.2.028-.312a.44.44 0 0 0 .039-.43.5.5 0 0 0-.188-.227c-.129.051-.406 0-.48-.054-.074-.059-.117-.133.031-.145.14-.008.387 0 .55.129 0 0 .087-.106.528-.055.43.047.75.239.844.637.05.195-.133.629-.305.727 0 0 0-.067-.011-.118 0 0 .293-.332.207-.636-.09-.313-.438-.508-.82-.5" style="stroke:none;fill-rule:nonzero;fill:#fc0;fill-opacity:1"/><path d="M327.655 195.795s-5.625-.74-9.093.647c3.468 4.621 3.937 10.815 1.218 15.991-.843 1.48-1.781 4.345-1.312 6.656h-.938s-1.218-4.715.657-7.395a9.93 9.93 0 0 0 .937-10.168c-1.031-2.219-2.531-4.068-4.5-5.454-3.094 1.294-9.75 0-11.531-1.294s-2.813-3.05.75-3.236c3.375-.277 9.281-.184 13.219 2.958 0 0 2.062-2.495 12.656-1.294 10.406 1.11 18 5.639 20.25 14.975 1.218 4.807-3.188 14.883-7.313 17.286 0 0 0-1.572-.281-2.773 0 0 7.031-7.765 4.969-15.068-2.157-7.302-10.5-12.016-19.688-11.831Zm0 0" style="fill-rule:nonzero;fill:#bcac0b;fill-opacity:1;stroke-width:.7;stroke-linecap:butt;stroke-linejoin:miter;stroke:#000;stroke-opacity:1;stroke-miterlimit:4" transform="matrix(.04167 0 0 .04226 0 -3.008)"/><path d="M12.832 5.203c-.074 0-.133-.02-.133-.031 0-.012.063-.012.137-.008.078.008.14.02.14.027 0 .016-.062.02-.144.012" style="stroke:none;fill-rule:nonzero;fill:#fff;fill-opacity:1"/><path d="M314.624 195.98s2.063 2.033 0 0c-2.062-1.85-6.469-3.143-8.812-2.589-2.532.555.375.832 1.218.925.844 0 2.438.37 4.875 0" style="fill:none;stroke-width:.7;stroke-linecap:butt;stroke-linejoin:miter;stroke:#000;stroke-opacity:1;stroke-miterlimit:4" transform="matrix(.04167 0 0 .04226 0 -3.008)"/><path d="M12.129 4.988v.95c-.008.09.113.226.2.261 0 0 .21-.066.222-.261v-.989h-.07v.86c0 .082-.06.242-.141.265 0 0-.149-.023-.156-.265v-.836l-.055.023" style="stroke:none;fill-rule:nonzero;fill:#fc0;fill-opacity:1"/><path d="M291.093 189.324V211.6c-.188 2.219 2.719 5.27 4.781 6.194 0 0 5.063-1.572 5.344-6.194v-23.479h-1.688v20.336c0 2.034-1.406 5.824-3.375 6.471 0 0-3.562-.647-3.75-6.47v-19.782l-1.312.647" style="fill-rule:nonzero;fill:#bcac0b;fill-opacity:1;stroke-width:.7;stroke-linecap:butt;stroke-linejoin:miter;stroke:#000;stroke-opacity:1;stroke-miterlimit:4" transform="matrix(.04167 0 0 .04226 0 -3.008)"/><path d="M10.078 6.281a.13.13 0 0 0 .117-.047.13.13 0 0 0 0-.129.12.12 0 0 0-.117-.05.12.12 0 0 0-.094.113c0 .055.04.105.094.113" style="stroke:none;fill-rule:nonzero;fill:#fff;fill-opacity:1"/><path d="M241.78 219.828c1.126.185 2.157-.277 2.813-1.201a2.8 2.8 0 0 0 0-2.958c-.656-.925-1.687-1.387-2.812-1.202-1.22.277-2.157 1.386-2.157 2.68s.938 2.404 2.157 2.681Zm0 0" style="fill:none;stroke-width:1;stroke-linecap:butt;stroke-linejoin:miter;stroke:#000;stroke-opacity:1;stroke-miterlimit:4" transform="matrix(.04167 0 0 .04226 0 -3.008)"/><path d="M10.004 6.02a.11.11 0 0 0 .121-.043.12.12 0 0 0 0-.133.11.11 0 0 0-.121-.043.11.11 0 0 0-.082.11c0 .05.031.097.082.109" style="stroke:none;fill-rule:nonzero;fill:#fff;fill-opacity:1"/><path d="M240.093 213.727c1.031.185 2.156-.277 2.813-1.201a2.8 2.8 0 0 0 0-2.958c-.657-.925-1.782-1.387-2.813-1.202-1.219.277-2.156 1.387-2.156 2.68 0 1.295.937 2.404 2.156 2.681Zm0 0" style="fill:none;stroke-width:1;stroke-linecap:butt;stroke-linejoin:miter;stroke:#000;stroke-opacity:1;stroke-miterlimit:4" transform="matrix(.04167 0 0 .04226 0 -3.008)"/><path d="M10.04 5.707a.11.11 0 0 0 .12-.043.12.12 0 0 0 0-.133.11.11 0 0 0-.12-.047.12.12 0 0 0-.083.114c0 .05.031.097.082.109" style="stroke:none;fill-rule:nonzero;fill:#fff;fill-opacity:1"/><path d="M241.03 206.332c1.032.185 2.157-.277 2.72-1.201.655-.925.655-2.034 0-2.958-.563-.925-1.688-1.387-2.72-1.202-1.312.277-2.25 1.387-2.25 2.68 0 1.295.938 2.404 2.25 2.681Zm0 0" style="fill:none;stroke-width:1;stroke-linecap:butt;stroke-linejoin:miter;stroke:#000;stroke-opacity:1;stroke-miterlimit:4" transform="matrix(.04167 0 0 .04226 0 -3.008)"/><path d="M10.21 5.445a.11.11 0 0 0 .122-.043.12.12 0 0 0 0-.132.11.11 0 0 0-.121-.043.11.11 0 0 0-.082.109c0 .05.031.098.082.11" style="stroke:none;fill-rule:nonzero;fill:#fff;fill-opacity:1"/><path d="M245.062 200.14c1.125.184 2.156-.278 2.812-1.203a2.8 2.8 0 0 0 0-2.958c-.656-.924-1.687-1.386-2.812-1.201-1.219.277-2.156 1.386-2.156 2.68s.937 2.404 2.156 2.681Zm0 0" style="fill:none;stroke-width:1;stroke-linecap:butt;stroke-linejoin:miter;stroke:#000;stroke-opacity:1;stroke-miterlimit:4" transform="matrix(.04167 0 0 .04226 0 -3.008)"/><path d="M10.418 5.258a.11.11 0 0 0 .121-.047.12.12 0 0 0 0-.133.11.11 0 0 0-.121-.043.11.11 0 0 0-.082.11c0 .054.031.097.082.113" style="stroke:none;fill-rule:nonzero;fill:#fff;fill-opacity:1"/><path d="M250.03 195.61c1.032.185 2.157-.278 2.72-1.202.655-.832.655-2.034 0-2.958-.563-.924-1.688-1.387-2.72-1.11a2.604 2.604 0 0 0-2.25 2.589c0 1.294.938 2.403 2.25 2.68Zm0 0" style="fill:none;stroke-width:1;stroke-linecap:butt;stroke-linejoin:miter;stroke:#000;stroke-opacity:1;stroke-miterlimit:4" transform="matrix(.04167 0 0 .04226 0 -3.008)"/><path d="M10.684 5.148a.11.11 0 0 0 .12-.043.12.12 0 0 0 0-.132.11.11 0 0 0-.12-.043.11.11 0 0 0-.082.11c0 .05.03.097.082.108" style="stroke:none;fill-rule:nonzero;fill:#fff;fill-opacity:1"/><path d="M256.405 193.114c1.032.185 2.157-.277 2.72-1.202.655-.832.655-2.033 0-2.958-.563-.924-1.688-1.386-2.72-1.11-1.312.186-2.156 1.295-2.156 2.59 0 1.293.844 2.403 2.156 2.68Zm0 0" style="fill:none;stroke-width:1;stroke-linecap:butt;stroke-linejoin:miter;stroke:#000;stroke-opacity:1;stroke-miterlimit:4" transform="matrix(.04167 0 0 .04226 0 -3.008)"/><path d="M10.957 5.105c.063 0 .113-.05.113-.113a.117.117 0 0 0-.113-.117.12.12 0 0 0-.094.113c0 .055.04.106.094.114" style="stroke:none;fill-rule:nonzero;fill:#fff;fill-opacity:1"/><path d="M262.968 192.005c1.5 0 2.719-1.202 2.719-2.681s-1.22-2.68-2.72-2.68c-1.218.184-2.155 1.293-2.155 2.587s.937 2.404 2.156 2.681Zm0 0" style="fill:none;stroke-width:1;stroke-linecap:butt;stroke-linejoin:miter;stroke:#000;stroke-opacity:1;stroke-miterlimit:4" transform="matrix(.04167 0 0 .04226 0 -3.008)"/><path d="M11.223 5.086a.12.12 0 0 0 .117-.05.12.12 0 0 0 0-.126.12.12 0 0 0-.117-.05.12.12 0 0 0-.094.113c0 .054.039.105.094.113" style="stroke:none;fill-rule:nonzero;fill:#fff;fill-opacity:1"/><path d="M269.343 191.635c1.406 0 2.625-1.202 2.625-2.773 0-1.48-1.219-2.681-2.625-2.681-1.5 0-2.719 1.202-2.719 2.68 0 1.572 1.219 2.774 2.719 2.774Zm0 0" style="fill:none;stroke-width:1;stroke-linecap:butt;stroke-linejoin:miter;stroke:#000;stroke-opacity:1;stroke-miterlimit:4" transform="matrix(.04167 0 0 .04226 0 -3.008)"/><path d="M11.457 5.105a.13.13 0 0 0 .117-.046.13.13 0 0 0 0-.13.12.12 0 0 0-.117-.05.117.117 0 0 0-.113.117c0 .063.05.113.113.113" style="stroke:none;fill-rule:nonzero;fill:#fff;fill-opacity:1"/><path d="M274.968 192.005c1.125.184 2.156-.278 2.812-1.202.563-.832.563-2.034 0-2.958-.656-.924-1.687-1.387-2.812-1.11-1.5 0-2.625 1.202-2.625 2.681s1.125 2.681 2.625 2.681Zm0 0" style="fill:none;stroke-width:1;stroke-linecap:butt;stroke-linejoin:miter;stroke:#000;stroke-opacity:1;stroke-miterlimit:4" transform="matrix(.04167 0 0 .04226 0 -3.008)"/><path d="M12.125 5.02a.11.11 0 0 0 .121-.047.11.11 0 0 0 0-.13.11.11 0 0 0-.121-.046.114.114 0 0 0-.082.113c0 .05.031.094.082.11" style="stroke:none;fill-rule:nonzero;fill:#fff;fill-opacity:1"/><path d="M291 189.971c1.03.277 2.155-.185 2.718-1.11a2.61 2.61 0 0 0 0-3.05c-.563-.832-1.688-1.294-2.719-1.109-1.312.277-2.156 1.387-2.156 2.68 0 1.295.844 2.404 2.156 2.589Zm0 0" style="fill:none;stroke-width:1;stroke-linecap:butt;stroke-linejoin:miter;stroke:#000;stroke-opacity:1;stroke-miterlimit:4" transform="matrix(.04167 0 0 .04226 0 -3.008)"/><path d="M12.344 5.078a.11.11 0 0 0 .12-.043.12.12 0 0 0 0-.133.11.11 0 0 0-.12-.047.114.114 0 0 0-.082.114c0 .05.031.097.082.11" style="stroke:none;fill-rule:nonzero;fill:#fff;fill-opacity:1"/><path d="M296.155 191.358c1.125.277 2.25-.185 2.813-1.11.562-.924.562-2.126 0-2.958-.563-.924-1.688-1.386-2.813-1.201-1.218.277-2.156 1.386-2.156 2.68s.938 2.404 2.156 2.589Zm0 0" style="fill:none;stroke-width:1;stroke-linecap:butt;stroke-linejoin:miter;stroke:#000;stroke-opacity:1;stroke-miterlimit:4" transform="matrix(.04167 0 0 .04226 0 -3.008)"/><path d="M12.344 5.918c.062 0 .113-.05.113-.113a.114.114 0 0 0-.113-.117.114.114 0 0 0-.114.117c0 .062.051.113.114.113" style="stroke:none;fill-rule:nonzero;fill:#fff;fill-opacity:1"/><path d="M296.155 211.232c1.5 0 2.72-1.202 2.72-2.774 0-1.479-1.22-2.68-2.72-2.68-1.406 0-2.625 1.201-2.625 2.68 0 1.572 1.22 2.774 2.625 2.774Zm0 0" style="fill:none;stroke-width:1;stroke-linecap:butt;stroke-linejoin:miter;stroke:#000;stroke-opacity:1;stroke-miterlimit:4" transform="matrix(.04167 0 0 .04226 0 -3.008)"/><path d="M14.637 6.352a.11.11 0 0 0 .117-.047.13.13 0 0 0 0-.13.11.11 0 0 0-.117-.046.11.11 0 0 0-.094.113c0 .055.039.102.094.11" style="stroke:none;fill-rule:nonzero;fill:#fff;fill-opacity:1"/><path d="M351.28 221.492c1.125.185 2.156-.277 2.813-1.11a2.97 2.97 0 0 0 0-3.05c-.657-.924-1.688-1.386-2.813-1.109-1.219.185-2.156 1.294-2.156 2.588s.937 2.404 2.156 2.681Zm0 0" style="fill:none;stroke-width:1;stroke-linecap:butt;stroke-linejoin:miter;stroke:#000;stroke-opacity:1;stroke-miterlimit:4" transform="matrix(.04167 0 0 .04226 0 -3.008)"/><path d="M14.695 6.074a.11.11 0 0 0 .117-.047.13.13 0 0 0 0-.129.13.13 0 0 0-.117-.046.11.11 0 0 0-.082.109c0 .05.032.098.082.11" style="stroke:none;fill-rule:nonzero;fill:#fff;fill-opacity:1"/><path d="M352.686 215.021c1.5 0 2.72-1.201 2.72-2.68 0-1.572-1.22-2.773-2.72-2.773-1.218.277-2.156 1.386-2.156 2.68s.938 2.404 2.156 2.681Zm0 0" style="fill:none;stroke-width:1;stroke-linecap:butt;stroke-linejoin:miter;stroke:#000;stroke-opacity:1;stroke-miterlimit:4" transform="matrix(.04167 0 0 .04226 0 -3.008)"/><path d="M14.648 5.777a.11.11 0 0 0 .122-.043.12.12 0 0 0 0-.132.11.11 0 0 0-.122-.043.11.11 0 0 0-.093.113c0 .055.039.101.093.11" style="stroke:none;fill-rule:nonzero;fill:#fff;fill-opacity:1"/><path d="M351.561 207.996c1.125.185 2.157-.277 2.813-1.109a2.97 2.97 0 0 0 0-3.05c-.656-.925-1.688-1.387-2.813-1.11-1.218.185-2.156 1.294-2.156 2.589s.938 2.403 2.156 2.68Zm0 0" style="fill:none;stroke-width:1;stroke-linecap:butt;stroke-linejoin:miter;stroke:#000;stroke-opacity:1;stroke-miterlimit:4" transform="matrix(.04167 0 0 .04226 0 -3.008)"/><path d="M14.531 5.508a.12.12 0 0 0 .117-.051.13.13 0 0 0 0-.129.13.13 0 0 0-.117-.047.114.114 0 0 0-.094.114c0 .054.04.101.094.113" style="stroke:none;fill-rule:nonzero;fill:#fff;fill-opacity:1"/><path d="M348.655 201.526c1.5 0 2.719-1.202 2.719-2.681 0-1.571-1.219-2.773-2.719-2.773-1.406 0-2.625 1.202-2.625 2.773 0 1.479 1.219 2.68 2.625 2.68Zm0 0" style="fill:none;stroke-width:1;stroke-linecap:butt;stroke-linejoin:miter;stroke:#000;stroke-opacity:1;stroke-miterlimit:4" transform="matrix(.04167 0 0 .04226 0 -3.008)"/><path d="M14.324 5.316c.063 0 .114-.05.114-.113a.114.114 0 0 0-.114-.117.12.12 0 0 0-.094.113c0 .055.04.102.094.114" style="stroke:none;fill-rule:nonzero;fill:#fff;fill-opacity:1"/><path d="M343.78 196.996c1.5 0 2.719-1.201 2.719-2.68s-1.219-2.681-2.719-2.681c-1.219.185-2.156 1.294-2.156 2.588s.937 2.403 2.156 2.68Zm0 0" style="fill:none;stroke-width:1;stroke-linecap:butt;stroke-linejoin:miter;stroke:#000;stroke-opacity:1;stroke-miterlimit:4" transform="matrix(.04167 0 0 .04226 0 -3.008)"/><path d="M14.078 5.188a.11.11 0 0 0 .121-.043.12.12 0 0 0 0-.133.11.11 0 0 0-.12-.043.11.11 0 0 0-.083.11c0 .05.031.097.082.109" style="stroke:none;fill-rule:nonzero;fill:#fff;fill-opacity:1"/><path d="M337.874 194.038c1.125.185 2.156-.277 2.812-1.201a2.8 2.8 0 0 0 0-2.958c-.656-.925-1.687-1.387-2.812-1.202-1.219.277-2.156 1.386-2.156 2.68s.937 2.404 2.156 2.681Zm0 0" style="fill:none;stroke-width:1;stroke-linecap:butt;stroke-linejoin:miter;stroke:#000;stroke-opacity:1;stroke-miterlimit:4" transform="matrix(.04167 0 0 .04226 0 -3.008)"/><path d="M13.797 5.125a.11.11 0 0 0 .121-.043.12.12 0 0 0 0-.133.11.11 0 0 0-.121-.043.11.11 0 0 0-.082.11c0 .05.031.097.082.109" style="stroke:none;fill-rule:nonzero;fill:#fff;fill-opacity:1"/><path d="M331.124 192.467c1.031.277 2.156-.185 2.719-1.11a2.61 2.61 0 0 0 0-3.05c-.563-.832-1.688-1.294-2.719-1.11-1.313.278-2.25 1.387-2.25 2.682s.937 2.403 2.25 2.588Zm0 0" style="fill:none;stroke-width:1;stroke-linecap:butt;stroke-linejoin:miter;stroke:#000;stroke-opacity:1;stroke-miterlimit:4" transform="matrix(.04167 0 0 .04226 0 -3.008)"/><path d="M13.543 5.105a.13.13 0 0 0 .117-.046.13.13 0 0 0 0-.13.12.12 0 0 0-.117-.05.12.12 0 0 0-.094.113c0 .055.04.106.094.113" style="stroke:none;fill-rule:nonzero;fill:#fff;fill-opacity:1"/><path d="M325.03 192.005c1.031.184 2.156-.278 2.719-1.202.656-.832.656-2.034 0-2.958-.563-.924-1.688-1.387-2.719-1.11a2.604 2.604 0 0 0-2.25 2.589c0 1.294.938 2.403 2.25 2.68Zm0 0" style="fill:none;stroke-width:1;stroke-linecap:butt;stroke-linejoin:miter;stroke:#000;stroke-opacity:1;stroke-miterlimit:4" transform="matrix(.04167 0 0 .04226 0 -3.008)"/><path d="M13.309 5.074a.12.12 0 0 0 .117-.05.12.12 0 0 0 0-.126.12.12 0 0 0-.117-.05.12.12 0 0 0-.094.113c0 .055.039.101.094.113" style="stroke:none;fill-rule:nonzero;fill:#fff;fill-opacity:1"/><path d="M319.405 191.265c1.5 0 2.719-1.202 2.719-2.68 0-1.48-1.219-2.681-2.719-2.681s-2.718 1.201-2.718 2.68 1.218 2.681 2.718 2.681Zm0 0" style="fill:none;stroke-width:1;stroke-linecap:butt;stroke-linejoin:miter;stroke:#000;stroke-opacity:1;stroke-miterlimit:4" transform="matrix(.04167 0 0 .04226 0 -3.008)"/><path d="M13.457 5.992a.13.13 0 0 0 .117-.047.13.13 0 0 0 0-.129.12.12 0 0 0-.117-.05.117.117 0 0 0-.113.117c0 .062.05.113.113.113" style="stroke:none;fill-rule:nonzero;fill:#fff;fill-opacity:1"/><path d="M322.968 212.988c1.125.185 2.156-.277 2.812-1.11a2.97 2.97 0 0 0 0-3.05c-.656-.924-1.687-1.294-2.812-1.11-1.5 0-2.625 1.203-2.625 2.682s1.125 2.68 2.625 2.68Zm0 0" style="fill:none;stroke-width:1;stroke-linecap:butt;stroke-linejoin:miter;stroke:#000;stroke-opacity:1;stroke-miterlimit:4" transform="matrix(.04167 0 0 .04226 0 -3.008)"/><path d="M13.516 5.777a.11.11 0 0 0 .117-.047.13.13 0 0 0 0-.128.13.13 0 0 0-.117-.047.11.11 0 0 0-.082.11c0 .05.03.097.082.108" style="stroke:none;fill-rule:nonzero;fill:#fff;fill-opacity:1"/><path d="M324.374 207.996c1.5 0 2.719-1.201 2.719-2.68s-1.219-2.681-2.719-2.681c-1.219.185-2.156 1.294-2.156 2.588s.937 2.403 2.156 2.68Zm0 0" style="fill:none;stroke-width:1;stroke-linecap:butt;stroke-linejoin:miter;stroke:#000;stroke-opacity:1;stroke-miterlimit:4" transform="matrix(.04167 0 0 .04226 0 -3.008)"/><path d="M12.582 5.059c.063 0 .113-.051.113-.114a.114.114 0 0 0-.113-.117.114.114 0 0 0-.113.117c0 .063.05.114.113.114" style="stroke:none;fill-rule:nonzero;fill:#fff;fill-opacity:1"/><path d="M301.968 190.895c1.5 0 2.719-1.201 2.719-2.68s-1.22-2.681-2.72-2.681-2.624 1.202-2.624 2.68c0 1.48 1.125 2.681 2.625 2.681Zm0 0" style="fill:none;stroke-width:1;stroke-linecap:butt;stroke-linejoin:miter;stroke:#000;stroke-opacity:1;stroke-miterlimit:4" transform="matrix(.04167 0 0 .04226 0 -3.008)"/><path d="M12.043 5.027a.12.12 0 0 0 .117-.05.12.12 0 0 0 0-.125.12.12 0 0 0-.117-.051.114.114 0 0 0-.082.113c0 .05.031.094.082.11" style="stroke:none;fill-rule:nonzero;fill:#fff;fill-opacity:1"/><path d="M289.03 190.063c1.032.278 2.157-.184 2.72-1.109.655-.924.655-2.126 0-2.958-.563-.924-1.688-1.386-2.72-1.202-1.312.278-2.25 1.387-2.25 2.681s.938 2.404 2.25 2.588Zm0 0" style="fill:none;stroke-width:1;stroke-linecap:butt;stroke-linejoin:miter;stroke:#000;stroke-opacity:1;stroke-miterlimit:4" transform="matrix(.04167 0 0 .04226 0 -3.008)"/><path d="M11.91 5.02a.11.11 0 0 0 .121-.047.11.11 0 0 0 0-.13.11.11 0 0 0-.12-.046.114.114 0 0 0-.083.113c0 .05.031.094.082.11" style="stroke:none;fill-rule:nonzero;fill:#fff;fill-opacity:1"/><path d="M285.843 189.971c1.031.277 2.156-.185 2.719-1.11a2.97 2.97 0 0 0 0-3.05c-.563-.832-1.688-1.294-2.72-1.109-1.312.277-2.25 1.387-2.25 2.68 0 1.295.938 2.404 2.25 2.589Zm0 0" style="fill:none;stroke-width:1;stroke-linecap:butt;stroke-linejoin:miter;stroke:#000;stroke-opacity:1;stroke-miterlimit:4" transform="matrix(.04167 0 0 .04226 0 -3.008)"/><path d="M11.2 5.996a.13.13 0 0 0 .116-.047.13.13 0 0 0 0-.129.12.12 0 0 0-.117-.05.12.12 0 0 0-.094.113c0 .054.04.105.094.113" style="stroke:none;fill-rule:nonzero;fill:#fff;fill-opacity:1"/><path d="M268.78 213.08c1.125.185 2.157-.185 2.813-1.109a2.97 2.97 0 0 0 0-3.05c-.656-.832-1.688-1.295-2.813-1.11-1.218.278-2.156 1.387-2.156 2.681s.938 2.403 2.156 2.588Zm0 0" style="fill:none;stroke-width:1;stroke-linecap:butt;stroke-linejoin:miter;stroke:#000;stroke-opacity:1;stroke-miterlimit:4" transform="matrix(.04167 0 0 .04226 0 -3.008)"/><path d="M11.168 5.73a.113.113 0 1 0 0-.226.113.113 0 0 0 0 .226" style="stroke:none;fill-rule:nonzero;fill:#fff;fill-opacity:1"/><path d="M268.03 206.795c1.5 0 2.625-1.202 2.625-2.681s-1.125-2.68-2.625-2.68-2.718 1.2-2.718 2.68c0 1.479 1.218 2.68 2.718 2.68Zm0 0" style="fill:none;stroke-width:1;stroke-linecap:butt;stroke-linejoin:miter;stroke:#000;stroke-opacity:1;stroke-miterlimit:4" transform="matrix(.04167 0 0 .04226 0 -3.008)"/><path d="M11.25 5.469a.11.11 0 0 0 .117-.047.13.13 0 0 0 0-.129.11.11 0 0 0-.117-.047.11.11 0 0 0-.094.113c0 .055.04.102.094.11" style="stroke:none;fill-rule:nonzero;fill:#fff;fill-opacity:1"/><path d="M270 200.601c1.03.185 2.155-.277 2.718-1.109a2.61 2.61 0 0 0 0-3.05c-.563-.925-1.688-1.387-2.719-1.11-1.312.185-2.156 1.294-2.156 2.589s.844 2.403 2.156 2.68Zm0 0" style="fill:none;stroke-width:1;stroke-linecap:butt;stroke-linejoin:miter;stroke:#000;stroke-opacity:1;stroke-miterlimit:4" transform="matrix(.04167 0 0 .04226 0 -3.008)"/><path d="M11.738 5.047a.12.12 0 0 0 .117-.05.12.12 0 0 0 0-.126.12.12 0 0 0-.117-.05.12.12 0 0 0-.093.113c0 .054.039.101.093.113" style="stroke:none;fill-rule:nonzero;fill:#fff;fill-opacity:1"/><path d="M281.718 190.618c1.031.185 2.156-.277 2.719-1.202.656-.832.656-2.033 0-2.958-.563-.924-1.688-1.386-2.72-1.201-1.312.277-2.155 1.386-2.155 2.68s.843 2.404 2.156 2.681Zm0 0" style="fill:none;stroke-width:1;stroke-linecap:butt;stroke-linejoin:miter;stroke:#000;stroke-opacity:1;stroke-miterlimit:4" transform="matrix(.04167 0 0 .04226 0 -3.008)"/><path d="M11.55 5.121a.13.13 0 0 0 .118-.047.13.13 0 0 0 0-.129.12.12 0 0 0-.117-.05.12.12 0 0 0-.094.113c0 .058.04.105.094.113" style="stroke:none;fill-rule:nonzero;fill:#fff;fill-opacity:1"/><path d="M277.218 192.374c1.031.278 2.156-.185 2.719-1.109a2.61 2.61 0 0 0 0-3.05c-.563-.832-1.688-1.294-2.72-1.11-1.312.278-2.155 1.387-2.155 2.681s.843 2.403 2.156 2.588Zm0 0" style="fill:none;stroke-width:1;stroke-linecap:butt;stroke-linejoin:miter;stroke:#000;stroke-opacity:1;stroke-miterlimit:4" transform="matrix(.04167 0 0 .04226 0 -3.008)"/><path d="M11.375 5.273a.11.11 0 0 0 .121-.046.11.11 0 0 0 0-.13.11.11 0 0 0-.121-.046.11.11 0 0 0-.082.11c0 .054.031.097.082.112" style="stroke:none;fill-rule:nonzero;fill:#fff;fill-opacity:1"/><path d="M273 195.98c1.03.184 2.155-.185 2.718-1.11a2.61 2.61 0 0 0 0-3.05c-.563-.832-1.688-1.294-2.719-1.11-1.312.278-2.156 1.387-2.156 2.681s.844 2.404 2.156 2.588Zm0 0" style="fill:none;stroke-width:1;stroke-linecap:butt;stroke-linejoin:miter;stroke:#000;stroke-opacity:1;stroke-miterlimit:4" transform="matrix(.04167 0 0 .04226 0 -3.008)"/><path d="M12.344 5.207a.11.11 0 0 0 .12-.047.12.12 0 0 0 0-.133.11.11 0 0 0-.12-.043.11.11 0 0 0-.082.11c0 .05.031.097.082.113" style="stroke:none;fill-rule:nonzero;fill:#fff;fill-opacity:1"/><path d="M296.155 194.408c1.125.185 2.25-.277 2.813-1.202.562-.832.562-2.033 0-2.958-.563-.924-1.688-1.386-2.813-1.109-1.218.185-2.156 1.294-2.156 2.588s.938 2.404 2.156 2.681Zm0 0" style="fill:none;stroke-width:1;stroke-linecap:butt;stroke-linejoin:miter;stroke:#000;stroke-opacity:1;stroke-miterlimit:4" transform="matrix(.04167 0 0 .04226 0 -3.008)"/><path d="M12.344 5.422c.062 0 .113-.05.113-.113a.117.117 0 0 0-.113-.118.117.117 0 0 0-.114.118c0 .062.051.113.114.113" style="stroke:none;fill-rule:nonzero;fill:#fff;fill-opacity:1"/><path d="M296.155 199.492c1.5 0 2.72-1.202 2.72-2.68 0-1.48-1.22-2.681-2.72-2.681-1.406 0-2.625 1.201-2.625 2.68s1.22 2.681 2.625 2.681Zm0 0" style="fill:none;stroke-width:1;stroke-linecap:butt;stroke-linejoin:miter;stroke:#000;stroke-opacity:1;stroke-miterlimit:4" transform="matrix(.04167 0 0 .04226 0 -3.008)"/><path d="M12.344 5.648a.12.12 0 0 0 .117-.05.12.12 0 0 0 0-.125.12.12 0 0 0-.117-.051.12.12 0 0 0-.094.113c0 .055.04.102.094.113" style="stroke:none;fill-rule:nonzero;fill:#fff;fill-opacity:1"/><path d="M296.155 204.946c1.5 0 2.72-1.294 2.72-2.773s-1.22-2.681-2.72-2.681c-1.406 0-2.625 1.202-2.625 2.68 0 1.48 1.22 2.774 2.625 2.774Zm0 0" style="fill:none;stroke-width:1;stroke-linecap:butt;stroke-linejoin:miter;stroke:#000;stroke-opacity:1;stroke-miterlimit:4" transform="matrix(.04167 0 0 .04226 0 -3.008)"/><path d="M12.727 5.027a.12.12 0 0 0 .117-.05.12.12 0 0 0 0-.125.12.12 0 0 0-.117-.051.114.114 0 0 0-.114.117c0 .062.051.113.114.113" style="stroke:none;fill-rule:nonzero;fill:#fff;fill-opacity:1"/><path d="M305.437 190.156c1.5 0 2.625-1.202 2.625-2.68 0-1.48-1.125-2.682-2.625-2.682s-2.72 1.202-2.72 2.681 1.22 2.68 2.72 2.68Zm0 0" style="fill:none;stroke-width:1;stroke-linecap:butt;stroke-linejoin:miter;stroke:#000;stroke-opacity:1;stroke-miterlimit:4" transform="matrix(.04167 0 0 .04226 0 -3.008)"/><path d="M12.875 4.996a.12.12 0 0 0 .117-.05.12.12 0 0 0 0-.126.12.12 0 0 0-.117-.05.12.12 0 0 0-.094.113c0 .054.04.101.094.113" style="stroke:none;fill-rule:nonzero;fill:#fff;fill-opacity:1"/><path d="M309 189.416c1.03.185 2.155-.277 2.718-1.201.656-.832.656-2.034 0-2.958-.563-.925-1.688-1.387-2.719-1.202-1.312.277-2.156 1.387-2.156 2.68 0 1.295.844 2.404 2.156 2.681Zm0 0" style="fill:none;stroke-width:1;stroke-linecap:butt;stroke-linejoin:miter;stroke:#000;stroke-opacity:1;stroke-miterlimit:4" transform="matrix(.04167 0 0 .04226 0 -3.008)"/><path d="M13.047 5.02a.11.11 0 0 0 .121-.047.11.11 0 0 0 0-.13.11.11 0 0 0-.121-.046.12.12 0 0 0-.094.113c0 .055.04.102.094.113" style="stroke:none;fill-rule:nonzero;fill:#fff;fill-opacity:1"/><path d="M313.218 189.971c1.031.277 2.156-.185 2.719-1.11a2.61 2.61 0 0 0 0-3.05c-.563-.832-1.688-1.294-2.72-1.109-1.5 0-2.718 1.202-2.718 2.68 0 1.48 1.219 2.681 2.719 2.681Zm0 0" style="fill:none;stroke-width:1;stroke-linecap:butt;stroke-linejoin:miter;stroke:#000;stroke-opacity:1;stroke-miterlimit:4" transform="matrix(.04167 0 0 .04226 0 -3.008)"/><path d="M13.477 5.504a.11.11 0 0 0 .12-.047.12.12 0 0 0 0-.133.11.11 0 0 0-.12-.043.11.11 0 0 0-.082.11c0 .05.03.097.082.113" style="stroke:none;fill-rule:nonzero;fill:#fff;fill-opacity:1"/><path d="M323.53 201.433c1.032.185 2.157-.277 2.719-1.201.656-.925.656-2.034 0-2.958-.562-.925-1.687-1.387-2.719-1.202-1.312.277-2.25 1.386-2.25 2.68s.938 2.404 2.25 2.681Zm0 0" style="fill:none;stroke-width:1;stroke-linecap:butt;stroke-linejoin:miter;stroke:#000;stroke-opacity:1;stroke-miterlimit:4" transform="matrix(.04167 0 0 .04226 0 -3.008)"/><path d="M13.223 5.125c.062 0 .113-.05.113-.113a.117.117 0 0 0-.113-.117.117.117 0 0 0-.114.117c0 .062.051.113.114.113" style="stroke:none;fill-rule:nonzero;fill:#fff;fill-opacity:1"/><path d="M317.343 192.467c1.406 0 2.625-1.202 2.625-2.68 0-1.48-1.219-2.682-2.625-2.682-1.5 0-2.719 1.202-2.719 2.681s1.219 2.68 2.719 2.68Zm0 0" style="fill:none;stroke-width:1;stroke-linecap:butt;stroke-linejoin:miter;stroke:#000;stroke-opacity:1;stroke-miterlimit:4" transform="matrix(.04167 0 0 .04226 0 -3.008)"/><path d="M13.379 5.281a.12.12 0 0 0 .117-.05.12.12 0 0 0 0-.126.12.12 0 0 0-.117-.05.12.12 0 0 0-.094.113c0 .055.04.102.094.113" style="stroke:none;fill-rule:nonzero;fill:#fff;fill-opacity:1"/><path d="M321.093 196.072c1.031.277 2.156-.185 2.812-1.11a2.97 2.97 0 0 0 0-3.05c-.656-.832-1.781-1.294-2.812-1.11-1.219.278-2.156 1.387-2.156 2.682s.937 2.403 2.156 2.588Zm0 0" style="fill:none;stroke-width:1;stroke-linecap:butt;stroke-linejoin:miter;stroke:#000;stroke-opacity:1;stroke-miterlimit:4" transform="matrix(.04167 0 0 .04226 0 -3.008)"/><path d="m12.332 6.965-.289.152.262.172.312-.16Zm0 0" style="stroke:none;fill-rule:nonzero;fill:#fff;fill-opacity:1"/><path d="m295.968 236.005-6.938 3.605 6.282 3.975 7.5-3.79-6.844-3.79" style="fill:none;stroke-width:.5;stroke-linecap:butt;stroke-linejoin:miter;stroke:#000;stroke-opacity:1;stroke-miterlimit:4" transform="matrix(.04167 0 0 .04226 0 -3.008)"/><path d="m11.691 7-.437.066s-.008.243.012.297l.457-.058s.02-.227-.032-.305" style="stroke:none;fill-rule:nonzero;fill:#fff;fill-opacity:1"/><path d="m280.593 236.837-10.5 1.571s-.188 5.731.281 7.025l10.969-1.479s.469-5.269-.75-7.117Zm0 0" style="fill:none;stroke-width:.5;stroke-linecap:butt;stroke-linejoin:miter;stroke:#000;stroke-opacity:1;stroke-miterlimit:4" transform="matrix(.04167 0 0 .04226 0 -3.008)"/><path d="M11.645 7.086s-.266.023-.332.047v.16s.18-.031.335-.043v-.164" style="stroke:none;fill-rule:nonzero;fill:#058e6e;fill-opacity:.898039"/><path d="M279.468 238.778s-6.375.647-7.969 1.202v3.79s4.313-.648 8.063-.925l-.094-4.067" style="fill:none;stroke-width:.5;stroke-linecap:butt;stroke-linejoin:miter;stroke:#000;stroke-opacity:1;stroke-miterlimit:4" transform="matrix(.04167 0 0 .04226 0 -3.008)"/><path d="m12.945 7.008.442.07s.004.242-.016.297l-.45-.059s-.023-.222.024-.304" style="stroke:none;fill-rule:nonzero;fill:#fff;fill-opacity:1"/><path d="m310.687 237.022 10.593 1.663s.094 5.732-.375 7.026l-10.781-1.387s-.562-5.361.563-7.21Zm0 0" style="fill:none;stroke-width:.5;stroke-linecap:butt;stroke-linejoin:miter;stroke:#000;stroke-opacity:1;stroke-miterlimit:4" transform="matrix(.04167 0 0 .04226 0 -3.008)"/><path d="M13 7.098s.262.023.328.047v.164s-.18-.032-.336-.043v-.168" style="stroke:none;fill-rule:nonzero;fill:#058e6e;fill-opacity:.898039"/><path d="M311.999 239.055s6.281.647 7.875 1.202l-.094 3.882s-4.218-.74-7.968-1.017l.093-4.067" style="fill:none;stroke-width:.5;stroke-linecap:butt;stroke-linejoin:miter;stroke:#000;stroke-opacity:1;stroke-miterlimit:4" transform="matrix(.04167 0 0 .04226 0 -3.008)"/><path d="M254.155 241.828s37.032-13.773 84.281 1.202m-82.78 6.655s35.906-13.403 80.062.648m-79.781-9.06 7.125 2.127-4.969 5.361" style="fill:none;stroke-width:.5;stroke-linecap:butt;stroke-linejoin:miter;stroke:#000;stroke-opacity:1;stroke-miterlimit:4" transform="matrix(.04167 0 0 .04226 0 -3.008)"/><path d="m10.664 7.46.176-.144-.195-.039s.027.032.023.059v.125" style="stroke:none;fill-rule:nonzero;fill:red;fill-opacity:1"/><path d="m256.03 247.837 4.125-3.513-4.687-.924s.656.74.562 1.386Zm81.563-5.177-7.688 1.48 5.156 5.915" style="fill:none;stroke-width:.5;stroke-linecap:butt;stroke-linejoin:miter;stroke:#000;stroke-opacity:1;stroke-miterlimit:4" transform="matrix(.04167 0 0 .04226 0 -3.008)"/><path d="m13.973 7.473-.121-.125.171-.02s-.046.031-.046.059.007.062 0 .086" style="stroke:none;fill-rule:nonzero;fill:red;fill-opacity:1"/><path d="m335.343 248.022-2.907-3.05 4.125-.37s-1.125.739-1.125 1.386v2.034Zm-70.031-6.194c.656 0 1.03-.37 1.218-1.017-.187-.462-.562-.739-1.218-.924-.75.093-1.125.37-1.22 1.017 0 .832.376 1.11 1.22 1.017Zm20.625-2.31c.656 0 1.125-.37 1.125-1.017 0-.555-.375-.832-1.125-.925-1.22-.092-1.22.462-1.22 1.017s.376.832 1.22.924Zm0 3.327c.656 0 1.125-.37 1.125-.924 0-.832-.375-1.11-1.125-1.017-1.22.185-1.22.462-1.22 1.017 0 .462.47 1.017 1.22 1.017Zm20.25-3.143c.656-.092 1.125-.37 1.218-1.017.188-.924-.562-1.016-1.218-1.016-.75.092-1.125.462-1.22 1.016 0 .832.47 1.11 1.22 1.017Zm20.156 3.698c.656-.093 1.125-.37 1.125-1.017 0-.74-.375-1.11-1.125-1.017-1.219.277-1.219.555-1.219 1.017 0 .555.469 1.017 1.219 1.017Zm-.375 2.588c.656 0 1.125-.277 1.218-1.017-.093-.462-.562-.832-1.218-.832s-1.125.37-1.125.925c0 .832.375 1.201 1.125 1.016Zm-19.781-2.958c.656 0 1.125-.37 1.218-1.017-.093-.554-.562-.832-1.218-.924-.75 0-1.125.37-1.22 1.017 0 .647.376 1.016 1.22 1.016Zm-40.032 2.958c.844 0 1.313-.277 1.313-1.017-.094-.462-.469-.832-1.125-.832-.75 0-1.219.37-1.219.925 0 .832.375 1.201 1.219 1.016Zm0 0" style="fill:none;stroke-width:.5;stroke-linecap:butt;stroke-linejoin:miter;stroke:#000;stroke-opacity:1;stroke-miterlimit:4" transform="matrix(.04167 0 0 .04226 0 -3.008)"/><path d="M10.566 6.754s.004.305.2.262c.195-.047.175-.29.187-.305q.034-.018.04-.012c.003.004.023.239.206.211.184-.031.176-.328.156-.375l.04-.015s.07.347.28.296c.208-.05.188-.27.188-.27h.016s.047.24.219.22c.164-.012.195-.067.175-.305l.118-.02s-.043.34.156.34c.203-.015.21-.176.223-.207h.035s.008.242.18.242c.163 0 .195-.203.195-.28l.172.007s-.176.316.078.355c.25.043.258-.195.258-.195h.05s-.008.317.13.32c.14.008.222-.039.234-.277l.078.027s-.063.383-.325.317c-.14-.04-.183-.2-.175-.242 0 0-.098.175-.29.117-.187-.055-.163-.192-.163-.235 0 0-.118.211-.274.165-.14-.04-.195-.09-.195-.192 0 0-.07.164-.207.156-.14-.004-.211-.093-.219-.168 0 0-.027.153-.215.164-.125 0-.195-.058-.226-.144 0 0-.04.152-.215.176-.114.011-.227-.051-.25-.157 0 0-.031.207-.211.235-.18.031-.223-.098-.223-.098s-.039.16-.183.2c-.145.035-.239-.028-.282-.18-.03-.145-.02-.211-.02-.211Zm0 0" style="stroke:none;fill-rule:nonzero;fill:#fc0;fill-opacity:1"/><path d="M253.593 231.013s.094 7.21 4.781 6.193c4.688-1.016 4.219-6.932 4.5-7.21.563-.277.844-.37.938-.277s.562 5.639 4.968 4.992c4.407-.74 4.22-7.673 3.75-8.874l.938-.37s1.687 8.227 6.75 7.025c4.969-1.202 4.5-6.378 4.5-6.378h.375s1.125 5.546 5.25 5.176c4.031-.37 4.781-1.571 4.219-7.21l2.718-.462s-.937 7.95 3.938 7.95c4.781-.278 4.969-4.067 5.25-4.807h.844s.187 5.731 4.312 5.731c4.031 0 4.781-4.807 4.781-6.655l4.032.185s-4.22 7.487 1.875 8.504c6.093 1.017 6.187-4.807 6.187-4.807h1.219s-.188 7.487 3.093 7.672c3.375.093 5.344-1.017 5.72-6.563l1.874.647s-1.594 9.06-7.875 7.395c-3.375-.832-4.406-4.714-4.219-5.638 0 0-2.343 4.16-6.937 2.773-4.5-1.294-3.937-4.53-3.937-5.546 0 0-2.72 5.084-6.563 3.974-3.375-1.016-4.687-2.218-4.687-4.622 0 0-1.688 3.883-4.97 3.698-3.374-.092-5.062-2.219-5.25-3.975 0 0-.655 3.605-5.155 3.883-3 .092-4.688-1.387-5.438-3.42 0 0-.844 3.604-5.156 4.159-2.719.37-5.438-1.202-6-3.697 0 0-.75 4.899-5.063 5.546-4.312.74-5.343-2.311-5.343-2.311s-.938 3.79-4.407 4.714c-3.562.74-5.812-.647-6.75-4.252-.75-3.42-.468-4.992-.468-4.992Zm0 0" style="fill-rule:nonzero;fill:#bcac0b;fill-opacity:1;stroke-width:.7;stroke-linecap:butt;stroke-linejoin:miter;stroke:#000;stroke-opacity:1;stroke-miterlimit:4" transform="matrix(.04167 0 0 .04226 0 -3.008)"/><path d="M10.973 6.77a.07.07 0 0 0 .07-.07c0-.044-.031-.075-.07-.075a.075.075 0 0 0-.055.07c0 .032.023.063.055.07" style="stroke:none;fill-rule:nonzero;fill:#fc0;fill-opacity:1"/><path d="M263.343 231.29a1.66 1.66 0 0 0 1.781-.647c.375-.647.375-1.386 0-1.94-.375-.555-1.125-.833-1.781-.74-.844.185-1.313.924-1.313 1.664 0 .832.47 1.479 1.313 1.663Zm0 0" style="fill-rule:nonzero;fill:#bcac0b;fill-opacity:1;stroke-width:.7;stroke-linecap:butt;stroke-linejoin:miter;stroke:#000;stroke-opacity:1;stroke-miterlimit:4" transform="matrix(.04167 0 0 .04226 0 -3.008)"/><path d="M11.879 6.617a.07.07 0 0 0 .074-.027.08.08 0 0 0 0-.082.07.07 0 0 0-.074-.028.07.07 0 0 0-.055.07.07.07 0 0 0 .055.067" style="stroke:none;fill-rule:nonzero;fill:#fc0;fill-opacity:1"/><path d="M285.093 227.778a1.66 1.66 0 0 0 1.781-.647 1.516 1.516 0 0 0 0-1.941 1.66 1.66 0 0 0-1.781-.647c-.75.184-1.313.831-1.313 1.571 0 .832.563 1.479 1.313 1.664Zm0 0" style="fill-rule:nonzero;fill:#bcac0b;fill-opacity:1;stroke-width:.7;stroke-linecap:butt;stroke-linejoin:miter;stroke:#000;stroke-opacity:1;stroke-miterlimit:4" transform="matrix(.04167 0 0 .04226 0 -3.008)"/><path d="M12.805 6.648a.07.07 0 0 0 .07-.07.07.07 0 0 0-.07-.07.07.07 0 0 0-.055.07.07.07 0 0 0 .055.067" style="stroke:none;fill-rule:nonzero;fill:#fc0;fill-opacity:1"/><path d="M307.312 228.517a1.58 1.58 0 0 0 1.78-.74 1.66 1.66 0 0 0 0-1.848 1.58 1.58 0 0 0-1.78-.74c-.75.185-1.313.925-1.313 1.664 0 .74.563 1.48 1.313 1.664Zm0 0" style="fill-rule:nonzero;fill:#bcac0b;fill-opacity:1;stroke-width:.7;stroke-linecap:butt;stroke-linejoin:miter;stroke:#000;stroke-opacity:1;stroke-miterlimit:4" transform="matrix(.04167 0 0 .04226 0 -3.008)"/><path d="M13.715 6.797a.065.065 0 0 0 .074-.031.07.07 0 0 0 0-.079.08.08 0 0 0-.074-.03.075.075 0 0 0-.055.07c0 .035.024.062.055.07" style="stroke:none;fill-rule:nonzero;fill:#fc0;fill-opacity:1"/><path d="M329.155 232.03c.75.185 1.406-.092 1.875-.74.375-.554.375-1.294 0-1.94-.469-.555-1.125-.833-1.875-.648s-1.219.832-1.219 1.664c0 .74.47 1.48 1.22 1.664Zm0 0" style="fill-rule:nonzero;fill:#bcac0b;fill-opacity:1;stroke-width:.7;stroke-linecap:butt;stroke-linejoin:miter;stroke:#000;stroke-opacity:1;stroke-miterlimit:4" transform="matrix(.04167 0 0 .04226 0 -3.008)"/><path d="M12.3 6.543h-.062c-.015.062-.152.098-.152.098-.016-.047.023-.118.023-.118-.156-.043-.156-.093-.156-.093.024-.059.168-.067.168-.067-.039-.047-.035-.125-.035-.125.098.008.176.106.176.106s-.094-.051-.082-.219c0 0 .05 0 .082.035 0 0 0-.187.078-.21h.008c.074.023.074.21.074.21.031-.039.082-.035.082-.035.012.168-.082.219-.082.219s.078-.098.176-.102c0 0 0 .078-.032.125 0 0 .141.004.168.063 0 0 0 .054-.156.09 0 0 .031.074.02.125 0 0-.141-.04-.153-.102h-.14" style="stroke:none;fill-rule:nonzero;fill:#fc0;fill-opacity:1"/><path d="M295.218 226.022h-1.5c-.375 1.479-3.656 2.403-3.656 2.403-.375-1.202.562-2.958.562-2.958-3.75-.924-3.75-2.126-3.75-2.126.563-1.387 4.031-1.572 4.031-1.572-1.03-1.109-.843-2.958-.843-2.958 2.343.185 4.218 2.496 4.218 2.496s-2.25-1.201-1.968-5.176c0 0 1.218 0 1.968.74 0 0 0-4.345 1.782-4.9h.28c1.782.555 1.782 4.9 1.782 4.9.75-.833 1.969-.74 1.969-.74.281 3.975-1.969 5.176-1.969 5.176s1.875-2.31 4.219-2.403c0 0 .094 1.756-.75 2.958 0 0 3.375.092 4.031 1.479 0 0 0 1.294-3.844 2.126 0 0 .844 1.756.563 3.05 0 0-3.375-1.016-3.656-2.495Zm0 0" style="fill-rule:nonzero;fill:#bcac0b;fill-opacity:1;stroke-width:.7;stroke-linecap:butt;stroke-linejoin:miter;stroke:#000;stroke-opacity:1;stroke-miterlimit:4" transform="matrix(.04167 0 0 .04226 0 -3.008)"/><path d="M12.332 6.574c.07 0 .125-.054.125-.125a.127.127 0 0 0-.125-.129.127.127 0 0 0-.125.13c0 .07.055.124.125.124" style="stroke:none;fill-rule:nonzero;fill:#fff;fill-opacity:1"/><path d="M295.968 226.761c1.687 0 3-1.294 3-2.958s-1.313-2.958-3-2.958c-1.594 0-3 1.294-3 2.958s1.406 2.958 3 2.958Zm0 0" style="fill:none;stroke-width:.4;stroke-linecap:butt;stroke-linejoin:miter;stroke:#000;stroke-opacity:1;stroke-miterlimit:4" transform="matrix(.04167 0 0 .04226 0 -3.008)"/><path d="M12.332 6.52a.07.07 0 0 0 .07-.07c0-.04-.03-.075-.07-.075-.039 0-.07.035-.07.074 0 .04.031.07.07.07" style="stroke:none;fill-rule:nonzero;fill:#fff;fill-opacity:1"/><path d="M295.968 225.467c.937 0 1.687-.74 1.687-1.664s-.75-1.664-1.687-1.664-1.688.74-1.688 1.664.75 1.664 1.688 1.664Zm0 0" style="fill:none;stroke-width:.3;stroke-linecap:butt;stroke-linejoin:miter;stroke:#000;stroke-opacity:1;stroke-miterlimit:4" transform="matrix(.04167 0 0 .04226 0 -3.008)"/><path d="m13.297 6.625.062.012c0 .066.125.133.125.133.024-.04 0-.122 0-.122.164-.007.176-.062.176-.062-.012-.055-.148-.094-.148-.094.039-.039.054-.117.054-.117-.093-.016-.191.063-.191.063s.105-.024.125-.2c0 0-.047-.008-.082.016 0 0 .039-.18-.035-.211l-.008-.004c-.078 0-.117.184-.117.184-.024-.043-.078-.047-.078-.047-.04.156.039.23.039.23s-.055-.113-.149-.14c0 0-.02.078 0 .129 0 0-.136-.024-.172.027 0 0-.011.055.13.125 0 0-.044.062-.04.117 0 0 .137-.016.164-.07l.063.011.086.016" style="stroke:none;fill-rule:nonzero;fill:#fc0;fill-opacity:1"/><path d="m319.124 227.963 1.5.37c0 1.478 3 3.05 3 3.05.563-1.017.094-2.866.094-2.866 3.843-.092 4.125-1.386 4.125-1.386-.282-1.387-3.563-2.311-3.563-2.311 1.032-.925 1.313-2.68 1.313-2.68-2.25-.463-4.594 1.386-4.594 1.386s2.531-.647 3-4.622c0 0-1.125-.277-1.969.277 0 0 .844-4.16-.843-4.991l-.188-.093c-1.875 0-2.812 4.345-2.812 4.345-.563-1.017-1.782-1.11-1.782-1.11-1.125 3.79.938 5.362.938 5.362s-1.406-2.588-3.656-3.236c0 0-.47 1.85 0 3.05 0 0-3.282-.554-4.125.556 0 0-.282 1.294 3.093 3.05 0 0-1.031 1.479-.937 2.773 0 0 3.281-.277 3.937-1.664l1.5.278 2.063.37" style="fill-rule:nonzero;fill:#bcac0b;fill-opacity:1;stroke-width:.7;stroke-linecap:butt;stroke-linejoin:miter;stroke:#000;stroke-opacity:1;stroke-miterlimit:4" transform="matrix(.04167 0 0 .04226 0 -3.008)"/><path d="M13.25 6.648a.129.129 0 0 1-.074-.219.13.13 0 0 1 .133-.03c.062.019.097.085.082.148a.12.12 0 0 1-.137.101" style="stroke:none;fill-rule:nonzero;fill:#fff;fill-opacity:1"/><path d="M317.999 228.61a3.08 3.08 0 0 1-2.344-3.698c.469-1.664 2.063-2.68 3.75-2.31 1.688.37 2.719 2.033 2.344 3.604-.375 1.664-1.969 2.774-3.656 2.404Zm0 0" style="fill:none;stroke-width:.4;stroke-linecap:butt;stroke-linejoin:miter;stroke:#000;stroke-opacity:1;stroke-miterlimit:4" transform="matrix(.04167 0 0 .04226 0 -3.008)"/><path d="M13.266 6.598a.072.072 0 1 1 .03-.141.072.072 0 1 1-.03.14" style="stroke:none;fill-rule:nonzero;fill:#fff;fill-opacity:1"/><path d="M318.374 227.316c-.656-.093-1.219-.463-1.406-1.11-.281-.647-.094-1.294.375-1.756s1.125-.647 1.781-.462c.75.277 1.219 1.11 1.125 1.941-.187.832-1.031 1.48-1.875 1.387Zm0 0" style="fill:none;stroke-width:.3;stroke-linecap:butt;stroke-linejoin:miter;stroke:#000;stroke-opacity:1;stroke-miterlimit:4" transform="matrix(.04167 0 0 .04226 0 -3.008)"/><path d="m11.348 6.61-.063.007c-.012.07-.14.13-.14.13-.02-.052 0-.13 0-.13-.157-.015-.16-.07-.16-.07.015-.055.156-.086.156-.086-.04-.04-.043-.121-.043-.121.09-.008.18.082.18.082s-.098-.035-.11-.203c0 0 .055-.016.086.015 0 0-.02-.183.05-.214h.008c.079.011.102.19.102.19.027-.038.078-.038.078-.038.031.164-.055.226-.055.226s.067-.105.157-.128c0 0 .02.078-.012.136 0 0 .145-.015.172.04 0 0 .008.05-.14.109 0 0 .038.066.038.117 0 0-.14-.024-.168-.086l-.058.016-.086.007" style="stroke:none;fill-rule:nonzero;fill:#fc0;fill-opacity:1"/><path d="m272.343 227.593-1.5.185c-.281 1.664-3.375 3.05-3.375 3.05-.469-1.201 0-3.05 0-3.05-3.656-.37-3.844-1.664-3.844-1.664.375-1.294 3.75-2.034 3.75-2.034-.937-1.016-1.031-2.773-1.031-2.773 2.156-.185 4.312 1.757 4.312 1.757s-2.343-.74-2.625-4.807c0 0 1.313-.278 2.063.462 0 0-.469-4.345 1.219-4.992h.187c1.875.185 2.438 4.437 2.438 4.437.656-.832 1.968-.924 1.968-.924.657 3.975-1.406 5.361-1.406 5.361s1.594-2.495 3.844-2.958c0 0 .375 1.85-.375 3.05 0 0 3.469-.277 4.125 1.018 0 0 .187 1.201-3.375 2.588 0 0 .937 1.571.844 2.773 0 0-3.282-.462-3.938-1.941l-1.406.277-2.063.185" style="fill-rule:nonzero;fill:#bcac0b;fill-opacity:1;stroke-width:.7;stroke-linecap:butt;stroke-linejoin:miter;stroke:#000;stroke-opacity:1;stroke-miterlimit:4" transform="matrix(.04167 0 0 .04226 0 -3.008)"/><path d="M11.383 6.64a.125.125 0 0 0 .11-.14.12.12 0 0 0-.141-.11.125.125 0 0 0-.11.141c.008.07.07.121.14.11" style="stroke:none;fill-rule:nonzero;fill:#fff;fill-opacity:1"/><path d="M273.187 228.425c1.687-.277 2.812-1.756 2.625-3.42-.188-1.664-1.782-2.866-3.375-2.589-1.688.185-2.813 1.757-2.625 3.42.187 1.665 1.687 2.774 3.375 2.589Zm0 0" style="fill:none;stroke-width:.4;stroke-linecap:butt;stroke-linejoin:miter;stroke:#000;stroke-opacity:1;stroke-miterlimit:4" transform="matrix(.04167 0 0 .04226 0 -3.008)"/><path d="M11.375 6.582c.027.004.055-.012.07-.039a.07.07 0 0 0-.011-.078.065.065 0 0 0-.075-.02c-.03.008-.05.043-.046.075a.07.07 0 0 0 .062.062" style="stroke:none;fill-rule:nonzero;fill:#fff;fill-opacity:1"/><path d="M273 227.038c.655 0 1.312-.37 1.687-.924a1.84 1.84 0 0 0-.282-1.941c-.375-.462-1.125-.74-1.78-.462-.75.277-1.22 1.016-1.126 1.756.094.832.656 1.479 1.5 1.571Zm0 0" style="fill:none;stroke-width:.3;stroke-linecap:butt;stroke-linejoin:miter;stroke:#000;stroke-opacity:1;stroke-miterlimit:4" transform="matrix(.04167 0 0 .04226 0 -3.008)"/><path d="M14.176 6.887s-.035-.086-.106-.059-.062.043-.125.043c0 0-.023-.078.008-.113 0 0-.098-.04-.125-.13 0 0 .055-.062.184-.038 0 0 0-.059.011-.09 0 0 .141.04.141.121 0 0-.043-.148.031-.262 0 0 .063.028.059.098 0 0 .031-.144.219-.105 0 0-.102.093-.106.136-.008.04-.094.114-.097.137a.16.16 0 0 1-.032.094c-.027.023-.031.066-.031.078s0 .07-.031.086" style="stroke:none;fill-rule:nonzero;fill:#fc0;fill-opacity:1"/><path d="M340.218 234.064s-.844-1.942-2.532-1.295c-1.687.74-1.5 1.017-3 1.017 0 0-.562-1.848.188-2.68 0 0-2.344-.925-3-3.05 0 0 1.312-1.48 4.406-.833 0 0-.094-1.479.281-2.218 0 0 3.375 1.017 3.375 2.865 0 0-1.03-3.605.75-6.193 0 0 1.5.647 1.407 2.31 0 0 .75-3.42 5.25-2.495 0 0-2.438 2.219-2.532 3.235s-2.25 2.681-2.343 3.236c-.094.647-.188 1.571-.75 2.126-.657.647-.75 1.571-.75 2.033 0 .185 0 1.572-.75 1.942Zm0 0" style="fill-rule:nonzero;fill:#bcac0b;fill-opacity:1;stroke-width:.7;stroke-linecap:butt;stroke-linejoin:miter;stroke:#000;stroke-opacity:1;stroke-miterlimit:4" transform="matrix(.04167 0 0 .04226 0 -3.008)"/><path d="M14.07 6.719a.12.12 0 0 1 .078-.098.12.12 0 0 1 .122.016.14.14 0 0 1-.032.082c-.027.023-.031.066-.031.078a.1.1 0 0 1-.016.07h-.02a.12.12 0 0 1-.085-.05.12.12 0 0 1-.016-.098" style="stroke:none;fill-rule:nonzero;fill:#fff;fill-opacity:1"/><path d="M337.686 230.089c.188-1.017.938-1.849 1.875-2.219 1.032-.37 2.157-.185 2.907.462a2.43 2.43 0 0 1-.75 1.757c-.657.647-.75 1.571-.75 2.033.093.555-.094 1.11-.375 1.572h-.469c-.844-.093-1.5-.647-1.969-1.294s-.656-1.48-.469-2.311Zm0 0" style="fill:none;stroke-width:.4;stroke-linecap:butt;stroke-linejoin:miter;stroke:#000;stroke-opacity:1;stroke-miterlimit:4" transform="matrix(.04167 0 0 .04226 0 -3.008)"/><path d="M14.125 6.73a.07.07 0 0 1 .05-.058.07.07 0 0 1 .075.027l-.012.02c-.027.023-.031.066-.031.078v.012h-.023q-.063-.013-.055-.082" style="stroke:none;fill-rule:nonzero;fill:#fff;fill-opacity:1"/><path d="M338.999 230.366c.094-.647.656-1.11 1.312-1.294.563-.092 1.313.092 1.688.647l-.281.37c-.657.647-.75 1.571-.75 2.033v.185h-.563c-1.031-.185-1.5-.832-1.312-2.033Zm0 0" style="fill:none;stroke-width:.3;stroke-linecap:butt;stroke-linejoin:miter;stroke:#000;stroke-opacity:1;stroke-miterlimit:4" transform="matrix(.04167 0 0 .04226 0 -3.008)"/><path d="M10.508 6.848s.035-.078.105-.047c.067.039.059.047.125.047 0 0 .024-.078 0-.11 0 0 .098-.031.125-.12 0 0-.05-.067-.18-.052 0 0 .008-.062-.007-.09 0 0-.137.032-.14.106 0 0 .046-.144-.02-.262 0 0-.067.028-.067.098 0 0-.02-.148-.207-.121 0 0 .094.101.094.144s.086.118.086.141.008.066.031.094c.024.031.027.07.024.086 0 .008 0 .066.03.086" style="stroke:none;fill-rule:nonzero;fill:#fc0;fill-opacity:1"/><path d="M252.187 233.324s.843-2.034 2.531-1.202c1.687.74 1.406 1.11 3 1.11 0 0 .562-1.85 0-2.589 0 0 2.344-.74 3-2.865 0 0-1.219-1.572-4.313-1.202 0 0 .188-1.479-.187-2.218 0 0-3.281.832-3.375 2.68 0 0 1.125-3.512-.469-6.193 0 0-1.594.555-1.594 2.126 0 0-.468-3.328-4.968-2.68 0 0 2.25 2.31 2.25 3.327s2.062 2.773 2.062 3.42c0 .463.188 1.572.75 2.126.656.647.656 1.664.563 2.034 0 .185 0 1.571.75 2.034Zm0 0" style="fill-rule:nonzero;fill:#bcac0b;fill-opacity:1;stroke-width:.7;stroke-linecap:butt;stroke-linejoin:miter;stroke:#000;stroke-opacity:1;stroke-miterlimit:4" transform="matrix(.04167 0 0 .04226 0 -3.008)"/><path d="M10.617 6.688a.13.13 0 0 0-.074-.098.13.13 0 0 0-.121.012q.001.04.031.074a.1.1 0 0 1 .024.086c-.004.008.003.035.015.07h.016a.12.12 0 0 0 .086-.05.14.14 0 0 0 .023-.095" style="stroke:none;fill-rule:nonzero;fill:#fff;fill-opacity:1"/><path d="M254.812 229.442c-.188-1.017-.844-1.849-1.782-2.311a3.04 3.04 0 0 0-2.812.277c0 .555.187 1.202.656 1.756.656.647.656 1.664.563 2.034s0 .924.375 1.664h.375c.843-.093 1.593-.462 2.062-1.11.469-.739.656-1.57.563-2.31Zm0 0" style="fill:none;stroke-width:.4;stroke-linecap:butt;stroke-linejoin:miter;stroke:#000;stroke-opacity:1;stroke-miterlimit:4" transform="matrix(.04167 0 0 .04226 0 -3.008)"/><path d="M10.563 6.695a.08.08 0 0 0-.051-.066c-.028-.008-.055.004-.075.023l.016.024a.1.1 0 0 1 .024.086v.008h.027c.039 0 .062-.04.059-.075" style="stroke:none;fill-rule:nonzero;fill:#fff;fill-opacity:1"/><path d="M253.5 229.627c-.095-.74-.563-1.295-1.22-1.48-.656-.184-1.312 0-1.78.555l.374.462c.656.647.656 1.664.563 2.034v.185h.656c.937 0 1.5-.924 1.406-1.756Zm0 0" style="fill:none;stroke-width:.3;stroke-linecap:butt;stroke-linejoin:miter;stroke:#000;stroke-opacity:1;stroke-miterlimit:4" transform="matrix(.04167 0 0 .04226 0 -3.008)"/><path d="M257.155 251.627s33.844-13.219 76.406.277" style="fill:none;stroke-width:1.5;stroke-linecap:butt;stroke-linejoin:miter;stroke:#000;stroke-opacity:1;stroke-miterlimit:4" transform="matrix(.04167 0 0 .04226 0 -3.008)"/><path d="M338.436 241.089c-47.156-14.975-84.75-.832-84.75-.832" style="fill:none;stroke-width:.5;stroke-linecap:butt;stroke-linejoin:miter;stroke:#000;stroke-opacity:1;stroke-miterlimit:4" transform="matrix(.04167 0 0 .04226 0 -3.008)"/><path d="m12.332 7.043-.156.078.14.086.168-.078Zm0 0" style="stroke:none;fill-rule:nonzero;fill:red;fill-opacity:1"/><path d="m295.968 237.761-3.75 1.941 3.375 2.126 4.031-2.033-3.656-2.034" style="fill:none;stroke-width:.5;stroke-linecap:butt;stroke-linejoin:miter;stroke:#000;stroke-opacity:1;stroke-miterlimit:4" transform="matrix(.04167 0 0 .04226 0 -3.008)"/></svg>