<?xml version="1.0" encoding="UTF-8"?>
<svg xmlns="http://www.w3.org/2000/svg" xmlns:xlink="http://www.w3.org/1999/xlink" width="25px" height="px" viewBox="0 0 25 19" version="1.1">
<g id="surface1">
<rect x="0" y="0" width="25" height="19" style="fill:rgb(83.529413%,16.862746%,11.764706%);fill-opacity:1;stroke:none;"/>
<path style=" stroke:none;fill-rule:nonzero;fill:rgb(0%,60.784316%,28.235295%);fill-opacity:1;" d="M 0 0 L 2.074219 0 L 7.285156 3.960938 L 12.5 7.921875 L 22.925781 0 L 25 0 L 25 1.578125 L 14.578125 9.5 L 25 17.425781 L 25 19 L 22.925781 19 L 17.714844 15.042969 L 12.5 11.078125 L 2.074219 19 L 0 19 L 0 17.425781 L 5.210938 13.460938 L 10.421875 9.5 L 0 1.578125 Z M 0 0 "/>
<path style=" stroke:none;fill-rule:nonzero;fill:rgb(100%,100%,100%);fill-opacity:1;" d="M 11.253906 0 L 13.746094 0 L 13.746094 8.238281 L 25 8.238281 L 25 10.761719 L 13.746094 10.761719 L 13.746094 19 L 11.253906 19 L 11.253906 10.761719 L 0 10.761719 L 0 8.238281 L 11.253906 8.238281 Z M 11.253906 0 "/>
</g>
</svg>
