<svg xmlns="http://www.w3.org/2000/svg" width="25" height="19" viewBox="0 0 25 19"><path d="M-6.492.129H31.62V18.66H-6.492Zm0 0" style="stroke:none;fill-rule:evenodd;fill:#ffc621;fill-opacity:1"/><path d="M-6.566 12.742h38.16v6.309h-38.16Zm0 0" style="stroke:none;fill-rule:evenodd;fill:#ef2118;fill-opacity:1"/><path d="M-6.492 0H31.62v6.7H-6.492Zm0 0" style="stroke:none;fill-rule:evenodd;fill:#298c08;fill-opacity:1"/><path d="M15.852 9.848c0-2.22-1.774-4.016-3.961-4.016-2.188 0-3.961 1.797-3.961 4.016 0 2.214 1.773 4.011 3.96 4.011s3.962-1.796 3.962-4.011m0 0" style="stroke:none;fill-rule:evenodd;fill:#006bc6;fill-opacity:1"/><path d="m10.113 7.004-.238.168.863 1.226.23-.148Zm1.082 2.902-.355-.254.144-.472-1.765.027-.516-.398 2.414-.028.45-1.375.242.559Zm2.809-2.633-.23-.18-.895 1.208.207.176Zm-2.402 1.918.128-.418h.489L11.66 7.07l.223-.613.75 2.32 1.426.02-.45.398Zm3.328 1.903.097-.274-1.406-.496-.101.262Zm-2.54-1.727h.43l.153.469 1.422-1.063.648.024-1.95 1.437.423 1.387L13 11.31Zm-.726 3.797.29.008.01-1.508-.269-.02Zm.809-2.988.14.414-.394.297 1.445 1.031.184.625-1.965-1.414-1.16.844.129-.594 1.617-1.203Zm-3.793.484.082.277 1.422-.453-.075-.265Zm3.054-.148-.343.265-.399-.289-.52 1.711-.53.375.718-2.336-1.156-.855.601-.059Zm0 0" style="stroke:none;fill-rule:evenodd;fill:#ffc621;fill-opacity:1"/></svg>