<svg xmlns="http://www.w3.org/2000/svg" width="25" height="19" viewBox="0 0 25 19"><path d="M0 0h25v19H0z" style="fill:#039;fill-opacity:1;stroke:none"/><path d="m12.5 3.023-.277.938.46.094Zm0 0" style="stroke:none;fill-rule:nonzero;fill:#fc0;fill-opacity:1"/><path d="m12.5 3.023.277.938-.46.094Zm0 0" style="stroke:none;fill-rule:nonzero;fill:#fc0;fill-opacity:1"/><path d="m13.379 3.672-.965.023.055.473Zm0 0" style="stroke:none;fill-rule:nonzero;fill:#fc0;fill-opacity:1"/><path d="m13.379 3.672-.793.558-.23-.418Zm0 0" style="stroke:none;fill-rule:nonzero;fill:#fc0;fill-opacity:1"/><path d="m13.043 4.719-.316-.922-.43.2Zm0 0" style="stroke:none;fill-rule:nonzero;fill:#fc0;fill-opacity:1"/><path d="m13.043 4.719-.77-.594.32-.352Zm0 0" style="stroke:none;fill-rule:nonzero;fill:#fc0;fill-opacity:1"/><path d="m11.621 3.672.965.023-.055.473Zm0 0" style="stroke:none;fill-rule:nonzero;fill:#fc0;fill-opacity:1"/><path d="m11.621 3.672.793.558.23-.418Zm0 0" style="stroke:none;fill-rule:nonzero;fill:#fc0;fill-opacity:1"/><path d="m11.957 4.719.316-.922.43.2Zm0 0" style="stroke:none;fill-rule:nonzero;fill:#fc0;fill-opacity:1"/><path d="m11.957 4.719.77-.594-.32-.352ZM12.5 14.281l-.277.938.46.097Zm0 0" style="stroke:none;fill-rule:nonzero;fill:#fc0;fill-opacity:1"/><path d="m12.5 14.281.277.938-.46.097Zm0 0" style="stroke:none;fill-rule:nonzero;fill:#fc0;fill-opacity:1"/><path d="m13.379 14.93-.965.023.055.477Zm0 0" style="stroke:none;fill-rule:nonzero;fill:#fc0;fill-opacity:1"/><path d="m13.379 14.93-.793.558-.23-.418Zm0 0" style="stroke:none;fill-rule:nonzero;fill:#fc0;fill-opacity:1"/><path d="m13.043 15.98-.316-.925-.43.199Zm0 0" style="stroke:none;fill-rule:nonzero;fill:#fc0;fill-opacity:1"/><path d="m13.043 15.98-.77-.593.32-.352Zm0 0" style="stroke:none;fill-rule:nonzero;fill:#fc0;fill-opacity:1"/><path d="m11.621 14.93.965.023-.055.477Zm0 0" style="stroke:none;fill-rule:nonzero;fill:#fc0;fill-opacity:1"/><path d="m11.621 14.93.793.558.23-.418Zm0 0" style="stroke:none;fill-rule:nonzero;fill:#fc0;fill-opacity:1"/><path d="m11.957 15.98.316-.925.43.199Zm0 0" style="stroke:none;fill-rule:nonzero;fill:#fc0;fill-opacity:1"/><path d="m11.957 15.98.77-.593-.32-.352ZM6.945 8.652l-.277.938.46.094Zm0 0" style="stroke:none;fill-rule:nonzero;fill:#fc0;fill-opacity:1"/><path d="m6.945 8.652.278.938-.465.094Zm0 0" style="stroke:none;fill-rule:nonzero;fill:#fc0;fill-opacity:1"/><path d="m7.824 9.3-.965.024.055.473Zm0 0" style="stroke:none;fill-rule:nonzero;fill:#fc0;fill-opacity:1"/><path d="m7.824 9.3-.793.56-.23-.419Zm0 0" style="stroke:none;fill-rule:nonzero;fill:#fc0;fill-opacity:1"/><path d="m7.488 10.352-.32-.926-.43.199Zm0 0" style="stroke:none;fill-rule:nonzero;fill:#fc0;fill-opacity:1"/><path d="m7.488 10.352-.77-.594.321-.352Zm0 0" style="stroke:none;fill-rule:nonzero;fill:#fc0;fill-opacity:1"/><path d="m6.063 9.3.968.024-.054.473Zm0 0" style="stroke:none;fill-rule:nonzero;fill:#fc0;fill-opacity:1"/><path d="m6.063 9.3.796.56.23-.419Zm0 0" style="stroke:none;fill-rule:nonzero;fill:#fc0;fill-opacity:1"/><path d="m6.398 10.352.32-.926.43.199Zm0 0" style="stroke:none;fill-rule:nonzero;fill:#fc0;fill-opacity:1"/><path d="m6.398 10.352.77-.594-.32-.352ZM9.246 5.516l.77-.594-.32-.352Zm0 0" style="stroke:none;fill-rule:nonzero;fill:#fc0;fill-opacity:1"/><path d="m9.246 5.516.32-.922.43.199Zm0 0" style="stroke:none;fill-rule:nonzero;fill:#fc0;fill-opacity:1"/><path d="m8.91 4.469.793.558.235-.418Zm0 0" style="stroke:none;fill-rule:nonzero;fill:#fc0;fill-opacity:1"/><path d="m8.91 4.469.965.023-.055.473Zm0 0" style="stroke:none;fill-rule:nonzero;fill:#fc0;fill-opacity:1"/><path d="m9.79 3.82-.278.938.465.094Zm0 0" style="stroke:none;fill-rule:nonzero;fill:#fc0;fill-opacity:1"/><path d="m9.79 3.82.276.938-.46.094Zm0 0" style="stroke:none;fill-rule:nonzero;fill:#fc0;fill-opacity:1"/><path d="m10.336 5.516-.77-.594.32-.352Zm0 0" style="stroke:none;fill-rule:nonzero;fill:#fc0;fill-opacity:1"/><path d="m10.336 5.516-.32-.922-.43.199Zm0 0" style="stroke:none;fill-rule:nonzero;fill:#fc0;fill-opacity:1"/><path d="m10.672 4.469-.797.558-.23-.418Zm0 0" style="stroke:none;fill-rule:nonzero;fill:#fc0;fill-opacity:1"/><path d="m10.672 4.469-.969.023.055.473ZM8.273 7.605l-.316-.925-.43.199Zm0 0" style="stroke:none;fill-rule:nonzero;fill:#fc0;fill-opacity:1"/><path d="m8.273 7.605-.765-.593.316-.352Zm0 0" style="stroke:none;fill-rule:nonzero;fill:#fc0;fill-opacity:1"/><path d="m7.188 7.605.769-.593-.32-.352Zm0 0" style="stroke:none;fill-rule:nonzero;fill:#fc0;fill-opacity:1"/><path d="m7.188 7.605.32-.925.426.199Zm0 0" style="stroke:none;fill-rule:nonzero;fill:#fc0;fill-opacity:1"/><path d="m6.852 6.555.793.558.23-.418Zm0 0" style="stroke:none;fill-rule:nonzero;fill:#fc0;fill-opacity:1"/><path d="m6.852 6.555.964.023-.054.477Zm0 0" style="stroke:none;fill-rule:nonzero;fill:#fc0;fill-opacity:1"/><path d="m8.61 6.555-.794.558-.23-.418Zm0 0" style="stroke:none;fill-rule:nonzero;fill:#fc0;fill-opacity:1"/><path d="m8.61 6.555-.965.023.054.477Zm0 0" style="stroke:none;fill-rule:nonzero;fill:#fc0;fill-opacity:1"/><path d="m7.73 5.906.278.938-.461.093Zm0 0" style="stroke:none;fill-rule:nonzero;fill:#fc0;fill-opacity:1"/><path d="m7.73 5.906-.277.938.461.093ZM8.613 12.2l-.968.023.054.472Zm0 0" style="stroke:none;fill-rule:nonzero;fill:#fc0;fill-opacity:1"/><path d="m8.613 12.2-.797.558-.23-.418Zm0 0" style="stroke:none;fill-rule:nonzero;fill:#fc0;fill-opacity:1"/><path d="m8.277 13.246-.32-.922-.43.2Zm0 0" style="stroke:none;fill-rule:nonzero;fill:#fc0;fill-opacity:1"/><path d="m8.277 13.246-.77-.594.321-.351Zm0 0" style="stroke:none;fill-rule:nonzero;fill:#fc0;fill-opacity:1"/><path d="m7.188 13.246.769-.594-.32-.351Zm0 0" style="stroke:none;fill-rule:nonzero;fill:#fc0;fill-opacity:1"/><path d="m7.188 13.246.32-.922.43.2Zm0 0" style="stroke:none;fill-rule:nonzero;fill:#fc0;fill-opacity:1"/><path d="m7.73 11.55.278.938-.461.094Zm0 0" style="stroke:none;fill-rule:nonzero;fill:#fc0;fill-opacity:1"/><path d="m7.73 11.55-.277.938.465.094Zm0 0" style="stroke:none;fill-rule:nonzero;fill:#fc0;fill-opacity:1"/><path d="m6.852 12.2.964.023-.054.472Zm0 0" style="stroke:none;fill-rule:nonzero;fill:#fc0;fill-opacity:1"/><path d="m6.852 12.2.793.558.234-.418ZM10.621 14.086l-.965.023.055.477Zm0 0" style="stroke:none;fill-rule:nonzero;fill:#fc0;fill-opacity:1"/><path d="m10.621 14.086-.793.559-.23-.418Zm0 0" style="stroke:none;fill-rule:nonzero;fill:#fc0;fill-opacity:1"/><path d="m10.285 15.137-.32-.926-.43.2Zm0 0" style="stroke:none;fill-rule:nonzero;fill:#fc0;fill-opacity:1"/><path d="m10.285 15.137-.77-.594.32-.352Zm0 0" style="stroke:none;fill-rule:nonzero;fill:#fc0;fill-opacity:1"/><path d="m9.195 15.137.77-.594-.32-.352Zm0 0" style="stroke:none;fill-rule:nonzero;fill:#fc0;fill-opacity:1"/><path d="m9.195 15.137.32-.926.43.2Zm0 0" style="stroke:none;fill-rule:nonzero;fill:#fc0;fill-opacity:1"/><path d="m9.742 13.438.278.937-.465.098Zm0 0" style="stroke:none;fill-rule:nonzero;fill:#fc0;fill-opacity:1"/><path d="m9.742 13.438-.277.937.46.098Zm0 0" style="stroke:none;fill-rule:nonzero;fill:#fc0;fill-opacity:1"/><path d="m8.86 14.086.968.023-.055.477Zm0 0" style="stroke:none;fill-rule:nonzero;fill:#fc0;fill-opacity:1"/><path d="m8.86 14.086.796.559.23-.418ZM18.055 8.652l.277.938-.46.094Zm0 0" style="stroke:none;fill-rule:nonzero;fill:#fc0;fill-opacity:1"/><path d="m18.055 8.652-.278.938.465.094Zm0 0" style="stroke:none;fill-rule:nonzero;fill:#fc0;fill-opacity:1"/><path d="m17.176 9.3.965.024-.055.473Zm0 0" style="stroke:none;fill-rule:nonzero;fill:#fc0;fill-opacity:1"/><path d="m17.176 9.3.793.56.23-.419Zm0 0" style="stroke:none;fill-rule:nonzero;fill:#fc0;fill-opacity:1"/><path d="m17.512 10.352.32-.926.43.199Zm0 0" style="stroke:none;fill-rule:nonzero;fill:#fc0;fill-opacity:1"/><path d="m17.512 10.352.77-.594-.321-.352Zm0 0" style="stroke:none;fill-rule:nonzero;fill:#fc0;fill-opacity:1"/><path d="m18.938 9.3-.97.024.055.473Zm0 0" style="stroke:none;fill-rule:nonzero;fill:#fc0;fill-opacity:1"/><path d="m18.938 9.3-.797.56-.23-.419Zm0 0" style="stroke:none;fill-rule:nonzero;fill:#fc0;fill-opacity:1"/><path d="m18.602 10.352-.32-.926-.43.199Zm0 0" style="stroke:none;fill-rule:nonzero;fill:#fc0;fill-opacity:1"/><path d="m18.602 10.352-.77-.594.32-.352ZM15.754 5.516l-.77-.594.32-.352Zm0 0" style="stroke:none;fill-rule:nonzero;fill:#fc0;fill-opacity:1"/><path d="m15.754 5.516-.32-.922-.43.199Zm0 0" style="stroke:none;fill-rule:nonzero;fill:#fc0;fill-opacity:1"/><path d="m16.09 4.469-.793.558-.235-.418Zm0 0" style="stroke:none;fill-rule:nonzero;fill:#fc0;fill-opacity:1"/><path d="m16.09 4.469-.965.023.055.473Zm0 0" style="stroke:none;fill-rule:nonzero;fill:#fc0;fill-opacity:1"/><path d="m15.21 3.82.278.938-.465.094Zm0 0" style="stroke:none;fill-rule:nonzero;fill:#fc0;fill-opacity:1"/><path d="m15.21 3.82-.276.938.46.094Zm0 0" style="stroke:none;fill-rule:nonzero;fill:#fc0;fill-opacity:1"/><path d="m14.664 5.516.77-.594-.32-.352Zm0 0" style="stroke:none;fill-rule:nonzero;fill:#fc0;fill-opacity:1"/><path d="m14.664 5.516.32-.922.43.199Zm0 0" style="stroke:none;fill-rule:nonzero;fill:#fc0;fill-opacity:1"/><path d="m14.328 4.469.797.558.23-.418Zm0 0" style="stroke:none;fill-rule:nonzero;fill:#fc0;fill-opacity:1"/><path d="m14.328 4.469.969.023-.055.473ZM16.727 7.605l.316-.925.43.199Zm0 0" style="stroke:none;fill-rule:nonzero;fill:#fc0;fill-opacity:1"/><path d="m16.727 7.605.765-.593-.316-.352Zm0 0" style="stroke:none;fill-rule:nonzero;fill:#fc0;fill-opacity:1"/><path d="m17.813 7.605-.77-.593.32-.352Zm0 0" style="stroke:none;fill-rule:nonzero;fill:#fc0;fill-opacity:1"/><path d="m17.813 7.605-.32-.925-.427.199Zm0 0" style="stroke:none;fill-rule:nonzero;fill:#fc0;fill-opacity:1"/><path d="m18.148 6.555-.793.558-.23-.418Zm0 0" style="stroke:none;fill-rule:nonzero;fill:#fc0;fill-opacity:1"/><path d="m18.148 6.555-.964.023.054.477Zm0 0" style="stroke:none;fill-rule:nonzero;fill:#fc0;fill-opacity:1"/><path d="m16.39 6.555.794.558.23-.418Zm0 0" style="stroke:none;fill-rule:nonzero;fill:#fc0;fill-opacity:1"/><path d="m16.39 6.555.965.023-.054.477Zm0 0" style="stroke:none;fill-rule:nonzero;fill:#fc0;fill-opacity:1"/><path d="m17.27 5.906-.278.938.461.093Zm0 0" style="stroke:none;fill-rule:nonzero;fill:#fc0;fill-opacity:1"/><path d="m17.27 5.906.277.938-.461.093ZM16.387 12.2l.968.023-.054.472Zm0 0" style="stroke:none;fill-rule:nonzero;fill:#fc0;fill-opacity:1"/><path d="m16.387 12.2.797.558.23-.418Zm0 0" style="stroke:none;fill-rule:nonzero;fill:#fc0;fill-opacity:1"/><path d="m16.723 13.246.32-.922.43.2Zm0 0" style="stroke:none;fill-rule:nonzero;fill:#fc0;fill-opacity:1"/><path d="m16.723 13.246.77-.594-.321-.351Zm0 0" style="stroke:none;fill-rule:nonzero;fill:#fc0;fill-opacity:1"/><path d="m17.813 13.246-.77-.594.32-.351Zm0 0" style="stroke:none;fill-rule:nonzero;fill:#fc0;fill-opacity:1"/><path d="m17.813 13.246-.32-.922-.43.2Zm0 0" style="stroke:none;fill-rule:nonzero;fill:#fc0;fill-opacity:1"/><path d="m17.27 11.55-.278.938.461.094Zm0 0" style="stroke:none;fill-rule:nonzero;fill:#fc0;fill-opacity:1"/><path d="m17.27 11.55.277.938-.465.094Zm0 0" style="stroke:none;fill-rule:nonzero;fill:#fc0;fill-opacity:1"/><path d="m18.148 12.2-.964.023.054.472Zm0 0" style="stroke:none;fill-rule:nonzero;fill:#fc0;fill-opacity:1"/><path d="m18.148 12.2-.793.558-.234-.418ZM14.379 14.086l.965.023-.055.477Zm0 0" style="stroke:none;fill-rule:nonzero;fill:#fc0;fill-opacity:1"/><path d="m14.379 14.086.793.559.23-.418Zm0 0" style="stroke:none;fill-rule:nonzero;fill:#fc0;fill-opacity:1"/><path d="m14.715 15.137.32-.926.43.2Zm0 0" style="stroke:none;fill-rule:nonzero;fill:#fc0;fill-opacity:1"/><path d="m14.715 15.137.77-.594-.32-.352Zm0 0" style="stroke:none;fill-rule:nonzero;fill:#fc0;fill-opacity:1"/><path d="m15.805 15.137-.77-.594.32-.352Zm0 0" style="stroke:none;fill-rule:nonzero;fill:#fc0;fill-opacity:1"/><path d="m15.805 15.137-.32-.926-.43.2Zm0 0" style="stroke:none;fill-rule:nonzero;fill:#fc0;fill-opacity:1"/><path d="m15.258 13.438-.278.937.465.098Zm0 0" style="stroke:none;fill-rule:nonzero;fill:#fc0;fill-opacity:1"/><path d="m15.258 13.438.277.937-.46.098Zm0 0" style="stroke:none;fill-rule:nonzero;fill:#fc0;fill-opacity:1"/><path d="m16.14 14.086-.968.023.055.477Zm0 0" style="stroke:none;fill-rule:nonzero;fill:#fc0;fill-opacity:1"/><path d="m16.14 14.086-.796.559-.23-.418Zm0 0" style="stroke:none;fill-rule:nonzero;fill:#fc0;fill-opacity:1"/></svg>