<svg xmlns="http://www.w3.org/2000/svg" width="25" height="19" viewBox="0 0 25 19"><path d="M0 0h25v19H0z" style="fill:#68bfe5;fill-opacity:1;stroke:none"/><path d="M16.441 7.648v5.399c0 1.765 3.149 2.808 3.149 2.808s3.144-1.043 3.144-2.808V7.648Zm0 0" style="stroke:none;fill-rule:nonzero;fill:#fff;fill-opacity:1"/><path d="M19.152 9.547v2.43h-2.71v.882h2.71v2.832l.438.168.433-.168v-2.828h2.711v-.886h-2.71v-2.43Zm0 0" style="stroke:none;fill-rule:nonzero;fill:#d21034;fill-opacity:1"/><path d="M16.441 7.648h6.293v2.09h-6.297Zm0 0" style="stroke:none;fill-rule:nonzero;fill:#d21034;fill-opacity:1"/><path d="M811.75 192.215c0-6.086-6.016-10.984-13.537-10.984-7.52 0-13.687 4.898-13.687 10.984s6.167 10.984 13.687 10.984 13.537-4.898 13.537-10.984Zm0 0" style="fill-rule:nonzero;fill:#fff;fill-opacity:1;stroke-width:.8;stroke-linecap:butt;stroke-linejoin:miter;stroke:#000;stroke-opacity:1;stroke-miterlimit:3" transform="matrix(.02597 0 0 .02632 -3.785 3.86)"/><path d="M810.246 186.426c0-3.265-5.415-6.085-12.033-6.085-6.768 0-12.183 2.82-12.183 6.085 0 3.414 5.415 6.234 12.183 6.234 6.618 0 12.033-2.82 12.033-6.234ZM810.246 198.746c0-3.266-5.415-6.086-12.033-6.086-6.768 0-12.183 2.82-12.183 6.086 0 3.414 5.415 6.085 12.183 6.085 6.618 0 12.033-2.671 12.033-6.085Zm0 0" style="fill-rule:nonzero;fill:#fff;fill-opacity:1;stroke-width:.8;stroke-linecap:butt;stroke-linejoin:miter;stroke:#000;stroke-opacity:1;stroke-miterlimit:3" transform="matrix(.02597 0 0 .02632 -3.785 3.86)"/><path d="M810.246 192.215c0-3.414-5.415-6.086-12.033-6.086-6.768 0-12.183 2.672-12.183 6.086s5.415 6.086 12.183 6.086c6.618 0 12.033-2.672 12.033-6.086Zm0 0" style="fill-rule:nonzero;fill:#fff;fill-opacity:1;stroke-width:.8;stroke-linecap:butt;stroke-linejoin:miter;stroke:#000;stroke-opacity:1;stroke-miterlimit:3" transform="matrix(.02597 0 0 .02632 -3.785 3.86)"/><path d="m578 235.362-1.3-3.553s-3.6-1.48-3.9-3.454c-.6-5.033-2.4-6.908-5.2-7.796-1.5-.395-3.1-.197-4.5.494-.8 1.283-5 1.283-7.2 1.381-2.3 0-2.4-.987-2.4-.987-1.7 0-2.5-1.381-2.5-1.381-1.1-2.27-2-3.158-2.6-3.454 3 0 5.2-1.283 8.6-4.836 3.6-3.75 6.2-2.368 6.2-2.368-1.8 3.553.6 3.256.6 3.256 4.8-2.467.6-8.684-.8-8.388-1.5.296-1.9-.69-1.9-.69 0 1.085-1.6 1.578-1.6 1.578 1.2-7.105-3-8.98-3-8.98-.6.592-1 1.875-1 1.875-1.2 4.342-5.1 3.652-9.5 1.58s-16 2.17-19.7 3.65-10.4 3.75-16.4.395c-6-3.256-7.5-2.763-9.9-2.072-2.3.592-6.5 1.579-8 .79-1.1-.494-2.2-.79-3.4-.889.4-.197-.2-1.184-.2-1.184-1.9-2.566.2-4.046.2-4.046s-3.4.987-2 6.81l.6.789s.4 1.875 1.4 2.467v.394s.9-.394 1.1.79 1.6 0 2.1-.987c0 0-.9 5.329 5.7 6.612 0 0-.7-.888-.5-1.382.3-.592-.8-.987-.7-1.776.1-.79-1.6-1.184-.3-1.875 1.3-.69 2-1.974 5-.099 2.9 1.678 5.2 1.283 5.2 1.283s-1.8-3.651-.8-3.651 5.4 5.428 7.5 5.23c2.2-.296 6.4-2.763 8.5-1.875 0 0 .2-.987 8.2-2.368 8-1.48 18-5.428 21.7-1.974 0 0 .4 2.862 2 3.553 0 0-.3 5.822-10.2 2.565l-3.6-.986s-.6-1.678-19.5 3.158c0 0-1.1.394-1.9.986-.8.494-1.7-.394-5.5.987-3.7 1.48-17.7 5.921-26.3 4.342-1.9-.592-3.6-.296-3.7-.592 0-.296 1 .099 1 .099-.6-.69-.9-.888-.9-.79-7.2-.79-6-3.947-6-3.947l.4.987c1.2-1.678-.4-5.23-.4-5.23h-.1v-.296l.5-.395c3.5-3.06 7.5-3.553 7.5-3.553-2.4-2.96-7.4-1.381-7.4-1.381.1-3.454-1.4-7.698-1.4-7.698-3.1.494-5.8 2.171-7.7 4.737-.2-3.75-4.9-5.822-4.9-5.822 1.8 2.072.7 7.204.7 7.204h.2-.5l-.1 1.085h-.2s-1.7.592-3.7 5.23c0 0-.2.987-1 1.974v-.395s-2.3 2.96-7.4 0c0 0-7-4.046-9.6-3.947-2.4.197-4 1.283-3.9 1.974 0 0-5.7-.395-7.6 2.763 0 0-4.3 1.579-.6 5.033 0 0 .5 1.579 1.5 2.368 0 0-.1-3.158.7-2.27l.5.593c.1.394.5 1.579 1.2 2.27l.6-.198c0-.79.2-1.776.4-2.171h.2l1 1.579 1-.592c.6 0 1.3.493 1.3.493l1.3-1.085c1.3.197 1.7-2.369 1.7-2.369 1.1.198 2.2 0 3.1-.493.6 1.973 5.2 4.243 5.2 4.243h.2l-.6.395c2.1 1.48 6 1.085 6 1.085-1.6.593-1.4 3.75-1.4 3.75-1 .395-1 1.283-1 1.283 3.2 1.283 5.3.198 5.3.198q.15 1.48 0 1.184c-1.3 2.763-1.9 5.428-1.9 5.428h.1v.197s-5.7 1.974-8.1 4.737c0 0-.3-.888-1-.888s-2.8-1.777-3.8-2.073-2.5.296-3-.197c-.3-.395-.1-3.553-.8-3.947l-.7-2.073c-.4 1.086-2.4.79-2.4.79l-.8.69-.8-.098c-.2 0-.4.394-.5.987l-.3.296v-.592c-.3.296-1.1-.1-1.4-.1-.2 0-.4.297-.5.889l-1.9.099c-.3.197 0 2.565 0 2.565-2.3 1.185-1.2 3.158-1.2 3.158 1.2 5.921 11.5 3.257 12.3 4.046s2.6.987 3.5.987c1 0 2.1 2.171 3.4 2.467 1.3.198 0-1.875 6.1-3.256 6.1-1.382 8.2-3.948 8.2-3.948 1.9-.394 2.4-2.763 2.5-3.65l.2 1.38c.3 2.172-1.2 3.06-1.2 3.06l5.3-1.776c2.1-.494 1.8-2.369 1.8-2.369 2 5.823 5.7 6.217 5.7 6.217.7-2.17.6-2.862.6-2.862h1.7c0-1.381-1-2.27-1.7-2.664l2.6 1.48 1-.098c0 .986 1.3 1.776 1.3 1.776l.2-1.283c1.2 1.678 3.4 1.085 3.4 1.085l-.2-.888c4.7 2.96 12.2-.79 12.2-.79 2 .396 2.3-.789 2.3-.789 2.2.296 2.8-1.283 2.8-1.283 5.3-.394 9.1-4.144 9.1-4.144 2.7-.198 2.8-2.171 2.8-2.171s2.6.493 5.2-2.665c6-8.487 14.8-4.046 14.8-4.046l-5.1.296c-13.5-.098-7.9 9.08-7.9 9.08h.8c1.3.197 5.7 3.65 4 6.118v.197c-2.8 3.75-7.8.197-9.3-2.96-1.4-3.158-4.4-2.468-4.4-2.468s-7.5 1.283-4.4 7.303c.1 1.48 1 3.158 3.8 4.737 1.5 2.27 6.5 2.467 10.1 1.677C524 244.046 533 240 533 240c.7-1.974 3-1.48 5-4.44 2-2.764-2.9-3.75-4-5.33-1-1.579.3-1.184.3-1.184 4.4 2.27 4.8-5.23 4.8-5.23.4 2.467 2 4.54 4.3 5.526 2.3-2.368.6-7.204.6-7.204 5.7 10.165 9.1 8.487 9.1 8.487-3-1.776-1.5-4.44-1.5-4.44 2.7 10.854 14 1.38 14 1.38-.6 1.678 0 2.567 1 3.553 1 .987 2.2 1.382 1.6 3.257-.5 1.776-5.8 1.382-5.8 1.382s-5-.198-4.6 4.046c.3.986 3.6 1.381 5 1.085 0 0-.6.198 1.3.395h2.2c2.1 0 4.5-.395 4.5-.395 2.9-.592 2.4-1.579 2.4-1.579 4.5-.79 5-3.848 5-3.848Zm0 0" style="fill-rule:nonzero;fill:#ffd100;fill-opacity:1;stroke-width:.8;stroke-linecap:butt;stroke-linejoin:miter;stroke:#000;stroke-opacity:1;stroke-miterlimit:3" transform="scale(.03906 .03958)"/><path d="M16.781 8.578s.012-.02.028-.023q.022 0 .046.03l.012-.007s-.047-.07-.031-.121a.08.08 0 0 1 .062-.043v-.012c-.039.008-.062.028-.07.051l-.008.031q.001.037.02.067l-.031-.008a.034.034 0 0 0-.032.023Zm5.508.95c-.117.019-.293.027-.309-.008 0-.008 0-.032.094-.094l-.008-.02q-.123.076-.105.117c.027.07.281.032.332.024Zm-2.281.066c-.028-.04-.012-.098.039-.168l-.02-.012c-.05.078-.066.145-.039.195Zm0 0" style="stroke:none;fill-rule:nonzero;fill:#000;fill-opacity:1"/><path d="M19.848 9.414c0 .074.05.145.152.2l.012-.02q-.14-.087-.14-.18c-.009-.101.097-.18.1-.18l-.011-.015c-.008 0-.117.082-.113.199Zm2.03.027c-.03.051-.019.11-.019.11h.02c0-.004-.008-.055.02-.098a.11.11 0 0 1 .078-.047v-.02c-.043.009-.075.024-.094.055Zm-4.651-.925h-.008v.007s-.008.063-.04.079h-.023l-.05-.028q-.007-.012-.032-.008a.1.1 0 0 1-.015-.054q.004-.042.062-.082l-.008-.012q-.06.041-.066.094c0 .039.02.062.02.062v.004h.007q.012-.005.024.008l.054.031h.04c.027-.02.038-.074.038-.086.125.028.227-.133.235-.136l-.012-.008s-.105.16-.226.129" style="stroke:none;fill-rule:nonzero;fill:#000;fill-opacity:1"/><path d="M16.918 8.492a.1.1 0 0 0 .016.078.1.1 0 0 0 .039.035q.03 0 .047-.023a.1.1 0 0 1 .023-.016l.012.008.008-.008-.02-.011q-.019.001-.031.02c-.008.01-.02.019-.04.019q-.012-.001-.03-.031a.07.07 0 0 1-.012-.067c.015-.059.082-.101.082-.101l-.004-.012a.2.2 0 0 0-.09.11m-.172.816c.004-.02.024-.04.05-.055-.007 0 .024.023.052.023l.02-.011c.007.007.054.05.054.109a.1.1 0 0 1-.008.035l.012.004c.035-.086-.055-.16-.055-.16h-.008l-.015.012c-.024 0-.051-.024-.051-.024-.035.016-.059.04-.063.063Zm.402-.211c-.027.004-.097.015-.12.054a.04.04 0 0 0-.005.047l.008.024c.024.062.047.125.074.144l.004-.012c-.023-.015-.047-.082-.066-.136l-.008-.024a.04.04 0 0 1 0-.039c.02-.027.086-.039.117-.043.016 0 .02.059.024.094h.012c-.004-.055-.012-.11-.04-.11" style="stroke:none;fill-rule:nonzero;fill:#000;fill-opacity:1"/><path d="M16.95 9.16q-.018.023-.012.035c0 .004.007.16.078.192l.004-.012c-.063-.031-.07-.18-.07-.184q0-.005.007-.023.017-.018.063 0l.003-.012q-.051-.016-.074 0Zm0 0" style="stroke:none;fill-rule:nonzero;fill:#000;fill-opacity:1"/><path d="M16.89 9.172c-.03.023-.027.086-.027.09h.012s0-.063.023-.078q.017-.012.04 0l.003-.016q-.032-.012-.05 0ZM18.61 8.32s.035.078.035.14c0 .009-.004.02-.008.024l-.016-.03-.008.023s-.015.039.008.078c.031.05.11.086.234.097v.004h-.007l-.008.008v.008q.006.017.047.015h.02l.015.008-.004-.004a.3.3 0 0 1 .094.02l-.028.008.032.011s.226.094.316.168c-.027.024-.137.102-.332.055l-.027-.008.02.028s.124.148.152.238c-.043 0-.211 0-.274-.055l-.012.016s.078.121.098.21c-.023.005-.078.009-.11-.034l-.015-.02-.008.05c-.015-.01-.039-.026-.039-.046V9.32l-.047.008-.097-.058-.016-.012-.012.02.016.007c.023.016.058.043.062.086h-.062v.012c0 .008 0 .039-.024.097-.03-.003-.136-.043-.203-.23l-.02.004v.004a.08.08 0 0 1-.062.078l-.172.05a.12.12 0 0 0 .024-.07v-.023l-.008-.066q-.001-.06.04-.079l-.013-.023c-.003 0-.25.102-.37.063.003-.028.027-.114.066-.204l-.004.008c.008-.008.015-.015.008-.058v-.012l-.012.004s-.078.035-.195-.004q0-.022.03-.04l.009-.003v-.02c0-.03.004-.105.047-.12l-.004-.02s-.133.008-.215-.035a.3.3 0 0 1 .117-.051h.008V8.62q0-.03-.012-.059c.031.012.066.02.082.008l.004-.004-.004-.082h-.023l.004.07-.11-.027.02.024q.021.032.02.062a.3.3 0 0 0-.13.063l-.011.011.011.008c.063.04.157.047.207.043a.2.2 0 0 0-.035.117v.012a.1.1 0 0 0-.039.059v.008l.008.004a.28.28 0 0 0 .203.011v.024c-.05.109-.078.218-.078.218v.012h.008c.101.04.277-.015.36-.043a.15.15 0 0 0-.02.067l.007.09c0 .058-.039.081-.039.081l.008.024.207-.067c.047-.011.067-.039.074-.062.079.191.207.207.215.21h.008v-.007a.3.3 0 0 0 .027-.105l.063-.004v-.012a.1.1 0 0 0-.012-.047l.04.02.03-.004c.008.035.051.062.055.066l.016.008.008-.047c.05.047.12.035.125.035l.007-.004v-.011a.5.5 0 0 0-.085-.2c.09.043.257.04.265.04h.012v-.012a.8.8 0 0 0-.149-.239c.215.04.329-.074.336-.078l.008-.007-.012-.008a1.5 1.5 0 0 0-.3-.164l.023-.004-.027-.016a.3.3 0 0 0-.149-.035c-.027-.031-.039-.035-.043-.04-.144-.015-.199-.054-.218-.085v-.008l.004-.008a.1.1 0 0 0 .02-.066c0-.07-.036-.145-.036-.149Zm0 0" style="stroke:none;fill-rule:nonzero;fill:#000;fill-opacity:1"/><path d="M17.95 8.277s-.016.078-.087.121q-.077.042-.195-.011h-.012v.011a.14.14 0 0 0 .051.082c.035.028.086.036.156.032-.023.027-.093.117-.093.207v.011c.007.004.117.036.171-.027 0 .024.008.117.043.152q.029.036.028.07-.004.036-.008.036L18 8.977l.012-.008c.004-.004.105-.082.136-.176 0 0 .02-.027.051-.035v.012c0 .039.016.109.125.152h.008v-.024c0-.03 0-.082.027-.105a.08.08 0 0 0 .016-.09c.023.008.078.024.098.063.03.058.136.011.14.011v-.011s-.047.011-.078-.008q-.019-.017-.02-.04l-.003-.062q-.001-.041-.02-.058c.012 0 .043 0 .051.023.023.043.086.047.09.047l.023.004-.02-.016s-.054-.035-.046-.086l.008-.035c.015-.066.043-.176.02-.242l-.013.004q.01.023.008.058c0 .06-.015.13-.023.176l-.012.035v.016q.006.053.035.07c-.02-.004-.047-.015-.054-.035-.016-.035-.059-.035-.075-.035l-.015.004.008.012c.02.007.023.027.02.058l.007.063a.1.1 0 0 0 .023.047q.03.01.047.011c-.031.008-.078.016-.09-.015-.03-.059-.113-.07-.117-.075h-.012l.004.012s.012.016.012.035a.1.1 0 0 1-.02.047c-.027.028-.03.082-.03.114v.011c-.094-.043-.11-.097-.11-.133v-.027l.004-.008h-.012a.1.1 0 0 0-.062.047.4.4 0 0 1-.125.164l.004-.027c.003-.024-.008-.05-.024-.074-.039-.04-.047-.16-.047-.16v-.02l-.008.02c-.043.07-.164.035-.164.035-.007-.094.102-.215.102-.215l.012-.012h-.016q-.106.013-.16-.027a.14.14 0 0 1-.043-.063q.116.042.2 0a.2.2 0 0 0 .085-.125c.078-.176.145-.203.145-.203l-.004-.012c-.004 0-.075.028-.149.211" style="stroke:none;fill-rule:nonzero;fill:#000;fill-opacity:1"/><path d="M18.121 8.016h-.004l-.062.09h.015a.8.8 0 0 1 .512.242l.008.007.062-.066-.007-.008c-.168-.27-.52-.265-.528-.265Zm.004.027c.043 0 .344.008.5.242l-.035.04a.84.84 0 0 0-.5-.235Zm0 0" style="stroke:none;fill-rule:nonzero;fill:#000;fill-opacity:1"/><path d="M18.07 8.195a.4.4 0 0 0-.054.13l.004.007a.2.2 0 0 0-.051.145q0 .053.015.101l.008.02c.031.09.059.168.203.12.133-.042.14-.054.172-.113l.012-.011c.02-.031.039-.035.058-.043.028-.008.055-.016.079-.067l.02-.03a.26.26 0 0 0 .062-.134h-.012a.25.25 0 0 1-.059.125l-.023.035a.11.11 0 0 1-.067.06.1.1 0 0 0-.07.046l-.008.016c-.03.054-.039.062-.172.105s-.156-.023-.183-.117l-.008-.016c-.039-.101-.008-.203.04-.238l.015-.012h-.024c0-.02.02-.07.051-.12.031-.04.106-.083.106-.083l-.004-.012a.5.5 0 0 0-.11.086" style="stroke:none;fill-rule:nonzero;fill:#000;fill-opacity:1"/><path d="M18.012 8.563q.03.023.093 0c0 .011 0 .042.028.066q.047.04.14.016v-.016c-.062.02-.105.012-.132-.012a.07.07 0 0 1-.024-.062v-.012l-.008.008q-.059.023-.093 0c-.04-.028-.036-.098-.036-.098h-.011s-.004.078.043.11" style="stroke:none;fill-rule:nonzero;fill:#000;fill-opacity:1"/><path d="M18.082 8.465q-.019.01-.02.027V8.5c.004.035.04.055.067.063.027.007.066.011.082-.008q.006-.012 0-.047c-.023-.043-.078-.063-.125-.043Zm.05.086c-.023-.008-.054-.024-.058-.051 0 0-.004-.02.012-.023.043-.02.09 0 .11.039q.01.022.003.027c-.008.016-.035.016-.066.008m-.008.07c-.008.066 0 .07 0 .07h.008l.004-.004.035-.05-.047-.024Zm.012.012.02.008-.024.03Zm-.11-.063-.004.059.055-.063-.055-.004Zm.012.004h.016l-.016.024Zm0 0" style="stroke:none;fill-rule:nonzero;fill:#000;fill-opacity:1"/><path d="M17.992 8.55s.04.075.047.106q.008.025.05.043.048.019.071-.004l.035-.027q.012-.018.024-.012v-.015q-.019.002-.032.015l-.035.028c-.02.015-.043.011-.058.004q-.041-.014-.047-.04c-.008-.027-.043-.101-.043-.105Zm.051-.226a.13.13 0 0 0-.063.074h.012s.02-.046.055-.066a.1.1 0 0 1 .062 0v-.008a.08.08 0 0 0-.07 0Zm.281.137c.004 0 .082.062.04.137l.007.007c.05-.09-.039-.156-.039-.16Zm-.238.008s-.016.047.05.062c0 0-.058 0-.066-.015 0-.016 0-.051.016-.047m.195.054a.01.01 0 0 1-.008.008l-.007-.004q-.002-.01.007-.011.007 0 .008.011Zm.004.032q.001.005-.004.004l-.008-.004.008-.008q.005.001.004.008M18.246 8.54a.01.01 0 0 0-.008-.009.01.01 0 0 0-.008.008q.001.007.008.008a.01.01 0 0 0 .008-.008M18.258 8.582a.01.01 0 0 1-.008.008.01.01 0 0 1-.008-.008q.001-.007.008-.008Zm-.184-.195q-.001.011-.008.011-.006 0-.007-.011h.011ZM18.078 8.418q.002-.007-.008-.008a.01.01 0 0 0-.008.008q.001.007.008.008.01-.001.008-.008M18.04 8.406c0-.008 0-.008-.009-.008-.004 0-.008 0-.008.008q.001.007.008.008.01-.001.008-.008M18.05 8.445l-.003.008a.01.01 0 0 1-.008-.008q.001-.007.008-.008Zm.126-.25s.09.055.004.164c0 0 .043-.035.047-.09 0-.054-.032-.097-.055-.074Zm.351.153c-.03.015-.074-.012-.093-.04-.02-.023-.067-.03-.094.016-.027.047-.067.067-.067.067s.04-.02.079-.067c.039-.043.062-.008.101.016.04.02.043.023.07.012v-.004Zm0 0" style="stroke:none;fill-rule:nonzero;fill:#000;fill-opacity:1"/><path d="M18.52 8.355c-.02.012-.043.012-.06 0-.023-.023-.042-.046-.07-.03-.03.015-.085.054-.085.054s.09-.063.11-.047c.015.016.054.047.077.04Zm0 0" style="stroke:none;fill-rule:nonzero;fill:#000;fill-opacity:1"/><path d="M18.45 8.395c-.028-.024-.06.027-.083.02-.023-.005-.043-.048-.043-.048s.02.043.051.035c.035-.011.055-.03.078-.015.02.015-.004.008-.004.008" style="stroke:none;fill-rule:nonzero;fill:#000;fill-opacity:1"/><path d="M18.406 8.402a.04.04 0 0 1-.043-.011.05.05 0 0 1-.02-.04s.016.047.067.04Zm0 0" style="stroke:none;fill-rule:nonzero;fill:#000;fill-opacity:1"/><path d="M18.402 8.363q.006.024-.011.024c-.02 0-.032-.008-.028-.024 0-.011.035-.008.04 0m-.204-.078c-.004.008-.012.016-.02.016q-.01.001-.011-.016c.004-.015 0-.02.012-.02.015 0 .02.012.02.02" style="stroke:none;fill-rule:nonzero;fill:#000;fill-opacity:1"/><path d="M18.133 8.219s.101 0 .055.125c0 0 .035-.059.011-.106-.027-.043-.058-.031-.058-.031s-.012.008-.008.012" style="stroke:none;fill-rule:nonzero;fill:#000;fill-opacity:1"/><path d="M18.133 8.27q0 .035.047.078l.008-.012c-.028-.024-.043-.043-.043-.066 0-.032.015-.036.015-.036l-.008-.007s-.02.015-.02.043m0 0" style="stroke:none;fill-rule:nonzero;fill:#000;fill-opacity:1"/><path d="M18.156 8.293a.05.05 0 0 0 .032.031l.003-.011c-.015-.004-.023-.016-.027-.028-.004-.02.012-.043.012-.043l-.012-.008s-.016.032-.008.059m.133.066s.016.04-.008.082l-.027.043s.031-.062.02-.086c-.016-.023.015-.039.015-.039m.379.418c.098.016.324.196.324.196l.012-.016c-.008-.008-.23-.184-.336-.203Zm.086.25c.008.09.105.145.105.149l.012-.02s-.09-.05-.094-.129Zm-.242.02c0 .101.093.223.101.226l.016-.015s-.094-.121-.094-.211Zm-.313.012c.016.03.016.05.012.054q-.017.018-.016.012v.023q.019 0 .032-.023.015-.025-.008-.078Zm0 0" style="stroke:none;fill-rule:nonzero;fill:#000;fill-opacity:1"/><path d="M429.6 216.316s.1 1.677 1.4 2.664c0 0-.1-1.776.3-2.566 0 0-.7-.789-1.7-.098Zm2.6.987s.3 1.579 1.2 2.27l.6-.1s.2-1.973.5-2.17c.3-.198-1.3.69-2.3 0Zm0 0" style="fill-rule:nonzero;fill:#fff;fill-opacity:1;stroke-width:.2;stroke-linecap:butt;stroke-linejoin:miter;stroke:#000;stroke-opacity:1;stroke-miterlimit:3" transform="scale(.03906 .03958)"/><path d="m434.5 217.303 1 1.579 1.2-.691-.2-1.777s-.7-.197-2 .889Zm4.7.296-1.3 1.085s-.7-.493-1.2-.493l.2-1.678s1-.69 2.3 1.086Zm-9.3 15.987s-.2-2.369 0-2.468c0 0 1 .296 1.4 0 0 0 .5 1.777.4 2.566-.2.79-1.1.494-1.8 0Zm6-2.369s-.1-1.974.2-2.27c0 0 2 .296 2.4-.888l.7 2.073s-2.1-.296-3.4.986Zm0 0" style="fill-rule:nonzero;fill:#fff;fill-opacity:1;stroke-width:.2;stroke-linecap:butt;stroke-linejoin:miter;stroke:#000;stroke-opacity:1;stroke-miterlimit:3" transform="scale(.03906 .03958)"/><path d="M433.8 231.612s.3-2.073.7-2.171c0 0 1 .296 1.3-.099v2.566s0-1.086-2-.296Zm-2.3.296s.5-1.875.8-1.875 1 .493 1.4.197v1.382s-1.6-.395-1.9 1.875Zm0 0" style="fill-rule:nonzero;fill:#fff;fill-opacity:1;stroke-width:.2;stroke-linecap:butt;stroke-linejoin:miter;stroke:#000;stroke-opacity:1;stroke-miterlimit:3" transform="scale(.03906 .03958)"/><path d="M461.7 270.395s5.2 4.934 3.9 9.177c0 0 3.3-7.302-.3-9.473-3.6-1.974-3.7-.494-3.6.296Zm0 0" style="fill-rule:nonzero;fill:#00a651;fill-opacity:1;stroke-width:.5;stroke-linecap:butt;stroke-linejoin:miter;stroke:#000;stroke-opacity:1;stroke-miterlimit:4.8" transform="scale(.03906 .03958)"/><path d="M455 275.132s-1.3 1.973.2 3.256c0 0-1.7 2.369-.4 4.44 0 0-1 2.073-.8 4.343 0 0-.8 3.553 1 5.132 0 0 2 .986 3 .098 0 0 1.7-2.565.6-5.329 0 0 1.2-2.27-.2-5.131 0 0 .4-1.678-.7-3.553 0 0 .7-1.184.1-2.17 0 0-2.5-2.764-2.8-.988Zm0 0" style="fill-rule:nonzero;fill:#964b36;fill-opacity:1;stroke-width:.5;stroke-linecap:butt;stroke-linejoin:miter;stroke:#000;stroke-opacity:1;stroke-miterlimit:4.8" transform="scale(.03906 .03958)"/><path d="M456.5 269.013s-6.2-12.04-10.6-12.533-4.6-4.737-4.6-4.737.5 1.974 4 1.974 10.2 4.934 11 8.684c.7 3.652 1.5 3.158 1.5 3.158Zm0 0" style="fill-rule:nonzero;fill:#00a651;fill-opacity:1;stroke-width:.5;stroke-linecap:butt;stroke-linejoin:miter;stroke:#000;stroke-opacity:1;stroke-miterlimit:4.8" transform="scale(.03906 .03958)"/><path d="M456.5 268.125s2.3-15.099 12.2-15.395c9.9-.197 6.6.79 9-.79 0 0-6.6 3.356-10.7 3.948-4.2.395-7.6 8.487-7.4 9.967 0 1.58-2.3 4.441-3.4 3.454s.3-1.184.3-1.184Zm0 0" style="fill-rule:nonzero;fill:#00a651;fill-opacity:1;stroke-width:.5;stroke-linecap:butt;stroke-linejoin:miter;stroke:#000;stroke-opacity:1;stroke-miterlimit:4.8" transform="scale(.03906 .03958)"/><path d="M458.8 273.849s2.3-6.02 6.1-4.046c0 0-3-5.823-8.4-.79 0 0 2.4 3.257 2.3 4.836Zm-7.5-6.02s3.2 13.322-1.8 17.467c0 0 .2-6.908-2.9-10.954-3-4.243 3-8.783 4.7-6.513Zm0 0" style="fill-rule:nonzero;fill:#00a651;fill-opacity:1;stroke-width:.5;stroke-linecap:butt;stroke-linejoin:miter;stroke:#000;stroke-opacity:1;stroke-miterlimit:4.8" transform="scale(.03906 .03958)"/><path d="M451.7 270.099s5.9 5.723 6.2 7.598c.4 1.777 1.8-5.723-1-7.796-2.8-2.072-5.7-2.467-5.7-2.467l.5 2.763Zm0 0" style="fill-rule:nonzero;fill:#00a651;fill-opacity:1;stroke-width:.5;stroke-linecap:butt;stroke-linejoin:miter;stroke:#000;stroke-opacity:1;stroke-miterlimit:4.8" transform="scale(.03906 .03958)"/><path d="M440.8 285s.5 2.27 2 2.763c0 0 0 1.776 1.4 2.27 0 0-.7 1.48.4 2.368 0 0-.2 2.96.8 3.454 0 0 2.7-.098 3.6-.888 0 0 .5-1.875-1-3.75 0 0 .3-1.776-1.2-2.862 0 0 .5-2.467-1.4-3.355 0 0-.3-1.974-1.4-2.96 0 0-2.2 3.059-3.2 2.96Zm0 0" style="fill-rule:nonzero;fill:#964b36;fill-opacity:1;stroke-width:.5;stroke-linecap:butt;stroke-linejoin:miter;stroke:#000;stroke-opacity:1;stroke-miterlimit:4.8" transform="scale(.03906 .03958)"/><path d="M443.7 282.04s-7.7-2.862-12 1.184c0 0 6.6.987 7.4 2.27s4.9-2.172 4.6-3.455Zm0 0" style="fill-rule:nonzero;fill:#00a651;fill-opacity:1;stroke-width:.5;stroke-linecap:butt;stroke-linejoin:miter;stroke:#000;stroke-opacity:1;stroke-miterlimit:4.8" transform="scale(.03906 .03958)"/><path d="m441.3 286.776-1.4-.987c-.7-.592-7.2-2.27-8.1 4.047 0 0-2.4-6.316 1-7.007 3.5-.987 6.2.987 8.5 3.947m-5-12.73s2.3 5.132 3.2 5.329 1.5-.592 1.5-.592-3.1-4.54-4.8-4.737Zm-1.8-7.993s-2-6.514-4.4-4.737c-2.4 1.776-1.8 6.513-1.8 6.513s-4.7-5.033-2-8.783c2.7-3.849 8.2.395 8.2 7.007Zm0 0" style="fill-rule:nonzero;fill:#00a651;fill-opacity:1;stroke-width:.5;stroke-linecap:butt;stroke-linejoin:miter;stroke:#000;stroke-opacity:1;stroke-miterlimit:4.8" transform="scale(.03906 .03958)"/><path d="M439.9 279.77s0 1.283.9 1.677c.9.296 2.5.987 2.5.296 0-.79-1.3-3.75-1.8-3.355s-1.4.395-1.6 1.382Zm0 0" style="fill-rule:nonzero;fill:#964b36;fill-opacity:1;stroke-width:.5;stroke-linecap:butt;stroke-linejoin:miter;stroke:#000;stroke-opacity:1;stroke-miterlimit:4.8" transform="scale(.03906 .03958)"/><path d="M438.4 271.974s-.3-5.625 3.5-7.895c0 0 .7.197 1.1-.987 0 0-3 7.303-2.1 11.053l-.1.394" style="fill-rule:nonzero;fill:#00a651;fill-opacity:1;stroke-width:.5;stroke-linecap:butt;stroke-linejoin:miter;stroke:#000;stroke-opacity:1;stroke-miterlimit:4.8" transform="scale(.03906 .03958)"/><path d="M439.1 264.967s6.8-14.013 15-9.079c0 0-8.6 1.678-11.7 7.895l-3.1 4.638Zm0 0" style="fill-rule:nonzero;fill:#00a651;fill-opacity:1;stroke-width:.5;stroke-linecap:butt;stroke-linejoin:miter;stroke:#000;stroke-opacity:1;stroke-miterlimit:4.8" transform="scale(.03906 .03958)"/><path d="M435.5 270.099s-2-9.375-3.3-10.56c-1.2-1.381-3.3-2.664-5.9-.493 0 0 4.4-3.947 9-.69 4.7 3.256 3.7 8.486 3.7 8.486l-.5 6.415-3.1-2.862" style="fill-rule:nonzero;fill:#00a651;fill-opacity:1;stroke-width:.5;stroke-linecap:butt;stroke-linejoin:miter;stroke:#000;stroke-opacity:1;stroke-miterlimit:4.8" transform="scale(.03906 .03958)"/><path d="M442.8 281.349s-8.3-15.79-13.7-4.54c0 0-1 2.862.1 3.948 0 0-3-2.27-1.6-7.796 1.4-5.428 10.5-2.961 13.2 1.578 2.7 4.441 3.3 6.81 3 7.007-.4.296-1-.197-1-.197Zm23.3 4.44s6-12.434 9.5-6.809c0 0 1 2.862-.5 4.046 0 0-2.4-3.059-4.5.592-2.2 3.454-1.3 3.158-1.3 3.158s-2.2.592-3.2-.987Zm0 0" style="fill-rule:nonzero;fill:#00a651;fill-opacity:1;stroke-width:.5;stroke-linecap:butt;stroke-linejoin:miter;stroke:#000;stroke-opacity:1;stroke-miterlimit:4.8" transform="scale(.03906 .03958)"/><path d="M475 283.026s3.3 1.678 2.2 5.132c0 0 4.4-8.388-1.6-9.178 0 0 1.1 2.763-.5 4.046Zm.5-8.585s7.9 2.27 8.1 5.625c0 0 1.4-6.612-3.1-8.586 0 0-5.4.987-5 3.06Zm0 0" style="fill-rule:nonzero;fill:#00a651;fill-opacity:1;stroke-width:.5;stroke-linecap:butt;stroke-linejoin:miter;stroke:#000;stroke-opacity:1;stroke-miterlimit:4.8" transform="scale(.03906 .03958)"/><path d="M479 263.98c3.4-6.612 7.6 2.073 7.6 2.073s1.5-6.81-2.7-8.092c-4.3-1.283-7 14.703-7 14.703l-5 .987s1.3-13.717 8.8-15h1" style="fill-rule:nonzero;fill:#00a651;fill-opacity:1;stroke-width:.5;stroke-linecap:butt;stroke-linejoin:miter;stroke:#000;stroke-opacity:1;stroke-miterlimit:4.8" transform="scale(.03906 .03958)"/><path d="M473 268.026s-4.8-9.868-8-10.855 1.7-2.467 3.7-.592 5.8 4.342 5.4 9.276Zm-5 13.421s1.4-6.611 5.2-8.684c3.8-1.974 7.3-1.283 7.3-1.283s-4.5.987-5.3 3.356c-.8 2.27-2 2.368-2 2.368Zm0 0" style="fill-rule:nonzero;fill:#00a651;fill-opacity:1;stroke-width:.5;stroke-linecap:butt;stroke-linejoin:miter;stroke:#000;stroke-opacity:1;stroke-miterlimit:4.8" transform="scale(.03906 .03958)"/><path d="M466 285.79s-2 4.046-1.6 4.638c0 0-2.2 3.256-1.3 4.934 0 0 2.2 1.776 3.2 1.085 0 0 2.6-3.75 1.9-5.723 0 0 1.8-2.467 1.1-3.948 0 0-2.6.099-3.2-.987Zm0 0" style="fill-rule:nonzero;fill:#964b36;fill-opacity:1;stroke-width:.5;stroke-linecap:butt;stroke-linejoin:miter;stroke:#000;stroke-opacity:1;stroke-miterlimit:4.8" transform="scale(.03906 .03958)"/><path d="M17.773 11.027c.008.004.059.028.09.016l.024-.02-.02-.007c-.012.023-.066.004-.082-.004l-.008.015Zm-.003.16-.008.02c.004 0 .105.02.152-.023l-.016-.016c-.039.035-.128.016-.132.016Zm-.028.172-.012.016s.118.086.192-.008l-.02-.012c-.058.079-.156.008-.16 0Zm-.449.024.004.012c.004 0 .101-.04.11-.114h-.012c-.004.063-.098.102-.102.102m.055.094v.011c.007 0 .097-.008.113-.074h-.012c-.015.055-.097.063-.101.063m.02.093v.012c.003 0 .105.004.14-.05l-.012-.009c-.031.051-.129.047-.129.047m.77-.066s.043.047.093.043q.042-.001.067-.031l-.016-.016q-.022.025-.05.027c-.04 0-.079-.039-.079-.039Zm0 0" style="stroke:none;fill-rule:nonzero;fill:#000001;fill-opacity:1"/><path d="m542 299.803-.3.296.4-.296Zm9.3-2.27c-.1-.197-.2-.197-.3-.197l-.4-.79h-.3l-.7-1.48v-.691s-.2 0-.3-.197v-1.58l-.1-.493-.3-1.085v-.987c0-.395 0-.69-.1-.987l.1-.987v-5.329l-.1-.987-.1-.394v-1.678 2.665l-.2-4.343-3.4-1.579s-.3 6.218-.2 7.007c0 .888.4 6.71.2 7.401l-.5 4.244s-1.6 1.283-2.2 2.467c-.7 1.283-.5 1.678-.7 1.678l1.5-.198-1.1.79.7.098.2.198.2-.198c.3 0 .5.395.7.296l.4-.197.2-.395h1.1c.3-.098.6-.394.9-.69.2-.198.4-.297.7-.297s.6.198 1 .296c.2 0 .4-.098.5-.197l.4-.592.8-.099.4.099h.6l.3.197.2-.394Zm0 0" style="fill-rule:nonzero;fill:#964b36;fill-opacity:1;stroke-width:.3;stroke-linecap:butt;stroke-linejoin:miter;stroke:#000;stroke-opacity:1;stroke-miterlimit:4.8" transform="scale(.03906 .03958)"/><path d="M544.5 299.704h.6v.197h.2l.3.198h.3l.4.098c.2.1.4 0 .6-.098.2-.099.4-.099.6.197.1.099.1.099.2 0l.1-.099.6-.197.4-.197.4.197h.2l.7-.493c.3-.1.5-.1.7 0h.7c0-.1.1-.198.2-.296l.7.394c.1.099.7.198.6-.197s-.4-.099-.5-.395v-.592l-.3-.395h-.4l-.2-.592-.3.198q-.15-.001-.3-.296c-.3-.297-.4.197-.7.098-.2-.197-.4-.395-.5-.69-.1-.395-.3-.494-.5-.395-.1.197-.1.394 0 .69h-.5c-.1 0-.2 0-.3.198-.1.395-.4.592-.7.592h-.4l-.5.197h-.4l-.4-.394-.3-.198q-.15 0-.3.296l-.1.494-.3.394-.4.1c-.2 0-.4.295-.4 0-.2-.396.3-1.086-.2-.988-.1 0-.2 0-.3.198v.69c-.1.296-.7.79-.6.987 0 .296.4 0 .4 0l.2.395c.2.296.7-.395.7 0m-2.1-2.664v-.198l-.4-.099c-.2 0-.4.198-.5.395-.2.395-.2.987-.6.987h-.5v.987s-.2 0-.2.197c0 .296.1.296.4.198h1l.5-.1c.2 0 .4-.098.5-.196l.2-.395v-.395c.1-.099.2-.197.3-.395.1-.69-.6-.197-.5-.888" style="fill-rule:nonzero;fill:#964b36;fill-opacity:1;stroke-width:.3;stroke-linecap:butt;stroke-linejoin:miter;stroke:#000;stroke-opacity:1;stroke-miterlimit:4.8" transform="scale(.03906 .03958)"/><path d="M550.8 277.895c-.1.987-.5 1.579-1.4 1.579-.8 0-1.3-.592-1.4-1.58.1-.986.6-1.48 1.4-1.578.9.098 1.3.592 1.4 1.579Zm-4.5-1.974c-.1.987-.5 1.48-1.4 1.579-1.3.099-1.4-.69-1.4-1.579.1-1.085.6-1.579 1.4-1.579 1.2 0 1.4.69 1.4 1.58Zm0 0" style="fill-rule:nonzero;fill:#000;fill-opacity:1;stroke-width:.5;stroke-linecap:butt;stroke-linejoin:miter;stroke:#000;stroke-opacity:1;stroke-miterlimit:4.8" transform="scale(.03906 .03958)"/><path d="M548.7 276.513c-.1 1.086-.5 1.58-1.4 1.58-.9-.1-1.3-.593-1.4-1.58.1-.987.5-1.579 1.4-1.579s1.3.592 1.4 1.58Zm0 0" style="fill-rule:nonzero;fill:#000;fill-opacity:1;stroke-width:.5;stroke-linecap:butt;stroke-linejoin:miter;stroke:#000;stroke-opacity:1;stroke-miterlimit:4.8" transform="scale(.03906 .03958)"/><path d="M546.4 277.993c-.1.987-.5 1.58-1.4 1.58s-1.3-.593-1.4-1.58c.1-.986.5-1.48 1.4-1.579.9.1 1.3.593 1.4 1.58Zm0 0" style="fill-rule:nonzero;fill:#000;fill-opacity:1;stroke-width:.5;stroke-linecap:butt;stroke-linejoin:miter;stroke:#000;stroke-opacity:1;stroke-miterlimit:4.8" transform="scale(.03906 .03958)"/><path d="M548.5 279.276c-.1.987-.5 1.48-1.4 1.58-.8 0-1.3-.593-1.4-1.58.1-1.085.6-1.579 1.4-1.677.9.098 1.3.592 1.4 1.579Zm0 0" style="fill-rule:nonzero;fill:#000;fill-opacity:1;stroke-width:.5;stroke-linecap:butt;stroke-linejoin:miter;stroke:#000;stroke-opacity:1;stroke-miterlimit:4.8" transform="scale(.03906 .03958)"/><path d="M549.2 261.513s13.9-19.44 28.8.69c0 0 .1 1.975-1.3 4.244l-.3-1.776-1 .296-.2-.987-1.6-.098.5-2.171-1.7 1.381.2-1.48-2 1.974.3-4.244-2.2 3.651.3-2.467-.8 1.086-.4-1.48-.7 1.48-1-.69v.986l-1.8-1.48-.6 1.973-.9-2.17-.2 1.48-.9-1.678-.1 1.875-2.9-1.283.6 1.776-1.3-.987.2.987-1.9-.394.2 1.085-2-.395.3.987-2.7-.296 1 .987-.3.592s15-4.934 16 13.816l-2.7 1.283.8-1.48-.8-.494-2.3-1.678.7-2.368-.8.296-.1-1.48-.4.197-.9-1.283-.2.494-.6-1.678-.7 1.184-.3-2.763-1 1.776-.2-.986-.3.592-1.3-1.48-.4.986-.5-.79-.3.988-1.4-1.382v.987l-1-.69-.3.493-2.1-1.086-.1.987-1.2-.987-.3.987s13.6 7.796 9.4 20.428l-.8 1.578-.2-4.243-1.3 2.27.9-4.934-.9.986-.1-1.973-1.1 1.973-.4-2.17-.5.591-.8-3.256-.6 1.381-1-3.65-.8 1.48-.5-3.06-.5 1.875-1.5-2.763-.2 1.086-.9-2.171-.5.69s-2.5-.098-3.3-.69c-.8-.593-2.8 3.65-2.8 3.65l.2-2.565-.9 1.776v-1.776l-1.6 5.23-.4-3.75-.8 3.257-.4-.987-.3 1.283-.5-.493-.4 1.578-.8-.592v1.974l-.8-.987-.6 2.96-.4-1.183v1.282l-.6-.69-.6 2.96-1-1.283v2.171l.3 1.678-1-.493.4 2.565s-3.9-7.204.8-14.21c4.6-7.007 10.9-8.98 10.9-8.98l-.7-.593v-.592l-3.8 1.875v-1.085l-1 .79-.2-1.185-.6 1.086-.1-.494-1 1.382-.4-1.974-.6 2.368-.6-1.677-1.3 3.454V270l-1 2.763-.4-2.96-.7 3.355v-2.96l-1.2 2.96-.7-2.96-.5 2.96-.8-2.27-.7 3.454-1.2-3.06-.6 4.54-.7-1.776-.2 3.257-.8-1.974.8 4.145-1-1.58.3 2.567-1.6-2.862v3.355l-.8-1.086-.4 1.283s-.3-12.927 8.6-15.592c8.9-2.566 14.6.888 14.6.888l-3.4-2.861.4-.889h-1.2l.5-.986-2.7.098.8-.987-2 .296v-.592l-1.3.987.5-1.184-1.7 1.184-.1-1.677-1 1.381-.4-1.48-4 3.947 1-4.046-.7.888-.1-.987-1.1 1.777-.3-1.184-.5 1.48-.4-1.776-.8 1.776-1-1.58-.3 2.073-.6-1.085-.8 1.579-1-.987v.987l-2-.888.4 1.48-1.5-1.184-.4 1.973-.8-.987-.7 2.468-.6-2.369-.6 1.875s7.8-20.131 27.6-7.006c0 0 2.2 2.17 2.7 3.65.5 1.481.1.198.1.198l-.4-13.914.8 6.02.5-1.974-.1 2.96 2-4.342s-2.4 7.204-1.5 9.967c0 0 .9-8.388 3.9-9.473l-2.8 6.02.9-.1-.6 1.185h.7l-.9 2.072-.5.987.5.987Zm0 0" style="fill-rule:nonzero;fill:#00a651;fill-opacity:1;stroke-width:.5;stroke-linecap:butt;stroke-linejoin:miter;stroke:#000;stroke-opacity:1;stroke-miterlimit:4.8" transform="scale(.03906 .03958)"/><path d="m21.371 10.672.016.015s.05-.054.133.016l.011-.015c-.097-.083-.156-.016-.156-.016Zm-.023-.27v.02l.035-.016-.028.047.06-.02-.071.09.015.012.114-.144-.07.023.03-.05-.062.023.012-.075h-.02Zm0 0" style="stroke:none;fill-rule:nonzero;fill:#000;fill-opacity:1"/><path d="m21.246 10.41.024.05-.04-.015.114.207.015-.02-.023.06.02.007.046-.125-.015-.011-.04.05-.07-.125.032.012-.032-.066.043.023v-.074h-.02v.039l-.07-.043Zm-.074.254.008.02q.047-.019.078-.008.029.022.027.039l.02-.008s-.008-.035-.04-.047q-.034-.019-.093.004m.09.215-.02-.113h.024l.015.109Zm.148-.016-.027-.09.02-.003.027.082Zm.055.059-.02-.082.02-.008.023.086Zm0 0" style="stroke:none;fill-rule:nonzero;fill:#000;fill-opacity:1"/><path d="M442.6 340.164s-2.4-.986-3.5-.197c-1 .69-.9 1.974-1.8 1.875 0 0 3.6.79 4.3-.099l1-1.282m.4.69s-1.6 2.073-1 3.356c.5 1.184 1.7 1.282 1.4 2.17 0 0 1.5-3.256.8-4.243s-1-1.085-1-1.085m-2.8-5.823s-2.5.79-2.8 1.974c-.2 1.382.6 2.072-.1 2.664 0 0 3.2-1.776 3.1-2.96v-1.48m1.2.69s1.2-2.27.5-3.453c-.8-1.185-2-.987-1.8-1.974 0 0-1 3.552 0 4.44l1.1.987m-2.2-.888s0-2.664-1-3.256c-1.2-.691-2.2-.099-2.5-.987 0 0 .7 3.651 1.8 4.046l1.5.296m4.4 4.145s2.7-.987 3 2.072c.3 2.96-.2 1.974-.2 1.974s-1.4-3.257-3-3.75Zm0 0" style="fill-rule:nonzero;fill:#00a651;fill-opacity:1;stroke-width:.5;stroke-linecap:butt;stroke-linejoin:miter;stroke:#000;stroke-opacity:1;stroke-miterlimit:4.8" transform="scale(.03906 .03958)"/><path d="m17.305 13.512.008.086h.015l-.012-.086.04-.196h-.016l-.04.196Zm0 0" style="stroke:none;fill-rule:nonzero;fill:#000;fill-opacity:1"/><path d="m17.207 13.48-.004.012c.05.024.117-.039.121-.039l-.008-.012s-.066.051-.109.04m.133-.114-.235-.117.008-.02.235.118Zm0 0" style="stroke:none;fill-rule:nonzero;fill:#000;fill-opacity:1"/><path d="m17.168 13.34-.016-.016.047-.047.016.016Zm.082-.024-.05-.113.019-.008.05.114Zm.07.133v.024c.067-.004.078.043.078.043l.024-.012c0-.012-.027-.059-.102-.055" style="stroke:none;fill-rule:nonzero;fill:#000;fill-opacity:1"/><path d="M471.2 340.954c2-.987 2.4-4.934 2.4-4.934-.5 1.381-4.2 2.862-4.2 2.862 2.7-1.678 6-9.375 6-9.375-.8 2.664-8 5.032-12.6 7.598s-2.2 9.967-2.2 9.967c-1.3-.888-3.8-4.736-4.3-8.29-.5-3.453-1.8-4.835-5-5.328-3.1-.395-5 3.257-5 3.257l-4.7 2.368 4.8.197s3.4 1.086 3.4 3.849c0 2.664-3 13.322 2 19.243 3.3 4.145 16 6.514 16 6.514" style="fill-rule:nonzero;fill:#fff;fill-opacity:1;stroke-width:.7;stroke-linecap:butt;stroke-linejoin:miter;stroke:#000;stroke-opacity:1;stroke-miterlimit:4.8" transform="scale(.03906 .03958)"/><path d="M461.9 349.342s1-4.835 4.1-4.638 4-3.651 5.9-4.145c1.9-.592 11.5-3.158 12.5-7.796 0 0-.9 7.599-9.7 11.448 0 0 7.1-2.27 8-3.948 0 0-3.2 6.81-10.9 7.895 0 0 7.2-.592 8.2-2.467 0 0-3.2 4.243-8.5 4.835 0 0 5 1.974 6.2.296 0 0-2.7 3.158-6 3.356l1 .197s-3.2 3.849-6.7 1.283c-3.5-2.467-3.6.69-3.6.69" style="fill-rule:nonzero;fill:#fff;fill-opacity:1;stroke-width:.7;stroke-linecap:butt;stroke-linejoin:miter;stroke:#000;stroke-opacity:1;stroke-miterlimit:4.8" transform="scale(.03906 .03958)"/><path d="M469 356.546s4.1 6.71 4.5 10.362c0 0 7.8 8.487 10.7 8.98 0 0-1.4.592-4-1.48 0 0 2.2 2.17 2.6 2.27.4.098-1.7-.198-2-.79l1.4 1.48-.5-.197s-1-.099-1.6-.493c-.5-.395-.1.986-.1.986s-1.2-.296-1.6-.69c-.4-.395.1.888.1.888l-1-.296-.8.493s0 .494-.5 0c-.5-.296-1.4 0-1.4 0s-.6.592-1 .198c-.3-.395-1.5 1.677-1.5 1.677l-5-12.335" style="fill-rule:nonzero;fill:#fff;fill-opacity:1;stroke-width:.7;stroke-linecap:butt;stroke-linejoin:miter;stroke:#000;stroke-opacity:1;stroke-miterlimit:4.8" transform="scale(.03906 .03958)"/><path d="m18.512 14.988-.25-.48.023-.016.25.485Zm.218-.031-.43-.484.024-.02.43.485Zm.098-.039-.488-.469.02-.02.488.462ZM17.598 13.355s-.032-.058-.059-.035q-.035.03-.047.024s.028 0 .047-.012q.023-.03.059.023m-.168-.027.015.035-.02.063.016.004.02-.067-.02-.039Zm0 0" style="stroke:none;fill-rule:nonzero;fill:#000;fill-opacity:1"/><path d="M17.594 13.348s-.028.027-.055.02l-.035-.009h.047c.015 0 .039-.007.043-.011" style="stroke:none;fill-rule:nonzero;fill:#000;fill-opacity:1"/><path d="M17.586 13.352s-.031-.032-.05-.02c0 0 .034-.016.054.016Zm0 0" style="stroke:none;fill-rule:nonzero;fill:#000;fill-opacity:1"/><path d="M17.582 13.348s-.035.023-.07 0l-.004-.008h.008s.043.02.066.008" style="stroke:none;fill-rule:nonzero;fill:#000;fill-opacity:1"/><path d="M17.563 13.34q0-.007-.012-.008a.01.01 0 0 0-.008.008q.001.012.008.012.012 0 .012-.012M17.578 14.234s-.027.047-.012.079c.012.027.079.039.082.078.004.043.032.043.059.043l.035-.012s-.12-.067-.156-.172Zm0 0" style="stroke:none;fill-rule:nonzero;fill:#000;fill-opacity:1"/><path d="M549.4 334.836s5.6-7.402 10.6-5.527 8.1 2.96 8.1 2.96.1 4.935-2.5 4.935-5.2-5.033-7.6-3.553c-1.8 1.086-3.4 2.467-4.5 4.244-.1.69-6.3.79-4.1-3.06Zm0 0" style="fill-rule:nonzero;fill:#964b36;fill-opacity:1;stroke-width:.3;stroke-linecap:butt;stroke-linejoin:miter;stroke:#000;stroke-opacity:1;stroke-miterlimit:4.8" transform="scale(.03906 .03958)"/><path d="M528.2 370.362s-1.6 1.677-.9 2.072 2.1 0 2.1-.592c0-.69-1-1.678-1.2-1.48Zm0 0" style="fill-rule:nonzero;fill:#964b36;fill-opacity:1;stroke-width:.5;stroke-linecap:butt;stroke-linejoin:miter;stroke:#000;stroke-opacity:1;stroke-miterlimit:4.8" transform="scale(.03906 .03958)"/><path d="M527 372.04s-3-1.777-5.2 2.17c-2.3 3.75-4.1 10.066-5.4 10.954-1.3.79 12.8-6.118 13-9.177 0 0 .9-3.75-.6-3.651-1.5.098-1.6.197-1.9-.395Zm0 0" style="fill-rule:nonzero;fill:#964b36;fill-opacity:1;stroke-width:.5;stroke-linecap:butt;stroke-linejoin:miter;stroke:#000;stroke-opacity:1;stroke-miterlimit:4.8" transform="scale(.03906 .03958)"/><path d="M527.3 372.434s-3 .691-3.6 4.836c-.6 4.243-4.7 6.316-5 6.513m49.4-51.612s-4.4 1.678-3.7 4.737" style="fill-rule:nonzero;fill:#964b36;fill-opacity:1;stroke-width:.3;stroke-linecap:butt;stroke-linejoin:miter;stroke:#000;stroke-opacity:1;stroke-miterlimit:4.8" transform="scale(.03906 .03958)"/><path d="M533.7 341.349s.2-10.658 8.9-10.263c1.6.197.8 2.072.8 2.072s2-1.283 2.8.888c0 0 2.7-1.283 3 1.48 0 0 3-.394 2.6 1.974 0 0 2-.493 2 1.184 0 0 2.3-.888 2 1.48 0 0 2.6-1.677 2.3 1.48 0 0 2.6-1.973 3.5 1.185 1 3.158-2.6 9.77-6.1 11.447" style="fill-rule:nonzero;fill:#fff200;fill-opacity:1;stroke-width:.3;stroke-linecap:butt;stroke-linejoin:miter;stroke:#000;stroke-opacity:1;stroke-miterlimit:4.8" transform="scale(.03906 .03958)"/><path d="M21.793 13.54s.043.323-.137.444l.004.008c.192-.117.145-.453.145-.457h-.012Zm-.223.355.008.007c.117-.117.145-.422.145-.437h-.012s-.027.316-.14.43m-.106-.075h.012q.036-.222.16-.41l-.008-.004s-.149.219-.164.414m-.086-.058h.012c.02-.223.172-.395.172-.399l-.008-.008s-.157.18-.176.407m-.117-.078h.011c.012-.266.188-.395.188-.395l-.008-.012s-.18.133-.195.41Zm-.11-.063h.012a.5.5 0 0 1 .18-.394l-.008-.008s-.195.148-.184.402m-.195-.09h.012a.4.4 0 0 1 .265-.336v-.011a.43.43 0 0 0-.277.347" style="stroke:none;fill-rule:nonzero;fill:#000;fill-opacity:1"/><path d="M528.6 354.178s-1.5-9.869 4.4-13.027c0 0 1.1-.197 1.7 1.283 0 0 3.1-1.381 3.2 1.283 0 0 1.6-1.184 2 .494 0 0 3.3-.691 2.7 1.776 0 0 2.8-.79 2.5 1.579 0 0 2.8-.987 2.4.987 0 0 3-.592 2.2 1.875 0 0 3.7-.395 2.6 2.072 0 0 2.7-.69 2 1.382 0 0 3.6.69 2 3.059-2.6 3.059-6 5.526-9.8 7.006" style="fill-rule:nonzero;fill:#00a651;fill-opacity:1;stroke-width:.3;stroke-linecap:butt;stroke-linejoin:miter;stroke:#000;stroke-opacity:1;stroke-miterlimit:4.8" transform="scale(.03906 .03958)"/><path d="M525.4 364.145s-2.4-8.29 2.2-10.362c0 0 .9-.197 1 .592 0 0 1-1.283 1.8-.099 0 0 2.3-1.085 2.9.592 0 0 1.5-1.282 2.3.593 0 0 1.5-.593 1.5 1.085 0 0 2-1.085 2 .987 0 0 2-.79 1.5 1.184 0 0 3 .494 2.1 1.875 0 0 2.7.69 1.7 1.776 0 0 2.8-.296 1.3 1.678 0 0 2.2-.79 1 1.678-1.2 2.368-5.2 4.934-8 5.329" style="fill-rule:nonzero;fill:#00a651;fill-opacity:1;stroke-width:.3;stroke-linecap:butt;stroke-linejoin:miter;stroke:#000;stroke-opacity:1;stroke-miterlimit:4.8" transform="scale(.03906 .03958)"/><path d="M528.3 370.56s-5.1-4.935-2.7-6.317c0 0 1 .296 1.5 1.382 0 0 1.2-1.776 2 0 0 0 1.8-.592 1.8.69l1.4.988s1.7-.1 1.4.986c0 0 1.9-.296 1.8.691 0 0 1.6.099 1.5 1.184 0 0 2.8.494 1.5 1.974 0 0-4.8.987-8.3-.395 0 0-1.7-.69-1.9-1.184Zm0 0" style="fill-rule:nonzero;fill:#00a651;fill-opacity:1;stroke-width:.3;stroke-linecap:butt;stroke-linejoin:miter;stroke:#000;stroke-opacity:1;stroke-miterlimit:4.8" transform="scale(.03906 .03958)"/><path d="M21.324 14.344v.011c.13-.093.246-.21.336-.343l-.012-.008c0 .004-.21.297-.324.34m-.07-.051.008.012c.101-.059.308-.336.312-.348l-.004-.008c-.004.004-.215.285-.312.344Zm-.059-.023.008.007a2 2 0 0 0 .274-.406l-.008-.004s-.164.313-.274.403m-.05-.07h.011c.02-.153.235-.391.235-.4l-.012-.003c-.008.012-.215.246-.234.402m-.426-.187h.011c-.015-.219.16-.453.165-.453l-.012-.008s-.184.242-.164.46m.113.02h.012c-.032-.172.172-.418.172-.422l-.008-.007c-.008.011-.207.253-.176.43m.172.062h.012c-.008-.196.18-.395.183-.395l-.008-.011c0 .003-.195.207-.187.406m-.41.36h.011c-.07-.188.047-.423.051-.423l-.011-.008s-.122.243-.051.434Zm.078.015.012-.004c-.063-.188.039-.438.039-.438l-.008-.007s-.106.257-.043.449m.324.183v.008c.195-.066.324-.246.324-.246l-.011-.008s-.125.176-.313.246m-.039-.043v.012c.156-.07.3-.27.3-.27l-.007-.007s-.145.199-.293.265m-.039-.015.008.011c.117-.09.273-.316.273-.316l-.008-.008s-.156.227-.273.313m-.195-.114h.015a.83.83 0 0 1 .098-.433l-.012-.004s-.125.238-.097.437Zm.086.055.007.008c.125-.113.168-.418.168-.434h-.011s-.04.317-.164.426m.086.031.007.012a.7.7 0 0 0 .223-.375h-.012s-.047.238-.218.367Zm.02-.53v.034l-.134.438.012.004.133-.438c-.02-.21.164-.445.168-.445l-.012-.008s-.168.211-.168.414" style="stroke:none;fill-rule:nonzero;fill:#000;fill-opacity:1"/><path d="M21.055 14.145c0 .007-.043.304-.203.414l.007.011c.164-.113.203-.406.203-.422a4 4 0 0 0 .235-.386l-.008-.008s-.164.3-.234.39m-.47.329c0 .004.024.156.056.203l.011-.004a.9.9 0 0 1-.058-.203l-.012.004Zm.075 0-.004.207h.012v-.207Zm0 0" style="stroke:none;fill-rule:nonzero;fill:#000;fill-opacity:1"/><path d="m20.664 14.684.012.004c.05-.11.066-.188.066-.188h-.012s-.015.074-.066.184m.012.004.008.015a.28.28 0 0 0 .117-.16h-.012s-.023.094-.113.145m.02.011v.012c.093-.008.156-.125.156-.133h-.008s-.063.11-.149.121" style="stroke:none;fill-rule:nonzero;fill:#000;fill-opacity:1"/><path d="M20.703 14.707v.012c.152-.012.219-.106.219-.11l-.008-.004s-.066.086-.21.102" style="stroke:none;fill-rule:nonzero;fill:#000;fill-opacity:1"/><path d="M20.715 14.707v.012c.004 0 .195.043.262-.059l-.012-.008c-.059.098-.25.059-.25.055" style="stroke:none;fill-rule:nonzero;fill:#000;fill-opacity:1"/><path d="M420.9 193.224v136.381c0 44.606 80.6 70.954 80.6 70.954s80.5-26.348 80.5-70.954V193.224Zm0 0" style="fill:none;stroke-width:2.8;stroke-linecap:butt;stroke-linejoin:miter;stroke:#000;stroke-opacity:1;stroke-miterlimit:4.8" transform="scale(.03906 .03958)"/><path d="M0 0h12.5v9.5H0Zm0 0" style="stroke:none;fill-rule:nonzero;fill:#012169;fill-opacity:1"/><path d="M1.465 0 6.23 3.582 10.977 0H12.5v1.227L7.813 4.77 12.5 8.293V9.5h-1.562L6.25 5.957 1.582 9.5H0V8.313l4.668-3.524L0 1.266V0Zm0 0" style="stroke:none;fill-rule:nonzero;fill:#fff;fill-opacity:1"/><path d="M8.281 5.563 12.5 8.707V9.5L7.207 5.563Zm-3.594.394.118.691L1.055 9.5H0ZM12.5 0v.059L7.637 3.78l.039-.87L11.523 0ZM0 0l4.668 3.484H3.496L0 .832Zm0 0" style="stroke:none;fill-rule:nonzero;fill:#c8102e;fill-opacity:1"/><path d="M4.707 0v9.5h3.125V0ZM0 3.168v3.164h12.5V3.168Zm0 0" style="stroke:none;fill-rule:nonzero;fill:#fff;fill-opacity:1"/><path d="M0 3.82V5.72h12.5V3.82ZM5.332 0v9.5h1.875V0Zm0 0" style="stroke:none;fill-rule:nonzero;fill:#c8102e;fill-opacity:1"/></svg>