<?xml version="1.0" encoding="UTF-8"?>
<svg xmlns="http://www.w3.org/2000/svg" xmlns:xlink="http://www.w3.org/1999/xlink" width="25px" height="19px" viewBox="0 0 25 19" version="1.1">
<g id="surface1">
<rect x="0" y="0" width="25" height="19" style="fill:rgb(40.784314%,74.901962%,89.803922%);fill-opacity:1;stroke:none;"/>
<path style=" stroke:none;fill-rule:nonzero;fill:rgb(100%,100%,100%);fill-opacity:1;" d="M 16.441406 7.648438 L 16.441406 13.046875 C 16.441406 14.8125 19.589844 15.855469 19.589844 15.855469 C 19.589844 15.855469 22.734375 14.8125 22.734375 13.046875 L 22.734375 7.648438 Z M 16.441406 7.648438 "/>
<path style=" stroke:none;fill-rule:nonzero;fill:rgb(82.352942%,6.27451%,20.392157%);fill-opacity:1;" d="M 19.152344 9.546875 L 19.152344 11.976562 L 16.441406 11.976562 L 16.441406 12.859375 L 19.152344 12.859375 L 19.152344 15.691406 L 19.589844 15.859375 L 20.023438 15.691406 L 20.023438 12.863281 L 22.734375 12.863281 L 22.734375 11.976562 L 20.023438 11.976562 L 20.023438 9.546875 Z M 19.152344 9.546875 "/>
<path style=" stroke:none;fill-rule:nonzero;fill:rgb(82.352942%,6.27451%,20.392157%);fill-opacity:1;" d="M 16.441406 7.648438 L 22.734375 7.648438 L 22.734375 9.738281 L 16.4375 9.738281 Z M 16.441406 7.648438 "/>
<path style="fill-rule:nonzero;fill:rgb(100%,100%,100%);fill-opacity:1;stroke-width:0.8;stroke-linecap:butt;stroke-linejoin:miter;stroke:rgb(0%,0%,0%);stroke-opacity:1;stroke-miterlimit:3;" d="M 811.749832 192.214979 C 811.749832 186.129408 805.733528 181.231266 798.213148 181.231266 C 790.692768 181.231266 784.526056 186.129408 784.526056 192.214979 C 784.526056 198.300549 790.692768 203.198692 798.213148 203.198692 C 805.733528 203.198692 811.749832 198.300549 811.749832 192.214979 Z M 811.749832 192.214979 " transform="matrix(0.0259711,0,0,0.0263174,-3.785156,3.859375)"/>
<path style="fill-rule:nonzero;fill:rgb(100%,100%,100%);fill-opacity:1;stroke-width:0.8;stroke-linecap:butt;stroke-linejoin:miter;stroke:rgb(0%,0%,0%);stroke-opacity:1;stroke-miterlimit:3;" d="M 810.245756 186.426265 C 810.245756 183.160837 804.831082 180.340694 798.213148 180.340694 C 791.444806 180.340694 786.030132 183.160837 786.030132 186.426265 C 786.030132 189.840122 791.444806 192.660264 798.213148 192.660264 C 804.831082 192.660264 810.245756 189.840122 810.245756 186.426265 Z M 810.245756 186.426265 " transform="matrix(0.0259711,0,0,0.0263174,-3.785156,3.859375)"/>
<path style="fill-rule:nonzero;fill:rgb(100%,100%,100%);fill-opacity:1;stroke-width:0.8;stroke-linecap:butt;stroke-linejoin:miter;stroke:rgb(0%,0%,0%);stroke-opacity:1;stroke-miterlimit:3;" d="M 810.245756 198.745835 C 810.245756 195.480407 804.831082 192.660264 798.213148 192.660264 C 791.444806 192.660264 786.030132 195.480407 786.030132 198.745835 C 786.030132 202.159692 791.444806 204.831406 798.213148 204.831406 C 804.831082 204.831406 810.245756 202.159692 810.245756 198.745835 Z M 810.245756 198.745835 " transform="matrix(0.0259711,0,0,0.0263174,-3.785156,3.859375)"/>
<path style="fill-rule:nonzero;fill:rgb(100%,100%,100%);fill-opacity:1;stroke-width:0.8;stroke-linecap:butt;stroke-linejoin:miter;stroke:rgb(0%,0%,0%);stroke-opacity:1;stroke-miterlimit:3;" d="M 810.245756 192.214979 C 810.245756 188.801122 804.831082 186.129408 798.213148 186.129408 C 791.444806 186.129408 786.030132 188.801122 786.030132 192.214979 C 786.030132 195.628835 791.444806 198.300549 798.213148 198.300549 C 804.831082 198.300549 810.245756 195.628835 810.245756 192.214979 Z M 810.245756 192.214979 " transform="matrix(0.0259711,0,0,0.0263174,-3.785156,3.859375)"/>
<path style="fill-rule:nonzero;fill:rgb(100%,81.960785%,0%);fill-opacity:1;stroke-width:0.8;stroke-linecap:butt;stroke-linejoin:miter;stroke:rgb(0%,0%,0%);stroke-opacity:1;stroke-miterlimit:3;" d="M 578 235.361842 L 576.7 231.809211 C 576.7 231.809211 573.1 230.328947 572.8 228.355263 C 572.2 223.322368 570.4 221.447368 567.6 220.559211 C 566.1 220.164474 564.5 220.361842 563.1 221.052632 C 562.3 222.335526 558.1 222.335526 555.9 222.434211 C 553.6 222.434211 553.5 221.447368 553.5 221.447368 C 551.8 221.447368 551 220.065789 551 220.065789 C 549.9 217.796053 549 216.907895 548.4 216.611842 C 551.4 216.611842 553.6 215.328947 557 211.776316 C 560.6 208.026316 563.2 209.407895 563.2 209.407895 C 561.4 212.960526 563.8 212.664474 563.8 212.664474 C 568.6 210.197368 564.4 203.980263 563 204.276316 C 561.5 204.572368 561.1 203.585526 561.1 203.585526 C 561.1 204.671053 559.5 205.164474 559.5 205.164474 C 560.7 198.059211 556.5 196.184211 556.5 196.184211 C 555.9 196.776316 555.5 198.059211 555.5 198.059211 C 554.3 202.401316 550.4 201.710526 546 199.638158 C 541.6 197.565789 530 201.809211 526.3 203.289474 C 522.6 204.769737 515.9 207.039474 509.9 203.684211 C 503.9 200.427632 502.4 200.921053 500 201.611842 C 497.7 202.203947 493.5 203.190789 492 202.401316 C 490.9 201.907895 489.8 201.611842 488.6 201.513158 C 489 201.315789 488.4 200.328947 488.4 200.328947 C 486.5 197.763158 488.6 196.282895 488.6 196.282895 C 488.6 196.282895 485.2 197.269737 486.6 203.092105 L 487.2 203.881579 C 487.2 203.881579 487.6 205.756579 488.6 206.348684 L 488.6 206.743421 C 488.6 206.743421 489.5 206.348684 489.7 207.532895 C 489.9 208.717105 491.3 207.532895 491.8 206.546053 C 491.8 206.546053 490.9 211.875 497.5 213.157895 C 497.5 213.157895 496.8 212.269737 497 211.776316 C 497.3 211.184211 496.2 210.789474 496.3 210 C 496.4 209.210526 494.7 208.815789 496 208.125 C 497.3 207.434211 498 206.151316 501 208.026316 C 503.9 209.703947 506.2 209.309211 506.2 209.309211 C 506.2 209.309211 504.4 205.657895 505.4 205.657895 C 506.4 205.657895 510.8 211.085526 512.9 210.888158 C 515.1 210.592105 519.3 208.125 521.4 209.013158 C 521.4 209.013158 521.6 208.026316 529.6 206.644737 C 537.6 205.164474 547.6 201.217105 551.3 204.671053 C 551.3 204.671053 551.7 207.532895 553.3 208.223684 C 553.3 208.223684 553 214.046053 543.1 210.789474 L 539.5 209.802632 C 539.5 209.802632 538.9 208.125 520 212.960526 C 520 212.960526 518.9 213.355263 518.1 213.947368 C 517.3 214.440789 516.4 213.552632 512.6 214.934211 C 508.9 216.414474 494.9 220.855263 486.3 219.276316 C 484.4 218.684211 482.7 218.980263 482.6 218.684211 C 482.6 218.388158 483.6 218.782895 483.6 218.782895 C 483 218.092105 482.7 217.894737 482.7 217.993421 C 475.5 217.203947 476.7 214.046053 476.7 214.046053 L 477.1 215.032895 C 478.3 213.355263 476.7 209.802632 476.7 209.802632 L 476.6 209.802632 L 476.6 209.506579 L 477.1 209.111842 C 480.6 206.052632 484.6 205.559211 484.6 205.559211 C 482.2 202.598684 477.2 204.177632 477.2 204.177632 C 477.3 200.723684 475.8 196.480263 475.8 196.480263 C 472.7 196.973684 470 198.651316 468.1 201.217105 C 467.9 197.467105 463.2 195.394737 463.2 195.394737 C 465 197.467105 463.9 202.598684 463.9 202.598684 L 464.1 202.598684 L 463.6 202.598684 L 463.5 203.684211 L 463.3 203.684211 C 463.3 203.684211 461.6 204.276316 459.6 208.914474 C 459.6 208.914474 459.4 209.901316 458.6 210.888158 L 458.6 210.493421 C 458.6 210.493421 456.3 213.453947 451.2 210.493421 C 451.2 210.493421 444.2 206.447368 441.6 206.546053 C 439.2 206.743421 437.6 207.828947 437.7 208.519737 C 437.7 208.519737 432 208.125 430.1 211.282895 C 430.1 211.282895 425.8 212.861842 429.5 216.315789 C 429.5 216.315789 430 217.894737 431 218.684211 C 431 218.684211 430.9 215.526316 431.7 216.414474 L 432.2 217.006579 C 432.3 217.401316 432.7 218.585526 433.4 219.276316 L 434 219.078947 C 434 218.289474 434.2 217.302632 434.4 216.907895 L 434.6 216.907895 L 435.6 218.486842 L 436.6 217.894737 C 437.2 217.894737 437.9 218.388158 437.9 218.388158 L 439.2 217.302632 C 440.5 217.5 440.9 214.934211 440.9 214.934211 C 442 215.131579 443.1 214.934211 444 214.440789 C 444.6 216.414474 449.2 218.684211 449.2 218.684211 L 449.4 218.684211 L 448.8 219.078947 C 450.9 220.559211 454.8 220.164474 454.8 220.164474 C 453.2 220.756579 453.4 223.914474 453.4 223.914474 C 452.4 224.309211 452.4 225.197368 452.4 225.197368 C 455.6 226.480263 457.7 225.394737 457.7 225.394737 C 457.8 226.381579 457.8 226.776316 457.7 226.578947 C 456.4 229.342105 455.8 232.006579 455.8 232.006579 L 455.9 232.006579 L 455.9 232.203947 C 455.9 232.203947 450.2 234.177632 447.8 236.940789 C 447.8 236.940789 447.5 236.052632 446.8 236.052632 C 446.1 236.052632 444 234.276316 443 233.980263 C 442 233.684211 440.5 234.276316 440 233.782895 C 439.7 233.388158 439.9 230.230263 439.2 229.835526 L 438.5 227.763158 C 438.1 228.848684 436.1 228.552632 436.1 228.552632 L 435.3 229.243421 L 434.5 229.144737 C 434.3 229.144737 434.1 229.539474 434 230.131579 L 433.7 230.427632 L 433.7 229.835526 C 433.4 230.131579 432.6 229.736842 432.3 229.736842 C 432.1 229.736842 431.9 230.032895 431.8 230.625 L 429.9 230.723684 C 429.6 230.921053 429.9 233.289474 429.9 233.289474 C 427.6 234.473684 428.7 236.447368 428.7 236.447368 C 429.9 242.368421 440.2 239.703947 441 240.493421 C 441.8 241.282895 443.6 241.480263 444.5 241.480263 C 445.5 241.480263 446.6 243.651316 447.9 243.947368 C 449.2 244.144737 447.9 242.072368 454 240.690789 C 460.1 239.309211 462.2 236.743421 462.2 236.743421 C 464.1 236.348684 464.6 233.980263 464.7 233.092105 L 464.9 234.473684 C 465.2 236.644737 463.7 237.532895 463.7 237.532895 L 469 235.756579 C 471.1 235.263158 470.8 233.388158 470.8 233.388158 C 472.8 239.210526 476.5 239.605263 476.5 239.605263 C 477.2 237.434211 477.1 236.743421 477.1 236.743421 L 478.8 236.743421 C 478.8 235.361842 477.8 234.473684 477.1 234.078947 L 479.7 235.559211 L 480.7 235.460526 C 480.7 236.447368 482 237.236842 482 237.236842 L 482.2 235.953947 C 483.4 237.631579 485.6 237.039474 485.6 237.039474 L 485.4 236.151316 C 490.1 239.111842 497.6 235.361842 497.6 235.361842 C 499.6 235.756579 499.9 234.572368 499.9 234.572368 C 502.1 234.868421 502.7 233.289474 502.7 233.289474 C 508 232.894737 511.8 229.144737 511.8 229.144737 C 514.5 228.947368 514.6 226.973684 514.6 226.973684 C 514.6 226.973684 517.2 227.467105 519.8 224.309211 C 525.8 215.822368 534.6 220.263158 534.6 220.263158 L 529.5 220.559211 C 516 220.460526 521.6 229.638158 521.6 229.638158 L 522.4 229.638158 C 523.7 229.835526 528.1 233.289474 526.4 235.756579 L 526.4 235.953947 C 523.6 239.703947 518.6 236.151316 517.1 232.993421 C 515.7 229.835526 512.7 230.526316 512.7 230.526316 C 512.7 230.526316 505.2 231.809211 508.3 237.828947 C 508.4 239.309211 509.3 240.986842 512.1 242.565789 C 513.6 244.835526 518.6 245.032895 522.2 244.243421 C 524 244.046053 533 240 533 240 C 533.7 238.026316 536 238.519737 538 235.559211 C 540 232.796053 535.1 231.809211 534 230.230263 C 533 228.651316 534.3 229.046053 534.3 229.046053 C 538.7 231.315789 539.1 223.815789 539.1 223.815789 C 539.5 226.282895 541.1 228.355263 543.4 229.342105 C 545.7 226.973684 544 222.138158 544 222.138158 C 549.7 232.302632 553.1 230.625 553.1 230.625 C 550.1 228.848684 551.6 226.184211 551.6 226.184211 C 554.3 237.039474 565.6 227.565789 565.6 227.565789 C 565 229.243421 565.6 230.131579 566.6 231.118421 C 567.6 232.105263 568.8 232.5 568.2 234.375 C 567.7 236.151316 562.4 235.756579 562.4 235.756579 C 562.4 235.756579 557.4 235.559211 557.8 239.802632 C 558.1 240.789474 561.4 241.184211 562.8 240.888158 C 562.8 240.888158 562.2 241.085526 564.1 241.282895 L 566.3 241.282895 C 568.4 241.282895 570.8 240.888158 570.8 240.888158 C 573.7 240.296053 573.2 239.309211 573.2 239.309211 C 577.7 238.519737 578.2 235.460526 578.2 235.460526 Z M 578 235.361842 " transform="matrix(0.0390625,0,0,0.0395833,0,0)"/>
<path style=" stroke:none;fill-rule:nonzero;fill:rgb(0%,0%,0%);fill-opacity:1;" d="M 16.78125 8.578125 C 16.78125 8.578125 16.792969 8.558594 16.808594 8.554688 C 16.824219 8.554688 16.839844 8.566406 16.855469 8.585938 L 16.867188 8.578125 C 16.867188 8.578125 16.820312 8.507812 16.835938 8.457031 C 16.847656 8.433594 16.867188 8.417969 16.898438 8.414062 L 16.898438 8.402344 C 16.859375 8.410156 16.835938 8.429688 16.828125 8.453125 L 16.820312 8.484375 C 16.820312 8.507812 16.828125 8.53125 16.839844 8.550781 L 16.808594 8.542969 C 16.792969 8.542969 16.78125 8.554688 16.777344 8.566406 Z M 22.289062 9.527344 C 22.171875 9.546875 21.996094 9.554688 21.980469 9.519531 C 21.980469 9.511719 21.980469 9.488281 22.074219 9.425781 L 22.066406 9.40625 C 21.984375 9.457031 21.949219 9.496094 21.960938 9.523438 C 21.988281 9.59375 22.242188 9.554688 22.292969 9.546875 Z M 20.007812 9.59375 C 19.980469 9.554688 19.996094 9.496094 20.046875 9.425781 L 20.027344 9.414062 C 19.976562 9.492188 19.960938 9.558594 19.988281 9.609375 Z M 20.007812 9.59375 "/>
<path style=" stroke:none;fill-rule:nonzero;fill:rgb(0%,0%,0%);fill-opacity:1;" d="M 19.847656 9.414062 C 19.847656 9.488281 19.898438 9.558594 20 9.613281 L 20.011719 9.59375 C 19.917969 9.535156 19.871094 9.476562 19.871094 9.414062 C 19.863281 9.3125 19.96875 9.234375 19.972656 9.234375 L 19.960938 9.21875 C 19.953125 9.21875 19.84375 9.300781 19.847656 9.417969 Z M 21.878906 9.441406 C 21.847656 9.492188 21.859375 9.550781 21.859375 9.550781 L 21.878906 9.550781 C 21.878906 9.546875 21.871094 9.496094 21.898438 9.453125 C 21.917969 9.425781 21.945312 9.410156 21.976562 9.40625 L 21.976562 9.386719 C 21.933594 9.394531 21.902344 9.410156 21.882812 9.441406 Z M 17.226562 8.515625 L 17.21875 8.515625 L 17.21875 8.523438 C 17.21875 8.523438 17.210938 8.585938 17.179688 8.601562 L 17.15625 8.601562 L 17.105469 8.574219 C 17.101562 8.566406 17.089844 8.5625 17.074219 8.566406 C 17.0625 8.550781 17.058594 8.53125 17.058594 8.511719 C 17.0625 8.484375 17.082031 8.457031 17.121094 8.429688 L 17.113281 8.417969 C 17.074219 8.445312 17.050781 8.476562 17.046875 8.511719 C 17.046875 8.550781 17.066406 8.574219 17.066406 8.574219 L 17.066406 8.578125 L 17.074219 8.578125 C 17.082031 8.574219 17.089844 8.578125 17.097656 8.585938 L 17.152344 8.617188 L 17.191406 8.617188 C 17.21875 8.597656 17.230469 8.542969 17.230469 8.53125 C 17.355469 8.558594 17.457031 8.398438 17.464844 8.394531 L 17.453125 8.386719 C 17.453125 8.386719 17.347656 8.546875 17.226562 8.515625 "/>
<path style=" stroke:none;fill-rule:nonzero;fill:rgb(0%,0%,0%);fill-opacity:1;" d="M 16.917969 8.492188 C 16.914062 8.519531 16.917969 8.546875 16.933594 8.570312 C 16.945312 8.589844 16.960938 8.601562 16.972656 8.605469 C 16.992188 8.605469 17.007812 8.597656 17.019531 8.582031 C 17.027344 8.574219 17.035156 8.570312 17.042969 8.566406 L 17.054688 8.574219 L 17.0625 8.566406 L 17.042969 8.554688 C 17.03125 8.554688 17.019531 8.5625 17.011719 8.574219 C 17.003906 8.585938 16.992188 8.59375 16.972656 8.59375 C 16.964844 8.59375 16.953125 8.582031 16.941406 8.5625 C 16.925781 8.542969 16.921875 8.519531 16.929688 8.496094 C 16.945312 8.4375 17.011719 8.394531 17.011719 8.394531 L 17.007812 8.382812 C 17.003906 8.382812 16.933594 8.429688 16.917969 8.492188 M 16.746094 9.308594 C 16.75 9.289062 16.769531 9.269531 16.796875 9.253906 C 16.789062 9.253906 16.820312 9.277344 16.847656 9.277344 L 16.867188 9.265625 C 16.875 9.273438 16.921875 9.316406 16.921875 9.375 C 16.921875 9.386719 16.917969 9.398438 16.914062 9.410156 L 16.925781 9.414062 C 16.960938 9.328125 16.871094 9.253906 16.871094 9.253906 L 16.863281 9.253906 L 16.847656 9.265625 C 16.824219 9.265625 16.796875 9.242188 16.796875 9.242188 C 16.761719 9.257812 16.738281 9.28125 16.734375 9.304688 Z M 17.148438 9.097656 C 17.121094 9.101562 17.050781 9.113281 17.027344 9.152344 C 17.015625 9.167969 17.015625 9.183594 17.023438 9.199219 L 17.03125 9.222656 C 17.054688 9.285156 17.078125 9.347656 17.105469 9.367188 L 17.109375 9.355469 C 17.085938 9.339844 17.0625 9.273438 17.042969 9.21875 L 17.035156 9.195312 C 17.027344 9.183594 17.027344 9.167969 17.035156 9.15625 C 17.054688 9.128906 17.121094 9.117188 17.152344 9.113281 C 17.167969 9.113281 17.171875 9.171875 17.175781 9.207031 L 17.1875 9.207031 C 17.183594 9.152344 17.175781 9.097656 17.148438 9.097656 "/>
<path style=" stroke:none;fill-rule:nonzero;fill:rgb(0%,0%,0%);fill-opacity:1;" d="M 16.949219 9.160156 C 16.9375 9.175781 16.933594 9.1875 16.9375 9.195312 C 16.9375 9.199219 16.945312 9.355469 17.015625 9.386719 L 17.019531 9.375 C 16.957031 9.34375 16.949219 9.195312 16.949219 9.191406 C 16.949219 9.1875 16.953125 9.179688 16.957031 9.167969 C 16.96875 9.15625 16.988281 9.15625 17.019531 9.167969 L 17.023438 9.15625 C 16.988281 9.144531 16.964844 9.144531 16.949219 9.15625 Z M 16.949219 9.160156 "/>
<path style=" stroke:none;fill-rule:nonzero;fill:rgb(0%,0%,0%);fill-opacity:1;" d="M 16.890625 9.171875 C 16.859375 9.195312 16.863281 9.257812 16.863281 9.261719 L 16.875 9.261719 C 16.875 9.261719 16.875 9.199219 16.898438 9.183594 C 16.910156 9.175781 16.921875 9.175781 16.9375 9.183594 L 16.941406 9.167969 C 16.921875 9.160156 16.902344 9.160156 16.890625 9.167969 Z M 16.890625 9.171875 "/>
<path style=" stroke:none;fill-rule:nonzero;fill:rgb(0%,0%,0%);fill-opacity:1;" d="M 18.609375 8.320312 C 18.609375 8.320312 18.644531 8.398438 18.644531 8.460938 C 18.644531 8.46875 18.640625 8.480469 18.636719 8.484375 L 18.621094 8.453125 L 18.613281 8.476562 C 18.613281 8.476562 18.597656 8.515625 18.621094 8.554688 C 18.652344 8.605469 18.730469 8.640625 18.855469 8.652344 L 18.855469 8.65625 L 18.847656 8.65625 L 18.839844 8.664062 L 18.839844 8.671875 C 18.84375 8.683594 18.859375 8.6875 18.886719 8.6875 L 18.90625 8.6875 L 18.921875 8.695312 L 18.917969 8.691406 C 18.945312 8.691406 18.976562 8.699219 19.011719 8.710938 L 18.984375 8.71875 L 19.015625 8.730469 C 19.015625 8.730469 19.242188 8.824219 19.332031 8.898438 C 19.304688 8.921875 19.195312 9 19 8.953125 L 18.972656 8.945312 L 18.992188 8.972656 C 18.992188 8.972656 19.117188 9.121094 19.144531 9.210938 C 19.101562 9.210938 18.933594 9.210938 18.871094 9.15625 L 18.859375 9.171875 C 18.859375 9.171875 18.9375 9.292969 18.957031 9.382812 C 18.933594 9.386719 18.878906 9.390625 18.847656 9.347656 L 18.832031 9.328125 L 18.824219 9.378906 C 18.808594 9.367188 18.785156 9.351562 18.785156 9.332031 L 18.785156 9.320312 L 18.738281 9.328125 L 18.640625 9.269531 L 18.625 9.257812 L 18.613281 9.277344 L 18.628906 9.285156 C 18.652344 9.300781 18.6875 9.328125 18.691406 9.371094 L 18.628906 9.371094 L 18.628906 9.382812 C 18.628906 9.390625 18.628906 9.421875 18.605469 9.480469 C 18.574219 9.476562 18.46875 9.4375 18.402344 9.25 L 18.382812 9.253906 L 18.382812 9.257812 C 18.382812 9.277344 18.375 9.320312 18.320312 9.335938 L 18.148438 9.386719 C 18.164062 9.367188 18.171875 9.339844 18.171875 9.316406 L 18.171875 9.292969 L 18.164062 9.226562 C 18.164062 9.1875 18.175781 9.160156 18.203125 9.148438 L 18.191406 9.125 C 18.1875 9.125 17.941406 9.226562 17.820312 9.1875 C 17.824219 9.160156 17.847656 9.074219 17.886719 8.984375 L 17.882812 8.992188 C 17.890625 8.984375 17.898438 8.976562 17.890625 8.933594 L 17.890625 8.921875 L 17.878906 8.925781 C 17.878906 8.925781 17.800781 8.960938 17.683594 8.921875 C 17.683594 8.90625 17.695312 8.894531 17.714844 8.882812 L 17.722656 8.878906 L 17.722656 8.859375 C 17.722656 8.828125 17.726562 8.753906 17.769531 8.738281 L 17.765625 8.71875 C 17.765625 8.71875 17.632812 8.726562 17.550781 8.683594 C 17.585938 8.65625 17.628906 8.640625 17.667969 8.632812 L 17.675781 8.632812 L 17.675781 8.621094 C 17.675781 8.601562 17.671875 8.582031 17.664062 8.5625 C 17.695312 8.574219 17.730469 8.582031 17.746094 8.570312 L 17.75 8.566406 L 17.746094 8.484375 L 17.722656 8.484375 L 17.726562 8.554688 L 17.617188 8.527344 L 17.636719 8.550781 C 17.652344 8.570312 17.65625 8.59375 17.65625 8.613281 C 17.609375 8.625 17.566406 8.644531 17.527344 8.675781 L 17.515625 8.6875 L 17.527344 8.695312 C 17.589844 8.734375 17.683594 8.742188 17.734375 8.738281 C 17.710938 8.773438 17.699219 8.816406 17.699219 8.855469 L 17.699219 8.867188 C 17.679688 8.878906 17.664062 8.902344 17.660156 8.925781 L 17.660156 8.933594 L 17.667969 8.9375 C 17.730469 8.964844 17.804688 8.972656 17.871094 8.949219 L 17.871094 8.972656 C 17.820312 9.082031 17.792969 9.191406 17.792969 9.191406 L 17.792969 9.203125 L 17.800781 9.203125 C 17.902344 9.242188 18.078125 9.1875 18.160156 9.160156 C 18.148438 9.175781 18.144531 9.199219 18.140625 9.226562 L 18.148438 9.316406 C 18.148438 9.375 18.109375 9.398438 18.109375 9.398438 L 18.117188 9.421875 L 18.324219 9.355469 C 18.371094 9.34375 18.390625 9.316406 18.398438 9.292969 C 18.476562 9.484375 18.605469 9.5 18.613281 9.503906 L 18.621094 9.503906 L 18.621094 9.496094 C 18.636719 9.464844 18.644531 9.425781 18.648438 9.390625 L 18.710938 9.386719 L 18.710938 9.375 C 18.710938 9.359375 18.707031 9.34375 18.699219 9.328125 L 18.738281 9.347656 L 18.769531 9.34375 C 18.777344 9.378906 18.820312 9.40625 18.824219 9.410156 L 18.839844 9.417969 L 18.847656 9.371094 C 18.898438 9.417969 18.96875 9.40625 18.972656 9.40625 L 18.980469 9.402344 L 18.980469 9.390625 C 18.972656 9.320312 18.925781 9.234375 18.894531 9.191406 C 18.984375 9.234375 19.152344 9.230469 19.160156 9.230469 L 19.171875 9.230469 L 19.171875 9.21875 C 19.136719 9.128906 19.085938 9.050781 19.023438 8.980469 C 19.238281 9.019531 19.351562 8.90625 19.359375 8.902344 L 19.367188 8.894531 L 19.355469 8.886719 C 19.261719 8.820312 19.160156 8.765625 19.054688 8.722656 L 19.078125 8.71875 L 19.050781 8.703125 C 19.003906 8.679688 18.953125 8.667969 18.902344 8.667969 C 18.875 8.636719 18.863281 8.632812 18.859375 8.628906 C 18.714844 8.613281 18.660156 8.574219 18.640625 8.542969 L 18.640625 8.535156 L 18.644531 8.527344 C 18.65625 8.511719 18.664062 8.488281 18.664062 8.460938 C 18.664062 8.390625 18.628906 8.316406 18.628906 8.3125 Z M 18.609375 8.320312 "/>
<path style=" stroke:none;fill-rule:nonzero;fill:rgb(0%,0%,0%);fill-opacity:1;" d="M 17.949219 8.277344 C 17.949219 8.277344 17.933594 8.355469 17.863281 8.398438 C 17.8125 8.425781 17.746094 8.421875 17.667969 8.386719 L 17.65625 8.386719 L 17.65625 8.398438 C 17.664062 8.429688 17.679688 8.460938 17.707031 8.480469 C 17.742188 8.507812 17.792969 8.515625 17.863281 8.511719 C 17.839844 8.539062 17.769531 8.628906 17.769531 8.71875 L 17.769531 8.730469 C 17.777344 8.734375 17.886719 8.765625 17.941406 8.703125 C 17.941406 8.726562 17.949219 8.820312 17.984375 8.855469 C 18.003906 8.878906 18.011719 8.902344 18.011719 8.925781 C 18.007812 8.949219 18.007812 8.960938 18.003906 8.960938 L 18 8.976562 L 18.011719 8.96875 C 18.015625 8.964844 18.117188 8.886719 18.148438 8.792969 C 18.148438 8.792969 18.167969 8.765625 18.199219 8.757812 L 18.199219 8.769531 C 18.199219 8.808594 18.214844 8.878906 18.324219 8.921875 L 18.332031 8.921875 L 18.332031 8.898438 C 18.332031 8.867188 18.332031 8.816406 18.359375 8.792969 C 18.382812 8.769531 18.390625 8.734375 18.375 8.703125 C 18.398438 8.710938 18.453125 8.726562 18.472656 8.765625 C 18.503906 8.824219 18.609375 8.777344 18.613281 8.777344 L 18.613281 8.765625 C 18.613281 8.765625 18.566406 8.777344 18.535156 8.757812 C 18.523438 8.746094 18.515625 8.734375 18.515625 8.71875 L 18.511719 8.65625 C 18.511719 8.628906 18.503906 8.609375 18.492188 8.597656 C 18.503906 8.597656 18.535156 8.597656 18.542969 8.621094 C 18.566406 8.664062 18.628906 8.667969 18.632812 8.667969 L 18.65625 8.671875 L 18.636719 8.65625 C 18.636719 8.65625 18.582031 8.621094 18.589844 8.570312 L 18.597656 8.535156 C 18.613281 8.46875 18.640625 8.359375 18.617188 8.292969 L 18.605469 8.296875 C 18.613281 8.3125 18.613281 8.332031 18.613281 8.355469 C 18.613281 8.414062 18.597656 8.484375 18.589844 8.53125 L 18.578125 8.566406 L 18.578125 8.582031 C 18.582031 8.617188 18.59375 8.640625 18.613281 8.652344 C 18.59375 8.648438 18.566406 8.636719 18.558594 8.617188 C 18.542969 8.582031 18.5 8.582031 18.484375 8.582031 L 18.46875 8.585938 L 18.476562 8.597656 C 18.496094 8.605469 18.5 8.625 18.496094 8.65625 L 18.503906 8.71875 C 18.507812 8.738281 18.515625 8.753906 18.527344 8.765625 C 18.546875 8.773438 18.5625 8.777344 18.574219 8.777344 C 18.542969 8.785156 18.496094 8.792969 18.484375 8.761719 C 18.453125 8.703125 18.371094 8.691406 18.367188 8.6875 L 18.355469 8.6875 L 18.359375 8.699219 C 18.359375 8.699219 18.371094 8.714844 18.371094 8.734375 C 18.371094 8.75 18.363281 8.765625 18.351562 8.78125 C 18.324219 8.808594 18.320312 8.863281 18.320312 8.894531 L 18.320312 8.90625 C 18.226562 8.863281 18.210938 8.808594 18.210938 8.773438 L 18.210938 8.746094 L 18.214844 8.738281 L 18.203125 8.738281 C 18.175781 8.746094 18.152344 8.761719 18.140625 8.785156 C 18.113281 8.851562 18.070312 8.90625 18.015625 8.949219 L 18.019531 8.921875 C 18.023438 8.898438 18.011719 8.871094 17.996094 8.847656 C 17.957031 8.808594 17.949219 8.6875 17.949219 8.6875 L 17.949219 8.667969 L 17.941406 8.6875 C 17.898438 8.757812 17.777344 8.722656 17.777344 8.722656 C 17.769531 8.628906 17.878906 8.507812 17.878906 8.507812 L 17.890625 8.496094 L 17.875 8.496094 C 17.804688 8.503906 17.75 8.496094 17.714844 8.46875 C 17.695312 8.453125 17.679688 8.429688 17.671875 8.40625 C 17.75 8.433594 17.816406 8.433594 17.871094 8.40625 C 17.914062 8.378906 17.949219 8.332031 17.957031 8.28125 C 18.035156 8.105469 18.101562 8.078125 18.101562 8.078125 L 18.097656 8.066406 C 18.09375 8.066406 18.023438 8.09375 17.949219 8.277344 "/>
<path style=" stroke:none;fill-rule:nonzero;fill:rgb(0%,0%,0%);fill-opacity:1;" d="M 18.121094 8.015625 L 18.117188 8.015625 L 18.054688 8.105469 L 18.070312 8.105469 C 18.265625 8.121094 18.449219 8.207031 18.582031 8.347656 L 18.589844 8.355469 L 18.652344 8.289062 L 18.644531 8.28125 C 18.476562 8.011719 18.125 8.015625 18.117188 8.015625 Z M 18.125 8.042969 C 18.167969 8.042969 18.46875 8.050781 18.625 8.285156 L 18.589844 8.324219 C 18.453125 8.191406 18.277344 8.109375 18.089844 8.089844 Z M 18.125 8.042969 "/>
<path style=" stroke:none;fill-rule:nonzero;fill:rgb(0%,0%,0%);fill-opacity:1;" d="M 18.070312 8.195312 C 18.042969 8.234375 18.027344 8.277344 18.015625 8.324219 L 18.019531 8.332031 C 17.984375 8.371094 17.964844 8.425781 17.96875 8.476562 C 17.96875 8.511719 17.972656 8.546875 17.984375 8.578125 L 17.992188 8.597656 C 18.023438 8.6875 18.050781 8.765625 18.195312 8.71875 C 18.328125 8.675781 18.335938 8.664062 18.367188 8.605469 L 18.378906 8.59375 C 18.398438 8.5625 18.417969 8.558594 18.4375 8.550781 C 18.464844 8.542969 18.492188 8.535156 18.515625 8.484375 L 18.535156 8.453125 C 18.5625 8.417969 18.59375 8.371094 18.597656 8.320312 L 18.585938 8.320312 C 18.578125 8.367188 18.558594 8.410156 18.527344 8.445312 L 18.503906 8.480469 C 18.492188 8.507812 18.464844 8.53125 18.4375 8.539062 C 18.40625 8.542969 18.382812 8.5625 18.367188 8.585938 L 18.359375 8.601562 C 18.328125 8.65625 18.320312 8.664062 18.1875 8.707031 C 18.054688 8.75 18.03125 8.683594 18.003906 8.589844 L 17.996094 8.574219 C 17.957031 8.472656 17.988281 8.371094 18.035156 8.335938 L 18.050781 8.324219 L 18.027344 8.324219 C 18.027344 8.304688 18.046875 8.253906 18.078125 8.203125 C 18.109375 8.164062 18.183594 8.121094 18.183594 8.121094 L 18.179688 8.109375 C 18.171875 8.113281 18.101562 8.15625 18.070312 8.195312 "/>
<path style=" stroke:none;fill-rule:nonzero;fill:rgb(0%,0%,0%);fill-opacity:1;" d="M 18.011719 8.5625 C 18.03125 8.578125 18.0625 8.578125 18.105469 8.5625 C 18.105469 8.574219 18.105469 8.605469 18.132812 8.628906 C 18.164062 8.65625 18.210938 8.660156 18.273438 8.644531 L 18.273438 8.628906 C 18.210938 8.648438 18.167969 8.640625 18.140625 8.617188 C 18.121094 8.601562 18.113281 8.578125 18.117188 8.554688 L 18.117188 8.542969 L 18.109375 8.550781 C 18.070312 8.566406 18.039062 8.566406 18.015625 8.550781 C 17.976562 8.523438 17.980469 8.453125 17.980469 8.453125 L 17.96875 8.453125 C 17.96875 8.453125 17.964844 8.53125 18.011719 8.5625 "/>
<path style=" stroke:none;fill-rule:nonzero;fill:rgb(0%,0%,0%);fill-opacity:1;" d="M 18.082031 8.464844 C 18.070312 8.472656 18.0625 8.480469 18.0625 8.492188 L 18.0625 8.5 C 18.066406 8.535156 18.101562 8.554688 18.128906 8.5625 C 18.15625 8.570312 18.195312 8.574219 18.210938 8.554688 C 18.214844 8.546875 18.214844 8.53125 18.210938 8.507812 C 18.1875 8.464844 18.132812 8.445312 18.085938 8.464844 Z M 18.132812 8.550781 C 18.109375 8.542969 18.078125 8.527344 18.074219 8.5 C 18.074219 8.5 18.070312 8.480469 18.085938 8.476562 C 18.128906 8.457031 18.175781 8.476562 18.195312 8.515625 C 18.203125 8.53125 18.203125 8.539062 18.199219 8.542969 C 18.191406 8.558594 18.164062 8.558594 18.132812 8.550781 M 18.125 8.621094 C 18.117188 8.6875 18.125 8.691406 18.125 8.691406 L 18.132812 8.691406 L 18.136719 8.6875 L 18.171875 8.636719 L 18.125 8.613281 Z M 18.136719 8.632812 L 18.15625 8.640625 L 18.132812 8.671875 Z M 18.027344 8.570312 L 18.023438 8.628906 L 18.078125 8.566406 L 18.023438 8.5625 Z M 18.039062 8.574219 L 18.054688 8.574219 L 18.039062 8.597656 Z M 18.039062 8.574219 "/>
<path style=" stroke:none;fill-rule:nonzero;fill:rgb(0%,0%,0%);fill-opacity:1;" d="M 17.992188 8.550781 C 17.992188 8.550781 18.03125 8.625 18.039062 8.65625 C 18.042969 8.671875 18.0625 8.6875 18.089844 8.699219 C 18.121094 8.710938 18.144531 8.710938 18.160156 8.695312 L 18.195312 8.667969 C 18.203125 8.65625 18.210938 8.652344 18.21875 8.65625 L 18.21875 8.640625 C 18.207031 8.640625 18.195312 8.648438 18.1875 8.65625 L 18.152344 8.683594 C 18.132812 8.699219 18.109375 8.695312 18.09375 8.6875 C 18.066406 8.679688 18.050781 8.664062 18.046875 8.648438 C 18.039062 8.621094 18.003906 8.546875 18.003906 8.542969 Z M 18.042969 8.324219 C 18.015625 8.339844 17.992188 8.363281 17.980469 8.398438 L 17.992188 8.398438 C 17.992188 8.398438 18.011719 8.351562 18.046875 8.332031 C 18.066406 8.324219 18.089844 8.324219 18.109375 8.332031 L 18.109375 8.324219 C 18.085938 8.3125 18.0625 8.3125 18.039062 8.324219 Z M 18.324219 8.460938 C 18.328125 8.460938 18.40625 8.523438 18.363281 8.597656 L 18.371094 8.605469 C 18.421875 8.515625 18.332031 8.449219 18.332031 8.445312 Z M 18.085938 8.46875 C 18.085938 8.46875 18.070312 8.515625 18.136719 8.53125 C 18.136719 8.53125 18.078125 8.53125 18.070312 8.515625 C 18.070312 8.5 18.070312 8.464844 18.085938 8.46875 M 18.28125 8.523438 C 18.28125 8.527344 18.277344 8.53125 18.273438 8.53125 L 18.265625 8.527344 C 18.265625 8.519531 18.265625 8.515625 18.273438 8.515625 C 18.277344 8.515625 18.28125 8.519531 18.28125 8.527344 Z M 18.285156 8.554688 C 18.285156 8.558594 18.285156 8.558594 18.28125 8.558594 L 18.273438 8.554688 L 18.28125 8.546875 C 18.285156 8.546875 18.285156 8.550781 18.285156 8.554688 "/>
<path style=" stroke:none;fill-rule:nonzero;fill:rgb(0%,0%,0%);fill-opacity:1;" d="M 18.246094 8.539062 C 18.246094 8.535156 18.242188 8.53125 18.238281 8.53125 C 18.234375 8.53125 18.230469 8.535156 18.230469 8.539062 C 18.230469 8.542969 18.234375 8.546875 18.238281 8.546875 C 18.242188 8.546875 18.246094 8.542969 18.246094 8.539062 Z M 18.246094 8.539062 "/>
<path style=" stroke:none;fill-rule:nonzero;fill:rgb(0%,0%,0%);fill-opacity:1;" d="M 18.257812 8.582031 C 18.257812 8.585938 18.253906 8.589844 18.25 8.589844 C 18.246094 8.589844 18.242188 8.585938 18.242188 8.582031 C 18.242188 8.578125 18.246094 8.574219 18.25 8.574219 Z M 18.074219 8.386719 C 18.074219 8.394531 18.070312 8.398438 18.066406 8.398438 C 18.0625 8.398438 18.058594 8.394531 18.058594 8.386719 C 18.0625 8.386719 18.0625 8.386719 18.066406 8.386719 C 18.066406 8.386719 18.070312 8.386719 18.070312 8.386719 Z M 18.074219 8.386719 "/>
<path style=" stroke:none;fill-rule:nonzero;fill:rgb(0%,0%,0%);fill-opacity:1;" d="M 18.078125 8.417969 C 18.078125 8.414062 18.078125 8.410156 18.070312 8.410156 C 18.066406 8.410156 18.0625 8.414062 18.0625 8.417969 C 18.0625 8.421875 18.066406 8.425781 18.070312 8.425781 C 18.078125 8.425781 18.078125 8.421875 18.078125 8.417969 Z M 18.078125 8.417969 "/>
<path style=" stroke:none;fill-rule:nonzero;fill:rgb(0%,0%,0%);fill-opacity:1;" d="M 18.039062 8.40625 C 18.039062 8.398438 18.039062 8.398438 18.03125 8.398438 C 18.027344 8.398438 18.023438 8.398438 18.023438 8.40625 C 18.023438 8.410156 18.027344 8.414062 18.03125 8.414062 C 18.039062 8.414062 18.039062 8.410156 18.039062 8.40625 Z M 18.039062 8.40625 "/>
<path style=" stroke:none;fill-rule:nonzero;fill:rgb(0%,0%,0%);fill-opacity:1;" d="M 18.050781 8.445312 L 18.046875 8.453125 C 18.042969 8.453125 18.039062 8.449219 18.039062 8.445312 C 18.039062 8.441406 18.042969 8.4375 18.046875 8.4375 Z M 18.175781 8.195312 C 18.175781 8.195312 18.265625 8.25 18.179688 8.359375 C 18.179688 8.359375 18.222656 8.324219 18.226562 8.269531 C 18.226562 8.214844 18.195312 8.171875 18.171875 8.195312 Z M 18.527344 8.347656 C 18.496094 8.363281 18.453125 8.335938 18.433594 8.308594 C 18.414062 8.285156 18.367188 8.277344 18.339844 8.324219 C 18.3125 8.371094 18.273438 8.390625 18.273438 8.390625 C 18.273438 8.390625 18.3125 8.371094 18.351562 8.324219 C 18.390625 8.28125 18.414062 8.316406 18.453125 8.339844 C 18.492188 8.359375 18.496094 8.363281 18.523438 8.351562 L 18.523438 8.347656 Z M 18.527344 8.347656 "/>
<path style=" stroke:none;fill-rule:nonzero;fill:rgb(0%,0%,0%);fill-opacity:1;" d="M 18.519531 8.355469 C 18.5 8.367188 18.476562 8.367188 18.460938 8.355469 C 18.4375 8.332031 18.417969 8.308594 18.390625 8.324219 C 18.359375 8.339844 18.304688 8.378906 18.304688 8.378906 C 18.304688 8.378906 18.394531 8.316406 18.414062 8.332031 C 18.429688 8.347656 18.46875 8.378906 18.492188 8.371094 Z M 18.519531 8.355469 "/>
<path style=" stroke:none;fill-rule:nonzero;fill:rgb(0%,0%,0%);fill-opacity:1;" d="M 18.449219 8.394531 C 18.421875 8.371094 18.390625 8.421875 18.367188 8.414062 C 18.34375 8.410156 18.324219 8.367188 18.324219 8.367188 C 18.324219 8.367188 18.34375 8.410156 18.375 8.402344 C 18.410156 8.390625 18.429688 8.371094 18.453125 8.386719 C 18.472656 8.402344 18.449219 8.394531 18.449219 8.394531 "/>
<path style=" stroke:none;fill-rule:nonzero;fill:rgb(0%,0%,0%);fill-opacity:1;" d="M 18.40625 8.402344 C 18.390625 8.40625 18.375 8.402344 18.363281 8.390625 C 18.351562 8.382812 18.34375 8.367188 18.34375 8.351562 C 18.34375 8.351562 18.359375 8.398438 18.410156 8.390625 Z M 18.40625 8.402344 "/>
<path style=" stroke:none;fill-rule:nonzero;fill:rgb(0%,0%,0%);fill-opacity:1;" d="M 18.402344 8.363281 C 18.40625 8.378906 18.402344 8.386719 18.390625 8.386719 C 18.371094 8.386719 18.359375 8.378906 18.363281 8.363281 C 18.363281 8.351562 18.398438 8.355469 18.402344 8.363281 M 18.199219 8.285156 C 18.195312 8.292969 18.1875 8.300781 18.179688 8.300781 C 18.171875 8.300781 18.167969 8.296875 18.167969 8.285156 C 18.171875 8.269531 18.167969 8.265625 18.179688 8.265625 C 18.195312 8.265625 18.199219 8.277344 18.199219 8.285156 "/>
<path style=" stroke:none;fill-rule:nonzero;fill:rgb(0%,0%,0%);fill-opacity:1;" d="M 18.132812 8.21875 C 18.132812 8.21875 18.234375 8.21875 18.1875 8.34375 C 18.1875 8.34375 18.222656 8.285156 18.199219 8.238281 C 18.171875 8.195312 18.140625 8.207031 18.140625 8.207031 C 18.140625 8.207031 18.128906 8.214844 18.132812 8.21875 "/>
<path style=" stroke:none;fill-rule:nonzero;fill:rgb(0%,0%,0%);fill-opacity:1;" d="M 18.132812 8.269531 C 18.132812 8.292969 18.148438 8.320312 18.179688 8.347656 L 18.1875 8.335938 C 18.160156 8.3125 18.144531 8.292969 18.144531 8.269531 C 18.144531 8.238281 18.160156 8.234375 18.160156 8.234375 L 18.152344 8.226562 C 18.152344 8.226562 18.132812 8.242188 18.132812 8.269531 Z M 18.132812 8.269531 "/>
<path style=" stroke:none;fill-rule:nonzero;fill:rgb(0%,0%,0%);fill-opacity:1;" d="M 18.15625 8.292969 C 18.160156 8.304688 18.167969 8.316406 18.1875 8.324219 L 18.191406 8.3125 C 18.175781 8.308594 18.167969 8.296875 18.164062 8.285156 C 18.160156 8.265625 18.175781 8.242188 18.175781 8.242188 L 18.164062 8.234375 C 18.164062 8.234375 18.148438 8.265625 18.15625 8.292969 M 18.289062 8.359375 C 18.289062 8.359375 18.304688 8.398438 18.28125 8.441406 L 18.253906 8.484375 C 18.253906 8.484375 18.285156 8.421875 18.273438 8.398438 C 18.257812 8.375 18.289062 8.359375 18.289062 8.359375 M 18.667969 8.777344 C 18.765625 8.792969 18.992188 8.972656 18.992188 8.972656 L 19.003906 8.957031 C 18.996094 8.949219 18.773438 8.773438 18.667969 8.753906 Z M 18.753906 9.027344 C 18.761719 9.117188 18.859375 9.171875 18.859375 9.175781 L 18.871094 9.15625 C 18.871094 9.15625 18.78125 9.105469 18.777344 9.027344 Z M 18.511719 9.046875 C 18.511719 9.148438 18.605469 9.269531 18.613281 9.273438 L 18.628906 9.257812 C 18.628906 9.257812 18.535156 9.136719 18.535156 9.046875 Z M 18.199219 9.058594 C 18.214844 9.089844 18.214844 9.109375 18.210938 9.113281 C 18.199219 9.125 18.195312 9.128906 18.195312 9.125 L 18.195312 9.148438 C 18.207031 9.148438 18.21875 9.140625 18.226562 9.125 C 18.238281 9.109375 18.234375 9.082031 18.21875 9.046875 Z M 18.199219 9.058594 "/>
<path style="fill-rule:nonzero;fill:rgb(100%,100%,100%);fill-opacity:1;stroke-width:0.2;stroke-linecap:butt;stroke-linejoin:miter;stroke:rgb(0%,0%,0%);stroke-opacity:1;stroke-miterlimit:3;" d="M 429.6 216.315789 C 429.6 216.315789 429.7 217.993421 431 218.980263 C 431 218.980263 430.9 217.203947 431.3 216.414474 C 431.3 216.414474 430.6 215.625 429.6 216.315789 Z M 432.2 217.302632 C 432.2 217.302632 432.5 218.881579 433.4 219.572368 L 434 219.473684 C 434 219.473684 434.2 217.5 434.5 217.302632 C 434.8 217.105263 433.2 217.993421 432.2 217.302632 Z M 432.2 217.302632 " transform="matrix(0.0390625,0,0,0.0395833,0,0)"/>
<path style="fill-rule:nonzero;fill:rgb(100%,100%,100%);fill-opacity:1;stroke-width:0.2;stroke-linecap:butt;stroke-linejoin:miter;stroke:rgb(0%,0%,0%);stroke-opacity:1;stroke-miterlimit:3;" d="M 434.5 217.302632 L 435.5 218.881579 L 436.7 218.190789 L 436.5 216.414474 C 436.5 216.414474 435.8 216.217105 434.5 217.302632 Z M 439.2 217.598684 L 437.9 218.684211 C 437.9 218.684211 437.2 218.190789 436.7 218.190789 L 436.9 216.513158 C 436.9 216.513158 437.9 215.822368 439.2 217.598684 Z M 429.9 233.585526 C 429.9 233.585526 429.7 231.217105 429.9 231.118421 C 429.9 231.118421 430.9 231.414474 431.3 231.118421 C 431.3 231.118421 431.8 232.894737 431.7 233.684211 C 431.5 234.473684 430.6 234.177632 429.9 233.684211 Z M 435.9 231.217105 C 435.9 231.217105 435.8 229.243421 436.1 228.947368 C 436.1 228.947368 438.1 229.243421 438.5 228.059211 L 439.2 230.131579 C 439.2 230.131579 437.1 229.835526 435.8 231.118421 Z M 435.9 231.217105 " transform="matrix(0.0390625,0,0,0.0395833,0,0)"/>
<path style="fill-rule:nonzero;fill:rgb(100%,100%,100%);fill-opacity:1;stroke-width:0.2;stroke-linecap:butt;stroke-linejoin:miter;stroke:rgb(0%,0%,0%);stroke-opacity:1;stroke-miterlimit:3;" d="M 433.8 231.611842 C 433.8 231.611842 434.1 229.539474 434.5 229.440789 C 434.5 229.440789 435.5 229.736842 435.8 229.342105 L 435.8 231.907895 C 435.8 231.907895 435.8 230.822368 433.8 231.611842 Z M 431.5 231.907895 C 431.5 231.907895 432 230.032895 432.3 230.032895 C 432.6 230.032895 433.3 230.526316 433.7 230.230263 L 433.7 231.611842 C 433.7 231.611842 432.1 231.217105 431.8 233.486842 Z M 431.5 231.907895 " transform="matrix(0.0390625,0,0,0.0395833,0,0)"/>
<path style="fill-rule:nonzero;fill:rgb(0%,65.098041%,31.764707%);fill-opacity:1;stroke-width:0.5;stroke-linecap:butt;stroke-linejoin:miter;stroke:rgb(0%,0%,0%);stroke-opacity:1;stroke-miterlimit:4.8;" d="M 461.7 270.394737 C 461.7 270.394737 466.9 275.328947 465.6 279.572368 C 465.6 279.572368 468.9 272.269737 465.3 270.098684 C 461.7 268.125 461.6 269.605263 461.7 270.394737 Z M 461.7 270.394737 " transform="matrix(0.0390625,0,0,0.0395833,0,0)"/>
<path style="fill-rule:nonzero;fill:rgb(58.823532%,29.411766%,21.176471%);fill-opacity:1;stroke-width:0.5;stroke-linecap:butt;stroke-linejoin:miter;stroke:rgb(0%,0%,0%);stroke-opacity:1;stroke-miterlimit:4.8;" d="M 455 275.131579 C 455 275.131579 453.7 277.105263 455.2 278.388158 C 455.2 278.388158 453.5 280.756579 454.8 282.828947 C 454.8 282.828947 453.8 284.901316 454 287.171053 C 454 287.171053 453.2 290.723684 455 292.302632 C 455 292.302632 457 293.289474 458 292.401316 C 458 292.401316 459.7 289.835526 458.6 287.072368 C 458.6 287.072368 459.8 284.802632 458.4 281.940789 C 458.4 281.940789 458.8 280.263158 457.7 278.388158 C 457.7 278.388158 458.4 277.203947 457.8 276.217105 C 457.8 276.217105 455.3 273.453947 455 275.230263 Z M 455 275.131579 " transform="matrix(0.0390625,0,0,0.0395833,0,0)"/>
<path style="fill-rule:nonzero;fill:rgb(0%,65.098041%,31.764707%);fill-opacity:1;stroke-width:0.5;stroke-linecap:butt;stroke-linejoin:miter;stroke:rgb(0%,0%,0%);stroke-opacity:1;stroke-miterlimit:4.8;" d="M 456.5 269.013158 C 456.5 269.013158 450.3 256.973684 445.9 256.480263 C 441.5 255.986842 441.3 251.743421 441.3 251.743421 C 441.3 251.743421 441.8 253.717105 445.3 253.717105 C 448.8 253.717105 455.5 258.651316 456.3 262.401316 C 457 266.052632 457.8 265.559211 457.8 265.559211 Z M 456.5 269.013158 " transform="matrix(0.0390625,0,0,0.0395833,0,0)"/>
<path style="fill-rule:nonzero;fill:rgb(0%,65.098041%,31.764707%);fill-opacity:1;stroke-width:0.5;stroke-linecap:butt;stroke-linejoin:miter;stroke:rgb(0%,0%,0%);stroke-opacity:1;stroke-miterlimit:4.8;" d="M 456.5 268.125 C 456.5 268.125 458.8 253.026316 468.7 252.730263 C 478.6 252.532895 475.3 253.519737 477.7 251.940789 C 477.7 251.940789 471.1 255.296053 467 255.888158 C 462.8 256.282895 459.4 264.375 459.6 265.855263 C 459.6 267.434211 457.3 270.296053 456.2 269.309211 C 455.1 268.322368 456.5 268.125 456.5 268.125 Z M 456.5 268.125 " transform="matrix(0.0390625,0,0,0.0395833,0,0)"/>
<path style="fill-rule:nonzero;fill:rgb(0%,65.098041%,31.764707%);fill-opacity:1;stroke-width:0.5;stroke-linecap:butt;stroke-linejoin:miter;stroke:rgb(0%,0%,0%);stroke-opacity:1;stroke-miterlimit:4.8;" d="M 458.8 273.848684 C 458.8 273.848684 461.1 267.828947 464.9 269.802632 C 464.9 269.802632 461.9 263.980263 456.5 269.013158 C 456.5 269.013158 458.9 272.269737 458.8 273.848684 Z M 451.3 267.828947 C 451.3 267.828947 454.5 281.151316 449.5 285.296053 C 449.5 285.296053 449.7 278.388158 446.6 274.342105 C 443.6 270.098684 449.6 265.559211 451.3 267.828947 Z M 451.3 267.828947 " transform="matrix(0.0390625,0,0,0.0395833,0,0)"/>
<path style="fill-rule:nonzero;fill:rgb(0%,65.098041%,31.764707%);fill-opacity:1;stroke-width:0.5;stroke-linecap:butt;stroke-linejoin:miter;stroke:rgb(0%,0%,0%);stroke-opacity:1;stroke-miterlimit:4.8;" d="M 451.7 270.098684 C 451.7 270.098684 457.6 275.822368 457.9 277.697368 C 458.3 279.473684 459.7 271.973684 456.9 269.901316 C 454.1 267.828947 451.2 267.434211 451.2 267.434211 L 451.7 270.197368 Z M 451.7 270.098684 " transform="matrix(0.0390625,0,0,0.0395833,0,0)"/>
<path style="fill-rule:nonzero;fill:rgb(58.823532%,29.411766%,21.176471%);fill-opacity:1;stroke-width:0.5;stroke-linecap:butt;stroke-linejoin:miter;stroke:rgb(0%,0%,0%);stroke-opacity:1;stroke-miterlimit:4.8;" d="M 440.8 285 C 440.8 285 441.3 287.269737 442.8 287.763158 C 442.8 287.763158 442.8 289.539474 444.2 290.032895 C 444.2 290.032895 443.5 291.513158 444.6 292.401316 C 444.6 292.401316 444.4 295.361842 445.4 295.855263 C 445.4 295.855263 448.1 295.756579 449 294.967105 C 449 294.967105 449.5 293.092105 448 291.217105 C 448 291.217105 448.3 289.440789 446.8 288.355263 C 446.8 288.355263 447.3 285.888158 445.4 285 C 445.4 285 445.1 283.026316 444 282.039474 C 444 282.039474 441.8 285.098684 440.8 285 Z M 440.8 285 " transform="matrix(0.0390625,0,0,0.0395833,0,0)"/>
<path style="fill-rule:nonzero;fill:rgb(0%,65.098041%,31.764707%);fill-opacity:1;stroke-width:0.5;stroke-linecap:butt;stroke-linejoin:miter;stroke:rgb(0%,0%,0%);stroke-opacity:1;stroke-miterlimit:4.8;" d="M 443.7 282.039474 C 443.7 282.039474 436 279.177632 431.7 283.223684 C 431.7 283.223684 438.3 284.210526 439.1 285.493421 C 439.9 286.776316 444 283.322368 443.7 282.039474 Z M 443.7 282.039474 " transform="matrix(0.0390625,0,0,0.0395833,0,0)"/>
<path style="fill-rule:nonzero;fill:rgb(0%,65.098041%,31.764707%);fill-opacity:1;stroke-width:0.5;stroke-linecap:butt;stroke-linejoin:miter;stroke:rgb(0%,0%,0%);stroke-opacity:1;stroke-miterlimit:4.8;" d="M 441.3 286.776316 L 439.9 285.789474 C 439.2 285.197368 432.7 283.519737 431.8 289.835526 C 431.8 289.835526 429.4 283.519737 432.8 282.828947 C 436.3 281.842105 439 283.815789 441.3 286.776316 M 436.3 274.046053 C 436.3 274.046053 438.6 279.177632 439.5 279.375 C 440.4 279.572368 441 278.782895 441 278.782895 C 441 278.782895 437.9 274.243421 436.2 274.046053 Z M 434.5 266.052632 C 434.5 266.052632 432.5 259.539474 430.1 261.315789 C 427.7 263.092105 428.3 267.828947 428.3 267.828947 C 428.3 267.828947 423.6 262.796053 426.3 259.046053 C 429 255.197368 434.5 259.440789 434.5 266.052632 Z M 434.5 266.052632 " transform="matrix(0.0390625,0,0,0.0395833,0,0)"/>
<path style="fill-rule:nonzero;fill:rgb(58.823532%,29.411766%,21.176471%);fill-opacity:1;stroke-width:0.5;stroke-linecap:butt;stroke-linejoin:miter;stroke:rgb(0%,0%,0%);stroke-opacity:1;stroke-miterlimit:4.8;" d="M 439.9 279.769737 C 439.9 279.769737 439.9 281.052632 440.8 281.447368 C 441.7 281.743421 443.3 282.434211 443.3 281.743421 C 443.3 280.953947 442 277.993421 441.5 278.388158 C 441 278.782895 440.1 278.782895 439.9 279.769737 Z M 439.9 279.769737 " transform="matrix(0.0390625,0,0,0.0395833,0,0)"/>
<path style="fill-rule:nonzero;fill:rgb(0%,65.098041%,31.764707%);fill-opacity:1;stroke-width:0.5;stroke-linecap:butt;stroke-linejoin:miter;stroke:rgb(0%,0%,0%);stroke-opacity:1;stroke-miterlimit:4.8;" d="M 438.4 271.973684 C 438.4 271.973684 438.1 266.348684 441.9 264.078947 C 441.9 264.078947 442.6 264.276316 443 263.092105 C 443 263.092105 440 270.394737 440.9 274.144737 L 440.8 274.539474 " transform="matrix(0.0390625,0,0,0.0395833,0,0)"/>
<path style="fill-rule:nonzero;fill:rgb(0%,65.098041%,31.764707%);fill-opacity:1;stroke-width:0.5;stroke-linecap:butt;stroke-linejoin:miter;stroke:rgb(0%,0%,0%);stroke-opacity:1;stroke-miterlimit:4.8;" d="M 439.1 264.967105 C 439.1 264.967105 445.9 250.953947 454.1 255.888158 C 454.1 255.888158 445.5 257.565789 442.4 263.782895 L 439.3 268.421053 Z M 439.1 264.967105 " transform="matrix(0.0390625,0,0,0.0395833,0,0)"/>
<path style="fill-rule:nonzero;fill:rgb(0%,65.098041%,31.764707%);fill-opacity:1;stroke-width:0.5;stroke-linecap:butt;stroke-linejoin:miter;stroke:rgb(0%,0%,0%);stroke-opacity:1;stroke-miterlimit:4.8;" d="M 435.5 270.098684 C 435.5 270.098684 433.5 260.723684 432.2 259.539474 C 431 258.157895 428.9 256.875 426.3 259.046053 C 426.3 259.046053 430.7 255.098684 435.3 258.355263 C 440 261.611842 439 266.842105 439 266.842105 L 438.5 273.256579 L 435.4 270.394737 " transform="matrix(0.0390625,0,0,0.0395833,0,0)"/>
<path style="fill-rule:nonzero;fill:rgb(0%,65.098041%,31.764707%);fill-opacity:1;stroke-width:0.5;stroke-linecap:butt;stroke-linejoin:miter;stroke:rgb(0%,0%,0%);stroke-opacity:1;stroke-miterlimit:4.8;" d="M 442.8 281.348684 C 442.8 281.348684 434.5 265.559211 429.1 276.809211 C 429.1 276.809211 428.1 279.671053 429.2 280.756579 C 429.2 280.756579 426.2 278.486842 427.6 272.960526 C 429 267.532895 438.1 270 440.8 274.539474 C 443.5 278.980263 444.1 281.348684 443.8 281.546053 C 443.4 281.842105 442.8 281.348684 442.8 281.348684 Z M 466.1 285.789474 C 466.1 285.789474 472.1 273.355263 475.6 278.980263 C 475.6 278.980263 476.6 281.842105 475.1 283.026316 C 475.1 283.026316 472.7 279.967105 470.6 283.618421 C 468.4 287.072368 469.3 286.776316 469.3 286.776316 C 469.3 286.776316 467.1 287.368421 466.1 285.789474 Z M 466.1 285.789474 " transform="matrix(0.0390625,0,0,0.0395833,0,0)"/>
<path style="fill-rule:nonzero;fill:rgb(0%,65.098041%,31.764707%);fill-opacity:1;stroke-width:0.5;stroke-linecap:butt;stroke-linejoin:miter;stroke:rgb(0%,0%,0%);stroke-opacity:1;stroke-miterlimit:4.8;" d="M 475 283.026316 C 475 283.026316 478.3 284.703947 477.2 288.157895 C 477.2 288.157895 481.6 279.769737 475.6 278.980263 C 475.6 278.980263 476.7 281.743421 475.1 283.026316 Z M 475.5 274.440789 C 475.5 274.440789 483.4 276.710526 483.6 280.065789 C 483.6 280.065789 485 273.453947 480.5 271.480263 C 480.5 271.480263 475.1 272.467105 475.5 274.539474 Z M 475.5 274.440789 " transform="matrix(0.0390625,0,0,0.0395833,0,0)"/>
<path style="fill-rule:nonzero;fill:rgb(0%,65.098041%,31.764707%);fill-opacity:1;stroke-width:0.5;stroke-linecap:butt;stroke-linejoin:miter;stroke:rgb(0%,0%,0%);stroke-opacity:1;stroke-miterlimit:4.8;" d="M 479 263.980263 C 482.4 257.368421 486.6 266.052632 486.6 266.052632 C 486.6 266.052632 488.1 259.243421 483.9 257.960526 C 479.6 256.677632 476.9 272.664474 476.9 272.664474 L 471.9 273.651316 C 471.9 273.651316 473.2 259.934211 480.7 258.651316 L 481.7 258.651316 " transform="matrix(0.0390625,0,0,0.0395833,0,0)"/>
<path style="fill-rule:nonzero;fill:rgb(0%,65.098041%,31.764707%);fill-opacity:1;stroke-width:0.5;stroke-linecap:butt;stroke-linejoin:miter;stroke:rgb(0%,0%,0%);stroke-opacity:1;stroke-miterlimit:4.8;" d="M 473 268.026316 C 473 268.026316 468.2 258.157895 465 257.171053 C 461.8 256.184211 466.7 254.703947 468.7 256.578947 C 470.7 258.453947 474.5 260.921053 474.1 265.855263 Z M 468 281.447368 C 468 281.447368 469.4 274.835526 473.2 272.763158 C 477 270.789474 480.5 271.480263 480.5 271.480263 C 480.5 271.480263 476 272.467105 475.2 274.835526 C 474.4 277.105263 473.2 277.203947 473.2 277.203947 Z M 468 281.447368 " transform="matrix(0.0390625,0,0,0.0395833,0,0)"/>
<path style="fill-rule:nonzero;fill:rgb(58.823532%,29.411766%,21.176471%);fill-opacity:1;stroke-width:0.5;stroke-linecap:butt;stroke-linejoin:miter;stroke:rgb(0%,0%,0%);stroke-opacity:1;stroke-miterlimit:4.8;" d="M 466 285.789474 C 466 285.789474 464 289.835526 464.4 290.427632 C 464.4 290.427632 462.2 293.684211 463.1 295.361842 C 463.1 295.361842 465.3 297.138158 466.3 296.447368 C 466.3 296.447368 468.9 292.697368 468.2 290.723684 C 468.2 290.723684 470 288.256579 469.3 286.776316 C 469.3 286.776316 466.7 286.875 466.1 285.789474 Z M 466 285.789474 " transform="matrix(0.0390625,0,0,0.0395833,0,0)"/>
<path style=" stroke:none;fill-rule:nonzero;fill:rgb(0%,0%,0.392157%);fill-opacity:1;" d="M 17.773438 11.027344 C 17.78125 11.03125 17.832031 11.054688 17.863281 11.042969 L 17.886719 11.023438 L 17.867188 11.015625 C 17.855469 11.039062 17.800781 11.019531 17.785156 11.011719 L 17.777344 11.027344 Z M 17.769531 11.1875 L 17.761719 11.207031 C 17.765625 11.207031 17.867188 11.226562 17.914062 11.183594 L 17.898438 11.167969 C 17.859375 11.203125 17.769531 11.183594 17.765625 11.183594 Z M 17.742188 11.359375 L 17.730469 11.375 C 17.730469 11.375 17.847656 11.460938 17.921875 11.367188 L 17.902344 11.355469 C 17.84375 11.433594 17.746094 11.363281 17.742188 11.355469 Z M 17.292969 11.382812 L 17.296875 11.394531 C 17.300781 11.394531 17.398438 11.355469 17.40625 11.28125 L 17.394531 11.28125 C 17.390625 11.34375 17.296875 11.382812 17.292969 11.382812 M 17.347656 11.476562 L 17.347656 11.488281 C 17.355469 11.488281 17.445312 11.480469 17.460938 11.414062 L 17.449219 11.414062 C 17.433594 11.46875 17.351562 11.476562 17.347656 11.476562 M 17.367188 11.570312 L 17.367188 11.582031 C 17.371094 11.582031 17.472656 11.585938 17.507812 11.53125 L 17.496094 11.523438 C 17.464844 11.574219 17.367188 11.570312 17.367188 11.570312 M 18.136719 11.503906 C 18.136719 11.503906 18.179688 11.550781 18.230469 11.546875 C 18.257812 11.546875 18.28125 11.535156 18.296875 11.515625 L 18.28125 11.5 C 18.265625 11.515625 18.25 11.527344 18.230469 11.527344 C 18.191406 11.527344 18.152344 11.488281 18.152344 11.488281 Z M 18.136719 11.503906 "/>
<path style="fill-rule:nonzero;fill:rgb(58.823532%,29.411766%,21.176471%);fill-opacity:1;stroke-width:0.3;stroke-linecap:butt;stroke-linejoin:miter;stroke:rgb(0%,0%,0%);stroke-opacity:1;stroke-miterlimit:4.8;" d="M 542 299.802632 L 541.7 300.098684 L 542.1 299.802632 Z M 551.3 297.532895 C 551.2 297.335526 551.1 297.335526 551 297.335526 L 550.6 296.546053 L 550.3 296.546053 L 549.6 295.065789 L 549.6 294.375 C 549.6 294.375 549.4 294.375 549.3 294.177632 L 549.3 292.598684 L 549.2 292.105263 L 548.9 291.019737 L 548.9 290.032895 C 548.9 289.638158 548.9 289.342105 548.8 289.046053 L 548.9 288.059211 L 548.9 282.730263 L 548.8 281.743421 L 548.7 281.348684 L 548.7 279.671053 L 548.7 282.335526 L 548.5 277.993421 L 545.1 276.414474 C 545.1 276.414474 544.8 282.631579 544.9 283.421053 C 544.9 284.309211 545.3 290.131579 545.1 290.822368 L 544.6 295.065789 C 544.6 295.065789 543 296.348684 542.4 297.532895 C 541.7 298.815789 541.9 299.210526 541.7 299.210526 L 543.2 299.013158 L 542.1 299.802632 L 542.8 299.901316 L 543 300.098684 L 543.2 299.901316 C 543.5 299.901316 543.7 300.296053 543.9 300.197368 L 544.3 300 L 544.5 299.605263 L 545.6 299.605263 C 545.9 299.506579 546.2 299.210526 546.5 298.914474 C 546.7 298.717105 546.9 298.618421 547.2 298.618421 C 547.5 298.618421 547.8 298.815789 548.2 298.914474 C 548.4 298.914474 548.6 298.815789 548.7 298.717105 L 549.1 298.125 L 549.9 298.026316 L 550.3 298.125 L 550.9 298.125 L 551.2 298.322368 L 551.4 297.927632 Z M 551.3 297.532895 " transform="matrix(0.0390625,0,0,0.0395833,0,0)"/>
<path style="fill-rule:nonzero;fill:rgb(58.823532%,29.411766%,21.176471%);fill-opacity:1;stroke-width:0.3;stroke-linecap:butt;stroke-linejoin:miter;stroke:rgb(0%,0%,0%);stroke-opacity:1;stroke-miterlimit:4.8;" d="M 544.5 299.703947 L 545.1 299.703947 L 545.1 299.901316 L 545.3 299.901316 L 545.6 300.098684 L 545.9 300.098684 L 546.3 300.197368 C 546.5 300.296053 546.7 300.197368 546.9 300.098684 C 547.1 300 547.3 300 547.5 300.296053 C 547.6 300.394737 547.6 300.394737 547.7 300.296053 L 547.8 300.197368 L 548.4 300 L 548.8 299.802632 L 549.2 300 L 549.4 300 L 550.1 299.506579 C 550.4 299.407895 550.6 299.407895 550.8 299.506579 L 551.5 299.506579 C 551.5 299.407895 551.6 299.309211 551.7 299.210526 L 552.4 299.605263 C 552.5 299.703947 553.1 299.802632 553 299.407895 C 552.9 299.013158 552.6 299.309211 552.5 299.013158 L 552.5 298.421053 L 552.2 298.026316 L 551.8 298.026316 L 551.6 297.434211 L 551.3 297.631579 C 551.2 297.631579 551.1 297.532895 551 297.335526 C 550.7 297.039474 550.6 297.532895 550.3 297.434211 C 550.1 297.236842 549.9 297.039474 549.8 296.743421 C 549.7 296.348684 549.5 296.25 549.3 296.348684 C 549.2 296.546053 549.2 296.743421 549.3 297.039474 L 548.8 297.039474 C 548.7 297.039474 548.6 297.039474 548.5 297.236842 C 548.4 297.631579 548.1 297.828947 547.8 297.828947 L 547.4 297.828947 L 546.9 298.026316 L 546.5 298.026316 L 546.1 297.631579 L 545.8 297.434211 C 545.7 297.434211 545.6 297.532895 545.5 297.730263 L 545.4 298.223684 L 545.1 298.618421 L 544.7 298.717105 C 544.5 298.717105 544.3 299.013158 544.3 298.717105 C 544.1 298.322368 544.6 297.631579 544.1 297.730263 C 544 297.730263 543.9 297.730263 543.8 297.927632 L 543.8 298.618421 C 543.7 298.914474 543.1 299.407895 543.2 299.605263 C 543.2 299.901316 543.6 299.605263 543.6 299.605263 L 543.8 300 C 544 300.296053 544.5 299.605263 544.5 300 M 542.4 297.335526 L 542.4 297.138158 L 542 297.039474 C 541.8 297.039474 541.6 297.236842 541.5 297.434211 C 541.3 297.828947 541.3 298.421053 540.9 298.421053 L 540.4 298.421053 L 540.4 299.407895 C 540.4 299.407895 540.2 299.407895 540.2 299.605263 C 540.2 299.901316 540.3 299.901316 540.6 299.802632 L 541.6 299.802632 L 542.1 299.703947 C 542.3 299.703947 542.5 299.605263 542.6 299.506579 L 542.8 299.111842 L 542.8 298.717105 C 542.9 298.618421 543 298.519737 543.1 298.322368 C 543.2 297.631579 542.5 298.125 542.6 297.434211 " transform="matrix(0.0390625,0,0,0.0395833,0,0)"/>
<path style="fill-rule:nonzero;fill:rgb(0%,0%,0%);fill-opacity:1;stroke-width:0.5;stroke-linecap:butt;stroke-linejoin:miter;stroke:rgb(0%,0%,0%);stroke-opacity:1;stroke-miterlimit:4.8;" d="M 550.8 277.894737 C 550.7 278.881579 550.3 279.473684 549.4 279.473684 C 548.6 279.473684 548.1 278.881579 548 277.894737 C 548.1 276.907895 548.6 276.414474 549.4 276.315789 C 550.3 276.414474 550.7 276.907895 550.8 277.894737 Z M 546.3 275.921053 C 546.2 276.907895 545.8 277.401316 544.9 277.5 C 543.6 277.598684 543.5 276.809211 543.5 275.921053 C 543.6 274.835526 544.1 274.342105 544.9 274.342105 C 546.1 274.342105 546.3 275.032895 546.3 275.921053 Z M 546.3 275.921053 " transform="matrix(0.0390625,0,0,0.0395833,0,0)"/>
<path style="fill-rule:nonzero;fill:rgb(0%,0%,0%);fill-opacity:1;stroke-width:0.5;stroke-linecap:butt;stroke-linejoin:miter;stroke:rgb(0%,0%,0%);stroke-opacity:1;stroke-miterlimit:4.8;" d="M 548.7 276.513158 C 548.6 277.598684 548.2 278.092105 547.3 278.092105 C 546.4 277.993421 546 277.5 545.9 276.513158 C 546 275.526316 546.4 274.934211 547.3 274.934211 C 548.2 274.934211 548.6 275.526316 548.7 276.513158 Z M 548.7 276.513158 " transform="matrix(0.0390625,0,0,0.0395833,0,0)"/>
<path style="fill-rule:nonzero;fill:rgb(0%,0%,0%);fill-opacity:1;stroke-width:0.5;stroke-linecap:butt;stroke-linejoin:miter;stroke:rgb(0%,0%,0%);stroke-opacity:1;stroke-miterlimit:4.8;" d="M 546.4 277.993421 C 546.3 278.980263 545.9 279.572368 545 279.572368 C 544.1 279.572368 543.7 278.980263 543.6 277.993421 C 543.7 277.006579 544.1 276.513158 545 276.414474 C 545.9 276.513158 546.3 277.006579 546.4 277.993421 Z M 546.4 277.993421 " transform="matrix(0.0390625,0,0,0.0395833,0,0)"/>
<path style="fill-rule:nonzero;fill:rgb(0%,0%,0%);fill-opacity:1;stroke-width:0.5;stroke-linecap:butt;stroke-linejoin:miter;stroke:rgb(0%,0%,0%);stroke-opacity:1;stroke-miterlimit:4.8;" d="M 548.5 279.276316 C 548.4 280.263158 548 280.756579 547.1 280.855263 C 546.3 280.855263 545.8 280.263158 545.7 279.276316 C 545.8 278.190789 546.3 277.697368 547.1 277.598684 C 548 277.697368 548.4 278.190789 548.5 279.177632 Z M 548.5 279.276316 " transform="matrix(0.0390625,0,0,0.0395833,0,0)"/>
<path style="fill-rule:nonzero;fill:rgb(0%,65.098041%,31.764707%);fill-opacity:1;stroke-width:0.5;stroke-linecap:butt;stroke-linejoin:miter;stroke:rgb(0%,0%,0%);stroke-opacity:1;stroke-miterlimit:4.8;" d="M 549.2 261.513158 C 549.2 261.513158 563.1 242.072368 578 262.203947 C 578 262.203947 578.1 264.177632 576.7 266.447368 L 576.4 264.671053 L 575.4 264.967105 L 575.2 263.980263 L 573.6 263.881579 L 574.1 261.710526 L 572.4 263.092105 L 572.6 261.611842 L 570.6 263.585526 L 570.9 259.342105 L 568.7 262.993421 L 569 260.526316 L 568.2 261.611842 L 567.8 260.131579 L 567.1 261.611842 L 566.1 260.921053 L 566.1 261.907895 L 564.3 260.427632 L 563.7 262.401316 L 562.8 260.230263 L 562.6 261.710526 L 561.7 260.032895 L 561.6 261.907895 L 558.7 260.625 L 559.3 262.401316 L 558 261.414474 L 558.2 262.401316 L 556.3 262.006579 L 556.5 263.092105 L 554.5 262.697368 L 554.8 263.684211 L 552.1 263.388158 L 553.1 264.375 L 552.8 264.967105 C 552.8 264.967105 567.8 260.032895 568.8 278.782895 L 566.1 280.065789 L 566.9 278.585526 L 566.1 278.092105 L 563.8 276.414474 L 564.5 274.046053 L 563.7 274.342105 L 563.6 272.861842 L 563.2 273.059211 L 562.3 271.776316 L 562.1 272.269737 L 561.5 270.592105 L 560.8 271.776316 L 560.5 269.013158 L 559.5 270.789474 L 559.3 269.802632 L 559 270.394737 L 557.7 268.914474 L 557.3 269.901316 L 556.8 269.111842 L 556.5 270.098684 L 555.1 268.717105 L 555.1 269.703947 L 554.1 269.013158 L 553.8 269.506579 L 551.7 268.421053 L 551.6 269.407895 L 550.4 268.421053 L 550.1 269.407895 C 550.1 269.407895 563.7 277.203947 559.5 289.835526 L 558.7 291.414474 L 558.5 287.171053 L 557.2 289.440789 L 558.1 284.506579 L 557.2 285.493421 L 557.1 283.519737 L 556 285.493421 L 555.6 283.322368 L 555.1 283.914474 L 554.3 280.657895 L 553.7 282.039474 L 552.7 278.388158 L 551.9 279.868421 L 551.4 276.809211 L 550.9 278.684211 L 549.4 275.921053 L 549.2 277.006579 L 548.3 274.835526 L 547.8 275.526316 C 547.8 275.526316 545.3 275.427632 544.5 274.835526 C 543.7 274.243421 541.7 278.486842 541.7 278.486842 L 541.9 275.921053 L 541 277.697368 L 541 275.921053 L 539.4 281.151316 L 539 277.401316 L 538.2 280.657895 L 537.8 279.671053 L 537.5 280.953947 L 537 280.460526 L 536.6 282.039474 L 535.8 281.447368 L 535.8 283.421053 L 535 282.434211 L 534.4 285.394737 L 534 284.210526 L 534 285.493421 L 533.4 284.802632 L 532.8 287.763158 L 531.8 286.480263 L 531.8 288.651316 L 532.1 290.328947 L 531.1 289.835526 L 531.5 292.401316 C 531.5 292.401316 527.6 285.197368 532.3 278.190789 C 536.9 271.184211 543.2 269.210526 543.2 269.210526 L 542.5 268.618421 L 542.5 268.026316 L 538.7 269.901316 L 538.7 268.815789 L 537.7 269.605263 L 537.5 268.421053 L 536.9 269.506579 L 536.8 269.013158 L 535.8 270.394737 L 535.4 268.421053 L 534.8 270.789474 L 534.2 269.111842 L 532.9 272.565789 L 532.9 270 L 531.9 272.763158 L 531.5 269.802632 L 530.8 273.157895 L 530.8 270.197368 L 529.6 273.157895 L 528.9 270.197368 L 528.4 273.157895 L 527.6 270.888158 L 526.9 274.342105 L 525.7 271.282895 L 525.1 275.822368 L 524.4 274.046053 L 524.2 277.302632 L 523.4 275.328947 L 524.2 279.473684 L 523.2 277.894737 L 523.5 280.460526 L 521.9 277.598684 L 521.9 280.953947 L 521.1 279.868421 L 520.7 281.151316 C 520.7 281.151316 520.4 268.223684 529.3 265.559211 C 538.2 262.993421 543.9 266.447368 543.9 266.447368 L 540.5 263.585526 L 540.9 262.697368 L 539.7 262.697368 L 540.2 261.710526 L 537.5 261.809211 L 538.3 260.822368 L 536.3 261.118421 L 536.3 260.526316 L 535 261.513158 L 535.5 260.328947 L 533.8 261.513158 L 533.7 259.835526 L 532.7 261.217105 L 532.3 259.736842 L 528.3 263.684211 L 529.3 259.638158 L 528.6 260.526316 L 528.5 259.539474 L 527.4 261.315789 L 527.1 260.131579 L 526.6 261.611842 L 526.2 259.835526 L 525.4 261.611842 L 524.4 260.032895 L 524.1 262.105263 L 523.5 261.019737 L 522.7 262.598684 L 521.7 261.611842 L 521.7 262.598684 L 519.7 261.710526 L 520.1 263.190789 L 518.6 262.006579 L 518.2 263.980263 L 517.4 262.993421 L 516.7 265.460526 L 516.1 263.092105 L 515.5 264.967105 C 515.5 264.967105 523.3 244.835526 543.1 257.960526 C 543.1 257.960526 545.3 260.131579 545.8 261.611842 C 546.3 263.092105 545.9 261.809211 545.9 261.809211 L 545.5 247.894737 L 546.3 253.914474 L 546.8 251.940789 L 546.7 254.901316 L 548.7 250.559211 C 548.7 250.559211 546.3 257.763158 547.2 260.526316 C 547.2 260.526316 548.1 252.138158 551.1 251.052632 L 548.3 257.072368 L 549.2 256.973684 L 548.6 258.157895 L 549.3 258.157895 L 548.4 260.230263 L 547.9 261.217105 L 548.4 262.203947 Z M 549.2 261.513158 " transform="matrix(0.0390625,0,0,0.0395833,0,0)"/>
<path style=" stroke:none;fill-rule:nonzero;fill:rgb(0%,0%,0%);fill-opacity:1;" d="M 21.371094 10.671875 L 21.386719 10.6875 C 21.386719 10.6875 21.4375 10.632812 21.519531 10.703125 L 21.53125 10.6875 C 21.433594 10.605469 21.375 10.671875 21.375 10.671875 Z M 21.347656 10.402344 L 21.347656 10.421875 L 21.382812 10.40625 L 21.355469 10.453125 L 21.414062 10.433594 L 21.34375 10.523438 L 21.359375 10.535156 L 21.472656 10.390625 L 21.402344 10.414062 L 21.433594 10.363281 L 21.371094 10.386719 L 21.382812 10.3125 L 21.363281 10.3125 Z M 21.347656 10.402344 "/>
<path style=" stroke:none;fill-rule:nonzero;fill:rgb(0%,0%,0%);fill-opacity:1;" d="M 21.246094 10.410156 L 21.269531 10.460938 L 21.230469 10.445312 L 21.34375 10.652344 L 21.359375 10.632812 L 21.335938 10.691406 L 21.355469 10.699219 L 21.402344 10.574219 L 21.386719 10.5625 L 21.347656 10.613281 L 21.277344 10.488281 L 21.308594 10.5 L 21.277344 10.433594 L 21.320312 10.457031 L 21.320312 10.382812 L 21.300781 10.382812 L 21.300781 10.421875 L 21.230469 10.378906 Z M 21.171875 10.664062 L 21.179688 10.683594 C 21.210938 10.671875 21.238281 10.667969 21.257812 10.675781 C 21.277344 10.691406 21.285156 10.703125 21.285156 10.714844 L 21.304688 10.707031 C 21.304688 10.707031 21.296875 10.671875 21.265625 10.660156 C 21.242188 10.648438 21.210938 10.648438 21.171875 10.664062 M 21.261719 10.878906 L 21.242188 10.765625 L 21.265625 10.765625 L 21.28125 10.875 Z M 21.410156 10.863281 L 21.382812 10.773438 L 21.402344 10.769531 L 21.429688 10.851562 Z M 21.464844 10.921875 L 21.445312 10.839844 L 21.464844 10.832031 L 21.488281 10.917969 Z M 21.464844 10.921875 "/>
<path style="fill-rule:nonzero;fill:rgb(0%,65.098041%,31.764707%);fill-opacity:1;stroke-width:0.5;stroke-linecap:butt;stroke-linejoin:miter;stroke:rgb(0%,0%,0%);stroke-opacity:1;stroke-miterlimit:4.8;" d="M 442.6 340.164474 C 442.6 340.164474 440.2 339.177632 439.1 339.967105 C 438.1 340.657895 438.2 341.940789 437.3 341.842105 C 437.3 341.842105 440.9 342.631579 441.6 341.743421 L 442.6 340.460526 M 443 341.151316 C 443 341.151316 441.4 343.223684 442 344.506579 C 442.5 345.690789 443.7 345.789474 443.4 346.677632 C 443.4 346.677632 444.9 343.421053 444.2 342.434211 C 443.5 341.447368 443.2 341.348684 443.2 341.348684 M 440.4 335.526316 C 440.4 335.526316 437.9 336.315789 437.6 337.5 C 437.4 338.881579 438.2 339.572368 437.5 340.164474 C 437.5 340.164474 440.7 338.388158 440.6 337.203947 L 440.6 335.723684 M 441.8 336.414474 C 441.8 336.414474 443 334.144737 442.3 332.960526 C 441.5 331.776316 440.3 331.973684 440.5 330.986842 C 440.5 330.986842 439.5 334.539474 440.5 335.427632 L 441.6 336.414474 M 439.4 335.526316 C 439.4 335.526316 439.4 332.861842 438.4 332.269737 C 437.2 331.578947 436.2 332.171053 435.9 331.282895 C 435.9 331.282895 436.6 334.934211 437.7 335.328947 L 439.2 335.625 M 443.6 339.769737 C 443.6 339.769737 446.3 338.782895 446.6 341.842105 C 446.9 344.802632 446.4 343.815789 446.4 343.815789 C 446.4 343.815789 445 340.559211 443.4 340.065789 Z M 443.6 339.769737 " transform="matrix(0.0390625,0,0,0.0395833,0,0)"/>
<path style=" stroke:none;fill-rule:nonzero;fill:rgb(0%,0%,0%);fill-opacity:1;" d="M 17.304688 13.511719 L 17.3125 13.597656 L 17.328125 13.597656 L 17.316406 13.511719 L 17.355469 13.316406 L 17.339844 13.316406 L 17.300781 13.511719 Z M 17.304688 13.511719 "/>
<path style=" stroke:none;fill-rule:nonzero;fill:rgb(0%,0%,0%);fill-opacity:1;" d="M 17.207031 13.480469 L 17.203125 13.492188 C 17.253906 13.515625 17.320312 13.453125 17.324219 13.453125 L 17.316406 13.441406 C 17.316406 13.441406 17.25 13.492188 17.207031 13.480469 M 17.339844 13.367188 L 17.105469 13.25 L 17.113281 13.230469 L 17.347656 13.347656 Z M 17.339844 13.367188 "/>
<path style=" stroke:none;fill-rule:nonzero;fill:rgb(0%,0%,0%);fill-opacity:1;" d="M 17.167969 13.339844 L 17.152344 13.324219 L 17.199219 13.277344 L 17.214844 13.292969 Z M 17.25 13.316406 L 17.199219 13.203125 L 17.21875 13.195312 L 17.269531 13.308594 Z M 17.320312 13.449219 L 17.320312 13.472656 C 17.386719 13.46875 17.398438 13.515625 17.398438 13.515625 L 17.421875 13.503906 C 17.421875 13.492188 17.394531 13.445312 17.320312 13.449219 "/>
<path style="fill-rule:nonzero;fill:rgb(100%,100%,100%);fill-opacity:1;stroke-width:0.7;stroke-linecap:butt;stroke-linejoin:miter;stroke:rgb(0%,0%,0%);stroke-opacity:1;stroke-miterlimit:4.8;" d="M 471.2 340.953947 C 473.2 339.967105 473.6 336.019737 473.6 336.019737 C 473.1 337.401316 469.4 338.881579 469.4 338.881579 C 472.1 337.203947 475.4 329.506579 475.4 329.506579 C 474.6 332.171053 467.4 334.539474 462.8 337.105263 C 458.2 339.671053 460.6 347.072368 460.6 347.072368 C 459.3 346.184211 456.8 342.335526 456.3 338.782895 C 455.8 335.328947 454.5 333.947368 451.3 333.453947 C 448.2 333.059211 446.3 336.710526 446.3 336.710526 L 441.6 339.078947 L 446.4 339.276316 C 446.4 339.276316 449.8 340.361842 449.8 343.125 C 449.8 345.789474 446.8 356.447368 451.8 362.368421 C 455.1 366.513158 467.8 368.881579 467.8 368.881579 " transform="matrix(0.0390625,0,0,0.0395833,0,0)"/>
<path style="fill-rule:nonzero;fill:rgb(100%,100%,100%);fill-opacity:1;stroke-width:0.7;stroke-linecap:butt;stroke-linejoin:miter;stroke:rgb(0%,0%,0%);stroke-opacity:1;stroke-miterlimit:4.8;" d="M 461.9 349.342105 C 461.9 349.342105 462.9 344.506579 466 344.703947 C 469.1 344.901316 470 341.052632 471.9 340.559211 C 473.8 339.967105 483.4 337.401316 484.4 332.763158 C 484.4 332.763158 483.5 340.361842 474.7 344.210526 C 474.7 344.210526 481.8 341.940789 482.7 340.263158 C 482.7 340.263158 479.5 347.072368 471.8 348.157895 C 471.8 348.157895 479 347.565789 480 345.690789 C 480 345.690789 476.8 349.934211 471.5 350.526316 C 471.5 350.526316 476.5 352.5 477.7 350.822368 C 477.7 350.822368 475 353.980263 471.7 354.177632 L 472.7 354.375 C 472.7 354.375 469.5 358.223684 466 355.657895 C 462.5 353.190789 462.4 356.348684 462.4 356.348684 " transform="matrix(0.0390625,0,0,0.0395833,0,0)"/>
<path style="fill-rule:nonzero;fill:rgb(100%,100%,100%);fill-opacity:1;stroke-width:0.7;stroke-linecap:butt;stroke-linejoin:miter;stroke:rgb(0%,0%,0%);stroke-opacity:1;stroke-miterlimit:4.8;" d="M 469 356.546053 C 469 356.546053 473.1 363.256579 473.5 366.907895 C 473.5 366.907895 481.3 375.394737 484.2 375.888158 C 484.2 375.888158 482.8 376.480263 480.2 374.407895 C 480.2 374.407895 482.4 376.578947 482.8 376.677632 C 483.2 376.776316 481.1 376.480263 480.8 375.888158 L 482.2 377.368421 L 481.7 377.171053 C 481.7 377.171053 480.7 377.072368 480.1 376.677632 C 479.6 376.282895 480 377.664474 480 377.664474 C 480 377.664474 478.8 377.368421 478.4 376.973684 C 478 376.578947 478.5 377.861842 478.5 377.861842 L 477.5 377.565789 L 476.7 378.059211 C 476.7 378.059211 476.7 378.552632 476.2 378.059211 C 475.7 377.763158 474.8 378.059211 474.8 378.059211 C 474.8 378.059211 474.2 378.651316 473.8 378.256579 C 473.5 377.861842 472.3 379.934211 472.3 379.934211 L 467.3 367.598684 " transform="matrix(0.0390625,0,0,0.0395833,0,0)"/>
<path style=" stroke:none;fill-rule:nonzero;fill:rgb(0%,0%,0%);fill-opacity:1;" d="M 18.511719 14.988281 L 18.261719 14.507812 L 18.285156 14.492188 L 18.535156 14.976562 Z M 18.730469 14.957031 L 18.300781 14.472656 L 18.324219 14.453125 L 18.753906 14.9375 Z M 18.828125 14.917969 L 18.339844 14.449219 L 18.359375 14.429688 L 18.847656 14.890625 Z M 18.828125 14.917969 "/>
<path style=" stroke:none;fill-rule:nonzero;fill:rgb(0%,0%,0%);fill-opacity:1;" d="M 17.597656 13.355469 C 17.597656 13.355469 17.566406 13.296875 17.539062 13.320312 C 17.515625 13.339844 17.5 13.347656 17.492188 13.34375 C 17.492188 13.34375 17.519531 13.34375 17.539062 13.332031 C 17.554688 13.3125 17.574219 13.320312 17.597656 13.355469 Z M 17.429688 13.328125 L 17.445312 13.363281 L 17.425781 13.425781 L 17.441406 13.429688 L 17.460938 13.363281 L 17.441406 13.324219 Z M 17.429688 13.328125 "/>
<path style=" stroke:none;fill-rule:nonzero;fill:rgb(0%,0%,0%);fill-opacity:1;" d="M 17.59375 13.347656 C 17.59375 13.347656 17.566406 13.375 17.539062 13.367188 L 17.503906 13.359375 L 17.550781 13.359375 C 17.566406 13.359375 17.589844 13.351562 17.59375 13.347656 "/>
<path style=" stroke:none;fill-rule:nonzero;fill:rgb(0%,0%,0%);fill-opacity:1;" d="M 17.585938 13.351562 C 17.585938 13.351562 17.554688 13.320312 17.535156 13.332031 C 17.535156 13.332031 17.570312 13.316406 17.589844 13.347656 Z M 17.585938 13.351562 "/>
<path style=" stroke:none;fill-rule:nonzero;fill:rgb(0%,0%,0%);fill-opacity:1;" d="M 17.582031 13.347656 C 17.582031 13.347656 17.546875 13.371094 17.511719 13.347656 L 17.507812 13.339844 L 17.515625 13.339844 C 17.515625 13.339844 17.558594 13.359375 17.582031 13.347656 "/>
<path style=" stroke:none;fill-rule:nonzero;fill:rgb(0%,0%,0%);fill-opacity:1;" d="M 17.5625 13.339844 C 17.5625 13.335938 17.558594 13.332031 17.550781 13.332031 C 17.546875 13.332031 17.542969 13.335938 17.542969 13.339844 C 17.542969 13.347656 17.546875 13.351562 17.550781 13.351562 C 17.558594 13.351562 17.5625 13.347656 17.5625 13.339844 Z M 17.5625 13.339844 "/>
<path style=" stroke:none;fill-rule:nonzero;fill:rgb(0%,0%,0%);fill-opacity:1;" d="M 17.578125 14.234375 C 17.578125 14.234375 17.550781 14.28125 17.566406 14.3125 C 17.578125 14.339844 17.644531 14.351562 17.648438 14.390625 C 17.652344 14.433594 17.679688 14.433594 17.707031 14.433594 L 17.742188 14.421875 C 17.742188 14.421875 17.621094 14.355469 17.585938 14.25 Z M 17.578125 14.234375 "/>
<path style="fill-rule:nonzero;fill:rgb(58.823532%,29.411766%,21.176471%);fill-opacity:1;stroke-width:0.3;stroke-linecap:butt;stroke-linejoin:miter;stroke:rgb(0%,0%,0%);stroke-opacity:1;stroke-miterlimit:4.8;" d="M 549.4 334.835526 C 549.4 334.835526 555 327.434211 560 329.309211 C 565 331.184211 568.1 332.269737 568.1 332.269737 C 568.1 332.269737 568.2 337.203947 565.6 337.203947 C 563 337.203947 560.4 332.171053 558 333.651316 C 556.2 334.736842 554.6 336.118421 553.5 337.894737 C 553.4 338.585526 547.2 338.684211 549.4 334.835526 Z M 549.4 334.835526 " transform="matrix(0.0390625,0,0,0.0395833,0,0)"/>
<path style="fill-rule:nonzero;fill:rgb(58.823532%,29.411766%,21.176471%);fill-opacity:1;stroke-width:0.5;stroke-linecap:butt;stroke-linejoin:miter;stroke:rgb(0%,0%,0%);stroke-opacity:1;stroke-miterlimit:4.8;" d="M 528.2 370.361842 C 528.2 370.361842 526.6 372.039474 527.3 372.434211 C 528 372.828947 529.4 372.434211 529.4 371.842105 C 529.4 371.151316 528.4 370.164474 528.2 370.361842 Z M 528.2 370.361842 " transform="matrix(0.0390625,0,0,0.0395833,0,0)"/>
<path style="fill-rule:nonzero;fill:rgb(58.823532%,29.411766%,21.176471%);fill-opacity:1;stroke-width:0.5;stroke-linecap:butt;stroke-linejoin:miter;stroke:rgb(0%,0%,0%);stroke-opacity:1;stroke-miterlimit:4.8;" d="M 527 372.039474 C 527 372.039474 524 370.263158 521.8 374.210526 C 519.5 377.960526 517.7 384.276316 516.4 385.164474 C 515.1 385.953947 529.2 379.046053 529.4 375.986842 C 529.4 375.986842 530.3 372.236842 528.8 372.335526 C 527.3 372.434211 527.2 372.532895 526.9 371.940789 Z M 527 372.039474 " transform="matrix(0.0390625,0,0,0.0395833,0,0)"/>
<path style="fill-rule:nonzero;fill:rgb(58.823532%,29.411766%,21.176471%);fill-opacity:1;stroke-width:0.3;stroke-linecap:butt;stroke-linejoin:miter;stroke:rgb(0%,0%,0%);stroke-opacity:1;stroke-miterlimit:4.8;" d="M 527.3 372.434211 C 527.3 372.434211 524.3 373.125 523.7 377.269737 C 523.1 381.513158 519 383.585526 518.7 383.782895 M 568.1 332.171053 C 568.1 332.171053 563.7 333.848684 564.4 336.907895 " transform="matrix(0.0390625,0,0,0.0395833,0,0)"/>
<path style="fill-rule:nonzero;fill:rgb(100%,94.901961%,0%);fill-opacity:1;stroke-width:0.3;stroke-linecap:butt;stroke-linejoin:miter;stroke:rgb(0%,0%,0%);stroke-opacity:1;stroke-miterlimit:4.8;" d="M 533.7 341.348684 C 533.7 341.348684 533.9 330.690789 542.6 331.085526 C 544.2 331.282895 543.4 333.157895 543.4 333.157895 C 543.4 333.157895 545.4 331.875 546.2 334.046053 C 546.2 334.046053 548.9 332.763158 549.2 335.526316 C 549.2 335.526316 552.2 335.131579 551.8 337.5 C 551.8 337.5 553.8 337.006579 553.8 338.684211 C 553.8 338.684211 556.1 337.796053 555.8 340.164474 C 555.8 340.164474 558.4 338.486842 558.1 341.644737 C 558.1 341.644737 560.7 339.671053 561.6 342.828947 C 562.6 345.986842 559 352.598684 555.5 354.276316 " transform="matrix(0.0390625,0,0,0.0395833,0,0)"/>
<path style=" stroke:none;fill-rule:nonzero;fill:rgb(0%,0%,0%);fill-opacity:1;" d="M 21.792969 13.539062 C 21.792969 13.539062 21.835938 13.863281 21.65625 13.984375 L 21.660156 13.992188 C 21.851562 13.875 21.804688 13.539062 21.804688 13.535156 L 21.792969 13.535156 Z M 21.570312 13.894531 L 21.578125 13.902344 C 21.695312 13.785156 21.722656 13.480469 21.722656 13.464844 L 21.710938 13.464844 C 21.710938 13.464844 21.683594 13.78125 21.570312 13.894531 M 21.464844 13.820312 L 21.476562 13.820312 C 21.5 13.671875 21.554688 13.535156 21.636719 13.410156 L 21.628906 13.40625 C 21.628906 13.40625 21.480469 13.625 21.464844 13.820312 M 21.378906 13.761719 L 21.390625 13.761719 C 21.410156 13.539062 21.5625 13.367188 21.5625 13.363281 L 21.554688 13.355469 C 21.554688 13.355469 21.398438 13.535156 21.378906 13.761719 M 21.261719 13.683594 L 21.273438 13.683594 C 21.285156 13.417969 21.460938 13.289062 21.460938 13.289062 L 21.453125 13.277344 C 21.453125 13.277344 21.273438 13.410156 21.257812 13.6875 Z M 21.152344 13.621094 L 21.164062 13.621094 C 21.15625 13.375 21.339844 13.226562 21.34375 13.226562 L 21.335938 13.21875 C 21.335938 13.21875 21.140625 13.367188 21.152344 13.621094 M 20.957031 13.53125 L 20.96875 13.53125 C 20.984375 13.375 21.089844 13.246094 21.234375 13.195312 L 21.234375 13.183594 C 21.085938 13.238281 20.980469 13.371094 20.957031 13.53125 "/>
<path style="fill-rule:nonzero;fill:rgb(0%,65.098041%,31.764707%);fill-opacity:1;stroke-width:0.3;stroke-linecap:butt;stroke-linejoin:miter;stroke:rgb(0%,0%,0%);stroke-opacity:1;stroke-miterlimit:4.8;" d="M 528.6 354.177632 C 528.6 354.177632 527.1 344.309211 533 341.151316 C 533 341.151316 534.1 340.953947 534.7 342.434211 C 534.7 342.434211 537.8 341.052632 537.9 343.717105 C 537.9 343.717105 539.5 342.532895 539.9 344.210526 C 539.9 344.210526 543.2 343.519737 542.6 345.986842 C 542.6 345.986842 545.4 345.197368 545.1 347.565789 C 545.1 347.565789 547.9 346.578947 547.5 348.552632 C 547.5 348.552632 550.5 347.960526 549.7 350.427632 C 549.7 350.427632 553.4 350.032895 552.3 352.5 C 552.3 352.5 555 351.809211 554.3 353.881579 C 554.3 353.881579 557.9 354.572368 556.3 356.940789 C 553.7 360 550.3 362.467105 546.5 363.947368 " transform="matrix(0.0390625,0,0,0.0395833,0,0)"/>
<path style="fill-rule:nonzero;fill:rgb(0%,65.098041%,31.764707%);fill-opacity:1;stroke-width:0.3;stroke-linecap:butt;stroke-linejoin:miter;stroke:rgb(0%,0%,0%);stroke-opacity:1;stroke-miterlimit:4.8;" d="M 525.4 364.144737 C 525.4 364.144737 523 355.855263 527.6 353.782895 C 527.6 353.782895 528.5 353.585526 528.6 354.375 C 528.6 354.375 529.6 353.092105 530.4 354.276316 C 530.4 354.276316 532.7 353.190789 533.3 354.868421 C 533.3 354.868421 534.8 353.585526 535.6 355.460526 C 535.6 355.460526 537.1 354.868421 537.1 356.546053 C 537.1 356.546053 539.1 355.460526 539.1 357.532895 C 539.1 357.532895 541.1 356.743421 540.6 358.717105 C 540.6 358.717105 543.6 359.210526 542.7 360.592105 C 542.7 360.592105 545.4 361.282895 544.4 362.368421 C 544.4 362.368421 547.2 362.072368 545.7 364.046053 C 545.7 364.046053 547.9 363.256579 546.7 365.723684 C 545.5 368.092105 541.5 370.657895 538.7 371.052632 " transform="matrix(0.0390625,0,0,0.0395833,0,0)"/>
<path style="fill-rule:nonzero;fill:rgb(0%,65.098041%,31.764707%);fill-opacity:1;stroke-width:0.3;stroke-linecap:butt;stroke-linejoin:miter;stroke:rgb(0%,0%,0%);stroke-opacity:1;stroke-miterlimit:4.8;" d="M 528.3 370.559211 C 528.3 370.559211 523.2 365.625 525.6 364.243421 C 525.6 364.243421 526.6 364.539474 527.1 365.625 C 527.1 365.625 528.3 363.848684 529.1 365.625 C 529.1 365.625 530.9 365.032895 530.9 366.315789 L 532.3 367.302632 C 532.3 367.302632 534 367.203947 533.7 368.289474 C 533.7 368.289474 535.6 367.993421 535.5 368.980263 C 535.5 368.980263 537.1 369.078947 537 370.164474 C 537 370.164474 539.8 370.657895 538.5 372.138158 C 538.5 372.138158 533.7 373.125 530.2 371.743421 C 530.2 371.743421 528.5 371.052632 528.3 370.559211 Z M 528.3 370.559211 " transform="matrix(0.0390625,0,0,0.0395833,0,0)"/>
<path style=" stroke:none;fill-rule:nonzero;fill:rgb(0%,0%,0%);fill-opacity:1;" d="M 21.324219 14.34375 L 21.324219 14.355469 C 21.453125 14.261719 21.570312 14.144531 21.660156 14.011719 L 21.648438 14.003906 C 21.648438 14.007812 21.4375 14.300781 21.324219 14.34375 M 21.253906 14.292969 L 21.261719 14.304688 C 21.363281 14.246094 21.570312 13.96875 21.574219 13.957031 L 21.570312 13.949219 C 21.566406 13.953125 21.355469 14.234375 21.257812 14.292969 Z M 21.195312 14.269531 L 21.203125 14.277344 C 21.3125 14.15625 21.402344 14.015625 21.476562 13.871094 L 21.46875 13.867188 C 21.46875 13.867188 21.304688 14.179688 21.195312 14.269531 M 21.144531 14.199219 L 21.15625 14.199219 C 21.175781 14.046875 21.390625 13.808594 21.390625 13.800781 L 21.378906 13.796875 C 21.371094 13.808594 21.164062 14.042969 21.144531 14.199219 M 20.71875 14.011719 L 20.730469 14.011719 C 20.714844 13.792969 20.890625 13.558594 20.894531 13.558594 L 20.882812 13.550781 C 20.882812 13.550781 20.699219 13.792969 20.71875 14.011719 M 20.832031 14.03125 L 20.84375 14.03125 C 20.8125 13.859375 21.015625 13.613281 21.015625 13.609375 L 21.007812 13.601562 C 21 13.613281 20.800781 13.855469 20.832031 14.03125 M 21.003906 14.09375 L 21.015625 14.09375 C 21.007812 13.898438 21.195312 13.699219 21.199219 13.699219 L 21.191406 13.6875 C 21.191406 13.691406 20.996094 13.894531 21.003906 14.09375 M 20.59375 14.453125 L 20.605469 14.453125 C 20.535156 14.265625 20.652344 14.03125 20.65625 14.03125 L 20.644531 14.023438 C 20.644531 14.023438 20.523438 14.265625 20.59375 14.457031 Z M 20.671875 14.46875 L 20.683594 14.464844 C 20.621094 14.277344 20.722656 14.027344 20.722656 14.027344 L 20.714844 14.019531 C 20.714844 14.019531 20.609375 14.277344 20.671875 14.46875 M 20.996094 14.652344 L 20.996094 14.660156 C 21.191406 14.59375 21.320312 14.414062 21.320312 14.414062 L 21.308594 14.40625 C 21.308594 14.40625 21.183594 14.582031 20.996094 14.652344 M 20.957031 14.609375 L 20.957031 14.621094 C 21.113281 14.550781 21.257812 14.351562 21.257812 14.351562 L 21.25 14.34375 C 21.25 14.34375 21.105469 14.542969 20.957031 14.609375 M 20.917969 14.59375 L 20.925781 14.605469 C 21.042969 14.515625 21.199219 14.289062 21.199219 14.289062 L 21.191406 14.28125 C 21.191406 14.28125 21.035156 14.507812 20.917969 14.59375 M 20.722656 14.480469 L 20.738281 14.480469 C 20.730469 14.328125 20.765625 14.179688 20.835938 14.046875 L 20.824219 14.042969 C 20.824219 14.042969 20.699219 14.28125 20.726562 14.480469 Z M 20.808594 14.535156 L 20.816406 14.542969 C 20.941406 14.429688 20.984375 14.125 20.984375 14.109375 L 20.972656 14.109375 C 20.972656 14.109375 20.933594 14.425781 20.808594 14.535156 M 20.894531 14.566406 L 20.902344 14.578125 C 21.015625 14.480469 21.09375 14.347656 21.125 14.203125 L 21.113281 14.203125 C 21.113281 14.203125 21.066406 14.441406 20.894531 14.570312 Z M 20.914062 14.035156 L 20.914062 14.070312 L 20.78125 14.507812 L 20.792969 14.511719 L 20.925781 14.074219 C 20.90625 13.863281 21.089844 13.628906 21.09375 13.628906 L 21.082031 13.621094 C 21.082031 13.621094 20.914062 13.832031 20.914062 14.035156 "/>
<path style=" stroke:none;fill-rule:nonzero;fill:rgb(0%,0%,0%);fill-opacity:1;" d="M 21.054688 14.144531 C 21.054688 14.152344 21.011719 14.449219 20.851562 14.558594 L 20.859375 14.570312 C 21.023438 14.457031 21.0625 14.164062 21.0625 14.148438 C 21.132812 14.0625 21.296875 13.761719 21.296875 13.761719 L 21.289062 13.753906 C 21.289062 13.753906 21.125 14.054688 21.054688 14.144531 M 20.585938 14.472656 C 20.585938 14.476562 20.609375 14.628906 20.640625 14.675781 L 20.652344 14.671875 C 20.621094 14.621094 20.59375 14.472656 20.59375 14.46875 L 20.582031 14.472656 Z M 20.660156 14.472656 L 20.65625 14.679688 L 20.667969 14.679688 L 20.667969 14.472656 Z M 20.660156 14.472656 "/>
<path style=" stroke:none;fill-rule:nonzero;fill:rgb(0%,0%,0%);fill-opacity:1;" d="M 20.664062 14.683594 L 20.675781 14.6875 C 20.726562 14.578125 20.742188 14.5 20.742188 14.5 L 20.730469 14.5 C 20.730469 14.5 20.714844 14.574219 20.664062 14.683594 M 20.675781 14.6875 L 20.683594 14.703125 C 20.742188 14.664062 20.78125 14.609375 20.800781 14.542969 L 20.789062 14.542969 C 20.789062 14.542969 20.765625 14.636719 20.675781 14.6875 M 20.695312 14.699219 L 20.695312 14.710938 C 20.789062 14.703125 20.851562 14.585938 20.851562 14.578125 L 20.84375 14.578125 C 20.84375 14.578125 20.78125 14.6875 20.695312 14.699219 "/>
<path style=" stroke:none;fill-rule:nonzero;fill:rgb(0%,0%,0%);fill-opacity:1;" d="M 20.703125 14.707031 L 20.703125 14.71875 C 20.855469 14.707031 20.921875 14.613281 20.921875 14.609375 L 20.914062 14.605469 C 20.914062 14.605469 20.847656 14.691406 20.703125 14.707031 "/>
<path style=" stroke:none;fill-rule:nonzero;fill:rgb(0%,0%,0%);fill-opacity:1;" d="M 20.714844 14.707031 L 20.714844 14.71875 C 20.71875 14.71875 20.910156 14.761719 20.976562 14.660156 L 20.964844 14.652344 C 20.90625 14.75 20.714844 14.710938 20.714844 14.707031 "/>
<path style="fill:none;stroke-width:2.8;stroke-linecap:butt;stroke-linejoin:miter;stroke:rgb(0%,0%,0%);stroke-opacity:1;stroke-miterlimit:4.8;" d="M 420.9 193.223684 L 420.9 329.605263 C 420.9 374.210526 501.5 400.559211 501.5 400.559211 C 501.5 400.559211 582 374.210526 582 329.605263 L 582 193.223684 Z M 420.9 193.223684 " transform="matrix(0.0390625,0,0,0.0395833,0,0)"/>
<path style=" stroke:none;fill-rule:nonzero;fill:rgb(0.392157%,12.941177%,41.176471%);fill-opacity:1;" d="M 0 0 L 12.5 0 L 12.5 9.5 L 0 9.5 Z M 0 0 "/>
<path style=" stroke:none;fill-rule:nonzero;fill:rgb(100%,100%,100%);fill-opacity:1;" d="M 1.464844 0 L 6.230469 3.582031 L 10.976562 0 L 12.5 0 L 12.5 1.226562 L 7.8125 4.769531 L 12.5 8.292969 L 12.5 9.5 L 10.9375 9.5 L 6.25 5.957031 L 1.582031 9.5 L 0 9.5 L 0 8.3125 L 4.667969 4.789062 L 0 1.265625 L 0 0 Z M 1.464844 0 "/>
<path style=" stroke:none;fill-rule:nonzero;fill:rgb(78.431374%,6.27451%,18.039216%);fill-opacity:1;" d="M 8.28125 5.5625 L 12.5 8.707031 L 12.5 9.5 L 7.207031 5.5625 Z M 4.6875 5.957031 L 4.804688 6.648438 L 1.054688 9.5 L 0 9.5 Z M 12.5 0 L 12.5 0.0585938 L 7.636719 3.78125 L 7.675781 2.910156 L 11.523438 0 Z M 0 0 L 4.667969 3.484375 L 3.496094 3.484375 L 0 0.832031 Z M 0 0 "/>
<path style=" stroke:none;fill-rule:nonzero;fill:rgb(100%,100%,100%);fill-opacity:1;" d="M 4.707031 0 L 4.707031 9.5 L 7.832031 9.5 L 7.832031 0 Z M 0 3.167969 L 0 6.332031 L 12.5 6.332031 L 12.5 3.167969 Z M 0 3.167969 "/>
<path style=" stroke:none;fill-rule:nonzero;fill:rgb(78.431374%,6.27451%,18.039216%);fill-opacity:1;" d="M 0 3.820312 L 0 5.71875 L 12.5 5.71875 L 12.5 3.820312 Z M 5.332031 0 L 5.332031 9.5 L 7.207031 9.5 L 7.207031 0 Z M 5.332031 0 "/>
</g>
</svg>
