<svg xmlns="http://www.w3.org/2000/svg" width="25" height="19" viewBox="0 0 25 19"><defs><linearGradient id="a" x1="444.4" x2="470.9" y1="592.2" y2="577.1" gradientTransform="matrix(.85733 0 0 .9624 -162.4 -.6)" gradientUnits="userSpaceOnUse"><stop offset="0" style="stop-color:#a43907;stop-opacity:1"/><stop offset="1" style="stop-color:#fff;stop-opacity:1"/></linearGradient><linearGradient id="b" x1="444.4" x2="470.9" y1="592.2" y2="577.1" gradientTransform="matrix(-1.08448 0 0 1.26674 909.5 -414.7)" gradientUnits="userSpaceOnUse"><stop offset="0" style="stop-color:#a43907;stop-opacity:1"/><stop offset="1" style="stop-color:#fff;stop-opacity:1"/></linearGradient><linearGradient id="c" x1="458.2" x2="520.5" y1="562.5" y2="552.8" gradientTransform="matrix(-1.01941 0 0 1.3554 909.5 -414.7)" gradientUnits="userSpaceOnUse"><stop offset="0" style="stop-color:#a43907;stop-opacity:1"/><stop offset="1" style="stop-color:#fff;stop-opacity:1"/></linearGradient><linearGradient id="d" x1="472.4" x2="445.3" y1="578.7" y2="580.2" gradientTransform="matrix(1.08448 0 0 1.26674 49.7 -414.7)" gradientUnits="userSpaceOnUse"><stop offset="0" style="stop-color:#a43907;stop-opacity:1"/><stop offset="1" style="stop-color:#fff;stop-opacity:1"/></linearGradient><linearGradient id="e" x1="518" x2="456.4" y1="553.7" y2="558.1" gradientTransform="matrix(1.01941 0 0 1.3554 49.7 -414.7)" gradientUnits="userSpaceOnUse"><stop offset="0" style="stop-color:#a43907;stop-opacity:1"/><stop offset="1" style="stop-color:#fff;stop-opacity:1"/></linearGradient><linearGradient id="f" x1="851.8" x2="646.2" y1="369.9" y2="369.9" gradientTransform="matrix(.85733 0 0 .9624 -161.5 .3)" gradientUnits="userSpaceOnUse"><stop offset="0" style="stop-color:#a43907;stop-opacity:1"/><stop offset="1" style="stop-color:#fff;stop-opacity:1"/></linearGradient><linearGradient id="g" x1="388.5" x2="677.4" y1="507.2" y2="508.8" gradientTransform="matrix(.88927 0 0 1.54542 50.4 -413.6)" gradientUnits="userSpaceOnUse"><stop offset="0" style="stop-color:#a43907;stop-opacity:1"/><stop offset="1" style="stop-color:#fff;stop-opacity:1"/></linearGradient><linearGradient id="h" x1="579.8" x2="556.8" y1="504.9" y2="505.9" gradientTransform="matrix(.91096 0 0 1.52008 49.7 -414.7)" gradientUnits="userSpaceOnUse"><stop offset="0" style="stop-color:#a43907;stop-opacity:1"/><stop offset="1" style="stop-color:#fff;stop-opacity:1"/></linearGradient><linearGradient id="i" x1="581.4" x2="558.9" y1="512" y2="514.3" gradientTransform="matrix(-.88927 0 0 1.54542 908.8 -413.6)" gradientUnits="userSpaceOnUse"><stop offset="0" style="stop-color:#a43907;stop-opacity:1"/><stop offset="1" style="stop-color:#fff;stop-opacity:1"/></linearGradient><linearGradient id="j" x1="552" x2="589.8" y1="517.9" y2="503.9" gradientTransform="matrix(-.91096 0 0 1.52008 909.5 -414.7)" gradientUnits="userSpaceOnUse"><stop offset="0" style="stop-color:#a43907;stop-opacity:1"/><stop offset="1" style="stop-color:#fff;stop-opacity:1"/></linearGradient></defs><path d="M0 0h25v19H0z" style="fill:#012169;fill-opacity:1;stroke:none"/><path d="M0 0h15.625v7.918H0Zm0 0" style="stroke:none;fill-rule:evenodd;fill:#012169;fill-opacity:1"/><path d="M412.9 308.882h-1.7c-3 .592-7.6 11.348-10 17.664-4.1 5.329-6.2 9.572-7.8 12.632-.7 1.184-1.7 2.664-1.4 4.243-6 1.579-6.3 7.401-6.3 9.572 0 2.468.7 3.75.7 3.75l3.6 7.5v.1c3.8 8.98 9.4 20.821 12.7 21.71 4.4 1.579 16-3.257 24.8-11.645 16.9 7.895 34.9 11.94 53.2 12.138 20.4 0 38.7-5.526 53-12.138 8.8 8.388 20.4 13.224 25 11.645 3-.987 8.7-12.928 12.6-21.71l3.5-7.6s.7-1.282.7-3.65c0-2.172-.3-7.994-6.3-9.573.3-1.58-.6-3.06-1.3-4.342-1.7-3.158-3.8-7.402-7.7-13.027-2.6-6.118-7.2-16.677-10-17.17-4.2-.79-13 1.48-13 2.466v.395l-17.7 18.553c0 .493.9 14.013 4.3 26.052-13.9 5.527-28.6 8.29-43.3 8.191-17 0-31.5-3.454-43.2-8.29 2.2-8.486 3.7-17.27 4.3-26.052L424 311.842v-.395c0-.79-6.8-2.565-11.1-2.565Zm4.4 22.993c2.3 0 4.6 2.27 6.5 4.44l-.1 1.284c-.7 3.454-1.7 6.908-2.8 10.164-4.4-2.763-8.4-6.118-12.2-9.868 1.9-2.27 5-5.428 8.2-5.823h.4Zm126.6 0h.4c3.3.592 6.3 3.75 8.3 6.02-3.8 3.848-7.9 7.204-12.3 9.967-1.2-3.355-2.1-6.71-2.8-10.263-.1-.395-.1-.888-.2-1.283 2-2.27 4.3-4.342 6.6-4.342Zm-142.4 26.447c2.4 2.073 5.4 4.342 9.1 6.81-1 .69-2.1 1.282-3.2 1.579-1.6.296-3.2.296-4.7 0-.6-1.777-1-3.652-1-5.625-.1-.889-.2-1.875-.2-2.764Zm158.2 0-.1 2.764c-.1 1.875-.4 3.75-1 5.526-2.7.69-5.6.197-8-1.48 3.7-2.468 6.8-4.737 9.1-6.81Zm0 0" style="fill-rule:evenodd;fill:url(#a);stroke-width:10;stroke-linecap:butt;stroke-linejoin:miter;stroke:#fff;stroke-opacity:1;stroke-miterlimit:4" transform="scale(.03906 .03958)"/><path d="M426.2 339.572s-6.1-11.052-11.1-10.164c-5.1.69-10 7.796-10.2 8.19-2.8-2.762-5.3-6.02-7.5-9.473.3-.395 7.8-20.921 12-21.81 4-.887 12.7 1.481 12.7 2.27Zm0 0" style="fill-rule:evenodd;fill:url(#b);stroke-width:1.2;stroke-linecap:butt;stroke-linejoin:miter;stroke:#000;stroke-opacity:1;stroke-miterlimit:4" transform="scale(.03906 .03958)"/><path d="M439.8 327.73c0 .79-2.2 30.198-10.9 40.362-8.6 10.263-23 16.58-28.2 15.099-5-1.58-16.5-31.283-16.5-31.283s12.2 14.21 21.3 11.743c9.1-2.368 14.6-20.033 16.3-28.815 1.7-8.685.3-25.757.3-25.757l17.8 18.651Zm0 0" style="fill-rule:evenodd;fill:url(#c);stroke-width:1.2;stroke-linecap:butt;stroke-linejoin:miter;stroke:#000;stroke-opacity:1;stroke-miterlimit:4" transform="scale(.03906 .03958)"/><path d="M532.9 339.572s6.2-11.052 11.2-10.164c5 .69 9.8 7.796 10.2 8.19 2.8-2.762 5.3-6.02 7.5-9.473-.4-.395-7.9-20.921-12-21.81-4.1-.887-12.8 1.481-12.8 2.27Zm0 0" style="fill-rule:evenodd;fill:url(#d);stroke-width:1.2;stroke-linecap:butt;stroke-linejoin:miter;stroke:#000;stroke-opacity:1;stroke-miterlimit:4" transform="scale(.03906 .03958)"/><path d="M519.3 327.73c0 .79 2.2 30.198 10.9 40.362 8.7 10.263 23 16.58 28.2 15.099 5-1.58 16.6-31.283 16.6-31.283s-12.3 14.21-21.4 11.743c-9.1-2.368-14.5-20.033-16.2-28.815-1.8-8.685-.4-25.757-.4-25.757Zm0 0" style="fill-rule:evenodd;fill:url(#e);stroke-width:1.2;stroke-linecap:butt;stroke-linejoin:miter;stroke:#000;stroke-opacity:1;stroke-miterlimit:4" transform="scale(.03906 .03958)"/><path d="M401.2 326.151c-4 5.527-6.1 9.869-7.9 13.027-1.7 3.158-.6 7.796 3.2 14.013 4.3 6.71 39 33.454 84.1 33.454 45.2 0 79.8-26.645 84-33.454 4-6.217 5.1-10.954 3.3-14.013-1.7-3.158-3.9-7.5-7.9-13.027 0 8.388-28.7 38.586-79.4 38.586s-79.4-30.198-79.4-38.586Zm0 0" style="fill-rule:evenodd;fill:url(#f);stroke-width:1.5;stroke-linecap:butt;stroke-linejoin:miter;stroke:#000;stroke-opacity:1;stroke-miterlimit:4" transform="scale(.03906 .03958)"/><path d="m557.7 378.849 7.8-15.198-3.9-3.158c-1 3.85-5.5 5.132-6.3 9.968-.7 4.736 3 9.473 2.4 8.388Zm0 0" style="fill-rule:evenodd;fill:url(#g);stroke-width:1.2;stroke-linecap:butt;stroke-linejoin:miter;stroke:#000;stroke-opacity:1;stroke-miterlimit:4" transform="scale(.03906 .03958)"/><path d="M564.8 374.507s1.4-6.81-3-7.6c-4.4-.789-6.8 3.75-6.1 1.975.6-1.974 3.2-3.948 3.7-10.658.3-6.71-.4-10.362-.4-10.362s1.8-8.684 8.8-7.5c7.2 1.381 7.5 7.599 7.5 9.967 0 1.184-.2 2.368-.6 3.454Zm0 0" style="fill-rule:evenodd;fill:url(#h);stroke-width:1.2;stroke-linecap:butt;stroke-linejoin:miter;stroke:#000;stroke-opacity:1;stroke-miterlimit:4" transform="scale(.03906 .03958)"/><path d="m21.063 13.922.058.11.04-.024-.028-.078.004-.012.066-.047.172.344v.02l-.04.027.02.031.165-.117-.016-.031-.04.023h-.01l-.173-.348.063-.05h.015l.04.066.038-.027-.058-.114-.313.227Zm-.41.265.015.032.035-.016.012.004.152.352-.004.015-.031.024.012.03.16-.097-.012-.031-.035.016h-.016l-.07-.172.168-.094.07.16v.02l-.039.023.016.035.164-.101-.016-.032-.035.016-.012-.008-.148-.347V14l.031-.023-.011-.032-.16.098.011.031.04-.02.01.008.06.145-.165.098-.062-.145.008-.015.031-.02-.016-.04Zm-.094.301.007.032.047-.012.016.004.035.144-.031.016c-.102.031-.172-.02-.207-.145-.031-.125.008-.222.097-.254.02-.003.036-.007.055-.003l.012.007.031.067.047-.016-.027-.117a.4.4 0 0 0-.137.023c-.14.051-.203.18-.168.325.035.148.152.214.281.171a.5.5 0 0 0 .133-.082l-.047-.16.008-.015.035-.016-.012-.035Zm-.38.407.184-.067-.011-.035-.04.008-.011-.004-.102-.379.004-.012.04-.023-.009-.031-.183.066.012.035.039-.012.015.008.098.375-.008.016-.039.015.012.036Zm-.995.183.324-.031-.012-.137-.039.004-.008.082-.008.012-.136.015-.016-.195.078-.008.012.012.008.05h.039l-.016-.171h-.039v.055l-.008.015-.078.004-.015-.176.12-.011.008.007.016.067.043-.004-.008-.117-.304.031v.035h.039l.011.012.028.394-.004.012-.04.008v.039Zm-.485-.488v.039h.04l.007.012.004.394-.008.012-.035.008v.03h.172v-.034h-.04l-.007-.016v-.191h.172v.183l-.008.012-.035.004v.039h.172v-.039h-.04l-.003-.016-.008-.398.008-.012h.039v-.039h-.176v.04l.04.003.007.012v.16l-.168.004-.008-.16.012-.012h.035v-.04Zm-.367-.012v.133h.04l.01-.082.009-.012h.074v.406l-.012.016h-.039v.04h.18v-.036l-.04-.004-.011-.016.004-.398h.07l.012.008.012.082h.039v-.133Zm-.559.422.313.016.008-.133h-.04l-.011.074-.008.008-.137-.004.008-.195.074.007.008.012.008.055h.031l.008-.172H18l-.008.05-.008.012h-.078l.008-.183.117.008.008.008.004.066h.043v-.113l-.293-.016v.035l.039.008.004.012-.016.39-.008.012h-.039Zm-.726-.215.172.063.008-.032-.04-.02v-.015l.098-.375.012-.011.039.015.008-.035-.168-.066-.008.035.035.015.008.016-.106.375-.007.012-.04-.012Zm-.297-.133q.047.043.102.067c.093.031.168-.008.187-.09a.16.16 0 0 0-.02-.125l-.07-.078q-.035-.051-.023-.102.02-.057.086-.039c.015.008.027.02.039.027v.012l-.008.082.039.012.031-.113a.3.3 0 0 0-.097-.067c-.078-.031-.149.012-.172.086a.16.16 0 0 0 .015.114.3.3 0 0 0 .059.078q.052.06.039.113-.018.064-.094.039a.1.1 0 0 1-.047-.031l-.003-.012.015-.086-.043-.016Zm-.383-.18.29.157.046-.117-.039-.02-.035.067-.012.004-.12-.07.07-.173.07.04v.011l-.012.055.031.02.063-.16-.032-.016-.027.043-.012.007-.066-.039.063-.156.105.059.004.011-.016.063.04.02.038-.102-.265-.156-.016.03.031.024.004.016-.14.36h-.012l-.035-.012Zm-.043-.593-.144-.117-.02.031.027.031.004.016-.18.324-.015.004-.027-.02-.02.032.14.11q.078.059.141.054.1-.012.157-.117c.07-.137.05-.262-.063-.348m-.062 0 .031.023q.118.088.02.262-.1.177-.211.078l-.032-.015.196-.344Zm1.144.512-.004.035.035.011.004.016-.066.383-.012.008h-.039v.031l.16.04.008-.032-.039-.016-.004-.012.028-.164h.011c.059.02.07.055.07.13q.001.052.032.105a.07.07 0 0 0 .055.035c.02.008.039.008.058.008l.004-.031h-.004q-.058-.013-.058-.07c-.008-.04 0-.079-.016-.118a.1.1 0 0 0-.05-.059q.1.002.116-.097.023-.122-.113-.156Zm.117.07.024.008q.083.024.066.113-.016.105-.11.07l-.019-.004.036-.187Zm2.118.039.004.04h.039l.011.007.055.387-.008.011-.039.012.008.031.176-.031v-.039l-.043.008-.012-.012-.023-.156h.011c.063-.02.086.008.117.074.012.031.02.063.06.086q.022.018.07.012a.4.4 0 0 0 .062-.02l-.004-.035h-.008q-.057.018-.086-.035c-.011-.035-.031-.067-.05-.098q-.024-.033-.07-.031.1-.05.089-.149-.017-.122-.164-.097Zm.136.02h.028q.092-.024.11.07.014.092-.087.12h-.023l-.032-.19Zm0 0" style="stroke:none;fill-rule:nonzero;fill:#000;fill-opacity:1"/><path d="m401.5 378.849-7.8-15.198 3.9-3.158c1 3.85 5.5 5.132 6.3 9.968.7 4.736-3 9.473-2.4 8.388Zm0 0" style="fill-rule:evenodd;fill:url(#i);stroke-width:1.2;stroke-linecap:butt;stroke-linejoin:miter;stroke:#000;stroke-opacity:1;stroke-miterlimit:4" transform="scale(.03906 .03958)"/><path d="M394.3 374.507s-1.4-6.81 3-7.6c4.4-.789 6.8 3.75 6.2 1.975-.7-1.974-3.3-3.948-3.7-10.658s.3-10.362.3-10.362-1.7-8.684-8.8-7.5c-7.1 1.381-7.5 7.599-7.5 9.967 0 2.171.7 3.454.7 3.454Zm0 0" style="fill-rule:evenodd;fill:url(#j);stroke-width:1.2;stroke-linecap:butt;stroke-linejoin:miter;stroke:#000;stroke-opacity:1;stroke-miterlimit:4" transform="scale(.03906 .03958)"/><path d="M480.5 356.053s-82-26.941-81.4-129.375l.6-135.592H561l.6 134.802c.5 102.434-81.4 130.066-81.4 130.066Zm0 0" style="fill-rule:evenodd;fill:#0072c4;fill-opacity:1;stroke-width:3.9;stroke-linecap:butt;stroke-linejoin:miter;stroke:#fff;stroke-opacity:1;stroke-miterlimit:4" transform="scale(.03906 .03958)"/><path d="m16.027 4.89.078-.077q.075-.054.145-.094c.04-.024.117-.043.145-.063a.4.4 0 0 0 .117-.113c.008-.066.02-.117.02-.195a.5.5 0 0 1 .14-.082c.066-.024.078-.055.148-.067.04-.015.11-.015.172-.015.063 0 .106.054.164.062.07.031.102.055.16.113a.3.3 0 0 0 .102.118c.043.023.086.062.133.078.058.035.105.058.148.113.04.031.055.078.09.105a1 1 0 0 0 .133.11c.058.047.117.082.203.07.05 0 .102-.012.156 0a.6.6 0 0 1 .188.02q.1 0 .187.015c.059.008.117.012.184.012a.6.6 0 0 0 .187.016h.371q.102 0 .184.015c.063 0 .121-.008.184-.015q.1-.005.195-.016h.227c.058.02.132.031.171.066.055.016.078.043.133.059.051.027.098.066.133.113a.7.7 0 0 1 .105.172c.04.059.051.133.079.207q.022.1.027.219a1 1 0 0 1-.027.437 1 1 0 0 1-.028.207c-.008.063-.023.106-.027.184v.223c0 .07-.016.129-.024.203a3 3 0 0 0-.093.238.5.5 0 0 0-.106.125c-.027.02-.043.05-.039.063.055.02.04.066.04.14l.027.203c.003.082.02.121.039.176.023.031.027.016-.028.016q-.065.046-.09-.047a.4.4 0 0 1-.054-.176.8.8 0 0 0-.04-.187c-.007-.09-.027-.09-.105-.098-.035-.031-.09-.043-.156-.043-.078 0-.078-.008-.078.082v.219l-.059.172c-.039.03-.054.086-.105.125-.02.074-.055.082-.117.097l-.078-.113c.039-.07.066-.078.09-.156.03-.067.046-.106.066-.16-.028-.047-.051-.07-.078-.137a1 1 0 0 1-.067-.176c-.043-.016-.113-.02-.144-.047-.067-.015-.082.067-.157.067h-.187c-.082 0-.102.047-.172.043a.4.4 0 0 1-.144 0c-.06.023-.125.015-.188.015a.8.8 0 0 1-.172-.031 1 1 0 0 0-.183-.047c-.079 0-.106.008-.157.047-.039.027-.101.094-.144.129-.02.05-.031.137-.059.2-.012.07-.035.105-.047.16a.6.6 0 0 0-.039.19c-.008.102-.027.09-.082.063-.027-.047-.05-.094-.078-.144.008-.078.027-.118.027-.2-.015-.07-.043-.062-.078-.02 0 .083 0 .145-.03.188a.2.2 0 0 1-.08.125.2.2 0 0 1-.105.11q-.005 0 0-.063c-.03-.066 0-.133 0-.218 0-.079-.007-.13.016-.204 0-.078-.031-.148-.039-.203-.027-.062-.043-.09-.11-.113-.046-.023-.117-.047-.144-.098a.3.3 0 0 0-.121-.105c-.059-.027-.09-.05-.133-.082-.039-.05-.074-.07-.09-.137-.027-.047-.03-.14-.05-.207a.7.7 0 0 0-.04-.184 1 1 0 0 0-.039-.19l-.043-.208a1 1 0 0 0-.015-.219v-.218c-.008-.07-.012-.16-.024-.207a.6.6 0 0 0-.03-.192c-.028-.055-.028-.078-.079-.09a.2.2 0 0 1-.156.078c-.047-.011-.117-.023-.172-.046-.055-.016-.086-.04-.129-.067A2 2 0 0 0 16 5.211c-.008-.086-.023-.129-.027-.211 0-.059 0-.023.054-.11" style="stroke:none;fill-rule:evenodd;fill:#bcbcbc;fill-opacity:1"/><path d="m16.809 5.46.011-.015c-.023.028-.015.012.04-.011a.6.6 0 0 0 .097-.079c.023-.011.066-.027.086-.05a.4.4 0 0 1 .086-.086c.035-.043.066-.055.11-.082.05-.008.073-.032.12-.012.047.012.067.012.102-.035a.23.23 0 0 0 .098-.094v-.07c0 .07-.016.097-.059.117-.027.043-.07.086-.086.125-.027.05-.035.078-.062.102-.028.035-.067.054-.079.109.016.027 0 .039.032.043.027.027.054.016.093 0a.5.5 0 0 0 .075-.129l.066-.117q.045-.026.063-.086c.039-.027.07-.05.097-.078.028-.016.04-.035.078-.043a.2.2 0 0 1-.027.12.24.24 0 0 0 .012.134c.027.023.023.039.039.078a.7.7 0 0 0 .027-.156v-.008c0 .043 0 .113-.012.144 0 .063.016.094.032.14q.018.043.043.056c0-.063.02-.102.023-.16l.016.152q.005.074.039.133c.02.015.027.058.035.023.023-.078.023-.16.039-.246 0-.04 0-.102.02-.129l-.024.129c.004-.04.008-.098.023-.129v-.016c.012.059.016.121.02.18a.6.6 0 0 0 .008.145c.027-.02.047-.051.066-.102a.6.6 0 0 1 .074-.121l-.078.117a.6.6 0 0 1 .078-.117v-.008q-.006.077-.007.149.001.088.007.148c.012.059.024.066.028.129a.16.16 0 0 0 .008.082c.039.012.039-.012.047-.082q.006-.089.019-.184c0-.086.008.012.02.04a.5.5 0 0 1 .027.148q.001.052.008.082c.039-.02.05-.07.078-.094.015-.055.039-.078.055-.11.046-.011.046-.034.046-.097a.5.5 0 0 1 .012-.16 1 1 0 0 0 .035-.145c.016-.007.035.02.047.047q.023.053.016.14a.6.6 0 0 0 .05.138c.016.039.04.074.063.109a.6.6 0 0 1 .012.148c.039-.05.039-.12.043-.191-.004-.047-.004-.11-.016-.16a.6.6 0 0 0-.02-.13q-.047-.014-.007-.077c.027-.028.062-.016.11-.008.026.027.034.043.038.11a.3.3 0 0 0 .02.144c.015.031.035.055.047.11.011.015.023.038.043.011.011-.031.02-.094.03-.137a.13.13 0 0 1 .044-.078c0 .063 0 .102.023.149l.043.12c.02.016.024.051.051.067l.008-.176v-.16a.4.4 0 0 1 .027-.117c.031.043.031.059.031.117.028-.012.032-.039.043-.074.02-.024.032-.031.04.023.003.059.015.114.027.168.02.024.039.086.062.11a.4.4 0 0 0 .059.09c.015.03.015.054.058.066q0-.117-.011-.223c0-.062-.012-.09-.02-.148a.3.3 0 0 1-.02-.11.34.34 0 0 1 .087.133l.058.149a.7.7 0 0 1 .07.11c.036.03.051.066.086.1.016.02.06.032.067.02a.5.5 0 0 0-.027-.176.3.3 0 0 0-.032-.132c-.039-.04-.066-.063-.086-.114-.011-.015-.011-.023-.015-.054q.074.069.133.156.029.048.074.078c.015.023.07.055.11.063a.15.15 0 0 0 .093.066l-.094-.063a.17.17 0 0 0 .094.063v.016a.4.4 0 0 0-.055-.18.3.3 0 0 0-.086-.121.3.3 0 0 0-.093-.098c-.024-.035-.063-.094-.086-.11.043-.038.09.016.132.04.04.047.07.105.094.133a.7.7 0 0 0 .086.148q.053.038.102.086c.054.016.035-.004.02-.055q-.025-.087.038-.023.036.035.094.078.023.04.062.023c.012-.015.012-.015.012-.03-.015-.075-.043-.122-.086-.15-.027-.03-.054-.066-.086-.097-.02-.031-.039-.05-.054-.09l.054.086c-.02-.031-.039-.047-.054-.086h-.008c.055 0 .078.02.117.047a.2.2 0 0 1 .086.078q.036.036.066.082l.094.082c.031.047.04.078.04.14.015.036.019.103.026.138-.007.062-.027.011-.03-.024-.005-.05-.024-.047-.055-.031 0 .066.007.086.027.133a.3.3 0 0 1-.035.11c-.024.015-.028-.032-.047-.056 0-.066-.02-.078-.059-.109v.043a.33.33 0 0 1 .047.152.5.5 0 0 1 .024.149c0 .05-.004.105-.012.156 0 .059-.012.082-.012.145v.312q-.01.07-.008.14l.008-.14q-.007.06-.008.14v.012a2 2 0 0 1-.047-.16.3.3 0 0 1-.062-.117q-.013-.081-.02-.144c-.015-.04-.03-.079-.058-.055a.4.4 0 0 0 .027.21c.016.052.016.098.031.145.02.059.04.063 0 .133-.023.04-.03.047-.039.09-.035.02-.043.031-.047.078l-.054-.144a2 2 0 0 1-.047-.16c-.023-.036-.05-.094-.078-.118l-.07-.133c-.04-.05-.047-.078-.079-.101-.004-.02-.015-.05-.039-.031a1 1 0 0 0 .012.152c.012.066.027.102.031.168v.117q-.039-.088-.066-.172c-.024-.035-.043-.101-.067-.12a.4.4 0 0 0-.046-.114c-.004-.031-.02-.031-.032-.055 0 .063.02.086.032.13.02.046.023.116.02.14a2 2 0 0 0-.079-.239l-.07-.148c-.032-.035-.059-.039-.086-.062a.2.2 0 0 1-.067-.055 1 1 0 0 0 .04.14q.017.08.035.149c-.008.078-.024-.02-.04-.055-.007-.062-.027-.097-.042-.133l-.079-.078c-.027-.011-.015 0-.015.04a.4.4 0 0 0 .02.16.26.26 0 0 1 .019.132c-.004.055-.012.094-.012.16v.082c-.02-.042-.039-.074-.058-.128a2 2 0 0 1-.063-.149c-.02-.008-.059-.015-.078 0 .008.055.027.078.031.149-.039.039-.031.054-.055-.016-.023-.05-.046-.047-.078-.078-.047-.004-.03-.04-.043-.09a1 1 0 0 0-.011-.121c-.051 0-.078 0-.114.035a.4.4 0 0 0 0 .145v.156c-.011.039-.027.039-.039.09-.015.043-.02.097-.035.129-.035.035-.02.039-.039-.02V6.56c0-.059.012-.09.012-.145-.02-.047-.024-.059-.086-.059a.3.3 0 0 0 0 .114q0 .086.012.144l.007.145q.002.087-.039.129c-.03.015 0 .039-.035.05a.5.5 0 0 1-.101-.078.5.5 0 0 0-.121-.023c-.063 0-.063-.008-.086-.063a1 1 0 0 1-.04-.183c-.019-.05-.023-.086-.039-.145a.2.2 0 0 0-.054-.082c-.012.067-.024.11-.024.172-.011.027-.015.094-.023.117-.016-.027-.024-.093-.04-.136-.01-.067-.026-.11-.089-.086-.062 0-.062 0-.062.078l.074.125v.16c0 .062 0 .082-.04.094a.5.5 0 0 0-.085-.184c0-.047-.016-.035-.055-.035a.12.12 0 0 0-.066.016v.093q-.025.011-.043-.02c-.02.036-.008.079 0 .118a.4.4 0 0 1-.047.129c-.008-.016-.016-.008 0-.008a4 4 0 0 0-.172-.07c-.027 0-.055.039-.07.07-.051.016-.07.031-.125.031l-.118.008a.6.6 0 0 1-.125.016c-.023-.012-.07-.012-.082-.024.02-.03.04-.047.055-.101a.5.5 0 0 0 .078-.078l.07-.09c.016-.055.04-.063.067-.09.058 0 .066.027.121.035.055.024.086.035.117-.012.04-.023.078-.058.125-.066l.094-.066c.039-.028.059-.059.094-.09.011-.043.039-.078.027-.133q-.07-.026-.117.02c-.035.042-.04.058-.09.09-.04.015-.055.034-.102.046-.039.016-.085.008-.128.008s-.098 0-.122.016a.4.4 0 0 1 .13-.079c.038-.027.054-.039.105-.046.023-.036.043-.036.055-.09.015-.063-.04-.043-.079-.02-.035.008-.078.04-.109.051a.3.3 0 0 1-.117.023c-.016-.02.004-.035.015-.062.04-.02.051-.027.055-.078-.05.008-.066.027-.113.031a1 1 0 0 1-.149.024h-.128c-.047 0-.07-.012-.125-.012-.04-.024-.04-.031-.04-.098.032-.039.059-.031.118-.031l.101-.063q.053-.01.047-.039h-.129c-.055-.027 0-.039.027-.058.04 0 .09 0 .118.02.058 0 .078-.02.12-.063.04-.031.06-.055.098-.078q.044-.049.075-.09a.5.5 0 0 0 .086-.102q.04-.018.027-.054c-.059.007-.086.035-.125.066a.3.3 0 0 1-.074.062.2.2 0 0 1-.121.051 1 1 0 0 1-.13-.015c-.05-.004-.007-.02.009-.043.027-.016.03-.043.02-.078q-.066-.013-.13-.008h-.133c-.05 0-.07-.016-.105-.035-.008-.032 0-.02.039-.02a.6.6 0 0 0 .121-.023c.043-.012.05-.032.059-.09a.5.5 0 0 1-.121-.012ZM16 5.208c-.008-.082-.027-.125-.027-.207 0-.059 0-.023.054-.11l.078-.077q.075-.054.145-.094c.04-.024.117-.043.145-.063a.4.4 0 0 0 .117-.113c.008-.066.015-.117.015-.195a.6.6 0 0 1 .145-.082c.066-.024.078-.055.148-.067.04-.015.11-.015.172-.015.063 0 .106.054.164.062.07.031.102.055.157.113.03.047.054.086.105.118.043.023.086.062.133.078 0 .058.012.05-.024.05-.004.06-.015.051-.066.055a.25.25 0 0 1-.086-.094c.023-.054.012.051 0 .07-.02.024-.035.048-.062.024-.016-.055-.028-.094-.028-.16-.008-.066-.027-.02-.039.012a.17.17 0 0 0 .012.125.5.5 0 0 1-.121-.012q-.053-.018-.117.023c-.047.036-.028.036-.008.079a.4.4 0 0 1 .117.062l.129-.031c.043-.02.086-.008.129 0q.039.016.066.031 0 .06-.012.09c-.015.016-.039.059-.066.066a.5.5 0 0 1-.125.059c-.059 0-.082.016-.125.039-.004.062-.02.074-.066.094a.2.2 0 0 1-.13.031.2.2 0 0 1-.066-.012.5.5 0 0 0 .078-.129c.008-.027.024-.039.008-.058-.054 0-.07 0-.078.062-.008.063-.023.074-.062.094.007-.05.015-.102.027-.145a.6.6 0 0 1-.117.012c-.032.02-.043.028-.032.063a.26.26 0 0 1-.132 0c-.04 0-.016-.02-.047-.04q-.023-.059-.086-.054c-.02.031-.055.039-.078.062a.11.11 0 0 1-.106-.02c-.047 0-.039.017-.027.056.02.011 0 .027.027.03.028.028.051.036.102.036a.7.7 0 0 1 .133-.012c.047 0 .039.012.039.063-.032.031-.078.027-.125.027a.6.6 0 0 1-.114-.035c-.039 0-.078-.012-.109 0-.016.02-.059.031-.008.035.02.024.13.012.133.05.027.032.02.075-.023.075a.05.05 0 0 0-.067 0l-.12.004c.07.008-.052-.086-.079-.125" style="stroke:none;fill-rule:evenodd;fill:#fefefe;fill-opacity:1"/><path d="m16.293 4.836-.055.039-.113.094c-.02.02-.02.031-.043.031.04-.004.063-.02.102-.04a.23.23 0 0 0 .117-.046c.027-.008 0-.055-.008-.082Zm.43-.52c.007 0 .02.032.039.055a.4.4 0 0 1 .027.117 1 1 0 0 0 .04-.152c-.017-.035-.017-.043-.06-.047 0 .035.008.008-.046.027" style="stroke:none;fill-rule:evenodd;fill:#bcbcbc;fill-opacity:1"/><path d="M349.384 417.698c-.461 0 .83-.468 1.291-.623a4.6 4.6 0 0 1 1.29-1.792c1.107 0 1.845.39 2.214 1.09 1.014.312 1.29.702 2.397.935.554.39 1.015.39 0 .701-.645.234-1.475.39-2.581.39a7.4 7.4 0 0 0-2.582.701c-1.476 0-1.291 0-2.029-1.402Zm0 0" style="fill-rule:evenodd;fill:#c4c4c2;fill-opacity:1;stroke-width:.9;stroke-linecap:butt;stroke-linejoin:miter;stroke:#000;stroke-opacity:1;stroke-miterlimit:4" transform="matrix(.04236 0 0 .05014 1.664 -16.237)"/><path d="M16.895 4.324v.012c0-.035.003-.016.007.047.016.039.024.086.02.129a.2.2 0 0 0 .058-.098c0-.086-.015-.082-.085-.09m.343 1.278h.012c-.031 0-.012 0 .035-.032.031-.023.059-.062.102-.082a.5.5 0 0 1 .12-.078c.024-.012.044-.031.067-.008 0 .051-.02.082-.058.102a.2.2 0 0 1-.078.062c-.032.02-.067.02-.079.059-.05.027-.058.02-.117-.023Zm.18.324c.012-.016.074-.086.102-.11a.5.5 0 0 1 .093-.113q.047-.063.086-.121l.074-.113c0 .05-.007.113.008.144a.26.26 0 0 1-.031.133.18.18 0 0 1-.086.094c-.039.023-.062.031-.098.062q-.04.031-.086.055c-.027.012-.015.012-.062-.031m-.293.254h.012c-.028 0-.016 0 .039-.032a.3.3 0 0 1 .117-.09c.039 0 .082-.011.117-.035.02-.003.04-.02.05 0 .032.047.04.059-.007.094a.3.3 0 0 1-.094.055c-.023.02-.07.02-.117.031-.031 0-.055.004-.07-.023l.078.023c-.04 0-.059.004-.125-.023m.402 0v-.008q-.005.047.02-.047c.039-.066.047-.102.094-.113.02-.032.058-.04.101-.055.02.031.004.07 0 .11a.3.3 0 0 1-.066.105c-.028.02-.04.043-.086.055-.031 0-.012 0-.063-.047" style="stroke:none;fill-rule:evenodd;fill:#bcbcbc;fill-opacity:1"/><path d="M16.613 4.738q0 .048-.047.055c-.046.008-.046-.027-.046-.055q.006-.053.046-.054.041.002.047.054" style="stroke:none;fill-rule:evenodd;fill:#000;fill-opacity:1"/><path d="M351.781 479.566h.923c-2.767 0-1.107-.156 3.504 3.506 2.028-1.558 2.028-1.792 3.504 1.013 1.014 1.48 1.198-.156 2.674-1.792.737 3.194 1.106 6.544 3.504 3.505 2.766 0 5.624-.233 7.1.935 1.844 3.272 1.199-.623 2.582.857 4.057.39 3.965-3.428 8.114-4.362 2.582 3.272 3.78.779 7.008-.857 2.49.623 4.795 4.362 5.348.7 1.937-3.193 2.029-2.96 3.412 0 2.029 1.793 2.859-.778 4.426-1.635 2.859 1.636 6.455 1.947 10.604.857.83 2.882 2.582 1.636 4.519.779 3.872 1.714 5.163 2.259 9.682 0 2.213-2.571 1.014.156 2.582 1.792 3.32-.935 2.397-1.169 6.27-.857 3.873 0 4.15 0 5.256-2.571 2.028 1.87 2.582 3.272 5.348.857 4.15 0 2.859.545 5.256-1.013 1.936 4.051 2.305 1.246 4.518 2.727-1.29 2.96-3.411 5.375-6.178 7.011-1.752 2.96-2.858 5.999-6.27 7.167-2.49 2.493-5.164 4.051-7.93 6.232-3.873 1.013-8.022.78-12.356.78H388.02c-2.582 1.402-7.008 2.025-10.604 2.726-4.057 0-8.76 0-11.526-.935-1.845-1.87-5.164-3.973-7.008-6.154-1.937-1.558-1.937-4.44-3.597-6.232-1.383-2.493-2.028-6.466-3.504-8.804Zm0 0" style="fill-rule:evenodd;fill:#005120;fill-opacity:1;stroke-width:1.25;stroke-linecap:butt;stroke-linejoin:miter;stroke:#002b0d;stroke-opacity:1;stroke-miterlimit:4" transform="matrix(.04236 0 0 .05014 1.848 -16.285)"/><path d="M437.537 487.59v.78c0-2.338.092-1.091-1.844 3.66-.277 1.091-1.2 1.403-2.582 1.793m-3.504-2.727h.922c-3.32 3.038-5.533 4.518-6.27 8.024l6.27-8.024c-3.32 3.038-5.533 4.518-6.27 8.024m-7.1-12.387s-.093 3.039-.83 4.363m-2.675 1.792v.779Zm-7.1-5.298h.922-1.014c.461 0 .738 0 0 0Zm-49.424 0c.369 0 2.213 2.805 4.334 4.44-.462 2.572-1.384 5.532 0 7.947m2.766-7.09c.369 0 2.028 2.805 4.334 4.441l-4.334-4.44c.369 0 2.028 2.804 4.334 4.44v.857c0-2.804-.185-5.609.922-7.09 1.014 1.715 2.213 4.286 2.582 1.793 5.071-.156 7.469-1.558 10.604-2.65 0 1.247-.185.624 1.014 1.793m60.029-3.662h.922c-1.752 1.403-3.043 4.363-4.426 6.233m-32.735-8.804h7.008" style="fill-rule:evenodd;fill:#005120;fill-opacity:1;stroke-width:1.25;stroke-linecap:butt;stroke-linejoin:miter;stroke:#002b0d;stroke-opacity:1;stroke-miterlimit:4" transform="matrix(.04236 0 0 .05014 1.848 -16.285)"/><path d="M16.637 8.484c-.45 0-.602.532-1.051.532h-.024v.03q0 .559.07 1.04c.415-.031.567-.531 1.005-.531.449 0 .597.53 1.047.53s.601-.53 1.05-.53.602.53 1.051.53c.45 0 .598-.53 1.047-.53.43 0 .586.496 1 .53.05-.35.078-.71.074-1.07h-.027c-.45 0-.598-.527-1.047-.527-.45 0-.602.532-1.047.532s-.601-.532-1.055-.532c-.445 0-.597.532-1.046.532s-.598-.532-1.047-.532Zm0 2.086c-.352 0-.516.325-.79.465.09.281.204.555.337.813.128-.11.261-.207.453-.207.449 0 .597.535 1.047.535s.601-.535 1.05-.535.602.535 1.047.535c.446 0 .602-.535 1.051-.535a.68.68 0 0 1 .441.199 5 5 0 0 0 .336-.809c-.261-.144-.43-.46-.78-.46-.446 0-.599.53-1.048.53s-.601-.53-1.047-.53-.601.53-1.05.53-.598-.53-1.047-.53m2.097 2.085c-.449 0-.601.531-1.05.531-.426 0-.582-.472-.977-.527.422.531.945.977 1.535 1.305.14-.125.285.144.488.144s.352-.273.489-.152a5.2 5.2 0 0 0 1.523-1.293c-.383.066-.547.524-.96.524-.45 0-.598-.532-1.048-.532" style="stroke:none;fill-rule:evenodd;fill:#fff;fill-opacity:1"/><path d="M332.537 541.437c3.423-1.173 6.939-2.19 10.455-3.05l16.284 15.72-13.416 2.66Zm0 0" style="fill:none;stroke-width:.5;stroke-linecap:butt;stroke-linejoin:miter;stroke:#512007;stroke-opacity:1;stroke-miterlimit:4" transform="matrix(.04222 0 0 .04995 1.91 -16.422)"/><path d="M413.587 470.986c.328-4.541 8.838-30.995 8.838-30.995m-5.892 31.29 6.656-31.093m-4.364 31.192 5.564-31.192m-10.474 27.047c1.527-.79 5.782-2.073 5.782-2.073m-3.71-2.567c1.42 0 4.365-1.184 4.365-1.184m-3.6-2.27a25.4 25.4 0 0 1 4.473-1.284m-3.819-3.159 4.692-.79m-2.619-2.96c0 .296 3.273.296 3.273.296m-2.4-3.751 3.164.493" style="fill:none;stroke-width:.6;stroke-linecap:butt;stroke-linejoin:miter;stroke:#512007;stroke-opacity:1;stroke-miterlimit:4" transform="matrix(.0358 0 0 .03957 2.497 -6.74)"/><path d="M413.619 470.99c.277-4.564 8.79-30.964 8.79-30.964m-5.922 30.097 6.754-30.04m-3.7 27.729c.184-1.733 4.903-27.613 4.903-27.613m-10.548 26.978c1.48-.751 5.83-1.965 5.83-1.965m-3.702-2.6c1.388 0 4.256-1.212 4.256-1.212m-3.515-2.31q2.22-.78 4.44-1.214m-3.793-3.177 4.719-.809m-2.59-3.004c0 .289 3.145.289 3.145.289m-2.406-3.697 3.239.52" style="fill:none;stroke-width:.4;stroke-linecap:butt;stroke-linejoin:miter;stroke:#512007;stroke-opacity:1;stroke-miterlimit:4" transform="matrix(-.04222 0 0 .06762 36.732 -19.188)"/><path d="M413.635 470.975c.278-4.536 8.79-30.971 8.79-30.971m-5.922 30.11 6.662-30.032m-3.7 27.686c.277-1.642 4.903-27.53 4.903-27.53m-10.455 26.983c1.48-.782 5.829-2.034 5.829-2.034m-3.701-2.58c1.388 0 4.256-1.174 4.256-1.174m-3.516-2.346q2.22-.822 4.441-1.173m-3.793-3.207 4.626-.782m-2.59-3.05c0 .313 3.237.313 3.237.313m-2.405-3.676 3.238.47" style="fill:none;stroke-width:.5;stroke-linecap:butt;stroke-linejoin:miter;stroke:#512007;stroke-opacity:1;stroke-miterlimit:4" transform="matrix(-.04222 0 0 .04995 37.776 -11.504)"/><path d="m395.267 572.173.925-72.968s2.591-.313 2.591 0-.277 72.734-.555 72.968c-.37.313-3.238.548-2.96 0Zm28.497-69.762-.555 61.316-2.035 2.346.647-63.662Zm0 0" style="fill-rule:evenodd;fill:#dd8b59;fill-opacity:1;stroke-width:.5;stroke-linecap:butt;stroke-linejoin:miter;stroke:#512007;stroke-opacity:1;stroke-miterlimit:4" transform="matrix(.04222 0 0 .04995 1.91 -16.422)"/><path d="M362.977 560.208s3.053 29.953 36.454 29.093c33.4-.938 42.653-30.188 42.653-30.188l-14.526-.626c-.278 0-11.566 14-26.184 13.686-14.619-.234-19.152-3.754-22.39-6.647-3.147-2.894-6.015-7.352-6.015-7.352l-16.931-6.648.925 6.335Zm90.302-2.972-1.018-4.067v-3.363l1.666-3.598s-25.351 3.676-25.351 3.989l-.093 6.804 24.796.078Zm0 0" style="fill-rule:evenodd;fill:#dd8b59;fill-opacity:1;stroke-width:.5;stroke-linecap:butt;stroke-linejoin:miter;stroke:#512007;stroke-opacity:1;stroke-miterlimit:4" transform="matrix(.04222 0 0 .04995 1.91 -16.422)"/><path d="m448.468 549.806-.555 6.022h4.07l-.277-6.022Zm-4.256.313-.278 6.413 2.591-.313.278-6.1Zm-4.441 6.413v-5.006l2.59-.938.37 5.005Zm-4.996-.313.647-4.458 2.961.313.185 4.692Zm-5.46 0 .278-3.832 2.961-.313v4.458Zm-67.449 3.676c.926 0 7.68 1.486 7.68 1.486l6.94 9.306" style="fill:none;stroke-width:.5;stroke-linecap:butt;stroke-linejoin:miter;stroke:#512007;stroke-opacity:1;stroke-miterlimit:4" transform="matrix(.04222 0 0 .04995 1.91 -16.422)"/><path d="M366.77 561.068c.37.313 6.107 19.865 34.049 19.865 27.849 0 34.603-22.133 34.603-22.133" style="fill:none;stroke-width:.5;stroke-linecap:butt;stroke-linejoin:miter;stroke:#512007;stroke-opacity:1;stroke-miterlimit:4" transform="matrix(.04222 0 0 .04995 1.91 -16.422)"/><path d="M439.77 559.425s-13.415 28.938-38.951 26.982c-25.537-2.033-29.608-11.574-31.643-16.58-1.943-5.005-3.146-8.994-3.146-8.994" style="fill:none;stroke-width:.5;stroke-linecap:butt;stroke-linejoin:miter;stroke:#512007;stroke-opacity:1;stroke-miterlimit:4" transform="matrix(.04222 0 0 .04995 1.91 -16.422)"/><path d="M373.154 558.174c.37-1.642.37-54.355.37-54.355l-1.758-.235-.277 53.73 1.665 1.017Zm-41.45-17.05 22.02 10.637-.555 1.564s-21.187-10.01-21.187-10.323.185-1.486-.278-2.034Zm0 0" style="fill-rule:evenodd;fill:#dd8b59;fill-opacity:1;stroke-width:.5;stroke-linecap:butt;stroke-linejoin:miter;stroke:#512007;stroke-opacity:1;stroke-miterlimit:4" transform="matrix(.04222 0 0 .04995 1.91 -16.422)"/><path d="M341.789 537.918c0 .782 3.238 18.614 3.238 18.614s1.943.234 1.943 0l-3.33-18.301Zm20.448.47c1.017 0 21.002-3.207 21.002-3.207l-.462 3.206-19.523 2.034Zm0 0" style="fill-rule:evenodd;fill:#dd8b59;fill-opacity:1;stroke-width:.5;stroke-linecap:butt;stroke-linejoin:miter;stroke:#512007;stroke-opacity:1;stroke-miterlimit:4" transform="matrix(.04222 0 0 .04995 1.91 -16.422)"/><path d="M365.012 514.299c.648 0 7.032 3.207 9.715 2.424 2.683-.86.833-3.05 1.388-3.05s2.59 1.565 3.793.313c1.203-1.173 2.036-4.614 1.48-4.301-.462.313-16.006 5.787-16.283 4.614Zm0 0" style="fill-rule:evenodd;fill:#fecf3e;fill-opacity:1;stroke-width:.5;stroke-linecap:butt;stroke-linejoin:miter;stroke:#512007;stroke-opacity:1;stroke-miterlimit:4" transform="matrix(.04222 0 0 .04995 1.91 -16.422)"/><path d="M362.514 521.572c1.11.313 23.779-6.1 23.779-6.1s0 2.034-.278 2.034l-23.5 6.1Zm0 0" style="fill-rule:evenodd;fill:#dd8b59;fill-opacity:1;stroke-width:.5;stroke-linecap:butt;stroke-linejoin:miter;stroke:#512007;stroke-opacity:1;stroke-miterlimit:4" transform="matrix(.04222 0 0 .04995 1.91 -16.422)"/><path d="M414.975 512.578s1.48 3.52 3.053 2.894c1.48-.547 2.868-1.799 2.868-1.799s1.203 3.05 3.238 2.425c1.943-.626 3.146-3.832 3.146-3.832s2.036.625 2.96.312c.834-.312 1.944-5.005 1.944-5.005Zm-1.666 28.234c-.277.625 1.48 1.955 2.961 1.955 1.573 0 2.035-1.955 2.313-1.33.278.47.278 3.129 3.979 2.268 3.7-.938 3.793-3.519 3.793-3.519s-1.018.939 1.573 1.251c2.59.235 5.181-3.832 4.996-3.832-.463 0-19.06 3.52-19.615 3.207Zm0 0" style="fill-rule:evenodd;fill:#fecf3e;fill-opacity:1;stroke-width:.5;stroke-linecap:butt;stroke-linejoin:miter;stroke:#512007;stroke-opacity:1;stroke-miterlimit:4" transform="matrix(.04222 0 0 .04995 1.91 -16.422)"/><path d="M363.44 513.126c-.186.86-.186 1.799.184 2.659l18.968-6.413s.832-1.486 0-1.486c-.833 0-19.523 5.787-19.338 5.318Zm24.98-3.989c.463 0 19.338-6.1 19.338-6.1s.37 2.58 0 2.58l-17.672 5.163-1.758-1.643Zm0 0" style="fill-rule:evenodd;fill:#dd8b59;fill-opacity:1;stroke-width:.5;stroke-linecap:butt;stroke-linejoin:miter;stroke:#512007;stroke-opacity:1;stroke-miterlimit:4" transform="matrix(.04222 0 0 .04995 1.91 -16.422)"/><path d="M413.31 521.885s-2.869 3.207-2.036 7.508c.925 4.38 2.035 8.212 2.313 8.212.277 0 3.516-5.787 7.032-6.1s9.9 3.206 9.9 3.206-.926-7.038-.648-10.245c.37-3.128 5.274-8.681 5.274-8.681l-21.836 6.022Zm0 0" style="fill-rule:evenodd;fill:#fecf3e;fill-opacity:1;stroke-width:.5;stroke-linecap:butt;stroke-linejoin:miter;stroke:#512007;stroke-opacity:1;stroke-miterlimit:4" transform="matrix(.04222 0 0 .04995 1.91 -16.422)"/><path d="M386.94 516.567s-.647 2.737-.37 2.737l24.704-6.413v-1.877l-24.334 5.475Zm0 0" style="fill-rule:evenodd;fill:#dd8b59;fill-opacity:1;stroke-width:.5;stroke-linecap:butt;stroke-linejoin:miter;stroke:#512007;stroke-opacity:1;stroke-miterlimit:4" transform="matrix(.04222 0 0 .04995 1.91 -16.422)"/><path d="M355.482 551.761s-5.736-.782-5.458.626c.277 1.486 2.868 2.893 3.145 3.832.37.86-.832 3.989.926 3.754 1.665-.235 3.423-1.486 3.423-2.346l-.278-5.006Zm0 0" style="fill-rule:evenodd;fill:#b6b6b4;fill-opacity:1;stroke-width:.5;stroke-linecap:butt;stroke-linejoin:miter;stroke:#512007;stroke-opacity:1;stroke-miterlimit:4" transform="matrix(.04222 0 0 .04995 1.91 -16.422)"/><path d="M387.773 537.292v2.034l20.91-2.894-.555-1.564Zm0 0" style="fill-rule:evenodd;fill:#dd8b59;fill-opacity:1;stroke-width:.5;stroke-linecap:butt;stroke-linejoin:miter;stroke:#512007;stroke-opacity:1;stroke-miterlimit:4" transform="matrix(.04222 0 0 .04995 1.91 -16.422)"/><path d="M362.977 540.812c.462 0 0 2.58 2.405 1.955 2.313-.547 2.961-1.955 2.961-1.955s.555 3.206 3.793 2.893c3.146-.312 4.997-3.832 4.997-3.832s.185 2.66 2.128 1.72c2.035-.86 2.683-2.893 2.683-2.893l-18.32 2.581Zm0-17.206s-2.59.86-1.666 6.1c.926 5.162 2.961 8.212 3.146 8.212.278 0 2.683-5.005 6.107-5.787 3.515-1.017 9.622 2.58 9.622 2.58s-.555-4.692.278-8.994a17.94 17.94 0 0 1 3.793-7.586s-20.355 5.475-21.188 5.475Zm0 0" style="fill-rule:evenodd;fill:#fecf3e;fill-opacity:1;stroke-width:.5;stroke-linecap:butt;stroke-linejoin:miter;stroke:#512007;stroke-opacity:1;stroke-miterlimit:4" transform="matrix(.04222 0 0 .04995 1.91 -16.422)"/><path d="m411.921 538.7.278 1.799s21.003-2.581 21.003-2.972c0-.235 0-2.033-.37-2.033s-20.633 3.519-21.003 3.206Zm-.277-18.614.277 2.034 24.704-6.648s.555-1.799.278-1.799c-.278 0-24.704 7.352-25.26 6.413Zm0 0" style="fill-rule:evenodd;fill:#dd8b59;fill-opacity:1;stroke-width:.5;stroke-linecap:butt;stroke-linejoin:miter;stroke:#512007;stroke-opacity:1;stroke-miterlimit:4" transform="matrix(.04222 0 0 .04995 1.91 -16.422)"/><path d="M414.234 510.78s-.37 1.798 0 1.798c.278 0 18.227-4.38 18.227-4.692s1.85-1.955.37-1.72c-1.387.312-18.041 5.552-18.597 4.614Zm38.675 33.708-18.042-28.39m-2.406 19.708c.37-.782 1.203-18.3 1.203-18.3" style="fill:none;stroke-width:.5;stroke-linecap:butt;stroke-linejoin:miter;stroke:#512007;stroke-opacity:1;stroke-miterlimit:4" transform="matrix(.04222 0 0 .04995 1.91 -16.422)"/><path d="M388.976 509.998c1.017.234 3.145 3.206 4.348 2.58 1.203-.547 2.868-2.346 2.868-2.346s-.277 3.441 2.036 2.972c2.406-.626 2.683-2.972 2.683-2.972s1.666.939 3.146 0c1.48-.86 2.868-5.24 2.313-5.24-.463 0-16.84 5.24-17.487 5.006Zm-.555 8.368c0 .626-3.054 5.24-2.036 9.62s2.498 8.446 2.776 8.446c.37 0 4.718-4.614 8.512-5.553 3.793-.86 9.345 2.894 9.067 2.894-.37 0-1.573-4.38-1.573-7.586s4.441-12.983 4.441-12.983Zm0 21.038c0 .235.74 2.19 2.868 2.19s2.313-1.955 2.313-1.955-.278 3.44 2.868 3.128c3.238-.235 4.349-3.441 4.349-3.441s.277 1.799 2.96.86c2.591-.86 6.014-3.754 5.83-3.754-.186 0-21.003 3.754-21.281 2.972Zm0 0" style="fill-rule:evenodd;fill:#fecf3e;fill-opacity:1;stroke-width:.5;stroke-linecap:butt;stroke-linejoin:miter;stroke:#512007;stroke-opacity:1;stroke-miterlimit:4" transform="matrix(.04222 0 0 .04995 1.91 -16.422)"/><path d="M408.966 477.033c.038 1.02-.786 1.845-1.83 1.886-1.048-.072-1.932-.831-1.974-1.963a2.003 2.003 0 0 1 1.925-1.89c1.048.072 1.931.831 1.879 1.967Zm0 0" style="fill-rule:evenodd;fill:#be0f17;fill-opacity:1;stroke-width:.6;stroke-linecap:butt;stroke-linejoin:miter;stroke:#512007;stroke-opacity:1;stroke-miterlimit:4" transform="matrix(.00135 -.04111 .03445 .00154 1.423 26.044)"/><path d="M409.02 477.016a2.003 2.003 0 0 1-1.925 1.89c-1.044.04-1.931-.832-1.875-1.854-.042-1.133.877-1.962 1.921-2.003 1.048.072 1.84.948 1.879 1.967Zm0 0" style="fill-rule:evenodd;fill:#be0f17;fill-opacity:1;stroke-width:.6;stroke-linecap:butt;stroke-linejoin:miter;stroke:#512007;stroke-opacity:1;stroke-miterlimit:4" transform="matrix(.00135 -.04111 .03445 .00154 1.87 25.91)"/><path d="M409.003 477.024c.038 1.02-.881 1.85-1.925 1.89s-1.837-.835-1.879-1.967c-.038-1.02.881-1.849 1.925-1.89 1.048.072 1.84.948 1.879 1.967Zm0 0" style="fill-rule:evenodd;fill:#be0f17;fill-opacity:1;stroke-width:.6;stroke-linecap:butt;stroke-linejoin:miter;stroke:#512007;stroke-opacity:1;stroke-miterlimit:4" transform="matrix(.00135 -.04111 .03445 .00154 1.646 26.186)"/><path d="M408.985 477.025c.038 1.019-.882 1.849-1.925 1.89s-1.837-.835-1.88-1.968a2.003 2.003 0 0 1 1.926-1.89c1.048.073 1.935.945 1.879 1.968Zm0 0" style="fill-rule:evenodd;fill:#be0f17;fill-opacity:1;stroke-width:.6;stroke-linecap:butt;stroke-linejoin:miter;stroke:#512007;stroke-opacity:1;stroke-miterlimit:4" transform="matrix(.00135 -.04111 .03445 .00154 1.646 25.764)"/><path d="M398.228 499.987c0-.157 8.975 3.832 8.975 4.145 0 .235 32.013 42.78 32.29 42.78m-16.006-42.78 8.234 3.441 2.59 6.413m-61.434-10.402c-.278 0 9.067 7.04 9.067 7.04l1.11 5.708m-41.728 29.642c3.979-1.643 32.198-26.357 32.198-26.357m-39.785 21.664 31.643-26.67m21.188 3.99 30.07 49.818m-3.608-29.25s3.423 11.732 6.939 13.53c2.683 1.408 5.181 2.972 7.587 4.615" style="fill:none;stroke-width:.5;stroke-linecap:butt;stroke-linejoin:miter;stroke:#512007;stroke-opacity:1;stroke-miterlimit:4" transform="matrix(.04222 0 0 .04995 1.91 -16.422)"/><path d="M412.569 539.482s2.498 13.843 6.014 16.424 7.032 5.475 7.032 5.475" style="fill:none;stroke-width:.5;stroke-linecap:butt;stroke-linejoin:miter;stroke:#512007;stroke-opacity:1;stroke-miterlimit:4" transform="matrix(.04222 0 0 .04995 1.91 -16.422)"/><path d="M390.993 439.02s3.423 19.16 10.363 23.618l12.86 8.056" style="fill:none;stroke-width:.5;stroke-linecap:butt;stroke-linejoin:miter;stroke:#512007;stroke-opacity:1;stroke-miterlimit:4" transform="matrix(.04222 0 0 .04995 1.805 -11.408)"/><path d="M390.716 438.707s7.494 15.172 13.97 19.786c6.292 4.693 14.99 8.994 14.99 8.994m-53.387-27.45c2.036 3.44 1.666 10.166 3.979 12.434 2.128 2.425 4.07 4.927 5.829 7.665m-9.252-19.943c1.11 1.72 4.348 10.401 6.384 12.982 1.48 2.425 16.284 17.206 16.284 17.206" style="fill:none;stroke-width:.5;stroke-linecap:butt;stroke-linejoin:miter;stroke:#512007;stroke-opacity:1;stroke-miterlimit:4" transform="matrix(.04222 0 0 .04995 1.805 -11.408)"/><path d="M384.609 471.085c0 1.251-1.018 2.19-2.22 2.19s-2.221-.939-2.221-2.19c0-1.173 1.018-2.19 2.22-2.19s2.221 1.017 2.221 2.19Zm10.733 4.692c0 1.095-.926 1.956-1.943 1.956-1.018 0-1.943-.86-1.943-1.956 0-1.016.925-1.877 1.943-1.877 1.017 0 1.943.86 1.943 1.877Zm13.693 1.252c0 1.017-.925 1.877-1.943 1.877s-1.85-.86-1.85-1.877c0-1.095.832-1.955 1.85-1.955s1.943.86 1.943 1.955Zm11.843-4.536c0 1.095-.555 1.642-1.573 1.72-1.018-.156-1.573-.704-1.573-1.72 0-.86.648-1.8 1.573-1.8 1.018.08 1.573.705 1.573 1.8Zm9.622-5.71q-.138 1.526-1.943 1.643c-.925 0-1.85-.704-1.85-1.643 0-.86.925-1.564 1.85-1.564 1.203.079 1.85.548 1.943 1.564Zm0 0" style="fill-rule:evenodd;fill:#000;fill-opacity:1;stroke-width:.5;stroke-linecap:butt;stroke-linejoin:miter;stroke:#512007;stroke-opacity:1;stroke-miterlimit:4" transform="matrix(.04222 0 0 .04995 1.805 -11.408)"/><path d="M374.061 404.373c-.832.626-15.358 4.145-13.323 3.832 1.943-.313 13.693 2.972 13.323 2.034-.277-1.017 0-5.24 0-5.866Zm24.704-4.302c-.555 0-8.975 3.207-8.697 3.207.37 0 9.622 2.66 9.345 2.033-.278-.625-.278-4.38-.648-5.24Zm25.351 2.894c-.647.313-10.547 2.66-8.697 2.972 1.758.235 8.42 2.581 8.42 1.955 0-.469 0-4.614.277-5.005Zm0 0" style="fill-rule:evenodd;fill:red;fill-opacity:1;stroke-width:.5;stroke-linecap:butt;stroke-linejoin:miter;stroke:#512007;stroke-opacity:1;stroke-miterlimit:4" transform="matrix(.04222 0 0 .04995 1.805 -11.408)"/><path d="M413.569 471.007c.37-4.615 8.79-30.97 8.79-30.97m-5.83 30.031 6.662-29.954m-3.7 27.686c.184-1.72 4.903-27.607 4.903-27.607m-10.455 26.982c1.48-.783 5.736-1.956 5.736-1.956m-3.7-2.58c1.387 0 4.348-1.252 4.348-1.252m-3.516-2.268c1.388-.547 2.868-.938 4.349-1.251m-3.794-3.207 4.719-.782m-2.59-2.972c0 .313 3.237.313 3.237.313m-2.405-3.754 3.146.547" style="fill:none;stroke-width:.5;stroke-linecap:butt;stroke-linejoin:miter;stroke:#512007;stroke-opacity:1;stroke-miterlimit:4" transform="matrix(.04222 0 0 .04995 1.805 -11.408)"/><path d="M413.573 471.015c.37-4.635 8.79-31.025 8.79-31.025m-5.83 31.324 6.662-31.1m-4.441 31.175 5.644-31.174m-10.455 26.987c1.48-.822 5.736-2.018 5.736-2.018m-3.7-2.617c1.387 0 4.348-1.196 4.348-1.196m-3.516-2.242c1.388-.598 2.868-.972 4.348-1.197m-3.793-3.214 4.719-.823m-2.591-2.99c0 .3 3.238.3 3.238.3m-2.405-3.739 3.145.524" style="fill:none;stroke-width:.5;stroke-linecap:butt;stroke-linejoin:miter;stroke:#512007;stroke-opacity:1;stroke-miterlimit:4" transform="matrix(.04222 0 0 .05225 .758 -12.326)"/><path d="M413.64 471.012c.278-4.622 8.79-31.04 8.79-31.04m-5.922 30.115 6.662-29.962m-3.701 27.652c.185-1.695 4.904-27.575 4.904-27.575m-10.455 27.036c1.48-.848 5.736-2.003 5.736-2.003m-3.608-2.619c1.387 0 4.256-1.232 4.256-1.232m-3.516-2.311c1.48-.54 2.868-.924 4.44-1.155m-3.793-3.235 4.627-.77m-2.591-3.004c0 .308 3.238.308 3.238.308m-2.405-3.698 3.238.463" style="fill:none;stroke-width:.5;stroke-linecap:butt;stroke-linejoin:miter;stroke:#512007;stroke-opacity:1;stroke-miterlimit:4" transform="matrix(-.04222 0 0 .05071 35.678 -11.708)"/><path d="m426.355 558.487 27.664.626.278-2.034-28.497-.313Zm1.203-7.273c3.238 0 27.387-4.615 27.387-4.615s.832-2.972 0-2.972c-.926 0-27.387 5.553-27.387 5.553Zm0 0" style="fill-rule:evenodd;fill:#dd8b59;fill-opacity:1;stroke-width:.5;stroke-linecap:butt;stroke-linejoin:miter;stroke:#512007;stroke-opacity:1;stroke-miterlimit:4" transform="matrix(.04222 0 0 .04995 1.91 -16.422)"/><path d="M408.994 477.025c.038 1.019-.881 1.848-1.925 1.89-1.044.04-1.837-.836-1.88-1.968-.037-1.019.882-1.849 1.926-1.89 1.048.073 1.84.949 1.879 1.968Zm0 0" style="fill-rule:evenodd;fill:#be0f17;fill-opacity:1;stroke-width:.6;stroke-linecap:butt;stroke-linejoin:miter;stroke:#512007;stroke-opacity:1;stroke-miterlimit:4" transform="matrix(.00135 -.04111 .03445 .00154 1.646 25.975)"/><path d="M0 0h12.5v9.5H0Zm0 0" style="stroke:none;fill-rule:nonzero;fill:#012169;fill-opacity:1"/><path d="M1.465 0 6.23 3.582 10.977 0H12.5v1.227L7.813 4.77 12.5 8.293V9.5h-1.562L6.25 5.957 1.582 9.5H0V8.313l4.668-3.524L0 1.266V0Zm0 0" style="stroke:none;fill-rule:nonzero;fill:#fff;fill-opacity:1"/><path d="M8.281 5.563 12.5 8.707V9.5L7.207 5.563Zm-3.594.394.118.691L1.055 9.5H0ZM12.5 0v.059L7.637 3.78l.039-.87L11.523 0ZM0 0l4.668 3.484H3.496L0 .832Zm0 0" style="stroke:none;fill-rule:nonzero;fill:#c8102e;fill-opacity:1"/><path d="M4.707 0v9.5h3.125V0ZM0 3.168v3.164h12.5V3.168Zm0 0" style="stroke:none;fill-rule:nonzero;fill:#fff;fill-opacity:1"/><path d="M0 3.82V5.72h12.5V3.82ZM5.332 0v9.5h1.875V0Zm0 0" style="stroke:none;fill-rule:nonzero;fill:#c8102e;fill-opacity:1"/></svg>