<?xml version="1.0" encoding="UTF-8"?>
<svg xmlns="http://www.w3.org/2000/svg" xmlns:xlink="http://www.w3.org/1999/xlink" width="25px" height="19px" viewBox="0 0 25 19" version="1.1">
<defs>
<linearGradient id="linear0" gradientUnits="userSpaceOnUse" x1="444.399994" y1="592.200012" x2="470.899994" y2="577.099976" gradientTransform="matrix(0.85733,0,0,0.9624,-162.399994,-0.6)">
<stop offset="0" style="stop-color:rgb(64.313725%,22.352941%,2.745098%);stop-opacity:1;"/>
<stop offset="1" style="stop-color:rgb(100%,100%,100%);stop-opacity:1;"/>
</linearGradient>
<linearGradient id="linear1" gradientUnits="userSpaceOnUse" x1="444.399994" y1="592.200012" x2="470.899994" y2="577.099976" gradientTransform="matrix(-1.08448,0,0,1.26674,909.5,-414.700012)">
<stop offset="0" style="stop-color:rgb(64.313725%,22.352941%,2.745098%);stop-opacity:1;"/>
<stop offset="1" style="stop-color:rgb(100%,100%,100%);stop-opacity:1;"/>
</linearGradient>
<linearGradient id="linear2" gradientUnits="userSpaceOnUse" x1="458.200012" y1="562.5" x2="520.5" y2="552.799988" gradientTransform="matrix(-1.01941,0,0,1.3554,909.5,-414.700012)">
<stop offset="0" style="stop-color:rgb(64.313725%,22.352941%,2.745098%);stop-opacity:1;"/>
<stop offset="1" style="stop-color:rgb(100%,100%,100%);stop-opacity:1;"/>
</linearGradient>
<linearGradient id="linear3" gradientUnits="userSpaceOnUse" x1="472.399994" y1="578.700012" x2="445.299988" y2="580.200012" gradientTransform="matrix(1.08448,0,0,1.26674,49.700001,-414.700012)">
<stop offset="0" style="stop-color:rgb(64.313725%,22.352941%,2.745098%);stop-opacity:1;"/>
<stop offset="1" style="stop-color:rgb(100%,100%,100%);stop-opacity:1;"/>
</linearGradient>
<linearGradient id="linear4" gradientUnits="userSpaceOnUse" x1="518" y1="553.700012" x2="456.399994" y2="558.099976" gradientTransform="matrix(1.01941,0,0,1.3554,49.700001,-414.700012)">
<stop offset="0" style="stop-color:rgb(64.313725%,22.352941%,2.745098%);stop-opacity:1;"/>
<stop offset="1" style="stop-color:rgb(100%,100%,100%);stop-opacity:1;"/>
</linearGradient>
<linearGradient id="linear5" gradientUnits="userSpaceOnUse" x1="851.799988" y1="369.899994" x2="646.200012" y2="369.899994" gradientTransform="matrix(0.85733,0,0,0.9624,-161.5,0.3)">
<stop offset="0" style="stop-color:rgb(64.313725%,22.352941%,2.745098%);stop-opacity:1;"/>
<stop offset="1" style="stop-color:rgb(100%,100%,100%);stop-opacity:1;"/>
</linearGradient>
<linearGradient id="linear6" gradientUnits="userSpaceOnUse" x1="388.5" y1="507.200012" x2="677.400024" y2="508.799988" gradientTransform="matrix(0.88927,0,0,1.54542,50.400002,-413.600006)">
<stop offset="0" style="stop-color:rgb(64.313725%,22.352941%,2.745098%);stop-opacity:1;"/>
<stop offset="1" style="stop-color:rgb(100%,100%,100%);stop-opacity:1;"/>
</linearGradient>
<linearGradient id="linear7" gradientUnits="userSpaceOnUse" x1="579.799988" y1="504.899994" x2="556.799988" y2="505.899994" gradientTransform="matrix(0.91096,0,0,1.52008,49.700001,-414.700012)">
<stop offset="0" style="stop-color:rgb(64.313725%,22.352941%,2.745098%);stop-opacity:1;"/>
<stop offset="1" style="stop-color:rgb(100%,100%,100%);stop-opacity:1;"/>
</linearGradient>
<linearGradient id="linear8" gradientUnits="userSpaceOnUse" x1="581.400024" y1="512" x2="558.900024" y2="514.299988" gradientTransform="matrix(-0.88927,0,0,1.54542,908.799988,-413.600006)">
<stop offset="0" style="stop-color:rgb(64.313725%,22.352941%,2.745098%);stop-opacity:1;"/>
<stop offset="1" style="stop-color:rgb(100%,100%,100%);stop-opacity:1;"/>
</linearGradient>
<linearGradient id="linear9" gradientUnits="userSpaceOnUse" x1="552" y1="517.900024" x2="589.799988" y2="503.899994" gradientTransform="matrix(-0.91096,0,0,1.52008,909.5,-414.700012)">
<stop offset="0" style="stop-color:rgb(64.313725%,22.352941%,2.745098%);stop-opacity:1;"/>
<stop offset="1" style="stop-color:rgb(100%,100%,100%);stop-opacity:1;"/>
</linearGradient>
</defs>
<g id="surface1">
<rect x="0" y="0" width="25" height="19" style="fill:rgb(0.392157%,12.941177%,41.176471%);fill-opacity:1;stroke:none;"/>
<path style=" stroke:none;fill-rule:evenodd;fill:rgb(0.392157%,12.941177%,41.176471%);fill-opacity:1;" d="M 0 0 L 15.625 0 L 15.625 7.917969 L 0 7.917969 Z M 0 0 "/>
<path style="fill-rule:evenodd;fill:url(#linear0);stroke-width:10;stroke-linecap:butt;stroke-linejoin:miter;stroke:rgb(100%,100%,100%);stroke-opacity:1;stroke-miterlimit:4;" d="M 412.9 308.881579 C 412.3 308.881579 411.8 308.881579 411.2 308.881579 C 408.2 309.473684 403.6 320.230263 401.2 326.546053 C 397.1 331.875 395 336.118421 393.4 339.177632 C 392.7 340.361842 391.7 341.842105 392 343.421053 C 386 345 385.7 350.822368 385.7 352.993421 C 385.7 355.460526 386.4 356.743421 386.4 356.743421 L 390 364.243421 L 390 364.342105 C 393.8 373.322368 399.4 385.164474 402.7 386.052632 C 407.1 387.631579 418.7 382.796053 427.5 374.407895 C 444.4 382.302632 462.4 386.348684 480.7 386.546053 C 501.1 386.546053 519.4 381.019737 533.7 374.407895 C 542.5 382.796053 554.1 387.631579 558.7 386.052632 C 561.7 385.065789 567.4 373.125 571.3 364.342105 L 574.8 356.743421 C 574.8 356.743421 575.5 355.460526 575.5 353.092105 C 575.5 350.921053 575.2 345.098684 569.2 343.519737 C 569.5 341.940789 568.6 340.460526 567.9 339.177632 C 566.2 336.019737 564.1 331.776316 560.2 326.151316 C 557.6 320.032895 553 309.473684 550.2 308.980263 C 546 308.190789 537.2 310.460526 537.2 311.447368 L 537.2 311.842105 L 519.5 330.394737 C 519.5 330.888158 520.4 344.407895 523.8 356.447368 C 509.9 361.973684 495.2 364.736842 480.5 364.638158 C 463.5 364.638158 449 361.184211 437.3 356.348684 C 439.5 347.861842 441 339.078947 441.6 330.296053 L 424 311.842105 L 424 311.447368 C 424 310.657895 417.2 308.881579 412.9 308.881579 Z M 417.3 331.875 C 419.6 331.875 421.9 334.144737 423.8 336.315789 L 423.7 337.598684 C 423 341.052632 422 344.506579 420.9 347.763158 C 416.5 345 412.5 341.644737 408.7 337.894737 C 410.6 335.625 413.7 332.467105 416.9 332.072368 L 417.3 332.072368 Z M 543.9 331.875 L 544.3 331.875 C 547.6 332.467105 550.6 335.625 552.6 337.894737 C 548.8 341.743421 544.7 345.098684 540.3 347.861842 C 539.1 344.506579 538.2 341.151316 537.5 337.598684 C 537.4 337.203947 537.4 336.710526 537.3 336.315789 C 539.3 334.046053 541.6 331.973684 543.9 331.973684 Z M 401.5 358.322368 C 403.9 360.394737 406.9 362.664474 410.6 365.131579 C 409.6 365.822368 408.5 366.414474 407.4 366.710526 C 405.8 367.006579 404.2 367.006579 402.7 366.710526 C 402.1 364.934211 401.7 363.059211 401.7 361.085526 C 401.6 360.197368 401.5 359.210526 401.5 358.322368 Z M 559.7 358.322368 L 559.6 361.085526 C 559.5 362.960526 559.2 364.835526 558.6 366.611842 C 555.9 367.302632 553 366.809211 550.6 365.131579 C 554.3 362.664474 557.4 360.394737 559.7 358.322368 Z M 559.7 358.322368 " transform="matrix(0.0390625,0,0,0.0395833,0,0)"/>
<path style="fill-rule:evenodd;fill:url(#linear1);stroke-width:1.2;stroke-linecap:butt;stroke-linejoin:miter;stroke:rgb(0%,0%,0%);stroke-opacity:1;stroke-miterlimit:4;" d="M 426.2 339.572368 C 426.2 339.572368 420.1 328.519737 415.1 329.407895 C 410 330.098684 405.1 337.203947 404.9 337.598684 C 402.1 334.835526 399.6 331.578947 397.4 328.125 C 397.7 327.730263 405.2 307.203947 409.4 306.315789 C 413.4 305.427632 422.1 307.796053 422.1 308.585526 Z M 426.2 339.572368 " transform="matrix(0.0390625,0,0,0.0395833,0,0)"/>
<path style="fill-rule:evenodd;fill:url(#linear2);stroke-width:1.2;stroke-linecap:butt;stroke-linejoin:miter;stroke:rgb(0%,0%,0%);stroke-opacity:1;stroke-miterlimit:4;" d="M 439.8 327.730263 C 439.8 328.519737 437.6 357.927632 428.9 368.092105 C 420.3 378.355263 405.9 384.671053 400.7 383.190789 C 395.7 381.611842 384.2 351.907895 384.2 351.907895 C 384.2 351.907895 396.4 366.118421 405.5 363.651316 C 414.6 361.282895 420.1 343.618421 421.8 334.835526 C 423.5 326.151316 422.1 309.078947 422.1 309.078947 L 439.9 327.730263 Z M 439.8 327.730263 " transform="matrix(0.0390625,0,0,0.0395833,0,0)"/>
<path style="fill-rule:evenodd;fill:url(#linear3);stroke-width:1.2;stroke-linecap:butt;stroke-linejoin:miter;stroke:rgb(0%,0%,0%);stroke-opacity:1;stroke-miterlimit:4;" d="M 532.9 339.572368 C 532.9 339.572368 539.1 328.519737 544.1 329.407895 C 549.1 330.098684 553.9 337.203947 554.3 337.598684 C 557.1 334.835526 559.6 331.578947 561.8 328.125 C 561.4 327.730263 553.9 307.203947 549.8 306.315789 C 545.7 305.427632 537 307.796053 537 308.585526 Z M 532.9 339.572368 " transform="matrix(0.0390625,0,0,0.0395833,0,0)"/>
<path style="fill-rule:evenodd;fill:url(#linear4);stroke-width:1.2;stroke-linecap:butt;stroke-linejoin:miter;stroke:rgb(0%,0%,0%);stroke-opacity:1;stroke-miterlimit:4;" d="M 519.3 327.730263 C 519.3 328.519737 521.5 357.927632 530.2 368.092105 C 538.9 378.355263 553.2 384.671053 558.4 383.190789 C 563.4 381.611842 575 351.907895 575 351.907895 C 575 351.907895 562.7 366.118421 553.6 363.651316 C 544.5 361.282895 539.1 343.618421 537.4 334.835526 C 535.6 326.151316 537 309.078947 537 309.078947 Z M 519.3 327.730263 " transform="matrix(0.0390625,0,0,0.0395833,0,0)"/>
<path style="fill-rule:evenodd;fill:url(#linear5);stroke-width:1.5;stroke-linecap:butt;stroke-linejoin:miter;stroke:rgb(0%,0%,0%);stroke-opacity:1;stroke-miterlimit:4;" d="M 401.2 326.151316 C 397.2 331.677632 395.1 336.019737 393.3 339.177632 C 391.6 342.335526 392.7 346.973684 396.5 353.190789 C 400.8 359.901316 435.5 386.644737 480.6 386.644737 C 525.8 386.644737 560.4 360 564.6 353.190789 C 568.6 346.973684 569.7 342.236842 567.9 339.177632 C 566.2 336.019737 564 331.677632 560 326.151316 C 560 334.539474 531.3 364.736842 480.6 364.736842 C 429.9 364.736842 401.2 334.539474 401.2 326.151316 Z M 401.2 326.151316 " transform="matrix(0.0390625,0,0,0.0395833,0,0)"/>
<path style="fill-rule:evenodd;fill:url(#linear6);stroke-width:1.2;stroke-linecap:butt;stroke-linejoin:miter;stroke:rgb(0%,0%,0%);stroke-opacity:1;stroke-miterlimit:4;" d="M 557.7 378.848684 L 565.5 363.651316 L 561.6 360.493421 C 560.6 364.342105 556.1 365.625 555.3 370.460526 C 554.6 375.197368 558.3 379.934211 557.7 378.848684 Z M 557.7 378.848684 " transform="matrix(0.0390625,0,0,0.0395833,0,0)"/>
<path style="fill-rule:evenodd;fill:url(#linear7);stroke-width:1.2;stroke-linecap:butt;stroke-linejoin:miter;stroke:rgb(0%,0%,0%);stroke-opacity:1;stroke-miterlimit:4;" d="M 564.8 374.506579 C 564.8 374.506579 566.2 367.697368 561.8 366.907895 C 557.4 366.118421 555 370.657895 555.7 368.881579 C 556.3 366.907895 558.9 364.934211 559.4 358.223684 C 559.7 351.513158 559 347.861842 559 347.861842 C 559 347.861842 560.8 339.177632 567.8 340.361842 C 575 341.743421 575.3 347.960526 575.3 350.328947 C 575.3 351.513158 575.1 352.697368 574.7 353.782895 Z M 564.8 374.506579 " transform="matrix(0.0390625,0,0,0.0395833,0,0)"/>
<path style=" stroke:none;fill-rule:nonzero;fill:rgb(0%,0%,0%);fill-opacity:1;" d="M 21.0625 13.921875 L 21.121094 14.03125 L 21.160156 14.007812 L 21.132812 13.929688 L 21.136719 13.917969 L 21.203125 13.871094 L 21.375 14.214844 L 21.375 14.234375 L 21.335938 14.261719 L 21.355469 14.292969 L 21.519531 14.175781 L 21.503906 14.144531 L 21.464844 14.167969 L 21.453125 14.167969 L 21.28125 13.820312 L 21.34375 13.769531 L 21.359375 13.769531 L 21.398438 13.835938 L 21.4375 13.808594 L 21.378906 13.695312 L 21.066406 13.921875 Z M 20.652344 14.1875 L 20.667969 14.21875 L 20.703125 14.203125 L 20.714844 14.207031 L 20.867188 14.558594 L 20.863281 14.574219 L 20.832031 14.597656 L 20.84375 14.628906 L 21.003906 14.53125 L 20.992188 14.5 L 20.957031 14.515625 L 20.941406 14.515625 L 20.871094 14.34375 L 21.039062 14.25 L 21.109375 14.410156 L 21.109375 14.429688 L 21.070312 14.453125 L 21.085938 14.488281 L 21.25 14.386719 L 21.234375 14.355469 L 21.199219 14.371094 L 21.1875 14.363281 L 21.039062 14.015625 L 21.039062 14 L 21.070312 13.976562 L 21.058594 13.945312 L 20.898438 14.042969 L 20.910156 14.074219 L 20.949219 14.054688 L 20.960938 14.0625 L 21.019531 14.207031 L 20.855469 14.304688 L 20.792969 14.160156 L 20.800781 14.144531 L 20.832031 14.125 L 20.816406 14.085938 Z M 20.558594 14.488281 L 20.566406 14.519531 L 20.613281 14.507812 L 20.628906 14.511719 L 20.664062 14.65625 L 20.632812 14.671875 C 20.53125 14.703125 20.460938 14.652344 20.425781 14.527344 C 20.394531 14.402344 20.433594 14.304688 20.523438 14.273438 C 20.542969 14.269531 20.558594 14.265625 20.578125 14.269531 L 20.589844 14.277344 L 20.621094 14.34375 L 20.667969 14.328125 L 20.640625 14.210938 C 20.589844 14.210938 20.542969 14.21875 20.503906 14.234375 C 20.363281 14.285156 20.300781 14.414062 20.335938 14.558594 C 20.371094 14.707031 20.488281 14.773438 20.617188 14.730469 C 20.664062 14.710938 20.710938 14.683594 20.75 14.648438 L 20.703125 14.488281 L 20.710938 14.472656 L 20.746094 14.457031 L 20.734375 14.421875 Z M 20.179688 14.894531 L 20.363281 14.828125 L 20.351562 14.792969 L 20.3125 14.800781 L 20.300781 14.796875 L 20.199219 14.417969 L 20.203125 14.40625 L 20.242188 14.382812 L 20.234375 14.351562 L 20.050781 14.417969 L 20.0625 14.453125 L 20.101562 14.441406 L 20.117188 14.449219 L 20.214844 14.824219 L 20.207031 14.839844 L 20.167969 14.855469 L 20.179688 14.890625 Z M 19.183594 15.078125 L 19.507812 15.046875 L 19.496094 14.910156 L 19.457031 14.914062 L 19.449219 14.996094 L 19.441406 15.007812 L 19.304688 15.023438 L 19.289062 14.828125 L 19.367188 14.820312 L 19.378906 14.832031 L 19.386719 14.882812 L 19.425781 14.882812 L 19.410156 14.710938 L 19.371094 14.710938 L 19.371094 14.765625 L 19.363281 14.78125 L 19.285156 14.785156 L 19.269531 14.609375 L 19.390625 14.597656 L 19.398438 14.605469 L 19.414062 14.671875 L 19.457031 14.667969 L 19.449219 14.550781 L 19.144531 14.582031 L 19.144531 14.617188 L 19.183594 14.617188 L 19.195312 14.628906 L 19.222656 15.023438 L 19.21875 15.035156 L 19.179688 15.042969 L 19.179688 15.082031 Z M 18.699219 14.589844 L 18.699219 14.628906 L 18.738281 14.628906 L 18.746094 14.640625 L 18.75 15.035156 L 18.742188 15.046875 L 18.707031 15.054688 L 18.707031 15.085938 L 18.878906 15.085938 L 18.878906 15.050781 L 18.839844 15.050781 L 18.832031 15.035156 L 18.832031 14.84375 L 19.003906 14.84375 L 19.003906 15.027344 L 18.996094 15.039062 L 18.960938 15.042969 L 18.960938 15.082031 L 19.132812 15.082031 L 19.132812 15.042969 L 19.09375 15.042969 L 19.089844 15.027344 L 19.082031 14.628906 L 19.089844 14.617188 L 19.128906 14.617188 L 19.128906 14.578125 L 18.953125 14.578125 L 18.953125 14.617188 L 18.992188 14.621094 L 19 14.632812 L 19 14.792969 L 18.832031 14.796875 L 18.824219 14.636719 L 18.835938 14.625 L 18.871094 14.625 L 18.871094 14.585938 Z M 18.332031 14.578125 L 18.332031 14.710938 L 18.371094 14.710938 L 18.382812 14.628906 L 18.390625 14.617188 L 18.464844 14.617188 L 18.464844 15.023438 L 18.453125 15.039062 L 18.414062 15.039062 L 18.414062 15.078125 L 18.59375 15.078125 L 18.59375 15.042969 L 18.554688 15.039062 L 18.542969 15.023438 L 18.546875 14.625 L 18.617188 14.625 L 18.628906 14.632812 L 18.640625 14.714844 L 18.679688 14.714844 L 18.679688 14.582031 Z M 17.773438 15 L 18.085938 15.015625 L 18.09375 14.882812 L 18.054688 14.882812 L 18.042969 14.957031 L 18.035156 14.964844 L 17.898438 14.960938 L 17.90625 14.765625 L 17.980469 14.773438 L 17.988281 14.785156 L 17.996094 14.839844 L 18.027344 14.839844 L 18.035156 14.667969 L 18 14.667969 L 17.992188 14.71875 L 17.984375 14.730469 L 17.90625 14.730469 L 17.914062 14.546875 L 18.03125 14.554688 L 18.039062 14.5625 L 18.042969 14.628906 L 18.085938 14.628906 L 18.085938 14.515625 L 17.792969 14.5 L 17.792969 14.535156 L 17.832031 14.542969 L 17.835938 14.554688 L 17.820312 14.945312 L 17.8125 14.957031 L 17.773438 14.957031 Z M 17.046875 14.785156 L 17.21875 14.847656 L 17.226562 14.816406 L 17.1875 14.796875 L 17.1875 14.78125 L 17.285156 14.40625 L 17.296875 14.394531 L 17.335938 14.410156 L 17.34375 14.375 L 17.175781 14.308594 L 17.167969 14.34375 L 17.203125 14.359375 L 17.210938 14.375 L 17.105469 14.75 L 17.097656 14.761719 L 17.058594 14.75 Z M 16.75 14.652344 C 16.78125 14.679688 16.816406 14.703125 16.851562 14.71875 C 16.945312 14.75 17.019531 14.710938 17.039062 14.628906 C 17.050781 14.585938 17.042969 14.539062 17.019531 14.503906 L 16.949219 14.425781 C 16.925781 14.390625 16.917969 14.359375 16.925781 14.324219 C 16.9375 14.285156 16.96875 14.273438 17.011719 14.285156 C 17.027344 14.292969 17.039062 14.304688 17.050781 14.3125 L 17.050781 14.324219 L 17.042969 14.40625 L 17.082031 14.417969 L 17.113281 14.304688 C 17.085938 14.277344 17.050781 14.253906 17.015625 14.238281 C 16.9375 14.207031 16.867188 14.25 16.84375 14.324219 C 16.835938 14.363281 16.839844 14.402344 16.859375 14.4375 C 16.878906 14.472656 16.898438 14.5 16.917969 14.515625 C 16.953125 14.554688 16.964844 14.59375 16.957031 14.628906 C 16.945312 14.671875 16.914062 14.683594 16.863281 14.667969 C 16.847656 14.664062 16.832031 14.652344 16.816406 14.636719 L 16.8125 14.625 L 16.828125 14.539062 L 16.785156 14.523438 Z M 16.367188 14.472656 L 16.65625 14.628906 L 16.703125 14.511719 L 16.664062 14.492188 L 16.628906 14.558594 L 16.617188 14.5625 L 16.496094 14.492188 L 16.566406 14.320312 L 16.636719 14.359375 L 16.636719 14.371094 L 16.625 14.425781 L 16.65625 14.445312 L 16.71875 14.285156 L 16.6875 14.269531 L 16.660156 14.3125 L 16.648438 14.320312 L 16.582031 14.28125 L 16.644531 14.125 L 16.75 14.183594 L 16.753906 14.195312 L 16.738281 14.257812 L 16.777344 14.277344 L 16.816406 14.175781 L 16.550781 14.019531 L 16.535156 14.050781 L 16.566406 14.074219 L 16.570312 14.089844 L 16.429688 14.449219 L 16.417969 14.449219 L 16.382812 14.4375 Z M 16.324219 13.878906 L 16.179688 13.761719 L 16.160156 13.792969 L 16.1875 13.824219 L 16.191406 13.839844 L 16.011719 14.164062 L 15.996094 14.167969 L 15.96875 14.148438 L 15.949219 14.179688 L 16.089844 14.289062 C 16.140625 14.328125 16.1875 14.347656 16.230469 14.34375 C 16.296875 14.335938 16.347656 14.296875 16.386719 14.226562 C 16.457031 14.089844 16.4375 13.964844 16.324219 13.878906 M 16.261719 13.878906 L 16.292969 13.902344 C 16.371094 13.960938 16.378906 14.046875 16.3125 14.164062 C 16.246094 14.28125 16.175781 14.308594 16.101562 14.242188 L 16.070312 14.226562 L 16.265625 13.882812 Z M 17.40625 14.390625 L 17.402344 14.425781 L 17.4375 14.4375 L 17.441406 14.453125 L 17.375 14.835938 L 17.363281 14.84375 L 17.324219 14.84375 L 17.324219 14.875 L 17.484375 14.914062 L 17.492188 14.882812 L 17.453125 14.867188 L 17.449219 14.855469 L 17.476562 14.691406 L 17.488281 14.691406 C 17.546875 14.710938 17.558594 14.746094 17.558594 14.820312 C 17.558594 14.855469 17.570312 14.890625 17.589844 14.925781 C 17.601562 14.945312 17.617188 14.957031 17.644531 14.960938 C 17.664062 14.96875 17.683594 14.96875 17.703125 14.96875 L 17.707031 14.9375 L 17.703125 14.9375 C 17.664062 14.929688 17.644531 14.90625 17.644531 14.867188 C 17.636719 14.828125 17.644531 14.789062 17.628906 14.75 C 17.617188 14.722656 17.601562 14.703125 17.578125 14.691406 C 17.644531 14.691406 17.683594 14.660156 17.695312 14.59375 C 17.710938 14.511719 17.671875 14.460938 17.582031 14.4375 Z M 17.523438 14.460938 L 17.546875 14.46875 C 17.601562 14.484375 17.625 14.523438 17.613281 14.582031 C 17.601562 14.652344 17.566406 14.675781 17.503906 14.652344 L 17.484375 14.648438 L 17.519531 14.460938 Z M 19.640625 14.5 L 19.644531 14.539062 L 19.683594 14.539062 L 19.695312 14.546875 L 19.75 14.933594 L 19.742188 14.945312 L 19.703125 14.957031 L 19.710938 14.988281 L 19.886719 14.957031 L 19.886719 14.917969 L 19.84375 14.925781 L 19.832031 14.914062 L 19.808594 14.757812 L 19.820312 14.757812 C 19.882812 14.738281 19.90625 14.765625 19.9375 14.832031 C 19.949219 14.863281 19.957031 14.894531 19.996094 14.917969 C 20.011719 14.929688 20.035156 14.933594 20.066406 14.929688 C 20.085938 14.925781 20.109375 14.917969 20.128906 14.910156 L 20.125 14.875 L 20.117188 14.875 C 20.078125 14.886719 20.050781 14.875 20.03125 14.839844 C 20.019531 14.804688 20 14.773438 19.980469 14.742188 C 19.964844 14.71875 19.941406 14.710938 19.910156 14.710938 C 19.976562 14.675781 20.007812 14.628906 20 14.5625 C 19.988281 14.480469 19.933594 14.449219 19.835938 14.464844 Z M 19.777344 14.519531 L 19.804688 14.519531 C 19.867188 14.503906 19.902344 14.527344 19.914062 14.589844 C 19.925781 14.652344 19.894531 14.691406 19.828125 14.710938 L 19.804688 14.710938 L 19.773438 14.519531 Z M 19.777344 14.519531 "/>
<path style="fill-rule:evenodd;fill:url(#linear8);stroke-width:1.2;stroke-linecap:butt;stroke-linejoin:miter;stroke:rgb(0%,0%,0%);stroke-opacity:1;stroke-miterlimit:4;" d="M 401.5 378.848684 L 393.7 363.651316 L 397.6 360.493421 C 398.6 364.342105 403.1 365.625 403.9 370.460526 C 404.6 375.197368 400.9 379.934211 401.5 378.848684 Z M 401.5 378.848684 " transform="matrix(0.0390625,0,0,0.0395833,0,0)"/>
<path style="fill-rule:evenodd;fill:url(#linear9);stroke-width:1.2;stroke-linecap:butt;stroke-linejoin:miter;stroke:rgb(0%,0%,0%);stroke-opacity:1;stroke-miterlimit:4;" d="M 394.3 374.506579 C 394.3 374.506579 392.9 367.697368 397.3 366.907895 C 401.7 366.118421 404.1 370.657895 403.5 368.881579 C 402.8 366.907895 400.2 364.934211 399.8 358.223684 C 399.4 351.513158 400.1 347.861842 400.1 347.861842 C 400.1 347.861842 398.4 339.177632 391.3 340.361842 C 384.2 341.743421 383.8 347.960526 383.8 350.328947 C 383.8 352.5 384.5 353.782895 384.5 353.782895 Z M 394.3 374.506579 " transform="matrix(0.0390625,0,0,0.0395833,0,0)"/>
<path style="fill-rule:evenodd;fill:rgb(0%,44.705883%,76.862746%);fill-opacity:1;stroke-width:3.9;stroke-linecap:butt;stroke-linejoin:miter;stroke:rgb(100%,100%,100%);stroke-opacity:1;stroke-miterlimit:4;" d="M 480.5 356.052632 C 480.5 356.052632 398.5 329.111842 399.1 226.677632 L 399.7 91.085526 L 561 91.085526 L 561.6 225.888158 C 562.1 328.322368 480.2 355.953947 480.2 355.953947 Z M 480.5 356.052632 " transform="matrix(0.0390625,0,0,0.0395833,0,0)"/>
<path style=" stroke:none;fill-rule:evenodd;fill:rgb(73.725492%,73.725492%,73.725492%);fill-opacity:1;" d="M 16.027344 4.890625 L 16.105469 4.8125 C 16.15625 4.777344 16.203125 4.746094 16.25 4.71875 C 16.289062 4.695312 16.367188 4.675781 16.394531 4.65625 C 16.441406 4.628906 16.480469 4.589844 16.511719 4.542969 C 16.519531 4.476562 16.53125 4.425781 16.53125 4.347656 C 16.574219 4.3125 16.621094 4.285156 16.671875 4.265625 C 16.738281 4.242188 16.75 4.210938 16.820312 4.199219 C 16.859375 4.183594 16.929688 4.183594 16.992188 4.183594 C 17.054688 4.183594 17.097656 4.238281 17.15625 4.246094 C 17.226562 4.277344 17.257812 4.300781 17.316406 4.359375 C 17.339844 4.40625 17.375 4.445312 17.417969 4.476562 C 17.460938 4.5 17.503906 4.539062 17.550781 4.554688 C 17.609375 4.589844 17.65625 4.613281 17.699219 4.667969 C 17.738281 4.699219 17.753906 4.746094 17.789062 4.773438 C 17.832031 4.816406 17.875 4.851562 17.921875 4.882812 C 17.980469 4.929688 18.039062 4.964844 18.125 4.953125 C 18.175781 4.953125 18.226562 4.941406 18.28125 4.953125 C 18.351562 4.949219 18.414062 4.957031 18.46875 4.972656 C 18.535156 4.972656 18.597656 4.976562 18.65625 4.988281 C 18.714844 4.996094 18.773438 5 18.839844 5 C 18.898438 5.015625 18.960938 5.019531 19.027344 5.015625 L 19.398438 5.015625 C 19.464844 5.015625 19.527344 5.019531 19.582031 5.03125 C 19.644531 5.03125 19.703125 5.023438 19.765625 5.015625 C 19.832031 5.011719 19.898438 5.007812 19.960938 5 L 20.1875 5 C 20.246094 5.019531 20.320312 5.03125 20.359375 5.066406 C 20.414062 5.082031 20.4375 5.109375 20.492188 5.125 C 20.542969 5.152344 20.589844 5.191406 20.625 5.238281 C 20.667969 5.289062 20.703125 5.347656 20.730469 5.410156 C 20.769531 5.46875 20.78125 5.542969 20.808594 5.617188 C 20.824219 5.683594 20.832031 5.757812 20.835938 5.835938 C 20.847656 5.902344 20.851562 5.976562 20.847656 6.054688 C 20.839844 6.128906 20.828125 6.203125 20.808594 6.273438 C 20.804688 6.351562 20.796875 6.421875 20.78125 6.480469 C 20.773438 6.542969 20.757812 6.585938 20.753906 6.664062 L 20.753906 6.886719 C 20.753906 6.957031 20.738281 7.015625 20.730469 7.089844 C 20.695312 7.167969 20.664062 7.246094 20.636719 7.328125 C 20.59375 7.363281 20.558594 7.40625 20.53125 7.453125 C 20.503906 7.472656 20.488281 7.503906 20.492188 7.515625 C 20.546875 7.535156 20.53125 7.582031 20.53125 7.65625 L 20.558594 7.859375 C 20.5625 7.941406 20.578125 7.980469 20.597656 8.035156 C 20.621094 8.066406 20.625 8.050781 20.570312 8.050781 C 20.527344 8.082031 20.496094 8.066406 20.480469 8.003906 C 20.449219 7.953125 20.429688 7.890625 20.425781 7.828125 C 20.417969 7.753906 20.40625 7.691406 20.386719 7.640625 C 20.378906 7.550781 20.359375 7.550781 20.28125 7.542969 C 20.246094 7.511719 20.191406 7.5 20.125 7.5 C 20.046875 7.5 20.046875 7.492188 20.046875 7.582031 L 20.046875 7.800781 C 20.027344 7.859375 20.007812 7.917969 19.988281 7.972656 C 19.949219 8.003906 19.933594 8.058594 19.882812 8.097656 C 19.863281 8.171875 19.828125 8.179688 19.765625 8.195312 L 19.6875 8.082031 C 19.726562 8.011719 19.753906 8.003906 19.777344 7.925781 C 19.808594 7.859375 19.824219 7.820312 19.84375 7.765625 C 19.816406 7.71875 19.792969 7.695312 19.765625 7.628906 C 19.738281 7.574219 19.714844 7.515625 19.699219 7.453125 C 19.65625 7.4375 19.585938 7.433594 19.554688 7.40625 C 19.488281 7.390625 19.472656 7.472656 19.398438 7.472656 L 19.210938 7.472656 C 19.128906 7.472656 19.109375 7.519531 19.039062 7.515625 C 19.019531 7.523438 18.96875 7.523438 18.894531 7.515625 C 18.835938 7.539062 18.769531 7.53125 18.707031 7.53125 C 18.644531 7.527344 18.585938 7.515625 18.535156 7.5 C 18.476562 7.480469 18.417969 7.464844 18.351562 7.453125 C 18.273438 7.453125 18.246094 7.460938 18.195312 7.5 C 18.15625 7.527344 18.09375 7.59375 18.050781 7.628906 C 18.03125 7.679688 18.019531 7.765625 17.992188 7.828125 C 17.980469 7.898438 17.957031 7.933594 17.945312 7.988281 C 17.921875 8.046875 17.910156 8.113281 17.90625 8.179688 C 17.898438 8.28125 17.878906 8.269531 17.824219 8.242188 C 17.796875 8.195312 17.773438 8.148438 17.746094 8.097656 C 17.753906 8.019531 17.773438 7.980469 17.773438 7.898438 C 17.757812 7.828125 17.730469 7.835938 17.695312 7.878906 C 17.695312 7.960938 17.695312 8.023438 17.664062 8.066406 C 17.652344 8.117188 17.625 8.164062 17.585938 8.191406 C 17.566406 8.238281 17.527344 8.28125 17.480469 8.300781 C 17.476562 8.300781 17.476562 8.28125 17.480469 8.238281 C 17.449219 8.171875 17.480469 8.105469 17.480469 8.019531 C 17.480469 7.941406 17.472656 7.890625 17.496094 7.816406 C 17.496094 7.738281 17.464844 7.667969 17.457031 7.613281 C 17.429688 7.550781 17.414062 7.523438 17.347656 7.5 C 17.300781 7.476562 17.230469 7.453125 17.203125 7.402344 C 17.171875 7.355469 17.128906 7.316406 17.082031 7.296875 C 17.023438 7.269531 16.992188 7.246094 16.949219 7.214844 C 16.910156 7.164062 16.875 7.144531 16.859375 7.078125 C 16.832031 7.03125 16.828125 6.9375 16.808594 6.871094 C 16.804688 6.808594 16.789062 6.746094 16.769531 6.6875 C 16.761719 6.621094 16.75 6.558594 16.730469 6.496094 L 16.6875 6.289062 C 16.691406 6.214844 16.683594 6.140625 16.671875 6.070312 L 16.671875 5.851562 C 16.664062 5.78125 16.660156 5.691406 16.648438 5.644531 C 16.648438 5.5625 16.636719 5.515625 16.617188 5.453125 C 16.589844 5.398438 16.589844 5.375 16.539062 5.363281 C 16.503906 5.410156 16.453125 5.4375 16.382812 5.441406 C 16.335938 5.429688 16.265625 5.417969 16.210938 5.394531 C 16.15625 5.378906 16.125 5.355469 16.082031 5.328125 C 16.054688 5.285156 16.027344 5.246094 16 5.210938 C 15.992188 5.125 15.976562 5.082031 15.972656 5 C 15.972656 4.941406 15.972656 4.976562 16.027344 4.890625 "/>
<path style=" stroke:none;fill-rule:evenodd;fill:rgb(99.607843%,99.607843%,99.607843%);fill-opacity:1;" d="M 16.808594 5.460938 L 16.820312 5.445312 C 16.796875 5.472656 16.804688 5.457031 16.859375 5.433594 C 16.882812 5.417969 16.9375 5.378906 16.957031 5.355469 C 16.980469 5.34375 17.023438 5.328125 17.042969 5.304688 C 17.066406 5.273438 17.09375 5.242188 17.128906 5.21875 C 17.164062 5.175781 17.195312 5.164062 17.238281 5.136719 C 17.289062 5.128906 17.3125 5.105469 17.359375 5.125 C 17.40625 5.136719 17.425781 5.136719 17.460938 5.089844 C 17.503906 5.066406 17.539062 5.035156 17.558594 4.996094 L 17.558594 4.925781 C 17.558594 4.996094 17.542969 5.023438 17.5 5.042969 C 17.472656 5.085938 17.429688 5.128906 17.414062 5.167969 C 17.386719 5.21875 17.378906 5.246094 17.351562 5.269531 C 17.324219 5.304688 17.285156 5.324219 17.273438 5.378906 C 17.289062 5.40625 17.273438 5.417969 17.304688 5.421875 C 17.332031 5.449219 17.359375 5.4375 17.398438 5.421875 C 17.429688 5.382812 17.453125 5.339844 17.472656 5.292969 L 17.539062 5.175781 C 17.570312 5.160156 17.589844 5.128906 17.601562 5.089844 C 17.640625 5.0625 17.671875 5.039062 17.699219 5.011719 C 17.726562 4.996094 17.738281 4.976562 17.777344 4.96875 C 17.78125 5.011719 17.769531 5.054688 17.75 5.089844 C 17.742188 5.152344 17.746094 5.179688 17.761719 5.222656 C 17.789062 5.246094 17.785156 5.261719 17.800781 5.300781 C 17.816406 5.261719 17.824219 5.191406 17.828125 5.144531 L 17.828125 5.136719 C 17.828125 5.179688 17.828125 5.25 17.816406 5.28125 C 17.816406 5.34375 17.832031 5.375 17.847656 5.421875 C 17.859375 5.449219 17.875 5.46875 17.890625 5.476562 C 17.890625 5.414062 17.910156 5.375 17.914062 5.316406 L 17.929688 5.46875 C 17.933594 5.519531 17.945312 5.5625 17.96875 5.601562 C 17.988281 5.617188 17.996094 5.660156 18.003906 5.625 C 18.027344 5.546875 18.027344 5.464844 18.042969 5.378906 C 18.042969 5.339844 18.042969 5.277344 18.0625 5.25 L 18.039062 5.378906 C 18.042969 5.339844 18.046875 5.28125 18.0625 5.25 L 18.0625 5.234375 C 18.074219 5.292969 18.078125 5.355469 18.082031 5.414062 C 18.078125 5.460938 18.082031 5.511719 18.089844 5.558594 C 18.117188 5.539062 18.136719 5.507812 18.15625 5.457031 C 18.175781 5.414062 18.203125 5.371094 18.230469 5.335938 L 18.152344 5.453125 C 18.175781 5.410156 18.199219 5.371094 18.230469 5.335938 L 18.230469 5.328125 C 18.226562 5.378906 18.222656 5.429688 18.222656 5.476562 C 18.222656 5.535156 18.226562 5.585938 18.230469 5.625 C 18.242188 5.683594 18.253906 5.691406 18.257812 5.753906 C 18.253906 5.792969 18.257812 5.820312 18.265625 5.835938 C 18.304688 5.847656 18.304688 5.824219 18.3125 5.753906 C 18.316406 5.695312 18.324219 5.632812 18.332031 5.570312 C 18.332031 5.484375 18.339844 5.582031 18.351562 5.609375 C 18.367188 5.65625 18.378906 5.707031 18.378906 5.757812 C 18.378906 5.792969 18.382812 5.820312 18.386719 5.839844 C 18.425781 5.820312 18.4375 5.769531 18.464844 5.746094 C 18.480469 5.691406 18.503906 5.667969 18.519531 5.636719 C 18.566406 5.625 18.566406 5.601562 18.566406 5.539062 C 18.5625 5.480469 18.566406 5.425781 18.578125 5.378906 C 18.59375 5.332031 18.605469 5.28125 18.613281 5.234375 C 18.628906 5.226562 18.648438 5.253906 18.660156 5.28125 C 18.675781 5.316406 18.679688 5.363281 18.675781 5.421875 C 18.6875 5.46875 18.703125 5.515625 18.726562 5.558594 C 18.742188 5.597656 18.765625 5.632812 18.789062 5.667969 C 18.800781 5.703125 18.800781 5.765625 18.800781 5.816406 C 18.839844 5.765625 18.839844 5.695312 18.84375 5.625 C 18.839844 5.578125 18.839844 5.515625 18.828125 5.464844 C 18.824219 5.417969 18.820312 5.371094 18.808594 5.335938 C 18.777344 5.324219 18.773438 5.300781 18.800781 5.257812 C 18.828125 5.230469 18.863281 5.242188 18.910156 5.25 C 18.9375 5.277344 18.945312 5.292969 18.949219 5.359375 C 18.945312 5.417969 18.953125 5.464844 18.96875 5.503906 C 18.984375 5.535156 19.003906 5.558594 19.015625 5.613281 C 19.027344 5.628906 19.039062 5.652344 19.058594 5.625 C 19.070312 5.59375 19.078125 5.53125 19.089844 5.488281 C 19.097656 5.449219 19.113281 5.425781 19.132812 5.410156 C 19.132812 5.472656 19.132812 5.511719 19.15625 5.558594 L 19.199219 5.679688 C 19.21875 5.695312 19.222656 5.730469 19.25 5.746094 L 19.257812 5.570312 L 19.257812 5.410156 C 19.261719 5.367188 19.269531 5.328125 19.285156 5.292969 C 19.316406 5.335938 19.316406 5.351562 19.316406 5.410156 C 19.34375 5.398438 19.347656 5.371094 19.359375 5.335938 C 19.378906 5.3125 19.390625 5.304688 19.398438 5.359375 C 19.402344 5.417969 19.414062 5.472656 19.425781 5.527344 C 19.445312 5.550781 19.464844 5.613281 19.488281 5.636719 C 19.503906 5.667969 19.523438 5.699219 19.546875 5.726562 C 19.5625 5.757812 19.5625 5.78125 19.605469 5.792969 C 19.605469 5.714844 19.601562 5.640625 19.59375 5.570312 C 19.59375 5.507812 19.582031 5.480469 19.574219 5.421875 C 19.558594 5.386719 19.550781 5.328125 19.554688 5.3125 C 19.59375 5.347656 19.621094 5.394531 19.640625 5.445312 L 19.699219 5.59375 C 19.726562 5.628906 19.75 5.664062 19.769531 5.703125 C 19.804688 5.734375 19.820312 5.769531 19.855469 5.804688 C 19.871094 5.824219 19.914062 5.835938 19.921875 5.824219 C 19.921875 5.761719 19.914062 5.703125 19.894531 5.648438 C 19.894531 5.601562 19.882812 5.554688 19.863281 5.515625 C 19.824219 5.476562 19.796875 5.453125 19.777344 5.402344 C 19.765625 5.386719 19.765625 5.378906 19.761719 5.347656 C 19.8125 5.394531 19.855469 5.445312 19.894531 5.503906 C 19.914062 5.535156 19.9375 5.5625 19.96875 5.582031 C 19.984375 5.605469 20.039062 5.636719 20.078125 5.644531 C 20.101562 5.679688 20.132812 5.703125 20.171875 5.710938 L 20.078125 5.648438 C 20.101562 5.679688 20.136719 5.703125 20.171875 5.710938 L 20.171875 5.726562 C 20.167969 5.664062 20.148438 5.601562 20.117188 5.546875 C 20.097656 5.496094 20.070312 5.457031 20.03125 5.425781 C 20.007812 5.386719 19.976562 5.351562 19.9375 5.328125 C 19.914062 5.292969 19.875 5.234375 19.851562 5.21875 C 19.894531 5.179688 19.941406 5.234375 19.984375 5.257812 C 20.023438 5.304688 20.054688 5.363281 20.078125 5.390625 C 20.101562 5.445312 20.128906 5.492188 20.164062 5.539062 C 20.199219 5.5625 20.234375 5.59375 20.265625 5.625 C 20.320312 5.640625 20.300781 5.621094 20.285156 5.570312 C 20.269531 5.511719 20.28125 5.503906 20.324219 5.546875 C 20.347656 5.570312 20.378906 5.597656 20.417969 5.625 C 20.433594 5.652344 20.453125 5.660156 20.480469 5.648438 C 20.492188 5.632812 20.492188 5.632812 20.492188 5.617188 C 20.476562 5.542969 20.449219 5.496094 20.40625 5.46875 C 20.378906 5.4375 20.351562 5.402344 20.320312 5.371094 C 20.300781 5.339844 20.28125 5.320312 20.265625 5.28125 L 20.320312 5.367188 C 20.300781 5.335938 20.28125 5.320312 20.265625 5.28125 L 20.257812 5.28125 C 20.3125 5.28125 20.335938 5.300781 20.375 5.328125 C 20.410156 5.34375 20.441406 5.371094 20.460938 5.40625 C 20.484375 5.429688 20.507812 5.457031 20.527344 5.488281 L 20.621094 5.570312 C 20.652344 5.617188 20.660156 5.648438 20.660156 5.710938 C 20.675781 5.746094 20.679688 5.8125 20.6875 5.847656 C 20.679688 5.910156 20.660156 5.859375 20.65625 5.824219 C 20.652344 5.773438 20.632812 5.777344 20.601562 5.792969 C 20.601562 5.859375 20.609375 5.878906 20.628906 5.925781 C 20.625 5.964844 20.613281 6.003906 20.59375 6.035156 C 20.570312 6.050781 20.566406 6.003906 20.546875 5.980469 C 20.546875 5.914062 20.527344 5.902344 20.488281 5.871094 L 20.488281 5.914062 C 20.515625 5.957031 20.53125 6.011719 20.535156 6.066406 C 20.550781 6.113281 20.558594 6.164062 20.558594 6.214844 C 20.558594 6.265625 20.554688 6.320312 20.546875 6.371094 C 20.546875 6.429688 20.535156 6.453125 20.535156 6.515625 L 20.535156 6.828125 C 20.527344 6.875 20.527344 6.921875 20.527344 6.96875 L 20.535156 6.828125 C 20.53125 6.867188 20.527344 6.914062 20.527344 6.96875 L 20.527344 6.980469 C 20.507812 6.925781 20.492188 6.871094 20.480469 6.820312 C 20.453125 6.785156 20.429688 6.746094 20.417969 6.703125 C 20.410156 6.648438 20.402344 6.601562 20.398438 6.558594 C 20.382812 6.519531 20.367188 6.480469 20.339844 6.503906 C 20.328125 6.582031 20.339844 6.632812 20.367188 6.714844 C 20.382812 6.765625 20.382812 6.8125 20.398438 6.859375 C 20.417969 6.917969 20.4375 6.921875 20.398438 6.992188 C 20.375 7.03125 20.367188 7.039062 20.359375 7.082031 C 20.324219 7.101562 20.316406 7.113281 20.3125 7.160156 C 20.296875 7.117188 20.277344 7.066406 20.257812 7.015625 C 20.238281 6.957031 20.222656 6.902344 20.210938 6.855469 C 20.1875 6.820312 20.160156 6.761719 20.132812 6.738281 L 20.0625 6.605469 C 20.023438 6.554688 20.015625 6.527344 19.984375 6.503906 C 19.980469 6.484375 19.96875 6.453125 19.945312 6.472656 C 19.945312 6.523438 19.949219 6.574219 19.957031 6.625 C 19.96875 6.691406 19.984375 6.726562 19.988281 6.792969 L 19.988281 6.910156 C 19.960938 6.851562 19.941406 6.792969 19.921875 6.738281 C 19.898438 6.703125 19.878906 6.636719 19.855469 6.617188 C 19.84375 6.574219 19.828125 6.535156 19.808594 6.503906 C 19.804688 6.472656 19.789062 6.472656 19.777344 6.449219 C 19.777344 6.511719 19.796875 6.535156 19.808594 6.578125 C 19.828125 6.625 19.832031 6.695312 19.828125 6.71875 C 19.808594 6.636719 19.78125 6.558594 19.75 6.480469 L 19.679688 6.332031 C 19.648438 6.296875 19.621094 6.292969 19.59375 6.269531 C 19.566406 6.257812 19.546875 6.238281 19.527344 6.214844 C 19.539062 6.269531 19.550781 6.316406 19.566406 6.355469 C 19.578125 6.410156 19.589844 6.457031 19.601562 6.503906 C 19.59375 6.582031 19.578125 6.484375 19.5625 6.449219 C 19.554688 6.386719 19.535156 6.351562 19.519531 6.316406 L 19.441406 6.238281 C 19.414062 6.226562 19.425781 6.238281 19.425781 6.277344 C 19.421875 6.347656 19.429688 6.398438 19.445312 6.4375 C 19.460938 6.46875 19.46875 6.511719 19.464844 6.570312 C 19.460938 6.625 19.453125 6.664062 19.453125 6.730469 L 19.453125 6.8125 C 19.433594 6.769531 19.414062 6.738281 19.394531 6.683594 C 19.371094 6.632812 19.351562 6.585938 19.332031 6.535156 C 19.3125 6.527344 19.273438 6.519531 19.253906 6.535156 C 19.261719 6.589844 19.28125 6.613281 19.285156 6.683594 C 19.246094 6.722656 19.253906 6.738281 19.230469 6.667969 C 19.207031 6.617188 19.183594 6.621094 19.152344 6.589844 C 19.105469 6.585938 19.121094 6.550781 19.109375 6.5 C 19.109375 6.460938 19.105469 6.421875 19.097656 6.378906 C 19.046875 6.378906 19.019531 6.378906 18.984375 6.414062 C 18.972656 6.445312 18.976562 6.511719 18.984375 6.558594 L 18.984375 6.714844 C 18.972656 6.753906 18.957031 6.753906 18.945312 6.804688 C 18.929688 6.847656 18.925781 6.902344 18.910156 6.933594 C 18.875 6.96875 18.890625 6.972656 18.871094 6.914062 L 18.871094 6.558594 C 18.871094 6.5 18.882812 6.46875 18.882812 6.414062 C 18.863281 6.367188 18.859375 6.355469 18.796875 6.355469 C 18.789062 6.394531 18.789062 6.429688 18.796875 6.46875 C 18.796875 6.527344 18.800781 6.574219 18.808594 6.613281 L 18.816406 6.757812 C 18.816406 6.816406 18.804688 6.859375 18.777344 6.886719 C 18.746094 6.902344 18.777344 6.925781 18.742188 6.9375 C 18.707031 6.917969 18.671875 6.890625 18.640625 6.859375 C 18.605469 6.847656 18.566406 6.839844 18.519531 6.835938 C 18.457031 6.835938 18.457031 6.828125 18.433594 6.773438 C 18.414062 6.714844 18.402344 6.652344 18.394531 6.589844 C 18.375 6.539062 18.371094 6.503906 18.355469 6.445312 C 18.34375 6.414062 18.324219 6.386719 18.300781 6.363281 C 18.289062 6.429688 18.277344 6.472656 18.277344 6.535156 C 18.265625 6.5625 18.261719 6.628906 18.253906 6.652344 C 18.238281 6.625 18.230469 6.558594 18.214844 6.515625 C 18.203125 6.449219 18.1875 6.40625 18.125 6.429688 C 18.0625 6.429688 18.0625 6.429688 18.0625 6.507812 L 18.136719 6.632812 L 18.136719 6.792969 C 18.136719 6.855469 18.136719 6.875 18.097656 6.886719 C 18.082031 6.820312 18.054688 6.757812 18.011719 6.703125 C 18.011719 6.65625 17.996094 6.667969 17.957031 6.667969 C 17.929688 6.667969 17.910156 6.671875 17.890625 6.683594 L 17.890625 6.777344 C 17.875 6.785156 17.859375 6.777344 17.847656 6.757812 C 17.828125 6.792969 17.839844 6.835938 17.847656 6.875 C 17.839844 6.921875 17.824219 6.964844 17.800781 7.003906 C 17.792969 6.988281 17.785156 6.996094 17.800781 6.996094 C 17.738281 6.96875 17.679688 6.945312 17.628906 6.925781 C 17.601562 6.925781 17.574219 6.964844 17.558594 6.996094 C 17.507812 7.011719 17.488281 7.027344 17.433594 7.027344 L 17.316406 7.035156 C 17.28125 7.042969 17.238281 7.050781 17.191406 7.050781 C 17.167969 7.039062 17.121094 7.039062 17.109375 7.027344 C 17.128906 6.996094 17.148438 6.980469 17.164062 6.925781 C 17.191406 6.902344 17.21875 6.878906 17.242188 6.847656 L 17.3125 6.757812 C 17.328125 6.703125 17.351562 6.695312 17.378906 6.667969 C 17.4375 6.667969 17.445312 6.695312 17.5 6.703125 C 17.554688 6.726562 17.585938 6.738281 17.617188 6.691406 C 17.65625 6.667969 17.695312 6.632812 17.742188 6.625 L 17.835938 6.558594 C 17.875 6.53125 17.894531 6.5 17.929688 6.46875 C 17.941406 6.425781 17.96875 6.390625 17.957031 6.335938 C 17.910156 6.320312 17.871094 6.324219 17.839844 6.355469 C 17.804688 6.398438 17.800781 6.414062 17.75 6.445312 C 17.710938 6.460938 17.695312 6.480469 17.648438 6.492188 C 17.609375 6.507812 17.5625 6.5 17.519531 6.5 C 17.476562 6.5 17.421875 6.5 17.398438 6.515625 C 17.441406 6.476562 17.484375 6.453125 17.527344 6.4375 C 17.566406 6.410156 17.582031 6.398438 17.632812 6.390625 C 17.65625 6.355469 17.675781 6.355469 17.6875 6.300781 C 17.703125 6.238281 17.648438 6.257812 17.609375 6.28125 C 17.574219 6.289062 17.53125 6.320312 17.5 6.332031 C 17.460938 6.347656 17.421875 6.355469 17.382812 6.355469 C 17.367188 6.335938 17.386719 6.320312 17.398438 6.292969 C 17.4375 6.273438 17.449219 6.265625 17.453125 6.214844 C 17.402344 6.222656 17.386719 6.242188 17.339844 6.246094 C 17.292969 6.257812 17.242188 6.265625 17.191406 6.269531 L 17.0625 6.269531 C 17.015625 6.269531 16.992188 6.257812 16.9375 6.257812 C 16.898438 6.234375 16.898438 6.226562 16.898438 6.160156 C 16.929688 6.121094 16.957031 6.128906 17.015625 6.128906 L 17.117188 6.066406 C 17.152344 6.058594 17.167969 6.046875 17.164062 6.027344 L 17.035156 6.027344 C 16.980469 6 17.035156 5.988281 17.0625 5.96875 C 17.101562 5.96875 17.152344 5.96875 17.179688 5.988281 C 17.238281 5.988281 17.257812 5.96875 17.300781 5.925781 C 17.339844 5.894531 17.359375 5.871094 17.398438 5.847656 C 17.425781 5.816406 17.453125 5.785156 17.472656 5.757812 C 17.511719 5.722656 17.539062 5.6875 17.558594 5.65625 C 17.585938 5.644531 17.59375 5.625 17.585938 5.601562 C 17.527344 5.609375 17.5 5.636719 17.460938 5.667969 C 17.4375 5.695312 17.414062 5.714844 17.386719 5.730469 C 17.351562 5.761719 17.308594 5.777344 17.265625 5.78125 C 17.222656 5.78125 17.179688 5.773438 17.136719 5.765625 C 17.085938 5.761719 17.128906 5.746094 17.144531 5.722656 C 17.171875 5.707031 17.175781 5.679688 17.164062 5.644531 C 17.121094 5.636719 17.078125 5.632812 17.035156 5.636719 L 16.902344 5.636719 C 16.851562 5.636719 16.832031 5.621094 16.796875 5.601562 C 16.789062 5.570312 16.796875 5.582031 16.835938 5.582031 C 16.878906 5.578125 16.917969 5.570312 16.957031 5.558594 C 17 5.546875 17.007812 5.527344 17.015625 5.46875 C 16.964844 5.46875 16.921875 5.464844 16.894531 5.457031 Z M 16 5.207031 C 15.992188 5.125 15.972656 5.082031 15.972656 5 C 15.972656 4.941406 15.972656 4.976562 16.027344 4.890625 L 16.105469 4.8125 C 16.15625 4.777344 16.203125 4.746094 16.25 4.71875 C 16.289062 4.695312 16.367188 4.675781 16.394531 4.65625 C 16.441406 4.628906 16.480469 4.589844 16.511719 4.542969 C 16.519531 4.476562 16.527344 4.425781 16.527344 4.347656 C 16.578125 4.308594 16.628906 4.28125 16.671875 4.265625 C 16.738281 4.242188 16.75 4.210938 16.820312 4.199219 C 16.859375 4.183594 16.929688 4.183594 16.992188 4.183594 C 17.054688 4.183594 17.097656 4.238281 17.15625 4.246094 C 17.226562 4.277344 17.257812 4.300781 17.3125 4.359375 C 17.34375 4.40625 17.367188 4.445312 17.417969 4.476562 C 17.460938 4.5 17.503906 4.539062 17.550781 4.554688 C 17.550781 4.613281 17.5625 4.605469 17.527344 4.605469 C 17.523438 4.664062 17.511719 4.65625 17.460938 4.660156 C 17.425781 4.636719 17.394531 4.605469 17.375 4.566406 C 17.398438 4.511719 17.386719 4.617188 17.375 4.636719 C 17.355469 4.660156 17.339844 4.683594 17.3125 4.660156 C 17.296875 4.605469 17.285156 4.566406 17.285156 4.5 C 17.277344 4.433594 17.257812 4.480469 17.246094 4.511719 C 17.234375 4.570312 17.238281 4.589844 17.257812 4.636719 C 17.207031 4.636719 17.167969 4.632812 17.136719 4.625 C 17.101562 4.613281 17.0625 4.621094 17.019531 4.648438 C 16.972656 4.683594 16.992188 4.683594 17.011719 4.726562 C 17.054688 4.742188 17.09375 4.761719 17.128906 4.789062 L 17.257812 4.757812 C 17.300781 4.738281 17.34375 4.75 17.386719 4.757812 C 17.414062 4.769531 17.433594 4.777344 17.453125 4.789062 C 17.453125 4.828125 17.449219 4.859375 17.441406 4.878906 C 17.425781 4.894531 17.402344 4.9375 17.375 4.945312 C 17.335938 4.96875 17.292969 4.992188 17.25 5.003906 C 17.191406 5.003906 17.167969 5.019531 17.125 5.042969 C 17.121094 5.105469 17.105469 5.117188 17.058594 5.136719 C 17.019531 5.160156 16.972656 5.171875 16.929688 5.167969 C 16.902344 5.167969 16.878906 5.164062 16.863281 5.15625 C 16.894531 5.121094 16.921875 5.074219 16.941406 5.027344 C 16.949219 5 16.964844 4.988281 16.949219 4.96875 C 16.894531 4.96875 16.878906 4.96875 16.871094 5.03125 C 16.863281 5.09375 16.847656 5.105469 16.808594 5.125 C 16.816406 5.074219 16.824219 5.023438 16.835938 4.980469 C 16.796875 4.988281 16.757812 4.992188 16.71875 4.992188 C 16.6875 5.011719 16.675781 5.019531 16.6875 5.054688 C 16.644531 5.066406 16.601562 5.066406 16.554688 5.054688 C 16.515625 5.054688 16.539062 5.035156 16.507812 5.015625 C 16.492188 4.976562 16.464844 4.957031 16.421875 4.960938 C 16.402344 4.992188 16.367188 5 16.34375 5.023438 C 16.304688 5.035156 16.269531 5.027344 16.238281 5.003906 C 16.191406 5.003906 16.199219 5.019531 16.210938 5.058594 C 16.230469 5.070312 16.210938 5.085938 16.238281 5.089844 C 16.265625 5.117188 16.289062 5.125 16.339844 5.125 C 16.378906 5.117188 16.421875 5.113281 16.472656 5.113281 C 16.519531 5.113281 16.511719 5.125 16.511719 5.175781 C 16.480469 5.207031 16.433594 5.203125 16.386719 5.203125 C 16.347656 5.195312 16.308594 5.183594 16.273438 5.167969 C 16.234375 5.167969 16.195312 5.15625 16.164062 5.167969 C 16.148438 5.1875 16.105469 5.199219 16.15625 5.203125 C 16.175781 5.226562 16.285156 5.214844 16.289062 5.253906 C 16.316406 5.285156 16.308594 5.328125 16.265625 5.328125 C 16.246094 5.3125 16.21875 5.3125 16.199219 5.328125 L 16.078125 5.332031 C 16.148438 5.339844 16.027344 5.246094 16 5.207031 "/>
<path style=" stroke:none;fill-rule:evenodd;fill:rgb(73.725492%,73.725492%,73.725492%);fill-opacity:1;" d="M 16.292969 4.835938 L 16.238281 4.875 L 16.125 4.96875 C 16.105469 4.988281 16.105469 5 16.082031 5 C 16.121094 4.996094 16.144531 4.980469 16.183594 4.960938 C 16.234375 4.953125 16.273438 4.9375 16.300781 4.914062 C 16.328125 4.90625 16.300781 4.859375 16.292969 4.832031 Z M 16.722656 4.316406 C 16.730469 4.316406 16.742188 4.347656 16.761719 4.371094 C 16.777344 4.40625 16.785156 4.445312 16.789062 4.488281 C 16.804688 4.441406 16.816406 4.390625 16.828125 4.335938 C 16.8125 4.300781 16.8125 4.292969 16.769531 4.289062 C 16.769531 4.324219 16.777344 4.296875 16.722656 4.316406 "/>
<path style="fill-rule:evenodd;fill:rgb(76.862746%,76.862746%,76.078433%);fill-opacity:1;stroke-width:0.9;stroke-linecap:butt;stroke-linejoin:miter;stroke:rgb(0%,0%,0%);stroke-opacity:1;stroke-miterlimit:4;" d="M 349.384023 417.697792 C 348.922972 417.697792 350.213914 417.230367 350.674964 417.074559 C 350.951594 416.373422 351.412645 415.75019 351.965905 415.282765 C 353.072426 415.282765 353.810107 415.672286 354.178947 416.373422 C 355.193258 416.685039 355.469889 417.074559 356.57641 417.308271 C 357.12967 417.697792 357.590721 417.697792 356.57641 418.009408 C 355.930939 418.24312 355.101048 418.398928 353.994527 418.398928 C 353.072426 418.476833 352.242535 418.710545 351.412645 419.100065 C 349.937283 419.100065 350.121703 419.100065 349.384023 417.697792 Z M 349.384023 417.697792 " transform="matrix(0.0423625,0,0,0.0501418,1.664062,-16.237084)"/>
<path style=" stroke:none;fill-rule:evenodd;fill:rgb(73.725492%,73.725492%,73.725492%);fill-opacity:1;" d="M 16.894531 4.324219 L 16.894531 4.335938 C 16.894531 4.300781 16.898438 4.320312 16.902344 4.382812 C 16.917969 4.421875 16.925781 4.46875 16.921875 4.511719 C 16.949219 4.484375 16.96875 4.453125 16.980469 4.414062 C 16.980469 4.328125 16.964844 4.332031 16.894531 4.324219 M 17.238281 5.601562 L 17.25 5.601562 C 17.21875 5.601562 17.238281 5.601562 17.285156 5.570312 C 17.316406 5.546875 17.34375 5.507812 17.386719 5.488281 C 17.421875 5.457031 17.464844 5.429688 17.507812 5.410156 C 17.53125 5.398438 17.550781 5.378906 17.574219 5.402344 C 17.574219 5.453125 17.554688 5.484375 17.515625 5.503906 C 17.492188 5.535156 17.464844 5.554688 17.4375 5.566406 C 17.40625 5.585938 17.371094 5.585938 17.359375 5.625 C 17.308594 5.652344 17.300781 5.644531 17.242188 5.601562 Z M 17.417969 5.925781 C 17.429688 5.910156 17.492188 5.839844 17.519531 5.816406 C 17.546875 5.773438 17.578125 5.734375 17.613281 5.703125 C 17.644531 5.660156 17.671875 5.621094 17.699219 5.582031 L 17.773438 5.46875 C 17.773438 5.519531 17.765625 5.582031 17.78125 5.613281 C 17.78125 5.660156 17.773438 5.707031 17.75 5.746094 C 17.734375 5.785156 17.707031 5.816406 17.664062 5.839844 C 17.625 5.863281 17.601562 5.871094 17.566406 5.902344 C 17.539062 5.921875 17.511719 5.941406 17.480469 5.957031 C 17.453125 5.96875 17.464844 5.96875 17.417969 5.925781 M 17.125 6.179688 L 17.136719 6.179688 C 17.109375 6.179688 17.121094 6.179688 17.175781 6.148438 C 17.210938 6.105469 17.25 6.074219 17.292969 6.058594 C 17.332031 6.058594 17.375 6.046875 17.410156 6.023438 C 17.429688 6.019531 17.449219 6.003906 17.460938 6.023438 C 17.492188 6.070312 17.5 6.082031 17.453125 6.117188 C 17.425781 6.140625 17.394531 6.160156 17.359375 6.171875 C 17.335938 6.191406 17.289062 6.191406 17.242188 6.203125 C 17.210938 6.203125 17.1875 6.207031 17.171875 6.179688 L 17.25 6.203125 C 17.210938 6.203125 17.191406 6.207031 17.125 6.179688 M 17.527344 6.179688 L 17.527344 6.171875 C 17.523438 6.203125 17.53125 6.1875 17.546875 6.125 C 17.585938 6.058594 17.59375 6.023438 17.640625 6.011719 C 17.660156 5.980469 17.699219 5.972656 17.742188 5.957031 C 17.761719 5.988281 17.746094 6.027344 17.742188 6.066406 C 17.726562 6.109375 17.703125 6.140625 17.675781 6.171875 C 17.648438 6.191406 17.636719 6.214844 17.589844 6.226562 C 17.558594 6.226562 17.578125 6.226562 17.527344 6.179688 "/>
<path style=" stroke:none;fill-rule:evenodd;fill:rgb(0%,0%,0%);fill-opacity:1;" d="M 16.613281 4.738281 C 16.613281 4.769531 16.597656 4.789062 16.566406 4.792969 C 16.519531 4.800781 16.519531 4.765625 16.519531 4.738281 C 16.523438 4.703125 16.539062 4.683594 16.566406 4.683594 C 16.59375 4.683594 16.609375 4.703125 16.613281 4.738281 "/>
<path style="fill-rule:evenodd;fill:rgb(0%,31.764707%,12.54902%);fill-opacity:1;stroke-width:1.25;stroke-linecap:butt;stroke-linejoin:miter;stroke:rgb(0%,16.862746%,5.098039%);stroke-opacity:1;stroke-miterlimit:4;" d="M 351.781484 479.566081 L 352.703585 479.566081 C 349.937283 479.566081 351.597064 479.410273 356.207569 483.071764 C 358.23619 481.513683 358.23619 481.279971 359.711552 484.084517 C 360.725863 485.564695 360.910283 483.928709 362.385644 482.292724 C 363.123325 485.486791 363.492165 488.836666 365.889628 485.798407 C 368.65593 485.798407 371.514443 485.564695 372.989804 486.733256 C 374.834006 490.005227 374.188536 486.110023 375.571687 487.590201 C 379.628931 487.979721 379.536721 484.162422 383.686175 483.227573 C 386.268057 486.499544 387.466788 484.006613 390.694141 482.370628 C 393.183814 482.99386 395.489066 486.733256 396.042326 483.071764 C 397.978738 479.877697 398.070948 480.111409 399.4541 483.071764 C 401.482721 484.863558 402.312612 482.292724 403.880184 481.435779 C 406.738696 483.071764 410.33489 483.383381 414.484344 482.292724 C 415.314235 485.175175 417.066226 483.928709 419.002638 483.071764 C 422.875462 484.785654 424.166403 485.330983 428.684697 483.071764 C 430.897739 480.50093 429.699008 483.227573 431.26658 484.863558 C 434.586143 483.928709 433.664042 483.694997 437.536866 484.006613 C 441.409689 484.006613 441.68632 484.006613 442.792841 481.435779 C 444.821463 483.305477 445.374723 484.70775 448.141026 482.292724 C 452.29048 482.292724 450.999538 482.838052 453.397001 481.279971 C 455.333413 485.330983 455.702253 482.526436 457.915295 484.006613 C 456.624354 486.966968 454.503522 489.381995 451.737219 491.01798 C 449.985227 493.978335 448.878706 497.016595 445.466933 498.185156 C 442.977261 500.678086 440.303168 502.236168 437.536866 504.417482 C 433.664042 505.430235 429.514588 505.196523 425.180714 505.196523 L 388.020049 505.196523 C 385.438166 506.598796 381.012082 507.222029 377.415889 507.923166 C 373.358645 507.923166 368.65593 507.923166 365.889628 506.988317 C 364.045426 505.118619 360.725863 503.015209 358.881661 500.833894 C 356.945249 499.275813 356.945249 496.393362 355.285468 494.601568 C 353.902316 492.108638 353.256846 488.13553 351.781484 485.798407 Z M 351.781484 479.566081 " transform="matrix(0.0423625,0,0,0.0501418,1.847656,-16.284583)"/>
<path style="fill-rule:evenodd;fill:rgb(0%,31.764707%,12.54902%);fill-opacity:1;stroke-width:1.25;stroke-linecap:butt;stroke-linejoin:miter;stroke:rgb(0%,16.862746%,5.098039%);stroke-opacity:1;stroke-miterlimit:4;" d="M 437.536866 487.590201 L 437.536866 488.369242 C 437.536866 486.032119 437.629076 487.278585 435.692664 492.030734 C 435.416034 493.121391 434.493933 493.433007 433.110781 493.822527 M 429.606798 491.095885 L 430.528899 491.095885 C 427.209336 494.134144 424.996294 495.614321 424.258613 499.120005 L 430.528899 491.095885 C 427.209336 494.134144 424.996294 495.614321 424.258613 499.120005 M 417.158436 486.733256 C 417.158436 486.733256 417.066226 489.771515 416.328546 491.095885 M 413.654453 492.887678 L 413.654453 493.666719 Z M 406.554276 487.590201 L 407.476377 487.590201 L 406.462066 487.590201 C 406.923117 487.590201 407.199747 487.590201 406.462066 487.590201 Z M 357.129669 487.590201 C 357.49851 487.590201 359.342712 490.394748 361.463544 492.030734 C 361.002493 494.601568 360.080392 497.561923 361.463544 499.97695 M 364.229846 492.887678 C 364.598687 492.887678 366.258468 495.692225 368.56372 497.328211 L 364.229846 492.887678 C 364.598687 492.887678 366.258468 495.692225 368.56372 497.328211 L 368.56372 498.185156 C 368.56372 495.380609 368.3793 492.576062 369.485821 491.095885 C 370.500132 492.809774 371.698863 495.380609 372.067704 492.887678 C 377.139258 492.73187 379.536721 491.329597 382.671864 490.23894 C 382.671864 491.485405 382.487443 490.862172 383.686175 492.030734 M 443.714942 488.369242 L 444.637042 488.369242 C 442.885051 489.771515 441.59411 492.73187 440.210958 494.601568 M 407.476377 485.798407 L 414.484344 485.798407 " transform="matrix(0.0423625,0,0,0.0501418,1.847656,-16.284583)"/>
<path style=" stroke:none;fill-rule:evenodd;fill:rgb(100%,100%,100%);fill-opacity:1;" d="M 16.636719 8.484375 C 16.1875 8.484375 16.035156 9.015625 15.585938 9.015625 L 15.5625 9.015625 L 15.5625 9.046875 C 15.5625 9.417969 15.585938 9.765625 15.632812 10.085938 C 16.046875 10.054688 16.199219 9.554688 16.636719 9.554688 C 17.085938 9.554688 17.234375 10.085938 17.683594 10.085938 C 18.132812 10.085938 18.285156 9.554688 18.734375 9.554688 C 19.183594 9.554688 19.335938 10.085938 19.785156 10.085938 C 20.234375 10.085938 20.382812 9.554688 20.832031 9.554688 C 21.261719 9.554688 21.417969 10.050781 21.832031 10.085938 C 21.882812 9.734375 21.910156 9.375 21.90625 9.015625 L 21.878906 9.015625 C 21.429688 9.015625 21.28125 8.488281 20.832031 8.488281 C 20.382812 8.488281 20.230469 9.019531 19.785156 9.019531 C 19.339844 9.019531 19.183594 8.488281 18.730469 8.488281 C 18.285156 8.488281 18.132812 9.019531 17.683594 9.019531 C 17.234375 9.019531 17.085938 8.488281 16.636719 8.488281 Z M 16.636719 10.570312 C 16.285156 10.570312 16.121094 10.894531 15.847656 11.035156 C 15.9375 11.316406 16.050781 11.589844 16.183594 11.847656 C 16.3125 11.738281 16.445312 11.640625 16.636719 11.640625 C 17.085938 11.640625 17.234375 12.175781 17.683594 12.175781 C 18.132812 12.175781 18.285156 11.640625 18.734375 11.640625 C 19.183594 11.640625 19.335938 12.175781 19.78125 12.175781 C 20.226562 12.175781 20.382812 11.640625 20.832031 11.640625 C 20.996094 11.648438 21.148438 11.71875 21.273438 11.839844 C 21.40625 11.582031 21.519531 11.3125 21.609375 11.03125 C 21.347656 10.886719 21.179688 10.570312 20.828125 10.570312 C 20.382812 10.570312 20.230469 11.101562 19.78125 11.101562 C 19.332031 11.101562 19.179688 10.570312 18.734375 10.570312 C 18.289062 10.570312 18.132812 11.101562 17.683594 11.101562 C 17.234375 11.101562 17.085938 10.570312 16.636719 10.570312 M 18.734375 12.65625 C 18.285156 12.65625 18.132812 13.1875 17.683594 13.1875 C 17.257812 13.1875 17.101562 12.714844 16.707031 12.660156 C 17.128906 13.191406 17.652344 13.636719 18.242188 13.964844 C 18.382812 13.839844 18.527344 14.109375 18.730469 14.109375 C 18.933594 14.109375 19.082031 13.835938 19.21875 13.957031 C 19.792969 13.640625 20.3125 13.199219 20.742188 12.664062 C 20.359375 12.730469 20.195312 13.1875 19.78125 13.1875 C 19.332031 13.1875 19.183594 12.65625 18.734375 12.65625 "/>
<path style="fill:none;stroke-width:0.5;stroke-linecap:butt;stroke-linejoin:miter;stroke:rgb(31.764707%,12.54902%,2.745098%);stroke-opacity:1;stroke-miterlimit:4;" d="M 332.536663 541.437432 C 335.960013 540.264301 339.475887 539.247588 342.99176 538.387292 L 359.275805 554.107242 L 345.859972 556.766338 Z M 332.536663 541.437432 " transform="matrix(0.0422192,0,0,0.0499465,1.909774,-16.421803)"/>
<path style="fill:none;stroke-width:0.6;stroke-linecap:butt;stroke-linejoin:miter;stroke:rgb(31.764707%,12.54902%,2.745098%);stroke-opacity:1;stroke-miterlimit:4;" d="M 413.587455 470.985601 C 413.914777 466.44494 422.425147 439.990655 422.425147 439.990655 M 416.533353 471.281731 L 423.188898 440.188075 M 418.824606 471.380441 L 424.389078 440.188075 M 413.914777 467.23462 C 415.44228 466.44494 419.697464 465.16171 419.697464 465.16171 M 415.987816 462.59525 C 417.406211 462.59525 420.352108 461.410729 420.352108 461.410729 M 416.751567 459.140399 C 418.279069 458.548139 419.697464 458.153299 421.224966 457.857169 M 417.406211 454.698448 L 422.097825 453.908768 M 419.47925 450.947467 C 419.47925 451.243597 422.752469 451.243597 422.752469 451.243597 M 420.352108 447.492617 L 423.51622 447.986167 " transform="matrix(0.0358019,0,0,0.039573,2.497466,-6.739868)"/>
<path style="fill:none;stroke-width:0.4;stroke-linecap:butt;stroke-linejoin:miter;stroke:rgb(31.764707%,12.54902%,2.745098%);stroke-opacity:1;stroke-miterlimit:4;" d="M 413.618825 470.989243 C 413.896393 466.425587 422.408508 440.025705 422.408508 440.025705 M 416.487037 470.122726 L 423.241215 440.083473 M 419.540296 467.812014 C 419.725342 466.07898 424.444014 440.199009 424.444014 440.199009 M 413.896393 467.176568 C 415.376761 466.425587 419.725342 465.212463 419.725342 465.212463 M 416.024422 462.612912 C 417.412267 462.612912 420.280479 461.399789 420.280479 461.399789 M 416.764606 459.089077 C 418.244974 458.569167 419.725342 458.164792 421.205709 457.875953 M 417.412267 454.698725 L 422.130939 453.889976 M 419.540296 450.88605 C 419.540296 451.174889 422.686077 451.174889 422.686077 451.174889 M 420.280479 447.477751 L 423.518784 447.997661 " transform="matrix(-0.0422192,0,0,0.0676199,36.732203,-19.188069)"/>
<path style="fill:none;stroke-width:0.5;stroke-linecap:butt;stroke-linejoin:miter;stroke:rgb(31.764707%,12.54902%,2.745098%);stroke-opacity:1;stroke-miterlimit:4;" d="M 413.635207 470.974607 C 413.912776 466.438502 422.424891 440.003959 422.424891 440.003959 M 416.50342 470.114311 L 423.165075 440.082167 M 419.464155 467.76805 C 419.741724 466.125667 424.367873 440.238585 424.367873 440.238585 M 413.912776 467.220589 C 415.393144 466.438502 419.741724 465.187163 419.741724 465.187163 M 416.040805 462.606275 C 417.428649 462.606275 420.296862 461.433145 420.296862 461.433145 M 416.780989 459.086883 C 418.261356 458.539422 419.741724 458.148379 421.222092 457.913753 M 417.428649 454.707196 L 422.054799 453.925109 M 419.464155 450.874969 C 419.464155 451.187804 422.70246 451.187804 422.70246 451.187804 M 420.296862 447.511995 L 423.535166 447.981247 " transform="matrix(-0.0422192,0,0,0.0499465,37.775864,-11.503995)"/>
<path style="fill-rule:evenodd;fill:rgb(86.666667%,54.509807%,34.901962%);fill-opacity:1;stroke-width:0.5;stroke-linecap:butt;stroke-linejoin:miter;stroke:rgb(31.764707%,12.54902%,2.745098%);stroke-opacity:1;stroke-miterlimit:4;" d="M 395.267246 572.173454 L 396.192476 499.20473 C 396.192476 499.20473 398.78312 498.891895 398.78312 499.20473 C 398.78312 499.517564 398.505551 571.938828 398.227982 572.173454 C 397.85789 572.486289 394.989678 572.720915 395.267246 572.173454 Z M 423.764326 502.411287 L 423.209188 563.726913 L 421.173682 566.073175 L 421.821343 502.411287 Z M 423.764326 502.411287 " transform="matrix(0.0422192,0,0,0.0499465,1.909774,-16.421803)"/>
<path style="fill-rule:evenodd;fill:rgb(86.666667%,54.509807%,34.901962%);fill-opacity:1;stroke-width:0.5;stroke-linecap:butt;stroke-linejoin:miter;stroke:rgb(31.764707%,12.54902%,2.745098%);stroke-opacity:1;stroke-miterlimit:4;" d="M 362.976725 560.207522 C 362.976725 560.207522 366.029983 590.161457 399.430781 589.301161 C 432.831578 588.362656 442.083877 559.1126 442.083877 559.1126 L 427.557768 558.48693 C 427.280199 558.48693 415.992395 572.486289 401.373763 572.173454 C 386.755132 571.938828 382.221506 568.419436 378.983201 565.525714 C 375.83742 562.631991 372.969207 558.174095 372.969207 558.174095 L 356.037501 551.526355 L 356.962731 557.86126 Z M 453.279158 557.235591 L 452.261405 553.168738 L 452.261405 549.805763 L 453.926819 546.208163 C 453.926819 546.208163 428.575521 549.883972 428.575521 550.196807 L 428.482998 557.000964 L 453.279158 557.079173 Z M 453.279158 557.235591 " transform="matrix(0.0422192,0,0,0.0499465,1.909774,-16.421803)"/>
<path style="fill:none;stroke-width:0.5;stroke-linecap:butt;stroke-linejoin:miter;stroke:rgb(31.764707%,12.54902%,2.745098%);stroke-opacity:1;stroke-miterlimit:4;" d="M 448.467963 549.805763 L 447.912825 555.827834 L 451.983836 555.827834 L 451.706267 549.805763 Z M 444.211906 550.118598 L 443.934337 556.531712 L 446.52498 556.218877 L 446.802549 550.118598 Z M 439.770802 556.531712 L 439.770802 551.526355 L 442.361446 550.58785 L 442.731538 555.593208 Z M 434.774561 556.218877 L 435.422222 551.760981 L 438.382957 552.073816 L 438.568003 556.766338 Z M 429.315705 556.218877 L 429.593274 552.386651 L 432.554009 552.073816 L 432.554009 556.531712 Z M 361.866449 559.894687 C 362.791679 559.894687 369.545857 561.380652 369.545857 561.380652 L 376.485081 570.687488 " transform="matrix(0.0422192,0,0,0.0499465,1.909774,-16.421803)"/>
<path style="fill:none;stroke-width:0.5;stroke-linecap:butt;stroke-linejoin:miter;stroke:rgb(31.764707%,12.54902%,2.745098%);stroke-opacity:1;stroke-miterlimit:4;" d="M 366.770167 561.067817 C 367.140259 561.380652 372.876684 580.932829 400.818626 580.932829 C 428.668044 580.932829 435.422222 558.799765 435.422222 558.799765 " transform="matrix(0.0422192,0,0,0.0499465,1.909774,-16.421803)"/>
<path style="fill:none;stroke-width:0.5;stroke-linecap:butt;stroke-linejoin:miter;stroke:rgb(31.764707%,12.54902%,2.745098%);stroke-opacity:1;stroke-miterlimit:4;" d="M 439.770802 559.425434 C 439.770802 559.425434 426.354969 588.362656 400.818626 586.407439 C 375.282282 584.374012 371.21127 574.83255 369.175765 569.827193 C 367.232782 564.821835 366.029983 560.833191 366.029983 560.833191 " transform="matrix(0.0422192,0,0,0.0499465,1.909774,-16.421803)"/>
<path style="fill-rule:evenodd;fill:rgb(86.666667%,54.509807%,34.901962%);fill-opacity:1;stroke-width:0.5;stroke-linecap:butt;stroke-linejoin:miter;stroke:rgb(31.764707%,12.54902%,2.745098%);stroke-opacity:1;stroke-miterlimit:4;" d="M 373.154253 558.174095 C 373.524345 556.531712 373.524345 503.819043 373.524345 503.819043 L 371.766408 503.584417 L 371.488839 557.313799 L 373.154253 558.330513 Z M 331.703956 541.124597 L 353.724426 551.760981 L 353.169288 553.325155 C 353.169288 553.325155 331.981525 543.314441 331.981525 543.001606 C 331.981525 542.688771 332.166571 541.51564 331.703956 540.968179 Z M 331.703956 541.124597 " transform="matrix(0.0422192,0,0,0.0499465,1.909774,-16.421803)"/>
<path style="fill-rule:evenodd;fill:rgb(86.666667%,54.509807%,34.901962%);fill-opacity:1;stroke-width:0.5;stroke-linecap:butt;stroke-linejoin:miter;stroke:rgb(31.764707%,12.54902%,2.745098%);stroke-opacity:1;stroke-miterlimit:4;" d="M 341.788961 537.91804 C 341.788961 538.700127 345.027266 556.531712 345.027266 556.531712 C 345.027266 556.531712 346.970248 556.766338 346.970248 556.531712 L 343.639421 538.230875 Z M 362.236541 538.387292 C 363.254294 538.387292 383.239258 535.180735 383.239258 535.180735 L 382.776644 538.387292 L 363.254294 540.420718 Z M 362.236541 538.387292 " transform="matrix(0.0422192,0,0,0.0499465,1.909774,-16.421803)"/>
<path style="fill-rule:evenodd;fill:rgb(99.607843%,81.176472%,24.313726%);fill-opacity:1;stroke-width:0.5;stroke-linecap:butt;stroke-linejoin:miter;stroke:rgb(31.764707%,12.54902%,2.745098%);stroke-opacity:1;stroke-miterlimit:4;" d="M 365.01223 514.29901 C 365.659891 514.29901 372.043977 517.505567 374.727144 516.72348 C 377.41031 515.863184 375.559851 513.67334 376.114989 513.67334 C 376.670126 513.67334 378.705632 515.237515 379.908431 513.986175 C 381.11123 512.813045 381.943937 509.371862 381.388799 509.684696 C 380.926184 509.997531 365.382322 515.472141 365.104753 514.29901 Z M 365.01223 514.29901 " transform="matrix(0.0422192,0,0,0.0499465,1.909774,-16.421803)"/>
<path style="fill-rule:evenodd;fill:rgb(86.666667%,54.509807%,34.901962%);fill-opacity:1;stroke-width:0.5;stroke-linecap:butt;stroke-linejoin:miter;stroke:rgb(31.764707%,12.54902%,2.745098%);stroke-opacity:1;stroke-miterlimit:4;" d="M 362.51411 521.57242 C 363.624386 521.885255 386.292517 515.472141 386.292517 515.472141 C 386.292517 515.472141 386.292517 517.505567 386.014948 517.505567 L 362.51411 523.605846 Z M 362.51411 521.57242 " transform="matrix(0.0422192,0,0,0.0499465,1.909774,-16.421803)"/>
<path style="fill-rule:evenodd;fill:rgb(99.607843%,81.176472%,24.313726%);fill-opacity:1;stroke-width:0.5;stroke-linecap:butt;stroke-linejoin:miter;stroke:rgb(31.764707%,12.54902%,2.745098%);stroke-opacity:1;stroke-miterlimit:4;" d="M 414.974642 512.578419 C 414.974642 512.578419 416.45501 516.09781 418.027901 515.472141 C 419.508269 514.92468 420.896113 513.67334 420.896113 513.67334 C 420.896113 513.67334 422.098912 516.72348 424.134418 516.09781 C 426.0774 515.472141 427.280199 512.265584 427.280199 512.265584 C 427.280199 512.265584 429.315705 512.891253 430.240935 512.578419 C 431.073642 512.265584 432.183917 507.573061 432.183917 507.573061 Z M 413.309229 540.811762 C 413.03166 541.437432 414.789596 542.76698 416.269964 542.76698 C 417.842855 542.76698 418.30547 540.811762 418.583039 541.437432 C 418.860608 541.906684 418.860608 544.56578 422.561527 543.705484 C 426.262446 542.76698 426.354969 540.186092 426.354969 540.186092 C 426.354969 540.186092 425.337217 541.124597 427.92786 541.437432 C 430.518504 541.672058 433.109147 537.605205 432.924101 537.605205 C 432.461486 537.605205 413.864366 541.124597 413.309229 540.811762 Z M 413.309229 540.811762 " transform="matrix(0.0422192,0,0,0.0499465,1.909774,-16.421803)"/>
<path style="fill-rule:evenodd;fill:rgb(86.666667%,54.509807%,34.901962%);fill-opacity:1;stroke-width:0.5;stroke-linecap:butt;stroke-linejoin:miter;stroke:rgb(31.764707%,12.54902%,2.745098%);stroke-opacity:1;stroke-miterlimit:4;" d="M 363.43934 513.12588 C 363.254294 513.986175 363.254294 514.92468 363.624386 515.784976 L 382.591598 509.371862 C 382.591598 509.371862 383.424304 507.885896 382.591598 507.885896 C 381.758891 507.885896 363.069248 513.67334 363.254294 513.204088 Z M 388.420546 509.137235 C 388.883161 509.137235 407.757849 503.036956 407.757849 503.036956 C 407.757849 503.036956 408.127941 505.617844 407.757849 505.617844 L 390.085959 510.779618 L 388.328023 509.137235 Z M 388.420546 509.137235 " transform="matrix(0.0422192,0,0,0.0499465,1.909774,-16.421803)"/>
<path style="fill-rule:evenodd;fill:rgb(99.607843%,81.176472%,24.313726%);fill-opacity:1;stroke-width:0.5;stroke-linecap:butt;stroke-linejoin:miter;stroke:rgb(31.764707%,12.54902%,2.745098%);stroke-opacity:1;stroke-miterlimit:4;" d="M 413.309229 521.885255 C 413.309229 521.885255 410.441016 525.091812 411.273723 529.393291 C 412.198953 533.772978 413.309229 537.605205 413.586798 537.605205 C 413.864366 537.605205 417.102671 531.817761 420.618544 531.504926 C 424.134418 531.192091 430.518504 534.711483 430.518504 534.711483 C 430.518504 534.711483 429.593274 527.672699 429.870843 524.466142 C 430.240935 521.337794 435.144653 515.784976 435.144653 515.784976 L 413.309229 521.807046 Z M 413.309229 521.885255 " transform="matrix(0.0422192,0,0,0.0499465,1.909774,-16.421803)"/>
<path style="fill-rule:evenodd;fill:rgb(86.666667%,54.509807%,34.901962%);fill-opacity:1;stroke-width:0.5;stroke-linecap:butt;stroke-linejoin:miter;stroke:rgb(31.764707%,12.54902%,2.745098%);stroke-opacity:1;stroke-miterlimit:4;" d="M 386.940178 516.567063 C 386.940178 516.567063 386.292517 519.304367 386.570086 519.304367 L 411.273723 512.891253 L 411.273723 511.014244 L 386.940178 516.488854 Z M 386.940178 516.567063 " transform="matrix(0.0422192,0,0,0.0499465,1.909774,-16.421803)"/>
<path style="fill-rule:evenodd;fill:rgb(71.372551%,71.372551%,70.588237%);fill-opacity:1;stroke-width:0.5;stroke-linecap:butt;stroke-linejoin:miter;stroke:rgb(31.764707%,12.54902%,2.745098%);stroke-opacity:1;stroke-miterlimit:4;" d="M 355.482363 551.760981 C 355.482363 551.760981 349.745938 550.978894 350.023507 552.386651 C 350.301076 553.872616 352.891719 555.280373 353.169288 556.218877 C 353.53938 557.079173 352.336581 560.207522 354.094518 559.972895 C 355.759932 559.738269 357.517869 558.48693 357.517869 557.626634 L 357.2403 552.621277 Z M 355.482363 551.760981 " transform="matrix(0.0422192,0,0,0.0499465,1.909774,-16.421803)"/>
<path style="fill-rule:evenodd;fill:rgb(86.666667%,54.509807%,34.901962%);fill-opacity:1;stroke-width:0.5;stroke-linecap:butt;stroke-linejoin:miter;stroke:rgb(31.764707%,12.54902%,2.745098%);stroke-opacity:1;stroke-miterlimit:4;" d="M 387.772885 537.29237 L 387.772885 539.325797 L 408.683079 536.432074 L 408.127941 534.8679 Z M 387.772885 537.29237 " transform="matrix(0.0422192,0,0,0.0499465,1.909774,-16.421803)"/>
<path style="fill-rule:evenodd;fill:rgb(99.607843%,81.176472%,24.313726%);fill-opacity:1;stroke-width:0.5;stroke-linecap:butt;stroke-linejoin:miter;stroke:rgb(31.764707%,12.54902%,2.745098%);stroke-opacity:1;stroke-miterlimit:4;" d="M 362.976725 540.811762 C 363.43934 540.811762 362.976725 543.392649 365.382322 542.76698 C 367.695397 542.219519 368.343058 540.811762 368.343058 540.811762 C 368.343058 540.811762 368.898196 544.018319 372.1365 543.705484 C 375.282282 543.392649 377.132741 539.873258 377.132741 539.873258 C 377.132741 539.873258 377.317787 542.532354 379.26077 541.593849 C 381.296276 540.733553 381.943937 538.700127 381.943937 538.700127 L 363.624386 541.281014 Z M 362.976725 523.605846 C 362.976725 523.605846 360.386081 524.466142 361.311311 529.706126 C 362.236541 534.8679 364.272047 537.91804 364.457092 537.91804 C 364.734661 537.91804 367.140259 532.912683 370.563609 532.130595 C 374.079483 531.113882 380.186 534.711483 380.186 534.711483 C 380.186 534.711483 379.630862 530.01896 380.463569 525.717481 C 381.11123 522.901968 382.406552 520.321081 384.257011 518.131237 C 384.257011 518.131237 363.901955 523.605846 363.069248 523.605846 Z M 362.976725 523.605846 " transform="matrix(0.0422192,0,0,0.0499465,1.909774,-16.421803)"/>
<path style="fill-rule:evenodd;fill:rgb(86.666667%,54.509807%,34.901962%);fill-opacity:1;stroke-width:0.5;stroke-linecap:butt;stroke-linejoin:miter;stroke:rgb(31.764707%,12.54902%,2.745098%);stroke-opacity:1;stroke-miterlimit:4;" d="M 411.921384 538.700127 L 412.198953 540.498927 C 412.198953 540.498927 433.20167 537.91804 433.20167 537.526996 C 433.20167 537.29237 433.20167 535.49357 432.831578 535.49357 C 432.461486 535.49357 412.198953 539.012962 411.828861 538.700127 Z M 411.643815 520.086454 L 411.921384 522.119881 L 436.625021 515.472141 C 436.625021 515.472141 437.180159 513.67334 436.90259 513.67334 C 436.625021 513.67334 412.198953 521.024959 411.643815 520.086454 Z M 411.643815 520.086454 " transform="matrix(0.0422192,0,0,0.0499465,1.909774,-16.421803)"/>
<path style="fill:none;stroke-width:0.5;stroke-linecap:butt;stroke-linejoin:miter;stroke:rgb(31.764707%,12.54902%,2.745098%);stroke-opacity:1;stroke-miterlimit:4;" d="M 414.234458 510.779618 C 414.234458 510.779618 413.864366 512.578419 414.234458 512.578419 C 414.512027 512.578419 432.461486 508.198731 432.461486 507.885896 C 432.461486 507.573061 434.311946 505.930678 432.831578 506.165305 C 431.443734 506.478139 414.789596 511.718123 414.234458 510.779618 Z M 452.909066 544.487571 L 434.867084 516.09781 M 432.461486 535.806405 C 432.831578 535.024318 433.664285 517.505567 433.664285 517.505567 " transform="matrix(0.0422192,0,0,0.0499465,1.909774,-16.421803)"/>
<path style="fill-rule:evenodd;fill:rgb(99.607843%,81.176472%,24.313726%);fill-opacity:1;stroke-width:0.5;stroke-linecap:butt;stroke-linejoin:miter;stroke:rgb(31.764707%,12.54902%,2.745098%);stroke-opacity:1;stroke-miterlimit:4;" d="M 388.975684 509.997531 C 389.993436 510.232157 392.121465 513.204088 393.324264 512.578419 C 394.527063 512.030958 396.192476 510.232157 396.192476 510.232157 C 396.192476 510.232157 395.914907 513.67334 398.227982 513.204088 C 400.63358 512.578419 400.911149 510.232157 400.911149 510.232157 C 400.911149 510.232157 402.576562 511.170662 404.05693 510.232157 C 405.537298 509.371862 406.925143 504.992174 406.370005 504.992174 C 405.90739 504.992174 389.530821 510.232157 388.883161 509.997531 Z M 388.420546 518.365863 C 388.420546 518.991533 385.367287 523.605846 386.38504 527.985534 C 387.402793 532.365222 388.883161 536.432074 389.160729 536.432074 C 389.530821 536.432074 393.879402 531.817761 397.672844 530.879256 C 401.466286 530.01896 407.017666 533.772978 406.740097 533.772978 C 406.370005 533.772978 405.167206 529.393291 405.167206 526.186734 C 405.167206 522.980177 409.608309 513.204088 409.608309 513.204088 Z M 388.420546 539.404005 C 388.420546 539.638631 389.160729 541.593849 391.288758 541.593849 C 393.416787 541.593849 393.601833 539.638631 393.601833 539.638631 C 393.601833 539.638631 393.324264 543.079815 396.470045 542.76698 C 399.70835 542.532354 400.818626 539.325797 400.818626 539.325797 C 400.818626 539.325797 401.096195 541.124597 403.779361 540.186092 C 406.370005 539.325797 409.793355 536.432074 409.608309 536.432074 C 409.423263 536.432074 388.605592 540.186092 388.328023 539.404005 Z M 388.420546 539.404005 " transform="matrix(0.0422192,0,0,0.0499465,1.909774,-16.421803)"/>
<path style="fill-rule:evenodd;fill:rgb(74.509805%,5.882353%,9.019608%);fill-opacity:1;stroke-width:0.6;stroke-linecap:butt;stroke-linejoin:miter;stroke:rgb(31.764707%,12.54902%,2.745098%);stroke-opacity:1;stroke-miterlimit:4;" d="M 408.96585 477.033375 C 409.003942 478.052355 408.179643 478.878383 407.135954 478.919312 C 406.088032 478.84702 405.204477 478.087968 405.162152 476.955767 C 405.21894 475.933066 406.04324 475.107039 407.086929 475.06611 C 408.13485 475.138401 409.018405 475.897454 408.96585 477.033375 Z M 408.96585 477.033375 " transform="matrix(0.00135102,-0.0411098,0.0344509,0.00153681,1.423409,26.044237)"/>
<path style="fill-rule:evenodd;fill:rgb(74.509805%,5.882353%,9.019608%);fill-opacity:1;stroke-width:0.6;stroke-linecap:butt;stroke-linejoin:miter;stroke:rgb(31.764707%,12.54902%,2.745098%);stroke-opacity:1;stroke-miterlimit:4;" d="M 409.019872 477.016085 C 408.963084 478.038786 408.138784 478.864814 407.095095 478.905743 C 406.051406 478.946672 405.163619 478.074399 405.220407 477.051698 C 405.178082 475.919497 406.097262 475.089749 407.140951 475.04882 C 408.188873 475.121111 408.98178 475.997105 409.019872 477.016085 Z M 409.019872 477.016085 " transform="matrix(0.00135102,-0.0411098,0.0344509,0.00153681,1.869244,25.909766)"/>
<path style="fill-rule:evenodd;fill:rgb(74.509805%,5.882353%,9.019608%);fill-opacity:1;stroke-width:0.6;stroke-linecap:butt;stroke-linejoin:miter;stroke:rgb(31.764707%,12.54902%,2.745098%);stroke-opacity:1;stroke-miterlimit:4;" d="M 409.002739 477.024343 C 409.040831 478.043323 408.121651 478.873071 407.077962 478.914 C 406.034273 478.954929 405.241366 478.078935 405.199041 476.946735 C 405.160948 475.927755 406.080128 475.098006 407.123817 475.057077 C 408.171739 475.129369 408.964646 476.005362 409.002739 477.024343 Z M 409.002739 477.024343 " transform="matrix(0.00135102,-0.0411098,0.0344509,0.00153681,1.646326,26.186392)"/>
<path style="fill-rule:evenodd;fill:rgb(74.509805%,5.882353%,9.019608%);fill-opacity:1;stroke-width:0.6;stroke-linecap:butt;stroke-linejoin:miter;stroke:rgb(31.764707%,12.54902%,2.745098%);stroke-opacity:1;stroke-miterlimit:4;" d="M 408.984543 477.025056 C 409.022636 478.044036 408.103455 478.873785 407.059766 478.914714 C 406.016077 478.955643 405.22317 478.079649 405.180845 476.947449 C 405.237633 475.924748 406.061933 475.09872 407.105622 475.057791 C 408.153543 475.130082 409.041331 476.002355 408.984543 477.025056 Z M 408.984543 477.025056 " transform="matrix(0.00135102,-0.0411098,0.0344509,0.00153681,1.646326,25.763768)"/>
<path style="fill:none;stroke-width:0.5;stroke-linecap:butt;stroke-linejoin:miter;stroke:rgb(31.764707%,12.54902%,2.745098%);stroke-opacity:1;stroke-miterlimit:4;" d="M 398.227982 499.986817 C 398.227982 499.830399 407.202712 503.819043 407.202712 504.131878 C 407.202712 504.366504 439.215664 546.912041 439.493233 546.912041 M 423.486757 504.131878 L 431.721303 507.573061 L 434.311946 513.986175 M 372.876684 503.584417 C 372.599115 503.584417 381.943937 510.623201 381.943937 510.623201 L 383.054212 516.332437 M 341.326346 545.973537 C 345.304835 544.331154 373.524345 519.617202 373.524345 519.617202 M 333.739461 541.281014 L 365.382322 514.611845 M 386.570086 518.600489 L 416.640056 568.419436 M 413.03166 539.169379 C 413.03166 539.169379 416.45501 550.900685 419.970883 552.699486 C 422.65405 554.107242 425.152171 555.671416 427.557768 557.313799 " transform="matrix(0.0422192,0,0,0.0499465,1.909774,-16.421803)"/>
<path style="fill:none;stroke-width:0.5;stroke-linecap:butt;stroke-linejoin:miter;stroke:rgb(31.764707%,12.54902%,2.745098%);stroke-opacity:1;stroke-miterlimit:4;" d="M 412.569045 539.482214 C 412.569045 539.482214 415.067165 553.325155 418.583039 555.906043 C 422.098912 558.48693 425.614786 561.380652 425.614786 561.380652 " transform="matrix(0.0422192,0,0,0.0499465,1.909774,-16.421803)"/>
<path style="fill:none;stroke-width:0.5;stroke-linecap:butt;stroke-linejoin:miter;stroke:rgb(31.764707%,12.54902%,2.745098%);stroke-opacity:1;stroke-miterlimit:4;" d="M 390.993073 439.019386 C 390.993073 439.019386 394.416424 458.18052 401.355648 462.638416 L 414.216343 470.693913 " transform="matrix(0.0422192,0,0,0.0499465,1.80507,-11.407944)"/>
<path style="fill:none;stroke-width:0.5;stroke-linecap:butt;stroke-linejoin:miter;stroke:rgb(31.764707%,12.54902%,2.745098%);stroke-opacity:1;stroke-miterlimit:4;" d="M 390.715505 438.706551 C 390.715505 438.706551 398.209866 453.879041 404.686475 458.493354 C 410.978038 463.185877 419.675199 467.487356 419.675199 467.487356 M 366.289436 440.036099 C 368.324942 443.477283 367.95485 450.203231 370.267925 452.471284 C 372.395953 454.895754 374.338936 457.398433 376.096873 460.135737 M 366.844574 440.192517 C 367.95485 441.913108 371.193155 450.594275 373.22866 453.175162 C 374.709028 455.599632 389.512706 470.381078 389.512706 470.381078 " transform="matrix(0.0422192,0,0,0.0499465,1.80507,-11.407944)"/>
<path style="fill-rule:evenodd;fill:rgb(0%,0%,0%);fill-opacity:1;stroke-width:0.5;stroke-linecap:butt;stroke-linejoin:miter;stroke:rgb(31.764707%,12.54902%,2.745098%);stroke-opacity:1;stroke-miterlimit:4;" d="M 384.608987 471.084956 C 384.608987 472.336296 383.591235 473.2748 382.388436 473.2748 C 381.185637 473.2748 380.167884 472.336296 380.167884 471.084956 C 380.167884 469.911826 381.185637 468.895113 382.388436 468.895113 C 383.591235 468.895113 384.608987 469.911826 384.608987 471.084956 Z M 395.341654 475.777479 C 395.341654 476.872401 394.416424 477.732696 393.398671 477.732696 C 392.380918 477.732696 391.455688 476.872401 391.455688 475.777479 C 391.455688 474.760766 392.380918 473.90047 393.398671 473.90047 C 394.416424 473.90047 395.341654 474.760766 395.341654 475.777479 Z M 409.035056 477.028818 C 409.035056 478.045531 408.109826 478.905827 407.092073 478.905827 C 406.07432 478.905827 405.241613 478.045531 405.241613 477.028818 C 405.241613 475.933896 406.07432 475.0736 407.092073 475.0736 C 408.109826 475.0736 409.035056 475.933896 409.035056 477.028818 Z M 420.877998 472.492713 C 420.877998 473.587635 420.32286 474.135096 419.305107 474.213305 C 418.287354 474.056887 417.732216 473.509426 417.732216 472.492713 C 417.732216 471.632417 418.379877 470.693913 419.305107 470.693913 C 420.32286 470.772122 420.877998 471.397791 420.877998 472.492713 Z M 430.500388 466.783477 C 430.407865 467.800191 429.760204 468.347652 428.557405 468.42586 C 427.632176 468.42586 426.706946 467.721982 426.706946 466.783477 C 426.706946 465.923182 427.632176 465.219303 428.557405 465.219303 C 429.760204 465.297512 430.407865 465.766764 430.500388 466.783477 Z M 430.500388 466.783477 " transform="matrix(0.0422192,0,0,0.0499465,1.80507,-11.407944)"/>
<path style="fill-rule:evenodd;fill:rgb(100%,0%,0%);fill-opacity:1;stroke-width:0.5;stroke-linecap:butt;stroke-linejoin:miter;stroke:rgb(31.764707%,12.54902%,2.745098%);stroke-opacity:1;stroke-miterlimit:4;" d="M 374.061367 404.372929 C 373.22866 404.998598 358.702552 408.51799 360.738057 408.205155 C 362.68104 407.892321 374.431459 411.177086 374.061367 410.238582 C 373.783798 409.221869 374.061367 404.998598 374.061367 404.372929 Z M 398.765004 400.07145 C 398.209866 400.07145 389.790275 403.278007 390.067844 403.278007 C 390.437936 403.278007 399.690234 405.937103 399.412665 405.311433 C 399.135096 404.685764 399.135096 400.931746 398.765004 400.07145 Z M 424.116302 402.965172 C 423.468641 403.278007 413.568682 405.624268 415.419141 405.937103 C 417.177078 406.171729 423.838733 408.51799 423.838733 407.892321 C 423.838733 407.423068 423.838733 403.278007 424.116302 402.886963 Z M 424.116302 402.965172 " transform="matrix(0.0422192,0,0,0.0499465,1.80507,-11.407944)"/>
<path style="fill:none;stroke-width:0.5;stroke-linecap:butt;stroke-linejoin:miter;stroke:rgb(31.764707%,12.54902%,2.745098%);stroke-opacity:1;stroke-miterlimit:4;" d="M 413.568682 471.006748 C 413.938774 466.392434 422.358365 440.036099 422.358365 440.036099 M 416.529417 470.068243 L 423.191072 440.114308 M 419.490153 467.800191 C 419.675199 466.079599 424.393871 440.192517 424.393871 440.192517 M 413.938774 467.174521 C 415.419141 466.392434 419.675199 465.219303 419.675199 465.219303 M 415.974279 462.638416 C 417.362124 462.638416 420.32286 461.387077 420.32286 461.387077 M 416.806986 459.119024 C 418.194831 458.571563 419.675199 458.18052 421.155567 457.867685 M 417.362124 454.661128 L 422.080796 453.879041 M 419.490153 450.90711 C 419.490153 451.219945 422.728457 451.219945 422.728457 451.219945 M 420.32286 447.465927 L 423.468641 448.013388 " transform="matrix(0.0422192,0,0,0.0499465,1.80507,-11.407944)"/>
<path style="fill:none;stroke-width:0.5;stroke-linecap:butt;stroke-linejoin:miter;stroke:rgb(31.764707%,12.54902%,2.745098%);stroke-opacity:1;stroke-miterlimit:4;" d="M 413.57251 471.015149 C 413.942602 466.380134 422.362193 439.990447 422.362193 439.990447 M 416.533245 471.314183 L 423.1949 440.214722 M 418.753797 471.388941 L 424.397699 440.214722 M 413.942602 467.202475 C 415.422969 466.380134 419.679027 465.184 419.679027 465.184 M 415.978107 462.567459 C 417.365952 462.567459 420.326688 461.371326 420.326688 461.371326 M 416.810814 459.128577 C 418.198659 458.53051 419.679027 458.156718 421.159394 457.932443 M 417.365952 454.717836 L 422.084624 453.895494 M 419.493981 450.905161 C 419.493981 451.204195 422.732285 451.204195 422.732285 451.204195 M 420.326688 447.466279 L 423.472469 447.989587 " transform="matrix(0.0422192,0,0,0.0522517,0.758033,-12.32619)"/>
<path style="fill:none;stroke-width:0.5;stroke-linecap:butt;stroke-linejoin:miter;stroke:rgb(31.764707%,12.54902%,2.745098%);stroke-opacity:1;stroke-miterlimit:4;" d="M 413.639972 471.011707 C 413.917541 466.390284 422.429655 439.971148 422.429655 439.971148 M 416.508184 470.087423 L 423.169839 440.125195 M 419.46892 467.776711 C 419.653966 466.082189 424.372638 440.202219 424.372638 440.202219 M 413.917541 467.237545 C 415.397909 466.390284 419.653966 465.234928 419.653966 465.234928 M 416.045569 462.616122 C 417.433414 462.616122 420.301627 461.383742 420.301627 461.383742 M 416.785753 459.07303 C 418.266121 458.533864 419.653966 458.148746 421.226857 457.917675 M 417.433414 454.682678 L 422.059564 453.912441 M 419.46892 450.908516 C 419.46892 451.216611 422.707224 451.216611 422.707224 451.216611 M 420.301627 447.519472 L 423.539931 447.981615 " transform="matrix(-0.0422192,0,0,0.0507149,35.678409,-11.707622)"/>
<path style="fill-rule:evenodd;fill:rgb(86.666667%,54.509807%,34.901962%);fill-opacity:1;stroke-width:0.5;stroke-linecap:butt;stroke-linejoin:miter;stroke:rgb(31.764707%,12.54902%,2.745098%);stroke-opacity:1;stroke-miterlimit:4;" d="M 426.354969 558.48693 L 454.019342 559.1126 L 454.296911 557.079173 L 425.799832 556.766338 Z M 427.557768 551.21352 C 430.796073 551.21352 454.944572 546.599206 454.944572 546.599206 C 454.944572 546.599206 455.777279 543.627275 454.944572 543.627275 C 454.019342 543.627275 427.557768 549.180094 427.557768 549.180094 Z M 427.557768 551.21352 " transform="matrix(0.0422192,0,0,0.0499465,1.909774,-16.421803)"/>
<path style="fill-rule:evenodd;fill:rgb(74.509805%,5.882353%,9.019608%);fill-opacity:1;stroke-width:0.6;stroke-linecap:butt;stroke-linejoin:miter;stroke:rgb(31.764707%,12.54902%,2.745098%);stroke-opacity:1;stroke-miterlimit:4;" d="M 408.993641 477.024699 C 409.031733 478.04368 408.112553 478.873428 407.068864 478.914357 C 406.025175 478.955286 405.232268 478.079292 405.189943 476.947092 C 405.15185 475.928112 406.071031 475.098363 407.11472 475.057434 C 408.162641 475.129725 408.955548 476.005719 408.993641 477.024699 Z M 408.993641 477.024699 " transform="matrix(0.00135102,-0.0411098,0.0344509,0.00153681,1.646326,25.97508)"/>
<path style=" stroke:none;fill-rule:nonzero;fill:rgb(0.392157%,12.941177%,41.176471%);fill-opacity:1;" d="M 0 0 L 12.5 0 L 12.5 9.5 L 0 9.5 Z M 0 0 "/>
<path style=" stroke:none;fill-rule:nonzero;fill:rgb(100%,100%,100%);fill-opacity:1;" d="M 1.464844 0 L 6.230469 3.582031 L 10.976562 0 L 12.5 0 L 12.5 1.226562 L 7.8125 4.769531 L 12.5 8.292969 L 12.5 9.5 L 10.9375 9.5 L 6.25 5.957031 L 1.582031 9.5 L 0 9.5 L 0 8.3125 L 4.667969 4.789062 L 0 1.265625 L 0 0 Z M 1.464844 0 "/>
<path style=" stroke:none;fill-rule:nonzero;fill:rgb(78.431374%,6.27451%,18.039216%);fill-opacity:1;" d="M 8.28125 5.5625 L 12.5 8.707031 L 12.5 9.5 L 7.207031 5.5625 Z M 4.6875 5.957031 L 4.804688 6.648438 L 1.054688 9.5 L 0 9.5 Z M 12.5 0 L 12.5 0.0585938 L 7.636719 3.78125 L 7.675781 2.910156 L 11.523438 0 Z M 0 0 L 4.667969 3.484375 L 3.496094 3.484375 L 0 0.832031 Z M 0 0 "/>
<path style=" stroke:none;fill-rule:nonzero;fill:rgb(100%,100%,100%);fill-opacity:1;" d="M 4.707031 0 L 4.707031 9.5 L 7.832031 9.5 L 7.832031 0 Z M 0 3.167969 L 0 6.332031 L 12.5 6.332031 L 12.5 3.167969 Z M 0 3.167969 "/>
<path style=" stroke:none;fill-rule:nonzero;fill:rgb(78.431374%,6.27451%,18.039216%);fill-opacity:1;" d="M 0 3.820312 L 0 5.71875 L 12.5 5.71875 L 12.5 3.820312 Z M 5.332031 0 L 5.332031 9.5 L 7.207031 9.5 L 7.207031 0 Z M 5.332031 0 "/>
</g>
</svg>
