<svg xmlns="http://www.w3.org/2000/svg" width="25" height="19" viewBox="0 0 25 19"><path d="M0 0h25v19H0z" style="fill:#6797d6;fill-opacity:1;stroke:none"/><path d="m12.52 4.578-1.188.824.453-1.336-1.191-.824h1.472l.454-1.336.457 1.34h1.468l-1.191.82.457 1.336m-1.191 9.11-1.188-.828.453 1.34-1.191.824h1.472l.454 1.336.457-1.34 1.468.004-1.191-.828.457-1.336m-6.918-3.438-.902 1.14.054-1.413-1.379-.438 1.41-.433.047-1.415.82 1.145 1.41-.437-.901 1.14.82 1.145m10.07-.438.903 1.145-.051-1.414 1.375-.438-1.41-.433-.047-1.415-.82 1.145-1.41-.437.906 1.14-.825 1.145" style="stroke:none;fill-rule:evenodd;fill:#fff;fill-opacity:1"/></svg>