<svg xmlns="http://www.w3.org/2000/svg" width="25" height="19" viewBox="0 0 25 19"><path d="M0 0h25v19H0z" style="fill:#fff;fill-opacity:1;stroke:none"/><path d="M0 7.602h25v3.796H0Zm0 0" style="stroke:none;fill-rule:evenodd;fill:#c00;fill-opacity:1"/><path d="M14.375 0v19h-3.75V0Zm0 0" style="stroke:none;fill-rule:evenodd;fill:#c00;fill-opacity:1"/><path d="M355.2 146.645c3-4.836 1.2-8.092-3.4-8.98 0 0-14.9 4.835-31 5.328-16 .494-35-3.947-35-3.947-3.5 2.072-2.7 7.105-1 10.362 0 0 16.8 5.625 36 5.033 10.2-.494 20.4-2.369 30.1-5.527 3.7-1.184 4.3-2.17 4.3-2.27Zm0 0" style="fill-rule:evenodd;fill:#ebeae3;fill-opacity:1;stroke-width:.5;stroke-linecap:butt;stroke-linejoin:miter;stroke:#000;stroke-opacity:1;stroke-miterlimit:4" transform="scale(.03906 .03958)"/><path d="m320 357.632-30.9-64.244-70.9 5.428 40-58.816-40-58.816 71 5.428 30.8-64.145 30.9 64.046 70.9-5.329-40 58.816 40 58.816-71-5.428Zm0 0" style="fill-rule:nonzero;fill:#fff;fill-opacity:1;stroke-width:1.6;stroke-linecap:butt;stroke-linejoin:miter;stroke:#161111;stroke-opacity:1;stroke-miterlimit:4" transform="scale(.03906 .03958)"/><path d="M319.5 122.171c38.8 6.415 37.4 8.19 37.4 8.19l10.1-30.197s1.1-5.92-1.7-9.572c-2.8-3.553-10.5-1.579-10.5-1.579s-1-4.934-4.5-6.02c-3.4-1.184-16 4.54-20 5.823s-6 2.467-11.5 2.368c-5.5 0-15.4-5.033-17.3-6.02-1.7-.888-4.4-1.776-6.9-1.677-2.4 0-5 .69-6.3 2.368-1.3 1.777-1.2 3.948-1.2 3.948s-2-1.283-5.2-1.283-5 .394-6.5 2.072-3.4 6.513-3.4 6.513l3.6 8.191.2 11.349 7.5 11.94Zm0 0" style="fill-rule:evenodd;fill:#b02320;fill-opacity:1;stroke-width:1.3;stroke-linecap:butt;stroke-linejoin:miter;stroke:#000;stroke-opacity:1;stroke-miterlimit:4" transform="scale(.03906 .03958)"/><path d="M355.7 139.342s2 2.27 1.9 3.158c-.1.79-1 1.48-1 1.48s.7.592.5 1.48c-.2.987-1.4 1.086-1.4 1.086s.3.79-.5 1.184c-.7.395-3.8.987-3.8.987s-15-4.243-31-4.243-35 5.23-35 5.23-2-.69-2-1.974c-.2-1.184.1-2.17.1-2.17s-1 0-1.3-.889c-.4-1.283.1-2.27.1-2.27s-.7.198.1-1.48c.6-1.283 1.5-1.678 1.5-1.678s16.8-6.02 36-6.118 35.8 6.02 35.8 6.217Zm0 0" style="fill-rule:evenodd;fill:#ebeae3;fill-opacity:1;stroke-width:.5;stroke-linecap:butt;stroke-linejoin:miter;stroke:#000;stroke-opacity:1;stroke-miterlimit:4" transform="scale(.03906 .03958)"/><path d="M276.2 101.546s-.6-2.27.8-4.145c1.1-1.48 3-2.072 4.7-1.381.8.394.7 1.283 1.7 1.48 1 .296 1.8-.493 1.8-.493" style="fill:none;stroke-width:1.1;stroke-linecap:butt;stroke-linejoin:miter;stroke:#000;stroke-opacity:1;stroke-miterlimit:4" transform="scale(.03906 .03958)"/><path d="m369.8 106.579-5.8 12.04-2.3.394s-1.4-.79-5.4-.493c-2.8.197-3.7.987-3.7.987l5.2-12.04s.4 2.566 1 4.046c.8 1.974 3.7 3.651 3.7 3.651s.4-2.27-.4-4.934a58 58 0 0 0-2.8-7.302Zm0 0" style="fill-rule:evenodd;fill:#fc0;fill-opacity:.898039;stroke-width:1.2;stroke-linecap:butt;stroke-linejoin:miter;stroke:#000;stroke-opacity:1;stroke-miterlimit:4" transform="scale(.03906 .03958)"/><path d="M316.5 69.178h6.5v27.73h-6.5Zm0 0" style="fill-rule:nonzero;fill:#121116;fill-opacity:1;stroke-width:1.2;stroke-linecap:butt;stroke-linejoin:round;stroke:#121116;stroke-opacity:1;stroke-miterlimit:4" transform="scale(.03906 .03958)"/><path d="m276.6 120.197 4.1 8.98s17.9-7.006 38.9-6.809c31.5.198 40.5 6.514 40.5 6.514l4.6-11.053-3.5 1.974-3.6 2.27-4 1.48-5-.296-4.4-3.158-2.2-4.737-3.7 3.454-6.6 1.381-6.4-1.579-5.6-7.105s-4.2 7.895-9.6 8.388c-7.7.592-12.1-3.75-12.1-3.75s-2.9 6.415-7.6 7.5c-7.5 1.974-13.7-3.454-13.8-3.454Zm0 0" style="fill-rule:evenodd;fill:#f6ca1f;fill-opacity:1;stroke-width:1;stroke-linecap:butt;stroke-linejoin:miter;stroke:#000;stroke-opacity:1;stroke-miterlimit:4" transform="scale(.03906 .03958)"/><path d="M348.4 65.724c0 1.776-1.4 3.355-3.3 3.355s-3.4-1.48-3.4-3.355c0-.987.3-1.875 1-2.467.6-.691 1.5-1.086 2.4-1.086 1.8.099 3.3 1.579 3.3 3.454" style="fill-rule:nonzero;fill:#eee;fill-opacity:1;stroke-width:1.2;stroke-linecap:butt;stroke-linejoin:round;stroke:#1e1e1e;stroke-opacity:1;stroke-miterlimit:4" transform="scale(.03906 .03958)"/><path d="M13.418 2.668s.105 0 .117-.043a.23.23 0 0 0-.008-.105s.051.058.04.101q-.02.054-.067.067a.1.1 0 0 1-.078-.02Zm0 0" style="stroke:none;fill-rule:evenodd;fill:#a3afb8;fill-opacity:1"/><path d="M340.3 69.474c0 1.875-1.5 3.454-3.4 3.454s-3.4-1.58-3.4-3.454c0-.888.3-1.777 1-2.467s1.6-.987 2.5-.987c1.8 0 3.3 1.48 3.4 3.256" style="fill-rule:nonzero;fill:#eee;fill-opacity:1;stroke-width:1.2;stroke-linecap:butt;stroke-linejoin:round;stroke:#1e1e1e;stroke-opacity:1;stroke-miterlimit:4" transform="scale(.03906 .03958)"/><path d="M13.098 2.816s.109 0 .117-.043-.008-.101-.008-.101.05.058.04.101c-.013.04-.036.059-.067.067a.12.12 0 0 1-.078-.024Zm0 0" style="stroke:none;fill-rule:evenodd;fill:#a3afb8;fill-opacity:1"/><path d="M358 63.355c0 1.974-1.6 3.454-3.4 3.454-1.9 0-3.4-1.579-3.4-3.454 0-1.776 1.5-3.256 3.3-3.355 1.9 0 3.4 1.48 3.4 3.355" style="fill-rule:nonzero;fill:#eee;fill-opacity:1;stroke-width:1.2;stroke-linecap:butt;stroke-linejoin:round;stroke:#1e1e1e;stroke-opacity:1;stroke-miterlimit:4" transform="scale(.03906 .03958)"/><path d="M13.79 2.582s.105 0 .116-.047c.012-.05-.008-.101-.008-.101s.051.054.04.101q-.02.059-.067.063a.14.14 0 0 1-.078-.016Zm0 0" style="stroke:none;fill-rule:evenodd;fill:#a3afb8;fill-opacity:1"/><path d="M368.6 65.625c0 1.776-1.5 3.355-3.3 3.355-1.9 0-3.4-1.48-3.4-3.355s1.5-3.454 3.4-3.454c1.8.099 3.2 1.48 3.3 3.355" style="fill-rule:nonzero;fill:#eee;fill-opacity:1;stroke-width:1.2;stroke-linecap:butt;stroke-linejoin:round;stroke:#1e1e1e;stroke-opacity:1;stroke-miterlimit:4" transform="scale(.03906 .03958)"/><path d="M14.207 2.664s.105 0 .117-.043-.008-.105-.008-.105.051.058.04.105a.09.09 0 0 1-.067.063.12.12 0 0 1-.082-.02" style="stroke:none;fill-rule:evenodd;fill:#a3afb8;fill-opacity:1"/><path d="M376.8 72.336c0 1.776-1.5 3.355-3.4 3.355s-3.4-1.48-3.4-3.355 1.5-3.454 3.4-3.454c1.8 0 3.3 1.48 3.4 3.355" style="fill-rule:nonzero;fill:#eee;fill-opacity:1;stroke-width:1.2;stroke-linecap:butt;stroke-linejoin:round;stroke:#1e1e1e;stroke-opacity:1;stroke-miterlimit:4" transform="scale(.03906 .03958)"/><path d="M14.527 2.93s.106 0 .118-.043a.23.23 0 0 0-.008-.106s.05.063.035.106c-.012.035-.031.058-.067.062a.12.12 0 0 1-.078-.02" style="stroke:none;fill-rule:evenodd;fill:#a3afb8;fill-opacity:1"/><path d="M380.3 83.29c0 1.874-1.5 3.453-3.4 3.453-1.8-.098-3.3-1.579-3.3-3.454s1.5-3.355 3.3-3.355c1.9 0 3.4 1.48 3.4 3.355" style="fill-rule:nonzero;fill:#eee;fill-opacity:1;stroke-width:1.2;stroke-linecap:butt;stroke-linejoin:round;stroke:#1e1e1e;stroke-opacity:1;stroke-miterlimit:4" transform="scale(.03906 .03958)"/><path d="M14.664 3.363s.106 0 .117-.043-.008-.101-.008-.101.051.058.036.101q-.016.059-.067.063a.1.1 0 0 1-.078-.02" style="stroke:none;fill-rule:evenodd;fill:#a3afb8;fill-opacity:1"/><path d="M379 94.44c0 1.974-1.5 3.356-3.4 3.356-1.8 0-3.2-1.48-3.3-3.257-.1-1.875 1.4-3.453 3.3-3.552 1.9 0 3.4 1.579 3.4 3.454" style="fill-rule:nonzero;fill:#eee;fill-opacity:1;stroke-width:1.2;stroke-linecap:butt;stroke-linejoin:round;stroke:#1e1e1e;stroke-opacity:1;stroke-miterlimit:4" transform="scale(.03906 .03958)"/><path d="M14.61 3.809s.109 0 .117-.047c.011-.04-.004-.102-.004-.102s.05.059.035.102c-.016.043-.028.054-.067.062a.1.1 0 0 1-.078-.015Zm0 0" style="stroke:none;fill-rule:evenodd;fill:#a3afb8;fill-opacity:1"/><path d="M374 104.21c0 1.876-1.5 3.356-3.3 3.356-1.9 0-3.4-1.48-3.4-3.355s1.5-3.454 3.4-3.454c1.8.098 3.3 1.579 3.3 3.454" style="fill-rule:nonzero;fill:#eee;fill-opacity:1;stroke-width:1.2;stroke-linecap:butt;stroke-linejoin:round;stroke:#1e1e1e;stroke-opacity:1;stroke-miterlimit:4" transform="scale(.03906 .03958)"/><path d="M14.418 4.195s.105 0 .117-.047c.012-.039-.008-.097-.008-.097s.051.054.04.097q-.02.061-.067.063a.1.1 0 0 1-.078-.016Zm0 0" style="stroke:none;fill-rule:evenodd;fill:#a3afb8;fill-opacity:1"/><path d="M332.3 72.434c0 1.875-1.5 3.355-3.3 3.355-1.9 0-3.4-1.48-3.4-3.355s1.5-3.355 3.3-3.454c1.9 0 3.4 1.58 3.4 3.454" style="fill-rule:nonzero;fill:#eee;fill-opacity:1;stroke-width:1.2;stroke-linecap:butt;stroke-linejoin:round;stroke:#1e1e1e;stroke-opacity:1;stroke-miterlimit:4" transform="scale(.03906 .03958)"/><path d="M12.79 2.938s.105 0 .116-.047a.2.2 0 0 0-.008-.102s.051.059.04.102q-.02.057-.067.062-.047.013-.082-.015" style="stroke:none;fill-rule:evenodd;fill:#a3afb8;fill-opacity:1"/><path d="M322.1 71.546c0 1.48-1.3 2.763-2.8 2.862-1.5-.099-2.8-1.382-2.8-2.862.1-1.579 1.3-2.763 2.8-2.862 1.5.099 2.7 1.283 2.8 2.862" style="fill-rule:nonzero;fill:#eee;fill-opacity:1;stroke-width:1.2;stroke-linecap:butt;stroke-linejoin:round;stroke:#1e1e1e;stroke-opacity:1;stroke-miterlimit:4" transform="scale(.03906 .03958)"/><path d="M12.422 2.89s.09 0 .098-.038c.007-.043-.004-.082-.004-.082s.039.042.03.082q-.016.046-.054.054a.14.14 0 0 1-.07-.015" style="stroke:none;fill-rule:evenodd;fill:#a3afb8;fill-opacity:1"/><path d="M322.2 75c0 1.579-1.2 2.862-2.8 2.96-1.6-.098-2.8-1.381-2.8-2.96.1-1.48 1.3-2.664 2.8-2.763 1.5.099 2.7 1.283 2.8 2.763" style="fill-rule:nonzero;fill:#eee;fill-opacity:1;stroke-width:1.2;stroke-linecap:butt;stroke-linejoin:round;stroke:#1e1e1e;stroke-opacity:1;stroke-miterlimit:4" transform="scale(.03906 .03958)"/><path d="M12.422 3.027s.09 0 .101-.039c.008-.031-.007-.078-.007-.078s.039.047.03.078q-.011.054-.054.055a.1.1 0 0 1-.066-.016Zm0 0" style="stroke:none;fill-rule:evenodd;fill:#a3afb8;fill-opacity:1"/><path d="M322.4 80.329c-.1 1.48-1.3 2.664-2.8 2.763-1.5 0-2.8-1.283-2.9-2.763.1-1.579 1.3-2.862 2.9-2.96 1.5.098 2.8 1.381 2.8 2.96" style="fill-rule:nonzero;fill:#eee;fill-opacity:1;stroke-width:1.2;stroke-linecap:butt;stroke-linejoin:round;stroke:#1e1e1e;stroke-opacity:1;stroke-miterlimit:4" transform="scale(.03906 .03958)"/><path d="M12.434 3.238s.086 0 .097-.039-.008-.086-.008-.086.04.051.032.082q-.013.054-.055.055a.1.1 0 0 1-.066-.012" style="stroke:none;fill-rule:evenodd;fill:#a3afb8;fill-opacity:1"/><path d="M322.7 85.757c0 .888-.3 1.677-.8 2.27-.6.591-1.4.887-2.2.887s-1.6-.296-2.2-.888c-.6-.493-.9-1.283-.9-2.17-.1-.79.2-1.58.8-2.172.6-.69 1.4-.987 2.2-.987s1.6.296 2.2.889c.5.592.8 1.381.8 2.17" style="fill-rule:nonzero;fill:#eee;fill-opacity:1;stroke-width:1.2;stroke-linecap:butt;stroke-linejoin:round;stroke:#1e1e1e;stroke-opacity:1;stroke-miterlimit:4" transform="scale(.03906 .03958)"/><path d="M12.43 3.46s.097 0 .105-.038c.008-.043-.008-.094-.008-.094s.047.05.036.094c-.016.039-.028.047-.06.055a.12.12 0 0 1-.073-.016" style="stroke:none;fill-rule:evenodd;fill:#a3afb8;fill-opacity:1"/><path d="M323 93.257c0 1.875-1.5 3.454-3.4 3.454-1.8-.1-3.3-1.58-3.3-3.454-.1-1.875 1.4-3.356 3.3-3.454 1.9 0 3.4 1.48 3.4 3.355" style="fill-rule:nonzero;fill:#eee;fill-opacity:1;stroke-width:1.2;stroke-linecap:butt;stroke-linejoin:round;stroke:#1e1e1e;stroke-opacity:1;stroke-miterlimit:4" transform="scale(.03906 .03958)"/><path d="M12.422 3.762s.11 0 .117-.043c.008-.047-.004-.106-.004-.106s.05.059.035.106c-.015.039-.027.054-.066.062a.14.14 0 0 1-.078-.02Zm0 0" style="stroke:none;fill-rule:evenodd;fill:#a3afb8;fill-opacity:1"/><path d="M322.7 108.454c0 1.875-1.4 3.257-3.2 3.257-.9.098-1.7-.297-2.3-.889s-1-1.48-.9-2.368c0-1.678 1.4-3.158 3.2-3.158.9-.099 1.7.296 2.3.888s1 1.48.9 2.27" style="fill-rule:nonzero;fill:#eee;fill-opacity:1;stroke-width:1.2;stroke-linecap:butt;stroke-linejoin:round;stroke:#1e1e1e;stroke-opacity:1;stroke-miterlimit:4" transform="scale(.03906 .03958)"/><path d="M12.422 4.363s.101 0 .11-.043c.011-.043-.005-.097-.005-.097s.047.05.032.097q-.018.048-.059.059a.2.2 0 0 1-.078-.016" style="stroke:none;fill-rule:evenodd;fill:#a3afb8;fill-opacity:1"/><path d="M313.6 72.336c0 1.875-1.6 3.355-3.4 3.355-1.9 0-3.4-1.48-3.4-3.355s1.5-3.454 3.4-3.454 3.4 1.579 3.4 3.454" style="fill-rule:nonzero;fill:#eee;fill-opacity:1;stroke-width:1.2;stroke-linecap:butt;stroke-linejoin:round;stroke:#1e1e1e;stroke-opacity:1;stroke-miterlimit:4" transform="scale(.03906 .03958)"/><path d="M12.055 2.93s.105 0 .117-.04c.012-.046-.008-.105-.008-.105s.05.059.04.102q-.02.057-.067.062a.1.1 0 0 1-.078-.015Zm0 0" style="stroke:none;fill-rule:evenodd;fill:#a3afb8;fill-opacity:1"/><path d="M305.2 68.98c0 1.875-1.5 3.454-3.4 3.454-1.8-.098-3.3-1.579-3.3-3.454 0-1.776 1.5-3.355 3.3-3.355 1.9 0 3.4 1.48 3.4 3.355" style="fill-rule:nonzero;fill:#eee;fill-opacity:1;stroke-width:1.2;stroke-linecap:butt;stroke-linejoin:round;stroke:#1e1e1e;stroke-opacity:1;stroke-miterlimit:4" transform="scale(.03906 .03958)"/><path d="M11.73 2.8s.106 0 .118-.046a.3.3 0 0 0-.008-.098s.05.055.039.098c-.02.043-.031.055-.07.062-.028.012-.051.004-.079-.015" style="stroke:none;fill-rule:evenodd;fill:#a3afb8;fill-opacity:1"/><path d="M297.2 65.329c0 1.776-1.5 3.355-3.3 3.355-1.9 0-3.4-1.48-3.4-3.355-.1-1.875 1.4-3.454 3.3-3.553 1.9 0 3.4 1.58 3.4 3.454" style="fill-rule:nonzero;fill:#eee;fill-opacity:1;stroke-width:1.2;stroke-linecap:butt;stroke-linejoin:round;stroke:#1e1e1e;stroke-opacity:1;stroke-miterlimit:4" transform="scale(.03906 .03958)"/><path d="M11.418 2.652s.105 0 .117-.043a.23.23 0 0 0-.008-.105s.051.062.04.105q-.02.055-.067.063a.12.12 0 0 1-.082-.02" style="stroke:none;fill-rule:evenodd;fill:#a3afb8;fill-opacity:1"/><path d="M288 63.257c0 1.973-1.4 3.454-3.3 3.454s-3.4-1.58-3.4-3.454c0-.889.3-1.777 1-2.468.6-.592 1.5-.986 2.4-.986 1.9 0 3.4 1.48 3.4 3.355" style="fill-rule:nonzero;fill:#eee;fill-opacity:1;stroke-width:1.2;stroke-linecap:butt;stroke-linejoin:round;stroke:#1e1e1e;stroke-opacity:1;stroke-miterlimit:4" transform="scale(.03906 .03958)"/><path d="M11.059 2.574s.105 0 .117-.043a.2.2 0 0 0-.008-.105s.05.058.039.105a.09.09 0 0 1-.066.063.14.14 0 0 1-.079-.02Zm0 0" style="stroke:none;fill-rule:evenodd;fill:#a3afb8;fill-opacity:1"/><path d="M277.2 65.822c0 1.974-1.5 3.356-3.3 3.454-1.9 0-3.4-1.48-3.4-3.355 0-.987.3-1.875 1-2.467.6-.69 1.5-1.086 2.4-1.086 1.8.1 3.3 1.58 3.3 3.454" style="fill-rule:nonzero;fill:#eee;fill-opacity:1;stroke-width:1.2;stroke-linecap:butt;stroke-linejoin:round;stroke:#1e1e1e;stroke-opacity:1;stroke-miterlimit:4" transform="scale(.03906 .03958)"/><path d="M10.637 2.676s.105 0 .117-.043-.008-.102-.008-.102.05.055.04.098q-.02.054-.067.066a.1.1 0 0 1-.078-.02Zm0 0" style="stroke:none;fill-rule:evenodd;fill:#a3afb8;fill-opacity:1"/><path d="M269.6 73.52c0 1.875-1.5 3.355-3.4 3.355-1.8 0-3.3-1.579-3.3-3.355 0-1.875 1.5-3.356 3.3-3.454 1.9 0 3.4 1.579 3.4 3.454" style="fill-rule:nonzero;fill:#eee;fill-opacity:1;stroke-width:1.2;stroke-linecap:butt;stroke-linejoin:round;stroke:#1e1e1e;stroke-opacity:1;stroke-miterlimit:4" transform="scale(.03906 .03958)"/><path d="M10.34 2.977s.105 0 .117-.043a.2.2 0 0 0-.008-.102s.051.059.035.102c-.011.035-.03.058-.066.062a.1.1 0 0 1-.078-.02" style="stroke:none;fill-rule:evenodd;fill:#a3afb8;fill-opacity:1"/><path d="M266.4 84.178c0 1.875-1.5 3.454-3.3 3.454-1.9 0-3.4-1.58-3.4-3.454 0-1.777 1.5-3.356 3.3-3.356s3.3 1.48 3.4 3.257" style="fill-rule:nonzero;fill:#eee;fill-opacity:1;stroke-width:1.2;stroke-linecap:butt;stroke-linejoin:round;stroke:#1e1e1e;stroke-opacity:1;stroke-miterlimit:4" transform="scale(.03906 .03958)"/><path d="M10.215 3.402s.105-.004.117-.047a.2.2 0 0 0-.008-.101s.051.059.04.101q-.02.058-.067.067a.1.1 0 0 1-.082-.024Zm0 0" style="stroke:none;fill-rule:evenodd;fill:#a3afb8;fill-opacity:1"/><path d="M267.8 95.329c0 1.974-1.5 3.454-3.3 3.454-1.9 0-3.4-1.48-3.4-3.355-.1-1.875 1.4-3.454 3.3-3.553 1.9 0 3.4 1.579 3.4 3.454" style="fill-rule:nonzero;fill:#eee;fill-opacity:1;stroke-width:1.2;stroke-linecap:butt;stroke-linejoin:round;stroke:#1e1e1e;stroke-opacity:1;stroke-miterlimit:4" transform="scale(.03906 .03958)"/><path d="M10.27 3.844s.105 0 .117-.047c.011-.04-.008-.102-.008-.102s.05.059.039.102q-.019.06-.066.066a.11.11 0 0 1-.079-.02Zm0 0" style="stroke:none;fill-rule:evenodd;fill:#a3afb8;fill-opacity:1"/><path d="M273 105.493c0 1.777-1.5 3.454-3.4 3.454-1.8-.098-3.3-1.579-3.3-3.454-.1-1.875 1.4-3.454 3.3-3.454s3.4 1.48 3.4 3.356" style="fill-rule:nonzero;fill:#eee;fill-opacity:1;stroke-width:1.2;stroke-linecap:butt;stroke-linejoin:round;stroke:#1e1e1e;stroke-opacity:1;stroke-miterlimit:4" transform="scale(.03906 .03958)"/><path d="M10.469 4.242s.11 0 .117-.043-.004-.101-.004-.101.05.054.04.097q-.026.06-.067.067a.1.1 0 0 1-.082-.02Zm0 0" style="stroke:none;fill-rule:evenodd;fill:#a3afb8;fill-opacity:1"/><path d="M430.704 247.503c-.224 3.488-3.028 6.347-6.51 6.35-3.483.002-6.385-2.836-6.456-6.374-.07-3.538 2.811-6.58 6.294-6.582 3.777.047 6.68 2.885 6.672 6.606" style="fill-rule:nonzero;fill:#eee;fill-opacity:1;stroke-width:2.8;stroke-linecap:butt;stroke-linejoin:round;stroke:#1e1e1e;stroke-opacity:1;stroke-miterlimit:4" transform="matrix(.01234 -.00335 .00527 .01994 4.273 1.188)"/><path d="M10.793 4.777s.062-.02.059-.062c0-.043-.028-.094-.028-.094s.043.043.047.09q0 .053-.023.07a.06.06 0 0 1-.055-.004" style="stroke:none;fill-rule:evenodd;fill:#a3afb8;fill-opacity:1"/><path d="M430.514 247.38c.114 3.49-2.804 6.476-6.286 6.43-3.706.185-6.492-2.892-6.606-6.383.183-3.536 2.804-6.475 6.583-6.476 3.481.046 6.491 2.893 6.309 6.43" style="fill-rule:nonzero;fill:#eee;fill-opacity:1;stroke-width:2.8;stroke-linecap:butt;stroke-linejoin:round;stroke:#1e1e1e;stroke-opacity:1;stroke-miterlimit:4" transform="matrix(.0124 .0031 -.00488 .02004 10.156 -1.591)"/><path d="M14.152 4.742s.067.016.082-.027c.02-.04.02-.098.02-.098s.02.063 0 .102-.031.05-.055.05a.05.05 0 0 1-.047-.027" style="stroke:none;fill-rule:evenodd;fill:#a3afb8;fill-opacity:1"/><path d="m316.7 53.783.3 5.724s-6.8.592-7 1.184c-1.4 2.96 1.5 7.006 1.5 7.006s2.3-1.776 8-1.776c5.5 0 8.3 1.382 8.3 1.382s1.4-2.27 1.4-4.046c0-1.678-.6-3.356-.6-3.356l-3.6-.394h-2.5l-.2-5.823Zm0 0" style="fill-rule:evenodd;fill:#b3a192;fill-opacity:1;stroke-width:1.2;stroke-linecap:butt;stroke-linejoin:miter;stroke:#000;stroke-opacity:1;stroke-miterlimit:4" transform="scale(.03906 .03958)"/><path d="M326.4 62.566c-.1.79-.5 1.184-1.2 1.283-.8-.099-1.2-.494-1.3-1.185q.15-1.035 1.2-1.184c.7.099 1.2.494 1.3 1.086m2.7.69c0 .691-.4 1.086-1.2 1.283-1.2.198-1.3-.592-1.3-1.282.1-.691.5-1.086 1.3-1.185q1.2 0 1.2 1.185m-5.5-.691c-.1.69-.5 1.085-1.2 1.283-.7-.198-1.1-.592-1.2-1.283 0-.79.4-1.184 1.1-1.184.7.098 1.2.493 1.3 1.184m-5.6 0c-.1.79-.5 1.283-1.3 1.381-.7-.098-1.1-.493-1.2-1.283q-.15-1.035 1.2-1.184c1.2-.098 1.3.494 1.3 1.184m-3.1.198c-.1.69-.5 1.085-1.3 1.283-.7 0-1.1-.494-1.2-1.283-.1-1.184.5-1.184 1.2-1.184s1.3.493 1.3 1.184m5.7-3.454c-.1.69-.4.987-1 .987-.3.098-.6 0-.8-.198-.3-.197-.4-.493-.4-.79.1-.69.4-.986 1.1-.986s1 .296 1 .987m0-4.737c0 .592-.3.987-1 .987-.6 0-1-.395-1-.987s.3-.987 1-.987c1 0 1 .395 1 .987m0 2.566c0 .592-.3.987-1 .987-1 0-1-.395-1-.987s.3-.987 1-1.086c1-.098 1 .494 1 1.086m-8.8 6.414c0 .79-.4 1.185-1.2 1.283-.7 0-1.1-.395-1.2-1.283 0-.592.4-.987 1.2-1.085 1.2-.099 1.2.493 1.2 1.085" style="fill-rule:nonzero;fill:#f0ddcb;fill-opacity:1;stroke-width:.6;stroke-linecap:butt;stroke-linejoin:round;stroke:#121116;stroke-opacity:1;stroke-miterlimit:4" transform="scale(.03906 .03958)"/><path d="M320.9 62.368c-.1.79-.5 1.185-1.4 1.185-.7.098-1.2-.494-1.3-1.185.1-.79.5-1.184 1.3-1.282.8.098 1.2.493 1.3 1.282" style="fill-rule:nonzero;fill:#916c68;fill-opacity:1;stroke-width:.6;stroke-linecap:butt;stroke-linejoin:round;stroke:#4d3126;stroke-opacity:1;stroke-miterlimit:4" transform="scale(.03906 .03958)"/><path d="M322 45.493c0 1.382-1.1 2.468-2.4 2.468-1.4 0-2.5-1.086-2.5-2.468 0-.69.2-1.381.7-1.875.5-.394 1.1-.69 1.8-.69 1.4 0 2.5 1.085 2.5 2.467" style="fill-rule:nonzero;fill:#eee;fill-opacity:1;stroke-width:1.2;stroke-linecap:butt;stroke-linejoin:round;stroke:#1e1e1e;stroke-opacity:1;stroke-miterlimit:4" transform="scale(.03906 .03958)"/><path d="M12.438 1.852s.078 0 .085-.04c.008-.027-.003-.07-.003-.07s.039.04.027.074q-.017.041-.047.047a.06.06 0 0 1-.062-.011" style="stroke:none;fill-rule:evenodd;fill:#a3afb8;fill-opacity:1"/><path d="M280 130.066s2.2 2.17 2.8 4.046c.6 1.875 1.5 6.81 1.5 6.81s23.2-6.514 34.6-6.02c11.4.493 37.7 6.315 37.7 6.315l1-5.724c.5-2.96 2.7-6.315 2.7-6.315s-25.1-7.796-41-7.007c-9.2.099-18.4 1.283-27.3 3.553Zm0 0" style="fill-rule:evenodd;fill:#fc0;fill-opacity:1;stroke-width:.5;stroke-linecap:butt;stroke-linejoin:miter;stroke:#000;stroke-opacity:1;stroke-miterlimit:4" transform="scale(.03906 .03958)"/><path d="M314.7 36.02h10s-2.5 1.677-3 3.355c-.4 1.382-.3 3.75-.3 3.75s2.7 0 4-.987l3.7-2.96v12.73s-2.5-2.27-4-3.06c-1.1-.591-2.3-1.085-3.5-1.38 0 0 0 2.071.8 3.354s4.3 5.823 4.3 5.823l-14.3.493s3.4-3.552 4.8-6.118c.9-1.678.5-3.553.5-3.553s-2.4 0-3.6.888c-1.2.987-3.4 3.356-3.4 3.356V39.474s1 2.467 3 3.355 3.8.395 3.8.395.4-2.467-.4-4.046c-.8-1.48-2.6-3.158-2.4-3.06Zm0 0" style="fill-rule:evenodd;fill:#fc0;fill-opacity:1;stroke-width:1.2;stroke-linecap:butt;stroke-linejoin:miter;stroke:#000;stroke-opacity:1;stroke-miterlimit:4" transform="scale(.03906 .03958)"/><path d="M313.9 76.48s-7.1-.098-13.2-3.651c-6.1-3.651-12.3-7.401-21.3-5.329-1.8.493-8.6 3.454-11.6 13.224-1.6 6.315-.7 12.927 2.4 18.651 1.6 2.664 3.5 5.132 5.6 7.401l3.7-2.467s-9.3-7.993-8.2-18.256c1-10.264 6.2-12.632 6.2-12.632s6.4-5.033 14.9-.296c7.9 4.243 16.4 7.204 25.3 8.684.6-.098-4-5.427-3.8-5.329Zm0 0" style="fill-rule:evenodd;fill:#fc0;fill-opacity:1;stroke-width:1.2;stroke-linecap:butt;stroke-linejoin:miter;stroke:#121116;stroke-opacity:1;stroke-miterlimit:4" transform="scale(.03906 .03958)"/><path d="m274.5 114.967-3.8-7.401 11.4-4.342s-2.8 3.552-3.4 6.217c-.8 3.158-.5 5.822-.5 5.822s1-.79 2.3-2.862c1-1.48 2.6-7.302 2.6-7.302l5.1 16.283s-2.6-2.566-4.5-2.862c-2-.395-4.6.296-4.6.296l-3 .987Zm0 0" style="fill-rule:evenodd;fill:#fc0;fill-opacity:1;stroke-width:1.2;stroke-linecap:butt;stroke-linejoin:miter;stroke:#000;stroke-opacity:1;stroke-miterlimit:4" transform="scale(.03906 .03958)"/><path d="M326.7 76.283s7.1 0 13.2-3.651c6.1-3.652 12.2-7.303 21.3-5.23 1.8.394 8.6 3.355 11.6 13.124 1.5 6.316.6 12.928-2.5 18.652l-3.6 5.92-4.4-1.578s8.1-7.303 7-17.665c-1.1-10.263-6.2-12.631-6.2-12.631s-6.4-5.033-14.9-.198c-8.5 4.737-16.8 6.81-16.8 6.81s-7.8 1.973-8.5 1.776c-.7 0 4-5.428 3.8-5.33Zm0 0" style="fill-rule:evenodd;fill:#fc0;fill-opacity:1;stroke-width:1.2;stroke-linecap:butt;stroke-linejoin:miter;stroke:#121116;stroke-opacity:1;stroke-miterlimit:4" transform="scale(.03906 .03958)"/><path d="M323 69.276h3v27.73h-3Zm-10-.197h3.5v27.73H313Zm0 0" style="fill-rule:nonzero;fill:#fc0;fill-opacity:1;stroke-width:1.2;stroke-linecap:butt;stroke-linejoin:round;stroke:#121116;stroke-opacity:1;stroke-miterlimit:4" transform="scale(.03906 .03958)"/><path d="M329.2 62.664c0 5.033-4.3 9.08-9.7 9.08s-9.7-4.047-9.7-9.08c0-4.934 4.3-8.881 9.6-8.881 5.4 0 9.8 4.046 9.8 8.881" style="fill-rule:nonzero;fill:#fc0;fill-opacity:1;stroke-width:1.2;stroke-linecap:butt;stroke-linejoin:round;stroke:#121116;stroke-opacity:1;stroke-miterlimit:4" transform="scale(.03906 .03958)"/><path d="m310.9 96.81 16.7-.198s-2 1.184-3.7 4.145c-1.6 3.059-1.4 4.835-1.4 4.835s2.5 0 4.3-1.283c1.4-1.085 2.7-2.368 3.8-3.75v15.296s-1.3-1.973-3.3-2.96c-2-1.283-4.8-1.283-4.8-1.283h-5.7s-2.6.197-3.7.987c-1.3.987-2.6 2.072-3.7 3.158l-.3-14.606s.8 2.665 3.5 3.652c2.7.986 4.2.986 4.2.986s0-3.355-1.4-5.032c-1.4-1.382-2.9-2.764-4.5-3.948Zm0 0" style="fill-rule:evenodd;fill:#fc0;fill-opacity:1;stroke-width:1;stroke-linecap:butt;stroke-linejoin:miter;stroke:#000;stroke-opacity:1;stroke-miterlimit:4" transform="scale(.03906 .03958)"/><path d="M320.2 108.849s2.4 5.625 5.3 8.19c1.6 1.48 6.6 2.566 8.8 1.974 5-1.283 8.6-5.329 8.6-5.329s-.2 4.441 3 6.908c3 2.369 5.7 3.06 8.2 2.27 2.7-.69 10-6.119 10-6.119l1.6 1.283s-4.3 4.145-8.7 6.316c-2.3 1.184-9.3.494-11.5-1.381-2.3-1.777-3.6-6.02-3.6-6.02s-1.4 2.763-4.4 3.75-7 .987-10.9-.198c-2.5-.79-5.9-4.342-6.5-5.526-.6-1.085-.4-1.776-.4-1.776s-2 5.427-5.8 6.908c-3.7 1.283-7.7 1.48-11.5.394-3.6-.986-3.9-3.059-3.9-3.059s-.2 5.625-8 7.303c-8 1.579-14.2-4.145-14.2-4.145l1.1-1.678s4.4 5.033 11.2 4.54c6.8-.395 9-9.178 9-9.178s3 4.54 11 4.638c8 .1 10.2-10.361 10.2-10.361Zm0 0" style="fill-rule:evenodd;fill:#f6ca1f;fill-opacity:1;stroke-width:.9;stroke-linecap:butt;stroke-linejoin:miter;stroke:#000;stroke-opacity:1;stroke-miterlimit:4" transform="scale(.03906 .03958)"/><path d="M300.6 112.105s0-2.664.7-3.651c.8-1.086 2-1.184 2.6-.987s1.4.79 1.3 2.862c-.1 1.974-.7 2.763 0 3.553.5.69.6 1.184 1.7.986 1.1 0 1.5-.493 1.3-1.48-.3-1.381-.5 0-.7-.79-.2-.789 1-4.637.8-6.907-.2-2.171-1-3.948-2.8-4.54-1.5-.493-3-.296-4.5.79-1.4.987-3.3 4.44-3.3 4.44v7.5l3-.197v-1.579Zm0 0" style="fill-rule:evenodd;fill:#fc0;fill-opacity:1;stroke-width:1.1;stroke-linecap:butt;stroke-linejoin:miter;stroke:#000;stroke-opacity:1;stroke-miterlimit:4" transform="scale(.03906 .03958)"/><path d="M295 114.079s-1.2-2.467-2-2.96c-.9-.494-1.9-.494-2.8 0-.6.493-1 1.381-.1 3.059.9 1.677 1.7 2.467 1.4 3.355-.2.888 0 1.381-1.1 1.678s-1.7 0-1.9-.987.6 0 .4-.987c-.1-.79-2.8-3.75-3.5-5.921-.8-2.171-.5-3.948.8-5.23 1.2-1.086 2.6-1.48 4.3-1.185 1.8.395 4.9 2.862 4.9 2.862l3 6.81-2.8.986Zm0 0" style="fill-rule:evenodd;fill:#fc0;fill-opacity:1;stroke-width:1.1;stroke-linecap:butt;stroke-linejoin:miter;stroke:#000;stroke-opacity:1;stroke-miterlimit:4" transform="scale(.03906 .03958)"/><path d="M294.4 92.072s-3 5.033-2.3 8.783c.7 3.849 4.6 12.04 4.6 12.04v.987l2.2-.198-.5-1.085s1-9.77.4-12.928c-1.1-2.664-2.6-5.23-4.4-7.599Zm4.7 22.698s1.5 1.776 3.2 2.664c2 .888 2.8.987 3.5.296.6-.394.4-2.27-.3-2.763s-1.4-.197-1.5.296c-.1.79-.5.888-1 .395-1-.395-3-1.678-3-1.678Zm-2.3.394s-.6 2.27-1.8 3.75c-1.4 1.58-2.1 1.974-3 1.678-.7-.099-1.3-1.776-.9-2.566.4-.69 1.2-.79 1.5-.394.4.592.8.592 1.1 0l2-2.764Zm0 0" style="fill-rule:evenodd;fill:#fc0;fill-opacity:1;stroke-width:1.1;stroke-linecap:butt;stroke-linejoin:miter;stroke:#000;stroke-opacity:1;stroke-miterlimit:4" transform="scale(.03906 .03958)"/><path d="M302.4 113.388c.2.592-1.8 1.48-4.3 1.875s-4.6.296-4.8-.395c0-.592 1.9-1.48 4.4-1.973s4.6-.198 4.7.493" style="fill-rule:nonzero;fill:#fc0;fill-opacity:1;stroke-width:1.1;stroke-linecap:butt;stroke-linejoin:round;stroke:#000;stroke-opacity:1;stroke-miterlimit:4" transform="scale(.03906 .03958)"/><path d="M345.6 113.19s1-2.466 2-3.058c1.1-.79 2.2-.494 2.7 0 .6.296 1 1.184.3 2.96-.8 1.678-1.6 2.369-1.4 3.355.3.987.2 1.382 1.3 1.58 1.1.295 1.7 0 1.8-.988.1-1.085-.5 0-.4-1.085 0-.79 2.6-3.849 3.2-5.921.7-2.369.3-4.145-1-5.33q-1.95-1.627-4.5-.887c-1.7.493-4.7 3.059-4.7 3.059l-2.6 7.007 2.9.888Zm0 0" style="fill-rule:evenodd;fill:#fc0;fill-opacity:1;stroke-width:1.1;stroke-linecap:butt;stroke-linejoin:miter;stroke:#000;stroke-opacity:1;stroke-miterlimit:4" transform="scale(.03906 .03958)"/><path d="M339.7 113.092s-.2-2.664-.9-3.454c-.9-1.184-2-1.184-2.6-1.085-.7.394-1.4 1.085-1.2 2.96.2 1.974.8 2.763.3 3.553s-.6 1.283-1.7 1.085c-1.1 0-1.6-.394-1.5-1.381.2-.987.6 0 .8-.888.1-.79-1.3-4.441-1.2-6.81 0-2.17.8-3.947 2.5-4.54 1.5-.69 3-.493 4.5.494s3.6 4.244 3.6 4.244l.4 7.401h-3Zm0 0" style="fill-rule:evenodd;fill:#fc0;fill-opacity:1;stroke-width:1.1;stroke-linecap:butt;stroke-linejoin:miter;stroke:#000;stroke-opacity:1;stroke-miterlimit:4" transform="scale(.03906 .03958)"/><path d="M346.8 92.27s-4.5 3.651-5.2 7.401c-.7 3.849.1 12.829.1 12.829l-.3.987 2 .592v-1.184s4.4-8.783 4.9-12.04q-.15-4.292-1.5-8.585Zm-3.5 22.894s.8 2.172 2.1 3.553c1.5 1.58 2.2 1.875 3.1 1.58.7-.198 1.1-1.975.7-2.567s-1.2-.69-1.5-.296c-.4.592-.8.592-1.1 0l-2.2-2.664Zm-2.3-.493s-1.3 1.974-3 2.862c-1.9 1.085-2.7 1.184-3.5.592-.6-.296-.5-2.171.1-2.763.8-.395 1.3-.296 1.6.197.2.691.5.888 1 .395l2.8-1.974Zm0 0" style="fill-rule:evenodd;fill:#fc0;fill-opacity:1;stroke-width:1.1;stroke-linecap:butt;stroke-linejoin:miter;stroke:#000;stroke-opacity:1;stroke-miterlimit:4" transform="scale(.03906 .03958)"/><path d="M346.9 114.967c-.1.69-2.3.79-4.8.296-2.5-.493-4.4-1.381-4.3-1.974.1-.592 2.3-.789 4.8-.296s4.4 1.382 4.3 1.974" style="fill-rule:nonzero;fill:#fc0;fill-opacity:1;stroke-width:1.1;stroke-linecap:butt;stroke-linejoin:round;stroke:#000;stroke-opacity:1;stroke-miterlimit:4" transform="scale(.03906 .03958)"/><path d="M279 129.868s.6 2.073 1.7.987c1.2-1.085 17.3-7.5 40-7.5s37.5 6.316 38.4 6.71c.9.297 1.3.79 2 0 .8-.986-.7-2.269-.7-2.269s-15.8-6.71-40.4-6.612c-24.7.099-40.6 7.105-40.6 7.105s-1 .79-.3 1.58Zm0 0" style="fill-rule:evenodd;fill:#cca715;fill-opacity:1;stroke-width:.5;stroke-linecap:butt;stroke-linejoin:miter;stroke:#000;stroke-opacity:1;stroke-miterlimit:4" transform="scale(.03906 .03958)"/><path d="M12.027 5.516s.028-.082.078-.098c.04-.012.098.027.098.027s-.074-.008-.098.008c-.02.012-.027.05-.027.05s.016-.034.074-.03h.063s-.098.011-.117.043c-.02.027.09.039.09.039s-.176 0-.196-.008-.039-.047-.078-.04c-.039.016-.078.052-.078.052s.043-.082.07-.082.047 0 .07.011Zm-.656.14s.012-.078.059-.105c.039-.02.105.008.105.008s-.078.007-.098.023c-.019.016-.015.055-.015.055s.012-.032.066-.04l.063-.011s-.094.027-.11.059c-.02.03.098.023.098.023s-.172.031-.195.027c-.028-.008-.047-.039-.082-.02-.035.02-.07.06-.07.06s.03-.083.058-.09a.1.1 0 0 1 .07 0Zm1.207-.172s.031-.078.078-.09.106.032.106.032-.078-.012-.102 0c-.02.011-.027.047-.027.047s.015-.028.074-.02l.063.004s-.098 0-.122.031c-.023.028.09.047.09.047s-.175-.008-.195-.02c-.02-.011-.04-.05-.078-.042-.04.007-.078.043-.078.043s.047-.075.074-.075.043 0 .07.016Zm.55.067s.04-.078.095-.082c.039-.008.093.043.093.043s-.07-.016-.097-.008c-.028.008-.035.039-.035.039s.02-.023.078-.012l.062.016s-.097-.008-.125.016c-.027.023.082.054.082.054s-.172-.031-.195-.043c-.016-.015-.027-.054-.066-.05a.3.3 0 0 0-.086.03s.058-.066.086-.058c.027 0 .046.004.066.02Zm.548.097s.039-.054.082-.058c.035 0 .074.043.074.043s-.059-.02-.078-.016-.031.031-.031.031.02-.02.062-.003l.05.015s-.077-.015-.1 0c-.024.016.062.055.062.055s-.137-.04-.156-.05c-.012-.013-.016-.044-.047-.044a.2.2 0 0 0-.074.02s.05-.051.074-.043q.029 0 .05.02Zm0 0" style="stroke:none;fill-rule:evenodd;fill:#000;fill-opacity:1"/><path d="M305 129.671c.4 1.776-1.6 3.553-4.4 4.046s-5.3-.296-5.6-1.974c-.3-1.776 1.6-3.454 4.4-4.046s5.3.296 5.6 1.974Zm0 0" style="fill-rule:nonzero;fill:#0f6545;fill-opacity:1;stroke-width:.7;stroke-linecap:butt;stroke-linejoin:round;stroke:#000;stroke-opacity:1;stroke-miterlimit:4" transform="scale(.03906 .03958)"/><path d="M11.672 5.121q.001.028-.04.04-.04.003-.05-.02c0-.016.012-.032.04-.04q.038.001.05.02" style="stroke:none;fill-rule:nonzero;fill:#cecfc1;fill-opacity:1"/><path d="M344.1 131.842c-.5 1.58-3 2.171-5.8 1.382-2.8-.79-4.4-2.96-4-4.54.6-1.579 3.2-2.27 5.9-1.381 2.7.888 4.5 2.763 4 4.44Zm0 0" style="fill-rule:nonzero;fill:#0f6545;fill-opacity:1;stroke-width:.7;stroke-linecap:butt;stroke-linejoin:round;stroke:#000;stroke-opacity:1;stroke-miterlimit:4" transform="scale(.03906 .03958)"/><path d="M13.234 5.086q-.01.028-.05.016-.042-.017-.036-.04.011-.027.051-.019.042.016.035.039Zm0 0" style="stroke:none;fill-rule:nonzero;fill:#cecfc1;fill-opacity:1"/><path d="M314.6 126.02h10.1v4.934h-10.1Zm0 0" style="fill-rule:nonzero;fill:#1f2d86;fill-opacity:1;stroke-width:1;stroke-linecap:butt;stroke-linejoin:round;stroke:#000;stroke-opacity:1;stroke-miterlimit:4" transform="scale(.03906 .03958)"/><path d="M12.457 5.027q0 .019-.039.02c-.04 0-.04-.008-.04-.02q.007-.016.04-.015.046 0 .039.015" style="stroke:none;fill-rule:nonzero;fill:#707c8b;fill-opacity:1"/><path d="m286 130.954 1.6 5.033-3 1.677s-1.5.987-3 .198c-1.4-.69-2.2-2.96-1.4-3.948 1.5-1.776 5.7-3.059 5.7-2.96Zm0 0" style="fill-rule:evenodd;fill:#9f1209;fill-opacity:1;stroke-width:.5;stroke-linecap:butt;stroke-linejoin:miter;stroke:#000;stroke-opacity:1;stroke-miterlimit:4" transform="scale(.03906 .03958)"/><path d="M11.07 5.328q-.006.053-.058.059c-.055.008-.055-.028-.055-.059q.004-.058.055-.058c.05-.004.058.023.058.058" style="stroke:none;fill-rule:nonzero;fill:#8f322f;fill-opacity:1"/><path d="m11.016 5.305-.008.027h-.02l-.015-.02.007-.027.02-.004q.017 0 .016.024" style="stroke:none;fill-rule:nonzero;fill:#e2a494;fill-opacity:1"/><path d="m353.9 131.743-1.7 4.343 4 1.973s1.7.888 2.8-.098c1.1-.889 1.2-2.764.4-3.652s-5.6-2.566-5.5-2.566Zm0 0" style="fill-rule:evenodd;fill:#9f1209;fill-opacity:1;stroke-width:.5;stroke-linecap:butt;stroke-linejoin:miter;stroke:#000;stroke-opacity:1;stroke-miterlimit:4" transform="scale(.03906 .03958)"/><path d="M14.008 5.352q-.005.04-.051.039c-.047 0-.047-.016-.047-.04 0-.023.024-.038.047-.038q.046.004.05.039" style="stroke:none;fill-rule:nonzero;fill:#aa675d;fill-opacity:1"/><path d="M13.96 5.344c0 .011-.003.023-.01.027h-.024l-.012-.023q0-.018.012-.024h.023q.012 0 .012.024Zm0 0" style="stroke:none;fill-rule:nonzero;fill:#e2a494;fill-opacity:1"/><path d="M12.836 5.004q-.007.022-.031.027a.05.05 0 0 1-.028-.027c.004-.016.016-.024.028-.027.02 0 .027.007.03.027m.169.008a.05.05 0 0 1-.027.027q-.025-.005-.032-.027a.034.034 0 0 1 .032-.024q.022 0 .027.024m-.086.066q.001.035-.04.035c-.038.004-.03-.015-.03-.035s.015-.035.035-.035.035.016.035.039Zm.078.11a.05.05 0 0 1-.023.03.04.04 0 0 1-.032-.03.05.05 0 0 1 .028-.028c.02 0 .031.012.031.027Zm-.16-.02a.05.05 0 0 1-.027.031.05.05 0 0 1-.028-.031.05.05 0 0 1 .028-.027q.022.002.027.027m-.816-.137q-.001.019-.02.032a.04.04 0 0 1-.035-.02c0-.016.012-.027.023-.031q.019.001.032.02m.168-.028c0 .012-.012.027-.024.031q-.019-.001-.031-.02c0-.011.008-.027.02-.03q.023 0 .034.019m-.07.082c0 .023-.008.039-.023.039q-.03.006-.043-.023c-.004-.016.008-.04.027-.04q.025 0 .04.024m.105.09a.04.04 0 0 1-.02.035q-.023 0-.035-.024.001-.018.02-.03.023 0 .035.019m-.164.015a.04.04 0 0 1-.02.036.04.04 0 0 1-.035-.02c0-.016.012-.027.023-.035a.1.1 0 0 1 .032.02m-.75-.008c.004.015-.004.03-.016.043a.06.06 0 0 1-.035-.016c-.004-.016.004-.031.015-.043.016 0 .032.004.04.016Zm.16-.051a.04.04 0 0 1-.016.039q-.023.005-.035-.02c0-.011.004-.027.016-.035q.024-.001.039.016Zm-.055.097c.004.016-.004.032-.02.04a.04.04 0 0 1-.042-.016q-.006-.03.02-.043a.04.04 0 0 1 .042.02m.117.07a.04.04 0 0 1-.015.039q-.023-.001-.04-.02c-.015-.02.004-.027.02-.035.012-.004.027.004.035.016m-.16.039a.04.04 0 0 1-.016.039.04.04 0 0 1-.039-.016.03.03 0 0 1 0-.023c.004-.008.012-.016.02-.016a.04.04 0 0 1 .039.016Zm2.195-.23c-.004.015-.02.023-.039.019-.015-.008-.023-.024-.02-.04.005-.01.016-.019.04-.015q.024.006.02.035m.171.051q-.006.03-.035.024-.023-.008-.023-.04c.004-.015.02-.019.039-.019q.024.011.02.04Zm-.105.05c-.004.017-.024.028-.043.028a.04.04 0 0 1-.031-.047c.004-.02.027-.03.046-.027.02.008.032.024.028.047m.058.137c-.004.015-.02.023-.039.02a.04.04 0 0 1-.02-.036q.007-.024.036-.02c.02.004.027.02.023.04Zm-.168-.063q-.005.025-.035.02a.05.05 0 0 1-.02-.035q.007-.025.036-.02.024.006.02.035" style="stroke:none;fill-rule:nonzero;fill:#f5d8bc;fill-opacity:1"/><path d="M356 89.013s-2 1.875-4.5 1.875c-1.7 0-3.3-.493-4.6-1.579-.8-.493.2-1.973.2-1.973" style="fill:none;stroke-width:1.2;stroke-linecap:butt;stroke-linejoin:miter;stroke:#000;stroke-opacity:1;stroke-miterlimit:4" transform="scale(.03906 .03958)"/><path d="M312.9 92.763s-3.7-.69-5.3-1.184c-1.6-.493-1.1-1.48-3-1.382-1.7.1-3.5 1.382-3.1 3.158.4 1.875 1.7 2.073 3 1.777 1.2-.395.8-2.665-.8-2.468-1.7 0-.3 1.58-.3 1.58" style="fill:none;stroke-width:1.1;stroke-linecap:butt;stroke-linejoin:miter;stroke:#000;stroke-opacity:1;stroke-miterlimit:4" transform="scale(.03906 .03958)"/><path d="M287.3 90s1 1.48 3.7 1.184c2.7-.197 3.7-1.579 3.8-2.27.2-.592 0-1.776-.5-2.27-.5-.591-2.3-.789-2.3-.789" style="fill:none;stroke-width:1;stroke-linecap:butt;stroke-linejoin:miter;stroke:#000;stroke-opacity:1;stroke-miterlimit:4" transform="scale(.03906 .03958)"/><path d="M339.2 270.395c2.5-2.467 6.5-5.23 8.7-10.954 2-5.625 3-15.79 5-20.823 2.5-8.782 7.5-17.467 1.5-16.776-5.7.592-7.5 5.921-9.6 9.967-1 1.48-3.3 4.737-3.7 6.513-.1-3.059-1.7-11.94-2-20.822-.3-8.388 0-16.974-.3-20.329-.2-4.243-.2-8.29-1.2-11.349-.5-1.48-2.6-3.059-3.8-2.96-2.2 0-3.6 2.072-4 3.947l-.2 2.763c-.2 2.467 0 5.527-.2 8.29-.1 3.06.2 6.217 0 9.079-.2 5.329-.6 10.46-.8 11.447 0-1.974-1-11.645-1.3-20.92l-.2-9.968c0-2.566 0-5.428-.2-7.401-.4-3.356-1.7-5.033-4-5.033-1.8 0-4.2 1.381-5 5.033q-.45 3.256-.3 7.401l.2 7.993c-.2 10.46-.4 21.514-.8 24.77 0-.987-1.1-6.414-1.4-13.816l-.4-9.67-.3-9.573c0-1.579-.7-6.217-3.7-6.02-1.7-.197-3.4.987-4 5.33-.4 2.466-.4 6.611-.5 9.868-.1 6.02-.4 11.447 0 16.875l.1 7.697c0 .493-.9-2.862-1.3-7.401l-.8-8.586c0-2.27-.1-5.625-.3-8.487-.2-2.072-.1-4.44-2.5-4.243-2.4.099-3.8.987-4.3 4.934-.4 2.763-.4 8.487-.5 10.56.2 5.23-1.2 17.664-1.8 21.216-.2 2.467-1.2 5.625-1.6 9.178-.7 6.81-.3 13.816 1 20.526 2 7.007 7 10.263 6.8 15-.2 4.836 0 13.323 0 17.073s3.3 3.947 10 2.565c11.2-2.368 17.3 2.369 26.4-1.184-1.1-10.362 1.1-16.677 1-20.526Zm-6.5-24.671c2.3-6.415 5.2-8.882 8-10.263" style="fill-rule:nonzero;fill:#c00;fill-opacity:1;stroke-width:1.6;stroke-linecap:butt;stroke-linejoin:miter;stroke:#161111;stroke-opacity:1;stroke-miterlimit:4" transform="scale(.03906 .03958)"/><path d="M307.4 239.21c3.5-1.381 7-2.565 10.6-3.65 4.3-1.185 8.5-2.961 13-3.553 2-.593 4.1-.987 6.4-.987m-36.1 41.94c.4-.296 1 .198 1.4.297.7.296 1.3.394 2 .296h4c1.7.098 3.1-.198 4.3-.987m10 .592 1.6.987c.8.296 1.8.394 7.3 0 3.5.197 6.5-2.862 7.4-3.652" style="fill:none;stroke-width:1.6;stroke-linecap:butt;stroke-linejoin:miter;stroke:#161111;stroke-opacity:1;stroke-miterlimit:4" transform="scale(.03906 .03958)"/></svg>