<?xml version="1.0" encoding="UTF-8"?>
<svg xmlns="http://www.w3.org/2000/svg" xmlns:xlink="http://www.w3.org/1999/xlink" width="25px" height="19px" viewBox="0 0 25 19" version="1.1">
<g id="surface1">
<rect x="0" y="0" width="25" height="19" style="fill:rgb(100%,100%,100%);fill-opacity:1;stroke:none;"/>
<path style=" stroke:none;fill-rule:evenodd;fill:rgb(80.000001%,0%,0%);fill-opacity:1;" d="M 0 7.601562 L 25 7.601562 L 25 11.398438 L 0 11.398438 Z M 0 7.601562 "/>
<path style=" stroke:none;fill-rule:evenodd;fill:rgb(80.000001%,0%,0%);fill-opacity:1;" d="M 14.375 0 L 14.375 19 L 10.625 19 L 10.625 0 Z M 14.375 0 "/>
<path style="fill-rule:evenodd;fill:rgb(92.156863%,91.764706%,89.019608%);fill-opacity:1;stroke-width:0.5;stroke-linecap:butt;stroke-linejoin:miter;stroke:rgb(0%,0%,0%);stroke-opacity:1;stroke-miterlimit:4;" d="M 355.2 146.644737 C 358.2 141.809211 356.4 138.552632 351.8 137.664474 C 351.8 137.664474 336.9 142.5 320.8 142.993421 C 304.8 143.486842 285.8 139.046053 285.8 139.046053 C 282.3 141.118421 283.1 146.151316 284.8 149.407895 C 284.8 149.407895 301.6 155.032895 320.8 154.440789 C 331 153.947368 341.2 152.072368 350.9 148.914474 C 354.6 147.730263 355.2 146.743421 355.2 146.644737 Z M 355.2 146.644737 " transform="matrix(0.0390625,0,0,0.0395833,0,0)"/>
<path style="fill-rule:nonzero;fill:rgb(100%,100%,100%);fill-opacity:1;stroke-width:1.6;stroke-linecap:butt;stroke-linejoin:miter;stroke:rgb(8.627451%,6.666667%,6.666667%);stroke-opacity:1;stroke-miterlimit:4;" d="M 320 357.631579 L 289.1 293.388158 L 218.2 298.815789 L 258.2 240 L 218.2 181.184211 L 289.2 186.611842 L 320 122.467105 L 350.9 186.513158 L 421.8 181.184211 L 381.8 240 L 421.8 298.815789 L 350.8 293.388158 Z M 320 357.631579 " transform="matrix(0.0390625,0,0,0.0395833,0,0)"/>
<path style="fill-rule:evenodd;fill:rgb(69.01961%,13.725491%,12.54902%);fill-opacity:1;stroke-width:1.3;stroke-linecap:butt;stroke-linejoin:miter;stroke:rgb(0%,0%,0%);stroke-opacity:1;stroke-miterlimit:4;" d="M 319.5 122.171053 C 358.3 128.585526 356.9 130.361842 356.9 130.361842 L 367 100.164474 C 367 100.164474 368.1 94.243421 365.3 90.592105 C 362.5 87.039474 354.8 89.013158 354.8 89.013158 C 354.8 89.013158 353.8 84.078947 350.3 82.993421 C 346.9 81.809211 334.3 87.532895 330.3 88.815789 C 326.3 90.098684 324.3 91.282895 318.8 91.184211 C 313.3 91.184211 303.4 86.151316 301.5 85.164474 C 299.8 84.276316 297.1 83.388158 294.6 83.486842 C 292.2 83.486842 289.6 84.177632 288.3 85.855263 C 287 87.631579 287.1 89.802632 287.1 89.802632 C 287.1 89.802632 285.1 88.519737 281.9 88.519737 C 278.7 88.519737 276.9 88.914474 275.4 90.592105 C 273.9 92.269737 272 97.105263 272 97.105263 L 275.6 105.296053 L 275.8 116.644737 L 283.3 128.585526 Z M 319.5 122.171053 " transform="matrix(0.0390625,0,0,0.0395833,0,0)"/>
<path style="fill-rule:evenodd;fill:rgb(92.156863%,91.764706%,89.019608%);fill-opacity:1;stroke-width:0.5;stroke-linecap:butt;stroke-linejoin:miter;stroke:rgb(0%,0%,0%);stroke-opacity:1;stroke-miterlimit:4;" d="M 355.7 139.342105 C 355.7 139.342105 357.7 141.611842 357.6 142.5 C 357.5 143.289474 356.6 143.980263 356.6 143.980263 C 356.6 143.980263 357.3 144.572368 357.1 145.460526 C 356.9 146.447368 355.7 146.546053 355.7 146.546053 C 355.7 146.546053 356 147.335526 355.2 147.730263 C 354.5 148.125 351.4 148.717105 351.4 148.717105 C 351.4 148.717105 336.4 144.473684 320.4 144.473684 C 304.4 144.473684 285.4 149.703947 285.4 149.703947 C 285.4 149.703947 283.4 149.013158 283.4 147.730263 C 283.2 146.546053 283.5 145.559211 283.5 145.559211 C 283.5 145.559211 282.5 145.559211 282.2 144.671053 C 281.8 143.388158 282.3 142.401316 282.3 142.401316 C 282.3 142.401316 281.6 142.598684 282.4 140.921053 C 283 139.638158 283.9 139.243421 283.9 139.243421 C 283.9 139.243421 300.7 133.223684 319.9 133.125 C 339.1 133.026316 355.7 139.144737 355.7 139.342105 Z M 355.7 139.342105 " transform="matrix(0.0390625,0,0,0.0395833,0,0)"/>
<path style="fill:none;stroke-width:1.1;stroke-linecap:butt;stroke-linejoin:miter;stroke:rgb(0%,0%,0%);stroke-opacity:1;stroke-miterlimit:4;" d="M 276.2 101.546053 C 276.2 101.546053 275.6 99.276316 277 97.401316 C 278.1 95.921053 280 95.328947 281.7 96.019737 C 282.5 96.414474 282.4 97.302632 283.4 97.5 C 284.4 97.796053 285.2 97.006579 285.2 97.006579 " transform="matrix(0.0390625,0,0,0.0395833,0,0)"/>
<path style="fill-rule:evenodd;fill:rgb(100%,80.000001%,0%);fill-opacity:0.898039;stroke-width:1.2;stroke-linecap:butt;stroke-linejoin:miter;stroke:rgb(0%,0%,0%);stroke-opacity:1;stroke-miterlimit:4;" d="M 369.8 106.578947 L 364 118.618421 L 361.7 119.013158 C 361.7 119.013158 360.3 118.223684 356.3 118.519737 C 353.5 118.717105 352.6 119.506579 352.6 119.506579 L 357.8 107.467105 C 357.8 107.467105 358.2 110.032895 358.8 111.513158 C 359.6 113.486842 362.5 115.164474 362.5 115.164474 C 362.5 115.164474 362.9 112.894737 362.1 110.230263 C 361.3 107.664474 360.4 105.296053 359.3 102.927632 Z M 369.8 106.578947 " transform="matrix(0.0390625,0,0,0.0395833,0,0)"/>
<path style="fill-rule:nonzero;fill:rgb(7.058824%,6.666667%,8.627451%);fill-opacity:1;stroke-width:1.2;stroke-linecap:butt;stroke-linejoin:round;stroke:rgb(7.058824%,6.666667%,8.627451%);stroke-opacity:1;stroke-miterlimit:4;" d="M 316.5 69.177632 L 323 69.177632 L 323 96.907895 L 316.5 96.907895 Z M 316.5 69.177632 " transform="matrix(0.0390625,0,0,0.0395833,0,0)"/>
<path style="fill-rule:evenodd;fill:rgb(96.470588%,79.215688%,12.156863%);fill-opacity:1;stroke-width:1;stroke-linecap:butt;stroke-linejoin:miter;stroke:rgb(0%,0%,0%);stroke-opacity:1;stroke-miterlimit:4;" d="M 276.6 120.197368 L 280.7 129.177632 C 280.7 129.177632 298.6 122.171053 319.6 122.368421 C 351.1 122.565789 360.1 128.881579 360.1 128.881579 L 364.7 117.828947 L 361.2 119.802632 L 357.6 122.072368 L 353.6 123.552632 L 348.6 123.256579 L 344.2 120.098684 L 342 115.361842 L 338.3 118.815789 L 331.7 120.197368 L 325.3 118.618421 L 319.7 111.513158 C 319.7 111.513158 315.5 119.407895 310.1 119.901316 C 302.4 120.493421 298 116.151316 298 116.151316 C 298 116.151316 295.1 122.565789 290.4 123.651316 C 282.9 125.625 276.7 120.197368 276.6 120.197368 Z M 276.6 120.197368 " transform="matrix(0.0390625,0,0,0.0395833,0,0)"/>
<path style="fill-rule:nonzero;fill:rgb(93.333334%,93.333334%,93.333334%);fill-opacity:1;stroke-width:1.2;stroke-linecap:butt;stroke-linejoin:round;stroke:rgb(11.764706%,11.764706%,11.764706%);stroke-opacity:1;stroke-miterlimit:4;" d="M 348.4 65.723684 C 348.4 67.5 347 69.078947 345.1 69.078947 C 343.2 69.078947 341.7 67.598684 341.7 65.723684 C 341.7 64.736842 342 63.848684 342.7 63.256579 C 343.3 62.565789 344.2 62.171053 345.1 62.171053 C 346.9 62.269737 348.4 63.75 348.4 65.625 " transform="matrix(0.0390625,0,0,0.0395833,0,0)"/>
<path style=" stroke:none;fill-rule:evenodd;fill:rgb(63.921571%,68.627453%,72.156864%);fill-opacity:1;" d="M 13.417969 2.667969 C 13.417969 2.667969 13.523438 2.667969 13.535156 2.625 C 13.546875 2.582031 13.527344 2.519531 13.527344 2.519531 C 13.527344 2.519531 13.578125 2.578125 13.566406 2.621094 C 13.554688 2.65625 13.53125 2.679688 13.5 2.6875 C 13.472656 2.691406 13.445312 2.683594 13.421875 2.667969 Z M 13.417969 2.667969 "/>
<path style="fill-rule:nonzero;fill:rgb(93.333334%,93.333334%,93.333334%);fill-opacity:1;stroke-width:1.2;stroke-linecap:butt;stroke-linejoin:round;stroke:rgb(11.764706%,11.764706%,11.764706%);stroke-opacity:1;stroke-miterlimit:4;" d="M 340.3 69.473684 C 340.3 71.348684 338.8 72.927632 336.9 72.927632 C 335 72.927632 333.5 71.348684 333.5 69.473684 C 333.5 68.585526 333.8 67.697368 334.5 67.006579 C 335.2 66.315789 336.1 66.019737 337 66.019737 C 338.8 66.019737 340.3 67.5 340.4 69.276316 " transform="matrix(0.0390625,0,0,0.0395833,0,0)"/>
<path style=" stroke:none;fill-rule:evenodd;fill:rgb(63.921571%,68.627453%,72.156864%);fill-opacity:1;" d="M 13.097656 2.816406 C 13.097656 2.816406 13.207031 2.816406 13.214844 2.773438 C 13.222656 2.730469 13.207031 2.671875 13.207031 2.671875 C 13.207031 2.671875 13.257812 2.730469 13.246094 2.773438 C 13.234375 2.8125 13.210938 2.832031 13.179688 2.839844 C 13.152344 2.839844 13.125 2.835938 13.101562 2.816406 Z M 13.097656 2.816406 "/>
<path style="fill-rule:nonzero;fill:rgb(93.333334%,93.333334%,93.333334%);fill-opacity:1;stroke-width:1.2;stroke-linecap:butt;stroke-linejoin:round;stroke:rgb(11.764706%,11.764706%,11.764706%);stroke-opacity:1;stroke-miterlimit:4;" d="M 358 63.355263 C 358 65.328947 356.4 66.809211 354.6 66.809211 C 352.7 66.809211 351.2 65.230263 351.2 63.355263 C 351.2 61.578947 352.7 60.098684 354.5 60 C 356.4 60 357.9 61.480263 357.9 63.355263 " transform="matrix(0.0390625,0,0,0.0395833,0,0)"/>
<path style=" stroke:none;fill-rule:evenodd;fill:rgb(63.921571%,68.627453%,72.156864%);fill-opacity:1;" d="M 13.789062 2.582031 C 13.789062 2.582031 13.894531 2.582031 13.90625 2.535156 C 13.917969 2.484375 13.898438 2.433594 13.898438 2.433594 C 13.898438 2.433594 13.949219 2.488281 13.9375 2.535156 C 13.925781 2.574219 13.902344 2.59375 13.871094 2.597656 C 13.84375 2.601562 13.816406 2.59375 13.792969 2.582031 Z M 13.789062 2.582031 "/>
<path style="fill-rule:nonzero;fill:rgb(93.333334%,93.333334%,93.333334%);fill-opacity:1;stroke-width:1.2;stroke-linecap:butt;stroke-linejoin:round;stroke:rgb(11.764706%,11.764706%,11.764706%);stroke-opacity:1;stroke-miterlimit:4;" d="M 368.6 65.625 C 368.6 67.401316 367.1 68.980263 365.3 68.980263 C 363.4 68.980263 361.9 67.5 361.9 65.625 C 361.9 63.75 363.4 62.171053 365.3 62.171053 C 367.1 62.269737 368.5 63.651316 368.6 65.526316 " transform="matrix(0.0390625,0,0,0.0395833,0,0)"/>
<path style=" stroke:none;fill-rule:evenodd;fill:rgb(63.921571%,68.627453%,72.156864%);fill-opacity:1;" d="M 14.207031 2.664062 C 14.207031 2.664062 14.3125 2.664062 14.324219 2.621094 C 14.335938 2.578125 14.316406 2.515625 14.316406 2.515625 C 14.316406 2.515625 14.367188 2.574219 14.355469 2.621094 C 14.34375 2.65625 14.320312 2.675781 14.289062 2.683594 C 14.261719 2.6875 14.230469 2.679688 14.207031 2.664062 "/>
<path style="fill-rule:nonzero;fill:rgb(93.333334%,93.333334%,93.333334%);fill-opacity:1;stroke-width:1.2;stroke-linecap:butt;stroke-linejoin:round;stroke:rgb(11.764706%,11.764706%,11.764706%);stroke-opacity:1;stroke-miterlimit:4;" d="M 376.8 72.335526 C 376.8 74.111842 375.3 75.690789 373.4 75.690789 C 371.5 75.690789 370 74.210526 370 72.335526 C 370 70.460526 371.5 68.881579 373.4 68.881579 C 375.2 68.881579 376.7 70.361842 376.8 72.236842 " transform="matrix(0.0390625,0,0,0.0395833,0,0)"/>
<path style=" stroke:none;fill-rule:evenodd;fill:rgb(63.921571%,68.627453%,72.156864%);fill-opacity:1;" d="M 14.527344 2.929688 C 14.527344 2.929688 14.632812 2.929688 14.644531 2.886719 C 14.65625 2.84375 14.636719 2.78125 14.636719 2.78125 C 14.636719 2.78125 14.6875 2.84375 14.671875 2.886719 C 14.660156 2.921875 14.640625 2.945312 14.605469 2.949219 C 14.578125 2.953125 14.554688 2.945312 14.527344 2.929688 "/>
<path style="fill-rule:nonzero;fill:rgb(93.333334%,93.333334%,93.333334%);fill-opacity:1;stroke-width:1.2;stroke-linecap:butt;stroke-linejoin:round;stroke:rgb(11.764706%,11.764706%,11.764706%);stroke-opacity:1;stroke-miterlimit:4;" d="M 380.3 83.289474 C 380.3 85.164474 378.8 86.743421 376.9 86.743421 C 375.1 86.644737 373.6 85.164474 373.6 83.289474 C 373.6 81.414474 375.1 79.934211 376.9 79.934211 C 378.8 79.934211 380.3 81.414474 380.3 83.289474 " transform="matrix(0.0390625,0,0,0.0395833,0,0)"/>
<path style=" stroke:none;fill-rule:evenodd;fill:rgb(63.921571%,68.627453%,72.156864%);fill-opacity:1;" d="M 14.664062 3.363281 C 14.664062 3.363281 14.769531 3.363281 14.78125 3.320312 C 14.792969 3.277344 14.773438 3.21875 14.773438 3.21875 C 14.773438 3.21875 14.824219 3.277344 14.808594 3.320312 C 14.796875 3.359375 14.777344 3.378906 14.742188 3.382812 C 14.714844 3.386719 14.6875 3.378906 14.664062 3.363281 "/>
<path style="fill-rule:nonzero;fill:rgb(93.333334%,93.333334%,93.333334%);fill-opacity:1;stroke-width:1.2;stroke-linecap:butt;stroke-linejoin:round;stroke:rgb(11.764706%,11.764706%,11.764706%);stroke-opacity:1;stroke-miterlimit:4;" d="M 379 94.440789 C 379 96.414474 377.5 97.796053 375.6 97.796053 C 373.8 97.796053 372.4 96.315789 372.3 94.539474 C 372.2 92.664474 373.7 91.085526 375.6 90.986842 C 377.5 90.986842 379 92.565789 379 94.440789 " transform="matrix(0.0390625,0,0,0.0395833,0,0)"/>
<path style=" stroke:none;fill-rule:evenodd;fill:rgb(63.921571%,68.627453%,72.156864%);fill-opacity:1;" d="M 14.609375 3.808594 C 14.609375 3.808594 14.71875 3.808594 14.726562 3.761719 C 14.738281 3.722656 14.722656 3.660156 14.722656 3.660156 C 14.722656 3.660156 14.773438 3.71875 14.757812 3.761719 C 14.742188 3.804688 14.730469 3.816406 14.691406 3.824219 C 14.664062 3.828125 14.636719 3.824219 14.613281 3.808594 Z M 14.609375 3.808594 "/>
<path style="fill-rule:nonzero;fill:rgb(93.333334%,93.333334%,93.333334%);fill-opacity:1;stroke-width:1.2;stroke-linecap:butt;stroke-linejoin:round;stroke:rgb(11.764706%,11.764706%,11.764706%);stroke-opacity:1;stroke-miterlimit:4;" d="M 374 104.210526 C 374 106.085526 372.5 107.565789 370.7 107.565789 C 368.8 107.565789 367.3 106.085526 367.3 104.210526 C 367.3 102.335526 368.8 100.756579 370.7 100.756579 C 372.5 100.855263 374 102.335526 374 104.210526 " transform="matrix(0.0390625,0,0,0.0395833,0,0)"/>
<path style=" stroke:none;fill-rule:evenodd;fill:rgb(63.921571%,68.627453%,72.156864%);fill-opacity:1;" d="M 14.417969 4.195312 C 14.417969 4.195312 14.523438 4.195312 14.535156 4.148438 C 14.546875 4.109375 14.527344 4.050781 14.527344 4.050781 C 14.527344 4.050781 14.578125 4.105469 14.566406 4.148438 C 14.554688 4.1875 14.53125 4.210938 14.5 4.210938 C 14.472656 4.214844 14.445312 4.210938 14.421875 4.195312 Z M 14.417969 4.195312 "/>
<path style="fill-rule:nonzero;fill:rgb(93.333334%,93.333334%,93.333334%);fill-opacity:1;stroke-width:1.2;stroke-linecap:butt;stroke-linejoin:round;stroke:rgb(11.764706%,11.764706%,11.764706%);stroke-opacity:1;stroke-miterlimit:4;" d="M 332.3 72.434211 C 332.3 74.309211 330.8 75.789474 329 75.789474 C 327.1 75.789474 325.6 74.309211 325.6 72.434211 C 325.6 70.559211 327.1 69.078947 328.9 68.980263 C 330.8 68.980263 332.3 70.559211 332.3 72.434211 " transform="matrix(0.0390625,0,0,0.0395833,0,0)"/>
<path style=" stroke:none;fill-rule:evenodd;fill:rgb(63.921571%,68.627453%,72.156864%);fill-opacity:1;" d="M 12.789062 2.9375 C 12.789062 2.9375 12.894531 2.9375 12.90625 2.890625 C 12.917969 2.84375 12.898438 2.789062 12.898438 2.789062 C 12.898438 2.789062 12.949219 2.847656 12.9375 2.890625 C 12.925781 2.929688 12.902344 2.949219 12.871094 2.953125 C 12.839844 2.960938 12.8125 2.957031 12.789062 2.9375 "/>
<path style="fill-rule:nonzero;fill:rgb(93.333334%,93.333334%,93.333334%);fill-opacity:1;stroke-width:1.2;stroke-linecap:butt;stroke-linejoin:round;stroke:rgb(11.764706%,11.764706%,11.764706%);stroke-opacity:1;stroke-miterlimit:4;" d="M 322.1 71.546053 C 322.1 73.026316 320.8 74.309211 319.3 74.407895 C 317.8 74.309211 316.5 73.026316 316.5 71.546053 C 316.6 69.967105 317.8 68.782895 319.3 68.684211 C 320.8 68.782895 322 69.967105 322.1 71.546053 " transform="matrix(0.0390625,0,0,0.0395833,0,0)"/>
<path style=" stroke:none;fill-rule:evenodd;fill:rgb(63.921571%,68.627453%,72.156864%);fill-opacity:1;" d="M 12.421875 2.890625 C 12.421875 2.890625 12.511719 2.890625 12.519531 2.851562 C 12.527344 2.808594 12.515625 2.769531 12.515625 2.769531 C 12.515625 2.769531 12.554688 2.8125 12.546875 2.851562 C 12.535156 2.882812 12.515625 2.902344 12.492188 2.90625 C 12.46875 2.90625 12.441406 2.902344 12.421875 2.890625 "/>
<path style="fill-rule:nonzero;fill:rgb(93.333334%,93.333334%,93.333334%);fill-opacity:1;stroke-width:1.2;stroke-linecap:butt;stroke-linejoin:round;stroke:rgb(11.764706%,11.764706%,11.764706%);stroke-opacity:1;stroke-miterlimit:4;" d="M 322.2 75 C 322.2 76.578947 321 77.861842 319.4 77.960526 C 317.8 77.861842 316.6 76.578947 316.6 75 C 316.7 73.519737 317.9 72.335526 319.4 72.236842 C 320.9 72.335526 322.1 73.519737 322.2 75 " transform="matrix(0.0390625,0,0,0.0395833,0,0)"/>
<path style=" stroke:none;fill-rule:evenodd;fill:rgb(63.921571%,68.627453%,72.156864%);fill-opacity:1;" d="M 12.421875 3.027344 C 12.421875 3.027344 12.511719 3.027344 12.523438 2.988281 C 12.53125 2.957031 12.515625 2.910156 12.515625 2.910156 C 12.515625 2.910156 12.554688 2.957031 12.546875 2.988281 C 12.539062 3.023438 12.519531 3.042969 12.492188 3.042969 C 12.46875 3.046875 12.445312 3.039062 12.425781 3.027344 Z M 12.421875 3.027344 "/>
<path style="fill-rule:nonzero;fill:rgb(93.333334%,93.333334%,93.333334%);fill-opacity:1;stroke-width:1.2;stroke-linecap:butt;stroke-linejoin:round;stroke:rgb(11.764706%,11.764706%,11.764706%);stroke-opacity:1;stroke-miterlimit:4;" d="M 322.4 80.328947 C 322.3 81.809211 321.1 82.993421 319.6 83.092105 C 318.1 83.092105 316.8 81.809211 316.7 80.328947 C 316.8 78.75 318 77.467105 319.6 77.368421 C 321.1 77.467105 322.4 78.75 322.4 80.328947 " transform="matrix(0.0390625,0,0,0.0395833,0,0)"/>
<path style=" stroke:none;fill-rule:evenodd;fill:rgb(63.921571%,68.627453%,72.156864%);fill-opacity:1;" d="M 12.433594 3.238281 C 12.433594 3.238281 12.519531 3.238281 12.53125 3.199219 C 12.542969 3.160156 12.523438 3.113281 12.523438 3.113281 C 12.523438 3.113281 12.5625 3.164062 12.554688 3.195312 C 12.546875 3.230469 12.527344 3.25 12.5 3.25 C 12.476562 3.253906 12.453125 3.25 12.433594 3.238281 "/>
<path style="fill-rule:nonzero;fill:rgb(93.333334%,93.333334%,93.333334%);fill-opacity:1;stroke-width:1.2;stroke-linecap:butt;stroke-linejoin:round;stroke:rgb(11.764706%,11.764706%,11.764706%);stroke-opacity:1;stroke-miterlimit:4;" d="M 322.7 85.756579 C 322.7 86.644737 322.4 87.434211 321.9 88.026316 C 321.3 88.618421 320.5 88.914474 319.7 88.914474 C 318.9 88.914474 318.1 88.618421 317.5 88.026316 C 316.9 87.532895 316.6 86.743421 316.6 85.855263 C 316.5 85.065789 316.8 84.276316 317.4 83.684211 C 318 82.993421 318.8 82.697368 319.6 82.697368 C 320.4 82.697368 321.2 82.993421 321.8 83.585526 C 322.3 84.177632 322.6 84.967105 322.6 85.756579 " transform="matrix(0.0390625,0,0,0.0395833,0,0)"/>
<path style=" stroke:none;fill-rule:evenodd;fill:rgb(63.921571%,68.627453%,72.156864%);fill-opacity:1;" d="M 12.429688 3.460938 C 12.429688 3.460938 12.527344 3.460938 12.535156 3.421875 C 12.542969 3.378906 12.527344 3.328125 12.527344 3.328125 C 12.527344 3.328125 12.574219 3.378906 12.5625 3.421875 C 12.546875 3.460938 12.535156 3.46875 12.503906 3.476562 C 12.476562 3.480469 12.453125 3.472656 12.429688 3.460938 "/>
<path style="fill-rule:nonzero;fill:rgb(93.333334%,93.333334%,93.333334%);fill-opacity:1;stroke-width:1.2;stroke-linecap:butt;stroke-linejoin:round;stroke:rgb(11.764706%,11.764706%,11.764706%);stroke-opacity:1;stroke-miterlimit:4;" d="M 323 93.256579 C 323 95.131579 321.5 96.710526 319.6 96.710526 C 317.8 96.611842 316.3 95.131579 316.3 93.256579 C 316.2 91.381579 317.7 89.901316 319.6 89.802632 C 321.5 89.802632 323 91.282895 323 93.157895 " transform="matrix(0.0390625,0,0,0.0395833,0,0)"/>
<path style=" stroke:none;fill-rule:evenodd;fill:rgb(63.921571%,68.627453%,72.156864%);fill-opacity:1;" d="M 12.421875 3.761719 C 12.421875 3.761719 12.53125 3.761719 12.539062 3.71875 C 12.546875 3.671875 12.535156 3.613281 12.535156 3.613281 C 12.535156 3.613281 12.585938 3.671875 12.570312 3.71875 C 12.554688 3.757812 12.542969 3.773438 12.503906 3.78125 C 12.476562 3.78125 12.449219 3.777344 12.425781 3.761719 Z M 12.421875 3.761719 "/>
<path style="fill-rule:nonzero;fill:rgb(93.333334%,93.333334%,93.333334%);fill-opacity:1;stroke-width:1.2;stroke-linecap:butt;stroke-linejoin:round;stroke:rgb(11.764706%,11.764706%,11.764706%);stroke-opacity:1;stroke-miterlimit:4;" d="M 322.7 108.453947 C 322.7 110.328947 321.3 111.710526 319.5 111.710526 C 318.6 111.809211 317.8 111.414474 317.2 110.822368 C 316.6 110.230263 316.2 109.342105 316.3 108.453947 C 316.3 106.776316 317.7 105.296053 319.5 105.296053 C 320.4 105.197368 321.2 105.592105 321.8 106.184211 C 322.4 106.776316 322.8 107.664474 322.7 108.453947 " transform="matrix(0.0390625,0,0,0.0395833,0,0)"/>
<path style=" stroke:none;fill-rule:evenodd;fill:rgb(63.921571%,68.627453%,72.156864%);fill-opacity:1;" d="M 12.421875 4.363281 C 12.421875 4.363281 12.523438 4.363281 12.53125 4.320312 C 12.542969 4.277344 12.527344 4.222656 12.527344 4.222656 C 12.527344 4.222656 12.574219 4.273438 12.558594 4.320312 C 12.546875 4.351562 12.527344 4.371094 12.5 4.378906 C 12.472656 4.378906 12.449219 4.375 12.421875 4.363281 "/>
<path style="fill-rule:nonzero;fill:rgb(93.333334%,93.333334%,93.333334%);fill-opacity:1;stroke-width:1.2;stroke-linecap:butt;stroke-linejoin:round;stroke:rgb(11.764706%,11.764706%,11.764706%);stroke-opacity:1;stroke-miterlimit:4;" d="M 313.6 72.335526 C 313.6 74.210526 312 75.690789 310.2 75.690789 C 308.3 75.690789 306.8 74.210526 306.8 72.335526 C 306.8 70.460526 308.3 68.881579 310.2 68.881579 C 312.1 68.881579 313.6 70.460526 313.6 72.335526 " transform="matrix(0.0390625,0,0,0.0395833,0,0)"/>
<path style=" stroke:none;fill-rule:evenodd;fill:rgb(63.921571%,68.627453%,72.156864%);fill-opacity:1;" d="M 12.054688 2.929688 C 12.054688 2.929688 12.160156 2.929688 12.171875 2.890625 C 12.183594 2.84375 12.164062 2.785156 12.164062 2.785156 C 12.164062 2.785156 12.214844 2.84375 12.203125 2.886719 C 12.191406 2.925781 12.167969 2.945312 12.136719 2.949219 C 12.109375 2.953125 12.082031 2.949219 12.058594 2.933594 Z M 12.054688 2.929688 "/>
<path style="fill-rule:nonzero;fill:rgb(93.333334%,93.333334%,93.333334%);fill-opacity:1;stroke-width:1.2;stroke-linecap:butt;stroke-linejoin:round;stroke:rgb(11.764706%,11.764706%,11.764706%);stroke-opacity:1;stroke-miterlimit:4;" d="M 305.2 68.980263 C 305.2 70.855263 303.7 72.434211 301.8 72.434211 C 300 72.335526 298.5 70.855263 298.5 68.980263 C 298.5 67.203947 300 65.625 301.8 65.625 C 303.7 65.625 305.2 67.105263 305.2 68.980263 " transform="matrix(0.0390625,0,0,0.0395833,0,0)"/>
<path style=" stroke:none;fill-rule:evenodd;fill:rgb(63.921571%,68.627453%,72.156864%);fill-opacity:1;" d="M 11.730469 2.800781 C 11.730469 2.800781 11.835938 2.800781 11.847656 2.753906 C 11.855469 2.714844 11.839844 2.65625 11.839844 2.65625 C 11.839844 2.65625 11.890625 2.710938 11.878906 2.753906 C 11.859375 2.796875 11.847656 2.808594 11.808594 2.816406 C 11.78125 2.828125 11.757812 2.820312 11.730469 2.800781 "/>
<path style="fill-rule:nonzero;fill:rgb(93.333334%,93.333334%,93.333334%);fill-opacity:1;stroke-width:1.2;stroke-linecap:butt;stroke-linejoin:round;stroke:rgb(11.764706%,11.764706%,11.764706%);stroke-opacity:1;stroke-miterlimit:4;" d="M 297.2 65.328947 C 297.2 67.105263 295.7 68.684211 293.9 68.684211 C 292 68.684211 290.5 67.203947 290.5 65.328947 C 290.4 63.453947 291.9 61.875 293.8 61.776316 C 295.7 61.776316 297.2 63.355263 297.2 65.230263 " transform="matrix(0.0390625,0,0,0.0395833,0,0)"/>
<path style=" stroke:none;fill-rule:evenodd;fill:rgb(63.921571%,68.627453%,72.156864%);fill-opacity:1;" d="M 11.417969 2.652344 C 11.417969 2.652344 11.523438 2.652344 11.535156 2.609375 C 11.546875 2.566406 11.527344 2.503906 11.527344 2.503906 C 11.527344 2.503906 11.578125 2.566406 11.566406 2.609375 C 11.554688 2.644531 11.53125 2.667969 11.5 2.671875 C 11.472656 2.675781 11.441406 2.667969 11.417969 2.652344 "/>
<path style="fill-rule:nonzero;fill:rgb(93.333334%,93.333334%,93.333334%);fill-opacity:1;stroke-width:1.2;stroke-linecap:butt;stroke-linejoin:round;stroke:rgb(11.764706%,11.764706%,11.764706%);stroke-opacity:1;stroke-miterlimit:4;" d="M 288 63.256579 C 288 65.230263 286.6 66.710526 284.7 66.710526 C 282.8 66.710526 281.3 65.131579 281.3 63.256579 C 281.3 62.368421 281.6 61.480263 282.3 60.789474 C 282.9 60.197368 283.8 59.802632 284.7 59.802632 C 286.6 59.802632 288.1 61.282895 288.1 63.157895 " transform="matrix(0.0390625,0,0,0.0395833,0,0)"/>
<path style=" stroke:none;fill-rule:evenodd;fill:rgb(63.921571%,68.627453%,72.156864%);fill-opacity:1;" d="M 11.058594 2.574219 C 11.058594 2.574219 11.164062 2.574219 11.175781 2.53125 C 11.1875 2.484375 11.167969 2.425781 11.167969 2.425781 C 11.167969 2.425781 11.21875 2.484375 11.207031 2.53125 C 11.195312 2.566406 11.171875 2.585938 11.140625 2.59375 C 11.113281 2.59375 11.085938 2.589844 11.0625 2.574219 Z M 11.058594 2.574219 "/>
<path style="fill-rule:nonzero;fill:rgb(93.333334%,93.333334%,93.333334%);fill-opacity:1;stroke-width:1.2;stroke-linecap:butt;stroke-linejoin:round;stroke:rgb(11.764706%,11.764706%,11.764706%);stroke-opacity:1;stroke-miterlimit:4;" d="M 277.2 65.822368 C 277.2 67.796053 275.7 69.177632 273.9 69.276316 C 272 69.276316 270.5 67.796053 270.5 65.921053 C 270.5 64.934211 270.8 64.046053 271.5 63.453947 C 272.1 62.763158 273 62.368421 273.9 62.368421 C 275.7 62.467105 277.2 63.947368 277.2 65.822368 " transform="matrix(0.0390625,0,0,0.0395833,0,0)"/>
<path style=" stroke:none;fill-rule:evenodd;fill:rgb(63.921571%,68.627453%,72.156864%);fill-opacity:1;" d="M 10.636719 2.675781 C 10.636719 2.675781 10.742188 2.675781 10.753906 2.632812 C 10.765625 2.589844 10.746094 2.53125 10.746094 2.53125 C 10.746094 2.53125 10.796875 2.585938 10.785156 2.628906 C 10.773438 2.664062 10.75 2.6875 10.71875 2.695312 C 10.691406 2.699219 10.664062 2.691406 10.640625 2.675781 Z M 10.636719 2.675781 "/>
<path style="fill-rule:nonzero;fill:rgb(93.333334%,93.333334%,93.333334%);fill-opacity:1;stroke-width:1.2;stroke-linecap:butt;stroke-linejoin:round;stroke:rgb(11.764706%,11.764706%,11.764706%);stroke-opacity:1;stroke-miterlimit:4;" d="M 269.6 73.519737 C 269.6 75.394737 268.1 76.875 266.2 76.875 C 264.4 76.875 262.9 75.296053 262.9 73.519737 C 262.9 71.644737 264.4 70.164474 266.2 70.065789 C 268.1 70.065789 269.6 71.644737 269.6 73.519737 " transform="matrix(0.0390625,0,0,0.0395833,0,0)"/>
<path style=" stroke:none;fill-rule:evenodd;fill:rgb(63.921571%,68.627453%,72.156864%);fill-opacity:1;" d="M 10.339844 2.976562 C 10.339844 2.976562 10.445312 2.976562 10.457031 2.933594 C 10.46875 2.890625 10.449219 2.832031 10.449219 2.832031 C 10.449219 2.832031 10.5 2.890625 10.484375 2.933594 C 10.472656 2.96875 10.453125 2.992188 10.417969 2.996094 C 10.390625 3 10.363281 2.992188 10.339844 2.976562 "/>
<path style="fill-rule:nonzero;fill:rgb(93.333334%,93.333334%,93.333334%);fill-opacity:1;stroke-width:1.2;stroke-linecap:butt;stroke-linejoin:round;stroke:rgb(11.764706%,11.764706%,11.764706%);stroke-opacity:1;stroke-miterlimit:4;" d="M 266.4 84.177632 C 266.4 86.052632 264.9 87.631579 263.1 87.631579 C 261.2 87.631579 259.7 86.052632 259.7 84.177632 C 259.7 82.401316 261.2 80.822368 263 80.822368 C 264.8 80.822368 266.3 82.302632 266.4 84.078947 " transform="matrix(0.0390625,0,0,0.0395833,0,0)"/>
<path style=" stroke:none;fill-rule:evenodd;fill:rgb(63.921571%,68.627453%,72.156864%);fill-opacity:1;" d="M 10.214844 3.402344 C 10.214844 3.402344 10.320312 3.398438 10.332031 3.355469 C 10.34375 3.3125 10.324219 3.253906 10.324219 3.253906 C 10.324219 3.253906 10.375 3.3125 10.363281 3.355469 C 10.351562 3.394531 10.328125 3.414062 10.296875 3.421875 C 10.269531 3.425781 10.238281 3.417969 10.214844 3.398438 Z M 10.214844 3.402344 "/>
<path style="fill-rule:nonzero;fill:rgb(93.333334%,93.333334%,93.333334%);fill-opacity:1;stroke-width:1.2;stroke-linecap:butt;stroke-linejoin:round;stroke:rgb(11.764706%,11.764706%,11.764706%);stroke-opacity:1;stroke-miterlimit:4;" d="M 267.8 95.328947 C 267.8 97.302632 266.3 98.782895 264.5 98.782895 C 262.6 98.782895 261.1 97.302632 261.1 95.427632 C 261 93.552632 262.5 91.973684 264.4 91.875 C 266.3 91.875 267.8 93.453947 267.8 95.328947 " transform="matrix(0.0390625,0,0,0.0395833,0,0)"/>
<path style=" stroke:none;fill-rule:evenodd;fill:rgb(63.921571%,68.627453%,72.156864%);fill-opacity:1;" d="M 10.269531 3.84375 C 10.269531 3.84375 10.375 3.84375 10.386719 3.796875 C 10.398438 3.757812 10.378906 3.695312 10.378906 3.695312 C 10.378906 3.695312 10.429688 3.753906 10.417969 3.796875 C 10.40625 3.835938 10.382812 3.859375 10.351562 3.863281 C 10.324219 3.867188 10.296875 3.859375 10.273438 3.84375 Z M 10.269531 3.84375 "/>
<path style="fill-rule:nonzero;fill:rgb(93.333334%,93.333334%,93.333334%);fill-opacity:1;stroke-width:1.2;stroke-linecap:butt;stroke-linejoin:round;stroke:rgb(11.764706%,11.764706%,11.764706%);stroke-opacity:1;stroke-miterlimit:4;" d="M 273 105.493421 C 273 107.269737 271.5 108.947368 269.6 108.947368 C 267.8 108.848684 266.3 107.368421 266.3 105.493421 C 266.2 103.618421 267.7 102.039474 269.6 102.039474 C 271.5 102.039474 273 103.519737 273 105.394737 " transform="matrix(0.0390625,0,0,0.0395833,0,0)"/>
<path style=" stroke:none;fill-rule:evenodd;fill:rgb(63.921571%,68.627453%,72.156864%);fill-opacity:1;" d="M 10.46875 4.242188 C 10.46875 4.242188 10.578125 4.242188 10.585938 4.199219 C 10.59375 4.15625 10.582031 4.097656 10.582031 4.097656 C 10.582031 4.097656 10.632812 4.152344 10.621094 4.195312 C 10.605469 4.234375 10.582031 4.257812 10.554688 4.261719 C 10.527344 4.265625 10.496094 4.261719 10.472656 4.242188 Z M 10.46875 4.242188 "/>
<path style="fill-rule:nonzero;fill:rgb(93.333334%,93.333334%,93.333334%);fill-opacity:1;stroke-width:2.8;stroke-linecap:butt;stroke-linejoin:round;stroke:rgb(11.764706%,11.764706%,11.764706%);stroke-opacity:1;stroke-miterlimit:4;" d="M 430.704049 247.503052 C 430.479716 250.991328 427.675893 253.850235 424.193504 253.852683 C 420.711115 253.855132 417.809384 251.016847 417.738431 247.478949 C 417.667478 243.94105 420.549383 240.899377 424.031772 240.896929 C 427.809447 240.944103 430.711178 243.782388 430.704049 247.503052 " transform="matrix(0.0123426,-0.00335113,0.00527305,0.0199413,4.273438,1.1875)"/>
<path style=" stroke:none;fill-rule:evenodd;fill:rgb(63.921571%,68.627453%,72.156864%);fill-opacity:1;" d="M 10.792969 4.777344 C 10.792969 4.777344 10.855469 4.757812 10.851562 4.714844 C 10.851562 4.671875 10.824219 4.621094 10.824219 4.621094 C 10.824219 4.621094 10.867188 4.664062 10.871094 4.710938 C 10.871094 4.746094 10.863281 4.769531 10.847656 4.78125 C 10.832031 4.789062 10.8125 4.789062 10.792969 4.777344 "/>
<path style="fill-rule:nonzero;fill:rgb(93.333334%,93.333334%,93.333334%);fill-opacity:1;stroke-width:2.8;stroke-linecap:butt;stroke-linejoin:round;stroke:rgb(11.764706%,11.764706%,11.764706%);stroke-opacity:1;stroke-miterlimit:4;" d="M 430.513692 247.380357 C 430.627962 250.870675 427.709571 253.856093 424.227927 253.81049 C 420.521792 253.994534 417.736375 250.917792 417.622106 247.427475 C 417.80463 243.891204 420.426227 240.951739 424.204665 240.951389 C 427.686309 240.996993 430.696217 243.844087 430.513692 247.380357 " transform="matrix(0.0124055,0.00310333,-0.00488281,0.0200434,10.15625,-1.59125)"/>
<path style=" stroke:none;fill-rule:evenodd;fill:rgb(63.921571%,68.627453%,72.156864%);fill-opacity:1;" d="M 14.152344 4.742188 C 14.152344 4.742188 14.21875 4.757812 14.234375 4.714844 C 14.253906 4.675781 14.253906 4.617188 14.253906 4.617188 C 14.253906 4.617188 14.273438 4.679688 14.253906 4.71875 C 14.234375 4.757812 14.222656 4.769531 14.199219 4.769531 C 14.179688 4.769531 14.164062 4.761719 14.152344 4.742188 "/>
<path style="fill-rule:evenodd;fill:rgb(70.19608%,63.137257%,57.254905%);fill-opacity:1;stroke-width:1.2;stroke-linecap:butt;stroke-linejoin:miter;stroke:rgb(0%,0%,0%);stroke-opacity:1;stroke-miterlimit:4;" d="M 316.7 53.782895 L 317 59.506579 C 317 59.506579 310.2 60.098684 310 60.690789 C 308.6 63.651316 311.5 67.697368 311.5 67.697368 C 311.5 67.697368 313.8 65.921053 319.5 65.921053 C 325 65.921053 327.8 67.302632 327.8 67.302632 C 327.8 67.302632 329.2 65.032895 329.2 63.256579 C 329.2 61.578947 328.6 59.901316 328.6 59.901316 L 325 59.506579 L 322.5 59.506579 L 322.3 53.684211 Z M 316.7 53.782895 " transform="matrix(0.0390625,0,0,0.0395833,0,0)"/>
<path style="fill-rule:nonzero;fill:rgb(94.117647%,86.666667%,79.607844%);fill-opacity:1;stroke-width:0.6;stroke-linecap:butt;stroke-linejoin:round;stroke:rgb(7.058824%,6.666667%,8.627451%);stroke-opacity:1;stroke-miterlimit:4;" d="M 326.4 62.565789 C 326.3 63.355263 325.9 63.75 325.2 63.848684 C 324.4 63.75 324 63.355263 323.9 62.664474 C 324 61.973684 324.4 61.578947 325.1 61.480263 C 325.8 61.578947 326.3 61.973684 326.4 62.565789 M 329.1 63.256579 C 329.1 63.947368 328.7 64.342105 327.9 64.539474 C 326.7 64.736842 326.6 63.947368 326.6 63.256579 C 326.7 62.565789 327.1 62.171053 327.9 62.072368 C 328.7 62.072368 329.1 62.467105 329.1 63.256579 M 323.6 62.565789 C 323.5 63.256579 323.1 63.651316 322.4 63.848684 C 321.7 63.651316 321.3 63.256579 321.2 62.565789 C 321.2 61.776316 321.6 61.381579 322.3 61.381579 C 323 61.480263 323.5 61.875 323.6 62.565789 M 318 62.565789 C 317.9 63.355263 317.5 63.848684 316.7 63.947368 C 316 63.848684 315.6 63.453947 315.5 62.664474 C 315.4 61.973684 315.8 61.578947 316.7 61.480263 C 317.9 61.381579 318 61.973684 318 62.664474 M 314.9 62.861842 C 314.8 63.552632 314.4 63.947368 313.6 64.144737 C 312.9 64.144737 312.5 63.651316 312.4 62.861842 C 312.3 61.677632 312.9 61.677632 313.6 61.677632 C 314.3 61.677632 314.9 62.171053 314.9 62.861842 M 320.6 59.407895 C 320.5 60.098684 320.2 60.394737 319.6 60.394737 C 319.3 60.493421 319 60.394737 318.8 60.197368 C 318.5 60 318.4 59.703947 318.4 59.407895 C 318.5 58.717105 318.8 58.421053 319.5 58.421053 C 320.2 58.421053 320.5 58.717105 320.5 59.407895 M 320.5 54.671053 C 320.5 55.263158 320.2 55.657895 319.5 55.657895 C 318.9 55.657895 318.5 55.263158 318.5 54.671053 C 318.5 54.078947 318.8 53.684211 319.5 53.684211 C 320.5 53.684211 320.5 54.078947 320.5 54.671053 M 320.5 57.236842 C 320.5 57.828947 320.2 58.223684 319.5 58.223684 C 318.5 58.223684 318.5 57.828947 318.5 57.236842 C 318.5 56.644737 318.8 56.25 319.5 56.151316 C 320.5 56.052632 320.5 56.644737 320.5 57.236842 M 311.7 63.651316 C 311.7 64.440789 311.3 64.835526 310.5 64.934211 C 309.8 64.934211 309.4 64.539474 309.3 63.651316 C 309.3 63.059211 309.7 62.664474 310.5 62.565789 C 311.7 62.467105 311.7 63.059211 311.7 63.651316 " transform="matrix(0.0390625,0,0,0.0395833,0,0)"/>
<path style="fill-rule:nonzero;fill:rgb(56.862748%,42.352942%,40.784314%);fill-opacity:1;stroke-width:0.6;stroke-linecap:butt;stroke-linejoin:round;stroke:rgb(30.19608%,19.215687%,14.901961%);stroke-opacity:1;stroke-miterlimit:4;" d="M 320.9 62.368421 C 320.8 63.157895 320.4 63.552632 319.5 63.552632 C 318.8 63.651316 318.3 63.059211 318.2 62.368421 C 318.3 61.578947 318.7 61.184211 319.5 61.085526 C 320.3 61.184211 320.7 61.578947 320.8 62.368421 " transform="matrix(0.0390625,0,0,0.0395833,0,0)"/>
<path style="fill-rule:nonzero;fill:rgb(93.333334%,93.333334%,93.333334%);fill-opacity:1;stroke-width:1.2;stroke-linecap:butt;stroke-linejoin:round;stroke:rgb(11.764706%,11.764706%,11.764706%);stroke-opacity:1;stroke-miterlimit:4;" d="M 322 45.493421 C 322 46.875 320.9 47.960526 319.6 47.960526 C 318.2 47.960526 317.1 46.875 317.1 45.493421 C 317.1 44.802632 317.3 44.111842 317.8 43.618421 C 318.3 43.223684 318.9 42.927632 319.6 42.927632 C 321 42.927632 322.1 44.013158 322.1 45.394737 " transform="matrix(0.0390625,0,0,0.0395833,0,0)"/>
<path style=" stroke:none;fill-rule:evenodd;fill:rgb(63.921571%,68.627453%,72.156864%);fill-opacity:1;" d="M 12.4375 1.851562 C 12.4375 1.851562 12.515625 1.851562 12.523438 1.8125 C 12.53125 1.785156 12.519531 1.742188 12.519531 1.742188 C 12.519531 1.742188 12.558594 1.78125 12.546875 1.816406 C 12.535156 1.84375 12.519531 1.859375 12.5 1.863281 C 12.476562 1.871094 12.457031 1.867188 12.4375 1.851562 "/>
<path style="fill-rule:evenodd;fill:rgb(100%,80.000001%,0%);fill-opacity:1;stroke-width:0.5;stroke-linecap:butt;stroke-linejoin:miter;stroke:rgb(0%,0%,0%);stroke-opacity:1;stroke-miterlimit:4;" d="M 280 130.065789 C 280 130.065789 282.2 132.236842 282.8 134.111842 C 283.4 135.986842 284.3 140.921053 284.3 140.921053 C 284.3 140.921053 307.5 134.407895 318.9 134.901316 C 330.3 135.394737 356.6 141.217105 356.6 141.217105 L 357.6 135.493421 C 358.1 132.532895 360.3 129.177632 360.3 129.177632 C 360.3 129.177632 335.2 121.381579 319.3 122.171053 C 310.1 122.269737 300.9 123.453947 292 125.723684 Z M 280 130.065789 " transform="matrix(0.0390625,0,0,0.0395833,0,0)"/>
<path style="fill-rule:evenodd;fill:rgb(100%,80.000001%,0%);fill-opacity:1;stroke-width:1.2;stroke-linecap:butt;stroke-linejoin:miter;stroke:rgb(0%,0%,0%);stroke-opacity:1;stroke-miterlimit:4;" d="M 314.7 36.019737 L 324.7 36.019737 C 324.7 36.019737 322.2 37.697368 321.7 39.375 C 321.3 40.756579 321.4 43.125 321.4 43.125 C 321.4 43.125 324.1 43.125 325.4 42.138158 L 329.1 39.177632 L 329.1 51.907895 C 329.1 51.907895 326.6 49.638158 325.1 48.848684 C 324 48.256579 322.8 47.763158 321.6 47.467105 C 321.6 47.467105 321.6 49.539474 322.4 50.822368 C 323.2 52.105263 326.7 56.644737 326.7 56.644737 L 312.4 57.138158 C 312.4 57.138158 315.8 53.585526 317.2 51.019737 C 318.1 49.342105 317.7 47.467105 317.7 47.467105 C 317.7 47.467105 315.3 47.467105 314.1 48.355263 C 312.9 49.342105 310.7 51.710526 310.7 51.710526 L 310.7 39.473684 C 310.7 39.473684 311.7 41.940789 313.7 42.828947 C 315.7 43.717105 317.5 43.223684 317.5 43.223684 C 317.5 43.223684 317.9 40.756579 317.1 39.177632 C 316.3 37.697368 314.5 36.019737 314.7 36.118421 Z M 314.7 36.019737 " transform="matrix(0.0390625,0,0,0.0395833,0,0)"/>
<path style="fill-rule:evenodd;fill:rgb(100%,80.000001%,0%);fill-opacity:1;stroke-width:1.2;stroke-linecap:butt;stroke-linejoin:miter;stroke:rgb(7.058824%,6.666667%,8.627451%);stroke-opacity:1;stroke-miterlimit:4;" d="M 313.9 76.480263 C 313.9 76.480263 306.8 76.381579 300.7 72.828947 C 294.6 69.177632 288.4 65.427632 279.4 67.5 C 277.6 67.993421 270.8 70.953947 267.8 80.723684 C 266.2 87.039474 267.1 93.651316 270.2 99.375 C 271.8 102.039474 273.7 104.506579 275.8 106.776316 L 279.5 104.309211 C 279.5 104.309211 270.2 96.315789 271.3 86.052632 C 272.3 75.789474 277.5 73.421053 277.5 73.421053 C 277.5 73.421053 283.9 68.388158 292.4 73.125 C 300.3 77.368421 308.8 80.328947 317.7 81.809211 C 318.3 81.710526 313.7 76.381579 313.9 76.480263 Z M 313.9 76.480263 " transform="matrix(0.0390625,0,0,0.0395833,0,0)"/>
<path style="fill-rule:evenodd;fill:rgb(100%,80.000001%,0%);fill-opacity:1;stroke-width:1.2;stroke-linecap:butt;stroke-linejoin:miter;stroke:rgb(0%,0%,0%);stroke-opacity:1;stroke-miterlimit:4;" d="M 274.5 114.967105 L 270.7 107.565789 L 282.1 103.223684 C 282.1 103.223684 279.3 106.776316 278.7 109.440789 C 277.9 112.598684 278.2 115.263158 278.2 115.263158 C 278.2 115.263158 279.2 114.473684 280.5 112.401316 C 281.5 110.921053 283.1 105.098684 283.1 105.098684 L 288.2 121.381579 C 288.2 121.381579 285.6 118.815789 283.7 118.519737 C 281.7 118.125 279.1 118.815789 279.1 118.815789 L 276.1 119.802632 Z M 274.5 114.967105 " transform="matrix(0.0390625,0,0,0.0395833,0,0)"/>
<path style="fill-rule:evenodd;fill:rgb(100%,80.000001%,0%);fill-opacity:1;stroke-width:1.2;stroke-linecap:butt;stroke-linejoin:miter;stroke:rgb(7.058824%,6.666667%,8.627451%);stroke-opacity:1;stroke-miterlimit:4;" d="M 326.7 76.282895 C 326.7 76.282895 333.8 76.282895 339.9 72.631579 C 346 68.980263 352.1 65.328947 361.2 67.401316 C 363 67.796053 369.8 70.756579 372.8 80.526316 C 374.3 86.842105 373.4 93.453947 370.3 99.177632 L 366.7 105.098684 L 362.3 103.519737 C 362.3 103.519737 370.4 96.217105 369.3 85.855263 C 368.2 75.592105 363.1 73.223684 363.1 73.223684 C 363.1 73.223684 356.7 68.190789 348.2 73.026316 C 339.7 77.763158 331.4 79.835526 331.4 79.835526 C 331.4 79.835526 323.6 81.809211 322.9 81.611842 C 322.2 81.611842 326.9 76.184211 326.7 76.282895 Z M 326.7 76.282895 " transform="matrix(0.0390625,0,0,0.0395833,0,0)"/>
<path style="fill-rule:nonzero;fill:rgb(100%,80.000001%,0%);fill-opacity:1;stroke-width:1.2;stroke-linecap:butt;stroke-linejoin:round;stroke:rgb(7.058824%,6.666667%,8.627451%);stroke-opacity:1;stroke-miterlimit:4;" d="M 323 69.276316 L 326 69.276316 L 326 97.006579 L 323 97.006579 Z M 313 69.078947 L 316.5 69.078947 L 316.5 96.809211 L 313 96.809211 Z M 313 69.078947 " transform="matrix(0.0390625,0,0,0.0395833,0,0)"/>
<path style="fill-rule:nonzero;fill:rgb(100%,80.000001%,0%);fill-opacity:1;stroke-width:1.2;stroke-linecap:butt;stroke-linejoin:round;stroke:rgb(7.058824%,6.666667%,8.627451%);stroke-opacity:1;stroke-miterlimit:4;" d="M 329.2 62.664474 C 329.2 67.697368 324.9 71.743421 319.5 71.743421 C 314.1 71.743421 309.8 67.697368 309.8 62.664474 C 309.8 57.730263 314.1 53.782895 319.4 53.782895 C 324.8 53.782895 329.2 57.828947 329.2 62.664474 " transform="matrix(0.0390625,0,0,0.0395833,0,0)"/>
<path style="fill-rule:evenodd;fill:rgb(100%,80.000001%,0%);fill-opacity:1;stroke-width:1;stroke-linecap:butt;stroke-linejoin:miter;stroke:rgb(0%,0%,0%);stroke-opacity:1;stroke-miterlimit:4;" d="M 310.9 96.809211 L 327.6 96.611842 C 327.6 96.611842 325.6 97.796053 323.9 100.756579 C 322.3 103.815789 322.5 105.592105 322.5 105.592105 C 322.5 105.592105 325 105.592105 326.8 104.309211 C 328.2 103.223684 329.5 101.940789 330.6 100.559211 L 330.6 115.855263 C 330.6 115.855263 329.3 113.881579 327.3 112.894737 C 325.3 111.611842 322.5 111.611842 322.5 111.611842 L 316.8 111.611842 C 316.8 111.611842 314.2 111.809211 313.1 112.598684 C 311.8 113.585526 310.5 114.671053 309.4 115.756579 L 309.1 101.151316 C 309.1 101.151316 309.9 103.815789 312.6 104.802632 C 315.3 105.789474 316.8 105.789474 316.8 105.789474 C 316.8 105.789474 316.8 102.434211 315.4 100.756579 C 314 99.375 312.5 97.993421 310.9 96.809211 Z M 310.9 96.809211 " transform="matrix(0.0390625,0,0,0.0395833,0,0)"/>
<path style="fill-rule:evenodd;fill:rgb(96.470588%,79.215688%,12.156863%);fill-opacity:1;stroke-width:0.9;stroke-linecap:butt;stroke-linejoin:miter;stroke:rgb(0%,0%,0%);stroke-opacity:1;stroke-miterlimit:4;" d="M 320.2 108.848684 C 320.2 108.848684 322.6 114.473684 325.5 117.039474 C 327.1 118.519737 332.1 119.605263 334.3 119.013158 C 339.3 117.730263 342.9 113.684211 342.9 113.684211 C 342.9 113.684211 342.7 118.125 345.9 120.592105 C 348.9 122.960526 351.6 123.651316 354.1 122.861842 C 356.8 122.171053 364.1 116.743421 364.1 116.743421 L 365.7 118.026316 C 365.7 118.026316 361.4 122.171053 357 124.342105 C 354.7 125.526316 347.7 124.835526 345.5 122.960526 C 343.2 121.184211 341.9 116.940789 341.9 116.940789 C 341.9 116.940789 340.5 119.703947 337.5 120.690789 C 334.5 121.677632 330.5 121.677632 326.6 120.493421 C 324.1 119.703947 320.7 116.151316 320.1 114.967105 C 319.5 113.881579 319.7 113.190789 319.7 113.190789 C 319.7 113.190789 317.7 118.618421 313.9 120.098684 C 310.2 121.381579 306.2 121.578947 302.4 120.493421 C 298.8 119.506579 298.5 117.434211 298.5 117.434211 C 298.5 117.434211 298.3 123.059211 290.5 124.736842 C 282.5 126.315789 276.3 120.592105 276.3 120.592105 L 277.4 118.914474 C 277.4 118.914474 281.8 123.947368 288.6 123.453947 C 295.4 123.059211 297.6 114.276316 297.6 114.276316 C 297.6 114.276316 300.6 118.815789 308.6 118.914474 C 316.6 119.013158 318.8 108.552632 318.8 108.552632 Z M 320.2 108.848684 " transform="matrix(0.0390625,0,0,0.0395833,0,0)"/>
<path style="fill-rule:evenodd;fill:rgb(100%,80.000001%,0%);fill-opacity:1;stroke-width:1.1;stroke-linecap:butt;stroke-linejoin:miter;stroke:rgb(0%,0%,0%);stroke-opacity:1;stroke-miterlimit:4;" d="M 300.6 112.105263 C 300.6 112.105263 300.6 109.440789 301.3 108.453947 C 302.1 107.368421 303.3 107.269737 303.9 107.467105 C 304.5 107.664474 305.3 108.256579 305.2 110.328947 C 305.1 112.302632 304.5 113.092105 305.2 113.881579 C 305.7 114.572368 305.8 115.065789 306.9 114.868421 C 308 114.868421 308.4 114.375 308.2 113.388158 C 307.9 112.006579 307.7 113.388158 307.5 112.598684 C 307.3 111.809211 308.5 107.960526 308.3 105.690789 C 308.1 103.519737 307.3 101.743421 305.5 101.151316 C 304 100.657895 302.5 100.855263 301 101.940789 C 299.6 102.927632 297.7 106.381579 297.7 106.381579 L 297.7 113.881579 L 300.7 113.684211 L 300.7 112.105263 Z M 300.6 112.105263 " transform="matrix(0.0390625,0,0,0.0395833,0,0)"/>
<path style="fill-rule:evenodd;fill:rgb(100%,80.000001%,0%);fill-opacity:1;stroke-width:1.1;stroke-linecap:butt;stroke-linejoin:miter;stroke:rgb(0%,0%,0%);stroke-opacity:1;stroke-miterlimit:4;" d="M 295 114.078947 C 295 114.078947 293.8 111.611842 293 111.118421 C 292.1 110.625 291.1 110.625 290.2 111.118421 C 289.6 111.611842 289.2 112.5 290.1 114.177632 C 291 115.855263 291.8 116.644737 291.5 117.532895 C 291.3 118.421053 291.5 118.914474 290.4 119.210526 C 289.3 119.506579 288.7 119.210526 288.5 118.223684 C 288.3 117.236842 289.1 118.223684 288.9 117.236842 C 288.8 116.447368 286.1 113.486842 285.4 111.315789 C 284.6 109.144737 284.9 107.368421 286.2 106.085526 C 287.4 105 288.8 104.605263 290.5 104.901316 C 292.3 105.296053 295.4 107.763158 295.4 107.763158 L 298.4 114.572368 L 295.6 115.559211 Z M 295 114.078947 " transform="matrix(0.0390625,0,0,0.0395833,0,0)"/>
<path style="fill-rule:evenodd;fill:rgb(100%,80.000001%,0%);fill-opacity:1;stroke-width:1.1;stroke-linecap:butt;stroke-linejoin:miter;stroke:rgb(0%,0%,0%);stroke-opacity:1;stroke-miterlimit:4;" d="M 294.4 92.072368 C 294.4 92.072368 291.4 97.105263 292.1 100.855263 C 292.8 104.703947 296.7 112.894737 296.7 112.894737 L 296.7 113.881579 L 298.9 113.684211 L 298.4 112.598684 C 298.4 112.598684 299.4 102.828947 298.8 99.671053 C 297.7 97.006579 296.2 94.440789 294.4 92.072368 Z M 299.1 114.769737 C 299.1 114.769737 300.6 116.546053 302.3 117.434211 C 304.3 118.322368 305.1 118.421053 305.8 117.730263 C 306.4 117.335526 306.2 115.460526 305.5 114.967105 C 304.8 114.473684 304.1 114.769737 304 115.263158 C 303.9 116.052632 303.5 116.151316 303 115.657895 C 302 115.263158 300 113.980263 300 113.980263 Z M 296.8 115.164474 C 296.8 115.164474 296.2 117.434211 295 118.914474 C 293.6 120.493421 292.9 120.888158 292 120.592105 C 291.3 120.493421 290.7 118.815789 291.1 118.026316 C 291.5 117.335526 292.3 117.236842 292.6 117.631579 C 293 118.223684 293.4 118.223684 293.7 117.631579 L 295.7 114.868421 Z M 296.8 115.164474 " transform="matrix(0.0390625,0,0,0.0395833,0,0)"/>
<path style="fill-rule:nonzero;fill:rgb(100%,80.000001%,0%);fill-opacity:1;stroke-width:1.1;stroke-linecap:butt;stroke-linejoin:round;stroke:rgb(0%,0%,0%);stroke-opacity:1;stroke-miterlimit:4;" d="M 302.4 113.388158 C 302.6 113.980263 300.6 114.868421 298.1 115.263158 C 295.6 115.657895 293.5 115.559211 293.3 114.868421 C 293.3 114.276316 295.2 113.388158 297.7 112.894737 C 300.2 112.401316 302.3 112.697368 302.4 113.388158 " transform="matrix(0.0390625,0,0,0.0395833,0,0)"/>
<path style="fill-rule:evenodd;fill:rgb(100%,80.000001%,0%);fill-opacity:1;stroke-width:1.1;stroke-linecap:butt;stroke-linejoin:miter;stroke:rgb(0%,0%,0%);stroke-opacity:1;stroke-miterlimit:4;" d="M 345.6 113.190789 C 345.6 113.190789 346.6 110.723684 347.6 110.131579 C 348.7 109.342105 349.8 109.638158 350.3 110.131579 C 350.9 110.427632 351.3 111.315789 350.6 113.092105 C 349.8 114.769737 349 115.460526 349.2 116.447368 C 349.5 117.434211 349.4 117.828947 350.5 118.026316 C 351.6 118.322368 352.2 118.026316 352.3 117.039474 C 352.4 115.953947 351.8 117.039474 351.9 115.953947 C 351.9 115.164474 354.5 112.105263 355.1 110.032895 C 355.8 107.664474 355.4 105.888158 354.1 104.703947 C 352.8 103.618421 351.3 103.322368 349.6 103.815789 C 347.9 104.309211 344.9 106.875 344.9 106.875 L 342.3 113.881579 L 345.2 114.769737 Z M 345.6 113.190789 " transform="matrix(0.0390625,0,0,0.0395833,0,0)"/>
<path style="fill-rule:evenodd;fill:rgb(100%,80.000001%,0%);fill-opacity:1;stroke-width:1.1;stroke-linecap:butt;stroke-linejoin:miter;stroke:rgb(0%,0%,0%);stroke-opacity:1;stroke-miterlimit:4;" d="M 339.7 113.092105 C 339.7 113.092105 339.5 110.427632 338.8 109.638158 C 337.9 108.453947 336.8 108.453947 336.2 108.552632 C 335.5 108.947368 334.8 109.638158 335 111.513158 C 335.2 113.486842 335.8 114.276316 335.3 115.065789 C 334.8 115.855263 334.7 116.348684 333.6 116.151316 C 332.5 116.151316 332 115.756579 332.1 114.769737 C 332.3 113.782895 332.7 114.769737 332.9 113.881579 C 333 113.092105 331.6 109.440789 331.7 107.072368 C 331.7 104.901316 332.5 103.125 334.2 102.532895 C 335.7 101.842105 337.2 102.039474 338.7 103.026316 C 340.2 104.013158 342.3 107.269737 342.3 107.269737 L 342.7 114.671053 L 339.7 114.671053 Z M 339.7 113.092105 " transform="matrix(0.0390625,0,0,0.0395833,0,0)"/>
<path style="fill-rule:evenodd;fill:rgb(100%,80.000001%,0%);fill-opacity:1;stroke-width:1.1;stroke-linecap:butt;stroke-linejoin:miter;stroke:rgb(0%,0%,0%);stroke-opacity:1;stroke-miterlimit:4;" d="M 346.8 92.269737 C 346.8 92.269737 342.3 95.921053 341.6 99.671053 C 340.9 103.519737 341.7 112.5 341.7 112.5 L 341.4 113.486842 L 343.4 114.078947 L 343.4 112.894737 C 343.4 112.894737 347.8 104.111842 348.3 100.855263 C 348.2 97.993421 347.7 95.131579 346.8 92.269737 Z M 343.3 115.164474 C 343.3 115.164474 344.1 117.335526 345.4 118.717105 C 346.9 120.296053 347.6 120.592105 348.5 120.296053 C 349.2 120.098684 349.6 118.322368 349.2 117.730263 C 348.8 117.138158 348 117.039474 347.7 117.434211 C 347.3 118.026316 346.9 118.026316 346.6 117.434211 L 344.4 114.769737 Z M 341 114.671053 C 341 114.671053 339.7 116.644737 338 117.532895 C 336.1 118.618421 335.3 118.717105 334.5 118.125 C 333.9 117.828947 334 115.953947 334.6 115.361842 C 335.4 114.967105 335.9 115.065789 336.2 115.559211 C 336.4 116.25 336.7 116.447368 337.2 115.953947 L 340 113.980263 Z M 341 114.671053 " transform="matrix(0.0390625,0,0,0.0395833,0,0)"/>
<path style="fill-rule:nonzero;fill:rgb(100%,80.000001%,0%);fill-opacity:1;stroke-width:1.1;stroke-linecap:butt;stroke-linejoin:round;stroke:rgb(0%,0%,0%);stroke-opacity:1;stroke-miterlimit:4;" d="M 346.9 114.967105 C 346.8 115.657895 344.6 115.756579 342.1 115.263158 C 339.6 114.769737 337.7 113.881579 337.8 113.289474 C 337.9 112.697368 340.1 112.5 342.6 112.993421 C 345.1 113.486842 347 114.375 346.9 114.967105 " transform="matrix(0.0390625,0,0,0.0395833,0,0)"/>
<path style="fill-rule:evenodd;fill:rgb(80.000001%,65.490198%,8.235294%);fill-opacity:1;stroke-width:0.5;stroke-linecap:butt;stroke-linejoin:miter;stroke:rgb(0%,0%,0%);stroke-opacity:1;stroke-miterlimit:4;" d="M 279 129.868421 C 279 129.868421 279.6 131.940789 280.7 130.855263 C 281.9 129.769737 298 123.355263 320.7 123.355263 C 343.4 123.355263 358.2 129.671053 359.1 130.065789 C 360 130.361842 360.4 130.855263 361.1 130.065789 C 361.9 129.078947 360.4 127.796053 360.4 127.796053 C 360.4 127.796053 344.6 121.085526 320 121.184211 C 295.3 121.282895 279.4 128.289474 279.4 128.289474 C 279.4 128.289474 278.4 129.078947 279.1 129.868421 Z M 279 129.868421 " transform="matrix(0.0390625,0,0,0.0395833,0,0)"/>
<path style=" stroke:none;fill-rule:evenodd;fill:rgb(0%,0%,0%);fill-opacity:1;" d="M 12.027344 5.515625 C 12.027344 5.515625 12.054688 5.433594 12.105469 5.417969 C 12.144531 5.40625 12.203125 5.445312 12.203125 5.445312 C 12.203125 5.445312 12.128906 5.4375 12.105469 5.453125 C 12.085938 5.464844 12.078125 5.503906 12.078125 5.503906 C 12.078125 5.503906 12.09375 5.46875 12.152344 5.472656 L 12.214844 5.472656 C 12.214844 5.472656 12.117188 5.484375 12.097656 5.515625 C 12.078125 5.542969 12.1875 5.554688 12.1875 5.554688 C 12.1875 5.554688 12.011719 5.554688 11.992188 5.546875 C 11.972656 5.539062 11.953125 5.5 11.914062 5.507812 C 11.875 5.523438 11.835938 5.558594 11.835938 5.558594 C 11.835938 5.558594 11.878906 5.476562 11.90625 5.476562 C 11.933594 5.476562 11.953125 5.476562 11.976562 5.488281 Z M 11.371094 5.65625 C 11.371094 5.65625 11.382812 5.578125 11.429688 5.550781 C 11.46875 5.53125 11.535156 5.558594 11.535156 5.558594 C 11.535156 5.558594 11.457031 5.566406 11.4375 5.582031 C 11.417969 5.597656 11.421875 5.636719 11.421875 5.636719 C 11.421875 5.636719 11.433594 5.605469 11.488281 5.597656 L 11.550781 5.585938 C 11.550781 5.585938 11.457031 5.613281 11.441406 5.644531 C 11.421875 5.675781 11.539062 5.667969 11.539062 5.667969 C 11.539062 5.667969 11.367188 5.699219 11.34375 5.695312 C 11.316406 5.6875 11.296875 5.65625 11.261719 5.675781 C 11.226562 5.695312 11.191406 5.734375 11.191406 5.734375 C 11.191406 5.734375 11.222656 5.652344 11.25 5.644531 C 11.277344 5.636719 11.289062 5.636719 11.320312 5.644531 Z M 12.578125 5.484375 C 12.578125 5.484375 12.609375 5.40625 12.65625 5.394531 C 12.703125 5.382812 12.761719 5.425781 12.761719 5.425781 C 12.761719 5.425781 12.683594 5.414062 12.660156 5.425781 C 12.640625 5.4375 12.632812 5.472656 12.632812 5.472656 C 12.632812 5.472656 12.648438 5.445312 12.707031 5.453125 L 12.769531 5.457031 C 12.769531 5.457031 12.671875 5.457031 12.648438 5.488281 C 12.625 5.515625 12.738281 5.535156 12.738281 5.535156 C 12.738281 5.535156 12.5625 5.527344 12.542969 5.515625 C 12.523438 5.503906 12.503906 5.464844 12.464844 5.472656 C 12.425781 5.480469 12.386719 5.515625 12.386719 5.515625 C 12.386719 5.515625 12.433594 5.441406 12.460938 5.441406 C 12.488281 5.441406 12.503906 5.441406 12.53125 5.457031 Z M 13.128906 5.550781 C 13.128906 5.550781 13.167969 5.472656 13.222656 5.46875 C 13.261719 5.460938 13.316406 5.511719 13.316406 5.511719 C 13.316406 5.511719 13.246094 5.496094 13.21875 5.503906 C 13.191406 5.511719 13.183594 5.542969 13.183594 5.542969 C 13.183594 5.542969 13.203125 5.519531 13.261719 5.53125 L 13.324219 5.546875 C 13.324219 5.546875 13.226562 5.539062 13.199219 5.5625 C 13.171875 5.585938 13.28125 5.617188 13.28125 5.617188 C 13.28125 5.617188 13.109375 5.585938 13.085938 5.574219 C 13.070312 5.558594 13.058594 5.519531 13.019531 5.523438 C 12.980469 5.527344 12.933594 5.554688 12.933594 5.554688 C 12.933594 5.554688 12.992188 5.488281 13.019531 5.496094 C 13.046875 5.496094 13.066406 5.5 13.085938 5.515625 Z M 13.675781 5.648438 C 13.675781 5.648438 13.714844 5.59375 13.757812 5.589844 C 13.792969 5.589844 13.832031 5.632812 13.832031 5.632812 C 13.832031 5.632812 13.773438 5.613281 13.753906 5.617188 C 13.734375 5.621094 13.722656 5.648438 13.722656 5.648438 C 13.722656 5.648438 13.742188 5.628906 13.785156 5.644531 L 13.835938 5.660156 C 13.835938 5.660156 13.757812 5.644531 13.734375 5.660156 C 13.710938 5.675781 13.796875 5.714844 13.796875 5.714844 C 13.796875 5.714844 13.660156 5.675781 13.640625 5.664062 C 13.628906 5.652344 13.625 5.621094 13.59375 5.621094 C 13.558594 5.621094 13.519531 5.640625 13.519531 5.640625 C 13.519531 5.640625 13.570312 5.589844 13.59375 5.597656 C 13.613281 5.597656 13.628906 5.605469 13.644531 5.617188 Z M 13.675781 5.648438 "/>
<path style="fill-rule:nonzero;fill:rgb(5.882353%,39.607844%,27.058825%);fill-opacity:1;stroke-width:0.7;stroke-linecap:butt;stroke-linejoin:round;stroke:rgb(0%,0%,0%);stroke-opacity:1;stroke-miterlimit:4;" d="M 305 129.671053 C 305.4 131.447368 303.4 133.223684 300.6 133.717105 C 297.8 134.210526 295.3 133.421053 295 131.743421 C 294.7 129.967105 296.6 128.289474 299.4 127.697368 C 302.2 127.105263 304.7 127.993421 305 129.671053 Z M 305 129.671053 " transform="matrix(0.0390625,0,0,0.0395833,0,0)"/>
<path style=" stroke:none;fill-rule:nonzero;fill:rgb(80.784315%,81.176472%,75.686276%);fill-opacity:1;" d="M 11.671875 5.121094 C 11.671875 5.140625 11.660156 5.152344 11.632812 5.160156 C 11.605469 5.164062 11.589844 5.15625 11.582031 5.140625 C 11.582031 5.125 11.59375 5.109375 11.621094 5.101562 C 11.648438 5.101562 11.664062 5.109375 11.671875 5.121094 "/>
<path style="fill-rule:nonzero;fill:rgb(5.882353%,39.607844%,27.058825%);fill-opacity:1;stroke-width:0.7;stroke-linecap:butt;stroke-linejoin:round;stroke:rgb(0%,0%,0%);stroke-opacity:1;stroke-miterlimit:4;" d="M 344.1 131.842105 C 343.6 133.421053 341.1 134.013158 338.3 133.223684 C 335.5 132.434211 333.9 130.263158 334.3 128.684211 C 334.9 127.105263 337.5 126.414474 340.2 127.302632 C 342.9 128.190789 344.7 130.065789 344.2 131.743421 Z M 344.1 131.842105 " transform="matrix(0.0390625,0,0,0.0395833,0,0)"/>
<path style=" stroke:none;fill-rule:nonzero;fill:rgb(80.784315%,81.176472%,75.686276%);fill-opacity:1;" d="M 13.234375 5.085938 C 13.226562 5.105469 13.210938 5.109375 13.183594 5.101562 C 13.15625 5.089844 13.144531 5.078125 13.148438 5.0625 C 13.15625 5.042969 13.171875 5.039062 13.199219 5.042969 C 13.226562 5.054688 13.238281 5.066406 13.234375 5.082031 Z M 13.234375 5.085938 "/>
<path style="fill-rule:nonzero;fill:rgb(12.156863%,17.647059%,52.549022%);fill-opacity:1;stroke-width:1;stroke-linecap:butt;stroke-linejoin:round;stroke:rgb(0%,0%,0%);stroke-opacity:1;stroke-miterlimit:4;" d="M 314.6 126.019737 L 324.7 126.019737 L 324.7 130.953947 L 314.6 130.953947 Z M 314.6 126.019737 " transform="matrix(0.0390625,0,0,0.0395833,0,0)"/>
<path style=" stroke:none;fill-rule:nonzero;fill:rgb(43.921569%,48.627451%,54.509807%);fill-opacity:1;" d="M 12.457031 5.027344 C 12.457031 5.039062 12.445312 5.046875 12.417969 5.046875 C 12.378906 5.046875 12.378906 5.039062 12.378906 5.027344 C 12.382812 5.015625 12.394531 5.011719 12.417969 5.011719 C 12.449219 5.011719 12.460938 5.015625 12.457031 5.027344 "/>
<path style="fill-rule:evenodd;fill:rgb(62.352943%,7.058824%,3.529412%);fill-opacity:1;stroke-width:0.5;stroke-linecap:butt;stroke-linejoin:miter;stroke:rgb(0%,0%,0%);stroke-opacity:1;stroke-miterlimit:4;" d="M 286 130.953947 L 287.6 135.986842 L 284.6 137.664474 C 284.6 137.664474 283.1 138.651316 281.6 137.861842 C 280.2 137.171053 279.4 134.901316 280.2 133.914474 C 281.7 132.138158 285.9 130.855263 285.9 130.953947 Z M 286 130.953947 " transform="matrix(0.0390625,0,0,0.0395833,0,0)"/>
<path style=" stroke:none;fill-rule:nonzero;fill:rgb(56.078434%,19.607843%,18.431373%);fill-opacity:1;" d="M 11.070312 5.328125 C 11.066406 5.363281 11.046875 5.382812 11.011719 5.386719 C 10.957031 5.394531 10.957031 5.359375 10.957031 5.328125 C 10.960938 5.289062 10.976562 5.269531 11.011719 5.269531 C 11.0625 5.265625 11.070312 5.292969 11.070312 5.328125 "/>
<path style=" stroke:none;fill-rule:nonzero;fill:rgb(88.627452%,64.313728%,58.039218%);fill-opacity:1;" d="M 11.015625 5.304688 L 11.007812 5.332031 L 10.988281 5.332031 L 10.972656 5.3125 L 10.980469 5.285156 L 11 5.28125 C 11.011719 5.28125 11.015625 5.289062 11.015625 5.304688 "/>
<path style="fill-rule:evenodd;fill:rgb(62.352943%,7.058824%,3.529412%);fill-opacity:1;stroke-width:0.5;stroke-linecap:butt;stroke-linejoin:miter;stroke:rgb(0%,0%,0%);stroke-opacity:1;stroke-miterlimit:4;" d="M 353.9 131.743421 L 352.2 136.085526 L 356.2 138.059211 C 356.2 138.059211 357.9 138.947368 359 137.960526 C 360.1 137.072368 360.2 135.197368 359.4 134.309211 C 358.6 133.421053 353.8 131.743421 353.9 131.743421 Z M 353.9 131.743421 " transform="matrix(0.0390625,0,0,0.0395833,0,0)"/>
<path style=" stroke:none;fill-rule:nonzero;fill:rgb(66.666669%,40.392157%,36.470589%);fill-opacity:1;" d="M 14.007812 5.351562 C 14.003906 5.378906 13.988281 5.390625 13.957031 5.390625 C 13.910156 5.390625 13.910156 5.375 13.910156 5.351562 C 13.910156 5.328125 13.933594 5.3125 13.957031 5.3125 C 13.988281 5.316406 14.003906 5.328125 14.007812 5.351562 "/>
<path style=" stroke:none;fill-rule:nonzero;fill:rgb(88.627452%,64.313728%,58.039218%);fill-opacity:1;" d="M 13.960938 5.34375 C 13.960938 5.355469 13.957031 5.367188 13.949219 5.371094 L 13.925781 5.371094 L 13.914062 5.347656 C 13.914062 5.335938 13.917969 5.328125 13.925781 5.324219 L 13.949219 5.324219 C 13.957031 5.324219 13.960938 5.332031 13.960938 5.347656 Z M 13.960938 5.34375 "/>
<path style=" stroke:none;fill-rule:nonzero;fill:rgb(96.078432%,84.705883%,73.725492%);fill-opacity:1;" d="M 12.835938 5.003906 C 12.832031 5.019531 12.820312 5.027344 12.804688 5.03125 C 12.792969 5.027344 12.78125 5.015625 12.777344 5.003906 C 12.78125 4.988281 12.792969 4.980469 12.804688 4.976562 C 12.824219 4.976562 12.832031 4.984375 12.835938 5.003906 M 13.003906 5.011719 C 13 5.023438 12.988281 5.035156 12.976562 5.039062 C 12.960938 5.035156 12.949219 5.027344 12.945312 5.011719 C 12.949219 5 12.960938 4.988281 12.976562 4.988281 C 12.992188 4.988281 13 4.996094 13.003906 5.011719 M 12.917969 5.078125 C 12.917969 5.101562 12.90625 5.113281 12.878906 5.113281 C 12.839844 5.117188 12.847656 5.097656 12.847656 5.078125 C 12.847656 5.058594 12.863281 5.042969 12.882812 5.042969 C 12.902344 5.042969 12.917969 5.058594 12.917969 5.082031 Z M 12.996094 5.1875 C 12.992188 5.203125 12.984375 5.210938 12.972656 5.21875 C 12.957031 5.214844 12.945312 5.203125 12.941406 5.1875 C 12.945312 5.175781 12.957031 5.164062 12.96875 5.160156 C 12.988281 5.160156 13 5.171875 13 5.1875 Z M 12.835938 5.167969 C 12.832031 5.183594 12.820312 5.195312 12.808594 5.199219 C 12.796875 5.195312 12.785156 5.183594 12.78125 5.167969 C 12.785156 5.15625 12.796875 5.144531 12.808594 5.140625 C 12.824219 5.140625 12.832031 5.152344 12.835938 5.167969 M 12.019531 5.03125 C 12.019531 5.042969 12.011719 5.054688 12 5.0625 C 11.984375 5.0625 11.972656 5.054688 11.964844 5.042969 C 11.964844 5.027344 11.976562 5.015625 11.988281 5.011719 C 12 5.011719 12.011719 5.019531 12.019531 5.03125 M 12.1875 5.003906 C 12.1875 5.015625 12.175781 5.03125 12.164062 5.035156 C 12.152344 5.035156 12.140625 5.027344 12.132812 5.015625 C 12.132812 5.003906 12.140625 4.988281 12.152344 4.984375 C 12.167969 4.984375 12.179688 4.992188 12.1875 5.003906 M 12.117188 5.085938 C 12.117188 5.109375 12.109375 5.125 12.09375 5.125 C 12.074219 5.128906 12.058594 5.121094 12.050781 5.101562 C 12.046875 5.085938 12.058594 5.0625 12.078125 5.0625 C 12.09375 5.0625 12.109375 5.070312 12.117188 5.085938 M 12.222656 5.175781 C 12.222656 5.191406 12.214844 5.203125 12.203125 5.210938 C 12.1875 5.210938 12.175781 5.203125 12.167969 5.1875 C 12.167969 5.175781 12.175781 5.164062 12.1875 5.15625 C 12.203125 5.15625 12.214844 5.164062 12.222656 5.175781 M 12.058594 5.191406 C 12.058594 5.207031 12.050781 5.21875 12.039062 5.226562 C 12.023438 5.226562 12.011719 5.21875 12.003906 5.207031 C 12.003906 5.191406 12.015625 5.179688 12.027344 5.171875 C 12.039062 5.175781 12.050781 5.183594 12.058594 5.191406 M 11.308594 5.183594 C 11.3125 5.199219 11.304688 5.214844 11.292969 5.226562 C 11.28125 5.226562 11.265625 5.21875 11.257812 5.210938 C 11.253906 5.195312 11.261719 5.179688 11.273438 5.167969 C 11.289062 5.167969 11.304688 5.171875 11.3125 5.183594 Z M 11.46875 5.132812 C 11.472656 5.148438 11.464844 5.164062 11.453125 5.171875 C 11.4375 5.175781 11.425781 5.167969 11.417969 5.152344 C 11.417969 5.140625 11.421875 5.125 11.433594 5.117188 C 11.449219 5.117188 11.464844 5.121094 11.472656 5.132812 Z M 11.414062 5.230469 C 11.417969 5.246094 11.410156 5.261719 11.394531 5.269531 C 11.378906 5.273438 11.359375 5.265625 11.351562 5.253906 C 11.347656 5.234375 11.355469 5.21875 11.371094 5.210938 C 11.386719 5.207031 11.40625 5.214844 11.414062 5.230469 M 11.53125 5.300781 C 11.535156 5.316406 11.527344 5.332031 11.515625 5.339844 C 11.5 5.339844 11.488281 5.332031 11.476562 5.320312 C 11.460938 5.300781 11.480469 5.292969 11.496094 5.285156 C 11.507812 5.28125 11.523438 5.289062 11.53125 5.300781 M 11.371094 5.339844 C 11.375 5.355469 11.367188 5.371094 11.355469 5.378906 C 11.339844 5.382812 11.324219 5.375 11.316406 5.363281 C 11.3125 5.355469 11.3125 5.347656 11.316406 5.339844 C 11.320312 5.332031 11.328125 5.324219 11.335938 5.324219 C 11.351562 5.320312 11.367188 5.328125 11.375 5.339844 Z M 13.566406 5.109375 C 13.5625 5.125 13.546875 5.132812 13.527344 5.128906 C 13.511719 5.121094 13.503906 5.105469 13.507812 5.089844 C 13.511719 5.078125 13.523438 5.070312 13.546875 5.074219 C 13.5625 5.078125 13.570312 5.089844 13.566406 5.109375 M 13.738281 5.160156 C 13.734375 5.179688 13.722656 5.1875 13.703125 5.183594 C 13.6875 5.179688 13.679688 5.164062 13.679688 5.144531 C 13.683594 5.128906 13.699219 5.125 13.71875 5.125 C 13.734375 5.132812 13.742188 5.144531 13.738281 5.164062 Z M 13.632812 5.210938 C 13.628906 5.226562 13.609375 5.238281 13.589844 5.238281 C 13.570312 5.234375 13.554688 5.214844 13.558594 5.191406 C 13.5625 5.171875 13.585938 5.160156 13.605469 5.164062 C 13.625 5.171875 13.636719 5.1875 13.632812 5.210938 M 13.691406 5.347656 C 13.6875 5.363281 13.671875 5.371094 13.652344 5.367188 C 13.640625 5.359375 13.632812 5.347656 13.632812 5.332031 C 13.636719 5.316406 13.648438 5.308594 13.667969 5.3125 C 13.6875 5.316406 13.695312 5.332031 13.691406 5.351562 Z M 13.523438 5.285156 C 13.519531 5.300781 13.507812 5.308594 13.488281 5.304688 C 13.476562 5.296875 13.46875 5.28125 13.46875 5.269531 C 13.472656 5.253906 13.484375 5.246094 13.503906 5.25 C 13.519531 5.253906 13.527344 5.265625 13.523438 5.285156 "/>
<path style="fill:none;stroke-width:1.2;stroke-linecap:butt;stroke-linejoin:miter;stroke:rgb(0%,0%,0%);stroke-opacity:1;stroke-miterlimit:4;" d="M 356 89.013158 C 356 89.013158 354 90.888158 351.5 90.888158 C 349.8 90.888158 348.2 90.394737 346.9 89.309211 C 346.1 88.815789 347.1 87.335526 347.1 87.335526 " transform="matrix(0.0390625,0,0,0.0395833,0,0)"/>
<path style="fill:none;stroke-width:1.1;stroke-linecap:butt;stroke-linejoin:miter;stroke:rgb(0%,0%,0%);stroke-opacity:1;stroke-miterlimit:4;" d="M 312.9 92.763158 C 312.9 92.763158 309.2 92.072368 307.6 91.578947 C 306 91.085526 306.5 90.098684 304.6 90.197368 C 302.9 90.296053 301.1 91.578947 301.5 93.355263 C 301.9 95.230263 303.2 95.427632 304.5 95.131579 C 305.7 94.736842 305.3 92.467105 303.7 92.664474 C 302 92.664474 303.4 94.243421 303.4 94.243421 " transform="matrix(0.0390625,0,0,0.0395833,0,0)"/>
<path style="fill:none;stroke-width:1;stroke-linecap:butt;stroke-linejoin:miter;stroke:rgb(0%,0%,0%);stroke-opacity:1;stroke-miterlimit:4;" d="M 287.3 90 C 287.3 90 288.3 91.480263 291 91.184211 C 293.7 90.986842 294.7 89.605263 294.8 88.914474 C 295 88.322368 294.8 87.138158 294.3 86.644737 C 293.8 86.052632 292 85.855263 292 85.855263 " transform="matrix(0.0390625,0,0,0.0395833,0,0)"/>
<path style="fill-rule:nonzero;fill:rgb(80.000001%,0%,0%);fill-opacity:1;stroke-width:1.6;stroke-linecap:butt;stroke-linejoin:miter;stroke:rgb(8.627451%,6.666667%,6.666667%);stroke-opacity:1;stroke-miterlimit:4;" d="M 339.2 270.394737 C 341.7 267.927632 345.7 265.164474 347.9 259.440789 C 349.9 253.815789 350.9 243.651316 352.9 238.618421 C 355.4 229.835526 360.4 221.151316 354.4 221.842105 C 348.7 222.434211 346.9 227.763158 344.8 231.809211 C 343.8 233.289474 341.5 236.546053 341.1 238.322368 C 341 235.263158 339.4 226.381579 339.1 217.5 C 338.8 209.111842 339.1 200.526316 338.8 197.171053 C 338.6 192.927632 338.6 188.881579 337.6 185.822368 C 337.1 184.342105 335 182.763158 333.8 182.861842 C 331.6 182.861842 330.2 184.934211 329.8 186.809211 L 329.6 189.572368 C 329.4 192.039474 329.6 195.098684 329.4 197.861842 C 329.3 200.921053 329.6 204.078947 329.4 206.940789 C 329.2 212.269737 328.8 217.401316 328.6 218.388158 C 328.6 216.414474 327.6 206.743421 327.3 197.467105 L 327.1 187.5 C 327.1 184.934211 327.1 182.072368 326.9 180.098684 C 326.5 176.743421 325.2 175.065789 322.9 175.065789 C 321.1 175.065789 318.7 176.447368 317.9 180.098684 C 317.6 182.269737 317.5 184.736842 317.6 187.5 L 317.8 195.493421 C 317.6 205.953947 317.4 217.006579 317 220.263158 C 317 219.276316 315.9 213.848684 315.6 206.447368 L 315.2 196.776316 L 314.9 187.203947 C 314.9 185.625 314.2 180.986842 311.2 181.184211 C 309.5 180.986842 307.8 182.171053 307.2 186.513158 C 306.8 188.980263 306.8 193.125 306.7 196.381579 C 306.6 202.401316 306.3 207.828947 306.7 213.256579 L 306.8 220.953947 C 306.8 221.447368 305.9 218.092105 305.5 213.552632 L 304.7 204.967105 C 304.7 202.697368 304.6 199.342105 304.4 196.480263 C 304.2 194.407895 304.3 192.039474 301.9 192.236842 C 299.5 192.335526 298.1 193.223684 297.6 197.171053 C 297.2 199.934211 297.2 205.657895 297.1 207.730263 C 297.3 212.960526 295.9 225.394737 295.3 228.947368 C 295.1 231.414474 294.1 234.572368 293.7 238.125 C 293 244.934211 293.4 251.940789 294.7 258.651316 C 296.7 265.657895 301.7 268.914474 301.5 273.651316 C 301.3 278.486842 301.5 286.973684 301.5 290.723684 C 301.5 294.473684 304.8 294.671053 311.5 293.289474 C 322.7 290.921053 328.8 295.657895 337.9 292.105263 C 336.8 281.743421 339 275.427632 338.9 271.578947 Z M 332.7 245.723684 C 335 239.309211 337.9 236.842105 340.7 235.460526 " transform="matrix(0.0390625,0,0,0.0395833,0,0)"/>
<path style="fill:none;stroke-width:1.6;stroke-linecap:butt;stroke-linejoin:miter;stroke:rgb(8.627451%,6.666667%,6.666667%);stroke-opacity:1;stroke-miterlimit:4;" d="M 307.4 239.210526 C 310.9 237.828947 314.4 236.644737 318 235.559211 C 322.3 234.375 326.5 232.598684 331 232.006579 C 333 231.414474 335.1 231.019737 337.4 231.019737 M 301.3 272.960526 C 301.7 272.664474 302.3 273.157895 302.7 273.256579 C 303.4 273.552632 304 273.651316 304.7 273.552632 L 308.7 273.552632 C 310.4 273.651316 311.8 273.355263 313 272.565789 M 323 273.157895 L 324.6 274.144737 C 325.4 274.440789 326.4 274.539474 331.9 274.144737 C 335.4 274.342105 338.4 271.282895 339.3 270.493421 " transform="matrix(0.0390625,0,0,0.0395833,0,0)"/>
</g>
</svg>
