<svg xmlns="http://www.w3.org/2000/svg" width="25" height="19" viewBox="0 0 25 19"><path d="M0 9.5h25V19H0Zm0 0" style="stroke:none;fill-rule:nonzero;fill:#00ab39;fill-opacity:1"/><path d="M0 0h25v9.5H0Zm0 0" style="stroke:none;fill-rule:nonzero;fill:#fff;fill-opacity:1"/><path d="M419 70.757h-.1Zm-.1 0a695 695 0 0 0-111.8 75c-17 14.9-12.2 26.743-12.9 40.065.6 8.98-1.9 17.369-7.4 22.402l-37.8 7.598-3.6-10.46c1.1-5.33 5.5-7.994 14.9-4.638.7-6.81-4.9-9.671-11.3-12.04-2.3-1.776-5-2.96-4.7-8.98-1-13.52 20.6.987 20.8.987s-.8-13.717-10.7-16.382c-5.4-1.875-7.7-7.598-5.6-11.842 4.3-8.684 12.5.592 18.7.987-.2-5.625-1.8-9.671-6.7-14.112-2.6-1.776-9-2.96-9.2-5.625-.1-3.651 6-5.23 14.5-4.243-1.8-5.033-7.5-8.388-15.3-10.757l-4.6-8.092c-2.2-4.046-3.2-4.243 1.9-11.842 4.5-2.96 10.6-7.204 15.2-10.066l-5-.592c.6-5.526.7-7.401 2-16.48-5 6.612-11 5.427-16.6 8.19 0 0-15.6 2.764-20.7 9.474l-39.4-1.973c-8.4 1.085-15.5 3.453-16.9 11.546-19.1 1.973-39.1.296-53.7 18.552 10-.395 18.6-2.862 29.8-1.48 0 0 9.5.197 11.4 10.362.2.395 3.3.395 3.3.395l3.6 2.763 1.4-3.75 3.2 2.17 1-4.243 3.2 2.27.2-5.033 4.2 3.06v-6.711s15.6 0 20.4 9.967c.2.099-43.7 7.993-86.1 4.342l12.2-6.02c-15.4-3.256-30-6.02-43.6-16.677 5.1 19.342 31.7 42.04 37.2 41.94l-5.2-9.375 46 1.974c1.7 5.132 1 10.855 5 15.296 0 0-2.5 8.388 3.2 11.842.2.395 6.7-17.072 6.7-17.072s2 4.737 4 7.895c3-15 19.4-17.566 19.4-17.566l3.4 7.993c-5.1.79-11.5 11.25-8 17.073-3.5 0-9.6 10.065-7.7 15.592-2.9 2.862-10 6.612-8.3 18.75-5.6 1.184-9 11.546-7.2 22.5-8.8 8.092-6.6 22.993 1.2 29.112-3.2 2.96-5.2 5.131-5.2 8.684-3.1-1.086-6-.198-7.3 1.776-3.8-3.849-9.2-7.204-13-3.552-1-4.639-7-9.573-13.5-8.98.7-6.02-3.2-11.547-9-13.027 0 0-1.5-22.599-8.3-30-.7-4.046.4-6.81 6-10.165 5.7-3.059 6.9-5.328 6.4-13.914 2.3-5.724 4-11.546-3-15.395.2 6.81-1.8 9.967-4.6 12.928-3.3-.395-4.4 3.454-6.6 5.033-3.1-4.046 6.5-10.56-.6-19.934-.4-.395-5-11.941-16.3-11.744 5.3 3.06 7.6 8.388 7.6 13.915-4.2 9.177-4.8 19.638-1.8 29.309-4.7-7.007-7.4-20.428-11.3-22.698-3.4-.69-5-8.782-18.3-6.414 5.7 1.48 7.6 5.921 9 9.77-3.4 1.776-1.7 6.612.9 9.868-.5 7.698 4.1 12.237 11 15l-3.4 31.776c-2.7-.296-7 10.362-8.6 10.658-2.7 1.678-7.4 6.217-2 7.5-1.6 5.724-3.1 9.178-11.7 10.362 0 0 9 5.428 16.6-3.75 8-.197 5.4-9.77 9.3-14.013 0-.296 2.3-1.678 5.5-10.164 1.4 7.598 9.2 30.79 26.7 42.236 15.3 16.48 28 31.974 27.8 53.685 5.9-6.415 10.1-14.21 12.3-22.698 10-2.96 20.4-4.144 30.8-3.552-1.8 3.848-3.9 7.598-1.3 9.967-7.4 2.664-9 7.993-6 13.322-7.8 5.33-8.3 8.684-8.4 17.467-14.5 18.553-23.4 17.96-37.7 13.027-4.6-2.665-12-6.612-15.3-4.441-6.1-4.244-15-4.836-16.5 4.54 4.7-3.85 7.4-3.06 11.1.591-.7 1.875-1.3 3.75 1.4 4.836l-3.6 3.947c-6.6-.987-15.6-.987-17.9 8.783 3.4-2.96 11-3.553 17-.888l3.5 1.283.4 4.54s-9-1.382-11.4 13.322c8.4-8.98 14.4-6.71 14.4-6.71 3.3 4.835 15.3 4.144 24-3.75 12.1-6.81 15.7 2.96 23.5-3.455 6.5-4.737 14.2-1.579 19.5 4.046 6.1 2.27 12.5 4.145 17.5 0 0 0 6.2-3.947 12.3 2.369 0-7.007-5-10.856-11.8-10.954l-2-2.073c-6.5-1.381-13.7-.79-19.4-3.947 2.2-10.164 7.1-19.44 14.1-27.04 9.3-9.967 16.2-14.605 28-29.9-.5 8.683 6.1 18.354 9.6 27.039 0 0 7-11.152 8-20.33.3 0 8.9-4.44 12.5-8.289 7.8 4.934 20.4-3.848 28.6-11.052 5 2.072 8.9 1.875 14.7 0-4.7 9.67 2.7 18.552 14.5 22.204 1 8.486 9.6 10.263 22.5 10.263.6 4.934 8.3 5.723 8.3 5.723-5 2.171-7.4 4.441-7.3 9.573-5 0-8.7 1.283-10 7.006-6.9.198-13.9.691-19.8 3.948-6.3-.888-14-3.454-18.9-8.586-2.5-2.072-3.2-5.23-7.6-6.414-2.8-3.257-6.2-2.566-7.3.592-2.9-2.27-13.8-3.257-15.7 7.006 5.2-3.65 9.7-5.032 13-.493-1.8 3.158 4.2 5.033 9.4 6.217 3.7.197 10.2 3.651 12.2 9.178-5.7 1.677-11.8.69-16.7-2.566-3.7-3.06-9-3.454-13-.79-4.4-2.861-14.7 2.468-15.1 10.856 4.3-3.948 8.3-5.921 12.3-3.356-2 .395-1.3.593-1 1.777l10 5.822c-5 1.283-9.6 3.257-7.4 12.533 0 0 4-8.092 13-5.033.2-.296 1.3 2.763 3.9.69 3.9-4.44 12.8-6.414 20.7-7.203 6.3-.69 12.6-2.566 18 .987 5-2.467 10.4-4.145 16-.198 6.6 1.974 11.4 9.77 19.7 6.316 4.2-2.96 9.3-2.96 14.5 2.763 0-7.4-5.5-9.868-13.3-11.447l-5.4-3.257c-5-.789-10 .1-15.1-2.27 24.2-5.723 45-21.019 57.7-42.433l12.5 4.44c3 .198 3.2 1.185 9.3 2.96.2-8.88-3.7-18.058-19.8-18.947l-21-7.993c-4.6-4.835-6.6-14.901-.9-20.822 5.6-5.033 6.6-4.441 10.3-10.46 4.5-.396 8.7 4.144 12.8 4.144 2 5.92 13.4 11.053 20.6 9.276 4.5 4.046 13 6.217 22.5 3.06 5.5 5.23 13.7 6.414 20.5 2.96 2.2 2.27 6.8 4.046 12 2.862.5 0 2.8 5.723 8.5 7.895-2.5 2.368-1 12.927 1.7 16.875-1.9 3.947-2.3 8.486-.9 12.73-5.8 3.651-7 6.414-4.4 12.73-7.6 12.336-16.7 13.717-25.3 10.066l-9.3-6.02-9.8-9.572c-1.7-1.678-5.2-2.073-5.9 1.381 0 0-12.6-2.862-13.7 7.895 5.3-5.132 12.7-.592 12.7-.395 0 .198-1.8 1.382-.4 3.356.3-.296 9.3 3.355 17.2 6.71 4.3 1.678 5.3 2.171 7.2 3.257l-7.2-3.257c-3.5-1.579-7.2-2.566-11-2.862-4.4-.394-9.2-.987-11.4 2.369-4.8 1.973-12.4 3.75-12 12.73 3.2-5.428 7.7-5.132 13.4-4.638l-.4 1.184c6.2 2.862 5-.79 10.8-1.283 5.2-.099 10.4.79 15.3 2.467-4.5 1.382-10.7.79-13.6 4.046-.6.987-2.5.592-1.6 3.158 0 0-9-.197-11.3 12.04 9-5.724 15.9-5.527 16-5.527l2.9.592 11-7.302c.3 0 10.6-4.54 15.3.592 4.2 2.072 8.6 2.27 13-.395 8.4-3.651 16.3-3.947 24 1.283l7.1 4.145 3-1.974s8-2.17 13.8 4.836c-2.4-12.237-11.2-12.632-11.2-12.632l-2-1.776-12.4-4.934c-1.9-4.54-6.4-7.994-1.9-13.422 4.7-23.092 10.2-40.361 1.2-63.75 8.4 3.553 14.7 14.803 25.2 10.856 0-9.375-34.6-27.336-61-41.546 43.4-2.369 95.4-34.244 75.4-74.803l9.4-29.408c4.5 8.98 13.5 15.79 21.6 18.651-6.7-12.73-10.5-51.611-6.7-78.355-17.7 21.217-36.8 41.25-57.1 60 10 2.369 18.9.691 28.6-.493l-8.2 16.973c-26.6-15.69-57.8-4.046-58 16.777.9 24.177 30.8 27.73 48.1 19.243-3.4 22.105-54.2 14.013-54.2 14.013-18-6.217-35.1-5.23-54-5.033 3.9-12.138 25.7-22.894 42.4-18.157-23.3-26.152 3.3-58.619 35.4-68.586-35-11.546-4.9-38.29 21.3-57.335 0 0-75.3 31.677-82.2 31.578-21.4-1.578-15.6-27.039-7.4-40.657ZM182.5 101.15c1.9 0 3.7.296 5.5.691 3.4.888 7.5 1.283 7.5 2.369-1.6 2.565-5.5 5.723-9.3 5.625-3.8-.1-6-2.566-7.2-8.191.5-.296 1.7-.494 3.5-.494Zm317 89.408c5 0 10.9 2.073 16.6 8.29-2.7 7.993-26.8 11.94-28.4.197-.5-3.651 4.6-8.388 11.8-8.487Zm0 0" style="fill-rule:nonzero;fill:#d21034;fill-opacity:1;stroke-width:1.4;stroke-linecap:butt;stroke-linejoin:miter;stroke:#000;stroke-opacity:1;stroke-miterlimit:4" transform="scale(.03906 .03958)"/><path d="m207.4 171.217 3.7 5.33m-.2.098s0 7.204 1.5 7.302m-3.3 3.85 3.8 6.315m-10.5 1.579c.2 0 4.7 5.23 4.7 5.23m3.9-4.046c0 .197 4.2 8.092 4.5 8.092m-10-2.566s1.4 9.573 2.7 9.277m-9 8.29 4.2 6.512m3.7-13.322s2.3 9.178 4.1 8.388m1.9-13.816c.1.198 4.3 6.119 5.4 5.23m-1 2.369 4 7.993m-10.6-1.776 3.3 9.375m-11-4.638s3 10.164 5.7 8.487m-6.8 5.033s.2 5.329 2.8 5.625m1.8-8.29c0 .198 2.7 3.75 2.7 3.75m5-10.066 2.1 3.454m4.9-9.967 3.3 4.046M206 176.743c.1 4.441 7.2-1.677 10-5.427m-13 21.02s7.7-5.527 13.7-13.816m-16.3 26.842c5.5-1.48 15.6-13.619 17.6-20.132m-18.7 32.27c1.5.69 20.3-13.026 20.8-22.895m-21.3 33.356c0-.1 17.2-4.343 24.3-23.29M198 242.27s27.5-16.48 29-28.619M412.4 270s-1.8 14.21-16 16.382m20.5 8.98c.1-.198 13.6-15 10.1-19.44m21.1 5.13s-.2 10.362-8.6 17.468m25.4-14.408s.3 12.434-5 17.368m20.4-9.967s-6 11.645-8.1 12.928m7.9 7.796s7.8 1.974 10.3-3.257m-8.3 20.132s7.2 1.283 10.6-5.625m-11.4 18.75s5.9 4.934 9.9-1.678m-94-94.342s-.7 25.263 34.8 30.395c39.7 10.954 58.5 5.23 60.8 49.737-1.5 16.973-3.6 35.92-16 28.618m-117.4-85.46s5.7 10.065 12.5 9.375c9-2.566 12.3 2.96 12.3 2.96m-49-2.27s15 7.303 27.7-4.44m-26-6.02c1.3 17.467-20.1 27.533-28.6 25.756m29.6 41.053c.1 0 11.6-6.81 9.3-11.645m-32.1 1.48c.3-.394 19.3-2.17 22.8-8.98m-31.6-18.947s26.9.197 28.7 5.033m7-20.921s-26.2 44.901 22.2 44.901m-50-45.493s-5.6 16.677-13.6 22.302m-14.2-28.125s9.7 18.75 0 28.027M261 280.757c.1.296 3.1 26.743-3.5 34.243m-9.2-33.355s1 16.776-4 22.796c-5 5.92 1.2 18.355 1.2 18.355M185 330.79s3.6 6.316 8.5 4.145m-2.5-17.862s8 3.553 10.7 2.27m-2-30.395s-11.8 3.257-7.3 17.27c6.8 5.526 13.4 4.54 13.4 4.54m-29.4 37.4c-.1 0 1.4 11.054 9 2.764 5.3-11.25 22-42.632 25.9-53.388m7.8-5.132s-8.1-6.315-7.8 2.467c-.2 5.527 2.5 6.81 2.5 6.81.3 4.046 3.8 9.67 6.6 4.54 1.2-5.034-.8-7.205-.8-7.205m4.7-8.98c-7.3-.395-11.3 15.69 2.8 5.526m4.8-10.954s-1.8 2.467-4.7-.197c-1.5-2.566-6.8 12.04 2.5 12.533 1.7-4.342 6.8-5.527 6.8-5.527m4.4-13.815s-4.2 1.973-5.7 1.677c-5 1.086-4 12.83 2.3 12.138 2.2-2.467 4.5-6.02 4.5-6.02m-40.3-22.993c-.2 0-16.5 25.658 9.1 32.467m198-70.954s-10 8.389-.7 22.007c-31-.493-47.5 13.816-48.8 23.388-39.4-2.763-32.2 8.783-45 12.632-17.1-14.31-42.2-6.316-40.6 7.993-11.4-16.085-29-8.29-31.2-4.342-2.2 4.046-1.3-19.835-1.3-19.835s-11.5 5.23-19.4 14.605v-19.836c-9.6 1.974-18.9 1.974-28.8 1.777M167.1 255s14.3 7.993 32-2.763M166 226.283s11 10.066 32 6.81m-25-29.705s2.4 8.092 26.3 8.586M181 184.638s9 10.954 21.2 9.276m-13.5-24.967s3.5 5.921 16.8 6.908m-9-24.473s7 7.598 15 6.315M238 89.31s3.1-2.96 8.3-1.48m-10.5 17.763s-9.6-.296-9-3.947c.8-4.441 10.2-7.5 10.2-7.5s12.5-8.092 14.4-10.856m-56.6 44.014 12.2 23.29 5.8-8.784 3 6.02 5-8.684 8.6 5.427-3.2-10.658 7.2-.493s-2-5.132-8.4-6.217c1.7-1.283 7.7-5.329 7.7-5.329s-3.4-3.947-8.8-4.046c1.8-1.974 4.2-6.513 4-6.513l-5.3-1.184s12.2 3.947 21.6-1.678M221 89.704c.1.099-.7 4.835-3.3 7.5m-43.7 5.329s7.5-2.072 13.1-.888c5.6 1.085 13.1 3.158 13.1 3.158s9-1.185 11.9-3.257m-56.8 5.921s-1 3.651-1.4 6.02c0 1.677-5.5 4.046-5.5 4.046m10.3-17.467s4.8 6.02 5 9.572c.1 3.355-3.6 5.921-3.6 5.921M109 141.02l-5-7.993 4.5-1.579M199 252.434c-4-5.23 3-84.276 17.7-104.802-5.1 37.204 12 75.197 16.3 75m-79-97.007s6.8 2.467 20.7-8.586m18.9 26.744 10 .099m300.3-61.974s-166.7 77.763-169.1 82.006c28.1-8.585 147.5-28.52 150.4-26.842-7 1.777-151.9 35.033-158.7 43.027 36.2-1.185 111.9 11.644 123.8 23.98-25.8-5.822-102.7-17.072-126.3-12.04 17.2 4.047 83.2 46.777 83.2 53.586-10-9.572-89.3-42.237-92.4-38.98 18.2 10.855 43.9 51.316 43.9 61.283-5.3-8.389-51.2-57.73-53.9-54.573 4.9 6.71 14.5 64.934 9.6 67.599 0-6.908-17.8-57.928-19.3-59.31-3.6.988-26.3 61.974-21.8 67.797-3-20.428.5-63.06 6-61.382-10 1.58-41.7 43.421-38.3 50.033 1-10.46 2.4-17.368 20.4-52.105-20 1.184-61.2 27.138-68.2 36.414 5.6-16.48 40.5-44.408 55.8-46.381m72-60.691c17.6-9.868 72-29.704 108.4-44.408m-142.6 97.007s12-.198 24-32.862c11.8-44.605 105.7-94.244 107.6-103.52M128 252.83s-2.8 6.02-6.2 7.599m19.7 1.381s-3.7 7.204-4.6 10.56m17.5-7.007s3 9.868.5 14.408m-36.4-40.066c-9.4 5.329 5.4 38.98 50.1 42.237m-7.2-18.257s-1.2 6.02 7.2 18.06c-2.4 13.322 10.2 23.881 15.2 25.559m-26-164.21 1.4-3.554 1.5 3.948 2.5-.099 1.6-3.947 1.4 3.947h2.4l1.5-4.342 2.3 4.145h2l1.5-5.033 3 3.651 1.2-.395 1-5.23 3.1 3.652 1-.494 1.4-5.033 2.5 3.652 1.3-.395 1.2-4.244 2.4 3.948m-39 6.217 18.8-.296c6 0 15.8-8.29 26.7-5.724m-84.9 45.987s3.1 6.81 7.4 3.06m-14.6 1.48s-6 16.184 1.2 20.032m-9.8-37.796s0 3.75 8-2.072M75.3 254.9s6.3 1.974 5.3 6.71m-3-80.822s4 1.875 7.8-3.947m34.2 189.671c6.1-.395 7.5 2.369 13 2.369 6.6.197 12.9-2.369 21-4.639m53.1 15c-.2 0-3 5.724-.5 8.685m-87.5-8.191s9.8-7.994 15-3.158c4.9 1.678 7.6 1.382 7.6 1.382m-17.5-21.218s2.4 6.119-5.6 5.23m-2.4 8.98s5.1 3.258-.7 7.5m3.8 5.823s7 .987 2.9 6.71M346 341.646s19 1.973 20 3.355c2.2-2.27 19.2-16.184-1.7-18.06-2 8.488-9.5 14.606-18.3 14.705Zm-6.8 9.473c7.1 5.724 4.2 9.08 26.6-5.92M329 358.223s10.5 11.348 18.2-2.467m-38.3 6.513-14.3 7.5M269 380.329s8.7-7.401 12.7-3.553c4 3.948 21.3-3.355 21.3-3.355m-27.5-25.46s3 6.02-2.8 6.71m-8.5 11.94s3 5.626-2.8 7.007m9.5 8.093s9 .493 5.8 7.302m78.4-8.487s-5 4.145-1.3 8.98m73-38.98s5.7 2.763-1.1 7.5m-5.7 9.869s4.3 4.54 1.4 8.19m10.6 8.98s5.9 1.777 5.2 6.613m77.8-10.954s-5 3.651-2.3 8.388M427 236.349c11.8-1.48 28.8 24.967 37.5 30.098m51.9-67.4s6 5.23.7 17.96m10.4-38.191c1.7 1.283 8.1 4.737 12.4 12.829m4.1-52.204-8.3 22.5m17.6-23.684s-1.6 20.032-4 24.079M516 198.849c-2.7 7.993-26.8 11.94-28.4.197-.9-6.02 14.2-15.395 28.4-.197Zm0 0" style="fill:none;stroke-width:1.4;stroke-linecap:butt;stroke-linejoin:round;stroke:#000;stroke-opacity:1;stroke-miterlimit:4" transform="scale(.03906 .03958)"/><path d="m182.3 101.349 9.3 1.677s-6.5 8.783-9.3-1.677Zm0 0" style="fill-rule:nonzero;fill:#000;fill-opacity:1;stroke-width:1.4;stroke-linecap:butt;stroke-linejoin:round;stroke:#000;stroke-opacity:1;stroke-miterlimit:4" transform="scale(.03906 .03958)"/></svg>