<?xml version="1.0" encoding="UTF-8"?>
<svg xmlns="http://www.w3.org/2000/svg" xmlns:xlink="http://www.w3.org/1999/xlink" width="25px" height="19px" viewBox="0 0 25 19" version="1.1">
<g id="surface1">
<path style=" stroke:none;fill-rule:nonzero;fill:rgb(0%,67.058825%,22.352941%);fill-opacity:1;" d="M 0 9.5 L 25 9.5 L 25 19 L 0 19 Z M 0 9.5 "/>
<path style=" stroke:none;fill-rule:nonzero;fill:rgb(100%,100%,100%);fill-opacity:1;" d="M 0 0 L 25 0 L 25 9.5 L 0 9.5 Z M 0 0 "/>
<path style="fill-rule:nonzero;fill:rgb(82.352942%,6.27451%,20.392157%);fill-opacity:1;stroke-width:1.4;stroke-linecap:butt;stroke-linejoin:miter;stroke:rgb(0%,0%,0%);stroke-opacity:1;stroke-miterlimit:4;" d="M 419 70.756579 L 418.9 70.756579 Z M 418.9 70.756579 C 379.3 92.072368 341.8 117.236842 307.1 145.756579 C 290.1 160.657895 294.9 172.5 294.2 185.822368 C 294.8 194.802632 292.3 203.190789 286.8 208.223684 L 249 215.822368 L 245.4 205.361842 C 246.5 200.032895 250.9 197.368421 260.3 200.723684 C 261 193.914474 255.4 191.052632 249 188.684211 C 246.7 186.907895 244 185.723684 244.3 179.703947 C 243.3 166.184211 264.9 180.690789 265.1 180.690789 C 265.3 180.690789 264.3 166.973684 254.4 164.309211 C 249 162.434211 246.7 156.710526 248.8 152.467105 C 253.1 143.782895 261.3 153.059211 267.5 153.453947 C 267.3 147.828947 265.7 143.782895 260.8 139.342105 C 258.2 137.565789 251.8 136.381579 251.6 133.717105 C 251.5 130.065789 257.6 128.486842 266.1 129.473684 C 264.3 124.440789 258.6 121.085526 250.8 118.717105 L 246.2 110.625 C 244 106.578947 243 106.381579 248.1 98.782895 C 252.6 95.822368 258.7 91.578947 263.3 88.717105 L 258.3 88.125 C 258.9 82.598684 259 80.723684 260.3 71.644737 C 255.3 78.256579 249.3 77.072368 243.7 79.835526 C 243.7 79.835526 228.1 82.598684 223 89.309211 L 183.6 87.335526 C 175.2 88.421053 168.1 90.789474 166.7 98.881579 C 147.6 100.855263 127.6 99.177632 113 117.434211 C 123 117.039474 131.6 114.572368 142.8 115.953947 C 142.8 115.953947 152.3 116.151316 154.2 126.315789 C 154.4 126.710526 157.5 126.710526 157.5 126.710526 L 161.1 129.473684 L 162.5 125.723684 L 165.7 127.894737 L 166.7 123.651316 L 169.9 125.921053 L 170.1 120.888158 L 174.3 123.947368 L 174.3 117.236842 C 174.3 117.236842 189.9 117.236842 194.7 127.203947 C 194.9 127.302632 151 135.197368 108.6 131.546053 L 120.8 125.526316 C 105.4 122.269737 90.8 119.506579 77.2 108.848684 C 82.3 128.190789 108.9 150.888158 114.4 150.789474 L 109.2 141.414474 L 155.2 143.388158 C 156.9 148.519737 156.2 154.243421 160.2 158.684211 C 160.2 158.684211 157.7 167.072368 163.4 170.526316 C 163.6 170.921053 170.1 153.453947 170.1 153.453947 C 170.1 153.453947 172.1 158.190789 174.1 161.348684 C 177.1 146.348684 193.5 143.782895 193.5 143.782895 L 196.9 151.776316 C 191.8 152.565789 185.4 163.026316 188.9 168.848684 C 185.4 168.848684 179.3 178.914474 181.2 184.440789 C 178.3 187.302632 171.2 191.052632 172.9 203.190789 C 167.3 204.375 163.9 214.736842 165.7 225.690789 C 156.9 233.782895 159.1 248.684211 166.9 254.802632 C 163.7 257.763158 161.7 259.934211 161.7 263.486842 C 158.6 262.401316 155.7 263.289474 154.4 265.263158 C 150.6 261.414474 145.2 258.059211 141.4 261.710526 C 140.4 257.072368 134.4 252.138158 127.9 252.730263 C 128.6 246.710526 124.7 241.184211 118.9 239.703947 C 118.9 239.703947 117.4 217.105263 110.6 209.703947 C 109.9 205.657895 111 202.894737 116.6 199.539474 C 122.3 196.480263 123.5 194.210526 123 185.625 C 125.3 179.901316 127 174.078947 120 170.230263 C 120.2 177.039474 118.2 180.197368 115.4 183.157895 C 112.1 182.763158 111 186.611842 108.8 188.190789 C 105.7 184.144737 115.3 177.631579 108.2 168.256579 C 107.8 167.861842 103.2 156.315789 91.9 156.513158 C 97.2 159.572368 99.5 164.901316 99.5 170.427632 C 95.3 179.605263 94.7 190.065789 97.7 199.736842 C 93 192.730263 90.3 179.309211 86.4 177.039474 C 83 176.348684 81.4 168.256579 68.1 170.625 C 73.8 172.105263 75.7 176.546053 77.1 180.394737 C 73.7 182.171053 75.4 187.006579 78 190.263158 C 77.5 197.960526 82.1 202.5 89 205.263158 L 85.6 237.039474 C 82.9 236.743421 78.6 247.401316 77 247.697368 C 74.3 249.375 69.6 253.914474 75 255.197368 C 73.4 260.921053 71.9 264.375 63.3 265.559211 C 63.3 265.559211 72.3 270.986842 79.9 261.809211 C 87.9 261.611842 85.3 252.039474 89.2 247.796053 C 89.2 247.5 91.5 246.118421 94.7 237.631579 C 96.1 245.230263 103.9 268.421053 121.4 279.868421 C 136.7 296.348684 149.4 311.842105 149.2 333.552632 C 155.1 327.138158 159.3 319.342105 161.5 310.855263 C 171.5 307.894737 181.9 306.710526 192.3 307.302632 C 190.5 311.151316 188.4 314.901316 191 317.269737 C 183.6 319.934211 182 325.263158 185 330.592105 C 177.2 335.921053 176.7 339.276316 176.6 348.059211 C 162.1 366.611842 153.2 366.019737 138.9 361.085526 C 134.3 358.421053 126.9 354.473684 123.6 356.644737 C 117.5 352.401316 108.6 351.809211 107.1 361.184211 C 111.8 357.335526 114.5 358.125 118.2 361.776316 C 117.5 363.651316 116.9 365.526316 119.6 366.611842 L 116 370.559211 C 109.4 369.572368 100.4 369.572368 98.1 379.342105 C 101.5 376.381579 109.1 375.789474 115.1 378.453947 L 118.6 379.736842 L 119 384.276316 C 119 384.276316 110 382.894737 107.6 397.598684 C 116 388.618421 122 390.888158 122 390.888158 C 125.3 395.723684 137.3 395.032895 146 387.138158 C 158.1 380.328947 161.7 390.098684 169.5 383.684211 C 176 378.947368 183.7 382.105263 189 387.730263 C 195.1 390 201.5 391.875 206.5 387.730263 C 206.5 387.730263 212.7 383.782895 218.8 390.098684 C 218.8 383.092105 213.8 379.243421 207 379.144737 L 205 377.072368 C 198.5 375.690789 191.3 376.282895 185.6 373.125 C 187.8 362.960526 192.7 353.684211 199.7 346.085526 C 209 336.118421 215.9 331.480263 227.7 316.184211 C 227.2 324.868421 233.8 334.539474 237.3 343.223684 C 237.3 343.223684 244.3 332.072368 245.3 322.894737 C 245.6 322.894737 254.2 318.453947 257.8 314.605263 C 265.6 319.539474 278.2 310.756579 286.4 303.552632 C 291.4 305.625 295.3 305.427632 301.1 303.552632 C 296.4 313.223684 303.8 322.105263 315.6 325.756579 C 316.6 334.243421 325.2 336.019737 338.1 336.019737 C 338.7 340.953947 346.4 341.743421 346.4 341.743421 C 341.4 343.914474 339 346.184211 339.1 351.315789 C 334.1 351.315789 330.4 352.598684 329.1 358.322368 C 322.2 358.519737 315.2 359.013158 309.3 362.269737 C 303 361.381579 295.3 358.815789 290.4 353.684211 C 287.9 351.611842 287.2 348.453947 282.8 347.269737 C 280 344.013158 276.6 344.703947 275.5 347.861842 C 272.6 345.592105 261.7 344.605263 259.8 354.868421 C 265 351.217105 269.5 349.835526 272.8 354.375 C 271 357.532895 277 359.407895 282.2 360.592105 C 285.9 360.789474 292.4 364.243421 294.4 369.769737 C 288.7 371.447368 282.6 370.460526 277.7 367.203947 C 274 364.144737 268.7 363.75 264.7 366.414474 C 260.3 363.552632 250 368.881579 249.6 377.269737 C 253.9 373.322368 257.9 371.348684 261.9 373.914474 C 259.9 374.309211 260.6 374.506579 260.9 375.690789 L 270.9 381.513158 C 265.9 382.796053 261.3 384.769737 263.5 394.046053 C 263.5 394.046053 267.5 385.953947 276.5 389.013158 C 276.7 388.717105 277.8 391.776316 280.4 389.703947 C 284.3 385.263158 293.2 383.289474 301.1 382.5 C 307.4 381.809211 313.7 379.934211 319.1 383.486842 C 324.1 381.019737 329.5 379.342105 335.1 383.289474 C 341.7 385.263158 346.5 393.059211 354.8 389.605263 C 359 386.644737 364.1 386.644737 369.3 392.368421 C 369.3 384.967105 363.8 382.5 356 380.921053 L 350.6 377.664474 C 345.6 376.875 340.6 377.763158 335.5 375.394737 C 359.7 369.671053 380.5 354.375 393.2 332.960526 L 405.7 337.401316 C 408.7 337.598684 408.9 338.585526 415 340.361842 C 415.2 331.480263 411.3 322.302632 395.2 321.414474 L 374.2 313.421053 C 369.6 308.585526 367.6 298.519737 373.3 292.598684 C 378.9 287.565789 379.9 288.157895 383.6 282.138158 C 388.1 281.743421 392.3 286.282895 396.4 286.282895 C 398.4 292.203947 409.8 297.335526 417 295.559211 C 421.5 299.605263 430 301.776316 439.5 298.618421 C 445 303.848684 453.2 305.032895 460 301.578947 C 462.2 303.848684 466.8 305.625 472 304.440789 C 472.5 304.440789 474.8 310.164474 480.5 312.335526 C 478 314.703947 479.5 325.263158 482.2 329.210526 C 480.3 333.157895 479.9 337.697368 481.3 341.940789 C 475.5 345.592105 474.3 348.355263 476.9 354.671053 C 469.3 367.006579 460.2 368.388158 451.6 364.736842 L 442.3 358.717105 L 432.5 349.144737 C 430.8 347.467105 427.3 347.072368 426.6 350.526316 C 426.6 350.526316 414 347.664474 412.9 358.421053 C 418.2 353.289474 425.6 357.828947 425.6 358.026316 C 425.6 358.223684 423.8 359.407895 425.2 361.381579 C 425.5 361.085526 434.5 364.736842 442.4 368.092105 C 446.7 369.769737 447.7 370.263158 449.6 371.348684 L 442.4 368.092105 C 438.9 366.513158 435.2 365.526316 431.4 365.230263 C 427 364.835526 422.2 364.243421 420 367.598684 C 415.2 369.572368 407.6 371.348684 408 380.328947 C 411.2 374.901316 415.7 375.197368 421.4 375.690789 L 421 376.875 C 427.2 379.736842 426 376.085526 431.8 375.592105 C 437 375.493421 442.2 376.381579 447.1 378.059211 C 442.6 379.440789 436.4 378.848684 433.5 382.105263 C 432.9 383.092105 431 382.697368 431.9 385.263158 C 431.9 385.263158 422.9 385.065789 420.6 397.302632 C 429.6 391.578947 436.5 391.776316 436.6 391.776316 L 439.5 392.368421 L 450.5 385.065789 C 450.8 385.065789 461.1 380.526316 465.8 385.657895 C 470 387.730263 474.4 387.927632 478.8 385.263158 C 487.2 381.611842 495.1 381.315789 502.8 386.546053 L 509.9 390.690789 L 512.9 388.717105 C 512.9 388.717105 520.9 386.546053 526.7 393.552632 C 524.3 381.315789 515.5 380.921053 515.5 380.921053 L 513.5 379.144737 L 501.1 374.210526 C 499.2 369.671053 494.7 366.217105 499.2 360.789474 C 503.9 337.697368 509.4 320.427632 500.4 297.039474 C 508.8 300.592105 515.1 311.842105 525.6 307.894737 C 525.6 298.519737 491 280.559211 464.6 266.348684 C 508 263.980263 560 232.105263 540 191.546053 L 549.4 162.138158 C 553.9 171.118421 562.9 177.927632 571 180.789474 C 564.3 168.059211 560.5 129.177632 564.3 102.434211 C 546.6 123.651316 527.5 143.684211 507.2 162.434211 C 517.2 164.802632 526.1 163.125 535.8 161.940789 L 527.6 178.914474 C 501 163.223684 469.8 174.868421 469.6 195.690789 C 470.5 219.868421 500.4 223.421053 517.7 214.934211 C 514.3 237.039474 463.5 228.947368 463.5 228.947368 C 445.5 222.730263 428.4 223.717105 409.5 223.914474 C 413.4 211.776316 435.2 201.019737 451.9 205.756579 C 428.6 179.605263 455.2 147.138158 487.3 137.171053 C 452.3 125.625 482.4 98.881579 508.6 79.835526 C 508.6 79.835526 433.3 111.513158 426.4 111.414474 C 405 109.835526 410.8 84.375 419 70.756579 Z M 182.5 101.151316 C 184.4 101.151316 186.2 101.447368 188 101.842105 C 191.4 102.730263 195.5 103.125 195.5 104.210526 C 193.9 106.776316 190 109.934211 186.2 109.835526 C 182.4 109.736842 180.2 107.269737 179 101.644737 C 179.5 101.348684 180.7 101.151316 182.5 101.151316 Z M 499.5 190.559211 C 504.5 190.559211 510.4 192.631579 516.1 198.848684 C 513.4 206.842105 489.3 210.789474 487.7 199.046053 C 487.2 195.394737 492.3 190.657895 499.5 190.559211 Z M 499.5 190.559211 " transform="matrix(0.0390625,0,0,0.0395833,0,0)"/>
<path style="fill:none;stroke-width:1.4;stroke-linecap:butt;stroke-linejoin:round;stroke:rgb(0%,0%,0%);stroke-opacity:1;stroke-miterlimit:4;" d="M 207.4 171.217105 L 211.1 176.546053 M 210.9 176.644737 C 210.9 176.644737 210.9 183.848684 212.4 183.947368 M 209.1 187.796053 L 212.9 194.111842 M 202.4 195.690789 C 202.6 195.690789 207.1 200.921053 207.1 200.921053 M 211 196.875 C 211 197.072368 215.2 204.967105 215.5 204.967105 M 205.5 202.401316 C 205.5 202.401316 206.9 211.973684 208.2 211.677632 M 199.2 219.967105 L 203.4 226.480263 M 207.1 213.157895 C 207.1 213.157895 209.4 222.335526 211.2 221.546053 M 213.1 207.730263 C 213.2 207.927632 217.4 213.848684 218.5 212.960526 M 217.5 215.328947 L 221.5 223.322368 M 210.9 221.546053 L 214.2 230.921053 M 203.2 226.282895 C 203.2 226.282895 206.2 236.447368 208.9 234.769737 M 202.1 239.802632 C 202.1 239.802632 202.3 245.131579 204.9 245.427632 M 206.7 237.138158 C 206.7 237.335526 209.4 240.888158 209.4 240.888158 M 214.4 230.822368 L 216.5 234.276316 M 221.4 224.309211 L 224.7 228.355263 M 206 176.743421 C 206.1 181.184211 213.2 175.065789 216 171.315789 M 203 192.335526 C 203 192.335526 210.7 186.809211 216.7 178.519737 M 200.4 205.361842 C 205.9 203.881579 216 191.743421 218 185.230263 M 199.3 217.5 C 200.8 218.190789 219.6 204.473684 220.1 194.605263 M 198.8 227.960526 C 198.8 227.861842 216 223.618421 223.1 204.671053 M 198 242.269737 C 198 242.269737 225.5 225.789474 227 213.651316 M 412.4 270 C 412.4 270 410.6 284.210526 396.4 286.381579 M 416.9 295.361842 C 417 295.164474 430.5 280.361842 427 275.921053 M 448.1 281.052632 C 448.1 281.052632 447.9 291.414474 439.5 298.519737 M 464.9 284.111842 C 464.9 284.111842 465.2 296.546053 459.9 301.480263 M 480.3 291.513158 C 480.3 291.513158 474.3 303.157895 472.2 304.440789 M 480.1 312.236842 C 480.1 312.236842 487.9 314.210526 490.4 308.980263 M 482.1 329.111842 C 482.1 329.111842 489.3 330.394737 492.7 323.486842 M 481.3 342.236842 C 481.3 342.236842 487.2 347.171053 491.2 340.559211 M 397.2 246.217105 C 397.2 246.217105 396.5 271.480263 432 276.611842 C 471.7 287.565789 490.5 281.842105 492.8 326.348684 C 491.3 343.322368 489.2 362.269737 476.8 354.967105 M 359.4 269.506579 C 359.4 269.506579 365.1 279.572368 371.9 278.881579 C 380.9 276.315789 384.2 281.842105 384.2 281.842105 M 335.2 279.572368 C 335.2 279.572368 350.2 286.875 362.9 275.131579 M 336.9 269.111842 C 338.2 286.578947 316.8 296.644737 308.3 294.868421 M 337.9 335.921053 C 338 335.921053 349.5 329.111842 347.2 324.276316 M 315.1 325.756579 C 315.4 325.361842 334.4 323.585526 337.9 316.776316 M 306.3 297.828947 C 306.3 297.828947 333.2 298.026316 335 302.861842 M 342 281.940789 C 342 281.940789 315.8 326.842105 364.2 326.842105 M 314.2 281.348684 C 314.2 281.348684 308.6 298.026316 300.6 303.651316 M 286.4 275.526316 C 286.4 275.526316 296.1 294.276316 286.4 303.552632 M 261 280.756579 C 261.1 281.052632 264.1 307.5 257.5 315 M 248.3 281.644737 C 248.3 281.644737 249.3 298.421053 244.3 304.440789 C 239.3 310.361842 245.5 322.796053 245.5 322.796053 M 185 330.789474 C 185 330.789474 188.6 337.105263 193.5 334.934211 M 191 317.072368 C 191 317.072368 199 320.625 201.7 319.342105 M 199.7 288.947368 C 199.7 288.947368 187.9 292.203947 192.4 306.217105 C 199.2 311.743421 205.8 310.756579 205.8 310.756579 M 176.4 348.157895 C 176.3 348.157895 177.8 359.210526 185.4 350.921053 C 190.7 339.671053 207.4 308.289474 211.3 297.532895 M 219.1 292.401316 C 219.1 292.401316 211 286.085526 211.3 294.868421 C 211.1 300.394737 213.8 301.677632 213.8 301.677632 C 214.1 305.723684 217.6 311.348684 220.4 306.217105 C 221.6 301.184211 219.6 299.013158 219.6 299.013158 M 224.3 290.032895 C 217 289.638158 213 305.723684 227.1 295.559211 M 231.9 284.605263 C 231.9 284.605263 230.1 287.072368 227.2 284.407895 C 225.7 281.842105 220.4 296.447368 229.7 296.940789 C 231.4 292.598684 236.5 291.414474 236.5 291.414474 M 240.9 277.598684 C 240.9 277.598684 236.7 279.572368 235.2 279.276316 C 230.2 280.361842 231.2 292.105263 237.5 291.414474 C 239.7 288.947368 242 285.394737 242 285.394737 M 201.7 262.401316 C 201.5 262.401316 185.2 288.059211 210.8 294.868421 M 408.8 223.914474 C 408.8 223.914474 398.8 232.302632 408.1 245.921053 C 377.1 245.427632 360.6 259.736842 359.3 269.309211 C 319.9 266.546053 327.1 278.092105 314.3 281.940789 C 297.2 267.631579 272.1 275.625 273.7 289.934211 C 262.3 273.848684 244.7 281.644737 242.5 285.592105 C 240.3 289.638158 241.2 265.756579 241.2 265.756579 C 241.2 265.756579 229.7 270.986842 221.8 280.361842 L 221.8 260.526316 C 212.2 262.5 202.9 262.5 193 262.302632 M 167.1 255 C 167.1 255 181.4 262.993421 199.1 252.236842 M 166 226.282895 C 166 226.282895 177 236.348684 198 233.092105 M 173 203.388158 C 173 203.388158 175.4 211.480263 199.3 211.973684 M 181 184.638158 C 181 184.638158 190 195.592105 202.2 193.914474 M 188.7 168.947368 C 188.7 168.947368 192.2 174.868421 205.5 175.855263 M 196.5 151.381579 C 196.5 151.381579 203.5 158.980263 211.5 157.697368 M 238 89.309211 C 238 89.309211 241.1 86.348684 246.3 87.828947 M 235.8 105.592105 C 235.8 105.592105 226.2 105.296053 226.8 101.644737 C 227.6 97.203947 237 94.144737 237 94.144737 C 237 94.144737 249.5 86.052632 251.4 83.289474 M 194.8 127.302632 L 207 150.592105 L 212.8 141.809211 L 215.8 147.828947 L 220.8 139.144737 L 229.4 144.572368 L 226.2 133.914474 L 233.4 133.421053 C 233.4 133.421053 231.4 128.289474 225 127.203947 C 226.7 125.921053 232.7 121.875 232.7 121.875 C 232.7 121.875 229.3 117.927632 223.9 117.828947 C 225.7 115.855263 228.1 111.315789 227.9 111.315789 L 222.6 110.131579 C 222.6 110.131579 234.8 114.078947 244.2 108.453947 M 221 89.703947 C 221.1 89.802632 220.3 94.539474 217.7 97.203947 M 174 102.532895 C 174 102.532895 181.5 100.460526 187.1 101.644737 C 192.7 102.730263 200.2 104.802632 200.2 104.802632 C 200.2 104.802632 209.2 103.618421 212.1 101.546053 M 155.3 107.467105 C 155.3 107.467105 154.3 111.118421 153.9 113.486842 C 153.9 115.164474 148.4 117.532895 148.4 117.532895 M 158.7 100.065789 C 158.7 100.065789 163.5 106.085526 163.7 109.638158 C 163.8 112.993421 160.1 115.559211 160.1 115.559211 M 109 141.019737 L 104 133.026316 L 108.5 131.447368 M 199 252.434211 C 195 247.203947 202 168.157895 216.7 147.631579 C 211.6 184.835526 228.7 222.828947 233 222.631579 M 154 125.625 C 154 125.625 160.8 128.092105 174.7 117.039474 M 193.6 143.782895 L 203.6 143.881579 M 503.9 81.907895 C 503.9 81.907895 337.2 159.671053 334.8 163.914474 C 362.9 155.328947 482.3 135.394737 485.2 137.072368 C 478.2 138.848684 333.3 172.105263 326.5 180.098684 C 362.7 178.914474 438.4 191.743421 450.3 204.078947 C 424.5 198.256579 347.6 187.006579 324 192.039474 C 341.2 196.085526 407.2 238.815789 407.2 245.625 C 397.2 236.052632 317.9 203.388158 314.8 206.644737 C 333 217.5 358.7 257.960526 358.7 267.927632 C 353.4 259.539474 307.5 210.197368 304.8 213.355263 C 309.7 220.065789 319.3 278.289474 314.4 280.953947 C 314.4 274.046053 296.6 223.026316 295.1 221.644737 C 291.5 222.631579 268.8 283.618421 273.3 289.440789 C 270.3 269.013158 273.8 226.381579 279.3 228.059211 C 269.3 229.638158 237.6 271.480263 241 278.092105 C 242 267.631579 243.4 260.723684 261.4 225.986842 C 241.4 227.171053 200.2 253.125 193.2 262.401316 C 198.8 245.921053 233.7 217.993421 249 216.019737 M 321 155.328947 C 338.6 145.460526 393 125.625 429.4 110.921053 M 286.8 207.927632 C 286.8 207.927632 298.8 207.730263 310.8 175.065789 C 322.6 130.460526 416.5 80.822368 418.4 71.546053 M 128 252.828947 C 128 252.828947 125.2 258.848684 121.8 260.427632 M 141.5 261.809211 C 141.5 261.809211 137.8 269.013158 136.9 272.368421 M 154.4 265.361842 C 154.4 265.361842 157.4 275.230263 154.9 279.769737 M 118.5 239.703947 C 109.1 245.032895 123.9 278.684211 168.6 281.940789 M 161.4 263.684211 C 161.4 263.684211 160.2 269.703947 168.6 281.743421 C 166.2 295.065789 178.8 305.625 183.8 307.302632 M 157.8 143.092105 L 159.2 139.539474 L 160.7 143.486842 L 163.2 143.388158 L 164.8 139.440789 L 166.2 143.388158 L 168.6 143.388158 L 170.1 139.046053 L 172.4 143.190789 L 174.4 143.190789 L 175.9 138.157895 L 178.9 141.809211 L 180.1 141.414474 L 181.1 136.184211 L 184.2 139.835526 L 185.2 139.342105 L 186.6 134.309211 L 189.1 137.960526 L 190.4 137.565789 L 191.6 133.322368 L 194 137.269737 M 155 143.486842 L 173.8 143.190789 C 179.8 143.190789 189.6 134.901316 200.5 137.467105 M 115.6 183.453947 C 115.6 183.453947 118.7 190.263158 123 186.513158 M 108.4 187.993421 C 108.4 187.993421 102.4 204.177632 109.6 208.026316 M 99.8 170.230263 C 99.8 170.230263 99.8 173.980263 107.8 168.157895 M 75.3 254.901316 C 75.3 254.901316 81.6 256.875 80.6 261.611842 M 77.6 180.789474 C 77.6 180.789474 81.6 182.664474 85.4 176.842105 M 119.6 366.513158 C 125.7 366.118421 127.1 368.881579 132.6 368.881579 C 139.2 369.078947 145.5 366.513158 153.6 364.243421 M 206.7 379.243421 C 206.5 379.243421 203.7 384.967105 206.2 387.927632 M 118.7 379.736842 C 118.7 379.736842 128.5 371.743421 133.7 376.578947 C 138.6 378.256579 141.3 377.960526 141.3 377.960526 M 123.8 356.743421 C 123.8 356.743421 126.2 362.861842 118.2 361.973684 M 115.8 370.953947 C 115.8 370.953947 120.9 374.210526 115.1 378.453947 M 118.9 384.276316 C 118.9 384.276316 125.9 385.263158 121.8 390.986842 M 346 341.644737 C 346 341.644737 365 343.618421 366 345 C 368.2 342.730263 385.2 328.815789 364.3 326.940789 C 362.3 335.427632 354.8 341.546053 346 341.644737 Z M 339.2 351.118421 C 346.3 356.842105 343.4 360.197368 365.8 345.197368 M 329 358.223684 C 329 358.223684 339.5 369.572368 347.2 355.756579 M 308.9 362.269737 L 294.6 369.769737 M 269 380.328947 C 269 380.328947 277.7 372.927632 281.7 376.776316 C 285.7 380.723684 303 373.421053 303 373.421053 M 275.5 347.960526 C 275.5 347.960526 278.5 353.980263 272.7 354.671053 M 264.2 366.611842 C 264.2 366.611842 267.2 372.236842 261.4 373.618421 M 270.9 381.710526 C 270.9 381.710526 279.9 382.203947 276.7 389.013158 M 355.1 380.526316 C 355.1 380.526316 350.1 384.671053 353.8 389.506579 M 426.8 350.526316 C 426.8 350.526316 432.5 353.289474 425.7 358.026316 M 420 367.894737 C 420 367.894737 424.3 372.434211 421.4 376.085526 M 432 385.065789 C 432 385.065789 437.9 386.842105 437.2 391.677632 M 515 380.723684 C 515 380.723684 510 384.375 512.7 389.111842 M 427 236.348684 C 438.8 234.868421 455.8 261.315789 464.5 266.447368 M 516.4 199.046053 C 516.4 199.046053 522.4 204.276316 517.1 217.006579 M 527.5 178.815789 C 529.2 180.098684 535.6 183.552632 539.9 191.644737 M 544 139.440789 L 535.7 161.940789 M 553.3 138.256579 C 553.3 138.256579 551.7 158.289474 549.3 162.335526 M 516 198.848684 C 513.3 206.842105 489.2 210.789474 487.6 199.046053 C 486.7 193.026316 501.8 183.651316 516 198.848684 Z M 516 198.848684 " transform="matrix(0.0390625,0,0,0.0395833,0,0)"/>
<path style="fill-rule:nonzero;fill:rgb(0%,0%,0%);fill-opacity:1;stroke-width:1.4;stroke-linecap:butt;stroke-linejoin:round;stroke:rgb(0%,0%,0%);stroke-opacity:1;stroke-miterlimit:4;" d="M 182.3 101.348684 L 191.6 103.026316 C 191.6 103.026316 185.1 111.809211 182.3 101.348684 Z M 182.3 101.348684 " transform="matrix(0.0390625,0,0,0.0395833,0,0)"/>
</g>
</svg>
