<svg xmlns="http://www.w3.org/2000/svg" width="25" height="19" viewBox="0 0 25 19"><path d="M0 0h25v19H0z" style="fill:#012169;fill-opacity:1;stroke:none"/><path d="m2.93 0 9.53 7.164L21.954 0H25v2.453L15.625 9.54 25 16.586V19h-3.125L12.5 11.914 3.164 19H0v-2.375l9.336-7.047L0 2.535V0Zm0 0" style="stroke:none;fill-rule:nonzero;fill:#fff;fill-opacity:1"/><path d="M16.563 11.121 25 17.418V19l-10.586-7.879Zm-7.188.793.234 1.387L2.11 19H0ZM25 0v.117L15.273 7.56l.079-1.739L23.047 0ZM0 0l9.336 6.965H6.992L0 1.665Zm0 0" style="stroke:none;fill-rule:nonzero;fill:#c8102e;fill-opacity:1"/><path d="M9.414 0v19h6.25V0ZM0 6.332v6.336h25V6.332Zm0 0" style="stroke:none;fill-rule:nonzero;fill:#fff;fill-opacity:1"/><path d="M0 7.64v3.801h25v-3.8ZM10.664 0v19h3.75V0Zm0 0" style="stroke:none;fill-rule:nonzero;fill:#c8102e;fill-opacity:1"/></svg>