<svg xmlns="http://www.w3.org/2000/svg" width="25" height="19" viewBox="0 0 25 19"><path d="M0 0h25v19H0z" style="fill:#ce1126;fill-opacity:1;stroke:none"/><path d="M2.625 2.66h19.75v13.68H2.625Zm0 0" style="stroke:none;fill-rule:nonzero;fill:#007a5e;fill-opacity:1"/><path d="M2.625 2.664h19.75l-19.75 13.68h19.75Zm0 0" style="stroke:none;fill-rule:nonzero;fill:#fcd116;fill-opacity:1"/><path d="M14.746 9.504c0-1.258-1.008-2.281-2.25-2.281s-2.25 1.023-2.25 2.28c0 1.259 1.008 2.282 2.25 2.282s2.25-1.023 2.25-2.281m0 0" style="stroke:none;fill-rule:nonzero;fill:#ce1126;fill-opacity:1"/><path d="m12.5 7.41-.637 1.988.98.32" style="stroke:none;fill-rule:nonzero;fill:#fcd116;fill-opacity:1"/><path d="m12.5 7.41.637 1.988-.98.32" style="stroke:none;fill-rule:nonzero;fill:#fcd116;fill-opacity:1"/><path d="M14.46 8.855h-2.062v1.043" style="stroke:none;fill-rule:nonzero;fill:#fcd116;fill-opacity:1"/><path d="m14.46 8.855-1.667 1.227-.605-.844" style="stroke:none;fill-rule:nonzero;fill:#fcd116;fill-opacity:1"/><path d="m13.71 11.191-.636-1.988-.98.324" style="stroke:none;fill-rule:nonzero;fill:#fcd116;fill-opacity:1"/><path d="m13.71 11.191-1.667-1.23.605-.844" style="stroke:none;fill-rule:nonzero;fill:#fcd116;fill-opacity:1"/><path d="m11.29 11.191 1.667-1.23-.605-.844" style="stroke:none;fill-rule:nonzero;fill:#fcd116;fill-opacity:1"/><path d="m11.29 11.191.636-1.988.98.324" style="stroke:none;fill-rule:nonzero;fill:#fcd116;fill-opacity:1"/><path d="m10.54 8.855 1.667 1.227.605-.844" style="stroke:none;fill-rule:nonzero;fill:#fcd116;fill-opacity:1"/><path d="M10.54 8.855h2.062v1.043M7.41.094 7.035 1.27l.578.19" style="stroke:none;fill-rule:nonzero;fill:#fcd116;fill-opacity:1"/><path d="m7.41.094.375 1.176-.578.19" style="stroke:none;fill-rule:nonzero;fill:#fcd116;fill-opacity:1"/><path d="M8.57.95H7.352v.616" style="stroke:none;fill-rule:nonzero;fill:#fcd116;fill-opacity:1"/><path d="m8.57.95-.988.726-.355-.5" style="stroke:none;fill-rule:nonzero;fill:#fcd116;fill-opacity:1"/><path d="M8.125 2.328 7.75 1.156l-.578.188" style="stroke:none;fill-rule:nonzero;fill:#fcd116;fill-opacity:1"/><path d="m8.125 2.328-.984-.726.359-.497" style="stroke:none;fill-rule:nonzero;fill:#fcd116;fill-opacity:1"/><path d="m6.695 2.328.985-.726-.36-.497" style="stroke:none;fill-rule:nonzero;fill:#fcd116;fill-opacity:1"/><path d="m6.695 2.328.375-1.172.578.188" style="stroke:none;fill-rule:nonzero;fill:#fcd116;fill-opacity:1"/><path d="m6.25.95.988.726.356-.5" style="stroke:none;fill-rule:nonzero;fill:#fcd116;fill-opacity:1"/><path d="M6.25.95h1.219v.616M12.5.094l-.375 1.176.578.19" style="stroke:none;fill-rule:nonzero;fill:#fcd116;fill-opacity:1"/><path d="m12.5.094.375 1.176-.578.19" style="stroke:none;fill-rule:nonzero;fill:#fcd116;fill-opacity:1"/><path d="M13.66.95h-1.219v.616" style="stroke:none;fill-rule:nonzero;fill:#fcd116;fill-opacity:1"/><path d="m13.66.95-.988.726-.356-.5" style="stroke:none;fill-rule:nonzero;fill:#fcd116;fill-opacity:1"/><path d="m13.215 2.328-.375-1.172-.578.188" style="stroke:none;fill-rule:nonzero;fill:#fcd116;fill-opacity:1"/><path d="m13.215 2.328-.985-.726.36-.497" style="stroke:none;fill-rule:nonzero;fill:#fcd116;fill-opacity:1"/><path d="m11.785 2.328.985-.726-.36-.497" style="stroke:none;fill-rule:nonzero;fill:#fcd116;fill-opacity:1"/><path d="m11.785 2.328.375-1.172.578.188" style="stroke:none;fill-rule:nonzero;fill:#fcd116;fill-opacity:1"/><path d="m11.34.95.988.726.356-.5" style="stroke:none;fill-rule:nonzero;fill:#fcd116;fill-opacity:1"/><path d="M11.34.95h1.219v.616M17.59.094l-.375 1.176.578.19" style="stroke:none;fill-rule:nonzero;fill:#fcd116;fill-opacity:1"/><path d="m17.59.094.375 1.176-.578.19" style="stroke:none;fill-rule:nonzero;fill:#fcd116;fill-opacity:1"/><path d="M18.75.95h-1.219v.616" style="stroke:none;fill-rule:nonzero;fill:#fcd116;fill-opacity:1"/><path d="m18.75.95-.988.726-.356-.5" style="stroke:none;fill-rule:nonzero;fill:#fcd116;fill-opacity:1"/><path d="m18.305 2.328-.375-1.172-.578.188" style="stroke:none;fill-rule:nonzero;fill:#fcd116;fill-opacity:1"/><path d="m18.305 2.328-.985-.726.36-.497" style="stroke:none;fill-rule:nonzero;fill:#fcd116;fill-opacity:1"/><path d="m16.875 2.328.984-.726-.359-.497" style="stroke:none;fill-rule:nonzero;fill:#fcd116;fill-opacity:1"/><path d="m16.875 2.328.375-1.172.578.188" style="stroke:none;fill-rule:nonzero;fill:#fcd116;fill-opacity:1"/><path d="m16.43.95.988.726.355-.5" style="stroke:none;fill-rule:nonzero;fill:#fcd116;fill-opacity:1"/><path d="M16.43.95h1.218v.616" style="stroke:none;fill-rule:nonzero;fill:#fcd116;fill-opacity:1"/><path d="M3.996 9.527c.297.563.754 1.02 1.309 1.317a4.45 4.45 0 0 0-.442-1.781Zm0 0" style="stroke:none;fill-rule:nonzero;fill:#ce1126;fill-opacity:1"/><path d="M3.52 7.707c.406.86-1.06 2.918 1.386 3.398A2.5 2.5 0 0 1 4.48 9.45a2.76 2.76 0 0 1 1.27 1.219c.64-2.355-1.64-2.211-2.23-2.961M7.41 16.508l-.375 1.172.578.191" style="stroke:none;fill-rule:nonzero;fill:#fcd116;fill-opacity:1"/><path d="m7.41 16.508.375 1.172-.578.191" style="stroke:none;fill-rule:nonzero;fill:#fcd116;fill-opacity:1"/><path d="M8.57 17.36H7.352v.617" style="stroke:none;fill-rule:nonzero;fill:#fcd116;fill-opacity:1"/><path d="m8.57 17.36-.988.726-.355-.5" style="stroke:none;fill-rule:nonzero;fill:#fcd116;fill-opacity:1"/><path d="m8.125 18.742-.375-1.176-.578.192" style="stroke:none;fill-rule:nonzero;fill:#fcd116;fill-opacity:1"/><path d="m8.125 18.742-.984-.726.359-.5" style="stroke:none;fill-rule:nonzero;fill:#fcd116;fill-opacity:1"/><path d="m6.695 18.742.985-.726-.36-.5" style="stroke:none;fill-rule:nonzero;fill:#fcd116;fill-opacity:1"/><path d="m6.695 18.742.375-1.176.578.192" style="stroke:none;fill-rule:nonzero;fill:#fcd116;fill-opacity:1"/><path d="m6.25 17.36.988.726.356-.5" style="stroke:none;fill-rule:nonzero;fill:#fcd116;fill-opacity:1"/><path d="M6.25 17.36h1.219v.617M12.5 16.508l-.375 1.172.578.191" style="stroke:none;fill-rule:nonzero;fill:#fcd116;fill-opacity:1"/><path d="m12.5 16.508.375 1.172-.578.191" style="stroke:none;fill-rule:nonzero;fill:#fcd116;fill-opacity:1"/><path d="M13.66 17.36h-1.219v.617" style="stroke:none;fill-rule:nonzero;fill:#fcd116;fill-opacity:1"/><path d="m13.66 17.36-.988.726-.356-.5" style="stroke:none;fill-rule:nonzero;fill:#fcd116;fill-opacity:1"/><path d="m13.215 18.742-.375-1.176-.578.192" style="stroke:none;fill-rule:nonzero;fill:#fcd116;fill-opacity:1"/><path d="m13.215 18.742-.985-.726.36-.5" style="stroke:none;fill-rule:nonzero;fill:#fcd116;fill-opacity:1"/><path d="m11.785 18.742.985-.726-.36-.5" style="stroke:none;fill-rule:nonzero;fill:#fcd116;fill-opacity:1"/><path d="m11.785 18.742.375-1.176.578.192" style="stroke:none;fill-rule:nonzero;fill:#fcd116;fill-opacity:1"/><path d="m11.34 17.36.988.726.356-.5" style="stroke:none;fill-rule:nonzero;fill:#fcd116;fill-opacity:1"/><path d="M11.34 17.36h1.219v.617M17.59 16.508l-.375 1.172.578.191" style="stroke:none;fill-rule:nonzero;fill:#fcd116;fill-opacity:1"/><path d="m17.59 16.508.375 1.172-.578.191" style="stroke:none;fill-rule:nonzero;fill:#fcd116;fill-opacity:1"/><path d="M18.75 17.36h-1.219v.617" style="stroke:none;fill-rule:nonzero;fill:#fcd116;fill-opacity:1"/><path d="m18.75 17.36-.988.726-.356-.5" style="stroke:none;fill-rule:nonzero;fill:#fcd116;fill-opacity:1"/><path d="m18.305 18.742-.375-1.176-.578.192" style="stroke:none;fill-rule:nonzero;fill:#fcd116;fill-opacity:1"/><path d="m18.305 18.742-.985-.726.36-.5" style="stroke:none;fill-rule:nonzero;fill:#fcd116;fill-opacity:1"/><path d="m16.875 18.742.984-.726-.359-.5" style="stroke:none;fill-rule:nonzero;fill:#fcd116;fill-opacity:1"/><path d="m16.875 18.742.375-1.176.578.192" style="stroke:none;fill-rule:nonzero;fill:#fcd116;fill-opacity:1"/><path d="m16.43 17.36.988.726.355-.5" style="stroke:none;fill-rule:nonzero;fill:#fcd116;fill-opacity:1"/><path d="M16.43 17.36h1.218v.617" style="stroke:none;fill-rule:nonzero;fill:#fcd116;fill-opacity:1"/></svg>