<svg xmlns="http://www.w3.org/2000/svg" width="25" height="19" viewBox="0 0 25 19"><path d="M0 0h25v19H0z" style="fill:#fff;fill-opacity:1;stroke:none"/><path d="M10.625 0h3.75v19h-3.75Zm0 0" style="stroke:none;fill-rule:nonzero;fill:red;fill-opacity:1"/><path d="M0 7.602h25v3.796H0Zm0 0" style="stroke:none;fill-rule:nonzero;fill:red;fill-opacity:1"/><path d="M5.734 14.77c.04-.665.157-1.23.157-1.23s-.383.038-.578.038c-.196 0-.579-.039-.579-.039s.118.566.157 1.234c-.66-.039-1.22-.16-1.22-.16s.04.293.04.586-.04.586-.04.586.56-.117 1.22-.156c-.04.668-.157 1.234-.157 1.234s.29-.039.579-.039.578.04.578.04-.118-.567-.157-1.235c.66.039 1.22.156 1.22.156s-.04-.387-.04-.586c0-.195.04-.586.04-.586s-.56.121-1.216.16ZM20.11 3.367c.04-.664.157-1.23.157-1.23s-.383.039-.578.039c-.196 0-.579-.04-.579-.04s.118.567.157 1.231c-.66-.039-1.22-.152-1.22-.152s.04.293.04.586-.04.586-.04.586.56-.121 1.22-.16c-.04.668-.157 1.234-.157 1.234s.29-.04.578-.04c.29 0 .579.04.579.04s-.118-.566-.157-1.23c.66.039 1.22.16 1.22.16s-.04-.399-.04-.59c0-.196.04-.586.04-.586s-.56.117-1.22.156Zm-14.375 0c.04-.664.157-1.23.157-1.23s-.383.039-.578.039c-.196 0-.579-.04-.579-.04s.118.567.157 1.235c-.66-.039-1.22-.156-1.22-.156s.04.293.04.586-.04.586-.04.586.56-.121 1.22-.16a10 10 0 0 1-.157 1.234s.29-.04.579-.04.578.04.578.04-.118-.566-.157-1.234c.66.039 1.22.16 1.22.16s-.04-.39-.04-.586c0-.2.04-.586.04-.586s-.56.117-1.216.156ZM20.11 14.77c.04-.665.157-1.23.157-1.23s-.383.038-.578.038c-.196 0-.579-.039-.579-.039s.118.566.157 1.234c-.66-.039-1.22-.16-1.22-.16s.04.293.04.586-.04.586-.04.586.56-.117 1.22-.156c-.04.668-.157 1.234-.157 1.234s.29-.039.578-.039c.29 0 .579.04.579.04s-.118-.567-.157-1.235a9 9 0 0 1 1.22.156s-.04-.387-.04-.586c0-.195.04-.586.04-.586s-.56.121-1.22.16Zm0 0" style="stroke:none;fill-rule:evenodd;fill:red;fill-opacity:1"/></svg>