<svg xmlns="http://www.w3.org/2000/svg" width="25" height="19" viewBox="0 0 25 19"><path d="M0 0h25v19H0z" style="fill:#fff;fill-opacity:1;stroke:none"/><path d="M10 0h5v19h-5Zm0 0" style="stroke:none;fill-rule:nonzero;fill:#e8112d;fill-opacity:1"/><path d="M0 6.965h25v5.07H0Zm0 0" style="stroke:none;fill-rule:nonzero;fill:#e8112d;fill-opacity:1"/><path d="m4.297 11.348.91-.926h8.203V8.578H5.207l-.91-.926Zm0 0" style="stroke:none;fill-rule:nonzero;fill:#f9dd16;fill-opacity:1"/><path d="m10.676 1.188.914.921v8.313h1.82V2.109l.914-.921Zm0 0" style="stroke:none;fill-rule:nonzero;fill:#f9dd16;fill-opacity:1"/><path d="m14.324 17.813-.914-.922V8.578h-1.82v8.313l-.914.922Zm0 0" style="stroke:none;fill-rule:nonzero;fill:#f9dd16;fill-opacity:1"/><path d="m20.703 7.652-.91.926H11.59v1.844h8.203l.91.926Zm0 0" style="stroke:none;fill-rule:nonzero;fill:#f9dd16;fill-opacity:1"/></svg>