<svg xmlns="http://www.w3.org/2000/svg" width="25" height="19" viewBox="0 0 25 19"><path d="M0 0h25v19H0z" style="fill:#da000c;fill-opacity:1;stroke:none"/><path d="M0 0h25v12.73H0Zm0 0" style="stroke:none;fill-rule:nonzero;fill:#fff;fill-opacity:1"/><path d="M8.148 8.633h4.688v3.265H8.148Zm0 0" style="stroke:none;fill-rule:nonzero;fill:#000001;fill-opacity:1"/><path d="M229.813 153.895h-38.986l-8.747 5.684v6h47.733m-16.32-37c5.6 0 10.187 4.737 10.187 10.526v14.684h7.307v-56H190.72v56h12.587v-14.684c0-5.631 4.48-10.526 10.186-10.526Zm0 0" style="fill-rule:nonzero;fill:#da000c;fill-opacity:1;stroke-width:1;stroke-linecap:square;stroke-linejoin:miter;stroke:#000;stroke-opacity:1;stroke-miterlimit:4" transform="matrix(.07324 0 0 .07422 -6.25 0)"/><path d="M8.727 4.453h1.363v2.524H8.727Zm0 0" style="stroke:none;fill-rule:nonzero;fill:#000001;fill-opacity:1"/><path d="M222.987 88.684h-16.16v-5.79H194.88v5.79h-8v-5.79h-4.907v10.422h41.014m-36.214 0h35.04v4.473h-35.04ZM200.8 47.579V83h6.027v-9.684c0-3.632 2.453-6.632 6.08-6.79h.373c3.733.053 6.72 3.053 6.827 6.79V83h5.706V47.579Zm-2.293-4.79v4.79h29.28v-4.79Zm-3.734-9.105v9.105h35.04v-9.105h-5.333v4.737h-6.56v-4.737h-10.027v4.737h-6.506v-4.737Zm-12.8 125.895h48m31.04-2.79h-32.426l-9.814 4.685v7h42.24" style="fill-rule:nonzero;fill:#da000c;fill-opacity:1;stroke-width:1;stroke-linecap:square;stroke-linejoin:miter;stroke:#000;stroke-opacity:1;stroke-miterlimit:4" transform="matrix(.07324 0 0 .07422 -6.25 0)"/><path d="M218.773 161.474h43.2" style="fill:none;stroke-width:1;stroke-linecap:butt;stroke-linejoin:miter;stroke:#000;stroke-opacity:1;stroke-miterlimit:4" transform="matrix(.07324 0 0 .07422 -6.25 0)"/><path d="M16.852 8.633h-4.688v3.265h4.688Zm0 0" style="stroke:none;fill-rule:nonzero;fill:#000001;fill-opacity:1"/><path d="M229.813 153.895h-38.986l-8.747 5.684v6h47.733m-16.32-37c5.6 0 10.187 4.737 10.187 10.526v14.684h7.307v-56H190.72v56h12.587v-14.684c0-5.631 4.48-10.526 10.186-10.526Zm0 0" style="fill-rule:nonzero;fill:#da000c;fill-opacity:1;stroke-width:1;stroke-linecap:square;stroke-linejoin:miter;stroke:#000;stroke-opacity:1;stroke-miterlimit:4" transform="matrix(-.07324 0 0 .07422 31.25 0)"/><path d="M16.273 4.453H14.91v2.524h1.363Zm0 0" style="stroke:none;fill-rule:nonzero;fill:#000001;fill-opacity:1"/><path d="M222.987 88.684h-16.16v-5.79H194.88v5.79h-8v-5.79h-4.907v10.422h41.014m-36.214 0h35.04v4.473h-35.04ZM200.8 47.579V83h6.027v-9.684c0-3.632 2.453-6.632 6.08-6.79h.373c3.733.053 6.72 3.053 6.827 6.79V83h5.706V47.579Zm-2.293-4.79v4.79h29.28v-4.79Zm-3.734-9.105v9.105h35.04v-9.105h-5.333v4.737h-6.56v-4.737h-10.027v4.737h-6.506v-4.737Zm-12.8 125.895h48m31.04-2.79h-32.426l-9.814 4.685v7h42.24" style="fill-rule:nonzero;fill:#da000c;fill-opacity:1;stroke-width:1;stroke-linecap:square;stroke-linejoin:miter;stroke:#000;stroke-opacity:1;stroke-miterlimit:4" transform="matrix(-.07324 0 0 .07422 31.25 0)"/><path d="M218.773 161.474h43.2" style="fill:none;stroke-width:1;stroke-linecap:butt;stroke-linejoin:miter;stroke:#000;stroke-opacity:1;stroke-miterlimit:4" transform="matrix(-.07324 0 0 .07422 31.25 0)"/><path d="M273.28 150a52 52 0 0 0-7.467 3.79c-3.146 1.789-6.08 3.789-8.906 6-1.067.684-1.974 1.473-2.72 2.42-.96.79-1.974 2-1.76 3.474 0 .632.8-.79 1.386-.895a3.94 3.94 0 0 1 3.094-.368c1.386-1.368 2.88-2.474 4.373-3.421a78 78 0 0 1 13.013-7.579Zm0 0" style="fill-rule:nonzero;fill:#f8d80e;fill-opacity:1;stroke-width:.8;stroke-linecap:round;stroke-linejoin:miter;stroke:#000;stroke-opacity:1;stroke-miterlimit:4" transform="matrix(.07324 0 0 .07422 -6.25 0)"/><path d="M260.373 157.421v3.895m2.4-5.632v3.895m2.4-5.368V158m2.507-5.316v4" style="fill-rule:nonzero;fill:#f8d80e;fill-opacity:1;stroke-width:1;stroke-linecap:round;stroke-linejoin:miter;stroke:#000;stroke-opacity:1;stroke-miterlimit:4" transform="matrix(.07324 0 0 .07422 -6.25 0)"/><path d="m238.88 150.21-1.173 3.264c5.493 2.158 10.826 4.842 15.786 8 1.814 1.105 3.414 2.368 4.8 3.947.32.79-.48 1.474-1.28 1.158-.693-.158-1.493-.474-2.186 0-1.12.526-2.134 2.21-.534 2.737 2.4 1.579 6.134.895 7.2-1.842.587-1.369.694-3.158-.48-4.369-2.026-2.316-4.8-4-7.413-5.684a90.5 90.5 0 0 0-14.72-7.21Zm0 0" style="fill-rule:nonzero;fill:#f8d80e;fill-opacity:1;stroke-width:.8;stroke-linecap:round;stroke-linejoin:miter;stroke:#000;stroke-opacity:1;stroke-miterlimit:4" transform="matrix(.07324 0 0 .07422 -6.25 0)"/><path d="m253.973 158-.266 3.421m3.093-1.737L256 163m3.787-1-1.76 2.579m2.666 3.632-2.613-1.422m3.413-1.368-2.986.263m-.8 4-.214-2.579m-1.013-.316-2.4 1.79m-9.387-15.684V156m6.294.316v3.473m-3.2-5.21v3.316" style="fill-rule:nonzero;fill:#f8d80e;fill-opacity:1;stroke-width:1;stroke-linecap:round;stroke-linejoin:miter;stroke:#000;stroke-opacity:1;stroke-miterlimit:4" transform="matrix(.07324 0 0 .07422 -6.25 0)"/><path d="M235.787 227.579v8h5.013v-4h6.88v4h5.44v-8Zm0 11v8h17.226v-8h-5.44v4h-6.88v-4Zm0 0" style="fill-rule:nonzero;fill:#f8d80e;fill-opacity:1;stroke-width:1;stroke-linecap:butt;stroke-linejoin:miter;stroke:#000;stroke-opacity:1;stroke-miterlimit:4" transform="matrix(.07324 0 0 .07422 -6.25 0)"/><path d="M253.013 193.684h5.014v58h-5.014Zm0 0" style="fill-rule:nonzero;fill:#f8d80e;fill-opacity:1;stroke-width:1;stroke-linecap:butt;stroke-linejoin:miter;stroke:#000;stroke-opacity:1;stroke-miterlimit:4" transform="matrix(.07324 0 0 .07422 -6.25 0)"/><path d="M253.013 198.684h5.014v50h-5.014Zm2.56-19.263 10.614 6.158-10.614 6.21-10.666-6.21Zm-14.293 4h-2.667v4.368h2.667l14.293 8.316 14.24-8.316h2.774v-4.368h-2.774l-14.24-8.316Zm0 0" style="fill-rule:nonzero;fill:#f8d80e;fill-opacity:1;stroke-width:1;stroke-linecap:butt;stroke-linejoin:miter;stroke:#000;stroke-opacity:1;stroke-miterlimit:4" transform="matrix(.07324 0 0 .07422 -6.25 0)"/><path d="M255.307 164.316a4.974 4.974 0 0 0-4 5.105v11.158c.16 2.474 2.133 4.421 4.586 4.632 2.027.105 3.947-1 4.8-2.79l-1.706-1c-.48 1.158-1.707 1.895-2.987 1.79-1.6 0-2.88-1.632-2.72-3.106v-11.21c.213-1.474 1.493-2.632 3.04-2.58.587-.21 1.493.685 1.867 0 .586-.894-.374-1.526-1.014-2Zm5.813 3.895a5.5 5.5 0 0 1-1.92 1.578v7.527l2.027 1.105v-10.21Zm0 0" style="fill-rule:nonzero;fill:#f8d80e;fill-opacity:1;stroke-width:1;stroke-linecap:butt;stroke-linejoin:miter;stroke:#000;stroke-opacity:1;stroke-miterlimit:4" transform="matrix(.07324 0 0 .07422 -6.25 0)"/><path d="M11.387 2.852h2.144v3.945h-2.144Zm0 0" style="stroke:none;fill-rule:nonzero;fill:#000001;fill-opacity:1"/><path d="M238.827 38.421v44.474h9.28v-13.21c0-3 1.973-7.264 7.893-7.264s8 4.263 8 7.263V83h9.173V38.421Zm15.786 5h2.774V58.58h-2.774Zm-8.32 3h2.987v11.053h-2.987Zm16.534 0h2.88v11.053h-2.987ZM235.627 32v6.316h40.746V32Zm-3.84-7.421V32h48.533v-7.421h-6.133v4H267.2v-4h-7.787v4h-6.826v-4h-7.894v4h-6.72v-4Zm-8.96 73.21v4.632h66.453V97.79Zm0 0" style="fill-rule:nonzero;fill:#da000c;fill-opacity:1;stroke-width:1;stroke-linecap:butt;stroke-linejoin:miter;stroke:#000;stroke-opacity:1;stroke-miterlimit:4" transform="matrix(.07324 0 0 .07422 -6.25 0)"/><path d="M220 82.895v15h72v-15h-6.773v5.79H276v-5.79h-12.213v5.79H248v-5.79h-12.213v5.79h-9.014v-5.79Zm0 0" style="fill-rule:nonzero;fill:#da000c;fill-opacity:1;stroke-width:1;stroke-linecap:butt;stroke-linejoin:miter;stroke:#000;stroke-opacity:1;stroke-miterlimit:4" transform="matrix(.07324 0 0 .07422 -6.25 0)"/><path d="M228.693 102.421v54.368h12.8v-20.368c0-9.526 6.4-14 14.507-14 7.787 0 14.507 4.474 14.507 14v20.368h12.8v-54.368Zm0 0" style="fill-rule:nonzero;fill:#da000c;fill-opacity:1;stroke-width:1;stroke-linecap:butt;stroke-linejoin:round;stroke:#000;stroke-opacity:1;stroke-miterlimit:4" transform="matrix(.07324 0 0 .07422 -6.25 0)"/></svg>