<svg xmlns="http://www.w3.org/2000/svg" width="25" height="19" viewBox="0 0 25 19"><path d="M0 0h25v19H0z" style="fill:#e32118;fill-opacity:1;stroke:none"/><path d="M0 0h25v12.668H0Zm0 0" style="stroke:none;fill-rule:nonzero;fill:#fff;fill-opacity:1"/><path d="M0 0h25v6.332H0Zm0 0" style="stroke:none;fill-rule:nonzero;fill:#3e9a00;fill-opacity:1"/><path d="M0 0v19l7.031-9.5Zm0 0" style="stroke:none;fill-rule:nonzero;fill:#0073ce;fill-opacity:1"/><path d="M281.6 191.842h76.6v80.132c0 27.04-35.2 6.217-38.2 20.625-5.2-14.803-38.2 6.612-38.2-22.204Zm0 0" style="fill-rule:nonzero;fill:#fff;fill-opacity:1;stroke-width:1;stroke-linecap:butt;stroke-linejoin:miter;stroke:#000;stroke-opacity:1;stroke-miterlimit:4" transform="scale(.03906 .03958)"/><path d="M325.4 279.77s-1 .987-2.8.197-2-51.414-2-51.414c4-4.342 7.2-5.724 7.2-5.724l2.4 1.974c-9 4.638-8.2 11.15-7.4 22.598.2 4.244.2 9.573 1.2 14.803 1.4 6.612 4.2 12.237 4.4 16.382.2 2.565-3 1.184-3 1.184Zm0 0" style="fill-rule:nonzero;fill:#73452b;fill-opacity:1;stroke-width:.2;stroke-linecap:butt;stroke-linejoin:miter;stroke:#000;stroke-opacity:1;stroke-miterlimit:4" transform="scale(.03906 .03958)"/><path d="M319.2 221.645h3.6c-3 28.914-.4 46.184-.4 54.572 0 2.763 1.6 3.75 1.4 3.75-3.6 4.046-5.4-.197-5.4-.197Zm0 0" style="fill-rule:nonzero;fill:#73452b;fill-opacity:1;stroke-width:.2;stroke-linecap:butt;stroke-linejoin:miter;stroke:#000;stroke-opacity:1;stroke-miterlimit:4" transform="scale(.03906 .03958)"/><path d="M313.6 279.77c-3.4 1.677-3.8-1.58-3.6-1.974 7.4-15 10.6-47.96 3.8-51.612l.4-3.158c2.6.79 5 4.145 5 4.145 1 37.007 0 52.204-.6 52.796-3.6 3.849-5-.592-5.2-.987" style="fill-rule:nonzero;fill:#a36629;fill-opacity:1;stroke-width:.2;stroke-linecap:butt;stroke-linejoin:miter;stroke:#000;stroke-opacity:1;stroke-miterlimit:4" transform="scale(.03906 .03958)"/><path d="M313.4 279.178c-.6-3.158 5.2-11.35 4.8-19.935m5 6.908c1.9 4.935 2.6 9.474 2.2 13.619" style="fill:none;stroke-width:.2;stroke-linecap:butt;stroke-linejoin:miter;stroke:#000;stroke-opacity:1;stroke-miterlimit:4" transform="scale(.03906 .03958)"/><path d="M331 208.026c1.2-1.381 1.2-1.381 3.4-1.381.4-3.06 5.4-3.06 5.8.79 4-.79 4.8 1.578 3.2 3.947 3.8-.987 7.2 0 6.2 4.44 6.8 1.777 4.2 6.612 1.2 7.6-.4 2.96-3.2 3.946-7 2.762-4.8 3.454-7.6 2.171-9.8-1.184-5.4.79-5.8-.395-8.2-3.355-4.2 1.776-5 1.776-8.6-.494-.2 2.862-1.2 2.073-3 1.875.3 3.75-1.2 5.033-4.4 3.948 2.4 5.033-3.8 7.204-6.8 3.059-2.8.197-3-.592-4.4-1.678-1.2 4.046-5.6 3.454-6.4 1.283-5.6-.79-5-3.849-.4-4.046.4-3.158 3.2-2.566 5-2.17.2-1.975 1.4-1.58 2.4-1.185-.7-1.382-.1-2.27 1.6-2.665-2.6-3.355-1-4.54 1.6-5.723-1.4-3.257 1-3.06 2.8-3.257-.2-3.355.8-3.947 4.4-4.44-.4-1.185.2-2.172 2.2-2.172-1.2-3.355.4-4.144 4-3.552.6-5.033 11.2-2.665 10.4 4.144 3 .395 4 .987 4.8 3.454Zm0 0" style="fill-rule:nonzero;fill:#009a3b;fill-opacity:1;stroke-width:.2;stroke-linecap:butt;stroke-linejoin:miter;stroke:#000;stroke-opacity:1;stroke-miterlimit:4" transform="scale(.03906 .03958)"/><path d="M309.6 206.151c.8.494 1.8 0 2 2.27 1.6-2.862 3.6-1.184 3.6 1.974m11-5.823c-.8 1.185-3.8 1.185-3.4 4.441-1-1.381-3-1.776-3.8-.395m12-.592c0 .79-.2 3.158-1 4.342m13.4-.986c.2.197-2.8 0-4.2.986m11.6 11.053c-.8-.395-2.4-1.382-3.6.197 0-.79 0-3.059-2.2-3.059m-1.2 5.625c0-1.973-.4-2.566-.8-3.158m-5.8.395c-1.6-1.184-3.2.592-3.2 1.579m-8.4-3.355c0-.888-.6-2.467.8-3.06m-23.6 11.448c.4-2.072 1.8-2.072 1.6-3.06-.2-1.578-2-2.96-4.2-.789m4.2.79c1.3-.296 2.3-.198 2.8.394m-6.2-7.796c.8-.79 2.8-.592 4 0m0-4.736c1 0 2.8-.395 3.4 1.381 2.2-3.454 3.8-3.06 4.2-2.17m4-.494c1.6-.592 4.4 1.085 6 3.848.8-2.17 2-1.776 3.2-1.973m7.6 1.973c2.6-1.184 4.2 1.185 5 2.171 1.2-1.579 2.2-1.579 3.4-1.579m-32.6 4.244c.6-1.086 2-1.283 3-.592-.2-1.875 1-2.665 1.8-2.27" style="fill:none;stroke-width:.2;stroke-linecap:butt;stroke-linejoin:miter;stroke:#000;stroke-opacity:1;stroke-miterlimit:4" transform="scale(.03906 .03958)"/><path d="m317.4 180.493-4.4.198-2.2 4.046-2.4-3.849-4.4.198 2-3.948-2.4-3.75 4.6-.197 2-3.948 2.4 3.75 4.4-.197-2 4.046Zm-18.8 1.48-4.4.988-1.2 4.342-3.2-3.158-4.2.987 1.2-4.244-3-3.158 4.2-1.085 1.2-4.342 3.2 3.158 4.4-.987-1.4 4.342Zm-18.2 3.75-4 1.974-.2 4.441-3.8-2.467-4 2.072.4-4.54-3.8-2.367 4-2.073.4-4.44 3.6 2.466 4-1.973-.2 4.342Zm42.8-5.23 4.4.198 2 4.046 2.4-3.849 4.4.198-2-3.948 2.4-3.75-4.4-.197-2.2-3.948-2.4 3.75-4.4-.197 2 4.046Zm18.8 1.48 4.2.988 1.2 4.342 3.2-3.158 4.2.987-1.2-4.244 3.2-3.158-4.4-1.085-1.2-4.342-3.2 3.158-4.2-.987 1.2 4.342Zm18 3.75 4 1.974.2 4.441 3.8-2.467 4 2.072-.2-4.54 3.6-2.367-4-2.073-.2-4.44-3.8 2.466-4-1.973.4 4.342Zm0 0" style="fill-rule:nonzero;fill:gold;fill-opacity:1;stroke-width:.7;stroke-linecap:butt;stroke-linejoin:miter;stroke:#000;stroke-opacity:1;stroke-miterlimit:4" transform="scale(.03906 .03958)"/><path d="m365.4 270.395 5 7.204 4.6-6.81-3.2-5.822Zm-31.8 21.02.4 7.203s2 0 3.8-.592c1.6-.592 3-1.875 3-1.875l-.2-3.75Zm-26.8 0-.4 7.006s-1.8 0-3.6-.395c-1.6-.394-3-1.381-3-1.381l-2-4.836Zm-32.2-21.02-5.2 7.204-5.6-9.178 4.2-4.44Zm0 0" style="fill-rule:nonzero;fill:#fff;fill-opacity:1;stroke-width:.7;stroke-linecap:butt;stroke-linejoin:miter;stroke:#000;stroke-opacity:1;stroke-miterlimit:4" transform="scale(.03906 .03958)"/><path d="M299.6 305.822c0 6.81 41.2 6.81 41.2 0v-9.67c0 5.032-41.2 4.045-41.2 0Zm0 0" style="fill-rule:nonzero;fill:#fff;fill-opacity:1;stroke-width:.7;stroke-linecap:butt;stroke-linejoin:miter;stroke:#000;stroke-opacity:1;stroke-miterlimit:4" transform="scale(.03906 .03958)"/><path d="M262.8 283.618c3.6 18.356 36.8 18.75 36.8 18.75v-6.217c-.8-2.368.6-3.158 6-3.947 2.2-.197 1.2-3.355 1.2-3.355s-14.4 2.565-24.6-1.48c-13.8-5.527-15.8-16.382-15.8-16.382s-1 8.388-3.6 12.631Zm114.6 0c-3.4 18.356-36.6 18.75-36.6 18.75v-6.217c.6-2.368-.8-3.158-6.2-3.947-2.2-.197-1-3.355-1-3.355s14.4 2.565 24.6-1.48c13.6-5.527 15.2-16.382 15.2-16.382s1.4 8.388 4 12.631Zm0 0" style="fill-rule:nonzero;fill:#fff;fill-opacity:1;stroke-width:.7;stroke-linecap:butt;stroke-linejoin:miter;stroke:#000;stroke-opacity:1;stroke-miterlimit:4" transform="scale(.03906 .03958)"/><path d="M265.4 276.612c-9.2-5.033-2-10.165-1.2-24.967 1.4 8.98 11.6 12.73 10.4 18.552-4.2.198-6.2-6.217-8.2.79Zm109.4 0c9.2-5.23 1.6-10.165.8-24.967-1.4 8.98-11.4 12.73-10.2 18.552 4 .198 6-6.217 8 .79l1.4 5.427Zm0 0" style="fill-rule:nonzero;fill:#fff;fill-opacity:1;stroke-width:.7;stroke-linecap:butt;stroke-linejoin:miter;stroke:#000;stroke-opacity:1;stroke-miterlimit:4" transform="scale(.03906 .03958)"/><path d="m10.586 11.219.039.031-.086.094c-.035.039-.043.066-.02.09.028.023.051.02.079-.02l.097-.101.032.03-.094.114c-.051.059-.098.047-.14.008-.032-.031-.056-.082 0-.14Zm.156.133.04.023-.009.191.086-.132.04.023-.126.203-.046-.023.007-.188-.086.133-.039-.023Zm.07.332.11-.22.039.024-.102.211Zm.172-.188-.086.227.086.035q.112.034.141-.078.048-.1-.062-.153Zm.032.055c.078.027.086.058.062.117-.023.05-.039.074-.117.031Zm.226.031-.14.215.054.015.031-.054.094.023.008.055.055.008-.055-.254Zm.016.055.015.097-.062-.011Zm.117-.035-.008.246h.09c.086.004.11-.04.113-.118 0-.074-.027-.12-.113-.12Zm.047.039c.086.004.098.03.098.093-.004.059-.016.082-.102.07v-.16Zm.773.304v.254h.055v-.094s.047 0 .086-.007c.031-.008.047-.032.05-.082q.001-.07-.073-.07Zm.055.04h.055c.043 0 .039.074 0 .074h-.055Zm.227-.04-.102.254h.055l.023-.062h.102l.023.062h.055l-.102-.254ZM12.5 12l.04.098h-.071Zm.133.152.133-.168h-.118v-.039h.188v.04l-.14.167h.14v.047h-.203Zm.789-.492.047-.008.023.145c.004.05-.012.086-.05.098-.04.015-.094 0-.098-.067l.039-.008q.016.052.039.04.03-.016.023-.055Zm.078-.015.043-.008.023.12q.006.072.059.067c.035-.008.047-.031.035-.078l-.027-.125.047-.008.03.133c.017.078-.023.106-.077.117-.043.008-.094 0-.11-.078Zm.242.113.04-.016c.019.035.046.031.07.024q.047-.035.02-.059c-.024-.012-.079.008-.106 0-.036-.016-.051-.035-.047-.066q.007-.054.066-.067.064-.024.106.04l-.047.015c-.02-.024-.035-.027-.055-.016-.016.008-.039.02-.023.04.007.019.066.007.097.007a.06.06 0 0 1 .059.05q.018.067-.059.09c-.058.024-.113 0-.12-.042m.21-.2-.062.032-.016-.04.172-.07.015.032-.062.031.07.172-.039.027Zm.102-.085.039-.024.11.203-.04.024Zm.265.015.047-.015a.1.1 0 0 1-.012.09.09.09 0 0 1-.082.039c-.117 0-.132-.133-.113-.18.031-.074.117-.07.156-.031l-.039.03c-.023-.03-.078-.01-.078.02a.12.12 0 0 0 .055.118c.039.015.094-.032.066-.07m-.023-.169.039-.03.14.19-.039.032Zm.148-.117-.039.031.086.239.04-.04-.024-.05.07-.063.047.024.04-.031Zm.016.055.078.039-.047.047Zm0 0" style="stroke:none;fill-rule:nonzero;fill:#000;fill-opacity:1"/></svg>