<?xml version="1.0" encoding="UTF-8"?>
<svg xmlns="http://www.w3.org/2000/svg" xmlns:xlink="http://www.w3.org/1999/xlink" width="25px" height="19px" viewBox="0 0 25 19" version="1.1">
<g id="surface1">
<rect x="0" y="0" width="25" height="19" style="fill:rgb(89.019608%,12.941177%,9.411765%);fill-opacity:1;stroke:none;"/>
<path style=" stroke:none;fill-rule:nonzero;fill:rgb(100%,100%,100%);fill-opacity:1;" d="M 0 0 L 25 0 L 25 12.667969 L 0 12.667969 Z M 0 0 "/>
<path style=" stroke:none;fill-rule:nonzero;fill:rgb(24.313726%,60.392159%,0%);fill-opacity:1;" d="M 0 0 L 25 0 L 25 6.332031 L 0 6.332031 Z M 0 0 "/>
<path style=" stroke:none;fill-rule:nonzero;fill:rgb(0%,45.09804%,80.784315%);fill-opacity:1;" d="M 0 0 L 0 19 L 7.03125 9.5 Z M 0 0 "/>
<path style="fill-rule:nonzero;fill:rgb(100%,100%,100%);fill-opacity:1;stroke-width:1;stroke-linecap:butt;stroke-linejoin:miter;stroke:rgb(0%,0%,0%);stroke-opacity:1;stroke-miterlimit:4;" d="M 281.6 191.842105 L 358.2 191.842105 L 358.2 271.973684 C 358.2 299.013158 323 278.190789 320 292.598684 C 314.8 277.796053 281.8 299.210526 281.8 270.394737 Z M 281.6 191.842105 " transform="matrix(0.0390625,0,0,0.0395833,0,0)"/>
<path style="fill-rule:nonzero;fill:rgb(45.09804%,27.058825%,16.862746%);fill-opacity:1;stroke-width:0.2;stroke-linecap:butt;stroke-linejoin:miter;stroke:rgb(0%,0%,0%);stroke-opacity:1;stroke-miterlimit:4;" d="M 325.4 279.769737 C 325.4 279.769737 324.4 280.756579 322.6 279.967105 C 320.8 279.177632 320.6 228.552632 320.6 228.552632 C 324.6 224.210526 327.8 222.828947 327.8 222.828947 L 330.2 224.802632 C 321.2 229.440789 322 235.953947 322.8 247.401316 C 323 251.644737 323 256.973684 324 262.203947 C 325.4 268.815789 328.2 274.440789 328.4 278.585526 C 328.6 281.151316 325.4 279.769737 325.4 279.769737 Z M 325.4 279.769737 " transform="matrix(0.0390625,0,0,0.0395833,0,0)"/>
<path style="fill-rule:nonzero;fill:rgb(45.09804%,27.058825%,16.862746%);fill-opacity:1;stroke-width:0.2;stroke-linecap:butt;stroke-linejoin:miter;stroke:rgb(0%,0%,0%);stroke-opacity:1;stroke-miterlimit:4;" d="M 319.2 221.644737 L 322.8 221.644737 C 319.8 250.559211 322.4 267.828947 322.4 276.217105 C 322.4 278.980263 324 279.967105 323.8 279.967105 C 320.2 284.013158 318.4 279.769737 318.4 279.769737 Z M 319.2 221.644737 " transform="matrix(0.0390625,0,0,0.0395833,0,0)"/>
<path style="fill-rule:nonzero;fill:rgb(63.921571%,40.000001%,16.078432%);fill-opacity:1;stroke-width:0.2;stroke-linecap:butt;stroke-linejoin:miter;stroke:rgb(0%,0%,0%);stroke-opacity:1;stroke-miterlimit:4;" d="M 313.6 279.769737 C 310.2 281.447368 309.8 278.190789 310 277.796053 C 317.4 262.796053 320.6 229.835526 313.8 226.184211 L 314.2 223.026316 C 316.8 223.815789 319.2 227.171053 319.2 227.171053 C 320.2 264.177632 319.2 279.375 318.6 279.967105 C 315 283.815789 313.6 279.375 313.4 278.980263 " transform="matrix(0.0390625,0,0,0.0395833,0,0)"/>
<path style="fill:none;stroke-width:0.2;stroke-linecap:butt;stroke-linejoin:miter;stroke:rgb(0%,0%,0%);stroke-opacity:1;stroke-miterlimit:4;" d="M 313.4 279.177632 C 312.8 276.019737 318.6 267.828947 318.2 259.243421 M 323.2 266.151316 C 325.1 271.085526 325.8 275.625 325.4 279.769737 " transform="matrix(0.0390625,0,0,0.0395833,0,0)"/>
<path style="fill-rule:nonzero;fill:rgb(0%,60.392159%,23.137255%);fill-opacity:1;stroke-width:0.2;stroke-linecap:butt;stroke-linejoin:miter;stroke:rgb(0%,0%,0%);stroke-opacity:1;stroke-miterlimit:4;" d="M 331 208.026316 C 332.2 206.644737 332.2 206.644737 334.4 206.644737 C 334.8 203.585526 339.8 203.585526 340.2 207.434211 C 344.2 206.644737 345 209.013158 343.4 211.381579 C 347.2 210.394737 350.6 211.381579 349.6 215.822368 C 356.4 217.598684 353.8 222.434211 350.8 223.421053 C 350.4 226.381579 347.6 227.368421 343.8 226.184211 C 339 229.638158 336.2 228.355263 334 225 C 328.6 225.789474 328.2 224.605263 325.8 221.644737 C 321.6 223.421053 320.8 223.421053 317.2 221.151316 C 317 224.013158 316 223.223684 314.2 223.026316 C 314.5 226.776316 313 228.059211 309.8 226.973684 C 312.2 232.006579 306 234.177632 303 230.032895 C 300.2 230.230263 300 229.440789 298.6 228.355263 C 297.4 232.401316 293 231.809211 292.2 229.638158 C 286.6 228.848684 287.2 225.789474 291.8 225.592105 C 292.2 222.434211 295 223.026316 296.8 223.421053 C 297 221.447368 298.2 221.842105 299.2 222.236842 C 298.5 220.855263 299.1 219.967105 300.8 219.572368 C 298.2 216.217105 299.8 215.032895 302.4 213.848684 C 301 210.592105 303.4 210.789474 305.2 210.592105 C 305 207.236842 306 206.644737 309.6 206.151316 C 309.2 204.967105 309.8 203.980263 311.8 203.980263 C 310.6 200.625 312.2 199.835526 315.8 200.427632 C 316.4 195.394737 327 197.763158 326.2 204.572368 C 329.2 204.967105 330.2 205.559211 331 208.026316 Z M 331 208.026316 " transform="matrix(0.0390625,0,0,0.0395833,0,0)"/>
<path style="fill:none;stroke-width:0.2;stroke-linecap:butt;stroke-linejoin:miter;stroke:rgb(0%,0%,0%);stroke-opacity:1;stroke-miterlimit:4;" d="M 309.6 206.151316 C 310.4 206.644737 311.4 206.151316 311.6 208.421053 C 313.2 205.559211 315.2 207.236842 315.2 210.394737 M 326.2 204.572368 C 325.4 205.756579 322.4 205.756579 322.8 209.013158 C 321.8 207.631579 319.8 207.236842 319 208.618421 M 331 208.026316 C 331 208.815789 330.8 211.184211 330 212.368421 M 343.4 211.381579 C 343.6 211.578947 340.6 211.381579 339.2 212.368421 M 350.8 223.421053 C 350 223.026316 348.4 222.039474 347.2 223.618421 C 347.2 222.828947 347.2 220.559211 345 220.559211 M 343.8 226.184211 C 343.8 224.210526 343.4 223.618421 343 223.026316 M 337.2 223.421053 C 335.6 222.236842 334 224.013158 334 225 M 325.6 221.644737 C 325.6 220.756579 325 219.177632 326.4 218.585526 M 302.8 230.032895 C 303.2 227.960526 304.6 227.960526 304.4 226.973684 C 304.2 225.394737 302.4 224.013158 300.2 226.184211 M 304.4 226.973684 C 305.7 226.677632 306.7 226.776316 307.2 227.368421 M 301 219.572368 C 301.8 218.782895 303.8 218.980263 305 219.572368 M 305 214.835526 C 306 214.835526 307.8 214.440789 308.4 216.217105 C 310.6 212.763158 312.2 213.157895 312.6 214.046053 M 316.6 213.552632 C 318.2 212.960526 321 214.638158 322.6 217.401316 C 323.4 215.230263 324.6 215.625 325.8 215.427632 M 333.4 217.401316 C 336 216.217105 337.6 218.585526 338.4 219.572368 C 339.6 217.993421 340.6 217.993421 341.8 217.993421 M 309.2 222.236842 C 309.8 221.151316 311.2 220.953947 312.2 221.644737 C 312 219.769737 313.2 218.980263 314 219.375 " transform="matrix(0.0390625,0,0,0.0395833,0,0)"/>
<path style="fill-rule:nonzero;fill:rgb(100%,84.313726%,0%);fill-opacity:1;stroke-width:0.7;stroke-linecap:butt;stroke-linejoin:miter;stroke:rgb(0%,0%,0%);stroke-opacity:1;stroke-miterlimit:4;" d="M 317.4 180.493421 L 313 180.690789 L 310.8 184.736842 L 308.4 180.888158 L 304 181.085526 L 306 177.138158 L 303.6 173.388158 L 308.2 173.190789 L 310.2 169.243421 L 312.6 172.993421 L 317 172.796053 L 315 176.842105 Z M 298.6 181.973684 L 294.2 182.960526 L 293 187.302632 L 289.8 184.144737 L 285.6 185.131579 L 286.8 180.888158 L 283.8 177.730263 L 288 176.644737 L 289.2 172.302632 L 292.4 175.460526 L 296.8 174.473684 L 295.4 178.815789 Z M 280.4 185.723684 L 276.4 187.697368 L 276.2 192.138158 L 272.4 189.671053 L 268.4 191.743421 L 268.8 187.203947 L 265 184.835526 L 269 182.763158 L 269.4 178.322368 L 273 180.789474 L 277 178.815789 L 276.8 183.157895 Z M 323.2 180.493421 L 327.6 180.690789 L 329.6 184.736842 L 332 180.888158 L 336.4 181.085526 L 334.4 177.138158 L 336.8 173.388158 L 332.4 173.190789 L 330.2 169.243421 L 327.8 172.993421 L 323.4 172.796053 L 325.4 176.842105 Z M 342 181.973684 L 346.2 182.960526 L 347.4 187.302632 L 350.6 184.144737 L 354.8 185.131579 L 353.6 180.888158 L 356.8 177.730263 L 352.4 176.644737 L 351.2 172.302632 L 348 175.460526 L 343.8 174.473684 L 345 178.815789 Z M 360 185.723684 L 364 187.697368 L 364.2 192.138158 L 368 189.671053 L 372 191.743421 L 371.8 187.203947 L 375.4 184.835526 L 371.4 182.763158 L 371.2 178.322368 L 367.4 180.789474 L 363.4 178.815789 L 363.8 183.157895 Z M 360 185.723684 " transform="matrix(0.0390625,0,0,0.0395833,0,0)"/>
<path style="fill-rule:nonzero;fill:rgb(100%,100%,100%);fill-opacity:1;stroke-width:0.7;stroke-linecap:butt;stroke-linejoin:miter;stroke:rgb(0%,0%,0%);stroke-opacity:1;stroke-miterlimit:4;" d="M 365.4 270.394737 L 370.4 277.598684 L 375 270.789474 L 371.8 264.967105 Z M 333.6 291.414474 L 334 298.618421 C 334 298.618421 336 298.618421 337.8 298.026316 C 339.4 297.434211 340.8 296.151316 340.8 296.151316 L 340.6 292.401316 Z M 306.8 291.414474 L 306.4 298.421053 C 306.4 298.421053 304.6 298.421053 302.8 298.026316 C 301.2 297.631579 299.8 296.644737 299.8 296.644737 L 297.8 291.809211 Z M 274.6 270.394737 L 269.4 277.598684 L 263.8 268.421053 L 268 263.980263 Z M 274.6 270.394737 " transform="matrix(0.0390625,0,0,0.0395833,0,0)"/>
<path style="fill-rule:nonzero;fill:rgb(100%,100%,100%);fill-opacity:1;stroke-width:0.7;stroke-linecap:butt;stroke-linejoin:miter;stroke:rgb(0%,0%,0%);stroke-opacity:1;stroke-miterlimit:4;" d="M 299.6 305.822368 C 299.6 312.631579 340.8 312.631579 340.8 305.822368 L 340.8 296.151316 C 340.8 301.184211 299.6 300.197368 299.6 296.151316 Z M 299.6 305.822368 " transform="matrix(0.0390625,0,0,0.0395833,0,0)"/>
<path style="fill-rule:nonzero;fill:rgb(100%,100%,100%);fill-opacity:1;stroke-width:0.7;stroke-linecap:butt;stroke-linejoin:miter;stroke:rgb(0%,0%,0%);stroke-opacity:1;stroke-miterlimit:4;" d="M 262.8 283.618421 C 266.4 301.973684 299.6 302.368421 299.6 302.368421 L 299.6 296.151316 C 298.8 293.782895 300.2 292.993421 305.6 292.203947 C 307.8 292.006579 306.8 288.848684 306.8 288.848684 C 306.8 288.848684 292.4 291.414474 282.2 287.368421 C 268.4 281.842105 266.4 270.986842 266.4 270.986842 C 266.4 270.986842 265.4 279.375 262.8 283.618421 Z M 377.4 283.618421 C 374 301.973684 340.8 302.368421 340.8 302.368421 L 340.8 296.151316 C 341.4 293.782895 340 292.993421 334.6 292.203947 C 332.4 292.006579 333.6 288.848684 333.6 288.848684 C 333.6 288.848684 348 291.414474 358.2 287.368421 C 371.8 281.842105 373.4 270.986842 373.4 270.986842 C 373.4 270.986842 374.8 279.375 377.4 283.618421 Z M 377.4 283.618421 " transform="matrix(0.0390625,0,0,0.0395833,0,0)"/>
<path style="fill-rule:nonzero;fill:rgb(100%,100%,100%);fill-opacity:1;stroke-width:0.7;stroke-linecap:butt;stroke-linejoin:miter;stroke:rgb(0%,0%,0%);stroke-opacity:1;stroke-miterlimit:4;" d="M 265.4 276.611842 C 256.2 271.578947 263.4 266.447368 264.2 251.644737 C 265.6 260.625 275.8 264.375 274.6 270.197368 C 270.4 270.394737 268.4 263.980263 266.4 270.986842 Z M 374.8 276.611842 C 384 271.381579 376.4 266.447368 375.6 251.644737 C 374.2 260.625 364.2 264.375 365.4 270.197368 C 369.4 270.394737 371.4 263.980263 373.4 270.986842 L 374.8 276.414474 Z M 374.8 276.611842 " transform="matrix(0.0390625,0,0,0.0395833,0,0)"/>
<path style=" stroke:none;fill-rule:nonzero;fill:rgb(0%,0%,0%);fill-opacity:1;" d="M 10.585938 11.21875 L 10.625 11.25 L 10.539062 11.34375 C 10.503906 11.382812 10.496094 11.410156 10.519531 11.433594 C 10.546875 11.457031 10.570312 11.453125 10.597656 11.414062 L 10.695312 11.3125 L 10.726562 11.34375 L 10.632812 11.457031 C 10.582031 11.515625 10.535156 11.503906 10.492188 11.464844 C 10.460938 11.433594 10.4375 11.382812 10.492188 11.324219 Z M 10.742188 11.351562 L 10.78125 11.375 L 10.773438 11.566406 L 10.859375 11.433594 L 10.898438 11.457031 L 10.773438 11.660156 L 10.726562 11.636719 L 10.734375 11.449219 L 10.648438 11.582031 L 10.609375 11.558594 Z M 10.8125 11.683594 L 10.921875 11.464844 L 10.960938 11.488281 L 10.859375 11.699219 Z M 10.984375 11.496094 L 10.898438 11.722656 L 10.984375 11.757812 C 11.058594 11.78125 11.105469 11.753906 11.125 11.679688 C 11.15625 11.613281 11.136719 11.5625 11.0625 11.527344 Z M 11.015625 11.550781 C 11.09375 11.578125 11.101562 11.609375 11.078125 11.667969 C 11.054688 11.71875 11.039062 11.742188 10.960938 11.699219 Z M 11.242188 11.582031 L 11.101562 11.796875 L 11.15625 11.8125 L 11.1875 11.757812 L 11.28125 11.78125 L 11.289062 11.835938 L 11.34375 11.84375 L 11.289062 11.589844 Z M 11.257812 11.636719 L 11.273438 11.734375 L 11.210938 11.722656 Z M 11.375 11.601562 L 11.367188 11.847656 L 11.457031 11.847656 C 11.542969 11.851562 11.566406 11.808594 11.570312 11.730469 C 11.570312 11.65625 11.542969 11.609375 11.457031 11.609375 Z M 11.421875 11.640625 C 11.507812 11.644531 11.519531 11.671875 11.519531 11.734375 C 11.515625 11.792969 11.503906 11.816406 11.417969 11.804688 L 11.417969 11.644531 Z M 12.195312 11.945312 L 12.195312 12.199219 L 12.25 12.199219 L 12.25 12.105469 C 12.25 12.105469 12.296875 12.105469 12.335938 12.097656 C 12.367188 12.089844 12.382812 12.066406 12.386719 12.015625 C 12.386719 11.96875 12.363281 11.945312 12.3125 11.945312 Z M 12.25 11.984375 L 12.304688 11.984375 C 12.347656 11.984375 12.34375 12.058594 12.304688 12.058594 L 12.25 12.058594 Z M 12.476562 11.945312 L 12.375 12.199219 L 12.429688 12.199219 L 12.453125 12.136719 L 12.554688 12.136719 L 12.578125 12.199219 L 12.632812 12.199219 L 12.53125 11.945312 Z M 12.5 12 L 12.539062 12.097656 L 12.46875 12.097656 Z M 12.632812 12.152344 L 12.765625 11.984375 L 12.648438 11.984375 L 12.648438 11.945312 L 12.835938 11.945312 L 12.835938 11.984375 L 12.695312 12.152344 L 12.835938 12.152344 L 12.835938 12.199219 L 12.632812 12.199219 Z M 13.421875 11.660156 L 13.46875 11.652344 L 13.492188 11.796875 C 13.496094 11.847656 13.480469 11.882812 13.441406 11.894531 C 13.402344 11.910156 13.347656 11.894531 13.34375 11.828125 L 13.382812 11.820312 C 13.394531 11.855469 13.40625 11.867188 13.421875 11.859375 C 13.441406 11.847656 13.449219 11.832031 13.445312 11.804688 Z M 13.5 11.644531 L 13.542969 11.636719 L 13.566406 11.757812 C 13.570312 11.804688 13.589844 11.828125 13.625 11.824219 C 13.660156 11.816406 13.671875 11.792969 13.660156 11.746094 L 13.632812 11.621094 L 13.679688 11.613281 L 13.710938 11.746094 C 13.726562 11.824219 13.6875 11.851562 13.632812 11.863281 C 13.589844 11.871094 13.539062 11.863281 13.523438 11.785156 Z M 13.742188 11.757812 L 13.78125 11.742188 C 13.800781 11.777344 13.828125 11.773438 13.851562 11.765625 C 13.882812 11.742188 13.890625 11.722656 13.871094 11.707031 C 13.847656 11.695312 13.792969 11.714844 13.765625 11.707031 C 13.730469 11.691406 13.714844 11.671875 13.71875 11.640625 C 13.722656 11.605469 13.746094 11.582031 13.785156 11.574219 C 13.828125 11.558594 13.863281 11.570312 13.890625 11.613281 L 13.84375 11.628906 C 13.824219 11.605469 13.808594 11.601562 13.789062 11.613281 C 13.773438 11.621094 13.75 11.632812 13.765625 11.652344 C 13.773438 11.671875 13.832031 11.660156 13.863281 11.660156 C 13.894531 11.660156 13.917969 11.683594 13.921875 11.710938 C 13.933594 11.753906 13.914062 11.785156 13.863281 11.800781 C 13.804688 11.824219 13.75 11.800781 13.742188 11.757812 M 13.953125 11.558594 L 13.890625 11.589844 L 13.875 11.550781 L 14.046875 11.480469 L 14.0625 11.511719 L 14 11.542969 L 14.070312 11.714844 L 14.03125 11.742188 Z M 14.054688 11.472656 L 14.09375 11.449219 L 14.203125 11.652344 L 14.164062 11.675781 Z M 14.320312 11.488281 L 14.367188 11.472656 C 14.378906 11.5 14.375 11.535156 14.355469 11.5625 C 14.335938 11.589844 14.304688 11.605469 14.273438 11.601562 C 14.15625 11.601562 14.140625 11.46875 14.160156 11.421875 C 14.191406 11.347656 14.277344 11.351562 14.316406 11.390625 L 14.277344 11.421875 C 14.253906 11.390625 14.199219 11.410156 14.199219 11.441406 C 14.191406 11.488281 14.214844 11.535156 14.253906 11.558594 C 14.292969 11.574219 14.347656 11.527344 14.320312 11.488281 M 14.296875 11.320312 L 14.335938 11.289062 L 14.476562 11.480469 L 14.4375 11.511719 Z M 14.445312 11.203125 L 14.40625 11.234375 L 14.492188 11.472656 L 14.53125 11.433594 L 14.507812 11.382812 L 14.578125 11.320312 L 14.625 11.34375 L 14.664062 11.3125 Z M 14.460938 11.257812 L 14.539062 11.296875 L 14.492188 11.34375 Z M 14.460938 11.257812 "/>
</g>
</svg>
