<?xml version="1.0" encoding="UTF-8"?>
<svg xmlns="http://www.w3.org/2000/svg" xmlns:xlink="http://www.w3.org/1999/xlink" width="25px" height="19px" viewBox="0 0 25 19" version="1.1">
<g id="surface1">
<path style=" stroke:none;fill-rule:evenodd;fill:rgb(5.098039%,36.862746%,68.627453%);fill-opacity:1;" d="M 0 0 L 25 0 L 25 2.109375 L 0 2.109375 Z M 0 0 "/>
<path style=" stroke:none;fill-rule:evenodd;fill:rgb(100%,100%,100%);fill-opacity:1;" d="M 0 2.109375 L 25 2.109375 L 25 4.222656 L 0 4.222656 Z M 0 2.109375 "/>
<path style=" stroke:none;fill-rule:evenodd;fill:rgb(5.098039%,36.862746%,68.627453%);fill-opacity:1;" d="M 0 4.222656 L 25 4.222656 L 25 6.332031 L 0 6.332031 Z M 0 4.222656 "/>
<path style=" stroke:none;fill-rule:evenodd;fill:rgb(100%,100%,100%);fill-opacity:1;" d="M 0 6.332031 L 25 6.332031 L 25 8.441406 L 0 8.441406 Z M 0 6.332031 "/>
<path style=" stroke:none;fill-rule:nonzero;fill:rgb(5.098039%,36.862746%,68.627453%);fill-opacity:1;" d="M 0 0 L 10.417969 0 L 10.417969 10.558594 L 0 10.558594 Z M 0 0 "/>
<path style=" stroke:none;fill-rule:evenodd;fill:rgb(5.098039%,36.862746%,68.627453%);fill-opacity:1;" d="M 0 8.441406 L 25 8.441406 L 25 10.558594 L 0 10.558594 Z M 0 8.441406 "/>
<path style=" stroke:none;fill-rule:evenodd;fill:rgb(100%,100%,100%);fill-opacity:1;" d="M 0 10.558594 L 25 10.558594 L 25 12.667969 L 0 12.667969 Z M 0 10.558594 "/>
<path style=" stroke:none;fill-rule:evenodd;fill:rgb(5.098039%,36.862746%,68.627453%);fill-opacity:1;" d="M 0 12.667969 L 25 12.667969 L 25 14.777344 L 0 14.777344 Z M 0 12.667969 "/>
<path style=" stroke:none;fill-rule:evenodd;fill:rgb(100%,100%,100%);fill-opacity:1;" d="M 0 14.777344 L 25 14.777344 L 25 16.890625 L 0 16.890625 Z M 0 14.777344 "/>
<path style=" stroke:none;fill-rule:evenodd;fill:rgb(100%,100%,100%);fill-opacity:1;" d="M 4.167969 0 L 6.25 0 L 6.25 10.558594 L 4.167969 10.558594 Z M 4.167969 0 "/>
<path style=" stroke:none;fill-rule:evenodd;fill:rgb(100%,100%,100%);fill-opacity:1;" d="M 0 4.222656 L 10.417969 4.222656 L 10.417969 6.332031 L 0 6.332031 Z M 0 4.222656 "/>
<path style=" stroke:none;fill-rule:nonzero;fill:rgb(5.098039%,36.862746%,68.627453%);fill-opacity:1;" d="M 0 16.890625 L 25 16.890625 L 25 19 L 0 19 Z M 0 16.890625 "/>
</g>
</svg>
