<svg xmlns="http://www.w3.org/2000/svg" width="25" height="19" viewBox="0 0 25 19"><defs><radialGradient id="a" cx="447.4" cy="308.3" r="16.5" fx="447.4" fy="308.3" gradientUnits="userSpaceOnUse"><stop offset=".2" style="stop-color:#f9f0aa;stop-opacity:1"/><stop offset="1" style="stop-color:#b07e09;stop-opacity:1"/></radialGradient><radialGradient id="b" cx="451.6" cy="313" r="10.9" fx="451.6" fy="313" gradientUnits="userSpaceOnUse"><stop offset=".2" style="stop-color:#f9f0aa;stop-opacity:1"/><stop offset="1" style="stop-color:#b07e09;stop-opacity:1"/></radialGradient><radialGradient id="c" cx="454.1" cy="308.6" r="9.8" fx="454.1" fy="308.6" gradientUnits="userSpaceOnUse"><stop offset=".2" style="stop-color:#f9f0aa;stop-opacity:1"/><stop offset="1" style="stop-color:#b07e09;stop-opacity:1"/></radialGradient><radialGradient id="d" cx="458.4" cy="307.1" r="17.4" fx="458.4" fy="307.1" gradientUnits="userSpaceOnUse"><stop offset=".2" style="stop-color:#f9f0aa;stop-opacity:1"/><stop offset="1" style="stop-color:#b07e09;stop-opacity:1"/></radialGradient><radialGradient id="g" cx="446" cy="252.4" r="13" fx="446" fy="252.4" gradientUnits="userSpaceOnUse"><stop offset=".2" style="stop-color:#f9f0aa;stop-opacity:1"/><stop offset="1" style="stop-color:#b07e09;stop-opacity:1"/></radialGradient><radialGradient id="j" cx="477.9" cy="215.3" r=".3" fx="477.9" fy="215.3" gradientUnits="userSpaceOnUse"><stop offset=".3" style="stop-color:#a50a0a;stop-opacity:1"/><stop offset="1" style="stop-color:#4c0505;stop-opacity:1"/></radialGradient><radialGradient id="k" cx="489.1" cy="210.3" r=".3" fx="489.1" fy="210.3" gradientTransform="matrix(.03097 0 0 .03348 -2.71 -.317)" gradientUnits="userSpaceOnUse"><stop offset="0" style="stop-color:#fff;stop-opacity:1"/><stop offset="1" style="stop-color:#fff;stop-opacity:0"/></radialGradient><linearGradient id="e" x1="473.9" x2="472.4" y1="259.2" y2="232" gradientUnits="userSpaceOnUse"><stop offset=".2" style="stop-color:#b07e09;stop-opacity:0"/><stop offset="1" style="stop-color:#b07e09;stop-opacity:1"/></linearGradient><linearGradient id="f" x1="483.1" x2="485.5" y1="296.7" y2="326.6" gradientUnits="userSpaceOnUse"><stop offset=".2" style="stop-color:#b07e09;stop-opacity:0"/><stop offset="1" style="stop-color:#b07e09;stop-opacity:1"/></linearGradient><linearGradient id="h" x1="451.5" x2="455.4" y1="249.5" y2="240.6" gradientUnits="userSpaceOnUse"><stop offset=".2" style="stop-color:#f9f0aa;stop-opacity:1"/><stop offset="1" style="stop-color:#b07e09;stop-opacity:1"/></linearGradient><linearGradient id="i" x1="473.3" x2="475.9" y1="237.2" y2="270.4" gradientUnits="userSpaceOnUse"><stop offset=".2" style="stop-color:#f9f0aa;stop-opacity:1"/><stop offset="1" style="stop-color:#b07e09;stop-opacity:1"/></linearGradient></defs><path d="M0 0h25v19H0z" style="fill:#4997d0;fill-opacity:1;stroke:none"/><path d="M8.332 0h8.336v19H8.332Zm0 0" style="stroke:none;fill-rule:nonzero;fill:#fff;fill-opacity:1"/><path d="M452.097 377.477c2.712-.358 4.19-1.194 6.04-1.79m2.218-4.06c1.356 1.313 2.342 2.865 3.082 4.656m-8.135-5.135c1.232 1.195 2.342 2.628 2.958 4.3m-49.425-136.61c-.986 1.552-3.081 2.626-4.807 3.343m-.37-.24a25 25 0 0 1 0-4.298m-1.849 5.015c0 .359.37 1.314.617 1.911m2.095 1.075-1.972.239m-4.068-.836c0 2.507.37 5.612.494 7.881m-1.726-1.075c.37.956.986 1.553 1.602 1.911m-4.683 6.568c.616.716.986 2.15 1.355 3.94m3.698-4.657-1.972 1.433m1.602 4.419c-.986.955-2.095 1.552-3.45 2.149m-3.822 40.362c.986 1.791 2.342 3.463 4.068 4.777m.493 1.672q-1.479-.18-2.958-1.075m4.437 8.598 1.725.955m-.493 3.344q1.849 1.432 3.698 3.94m-1.356 2.866c1.356.24 2.465.597 3.205.956m-.986 2.507h1.972m1.356-5.373-.493 4.299m.986 1.552.37-1.552m4.683 5.97-.123 3.224m39.195 27.824-1.11 1.672m-2.465-3.94-.74-1.792" style="fill:none;stroke-width:.4;stroke-linecap:butt;stroke-linejoin:miter;stroke:#24420e;stroke-opacity:1;stroke-miterlimit:4" transform="matrix(.0317 0 0 .03271 -2.71 -.317)"/><path d="M486.115 385c-.862-1.194-1.972-2.149-3.327-2.746-7.642-3.94-15.407-5.851-24.035-7.284-2.095-.24-4.067-2.15-6.163-3.224-4.93-2.27-10.476-3.105-15.283-5.613-.247-.12-1.48-.836-1.972-1.552-2.096-2.15-5.547-2.866-7.642-5.016-8.382-7.762-17.133-14.927-21.816-25.435-5.547-12.777-12.449-25.794-11.586-40.243.616-9.195-.74-18.39 1.479-26.987 3.451-13.017 7.642-25.675 15.407-36.422l-1.233.836c-7.395 10.986-12.695 23.286-15.407 36.302-2.341 8.717-.986 18.032-1.479 26.988-1.109 14.449 5.917 27.585 11.463 40.242 4.56 10.509 13.435 17.793 21.816 25.675 2.219 2.03 5.546 2.627 7.519 5.015l2.095 1.433c4.807 2.388 10.353 3.344 15.407 5.732 1.972.955 3.944 2.746 5.916 3.224 8.381 1.075 16.64 3.463 24.281 7.165 1.233.597 2.465 1.552 3.205 2.746l1.355-.955" style="fill-rule:nonzero;fill:#406325;fill-opacity:1;stroke-width:.2;stroke-linecap:butt;stroke-linejoin:miter;stroke:#24420e;stroke-opacity:1;stroke-miterlimit:4" transform="matrix(.0317 0 0 .03271 -2.71 -.317)"/><path d="M406.247 331.622c-1.973-7.762-2.096-15.762-.124-23.524 6.656 13.016 4.437 23.644.124 23.524ZM452.22 377c-8.134 1.91-15.653 5.851-21.939 11.344 15.16.12 24.035-7.284 21.94-11.344Zm7.519-4.3a59.26 59.26 0 0 1-14.051-26.51c15.037 10.868 18.858 24.361 14.05 26.51Zm0 0" style="fill-rule:nonzero;fill:#67923d;fill-opacity:1;stroke-width:.2;stroke-linecap:butt;stroke-linejoin:miter;stroke:#24420e;stroke-opacity:1;stroke-miterlimit:4" transform="matrix(.0317 0 0 .03271 -2.71 -.317)"/><path d="M454.562 372.82a55.9 55.9 0 0 1-16.023-22.808c15.407 8.24 20.337 20.181 16.023 22.808Zm-15.53-6.806c.986-7.762-5.67-24.241-7.518-26.033-2.958 16.48 2.958 27.585 7.518 26.033Zm-27.362-24.36c-1.603-6.927-1.356-14.092.493-20.898 5.546 11.702 3.328 21.136-.493 20.897Zm-13.682-76.784c5.547-7.046 12.696-12.539 20.954-16.002-6.78 14.688-17.995 19.942-20.954 16.002Zm0 0" style="fill-rule:nonzero;fill:#67923d;fill-opacity:1;stroke-width:.2;stroke-linecap:butt;stroke-linejoin:miter;stroke:#24420e;stroke-opacity:1;stroke-miterlimit:4" transform="matrix(.0317 0 0 .03271 -2.71 -.317)"/><path d="M398.728 259.257a51.97 51.97 0 0 1 17.379-19.942c-3.698 15.643-13.681 23.166-17.379 19.942Zm27.856 99.234c-4.56-8.001-7.15-17.077-7.273-26.391 11.217 12.538 11.956 25.316 7.15 26.39Zm-28.719-36.541c-7.025 1.194-21.323-4.538-22.925-6.21 14.544-3.224 24.404 1.91 22.925 6.21Zm-2.218-9.673c.862-5.493 8.627-15.763 10.353-16.599-.986 12.061-7.395 18.63-10.353 16.6Zm51.397 58.633a56.5 56.5 0 0 0-26.13 13.613c17.995.12 28.718-8.717 26.13-13.613Zm0 0" style="fill-rule:nonzero;fill:#67923d;fill-opacity:1;stroke-width:.2;stroke-linecap:butt;stroke-linejoin:miter;stroke:#24420e;stroke-opacity:1;stroke-miterlimit:4" transform="matrix(.0317 0 0 .03271 -2.71 -.317)"/><path d="M406.37 331.503c4.19.239 6.409-10.39-.247-23.405 1.233 7.762 1.356 15.643.247 23.405Zm11.216 19.942c-6.163-5.493-13.681-9.314-21.693-11.105 8.874 12.06 19.967 15.046 21.693 11.105Zm-24.404-52.9c-2.835-9.196-7.889-17.435-14.791-24.003 1.48 17.196 10.6 26.63 14.79 24.002Zm8.38 34.271c-4.93-3.701-18.98-5.373-20.952-4.776 10.23 8.359 20.213 8.478 20.953 4.776Zm-9.366-24.838c-4.314-5.97-10.107-10.747-16.886-13.733 5.546 12.3 14.544 16.957 16.886 13.614Zm2.834-47.527c.74-7.642-5.67-23.405-7.395-25.196-2.958 16.001 2.835 26.63 7.272 25.196Zm4.314-14.927c2.712-6.567.863-22.45-.493-24.48-6.409 13.614-3.697 24.6.493 24.48Zm0 0" style="fill-rule:nonzero;fill:#406325;fill-opacity:1;stroke-width:.2;stroke-linecap:butt;stroke-linejoin:miter;stroke:#24420e;stroke-opacity:1;stroke-miterlimit:4" transform="matrix(.0317 0 0 .03271 -2.71 -.317)"/><path d="M404.398 237.762c2.711-6.09 3.944-12.658 3.45-19.345-7.148 9.673-6.901 18.868-3.45 19.345Zm6.04-6.09c4.436-4.896 7.518-10.866 8.997-17.315-9.737 6.926-12.202 15.763-8.998 17.315ZM394.29 274.9c.123.956-.986-8.24-9.984-18.27.37 14.807 6.163 20.42 9.984 18.27Zm32.662 85.86c-8.011-4.18-16.886-6.33-25.883-6.09 12.572 10.388 24.897 10.627 25.883 6.09Zm12.08 5.254c-4.684 1.433-10.477-9.554-7.643-26.033 1.356 8.956 3.821 17.793 7.519 26.033ZM452.342 377c1.973 4.06-6.902 11.464-21.815 11.344 11.955-4.896 21.2-9.792 21.816-11.225Zm7.273-4.419c4.93-2.268 1.109-15.523-14.051-26.39 8.627 13.255 14.544 24.6 14.05 26.39Zm0 0" style="fill-rule:nonzero;fill:#406325;fill-opacity:1;stroke-width:.2;stroke-linecap:butt;stroke-linejoin:miter;stroke:#24420e;stroke-opacity:1;stroke-miterlimit:4" transform="matrix(.0317 0 0 .03271 -2.71 -.317)"/><path d="M454.562 372.7c4.19-2.746-.616-14.448-16.023-22.688 9.614 11.225 16.27 21.017 16.023 22.689Zm-42.769-31.047c3.698.239 6.04-9.195.493-20.897.74 10.986.37 19.942-.493 20.897Zm-13.805-76.664c2.959 3.821 14.051-1.433 20.954-16.002a90 90 0 0 1-20.954 16.002Zm0 0" style="fill-rule:nonzero;fill:#406325;fill-opacity:1;stroke-width:.2;stroke-linecap:butt;stroke-linejoin:miter;stroke:#24420e;stroke-opacity:1;stroke-miterlimit:4" transform="matrix(.0317 0 0 .03271 -2.71 -.317)"/><path d="M398.851 259.257c3.698 3.224 13.558-4.299 17.256-19.942-8.012 11.344-15.653 19.823-17.256 19.942Zm27.733 99.114c4.683-1.075 4.067-13.733-7.273-26.271 4.93 13.494 8.012 24.838 7.273 26.271Zm-28.842-36.421c1.356-4.3-8.381-9.315-22.802-6.21 12.202 2.15 21.94 5.016 22.802 6.21Zm-1.972-9.553c2.958 1.79 9.12-4.658 10.353-16.719-2.588 6.09-6.162 11.703-10.353 16.719Zm51.274 58.632c2.465 5.015-8.012 13.613-26.007 13.613 14.174-5.97 25.267-11.822 26.007-13.613Zm0 0" style="fill-rule:nonzero;fill:#406325;fill-opacity:1;stroke-width:.2;stroke-linecap:butt;stroke-linejoin:miter;stroke:#24420e;stroke-opacity:1;stroke-miterlimit:4" transform="matrix(.0317 0 0 .03271 -2.71 -.317)"/><path d="M399.344 326.249c-4.19-6.568-9.983-12.061-16.886-15.763 4.93 13.613 14.175 19.106 16.886 15.763Zm0 0" style="fill-rule:nonzero;fill:#406325;fill-opacity:1;stroke-width:.2;stroke-linecap:butt;stroke-linejoin:miter;stroke:#24420e;stroke-opacity:1;stroke-miterlimit:4" transform="matrix(.0317 0 0 .03271 -2.71 -.317)"/><path d="M392.442 273.945c3.944-4.657 17.502-9.195 19.597-8.956-8.011 10.508-17.995 12.658-19.597 8.956Zm25.02 77.5c-1.725 4.06-12.695 1.075-21.692-10.986 6.656 4.657 14.05 8.359 21.693 10.986Zm-24.404-52.9c-4.19 2.627-13.065-6.807-14.667-24.003 6.656 13.255 13.065 23.405 14.667 24.002Zm8.382 34.271c-.617 3.702-10.6 3.583-20.707-4.657 6.656 2.508 13.681 4.06 20.707 4.657Zm-9.491-24.957c-2.219 3.224-11.093-1.314-16.64-13.614 8.135 8.001 15.53 13.614 16.763 13.614Zm2.835-47.527c-4.437 1.552-10.107-9.076-7.272-25.077 2.711 13.494 6.04 24.24 7.272 25.077Zm4.56-14.927c-4.314.239-6.902-10.747-.493-24.36-.863 12.896-.493 23.405.493 24.36Zm4.93-7.643c-3.327-.597-3.697-9.672 3.575-19.345-2.095 6.21-3.328 12.778-3.575 19.345Zm6.04-6.09c-3.081-1.672-.74-10.389 8.997-17.315-3.82 5.374-6.902 11.106-8.997 17.315Zm0 0" style="fill-rule:nonzero;fill:#67923d;fill-opacity:1;stroke-width:.2;stroke-linecap:butt;stroke-linejoin:miter;stroke:#24420e;stroke-opacity:1;stroke-miterlimit:4" transform="matrix(.0317 0 0 .03271 -2.71 -.317)"/><path d="M394.29 274.9c-3.943 2.15-9.613-3.463-9.983-18.27q7.765 17.554 9.984 18.27Zm32.54 85.86c-.986 4.537-13.188 4.298-25.76-5.971 13.188 4.299 24.281 6.687 25.76 5.97Zm-8.258-9.554c-3.698-5.732-6.04-12.3-6.533-19.225 8.998 8.717 10.107 18.15 6.78 19.225Zm-16.763-24.957c-3.574-5.852-4.067-20.898-2.958-23.047 8.258 11.941 7.272 22.688 2.958 23.047Zm-2.711 0c-2.712 3.343-11.956-2.03-16.763-15.763 4.684 6.09 10.354 11.464 16.763 15.763Zm0 0" style="fill-rule:nonzero;fill:#67923d;fill-opacity:1;stroke-width:.2;stroke-linecap:butt;stroke-linejoin:miter;stroke:#24420e;stroke-opacity:1;stroke-miterlimit:4" transform="matrix(.0317 0 0 .03271 -2.71 -.317)"/><path d="M392.442 273.945c1.602 3.702 11.34 1.552 19.474-8.837-11.955 6.807-16.762 9.792-19.474 8.837Zm9.244 52.065c4.314-.358 5.3-10.986-2.958-22.808 2.219 7.403 3.205 15.165 2.958 22.927Zm17.01 25.196c3.45-.955 2.218-10.508-6.657-19.225 4.314 9.672 7.15 18.031 6.656 19.225Zm0 0" style="fill-rule:nonzero;fill:#406325;fill-opacity:1;stroke-width:.2;stroke-linecap:butt;stroke-linejoin:miter;stroke:#24420e;stroke-opacity:1;stroke-miterlimit:4" transform="matrix(.0317 0 0 .03271 -2.71 -.317)"/><path d="M394.168 291.857c1.972-8.478-1.726-22.689-4.314-25.674-4.684 15.405-.124 26.63 4.314 25.674Zm0 0" style="fill-rule:nonzero;fill:#406325;fill-opacity:1;stroke-width:.2;stroke-linecap:butt;stroke-linejoin:miter;stroke:#24420e;stroke-opacity:1;stroke-miterlimit:4" transform="matrix(.0317 0 0 .03271 -2.71 -.317)"/><path d="M394.044 293.768c-6.04 1.313-8.75-11.942-4.19-27.107.986 13.494 2.835 26.152 4.067 26.987Zm0 0" style="fill-rule:nonzero;fill:#67923d;fill-opacity:1;stroke-width:.2;stroke-linecap:butt;stroke-linejoin:miter;stroke:#24420e;stroke-opacity:1;stroke-miterlimit:4" transform="matrix(.0317 0 0 .03271 -2.71 -.317)"/><path d="M392.689 293.648c.862-8.836 3.944-17.315 8.997-24.599 1.972 15.763-4.437 26.271-8.997 24.6Zm0 0" style="fill-rule:nonzero;fill:#67923d;fill-opacity:1;stroke-width:.2;stroke-linecap:butt;stroke-linejoin:miter;stroke:#24420e;stroke-opacity:1;stroke-miterlimit:4" transform="matrix(.0317 0 0 .03271 -2.71 -.317)"/><path d="M392.812 293.648c4.437 1.553 10.846-8.836 8.874-24.599-3.451 13.255-7.518 23.764-8.874 24.6Zm0 0" style="fill-rule:nonzero;fill:#406325;fill-opacity:1;stroke-width:.2;stroke-linecap:butt;stroke-linejoin:miter;stroke:#24420e;stroke-opacity:1;stroke-miterlimit:4" transform="matrix(.0317 0 0 .03271 -2.71 -.317)"/><path d="M394.044 303.321c1.48-8.717 5.054-16.837 10.6-23.763.863 16.24-6.286 25.912-10.6 23.763Zm0 0" style="fill-rule:nonzero;fill:#67923d;fill-opacity:1;stroke-width:.2;stroke-linecap:butt;stroke-linejoin:miter;stroke:#24420e;stroke-opacity:1;stroke-miterlimit:4" transform="matrix(.0317 0 0 .03271 -2.71 -.317)"/><path d="M394.168 303.44c4.19 2.15 11.339-7.403 10.476-23.524-4.314 12.777-8.997 22.927-10.476 23.524Zm0 0" style="fill-rule:nonzero;fill:#406325;fill-opacity:1;stroke-width:.2;stroke-linecap:butt;stroke-linejoin:miter;stroke:#24420e;stroke-opacity:1;stroke-miterlimit:4" transform="matrix(.0317 0 0 .03271 -2.71 -.317)"/><path d="M397.865 251.256c0-.597-.493-1.074-1.11-1.074-.615 0-1.108.477-1.108 1.074s.493 1.194 1.109 1.194 1.11-.597 1.11-1.194ZM406.247 245.047c0-.597-.493-1.075-.987-1.075-.616 0-1.109.478-1.109 1.075 0 .716.493 1.194 1.11 1.194.493 0 .986-.478.986-1.194ZM402.672 241.703c0-.597-.493-1.075-1.11-1.075-.615 0-1.108.478-1.108 1.075s.493 1.075 1.109 1.075 1.11-.478 1.11-1.075ZM393.798 313.113c0-.716-.616-1.314-1.356-1.314-.616 0-1.233.598-1.233 1.314s.617 1.314 1.233 1.314c.74 0 1.356-.598 1.356-1.314ZM396.263 297.111c0-.716-.493-1.313-1.233-1.313s-1.355.597-1.355 1.313c0 .717.616 1.314 1.355 1.314.74 0 1.233-.597 1.233-1.314ZM409.451 334.488c0-.716-.493-1.313-1.232-1.313-.74 0-1.356.597-1.356 1.313 0 .717.616 1.314 1.356 1.314s1.232-.597 1.232-1.314ZM403.658 336.399c0-.717-.493-1.314-1.232-1.314-.74 0-1.356.597-1.356 1.314 0 .716.616 1.313 1.356 1.313s1.232-.597 1.232-1.313ZM448.03 367.566c0-.716-.617-1.314-1.356-1.314s-1.233.598-1.233 1.314.493 1.314 1.233 1.314 1.356-.597 1.356-1.314ZM450.865 374.73c0-.716-.493-1.313-1.233-1.313s-1.356.597-1.356 1.314c0 .716.617 1.313 1.356 1.313s1.233-.597 1.233-1.313Zm0 0" style="fill-rule:nonzero;fill:#ba1f3e;fill-opacity:1;stroke-width:.2;stroke-linecap:butt;stroke-linejoin:miter;stroke:#511124;stroke-opacity:1;stroke-miterlimit:4" transform="matrix(.0317 0 0 .03271 -2.71 -.317)"/><path d="M561.054 259.018c.74.597 1.233.836 2.342 1.91m-6.656-18.986c0-1.314-.493-3.583-.863-4.896m3.575 2.985q0 2.687-1.11 5.374m-4.19-.478c1.725 1.672 3.45 2.986 5.3 3.822m3.697 1.194c.124 2.03 0 4.06-.616 6.09m.37 1.433 1.356-2.27m-1.972 12.181c1.355.358 2.834 2.03 3.574 3.583m.493-1.314 1.602-2.269m1.603 30.81-2.342 3.462m-4.068 0c.863 1.314 1.603 2.986 2.712 3.94m2.465 5.852c-1.232 1.672-2.712 3.105-4.56 4.06m.246 4.538c-1.11.717-2.465 2.985-3.697 4.657m8.38-20.18-2.094.835m-1.356-7.404 1.109 1.075M557.11 336.4h-1.972m-2.095-1.791.616 1.552m-7.642 5.135c-.246 1.91-.123 3.702.123 5.612m4.314-8.956.986 2.15m3.821-.12-2.465.359m-30.814 25.315-.986 1.792m11.956-4.06c-1.479.119-2.835.119-4.19-.24m-5.424 6.09c-.986-.477-2.095-.716-3.081-1.074m-14.667 2.747c-.863.716-1.972 2.388-2.959 3.94m-.616-4.418c-2.465 1.314-3.204 3.702-4.437 5.732m2.835 2.866c-1.602-.478-3.328-1.194-5.3-2.03m16.64-.717c-2.22-1.194-4.684-.955-7.026-1.433m10.723-.358c-3.574-.716-7.026-.716-10.23-.12m7.765-2.626-1.356-.598m-5.67 5.494-2.218-1.195m57.806-49.198c-1.232.836-2.465 2.15-3.698 3.82m1.85-79.53-2.22-.835" style="fill:none;stroke-width:.4;stroke-linecap:butt;stroke-linejoin:miter;stroke:#24420e;stroke-opacity:1;stroke-miterlimit:4" transform="matrix(.0317 0 0 .03271 -2.71 -.317)"/><path d="M474.406 384.881c.986-1.194 1.972-2.03 3.328-2.627 7.642-4.06 15.407-5.851 23.911-7.284 2.096-.358 4.191-2.27 6.286-3.224 4.93-2.389 10.477-3.225 15.284-5.613.246-.239 1.479-.955 1.972-1.672 1.972-2.15 5.546-2.866 7.642-5.015 8.381-7.762 17.132-14.927 21.816-25.435 5.546-12.658 12.449-25.794 11.586-40.243-.617-9.195.616-18.39-1.48-26.988-2.834-13.016-8.01-25.316-15.406-36.421l1.232.836c7.396 10.986 12.696 23.405 15.407 36.421 2.342 8.598.986 17.912 1.48 26.988.985 14.449-5.917 27.465-11.463 40.242-4.56 10.509-13.558 17.674-21.816 25.555-2.219 2.03-5.547 2.747-7.642 5.016l-1.972 1.433c-4.93 2.507-10.354 3.463-15.407 5.731-1.972 1.075-3.944 2.866-5.916 3.225-8.505 1.074-16.64 3.463-24.281 7.165-1.233.597-2.465 1.552-3.328 2.746l-1.233-.836" style="fill-rule:nonzero;fill:#406325;fill-opacity:1;stroke-width:.2;stroke-linecap:butt;stroke-linejoin:miter;stroke:#24420e;stroke-opacity:1;stroke-miterlimit:4" transform="matrix(.0317 0 0 .03271 -2.71 -.317)"/><path d="M553.659 334.608c2.711-7.404 0-24.839-1.48-26.988-6.655 15.404-3.327 27.585 1.48 26.988Zm0 0" style="fill-rule:nonzero;fill:#406325;fill-opacity:1;stroke-width:.2;stroke-linecap:butt;stroke-linejoin:miter;stroke:#24420e;stroke-opacity:1;stroke-miterlimit:4" transform="matrix(.0317 0 0 .03271 -2.71 -.317)"/><path d="M546.51 341.653c2.342-5.612.74-19.345-.37-21.017-5.546 11.703-3.328 21.256.37 21.017Zm16.886-74.156a47.05 47.05 0 0 0-19.351-14.569c6.286 13.255 16.516 18.151 19.35 14.569Zm0 0" style="fill-rule:nonzero;fill:#406325;fill-opacity:1;stroke-width:.2;stroke-linecap:butt;stroke-linejoin:miter;stroke:#24420e;stroke-opacity:1;stroke-miterlimit:4" transform="matrix(.0317 0 0 .03271 -2.71 -.317)"/><path d="M561.794 259.496c-3.328-6.687-8.258-12.539-14.544-16.718 3.204 13.016 11.462 19.345 14.544 16.718Zm4.683 14.927c-3.45-4.06-15.16-7.882-17.009-7.762 7.026 9.075 15.653 10.986 17.01 7.762Zm-2.835 46.333c7.272 0 14.175-2.03 20.337-5.613-12.818-2.866-21.446 1.91-20.337 5.613Zm-.123-5.613c0-5.612-6.286-16.837-8.011-18.032-.493 11.942 4.93 19.465 8.011 18.032Zm0 0" style="fill-rule:nonzero;fill:#406325;fill-opacity:1;stroke-width:.2;stroke-linecap:butt;stroke-linejoin:miter;stroke:#24420e;stroke-opacity:1;stroke-miterlimit:4" transform="matrix(.0317 0 0 .03271 -2.71 -.317)"/><path d="M564.012 301.41c-1.356-8.717-5.053-16.837-10.6-23.644-.862 16.24 6.286 25.794 10.6 23.644Zm-53 75.232a47.4 47.4 0 0 0 22.187 11.105c-8.751-12.3-20.09-15.166-22.063-11.105Zm0 0" style="fill-rule:nonzero;fill:#406325;fill-opacity:1;stroke-width:.2;stroke-linecap:butt;stroke-linejoin:miter;stroke:#24420e;stroke-opacity:1;stroke-miterlimit:4" transform="matrix(.0317 0 0 .03271 -2.71 -.317)"/><path d="M553.659 334.369c-4.93.597-8.135-11.345-1.48-26.75-.492 14.211.247 25.675 1.48 26.75Zm-53.493 43.586c8.135 2.03 15.654 5.97 21.94 11.583-15.16.12-24.035-7.284-22.063-11.463Zm0-7.881c1.972-8.001 15.037-21.137 17.503-22.092-3.575 17.076-13.682 25.555-17.503 22.092Zm21.323-4.06a53.76 53.76 0 0 1 7.519-26.033c2.958 16.36-2.958 27.466-7.519 26.033Zm21.57-14.569c6.04-5.493 13.558-9.434 21.57-11.225-8.875 12.061-19.845 15.046-21.693 11.225Zm25.637-53.378c.986-6.21 9.737-17.912 11.586-18.868-1.233 13.614-8.258 21.017-11.586 18.987Zm0 0" style="fill-rule:nonzero;fill:#67923d;fill-opacity:1;stroke-width:.2;stroke-linecap:butt;stroke-linejoin:miter;stroke:#24420e;stroke-opacity:1;stroke-miterlimit:4" transform="matrix(.0317 0 0 .03271 -2.71 -.317)"/><path d="M556.987 336.16a50.7 50.7 0 0 1 24.404-5.493c-11.832 9.792-23.542 9.792-24.404 5.493Zm10.353-24.48c4.437-6.21 10.6-11.225 17.625-14.33-5.793 12.897-15.283 17.793-17.625 14.33Zm-1.479-45.616c0-7.523 7.888-22.69 9.984-24.122 1.109 16.001-5.793 26.152-9.984 24.122Zm-6.902-25.913c-1.726-6.449-1.85-13.375-.124-19.943 5.424 10.867 3.698 19.943 0 19.943Zm0 0" style="fill-rule:nonzero;fill:#67923d;fill-opacity:1;stroke-width:.2;stroke-linecap:butt;stroke-linejoin:miter;stroke:#24420e;stroke-opacity:1;stroke-miterlimit:4" transform="matrix(.0317 0 0 .03271 -2.71 -.317)"/><path d="M554.645 238.001c-5.3-6.448-8.874-13.971-10.477-22.091 11.833 9.314 14.421 20.42 10.477 22.091Zm11.709 34.511c-.37.836 2.958-7.762 14.174-15.285-4.067 14.33-10.97 18.27-14.174 15.285Zm-34.141 89.92c8.997-4.658 19.104-6.927 29.21-6.688-14.173 11.703-28.224 11.941-29.21 6.687Zm14.297-20.779c-3.698.12-6.04-9.314-.493-21.017-.74 10.986-.37 19.942.493 21.017Zm16.886-74.156c-2.712 3.582-12.942-1.195-19.228-14.569 5.67 5.851 12.08 10.747 19.228 14.569Zm-1.726-8.001c-3.081 2.627-11.216-3.583-14.42-16.718 6.779 9.434 13.065 16.479 14.42 16.718Zm4.807 15.046c-1.356 3.105-9.86 1.314-16.886-7.762 10.354 5.97 14.544 8.479 17.01 7.762Zm-2.588 46.214c-1.233-3.822 7.272-8.36 20.214-5.613-7.026.836-13.805 2.747-20.214 5.613Zm-.37-5.613c-3.204 1.433-8.504-5.97-8.011-17.912a63.6 63.6 0 0 0 8.011 17.912Zm0 0" style="fill-rule:nonzero;fill:#67923d;fill-opacity:1;stroke-width:.2;stroke-linecap:butt;stroke-linejoin:miter;stroke:#24420e;stroke-opacity:1;stroke-miterlimit:4" transform="matrix(.0317 0 0 .03271 -2.71 -.317)"/><path d="M563.889 301.65c-4.314 2.149-11.34-7.405-10.477-23.525 4.437 12.777 8.998 22.927 10.477 23.524Zm-52.63 74.992c1.972-4.18 13.065-1.314 21.94 10.866-10.97-6.687-20.46-11.344-21.94-10.866Zm0 0" style="fill-rule:nonzero;fill:#67923d;fill-opacity:1;stroke-width:.2;stroke-linecap:butt;stroke-linejoin:miter;stroke:#24420e;stroke-opacity:1;stroke-miterlimit:4" transform="matrix(.0317 0 0 .03271 -2.71 -.317)"/><path d="M521.49 365.775c4.56 1.672 10.476-9.434 7.641-25.913-2.835 14.09-6.286 25.196-7.642 26.032Zm0 0" style="fill-rule:nonzero;fill:#406325;fill-opacity:1;stroke-width:.2;stroke-linecap:butt;stroke-linejoin:miter;stroke:#24420e;stroke-opacity:1;stroke-miterlimit:4" transform="matrix(.0317 0 0 .03271 -2.71 -.317)"/><path d="M531.843 360.64c3.697-8.478 5.3-17.793 4.56-26.988-9.983 13.494-9.367 26.272-4.56 26.988Zm-31.8 17.435c-1.972 4.179 6.78 11.583 21.816 11.344-11.956-4.777-21.2-9.792-21.816-11.344Zm.247-8.12c3.82 3.462 13.804-4.897 17.379-21.973-8.012 12.42-15.654 21.853-17.38 21.972Zm42.769-18.51c1.725 3.94 12.695.955 21.693-11.105-6.656 4.657-14.051 8.478-21.693 11.105Zm25.76-53.378c3.328 2.15 10.23-5.254 11.463-18.748-2.835 6.806-6.78 13.135-11.463 18.748Zm-11.832 38.093c.986 4.418 12.572 4.299 24.404-5.493-12.449 4.06-23.049 6.21-24.281 5.493Zm10.353-24.6c2.588 3.464 11.956-1.313 17.749-14.33-5.177 5.613-11.093 10.51-17.749 14.33Zm-1.356-45.616c4.19 2.03 10.97-8 9.86-24.002-4.067 13.016-8.504 23.405-9.983 24.002Zm-7.025-25.793c3.574 0 5.423-9.076-.124-20.062.987 10.509.987 19.106.124 20.062Zm-4.314-2.27c4.067-1.671 1.479-12.657-10.354-21.971 4.56 6.806 8.012 14.21 10.354 21.972Zm11.709 34.75c3.205 2.986 10.107-1.074 14.174-15.404-7.888 10.03-12.572 15.166-14.174 15.404Zm-34.018 89.92c.986 5.134 14.914 4.896 28.965-6.807-14.914 4.896-27.363 7.643-28.965 6.807Zm0 0" style="fill-rule:nonzero;fill:#406325;fill-opacity:1;stroke-width:.2;stroke-linecap:butt;stroke-linejoin:miter;stroke:#24420e;stroke-opacity:1;stroke-miterlimit:4" transform="matrix(.0317 0 0 .03271 -2.71 -.317)"/><path d="M539.115 354.789c2.835-6.33 4.067-13.136 3.574-20.062-7.518 10.03-7.149 19.465-3.574 19.942Zm19.597-28.66c3.575-5.732 3.944-20.897 2.958-23.047-8.258 11.942-7.272 22.689-2.958 23.047Zm0 0" style="fill-rule:nonzero;fill:#406325;fill-opacity:1;stroke-width:.2;stroke-linecap:butt;stroke-linejoin:miter;stroke:#24420e;stroke-opacity:1;stroke-miterlimit:4" transform="matrix(.0317 0 0 .03271 -2.71 -.317)"/><path d="M531.843 360.52c-4.807-.596-5.3-13.374 4.437-26.868-3.574 13.852-5.423 25.436-4.437 26.869Zm35.127-68.305c-.986-7.761 4.068-20.061 6.656-22.569 2.588 14.45-2.712 24.002-6.656 22.57Zm-27.855 62.454c-3.575-.477-3.944-9.911 3.574-19.942-2.218 6.448-3.451 13.136-3.574 19.942Zm23.418-104.13c-2.218-6.09 0-20.06 1.11-21.852 5.3 12.18 2.711 22.092-1.11 21.853Zm-58.176 120.012c2.588-8 16.27-20.897 18.858-21.972-4.314 17.554-15.037 25.674-18.858 21.972Zm54.602-41.556c4.19-6.687 9.983-12.06 16.886-15.763-4.93 13.614-14.175 19.107-16.886 15.763Zm-.124-2.985c-4.313-.358-5.3-10.986 2.959-22.928-2.219 7.404-3.205 15.166-2.959 22.928Zm0 0" style="fill-rule:nonzero;fill:#67923d;fill-opacity:1;stroke-width:.2;stroke-linecap:butt;stroke-linejoin:miter;stroke:#24420e;stroke-opacity:1;stroke-miterlimit:4" transform="matrix(.0317 0 0 .03271 -2.71 -.317)"/><path d="M566.97 294.007c5.177 1.91 8.998-9.792 6.656-23.883a102.4 102.4 0 0 1-6.656 24.002Zm0 0" style="fill-rule:nonzero;fill:#406325;fill-opacity:1;stroke-width:.2;stroke-linecap:butt;stroke-linejoin:miter;stroke:#24420e;stroke-opacity:1;stroke-miterlimit:4" transform="matrix(.0317 0 0 .03271 -2.71 -.317)"/><path d="M567.833 293.648c.493-7.523-7.025-23.047-8.998-24.718-2.095 15.762 4.438 26.27 8.998 24.718Zm-5.3-43.228c3.821.359 6.41-9.433 1.11-21.733.492 11.464-.124 20.778-1.11 21.733ZM504.48 370.551c3.821 3.702 14.421-4.418 18.735-21.852-8.874 12.3-17.01 21.614-18.735 21.852Zm54.602-41.556c2.835 3.344 12.079-2.15 17.01-15.763-4.808 6.09-10.6 11.345-17.01 15.763Zm0 0" style="fill-rule:nonzero;fill:#406325;fill-opacity:1;stroke-width:.2;stroke-linecap:butt;stroke-linejoin:miter;stroke:#24420e;stroke-opacity:1;stroke-miterlimit:4" transform="matrix(.0317 0 0 .03271 -2.71 -.317)"/><path d="M567.71 293.529c-4.56 1.672-10.97-8.717-8.875-24.48 3.452 13.136 7.519 23.644 8.875 24.48Zm0 0" style="fill-rule:nonzero;fill:#67923d;fill-opacity:1;stroke-width:.2;stroke-linecap:butt;stroke-linejoin:miter;stroke:#24420e;stroke-opacity:1;stroke-miterlimit:4" transform="matrix(.0317 0 0 .03271 -2.71 -.317)"/><path d="M565.738 254.958c0-.716-.493-1.194-1.11-1.194-.616 0-1.109.478-1.109 1.194 0 .597.493 1.075 1.11 1.075.616 0 1.109-.478 1.109-1.075ZM569.559 266.78c0-.597-.493-1.075-1.11-1.075-.616 0-1.109.478-1.109 1.075s.493 1.075 1.11 1.075c.616 0 1.109-.478 1.109-1.075ZM571.16 304.276c0-.716-.615-1.313-1.355-1.313s-1.356.597-1.356 1.313c0 .717.617 1.314 1.356 1.314s1.356-.597 1.356-1.314ZM565.861 297.35c0-.716-.493-1.313-1.233-1.313s-1.355.597-1.355 1.313c0 .717.616 1.194 1.355 1.194.74 0 1.233-.477 1.233-1.194ZM551.194 337.235c0-.717-.617-1.314-1.233-1.314-.74 0-1.356.597-1.356 1.314 0 .716.617 1.313 1.356 1.313.616 0 1.233-.597 1.233-1.313ZM557.48 339.862c0-.717-.617-1.314-1.233-1.314-.74 0-1.356.597-1.356 1.314 0 .716.617 1.313 1.356 1.313.616 0 1.233-.597 1.233-1.313ZM515.08 372.343c0-.717-.616-1.314-1.232-1.314-.74 0-1.356.597-1.356 1.314 0 .716.616 1.313 1.356 1.313.616 0 1.232-.597 1.232-1.313ZM508.055 377.358c0-.716-.493-1.314-1.233-1.314s-1.356.598-1.356 1.314.617 1.194 1.356 1.194 1.233-.477 1.233-1.194ZM558.22 249.346c0-.597-.494-1.195-1.11-1.195s-1.11.598-1.11 1.195.494 1.074 1.11 1.074 1.11-.477 1.11-1.074Zm0 0" style="fill-rule:nonzero;fill:#ba1f3e;fill-opacity:1;stroke-width:.2;stroke-linecap:butt;stroke-linejoin:miter;stroke:#511124;stroke-opacity:1;stroke-miterlimit:4" transform="matrix(.0317 0 0 .03271 -2.71 -.317)"/><path d="M434.349 336.28c-.247 1.074.74 2.268 1.972 2.03.493 0 .74-.478.123-.478-.37.12-.863 0-1.11-.358-.492-.478-.616-1.314-.492-2.03Zm0 0" style="fill-rule:nonzero;fill:#8c959d;fill-opacity:1;stroke-width:.1;stroke-linecap:butt;stroke-linejoin:miter;stroke:#485654;stroke-opacity:1;stroke-miterlimit:4" transform="matrix(.0317 0 0 .03271 -2.71 -.317)"/><path d="M11.145 10.75c-.032.04-.079.055-.106.027-.023-.02-.027-.039-.02-.062l-.03.043s.019.039.05.058c.043.016.098-.011.129-.054.023-.032.05-.078.031-.117a.14.14 0 0 0-.062-.055l-.032.031a.05.05 0 0 1 .051.016c.043.031.02.082-.011.113" style="stroke:none;fill-rule:nonzero;fill:#8c959d;fill-opacity:1"/><path d="m11.145 10.75-.036.031c-.015.012-.03.012-.046.012l-.024-.012-.016-.02q-.006-.005-.007-.023c-.004-.008 0-.015.004-.023l.003.004-.035.039.032.039.023.015.027.004a.1.1 0 0 0 .051-.02.2.2 0 0 0 .04-.03l.03-.047a.1.1 0 0 0 .012-.051q-.001-.011-.008-.027a.15.15 0 0 0-.058-.051h.004l-.036.035a.03.03 0 0 1 .02-.008l.027.008q.023.013.028.04a.06.06 0 0 1-.008.046.07.07 0 0 1-.027.039m0 0a.07.07 0 0 0 .027-.04q.005-.028.004-.046-.005-.024-.028-.031-.02-.019-.043-.008l.032-.04a.14.14 0 0 1 .062.056q.01.01.008.027 0 .033-.012.055a.1.1 0 0 1-.03.047.1.1 0 0 1-.044.035q-.02.016-.05.015a.05.05 0 0 1-.051-.02l-.032-.042.032-.043h.003l-.003.023q0 .012.007.024l.016.015a.02.02 0 0 0 .02.012q.022.005.046-.008Zm0 0" style="stroke:none;fill-rule:nonzero;fill:#485654;fill-opacity:1"/><path d="m515.203 249.346-40.057 39.406-41.167 39.288-4.56 5.373c-1.973 2.27-4.438 5.255-7.273 8.001-.493.717-.986.359-1.602.836-1.849.955-3.698 2.747-5.053 4.3l-12.326 13.493c-.74.716-.863 1.433-.37 1.91l6.656 8.837c1.11 1.194 2.588 1.791 3.205.836 3.081-5.493 10.97-13.852 13.928-20.3 1.725-4.06 3.944-11.106 5.546-12.778 1.972-2.269 7.025-7.881 11.71-12.777l1.108-.955c.124-.359.493-.717.863-1.075 23.542-23.883 50.658-53.02 70.502-73.56Zm0 0" style="fill-rule:nonzero;fill:#6c301e;fill-opacity:1;stroke-width:.2;stroke-linecap:butt;stroke-linejoin:round;stroke:#351710;stroke-opacity:1;stroke-miterlimit:4" transform="matrix(.0317 0 0 .03271 -2.71 -.317)"/><path d="M431.883 328.16c-1.109-.24-2.095-.717-2.834-1.434 1.109.359 2.341.717 3.45.24Zm0 0" style="fill-rule:nonzero;fill:#8c959d;fill-opacity:1;stroke-width:.1;stroke-linecap:butt;stroke-linejoin:miter;stroke:#485654;stroke-opacity:1;stroke-miterlimit:4" transform="matrix(.0317 0 0 .03271 -2.71 -.317)"/><path d="m556.987 220.089-31.8 26.152c-.37.358-.616.358-.863 0l-2.958-2.388v-.598l1.48-1.313c.122-.12 0-.358-.124-.597l-.616-.597c-.247-.12-.493 0-.74.12l-1.356 1.552c-.862 0-1.232.477-1.355 1.433-19.228 18.628-35.867 35.346-54.972 53.736l-22.555 21.614c-.863.955-4.314 2.866-6.656 4.418-.863.478-1.48.956-1.726 1.433l-1.849 5.494c-.616 1.194-2.465 4.06-2.465 4.298l3.821 3.702 11.093-11.941.863-.955c-.74-1.075-1.602-2.03-2.588-2.747l-.74-.478c0-.238.247-.477.493-.716 26.376-25.555 54.971-53.737 78.267-76.664h.986l2.834 3.104c.74.717 1.233.836 1.726.478l31.923-28.54Zm0 0" style="fill-rule:nonzero;fill:#b2b6ba;fill-opacity:1;stroke-width:.2;stroke-linecap:butt;stroke-linejoin:miter;stroke:#485654;stroke-opacity:1;stroke-miterlimit:4" transform="matrix(.0317 0 0 .03271 -2.71 -.317)"/><path d="M10.95 10.492h.019l.015-.004.02-.078.027-.078a.1.1 0 0 0-.023-.016q.011-.001.023.016l-.023.078-.02.078-.02.008Zm0 0" style="stroke:none;fill-rule:nonzero;fill:#485654;fill-opacity:1"/><path d="M438.786 328.16c0-.359-.247-.717-.617-.717-.246 0-.616.358-.616.716 0 .24.37.597.616.597.37 0 .617-.358.617-.597ZM434.965 331.861c0-.239-.247-.597-.616-.597-.247 0-.493.358-.493.597 0 .358.246.597.493.597.37 0 .616-.239.616-.597Zm0 0" style="fill:none;stroke-width:.2;stroke-linecap:butt;stroke-linejoin:miter;stroke:#485654;stroke-opacity:1;stroke-miterlimit:4" transform="matrix(.0317 0 0 .03271 -2.71 -.317)"/><path d="m11.266 10.23-.059-.054Zm0 0" style="stroke:none;fill-rule:nonzero;fill:#485654;fill-opacity:1"/><path d="m502.138 259.018 3.575 3.463.616-.597-3.574-3.343-.617.597Zm0 0" style="fill-rule:nonzero;fill:#8c959d;fill-opacity:1;stroke-width:.1;stroke-linecap:butt;stroke-linejoin:miter;stroke:#485654;stroke-opacity:1;stroke-miterlimit:4" transform="matrix(.0317 0 0 .03271 -2.71 -.317)"/><path d="M434.355 336.339c-.293.942.75 2.308 2 2.01.498-.095.644-.566.152-.59-.504.215-.868.077-1.22-.299-.469-.5-.68-1.229-.399-1.932Zm0 0" style="fill-rule:nonzero;fill:#8c959d;fill-opacity:1;stroke-width:.1;stroke-linecap:butt;stroke-linejoin:miter;stroke:#485654;stroke-opacity:1;stroke-miterlimit:4" transform="matrix(-.03165 -.0016 -.00155 .03267 27.696 .435)"/><path d="M13.332 10.79c.031.042.078.058.105.034q.037-.029.02-.062l.031.043s-.023.043-.054.054c-.043.016-.094-.011-.125-.058-.024-.031-.047-.078-.024-.117a.13.13 0 0 1 .067-.055l.027.035a.07.07 0 0 0-.055.012c-.043.031-.023.078.008.113" style="stroke:none;fill-rule:nonzero;fill:#8c959d;fill-opacity:1"/><path d="m13.332 10.79.035.034a.06.06 0 0 0 .047.012l.024-.008.015-.02a.1.1 0 0 0 .012-.023q.002-.012-.008-.023h-.004l.035.047v-.004l-.035.039-.023.011-.024.004a.1.1 0 0 1-.05-.02.1.1 0 0 1-.04-.034l-.03-.047a.07.07 0 0 1-.005-.051q-.002-.017.008-.027.02-.035.063-.051h-.004l.027.039h.004a.03.03 0 0 0-.02-.008l-.027.004c-.016.008-.023.024-.031.04q-.001.022.004.046.01.025.027.04m0 0q-.018-.015-.023-.04-.005-.03-.004-.047.007-.02.03-.031.024-.017.04-.004h.004l-.027-.04a.12.12 0 0 0-.067.052.04.04 0 0 0-.012.027q0 .031.012.055a.1.1 0 0 0 .027.047.2.2 0 0 0 .04.039.1.1 0 0 0 .054.02q.029.001.051-.02l.035-.043-.031-.043h-.008l.004.023q-.001.012-.008.024l-.015.015q-.007.01-.02.008a.06.06 0 0 1-.047-.008Zm0 0" style="stroke:none;fill-rule:nonzero;fill:#485654;fill-opacity:1"/><path d="m515.244 249.312-40.188 39.52-41.031 39.122-4.583 5.395c-2.093 2.408-4.46 5.4-7.18 8.017-.527.692-1.13.423-1.77.87-1.776.99-3.716 2.808-5.023 4.298l-12.26 13.508c-.78.799-.932 1.39-.469 2.01l6.61 8.692c1.295 1.259 2.626 1.802 3.288.878 3.106-5.467 10.918-13.813 13.953-20.36 1.676-3.983 3.872-11.049 5.56-12.76 1.958-2.175 7.045-7.785 11.727-12.697l1.038-1.025c.14-.352.527-.692.914-1.031 23.507-23.958 50.718-52.994 70.48-73.548Zm0 0" style="fill-rule:nonzero;fill:#6c301e;fill-opacity:1;stroke-width:.2;stroke-linecap:butt;stroke-linejoin:round;stroke:#351710;stroke-opacity:1;stroke-miterlimit:4" transform="matrix(-.03165 -.0016 -.00155 .03267 27.696 .435)"/><path d="M431.92 328.09c-1.102-.174-2.07-.58-2.896-1.338 1.22.3 2.433.717 3.441.288Zm0 0" style="fill-rule:nonzero;fill:#8c959d;fill-opacity:1;stroke-width:.1;stroke-linecap:butt;stroke-linejoin:miter;stroke:#485654;stroke-opacity:1;stroke-miterlimit:4" transform="matrix(-.03165 -.0016 -.00155 .03267 27.696 .435)"/><path d="m557.022 220.15-31.884 26.178c-.263.346-.633.328-.861-.042l-2.844-2.41.029-.597 1.301-1.37c.129-.114.14-.353-.094-.603l-.586-.627c-.246-.012-.493-.024-.627.209l-1.43 1.484c-.868.077-1.26.536-1.43 1.484-19.177 18.67-35.786 35.313-54.951 53.744l-22.53 21.614c-.79 1.037-4.337 2.896-6.628 4.338-.891.555-1.413 1.127-1.806 1.586l-1.745 5.414c-.68 1.282-2.543 4.06-2.555 4.299l3.77 3.651 11.194-11.886.914-1.031c-.815-.997-1.636-1.874-2.709-2.643l-.592-.508c-.111-.244.152-.59.404-.697 26.427-25.608 55.074-53.738 78.283-76.634l.985.049 2.815 3.007c.703.751 1.313.9 1.706.442l31.994-28.444Zm0 0" style="fill-rule:nonzero;fill:#b2b6ba;fill-opacity:1;stroke-width:.2;stroke-linecap:butt;stroke-linejoin:miter;stroke:#485654;stroke-opacity:1;stroke-miterlimit:4" transform="matrix(-.03165 -.0016 -.00155 .03267 27.696 .435)"/><path d="m13.543 10.543-.02-.004-.015-.004-.02-.078-.023-.078q.012-.012.023-.012c-.008-.004-.015.004-.023.012l.039.156.02.008Zm0 0" style="stroke:none;fill-rule:nonzero;fill:#485654;fill-opacity:1"/><path d="M438.832 328.07c.011-.24-.34-.615-.587-.627-.375.1-.633.327-.65.685s.217.609.586.627c.375-.102.633-.328.65-.686ZM434.94 331.944c.017-.358-.217-.609-.586-.627-.247-.012-.504.215-.522.572-.017.358.217.609.586.627.37.018.633-.328.522-.572Zm0 0" style="fill:none;stroke-width:.2;stroke-linecap:butt;stroke-linejoin:miter;stroke:#485654;stroke-opacity:1;stroke-miterlimit:4" transform="matrix(-.03165 -.0016 -.00155 .03267 27.696 .435)"/><path d="m13.238 10.266.059-.051Zm0 0" style="stroke:none;fill-rule:nonzero;fill:#485654;fill-opacity:1"/><path d="m502.185 258.955 3.53 3.52.645-.566-3.536-3.401-.645.566Zm0 0" style="fill-rule:nonzero;fill:#8c959d;fill-opacity:1;stroke-width:.1;stroke-linecap:butt;stroke-linejoin:miter;stroke:#485654;stroke-opacity:1;stroke-miterlimit:4" transform="matrix(-.03165 -.0016 -.00155 .03267 27.696 .435)"/><path d="M433.979 365.417a56.9 56.9 0 0 0-29.335.835c16.393 8.001 29.581 4.658 29.212-.955Zm88.99 3.224c7.888-3.224 26.869-.597 29.087 1.075-16.146 7.88-29.457 4.537-29.21-1.075Zm0 0" style="fill-rule:nonzero;fill:#67923d;fill-opacity:1;stroke-width:.2;stroke-linecap:butt;stroke-linejoin:miter;stroke:#24420e;stroke-opacity:1;stroke-miterlimit:4" transform="matrix(.0317 0 0 .03271 -2.71 -.317)"/><path d="M433.856 365.536c.246 5.493-12.819 8.837-29.212.836 15.407 1.075 27.856.478 29.088-.955Zm89.112 3.224c-.123 5.493 12.942 8.956 29.212.956-15.284.955-27.732.358-29.088-1.075Zm0 0" style="fill-rule:nonzero;fill:#406325;fill-opacity:1;stroke-width:.2;stroke-linecap:butt;stroke-linejoin:miter;stroke:#24420e;stroke-opacity:1;stroke-miterlimit:4" transform="matrix(.0317 0 0 .03271 -2.71 -.317)"/><path d="M508.548 360.043c-20.214-27.943-46.22-51.11-76.172-68.066 3.575-.12 11.463 3.94 14.668 5.97 23.911 15.405 44.371 35.825 65.694 59.827-1.232 1.194-2.095 2.03-3.45 2.985Zm0 0" style="fill-rule:nonzero;fill:#b2b6ba;fill-opacity:1;stroke-width:.2;stroke-linecap:butt;stroke-linejoin:miter;stroke:#485654;stroke-opacity:1;stroke-miterlimit:4" transform="matrix(.0317 0 0 .03271 -2.71 -.317)"/><path d="m13.473 11.453-.051.04c-.73-.97-1.746-1.895-2.434-2.259.957.454 1.758 1.364 2.473 2.211h.004Zm0 0" style="stroke:none;fill-rule:nonzero;fill:#8c959d;fill-opacity:1"/><path d="m13.473 11.453-.051.04a10 10 0 0 0-2.082-2.04 5 5 0 0 0-.352-.219V9.23q.38.183.715.434c.223.164.434.348.633.543q.3.291.582.605.281.316.55.637Zm0 0a29 29 0 0 0-.555-.633 10 10 0 0 0-.582-.605q-.3-.292-.633-.543a4 4 0 0 0-.71-.434V9.23q.357.211.687.47a9 9 0 0 1 1.21 1.148q.281.312.532.648Zm0 0" style="stroke:none;fill-rule:nonzero;fill:#485654;fill-opacity:1"/><path d="M517.545 355.028c-2.095.597-3.82 1.313-5.3 2.268-.246 1.433-2.095 2.986-3.574 3.344l-.616-.836h-.124l-.616.239c-.74 0-1.232.358-1.602 1.075-.37.955.246 2.269 1.232 3.104.986.717 1.356.956 2.342.956 1.11-.24 1.726-1.314 1.972-1.553 3.698 4.419 6.533 6.926 11.216 10.628 2.096 0 3.205-1.313 2.466-2.866-.247-.477-.617-.716-1.233-.597v-.477c2.342-2.27 3.451-5.016.863-9.792-2.219-4.06-4.684-5.374-7.026-5.374Zm6.163 4.537c.493.717.74 1.314.986 2.03 1.602 2.986.247 6.688-2.342 7.762h-.123c.37-.716-.863-2.15-1.48-1.672.37-.716-.615-2.03-1.478-1.671.37-.717-.493-1.911-1.356-1.553.37-.716-.37-1.79-1.356-1.552.37-.836-.37-1.791-1.232-1.553 0-.835-.247-1.313-.493-1.552.986-.836 2.218-2.15 3.328-2.746 2.711-1.195 4.437 1.074 5.546 2.507Zm0 0" style="fill-rule:nonzero;fill:#fab81c;fill-opacity:1;stroke-width:.2;stroke-linecap:butt;stroke-linejoin:miter;stroke:#6c301e;stroke-opacity:1;stroke-miterlimit:4" transform="matrix(.0317 0 0 .03271 -2.71 -.317)"/><path d="M524.94 362.79c-.616-.359-.739-.717-.616-1.075.247-.359.617-.478 1.233-.24.493.24.74.598.616 1.076-.246.358-.616.477-1.232.238Zm0 0" style="fill-rule:nonzero;fill:#fab81c;fill-opacity:1;stroke-width:.1;stroke-linecap:butt;stroke-linejoin:miter;stroke:#6c301e;stroke-opacity:1;stroke-miterlimit:4" transform="matrix(.0317 0 0 .03271 -2.71 -.317)"/><path d="M524.57 361.834c-.492-.358-.739-.716-.616-1.194.37-.358.74-.358 1.233-.12.493.24.74.598.74.956-.247.478-.74.478-1.356.358Zm0 0" style="fill-rule:nonzero;fill:#fab81c;fill-opacity:1;stroke-width:.1;stroke-linecap:butt;stroke-linejoin:miter;stroke:#6c301e;stroke-opacity:1;stroke-miterlimit:4" transform="matrix(.0317 0 0 .03271 -2.71 -.317)"/><path d="M523.954 360.64c-.493-.358-.739-.597-.493-1.075.247-.358.617-.477 1.11-.239.616.359.74.717.616 1.075-.123.358-.493.358-1.233.239Zm0 0" style="fill-rule:nonzero;fill:#fab81c;fill-opacity:1;stroke-width:.1;stroke-linecap:butt;stroke-linejoin:miter;stroke:#6c301e;stroke-opacity:1;stroke-miterlimit:4" transform="matrix(.0317 0 0 .03271 -2.71 -.317)"/><path d="M523.215 359.565c-.493-.358-.74-.716-.616-1.074.246-.359.616-.359 1.232-.24.493.478.74.837.617 1.195-.247.358-.617.478-1.233.12Zm0 0" style="fill-rule:nonzero;fill:#fab81c;fill-opacity:1;stroke-width:.1;stroke-linecap:butt;stroke-linejoin:miter;stroke:#6c301e;stroke-opacity:1;stroke-miterlimit:4" transform="matrix(.0317 0 0 .03271 -2.71 -.317)"/><path d="M522.229 358.61c-.616-.358-.863-.717-.616-.955v-.24c.246.12.74.24.616-.119v-.238l.616.238c.493.359.74.717.616 1.075-.246.358-.616.478-1.232.239Zm0 0" style="fill-rule:nonzero;fill:#fab81c;fill-opacity:1;stroke-width:.1;stroke-linecap:butt;stroke-linejoin:miter;stroke:#6c301e;stroke-opacity:1;stroke-miterlimit:4" transform="matrix(.0317 0 0 .03271 -2.71 -.317)"/><path d="M13.492 11.578c.024-.058.067-.113.113-.125m-.105.133c.043.008.105-.043.121-.082m-.082.129c.05.012.102-.04.125-.078m-.078.129c.062 0 .098-.04.117-.079m-.07.13a.13.13 0 0 0 .113-.079m-.07.125q.093-.007.117-.066m-.063.11c.055.003.098-.028.11-.06m-.05.11a.1.1 0 0 0 .097-.066" style="stroke:none;fill-rule:nonzero;fill:#fab81c;fill-opacity:1"/><path d="M13.492 11.578a.23.23 0 0 1 .074-.105.1.1 0 0 1 .04-.02l-.04.02-.03.03a.3.3 0 0 0-.044.075m.008.008q.016.001.04-.004l.03-.02.032-.027.02-.031-.02.031a.2.2 0 0 1-.063.047c-.016.004-.027.008-.039.004m.04.047h.034l.035-.02a.2.2 0 0 0 .051-.058l-.02.03-.03.032-.032.016Zm.046.05q.018 0 .035-.003l.031-.016.032-.027.02-.035a.1.1 0 0 1-.048.062l-.031.02Zm.047.051a.09.09 0 0 0 .066-.027.15.15 0 0 0 .047-.05q-.001.015-.02.03l-.023.024-.031.02Zm.043.047a.1.1 0 0 0 .035-.008.15.15 0 0 0 .066-.03l.016-.032-.016.031c-.011.012-.02.016-.035.024a.1.1 0 0 1-.062.015Zm.054.043a.1.1 0 0 0 .063-.015l.027-.016q.013-.011.02-.027a.1.1 0 0 1-.016.027.13.13 0 0 1-.097.031Zm.06.051.03-.004.024-.012.023-.02.02-.027a.09.09 0 0 1-.098.063" style="stroke:none;fill-rule:nonzero;fill:#6c301e;fill-opacity:1"/><path d="M508.484 360.033c-20.191-27.996-46.1-51.187-76.09-68.042 3.466-.153 11.374 3.906 14.705 6.018 23.902 15.416 44.3 35.768 65.594 59.762-1.185 1.245-1.973 2.036-3.39 3.028Zm0 0" style="fill-rule:nonzero;fill:#b2b6ba;fill-opacity:1;stroke-width:.2;stroke-linecap:butt;stroke-linejoin:miter;stroke:#485654;stroke-opacity:1;stroke-miterlimit:4" transform="matrix(-.03164 -.00194 -.00188 .03265 28.248 .605)"/><path d="m11.418 11.363.047.043c.785-.922 1.851-1.785 2.558-2.105-.98.394-1.832 1.254-2.593 2.054h-.004Zm0 0" style="stroke:none;fill-rule:nonzero;fill:#8c959d;fill-opacity:1"/><path d="m11.418 11.363.047.043a9.6 9.6 0 0 1 1.187-1.172c.317-.27.657-.515 1.008-.734a4 4 0 0 1 .363-.2v-.007q-.391.163-.738.39-.346.229-.664.505c-.21.183-.414.37-.613.57q-.3.297-.586.601Zm0 0q.291-.304.59-.597.297-.3.613-.57.318-.27.664-.505.346-.227.735-.386v-.008a7 7 0 0 0-.715.426 9.5 9.5 0 0 0-1.274 1.07c-.199.2-.386.402-.57.617Zm0 0" style="stroke:none;fill-rule:nonzero;fill:#485654;fill-opacity:1"/><path d="M517.553 354.95c-2.012.598-3.79 1.449-5.324 2.315-.208 1.423-2.03 2.99-3.534 3.379l-.566-.871-.246-.015-.636.321q-.924-.055-1.54.985c-.433 1.051.357 2.294 1.169 3.18 1.072.662 1.427.922 2.41.98 1.13-.291 1.685-1.335 2.076-1.67 3.682 4.525 6.493 7.084 11.1 10.588 2.1.005 3.284-1.24 2.508-2.722-.21-.61-.696-.76-1.318-.677l.028-.477c2.473-2.126 3.504-4.935.95-9.752-2.234-3.961-4.74-5.426-7.085-5.446Zm6.143 4.67c.456.626.783 1.363.994 1.974 1.552 2.963.341 6.72-2.313 7.758l-.123-.008c.288-.7-.857-2.204-1.508-1.644.412-.694-.625-1.952-1.507-1.645.418-.813-.38-1.937-1.392-1.518.412-.694-.263-1.81-1.261-1.63.296-.82-.386-1.818-1.261-1.63-.081-.723-.176-1.207-.53-1.467 1.033-.776 2.349-2.134 3.368-2.671 2.792-1.27 4.387.978 5.533 2.482Zm0 0" style="fill-rule:nonzero;fill:#fab81c;fill-opacity:1;stroke-width:.2;stroke-linecap:butt;stroke-linejoin:miter;stroke:#6c301e;stroke-opacity:1;stroke-miterlimit:4" transform="matrix(-.03164 -.00194 -.00188 .03265 28.248 .605)"/><path d="M524.865 362.8c-.471-.386-.696-.759-.552-1.109.268-.343.644-.44 1.245-.165.478.267.71.52.681.997-.267.343-.766.433-1.374.277Zm0 0" style="fill-rule:nonzero;fill:#fab81c;fill-opacity:1;stroke-width:.1;stroke-linecap:butt;stroke-linejoin:miter;stroke:#6c301e;stroke-opacity:1;stroke-miterlimit:4" transform="matrix(-.03164 -.00194 -.00188 .03265 28.248 .605)"/><path d="M524.552 361.825c-.47-.387-.695-.76-.544-1.229.267-.343.636-.32 1.237-.046.478.268.71.52.682.998-.267.343-.767.433-1.375.277Zm0 0" style="fill-rule:nonzero;fill:#fab81c;fill-opacity:1;stroke-width:.1;stroke-linecap:butt;stroke-linejoin:miter;stroke:#6c301e;stroke-opacity:1;stroke-miterlimit:4" transform="matrix(-.03164 -.00194 -.00188 .03265 28.248 .605)"/><path d="M524.008 360.596c-.601-.275-.703-.64-.559-.99q.412-.693 1.13-.292c.593.394.695.76.674 1.117-.145.35-.637.321-1.245.165Zm0 0" style="fill-rule:nonzero;fill:#fab81c;fill-opacity:1;stroke-width:.1;stroke-linecap:butt;stroke-linejoin:miter;stroke:#6c301e;stroke-opacity:1;stroke-miterlimit:4" transform="matrix(-.03164 -.00194 -.00188 .03265 28.248 .605)"/><path d="M523.203 359.591c-.6-.274-.702-.64-.551-1.109.267-.343.636-.321 1.121-.173q.892.592.675 1.117c-.267.343-.644.44-1.245.165Zm0 0" style="fill-rule:nonzero;fill:#fab81c;fill-opacity:1;stroke-width:.1;stroke-linecap:butt;stroke-linejoin:miter;stroke:#6c301e;stroke-opacity:1;stroke-miterlimit:4" transform="matrix(-.03164 -.00194 -.00188 .03265 28.248 .605)"/><path d="M522.153 358.572c-.601-.275-.703-.64-.559-.99l.014-.239c.24.134.724.283.623-.082l.007-.12.608.156c.47.387.696.76.551 1.11s-.52.447-1.244.165Zm0 0" style="fill-rule:nonzero;fill:#fab81c;fill-opacity:1;stroke-width:.1;stroke-linecap:butt;stroke-linejoin:miter;stroke:#6c301e;stroke-opacity:1;stroke-miterlimit:4" transform="matrix(-.03164 -.00194 -.00188 .03265 28.248 .605)"/><path d="M11.387 11.484c-.016-.058-.055-.113-.102-.129m.098.141c-.043.004-.102-.05-.117-.094m.074.137c-.05.008-.102-.047-.121-.086m.07.137c-.062-.004-.094-.05-.11-.086m.063.129c-.055 0-.101-.047-.11-.082m.063.125c-.062-.008-.097-.031-.113-.07m.055.113a.11.11 0 0 1-.106-.067m.047.114c-.05-.004-.086-.04-.094-.07" style="stroke:none;fill-rule:nonzero;fill:#fab81c;fill-opacity:1"/><path d="M11.387 11.484a.2.2 0 0 0-.067-.105.06.06 0 0 0-.035-.024l.035.024.032.031a.3.3 0 0 1 .035.074m-.004.012a.1.1 0 0 1-.04-.008l-.03-.023-.028-.027-.02-.036.02.036c.016.019.035.039.059.05a.1.1 0 0 0 .039.008m-.043.043-.035-.004-.032-.02a.16.16 0 0 1-.05-.062l.02.035.027.032.03.015Zm-.05.05c-.013-.003-.024-.003-.032-.01l-.031-.017-.032-.03-.015-.032a.14.14 0 0 0 .043.063l.03.019Zm-.048.044a.1.1 0 0 1-.066-.028.14.14 0 0 1-.043-.054q0 .013.015.031l.024.023.031.024Zm-.047.043a.1.1 0 0 1-.035-.008.2.2 0 0 1-.062-.035l-.016-.031.016.035c.007.008.02.015.03.02q.03.024.063.019Zm-.058.043a.1.1 0 0 1-.063-.02l-.023-.02q-.013-.01-.02-.027.005.02.016.028a.11.11 0 0 0 .094.039Zm-.059.047-.031-.004-.027-.016-.02-.023-.016-.028c.012.043.051.07.094.07" style="stroke:none;fill-rule:nonzero;fill:#6c301e;fill-opacity:1"/><path d="M409.205 240.031c7.888-4.18 14.667-10.389 19.474-17.912-15.53 4.18-22.679 14.33-19.474 18.032Zm145.81 4.657c-3.452-7.88-8.751-14.688-15.654-19.942 2.835 15.285 12.08 22.808 15.654 20.062Zm0 0" style="fill-rule:nonzero;fill:#406325;fill-opacity:1;stroke-width:.2;stroke-linecap:butt;stroke-linejoin:miter;stroke:#24420e;stroke-opacity:1;stroke-miterlimit:4" transform="matrix(.0317 0 0 .03271 -2.71 -.317)"/><path d="M409.205 240.031c-3.328-3.582 3.82-13.613 19.35-17.792-10.97 8.359-19.104 16.12-19.35 17.792Zm145.81 4.657c-3.698 2.986-12.696-4.537-15.53-19.703 7.272 10.986 14.05 19.465 15.53 19.703Zm0 0" style="fill-rule:nonzero;fill:#67923d;fill-opacity:1;stroke-width:.2;stroke-linecap:butt;stroke-linejoin:miter;stroke:#24420e;stroke-opacity:1;stroke-miterlimit:4" transform="matrix(.0317 0 0 .03271 -2.71 -.317)"/><path d="M452.22 318.128s-6.162.717-7.888-7.88c-1.849-9.076 5.3-9.912 5.3-9.912s8.012-.956 13.188-1.075l2.219 18.032Zm0 0" style="fill-rule:nonzero;fill:url(#a);stroke-width:.2;stroke-linecap:butt;stroke-linejoin:miter;stroke:#999270;stroke-opacity:1;stroke-miterlimit:4" transform="matrix(.0317 0 0 .03271 -2.71 -.317)"/><path d="M452.96 315.382s-3.944.716-4.807-5.613c-.493-4.418 2.219-5.015 2.219-5.015l9.244 1.552v8.24Zm0 0" style="fill-rule:nonzero;fill:url(#b);stroke-width:.2;stroke-linecap:butt;stroke-linejoin:miter;stroke:#999270;stroke-opacity:1;stroke-miterlimit:4" transform="matrix(.0317 0 0 .03271 -2.71 -.317)"/><path d="M450.372 304.754s6.04-.478 8.997-.836l1.356 5.732-7.149.358s-.493-5.135-3.204-5.254Zm0 0" style="fill-rule:nonzero;fill:url(#c);stroke-width:.2;stroke-linecap:butt;stroke-linejoin:miter;stroke:#999270;stroke-opacity:1;stroke-miterlimit:4" transform="matrix(.0317 0 0 .03271 -2.71 -.317)"/><path d="M449.14 300.455s7.518-1.91 8.504 6.329c.246 2.269-.986 7.165-4.684 8.598l13.928-1.433-1.233-15.046-4.684.358s-9.983.358-11.832 1.075Zm0 0" style="fill-rule:nonzero;fill:url(#d);stroke-width:.2;stroke-linecap:butt;stroke-linejoin:miter;stroke:#999270;stroke-opacity:1;stroke-miterlimit:4" transform="matrix(.0317 0 0 .03271 -2.71 -.317)"/><path d="M452.22 318.128s51.89-3.582 57.19-3.343c15.777-8.598 0-42.512-13.311-61.499 1.479-4.299-29.95-13.852-44.002-13.016q-2.773 0-5.177.358c-7.765.717-7.765 10.628-4.683 16.957 2.958 5.97 30.32 55.05 11.216 60.305Zm0 0" style="fill-rule:nonzero;fill:#f9f0aa;fill-opacity:1;stroke-width:.2;stroke-linecap:butt;stroke-linejoin:miter;stroke:#999270;stroke-opacity:1;stroke-miterlimit:4" transform="matrix(.0317 0 0 .03271 -2.71 -.317)"/><path d="M507.808 273.348c-3.451-7.404-7.765-14.33-11.709-20.062 1.479-4.299-29.95-13.852-44.002-13.016q-2.773 0-5.177.358c-7.765.717-7.765 10.628-4.683 16.957.986 1.791 4.314 8.001 7.888 15.763" style="fill-rule:nonzero;fill:url(#e);stroke-width:.2;stroke-linecap:butt;stroke-linejoin:miter;stroke:#999270;stroke-opacity:1;stroke-miterlimit:4" transform="matrix(.0317 0 0 .03271 -2.71 -.317)"/><path d="M455.055 285.05c5.547 14.57 8.628 29.974-1.602 32.84l-1.233.238s52.014-3.582 57.19-3.343c8.628-4.657 7.765-16.838 3.205-29.973" style="fill-rule:nonzero;fill:url(#f);stroke-width:.2;stroke-linecap:butt;stroke-linejoin:miter;stroke:#999270;stroke-opacity:1;stroke-miterlimit:4" transform="matrix(.0317 0 0 .03271 -2.71 -.317)"/><path d="M447.413 243.494c-3.697 0-4.683 3.583-4.56 5.852 0 5.97 4.56 6.21 4.56 6.21l6.04-.36 2.712-12.18Zm0 0" style="fill-rule:nonzero;fill:url(#g);stroke-width:.2;stroke-linecap:butt;stroke-linejoin:miter;stroke:#999270;stroke-opacity:1;stroke-miterlimit:4" transform="matrix(.0317 0 0 .03271 -2.71 -.317)"/><path d="m447.413 243.494 8.752-.477.986 9.075-7.765.358s2.465-7.284-1.973-8.956Zm0 0" style="fill-rule:nonzero;fill:url(#h);stroke-width:.2;stroke-linecap:butt;stroke-linejoin:miter;stroke:#999270;stroke-opacity:1;stroke-miterlimit:4" transform="matrix(.0317 0 0 .03271 -2.71 -.317)"/><path d="M496.099 253.286c6.656-.955 6.656-10.03 1.972-13.732-15.53-.597-35.744 0-50.534 1.074 1.602 0 6.409.359 6.902 6.449.247 2.746-.863 5.373-3.081 7.045-1.11.836-2.465 1.314-3.945 1.433h3.575l2.958-.477c21.076-2.628 42.03-1.792 42.03-1.792Zm0 0" style="fill-rule:nonzero;fill:url(#i);stroke-width:.2;stroke-linecap:butt;stroke-linejoin:miter;stroke:#999270;stroke-opacity:1;stroke-miterlimit:4" transform="matrix(.0317 0 0 .03271 -2.71 -.317)"/><path d="M11.82 8.43q-.004-.017-.027-.028c-.008.004-.016 0-.016-.011h.028l.05-.008q.018.012 0 .02c-.015 0-.007.015-.003.023l.043.097q.006.024.02.024h.034q.01-.018.008-.035c-.004-.008.016-.008.016 0l.011.047q0 .005-.011.004l-.094.003c-.012 0-.027.012-.035 0 0-.011.02-.004.02-.015l-.009-.031Zm.153-.012a.1.1 0 0 0-.024-.023c-.008.003-.015-.004-.02-.012a.03.03 0 0 1 .024 0l.055-.008c.008 0 .012.016 0 .012q-.013.005-.008.023l.047.113c0 .008.008.016.015.02.012 0 .016.004.024.008q-.001.011-.02.004-.021.001-.05.008-.011 0-.016-.012c-.004-.008.016 0 .02-.012a.1.1 0 0 0-.012-.035l-.035-.082Zm.14.027a.01.01 0 0 0 .016 0c.012 0 .02-.008.02-.015a.05.05 0 0 0-.02-.04q-.018-.009-.035-.007l.004.02Zm.02.051a.1.1 0 0 0 .02.031q.01.006.027 0 .011-.002.011-.015-.005-.036-.039-.047h-.03l.007.015Zm-.063-.078c-.004-.016-.011-.023-.023-.035q-.013.004-.02-.004c0-.012.02-.004.024-.008.027 0 .058-.008.082 0a.06.06 0 0 1 .047.055q.001.017-.016.023l.016.004q.03.011.043.04c.007.01.007.027 0 .042q-.025.018-.043.012a1 1 0 0 0-.075.008c-.007 0-.011-.016 0-.016.008-.004.012-.008.008-.02l-.043-.097Zm.235-.063q.014.002.015.016l.012.031q-.016 0-.02-.015-.01-.012-.023-.012h-.039q-.007.01.004.02l.02.046q.01 0 .023-.011c0-.004-.008-.024.008-.02q.011.013.011.031l.016.036c-.008.007-.016-.004-.016-.012q-.015-.018-.035-.012v.012l.02.047q.013.011.031.011c.016 0 .023-.003.031-.015.008-.004-.008-.024 0-.024q.019.001.02.02c0 .008 0 .02.008.023q-.006.013-.012.008l-.098.008c-.011 0-.027.004-.031-.008 0-.012.023-.004.02-.015l-.012-.036-.035-.086q-.005-.02-.028-.023c-.004 0-.015 0-.011-.012h.03Zm.074.043q-.006-.016-.024-.03-.018.006-.023-.013.019-.005.031 0c.028 0 .051-.011.078 0q.04.012.051.06c0 .01-.008.023-.023.026-.008 0 .008.004.011.004q.031.017.043.051c.004.008.016.024.02.008.004-.02.02 0 .016.008-.004.011-.008.02-.024.02q-.018-.002-.035-.02a.2.2 0 0 0-.04-.055q-.01-.01-.026-.008v.016l.02.039q.012.018.03.012c.012.004.008.02-.004.015h-.054c-.012.008-.028 0-.024-.008.012 0 .02-.007.016-.02l-.031-.081Zm.043.032c.008.004.02.004.027 0q.016-.006.008-.024a.07.07 0 0 0-.027-.039c-.008 0-.028-.004-.032.004l.024.055Zm.23.054q.005.013.016.02c.012 0 .016.004.023.012q0 .009-.02.007h-.05q-.013.006-.02-.011c.008-.008.024 0 .024-.012l-.016-.035-.035-.098c-.008-.008-.011-.012-.023-.008q-.019-.006-.02.012.006.017 0 .027-.014-.004-.015-.015c-.004-.012-.008-.02-.016-.035.004-.004.012-.004.016-.004l.136-.004c.008 0 .016.004.016.015l.012.032q-.01.011-.02-.008-.01-.024-.027-.024-.017-.002-.028.008l.008.02Zm.118-.03q-.006.005 0 .01v.028q.005.012.023.012c.008 0 .004.02-.008.016h-.035c-.012.003-.027-.004-.016-.016.004 0 .012 0 .016-.008v-.164q.01-.011.02.008l.113.144c.004.012.015.016.023.016.012 0 .012.016 0 .012h-.047a.03.03 0 0 1-.023 0q-.005-.012.008-.012c.008 0 0-.016-.004-.02l-.02-.027Zm.035-.017q.006 0 0-.007l-.04-.055v.066h.04Zm.097-.058c0-.016-.007-.035-.023-.035-.012 0-.02-.004-.016-.012h.055a.1.1 0 0 1 .062.004q.076.029.094.11c0 .023-.004.038-.02.054a.1.1 0 0 1-.077.008l-.043.004c-.012 0-.016-.016 0-.012.007-.004.011-.012.004-.023Zm.067.082c0 .012.008.02.015.031h.032q.021-.007.02-.027a.2.2 0 0 0-.016-.07c-.016-.024-.032-.04-.06-.047h-.03v.015Zm-.672.406q.005.013.027.02c.008 0 .024 0 .024.011q-.017.006-.028 0l-.047.008h-.027q-.012-.01 0-.015.019 0 .02-.012l-.004-.027-.04-.09c-.003-.008-.007-.012-.023-.012-.008.004-.015 0-.02-.004 0-.012.016-.008.02-.016l.031-.007q.012.001.012.007Zm.023-.148h.063c.015 0 .008-.016.015-.016q.012.006.012.024-.001.018-.02.02h-.046l.015.038.02-.008c.031 0 .07.02.082.051q.012.029 0 .05c-.012.017-.031.02-.05.02a.1.1 0 0 1-.048-.02c0-.007 0-.023.008-.019q.024.001.024.02.006.005.02.004c.01 0 .019-.008.019-.016q.001-.03-.016-.047c-.004-.015-.02-.02-.04-.023l-.026.004q-.012-.005-.012-.016l-.024-.062.008-.004Zm.22.031c-.005-.016-.013-.023-.028-.031-.008 0-.024-.004-.012-.012h.05c.024-.008.044-.004.067 0q.076.031.094.113c0 .02-.004.04-.024.051a.2.2 0 0 1-.074.012l-.043.004c-.008 0-.011-.016 0-.016q.013 0 .008-.023Zm.062.082a.2.2 0 0 0 .02.035h.03q.022-.012.02-.035a.2.2 0 0 0-.02-.066.08.08 0 0 0-.058-.043h-.031v.011Zm.203-.14q.014.004.015.015.006.017.012.027-.013.01-.02-.007c-.003-.012-.007-.016-.019-.02h-.043v.02l.02.046q.017.002.027-.007c.004-.004-.012-.02.004-.02q.016.011.015.027l.016.036c-.004.015-.016 0-.02-.008a.04.04 0 0 0-.027-.012q-.011.001-.004.008l.02.05a.03.03 0 0 0 .031.008c.016 0 .023-.003.031-.007.004-.008-.008-.02 0-.028.012 0 .016.008.016.016l.008.031h-.012l-.098.008q-.017.007-.027-.004c-.008-.012.016-.004.02-.016l-.012-.027-.035-.098a.04.04 0 0 0-.024-.023c-.008 0-.02 0-.015-.012h.035Zm-.86.468q.007.023.032.027.04.006.07.036a.1.1 0 0 1 .015.047q-.005.024-.035.03c-.015.009-.03.005-.05-.003-.008-.004-.004.012-.016.012-.004-.012-.008-.02-.008-.032l-.012-.03c.004-.009.008-.005.016.003a.07.07 0 0 0 .05.04q.024-.002.024-.02 0-.029-.023-.04a.3.3 0 0 1-.063-.027.08.08 0 0 1-.035-.055c.004-.011.012-.023.027-.027a.1.1 0 0 1 .051 0q.007-.008.02-.004-.001.01.004.02l.011.031c-.007.004-.015 0-.015-.008a.05.05 0 0 0-.031-.027c-.016 0-.024.004-.032.012Zm.207-.055q.017.002.016.016l.008.027c-.004.004-.012.004-.016-.007a.03.03 0 0 0-.023-.016h-.04v.02l.016.043q.017.001.028-.004c.007-.008-.008-.02.004-.024a.03.03 0 0 1 .015.024q0 .018.012.043c-.008.003-.012.003-.016-.012q-.005-.013-.027-.008-.013-.001-.008.004l.02.05q.006.014.023.009c.012 0 .027 0 .035-.008a.03.03 0 0 0 0-.028q.019-.006.02.012l.008.031q-.006.01-.012.008l-.098.004c-.012 0-.023.012-.031 0 0-.012.016-.008.02-.02l-.008-.023-.032-.098q0-.018-.02-.02-.015-.002-.015-.015h.031Zm.133.137a.04.04 0 0 0 .02.024c.011-.004.02 0 .027.004 0 .015-.016.007-.023.007a.2.2 0 0 0-.051.008.03.03 0 0 1-.02-.008c0-.011.016-.007.02-.011l-.004-.028-.031-.097a.04.04 0 0 0-.024-.024c-.008.004-.015-.004-.015-.012q.006-.005.023 0a.4.4 0 0 1 .07-.007q.036.002.055.039a.1.1 0 0 1 0 .043.2.2 0 0 1-.055.02q-.006 0 0 .007Zm-.02-.058h.024q.018-.006.012-.024a.05.05 0 0 0-.016-.039q-.012-.016-.035-.008v.016Zm.2.046q0 .016.015.02.013 0 .02.012c.008.008-.016.008-.02.008h-.05c-.008 0-.016 0-.016-.008.004-.008.02 0 .02-.012l-.008-.043-.031-.094q-.006-.008-.024-.004-.012-.002-.023.008v.028q-.012.005-.012-.012l-.012-.031c0-.008.008-.012.016-.012l.129-.004q.016-.001.015.016l.016.03q-.011.008-.016-.003-.012-.024-.035-.024h-.023l.008.024Zm.066-.105q-.001-.023-.02-.027c-.007.004-.015-.004-.019-.012q.007-.006.02 0l.054-.008c.012-.004.016.012.008.012s-.02.008-.015.02l.015.05.024.07q.002.011.015.016.019-.006.02.012h-.024l-.05.008c-.008 0-.02-.008-.012-.016a.02.02 0 0 0 .02-.012l-.012-.039Zm.184-.055q.012.004.012.02l.007.023q-.01.01-.015-.004-.006-.018-.024-.02h-.035q-.006.014 0 .02l.016.043q.012.001.023-.004c.008-.003-.004-.02.004-.02q.017.002.016.02.005.02.015.04-.01.011-.015-.004-.011-.017-.028-.016c-.004 0-.015 0-.007.008l.015.05a.02.02 0 0 0 .02.012.1.1 0 0 0 .039-.008q.005-.016.004-.03c.011-.005.015.003.015.01l.008.036q0 .008-.015.004l-.094.004q-.02.006-.031 0c-.004-.012.015-.008.02-.016l-.005-.027-.031-.098q0-.017-.024-.023c-.003 0-.02-.004-.011-.012h.031l.094-.008Zm.062.035q-.005-.023-.027-.023c-.008.004-.016-.02 0-.016h.05l.02.032.07.093q-.002-.001-.003-.007l.015-.118c.004-.007.02 0 .032-.007.007 0 .03 0 .023.011q-.022.001-.02.02l.04.117c.003.016.011.02.027.02.008 0 .008.02 0 .015h-.059q-.023.006-.023-.012c.012 0 .027-.003.02-.02l-.032-.1v.011l-.008.098v.027q-.016 0-.015-.012l-.094-.12.008.011q.01.047.027.094.006.016.024.015c.011.008.007.016-.004.016H12.8q-.018-.011 0-.016.016-.005.004-.027Zm.278.024q.005.006.015 0 .013.006.02-.012a.05.05 0 0 0-.016-.039q-.016-.01-.039-.008v.02Zm.015.055.012.03q.017.01.027.005.012.001.012-.016 0-.034-.027-.05h-.031v.011Zm-.062-.079c0-.015-.004-.023-.02-.035a.03.03 0 0 1-.02-.008c0-.011.02 0 .024-.003a.3.3 0 0 1 .086 0c.027.007.04.027.043.05a.05.05 0 0 1-.023.032q.005-.006.015 0c.016.007.032.02.04.039q.01.018 0 .043-.024.017-.048.011l-.074.004c-.011 0-.011-.015 0-.011q.017-.006.004-.024Zm.164-.007q-.001-.019-.02-.032-.018 0-.02-.011c.005-.008.02 0 .032-.004h.063q.041.006.054.047.006.024-.011.039l-.016.008q.035.01.047.039l.015.023q.01.005.008-.008c.016-.008.02.008.016.02-.012.011-.02.015-.035.011-.008 0-.02-.007-.024-.02l-.031-.054q-.017-.011-.027-.004v.016l.015.039q.006.012.024.012c.011 0 .011.015 0 .011h-.059q-.012.006-.02 0c-.007-.015.012-.007.02-.015l-.008-.027Zm.039.03c.004.013.02 0 .027 0q.012-.002.012-.015a.06.06 0 0 0-.016-.043q-.018-.008-.03-.004c-.005.004-.005.008 0 .02Zm.219-.081c.008 0 .011.008.011.015q0 .011.012.028-.012.008-.02-.008 0-.019-.019-.02h-.043q-.006.007 0 .02l.016.047c.008 0 .02-.004.023-.008.012-.004-.004-.016.008-.023q.018.005.012.023c.004.016.008.027.011.043-.004.004-.011.004-.015-.008q-.001-.017-.02-.011c-.004 0-.015-.008-.015 0l.015.054c.008.008.012.012.024.008q.022.001.039-.004c0-.008.004-.02.004-.027q.016-.006.015.011l.004.032q0 .01-.012.008h-.125c-.007-.016.008-.012.016-.02.004-.004 0-.016 0-.02l-.031-.101q.001-.024-.016-.024c-.02 0-.023-.003-.02-.015Zm-1.04.426q0-.019-.019-.032-.017 0-.016-.011h.032a.3.3 0 0 1 .078 0q.058.014.082.074a.1.1 0 0 1-.008.074.1.1 0 0 1-.07.027q-.03-.001-.059.004c-.008.004-.02 0-.012-.011q.017.001.016-.016l-.012-.05Zm.051.082.012.03q.02.008.031 0 .025 0 .032-.03a.15.15 0 0 0-.016-.07.06.06 0 0 0-.047-.04h-.035v.012Zm.227-.145q.012.002.012.016l.004.027q-.011.007-.016-.004-.005-.018-.016-.02h-.043c-.004.005-.004.008 0 .02a.1.1 0 0 0 .008.043q.017.001.028-.004c.007-.008-.004-.02.007-.023q.012.006.012.023l.008.043c0 .008-.016 0-.016-.008q0-.017-.023-.011s-.016-.004-.008 0q0 .024.012.054.006.013.023.008.022-.001.04-.008l.003-.027q.011-.006.016.012-.001.014.004.035-.005.005-.016.004l-.094.004a.04.04 0 0 1-.031 0q-.007-.012.016-.012.01-.012.004-.023l-.024-.106a.04.04 0 0 0-.02-.023c-.011 0-.019-.004-.015-.012h.031Zm.203.133q.001.018.02.023a.1.1 0 0 1 .023.004c.004.012-.012.008-.02.008l-.054.004h-.024q-.011-.006.004-.012c.008 0 .016-.008.02-.015l-.004-.024-.02-.094q0-.012-.02-.007-.01.004-.023-.004c0-.016.016-.012.024-.016l.035-.012q.007 0 .008.012Zm.117-.11q-.001-.023-.02-.023-.022-.002-.027.008-.006.018.012.031l.031.02.004-.02Zm.028.098a.06.06 0 0 0-.032-.035c-.007 0-.011-.004-.015-.004-.012.008-.016.024-.016.035q.012.031.035.032.016.006.032-.012V9.53Zm.03-.008a.06.06 0 0 1-.019.043c-.015.012-.039.012-.062.004q-.028-.005-.04-.039 0-.024.016-.043c.004 0 .016-.004.008-.008q-.03-.01-.031-.039c-.008-.02-.004-.03.016-.043.027-.015.062-.003.082.024a.07.07 0 0 1 0 .039l-.02.016q.025.004.04.027a.03.03 0 0 1 .007.02Zm.102.02q.011 0 .016-.012c.004-.008 0-.023.008-.02q.012-.001.012.02a.06.06 0 0 1-.012.035q-.011.005-.027.004h-.055q-.013.006-.02 0a.03.03 0 0 1 0-.023.13.13 0 0 1 .032-.055q.023-.012.023-.035.001-.02-.004-.039c-.008-.008-.012-.012-.023-.016q-.012-.002-.024.008-.012.007-.008.02c.004.008.02 0 .02.015q.011.016-.008.02-.016 0-.031-.024-.008-.03.02-.046.024-.017.054-.004c.016.004.031.02.035.039a.1.1 0 0 1 0 .039c-.02.023-.035.039-.054.058q-.008.007-.004.02.005-.01.015-.008Zm.125-.012q-.001.01.016.02c.012 0 .016 0 .024.004.007.011-.008.011-.016.011h-.086c-.004-.007 0-.015.008-.015a.02.02 0 0 0 .02-.012v-.027l-.02-.09q-.005-.012-.016-.012a.03.03 0 0 1-.023 0c-.008-.012.008-.012.015-.015l.04-.012q.01.001.011.008Zm0 0" style="stroke:none;fill-rule:nonzero;fill:#b07e09;fill-opacity:1"/><path d="m475.762 219.373-3.82 4.657c-1.11 5.135 1.848 9.195 7.764 12.538 4.684 2.986 13.435 3.702 16.27 1.314l-13.682-13.016Zm0 0" style="fill-rule:nonzero;fill:url(#j);stroke-width:.2;stroke-linecap:butt;stroke-linejoin:miter;stroke:#4c0505;stroke-opacity:1;stroke-miterlimit:4" transform="matrix(.0317 0 0 .03271 -2.71 -.317)"/><path d="m503.618 354.311-1.973-2.508c-8.75 11.822-19.844 21.495-32.785 28.54 15.16-4.18 25.02-15.165 34.758-26.032Zm-15.53 35.705c5.67-10.986 11.709-21.853 18.241-32.361l-2.095-2.627c-7.395 12.18-16.023 26.629-16.023 34.988Zm41.783-114.519c-.863-4.418-2.342-8.836-4.314-13.016-10.723-18.031-25.76-33.197-43.756-43.944v-.359h.37l-.123-.119h.493l-.247-.239h.37l-.246-.477h.37l-.247-.24h.493l-.37-.358h.493l-.493-.358.617-.12-.493-.238.493-.12-.37-.358.616-.12-.493-.357.616-.24-.616-.477.616-.12-.74-.358.74-.358h-.862l.493-.716h-.74l.37-.478h-.617l.247-.478h-.616l.246-.597-.616.478.246-.716-.739.358.123-.717-.616.597.123-.716-.493.478v-.717l-.493.597v-.716l-.37.477-.246-.597-.37.597-.123-.597-.247.597-.246-.597-.247.597-.246-.597-.247.597-.123-.597-.246.836-.247-.716-.246.836-.247-.717v.836l-.493-.717v.836l-.493-.597v.717l-.37-.597v.716l-.37-.239.124.597-.493-.238.246.597-.37-.24.124.598h-.493l.246.478h-.37l.247.358c-.37 1.075-.493 2.269-.37 3.463 0 .239.616.478.74.597.123.478.246.597.123.597-1.602 2.627-2.958 4.657-3.081 7.643 1.232-1.553 2.588-3.583 4.437-3.583-.986 1.433-1.356 6.09-.37 6.807l.863-1.314c0 .955.123 1.791.37 2.269a7.6 7.6 0 0 1 .986-1.672c0 1.553.246 2.627.616 3.344.493-.836.986-1.314 1.602-1.672-.246.836-.37 1.791-.246 2.747.493-.956 1.232-1.792 1.848-2.508-.37 1.552 0 2.746.37 4.538.37-2.03.616-2.389 1.48-3.105.123 1.791-.124 3.582.246 4.657.74-1.672 1.356-1.552 1.972-2.627-.123 1.672-.493 3.343 0 4.776.37-1.074.986-2.03 1.972-2.627 0 2.15.493 1.792-.863 3.702.616.12 2.465-.477 3.575-.955-.493 1.194-.37 2.15-.863 2.985.986-.597 1.972-1.433 2.958-2.388-.493 1.433-1.602 2.866-1.11 4.18.494-1.434 1.233-2.27 2.342-2.508-.246.597-.246 2.15-1.232 2.866 2.342.239 3.328-1.433 4.56-2.747-.123 1.314 0 2.388 1.603 4.3-.37-2.39.123-1.912 1.232-3.225.616 2.03 1.233 4.299 3.451 5.97-.986-2.268-.986-3.462-.616-4.895.37 1.433 1.726 3.224 1.972 4.537a23 23 0 0 1 .986-3.94 22.2 22.2 0 0 1 1.48 5.612c.492-1.075.862-2.03 1.108-2.985 19.721 20.42 24.158 46.69 2.465 74.395 7.766-5.254 9.86-13.494 14.052-20.659-4.191 9.315-5.917 19.704-13.435 27.466 7.149-6.21 8.628-11.942 12.941-17.912-4.437 12.419-10.97 26.151-19.72 38.81l4.807 5.134 3.944-6.926c9.367-15.404 24.774-37.496 17.009-71.052Zm0 0" style="fill-rule:nonzero;fill:#448127;fill-opacity:1;stroke-width:.2;stroke-linecap:butt;stroke-linejoin:miter;stroke:#34541f;stroke-opacity:1;stroke-miterlimit:4" transform="matrix(.0317 0 0 .03271 -2.71 -.317)"/><path d="M473.174 215.312c-.986.24-1.356.598-2.219 1.433.986.12 1.849.24 2.588.24a.65.65 0 0 0 .37-.598l-.246-.955c0-.239-.617-.12-.74 0Zm0 0" style="fill-rule:nonzero;fill:#eac102;fill-opacity:1;stroke-width:.2;stroke-linecap:butt;stroke-linejoin:miter;stroke:#a08307;stroke-opacity:1;stroke-miterlimit:4" transform="matrix(.0317 0 0 .03271 -2.71 -.317)"/><path d="m12.215 6.773.07-.02Zm0 0" style="stroke:none;fill-rule:nonzero;fill:#a08307;fill-opacity:1"/><path d="M478.474 215.432c0-.478-.37-.836-.74-.836-.493 0-.863.358-.863.836 0 .358.37.716.863.716.37 0 .74-.358.74-.716Zm0 0" style="fill-rule:nonzero;fill:#000;fill-opacity:1;stroke-width:.1;stroke-linecap:butt;stroke-linejoin:miter;stroke:#000;stroke-opacity:1;stroke-miterlimit:4" transform="matrix(.0317 0 0 .03271 -2.71 -.317)"/><path d="M12.445 6.727q0-.012-.011-.012-.007 0-.008.012.001.01.008.011.01 0 .011-.011m0 0" style="stroke:none;fill-rule:nonzero;fill:url(#k)"/><path d="M12.762 12.43a3 3 0 0 1 .234-.563c.07-.133.145-.27.227-.398l.082-.13-.082.13-.22.402q-.14.27-.241.559m-.598-.309c.367-.168.691-.426.941-.758a6 6 0 0 0-.355.387 2.3 2.3 0 0 1-.586.371m1.18-.96a.6.6 0 0 0 .07-.106c.066-.11.133-.22.191-.336.043-.074.082-.153.122-.227l.117-.23-.055.113-.059.121q-.112.227-.242.45Zm.187-.821q.165-.198.27-.438a2.5 2.5 0 0 0 .191-.754l-.004.133c-.027.215-.09.426-.183.621q-.107.237-.274.438" style="stroke:none;fill-rule:nonzero;fill:#34541f;fill-opacity:1"/><path d="M13.48 10.152c.11-.12.204-.261.278-.41q.076-.168.137-.344l.011-.027.008-.031.02-.059c.03-.168.035-.336.007-.504q.001.128.02.25.002.133-.02.254-.012.034-.02.063l-.01.027-.013.031-.14.348a1.26 1.26 0 0 1-.277.406Zm0 0" style="stroke:none;fill-rule:nonzero;fill:#34541f;fill-opacity:1"/><path d="M13.293 11.105q.06-.075.113-.164l.059-.082.055-.082.093-.175.082-.18q.087-.18.16-.367a2.7 2.7 0 0 0 .168-.782c.028-.265 0-.535-.082-.789.09.25.121.524.086.79a2.5 2.5 0 0 1-.168.78c-.046.126-.101.247-.156.368l-.09.18a2 2 0 0 1-.09.175c-.02.032-.035.063-.054.086l-.059.082-.113.164Zm0 0" style="stroke:none;fill-rule:nonzero;fill:#34541f;fill-opacity:1"/><path d="M13.383 11.207q.221-.376.426-.77c.191-.394.285-.835.273-1.28q0-.224-.035-.438c.027.144.043.293.039.437q-.002.447-.113.875-.063.211-.16.41c-.133.262-.278.516-.426.766Zm-.883-4.3h.047c.043.007.09.019.129.042.105.059.203.133.285.223a1.2 1.2 0 0 0-.285-.215.5.5 0 0 0-.176-.05" style="stroke:none;fill-rule:nonzero;fill:#34541f;fill-opacity:1"/><path d="M13.02 7.258s.097.058.152.144c0 0-.152-.027-.254-.148" style="stroke:none;fill-rule:nonzero;fill:#448127;fill-opacity:1"/><path d="M13.02 7.258a.45.45 0 0 1 .152.144l.004.008h-.004a.5.5 0 0 1-.14-.058.6.6 0 0 1-.118-.098.5.5 0 0 0 .188.125l.07.02v.007a.4.4 0 0 0-.07-.082Zm0 0" style="stroke:none;fill-rule:nonzero;fill:#34541f;fill-opacity:1"/><path d="M12.805 7.23s.23.149.265.165c0 0-.054-.118-.164-.165" style="stroke:none;fill-rule:nonzero;fill:#448127;fill-opacity:1"/><path d="m12.805 7.23.133.082.097.06.031.019v.004A.5.5 0 0 0 13 7.297a.3.3 0 0 0-.094-.067.23.23 0 0 1 .098.067.4.4 0 0 1 .066.098l.004.003h-.008L13 7.36Zm0 0" style="stroke:none;fill-rule:nonzero;fill:#34541f;fill-opacity:1"/><path d="M12.898 7.156s.118.051.145.14c0 0-.215-.093-.254-.14" style="stroke:none;fill-rule:nonzero;fill:#448127;fill-opacity:1"/><path d="M12.898 7.156a.3.3 0 0 1 .09.051l.032.04.027.05V7.3h-.008a2 2 0 0 1-.219-.121l-.03-.024.062.04c.058.038.125.074.191.1h-.004a.1.1 0 0 0-.023-.042l-.032-.04a.3.3 0 0 0-.086-.058" style="stroke:none;fill-rule:nonzero;fill:#34541f;fill-opacity:1"/><path d="M12.719 7.25s.207.152.27.152c0 0-.063-.105-.169-.152" style="stroke:none;fill-rule:nonzero;fill:#448127;fill-opacity:1"/><path d="m12.719 7.25.234.14.035.008v.008a.43.43 0 0 0-.168-.156c.051.023.102.059.137.105l.031.047.008.004h-.008a.1.1 0 0 1-.039-.008l-.031-.02a.9.9 0 0 1-.2-.128" style="stroke:none;fill-rule:nonzero;fill:#34541f;fill-opacity:1"/><path d="M12.719 7.297s.105.098.168.098c0 0-.063-.11-.168-.157" style="stroke:none;fill-rule:nonzero;fill:#448127;fill-opacity:1"/><path d="m12.719 7.297.125.082.02.004.023.008v.004a.6.6 0 0 0-.075-.09c-.027-.028-.062-.047-.093-.067.05.024.101.059.136.102l.032.05.008.008h-.008l-.051-.015a.5.5 0 0 1-.082-.055Zm0 0" style="stroke:none;fill-rule:nonzero;fill:#34541f;fill-opacity:1"/><path d="M12.66 7.082s.227.168.254.258c0 0-.203-.098-.242-.145" style="stroke:none;fill-rule:nonzero;fill:#448127;fill-opacity:1"/><path d="M12.66 7.082q.128.098.238.215l.02.039v.012l-.004-.004-.215-.125-.027-.024.027.024.031.02c.06.034.125.07.188.097l-.004.004-.023-.04a1.2 1.2 0 0 0-.157-.163Zm0 0" style="stroke:none;fill-rule:nonzero;fill:#34541f;fill-opacity:1"/><path d="M444.948 370.313c-6.286 3.343-13.311 4.896-20.337 4.776 9.984-8.24 19.721-8.359 20.337-4.776Zm69.886 4.537c5.176 4.658 20.953 8.001 23.418 7.404-10.6-10.747-22.063-11.822-23.418-7.404Zm0 0" style="fill-rule:nonzero;fill:#406325;fill-opacity:1;stroke-width:.2;stroke-linecap:butt;stroke-linejoin:miter;stroke:#24420e;stroke-opacity:1;stroke-miterlimit:4" transform="matrix(.0317 0 0 .03271 -2.71 -.317)"/><path d="M444.948 370.313c-.616-3.702-10.476-3.463-20.337 4.776 6.533-2.627 13.435-4.18 20.337-4.776Zm70.009 4.418c1.356-4.418 12.695-3.344 23.295 7.523a81.6 81.6 0 0 0-23.295-7.523Zm0 0" style="fill-rule:nonzero;fill:#67923d;fill-opacity:1;stroke-width:.2;stroke-linecap:butt;stroke-linejoin:miter;stroke:#24420e;stroke-opacity:1;stroke-miterlimit:4" transform="matrix(.0317 0 0 .03271 -2.71 -.317)"/></svg>