<svg xmlns="http://www.w3.org/2000/svg" width="25" height="19" viewBox="0 0 25 19"><path d="M0 0h25v19H0z" style="fill:#be0027;fill-opacity:1;stroke:none"/><path d="M1 1.082h23.027v16.957H1Zm0 0" style="stroke:none;fill-rule:evenodd;fill:#3b5aa3;fill-opacity:1"/><path d="M12.281 16.355c.102.051.223.051.328.004 5.383-2.902 5.383-10.855.004-13.718a.39.39 0 0 0-.34.007c-5.246 2.907-5.261 10.77.004 13.707Zm0 0" style="stroke:none;fill-rule:evenodd;fill:#cbe0e5;fill-opacity:1"/><path d="M12.281 16.504c.078.066.25.058.328 0 3.965-3.012 3.985-4.883 3.813-4.883H8.57c-.117 0 .07 1.91 3.711 4.883" style="stroke:none;fill-rule:evenodd;fill:#add2d9;fill-opacity:1"/><path d="M9.191 13.11c.36-.114.746-.09 1.09.066.297.16.469.16.79.16.335.008.597.258.96.27.668.015.95.351.43.355-.242 0-.77-.172-1.024-.133-.53.055-.867.172-1.367.738l.578.395c.5-.2.582-.434.86-.441.312-.012.418-.207.781-.207.434.039.871-.004 1.29-.126.577-.136.304-.546-.048-.695-.285-.12-.812-.004-1.14-.125-.25-.097-.047-.258.09-.289.132-.027.277.02.445.047.3.023.68-.004.941-.047.547-.082.524-.246.781-.25a.84.84 0 0 0 .47-.16c.155-.11.316-.316.503-.309l.496.02-.703 1.598-1.98 2.046-1.028.395-2.258-1.492-1.136-1.77Zm0 0" style="stroke:none;fill-rule:evenodd;fill:#fdf9a1;fill-opacity:1"/><path d="m11.79 11.559 4.53-.024.078-.41s-.16-.023-.293-.031c-.16-.012-.44.176-.625.172-.136 0-.285-.239-.418-.239-.234 0-.25.211-.468.22-.176-.009-.25-.145-.48-.13-.231.02-.22.149-.52.14-.399-.01-.559-.359-.88-.362-.53-.008-.546.511-.929.66Zm0 0" style="stroke:none;fill-rule:evenodd;fill:#179a3b;fill-opacity:1"/><path d="m11.79 11.652 4.663-.023v-.125l-4.773.023Zm0 0" style="stroke:none;fill-rule:evenodd;fill:#fdf9a1;fill-opacity:1"/><path d="M13.703 13.074c.074.278.149.371.438.45.285.066.722-.215.453-.489-.258-.254-.531-.316-.762-.547-.488-.488-1.223-1.683-1.223-2.523 0-.727-.07-2.211-.07-3.617 0-.09-.273.254-.273.351.015 1.239.015 2.176.062 3.426.078.914.508 1.531.887 2.086.168.27.414.555.488.863" style="stroke:none;fill-rule:evenodd;fill:#a79270;fill-opacity:1"/><path d="M10.14 6.367c-.058.121.141-.035.188-.05.262-.094.363-.426.813-.223.351.152.824.062.578.218-.305.188-.918.395-.93 1.317.05.086.055.074.098-.024.093-.214.535-.796.754-.75.09.024.347-.265.351-.183.028.23-.351.7-.344 1.32 0 .145.176.196.258.09.086-.09.133-.18.281-.3.258-.216.188-1.134.22-1.087.183.235.21.922.484 1.2.23.23.414.117.363-.2-.098-.648-.399-.465-.543-1.133-.031-.128-.04-.246.133-.195.207.067.332.16.484.399.156.23.445.445.613.578.293.23.399.031.258-.262a1.56 1.56 0 0 0-.82-.723c-.242-.086-.328-.093-.54-.132-.058-.012-.116-.133-.015-.204a1.66 1.66 0 0 1 .766-.304c.262-.008.469.207.652.261.367.094.367-.136.203-.316-.133-.144-.414-.394-.675-.36-.528.067-.493.051-.82.27-.118.07-.25.149-.2.063.117-.219.008-.18.191-.399.141-.16.246-.277.391-.316a.9.9 0 0 0 .363-.254c.133-.184.02-.29-.183-.227-.18.047-.274.168-.39.2-.29.093-.52.75-.556.843-.043.114-.093.059-.086-.039.04-.46.079-1.246-.078-1.566-.25-.477-.226-.254-.32-.027-.14.355-.09.691 0 1.039.04.175.18.375.207.511.02.11-.062-.03-.11-.097-.152-.239-.265-.395-.515-.528a1.33 1.33 0 0 0-.789-.078c-.07.024.078.125.137.172.168.137.484.18.703.313.18.117.32.187.383.347.023.117.062.293-.016.29-.2-.012-.508-.192-1.148-.122-.329.047-.61.328-.793.668" style="stroke:none;fill-rule:evenodd;fill:#239e46;fill-opacity:1"/><path d="M11.535 12.293h.184v.312h-.184Zm0 0" style="stroke:none;fill-rule:evenodd;fill:#000;fill-opacity:1"/><path d="M10.613 10.207c.735 1.031 1.914 1.633 1.938 2.098h-2.297c.527-.64.851-1.075.36-2.098" style="stroke:none;fill-rule:evenodd;fill:#fdf9ff;fill-opacity:1"/><path d="M9.945 12.332c1 .223 2.192.352 2.953-.035.008.226-.246.555-.457.555h-1.914c.223-.036.352-.102.711-.118l-1.015.008c-.118.004-.313-.3-.278-.41" style="stroke:none;fill-rule:evenodd;fill:#a68861;fill-opacity:1"/><path d="M12.21 16.824a.41.41 0 0 0 .352.008c5.774-3.117 5.778-11.656.008-14.727a.42.42 0 0 0-.367.008c-5.625 3.121-5.64 11.559.008 14.715Zm.028-.703a.34.34 0 0 0 .313.004c4.828-2.879 4.887-10.492.004-13.219-.094-.07-.23-.047-.325 0-4.625 2.774-4.882 10.074.008 13.215" style="stroke:none;fill-rule:evenodd;fill:#be0027;fill-opacity:1"/><path d="M10.5 8.922q.135.001.234.055c.09.046.149.136.168.261h-.12a.26.26 0 0 0-.102-.156.3.3 0 0 0-.184-.05q-.129.001-.223.109-.088.098-.09.3 0 .166.075.278.076.105.246.105a.3.3 0 0 0 .21-.074q.09-.076.09-.246h-.296v-.106h.414v.512h-.082l-.031-.125a.5.5 0 0 1-.118.106.45.45 0 0 1-.214.046.42.42 0 0 1-.293-.109.53.53 0 0 1-.133-.383q0-.241.129-.383a.41.41 0 0 1 .32-.14M11.422 8.95v.6c0 .071.012.126.039.173q.053.105.195.105.159.001.223-.11a.4.4 0 0 0 .031-.167v-.606h.133v.547q-.001.174-.055.278-.08.169-.32.168-.245.002-.332-.172a.65.65 0 0 1-.047-.274v-.547ZM13.219 9.52l-.145-.422-.156.422Zm-.211-.575h.144l.352.97h-.149l-.093-.29h-.38l-.105.29h-.129ZM13.945 8.945h.192l.27.82.273-.82h.183v.965h-.125v-.812l-.273.812h-.121l-.274-.812v.812h-.125Zm0 0" style="stroke:none;fill-rule:nonzero;fill:#bd0728;fill-opacity:1"/></svg>