<svg xmlns="http://www.w3.org/2000/svg" width="25" height="19" viewBox="0 0 25 19"><path d="M0 0h8.594v19H0Zm0 0" style="stroke:none;fill-rule:nonzero;fill:#ce1126;fill-opacity:1"/><path d="M8.594 0H25v9.5H8.594Zm0 0" style="stroke:none;fill-rule:nonzero;fill:#fcd116;fill-opacity:1"/><path d="M8.594 9.5H25V19H8.594Zm0 0" style="stroke:none;fill-rule:nonzero;fill:#009e49;fill-opacity:1"/><path d="m4.297 6.332-.965 3.012 1.484.492" style="stroke:none;fill-rule:nonzero;fill:#000001;fill-opacity:1"/><path d="m4.297 6.332.965 3.012-1.485.492" style="stroke:none;fill-rule:nonzero;fill:#000001;fill-opacity:1"/><path d="M7.27 8.52H4.145v1.585" style="stroke:none;fill-rule:nonzero;fill:#000001;fill-opacity:1"/><path d="m7.27 8.52-2.528 1.863-.918-1.281" style="stroke:none;fill-rule:nonzero;fill:#000001;fill-opacity:1"/><path d="M6.133 12.063 5.168 9.05l-1.484.488" style="stroke:none;fill-rule:nonzero;fill:#000001;fill-opacity:1"/><path d="m6.133 12.063-2.528-1.864.918-1.281" style="stroke:none;fill-rule:nonzero;fill:#000001;fill-opacity:1"/><path d="m2.46 12.063 2.528-1.864-.918-1.281" style="stroke:none;fill-rule:nonzero;fill:#000001;fill-opacity:1"/><path d="m2.46 12.063.966-3.012 1.484.488" style="stroke:none;fill-rule:nonzero;fill:#000001;fill-opacity:1"/><path d="m1.324 8.52 2.528 1.863.918-1.281" style="stroke:none;fill-rule:nonzero;fill:#000001;fill-opacity:1"/><path d="M1.324 8.52H4.45v1.585" style="stroke:none;fill-rule:nonzero;fill:#000001;fill-opacity:1"/></svg>