<?xml version="1.0" encoding="UTF-8"?>
<svg xmlns="http://www.w3.org/2000/svg" xmlns:xlink="http://www.w3.org/1999/xlink" width="25px" height="px" viewBox="0 0 25 19" version="1.1">
<g id="surface1">
<rect x="0" y="0" width="25" height="19" style="fill:rgb(92.54902%,10.588235%,18.039216%);fill-opacity:1;stroke:none;"/>
<path style=" stroke:none;fill-rule:nonzero;fill:rgb(100%,100%,100%);fill-opacity:1;" d="M 13.527344 4.082031 C 10.429688 3.878906 9.007812 7.992188 11.9375 9.511719 C 10.921875 8.625 11.132812 7.324219 11.542969 6.644531 L 11.617188 6.691406 C 11.078125 7.621094 11.179688 8.777344 12.050781 9.5 C 11.554688 9.011719 11.679688 7.957031 12.523438 7.5625 C 13.367188 7.171875 13.445312 6.007812 13.164062 5.621094 C 12.78125 4.945312 12.902344 4.433594 13.527344 4.082031 M 12.027344 6.492188 L 11.84375 6.785156 L 11.773438 6.445312 L 11.4375 6.351562 L 11.742188 6.183594 L 11.71875 5.832031 L 11.972656 6.070312 L 12.296875 5.941406 L 12.152344 6.261719 L 12.371094 6.53125 Z M 12.027344 6.492188 "/>
<path style=" stroke:none;fill-rule:nonzero;fill:rgb(100%,100%,100%);fill-opacity:1;" d="M 17.832031 9.195312 C 17.0625 6.144531 12.765625 6.046875 12.242188 9.339844 C 12.761719 8.085938 14.046875 7.886719 14.808594 8.074219 L 14.792969 8.160156 C 13.753906 7.925781 12.699219 8.382812 12.289062 9.445312 C 12.59375 8.816406 13.621094 8.609375 14.25 9.300781 C 14.878906 9.996094 15.996094 9.710938 16.273438 9.320312 C 16.789062 8.742188 17.308594 8.699219 17.832031 9.195312 M 15.105469 8.492188 L 14.773438 8.40625 L 15.070312 8.234375 L 15.054688 7.882812 L 15.304688 8.121094 L 15.628906 7.992188 L 15.480469 8.3125 L 15.703125 8.582031 L 15.359375 8.542969 L 15.175781 8.835938 Z M 15.105469 8.492188 "/>
<path style=" stroke:none;fill-rule:nonzero;fill:rgb(100%,100%,100%);fill-opacity:1;" d="M 14.363281 14.921875 C 16.984375 13.238281 15.75 9.066406 12.5 9.582031 C 13.835938 9.691406 14.417969 10.871094 14.480469 11.664062 L 14.394531 11.671875 C 14.292969 10.597656 13.539062 9.726562 12.414062 9.65625 C 13.097656 9.757812 13.609375 10.683594 13.152344 11.503906 C 12.699219 12.324219 13.3125 13.3125 13.761719 13.457031 C 14.464844 13.777344 14.664062 14.265625 14.363281 14.921875 M 14.179688 12.078125 L 14.15625 11.730469 L 14.410156 11.964844 L 14.734375 11.839844 L 14.585938 12.15625 L 14.8125 12.429688 L 14.464844 12.382812 L 14.277344 12.683594 L 14.210938 12.335938 L 13.875 12.25 Z M 14.179688 12.078125 "/>
<path style=" stroke:none;fill-rule:nonzero;fill:rgb(100%,100%,100%);fill-opacity:1;" d="M 7.914062 13.347656 C 10.304688 15.355469 13.839844 12.875 12.351562 9.902344 C 12.660156 11.222656 11.734375 12.152344 11.007812 12.453125 L 10.972656 12.375 C 11.949219 11.945312 12.539062 10.949219 12.253906 9.84375 C 12.371094 10.53125 11.65625 11.3125 10.746094 11.128906 C 9.839844 10.941406 9.101562 11.835938 9.101562 12.320312 C 9.019531 13.09375 8.625 13.4375 7.914062 13.347656 M 10.527344 12.292969 L 10.84375 12.164062 L 10.703125 12.480469 L 10.925781 12.753906 L 10.578125 12.710938 L 10.394531 13.011719 L 10.328125 12.664062 L 9.988281 12.574219 L 10.292969 12.402344 L 10.273438 12.054688 Z M 10.527344 12.292969 "/>
<path style=" stroke:none;fill-rule:nonzero;fill:rgb(100%,100%,100%);fill-opacity:1;" d="M 7.398438 6.648438 C 6.253906 9.570312 9.671875 12.214844 12.003906 9.859375 C 10.859375 10.5625 9.703125 9.957031 9.191406 9.355469 L 9.257812 9.296875 C 9.964844 10.101562 11.078125 10.363281 12.027344 9.746094 C 11.417969 10.074219 10.464844 9.625 10.359375 8.691406 C 10.25 7.757812 9.183594 7.324219 8.730469 7.476562 C 7.980469 7.636719 7.535156 7.359375 7.398438 6.648438 M 9.199219 8.839844 L 9.417969 9.105469 L 9.074219 9.070312 L 8.886719 9.363281 L 8.820312 9.019531 L 8.480469 8.933594 L 8.789062 8.761719 L 8.765625 8.410156 L 9.019531 8.648438 L 9.339844 8.519531 Z M 9.199219 8.839844 "/>
</g>
</svg>
