<svg xmlns="http://www.w3.org/2000/svg" width="25" height="px" viewBox="0 0 25 19"><path d="M0 0h25v19H0z" style="fill:#18c3df;fill-opacity:1;stroke:none"/><path d="M0 6.332h25v6.336H0Zm0 0" style="stroke:none;fill-rule:nonzero;fill:#fff;fill-opacity:1"/><path d="m12.188 9.5.519.105-.207-1.16Zm0 0" style="stroke:none;fill-rule:nonzero;fill:#18c3df;fill-opacity:1"/><path d="m12.813 9.5-.52.105.207-1.16Zm0 0" style="stroke:none;fill-rule:nonzero;fill:#18c3df;fill-opacity:1"/><path d="m12.402 9.2.063.534 1.027-.562Zm0 0" style="stroke:none;fill-rule:nonzero;fill:#18c3df;fill-opacity:1"/><path d="m12.598 9.8-.262-.468 1.156-.16Zm0 0" style="stroke:none;fill-rule:nonzero;fill:#18c3df;fill-opacity:1"/><path d="m12.402 9.8.262-.468-1.156-.16Zm0 0" style="stroke:none;fill-rule:nonzero;fill:#18c3df;fill-opacity:1"/><path d="m12.598 9.2-.063.534-1.027-.562Zm0 0" style="stroke:none;fill-rule:nonzero;fill:#18c3df;fill-opacity:1"/><path d="m12.754 9.313-.484.226.843.816Zm0 0" style="stroke:none;fill-rule:nonzero;fill:#18c3df;fill-opacity:1"/><path d="m12.246 9.688.36-.399.507 1.066Zm0 0" style="stroke:none;fill-rule:nonzero;fill:#18c3df;fill-opacity:1"/><path d="m12.754 9.688-.36-.399-.507 1.066Zm0 0" style="stroke:none;fill-rule:nonzero;fill:#18c3df;fill-opacity:1"/><path d="m12.246 9.313.484.226-.843.816ZM17.395 7.809l.52.105-.208-1.16Zm0 0" style="stroke:none;fill-rule:nonzero;fill:#18c3df;fill-opacity:1"/><path d="m18.02 7.809-.52.105.207-1.16Zm0 0" style="stroke:none;fill-rule:nonzero;fill:#18c3df;fill-opacity:1"/><path d="m17.61 7.508.062.535 1.027-.559Zm0 0" style="stroke:none;fill-rule:nonzero;fill:#18c3df;fill-opacity:1"/><path d="m17.805 8.11-.262-.47 1.156-.156Zm0 0" style="stroke:none;fill-rule:nonzero;fill:#18c3df;fill-opacity:1"/><path d="m17.61 8.11.261-.47-1.156-.156Zm0 0" style="stroke:none;fill-rule:nonzero;fill:#18c3df;fill-opacity:1"/><path d="m17.805 7.508-.063.535-1.027-.559Zm0 0" style="stroke:none;fill-rule:nonzero;fill:#18c3df;fill-opacity:1"/><path d="m17.96 7.625-.483.223.843.816Zm0 0" style="stroke:none;fill-rule:nonzero;fill:#18c3df;fill-opacity:1"/><path d="m17.453 7.996.36-.394.507 1.062Zm0 0" style="stroke:none;fill-rule:nonzero;fill:#18c3df;fill-opacity:1"/><path d="m17.96 7.996-.358-.394-.508 1.062Zm0 0" style="stroke:none;fill-rule:nonzero;fill:#18c3df;fill-opacity:1"/><path d="m17.453 7.625.485.223-.844.816ZM17.395 10.977l.52.105-.208-1.16Zm0 0" style="stroke:none;fill-rule:nonzero;fill:#18c3df;fill-opacity:1"/><path d="m18.02 10.977-.52.105.207-1.16Zm0 0" style="stroke:none;fill-rule:nonzero;fill:#18c3df;fill-opacity:1"/><path d="m17.61 10.676.062.535 1.027-.563Zm0 0" style="stroke:none;fill-rule:nonzero;fill:#18c3df;fill-opacity:1"/><path d="m17.805 11.277-.262-.468 1.156-.16Zm0 0" style="stroke:none;fill-rule:nonzero;fill:#18c3df;fill-opacity:1"/><path d="m17.61 11.277.261-.468-1.156-.16Zm0 0" style="stroke:none;fill-rule:nonzero;fill:#18c3df;fill-opacity:1"/><path d="m17.805 10.676-.063.535-1.027-.563Zm0 0" style="stroke:none;fill-rule:nonzero;fill:#18c3df;fill-opacity:1"/><path d="m17.96 10.79-.483.226.843.816Zm0 0" style="stroke:none;fill-rule:nonzero;fill:#18c3df;fill-opacity:1"/><path d="m17.453 11.164.36-.398.507 1.066Zm0 0" style="stroke:none;fill-rule:nonzero;fill:#18c3df;fill-opacity:1"/><path d="m17.96 11.164-.358-.398-.508 1.066Zm0 0" style="stroke:none;fill-rule:nonzero;fill:#18c3df;fill-opacity:1"/><path d="m17.453 10.79.485.226-.844.816ZM6.98 7.809l.52.105-.207-1.16Zm0 0" style="stroke:none;fill-rule:nonzero;fill:#18c3df;fill-opacity:1"/><path d="m7.605 7.809-.52.105.208-1.16Zm0 0" style="stroke:none;fill-rule:nonzero;fill:#18c3df;fill-opacity:1"/><path d="m7.195 7.508.063.535 1.027-.559Zm0 0" style="stroke:none;fill-rule:nonzero;fill:#18c3df;fill-opacity:1"/><path d="m7.39 8.11-.261-.47 1.156-.156Zm0 0" style="stroke:none;fill-rule:nonzero;fill:#18c3df;fill-opacity:1"/><path d="m7.195 8.11.262-.47-1.156-.156Zm0 0" style="stroke:none;fill-rule:nonzero;fill:#18c3df;fill-opacity:1"/><path d="m7.39 7.508-.062.535-1.027-.559Zm0 0" style="stroke:none;fill-rule:nonzero;fill:#18c3df;fill-opacity:1"/><path d="m7.547 7.625-.484.223.843.816Zm0 0" style="stroke:none;fill-rule:nonzero;fill:#18c3df;fill-opacity:1"/><path d="m7.04 7.996.358-.394.508 1.062Zm0 0" style="stroke:none;fill-rule:nonzero;fill:#18c3df;fill-opacity:1"/><path d="m7.547 7.996-.36-.394-.507 1.062Zm0 0" style="stroke:none;fill-rule:nonzero;fill:#18c3df;fill-opacity:1"/><path d="m7.04 7.625.483.223-.843.816ZM6.98 10.977l.52.105-.207-1.16Zm0 0" style="stroke:none;fill-rule:nonzero;fill:#18c3df;fill-opacity:1"/><path d="m7.605 10.977-.52.105.208-1.16Zm0 0" style="stroke:none;fill-rule:nonzero;fill:#18c3df;fill-opacity:1"/><path d="m7.195 10.676.063.535 1.027-.563Zm0 0" style="stroke:none;fill-rule:nonzero;fill:#18c3df;fill-opacity:1"/><path d="m7.39 11.277-.261-.468 1.156-.16Zm0 0" style="stroke:none;fill-rule:nonzero;fill:#18c3df;fill-opacity:1"/><path d="m7.195 11.277.262-.468-1.156-.16Zm0 0" style="stroke:none;fill-rule:nonzero;fill:#18c3df;fill-opacity:1"/><path d="m7.39 10.676-.062.535-1.027-.563Zm0 0" style="stroke:none;fill-rule:nonzero;fill:#18c3df;fill-opacity:1"/><path d="m7.547 10.79-.484.226.843.816Zm0 0" style="stroke:none;fill-rule:nonzero;fill:#18c3df;fill-opacity:1"/><path d="m7.04 11.164.358-.398.508 1.066Zm0 0" style="stroke:none;fill-rule:nonzero;fill:#18c3df;fill-opacity:1"/><path d="m7.547 11.164-.36-.398-.507 1.066Zm0 0" style="stroke:none;fill-rule:nonzero;fill:#18c3df;fill-opacity:1"/><path d="m7.04 10.79.483.226-.843.816Zm0 0" style="stroke:none;fill-rule:nonzero;fill:#18c3df;fill-opacity:1"/></svg>