<svg xmlns="http://www.w3.org/2000/svg" width="25" height="px" viewBox="0 0 25 19"><path d="M0 0h25v19H0z" style="fill:#171796;fill-opacity:1;stroke:none"/><path d="M0 0h25v12.668H0Zm0 0" style="stroke:none;fill-rule:nonzero;fill:#fff;fill-opacity:1"/><path d="M0 0h25v6.332H0Zm12.5 14.414c2.004 0 3.645-1.664 3.645-3.695V6.332h-7.29v4.387c0 2.035 1.641 3.699 3.645 3.699Zm0 0" style="stroke:none;fill-rule:nonzero;fill:red;fill-opacity:1"/><path d="M12.5 14.352c1.973-.008 3.566-1.625 3.578-3.622V6.406H8.926v4.32c.011 1.997 1.605 3.614 3.574 3.622Zm0 0" style="stroke:none;fill-rule:nonzero;fill:#fff;fill-opacity:1"/><path d="M10.434 6.54H9.063v1.53h1.374Zm0 3.062h1.379V8.07H10.43Zm-1.371 1.12q0 .21.023.415h1.351V9.602H9.064Zm4.128-1.12h-1.375v1.535h1.375Zm0 3.066h1.375v-1.531h-1.375Zm1.375.836c.305-.23.57-.516.786-.836h-.782v.836Zm-4.132-.836h1.379v-1.531H10.43Zm-.786 0c.215.32.48.605.786.836v-.836Zm3.09 1.531q.231-.016.45-.062v-1.469h-1.376v1.469q.223.045.446.062.24.018.48 0" style="stroke:none;fill-rule:nonzero;fill:red;fill-opacity:1"/><path d="M15.914 11.137q.024-.205.024-.414V9.602h-1.376v1.535Zm-2.726-1.535h1.374V8.07h-1.374Zm0-3.063h-1.376V8.07h1.376Zm2.75 1.531V6.54h-1.376v1.53Zm0 0" style="stroke:none;fill-rule:nonzero;fill:red;fill-opacity:1"/><path d="m16.016 6.285.851-1.957-.648-1.062-1.078.402-.758-.879-.992.582-.891-.738-.887.734-.996-.578-.758.879-1.078-.406-.648 1.07.851 1.953a8.4 8.4 0 0 1 3.516-.762 8.5 8.5 0 0 1 3.516.762" style="stroke:none;fill-rule:nonzero;fill:#fff;fill-opacity:1"/><path d="m9.883 3.754-1.07-.399-.598.98.23.524.578 1.336q.659-.294 1.352-.476Zm0 0" style="stroke:none;fill-rule:nonzero;fill:#0093dd;fill-opacity:1"/><path d="M251.4 119.31c1 1.874 1.6 4.045 1.6 6.216 0 7.303-6 13.323-13.4 13.323-6.4-.099-11.9-4.54-13.1-10.856 2.3 4.343 6.8 7.007 11.7 6.908 3.9 0 7.7-1.776 10.2-4.737 2.6-3.059 3.6-7.006 3-10.855Zm0 0" style="fill-rule:nonzero;fill:#fff;fill-opacity:1;stroke-width:.3;stroke-linecap:butt;stroke-linejoin:miter;stroke:#000;stroke-opacity:1;stroke-miterlimit:4" transform="scale(.03906 .03958)"/><path d="m8.89 4.512.04-.192-.149-.129-.004-.003.008-.004.18-.063.039-.191v-.008l.008.004.144.129.18-.067h.008v.008l-.04.192.145.128.008.008h-.012l-.18.063-.038.187v.008l-.004-.004-.145-.125-.18.063h-.011Zm0 0" style="stroke:none;fill-rule:nonzero;fill:#000;fill-opacity:1"/><path d="m9.125 4.258.137.12.168-.058Zm0-.008.305.066-.133-.12Zm-.324-.062.304.058-.136-.117Zm.304.066-.304-.059.133.121Zm.016-.012.203-.238-.168.062Zm-.219.254.203-.238-.168.062Zm.207-.234-.203.238.168-.059Zm.22-.25-.204.234.168-.059Zm-.22.234-.101-.3-.035.179Zm.106.316-.098-.296-.035.18Zm-.094-.3.102.297.035-.176Zm-.105-.317.097.297.04-.176Zm0 0" style="stroke:none;fill-rule:nonzero;fill:#f7db17;fill-opacity:1"/><path d="m11.621 3.46-.992-.57-.746.868.492 1.96a9 9 0 0 1 1.41-.238Zm0 0" style="stroke:none;fill-rule:nonzero;fill:#171796;fill-opacity:1"/><path d="M10.254 5.234a9 9 0 0 1 1.492-.254l-.039-.511a9.5 9.5 0 0 0-1.578.265Zm-.246-.992q.816-.206 1.656-.277l-.043-.5a10 10 0 0 0-1.738.293Zm0 0" style="stroke:none;fill-rule:nonzero;fill:red;fill-opacity:1"/><path d="M13.387 3.46h-.004l-.88-.73-.878.73.164 2.024a9 9 0 0 1 .715-.03q.363 0 .715.03Zm0 0" style="stroke:none;fill-rule:nonzero;fill:#0093dd;fill-opacity:1"/><path d="M12.5 4.371s-.004 0-.004.004a1 1 0 0 0-.05.066c-.02.008-.024.016-.016.036-.024-.004-.028.015-.028.039q-.035-.055-.078-.028-.002-.034-.039-.039c-.015 0-.031-.004-.039-.011l-.016-.012c-.011-.008-.023 0-.015.008.023.039.047.082.074.12q-.005.013.008.02l.012.04s-.004.003-.004.007a.2.2 0 0 0-.063-.012q-.02 0-.031-.011-.007-.01-.008.007c0 .051.016.094.055.141h-.067q-.007 0-.004.012c.012.027.032.05.075.07q-.031.017-.032.047c0 .023-.007.04-.02.043q-.01.006-.003.012a.1.1 0 0 0 .082.011.14.14 0 0 0-.016.079q.028.003.055-.004c0 .004-.004.015-.004.027a.1.1 0 0 1-.008.031c-.004.004-.007.008 0 .012a.14.14 0 0 0 .082-.004c0 .023 0 .043.008.066q.006.014.012.004a.2.2 0 0 1 .05-.05c0 .011.005.015.012.023q.017.007.016.031c0 .004 0 .004.004.008.012 0 .047-.035.055-.055.02.012.023.024.039.043.004.008.008 0 .011-.004q.01-.033.008-.066.036.014.082.004c.008-.004.004-.008 0-.012a.1.1 0 0 1-.008-.031q-.002-.022-.003-.027c.02.004.035.007.054.004a.11.11 0 0 0-.02-.079.1.1 0 0 0 .087-.011q.007-.006-.004-.012-.019-.007-.02-.043 0-.03-.031-.047a.13.13 0 0 0 .074-.07c.004-.008 0-.012-.004-.012-.023 0-.047-.004-.066-.004a.2.2 0 0 0 .055-.137q-.001-.018-.008-.007-.01.01-.031.011a.2.2 0 0 0-.063.012q.001-.006-.004-.012c.004-.011.012-.023.016-.035q.01-.006.008-.02c.023-.038.046-.081.07-.12.008-.008-.004-.016-.016-.008l-.015.011c-.008.004-.024.012-.04.012-.023.004-.039.016-.039.04q-.04-.029-.074.027c-.004-.024-.004-.043-.031-.04q.013-.023-.016-.035c-.015-.023-.043-.043-.058-.066-.004-.004-.004-.004-.008-.004m0 0" style="stroke:none;fill-rule:nonzero;fill:#000;fill-opacity:1"/><path d="M12.734 4.5q-.008 0-.015.012c0 .004 0 .015.004.015q.006.004.011-.004V4.52c.004-.008.008-.016 0-.02m-.46 0c.003 0 .011.004.011.012a.01.01 0 0 1 0 .015q-.006.005-.012-.007c-.003-.008-.007-.016 0-.02m.417.086q-.005.002-.004.004-.001.007.004.008a.01.01 0 0 0 .008-.008s-.004-.004-.008-.004m-.37 0q-.008.002-.008.004 0 .007.007.008s.004-.004.004-.008zm.395-.027a1 1 0 0 0-.207-.016q-.105 0-.211.012c-.004 0 0 .008 0 .008q.105-.007.21-.008.102 0 .208.011c.004 0 .004-.007 0-.007m0 0" style="stroke:none;fill-rule:nonzero;fill:#f7db17;fill-opacity:1"/><path d="M12.297 4.55a2 2 0 0 1 .418 0l.012-.015h-.008q-.011-.007-.004-.027c.004-.012.015-.016.023-.012q.005.001.004.008l.043-.066c-.02.011-.031.019-.055.023q-.04.005-.035.027c.004.016-.004.012-.015.004-.032-.015-.051.008-.063.035q-.013.024-.015 0v-.02c0-.023-.008-.027-.02-.023-.016.008-.016.004-.012-.004 0-.007.008-.011.004-.02q0-.01-.011-.01-.031-.034-.063-.067-.026.033-.05.066-.013 0-.012.012c-.004.008.003.012.003.02.004.007.004.011-.011.003-.012-.004-.016 0-.02.02v.023c0 .016-.008.016-.015 0-.012-.027-.032-.05-.063-.035-.012.008-.02.012-.016-.004q0-.022-.035-.027c-.023-.004-.035-.012-.054-.024l.039.063q-.001-.005.004-.004.01-.006.023.012.007.02-.004.027h-.004Zm.406.087H12.7q-.006 0-.011.011-.01.008-.02.016c0 .004-.004.004-.004 0-.004 0 0-.004 0-.004.008-.004.012-.012.02-.015q.001-.007.007-.008-.017-.005-.027-.004a.03.03 0 0 0-.02.008l-.015.011s0 .004-.004 0v-.004l.016-.011.007-.008h-.027c-.004 0-.004.004-.008.004 0 0-.004.004-.004.008h-.004q-.005-.005 0-.004c0-.004.004-.008.004-.008q-.006-.002-.02-.004-.005.005-.01.016h-.005v-.004c0-.004.004-.004.004-.008 0 0 0-.004.004-.004h-.035c0 .004-.004.004-.004.004l-.008.008s0 .004-.004 0v-.004q.004-.001.008-.008h-.066q.004.007.007.008v.004c-.003.004-.003 0-.007 0q.001-.004-.004-.008s-.004 0-.004-.004h-.035l.004.004c0 .004.004.004.004.008v.004h-.004q-.005-.007-.004-.008l-.008-.008q-.012-.001-.024.004h.004s.004.004.004.008c0 0 .004 0 0 .004h-.004c0-.004-.004-.008-.004-.008q-.003-.002-.007-.004h-.032q.006.004.012.008.011.006.016.011v.004c-.004.004-.004 0-.004 0q-.005-.005-.016-.011-.006-.007-.023-.008h-.024q.004.006.008.012l.02.015s.004.004 0 .004c0 .004-.004.004-.004 0l-.02-.016c-.004-.003-.008-.011-.011-.015a.14.14 0 0 0-.055-.012q-.02.002-.043-.008l.012.02a.1.1 0 0 0 .02.015q.002-.001.003.004c0 .012.008.024.016.035.004.004.011.012.015.012l-.015-.023q-.007-.017-.008-.04h.008q-.002.02.007.04.006.015.024.031c.004.004 0 .008 0 .004a.1.1 0 0 1-.035-.02.1.1 0 0 1-.02-.039q-.01-.001-.02-.015l-.011-.02q.007.063.043.11l.023.02q.012.006 0 .007h-.011l.023.012q.019.01.02.023.001.005-.004.004-.004-.012-.02-.023-.018-.008-.035-.016h-.043l.012.012c.008.004.015.007.031.007q.013.006.02.012l.02.012q.001.005-.005.004c0 .004 0 0-.004 0l-.011-.012q-.01-.007-.02-.008l-.035-.011-.016-.012a.1.1 0 0 0 .074.062q.007.005.008.004.012.002.024.004a.1.1 0 0 0 .027.004v.008q-.017-.005-.027-.004l-.016-.004h-.008c-.023.004-.039.023-.043.047v.004l.028-.024q.016-.007.03-.004.006-.001.005.004h-.004q-.016-.002-.031.008a.2.2 0 0 0-.028.024c-.004.011-.008.027-.02.035a.03.03 0 0 0 .016.004l.024-.012c.008 0 .02-.004.027-.004 0 0 .004 0 .004.004 0 0-.004 0-.004.004q-.012-.001-.023.004-.012.001-.024.008.034.004.063-.008.012-.002.011-.004c.008-.004.012-.004.016-.008q.013-.002.02-.004s.004 0 .004.004h-.004l-.02.008c0 .004-.008.008-.012.012q-.007.002-.007.003-.016.014-.02.028-.005.012-.004.02.005-.014.016-.028c.011-.008.02-.02.035-.023 0 0 0-.004.004 0 0 .003-.004.003-.004.003q-.016.012-.031.024l-.02.031c0 .008 0 0-.004.012q.016-.02.031-.031c.012-.008.028-.016.04-.012 0 0 .003 0 0 .004q0 .006 0 0a.06.06 0 0 0-.036.012l-.035.035c.02.004.035-.004.051-.008q.012-.008.023-.016l.004-.004q.007-.005.008-.011h.008q.001.004-.004.007l-.008.008q-.004.007-.008.008 0 .005-.003.004c-.004.008-.012.016-.016.023-.004.02 0 .036-.012.051q.01 0 .02-.011.006-.007.011-.02c0-.012.008-.02.016-.027q.006-.011.024-.016l.003.004-.003.004c-.008 0-.016.008-.02.012a.1.1 0 0 0-.016.023.1.1 0 0 1-.011.023l-.016.012h.012c.008 0 .02-.004.023-.012q.011-.006.016-.02h.004c.004 0 .004.005 0 .005q-.005.012-.016.02c-.004.007-.008.007-.016.011a.1.1 0 0 0 .043-.012c.004 0 .008-.015.012-.02q.004-.005.008-.01c.004-.009.012-.013.016-.017q.005-.001.004.004v.004a.03.03 0 0 0-.016.008q-.001.011-.008.016c0 .008-.004.023-.004.027q-.001.03.004.059c.004-.008.012-.012.016-.02q.002-.013.004-.031v-.035q.005.002.004.004a.04.04 0 0 1 0 .03v.028c.003-.008.003-.008.007-.012 0-.007.004-.015.004-.023v-.023q.005 0 .004.003a.1.1 0 0 1 .004.024q-.004.008-.008.016l.02-.008v-.039q-.001-.005.004-.004.005-.001.004.004v.039q0 .012.011.02a.1.1 0 0 1 .016.027V5.1a.04.04 0 0 0-.012-.03q-.001-.006.004-.005c0-.003.004 0 .004 0l.012.036q.001.022-.004.046c.012-.007.035-.023.035-.054-.004-.004-.004-.004-.004-.008v-.004h.004q.005.006.004.012v.008q.007-.002.008-.004s.004.004.008.004q-.005-.008-.004-.016a.03.03 0 0 1 0-.024q-.001-.004.004-.003c.003 0 0 .003 0 .003v.024q0 .007.007.02v.003l.004.004V5.06s0-.004.004 0c.004 0 0 0 0 0v.03c0 .013.004.024.004.032.008.008.008.012.016.02q.007-.03.004-.059c0-.004-.004-.02-.004-.027l-.012-.012c0-.008-.008-.012-.012-.012v-.004q-.001-.006.004 0c.004 0 .012.004.016.012q.004.006.008.012c.003 0 .007.02.011.02a.1.1 0 0 0 .043.011c-.008-.004-.011-.004-.015-.008q-.013-.011-.02-.023s0-.004.004-.004h.004q.005.013.016.02c.007.007.023.011.035.011l-.016-.012a.1.1 0 0 1-.012-.023.1.1 0 0 0-.015-.023c-.004-.004-.012-.012-.02-.012l-.004-.004c0-.004.004-.004.004-.004.008.004.02.008.024.016a.1.1 0 0 1 .015.027q.006.013.012.02.007.01.02.015c-.012-.02-.008-.035-.012-.055-.004-.011-.024-.027-.02-.03.004-.005.012.007.024.01.015.005.03.013.05.009l-.035-.035q-.018-.013-.03-.008-.006.001-.005-.004V4.96c.016-.004.027.004.04.012q.015.01.027.027v-.008c-.008-.008-.012-.02-.024-.031q-.01-.012-.027-.024-.005 0-.004-.003c.004-.004.004 0 .004 0 .015.003.023.015.035.023.004.008.012.02.016.031q-.002-.011-.004-.023c-.004-.008-.008-.02-.02-.027-.004-.004-.02-.012-.02-.016l-.003-.004c-.008 0-.012-.004-.016-.004q-.002.001-.004-.004c0-.004.004 0 .004 0 .004 0 .012 0 .016.004.004 0 .008.004.011.004q.007.001.02.008.029.012.062.008-.01-.007-.023-.008-.012-.005-.023-.004-.002.001-.004-.004c0-.004.004-.004.004-.004.007 0 .02.004.027.004l.023.012q.005.004.016-.004a.05.05 0 0 1-.02-.035c-.011-.008-.02-.02-.03-.024q-.015-.01-.028-.008h-.004v-.004q.018-.003.035.004c.008.008.02.016.027.024v-.004c-.003-.024-.02-.043-.043-.047-.007 0-.015.004-.015 0 0-.008.008-.008.02-.012a.1.1 0 0 0 .078-.062l-.016.012-.035.011q-.01.001-.02.008c-.004.004-.012.008-.015.012 0 0 0 .004-.004 0v-.004l.015-.012.024-.012q.02 0 .031-.007l.012-.012h-.043c-.012.004-.028.012-.035.016q-.019.01-.02.023h-.004v-.004q.001-.012.02-.023l.023-.012h-.012q-.017-.001 0-.008.012-.007.024-.02a.2.2 0 0 0 .039-.105.03.03 0 0 1-.008.016c-.008.008-.012.015-.023.015 0 .016-.008.028-.016.04a.1.1 0 0 1-.035.019c0 .004-.004 0 0-.004q.018-.016.023-.031c.008-.012.008-.028.008-.035q-.001-.005.004-.004h.004q-.001.022-.008.039c-.004.011-.012.02-.016.023.004 0 .012-.008.016-.011.008-.008.012-.024.016-.036q-.001-.005.004-.004l.02-.011.01-.024q-.023.01-.042.008a.1.1 0 0 0-.05.016m0 0" style="stroke:none;fill-rule:nonzero;fill:#f7db17;fill-opacity:1"/><path d="M12.695 4.617q-.094-.01-.187-.008c-.063 0-.13.004-.192.008v.004q0 .005.012.004.088-.007.176-.008c.062 0 .125 0 .191.008 0 0 .004-.008 0-.008m0 0" style="stroke:none;fill-rule:nonzero;fill:#f7db17;fill-opacity:1"/><path d="M12.32 4.613a1.5 1.5 0 0 1 .375 0l.004-.011h-.008c-.004 0-.011-.004-.011-.008q.001-.012.008-.012.01-.004.015.004l.004-.016a1.7 1.7 0 0 0-.402 0l.004.016q.006-.007.011-.008c.004 0 .012.008.012.012 0 .008-.008.012-.012.012h-.004l.004.007-.004.004Zm.282-.039c-.004 0-.012.004-.012.012 0 .004.008.012.012.012.007 0 .011-.008.011-.012q0-.012-.011-.012m0 .004q-.005.001-.004.008-.001.002.004.004c.003 0 .007-.004.007-.004a.01.01 0 0 0-.007-.008m-.098-.008q-.012 0-.012.012t.012.012q.007 0 .008-.012-.001-.012-.008-.012m0 .008q-.007-.001-.008.004.001.005.008.004s.004 0 .004-.004q-.002-.005-.004-.004m-.102-.004q-.007-.001-.007.004-.006.006 0 .012c0 .004.003.008.007.004q.012-.001.012-.008 0-.012-.012-.012m0 .004s-.004.004-.004.008l.004.004c.004 0 .008-.004.008-.004a.01.01 0 0 0-.008-.008" style="stroke:none;fill-rule:evenodd;fill:#f7db17;fill-opacity:1"/><path d="m12.508 4.5-.012-.016q-.005-.006-.016-.007c-.003 0-.003-.008 0-.008q.006 0 .012-.012l.012-.023c0-.004.004-.004.004 0 .004.007.004.015.012.02.003.003.011.01.015.01s.004.009 0 .009-.012.004-.012.007c-.007.004-.007.012-.011.02 0 .004-.004.004-.004 0m0-.012q.007-.006.008-.011.006-.007.011-.008l-.015-.012c0-.004-.004-.008-.004-.012-.004.008-.004.012-.008.016l-.012.012q.006.001.012.007.007.001.008.008m.074.48-.047.02h-.004c0-.004 0-.004.004-.008l.047-.02s.004 0 .004.005q.001.005-.004.004m.008-.032-.059.032s0 .004-.004 0q-.001-.005.004-.004l.055-.031s.004-.004.004 0c.004.003 0 .003 0 .003m-.172-.003.059.03s.003 0 0 .005c0 .004-.004 0-.004 0l-.055-.032q-.005 0-.004-.003c.004-.004.004 0 .004 0m.008.027.047.02c0 .003.004.003 0 .007h-.004l-.047-.02s-.004 0 0-.003q-.001-.005.004-.004m.02.043a.1.1 0 0 0 .03.004q.016-.005.02-.016v-.047q-.017.001-.027-.004-.016-.002-.02-.015-.006-.02 0-.031s0-.004.004 0q.005 0 .004.003a.03.03 0 0 0 0 .024q0 .011.012.016.013.002.031.003l.027-.003q.011-.006.016-.012.007-.01.008-.02s-.004-.004-.004-.008h-.035s-.004 0-.004-.003c0 0 .004 0 .004-.004h.023a.03.03 0 0 1 .016.004q.005.005.004.011.004.012-.004.024c-.008.004-.012.011-.024.011q-.01.005-.023.004v.047a.03.03 0 0 0 .016.016q.017.001.035-.004.002-.001.004.004s0 .004-.004.004c-.012 0-.024.004-.035 0A.02.02 0 0 1 12.5 5a.02.02 0 0 1-.02.012c-.011.004-.023 0-.035 0-.004 0-.004-.004-.004-.004 0-.004.004-.004.004-.004m.03.02h.04s.004 0 .004.003c0 .004-.004.004-.004.004h-.04v-.008m.055-.289c.016-.011.028-.023.043-.027a.1.1 0 0 1 .031-.012s.004 0 .004.004-.004.004-.004.004a.1.1 0 0 0-.03.008q-.018.011-.036.027c-.004.004-.004.004-.008 0zm-.054.004q-.02-.016-.04-.027a.1.1 0 0 0-.035-.012h-.004q-.001-.005.004-.004c.008-.004.024 0 .036.008q.023.013.042.031.006.002 0 .004-.002.006-.003 0m-.02.094.012-.02c.008-.003.011-.011.015-.015.004 0 .004-.004.008 0V4.8l-.015.015-.012.02c0 .004-.004.004-.004.004q-.005-.004-.004-.008m.035-.16q.006.007.012.02c0 .007.004.015.004.027q.001.011-.004.023-.001.012-.008.024-.005.006-.016.007-.004.006-.015 0a.04.04 0 0 1 0 .032h-.004c-.004 0-.008-.004-.012-.004-.004-.004-.008-.004-.011-.008q-.013-.004-.02-.008l-.016-.012a.03.03 0 0 1-.007-.015c0-.008-.004-.012-.004-.02a.03.03 0 0 1-.016-.008l-.016-.011c0-.004-.004-.004 0-.008h.004q.005.006.016.012l.02.011q.018 0 .03.012c.012.004.02.008.032.016q-.001.002.004.004c.004.004.012.004.015.004.004-.004.008-.004.012-.008.004-.008.004-.016.008-.024v-.02q.001-.017-.004-.023-.004-.012-.008-.02-.006-.004 0-.003c0-.004.004-.004.004 0m-.035.098c-.008-.008-.02-.012-.027-.02q-.016-.007-.032-.008-.001.006.004.012-.001.008.004.016.006 0 .012.007l.023.012q.006-.001.012.004.004.002.008.004.004-.012-.004-.024zm.07-.094q-.004.006-.007.02c-.004.003-.004.015-.004.023v.023q.004.007.007.02c.004.004.008.004.012.008.004 0 .012 0 .016-.004q.005.001.004-.004a.1.1 0 0 1 .03-.016.04.04 0 0 1 .032-.012l.02-.011.015-.012h.004c.004.004 0 .004 0 .008q-.005.006-.015.011a.03.03 0 0 1-.016.008q-.005.01-.004.02a.03.03 0 0 1-.008.015l-.015.012q-.007.004-.02.008c-.004.004-.008.004-.012.008-.004 0-.007.004-.011.004h-.008c-.004-.012 0-.02.004-.032q-.011.006-.016 0-.011 0-.015-.007-.007-.012-.008-.024-.005-.011-.004-.023c0-.012.004-.02.004-.028l.011-.02q.002-.005.004 0c.004 0 .004.005 0 .005m.09.066q-.016.001-.031.008c-.008.008-.02.012-.027.02v.003c-.004.008-.008.016-.004.024.004 0 .004-.004.008-.004q.005-.005.011-.004.013-.006.02-.012.01-.006.015-.007l.004-.016q.005-.006.004-.012m0 0" style="stroke:none;fill-rule:nonzero;fill:#000;fill-opacity:1"/><path d="M12.586 4.746c-.012 0-.02.012-.02.02 0 .011.008.023.02.023s.02-.012.02-.023c0-.008-.008-.02-.02-.02m0 .008c-.008 0-.016.004-.016.012 0 .007.008.015.016.015s.012-.008.012-.015q0-.012-.012-.012m0 .004a.01.01 0 0 0-.008.008q.001.01.008.011t.008-.011a.01.01 0 0 0-.008-.008m-.156-.012c.011 0 .02.012.02.024 0 .007-.009.02-.02.02s-.02-.013-.02-.02c0-.012.008-.024.02-.024m0 .008c.008 0 .011.008.011.016q0 .01-.011.011c-.008 0-.016-.004-.016-.011 0-.008.008-.016.016-.016m0 .004q.007 0 .008.012a.01.01 0 0 1-.008.007.01.01 0 0 1-.008-.007q.001-.012.008-.012" style="stroke:none;fill-rule:evenodd;fill:#000;fill-opacity:1"/><path d="M12.094 3.45q-.001 0-.008.003l-.047.07q-.024.007-.012.032c-.027 0-.027.02-.027.043q-.035-.052-.078-.028c0-.02-.02-.03-.043-.035a.07.07 0 0 1-.04-.012q-.006-.003-.015-.007c-.011-.008-.02 0-.015.007.027.04.05.079.078.118q-.002.012.008.02.01.016.015.034.001.006-.004.012c-.02-.008-.039-.008-.062-.008q-.022 0-.031-.011t-.008.007c0 .051.015.094.058.137-.02 0-.043.004-.062.004q-.01 0-.008.012c.012.027.035.05.078.066a.08.08 0 0 0-.031.05q.001.031-.016.044-.011.006-.004.012.038.02.086.007a.1.1 0 0 0-.015.078.1.1 0 0 0 .054-.007c0 .007-.004.02-.004.03 0 .013-.004.02-.007.032q-.006.006 0 .012c.03.008.062 0 .086-.008 0 .024 0 .043.007.066.004.004.008.008.012.004a.2.2 0 0 1 .047-.05q.005.011.016.02.016.006.015.03-.001.001.004.008c.016 0 .047-.039.055-.058.015.011.023.023.039.043q.012.003.012-.004c.007-.024.003-.047.003-.067a.16.16 0 0 0 .086 0c.008-.004.004-.008 0-.011a.05.05 0 0 1-.011-.032c0-.011-.004-.023-.004-.027.02.004.035.008.054.004.004-.031-.007-.055-.023-.082a.1.1 0 0 0 .086-.012q.007-.006-.004-.012c-.012-.004-.02-.02-.02-.039a.07.07 0 0 0-.035-.05c.043-.02.063-.043.075-.075q.002-.006-.008-.007h-.067a.2.2 0 0 0 .051-.145q-.001-.014-.008-.004-.009.012-.03.012c-.024.004-.044.004-.063.015q.001-.005-.004-.011.007-.018.015-.035c.004-.008.008-.012.004-.02l.07-.125c.004-.008-.007-.016-.015-.008q-.011.006-.016.012a.1.1 0 0 1-.043.016c-.02.003-.035.015-.035.039-.027-.016-.055-.008-.074.03-.004-.023-.008-.042-.031-.038q.01-.024-.016-.035c-.02-.02-.047-.04-.062-.063q-.007-.005-.008-.004m0 0" style="stroke:none;fill-rule:nonzero;fill:#000;fill-opacity:1"/><path d="M12.332 3.57c-.004-.004-.012 0-.016.008q-.001.013.004.02.006.001.012-.004v-.008c.004-.004.004-.016 0-.016m-.46.02q.006-.005.015.008c0 .004.004.015-.004.015q-.006.005-.012-.008c-.004-.007-.008-.015 0-.015m.421.066q-.005.001-.004.008s0 .004.004.004q.005-.001.004-.008.001-.002-.004-.004m-.375.016s-.004 0-.004.004q.001.007.008.008s.004-.004.004-.008q-.001-.005-.008-.004m.398-.043c-.07-.008-.14-.008-.21-.008q-.106.007-.208.02c-.003 0-.003.007 0 .007.07-.007.141-.015.207-.015q.107-.007.207.004c.004 0 .004-.008.004-.008m0 0" style="stroke:none;fill-rule:nonzero;fill:#f7db17;fill-opacity:1"/><path d="M11.895 3.637q.105-.019.21-.02.106-.007.211.004l.008-.02q-.001.006-.008 0c-.007 0-.007-.011-.004-.023.004-.012.016-.02.024-.015q.005.005.004.011l.039-.07c-.02.012-.027.02-.05.023q-.042.01-.036.032c.004.015-.004.011-.016.007-.03-.015-.05.008-.062.036-.004.015-.012.015-.016-.004v-.016c-.004-.023-.008-.027-.02-.02-.015.008-.015 0-.015-.007a.03.03 0 0 0 .008-.02c0-.008-.008-.008-.016-.008-.015-.023-.043-.043-.062-.066l-.047.07c-.008 0-.016.004-.016.008 0 .012.004.016.008.02.004.007.004.015-.012.007-.011-.003-.015 0-.02.02v.02q-.002.028-.015.003c-.012-.027-.035-.046-.062-.03-.012.007-.02.01-.016-.005q0-.022-.039-.027c-.023-.004-.035-.012-.055-.024l.043.063s0-.004.004-.004q.012-.006.024.012c.004.011.004.023-.004.027h-.004Zm.41.07H12.3q-.006 0-.012.012l-.02.02-.003-.005V3.73c.007-.003.015-.011.02-.015q.003-.007.007-.008c-.008-.004-.02-.004-.027-.004l-.02.012c-.004.004-.012.008-.012.012h-.004c-.003 0-.003-.004-.003-.004.003-.004.007-.012.015-.016q.006-.002.012-.004h-.031q-.004-.001-.008.004s0 .004-.004.004q.001.005-.004.004V3.71c0-.004.004-.008.004-.008h.004q-.012-.005-.024-.004v.004c-.004 0-.007.008-.007.012h-.004q-.005.001-.004-.004c0-.004.004-.004.004-.008q.002.001.004-.004h-.032c0 .004-.004.004-.004.004l-.003.004q-.005.004-.004.008h-.004c-.004 0-.004-.004-.004-.004l.008-.008V3.7q-.019.005-.032.004h-.035l.004.004.004.004v.004q-.005.006-.004 0c-.004 0-.004-.004-.004-.004q-.004-.005-.008-.004v-.004c-.011 0-.023.004-.035.004q.005-.001.004.004.005.001.004.008s.004 0 0 .004q-.005.001-.004-.004l-.004-.004c0-.004-.004-.004-.004-.008h-.004q-.008-.001-.02.004c.005 0 .005.004.009.008l-.004.004h-.004c0-.004-.004-.008-.004-.008-.004 0-.004-.004-.008-.004q-.013-.001-.031.004c.004 0 .012 0 .012.004l.015.011c0 .004.004.004 0 .004q-.005.006-.004 0l-.011-.011c-.008-.004-.016-.004-.024-.008-.008 0-.02.004-.027.004l.008.008c.008.007.015.011.02.02q.004 0 .003.003h-.004l-.023-.02-.012-.011c-.02-.008-.031-.008-.055-.012q-.018.001-.043-.004.005.013.016.02.007.01.02.015a.1.1 0 0 0 .02.035.03.03 0 0 0 .015.016.1.1 0 0 1-.016-.023q-.01-.023-.008-.04-.001-.004.004-.003v.004q.001.017.008.035a.1.1 0 0 0 .027.031c.004 0 .004.008 0 .004q-.023-.004-.035-.02c-.012-.007-.015-.02-.02-.035q-.012-.005-.019-.015a.02.02 0 0 1-.012-.02c.004.043.02.074.043.106q.011.012.028.019.013.006-.004.012h-.008a.03.03 0 0 1 .02.008c.011.007.023.015.023.023q.001.005-.004.004h-.004c0-.012-.008-.016-.015-.024l-.04-.011h-.043q.006.007.012.008l.035.011a.03.03 0 0 1 .02.008q.011.006.016.012.005.005 0 .004.001.006-.004 0l-.016-.012c-.004-.004-.012-.004-.02-.008q-.021-.001-.03-.008l-.02-.011c.02.035.043.05.082.062h.004c.007 0 .015.004.027.004.008 0 .016.004.023.004 0 0 .004 0 .004.004h-.031q-.005-.005-.016-.004h-.007c-.024.004-.04.023-.04.05q.012-.012.024-.019.018-.012.035-.008s.004 0 0 .004h-.004c-.008 0-.02 0-.027.008-.008.008-.02.016-.027.024a.1.1 0 0 1-.02.039q.011.002.016.004.01-.012.023-.012A.1.1 0 0 1 11.898 4q.002-.001.004.004c0 .004-.004.004-.004.004q-.01-.001-.023.004l-.02.008c.02.003.043 0 .06-.008q.01-.005.01-.004.012-.007.016-.008.013-.007.02-.008l.004.004c0 .004-.004.004-.004.004-.012 0-.012 0-.02.008l-.011.008-.008.007a.1.1 0 0 0-.016.028q-.004.012-.008.02a.1.1 0 0 1 .02-.028q.013-.017.031-.027l.004.004q.001.001-.004.003a.05.05 0 0 0-.027.024q-.013.016-.02.031c-.004.008 0 .004-.004.012.012-.012.02-.024.032-.031a.05.05 0 0 1 .035-.016q.005-.001.004.004c0 .004-.004.004-.004.004-.012-.004-.024.004-.035.011l-.032.036c.02.004.036-.004.051-.008.008-.004.016-.016.02-.016l.008-.008q0-.006.007-.007c0-.004.004-.004.004 0 .004 0 0 0 0 .003q-.004.001-.008.008-.006.006-.007.012h-.004c-.004.008-.012.016-.016.023-.004.02 0 .036-.008.055q.011-.006.016-.012l.012-.023c.004-.008.007-.02.015-.027q.006-.008.024-.016h.004q.001.005-.004.004l-.02.016a.1.1 0 0 0-.015.027c-.004.008-.004.016-.012.023l-.012.012h.008c.008-.004.02-.008.027-.016.004-.003.012-.011.012-.02h.004c.004 0 .004.005.004.005a.1.1 0 0 1-.016.023.03.03 0 0 1-.02.008.1.1 0 0 0 .044-.012c.007 0 .007-.015.011-.02a.03.03 0 0 0 .008-.015q.011-.006.016-.012h.004c.004.004 0 .004 0 .004l-.012.012-.012.016c.004.008-.004.02 0 .027q-.001.03.004.059.011-.013.016-.02c0-.012.004-.023.004-.031q.001-.02-.004-.031-.001-.005.004-.004.005-.001.004.004v.054c.004-.004.004-.004.004-.008a.1.1 0 0 0 .007-.023q.001-.012-.004-.023l.004-.004q.005.002.004.004v.023q.001.01-.004.02.011-.006.016-.012v-.039q-.001-.005.004-.004c.004 0 .004.004.004.004v.039c.004.008.008.02.015.023q.011.006.016.024v-.04q-.006-.018-.012-.03c0-.004-.004-.004 0-.004q.005-.006.004 0 .012.011.012.035a.2.2 0 0 1 .004.047c.008-.008.031-.028.027-.059V4.16q-.006.001 0-.004.005-.001.004.004c0 .004.004.004.004.008v.008q.005-.002.004-.004.007.005.008.004c0-.004-.004-.008-.004-.016v-.023s0-.004.004-.004l.004.004a.03.03 0 0 0 0 .023c0 .008.004.016.004.024h.003c0 .003.004.003.004.007q.001-.01-.004-.023v-.035h.008v.031c0 .012.004.024.004.031a.1.1 0 0 1 .016.02q.005-.03.004-.059c0-.008-.008-.02-.008-.027q-.004-.006-.008-.012c-.004-.008-.008-.008-.016-.012v-.003c0-.004 0 0 .004 0s.012.003.016.011q.007.006.008.012c.008 0 .008.016.015.02q.022.006.043.007a.03.03 0 0 1-.02-.007q-.009-.007-.015-.02c0-.004-.004-.004 0-.004.004-.004.004 0 .004 0q.005.013.016.02a.1.1 0 0 0 .039.007q-.011 0-.016-.007-.011-.012-.015-.024-.005-.018-.016-.023-.006-.011-.024-.016v-.004h.004a.1.1 0 0 1 .024.016c.008.004.015.015.02.023q0 .013.011.02a.03.03 0 0 0 .016.015c-.008-.02-.008-.035-.012-.054-.004-.012-.023-.028-.02-.032.004-.003.012.008.024.012a.2.2 0 0 0 .05.008.2.2 0 0 0-.034-.035q-.018-.013-.036-.008s-.004 0-.004-.004q.002-.005.004-.004.018 0 .036.012.015.011.03.027c0-.004 0 0-.003-.008a.1.1 0 0 0-.02-.03l-.03-.024s-.005 0 0-.004h.003c.012.004.023.016.031.023.008.008.016.02.02.028a.03.03 0 0 0-.008-.02.05.05 0 0 0-.02-.027c-.004-.004-.02-.012-.02-.016l-.003-.004q-.011-.002-.016-.004h-.004q.002-.005.004-.004c.004 0 .012 0 .016.004.004 0 .008.004.012.004q.006.001.02.008.027.014.062.004-.012-.001-.024-.008c-.008 0-.015-.004-.023-.004 0 0-.004 0-.004-.004h.004c.008 0 .02 0 .027.004q.012.001.024.008.005.004.015-.004a.04.04 0 0 1-.02-.035l-.03-.023c-.012-.004-.02-.008-.032-.004h-.004q-.001-.005.004-.004a.04.04 0 0 1 .035.004.1.1 0 0 1 .024.02v-.005a.043.043 0 0 0-.043-.043c-.004 0-.016.004-.016-.004q.001-.003.02-.007a.12.12 0 0 0 .078-.067l-.02.012q-.009.006-.03.012l-.02.007c-.008.004-.012.012-.016.016h-.004v-.004c.004-.004.008-.012.016-.015.007-.004.011-.008.023-.008q.02-.006.031-.012l.012-.012c-.016 0-.031.004-.043.004a.1.1 0 0 0-.039.016c-.008.008-.016.012-.016.02q.001.004-.004.003-.005.001 0-.004.001-.01.02-.023.007-.006.02-.012h-.008q-.017-.001-.004-.008c.008-.003.015-.015.023-.023a.17.17 0 0 0 .035-.106q0 .007-.007.02l-.02.016q-.005.023-.016.035a.06.06 0 0 1-.035.023s-.004-.004 0-.004a.1.1 0 0 0 .024-.035c.004-.012.008-.023.004-.035 0 0 0-.004.004-.004q.004-.001.003.004.002.02-.007.04-.005.01-.016.023.013-.005.02-.016.01-.012.011-.035l.004-.004c.008 0 .016-.008.02-.012l.011-.023q-.023.009-.043.007a.1.1 0 0 0-.05.02m0 0" style="stroke:none;fill-rule:nonzero;fill:#f7db17;fill-opacity:1"/><path d="M12.297 3.688a2 2 0 0 0-.188 0 2 2 0 0 0-.191.015v.004q0 .005.012.004c.058-.008.117-.016.175-.016q.093-.006.192 0c.004 0 .008-.007 0-.007m0 0" style="stroke:none;fill-rule:nonzero;fill:#f7db17;fill-opacity:1"/><path d="M11.922 3.695q.094-.01.187-.015c.063-.004.125 0 .188.004v-.012h-.004c-.004 0-.012-.004-.012-.008s.004-.012.008-.012c.004-.004.012 0 .016.004l.004-.015c-.067-.004-.133-.008-.204-.004a2 2 0 0 0-.199.02l.004.015q.004-.007.008-.008.012 0 .012.012-.001.012-.008.011h-.004Zm.281-.047q-.012 0-.012.012c0 .004.004.012.012.012q.012-.005.012-.016c0-.004-.008-.008-.012-.008m0 .004q-.005.001-.004.008s0 .004.004.004.004-.004.004-.004q.001-.007-.004-.008m-.101-.004c-.004 0-.012.004-.012.012s.008.012.012.012c.007 0 .011-.008.011-.012q0-.012-.011-.012m0 .004c-.004.004-.004.004-.004.008s.004.004.004.004q.006.001.007-.004a.01.01 0 0 0-.007-.008m-.098.004q-.006-.001-.012.004-.001.006.004.012.001.005.008.004.012 0 .012-.012 0-.007-.012-.008m0 .004q-.005.001-.004.008-.001.002.004.004.005-.001.004-.008s0-.004-.004-.004" style="stroke:none;fill-rule:evenodd;fill:#f7db17;fill-opacity:1"/><path d="m12.105 3.578-.011-.015a.03.03 0 0 0-.016-.008q-.005-.001-.004-.008.011 0 .016-.012a.1.1 0 0 0 .008-.023q.001-.006.007 0c0 .008.004.011.008.02l.02.011c.004 0 0 .004 0 .004q-.011.006-.016.012-.004.006-.008.02c0 .003-.004.003-.004 0m0-.012q.004-.005.008-.011.004-.007.008-.008l-.012-.012q-.004-.006-.007-.012-.001.011-.008.016-.001.006-.008.012.006.001.012.008.007 0 .007.007m.094.477-.047.023q-.005 0-.004-.003c-.003-.004 0-.004 0-.004l.047-.02q.005-.006.004 0c.004.004 0 .004 0 .004m.004-.031-.055.035q-.001.001-.003-.004c-.004 0 0-.004 0-.004l.054-.031s.004-.004.004 0c.004.004 0 .004 0 .004m-.168 0 .055.031q.005-.001.004.004-.004.006-.008 0l-.055-.027q-.005.001-.004-.004.004-.005.008-.004m.004.031.05.02v.003c0 .004-.003 0-.003 0l-.047-.015q-.005.001-.004-.004c0-.004.004-.004.004-.004m.024.039a.1.1 0 0 0 .03.004q.014-.005.02-.016l-.004-.047h-.027q-.016-.005-.02-.02a.03.03 0 0 1 0-.026q-.001-.005.004-.004c.004 0 .004.004 0 .004 0 .007 0 .02.004.027 0 .004.008.008.012.012.012 0 .02.004.031 0 .008 0 .02 0 .028-.004.007 0 .011-.008.015-.012a.03.03 0 0 0 .008-.016c-.004-.004-.004-.007-.008-.007 0-.004-.008-.004-.011-.004q-.006-.001-.012.004h-.008s-.004 0-.004-.004q-.001-.005.004-.004h.008c.004 0 .008-.004.012-.004q.01.002.015.004.007.006.008.011c.004.008 0 .016-.004.024q-.007.011-.02.016c-.007.003-.019.003-.027.003l.004.047q.005.012.016.012.012.004.035-.004l.004.004q.001.005-.004.004a.1.1 0 0 1-.035.004.02.02 0 0 1-.02-.012.02.02 0 0 1-.02.012.05.05 0 0 1-.034 0q-.005.001-.004-.004-.001-.005.004-.004m.03.02.04-.004s.004 0 .004.004q.001.004-.004.003l-.035.004q-.005.001-.004-.004zm.047-.29a.1.1 0 0 1 .035-.03c.015-.009.023-.012.035-.012q.002 0 .004.003c0 .004-.004.004-.004.004a.1.1 0 0 0-.031.012c-.012.004-.024.016-.035.027 0 0-.004.004-.004 0q-.006-.004 0-.003m-.059.004q-.02-.017-.039-.027-.023-.007-.035-.008h-.004q-.001-.005.004-.004c.008-.004.023 0 .035.008.016.004.031.016.047.027v.004q-.004.006-.008 0m-.016.098.012-.023q.011-.008.016-.016h.008q.001.005-.004.004-.006.011-.012.016l-.012.02q.001.004-.004.003c-.004 0-.004-.004-.004-.004m.032-.164a.03.03 0 0 1 .007.02q.007.01.008.027v.023q-.004.012-.008.024c-.003.004-.011.008-.015.011h-.016q.006.011 0 .028s0 .004-.004 0c-.004 0-.008-.004-.011-.004q-.006-.002-.012-.004l-.035-.02c-.004-.003-.008-.011-.012-.015v-.02a.03.03 0 0 1-.02-.007l-.015-.012s-.004-.004 0-.004q.005-.006.004 0c.004.004.008.004.015.008q.007.006.02.011.018.001.035.008c.008.004.02.012.027.02h.004l.004.004h.012c.004-.004.008-.004.012-.008q.007-.012.007-.024v-.02q-.002-.016-.003-.023l-.012-.02V3.75q.004-.006.008 0m-.032.098c-.011-.004-.02-.012-.03-.016a.1.1 0 0 0-.028-.008v.012c0 .004.004.012.008.012l.011.011c.008.004.012.004.024.008h-.004a.03.03 0 0 0 .015.004q.001.005.008.004.001-.012-.004-.023zm.067-.098-.008.02q-.005.01-.004.027c0 .008 0 .012.004.02a.03.03 0 0 0 .008.019q.006.007.012.008h.011l.004-.004h.004a.1.1 0 0 1 .027-.02.06.06 0 0 1 .036-.011c.003-.004.011-.008.015-.012q.011-.006.016-.012-.001-.006.004 0c.004 0 0 .004 0 .004q-.005.006-.016.012c-.004.004-.012.008-.016.011q0 .011-.003.016c0 .008-.004.012-.008.02q0 .006-.012.011l-.02.012q-.005-.001-.011.004-.006.001-.012.008c-.004 0-.004 0-.008-.004-.004-.008 0-.02 0-.027h-.015c-.004 0-.012-.004-.016-.012a.03.03 0 0 1-.008-.02q-.005-.01-.004-.023c0-.012.004-.02.004-.027.004-.008.004-.016.012-.02q-.001-.005.004-.004c.004.004 0 .004 0 .008Zm.09.066a.1.1 0 0 0-.028.008c-.011.008-.02.012-.03.02v.004c0 .007-.005.015 0 .023q0 .001.007-.004c.004 0 .008-.004.012-.004l.02-.011.01-.012c.005-.004.005-.008.009-.012zm0 0" style="stroke:none;fill-rule:nonzero;fill:#000;fill-opacity:1"/><path d="M12.191 3.82c-.011 0-.02.012-.02.024 0 .011.013.02.024.02.008 0 .02-.012.016-.024 0-.008-.008-.02-.02-.02m0 .008c-.007 0-.011.008-.011.016s.008.011.015.011q.012-.001.012-.015c0-.008-.008-.012-.016-.012m0 .004q-.007 0-.007.012 0 .007.011.008.007 0 .008-.012 0-.007-.012-.008m-.156-.004q.019.001.02.02c.004.011-.008.02-.016.02-.012 0-.023-.009-.023-.02 0-.008.007-.02.02-.02m0 .008c.007 0 .015.004.015.012a.02.02 0 0 1-.016.015c-.004 0-.012-.008-.012-.015q0-.012.012-.012m0 .004q.007.001.008.008.002.006-.008.007a.01.01 0 0 1-.008-.007q.001-.007.008-.008" style="stroke:none;fill-rule:evenodd;fill:#000;fill-opacity:1"/><path d="M12.91 3.45q-.004 0-.008.007c-.02.02-.035.04-.054.063q-.026.009-.016.03c-.023 0-.027.02-.027.044-.024-.04-.047-.047-.075-.035 0-.02-.02-.032-.039-.036a.1.1 0 0 1-.043-.015q-.004-.006-.015-.012c-.012-.008-.02 0-.016.008q.036.06.07.125c0 .008 0 .012.008.02l.012.035c0 .003-.004.007-.004.011-.02-.011-.039-.011-.062-.015-.016 0-.024-.004-.032-.012-.004-.008-.007-.004-.007.004a.2.2 0 0 0 .05.144h-.066q-.01.001-.008.008c.012.031.031.055.074.074a.07.07 0 0 0-.035.047c0 .024-.008.035-.02.043q-.01.006-.003.012.034.024.082.012a.1.1 0 0 0-.02.078c.02.008.035.004.055 0 0 .004-.004.015-.004.027-.004.012-.004.02-.012.031-.004.004-.008.008 0 .012a.16.16 0 0 0 .086-.004.14.14 0 0 0 .004.07c0 .004.004.008.012.004.015-.02.031-.039.05-.046q0 .011.012.02c.008.003.016.015.016.03 0 .004-.004.008 0 .012.016 0 .05-.035.059-.055.02.012.023.024.039.043.004.008.007.004.011 0q.01-.034.008-.07a.13.13 0 0 0 .086.008q.006-.001 0-.008-.01-.018-.008-.035-.005-.017-.004-.027a.1.1 0 0 0 .055.007.13.13 0 0 0-.016-.082q.048.019.086-.004.007-.005-.004-.011-.016-.013-.015-.043a.08.08 0 0 0-.031-.051.13.13 0 0 0 .078-.07q.002-.007-.008-.008-.03-.005-.066-.004c.043-.047.062-.09.062-.14q-.001-.014-.008-.009-.012.012-.035.012c-.02.004-.039.004-.059.012l-.003-.012c.003-.011.011-.023.015-.035q.013-.007.008-.02c.027-.039.05-.078.078-.12.004-.004-.004-.012-.015-.004a.03.03 0 0 0-.016.007.07.07 0 0 1-.04.012c-.023.004-.042.016-.042.035-.027-.015-.05-.008-.078.028 0-.024 0-.043-.024-.043.008-.016 0-.028-.015-.036-.016-.023-.043-.043-.059-.066q-.005-.007-.004-.008m0 0" style="stroke:none;fill-rule:nonzero;fill:#000;fill-opacity:1"/><path d="M13.137 3.59a.03.03 0 0 0-.016.008q-.007.011.004.02.007.003.008-.005l.004-.004q.006-.012 0-.02m-.461-.016c.004-.004.011 0 .011.008q.006.013 0 .02-.005 0-.011-.012c-.004-.008-.008-.016 0-.016m.414.102s-.004 0-.004.004q-.001.005.004.004.007.001.008-.004-.001-.005-.008-.004m-.371-.016q-.007-.001-.008.004.001.007.008.008.005-.001.004-.008s0-.004-.004-.004m.398-.015q-.105-.013-.21-.02-.101-.001-.208.004c-.004 0-.004.008 0 .008q.106-.005.207-.004.104.007.207.02c.004.003.004-.005.004-.008m0 0" style="stroke:none;fill-rule:nonzero;fill:#f7db17;fill-opacity:1"/><path d="M12.695 3.621a2 2 0 0 1 .211 0q.105.001.211.02l.012-.016q-.007.001-.008-.004c-.008-.004-.008-.016-.004-.023.004-.012.016-.016.024-.012q.005.001.004.008l.046-.067c-.02.012-.03.02-.054.024q-.042.002-.035.027-.001.017-.02.004c-.031-.02-.05.004-.062.031-.008.016-.016.016-.016-.004v-.02q-.001-.029-.02-.019c-.015.008-.015 0-.011-.007a.03.03 0 0 0 .007-.02q-.002-.01-.015-.008c-.016-.023-.04-.047-.059-.07l-.05.062c-.008 0-.016.004-.016.012-.004.008.004.012.008.02 0 .007 0 .011-.016.003-.012-.003-.016 0-.02.02v.02c-.003.02-.011.02-.015 0-.012-.024-.031-.047-.063-.036-.011.008-.02.012-.015-.003q.006-.025-.035-.032a.1.1 0 0 1-.051-.023l.035.062.004-.004c.008-.003.02.004.023.016.004.008 0 .02-.004.023h-.004Zm.403.102q-.005.006-.016.011c-.004.008-.012.012-.02.02l-.003-.004v-.004q.012-.005.02-.016.006-.003.007-.007-.012-.002-.024-.004c-.007.004-.015.004-.023.008l-.012.011s-.004.004-.004 0q-.004.001 0-.004c0-.004.008-.007.012-.011q.006-.005.012-.004-.013-.005-.031-.004s-.004 0-.004.004c-.004 0-.004.004-.004.004q-.005.006-.004 0-.005.001-.004-.004c.004 0 .004-.004.008-.004V3.71h-.024q-.004.006-.007.012s0 .004-.004 0q-.006.001 0-.004s0-.004.004-.008q-.013-.005-.032-.004c-.004.004-.004.004-.008.004q-.002.004-.003.008s0 .004-.004 0c-.004 0 0-.004 0-.004q.002-.001.004-.008h.004-.036q-.016-.005-.03-.004v.004q.003.001.007.008l-.004.004s-.004 0-.004-.004c0 0 0-.004-.004-.004-.004-.004-.004-.004-.004-.008h-.034l.003.004q-.001.004.004.008.001.002-.004.004s-.004 0-.004-.004c0 0 0-.004-.004-.004 0-.004 0-.004-.004-.008h-.023l.004.004.004.004v.004q-.005.006-.004 0c-.004 0-.004-.004-.008-.004 0-.004 0-.004-.004-.008q-.016-.001-.031.004c.004 0 .008.004.012.004.003.004.011.008.011.016q.006 0 0 .003h-.004l-.011-.015q-.012-.007-.024-.008h-.023q.001.006.008.012l.015.015c.004 0 .004.004.004.004q-.005.006-.004 0l-.02-.015c-.003-.004-.011-.012-.011-.016a.3.3 0 0 0-.055-.016q-.018.002-.043-.007l.012.02q.007.009.02.015v.004q.004.023.015.035c.004.008.012.012.016.015-.004-.007-.012-.015-.012-.023-.008-.016-.008-.027-.008-.04q-.001-.004.004-.003.005-.001.004.004-.004.018.004.035c.004.012.016.024.027.035l-.004.004a.06.06 0 0 1-.035-.023c-.008-.008-.011-.024-.015-.04q-.013-.002-.02-.015l-.012-.02a.2.2 0 0 0 .04.11c.003.008.015.015.023.02.008.003.008.011-.004.011h-.008c.008.004.016.004.02.008.011.008.02.02.02.027v.004q-.006.001-.005-.004c0-.008-.008-.015-.015-.02-.012-.007-.028-.011-.04-.015q-.021-.005-.042-.004.006.007.011.008.013.008.032.016.01.001.023.007c.004.004.012.008.016.016v.004h-.004c-.004-.008-.012-.012-.016-.016q-.007-.004-.02-.007-.021-.006-.03-.012l-.02-.012q.022.05.074.067h.008a.1.1 0 0 0 .023.007q.012.002.024.004.005-.001.004.004.001.005-.004.004-.012-.004-.024-.008-.007.001-.015-.004-.006.005-.012.004c-.02 0-.04.02-.04.043v.004a.1.1 0 0 1 .024-.02q.018-.012.036-.007l.003.004-.004.004c-.011-.004-.019 0-.03.003-.012.004-.02.016-.032.024a.05.05 0 0 1-.02.035.03.03 0 0 0 .016.004.1.1 0 0 1 .024-.008.1.1 0 0 1 .027-.008s.004 0 .004.004-.004.004-.004.004q-.012-.001-.024.004c-.007.004-.015.004-.023.008q.034.004.063-.004.01-.005.011-.004l.02-.008q.008-.005.015-.004s.004 0 .004.004h-.004l-.02.008c0 .004-.007.004-.01.008q-.007.004-.013.008a.1.1 0 0 0-.015.027.03.03 0 0 0-.008.02q.007-.017.02-.028a.06.06 0 0 1 .03-.023c.005 0 .005-.004.005 0 .004.004 0 .004 0 .004a.06.06 0 0 0-.032.023.1.1 0 0 0-.02.031c-.003.004-.003 0-.007.008l.031-.027c.016-.008.028-.016.04-.012q.004-.001.003.004.001.005-.004.004-.017-.005-.035.008a.3.3 0 0 0-.035.031q.029.004.05-.004l.024-.016.004-.003q.006-.007.012-.008-.001-.006.004 0v.004q-.006.001-.012.008-.001.005-.008.011a.1.1 0 0 0-.02.024c-.003.02-.003.03-.011.05q.011-.005.016-.011c.004-.004.011-.012.011-.02a.04.04 0 0 1 .02-.023c.004-.008.016-.016.023-.016 0 0 .004-.004.004 0q.001.005-.004.004-.012.005-.02.016-.009.006-.015.02-.005.016-.015.023-.005.005-.016.011h.012c.007 0 .02-.004.027-.007q.011-.01.016-.02-.001-.005.004-.004c.003.004 0 .004 0 .004-.004.012-.008.016-.016.023-.004.004-.012.004-.02.008a.1.1 0 0 0 .043-.008c.008-.003.012-.015.016-.02a.03.03 0 0 1 .008-.015l.015-.011s.004 0 .004.003v.004q-.01.001-.015.008-.004.005-.008.016c0 .008-.008.02-.008.027q-.001.03.004.059c.004-.008.012-.012.016-.02q.005-.015.004-.031a.04.04 0 0 0 0-.031s0-.004.003-.004c.004 0 .004.004.004.004v.031q-.002.011-.004.027c.004-.008.004-.008.008-.011q.004-.013.008-.02.001-.012-.004-.023s0-.004.004-.004q.005-.001.004.004v.023c0 .004-.004.012-.004.02q.005-.006.016-.012v-.024c0-.003 0-.011.004-.015q0-.005.003-.004c.004 0 .004.004.004.004-.004.004-.004.012-.004.015v.024c0 .008.004.02.012.023a.1.1 0 0 1 .016.028c0-.016.004-.028 0-.04a.1.1 0 0 0-.008-.035v-.003h.004c.008.011.008.023.012.039q.001.017-.004.046c.011-.007.035-.023.035-.054q.001-.007-.004-.008s0-.004.004-.004h.004v.012q.005.004.004.008l.004-.004q.001.002.007.004-.005-.008-.004-.016v-.023q.005-.002.004-.004l.004.004q-.005.01-.004.023.004.012.008.023c0 .004.004.004.004.008v-.023q-.001-.018.004-.035.005-.001.004.004c0 .007-.004.02 0 .03v.032q.005.007.016.02a.3.3 0 0 0 .007-.059c0-.008-.007-.023-.007-.027q-.001-.011-.008-.016l-.012-.012s-.004 0 0-.004h.004l.012.012q.006.005.011.016c.004 0 .004.015.012.02a.1.1 0 0 0 .043.011c-.008-.004-.016-.004-.02-.012q-.01-.006-.015-.02-.001-.004.004-.003c0-.004 0 0 .004 0q0 .012.011.02a.1.1 0 0 0 .036.015q-.006-.005-.012-.016-.012-.005-.012-.023-.005-.012-.015-.024L13 4.09q-.005.001-.004-.004H13q.018.005.023.016a255.909 255.909 0 0 1 .027.05l.016.012c-.007-.02-.004-.035-.007-.055-.004-.011-.024-.027-.02-.03.004-.005.012.007.024.01a.1.1 0 0 0 .05.013.2.2 0 0 0-.035-.036c-.008-.007-.02-.015-.031-.011 0 0-.004 0-.004-.004s.004-.004.004-.004q.018-.001.035.016.017.01.027.027v-.008a.1.1 0 0 0-.02-.031.1.1 0 0 0-.027-.024q-.004-.004-.003-.007h.004q.018.01.03.027c.009.008.012.02.02.027l-.008-.02a.1.1 0 0 0-.015-.027c-.004-.007-.02-.015-.02-.02h-.004q-.01-.006-.015-.007s-.004 0-.004-.004h.004q.008.002.015.004c.004.004.008.004.012.008q.007.001.02.008c.015.007.039.011.058.007q-.006-.003-.02-.007c-.007-.004-.015-.004-.023-.008h-.004c0-.004.004-.004.004-.004q.011.001.028.008.01.001.023.008.005.003.016-.004-.016-.012-.02-.036a.2.2 0 0 0-.027-.023q-.016-.013-.031-.008l-.004-.004h.004c.011-.004.023 0 .035.004l.023.024v-.004a.046.046 0 0 0-.039-.047c-.008 0-.016.004-.016-.004q.001-.004.02-.008a.11.11 0 0 0 .082-.058q-.01.006-.02.007l-.03.012c-.009.004-.016.004-.024.008l-.012.012c-.004 0-.004.004-.008 0v-.004l.02-.012a.03.03 0 0 1 .02-.008l.034-.012q.006-.003.012-.007h-.043l-.039.011c-.008.008-.015.012-.02.02v.004q-.004.001-.003-.004.001-.018.02-.024l.023-.011h-.008q-.017-.001-.004-.008c.008-.004.02-.012.023-.02a.2.2 0 0 0 .047-.105l-.011.02q-.007.01-.02.015c-.004.012-.008.027-.02.035q-.01.016-.035.02s-.004-.004 0-.004q.017-.016.028-.031.007-.018.008-.036v-.003q.004 0 .003.003.002.017-.007.04c-.004.007-.012.015-.016.02.004 0 .012-.009.016-.013a.1.1 0 0 0 .02-.035v-.004a.02.02 0 0 0 .019-.011q.006-.01.011-.02-.018.005-.043.004a.1.1 0 0 0-.05.012m0 0" style="stroke:none;fill-rule:nonzero;fill:#f7db17;fill-opacity:1"/><path d="M13.094 3.707c-.063-.012-.125-.016-.188-.02-.062 0-.129 0-.191.004-.004 0 0 .004 0 .004q-.002.005.008.004.091-.006.18 0 .093-.001.187.016c.004 0 .008-.008.004-.008m0 0" style="stroke:none;fill-rule:nonzero;fill:#f7db17;fill-opacity:1"/><path d="M12.715 3.684q.098-.006.191 0 .094 0 .188.02l.004-.013h-.008q-.006 0-.012-.011c0-.004.004-.012.012-.012q.006.001.012.008l.007-.016a2 2 0 0 0-.203-.02q-.099-.003-.203.005l.004.011c.004 0 .008-.004.012-.004.008 0 .011.008.011.012 0 .008-.007.012-.011.012h-.004l.004.008Zm.289-.028c-.008 0-.012.008-.016.012 0 .008.008.012.012.012q.012 0 .012-.012c0-.004-.004-.012-.008-.012M13 3.664s-.004 0-.004.004.004.008.004.008a.01.01 0 0 0 .008-.008s-.004-.004-.008-.004m-.098-.012q-.01 0-.011.012c0 .004.004.012.011.012.004 0 .012-.008.012-.012q0-.012-.012-.012m0 .004a.01.01 0 0 0-.007.008s.003.004.007.004.004-.004.004-.004q.001-.007-.004-.008m-.097-.008q-.006.001-.012.008-.006.006 0 .012.001.005.008.004.012 0 .011-.012c0-.004-.003-.012-.007-.012m0 .008q-.007-.001-.008.004.001.007.008.008.002-.001.004-.008z" style="stroke:none;fill-rule:evenodd;fill:#f7db17;fill-opacity:1"/><path d="M12.91 3.582c-.004-.008-.004-.012-.012-.016-.003-.007-.007-.007-.015-.011-.004 0-.004-.004 0-.004.004-.004.012-.008.015-.012q.007-.012.008-.023c0-.004.008-.004.008 0q.001.009.008.02l.02.01s0 .009-.005.009q-.005.001-.011.007-.006.007-.012.02-.002.006-.004 0m.004-.012q.001-.006.008-.011.001-.007.008-.008l-.012-.012q-.004-.006-.008-.012a.03.03 0 0 1-.008.016q-.004.007-.007.008.005.004.011.008.001.005.008.011m.055.485-.051.015-.004-.004.004-.003.047-.016h.004c.004.004 0 .004 0 .008m.008-.032-.059.028s-.004.004-.004 0c-.004-.004 0-.004 0-.008l.059-.027s.004 0 .004.004zm-.172-.011.054.031q.005-.001.004.004-.004.005-.008.004l-.054-.035v-.004q.005-.006.004 0m.004.027.046.024q.005 0 .004.003-.005.006-.004 0l-.046-.02q-.005 0-.004-.003.002-.005.004-.004m.02.043a.1.1 0 0 0 .034.004q.011 0 .016-.012l.004-.047c-.012 0-.02-.004-.028-.004q-.015-.005-.02-.02c-.003-.007 0-.023 0-.03 0 0 0-.004.005 0q.005-.001.004.004-.006.01 0 .027 0 .006.011.012c.008.004.02.004.028.004q.016.001.031-.004.011-.001.016-.008c.004-.008.008-.012.008-.02 0 0-.004-.004-.004-.008q-.006 0-.012-.003l-.016.003h-.008l-.003-.003q.002-.005.003-.004h.024c.004 0 .012 0 .015.004q.004.005.008.011-.001.012-.008.024c-.007.004-.015.011-.023.011q-.011.005-.027.004v.047q.005.012.015.012a.05.05 0 0 0 .036 0q.002-.001.003.004t-.004.004c-.011 0-.023.004-.035 0a.02.02 0 0 1-.02-.012c-.003.008-.01.008-.019.012q-.017.001-.035-.004c-.004 0-.004-.004-.004-.004 0-.004.004-.004.004-.004m.03.02h.04q.002 0 .003.003c0 .004-.004.004-.004.004h-.039s-.004 0-.004-.004zm.067-.286a.3.3 0 0 1 .043-.027.1.1 0 0 1 .031-.008q.005-.001.004.004c0 .004-.004.004-.004.004-.008 0-.02 0-.031.008-.012.004-.024.015-.04.023q0 .006-.003 0zm-.055.004q-.02-.021-.039-.03a.1.1 0 0 0-.035-.013s-.004 0-.004-.004c0-.003.004-.003.004-.003q.017 0 .039.011.02.013.039.031c0 .004.004.004 0 .008zm-.023.094.011-.023.02-.012q-.001-.006.004 0v.004a.03.03 0 0 0-.016.015c-.008.004-.012.012-.015.016q.001.005-.004.004zm.039-.164.011.023c0 .008.004.016 0 .028v.02q0 .017-.007.023-.011.012-.016.011h-.016c0 .008.004.02 0 .028-.004 0-.004.004-.007 0-.004 0-.008-.004-.012-.004-.004-.004-.008-.004-.012-.008l-.02-.012-.015-.011q-.004-.005-.008-.016v-.016q-.011-.005-.015-.011l-.016-.012c0-.004-.004-.004 0-.008q.005-.001.004.004l.015.012c.004.004.012.008.016.011q.018 0 .035.012.017.007.028.02h.003l.004.004h.012q.006-.001.012-.008a.03.03 0 0 0 .008-.02q.005-.01.004-.023.001-.012-.004-.024c0-.007-.004-.011-.008-.02 0 0-.004 0 0-.003zm-.04.098c-.007-.008-.015-.012-.027-.02a.1.1 0 0 0-.027-.008v.012q.001.006.008.012 0 .006.011.011.007.006.02.012c.004 0 .008.004.012.004q.004.002.008.004c.003-.008 0-.016 0-.023 0 0 0-.004-.004-.004m.079-.09c-.004.004-.008.012-.012.015q-.005.011-.004.028v.02q.001.01.008.023c.004.004.008.004.012.008q.006.001.011-.004h.004l.032-.02q.017-.007.035-.008.012-.006.02-.011c.003-.004.011-.008.015-.012h.004v.008c-.004.004-.012.007-.016.011q-.007.004-.02.008v.016q-.005.011-.011.015l-.012.012-.023.012q-.006-.001-.012.004c-.004 0-.008.004-.012.004h-.004a.04.04 0 0 1 0-.032.01.01 0 0 1-.015 0 .03.03 0 0 1-.016-.007.1.1 0 0 1-.008-.024v-.023c0-.012.004-.02.004-.028l.012-.02q.004-.005.008 0zm.082.07a.1.1 0 0 0-.028.008.1.1 0 0 0-.03.016v.003q-.006.012-.005.024.004.001.008-.004c.004 0 .008-.004.012-.004.012-.004.015-.004.023-.008L13 3.852q.004-.006.008-.012zm0 0" style="stroke:none;fill-rule:nonzero;fill:#000;fill-opacity:1"/><path d="M12.98 3.832c-.011 0-.023.008-.023.02q.001.018.02.02.018-.002.02-.02c0-.012-.009-.02-.017-.02m0 .004a.02.02 0 0 0-.015.016q0 .01.012.011c.007.004.015-.004.015-.011 0-.008-.008-.016-.012-.016m-.003.008a.01.01 0 0 0-.008.008q.001.006.008.007a.01.01 0 0 0 .007-.007q.005-.007-.007-.008m-.157-.02c.012 0 .02.012.02.024q-.001.018-.02.02-.018-.007-.02-.024c0-.012.012-.02.02-.02m0 .008c.008 0 .016.008.016.016 0 .007-.008.011-.016.011q-.011-.002-.011-.015t.011-.012m0 .004q.007 0 .008.012a.01.01 0 0 1-.008.007q-.007 0-.008-.011.001-.007.008-.008" style="stroke:none;fill-rule:evenodd;fill:#000;fill-opacity:1"/><path d="m15.125 3.758-.754-.871-.984.574-.168 2.02q.715.06 1.414.238Zm0 0" style="stroke:none;fill-rule:nonzero;fill:#171796;fill-opacity:1"/><path d="M13.582 3.879a.12.12 0 0 1 .102.012.06.06 0 0 1 .03.023.14.14 0 0 1 .048-.031.16.16 0 0 1 .07-.04.3.3 0 0 1 .105-.034h.11q.047 0 .09.023l.078.04q.045.027.086.038a.34.34 0 0 0 .176.02q.03-.007.007.015c-.129.082-.23.008-.316-.023l.082.066q.038.052.137.098c.058.031.129.039.195.027l.016.004-.004.02a.2.2 0 0 1-.102.027.4.4 0 0 1-.203-.05 1 1 0 0 1-.129-.094.3.3 0 0 0-.117-.06.3.3 0 0 0-.113 0q.017.006.023.017.025.018.078.02.023 0-.02.03a.08.08 0 0 1-.062.032c-.039.023-.05.007-.066-.008q-.001.013-.008.031v.016l.008.027q.001.011.008.016a.04.04 0 0 1 .011.027q0 .017.012.016l.024.023c.019.012.035.027.039.047a.05.05 0 0 1 .027.035q.012.001.023.02l.102.003a.11.11 0 0 1 .078.047h.047l.05-.011h.09a.1.1 0 0 1 .047.03c.02.017.043.017.07.009a.1.1 0 0 1 .094 0l.04-.008q.022-.017.039-.016.04-.011.035.032 0 .01-.012.015-.017.031-.05.027-.008.025-.02.032.015.052-.028.047 0 .016-.023.015-.014.025-.04.02l.017.023c.015.031-.008.043-.032.043v.047q.04.023.008.047.023.042-.02.062 0 .029-.011.04-.018.01-.012.023.017.035-.008.047l-.008.004-.007.008-.059.043h-.008a.4.4 0 0 1-.07.093q.001.03-.04.043l-.01.016q.024.016.007.039l-.05.031q-.06.017-.079-.008-.018-.016 0-.027-.039 0-.031-.027 0-.011.012-.004a.07.07 0 0 0 .039-.012l.02-.023q.003-.04.042-.051a.12.12 0 0 0 .055-.047l.035-.059-.012-.03-.02-.024c-.019 0-.027-.004-.027-.02h-.011q-.017.01-.028.008l-.043.039c-.008.016-.015.02-.027.02-.04.007-.059.05-.078.07q-.011.005-.016.027 0 .041-.015.04h-.032q.018.017 0 .034-.007.017-.03.016l-.063-.008q-.019-.01-.02-.027-.018-.007-.012-.02-.001-.012.016-.007l.023-.008a.2.2 0 0 1 .07-.055l.028-.027a.08.08 0 0 1 .04-.059l.003-.023v-.012q-.011-.017-.004-.04v-.023q-.063.03-.062-.003-.029.022-.04 0a.07.07 0 0 1-.046.003l-.032.008-.015.028q-.001.03-.02.058l-.027.063-.004.02q-.001.033-.02.038l-.015.032v.007a.04.04 0 0 1-.008.04l-.039.023h-.04q-.016-.018-.01-.024h-.02l-.016-.011q-.007-.013.004-.02l.035-.023q-.001-.011.016-.016.012-.026.023-.027l.028-.059c.003-.008.007-.012.003-.02l.004-.011s.008-.004 0-.008a.04.04 0 0 1 .008-.047c.012-.015.024-.054.012-.078v-.031h-.012c-.008-.004-.015-.004-.023.008l-.016.023c-.004.035-.02.055-.039.063v.046q-.001.029-.008.028-.006 0-.02.023l-.003.012q.015.016-.004.039a.09.09 0 0 1-.086.012q-.034-.019-.027-.032c-.032 0-.028-.027 0-.035a.14.14 0 0 0 .074-.058q0-.049.027-.055-.001-.03.016-.055a.07.07 0 0 0 .008-.05q-.024-.017 0-.04.006 0 0-.007-.018-.007-.012-.02.005-.018-.008-.008-.03-.009-.008-.03c.004 0 .004-.009 0-.016l-.004-.016q-.017-.012 0-.035l-.015-.032q-.041 0-.024-.035l.028-.023q.012-.02.007-.031c-.007-.024.02-.04.04-.055l-.004-.016c-.012-.015-.008-.027.004-.035l-.004-.02q-.044.01-.016-.038-.032-.018.02-.059v-.016l-.04.012a.04.04 0 0 1-.035.004l-.015-.016-.008-.023c-.04 0-.043-.027-.024-.04q.02-.016.028-.034a.2.2 0 0 1 .05-.063v-.02l-.027-.011-.023-.027q-.006.001 0-.016-.03-.022-.012-.04" style="stroke:none;fill-rule:nonzero;fill:#000;fill-opacity:1"/><path d="M14.238 4.828h-.008l-.03.027q-.019-.005-.009.004l-.007.008q-.001.017-.02.016h-.004v-.028l-.004.016v.016c-.027.02-.054.039-.074.07l-.016.031c0 .008 0 .035-.011.035h-.008q.001-.004-.016 0h-.039c-.008.008.016.008.028.012.003.004.007.012.003.02-.007.027-.07.02-.09.008a.03.03 0 0 1-.007-.02h.011a.03.03 0 0 0 .02-.008v-.004h-.047.008l.027-.011a.2.2 0 0 1 .075-.055l.03-.027c.005-.024.012-.047.032-.063l.012-.027v-.012q-.017-.022-.004-.04v-.034l.031-.024v.032l-.008.011v.012-.012l.012-.008.027-.015.028-.024v.04l-.024.027v.004h.004l.02-.028.039-.023v.039Zm0 0" style="stroke:none;fill-rule:nonzero;fill:#f7db17;fill-opacity:1"/><path d="m13.633 4.473.008-.008.015-.024.02-.023-.016.027-.015.02v.008q0 .016.011.027l.012-.016.016-.015.02-.024h.003l-.008.016-.011.012-.016.011-.008.016v.012c-.008.011-.02.02 0 .027l.004.02-.004.027q-.007.013.004.008l.016-.016.011-.016.016-.019.004-.02h.004l-.004.024-.02.02-.008.015-.011.016a.1.1 0 0 1 .008.03h.004l.007-.007.008-.016h.004l-.008.016-.008.012q.012.007 0 .02c-.011.007-.011.019 0 .027v.047l.004.011h-.004v-.011a.2.2 0 0 0-.027.07c-.023.004-.02.031-.023.05a.17.17 0 0 1-.075.063.02.02 0 0 0-.02.012q0 .01.017.008c.019-.016.023-.016.007.008v.011c.02.016.063.02.086.008q.025-.018.008-.035.001-.035.031-.05v-.017l.004-.05.008-.004c.008 0 .023-.028.027-.051v-.016q.006-.01.012 0 .001-.01.008-.015.013-.026.031-.016l-.004-.031v-.04l.008-.007.012-.031.011-.028h.004l-.011.028-.012.035v.004l-.004.039.008.035.008.016v.023c.015.024 0 .066-.012.086l-.004.031q.007.012-.004.024v.004c0 .011-.004.015-.008.023l-.027.063q-.018.001-.023.027-.017.005-.016.016l-.035.023q-.011.005.008.016.01.001.023-.016t.008 0l-.008.027.027.012a.1.1 0 0 0 .047-.023c.012-.012.016-.02.004-.032h-.02l-.019-.011.04.007v-.011l.019-.032c.011-.007.02-.02.015-.035l.004-.02.028-.066c.015-.015.023-.03.02-.054q0-.012.01-.012l.013-.02.003-.015.008-.008v-.02l-.004-.015-.004-.008v-.008h.004v.012q.013.013.008.02v.019l-.008.008v.012l.024-.004.015-.02.008-.023-.004.027-.011.012a.07.07 0 0 0 .039 0V4.71l.015-.027q.006 0 0 0l-.008.03v.04q.004.024.02.012l.016-.008v-.004l.07-.063v.004l-.063.055v.012q0 .017.024.011l.023-.007.012-.008.04-.024.003-.023.027-.05a.08.08 0 0 0 .043-.044h.004l-.015.028-.028.02-.027.046-.004.02v.035q.011 0 .027-.012l.028-.027.008-.02.015-.016h.004v.004l-.016.012-.007.02v.043l.039-.02v.04c0 .015.004.022.015.03l.02-.023.02-.02.011-.007-.008.011-.008.008-.011.008v.02h.023q-.005.029.02.023v-.02l.004-.02h.004l-.004.02v.02q.008.018.027.023l.008-.02v-.015h.004v.02l-.012.02v.019l.008-.012.011-.016q.006 0 0 0 0 .014-.007.016l-.008.016.008.011c-.024.04-.051.098-.098.118q-.034.006-.04.046l-.019.024-.046.012q0 .016.011.015l.028-.012q.008.01-.02.032v.004c.016.023.055.015.074.007a.07.07 0 0 0 .047-.035q.005-.011-.008-.023c-.03.004-.023-.024 0-.012q.012 0 .012-.012.034-.01.04-.039a.4.4 0 0 0 .062-.082q.007-.012.004-.02l.007-.019.004-.02h.004v.024l-.008.012q.001.007.008.008l.059-.043c0-.008.004-.016.015-.016l.008-.004a.03.03 0 0 0-.008-.031c-.004-.012.004-.02.016-.027a.05.05 0 0 0 .008-.04V4.75l.004.012v.004c.011-.004.023-.012.027-.024a.04.04 0 0 0-.012-.031l-.023.008.027-.016.012-.008c.008-.011-.012-.02-.02-.023l-.027-.027V4.64l.027.023v-.043l-.007-.016-.02-.02-.004-.019.008.016.016.016h.039c.011-.012-.008-.028-.012-.035l-.004-.02h.004l-.008-.008h-.004v-.008l.008.004.008.008h.004c.011 0 .02-.004.027-.02l-.012-.015-.02-.012v-.004h.005l.031.032q.018 0 .023-.012l-.007-.016-.012-.015q.011 0 .016.011l.007.02.016-.004c.012-.008 0-.031 0-.04h-.004l-.008-.007h.008l.008.004.016-.024c0-.015 0-.007.02-.011q.016.006.034-.024.007 0 .008-.011 0-.017-.012-.016c-.02 0-.03.004-.039.012v.011l-.008-.007q-.018-.002-.043.007h-.007l.007.012.004.016-.007-.016-.012-.015-.04-.008.009.004.007.007v.004l-.015-.015-.035.008-.024.007.016.02.008.023-.012-.023-.016-.016h-.02l.009.012-.012-.016-.02-.007.008.058-.008-.035-.004-.027-.007-.008-.024-.016-.008.028c.004-.012.008-.024.004-.032l-.039-.008.02.032.011.02v.019l-.003-.02-.012-.015-.012-.02-.012-.016h-.015.004v.012-.008l-.008-.004h-.031q.032.037.039.09l-.016-.047-.027-.039h-.024l.016.016-.012-.004-.012-.008h-.011l-.004.004.039.043-.024-.023-.023-.016h-.023l.02.066h-.005l-.008-.03-.011-.036h-.016l.012.063v.003l-.008-.039-.012-.03-.05-.04a.1.1 0 0 1 .015.043v.004l-.008-.027-.015-.024h-.051q.017.006.015.024c0-.008-.007-.02-.023-.028h-.023l.011.012.008.02.008.023.016.016s.003 0 0 0l-.02-.012-.008-.027-.008-.016-.011-.016h-.028l.008.032.004.039h-.004v-.04l-.012-.03L14 4.296v.016h-.004v-.016q-.006-.024-.023-.031v.015l-.008.016h-.004l.004-.02v-.015a.05.05 0 0 0-.031-.047v.008l-.004.02h-.004V4.21l-.02-.02v.028l-.015.031h-.004l.011-.031.004-.032-.007-.011v.008h-.004v-.008l.004-.004v-.004l-.012-.02-.008.02h-.004l.008-.023-.004-.008-.004.008-.008.007v-.004l.008-.015v-.008q-.001-.011-.008-.027h-.011l-.02.015V4.11l.016-.011.015-.004v-.008l-.039.012-.035-.008h.031a.2.2 0 0 0 .043-.008l.008-.023h-.02l.024-.004v-.008q.005-.012.016 0 .01 0 .015.012.018.004.035-.008h-.007v-.004h.011c.024 0 .043-.004.055-.02h-.04a.1.1 0 0 1-.023-.007l.028.003h.039l.02-.011a.2.2 0 0 1-.079-.028l-.023-.011q-.031 0-.055.011l-.012-.011-.015-.008h-.024s-.004 0 0 0h.047l.067-.012.066-.008v-.007q.018-.018.012-.036-.007-.017-.031-.027h-.051l-.031.004.023.016.016.039v.003h-.008l-.016-.039c-.004-.007-.023-.011-.027-.015l-.051.008-.027.015h.03a.06.06 0 0 1 .024.031v.004h-.007l-.02-.027c-.016-.008-.047 0-.062.012l-.024.023h-.008v-.008l.028-.023.027-.016.039-.02.05-.007-.019-.02h-.031c-.02.004-.039.016-.059.028h.02l.004.008h-.035l-.059.046a.1.1 0 0 0-.039.008l-.004.024-.008.027q-.032.03-.05.063l-.012.02.012.003v-.008l.007-.015h.004l-.004.015v.02h-.007l-.004-.008h-.012l-.012.008-.008.011q.001.018.02.012c.023 0 .004.016.016.028l.02.015h.019q.001-.023.007-.023l.008-.016v.008l-.004.008v.015l.04-.007q.045-.042.015 0l-.004.007-.008.024c-.008.004-.039.031-.027.039q.018.001.012.008a.06.06 0 0 0-.012.035h.012l.027-.024.02-.03h.003l.012-.032q0-.011.012-.027l.012.011h.02l.007-.011h.004l-.012.015h-.02l-.011-.012-.02.055v.004l-.046.055.007.02.04-.04.03-.039-.011.024v.043h-.004v-.036l-.05.051q-.025.013-.009.031l.012-.015.016-.012h.004v.004l-.016.016-.016.011.004.012h.004l.031-.023v.003l-.027.024H13.7c-.011.012-.047.031-.039.047l.024-.008.023-.02v.004l-.023.02v.008-.004l-.028.004q.006.022-.011.039c0 .004-.04.035-.024.039Zm0 0" style="stroke:none;fill-rule:nonzero;fill:#f7db17;fill-opacity:1"/><path d="m13.648 3.96-.023-.01-.02-.02q-.01-.006-.003-.012l.007-.004h.012l.008.008h.004l-.008-.008-.016-.004h-.015l-.008-.02.016.005.007.003-.007-.007h-.008a.12.12 0 0 1 .082.007.06.06 0 0 1 .031.024l-.008.008a.1.1 0 0 0-.039.007.1.1 0 0 0-.008.024Zm0 0" style="stroke:none;fill-rule:nonzero;fill:#f7db17;fill-opacity:1"/><path d="m14.258 4.82-.016.008q0-.012.012-.023v.008Zm.078.168-.016.016-.02.016v-.004l.032-.032Zm.05-.062-.007.011h-.004l.008-.011Zm-.027 0-.007.011-.02.016V4.95l.016-.011.004-.016Zm.047-.067-.008.016h-.003Zm.04 0v.02l-.012.023.004-.023Zm-.016-.234a.1.1 0 0 1 .015.059l.004-.024a.04.04 0 0 0 .012-.043h.004v.024l-.012.023-.008.04h-.004v-.005a.1.1 0 0 0-.015-.07Zm-.032.04v.01h-.003V4.66Zm-.007.054.007.054.016-.015h.004l-.012.012-.008.015-.003-.035Zm.039.02.004.046v-.023Zm.039-.009v.067l.004.023-.012-.023v-.024l.008-.02Zm.02-.058-.005.012v.007h-.004v-.023Zm-.02-.106v.008q.006 0 0 0Zm0 0s-.004 0 0 0m.008-.078v.032l-.008.011v.024h-.004V4.53l.012-.015Zm-.079-.027q.019.011.032.027a.06.06 0 0 1 .011.035l-.023-.007v.07a.07.07 0 0 1-.04.043.2.2 0 0 0 0-.074h.005v.066l.027-.035a.2.2 0 0 0 .004-.074l.024.008a.1.1 0 0 0-.012-.032l-.028-.023Zm.204-.04v.009h-.004v-.008s0-.004 0 0Zm-.047 0 .011.005.004.008v.003Zm-.07.02.011.02v.023q-.006 0 0 0l-.004-.023Zm-.235.02v.016l-.004.003Zm.04-.024.007.016v.004h-.004v-.004l-.004-.012Zm.093.063v.012-.008h-.004Zm.031-.07v.015c-.004-.011-.004-.011 0-.011Zm-.215.011.008.028.012.015V4.5h-.004v-.016l-.008-.011-.008-.016Zm.086.059.008.027v.028a.1.1 0 0 0 .008.03l.023.032-.004-.043.012-.039q.006 0 .012-.012v-.015h.004v.015l-.012.02-.012.035q.001.018.008.043h-.004a.06.06 0 0 1-.031-.035l-.008-.031v-.028l-.008-.023h.004Zm-.035.055q-.001.016-.008.027l-.015.027h.011l.04-.039-.008.016-.012.008v.02-.009l-.004-.007-.016.011-.015.008v-.004l.015-.031Zm-.04 0v.004h-.003Zm0 0" style="stroke:none;fill-rule:nonzero;fill:#000;fill-opacity:1"/><path d="M14.18 4.5q.007.016.008.04l-.016.03-.02.024-.007.027.007-.012.02-.015.043-.035h.004l-.047.039-.016.015-.015.02a.1.1 0 0 1 .007-.043l.02-.024.016-.03q-.001-.013-.008-.036Zm.09.14.003.016.004.004q.012.013.012.031l-.004.04h-.004l-.015-.04-.032-.023v-.004a.1.1 0 0 1 .036.027l.011.024V4.69l-.004-.027-.004-.008q-.012-.013-.007-.015Zm.039 0 .004.008h-.004l-.008-.007Zm.039.012-.016.055Zm.027.157V4.8Zm-.027-.047v.011l-.008.016v-.016l.004-.015h.004Zm-.04 0h.005v.004Zm-.042-.024-.004.008v.008h-.004v-.016Zm-.067.07-.004.008v.008s-.004.004-.008 0v-.008l.008-.011Zm-.187.184V5l-.008.004q-.006 0 0 0Zm.031-.015-.004.007h-.008l.004-.004v-.003Zm.039-.024-.008.004v-.008Zm.059-.152-.004.015v.016h-.004v-.035h.004Zm.039-.406-.004.011-.008.012h-.004l.008-.012v-.011l.004-.004Zm-.04-.04.005.04v-.02Zm-.054.067-.016-.016-.004-.015.008.015Zm.059.101v.008h-.004v-.008Zm-.079-.078.024.04.004.03q.01 0 .015-.011v-.035l.012-.024.004-.02h.004l.016.032.011.035h-.004l-.011-.035-.012-.023v.015l-.012.02-.004.039-.015.012v.015h-.004q-.001-.023-.008-.047l-.02-.039Zm.047.2v.011l-.004.016h-.004V4.64h.004q.006 0 0 0Zm-.086.035v.011l-.004-.011Zm.075-.102-.008.027-.012.02-.012.023v.028l-.004-.028c0-.007.004-.02.012-.027l.012-.023.008-.024Zm-.02-.031v.023l-.02.024-.015.023-.008.02h-.004l.008-.024.02-.023.011-.02Zm-.094.047c0 .02-.004.031-.008.043a.06.06 0 0 1-.023.031h-.004v-.004a.06.06 0 0 0 .024-.031q.012-.013.007-.043Zm-.117.07v.008l.004.004v.004h-.004l-.004-.008v-.008s-.004 0 0 0Zm-.05 0v.027l.015.024.004.02v.015l.015-.02.008-.023v.023l-.02.024h-.003v-.02l-.008-.015-.012-.028-.004-.027Zm.007.164.004-.031h.004l-.004.031Zm-.008.043v-.016s0-.003.004 0v.016Zm-.03.082.015-.023h.004l-.008.015-.008.008q-.006 0 0 0Zm-.044-.262V4.7h-.004v-.008Zm-.078.176V4.86h.004v.012Zm.195-.316-.011.039q0 .02.011.031a.05.05 0 0 1 .02.027v-.015q.006-.011 0-.016h.004v.04h-.004v-.009l-.02-.023c-.011-.008-.015-.016-.015-.035l.007-.04Zm-.015-.051v.031l-.012.028-.008.039c0 .02.004.03.012.043v.004a.13.13 0 0 1-.008-.086l.008-.028V4.5Zm-.09.133v.015l.004.02-.012-.02Zm-.04-.016v.024l-.003.011.004.008v.004l-.008-.012v-.015l.004-.008Zm.227-.344a.1.1 0 0 0 .012.063l-.016-.027Zm-.027.028.02.07h-.004l-.02-.062V4.3Zm-.14.008a.2.2 0 0 0-.024.05l.008.036.008.03-.008.032v-.062l-.012-.04q0-.022.023-.046Zm.128-.059v.02l-.015.015-.012.016v.031-.031l.012-.02.011-.015Zm-.136.012v.027c0 .008-.004.02-.016.027l-.016.024-.004.027h-.004l.004-.031q-.001-.012.016-.024l.016-.027v-.023Zm.078.004v.007l.004.012-.008-.008Zm0-.02-.02.016-.008.027.008.024v.027-.027l-.012-.02a.1.1 0 0 0-.02.05q.002.03.02.06h-.004a.1.1 0 0 1-.019-.06c0-.019.008-.034.023-.054q.001-.019.008-.031l.02-.016Zm-.028-.031q-.001.022-.008.027l-.007.012-.004.016h-.004v-.016l.012-.016q.007-.005.007-.023V4.21Zm.223.238.004.02v.015-.015Zm0 .078v.024l-.008.023-.012.027.008-.027.008-.023v-.028h.004Zm-.047-.07a.11.11 0 0 1 .027.098h-.003c.015-.032.003-.07-.024-.094Zm0 .078-.039.055-.02.043-.003-.024-.008-.02-.012-.034.012-.032.011-.023V4.48h.004l-.011.051-.012.028q.001.021.008.03l.011.036.02-.035.02-.024.011-.027Zm-.125-.039.016.055v.004h-.004l-.012-.028Zm-.066.04v.01H13.8Zm.023-.063-.004.02-.011.019.007-.02v-.02Zm-.062.12a.1.1 0 0 1-.012-.066c0-.015.008-.031.023-.039l.016-.027a.06.06 0 0 0 .004-.04c-.004-.027.004 0 .004 0v.04l-.024.027-.02.04q0 .03.013.066Zm-.04-.042v.011l.004.016-.007-.016Zm.18-.125.012.03q.005.019-.008.036h-.004l.008-.035Zm.055-.043a.07.07 0 0 1 0 .066l-.008-.031-.02-.02q-.001-.006.005 0 .017.017.023.04Zm.031-.047.016.031v.059l.008.015-.008-.015v-.02l-.004-.039-.016-.027h.004Zm-.086-.008-.011.02v.027-.027a.03.03 0 0 1 .007-.02q.006 0 0 0Zm-.172.117-.011.04-.032.027.028-.028a.07.07 0 0 0 .011-.039Zm0-.062v.02l-.011.019.004-.02v-.02Zm.114-.008v.039h-.004Zm.027-.05a.04.04 0 0 0-.012.03l.008.028.012.047a.07.07 0 0 1-.016.043l.012-.043a.1.1 0 0 0-.012-.047l-.008-.028q0-.021.012-.03Zm-.18-.325.04-.02q.022 0 .046.012h.031-.03q-.025.03-.044.031c-.011 0-.027 0-.035-.007q0-.006 0 0a.05.05 0 0 0 .035 0q.011 0 .04-.024l-.04-.004-.039.02v-.008Zm0 0" style="stroke:none;fill-rule:nonzero;fill:#000;fill-opacity:1"/><path d="m13.734 3.996.012.016-.012.008-.007-.008Zm.07.067.032-.028v.004l-.008.012-.02.015v-.003Zm.145-.067h.012l.012.008h-.02L13.95 4ZM13.871 4l.012-.016.027-.004v.004h-.027Zm0 0q-.006 0 0 0m.008.02v-.016L13.89 4h.004l-.012.012v.008Zm-.14.043-.005.011v.012l-.004.004v-.016q.001-.006.008-.011m.04.019v.008Zm-.024-.043h.023l-.011.004Zm0 0s-.004 0 0-.004m.023-.082-.007.004-.004.008h-.004l.008-.012Zm-.039.008h-.008v.008h-.003V3.96l.011-.004Zm-.027 0-.004.004-.004.008H13.7l.004-.008.008-.008Zm-.031.027-.016.016V4l.016-.016Zm0 .04-.008.007q-.006 0 0 0v-.008Zm0 0q.006 0 0 0m-.028.007v.012l-.004.004v-.016Zm.04.055v.023h-.005V4.09Zm-.024-.016v.012h-.004v-.012Zm-.023-.18.02.016v.004h-.005l-.008-.012-.007-.004Zm.203.266q.01.031 0 .055h-.004a.1.1 0 0 0 0-.05V4.16Zm-.067.078c0-.008.004-.02.012-.027l.016-.024a.04.04 0 0 0 .011-.027v-.027h.004c.004.02 0 .043-.011.058l-.016.02Zm-.086-.023.008-.012.012-.004-.008.008Zm-.015-.008.011-.012.012-.008v.004Zm0 0q-.006 0 0 0m.09-.086h.02v.004h-.024q0-.006 0 0Zm-.047-.004q.006 0 0 0m.945.278.008.011h-.004v-.004l-.008-.007Zm-1.047.492.012.015h.02v.004h-.02l-.016-.015Zm0 0" style="stroke:none;fill-rule:nonzero;fill:#000;fill-opacity:1"/><path d="M14.41 3.941h.067a.2.2 0 0 1-.079.028l.012-.016Zm-.055-.003h.047v.015s0 .008-.007.012v.004h-.051l.011-.02v-.015Zm-.41-.118c.028-.007.051-.011.078-.007l.02.015c.004.008.008.02.004.031l.004.004h.004l-.004-.039-.012-.008h.008c.027 0 .058.008.082.024q.013.012.008.02l-.012.019v.008h.008l.012-.028v-.011l.066.03v.02l-.02.012v.004l.004.004q.018.001.024-.016v-.015l.047.023v.012q0 .014-.012.015v.004q.018.001.023-.015v-.012l.016.004.05.016.005.015-.008.012v.008c-.055-.004-.106-.035-.16-.055l-.02-.008-.062-.023-.004-.004-.059-.016h-.066l-.004-.031-.02-.016Zm0 0" style="stroke:none;fill-rule:nonzero;fill:red;fill-opacity:1"/><path d="m13.852 3.84.078-.02q.022.007.027.02v.023l-.066.008-.028-.023-.011-.004Zm.289.152-.02-.015a.3.3 0 0 0-.117-.032q.018-.02.012-.043l-.028-.03h.04l.077.023v.03q0 .015-.02.028v.004q.024-.005.028-.027v-.032l.04.024.038.031q0 .022-.011.031h-.035v.008Zm0 0" style="stroke:none;fill-rule:nonzero;fill:red;fill-opacity:1"/><path d="m14.219 4.055-.07-.059q.022.002.039-.008a.1.1 0 0 0 .011-.031l.043.04.024.023v.023l-.016.008h-.027Zm0 0" style="stroke:none;fill-rule:nonzero;fill:red;fill-opacity:1"/><path d="m14.305 4.11-.078-.051h.027l.016-.008.003-.016v-.008l.082.055a.02.02 0 0 1-.011.02l-.04.003Zm0 0" style="stroke:none;fill-rule:nonzero;fill:red;fill-opacity:1"/><path d="m14.39 4.145-.078-.032a.1.1 0 0 0 .04-.008q.01 0 .011-.02l.051.024v.016l-.02.016s-.003 0 0 0Zm0 0" style="stroke:none;fill-rule:nonzero;fill:red;fill-opacity:1"/><path d="M14.578 4.125s.016-.004.008 0a.21.21 0 0 1-.188.02q.018-.005.024-.016v-.02l.066.016-.004.012-.02.011s-.003 0 0 .004q.019 0 .024-.011l.008-.016Zm-.379.95-.008.015-.046.012q0 .016.011.015l.028-.012q.008.01-.02.032v.004c.016.023.055.015.074.011a.1.1 0 0 0 .051-.039l-.012-.023q-.024.005-.02-.008Zm-.59-.192a.1.1 0 0 1-.039.027q-.017 0-.023.012 0 .01.015.008c.02-.016.024-.016.008.008v.011c.02.016.063.02.086.008q.025-.012.008-.035v-.008h-.023l-.016-.012Zm.391.14h-.004c-.008.008.012.008.024.012q.012.007.007.02c-.011.027-.074.02-.093.008a.03.03 0 0 1-.008-.02h.011q.012-.001.024-.008v-.008h-.008l-.015.008h-.02l-.008-.008h.008l.027-.007.004-.004c.02 0 .04.004.051.007m-.281-.015-.008.012-.035.023q-.008.005.008.016.018.001.023-.016.013-.018.008 0l-.008.027.027.012a.1.1 0 0 0 .047-.023c.012-.012.012-.02.004-.032h-.02l-.019-.011Zm.11-1.047h.01l.024.004.067-.012.066-.008v-.007q.018-.012.012-.036-.007-.01-.031-.027h-.051l-.031.004.023.016.016.039h-.008a.06.06 0 0 0-.012-.036l-.031-.015-.051.008a.04.04 0 0 0-.027.011l.03.004q.019.01.024.031h-.004l-.02-.023c-.015-.008-.05 0-.065.008l-.024.023Zm-.09-.016.027-.023.027-.016.039-.02.05-.007-.019-.02-.031-.004-.059.032h.02l.004.008h-.035l-.051.039q.02.004.027.015" style="stroke:none;fill-rule:nonzero;fill:red;fill-opacity:1"/><path d="m15.977 6.195.812-1.86-.598-.98-1.066.399-.496 1.969c.46.12.914.277 1.348.472" style="stroke:none;fill-rule:nonzero;fill:#0093dd;fill-opacity:1"/><path d="M14.945 4.473c.532.136 1.047.32 1.547.543l-.312.718a9 9 0 0 0-1.426-.5Zm0 0" style="stroke:none;fill-rule:nonzero;fill:#fff;fill-opacity:1"/><path d="m16.227 5.621.21-.484q-.738-.33-1.523-.532l-.125.489q.744.192 1.445.508Zm0 0" style="stroke:none;fill-rule:nonzero;fill:red;fill-opacity:1"/><path d="M15.063 4.98q.018-.016.042-.003c.012-.008.028-.008.04-.008l.023-.008q.012 0 0-.012v-.011q-.04-.03-.047-.063-.019 0-.02-.012h-.019q-.04-.001-.05-.02l-.024-.015-.012-.012q-.011-.022.008-.027h.027l.035-.004q.018 0 .036-.023v-.016s0-.008.007-.004q.019.001.032.02.03 0 .046.027.041.004.047.02 0 .01-.02.023v.008l.016.015.04.028q.058 0 .187.082a.6.6 0 0 1 .16.047h.035q.142-.03.266.058c.031.004.059.016.086.028q.029.01.062.011.054.005.102.028a.15.15 0 0 1 .094.047q.021.034-.008.05-.018.03-.07.012c-.028 0-.051-.012-.079-.035a.4.4 0 0 1-.093-.055l-.051-.023h-.031v.008c.011.007.015.02.015.03v.044q-.001.018.028.035l.039.016q.012 0 .011.011l.016.067.016.011c.023.02.008.04-.012.04l-.05.03q-.023.012-.028-.007l-.016-.008c-.02-.015-.004-.039.04-.027l.007-.008V5.34l-.012-.008-.039-.023a.4.4 0 0 0-.093-.055.14.14 0 0 1-.07-.027h-.032q-.013-.002-.02.007-.006.007-.03.008h-.063a.07.07 0 0 0-.04.012q-.01.012-.027 0l-.011-.008q-.019-.001-.02-.008-.03-.005-.023-.015c-.024-.004-.012-.024 0-.024l.054.004c.02 0 .035 0 .047-.012l.02-.02a.2.2 0 0 1-.07-.019q-.065-.04-.11-.011c-.004.007-.012.011-.023.004h-.02a.07.07 0 0 1-.05-.004.1.1 0 0 1-.071 0q-.035.02-.047.007l-.023-.015q-.025-.006-.02-.012-.024.001-.02-.016-.005-.01 0-.015.023-.012.04 0 .018 0 .023.012h.024c.003-.004.02-.008.039-.008l.027-.008v-.008a.07.07 0 0 1-.035-.027.1.1 0 0 1-.059-.02.07.07 0 0 1-.039-.011h-.027a.1.1 0 0 1-.055 0h-.031q-.02.012-.04.007l-.03-.02q-.017-.004-.016-.015-.018-.012 0-.02.011-.01.039 0Zm0 0" style="stroke:none;fill-rule:nonzero;fill:#000;fill-opacity:1"/><path d="M15.672 5.164s0-.008-.012 0a.13.13 0 0 1-.086-.016.2.2 0 0 0-.078-.03l.027-.016h.059c.027 0 .05.007.078.015q.022.013.04.031l.03.028h-.027Zm0 0" style="stroke:none;fill-rule:nonzero;fill:#fff;fill-opacity:1"/><path d="M15.742 3.75v.008l.035.191-.144.13-.008.003.008.004.183.062.04.196v.008l.007-.004.145-.133.18.062h.011v-.004l-.039-.191.145-.129.008-.008H16.3l-.18-.062-.039-.195V3.68l-.008.004-.144.132Zm0 0" style="stroke:none;fill-rule:nonzero;fill:#000;fill-opacity:1"/><path d="m15.648 4.078.137-.121.172.059Zm.332-.066.133-.121.172.058Zm.305-.055-.133.121-.172-.058Zm-.328.066-.137.118-.168-.059Zm-.195-.253.168.054.03.18Zm.215.253.171.059.036.176Zm.199.239-.168-.059-.035-.176Zm-.219-.25-.168-.063-.035-.176Zm.117-.309.04.184-.137.117Zm-.105.324.031.18-.133.121Zm-.11.297-.035-.18.137-.117Zm.11-.32-.035-.18.136-.12Zm0 0" style="stroke:none;fill-rule:nonzero;fill:#f7db17;fill-opacity:1"/></svg>