<svg xmlns="http://www.w3.org/2000/svg" width="25" height="px" viewBox="0 0 25 19"><path d="M0 0h25v19H0z" style="fill:#d21034;fill-opacity:1;stroke:none"/><path d="M0 0h25v9.5H0Zm0 0" style="stroke:none;fill-rule:nonzero;fill:#00209f;fill-opacity:1"/><path d="M9.543 7.113h5.914v4.77H9.543Zm0 0" style="stroke:none;fill-rule:nonzero;fill:#fff;fill-opacity:1"/><path d="m350.5 266.842-31 .987-30.7.296s-15.8 5.822-22.3 7.105-5.6 3.356-10.5 4.54c-4 .888-4.5 1.085-6.8 1.283-1.5 0-3.2 1.283-5 2.467v16.677h151.5V284.31c-1.6-.888-3.2-1.579-4.8-1.973-2.2-.79-3.7-1.678-7.7-2.566-5-1.086-4.2-3.257-10.6-4.54-6.5-1.283-22.1-8.388-22.1-8.388Zm0 0" style="fill-rule:nonzero;fill:#016a16;fill-opacity:1;stroke-width:.3;stroke-linecap:butt;stroke-linejoin:miter;stroke:#016a16;stroke-opacity:1;stroke-miterlimit:4" transform="scale(.03906 .03958)"/><path d="M244.5 143.524h1.375l2.625 10.67-.625 3.392Zm0 0" style="fill-rule:nonzero;fill:#f1b517;fill-opacity:1;stroke-width:.2;stroke-linecap:butt;stroke-linejoin:miter;stroke:#000;stroke-opacity:1;stroke-miterlimit:4" transform="matrix(.0625 0 0 .06333 -3.125 0)"/><path d="m243 136.308 1 8.264h1l-2-8.203Zm0 0" style="fill-rule:nonzero;fill:#fff;fill-opacity:1;stroke-width:.2;stroke-linecap:butt;stroke-linejoin:miter;stroke:#000;stroke-opacity:1;stroke-miterlimit:4" transform="matrix(.0625 0 0 .06333 -3.125 0)"/><path d="m245.687 154.626-4.312-11.534 1.625-.062 5 13.94Zm0 0" style="fill-rule:nonzero;fill:#f1b517;fill-opacity:1;stroke-width:.2;stroke-linecap:butt;stroke-linejoin:miter;stroke:#000;stroke-opacity:1;stroke-miterlimit:4" transform="matrix(.0625 0 0 .06333 -3.125 0)"/><path d="m239.375 136.493 1.812 8.018h1.438Zm0 0" style="fill-rule:nonzero;fill:#fff;fill-opacity:1;stroke-width:.2;stroke-linecap:butt;stroke-linejoin:miter;stroke:#000;stroke-opacity:1;stroke-miterlimit:4" transform="matrix(.0625 0 0 .06333 -3.125 0)"/><path d="m241.875 150.617-2.5-5.49 1-.246 4.75 9.005Zm0 0" style="fill-rule:nonzero;fill:#f1b517;fill-opacity:1;stroke-width:.2;stroke-linecap:butt;stroke-linejoin:miter;stroke:#000;stroke-opacity:1;stroke-miterlimit:4" transform="matrix(.0625 0 0 .06333 -3.125 0)"/><path d="m236 138.775 2.875 7.648h1.437l-4.187-7.648Zm0 0" style="fill-rule:nonzero;fill:#fff;fill-opacity:1;stroke-width:.2;stroke-linecap:butt;stroke-linejoin:miter;stroke:#000;stroke-opacity:1;stroke-miterlimit:4" transform="matrix(.0625 0 0 .06333 -3.125 0)"/><path d="m242.312 151.419-11.5-12.521c-3.625 2.776-2.937 8.018-2.937 8.018l13 10.177Zm0 0" style="fill-rule:nonzero;fill:#0a328c;fill-opacity:1;stroke-width:.2;stroke-linecap:butt;stroke-linejoin:miter;stroke:#000;stroke-opacity:1;stroke-miterlimit:4" transform="matrix(.0625 0 0 .06333 -3.125 0)"/><path d="m248.875 158.203-8.5-8.573c-3.563.185-.75 5.49-.563 6.168l9 7.71Zm0 0" style="fill-rule:nonzero;fill:#d20014;fill-opacity:1;stroke-width:.2;stroke-linecap:butt;stroke-linejoin:miter;stroke:#000;stroke-opacity:1;stroke-miterlimit:4" transform="matrix(.0625 0 0 .06333 -3.125 0)"/><path d="m248.125 156.785-17.5-18.812-.75.555 18.625 20.6Zm-18.5-19.984-.438-.493v-.926l-3.562-2.282 1.562 3.701 1.313.185.312.432Zm0 0" style="fill-rule:nonzero;fill:#f1b517;fill-opacity:1;stroke-width:.2;stroke-linecap:butt;stroke-linejoin:miter;stroke:#000;stroke-opacity:1;stroke-miterlimit:4" transform="matrix(.0625 0 0 .06333 -3.125 0)"/><path d="M227.687 138.096c.75-.925 1.688-1.665 2.688-2.22l1 1.542-2.188 1.788-1.5-.986Zm0 0" style="fill-rule:nonzero;fill:#f1b517;fill-opacity:1;stroke-width:.2;stroke-linecap:butt;stroke-linejoin:miter;stroke:#000;stroke-opacity:1;stroke-miterlimit:4" transform="matrix(.0625 0 0 .06333 -3.125 0)"/><path d="m225.812 141.303.563.987c.437-.061 4-3.515 4-3.515h2.75l.687-.864c-2-2.035-3.687.309-3.687.309Zm0 0" style="fill-rule:nonzero;fill:#0a328c;fill-opacity:1;stroke-width:.2;stroke-linecap:butt;stroke-linejoin:miter;stroke:#0a328c;stroke-opacity:1;stroke-miterlimit:4" transform="matrix(.0625 0 0 .06333 -3.125 0)"/><path d="M228 143.03c0-1.048 1.812-3.207 2-3.33 1.312.37 2.5 1.172 3.875-1.789-1.188 1.419-3.5 0-3.5 0l-1 .802v.37l-3 2.837Zm0 0" style="fill-rule:nonzero;fill:#d20014;fill-opacity:1;stroke-width:.2;stroke-linecap:butt;stroke-linejoin:miter;stroke:#d20014;stroke-opacity:1;stroke-miterlimit:4" transform="matrix(.0625 0 0 .06333 -3.125 0)"/><path d="m237.312 154.687-14.437-11.41c-2.5 2.529-.375 10.239-.375 10.239l14 7.586.687-6.415Zm0 0" style="fill-rule:nonzero;fill:#0a328c;fill-opacity:1;stroke-width:.2;stroke-linecap:butt;stroke-linejoin:miter;stroke:#000;stroke-opacity:1;stroke-miterlimit:4" transform="matrix(.0625 0 0 .06333 -3.125 0)"/><path d="m249.187 164-11.875-9.62c-4 .616-.812 6.537-.625 7.215l12.5 6.785Zm0 0" style="fill-rule:nonzero;fill:#d20014;fill-opacity:1;stroke-width:.2;stroke-linecap:butt;stroke-linejoin:miter;stroke:#000;stroke-opacity:1;stroke-miterlimit:4" transform="matrix(.0625 0 0 .06333 -3.125 0)"/><path d="m248.687 162.027-25.562-19.243-.5.616 26.75 20.97Zm-26.812-20.23-.375-.37-.188-.802-4-1.727 2.313 3.33h1.25l.437.37Zm0 0" style="fill-rule:nonzero;fill:#f1b517;fill-opacity:1;stroke-width:.2;stroke-linecap:butt;stroke-linejoin:miter;stroke:#000;stroke-opacity:1;stroke-miterlimit:4" transform="matrix(.0625 0 0 .06333 -3.125 0)"/><path d="M220.312 143.4a7.1 7.1 0 0 1 2.313-2.59l1.187 1.295-1.812 2.097Zm0 0" style="fill-rule:nonzero;fill:#f1b517;fill-opacity:1;stroke-width:.2;stroke-linecap:butt;stroke-linejoin:miter;stroke:#000;stroke-opacity:1;stroke-miterlimit:4" transform="matrix(.0625 0 0 .06333 -3.125 0)"/><path d="M219 146.608v1.11c.375-.247 3.687-3.7 3.687-3.7l2.5-.494.625-.802c-1.812-2.097-3.687.678-3.687.678Zm0 0" style="fill-rule:nonzero;fill:#0a328c;fill-opacity:1;stroke-width:.2;stroke-linecap:butt;stroke-linejoin:miter;stroke:#0a328c;stroke-opacity:1;stroke-miterlimit:4" transform="matrix(.0625 0 0 .06333 -3.125 0)"/><path d="M221 148.52c-.188-1.049 1.187-3.824 1.375-4.01 1.625.494 3 1.173 3.5-2.035-1 1.604-3.5.432-3.5.432l-.75.987v.493l-2.5 3.33Zm0 0" style="fill-rule:nonzero;fill:#d20014;fill-opacity:1;stroke-width:.2;stroke-linecap:butt;stroke-linejoin:miter;stroke:#d20014;stroke-opacity:1;stroke-miterlimit:4" transform="matrix(.0625 0 0 .06333 -3.125 0)"/><path d="m236.187 161.719-18.5-10.547c-1.312 2.344-.062 5.55.5 6.044 0 1.48-.562 2.282.688 5.49.437 2.097 1.312 3.824 2.75 4.995 1.562 6.415 8.187 6.908 10.687 1.604Zm0 0" style="fill-rule:nonzero;fill:#0a328c;fill-opacity:1;stroke-width:.2;stroke-linecap:butt;stroke-linejoin:miter;stroke:#000;stroke-opacity:1;stroke-miterlimit:4" transform="matrix(.0625 0 0 .06333 -3.125 0)"/><path d="m248.312 168.503-12.5-7.278c-4 .494 0 7.957.313 8.697l12.187 4.256Zm0 0" style="fill-rule:nonzero;fill:#d20014;fill-opacity:1;stroke-width:.2;stroke-linecap:butt;stroke-linejoin:miter;stroke:#000;stroke-opacity:1;stroke-miterlimit:4" transform="matrix(.0625 0 0 .06333 -3.125 0)"/><path d="m246.187 165.79-28.312-14.988-.5.617 30 16.653ZM216.5 150l-.5-.308-.313-.802-4.062-.987 2.687 2.899 1.188-.185.625.308Zm0 0" style="fill-rule:nonzero;fill:#f1b517;fill-opacity:1;stroke-width:.2;stroke-linecap:butt;stroke-linejoin:miter;stroke:#000;stroke-opacity:1;stroke-miterlimit:4" transform="matrix(.0625 0 0 .06333 -3.125 0)"/><path d="M215.187 151.789c.25-.926.875-1.912 1.813-2.96l1.375 1.048-1.375 2.405Zm0 0" style="fill-rule:nonzero;fill:#f1b517;fill-opacity:1;stroke-width:.2;stroke-linecap:butt;stroke-linejoin:miter;stroke:#000;stroke-opacity:1;stroke-miterlimit:4" transform="matrix(.0625 0 0 .06333 -3.125 0)"/><path d="m214.125 155.18.562 1.234 3-4.625 2.5-.864.5-1.048c-2-1.789-3.5 1.418-3.5 1.418Zm0 0" style="fill-rule:nonzero;fill:#0a328c;fill-opacity:1;stroke-width:.2;stroke-linecap:butt;stroke-linejoin:miter;stroke:#0a328c;stroke-opacity:1;stroke-miterlimit:4" transform="matrix(.0625 0 0 .06333 -3.125 0)"/><path d="M216.812 156.785c-.187-.987.5-4.195.688-4.256 1.5.493 2.812.555 3.187-2.652-1 1.542-3.312 1.048-3.312 1.048l-.688.987.125.37-2 4.01Zm0 0" style="fill-rule:nonzero;fill:#d20014;fill-opacity:1;stroke-width:.2;stroke-linecap:butt;stroke-linejoin:miter;stroke:#d20014;stroke-opacity:1;stroke-miterlimit:4" transform="matrix(.0625 0 0 .06333 -3.125 0)"/><path d="M244.525 143.524h1.375l2.625 10.67-.625 3.392Zm0 0" style="fill-rule:nonzero;fill:#f1b517;fill-opacity:1;stroke-width:.2;stroke-linecap:butt;stroke-linejoin:miter;stroke:#000;stroke-opacity:1;stroke-miterlimit:4" transform="matrix(-.0625 0 0 .06333 28.119 0)"/><path d="m243.025 136.308 1 8.264h1l-2-8.203Zm0 0" style="fill-rule:nonzero;fill:#fff;fill-opacity:1;stroke-width:.2;stroke-linecap:butt;stroke-linejoin:miter;stroke:#000;stroke-opacity:1;stroke-miterlimit:4" transform="matrix(-.0625 0 0 .06333 28.119 0)"/><path d="m245.712 154.626-4.312-11.534 1.625-.062 5 13.94Zm0 0" style="fill-rule:nonzero;fill:#f1b517;fill-opacity:1;stroke-width:.2;stroke-linecap:butt;stroke-linejoin:miter;stroke:#000;stroke-opacity:1;stroke-miterlimit:4" transform="matrix(-.0625 0 0 .06333 28.119 0)"/><path d="m239.4 136.493 1.812 8.018h1.375Zm0 0" style="fill-rule:nonzero;fill:#fff;fill-opacity:1;stroke-width:.2;stroke-linecap:butt;stroke-linejoin:miter;stroke:#000;stroke-opacity:1;stroke-miterlimit:4" transform="matrix(-.0625 0 0 .06333 28.119 0)"/><path d="m241.9 150.617-2.5-5.49 1-.246 4.687 9.005Zm0 0" style="fill-rule:nonzero;fill:#f1b517;fill-opacity:1;stroke-width:.2;stroke-linecap:butt;stroke-linejoin:miter;stroke:#000;stroke-opacity:1;stroke-miterlimit:4" transform="matrix(-.0625 0 0 .06333 28.119 0)"/><path d="m236.025 138.775 2.875 7.648h1.375l-4.188-7.648Zm0 0" style="fill-rule:nonzero;fill:#fff;fill-opacity:1;stroke-width:.2;stroke-linecap:butt;stroke-linejoin:miter;stroke:#000;stroke-opacity:1;stroke-miterlimit:4" transform="matrix(-.0625 0 0 .06333 28.119 0)"/><path d="m242.275 151.419-11.5-12.521c-3.563 2.776-2.875 8.018-2.875 8.018l13 10.177Zm0 0" style="fill-rule:nonzero;fill:#0a328c;fill-opacity:1;stroke-width:.2;stroke-linecap:butt;stroke-linejoin:miter;stroke:#000;stroke-opacity:1;stroke-miterlimit:4" transform="matrix(-.0625 0 0 .06333 28.119 0)"/><path d="m248.9 158.203-8.5-8.573c-3.625.185-.813 5.49-.625 6.168l9 7.71Zm0 0" style="fill-rule:nonzero;fill:#d20014;fill-opacity:1;stroke-width:.2;stroke-linecap:butt;stroke-linejoin:miter;stroke:#000;stroke-opacity:1;stroke-miterlimit:4" transform="matrix(-.0625 0 0 .06333 28.119 0)"/><path d="m248.087 156.785-17.5-18.812-.687.555 18.625 20.6Zm-18.5-19.984-.375-.493v-.926l-3.625-2.282 1.625 3.701 1.313.185.25.432Zm0 0" style="fill-rule:nonzero;fill:#f1b517;fill-opacity:1;stroke-width:.2;stroke-linecap:butt;stroke-linejoin:miter;stroke:#000;stroke-opacity:1;stroke-miterlimit:4" transform="matrix(-.0625 0 0 .06333 28.119 0)"/><path d="M227.712 138.096c.688-.925 1.625-1.665 2.688-2.22l1 1.542-2.188 1.788-1.5-.986Zm0 0" style="fill-rule:nonzero;fill:#f1b517;fill-opacity:1;stroke-width:.2;stroke-linecap:butt;stroke-linejoin:miter;stroke:#000;stroke-opacity:1;stroke-miterlimit:4" transform="matrix(-.0625 0 0 .06333 28.119 0)"/><path d="m225.775 141.303.625.987c.375-.061 4-3.515 4-3.515h2.687l.688-.864c-2-2.035-3.688.309-3.688.309Zm0 0" style="fill-rule:nonzero;fill:#0a328c;fill-opacity:1;stroke-width:.2;stroke-linecap:butt;stroke-linejoin:miter;stroke:#0a328c;stroke-opacity:1;stroke-miterlimit:4" transform="matrix(-.0625 0 0 .06333 28.119 0)"/><path d="M228.025 143.03c0-1.048 1.75-3.207 2-3.33 1.25.37 2.5 1.172 3.875-1.789-1.188 1.419-3.5 0-3.5 0l-1 .802v.37l-3 2.837Zm0 0" style="fill-rule:nonzero;fill:#d20014;fill-opacity:1;stroke-width:.2;stroke-linecap:butt;stroke-linejoin:miter;stroke:#d20014;stroke-opacity:1;stroke-miterlimit:4" transform="matrix(-.0625 0 0 .06333 28.119 0)"/><path d="m237.275 154.687-14.375-11.41c-2.5 2.529-.375 10.239-.375 10.239l14 7.586.687-6.415Zm0 0" style="fill-rule:nonzero;fill:#0a328c;fill-opacity:1;stroke-width:.2;stroke-linecap:butt;stroke-linejoin:miter;stroke:#000;stroke-opacity:1;stroke-miterlimit:4" transform="matrix(-.0625 0 0 .06333 28.119 0)"/><path d="m249.212 164-11.937-9.62c-4 .616-.75 6.537-.563 7.215l12.5 6.785Zm0 0" style="fill-rule:nonzero;fill:#d20014;fill-opacity:1;stroke-width:.2;stroke-linecap:butt;stroke-linejoin:miter;stroke:#000;stroke-opacity:1;stroke-miterlimit:4" transform="matrix(-.0625 0 0 .06333 28.119 0)"/><path d="m248.712 162.027-25.625-19.243-.5.616 26.813 20.97Zm-26.812-20.23-.375-.37-.25-.802-4-1.727 2.312 3.33h1.313l.375.37Zm0 0" style="fill-rule:nonzero;fill:#f1b517;fill-opacity:1;stroke-width:.2;stroke-linecap:butt;stroke-linejoin:miter;stroke:#000;stroke-opacity:1;stroke-miterlimit:4" transform="matrix(-.0625 0 0 .06333 28.119 0)"/><path d="M220.275 143.4c.562-1.048 1.375-1.912 2.312-2.59l1.188 1.295-1.75 2.097Zm0 0" style="fill-rule:nonzero;fill:#f1b517;fill-opacity:1;stroke-width:.2;stroke-linecap:butt;stroke-linejoin:miter;stroke:#000;stroke-opacity:1;stroke-miterlimit:4" transform="matrix(-.0625 0 0 .06333 28.119 0)"/><path d="M219.025 146.608v1.11c.375-.247 3.687-3.7 3.687-3.7l2.5-.494.563-.802c-1.75-2.097-3.688.678-3.688.678Zm0 0" style="fill-rule:nonzero;fill:#0a328c;fill-opacity:1;stroke-width:.2;stroke-linecap:butt;stroke-linejoin:miter;stroke:#0a328c;stroke-opacity:1;stroke-miterlimit:4" transform="matrix(-.0625 0 0 .06333 28.119 0)"/><path d="M221.025 148.52c-.25-1.049 1.187-3.824 1.375-4.01 1.625.494 3 1.173 3.5-2.035-1 1.604-3.5.432-3.5.432l-.813.987v.493l-2.5 3.33Zm0 0" style="fill-rule:nonzero;fill:#d20014;fill-opacity:1;stroke-width:.2;stroke-linecap:butt;stroke-linejoin:miter;stroke:#d20014;stroke-opacity:1;stroke-miterlimit:4" transform="matrix(-.0625 0 0 .06333 28.119 0)"/><path d="m236.212 161.719-18.5-10.547c-1.312 2.344-.125 5.55.5 6.044 0 1.48-.625 2.282.688 5.49.375 2.097 1.312 3.824 2.687 4.995 1.625 6.415 8.188 6.908 10.688 1.604Zm0 0" style="fill-rule:nonzero;fill:#0a328c;fill-opacity:1;stroke-width:.2;stroke-linecap:butt;stroke-linejoin:miter;stroke:#000;stroke-opacity:1;stroke-miterlimit:4" transform="matrix(-.0625 0 0 .06333 28.119 0)"/><path d="m248.275 168.503-12.5-7.278c-4 .494 0 7.957.312 8.697l12.188 4.256Zm0 0" style="fill-rule:nonzero;fill:#d20014;fill-opacity:1;stroke-width:.2;stroke-linecap:butt;stroke-linejoin:miter;stroke:#000;stroke-opacity:1;stroke-miterlimit:4" transform="matrix(-.0625 0 0 .06333 28.119 0)"/><path d="M246.212 165.79 217.9 150.801l-.5.617 30 16.653ZM216.525 150l-.5-.308-.313-.802-4.125-.987 2.688 2.899 1.25-.185.562.308Zm0 0" style="fill-rule:nonzero;fill:#f1b517;fill-opacity:1;stroke-width:.2;stroke-linecap:butt;stroke-linejoin:miter;stroke:#000;stroke-opacity:1;stroke-miterlimit:4" transform="matrix(-.0625 0 0 .06333 28.119 0)"/><path d="M215.212 151.789c.25-.926.875-1.912 1.813-2.96l1.375 1.048-1.375 2.405Zm0 0" style="fill-rule:nonzero;fill:#f1b517;fill-opacity:1;stroke-width:.2;stroke-linecap:butt;stroke-linejoin:miter;stroke:#000;stroke-opacity:1;stroke-miterlimit:4" transform="matrix(-.0625 0 0 .06333 28.119 0)"/><path d="m214.087 155.18.625 1.234 3-4.625 2.5-.864.5-1.048c-2-1.789-3.5 1.418-3.5 1.418Zm0 0" style="fill-rule:nonzero;fill:#0a328c;fill-opacity:1;stroke-width:.2;stroke-linecap:butt;stroke-linejoin:miter;stroke:#0a328c;stroke-opacity:1;stroke-miterlimit:4" transform="matrix(-.0625 0 0 .06333 28.119 0)"/><path d="M216.775 156.785c-.188-.987.5-4.195.75-4.256 1.5.493 2.75.555 3.187-2.652-1 1.542-3.312 1.048-3.312 1.048l-.688.987.063.37-2 4.01Zm0 0" style="fill-rule:nonzero;fill:#d20014;fill-opacity:1;stroke-width:.2;stroke-linecap:butt;stroke-linejoin:miter;stroke:#d20014;stroke-opacity:1;stroke-miterlimit:4" transform="matrix(-.0625 0 0 .06333 28.119 0)"/><path d="m248.812 125.576-.5 9.005h2.875l-.375-9.005 3-.247-.312-3.639-7.5.308v3.208Zm0 0" style="fill-rule:nonzero;fill:#016a16;fill-opacity:1;stroke-width:.2;stroke-linecap:butt;stroke-linejoin:miter;stroke:#016a16;stroke-opacity:1;stroke-miterlimit:4" transform="matrix(.0625 0 0 .06333 -3.125 0)"/><path d="M249.812 121.875c-7.812-7.771-13.937-3.947-15.312-2.899 1 .247 1.812-.37 2.312-.493l-1 1.233s2.5-.987 2.813-.987c-.438.247-.813.987-.813.987.188 0 1.563-1.11 1.813-1.11-.438.37-.5 1.48-.5 1.48l1.187-.493c.313.185-.125.617.063.617 2-.185 4.75 1.665 5 2.282" style="fill-rule:nonzero;fill:#016a16;fill-opacity:1;stroke-width:.2;stroke-linecap:butt;stroke-linejoin:miter;stroke:#000;stroke-opacity:1;stroke-miterlimit:4" transform="matrix(.0625 0 0 .06333 -3.125 0)"/><path d="M247.875 123.294c-.75-1.79-15.563-4.996-18.563.308 1.188.308 2.313-.987 2.313-.987v1.172l1.875-1.604-.688 1.604 1.5-1.295v1.295l2-1.974-.312 1.11 1.687-.74-.187.987" style="fill-rule:nonzero;fill:#016a16;fill-opacity:1;stroke-width:.2;stroke-linecap:butt;stroke-linejoin:miter;stroke:#000;stroke-opacity:1;stroke-miterlimit:4" transform="matrix(.0625 0 0 .06333 -3.125 0)"/><path d="M247.187 123.602c-3.812-2.529-9.562-.802-9.562-.802-3.813 1.974-5.813 1.727-6.25 5.613.312-.124 1.312-1.419 1.312-1.419l.813 1.48.187-2.097.625 1.727 1-2.775.188 1.85 1.375-1.85.625.555.625-1.48.562.987s1-.617 1.5-.309l1-1.172.313.864 1-.987.312.74.875-.802v.555h3" style="fill-rule:nonzero;fill:#016a16;fill-opacity:1;stroke-width:.2;stroke-linecap:butt;stroke-linejoin:miter;stroke:#000;stroke-opacity:1;stroke-miterlimit:4" transform="matrix(.0625 0 0 .06333 -3.125 0)"/><path d="M246.375 123.972c-2.688 0-10.25 2.899-12.188 5.798l1.313-.555.312 1.172.5-1.172.063.986c.312-.801.687-.863 1.25-.123l.187-1.048.313.986.5-1.11s.25 1.172.5 1.172c0 0 .75-2.159 1.187-2.282l.063 1.419.5-1.419.5.987v-1.357l.625.987s.187-.987.625-1.234l.75.74 3.437-2.528" style="fill-rule:nonzero;fill:#016a16;fill-opacity:1;stroke-width:.2;stroke-linecap:butt;stroke-linejoin:miter;stroke:#000;stroke-opacity:1;stroke-miterlimit:4" transform="matrix(.0625 0 0 .06333 -3.125 0)"/><path d="M246.875 124.712c-3.5 1.295-6.688 6.168-6.375 8.203 1.5-2.035 1.187-1.727 1.875.555 0 0 .25-1.973.5-2.158l.5 1.418.125-1.912h.5l-.125-1.11.75.493c-.25-.678-.313-.925.375-1.48 0 0-1 .062-.188-1.542l.688.617s-.188-.678 0-.987l2.625-.802" style="fill-rule:nonzero;fill:#016a16;fill-opacity:1;stroke-width:.2;stroke-linecap:butt;stroke-linejoin:miter;stroke:#000;stroke-opacity:1;stroke-miterlimit:4" transform="matrix(.0625 0 0 .06333 -3.125 0)"/><path d="m247.187 125.02-1.312 2.591.75.185-1.625 1.11 1.312-.123s-2 .74-2.187 2.714l2-.987s-1.75 1.789-2 2.899l1.25-.987s-1.188 1.172-1 2.96l.937-.986c-.187 2.282-.187 2.528.813 4.194 0 0-.25-2.59 0-2.96l2.25 2.343-1.188-3.27s1.438 1.975 2.188 1.913l-1.75-2.714 1.75 1.419-2-3.022 1.812.616s-1.312-1.727-1.187-2.837l1.312 1.419s-.5-1.48-.437-1.974l.75.062-1.313-1.357.875-.247-.062-.987.562-.123v-1.049m-1.062 0c-2.25 2.96-1.125 7.463-2.438 9.869" style="fill-rule:nonzero;fill:#016a16;fill-opacity:1;stroke-width:.2;stroke-linecap:butt;stroke-linejoin:miter;stroke:#000;stroke-opacity:1;stroke-miterlimit:4" transform="matrix(.0625 0 0 .06333 -3.125 0)"/><path d="M249.775 121.875c-7.75-7.771-13.875-3.947-15.25-2.899 1 .247 1.75-.37 2.25-.493l-1 1.233s2.5-.987 2.812-.987c-.375.247-.812.987-.812.987.25 0 1.625-1.11 1.812-1.11-.375.37-.5 1.48-.5 1.48l1.188-.493c.312.185-.063.617.125.617 2-.185 4.687 1.665 5 2.282" style="fill-rule:nonzero;fill:#016a16;fill-opacity:1;stroke-width:.2;stroke-linecap:butt;stroke-linejoin:miter;stroke:#000;stroke-opacity:1;stroke-miterlimit:4" transform="matrix(-.0625 0 0 .06333 28.119 0)"/><path d="M247.9 123.294c-.813-1.79-15.625-4.996-18.625.308 1.25.308 2.312-.987 2.312-.987v1.172l1.938-1.604-.75 1.604 1.5-1.295v1.295l2-1.974-.25 1.11 1.687-.74-.187.987" style="fill-rule:nonzero;fill:#016a16;fill-opacity:1;stroke-width:.2;stroke-linecap:butt;stroke-linejoin:miter;stroke:#000;stroke-opacity:1;stroke-miterlimit:4" transform="matrix(-.0625 0 0 .06333 28.119 0)"/><path d="M247.212 123.602c-3.812-2.529-9.625-.802-9.625-.802-3.812 1.974-5.812 1.727-6.187 5.613.312-.124 1.312-1.419 1.312-1.419l.813 1.48.187-2.097.563 1.727 1-2.775.25 1.85 1.375-1.85.625.555.562-1.48.625.987s1-.617 1.5-.309l1-1.172.313.864 1-.987.25.74.937-.802v.555h3" style="fill-rule:nonzero;fill:#016a16;fill-opacity:1;stroke-width:.2;stroke-linecap:butt;stroke-linejoin:miter;stroke:#000;stroke-opacity:1;stroke-miterlimit:4" transform="matrix(-.0625 0 0 .06333 28.119 0)"/><path d="M246.4 123.972c-2.688 0-10.313 2.899-12.188 5.798l1.313-.555.25 1.172.5-1.172.125.986c.25-.801.687-.863 1.187-.123l.188-1.048.312.986.5-1.11s.313 1.172.5 1.172c0 0 .813-2.159 1.188-2.282l.125 1.419.5-1.419.5.987v-1.357l.625.987s.187-.987.562-1.234l.813.74 3.375-2.528" style="fill-rule:nonzero;fill:#016a16;fill-opacity:1;stroke-width:.2;stroke-linecap:butt;stroke-linejoin:miter;stroke:#000;stroke-opacity:1;stroke-miterlimit:4" transform="matrix(-.0625 0 0 .06333 28.119 0)"/><path d="M246.9 124.712c-3.5 1.295-6.688 6.168-6.375 8.203 1.5-2.035 1.187-1.727 1.875.555 0 0 .187-1.973.5-2.158l.5 1.418.125-1.912h.5l-.125-1.11.687.493c-.187-.678-.312-.925.438-1.48 0 0-1 .062-.25-1.542l.75.617s-.25-.678 0-.987l2.562-.802" style="fill-rule:nonzero;fill:#016a16;fill-opacity:1;stroke-width:.2;stroke-linecap:butt;stroke-linejoin:miter;stroke:#000;stroke-opacity:1;stroke-miterlimit:4" transform="matrix(-.0625 0 0 .06333 28.119 0)"/><path d="m247.212 125.02-1.312 2.591.687.185-1.562 1.11 1.25-.123s-2 .74-2.188 2.714l2-.987s-1.687 1.789-2 2.899l1.313-.987s-1.188 1.172-1 2.96l.875-.986c-.188 2.282-.188 2.528.812 4.194 0 0-.187-2.59 0-2.96l2.313 2.343-1.188-3.27s1.375 1.975 2.188 1.913l-1.813-2.714 1.813 1.419-2-3.022 1.812.616s-1.312-1.727-1.187-2.837l1.25 1.419s-.5-1.48-.375-1.974l.687.062-1.312-1.357.937-.247-.125-.987.625-.123v-1.049m-1.125 0c-2.187 2.96-1.062 7.463-2.375 9.869" style="fill-rule:nonzero;fill:#016a16;fill-opacity:1;stroke-width:.2;stroke-linecap:butt;stroke-linejoin:miter;stroke:#000;stroke-opacity:1;stroke-miterlimit:4" transform="matrix(-.0625 0 0 .06333 28.119 0)"/><path d="M251 166.53s1.125-10.054 1.125-14.248c0-3.392-.813-10.794-.813-10.794H248s-.5 7.402-.375 10.794c0 4.194 1.062 14.248 1.062 14.248Zm0 0" style="fill-rule:nonzero;fill:#f1b517;fill-opacity:1;stroke-width:.2;stroke-linecap:butt;stroke-linejoin:miter;stroke:#000;stroke-opacity:1;stroke-miterlimit:4" transform="matrix(.0625 0 0 .06333 -3.125 0)"/><path d="M247.687 141.982h4l-.5-2.652h-2.875Zm0 0" style="fill-rule:nonzero;fill:#f1b517;fill-opacity:1;stroke-width:.2;stroke-linecap:butt;stroke-linejoin:miter;stroke:#000;stroke-opacity:1;stroke-miterlimit:4" transform="matrix(.0625 0 0 .06333 -3.125 0)"/><path d="M248 139.823h3.5l-.688-2.714h-2.187Zm0 0" style="fill-rule:nonzero;fill:#f1b517;fill-opacity:1;stroke-width:.2;stroke-linecap:butt;stroke-linejoin:miter;stroke:#000;stroke-opacity:1;stroke-miterlimit:4" transform="matrix(.0625 0 0 .06333 -3.125 0)"/><path d="M248.187 137.726h3l-.562-2.714h-1.938Zm0 0" style="fill-rule:nonzero;fill:#f1b517;fill-opacity:1;stroke-width:.2;stroke-linecap:butt;stroke-linejoin:miter;stroke:#000;stroke-opacity:1;stroke-miterlimit:4" transform="matrix(.0625 0 0 .06333 -3.125 0)"/><path d="M250.687 134.704h-2l-.312.987h2.5Zm.438 29.667H248.5m2.812-1.974h-3m3.375-1.973h-3.812m4-2.098h-4m4-2.22h-4.063m4.188-2.035h-4.375m4.375-1.666h-4.625m4.625-2.22h-4.625m4.5-2.097h-4.5m4.312-2.159h-4.062m3.875-2.035h-3.688" style="fill-rule:nonzero;fill:#f1b517;fill-opacity:1;stroke-width:.2;stroke-linecap:butt;stroke-linejoin:miter;stroke:#000;stroke-opacity:1;stroke-miterlimit:4" transform="matrix(.0625 0 0 .06333 -3.125 0)"/><path d="M250 118.976c-.813-.247-2.313-1.295-1.875-1.85l.687-1.234c1-2.22 0-1.418 0-1.973-.187-.802 3.813-.247 3.813 1.295 0 .493-.313.185-.25 2.59l-.75 1.48c-.625.062-1.188 0-1.75-.184Zm0 0" style="fill-rule:nonzero;fill:#0a328c;fill-opacity:1;stroke-width:.2;stroke-linecap:butt;stroke-linejoin:miter;stroke:#0a328c;stroke-opacity:1;stroke-miterlimit:4" transform="matrix(.0625 0 0 .06333 -3.125 0)"/><path d="m250.375 125.02-1-.925.312-7.093 1 .309-.312 7.586Zm0 0" style="fill-rule:nonzero;fill:#f1b517;fill-opacity:1;stroke-width:.2;stroke-linecap:butt;stroke-linejoin:miter;stroke:#000;stroke-opacity:1;stroke-miterlimit:4" transform="matrix(.0625 0 0 .06333 -3.125 0)"/><path d="M251.687 119.285c.625-.37 1-1.48.625-2.098-1-1.295-1.687-.801-3.437-1.356-.25.37-1 .986-.875 1.542 2.312 1.048 1.375.246 2.187.308.438 0 .625.493 1.5 1.542Zm0 0" style="fill-rule:nonzero;fill:#d20014;fill-opacity:1;stroke-width:.2;stroke-linecap:butt;stroke-linejoin:miter;stroke:#d20014;stroke-opacity:1;stroke-miterlimit:4" transform="matrix(.0625 0 0 .06333 -3.125 0)"/><path d="M238.5 160.1c-.25.555-.938.863-2 .925-1.625.062-1.688-.432-2-.925v.37c.125.74.812 1.172 2 1.233 1.312 0 2.062-.431 2.125-1.233Zm0 0" style="fill-rule:nonzero;fill:#016a16;fill-opacity:1;stroke-width:.2;stroke-linecap:round;stroke-linejoin:miter;stroke:#fff;stroke-opacity:1;stroke-miterlimit:4" transform="matrix(.0625 0 0 -.06333 -3.125 20.292)"/><path d="M238.375 161.78c0 1.234-.875 2.344-1.875 2.344s-1.813-1.048-1.813-2.405v-1.234h3.688Zm0 0" style="fill-rule:nonzero;fill:#016a16;fill-opacity:1;stroke-width:.2;stroke-linecap:round;stroke-linejoin:miter;stroke:#fff;stroke-opacity:1;stroke-miterlimit:4" transform="matrix(.0625 0 0 .06333 -3.125 0)"/><path d="M11.77 10.14c0-.03-.051-.058-.114-.058-.062 0-.113.027-.113.059 0 .03.05.054.113.054s.114-.023.114-.054m0 0" style="stroke:none;fill-rule:nonzero;fill:#fff;fill-opacity:1"/><path d="m236.125 160.979-.313-3.208h1.375l-.187 3.331h-.875Zm0 0" style="fill-rule:nonzero;fill:#016a16;fill-opacity:1;stroke-width:.2;stroke-linecap:butt;stroke-linejoin:miter;stroke:#f1b517;stroke-opacity:1;stroke-miterlimit:4" transform="matrix(.0625 0 0 .06333 -3.125 0)"/><path d="M238.5 160.115c-.25.494-.938.802-2 .864-1.625.123-1.688-.37-2-.864v.37c.125.74.812 1.172 2 1.234 1.312 0 2.062-.432 2.125-1.234Zm0 0" style="fill-rule:nonzero;fill:#016a16;fill-opacity:1;stroke-width:.2;stroke-linecap:round;stroke-linejoin:miter;stroke:#fff;stroke-opacity:1;stroke-miterlimit:4" transform="matrix(.0625 0 0 .06333 -3.125 0)"/><path d="m246 172.82-7-2.22-3.125-5.304-10.875-.493.375 4.009 9.312 1.665.813 1.604 10.687 3.022Zm0 0" style="fill-rule:nonzero;fill:#f1b517;fill-opacity:1;stroke-width:.2;stroke-linecap:butt;stroke-linejoin:miter;stroke:#000;stroke-opacity:1;stroke-miterlimit:4" transform="matrix(.0625 0 0 .06333 -3.125 0)"/><path d="m238.687 174.301-11.187-16.53-.5.555 11 16.345Zm0 0" style="fill-rule:nonzero;fill:#503200;fill-opacity:1;stroke-width:.2;stroke-linecap:butt;stroke-linejoin:miter;stroke:#000;stroke-opacity:1;stroke-miterlimit:4" transform="matrix(.0625 0 0 .06333 -3.125 0)"/><path d="m228.625 158.512-1.25-2.036c-.25-.37-.625-.432-1.063-.185q-.656.37-.187 1.11l1 1.912Zm0 0" style="fill-rule:nonzero;fill:#fff;fill-opacity:1;stroke-width:.2;stroke-linecap:butt;stroke-linejoin:miter;stroke:#000;stroke-opacity:1;stroke-miterlimit:4" transform="matrix(.0625 0 0 .06333 -3.125 0)"/><path d="m240 164.124-22.5-2.344-.625 3.331 22.437 2.282Zm0 0" style="fill-rule:nonzero;fill:#f1b517;fill-opacity:1;stroke-width:.2;stroke-linecap:butt;stroke-linejoin:miter;stroke:#000;stroke-opacity:1;stroke-miterlimit:4" transform="matrix(.0625 0 0 .06333 -3.125 0)"/><path d="m217 160.979-.5 4.502h1l.625-4.07Zm3.812.74-.187 4.07h.562l.5-3.515Zm15.313 1.788-.625 3.763h1.125l.5-3.763Zm3.25.124-.688 4.379 1.188.185.437-2.282c.063.493.375.802 1 .802.625-.062 1-.432 1-.987 0-.617-.375-.987-1-1.049-.437 0-.812.247-1 .617l.313-1.604Zm-8 .678-3.188 3.516.438.37 4-2.714ZM224 173.006l3.125-3.516-.313-.37-4 2.652Zm8.125-.925-3.75-2.9-.375.31 3 3.823Zm-9.313-6.662 3.875 2.776.438-.308-3-3.763Zm4.188-2.343.375 4.625h.5l1.25-4.502Zm1.187 11.04-.312-4.503h-.563l-.687 4.565Zm5.125-6.044-4.812.431v.494l4.812.616Zm-11.437 1.541 4.75-.74v-.37l-4.813-.493v1.603Zm0 0" style="fill-rule:nonzero;fill:#f1b517;fill-opacity:1;stroke-width:.2;stroke-linecap:butt;stroke-linejoin:miter;stroke:#000;stroke-opacity:1;stroke-miterlimit:4" transform="matrix(.0625 0 0 .06333 -3.125 0)"/><path d="M229 168.627c0-.679-.563-1.234-1.313-1.234-.687 0-1.312.555-1.312 1.234 0 .616.625 1.172 1.312 1.172.75 0 1.313-.556 1.313-1.172Zm0 0" style="fill-rule:nonzero;fill:#f1b517;fill-opacity:1;stroke-width:.2;stroke-linecap:butt;stroke-linejoin:miter;stroke:#000;stroke-opacity:1;stroke-miterlimit:4" transform="matrix(.0625 0 0 .06333 -3.125 0)"/><path d="M234.375 168.627c0 3.454-3 6.476-6.688 6.476-3.625.061-6.625-2.837-6.687-6.476 0-3.64 3-6.538 6.687-6.538 3.688-.062 6.688 2.837 6.688 6.538Zm-1.25 0c-.063 2.898-2.5 5.242-5.438 5.18a5.43 5.43 0 0 1-3.812-1.541 5.28 5.28 0 0 1-1.563-3.763c.125-2.899 2.5-5.18 5.375-5.119 2.938-.062 5.375 2.282 5.438 5.243Zm0 0" style="fill-rule:evenodd;fill:#f1b517;fill-opacity:1;stroke-width:.2;stroke-linecap:round;stroke-linejoin:miter;stroke:#000;stroke-opacity:1;stroke-miterlimit:4" transform="matrix(.0625 0 0 .06333 -3.125 0)"/><path d="m223.5 165.296-1-.802m8.5 0 1-.987m1 9.19-1.125-.925m-8.375 1.912 1-.987m21.687-10.608 1.125 5.983-.937.431-1-6.29Zm0 0" style="fill-rule:nonzero;fill:#f1b517;fill-opacity:1;stroke-width:.2;stroke-linecap:butt;stroke-linejoin:miter;stroke:#000;stroke-opacity:1;stroke-miterlimit:4" transform="matrix(.0625 0 0 .06333 -3.125 0)"/><path d="M245.625 161.41c-.5-.308-1.25.062-2.438-1.295-1.875 1.665 0 1.974.188 3.7.5.186.937-1.418 2.312-1.541l2.313-.185-.5-.679Zm0 0" style="fill-rule:nonzero;fill:#fff;fill-opacity:1;stroke-width:.2;stroke-linecap:butt;stroke-linejoin:miter;stroke:#000;stroke-opacity:1;stroke-miterlimit:4" transform="matrix(.0625 0 0 .06333 -3.125 0)"/><path d="m246.375 162.52-.188-1.726c-.312-.679-1-.124-1 .185l.188 1.727Zm0 0" style="fill-rule:nonzero;fill:#fff;fill-opacity:1;stroke-width:.2;stroke-linecap:butt;stroke-linejoin:miter;stroke:#000;stroke-opacity:1;stroke-miterlimit:4" transform="matrix(.0625 0 0 .06333 -3.125 0)"/><path d="M240.812 167.393v1.604c-.625.185-.5.616-.5 1.233v4.688c-.187.308-.562.493-1 .555-.437.432-.062.74 1 1.048l1 .062c1.438-.37 1.813-.74 1-.987-.5-.185-.812-.37-1-.617v-1.171h1c.188 0 .688-.617.688-1.11v-2.468c0-1.418-1-1.603-1.375-1.542v-1.295Zm1.563 2.714c0-.432-.563-.802-.75-.802-.375.123-.563.432-.75.925v.987c0 .37.312 1.604.937 1.665.25-.061.438-.308.563-.801Zm0 0" style="fill-rule:evenodd;fill:#f1b517;fill-opacity:1;stroke-width:.2;stroke-linecap:butt;stroke-linejoin:miter;stroke:#000;stroke-opacity:1;stroke-miterlimit:4" transform="matrix(.0625 0 0 .06333 -3.125 0)"/><path d="M234.312 172.327c-.687-.246-.687 1.172-.687 1.172h1c.5.247.687.679.562 1.172-.312.247-2.187-.493-2.312 0 .312 1.912 2.937 2.652 3.812 1.85.938-.801 1.125-3.022-1.812-3.7Zm.563.555-.25.617" style="fill-rule:nonzero;fill:#fff;fill-opacity:1;stroke-width:.2;stroke-linecap:butt;stroke-linejoin:miter;stroke:#000;stroke-opacity:1;stroke-miterlimit:4" transform="matrix(.0625 0 0 .06333 -3.125 0)"/><path d="m215 173.006-1-4.01m2.125 3.825-1.5-3.146m4 2.344-3.313-1.789m4.813 1.357-6.25-2.714" style="fill-rule:nonzero;fill:#f1b517;fill-opacity:1;stroke-width:.2;stroke-linecap:butt;stroke-linejoin:miter;stroke:#000;stroke-opacity:1;stroke-miterlimit:4" transform="matrix(.0625 0 0 .06333 -3.125 0)"/><path d="m210.187 165.975-2.562.123c-.25.123.5.925.375 1.11-.625 1.11-4.375.987-4.688.802-.5-.494 3.5-.802 3.563-.987 0-.432-.563-1.234-.5-1.727 0-.678 1.75-.987 1.75-.987Zm0 0" style="fill-rule:nonzero;fill:#d20014;fill-opacity:1;stroke-width:.2;stroke-linecap:butt;stroke-linejoin:miter;stroke:#d20014;stroke-opacity:1;stroke-miterlimit:4" transform="matrix(.0625 0 0 .06333 -3.125 0)"/><path d="m213.187 168.01-5-4.194s-.312-.185-.5 0c-.187.185 0 .37 0 .37l5.438 4.44.062-.554Zm0 0" style="fill-rule:nonzero;fill:#503200;fill-opacity:1;stroke-width:.2;stroke-linecap:butt;stroke-linejoin:miter;stroke:#000;stroke-opacity:1;stroke-miterlimit:4" transform="matrix(.0625 0 0 .06333 -3.125 0)"/><path d="M218.187 172.204 214 168.627l-.313-1.049-.812.617c-.25.185-.563.802-.563.802h1.063l3.625 3.392 1.125-.185ZM233.187 177.076a.69.69 0 0 0-.687-.678.69.69 0 0 0-.688.678c0 .432.313.74.688.74s.687-.308.687-.74ZM231.312 175.72c0-.432-.312-.74-.687-.74-.438 0-.75.308-.75.74 0 .37.312.678.75.678a.69.69 0 0 0 .687-.678ZM228.812 176.583a.69.69 0 0 0-.687-.678c-.438 0-.75.308-.75.678 0 .432.312.74.75.74.375 0 .687-.308.687-.74ZM224.875 177.385a.69.69 0 0 0-.688-.679.69.69 0 0 0-.687.679c0 .432.312.74.687.74s.688-.308.688-.74ZM223.187 177.57a.69.69 0 0 0-.687-.679.69.69 0 0 0-.688.679c0 .432.313.74.688.74s.687-.308.687-.74ZM221.5 177.57a.69.69 0 0 0-.688-.679.69.69 0 0 0-.687.679c0 .432.312.74.687.74s.688-.308.688-.74ZM219.875 177.57a.69.69 0 0 0-.688-.679.69.69 0 0 0-.687.679c0 .432.312.74.687.74s.688-.308.688-.74ZM220.687 176.275a.69.69 0 0 0-.687-.679.69.69 0 0 0-.688.679c0 .431.313.74.688.74s.687-.309.687-.74Zm0 0" style="fill-rule:nonzero;fill:#f1b517;fill-opacity:1;stroke-width:.2;stroke-linecap:butt;stroke-linejoin:miter;stroke:#000;stroke-opacity:1;stroke-miterlimit:4" transform="matrix(.0625 0 0 .06333 -3.125 0)"/><path d="M222.312 176.398a.69.69 0 0 0-.687-.678c-.438 0-.75.308-.75.678s.312.678.75.678a.69.69 0 0 0 .687-.678ZM223.812 176.213c0-.37-.312-.74-.687-.74-.438 0-.75.37-.75.74s.312.678.75.678a.69.69 0 0 0 .687-.678Zm0 0" style="fill-rule:nonzero;fill:#f1b517;fill-opacity:1;stroke-width:.2;stroke-linecap:butt;stroke-linejoin:miter;stroke:#000;stroke-opacity:1;stroke-miterlimit:4" transform="matrix(.0625 0 0 .06333 -3.125 0)"/><path d="M223.125 174.98c0-.37-.313-.679-.75-.679a.69.69 0 0 0-.688.678c0 .432.313.74.688.74.437 0 .75-.308.75-.74ZM221.5 174.918c0-.432-.313-.74-.688-.74s-.687.308-.687.74c0 .37.312.678.687.678a.69.69 0 0 0 .688-.678Zm0 0" style="fill-rule:nonzero;fill:#f1b517;fill-opacity:1;stroke-width:.2;stroke-linecap:butt;stroke-linejoin:miter;stroke:#000;stroke-opacity:1;stroke-miterlimit:4" transform="matrix(.0625 0 0 .06333 -3.125 0)"/><path d="M236.5 178.002c0-.309-.813-.185-.813-.617 0-.37 1.188 0 1.313.308.687-.617 1-.185 1.375 0 .687-.802 1.375-.863 2-.185.437-.432 1.437-.308 1.75.185q.937-.833 1.687 0c.188-.308.438-.308.688 0 .312-.678 1.187-.493 1.625 0 .25-.37.687-.123 1.062.124.438-.247.688-.247.813 0 0 .37-.625.308-.625.555 0 .308.437 0 .437.431 0 .309-.625.37-.687 0-.313.37-1.125.185-1.25-.185-.313.247-.813.247-1.188 0-.312.185-.562.185-.812 0-.5.494-1.375.37-1.688-.246h-.312a.9.9 0 0 1-.75.37.98.98 0 0 1-.75-.37c-.75.555-1.438.555-1.875 0-.5.74-1.375.74-1.5 0-.375.308-1.188.431-1.188 0 0-.185.688-.062.688-.37Zm1.625.123c0 .185-.188.247-.438.247s-.375-.062-.375-.247c0-.247.125-.308.375-.247Zm1.875-.247c0 .247-.188.309-.625.309-.375 0-.563-.062-.5-.309 0-.123.187-.185.5-.308.375-.062.5.062.5.308Zm3.5.247c0 .185-.188.247-.5.247-.313 0-.438-.062-.375-.247 0-.185.125-.247.375-.308.375 0 .562.061.5.308Zm-1.875 0c0 .185-.188.247-.5.247-.375 0-.5-.124-.438-.37.063-.247.188-.432.438-.432.312 0 .5.185.5.432Zm4 0c0 .123-.125.185-.313.247-.375 0-.5-.124-.5-.37 0-.247.125-.37.5-.309.188 0 .313.124.375.309Zm-1.25 0c0 .185-.063.247-.188.247s-.25-.062-.312-.247c0-.247.125-.308.312-.247Zm2.437.062c0 .185-.125.37-.312.431-.125 0-.25-.123-.313-.431-.062-.247.063-.37.313-.309.187 0 .312.124.312.309Zm0 0" style="fill-rule:evenodd;fill:#f1b517;fill-opacity:1;stroke-width:.2;stroke-linecap:butt;stroke-linejoin:miter;stroke:#000;stroke-opacity:1;stroke-miterlimit:4" transform="matrix(.0625 0 0 .06333 -3.125 0)"/><path d="m246.025 172.82-7-2.22-3.125-5.304-10.875-.493.375 4.009 9.312 1.665.813 1.604 10.687 3.022Zm0 0" style="fill-rule:nonzero;fill:#f1b517;fill-opacity:1;stroke-width:.2;stroke-linecap:butt;stroke-linejoin:miter;stroke:#000;stroke-opacity:1;stroke-miterlimit:4" transform="matrix(-.0625 0 0 .06333 28.119 0)"/><path d="m238.712 174.301-11.187-16.53-.5.555 11 16.345Zm0 0" style="fill-rule:nonzero;fill:#503200;fill-opacity:1;stroke-width:.2;stroke-linecap:butt;stroke-linejoin:miter;stroke:#000;stroke-opacity:1;stroke-miterlimit:4" transform="matrix(-.0625 0 0 .06333 28.119 0)"/><path d="m228.587 158.512-1.187-2.036q-.375-.555-1.125-.185-.563.37-.188 1.11l1 1.912Zm0 0" style="fill-rule:nonzero;fill:#fff;fill-opacity:1;stroke-width:.2;stroke-linecap:butt;stroke-linejoin:miter;stroke:#000;stroke-opacity:1;stroke-miterlimit:4" transform="matrix(-.0625 0 0 .06333 28.119 0)"/><path d="m240.025 164.124-22.5-2.344-.625 3.331 22.375 2.282Zm0 0" style="fill-rule:nonzero;fill:#f1b517;fill-opacity:1;stroke-width:.2;stroke-linecap:butt;stroke-linejoin:miter;stroke:#000;stroke-opacity:1;stroke-miterlimit:4" transform="matrix(-.0625 0 0 .06333 28.119 0)"/><path d="m217.025 160.979-.5 4.502h1l.562-4.07Zm3.75.74-.188 4.07h.625l.5-3.515Zm15.312 1.788-.562 3.763h1.062l.5-3.763Zm3.313.124-.688 4.379 1.188.185.375-2.282c.062.493.437.802 1 .802.687-.062 1-.432 1-.987 0-.617-.313-.987-1-1.049a1.19 1.19 0 0 0-1 .617l.312-1.604Zm-8 .678-3.188 3.516.375.37 4-2.714Zm-7.375 8.697 3.062-3.516-.312-.37-4 2.652Zm8.062-.925-3.687-2.9-.375.31 3 3.823Zm-9.312-6.662 3.937 2.776.375-.308-3-3.763Zm4.25-2.343.375 4.625h.5l1.187-4.502Zm1.187 11.04-.312-4.503h-.625l-.688 4.565Zm5.063-6.044-4.75.431v.494l4.75.616Zm-11.375 1.541 4.687-.74v-.37l-4.812-.493v1.603Zm0 0" style="fill-rule:nonzero;fill:#f1b517;fill-opacity:1;stroke-width:.2;stroke-linecap:butt;stroke-linejoin:miter;stroke:#000;stroke-opacity:1;stroke-miterlimit:4" transform="matrix(-.0625 0 0 .06333 28.119 0)"/><path d="M229.025 168.627c0-.679-.625-1.234-1.313-1.234-.75 0-1.312.555-1.312 1.234 0 .616.562 1.172 1.312 1.172.688 0 1.313-.556 1.313-1.172Zm0 0" style="fill-rule:nonzero;fill:#f1b517;fill-opacity:1;stroke-width:.2;stroke-linecap:butt;stroke-linejoin:miter;stroke:#000;stroke-opacity:1;stroke-miterlimit:4" transform="matrix(-.0625 0 0 .06333 28.119 0)"/><path d="M234.4 168.627c0 3.454-3 6.476-6.688 6.476-3.687.061-6.687-2.837-6.687-6.476 0-3.64 3-6.538 6.687-6.538 3.625-.062 6.625 2.837 6.688 6.538Zm-1.313 0c-.062 2.898-2.437 5.242-5.375 5.18a5.43 5.43 0 0 1-3.812-1.541c-1-.987-1.625-2.344-1.625-3.763.125-2.899 2.562-5.18 5.437-5.119 2.938-.062 5.313 2.282 5.375 5.243Zm0 0" style="fill-rule:evenodd;fill:#f1b517;fill-opacity:1;stroke-width:.2;stroke-linecap:round;stroke-linejoin:miter;stroke:#000;stroke-opacity:1;stroke-miterlimit:4" transform="matrix(-.0625 0 0 .06333 28.119 0)"/><path d="m223.525 165.296-1-.802m8.5 0 1-.987m1 9.19-1.125-.925m-8.375 1.912 1-.987m21.687-10.608 1.063 5.983-.875.431-1-6.29Zm0 0" style="fill-rule:nonzero;fill:#f1b517;fill-opacity:1;stroke-width:.2;stroke-linecap:butt;stroke-linejoin:miter;stroke:#000;stroke-opacity:1;stroke-miterlimit:4" transform="matrix(-.0625 0 0 .06333 28.119 0)"/><path d="M245.587 161.41c-.5-.308-1.187.062-2.375-1.295-1.937 1.665 0 1.974.188 3.7.5.186.875-1.418 2.312-1.541l2.313-.185-.5-.679Zm0 0" style="fill-rule:nonzero;fill:#fff;fill-opacity:1;stroke-width:.2;stroke-linecap:butt;stroke-linejoin:miter;stroke:#000;stroke-opacity:1;stroke-miterlimit:4" transform="matrix(-.0625 0 0 .06333 28.119 0)"/><path d="m246.4 162.52-.188-1.726c-.312-.679-1-.124-1 .185l.188 1.727Zm0 0" style="fill-rule:nonzero;fill:#fff;fill-opacity:1;stroke-width:.2;stroke-linecap:butt;stroke-linejoin:miter;stroke:#000;stroke-opacity:1;stroke-miterlimit:4" transform="matrix(-.0625 0 0 .06333 28.119 0)"/><path d="M240.775 167.393v1.604c-.563.185-.5.616-.5 1.233v4.688c-.188.308-.5.493-1 .555-.375.432-.063.74 1 1.048l1 .062c1.5-.37 1.812-.74 1-.987-.438-.185-.75-.37-1-.617v-1.171h1c.25 0 .75-.617.75-1.11v-2.468c0-1.418-1-1.603-1.438-1.542v-1.295Zm1.625 2.714c0-.432-.625-.802-.813-.802-.312.123-.562.432-.687.925v.987c0 .37.312 1.604.875 1.665.312-.061.5-.308.625-.801Zm0 0" style="fill-rule:evenodd;fill:#f1b517;fill-opacity:1;stroke-width:.2;stroke-linecap:butt;stroke-linejoin:miter;stroke:#000;stroke-opacity:1;stroke-miterlimit:4" transform="matrix(-.0625 0 0 .06333 28.119 0)"/><path d="M234.275 172.327c-.688-.246-.688 1.172-.688 1.172h1c.563.247.75.679.625 1.172-.312.247-2.187-.493-2.312 0 .312 1.912 2.875 2.652 3.812 1.85.875-.801 1.063-3.022-1.812-3.7Zm.625.555-.313.617" style="fill-rule:nonzero;fill:#fff;fill-opacity:1;stroke-width:.2;stroke-linecap:butt;stroke-linejoin:miter;stroke:#000;stroke-opacity:1;stroke-miterlimit:4" transform="matrix(-.0625 0 0 .06333 28.119 0)"/><path d="m215.025 173.006-1-4.01m2.062 3.825-1.5-3.146m4 2.344-3.312-1.789m4.812 1.357-6.187-2.714" style="fill-rule:nonzero;fill:#f1b517;fill-opacity:1;stroke-width:.2;stroke-linecap:butt;stroke-linejoin:miter;stroke:#000;stroke-opacity:1;stroke-miterlimit:4" transform="matrix(-.0625 0 0 .06333 28.119 0)"/><path d="m210.212 165.975-2.625.123c-.187.123.5.925.438 1.11-.625 1.11-4.438.987-4.75.802-.5-.494 3.5-.802 3.625-.987 0-.432-.625-1.234-.5-1.727 0-.678 1.687-.987 1.687-.987Zm0 0" style="fill-rule:nonzero;fill:#d20014;fill-opacity:1;stroke-width:.2;stroke-linecap:butt;stroke-linejoin:miter;stroke:#d20014;stroke-opacity:1;stroke-miterlimit:4" transform="matrix(-.0625 0 0 .06333 28.119 0)"/><path d="m213.212 168.01-5-4.194s-.312-.185-.5 0c-.187.185 0 .37 0 .37l5.375 4.44.125-.554Zm0 0" style="fill-rule:nonzero;fill:#503200;fill-opacity:1;stroke-width:.2;stroke-linecap:butt;stroke-linejoin:miter;stroke:#000;stroke-opacity:1;stroke-miterlimit:4" transform="matrix(-.0625 0 0 .06333 28.119 0)"/><path d="m218.212 172.204-4.187-3.577-.313-1.049-.812.617c-.313.185-.625.802-.625.802h1.125l3.625 3.392 1.062-.185ZM233.212 177.076a.69.69 0 0 0-.687-.678c-.438 0-.75.308-.75.678 0 .432.312.74.75.74.375 0 .687-.308.687-.74ZM231.275 175.72c0-.432-.313-.74-.688-.74s-.687.308-.687.74c0 .37.312.678.687.678a.69.69 0 0 0 .688-.678ZM228.775 176.583a.69.69 0 0 0-.688-.678.69.69 0 0 0-.687.678c0 .432.312.74.687.74s.688-.308.688-.74ZM224.9 177.385a.69.69 0 0 0-.688-.679.69.69 0 0 0-.687.679c0 .432.312.74.687.74s.688-.308.688-.74ZM223.212 177.57a.69.69 0 0 0-.687-.679c-.438 0-.75.309-.75.679 0 .432.312.74.75.74.375 0 .687-.308.687-.74ZM221.525 177.57c0-.37-.313-.679-.75-.679a.69.69 0 0 0-.688.679c0 .432.313.74.688.74.437 0 .75-.308.75-.74ZM219.9 177.57a.69.69 0 0 0-.688-.679.69.69 0 0 0-.687.679c0 .432.312.74.687.74s.688-.308.688-.74ZM220.712 176.275a.69.69 0 0 0-.687-.679c-.438 0-.75.309-.75.679 0 .431.312.74.75.74.375 0 .687-.309.687-.74Zm0 0" style="fill-rule:nonzero;fill:#f1b517;fill-opacity:1;stroke-width:.2;stroke-linecap:butt;stroke-linejoin:miter;stroke:#000;stroke-opacity:1;stroke-miterlimit:4" transform="matrix(-.0625 0 0 .06333 28.119 0)"/><path d="M222.275 176.398a.69.69 0 0 0-.688-.678.69.69 0 0 0-.687.678c0 .37.312.678.687.678a.69.69 0 0 0 .688-.678ZM223.775 176.213c0-.37-.313-.74-.688-.74s-.687.37-.687.74.312.678.687.678a.69.69 0 0 0 .688-.678Zm0 0" style="fill-rule:nonzero;fill:#f1b517;fill-opacity:1;stroke-width:.2;stroke-linecap:butt;stroke-linejoin:miter;stroke:#000;stroke-opacity:1;stroke-miterlimit:4" transform="matrix(-.0625 0 0 .06333 28.119 0)"/><path d="M223.087 174.98a.69.69 0 0 0-.687-.679.69.69 0 0 0-.688.678c0 .432.313.74.688.74s.687-.308.687-.74ZM221.525 174.918c0-.432-.313-.74-.75-.74-.375 0-.688.308-.688.74 0 .37.313.678.688.678.437 0 .75-.308.75-.678Zm0 0" style="fill-rule:nonzero;fill:#f1b517;fill-opacity:1;stroke-width:.2;stroke-linecap:butt;stroke-linejoin:miter;stroke:#000;stroke-opacity:1;stroke-miterlimit:4" transform="matrix(-.0625 0 0 .06333 28.119 0)"/><path d="M236.525 178.002c0-.309-.813-.185-.813-.617 0-.37 1.188 0 1.313.308.687-.617 1-.185 1.375 0 .687-.802 1.312-.863 2-.185.375-.432 1.375-.308 1.687.185q1.032-.833 1.688 0c.25-.308.437-.308.75 0 .25-.678 1.187-.493 1.562 0 .313-.37.688-.123 1.125.124.375-.247.625-.247.813 0 0 .37-.625.308-.625.555 0 .308.375 0 .375.431 0 .309-.563.37-.688 0-.312.37-1.062.185-1.187-.185-.375.247-.875.247-1.188 0-.375.185-.625.185-.812 0-.5.494-1.375.37-1.688-.246h-.312a.9.9 0 0 1-.75.37.9.9 0 0 1-.75-.37q-1.22.833-1.875 0c-.5.74-1.438.74-1.5 0-.438.308-1.25.431-1.25 0 0-.185.75-.062.75-.37Zm1.562.123c0 .185-.125.247-.375.247s-.437-.062-.437-.247c0-.247.187-.308.437-.247Zm1.938-.247c0 .247-.25.309-.625.309s-.563-.062-.5-.309c0-.123.187-.185.5-.308.312-.062.5.062.5.308Zm3.5.247c0 .185-.188.247-.5.247-.375 0-.5-.062-.438-.247 0-.185.125-.247.438-.308.375 0 .562.061.5.308Zm-1.938 0c0 .185-.125.247-.5.247q-.468 0-.375-.37c.063-.247.188-.432.375-.432.375 0 .5.185.5.432Zm4 0c0 .123-.062.185-.312.247-.313 0-.5-.124-.5-.37 0-.247.187-.37.5-.309.25 0 .375.124.437.309Zm-1.187 0c0 .185-.063.247-.188.247s-.25-.062-.312-.247c0-.247.125-.308.312-.247Zm2.375.062c0 .185-.063.37-.25.431-.188 0-.25-.123-.313-.431-.062-.247 0-.37.313-.309.187 0 .25.124.25.309Zm0 0" style="fill-rule:evenodd;fill:#f1b517;fill-opacity:1;stroke-width:.2;stroke-linecap:butt;stroke-linejoin:miter;stroke:#000;stroke-opacity:1;stroke-miterlimit:4" transform="matrix(-.0625 0 0 .06333 28.119 0)"/><path d="M249.812 165.728c-2.5 0-4.5.987-4.5 2.097q0 .278.188.555c.5.617 2.312 1.048 4.375 1.048 2.187 0 3.562-.308 4.25-.925.187-.185.25-.431.25-.678 0-1.11-2-2.036-4.563-2.036Zm0 0" style="fill-rule:nonzero;fill:#0a328c;fill-opacity:1;stroke-width:.2;stroke-linecap:butt;stroke-linejoin:miter;stroke:#0a328c;stroke-opacity:1;stroke-miterlimit:4" transform="matrix(.0625 0 0 .06333 -3.125 0)"/><path d="M254.375 168.01v6.97c0 .925-2 1.541-4.5 1.541s-4.563-.616-4.563-1.542v-6.97c0 .803 2 1.481 4.5 1.481 2.563 0 4.563-.678 4.563-1.48Zm0 0" style="fill-rule:nonzero;fill:#f1b517;fill-opacity:1;stroke-width:.2;stroke-linecap:butt;stroke-linejoin:miter;stroke:#000;stroke-opacity:1;stroke-miterlimit:4" transform="matrix(.0625 0 0 .06333 -3.125 0)"/><path d="M245.312 168.01v.987l2.188 7.031 1.812-5.428 2 5.49 1.313-5.181 1.75 3.515v-1.912l-1.563-3.392-.625.185-1 3.824-1.5-3.639H249l-1.5 3.64-1.625-4.442c-.375-.185-.563-.431-.563-.678Zm0 0" style="fill-rule:nonzero;fill:#d20014;fill-opacity:1;stroke-width:.2;stroke-linecap:butt;stroke-linejoin:miter;stroke:#d20014;stroke-opacity:1;stroke-miterlimit:4" transform="matrix(.0625 0 0 .06333 -3.125 0)"/><path d="M254.375 173.684v1.295c0 .926-2 1.542-4.5 1.542s-4.563-.616-4.563-1.542v-1.295c0 .925 2 1.542 4.5 1.542 2.563 0 4.563-.617 4.563-1.542Zm0 0" style="fill-rule:nonzero;fill:#0a328c;fill-opacity:1;stroke-width:.2;stroke-linecap:butt;stroke-linejoin:miter;stroke:#0a328c;stroke-opacity:1;stroke-miterlimit:4" transform="matrix(.0625 0 0 .06333 -3.125 0)"/><path d="m251.687 174.98-1.062.246v1.295l1.187-.123Zm-4.812-.062v1.295l1.125.185v-1.295Zm-1.563-1.234v1.295c0 .309.125.494.5.74v-1.295c-.375-.246-.5-.431-.5-.74Zm9.063.185q-.094.37-.75.74v1.296q.75-.278.75-.926Zm0 0" style="fill-rule:nonzero;fill:#f1b517;fill-opacity:1;stroke-width:.2;stroke-linecap:butt;stroke-linejoin:miter;stroke:#000;stroke-opacity:1;stroke-miterlimit:4" transform="matrix(.0625 0 0 .06333 -3.125 0)"/><path d="M254.375 168.01v6.97c0 .925-2 1.541-4.5 1.541s-4.563-.616-4.563-1.542v-6.97" style="fill:none;stroke-width:.2;stroke-linecap:butt;stroke-linejoin:miter;stroke:#000;stroke-opacity:1;stroke-miterlimit:4" transform="matrix(.0625 0 0 .06333 -3.125 0)"/><path d="M253.375 167.516c0 .494-1.563.987-3.5.987-2 0-3.563-.493-3.563-.987 0-.493 1.563-.925 3.5-.925 2 0 3.563.432 3.563.987Zm0 0" style="fill-rule:nonzero;fill:#fff;fill-opacity:1;stroke-width:.2;stroke-linecap:butt;stroke-linejoin:miter;stroke:#fff;stroke-opacity:1;stroke-miterlimit:4" transform="matrix(.0625 0 0 .06333 -3.125 0)"/><path d="m248.687 168.195.188 1.233h1l.125-1.233Zm4.125-.308-1 .185.063 1.233 1-.185Zm-5.437-1.974-.688.308.125.987.563-.185Zm2.437-.309h-.312l.187 1.172h.625l.188-1.172Zm2.688.37-.125 1.049.75.247v-.987Zm-6.5 2.838.187-1.296-1-.493v1.48Zm8.375-.309v-1.295l-.75.308Zm9.312-8.511c.813 0 2 .987 2.125 2.529 0 .986-1.687.986-1.687.986 0 .494-1 .864-1.813.987-.812.124.188-1.48.188-1.48-.5-1.295.187-2.714.187-2.714Zm0 0" style="fill-rule:nonzero;fill:#f1b517;fill-opacity:1;stroke-width:.2;stroke-linecap:butt;stroke-linejoin:miter;stroke:#000;stroke-opacity:1;stroke-miterlimit:4" transform="matrix(.0625 0 0 .06333 -3.125 0)"/><path d="M262.5 163.014h.812s0 .308.188.308c.187 0 .312-.431.312-.431H265" style="fill-rule:nonzero;fill:#f1b517;fill-opacity:1;stroke-width:.2;stroke-linecap:butt;stroke-linejoin:miter;stroke:#000;stroke-opacity:1;stroke-miterlimit:4" transform="matrix(.0625 0 0 .06333 -3.125 0)"/><path d="M264.125 160.917c.687-.493.062-1.542-.438-1.542h-1c-.562 0-1.375.617-1.312 1.049.062.493.375.74.812.555.188 0 .625-.555.813-.555s1 .555 1.125.493Zm0 0" style="fill-rule:nonzero;fill:#d20014;fill-opacity:1;stroke-width:.2;stroke-linecap:butt;stroke-linejoin:miter;stroke:#f1b517;stroke-opacity:1;stroke-miterlimit:4" transform="matrix(.0625 0 0 .06333 -3.125 0)"/><path d="M214.187 174.794c-.5.185-.687.679-.5 1.48a259 259 0 0 0-7.375 2.406c-.125-.493 1.188-1.789 1.188-1.789.312.124.625.926.625.926 0-1.604 1.562-2.59 1.562-2.59-1-.248-3.687.986-4 1.356 0 0 1-.185 1.188 0 0 0-2.188 2.344-2.25 3.022.375.679 4 1.295 4 1.295 0 .186-1 .987-1 .987 1.5.185 3.687-.801 4.25-1.357 0 0-1.688-.246-3-1.356 0 0 .25.74 0 1.048 0 0-2-.617-2.25-1.048 0 0 5-1.172 7.375-1.974.125.493.625 1.295 1.187 1.11.25-.185.25-.678 0-1.419l.625.185c.438 0 .688-.185.688-.678s-.25-.678-.688-.678a.97.97 0 0 0-.687.493c-.125-.493-.438-1.419-.813-1.295Zm2 1.604c0 .185-.125.308-.375.308-.125 0-.187 0-.312-.061-.063-.062-.125-.124-.125-.247 0-.185.187-.308.437-.37.25 0 .375.123.313.37Zm0 0" style="fill-rule:evenodd;fill:#f1b517;fill-opacity:1;stroke-width:.2;stroke-linecap:butt;stroke-linejoin:miter;stroke:#000;stroke-opacity:1;stroke-miterlimit:4" transform="matrix(.0625 0 0 .06333 -3.125 0)"/><path d="M293 177.878c.187-.37 0-2.158 0-2.158-.5 0-1 .678-1 .678.5-1.604-.813-4.009-.813-4.009.938.123 3.938 3.022 4 3.639 0 0-1.312-.555-1.5-.432.313 1.48 1.313 2.22 1.688 3.022 0 0-1.688.309-1.563 1.79h-1.125c-.375-.494.125-1.296.125-1.296l-7.687-3.207c-.5-.185-1.625-.802-1.438-1.419.125-.493 2 .308 2.438.493Zm0 0" style="fill-rule:nonzero;fill:#f1b517;fill-opacity:1;stroke-width:.2;stroke-linecap:butt;stroke-linejoin:miter;stroke:#000;stroke-opacity:1;stroke-miterlimit:4" transform="matrix(.0625 0 0 .06333 -3.125 0)"/><path d="m285.625 176.521 1-1.603c.25-.494-.438-1.049-.938-.432l-1 1.542c-.375.863.5 1.048 1 .493Zm0 0" style="fill-rule:nonzero;fill:#f1b517;fill-opacity:1;stroke-width:.2;stroke-linecap:butt;stroke-linejoin:miter;stroke:#000;stroke-opacity:1;stroke-miterlimit:4" transform="matrix(.0625 0 0 .06333 -3.125 0)"/><path d="m290.2 288.553-.1-2.96-3.5.295-.2 3.158Zm0 0" style="fill-rule:nonzero;fill:#fff;fill-opacity:1;stroke-width:.3;stroke-linecap:butt;stroke-linejoin:miter;stroke:#000;stroke-opacity:1;stroke-miterlimit:4" transform="scale(.03906 .03958)"/><path d="m264.4 292.697-4.7-2.664c19.4 1.776 23.4-5.033 28.1-5.33 3-.295 3.3 3.159-2.3 1.481l1.5 3.652s-13.8 7.796-27.4 4.539Zm84.8-4.144.1-2.96 4.3.196.2 3.158Zm0 0" style="fill-rule:nonzero;fill:#fff;fill-opacity:1;stroke-width:.3;stroke-linecap:butt;stroke-linejoin:miter;stroke:#000;stroke-opacity:1;stroke-miterlimit:4" transform="scale(.03906 .03958)"/><path d="m375.9 292.007 4.5-2.468c-22.4.691-17.3-3.65-28.4-4.835-3-.395-5 3.355 2.2 1.48l-1.4 3.652h3.5c7.6 4.934 17.8 5.427 24.6 3.848Zm0 0" style="fill-rule:nonzero;fill:#fff;fill-opacity:1;stroke-width:.3;stroke-linecap:butt;stroke-linejoin:miter;stroke:#000;stroke-opacity:1;stroke-miterlimit:4" transform="scale(.03906 .03958)"/><path d="M285.5 286.283v5.033s12.3 4.54 34.4 4.54c22.2 0 34.4-4.54 34.4-4.54v-5.033s-9.3 4.342-34.4 4.342-34.4-4.342-34.4-4.342Zm0 0" style="fill-rule:nonzero;fill:#fff;fill-opacity:1;stroke-width:.3;stroke-linecap:butt;stroke-linejoin:miter;stroke:#000;stroke-opacity:1;stroke-miterlimit:4" transform="scale(.03906 .03958)"/><path d="m11.223 11.531.043-.148.02.008-.04.129.078.02-.008.019Zm.14-.062v-.028l.008-.03.024.007-.008.027-.012.028Zm.207-.012.02.008-.016.082-.015.039-.02.016H11.5l-.035-.016-.016-.024.004-.039.02-.085.02.003-.02.086v.032l.007.015.02.008h.04l.015-.039Zm.024.156.023-.144h.024l.058.133.02-.118h.02l-.024.153-.02-.004-.062-.13-.02.118Zm.156.028.023-.149h.02l-.02.149Zm.063-.067q-.002-.039.027-.054a.07.07 0 0 1 .055-.016q.022 0 .039.012l.02.03a.05.05 0 0 1 .003.04l-.012.039-.03.027-.04.004-.04-.011-.019-.032Zm.019 0q0 .03.012.047.012.022.035.02a.07.07 0 0 0 .039-.012q.016-.011.02-.04v-.038l-.02-.02-.027-.011a.1.1 0 0 0-.04.011.1.1 0 0 0-.019.047Zm.145.09.011-.148h.024l.07.125.008-.118h.02l-.012.153h-.02l-.074-.125-.008.117Zm.218.016.004-.149.106.004v.02l-.082-.004-.004.043.074.004v.02l-.078-.005v.07Zm.117.004.06-.149h.023l.058.156h-.023l-.016-.05h-.066l-.016.046Zm.04-.059h.054l-.015-.04-.008-.034-.008.031-.02.043Zm.12.063v-.149h.024v.149Zm.098 0v-.13h-.05v-.015h.12v.016h-.05v.132Zm.157 0-.012-.157h.023l.004.133h.078v.016Zm.101-.008.047-.157h.023l.079.145h-.028l-.02-.04h-.066l-.011.052Zm.04-.067h.054l-.02-.039-.015-.035-.004.031Zm.183.047-.016-.148.102-.012.004.02-.082.007v.047l.078-.008v.02l-.075.008.008.066Zm.117-.082a.07.07 0 0 1 .008-.062.07.07 0 0 1 .05-.028l.04.004q.024 0 .03.024l.017.039-.004.039-.024.031-.035.016-.04-.004-.03-.024Zm.02-.004q0 .023.019.04.02.017.04.011.027-.004.038-.02a.06.06 0 0 0 .008-.046l-.012-.032-.023-.02h-.028a.05.05 0 0 0-.039.016.1.1 0 0 0-.004.051m.16.051-.023-.148.067-.012h.03q.015-.002.02.008l.012.023c0 .008-.004.02-.008.027q-.008.013-.027.02l.012.004.02.02.038.035h-.027l-.027-.024-.02-.02-.012-.007h-.023l-.024.004.016.066Zm.008-.086.04-.008.023-.008q.012-.01.012-.023l-.008-.016h-.027l-.051.004Zm.247-.016h.02a.07.07 0 0 1-.013.04l-.039.023h-.039l-.031-.024-.02-.039v-.039q.004-.023.02-.035l.035-.015h.04q.024.009.03.03l-.02.009-.019-.02h-.027l-.027.012-.012.027v.028l.016.03q.006.017.023.016h.027l.024-.011a.04.04 0 0 0 .012-.032m.054.04-.039-.149.106-.027.007.015-.09.024.012.047.082-.02.008.016-.086.023.016.047.094-.023v.015Zm0 0" style="stroke:none;fill-rule:nonzero;fill:#000001;fill-opacity:1"/></svg>