<?xml version="1.0" encoding="UTF-8"?>
<svg xmlns="http://www.w3.org/2000/svg" xmlns:xlink="http://www.w3.org/1999/xlink" width="25px" height="px" viewBox="0 0 25 19" version="1.1">
<g id="surface1">
<rect x="0" y="0" width="25" height="19" style="fill:rgb(100%,100%,100%);fill-opacity:1;stroke:none;"/>
<path style=" stroke:none;fill-rule:evenodd;fill:rgb(0%,21.960784%,72.156864%);fill-opacity:1;" d="M 25.949219 4.285156 L -0.90625 4.285156 L -0.90625 1.785156 L 25.949219 1.785156 Z M 25.949219 17.328125 L -0.90625 17.328125 L -0.90625 14.828125 L 25.949219 14.828125 Z M 8.214844 7.09375 L 12.257812 14.226562 L 16.390625 7.128906 Z M 8.214844 7.09375 "/>
<path style=" stroke:none;fill-rule:evenodd;fill:rgb(100%,100%,100%);fill-opacity:1;" d="M 11.5 11.824219 L 12.265625 13.144531 L 13.050781 11.832031 Z M 11.5 11.824219 "/>
<path style=" stroke:none;fill-rule:evenodd;fill:rgb(0%,21.960784%,72.156864%);fill-opacity:1;" d="M 8.199219 11.929688 L 12.246094 4.800781 L 16.375 11.898438 Z M 8.199219 11.929688 "/>
<path style=" stroke:none;fill-rule:evenodd;fill:rgb(100%,100%,100%);fill-opacity:1;" d="M 11.5 7.128906 L 12.265625 5.808594 L 13.050781 7.125 Z M 9.890625 10.085938 L 9.09375 11.425781 L 10.597656 11.421875 L 9.890625 10.082031 Z M 9.109375 7.613281 L 10.621094 7.625 L 9.894531 8.976562 Z M 14.660156 10.105469 L 15.425781 11.425781 L 13.894531 11.40625 Z M 15.414062 7.613281 L 13.898438 7.625 L 14.625 8.976562 Z M 11.214844 7.613281 L 10.171875 9.523438 L 11.230469 11.398438 L 13.167969 11.441406 L 14.34375 9.523438 L 13.257812 7.589844 Z M 11.214844 7.613281 "/>
</g>
</svg>
