<svg xmlns="http://www.w3.org/2000/svg" width="25" height="px" viewBox="0 0 25 19"><path d="M0 0h25v19H0z" style="fill:#fff;fill-opacity:1;stroke:none"/><path d="M25.95 4.285H-.907v-2.5h26.855Zm0 13.043H-.907v-2.5h26.855ZM8.214 7.094l4.043 7.133 4.133-7.098Zm0 0" style="stroke:none;fill-rule:evenodd;fill:#0038b8;fill-opacity:1"/><path d="m11.5 11.824.766 1.32.785-1.312Zm0 0" style="stroke:none;fill-rule:evenodd;fill:#fff;fill-opacity:1"/><path d="m8.2 11.93 4.046-7.13 4.129 7.098Zm0 0" style="stroke:none;fill-rule:evenodd;fill:#0038b8;fill-opacity:1"/><path d="m11.5 7.129.766-1.32.785 1.316Zm-1.61 2.957-.796 1.34 1.504-.004-.707-1.34Zm-.78-2.473 1.511.012-.726 1.352Zm5.55 2.492.766 1.32-1.531-.019Zm.754-2.492-1.516.012.727 1.352Zm-4.2 0-1.042 1.91 1.058 1.875 1.938.043 1.176-1.918-1.086-1.933Zm0 0" style="stroke:none;fill-rule:evenodd;fill:#fff;fill-opacity:1"/></svg>