<svg xmlns="http://www.w3.org/2000/svg" width="25" height="px" viewBox="0 0 25 19"><path d="M0 0h25v19H0z" style="fill:#ba0000;fill-opacity:1;stroke:none"/><path d="M280.957 376.05c.213-.63.639-6.824.426-6.824s-9.362-10.918-9.149-10.918 11.809 2.624 11.809 2.204 4.68-11.548 4.68-11.758l5.532 13.543 11.596 5.04-8.085 6.613 1.702 13.018c0 .315-7.979-7.559-7.979-7.559l-8.936.945s-1.17-3.99-1.596-4.304Zm0 0" style="fill-rule:evenodd;fill:#ffef00;fill-opacity:1;stroke-width:2.2;stroke-linecap:butt;stroke-linejoin:miter;stroke:#000;stroke-opacity:1;stroke-miterlimit:4" transform="matrix(.03672 0 0 .0372 2.844 0)"/><path d="M218.723 206.922c-7.766 3.99-37.02 37.479-41.063 42.728a76.2 76.2 0 0 1-16.809 23.306c-7.234 5.564-11.277 13.018-10.213 20.052 0 9.029 4.894 15.013 8.724 21.102 2.553 2.94 5.425 4.619 8.83 5.039 6.914.735 7.553 2.94 10.957 4.2 13.404 18.371 33.617 31.914 48.085 42.622 6.596 3.15 12.66 7.35 17.979 12.388 4.149 8.19 3.404 16.063 2.766 20.052L237.34 439.04c-1.914 10.918 7.766 8.608 8.298 6.404 4.256-5.774 10.745-1.785 20-34.33l12.766-17.112s4.894-1.995 4.894-2.52c7.553-9.028 1.808-13.962-2.447-15.642l-9.255-3.465s-10.745-10.813-11.277-10.813c-5.106-14.907-30.319-46.612-36.17-50.917-3.936-4.304-5.958-6.089-9.787-8.398-5.851-2.835-7.766-3.885-11.383-5.25-2.979-1.154-.851-4.514 1.064-5.984 20-10.918 35.638-22.886 54.787-35.064l2.979-2.1-6.915-39.158-31.809-11.234c-1.596 1.155-3.085 2.31-4.362 3.465Zm0 0" style="fill-rule:evenodd;fill:#fff;fill-opacity:1;stroke-width:2.6;stroke-linecap:butt;stroke-linejoin:miter;stroke:#000;stroke-opacity:1;stroke-miterlimit:4" transform="matrix(.03672 0 0 .0372 2.844 0)"/><path d="M11.852 15.371c0-.016.734-.148.734-.148l-.094.273-.722.223Zm0 0" style="stroke:none;fill-rule:evenodd;fill:#ffec00;fill-opacity:1"/><path d="M193.617 338.466c4.149-9.449 11.915-16.797 21.596-20.367" style="fill:none;stroke-width:2.2;stroke-linecap:butt;stroke-linejoin:miter;stroke:#000;stroke-opacity:1;stroke-miterlimit:4" transform="matrix(.03672 0 0 .0372 2.844 0)"/><path d="M244.574 413.319c1.277-.315 7.022-1.995 8.617-2.31 1.809-.315 3.511-.84 5.213-1.365 2.022-.42 3.192-.84 5.213-1.154l5-1.365m-27.66 18.477 2.554-1.995c1.063-.42 5-1.994 6.489-2.31l4.68-1.364 4.575-1.26c1.49-.525 2.979-1.05 4.468-1.365" style="fill:none;stroke-width:2.4;stroke-linecap:butt;stroke-linejoin:miter;stroke:#000;stroke-opacity:1;stroke-miterlimit:4" transform="matrix(.03672 0 0 .0372 2.844 0)"/><path d="M249.043 341.405h-.213c.744 0 .319 0-.958 1.365-.319 1.155-3.936 3.78-6.808 3.78l-4.681.21-1.277-.21m13.724 53.436h1.383q2.234.157 4.149.315c1.49 0 2.978.42 4.361.42 1.49 0 3.086.21 4.681.42 1.49.105 3.085.21 4.681.21 1.383.105 2.234.315 3.724.315l-3.724-.315c1.383.105 2.234.315 3.724.315m-32.66 33.07 2.234-1.995c1.064-.315 4.574-1.995 6.064-2.205l4.149-1.575 4.255-.944c1.383-.735 2.766-1.155 4.043-1.47m5.85-41.259c-.85 2.31.213 2.94.639 3.885a12.44 12.44 0 0 0 5.745 3.464c1.17.315 2.02.525 3.404 1.155.745.105 1.383.21 2.021.525m-124.468-94.8h.32c-.852 0-.32.105 1.063-1.05 1.064-1.05 1.702-1.575 2.66-2.624m14.361 23.936c.213 0 16.596-8.189 18.298-9.974l3.724-2.94c.957-.524 1.808-1.049 2.553-1.679.85-.945 1.596-1.785 2.34-2.73.958-.84.532-1.784 1.383-2.834l1.277-3.78m20.85 12.179c.107.63-.212 2.414-.212 3.78 0 1.574-2.128 6.508-4.574 7.978" style="fill:none;stroke-width:2.2;stroke-linecap:butt;stroke-linejoin:miter;stroke:#000;stroke-opacity:1;stroke-miterlimit:4" transform="matrix(.03672 0 0 .0372 2.844 0)"/><path d="m192.553 307.81 6.702 2.1c5 1.785 15.426 8.4 16.596 9.239.958.84 2.979 1.68 3.51 2.52 1.17 1.05 2.128 2.1 2.98 3.254 1.063 1.155 1.808 2.31 2.446 3.36 5.426 7.558 10 15.852 13.404 24.566.745.63.958 1.68 1.703 2.73.638 1.469 1.276 1.994 2.02 3.149.958.63 2.235 1.994 3.405 2.624 1.277 1.05 2.447 1.47 3.51 2.205 1.277.63 16.277 10.078 17.022 10.498 1.383 1.155 5.426 5.46 2.553 8.609-1.17 1.05-2.447 2.52-3.404 3.044-1.17 1.05-2.447 1.785-3.936 2.205-6.702 1.995-10.213 1.26-11.49 1.26h-1.383m-88.83-114.852c2.022.735 1.277.21 2.98.945 1.17.525 1.914.525 2.978 1.05 1.277.315 4.681.945 6.277 2.624 1.17.945 2.021 1.995 3.404 2.625 1.383 1.05 2.979 1.785 4.574 2.415a18.8 18.8 0 0 0 5 1.364h7.873-4.043 4.043" style="fill:none;stroke-width:2.2;stroke-linecap:butt;stroke-linejoin:miter;stroke:#000;stroke-opacity:1;stroke-miterlimit:4" transform="matrix(.03672 0 0 .0372 2.844 0)"/><path d="M159.043 293.323c4.148-.315 11.276.945 11.489.945l9.362-.21c5-.315 5.957-2.31 6.808-3.674 1.915-2.835 3.085-3.78 4.575-5.985 2.234-1.574 5.425 2.31 5.532 2.31 7.978 7.559 1.595 16.797 1.17 17.112-3.936 3.675-4.894 3.885-7.234 1.575-2.447-2.94-3.192-4.2-5.107-5.144-3.936-1.89-11.808-.42-12.021-.42l-4.149 1.575c-1.915.735-3.191 2.414-6.49 3.044-3.51.105-4.574-.105-6.276-2.94-2.34-3.464-1.17-7.768 2.34-8.188Zm0 0" style="fill-rule:evenodd;fill:#ffe606;fill-opacity:1;stroke-width:2.2;stroke-linecap:butt;stroke-linejoin:miter;stroke:#000;stroke-opacity:1;stroke-miterlimit:4" transform="matrix(.03672 0 0 .0372 2.844 0)"/><path d="M381.809 120.73c-.639 0-6.277 2.73-6.17 2.94.106.105-4.788 13.543-4.894 13.438-.107-.21-3.511-11.758-3.936-11.548-.426.21-12.34 1.68-12.447 1.785l9.042-11.549-1.276-12.493 9.787 3.78 10.532-7.979c.106-.105-2.766 10.813-2.766 10.813l5.213 7.14s-2.98 3.044-3.085 3.674Zm0 0" style="fill-rule:evenodd;fill:#ffef00;fill-opacity:1;stroke-width:2.2;stroke-linecap:butt;stroke-linejoin:miter;stroke:#000;stroke-opacity:1;stroke-miterlimit:4" transform="matrix(.03672 0 0 .0372 2.844 0)"/><path d="M265 257.944c7.128 4.619 50.745 13.858 57.34 14.802 9.575-.735 19.362.315 28.511 3.15 8.298 3.57 16.809 3.36 22.553-.945 7.766-4.2 10.639-11.443 14.043-18.057a12.5 12.5 0 0 0 0-9.974c-2.66-6.403-1.064-7.978-1.596-11.653 9.362-20.786 11.383-44.932 13.51-62.885-.212-10.498.958-18.477 2.022-21.731 3.936-5.67 9.468-9.869 16.064-12.178l40.638-10.603c10.638-3.78 3.724-10.919 1.49-10.394-7.022-.945-6.809-8.608-39.681-.63l-21.17-2.73s-4.043-3.359-4.575-3.044c-11.49-2.1-13.085 5.354-12.447 9.869l1.596 9.763s-4.15 14.593-3.936 15.013c-10.426 11.758-25.958 49.552-26.915 56.9-.532 6.824-3.085 5.46-2.447 12.179 0 5.249-.638 1.994 1.064 12.598.532 3.254-3.51 3.044-5.638 1.994-19.256-11.968-37.447-19.842-57.554-30.445l-3.085-1.68-30.744 25.196 5.744 33.28a54 54 0 0 0 5.107 2.205Zm0 0" style="fill-rule:evenodd;fill:#fff;fill-opacity:1;stroke-width:2.6;stroke-linecap:butt;stroke-linejoin:miter;stroke:#000;stroke-opacity:1;stroke-miterlimit:4" transform="matrix(.03672 0 0 .0372 2.844 0)"/><path d="M18.695 4.973a14 14 0 0 1-.488-.575l.277-.054.547.531Zm0 0" style="stroke:none;fill-rule:evenodd;fill:#ffec00;fill-opacity:1"/><path d="M392.021 215.216c-10.319 1.05-20.532-2.1-28.404-8.819" style="fill:none;stroke-width:2.2;stroke-linecap:butt;stroke-linejoin:miter;stroke:#000;stroke-opacity:1;stroke-miterlimit:4" transform="matrix(.03672 0 0 .0372 2.844 0)"/><path d="M432.234 134.064c-1.064-.84-5.213-4.935-6.277-6.404l-3.723-3.78c-1.383-1.47-2.34-2.414-3.617-3.99L415 116.322m29.574 15.013c-.319 0-2.02-.735-2.978-1.26-.745-.84-4.15-3.36-5.107-4.62l-3.51-3.359c-1.17-1.26-2.128-1.994-3.298-3.464l-3.404-3.044" style="fill:none;stroke-width:2.4;stroke-linecap:butt;stroke-linejoin:miter;stroke:#000;stroke-opacity:1;stroke-miterlimit:4" transform="matrix(.03672 0 0 .0372 2.844 0)"/><path d="m367.34 165.454.107.314c-.426-.734-.213-.314 1.702 0 1.17-.21 5.106 1.68 6.49 4.095.744 1.155 1.914 2.834 2.552 3.99.107.524.32.944.426 1.364m40-38.214-.213-.21-.638-.945-1.809-3.99c-.531-1.259-1.063-2.624-1.702-3.883l-1.915-4.2c-.85-1.47-1.276-2.73-2.02-4.41-.746-1.154-.852-1.994-1.597-3.254l1.596 3.255c-.745-1.155-.85-1.995-1.596-3.255m44.788 12.283-2.766-.944c-.851-.735-4.043-3.045-5-4.095l-3.298-2.94c-1.064-1.364-1.915-1.994-3.085-3.359l-3.192-2.624m-38.83 15.012c2.447-.42 2.447-1.68 3.086-2.52.425-1.05.85-3.569.212-6.613l-.638-3.465c-.32-.84-.532-1.47-.532-1.994m-21.702 154.745-.106-.21c.425.84.212.315-1.596-.525l-3.51-.945m13.935-24.356c-.106-.21-15.319-10.393-17.66-10.918-1.382-.735-2.765-1.05-4.36-1.89l-2.767-1.365c-1.276-.21-2.447-.735-3.51-.735-1.17-.315-1.915.42-3.192.21l-4.043.735m.532-24.146c.426-.315 2.234-.945 3.405-1.68 1.383-.63 6.702-1.26 9.255.105" style="fill:none;stroke-width:2.2;stroke-linecap:butt;stroke-linejoin:miter;stroke:#000;stroke-opacity:1;stroke-miterlimit:4" transform="matrix(.03672 0 0 .0372 2.844 0)"/><path d="m365.745 231.173-1.596-6.929a111 111 0 0 1 0-18.792c.213-1.365 0-3.464.532-4.514.319-1.365.745-2.73 1.276-3.99.639-1.47 1.17-2.834 1.703-3.989.744-3.99 12.02-20.052 12.872-20.892l2.021-2.624c.32-.945.851-1.995 1.596-3.045.957-1.05 1.17-1.994 1.702-3.15.106-1.154.638-2.939.638-4.198.32-1.785 0-3.045.32-4.2-.213-1.47.744-19.107.744-19.947.32-1.784 2.021-7.453 6.277-6.509 1.49.525 3.298.84 4.361 1.47 1.383.42 2.66 1.575 3.724 2.31 5 4.934 6.064 8.189 6.808 9.448l.639 1.155m-56.809 133.224v-.21c.32.63.213.315-.319-1.05-.106-1.365-.532-3.044-.745-4.2-.319-1.364-.85-2.729-.638-3.569-.532-1.26-.213-2.31 0-3.57.213-1.574.426-2.729.426-4.198.212-1.995 0-3.255.106-5.04-.532-1.47-.532-2.624-1.277-4.199l-2.02-3.99-2.022-3.464 2.021 3.36-2.021-3.36" style="fill:none;stroke-width:2.2;stroke-linecap:butt;stroke-linejoin:miter;stroke:#000;stroke-opacity:1;stroke-miterlimit:4" transform="matrix(.03672 0 0 .0372 2.844 0)"/><path d="M369.468 267.602c-2.234-3.57-4.68-10.393-4.787-10.498L360 248.915c-2.766-3.99-5-3.99-6.596-3.99-3.404-.314-4.893-1.049-7.447-1.154-2.553-1.155-.638-5.88-.744-5.984 2.66-10.603 13.936-9.554 14.361-9.344 5.107 1.68 5.745 2.31 4.894 5.565-1.277 3.464-1.915 4.829-1.915 7.033.213 4.2 5.426 10.499 5.426 10.604l3.404 2.73c1.596 1.47 3.723 1.574 5.851 4.304 1.915 2.94 2.128 3.989.532 6.824-1.915 3.779-6.17 4.934-8.298 2.1Zm0 0" style="fill-rule:evenodd;fill:#ffe606;fill-opacity:1;stroke-width:2.2;stroke-linecap:butt;stroke-linejoin:miter;stroke:#000;stroke-opacity:1;stroke-miterlimit:4" transform="matrix(.03672 0 0 .0372 2.844 0)"/><path d="M105.213 168.708c.532.42 5.744 3.674 5.957 3.464s14.043-3.359 13.83-3.149-7.766 9.238-7.447 9.448c.426.21 8.085 9.449 8.298 9.554l-14.574-1.26-9.788 7.874-2.234-10.288-12.234-4.305c-.212-.105 10.532-3.674 10.532-3.674l3.192-8.294s4.042.735 4.68.63Zm0 0" style="fill-rule:evenodd;fill:#ffef00;fill-opacity:1;stroke-width:2.2;stroke-linecap:butt;stroke-linejoin:miter;stroke:#000;stroke-opacity:1;stroke-miterlimit:4" transform="matrix(.03672 0 0 .0372 2.844 0)"/><path d="M284.043 191.28c0-8.714-16.277-50.183-19.043-56.062-5.957-7.663-10.32-16.377-12.979-25.72-1.49-9.03-6.276-15.958-12.978-18.373-7.98-4.094-15.532-2.52-22.873-1.784-3.617.63-6.702 2.624-8.404 5.459-3.936 5.669-6.064 5.249-8.83 7.664-22.553 3.569-43.83 15.117-60 22.99-5.85 4.515-12.447 7.875-19.362 10.29-6.808-.106-13.51-2.415-18.936-6.615l-31.17-28.345c-8.936-6.72-11.17 3.044-9.468 4.514 2.979 6.404-3.51 10.289 21.17 33.595l9.362 19.212s-.532 5.144 0 5.354c4.362 10.813 11.596 8.189 15 5.144l7.234-6.719s14.574-4.62 14.787-4.934c15.532 2.205 55.745-5.354 62.34-8.504 5.958-3.36 6.277-.525 11.49-4.724 4.362-2.94 2.021-.63 10-7.874 2.447-2.1 4.362 1.26 4.787 3.675.426 22.676 3.83 42.203 5.958 64.774l.425 3.465 37.979 12.073 24.574-22.991-.957-5.67Zm0 0" style="fill-rule:evenodd;fill:#fff;fill-opacity:1;stroke-width:2.6;stroke-linecap:butt;stroke-linejoin:miter;stroke:#000;stroke-opacity:1;stroke-miterlimit:4" transform="matrix(.03672 0 0 .0372 2.844 0)"/><path d="M6.102 4.457c.011.012-.207.73-.207.73l-.2-.207.14-.753Zm0 0" style="stroke:none;fill-rule:evenodd;fill:#ffec00;fill-opacity:1"/><path d="M178.83 108.448c7.127 7.978 9.468 21.101 8.191 28.555" style="fill:none;stroke-width:2.2;stroke-linecap:butt;stroke-linejoin:miter;stroke:#000;stroke-opacity:1;stroke-miterlimit:4" transform="matrix(.03672 0 0 .0372 2.844 0)"/><path d="M89.043 119.051c-.32 1.365-1.49 7.244-2.022 8.714l-1.17 5.354-1.49 5.144a42 42 0 0 1-.957 5.04m-3.723-32.966c.106.315.532 1.995.638 3.045-.213 1.26-.532 5.459-1.064 6.929l-.85 4.829-.958 4.514-.851 4.62" style="fill:none;stroke-width:2.4;stroke-linecap:butt;stroke-linejoin:miter;stroke:#000;stroke-opacity:1;stroke-miterlimit:4" transform="matrix(.03672 0 0 .0372 2.844 0)"/><path d="m150.745 156.32.106-.315c-.425.84 0 .315-.851-1.365-.851-1.05-1.383-5.354-.213-7.873l2.022-4.305c.212-.315.425-.63.744-.945M98.83 129.024l-.107.21-.638.945c-.745 1.365-1.49 2.625-2.234 3.675-.532 1.364-1.702 2.31-2.234 3.674l-2.447 3.99c-.85 1.364-1.808 2.624-2.553 3.989l-2.021 3.15 2.021-3.15-2.021 3.15m-14.15-44.304c.107.21.64 1.995.745 3.045-.212 1.05-.425 5.039-.744 6.299l-.745 4.41c-.425 1.574-.532 2.729-.957 4.303l-.532 4.2m33.83 24.356c-1.703-1.89-2.766-1.155-3.83-1.26a12.44 12.44 0 0 0-5.745 3.464c-.638.945-1.49 1.68-2.553 2.52-.532.84-.958 1.05-1.383 1.47m141.49-66.77-.107.315c.425-.84.106-.42.532 1.47.425 1.365.425 2.205.957 3.465m-27.872 1.784c0 .21-.32 18.477.425 20.892.213 1.47.639 2.73.852 4.62.106.944.212 1.994.425 2.939.532 1.26.638 2.414 1.383 3.36.32 1.26 1.277 1.364 1.915 2.414.638.945 2.021 2.415 2.766 3.044m-20.532 12.913c-.532-.21-1.915-1.364-3.192-1.994-1.383-.84-4.893-4.935-5-7.77" style="fill:none;stroke-width:2.2;stroke-linecap:butt;stroke-linejoin:miter;stroke:#000;stroke-opacity:1;stroke-miterlimit:4" transform="matrix(.03672 0 0 .0372 2.844 0)"/><path d="m206.49 121.57-5 5.04c-4.894 3.99-10.213 7.349-15.745 10.288-1.277.63-2.766 1.995-4.043 2.1-1.383.525-2.66.945-4.042 1.05a109 109 0 0 1-28.617 1.574l-3.405-.21c-.957.105-2.021.21-3.298.21-1.595-.105-2.446.21-3.723.315-1.064.525-2.766 1.05-3.936 1.89-1.383.63-2.553 1.26-3.617 1.995-.958.84-16.383 9.763-17.128 10.183-1.596.735-7.34 2.52-8.83-1.575-.532-1.784-.957-3.254-1.063-4.514-.532-1.365-.213-3.044-.213-4.41 1.383-6.928 3.617-9.658 4.149-10.813l.744-1.154m142.234-25.511-.106.315c.426-.735.213-.42-.745.735a21 21 0 0 0-3.085 3.044c-1.064.735-1.808 1.995-2.66 2.415-.744.84-1.808 1.47-2.978 1.994q-1.915.63-3.83 1.89c-1.702.735-2.66 1.68-4.149 2.625-.957 1.154-2.021 1.994-2.766 3.36-.85 1.154-1.595 2.519-2.34 3.883l-1.809 3.465 1.809-3.465-1.809 3.465m11.702 73.173.32-.525c-.426 1.05-.426.735.106-.945 0-1.784.532-4.094.532-5.774.32-1.784.532-3.57.532-5.459 0-1.994-.107-3.99-.426-5.984-.106-1.89-.212-3.674-.212-5.669 0-1.68-.213-3.36-.639-4.934l-.425-4.83c0-1.26-.107-2.309-.426-3.359l-1.276-5.144-.958-4.094c-.213-1.575-1.064-3.57-1.383-4.935-.532-1.05-.957-2.204-1.17-3.359-.638-1.155-1.064-2.31-1.277-3.57l-1.595-3.779-1.383-3.57c-.532-1.364-1.064-2.624-1.49-3.989-.425-.525-.638-1.05-.85-1.364" style="fill:none;stroke-width:2.2;stroke-linecap:butt;stroke-linejoin:miter;stroke:#000;stroke-opacity:1;stroke-miterlimit:4" transform="matrix(.03672 0 0 .0372 2.844 0)"/><path d="M234.894 98.474c-1.703 3.465-3.83 6.72-6.17 9.764l-4.256 8.398c-1.808 4.515-.638 6.51.106 7.77 1.703 3.044 2.022 4.618 3.192 6.823.532 2.73-4.468 3.78-4.468 3.884-10.426 3.57-15.745-6.404-15.745-6.929-1.383-5.144-1.17-5.984 2.021-7.033 3.617-.945 5-1.05 6.809-2.205 3.51-2.625 5.957-10.393 6.064-10.498l.319-4.305c.32-1.994-.532-4.094.425-7.244 1.383-3.149 2.235-3.989 5.426-4.304 4.149-.315 7.447 2.625 6.277 5.88Zm0 0" style="fill-rule:evenodd;fill:#ffe606;fill-opacity:1;stroke-width:2.2;stroke-linecap:butt;stroke-linejoin:miter;stroke:#000;stroke-opacity:1;stroke-miterlimit:4" transform="matrix(.03672 0 0 .0372 2.844 0)"/><path d="M221.277 199.678c-1.596-1.47 29.468 11.233 33.723 11.338 5.851-2.1 29.894-22.466 29.894-22.466.212 2.1 1.063 7.139 3.404 8.294-9.255 7.453-17.66 14.802-27.021 22.256.638 11.968-1.49 24.671 4.574 38.004 0 0-7.234.21-7.234 0-6.383-6.404-8.723-37.164-8.723-37.164l-30.639-13.648c1.596-.945 2.66-3.884 2.022-6.719Zm0 0" style="fill-rule:evenodd;fill:#ffef00;fill-opacity:1;stroke-width:2.2;stroke-linecap:butt;stroke-linejoin:miter;stroke:#000;stroke-opacity:1;stroke-miterlimit:4" transform="matrix(.03672 0 0 .0372 2.844 0)"/><path d="M250.851 231.278c.426-.42-5.638 2.835-7.234 3.674-28.085 14.908-42.66 36.954-43.51 37.794l-2.235 3.36-2.234 3.044-3.617 4.62c-.212.63.426-.315.213.21m77.872-70.55c2.128 1.68 4.256 3.255 6.49 4.62 26.17 18.267 52.34 21.102 53.51 21.522 1.064.105 2.447.21 4.043.525 1.17.105 2.447.315 3.723.525 1.383.21 4.468.734 5.851 1.154.532-.21-.532-.315 0-.42" style="fill:none;stroke-width:2.2;stroke-linecap:butt;stroke-linejoin:miter;stroke:#000;stroke-opacity:1;stroke-miterlimit:4" transform="matrix(.03672 0 0 .0372 2.844 0)"/></svg>