<?xml version="1.0" encoding="UTF-8"?>
<svg xmlns="http://www.w3.org/2000/svg" xmlns:xlink="http://www.w3.org/1999/xlink" width="25px" height="px" viewBox="0 0 25 19" version="1.1">
<g id="surface1">
<rect x="0" y="0" width="25" height="19" style="fill:rgb(72.941178%,0%,0%);fill-opacity:1;stroke:none;"/>
<path style="fill-rule:evenodd;fill:rgb(100%,93.725491%,0%);fill-opacity:1;stroke-width:2.2;stroke-linecap:butt;stroke-linejoin:miter;stroke:rgb(0%,0%,0%);stroke-opacity:1;stroke-miterlimit:4;" d="M 280.957444 376.049833 C 281.17021 375.419934 281.595742 369.225925 281.382976 369.225925 C 281.17021 369.225925 272.021274 358.307672 272.23404 358.307672 C 272.446806 358.307672 284.042551 360.932252 284.042551 360.512319 C 284.042551 360.092386 288.723402 348.964167 288.723402 348.7542 L 294.255317 362.297033 L 305.851061 367.336227 L 297.765955 373.950169 L 299.468083 386.968086 C 299.468083 387.283036 291.489359 379.409295 291.489359 379.409295 L 282.553189 380.354144 C 282.553189 380.354144 281.382976 376.364783 280.957444 376.049833 Z M 280.957444 376.049833 " transform="matrix(0.0367187,0,0,0.0372083,2.84375,0)"/>
<path style="fill-rule:evenodd;fill:rgb(100%,100%,100%);fill-opacity:1;stroke-width:2.6;stroke-linecap:butt;stroke-linejoin:miter;stroke:rgb(0%,0%,0%);stroke-opacity:1;stroke-miterlimit:4;" d="M 218.723402 206.921893 C 210.957444 210.911255 181.702125 244.400896 177.659572 249.650057 C 173.617018 258.363662 167.872338 266.342386 160.851061 272.956328 C 153.617018 278.520437 149.574465 285.974245 150.638295 293.008119 C 150.638295 302.036675 155.531912 308.020717 159.361699 314.109743 C 161.914891 317.049273 164.787231 318.729004 168.191487 319.148937 C 175.10638 319.883819 175.744678 322.088467 179.148933 323.348265 C 192.553189 341.720326 212.765955 355.263159 227.23404 365.971445 C 233.829785 369.120942 239.893614 373.32027 245.212763 378.359463 C 249.3617 386.548153 248.617019 394.421893 247.978721 398.411255 L 237.340423 439.039755 C 235.425529 449.958008 245.10638 447.648377 245.638295 445.44373 C 249.893614 439.669654 256.382976 443.659016 265.638295 411.114223 L 278.404253 394.001961 C 278.404253 394.001961 283.29787 392.00728 283.29787 391.482364 C 290.851061 382.453808 285.10638 377.519598 280.851061 375.839867 L 271.595742 372.375421 C 271.595742 372.375421 260.851061 361.562151 260.319146 361.562151 C 255.212763 346.654536 229.999997 314.949609 224.148933 310.645298 C 220.212763 306.340986 218.191487 304.556272 214.361699 302.246641 C 208.510636 299.412095 206.595742 298.362263 202.978721 296.997481 C 199.999997 295.842666 202.127657 292.483203 204.04255 291.013439 C 224.042551 280.095185 239.680848 268.1271 258.829785 255.949049 L 261.808508 253.849385 L 254.893614 214.69065 L 223.085104 203.457447 C 221.489359 204.612263 219.999997 205.767078 218.723402 206.921893 Z M 218.723402 206.921893 " transform="matrix(0.0367187,0,0,0.0372083,2.84375,0)"/>
<path style=" stroke:none;fill-rule:evenodd;fill:rgb(100%,92.54902%,0%);fill-opacity:1;" d="M 11.851562 15.371094 C 11.851562 15.355469 12.585938 15.222656 12.585938 15.222656 L 12.492188 15.496094 L 11.769531 15.71875 Z M 11.851562 15.371094 "/>
<path style="fill:none;stroke-width:2.2;stroke-linecap:butt;stroke-linejoin:miter;stroke:rgb(0%,0%,0%);stroke-opacity:1;stroke-miterlimit:4;" d="M 193.617019 338.465846 C 197.765955 329.017358 205.531912 321.668534 215.212763 318.099105 " transform="matrix(0.0367187,0,0,0.0372083,2.84375,0)"/>
<path style="fill:none;stroke-width:2.4;stroke-linecap:butt;stroke-linejoin:miter;stroke:rgb(0%,0%,0%);stroke-opacity:1;stroke-miterlimit:4;" d="M 244.574465 413.31887 C 245.851061 413.00392 251.595742 411.324189 253.191487 411.00924 C 254.999997 410.69429 256.702125 410.169374 258.404253 409.644458 C 260.425529 409.224525 261.595742 408.804592 263.617019 408.489643 L 268.617019 407.124861 M 240.957444 425.601905 L 243.510636 423.607224 C 244.574465 423.187291 248.510636 421.612543 249.999997 421.297593 L 254.680848 419.932812 L 259.255317 418.673013 C 260.744678 418.148097 262.23404 417.623181 263.723402 417.308232 " transform="matrix(0.0367187,0,0,0.0372083,2.84375,0)"/>
<path style="fill:none;stroke-width:2.2;stroke-linecap:butt;stroke-linejoin:miter;stroke:rgb(0%,0%,0%);stroke-opacity:1;stroke-miterlimit:4;" d="M 249.042551 341.405376 L 248.829785 341.405376 C 249.574465 341.405376 249.148934 341.405376 247.872338 342.770158 C 247.553189 343.924973 243.936168 346.549553 241.063827 346.549553 L 236.382976 346.759519 L 235.10638 346.549553 M 248.829785 399.986003 L 250.212763 399.986003 C 251.702125 400.090986 253.085104 400.19597 254.3617 400.300953 C 255.851061 400.300953 257.340423 400.720886 258.723402 400.720886 C 260.212763 400.720886 261.808508 400.930852 263.404253 401.140818 C 264.893614 401.245802 266.489359 401.350785 268.085104 401.350785 C 269.468083 401.455768 270.319146 401.665735 271.808508 401.665735 L 268.085104 401.350785 C 269.468083 401.455768 270.319146 401.665735 271.808508 401.665735 M 239.148934 434.735443 L 241.382976 432.740763 C 242.446806 432.425813 245.957444 430.746082 247.446806 430.536115 L 251.595742 428.961367 L 255.851061 428.016518 C 257.23404 427.281636 258.617019 426.861703 259.893614 426.546754 M 265.744678 385.288355 C 264.893614 387.597985 265.957444 388.227885 266.382976 389.172733 C 267.978721 390.852465 269.893614 392.00728 272.127657 392.637179 C 273.29787 392.952129 274.148934 393.162095 275.531912 393.791994 C 276.276593 393.896977 276.914891 394.001961 277.553189 394.31691 M 153.085104 299.517078 L 153.404252 299.517078 C 152.553189 299.517078 153.085104 299.622061 154.468082 298.467246 C 155.531912 297.417414 156.17021 296.892498 157.127657 295.842666 M 171.489359 319.778836 C 171.702125 319.778836 188.085104 311.590146 189.787231 309.805432 L 193.510636 306.865902 C 194.468082 306.340986 195.319146 305.81607 196.063827 305.186171 C 196.914891 304.241322 197.659572 303.401457 198.404253 302.456608 C 199.361699 301.616742 198.936167 300.671893 199.787231 299.622061 L 201.063827 295.842666 M 221.914891 308.020717 C 222.021274 308.650617 221.702125 310.435331 221.702125 311.800113 C 221.702125 313.374861 219.574465 318.309071 217.127657 319.778836 " transform="matrix(0.0367187,0,0,0.0372083,2.84375,0)"/>
<path style="fill:none;stroke-width:2.2;stroke-linecap:butt;stroke-linejoin:miter;stroke:rgb(0%,0%,0%);stroke-opacity:1;stroke-miterlimit:4;" d="M 192.553189 307.810751 L 199.255316 309.910415 C 204.255316 311.69513 214.680848 318.309071 215.851061 319.148937 C 216.808508 319.988803 218.829785 320.828668 219.361699 321.668534 C 220.531912 322.718366 221.489359 323.768198 222.340423 324.923013 C 223.404253 326.077828 224.148933 327.232644 224.787231 328.282476 C 230.212763 335.841266 234.787231 344.134939 238.191487 352.848545 C 238.936168 353.478444 239.148934 354.528276 239.893614 355.578108 C 240.531912 357.047873 241.17021 357.572789 241.914891 358.727604 C 242.872338 359.357504 244.148934 360.722285 245.319146 361.352185 C 246.595742 362.402017 247.765955 362.821949 248.829785 363.556832 C 250.10638 364.186731 265.10638 373.635219 265.851061 374.055152 C 267.23404 375.209967 271.276593 379.514279 268.404253 382.663775 C 267.23404 383.713607 265.957444 385.183372 264.999997 385.708288 C 263.829785 386.75812 262.553189 387.493002 261.063827 387.912935 C 254.3617 389.907616 250.851061 389.172733 249.574465 389.172733 L 248.191487 389.172733 M 159.361699 274.321109 C 161.382976 275.055992 160.638295 274.531076 162.340423 275.265958 C 163.510635 275.790874 164.255316 275.790874 165.319146 276.31579 C 166.595742 276.63074 169.999997 277.260639 171.595742 278.94037 C 172.765955 279.885219 173.617018 280.935051 174.999997 281.56495 C 176.382976 282.614782 177.978721 283.349665 179.574465 283.979564 C 181.276593 284.714446 182.978721 285.134379 184.574465 285.344346 L 192.446806 285.344346 L 188.404253 285.344346 L 192.446806 285.344346 " transform="matrix(0.0367187,0,0,0.0372083,2.84375,0)"/>
<path style="fill-rule:evenodd;fill:rgb(100%,90.196079%,2.352941%);fill-opacity:1;stroke-width:2.2;stroke-linecap:butt;stroke-linejoin:miter;stroke:rgb(0%,0%,0%);stroke-opacity:1;stroke-miterlimit:4;" d="M 159.04255 293.323069 C 163.191487 293.008119 170.319146 294.267918 170.531912 294.267918 L 179.893614 294.057951 C 184.893614 293.743002 185.851061 291.748321 186.702125 290.383539 C 188.617019 287.548993 189.787231 286.604144 191.276593 284.399497 C 193.510636 282.824749 196.702125 286.709127 196.808508 286.709127 C 204.787231 294.267918 198.404253 303.50644 197.978721 303.821389 C 194.04255 307.495801 193.085104 307.705768 190.744678 305.396137 C 188.29787 302.456608 187.553189 301.196809 185.638295 300.25196 C 181.702125 298.362263 173.829784 299.832028 173.617018 299.832028 L 169.468082 301.406776 C 167.553189 302.141658 166.276593 303.821389 162.978721 304.451289 C 159.468082 304.556272 158.404252 304.346305 156.702125 301.511759 C 154.361699 298.047313 155.531912 293.743002 159.04255 293.323069 Z M 159.04255 293.323069 " transform="matrix(0.0367187,0,0,0.0372083,2.84375,0)"/>
<path style="fill-rule:evenodd;fill:rgb(100%,93.725491%,0%);fill-opacity:1;stroke-width:2.2;stroke-linecap:butt;stroke-linejoin:miter;stroke:rgb(0%,0%,0%);stroke-opacity:1;stroke-miterlimit:4;" d="M 381.808508 120.730683 C 381.17021 120.730683 375.531913 123.460247 375.638296 123.670213 C 375.744679 123.775196 370.851062 137.213046 370.744679 137.108063 C 370.638296 136.898097 367.23404 125.349944 366.808508 125.559911 C 366.382976 125.769877 354.468083 127.239642 354.3617 127.344625 L 363.404253 115.796473 L 362.127657 103.303472 L 371.914891 107.082867 L 382.446806 99.104144 C 382.553189 98.99916 379.680849 109.917413 379.680849 109.917413 L 384.893615 117.056271 C 384.893615 117.056271 381.914891 120.100784 381.808508 120.730683 Z M 381.808508 120.730683 " transform="matrix(0.0367187,0,0,0.0372083,2.84375,0)"/>
<path style="fill-rule:evenodd;fill:rgb(100%,100%,100%);fill-opacity:1;stroke-width:2.6;stroke-linecap:butt;stroke-linejoin:miter;stroke:rgb(0%,0%,0%);stroke-opacity:1;stroke-miterlimit:4;" d="M 264.999997 257.94373 C 272.127657 262.562991 315.744678 271.801512 322.340423 272.746361 C 331.914891 272.011479 341.702125 273.061311 350.851061 275.895857 C 359.148934 279.465286 367.659572 279.25532 373.404253 274.951009 C 381.17021 270.75168 384.042551 263.507839 387.446806 256.893898 C 388.829785 253.744402 388.829785 250.069989 387.446806 246.920493 C 384.787232 240.516518 386.382976 238.94177 385.851062 235.267358 C 395.212764 214.480684 397.23404 190.334547 399.3617 172.382419 C 399.148934 161.884099 400.319147 153.905376 401.382976 150.650896 C 405.319147 144.981803 410.851062 140.782475 417.446806 138.472845 L 458.085104 127.869541 C 468.723402 124.090146 461.808509 116.951288 459.574466 117.476204 C 452.553189 116.531355 452.765955 108.867581 419.893615 116.846305 L 398.723402 114.116742 C 398.723402 114.116742 394.680849 110.757279 394.148934 111.072229 C 382.659572 108.972565 381.063828 116.426372 381.702125 120.94065 L 383.29787 130.704088 C 383.29787 130.704088 379.148934 145.296753 379.3617 145.716686 C 368.936168 157.474804 353.404253 195.268757 352.446806 202.617582 C 351.914891 209.44149 349.3617 208.076708 349.999998 214.795633 C 349.999998 220.044793 349.3617 216.790314 351.063827 227.393618 C 351.595742 230.648097 347.553189 230.43813 345.42553 229.388298 C 326.17021 217.420213 307.978721 209.546473 287.872338 198.94317 L 284.787232 197.263438 L 254.042551 222.459407 L 259.787231 255.739082 C 261.489359 256.578948 263.191487 257.31383 264.893614 257.94373 Z M 264.999997 257.94373 " transform="matrix(0.0367187,0,0,0.0372083,2.84375,0)"/>
<path style=" stroke:none;fill-rule:evenodd;fill:rgb(100%,92.54902%,0%);fill-opacity:1;" d="M 18.695312 4.972656 C 18.527344 4.785156 18.363281 4.59375 18.207031 4.398438 L 18.484375 4.34375 L 19.03125 4.875 Z M 18.695312 4.972656 "/>
<path style="fill:none;stroke-width:2.2;stroke-linecap:butt;stroke-linejoin:miter;stroke:rgb(0%,0%,0%);stroke-opacity:1;stroke-miterlimit:4;" d="M 392.021274 215.215566 C 381.702125 216.265398 371.489359 213.115902 363.617019 206.396977 " transform="matrix(0.0367187,0,0,0.0372083,2.84375,0)"/>
<path style="fill:none;stroke-width:2.4;stroke-linecap:butt;stroke-linejoin:miter;stroke:rgb(0%,0%,0%);stroke-opacity:1;stroke-miterlimit:4;" d="M 432.23404 134.06355 C 431.170211 133.223685 427.021274 129.12934 425.957445 127.659575 L 422.23404 123.880179 C 420.851062 122.410415 419.893615 121.465566 418.617019 119.890818 L 414.999998 116.321389 M 444.574466 131.333987 C 444.255317 131.333987 442.553189 130.599104 441.595743 130.074188 C 440.851062 129.234323 437.446806 126.714726 436.48936 125.454928 L 432.978721 122.095465 C 431.808508 120.835667 430.851062 120.100784 429.680849 118.631019 L 426.276594 115.586506 " transform="matrix(0.0367187,0,0,0.0372083,2.84375,0)"/>
<path style="fill:none;stroke-width:2.2;stroke-linecap:butt;stroke-linejoin:miter;stroke:rgb(0%,0%,0%);stroke-opacity:1;stroke-miterlimit:4;" d="M 367.340423 165.453528 L 367.446806 165.768477 C 367.021274 165.033595 367.23404 165.453528 369.148934 165.768477 C 370.319147 165.558511 374.255317 167.448209 375.638296 169.862822 C 376.382976 171.017638 377.553189 172.697369 378.191487 173.852184 C 378.29787 174.3771 378.510636 174.797033 378.617019 175.216966 M 418.617019 137.00308 L 418.404253 136.793113 L 417.765955 135.848265 L 415.957445 131.858903 C 415.42553 130.599104 414.893615 129.234323 414.255317 127.974524 L 412.340423 123.775196 C 411.489359 122.305431 411.063828 121.045633 410.319147 119.365902 C 409.574466 118.211087 409.468083 117.371221 408.723402 116.111422 L 410.319147 119.365902 C 409.574466 118.211087 409.468083 117.371221 408.723402 116.111422 M 453.510636 128.394457 L 450.744679 127.449608 C 449.893615 126.714726 446.702126 124.405096 445.744679 123.355263 L 442.446806 120.415734 C 441.382977 119.050952 440.531913 118.421053 439.3617 117.056271 L 436.170211 114.431691 M 397.340423 129.444289 C 399.787232 129.024356 399.787232 127.764558 400.42553 126.924692 C 400.851062 125.87486 401.276594 123.355263 400.638296 120.310751 L 399.999998 116.846305 C 399.680849 116.006439 399.468083 115.37654 399.468083 114.851624 M 377.765955 269.596865 L 377.659572 269.386899 C 378.085104 270.226764 377.872338 269.701848 376.063827 268.861983 L 372.553189 267.917134 M 386.489359 243.561031 C 386.382976 243.351064 371.17021 233.167694 368.829785 232.642778 C 367.446806 231.907895 366.063827 231.592946 364.468083 230.75308 L 361.702125 229.388298 C 360.42553 229.178332 359.255317 228.653416 358.191487 228.653416 C 357.021274 228.338466 356.276593 229.073349 354.999998 228.863382 L 350.957444 229.598265 M 351.489359 205.452128 C 351.914891 205.137179 353.723402 204.507279 354.893615 203.772397 C 356.276593 203.142498 361.595742 202.512598 364.148934 203.87738 " transform="matrix(0.0367187,0,0,0.0372083,2.84375,0)"/>
<path style="fill:none;stroke-width:2.2;stroke-linecap:butt;stroke-linejoin:miter;stroke:rgb(0%,0%,0%);stroke-opacity:1;stroke-miterlimit:4;" d="M 365.744679 231.173013 L 364.148934 224.244122 C 363.617019 217.945129 363.617019 211.646137 364.148934 205.452128 C 364.3617 204.087347 364.148934 201.987682 364.680849 200.93785 C 364.999998 199.573069 365.42553 198.208287 365.957444 196.948489 C 366.595742 195.478724 367.127657 194.113942 367.659572 192.959127 C 368.404253 188.969765 379.680849 172.907335 380.531913 172.06747 L 382.553189 169.44289 C 382.872338 168.498041 383.404253 167.448209 384.148934 166.398377 C 385.106381 165.348545 385.319147 164.403696 385.851062 163.248881 C 385.957445 162.094065 386.489359 160.309351 386.489359 159.049552 C 386.808508 157.264838 386.489359 156.00504 386.808508 154.850224 C 386.595742 153.38046 387.553189 135.743281 387.553189 134.903416 C 387.872338 133.118701 389.574466 127.449608 393.829785 128.394457 C 395.319147 128.919373 397.127657 129.234323 398.191487 129.864222 C 399.574466 130.284155 400.851062 131.43897 401.914891 132.173853 C 406.914891 137.108063 407.978721 140.362542 408.723402 141.622341 L 409.3617 142.777156 M 352.553189 276.000841 L 352.553189 275.790874 C 352.872338 276.420773 352.765955 276.105824 352.23404 274.741042 C 352.127657 273.37626 351.702125 271.696529 351.489359 270.541714 C 351.17021 269.176932 350.638296 267.812151 350.851061 266.972285 C 350.319147 265.712487 350.638296 264.662655 350.851061 263.402856 C 351.063827 261.828108 351.276593 260.673293 351.276593 259.203528 C 351.489359 257.208847 351.276593 255.949049 351.382976 254.164334 C 350.851061 252.69457 350.851061 251.539754 350.106381 249.965006 L 348.085104 245.975645 L 346.063827 242.511199 L 348.085104 245.870661 L 346.063827 242.511199 " transform="matrix(0.0367187,0,0,0.0372083,2.84375,0)"/>
<path style="fill-rule:evenodd;fill:rgb(100%,90.196079%,2.352941%);fill-opacity:1;stroke-width:2.2;stroke-linecap:butt;stroke-linejoin:miter;stroke:rgb(0%,0%,0%);stroke-opacity:1;stroke-miterlimit:4;" d="M 369.468083 267.602184 C 367.23404 264.032755 364.787232 257.208847 364.680849 257.103864 L 359.999998 248.915174 C 357.23404 244.925812 354.999998 244.925812 353.404253 244.925812 C 349.999998 244.610863 348.510636 243.87598 345.957444 243.770997 C 343.404253 242.616182 345.319147 237.891938 345.212764 237.786955 C 347.872338 227.183651 359.148934 228.233483 359.574466 228.44345 C 364.680849 230.123181 365.319147 230.75308 364.468083 234.007559 C 363.191487 237.472005 362.553189 238.836787 362.553189 241.041434 C 362.765955 245.240762 367.978721 251.539754 367.978721 251.644737 L 371.382976 254.374301 C 372.978721 255.844066 375.106381 255.949049 377.23404 258.678612 C 379.148934 261.618142 379.3617 262.667974 377.765955 265.50252 C 375.851062 269.281916 371.595742 270.436731 369.468083 267.602184 Z M 369.468083 267.602184 " transform="matrix(0.0367187,0,0,0.0372083,2.84375,0)"/>
<path style="fill-rule:evenodd;fill:rgb(100%,93.725491%,0%);fill-opacity:1;stroke-width:2.2;stroke-linecap:butt;stroke-linejoin:miter;stroke:rgb(0%,0%,0%);stroke-opacity:1;stroke-miterlimit:4;" d="M 105.212763 168.708007 C 105.744678 169.12794 110.957444 172.382419 111.17021 172.172453 C 111.382976 171.962486 125.212763 168.81299 124.999997 169.022957 C 124.787231 169.232923 117.23404 178.261479 117.553189 178.471445 C 117.97872 178.681411 125.638295 187.919933 125.851061 188.024916 L 111.276593 186.765118 L 101.489359 194.638858 L 99.255316 184.350504 L 87.021274 180.046193 C 86.808508 179.94121 97.553188 176.371781 97.553188 176.371781 L 100.744678 168.078108 C 100.744678 168.078108 104.787231 168.81299 105.425529 168.708007 Z M 105.212763 168.708007 " transform="matrix(0.0367187,0,0,0.0372083,2.84375,0)"/>
<path style="fill-rule:evenodd;fill:rgb(100%,100%,100%);fill-opacity:1;stroke-width:2.6;stroke-linecap:butt;stroke-linejoin:miter;stroke:rgb(0%,0%,0%);stroke-opacity:1;stroke-miterlimit:4;" d="M 284.042551 191.279396 C 284.042551 182.56579 267.765955 141.097425 264.999997 135.218365 C 259.042551 127.554592 254.680848 118.840986 252.021274 109.497481 C 250.531912 100.468925 245.744678 93.540034 239.042551 91.12542 C 231.063827 87.031075 223.510636 88.605823 216.17021 89.340706 C 212.553189 89.970605 209.468082 91.965286 207.765955 94.799832 C 203.829785 100.468925 201.702125 100.048992 198.936167 102.463606 C 176.382976 106.033035 155.10638 117.581187 138.936167 125.454928 C 133.085103 129.969205 126.489359 133.328668 119.574465 135.743281 C 112.765954 135.638298 106.063827 133.328668 100.638295 129.12934 L 69.468082 100.783875 C 60.531912 94.06495 58.297869 103.828388 59.999997 105.298153 C 62.97872 111.702128 56.489359 115.586506 81.17021 138.892778 L 90.531912 158.104704 C 90.531912 158.104704 89.999997 163.248881 90.531912 163.458847 C 94.893614 174.272117 102.127657 171.647537 105.531912 168.603024 L 112.765954 161.884099 C 112.765954 161.884099 127.340423 157.264838 127.553189 156.949888 C 143.085103 159.154536 183.29787 151.595745 189.893614 148.446249 C 195.851061 145.086786 196.17021 147.921333 201.382976 143.722005 C 205.744678 140.782475 203.404253 143.092106 211.382976 135.848265 C 213.829785 133.748601 215.744678 137.108063 216.17021 139.522677 C 216.595742 162.199049 219.999997 181.725924 222.127657 204.297313 L 222.553189 207.761759 L 260.531912 219.834827 L 285.10638 196.843506 L 284.148934 191.174413 Z M 284.042551 191.279396 " transform="matrix(0.0367187,0,0,0.0372083,2.84375,0)"/>
<path style=" stroke:none;fill-rule:evenodd;fill:rgb(100%,92.54902%,0%);fill-opacity:1;" d="M 6.101562 4.457031 C 6.113281 4.46875 5.894531 5.1875 5.894531 5.1875 L 5.695312 4.980469 L 5.835938 4.226562 Z M 6.101562 4.457031 "/>
<path style="fill:none;stroke-width:2.2;stroke-linecap:butt;stroke-linejoin:miter;stroke:rgb(0%,0%,0%);stroke-opacity:1;stroke-miterlimit:4;" d="M 178.829784 108.447649 C 185.957444 116.426372 188.29787 129.549272 187.021274 137.00308 " transform="matrix(0.0367187,0,0,0.0372083,2.84375,0)"/>
<path style="fill:none;stroke-width:2.4;stroke-linecap:butt;stroke-linejoin:miter;stroke:rgb(0%,0%,0%);stroke-opacity:1;stroke-miterlimit:4;" d="M 89.04255 119.050952 C 88.723401 120.415734 87.553188 126.294793 87.021274 127.764558 L 85.851061 133.118701 L 84.361699 138.262878 C 84.148933 139.94261 83.829784 141.622341 83.404252 143.302072 M 79.680848 110.337346 C 79.787231 110.652296 80.212763 112.332027 80.319146 113.381859 C 80.10638 114.641658 79.787231 118.840986 79.255316 120.310751 L 78.404252 125.139978 L 77.446805 129.654256 L 76.595742 134.273517 " transform="matrix(0.0367187,0,0,0.0372083,2.84375,0)"/>
<path style="fill:none;stroke-width:2.2;stroke-linecap:butt;stroke-linejoin:miter;stroke:rgb(0%,0%,0%);stroke-opacity:1;stroke-miterlimit:4;" d="M 150.744678 156.319989 L 150.851061 156.00504 C 150.425529 156.844905 150.851061 156.319989 149.999997 154.640258 C 149.148933 153.590426 148.617018 149.286115 149.787231 146.766518 L 151.808508 142.462206 C 152.021274 142.147257 152.23404 141.832307 152.553189 141.517358 M 98.829784 129.024356 L 98.723401 129.234323 L 98.085103 130.179172 C 97.340423 131.543953 96.595742 132.803752 95.851061 133.853584 C 95.319146 135.218365 94.148933 136.163214 93.617018 137.527996 L 91.17021 141.517358 C 90.319146 142.882139 89.361699 144.141938 88.617018 145.506719 L 86.595742 148.656215 L 88.617018 145.506719 L 86.595742 148.656215 M 72.446805 104.353304 C 72.553188 104.56327 73.085103 106.347985 73.191486 107.397817 C 72.97872 108.447649 72.765954 112.43701 72.446805 113.696809 L 71.702125 118.106103 C 71.276593 119.680851 71.17021 120.835667 70.744678 122.410415 L 70.212763 126.609743 M 104.04255 150.965846 C 102.340423 149.076148 101.276593 149.811031 100.212763 149.706047 C 97.97872 150.335947 96.063827 151.490762 94.468082 153.170493 C 93.829784 154.115342 92.97872 154.850224 91.914891 155.69009 C 91.382976 156.529956 90.957444 156.739922 90.531912 157.159855 M 232.021274 90.390538 L 231.914891 90.705487 C 232.340423 89.865622 232.021274 90.285555 232.446806 92.175252 C 232.872338 93.540034 232.872338 94.379899 233.404253 95.639698 M 205.531912 97.424412 C 205.531912 97.634379 205.212763 115.901456 205.957444 118.31607 C 206.17021 119.785835 206.595742 121.045633 206.808508 122.935331 C 206.914891 123.880179 207.021274 124.930012 207.23404 125.87486 C 207.765955 127.134659 207.872338 128.289474 208.617019 129.234323 C 208.936167 130.494121 209.893614 130.599104 210.531912 131.648937 C 211.17021 132.593785 212.553189 134.06355 213.29787 134.693449 M 192.765955 147.606383 C 192.23404 147.396417 190.851061 146.241602 189.574465 145.611702 C 188.191487 144.771837 184.680848 140.677492 184.574465 137.842945 " transform="matrix(0.0367187,0,0,0.0372083,2.84375,0)"/>
<path style="fill:none;stroke-width:2.2;stroke-linecap:butt;stroke-linejoin:miter;stroke:rgb(0%,0%,0%);stroke-opacity:1;stroke-miterlimit:4;" d="M 206.489359 121.570549 L 201.489359 126.609743 C 196.595742 130.599104 191.276593 133.958567 185.744678 136.898097 C 184.468082 137.527996 182.978721 138.892778 181.702125 138.997761 C 180.319146 139.522677 179.04255 139.94261 177.659572 140.047593 C 168.191487 141.832307 158.617018 142.357223 149.04255 141.622341 L 145.638295 141.412374 C 144.680848 141.517358 143.617018 141.622341 142.340423 141.622341 C 140.744678 141.517358 139.893614 141.832307 138.617018 141.93729 C 137.553189 142.462206 135.851061 142.987122 134.680848 143.826988 C 133.297869 144.456887 132.127657 145.086786 131.063827 145.821669 C 130.10638 146.661535 114.680848 155.585107 113.936167 156.00504 C 112.340423 156.739922 106.595742 158.524636 105.10638 154.430292 C 104.574465 152.645577 104.148933 151.175812 104.04255 149.916014 C 103.510635 148.551232 103.829784 146.871501 103.829784 145.506719 C 105.212763 138.577828 107.446806 135.848265 107.97872 134.693449 L 108.723401 133.538634 M 250.957444 108.027716 L 250.851061 108.342665 C 251.276593 107.607783 251.063827 107.922733 250.10638 109.077548 C 249.042551 109.917413 247.978721 110.967246 247.021274 112.122061 C 245.957444 112.856943 245.212763 114.116742 244.3617 114.536674 C 243.617019 115.37654 242.553189 116.006439 241.382976 116.531355 C 240.10638 116.951288 238.829785 117.581187 237.553189 118.421053 C 235.851061 119.155935 234.893614 120.100784 233.404253 121.045633 C 232.446806 122.200448 231.382976 123.040314 230.638295 124.405096 C 229.787231 125.559911 229.042551 126.924692 228.29787 128.289474 L 226.489359 131.75392 L 228.29787 128.289474 L 226.489359 131.75392 M 238.191487 204.927212 L 238.510636 204.402296 C 238.085104 205.452128 238.085104 205.137179 238.617019 203.457447 C 238.617019 201.672733 239.148934 199.363102 239.148934 197.683371 C 239.468082 195.898657 239.680848 194.113942 239.680848 192.224245 C 239.680848 190.229564 239.574465 188.234883 239.255317 186.240202 C 239.148934 184.350504 239.042551 182.56579 239.042551 180.571109 C 239.042551 178.891378 238.829785 177.211647 238.404253 175.636899 L 237.978721 170.807671 C 237.978721 169.547873 237.872338 168.498041 237.553189 167.448209 L 236.276593 162.304032 L 235.319146 158.209687 C 235.10638 156.634939 234.255316 154.640258 233.936168 153.275476 C 233.404253 152.225644 232.978721 151.070829 232.765955 149.916014 C 232.127657 148.761199 231.702125 147.606383 231.489359 146.346585 L 229.893614 142.56719 L 228.510636 138.997761 C 227.978721 137.632979 227.446806 136.373181 227.021274 135.008399 C 226.595742 134.483483 226.382976 133.958567 226.17021 133.643617 " transform="matrix(0.0367187,0,0,0.0372083,2.84375,0)"/>
<path style="fill-rule:evenodd;fill:rgb(100%,90.196079%,2.352941%);fill-opacity:1;stroke-width:2.2;stroke-linecap:butt;stroke-linejoin:miter;stroke:rgb(0%,0%,0%);stroke-opacity:1;stroke-miterlimit:4;" d="M 234.893614 98.474244 C 233.191487 101.93869 231.063827 105.193169 228.723402 108.237682 L 224.468082 116.636338 C 222.659572 121.150616 223.829785 123.145297 224.574465 124.405096 C 226.276593 127.449608 226.595742 129.024356 227.765955 131.229004 C 228.29787 133.958567 223.29787 135.008399 223.29787 135.113382 C 212.872338 138.682811 207.553189 128.709407 207.553189 128.184491 C 206.17021 123.040314 206.382976 122.200448 209.574465 121.150616 C 213.191487 120.205767 214.574465 120.100784 216.382976 118.945969 C 219.893614 116.321389 222.340423 108.552632 222.446806 108.447649 L 222.765955 104.143337 C 223.085104 102.148656 222.23404 100.048992 223.191487 96.899496 C 224.574465 93.75 225.425529 92.910135 228.617019 92.595185 C 232.765955 92.280235 236.063827 95.219765 234.893614 98.474244 Z M 234.893614 98.474244 " transform="matrix(0.0367187,0,0,0.0372083,2.84375,0)"/>
<path style="fill-rule:evenodd;fill:rgb(100%,93.725491%,0%);fill-opacity:1;stroke-width:2.2;stroke-linecap:butt;stroke-linejoin:miter;stroke:rgb(0%,0%,0%);stroke-opacity:1;stroke-miterlimit:4;" d="M 221.276593 199.678052 C 219.680848 198.208287 250.744678 210.911255 254.999997 211.016238 C 260.851061 208.916574 284.893614 188.549833 284.893614 188.549833 C 285.10638 190.649497 285.957444 195.68869 288.29787 196.843506 C 279.042551 204.297313 270.638295 211.646137 261.276593 219.099945 C 261.914891 231.06803 259.787231 243.770997 265.851061 257.103864 C 265.851061 257.103864 258.617019 257.31383 258.617019 257.103864 C 252.23404 250.699889 249.893614 219.93981 249.893614 219.93981 L 219.255316 206.291994 C 220.851061 205.347145 221.914891 202.407615 221.276593 199.573069 Z M 221.276593 199.678052 " transform="matrix(0.0367187,0,0,0.0372083,2.84375,0)"/>
<path style="fill:none;stroke-width:2.2;stroke-linecap:butt;stroke-linejoin:miter;stroke:rgb(0%,0%,0%);stroke-opacity:1;stroke-miterlimit:4;" d="M 250.851061 231.277996 C 251.276593 230.858063 245.212763 234.112543 243.617019 234.952408 C 215.531912 249.860023 200.957444 271.906496 200.10638 272.746361 L 197.872338 276.105824 L 195.638295 279.150337 L 192.021274 283.769598 C 191.808508 284.399497 192.446806 283.454648 192.23404 283.979564 M 270.10638 213.430852 C 272.23404 215.110583 274.3617 216.685331 276.595742 218.050113 C 302.765955 236.31719 328.936168 239.151736 330.106381 239.571669 C 331.17021 239.676652 332.553189 239.781636 334.148934 240.096585 C 335.319147 240.201568 336.595742 240.411535 337.872338 240.621501 C 339.255317 240.831468 342.340423 241.356384 343.723402 241.776316 C 344.255317 241.56635 343.191487 241.461367 343.723402 241.356384 " transform="matrix(0.0367187,0,0,0.0372083,2.84375,0)"/>
</g>
</svg>
