<svg xmlns="http://www.w3.org/2000/svg" width="25" height="px" viewBox="0 0 25 19"><path d="M0 0h25v6.332H0Zm0 0" style="stroke:none;fill-rule:nonzero;fill:#f93;fill-opacity:1"/><path d="M0 6.332h25v6.336H0Zm0 0" style="stroke:none;fill-rule:nonzero;fill:#fff;fill-opacity:1"/><path d="M0 12.668h25V19H0Zm0 0" style="stroke:none;fill-rule:nonzero;fill:#128807;fill-opacity:1"/><path d="M15 9.5c0-1.398-1.121-2.535-2.5-2.535S10 8.102 10 9.5s1.121 2.535 2.5 2.535S15 10.898 15 9.5m0 0" style="stroke:none;fill-rule:nonzero;fill:#008;fill-opacity:1"/><path d="M14.688 9.5c0-1.223-.981-2.215-2.188-2.215s-2.187.992-2.187 2.215.98 2.215 2.187 2.215 2.188-.992 2.188-2.215m0 0" style="stroke:none;fill-rule:nonzero;fill:#fff;fill-opacity:1"/><path d="M12.938 9.5a.438.438 0 1 0-.876 0 .438.438 0 1 0 .876 0M14.781 9.805a.115.115 0 0 0-.097-.13.11.11 0 0 0-.125.098c-.008.063.035.122.093.13a.115.115 0 0 0 .13-.098m0 0" style="stroke:none;fill-rule:nonzero;fill:#008;fill-opacity:1"/><path d="m12.5 11.715.074-1.328-.074-.633-.074.633ZM14.625 10.395a.12.12 0 0 0-.062-.153.11.11 0 0 0-.145.063.115.115 0 0 0 .059.148.115.115 0 0 0 .148-.058M11.934 11.64l.414-1.265.086-.629-.235.59ZM14.324 10.918c.04-.047.028-.121-.02-.16a.117.117 0 0 0-.16.023.117.117 0 0 0 .024.16c.047.04.117.028.156-.023M11.406 11.418l.723-1.113.246-.586-.379.511ZM13.898 11.348a.11.11 0 0 0 .024-.157.113.113 0 0 0-.16-.023.116.116 0 0 0-.02.16c.04.05.11.059.156.02M10.953 11.066l.98-.886.391-.5-.496.394ZM13.379 11.652a.114.114 0 1 0-.086-.21.114.114 0 0 0-.059.152.11.11 0 0 0 .145.058M10.605 10.61l1.176-.602.504-.383-.582.254ZM12.8 11.813c.06-.012.106-.067.095-.13a.11.11 0 0 0-.125-.097.11.11 0 0 0-.098.125c.008.062.066.11.129.101M10.387 10.074l1.289-.27.582-.238-.621.09ZM12.2 11.813a.114.114 0 0 0 .124-.102.11.11 0 0 0-.097-.125.113.113 0 0 0-.125.098.117.117 0 0 0 .097.129M10.313 9.5l1.312.074.625-.074-.625-.074ZM11.617 11.652a.114.114 0 0 0 .149-.062.115.115 0 0 0-.059-.149.114.114 0 0 0-.148.063.115.115 0 0 0 .058.148M10.387 8.926l1.25.418.62.09-.581-.239ZM11.098 11.348c.05.039.12.03.16-.02a.117.117 0 0 0-.024-.16c-.046-.04-.117-.027-.156.02a.116.116 0 0 0 .02.16M10.605 8.39l1.098.731.582.254-.504-.383ZM10.676 10.918c.035.05.105.059.156.02a.11.11 0 0 0 .02-.157.11.11 0 0 0-.157-.023.113.113 0 0 0-.02.16M10.953 7.934l.875.992.496.394-.39-.5ZM10.375 10.39c.023.06.09.087.148.063a.115.115 0 0 0 .059-.148.11.11 0 0 0-.145-.063.114.114 0 0 0-.062.149M11.406 7.582l.59 1.188.379.511-.246-.586ZM10.219 9.805a.115.115 0 0 0 .129.097c.058-.007.101-.066.093-.129a.11.11 0 0 0-.125-.097.115.115 0 0 0-.097.129M11.934 7.36l.265 1.304.235.59-.086-.629ZM10.219 9.195a.115.115 0 0 0 .097.13.11.11 0 0 0 .125-.098c.008-.063-.035-.122-.093-.13a.115.115 0 0 0-.13.098M12.5 7.285l-.074 1.328.074.633.074-.633ZM10.375 8.605a.12.12 0 0 0 .063.153.11.11 0 0 0 .144-.063.115.115 0 0 0-.059-.148.115.115 0 0 0-.148.058M13.066 7.36l-.414 1.265-.086.629.235-.59ZM10.676 8.082c-.04.047-.028.121.02.16.05.035.12.028.16-.023a.117.117 0 0 0-.024-.16c-.047-.04-.117-.028-.156.023M13.594 7.582l-.723 1.113-.246.586.379-.511ZM11.102 7.652a.11.11 0 0 0-.024.157c.04.05.11.062.16.023a.116.116 0 0 0 .02-.16.11.11 0 0 0-.156-.02M14.047 7.934l-.98.886-.391.5.496-.394ZM11.621 7.348a.114.114 0 1 0 .086.21.114.114 0 0 0 .059-.152.11.11 0 0 0-.145-.058M14.395 8.39l-1.176.602-.504.383.582-.254ZM12.2 7.188c-.06.011-.106.066-.095.128a.11.11 0 0 0 .125.098.11.11 0 0 0 .098-.125.117.117 0 0 0-.129-.101M14.613 8.926l-1.289.27-.582.238.621-.09ZM12.8 7.188a.114.114 0 0 0-.124.101.11.11 0 0 0 .097.125.113.113 0 0 0 .125-.098.117.117 0 0 0-.097-.128M14.688 9.5l-1.313-.074-.625.074.625.074ZM13.383 7.348a.114.114 0 0 0-.149.062.115.115 0 0 0 .059.149.114.114 0 0 0 .148-.063.115.115 0 0 0-.058-.148M14.613 10.074l-1.25-.418-.62-.09.581.239ZM13.902 7.652a.113.113 0 0 0-.16.02.117.117 0 0 0 .024.16c.046.04.117.027.156-.02a.116.116 0 0 0-.02-.16M14.395 10.61l-1.098-.731-.582-.254.504.383ZM14.324 8.082c-.035-.05-.105-.059-.156-.02a.11.11 0 0 0-.02.157c.036.05.106.062.157.023.05-.039.058-.11.02-.16M14.047 11.066l-.875-.992-.496-.394.39.5ZM14.625 8.61a.114.114 0 0 0-.148-.063.115.115 0 0 0-.059.148.11.11 0 0 0 .145.063.114.114 0 0 0 .062-.149M13.594 11.418l-.59-1.188-.379-.511.246.586ZM14.781 9.195a.115.115 0 0 0-.129-.097c-.058.007-.101.066-.093.129a.11.11 0 0 0 .125.097.115.115 0 0 0 .097-.129M13.066 11.64l-.265-1.304-.235-.59.086.629Zm0 0" style="stroke:none;fill-rule:nonzero;fill:#008;fill-opacity:1"/></svg>