<?xml version="1.0" encoding="UTF-8"?>
<svg xmlns="http://www.w3.org/2000/svg" xmlns:xlink="http://www.w3.org/1999/xlink" width="25px" height="px" viewBox="0 0 25 19" version="1.1">
<g id="surface1">
<path style=" stroke:none;fill-rule:nonzero;fill:rgb(100%,60.000002%,20%);fill-opacity:1;" d="M 0 0 L 25 0 L 25 6.332031 L 0 6.332031 Z M 0 0 "/>
<path style=" stroke:none;fill-rule:nonzero;fill:rgb(100%,100%,100%);fill-opacity:1;" d="M 0 6.332031 L 25 6.332031 L 25 12.667969 L 0 12.667969 Z M 0 6.332031 "/>
<path style=" stroke:none;fill-rule:nonzero;fill:rgb(7.058824%,53.333336%,2.745098%);fill-opacity:1;" d="M 0 12.667969 L 25 12.667969 L 25 19 L 0 19 Z M 0 12.667969 "/>
<path style=" stroke:none;fill-rule:nonzero;fill:rgb(0%,0%,53.333336%);fill-opacity:1;" d="M 15 9.5 C 15 8.101562 13.878906 6.964844 12.5 6.964844 C 11.121094 6.964844 10 8.101562 10 9.5 C 10 10.898438 11.121094 12.035156 12.5 12.035156 C 13.878906 12.035156 15 10.898438 15 9.5 Z M 15 9.5 "/>
<path style=" stroke:none;fill-rule:nonzero;fill:rgb(100%,100%,100%);fill-opacity:1;" d="M 14.6875 9.5 C 14.6875 8.277344 13.707031 7.285156 12.5 7.285156 C 11.292969 7.285156 10.3125 8.277344 10.3125 9.5 C 10.3125 10.722656 11.292969 11.714844 12.5 11.714844 C 13.707031 11.714844 14.6875 10.722656 14.6875 9.5 Z M 14.6875 9.5 "/>
<path style=" stroke:none;fill-rule:nonzero;fill:rgb(0%,0%,53.333336%);fill-opacity:1;" d="M 12.9375 9.5 C 12.9375 9.253906 12.742188 9.058594 12.5 9.058594 C 12.257812 9.058594 12.0625 9.253906 12.0625 9.5 C 12.0625 9.746094 12.257812 9.941406 12.5 9.941406 C 12.742188 9.941406 12.9375 9.746094 12.9375 9.5 Z M 12.9375 9.5 "/>
<path style=" stroke:none;fill-rule:nonzero;fill:rgb(0%,0%,53.333336%);fill-opacity:1;" d="M 14.78125 9.804688 C 14.789062 9.742188 14.746094 9.683594 14.683594 9.675781 C 14.621094 9.667969 14.566406 9.710938 14.558594 9.773438 C 14.550781 9.835938 14.59375 9.894531 14.652344 9.902344 C 14.714844 9.910156 14.773438 9.867188 14.78125 9.804688 Z M 14.78125 9.804688 "/>
<path style=" stroke:none;fill-rule:nonzero;fill:rgb(0%,0%,53.333336%);fill-opacity:1;" d="M 12.5 11.714844 L 12.574219 10.386719 L 12.5 9.753906 L 12.425781 10.386719 Z M 12.5 11.714844 "/>
<path style=" stroke:none;fill-rule:nonzero;fill:rgb(0%,0%,53.333336%);fill-opacity:1;" d="M 14.625 10.394531 C 14.648438 10.335938 14.621094 10.269531 14.5625 10.242188 C 14.507812 10.21875 14.441406 10.246094 14.417969 10.304688 C 14.394531 10.363281 14.421875 10.429688 14.476562 10.453125 C 14.535156 10.476562 14.601562 10.449219 14.625 10.394531 Z M 14.625 10.394531 "/>
<path style=" stroke:none;fill-rule:nonzero;fill:rgb(0%,0%,53.333336%);fill-opacity:1;" d="M 11.933594 11.640625 L 12.347656 10.375 L 12.433594 9.746094 L 12.199219 10.335938 Z M 11.933594 11.640625 "/>
<path style=" stroke:none;fill-rule:nonzero;fill:rgb(0%,0%,53.333336%);fill-opacity:1;" d="M 14.324219 10.917969 C 14.363281 10.871094 14.351562 10.796875 14.304688 10.757812 C 14.253906 10.722656 14.183594 10.730469 14.144531 10.78125 C 14.109375 10.832031 14.117188 10.902344 14.167969 10.941406 C 14.214844 10.980469 14.285156 10.96875 14.324219 10.917969 Z M 14.324219 10.917969 "/>
<path style=" stroke:none;fill-rule:nonzero;fill:rgb(0%,0%,53.333336%);fill-opacity:1;" d="M 11.40625 11.417969 L 12.128906 10.304688 L 12.375 9.71875 L 11.996094 10.230469 Z M 11.40625 11.417969 "/>
<path style=" stroke:none;fill-rule:nonzero;fill:rgb(0%,0%,53.333336%);fill-opacity:1;" d="M 13.898438 11.347656 C 13.949219 11.3125 13.957031 11.238281 13.921875 11.191406 C 13.882812 11.140625 13.8125 11.128906 13.761719 11.167969 C 13.714844 11.207031 13.703125 11.277344 13.742188 11.328125 C 13.78125 11.378906 13.851562 11.386719 13.898438 11.347656 Z M 13.898438 11.347656 "/>
<path style=" stroke:none;fill-rule:nonzero;fill:rgb(0%,0%,53.333336%);fill-opacity:1;" d="M 10.953125 11.066406 L 11.933594 10.179688 L 12.324219 9.679688 L 11.828125 10.074219 Z M 10.953125 11.066406 "/>
<path style=" stroke:none;fill-rule:nonzero;fill:rgb(0%,0%,53.333336%);fill-opacity:1;" d="M 13.378906 11.652344 C 13.4375 11.628906 13.464844 11.5625 13.441406 11.503906 C 13.417969 11.445312 13.351562 11.417969 13.292969 11.441406 C 13.234375 11.46875 13.207031 11.535156 13.234375 11.59375 C 13.257812 11.648438 13.320312 11.675781 13.378906 11.652344 Z M 13.378906 11.652344 "/>
<path style=" stroke:none;fill-rule:nonzero;fill:rgb(0%,0%,53.333336%);fill-opacity:1;" d="M 10.605469 10.609375 L 11.78125 10.007812 L 12.285156 9.625 L 11.703125 9.878906 Z M 10.605469 10.609375 "/>
<path style=" stroke:none;fill-rule:nonzero;fill:rgb(0%,0%,53.333336%);fill-opacity:1;" d="M 12.800781 11.8125 C 12.859375 11.800781 12.90625 11.746094 12.894531 11.683594 C 12.886719 11.621094 12.832031 11.578125 12.769531 11.585938 C 12.707031 11.59375 12.664062 11.648438 12.671875 11.710938 C 12.679688 11.773438 12.738281 11.820312 12.800781 11.8125 Z M 12.800781 11.8125 "/>
<path style=" stroke:none;fill-rule:nonzero;fill:rgb(0%,0%,53.333336%);fill-opacity:1;" d="M 10.386719 10.074219 L 11.675781 9.804688 L 12.257812 9.566406 L 11.636719 9.65625 Z M 10.386719 10.074219 "/>
<path style=" stroke:none;fill-rule:nonzero;fill:rgb(0%,0%,53.333336%);fill-opacity:1;" d="M 12.199219 11.8125 C 12.261719 11.820312 12.316406 11.773438 12.324219 11.710938 C 12.332031 11.648438 12.289062 11.59375 12.226562 11.585938 C 12.167969 11.578125 12.109375 11.621094 12.101562 11.683594 C 12.09375 11.746094 12.136719 11.800781 12.199219 11.8125 Z M 12.199219 11.8125 "/>
<path style=" stroke:none;fill-rule:nonzero;fill:rgb(0%,0%,53.333336%);fill-opacity:1;" d="M 10.3125 9.5 L 11.625 9.574219 L 12.25 9.5 L 11.625 9.425781 Z M 10.3125 9.5 "/>
<path style=" stroke:none;fill-rule:nonzero;fill:rgb(0%,0%,53.333336%);fill-opacity:1;" d="M 11.617188 11.652344 C 11.675781 11.675781 11.742188 11.648438 11.765625 11.589844 C 11.789062 11.53125 11.761719 11.464844 11.707031 11.441406 C 11.648438 11.417969 11.582031 11.445312 11.558594 11.503906 C 11.535156 11.5625 11.5625 11.628906 11.617188 11.652344 Z M 11.617188 11.652344 "/>
<path style=" stroke:none;fill-rule:nonzero;fill:rgb(0%,0%,53.333336%);fill-opacity:1;" d="M 10.386719 8.925781 L 11.636719 9.34375 L 12.257812 9.433594 L 11.675781 9.195312 Z M 10.386719 8.925781 "/>
<path style=" stroke:none;fill-rule:nonzero;fill:rgb(0%,0%,53.333336%);fill-opacity:1;" d="M 11.097656 11.347656 C 11.148438 11.386719 11.21875 11.378906 11.257812 11.328125 C 11.292969 11.277344 11.285156 11.207031 11.234375 11.167969 C 11.1875 11.128906 11.117188 11.140625 11.078125 11.1875 C 11.039062 11.238281 11.050781 11.308594 11.097656 11.347656 Z M 11.097656 11.347656 "/>
<path style=" stroke:none;fill-rule:nonzero;fill:rgb(0%,0%,53.333336%);fill-opacity:1;" d="M 10.605469 8.390625 L 11.703125 9.121094 L 12.285156 9.375 L 11.78125 8.992188 Z M 10.605469 8.390625 "/>
<path style=" stroke:none;fill-rule:nonzero;fill:rgb(0%,0%,53.333336%);fill-opacity:1;" d="M 10.675781 10.917969 C 10.710938 10.96875 10.78125 10.976562 10.832031 10.9375 C 10.882812 10.902344 10.890625 10.828125 10.851562 10.78125 C 10.816406 10.730469 10.746094 10.71875 10.695312 10.757812 C 10.644531 10.796875 10.636719 10.867188 10.675781 10.917969 Z M 10.675781 10.917969 "/>
<path style=" stroke:none;fill-rule:nonzero;fill:rgb(0%,0%,53.333336%);fill-opacity:1;" d="M 10.953125 7.933594 L 11.828125 8.925781 L 12.324219 9.320312 L 11.933594 8.820312 Z M 10.953125 7.933594 "/>
<path style=" stroke:none;fill-rule:nonzero;fill:rgb(0%,0%,53.333336%);fill-opacity:1;" d="M 10.375 10.390625 C 10.398438 10.449219 10.464844 10.476562 10.523438 10.453125 C 10.578125 10.429688 10.605469 10.363281 10.582031 10.304688 C 10.558594 10.246094 10.492188 10.21875 10.4375 10.242188 C 10.378906 10.265625 10.351562 10.332031 10.375 10.390625 Z M 10.375 10.390625 "/>
<path style=" stroke:none;fill-rule:nonzero;fill:rgb(0%,0%,53.333336%);fill-opacity:1;" d="M 11.40625 7.582031 L 11.996094 8.769531 L 12.375 9.28125 L 12.128906 8.695312 Z M 11.40625 7.582031 "/>
<path style=" stroke:none;fill-rule:nonzero;fill:rgb(0%,0%,53.333336%);fill-opacity:1;" d="M 10.21875 9.804688 C 10.226562 9.867188 10.285156 9.910156 10.347656 9.902344 C 10.40625 9.894531 10.449219 9.835938 10.441406 9.773438 C 10.433594 9.710938 10.378906 9.667969 10.316406 9.675781 C 10.253906 9.683594 10.210938 9.742188 10.21875 9.804688 Z M 10.21875 9.804688 "/>
<path style=" stroke:none;fill-rule:nonzero;fill:rgb(0%,0%,53.333336%);fill-opacity:1;" d="M 11.933594 7.359375 L 12.199219 8.664062 L 12.433594 9.253906 L 12.347656 8.625 Z M 11.933594 7.359375 "/>
<path style=" stroke:none;fill-rule:nonzero;fill:rgb(0%,0%,53.333336%);fill-opacity:1;" d="M 10.21875 9.195312 C 10.210938 9.257812 10.253906 9.316406 10.316406 9.324219 C 10.378906 9.332031 10.433594 9.289062 10.441406 9.226562 C 10.449219 9.164062 10.40625 9.105469 10.347656 9.097656 C 10.285156 9.089844 10.226562 9.132812 10.21875 9.195312 Z M 10.21875 9.195312 "/>
<path style=" stroke:none;fill-rule:nonzero;fill:rgb(0%,0%,53.333336%);fill-opacity:1;" d="M 12.5 7.285156 L 12.425781 8.613281 L 12.5 9.246094 L 12.574219 8.613281 Z M 12.5 7.285156 "/>
<path style=" stroke:none;fill-rule:nonzero;fill:rgb(0%,0%,53.333336%);fill-opacity:1;" d="M 10.375 8.605469 C 10.351562 8.664062 10.378906 8.730469 10.4375 8.757812 C 10.492188 8.78125 10.558594 8.753906 10.582031 8.695312 C 10.605469 8.636719 10.578125 8.570312 10.523438 8.546875 C 10.464844 8.523438 10.398438 8.550781 10.375 8.605469 Z M 10.375 8.605469 "/>
<path style=" stroke:none;fill-rule:nonzero;fill:rgb(0%,0%,53.333336%);fill-opacity:1;" d="M 13.066406 7.359375 L 12.652344 8.625 L 12.566406 9.253906 L 12.800781 8.664062 Z M 13.066406 7.359375 "/>
<path style=" stroke:none;fill-rule:nonzero;fill:rgb(0%,0%,53.333336%);fill-opacity:1;" d="M 10.675781 8.082031 C 10.636719 8.128906 10.648438 8.203125 10.695312 8.242188 C 10.746094 8.277344 10.816406 8.269531 10.855469 8.21875 C 10.890625 8.167969 10.882812 8.097656 10.832031 8.058594 C 10.785156 8.019531 10.714844 8.03125 10.675781 8.082031 Z M 10.675781 8.082031 "/>
<path style=" stroke:none;fill-rule:nonzero;fill:rgb(0%,0%,53.333336%);fill-opacity:1;" d="M 13.59375 7.582031 L 12.871094 8.695312 L 12.625 9.28125 L 13.003906 8.769531 Z M 13.59375 7.582031 "/>
<path style=" stroke:none;fill-rule:nonzero;fill:rgb(0%,0%,53.333336%);fill-opacity:1;" d="M 11.101562 7.652344 C 11.050781 7.6875 11.042969 7.761719 11.078125 7.808594 C 11.117188 7.859375 11.1875 7.871094 11.238281 7.832031 C 11.285156 7.792969 11.296875 7.722656 11.257812 7.671875 C 11.21875 7.621094 11.148438 7.613281 11.101562 7.652344 Z M 11.101562 7.652344 "/>
<path style=" stroke:none;fill-rule:nonzero;fill:rgb(0%,0%,53.333336%);fill-opacity:1;" d="M 14.046875 7.933594 L 13.066406 8.820312 L 12.675781 9.320312 L 13.171875 8.925781 Z M 14.046875 7.933594 "/>
<path style=" stroke:none;fill-rule:nonzero;fill:rgb(0%,0%,53.333336%);fill-opacity:1;" d="M 11.621094 7.347656 C 11.5625 7.371094 11.535156 7.4375 11.558594 7.496094 C 11.582031 7.554688 11.648438 7.582031 11.707031 7.558594 C 11.765625 7.53125 11.792969 7.464844 11.765625 7.40625 C 11.742188 7.351562 11.679688 7.324219 11.621094 7.347656 Z M 11.621094 7.347656 "/>
<path style=" stroke:none;fill-rule:nonzero;fill:rgb(0%,0%,53.333336%);fill-opacity:1;" d="M 14.394531 8.390625 L 13.21875 8.992188 L 12.714844 9.375 L 13.296875 9.121094 Z M 14.394531 8.390625 "/>
<path style=" stroke:none;fill-rule:nonzero;fill:rgb(0%,0%,53.333336%);fill-opacity:1;" d="M 12.199219 7.1875 C 12.140625 7.199219 12.09375 7.253906 12.105469 7.316406 C 12.113281 7.378906 12.167969 7.421875 12.230469 7.414062 C 12.292969 7.40625 12.335938 7.351562 12.328125 7.289062 C 12.320312 7.226562 12.261719 7.179688 12.199219 7.1875 Z M 12.199219 7.1875 "/>
<path style=" stroke:none;fill-rule:nonzero;fill:rgb(0%,0%,53.333336%);fill-opacity:1;" d="M 14.613281 8.925781 L 13.324219 9.195312 L 12.742188 9.433594 L 13.363281 9.34375 Z M 14.613281 8.925781 "/>
<path style=" stroke:none;fill-rule:nonzero;fill:rgb(0%,0%,53.333336%);fill-opacity:1;" d="M 12.800781 7.1875 C 12.738281 7.179688 12.683594 7.226562 12.675781 7.289062 C 12.667969 7.351562 12.710938 7.40625 12.773438 7.414062 C 12.832031 7.421875 12.890625 7.378906 12.898438 7.316406 C 12.90625 7.253906 12.863281 7.199219 12.800781 7.1875 Z M 12.800781 7.1875 "/>
<path style=" stroke:none;fill-rule:nonzero;fill:rgb(0%,0%,53.333336%);fill-opacity:1;" d="M 14.6875 9.5 L 13.375 9.425781 L 12.75 9.5 L 13.375 9.574219 Z M 14.6875 9.5 "/>
<path style=" stroke:none;fill-rule:nonzero;fill:rgb(0%,0%,53.333336%);fill-opacity:1;" d="M 13.382812 7.347656 C 13.324219 7.324219 13.257812 7.351562 13.234375 7.410156 C 13.210938 7.46875 13.238281 7.535156 13.292969 7.558594 C 13.351562 7.582031 13.417969 7.554688 13.441406 7.496094 C 13.464844 7.4375 13.4375 7.371094 13.382812 7.347656 Z M 13.382812 7.347656 "/>
<path style=" stroke:none;fill-rule:nonzero;fill:rgb(0%,0%,53.333336%);fill-opacity:1;" d="M 14.613281 10.074219 L 13.363281 9.65625 L 12.742188 9.566406 L 13.324219 9.804688 Z M 14.613281 10.074219 "/>
<path style=" stroke:none;fill-rule:nonzero;fill:rgb(0%,0%,53.333336%);fill-opacity:1;" d="M 13.902344 7.652344 C 13.851562 7.613281 13.78125 7.621094 13.742188 7.671875 C 13.707031 7.722656 13.714844 7.792969 13.765625 7.832031 C 13.8125 7.871094 13.882812 7.859375 13.921875 7.8125 C 13.960938 7.761719 13.949219 7.691406 13.902344 7.652344 Z M 13.902344 7.652344 "/>
<path style=" stroke:none;fill-rule:nonzero;fill:rgb(0%,0%,53.333336%);fill-opacity:1;" d="M 14.394531 10.609375 L 13.296875 9.878906 L 12.714844 9.625 L 13.21875 10.007812 Z M 14.394531 10.609375 "/>
<path style=" stroke:none;fill-rule:nonzero;fill:rgb(0%,0%,53.333336%);fill-opacity:1;" d="M 14.324219 8.082031 C 14.289062 8.03125 14.21875 8.023438 14.167969 8.0625 C 14.117188 8.097656 14.109375 8.171875 14.148438 8.21875 C 14.183594 8.269531 14.253906 8.28125 14.304688 8.242188 C 14.355469 8.203125 14.363281 8.132812 14.324219 8.082031 Z M 14.324219 8.082031 "/>
<path style=" stroke:none;fill-rule:nonzero;fill:rgb(0%,0%,53.333336%);fill-opacity:1;" d="M 14.046875 11.066406 L 13.171875 10.074219 L 12.675781 9.679688 L 13.066406 10.179688 Z M 14.046875 11.066406 "/>
<path style=" stroke:none;fill-rule:nonzero;fill:rgb(0%,0%,53.333336%);fill-opacity:1;" d="M 14.625 8.609375 C 14.601562 8.550781 14.535156 8.523438 14.476562 8.546875 C 14.421875 8.570312 14.394531 8.636719 14.417969 8.695312 C 14.441406 8.753906 14.507812 8.78125 14.5625 8.757812 C 14.621094 8.734375 14.648438 8.667969 14.625 8.609375 Z M 14.625 8.609375 "/>
<path style=" stroke:none;fill-rule:nonzero;fill:rgb(0%,0%,53.333336%);fill-opacity:1;" d="M 13.59375 11.417969 L 13.003906 10.230469 L 12.625 9.71875 L 12.871094 10.304688 Z M 13.59375 11.417969 "/>
<path style=" stroke:none;fill-rule:nonzero;fill:rgb(0%,0%,53.333336%);fill-opacity:1;" d="M 14.78125 9.195312 C 14.773438 9.132812 14.714844 9.089844 14.652344 9.097656 C 14.59375 9.105469 14.550781 9.164062 14.558594 9.226562 C 14.566406 9.289062 14.621094 9.332031 14.683594 9.324219 C 14.746094 9.316406 14.789062 9.257812 14.78125 9.195312 Z M 14.78125 9.195312 "/>
<path style=" stroke:none;fill-rule:nonzero;fill:rgb(0%,0%,53.333336%);fill-opacity:1;" d="M 13.066406 11.640625 L 12.800781 10.335938 L 12.566406 9.746094 L 12.652344 10.375 Z M 13.066406 11.640625 "/>
</g>
</svg>
