<svg xmlns="http://www.w3.org/2000/svg" width="25" height="px" viewBox="0 0 25 19"><path d="M0 6.332h25v6.336H0Zm0 0" style="stroke:none;fill-rule:nonzero;fill:#fff;fill-opacity:1"/><path d="M0 0h25v6.332H0Zm0 0" style="stroke:none;fill-rule:nonzero;fill:#ce1126;fill-opacity:1"/><path d="M0 12.668h25V19H0Zm0 0" style="stroke:none;fill-rule:nonzero;fill:#000001;fill-opacity:1"/><path d="m15.27 8.336-.094-.07q-.042-.048.082-.012.223.07.363-.055l.086-.078.105.05q.101.054.137.048c.047-.012.14-.137.137-.18 0-.05.039-.035.066.02a.202.202 0 0 1-.136.27q-.07.021-.176-.02c-.098-.036-.117-.036-.164 0a.34.34 0 0 1-.406.027m.398-.367a.6.6 0 0 1-.07-.278c.004-.043.023-.054.054-.043.07.024.082.07.07.211q0 .186-.054.11m-4.625-.133c-.008.09.164.32.238.363-.054.02-.117.012-.164.035-.273.278-1.262 1.246-1.437 1.48a22 22 0 0 0 1.62-.027c0-.367.345-.386.575-.519.117.187.41.176.453.457v1.223h-4.55a.67.67 0 0 1-.31.449.66.66 0 0 1-.534.07c.136-.14.37-.195.453-.394.07-.446-.137-.715-.274-.973a1.6 1.6 0 0 0 .48-.25c-.16.488.423.438.848.426.012-.168.008-.364-.117-.39.156-.063.184-.083.453-.306v.668l3.153-.007c0-.207.054-.547-.11-.547-.148 0 0 .43-.12.43H9.253v-.419c.105-.109.09-.105.797-.816.066-.07.566-.527.996-.953Zm6.094-.02c.172.098.308.223.515.278-.02.09-.101.125-.125.215v1.87c.235.051.29-.09.399-.156.027.297.219.586.203.832h-.992ZM15.812 8.82s.36-.308.36-.324v1.629h.262l-.008-1.824c.105-.11.316-.262.363-.375v2.914h-2.285c-.035-.602-.043-1.227.656-1.094V9.5c-.02-.04-.062.008-.066-.047.11-.11.14-.137.441-.402l.008 1.074h.27Zm-.863 1.293c.047.067.219.067.203-.058-.02-.102-.238-.067-.203.058" style="stroke:none;fill-rule:nonzero;fill:#007a3d;fill-opacity:1"/><path d="M8.46 11.195a.14.14 0 0 0-.136-.14.138.138 0 0 0 0 .277.14.14 0 0 0 .137-.137M12.637 7.824c.172.09.308.223.52.278-.028.082-.102.117-.126.207v1.87c.235.051.281-.081.39-.156.036.297.22.594.212.832h-.996Zm0 0" style="stroke:none;fill-rule:nonzero;fill:#007a3d;fill-opacity:1"/></svg>