<svg xmlns="http://www.w3.org/2000/svg" width="25" height="px" viewBox="0 0 25 19"><path d="M0 0h25v19H0z" style="fill:#fff;fill-opacity:1;stroke:none"/><path d="M-3.906 12.758h32.812V19H-3.906Zm0 0" style="stroke:none;fill-rule:evenodd;fill:#da0000;fill-opacity:1"/><path d="M2.336 13.023h1.793v.125H2.336Zm.266.625h.125v.122h-.125Zm1.535 0v.122h-.36v-.125Zm.191-.625h.121v.743h-.12Zm0 0" style="stroke:none;fill-rule:evenodd;fill:#fff;fill-opacity:1"/><path d="M5.043 13.645v.125h-.68v-.125Zm-1.266-.293h.118v.418h-.122Zm0 0" style="stroke:none;fill-rule:evenodd;fill:#fff;fill-opacity:1"/><path d="M4.941 13.023h.125v.743h-.125Zm-.308 0h.12v.743h-.12Zm-1.64.297v.13h-.657v-.13Zm1.44 0v.13h-.66v-.13Zm0 0" style="stroke:none;fill-rule:evenodd;fill:#fff;fill-opacity:1"/><path d="M3.777 13.355h.118v.41h-.122Zm0 0" style="stroke:none;fill-rule:evenodd;fill:#fff;fill-opacity:1"/><path d="M3.777 13.355h.118v.41h-.122Zm0 0" style="stroke:none;fill-rule:evenodd;fill:#fff;fill-opacity:1"/><path d="M3.777 13.355h.118v.41h-.122Zm-1.441 0h.121v.41h-.121Zm1.055 0h.125v.41H3.39Zm-.524 0h.125v.41h-.125Zm0 0" style="stroke:none;fill-rule:evenodd;fill:#fff;fill-opacity:1"/><path d="M3.477 13.645v.125h-.555v-.125Zm.035-.325v.13H3.16v-.13ZM-.617 13.023h1.793v.125H-.617Zm.265.625h.125v.122h-.128Zm1.536 0v.122h-.36v-.125Zm.191-.625H1.5v.743h-.125Zm0 0" style="stroke:none;fill-rule:evenodd;fill:#fff;fill-opacity:1"/><path d="M2.094 13.645v.125H1.41v-.125Zm-1.27-.293h.121v.418h-.12Zm0 0" style="stroke:none;fill-rule:evenodd;fill:#fff;fill-opacity:1"/><path d="M1.988 13.023h.125v.743h-.125Zm-.304 0h.12v.743h-.12Zm-1.641.297v.13h-.66v-.13Zm1.437 0v.13H.82v-.13Zm0 0" style="stroke:none;fill-rule:evenodd;fill:#fff;fill-opacity:1"/><path d="M.824 13.355h.121v.41h-.12Zm0 0" style="stroke:none;fill-rule:evenodd;fill:#fff;fill-opacity:1"/><path d="M.824 13.355h.121v.41h-.12Zm0 0" style="stroke:none;fill-rule:evenodd;fill:#fff;fill-opacity:1"/><path d="M.824 13.355h.121v.41h-.12Zm-1.437 0h.12v.41h-.12Zm1.054 0h.122v.41H.44Zm-.523 0h.125v.41h-.125Zm0 0" style="stroke:none;fill-rule:evenodd;fill:#fff;fill-opacity:1"/><path d="M.523 13.645v.125h-.546v-.125Zm.04-.325v.13H.21v-.13ZM5.262 13.023h1.793v.125H5.262Zm.265.625h.125v.122h-.125Zm1.535 0v.122h-.359v-.125Zm.196-.625h.12v.743h-.12Zm0 0" style="stroke:none;fill-rule:evenodd;fill:#fff;fill-opacity:1"/><path d="M7.969 13.645v.125h-.68v-.125Zm-1.266-.293h.125v.418h-.125Zm0 0" style="stroke:none;fill-rule:evenodd;fill:#fff;fill-opacity:1"/><path d="M7.867 13.023h.125v.743h-.125Zm-.308 0h.125v.743h-.13Zm-1.641.297v.13h-.656v-.13Zm1.441 0v.13H6.7v-.13Zm0 0" style="stroke:none;fill-rule:evenodd;fill:#fff;fill-opacity:1"/><path d="M6.703 13.355h.125v.41h-.125Zm0 0" style="stroke:none;fill-rule:evenodd;fill:#fff;fill-opacity:1"/><path d="M6.703 13.355h.125v.41h-.125Zm0 0" style="stroke:none;fill-rule:evenodd;fill:#fff;fill-opacity:1"/><path d="M6.703 13.355h.125v.41h-.125Zm-1.437 0h.12v.41h-.12Zm1.054 0h.121v.41h-.12Zm-.527 0h.125v.41h-.125Zm0 0" style="stroke:none;fill-rule:evenodd;fill:#fff;fill-opacity:1"/><path d="M6.406 13.645v.125h-.554v-.125Zm.035-.325v.13H6.09v-.13ZM8.203 13.023h1.8v.125H8.208Zm.274.625h.12v.122h-.12Zm1.53 0v.122h-.359v-.125Zm.192-.625h.125v.743H10.2Zm0 0" style="stroke:none;fill-rule:evenodd;fill:#fff;fill-opacity:1"/><path d="M10.918 13.645v.125h-.68v-.125Zm-1.27-.293h.125v.418h-.125Zm0 0" style="stroke:none;fill-rule:evenodd;fill:#fff;fill-opacity:1"/><path d="M10.816 13.023h.125v.743h-.125Zm-.312 0h.125v.743h-.125Zm-1.64.297v.13h-.657v-.13Zm1.44 0v.13h-.656v-.13Zm0 0" style="stroke:none;fill-rule:evenodd;fill:#fff;fill-opacity:1"/><path d="M9.648 13.355h.125v.41h-.125Zm0 0" style="stroke:none;fill-rule:evenodd;fill:#fff;fill-opacity:1"/><path d="M9.648 13.355h.125v.41h-.125Zm0 0" style="stroke:none;fill-rule:evenodd;fill:#fff;fill-opacity:1"/><path d="M9.648 13.355h.125v.41h-.125Zm-1.441 0h.125v.41h-.125Zm1.055 0h.125v.41h-.125Zm-.52 0h.121v.41h-.12Zm0 0" style="stroke:none;fill-rule:evenodd;fill:#fff;fill-opacity:1"/><path d="M9.352 13.645v.125h-.555v-.125Zm.035-.325v.13h-.352v-.13ZM11.164 13.023h1.793v.125h-1.793Zm.266.625h.125v.122h-.125Zm1.535 0v.122h-.36v-.125Zm.195-.625h.121v.743h-.12Zm0 0" style="stroke:none;fill-rule:evenodd;fill:#fff;fill-opacity:1"/><path d="M13.875 13.645v.125h-.684v-.125Zm-1.27-.293h.125v.418h-.125Zm0 0" style="stroke:none;fill-rule:evenodd;fill:#fff;fill-opacity:1"/><path d="M13.77 13.023h.125v.743h-.125Zm-.305 0h.12v.743h-.12Zm-1.64.297v.13h-.66v-.13Zm1.437 0v.13h-.66v-.13Zm0 0" style="stroke:none;fill-rule:evenodd;fill:#fff;fill-opacity:1"/><path d="M12.605 13.355h.125v.41h-.125Zm0 0" style="stroke:none;fill-rule:evenodd;fill:#fff;fill-opacity:1"/><path d="M12.605 13.355h.125v.41h-.125Zm0 0" style="stroke:none;fill-rule:evenodd;fill:#fff;fill-opacity:1"/><path d="M12.605 13.355h.125v.41h-.125Zm-1.437 0h.121v.41h-.121Zm1.055 0h.125v.41h-.125Zm-.524 0h.125v.41h-.129Zm0 0" style="stroke:none;fill-rule:evenodd;fill:#fff;fill-opacity:1"/><path d="M12.309 13.645v.125h-.555v-.125Zm.039-.325v.13h-.36v-.13Zm0 0" style="stroke:none;fill-rule:evenodd;fill:#fff;fill-opacity:1"/><path d="M-3.906 0h32.812v6.242H-3.906Zm0 0" style="stroke:none;fill-rule:evenodd;fill:#239f40;fill-opacity:1"/><path d="M14.137 13.023h1.793v.125h-1.793Zm.27.625h.12v.122h-.12Zm1.53 0v.122h-.359v-.125Zm.196-.625h.12v.743h-.12Zm0 0" style="stroke:none;fill-rule:evenodd;fill:#fff;fill-opacity:1"/><path d="M16.848 13.645v.125h-.684v-.125Zm-1.27-.293h.125v.418h-.125Zm0 0" style="stroke:none;fill-rule:evenodd;fill:#fff;fill-opacity:1"/><path d="M16.75 13.023h.117v.743h-.117Zm-.312 0h.125v.743h-.125Zm-1.641.297v.13h-.66v-.13Zm1.437 0v.13h-.656v-.13Zm0 0" style="stroke:none;fill-rule:evenodd;fill:#fff;fill-opacity:1"/><path d="M15.578 13.355h.125v.41h-.125Zm0 0" style="stroke:none;fill-rule:evenodd;fill:#fff;fill-opacity:1"/><path d="M15.578 13.355h.125v.41h-.125Zm0 0" style="stroke:none;fill-rule:evenodd;fill:#fff;fill-opacity:1"/><path d="M15.578 13.355h.125v.41h-.125Zm-1.437 0h.125v.41h-.125Zm1.054 0h.125v.41h-.125Zm-.523 0h.125v.41h-.125Zm0 0" style="stroke:none;fill-rule:evenodd;fill:#fff;fill-opacity:1"/><path d="M15.281 13.645v.125h-.554v-.125Zm.04-.325v.13h-.352v-.13ZM17.094 13.023h1.793v.125h-1.793Zm.265.625h.125v.122h-.125Zm1.54 0v.122h-.364v-.125Zm.19-.625h.122v.743h-.121Zm0 0" style="stroke:none;fill-rule:evenodd;fill:#fff;fill-opacity:1"/><path d="M19.8 13.645v.125h-.679v-.125Zm-1.265-.293h.125v.418h-.125Zm0 0" style="stroke:none;fill-rule:evenodd;fill:#fff;fill-opacity:1"/><path d="M19.703 13.023h.121v.743h-.12Zm-.312 0h.125v.743h-.125Zm-1.641.297v.13h-.652v-.13Zm1.441 0v.13h-.656v-.13Zm0 0" style="stroke:none;fill-rule:evenodd;fill:#fff;fill-opacity:1"/><path d="M18.535 13.355h.125v.41h-.125Zm0 0" style="stroke:none;fill-rule:evenodd;fill:#fff;fill-opacity:1"/><path d="M18.535 13.355h.125v.41h-.125Zm0 0" style="stroke:none;fill-rule:evenodd;fill:#fff;fill-opacity:1"/><path d="M18.535 13.355h.125v.41h-.125Zm-1.437 0h.12v.41h-.12Zm1.054 0h.121v.41h-.12Zm-.527 0h.125v.41h-.121Zm0 0" style="stroke:none;fill-rule:evenodd;fill:#fff;fill-opacity:1"/><path d="M18.238 13.645v.125h-.55v-.125Zm.035-.325v.13h-.351v-.13ZM20.05 13.023h1.794v.125H20.05Zm.27.625h.121v.122h-.12Zm1.532 0v.122h-.36v-.125Zm.191-.625h.125v.743h-.125Zm0 0" style="stroke:none;fill-rule:evenodd;fill:#fff;fill-opacity:1"/><path d="M22.762 13.645v.125h-.684v-.125Zm-1.27-.293h.121v.418h-.12Zm0 0" style="stroke:none;fill-rule:evenodd;fill:#fff;fill-opacity:1"/><path d="M22.66 13.023h.121v.743h-.12Zm-.308 0h.12v.743h-.12Zm-1.641.297v.13h-.66v-.13Zm1.437 0v.13h-.656v-.13Zm0 0" style="stroke:none;fill-rule:evenodd;fill:#fff;fill-opacity:1"/><path d="M21.492 13.355h.121v.41h-.12Zm0 0" style="stroke:none;fill-rule:evenodd;fill:#fff;fill-opacity:1"/><path d="M21.492 13.355h.121v.41h-.12Zm0 0" style="stroke:none;fill-rule:evenodd;fill:#fff;fill-opacity:1"/><path d="M21.492 13.355h.121v.41h-.12Zm-1.441 0h.125v.41h-.125Zm1.058 0h.121v.41h-.12Zm-.523 0h.125v.41h-.125Zm0 0" style="stroke:none;fill-rule:evenodd;fill:#fff;fill-opacity:1"/><path d="M21.195 13.645v.125h-.554v-.125Zm.035-.325v.13h-.351v-.13ZM23.023 13.023h1.797v.125h-1.797Zm.27.625h.125v.122h-.125Zm1.535 0v.122h-.36v-.125Zm.188-.625h.125v.743h-.125Zm0 0" style="stroke:none;fill-rule:evenodd;fill:#fff;fill-opacity:1"/><path d="M25.734 13.645v.125h-.68v-.125Zm-1.265-.293h.12v.418h-.12Zm0 0" style="stroke:none;fill-rule:evenodd;fill:#fff;fill-opacity:1"/><path d="M25.633 13.023h.125v.743h-.125Zm-.309 0h.121v.743h-.12Zm-1.64.297v.13h-.66v-.13Zm1.441 0v.13h-.66v-.13Zm0 0" style="stroke:none;fill-rule:evenodd;fill:#fff;fill-opacity:1"/><path d="M24.469 13.355h.12v.41h-.12Zm0 0" style="stroke:none;fill-rule:evenodd;fill:#fff;fill-opacity:1"/><path d="M24.469 13.355h.12v.41h-.12Zm0 0" style="stroke:none;fill-rule:evenodd;fill:#fff;fill-opacity:1"/><path d="M24.469 13.355h.12v.41h-.12Zm-1.442 0h.121v.41h-.12Zm1.055 0h.125v.41h-.125Zm-.523 0h.125v.41h-.125Zm0 0" style="stroke:none;fill-rule:evenodd;fill:#fff;fill-opacity:1"/><path d="M24.168 13.645v.125h-.555v-.125Zm.035-.325v.13h-.351v-.13ZM2.336 5.32h1.793v.13H2.336Zm.266.633h.125v.117h-.125Zm1.535-.008v.125h-.36v-.125Zm.191-.625h.121v.75h-.12Zm0 0" style="stroke:none;fill-rule:evenodd;fill:#fff;fill-opacity:1"/><path d="M5.043 5.945v.125h-.68v-.125Zm-1.266-.293h.118v.418h-.122Zm0 0" style="stroke:none;fill-rule:evenodd;fill:#fff;fill-opacity:1"/><path d="M4.941 5.32h.125v.75h-.125Zm-.308 0h.12v.75h-.12Zm-1.64.297v.13h-.657V5.62Zm1.44 0v.13h-.66V5.62Zm0 0" style="stroke:none;fill-rule:evenodd;fill:#fff;fill-opacity:1"/><path d="M3.777 5.652h.118v.418h-.122Zm0 0" style="stroke:none;fill-rule:evenodd;fill:#fff;fill-opacity:1"/><path d="M3.777 5.652h.118v.418h-.122Zm0 0" style="stroke:none;fill-rule:evenodd;fill:#fff;fill-opacity:1"/><path d="M3.777 5.652h.118v.418h-.122Zm-1.441 0h.121v.418h-.121Zm1.055 0h.125v.418H3.39Zm-.524 0h.125v.418h-.125Zm0 0" style="stroke:none;fill-rule:evenodd;fill:#fff;fill-opacity:1"/><path d="M3.477 5.945v.125h-.555v-.125Zm.035-.324v.125H3.16v-.125ZM-.617 5.32h1.793v.13H-.617Zm.265.633h.125v.117h-.128Zm1.536-.008v.125h-.36v-.125Zm.191-.625H1.5v.75h-.125Zm0 0" style="stroke:none;fill-rule:evenodd;fill:#fff;fill-opacity:1"/><path d="M2.094 5.945v.125H1.41v-.125Zm-1.27-.293h.121v.418h-.12Zm0 0" style="stroke:none;fill-rule:evenodd;fill:#fff;fill-opacity:1"/><path d="M1.988 5.32h.125v.75h-.125Zm-.304 0h.12v.75h-.12Zm-1.641.297v.13h-.66V5.62Zm1.437 0v.13H.82V5.62Zm0 0" style="stroke:none;fill-rule:evenodd;fill:#fff;fill-opacity:1"/><path d="M.824 5.652h.121v.418h-.12Zm0 0" style="stroke:none;fill-rule:evenodd;fill:#fff;fill-opacity:1"/><path d="M.824 5.652h.121v.418h-.12Zm0 0" style="stroke:none;fill-rule:evenodd;fill:#fff;fill-opacity:1"/><path d="M.824 5.652h.121v.418h-.12Zm-1.437 0h.12v.418h-.12Zm1.054 0h.122v.418H.44Zm-.523 0h.125v.418h-.125Zm0 0" style="stroke:none;fill-rule:evenodd;fill:#fff;fill-opacity:1"/><path d="M.523 5.945v.125h-.546v-.125Zm.04-.324v.125H.21v-.125ZM5.262 5.32h1.793v.13H5.262Zm.265.633h.125v.117h-.125Zm1.535-.008v.125h-.359v-.125Zm.196-.625h.12v.75h-.12Zm0 0" style="stroke:none;fill-rule:evenodd;fill:#fff;fill-opacity:1"/><path d="M7.969 5.945v.125h-.68v-.125Zm-1.266-.293h.125v.418h-.125Zm0 0" style="stroke:none;fill-rule:evenodd;fill:#fff;fill-opacity:1"/><path d="M7.867 5.32h.125v.75h-.125Zm-.308 0h.125v.75h-.13Zm-1.641.297v.13h-.656V5.62Zm1.441 0v.13H6.7V5.62Zm0 0" style="stroke:none;fill-rule:evenodd;fill:#fff;fill-opacity:1"/><path d="M6.703 5.652h.125v.418h-.125Zm0 0" style="stroke:none;fill-rule:evenodd;fill:#fff;fill-opacity:1"/><path d="M6.703 5.652h.125v.418h-.125Zm0 0" style="stroke:none;fill-rule:evenodd;fill:#fff;fill-opacity:1"/><path d="M6.703 5.652h.125v.418h-.125Zm-1.437 0h.12v.418h-.12Zm1.054 0h.121v.418h-.12Zm-.527 0h.125v.418h-.125Zm0 0" style="stroke:none;fill-rule:evenodd;fill:#fff;fill-opacity:1"/><path d="M6.406 5.945v.125h-.554v-.125Zm.035-.324v.125H6.09v-.125ZM8.203 5.32h1.8v.13H8.208Zm.274.633h.12v.117h-.12Zm1.53-.008v.125h-.359v-.125Zm.192-.625h.125v.75H10.2Zm0 0" style="stroke:none;fill-rule:evenodd;fill:#fff;fill-opacity:1"/><path d="M10.918 5.945v.125h-.68v-.125Zm-1.27-.293h.125v.418h-.125Zm0 0" style="stroke:none;fill-rule:evenodd;fill:#fff;fill-opacity:1"/><path d="M10.816 5.32h.125v.75h-.125Zm-.312 0h.125v.75h-.125Zm-1.64.297v.13h-.657V5.62Zm1.44 0v.13h-.656V5.62Zm0 0" style="stroke:none;fill-rule:evenodd;fill:#fff;fill-opacity:1"/><path d="M9.648 5.652h.125v.418h-.125Zm0 0" style="stroke:none;fill-rule:evenodd;fill:#fff;fill-opacity:1"/><path d="M9.648 5.652h.125v.418h-.125Zm0 0" style="stroke:none;fill-rule:evenodd;fill:#fff;fill-opacity:1"/><path d="M9.648 5.652h.125v.418h-.125Zm-1.441 0h.125v.418h-.125Zm1.055 0h.125v.418h-.125Zm-.52 0h.121v.418h-.12Zm0 0" style="stroke:none;fill-rule:evenodd;fill:#fff;fill-opacity:1"/><path d="M9.352 5.945v.125h-.555v-.125Zm.035-.324v.125h-.352v-.125ZM11.164 5.32h1.793v.13h-1.793Zm.266.633h.125v.117h-.125Zm1.535-.008v.125h-.36v-.125Zm.195-.625h.121v.75h-.12Zm0 0" style="stroke:none;fill-rule:evenodd;fill:#fff;fill-opacity:1"/><path d="M13.875 5.945v.125h-.684v-.125Zm-1.27-.293h.125v.418h-.125Zm0 0" style="stroke:none;fill-rule:evenodd;fill:#fff;fill-opacity:1"/><path d="M13.77 5.32h.125v.75h-.125Zm-.305 0h.12v.75h-.12Zm-1.64.297v.13h-.66V5.62Zm1.437 0v.13h-.66V5.62Zm0 0" style="stroke:none;fill-rule:evenodd;fill:#fff;fill-opacity:1"/><path d="M12.605 5.652h.125v.418h-.125Zm0 0" style="stroke:none;fill-rule:evenodd;fill:#fff;fill-opacity:1"/><path d="M12.605 5.652h.125v.418h-.125Zm0 0" style="stroke:none;fill-rule:evenodd;fill:#fff;fill-opacity:1"/><path d="M12.605 5.652h.125v.418h-.125Zm-1.437 0h.121v.418h-.121Zm1.055 0h.125v.418h-.125Zm-.524 0h.125v.418h-.129Zm0 0" style="stroke:none;fill-rule:evenodd;fill:#fff;fill-opacity:1"/><path d="M12.309 5.945v.125h-.555v-.125Zm.039-.324v.125h-.36v-.125ZM14.137 5.32h1.793v.13h-1.793Zm.27.633h.12v.117h-.12Zm1.53-.008v.125h-.359v-.125Zm.196-.625h.12v.75h-.12Zm0 0" style="stroke:none;fill-rule:evenodd;fill:#fff;fill-opacity:1"/><path d="M16.848 5.945v.125h-.684v-.125Zm-1.27-.293h.125v.418h-.125Zm0 0" style="stroke:none;fill-rule:evenodd;fill:#fff;fill-opacity:1"/><path d="M16.75 5.32h.117v.75h-.117Zm-.312 0h.125v.75h-.125Zm-1.641.297v.13h-.66V5.62Zm1.437 0v.13h-.656V5.62Zm0 0" style="stroke:none;fill-rule:evenodd;fill:#fff;fill-opacity:1"/><path d="M15.578 5.652h.125v.418h-.125Zm0 0" style="stroke:none;fill-rule:evenodd;fill:#fff;fill-opacity:1"/><path d="M15.578 5.652h.125v.418h-.125Zm0 0" style="stroke:none;fill-rule:evenodd;fill:#fff;fill-opacity:1"/><path d="M15.578 5.652h.125v.418h-.125Zm-1.437 0h.125v.418h-.125Zm1.054 0h.125v.418h-.125Zm-.523 0h.125v.418h-.125Zm0 0" style="stroke:none;fill-rule:evenodd;fill:#fff;fill-opacity:1"/><path d="M15.281 5.945v.125h-.554v-.125Zm.04-.324v.125h-.352v-.125ZM17.094 5.32h1.793v.13h-1.793Zm.265.633h.125v.117h-.125Zm1.54-.008v.125h-.364v-.125Zm.19-.625h.122v.75h-.121Zm0 0" style="stroke:none;fill-rule:evenodd;fill:#fff;fill-opacity:1"/><path d="M19.8 5.945v.125h-.679v-.125Zm-1.265-.293h.125v.418h-.125Zm0 0" style="stroke:none;fill-rule:evenodd;fill:#fff;fill-opacity:1"/><path d="M19.703 5.32h.121v.75h-.12Zm-.312 0h.125v.75h-.125Zm-1.641.297v.13h-.652V5.62Zm1.441 0v.13h-.656V5.62Zm0 0" style="stroke:none;fill-rule:evenodd;fill:#fff;fill-opacity:1"/><path d="M18.535 5.652h.125v.418h-.125Zm0 0" style="stroke:none;fill-rule:evenodd;fill:#fff;fill-opacity:1"/><path d="M18.535 5.652h.125v.418h-.125Zm0 0" style="stroke:none;fill-rule:evenodd;fill:#fff;fill-opacity:1"/><path d="M18.535 5.652h.125v.418h-.125Zm-1.437 0h.12v.418h-.12Zm1.054 0h.121v.418h-.12Zm-.527 0h.125v.418h-.121Zm0 0" style="stroke:none;fill-rule:evenodd;fill:#fff;fill-opacity:1"/><path d="M18.238 5.945v.125h-.55v-.125Zm.035-.324v.125h-.351v-.125ZM20.05 5.32h1.794v.13H20.05Zm.27.633h.121v.117h-.12Zm1.532-.008v.125h-.36v-.125Zm.191-.625h.125v.75h-.125Zm0 0" style="stroke:none;fill-rule:evenodd;fill:#fff;fill-opacity:1"/><path d="M22.762 5.945v.125h-.684v-.125Zm-1.27-.293h.121v.418h-.12Zm0 0" style="stroke:none;fill-rule:evenodd;fill:#fff;fill-opacity:1"/><path d="M22.66 5.32h.121v.75h-.12Zm-.308 0h.12v.75h-.12Zm-1.641.297v.13h-.66V5.62Zm1.437 0v.13h-.656V5.62Zm0 0" style="stroke:none;fill-rule:evenodd;fill:#fff;fill-opacity:1"/><path d="M21.492 5.652h.121v.418h-.12Zm0 0" style="stroke:none;fill-rule:evenodd;fill:#fff;fill-opacity:1"/><path d="M21.492 5.652h.121v.418h-.12Zm0 0" style="stroke:none;fill-rule:evenodd;fill:#fff;fill-opacity:1"/><path d="M21.492 5.652h.121v.418h-.12Zm-1.441 0h.125v.418h-.125Zm1.058 0h.121v.418h-.12Zm-.523 0h.125v.418h-.125Zm0 0" style="stroke:none;fill-rule:evenodd;fill:#fff;fill-opacity:1"/><path d="M21.195 5.945v.125h-.554v-.125Zm.035-.324v.125h-.351v-.125ZM23.023 5.32h1.797v.13h-1.797Zm.27.633h.125v.117h-.125Zm1.535-.008v.125h-.36v-.125Zm.188-.625h.125v.75h-.125Zm0 0" style="stroke:none;fill-rule:evenodd;fill:#fff;fill-opacity:1"/><path d="M25.734 5.945v.125h-.68v-.125Zm-1.265-.293h.12v.418h-.12Zm0 0" style="stroke:none;fill-rule:evenodd;fill:#fff;fill-opacity:1"/><path d="M25.633 5.32h.125v.75h-.125Zm-.309 0h.121v.75h-.12Zm-1.64.297v.13h-.66V5.62Zm1.441 0v.13h-.66V5.62Zm0 0" style="stroke:none;fill-rule:evenodd;fill:#fff;fill-opacity:1"/><path d="M24.469 5.652h.12v.418h-.12Zm0 0" style="stroke:none;fill-rule:evenodd;fill:#fff;fill-opacity:1"/><path d="M24.469 5.652h.12v.418h-.12Zm0 0" style="stroke:none;fill-rule:evenodd;fill:#fff;fill-opacity:1"/><path d="M24.469 5.652h.12v.418h-.12Zm-1.442 0h.121v.418h-.12Zm1.055 0h.125v.418h-.125Zm-.523 0h.125v.418h-.125Zm0 0" style="stroke:none;fill-rule:evenodd;fill:#fff;fill-opacity:1"/><path d="M24.168 5.945v.125h-.555v-.125Zm.035-.324v.125h-.351v-.125Zm0 0" style="stroke:none;fill-rule:evenodd;fill:#fff;fill-opacity:1"/><path d="M.605 12.598h.22v.39h-.22Zm5.88 0h.218v.39h-.219Zm-10.391 0h.219v.39h-.22Zm2.984 0h.219v.39h-.219Zm2.961 0h.223v.39h-.223Zm1.469 0h.219v.39h-.22Zm1.496 0h.219v.39h-.22Zm2.945 0h.219v.39h-.219Zm7.434 0h.222v.39h-.218Zm-5.938 0h.22v.39h-.22Zm1.465 0h.219v.39h-.219Zm1.485 0h.218v.39h-.218Zm1.48 0h.219v.39h-.219Zm11.836 0h.219v.39h-.22Zm-8.89 0h.218v.39h-.219Zm1.495 0h.22v.39h-.22Zm1.512 0h.219v.39h-.219Zm1.422 0h.219v.39h-.219Zm1.512 0h.218v.39h-.218Zm1.48 0h.219v.39h-.219Zm4.383 0h.219v.39h-.219Zm-1.422 0h.219v.39h-.219Zm-29.621 0h.219v.39h-.219Zm0 0" style="stroke:none;fill-rule:evenodd;fill:#d90000;fill-opacity:1"/><path d="M.605 6.035h.22v.387h-.22Zm5.88 0h.218v.387h-.219Zm-10.391 0h.219v.387h-.22Zm2.984 0h.219v.387h-.219Zm2.961 0h.223v.387h-.223Zm1.469 0h.219v.387h-.22Zm1.496 0h.219v.387h-.22Zm2.945 0h.219v.387h-.219Zm7.434 0h.222v.387h-.218Zm-5.938 0h.22v.387h-.22Zm1.465 0h.219v.387h-.219Zm1.485 0h.218v.387h-.218Zm1.48 0h.219v.387h-.219Zm11.836 0h.219v.387h-.22Zm-8.89 0h.218v.387h-.219Zm1.495 0h.22v.387h-.22Zm1.512 0h.219v.387h-.219Zm1.422 0h.219v.387h-.219Zm1.512 0h.218v.387h-.218Zm1.48 0h.219v.387h-.219Zm4.383 0h.219v.387h-.219Zm-1.422 0h.219v.387h-.219Zm-29.621 0h.219v.387h-.219Zm0 0" style="stroke:none;fill-rule:evenodd;fill:#239e3f;fill-opacity:1"/><path d="M13.371 7.328c.309.387 1.266 2.508-.574 3.906-.867.66-.328.688-.305.801 1.39-.746 1.844-1.762 1.832-2.672-.008-.906-.484-1.707-.953-2.035" style="stroke:none;fill-rule:evenodd;fill:#da0000;fill-opacity:1"/><path d="M13.555 7.23a2.7 2.7 0 0 1 1.261 1.946 2.73 2.73 0 0 1-.687 2.222c.996-.222 2.27-3.203-.574-4.168m-2.11 0a2.7 2.7 0 0 0-1.261 1.946 2.75 2.75 0 0 0 .691 2.222c-1-.222-2.273-3.203.57-4.168" style="stroke:none;fill-rule:evenodd;fill:#da0000;fill-opacity:1"/><path d="M11.629 7.328c-.309.387-1.266 2.508.574 3.906.863.66.328.688.305.801-1.39-.746-1.844-1.762-1.832-2.672.008-.906.484-1.707.953-2.035" style="stroke:none;fill-rule:evenodd;fill:#da0000;fill-opacity:1"/><path d="M14.266 11.84c-.547.008-1.23-.074-1.739-.344.082.168.153.27.239.434.48.05 1.152.105 1.5-.09m-3.48 0c.546.008 1.23-.074 1.741-.344-.086.168-.156.27-.238.434-.484.05-1.156.105-1.504-.09m1-5.145c.11.297.399.34.707.168.227.133.574.145.695-.152.094.734-.667.555-.695.414-.285.277-.812.117-.707-.43" style="stroke:none;fill-rule:evenodd;fill:#da0000;fill-opacity:1"/><path d="m12.516 12.305.285-.332.039-4.457-.34-.305-.34.289.07 4.488Zm0 0" style="stroke:none;fill-rule:evenodd;fill:#da0000;fill-opacity:1"/></svg>