<?xml version="1.0" encoding="UTF-8"?>
<svg xmlns="http://www.w3.org/2000/svg" xmlns:xlink="http://www.w3.org/1999/xlink" width="25px" height="px" viewBox="0 0 25 19" version="1.1">
<g id="surface1">
<rect x="0" y="0" width="25" height="19" style="fill:rgb(100%,100%,100%);fill-opacity:1;stroke:none;"/>
<path style=" stroke:none;fill-rule:evenodd;fill:rgb(85.490197%,0%,0%);fill-opacity:1;" d="M -3.90625 12.757812 L 28.90625 12.757812 L 28.90625 19 L -3.90625 19 Z M -3.90625 12.757812 "/>
<path style=" stroke:none;fill-rule:evenodd;fill:rgb(100%,100%,100%);fill-opacity:1;" d="M 2.335938 13.023438 L 4.128906 13.023438 L 4.128906 13.148438 L 2.335938 13.148438 Z M 2.601562 13.648438 L 2.726562 13.648438 L 2.726562 13.769531 L 2.601562 13.769531 Z M 4.136719 13.648438 L 4.136719 13.769531 L 3.777344 13.769531 L 3.777344 13.644531 Z M 4.328125 13.023438 L 4.449219 13.023438 L 4.449219 13.765625 L 4.328125 13.765625 Z M 4.328125 13.023438 "/>
<path style=" stroke:none;fill-rule:evenodd;fill:rgb(100%,100%,100%);fill-opacity:1;" d="M 5.042969 13.644531 L 5.042969 13.769531 L 4.363281 13.769531 L 4.363281 13.644531 Z M 3.777344 13.351562 L 3.894531 13.351562 L 3.894531 13.769531 L 3.773438 13.769531 Z M 3.777344 13.351562 "/>
<path style=" stroke:none;fill-rule:evenodd;fill:rgb(100%,100%,100%);fill-opacity:1;" d="M 4.941406 13.023438 L 5.066406 13.023438 L 5.066406 13.765625 L 4.941406 13.765625 Z M 4.632812 13.023438 L 4.753906 13.023438 L 4.753906 13.765625 L 4.632812 13.765625 Z M 2.992188 13.320312 L 2.992188 13.449219 L 2.335938 13.449219 L 2.335938 13.320312 Z M 4.433594 13.320312 L 4.433594 13.449219 L 3.773438 13.449219 L 3.773438 13.320312 Z M 4.433594 13.320312 "/>
<path style=" stroke:none;fill-rule:evenodd;fill:rgb(100%,100%,100%);fill-opacity:1;" d="M 3.777344 13.355469 L 3.894531 13.355469 L 3.894531 13.765625 L 3.773438 13.765625 Z M 3.777344 13.355469 "/>
<path style=" stroke:none;fill-rule:evenodd;fill:rgb(100%,100%,100%);fill-opacity:1;" d="M 3.777344 13.355469 L 3.894531 13.355469 L 3.894531 13.765625 L 3.773438 13.765625 Z M 3.777344 13.355469 "/>
<path style=" stroke:none;fill-rule:evenodd;fill:rgb(100%,100%,100%);fill-opacity:1;" d="M 3.777344 13.355469 L 3.894531 13.355469 L 3.894531 13.765625 L 3.773438 13.765625 Z M 2.335938 13.355469 L 2.457031 13.355469 L 2.457031 13.765625 L 2.335938 13.765625 Z M 3.390625 13.355469 L 3.515625 13.355469 L 3.515625 13.765625 L 3.390625 13.765625 Z M 2.867188 13.355469 L 2.992188 13.355469 L 2.992188 13.765625 L 2.867188 13.765625 Z M 2.867188 13.355469 "/>
<path style=" stroke:none;fill-rule:evenodd;fill:rgb(100%,100%,100%);fill-opacity:1;" d="M 3.476562 13.644531 L 3.476562 13.769531 L 2.921875 13.769531 L 2.921875 13.644531 Z M 3.511719 13.320312 L 3.511719 13.449219 L 3.160156 13.449219 L 3.160156 13.320312 Z M 3.511719 13.320312 "/>
<path style=" stroke:none;fill-rule:evenodd;fill:rgb(100%,100%,100%);fill-opacity:1;" d="M -0.617188 13.023438 L 1.175781 13.023438 L 1.175781 13.148438 L -0.617188 13.148438 Z M -0.351562 13.648438 L -0.226562 13.648438 L -0.226562 13.769531 L -0.355469 13.769531 Z M 1.183594 13.648438 L 1.183594 13.769531 L 0.824219 13.769531 L 0.824219 13.644531 Z M 1.375 13.023438 L 1.5 13.023438 L 1.5 13.765625 L 1.375 13.765625 Z M 1.375 13.023438 "/>
<path style=" stroke:none;fill-rule:evenodd;fill:rgb(100%,100%,100%);fill-opacity:1;" d="M 2.09375 13.644531 L 2.09375 13.769531 L 1.410156 13.769531 L 1.410156 13.644531 Z M 0.824219 13.351562 L 0.945312 13.351562 L 0.945312 13.769531 L 0.824219 13.769531 Z M 0.824219 13.351562 "/>
<path style=" stroke:none;fill-rule:evenodd;fill:rgb(100%,100%,100%);fill-opacity:1;" d="M 1.988281 13.023438 L 2.113281 13.023438 L 2.113281 13.765625 L 1.988281 13.765625 Z M 1.683594 13.023438 L 1.804688 13.023438 L 1.804688 13.765625 L 1.683594 13.765625 Z M 0.0429688 13.320312 L 0.0429688 13.449219 L -0.617188 13.449219 L -0.617188 13.320312 Z M 1.480469 13.320312 L 1.480469 13.449219 L 0.820312 13.449219 L 0.820312 13.320312 Z M 1.480469 13.320312 "/>
<path style=" stroke:none;fill-rule:evenodd;fill:rgb(100%,100%,100%);fill-opacity:1;" d="M 0.824219 13.355469 L 0.945312 13.355469 L 0.945312 13.765625 L 0.824219 13.765625 Z M 0.824219 13.355469 "/>
<path style=" stroke:none;fill-rule:evenodd;fill:rgb(100%,100%,100%);fill-opacity:1;" d="M 0.824219 13.355469 L 0.945312 13.355469 L 0.945312 13.765625 L 0.824219 13.765625 Z M 0.824219 13.355469 "/>
<path style=" stroke:none;fill-rule:evenodd;fill:rgb(100%,100%,100%);fill-opacity:1;" d="M 0.824219 13.355469 L 0.945312 13.355469 L 0.945312 13.765625 L 0.824219 13.765625 Z M -0.613281 13.355469 L -0.492188 13.355469 L -0.492188 13.765625 L -0.613281 13.765625 Z M 0.441406 13.355469 L 0.5625 13.355469 L 0.5625 13.765625 L 0.441406 13.765625 Z M -0.0820312 13.355469 L 0.0429688 13.355469 L 0.0429688 13.765625 L -0.0820312 13.765625 Z M -0.0820312 13.355469 "/>
<path style=" stroke:none;fill-rule:evenodd;fill:rgb(100%,100%,100%);fill-opacity:1;" d="M 0.523438 13.644531 L 0.523438 13.769531 L -0.0234375 13.769531 L -0.0234375 13.644531 Z M 0.5625 13.320312 L 0.5625 13.449219 L 0.210938 13.449219 L 0.210938 13.320312 Z M 0.5625 13.320312 "/>
<path style=" stroke:none;fill-rule:evenodd;fill:rgb(100%,100%,100%);fill-opacity:1;" d="M 5.261719 13.023438 L 7.054688 13.023438 L 7.054688 13.148438 L 5.261719 13.148438 Z M 5.527344 13.648438 L 5.652344 13.648438 L 5.652344 13.769531 L 5.527344 13.769531 Z M 7.0625 13.648438 L 7.0625 13.769531 L 6.703125 13.769531 L 6.703125 13.644531 Z M 7.257812 13.023438 L 7.378906 13.023438 L 7.378906 13.765625 L 7.257812 13.765625 Z M 7.257812 13.023438 "/>
<path style=" stroke:none;fill-rule:evenodd;fill:rgb(100%,100%,100%);fill-opacity:1;" d="M 7.96875 13.644531 L 7.96875 13.769531 L 7.289062 13.769531 L 7.289062 13.644531 Z M 6.703125 13.351562 L 6.828125 13.351562 L 6.828125 13.769531 L 6.703125 13.769531 Z M 6.703125 13.351562 "/>
<path style=" stroke:none;fill-rule:evenodd;fill:rgb(100%,100%,100%);fill-opacity:1;" d="M 7.867188 13.023438 L 7.992188 13.023438 L 7.992188 13.765625 L 7.867188 13.765625 Z M 7.558594 13.023438 L 7.683594 13.023438 L 7.683594 13.765625 L 7.554688 13.765625 Z M 5.917969 13.320312 L 5.917969 13.449219 L 5.261719 13.449219 L 5.261719 13.320312 Z M 7.359375 13.320312 L 7.359375 13.449219 L 6.699219 13.449219 L 6.699219 13.320312 Z M 7.359375 13.320312 "/>
<path style=" stroke:none;fill-rule:evenodd;fill:rgb(100%,100%,100%);fill-opacity:1;" d="M 6.703125 13.355469 L 6.828125 13.355469 L 6.828125 13.765625 L 6.703125 13.765625 Z M 6.703125 13.355469 "/>
<path style=" stroke:none;fill-rule:evenodd;fill:rgb(100%,100%,100%);fill-opacity:1;" d="M 6.703125 13.355469 L 6.828125 13.355469 L 6.828125 13.765625 L 6.703125 13.765625 Z M 6.703125 13.355469 "/>
<path style=" stroke:none;fill-rule:evenodd;fill:rgb(100%,100%,100%);fill-opacity:1;" d="M 6.703125 13.355469 L 6.828125 13.355469 L 6.828125 13.765625 L 6.703125 13.765625 Z M 5.265625 13.355469 L 5.386719 13.355469 L 5.386719 13.765625 L 5.265625 13.765625 Z M 6.320312 13.355469 L 6.441406 13.355469 L 6.441406 13.765625 L 6.320312 13.765625 Z M 5.792969 13.355469 L 5.917969 13.355469 L 5.917969 13.765625 L 5.792969 13.765625 Z M 5.792969 13.355469 "/>
<path style=" stroke:none;fill-rule:evenodd;fill:rgb(100%,100%,100%);fill-opacity:1;" d="M 6.40625 13.644531 L 6.40625 13.769531 L 5.851562 13.769531 L 5.851562 13.644531 Z M 6.441406 13.320312 L 6.441406 13.449219 L 6.089844 13.449219 L 6.089844 13.320312 Z M 6.441406 13.320312 "/>
<path style=" stroke:none;fill-rule:evenodd;fill:rgb(100%,100%,100%);fill-opacity:1;" d="M 8.203125 13.023438 L 10.003906 13.023438 L 10.003906 13.148438 L 8.207031 13.148438 Z M 8.476562 13.648438 L 8.597656 13.648438 L 8.597656 13.769531 L 8.476562 13.769531 Z M 10.007812 13.648438 L 10.007812 13.769531 L 9.648438 13.769531 L 9.648438 13.644531 Z M 10.199219 13.023438 L 10.324219 13.023438 L 10.324219 13.765625 L 10.199219 13.765625 Z M 10.199219 13.023438 "/>
<path style=" stroke:none;fill-rule:evenodd;fill:rgb(100%,100%,100%);fill-opacity:1;" d="M 10.917969 13.644531 L 10.917969 13.769531 L 10.238281 13.769531 L 10.238281 13.644531 Z M 9.648438 13.351562 L 9.773438 13.351562 L 9.773438 13.769531 L 9.648438 13.769531 Z M 9.648438 13.351562 "/>
<path style=" stroke:none;fill-rule:evenodd;fill:rgb(100%,100%,100%);fill-opacity:1;" d="M 10.816406 13.023438 L 10.941406 13.023438 L 10.941406 13.765625 L 10.816406 13.765625 Z M 10.503906 13.023438 L 10.628906 13.023438 L 10.628906 13.765625 L 10.503906 13.765625 Z M 8.863281 13.320312 L 8.863281 13.449219 L 8.207031 13.449219 L 8.207031 13.320312 Z M 10.304688 13.320312 L 10.304688 13.449219 L 9.648438 13.449219 L 9.648438 13.320312 Z M 10.304688 13.320312 "/>
<path style=" stroke:none;fill-rule:evenodd;fill:rgb(100%,100%,100%);fill-opacity:1;" d="M 9.648438 13.355469 L 9.773438 13.355469 L 9.773438 13.765625 L 9.648438 13.765625 Z M 9.648438 13.355469 "/>
<path style=" stroke:none;fill-rule:evenodd;fill:rgb(100%,100%,100%);fill-opacity:1;" d="M 9.648438 13.355469 L 9.773438 13.355469 L 9.773438 13.765625 L 9.648438 13.765625 Z M 9.648438 13.355469 "/>
<path style=" stroke:none;fill-rule:evenodd;fill:rgb(100%,100%,100%);fill-opacity:1;" d="M 9.648438 13.355469 L 9.773438 13.355469 L 9.773438 13.765625 L 9.648438 13.765625 Z M 8.207031 13.355469 L 8.332031 13.355469 L 8.332031 13.765625 L 8.207031 13.765625 Z M 9.261719 13.355469 L 9.386719 13.355469 L 9.386719 13.765625 L 9.261719 13.765625 Z M 8.742188 13.355469 L 8.863281 13.355469 L 8.863281 13.765625 L 8.742188 13.765625 Z M 8.742188 13.355469 "/>
<path style=" stroke:none;fill-rule:evenodd;fill:rgb(100%,100%,100%);fill-opacity:1;" d="M 9.351562 13.644531 L 9.351562 13.769531 L 8.796875 13.769531 L 8.796875 13.644531 Z M 9.386719 13.320312 L 9.386719 13.449219 L 9.035156 13.449219 L 9.035156 13.320312 Z M 9.386719 13.320312 "/>
<path style=" stroke:none;fill-rule:evenodd;fill:rgb(100%,100%,100%);fill-opacity:1;" d="M 11.164062 13.023438 L 12.957031 13.023438 L 12.957031 13.148438 L 11.164062 13.148438 Z M 11.429688 13.648438 L 11.554688 13.648438 L 11.554688 13.769531 L 11.429688 13.769531 Z M 12.964844 13.648438 L 12.964844 13.769531 L 12.605469 13.769531 L 12.605469 13.644531 Z M 13.160156 13.023438 L 13.28125 13.023438 L 13.28125 13.765625 L 13.160156 13.765625 Z M 13.160156 13.023438 "/>
<path style=" stroke:none;fill-rule:evenodd;fill:rgb(100%,100%,100%);fill-opacity:1;" d="M 13.875 13.644531 L 13.875 13.769531 L 13.191406 13.769531 L 13.191406 13.644531 Z M 12.605469 13.351562 L 12.730469 13.351562 L 12.730469 13.769531 L 12.605469 13.769531 Z M 12.605469 13.351562 "/>
<path style=" stroke:none;fill-rule:evenodd;fill:rgb(100%,100%,100%);fill-opacity:1;" d="M 13.769531 13.023438 L 13.894531 13.023438 L 13.894531 13.765625 L 13.769531 13.765625 Z M 13.464844 13.023438 L 13.585938 13.023438 L 13.585938 13.765625 L 13.464844 13.765625 Z M 11.824219 13.320312 L 11.824219 13.449219 L 11.164062 13.449219 L 11.164062 13.320312 Z M 13.261719 13.320312 L 13.261719 13.449219 L 12.601562 13.449219 L 12.601562 13.320312 Z M 13.261719 13.320312 "/>
<path style=" stroke:none;fill-rule:evenodd;fill:rgb(100%,100%,100%);fill-opacity:1;" d="M 12.605469 13.355469 L 12.730469 13.355469 L 12.730469 13.765625 L 12.605469 13.765625 Z M 12.605469 13.355469 "/>
<path style=" stroke:none;fill-rule:evenodd;fill:rgb(100%,100%,100%);fill-opacity:1;" d="M 12.605469 13.355469 L 12.730469 13.355469 L 12.730469 13.765625 L 12.605469 13.765625 Z M 12.605469 13.355469 "/>
<path style=" stroke:none;fill-rule:evenodd;fill:rgb(100%,100%,100%);fill-opacity:1;" d="M 12.605469 13.355469 L 12.730469 13.355469 L 12.730469 13.765625 L 12.605469 13.765625 Z M 11.167969 13.355469 L 11.289062 13.355469 L 11.289062 13.765625 L 11.167969 13.765625 Z M 12.222656 13.355469 L 12.347656 13.355469 L 12.347656 13.765625 L 12.222656 13.765625 Z M 11.699219 13.355469 L 11.824219 13.355469 L 11.824219 13.765625 L 11.695312 13.765625 Z M 11.699219 13.355469 "/>
<path style=" stroke:none;fill-rule:evenodd;fill:rgb(100%,100%,100%);fill-opacity:1;" d="M 12.308594 13.644531 L 12.308594 13.769531 L 11.753906 13.769531 L 11.753906 13.644531 Z M 12.347656 13.320312 L 12.347656 13.449219 L 11.988281 13.449219 L 11.988281 13.320312 Z M 12.347656 13.320312 "/>
<path style=" stroke:none;fill-rule:evenodd;fill:rgb(13.725491%,62.352943%,25.098041%);fill-opacity:1;" d="M -3.90625 0 L 28.90625 0 L 28.90625 6.242188 L -3.90625 6.242188 Z M -3.90625 0 "/>
<path style=" stroke:none;fill-rule:evenodd;fill:rgb(100%,100%,100%);fill-opacity:1;" d="M 14.136719 13.023438 L 15.929688 13.023438 L 15.929688 13.148438 L 14.136719 13.148438 Z M 14.40625 13.648438 L 14.527344 13.648438 L 14.527344 13.769531 L 14.40625 13.769531 Z M 15.9375 13.648438 L 15.9375 13.769531 L 15.578125 13.769531 L 15.578125 13.644531 Z M 16.132812 13.023438 L 16.253906 13.023438 L 16.253906 13.765625 L 16.132812 13.765625 Z M 16.132812 13.023438 "/>
<path style=" stroke:none;fill-rule:evenodd;fill:rgb(100%,100%,100%);fill-opacity:1;" d="M 16.847656 13.644531 L 16.847656 13.769531 L 16.164062 13.769531 L 16.164062 13.644531 Z M 15.578125 13.351562 L 15.703125 13.351562 L 15.703125 13.769531 L 15.578125 13.769531 Z M 15.578125 13.351562 "/>
<path style=" stroke:none;fill-rule:evenodd;fill:rgb(100%,100%,100%);fill-opacity:1;" d="M 16.75 13.023438 L 16.867188 13.023438 L 16.867188 13.765625 L 16.75 13.765625 Z M 16.4375 13.023438 L 16.5625 13.023438 L 16.5625 13.765625 L 16.4375 13.765625 Z M 14.796875 13.320312 L 14.796875 13.449219 L 14.136719 13.449219 L 14.136719 13.320312 Z M 16.234375 13.320312 L 16.234375 13.449219 L 15.578125 13.449219 L 15.578125 13.320312 Z M 16.234375 13.320312 "/>
<path style=" stroke:none;fill-rule:evenodd;fill:rgb(100%,100%,100%);fill-opacity:1;" d="M 15.578125 13.355469 L 15.703125 13.355469 L 15.703125 13.765625 L 15.578125 13.765625 Z M 15.578125 13.355469 "/>
<path style=" stroke:none;fill-rule:evenodd;fill:rgb(100%,100%,100%);fill-opacity:1;" d="M 15.578125 13.355469 L 15.703125 13.355469 L 15.703125 13.765625 L 15.578125 13.765625 Z M 15.578125 13.355469 "/>
<path style=" stroke:none;fill-rule:evenodd;fill:rgb(100%,100%,100%);fill-opacity:1;" d="M 15.578125 13.355469 L 15.703125 13.355469 L 15.703125 13.765625 L 15.578125 13.765625 Z M 14.140625 13.355469 L 14.265625 13.355469 L 14.265625 13.765625 L 14.140625 13.765625 Z M 15.195312 13.355469 L 15.320312 13.355469 L 15.320312 13.765625 L 15.195312 13.765625 Z M 14.671875 13.355469 L 14.796875 13.355469 L 14.796875 13.765625 L 14.671875 13.765625 Z M 14.671875 13.355469 "/>
<path style=" stroke:none;fill-rule:evenodd;fill:rgb(100%,100%,100%);fill-opacity:1;" d="M 15.28125 13.644531 L 15.28125 13.769531 L 14.726562 13.769531 L 14.726562 13.644531 Z M 15.320312 13.320312 L 15.320312 13.449219 L 14.96875 13.449219 L 14.96875 13.320312 Z M 15.320312 13.320312 "/>
<path style=" stroke:none;fill-rule:evenodd;fill:rgb(100%,100%,100%);fill-opacity:1;" d="M 17.09375 13.023438 L 18.886719 13.023438 L 18.886719 13.148438 L 17.09375 13.148438 Z M 17.359375 13.648438 L 17.484375 13.648438 L 17.484375 13.769531 L 17.359375 13.769531 Z M 18.898438 13.648438 L 18.898438 13.769531 L 18.535156 13.769531 L 18.535156 13.644531 Z M 19.089844 13.023438 L 19.210938 13.023438 L 19.210938 13.765625 L 19.089844 13.765625 Z M 19.089844 13.023438 "/>
<path style=" stroke:none;fill-rule:evenodd;fill:rgb(100%,100%,100%);fill-opacity:1;" d="M 19.800781 13.644531 L 19.800781 13.769531 L 19.121094 13.769531 L 19.121094 13.644531 Z M 18.535156 13.351562 L 18.660156 13.351562 L 18.660156 13.769531 L 18.535156 13.769531 Z M 18.535156 13.351562 "/>
<path style=" stroke:none;fill-rule:evenodd;fill:rgb(100%,100%,100%);fill-opacity:1;" d="M 19.703125 13.023438 L 19.824219 13.023438 L 19.824219 13.765625 L 19.703125 13.765625 Z M 19.390625 13.023438 L 19.515625 13.023438 L 19.515625 13.765625 L 19.390625 13.765625 Z M 17.75 13.320312 L 17.75 13.449219 L 17.097656 13.449219 L 17.097656 13.320312 Z M 19.191406 13.320312 L 19.191406 13.449219 L 18.535156 13.449219 L 18.535156 13.320312 Z M 19.191406 13.320312 "/>
<path style=" stroke:none;fill-rule:evenodd;fill:rgb(100%,100%,100%);fill-opacity:1;" d="M 18.535156 13.355469 L 18.660156 13.355469 L 18.660156 13.765625 L 18.535156 13.765625 Z M 18.535156 13.355469 "/>
<path style=" stroke:none;fill-rule:evenodd;fill:rgb(100%,100%,100%);fill-opacity:1;" d="M 18.535156 13.355469 L 18.660156 13.355469 L 18.660156 13.765625 L 18.535156 13.765625 Z M 18.535156 13.355469 "/>
<path style=" stroke:none;fill-rule:evenodd;fill:rgb(100%,100%,100%);fill-opacity:1;" d="M 18.535156 13.355469 L 18.660156 13.355469 L 18.660156 13.765625 L 18.535156 13.765625 Z M 17.097656 13.355469 L 17.21875 13.355469 L 17.21875 13.765625 L 17.097656 13.765625 Z M 18.152344 13.355469 L 18.273438 13.355469 L 18.273438 13.765625 L 18.152344 13.765625 Z M 17.625 13.355469 L 17.75 13.355469 L 17.75 13.765625 L 17.628906 13.765625 Z M 17.625 13.355469 "/>
<path style=" stroke:none;fill-rule:evenodd;fill:rgb(100%,100%,100%);fill-opacity:1;" d="M 18.238281 13.644531 L 18.238281 13.769531 L 17.6875 13.769531 L 17.6875 13.644531 Z M 18.273438 13.320312 L 18.273438 13.449219 L 17.921875 13.449219 L 17.921875 13.320312 Z M 18.273438 13.320312 "/>
<path style=" stroke:none;fill-rule:evenodd;fill:rgb(100%,100%,100%);fill-opacity:1;" d="M 20.050781 13.023438 L 21.84375 13.023438 L 21.84375 13.148438 L 20.050781 13.148438 Z M 20.320312 13.648438 L 20.441406 13.648438 L 20.441406 13.769531 L 20.320312 13.769531 Z M 21.851562 13.648438 L 21.851562 13.769531 L 21.492188 13.769531 L 21.492188 13.644531 Z M 22.042969 13.023438 L 22.167969 13.023438 L 22.167969 13.765625 L 22.042969 13.765625 Z M 22.042969 13.023438 "/>
<path style=" stroke:none;fill-rule:evenodd;fill:rgb(100%,100%,100%);fill-opacity:1;" d="M 22.761719 13.644531 L 22.761719 13.769531 L 22.078125 13.769531 L 22.078125 13.644531 Z M 21.492188 13.351562 L 21.613281 13.351562 L 21.613281 13.769531 L 21.492188 13.769531 Z M 21.492188 13.351562 "/>
<path style=" stroke:none;fill-rule:evenodd;fill:rgb(100%,100%,100%);fill-opacity:1;" d="M 22.660156 13.023438 L 22.78125 13.023438 L 22.78125 13.765625 L 22.660156 13.765625 Z M 22.351562 13.023438 L 22.472656 13.023438 L 22.472656 13.765625 L 22.351562 13.765625 Z M 20.710938 13.320312 L 20.710938 13.449219 L 20.050781 13.449219 L 20.050781 13.320312 Z M 22.148438 13.320312 L 22.148438 13.449219 L 21.492188 13.449219 L 21.492188 13.320312 Z M 22.148438 13.320312 "/>
<path style=" stroke:none;fill-rule:evenodd;fill:rgb(100%,100%,100%);fill-opacity:1;" d="M 21.492188 13.355469 L 21.613281 13.355469 L 21.613281 13.765625 L 21.492188 13.765625 Z M 21.492188 13.355469 "/>
<path style=" stroke:none;fill-rule:evenodd;fill:rgb(100%,100%,100%);fill-opacity:1;" d="M 21.492188 13.355469 L 21.613281 13.355469 L 21.613281 13.765625 L 21.492188 13.765625 Z M 21.492188 13.355469 "/>
<path style=" stroke:none;fill-rule:evenodd;fill:rgb(100%,100%,100%);fill-opacity:1;" d="M 21.492188 13.355469 L 21.613281 13.355469 L 21.613281 13.765625 L 21.492188 13.765625 Z M 20.050781 13.355469 L 20.175781 13.355469 L 20.175781 13.765625 L 20.050781 13.765625 Z M 21.109375 13.355469 L 21.230469 13.355469 L 21.230469 13.765625 L 21.109375 13.765625 Z M 20.585938 13.355469 L 20.710938 13.355469 L 20.710938 13.765625 L 20.585938 13.765625 Z M 20.585938 13.355469 "/>
<path style=" stroke:none;fill-rule:evenodd;fill:rgb(100%,100%,100%);fill-opacity:1;" d="M 21.195312 13.644531 L 21.195312 13.769531 L 20.640625 13.769531 L 20.640625 13.644531 Z M 21.230469 13.320312 L 21.230469 13.449219 L 20.878906 13.449219 L 20.878906 13.320312 Z M 21.230469 13.320312 "/>
<path style=" stroke:none;fill-rule:evenodd;fill:rgb(100%,100%,100%);fill-opacity:1;" d="M 23.023438 13.023438 L 24.820312 13.023438 L 24.820312 13.148438 L 23.023438 13.148438 Z M 23.292969 13.648438 L 23.417969 13.648438 L 23.417969 13.769531 L 23.292969 13.769531 Z M 24.828125 13.648438 L 24.828125 13.769531 L 24.46875 13.769531 L 24.46875 13.644531 Z M 25.015625 13.023438 L 25.140625 13.023438 L 25.140625 13.765625 L 25.015625 13.765625 Z M 25.015625 13.023438 "/>
<path style=" stroke:none;fill-rule:evenodd;fill:rgb(100%,100%,100%);fill-opacity:1;" d="M 25.734375 13.644531 L 25.734375 13.769531 L 25.054688 13.769531 L 25.054688 13.644531 Z M 24.46875 13.351562 L 24.589844 13.351562 L 24.589844 13.769531 L 24.46875 13.769531 Z M 24.46875 13.351562 "/>
<path style=" stroke:none;fill-rule:evenodd;fill:rgb(100%,100%,100%);fill-opacity:1;" d="M 25.632812 13.023438 L 25.757812 13.023438 L 25.757812 13.765625 L 25.632812 13.765625 Z M 25.324219 13.023438 L 25.445312 13.023438 L 25.445312 13.765625 L 25.324219 13.765625 Z M 23.683594 13.320312 L 23.683594 13.449219 L 23.023438 13.449219 L 23.023438 13.320312 Z M 25.125 13.320312 L 25.125 13.449219 L 24.464844 13.449219 L 24.464844 13.320312 Z M 25.125 13.320312 "/>
<path style=" stroke:none;fill-rule:evenodd;fill:rgb(100%,100%,100%);fill-opacity:1;" d="M 24.46875 13.355469 L 24.589844 13.355469 L 24.589844 13.765625 L 24.46875 13.765625 Z M 24.46875 13.355469 "/>
<path style=" stroke:none;fill-rule:evenodd;fill:rgb(100%,100%,100%);fill-opacity:1;" d="M 24.46875 13.355469 L 24.589844 13.355469 L 24.589844 13.765625 L 24.46875 13.765625 Z M 24.46875 13.355469 "/>
<path style=" stroke:none;fill-rule:evenodd;fill:rgb(100%,100%,100%);fill-opacity:1;" d="M 24.46875 13.355469 L 24.589844 13.355469 L 24.589844 13.765625 L 24.46875 13.765625 Z M 23.027344 13.355469 L 23.148438 13.355469 L 23.148438 13.765625 L 23.027344 13.765625 Z M 24.082031 13.355469 L 24.207031 13.355469 L 24.207031 13.765625 L 24.082031 13.765625 Z M 23.558594 13.355469 L 23.683594 13.355469 L 23.683594 13.765625 L 23.558594 13.765625 Z M 23.558594 13.355469 "/>
<path style=" stroke:none;fill-rule:evenodd;fill:rgb(100%,100%,100%);fill-opacity:1;" d="M 24.167969 13.644531 L 24.167969 13.769531 L 23.613281 13.769531 L 23.613281 13.644531 Z M 24.203125 13.320312 L 24.203125 13.449219 L 23.851562 13.449219 L 23.851562 13.320312 Z M 24.203125 13.320312 "/>
<path style=" stroke:none;fill-rule:evenodd;fill:rgb(100%,100%,100%);fill-opacity:1;" d="M 2.335938 5.320312 L 4.128906 5.320312 L 4.128906 5.449219 L 2.335938 5.449219 Z M 2.601562 5.953125 L 2.726562 5.953125 L 2.726562 6.070312 L 2.601562 6.070312 Z M 4.136719 5.945312 L 4.136719 6.070312 L 3.777344 6.070312 L 3.777344 5.945312 Z M 4.328125 5.320312 L 4.449219 5.320312 L 4.449219 6.070312 L 4.328125 6.070312 Z M 4.328125 5.320312 "/>
<path style=" stroke:none;fill-rule:evenodd;fill:rgb(100%,100%,100%);fill-opacity:1;" d="M 5.042969 5.945312 L 5.042969 6.070312 L 4.363281 6.070312 L 4.363281 5.945312 Z M 3.777344 5.652344 L 3.894531 5.652344 L 3.894531 6.070312 L 3.773438 6.070312 Z M 3.777344 5.652344 "/>
<path style=" stroke:none;fill-rule:evenodd;fill:rgb(100%,100%,100%);fill-opacity:1;" d="M 4.941406 5.320312 L 5.066406 5.320312 L 5.066406 6.070312 L 4.941406 6.070312 Z M 4.632812 5.320312 L 4.753906 5.320312 L 4.753906 6.070312 L 4.632812 6.070312 Z M 2.992188 5.617188 L 2.992188 5.746094 L 2.335938 5.746094 L 2.335938 5.621094 Z M 4.433594 5.617188 L 4.433594 5.746094 L 3.773438 5.746094 L 3.773438 5.621094 Z M 4.433594 5.617188 "/>
<path style=" stroke:none;fill-rule:evenodd;fill:rgb(100%,100%,100%);fill-opacity:1;" d="M 3.777344 5.652344 L 3.894531 5.652344 L 3.894531 6.070312 L 3.773438 6.070312 Z M 3.777344 5.652344 "/>
<path style=" stroke:none;fill-rule:evenodd;fill:rgb(100%,100%,100%);fill-opacity:1;" d="M 3.777344 5.652344 L 3.894531 5.652344 L 3.894531 6.070312 L 3.773438 6.070312 Z M 3.777344 5.652344 "/>
<path style=" stroke:none;fill-rule:evenodd;fill:rgb(100%,100%,100%);fill-opacity:1;" d="M 3.777344 5.652344 L 3.894531 5.652344 L 3.894531 6.070312 L 3.773438 6.070312 Z M 2.335938 5.652344 L 2.457031 5.652344 L 2.457031 6.070312 L 2.335938 6.070312 Z M 3.390625 5.652344 L 3.515625 5.652344 L 3.515625 6.070312 L 3.390625 6.070312 Z M 2.867188 5.652344 L 2.992188 5.652344 L 2.992188 6.070312 L 2.867188 6.070312 Z M 2.867188 5.652344 "/>
<path style=" stroke:none;fill-rule:evenodd;fill:rgb(100%,100%,100%);fill-opacity:1;" d="M 3.476562 5.945312 L 3.476562 6.070312 L 2.921875 6.070312 L 2.921875 5.945312 Z M 3.511719 5.621094 L 3.511719 5.746094 L 3.160156 5.746094 L 3.160156 5.621094 Z M 3.511719 5.621094 "/>
<path style=" stroke:none;fill-rule:evenodd;fill:rgb(100%,100%,100%);fill-opacity:1;" d="M -0.617188 5.320312 L 1.175781 5.320312 L 1.175781 5.449219 L -0.617188 5.449219 Z M -0.351562 5.953125 L -0.226562 5.953125 L -0.226562 6.070312 L -0.355469 6.070312 Z M 1.183594 5.945312 L 1.183594 6.070312 L 0.824219 6.070312 L 0.824219 5.945312 Z M 1.375 5.320312 L 1.5 5.320312 L 1.5 6.070312 L 1.375 6.070312 Z M 1.375 5.320312 "/>
<path style=" stroke:none;fill-rule:evenodd;fill:rgb(100%,100%,100%);fill-opacity:1;" d="M 2.09375 5.945312 L 2.09375 6.070312 L 1.410156 6.070312 L 1.410156 5.945312 Z M 0.824219 5.652344 L 0.945312 5.652344 L 0.945312 6.070312 L 0.824219 6.070312 Z M 0.824219 5.652344 "/>
<path style=" stroke:none;fill-rule:evenodd;fill:rgb(100%,100%,100%);fill-opacity:1;" d="M 1.988281 5.320312 L 2.113281 5.320312 L 2.113281 6.070312 L 1.988281 6.070312 Z M 1.683594 5.320312 L 1.804688 5.320312 L 1.804688 6.070312 L 1.683594 6.070312 Z M 0.0429688 5.617188 L 0.0429688 5.746094 L -0.617188 5.746094 L -0.617188 5.621094 Z M 1.480469 5.617188 L 1.480469 5.746094 L 0.820312 5.746094 L 0.820312 5.621094 Z M 1.480469 5.617188 "/>
<path style=" stroke:none;fill-rule:evenodd;fill:rgb(100%,100%,100%);fill-opacity:1;" d="M 0.824219 5.652344 L 0.945312 5.652344 L 0.945312 6.070312 L 0.824219 6.070312 Z M 0.824219 5.652344 "/>
<path style=" stroke:none;fill-rule:evenodd;fill:rgb(100%,100%,100%);fill-opacity:1;" d="M 0.824219 5.652344 L 0.945312 5.652344 L 0.945312 6.070312 L 0.824219 6.070312 Z M 0.824219 5.652344 "/>
<path style=" stroke:none;fill-rule:evenodd;fill:rgb(100%,100%,100%);fill-opacity:1;" d="M 0.824219 5.652344 L 0.945312 5.652344 L 0.945312 6.070312 L 0.824219 6.070312 Z M -0.613281 5.652344 L -0.492188 5.652344 L -0.492188 6.070312 L -0.613281 6.070312 Z M 0.441406 5.652344 L 0.5625 5.652344 L 0.5625 6.070312 L 0.441406 6.070312 Z M -0.0820312 5.652344 L 0.0429688 5.652344 L 0.0429688 6.070312 L -0.0820312 6.070312 Z M -0.0820312 5.652344 "/>
<path style=" stroke:none;fill-rule:evenodd;fill:rgb(100%,100%,100%);fill-opacity:1;" d="M 0.523438 5.945312 L 0.523438 6.070312 L -0.0234375 6.070312 L -0.0234375 5.945312 Z M 0.5625 5.621094 L 0.5625 5.746094 L 0.210938 5.746094 L 0.210938 5.621094 Z M 0.5625 5.621094 "/>
<path style=" stroke:none;fill-rule:evenodd;fill:rgb(100%,100%,100%);fill-opacity:1;" d="M 5.261719 5.320312 L 7.054688 5.320312 L 7.054688 5.449219 L 5.261719 5.449219 Z M 5.527344 5.953125 L 5.652344 5.953125 L 5.652344 6.070312 L 5.527344 6.070312 Z M 7.0625 5.945312 L 7.0625 6.070312 L 6.703125 6.070312 L 6.703125 5.945312 Z M 7.257812 5.320312 L 7.378906 5.320312 L 7.378906 6.070312 L 7.257812 6.070312 Z M 7.257812 5.320312 "/>
<path style=" stroke:none;fill-rule:evenodd;fill:rgb(100%,100%,100%);fill-opacity:1;" d="M 7.96875 5.945312 L 7.96875 6.070312 L 7.289062 6.070312 L 7.289062 5.945312 Z M 6.703125 5.652344 L 6.828125 5.652344 L 6.828125 6.070312 L 6.703125 6.070312 Z M 6.703125 5.652344 "/>
<path style=" stroke:none;fill-rule:evenodd;fill:rgb(100%,100%,100%);fill-opacity:1;" d="M 7.867188 5.320312 L 7.992188 5.320312 L 7.992188 6.070312 L 7.867188 6.070312 Z M 7.558594 5.320312 L 7.683594 5.320312 L 7.683594 6.070312 L 7.554688 6.070312 Z M 5.917969 5.617188 L 5.917969 5.746094 L 5.261719 5.746094 L 5.261719 5.621094 Z M 7.359375 5.617188 L 7.359375 5.746094 L 6.699219 5.746094 L 6.699219 5.621094 Z M 7.359375 5.617188 "/>
<path style=" stroke:none;fill-rule:evenodd;fill:rgb(100%,100%,100%);fill-opacity:1;" d="M 6.703125 5.652344 L 6.828125 5.652344 L 6.828125 6.070312 L 6.703125 6.070312 Z M 6.703125 5.652344 "/>
<path style=" stroke:none;fill-rule:evenodd;fill:rgb(100%,100%,100%);fill-opacity:1;" d="M 6.703125 5.652344 L 6.828125 5.652344 L 6.828125 6.070312 L 6.703125 6.070312 Z M 6.703125 5.652344 "/>
<path style=" stroke:none;fill-rule:evenodd;fill:rgb(100%,100%,100%);fill-opacity:1;" d="M 6.703125 5.652344 L 6.828125 5.652344 L 6.828125 6.070312 L 6.703125 6.070312 Z M 5.265625 5.652344 L 5.386719 5.652344 L 5.386719 6.070312 L 5.265625 6.070312 Z M 6.320312 5.652344 L 6.441406 5.652344 L 6.441406 6.070312 L 6.320312 6.070312 Z M 5.792969 5.652344 L 5.917969 5.652344 L 5.917969 6.070312 L 5.792969 6.070312 Z M 5.792969 5.652344 "/>
<path style=" stroke:none;fill-rule:evenodd;fill:rgb(100%,100%,100%);fill-opacity:1;" d="M 6.40625 5.945312 L 6.40625 6.070312 L 5.851562 6.070312 L 5.851562 5.945312 Z M 6.441406 5.621094 L 6.441406 5.746094 L 6.089844 5.746094 L 6.089844 5.621094 Z M 6.441406 5.621094 "/>
<path style=" stroke:none;fill-rule:evenodd;fill:rgb(100%,100%,100%);fill-opacity:1;" d="M 8.203125 5.320312 L 10.003906 5.320312 L 10.003906 5.449219 L 8.207031 5.449219 Z M 8.476562 5.953125 L 8.597656 5.953125 L 8.597656 6.070312 L 8.476562 6.070312 Z M 10.007812 5.945312 L 10.007812 6.070312 L 9.648438 6.070312 L 9.648438 5.945312 Z M 10.199219 5.320312 L 10.324219 5.320312 L 10.324219 6.070312 L 10.199219 6.070312 Z M 10.199219 5.320312 "/>
<path style=" stroke:none;fill-rule:evenodd;fill:rgb(100%,100%,100%);fill-opacity:1;" d="M 10.917969 5.945312 L 10.917969 6.070312 L 10.238281 6.070312 L 10.238281 5.945312 Z M 9.648438 5.652344 L 9.773438 5.652344 L 9.773438 6.070312 L 9.648438 6.070312 Z M 9.648438 5.652344 "/>
<path style=" stroke:none;fill-rule:evenodd;fill:rgb(100%,100%,100%);fill-opacity:1;" d="M 10.816406 5.320312 L 10.941406 5.320312 L 10.941406 6.070312 L 10.816406 6.070312 Z M 10.503906 5.320312 L 10.628906 5.320312 L 10.628906 6.070312 L 10.503906 6.070312 Z M 8.863281 5.617188 L 8.863281 5.746094 L 8.207031 5.746094 L 8.207031 5.621094 Z M 10.304688 5.617188 L 10.304688 5.746094 L 9.648438 5.746094 L 9.648438 5.621094 Z M 10.304688 5.617188 "/>
<path style=" stroke:none;fill-rule:evenodd;fill:rgb(100%,100%,100%);fill-opacity:1;" d="M 9.648438 5.652344 L 9.773438 5.652344 L 9.773438 6.070312 L 9.648438 6.070312 Z M 9.648438 5.652344 "/>
<path style=" stroke:none;fill-rule:evenodd;fill:rgb(100%,100%,100%);fill-opacity:1;" d="M 9.648438 5.652344 L 9.773438 5.652344 L 9.773438 6.070312 L 9.648438 6.070312 Z M 9.648438 5.652344 "/>
<path style=" stroke:none;fill-rule:evenodd;fill:rgb(100%,100%,100%);fill-opacity:1;" d="M 9.648438 5.652344 L 9.773438 5.652344 L 9.773438 6.070312 L 9.648438 6.070312 Z M 8.207031 5.652344 L 8.332031 5.652344 L 8.332031 6.070312 L 8.207031 6.070312 Z M 9.261719 5.652344 L 9.386719 5.652344 L 9.386719 6.070312 L 9.261719 6.070312 Z M 8.742188 5.652344 L 8.863281 5.652344 L 8.863281 6.070312 L 8.742188 6.070312 Z M 8.742188 5.652344 "/>
<path style=" stroke:none;fill-rule:evenodd;fill:rgb(100%,100%,100%);fill-opacity:1;" d="M 9.351562 5.945312 L 9.351562 6.070312 L 8.796875 6.070312 L 8.796875 5.945312 Z M 9.386719 5.621094 L 9.386719 5.746094 L 9.035156 5.746094 L 9.035156 5.621094 Z M 9.386719 5.621094 "/>
<path style=" stroke:none;fill-rule:evenodd;fill:rgb(100%,100%,100%);fill-opacity:1;" d="M 11.164062 5.320312 L 12.957031 5.320312 L 12.957031 5.449219 L 11.164062 5.449219 Z M 11.429688 5.953125 L 11.554688 5.953125 L 11.554688 6.070312 L 11.429688 6.070312 Z M 12.964844 5.945312 L 12.964844 6.070312 L 12.605469 6.070312 L 12.605469 5.945312 Z M 13.160156 5.320312 L 13.28125 5.320312 L 13.28125 6.070312 L 13.160156 6.070312 Z M 13.160156 5.320312 "/>
<path style=" stroke:none;fill-rule:evenodd;fill:rgb(100%,100%,100%);fill-opacity:1;" d="M 13.875 5.945312 L 13.875 6.070312 L 13.191406 6.070312 L 13.191406 5.945312 Z M 12.605469 5.652344 L 12.730469 5.652344 L 12.730469 6.070312 L 12.605469 6.070312 Z M 12.605469 5.652344 "/>
<path style=" stroke:none;fill-rule:evenodd;fill:rgb(100%,100%,100%);fill-opacity:1;" d="M 13.769531 5.320312 L 13.894531 5.320312 L 13.894531 6.070312 L 13.769531 6.070312 Z M 13.464844 5.320312 L 13.585938 5.320312 L 13.585938 6.070312 L 13.464844 6.070312 Z M 11.824219 5.617188 L 11.824219 5.746094 L 11.164062 5.746094 L 11.164062 5.621094 Z M 13.261719 5.617188 L 13.261719 5.746094 L 12.601562 5.746094 L 12.601562 5.621094 Z M 13.261719 5.617188 "/>
<path style=" stroke:none;fill-rule:evenodd;fill:rgb(100%,100%,100%);fill-opacity:1;" d="M 12.605469 5.652344 L 12.730469 5.652344 L 12.730469 6.070312 L 12.605469 6.070312 Z M 12.605469 5.652344 "/>
<path style=" stroke:none;fill-rule:evenodd;fill:rgb(100%,100%,100%);fill-opacity:1;" d="M 12.605469 5.652344 L 12.730469 5.652344 L 12.730469 6.070312 L 12.605469 6.070312 Z M 12.605469 5.652344 "/>
<path style=" stroke:none;fill-rule:evenodd;fill:rgb(100%,100%,100%);fill-opacity:1;" d="M 12.605469 5.652344 L 12.730469 5.652344 L 12.730469 6.070312 L 12.605469 6.070312 Z M 11.167969 5.652344 L 11.289062 5.652344 L 11.289062 6.070312 L 11.167969 6.070312 Z M 12.222656 5.652344 L 12.347656 5.652344 L 12.347656 6.070312 L 12.222656 6.070312 Z M 11.699219 5.652344 L 11.824219 5.652344 L 11.824219 6.070312 L 11.695312 6.070312 Z M 11.699219 5.652344 "/>
<path style=" stroke:none;fill-rule:evenodd;fill:rgb(100%,100%,100%);fill-opacity:1;" d="M 12.308594 5.945312 L 12.308594 6.070312 L 11.753906 6.070312 L 11.753906 5.945312 Z M 12.347656 5.621094 L 12.347656 5.746094 L 11.988281 5.746094 L 11.988281 5.621094 Z M 12.347656 5.621094 "/>
<path style=" stroke:none;fill-rule:evenodd;fill:rgb(100%,100%,100%);fill-opacity:1;" d="M 14.136719 5.320312 L 15.929688 5.320312 L 15.929688 5.449219 L 14.136719 5.449219 Z M 14.40625 5.953125 L 14.527344 5.953125 L 14.527344 6.070312 L 14.40625 6.070312 Z M 15.9375 5.945312 L 15.9375 6.070312 L 15.578125 6.070312 L 15.578125 5.945312 Z M 16.132812 5.320312 L 16.253906 5.320312 L 16.253906 6.070312 L 16.132812 6.070312 Z M 16.132812 5.320312 "/>
<path style=" stroke:none;fill-rule:evenodd;fill:rgb(100%,100%,100%);fill-opacity:1;" d="M 16.847656 5.945312 L 16.847656 6.070312 L 16.164062 6.070312 L 16.164062 5.945312 Z M 15.578125 5.652344 L 15.703125 5.652344 L 15.703125 6.070312 L 15.578125 6.070312 Z M 15.578125 5.652344 "/>
<path style=" stroke:none;fill-rule:evenodd;fill:rgb(100%,100%,100%);fill-opacity:1;" d="M 16.75 5.320312 L 16.867188 5.320312 L 16.867188 6.070312 L 16.75 6.070312 Z M 16.4375 5.320312 L 16.5625 5.320312 L 16.5625 6.070312 L 16.4375 6.070312 Z M 14.796875 5.617188 L 14.796875 5.746094 L 14.136719 5.746094 L 14.136719 5.621094 Z M 16.234375 5.617188 L 16.234375 5.746094 L 15.578125 5.746094 L 15.578125 5.621094 Z M 16.234375 5.617188 "/>
<path style=" stroke:none;fill-rule:evenodd;fill:rgb(100%,100%,100%);fill-opacity:1;" d="M 15.578125 5.652344 L 15.703125 5.652344 L 15.703125 6.070312 L 15.578125 6.070312 Z M 15.578125 5.652344 "/>
<path style=" stroke:none;fill-rule:evenodd;fill:rgb(100%,100%,100%);fill-opacity:1;" d="M 15.578125 5.652344 L 15.703125 5.652344 L 15.703125 6.070312 L 15.578125 6.070312 Z M 15.578125 5.652344 "/>
<path style=" stroke:none;fill-rule:evenodd;fill:rgb(100%,100%,100%);fill-opacity:1;" d="M 15.578125 5.652344 L 15.703125 5.652344 L 15.703125 6.070312 L 15.578125 6.070312 Z M 14.140625 5.652344 L 14.265625 5.652344 L 14.265625 6.070312 L 14.140625 6.070312 Z M 15.195312 5.652344 L 15.320312 5.652344 L 15.320312 6.070312 L 15.195312 6.070312 Z M 14.671875 5.652344 L 14.796875 5.652344 L 14.796875 6.070312 L 14.671875 6.070312 Z M 14.671875 5.652344 "/>
<path style=" stroke:none;fill-rule:evenodd;fill:rgb(100%,100%,100%);fill-opacity:1;" d="M 15.28125 5.945312 L 15.28125 6.070312 L 14.726562 6.070312 L 14.726562 5.945312 Z M 15.320312 5.621094 L 15.320312 5.746094 L 14.96875 5.746094 L 14.96875 5.621094 Z M 15.320312 5.621094 "/>
<path style=" stroke:none;fill-rule:evenodd;fill:rgb(100%,100%,100%);fill-opacity:1;" d="M 17.09375 5.320312 L 18.886719 5.320312 L 18.886719 5.449219 L 17.09375 5.449219 Z M 17.359375 5.953125 L 17.484375 5.953125 L 17.484375 6.070312 L 17.359375 6.070312 Z M 18.898438 5.945312 L 18.898438 6.070312 L 18.535156 6.070312 L 18.535156 5.945312 Z M 19.089844 5.320312 L 19.210938 5.320312 L 19.210938 6.070312 L 19.089844 6.070312 Z M 19.089844 5.320312 "/>
<path style=" stroke:none;fill-rule:evenodd;fill:rgb(100%,100%,100%);fill-opacity:1;" d="M 19.800781 5.945312 L 19.800781 6.070312 L 19.121094 6.070312 L 19.121094 5.945312 Z M 18.535156 5.652344 L 18.660156 5.652344 L 18.660156 6.070312 L 18.535156 6.070312 Z M 18.535156 5.652344 "/>
<path style=" stroke:none;fill-rule:evenodd;fill:rgb(100%,100%,100%);fill-opacity:1;" d="M 19.703125 5.320312 L 19.824219 5.320312 L 19.824219 6.070312 L 19.703125 6.070312 Z M 19.390625 5.320312 L 19.515625 5.320312 L 19.515625 6.070312 L 19.390625 6.070312 Z M 17.75 5.617188 L 17.75 5.746094 L 17.097656 5.746094 L 17.097656 5.621094 Z M 19.191406 5.617188 L 19.191406 5.746094 L 18.535156 5.746094 L 18.535156 5.621094 Z M 19.191406 5.617188 "/>
<path style=" stroke:none;fill-rule:evenodd;fill:rgb(100%,100%,100%);fill-opacity:1;" d="M 18.535156 5.652344 L 18.660156 5.652344 L 18.660156 6.070312 L 18.535156 6.070312 Z M 18.535156 5.652344 "/>
<path style=" stroke:none;fill-rule:evenodd;fill:rgb(100%,100%,100%);fill-opacity:1;" d="M 18.535156 5.652344 L 18.660156 5.652344 L 18.660156 6.070312 L 18.535156 6.070312 Z M 18.535156 5.652344 "/>
<path style=" stroke:none;fill-rule:evenodd;fill:rgb(100%,100%,100%);fill-opacity:1;" d="M 18.535156 5.652344 L 18.660156 5.652344 L 18.660156 6.070312 L 18.535156 6.070312 Z M 17.097656 5.652344 L 17.21875 5.652344 L 17.21875 6.070312 L 17.097656 6.070312 Z M 18.152344 5.652344 L 18.273438 5.652344 L 18.273438 6.070312 L 18.152344 6.070312 Z M 17.625 5.652344 L 17.75 5.652344 L 17.75 6.070312 L 17.628906 6.070312 Z M 17.625 5.652344 "/>
<path style=" stroke:none;fill-rule:evenodd;fill:rgb(100%,100%,100%);fill-opacity:1;" d="M 18.238281 5.945312 L 18.238281 6.070312 L 17.6875 6.070312 L 17.6875 5.945312 Z M 18.273438 5.621094 L 18.273438 5.746094 L 17.921875 5.746094 L 17.921875 5.621094 Z M 18.273438 5.621094 "/>
<path style=" stroke:none;fill-rule:evenodd;fill:rgb(100%,100%,100%);fill-opacity:1;" d="M 20.050781 5.320312 L 21.84375 5.320312 L 21.84375 5.449219 L 20.050781 5.449219 Z M 20.320312 5.953125 L 20.441406 5.953125 L 20.441406 6.070312 L 20.320312 6.070312 Z M 21.851562 5.945312 L 21.851562 6.070312 L 21.492188 6.070312 L 21.492188 5.945312 Z M 22.042969 5.320312 L 22.167969 5.320312 L 22.167969 6.070312 L 22.042969 6.070312 Z M 22.042969 5.320312 "/>
<path style=" stroke:none;fill-rule:evenodd;fill:rgb(100%,100%,100%);fill-opacity:1;" d="M 22.761719 5.945312 L 22.761719 6.070312 L 22.078125 6.070312 L 22.078125 5.945312 Z M 21.492188 5.652344 L 21.613281 5.652344 L 21.613281 6.070312 L 21.492188 6.070312 Z M 21.492188 5.652344 "/>
<path style=" stroke:none;fill-rule:evenodd;fill:rgb(100%,100%,100%);fill-opacity:1;" d="M 22.660156 5.320312 L 22.78125 5.320312 L 22.78125 6.070312 L 22.660156 6.070312 Z M 22.351562 5.320312 L 22.472656 5.320312 L 22.472656 6.070312 L 22.351562 6.070312 Z M 20.710938 5.617188 L 20.710938 5.746094 L 20.050781 5.746094 L 20.050781 5.621094 Z M 22.148438 5.617188 L 22.148438 5.746094 L 21.492188 5.746094 L 21.492188 5.621094 Z M 22.148438 5.617188 "/>
<path style=" stroke:none;fill-rule:evenodd;fill:rgb(100%,100%,100%);fill-opacity:1;" d="M 21.492188 5.652344 L 21.613281 5.652344 L 21.613281 6.070312 L 21.492188 6.070312 Z M 21.492188 5.652344 "/>
<path style=" stroke:none;fill-rule:evenodd;fill:rgb(100%,100%,100%);fill-opacity:1;" d="M 21.492188 5.652344 L 21.613281 5.652344 L 21.613281 6.070312 L 21.492188 6.070312 Z M 21.492188 5.652344 "/>
<path style=" stroke:none;fill-rule:evenodd;fill:rgb(100%,100%,100%);fill-opacity:1;" d="M 21.492188 5.652344 L 21.613281 5.652344 L 21.613281 6.070312 L 21.492188 6.070312 Z M 20.050781 5.652344 L 20.175781 5.652344 L 20.175781 6.070312 L 20.050781 6.070312 Z M 21.109375 5.652344 L 21.230469 5.652344 L 21.230469 6.070312 L 21.109375 6.070312 Z M 20.585938 5.652344 L 20.710938 5.652344 L 20.710938 6.070312 L 20.585938 6.070312 Z M 20.585938 5.652344 "/>
<path style=" stroke:none;fill-rule:evenodd;fill:rgb(100%,100%,100%);fill-opacity:1;" d="M 21.195312 5.945312 L 21.195312 6.070312 L 20.640625 6.070312 L 20.640625 5.945312 Z M 21.230469 5.621094 L 21.230469 5.746094 L 20.878906 5.746094 L 20.878906 5.621094 Z M 21.230469 5.621094 "/>
<path style=" stroke:none;fill-rule:evenodd;fill:rgb(100%,100%,100%);fill-opacity:1;" d="M 23.023438 5.320312 L 24.820312 5.320312 L 24.820312 5.449219 L 23.023438 5.449219 Z M 23.292969 5.953125 L 23.417969 5.953125 L 23.417969 6.070312 L 23.292969 6.070312 Z M 24.828125 5.945312 L 24.828125 6.070312 L 24.46875 6.070312 L 24.46875 5.945312 Z M 25.015625 5.320312 L 25.140625 5.320312 L 25.140625 6.070312 L 25.015625 6.070312 Z M 25.015625 5.320312 "/>
<path style=" stroke:none;fill-rule:evenodd;fill:rgb(100%,100%,100%);fill-opacity:1;" d="M 25.734375 5.945312 L 25.734375 6.070312 L 25.054688 6.070312 L 25.054688 5.945312 Z M 24.46875 5.652344 L 24.589844 5.652344 L 24.589844 6.070312 L 24.46875 6.070312 Z M 24.46875 5.652344 "/>
<path style=" stroke:none;fill-rule:evenodd;fill:rgb(100%,100%,100%);fill-opacity:1;" d="M 25.632812 5.320312 L 25.757812 5.320312 L 25.757812 6.070312 L 25.632812 6.070312 Z M 25.324219 5.320312 L 25.445312 5.320312 L 25.445312 6.070312 L 25.324219 6.070312 Z M 23.683594 5.617188 L 23.683594 5.746094 L 23.023438 5.746094 L 23.023438 5.621094 Z M 25.125 5.617188 L 25.125 5.746094 L 24.464844 5.746094 L 24.464844 5.621094 Z M 25.125 5.617188 "/>
<path style=" stroke:none;fill-rule:evenodd;fill:rgb(100%,100%,100%);fill-opacity:1;" d="M 24.46875 5.652344 L 24.589844 5.652344 L 24.589844 6.070312 L 24.46875 6.070312 Z M 24.46875 5.652344 "/>
<path style=" stroke:none;fill-rule:evenodd;fill:rgb(100%,100%,100%);fill-opacity:1;" d="M 24.46875 5.652344 L 24.589844 5.652344 L 24.589844 6.070312 L 24.46875 6.070312 Z M 24.46875 5.652344 "/>
<path style=" stroke:none;fill-rule:evenodd;fill:rgb(100%,100%,100%);fill-opacity:1;" d="M 24.46875 5.652344 L 24.589844 5.652344 L 24.589844 6.070312 L 24.46875 6.070312 Z M 23.027344 5.652344 L 23.148438 5.652344 L 23.148438 6.070312 L 23.027344 6.070312 Z M 24.082031 5.652344 L 24.207031 5.652344 L 24.207031 6.070312 L 24.082031 6.070312 Z M 23.558594 5.652344 L 23.683594 5.652344 L 23.683594 6.070312 L 23.558594 6.070312 Z M 23.558594 5.652344 "/>
<path style=" stroke:none;fill-rule:evenodd;fill:rgb(100%,100%,100%);fill-opacity:1;" d="M 24.167969 5.945312 L 24.167969 6.070312 L 23.613281 6.070312 L 23.613281 5.945312 Z M 24.203125 5.621094 L 24.203125 5.746094 L 23.851562 5.746094 L 23.851562 5.621094 Z M 24.203125 5.621094 "/>
<path style=" stroke:none;fill-rule:evenodd;fill:rgb(85.09804%,0%,0%);fill-opacity:1;" d="M 0.605469 12.597656 L 0.824219 12.597656 L 0.824219 12.988281 L 0.605469 12.988281 Z M 6.484375 12.597656 L 6.703125 12.597656 L 6.703125 12.988281 L 6.484375 12.988281 Z M -3.90625 12.597656 L -3.6875 12.597656 L -3.6875 12.988281 L -3.90625 12.988281 Z M -0.921875 12.597656 L -0.703125 12.597656 L -0.703125 12.988281 L -0.921875 12.988281 Z M 2.039062 12.597656 L 2.261719 12.597656 L 2.261719 12.988281 L 2.039062 12.988281 Z M 3.507812 12.597656 L 3.726562 12.597656 L 3.726562 12.988281 L 3.507812 12.988281 Z M 5.003906 12.597656 L 5.222656 12.597656 L 5.222656 12.988281 L 5.003906 12.988281 Z M 7.949219 12.597656 L 8.167969 12.597656 L 8.167969 12.988281 L 7.949219 12.988281 Z M 15.382812 12.597656 L 15.605469 12.597656 L 15.605469 12.988281 L 15.386719 12.988281 Z M 9.445312 12.597656 L 9.664062 12.597656 L 9.664062 12.988281 L 9.445312 12.988281 Z M 10.910156 12.597656 L 11.128906 12.597656 L 11.128906 12.988281 L 10.910156 12.988281 Z M 12.394531 12.597656 L 12.613281 12.597656 L 12.613281 12.988281 L 12.394531 12.988281 Z M 13.875 12.597656 L 14.09375 12.597656 L 14.09375 12.988281 L 13.875 12.988281 Z M 25.710938 12.597656 L 25.929688 12.597656 L 25.929688 12.988281 L 25.710938 12.988281 Z M 16.820312 12.597656 L 17.039062 12.597656 L 17.039062 12.988281 L 16.820312 12.988281 Z M 18.316406 12.597656 L 18.535156 12.597656 L 18.535156 12.988281 L 18.316406 12.988281 Z M 19.828125 12.597656 L 20.046875 12.597656 L 20.046875 12.988281 L 19.828125 12.988281 Z M 21.25 12.597656 L 21.46875 12.597656 L 21.46875 12.988281 L 21.25 12.988281 Z M 22.761719 12.597656 L 22.980469 12.597656 L 22.980469 12.988281 L 22.761719 12.988281 Z M 24.242188 12.597656 L 24.460938 12.597656 L 24.460938 12.988281 L 24.242188 12.988281 Z M 28.625 12.597656 L 28.84375 12.597656 L 28.84375 12.988281 L 28.625 12.988281 Z M 27.203125 12.597656 L 27.421875 12.597656 L 27.421875 12.988281 L 27.203125 12.988281 Z M -2.417969 12.597656 L -2.199219 12.597656 L -2.199219 12.988281 L -2.417969 12.988281 Z M -2.417969 12.597656 "/>
<path style=" stroke:none;fill-rule:evenodd;fill:rgb(13.725491%,61.960787%,24.705882%);fill-opacity:1;" d="M 0.605469 6.035156 L 0.824219 6.035156 L 0.824219 6.421875 L 0.605469 6.421875 Z M 6.484375 6.035156 L 6.703125 6.035156 L 6.703125 6.421875 L 6.484375 6.421875 Z M -3.90625 6.035156 L -3.6875 6.035156 L -3.6875 6.421875 L -3.90625 6.421875 Z M -0.921875 6.035156 L -0.703125 6.035156 L -0.703125 6.421875 L -0.921875 6.421875 Z M 2.039062 6.035156 L 2.261719 6.035156 L 2.261719 6.421875 L 2.039062 6.421875 Z M 3.507812 6.035156 L 3.726562 6.035156 L 3.726562 6.421875 L 3.507812 6.421875 Z M 5.003906 6.035156 L 5.222656 6.035156 L 5.222656 6.421875 L 5.003906 6.421875 Z M 7.949219 6.035156 L 8.167969 6.035156 L 8.167969 6.421875 L 7.949219 6.421875 Z M 15.382812 6.035156 L 15.605469 6.035156 L 15.605469 6.421875 L 15.386719 6.421875 Z M 9.445312 6.035156 L 9.664062 6.035156 L 9.664062 6.421875 L 9.445312 6.421875 Z M 10.910156 6.035156 L 11.128906 6.035156 L 11.128906 6.421875 L 10.910156 6.421875 Z M 12.394531 6.035156 L 12.613281 6.035156 L 12.613281 6.421875 L 12.394531 6.421875 Z M 13.875 6.035156 L 14.09375 6.035156 L 14.09375 6.421875 L 13.875 6.421875 Z M 25.710938 6.035156 L 25.929688 6.035156 L 25.929688 6.421875 L 25.710938 6.421875 Z M 16.820312 6.035156 L 17.039062 6.035156 L 17.039062 6.421875 L 16.820312 6.421875 Z M 18.316406 6.035156 L 18.535156 6.035156 L 18.535156 6.421875 L 18.316406 6.421875 Z M 19.828125 6.035156 L 20.046875 6.035156 L 20.046875 6.421875 L 19.828125 6.421875 Z M 21.25 6.035156 L 21.46875 6.035156 L 21.46875 6.421875 L 21.25 6.421875 Z M 22.761719 6.035156 L 22.980469 6.035156 L 22.980469 6.421875 L 22.761719 6.421875 Z M 24.242188 6.035156 L 24.460938 6.035156 L 24.460938 6.421875 L 24.242188 6.421875 Z M 28.625 6.035156 L 28.84375 6.035156 L 28.84375 6.421875 L 28.625 6.421875 Z M 27.203125 6.035156 L 27.421875 6.035156 L 27.421875 6.421875 L 27.203125 6.421875 Z M -2.417969 6.035156 L -2.199219 6.035156 L -2.199219 6.421875 L -2.417969 6.421875 Z M -2.417969 6.035156 "/>
<path style=" stroke:none;fill-rule:evenodd;fill:rgb(85.490197%,0%,0%);fill-opacity:1;" d="M 13.371094 7.328125 C 13.679688 7.714844 14.636719 9.835938 12.796875 11.234375 C 11.929688 11.894531 12.46875 11.921875 12.492188 12.035156 C 13.882812 11.289062 14.335938 10.273438 14.324219 9.363281 C 14.316406 8.457031 13.839844 7.65625 13.371094 7.328125 "/>
<path style=" stroke:none;fill-rule:evenodd;fill:rgb(85.490197%,0%,0%);fill-opacity:1;" d="M 13.554688 7.230469 C 14.242188 7.652344 14.707031 8.367188 14.816406 9.175781 C 14.929688 9.984375 14.675781 10.800781 14.128906 11.398438 C 15.125 11.175781 16.398438 8.195312 13.554688 7.230469 M 11.445312 7.230469 C 10.757812 7.652344 10.292969 8.367188 10.183594 9.175781 C 10.074219 9.984375 10.328125 10.800781 10.875 11.398438 C 9.875 11.175781 8.601562 8.195312 11.445312 7.230469 "/>
<path style=" stroke:none;fill-rule:evenodd;fill:rgb(85.490197%,0%,0%);fill-opacity:1;" d="M 11.628906 7.328125 C 11.320312 7.714844 10.363281 9.835938 12.203125 11.234375 C 13.066406 11.894531 12.53125 11.921875 12.507812 12.035156 C 11.117188 11.289062 10.664062 10.273438 10.675781 9.363281 C 10.683594 8.457031 11.160156 7.65625 11.628906 7.328125 "/>
<path style=" stroke:none;fill-rule:evenodd;fill:rgb(85.490197%,0%,0%);fill-opacity:1;" d="M 14.265625 11.839844 C 13.71875 11.847656 13.035156 11.765625 12.527344 11.496094 C 12.609375 11.664062 12.679688 11.765625 12.765625 11.929688 C 13.246094 11.980469 13.917969 12.035156 14.265625 11.839844 M 10.785156 11.839844 C 11.332031 11.847656 12.015625 11.765625 12.527344 11.496094 C 12.441406 11.664062 12.371094 11.765625 12.289062 11.929688 C 11.804688 11.980469 11.132812 12.035156 10.785156 11.839844 M 11.785156 6.695312 C 11.894531 6.992188 12.183594 7.035156 12.492188 6.863281 C 12.71875 6.996094 13.066406 7.007812 13.1875 6.710938 C 13.28125 7.445312 12.519531 7.265625 12.492188 7.125 C 12.207031 7.402344 11.679688 7.242188 11.785156 6.695312 "/>
<path style=" stroke:none;fill-rule:evenodd;fill:rgb(85.490197%,0%,0%);fill-opacity:1;" d="M 12.515625 12.304688 L 12.800781 11.972656 L 12.839844 7.515625 L 12.5 7.210938 L 12.160156 7.5 L 12.230469 11.988281 Z M 12.515625 12.304688 "/>
</g>
</svg>
