<svg xmlns="http://www.w3.org/2000/svg" width="25" height="px" viewBox="0 0 25 19"><defs><clipPath id="a"><path d="M.004 0H25v7H.004Zm0 0"/></clipPath><clipPath id="b"><path d="M.004 6H25v7H.004Zm0 0"/></clipPath><clipPath id="c"><path d="M.004 12H25v7H.004Zm0 0"/></clipPath><clipPath id="d"><path d="M.004 0H19v19H.004Zm0 0"/></clipPath></defs><g clip-path="url(#a)"><path d="M.004 0h37.5v6.336H.004Zm0 0" style="stroke:none;fill-rule:evenodd;fill:#000001;fill-opacity:1"/></g><g clip-path="url(#b)"><path d="M.004 6.336h37.5v6.328H.004Zm0 0" style="stroke:none;fill-rule:evenodd;fill:#fff;fill-opacity:1"/></g><g clip-path="url(#c)"><path d="M.004 12.664h37.5V19H.004Zm0 0" style="stroke:none;fill-rule:evenodd;fill:#090;fill-opacity:1"/></g><g clip-path="url(#d)"><path d="m.004 19 18.75-9.5L.004 0Zm0 0" style="stroke:none;fill-rule:evenodd;fill:red;fill-opacity:1"/></g><path d="m5.215 10.727.207-.926h-.934l.844-.41-.582-.739.84.41.207-.921.207.925.84-.414-.586.739.844.41h-.934l.21.926-.581-.743Zm0 0" style="stroke:none;fill-rule:evenodd;fill:#fff;fill-opacity:1"/></svg>