<svg xmlns="http://www.w3.org/2000/svg" width="25" height="px" viewBox="0 0 25 19"><path d="M0 0h25v19H0z" style="fill:#fff;fill-opacity:1;stroke:none"/><path d="M0 0h25v5.7H0Zm0 0" style="stroke:none;fill-rule:nonzero;fill:#000001;fill-opacity:1"/><path d="M0 13.3h25V19H0Zm0 0" style="stroke:none;fill-rule:nonzero;fill:#060;fill-opacity:1"/><path d="m-28.6 47.5 1.8.987L19.9-32.5c2.7-.592 4.2-3.19 5.7-5.79 1-1.809 5-8.717 6.7-17.697a58.4 58.4 0 0 0-11.9 14.671c-1.5 2.632-3 5.23-2.3 7.928Zm0 0" style="fill-rule:nonzero;fill:#000;fill-opacity:1;stroke-width:1;stroke-linecap:butt;stroke-linejoin:miter;stroke:#000;stroke-opacity:1;stroke-miterlimit:10" transform="matrix(.11719 0 0 .11875 12.5 9.5)"/><path d="m9.148 15.14.211.118 5.473-9.617c.316-.07.492-.38.668-.688.117-.215.586-1.035.785-2.101a6.9 6.9 0 0 0-1.394 1.742c-.176.312-.352.62-.27.941Zm0 0" style="stroke:none;fill-rule:nonzero;fill:#fff;fill-opacity:1"/><path d="m-28.6 47.5 1.8.987L19.9-32.5c2.7-.592 4.2-3.19 5.7-5.79 1-1.809 5-8.717 6.7-17.697a58.4 58.4 0 0 0-11.9 14.671c-1.5 2.632-3 5.23-2.3 7.928Zm0 0" style="fill-rule:nonzero;fill:#000;fill-opacity:1;stroke-width:1;stroke-linecap:butt;stroke-linejoin:miter;stroke:#000;stroke-opacity:1;stroke-miterlimit:10" transform="matrix(-.11719 0 0 .11875 12.5 9.5)"/><path d="m15.852 15.14-.211.118-5.473-9.617c-.316-.07-.492-.38-.668-.688-.117-.215-.586-1.035-.785-2.101.555.5 1.027 1.09 1.394 1.742.176.312.352.62.27.941Zm0 0" style="stroke:none;fill-rule:nonzero;fill:#fff;fill-opacity:1"/><path d="M25.02 6.648H14.727c-.352-.949-1.524-2.847-2.227-2.847s-1.875 1.898-2.227 2.847H-.007v5.704h10.28c.352.949 1.524 2.847 2.227 2.847s1.875-1.898 2.227-2.847H25.02Zm0 0" style="stroke:none;fill-rule:nonzero;fill:#b00;fill-opacity:1"/><path d="M14.727 12.352c.351-.954.585-1.903.585-2.852 0-.95-.234-1.898-.585-2.852-.352.954-.586 1.903-.586 2.852 0 .95.234 1.898.586 2.852M10.273 12.352c-.351-.954-.585-1.903-.585-2.852 0-.95.234-1.898.585-2.852.352.954.586 1.903.586 2.852 0 .95-.234 1.898-.586 2.852" style="stroke:none;fill-rule:nonzero;fill:#000;fill-opacity:1"/><path d="M12.969 9.5c0-.395-.211-.71-.469-.71s-.469.315-.469.71.211.71.469.71.469-.315.469-.71m0 0" style="stroke:none;fill-rule:nonzero;fill:#fff;fill-opacity:1"/><path d="M12.617 10.188s.469.953.469 2.496-.469 2.492-.469 2.492ZM12.383 8.813s-.469-.954-.469-2.497.469-2.492.469-2.492ZM12.383 10.188s-.469.953-.469 2.496.469 2.492.469 2.492ZM12.617 8.813s.469-.954.469-2.497-.469-2.492-.469-2.492Zm0 0" style="stroke:none;fill-rule:nonzero;fill:#fff;fill-opacity:1"/></svg>