<svg xmlns="http://www.w3.org/2000/svg" width="25" height="px" viewBox="0 0 25 19"><path d="M0 0h25v19H0z" style="fill:red;fill-opacity:1;stroke:none"/><path d="m13.309 5.805.105-2.059q.001-.019-.016-.02-.011-.001-.02.016l-.519 1.98-.004.02a.24.24 0 0 0 .075.242c.07.059.164.07.246.032a.23.23 0 0 0 .133-.211m.562.172.422-2.02c.004-.008 0-.012-.012-.02a.02.02 0 0 0-.02.012l-.823 1.88-.008.019a.23.23 0 0 0 .047.238.23.23 0 0 0 .394-.11m.527.262.73-1.922a.02.02 0 0 0-.01-.02q-.009-.005-.02 0l-1.106 1.72-.008.015a.24.24 0 0 0 0 .25c.051.074.137.117.223.106a.23.23 0 0 0 .191-.157m.48.344 1.017-1.781q.004-.013-.008-.02-.007-.01-.02-.003l-1.355 1.527-.012.016a.236.236 0 0 0 .168.386.23.23 0 0 0 .21-.125m.423.414 1.281-1.601v-.024a.03.03 0 0 0-.027 0l-1.575 1.29-.015.015a.24.24 0 0 0-.07.238.24.24 0 0 0 .18.168.23.23 0 0 0 .226-.086m.351.473 1.512-1.379q.012-.011 0-.027h-.023l-1.75 1.03-.016.009a.22.22 0 0 0-.102.218c.008.09.067.165.145.196a.23.23 0 0 0 .238-.047m.274.527 1.707-1.125q.006-.006 0-.02c0-.007-.008-.011-.016-.011l-1.89.734-.02.016a.23.23 0 0 0-.145.2c-.004.09.04.175.118.218s.171.04.246-.012m.195.563 1.855-.84q.005-.007.004-.02-.005-.01-.015-.011l-1.98.425-.02.004a.24.24 0 0 0-.176.18c-.02.086.016.18.086.234s.168.063.246.024m.098.59 1.968-.532q.012-.003.012-.02-.004-.015-.02-.015l-2.023.106h-.02a.23.23 0 0 0-.183.148.24.24 0 0 0 .04.239.24.24 0 0 0 .226.074m.011.593 2.024-.214c.012-.004.015-.008.015-.02q.002-.013-.015-.02l-2.016-.214h-.02a.235.235 0 0 0-.226.242c.004.129.11.23.238.226m-.082.586 2.032.106q.01-.005.011-.016.005-.012-.008-.02L16.23 9.86l-.02-.004a.22.22 0 0 0-.233.079.24.24 0 0 0-.036.246c.04.082.121.136.211.136m-.172.57 1.993.427q.012.005.02-.012a.02.02 0 0 0-.013-.02l-1.855-.832-.02-.008a.22.22 0 0 0-.234.047.24.24 0 0 0-.066.235c.02.082.086.148.172.168m-.258.53 1.898.743q.014 0 .016-.012.006-.012 0-.02l-1.695-1.12-.016-.008a.23.23 0 0 0-.246 0 .24.24 0 0 0-.106.226c.012.09.07.165.157.192m-.34.488 1.758 1.031q.012.002.02-.007c.007-.004.007-.016.003-.024l-1.508-1.37-.015-.013a.22.22 0 0 0-.243-.035.23.23 0 0 0-.136.203.23.23 0 0 0 .12.215m-.406.43 1.579 1.297c.007.004.02.004.027-.004.004-.004.004-.016 0-.024l-1.277-1.597-.016-.016a.23.23 0 0 0-.234-.07.238.238 0 0 0-.078.414m-.47.355 1.36 1.532c.008.007.02.011.027.003.008-.007.012-.02.004-.027l-1.02-1.773-.01-.016a.23.23 0 0 0-.41.043.25.25 0 0 0 .046.242m-.52.278 1.11 1.73q.006.01.023.008.013-.011.008-.027l-.727-1.915-.011-.02a.23.23 0 0 0-.2-.144.22.22 0 0 0-.214.118.24.24 0 0 0 .011.25m-.554.195.828 1.883q.004.017.02.011.017 0 .011-.023l-.422-2.008-.004-.02a.23.23 0 0 0-.176-.175.22.22 0 0 0-.23.086.23.23 0 0 0-.024.246m-.582.101.524 1.993q.004.01.02.011t.015-.02l-.105-2.05v-.02a.23.23 0 0 0-.149-.183.23.23 0 0 0-.23.039.23.23 0 0 0-.075.23m-.585.012.21 2.05c0 .009.008.02.02.02s.02-.011.02-.02l.21-2.042a.24.24 0 0 0-.062-.176.22.22 0 0 0-.168-.078.22.22 0 0 0-.164.074.22.22 0 0 0-.066.172m-.579-.086-.105 2.059q.005.013.016.015a.02.02 0 0 0 .02-.011l.519-1.98.004-.02a.24.24 0 0 0-.075-.242.23.23 0 0 0-.246-.032.23.23 0 0 0-.133.211m-.562-.172-.422 2.02.012.012q.012.001.02-.004l.823-1.88.008-.019a.23.23 0 0 0-.047-.238.23.23 0 0 0-.394.11m-.527-.262-.73 1.918c-.005.011 0 .02.007.027q.012.005.023-.008l1.106-1.723a.25.25 0 0 0 .023-.183.22.22 0 0 0-.113-.145.23.23 0 0 0-.313.11m-.484-.34-1.016 1.781q-.004.013.008.02.007.01.02.004l1.355-1.528.012-.015a.236.236 0 0 0-.168-.387.23.23 0 0 0-.21.125m-.423-.414-1.281 1.601v.024q.017.012.027 0l1.575-1.29.015-.015a.24.24 0 0 0 .07-.238.231.231 0 0 0-.406-.082m-.351-.473L7.836 12.91q-.014.013-.004.031c.008.008.02.008.027.004l1.754-1.03.016-.013a.22.22 0 0 0 .101-.218.23.23 0 0 0-.144-.196.23.23 0 0 0-.238.047m-.274-.527-1.707 1.125q-.006.007 0 .02.002.01.016.011l1.89-.738.02-.012a.23.23 0 0 0 .145-.2.24.24 0 0 0-.118-.218.23.23 0 0 0-.246.012m-.195-.563-1.856.84q-.017.004-.011.02 0 .017.023.011l1.98-.425.02-.004a.24.24 0 0 0 .176-.18.24.24 0 0 0-.086-.234.23.23 0 0 0-.246-.024m-.098-.59-1.969.532c-.011.004-.019.011-.015.023s.012.02.023.016l2.024-.11h.02a.23.23 0 0 0 .183-.148.24.24 0 0 0-.04-.238.24.24 0 0 0-.226-.075m-.011-.593-2.024.214q-.019.001-.02.02.001.019.02.02l2.016.214h.02a.24.24 0 0 0 .226-.242.23.23 0 0 0-.238-.226m.082-.586L6.82 8.574q-.011.005-.011.016-.005.012.007.02l1.957.527.02.004a.22.22 0 0 0 .234-.079.24.24 0 0 0 .036-.246.24.24 0 0 0-.211-.136m.171-.57-1.992-.426q-.012-.006-.02.011 0 .013.012.02l1.852.836.02.008a.22.22 0 0 0 .234-.047.24.24 0 0 0 .066-.235.23.23 0 0 0-.172-.168m.258-.53-1.898-.743q-.014 0-.016.012-.006.011 0 .02l1.7 1.12.015.008a.23.23 0 0 0 .246 0 .24.24 0 0 0 .106-.226.23.23 0 0 0-.157-.192m.34-.488L7.86 6.059h-.027c-.004.007 0 .02.004.03l1.508 1.372.015.012a.22.22 0 0 0 .243.035.23.23 0 0 0 .136-.203.23.23 0 0 0-.12-.215m.405-.43L8.445 5.363h-.023q-.012.011 0 .028l1.273 1.597.016.016a.23.23 0 0 0 .234.07.238.238 0 0 0 .078-.414m.47-.355-1.36-1.532q-.013-.005-.02.004-.012.007-.008.02l1.016 1.777.008.016a.23.23 0 0 0 .41-.043.25.25 0 0 0-.047-.242m.52-.278-1.11-1.73q-.012-.006-.02 0a.02.02 0 0 0-.01.02l.726 1.913.011.02a.23.23 0 0 0 .2.145c.09.007.171-.04.214-.118a.24.24 0 0 0-.011-.25m.554-.195-.828-1.883q-.006-.006-.02 0c-.003 0-.011.008-.011.012l.422 2.008.004.02a.231.231 0 0 0 .406.093.24.24 0 0 0 .024-.25m.582-.102-.524-1.992q-.004-.011-.02-.011t-.015.02l.105 2.05v.02a.24.24 0 0 0 .149.187.234.234 0 0 0 .305-.273m.585-.012-.21-2.051c0-.008-.008-.02-.02-.02s-.02.012-.02.02l-.21 2.043v.02c.003.128.109.23.238.23a.235.235 0 0 0 .222-.242m-.23.25c1.926 0 3.484 1.582 3.484 3.531s-1.558 3.531-3.484 3.531S9.016 11.45 9.016 9.5s1.558-3.531 3.484-3.531m0 .426c1.695 0 3.066 1.39 3.066 3.105s-1.37 3.105-3.066 3.105-3.066-1.39-3.066-3.105 1.37-3.105 3.066-3.105M9.938 10.43a6.2 6.2 0 0 1 1.25-1.742l.234.16a6.2 6.2 0 0 0-1.332 1.914 2.5 2.5 0 0 1-.152-.328m2.777-1.606q.111.088.21.188l.227-.176-.21-.188Zm-.445-.344.23.168.23-.168-.23-.171Zm.023.723.207.2.207-.2-.207-.2Zm-.445-.367q.116.087.226.176l.211-.188-.226-.176q-.106.088-.211.188m1.375-.668A3 3 0 0 0 12.988 8l-.261.156.234.172Zm.406.34-.207-.184-.25.16.215.18c.078-.05.16-.105.242-.156m-1.406-.66c.09-.059.183-.118.277-.168l.273.168-.273.16Zm-.45.32A3 3 0 0 1 12.008 8l.262.156-.235.172Zm-.406.34.207-.184.25.16-.215.18c-.078-.05-.16-.105-.242-.156m-1.277-.407c.289.122.57.258.84.422a6 6 0 0 0-1.117 1.48 2.84 2.84 0 0 1 .273-1.902m.234-.363q.509.167 1 .438l-.207.18a6.3 6.3 0 0 0-.922-.426 3 3 0 0 1 .13-.192m.292-.328q.572.159 1.14.445l-.233.168a8 8 0 0 0-1.067-.441Zm.43-.332.023.008.032.008q.58.158 1.16.453l-.29.172a7.5 7.5 0 0 0-1.179-.461q.116-.096.25-.18m2.68-.137-.031.012a8 8 0 0 0-1.192.469 8 8 0 0 0-1.172-.465l-.02-.004a.04.04 0 0 1-.03-.012 2.72 2.72 0 0 1 2.445 0m.488.317-.027.008q-.587.177-1.157.453-.14-.093-.289-.172.582-.305 1.223-.469.134.087.25.18m.332.32q-.54.176-1.062.445l-.235-.168a5.7 5.7 0 0 1 1.133-.445Zm.262.348a6.3 6.3 0 0 0-.922.425c-.066-.058-.137-.12-.207-.175q.491-.28 1-.438.07.082.129.188m.379 2.074a6 6 0 0 0-1.117-1.48q.404-.247.84-.422a2.82 2.82 0 0 1 .277 1.902m-.274.754a6.1 6.1 0 0 0-1.328-1.91q.117-.089.235-.164c.5.492.93 1.082 1.246 1.742a3 3 0 0 1-.153.332m-.426.594a6.3 6.3 0 0 0-1.355-2.145l.219-.187c.57.57 1.054 1.27 1.367 2.054a3 3 0 0 1-.23.278m-.52.433-.035-.101a6.3 6.3 0 0 0-1.227-2.07l.207-.208a5.95 5.95 0 0 1 1.328 2.176c-.086.07-.18.137-.273.2m-2.652.155.035-.109a5.9 5.9 0 0 1 1.152-1.992 5.9 5.9 0 0 1 1.152 1.992l.04.11a2.7 2.7 0 0 1-2.38 0m-.55-.356a5.95 5.95 0 0 1 1.328-2.176l.207.207a6.3 6.3 0 0 0-1.227 2.07l-.039.102a4 4 0 0 1-.273-.2m-.469-.515a6.1 6.1 0 0 1 1.363-2.05l.22.187a6.2 6.2 0 0 0-1.356 2.145 4 4 0 0 1-.23-.278" style="stroke:none;fill-rule:evenodd;fill:#ff0;fill-opacity:1"/></svg>