<?xml version="1.0" encoding="UTF-8"?>
<svg xmlns="http://www.w3.org/2000/svg" xmlns:xlink="http://www.w3.org/1999/xlink" width="25px" height="px" viewBox="0 0 25 19" version="1.1">
<g id="surface1">
<rect x="0" y="0" width="25" height="19" style="fill:rgb(100%,0%,0%);fill-opacity:1;stroke:none;"/>
<path style=" stroke:none;fill-rule:evenodd;fill:rgb(100%,100%,0%);fill-opacity:1;" d="M 13.308594 5.804688 L 13.414062 3.746094 C 13.414062 3.734375 13.410156 3.726562 13.398438 3.726562 C 13.390625 3.726562 13.382812 3.730469 13.378906 3.742188 L 12.859375 5.722656 L 12.855469 5.742188 C 12.832031 5.832031 12.863281 5.925781 12.929688 5.984375 C 13 6.042969 13.09375 6.054688 13.175781 6.015625 C 13.257812 5.976562 13.308594 5.894531 13.308594 5.804688 M 13.871094 5.976562 L 14.292969 3.957031 C 14.296875 3.949219 14.292969 3.945312 14.28125 3.9375 C 14.273438 3.9375 14.265625 3.941406 14.261719 3.949219 L 13.4375 5.828125 L 13.429688 5.847656 C 13.398438 5.929688 13.417969 6.019531 13.476562 6.085938 C 13.535156 6.148438 13.621094 6.175781 13.707031 6.152344 C 13.789062 6.128906 13.851562 6.0625 13.871094 5.976562 M 14.398438 6.238281 L 15.128906 4.316406 C 15.128906 4.308594 15.125 4.300781 15.117188 4.296875 C 15.113281 4.292969 15.105469 4.292969 15.097656 4.296875 L 13.992188 6.015625 L 13.984375 6.03125 C 13.9375 6.109375 13.9375 6.207031 13.984375 6.28125 C 14.035156 6.355469 14.121094 6.398438 14.207031 6.386719 C 14.296875 6.375 14.371094 6.316406 14.398438 6.230469 M 14.878906 6.574219 L 15.894531 4.792969 C 15.898438 4.785156 15.894531 4.777344 15.886719 4.773438 C 15.882812 4.765625 15.875 4.765625 15.867188 4.769531 L 14.511719 6.296875 L 14.5 6.3125 C 14.441406 6.382812 14.429688 6.476562 14.464844 6.558594 C 14.5 6.640625 14.578125 6.695312 14.667969 6.699219 C 14.753906 6.703125 14.835938 6.652344 14.878906 6.574219 M 15.300781 6.988281 L 16.582031 5.386719 L 16.582031 5.363281 C 16.574219 5.359375 16.5625 5.359375 16.554688 5.363281 L 14.980469 6.652344 L 14.964844 6.667969 C 14.898438 6.730469 14.871094 6.820312 14.894531 6.90625 C 14.917969 6.992188 14.988281 7.054688 15.074219 7.074219 C 15.160156 7.089844 15.246094 7.058594 15.300781 6.988281 M 15.652344 7.460938 L 17.164062 6.082031 C 17.171875 6.074219 17.171875 6.066406 17.164062 6.054688 L 17.140625 6.054688 L 15.390625 7.085938 L 15.375 7.09375 C 15.300781 7.140625 15.261719 7.226562 15.273438 7.3125 C 15.28125 7.402344 15.339844 7.476562 15.417969 7.507812 C 15.5 7.539062 15.59375 7.519531 15.65625 7.460938 M 15.929688 7.988281 L 17.636719 6.863281 C 17.640625 6.859375 17.640625 6.851562 17.636719 6.84375 C 17.636719 6.835938 17.628906 6.832031 17.621094 6.832031 L 15.730469 7.566406 L 15.710938 7.582031 C 15.628906 7.613281 15.574219 7.691406 15.566406 7.78125 C 15.5625 7.871094 15.605469 7.957031 15.683594 8 C 15.761719 8.042969 15.855469 8.039062 15.929688 7.988281 M 16.125 8.550781 L 17.980469 7.710938 C 17.984375 7.707031 17.984375 7.699219 17.984375 7.691406 C 17.980469 7.683594 17.976562 7.679688 17.96875 7.679688 L 15.988281 8.105469 L 15.96875 8.109375 C 15.882812 8.128906 15.8125 8.199219 15.792969 8.289062 C 15.773438 8.375 15.808594 8.46875 15.878906 8.523438 C 15.949219 8.578125 16.046875 8.585938 16.125 8.546875 M 16.222656 9.136719 L 18.191406 8.605469 C 18.199219 8.601562 18.203125 8.597656 18.203125 8.585938 C 18.199219 8.574219 18.195312 8.570312 18.183594 8.570312 L 16.160156 8.675781 L 16.140625 8.675781 C 16.054688 8.6875 15.984375 8.746094 15.957031 8.824219 C 15.925781 8.90625 15.941406 8.996094 15.996094 9.0625 C 16.054688 9.125 16.140625 9.15625 16.222656 9.136719 M 16.234375 9.730469 L 18.257812 9.515625 C 18.269531 9.511719 18.273438 9.507812 18.273438 9.496094 C 18.273438 9.488281 18.269531 9.480469 18.257812 9.476562 L 16.242188 9.261719 L 16.222656 9.261719 C 16.09375 9.265625 15.996094 9.371094 15.996094 9.503906 C 16 9.632812 16.105469 9.734375 16.234375 9.730469 M 16.152344 10.316406 L 18.183594 10.421875 C 18.191406 10.417969 18.195312 10.414062 18.195312 10.40625 C 18.199219 10.398438 18.195312 10.390625 18.1875 10.386719 L 16.230469 9.859375 L 16.210938 9.855469 C 16.125 9.832031 16.03125 9.863281 15.976562 9.933594 C 15.917969 10 15.90625 10.097656 15.941406 10.179688 C 15.980469 10.261719 16.0625 10.316406 16.152344 10.316406 M 15.980469 10.886719 L 17.972656 11.3125 C 17.980469 11.316406 17.988281 11.3125 17.992188 11.300781 C 17.992188 11.292969 17.988281 11.285156 17.980469 11.28125 L 16.125 10.449219 L 16.105469 10.441406 C 16.023438 10.410156 15.933594 10.429688 15.871094 10.488281 C 15.808594 10.546875 15.78125 10.636719 15.804688 10.722656 C 15.824219 10.804688 15.890625 10.871094 15.976562 10.890625 M 15.71875 11.421875 L 17.617188 12.164062 C 17.625 12.164062 17.632812 12.160156 17.632812 12.152344 C 17.636719 12.144531 17.636719 12.136719 17.632812 12.132812 L 15.9375 11.011719 L 15.921875 11.003906 C 15.847656 10.957031 15.75 10.957031 15.675781 11.003906 C 15.601562 11.054688 15.558594 11.140625 15.570312 11.230469 C 15.582031 11.320312 15.640625 11.394531 15.726562 11.421875 M 15.386719 11.910156 L 17.144531 12.941406 C 17.152344 12.941406 17.160156 12.941406 17.164062 12.933594 C 17.171875 12.929688 17.171875 12.917969 17.167969 12.910156 L 15.660156 11.539062 L 15.644531 11.527344 C 15.578125 11.46875 15.484375 11.453125 15.402344 11.492188 C 15.320312 11.527344 15.269531 11.605469 15.265625 11.695312 C 15.261719 11.785156 15.308594 11.867188 15.386719 11.910156 M 14.980469 12.339844 L 16.558594 13.636719 C 16.566406 13.640625 16.578125 13.640625 16.585938 13.632812 C 16.589844 13.628906 16.589844 13.617188 16.585938 13.609375 L 15.308594 12.011719 L 15.292969 11.996094 C 15.234375 11.929688 15.144531 11.902344 15.058594 11.925781 C 14.976562 11.949219 14.910156 12.019531 14.894531 12.109375 C 14.878906 12.195312 14.910156 12.285156 14.980469 12.339844 M 14.511719 12.695312 L 15.871094 14.226562 C 15.878906 14.234375 15.890625 14.238281 15.898438 14.230469 C 15.90625 14.222656 15.910156 14.210938 15.902344 14.203125 L 14.882812 12.429688 L 14.871094 12.414062 C 14.824219 12.339844 14.738281 12.300781 14.652344 12.308594 C 14.566406 12.316406 14.492188 12.375 14.460938 12.457031 C 14.433594 12.539062 14.449219 12.632812 14.507812 12.699219 M 13.988281 12.976562 L 15.097656 14.707031 C 15.101562 14.714844 15.109375 14.714844 15.121094 14.714844 C 15.128906 14.707031 15.132812 14.699219 15.128906 14.6875 L 14.402344 12.773438 L 14.390625 12.753906 C 14.355469 12.671875 14.28125 12.613281 14.191406 12.609375 C 14.101562 12.601562 14.019531 12.648438 13.976562 12.726562 C 13.933594 12.804688 13.9375 12.902344 13.988281 12.976562 M 13.433594 13.171875 L 14.261719 15.054688 C 14.265625 15.066406 14.269531 15.070312 14.28125 15.066406 C 14.292969 15.066406 14.296875 15.058594 14.292969 15.042969 L 13.871094 13.035156 L 13.867188 13.015625 C 13.847656 12.925781 13.777344 12.859375 13.691406 12.839844 C 13.605469 12.820312 13.515625 12.851562 13.460938 12.925781 C 13.40625 12.996094 13.398438 13.09375 13.4375 13.171875 M 12.855469 13.273438 L 13.378906 15.265625 C 13.382812 15.273438 13.386719 15.277344 13.398438 15.277344 C 13.410156 15.277344 13.414062 15.269531 13.414062 15.257812 L 13.308594 13.207031 L 13.308594 13.1875 C 13.296875 13.105469 13.242188 13.03125 13.160156 13.003906 C 13.082031 12.972656 12.992188 12.988281 12.929688 13.042969 C 12.863281 13.101562 12.835938 13.1875 12.855469 13.273438 M 12.269531 13.285156 L 12.480469 15.335938 C 12.480469 15.34375 12.488281 15.355469 12.5 15.355469 C 12.511719 15.355469 12.519531 15.34375 12.519531 15.335938 L 12.730469 13.292969 C 12.734375 13.226562 12.710938 13.164062 12.667969 13.117188 C 12.625 13.066406 12.5625 13.039062 12.5 13.039062 C 12.4375 13.039062 12.378906 13.066406 12.335938 13.113281 C 12.289062 13.160156 12.265625 13.21875 12.269531 13.285156 M 11.691406 13.199219 L 11.585938 15.257812 C 11.589844 15.265625 11.59375 15.273438 11.601562 15.273438 C 11.609375 15.273438 11.617188 15.269531 11.621094 15.261719 L 12.140625 13.28125 L 12.144531 13.261719 C 12.167969 13.171875 12.136719 13.078125 12.070312 13.019531 C 12 12.960938 11.90625 12.949219 11.824219 12.988281 C 11.742188 13.027344 11.691406 13.109375 11.691406 13.199219 M 11.128906 13.027344 L 10.707031 15.046875 C 10.710938 15.050781 10.714844 15.054688 10.71875 15.058594 C 10.726562 15.058594 10.734375 15.058594 10.738281 15.054688 L 11.5625 13.175781 L 11.570312 13.15625 C 11.601562 13.074219 11.582031 12.984375 11.523438 12.917969 C 11.464844 12.855469 11.378906 12.828125 11.292969 12.851562 C 11.210938 12.875 11.148438 12.941406 11.128906 13.027344 M 10.601562 12.765625 L 9.871094 14.683594 C 9.867188 14.695312 9.871094 14.703125 9.878906 14.710938 C 9.886719 14.714844 9.894531 14.710938 9.902344 14.703125 L 11.007812 12.980469 C 11.039062 12.925781 11.046875 12.859375 11.03125 12.796875 C 11.015625 12.734375 10.972656 12.679688 10.917969 12.652344 C 10.800781 12.59375 10.660156 12.644531 10.605469 12.761719 M 10.121094 12.421875 L 9.105469 14.203125 C 9.101562 14.210938 9.105469 14.21875 9.113281 14.222656 C 9.117188 14.230469 9.125 14.230469 9.132812 14.226562 L 10.488281 12.699219 L 10.5 12.683594 C 10.558594 12.613281 10.570312 12.519531 10.535156 12.4375 C 10.5 12.355469 10.421875 12.300781 10.332031 12.296875 C 10.246094 12.292969 10.164062 12.34375 10.121094 12.421875 M 9.699219 12.007812 L 8.417969 13.609375 L 8.417969 13.632812 C 8.429688 13.640625 8.4375 13.640625 8.445312 13.632812 L 10.019531 12.34375 L 10.035156 12.328125 C 10.101562 12.265625 10.128906 12.175781 10.105469 12.089844 C 10.082031 12.003906 10.011719 11.9375 9.925781 11.921875 C 9.839844 11.90625 9.753906 11.9375 9.699219 12.007812 M 9.347656 11.535156 L 7.835938 12.910156 C 7.828125 12.917969 7.824219 12.929688 7.832031 12.941406 C 7.839844 12.949219 7.851562 12.949219 7.859375 12.945312 L 9.613281 11.914062 L 9.628906 11.902344 C 9.703125 11.855469 9.742188 11.769531 9.730469 11.683594 C 9.722656 11.59375 9.664062 11.519531 9.585938 11.488281 C 9.503906 11.457031 9.410156 11.476562 9.347656 11.535156 M 9.074219 11.007812 L 7.367188 12.132812 C 7.363281 12.136719 7.363281 12.144531 7.367188 12.152344 C 7.367188 12.160156 7.375 12.164062 7.382812 12.164062 L 9.273438 11.425781 L 9.292969 11.414062 C 9.375 11.382812 9.429688 11.304688 9.4375 11.214844 C 9.441406 11.125 9.398438 11.039062 9.320312 10.996094 C 9.242188 10.953125 9.148438 10.957031 9.074219 11.007812 M 8.878906 10.445312 L 7.023438 11.285156 C 7.011719 11.289062 7.007812 11.292969 7.011719 11.304688 C 7.011719 11.316406 7.019531 11.320312 7.035156 11.316406 L 9.015625 10.890625 L 9.035156 10.886719 C 9.121094 10.867188 9.191406 10.796875 9.210938 10.707031 C 9.230469 10.621094 9.195312 10.527344 9.125 10.472656 C 9.054688 10.417969 8.957031 10.410156 8.878906 10.449219 M 8.78125 9.859375 L 6.8125 10.390625 C 6.800781 10.394531 6.792969 10.402344 6.796875 10.414062 C 6.800781 10.425781 6.808594 10.433594 6.820312 10.429688 L 8.84375 10.320312 L 8.863281 10.320312 C 8.949219 10.308594 9.019531 10.25 9.046875 10.171875 C 9.078125 10.089844 9.0625 10 9.007812 9.933594 C 8.949219 9.871094 8.863281 9.839844 8.78125 9.859375 M 8.769531 9.265625 L 6.746094 9.480469 C 6.734375 9.480469 6.726562 9.488281 6.726562 9.5 C 6.726562 9.511719 6.734375 9.519531 6.746094 9.519531 L 8.761719 9.734375 L 8.78125 9.734375 C 8.910156 9.730469 9.007812 9.621094 9.007812 9.492188 C 9.003906 9.363281 8.898438 9.261719 8.769531 9.265625 M 8.851562 8.679688 L 6.820312 8.574219 C 6.8125 8.578125 6.808594 8.582031 6.808594 8.589844 C 6.804688 8.597656 6.808594 8.605469 6.816406 8.609375 L 8.773438 9.136719 L 8.792969 9.140625 C 8.878906 9.164062 8.972656 9.132812 9.027344 9.0625 C 9.085938 8.996094 9.097656 8.898438 9.0625 8.816406 C 9.023438 8.734375 8.941406 8.679688 8.851562 8.679688 M 9.023438 8.109375 L 7.03125 7.683594 C 7.023438 7.679688 7.015625 7.683594 7.011719 7.695312 C 7.011719 7.703125 7.015625 7.710938 7.023438 7.714844 L 8.875 8.550781 L 8.894531 8.558594 C 8.976562 8.589844 9.066406 8.570312 9.128906 8.511719 C 9.191406 8.453125 9.21875 8.363281 9.195312 8.277344 C 9.175781 8.195312 9.109375 8.128906 9.023438 8.109375 M 9.28125 7.578125 L 7.382812 6.835938 C 7.375 6.835938 7.367188 6.839844 7.367188 6.847656 C 7.363281 6.855469 7.363281 6.863281 7.367188 6.867188 L 9.066406 7.988281 L 9.082031 7.996094 C 9.15625 8.042969 9.253906 8.042969 9.328125 7.996094 C 9.402344 7.945312 9.445312 7.859375 9.433594 7.769531 C 9.421875 7.679688 9.363281 7.605469 9.277344 7.578125 M 9.617188 7.089844 L 7.859375 6.058594 C 7.851562 6.058594 7.839844 6.058594 7.832031 6.058594 C 7.828125 6.066406 7.832031 6.078125 7.835938 6.089844 L 9.34375 7.460938 L 9.359375 7.472656 C 9.425781 7.53125 9.519531 7.546875 9.601562 7.507812 C 9.683594 7.472656 9.734375 7.394531 9.738281 7.304688 C 9.742188 7.214844 9.695312 7.132812 9.617188 7.089844 M 10.023438 6.660156 L 8.445312 5.363281 L 8.421875 5.363281 C 8.414062 5.371094 8.414062 5.378906 8.421875 5.390625 L 9.695312 6.988281 L 9.710938 7.003906 C 9.769531 7.070312 9.859375 7.097656 9.945312 7.074219 C 10.027344 7.050781 10.09375 6.980469 10.109375 6.890625 C 10.125 6.804688 10.09375 6.714844 10.023438 6.660156 M 10.492188 6.304688 L 9.132812 4.773438 C 9.125 4.769531 9.117188 4.769531 9.113281 4.777344 C 9.105469 4.78125 9.101562 4.789062 9.105469 4.796875 L 10.121094 6.574219 L 10.128906 6.589844 C 10.175781 6.664062 10.261719 6.703125 10.347656 6.695312 C 10.433594 6.6875 10.507812 6.628906 10.539062 6.546875 C 10.566406 6.464844 10.550781 6.371094 10.492188 6.304688 M 11.011719 6.027344 L 9.902344 4.296875 C 9.894531 4.292969 9.886719 4.292969 9.882812 4.296875 C 9.875 4.300781 9.871094 4.308594 9.871094 4.316406 L 10.597656 6.230469 L 10.609375 6.25 C 10.644531 6.332031 10.71875 6.390625 10.808594 6.394531 C 10.898438 6.402344 10.980469 6.355469 11.023438 6.277344 C 11.066406 6.199219 11.0625 6.101562 11.011719 6.027344 M 11.566406 5.832031 L 10.738281 3.949219 C 10.734375 3.945312 10.726562 3.945312 10.71875 3.949219 C 10.714844 3.949219 10.707031 3.957031 10.707031 3.960938 L 11.128906 5.96875 L 11.132812 5.988281 C 11.152344 6.078125 11.222656 6.144531 11.308594 6.164062 C 11.394531 6.183594 11.484375 6.152344 11.539062 6.082031 C 11.59375 6.007812 11.601562 5.910156 11.5625 5.832031 M 12.144531 5.730469 L 11.621094 3.738281 C 11.617188 3.730469 11.613281 3.726562 11.601562 3.726562 C 11.589844 3.726562 11.585938 3.734375 11.585938 3.746094 L 11.691406 5.796875 L 11.691406 5.816406 C 11.703125 5.898438 11.757812 5.972656 11.839844 6.003906 C 11.917969 6.03125 12.007812 6.015625 12.070312 5.960938 C 12.136719 5.902344 12.164062 5.816406 12.144531 5.730469 M 12.730469 5.71875 L 12.519531 3.667969 C 12.519531 3.660156 12.511719 3.648438 12.5 3.648438 C 12.488281 3.648438 12.480469 3.660156 12.480469 3.667969 L 12.269531 5.710938 L 12.269531 5.730469 C 12.273438 5.859375 12.378906 5.960938 12.507812 5.960938 C 12.632812 5.957031 12.734375 5.847656 12.730469 5.71875 M 12.5 5.96875 C 14.425781 5.96875 15.984375 7.550781 15.984375 9.5 C 15.984375 11.449219 14.425781 13.03125 12.5 13.03125 C 10.574219 13.03125 9.015625 11.449219 9.015625 9.5 C 9.015625 7.550781 10.574219 5.96875 12.5 5.96875 M 12.5 6.394531 C 14.195312 6.394531 15.566406 7.785156 15.566406 9.5 C 15.566406 11.214844 14.195312 12.605469 12.5 12.605469 C 10.804688 12.605469 9.433594 11.214844 9.433594 9.5 C 9.433594 7.785156 10.804688 6.394531 12.5 6.394531 M 9.9375 10.429688 C 10.25 9.769531 10.6875 9.179688 11.1875 8.6875 L 11.421875 8.847656 C 10.859375 9.394531 10.410156 10.042969 10.089844 10.761719 C 10.03125 10.65625 9.980469 10.546875 9.9375 10.433594 M 12.714844 8.828125 C 12.789062 8.886719 12.859375 8.949219 12.925781 9.015625 L 13.152344 8.839844 L 12.941406 8.652344 Z M 12.269531 8.484375 L 12.5 8.652344 L 12.730469 8.484375 L 12.5 8.3125 Z M 12.292969 9.207031 L 12.5 9.40625 L 12.707031 9.207031 L 12.5 9.007812 Z M 11.847656 8.839844 C 11.925781 8.898438 12 8.957031 12.074219 9.015625 L 12.285156 8.828125 L 12.058594 8.652344 C 11.988281 8.710938 11.917969 8.773438 11.847656 8.839844 M 13.222656 8.171875 C 13.144531 8.109375 13.066406 8.050781 12.988281 8 L 12.726562 8.15625 L 12.960938 8.328125 Z M 13.628906 8.511719 L 13.421875 8.328125 L 13.171875 8.488281 L 13.386719 8.667969 C 13.464844 8.617188 13.546875 8.5625 13.628906 8.511719 M 12.222656 7.851562 C 12.3125 7.792969 12.40625 7.734375 12.5 7.683594 L 12.773438 7.851562 L 12.5 8.011719 Z M 11.773438 8.171875 C 11.851562 8.109375 11.929688 8.050781 12.007812 8 L 12.269531 8.15625 L 12.035156 8.328125 Z M 11.367188 8.511719 L 11.574219 8.328125 L 11.824219 8.488281 L 11.609375 8.667969 C 11.53125 8.617188 11.449219 8.5625 11.367188 8.511719 M 10.089844 8.105469 C 10.378906 8.226562 10.660156 8.363281 10.929688 8.527344 C 10.484375 8.957031 10.105469 9.457031 9.8125 10.007812 C 9.679688 9.359375 9.777344 8.6875 10.085938 8.105469 M 10.320312 7.742188 C 10.660156 7.851562 10.992188 8 11.320312 8.179688 L 11.113281 8.359375 C 10.8125 8.191406 10.503906 8.046875 10.191406 7.933594 C 10.234375 7.863281 10.277344 7.800781 10.320312 7.742188 M 10.613281 7.414062 C 10.992188 7.519531 11.375 7.667969 11.753906 7.859375 L 11.519531 8.027344 C 11.167969 7.851562 10.8125 7.703125 10.453125 7.585938 Z M 11.042969 7.082031 L 11.066406 7.089844 L 11.097656 7.097656 C 11.484375 7.203125 11.871094 7.355469 12.257812 7.550781 L 11.96875 7.722656 C 11.589844 7.535156 11.195312 7.382812 10.789062 7.261719 C 10.867188 7.199219 10.949219 7.136719 11.039062 7.082031 M 13.71875 6.945312 L 13.6875 6.957031 C 13.285156 7.078125 12.890625 7.234375 12.496094 7.425781 C 12.109375 7.234375 11.71875 7.082031 11.324219 6.960938 L 11.304688 6.957031 C 11.292969 6.957031 11.28125 6.953125 11.273438 6.945312 C 12.042969 6.558594 12.949219 6.558594 13.71875 6.945312 M 14.207031 7.261719 L 14.179688 7.269531 C 13.789062 7.386719 13.402344 7.539062 13.023438 7.722656 C 12.929688 7.660156 12.832031 7.605469 12.734375 7.550781 C 13.121094 7.347656 13.53125 7.191406 13.957031 7.082031 C 14.046875 7.140625 14.128906 7.199219 14.207031 7.261719 M 14.539062 7.582031 C 14.179688 7.699219 13.824219 7.847656 13.476562 8.027344 L 13.242188 7.859375 C 13.621094 7.664062 13.996094 7.515625 14.375 7.414062 Z M 14.800781 7.929688 C 14.488281 8.042969 14.179688 8.1875 13.878906 8.355469 C 13.8125 8.296875 13.742188 8.234375 13.671875 8.179688 C 14 7.992188 14.332031 7.847656 14.671875 7.742188 C 14.71875 7.796875 14.761719 7.859375 14.800781 7.929688 M 15.179688 10.003906 C 14.886719 9.453125 14.507812 8.953125 14.0625 8.523438 C 14.332031 8.359375 14.613281 8.21875 14.902344 8.101562 C 15.214844 8.683594 15.3125 9.355469 15.179688 10.003906 M 14.90625 10.757812 C 14.589844 10.042969 14.136719 9.390625 13.578125 8.847656 C 13.65625 8.789062 13.734375 8.734375 13.8125 8.683594 C 14.3125 9.175781 14.742188 9.765625 15.058594 10.425781 C 15.015625 10.539062 14.964844 10.652344 14.90625 10.757812 M 14.480469 11.351562 C 14.144531 10.480469 13.675781 9.773438 13.125 9.207031 L 13.34375 9.019531 C 13.914062 9.589844 14.398438 10.289062 14.710938 11.074219 C 14.640625 11.171875 14.5625 11.265625 14.480469 11.351562 M 13.960938 11.785156 L 13.925781 11.683594 C 13.625 10.855469 13.199219 10.171875 12.699219 9.613281 L 12.90625 9.40625 C 13.5 10.023438 13.953125 10.769531 14.234375 11.582031 C 14.148438 11.652344 14.054688 11.71875 13.960938 11.78125 M 11.308594 11.9375 L 11.34375 11.828125 C 11.597656 11.074219 12 10.402344 12.496094 9.835938 C 12.992188 10.40625 13.394531 11.074219 13.648438 11.828125 L 13.6875 11.9375 C 12.9375 12.304688 12.058594 12.304688 11.308594 11.9375 M 10.757812 11.582031 C 11.039062 10.769531 11.492188 10.023438 12.085938 9.40625 L 12.292969 9.613281 C 11.753906 10.21875 11.339844 10.921875 11.066406 11.683594 L 11.027344 11.785156 C 10.933594 11.722656 10.839844 11.65625 10.753906 11.585938 M 10.285156 11.070312 C 10.597656 10.285156 11.078125 9.589844 11.648438 9.019531 L 11.867188 9.207031 C 11.273438 9.820312 10.8125 10.550781 10.511719 11.351562 C 10.429688 11.261719 10.355469 11.171875 10.28125 11.074219 "/>
</g>
</svg>
