<svg xmlns="http://www.w3.org/2000/svg" width="25" height="px" viewBox="0 0 25 19"><path d="M0 0h25v19H0z" style="fill:#032ea1;fill-opacity:1;stroke:none"/><path d="M0 4.75h25v9.5H0Zm0 0" style="stroke:none;fill-rule:nonzero;fill:#e00025;fill-opacity:1"/><path d="M139 623.487h113.833v43.832H139Zm0 0" style="fill-rule:nonzero;fill:#fff;fill-opacity:1;stroke-width:1;stroke-linecap:butt;stroke-linejoin:bevel;stroke:#000;stroke-opacity:1;stroke-miterlimit:4" transform="matrix(.04688 0 0 .0475 3.344 -20.663)"/><path d="M247 647.582h3.5v16.53H247Zm-108-8.059h113.833v5.016H139Zm0-6.99h113.833v4.605H139Zm0 0" style="fill-rule:nonzero;fill:#fff;fill-opacity:1;stroke-width:1;stroke-linecap:butt;stroke-linejoin:bevel;stroke:#000;stroke-opacity:1;stroke-miterlimit:4" transform="matrix(.04688 0 0 .0475 3.344 -20.663)"/><path d="M139 625.707h113.833v4.277H139Zm0 0" style="fill-rule:nonzero;fill:#fff;fill-opacity:1;stroke-width:.9;stroke-linecap:butt;stroke-linejoin:bevel;stroke:#000;stroke-opacity:1;stroke-miterlimit:4" transform="matrix(.04688 0 0 .0475 3.344 -20.663)"/><path d="M169 647.582h3.583v16.53H169Zm49 0h3.583v16.53H218Zm-78 0h3.5v16.53H140Zm7 0h3.5v16.53H147Zm7.5 0h3.5v16.53h-3.5Zm7.5 0h3.5v16.53H162Zm62.833 0h3.584v16.53h-3.584Zm7.5 0h3.584v16.53h-3.584Zm7.5 0h3.584v16.53h-3.584Zm0 0" style="fill-rule:nonzero;fill:#fff;fill-opacity:1;stroke-width:1;stroke-linecap:butt;stroke-linejoin:bevel;stroke:#000;stroke-opacity:1;stroke-miterlimit:4" transform="matrix(.04688 0 0 .0475 3.344 -20.663)"/><path d="M94.5 669.54a9.43 9.43 0 0 0 4.417-5.346H292c.667 2.303 2.25 4.194 4.417 5.345Zm0 0" style="fill-rule:nonzero;fill:#fff;fill-opacity:1;stroke-width:1;stroke-linecap:butt;stroke-linejoin:miter;stroke:#000;stroke-opacity:1;stroke-miterlimit:4" transform="matrix(.04688 0 0 .0475 3.344 -20.663)"/><path d="M193 556.793s-.083-4.112 2.333-4.194c2.25 0 2.167 4.194 2.167 4.194Zm-12.5 54.523v-5.51c0-2.796-2.833-3.043-2.833-5.017 0 0-.334-2.96.416-4.358 1.084 3.947 3 3.29 3 1.562 0-1.398-1-2.796-3.25-6.332-.833-1.069-.333-4.523.667-5.839.25 2.96 1 4.441 2.167 4.441.916.082 1.333-.576 1.416-1.974 0-1.973-1.25-2.96-2-4.77-.666-1.808-.25-3.947 1.084-5.345.5 3.043.416 4.194 1.75 4.194 2.666-.904 0-4.77-.584-5.756-.666-1.151 1-3.372 1-3.372.75 2.632 1 2.878 2 2.55 1.167-.33 1-1.974-.416-3.372-.917-1.07-.834-2.22.166-3.29 1 1.892 2.25 1.81 2.334.576l-.834-4.44H204l-.917 4.358c-.166 1.151 1.417 1.48 2.417-.494 1 .987 1.083 2.385.167 3.29-1.334 1.398-1.584 3.043-.334 3.371 1 .33 1.167 0 2-2.549 0 0 1.5 1.48 1 3.372-.666.987-3.333 5.016-.666 5.756 1.333 0 1.25-1.15 1.75-4.194 1.333 1.48 1.75 3.537 1 5.346-.584 1.809-2 2.796-2 4.77q.125 2.096 1.5 1.973c1.166 0 1.916-1.48 2.166-4.44 1 1.315 1.5 4.77.75 6.003-2.333 3.371-3.416 4.77-3.416 6.167 0 1.727 2 2.385 3-1.562.916 1.398.5 4.358.5 4.358 0 1.974-2.75 2.22-2.834 5.017v5.51Zm7.167-46.053-.334-3.043h15.834l-.334 3.043Zm1-3.125-.167-2.55H202l-.333 2.55Zm2.333-2.631-.333-2.632h9l-.084 2.632Zm33 110.032c-2-.74-5-2.96-5-5.016v-24.342l2.583-3.372H169l2.5 3.372v24.342c0 2.056-2 4.276-4 5.016Zm0 0" style="fill-rule:nonzero;fill:#fff;fill-opacity:1;stroke-width:1;stroke-linecap:butt;stroke-linejoin:miter;stroke:#000;stroke-opacity:1;stroke-miterlimit:4" transform="matrix(.04688 0 0 .0475 3.344 -20.663)"/><path d="M178.167 647.582h3.666v16.53h-3.666Zm30.416 0h3.584v16.53h-3.584Zm0 0" style="fill-rule:nonzero;fill:#fff;fill-opacity:1;stroke-width:1;stroke-linecap:butt;stroke-linejoin:bevel;stroke:#000;stroke-opacity:1;stroke-miterlimit:4" transform="matrix(.04688 0 0 .0475 3.344 -20.663)"/><path d="M168 609.178v27.631h54v-27.631c-1.25.493-2.25 1.48-2.583 2.796v11.842h-48.75v-11.842s-.584-1.974-2.75-2.796Zm0 0" style="fill-rule:nonzero;fill:#fff;fill-opacity:1;stroke-width:1;stroke-linecap:butt;stroke-linejoin:miter;stroke:#000;stroke-opacity:1;stroke-miterlimit:4" transform="matrix(.04688 0 0 .0475 3.344 -20.663)"/><path d="M214.583 669.54c-1.75-.74-5.583-2.961-5.583-5.017v-27.22c.417-1.48 2.417-2.385 3.667-3.372H177c1.667.987 3.583 1.645 4.333 3.372v27.22c0 2.056-3 4.276-4.833 5.016Zm0 0" style="fill-rule:nonzero;fill:#fff;fill-opacity:1;stroke-width:1;stroke-linecap:butt;stroke-linejoin:miter;stroke:#000;stroke-opacity:1;stroke-miterlimit:4" transform="matrix(.04688 0 0 .0475 3.344 -20.663)"/><path d="M219.417 634.178v-19.573H214.5v-1.891h-38.833v1.973h-5v19.49ZM207 669.539c-1.833-.74-4.333-2.96-4.333-5.016v-23.19l1.416-2.139h-17.666l1.5 1.974v23.355c0 2.056-2.584 4.276-4.334 5.016Zm0 0" style="fill-rule:nonzero;fill:#fff;fill-opacity:1;stroke-width:1;stroke-linecap:butt;stroke-linejoin:miter;stroke:#000;stroke-opacity:1;stroke-miterlimit:4" transform="matrix(.04688 0 0 .0475 3.344 -20.663)"/><path d="M190.667 639.194h9v30.345h-9Zm0 0" style="fill-rule:nonzero;fill:#fff;fill-opacity:1;stroke-width:1;stroke-linecap:butt;stroke-linejoin:miter;stroke:#000;stroke-opacity:1;stroke-miterlimit:4" transform="matrix(.04688 0 0 .0475 3.344 -20.663)"/><path d="M204.417 632.533c0-2.056 5.75-2.138 8.75-3.865h-36c3 1.727 8.75 1.809 8.75 3.865l1.166 3.865 15 .576Zm0 0" style="fill-rule:nonzero;fill:#fff;fill-opacity:1;stroke-width:1;stroke-linecap:butt;stroke-linejoin:bevel;stroke:#000;stroke-opacity:1;stroke-miterlimit:4" transform="matrix(.04688 0 0 .0475 3.344 -20.663)"/><path d="M211.417 611.316c0-4.934.166-6.744 1.666-6.744v15.46c-3.666 1.399-6.25 6.004-6.25 6.004h-23.25s-2.583-4.605-6.25-6.003V604.49c1.75 0 1.75 1.974 1.75 6.744Zm1.666-2.056c0-5.592 4.917-6.168 4.917-6.168v5.017c-1.917-.083-2.833 1.562-2.833 4.03 0 2.466 1.5 2.466 1.5 2.466v14.227h-3.584ZM177.333 609.26c0-5.592-4.916-6.168-4.916-6.168v5.017c1.916-.083 2.75 1.562 2.75 4.03 0 2.466-1.5 2.466-1.5 2.466v14.227h3.666Zm0 0" style="fill-rule:nonzero;fill:#fff;fill-opacity:1;stroke-width:1;stroke-linecap:butt;stroke-linejoin:miter;stroke:#000;stroke-opacity:1;stroke-miterlimit:4" transform="matrix(.04688 0 0 .0475 3.344 -20.663)"/><path d="M186.833 570.609H204m-19.167 5.427h21m-23 6.497h24.834m-27 7.895h29.5M180 599.39h30.417" style="fill:none;stroke-width:.8;stroke-linecap:butt;stroke-linejoin:miter;stroke:#000;stroke-opacity:1;stroke-miterlimit:4" transform="matrix(.04688 0 0 .0475 3.344 -20.663)"/><path d="M170.833 628.997h48.584m-33.25 0h18v6.579h-18Zm0 0" style="fill:none;stroke-width:1;stroke-linecap:butt;stroke-linejoin:miter;stroke:#000;stroke-opacity:1;stroke-miterlimit:4" transform="matrix(.04688 0 0 .0475 3.344 -20.663)"/><path d="M184 614.194c3 3.618 2.583 9.704 2.583 13.322H204c0-3.618-.417-9.704 2.583-13.322Zm9.667-40.954-2.334-1.316v-3.536c1 .33 2 .411 2.167 1.974.333-2.303 1-2.056 1.917-2.96 1 .904 1.5.657 1.916 2.96 0-1.563 1.167-1.645 2.084-1.974v3.536l-2.334 1.152Zm0 0" style="fill-rule:nonzero;fill:#fff;fill-opacity:1;stroke-width:1;stroke-linecap:butt;stroke-linejoin:miter;stroke:#000;stroke-opacity:1;stroke-miterlimit:4" transform="matrix(.04688 0 0 .0475 3.344 -20.663)"/><path d="m193.5 578.914-4-2.796v-3.125c1.5.33 3 .494 3.167 2.22.416-2.549 1.333-3.7 2.75-4.687 1.25.987 2.166 2.138 2.666 4.688.084-1.727 1.75-1.892 3-2.22v3.207l-3.916 2.713Zm0 0" style="fill-rule:nonzero;fill:#fff;fill-opacity:1;stroke-width:1;stroke-linecap:butt;stroke-linejoin:miter;stroke:#000;stroke-opacity:1;stroke-miterlimit:4" transform="matrix(.04688 0 0 .0475 3.344 -20.663)"/><path d="m193.167 587.796-4.5-4.03v-4.687c1.666.411 3.416.658 3.666 3.125.5-3.536 1.5-5.428 3-6.826 1.584 1.398 2.584 3.29 3.167 6.826.167-2.467 2-2.714 3.583-3.125v4.687l-4.583 4.03Zm8.416 5.263-4 5.757h-4.666l-4.084-5.757Zm-15.166 9.54c1.916.987 2.916 3.536 3 7.565H201c.083-4.03 1.083-6.578 3-7.565Zm0 0" style="fill-rule:nonzero;fill:#fff;fill-opacity:1;stroke-width:1;stroke-linecap:butt;stroke-linejoin:miter;stroke:#000;stroke-opacity:1;stroke-miterlimit:4" transform="matrix(.04688 0 0 .0475 3.344 -20.663)"/><path d="M204.167 592.977v-5.592c-1.75.329-3.167 1.645-3.75 3.29 0-1.974-2.5-6.25-5.25-8.471-2.667 2.385-5.25 6.414-5.167 8.388-.5-1.562-1.833-2.631-3.833-3.207v5.674Zm0 0" style="fill-rule:nonzero;fill:#fff;fill-opacity:1;stroke-width:1;stroke-linecap:butt;stroke-linejoin:bevel;stroke:#000;stroke-opacity:1;stroke-miterlimit:4" transform="matrix(.04688 0 0 .0475 3.344 -20.663)"/><path d="M205 602.599v-5.592c-2.167.575-3.5 1.727-4.083 3.289 0-1.974-2.75-6.332-5.75-8.47-3 2.467-5.75 6.414-5.667 8.47-.5-1.562-1.917-2.632-4.083-3.29v5.675Zm0 0" style="fill-rule:nonzero;fill:#fff;fill-opacity:1;stroke-width:1;stroke-linecap:butt;stroke-linejoin:bevel;stroke:#000;stroke-opacity:1;stroke-miterlimit:4" transform="matrix(.04688 0 0 .0475 3.344 -20.663)"/><path d="M207.417 614.276v-6.579c-2.084.658-3.917 1.974-5.084 3.783 0-3.454-4-8.964-7.166-10.69-3.167 1.809-7.084 7.4-7.084 10.69-1.25-1.809-3.083-3.125-5.166-3.783v6.58Zm0 0" style="fill-rule:nonzero;fill:#fff;fill-opacity:1;stroke-width:1;stroke-linecap:butt;stroke-linejoin:bevel;stroke:#000;stroke-opacity:1;stroke-miterlimit:4" transform="matrix(.04688 0 0 .0475 3.344 -20.663)"/><path d="M206 628.997v-6.826c-2.417.905-3 3.125-3.833 4.77.333-6.908-3.75-14.227-7-16.119-3.167 1.892-7.334 9.375-7 15.954-.75-1.398-1.5-3.7-3.75-4.605v6.743Zm0 0" style="fill-rule:nonzero;fill:#fff;fill-opacity:1;stroke-width:1;stroke-linecap:butt;stroke-linejoin:bevel;stroke:#000;stroke-opacity:1;stroke-miterlimit:4" transform="matrix(.04688 0 0 .0475 3.344 -20.663)"/><path d="M204.417 639.194v-6.826c-2.5.658-2.584 1.563-3.417 3.043.333-4.112-2.583-8.8-5.833-10.608-3.167 1.809-6 6.496-5.75 10.608-.834-1.48-.917-2.385-3.417-3.043v6.826ZM99 664.194V643.8c-.667-2.631-3-5.016-4.583-5.427v-18.01l3.666 2.056 4.334 18.914v22.944Zm0 0" style="fill-rule:nonzero;fill:#fff;fill-opacity:1;stroke-width:1;stroke-linecap:butt;stroke-linejoin:miter;stroke:#000;stroke-opacity:1;stroke-miterlimit:4" transform="matrix(.04688 0 0 .0475 3.344 -20.663)"/><path d="M99 664.276V643.8c-.667-2.631-3-5.016-4.583-5.427V619.21c2.5 0 3.666 3.207 3.666 3.207l4.334 18.914v22.862Zm0 0" style="fill-rule:nonzero;fill:#fff;fill-opacity:1;stroke-width:1;stroke-linecap:butt;stroke-linejoin:miter;stroke:#000;stroke-opacity:1;stroke-miterlimit:4" transform="matrix(.04688 0 0 .0475 3.344 -20.663)"/><path d="M96.333 669.54c1.667-.74 4.167-2.961 4.167-5.017v-25.658l-1.167-1.974H143l-1.667 1.974v25.658c.084 2.138 1.417 4.03 3.334 5.016Zm0 0" style="fill-rule:nonzero;fill:#fff;fill-opacity:1;stroke-width:1;stroke-linecap:butt;stroke-linejoin:miter;stroke:#000;stroke-opacity:1;stroke-miterlimit:4" transform="matrix(.04688 0 0 .0475 3.344 -20.663)"/><path d="M135.833 669.54c-1.75-.74-4.25-2.961-4.25-5.017v-24.342l3.584-3.372h-29.584l3.584 3.372v24.342c0 2.056-2.5 4.276-4.167 5.016Zm0 0" style="fill-rule:nonzero;fill:#fff;fill-opacity:1;stroke-width:1;stroke-linecap:butt;stroke-linejoin:miter;stroke:#000;stroke-opacity:1;stroke-miterlimit:4" transform="matrix(.04688 0 0 .0475 3.344 -20.663)"/><path d="M131.667 669.54c-1.667-.74-4.25-2.961-4.25-5.017v-22.04l2.416-3.289H111l2.417 3.29v22.039c0 2.056-2.5 4.276-4.334 5.016Zm0 0" style="fill-rule:nonzero;fill:#fff;fill-opacity:1;stroke-width:1;stroke-linecap:butt;stroke-linejoin:miter;stroke:#000;stroke-opacity:1;stroke-miterlimit:4" transform="matrix(.04688 0 0 .0475 3.344 -20.663)"/><path d="M116 639.194h8.917v30.428h-9Zm0 0" style="fill-rule:nonzero;fill:#fff;fill-opacity:1;stroke-width:1;stroke-linecap:butt;stroke-linejoin:miter;stroke:#000;stroke-opacity:1;stroke-miterlimit:4" transform="matrix(.04688 0 0 .0475 3.344 -20.663)"/><path d="M103.667 647.582h3.666v16.53h-3.666Zm30.833 0h3.5v16.53h-3.583Zm-33.917-27.796H105v17.023h-4.417Zm0-3.207h4.334v3.207h-4.334Zm35.584 6.908h6.166v12.993h-6.166Zm0 0" style="fill-rule:nonzero;fill:#fff;fill-opacity:1;stroke-width:1;stroke-linecap:butt;stroke-linejoin:bevel;stroke:#000;stroke-opacity:1;stroke-miterlimit:4" transform="matrix(.04688 0 0 .0475 3.344 -20.663)"/><path d="M104.917 636.562v-28.947c1.166 0 1.416 4.276 4.166 4.276 1.5 0 1.417-1.809.5-3.207-.666-1.316-1.583-2.96-.416-6.25.916 2.467 3.166 3.29 2.75 1.727-.75-2.631-2.834-3.125-1.25-7.237.5 3.372 2.75 3.29 2.25 1.316-.584-2.303-1.917-3.372-.334-6.579.917 3.7 2 3.536 2 1.234 0-3.372 0-6.99 4.25-8.306 0 0 .25-2.96 1.834-2.96 1.666 0 1.833 2.96 1.833 2.96 4.333 1.316 4.167 5.016 4.167 8.306 0 2.302 1.166 2.467 2-1.234 1.666 3.207.333 4.276-.25 6.58-.5 1.973 1.666 2.055 2.166-1.317 1.584 4.112-.5 4.606-1.166 7.237-.417 1.563 1.75.74 2.666-1.727 1.25 3.29.334 4.934-.416 6.25-.75 1.398-1 3.207.5 3.207 2.833 0 3-4.194 4.25-4.194v28.865ZM98 614.687v22.122h2.5v-22.122q-1.25-.74-2.5 0Zm0 0" style="fill-rule:nonzero;fill:#fff;fill-opacity:1;stroke-width:1;stroke-linecap:butt;stroke-linejoin:miter;stroke:#000;stroke-opacity:1;stroke-miterlimit:4" transform="matrix(.04688 0 0 .0475 3.344 -20.663)"/><path d="M98.167 628.997c3.166 1.562 6.25 3.536 7 7.812h-7Zm43.25-6.58v14.392h2v-14.391q-1-.495-2 0Zm0 0" style="fill-rule:nonzero;fill:#fff;fill-opacity:1;stroke-width:1;stroke-linecap:butt;stroke-linejoin:miter;stroke:#000;stroke-opacity:1;stroke-miterlimit:4" transform="matrix(.04688 0 0 .0475 3.344 -20.663)"/><path d="M143.417 628.997c-3.084 1.48-6.25 3.29-7 7.73h7Zm-20.584-33.717 1.75-1.48v-1.974q-.75 0-1.5.986c-.416-1.315-1.25-2.384-2.5-3.042-1.166.575-2.166 1.644-2.583 2.96-.417-.658-.917-.987-1.5-1.069v2.056l1.833 1.563Zm0 0" style="fill-rule:nonzero;fill:#fff;fill-opacity:1;stroke-width:1;stroke-linecap:butt;stroke-linejoin:miter;stroke:#000;stroke-opacity:1;stroke-miterlimit:4" transform="matrix(.04688 0 0 .0475 3.344 -20.663)"/><path d="m123.833 600.214.75-1.892v-2.549q-.75 0-1.5.987c-.416-1.234-1.25-2.303-2.5-2.96-1.166.575-2.166 1.644-2.583 2.878-.417-.576-.917-.905-1.5-.905v2.55l.833 1.89Zm0 0" style="fill-rule:nonzero;fill:#fff;fill-opacity:1;stroke-width:1;stroke-linecap:butt;stroke-linejoin:miter;stroke:#000;stroke-opacity:1;stroke-miterlimit:4" transform="matrix(.04688 0 0 .0475 3.344 -20.663)"/><path d="m124 606.793 2.583-3.29v-3.207c-.833 0-1.583.576-2.166 1.645-.75-2.303-2-2.714-3.834-3.865-1.916.986-3.166 1.562-3.75 3.7-.833-1.069-1.333-1.398-2.333-1.48v3.207l2.667 3.29Zm0 0" style="fill-rule:nonzero;fill:#fff;fill-opacity:1;stroke-width:1;stroke-linecap:butt;stroke-linejoin:miter;stroke:#000;stroke-opacity:1;stroke-miterlimit:4" transform="matrix(.04688 0 0 .0475 3.344 -20.663)"/><path d="M124.667 613.29s3.25-2.714 3.333-4.195v-3.536c-1.167.165-2.333.411-3.167 1.974-.833-2.96-2-3.7-4.25-5.017-2.25 1.316-3.5 2.056-4.166 5.017-1-1.563-2-1.81-3.334-2.056v3.618c.834 1.563 2 3.043 3.334 4.194Zm0 0" style="fill-rule:nonzero;fill:#fff;fill-opacity:1;stroke-width:1;stroke-linecap:butt;stroke-linejoin:miter;stroke:#000;stroke-opacity:1;stroke-miterlimit:4" transform="matrix(.04688 0 0 .0475 3.344 -20.663)"/><path d="M126 625.296s4.417-4.687 4.5-6.579v-5.428c-1.667.165-3.167 1.316-4.417 3.619-.833-4.44-2.666-7.648-5.5-9.786-3 2.138-4.583 5.263-5.583 9.786-1.25-2.303-2.667-3.454-4.333-3.619v5.428c.333 1.892 4.416 6.579 4.416 6.579Zm0 0" style="fill-rule:nonzero;fill:#fff;fill-opacity:1;stroke-width:1;stroke-linecap:butt;stroke-linejoin:miter;stroke:#000;stroke-opacity:1;stroke-miterlimit:4" transform="matrix(.04688 0 0 .0475 3.344 -20.663)"/><path d="M126 632.368s3.667-3.7 4.5-5.263v-5.427c-1.667.246-3.167 1.398-4.417 3.536-.5-3.7-2.5-6.99-5.5-9.21-3 2.22-4.583 4.687-5.583 9.21-1.25-2.138-2.667-3.29-4.333-3.536v5.427c1 1.563 4.416 5.263 4.416 5.263Zm0 0" style="fill-rule:nonzero;fill:#fff;fill-opacity:1;stroke-width:1;stroke-linecap:butt;stroke-linejoin:miter;stroke:#000;stroke-opacity:1;stroke-miterlimit:4" transform="matrix(.04688 0 0 .0475 3.344 -20.663)"/><path d="M127.5 636.562c-1-4.687-2-8.141-7.083-11.677-5.25 3.536-6.084 6.99-7.25 11.677Zm0 0" style="fill-rule:nonzero;fill:#fff;fill-opacity:1;stroke-width:1;stroke-linecap:butt;stroke-linejoin:miter;stroke:#000;stroke-opacity:1;stroke-miterlimit:4" transform="matrix(.04688 0 0 .0475 3.344 -20.663)"/><path d="M130.167 639.194v-6.826c-2.334 1.07-4.5 2.303-5.25 3.866-.834-3.866-2.5-5.428-4.584-7.73-2.166 2.302-3.5 4.029-4.416 7.73-.834-1.563-2.917-2.961-5.25-3.866v6.826Zm0 0" style="fill-rule:nonzero;fill:#fff;fill-opacity:1;stroke-width:1;stroke-linecap:butt;stroke-linejoin:miter;stroke:#000;stroke-opacity:1;stroke-miterlimit:4" transform="matrix(.04688 0 0 .0475 3.344 -20.663)"/><path d="M99.033 664.194V643.8c-.75-2.631-3-5.016-4.666-5.427v-18.01l3.75 2.056 4.25 18.914v22.944Zm0 0" style="fill-rule:nonzero;fill:#fff;fill-opacity:1;stroke-width:1;stroke-linecap:butt;stroke-linejoin:miter;stroke:#000;stroke-opacity:1;stroke-miterlimit:4" transform="matrix(-.04688 0 0 .0475 21.658 -20.663)"/><path d="M99.033 664.276V643.8c-.75-2.631-3-5.016-4.666-5.427V619.21c2.5 0 3.75 3.207 3.75 3.207l4.25 18.914v22.862Zm0 0" style="fill-rule:nonzero;fill:#fff;fill-opacity:1;stroke-width:1;stroke-linecap:butt;stroke-linejoin:miter;stroke:#000;stroke-opacity:1;stroke-miterlimit:4" transform="matrix(-.04688 0 0 .0475 21.658 -20.663)"/><path d="M96.283 669.54c1.75-.74 4.25-2.961 4.25-5.017v-25.658l-1.25-1.974h43.75l-1.75 1.974v25.658c.167 2.138 1.5 4.03 3.417 5.016Zm0 0" style="fill-rule:nonzero;fill:#fff;fill-opacity:1;stroke-width:1;stroke-linecap:butt;stroke-linejoin:miter;stroke:#000;stroke-opacity:1;stroke-miterlimit:4" transform="matrix(-.04688 0 0 .0475 21.658 -20.663)"/><path d="M135.783 669.54c-1.666-.74-4.166-2.961-4.166-5.017v-24.342l3.583-3.372h-29.583l3.583 3.372v24.342c0 2.056-2.5 4.276-4.167 5.016Zm0 0" style="fill-rule:nonzero;fill:#fff;fill-opacity:1;stroke-width:1;stroke-linecap:butt;stroke-linejoin:miter;stroke:#000;stroke-opacity:1;stroke-miterlimit:4" transform="matrix(-.04688 0 0 .0475 21.658 -20.663)"/><path d="M131.7 669.54c-1.667-.74-4.333-2.961-4.333-5.017v-22.04l2.416-3.289h-18.75l2.334 3.29v22.039c0 2.056-2.5 4.276-4.25 5.016Zm0 0" style="fill-rule:nonzero;fill:#fff;fill-opacity:1;stroke-width:1;stroke-linecap:butt;stroke-linejoin:miter;stroke:#000;stroke-opacity:1;stroke-miterlimit:4" transform="matrix(-.04688 0 0 .0475 21.658 -20.663)"/><path d="M116.033 639.194h8.834v30.428h-9Zm0 0" style="fill-rule:nonzero;fill:#fff;fill-opacity:1;stroke-width:1;stroke-linecap:butt;stroke-linejoin:miter;stroke:#000;stroke-opacity:1;stroke-miterlimit:4" transform="matrix(-.04688 0 0 .0475 21.658 -20.663)"/><path d="M103.7 647.582h3.583v16.53H103.7Zm30.833 0h3.5v16.53h-3.666Zm-33.916-27.796h4.416v17.023h-4.416Zm0-3.207h4.25v3.207h-4.25Zm35.583 6.908h6.083v12.993H136.2Zm0 0" style="fill-rule:nonzero;fill:#fff;fill-opacity:1;stroke-width:1;stroke-linecap:butt;stroke-linejoin:bevel;stroke:#000;stroke-opacity:1;stroke-miterlimit:4" transform="matrix(-.04688 0 0 .0475 21.658 -20.663)"/><path d="M104.867 636.562v-28.947c1.25 0 1.416 4.276 4.25 4.276 1.5 0 1.416-1.809.5-3.207-.75-1.316-1.584-2.96-.417-6.25.917 2.467 3.083 3.29 2.667 1.727-.667-2.631-2.75-3.125-1.167-7.237.5 3.372 2.667 3.29 2.167 1.316-.584-2.303-1.834-3.372-.25-6.579.916 3.7 2 3.536 2 1.234 0-3.372 0-6.99 4.166-8.306 0 0 .334-2.96 1.917-2.96s1.833 2.96 1.833 2.96c4.25 1.316 4.167 5.016 4.167 8.306 0 2.302 1.083 2.467 2-1.234 1.583 3.207.333 4.276-.333 6.58-.5 1.973 1.75 2.055 2.25-1.317 1.583 4.112-.5 4.606-1.25 7.237-.334 1.563 1.833.74 2.75-1.727 1.166 3.29.25 4.934-.417 6.25-.833 1.398-1 3.207.5 3.207 2.833 0 3-4.194 4.167-4.194v28.865Zm-6.834-21.875v22.122h2.5v-22.122q-1.374-.74-2.5 0Zm0 0" style="fill-rule:nonzero;fill:#fff;fill-opacity:1;stroke-width:1;stroke-linecap:butt;stroke-linejoin:miter;stroke:#000;stroke-opacity:1;stroke-miterlimit:4" transform="matrix(-.04688 0 0 .0475 21.658 -20.663)"/><path d="M98.2 628.997c3.083 1.562 6.167 3.536 7 7.812h-7Zm43.167-6.58v14.392h2v-14.391q-1-.495-2 0Zm0 0" style="fill-rule:nonzero;fill:#fff;fill-opacity:1;stroke-width:1;stroke-linecap:butt;stroke-linejoin:miter;stroke:#000;stroke-opacity:1;stroke-miterlimit:4" transform="matrix(-.04688 0 0 .0475 21.658 -20.663)"/><path d="M143.367 628.997c-3.084 1.48-6.167 3.29-7 7.73h7Zm-20.584-33.717 1.834-1.48v-1.974q-.876 0-1.5.986a5.37 5.37 0 0 0-2.5-3.042c-1.25.575-2.167 1.644-2.584 2.96-.416-.658-.916-.987-1.5-1.069v2.056l1.75 1.563Zm0 0" style="fill-rule:nonzero;fill:#fff;fill-opacity:1;stroke-width:1;stroke-linecap:butt;stroke-linejoin:miter;stroke:#000;stroke-opacity:1;stroke-miterlimit:4" transform="matrix(-.04688 0 0 .0475 21.658 -20.663)"/><path d="m123.783 600.214.834-1.892v-2.549q-.876 0-1.5.987c-.417-1.234-1.334-2.303-2.5-2.96a4.9 4.9 0 0 0-2.584 2.878c-.416-.576-.916-.905-1.5-.905v2.55l.75 1.89Zm0 0" style="fill-rule:nonzero;fill:#fff;fill-opacity:1;stroke-width:1;stroke-linecap:butt;stroke-linejoin:miter;stroke:#000;stroke-opacity:1;stroke-miterlimit:4" transform="matrix(-.04688 0 0 .0475 21.658 -20.663)"/><path d="m124.033 606.793 2.584-3.29v-3.207c-.917 0-1.584.576-2.25 1.645-.667-2.303-2-2.714-3.75-3.865-1.917.986-3.25 1.562-3.834 3.7-.75-1.069-1.25-1.398-2.25-1.48v3.207l2.667 3.29Zm0 0" style="fill-rule:nonzero;fill:#fff;fill-opacity:1;stroke-width:1;stroke-linecap:butt;stroke-linejoin:miter;stroke:#000;stroke-opacity:1;stroke-miterlimit:4" transform="matrix(-.04688 0 0 .0475 21.658 -20.663)"/><path d="M124.7 613.29s3.167-2.714 3.333-4.195v-3.536c-1.25.165-2.333.411-3.25 1.974-.75-2.96-2-3.7-4.166-5.017-2.334 1.316-3.5 2.056-4.25 5.017-1-1.563-2-1.81-3.25-2.056v3.618c.833 1.563 1.916 3.043 3.25 4.194Zm0 0" style="fill-rule:nonzero;fill:#fff;fill-opacity:1;stroke-width:1;stroke-linecap:butt;stroke-linejoin:miter;stroke:#000;stroke-opacity:1;stroke-miterlimit:4" transform="matrix(-.04688 0 0 .0475 21.658 -20.663)"/><path d="M126.033 625.296s4.334-4.687 4.5-6.579v-5.428c-1.666.165-3.166 1.316-4.416 3.619-.917-4.44-2.75-7.648-5.5-9.786-3 2.138-4.584 5.263-5.584 9.786-1.333-2.303-2.75-3.454-4.333-3.619v5.428c.333 1.892 4.417 6.579 4.417 6.579Zm0 0" style="fill-rule:nonzero;fill:#fff;fill-opacity:1;stroke-width:1;stroke-linecap:butt;stroke-linejoin:miter;stroke:#000;stroke-opacity:1;stroke-miterlimit:4" transform="matrix(-.04688 0 0 .0475 21.658 -20.663)"/><path d="M126.033 632.368s3.667-3.7 4.5-5.263v-5.427c-1.666.246-3.166 1.398-4.416 3.536-.584-3.7-2.5-6.99-5.5-9.21-3 2.22-4.584 4.687-5.584 9.21-1.333-2.138-2.75-3.29-4.333-3.536v5.427c1 1.563 4.417 5.263 4.417 5.263Zm0 0" style="fill-rule:nonzero;fill:#fff;fill-opacity:1;stroke-width:1;stroke-linecap:butt;stroke-linejoin:miter;stroke:#000;stroke-opacity:1;stroke-miterlimit:4" transform="matrix(-.04688 0 0 .0475 21.658 -20.663)"/><path d="M127.533 636.562c-1-4.687-2-8.141-7.166-11.677-5.167 3.536-6.084 6.99-7.167 11.677Zm0 0" style="fill-rule:nonzero;fill:#fff;fill-opacity:1;stroke-width:1;stroke-linecap:butt;stroke-linejoin:miter;stroke:#000;stroke-opacity:1;stroke-miterlimit:4" transform="matrix(-.04688 0 0 .0475 21.658 -20.663)"/><path d="M130.2 639.194v-6.826c-2.417 1.07-4.5 2.303-5.333 3.866-.75-3.866-2.5-5.428-4.584-7.73-2.083 2.302-3.5 4.029-4.416 7.73-.75-1.563-2.834-2.961-5.167-3.866v6.826Zm0 0" style="fill-rule:nonzero;fill:#fff;fill-opacity:1;stroke-width:1;stroke-linecap:butt;stroke-linejoin:miter;stroke:#000;stroke-opacity:1;stroke-miterlimit:4" transform="matrix(-.04688 0 0 .0475 21.658 -20.663)"/><path d="M72.667 694.293H318v12.5H72.667Zm-6.5 12.5H324.5v12.5H66.167Zm19.416-31.333H305v8.142H85.583Zm0 0" style="fill-rule:nonzero;fill:#fff;fill-opacity:1;stroke-width:1;stroke-linecap:butt;stroke-linejoin:miter;stroke:#000;stroke-opacity:1;stroke-miterlimit:4" transform="matrix(.04688 0 0 .0475 3.344 -20.663)"/><path d="M79.167 683.602h232.416v10.608H79.167Zm10.25-14.31h212v6.168h-212Zm0 0" style="fill-rule:nonzero;fill:#fff;fill-opacity:1;stroke-width:1;stroke-linecap:butt;stroke-linejoin:miter;stroke:#000;stroke-opacity:1;stroke-miterlimit:4" transform="matrix(.04688 0 0 .0475 3.344 -20.663)"/><path d="M112.417 669.293h16v50h-16Zm0 0" style="fill-rule:nonzero;fill:#fff;fill-opacity:1;stroke-width:1;stroke-linecap:butt;stroke-linejoin:miter;stroke:#000;stroke-opacity:1;stroke-miterlimit:4" transform="matrix(.04688 0 0 .0475 3.344 -20.663)"/><path d="M116 669.293h8.917v50h-9Zm71 0h16v50h-16Zm0 0" style="fill-rule:nonzero;fill:#fff;fill-opacity:1;stroke-width:1;stroke-linecap:butt;stroke-linejoin:miter;stroke:#000;stroke-opacity:1;stroke-miterlimit:4" transform="matrix(.04688 0 0 .0475 3.344 -20.663)"/><path d="M190.667 669.293h9v50h-9Zm71.5 0h16v50h-16Zm0 0" style="fill-rule:nonzero;fill:#fff;fill-opacity:1;stroke-width:1;stroke-linecap:butt;stroke-linejoin:miter;stroke:#000;stroke-opacity:1;stroke-miterlimit:4" transform="matrix(.04688 0 0 .0475 3.344 -20.663)"/><path d="M265.667 669.293h9v50h-9Zm0 0" style="fill-rule:nonzero;fill:#fff;fill-opacity:1;stroke-width:1;stroke-linecap:butt;stroke-linejoin:miter;stroke:#000;stroke-opacity:1;stroke-miterlimit:4" transform="matrix(.04688 0 0 .0475 3.344 -20.663)"/><path d="M99 664.194h193M115.833 712.96H125m-9.167-6.25H125m-9.167-6.25H125m-9.167-6.25H125m-9.167-6.25H125m-9.167-6.25H125m-9.167-6.25H125m65.833 37.5h8.584m-8.584-6.25h8.584m-8.584-6.25h8.584m-8.584-6.25h8.584m-8.584-6.25h8.584m-8.584-6.25h8.584m-8.584-6.25h8.584m66.166 37.5h9.25m-9.25-6.25h9.25m-9.25-6.25h9.25m-9.25-6.25h9.25m-9.25-6.25h9.25m-9.25-6.25h9.25m-9.25-6.25h9.25" style="fill:none;stroke-width:1;stroke-linecap:butt;stroke-linejoin:miter;stroke:#000;stroke-opacity:1;stroke-miterlimit:4" transform="matrix(.04688 0 0 .0475 3.344 -20.663)"/></svg>