<?xml version="1.0" encoding="UTF-8"?>
<svg xmlns="http://www.w3.org/2000/svg" xmlns:xlink="http://www.w3.org/1999/xlink" width="25px" height="px" viewBox="0 0 25 19" version="1.1">
<g id="surface1">
<rect x="0" y="0" width="25" height="19" style="fill:rgb(1.176471%,18.039216%,63.137257%);fill-opacity:1;stroke:none;"/>
<path style=" stroke:none;fill-rule:nonzero;fill:rgb(87.843138%,0%,14.509805%);fill-opacity:1;" d="M 0 4.75 L 25 4.75 L 25 14.25 L 0 14.25 Z M 0 4.75 "/>
<path style="fill-rule:nonzero;fill:rgb(100%,100%,100%);fill-opacity:1;stroke-width:1;stroke-linecap:butt;stroke-linejoin:bevel;stroke:rgb(0%,0%,0%);stroke-opacity:1;stroke-miterlimit:4;" d="M 138.999996 623.486817 L 252.833325 623.486817 L 252.833325 667.319052 L 138.999996 667.319052 Z M 138.999996 623.486817 " transform="matrix(0.046875,0,0,0.0475,3.34375,-20.6625)"/>
<path style="fill-rule:nonzero;fill:rgb(100%,100%,100%);fill-opacity:1;stroke-width:1;stroke-linecap:butt;stroke-linejoin:bevel;stroke:rgb(0%,0%,0%);stroke-opacity:1;stroke-miterlimit:4;" d="M 246.999991 647.582211 L 250.499991 647.582211 L 250.499991 664.111816 L 246.999991 664.111816 Z M 138.999996 639.523001 L 252.833325 639.523001 L 252.833325 644.539448 L 138.999996 644.539448 Z M 138.999996 632.53287 L 252.833325 632.53287 L 252.833325 637.138133 L 138.999996 637.138133 Z M 138.999996 632.53287 " transform="matrix(0.046875,0,0,0.0475,3.34375,-20.6625)"/>
<path style="fill-rule:nonzero;fill:rgb(100%,100%,100%);fill-opacity:1;stroke-width:0.9;stroke-linecap:butt;stroke-linejoin:bevel;stroke:rgb(0%,0%,0%);stroke-opacity:1;stroke-miterlimit:4;" d="M 138.999996 625.707212 L 252.833325 625.707212 L 252.833325 629.983528 L 138.999996 629.983528 Z M 138.999996 625.707212 " transform="matrix(0.046875,0,0,0.0475,3.34375,-20.6625)"/>
<path style="fill-rule:nonzero;fill:rgb(100%,100%,100%);fill-opacity:1;stroke-width:1;stroke-linecap:butt;stroke-linejoin:bevel;stroke:rgb(0%,0%,0%);stroke-opacity:1;stroke-miterlimit:4;" d="M 168.999995 647.582211 L 172.583328 647.582211 L 172.583328 664.111816 L 168.999995 664.111816 Z M 217.999993 647.582211 L 221.583326 647.582211 L 221.583326 664.111816 L 217.999993 664.111816 Z M 139.999996 647.582211 L 143.499996 647.582211 L 143.499996 664.111816 L 139.999996 664.111816 Z M 146.999995 647.582211 L 150.499995 647.582211 L 150.499995 664.111816 L 146.999995 664.111816 Z M 154.499995 647.582211 L 157.999995 647.582211 L 157.999995 664.111816 L 154.499995 664.111816 Z M 161.999995 647.582211 L 165.499995 647.582211 L 165.499995 664.111816 L 161.999995 664.111816 Z M 224.833326 647.582211 L 228.416659 647.582211 L 228.416659 664.111816 L 224.833326 664.111816 Z M 232.333325 647.582211 L 235.916659 647.582211 L 235.916659 664.111816 L 232.333325 664.111816 Z M 239.833325 647.582211 L 243.416658 647.582211 L 243.416658 664.111816 L 239.833325 664.111816 Z M 239.833325 647.582211 " transform="matrix(0.046875,0,0,0.0475,3.34375,-20.6625)"/>
<path style="fill-rule:nonzero;fill:rgb(100%,100%,100%);fill-opacity:1;stroke-width:1;stroke-linecap:butt;stroke-linejoin:miter;stroke:rgb(0%,0%,0%);stroke-opacity:1;stroke-miterlimit:4;" d="M 94.499998 669.539447 C 96.583331 668.388131 98.166664 666.496684 98.916664 664.194053 L 291.99999 664.194053 C 292.666656 666.496684 294.24999 668.388131 296.416656 669.539447 Z M 94.499998 669.539447 " transform="matrix(0.046875,0,0,0.0475,3.34375,-20.6625)"/>
<path style="fill-rule:nonzero;fill:rgb(100%,100%,100%);fill-opacity:1;stroke-width:1;stroke-linecap:butt;stroke-linejoin:miter;stroke:rgb(0%,0%,0%);stroke-opacity:1;stroke-miterlimit:4;" d="M 192.999994 556.792741 C 192.999994 556.792741 192.91666 552.680899 195.333327 552.598662 C 197.583327 552.598662 197.499993 556.792741 197.499993 556.792741 Z M 180.499994 611.315765 L 180.499994 605.805897 C 180.499994 603.009844 177.666661 602.763134 177.666661 600.78945 C 177.666661 600.78945 177.333328 597.828924 178.083328 596.430897 C 179.166661 600.378266 181.083327 599.720371 181.083327 597.993397 C 181.083327 596.595371 180.083327 595.197345 177.833328 591.661161 C 176.999994 590.592082 177.499994 587.138135 178.499994 585.822345 C 178.749994 588.782871 179.499994 590.263134 180.666661 590.263134 C 181.583327 590.345371 181.999994 589.687477 182.083327 588.28945 C 182.083327 586.315766 180.833327 585.328924 180.083327 583.519714 C 179.416661 581.710503 179.833327 579.572345 181.166661 578.174319 C 181.666661 581.217082 181.583327 582.368398 182.916661 582.368398 C 185.583327 581.463793 182.916661 577.598661 182.333327 576.611819 C 181.666661 575.460503 183.333327 573.240109 183.333327 573.240109 C 184.083327 575.871688 184.333327 576.118398 185.333327 575.789451 C 186.499994 575.460503 186.333327 573.815767 184.916661 572.41774 C 183.999994 571.348662 184.083327 570.197346 185.083327 569.128267 C 186.083327 571.019714 187.333327 570.937477 187.41666 569.703925 L 186.583327 565.263135 L 203.999993 565.263135 L 203.083327 569.621688 C 202.91666 570.773004 204.499993 571.101951 205.499993 569.128267 C 206.499993 570.115109 206.583326 571.513135 205.66666 572.41774 C 204.333326 573.815767 204.083326 575.460503 205.333326 575.789451 C 206.333326 576.118398 206.499993 575.789451 207.333326 573.240109 C 207.333326 573.240109 208.833326 574.720372 208.333326 576.611819 C 207.66666 577.598661 204.999993 581.628266 207.66666 582.368398 C 208.999993 582.368398 208.91666 581.217082 209.41666 578.174319 C 210.749993 579.654582 211.16666 581.710503 210.41666 583.519714 C 209.833326 585.328924 208.41666 586.315766 208.41666 588.28945 C 208.499993 589.687477 208.999993 590.345371 209.91666 590.263134 C 211.083326 590.263134 211.833326 588.782871 212.083326 585.822345 C 213.083326 587.138135 213.583326 590.592082 212.833326 591.825634 C 210.499993 595.197345 209.41666 596.595371 209.41666 597.993397 C 209.41666 599.720371 211.41666 600.378266 212.416659 596.430897 C 213.333326 597.828924 212.916659 600.78945 212.916659 600.78945 C 212.916659 602.763134 210.16666 603.009844 210.083326 605.805897 L 210.083326 611.315765 Z M 187.66666 565.263135 L 187.333327 562.220372 L 203.16666 562.220372 L 202.833327 565.263135 Z M 188.66666 562.138136 L 188.499994 559.588794 L 201.999993 559.588794 L 201.66666 562.138136 Z M 190.999994 559.506557 L 190.66666 556.874978 L 199.66666 556.874978 L 199.583327 559.506557 Z M 223.999992 669.539447 C 221.999992 668.799316 218.999993 666.578921 218.999993 664.523 L 218.999993 640.180896 L 221.583326 636.809185 L 168.999995 636.809185 L 171.499994 640.180896 L 171.499994 664.523 C 171.499994 666.578921 169.499995 668.799316 167.499995 669.539447 Z M 223.999992 669.539447 " transform="matrix(0.046875,0,0,0.0475,3.34375,-20.6625)"/>
<path style="fill-rule:nonzero;fill:rgb(100%,100%,100%);fill-opacity:1;stroke-width:1;stroke-linecap:butt;stroke-linejoin:bevel;stroke:rgb(0%,0%,0%);stroke-opacity:1;stroke-miterlimit:4;" d="M 178.166661 647.582211 L 181.833327 647.582211 L 181.833327 664.111816 L 178.166661 664.111816 Z M 208.583326 647.582211 L 212.16666 647.582211 L 212.16666 664.111816 L 208.583326 664.111816 Z M 208.583326 647.582211 " transform="matrix(0.046875,0,0,0.0475,3.34375,-20.6625)"/>
<path style="fill-rule:nonzero;fill:rgb(100%,100%,100%);fill-opacity:1;stroke-width:1;stroke-linecap:butt;stroke-linejoin:miter;stroke:rgb(0%,0%,0%);stroke-opacity:1;stroke-miterlimit:4;" d="M 167.999995 609.177607 L 167.999995 636.809185 L 221.999992 636.809185 L 221.999992 609.177607 C 220.749992 609.671028 219.749993 610.65787 219.416659 611.97366 L 219.416659 623.815765 L 170.666661 623.815765 L 170.666661 611.97366 C 170.666661 611.97366 170.083328 609.999976 167.916661 609.177607 Z M 167.999995 609.177607 " transform="matrix(0.046875,0,0,0.0475,3.34375,-20.6625)"/>
<path style="fill-rule:nonzero;fill:rgb(100%,100%,100%);fill-opacity:1;stroke-width:1;stroke-linecap:butt;stroke-linejoin:miter;stroke:rgb(0%,0%,0%);stroke-opacity:1;stroke-miterlimit:4;" d="M 214.583326 669.539447 C 212.833326 668.799316 208.999993 666.578921 208.999993 664.523 L 208.999993 637.302606 C 209.41666 635.822343 211.41666 634.917738 212.666659 633.930896 L 176.999994 633.930896 C 178.666661 634.917738 180.583327 635.575633 181.333327 637.302606 L 181.333327 664.523 C 181.333327 666.578921 178.333328 668.799316 176.499994 669.539447 Z M 214.583326 669.539447 " transform="matrix(0.046875,0,0,0.0475,3.34375,-20.6625)"/>
<path style="fill-rule:nonzero;fill:rgb(100%,100%,100%);fill-opacity:1;stroke-width:1;stroke-linecap:butt;stroke-linejoin:miter;stroke:rgb(0%,0%,0%);stroke-opacity:1;stroke-miterlimit:4;" d="M 219.416659 634.177606 L 219.416659 614.605239 L 214.499993 614.605239 L 214.499993 612.713791 L 175.666661 612.713791 L 175.666661 614.687476 L 170.666661 614.687476 L 170.666661 634.177606 Z M 206.999993 669.539447 C 205.16666 668.799316 202.66666 666.578921 202.66666 664.523 L 202.66666 641.332211 L 204.083326 639.194054 L 186.416661 639.194054 L 187.91666 641.167738 L 187.91666 664.523 C 187.91666 666.578921 185.333327 668.799316 183.583327 669.539447 Z M 206.999993 669.539447 " transform="matrix(0.046875,0,0,0.0475,3.34375,-20.6625)"/>
<path style="fill-rule:nonzero;fill:rgb(100%,100%,100%);fill-opacity:1;stroke-width:1;stroke-linecap:butt;stroke-linejoin:miter;stroke:rgb(0%,0%,0%);stroke-opacity:1;stroke-miterlimit:4;" d="M 190.66666 639.194054 L 199.66666 639.194054 L 199.66666 669.539447 L 190.66666 669.539447 Z M 190.66666 639.194054 " transform="matrix(0.046875,0,0,0.0475,3.34375,-20.6625)"/>
<path style="fill-rule:nonzero;fill:rgb(100%,100%,100%);fill-opacity:1;stroke-width:1;stroke-linecap:butt;stroke-linejoin:bevel;stroke:rgb(0%,0%,0%);stroke-opacity:1;stroke-miterlimit:4;" d="M 204.41666 632.53287 C 204.41666 630.476949 210.16666 630.394712 213.166659 628.667738 L 177.166661 628.667738 C 180.166661 630.394712 185.916661 630.476949 185.916661 632.53287 L 187.083327 636.398001 L 202.083327 636.973659 Z M 204.41666 632.53287 " transform="matrix(0.046875,0,0,0.0475,3.34375,-20.6625)"/>
<path style="fill-rule:nonzero;fill:rgb(100%,100%,100%);fill-opacity:1;stroke-width:1;stroke-linecap:butt;stroke-linejoin:miter;stroke:rgb(0%,0%,0%);stroke-opacity:1;stroke-miterlimit:4;" d="M 211.41666 611.315765 C 211.41666 606.381555 211.583326 604.572344 213.083326 604.572344 L 213.083326 620.03287 C 209.41666 621.430896 206.833326 626.036159 206.833326 626.036159 L 183.583327 626.036159 C 183.583327 626.036159 180.999994 621.430896 177.333328 620.03287 L 177.333328 604.490108 C 179.083327 604.490108 179.083327 606.463792 179.083327 611.233528 Z M 213.083326 609.259844 C 213.083326 603.667739 217.999993 603.092081 217.999993 603.092081 L 217.999993 608.108528 C 216.083326 608.026292 215.166659 609.671028 215.166659 612.138134 C 215.166659 614.605239 216.666659 614.605239 216.666659 614.605239 L 216.666659 628.832212 L 213.083326 628.832212 Z M 213.083326 609.259844 " transform="matrix(0.046875,0,0,0.0475,3.34375,-20.6625)"/>
<path style="fill-rule:nonzero;fill:rgb(100%,100%,100%);fill-opacity:1;stroke-width:1;stroke-linecap:butt;stroke-linejoin:miter;stroke:rgb(0%,0%,0%);stroke-opacity:1;stroke-miterlimit:4;" d="M 177.333328 609.259844 C 177.333328 603.667739 172.416661 603.092081 172.416661 603.092081 L 172.416661 608.108528 C 174.333328 608.026292 175.166661 609.671028 175.166661 612.138134 C 175.166661 614.605239 173.666661 614.605239 173.666661 614.605239 L 173.666661 628.832212 L 177.333328 628.832212 Z M 177.333328 609.259844 " transform="matrix(0.046875,0,0,0.0475,3.34375,-20.6625)"/>
<path style="fill:none;stroke-width:0.8;stroke-linecap:butt;stroke-linejoin:miter;stroke:rgb(0%,0%,0%);stroke-opacity:1;stroke-miterlimit:4;" d="M 186.833327 570.60853 L 203.999993 570.60853 M 184.833327 576.036161 L 205.833326 576.036161 M 182.833327 582.532872 L 207.66666 582.532872 M 180.666661 590.427608 L 210.16666 590.427608 M 179.999994 599.391424 L 210.41666 599.391424 " transform="matrix(0.046875,0,0,0.0475,3.34375,-20.6625)"/>
<path style="fill:none;stroke-width:1;stroke-linecap:butt;stroke-linejoin:miter;stroke:rgb(0%,0%,0%);stroke-opacity:1;stroke-miterlimit:4;" d="M 170.833328 628.996686 L 219.416659 628.996686 M 186.166661 628.996686 L 204.16666 628.996686 L 204.16666 635.575633 L 186.166661 635.575633 Z M 186.166661 628.996686 " transform="matrix(0.046875,0,0,0.0475,3.34375,-20.6625)"/>
<path style="fill-rule:nonzero;fill:rgb(100%,100%,100%);fill-opacity:1;stroke-width:1;stroke-linecap:butt;stroke-linejoin:miter;stroke:rgb(0%,0%,0%);stroke-opacity:1;stroke-miterlimit:4;" d="M 183.999994 614.194055 C 186.999994 617.812475 186.583327 623.898002 186.583327 627.516422 L 203.999993 627.516422 C 203.999993 623.898002 203.583327 617.812475 206.583326 614.194055 Z M 193.66666 573.240109 L 191.333327 571.924319 L 191.333327 568.388135 C 192.333327 568.717083 193.333327 568.79932 193.499994 570.361819 C 193.833327 568.059188 194.499994 568.305898 195.41666 567.401293 C 196.41666 568.305898 196.91666 568.059188 197.333327 570.361819 C 197.333327 568.79932 198.499993 568.717083 199.41666 568.388135 L 199.41666 571.924319 L 197.083327 573.075635 Z M 193.66666 573.240109 " transform="matrix(0.046875,0,0,0.0475,3.34375,-20.6625)"/>
<path style="fill-rule:nonzero;fill:rgb(100%,100%,100%);fill-opacity:1;stroke-width:1;stroke-linecap:butt;stroke-linejoin:miter;stroke:rgb(0%,0%,0%);stroke-opacity:1;stroke-miterlimit:4;" d="M 193.499994 578.914451 L 189.499994 576.118398 L 189.499994 572.993398 C 190.999994 573.322346 192.499994 573.486819 192.66666 575.213793 C 193.083327 572.664451 193.999994 571.513135 195.41666 570.526293 C 196.66666 571.513135 197.583327 572.664451 198.083327 575.213793 C 198.16666 573.486819 199.833327 573.322346 201.083327 572.993398 L 201.083327 576.200635 L 197.16666 578.914451 Z M 193.499994 578.914451 " transform="matrix(0.046875,0,0,0.0475,3.34375,-20.6625)"/>
<path style="fill-rule:nonzero;fill:rgb(100%,100%,100%);fill-opacity:1;stroke-width:1;stroke-linecap:butt;stroke-linejoin:miter;stroke:rgb(0%,0%,0%);stroke-opacity:1;stroke-miterlimit:4;" d="M 193.16666 587.796029 L 188.66666 583.766424 L 188.66666 579.078924 C 190.333327 579.490109 192.083327 579.736819 192.333327 582.203924 C 192.833327 578.66774 193.833327 576.776293 195.333327 575.378267 C 196.91666 576.776293 197.91666 578.66774 198.499993 582.203924 C 198.66666 579.736819 200.499993 579.490109 202.083327 579.078924 L 202.083327 583.766424 L 197.499993 587.796029 Z M 201.583327 593.059187 L 197.583327 598.815766 L 192.91666 598.815766 L 188.833327 593.059187 Z M 186.416661 602.59866 C 188.333327 603.585502 189.333327 606.134844 189.41666 610.164449 L 200.999993 610.164449 C 201.083327 606.134844 202.083327 603.585502 203.999993 602.59866 Z M 186.416661 602.59866 " transform="matrix(0.046875,0,0,0.0475,3.34375,-20.6625)"/>
<path style="fill-rule:nonzero;fill:rgb(100%,100%,100%);fill-opacity:1;stroke-width:1;stroke-linecap:butt;stroke-linejoin:bevel;stroke:rgb(0%,0%,0%);stroke-opacity:1;stroke-miterlimit:4;" d="M 204.16666 592.97695 L 204.16666 587.384845 C 202.41666 587.713792 200.999993 589.029582 200.41666 590.674319 C 200.41666 588.700635 197.91666 584.424319 195.16666 582.203924 C 192.499994 584.588793 189.91666 588.618398 189.999994 590.592082 C 189.499994 589.029582 188.16666 587.960503 186.166661 587.384845 L 186.166661 593.059187 Z M 204.16666 592.97695 " transform="matrix(0.046875,0,0,0.0475,3.34375,-20.6625)"/>
<path style="fill-rule:nonzero;fill:rgb(100%,100%,100%);fill-opacity:1;stroke-width:1;stroke-linecap:butt;stroke-linejoin:bevel;stroke:rgb(0%,0%,0%);stroke-opacity:1;stroke-miterlimit:4;" d="M 204.999993 602.59866 L 204.999993 597.006555 C 202.833327 597.582213 201.499993 598.733529 200.91666 600.296029 C 200.91666 598.322345 198.16666 593.963792 195.16666 591.825634 C 192.16666 594.29274 189.41666 598.240108 189.499994 600.296029 C 188.999994 598.733529 187.583327 597.66445 185.416661 597.006555 L 185.416661 602.680897 Z M 204.999993 602.59866 " transform="matrix(0.046875,0,0,0.0475,3.34375,-20.6625)"/>
<path style="fill-rule:nonzero;fill:rgb(100%,100%,100%);fill-opacity:1;stroke-width:1;stroke-linecap:butt;stroke-linejoin:bevel;stroke:rgb(0%,0%,0%);stroke-opacity:1;stroke-miterlimit:4;" d="M 207.41666 614.276291 L 207.41666 607.697344 C 205.333326 608.355239 203.499993 609.671028 202.333327 611.480239 C 202.333327 608.026292 198.333327 602.516423 195.16666 600.78945 C 191.999994 602.59866 188.083327 608.190765 188.083327 611.480239 C 186.833327 609.671028 184.999994 608.355239 182.916661 607.697344 L 182.916661 614.276291 Z M 207.41666 614.276291 " transform="matrix(0.046875,0,0,0.0475,3.34375,-20.6625)"/>
<path style="fill-rule:nonzero;fill:rgb(100%,100%,100%);fill-opacity:1;stroke-width:1;stroke-linecap:butt;stroke-linejoin:bevel;stroke:rgb(0%,0%,0%);stroke-opacity:1;stroke-miterlimit:4;" d="M 205.999993 628.996686 L 205.999993 622.171028 C 203.583327 623.075633 202.999993 625.296028 202.16666 626.940765 C 202.499993 620.03287 198.41666 612.713791 195.16666 610.822344 C 191.999994 612.713791 187.833327 620.197344 188.16666 626.776291 C 187.41666 625.378265 186.666661 623.075633 184.416661 622.171028 L 184.416661 628.914449 Z M 205.999993 628.996686 " transform="matrix(0.046875,0,0,0.0475,3.34375,-20.6625)"/>
<path style="fill-rule:nonzero;fill:rgb(100%,100%,100%);fill-opacity:1;stroke-width:1;stroke-linecap:butt;stroke-linejoin:miter;stroke:rgb(0%,0%,0%);stroke-opacity:1;stroke-miterlimit:4;" d="M 204.41666 639.194054 L 204.41666 632.368396 C 201.91666 633.026291 201.833327 633.930896 200.999993 635.411159 C 201.333327 631.299317 198.41666 626.611817 195.16666 624.802607 C 191.999994 626.611817 189.16666 631.299317 189.41666 635.411159 C 188.583327 633.930896 188.499994 633.026291 185.999994 632.368396 L 185.999994 639.194054 Z M 204.41666 639.194054 " transform="matrix(0.046875,0,0,0.0475,3.34375,-20.6625)"/>
<path style="fill-rule:nonzero;fill:rgb(100%,100%,100%);fill-opacity:1;stroke-width:1;stroke-linecap:butt;stroke-linejoin:miter;stroke:rgb(0%,0%,0%);stroke-opacity:1;stroke-miterlimit:4;" d="M 98.999997 664.194053 L 98.999997 643.799317 C 98.333331 641.167738 95.999997 638.782869 94.416664 638.371685 L 94.416664 620.361817 L 98.083331 622.417738 L 102.416664 641.332211 L 102.416664 664.276289 Z M 98.999997 664.194053 " transform="matrix(0.046875,0,0,0.0475,3.34375,-20.6625)"/>
<path style="fill-rule:nonzero;fill:rgb(100%,100%,100%);fill-opacity:1;stroke-width:1;stroke-linecap:butt;stroke-linejoin:miter;stroke:rgb(0%,0%,0%);stroke-opacity:1;stroke-miterlimit:4;" d="M 98.999997 664.276289 L 98.999997 643.799317 C 98.333331 641.167738 95.999997 638.782869 94.416664 638.371685 L 94.416664 619.210502 C 96.916664 619.210502 98.083331 622.417738 98.083331 622.417738 L 102.416664 641.332211 L 102.416664 664.194053 Z M 98.999997 664.276289 " transform="matrix(0.046875,0,0,0.0475,3.34375,-20.6625)"/>
<path style="fill-rule:nonzero;fill:rgb(100%,100%,100%);fill-opacity:1;stroke-width:1;stroke-linecap:butt;stroke-linejoin:miter;stroke:rgb(0%,0%,0%);stroke-opacity:1;stroke-miterlimit:4;" d="M 96.333331 669.539447 C 97.999997 668.799316 100.499997 666.578921 100.499997 664.523 L 100.499997 638.865106 L 99.333331 636.891422 L 142.999996 636.891422 L 141.333329 638.865106 L 141.333329 664.523 C 141.416662 666.661158 142.749996 668.552605 144.666662 669.539447 Z M 96.333331 669.539447 " transform="matrix(0.046875,0,0,0.0475,3.34375,-20.6625)"/>
<path style="fill-rule:nonzero;fill:rgb(100%,100%,100%);fill-opacity:1;stroke-width:1;stroke-linecap:butt;stroke-linejoin:miter;stroke:rgb(0%,0%,0%);stroke-opacity:1;stroke-miterlimit:4;" d="M 135.833329 669.539447 C 134.083329 668.799316 131.583329 666.578921 131.583329 664.523 L 131.583329 640.180896 L 135.166663 636.809185 L 105.58333 636.809185 L 109.166664 640.180896 L 109.166664 664.523 C 109.166664 666.578921 106.666664 668.799316 104.999997 669.539447 Z M 135.833329 669.539447 " transform="matrix(0.046875,0,0,0.0475,3.34375,-20.6625)"/>
<path style="fill-rule:nonzero;fill:rgb(100%,100%,100%);fill-opacity:1;stroke-width:1;stroke-linecap:butt;stroke-linejoin:miter;stroke:rgb(0%,0%,0%);stroke-opacity:1;stroke-miterlimit:4;" d="M 131.666663 669.539447 C 129.999996 668.799316 127.416663 666.578921 127.416663 664.523 L 127.416663 642.483527 L 129.833329 639.194054 L 110.999997 639.194054 L 113.416663 642.483527 L 113.416663 664.523 C 113.416663 666.578921 110.916664 668.799316 109.08333 669.539447 Z M 131.666663 669.539447 " transform="matrix(0.046875,0,0,0.0475,3.34375,-20.6625)"/>
<path style="fill-rule:nonzero;fill:rgb(100%,100%,100%);fill-opacity:1;stroke-width:1;stroke-linecap:butt;stroke-linejoin:miter;stroke:rgb(0%,0%,0%);stroke-opacity:1;stroke-miterlimit:4;" d="M 115.999997 639.194054 L 124.916663 639.194054 L 124.916663 669.621684 L 115.916663 669.621684 Z M 115.999997 639.194054 " transform="matrix(0.046875,0,0,0.0475,3.34375,-20.6625)"/>
<path style="fill-rule:nonzero;fill:rgb(100%,100%,100%);fill-opacity:1;stroke-width:1;stroke-linecap:butt;stroke-linejoin:bevel;stroke:rgb(0%,0%,0%);stroke-opacity:1;stroke-miterlimit:4;" d="M 103.666664 647.582211 L 107.33333 647.582211 L 107.33333 664.111816 L 103.666664 664.111816 Z M 134.499996 647.582211 L 137.999996 647.582211 L 137.999996 664.111816 L 134.416663 664.111816 Z M 100.583331 619.78616 L 104.999997 619.78616 L 104.999997 636.809185 L 100.583331 636.809185 Z M 100.583331 616.578923 L 104.916664 616.578923 L 104.916664 619.78616 L 100.583331 619.78616 Z M 136.166663 623.486817 L 142.333329 623.486817 L 142.333329 636.480238 L 136.166663 636.480238 Z M 136.166663 623.486817 " transform="matrix(0.046875,0,0,0.0475,3.34375,-20.6625)"/>
<path style="fill-rule:nonzero;fill:rgb(100%,100%,100%);fill-opacity:1;stroke-width:1;stroke-linecap:butt;stroke-linejoin:miter;stroke:rgb(0%,0%,0%);stroke-opacity:1;stroke-miterlimit:4;" d="M 104.916664 636.562475 L 104.916664 607.615107 C 106.08333 607.615107 106.33333 611.891423 109.08333 611.891423 C 110.58333 611.891423 110.499997 610.082213 109.58333 608.684186 C 108.916664 607.368397 107.999997 605.72366 109.166664 602.434187 C 110.08333 604.901292 112.33333 605.72366 111.916663 604.16116 C 111.166664 601.529581 109.08333 601.03616 110.666664 596.924318 C 111.166664 600.296029 113.416663 600.213792 112.916663 598.240108 C 112.33333 595.937476 110.999997 594.868397 112.58333 591.661161 C 113.499997 595.361818 114.58333 595.197345 114.58333 592.894713 C 114.58333 589.523003 114.58333 585.904582 118.83333 584.588793 C 118.83333 584.588793 119.08333 581.628266 120.666663 581.628266 C 122.33333 581.628266 122.499996 584.588793 122.499996 584.588793 C 126.83333 585.904582 126.666663 589.60524 126.666663 592.894713 C 126.666663 595.197345 127.83333 595.361818 128.666663 591.661161 C 130.333329 594.868397 128.999996 595.937476 128.416663 598.240108 C 127.916663 600.213792 130.083329 600.296029 130.583329 596.924318 C 132.166663 601.03616 130.083329 601.529581 129.416663 604.16116 C 128.999996 605.72366 131.166663 604.901292 132.083329 602.434187 C 133.333329 605.72366 132.416663 607.368397 131.666663 608.684186 C 130.916663 610.082213 130.666663 611.891423 132.166663 611.891423 C 134.999996 611.891423 135.166663 607.697344 136.416663 607.697344 L 136.416663 636.562475 Z M 97.999997 614.687476 L 97.999997 636.809185 L 100.499997 636.809185 L 100.499997 614.687476 C 99.666664 614.194055 98.833331 614.194055 97.999997 614.687476 Z M 97.999997 614.687476 " transform="matrix(0.046875,0,0,0.0475,3.34375,-20.6625)"/>
<path style="fill-rule:nonzero;fill:rgb(100%,100%,100%);fill-opacity:1;stroke-width:1;stroke-linecap:butt;stroke-linejoin:miter;stroke:rgb(0%,0%,0%);stroke-opacity:1;stroke-miterlimit:4;" d="M 98.166664 628.996686 C 101.333331 630.559185 104.416664 632.53287 105.166664 636.809185 L 98.166664 636.809185 Z M 141.416662 622.417738 L 141.416662 636.809185 L 143.416662 636.809185 L 143.416662 622.417738 C 142.749996 622.088791 142.083329 622.088791 141.416662 622.417738 Z M 141.416662 622.417738 " transform="matrix(0.046875,0,0,0.0475,3.34375,-20.6625)"/>
<path style="fill-rule:nonzero;fill:rgb(100%,100%,100%);fill-opacity:1;stroke-width:1;stroke-linecap:butt;stroke-linejoin:miter;stroke:rgb(0%,0%,0%);stroke-opacity:1;stroke-miterlimit:4;" d="M 143.416662 628.996686 C 140.333329 630.476949 137.166662 632.286159 136.416663 636.726948 L 143.416662 636.726948 Z M 122.83333 595.279582 L 124.58333 593.799319 L 124.58333 591.825634 C 124.08333 591.825634 123.58333 592.154582 123.08333 592.812476 C 122.666663 591.496687 121.83333 590.427608 120.58333 589.769713 C 119.416663 590.345371 118.416663 591.41445 117.999997 592.73024 C 117.58333 592.072345 117.08333 591.743398 116.499997 591.661161 L 116.499997 593.717082 L 118.33333 595.279582 Z M 122.83333 595.279582 " transform="matrix(0.046875,0,0,0.0475,3.34375,-20.6625)"/>
<path style="fill-rule:nonzero;fill:rgb(100%,100%,100%);fill-opacity:1;stroke-width:1;stroke-linecap:butt;stroke-linejoin:miter;stroke:rgb(0%,0%,0%);stroke-opacity:1;stroke-miterlimit:4;" d="M 123.83333 600.213792 L 124.58333 598.322345 L 124.58333 595.773003 C 124.08333 595.773003 123.58333 596.10195 123.08333 596.759845 C 122.666663 595.526292 121.83333 594.457213 120.58333 593.799319 C 119.416663 594.374976 118.416663 595.444055 117.999997 596.677608 C 117.58333 596.10195 117.08333 595.773003 116.499997 595.773003 L 116.499997 598.322345 L 117.33333 600.213792 Z M 123.83333 600.213792 " transform="matrix(0.046875,0,0,0.0475,3.34375,-20.6625)"/>
<path style="fill-rule:nonzero;fill:rgb(100%,100%,100%);fill-opacity:1;stroke-width:1;stroke-linecap:butt;stroke-linejoin:miter;stroke:rgb(0%,0%,0%);stroke-opacity:1;stroke-miterlimit:4;" d="M 123.999996 606.792739 L 126.58333 603.503265 L 126.58333 600.296029 C 125.749996 600.296029 124.999996 600.871687 124.416663 601.940766 C 123.666663 599.638134 122.416663 599.22695 120.58333 598.075634 C 118.666663 599.062476 117.416663 599.638134 116.83333 601.776292 C 115.999997 600.707213 115.499997 600.378266 114.499997 600.296029 L 114.499997 603.503265 L 117.166663 606.792739 Z M 123.999996 606.792739 " transform="matrix(0.046875,0,0,0.0475,3.34375,-20.6625)"/>
<path style="fill-rule:nonzero;fill:rgb(100%,100%,100%);fill-opacity:1;stroke-width:1;stroke-linecap:butt;stroke-linejoin:miter;stroke:rgb(0%,0%,0%);stroke-opacity:1;stroke-miterlimit:4;" d="M 124.666663 613.289449 C 124.666663 613.289449 127.916663 610.575634 127.999996 609.095371 L 127.999996 605.559186 C 126.83333 605.72366 125.666663 605.970371 124.83333 607.532871 C 123.999996 604.572344 122.83333 603.832213 120.58333 602.516423 C 118.33333 603.832213 117.08333 604.572344 116.416663 607.532871 C 115.416663 605.970371 114.416663 605.72366 113.08333 605.47695 L 113.08333 609.095371 C 113.916663 610.65787 115.08333 612.138134 116.416663 613.289449 Z M 124.666663 613.289449 " transform="matrix(0.046875,0,0,0.0475,3.34375,-20.6625)"/>
<path style="fill-rule:nonzero;fill:rgb(100%,100%,100%);fill-opacity:1;stroke-width:1;stroke-linecap:butt;stroke-linejoin:miter;stroke:rgb(0%,0%,0%);stroke-opacity:1;stroke-miterlimit:4;" d="M 125.999996 625.296028 C 125.999996 625.296028 130.416663 620.608528 130.499996 618.717081 L 130.499996 613.289449 C 128.833329 613.453923 127.33333 614.605239 126.08333 616.90787 C 125.249996 612.467081 123.416663 609.259844 120.58333 607.121686 C 117.58333 609.259844 115.999997 612.384844 114.999997 616.90787 C 113.749997 614.605239 112.33333 613.453923 110.666664 613.289449 L 110.666664 618.717081 C 110.999997 620.608528 115.08333 625.296028 115.08333 625.296028 Z M 125.999996 625.296028 " transform="matrix(0.046875,0,0,0.0475,3.34375,-20.6625)"/>
<path style="fill-rule:nonzero;fill:rgb(100%,100%,100%);fill-opacity:1;stroke-width:1;stroke-linecap:butt;stroke-linejoin:miter;stroke:rgb(0%,0%,0%);stroke-opacity:1;stroke-miterlimit:4;" d="M 125.999996 632.368396 C 125.999996 632.368396 129.666663 628.667738 130.499996 627.105238 L 130.499996 621.677607 C 128.833329 621.924317 127.33333 623.075633 126.08333 625.213791 C 125.58333 621.513133 123.58333 618.22366 120.58333 616.003265 C 117.58333 618.22366 115.999997 620.690765 114.999997 625.213791 C 113.749997 623.075633 112.33333 621.924317 110.666664 621.677607 L 110.666664 627.105238 C 111.666664 628.667738 115.08333 632.368396 115.08333 632.368396 Z M 125.999996 632.368396 " transform="matrix(0.046875,0,0,0.0475,3.34375,-20.6625)"/>
<path style="fill-rule:nonzero;fill:rgb(100%,100%,100%);fill-opacity:1;stroke-width:1;stroke-linecap:butt;stroke-linejoin:miter;stroke:rgb(0%,0%,0%);stroke-opacity:1;stroke-miterlimit:4;" d="M 127.499996 636.562475 C 126.499996 631.874975 125.499996 628.421028 120.416663 624.884844 C 115.166663 628.421028 114.33333 631.874975 113.166663 636.562475 Z M 127.499996 636.562475 " transform="matrix(0.046875,0,0,0.0475,3.34375,-20.6625)"/>
<path style="fill-rule:nonzero;fill:rgb(100%,100%,100%);fill-opacity:1;stroke-width:1;stroke-linecap:butt;stroke-linejoin:miter;stroke:rgb(0%,0%,0%);stroke-opacity:1;stroke-miterlimit:4;" d="M 130.166663 639.194054 L 130.166663 632.368396 C 127.83333 633.437475 125.666663 634.671027 124.916663 636.233527 C 124.08333 632.368396 122.416663 630.805896 120.33333 628.503264 C 118.166663 630.805896 116.83333 632.53287 115.916663 636.233527 C 115.08333 634.671027 112.999997 633.273001 110.666664 632.368396 L 110.666664 639.194054 Z M 130.166663 639.194054 " transform="matrix(0.046875,0,0,0.0475,3.34375,-20.6625)"/>
<path style="fill-rule:nonzero;fill:rgb(100%,100%,100%);fill-opacity:1;stroke-width:1;stroke-linecap:butt;stroke-linejoin:miter;stroke:rgb(0%,0%,0%);stroke-opacity:1;stroke-miterlimit:4;" d="M 99.033356 664.194053 L 99.033356 643.799317 C 98.283356 641.167738 96.033356 638.782869 94.366689 638.371685 L 94.366689 620.361817 L 98.116689 622.417738 L 102.366689 641.332211 L 102.366689 664.276289 Z M 99.033356 664.194053 " transform="matrix(-0.046875,0,0,0.0475,21.657814,-20.6625)"/>
<path style="fill-rule:nonzero;fill:rgb(100%,100%,100%);fill-opacity:1;stroke-width:1;stroke-linecap:butt;stroke-linejoin:miter;stroke:rgb(0%,0%,0%);stroke-opacity:1;stroke-miterlimit:4;" d="M 99.033356 664.276289 L 99.033356 643.799317 C 98.283356 641.167738 96.033356 638.782869 94.366689 638.371685 L 94.366689 619.210502 C 96.866689 619.210502 98.116689 622.417738 98.116689 622.417738 L 102.366689 641.332211 L 102.366689 664.194053 Z M 99.033356 664.276289 " transform="matrix(-0.046875,0,0,0.0475,21.657814,-20.6625)"/>
<path style="fill-rule:nonzero;fill:rgb(100%,100%,100%);fill-opacity:1;stroke-width:1;stroke-linecap:butt;stroke-linejoin:miter;stroke:rgb(0%,0%,0%);stroke-opacity:1;stroke-miterlimit:4;" d="M 96.283356 669.539447 C 98.033356 668.799316 100.533356 666.578921 100.533356 664.523 L 100.533356 638.865106 L 99.283356 636.891422 L 143.033354 636.891422 L 141.283354 638.865106 L 141.283354 664.523 C 141.450021 666.661158 142.783354 668.552605 144.700021 669.539447 Z M 96.283356 669.539447 " transform="matrix(-0.046875,0,0,0.0475,21.657814,-20.6625)"/>
<path style="fill-rule:nonzero;fill:rgb(100%,100%,100%);fill-opacity:1;stroke-width:1;stroke-linecap:butt;stroke-linejoin:miter;stroke:rgb(0%,0%,0%);stroke-opacity:1;stroke-miterlimit:4;" d="M 135.783354 669.539447 C 134.116688 668.799316 131.616688 666.578921 131.616688 664.523 L 131.616688 640.180896 L 135.200021 636.809185 L 105.616689 636.809185 L 109.200022 640.180896 L 109.200022 664.523 C 109.200022 666.578921 106.700022 668.799316 105.033356 669.539447 Z M 135.783354 669.539447 " transform="matrix(-0.046875,0,0,0.0475,21.657814,-20.6625)"/>
<path style="fill-rule:nonzero;fill:rgb(100%,100%,100%);fill-opacity:1;stroke-width:1;stroke-linecap:butt;stroke-linejoin:miter;stroke:rgb(0%,0%,0%);stroke-opacity:1;stroke-miterlimit:4;" d="M 131.700021 669.539447 C 130.033355 668.799316 127.366688 666.578921 127.366688 664.523 L 127.366688 642.483527 L 129.783355 639.194054 L 111.033355 639.194054 L 113.366689 642.483527 L 113.366689 664.523 C 113.366689 666.578921 110.866689 668.799316 109.116689 669.539447 Z M 131.700021 669.539447 " transform="matrix(-0.046875,0,0,0.0475,21.657814,-20.6625)"/>
<path style="fill-rule:nonzero;fill:rgb(100%,100%,100%);fill-opacity:1;stroke-width:1;stroke-linecap:butt;stroke-linejoin:miter;stroke:rgb(0%,0%,0%);stroke-opacity:1;stroke-miterlimit:4;" d="M 116.033355 639.194054 L 124.866688 639.194054 L 124.866688 669.621684 L 115.866689 669.621684 Z M 116.033355 639.194054 " transform="matrix(-0.046875,0,0,0.0475,21.657814,-20.6625)"/>
<path style="fill-rule:nonzero;fill:rgb(100%,100%,100%);fill-opacity:1;stroke-width:1;stroke-linecap:butt;stroke-linejoin:bevel;stroke:rgb(0%,0%,0%);stroke-opacity:1;stroke-miterlimit:4;" d="M 103.700022 647.582211 L 107.283356 647.582211 L 107.283356 664.111816 L 103.700022 664.111816 Z M 134.533354 647.582211 L 138.033354 647.582211 L 138.033354 664.111816 L 134.366688 664.111816 Z M 100.616689 619.78616 L 105.033356 619.78616 L 105.033356 636.809185 L 100.616689 636.809185 Z M 100.616689 616.578923 L 104.866689 616.578923 L 104.866689 619.78616 L 100.616689 619.78616 Z M 136.200021 623.486817 L 142.283354 623.486817 L 142.283354 636.480238 L 136.200021 636.480238 Z M 136.200021 623.486817 " transform="matrix(-0.046875,0,0,0.0475,21.657814,-20.6625)"/>
<path style="fill-rule:nonzero;fill:rgb(100%,100%,100%);fill-opacity:1;stroke-width:1;stroke-linecap:butt;stroke-linejoin:miter;stroke:rgb(0%,0%,0%);stroke-opacity:1;stroke-miterlimit:4;" d="M 104.866689 636.562475 L 104.866689 607.615107 C 106.116689 607.615107 106.283356 611.891423 109.116689 611.891423 C 110.616689 611.891423 110.533355 610.082213 109.616689 608.684186 C 108.866689 607.368397 108.033356 605.72366 109.200022 602.434187 C 110.116689 604.901292 112.283355 605.72366 111.866689 604.16116 C 111.200022 601.529581 109.116689 601.03616 110.700022 596.924318 C 111.200022 600.296029 113.366689 600.213792 112.866689 598.240108 C 112.283355 595.937476 111.033355 594.868397 112.616689 591.661161 C 113.533355 595.361818 114.616689 595.197345 114.616689 592.894713 C 114.616689 589.523003 114.616689 585.904582 118.783355 584.588793 C 118.783355 584.588793 119.116688 581.628266 120.700022 581.628266 C 122.283355 581.628266 122.533355 584.588793 122.533355 584.588793 C 126.783355 585.904582 126.700021 589.60524 126.700021 592.894713 C 126.700021 595.197345 127.783355 595.361818 128.700021 591.661161 C 130.283355 594.868397 129.033355 595.937476 128.366688 598.240108 C 127.866688 600.213792 130.116688 600.296029 130.616688 596.924318 C 132.200021 601.03616 130.116688 601.529581 129.366688 604.16116 C 129.033355 605.72366 131.200021 604.901292 132.116688 602.434187 C 133.283354 605.72366 132.366688 607.368397 131.700021 608.684186 C 130.866688 610.082213 130.700021 611.891423 132.200021 611.891423 C 135.033354 611.891423 135.200021 607.697344 136.366688 607.697344 L 136.366688 636.562475 Z M 98.033356 614.687476 L 98.033356 636.809185 L 100.533356 636.809185 L 100.533356 614.687476 C 99.616689 614.194055 98.783356 614.194055 98.033356 614.687476 Z M 98.033356 614.687476 " transform="matrix(-0.046875,0,0,0.0475,21.657814,-20.6625)"/>
<path style="fill-rule:nonzero;fill:rgb(100%,100%,100%);fill-opacity:1;stroke-width:1;stroke-linecap:butt;stroke-linejoin:miter;stroke:rgb(0%,0%,0%);stroke-opacity:1;stroke-miterlimit:4;" d="M 98.200023 628.996686 C 101.283356 630.559185 104.366689 632.53287 105.200022 636.809185 L 98.200023 636.809185 Z M 141.366688 622.417738 L 141.366688 636.809185 L 143.366687 636.809185 L 143.366687 622.417738 C 142.700021 622.088791 142.033354 622.088791 141.366688 622.417738 Z M 141.366688 622.417738 " transform="matrix(-0.046875,0,0,0.0475,21.657814,-20.6625)"/>
<path style="fill-rule:nonzero;fill:rgb(100%,100%,100%);fill-opacity:1;stroke-width:1;stroke-linecap:butt;stroke-linejoin:miter;stroke:rgb(0%,0%,0%);stroke-opacity:1;stroke-miterlimit:4;" d="M 143.366687 628.996686 C 140.283354 630.476949 137.200021 632.286159 136.366688 636.726948 L 143.366687 636.726948 Z M 122.783355 595.279582 L 124.616688 593.799319 L 124.616688 591.825634 C 124.033355 591.825634 123.533355 592.154582 123.116688 592.812476 C 122.700022 591.496687 121.783355 590.427608 120.616688 589.769713 C 119.366688 590.345371 118.450022 591.41445 118.033355 592.73024 C 117.616688 592.072345 117.116688 591.743398 116.533355 591.661161 L 116.533355 593.717082 L 118.283355 595.279582 Z M 122.783355 595.279582 " transform="matrix(-0.046875,0,0,0.0475,21.657814,-20.6625)"/>
<path style="fill-rule:nonzero;fill:rgb(100%,100%,100%);fill-opacity:1;stroke-width:1;stroke-linecap:butt;stroke-linejoin:miter;stroke:rgb(0%,0%,0%);stroke-opacity:1;stroke-miterlimit:4;" d="M 123.783355 600.213792 L 124.616688 598.322345 L 124.616688 595.773003 C 124.033355 595.773003 123.533355 596.10195 123.116688 596.759845 C 122.700022 595.526292 121.783355 594.457213 120.616688 593.799319 C 119.366688 594.374976 118.450022 595.444055 118.033355 596.677608 C 117.616688 596.10195 117.116688 595.773003 116.533355 595.773003 L 116.533355 598.322345 L 117.283355 600.213792 Z M 123.783355 600.213792 " transform="matrix(-0.046875,0,0,0.0475,21.657814,-20.6625)"/>
<path style="fill-rule:nonzero;fill:rgb(100%,100%,100%);fill-opacity:1;stroke-width:1;stroke-linecap:butt;stroke-linejoin:miter;stroke:rgb(0%,0%,0%);stroke-opacity:1;stroke-miterlimit:4;" d="M 124.033355 606.792739 L 126.616688 603.503265 L 126.616688 600.296029 C 125.700021 600.296029 125.033355 600.871687 124.366688 601.940766 C 123.700022 599.638134 122.366688 599.22695 120.616688 598.075634 C 118.700022 599.062476 117.366688 599.638134 116.783355 601.776292 C 116.033355 600.707213 115.533355 600.378266 114.533355 600.296029 L 114.533355 603.503265 L 117.200022 606.792739 Z M 124.033355 606.792739 " transform="matrix(-0.046875,0,0,0.0475,21.657814,-20.6625)"/>
<path style="fill-rule:nonzero;fill:rgb(100%,100%,100%);fill-opacity:1;stroke-width:1;stroke-linecap:butt;stroke-linejoin:miter;stroke:rgb(0%,0%,0%);stroke-opacity:1;stroke-miterlimit:4;" d="M 124.700022 613.289449 C 124.700022 613.289449 127.866688 610.575634 128.033355 609.095371 L 128.033355 605.559186 C 126.783355 605.72366 125.700021 605.970371 124.783355 607.532871 C 124.033355 604.572344 122.783355 603.832213 120.616688 602.516423 C 118.283355 603.832213 117.116688 604.572344 116.366689 607.532871 C 115.366689 605.970371 114.366689 605.72366 113.116689 605.47695 L 113.116689 609.095371 C 113.950022 610.65787 115.033355 612.138134 116.366689 613.289449 Z M 124.700022 613.289449 " transform="matrix(-0.046875,0,0,0.0475,21.657814,-20.6625)"/>
<path style="fill-rule:nonzero;fill:rgb(100%,100%,100%);fill-opacity:1;stroke-width:1;stroke-linecap:butt;stroke-linejoin:miter;stroke:rgb(0%,0%,0%);stroke-opacity:1;stroke-miterlimit:4;" d="M 126.033355 625.296028 C 126.033355 625.296028 130.366688 620.608528 130.533355 618.717081 L 130.533355 613.289449 C 128.866688 613.453923 127.366688 614.605239 126.116688 616.90787 C 125.200021 612.467081 123.366688 609.259844 120.616688 607.121686 C 117.616688 609.259844 116.033355 612.384844 115.033355 616.90787 C 113.700022 614.605239 112.283355 613.453923 110.700022 613.289449 L 110.700022 618.717081 C 111.033355 620.608528 115.116689 625.296028 115.116689 625.296028 Z M 126.033355 625.296028 " transform="matrix(-0.046875,0,0,0.0475,21.657814,-20.6625)"/>
<path style="fill-rule:nonzero;fill:rgb(100%,100%,100%);fill-opacity:1;stroke-width:1;stroke-linecap:butt;stroke-linejoin:miter;stroke:rgb(0%,0%,0%);stroke-opacity:1;stroke-miterlimit:4;" d="M 126.033355 632.368396 C 126.033355 632.368396 129.700021 628.667738 130.533355 627.105238 L 130.533355 621.677607 C 128.866688 621.924317 127.366688 623.075633 126.116688 625.213791 C 125.533355 621.513133 123.616688 618.22366 120.616688 616.003265 C 117.616688 618.22366 116.033355 620.690765 115.033355 625.213791 C 113.700022 623.075633 112.283355 621.924317 110.700022 621.677607 L 110.700022 627.105238 C 111.700022 628.667738 115.116689 632.368396 115.116689 632.368396 Z M 126.033355 632.368396 " transform="matrix(-0.046875,0,0,0.0475,21.657814,-20.6625)"/>
<path style="fill-rule:nonzero;fill:rgb(100%,100%,100%);fill-opacity:1;stroke-width:1;stroke-linecap:butt;stroke-linejoin:miter;stroke:rgb(0%,0%,0%);stroke-opacity:1;stroke-miterlimit:4;" d="M 127.533355 636.562475 C 126.533355 631.874975 125.533355 628.421028 120.366688 624.884844 C 115.200022 628.421028 114.283355 631.874975 113.200022 636.562475 Z M 127.533355 636.562475 " transform="matrix(-0.046875,0,0,0.0475,21.657814,-20.6625)"/>
<path style="fill-rule:nonzero;fill:rgb(100%,100%,100%);fill-opacity:1;stroke-width:1;stroke-linecap:butt;stroke-linejoin:miter;stroke:rgb(0%,0%,0%);stroke-opacity:1;stroke-miterlimit:4;" d="M 130.200021 639.194054 L 130.200021 632.368396 C 127.783355 633.437475 125.700021 634.671027 124.866688 636.233527 C 124.116688 632.368396 122.366688 630.805896 120.283355 628.503264 C 118.200022 630.805896 116.783355 632.53287 115.866689 636.233527 C 115.116689 634.671027 113.033355 633.273001 110.700022 632.368396 L 110.700022 639.194054 Z M 130.200021 639.194054 " transform="matrix(-0.046875,0,0,0.0475,21.657814,-20.6625)"/>
<path style="fill-rule:nonzero;fill:rgb(100%,100%,100%);fill-opacity:1;stroke-width:1;stroke-linecap:butt;stroke-linejoin:miter;stroke:rgb(0%,0%,0%);stroke-opacity:1;stroke-miterlimit:4;" d="M 72.666665 694.292736 L 317.999989 694.292736 L 317.999989 706.792735 L 72.666665 706.792735 Z M 66.166665 706.792735 L 324.499988 706.792735 L 324.499988 719.292735 L 66.166665 719.292735 Z M 85.583331 675.460499 L 304.999989 675.460499 L 304.999989 683.601947 L 85.583331 683.601947 Z M 85.583331 675.460499 " transform="matrix(0.046875,0,0,0.0475,3.34375,-20.6625)"/>
<path style="fill-rule:nonzero;fill:rgb(100%,100%,100%);fill-opacity:1;stroke-width:1;stroke-linecap:butt;stroke-linejoin:miter;stroke:rgb(0%,0%,0%);stroke-opacity:1;stroke-miterlimit:4;" d="M 79.166665 683.601947 L 311.583322 683.601947 L 311.583322 694.210499 L 79.166665 694.210499 Z M 89.416664 669.292737 L 301.416656 669.292737 L 301.416656 675.460499 L 89.416664 675.460499 Z M 89.416664 669.292737 " transform="matrix(0.046875,0,0,0.0475,3.34375,-20.6625)"/>
<path style="fill-rule:nonzero;fill:rgb(100%,100%,100%);fill-opacity:1;stroke-width:1;stroke-linecap:butt;stroke-linejoin:miter;stroke:rgb(0%,0%,0%);stroke-opacity:1;stroke-miterlimit:4;" d="M 112.416663 669.292737 L 128.416663 669.292737 L 128.416663 719.292735 L 112.416663 719.292735 Z M 112.416663 669.292737 " transform="matrix(0.046875,0,0,0.0475,3.34375,-20.6625)"/>
<path style="fill-rule:nonzero;fill:rgb(100%,100%,100%);fill-opacity:1;stroke-width:1;stroke-linecap:butt;stroke-linejoin:miter;stroke:rgb(0%,0%,0%);stroke-opacity:1;stroke-miterlimit:4;" d="M 115.999997 669.292737 L 124.916663 669.292737 L 124.916663 719.292735 L 115.916663 719.292735 Z M 186.999994 669.292737 L 202.999993 669.292737 L 202.999993 719.292735 L 186.999994 719.292735 Z M 186.999994 669.292737 " transform="matrix(0.046875,0,0,0.0475,3.34375,-20.6625)"/>
<path style="fill-rule:nonzero;fill:rgb(100%,100%,100%);fill-opacity:1;stroke-width:1;stroke-linecap:butt;stroke-linejoin:miter;stroke:rgb(0%,0%,0%);stroke-opacity:1;stroke-miterlimit:4;" d="M 190.66666 669.292737 L 199.66666 669.292737 L 199.66666 719.292735 L 190.66666 719.292735 Z M 262.166658 669.292737 L 278.166657 669.292737 L 278.166657 719.292735 L 262.166658 719.292735 Z M 262.166658 669.292737 " transform="matrix(0.046875,0,0,0.0475,3.34375,-20.6625)"/>
<path style="fill-rule:nonzero;fill:rgb(100%,100%,100%);fill-opacity:1;stroke-width:1;stroke-linecap:butt;stroke-linejoin:miter;stroke:rgb(0%,0%,0%);stroke-opacity:1;stroke-miterlimit:4;" d="M 265.666657 669.292737 L 274.666657 669.292737 L 274.666657 719.292735 L 265.666657 719.292735 Z M 265.666657 669.292737 " transform="matrix(0.046875,0,0,0.0475,3.34375,-20.6625)"/>
<path style="fill:none;stroke-width:1;stroke-linecap:butt;stroke-linejoin:miter;stroke:rgb(0%,0%,0%);stroke-opacity:1;stroke-miterlimit:4;" d="M 98.999997 664.194053 L 291.99999 664.194053 M 115.83333 712.960498 L 124.999996 712.960498 M 115.83333 706.710498 L 124.999996 706.710498 M 115.83333 700.460498 L 124.999996 700.460498 M 115.83333 694.210499 L 124.999996 694.210499 M 115.83333 687.960499 L 124.999996 687.960499 M 115.83333 681.710499 L 124.999996 681.710499 M 115.83333 675.460499 L 124.999996 675.460499 M 190.833327 712.960498 L 199.41666 712.960498 M 190.833327 706.710498 L 199.41666 706.710498 M 190.833327 700.460498 L 199.41666 700.460498 M 190.833327 694.210499 L 199.41666 694.210499 M 190.833327 687.960499 L 199.41666 687.960499 M 190.833327 681.710499 L 199.41666 681.710499 M 190.833327 675.460499 L 199.41666 675.460499 M 265.583324 712.960498 L 274.833324 712.960498 M 265.583324 706.710498 L 274.833324 706.710498 M 265.583324 700.460498 L 274.833324 700.460498 M 265.583324 694.210499 L 274.833324 694.210499 M 265.583324 687.960499 L 274.833324 687.960499 M 265.583324 681.710499 L 274.833324 681.710499 M 265.583324 675.460499 L 274.833324 675.460499 " transform="matrix(0.046875,0,0,0.0475,3.34375,-20.6625)"/>
</g>
</svg>
