<svg xmlns="http://www.w3.org/2000/svg" width="25" height="px" viewBox="0 0 25 19"><defs><clipPath id="a"><path d="M.004 0H25v12H.004Zm0 0"/></clipPath><clipPath id="b"><path d="M.004 11H25v8H.004Zm0 0"/></clipPath><clipPath id="c"><path d="M.004 12H25v7H.004Zm0 0"/></clipPath><clipPath id="d"><path d="M.004 9H25v4H.004Zm0 0"/></clipPath></defs><g clip-path="url(#a)"><path d="M-2.852 0h30.606v11.375H-2.852Zm0 0" style="stroke:none;fill-rule:evenodd;fill:#e73e2d;fill-opacity:1"/></g><path d="M204.267 282.105c-19.414-15.158-55.574-10-61.547-51.263 27.733 21.474 22.72-1.263 64 19.263Zm0 0" style="fill-rule:evenodd;fill:#fec74a;fill-opacity:1;stroke-width:1.7;stroke-linecap:butt;stroke-linejoin:miter;stroke:#d8aa3f;stroke-opacity:1;stroke-miterlimit:4" transform="matrix(.03662 0 0 .0371 3.164 0)"/><path d="M209.493 263.368c-13.866-20.42-50.026-26.526-42.986-67.684 19.946 28.948 21.973 5.684 55.146 37.895Zm0 0" style="fill-rule:evenodd;fill:#fec74a;fill-opacity:1;stroke-width:1.7;stroke-linecap:butt;stroke-linejoin:miter;stroke:#d8aa3f;stroke-opacity:1;stroke-miterlimit:4" transform="matrix(.03662 0 0 .0371 3.164 0)"/><path d="M215.787 250c-5.014-24.105-35.947-43.579-13.76-79.053 7.146 34.421 17.92 13.895 36.373 56.21Zm0 0" style="fill-rule:evenodd;fill:#fec74a;fill-opacity:1;stroke-width:1.7;stroke-linecap:butt;stroke-linejoin:miter;stroke:#d8aa3f;stroke-opacity:1;stroke-miterlimit:4" transform="matrix(.03662 0 0 .0371 3.164 0)"/><path d="M230.293 237.579c2.667-24.526-20.8-52.526 11.094-79.368-3.627 34.842 13.013 18.736 17.493 64.631Zm0 0" style="fill-rule:evenodd;fill:#fec74a;fill-opacity:1;stroke-width:1.7;stroke-linecap:butt;stroke-linejoin:miter;stroke:#d8aa3f;stroke-opacity:1;stroke-miterlimit:4" transform="matrix(.03662 0 0 .0371 3.164 0)"/><path d="M243.307 227.684c12.373-21.263 2.453-56.526 42.56-67.895-17.6 30.316 4.266 22.316-10.454 66Zm0 0" style="fill-rule:evenodd;fill:#fec74a;fill-opacity:1;stroke-width:1.7;stroke-linecap:butt;stroke-linejoin:miter;stroke:#d8aa3f;stroke-opacity:1;stroke-miterlimit:4" transform="matrix(.03662 0 0 .0371 3.164 0)"/><path d="M261.973 230.316c18.667-16.21 20.48-52.842 62.08-50.948-26.346 23.264-3.093 22.527-31.04 59.474Zm0 0" style="fill-rule:evenodd;fill:#fec74a;fill-opacity:1;stroke-width:1.7;stroke-linecap:butt;stroke-linejoin:miter;stroke:#d8aa3f;stroke-opacity:1;stroke-miterlimit:4" transform="matrix(.03662 0 0 .0371 3.164 0)"/><path d="M278.613 239.895c22.507-10.106 34.88-44.527 74.134-30.527-32 14.527-9.494 20.737-47.04 47.685Zm0 0" style="fill-rule:evenodd;fill:#fec74a;fill-opacity:1;stroke-width:1.7;stroke-linecap:butt;stroke-linejoin:miter;stroke:#d8aa3f;stroke-opacity:1;stroke-miterlimit:4" transform="matrix(.03662 0 0 .0371 3.164 0)"/><path d="M292.48 254.947c24.427-3.368 45.973-32.947 79.68-8.315-34.667 4.842-14.933 17.052-58.453 32.42Zm0 0" style="fill-rule:evenodd;fill:#fec74a;fill-opacity:1;stroke-width:1.7;stroke-linecap:butt;stroke-linejoin:miter;stroke:#d8aa3f;stroke-opacity:1;stroke-miterlimit:4" transform="matrix(.03662 0 0 .0371 3.164 0)"/><path d="m379.52 259.579-112.107 2.526 4.694 30.21Zm0 0" style="fill-rule:evenodd;fill:#fec74a;fill-opacity:1;stroke-width:1.7;stroke-linecap:butt;stroke-linejoin:miter;stroke:#d8aa3f;stroke-opacity:1;stroke-miterlimit:4" transform="matrix(.03662 0 0 .0371 3.164 0)"/><path d="M362.987 218.421 259.2 258.316l17.28 33.263Zm0 0" style="fill-rule:evenodd;fill:#fec74a;fill-opacity:1;stroke-width:1.7;stroke-linecap:butt;stroke-linejoin:miter;stroke:#d8aa3f;stroke-opacity:1;stroke-miterlimit:4" transform="matrix(.03662 0 0 .0371 3.164 0)"/><path d="m280.64 280.737 53.653-97.684-82.346 76.736Zm0 0" style="fill-rule:evenodd;fill:#fec74a;fill-opacity:1;stroke-width:1.7;stroke-linecap:butt;stroke-linejoin:miter;stroke:#d8aa3f;stroke-opacity:1;stroke-miterlimit:4" transform="matrix(.03662 0 0 .0371 3.164 0)"/><path d="m279.467 272.632 17.28-109.474-53.867 97.263Zm0 0" style="fill-rule:evenodd;fill:#fec74a;fill-opacity:1;stroke-width:1.7;stroke-linecap:butt;stroke-linejoin:miter;stroke:#d8aa3f;stroke-opacity:1;stroke-miterlimit:4" transform="matrix(.03662 0 0 .0371 3.164 0)"/><path d="m272.96 263.684-17.92-110.21-20.053 110.737Zm0 0" style="fill-rule:evenodd;fill:#fec74a;fill-opacity:1;stroke-width:1.7;stroke-linecap:butt;stroke-linejoin:miter;stroke:#d8aa3f;stroke-opacity:1;stroke-miterlimit:4" transform="matrix(.03662 0 0 .0371 3.164 0)"/><path d="m263.68 254.316-52.267-92 19.947 111.79Zm0 0" style="fill-rule:evenodd;fill:#fec74a;fill-opacity:1;stroke-width:1.7;stroke-linecap:butt;stroke-linejoin:miter;stroke:#d8aa3f;stroke-opacity:1;stroke-miterlimit:4" transform="matrix(.03662 0 0 .0371 3.164 0)"/><path d="m255.573 253.579-81.066-68.526 57.6 98Zm0 0" style="fill-rule:evenodd;fill:#fec74a;fill-opacity:1;stroke-width:1.7;stroke-linecap:butt;stroke-linejoin:miter;stroke:#d8aa3f;stroke-opacity:1;stroke-miterlimit:4" transform="matrix(.03662 0 0 .0371 3.164 0)"/><path d="m146.027 218.947 86.933 71.895 13.44-37.684Zm0 0" style="fill-rule:evenodd;fill:#fec74a;fill-opacity:1;stroke-width:1.7;stroke-linecap:butt;stroke-linejoin:miter;stroke:#d8aa3f;stroke-opacity:1;stroke-miterlimit:4" transform="matrix(.03662 0 0 .0371 3.164 0)"/><path d="m232.107 260.947-102.294-1.579 101.867 34Zm0 0" style="fill-rule:evenodd;fill:#fec74a;fill-opacity:1;stroke-width:1.7;stroke-linecap:butt;stroke-linejoin:miter;stroke:#d8aa3f;stroke-opacity:1;stroke-miterlimit:4" transform="matrix(.03662 0 0 .0371 3.164 0)"/><path d="M315.093 279.158c.96 22.526-10.56 43.79-29.973 55.263-19.307 11.579-43.413 11.579-62.827 0-19.306-11.474-30.826-32.737-29.866-55.263 1.28-32.842 28.373-58.842 61.333-58.842s60.053 26 61.333 58.842Zm0 0" style="fill-rule:evenodd;fill:#fec74a;fill-opacity:1;stroke-width:1.7;stroke-linecap:butt;stroke-linejoin:miter;stroke:#d8aa3f;stroke-opacity:1;stroke-miterlimit:4" transform="matrix(.03662 0 0 .0371 3.164 0)"/><g clip-path="url(#b)"><path d="M-2.883 11.258h30.758V19H-2.887Zm0 0" style="stroke:none;fill-rule:evenodd;fill:#005989;fill-opacity:1"/></g><g clip-path="url(#c)"><path d="M-2.898 16.848c.57.265 1.39.937 2.27.937 1.464-.012 1.5-1.015 2.987-.969 1.489.04 1.22 1.102 3.23 1.098 1.661-.008 2.196-1.289 3.634-1.137 1.058-.054 1.492 1.215 3.12 1.23 1.692.04 2.313-1.382 3.372-1.265 1.133 0 1.5 1.145 3.086 1.153 2.023.011 2.379-1.188 3.637-1.114.902-.02 1.613.88 2.93.903 1.046.015 1.929-.79 2.527-1.079l.027-1.363c-.625.23-1.555 1.004-2.48 1.012-1.34.05-2.165-.89-3.094-.879-1.114.012-1.559 1.16-3.446 1.16-1.726 0-2.12-1.16-3.234-1.16-1.09.008-1.422 1.262-3.309 1.238-1.539-.02-2.136-1.199-3.222-1.187-1.153 0-2.344 1.148-3.625 1.09-1.758-.075-2.145-1.09-3.297-1.09-.86 0-1.793.949-2.832.965-1.031.02-2.192-.946-2.297-.965Zm0-2.707c.57.27 1.39.941 2.27.941 1.464-.012 1.5-1.02 2.987-.973 1.489.036 1.22 1.102 3.23 1.094 1.661 0 2.196-1.285 3.634-1.133 1.058-.054 1.492 1.215 3.12 1.23 1.692.036 2.313-1.382 3.372-1.26 1.133 0 1.5 1.14 3.086 1.148 2.023.011 2.379-1.188 3.637-1.114.902-.015 1.613.88 2.93.903 1.046.02 1.929-.786 2.527-1.075l.027-1.367c-.625.235-1.555 1.004-2.48 1.012-1.34.05-2.165-.89-3.094-.879-1.114.012-1.559 1.164-3.446 1.164-1.726 0-2.12-1.164-3.234-1.164-1.09.008-1.422 1.262-3.309 1.242-1.539-.02-2.136-1.2-3.222-1.187-1.153 0-2.344 1.14-3.625 1.086-1.758-.075-2.145-1.09-3.297-1.09-.86 0-1.793.953-2.832.969-1.035.011-2.192-.95-2.297-.965l.012 1.418Zm0 0" style="stroke:none;fill-rule:evenodd;fill:#fff;fill-opacity:1"/></g><g clip-path="url(#d)"><path d="M-2.898 11.469c.57.265 1.39.933 2.265.933 1.465-.007 1.5-1.015 2.988-.968 1.485.035 1.215 1.097 3.227 1.093 1.656-.004 2.195-1.285 3.625-1.132 1.063-.055 1.492 1.214 3.125 1.23 1.688.035 2.305-1.383 3.367-1.266 1.13 0 1.5 1.145 3.082 1.149 2.016.012 2.371-1.188 3.633-1.113.898-.016 1.61.882 2.926.902 1.05.02 1.93-.785 2.523-1.074l.028-1.368c-.621.239-1.551 1.008-2.48 1.016-1.333.05-2.161-.887-3.09-.883-1.11.012-1.551 1.164-3.442 1.164-1.723 0-2.117-1.164-3.23-1.164-1.086.012-1.422 1.262-3.301 1.242-1.536-.02-2.133-1.195-3.223-1.187-1.152 0-2.344 1.145-3.617 1.09-1.762-.074-2.14-1.09-3.297-1.09-.86 0-1.79.95-2.824.965-1.035.015-2.192-.945-2.301-.965l.016 1.422Zm0 0" style="stroke:none;fill-rule:evenodd;fill:#fff;fill-opacity:1"/></g><path d="M136.747 76c61.013-4.21 50.026-9.368 74.56-13.368 31.04 4.315 34.453 22.947 51.84 34.42 0 0-6.507 22-27.734 18.948-2.88-8.842 10.134-11.579-27.52-34.632-21.973-1.263-61.333 3.895-71.04-5.368Zm189.333 33.895-43.947 1.79v10.947c29.654.947 34.987-3.053 43.947-12.737Zm0 0" style="fill-rule:evenodd;fill:#ffc84b;fill-opacity:1;stroke-width:1.8;stroke-linecap:butt;stroke-linejoin:miter;stroke:#d8aa3f;stroke-opacity:1;stroke-miterlimit:4" transform="matrix(.03662 0 0 .0371 3.164 0)"/><path d="M174.827 108c7.68-3.895 11.52-2.316 18.133-2.526 4.587 8.315 8.853 9.052 18.88 10 8.96 13.263 23.787 21.368 39.893 21.79 29.867-.738 39.36-21.685 59.52-24h21.12c-3.52-6-6.293-9.475-13.973-9.896-15.787-.736-36.16-.42-53.973 3.58l-25.174 6.315c-7.36-3.579-25.28-22.316-36.8-22-6.613 1.79-6.613 4.105-9.92 6.737-6.506 2.842-13.013 1.368-17.706 10Zm0 0" style="fill-rule:evenodd;fill:#ffc84b;fill-opacity:1;stroke-width:1.7;stroke-linecap:butt;stroke-linejoin:round;stroke:#d8aa3f;stroke-opacity:1;stroke-miterlimit:4" transform="matrix(.03662 0 0 .0371 3.164 0)"/><path d="M205.12 98.947c.213 1.264-.32 2.632-1.387 3.264a3.08 3.08 0 0 1-3.52 0c-1.066-.632-1.6-2-1.386-3.264.213-1.473 1.6-2.631 3.093-2.631 1.6 0 2.88 1.158 3.2 2.631Zm0 0" style="fill-rule:evenodd;fill:#ffc84b;fill-opacity:1;stroke-width:1.7;stroke-linecap:butt;stroke-linejoin:miter;stroke:#d8aa3f;stroke-opacity:1;stroke-miterlimit:4" transform="matrix(.03662 0 0 .0371 3.164 0)"/><path d="M225.6 107.79c44.907-54.106 84.053-47.474 135.253-51.158 1.707 6.315 1.067 15.684-23.253 24-33.387 4.947-93.12 40.21-93.44 40.21-11.093-.631-18.88-12.21-18.56-13.053Zm0 0" style="fill-rule:evenodd;fill:#ffc84b;fill-opacity:1;stroke-width:1.8;stroke-linecap:butt;stroke-linejoin:miter;stroke:#d8aa3f;stroke-opacity:1;stroke-miterlimit:4" transform="matrix(.03662 0 0 .0371 3.164 0)"/><path d="M317.867 72.526 351.04 74m-36.693 4 24.106 2" style="fill:none;stroke-width:1.8;stroke-linecap:round;stroke-linejoin:miter;stroke:#d9a43e;stroke-opacity:1;stroke-miterlimit:4" transform="matrix(.03662 0 0 .0371 3.164 0)"/></svg>