<svg xmlns="http://www.w3.org/2000/svg" width="25" height="px" viewBox="0 0 25 19"><path d="M0 0h28.156v4.75H0Zm0 0" style="stroke:none;fill-rule:evenodd;fill:#ff0;fill-opacity:1"/><path d="M0 4.75h28.156V9.5H0Zm0 0" style="stroke:none;fill-rule:evenodd;fill:#fff;fill-opacity:1"/><path d="M0 9.5h28.156v4.75H0Zm0 0" style="stroke:none;fill-rule:evenodd;fill:#be0027;fill-opacity:1"/><path d="M0 14.25h28.156V19H0Zm0 0" style="stroke:none;fill-rule:evenodd;fill:#3b5aa3;fill-opacity:1"/><path d="M0 0v19l13.984-9.473Zm0 0" style="stroke:none;fill-rule:evenodd;fill:#239e46;fill-opacity:1"/><path d="M5.758 5.246c-3.113-.16-4.54 2.36-4.535 4.3-.008 2.302 2.144 4.196 4.132 4.083-1.07-.512-2.382-1.953-2.39-4.09-.008-1.934 1.082-3.621 2.797-4.293Zm0 0" style="stroke:none;fill-rule:evenodd;fill:#fff;fill-opacity:1"/><path d="m5.71 7.313-.437-.348-.535.172.192-.535-.325-.461.56.023.327-.457.16.547.528.176-.465.316Zm-.007 1.93-.441-.348-.535.171.195-.53-.324-.462.558.02.328-.453.157.543.53.18-.464.316Zm.008 1.952-.441-.347-.532.172.192-.532-.325-.46.56.019.327-.453.16.539.528.18-.465.32Zm-.008 1.97-.441-.349-.54.172.196-.535-.324-.46.558.023.328-.457.157.546.531.18-.465.313Zm0 0" style="stroke:none;fill-rule:evenodd;fill:#fff;fill-opacity:1"/></svg>