<svg xmlns="http://www.w3.org/2000/svg" width="25" height="px" viewBox="0 0 25 19"><path d="M-1.016.008h27.012V18.98H-1.016Zm0 0" style="stroke:none;fill-rule:evenodd;fill:#ffe900;fill-opacity:1"/><path d="M-1.027.008-1 13.688 20.02 0Zm0 0" style="stroke:none;fill-rule:evenodd;fill:#35a100;fill-opacity:1"/><path d="m26.031 18.98-.05-14.218-21.204 14.23Zm0 0" style="stroke:none;fill-rule:evenodd;fill:#c70000;fill-opacity:1"/><path d="M-1.02 14.719-1 19l4.59-.008L25.988 3.773l-.02-3.722-4.534-.043Zm0 0" style="stroke:none;fill-rule:evenodd;fill:#000001;fill-opacity:1"/><path d="m16.863 5.813-.36-1.567 1.224 1 1.39-.91-.637 1.531 1.223 1-1.621-.054-.633 1.535-.363-1.567-1.613-.058Zm-10.078 6.64-.363-1.57 1.223 1.004 1.39-.914-.637 1.535 1.223 1-1.617-.055-.637 1.531-.36-1.566-1.612-.055Zm0 0" style="stroke:none;fill-rule:evenodd;fill:#fff;fill-opacity:1"/></svg>