<svg xmlns="http://www.w3.org/2000/svg" width="25" height="px" viewBox="0 0 25 19"><defs><clipPath id="a"><path d="M-.004 0h25v19H0Zm0 0"/></clipPath><clipPath id="b"><path d="M0 15h25v4H0Zm0 0"/></clipPath><clipPath id="c"><path d="M-.004 0h25v19H0Zm0 0"/></clipPath><clipPath id="d"><path d="M0 4h25v11H0Zm0 0"/></clipPath><clipPath id="e"><path d="M-.004 0h25v19H0Zm0 0"/></clipPath><clipPath id="f"><path d="M0 0h25v4H0Zm0 0"/></clipPath><clipPath id="g"><path d="M-.004 0h25v19H0Zm0 0"/></clipPath><clipPath id="h"><path d="M3 5h9v9H3Zm0 0"/></clipPath><clipPath id="i"><path d="M-.004 0h25v19H0Zm0 0"/></clipPath><clipPath id="j"><path d="M4 6h7v7H4Zm0 0"/></clipPath><clipPath id="k"><path d="M-.004 0h25v19H0Zm0 0"/></clipPath></defs><g clip-path="url(#a)"><path d="M775.958 511.482H-76.04V.528h851.997Zm0 0" style="fill-rule:evenodd;fill:#fff;fill-opacity:1;stroke-width:1;stroke-linecap:butt;stroke-linejoin:miter;stroke:#000;stroke-opacity:1;stroke-miterlimit:4" transform="matrix(.03663 0 0 .03712 -.188 -.004)"/></g><g clip-path="url(#b)"><g clip-path="url(#c)"><path d="M28.234 15.547H-2.973v3.433h31.207Zm0 0" style="stroke:none;fill-rule:evenodd;fill:#3e5698;fill-opacity:1"/></g></g><g clip-path="url(#d)"><g clip-path="url(#e)"><path d="M28.234 14.754H-2.973V4.242h31.207Zm0 0" style="stroke:none;fill-rule:evenodd;fill:#c60000;fill-opacity:1"/></g></g><g clip-path="url(#f)"><g clip-path="url(#g)"><path d="M28.234.02H-2.973v3.43h31.207Zm0 0" style="stroke:none;fill-rule:evenodd;fill:#3e5698;fill-opacity:1"/></g></g><g clip-path="url(#h)"><g clip-path="url(#i)"><path d="M11.844 9.496c0 2.36-1.942 4.27-4.344 4.27s-4.344-1.91-4.344-4.27c0-2.355 1.942-4.258 4.344-4.258s4.344 1.907 4.344 4.262Zm0 0" style="stroke:none;fill-rule:evenodd;fill:#fff;fill-opacity:1"/></g></g><g clip-path="url(#j)"><g clip-path="url(#k)"><path d="M6.25 10.04 4.164 8.526l2.602-.004.832-2.464.77 2.453 2.6-.016-2.12 1.527.78 2.454-2.085-1.508L5.418 12.5Zm0 0" style="stroke:none;fill-rule:evenodd;fill:#c40000;fill-opacity:1"/></g></g></svg>