<svg xmlns="http://www.w3.org/2000/svg" width="25" height="px" viewBox="0 0 25 19"><path d="M0 0h25v19H0z" style="fill:#fff;fill-opacity:1;stroke:none"/><path d="M2.738 5.773 5.34 1.82l.648.438L3.391 6.21Zm.977.657 2.601-3.95.649.438-2.602 3.953Zm.973.66 2.601-3.953.652.441-2.601 3.95ZM17.04 15.434l2.6-3.95.65.438-2.602 3.953Zm.972.66 2.601-3.953.653.441-2.602 3.953Zm.976.66L21.59 12.8l.648.441-2.601 3.95Zm0 0" style="stroke:none;fill-rule:evenodd;fill:#000001;fill-opacity:1"/><path d="m0 16.994-.005 10.004" style="fill-rule:evenodd;fill:#000;fill-opacity:1;stroke-width:1;stroke-linecap:butt;stroke-linejoin:miter;stroke:#fff;stroke-opacity:1;stroke-miterlimit:4" transform="matrix(.21674 -.32932 .32498 .21963 12.489 9.506)"/><path d="M8.59 6.871c1.437-2.184 4.348-2.773 6.5-1.316s2.734 4.406 1.3 6.586Zm0 0" style="stroke:none;fill-rule:evenodd;fill:#cd2e3a;fill-opacity:1"/><path d="M8.59 6.871c-1.438 2.184-.856 5.133 1.297 6.586a4.65 4.65 0 0 0 6.504-1.316 2.396 2.396 0 0 0-.653-3.293 2.324 2.324 0 0 0-3.25.66Zm0 0" style="stroke:none;fill-rule:evenodd;fill:#0047a0;fill-opacity:1"/><path d="M11.84 6.21a2.327 2.327 0 0 0-3.25.661 2.39 2.39 0 0 0 .648 3.293 2.326 2.326 0 0 0 3.25-.656 2.397 2.397 0 0 0-.648-3.297m0 0" style="stroke:none;fill-rule:evenodd;fill:#cd2e3a;fill-opacity:1"/><path d="M5.352 17.195 2.75 13.242l.648-.437L6 16.754Zm.972-.66-2.597-3.953.648-.437 2.602 3.953Zm.977-.66-2.602-3.95.653-.44 2.597 3.953ZM19.648 7.531l-2.597-3.953.648-.437 2.602 3.949Zm.977-.66-2.602-3.953.653-.438 2.597 3.954Zm.977-.66L19 2.26l.648-.44 2.602 3.952Zm0 0" style="stroke:none;fill-rule:evenodd;fill:#000001;fill-opacity:1"/><path d="M.001-23.497 0-20.506M.003 17l.002 3.5m-.007 3v3.004" style="fill-rule:evenodd;fill:#000;fill-opacity:1;stroke-width:1;stroke-linecap:butt;stroke-linejoin:miter;stroke:#fff;stroke-opacity:1;stroke-miterlimit:4" transform="matrix(-.21674 -.32932 .32498 -.21963 12.5 9.508)"/></svg>