<svg xmlns="http://www.w3.org/2000/svg" width="25" height="px" viewBox="0 0 25 19"><path d="M0 0h25v19H0z" style="fill:#006;fill-opacity:1;stroke:none"/><path d="M0 0h12.5v9.5H0Zm0 0" style="stroke:none;fill-rule:nonzero;fill:#012169;fill-opacity:1"/><path d="M1.465 0 6.23 3.582 10.977 0H12.5v1.227L7.813 4.77 12.5 8.293V9.5h-1.562L6.25 5.957 1.582 9.5H0V8.313l4.668-3.524L0 1.266V0Zm0 0" style="stroke:none;fill-rule:nonzero;fill:#fff;fill-opacity:1"/><path d="M8.281 5.563 12.5 8.707V9.5L7.207 5.563Zm-3.594.394.118.691L1.055 9.5H0ZM12.5 0v.059L7.637 3.78l.039-.87L11.523 0ZM0 0l4.668 3.484H3.496L0 .832Zm0 0" style="stroke:none;fill-rule:nonzero;fill:#c8102e;fill-opacity:1"/><path d="M4.707 0v9.5h3.125V0ZM0 3.168v3.164h12.5V3.168Zm0 0" style="stroke:none;fill-rule:nonzero;fill:#fff;fill-opacity:1"/><path d="M0 3.82V5.72h12.5V3.82ZM5.332 0v9.5h1.875V0Zm0 0" style="stroke:none;fill-rule:nonzero;fill:#c8102e;fill-opacity:1"/><path d="M989.717 233.055v93.32c0 80.977-38.33 108.837-89.63 130.808-51.299-21.971-89.974-49.831-89.974-130.807v-93.434h179.604Zm0 0" style="fill-rule:nonzero;fill:#fff;fill-opacity:1;stroke-width:9.6;stroke-linecap:butt;stroke-linejoin:round;stroke:#fff;stroke-opacity:1;stroke-miterlimit:4" transform="matrix(.03404 0 0 .0345 -11.984 -.84)"/><path d="M754.453 449.595c2.869 7.588 23.411 17.668 47.397 4.757 16.296-9.174 26.855-21.971 36.954-44.962 2.754-5.776 4.246-13.024-2.41-17.327-5.28-3.851-14.001-8.155-17.789-12.005-1.95-1.812-3.787-3.398-5.164-4.757a21 21 0 0 1 2.754 3.284c9.64 11.552-.344 28.314-11.017 38.393-7.689 7.248-21.46 24.916-41.659 8.154-4.36-3.85-14.46 12.005-9.066 24.463Zm291.383 0c-3.443 7.588-23.985 17.668-47.512 4.757-16.181-9.174-26.854-21.971-37.298-44.962-2.41-5.776-3.902-13.024 2.755-17.327 5.279-3.851 14-8.155 17.788-12.005 1.951-1.926 3.328-3.398 5.28-4.757-1.034.906-1.952 1.925-2.87 3.284-9.525 11.552.46 28.314 10.558 38.393 7.69 7.248 21.92 24.916 42.118 8.154 4.361-3.85 14.001 12.005 9.067 24.463Zm0 0" style="fill-rule:nonzero;fill:#fcea83;fill-opacity:1;stroke-width:9.6;stroke-linecap:butt;stroke-linejoin:round;stroke:#fff;stroke-opacity:1;stroke-miterlimit:4" transform="matrix(.03404 0 0 .0345 -11.984 -.84)"/><path d="M900.087 490.82c38.331 0 97.32-17.328 128.994-77.692 5.164-10.08 0-15.29-6.312-18.574-7.115-3.624-13.542-8.38-19.165-14.043 7.689 7.701 6.197 13.024 1.032 21.631-24.559 40.771-58.07 61.383-104.549 61.383s-79.99-20.612-104.434-61.383c-5.28-8.607-6.771-13.93.459-21.518-5.509 5.776-12.05 10.42-19.166 13.93-6.197 3.284-11.59 8.494-6.197 18.574 31.56 60.364 91.007 77.691 129.338 77.691Zm0 0" style="fill-rule:nonzero;fill:#fcea83;fill-opacity:1;stroke-width:9.6;stroke-linecap:butt;stroke-linejoin:round;stroke:#fff;stroke-opacity:1;stroke-miterlimit:4" transform="matrix(.03404 0 0 .0345 -11.984 -.84)"/><path d="M811.375 409.843c-.918-4.87-7.115-2.944-8.951 2.832-2.64-3.285-4.935-6.796-6.771-10.533-5.738-8.607-6.771-14.496 1.492-22.537 3.787-3.85 11.476-8.155 16.64-3.398 11.018 9.06 5.28 24.01-2.41 33.636Zm176.965 0c.918-4.87 7.69-2.944 9.525 2.832 2.525-3.285 4.706-6.796 6.771-10.533 5.624-8.607 6.657-14.496-2.065-22.537-3.214-3.85-11.018-8.155-16.641-3.398-10.673 9.06-5.28 24.01 2.41 33.636Zm-233.887 39.752c-4.82-7.248-8.607-26.048-9.64-30.691-1.377-4.304-1.951-8.155 3.443-9.967 5.279-2.038 9.984 4.644 12.394 10.42 2.295 5.889 6.197 14.383 10.558 24.915-10.558-6.115-19.165-1.925-16.755 5.323Zm291.383 0c4.247-7.248 8.034-26.048 9.526-30.691 1.033-4.304 1.95-8.155-3.328-9.967-5.28-2.038-9.985 4.644-12.395 10.42-2.41 5.889-6.312 14.383-10.673 24.915 10.673-6.115 18.707-1.925 16.87 5.323Zm0 0" style="fill-rule:nonzero;fill:#c8102e;fill-opacity:1;stroke-width:9.6;stroke-linecap:butt;stroke-linejoin:round;stroke:#fff;stroke-opacity:1;stroke-miterlimit:4" transform="matrix(.03404 0 0 .0345 -11.984 -.84)"/><path d="M863.248 232.489c-6.197 1.359-10.558 1.925-16.296-3.398-3.902-3.737-2.984-10.532.918-13.024 4.361-2.718 8.148-4.643 13.427-3.284 5.28 1.472 19.166 14.383 15.838 14.95-3.443 0-8.608 3.284-13.887 4.756Zm14.805-22.99c1.95-1.473 4.36-2.379 10.558-2.945 5.738-.453 9.984-.453 11.476 3.964 2.066 5.21 3.443 11.438 7.23 14.27-2.41 1.359-14.46 2.944-18.706.566-5.738-2.945-7.23-14.043-10.558-15.855Zm41.2.453c1.95-1.473 4.36-1.473 10.558-.906 6.197.453 8.607.906 9.984 5.21 1.492 4.87 0 11.098 2.984 15.288-2.984 1.02-12.51 1.02-15.837-2.378-5.28-3.737-4.82-14.836-7.69-17.214Zm0 0" style="fill-rule:nonzero;fill:#fff;fill-opacity:1;stroke-width:9.6;stroke-linecap:butt;stroke-linejoin:round;stroke:#fff;stroke-opacity:1;stroke-miterlimit:4" transform="matrix(.03404 0 0 .0345 -11.984 -.84)"/><path d="M947.943 212.783c-4.246-1.02-7.115-1.36-8.951 0 2.295 2.945.459 14.383 5.164 18.234 3.328 2.378 12.05 2.944 14.001-2.379 2.296-4.87 2.296-12.004-10.099-15.855Zm-49.233-4.757c1.377-1.472 4.246-1.925 9.984-1.925 6.312 0 9.985 1.02 12.05 4.757 1.952 4.87 1.378 11.098 4.706 14.949-1.377 1.925-14.346 1.925-18.133-1.02-5.279-3.397-5.853-14.382-8.607-16.76Zm-40.74 4.304c0-2.378 3.327-2.831 12.05-3.284 8.492-1.02 8.95-.567 11.935 5.662 1.377 3.398 3.213 9.06 7.115 10.986-10.558 2.491-14.001 3.85-19.625.453-4.246-2.492-7.689-6.116-10.099-10.42-.459-1.472-.459-2.944-1.492-3.397Zm0 0" style="fill-rule:nonzero;fill:#073163;fill-opacity:1;stroke-width:9.6;stroke-linecap:butt;stroke-linejoin:round;stroke:#fff;stroke-opacity:1;stroke-miterlimit:4" transform="matrix(.03404 0 0 .0345 -11.984 -.84)"/><path d="M858.887 169.747c-3.443-.114-6.082-1.36-8.148-3.85-3.328-4.418-12.394-6.343-16.296-2.38-1.492 1.02-3.328 1.02-4.706 1.36-2.41 0-5.393 2.378-4.475 7.248 2.065-1.472 2.41 0 3.902 0 1.032-.566.573.453.573 1.36 0 2.377 5.165 7.247 9.985 6.681 5.279 0 7.689 2.039 8.607 3.058 1.492 1.246.46.906 1.492 3.284 1.377 1.36 1.836 1.926-.574 3.738-2.18 1.925-3.443 4.643-3.443 7.474 0 2.945 1.263 5.663 3.443 7.475 6.197 4.757 22.035 12.005 39.823-2.039 17.214-13.363 44.069-5.662 46.02-.906 2.41 4.87 3.328 7.702 3.787 10.08.574 1.925 2.87 3.85 6.312 3.398 3.328 0 7.115 1.359 9.066 2.83 2.41 1.473 5.739 1.02 4.82-3.397-1.95-13.364-10.099-15.289-11.017-21.405 4.705.34 8.034.34 10.1-1.585 1.377-1.925 3.213-5.323 5.278-6.116 1.378-1.02 1.378-2.038-.573-1.585-2.41.566-3.788 1.585-8.149 1.019-22.034-2.378-83.777-19.14-95.827-15.742Zm0 0" style="fill-rule:nonzero;fill:#059334;fill-opacity:1;stroke-width:9.6;stroke-linecap:butt;stroke-linejoin:round;stroke:#fff;stroke-opacity:1;stroke-miterlimit:4" transform="matrix(.03404 0 0 .0345 -11.984 -.84)"/><path d="M956.665 186.055c-3.672 2.492-6.77 5.776-9.18 9.513-4.706 6.23-19.051 12.458-36.84 12.458-17.214 0-27.772-2.831-35.461-9.06-3.329-2.605-6.771-4.87-10.559-6.795-5.279-2.378-6.197-7.701-4.82-12.005-1.377 2.378-2.295 4.87-5.164 4.304-2.066 0-5.853 0-4.82 2.038-.574-1.02-.574-2.378-1.033-3.058l-1.033-.906c1.492 1.02 4.935-1.812 7.345-1.812 1.951.453 4.246-1.925 3.787-4.87l-1.377-6.115c3.787-2.039 54.054 7.135 64.153 8.04 9.984.567 38.79 4.757 35.002 8.268Zm0 0" style="fill-rule:nonzero;fill:#000001;fill-opacity:1;stroke-width:9.6;stroke-linecap:butt;stroke-linejoin:round;stroke:#fff;stroke-opacity:1;stroke-miterlimit:4" transform="matrix(.03404 0 0 .0345 -11.984 -.84)"/><path d="M865.544 167.821c4.82-4.87 10.558-7.248 16.41-5.775h1.378c2.984-2.492 9.525-2.945 13.427-1.02h1.951c5.738-1.925 16.64 0 20.543 3.85l1.492 1.02c12.968-1.02 20.542 4.757 29.608 13.93 1.033 1.02 2.41 2.718 4.82 3.285 2.984.453 3.443 2.038 1.033 3.397-3.902 2.379-7.23 5.436-9.984 8.947-4.476 5.89-18.362 11.665-35.577 11.665-16.755 0-26.854-3.058-34.543-8.72-4.247-3.285-7.575-5.21-9.985-6.682-2.869-1.02-6.77-4.87-5.279-8.607.918-3.851-1.492-8.608-3.328-13.364 1.377-1.02 5.164-2.492 7.115-1.473Zm0 0" style="fill-rule:nonzero;fill:#059334;fill-opacity:1;stroke-width:9.6;stroke-linecap:butt;stroke-linejoin:round;stroke:#fff;stroke-opacity:1;stroke-miterlimit:4" transform="matrix(.03404 0 0 .0345 -11.984 -.84)"/><path d="M950.353 179.826c-8.951-9.173-16.64-14.95-29.608-14.043 0 .566 0 2.038-.574 3.058 9.066 3.964 17.1 10.08 23.526 17.667 1.951-2.038 5.28-4.303 6.656-6.682Zm-31.1-14.95c-3.902-3.736-14.805-5.775-20.543-3.736 0 1.812 0 4.756-1.033 6.681 3.443 1.36 6.197 4.757 9.066 8.041 2.066-.453 6.771-1.812 9.182-2.378 1.377-2.718 2.524-5.55 3.328-8.607Zm-22.494-3.85c-3.902-1.925-10.558-1.472-13.427 1.02-1.033 1.925-1.377 5.775-1.377 7.7 1.95 0 4.705 1.36 5.623 2.38 2.984-1.02 6.771-2.946 8.263-4.305.459-2.038 1.377-4.87.918-6.681Zm-31.216 6.795c4.82-4.87 10.559-7.248 16.412-5.775-1.033 1.472-1.492 4.303-1.492 7.134-5.28-.453-11.936 1.02-14.92 2.945Zm0 0" style="fill-rule:nonzero;fill:#00493d;fill-opacity:1;stroke-width:9.6;stroke-linecap:butt;stroke-linejoin:round;stroke:#fff;stroke-opacity:1;stroke-miterlimit:4" transform="matrix(.03404 0 0 .0345 -11.984 -.84)"/><path d="M941.746 187.414c-5.967-7.135-13.427-12.91-21.92-16.761 0 .453-1.032 2.378-1.491 3.85 2.869 4.304 8.607 13.93 11.017 19.253 2.295-1.019 9.066-3.963 12.394-6.342Zm-36.38 10.533a139 139 0 0 0 1.377-19.593c2.41-.566 7.23-1.925 9.182-2.492 2.41 3.964 8.148 14.044 10.558 18.687-5.738 1.472-15.379 3.85-21.117 3.398Zm-16.755-22.99c2.41-.907 5.738-2.945 8.033-4.757 2.066 1.359 5.853 4.756 7.23 6.682 0 4.303-1.377 16.874-1.836 21.065-3.787 0-9.984-.906-13.427-2.832.459-7.248 1.033-15.289 0-20.159Zm-23.986 5.775c.46-1.019.918-4.303.918-5.776 3.902-2.378 13.428-4.756 20.658-.906.459 4.757 0 16.762-.46 19.706-6.426-5.322-13.541-9.626-21-13.024Zm0 0" style="fill-rule:nonzero;fill:#00493d;fill-opacity:1;stroke-width:9.6;stroke-linecap:butt;stroke-linejoin:round;stroke:#fff;stroke-opacity:1;stroke-miterlimit:4" transform="matrix(.03404 0 0 .0345 -11.984 -.84)"/><path d="M16.633 5.094c-.035 0-.055-.098-.117-.098-.016 0-.067.02-.082 0 .003.04.011.066.035.082.015.05.097.02.164.02Zm0 0" style="stroke:none;fill-rule:nonzero;fill:#000001;fill-opacity:1"/><path d="M840.755 180.166c5.623 0 6.656-7.135 9.525-7.588m-6.312 8.154c4.361 1.926 7.69-8.154 11.017-7.7m-19.624-4.758c1.492 0 2.41-1.925 4.82.453 1.147 1.02 2.295 1.473 3.443 1.473m-1.033 5.21c-1.951 2.944-5.28 4.756-7.23 3.85m-.918-15.742c-1.492 1.02-2.296 2.831-3.328 4.303m-1.378 2.832v2.378" style="fill:none;stroke-width:9.6;stroke-linecap:butt;stroke-linejoin:round;stroke:#fff;stroke-opacity:1;stroke-miterlimit:4" transform="matrix(.03404 0 0 .0345 -11.984 -.84)"/><path d="M881.037 163.518c-10.1-7.701-22.15-14.95-33.167-16.309a269 269 0 0 1 32.593 25.37" style="fill-rule:nonzero;fill:#000;fill-opacity:1;stroke-width:9.6;stroke-linecap:butt;stroke-linejoin:round;stroke:#fff;stroke-opacity:1;stroke-miterlimit:4" transform="matrix(.03404 0 0 .0345 -11.984 -.84)"/><path d="M886.66 156.27c-11.935-8.155-25.822-17.215-39.25-18.12 12.51 7.247 23.642 16.647 32.938 27.746m21.69-22.99a92.4 92.4 0 0 1 23.412-32.164c-4.705 10.08-9.985 30.691-12.395 38.846" style="fill-rule:nonzero;fill:#000;fill-opacity:1;stroke-width:9.6;stroke-linecap:butt;stroke-linejoin:round;stroke:#fff;stroke-opacity:1;stroke-miterlimit:4" transform="matrix(.03404 0 0 .0345 -11.984 -.84)"/><path d="M912.596 140.527c4.59-11.325 13.313-20.385 24.445-25.481a98.5 98.5 0 0 0-18.247 34.995" style="fill-rule:nonzero;fill:#000;fill-opacity:1;stroke-width:9.6;stroke-linecap:butt;stroke-linejoin:round;stroke:#fff;stroke-opacity:1;stroke-miterlimit:4" transform="matrix(.03404 0 0 .0345 -11.984 -.84)"/><path d="M916.843 150.04c9.295-14.043 22.378-25.028 37.871-31.597-12.05 12.005-29.723 33.976-33.97 42.697m2.87-.567c8.607-4.756 25.936-12.458 38.33-9.966-7.689 2.831-30.641 13.25-40.74 22.99" style="fill-rule:nonzero;fill:#000;fill-opacity:1;stroke-width:9.6;stroke-linecap:butt;stroke-linejoin:round;stroke:#fff;stroke-opacity:1;stroke-miterlimit:4" transform="matrix(.03404 0 0 .0345 -11.984 -.84)"/><path d="M921.663 157.176c8.148-8.608 23.067-21.518 38.79-26.728-11.477 10.985-35.921 35.901-39.25 39.752m-22.493-18.234c-5.853-17.78-14.46-34.429-27.314-39.752a130.1 130.1 0 0 1 21.002 48.926m-4.82-9.627c-9.525-11.552-22.494-22.99-37.298-25.369 14.575 9.4 25.936 22.877 33.052 38.733" style="fill-rule:nonzero;fill:#000;fill-opacity:1;stroke-width:9.6;stroke-linecap:butt;stroke-linejoin:round;stroke:#fff;stroke-opacity:1;stroke-miterlimit:4" transform="matrix(.03404 0 0 .0345 -11.984 -.84)"/><path d="M892.972 150.947c-11.935-21.518-21.117-25.369-26.396-29.673 4.361 8.155 14.805 29.673 21.002 38.846" style="fill-rule:nonzero;fill:#000;fill-opacity:1;stroke-width:9.6;stroke-linecap:butt;stroke-linejoin:round;stroke:#fff;stroke-opacity:1;stroke-miterlimit:4" transform="matrix(.03404 0 0 .0345 -11.984 -.84)"/><path d="M868.986 149.588c6.886 4.303 12.74 9.966 17.215 16.761" style="fill:none;stroke-width:9.6;stroke-linecap:butt;stroke-linejoin:round;stroke:#fff;stroke-opacity:1;stroke-miterlimit:4" transform="matrix(.03404 0 0 .0345 -11.984 -.84)"/><path d="M868.986 159.554c2.87 2.492 8.149 5.323 12.969 9.626m44.069-2.378c4.82-3.85 15.263-9.966 20.542-12.005m-23.985 8.72c4.82-6.341 14.46-14.949 17.788-17.78m-4.36-12.005c-6.428 7.135-12.51 14.723-18.248 22.538m5.853-26.841a147.5 147.5 0 0 0-12.05 21.065m-25.822-20.046c2.869 7.701 8.148 20.499 9.984 25.822m-14.345-17.781c2.066 3.058 5.853 9.626 7.23 14.383M897.677 136.11c0-4.303 2.87-9.06 5.853-9.06 3.213 0 5.623 5.776 5.623 9.06 0 3.851-2.869 7.136-5.623 7.136-2.984 0-5.853-2.719-5.853-7.135Zm0 0" style="fill-rule:nonzero;fill:#000;fill-opacity:1;stroke-width:9.6;stroke-linecap:butt;stroke-linejoin:round;stroke:#fff;stroke-opacity:1;stroke-miterlimit:4" transform="matrix(.03404 0 0 .0345 -11.984 -.84)"/><path d="M891.48 139.961c.574-4.756 3.787-8.607 6.771-8.154 2.87.34 4.246 6.342 3.787 9.626-.574 3.738-3.787 6.682-6.197 6.116-2.41 0-4.82-3.284-4.361-7.588Zm12.968 1.472c-1.033-4.303.918-9.06 3.902-9.626 2.754-.453 5.624 4.304 6.197 8.154.918 3.85-1.492 7.588-3.902 7.588-2.295.566-5.738-1.812-6.197-6.116Zm0 0" style="fill-rule:nonzero;fill:#000;fill-opacity:1;stroke-width:9.6;stroke-linecap:butt;stroke-linejoin:round;stroke:#fff;stroke-opacity:1;stroke-miterlimit:4" transform="matrix(.03404 0 0 .0345 -11.984 -.84)"/><path d="M897.218 145.17c0-4.643 2.87-8.946 5.738-8.946 3.328 0 5.738 5.21 5.738 8.947 0 3.964-2.754 7.248-5.738 7.248-2.869 0-5.738-2.831-5.738-7.248Zm0 0" style="fill-rule:nonzero;fill:#000;fill-opacity:1;stroke-width:9.6;stroke-linecap:butt;stroke-linejoin:round;stroke:#fff;stroke-opacity:1;stroke-miterlimit:4" transform="matrix(.03404 0 0 .0345 -11.984 -.84)"/><path d="M888.61 147.55c0-4.304 3.444-8.948 6.198-8.948 2.984 0 5.738 5.663 5.738 8.947 0 3.964-3.328 7.248-5.738 7.248-2.754 0-6.197-2.831-6.197-7.248Zm17.674-1.813c0-4.304 2.984-9.06 5.853-9.06 3.214 0 5.624 5.776 5.624 9.06 0 3.85-2.755 7.135-5.624 7.135-2.984 0-5.853-2.831-5.853-7.135Zm0 0" style="fill-rule:nonzero;fill:#000;fill-opacity:1;stroke-width:9.6;stroke-linecap:butt;stroke-linejoin:round;stroke:#fff;stroke-opacity:1;stroke-miterlimit:4" transform="matrix(.03404 0 0 .0345 -11.984 -.84)"/><path d="M904.448 149.588c0-4.757 3.328-9.06 6.197-9.06 2.984 0 5.739 5.21 5.739 8.946 0 3.964-2.87 7.362-5.739 7.362s-6.197-3.058-6.197-7.248Zm0 0" style="fill-rule:nonzero;fill:#000;fill-opacity:1;stroke-width:9.6;stroke-linecap:butt;stroke-linejoin:round;stroke:#fff;stroke-opacity:1;stroke-miterlimit:4" transform="matrix(.03404 0 0 .0345 -11.984 -.84)"/><path d="M896.76 153.891c0-4.756 2.868-9.06 5.737-9.06 3.443 0 5.853 5.663 5.853 8.947 0 4.077-3.098 7.362-5.853 7.362-2.869 0-5.853-3.058-5.853-7.249Zm-11.936 0c0-4.756 2.41-9.06 4.82-9.06s4.246 5.663 4.246 8.947c0 4.077-2.41 7.362-4.246 7.362-2.41 0-4.82-3.058-4.82-7.249Zm26.74-.906c0-4.417 2.41-8.72 4.82-8.72s4.82 5.323 4.82 8.607c0 4.304-2.87 7.248-4.82 7.248-2.41 0-4.82-2.944-4.82-7.248Zm0 0" style="fill-rule:nonzero;fill:#000;fill-opacity:1;stroke-width:9.6;stroke-linecap:butt;stroke-linejoin:round;stroke:#fff;stroke-opacity:1;stroke-miterlimit:4" transform="matrix(.03404 0 0 .0345 -11.984 -.84)"/><path d="M914.547 161.026c.918-4.756 3.788-8.607 5.624-8.04 2.065.452 2.41 6.115 1.492 9.513-.46 4.303-3.328 6.681-5.28 6.228-1.95-.453-2.869-3.85-1.95-7.587Zm0 0" style="fill-rule:nonzero;fill:#000;fill-opacity:1;stroke-width:9.6;stroke-linecap:butt;stroke-linejoin:round;stroke:#fff;stroke-opacity:1;stroke-miterlimit:4" transform="matrix(.03404 0 0 .0345 -11.984 -.84)"/><path d="M905.366 159.554c.574-4.304 3.328-8.607 5.738-8.041 2.87 0 4.247 5.663 3.902 8.947-.459 4.417-2.983 7.361-5.279 6.795-2.41 0-4.82-3.397-4.36-7.701Zm-13.312 1.472c-1.607-4.756-4.476-8.04-6.312-7.588-1.951.34-2.41 6.116-1.492 9.514 1.033 3.85 3.902 6.228 5.738 5.775 1.492-.453 2.984-3.85 2.066-7.587Zm0 0" style="fill-rule:nonzero;fill:#000;fill-opacity:1;stroke-width:9.6;stroke-linecap:butt;stroke-linejoin:round;stroke:#fff;stroke-opacity:1;stroke-miterlimit:4" transform="matrix(.03404 0 0 .0345 -11.984 -.84)"/><path d="M888.61 160.12c0-4.303 2.41-8.607 4.82-8.607 2.87 0 4.821 5.323 4.821 8.607 0 4.304-2.41 7.135-4.82 7.135-2.066 0-4.82-2.831-4.82-7.135Zm0 0" style="fill-rule:nonzero;fill:#000;fill-opacity:1;stroke-width:9.6;stroke-linecap:butt;stroke-linejoin:round;stroke:#fff;stroke-opacity:1;stroke-miterlimit:4" transform="matrix(.03404 0 0 .0345 -11.984 -.84)"/><path d="M895.841 162.046c0-4.87 2.869-9.06 5.623-9.06 3.443 0 5.853 5.209 5.853 9.06 0 3.85-2.869 7.134-5.853 7.134-2.754 0-5.623-2.83-5.623-7.134Zm2.41-52.776c-1.033 3.85-4.361 7.248-2.066 12.57-4.131-1.585-8.033-2.038-11.361 1.813 4.246-.453 8.033 1.019 9.984 3.85-3.787-.453-5.738 1.473-6.656 3.851 3.328-.906 6.656-1.925 8.148-1.472-1.492 1.472-3.902 3.85-4.246 5.776 2.754-2.379 6.197-1.926 8.033-3.398-1.377 3.398 1.377 6.795 3.787 10.08-.344-4.757 2.41-8.041 1.033-10.533 4.246 1.02 4.82 4.757 11.018 4.757-2.41-1.36-3.788-6.116-6.772-6.116 1.492-.566 7.23-1.02 8.263 0-1.032-2.039-4.36-3.85-6.312-3.85 1.951-2.04 5.28-5.777 7.69-6.796-3.443.453-8.608 1.02-10.444 3.85 4.705-3.85 3.787-10.985 8.952-12.004-2.755-.453-7.116 1.472-10.559 4.87 1.607-2.945 1.607-6.682 3.443-7.701-3.902 1.019-8.148 5.775-9.64 8.154-.115-2.718-.918-5.323-2.295-7.701Zm0 0" style="fill-rule:nonzero;fill:#000;fill-opacity:1;stroke-width:9.6;stroke-linecap:butt;stroke-linejoin:round;stroke:#fff;stroke-opacity:1;stroke-miterlimit:4" transform="matrix(.03404 0 0 .0345 -11.984 -.84)"/><path d="M900.546 116.97c0 1.473 0 4.304-.459 5.21m6.656-5.662c-.918 1.02-2.869 4.303-2.869 7.135" style="fill-rule:nonzero;fill:#000;fill-opacity:1;stroke-width:9.6;stroke-linecap:butt;stroke-linejoin:round;stroke:#fff;stroke-opacity:1;stroke-miterlimit:4" transform="matrix(.03404 0 0 .0345 -11.984 -.84)"/><path d="M909.727 122.18c-1.606 1.02-2.869 2.605-3.443 4.417" style="fill:none;stroke-width:9.6;stroke-linecap:butt;stroke-linejoin:round;stroke:#fff;stroke-opacity:1;stroke-miterlimit:4" transform="matrix(.03404 0 0 .0345 -11.984 -.84)"/><path d="M754.453 449.595c2.869 7.588 23.411 17.668 47.397 4.757 16.296-9.174 26.855-21.971 36.954-44.962 2.754-5.776 4.246-13.024-2.41-17.327-5.28-3.851-14.001-8.155-17.789-12.005-1.95-1.812-3.787-3.398-5.164-4.757a21 21 0 0 1 2.754 3.284c9.64 11.552-.344 28.314-11.017 38.393-7.689 7.248-21.46 24.916-41.659 8.154-4.36-3.85-14.46 12.005-9.066 24.463Zm291.383 0c-3.443 7.588-23.985 17.668-47.512 4.757-16.181-9.174-26.854-21.971-37.298-44.962-2.41-5.776-3.902-13.024 2.755-17.327 5.279-3.851 14-8.155 17.788-12.005 1.951-1.926 3.328-3.398 5.28-4.757-1.034.906-1.952 1.925-2.87 3.284-9.525 11.552.46 28.314 10.558 38.393 7.69 7.248 21.92 24.916 42.118 8.154 4.361-3.85 14.001 12.005 9.067 24.463Zm0 0" style="fill-rule:nonzero;fill:#fcea83;fill-opacity:1;stroke-width:1.4;stroke-linecap:butt;stroke-linejoin:miter;stroke:#000;stroke-opacity:1;stroke-miterlimit:4" transform="matrix(.03404 0 0 .0345 -11.984 -.84)"/><path d="M900.087 490.82c38.331 0 97.32-17.328 128.994-77.692 5.164-10.08 0-15.29-6.312-18.574-7.115-3.624-13.542-8.38-19.165-14.043 7.689 7.701 6.197 13.024 1.032 21.631-24.559 40.771-58.07 61.383-104.549 61.383s-79.99-20.612-104.434-61.383c-5.28-8.607-6.771-13.93.459-21.518-5.509 5.776-12.05 10.42-19.166 13.93-6.197 3.284-11.59 8.494-6.197 18.574 31.56 60.364 91.007 77.691 129.338 77.691Zm0 0" style="fill-rule:nonzero;fill:#fcea83;fill-opacity:1;stroke-width:1.4;stroke-linecap:butt;stroke-linejoin:miter;stroke:#000;stroke-opacity:1;stroke-miterlimit:4" transform="matrix(.03404 0 0 .0345 -11.984 -.84)"/><path d="M811.375 409.843c-.918-4.87-7.115-2.944-8.951 2.832-2.64-3.285-4.935-6.796-6.771-10.533-5.738-8.607-6.771-14.496 1.492-22.537 3.787-3.85 11.476-8.155 16.64-3.398 11.018 9.06 5.28 24.01-2.41 33.636Zm176.965 0c.918-4.87 7.69-2.944 9.525 2.832 2.525-3.285 4.706-6.796 6.771-10.533 5.624-8.607 6.657-14.496-2.065-22.537-3.214-3.85-11.018-8.155-16.641-3.398-10.673 9.06-5.28 24.01 2.41 33.636Zm-233.887 39.752c-4.82-7.248-8.607-26.048-9.64-30.691-1.377-4.304-1.951-8.155 3.443-9.967 5.279-2.038 9.984 4.644 12.394 10.42 2.295 5.889 6.197 14.383 10.558 24.915-10.558-6.115-19.165-1.925-16.755 5.323Zm291.383 0c4.247-7.248 8.034-26.048 9.526-30.691 1.033-4.304 1.95-8.155-3.328-9.967-5.28-2.038-9.985 4.644-12.395 10.42-2.41 5.889-6.312 14.383-10.673 24.915 10.673-6.115 18.707-1.925 16.87 5.323Zm0 0" style="fill-rule:nonzero;fill:#c8102e;fill-opacity:1;stroke-width:1.4;stroke-linecap:butt;stroke-linejoin:miter;stroke:#000;stroke-opacity:1;stroke-miterlimit:4" transform="matrix(.03404 0 0 .0345 -11.984 -.84)"/><path d="m14.64 13.18-.128.066c-.035.016-.035.05-.035.066h-.016l-.066-.148h.015c0 .016.02.035.05.016l.278-.149q.05-.029.016-.05l.016-.016.082.164h-.016c-.016-.016-.031-.035-.066-.016l-.114.067.047.097.133-.047c.035-.02.016-.05.016-.07h.015l.07.152c-.019-.015-.035-.035-.07-.015l-.273.148q-.051.024-.02.047l-.015.016-.082-.149.015-.015c.02.015.035.035.07.015l.13-.066Zm.278.215q.049-.02.016-.067h.015l.164.246-.113.082v-.011c.066-.051.066-.118.047-.137-.016-.016-.031-.031-.031-.047-.016 0-.016-.016-.051.016l-.113.085c.015.012.035.063.113.012h.02l-.18.137v-.02c.082-.066.047-.117.03-.129l-.112.083c-.036.011-.036.035-.036.046.016 0 .016.02.036.036.015.035.066.066.144.035l.02.011-.133.051-.16-.261h.015c.012.011.036.03.063.011Zm.258.628-.11.098c-.02.016-.02.05 0 .066h-.02l-.112-.117.015-.015c.016.015.035.035.067 0l.214-.215q.048-.018.012-.07l.117.14q-.034-.035-.07 0l-.094.098.082.082.098-.082c.035-.035.016-.051 0-.07l.016-.016.113.133h-.016c-.015 0-.035-.016-.066.015l-.211.203q-.046.043-.016.063v.02l-.113-.137c.016 0 .047.02.066 0l.11-.114Zm.246.348.05.047.067-.145s-.05.012-.133.063Zm0 0-.016.016-.035-.035c-.012.015-.031.015-.047.035-.047.031-.035.05-.015.066v.016l-.079-.082h.012l.067-.02.324-.18.02.016s-.02.016-.165.348c0 .035-.015.047 0 .082l-.129-.113.016-.016q.033.047.066 0c0-.02.016-.055.016-.07l-.05-.047.015-.02Zm.129.328.02-.015q.017.023.066 0l.21-.282-.015-.015c-.035-.02-.082-.02-.129.031v-.016l.063-.082.246.184-.082.094h-.016c.047-.047.031-.114 0-.13v-.019l-.21.285c-.036.016-.02.047 0 .067h-.02Zm0 0" style="stroke:none;fill-rule:nonzero;fill:#00493d;fill-opacity:1"/><path d="m15.977 14.766-.082.117c-.016.035 0 .047.02.066l-.02.016-.13-.102v-.015c.032.02.051.015.067-.016l.18-.246q.013-.047-.016-.07l.016-.012.129.094v.02c-.036-.02-.047-.02-.067.015l-.078.117.098.066.082-.117c.008-.031.004-.05-.02-.066l.02-.016.129.098v.02q-.036-.03-.07.015l-.16.262c-.032.02-.016.035 0 .054v.012l-.145-.098h.015q.025.007.051-.015l.078-.133Zm.328.464.015-.015q.037.029.067-.02l.129-.277c.015-.035 0-.055-.016-.07l.277.132-.066.133-.016-.015c.047-.067 0-.133-.015-.149-.02 0-.035-.02-.047-.02-.02 0-.02 0-.035.036a.6.6 0 0 0-.067.113c.02.02.047.05.117-.035h.012l-.094.203-.015-.016c.047-.105-.02-.117-.035-.117l-.067.133c-.015.031 0 .05.02.05v.017Zm.472.23c-.047-.034-.047-.132 0-.23.035-.105.098-.183.164-.152.047.02.036.117 0 .219-.05.113-.117.18-.164.164h-.015c.113.047.195-.016.242-.133.05-.098.035-.215-.067-.262-.093-.054-.195.012-.242.13-.047.117-.035.23.07.265Zm.504.032.067-.195q.015-.047-.016-.07l.082.02v.015c-.016 0-.035 0-.05.035l-.067.195c-.031.082-.082.149-.176.117-.066-.015-.117-.101-.082-.183l.082-.211q.013-.053-.016-.07v-.016l.145.066v.02c-.016-.02-.047-.02-.047.015l-.086.211c-.015.067-.015.13.035.149q.074.022.125-.102Zm.149-.215c.004-.011-.004-.02-.016-.015l.113.015.102.317.047-.203q.013-.043-.016-.063l.094.016-.012.02c-.02 0-.035 0-.05.03l-.083.364h-.015l-.133-.395-.082.266c0 .047.02.047.035.062v.02l-.098-.035v-.02c.016.02.047 0 .047-.031l.082-.297Zm.554.332c-.03.149-.101.184-.132.184h-.032s-.015-.02 0-.035l.051-.332c.016-.016.016-.035.031-.016h.035c.032 0 .063.07.047.2l.051.019c.031-.168-.035-.238-.117-.25-.066-.016-.164-.035-.164-.035v.02c.016.015.05.015.035.066l-.047.293q-.029.051-.05.05h-.016l.16.036c.082.015.164 0 .2-.18Zm.149-.132c0-.036-.035-.051-.051-.051v-.016l.297.035-.02.13c0-.083-.05-.114-.082-.114-.015-.012-.03-.02-.05-.016-.012 0-.012 0-.012.047l-.02.137c.02 0 .067.012.102-.086l-.02.215h-.015c0-.102-.047-.102-.07-.102l-.012.149c0 .035 0 .035.015.035l.035.02c.047 0 .094-.02.13-.118h.019l-.035.13-.309-.036c.031 0 .047-.012.067-.043Zm.535.199c0 .148-.05.195-.098.195-.015-.012-.015-.012-.035-.012l-.012-.02.016-.343q-.001-.024.016-.02h.035c.031 0 .078.051.078.2h.066c0-.168-.082-.215-.164-.215-.066-.016-.164-.016-.164-.016v.016c.02 0 .051.016.051.047l-.016.316q0 .053-.035.047v.02h.149c.082 0 .164-.036.18-.215Zm.477.129c0 .035.015.035.046.035v.02l-.18.011c.016-.012.052-.035.052-.066l-.036-.309c-.015-.035-.035-.035-.066-.035v-.016l.184-.02c-.02.02-.051.036-.036.071Zm.16.035v-.016q.035.001.035-.05l-.067-.344h-.02c-.03.015-.062.047-.046.113h-.016l-.02-.117.298-.047.015.113h-.015c0-.066-.051-.082-.102-.082h-.012l.067.344q0 .051.047.05v.02Zm.703-.332-.07-.195c0-.036-.028-.036-.047-.036v-.015l.082-.035v.02c-.016.015-.016.015-.016.05l.066.21c.016.071.016.169-.082.204-.066.012-.144-.02-.16-.117l-.07-.215c-.012-.035-.031-.035-.047-.035l-.016-.016.16-.05v.019c-.011.015-.03.035-.011.066l.047.211c.015.07.07.102.113.102.05-.02.066-.082.05-.168m.18-.117c.079-.032.067-.079.047-.13-.015-.046-.047-.081-.082-.066-.015 0-.03.02-.015.035Zm0 0 .016.02.031.132q.036.052.07.016v.015l-.152.07-.015-.015c.035-.02.035-.035.035-.07l-.117-.282c-.016-.047-.035-.03-.063-.03v-.017l.16-.07c.07-.012.13 0 .164.07q.024.118-.082.165c-.015 0-.03.015-.03.015ZM20.594 15.441c-.047.02-.114-.05-.164-.164-.047-.097-.047-.199 0-.21.05-.02.117.046.164.148.05.098.05.195 0 .23.101-.035.133-.148.082-.265-.047-.102-.149-.168-.246-.133a.2.2 0 0 0-.098.117.2.2 0 0 0 .016.149c.05.113.148.18.246.132Zm.015-.46h-.03l.097-.067.297.164-.106-.18c-.012-.035-.047-.035-.058-.035v-.015l.082-.036c-.02.02-.036.036 0 .07l.16.333-.016.015-.36-.199.134.246c.011.036.046.036.062.02v.015l-.082.051v-.02q.024-.023 0-.066l-.129-.265Zm.735.05v-.02c0-.015.02-.03 0-.062l-.196-.281h-.02c-.03.016-.046.082 0 .133l-.01.015-.067-.117.242-.164.07.102c-.05-.051-.101-.051-.133-.035l-.02.015.2.281q.037.049.067.02v.012ZM21.527 14.633l.094.117c.016.016.05.016.067 0v.016l-.133.117v-.02c.015-.011.015-.035 0-.062l-.192-.25c-.02-.035-.035-.016-.07-.016l.133-.117v.02c0 .011-.016.035 0 .066l.082.094.097-.063-.078-.117c-.02-.031-.054-.016-.07-.016l.133-.117v.016q-.024.023 0 .07l.195.246q.026.03.05 0l.013.016-.13.117-.015-.016c.016-.02.035-.035.016-.07l-.098-.113Zm.145-.348c-.016-.012-.05-.012-.067 0v-.012l.211-.203.102.102h-.02c-.05-.07-.113-.035-.144-.02 0 .02-.016.02-.035.036q-.002-.001.02.05l.097.098c.012-.016.062-.05 0-.133h.012l.132.152v.012c-.082-.082-.113-.035-.132-.012l.101.094c.016.035.031.035.031.035l.051-.046c.016-.02.032-.07 0-.165h.016l.062.114-.21.21-.016-.011c.015-.02.035-.035 0-.07Zm.39-.46c-.015.015-.015.05.016.066.031.03.067.03.133 0 .031-.016.094-.032.144.015.082.082.047.149.036.184-.016.015-.051.035-.07.047-.012-.004-.02.004-.016.015v.02l-.114-.102h.02c.062.035.129.051.164 0 .031-.035 0-.066-.02-.082-.035-.035-.066-.035-.113 0a.18.18 0 0 1-.164-.015c-.066-.067-.066-.114-.035-.168l.066-.047c.02 0 .02 0 0-.035l.118.082h-.016c-.082-.035-.133-.012-.148.02m.148-.134c-.035-.015-.05 0-.07.02h-.012l.18-.266.113.082-.02.016a.11.11 0 0 0-.144 0c0 .02-.016.035-.016.05-.02 0-.012.012.016.032.015.02.117.086.117.086.016-.02.047-.055-.02-.117v-.02l.165.137c-.098-.055-.118 0-.13.012l.114.082q.047.021.047.02 0-.029.035-.052c.016-.03.031-.082-.035-.148l.015-.016.082.102-.164.246h-.015c.015-.035.015-.05-.016-.082Zm.437-.296-.046.082a.5.5 0 0 1-.098-.118Zm0 0h.036c.015 0 .046.015.062.015.05.016.035.035.02.067h.015l.082-.149c-.035.031-.05.016-.082.016-.343-.067-.375-.082-.375-.082v.015l.258.297c.02.02.02.051.02.07h.015l.047-.082-.016-.019c-.015.035-.035.05-.066 0l-.031-.035.05-.113Zm-.097-.364c-.016.016-.016.051.035.067.047.02.066 0 .113-.036.047-.03.098-.066.16-.03.102.05.082.132.07.163l-.054.07v.032l-.129-.07c.082.015.149 0 .164-.047.02-.035-.015-.067-.035-.086q-.042-.018-.11.035c-.05.05-.1.07-.163.035-.075-.035-.098-.082-.07-.133 0-.035.034-.05.054-.066 0-.02 0-.02-.02-.035v-.016l.133.066h-.015c-.082-.015-.133.02-.133.051" style="stroke:none;fill-rule:nonzero;fill:#00493d;fill-opacity:1"/><path d="M863.248 232.489c-6.197 1.359-10.558 1.925-16.296-3.398-3.902-3.737-2.984-10.532.918-13.024 4.361-2.718 8.148-4.643 13.427-3.284 5.28 1.472 19.166 14.383 15.838 14.95-3.443 0-8.608 3.284-13.887 4.756Zm14.805-22.99c1.95-1.473 4.36-2.379 10.558-2.945 5.738-.453 9.984-.453 11.476 3.964 2.066 5.21 3.443 11.438 7.23 14.27-2.41 1.359-14.46 2.944-18.706.566-5.738-2.945-7.23-14.043-10.558-15.855Zm41.2.453c1.95-1.473 4.36-1.473 10.558-.906 6.197.453 8.607.906 9.984 5.21 1.492 4.87 0 11.098 2.984 15.288-2.984 1.02-12.51 1.02-15.837-2.378-5.28-3.737-4.82-14.836-7.69-17.214Zm0 0" style="fill-rule:nonzero;fill:#fff;fill-opacity:1;stroke-width:1.4;stroke-linecap:butt;stroke-linejoin:miter;stroke:#000;stroke-opacity:1;stroke-miterlimit:4" transform="matrix(.03404 0 0 .0345 -11.984 -.84)"/><path d="M947.943 212.783c-4.246-1.02-7.115-1.36-8.951 0 2.295 2.945.459 14.383 5.164 18.234 3.328 2.378 12.05 2.944 14.001-2.379 2.296-4.87 2.296-12.004-10.099-15.855Zm-49.233-4.757c1.377-1.472 4.246-1.925 9.984-1.925 6.312 0 9.985 1.02 12.05 4.757 1.952 4.87 1.378 11.098 4.706 14.949-1.377 1.925-14.346 1.925-18.133-1.02-5.279-3.397-5.853-14.382-8.607-16.76Zm-40.74 4.304c0-2.378 3.327-2.831 12.05-3.284 8.492-1.02 8.95-.567 11.935 5.662 1.377 3.398 3.213 9.06 7.115 10.986-10.558 2.491-14.001 3.85-19.625.453-4.246-2.492-7.689-6.116-10.099-10.42-.459-1.472-.459-2.944-1.492-3.397Zm0 0" style="fill-rule:nonzero;fill:#073163;fill-opacity:1;stroke-width:1.4;stroke-linecap:butt;stroke-linejoin:miter;stroke:#000;stroke-opacity:1;stroke-miterlimit:4" transform="matrix(.03404 0 0 .0345 -11.984 -.84)"/><path d="M881.037 163.518c-10.1-7.701-22.15-14.95-33.167-16.309a269 269 0 0 1 32.593 25.37" style="fill-rule:nonzero;fill:#f9d050;fill-opacity:1;stroke-width:.6;stroke-linecap:butt;stroke-linejoin:miter;stroke:#000;stroke-opacity:1;stroke-miterlimit:4" transform="matrix(.03404 0 0 .0345 -11.984 -.84)"/><path d="M886.66 156.27c-11.935-8.155-25.822-17.215-39.25-18.12 12.51 7.247 23.642 16.647 32.938 27.746m21.69-22.99a92.4 92.4 0 0 1 23.412-32.164c-4.705 10.08-9.985 30.691-12.395 38.846" style="fill-rule:nonzero;fill:#f9d050;fill-opacity:1;stroke-width:.6;stroke-linecap:butt;stroke-linejoin:miter;stroke:#000;stroke-opacity:1;stroke-miterlimit:4" transform="matrix(.03404 0 0 .0345 -11.984 -.84)"/><path d="M912.596 140.527c4.59-11.325 13.313-20.385 24.445-25.481a98.5 98.5 0 0 0-18.247 34.995" style="fill-rule:nonzero;fill:#f9d050;fill-opacity:1;stroke-width:.6;stroke-linecap:butt;stroke-linejoin:miter;stroke:#000;stroke-opacity:1;stroke-miterlimit:4" transform="matrix(.03404 0 0 .0345 -11.984 -.84)"/><path d="M916.843 150.04c9.295-14.043 22.378-25.028 37.871-31.597-12.05 12.005-29.723 33.976-33.97 42.697m2.87-.567c8.607-4.756 25.936-12.458 38.33-9.966-7.689 2.831-30.641 13.25-40.74 22.99" style="fill-rule:nonzero;fill:#f9d050;fill-opacity:1;stroke-width:.6;stroke-linecap:butt;stroke-linejoin:miter;stroke:#000;stroke-opacity:1;stroke-miterlimit:4" transform="matrix(.03404 0 0 .0345 -11.984 -.84)"/><path d="M921.663 157.176c8.148-8.608 23.067-21.518 38.79-26.728-11.477 10.985-35.921 35.901-39.25 39.752m-22.493-18.234c-5.853-17.78-14.46-34.429-27.314-39.752a130.1 130.1 0 0 1 21.002 48.926m-4.82-9.627c-9.525-11.552-22.494-22.99-37.298-25.369 14.575 9.4 25.936 22.877 33.052 38.733" style="fill-rule:nonzero;fill:#f9d050;fill-opacity:1;stroke-width:.6;stroke-linecap:butt;stroke-linejoin:miter;stroke:#000;stroke-opacity:1;stroke-miterlimit:4" transform="matrix(.03404 0 0 .0345 -11.984 -.84)"/><path d="M892.972 150.947c-11.935-21.518-21.117-25.369-26.396-29.673 4.361 8.155 14.805 29.673 21.002 38.846" style="fill-rule:nonzero;fill:#f9d050;fill-opacity:1;stroke-width:.6;stroke-linecap:butt;stroke-linejoin:miter;stroke:#000;stroke-opacity:1;stroke-miterlimit:4" transform="matrix(.03404 0 0 .0345 -11.984 -.84)"/><path d="M868.986 149.588c6.886 4.303 12.74 9.966 17.215 16.761" style="fill:none;stroke-width:.6;stroke-linecap:butt;stroke-linejoin:miter;stroke:#000;stroke-opacity:1;stroke-miterlimit:4" transform="matrix(.03404 0 0 .0345 -11.984 -.84)"/><path d="M868.986 159.554c2.87 2.492 8.149 5.323 12.969 9.626m44.069-2.378c4.82-3.85 15.263-9.966 20.542-12.005m-23.985 8.72c4.82-6.341 14.46-14.949 17.788-17.78m-4.36-12.005c-6.428 7.135-12.51 14.723-18.248 22.538m5.853-26.841a147.5 147.5 0 0 0-12.05 21.065m-25.822-20.046c2.869 7.701 8.148 20.499 9.984 25.822m-14.345-17.781c2.066 3.058 5.853 9.626 7.23 14.383M897.677 136.11c0-4.303 2.87-9.06 5.853-9.06 3.213 0 5.623 5.776 5.623 9.06 0 3.851-2.869 7.136-5.623 7.136-2.984 0-5.853-2.719-5.853-7.135Zm0 0" style="fill-rule:nonzero;fill:#f9d050;fill-opacity:1;stroke-width:.6;stroke-linecap:butt;stroke-linejoin:miter;stroke:#000;stroke-opacity:1;stroke-miterlimit:4" transform="matrix(.03404 0 0 .0345 -11.984 -.84)"/><path d="M891.48 139.961c.574-4.756 3.787-8.607 6.771-8.154 2.87.34 4.246 6.342 3.787 9.626-.574 3.738-3.787 6.682-6.197 6.116-2.41 0-4.82-3.284-4.361-7.588Zm12.968 1.472c-1.033-4.303.918-9.06 3.902-9.626 2.754-.453 5.624 4.304 6.197 8.154.918 3.85-1.492 7.588-3.902 7.588-2.295.566-5.738-1.812-6.197-6.116Zm0 0" style="fill-rule:nonzero;fill:#f9d050;fill-opacity:1;stroke-width:.6;stroke-linecap:butt;stroke-linejoin:miter;stroke:#000;stroke-opacity:1;stroke-miterlimit:4" transform="matrix(.03404 0 0 .0345 -11.984 -.84)"/><path d="M897.218 145.17c0-4.643 2.87-8.946 5.738-8.946 3.328 0 5.738 5.21 5.738 8.947 0 3.964-2.754 7.248-5.738 7.248-2.869 0-5.738-2.831-5.738-7.248Zm0 0" style="fill-rule:nonzero;fill:#f9d050;fill-opacity:1;stroke-width:.6;stroke-linecap:butt;stroke-linejoin:miter;stroke:#000;stroke-opacity:1;stroke-miterlimit:4" transform="matrix(.03404 0 0 .0345 -11.984 -.84)"/><path d="M888.61 147.55c0-4.304 3.444-8.948 6.198-8.948 2.984 0 5.738 5.663 5.738 8.947 0 3.964-3.328 7.248-5.738 7.248-2.754 0-6.197-2.831-6.197-7.248Zm17.674-1.813c0-4.304 2.984-9.06 5.853-9.06 3.214 0 5.624 5.776 5.624 9.06 0 3.85-2.755 7.135-5.624 7.135-2.984 0-5.853-2.831-5.853-7.135Zm0 0" style="fill-rule:nonzero;fill:#f9d050;fill-opacity:1;stroke-width:.6;stroke-linecap:butt;stroke-linejoin:miter;stroke:#000;stroke-opacity:1;stroke-miterlimit:4" transform="matrix(.03404 0 0 .0345 -11.984 -.84)"/><path d="M904.448 149.588c0-4.757 3.328-9.06 6.197-9.06 2.984 0 5.739 5.21 5.739 8.946 0 3.964-2.87 7.362-5.739 7.362s-6.197-3.058-6.197-7.248Zm0 0" style="fill-rule:nonzero;fill:#f9d050;fill-opacity:1;stroke-width:.6;stroke-linecap:butt;stroke-linejoin:miter;stroke:#000;stroke-opacity:1;stroke-miterlimit:4" transform="matrix(.03404 0 0 .0345 -11.984 -.84)"/><path d="M896.76 153.891c0-4.756 2.868-9.06 5.737-9.06 3.443 0 5.853 5.663 5.853 8.947 0 4.077-3.098 7.362-5.853 7.362-2.869 0-5.853-3.058-5.853-7.249Zm-11.936 0c0-4.756 2.41-9.06 4.82-9.06s4.246 5.663 4.246 8.947c0 4.077-2.41 7.362-4.246 7.362-2.41 0-4.82-3.058-4.82-7.249Zm26.74-.906c0-4.417 2.41-8.72 4.82-8.72s4.82 5.323 4.82 8.607c0 4.304-2.87 7.248-4.82 7.248-2.41 0-4.82-2.944-4.82-7.248Zm0 0" style="fill-rule:nonzero;fill:#f9d050;fill-opacity:1;stroke-width:.6;stroke-linecap:butt;stroke-linejoin:miter;stroke:#000;stroke-opacity:1;stroke-miterlimit:4" transform="matrix(.03404 0 0 .0345 -11.984 -.84)"/><path d="M914.547 161.026c.918-4.756 3.788-8.607 5.624-8.04 2.065.452 2.41 6.115 1.492 9.513-.46 4.303-3.328 6.681-5.28 6.228-1.95-.453-2.869-3.85-1.95-7.587Zm0 0" style="fill-rule:nonzero;fill:#f9d050;fill-opacity:1;stroke-width:.6;stroke-linecap:butt;stroke-linejoin:miter;stroke:#000;stroke-opacity:1;stroke-miterlimit:4" transform="matrix(.03404 0 0 .0345 -11.984 -.84)"/><path d="M905.366 159.554c.574-4.304 3.328-8.607 5.738-8.041 2.87 0 4.247 5.663 3.902 8.947-.459 4.417-2.983 7.361-5.279 6.795-2.41 0-4.82-3.397-4.36-7.701Zm-13.312 1.472c-1.607-4.756-4.476-8.04-6.312-7.588-1.951.34-2.41 6.116-1.492 9.514 1.033 3.85 3.902 6.228 5.738 5.775 1.492-.453 2.984-3.85 2.066-7.587Zm0 0" style="fill-rule:nonzero;fill:#f9d050;fill-opacity:1;stroke-width:.6;stroke-linecap:butt;stroke-linejoin:miter;stroke:#000;stroke-opacity:1;stroke-miterlimit:4" transform="matrix(.03404 0 0 .0345 -11.984 -.84)"/><path d="M888.61 160.12c0-4.303 2.41-8.607 4.82-8.607 2.87 0 4.821 5.323 4.821 8.607 0 4.304-2.41 7.135-4.82 7.135-2.066 0-4.82-2.831-4.82-7.135Zm0 0" style="fill-rule:nonzero;fill:#f9d050;fill-opacity:1;stroke-width:.6;stroke-linecap:butt;stroke-linejoin:miter;stroke:#000;stroke-opacity:1;stroke-miterlimit:4" transform="matrix(.03404 0 0 .0345 -11.984 -.84)"/><path d="M895.841 162.046c0-4.87 2.869-9.06 5.623-9.06 3.443 0 5.853 5.209 5.853 9.06 0 3.85-2.869 7.134-5.853 7.134-2.754 0-5.623-2.83-5.623-7.134Zm2.41-52.776c-1.033 3.85-4.361 7.248-2.066 12.57-4.131-1.585-8.033-2.038-11.361 1.813 4.246-.453 8.033 1.019 9.984 3.85-3.787-.453-5.738 1.473-6.656 3.851 3.328-.906 6.656-1.925 8.148-1.472-1.492 1.472-3.902 3.85-4.246 5.776 2.754-2.379 6.197-1.926 8.033-3.398-1.377 3.398 1.377 6.795 3.787 10.08-.344-4.757 2.41-8.041 1.033-10.533 4.246 1.02 4.82 4.757 11.018 4.757-2.41-1.36-3.788-6.116-6.772-6.116 1.492-.566 7.23-1.02 8.263 0-1.032-2.039-4.36-3.85-6.312-3.85 1.951-2.04 5.28-5.777 7.69-6.796-3.443.453-8.608 1.02-10.444 3.85 4.705-3.85 3.787-10.985 8.952-12.004-2.755-.453-7.116 1.472-10.559 4.87 1.607-2.945 1.607-6.682 3.443-7.701-3.902 1.019-8.148 5.775-9.64 8.154-.115-2.718-.918-5.323-2.295-7.701Zm0 0" style="fill-rule:nonzero;fill:#f9d050;fill-opacity:1;stroke-width:.6;stroke-linecap:butt;stroke-linejoin:miter;stroke:#000;stroke-opacity:1;stroke-miterlimit:4" transform="matrix(.03404 0 0 .0345 -11.984 -.84)"/><path d="M900.546 116.97c0 1.473 0 4.304-.459 5.21m6.656-5.662c-.918 1.02-2.869 4.303-2.869 7.135" style="fill-rule:nonzero;fill:#f9d050;fill-opacity:1;stroke-width:.6;stroke-linecap:butt;stroke-linejoin:miter;stroke:#000;stroke-opacity:1;stroke-miterlimit:4" transform="matrix(.03404 0 0 .0345 -11.984 -.84)"/><path d="M909.727 122.18c-1.606 1.02-2.869 2.605-3.443 4.417" style="fill:none;stroke-width:.6;stroke-linecap:butt;stroke-linejoin:miter;stroke:#000;stroke-opacity:1;stroke-miterlimit:4" transform="matrix(.03404 0 0 .0345 -11.984 -.84)"/><path d="M858.887 169.747c-3.443-.114-6.082-1.36-8.148-3.85-3.328-4.418-12.394-6.343-16.296-2.38-1.492 1.02-3.328 1.02-4.706 1.36-2.41 0-5.393 2.378-4.475 7.248 2.065-1.472 2.41 0 3.902 0 1.032-.566.573.453.573 1.36 0 2.377 5.165 7.247 9.985 6.681 5.279 0 7.689 2.039 8.607 3.058 1.492 1.246.46.906 1.492 3.284 1.377 1.36 1.836 1.926-.574 3.738-2.18 1.925-3.443 4.643-3.443 7.474 0 2.945 1.263 5.663 3.443 7.475 6.197 4.757 22.035 12.005 39.823-2.039 17.214-13.363 44.069-5.662 46.02-.906 2.41 4.87 3.328 7.702 3.787 10.08.574 1.925 2.87 3.85 6.312 3.398 3.328 0 7.115 1.359 9.066 2.83 2.41 1.473 5.739 1.02 4.82-3.397-1.95-13.364-10.099-15.289-11.017-21.405 4.705.34 8.034.34 10.1-1.585 1.377-1.925 3.213-5.323 5.278-6.116 1.378-1.02 1.378-2.038-.573-1.585-2.41.566-3.788 1.585-8.149 1.019-22.034-2.378-83.777-19.14-95.827-15.742Zm0 0" style="fill-rule:nonzero;fill:#059334;fill-opacity:1;stroke-width:1.4;stroke-linecap:butt;stroke-linejoin:miter;stroke:#000;stroke-opacity:1;stroke-miterlimit:4" transform="matrix(.03404 0 0 .0345 -11.984 -.84)"/><path d="M956.665 186.055c-3.672 2.492-6.77 5.776-9.18 9.513-4.706 6.23-19.051 12.458-36.84 12.458-17.214 0-27.772-2.831-35.461-9.06-3.329-2.605-6.771-4.87-10.559-6.795-5.279-2.378-6.197-7.701-4.82-12.005-1.377 2.378-2.295 4.87-5.164 4.304-2.066 0-5.853 0-4.82 2.038-.574-1.02-.574-2.378-1.033-3.058l-1.033-.906c1.492 1.02 4.935-1.812 7.345-1.812 1.951.453 4.246-1.925 3.787-4.87l-1.377-6.115c3.787-2.039 54.054 7.135 64.153 8.04 9.984.567 38.79 4.757 35.002 8.268Zm0 0" style="fill-rule:nonzero;fill:#000001;fill-opacity:1;stroke-width:1.4;stroke-linecap:butt;stroke-linejoin:miter;stroke:#000;stroke-opacity:1;stroke-miterlimit:4" transform="matrix(.03404 0 0 .0345 -11.984 -.84)"/><path d="M865.544 167.821c4.82-4.87 10.558-7.248 16.41-5.775h1.378c2.984-2.492 9.525-2.945 13.427-1.02h1.951c5.738-1.925 16.64 0 20.543 3.85l1.492 1.02c12.968-1.02 20.542 4.757 29.608 13.93 1.033 1.02 2.41 2.718 4.82 3.285 2.984.453 3.443 2.038 1.033 3.397-3.902 2.379-7.23 5.436-9.984 8.947-4.476 5.89-18.362 11.665-35.577 11.665-16.755 0-26.854-3.058-34.543-8.72-4.247-3.285-7.575-5.21-9.985-6.682-2.869-1.02-6.77-4.87-5.279-8.607.918-3.851-1.492-8.608-3.328-13.364 1.377-1.02 5.164-2.492 7.115-1.473Zm0 0" style="fill-rule:nonzero;fill:#059334;fill-opacity:1;stroke-width:1.4;stroke-linecap:butt;stroke-linejoin:miter;stroke:#000;stroke-opacity:1;stroke-miterlimit:4" transform="matrix(.03404 0 0 .0345 -11.984 -.84)"/><path d="M950.353 179.826c-8.951-9.173-16.64-14.95-29.608-14.043 0 .566 0 2.038-.574 3.058 9.066 3.964 17.1 10.08 23.526 17.667 1.951-2.038 5.28-4.303 6.656-6.682Zm-31.1-14.95c-3.902-3.736-14.805-5.775-20.543-3.736 0 1.812 0 4.756-1.033 6.681 3.443 1.36 6.197 4.757 9.066 8.041 2.066-.453 6.771-1.812 9.182-2.378 1.377-2.718 2.524-5.55 3.328-8.607Zm-22.494-3.85c-3.902-1.925-10.558-1.472-13.427 1.02-1.033 1.925-1.377 5.775-1.377 7.7 1.95 0 4.705 1.36 5.623 2.38 2.984-1.02 6.771-2.946 8.263-4.305.459-2.038 1.377-4.87.918-6.681Zm-31.216 6.795c4.82-4.87 10.559-7.248 16.412-5.775-1.033 1.472-1.492 4.303-1.492 7.134-5.28-.453-11.936 1.02-14.92 2.945Zm0 0" style="fill-rule:nonzero;fill:#00493d;fill-opacity:1;stroke-width:1.4;stroke-linecap:butt;stroke-linejoin:miter;stroke:#000;stroke-opacity:1;stroke-miterlimit:4" transform="matrix(.03404 0 0 .0345 -11.984 -.84)"/><path d="M941.746 187.414c-5.967-7.135-13.427-12.91-21.92-16.761 0 .453-1.032 2.378-1.491 3.85 2.869 4.304 8.607 13.93 11.017 19.253 2.295-1.019 9.066-3.963 12.394-6.342Zm-36.38 10.533a139 139 0 0 0 1.377-19.593c2.41-.566 7.23-1.925 9.182-2.492 2.41 3.964 8.148 14.044 10.558 18.687-5.738 1.472-15.379 3.85-21.117 3.398Zm-16.755-22.99c2.41-.907 5.738-2.945 8.033-4.757 2.066 1.359 5.853 4.756 7.23 6.682 0 4.303-1.377 16.874-1.836 21.065-3.787 0-9.984-.906-13.427-2.832.459-7.248 1.033-15.289 0-20.159Zm-23.986 5.775c.46-1.019.918-4.303.918-5.776 3.902-2.378 13.428-4.756 20.658-.906.459 4.757 0 16.762-.46 19.706-6.426-5.322-13.541-9.626-21-13.024Zm0 0" style="fill-rule:nonzero;fill:#00493d;fill-opacity:1;stroke-width:1.4;stroke-linecap:butt;stroke-linejoin:miter;stroke:#000;stroke-opacity:1;stroke-miterlimit:4" transform="matrix(.03404 0 0 .0345 -11.984 -.84)"/><path d="M16.633 5.094c-.035 0-.055-.098-.117-.098-.016 0-.067.02-.082 0 .003.04.011.066.035.082.015.05.097.02.164.02Zm0 0" style="stroke:none;fill-rule:nonzero;fill:#000001;fill-opacity:1"/><path d="M840.755 180.166c5.623 0 6.656-7.135 9.525-7.588m-6.312 8.154c4.361 1.926 7.69-8.154 11.017-7.7m-19.624-4.758c1.492 0 2.41-1.925 4.82.453 1.147 1.02 2.295 1.473 3.443 1.473m-1.033 5.21c-1.951 2.944-5.28 4.756-7.23 3.85m-.918-15.742c-1.492 1.02-2.296 2.831-3.328 4.303m-1.378 2.832v2.378" style="fill:none;stroke-width:1.4;stroke-linecap:butt;stroke-linejoin:miter;stroke:#000;stroke-opacity:1;stroke-miterlimit:4" transform="matrix(.03404 0 0 .0345 -11.984 -.84)"/><path d="M21.703 7.2v3.218c0 2.793-1.305 3.754-3.05 4.512-1.747-.758-3.063-1.72-3.063-4.512V7.195h6.113Zm0 0" style="stroke:none;fill-rule:nonzero;fill:#fff;fill-opacity:1"/><path d="M18.652 9.922c.149 0 .375-.129.57-.332.215-.23.575-.309.95 0 .375.312.601.183.8 0 .192-.18.356-.246.731-.246V7.199h-6.117v2.149c.375 0 .539.066.734.246.196.183.422.316.801 0 .39-.309.73-.23.961 0 .18.199.406.332.57.332Zm0 0" style="stroke:none;fill-rule:nonzero;fill:#c8102e;fill-opacity:1"/><path d="M18.652 11.578c.2 0 .59-.219.684-.265.363-.22.621-.02.836.082.226.097.648.214.91 0 .262-.215.41-.2.59-.2.035-.25.035-.496.035-.777v-.2c-.234-.046-.344.016-.59.235s-.523.164-.887.035c-.34-.152-.68-.414-1.023 0a.82.82 0 0 1-.555.278c-.246 0-.457-.164-.554-.278-.356-.414-.684-.152-1.028 0-.36.13-.652.18-.894-.035-.23-.219-.344-.281-.59-.234v.199c0 .281.016.527.047.777.18 0 .312-.02.574.2.258.218.7.097.914 0 .227-.102.488-.301.848-.082.097.046.472.261.683.261Zm0 .711a1.7 1.7 0 0 0 .801-.25c.328-.184.555-.101.883.066.34.165.617.114.816 0 .094-.07.176-.199.387-.148a3.7 3.7 0 0 1-.422 1.074c-.281.09-.586.067-.851-.066-.34-.168-.766-.266-.993-.117a1.2 1.2 0 0 1-.62.199c-.18 0-.407-.07-.618-.2-.23-.148-.656-.05-.996.118-.262.137-.57.16-.852.07a4 4 0 0 1-.421-1.078c.21-.05.293.082.39.148.25.141.555.141.801 0 .34-.164.57-.25.895-.07.242.149.52.238.8.254m0 2.64a6.5 6.5 0 0 0 1.746-1.023c-.132-.047-.21-.02-.328-.101-.113-.082-.453-.114-.746.054a1.33 1.33 0 0 1-1.34 0c-.293-.168-.636-.136-.746-.054-.113.082-.199.054-.332.105a6.2 6.2 0 0 0 1.746 1.02" style="stroke:none;fill-rule:nonzero;fill:#0b50a0;fill-opacity:1"/><path d="M887.578 256.385c.574 1.02-.344 3.398 0 4.304 1.033 2.039 1.033 3.058 2.41 3.964h3.443c10.443 0 22.953-4.304 33.51-4.304 10.1 0 16.297 3.285 21.92 3.285 3.443 0 6.313-2.379 6.313-4.87 0-2.379-3.788-3.738-11.936-3.738-11.59 0-17.788 2.832-27.313 2.832-14.46 0-16.87-5.21-16.87-7.702 0-2.378 2.41-5.662 10.098-5.662 2.525 0 4.247-.453 5.394-1.473.46-1.019 1.837-2.944 4.706-4.303 3.328-2.039 10.099 0 13.427-2.378 0 1.925-2.87 4.756-5.28 5.775 4.82-1.472 9.985-1.472 11.018 2.379-2.41-1.473-6.197-.453-7.574 0-2.066.453-2.984 1.02-4.82 1.359 1.836-.453 2.869 3.397 5.623 3.397-2.754 2.379-7.574 2.379-12.394.453-1.492-.453-5.28-1.925-7.69-1.925-4.82 0-7.689 1.02-7.689 2.945 0 2.378 2.984 3.737 11.477 3.737 8.722 0 13.542-2.378 26.395-2.378-.918-1.36.574-2.832-1.377-4.304 4.82 0 9.984 1.472 12.05 4.87-.574-3.398 2.295-6.229 1.377-9.173 2.87.566 5.28 3.284 5.739 5.775 0-1.472 1.95-1.472 1.95-2.83 2.87 1.358 4.361 4.53 3.788 7.587 1.377-2.378 2.983-1.359 3.787-4.304 1.033 2.039.574 7.702-2.87 9.627 2.985-2.039 7.23-2.039 10.1 1.359-2.87-.34-4.246 1.02-5.738 1.472-6.886 3.624-14.69 5.323-22.609 4.87-7.574-.566-8.492-2.038-13.312-2.038 2.869.453 8.607 6.342 14.001 6.342 3.328 0 5.623-.113 7.115-.566 1.377-.454 3.788 0 5.624 1.019 1.492 1.359 4.475 2.831 6.312 2.378-.46 1.812-1.492 2.945-2.87 3.284 2.41 1.586 1.033 2.492 3.443 4.304-1.032 0-2.065 1.02-3.442.566 1.377 1.36 1.377 3.398 2.869 4.304-.46 0-1.951.453-2.87 0 1.378 1.925 0 4.304 1.378 5.323 1.492 1.925-1.377 4.303-3.787 2.378.459 1.36-1.033 2.831-2.41 2.378s-2.41-2.038-1.951-2.378c0-.566 0-.566.573-1.02-1.032 1.473-2.869 1.473-3.902 1.02-.459-.566-1.032-1.02-1.032-1.472-3.329 1.02-4.706-1.925-4.132-3.398.46-1.359 3.213-1.925 4.246-1.359 1.033.453 1.951 1.02 2.87 0 1.032-.566 1.491-1.359 1.491-2.378 0-1.472-1.492-5.776-7.804-5.323-7.115.453-18.706-1.359-24.33-3.398-.573-.453-1.032-.453-1.491-1.019 0 2.039-1.951 3.058-1.951 4.87 0 2.492 1.033 4.304 3.902 5.21-1.492 2.491-3.902 2.038-4.82.566 0 1.472-1.951 2.378-1.951 4.304-.46-1.02-1.033-1.473-1.377-2.379-1.492 3.398-5.28 5.21-7.23 4.304-2.41 1.925-5.165 1.472-6.198-.453-1.377 1.02-3.443 1.02-4.36 0 0 1.359-.919 1.02-1.493 2.944 0 .906-1.836 1.36-2.754.906-1.033-.566-1.492-2.491-.459-3.397q-2.411 1.53-3.787 0c0-.906 0-2.378.918-2.945h.918c-1.033-.453-2.41 0-3.443-.453-.918-.906-.918-1.925-.459-2.831.46-.566 2.066-1.472 2.984-.566l.459.566c0-1.133.344-1.812.918-1.925 1.033-.453 2.295-.453 3.902 1.019.918 1.359 1.836 1.359 4.705 1.02 2.41 0 6.197-2.492 9.067-4.984-8.034-1.359-3.329-6.682-.919-8.607-1.95-.453-4.82-.453-6.656.566-10.099 5.323-20.657 11.439-27.313 9.627.114 1.019.459 1.925.918 2.718-1.492 0-4.361 0-5.28-1.36-.458 1.02-1.377 3.398-.458 5.324-1.033-1.02-3.788-2.039-5.28-2.379.919.906 0 2.832.46 4.304-1.378-1.472-3.788-2.492-4.82-1.472-.919 1.019-2.87 1.472-4.247 1.019-1.033 1.246-2.295 2.265-3.787 2.831 0-1.02 0-2.378-.574-2.944-.459 1.472-1.95 3.397-3.787 4.303 0-1.02 0-2.378-.459-3.284 0 1.925-3.787 2.944-4.361 4.303.459-1.585.574-2.83.574-3.85-1.033 1.812-2.87 2.944-4.82 3.397.344-1.019 1.033-2.038.344-2.944-.344 2.038-3.213 2.944-5.623 2.378 0 1.02-2.066 2.378-4.361 1.02-1.492-.454-2.41-2.04-1.492-2.945-1.837 0-3.787-1.812-2.755-3.284.115-.453.23-.906.345-1.473-1.377-1.019-1.837-2.944-.345-4.303.345-.453 1.837-.453 2.755-.453 0-3.851 3.443-3.851 4.82-1.02 1.033 1.473 3.902 3.85 6.312 3.398 1.033 0 1.377-.566 2.41-.566 4.246-1.36 8.377-3.511 11.935-6.116.344-1.359.46-2.492.46-3.398-1.952 1.02-3.788 1.926-4.82 3.398v-1.472c-1.378 0-3.788-.453-4.82-.453.573-.567 1.032-2.945 2.065-3.398-2.41.453-4.82 0-6.886-.453 1.033-1.02 1.033-2.378 1.492-3.85-.918.453-3.328-.454-5.28 0 .575-1.36 1.034-3.285 2.41-3.851-1.95.453-4.245.113-6.655-1.02 1.95 0 2.869-2.378 4.246-2.378-3.787 0-4.82-1.812-6.656-2.718 1.377.34 2.41-1.02 3.787-1.02-1.377-.565-3.787-2.944-2.755-4.303-.459.68-1.147 1.36-2.065 1.926-1.033.453-2.755 0-4.247-1.473-1.032-1.925-.573-4.303 1.492-4.756-.918-.114-1.721-.68-2.065-1.473-.23-.906-.115-1.812.573-2.491.46-.906 2.41-2.265 3.329-.906l1.492 1.925c-.574-1.02-.574-2.831-.574-4.303.574-1.36 1.492-1.36 2.984-1.926 1.377 0 2.295 1.472 2.295 2.945 0 1.359.574 2.265 1.033 4.303l.459-2.038c0-1.812 2.295-1.36 3.902-.906 1.377.566 1.836 3.397 0 4.87-1.033 1.019-.574 2.378.459 3.284 3.328 5.323 8.951 9.627 13.886 10.08.115-2.039.918-3.738 2.41-5.323 0-1.02.344-2.379 1.033-3.285.344-2.831 1.721-4.303 3.672-3.397-.459-.453-1.032-1.02-1.032-1.36-1.378-1.472-2.755-3.963-1.837-5.775 1.033-1.926 3.902-1.472 4.82-.453-.459-2.945 2.87-5.323 2.87-6.795.458 1.472 1.491 3.397.918 4.756.573-1.812 3.901-4.303 6.197-5.21-.918 1.473 2.065 3.851 1.492 5.21 1.033-2.378 4.82-3.737 7.689-3.737-1.033 1.02-1.033 2.831-1.033 3.737 1.492 0 4.017-.34 4.935-1.812 0 1.925-1.033 3.85-2.066 4.757.574-.453 2.41-.453 3.902-.453-1.492 1.472-.918 2.944-2.41 3.85 1.95-1.019 4.36-1.019 4.82 1.02 1.033 1.359-.46 3.737-1.492 5.21-1.033.452-1.836 1.358-2.41 1.358Zm0 0" style="fill-rule:nonzero;fill:#f9d050;fill-opacity:1;stroke-width:1.4;stroke-linecap:butt;stroke-linejoin:miter;stroke:#000;stroke-opacity:1;stroke-miterlimit:4" transform="matrix(.03404 0 0 .0345 -11.984 -.84)"/><path d="M857.97 262.161c-3.329 1.473-4.362 4.87-4.82 6.795" style="fill:none;stroke-width:1.4;stroke-linecap:butt;stroke-linejoin:miter;stroke:#000;stroke-opacity:1;stroke-miterlimit:4" transform="matrix(.03404 0 0 .0345 -11.984 -.84)"/><path d="M857.51 265.446c-4.82 3.057-6.77 5.323-5.853 10.645m8.148 3.964c2.984-1.019 4.82-2.038 7.23-6.342" style="fill:none;stroke-width:1.4;stroke-linecap:butt;stroke-linejoin:miter;stroke:#000;stroke-opacity:1;stroke-miterlimit:4" transform="matrix(.03404 0 0 .0345 -11.984 -.84)"/><path d="M865.544 275.638c-.919 1.926 0 5.21-1.378 6.682 2.64-1.359 4.361-3.85 4.82-6.682" style="fill:none;stroke-width:1.4;stroke-linecap:butt;stroke-linejoin:miter;stroke:#000;stroke-opacity:1;stroke-miterlimit:4" transform="matrix(.03404 0 0 .0345 -11.984 -.84)"/><path d="M866.576 280.848c1.951-.906 4.82-3.85 6.198-7.135-.46 1.36 0 3.737-.919 5.323 2.296-2.492 3.329-3.964 3.788-6.342l.459 2.038c1.033-1.019 1.95-2.038 1.95-3.963m0 1.472v2.378c1.952-1.472 2.41-3.284 2.41-5.663" style="fill:none;stroke-width:1.4;stroke-linecap:butt;stroke-linejoin:miter;stroke:#000;stroke-opacity:1;stroke-miterlimit:4" transform="matrix(.03404 0 0 .0345 -11.984 -.84)"/><path d="M880.004 271.788c2.869-2.039 3.328-4.757 3.328-9.06m0 4.756c1.95-1.472 2.41-2.378 2.41-6.795m-6.197-12.91c-1.033 0-2.066.565-2.066 2.038 0 .906-1.377 2.265-1.377 3.737-.46 1.925-1.377 2.492-2.755 1.925-1.492-1.019-1.492-1.019-1.492-2.378 0-2.039 2.296-2.378 2.296-4.304.574-1.019 1.033-2.378 1.492-2.378-2.296 1.36-5.739.34-6.198-2.378" style="fill:none;stroke-width:1.4;stroke-linecap:butt;stroke-linejoin:miter;stroke:#000;stroke-opacity:1;stroke-miterlimit:4" transform="matrix(.03404 0 0 .0345 -11.984 -.84)"/><path d="M883.79 249.25c-1.032.453-1.95-1.019-3.327-.453-.46 0-1.951.453-2.41 0" style="fill:none;stroke-width:1.4;stroke-linecap:butt;stroke-linejoin:miter;stroke:#000;stroke-opacity:1;stroke-miterlimit:4" transform="matrix(.03404 0 0 .0345 -11.984 -.84)"/><path d="M877.135 251.629c.459.453 2.869 1.472 5.279.453-2.066.566-3.443-1.926-1.492-3.285m-8.148-2.038c-1.951 0-3.329 1.585-2.87 3.058.46 1.359 2.41 1.359 3.788.34m-4.247 20.612c.574-.68.919-1.246.919-1.926 1.147 0 1.95-.34 2.41-.906 1.95 0 3.328-1.472 3.787-2.831 1.033 0 1.492-2.378 2.065-3.398.345.453 1.378 0 1.837-2.038 1.033.68 2.41 0 2.869-1.36m-19.625-3.284c0 .453-1.033 1.36-1.95 1.926.458.906 0 3.397-.919 3.737.46 1.02 0 2.378-.574 3.398 0 .566.574 2.038.574 2.378m4.706-21.065c-.919 2.378-.46 5.323 1.491 5.776" style="fill:none;stroke-width:1.4;stroke-linecap:butt;stroke-linejoin:miter;stroke:#000;stroke-opacity:1;stroke-miterlimit:4" transform="matrix(.03404 0 0 .0345 -11.984 -.84)"/><path d="M866.576 252.988c-.459 2.491-.459 5.776-1.033 7.361-.459.906-1.377 4.304 2.41 5.097 4.362 1.019 6.772.566 9.182-6.682m7.115 18.686c0 .567-.46 1.586-1.377 1.586m4.705-2.492c0 1.02-1.033 2.492-1.377 2.832m4.82-3.738c0 .906 0 2.379-1.033 2.832m-28.232-32.617c.46 0 1.033 1.02 1.492 1.925-1.492-1.02-2.984 1.472-2.065 2.945m-.919 3.284-1.836 1.472m.46 2.832c-.46 0-1.034.453-1.378.453m-21.575-9.06c0-.454 0-.454.459-1.02m-4.82-.34c-.46 0-.46 0-.918-.566m1.377 7.248h.918m-2.87-2.944c-.688-.68-1.72-1.246-2.754-1.36m29.15 19.14c-3.328 2.832-4.82 5.21-5.279 8.608m8.607-6.23c-.803 1.7-2.18 3.285-3.787 4.304m-14.804 10.08c-3.214 1.02-6.771.453-9.64-1.472-.46-.453-.918-.453-1.492-.906m25.362-4.19c-.344 1.698-.918 4.19-1.836 4.643 3.902-2.039 7.23-4.757 7.69-9.06m-33.626 13.363c1.492-.453 2.984.453 3.902-.453m79.53-15.402c1.033.566 2.41 1.02 2.87 1.472.573-1.02 2.41-2.378 3.787-2.831m-40.626 11.552c-.574-2.039.459-4.304 3.328-5.323m-22.035 13.364c.46-1.02.46-2.379.918-3.285m-22.034 4.757c-.46 1.02-1.377 1.925-1.377 2.831m-5.853-1.925s0-.453.574-.453c.918-.453 2.295-1.36 2.869-2.378m61.742-3.851c-.918.566-1.377 0-1.836-.453m1.377 2.831s-.459.567-1.033.567m3.443 1.925c-.574.566-1.033.906-1.377.906m15.263 0c.919-.34 1.607-1.472 1.951-3.398m-8.148 2.945c1.377-.453 2.41-1.472 3.787-2.945m9.64-.906c-.114-1.019.115-2.038.46-2.831m35.002 7.135c-1.033-.906-1.033-2.378.46-3.398 1.032-.453 1.491-.906 2.41-1.359" style="fill:none;stroke-width:1.4;stroke-linecap:butt;stroke-linejoin:miter;stroke:#000;stroke-opacity:1;stroke-miterlimit:4" transform="matrix(.03404 0 0 .0345 -11.984 -.84)"/><path d="M924.532 275.978c-7.69-3.284-7.116-7.588-13.428-7.022m47.512 22.085c.46.34 0 1.812 0 2.265m4.247-2.265c-.46 1.359-.46 1.812-.46 3.284m-36.38-48.472h-4.016m-36.265 16.308c0 1.02 1.492 2.945 5.279 2.945-.574 0-1.033-.453-1.033-.453m-2.41-8.268c-.344.567-1.033 0-1.033 0-.803-1.019.689-2.831 2.066-3.737-1.377.34-2.525.566-3.443.453-.918 2.945-3.787 4.304-5.623 2.378-.574 1.926-2.984 4.304-4.82 3.85-1.837-1.132-2.525-2.377-2.066-3.85-2.295 2.832-5.165 1.02-6.083 0-.459-1.019 0-3.397 1.033-6.229" style="fill:none;stroke-width:1.4;stroke-linecap:butt;stroke-linejoin:miter;stroke:#000;stroke-opacity:1;stroke-miterlimit:4" transform="matrix(.03404 0 0 .0345 -11.984 -.84)"/><path d="M19.273 8.633c-.05.035-.101 0-.148.05-.031.036.02.047.047.047-.012.055-.012.07.07.07-.035.048.063.067.047.134.04-.047.05-.11.035-.168-.02-.051-.101-.082-.05-.133" style="stroke:none;fill-rule:nonzero;fill:#000;fill-opacity:1"/><path d="M17.79 8.105q-.095-.058-.071-.132c-.016.03-.04.05-.078.05-.067.149-.145.282-.243.282-.117.011-.101.133-.02.133.18.03.263-.036.411-.333m-1.613-.398c.047-.047.012-.098-.02-.113a.18.18 0 0 0-.195.078c.05-.012.101-.012.113.02.02.035.051.066.102.015m.082-.297c.11 0 .144.02.16.067.016.035-.016.082-.05.082-.048 0-.098-.036-.079-.047.016-.035.016-.082-.035-.106Zm.32.262c.082.02.117-.031.07-.094q-.03-.082-.148-.07c.078.05 0 .133.078.164m-.601.285c.03.059.101.09.164.066.047-.02.066-.066.047-.101-.032-.047-.083-.067-.094 0-.035.07-.082.05-.117.035m.246 1.008c-.035-.067-.13-.067-.211 0 .035-.02.093 0 .113.031.016.035.05.035.066.035.016-.015.047-.035.032-.066m.129-.098c0-.082-.114-.105-.176-.07.031 0 .082.035.082.07a.07.07 0 0 0 .062.047c.035-.016.047-.035.035-.047Zm-.165.297c-.093-.02-.144.098-.144.18.016-.051.066-.082.113-.067q.071 0 .067-.047c.015-.035 0-.05-.035-.07Zm.02.277c.031.02.066-.015.082-.062 0-.035.066-.035.078-.02.035.02.035.082-.015.118-.036.02-.114.035-.145-.036m2.266-.496c-.035-.011-.114-.047-.176 0a.08.08 0 0 1 .094.051c0 .035.05.05.066.02.016-.02.035-.051.016-.07m-.149.117c-.062-.036-.144.05-.16.117a.23.23 0 0 1 .113-.051q.06.024.067-.035.031-.025-.02-.031m.086.136c-.05 0-.113.063-.113.13q.023-.054.082-.036c.031 0 .078-.016.078-.047q0-.051-.05-.05Zm.145.13c-.035-.017-.082 0-.082.05 0 .047 0 .098-.016.117a.3.3 0 0 1 .098-.07c.015-.016.035-.067 0-.098m1.843-.148c-.035-.035-.082-.016-.097.015a.21.21 0 0 0 0 .184c0-.035.035-.086.066-.086.047-.016.063-.082.031-.113m.098.066c-.066.035-.066.149-.016.215 0-.035.016-.082.047-.102.051 0 .07-.066.051-.097-.031-.032-.066-.016-.082-.016m.195.066c-.035-.019-.066.016-.066.047-.016.051.02.118.066.149a.13.13 0 0 1 .036-.082c.046-.035.03-.098-.036-.114m.149-.019c-.035 0-.067.05-.035.102q.018.052.113.035c-.016 0-.047-.051-.031-.07q.023-.058-.047-.067" style="stroke:none;fill-rule:nonzero;fill:#073163;fill-opacity:1"/><path d="m16.305 12.387.816-2.547.817 2.547-2.141-1.57h2.648Zm0 0" style="stroke:none;fill-rule:nonzero;fill:#f9d050;fill-opacity:1"/><path d="m16.469 12.152 1.695-1.254h-2.09l1.68 1.254-.633-2.011Zm0 0" style="stroke:none;fill-rule:nonzero;fill:#024919;fill-opacity:1"/><path d="m19.371 12.387.817-2.547.816 2.547-2.14-1.57h2.648Zm0 0" style="stroke:none;fill-rule:nonzero;fill:#f9d050;fill-opacity:1"/><path d="m19.535 12.152 1.695-1.254h-2.085l1.675 1.254-.633-2.011Zm0 0" style="stroke:none;fill-rule:nonzero;fill:#024919;fill-opacity:1"/><path d="m17.836 14.184.816-2.543.817 2.543-2.14-1.567h2.648Zm0 0" style="stroke:none;fill-rule:nonzero;fill:#f9d050;fill-opacity:1"/><path d="m18 13.953 1.695-1.254H17.61l1.676 1.254-.633-2.012Zm0 0" style="stroke:none;fill-rule:nonzero;fill:#024919;fill-opacity:1"/><path d="M989.717 233.055v93.32c0 80.977-38.33 108.837-89.63 130.808-51.299-21.971-89.974-49.831-89.974-130.807v-93.434h179.604Zm0 0" style="fill:none;stroke-width:1.4;stroke-linecap:butt;stroke-linejoin:miter;stroke:#000;stroke-opacity:1;stroke-miterlimit:4" transform="matrix(.03404 0 0 .0345 -11.984 -.84)"/></svg>