<svg xmlns="http://www.w3.org/2000/svg" width="25" height="px" viewBox="0 0 25 19"><path d="M0 0h25v19H0z" style="fill:#00abc2;fill-opacity:1;stroke:none"/><path d="M16.031 7.98c0-1.414-1.129-2.558-2.523-2.558s-2.524 1.144-2.524 2.558c0 1.41 1.13 2.56 2.524 2.56s2.523-1.15 2.523-2.56M13.508 5.074c.148 0 .207-.097.207-.21 0-.153-.207-.876-.207-.876s-.207.723-.207.875c0 .114.058.211.207.211M16.375 7.98c0 .153.094.207.207.207.152 0 .863-.207.863-.207s-.71-.21-.863-.21c-.113 0-.207.058-.207.21M13.508 10.887c-.149 0-.207.093-.207.21 0 .15.207.876.207.876s.207-.727.207-.875c0-.118-.059-.211-.207-.211M10.64 7.98c0-.152-.093-.21-.206-.21-.153 0-.864.21-.864.21s.711.207.864.207c.113 0 .207-.054.207-.207M14.605 5.297c.141.055.227-.012.27-.117.059-.14.14-.887.14-.887s-.464.586-.523.727c-.043.105-.027.218.113.277M16.156 9.09c-.054.144.008.23.114.277.14.055.878.14.878.14s-.582-.468-.722-.527c-.102-.043-.211-.027-.27.11M12.41 10.664c-.14-.055-.226.008-.27.113-.058.141-.14.891-.14.891s.465-.59.523-.73c.043-.106.028-.215-.113-.274M10.86 6.867c.054-.14-.008-.23-.114-.273-.14-.059-.879-.14-.879-.14s.582.468.723.526c.101.043.21.028.27-.113M15.535 5.926c.106.105.215.078.293 0 .106-.11.465-.77.465-.77s-.652.364-.758.473c-.078.082-.105.187 0 .297M15.535 10.035c-.105.11-.078.215 0 .297.106.105.758.469.758.469s-.36-.656-.465-.766c-.078-.082-.187-.11-.293 0M11.48 10.035c-.105-.105-.214-.082-.293 0-.105.11-.464.766-.464.766s.652-.364.757-.469c.079-.082.106-.191 0-.297M11.48 5.926c.106-.11.079-.215 0-.297-.105-.11-.757-.473-.757-.473s.359.66.464.77c.079.078.188.11.293 0M16.156 6.867c.059.14.168.156.27.113.14-.058.722-.527.722-.527s-.738.082-.878.14c-.106.044-.172.134-.114.274M14.605 10.664c-.136.059-.156.168-.113.274.059.14.524.73.524.73s-.082-.75-.141-.89c-.043-.106-.133-.173-.27-.114M10.86 9.09c-.06-.137-.169-.152-.27-.11-.14.06-.723.528-.723.528s.738-.086.88-.14c.105-.048.171-.138.112-.278M12.41 5.297c.137-.063.156-.172.113-.277-.058-.141-.523-.727-.523-.727s.082.746.14.887c.044.105.133.175.27.117M14.07 5.133c.149.027.22-.055.242-.168.032-.149-.03-.899-.03-.899s-.344.668-.376.817c-.02.113.016.219.164.25M16.32 8.55c-.027.15.051.223.164.247.145.027.887-.035.887-.035s-.66-.348-.808-.375c-.11-.024-.215.011-.243.164M12.945 10.828c-.148-.027-.218.055-.242.168-.031.149.031.899.031.899s.344-.668.375-.817c.02-.113-.015-.219-.164-.25M10.695 7.41c.028-.148-.05-.223-.164-.246-.144-.031-.886.035-.886.035s.66.344.808.375c.11.024.215-.015.242-.164M15.102 5.566c.125.082.226.036.289-.058.082-.13.308-.844.308-.844s-.57.484-.652.61c-.063.093-.07.206.055.292M15.89 9.598c-.081.125-.035.226.06.289.124.086.831.312.831.312s-.48-.574-.601-.66c-.094-.062-.207-.07-.29.059M11.914 10.395c-.125-.082-.226-.036-.289.058-.082.125-.309.844-.309.844s.57-.485.653-.61c.062-.097.07-.207-.055-.292M11.125 6.363c.082-.125.035-.226-.059-.289-.125-.086-.832-.316-.832-.316s.48.578.602.664c.094.062.207.066.289-.059M15.895 6.367c.082.125.19.121.285.059.125-.086.605-.66.605-.66s-.707.226-.832.312c-.094.063-.144.164-.058.29M15.098 10.398c-.121.086-.118.196-.055.29.082.128.652.613.652.613s-.226-.719-.308-.844c-.063-.094-.164-.145-.29-.059M11.121 9.594c-.082-.13-.191-.121-.285-.059-.125.086-.606.66-.606.66s.707-.226.832-.312c.094-.063.145-.164.06-.29M11.918 5.563c.121-.086.117-.196.055-.29-.082-.128-.653-.613-.653-.613s.227.719.309.844c.062.094.164.144.289.059M16.32 7.414c.032.152.133.188.242.164.149-.027.81-.375.81-.375s-.74-.062-.888-.035c-.109.023-.195.098-.164.246M14.066 10.828c-.148.031-.183.137-.164.25.032.149.371.817.371.817s.063-.75.036-.899c-.024-.113-.098-.195-.243-.168M10.695 8.543c-.03-.148-.133-.184-.242-.164-.148.031-.808.375-.808.375s.738.066.886.035c.11-.02.196-.094.164-.246M12.95 5.129c.148-.031.183-.133.163-.246-.031-.149-.37-.82-.37-.82s-.063.753-.036.902c.023.11.098.195.242.164" style="stroke:none;fill-rule:nonzero;fill:#ffec2d;fill-opacity:1"/><path d="M13.422 12.445c-.067.121-.106.258-.188.367-.254-.234-.625-.23-.945-.242-.266-.015-.555-.039-.762-.23-.214-.184-.394-.414-.632-.559a1.54 1.54 0 0 1-.622-.293c-.378-.312-.597-.777-.968-1.101-.07-.067-.153-.121-.23-.184-.075.02-.044.184-.134.102-.05-.04-.175-.04-.187.011.11.153.226.32.242.516-.078.008-.215-.016-.254.012.106.156.235.293.383.402-.07.012-.21.008-.238.035.14.137.312.235.5.281.039.051-.059.157.027.2.047.02.203.054.094.11-.074.05-.047.167.05.163.06.035.192.04.204.098-.055.05-.219.117-.078.168a.95.95 0 0 0 .433.129c-.074.066-.168.101-.246.16.348.207.73.344 1.113.476.153.051.309.098.465.13a3.8 3.8 0 0 1-1.316-.352 10 10 0 0 0-.653-.27c.094-.054.207-.066.31-.11-.212-.042-.438-.058-.618-.171.023-.055.129-.055.191-.082.11-.027.18-.055.024-.066-.157-.047-.34-.028-.48-.122.011-.058.155-.039.214-.062.074-.016.16-.024.219-.078-.246-.098-.563-.028-.754-.246-.043-.082.137-.016.187-.032.133 0 .274.043.399-.011-.36-.156-.738-.301-1.008-.594-.031-.047-.121-.176-.047-.191.211.027.363.257.59.222.027-.039-.133-.105-.176-.164a4.5 4.5 0 0 1-.875-.969c-.015-.128.176-.148.227-.05.254.246.48.53.793.699.113.055-.063-.067-.086-.11a5.6 5.6 0 0 1-.766-1.097c-.039-.074-.097-.203.012-.242.105-.055.215.02.27.113.21.273.37.594.632.82-.222-.441-.465-.91-.472-1.422.007-.097.011-.246.144-.242.113-.02.094.125.133.195.11.376.156.782.375 1.114-.047-.278-.121-.567-.07-.848.011-.098.109-.121.18-.066.054.133.066.304.113.449A4.529 4.529 0 0 0 13.2 12.43q.11.011.222.011m2.558 1.735c-.136.082-.242-.067-.355-.11-.082.043-.09.192-.164.266-.09.105-.203-.031-.191-.133-.11.094-.165.305-.34.274-.082-.07-.145-.215-.211-.047-.047.078-.188.191-.258.07-.024-.105-.074-.23-.133-.062-.039.12-.168.21-.289.156-.066-.055.055-.262-.031-.246-.13.086-.203.297-.38.281-.07-.078.044-.21-.034-.3-.09.116-.188.288-.344.3-.074-.062.004-.238-.043-.262-.16.094-.328.266-.527.215.078-.305.402-.41.675-.433.473-.06.965.05 1.418-.122.075-.046.25-.109.188-.214-.055-.082.144-.051.164-.149-.012-.12.094-.105.195-.113.457-.02.91.074 1.367.094.032.222-.214.382-.414.312-.093.016-.234-.219-.207-.05-.02.093-.007.21-.086.273m-3.89-.461c.105.098.18-.02.281-.063a3.6 3.6 0 0 0 .902-.52c.176-.144.325-.331.555-.378.457-.14.938-.121 1.39-.25.348-.48.934-.652 1.427-.93.113-.035.156-.125.187-.226.188-.305.445-.57.75-.75a.7.7 0 0 1 .477-.09.8.8 0 0 1-.258.504c.11 0 .207-.07.316-.067.035.2-.176.305-.293.43.067.016.309.035.176.098-.168.12-.363.199-.516.34.141.027.16.058.012.109-.078.055-.23.074-.246.18.11.066-.047.132-.11.156-.117.027-.242.078-.085.172-.059.086-.184.105-.29.097.032.102.079.215-.05.262-.293.23-.64.379-1.008.426.461.035.934-.05 1.328-.305.05-.062.324-.129.172-.183-.07-.028-.227-.063-.238-.118.215-.132.484-.086.71-.164.009-.078-.171-.054-.241-.074-.157-.012-.149-.055.003-.07.196-.051.418-.063.582-.188-.132-.066-.3-.011-.445-.062.242-.106.527-.117.746-.278.098-.113-.129-.078-.191-.074-.133.024-.195-.043-.043-.097.258-.196.586-.32.77-.602.042-.062.1-.254-.036-.187-.18.062-.34.269-.547.207.407-.325.793-.684 1.075-1.13.011-.128-.184-.14-.235-.042-.265.257-.5.558-.836.718.317-.32.59-.68.817-1.07.05-.113.183-.254.113-.379-.117-.101-.266-.008-.324.106-.203.273-.36.586-.617.804.226-.441.464-.914.468-1.425 0-.106-.02-.262-.164-.239-.11.02-.082.188-.129.274-.101.351-.152.726-.355 1.031.047-.281.125-.578.062-.863-.027-.13-.234-.075-.203.054-.246 1.25-1.074 2.344-2.156 2.977-.5.285-1.05.469-1.617.55-.153.036-.317.016-.461.067-.352.274-.563.73-1.008.875-.2.098-.46.121-.602.305a.2.2 0 0 0-.015.082m.969-.195a.7.7 0 0 0-.2.03c-.086.012-.171.044-.257.06l-.036.007-.058.004a.2.2 0 0 1 0 .098.1.1 0 0 1-.028.039.2.2 0 0 1-.039.031.2.2 0 0 1-.05.016q-.023-.001-.051-.008-.024-.01-.047-.031l-.05.011h-.052l-.05-.02-.047-.023a.4.4 0 0 0-.176.141.2.2 0 0 0-.031.098q0 .069.027.136c.008.008.012-.046.035-.054a.34.34 0 0 1 .125-.063c.035-.02.031 0 .016.031-.004.016-.024.079.004.047q.194-.076.406-.078c.2-.02.395-.027.594-.027l.562.008c.09.004.18.023.27.007.02-.003.054-.003.066-.015-.039-.024-.086-.027-.129-.031h-.36c-.097-.012-.202-.012-.296-.051-.027-.008-.047-.035-.074-.008q-.051.02-.11.027a.5.5 0 0 1-.191-.035q.07-.088.145-.172l-.118-.023q.105-.076.2-.152" style="stroke:none;fill-rule:nonzero;fill:#ffec2d;fill-opacity:1"/><path d="M12.422 13.695c0-.023-.024-.043-.047-.043s-.047.02-.047.043c0 .028.024.047.047.047s.047-.02.047-.047m0 0" style="stroke:none;fill-rule:nonzero;fill:#ffec2d;fill-opacity:1"/><path d="M1020.833 720.6c0-.616-.416-1.028-1.041-1.028s-1.042.412-1.042 1.028c0 .412.417.823 1.042.823s1.041-.411 1.041-.823Zm0 0" style="fill-rule:nonzero;fill:#ffec2d;fill-opacity:1;stroke-width:.4;stroke-linecap:butt;stroke-linejoin:miter;stroke:#ffec2d;stroke-opacity:1;stroke-miterlimit:4" transform="matrix(.01875 0 0 .019 -6.75 0)"/><path d="M2.25 1.387s-.18-.157-.242-.078c-.098.125.305.742.305.957 0 .359-.239.457-.528.504-.191.035-.512-.012-.512-.012.063-.082.102-.106.2-.113a.42.42 0 0 1-.223-.387c0-.305.121-.434.121-.778 0-.187-.152-.433-.152-.433.273.027.41.281.332.488a.13.13 0 0 0 .117-.035c.02.055-.012.121-.055.18.035.02.063.008.114-.004-.004.058-.04.12-.125.18.25-.063.398.109.398.292 0 .137-.094.235-.187.235a.17.17 0 0 1-.098-.031c-.02.039-.008.09.008.128-.067-.02-.114-.062-.082-.148a.2.2 0 0 1-.121-.055.15.15 0 0 1 .12-.058c-.035-.078.008-.125.07-.16 0 0-.038.16.06.16.046 0 .085-.012.085-.082 0-.059-.05-.14-.167-.133-.118.004-.211.082-.211.27 0 .175.14.261.324.265.164.008.289-.082.289-.254 0-.234-.328-.758-.328-.96 0-.157.136-.243.27-.243.171 0 .32.176.32.176Zm0 0" style="stroke:none;fill-rule:nonzero;fill:#ffec2d;fill-opacity:1"/><path d="M2.29 5.55c0 .388-.345.583-.61.583-.364 0-.555-.219-.555-.504a.9.9 0 0 1 .102-.418l.832-1.742a.5.5 0 0 0 .035-.235c0-.156-.149-.28-.305-.285-.144-.004-.3.133-.3.293 0 .192.1.278.198.278.125 0 .176-.051.176-.141q-.005-.09-.074-.09c-.105 0-.074.145-.074.145a.1.1 0 0 1-.067-.047.1.1 0 0 1-.007-.086.2.2 0 0 1-.102-.063.2.2 0 0 1 .102-.054c-.024-.086.011-.125.082-.145a.16.16 0 0 0-.008.094c.113-.035.285.015.285.215 0 .199-.133.363-.387.324.059.027.09.086.098.152-.047-.02-.098-.02-.098-.02.028.051.07.098.07.204-.046-.024-.093-.063-.152-.04.094.192-.023.45-.316.509a.63.63 0 0 0 .16-.403c0-.445-.121-.52-.121-.832a.46.46 0 0 1 .195-.367v.008a.27.27 0 0 1-.176-.13c.211-.058.43-.054.641.009.14.02.262.101.336.226a.7.7 0 0 1 0 .551c-.117.246-.668 1.434-.844 1.809a.6.6 0 0 0-.054.254c0 .226.203.308.32.308.14 0 .285-.11.285-.246 0-.082-.047-.137-.113-.137-.157 0-.149.137-.117.223-.098-.043-.157-.125-.141-.207a.25.25 0 0 1-.156-.094.2.2 0 0 1 .156-.086c-.031-.133.055-.187.14-.218-.027.093-.042.207.118.207.12 0 .21.02.265.097l.012-.511c.008-.153-.2-.153-.336-.106.05-.176.153-.273.395-.246a.19.19 0 0 1-.121-.188c0-.144.117-.304.191-.351l.04 1.5Zm0 0" style="stroke:none;fill-rule:nonzero;fill:#ffec2d;fill-opacity:1"/><path d="M2.29 6.707c0-.387-.345-.586-.61-.586-.364 0-.555.219-.555.508 0 .16.031.262.102.418l.832 1.742a.5.5 0 0 1 .035.23c0 .157-.149.282-.305.286-.144.004-.3-.133-.3-.293 0-.192.1-.278.198-.278.125 0 .176.055.176.141-.004.063-.027.09-.074.09-.105 0-.074-.145-.074-.145a.1.1 0 0 0-.067.047.1.1 0 0 0-.007.086.2.2 0 0 0-.102.063.24.24 0 0 0 .102.058c-.024.082.011.121.082.14a.14.14 0 0 1-.008-.089c.113.031.285-.02.285-.219 0-.195-.133-.363-.387-.32a.2.2 0 0 0 .098-.156c-.047.02-.098.02-.098.02.028-.052.07-.095.07-.204-.046.024-.093.066-.152.04.094-.188-.023-.45-.316-.509q.159.196.16.403c0 .449-.121.523-.121.832a.45.45 0 0 0 .195.367V9.37a.27.27 0 0 0-.176.129c.211.059.43.055.641-.004a.48.48 0 0 0 .336-.23.7.7 0 0 0 0-.547c-.117-.25-.668-1.438-.844-1.809a.7.7 0 0 1-.054-.258c0-.226.203-.304.32-.304.14 0 .285.105.285.242 0 .086-.047.137-.113.137-.157 0-.149-.137-.117-.223-.098.047-.157.125-.141.207a.25.25 0 0 0-.156.094.2.2 0 0 0 .156.09c-.031.128.055.183.14.214-.027-.093-.042-.207.118-.207.12 0 .21-.02.265-.097l.012.511c.008.157-.2.153-.336.106.05.176.153.273.395.25a.18.18 0 0 0-.121.183c0 .145.117.305.191.352ZM2.25 1.387s.18-.157.242-.078c.098.125-.304.742-.304.957 0 .359.238.457.527.504.191.035.512-.012.512-.012-.063-.082-.102-.106-.2-.113a.42.42 0 0 0 .223-.387c0-.305-.121-.434-.121-.778 0-.187.152-.433.152-.433-.273.027-.41.281-.332.488a.13.13 0 0 1-.117-.035c-.02.055.012.121.055.18-.035.02-.063.008-.114-.004.004.058.04.12.125.18-.25-.063-.398.109-.398.292 0 .137.094.235.188.235a.17.17 0 0 0 .097-.031c.02.039.008.09-.008.128.067-.02.114-.062.082-.148a.2.2 0 0 0 .121-.055.15.15 0 0 0-.12-.058c.035-.078-.008-.125-.07-.16 0 0 .038.16-.06.16-.046 0-.085-.012-.085-.082 0-.059.05-.14.167-.133.118.004.211.082.211.27 0 .175-.14.261-.324.265-.164.008-.289-.082-.289-.254 0-.234.328-.758.328-.96 0-.157-.136-.243-.27-.243-.171 0-.32.176-.32.176Zm0 0" style="stroke:none;fill-rule:nonzero;fill:#ffec2d;fill-opacity:1"/><path d="M2.21 5.55c0 .388.345.583.61.583.364 0 .555-.219.555-.504a.9.9 0 0 0-.102-.418l-.832-1.742a.5.5 0 0 1-.035-.235c0-.156.149-.28.305-.285.144-.004.3.133.3.293 0 .192-.1.278-.199.278-.124 0-.175-.051-.175-.141q.005-.09.074-.09c.105 0 .074.145.074.145a.1.1 0 0 0 .067-.047.1.1 0 0 0 .007-.086.2.2 0 0 0 .102-.063.2.2 0 0 0-.102-.054c.024-.086-.011-.125-.082-.145a.16.16 0 0 1 .008.094c-.113-.035-.285.015-.285.215 0 .199.133.363.387.324-.059.027-.09.086-.098.152.047-.02.098-.02.098-.02-.028.051-.07.098-.07.204.046-.024.093-.063.152-.04-.094.192.023.45.316.509a.63.63 0 0 1-.16-.403c0-.445.121-.52.121-.832a.46.46 0 0 0-.195-.367v.008a.27.27 0 0 0 .176-.13 1.15 1.15 0 0 0-.641.009.46.46 0 0 0-.336.226.7.7 0 0 0 0 .551c.117.246.668 1.434.844 1.809a.6.6 0 0 1 .054.254c0 .226-.203.308-.32.308-.14 0-.285-.11-.285-.246 0-.082.047-.137.113-.137.156 0 .149.137.117.223.098-.043.157-.125.141-.207a.25.25 0 0 0 .156-.094.2.2 0 0 0-.156-.086c.031-.133-.055-.187-.14-.218.027.093.042.207-.118.207-.12 0-.21.02-.265.097l-.012-.511c-.008-.153.2-.153.336-.106-.05-.176-.152-.273-.395-.246a.19.19 0 0 0 .121-.188.5.5 0 0 0-.191-.351l-.04 1.5Zm0 0" style="stroke:none;fill-rule:nonzero;fill:#ffec2d;fill-opacity:1"/><path d="M2.21 6.707c0-.387.345-.586.61-.586.364 0 .555.219.555.508 0 .16-.031.262-.102.418l-.832 1.742a.5.5 0 0 0-.035.23c0 .157.149.282.305.286.144.004.3-.133.3-.293 0-.192-.1-.278-.199-.278-.124 0-.175.055-.175.141.004.063.027.09.074.09.105 0 .074-.145.074-.145.027.004.05.024.067.047a.1.1 0 0 1 .007.086q.06.014.102.063a.24.24 0 0 1-.102.058c.024.082-.011.121-.082.14a.14.14 0 0 0 .008-.089c-.113.031-.285-.02-.285-.219 0-.195.133-.363.387-.32a.2.2 0 0 1-.098-.156c.047.02.098.02.098.02-.028-.052-.07-.095-.07-.204.046.024.093.066.152.04-.094-.188.023-.45.316-.509a.64.64 0 0 0-.16.403c0 .449.121.523.121.832a.45.45 0 0 1-.195.367V9.37a.27.27 0 0 1 .176.129 1.2 1.2 0 0 1-.641-.004.48.48 0 0 1-.336-.23.7.7 0 0 1 0-.547c.117-.25.668-1.438.844-1.809a.7.7 0 0 0 .054-.258c0-.226-.203-.304-.32-.304-.14 0-.285.105-.285.242 0 .086.047.137.113.137.156 0 .149-.137.117-.223.098.047.157.125.141.207a.25.25 0 0 1 .156.094.2.2 0 0 1-.156.09c.031.128-.055.183-.14.214.027-.093.042-.207-.118-.207-.12 0-.21-.02-.265-.097l-.012.511c-.008.157.2.153.336.106-.05.176-.152.273-.395.25a.18.18 0 0 1 .121.183.5.5 0 0 1-.191.352ZM2.25 17.613s-.18.157-.242.078c-.098-.125.305-.742.305-.957 0-.359-.239-.457-.528-.504-.191-.035-.512.012-.512.012.063.082.102.106.2.113a.42.42 0 0 0-.223.387c0 .305.121.434.121.778 0 .187-.152.433-.152.433.273-.027.41-.281.332-.488a.13.13 0 0 1 .117.035c.02-.055-.012-.121-.055-.18.035-.02.063-.008.114.004-.004-.058-.04-.12-.125-.18.25.063.398-.109.398-.292 0-.137-.094-.235-.187-.235a.17.17 0 0 0-.098.031c-.02-.039-.008-.09.008-.128-.067.02-.114.062-.082.148a.2.2 0 0 0-.121.055q.045.058.12.058c-.035.078.008.125.07.16 0 0-.038-.16.06-.16.046 0 .085.012.085.082 0 .059-.05.14-.167.133-.118-.004-.211-.082-.211-.27 0-.175.14-.261.324-.265.164-.008.289.082.289.254 0 .234-.328.758-.328.96 0 .157.136.243.27.243.171 0 .32-.176.32-.176Zm0 0" style="stroke:none;fill-rule:nonzero;fill:#ffec2d;fill-opacity:1"/><path d="M2.29 13.45c0-.387-.345-.583-.61-.583-.364 0-.555.219-.555.504a.9.9 0 0 0 .102.418l.832 1.742a.5.5 0 0 1 .035.235c0 .156-.149.28-.305.285-.144.004-.3-.133-.3-.293 0-.192.1-.278.198-.278.125 0 .176.051.176.141q-.005.09-.074.09c-.105 0-.074-.145-.074-.145a.1.1 0 0 0-.067.047.1.1 0 0 0-.007.086.2.2 0 0 0-.102.063.2.2 0 0 0 .102.054c-.024.086.011.125.082.145a.16.16 0 0 1-.008-.094c.113.035.285-.015.285-.215 0-.199-.133-.363-.387-.324.059-.027.09-.086.098-.152-.047.02-.098.02-.098.02.028-.051.07-.098.07-.204-.046.024-.093.063-.152.04.094-.192-.023-.45-.316-.509q.159.193.16.403c0 .445-.121.52-.121.832a.46.46 0 0 0 .195.367v-.008a.27.27 0 0 0-.176.13c.211.058.43.054.641-.009a.46.46 0 0 0 .336-.226.7.7 0 0 0 0-.551c-.117-.246-.668-1.434-.844-1.809a.6.6 0 0 1-.054-.254c0-.226.203-.308.32-.308.14 0 .285.11.285.246 0 .082-.047.137-.113.137-.157 0-.149-.137-.117-.223-.098.043-.157.125-.141.207a.25.25 0 0 0-.156.094.2.2 0 0 0 .156.086c-.031.133.055.187.14.218-.027-.093-.042-.207.118-.207.12 0 .21-.02.265-.097l.012.511c.008.153-.2.153-.336.106.05.176.153.273.395.246a.19.19 0 0 0-.121.188c0 .144.117.304.191.351l.04-1.5Zm0 0" style="stroke:none;fill-rule:nonzero;fill:#ffec2d;fill-opacity:1"/><path d="M2.29 12.293c0 .387-.345.586-.61.586-.364 0-.555-.219-.555-.508 0-.16.031-.262.102-.418l.832-1.742a.5.5 0 0 0 .035-.23c0-.157-.149-.282-.305-.286-.144-.004-.3.133-.3.293 0 .192.1.278.198.278.125 0 .176-.055.176-.141q-.005-.091-.074-.09c-.105 0-.074.145-.074.145a.1.1 0 0 1-.067-.047.1.1 0 0 1-.007-.086.2.2 0 0 1-.102-.063.24.24 0 0 1 .102-.058c-.024-.082.011-.121.082-.14a.14.14 0 0 0-.008.089c.113-.031.285.02.285.219 0 .195-.133.363-.387.32.059.031.09.09.098.156-.047-.02-.098-.02-.098-.02.028.052.07.095.07.204-.046-.024-.093-.066-.152-.04.094.188-.023.45-.316.509a.64.64 0 0 0 .16-.403c0-.449-.121-.523-.121-.832a.45.45 0 0 1 .195-.367v.008a.27.27 0 0 1-.176-.129c.211-.059.43-.055.641.004.14.023.262.105.336.23a.7.7 0 0 1 0 .547c-.117.25-.668 1.438-.844 1.809a.7.7 0 0 0-.054.258c0 .226.203.304.32.304.14 0 .285-.105.285-.242 0-.086-.047-.137-.113-.137-.157 0-.149.137-.117.223-.098-.047-.157-.125-.141-.207a.25.25 0 0 1-.156-.094.2.2 0 0 1 .156-.09c-.031-.128.055-.183.14-.214-.027.093-.042.207.118.207.12 0 .21.02.265.097l.012-.511c.008-.157-.2-.153-.336-.106.05-.176.153-.273.395-.25a.18.18 0 0 1-.121-.183c0-.145.117-.305.191-.352ZM2.25 17.613s.18.157.242.078c.098-.125-.304-.742-.304-.957 0-.359.238-.457.527-.504.191-.035.512.012.512.012-.063.082-.102.106-.2.113a.42.42 0 0 1 .223.387c0 .305-.121.434-.121.778 0 .187.152.433.152.433-.273-.027-.41-.281-.332-.488a.13.13 0 0 0-.117.035c-.02-.055.012-.121.055-.18-.035-.02-.063-.008-.114.004.004-.058.04-.12.125-.18-.25.063-.398-.109-.398-.292 0-.137.094-.235.188-.235a.17.17 0 0 1 .097.031c.02-.039.008-.09-.008-.128.067.02.114.062.082.148q.075.007.121.055a.15.15 0 0 1-.12.058c.035.078-.008.125-.07.16 0 0 .038-.16-.06-.16-.046 0-.085.012-.085.082 0 .059.05.14.167.133.118-.004.211-.082.211-.27 0-.175-.14-.261-.324-.265-.164-.008-.289.082-.289.254 0 .234.328.758.328.96 0 .157-.136.243-.27.243-.171 0-.32-.176-.32-.176Zm0 0" style="stroke:none;fill-rule:nonzero;fill:#ffec2d;fill-opacity:1"/><path d="M2.21 13.45c0-.387.345-.583.61-.583.364 0 .555.219.555.504a.9.9 0 0 1-.102.418l-.832 1.742a.5.5 0 0 0-.035.235c0 .156.149.28.305.285.144.004.3-.133.3-.293 0-.192-.1-.278-.199-.278-.124 0-.175.051-.175.141q.005.09.074.09c.105 0 .074-.145.074-.145.027.004.05.024.067.047a.1.1 0 0 1 .007.086q.06.014.102.063a.2.2 0 0 1-.102.054c.024.086-.011.125-.082.145a.16.16 0 0 0 .008-.094c-.113.035-.285-.015-.285-.215 0-.199.133-.363.387-.324-.059-.027-.09-.086-.098-.152.047.02.098.02.098.02-.028-.051-.07-.098-.07-.204.046.024.093.063.152.04-.094-.192.023-.45.316-.509a.63.63 0 0 0-.16.403c0 .445.121.52.121.832a.46.46 0 0 1-.195.367v-.008a.27.27 0 0 1 .176.13c-.211.058-.43.054-.641-.009a.46.46 0 0 1-.336-.226.7.7 0 0 1 0-.551c.117-.246.668-1.434.844-1.809a.6.6 0 0 0 .054-.254c0-.226-.203-.308-.32-.308-.14 0-.285.11-.285.246 0 .082.047.137.113.137.156 0 .149-.137.117-.223.098.043.157.125.141.207a.25.25 0 0 1 .156.094.2.2 0 0 1-.156.086c.031.133-.055.187-.14.218.027-.093.042-.207-.118-.207-.12 0-.21-.02-.265-.097l-.012.511c-.008.153.2.153.336.106-.05.176-.152.273-.395.246a.19.19 0 0 1 .121.188.5.5 0 0 1-.191.351l-.04-1.5Zm0 0" style="stroke:none;fill-rule:nonzero;fill:#ffec2d;fill-opacity:1"/><path d="M2.21 12.293c0 .387.345.586.61.586.364 0 .555-.219.555-.508a.9.9 0 0 0-.102-.418l-.832-1.742a.5.5 0 0 1-.035-.23c0-.157.149-.282.305-.286.144-.004.3.133.3.293 0 .192-.1.278-.199.278-.124 0-.175-.055-.175-.141q.005-.091.074-.09c.105 0 .074.145.074.145a.1.1 0 0 0 .067-.047.1.1 0 0 0 .007-.086.2.2 0 0 0 .102-.063.24.24 0 0 0-.102-.058c.024-.082-.011-.121-.082-.14a.14.14 0 0 1 .008.089c-.113-.031-.285.02-.285.219 0 .195.133.363.387.32a.2.2 0 0 0-.098.156c.047-.02.098-.02.098-.02-.028.052-.07.095-.07.204.046-.024.093-.066.152-.04-.094.188.023.45.316.509a.64.64 0 0 1-.16-.403c0-.449.121-.523.121-.832a.45.45 0 0 0-.195-.367v.008a.27.27 0 0 0 .176-.129 1.2 1.2 0 0 0-.641.004.48.48 0 0 0-.336.23.7.7 0 0 0 0 .547c.117.25.668 1.438.844 1.809a.7.7 0 0 1 .054.258c0 .226-.203.304-.32.304-.14 0-.285-.105-.285-.242 0-.086.047-.137.113-.137.156 0 .149.137.117.223.098-.047.157-.125.141-.207a.25.25 0 0 0 .156-.094.2.2 0 0 0-.156-.09c.031-.128-.055-.183-.14-.214.027.093.042.207-.118.207-.12 0-.21.02-.265.097l-.012-.511c-.008-.157.2-.153.336-.106-.05-.176-.152-.273-.395-.25a.18.18 0 0 0 .121-.183.5.5 0 0 0-.191-.352Zm0 0" style="stroke:none;fill-rule:nonzero;fill:#ffec2d;fill-opacity:1"/></svg>