<?xml version="1.0" encoding="UTF-8"?>
<svg xmlns="http://www.w3.org/2000/svg" xmlns:xlink="http://www.w3.org/1999/xlink" width="25px" height="px" viewBox="0 0 25 19" version="1.1">
<g id="surface1">
<path style=" stroke:none;fill-rule:evenodd;fill:rgb(93.333334%,8.627451%,12.156863%);fill-opacity:1;" d="M -1.5625 14.25 L 26.5625 14.25 L 26.5625 19 L -1.5625 19 Z M -1.5625 0 L 26.5625 0 L 26.5625 4.75 L -1.5625 4.75 Z M -1.5625 0 "/>
<path style=" stroke:none;fill-rule:evenodd;fill:rgb(100%,100%,100%);fill-opacity:1;" d="M -1.5625 4.75 L 26.5625 4.75 L 26.5625 14.25 L -1.5625 14.25 Z M -1.5625 4.75 "/>
<path style=" stroke:none;fill-rule:nonzero;fill:rgb(0%,65.882355%,31.37255%);fill-opacity:1;" d="M 12.355469 4.824219 C 12.070312 5.398438 11.882812 5.398438 11.40625 5.789062 C 11.214844 5.976562 10.929688 6.074219 11.308594 6.273438 C 10.925781 6.460938 10.734375 6.558594 10.542969 6.941406 L 10.640625 7.039062 C 10.640625 7.039062 11.007812 6.863281 11.019531 6.941406 C 11.085938 7.019531 10.542969 7.3125 10.476562 7.363281 L 10.070312 7.621094 C 9.59375 8.003906 9.304688 7.90625 9.019531 8.488281 L 9.972656 8.390625 C 10.164062 9.066406 9.496094 9.164062 9.019531 9.453125 L 8.253906 9.933594 C 8.449219 10.609375 9.019531 10.222656 9.496094 10.03125 L 9.59375 10.128906 L 9.59375 10.320312 L 8.640625 10.800781 C 8.640625 10.800781 7.511719 11.457031 7.492188 11.476562 C 7.488281 11.515625 7.492188 11.671875 7.492188 11.671875 C 7.875 11.765625 8.445312 11.863281 8.832031 11.671875 C 9.304688 11.476562 9.402344 11.285156 9.972656 11.285156 C 9.421875 11.71875 8.761719 11.988281 8.070312 12.058594 L 8.070312 12.441406 C 8.640625 12.441406 9.019531 12.441406 9.496094 12.347656 L 10.734375 11.960938 C 11.019531 11.960938 11.308594 12.25 11.210938 12.539062 C 10.929688 13.601562 9.78125 13.40625 9.402344 14.277344 L 10.925781 13.695312 C 11.304688 13.5 11.6875 13.3125 12.164062 13.40625 C 12.734375 13.601562 12.734375 13.988281 13.496094 14.179688 L 13.304688 13.695312 C 13.496094 13.792969 13.6875 13.792969 13.878906 13.890625 C 14.355469 14.082031 14.453125 14.277344 15.023438 14.179688 C 14.546875 13.601562 14.453125 13.695312 14.070312 13.3125 C 13.691406 12.730469 13.496094 11.863281 14.070312 11.765625 L 14.738281 11.960938 C 15.402344 12.058594 15.402344 11.863281 16.355469 12.25 C 16.929688 12.441406 17.121094 12.730469 17.785156 12.539062 C 17.503906 11.863281 16.453125 11.382812 15.785156 11.1875 C 16.550781 10.707031 16.355469 11.382812 17.40625 11.09375 L 17.40625 10.898438 C 16.648438 10.316406 16.359375 9.835938 15.3125 9.835938 L 16.933594 9.640625 L 16.933594 9.449219 C 16.933594 9.449219 15.335938 9.023438 15.296875 9.007812 C 15.308594 8.957031 15.347656 8.882812 15.457031 8.839844 C 15.757812 9.039062 16.675781 9.019531 16.730469 9.015625 C 16.699219 8.777344 16.265625 8.578125 15.886719 8.386719 C 15.886719 8.386719 14.25 7.367188 14.242188 7.277344 C 14.277344 7.015625 14.914062 7.316406 15.597656 7.519531 C 15.40625 7.132812 15.027344 6.9375 14.644531 6.84375 L 15.21875 6.746094 C 14.835938 5.878906 13.882812 5.976562 13.3125 5.589844 C 12.929688 5.300781 12.929688 5.105469 12.355469 4.820312 Z M 12.355469 4.824219 "/>
<path style="fill-rule:evenodd;fill:rgb(100%,100%,100%);fill-opacity:1;stroke-width:3.2;stroke-linecap:round;stroke-linejoin:round;stroke:rgb(100%,100%,100%);stroke-opacity:1;stroke-miterlimit:4;" d="M 224 302.947368 C 225.92 296.947368 228.373333 291.368421 216.746667 286.105263 C 205.226667 280.842105 222.613333 307.157895 224 303.052632 Z M 237.653333 290.736842 C 235.413333 290.947368 234.133333 299.473684 238.826667 301.894737 C 243.946667 302.736842 239.786667 290.842105 237.653333 290.736842 M 251.2 289.684211 C 248.746667 290.526316 248.746667 302.526316 257.173333 300.315789 C 265.813333 298.210526 257.173333 288.842105 251.2 289.789474 Z M 266.986667 258.947368 C 268.8 256 266.88 244 259.626667 249.052632 C 252.266667 254 264.64 259.789474 266.986667 258.947368 M 250.986667 249.052632 C 253.333333 248.105263 253.546667 240.736842 247.04 242.736842 C 240.746667 244.631579 249.28 250.526316 250.986667 249.052632 M 236.586667 251.894737 C 236.586667 251.894737 232.106667 245.684211 228.586667 246.947368 C 224.32 251.157895 236.906667 252 236.586667 251.894737 M 186.986667 271.684211 C 188.906667 271.894737 202.986667 269.368421 207.893333 263.894737 C 212.8 258.421053 182.826667 266.210526 182.826667 266.315789 C 182.826667 266.421053 185.6 271.157895 186.986667 271.684211 M 328.106667 236.736842 C 328.746667 235.368421 320.64 229.578947 315.733333 231.894737 C 314.453333 236.210526 328.106667 237.578947 328.106667 236.736842 M 300.266667 222.736842 C 301.866667 220.526316 296.746667 211.368421 286.613333 216.526316 C 276.373333 221.473684 297.28 226.315789 300.266667 222.842105 Z M 268.16 217.368421 C 268.16 217.368421 270.72 209.157895 276.8 210.842105 C 283.84 216.105263 268.48 217.684211 268.16 217.368421 M 262.186667 211.157895 C 261.226667 208.947368 254.933333 210.210526 247.573333 215.052632 C 240.213333 219.789474 264.426667 216.526316 262.186667 211.052632 Z M 280.853333 189.052632 C 280.853333 189.052632 287.36 186.105263 289.386667 189.052632 C 292.053333 193.368421 280.746667 189.052632 280.853333 189.052632 M 275.413333 186.210526 C 274.133333 183.578947 266.88 183.263158 267.093333 187.157895 C 265.92 190.210526 276.48 189.578947 275.413333 186.210526 M 258.24 186.210526 C 257.493333 184.736842 247.253333 186.210526 244.16 192.421053 C 249.173333 194.842105 260.48 190.105263 258.24 186.210526 M 236.16 192.526316 C 236.16 192.526316 222.826667 200.842105 221.866667 206.842105 C 222.293333 212 238.72 197.368421 238.72 197.368421 C 238.72 197.368421 240.106667 191.578947 236.266667 192.526316 Z M 221.333333 184.947368 C 221.653333 183.263158 227.946667 179.368421 228.48 179.684211 C 229.013333 181.368421 223.36 186 221.333333 184.947368 M 225.6 216.631579 C 225.92 214.105263 209.6 214.315789 215.68 221.789474 C 220.906667 228.105263 226.666667 217.684211 225.6 216.631579 M 210.56 227.263158 C 209.813333 225.684211 208.64 221.263158 206.4 220.947368 C 204.48 220.947368 194.666667 222.947368 193.92 224.526316 C 193.493333 225.789474 197.973333 233.894737 199.466667 234.105263 C 201.28 234.842105 210.346667 228.105263 210.666667 227.263158 Z M 298.986667 282.526316 C 299.52 280.736842 316.266667 274.947368 322.026667 280.526316 C 328.746667 289.789474 298.56 285.473684 298.986667 282.526316 M 344.96 293.368421 C 348.693333 287.157895 333.653333 279.789474 327.36 286.947368 C 329.6 295.368421 341.973333 298.526316 344.96 293.368421 " transform="matrix(0.0366211,0,0,0.0371094,3.125,0)"/>
</g>
</svg>
