<svg xmlns="http://www.w3.org/2000/svg" width="25" height="px" viewBox="0 0 25 19"><path d="M-1.562 14.25h28.125V19H-1.562Zm0-14.25h28.125v4.75H-1.562Zm0 0" style="stroke:none;fill-rule:evenodd;fill:#ee161f;fill-opacity:1"/><path d="M-1.562 4.75h28.125v9.5H-1.562Zm0 0" style="stroke:none;fill-rule:evenodd;fill:#fff;fill-opacity:1"/><path d="M12.355 4.824c-.285.574-.472.574-.949.965-.191.188-.476.285-.097.484-.383.188-.575.286-.766.668l.098.098s.367-.176.379-.098c.066.079-.477.372-.543.422l-.407.258c-.476.383-.765.285-1.05.867l.953-.097c.191.675-.477.773-.953 1.062l-.766.48c.195.676.766.29 1.242.098l.098.098v.191l-.953.48s-1.13.657-1.149.677c-.004.039 0 .195 0 .195.383.094.953.191 1.34 0 .473-.195.57-.387 1.14-.387-.55.434-1.21.703-1.902.774v.382c.57 0 .95 0 1.426-.093l1.238-.387c.286 0 .575.289.477.578-.281 1.063-1.43.867-1.809 1.738l1.524-.582c.379-.195.761-.383 1.238-.289.57.196.57.582 1.332.774l-.191-.485c.191.098.383.098.574.196.476.191.574.386 1.144.289-.476-.578-.57-.485-.953-.867-.379-.583-.574-1.45 0-1.547l.668.195c.664.098.664-.098 1.617.289.575.191.766.48 1.43.29-.281-.677-1.332-1.157-2-1.352.766-.481.57.195 1.621-.094v-.196c-.758-.582-1.047-1.062-2.093-1.062l1.62-.195v-.192s-1.597-.426-1.636-.441c.012-.051.05-.125.16-.168.3.2 1.219.18 1.273.176-.03-.239-.464-.438-.843-.63 0 0-1.637-1.019-1.645-1.109.035-.261.672.04 1.356.243-.192-.387-.57-.582-.953-.676l.574-.098c-.383-.867-1.336-.77-1.906-1.156-.383-.29-.383-.485-.958-.77Zm0 0" style="stroke:none;fill-rule:nonzero;fill:#00a850;fill-opacity:1"/><path d="M224 302.947c1.92-6 4.373-11.579-7.253-16.842-11.52-5.263 5.866 21.053 7.253 16.948Zm13.653-12.21c-2.24.21-3.52 8.737 1.174 11.158 5.12.842.96-11.053-1.174-11.158m13.547-1.053c-2.453.842-2.453 12.842 5.973 10.632 8.64-2.105 0-11.474-5.973-10.527Zm15.787-30.737c1.813-2.947-.107-14.947-7.36-9.894-7.36 4.947 5.013 10.736 7.36 9.894m-16-9.894c2.346-.948 2.56-8.316-3.947-6.316-6.293 1.895 2.24 7.79 3.947 6.316m-14.4 2.842s-4.48-6.21-8-4.948c-4.267 4.21 8.32 5.053 8 4.948m-49.6 19.79c1.92.21 16-2.317 20.906-7.79 4.907-5.474-25.066 2.316-25.066 2.42 0 .106 2.773 4.843 4.16 5.37m141.12-34.948c.64-1.369-7.467-7.158-12.374-4.842-1.28 4.316 12.374 5.684 12.374 4.842m-27.84-14c1.6-2.21-3.52-11.369-13.654-6.21-10.24 4.947 10.667 9.789 13.654 6.315Zm-32.107-5.369s2.56-8.21 8.64-6.526c7.04 5.263-8.32 6.842-8.64 6.526m-5.973-6.21c-.96-2.21-7.254-.947-14.614 3.895-7.36 4.736 16.854 1.473 14.614-4Zm18.666-22.105s6.507-2.948 8.534 0c2.666 4.315-8.64 0-8.534 0m-5.44-2.842c-1.28-2.632-8.533-2.948-8.32.947-1.173 3.053 9.387 2.42 8.32-.947m-17.173 0c-.747-1.474-10.987 0-14.08 6.21 5.013 2.421 16.32-2.316 14.08-6.21m-22.08 6.315s-13.333 8.316-14.293 14.316c.426 5.158 16.853-9.474 16.853-9.474s1.387-5.79-2.453-4.842Zm-14.827-7.579c.32-1.684 6.614-5.579 7.147-5.263.533 1.684-5.12 6.316-7.147 5.263m4.267 31.685c.32-2.527-16-2.316-9.92 5.157 5.227 6.316 10.987-4.105 9.92-5.157m-15.04 10.631c-.747-1.579-1.92-6-4.16-6.316-1.92 0-11.733 2-12.48 3.58-.427 1.262 4.053 9.368 5.547 9.578 1.813.737 10.88-6 11.2-6.842Zm88.427 55.263c.533-1.79 17.28-7.579 23.04-2 6.72 9.263-23.467 4.948-23.04 2m45.973 10.842c3.733-6.21-11.307-13.579-17.6-6.42 2.24 8.42 14.613 11.578 17.6 6.42" style="fill-rule:evenodd;fill:#fff;fill-opacity:1;stroke-width:3.2;stroke-linecap:round;stroke-linejoin:round;stroke:#fff;stroke-opacity:1;stroke-miterlimit:4" transform="matrix(.03662 0 0 .0371 3.125 0)"/></svg>