<?xml version="1.0" encoding="UTF-8"?>
<svg xmlns="http://www.w3.org/2000/svg" xmlns:xlink="http://www.w3.org/1999/xlink" width="25px" height="px" viewBox="0 0 25 19" version="1.1">
<g id="surface1">
<rect x="0" y="0" width="25" height="19" style="fill:rgb(100%,71.764708%,0%);fill-opacity:1;stroke:none;"/>
<path style=" stroke:none;fill-rule:nonzero;fill:rgb(100%,35.686275%,0%);fill-opacity:1;" d="M 1.042969 9.5 L 4.480469 1.058594 L 7.917969 1.058594 L 7.917969 17.941406 L 4.480469 17.941406 Z M 1.042969 9.5 "/>
<path style=" stroke:none;fill-rule:nonzero;fill:rgb(0%,33.725491%,25.490198%);fill-opacity:1;" d="M 1.042969 1.058594 L 4.480469 1.058594 L 4.480469 17.941406 L 1.042969 17.941406 Z M 1.042969 1.058594 "/>
<path style=" stroke:none;fill-rule:nonzero;fill:rgb(55.29412%,12.54902%,16.078432%);fill-opacity:1;" d="M 8.957031 1.058594 L 24.0625 1.058594 L 24.0625 17.941406 L 8.957031 17.941406 Z M 8.957031 1.058594 "/>
<path style="fill-rule:nonzero;fill:rgb(100%,71.764708%,0%);fill-opacity:1;stroke-width:1.1;stroke-linecap:butt;stroke-linejoin:miter;stroke:rgb(0%,0%,0%);stroke-opacity:1;stroke-miterlimit:4;" d="M 579.3 408.552632 C 579.3 408.552632 582.9 415.855263 586.9 419.013158 C 592.9 423.355263 604.9 422.960526 610.2 428.289474 C 616.3 434.407895 609.7 442.5 609.7 443.289474 L 610.1 447.532895 C 610.1 447.532895 605.9 447.532895 604.1 447.828947 C 601.5 448.223684 600.5 450.394737 595.5 450.098684 C 583.2 449.309211 583.7 438.059211 583 428.585526 C 582.4 425.032895 581 420.197368 580.1 416.644737 C 579.4 413.585526 579.3 408.552632 579.3 408.552632 Z M 579.3 408.552632 " transform="matrix(0.0390625,0,0,0.0395833,0,0)"/>
<path style="fill-rule:nonzero;fill:rgb(100%,71.764708%,0%);fill-opacity:1;stroke-width:1.1;stroke-linecap:butt;stroke-linejoin:miter;stroke:rgb(0%,0%,0%);stroke-opacity:1;stroke-miterlimit:4;" d="M 579.299988 408.552632 C 579.299988 408.552632 582.899988 415.855263 586.899988 419.013158 C 592.899988 423.355263 604.899988 422.960526 610.199988 428.289474 C 616.299988 434.407895 609.699988 442.5 609.699988 443.289474 L 610.099988 447.532895 C 610.099988 447.532895 605.899988 447.532895 604.099988 447.828947 C 601.499988 448.223684 600.499988 450.394737 595.499988 450.098684 C 583.199988 449.309211 583.699988 438.059211 582.999988 428.585526 C 582.399988 425.032895 580.999988 420.197368 580.099988 416.644737 C 579.399988 413.585526 579.299988 408.552632 579.299988 408.552632 Z M 579.299988 408.552632 " transform="matrix(-0.0390625,0,0,0.0395833,33.019531,0)"/>
<path style="fill-rule:nonzero;fill:rgb(100%,71.764708%,0%);fill-opacity:1;stroke-width:1.1;stroke-linecap:butt;stroke-linejoin:miter;stroke:rgb(0%,0%,0%);stroke-opacity:1;stroke-miterlimit:4;" d="M 579.3 408.552632 C 579.3 408.552632 582.9 415.855263 586.9 419.013158 C 592.9 423.355263 604.9 422.960526 610.2 428.289474 C 616.3 434.407895 609.7 442.5 609.7 443.289474 L 610.1 447.532895 C 610.1 447.532895 605.9 447.532895 604.1 447.828947 C 601.5 448.223684 600.5 450.394737 595.5 450.098684 C 583.2 449.309211 583.7 438.059211 583 428.585526 C 582.4 425.032895 581 420.197368 580.1 416.644737 C 579.4 413.585526 579.3 408.552632 579.3 408.552632 Z M 579.3 408.552632 " transform="matrix(0.0390625,0,0,-0.0395833,0,19)"/>
<path style="fill-rule:nonzero;fill:rgb(100%,71.764708%,0%);fill-opacity:1;stroke-width:1.1;stroke-linecap:butt;stroke-linejoin:miter;stroke:rgb(0%,0%,0%);stroke-opacity:1;stroke-miterlimit:4;" d="M 579.300024 408.552632 C 579.300024 408.552632 582.900024 415.855263 586.900024 419.013158 C 592.900024 423.355263 604.900024 422.960526 610.200024 428.289474 C 616.300024 434.407895 609.700024 442.5 609.700024 443.289474 L 610.100024 447.532895 C 610.100024 447.532895 605.900024 447.532895 604.100024 447.828947 C 601.500024 448.223684 600.500024 450.394737 595.500024 450.098684 C 583.200024 449.309211 583.700024 438.059211 583.000024 428.585526 C 582.400024 425.032895 581.000024 420.197368 580.100024 416.644737 C 579.400024 413.585526 579.300024 408.552632 579.300024 408.552632 Z M 579.300024 408.552632 " transform="matrix(-0.0390625,0.000000000000000005,-0.000000000000000005,-0.0395833,33.023438,19)"/>
<path style="fill-rule:nonzero;fill:rgb(100%,71.764708%,0%);fill-opacity:1;stroke-width:5.6;stroke-linecap:butt;stroke-linejoin:miter;stroke:rgb(0%,0%,0%);stroke-opacity:1;stroke-miterlimit:4;" d="M 363.5 415.769737 L 365.8 414.388158 L 366.8 415.769737 C 368.1 417.644737 371.8 417.546053 374.2 415.769737 L 376.1 414.289474 L 377.7 415.671053 C 379.7 417.644737 383.5 417.644737 386 415.671053 C 387.7 414.486842 388 414.388158 389 415.375 C 389.7 415.967105 391.7 416.559211 393.4 416.855263 C 396.6 417.348684 396.6 417.348684 398.4 414.486842 C 400 412.217105 400.2 411.328947 399.9 408.960526 L 399.3 403.730263 C 399.1 401.065789 399.2 401.065789 402.9 399.684211 L 408.3 397.710526 C 409.8 396.822368 414 391.888158 414 390.901316 C 414 390.703947 412.4 390.309211 410.4 390.111842 C 402.4 389.125 401 384.881579 406.3 377.085526 C 414.6 364.059211 419.7 351.625 419.7 343.730263 C 419.7 340.177632 419.9 338.796053 420.4 339.684211 C 422.3 342.842105 418.9 356.065789 413.9 365.736842 L 411.9 369.486842 L 413.8 369.092105 C 414.8 368.796053 421.2 366.131579 427.8 363.072368 C 446 354.881579 452.2 353.302632 464 353.796053 C 473.9 354.190789 478 356.065789 485 363.368421 C 488.7 367.414474 492.3 370.078947 498.8 374.223684 C 512.6 382.809211 513.2 383.598684 513.9 393.763158 C 514.6 404.026316 514.2 404.717105 506.4 406.394737 C 499.6 407.973684 495.6 410.934211 494.4 415.375 C 493.7 417.644737 495.1 417.743421 498.4 415.473684 L 500.9 413.894737 L 502 415.473684 C 503.5 417.644737 506.5 417.644737 509 415.473684 L 511 413.993421 L 513 415.473684 C 516 418.039474 520 417.447368 521.2 414.289474 C 521.4 413.796053 522.1 413.993421 523.2 414.980263 C 525.5 416.953947 531.2 417.842105 531.8 416.164474 C 532 415.572368 531.6 414.190789 530.8 413.006579 C 527.5 407.973684 526.4 405.703947 526.4 403.039474 C 526.4 399.190789 527.4 397.315789 531.8 394.256579 C 537 390.506579 538.6 385.671053 534.6 385.671053 C 532.2 385.671053 529.7 383.5 528.1 380.046053 C 524.9 372.842105 525.6 364.848684 530.4 351.427632 C 534.1 343.532895 535.9 334.947368 535.8 326.164474 C 535.8 318.763158 535.6 317.578947 534 313.532895 C 532.8 310.671053 531.2 307.907895 529.4 305.440789 L 526.6 301.690789 L 530.1 298.730263 C 540.9 289.848684 538.7 275.243421 525.7 269.618421 C 521.7 267.842105 520.7 267.743421 513.7 267.743421 C 509.7 267.743421 503.2 268.335526 499.7 269.026316 C 495 269.717105 490.3 270.111842 485.5 270.210526 C 478.7 270.210526 477.5 270.013158 474.9 268.631579 C 472.2 267.151316 471.7 266.460526 471.2 263.105263 C 471.1 262.414474 470.7 261.921053 470.1 261.625 C 469.1 261.328947 464.9 264.980263 464.3 266.559211 C 463.9 267.546053 463.7 267.447368 462.8 266.263158 C 461.9 265.177632 461.3 263.993421 460.8 262.710526 C 459.7 259.453947 461.1 256.888158 465 255.111842 L 468 253.730263 L 466.2 252.644737 C 462.6 250.276316 456.4 251.855263 454.2 255.605263 C 453.5 256.592105 452.8 257.578947 452.6 257.578947 C 452.4 257.578947 451.2 256.592105 450 255.309211 C 445.3 250.671053 446.9 243.861842 453.2 241.888158 C 456.5 240.802632 459.5 241.592105 460.1 243.861842 C 461.1 247.217105 463.9 242.776316 463.4 238.730263 C 463.1 235.967105 463.1 235.868421 465 235.868421 C 467.6 235.868421 473 239.322368 474.8 241.888158 C 476.8 245.046053 476.6 249.881579 474.4 253.532895 L 472.7 256.296053 L 475 255.901316 C 478.2 255.210526 481.4 253.236842 483 250.671053 C 484.7 247.513158 484.9 243.664474 483.4 240.309211 C 481.9 237.644737 482.1 237.151316 484.3 238.138158 C 487.9 239.618421 489.9 241.296053 491.3 244.157895 C 492.7 246.822368 492.8 247.414474 492.1 250.177632 C 491.6 251.953947 490.9 253.532895 489.9 255.013158 C 488.7 256.592105 488.6 256.888158 489.6 256.888158 C 491.4 256.888158 495 255.210526 496.3 253.927632 C 497 253.138158 498 251.361842 498.5 249.881579 L 499.5 247.414474 L 500.5 249.388158 C 502 252.052632 505 254.618421 508.6 256.197368 C 512.5 257.776316 514.1 257.875 512.1 256.394737 C 510.7 255.407895 508.1 247.907895 509 247.217105 C 513.3 249.585526 517.3 252.644737 520.7 256.197368 C 526.4 261.328947 530 263.006579 535.2 263.006579 C 541.9 263.006579 545.8 257.184211 542.8 251.657895 C 541.1 248.5 537.2 248.006579 534.8 250.671053 C 533.8 251.855263 533.5 253.138158 533.8 254.421053 C 534.2 256 534.1 256.197368 532.6 256.197368 C 530.6 256.197368 526.8 253.730263 520 248.006579 C 510.5 239.815789 499.7 233.5 487.9 229.256579 C 479.9 227.480263 471.7 226.986842 463.6 227.973684 C 457.2 229.157895 449.6 232.907895 445.4 236.756579 C 438.1 243.763158 438 253.138158 445.1 261.625 L 447.1 263.993421 L 445.8 266.164474 C 443.7 269.421053 443.9 273.565789 446.2 276.625 C 447.2 278.006579 448.2 279.092105 448.5 279.092105 C 448.7 278.993421 448.9 278.302632 449 277.118421 C 449.2 274.355263 450.3 272.677632 452.4 271.888158 C 454.2 271.197368 455.4 271.592105 463.6 274.947368 C 472.3 278.302632 486.6 278.5 501.8 275.539474 C 508.4 273.960526 515.2 274.059211 521.8 275.736842 C 529 278.697368 530.6 286.394737 525.4 292.217105 C 523.1 294.782895 521 295.769737 513.7 297.842105 C 507.3 299.519737 500.7 300.013158 494.2 299.322368 C 483.4 299.223684 479.5 299.421053 475.2 300.309211 C 470.3 301.296053 467.4 301.394737 453.4 301.098684 L 437.1 300.703947 L 438.9 302.085526 L 442 304.355263 C 443.3 305.144737 443.2 305.243421 441.4 305.934211 C 440.4 306.328947 438 306.625 436.1 306.625 L 432.8 306.625 L 432.4 309.388158 C 432.1 310.671053 432.1 312.052632 432.4 313.434211 C 432.8 314.322368 432.5 314.618421 431.6 314.223684 C 430.9 313.927632 429 313.434211 427.3 313.138158 C 425.6 312.743421 423.9 312.151316 422.3 311.460526 C 420.4 310.473684 420.2 310.473684 419.5 311.756579 C 418.9 312.842105 413.3 316.986842 412.5 316.986842 C 412.1 314.421053 411.4 311.855263 410.3 309.486842 C 409.3 307.414474 408.4 305.046053 408.1 304.256579 C 407.8 303.269737 407.5 303.171053 407.1 303.960526 C 406.8 304.453947 406.4 306.032895 406.1 307.217105 C 405.7 308.796053 405.1 310.375 404.3 311.756579 L 402.8 314.026316 L 401.8 312.052632 C 400.8 310.078947 399.2 307.907895 398.6 307.907895 C 398.4 307.907895 398.2 308.401316 397.9 309.388158 C 397.4 310.967105 393.5 315.703947 392.5 315.703947 C 392.2 315.703947 391.9 314.421053 391.9 312.743421 C 391.9 311.164474 391.6 309.782895 391.2 309.782895 C 390.8 309.881579 390.6 310.177632 390.5 310.769737 C 390.5 311.953947 387.2 315.802632 386 315.802632 C 385.5 315.802632 384.9 316.098684 384.3 316.789474 C 383.1 318.072368 382.1 317.875 382.6 316.394737 C 382.7 315.111842 382.6 313.828947 382.2 312.644737 L 381.2 309.388158 C 381.1 308.894737 379.7 309.092105 377.2 309.881579 C 373.2 311.164474 371.8 310.868421 373.9 309.289474 C 374.7 308.697368 375.9 306.625 376.5 304.651316 C 377.2 302.677632 378.2 301 378.7 300.802632 C 379.4 300.506579 379.4 300.901316 378.5 301.986842 C 377.9 302.776316 377.6 303.664474 377.4 304.552632 C 377.4 305.144737 376.9 306.427632 376.4 307.513158 C 375.9 308.598684 375.4 309.486842 375.5 309.585526 C 375.6 309.684211 377.2 309.092105 379 308.302632 L 382.2 306.723684 L 382.2 308.105263 C 382.2 308.894737 382.6 310.868421 383.1 312.644737 L 384 315.605263 L 386.2 314.618421 C 388.4 313.631579 390.5 309.980263 390.5 307.118421 C 390.5 305.736842 391.3 305.934211 391.7 307.414474 C 391.7 307.809211 392.3 309.486842 392.7 311.065789 L 393.7 313.927632 L 395.2 312.052632 C 396.1 311.065789 397.1 309.092105 397.5 307.809211 C 398.3 305.440789 399.5 304.256579 399.5 306.131579 C 399.5 307.315789 402.9 311.855263 403.5 311.460526 C 403.9 311.263158 404.5 309.585526 405 307.710526 C 406 303.664474 407.5 301.098684 408.5 301.690789 C 408.9 301.986842 409 302.282895 408.8 302.677632 C 408.6 302.875 409.4 305.539474 410.6 308.302632 L 413.2 314.618421 C 413.6 315.605263 414 315.605263 416.5 313.335526 C 418 311.855263 419.5 310.375 419.6 309.881579 C 419.9 309.092105 420.2 309.190789 421.6 310.078947 C 424.5 311.657895 427.8 312.644737 431.1 312.940789 C 431.3 312.743421 431.5 310.868421 431.5 308.894737 L 431.6 305.243421 L 433.6 305.638158 C 434.6 305.934211 436.9 305.934211 438.6 305.638158 L 441.6 305.243421 L 438.9 303.171053 C 437.4 302.184211 435.9 300.901316 435.5 300.309211 C 435.1 299.717105 433.8 299.125 432.3 299.026316 C 428.2 298.631579 420.9 294.585526 420.9 292.611842 C 421 292.315789 421.8 292.809211 423.1 293.993421 C 425.9 296.460526 429.7 298.039474 433.1 298.039474 L 435.5 298.039474 L 434 295.967105 C 432.9 294.486842 432.2 292.710526 432 290.835526 C 431.8 287.776316 431.5 287.381579 428.4 285.309211 C 426.6 284.026316 424.9 282.546053 423.4 280.967105 L 421.7 279.092105 L 420.8 281.361842 C 420.3 282.842105 419.8 283.532895 419.5 283.730263 C 419.3 283.730263 418.3 282.940789 417.5 281.953947 C 416.9 281.361842 416.3 280.769737 415.5 280.375 C 415.2 280.375 414.5 281.559211 413.7 283.138158 L 412.3 285.802632 L 411.3 284.322368 C 410.4 283.039474 409.4 281.953947 408.3 280.868421 C 407 279.881579 406.6 279.190789 407 279.092105 C 407.4 279.092105 408.7 280.078947 410 281.361842 L 412.2 283.730263 L 413.2 281.953947 C 413.8 280.868421 414 279.486842 413.7 278.203947 C 413.3 276.427632 413.4 276.230263 414 277.513158 C 414.9 278.598684 415.9 279.684211 417 280.473684 L 419.2 282.348684 L 420.7 279.585526 C 422.2 276.822368 422.2 276.822368 422.8 278.5 C 423.8 280.572368 430.3 286 435.8 289.059211 C 436.8 289.651316 436.5 287.973684 434.8 284.125 C 434.3 282.842105 434.1 281.460526 434 280.078947 C 434 278.302632 433.5 277.513158 431.2 275.736842 C 428.3 273.861842 426.5 270.703947 426.2 267.348684 C 425.9 265.572368 425.3 263.796053 424.8 263.203947 C 424.2 262.019737 424 262.907895 424.2 265.769737 C 424.4 267.940789 424.1 270.506579 423.6 271.592105 L 422.8 273.565789 L 422.2 271.888158 C 421.8 271 420.2 269.421053 418.7 268.434211 C 417.2 267.447368 416.1 266.361842 416.3 266.164474 C 416.5 265.967105 418.1 266.855263 419.8 268.236842 C 422.5 270.309211 423 270.506579 423.4 269.618421 C 423.8 268.631579 423.4 263.993421 422.6 260.835526 C 422.2 259.157895 422.2 259.157895 424.2 261.230263 C 425.5 262.513158 426.5 264.486842 427.1 267.447368 C 427.9 271.197368 428.3 271.888158 431.8 275.046053 C 433.9 276.921053 435.8 278.302632 435.9 278.203947 C 436.1 278.006579 436.3 273.171053 436.5 267.447368 C 436.9 256.296053 436.5 253.631579 433.8 250.177632 L 432.4 248.401316 L 434.6 246.131579 C 437.1 243.763158 438.7 240.703947 439.3 237.348684 L 439.7 234.585526 L 437.3 236.855263 C 435.3 238.828947 434.3 239.223684 432 239.223684 C 429.7 239.223684 428.8 238.828947 427.3 237.151316 C 425 234.980263 422.1 233.302632 419 232.414474 C 417.9 232.019737 417.3 232.217105 417.4 233.006579 C 417.4 233.598684 416.8 235.177632 416 236.657895 L 414.6 239.322368 L 411.6 236.263158 C 409.7 234.585526 407.6 233.105263 405.9 232.710526 C 401.8 231.723684 401.6 231.723684 401.6 234.782895 C 401.5 239.519737 399.7 240.407895 396 237.348684 C 393.2 234.881579 391 234.289474 385.7 234.980263 L 381.7 235.375 L 382.4 237.151316 C 383 238.730263 382.9 239.421053 381.6 241.098684 C 379.5 243.861842 376.8 245.144737 372.6 245.144737 C 370.6 245.144737 368.2 245.539474 367.2 246.032895 C 366.2 246.526316 363.6 247.019737 361.5 247.217105 C 359.5 247.414474 357.2 247.809211 356.5 248.006579 C 355.5 248.401316 355.5 248.006579 355.8 245.835526 C 356.3 242.381579 353.8 239.815789 350.1 239.815789 C 345.2 239.815789 343 244.157895 344.9 249.980263 L 345.9 253.828947 C 347.2 256.296053 349 258.565789 351.1 260.440789 C 353.7 263.006579 356.1 265.671053 356.5 266.361842 C 357.3 267.447368 358.3 268.335526 359.5 268.927632 L 361.7 270.111842 L 361.4 267.743421 C 361.1 265.078947 361.6 264.684211 363 266.559211 C 363.5 267.151316 364.8 268.335526 365.8 268.927632 C 367.5 269.914474 367.8 269.914474 367.8 269.125 C 367.8 268.532895 368.1 267.151316 368.5 266.164474 L 369.2 264.388158 L 370.5 266.855263 C 371.2 268.335526 373.5 271.394737 375.6 273.861842 C 379.7 278.598684 382.3 283.927632 381 285.111842 C 380.4 285.605263 379 285.605263 376 285.013158 C 373.8 284.618421 371 284.322368 369.8 284.519737 C 367.5 284.815789 367.3 284.519737 368.8 282.743421 C 370.3 280.671053 370 280.375 367 280.375 C 363.5 280.375 354.8 278.697368 351.4 277.414474 C 348.2 276.131579 347.4 276.427632 346.4 279.486842 L 344.7 285.111842 L 343.7 288.072368 L 347.3 287.776316 C 349.2 287.578947 351 287.282895 352.8 286.789474 C 353.5 286.592105 354.3 286.493421 355 286.493421 C 355.2 286.592105 354.7 287.776316 354 289.157895 L 352.6 291.625 L 354.8 291.230263 C 356 290.934211 357.8 290.342105 358.8 289.848684 C 360.6 288.960526 360.8 288.960526 362.2 291.328947 C 364 293.993421 365.1 293.894737 365.5 291.032895 C 365.8 287.973684 366.8 288.368421 368.7 292.414474 C 370.5 296.164474 372.3 297.644737 372.7 295.375 C 372.9 294.486842 373.6 293.5 374.8 292.611842 C 377 291.131579 378.6 291.526316 379.5 293.894737 C 380.5 296.361842 378.3 298.927632 372.1 302.677632 C 360.5 309.092105 352.5 320.539474 350.4 333.664474 C 348.5 345.506579 354.4 357.743421 366 366.625 C 371.6 370.769737 380.5 375.210526 379.9 373.631579 C 377.5 366.328947 377.6 352.611842 380 350.342105 C 380.4 349.947368 380.3 351.328947 379.7 353.401316 C 377.7 361.296053 378.7 367.513158 383.7 382.118421 C 388.1 395.342105 387.5 400.967105 381.1 404.717105 C 379.1 405.901316 377.8 406.098684 372.3 406 C 366.3 406 365.6 406 363.7 407.578947 C 361.4 409.947368 359.9 413.006579 359.4 416.164474 C 359.4 417.447368 360.7 417.348684 363.4 415.769737 Z M 363.5 415.769737 " transform="matrix(0.0390625,0,0,0.0395833,0,-3.008333)"/>
<path style="fill-rule:nonzero;fill:rgb(100%,71.764708%,0%);fill-opacity:1;stroke-width:5.6;stroke-linecap:butt;stroke-linejoin:miter;stroke:rgb(0%,0%,0%);stroke-opacity:1;stroke-miterlimit:4;" d="M 460.5 415.473684 L 463 413.894737 L 464.7 415.473684 C 466.9 417.644737 469.6 417.546053 471.7 415.375 C 472.8 414.289474 473.4 413.796053 473.6 413.894737 L 474.5 415.473684 C 475 416.361842 476.2 416.855263 478.1 416.953947 C 480.4 417.052632 481.1 416.953947 482.1 415.572368 L 483.1 413.894737 L 485.6 415.473684 C 492.4 419.914474 496 415.276316 492.9 406.197368 C 491.4 401.559211 492.3 398.993421 497.2 393.171053 C 499.3 390.703947 501 388.039474 501 387.151316 C 501 386.065789 500.6 385.868421 497.8 385.967105 C 495.2 385.967105 494.4 385.671053 493 384.190789 C 490.7 381.625 490.9 378.763158 493.4 375.605263 L 495.4 373.138158 L 491.8 370.671053 C 488.9 368.598684 486.2 366.230263 483.8 363.565789 C 479.4 358.434211 473.1 355.177632 466.3 354.585526 L 461.6 354.092105 L 461.6 357.743421 C 461.6 362.184211 463.8 366.625 469.6 374.026316 C 476.2 382.414474 476.6 383.697368 476.9 394.651316 L 477.2 404.026316 L 475.2 405.802632 C 473.5 407.381579 472.8 407.677632 467.2 407.973684 C 461.9 408.269737 460.7 408.565789 459.2 410.046053 C 457.5 411.328947 456.3 413.203947 455.8 415.276316 C 455.5 416.756579 455.6 417.052632 456.7 417.052632 C 457.4 417.052632 459.1 416.361842 460.5 415.473684 M 318.3 391.493421 C 318.9 390.605263 319.2 389.618421 319.3 388.532895 C 319.3 387.546053 319.9 387.052632 322.5 386.657895 L 325.6 386.263158 L 323.6 384.585526 C 321.1 382.611842 320.8 381.131579 323 381.131579 C 325.2 381.131579 328.8 378.861842 329.4 377.184211 C 329.6 376.296053 329.5 375.506579 329 374.914474 C 327.8 373.532895 325.5 373.730263 325.1 375.309211 C 324.6 376.888158 323.9 376.888158 322.1 375.309211 C 319.6 372.842105 319.5 367.710526 322.1 364.651316 C 323.2 363.269737 323.2 363.269737 321.7 361.789474 C 320.1 360.210526 318.9 357.151316 319.7 356.361842 C 319.9 356.164474 321.2 356.361842 322.5 356.855263 C 324.5 357.546053 325.2 357.546053 326 356.855263 C 328.3 354.980263 325.8 352.611842 322 353.203947 C 320.5 353.5 319.7 353.203947 319.6 352.414474 C 319.4 351.822368 318.1 351.032895 316.6 350.638158 C 313.9 349.947368 313.9 349.947368 313.9 351.822368 C 313.9 353.796053 312.8 354.190789 310.5 352.907895 C 308.7 351.921053 307 352.710526 307 354.585526 C 307 356.361842 308.7 357.151316 312 356.953947 C 314.4 356.855263 314.5 358.730263 312.2 361.296053 L 310.5 363.269737 L 311.8 365.243421 C 313.8 368.006579 313.6 372.743421 311.5 375.111842 L 309.8 376.888158 L 308.7 375.407895 C 307.1 373.434211 305 373.532895 304.4 375.703947 C 304.1 377.085526 304.4 377.677632 306.2 379.256579 C 307.4 380.342105 309.2 381.131579 310.1 381.131579 C 312.4 381.131579 312.3 383.006579 309.9 384.782895 L 307.9 386.263158 L 310.9 386.657895 C 312.5 386.953947 313.9 387.447368 313.9 387.743421 C 313.9 389.026316 315.9 392.875 316.5 392.875 C 317 392.776316 317.6 392.282895 318.3 391.394737 Z M 318.3 391.493421 " transform="matrix(0.0390625,0,0,0.0395833,0,-3.008333)"/>
<path style="fill-rule:nonzero;fill:rgb(100%,71.764708%,0%);fill-opacity:1;stroke-width:5.6;stroke-linecap:butt;stroke-linejoin:miter;stroke:rgb(0%,0%,0%);stroke-opacity:1;stroke-miterlimit:4;" d="M 356.5 374.914474 C 359.2 373.927632 365 368.894737 365 367.809211 C 365 367.414474 363.4 365.638158 361.4 363.763158 C 357.4 360.210526 352.9 353.894737 351.7 350.342105 C 351.1 348.269737 348.2 345.111842 340 337.118421 L 329.1 326.559211 L 326 327.447368 C 324.2 327.842105 322.1 328.236842 321.3 328.236842 C 319.8 328.236842 319.8 328.236842 321.8 329.815789 L 323.8 331.394737 L 326.8 329.815789 C 329.5 328.236842 329.6 328.236842 329.9 329.519737 C 330.1 330.210526 329.7 331.493421 328.9 332.381579 C 328.2 333.269737 327.8 334.355263 327.9 334.651316 C 328.1 335.144737 327.6 335.638158 326.4 336.328947 C 324.4 337.315789 322.9 340.572368 324.5 340.572368 C 326 340.572368 329.2 336.625 328.8 335.342105 C 328.7 334.453947 328.7 333.960526 329 333.664474 C 330.3 332.973684 330.2 336.131579 329 337.710526 C 328.2 338.5 327.8 339.486842 328 339.881579 C 328.1 340.276316 327.6 340.868421 326.4 341.460526 C 324.4 342.546053 322.9 345.802632 324.5 345.802632 C 326.1 345.802632 329.2 341.953947 328.9 340.572368 C 328.7 339.782895 328.7 339.190789 329 338.894737 C 329.9 338.5 330.3 340.868421 329.6 342.052632 C 329.2 342.743421 329.2 343.631579 329.6 344.322368 C 330.3 345.605263 329.6 347.973684 328.3 348.763158 C 327.8 349.157895 328.2 349.848684 329.5 350.835526 C 331.5 352.217105 331.5 352.414474 331.5 358.828947 C 331.5 364.157895 331.7 365.638158 332.7 366.526316 C 333.6 367.513158 334 367.513158 333.9 366.526316 C 333.8 365.046053 335.9 364.059211 337.4 364.059211 C 337.9 364.059211 340.8 366.625 343.9 369.585526 C 347 372.644737 350.3 375.309211 351.2 375.407895 L 353.4 375.802632 C 353.7 375.802632 355.1 375.506579 356.5 374.815789 Z M 323.2 348.763158 C 323.2 347.085526 319.6 345.210526 315.3 344.815789 C 311.8 344.322368 311.8 344.421053 311.8 346.098684 C 311.8 347.480263 312.3 348.072368 314.8 349.059211 C 318.6 350.835526 323.2 350.638158 323.2 348.763158 " transform="matrix(0.0390625,0,0,0.0395833,0,-3.008333)"/>
<path style="fill-rule:nonzero;fill:rgb(100%,71.764708%,0%);fill-opacity:1;stroke-width:5.6;stroke-linecap:butt;stroke-linejoin:miter;stroke:rgb(0%,0%,0%);stroke-opacity:1;stroke-miterlimit:4;" d="M 327.1 348.565789 C 328.9 346.986842 329.7 345.210526 328.6 345.210526 C 327.5 345.210526 324.2 347.973684 324.2 349.157895 C 324.2 350.835526 324.8 350.736842 327.2 348.565789 Z M 323.4 343.532895 C 323.6 342.644737 322.8 341.756579 321.1 340.967105 C 317.1 339.289474 312.5 338.401316 311.4 339.289474 C 309.3 340.967105 310.7 343.236842 314 343.631579 C 315.4 343.730263 317.2 344.125 318.1 344.519737 C 320.7 345.506579 323.1 345.013158 323.4 343.532895 M 323.4 338.203947 C 323.6 336.921053 322.7 336.427632 315.4 333.763158 C 309.9 331.789474 307.5 332.776316 309.3 336.131579 C 309.9 337.217105 310.9 337.710526 313.2 338.105263 C 314.9 338.302632 317.2 338.796053 318.3 339.190789 C 321.4 340.177632 323 339.881579 323.3 338.203947 Z M 327 333.269737 C 328.1 332.184211 329 330.901316 329 330.309211 C 329 328.828947 324.7 331.592105 324.1 333.565789 C 323.6 335.934211 324.6 335.835526 327.1 333.269737 Z M 323.4 332.973684 C 323.6 331.394737 321.1 330.013158 315.8 328.927632 C 311.9 328.039474 310.2 328.532895 310.5 330.309211 C 310.7 331.296053 312 331.986842 315.5 333.072368 C 321.4 334.947368 323.1 334.947368 323.4 332.973684 M 328.4 325.572368 C 335.2 322.611842 335.7 315.111842 329.4 313.138158 C 326.9 312.348684 325.1 312.743421 324.2 314.519737 C 323.4 315.901316 323.9 318.269737 324.9 318.269737 C 325.3 318.368421 325.5 318.664474 325.6 319.256579 C 325.6 322.019737 315.4 323.105263 311.2 321.032895 C 309.7 320.342105 309.2 318.269737 310.3 318.269737 C 311.3 318.269737 311.9 316.296053 311.4 315.013158 C 310.7 313.039474 309 312.447368 306.1 313.236842 C 299.8 314.815789 300 322.217105 306.4 325.177632 C 313.5 327.743421 321.2 327.940789 328.4 325.572368 " transform="matrix(0.0390625,0,0,0.0395833,0,-3.008333)"/>
<path style="fill-rule:nonzero;fill:rgb(100%,71.764708%,0%);fill-opacity:1;stroke-width:5.6;stroke-linecap:butt;stroke-linejoin:miter;stroke:rgb(0%,0%,0%);stroke-opacity:1;stroke-miterlimit:4;" d="M 324.3 319.848684 C 324.6 319.355263 324.5 318.861842 323.9 318.368421 C 322.6 317.184211 322.6 315.605263 324.1 313.730263 C 325.3 312.348684 325.4 310.078947 325.8 288.565789 C 326.5 251.460526 329.3 223.631579 332.9 216.822368 C 334.4 214.157895 334.2 214.157895 330.4 216.822368 C 325.4 220.276316 321.4 224.914474 318.7 230.440789 C 312.5 241.888158 310.4 257.381579 310.4 290.638158 C 310.4 309.388158 310.5 311.855263 311.6 313.631579 C 312.6 315.407895 312.6 316 312 317.776316 C 311.5 318.861842 311.3 320.144737 311.5 320.342105 C 312.9 321.625 322.9 321.328947 324.3 319.848684 M 380.4 284.421053 C 380.7 284.125 380.2 282.447368 379.4 280.769737 C 378.2 278.203947 377.7 277.809211 376 277.809211 C 368 277.118421 360.2 274.947368 353 271.394737 C 347.9 269.125 346 268.631579 345.5 269.223684 C 343.9 270.703947 346.5 274.157895 350.5 276.131579 C 356.4 278.203947 362.6 279.486842 368.8 279.782895 C 371.5 279.782895 371.6 279.782895 370 282.052632 L 369 283.730263 L 372 283.730263 L 377 284.322368 C 380 285.013158 380 285.013158 380.4 284.421053 " transform="matrix(0.0390625,0,0,0.0395833,0,-3.008333)"/>
<path style="fill-rule:nonzero;fill:rgb(0%,0%,0.392157%);fill-opacity:1;stroke-width:5.6;stroke-linecap:butt;stroke-linejoin:miter;stroke:rgb(0%,0%,0%);stroke-opacity:1;stroke-miterlimit:4;" d="M 412 301.098684 C 412 300.111842 409.1 297.644737 406.3 295.868421 C 404 294.585526 403.6 294.486842 403.6 295.572368 C 403.6 297.151316 402.2 301.296053 401.6 301.296053 C 401.2 301.197368 400.9 300.605263 400.6 299.618421 C 400.3 298.631579 399.2 296.559211 398.1 295.276316 L 396.1 292.809211 L 394.7 295.078947 C 393.3 297.348684 390.8 299.421053 389.7 299.421053 C 389.5 299.421053 389.4 298.236842 389.7 296.855263 C 389.8 295.177632 389.7 294.190789 389.2 293.894737 C 388.7 293.598684 388.5 293.697368 388.4 294.092105 C 388.4 294.881579 385 298.730263 384.4 298.730263 C 384 298.631579 383.7 297.842105 383.4 296.263158 L 382.6 291.526316 C 382.5 290.342105 382.8 291.032895 383.6 293.5 L 385.2 297.644737 L 386.8 295.078947 C 387.5 294.092105 388.1 292.907895 388.4 291.723684 C 388.4 291.131579 388.6 291.032895 389.1 291.230263 C 389.5 291.427632 390 293.105263 390.2 294.881579 L 390.7 298.335526 L 392.5 296.263158 L 395.1 293.105263 C 395.8 291.921053 395.9 291.921053 397.4 293.105263 C 398.2 293.894737 399.5 295.572368 400.3 296.953947 C 401.1 298.434211 401.8 299.421053 401.9 299.322368 L 402.5 296.065789 L 402.9 293.105263 C 403 292.611842 408.3 296.065789 410.3 297.842105 C 411.5 298.927632 412.7 299.717105 412.9 299.519737 C 413.1 299.322368 413.3 297.743421 413.3 295.769737 C 413.3 293.006579 413 292.217105 411.3 290.736842 C 409.3 288.861842 409.3 288.861842 408.5 290.243421 C 407.5 291.921053 406.4 291.921053 406.4 290.243421 C 406.4 288.960526 402.6 284.322368 401.7 284.322368 C 401.3 284.421053 400.7 285.210526 399.9 286.592105 C 398.7 288.664474 398.4 288.861842 398.2 288.861842 C 397.2 288.861842 391.9 282.940789 391.9 281.855263 C 391.9 281.065789 392.3 281.263158 393.2 282.743421 C 394.1 284.026316 395.1 285.210526 396.3 286.296053 C 398.3 288.072368 399.1 287.677632 399.9 284.223684 C 400.2 283.138158 400.6 282.546053 400.9 282.447368 C 401.7 282.447368 406.3 287.282895 406.9 288.861842 L 407.6 290.539474 L 408.1 288.664474 C 408.7 286.592105 409.5 286.493421 410.4 288.467105 C 410.8 289.256579 412.8 291.131579 414.8 292.315789 L 418.5 294.684211 L 419.2 292.315789 C 419.7 290.934211 420.1 290.440789 420.4 290.736842 C 420.8 291.230263 419.8 295.177632 419.1 295.967105 C 419.1 296.065789 417.8 295.375 416.5 294.486842 L 414 292.710526 L 414 295.868421 C 414 297.644737 413.8 299.717105 413.6 300.506579 C 413.1 302.085526 411.9 302.480263 411.9 301.098684 Z M 393.5 275.736842 C 389.1 272.085526 388.5 271.296053 388.5 269.519737 L 388.6 267.743421 L 388.9 269.421053 C 389.1 270.407895 390.3 271.986842 391.7 273.171053 L 394.3 275.243421 L 395.8 273.368421 C 396.7 272.381579 397.4 271.197368 397.4 270.802632 C 397.4 269.618421 397.6 269.717105 400.6 272.282895 C 403.2 274.552632 403.3 274.552632 403.6 273.072368 C 403.9 272.282895 403.8 270.703947 403.6 269.618421 C 402.6 266.657895 402.8 266.164474 404.1 268.039474 L 406.5 270.802632 C 407.5 271.888158 407.6 271.888158 408 270.506579 C 408.3 269.618421 408.5 268.138158 408.5 267.052632 L 408.5 265.177632 L 410.8 267.940789 C 413.1 270.506579 413.3 270.605263 413.9 269.322368 C 414.4 268.631579 414.7 266.855263 414.7 265.572368 C 414.7 263.894737 414.9 263.302632 415.3 263.993421 C 416.1 265.177632 415.6 268.236842 414.2 270.802632 L 413.2 272.776316 L 411.9 270.703947 C 410.2 268.138158 409.6 268.138158 408.6 270.901316 C 407.7 273.565789 406.8 273.861842 405.9 271.690789 C 405.3 270.407895 405.1 270.605263 404.7 273.368421 L 404.2 276.427632 L 401.2 274.059211 L 398.2 271.789474 L 396.7 273.269737 C 396 274.157895 395.4 275.342105 395.4 275.736842 C 395.3 276.723684 394.7 276.723684 393.5 275.736842 M 432.5 262.118421 C 431 260.736842 429.9 259.256579 430.1 259.059211 C 430.4 258.763158 430.6 258.664474 430.7 258.861842 L 433.7 261.921053 C 437.1 265.473684 436.4 265.572368 432.6 262.118421 Z M 380.5 256.690789 C 379.1 254.717105 379.2 253.532895 381 251.263158 C 382.2 249.782895 382.8 249.585526 385 249.881579 C 386.5 249.980263 389.6 251.263158 391.9 252.743421 C 395.2 254.717105 399 255.703947 402.9 255.703947 L 401.2 252.940789 C 398.9 249.684211 399.1 249.092105 401.6 251.164474 C 404.2 253.335526 407.3 253.927632 414.3 253.730263 L 417.7 253.631579 L 415.7 251.559211 C 413 248.894737 413.8 248.598684 416.9 251.263158 C 419.7 253.828947 419.6 254.026316 413.5 254.618421 C 411 254.815789 408.4 254.717105 405.9 254.125 C 402.5 253.138158 402.3 253.236842 403 254.322368 C 403.5 255.013158 403.9 255.407895 404.3 255.506579 C 404.7 255.605263 404.9 255.802632 405 256.296053 C 405 257.578947 397.6 256.394737 394 254.717105 C 386 250.572368 385 250.177632 383 250.769737 C 381.9 251.164474 381 252.052632 380.6 253.138158 C 379.3 256.394737 384 258.960526 385.9 256.098684 C 386.5 255.210526 386.4 254.717105 385.4 253.631579 C 384 252.25 384.2 251.953947 386 252.644737 C 387.3 253.138158 387.4 256.197368 386.2 257.381579 C 384.9 258.664474 381.7 258.368421 380.5 256.690789 " transform="matrix(0.0390625,0,0,0.0395833,0,-3.008333)"/>
<path style="fill-rule:nonzero;fill:rgb(0%,0%,0.392157%);fill-opacity:1;stroke-width:5.6;stroke-linecap:butt;stroke-linejoin:miter;stroke:rgb(0%,0%,0%);stroke-opacity:1;stroke-miterlimit:4;" d="M 412.4 248.598684 C 411.4 247.611842 412.2 247.414474 416.7 247.315789 C 422.3 247.217105 425.7 246.328947 429.7 243.664474 C 432.9 241.690789 433.8 242.085526 430.7 244.157895 C 428 246.230263 423.7 247.611842 419.4 248.006579 L 414.3 248.697368 C 413.4 248.894737 412.7 248.894737 412.3 248.598684 Z M 412.4 248.598684 " transform="matrix(0.0390625,0,0,0.0395833,0,-3.008333)"/>
<path style=" stroke:none;fill-rule:nonzero;fill:rgb(100%,71.764708%,0%);fill-opacity:1;" d="M 14.199219 13.449219 L 14.289062 13.394531 L 14.328125 13.449219 C 14.378906 13.523438 14.523438 13.519531 14.617188 13.449219 L 14.691406 13.390625 L 14.753906 13.445312 C 14.832031 13.523438 14.980469 13.523438 15.078125 13.445312 C 15.144531 13.398438 15.15625 13.394531 15.195312 13.433594 C 15.222656 13.457031 15.300781 13.480469 15.367188 13.492188 C 15.492188 13.511719 15.492188 13.511719 15.5625 13.398438 C 15.625 13.308594 15.632812 13.273438 15.621094 13.179688 L 15.597656 12.972656 C 15.589844 12.867188 15.59375 12.867188 15.738281 12.8125 L 15.949219 12.734375 C 16.007812 12.699219 16.171875 12.503906 16.171875 12.464844 C 16.171875 12.457031 16.109375 12.441406 16.03125 12.433594 C 15.71875 12.394531 15.664062 12.226562 15.871094 11.917969 C 16.195312 11.402344 16.394531 10.910156 16.394531 10.597656 C 16.394531 10.457031 16.402344 10.402344 16.421875 10.4375 C 16.496094 10.5625 16.363281 11.085938 16.167969 11.46875 L 16.089844 11.617188 L 16.164062 11.601562 C 16.203125 11.589844 16.453125 11.484375 16.710938 11.363281 C 17.421875 11.039062 17.664062 10.976562 18.125 10.996094 C 18.511719 11.011719 18.671875 11.085938 18.945312 11.375 C 19.089844 11.535156 19.230469 11.640625 19.484375 11.804688 C 20.023438 12.144531 20.046875 12.175781 20.074219 12.578125 C 20.101562 12.984375 20.085938 13.011719 19.78125 13.078125 C 19.515625 13.140625 19.359375 13.257812 19.3125 13.433594 C 19.285156 13.523438 19.339844 13.527344 19.46875 13.4375 L 19.566406 13.375 L 19.609375 13.4375 C 19.667969 13.523438 19.785156 13.523438 19.882812 13.4375 L 19.960938 13.378906 L 20.039062 13.4375 C 20.15625 13.539062 20.3125 13.515625 20.359375 13.390625 C 20.367188 13.371094 20.394531 13.378906 20.4375 13.417969 C 20.527344 13.496094 20.75 13.53125 20.773438 13.464844 C 20.78125 13.441406 20.765625 13.386719 20.734375 13.339844 C 20.605469 13.140625 20.5625 13.050781 20.5625 12.945312 C 20.5625 12.792969 20.601562 12.71875 20.773438 12.597656 C 20.976562 12.449219 21.039062 12.257812 20.882812 12.257812 C 20.789062 12.257812 20.691406 12.171875 20.628906 12.035156 C 20.503906 11.75 20.53125 11.433594 20.71875 10.902344 C 20.863281 10.589844 20.933594 10.25 20.929688 9.902344 C 20.929688 9.609375 20.921875 9.5625 20.859375 9.402344 C 20.8125 9.289062 20.75 9.179688 20.679688 9.082031 L 20.570312 8.933594 L 20.707031 8.816406 C 21.128906 8.464844 21.042969 7.886719 20.535156 7.664062 C 20.378906 7.59375 20.339844 7.589844 20.066406 7.589844 C 19.910156 7.589844 19.65625 7.613281 19.519531 7.640625 C 19.335938 7.667969 19.152344 7.683594 18.964844 7.6875 C 18.699219 7.6875 18.652344 7.679688 18.550781 7.625 C 18.445312 7.566406 18.425781 7.539062 18.40625 7.40625 C 18.402344 7.378906 18.386719 7.359375 18.363281 7.347656 C 18.324219 7.335938 18.160156 7.480469 18.136719 7.542969 C 18.121094 7.582031 18.113281 7.578125 18.078125 7.53125 C 18.042969 7.488281 18.019531 7.441406 18 7.390625 C 17.957031 7.261719 18.011719 7.160156 18.164062 7.089844 L 18.28125 7.035156 L 18.210938 6.992188 C 18.070312 6.898438 17.828125 6.960938 17.742188 7.109375 C 17.714844 7.148438 17.6875 7.1875 17.679688 7.1875 C 17.671875 7.1875 17.625 7.148438 17.578125 7.097656 C 17.394531 6.914062 17.457031 6.644531 17.703125 6.566406 C 17.832031 6.523438 17.949219 6.554688 17.972656 6.644531 C 18.011719 6.777344 18.121094 6.601562 18.101562 6.441406 C 18.089844 6.332031 18.089844 6.328125 18.164062 6.328125 C 18.265625 6.328125 18.476562 6.464844 18.546875 6.566406 C 18.625 6.691406 18.617188 6.882812 18.53125 7.027344 L 18.464844 7.136719 L 18.554688 7.121094 C 18.679688 7.09375 18.804688 7.015625 18.867188 6.914062 C 18.933594 6.789062 18.941406 6.636719 18.882812 6.503906 C 18.824219 6.398438 18.832031 6.378906 18.917969 6.417969 C 19.058594 6.476562 19.136719 6.542969 19.191406 6.65625 C 19.246094 6.761719 19.25 6.785156 19.222656 6.894531 C 19.203125 6.964844 19.175781 7.027344 19.136719 7.085938 C 19.089844 7.148438 19.085938 7.160156 19.125 7.160156 C 19.195312 7.160156 19.335938 7.09375 19.386719 7.042969 C 19.414062 7.011719 19.453125 6.941406 19.472656 6.882812 L 19.511719 6.785156 L 19.550781 6.863281 C 19.609375 6.96875 19.726562 7.070312 19.867188 7.132812 C 20.019531 7.195312 20.082031 7.199219 20.003906 7.140625 C 19.949219 7.101562 19.847656 6.804688 19.882812 6.777344 C 20.050781 6.871094 20.207031 6.992188 20.339844 7.132812 C 20.5625 7.335938 20.703125 7.402344 20.90625 7.402344 C 21.167969 7.402344 21.320312 7.171875 21.203125 6.953125 C 21.136719 6.828125 20.984375 6.808594 20.890625 6.914062 C 20.851562 6.960938 20.839844 7.011719 20.851562 7.0625 C 20.867188 7.125 20.863281 7.132812 20.804688 7.132812 C 20.726562 7.132812 20.578125 7.035156 20.3125 6.808594 C 19.941406 6.484375 19.519531 6.234375 19.058594 6.066406 C 18.746094 5.996094 18.425781 5.976562 18.109375 6.015625 C 17.859375 6.0625 17.5625 6.210938 17.398438 6.363281 C 17.113281 6.640625 17.109375 7.011719 17.386719 7.347656 L 17.464844 7.441406 L 17.414062 7.527344 C 17.332031 7.65625 17.339844 7.820312 17.429688 7.941406 C 17.46875 7.996094 17.507812 8.039062 17.519531 8.039062 C 17.527344 8.035156 17.535156 8.007812 17.539062 7.960938 C 17.546875 7.851562 17.589844 7.785156 17.671875 7.753906 C 17.742188 7.726562 17.789062 7.742188 18.109375 7.875 C 18.449219 8.007812 19.007812 8.015625 19.601562 7.898438 C 19.859375 7.835938 20.125 7.839844 20.382812 7.90625 C 20.664062 8.023438 20.726562 8.328125 20.523438 8.558594 C 20.433594 8.660156 20.351562 8.699219 20.066406 8.78125 C 19.816406 8.847656 19.558594 8.867188 19.304688 8.839844 C 18.882812 8.835938 18.730469 8.84375 18.5625 8.878906 C 18.371094 8.917969 18.257812 8.921875 17.710938 8.910156 L 17.074219 8.894531 L 17.144531 8.949219 L 17.265625 9.039062 C 17.316406 9.070312 17.3125 9.074219 17.242188 9.101562 C 17.203125 9.117188 17.109375 9.128906 17.035156 9.128906 L 16.90625 9.128906 L 16.890625 9.238281 C 16.878906 9.289062 16.878906 9.34375 16.890625 9.398438 C 16.90625 9.433594 16.894531 9.445312 16.859375 9.429688 C 16.832031 9.417969 16.757812 9.398438 16.691406 9.386719 C 16.625 9.371094 16.558594 9.347656 16.496094 9.320312 C 16.421875 9.28125 16.414062 9.28125 16.386719 9.332031 C 16.363281 9.375 16.144531 9.539062 16.113281 9.539062 C 16.097656 9.4375 16.070312 9.335938 16.027344 9.242188 C 15.988281 9.160156 15.953125 9.066406 15.941406 9.035156 C 15.929688 8.996094 15.917969 8.992188 15.902344 9.023438 C 15.890625 9.042969 15.875 9.105469 15.863281 9.152344 C 15.847656 9.214844 15.824219 9.277344 15.792969 9.332031 L 15.734375 9.421875 L 15.695312 9.34375 C 15.65625 9.265625 15.59375 9.179688 15.570312 9.179688 C 15.5625 9.179688 15.554688 9.199219 15.542969 9.238281 C 15.523438 9.300781 15.371094 9.488281 15.332031 9.488281 C 15.320312 9.488281 15.308594 9.4375 15.308594 9.371094 C 15.308594 9.308594 15.296875 9.253906 15.28125 9.253906 C 15.265625 9.257812 15.257812 9.269531 15.253906 9.292969 C 15.253906 9.339844 15.125 9.492188 15.078125 9.492188 C 15.058594 9.492188 15.035156 9.503906 15.011719 9.53125 C 14.964844 9.582031 14.925781 9.574219 14.945312 9.515625 C 14.949219 9.464844 14.945312 9.414062 14.929688 9.367188 L 14.890625 9.238281 C 14.886719 9.21875 14.832031 9.226562 14.734375 9.257812 C 14.578125 9.308594 14.523438 9.296875 14.605469 9.234375 C 14.636719 9.210938 14.683594 9.128906 14.707031 9.050781 C 14.734375 8.972656 14.773438 8.90625 14.792969 8.898438 C 14.820312 8.886719 14.820312 8.902344 14.785156 8.945312 C 14.761719 8.976562 14.75 9.011719 14.742188 9.046875 C 14.742188 9.070312 14.722656 9.121094 14.703125 9.164062 C 14.683594 9.207031 14.664062 9.242188 14.667969 9.246094 C 14.671875 9.25 14.734375 9.226562 14.804688 9.195312 L 14.929688 9.132812 L 14.929688 9.1875 C 14.929688 9.21875 14.945312 9.296875 14.964844 9.367188 L 15 9.484375 L 15.085938 9.445312 C 15.171875 9.40625 15.253906 9.261719 15.253906 9.148438 C 15.253906 9.09375 15.285156 9.101562 15.300781 9.160156 C 15.300781 9.175781 15.324219 9.242188 15.339844 9.304688 L 15.378906 9.417969 L 15.4375 9.34375 C 15.472656 9.304688 15.511719 9.226562 15.527344 9.175781 C 15.558594 9.082031 15.605469 9.035156 15.605469 9.109375 C 15.605469 9.15625 15.738281 9.335938 15.761719 9.320312 C 15.777344 9.3125 15.800781 9.246094 15.820312 9.171875 C 15.859375 9.011719 15.917969 8.910156 15.957031 8.933594 C 15.972656 8.945312 15.976562 8.957031 15.96875 8.972656 C 15.960938 8.980469 15.992188 9.085938 16.039062 9.195312 L 16.140625 9.445312 C 16.15625 9.484375 16.171875 9.484375 16.269531 9.394531 C 16.328125 9.335938 16.386719 9.277344 16.390625 9.257812 C 16.402344 9.226562 16.414062 9.230469 16.46875 9.265625 C 16.582031 9.328125 16.710938 9.367188 16.839844 9.378906 C 16.847656 9.371094 16.855469 9.296875 16.855469 9.21875 L 16.859375 9.074219 L 16.9375 9.089844 C 16.976562 9.101562 17.066406 9.101562 17.132812 9.089844 L 17.25 9.074219 L 17.144531 8.992188 C 17.085938 8.953125 17.027344 8.902344 17.011719 8.878906 C 16.996094 8.855469 16.945312 8.832031 16.886719 8.828125 C 16.726562 8.8125 16.441406 8.652344 16.441406 8.574219 C 16.445312 8.5625 16.476562 8.582031 16.527344 8.628906 C 16.636719 8.726562 16.785156 8.789062 16.917969 8.789062 L 17.011719 8.789062 L 16.953125 8.707031 C 16.910156 8.648438 16.882812 8.578125 16.875 8.503906 C 16.867188 8.382812 16.855469 8.367188 16.734375 8.285156 C 16.664062 8.234375 16.597656 8.175781 16.539062 8.113281 L 16.472656 8.039062 L 16.4375 8.128906 C 16.417969 8.1875 16.398438 8.214844 16.386719 8.222656 C 16.378906 8.222656 16.339844 8.191406 16.308594 8.152344 C 16.285156 8.128906 16.261719 8.105469 16.230469 8.089844 C 16.21875 8.089844 16.191406 8.136719 16.160156 8.199219 L 16.105469 8.304688 L 16.066406 8.246094 C 16.03125 8.195312 15.992188 8.152344 15.949219 8.109375 C 15.898438 8.070312 15.882812 8.042969 15.898438 8.039062 C 15.914062 8.039062 15.964844 8.078125 16.015625 8.128906 L 16.101562 8.222656 L 16.140625 8.152344 C 16.164062 8.109375 16.171875 8.054688 16.160156 8.003906 C 16.144531 7.933594 16.148438 7.925781 16.171875 7.976562 C 16.207031 8.019531 16.246094 8.0625 16.289062 8.09375 L 16.375 8.167969 L 16.433594 8.058594 C 16.492188 7.949219 16.492188 7.949219 16.515625 8.015625 C 16.554688 8.097656 16.808594 8.3125 17.023438 8.433594 C 17.0625 8.457031 17.050781 8.390625 16.984375 8.238281 C 16.964844 8.1875 16.957031 8.132812 16.953125 8.078125 C 16.953125 8.007812 16.933594 7.976562 16.84375 7.90625 C 16.730469 7.832031 16.660156 7.707031 16.648438 7.574219 C 16.636719 7.503906 16.613281 7.433594 16.59375 7.410156 C 16.570312 7.363281 16.5625 7.398438 16.570312 7.511719 C 16.578125 7.597656 16.566406 7.699219 16.546875 7.742188 L 16.515625 7.820312 L 16.492188 7.753906 C 16.476562 7.71875 16.414062 7.65625 16.355469 7.617188 C 16.296875 7.578125 16.253906 7.535156 16.261719 7.527344 C 16.269531 7.519531 16.332031 7.554688 16.398438 7.609375 C 16.503906 7.691406 16.523438 7.699219 16.539062 7.664062 C 16.554688 7.625 16.539062 7.441406 16.507812 7.316406 C 16.492188 7.25 16.492188 7.25 16.570312 7.332031 C 16.621094 7.382812 16.660156 7.460938 16.683594 7.578125 C 16.714844 7.726562 16.730469 7.753906 16.867188 7.878906 C 16.949219 7.953125 17.023438 8.007812 17.027344 8.003906 C 17.035156 7.996094 17.042969 7.804688 17.050781 7.578125 C 17.066406 7.136719 17.050781 7.03125 16.945312 6.894531 L 16.890625 6.824219 L 16.976562 6.734375 C 17.074219 6.640625 17.136719 6.519531 17.160156 6.386719 L 17.175781 6.277344 L 17.082031 6.367188 C 17.003906 6.445312 16.964844 6.460938 16.875 6.460938 C 16.785156 6.460938 16.75 6.445312 16.691406 6.378906 C 16.601562 6.292969 16.488281 6.226562 16.367188 6.191406 C 16.324219 6.175781 16.300781 6.183594 16.304688 6.214844 C 16.304688 6.238281 16.28125 6.300781 16.25 6.359375 L 16.195312 6.464844 L 16.078125 6.34375 C 16.003906 6.277344 15.921875 6.21875 15.855469 6.203125 C 15.695312 6.164062 15.6875 6.164062 15.6875 6.285156 C 15.683594 6.472656 15.613281 6.507812 15.46875 6.386719 C 15.359375 6.289062 15.273438 6.265625 15.066406 6.292969 L 14.910156 6.308594 L 14.9375 6.378906 C 14.960938 6.441406 14.957031 6.46875 14.90625 6.535156 C 14.824219 6.644531 14.71875 6.695312 14.554688 6.695312 C 14.476562 6.695312 14.382812 6.710938 14.34375 6.730469 C 14.304688 6.75 14.203125 6.769531 14.121094 6.777344 C 14.042969 6.785156 13.953125 6.800781 13.925781 6.808594 C 13.886719 6.824219 13.886719 6.808594 13.898438 6.722656 C 13.917969 6.585938 13.820312 6.484375 13.675781 6.484375 C 13.484375 6.484375 13.398438 6.65625 13.472656 6.886719 L 13.511719 7.039062 C 13.5625 7.136719 13.632812 7.226562 13.714844 7.300781 C 13.816406 7.402344 13.910156 7.507812 13.925781 7.535156 C 13.957031 7.578125 13.996094 7.613281 14.042969 7.636719 L 14.128906 7.683594 L 14.117188 7.589844 C 14.105469 7.484375 14.125 7.46875 14.179688 7.542969 C 14.199219 7.566406 14.25 7.613281 14.289062 7.636719 C 14.355469 7.675781 14.367188 7.675781 14.367188 7.644531 C 14.367188 7.621094 14.378906 7.566406 14.394531 7.527344 L 14.421875 7.457031 L 14.472656 7.554688 C 14.5 7.613281 14.589844 7.734375 14.671875 7.832031 C 14.832031 8.019531 14.933594 8.230469 14.882812 8.277344 C 14.859375 8.296875 14.804688 8.296875 14.6875 8.273438 C 14.601562 8.257812 14.492188 8.246094 14.445312 8.253906 C 14.355469 8.265625 14.347656 8.253906 14.40625 8.183594 C 14.464844 8.101562 14.453125 8.089844 14.335938 8.089844 C 14.199219 8.089844 13.859375 8.023438 13.726562 7.972656 C 13.601562 7.921875 13.570312 7.933594 13.53125 8.054688 L 13.464844 8.277344 L 13.425781 8.394531 L 13.566406 8.382812 C 13.640625 8.375 13.710938 8.363281 13.78125 8.34375 C 13.808594 8.335938 13.839844 8.332031 13.867188 8.332031 C 13.875 8.335938 13.855469 8.382812 13.828125 8.4375 L 13.773438 8.535156 L 13.859375 8.519531 C 13.90625 8.507812 13.976562 8.484375 14.015625 8.464844 C 14.085938 8.429688 14.09375 8.429688 14.148438 8.523438 C 14.21875 8.628906 14.261719 8.625 14.277344 8.511719 C 14.289062 8.390625 14.328125 8.40625 14.402344 8.566406 C 14.472656 8.714844 14.542969 8.773438 14.558594 8.683594 C 14.566406 8.648438 14.59375 8.609375 14.640625 8.574219 C 14.726562 8.515625 14.789062 8.53125 14.824219 8.625 C 14.863281 8.722656 14.777344 8.824219 14.535156 8.972656 C 14.082031 9.226562 13.769531 9.679688 13.6875 10.199219 C 13.613281 10.667969 13.84375 11.152344 14.296875 11.503906 C 14.515625 11.667969 14.863281 11.84375 14.839844 11.78125 C 14.746094 11.492188 14.75 10.949219 14.84375 10.859375 C 14.859375 10.84375 14.855469 10.898438 14.832031 10.980469 C 14.753906 11.292969 14.792969 11.539062 14.988281 12.117188 C 15.160156 12.640625 15.136719 12.863281 14.886719 13.011719 C 14.808594 13.058594 14.757812 13.066406 14.542969 13.0625 C 14.308594 13.0625 14.28125 13.0625 14.207031 13.125 C 14.117188 13.21875 14.058594 13.339844 14.039062 13.464844 C 14.039062 13.515625 14.089844 13.511719 14.195312 13.449219 Z M 14.199219 13.449219 "/>
<path style=" stroke:none;fill-rule:nonzero;fill:rgb(100%,71.764708%,0%);fill-opacity:1;" d="M 17.988281 13.4375 L 18.085938 13.375 L 18.152344 13.4375 C 18.238281 13.523438 18.34375 13.519531 18.425781 13.433594 C 18.46875 13.390625 18.492188 13.371094 18.5 13.375 L 18.535156 13.4375 C 18.554688 13.472656 18.601562 13.492188 18.675781 13.496094 C 18.765625 13.5 18.792969 13.496094 18.832031 13.441406 L 18.871094 13.375 L 18.96875 13.4375 C 19.234375 13.613281 19.375 13.429688 19.253906 13.070312 C 19.195312 12.886719 19.230469 12.785156 19.421875 12.554688 C 19.503906 12.457031 19.570312 12.351562 19.570312 12.316406 C 19.570312 12.273438 19.554688 12.265625 19.445312 12.269531 C 19.34375 12.269531 19.3125 12.257812 19.257812 12.199219 C 19.167969 12.097656 19.175781 11.984375 19.273438 11.859375 L 19.351562 11.761719 L 19.210938 11.664062 C 19.097656 11.582031 18.992188 11.488281 18.898438 11.382812 C 18.726562 11.179688 18.480469 11.050781 18.214844 11.027344 L 18.03125 11.007812 L 18.03125 11.152344 C 18.03125 11.328125 18.117188 11.503906 18.34375 11.796875 C 18.601562 12.128906 18.617188 12.179688 18.628906 12.613281 L 18.640625 12.984375 L 18.5625 13.054688 C 18.496094 13.117188 18.46875 13.128906 18.25 13.140625 C 18.042969 13.152344 17.996094 13.164062 17.9375 13.222656 C 17.871094 13.273438 17.824219 13.347656 17.804688 13.429688 C 17.792969 13.488281 17.796875 13.5 17.839844 13.5 C 17.867188 13.5 17.933594 13.472656 17.988281 13.4375 M 12.433594 12.488281 C 12.457031 12.453125 12.46875 12.414062 12.472656 12.371094 C 12.472656 12.332031 12.496094 12.3125 12.597656 12.296875 L 12.71875 12.28125 L 12.640625 12.214844 C 12.542969 12.136719 12.53125 12.078125 12.617188 12.078125 C 12.703125 12.078125 12.84375 11.988281 12.867188 11.921875 C 12.875 11.886719 12.871094 11.855469 12.851562 11.832031 C 12.804688 11.777344 12.714844 11.785156 12.699219 11.847656 C 12.679688 11.910156 12.652344 11.910156 12.582031 11.847656 C 12.484375 11.75 12.480469 11.546875 12.582031 11.425781 C 12.625 11.371094 12.625 11.371094 12.566406 11.3125 C 12.503906 11.25 12.457031 11.128906 12.488281 11.097656 C 12.496094 11.089844 12.546875 11.097656 12.597656 11.117188 C 12.675781 11.144531 12.703125 11.144531 12.734375 11.117188 C 12.824219 11.042969 12.726562 10.949219 12.578125 10.972656 C 12.519531 10.984375 12.488281 10.972656 12.484375 10.941406 C 12.476562 10.917969 12.425781 10.886719 12.367188 10.871094 C 12.261719 10.84375 12.261719 10.84375 12.261719 10.917969 C 12.261719 10.996094 12.21875 11.011719 12.128906 10.960938 C 12.058594 10.921875 11.992188 10.953125 11.992188 11.027344 C 11.992188 11.097656 12.058594 11.128906 12.1875 11.121094 C 12.28125 11.117188 12.285156 11.191406 12.195312 11.292969 L 12.128906 11.371094 L 12.179688 11.449219 C 12.257812 11.558594 12.25 11.746094 12.167969 11.839844 L 12.101562 11.910156 L 12.058594 11.851562 C 11.996094 11.773438 11.914062 11.777344 11.890625 11.863281 C 11.878906 11.917969 11.890625 11.941406 11.960938 12.003906 C 12.007812 12.046875 12.078125 12.078125 12.113281 12.078125 C 12.203125 12.078125 12.199219 12.152344 12.105469 12.222656 L 12.027344 12.28125 L 12.144531 12.296875 C 12.207031 12.308594 12.261719 12.328125 12.261719 12.339844 C 12.261719 12.390625 12.339844 12.542969 12.363281 12.542969 C 12.382812 12.539062 12.40625 12.519531 12.433594 12.484375 Z M 12.433594 12.488281 "/>
<path style=" stroke:none;fill-rule:nonzero;fill:rgb(100%,71.764708%,0%);fill-opacity:1;" d="M 13.925781 11.832031 C 14.03125 11.792969 14.257812 11.59375 14.257812 11.550781 C 14.257812 11.535156 14.195312 11.464844 14.117188 11.390625 C 13.960938 11.25 13.785156 11 13.738281 10.859375 C 13.714844 10.777344 13.601562 10.652344 13.28125 10.335938 L 12.855469 9.917969 L 12.734375 9.953125 C 12.664062 9.96875 12.582031 9.984375 12.550781 9.984375 C 12.492188 9.984375 12.492188 9.984375 12.570312 10.046875 L 12.648438 10.109375 L 12.765625 10.046875 C 12.871094 9.984375 12.875 9.984375 12.886719 10.035156 C 12.894531 10.0625 12.878906 10.113281 12.847656 10.148438 C 12.820312 10.183594 12.804688 10.226562 12.808594 10.238281 C 12.816406 10.257812 12.796875 10.277344 12.75 10.304688 C 12.671875 10.34375 12.613281 10.472656 12.675781 10.472656 C 12.734375 10.472656 12.859375 10.316406 12.84375 10.265625 C 12.839844 10.230469 12.839844 10.210938 12.851562 10.199219 C 12.902344 10.171875 12.898438 10.296875 12.851562 10.359375 C 12.820312 10.390625 12.804688 10.429688 12.8125 10.445312 C 12.816406 10.460938 12.796875 10.484375 12.75 10.507812 C 12.671875 10.550781 12.613281 10.679688 12.675781 10.679688 C 12.738281 10.679688 12.859375 10.527344 12.847656 10.472656 C 12.839844 10.441406 12.839844 10.417969 12.851562 10.40625 C 12.886719 10.390625 12.902344 10.484375 12.875 10.53125 C 12.859375 10.558594 12.859375 10.59375 12.875 10.621094 C 12.902344 10.671875 12.875 10.765625 12.824219 10.796875 C 12.804688 10.8125 12.820312 10.839844 12.871094 10.878906 C 12.949219 10.933594 12.949219 10.941406 12.949219 11.195312 C 12.949219 11.40625 12.957031 11.464844 12.996094 11.5 C 13.03125 11.539062 13.046875 11.539062 13.042969 11.5 C 13.039062 11.441406 13.121094 11.402344 13.179688 11.402344 C 13.199219 11.402344 13.3125 11.503906 13.433594 11.621094 C 13.554688 11.742188 13.683594 11.847656 13.71875 11.851562 L 13.804688 11.867188 C 13.816406 11.867188 13.871094 11.855469 13.925781 11.828125 Z M 12.625 10.796875 C 12.625 10.730469 12.484375 10.65625 12.316406 10.640625 C 12.179688 10.621094 12.179688 10.625 12.179688 10.691406 C 12.179688 10.746094 12.199219 10.769531 12.296875 10.808594 C 12.445312 10.878906 12.625 10.871094 12.625 10.796875 "/>
<path style=" stroke:none;fill-rule:nonzero;fill:rgb(100%,71.764708%,0%);fill-opacity:1;" d="M 12.777344 10.789062 C 12.847656 10.726562 12.878906 10.65625 12.835938 10.65625 C 12.792969 10.65625 12.664062 10.765625 12.664062 10.8125 C 12.664062 10.878906 12.6875 10.875 12.78125 10.789062 Z M 12.632812 10.589844 C 12.640625 10.554688 12.609375 10.519531 12.542969 10.488281 C 12.386719 10.421875 12.207031 10.386719 12.164062 10.421875 C 12.082031 10.488281 12.136719 10.578125 12.265625 10.59375 C 12.320312 10.597656 12.390625 10.613281 12.425781 10.628906 C 12.527344 10.667969 12.621094 10.648438 12.632812 10.589844 M 12.632812 10.378906 C 12.640625 10.328125 12.605469 10.308594 12.320312 10.203125 C 12.105469 10.125 12.011719 10.164062 12.082031 10.296875 C 12.105469 10.339844 12.144531 10.359375 12.234375 10.375 C 12.300781 10.382812 12.390625 10.402344 12.433594 10.417969 C 12.554688 10.457031 12.617188 10.445312 12.628906 10.378906 Z M 12.773438 10.183594 C 12.816406 10.140625 12.851562 10.089844 12.851562 10.066406 C 12.851562 10.007812 12.683594 10.117188 12.660156 10.195312 C 12.640625 10.289062 12.679688 10.285156 12.777344 10.183594 Z M 12.632812 10.171875 C 12.640625 10.109375 12.542969 10.054688 12.335938 10.011719 C 12.183594 9.976562 12.117188 9.996094 12.128906 10.066406 C 12.136719 10.105469 12.1875 10.132812 12.324219 10.175781 C 12.554688 10.25 12.621094 10.25 12.632812 10.171875 M 12.828125 9.878906 C 13.09375 9.761719 13.113281 9.464844 12.867188 9.386719 C 12.769531 9.355469 12.699219 9.371094 12.664062 9.441406 C 12.632812 9.496094 12.652344 9.589844 12.691406 9.589844 C 12.707031 9.59375 12.714844 9.605469 12.71875 9.628906 C 12.71875 9.738281 12.320312 9.78125 12.15625 9.699219 C 12.097656 9.671875 12.078125 9.589844 12.121094 9.589844 C 12.160156 9.589844 12.183594 9.511719 12.164062 9.460938 C 12.136719 9.382812 12.070312 9.359375 11.957031 9.390625 C 11.710938 9.453125 11.71875 9.746094 11.96875 9.863281 C 12.246094 9.964844 12.546875 9.972656 12.828125 9.878906 "/>
<path style=" stroke:none;fill-rule:nonzero;fill:rgb(100%,71.764708%,0%);fill-opacity:1;" d="M 12.667969 9.652344 C 12.679688 9.632812 12.675781 9.613281 12.652344 9.59375 C 12.601562 9.546875 12.601562 9.484375 12.660156 9.410156 C 12.707031 9.355469 12.710938 9.265625 12.726562 8.414062 C 12.753906 6.945312 12.863281 5.84375 13.003906 5.574219 C 13.0625 5.46875 13.054688 5.46875 12.90625 5.574219 C 12.710938 5.710938 12.554688 5.894531 12.449219 6.113281 C 12.207031 6.566406 12.125 7.179688 12.125 8.496094 C 12.125 9.238281 12.128906 9.335938 12.171875 9.40625 C 12.210938 9.476562 12.210938 9.5 12.1875 9.570312 C 12.167969 9.613281 12.160156 9.664062 12.167969 9.671875 C 12.222656 9.722656 12.613281 9.710938 12.667969 9.652344 M 14.859375 8.25 C 14.871094 8.238281 14.851562 8.171875 14.820312 8.105469 C 14.773438 8.003906 14.753906 7.988281 14.6875 7.988281 C 14.375 7.960938 14.070312 7.875 13.789062 7.734375 C 13.589844 7.644531 13.515625 7.625 13.496094 7.648438 C 13.433594 7.707031 13.535156 7.84375 13.691406 7.921875 C 13.921875 8.003906 14.164062 8.054688 14.40625 8.066406 C 14.511719 8.066406 14.515625 8.066406 14.453125 8.15625 L 14.414062 8.222656 L 14.53125 8.222656 L 14.726562 8.246094 C 14.84375 8.273438 14.84375 8.273438 14.859375 8.25 "/>
<path style=" stroke:none;fill-rule:nonzero;fill:rgb(0%,0%,0.392157%);fill-opacity:1;" d="M 16.09375 8.910156 C 16.09375 8.871094 15.980469 8.773438 15.871094 8.703125 C 15.78125 8.652344 15.765625 8.648438 15.765625 8.691406 C 15.765625 8.753906 15.710938 8.917969 15.6875 8.917969 C 15.671875 8.914062 15.660156 8.890625 15.648438 8.851562 C 15.636719 8.8125 15.59375 8.730469 15.550781 8.679688 L 15.472656 8.582031 L 15.417969 8.671875 C 15.363281 8.761719 15.265625 8.84375 15.222656 8.84375 C 15.214844 8.84375 15.210938 8.796875 15.222656 8.742188 C 15.226562 8.675781 15.222656 8.636719 15.203125 8.625 C 15.183594 8.613281 15.175781 8.617188 15.171875 8.632812 C 15.171875 8.664062 15.039062 8.816406 15.015625 8.816406 C 15 8.8125 14.988281 8.78125 14.976562 8.71875 L 14.945312 8.53125 C 14.941406 8.484375 14.953125 8.511719 14.984375 8.609375 L 15.046875 8.773438 L 15.109375 8.671875 C 15.136719 8.632812 15.160156 8.585938 15.171875 8.539062 C 15.171875 8.515625 15.179688 8.511719 15.199219 8.519531 C 15.214844 8.527344 15.234375 8.59375 15.242188 8.664062 L 15.261719 8.800781 L 15.332031 8.71875 L 15.433594 8.59375 C 15.460938 8.546875 15.464844 8.546875 15.523438 8.59375 C 15.554688 8.625 15.605469 8.691406 15.636719 8.746094 C 15.667969 8.804688 15.695312 8.84375 15.699219 8.839844 L 15.722656 8.710938 L 15.738281 8.59375 C 15.742188 8.574219 15.949219 8.710938 16.027344 8.78125 C 16.074219 8.824219 16.121094 8.855469 16.128906 8.847656 C 16.136719 8.839844 16.144531 8.777344 16.144531 8.699219 C 16.144531 8.589844 16.132812 8.558594 16.066406 8.5 C 15.988281 8.425781 15.988281 8.425781 15.957031 8.480469 C 15.917969 8.546875 15.875 8.546875 15.875 8.480469 C 15.875 8.429688 15.726562 8.246094 15.691406 8.246094 C 15.675781 8.25 15.652344 8.28125 15.621094 8.335938 C 15.574219 8.417969 15.5625 8.425781 15.554688 8.425781 C 15.515625 8.425781 15.308594 8.191406 15.308594 8.148438 C 15.308594 8.117188 15.324219 8.125 15.359375 8.183594 C 15.394531 8.234375 15.433594 8.28125 15.480469 8.324219 C 15.558594 8.394531 15.589844 8.378906 15.621094 8.242188 C 15.632812 8.199219 15.648438 8.175781 15.660156 8.171875 C 15.691406 8.171875 15.871094 8.363281 15.894531 8.425781 L 15.921875 8.492188 L 15.941406 8.417969 C 15.964844 8.335938 15.996094 8.332031 16.03125 8.410156 C 16.046875 8.441406 16.125 8.515625 16.203125 8.5625 L 16.347656 8.65625 L 16.375 8.5625 C 16.394531 8.507812 16.410156 8.488281 16.421875 8.5 C 16.4375 8.519531 16.398438 8.675781 16.371094 8.707031 C 16.371094 8.710938 16.320312 8.683594 16.269531 8.648438 L 16.171875 8.578125 L 16.171875 8.703125 C 16.171875 8.773438 16.164062 8.855469 16.15625 8.886719 C 16.136719 8.949219 16.089844 8.964844 16.089844 8.910156 Z M 15.371094 7.90625 C 15.199219 7.761719 15.175781 7.730469 15.175781 7.660156 L 15.179688 7.589844 L 15.191406 7.65625 C 15.199219 7.695312 15.246094 7.757812 15.300781 7.804688 L 15.402344 7.886719 L 15.460938 7.8125 C 15.496094 7.773438 15.523438 7.726562 15.523438 7.710938 C 15.523438 7.664062 15.53125 7.667969 15.648438 7.769531 C 15.75 7.859375 15.753906 7.859375 15.765625 7.800781 C 15.777344 7.769531 15.773438 7.707031 15.765625 7.664062 C 15.726562 7.546875 15.734375 7.527344 15.785156 7.601562 L 15.878906 7.710938 C 15.917969 7.753906 15.921875 7.753906 15.9375 7.699219 C 15.949219 7.664062 15.957031 7.605469 15.957031 7.5625 L 15.957031 7.488281 L 16.046875 7.597656 C 16.136719 7.699219 16.144531 7.703125 16.167969 7.652344 C 16.1875 7.625 16.199219 7.554688 16.199219 7.503906 C 16.199219 7.4375 16.207031 7.414062 16.222656 7.441406 C 16.253906 7.488281 16.234375 7.609375 16.179688 7.710938 L 16.140625 7.789062 L 16.089844 7.707031 C 16.023438 7.605469 16 7.605469 15.960938 7.714844 C 15.925781 7.820312 15.890625 7.832031 15.855469 7.746094 C 15.832031 7.695312 15.824219 7.703125 15.808594 7.8125 L 15.789062 7.933594 L 15.671875 7.839844 L 15.554688 7.75 L 15.496094 7.808594 C 15.46875 7.84375 15.445312 7.890625 15.445312 7.90625 C 15.441406 7.945312 15.417969 7.945312 15.371094 7.90625 M 16.894531 7.367188 C 16.835938 7.3125 16.792969 7.253906 16.800781 7.246094 C 16.8125 7.234375 16.820312 7.230469 16.824219 7.238281 L 16.941406 7.359375 C 17.074219 7.5 17.046875 7.503906 16.898438 7.367188 Z M 14.863281 7.152344 C 14.808594 7.074219 14.8125 7.027344 14.882812 6.9375 C 14.929688 6.878906 14.953125 6.871094 15.039062 6.882812 C 15.097656 6.886719 15.21875 6.9375 15.308594 6.996094 C 15.4375 7.074219 15.585938 7.113281 15.738281 7.113281 L 15.671875 7.003906 C 15.582031 6.875 15.589844 6.851562 15.6875 6.933594 C 15.789062 7.019531 15.910156 7.042969 16.183594 7.035156 L 16.316406 7.03125 L 16.238281 6.949219 C 16.132812 6.84375 16.164062 6.832031 16.285156 6.9375 C 16.394531 7.039062 16.390625 7.046875 16.152344 7.070312 C 16.054688 7.078125 15.953125 7.074219 15.855469 7.050781 C 15.722656 7.011719 15.714844 7.015625 15.742188 7.058594 C 15.761719 7.085938 15.777344 7.101562 15.792969 7.105469 C 15.808594 7.109375 15.816406 7.117188 15.820312 7.136719 C 15.820312 7.1875 15.53125 7.140625 15.390625 7.074219 C 15.078125 6.910156 15.039062 6.894531 14.960938 6.917969 C 14.917969 6.933594 14.882812 6.96875 14.867188 7.011719 C 14.816406 7.140625 15 7.242188 15.074219 7.128906 C 15.097656 7.09375 15.09375 7.074219 15.054688 7.03125 C 15 6.976562 15.007812 6.964844 15.078125 6.992188 C 15.128906 7.011719 15.132812 7.132812 15.085938 7.179688 C 15.035156 7.230469 14.910156 7.21875 14.863281 7.152344 "/>
<path style=" stroke:none;fill-rule:nonzero;fill:rgb(0%,0%,0.392157%);fill-opacity:1;" d="M 16.109375 6.832031 C 16.070312 6.792969 16.101562 6.785156 16.277344 6.78125 C 16.496094 6.777344 16.628906 6.742188 16.785156 6.636719 C 16.910156 6.558594 16.945312 6.574219 16.824219 6.65625 C 16.71875 6.738281 16.550781 6.792969 16.382812 6.808594 L 16.183594 6.835938 C 16.148438 6.84375 16.121094 6.84375 16.105469 6.832031 Z M 16.109375 6.832031 "/>
</g>
</svg>
