<svg xmlns="http://www.w3.org/2000/svg" width="25" height="px" viewBox="0 0 25 19"><path d="M0 0h25v19H0z" style="fill:#ffb700;fill-opacity:1;stroke:none"/><path d="M1.043 9.5 4.48 1.059h3.438V17.94H4.48Zm0 0" style="stroke:none;fill-rule:nonzero;fill:#ff5b00;fill-opacity:1"/><path d="M1.043 1.059H4.48V17.94H1.043Zm0 0" style="stroke:none;fill-rule:nonzero;fill:#005641;fill-opacity:1"/><path d="M8.957 1.059h15.106V17.94H8.957Zm0 0" style="stroke:none;fill-rule:nonzero;fill:#8d2029;fill-opacity:1"/><path d="M579.3 408.553s3.6 7.302 7.6 10.46c6 4.342 18 3.948 23.3 9.276 6.1 6.119-.5 14.211-.5 15l.4 4.244s-4.2 0-6 .296c-2.6.395-3.6 2.566-8.6 2.27-12.3-.79-11.8-12.04-12.5-21.513-.6-3.553-2-8.389-2.9-11.941-.7-3.06-.8-8.092-.8-8.092Zm0 0" style="fill-rule:nonzero;fill:#ffb700;fill-opacity:1;stroke-width:1.1;stroke-linecap:butt;stroke-linejoin:miter;stroke:#000;stroke-opacity:1;stroke-miterlimit:4" transform="scale(.03906 .03958)"/><path d="M579.3 408.553s3.6 7.302 7.6 10.46c6 4.342 18 3.948 23.3 9.276 6.1 6.119-.5 14.211-.5 15l.4 4.244s-4.2 0-6 .296c-2.6.395-3.6 2.566-8.6 2.27-12.3-.79-11.8-12.04-12.5-21.513-.6-3.553-2-8.389-2.9-11.941-.7-3.06-.8-8.092-.8-8.092Zm0 0" style="fill-rule:nonzero;fill:#ffb700;fill-opacity:1;stroke-width:1.1;stroke-linecap:butt;stroke-linejoin:miter;stroke:#000;stroke-opacity:1;stroke-miterlimit:4" transform="matrix(-.03906 0 0 .03958 33.02 0)"/><path d="M579.3 408.553s3.6 7.302 7.6 10.46c6 4.342 18 3.948 23.3 9.276 6.1 6.119-.5 14.211-.5 15l.4 4.244s-4.2 0-6 .296c-2.6.395-3.6 2.566-8.6 2.27-12.3-.79-11.8-12.04-12.5-21.513-.6-3.553-2-8.389-2.9-11.941-.7-3.06-.8-8.092-.8-8.092Zm0 0" style="fill-rule:nonzero;fill:#ffb700;fill-opacity:1;stroke-width:1.1;stroke-linecap:butt;stroke-linejoin:miter;stroke:#000;stroke-opacity:1;stroke-miterlimit:4" transform="matrix(.03906 0 0 -.03958 0 19)"/><path d="M579.3 408.553s3.6 7.302 7.6 10.46c6 4.342 18 3.948 23.3 9.276 6.1 6.119-.5 14.211-.5 15l.4 4.244s-4.2 0-6 .296c-2.6.395-3.6 2.566-8.6 2.27-12.3-.79-11.8-12.04-12.5-21.513-.6-3.553-2-8.389-2.9-11.941-.7-3.06-.8-8.092-.8-8.092Zm0 0" style="fill-rule:nonzero;fill:#ffb700;fill-opacity:1;stroke-width:1.1;stroke-linecap:butt;stroke-linejoin:miter;stroke:#000;stroke-opacity:1;stroke-miterlimit:4" transform="matrix(-.03906 0 0 -.03958 33.023 19)"/><path d="m363.5 415.77 2.3-1.382 1 1.382c1.3 1.875 5 1.776 7.4 0l1.9-1.48 1.6 1.381c2 1.974 5.8 1.974 8.3 0 1.7-1.184 2-1.283 3-.296.7.592 2.7 1.184 4.4 1.48 3.2.494 3.2.494 5-2.368 1.6-2.27 1.8-3.158 1.5-5.526l-.6-5.23c-.2-2.665-.1-2.665 3.6-4.047l5.4-1.973c1.5-.889 5.7-5.823 5.7-6.81 0-.197-1.6-.592-3.6-.79-8-.986-9.4-5.23-4.1-13.025 8.3-13.027 13.4-25.461 13.4-33.356 0-3.552.2-4.934.7-4.046 1.9 3.158-1.5 16.382-6.5 26.053l-2 3.75 1.9-.395c1-.296 7.4-2.96 14-6.02 18.2-8.19 24.4-9.77 36.2-9.276 9.9.395 14 2.27 21 9.572 3.7 4.046 7.3 6.71 13.8 10.856 13.8 8.585 14.4 9.375 15.1 19.54.7 10.262.3 10.953-7.5 12.63-6.8 1.58-10.8 4.54-12 8.981-.7 2.27.7 2.368 4 .099l2.5-1.58 1.1 1.58c1.5 2.17 4.5 2.17 7 0l2-1.48 2 1.48c3 2.565 7 1.973 8.2-1.185.2-.493.9-.296 2 .691 2.3 1.974 8 2.862 8.6 1.184.2-.592-.2-1.973-1-3.157-3.3-5.033-4.4-7.303-4.4-9.968 0-3.848 1-5.723 5.4-8.782 5.2-3.75 6.8-8.586 2.8-8.586-2.4 0-4.9-2.171-6.5-5.625-3.2-7.204-2.5-15.197 2.3-28.618 3.7-7.895 5.5-16.48 5.4-25.264 0-7.4-.2-8.585-1.8-12.631-1.2-2.862-2.8-5.625-4.6-8.092l-2.8-3.75 3.5-2.96c10.8-8.882 8.6-23.488-4.4-29.113-4-1.776-5-1.875-12-1.875-4 0-10.5.593-14 1.283-4.7.691-9.4 1.086-14.2 1.185-6.8 0-8-.198-10.6-1.58-2.7-1.48-3.2-2.17-3.7-5.526-.1-.69-.5-1.184-1.1-1.48-1-.296-5.2 3.355-5.8 4.934-.4.987-.6.888-1.5-.296-.9-1.085-1.5-2.27-2-3.552-1.1-3.257.3-5.823 4.2-7.6l3-1.38-1.8-1.086c-3.6-2.369-9.8-.79-12 2.96-.7.987-1.4 1.974-1.6 1.974s-1.4-.987-2.6-2.27c-4.7-4.638-3.1-11.447 3.2-13.42 3.3-1.086 6.3-.297 6.9 1.973 1 3.355 3.8-1.086 3.3-5.132-.3-2.763-.3-2.862 1.6-2.862 2.6 0 8 3.454 9.8 6.02 2 3.158 1.8 7.994-.4 11.645l-1.7 2.763 2.3-.395c3.2-.69 6.4-2.664 8-5.23 1.7-3.158 1.9-7.007.4-10.362-1.5-2.664-1.3-3.158.9-2.17 3.6 1.48 5.6 3.157 7 6.019 1.4 2.664 1.5 3.256.8 6.02-.5 1.776-1.2 3.355-2.2 4.835-1.2 1.58-1.3 1.875-.3 1.875 1.8 0 5.4-1.677 6.7-2.96.7-.79 1.7-2.566 2.2-4.046l1-2.468 1 1.974c1.5 2.665 4.5 5.23 8.1 6.81 3.9 1.578 5.5 1.677 3.5.197-1.4-.987-4-8.487-3.1-9.178a49 49 0 0 1 11.7 8.98c5.7 5.132 9.3 6.81 14.5 6.81 6.7 0 10.6-5.823 7.6-11.35-1.7-3.157-5.6-3.65-8-.986-1 1.184-1.3 2.467-1 3.75.4 1.579.3 1.776-1.2 1.776-2 0-5.8-2.467-12.6-8.19-9.5-8.191-20.3-14.507-32.1-18.75-8-1.777-16.2-2.27-24.3-1.283-6.4 1.184-14 4.934-18.2 8.783-7.3 7.006-7.4 16.381-.3 24.868l2 2.368-1.3 2.171c-2.1 3.257-1.9 7.402.4 10.461 1 1.382 2 2.467 2.3 2.467.2-.099.4-.79.5-1.974.2-2.763 1.3-4.44 3.4-5.23 1.8-.69 3-.296 11.2 3.06 8.7 3.355 23 3.552 38.2.591 6.6-1.578 13.4-1.48 20 .198 7.2 2.96 8.8 10.658 3.6 16.48-2.3 2.566-4.4 3.553-11.7 5.625-6.4 1.678-13 2.171-19.5 1.48-10.8-.098-14.7.1-19 .987-4.9.987-7.8 1.086-21.8.79l-16.3-.395 1.8 1.382 3.1 2.27c1.3.789 1.2.887-.6 1.578-1 .395-3.4.691-5.3.691h-3.3l-.4 2.763c-.3 1.283-.3 2.665 0 4.046.4.888.1 1.184-.8.79-.7-.296-2.6-.79-4.3-1.086-1.7-.395-3.4-.987-5-1.677-1.9-.987-2.1-.987-2.8.296-.6 1.085-6.2 5.23-7 5.23-.4-2.566-1.1-5.132-2.2-7.5-1-2.073-1.9-4.44-2.2-5.23-.3-.987-.6-1.086-1-.296-.3.493-.7 2.072-1 3.256-.4 1.58-1 3.158-1.8 4.54l-1.5 2.27-1-1.974c-1-1.974-2.6-4.145-3.2-4.145-.2 0-.4.493-.7 1.48-.5 1.58-4.4 6.316-5.4 6.316-.3 0-.6-1.283-.6-2.96 0-1.58-.3-2.961-.7-2.961-.4.099-.6.395-.7.987 0 1.184-3.3 5.033-4.5 5.033-.5 0-1.1.296-1.7.986-1.2 1.283-2.2 1.086-1.7-.394.1-1.283 0-2.566-.4-3.75l-1-3.257c-.1-.493-1.5-.296-4 .494-4 1.282-5.4.986-3.3-.593.8-.592 2-2.664 2.6-4.638.7-1.973 1.7-3.651 2.2-3.848.7-.296.7.098-.2 1.184-.6.79-.9 1.677-1.1 2.566 0 .592-.5 1.875-1 2.96-.5 1.086-1 1.974-.9 2.073s1.7-.494 3.5-1.283l3.2-1.58v1.382c0 .79.4 2.763.9 4.54l.9 2.96 2.2-.987c2.2-.986 4.3-4.638 4.3-7.5 0-1.381.8-1.184 1.2.296 0 .395.6 2.073 1 3.652l1 2.862 1.5-1.875c.9-.987 1.9-2.96 2.3-4.244.8-2.368 2-3.552 2-1.677 0 1.184 3.4 5.723 4 5.329.4-.198 1-1.875 1.5-3.75 1-4.047 2.5-6.612 3.5-6.02.4.296.5.592.3.987-.2.197.6 2.861 1.8 5.625l2.6 6.315c.4.987.8.987 3.3-1.282 1.5-1.48 3-2.961 3.1-3.454.3-.79.6-.691 2 .197 2.9 1.579 6.2 2.566 9.5 2.862.2-.198.4-2.073.4-4.046l.1-3.652 2 .395c1 .296 3.3.296 5 0l3-.395-2.7-2.072c-1.5-.987-3-2.27-3.4-2.862s-1.7-1.184-3.2-1.283c-4.1-.394-11.4-4.44-11.4-6.414.1-.296.9.197 2.2 1.381 2.8 2.468 6.6 4.046 10 4.046h2.4l-1.5-2.072c-1.1-1.48-1.8-3.256-2-5.131-.2-3.06-.5-3.454-3.6-5.527a35 35 0 0 1-5-4.342l-1.7-1.875-.9 2.27c-.5 1.48-1 2.17-1.3 2.368-.2 0-1.2-.79-2-1.776-.6-.592-1.2-1.184-2-1.579-.3 0-1 1.184-1.8 2.763l-1.4 2.665-1-1.48c-.9-1.284-1.9-2.37-3-3.455-1.3-.986-1.7-1.677-1.3-1.776.4 0 1.7.987 3 2.27l2.2 2.368 1-1.776c.6-1.086.8-2.467.5-3.75-.4-1.776-.3-1.974.3-.69.9 1.085 1.9 2.17 3 2.96l2.2 1.875 1.5-2.763c1.5-2.764 1.5-2.764 2.1-1.086 1 2.072 7.5 7.5 13 10.56 1 .591.7-1.086-1-4.935-.5-1.283-.7-2.664-.8-4.046 0-1.776-.5-2.566-2.8-4.342-2.9-1.875-4.7-5.033-5-8.388-.3-1.777-.9-3.553-1.4-4.145-.6-1.184-.8-.296-.6 2.566.2 2.17-.1 4.737-.6 5.822l-.8 1.974-.6-1.678c-.4-.888-2-2.467-3.5-3.454s-2.6-2.072-2.4-2.27 1.8.691 3.5 2.073c2.7 2.072 3.2 2.27 3.6 1.381.4-.986 0-5.625-.8-8.782-.4-1.678-.4-1.678 1.6.394 1.3 1.283 2.3 3.257 2.9 6.217.8 3.75 1.2 4.441 4.7 7.6 2.1 1.874 4 3.256 4.1 3.157.2-.197.4-5.033.6-10.757.4-11.15 0-13.815-2.7-17.27l-1.4-1.776 2.2-2.27c2.5-2.368 4.1-5.427 4.7-8.782l.4-2.763-2.4 2.27c-2 1.973-3 2.368-5.3 2.368s-3.2-.395-4.7-2.073a20.4 20.4 0 0 0-8.3-4.737c-1.1-.394-1.7-.197-1.6.593 0 .592-.6 2.17-1.4 3.65l-1.4 2.665-3-3.059c-1.9-1.677-4-3.158-5.7-3.552-4.1-.987-4.3-.987-4.3 2.072-.1 4.737-1.9 5.625-5.6 2.566-2.8-2.467-5-3.06-10.3-2.369l-4 .395.7 1.776c.6 1.58.5 2.27-.8 3.948-2.1 2.763-4.8 4.046-9 4.046-2 0-4.4.394-5.4.888-1 .493-3.6.987-5.7 1.184-2 .197-4.3.592-5 .79-1 .394-1 0-.7-2.171.5-3.454-2-6.02-5.7-6.02-4.9 0-7.1 4.342-5.2 10.164l1 3.849c1.3 2.467 3.1 4.737 5.2 6.612 2.6 2.566 5 5.23 5.4 5.92.8 1.086 1.8 1.975 3 2.567l2.2 1.184-.3-2.369c-.3-2.664.2-3.059 1.6-1.184.5.592 1.8 1.777 2.8 2.369 1.7.986 2 .986 2 .197 0-.592.3-1.974.7-2.96l.7-1.777 1.3 2.467c.7 1.48 3 4.54 5.1 7.007 4.1 4.737 6.7 10.066 5.4 11.25-.6.493-2 .493-5-.099-2.2-.395-5-.69-6.2-.493-2.3.296-2.5 0-1-1.777 1.5-2.072 1.2-2.368-1.8-2.368-3.5 0-12.2-1.678-15.6-2.96-3.2-1.283-4-.987-5 2.072l-1.7 5.625-1 2.96 3.6-.296c1.9-.197 3.7-.493 5.5-.987.7-.197 1.5-.296 2.2-.296.2.1-.3 1.283-1 2.665l-1.4 2.467 2.2-.395c1.2-.296 3-.888 4-1.381 1.8-.888 2-.888 3.4 1.48q2.7 3.997 3.3-.296c.3-3.06 1.3-2.665 3.2 1.381 1.8 3.75 3.6 5.23 4 2.961.2-.888.9-1.875 2.1-2.763 2.2-1.48 3.8-1.086 4.7 1.283 1 2.467-1.2 5.033-7.4 8.783-11.6 6.414-19.6 17.861-21.7 30.986-1.9 11.843 4 24.08 15.6 32.961 5.6 4.145 14.5 8.586 13.9 7.007-2.4-7.303-2.3-21.02.1-23.29.4-.395.3.987-.3 3.06-2 7.894-1 14.111 4 28.716 4.4 13.224 3.8 18.85-2.6 22.6-2 1.183-3.3 1.38-8.8 1.282-6 0-6.7 0-8.6 1.579a16.02 16.02 0 0 0-4.3 8.585c0 1.283 1.3 1.185 4-.394Zm0 0" style="fill-rule:nonzero;fill:#ffb700;fill-opacity:1;stroke-width:5.6;stroke-linecap:butt;stroke-linejoin:miter;stroke:#000;stroke-opacity:1;stroke-miterlimit:4" transform="matrix(.03906 0 0 .03958 0 -3.008)"/><path d="m460.5 415.474 2.5-1.58 1.7 1.58c2.2 2.17 4.9 2.072 7-.099 1.1-1.086 1.7-1.579 1.9-1.48l.9 1.579q.75 1.332 3.6 1.48c2.3.099 3 0 4-1.382l1-1.677 2.5 1.579c6.8 4.44 10.4-.198 7.3-9.277-1.5-4.638-.6-7.204 4.3-13.026 2.1-2.467 3.8-5.132 3.8-6.02 0-1.085-.4-1.283-3.2-1.184-2.6 0-3.4-.296-4.8-1.776-2.3-2.566-2.1-5.428.4-8.586l2-2.467-3.6-2.467c-2.9-2.072-5.6-4.44-8-7.105a26.08 26.08 0 0 0-17.5-8.98l-4.7-.494v3.651c0 4.441 2.2 8.882 8 16.283 6.6 8.388 7 9.671 7.3 20.625l.3 9.375-2 1.777c-1.7 1.579-2.4 1.875-8 2.17-5.3.297-6.5.593-8 2.073-1.7 1.283-2.9 3.158-3.4 5.23-.3 1.48-.2 1.777.9 1.777.7 0 2.4-.691 3.8-1.58m-142.2-23.98c.6-.888.9-1.875 1-2.96 0-.987.6-1.48 3.2-1.875l3.1-.395-2-1.677c-2.5-1.974-2.8-3.454-.6-3.454s5.8-2.27 6.4-3.948c.2-.888.1-1.677-.4-2.27-1.2-1.381-3.5-1.184-3.9.395-.5 1.58-1.2 1.58-3 0-2.5-2.467-2.6-7.598 0-10.658 1.1-1.381 1.1-1.381-.4-2.862-1.6-1.578-2.8-4.638-2-5.427.2-.198 1.5 0 2.8.493 2 .691 2.7.691 3.5 0 2.3-1.875-.2-4.243-4-3.651-1.5.296-2.3 0-2.4-.79-.2-.592-1.5-1.381-3-1.776-2.7-.69-2.7-.69-2.7 1.184 0 1.974-1.1 2.369-3.4 1.086-1.8-.987-3.5-.197-3.5 1.678 0 1.776 1.7 2.565 5 2.368 2.4-.099 2.5 1.776.2 4.342l-1.7 1.974 1.3 1.973c2 2.764 1.8 7.5-.3 9.869l-1.7 1.776-1.1-1.48c-1.6-1.974-3.7-1.875-4.3.296-.3 1.382 0 1.974 1.8 3.553 1.2 1.085 3 1.875 3.9 1.875 2.3 0 2.2 1.875-.2 3.65l-2 1.481 3 .395c1.6.296 3 .79 3 1.085 0 1.283 2 5.132 2.6 5.132q.75-.148 1.8-1.48Zm0 0" style="fill-rule:nonzero;fill:#ffb700;fill-opacity:1;stroke-width:5.6;stroke-linecap:butt;stroke-linejoin:miter;stroke:#000;stroke-opacity:1;stroke-miterlimit:4" transform="matrix(.03906 0 0 .03958 0 -3.008)"/><path d="M356.5 374.914c2.7-.986 8.5-6.02 8.5-7.105 0-.395-1.6-2.17-3.6-4.046-4-3.552-8.5-9.868-9.7-13.42-.6-2.073-3.5-5.231-11.7-13.225l-10.9-10.559-3.1.888c-1.8.395-3.9.79-4.7.79-1.5 0-1.5 0 .5 1.579l2 1.579 3-1.58c2.7-1.578 2.8-1.578 3.1-.295.2.69-.2 1.973-1 2.862-.7.888-1.1 1.973-1 2.27.2.493-.3.986-1.5 1.677-2 .987-3.5 4.243-1.9 4.243 1.5 0 4.7-3.947 4.3-5.23-.1-.888-.1-1.381.2-1.678 1.3-.69 1.2 2.468 0 4.047-.8.789-1.2 1.776-1 2.17.1.395-.4.987-1.6 1.58-2 1.085-3.5 4.342-1.9 4.342s4.7-3.85 4.4-5.23c-.2-.79-.2-1.382.1-1.678.9-.395 1.3 1.973.6 3.158-.4.69-.4 1.579 0 2.27.7 1.282 0 3.65-1.3 4.44q-.75.592 1.2 2.073c2 1.381 2 1.578 2 7.993 0 5.329.2 6.81 1.2 7.697q1.35 1.48 1.2 0c-.1-1.48 2-2.467 3.5-2.467.5 0 3.4 2.566 6.5 5.527 3.1 3.059 6.4 5.723 7.3 5.822l2.2.395c.3 0 1.7-.296 3.1-.987Zm-33.3-26.15c0-1.678-3.6-3.553-7.9-3.948-3.5-.494-3.5-.395-3.5 1.283 0 1.381.5 1.973 3 2.96 3.8 1.777 8.4 1.58 8.4-.296" style="fill-rule:nonzero;fill:#ffb700;fill-opacity:1;stroke-width:5.6;stroke-linecap:butt;stroke-linejoin:miter;stroke:#000;stroke-opacity:1;stroke-miterlimit:4" transform="matrix(.03906 0 0 .03958 0 -3.008)"/><path d="M327.1 348.566c1.8-1.58 2.6-3.355 1.5-3.355s-4.4 2.763-4.4 3.947c0 1.678.6 1.579 3-.592Zm-3.7-5.033c.2-.888-.6-1.776-2.3-2.566-4-1.678-8.6-2.566-9.7-1.678-2.1 1.678-.7 3.948 2.6 4.343 1.4.098 3.2.493 4.1.888 2.6.987 5 .493 5.3-.987m0-5.33c.2-1.282-.7-1.775-8-4.44-5.5-1.974-7.9-.987-6.1 2.369.6 1.085 1.6 1.579 3.9 1.973 1.7.198 4 .691 5.1 1.086 3.1.987 4.7.69 5-.987Zm3.6-4.933c1.1-1.086 2-2.369 2-2.96 0-1.481-4.3 1.282-4.9 3.256q-.75 3.553 3-.296Zm-3.6-.296c.2-1.58-2.3-2.96-7.6-4.046-3.9-.889-5.6-.395-5.3 1.381.2.987 1.5 1.678 5 2.763 5.9 1.875 7.6 1.875 7.9-.098m5-7.402c6.8-2.96 7.3-10.46 1-12.434-2.5-.79-4.3-.395-5.2 1.382-.8 1.381-.3 3.75.7 3.75.4.098.6.394.7.987 0 2.763-10.2 3.848-14.4 1.776-1.5-.69-2-2.763-.9-2.763 1 0 1.6-1.974 1.1-3.257-.7-1.974-2.4-2.566-5.3-1.776-6.3 1.579-6.1 8.98.3 11.94 7.1 2.566 14.8 2.764 22 .395" style="fill-rule:nonzero;fill:#ffb700;fill-opacity:1;stroke-width:5.6;stroke-linecap:butt;stroke-linejoin:miter;stroke:#000;stroke-opacity:1;stroke-miterlimit:4" transform="matrix(.03906 0 0 .03958 0 -3.008)"/><path d="M324.3 319.849c.3-.494.2-.987-.4-1.48-1.3-1.185-1.3-2.764.2-4.639 1.2-1.381 1.3-3.651 1.7-25.164.7-37.105 3.5-64.934 7.1-71.744 1.5-2.664 1.3-2.664-2.5 0-5 3.454-9 8.092-11.7 13.619-6.2 11.447-8.3 26.94-8.3 60.197 0 18.75.1 21.217 1.2 22.994 1 1.776 1 2.368.4 4.144-.5 1.086-.7 2.369-.5 2.566 1.4 1.283 11.4.987 12.8-.493m56.1-35.428c.3-.296-.2-1.974-1-3.651-1.2-2.566-1.7-2.96-3.4-2.96-8-.692-15.8-2.863-23-6.415-5.1-2.27-7-2.763-7.5-2.171-1.6 1.48 1 4.934 5 6.908 5.9 2.072 12.1 3.355 18.3 3.65 2.7 0 2.8 0 1.2 2.27l-1 1.678h3l5 .592c3 .691 3 .691 3.4.1" style="fill-rule:nonzero;fill:#ffb700;fill-opacity:1;stroke-width:5.6;stroke-linecap:butt;stroke-linejoin:miter;stroke:#000;stroke-opacity:1;stroke-miterlimit:4" transform="matrix(.03906 0 0 .03958 0 -3.008)"/><path d="M412 301.099c0-.987-2.9-3.454-5.7-5.23-2.3-1.283-2.7-1.382-2.7-.297 0 1.58-1.4 5.724-2 5.724-.4-.099-.7-.69-1-1.678-.3-.986-1.4-3.059-2.5-4.342l-2-2.467-1.4 2.27c-1.4 2.27-3.9 4.342-5 4.342-.2 0-.3-1.184 0-2.566.1-1.677 0-2.664-.5-2.96s-.7-.198-.8.197c0 .79-3.4 4.638-4 4.638-.4-.098-.7-.888-1-2.467l-.8-4.737c-.1-1.184.2-.493 1 1.974l1.6 4.145 1.6-2.566c.7-.987 1.3-2.171 1.6-3.355 0-.592.2-.691.7-.494.4.198.9 1.875 1.1 3.652l.5 3.454 1.8-2.073 2.6-3.158c.7-1.184.8-1.184 2.3 0 .8.79 2.1 2.467 2.9 3.849.8 1.48 1.5 2.467 1.6 2.368l.6-3.256.4-2.96c.1-.494 5.4 2.96 7.4 4.736 1.2 1.086 2.4 1.875 2.6 1.678s.4-1.777.4-3.75c0-2.763-.3-3.553-2-5.033-2-1.875-2-1.875-2.8-.494-1 1.678-2.1 1.678-2.1 0 0-1.282-3.8-5.92-4.7-5.92-.4.098-1 .888-1.8 2.27-1.2 2.071-1.5 2.269-1.7 2.269-1 0-6.3-5.921-6.3-7.007 0-.79.4-.592 1.3.888.9 1.283 1.9 2.468 3.1 3.553 2 1.776 2.8 1.382 3.6-2.072.3-1.086.7-1.678 1-1.777.8 0 5.4 4.836 6 6.415l.7 1.677.5-1.875c.6-2.072 1.4-2.17 2.3-.197.4.79 2.4 2.665 4.4 3.849l3.7 2.368.7-2.368c.5-1.382.9-1.875 1.2-1.58.4.494-.6 4.442-1.3 5.231 0 .099-1.3-.592-2.6-1.48l-2.5-1.776v3.157c0 1.777-.2 3.85-.4 4.639-.5 1.579-1.7 1.973-1.7.592Zm-18.5-25.362c-4.4-3.651-5-4.44-5-6.217l.1-1.777.3 1.678c.2.987 1.4 2.566 2.8 3.75l2.6 2.072 1.5-1.875c.9-.986 1.6-2.17 1.6-2.565 0-1.185.2-1.086 3.2 1.48 2.6 2.27 2.7 2.27 3 .79.3-.79.2-2.37 0-3.455-1-2.96-.8-3.454.5-1.579l2.4 2.764c1 1.085 1.1 1.085 1.5-.296.3-.889.5-2.369.5-3.454v-1.875l2.3 2.763c2.3 2.566 2.5 2.664 3.1 1.381.5-.69.8-2.467.8-3.75 0-1.677.2-2.27.6-1.579.8 1.185.3 4.244-1.1 6.81l-1 1.973-1.3-2.072c-1.7-2.566-2.3-2.566-3.3.197-.9 2.665-1.8 2.96-2.7.79-.6-1.283-.8-1.086-1.2 1.677l-.5 3.06-3-2.369-3-2.27-1.5 1.48c-.7.889-1.3 2.073-1.3 2.468-.1.987-.7.987-1.9 0m39-13.619c-1.5-1.381-2.6-2.861-2.4-3.059.3-.296.5-.395.6-.197l3 3.06c3.4 3.552 2.7 3.65-1.1.196Zm-52-5.427c-1.4-1.974-1.3-3.158.5-5.428 1.2-1.48 1.8-1.677 4-1.381 1.5.098 4.6 1.381 6.9 2.861 3.3 1.974 7.1 2.96 11 2.96l-1.7-2.762c-2.3-3.257-2.1-3.849.4-1.777 2.6 2.172 5.7 2.764 12.7 2.566l3.4-.098-2-2.073c-2.7-2.664-1.9-2.96 1.2-.296 2.8 2.566 2.7 2.763-3.4 3.355-2.5.198-5.1.1-7.6-.493-3.4-.987-3.6-.888-2.9.197.5.691.9 1.086 1.3 1.185s.6.296.7.79c0 1.282-7.4.098-11-1.58-8-4.145-9-4.54-11-3.947-1.1.394-2 1.283-2.4 2.368-1.3 3.257 3.4 5.823 5.3 2.96.6-.887.5-1.38-.5-2.466-1.4-1.382-1.2-1.678.6-.987 1.3.493 1.4 3.552.2 4.737-1.3 1.282-4.5.986-5.7-.691" style="fill-rule:nonzero;fill:#000001;fill-opacity:1;stroke-width:5.6;stroke-linecap:butt;stroke-linejoin:miter;stroke:#000;stroke-opacity:1;stroke-miterlimit:4" transform="matrix(.03906 0 0 .03958 0 -3.008)"/><path d="M412.4 248.599c-1-.987-.2-1.185 4.3-1.283 5.6-.099 9-.987 13-3.652 3.2-1.973 4.1-1.578 1 .494-2.7 2.072-7 3.454-11.3 3.849l-5.1.69c-.9.198-1.6.198-2-.098Zm0 0" style="fill-rule:nonzero;fill:#000001;fill-opacity:1;stroke-width:5.6;stroke-linecap:butt;stroke-linejoin:miter;stroke:#000;stroke-opacity:1;stroke-miterlimit:4" transform="matrix(.03906 0 0 .03958 0 -3.008)"/><path d="m14.2 13.45.09-.055.038.054c.05.074.195.07.29 0l.073-.058.063.054c.078.078.226.078.324 0 .067-.047.078-.05.117-.011a.5.5 0 0 0 .172.058c.125.02.125.02.195-.094.063-.09.07-.125.06-.218l-.024-.207c-.008-.106-.004-.106.14-.16l.211-.079c.059-.035.223-.23.223-.27 0-.007-.063-.023-.14-.03-.313-.04-.368-.207-.16-.516.323-.516.523-1.008.523-1.32q-.002-.213.027-.16c.074.124-.059.648-.254 1.03l-.078.15.074-.016c.04-.012.29-.118.547-.239.71-.324.953-.386 1.414-.367.387.016.547.09.82.379.145.16.285.266.54.43.538.34.562.37.59.773.027.406.01.434-.294.5q-.398.093-.468.356c-.028.09.027.093.156.004l.097-.063.043.063c.059.085.176.085.274 0l.078-.06.078.06c.117.101.273.078.32-.047q.014-.03.078.027c.09.078.313.113.336.047.008-.024-.007-.078-.039-.125-.129-.2-.172-.29-.172-.395 0-.152.04-.226.211-.347.204-.149.266-.34.11-.34-.094 0-.192-.086-.254-.223-.125-.285-.098-.601.09-1.133.144-.312.215-.652.21-1 0-.293-.007-.34-.07-.5a1.6 1.6 0 0 0-.18-.32l-.109-.148.137-.118c.422-.351.336-.93-.172-1.152-.156-.07-.195-.074-.469-.074-.156 0-.41.023-.546.05a4 4 0 0 1-.555.048c-.266 0-.313-.008-.414-.063-.106-.059-.125-.086-.145-.219a.08.08 0 0 0-.043-.058c-.039-.012-.203.132-.226.195-.016.039-.024.035-.059-.012a.5.5 0 0 1-.078-.14q-.064-.195.164-.301l.117-.055-.07-.043c-.14-.094-.383-.031-.469.117a.3.3 0 0 1-.062.079.5.5 0 0 1-.102-.09c-.183-.184-.121-.453.125-.532.129-.043.246-.011.27.079.039.132.148-.043.129-.204-.012-.109-.012-.113.062-.113.102 0 .313.137.383.238.078.125.07.317-.016.461l-.066.11.09-.016a.5.5 0 0 0 .312-.207.47.47 0 0 0 .016-.41c-.059-.106-.051-.125.035-.086.14.059.219.125.273.238.055.106.059.13.032.239a.7.7 0 0 1-.086.19c-.047.063-.051.075-.012.075.07 0 .21-.066.262-.117a.6.6 0 0 0 .086-.16l.039-.098.039.078a.7.7 0 0 0 .316.27c.153.062.215.066.137.008-.055-.04-.156-.336-.121-.364.168.094.324.215.457.356.223.203.363.27.566.27.262 0 .414-.231.297-.45-.066-.125-.219-.144-.312-.039a.17.17 0 0 0-.04.149c.016.062.012.07-.046.07-.078 0-.227-.098-.492-.324a4 4 0 0 0-1.254-.743 2.8 2.8 0 0 0-.95-.05 1.6 1.6 0 0 0-.71.347c-.286.278-.29.649-.012.985l.078.093-.05.086a.365.365 0 0 0 .015.414c.039.055.078.098.09.098q.012-.007.02-.078c.007-.11.05-.176.132-.207.07-.027.117-.012.437.121.34.133.899.14 1.493.023.257-.062.523-.058.78.008.282.117.345.422.141.653-.09.101-.171.14-.457.222-.25.067-.507.086-.761.059-.422-.004-.575.004-.742.039-.192.039-.305.043-.852.031l-.637-.015.07.054.122.09c.05.031.047.035-.024.063a.7.7 0 0 1-.207.027h-.129l-.015.11a.4.4 0 0 0 0 .16q.022.053-.032.03a1 1 0 0 0-.168-.042 1 1 0 0 1-.195-.067c-.074-.039-.082-.039-.11.012-.023.043-.241.207-.273.207a1.1 1.1 0 0 0-.086-.297c-.039-.082-.074-.176-.086-.207q-.016-.058-.039-.012c-.011.02-.027.082-.039.13a.7.7 0 0 1-.07.179l-.059.09-.039-.078c-.039-.078-.101-.164-.125-.164q-.01 0-.027.058c-.02.063-.172.25-.211.25-.012 0-.023-.05-.023-.117 0-.062-.012-.117-.028-.117q-.022.005-.027.039c0 .047-.129.2-.176.2-.02 0-.043.01-.066.038-.047.051-.086.043-.067-.015a.4.4 0 0 0-.015-.149l-.04-.129c-.003-.02-.058-.011-.156.02-.156.05-.21.039-.129-.024a.44.44 0 0 0 .102-.183c.027-.078.066-.145.086-.153q.042-.017-.008.047a.3.3 0 0 0-.043.102c0 .023-.02.074-.039.117-.02.043-.039.078-.035.082a.6.6 0 0 0 .137-.05l.125-.063v.055c0 .03.015.109.035.18l.035.116.086-.039c.086-.039.168-.183.168-.297 0-.054.031-.046.047.012 0 .016.023.082.039.145l.039.113.059-.074a.5.5 0 0 0 .09-.168c.03-.094.077-.14.077-.067 0 .047.133.227.157.211.015-.008.039-.074.058-.148.04-.16.098-.262.137-.238q.024.016.012.039c-.008.007.023.113.07.222l.102.25c.015.04.03.04.129-.05a.7.7 0 0 0 .12-.137c.012-.031.024-.028.079.008a1 1 0 0 0 .37.113.5.5 0 0 0 .016-.16l.004-.145.078.016c.04.012.13.012.196 0l.117-.016-.105-.082a.6.6 0 0 1-.133-.113c-.016-.024-.067-.047-.125-.05-.16-.017-.446-.177-.446-.255.004-.011.036.008.086.055.11.098.258.16.391.16h.094l-.059-.082a.4.4 0 0 1-.078-.203c-.008-.121-.02-.137-.14-.219q-.106-.077-.196-.172l-.066-.074-.035.09c-.02.059-.04.086-.051.094a.3.3 0 0 1-.078-.07c-.024-.024-.047-.048-.079-.063-.011 0-.039.047-.07.11l-.055.105-.039-.059a1 1 0 0 0-.117-.137c-.05-.039-.066-.066-.05-.07.015 0 .066.04.117.09l.086.094.039-.07a.22.22 0 0 0 .02-.15q-.024-.104.01-.026a.7.7 0 0 0 .118.117l.086.074.059-.11c.058-.109.058-.109.082-.042.039.082.293.297.507.418q.06.034-.039-.196a.6.6 0 0 1-.03-.16c0-.07-.02-.101-.11-.172a.44.44 0 0 1-.196-.332.4.4 0 0 0-.054-.164q-.036-.07-.024.102a.6.6 0 0 1-.023.23l-.031.078-.024-.066a.45.45 0 0 0-.137-.137c-.058-.039-.101-.082-.093-.09s.07.028.136.082c.106.082.125.09.141.055.016-.039 0-.223-.031-.348-.016-.066-.016-.066.062.016.051.05.09.129.114.246.03.149.046.176.183.3a1 1 0 0 0 .16.126 4 4 0 0 0 .024-.426c.015-.441 0-.547-.106-.683l-.054-.07.086-.09a.63.63 0 0 0 .183-.348l.016-.11-.094.09c-.078.078-.117.094-.207.094s-.125-.016-.184-.082a.8.8 0 0 0-.324-.188q-.066-.022-.062.024a.5.5 0 0 1-.055.144l-.055.106-.117-.121a.6.6 0 0 0-.223-.14c-.16-.04-.168-.04-.168.081q-.003.283-.218.102c-.11-.098-.196-.121-.403-.094l-.156.016.027.07c.024.062.02.09-.03.156-.083.11-.188.16-.352.16a.6.6 0 0 0-.211.035c-.04.02-.14.04-.223.047a2 2 0 0 0-.195.032c-.04.015-.04 0-.028-.086.02-.137-.078-.239-.222-.239-.192 0-.278.172-.203.403l.039.152c.05.098.12.188.203.262.101.101.195.207.21.234q.048.065.118.102l.086.047-.012-.094q-.019-.158.063-.047c.02.023.07.07.11.094.065.039.077.039.077.008a.4.4 0 0 1 .028-.118l.027-.07.05.098c.028.058.118.18.2.277.16.188.262.398.21.445-.023.02-.077.02-.194-.004a1 1 0 0 0-.243-.02c-.09.013-.097 0-.039-.07.059-.081.047-.093-.07-.093-.137 0-.477-.067-.61-.117-.124-.051-.156-.04-.195.082l-.066.222-.04.118.141-.012q.111-.011.215-.04a.3.3 0 0 1 .086-.011c.008.004-.012.05-.039.105l-.055.098.086-.015a1 1 0 0 0 .157-.055c.07-.035.078-.035.132.058q.106.159.13-.011c.011-.121.05-.106.124.054.07.149.141.207.157.118a.2.2 0 0 1 .082-.11q.13-.088.183.051c.04.098-.047.2-.289.348a1.71 1.71 0 0 0-.848 1.226c-.074.469.157.953.61 1.305.219.164.566.34.543.277-.094-.289-.09-.832.004-.922.015-.015.011.04-.012.121-.078.313-.039.56.156 1.137.172.524.149.746-.101.895-.078.047-.13.054-.344.05-.234 0-.262 0-.336.063a.64.64 0 0 0-.168.34q-.002.077.156-.016Zm0 0" style="stroke:none;fill-rule:nonzero;fill:#ffb700;fill-opacity:1"/><path d="m17.988 13.438.098-.063.066.063c.086.085.192.082.274-.004q.063-.065.074-.059l.035.063q.03.052.14.058c.09.004.118 0 .157-.055l.04-.066.097.063c.265.175.406-.008.285-.368-.059-.183-.024-.285.168-.515.082-.098.148-.203.148-.239 0-.043-.015-.05-.125-.046-.101 0-.133-.012-.187-.07-.09-.102-.082-.216.015-.34l.079-.098-.141-.098a2 2 0 0 1-.313-.281 1.01 1.01 0 0 0-.683-.356l-.184-.02v.145c0 .176.086.352.313.645.258.332.273.383.285.816l.012.371-.078.07c-.067.063-.094.075-.313.087-.207.011-.254.023-.312.082a.37.37 0 0 0-.133.207c-.012.058-.008.07.035.07a.4.4 0 0 0 .148-.062m-5.554-.95a.25.25 0 0 0 .039-.117c0-.039.023-.059.125-.074l.12-.016-.077-.066c-.098-.078-.11-.137-.024-.137s.227-.09.25-.156q.013-.054-.015-.09c-.047-.055-.137-.047-.153.016-.02.062-.047.062-.117 0-.098-.098-.102-.301 0-.422.043-.055.043-.055-.016-.114-.062-.062-.109-.183-.078-.214.008-.008.059 0 .11.02.078.027.105.027.136 0 .09-.075-.007-.169-.156-.145q-.087.016-.094-.032c-.007-.023-.058-.054-.117-.07-.105-.027-.105-.027-.105.047q.001.118-.133.043c-.07-.04-.137-.008-.137.066q.002.105.195.094c.094-.004.098.07.008.172l-.066.078.05.078c.079.11.071.297-.011.39l-.066.071-.043-.058c-.063-.079-.145-.075-.168.011-.012.055 0 .078.07.14a.3.3 0 0 0 .152.075c.09 0 .086.074-.008.145l-.078.058.118.016c.062.012.117.031.117.043 0 .05.078.203.101.203q.03-.006.07-.059Zm0 0" style="stroke:none;fill-rule:nonzero;fill:#ffb700;fill-opacity:1"/><path d="M13.926 11.832c.105-.039.332-.238.332-.281a.7.7 0 0 0-.14-.16c-.157-.141-.333-.391-.38-.532-.023-.082-.136-.207-.457-.523l-.426-.418-.12.035c-.07.016-.153.031-.184.031-.059 0-.059 0 .02.063l.077.062.118-.062c.105-.063.109-.063.12-.012.009.027-.007.078-.038.113-.028.036-.043.079-.04.09q.012.028-.058.067c-.078.039-.137.168-.074.168.058 0 .183-.157.168-.207-.004-.036-.004-.055.008-.067.05-.027.046.098 0 .16-.032.032-.047.07-.04.086.004.016-.015.04-.062.063-.078.043-.137.172-.074.172.062 0 .183-.153.172-.207q-.013-.049.004-.067c.035-.015.05.078.023.125a.09.09 0 0 0 0 .09c.027.05 0 .145-.05.176q-.03.023.046.082c.078.055.078.062.078.316 0 .211.008.27.047.305q.052.06.047 0c-.004-.059.078-.098.137-.098.02 0 .133.102.254.22.12.12.25.226.285.23l.086.015a.4.4 0 0 0 .12-.039Zm-1.301-1.035c0-.067-.14-.14-.309-.156-.136-.02-.136-.016-.136.05 0 .055.02.079.117.118.148.07.328.062.328-.012" style="stroke:none;fill-rule:nonzero;fill:#ffb700;fill-opacity:1"/><path d="M12.777 10.79c.07-.063.102-.134.059-.134s-.172.11-.172.156c0 .067.024.063.117-.023Zm-.144-.2q.01-.053-.09-.102c-.156-.066-.336-.101-.379-.066-.082.066-.027.156.102.172.054.004.125.02.16.035.101.039.195.02.207-.04m0-.21c.008-.05-.028-.07-.313-.176-.215-.078-.308-.039-.238.094.023.043.063.062.152.078.067.008.157.027.2.043q.178.06.195-.04Zm.14-.195c.043-.043.079-.094.079-.118 0-.058-.168.051-.192.13q-.03.14.117-.012Zm-.14-.012q.013-.095-.297-.16-.226-.052-.207.054c.008.04.059.067.195.11.23.074.297.074.309-.004m.195-.293c.266-.117.285-.414.04-.492-.098-.032-.169-.016-.204.054-.031.055-.012.149.027.149q.023.005.028.039c0 .11-.399.152-.563.07-.058-.027-.078-.11-.035-.11.04 0 .063-.077.043-.128q-.039-.117-.207-.07c-.246.062-.238.355.012.472.277.102.578.11.86.016" style="stroke:none;fill-rule:nonzero;fill:#ffb700;fill-opacity:1"/><path d="M12.668 9.652q.019-.03-.016-.058-.077-.072.008-.184c.047-.055.05-.144.067-.996.027-1.469.136-2.57.277-2.84.059-.105.05-.105-.098 0-.195.137-.351.32-.457.54-.242.452-.324 1.066-.324 2.382 0 .742.004.84.047.91.039.07.039.094.015.164-.019.043-.027.094-.019.102.055.05.445.039.5-.02m2.191-1.402c.012-.012-.007-.078-.039-.145-.047-.101-.066-.117-.133-.117a2.5 2.5 0 0 1-.898-.254c-.2-.09-.273-.109-.293-.086-.062.059.04.196.195.274.23.082.473.133.715.144.106 0 .11 0 .047.09l-.039.067h.117l.196.023c.117.027.117.027.132.004" style="stroke:none;fill-rule:nonzero;fill:#ffb700;fill-opacity:1"/><path d="M16.094 8.91c0-.039-.114-.137-.223-.207-.09-.05-.105-.055-.105-.012 0 .063-.055.227-.079.227q-.022-.007-.039-.066a.6.6 0 0 0-.097-.172l-.078-.098-.055.09c-.055.09-.152.172-.195.172-.008 0-.012-.047 0-.102q.008-.099-.02-.117c-.02-.012-.027-.008-.031.008a.5.5 0 0 1-.156.183q-.023-.005-.04-.097l-.03-.188q-.008-.07.038.078l.063.164.062-.101a.4.4 0 0 0 .063-.133c0-.023.008-.027.027-.02.016.008.035.075.043.145l.02.137.07-.082.102-.125c.027-.047.03-.047.09 0a1 1 0 0 1 .113.152c.031.059.058.098.062.094l.024-.13.015-.116c.004-.02.211.117.29.187.046.043.093.074.1.067a.4.4 0 0 0 .017-.149c0-.11-.012-.14-.079-.199-.078-.074-.078-.074-.109-.02-.039.067-.082.067-.082 0 0-.05-.148-.234-.184-.234q-.023.007-.07.09c-.047.082-.059.09-.066.09-.04 0-.246-.235-.246-.278 0-.03.015-.023.05.036q.053.075.121.14c.079.07.11.055.141-.082q.02-.064.04-.07c.03 0 .21.191.234.254l.027.066.02-.074q.035-.124.09-.008a.6.6 0 0 0 .171.152l.145.094.027-.094q.03-.08.047-.062c.015.02-.024.176-.05.207a.5.5 0 0 1-.102-.059l-.098-.07v.125c0 .07-.008.152-.016.184-.02.062-.066.078-.066.023Zm-.723-1.004c-.172-.144-.195-.176-.195-.246l.004-.07.011.066c.008.04.055.102.11.149l.101.082.059-.074c.035-.04.062-.086.062-.102 0-.047.008-.043.125.059.102.09.106.09.118.03a.3.3 0 0 0 0-.136q-.059-.175.02-.062l.093.109c.039.043.043.043.059-.012a.5.5 0 0 0 .019-.136v-.075l.09.11c.09.101.098.105.121.054a.3.3 0 0 0 .031-.148c0-.066.008-.09.024-.063.03.047.011.168-.043.27l-.04.078-.05-.082c-.067-.102-.09-.102-.13.008q-.052.159-.105.031c-.023-.05-.03-.043-.046.066l-.02.122-.117-.094-.117-.09-.059.059a.3.3 0 0 0-.05.097q-.006.06-.075 0m1.524-.539c-.06-.054-.102-.113-.094-.12q.018-.02.023-.009l.117.121c.133.141.106.145-.043.008Zm-2.032-.215c-.054-.078-.05-.125.02-.215.047-.058.07-.066.156-.054.059.004.18.054.27.113a.83.83 0 0 0 .43.117l-.067-.11c-.09-.128-.082-.151.015-.07.102.087.223.11.497.102l.132-.004-.078-.082c-.105-.105-.074-.117.047-.011.11.101.106.109-.133.132a1 1 0 0 1-.297-.02c-.132-.038-.14-.034-.113.009q.028.041.051.046t.027.032c0 .05-.289.004-.43-.063-.312-.164-.35-.18-.43-.156a.16.16 0 0 0-.093.094c-.05.129.133.23.207.117.024-.035.02-.055-.02-.098q-.081-.08.024-.039c.05.02.055.14.008.188-.05.05-.176.039-.223-.028" style="stroke:none;fill-rule:nonzero;fill:#000001;fill-opacity:1"/><path d="M16.11 6.832c-.04-.039-.008-.047.167-.05.22-.005.352-.04.508-.145.125-.078.16-.063.04.02a.9.9 0 0 1-.442.152l-.2.027q-.053.013-.078-.004Zm0 0" style="stroke:none;fill-rule:nonzero;fill:#000001;fill-opacity:1"/></svg>