<svg xmlns="http://www.w3.org/2000/svg" width="25" height="px" viewBox="0 0 25 19"><path d="M0 0h25v19H0z" style="fill:#fff;fill-opacity:1;stroke:none"/><path d="M0 0h8.523v8.64H0Zm0 0" style="stroke:none;fill-rule:evenodd;fill:#006;fill-opacity:1"/><path d="M0 17.254h28.121V19H0Zm0 0" style="stroke:none;fill-rule:evenodd;fill:#c00;fill-opacity:1"/><path d="M0 17.27h28.121V19H0Zm0-3.446h28.121v1.715H0Zm0-3.46h28.05v1.734H0ZM8.523 0h19.594v1.727H8.523Zm0 6.902h19.594v1.739H8.523Zm0-3.441h19.594v1.727H8.523Zm0 0" style="stroke:none;fill-rule:evenodd;fill:#c00;fill-opacity:1"/><path d="M6.09 6.586 4.234 5.437l-1.847 1.16.687-1.886L1.23 3.543l2.282-.016.707-1.879.726 1.875h2.282L5.39 4.703Zm0 0" style="stroke:none;fill-rule:evenodd;fill:#fff;fill-opacity:1"/></svg>