<svg xmlns="http://www.w3.org/2000/svg" width="25" height="px" viewBox="0 0 25 19"><path d="M0 0h25v19H0z" style="fill:#fff;fill-opacity:1;stroke:none"/><path d="M0 13.3h25V19H0Zm0 0" style="stroke:none;fill-rule:nonzero;fill:#009543;fill-opacity:1"/><path d="M0 0h25v5.7H0Zm0 0" style="stroke:none;fill-rule:nonzero;fill:#00209f;fill-opacity:1"/><path d="M319.6 152.96c-2.7 0-5.4 3.06-5.4 3.06l.3 32.368-10.3 10.757h8.3v18.454l-49 66.02-7.2-2.665-12.7 27.04s31.3 19.638 76.7 19.045c49.8-.493 76.9-19.934 76.9-19.934l-13-26.644-6.5 2.861-49.6-65.625v-19.144h8.2l-11.2-10.56v-32.17s-2.7-3.06-5.5-2.961Zm0 0" style="fill-rule:nonzero;fill:#000;fill-opacity:1;stroke-width:1.6;stroke-linecap:butt;stroke-linejoin:miter;stroke:#000;stroke-opacity:1;stroke-miterlimit:4" transform="scale(.03906 .03958)"/><path d="M336.7 230.428h-33.9s-12.2-25.954-10.3-44.014c2-18.453 12.6-27.138 26.6-27.335 16.6-.099 25.2 8.092 27.8 26.645 2.6 18.256-10.2 44.704-10.2 44.704Zm0 0" style="fill:none;stroke-width:8;stroke-linecap:butt;stroke-linejoin:miter;stroke:#000;stroke-opacity:1;stroke-miterlimit:4" transform="scale(.03906 .03958)"/><path d="M10.176 11.563a6 6 0 0 0-.184.351l.274-.059Zm.156.414-.289.097.348.137Zm.129-.407.144.43.352-.102-.09-.207Zm.226.586.047.176.47.117-.188-.402Zm.516-.367.168.402.352-.136-.118-.18Zm.235.55.054.15.547.077-.23-.363-.375.137Zm.523-.437.203.36.508-.188-.055-.14-.656-.028Zm.297.493.105.187.633-.02-.234-.355-.508.188Zm.668-.477.172.3.406-.198-.11-.157Zm.664.23-.402.204.105.175.539-.086Zm.129-.316.207.266.34-.274-.118-.12Zm.62.137-.323.25.086.156.445-.121Zm.446-.512.078.113-.222.336-.23-.3Zm.152.29.137.273-.273.097-.024-.133.157-.234Zm0 0" style="stroke:none;fill-rule:nonzero;fill:#fff;fill-opacity:1"/></svg>