<?xml version="1.0" encoding="UTF-8"?>
<svg xmlns="http://www.w3.org/2000/svg" xmlns:xlink="http://www.w3.org/1999/xlink" width="25px" height="px" viewBox="0 0 25 19" version="1.1">
<g id="surface1">
<rect x="0" y="0" width="25" height="19" style="fill:rgb(100%,100%,100%);fill-opacity:1;stroke:none;"/>
<path style=" stroke:none;fill-rule:nonzero;fill:rgb(0%,58.431375%,26.274511%);fill-opacity:1;" d="M 0 13.300781 L 25 13.300781 L 25 19 L 0 19 Z M 0 13.300781 "/>
<path style=" stroke:none;fill-rule:nonzero;fill:rgb(0%,12.54902%,62.352943%);fill-opacity:1;" d="M 0 0 L 25 0 L 25 5.699219 L 0 5.699219 Z M 0 0 "/>
<path style="fill-rule:nonzero;fill:rgb(0%,0%,0%);fill-opacity:1;stroke-width:1.6;stroke-linecap:butt;stroke-linejoin:miter;stroke:rgb(0%,0%,0%);stroke-opacity:1;stroke-miterlimit:4;" d="M 319.6 152.960526 C 316.9 152.960526 314.2 156.019737 314.2 156.019737 L 314.5 188.388158 L 304.2 199.144737 L 312.5 199.144737 L 312.5 217.598684 L 263.5 283.618421 L 256.3 280.953947 L 243.6 307.993421 C 243.6 307.993421 274.9 327.631579 320.3 327.039474 C 370.1 326.546053 397.2 307.105263 397.2 307.105263 L 384.2 280.460526 L 377.7 283.322368 L 328.1 217.697368 L 328.1 198.552632 L 336.3 198.552632 L 325.1 187.993421 L 325.1 155.822368 C 325.1 155.822368 322.4 152.763158 319.6 152.861842 Z M 319.6 152.960526 " transform="matrix(0.0390625,0,0,0.0395833,0,0)"/>
<path style="fill:none;stroke-width:8;stroke-linecap:butt;stroke-linejoin:miter;stroke:rgb(0%,0%,0%);stroke-opacity:1;stroke-miterlimit:4;" d="M 336.7 230.427632 L 302.8 230.427632 C 302.8 230.427632 290.6 204.473684 292.5 186.414474 C 294.5 167.960526 305.1 159.276316 319.1 159.078947 C 335.7 158.980263 344.3 167.171053 346.9 185.723684 C 349.5 203.980263 336.7 230.427632 336.7 230.427632 Z M 336.7 230.427632 " transform="matrix(0.0390625,0,0,0.0395833,0,0)"/>
<path style=" stroke:none;fill-rule:nonzero;fill:rgb(100%,100%,100%);fill-opacity:1;" d="M 10.175781 11.5625 C 10.152344 11.589844 9.992188 11.914062 9.992188 11.914062 L 10.265625 11.855469 Z M 10.332031 11.976562 L 10.042969 12.074219 L 10.390625 12.210938 Z M 10.460938 11.570312 L 10.605469 12 L 10.957031 11.898438 L 10.867188 11.691406 Z M 10.6875 12.15625 L 10.734375 12.332031 L 11.203125 12.449219 L 11.015625 12.046875 Z M 11.203125 11.789062 L 11.371094 12.191406 L 11.722656 12.054688 L 11.605469 11.875 Z M 11.4375 12.339844 L 11.492188 12.488281 L 12.039062 12.566406 L 11.808594 12.203125 L 11.433594 12.339844 Z M 11.960938 11.902344 L 12.164062 12.261719 L 12.671875 12.074219 L 12.617188 11.933594 L 11.960938 11.90625 Z M 12.257812 12.394531 L 12.363281 12.582031 L 12.996094 12.5625 L 12.761719 12.207031 L 12.253906 12.394531 Z M 12.925781 11.917969 L 13.097656 12.21875 L 13.503906 12.019531 L 13.394531 11.863281 Z M 13.589844 12.148438 L 13.1875 12.351562 L 13.292969 12.527344 L 13.832031 12.441406 Z M 13.71875 11.832031 L 13.925781 12.097656 L 14.265625 11.824219 L 14.148438 11.703125 Z M 14.339844 11.96875 L 14.015625 12.21875 L 14.101562 12.375 L 14.546875 12.253906 Z M 14.785156 11.457031 L 14.863281 11.570312 L 14.640625 11.90625 L 14.410156 11.605469 Z M 14.9375 11.746094 L 15.074219 12.019531 L 14.800781 12.117188 L 14.777344 11.984375 L 14.933594 11.75 Z M 14.9375 11.746094 "/>
</g>
</svg>
