<svg xmlns="http://www.w3.org/2000/svg" width="25" height="px" viewBox="0 0 25 19"><path d="M0 0h25v19H0z" style="fill:#239e46;fill-opacity:1;stroke:none"/><path d="M-6.25 0h37.5v14.25h-37.5Zm0 0" style="stroke:none;fill-rule:nonzero;fill:#000001;fill-opacity:1"/><path d="M-6.25 0h37.5v4.75h-37.5Zm0 0" style="stroke:none;fill-rule:nonzero;fill:#e70013;fill-opacity:1"/><path d="M14.156 7.82a2.016 2.016 0 0 0-2.699.305 2.08 2.08 0 0 0 0 2.75 2.016 2.016 0 0 0 2.7.305 2.323 2.323 0 0 1-3.313 0 2.4 2.4 0 0 1 0-3.36 2.323 2.323 0 0 1 3.312 0m-.515 1.68 3.152-1.04-1.95 2.72V7.82l1.95 2.72Zm0 0" style="stroke:none;fill-rule:nonzero;fill:#fff;fill-opacity:1"/></svg>