<svg xmlns="http://www.w3.org/2000/svg" width="25" height="px" viewBox="0 0 25 19"><path d="M0 0h8.332v19H0Zm0 0" style="stroke:none;fill-rule:evenodd;fill:#00319c;fill-opacity:1"/><path d="M8.332 0h8.336v19H8.332Zm0 0" style="stroke:none;fill-rule:evenodd;fill:#ffde00;fill-opacity:1"/><path d="M16.668 0H25v19h-8.332Zm0 0" style="stroke:none;fill-rule:evenodd;fill:#de2110;fill-opacity:1"/><path d="m360.4 320.428 24.2 34.934c1.4 2.072 2.7 3.947.7 5.23s-1.4 6.415 0 8.388c2.7 3.948 6 4.54 8 3.257l18.4-11.645c2-1.184 2.7-4.54 0-8.388-1.5-1.974-6-4.54-8-3.158-2.1 1.283-3.5-.79-4.8-2.664l-24.3-34.935" style="fill-rule:evenodd;fill:#ff1900;fill-opacity:1;stroke-width:.7;stroke-linecap:butt;stroke-linejoin:miter;stroke:#000;stroke-opacity:1;stroke-miterlimit:4" transform="scale(.03906 .03958)"/><path d="M177.175 696.332c.03 24.312-9.547 44.263-21.257 44.205-11.806.057-21.246-19.832-21.388-44.237.067-24.426 9.755-44.284 21.465-44.226 11.695-.15 21.343 19.717 21.388 44.237Zm0 0" style="fill-rule:evenodd;fill:#a77b3b;fill-opacity:1;stroke-width:2.5;stroke-linecap:butt;stroke-linejoin:miter;stroke:#000;stroke-opacity:1;stroke-miterlimit:4" transform="matrix(.0206 -.01678 .01733 .01994 -1.266 .792)"/><path d="m262 306.118-21.5 36.71c-1.2 1.975-2.4 3.948-4.5 2.961-2.1-1.184-6.6 1.678-7.8 3.85-2.4 3.947-1.5 7.203.7 8.387l19.2 10.165c2 1.085 5.4.197 7.8-3.75 1.1-2.27 1.4-7.303-.7-8.487-2.1-1.086-1-3.158.3-5.132l21.4-36.71" style="fill-rule:evenodd;fill:#ff1900;fill-opacity:1;stroke-width:.7;stroke-linecap:butt;stroke-linejoin:miter;stroke:#000;stroke-opacity:1;stroke-miterlimit:4" transform="scale(.03906 .03958)"/><path d="M331.2 280.56h-19.6c-.6.591-6.2 35.624-12.2 49.045-7.3 16.283-29.2 30.691-29.2 30.691s13.1 4.046 17 6.612c1-.296 22-4.737 24.4-30.296 2.4 25.56-14.6 37.302-14.6 37.302s24.4 7.007 24.4 23.29c0-16.283 24.4-23.29 24.4-23.29s-12.2-11.743-14.7-37.302c5 25.56 23.5 30 24.5 30.296 3.9-2.566 17-6.612 17-6.612s-21.9-14.408-29.2-30.69c-6-13.422-11.6-48.455-12.2-49.047Zm-83-116.646 36.6 11.645c12.1 0 24.4-11.645 24.4-23.388.4-25.954-9.8-34.934-12.2-34.934l4.8-4.638-7.3-7.007s2.5-12.138 26.9-11.645c24.4.395 24.4 11.645 24.4 23.29 0 11.546-12.2 11.645-12.2 34.934 0 11.743 12.2 23.388 24.4 23.388l36.6-11.645V280.56H248.1Zm0 0" style="fill-rule:evenodd;fill:#a77b3b;fill-opacity:1;stroke-width:1.7;stroke-linecap:butt;stroke-linejoin:miter;stroke:#000;stroke-opacity:1;stroke-miterlimit:4" transform="scale(.03906 .03958)"/><path d="m302.303 292.161 14.396 14.98 14.995-14.98 14.395 14.98 29.39-14.98 14.396 15.824 14.995-15.824 21.594 15.824 22.192-15.824 14.396 14.98 14.995-14.98" style="fill:none;stroke-width:.5;stroke-linecap:butt;stroke-linejoin:miter;stroke:#000;stroke-opacity:1;stroke-miterlimit:4" transform="matrix(.00651 0 0 .01851 9.918 1.263)"/><path d="m432.334 435.726-7.11 39.118m10.593-39.118v39.118m7.112-39.118v39.118m7.11-39.118 3.484 39.118m3.628-39.118 3.483 39.118" style="fill:none;stroke-width:.2;stroke-linecap:butt;stroke-linejoin:miter;stroke:#000;stroke-opacity:1;stroke-miterlimit:4" transform="matrix(.02692 0 0 .02606 .633 -5.7)"/><path d="M318.845 361.386c35.41 17.686 35.41 53.207 35.41 70.892-1.16 16.187 0 354.312 0 354.312s-2.321-19.934-17.705-35.371l-17.56-17.686-17.706-17.685c-12.916-11.84-17.705-35.521-17.705-53.207V414.593s0-17.836 35.41-53.207Zm0 0" style="fill-rule:evenodd;fill:#a77b3b;fill-opacity:1;stroke-width:2.5;stroke-linecap:butt;stroke-linejoin:miter;stroke:#000;stroke-opacity:1;stroke-miterlimit:4" transform="matrix(-.02692 0 0 .02606 17.32 -5.7)"/><path d="M283.434 573.979c.435 0 17.705-17.686 17.705-17.686l17.706 17.686 17.705-17.686 17.706 17.686" style="fill:none;stroke-width:2.5;stroke-linecap:butt;stroke-linejoin:miter;stroke:#000;stroke-opacity:1;stroke-miterlimit:4" transform="matrix(-.02692 0 0 .02606 17.32 -9.393)"/><path d="M283.434 573.987c.435 0 17.705-17.686 17.705-17.686l17.706 17.686 17.705-17.686 17.706 17.686" style="fill:none;stroke-width:2.5;stroke-linecap:butt;stroke-linejoin:miter;stroke:#000;stroke-opacity:1;stroke-miterlimit:4" transform="matrix(-.02692 0 0 -.02606 17.32 20.987)"/><path d="M283.434 573.947c.435 0 17.705-17.686 17.705-17.686l17.706 17.686 17.705-17.686 17.706 17.686" style="fill:none;stroke-width:2.5;stroke-linecap:butt;stroke-linejoin:miter;stroke:#000;stroke-opacity:1;stroke-miterlimit:4" transform="matrix(-.02692 0 0 .02606 17.32 -7.549)"/><path d="m301.43 557.02-.29 158.798" style="fill:none;stroke-width:2.5;stroke-linecap:butt;stroke-linejoin:miter;stroke:#000;stroke-opacity:1;stroke-miterlimit:4" transform="matrix(-.02692 0 0 .04944 17.32 -22.436)"/><path d="m301.43 539.31-.29 176.487" style="fill:none;stroke-width:2.5;stroke-linecap:butt;stroke-linejoin:miter;stroke:#000;stroke-opacity:1;stroke-miterlimit:4" transform="matrix(-.02692 0 0 .04438 16.852 -18.367)"/><path d="m301.43 539.279-.29 176.483" style="fill:none;stroke-width:2.5;stroke-linecap:butt;stroke-linejoin:miter;stroke:#000;stroke-opacity:1;stroke-miterlimit:4" transform="matrix(-.02692 0 0 .04971 16.375 -21.704)"/><path d="M318.845 361.386c35.41 17.686 35.41 53.207 35.41 70.892-1.16 16.187 0 354.312 0 354.312s-2.321-19.934-17.705-35.371l-17.56-17.686-17.706-17.685c-12.916-11.84-17.705-35.521-17.705-53.207V414.593s0-17.836 35.41-53.207Zm0 0" style="fill-rule:evenodd;fill:#a77b3b;fill-opacity:1;stroke-width:2.5;stroke-linecap:butt;stroke-linejoin:miter;stroke:#000;stroke-opacity:1;stroke-miterlimit:4" transform="matrix(.02692 0 0 .02606 7.785 -5.7)"/><path d="M283.434 573.979c.435 0 17.705-17.686 17.705-17.686l17.706 17.686 17.705-17.686 17.706 17.686" style="fill:none;stroke-width:2.5;stroke-linecap:butt;stroke-linejoin:miter;stroke:#000;stroke-opacity:1;stroke-miterlimit:4" transform="matrix(.02692 0 0 .02606 7.785 -9.393)"/><path d="M283.434 573.987c.435 0 17.705-17.686 17.705-17.686l17.706 17.686 17.705-17.686 17.706 17.686" style="fill:none;stroke-width:2.5;stroke-linecap:butt;stroke-linejoin:miter;stroke:#000;stroke-opacity:1;stroke-miterlimit:4" transform="matrix(.02692 0 0 -.02606 7.785 20.987)"/><path d="M283.434 573.947c.435 0 17.705-17.686 17.705-17.686l17.706 17.686 17.705-17.686 17.706 17.686" style="fill:none;stroke-width:2.5;stroke-linecap:butt;stroke-linejoin:miter;stroke:#000;stroke-opacity:1;stroke-miterlimit:4" transform="matrix(.02692 0 0 .02606 7.785 -7.549)"/><path d="m301.43 557.02-.29 158.798" style="fill:none;stroke-width:2.5;stroke-linecap:butt;stroke-linejoin:miter;stroke:#000;stroke-opacity:1;stroke-miterlimit:4" transform="matrix(.02692 0 0 .04944 7.785 -22.436)"/><path d="m301.43 539.31-.29 176.487" style="fill:none;stroke-width:2.5;stroke-linecap:butt;stroke-linejoin:miter;stroke:#000;stroke-opacity:1;stroke-miterlimit:4" transform="matrix(.02692 0 0 .04438 8.258 -18.367)"/><path d="m301.43 539.279-.29 176.483" style="fill:none;stroke-width:2.5;stroke-linecap:butt;stroke-linejoin:miter;stroke:#000;stroke-opacity:1;stroke-miterlimit:4" transform="matrix(.02692 0 0 .04971 8.734 -21.704)"/><path d="M177.23 696.275c-.061 24.38-9.684 44.302-21.327 44.282-11.776.035-21.322-19.856-21.261-44.236-.13-24.463 9.683-44.302 21.326-44.282 11.777-.036 21.265 19.717 21.261 44.236Zm0 0" style="fill-rule:evenodd;fill:#a77b3b;fill-opacity:1;stroke-width:2.5;stroke-linecap:butt;stroke-linejoin:miter;stroke:#000;stroke-opacity:1;stroke-miterlimit:4" transform="matrix(.02485 .01002 -.01035 .02406 14.105 -6.54)"/><path d="M9.691 6.95h5.723v2.773H9.691Zm0 0" style="stroke:none;fill-rule:evenodd;fill:red;fill-opacity:1"/><path d="M9.691 9.723h5.723v1.382c0 .926-1.43.926-2.86 1.848-1.433-.918-2.867-.918-2.867-1.848Zm0 0" style="stroke:none;fill-rule:evenodd;fill:#564dff;fill-opacity:1"/><path d="M336.55 485.335h212.612v159.62c0 35.372-53.117 35.372-106.233 70.893-53.117-35.521-106.379-35.521-106.379-70.893Zm0 0" style="fill:none;stroke-width:2;stroke-linecap:butt;stroke-linejoin:miter;stroke:#ff0;stroke-opacity:1;stroke-miterlimit:4" transform="matrix(.02692 0 0 .02606 .633 -5.7)"/><path d="M385.62 130.013s-50.587 55.539-50.587 108.525c0 52.985 53.075 70.86 53.075 70.86s-17.622 0-17.622 70.86c0 35.43 53.074 17.875 53.074 35.43 0 17.556-.83 60.647 0 88.736 0 17.555-35.452 0-35.452 17.555 0 8.937 26.537 52.986 53.282 52.986 26.537 0 53.074-44.049 53.074-52.986 0-17.555-35.452 0-35.452-17.555v-88.736c0-17.555 53.075 0 53.075-35.43 0-70.86-17.623-70.86-17.623-70.86s53.075-17.556 53.075-70.86-50.587-108.525-50.587-108.525 28.404 73.094 28.404 108.525c0 17.555-13.27 53.304-48.721 53.304 0 0-8.915-17.874-17.623 0 0 0-10.159-17.874-17.622 0-2.695 5.746-7.256-17.874-17.83 0-4.561 4.47-8.085-17.874-17.83 0-17.622 0-53.074-17.874-53.074-53.304s32.964-108.525 32.964-108.525Zm0 0" style="fill-rule:evenodd;fill:#ff0;fill-opacity:1;stroke-width:2.5;stroke-linecap:butt;stroke-linejoin:miter;stroke:#000;stroke-opacity:1;stroke-miterlimit:4" transform="matrix(.01884 0 0 .01224 4.238 5.546)"/><path d="M382.718 248.05c-3.525 3.51 4.56 61.284 7.049 63.838 3.524 3.51 24.878 3.51 28.403 0 2.488-2.554 0-56.816-3.525-60.327-3.732-3.511-29.44-6.065-32.135-3.511Zm0 0" style="fill-rule:evenodd;fill:#ff0;fill-opacity:1;stroke-width:2.5;stroke-linecap:butt;stroke-linejoin:miter;stroke:#000;stroke-opacity:1;stroke-miterlimit:4" transform="matrix(.01884 0 0 .01224 4.313 7.98)"/><path d="M382.718 248.05c-3.525 3.51 4.56 61.284 7.049 63.838 3.524 3.51 24.878 3.51 28.403 0 2.488-2.554 0-56.816-3.525-60.327-3.731-3.511-29.44-6.065-32.135-3.511Zm0 0" style="fill-rule:evenodd;fill:#ff0;fill-opacity:1;stroke-width:2.5;stroke-linecap:butt;stroke-linejoin:miter;stroke:#000;stroke-opacity:1;stroke-miterlimit:4" transform="matrix(-.01884 0 0 .01224 20.797 7.98)"/><path d="M414.683 228.52c0 8.706-7.215 15.875-16.054 15.875s-16.053-7.17-16.053-15.875c0-8.961 7.215-16.13 16.053-16.13s16.054 7.169 16.054 16.13Zm0 0" style="fill-rule:evenodd;fill:#ff0;fill-opacity:1;stroke-width:2.5;stroke-linecap:butt;stroke-linejoin:miter;stroke:#000;stroke-opacity:1;stroke-miterlimit:4" transform="matrix(.02166 0 0 .01526 3.23 7.271)"/><path d="M414.675 228.514c0 8.706-7.215 15.875-16.053 15.875s-16.053-7.17-16.053-15.875c0-8.96 7.215-16.13 16.053-16.13s16.053 7.17 16.053 16.13Zm0 0" style="fill-rule:evenodd;fill:#ff0;fill-opacity:1;stroke-width:2.5;stroke-linecap:butt;stroke-linejoin:miter;stroke:#000;stroke-opacity:1;stroke-miterlimit:4" transform="matrix(.02166 0 0 .01526 4.61 7.271)"/><path d="M13.156 12.172c0 .058-.078.105-.168.105-.093 0-.168-.047-.168-.105 0-.059.078-.106.168-.106s.168.047.168.106m-.87 0c0 .058-.075.105-.165.105s-.168-.047-.168-.105c0-.059.074-.106.168-.106.09 0 .164.047.164.106" style="stroke:none;fill-rule:evenodd;fill:#000;fill-opacity:1"/><path d="m439.42 549.943-7.884-10.293-12.793 1.69 1.785-12.75-10.264-7.682 10.264-7.835-1.785-12.75 12.793 1.843 7.884-10.293 7.735 10.293 12.793-1.844-1.785 12.751 10.264 7.835-10.264 7.835 1.785 12.597-12.793-1.69Zm0 0" style="fill-rule:evenodd;fill:#ff0;fill-opacity:1;stroke-width:1.1;stroke-linecap:butt;stroke-linejoin:miter;stroke:#000;stroke-opacity:1;stroke-miterlimit:4" transform="matrix(.02626 0 0 .02543 1.016 -5.276)"/><path d="m496.045 591.749 21.189 10.64 21.334-10.64-21.334-10.642Zm0 0" style="fill-rule:evenodd;fill:#ff0;fill-opacity:1;stroke-width:1.1;stroke-linecap:butt;stroke-linejoin:miter;stroke:#000;stroke-opacity:1;stroke-miterlimit:4" transform="matrix(.02692 0 0 .02606 .633 -5.7)"/><path d="m496.045 591.749 21.189 10.64 21.334-10.64-21.334-10.642Zm0 0" style="fill-rule:evenodd;fill:#ff0;fill-opacity:1;stroke-width:1.1;stroke-linecap:butt;stroke-linejoin:miter;stroke:#000;stroke-opacity:1;stroke-miterlimit:4" transform="matrix(.02692 0 0 .02606 -3.469 -5.7)"/><path d="M534.954 659.019c-3.498-7.022-13.982-10.623-21.185-10.611-7.002-.046-14.205-.035-21.254 10.781.029-14.329 10.484-21.46 21.277-21.311 11.398.842 20.453 9.845 21.288 21.213Zm0 0" style="fill-rule:evenodd;fill:#ff0;fill-opacity:1;stroke-width:1.1;stroke-linecap:butt;stroke-linejoin:miter;stroke:#000;stroke-opacity:1;stroke-miterlimit:4" transform="matrix(.02334 -.01298 .0134 .0226 -6.453 3.424)"/><path d="M386.184 651.934c0 3.896-3.193 7.044-6.966 7.044-3.919 0-7.111-3.148-7.111-7.044 0-3.897 3.192-7.045 7.11-7.045 3.774 0 6.967 3.148 6.967 7.045Zm0 0" style="fill-rule:evenodd;fill:#ff0;fill-opacity:1;stroke-width:1.1;stroke-linecap:butt;stroke-linejoin:miter;stroke:#000;stroke-opacity:1;stroke-miterlimit:4" transform="matrix(.02692 0 0 .02606 .535 -6.163)"/><path d="M386.184 652.057c0 3.897-3.193 7.045-6.966 7.045-3.919 0-7.111-3.148-7.111-7.045s3.192-7.044 7.11-7.044c3.774 0 6.967 3.148 6.967 7.044Zm0 0" style="fill-rule:evenodd;fill:#ff0;fill-opacity:1;stroke-width:1.1;stroke-linecap:butt;stroke-linejoin:miter;stroke:#000;stroke-opacity:1;stroke-miterlimit:4" transform="matrix(.02692 0 0 .02606 .344 -5.518)"/><path d="M386.184 651.944c0 3.896-3.193 7.044-6.966 7.044-3.919 0-7.111-3.148-7.111-7.044 0-3.897 3.192-7.045 7.11-7.045 3.774 0 6.967 3.148 6.967 7.045Zm0 0" style="fill-rule:evenodd;fill:#ff0;fill-opacity:1;stroke-width:1.1;stroke-linecap:butt;stroke-linejoin:miter;stroke:#000;stroke-opacity:1;stroke-miterlimit:4" transform="matrix(.02692 0 0 .02606 .25 -5.886)"/><path d="M386.184 652.057c0 3.897-3.193 7.045-6.966 7.045-3.919 0-7.111-3.148-7.111-7.045s3.192-7.044 7.11-7.044c3.774 0 6.967 3.148 6.967 7.044Zm0 0" style="fill-rule:evenodd;fill:#ff0;fill-opacity:1;stroke-width:1.1;stroke-linecap:butt;stroke-linejoin:miter;stroke:#000;stroke-opacity:1;stroke-miterlimit:4" transform="matrix(.02692 0 0 .02606 .727 -5.518)"/><path d="M386.184 651.944c0 3.896-3.193 7.044-6.966 7.044-3.919 0-7.111-3.148-7.111-7.044 0-3.897 3.192-7.045 7.11-7.045 3.774 0 6.967 3.148 6.967 7.045Zm0 0" style="fill-rule:evenodd;fill:#ff0;fill-opacity:1;stroke-width:1.1;stroke-linecap:butt;stroke-linejoin:miter;stroke:#000;stroke-opacity:1;stroke-miterlimit:4" transform="matrix(.02692 0 0 .02606 .82 -5.886)"/><path d="M386.184 652.048c0 3.896-3.193 7.044-6.966 7.044-3.919 0-7.111-3.148-7.111-7.044 0-3.897 3.192-7.045 7.11-7.045 3.774 0 6.967 3.148 6.967 7.045Zm0 0" style="fill-rule:evenodd;fill:#ff0;fill-opacity:1;stroke-width:1.1;stroke-linecap:butt;stroke-linejoin:miter;stroke:#000;stroke-opacity:1;stroke-miterlimit:4" transform="matrix(.02692 0 0 .02606 .535 -5.795)"/><path d="M11.633 4.766c-.485 0-.547.078-.766.156 0-.215.54-.465 1.016-.465 0 .156-.125.309-.25.309" style="stroke:none;fill-rule:evenodd;fill:#da4500;fill-opacity:1"/><path d="M12.363 4.273a.19.19 0 0 1-.191.184.19.19 0 0 1-.192-.187c0-.102.086-.18.192-.18.105 0 .191.078.191.18Zm0 0" style="stroke:none;fill-rule:evenodd;fill:#cac9c7;fill-opacity:1"/><path d="M361.367 357.939v10.491h17.706v53.207h10.739V368.43h17.706V357.94h-17.706V343.7h-10.885v14.239Zm0 0" style="fill-rule:evenodd;fill:#ff0;fill-opacity:1;stroke-width:1.1;stroke-linecap:butt;stroke-linejoin:miter;stroke:#000;stroke-opacity:1;stroke-miterlimit:4" transform="matrix(.02692 0 0 .02606 .633 -5.7)"/><path d="M11.887 4.457a3 3 0 0 0-1.145.156c0-.285.328-.62.89-.62.126 0 .255.308.255.464" style="stroke:none;fill-rule:evenodd;fill:#da4500;fill-opacity:1"/><path d="M67.33 612.79c-14.274-13.792-16.693-21.177 3.61-9.935L354.668 850.46l-3.452 6.82L67.433 613.077Zm0 0" style="fill-rule:evenodd;fill:#008500;fill-opacity:1;stroke-width:.7;stroke-linecap:butt;stroke-linejoin:miter;stroke:#000;stroke-opacity:1;stroke-miterlimit:4" transform="matrix(.01516 .01174 -.0055 .00938 9.273 2.822)"/><path d="M8.922 13.078c.031-.418-.727-.871-.758-.844-.027.032.047.278.191.403-.273-.145-.562-.23-.57-.172-.023.086.43.285.469.363 0 .055-.336.047-.328.106.008.054.949.535.996.144m-.758-1.219c.031-.418-.726-.87-.754-.843-.031.027.043.273.188.398-.274-.14-.563-.23-.57-.168-.02.082.429.285.468.363.004.055-.332.047-.328.102.008.059.95.535.996.148m-.578-1.109c.031-.418-.727-.871-.758-.844s.047.274.192.403c-.274-.145-.563-.235-.57-.172-.02.082.429.285.468.363 0 .059-.332.05-.328.105.008.055.95.54.996.145m-.57-1.203c.027-.414-.727-.871-.758-.844-.031.031.047.277.187.406-.273-.148-.562-.234-.566-.171-.024.082.43.285.465.359.004.058-.332.05-.324.11.007.054.945.53.996.14" style="stroke:none;fill-rule:evenodd;fill:#008f00;fill-opacity:1"/><path d="M7.21 9.496c.368-.226.294-1.086.255-1.094-.043-.004-.203.2-.223.391-.043-.3-.14-.578-.195-.547-.082.031.016.5-.027.578-.04.04-.235-.23-.274-.191-.047.039.11 1.058.469.863Zm.532 1.055c.422-.098.653-.93.613-.95-.039-.019-.257.122-.34.294.063-.297.067-.59 0-.579-.09.004-.156.48-.222.536-.05.023-.145-.29-.195-.27-.055.023-.258 1.035.144.969m.633 1.074c.387-.187.39-1.05.352-1.059-.04-.011-.215.176-.254.364-.016-.305-.086-.586-.145-.559-.086.024-.031.5-.078.57-.047.036-.215-.25-.262-.214-.047.035.016 1.062.39.898Zm.688 1.41c.402-.156.5-1.008.46-1.027-.039-.016-.234.16-.293.344.016-.305-.023-.594-.085-.57-.09.015-.082.491-.137.562-.051.027-.188-.27-.235-.239-.05.024-.097 1.055.29.93" style="stroke:none;fill-rule:evenodd;fill:#008f00;fill-opacity:1"/><path d="M209.027 776.001c-.007 7.729-10.232 14.124-22.985 14.206-12.825-.049-23.008-6.38-23.075-14.239.007-7.728 10.36-14.194 22.985-14.205 12.826.049 23.008 6.38 23.075 14.238Zm0 0" style="fill-rule:evenodd;fill:#ff1900;fill-opacity:1;stroke-width:1.1;stroke-linecap:butt;stroke-linejoin:miter;stroke:#000;stroke-opacity:1;stroke-miterlimit:4" transform="matrix(.0235 .0127 -.01312 .02276 15.219 -5.81)"/><path d="M155.974 414.627v-7.12l7.005-.031v-7.12l7.004-.03v7.118l7.183-.09.068 7.305-7.251-.095.089 17.768-7.004.031-.09-17.768ZM163 474.892l7.004-.032.014 205.405-7.004.031Zm0 0" style="fill-rule:evenodd;fill:#ff0;fill-opacity:1;stroke-width:.5;stroke-linecap:butt;stroke-linejoin:miter;stroke:#000;stroke-opacity:1;stroke-miterlimit:4" transform="matrix(.01949 .00622 -.00713 .01866 17.633 -.146)"/><path d="m159.366 676.905 14.187-.122.11 56.707-14.256-.064Zm-3.371-237.578 21.26.033c14.077.124-3.537 39.078-3.537 39.078l-14.077-.124s-17.833-38.864-3.646-38.987Zm17.713-5.276c-.116 2.97-3.279 5.28-7.083 5.293-3.983.071-7.11-2.446-7.104-5.17-.063-2.91 3.032-5.408 7.015-5.48 3.804-.011 7.11 2.447 6.993 5.417Zm0 0" style="fill-rule:evenodd;fill:#ff0;fill-opacity:1;stroke-width:.5;stroke-linecap:butt;stroke-linejoin:miter;stroke:#000;stroke-opacity:1;stroke-miterlimit:4" transform="matrix(.01949 .00622 -.00713 .01866 17.633 -.146)"/><path d="M208.993 775.956c-.012 7.902-10.167 14.3-23.01 14.243-12.723.023-22.93-6.378-23.002-14.156.012-7.902 10.288-14.22 23.01-14.242s23.051 6.458 23.002 14.155Zm0 0" style="fill-rule:evenodd;fill:#ff1900;fill-opacity:1;stroke-width:1.1;stroke-linecap:butt;stroke-linejoin:miter;stroke:#000;stroke-opacity:1;stroke-miterlimit:4" transform="matrix(.02244 -.0144 .01486 .02173 -.09 .166)"/></svg>