<?xml version="1.0" encoding="UTF-8"?>
<svg xmlns="http://www.w3.org/2000/svg" xmlns:xlink="http://www.w3.org/1999/xlink" width="25px" height="px" viewBox="0 0 25 19" version="1.1">
<g id="surface1">
<path style=" stroke:none;fill-rule:evenodd;fill:rgb(0%,19.215687%,61.176473%);fill-opacity:1;" d="M 0 0 L 8.332031 0 L 8.332031 19 L 0 19 Z M 0 0 "/>
<path style=" stroke:none;fill-rule:evenodd;fill:rgb(100%,87.058824%,0%);fill-opacity:1;" d="M 8.332031 0 L 16.667969 0 L 16.667969 19 L 8.332031 19 Z M 8.332031 0 "/>
<path style=" stroke:none;fill-rule:evenodd;fill:rgb(87.058824%,12.941177%,6.27451%);fill-opacity:1;" d="M 16.667969 0 L 25 0 L 25 19 L 16.667969 19 Z M 16.667969 0 "/>
<path style="fill-rule:evenodd;fill:rgb(100%,9.803922%,0%);fill-opacity:1;stroke-width:0.7;stroke-linecap:butt;stroke-linejoin:miter;stroke:rgb(0%,0%,0%);stroke-opacity:1;stroke-miterlimit:4;" d="M 360.4 320.427632 L 384.6 355.361842 C 386 357.434211 387.3 359.309211 385.3 360.592105 C 383.3 361.875 383.9 367.006579 385.3 368.980263 C 388 372.927632 391.3 373.519737 393.3 372.236842 L 411.7 360.592105 C 413.7 359.407895 414.4 356.052632 411.7 352.203947 C 410.2 350.230263 405.7 347.664474 403.7 349.046053 C 401.6 350.328947 400.2 348.256579 398.9 346.381579 L 374.6 311.447368 " transform="matrix(0.0390625,0,0,0.0395833,0,0)"/>
<path style="fill-rule:evenodd;fill:rgb(65.490198%,48.235294%,23.137255%);fill-opacity:1;stroke-width:2.5;stroke-linecap:butt;stroke-linejoin:miter;stroke:rgb(0%,0%,0%);stroke-opacity:1;stroke-miterlimit:4;" d="M 177.175113 696.332368 C 177.205242 720.643909 167.628103 740.594839 155.918266 740.537043 C 144.111944 740.593937 134.671527 720.705174 134.53034 696.300209 C 134.596695 671.873977 144.284892 652.016472 155.994729 652.074268 C 167.689994 651.923949 177.337953 671.791445 177.382656 696.311102 Z M 177.175113 696.332368 " transform="matrix(0.0205969,-0.0167778,0.0173273,0.0199445,-1.265625,0.791667)"/>
<path style="fill-rule:evenodd;fill:rgb(100%,9.803922%,0%);fill-opacity:1;stroke-width:0.7;stroke-linecap:butt;stroke-linejoin:miter;stroke:rgb(0%,0%,0%);stroke-opacity:1;stroke-miterlimit:4;" d="M 262 306.118421 L 240.5 342.828947 C 239.3 344.802632 238.1 346.776316 236 345.789474 C 233.9 344.605263 229.4 347.467105 228.2 349.638158 C 225.8 353.585526 226.7 356.842105 228.9 358.026316 L 248.1 368.190789 C 250.1 369.276316 253.5 368.388158 255.9 364.440789 C 257 362.171053 257.3 357.138158 255.2 355.953947 C 253.1 354.868421 254.2 352.796053 255.5 350.822368 L 276.9 314.111842 " transform="matrix(0.0390625,0,0,0.0395833,0,0)"/>
<path style="fill-rule:evenodd;fill:rgb(65.490198%,48.235294%,23.137255%);fill-opacity:1;stroke-width:1.7;stroke-linecap:butt;stroke-linejoin:miter;stroke:rgb(0%,0%,0%);stroke-opacity:1;stroke-miterlimit:4;" d="M 331.2 280.559211 L 311.6 280.559211 C 311 281.151316 305.4 316.184211 299.4 329.605263 C 292.1 345.888158 270.2 360.296053 270.2 360.296053 C 270.2 360.296053 283.3 364.342105 287.2 366.907895 C 288.2 366.611842 309.2 362.171053 311.6 336.611842 C 314 362.171053 297 373.914474 297 373.914474 C 297 373.914474 321.4 380.921053 321.4 397.203947 C 321.4 380.921053 345.8 373.914474 345.8 373.914474 C 345.8 373.914474 333.6 362.171053 331.1 336.611842 C 336.1 362.171053 354.6 366.611842 355.6 366.907895 C 359.5 364.342105 372.6 360.296053 372.6 360.296053 C 372.6 360.296053 350.7 345.888158 343.4 329.605263 C 337.4 316.184211 331.8 281.151316 331.2 280.559211 Z M 248.2 163.914474 L 284.8 175.559211 C 296.9 175.559211 309.2 163.914474 309.2 152.171053 C 309.6 126.217105 299.4 117.236842 297 117.236842 L 301.8 112.598684 L 294.5 105.592105 C 294.5 105.592105 297 93.453947 321.4 93.947368 C 345.8 94.342105 345.8 105.592105 345.8 117.236842 C 345.8 128.782895 333.6 128.881579 333.6 152.171053 C 333.6 163.914474 345.8 175.559211 358 175.559211 L 394.6 163.914474 L 394.6 280.559211 L 248.1 280.559211 Z M 248.2 163.914474 " transform="matrix(0.0390625,0,0,0.0395833,0,0)"/>
<path style="fill:none;stroke-width:0.5;stroke-linecap:butt;stroke-linejoin:miter;stroke:rgb(0%,0%,0%);stroke-opacity:1;stroke-miterlimit:4;" d="M 302.303294 292.161367 L 316.698688 307.141332 L 331.693889 292.161367 L 346.089282 307.141332 L 375.479877 292.161367 L 389.87527 307.985274 L 404.870471 292.161367 L 426.463561 307.985274 L 448.656459 292.161367 L 463.051852 307.141332 L 478.047053 292.161367 " transform="matrix(0.0065125,0,0,0.0185143,9.917969,1.262708)"/>
<path style="fill:none;stroke-width:0.2;stroke-linecap:butt;stroke-linejoin:miter;stroke:rgb(0%,0%,0%);stroke-opacity:1;stroke-miterlimit:4;" d="M 432.334361 435.725507 L 425.223121 474.843681 M 435.817417 435.725507 L 435.817417 474.843681 M 442.928657 435.725507 L 442.928657 474.843681 M 450.039897 435.725507 L 453.522953 474.843681 M 457.151137 435.725507 L 460.634193 474.843681 " transform="matrix(0.026916,0,0,0.0260629,0.632813,-5.7)"/>
<path style="fill-rule:evenodd;fill:rgb(65.490198%,48.235294%,23.137255%);fill-opacity:1;stroke-width:2.5;stroke-linecap:butt;stroke-linejoin:miter;stroke:rgb(0%,0%,0%);stroke-opacity:1;stroke-miterlimit:4;" d="M 318.844769 361.385987 C 354.255841 379.071599 354.255841 414.5927 354.255841 432.278311 C 353.094822 448.465142 354.255841 786.590054 354.255841 786.590054 C 354.255841 786.590054 351.933803 766.656271 336.550305 751.218831 L 318.989896 733.533219 L 301.28436 715.847608 C 288.368026 704.007241 283.578824 680.326507 283.578824 662.640895 L 283.578824 414.5927 C 283.578824 414.5927 283.578824 396.75721 318.989896 361.385987 Z M 318.844769 361.385987 " transform="matrix(-0.026916,0,0,0.0260629,17.320312,-5.7)"/>
<path style="fill:none;stroke-width:2.5;stroke-linecap:butt;stroke-linejoin:miter;stroke:rgb(0%,0%,0%);stroke-opacity:1;stroke-miterlimit:4;" d="M 283.433696 573.979033 C 283.869079 573.979033 301.139233 556.293421 301.139233 556.293421 L 318.844769 573.979033 L 336.550305 556.293421 L 354.255841 573.979033 " transform="matrix(-0.026916,0,0,0.0260629,17.320312,-9.393125)"/>
<path style="fill:none;stroke-width:2.5;stroke-linecap:butt;stroke-linejoin:miter;stroke:rgb(0%,0%,0%);stroke-opacity:1;stroke-miterlimit:4;" d="M 283.433696 573.98704 C 283.869079 573.98704 301.139233 556.301428 301.139233 556.301428 L 318.844769 573.98704 L 336.550305 556.301428 L 354.255841 573.98704 " transform="matrix(-0.026916,0,0,-0.0260629,17.320312,20.987084)"/>
<path style="fill:none;stroke-width:2.5;stroke-linecap:butt;stroke-linejoin:miter;stroke:rgb(0%,0%,0%);stroke-opacity:1;stroke-miterlimit:4;" d="M 283.433696 573.947049 C 283.869079 573.947049 301.139233 556.261438 301.139233 556.261438 L 318.844769 573.947049 L 336.550305 556.261438 L 354.255841 573.947049 " transform="matrix(-0.026916,0,0,0.0260629,17.320312,-7.548542)"/>
<path style="fill:none;stroke-width:2.5;stroke-linecap:butt;stroke-linejoin:miter;stroke:rgb(0%,0%,0%);stroke-opacity:1;stroke-miterlimit:4;" d="M 301.429487 557.020807 L 301.139233 715.818083 " transform="matrix(-0.026916,0,0,0.0494439,17.320312,-22.435833)"/>
<path style="fill:none;stroke-width:2.5;stroke-linecap:butt;stroke-linejoin:miter;stroke:rgb(0%,0%,0%);stroke-opacity:1;stroke-miterlimit:4;" d="M 301.429487 539.309274 L 301.139233 715.796727 " transform="matrix(-0.026916,0,0,0.0443773,16.851562,-18.366667)"/>
<path style="fill:none;stroke-width:2.5;stroke-linecap:butt;stroke-linejoin:miter;stroke:rgb(0%,0%,0%);stroke-opacity:1;stroke-miterlimit:4;" d="M 301.429514 539.278794 L 301.139259 715.761581 " transform="matrix(-0.026916,0,0,0.0497127,16.375,-21.703541)"/>
<path style="fill-rule:evenodd;fill:rgb(65.490198%,48.235294%,23.137255%);fill-opacity:1;stroke-width:2.5;stroke-linecap:butt;stroke-linejoin:miter;stroke:rgb(0%,0%,0%);stroke-opacity:1;stroke-miterlimit:4;" d="M 318.844773 361.385987 C 354.255845 379.071599 354.255845 414.5927 354.255845 432.278311 C 353.094827 448.465142 354.255845 786.590054 354.255845 786.590054 C 354.255845 786.590054 351.933808 766.656271 336.550309 751.218831 L 318.989901 733.533219 L 301.284364 715.847608 C 288.368031 704.007241 283.578828 680.326507 283.578828 662.640895 L 283.578828 414.5927 C 283.578828 414.5927 283.578828 396.75721 318.989901 361.385987 Z M 318.844773 361.385987 " transform="matrix(0.026916,0,0,0.0260629,7.785156,-5.7)"/>
<path style="fill:none;stroke-width:2.5;stroke-linecap:butt;stroke-linejoin:miter;stroke:rgb(0%,0%,0%);stroke-opacity:1;stroke-miterlimit:4;" d="M 283.433701 573.979033 C 283.869083 573.979033 301.139237 556.293421 301.139237 556.293421 L 318.844773 573.979033 L 336.550309 556.293421 L 354.255845 573.979033 " transform="matrix(0.026916,0,0,0.0260629,7.785156,-9.393125)"/>
<path style="fill:none;stroke-width:2.5;stroke-linecap:butt;stroke-linejoin:miter;stroke:rgb(0%,0%,0%);stroke-opacity:1;stroke-miterlimit:4;" d="M 283.433701 573.98704 C 283.869083 573.98704 301.139237 556.301428 301.139237 556.301428 L 318.844773 573.98704 L 336.550309 556.301428 L 354.255845 573.98704 " transform="matrix(0.026916,0,0,-0.0260629,7.785156,20.987084)"/>
<path style="fill:none;stroke-width:2.5;stroke-linecap:butt;stroke-linejoin:miter;stroke:rgb(0%,0%,0%);stroke-opacity:1;stroke-miterlimit:4;" d="M 283.433701 573.947049 C 283.869083 573.947049 301.139237 556.261438 301.139237 556.261438 L 318.844773 573.947049 L 336.550309 556.261438 L 354.255845 573.947049 " transform="matrix(0.026916,0,0,0.0260629,7.785156,-7.548542)"/>
<path style="fill:none;stroke-width:2.5;stroke-linecap:butt;stroke-linejoin:miter;stroke:rgb(0%,0%,0%);stroke-opacity:1;stroke-miterlimit:4;" d="M 301.429492 557.020807 L 301.139237 715.818083 " transform="matrix(0.026916,0,0,0.0494439,7.785156,-22.435833)"/>
<path style="fill:none;stroke-width:2.5;stroke-linecap:butt;stroke-linejoin:miter;stroke:rgb(0%,0%,0%);stroke-opacity:1;stroke-miterlimit:4;" d="M 301.429505 539.309274 L 301.13925 715.796727 " transform="matrix(0.026916,0,0,0.0443773,8.257812,-18.366667)"/>
<path style="fill:none;stroke-width:2.5;stroke-linecap:butt;stroke-linejoin:miter;stroke:rgb(0%,0%,0%);stroke-opacity:1;stroke-miterlimit:4;" d="M 301.429487 539.278794 L 301.139233 715.761581 " transform="matrix(0.026916,0,0,0.0497127,8.734375,-21.703541)"/>
<path style="fill-rule:evenodd;fill:rgb(65.490198%,48.235294%,23.137255%);fill-opacity:1;stroke-width:2.5;stroke-linecap:butt;stroke-linejoin:miter;stroke:rgb(0%,0%,0%);stroke-opacity:1;stroke-miterlimit:4;" d="M 177.22948 696.275019 C 177.168698 720.655591 167.546104 740.576915 155.903404 740.556767 C 144.12674 740.592436 134.581097 720.701462 134.641879 696.32089 C 134.511051 671.857784 144.325254 652.018994 155.967955 652.039141 C 167.744619 652.003473 177.232617 671.756097 177.22948 696.275019 Z M 177.22948 696.275019 " transform="matrix(0.0248457,0.0100237,-0.0103523,0.024058,14.105469,-6.539167)"/>
<path style=" stroke:none;fill-rule:evenodd;fill:rgb(100%,0%,0%);fill-opacity:1;" d="M 9.691406 6.949219 L 15.414062 6.949219 L 15.414062 9.722656 L 9.691406 9.722656 Z M 9.691406 6.949219 "/>
<path style=" stroke:none;fill-rule:evenodd;fill:rgb(33.725491%,30.19608%,100%);fill-opacity:1;" d="M 9.691406 9.722656 L 15.414062 9.722656 L 15.414062 11.105469 C 15.414062 12.03125 13.984375 12.03125 12.554688 12.953125 C 11.121094 12.035156 9.6875 12.035156 9.6875 11.105469 Z M 9.691406 9.722656 "/>
<path style="fill:none;stroke-width:2;stroke-linecap:butt;stroke-linejoin:miter;stroke:rgb(100%,100%,0%);stroke-opacity:1;stroke-miterlimit:4;" d="M 336.550313 485.335146 L 549.161873 485.335146 L 549.161873 644.955284 C 549.161873 680.326507 496.045265 680.326507 442.928657 715.847608 C 389.812048 680.326507 336.550313 680.326507 336.550313 644.955284 Z M 336.550313 485.335146 " transform="matrix(0.026916,0,0,0.0260629,0.632813,-5.7)"/>
<path style="fill-rule:evenodd;fill:rgb(100%,100%,0%);fill-opacity:1;stroke-width:2.5;stroke-linecap:butt;stroke-linejoin:miter;stroke:rgb(0%,0%,0%);stroke-opacity:1;stroke-miterlimit:4;" d="M 385.620096 130.012762 C 385.620096 130.012762 335.033373 185.551954 335.033373 238.537621 C 335.033373 291.523288 388.107967 309.39797 388.107967 309.39797 C 388.107967 309.39797 370.485543 309.39797 370.485543 380.25832 C 370.485543 415.688494 423.560137 398.133002 423.560137 415.688494 C 423.560137 433.243986 422.730847 476.334739 423.560137 504.423526 C 423.560137 521.979018 388.107967 504.423526 388.107967 521.979018 C 388.107967 530.916359 414.645264 574.964685 441.389884 574.964685 C 467.927181 574.964685 494.464477 530.916359 494.464477 521.979018 C 494.464477 504.423526 459.012307 521.979018 459.012307 504.423526 L 459.012307 415.688494 C 459.012307 398.133002 512.086901 415.688494 512.086901 380.25832 C 512.086901 309.39797 494.464477 309.39797 494.464477 309.39797 C 494.464477 309.39797 547.539071 291.842478 547.539071 238.537621 C 547.539071 185.232764 496.952349 130.012762 496.952349 130.012762 C 496.952349 130.012762 525.35555 203.107446 525.35555 238.537621 C 525.35555 256.093113 512.086901 291.842478 476.634731 291.842478 C 476.634731 291.842478 467.719858 273.967796 459.012307 291.842478 C 459.012307 291.842478 448.853498 273.967796 441.389884 291.842478 C 438.694689 297.587912 434.133591 273.967796 423.560137 291.842478 C 418.999039 296.311149 415.474555 273.967796 405.730391 291.842478 C 388.107967 291.842478 352.655797 273.967796 352.655797 238.537621 C 352.655797 203.107446 385.620096 130.012762 385.620096 130.012762 Z M 385.620096 130.012762 " transform="matrix(0.0188414,0,0,0.012238,4.238281,5.545625)"/>
<path style="fill-rule:evenodd;fill:rgb(100%,100%,0%);fill-opacity:1;stroke-width:2.5;stroke-linecap:butt;stroke-linejoin:miter;stroke:rgb(0%,0%,0%);stroke-opacity:1;stroke-miterlimit:4;" d="M 382.717576 248.049506 C 379.193091 251.560604 387.278673 309.334132 389.766545 311.887658 C 393.29103 315.398757 414.645261 315.398757 418.169746 311.887658 C 420.657617 309.334132 418.169746 255.071702 414.645261 251.560604 C 410.913454 248.049506 385.205447 245.49598 382.510253 248.049506 Z M 382.717576 248.049506 " transform="matrix(0.0188414,0,0,0.012238,4.3125,7.98)"/>
<path style="fill-rule:evenodd;fill:rgb(100%,100%,0%);fill-opacity:1;stroke-width:2.5;stroke-linecap:butt;stroke-linejoin:miter;stroke:rgb(0%,0%,0%);stroke-opacity:1;stroke-miterlimit:4;" d="M 382.717629 248.049506 C 379.193145 251.560604 387.278727 309.334132 389.766599 311.887658 C 393.291084 315.398757 414.645315 315.398757 418.169799 311.887658 C 420.657671 309.334132 418.169799 255.071702 414.645315 251.560604 C 410.913507 248.049506 385.205501 245.49598 382.510307 248.049506 Z M 382.717629 248.049506 " transform="matrix(-0.0188414,0,0,0.012238,20.796876,7.98)"/>
<path style="fill-rule:evenodd;fill:rgb(100%,100%,0%);fill-opacity:1;stroke-width:2.5;stroke-linecap:butt;stroke-linejoin:miter;stroke:rgb(0%,0%,0%);stroke-opacity:1;stroke-miterlimit:4;" d="M 414.682525 228.520368 C 414.682525 237.22584 407.467518 244.395053 398.629135 244.395053 C 389.790751 244.395053 382.575745 237.22584 382.575745 228.520368 C 382.575745 219.558852 389.790751 212.389639 398.629135 212.389639 C 407.467518 212.389639 414.682525 219.558852 414.682525 228.520368 Z M 414.682525 228.520368 " transform="matrix(0.0216563,0,0,0.0152562,3.230469,7.271458)"/>
<path style="fill-rule:evenodd;fill:rgb(100%,100%,0%);fill-opacity:1;stroke-width:2.5;stroke-linecap:butt;stroke-linejoin:miter;stroke:rgb(0%,0%,0%);stroke-opacity:1;stroke-miterlimit:4;" d="M 414.675074 228.514431 C 414.675074 237.219677 407.460197 244.388703 398.621972 244.388703 C 389.783748 244.388703 382.56887 237.219677 382.56887 228.514431 C 382.56887 219.553148 389.783748 212.384121 398.621972 212.384121 C 407.460197 212.384121 414.675074 219.553148 414.675074 228.514431 Z M 414.675074 228.514431 " transform="matrix(0.0216566,0,0,0.0152566,4.609375,7.271458)"/>
<path style=" stroke:none;fill-rule:evenodd;fill:rgb(0%,0%,0%);fill-opacity:1;" d="M 13.15625 12.171875 C 13.15625 12.230469 13.078125 12.277344 12.988281 12.277344 C 12.894531 12.277344 12.820312 12.230469 12.820312 12.171875 C 12.820312 12.113281 12.898438 12.066406 12.988281 12.066406 C 13.078125 12.066406 13.15625 12.113281 13.15625 12.171875 M 12.285156 12.171875 C 12.285156 12.230469 12.210938 12.277344 12.121094 12.277344 C 12.03125 12.277344 11.953125 12.230469 11.953125 12.171875 C 11.953125 12.113281 12.027344 12.066406 12.121094 12.066406 C 12.210938 12.066406 12.285156 12.113281 12.285156 12.171875 "/>
<path style="fill-rule:evenodd;fill:rgb(100%,100%,0%);fill-opacity:1;stroke-width:1.1;stroke-linecap:butt;stroke-linejoin:miter;stroke:rgb(0%,0%,0%);stroke-opacity:1;stroke-miterlimit:4;" d="M 439.419876 549.94336 L 431.535904 539.650472 L 418.743044 541.34035 L 420.528094 528.589459 L 410.264055 520.908199 L 420.528094 513.073315 L 418.743044 500.322424 L 431.535904 502.165926 L 439.419876 491.873039 L 447.155094 502.165926 L 459.947955 500.322424 L 458.162904 513.073315 L 468.426943 520.908199 L 458.162904 528.743084 L 459.947955 541.34035 L 447.155094 539.650472 Z M 439.419876 549.94336 " transform="matrix(0.0262598,0,0,0.0254271,1.015625,-5.276458)"/>
<path style="fill-rule:evenodd;fill:rgb(100%,100%,0%);fill-opacity:1;stroke-width:1.1;stroke-linecap:butt;stroke-linejoin:miter;stroke:rgb(0%,0%,0%);stroke-opacity:1;stroke-miterlimit:4;" d="M 496.045265 591.748571 L 517.233858 602.389914 L 538.567577 591.748571 L 517.233858 581.107229 Z M 496.045265 591.748571 " transform="matrix(0.026916,0,0,0.0260629,0.632813,-5.7)"/>
<path style="fill-rule:evenodd;fill:rgb(100%,100%,0%);fill-opacity:1;stroke-width:1.1;stroke-linecap:butt;stroke-linejoin:miter;stroke:rgb(0%,0%,0%);stroke-opacity:1;stroke-miterlimit:4;" d="M 496.045271 591.748571 L 517.233863 602.389914 L 538.567583 591.748571 L 517.233863 581.107229 Z M 496.045271 591.748571 " transform="matrix(0.026916,0,0,0.0260629,-3.46875,-5.7)"/>
<path style="fill-rule:evenodd;fill:rgb(100%,100%,0%);fill-opacity:1;stroke-width:1.1;stroke-linecap:butt;stroke-linejoin:miter;stroke:rgb(0%,0%,0%);stroke-opacity:1;stroke-miterlimit:4;" d="M 534.954143 659.018655 C 531.455539 651.99721 520.971867 648.396291 513.768952 648.407824 C 506.766528 648.361661 499.563613 648.373194 492.515183 659.189282 C 492.543833 644.860342 502.998869 637.72898 513.791525 637.877787 C 525.189992 638.720175 534.245055 647.722763 535.079992 659.090928 Z M 534.954143 659.018655 " transform="matrix(0.023341,-0.0129794,0.0134047,0.0226009,-6.453125,3.423958)"/>
<path style="fill-rule:evenodd;fill:rgb(100%,100%,0%);fill-opacity:1;stroke-width:1.1;stroke-linecap:butt;stroke-linejoin:miter;stroke:rgb(0%,0%,0%);stroke-opacity:1;stroke-miterlimit:4;" d="M 386.183866 651.933602 C 386.183866 655.830431 382.991065 658.977871 379.217754 658.977871 C 375.299315 658.977871 372.106514 655.830431 372.106514 651.933602 C 372.106514 648.036772 375.299315 644.889333 379.217754 644.889333 C 382.991065 644.889333 386.183866 648.036772 386.183866 651.933602 Z M 386.183866 651.933602 " transform="matrix(0.026916,0,0,0.0260629,0.535156,-6.163125)"/>
<path style="fill-rule:evenodd;fill:rgb(100%,100%,0%);fill-opacity:1;stroke-width:1.1;stroke-linecap:butt;stroke-linejoin:miter;stroke:rgb(0%,0%,0%);stroke-opacity:1;stroke-miterlimit:4;" d="M 386.183866 652.057496 C 386.183866 655.954326 382.991064 659.101765 379.217753 659.101765 C 375.299315 659.101765 372.106513 655.954326 372.106513 652.057496 C 372.106513 648.160667 375.299315 645.013227 379.217753 645.013227 C 382.991064 645.013227 386.183866 648.160667 386.183866 652.057496 Z M 386.183866 652.057496 " transform="matrix(0.026916,0,0,0.0260629,0.34375,-5.517916)"/>
<path style="fill-rule:evenodd;fill:rgb(100%,100%,0%);fill-opacity:1;stroke-width:1.1;stroke-linecap:butt;stroke-linejoin:miter;stroke:rgb(0%,0%,0%);stroke-opacity:1;stroke-miterlimit:4;" d="M 386.183866 651.943594 C 386.183866 655.840423 382.991064 658.987863 379.217753 658.987863 C 375.299315 658.987863 372.106513 655.840423 372.106513 651.943594 C 372.106513 648.046764 375.299315 644.899325 379.217753 644.899325 C 382.991064 644.899325 386.183866 648.046764 386.183866 651.943594 Z M 386.183866 651.943594 " transform="matrix(0.026916,0,0,0.0260629,0.25,-5.886042)"/>
<path style="fill-rule:evenodd;fill:rgb(100%,100%,0%);fill-opacity:1;stroke-width:1.1;stroke-linecap:butt;stroke-linejoin:miter;stroke:rgb(0%,0%,0%);stroke-opacity:1;stroke-miterlimit:4;" d="M 386.183865 652.057496 C 386.183865 655.954326 382.991064 659.101765 379.217753 659.101765 C 375.299314 659.101765 372.106513 655.954326 372.106513 652.057496 C 372.106513 648.160667 375.299314 645.013227 379.217753 645.013227 C 382.991064 645.013227 386.183865 648.160667 386.183865 652.057496 Z M 386.183865 652.057496 " transform="matrix(0.026916,0,0,0.0260629,0.726563,-5.517916)"/>
<path style="fill-rule:evenodd;fill:rgb(100%,100%,0%);fill-opacity:1;stroke-width:1.1;stroke-linecap:butt;stroke-linejoin:miter;stroke:rgb(0%,0%,0%);stroke-opacity:1;stroke-miterlimit:4;" d="M 386.183866 651.943594 C 386.183866 655.840423 382.991064 658.987863 379.217753 658.987863 C 375.299315 658.987863 372.106513 655.840423 372.106513 651.943594 C 372.106513 648.046764 375.299315 644.899325 379.217753 644.899325 C 382.991064 644.899325 386.183866 648.046764 386.183866 651.943594 Z M 386.183866 651.943594 " transform="matrix(0.026916,0,0,0.0260629,0.820312,-5.886042)"/>
<path style="fill-rule:evenodd;fill:rgb(100%,100%,0%);fill-opacity:1;stroke-width:1.1;stroke-linecap:butt;stroke-linejoin:miter;stroke:rgb(0%,0%,0%);stroke-opacity:1;stroke-miterlimit:4;" d="M 386.183866 652.047504 C 386.183866 655.944334 382.991065 659.091773 379.217754 659.091773 C 375.299315 659.091773 372.106514 655.944334 372.106514 652.047504 C 372.106514 648.150675 375.299315 645.003235 379.217754 645.003235 C 382.991065 645.003235 386.183866 648.150675 386.183866 652.047504 Z M 386.183866 652.047504 " transform="matrix(0.026916,0,0,0.0260629,0.535156,-5.795)"/>
<path style=" stroke:none;fill-rule:evenodd;fill:rgb(85.490197%,27.058825%,0%);fill-opacity:1;" d="M 11.632812 4.765625 C 11.148438 4.765625 11.085938 4.84375 10.867188 4.921875 C 10.867188 4.707031 11.40625 4.457031 11.882812 4.457031 C 11.882812 4.613281 11.757812 4.765625 11.632812 4.765625 "/>
<path style=" stroke:none;fill-rule:evenodd;fill:rgb(79.215688%,78.823531%,78.039217%);fill-opacity:1;" d="M 12.363281 4.273438 C 12.363281 4.375 12.277344 4.457031 12.171875 4.457031 C 12.066406 4.457031 11.980469 4.375 11.980469 4.269531 C 11.980469 4.167969 12.066406 4.089844 12.171875 4.089844 C 12.277344 4.089844 12.363281 4.167969 12.363281 4.269531 Z M 12.363281 4.273438 "/>
<path style="fill-rule:evenodd;fill:rgb(100%,100%,0%);fill-opacity:1;stroke-width:1.1;stroke-linecap:butt;stroke-linejoin:miter;stroke:rgb(0%,0%,0%);stroke-opacity:1;stroke-miterlimit:4;" d="M 361.367089 357.938792 L 361.367089 368.430256 L 379.072625 368.430256 L 379.072625 421.636969 L 389.812048 421.636969 L 389.812048 368.430256 L 407.517584 368.430256 L 407.517584 357.938792 L 389.812048 357.938792 L 389.812048 343.700376 L 378.927497 343.700376 L 378.927497 357.938792 Z M 361.367089 357.938792 " transform="matrix(0.026916,0,0,0.0260629,0.632813,-5.7)"/>
<path style=" stroke:none;fill-rule:evenodd;fill:rgb(85.490197%,27.058825%,0%);fill-opacity:1;" d="M 11.886719 4.457031 C 11.5 4.433594 11.109375 4.488281 10.742188 4.613281 C 10.742188 4.328125 11.070312 3.992188 11.632812 3.992188 C 11.757812 3.992188 11.886719 4.300781 11.886719 4.457031 "/>
<path style="fill-rule:evenodd;fill:rgb(0%,52.156866%,0%);fill-opacity:1;stroke-width:0.7;stroke-linecap:butt;stroke-linejoin:miter;stroke:rgb(0%,0%,0%);stroke-opacity:1;stroke-miterlimit:4;" d="M 67.329357 612.789934 C 53.056282 598.997916 50.636755 591.612963 70.940537 602.855281 L 354.66707 850.460471 L 351.214785 857.280542 L 67.433226 613.076461 Z M 67.329357 612.789934 " transform="matrix(0.0151645,0.0117376,-0.00549727,0.00937808,9.273437,2.822292)"/>
<path style=" stroke:none;fill-rule:evenodd;fill:rgb(0%,56.078434%,0%);fill-opacity:1;" d="M 8.921875 13.078125 C 8.953125 12.660156 8.195312 12.207031 8.164062 12.234375 C 8.136719 12.265625 8.210938 12.511719 8.355469 12.636719 C 8.082031 12.492188 7.792969 12.40625 7.785156 12.464844 C 7.761719 12.550781 8.214844 12.75 8.253906 12.828125 C 8.253906 12.882812 7.917969 12.875 7.925781 12.933594 C 7.933594 12.988281 8.875 13.46875 8.921875 13.078125 M 8.164062 11.859375 C 8.195312 11.441406 7.4375 10.988281 7.410156 11.015625 C 7.378906 11.042969 7.453125 11.289062 7.597656 11.414062 C 7.324219 11.273438 7.035156 11.183594 7.027344 11.246094 C 7.007812 11.328125 7.457031 11.53125 7.496094 11.609375 C 7.5 11.664062 7.164062 11.65625 7.167969 11.710938 C 7.175781 11.769531 8.117188 12.246094 8.164062 11.859375 M 7.585938 10.75 C 7.617188 10.332031 6.859375 9.878906 6.828125 9.90625 C 6.796875 9.933594 6.875 10.179688 7.019531 10.308594 C 6.746094 10.164062 6.457031 10.074219 6.449219 10.136719 C 6.429688 10.21875 6.878906 10.421875 6.917969 10.5 C 6.917969 10.558594 6.585938 10.550781 6.589844 10.605469 C 6.597656 10.660156 7.539062 11.144531 7.585938 10.75 M 7.015625 9.546875 C 7.042969 9.132812 6.289062 8.675781 6.257812 8.703125 C 6.226562 8.734375 6.304688 8.980469 6.445312 9.109375 C 6.171875 8.960938 5.882812 8.875 5.878906 8.9375 C 5.855469 9.019531 6.308594 9.222656 6.34375 9.296875 C 6.347656 9.355469 6.011719 9.347656 6.019531 9.40625 C 6.027344 9.460938 6.964844 9.9375 7.015625 9.546875 "/>
<path style=" stroke:none;fill-rule:evenodd;fill:rgb(0%,56.078434%,0%);fill-opacity:1;" d="M 7.210938 9.496094 C 7.578125 9.269531 7.503906 8.410156 7.464844 8.402344 C 7.421875 8.398438 7.261719 8.601562 7.242188 8.792969 C 7.199219 8.492188 7.101562 8.214844 7.046875 8.246094 C 6.964844 8.277344 7.0625 8.746094 7.019531 8.824219 C 6.980469 8.863281 6.785156 8.59375 6.746094 8.632812 C 6.699219 8.671875 6.855469 9.691406 7.214844 9.496094 Z M 7.742188 10.550781 C 8.164062 10.453125 8.394531 9.621094 8.355469 9.601562 C 8.316406 9.582031 8.097656 9.722656 8.015625 9.894531 C 8.078125 9.597656 8.082031 9.304688 8.015625 9.316406 C 7.925781 9.320312 7.859375 9.796875 7.792969 9.851562 C 7.742188 9.875 7.648438 9.5625 7.597656 9.582031 C 7.542969 9.605469 7.339844 10.617188 7.742188 10.550781 M 8.375 11.625 C 8.761719 11.4375 8.765625 10.574219 8.726562 10.566406 C 8.6875 10.554688 8.511719 10.742188 8.472656 10.929688 C 8.457031 10.625 8.386719 10.34375 8.328125 10.371094 C 8.242188 10.394531 8.296875 10.871094 8.25 10.941406 C 8.203125 10.976562 8.035156 10.691406 7.988281 10.726562 C 7.941406 10.761719 8.003906 11.789062 8.378906 11.625 Z M 9.0625 13.035156 C 9.464844 12.878906 9.5625 12.027344 9.523438 12.007812 C 9.484375 11.992188 9.289062 12.167969 9.230469 12.351562 C 9.246094 12.046875 9.207031 11.757812 9.144531 11.78125 C 9.054688 11.796875 9.0625 12.273438 9.007812 12.34375 C 8.957031 12.371094 8.820312 12.074219 8.773438 12.105469 C 8.722656 12.128906 8.675781 13.160156 9.0625 13.035156 "/>
<path style="fill-rule:evenodd;fill:rgb(100%,9.803922%,0%);fill-opacity:1;stroke-width:1.1;stroke-linecap:butt;stroke-linejoin:miter;stroke:rgb(0%,0%,0%);stroke-opacity:1;stroke-miterlimit:4;" d="M 209.026759 776.001357 C 209.019973 783.729602 198.794908 790.124933 186.042337 790.206931 C 173.216703 790.158064 163.033771 783.827434 162.967495 775.968326 C 162.974281 768.240082 173.32606 761.774004 185.951918 761.762753 C 198.777551 761.811619 208.960483 768.142249 209.026759 776.001357 Z M 209.026759 776.001357 " transform="matrix(0.0235016,0.0127051,-0.0131211,0.0227565,15.21875,-5.810833)"/>
<path style="fill-rule:evenodd;fill:rgb(100%,100%,0%);fill-opacity:1;stroke-width:0.5;stroke-linecap:butt;stroke-linejoin:miter;stroke:rgb(0%,0%,0%);stroke-opacity:1;stroke-miterlimit:4;" d="M 155.974189 414.626685 L 155.974261 407.507495 L 162.978582 407.475981 L 162.978654 400.35679 L 169.982975 400.325276 L 169.982903 407.444467 L 177.16588 407.353401 L 177.234115 414.659209 L 169.982831 414.563657 L 170.07198 432.331857 L 163.067659 432.363371 L 162.97851 414.595171 Z M 162.998921 474.891895 L 170.003242 474.86038 L 170.016935 680.264705 L 163.012613 680.296219 Z M 162.998921 474.891895 " transform="matrix(0.0194871,0.00621854,-0.00713281,0.0186556,17.632812,-0.146458)"/>
<path style="fill-rule:evenodd;fill:rgb(100%,100%,0%);fill-opacity:1;stroke-width:0.5;stroke-linecap:butt;stroke-linejoin:miter;stroke:rgb(0%,0%,0%);stroke-opacity:1;stroke-miterlimit:4;" d="M 159.365987 676.905242 L 173.553285 676.782662 L 173.663059 733.490014 L 159.407454 733.425976 Z M 155.994958 439.327457 L 177.254884 439.359981 C 191.331834 439.483571 173.718175 478.437976 173.718175 478.437976 L 159.641226 478.314386 C 159.641226 478.314386 141.807661 439.450037 155.994958 439.327457 Z M 173.708114 434.051233 C 173.592484 437.021198 170.429219 439.331943 166.624921 439.343719 C 162.641969 439.415047 159.515534 436.897608 159.520816 434.173813 C 159.457791 431.2634 162.552748 428.766037 166.535701 428.69471 C 170.339999 428.682934 173.645088 431.14082 173.529458 434.110785 Z M 173.708114 434.051233 " transform="matrix(0.0194871,0.00621854,-0.00713281,0.0186556,17.632812,-0.146458)"/>
<path style="fill-rule:evenodd;fill:rgb(100%,9.803922%,0%);fill-opacity:1;stroke-width:1.1;stroke-linecap:butt;stroke-linejoin:miter;stroke:rgb(0%,0%,0%);stroke-opacity:1;stroke-miterlimit:4;" d="M 208.992718 775.956102 C 208.981181 783.858299 198.825982 790.255641 185.982716 790.198681 C 173.260445 790.221856 163.052364 783.820575 162.981142 776.043336 C 162.992679 768.14114 173.268873 761.823932 185.991144 761.800757 C 198.713415 761.777582 209.042491 768.258999 208.992718 775.956102 Z M 208.992718 775.956102 " transform="matrix(0.022441,-0.0143913,0.0148625,0.0217293,-0.0898437,0.16625)"/>
</g>
</svg>
