<svg xmlns="http://www.w3.org/2000/svg" width="25" height="px" viewBox="0 0 25 19"><path d="M0 0h25v19H0z" style="fill:#d3ae3b;fill-opacity:1;stroke:none"/><path d="M.938.95h23.125v17.1H.938Zm0 0" style="stroke:none;fill-rule:nonzero;fill:#c40308;fill-opacity:1"/><path d="M16.582 9.344c.273-.07.531-.196.758-.364.273-.218.324-.398.344-.492.02-.097.03-.172-.04-.12-.07.054-.277.222-.417.3a2 2 0 0 1-.352.145c-.078.019-.14.035-.066.003.078-.027.316-.117.507-.304.184-.192.332-.477.336-.653.004-.171-.011-.156-.066-.117-.055.043-.25.29-.363.383a3 3 0 0 1-.38.273c-.09.051-.214.114-.038-.011.175-.121.508-.407.644-.778.082-.199.117-.414.106-.625 0-.043-.032-.113-.063-.046-.031.07-.254.515-.43.714-.18.188-.136.153-.18.184-.042.035-.105.09-.019-.024.297-.347.465-.792.477-1.253 0-.141-.059-.34-.086-.399s-.055-.105-.067-.035q-.095.369-.226.727a3 3 0 0 1-.262.507c-.031.043-.11.141-.023-.02a3.1 3.1 0 0 0 .273-1.093 1.8 1.8 0 0 0-.101-.828.5.5 0 0 0-.118-.164s.012.309-.078.75c-.09.445-.222.672-.222.672s-.059.07-.02-.04c.145-.437.164-.913.055-1.363-.09-.296-.242-.449-.242-.449-.04.426-.035.973-.188 1.414-.027-.027-.066-.074-.082.024q-.074.405-.273.77c-.188.347-.266.394-.266.394l-.059-.133c-.023-.05-.039-.074-.07-.008-.031.063-.137.309-.367.574-.23.27-.36.407-.352.61.004.195.11.304.25.394s.164.14.145.254c-.02.11-.149.145-.258.149s-.242-.004-.293.023-.05.102-.101.149c-.047.05-.07.078-.118.085l-.039.004c-.007-.535.196-.773.196-.773l-.57-.676-.087.04-.015-.024a.44.44 0 0 1-.102-.309c.028 0 .086.024.137.012.05-.012.012-.063 0-.11a.9.9 0 0 1-.024-.289l.016-.09s.082.09.133.09c.05 0 .047-.05.055-.109.011-.09.05-.2.117-.258 0 0 .094.063.195.063a.48.48 0 0 0 .352-.14c.117-.106.113-.13.113-.13s.207.07.363.078.324-.015.406-.183c.083-.172-.023-.324-.039-.352-.023-.027-.074-.047-.074 0 0 .051.004.176-.094.238-.093.063-.168.06-.257.032a.82.82 0 0 0-.512-.016.7.7 0 0 1 .238-.164c.117-.035.188.016.227.063.039.046.074.117.105.011a.42.42 0 0 0-.039-.316.3.3 0 0 0-.281-.117c-.117.007-.156.027-.156.027s-.059-.172-.207-.2a.82.82 0 0 0-.547.118s-.121.027-.25-.008a.8.8 0 0 1-.211-.11l.043-.14.074-.023c.04-.016.027-.028.035-.059.004-.031-.07-.086-.07-.086s-.012-.097.113-.164l.11-.055s.074.012.101-.007c.027-.02.031-.04.031-.04s.055-.015.078-.046a.2.2 0 0 0 .008-.125c-.015-.04-.035-.047-.015-.067s.039-.062.039-.093l.004-.04s.043-.015.039-.078c0-.07-.035-.093-.055-.101l-.035-.004s0-.04-.035-.09a.4.4 0 0 0-.055-.078c-.004 0 .023-.016.012-.063a.12.12 0 0 0-.075-.078c-.027-.008-.058 0-.058 0l-.145-.082-.058-.031s0-.04-.016-.062a.12.12 0 0 0-.078-.036c-.02 0-.039.012-.039.012l-.234-.055c-.07-.007-.075-.015-.075-.015s-.148-.07-.203-.078l-.078-.02s.063-.07.067-.16a.24.24 0 0 0-.11-.195l-.062-.032V3.68l.109.011.008-.18-.106.012.016-.105h-.227l.016.105-.11-.007.012.175.118-.015-.016.07s-.04.008-.078.035a.2.2 0 0 0-.102.184c0 .09.051.16.051.16l-.07.016a1.5 1.5 0 0 0-.207.082s0 .007-.07.015l-.235.055s-.023-.012-.039-.012-.063.012-.078.035c-.016.02-.02.063-.02.063l-.054.031-.145.082s-.031-.008-.062 0a.14.14 0 0 0-.07.078c-.012.047.011.067.011.067s-.023.02-.059.074a.2.2 0 0 0-.035.09l-.031.004c-.023.008-.059.03-.059.101 0 .067.04.078.04.078v.04c.003.03.023.078.042.093.02.02 0 .028-.011.067a.15.15 0 0 0 .008.12c.02.04.078.055.078.055s0 .012.027.036.102.007.102.007l.113.055c.125.066.113.16.113.16s-.078.059-.07.09 0 .043.035.059l.074.027.04.137a.8.8 0 0 1-.212.11c-.125.034-.25.007-.25.007a.8.8 0 0 0-.543-.117c-.148.027-.21.199-.21.199s-.04-.016-.157-.031a.29.29 0 0 0-.277.117.4.4 0 0 0-.04.32c.032.11.063.035.102-.012.04-.046.11-.097.227-.062a.8.8 0 0 1 .242.164s-.02-.012-.152-.031a.8.8 0 0 0-.36.047.27.27 0 0 1-.261-.032c-.094-.062-.094-.187-.094-.238 0-.047-.05-.027-.07 0-.02.031-.118.184-.04.352.079.164.247.195.407.183.156-.008.363-.078.363-.078s0 .024.11.129c.093.094.222.14.351.14.105 0 .195-.062.195-.062a.44.44 0 0 1 .117.258c.008.059.004.11.055.11.055 0 .137-.09.137-.09l.015.09q.006.147-.023.288c-.016.047-.055.102 0 .11.05.011.106-.008.137-.012 0 .129-.028.211-.102.309l-.015.023-.086-.039-.57.68s.206.234.195.773l-.04-.008c-.046-.007-.07-.039-.117-.086-.05-.046-.054-.12-.101-.148s-.188-.02-.293-.023c-.106-.004-.235-.04-.258-.149-.023-.113.004-.16.145-.254.14-.09.246-.199.25-.394.004-.2-.118-.34-.352-.61-.234-.265-.336-.511-.367-.574-.031-.066-.047-.043-.07.008l-.06.129s-.077-.047-.265-.395a2.5 2.5 0 0 1-.273-.765c-.016-.098-.055-.051-.078-.024-.156-.441-.149-.988-.192-1.414 0 0-.152.152-.242.45-.078.269-.078.59-.05.87.023.266.078.422.105.493.039.109-.02.043-.02.043s-.133-.23-.222-.676c-.09-.442-.078-.75-.078-.75s-.055.039-.118.164c-.101.266-.136.55-.101.832.023.379.117.746.273 1.09.086.156.008.062-.023.02a2.7 2.7 0 0 1-.262-.509 8 8 0 0 1-.226-.726c-.008-.074-.04-.024-.067.035a1.2 1.2 0 0 0-.086.402c.012.461.184.903.477 1.25.086.114.02.059-.02.024-.039-.031 0 .004-.176-.184a4 4 0 0 1-.43-.715c-.034-.066-.062.004-.066.047-.004.04-.027.254.106.625.133.367.469.66.644.778.176.125.051.062-.039.011a3 3 0 0 1-.379-.273c-.113-.094-.308-.34-.363-.383s-.066-.055-.066.117c.004.176.152.461.34.653.187.187.43.277.503.304.075.028.012.016-.066-.004a1.6 1.6 0 0 1-.352-.144 4 4 0 0 1-.418-.3c-.07-.056-.062.023-.039.12.02.094.075.274.344.492.227.168.485.293.758.364.113.035.035.035.035.035l-.265-.059a2.6 2.6 0 0 1-.653-.289c-.09-.058-.105-.078-.094.043.043.211.168.395.348.508.211.105.438.168.672.191.098.004.07.016.027.02a2 2 0 0 1-.75-.125l-.02-.082c-.007-.047-.034-.04-.046-.031a.4.4 0 0 1-.078.043c-.051.023-.051-.004-.055-.02l-.012-.117c-.004-.031-.015-.04-.043-.024l-.183.079c-.04.015 0 .05.02.09l.058.105-.145.039c-.03.008-.023.031-.011.055l.074.183c.012.031.043.012.043.012l.105-.066.04.148s-.051.012-.106.047c-.05.039-.04.09.027.105.067.02.14.059.223.211.086.156.105.434.156.871.055.438.328.657.367.684.04.031.016.055.016.055s-.04.054-.02.136a.2.2 0 0 0 .125.153c.04.011.028.05.028.05s-.02.09 0 .266a.83.83 0 0 0 .195.395c.04.03.04.046.04.062-.009.012-.036 0-.079.04a.5.5 0 0 0-.133.144c-.031.062-.02.097-.008.175.008.086.13.16.13.16s-.024.005-.028.067.039.129.094.176c.05.039.156.062.156.062l.012.086c.008.04.074.078.117.102s.129.012.164-.008c.035-.016.059 0 .078.04.024.038.016.17.016.226 0 .058-.032.113-.016.14s.07.008.125-.02c.05-.03.063-.007.11.02a.35.35 0 0 0 .136.055c.02 0 .012-.05.012-.09s.008-.137.027-.152c.008-.008.09-.012.149-.04.027-.011.066-.023.066-.05.004-.027-.039-.027-.125-.074s-.105-.07-.164-.114c-.055-.039-.027-.05-.027-.07s.027-.035.039-.055c.008-.023 0-.07 0-.07l.07-.074.078-.09c.031-.023.078-.14.106-.176.03-.043.097-.082.14-.136.121-.133.274-.235.442-.301 0 0-.004.101.039.156.043.05.101-.043.293-.18.191-.136.336-.187.336-.187l.093.133c.051.062.098-.004.332-.336.188-.258.43-.5.528-.586l.05.023-.015.04c-.02.07-.055.116-.102.21-.043.094-.117.117-.195.242a.66.66 0 0 0-.102.352c-.007.129.067.156.067.156s-.117.121-.156.207c-.04.086-.051.266-.051.266s-.02.008-.063.098-.12.101-.234.218c-.117.117-.242.164-.3.2-.06.039-.04.074-.028.117s.098.093.195.129c.09.035.125.02.188.02.066-.005.015.05-.012.077-.027.028-.063.121-.059.227.004.11.086.082.184.066a1 1 0 0 0 .207-.066l-.008.035c-.012.027-.015.05-.015.133 0 .078.011.129.039.144.02.028.07-.023.105-.035.035-.008.094-.043.18-.062s.117-.059.117-.059-.02.027-.024.086a.7.7 0 0 0 .008.207q.03.098.114.168c.058.055.07.031.117-.043.039-.066.129-.152.129-.152l.066.218c.059.192.254.356.254.356s.195-.164.254-.356l.062-.218s.09.086.133.156c.043.074.059.094.117.043a.4.4 0 0 0 .11-.172 1 1 0 0 0 .011-.207c-.011-.059-.023-.086-.027-.086-.008 0 .031.04.117.059.086.02.149.054.184.062s.082.063.105.043q.041-.035.04-.152c0-.082-.004-.106-.016-.133l-.012-.035s.113.05.211.066.176.04.18-.066a.4.4 0 0 0-.055-.227c-.027-.027-.078-.082-.016-.082.067.004.098.02.196-.015.09-.04.172-.082.187-.13.016-.046.035-.077-.027-.117-.059-.035-.184-.082-.297-.199-.117-.117-.195-.129-.234-.219-.043-.09-.063-.097-.063-.097s-.02-.18-.055-.266c-.039-.086-.156-.207-.156-.207s.078-.027.067-.156a.67.67 0 0 0-.098-.352c-.082-.125-.156-.148-.195-.242-.051-.097-.086-.14-.106-.207l-.015-.039.07-.031c.094.086.34.324.527.586.235.332.281.398.332.332l.094-.13s.145.052.336.188c.195.137.25.227.293.176a.14.14 0 0 0 .031-.105c.156.047.313.101.461.168.168.07.184.11.316.215.133.101.32.097.5.039q.429-.134.844-.297c.192-.082.328-.16.352-.196a.8.8 0 0 0 .039-.187c0-.04-.04-.094-.055-.106-.012-.011-.012-.035-.004-.062 0-.024-.011-.102-.039-.133-.031-.031-.027-.043-.023-.137.008-.199-.133-.453-.328-.53 0 0-.008-.024-.024-.04l-.039-.023v-.141q0-.025.024-.016c.011.008.035.04.066.047q.046.005.059-.054a1 1 0 0 1 .046-.145c.016-.035-.003-.039-.02-.047l-.085-.015q-.031-.007-.016-.02l.04-.082c.03-.04.003-.043-.024-.055l-.191-.05c-.036-.008-.04.023-.04.039v.101c0 .027-.019.016-.035.012l-.066-.047q-.04-.019-.05.027l-.052.172c-.007.035-.003.059.008.063.012.008.078 0 .117 0s.012.023.012.023l-.05.094a.07.07 0 0 1-.071.031h-.078s-.207.008-.36.117c-.152.11-.195.211-.218.266-.024.055-.051.043-.074.062-.024.02-.09.094-.09.137s.015.067-.051.11-.117.234-.031.328c.086.093.125.199.156.246.023.047 0 .066-.027.066-.028 0-.07-.039-.114-.07l-.332-.258c-.09-.066-.023-.059-.023-.059s.023 0 .074-.02q.077-.04.008-.065a.8.8 0 0 1-.18-.106c-.027-.027-.039-.055.012-.082.05-.027.164-.102.078-.125q-.146-.04-.285-.074c-.086-.024-.094-.047-.094-.047l.059-.082s.043-.066-.008-.074-.188-.024-.305-.082a.75.75 0 0 1-.441-.493v-.003c.047.085.148.253.305.257.214.008.238-.062.19-.132-.05-.07-.105-.133-.116-.157-.016-.023-.02-.05.039.008.054.05.156.23.48.211.32-.023.32-.086.32-.101 0-.063-.066-.075-.105-.114-.02-.023-.031-.05.035-.027a.8.8 0 0 0 .442.012c.082-.024.312-.121.332-.239 0 0-.145-.008-.246-.05-.098-.043-.157-.082-.051-.06.105.02.312.067.496 0 .105-.034.242-.116.242-.28 0 0-.195-.04-.27-.07q-.104-.042-.097-.047c.008-.008.285.09.539-.04.254-.132.27-.312.27-.355-.004-.04-.004-.055-.008-.055-.207.051-.422.063-.637.043 0 0 .488-.015.734-.168.246-.148.262-.453.262-.453s-.277.102-.453.121a2 2 0 0 1-.324.016c-.043-.004-.07-.016.027-.02.234-.02.461-.086.672-.191a.8.8 0 0 0 .348-.504c.011-.125 0-.105-.094-.043-.09.059-.43.234-.652.285l-.266.059s-.086-.004.027-.04Zm-8.797.57-.098.059-.05-.11q-.011-.03.008-.031l.09-.016h.011c.012.028.024.063.043.094Zm3 1.781a.77.77 0 0 1-.344.278c-.117.058-.246.074-.3.082-.055.008-.008.078-.008.078l.055.078s-.008.023-.094.05c-.086.024-.196.04-.281.071-.086.027.023.098.078.125q.063.041.007.082a.6.6 0 0 1-.18.106q-.068.024.009.066c.054.02.195.047.195.047l-.09.07a.76.76 0 0 1-.34.121 4 4 0 0 1-.457 0l-.226-.011-.02-.172a.9.9 0 0 0-.117-.309l-.145-.2.008-.058q.011-.04-.02-.129c-.023-.062-.14-.152-.14-.152l-.008-.125c0-.063-.039-.305-.078-.422-.039-.113-.223-.414-.305-.555a1.54 1.54 0 0 1-.168-.78l.02-.052q.056.077.137.125c.246.153.734.168.734.168s-.055.016-.23.016-.407-.059-.407-.059-.008.016-.008.059.012.219.27.355c.254.125.54.04.54.04s-.024.019-.099.042c-.074.024-.273.07-.273.07 0 .16.14.247.246.286.184.062.39.016.496-.004.11-.023.047.012-.05.059-.102.043-.247.05-.247.05.024.118.25.215.336.235.215.05.375.02.438-.008.066-.023.054.004.035.027-.04.04-.106.051-.106.114 0 .015 0 .078.32.101.321.02.43-.156.485-.21.055-.06.05-.032.04-.005-.013.024-.071.082-.118.157-.05.066-.027.136.188.128.156 0 .257-.175.304-.261v.004l.012.011-.094.207Zm2.594-7.05-.043-.082s.117.058.195.14c.07.078.067.125.078.164a.5.5 0 0 1-.011.188q-.019.099.004.133.022.041.027.042l-.106.032c-.05.023-.117.039-.156.008q-.053-.048-.02-.07c.024-.024.11-.052.118-.2a.8.8 0 0 0-.086-.355m-.664.406c.031-.07.039-.137.02-.285-.016-.121-.04-.227-.047-.356 0 0 .09.016.218.133.13.121.156.242.156.3 0 .063-.027.137-.035.192 0 .059.016.11.016.11s-.043.02-.086.054c-.043.028-.074.047-.137.04-.066 0-.105-.028-.144-.051l-.059-.024s.074-.043.102-.117Zm-.625-.508a.56.56 0 0 1 .219-.137c-.004.133-.028.239-.047.356-.02.152-.012.218.02.289.027.07.1.113.1.113s-.023 0-.062.024a.26.26 0 0 1-.14.054.2.2 0 0 1-.137-.043l-.09-.054s.02-.051.016-.106-.04-.129-.04-.191a.47.47 0 0 1 .16-.305m-.46.727c-.04.03-.106.015-.156-.008l-.102-.032s.012-.011.024-.043q.022-.034.003-.132a.7.7 0 0 1-.011-.188c.008-.039.011-.086.082-.164.074-.082.195-.144.195-.144l-.047.086a.73.73 0 0 0-.086.355c.012.145.098.176.117.2q.036.022-.023.07Zm1.71 1.253c-.124.067-.194.051-.194.106.007.055.12.094.12.094s-.117.125-.206.18c-.09.058-.196.097-.196.097s-.039.008-.015.063a.18.18 0 0 0 .086.113l.043.02s-.157.171-.227.226a.6.6 0 0 1-.168.098c-.055.023-.027.12-.016.16.016.039.063.097.094.105s.04.031 0 .09c-.027.043-.117.156-.156.219H12.5l-.164-.219c-.035-.059-.024-.082 0-.09.031-.008.078-.062.094-.105.011-.04.039-.137-.016-.16a.6.6 0 0 1-.164-.098 3 3 0 0 1-.227-.227l.04-.02a.2.2 0 0 0 .09-.112c.019-.055-.016-.063-.016-.063s-.106-.043-.196-.098a1.2 1.2 0 0 1-.21-.18s.117-.038.117-.093c.007-.055-.063-.04-.192-.106-.125-.07-.168-.164-.168-.164s.149-.05.223-.195a.3.3 0 0 0 .027-.144h.004c.235.082.512.113.758.113.254 0 .512-.035.754-.113h.008a.3.3 0 0 0 .027.144.43.43 0 0 0 .219.195s-.04.094-.168.16Zm0 0" style="stroke:none;fill-rule:nonzero;fill:#b96b29;fill-opacity:1"/><path d="M14.11 9.414c0-.406.183-.664.183-.664l-.496-.574c-.477.183-.91.195-1.297 0-.387.195-.82.183-1.293 0l-.504.574s.184.258.184.66c0 .399-.078.703-.121.899-.047.195-.082.558.02.816.097.32.339.57.652.676.44.187.675.289.828.418.156.129.23.234.23.234s.078-.105.234-.238c.153-.125.383-.227.82-.41a1.02 1.02 0 0 0 .657-.68c.105-.258.066-.625.02-.816-.043-.2-.118-.496-.118-.895" style="stroke:none;fill-rule:nonzero;fill:#d4af3a;fill-opacity:1"/><path d="M13.953 9.578c-.062-.387.156-.723.156-.723l-.425-.507c-.329.187-.786.164-1.184-.024-.395.188-.852.211-1.18.024l-.43.507s.223.336.157.723c-.059.387-.195.992-.16 1.238.035.25.207.54.383.692.19.148.406.262.632.344.223.09.426.226.598.394 0 0 .059-.059.145-.125s.273-.2.457-.27c.226-.081.437-.199.628-.343.18-.153.352-.442.387-.692.031-.246-.101-.855-.164-1.242Zm0 0" style="stroke:none;fill-rule:nonzero;fill:#b96b29;fill-opacity:1"/><path d="M13.91 9.621c-.031-.258.012-.52.125-.75l-.383-.437c-.328.175-.722.132-1.152-.024-.43.156-.824.2-1.148.027l-.387.438s.183.332.125.746c-.059.418-.156.887-.14 1.164l.007.059h.352s.02-.028.058-.043a.2.2 0 0 0 .051-.028s.008-.07.047-.085c.039-.012.066-.02.078-.016q.029 0 .05-.024c.02-.023.079-.07.102-.144.024-.07.04-.102.04-.149 0-.046.015-.12.015-.12s-.008-.024-.043-.012c-.035.011-.039-.024-.047-.059 0-.035 0-.105.02-.14l.027-.044-.016-.062s-.222.05-.261-.129c-.04-.18-.043-.258-.051-.277q.001-.029-.04-.028c-.03 0-.093-.015-.14-.105-.039-.094-.047-.133-.031-.168s.035-.02.039-.012c.012.012.07.098.094.074.023-.023.011-.023-.024-.09-.03-.07-.02-.09-.015-.124l-.012-.102q.005-.03.04-.023.033.016.05.039c.008.007.012.023.031.015.02-.011.008-.074.008-.093.004-.028.02-.032.05-.02.028.012.048.04.048.07q0 .042.011.043c.012.004.024-.035.028-.054 0-.024.015-.059.035-.028q.03.044.02.11c-.008.046.007.02-.008.097-.016.078-.024.11-.02.164s0 .094.031.16c.028.07.051.149.102.153h.066s.059-.11.102-.137A.6.6 0 0 1 12 9.418q.06-.01.059-.031c0-.008-.012-.012-.067-.02s-.097-.023-.101-.066c0-.04.011-.078-.024-.078-.039 0-.125-.032-.156-.086-.031-.055-.024-.07-.02-.11 0-.03.043-.093.07-.035.028.067.044.074.067.082.02.016.05.02.04-.023a.16.16 0 0 1-.024-.098q.006-.04.047-.047l.132-.039.04-.008s.003-.027.054-.039a.3.3 0 0 1 .117-.02q.042.008.106-.015a.24.24 0 0 1 .113-.031q.04.006.074.035c.016.016.02.031.016.055q-.008.03.031.031.051 0 .09.012c.031.011.07.027.047.058s-.027.067-.047.067q-.019.005-.02.027-.018.018.004.035c.02.012.02.024.047.047.028.024.063.05.024.09-.04.039-.106.07-.106.07s-.039.02.004.043c.043.024.067.082.082.094l.047.031c.012.004.008.04.008.04l-.059.03a.2.2 0 0 1-.097.032c-.051.004-.051 0-.04.027q.031.053.044.082l.011.047s.055.012.102.012l.168-.008c.101-.012.133-.016.23-.004.098.008.114.008.137.016l.055.023s.136 0 .215-.02c.078-.019.093-.066.082-.097-.012-.027-.008-.063-.141-.078-.137-.024-.188-.016-.293-.035s-.273-.075-.3-.211c-.028-.133.077-.188.128-.215l.227-.094a.6.6 0 0 1 .254-.027c.105.015.164.039.207.02.039-.028.074-.009.066.03-.008.043-.05.118-.168.153a.7.7 0 0 1-.332.02c-.074-.02-.133-.051-.18-.036-.047.016-.097.074-.05.145.05.07.308.094.375.097.07.008.324-.007.398.118s.012.273-.07.304a1 1 0 0 1-.223.059l-.066.012s.03.07.03.097c0 .028-.003.078.028.102a.2.2 0 0 0 .13.027c.054-.004.116.031.12.078q.012.077.024.22c.007.097 0 .179 0 .179s0 .039-.016.074c-.012.039-.078.176-.078.176h.371l.008-.059c.015-.281-.078-.75-.14-1.168Zm0 0" style="stroke:none;fill-rule:nonzero;fill:#1d5e91;fill-opacity:1"/><path d="M11 11.027c.082.239.242.438.453.567.32.199.461.172.762.367.3.2.281.23.285.23s-.016-.03.285-.23c.3-.195.442-.172.762-.367a1.07 1.07 0 0 0 .453-.567Zm0 0" style="stroke:none;fill-rule:nonzero;fill:#6d8c3e;fill-opacity:1"/><path d="M11.262 9.39c.035.04.058.047.113.04q.07.006.074.078c.008.039.008.137.047.23.04.09.164.098.164.098a.5.5 0 0 1 .04-.152c0-.008.019-.051-.028-.051s-.043-.02-.07-.063a.8.8 0 0 1-.094-.238.7.7 0 0 1 .023-.223q.024-.065 0-.078h-.039s.008.043-.004.043c-.011 0-.023-.011-.031-.043-.012-.027-.02-.023-.039-.023-.02 0-.02.02-.004.039.012.02.004.055.004.055l-.055-.04c-.02-.011-.054.008-.058.032a.14.14 0 0 0 .047.105c.035.028.039.086.023.117-.008.024-.059.02-.07.008a.05.05 0 0 0-.047 0c-.016.02-.031.031.004.067m-.02-.102-.027-.023-.02-.028-.004.028c0 .02.024.046.024.046Zm.078-.254q.029 0 .016-.027-.02-.034-.04-.04-.016-.004-.023-.003l.02.05q0 .034.023.02Zm.094-.078c-.004.023.004.027.016.02q.017-.011.011-.04l-.023-.027-.012-.008s.008.04.004.059Zm.133.023-.004-.039s0 .024-.012.04c-.008.011-.004.007 0 .019.012.008.016.004.016-.02m.21.93c.028.067.095-.035.157-.113.063-.078.059-.016.05.047a.3.3 0 0 0 .04.18c.027.039.047.015.059-.016.007-.028.019-.098.039-.13.02-.026.039 0 .039.024.004.028.039.09.066.125.031.04.047-.011.059-.054l.027-.141c.008-.023.039 0 .039 0l.063.059c.039.039.043-.024.046-.055s-.004-.098.008-.11.047.016.098.04c.05.023.05-.024.047-.051a.3.3 0 0 0-.078-.137q-.063-.063-.04-.098c.016-.02.067 0 .102-.003l.07-.012c.028-.008.028-.031.028-.031s-.02-.032-.055-.063c-.035-.035-.055-.059-.098-.066s-.101 0-.101 0l-.008-.016q-.006-.012-.023 0l-.047.043q-.023.024-.04.023c-.007-.011.012-.027.012-.027s.02-.015.04-.055q.035-.062.011-.101c-.015-.016-.058 0-.086 0-.023 0-.039.008-.039-.008 0-.012.024-.004.055-.008s.05-.039.058-.074c.008-.039.02-.023.04-.008.02.016.03.016.039 0L12.473 9q.035-.053.011-.102c-.023-.03-.078-.027-.101-.007q-.04.023-.043.082c-.008.047-.02.02-.02.007 0-.015-.015-.039-.008-.058q.006-.031 0-.04c-.007-.007-.003-.038-.046-.042a.3.3 0 0 0-.137.012c-.04.007-.035.046-.035.046l-.067.004a1 1 0 0 0-.109.028q-.048.008-.043.027l.004.043s.027 0 .039.012q.017.017-.008.027-.023.004-.023.031 0 .029.027.028c.02-.004.047 0 .09.015.062.02.05.055.047.078 0 .02-.059.047-.09.047s-.04.004-.04.024.04.015.04.015l.101.012c.067.008.079.024.11.047.031.027.008.039-.008.043q-.03.022-.059.039c-.02.008-.039.02-.058.027-.02.004-.07 0-.164.04-.094.038-.13.16-.13.16l.056-.028q.07-.03.148-.078c.047-.027.047.016.023.059-.023.043.024.035.04.023l.078-.05c.047-.024.03.015.03.015s-.015.027-.019.101c-.004.067.067 0 .098-.042.035-.043.047 0 .023.05-.023.051-.07.09-.097.09-.028 0-.047-.031-.051-.047 0-.015.012-.066-.004-.078-.015-.015-.066 0-.101.024-.036.023-.04.004-.051-.016-.008-.016.011-.027.004-.043q-.017-.005-.04.008l-.109.062c-.066.035-.062.051-.062.098s.011.059.039.117" style="stroke:none;fill-rule:nonzero;fill:#d4af3a;fill-opacity:1"/><path d="m12.371 8.875.04-.02.058-.011q.034-.01.015-.031c0-.016-.02-.02-.054-.02-.035 0-.059.02-.078.027l-.043.016.015.023q.03.029.047.016m.149.145.03-.008.052-.024q.03-.002.046-.039c.016-.031-.015-.031-.058-.039q-.06-.011-.067.02c-.003.015 0 .03-.02.062-.019.031 0 .028.017.028m-.012.043c-.04 0-.09.058-.106.07q-.015.018-.007.023l.015.047c.008.027.008.067.008.067h.031a.1.1 0 0 0 .063-.028.16.16 0 0 1 .07-.027.3.3 0 0 0 .086-.031c.035-.02-.02-.055-.059-.086a.14.14 0 0 0-.101-.04Zm-.547.14c.031-.004.047-.02.047-.039q0-.047-.059-.035c-.101.012-.199-.027-.219-.129 0 0-.03.066.032.137.062.07.168.07.199.066m-.348 1.621.02.02h.156q.034-.017.027-.051-.001-.024.04-.184c.019-.105.058-.18.074-.222s-.016-.055-.028-.078l-.03-.102c-.005-.023-.04-.02-.063-.02-.02 0-.024.036-.028.07a3 3 0 0 1-.031.2.6.6 0 0 1-.129.211q-.04.036-.062.031c-.016 0-.055 0-.07.012a.07.07 0 0 0-.04.062c0 .024.035.04.035.04l.04-.032a.13.13 0 0 1 .058-.023q.036 0 .02.015c-.008.012-.004.016.011.047Zm-.234-.008q-.023.005-.027.028h.101l-.012-.031q-.024-.012-.066 0Zm0 0" style="stroke:none;fill-rule:nonzero;fill:#d4af3a;fill-opacity:1"/><path d="m11.516 10.813-.04.03h.114q.005-.016-.008-.038c-.027-.02-.05 0-.066.008m.945-.047q-.017 0-.04.023a.1.1 0 0 0-.026.05v.005h.05v-.004q-.001-.024.028-.047c.02-.02 0-.027-.012-.027m.09.05q.001-.022-.016-.027-.017.01-.039.031l-.02.024h.067Zm0 0" style="stroke:none;fill-rule:nonzero;fill:#d4af3a;fill-opacity:1"/><path d="M12.98 10.309c.032-.024.028-.032.028-.059q0-.033-.012-.043a.3.3 0 0 0-.11-.031.4.4 0 0 0-.163.031c-.032.02-.051.11-.051.152q.001.053.02.047c.019-.004.03-.031.03-.031l.071.098c.027.039.016.054 0 .09-.008.03-.055.113-.086.128-.039.02-.062 0-.102-.004q-.06-.006-.09.028c-.03.035 0 .043.016.043q.018-.002.047.02c.012.011.004.046 0 .066h.203c.035-.02.059-.067.067-.094a.3.3 0 0 1 .078-.086c.02-.02.02-.031.02-.078 0-.05-.008-.07-.024-.102-.02-.03-.031-.078-.024-.101 0-.028.047-.055.079-.078Zm0 0" style="stroke:none;fill-rule:nonzero;fill:#d4af3a;fill-opacity:1"/><path d="M12.645 9.793c.023.035.011.039-.016.047q-.054.013-.11.008c-.042-.004-.042 0-.042.023q-.001.058-.032.11c-.027.039-.062.023-.078.007q-.034-.021-.039.016l-.047.082c-.02.039-.035.039-.05.035-.016-.004-.028-.027-.043-.027q-.023-.007-.063-.07c-.023-.036-.035.003-.05.039q-.018.052-.06.046c-.027 0-.062-.058-.078-.09-.015-.03-.027-.062-.05-.062s-.067.055-.094.066q-.04.023-.05-.007-.02-.018-.044.046-.017.072.024.09c.023.012.066-.02.097-.039.032-.02.043-.02.078-.02s.028.055.04.13c.015.082.058.09.058.09s.016.011.05-.043c.036-.06.04-.122.071-.122s.04.008.07.055c.032.05.06.082.079.047.02-.04.035-.086.058-.105.024-.02.04-.024.016.011s-.031.067.015.055c.047-.012.223-.086.297-.102l.184-.02.156-.01c.04 0 .04 0 .043-.028 0-.028-.02-.02-.09-.02a.7.7 0 0 0-.168.016c-.05.008-.074.004-.062-.008.004-.012.027-.02.078-.027l.234-.02c.063 0 .04.02.04.059-.008.039 0 .101.007.136 0 .04.004.051.04.11.034.055.144.086.175.101.035.02.027 0 .027-.03 0-.032.028-.032.055-.013s.078.028.113.04q.043.006.04.03 0 .035.007.095c0 .043 0 .05-.015.074l-.079.09s-.03 0-.09.015c-.062.012-.081.043-.09.067-.003.027.013.035.016.043v.035h.016a.1.1 0 0 1 .02-.035c.023-.028.078-.036.113-.02.02.02.027.035.02.055h.14l.078-.156a.2.2 0 0 0 .024-.102c0-.05.007-.23 0-.238-.008-.008 0-.043 0-.094-.004-.055 0-.094-.094-.102s-.125-.047-.156-.078c-.032-.031-.024-.105-.047-.199-.024-.09-.09-.102-.196-.121a1 1 0 0 0-.273-.02c-.086.008-.188.02-.242.016-.059-.008-.047.008-.028.04Zm0 0" style="stroke:none;fill-rule:nonzero;fill:#d4af3a;fill-opacity:1"/><path d="m13.176 10.82-.02.024h.094l-.008-.031q-.024-.017-.066.007m.172-.008-.032.032h.098v-.016c-.004-.015-.035-.031-.066-.015m-2.383.066.02.09h3.03l.024-.09h-3.078Zm2.043-1.469c.094.063.398.067.543.094.14.031.133.14.09.2-.047.058-.246.066-.282.07a.2.2 0 0 1 .047.054l.082-.008a.4.4 0 0 0 .239-.078c.074-.062.07-.16.003-.23-.062-.063-.168-.07-.273-.082s-.195-.02-.312-.04c-.122-.023-.184-.074-.184-.144 0-.105.066-.11.113-.121.047-.012.121-.035.192-.008a.6.6 0 0 0 .277.012c.133-.02.164-.113.164-.113s-.016.007-.086.007c-.066 0-.117-.027-.234-.027-.125 0-.168.04-.227.066-.058.02-.21.036-.254.133-.047.098.004.145.102.215" style="stroke:none;fill-rule:nonzero;fill:#d4af3a;fill-opacity:1"/><path d="M12.27 8.945c0-.03-.028-.054-.06-.054-.03 0-.058.023-.058.054 0 .032.028.055.059.055s.059-.023.059-.055M13.438 9.04c-.079-.009-.176.019-.176.019s.02.015.047.011q.034 0 .144.012c.074.012.125-.023.125-.023Zm0 0" style="stroke:none;fill-rule:nonzero;fill:#b96b29;fill-opacity:1"/><path d="M12.719 10.473c-.02-.032-.024-.028-.047-.008-.024.02-.04-.047-.043-.086l.016-.164s-.102.02-.157.043l-.156.035c-.043.008-.074.016-.094.016-.023-.008-.074-.008-.113-.008s-.04.008-.078.047a.3.3 0 0 0-.078.132.8.8 0 0 0-.055.239l-.027.125h.476l.02-.051a.12.12 0 0 1 .055-.055c.019-.008.039-.008.046-.031a.1.1 0 0 1 .055-.047c.031-.012.066-.008.11.004.039.012.054-.016.066-.031.008-.016.02-.04.039-.063.02-.027 0-.054 0-.054l-.04-.043Zm.761.011c-.003-.027 0-.03-.02-.035a.13.13 0 0 1-.065-.02c-.024-.007-.02.055-.02.055s-.059.008-.121 0c-.063-.007-.137-.066-.164-.086l-.055-.058-.039.027q-.029.024-.039.094c0 .039.05.09.055.129s-.047.12-.07.156a.5.5 0 0 0-.047.098h.23l.023-.043a.1.1 0 0 1 .063-.028l.008-.03q.013-.03.09-.071a.6.6 0 0 1 .129-.024s.027-.023.046-.054c.02-.031 0-.082 0-.11Zm0 0" style="stroke:none;fill-rule:nonzero;fill:#1d5e91;fill-opacity:1"/><path d="M11.57 13.047c.043.015.125-.016.164-.063.04-.046.055-.129.082-.171l.051-.075s-.008.07-.047.168a.6.6 0 0 0-.03.27c.015.11.085.125.124.11q.053-.02.117-.13l.04-.078c.023-.05.046-.137.058-.133.027.004.012.063 0 .102-.02.078-.059.2-.063.277 0 .067.008.2.079.207.07.004.109-.062.148-.207.039-.148.047-.199.066-.199s.016.105.016.148q0 .153.063.293c.035.032.062.028.062.028s.027.004.063-.028c.035-.03.062-.25.062-.293 0-.039 0-.144.02-.144s.023.047.062.195c.04.145.078.211.148.207.075-.008.079-.14.079-.21 0-.071-.043-.192-.063-.274q-.025-.122.063.031l.05.098q.063.098.102.11c.039.015.11 0 .125-.11.016-.106-.063-.414-.063-.414l.04.05c.027.043.039.122.078.172.039.051.12.079.164.067q.058-.025.015-.242c-.043-.22-.156-.227-.25-.34a1.3 1.3 0 0 1-.156-.324 1.1 1.1 0 0 0-.309.222l-.23.246s-.04-.05-.227-.246a1 1 0 0 0-.312-.222 1.4 1.4 0 0 1-.172.312c-.039.05-.098.09-.14.14a.54.54 0 0 0-.094.212c-.032.144-.024.226.02.238Zm0 0" style="stroke:none;fill-rule:nonzero;fill:#d4af3a;fill-opacity:1"/><path d="M11.563 13.54a.6.6 0 0 0 .085-.083c0-.004.04-.031.032.035a1 1 0 0 0-.02.254c.012.055.02.11.09.066.07-.042.09-.07.121-.105s.07-.05.063.004c-.012.055-.036.144-.024.254q.024.176.14.035.08-.105.137-.234c.02-.047.063-.086.063 0 0 .191.043.468.25.539.207-.07.25-.348.25-.54 0-.085.043-.046.066 0 .04.087.082.165.137.235q.112.14.137-.035c.012-.11-.012-.2-.02-.254-.008-.055.024-.04.059-.004.035.035.05.059.117.105.074.04.078-.011.094-.066.015-.055-.008-.187-.02-.254-.011-.062.032-.031.032-.031l.082.082c.039.027.086.043.132.047 0 0 .036-.2-.046-.317-.079-.12-.114-.16-.114-.16s-.043 0-.078-.015a.2.2 0 0 1-.07-.04v.11l.12.125c.024.031.071.078 0 .031l-.12-.094s-.016.098-.043.125c-.027.024-.07.028-.086.02l-.016-.004-.008.04s.063.12.07.163q.017.07-.03-.02c-.028-.062-.086-.14-.11-.179-.023-.043-.062-.07-.058-.02a.5.5 0 0 1-.04.192q-.022.047-.027.047l.043.156c.004.027 0 .063-.02.023l-.081-.164s-.082 0-.106-.027a1 1 0 0 1-.062-.117s-.032.12-.059.16-.094.07-.094.07l-.008.239q-.005.054-.023.05-.019-.006-.02-.05l-.011-.239s-.063-.039-.09-.074c-.027-.039-.063-.156-.063-.156s-.039.094-.058.12c-.024.02-.106.024-.106.024s-.062.133-.086.164c-.02.04-.023.004-.02-.02l.044-.16s-.012-.011-.027-.046a.6.6 0 0 1-.04-.192c.004-.05-.03-.023-.058.02-.027.043-.078.117-.11.18q-.044.088-.03.02c.007-.048.07-.165.07-.165l-.004-.039-.02.004q-.031.017-.086-.02c-.027-.023-.039-.125-.039-.125l-.125.094c-.07.047-.023 0 0-.031l.125-.125v-.11s-.039.028-.07.04c-.04.015-.082.015-.082.015l-.114.16c-.078.118-.046.317-.046.317s.078 0 .132-.05Zm1.007 1.323-.07-.097s-.016.03-.07.093a2 2 0 0 1-.176.16s.012.165.07.254a.7.7 0 0 0 .176.2.6.6 0 0 0 .176-.2c.062-.09.074-.253.074-.253s-.125-.098-.18-.16Zm0 0" style="stroke:none;fill-rule:nonzero;fill:#d4af3a;fill-opacity:1"/><path d="M12.477 15.066c0 .04 0 .133.023.133s.02-.094.023-.133l.008-.132h-.062s0 .093.008.132" style="stroke:none;fill-rule:nonzero;fill:#b96b29;fill-opacity:1"/><path d="M12.5 5.988a2 2 0 0 1-.625-.078l-.148.031c.246.094.507.137.773.13.344-.005.54-.04.773-.13l-.156-.03c-.199.058-.41.085-.617.077m.8-.183a.8.8 0 0 0-.144-.102c-.023-.016-.004-.05 0-.062s.117-.047.18-.067.055-.027.055-.027-.04-.043-.266-.07c-.227-.028-.625-.02-.625-.02s-.398-.008-.625.02c-.227.03-.266.07-.266.07s-.007.012.055.027a.8.8 0 0 1 .18.063c.004.015.023.05 0 .062l-.145.106c-.02.02-.02.03.008.039.04.008.027 0 .105-.016a3.5 3.5 0 0 1 1.376 0 .4.4 0 0 0 .105.016q.038-.011.008-.04" style="stroke:none;fill-rule:nonzero;fill:#d4af3a;fill-opacity:1"/><path d="M13.043 5.898c-.156-.015-.254-.039-.543-.035s-.39.02-.543.04c.098.038.258.058.543.058s.445-.02.543-.059Zm-.586-2.277-.004.113.117-.007-.011-.11.129.02.003-.102-.132.012.023-.113h-.148l.027.113-.129-.012v.102Zm.254.281h-.156V3.77l-.051-.008-.04.004v.136h-.167a.2.2 0 0 0-.008.078h.43v-.023Zm0 0" style="stroke:none;fill-rule:nonzero;fill:#d4af3a;fill-opacity:1"/><path d="M12.504 4.156a.24.24 0 0 0 .203-.133h-.402a.23.23 0 0 0 .203.137Zm.09-.375v.094h.105a.2.2 0 0 0-.105-.094m-.176 0a.2.2 0 0 0-.11.094h.11Zm0 0" style="stroke:none;fill-rule:nonzero;fill:#1d5e91;fill-opacity:1"/><path d="M12.629 5.543 12.5 5.48l-.129.07c-.047.02-.039.016-.055.048q-.017.046.024.054l.16.078.18-.078q.039-.016.015-.058-.007-.028-.066-.051" style="stroke:none;fill-rule:nonzero;fill:#b96b29;fill-opacity:1"/><path d="m12.5 5.516-.137.066.14.074.138-.074Zm0-.489s-.012.047-.027.07a.08.08 0 0 0-.024.067c0 .024.031.043.051.043s.047-.02.05-.043a.1.1 0 0 0-.023-.066c-.015-.024-.027-.07-.027-.07M12.527 5.258a.027.027 0 0 0-.027-.028.027.027 0 0 0-.027.028c0 .015.011.027.027.027a.027.027 0 0 0 .027-.027m0 0" style="stroke:none;fill-rule:nonzero;fill:#d4af3a;fill-opacity:1"/><path d="M12.406 5.121s.043-.05.063-.086l.031-.058.031.058a.4.4 0 0 0 .063.086s.062-.039.101-.156c.04-.13-.011-.262-.027-.402l-.031-.387a.25.25 0 0 1-.137.039.26.26 0 0 1-.14-.04s-.012.247-.032.388c-.02.144-.062.273-.023.398s.101.156.101.156Zm0 0" style="stroke:none;fill-rule:nonzero;fill:#d4af3a;fill-opacity:1"/><path d="M12.61 4.84a.11.11 0 0 0-.11-.106.11.11 0 0 0-.11.106c0 .058.051.11.11.11s.11-.052.11-.11M12.605 4.582a.104.104 0 0 0-.105-.102.104.104 0 0 0-.105.102.105.105 0 1 0 .21 0M12.602 4.344a.103.103 0 0 0-.102-.102.103.103 0 0 0-.102.102.1.1 0 0 0 .102.097.1.1 0 0 0 .102-.097m0 0" style="stroke:none;fill-rule:nonzero;fill:#b96b29;fill-opacity:1"/><path d="M12.559 4.82c0-.03-.028-.054-.059-.054s-.059.023-.059.054c0 .032.028.055.059.055s.059-.023.059-.055M12.555 4.566a.056.056 0 0 0-.055-.054.056.056 0 0 0-.055.054c0 .032.024.059.055.059s.055-.027.055-.059M12.55 4.324a.05.05 0 0 0-.05-.05.05.05 0 0 0-.05.05c0 .024.023.047.05.047s.05-.023.05-.047m0 0" style="stroke:none;fill-rule:nonzero;fill:#d4af3a;fill-opacity:1"/><path d="M12.496 13.3q.013 0 .008-.046l.016-.16c.007-.047-.012-.043-.024-.04-.012 0-.02.036-.02.055l.004.168c0 .016.004.028.016.028Zm0 0" style="stroke:none;fill-rule:nonzero;fill:#b96b29;fill-opacity:1"/><path d="m11.344 14.215.203-.145a.5.5 0 0 0 .156-.156h-.039q-.039-.005-.043-.059.001-.053.008-.164c.008-.07-.012-.129-.012-.129s-.047.043-.117.079c-.078.039-.105.023-.105.023l-.016-.074-.078.144c-.043.082-.164.168-.25.23-.074.063-.16.118-.25.161-.07.027-.028.059-.028.059s.07.07.254.105c.18.031.27-.039.317-.074" style="stroke:none;fill-rule:nonzero;fill:#d4af3a;fill-opacity:1"/><path d="M11.984 14.145q-.099-.006-.117-.106c-.008-.047 0-.223 0-.223l-.043.047a.15.15 0 0 1-.078.04l-.039.062a.36.36 0 0 1-.117.125l-.18.129c-.05.047-.11.086-.168.12a.28.28 0 0 0-.14.188c-.02.094 0 .121.07.118s.078 0 .195-.028c.117-.031.285-.16.406-.238.118-.078.211-.234.211-.234" style="stroke:none;fill-rule:nonzero;fill:#d4af3a;fill-opacity:1"/><path d="M12.305 14.25s-.047-.062-.067-.133l-.05-.215-.06.13a.2.2 0 0 1-.105.109s0 .035-.058.105a.8.8 0 0 1-.223.191c-.082.047-.195.118-.25.2-.058.09-.066.175-.039.215.031.039.07-.004.125-.036.055-.027.215-.05.438-.175.218-.118.289-.391.289-.391" style="stroke:none;fill-rule:nonzero;fill:#d4af3a;fill-opacity:1"/><path d="M12.402 14.754c.059-.098.07-.316.07-.316l-.05-.043a1 1 0 0 1-.086-.114l-.078.153a.5.5 0 0 1-.14.168c-.083.078-.196.156-.243.238-.047.078-.02.242.012.297.031.054.078.039.117-.004l.144-.13c.082-.073.196-.16.254-.25" style="stroke:none;fill-rule:nonzero;fill:#d4af3a;fill-opacity:1"/><path d="M11.68 12.875c.03-.066.066-.145.097-.187l.051-.09s-.078.074-.11.125a.5.5 0 0 0-.066.156q-.024.093.028 0Zm.312.063.02-.079s.011-.039.004-.043c-.012-.004-.036.028-.063.102-.02.07-.055.176-.047.18a.7.7 0 0 0 .086-.16m.246.195.012-.031s.027-.079.027-.098-.007-.04-.03.004c-.024.043-.024.086-.028.101 0 .02-.028.082-.02.09s.024-.035.04-.066m-.766.762-.032-.02-.05.059a1 1 0 0 0-.079.066.26.26 0 0 1-.105.09c-.05.027-.074.043-.062.047.011.008.046-.012.046-.012s.012 0 .075-.043c.062-.039.078-.055.117-.09s.09-.097.09-.097m.265.32c.024-.024.051-.04.04-.055q-.025-.022-.055.008l-.11.102-.078.058c-.027.024-.09.055-.117.074-.027.016-.004.02-.004.02l.047-.02.098-.043s.027-.011.062-.039c.035-.027.094-.078.117-.105m.309.219c.02-.043 0-.032-.035-.016-.032.012-.106.094-.149.121a1 1 0 0 1-.117.063c-.035.015-.035.027-.031.035q.004.012.031 0l.063-.035.039-.008q.03 0 .093-.063c.047-.039.086-.058.106-.097m.144.285a.6.6 0 0 0-.175.156c-.028.05-.036.082-.032.09.008.008.036-.008.047-.027l.035-.047s.094-.094.13-.118a.3.3 0 0 0 .1-.12c.017-.04.005-.055.005-.055s-.059.082-.11.12" style="stroke:none;fill-rule:nonzero;fill:#b96b29;fill-opacity:1"/><path d="M10.742 6.73a.8.8 0 0 0-.324-.105 1 1 0 0 0-.371.04.37.37 0 0 1-.223.01c-.101-.027-.18-.116-.207-.234 0 0-.094.122 0 .258.04.059.102.098.172.114.195.039.39-.079.559-.094a.48.48 0 0 1 .285.093s.039.032.09 0q.088-.042.02-.085Zm0 0" style="stroke:none;fill-rule:nonzero;fill:#c52126;fill-opacity:1"/><path d="m10.168 12.566-.047-.007c-.027 0-.086-.024-.105-.032-.02-.011-.04-.004-.063.012-.015.02-.156.11-.156.11h.234c.078 0 .137-.083.137-.083" style="stroke:none;fill-rule:nonzero;fill:#d4af3a;fill-opacity:1"/><path d="M10.836 12.523v-.02l-.031-.07s-.04.024-.075.06c-.046.05-.093.116-.117.148-.039.05-.093.097-.047.02.047-.083.063-.122.102-.177a.3.3 0 0 0 .059-.078l-.133-.02a.45.45 0 0 1-.207-.081l-.13-.075s-.167.075-.23.094c-.062.016-.101.024-.039.055s.114.039.145.059a.5.5 0 0 0 .18.046c.054 0 .152 0 .117.04a.8.8 0 0 0-.125.238.8.8 0 0 0-.04.277v.098s.07-.078.258-.196c.188-.12.258-.16.293-.175.036-.016.051-.016.043-.059Zm0 0" style="stroke:none;fill-rule:nonzero;fill:#d4af3a;fill-opacity:1"/><path d="m11.547 11.953-.035-.015h-.008a.6.6 0 0 0-.18.167c-.047.075-.094.079-.043 0a.8.8 0 0 1 .125-.168l.04-.03a2 2 0 0 1-.286-.165l-.062.098c-.04.039-.13.078-.13.078s.071-.078.095-.129l.03-.101a1 1 0 0 1-.187-.18.8.8 0 0 1-.16.293c-.148.164-.441.25-.441.25s-.102.011-.02.035c.086.02.145.059.305.031l.195-.043c.024-.008.078 0 0 .028-.078.03-.27.058-.34.054-.074-.008-.172-.023-.07.031.102.055.148.079.21.079.063 0 .09.02.153.02s.078-.013.117-.02q.075-.012.079.023c0 .016-.063.07-.059.188q.004.186.02.238c.011.039.039.094.054.125.02.031.028.066.043-.004.016-.07.059-.172.074-.242.016-.067.024-.07.028-.106.008-.035.047-.062.027 0l-.05.207c-.012.059-.044.164.007.078.055-.078.25-.304.285-.347l.078-.114c.028-.03.094-.074.13-.12q.07-.088.152-.157ZM8.832 6.84c0 .12.137.355.215.484.07.117.098.18.078.18-.008.008-.04-.055-.082-.11-.043-.054-.125-.187-.195-.285-.063-.097-.164-.332-.176-.351-.016-.02-.02-.035-.055-.008s-.097.285-.02.457c.079.176.196.3.247.367.05.063.117.156.105.16-.011.008-.031-.015-.09-.078l-.226-.254a2 2 0 0 1-.149-.238q-.016-.025-.03-.008c-.02.024-.056.074-.04.215a.67.67 0 0 0 .207.402c.09.098.18.18.164.196-.012.011-.105-.07-.168-.133-.062-.063-.215-.211-.25-.254-.035-.047-.082-.023-.078.145 0 .171.184.335.258.43.078.093.172.148.164.167s-.086-.027-.133-.062l-.273-.184c-.04-.027-.055.024-.008.184a.73.73 0 0 0 .265.343c.083.06.211.13.204.149q-.018.017-.141-.043a1.5 1.5 0 0 0-.234-.09c-.063-.02-.063.027-.063.027s-.012.141.086.247a.52.52 0 0 0 .313.171c.101.02.117.024.117.04q-.005.018-.04.019l-.21.008q-.129 0-.133.062c-.004.063-.004.09.129.184.133.09.281.101.344.117s.066.016.054.035c-.011.02-.043.016-.14.028-.102.007-.16.046-.176.078-.012.027.008.105.09.16q.113.081.343.062c.157-.011.196-.011.2.012.008.027-.047.04-.125.047-.078.016-.137.016-.184.055-.043.039-.008.113.066.168.079.054.266.054.344.05.078-.007.196-.035.207-.015.012.02-.058.054-.14.086-.078.031-.106.047-.118.082-.02.035-.003.066.09.101a.43.43 0 0 0 .313 0c.074-.03.113-.043.125-.03q.016.016-.016.042a.4.4 0 0 1-.156.094c-.082.023-.09.023-.117.086q-.042.106.187.125a1 1 0 0 0 .406-.09c.06-.04.09-.047.098-.031q.018.012-.023.043a.8.8 0 0 1-.184.109c-.047.012-.055.055-.055.086 0 .039-.011.101.118.137.136.039.28.004.43-.094a.3.3 0 0 0 .085-.078 1.3 1.3 0 0 1 .008-.32.4.4 0 0 1-.133-.036c-.078-.031-.11-.101-.129-.14q-.024-.054-.078-.032a.3.3 0 0 1-.101.024.3.3 0 0 1-.207-.113c-.07-.079-.055-.157-.059-.196 0-.039-.066-.011-.098-.011a.4.4 0 0 1-.207-.079c-.082-.054-.082-.132-.09-.168a.1.1 0 0 0-.066-.062c-.027-.008-.07-.02-.129-.07a.26.26 0 0 1-.078-.172c-.004-.031-.039-.031-.156-.094-.117-.066-.106-.187-.102-.238s.059-.094.059-.114-.04-.023-.078-.046c-.04-.024-.137-.063-.14-.211 0-.149.093-.164.093-.164L8.91 8.57c-.039-.023-.148-.097-.148-.187 0-.086.039-.125.07-.149s.105-.039.105-.039-.05-.039-.07-.105c-.02-.067-.027-.152.02-.211.05-.066.133-.066.18-.066s.081.023.097.011q.03-.012 0-.058a.3.3 0 0 1 0-.145c.012-.031.016-.09.125-.129.11-.039.234.04.27.063.035.023.02-.032.02-.067 0-.039-.079-.129-.165-.261a3 3 0 0 1-.219-.403 2.6 2.6 0 0 1-.175-.531c-.012-.063-.04-.031-.04-.031s-.023.008-.085.164a1 1 0 0 0-.063.414" style="stroke:none;fill-rule:nonzero;fill:#d4af3a;fill-opacity:1"/><path d="M10.8 9.555a.29.29 0 0 1-.222-.14c-.066-.102-.168-.122-.344-.122-.171.004-.254-.078-.296-.203-.043-.121.003-.262.183-.356.18-.086.262-.183.266-.34.008-.152-.176-.343-.364-.558-.183-.215-.328-.52-.328-.52s-.054.07-.054.145c0 .07.027.148 0 .168-.028.02-.04-.031-.145-.082-.105-.047-.195-.055-.262.027-.066.078 0 .211.059.274.062.07.113.12.094.14s-.106-.035-.137-.054c-.031-.02-.102-.102-.207-.094s-.14.043-.148.133c-.012.09.093.164.16.203q.1.053.078.078-.025.012-.067-.012a.3.3 0 0 0-.168 0c-.054.024-.14.098-.058.188.082.093.25.129.281.133.035.007.05 0 .055.023s-.07.027-.16.031c-.094.004-.118.094-.106.16.012.07.164.145.25.157.082.015.113 0 .117.027q.011.035-.054.047c-.047.012-.137.023-.157.101-.02.075-.02.106.051.172.07.063.188.055.219.047.035-.008.078-.043.11-.012.034.04-.032.067-.09.106-.06.039-.051.117.046.172a.27.27 0 0 0 .235.02c.039-.012.093-.079.12-.04.028.043-.085.059-.132.121-.047.055-.027.149.066.207.094.063.25.016.274-.007q.046-.036.082-.012c.035.027-.008.078-.031.12-.02.052-.055.188.086.247.14.055.27-.07.293-.094.027-.02.046-.027.066-.02q.025.022-.004.055a.144.144 0 0 0 .047.2c.055.039.121.054.184.039l.078-.285h-.024q-.016.01-.015.027-.001.023-.008.015-.013.001-.031.02-.031.024-.043.02c-.012-.008.039-.032.046-.047.012-.016.04-.04.04-.055q0-.018.035-.043l.015-.023a5 5 0 0 0 .067-.504Zm-2.87-2.13c.086.184.21.348.363.481l-.04-.129c-.015-.054-.007-.113-.007-.113s-.05-.066-.148-.223c-.102-.152-.153-.378-.153-.378s.094.226.164.347c.07.117.157.219.157.219s.023-.11.046-.113q.03-.005.051.03.03.035.035.028l-.062-.113-.059-.086c-.058-.09-.18-.262-.238-.434a8 8 0 0 1-.223-.722c-.023-.125-.046-.055-.07.035-.039.137-.055.281-.039.422.027.261.106.515.223.75m.195.832.137.097-.024-.066-.011-.113-.11-.102a1.6 1.6 0 0 1-.219-.238c-.117-.14-.023-.055.07.05.095.102.274.247.274.247v-.031q.002-.043.028-.075c.015-.023.007-.023-.094-.101a3 3 0 0 1-.688-.969s-.054.36.157.742c.21.39.421.516.476.559Zm1.113 2.226c.117-.046.082-.16.082-.16s-.07.02-.136.047c-.067.027-.227.07-.29.07s-.066-.007-.066-.015.047 0 .14-.016a1.2 1.2 0 0 0 .282-.12q.04-.029-.016-.028a.17.17 0 0 1-.093-.04c-.016-.011-.059.005-.164.036a2 2 0 0 1-.84.027c-.024-.008-.051.008.027.145.082.14.367.21.563.21s.394-.113.507-.156Zm-.523-.285c.203 0 .277-.058.277-.058l-.027-.051c-.027-.04-.024-.113-.024-.113L8.81 10a.9.9 0 0 1-.29.004c-.109-.02-.062-.031.024-.02.086.008.25-.023.305-.043.054-.015.03-.039-.004-.05-.035-.012-.137-.075-.137-.075s-.246.032-.473.008C8 9.797 7.86 9.738 7.813 9.73c-.047-.007-.047.012-.047.012s-.012.024.07.145c.078.129.234.21.363.25q.206.063.516.062m-.055-.48-.02-.051c-.011-.043.024-.078.024-.078s-.047-.012-.2-.031c-.152-.02-.16-.032-.253-.051-.094-.02-.156-.051-.156-.059q.007-.017.09.024c.054.02.289.047.386.058a.5.5 0 0 0 .168.016c.02-.012.078-.027.078-.027l-.093-.02a.3.3 0 0 1-.125-.05c-.028-.02-.036-.024-.157-.04-.129-.012-.226-.05-.449-.137a2 2 0 0 1-.433-.214c-.047-.043-.04-.016-.032.039.012.043.012.101.125.234.11.133.164.191.45.293.285.105.597.094.597.094m-.84-.696q.277.195.606.254c.015-.015-.016-.078 0-.109.015-.043.039-.043.101-.047s.02-.016.008-.016l-.117-.027c-.102-.031-.203-.047-.34-.098-.137-.054-.18-.09-.176-.101s.063.031.196.078c.125.05.273.07.351.09.082.02.012-.02-.027-.04-.04-.019-.09-.109-.09-.109s-.09-.015-.234-.058a2 2 0 0 1-.391-.168q-.065-.04-.129-.086l-.2-.149c-.05-.039-.038-.007-.03.016.007.027.039.129.117.242.078.121.105.153.355.328m-.039-.5c.246.196.457.262.492.278.036.015.036-.008.028-.028-.008-.023-.012-.09-.012-.09l-.187-.109a4 4 0 0 1-.278-.187c-.074-.051-.031-.047-.008-.028.024.02.122.079.223.145l.25.152s.004-.035.027-.054c.024-.02.07-.016.07-.016l-.038-.05c-.016-.024-.098-.052-.192-.098a2.3 2.3 0 0 1-.375-.266 7 7 0 0 1-.37-.387c-.016-.02-.024-.012-.028.012 0 .023-.008.039.015.16.024.117.137.371.383.566m.871-1.87q.043.086.078.144l.055.094s.008-.02 0-.055a1 1 0 0 1 0-.137l.012-.094a.3.3 0 0 0-.02-.074l-.058-.277a2 2 0 0 1-.035-.383c.004-.133.02-.062.02 0 .003.23.042.461.108.68 0 0 0-.035.02-.082q.03-.082.078-.168c.02-.063.012-.074.012-.074s-.086-.418-.11-.618c-.023-.199-.058-.718-.058-.718-.129.129-.223.468-.234.793-.016.238.023.464.035.554q.028.27.097.414m-.28.668c.003-.097.026-.172.085-.191 0 0-.05-.094-.098-.23a1.6 1.6 0 0 1-.074-.305c-.031-.223-.058-.453.008-.078.066.382.145.515.145.515l.097.157a.6.6 0 0 1-.015-.192c.003-.078.015-.18.039-.258 0 0-.118-.238-.192-.515a3.3 3.3 0 0 1-.125-.899s-.117.09-.156.551c-.04.5.062.996.285 1.445m1.3 3.504-.077-.05c-.055-.036-.04-.145-.04-.145l-.054.039a.7.7 0 0 1-.145.086c-.058.023-.085.039-.117.047q-.053.016 0-.02c.032-.015.04-.027.117-.054.075-.032.223-.165.223-.165l-.098-.003c-.062 0-.14-.04-.14-.04s-.063.06-.313.168q-.221.101-.46.137s.027.13.148.172c.098.043.234.07.504.008a1.6 1.6 0 0 0 .453-.18m.328.258c.02-.105-.04-.18-.04-.18l-.05.043c-.039.035-.094.098-.195.153-.11.054-.145.05-.043-.008.101-.055.25-.207.25-.207l-.04-.016c-.038-.015-.109.012-.39.18-.281.172-.445.18-.445.18s.125.152.469.14c.34-.012.46-.176.484-.285m.645-.121s-.04.05-.09.086c-.051.035-.184.055-.184.055l-.031.05a.7.7 0 0 1-.145.157c-.062.046-.156.078-.16.062s.055-.031.113-.07.11-.102.149-.145c.039-.047-.016-.043-.016-.043h-.136c-.067-.008-.055 0-.075.032l-.093.117-.172.203c-.04.047-.008.058-.008.058s.015.028.168.047a.5.5 0 0 0 .305-.062 1 1 0 0 0 .203-.18c.18-.203.172-.367.172-.367m.078.414-.055.074.047-.12a.2.2 0 0 1 .039-.056.7.7 0 0 1-.063-.187c-.02.059-.07.219-.132.32-.079.13-.149.176-.106.211q.076.058.235-.008c.093-.046.12-.129.136-.199l-.047-.082-.05.047ZM10.773 6.277c0-.035-.03-.062-.07-.062-.039 0-.07.027-.07.062s.031.063.07.063.07-.027.07-.063m0 0" style="stroke:none;fill-rule:nonzero;fill:#d4af3a;fill-opacity:1"/><path d="M10.559 6.156c.062 0 .093-.031.164-.023.086.008.199.054.336.129a.6.6 0 0 0 .382.035q.06-.025.114-.055c.164-.094.125-.281.125-.281a.67.67 0 0 1-.418.129l.039.031c.02.024.066.055.05.066-.015.012-.078-.046-.124-.085a.7.7 0 0 0-.254-.13c-.13-.038-.274-.038-.371.016-.098.055-.106.121-.09.149q.012.021.043.02Zm1.804 1.371c-.031-.007-.082-.015-.148-.078a2.4 2.4 0 0 1-.246-.277q-.03-.048.035-.078c.043-.02.078-.078.078-.078s-.102-.043-.168-.09a2 2 0 0 1-.242-.223c-.024-.043-.012-.043.02-.055q.042-.021.038-.03c-.003-.009-.07-.048-.136-.102l-.156-.145c-.102.043-.262.027-.348.008-.149-.027-.258-.09-.258-.09l-.023.07c-.02.051-.09.075-.157.032-.066-.047-.054-.149-.054-.149s-.059-.039-.172-.078a.38.38 0 0 0-.305-.008c-.094.043-.14.172-.14.278 0 .093.054.05.062.039s.035-.082.152-.106c.117-.02.223.043.36.153.136.109.16.117.23.19.067.071.012.106-.101.145-.118.04-.266-.039-.27-.035-.023.012.05.117.149.16.101.04.226.012.324-.035.066-.023.078 0 .101.024.09.097.145.226.157.36.05-.02.09-.067.101-.122 0-.023.008-.07.047-.039.039.039.066.238.066.324 0 .09-.027.211-.027.211h.027l.09-.047c.043-.027.047 0 .047.051s.016.14.078.309c.063.168.16.218.16.218s.02-.03.04-.101c.019-.067.03-.188.03-.305 0-.11-.03-.348-.03-.348s.136.168.273.207c.14.04.281.016.34-.05.058-.07.004-.102-.024-.11" style="stroke:none;fill-rule:nonzero;fill:#d4af3a;fill-opacity:1"/><path d="M11.445 7.957s-.039.098-.066.129l-.031.039s.039.043.101.059l.117.03s-.07-.097-.093-.163l-.028-.09Zm.836-.05-.031-.087a.54.54 0 0 1-.32-.066s.066.133.129.18l.074.046s-.067.012-.153-.078c-.085-.082-.12-.183-.12-.183s.019.23-.016.367l-.043.16s.18.035.383-.023c.203-.055.218-.078.218-.078s.024-.004-.007-.047a1.4 1.4 0 0 1-.114-.196Zm0 0" style="stroke:none;fill-rule:nonzero;fill:#d4af3a;fill-opacity:1"/><path d="m11.914 7.402-.07-.09s-.02.02 0 .051a.54.54 0 0 0 .285.192v-.016s-.152-.066-.215-.137m-.246.477-.016-.332c0-.04-.027-.031-.027-.031l-.031.011.062.422c.004.047.028.04.04.04-.024-.012-.028-.098-.028-.11m-.383-1.246c-.023-.024-.078-.04-.027.015.05.059.117.13.137.188.02.055.03.129 0 .113-.032-.015-.06-.015-.094-.047a.7.7 0 0 0-.125-.082c-.028-.008-.078 0-.04.04a1 1 0 0 0 .157.144c.066.047.121.082.156.101l.074.051s-.035-.238-.097-.336a1 1 0 0 0-.14-.187m-1.25 3.93a.3.3 0 0 1-.11.05s-.031 0-.031.008.039 0 .07-.004a.4.4 0 0 0 .101-.055c.02-.015.047-.035.04-.058-.012-.024-.024.02-.07.059m.402.214-.086.075-.051.027q-.042.012-.035.023 0 .012.035 0a.6.6 0 0 0 .133-.093c.027-.016.039-.032.027-.04q-.018-.01-.024.008M8.802 7.836c.015.016.031.043.039.039.008-.012 0-.023-.02-.043l-.03-.035-.044-.059c-.016-.015-.039-.027-.012.012Zm-.125.277.054.055c.02.02.032.043.043.031.012-.011-.027-.039-.046-.062l-.055-.055-.047-.031Zm.047.446c.03.035.078.043.082.03.008-.01 0-.027-.028-.038l-.09-.055-.054-.047q-.028-.023-.04-.023a.2.2 0 0 0 .06.07q.022.01.07.063m.09.355q.005-.019-.024-.02l-.062-.007s-.051-.02-.051-.008c-.004.012.039.031.058.031l.055.016q.018.006.024-.012m.039.387c-.055 0-.102-.012-.106 0-.004.004.024.02.05.027a.4.4 0 0 0 .118.016c.04 0 .04-.008.04-.024 0-.02-.048-.02-.102-.02m.43.43q-.013-.01-.06 0a.4.4 0 0 1-.109.02l-.093-.004-.036.008a.4.4 0 0 0 .118.016c.066.007.113-.008.144-.012q.046-.014.04-.028Zm.179.301a.2.2 0 0 1-.086.016l-.086.012s-.031 0-.023.015c0 .012.011 0 .039-.004h.09a.5.5 0 0 0 .097-.02c.028-.003.059-.019.047-.038-.012-.02-.047.008-.078.02m.348.23-.094.07-.047.023q-.035.025-.023.032c.007.008.023-.012.039-.02.02-.004.07-.039.097-.062.028-.024.063-.04.059-.059q-.007-.025-.031.016M9.23 7.3l.067.09c.062.074.027.004.012-.016l-.133-.18c-.031-.035-.035-.02-.02 0Zm-.125.386c.008-.007-.011-.015-.046-.058l-.102-.133s-.02-.039-.027-.039a.23.23 0 0 0 .05.098c.028.03.067.082.086.11q.023.04.04.022m.164.731c0-.02-.067-.02-.098-.023l-.086-.02s-.063-.012-.066 0q0 .01.046.02l.133.03c.04.005.07.012.07-.007m-.164-.395a.4.4 0 0 0 .098.067c.02.023.04.027.055.02q.013-.022-.051-.044-.06-.029-.055-.035l-.039-.02c-.023-.011-.054-.023-.008.012m.387-.257-.055-.04s-.03-.03-.039-.019c-.007.012.04.04.059.063.023.02.063.074.078.062.024-.012-.015-.043-.043-.066m-.254 1.02-.062.015q-.044.01.02.015c.042 0 .058-.011.105-.02q.063-.01.05-.026-.011-.024-.046 0Zm.067.366c0 .008.03 0 .054-.007.024-.008.07-.036.098-.04.023-.007.031-.02.027-.03-.007-.024-.03 0-.066.007-.035.008-.078.047-.078.047s-.031.016-.035.023m.468.223q.052-.03.028-.043-.012-.017-.047.008l-.078.062-.04.02q-.042.014-.038.039c.004.004.047 0 .066-.024.02-.023.078-.039.11-.062m.222.297c.012-.012.05-.027.07-.043.016-.012.028-.05.012-.055-.008 0-.023.016-.05.04l-.137.097-.028.012c-.031.007-.015.02.008.015q.03-.002.07-.027Zm.324.281a.5.5 0 0 0 .09-.07c.02-.016.043-.04.027-.051q-.016-.012-.05.023l-.082.086s-.012 0-.04.032c-.038.027 0 .02.008.011Zm0 0" style="stroke:none;fill-rule:nonzero;fill:#b96b29;fill-opacity:1"/><path d="m11.531 5.68.125.054.133-.093-.156-.04Zm0 0" style="stroke:none;fill-rule:nonzero;fill:#d4af3a;fill-opacity:1"/><path d="M12.203 5.625a.123.123 0 0 0-.125-.121.123.123 0 0 0-.125.121c0 .066.055.121.125.121s.125-.055.125-.121m0 0" style="stroke:none;fill-rule:nonzero;fill:#b96b29;fill-opacity:1"/><path d="M12.152 5.598a.074.074 0 1 0-.148 0c0 .039.035.074.074.074.04 0 .074-.035.074-.074M11.813 5.203c.035.012.078.008.078.008s.011-.059-.02-.086l-.078-.066-.02-.024-.003.078c0 .032.011.074.046.09ZM11.906 5.266c0-.016-.011-.024-.023-.024s-.024.008-.024.024c0 .011.012.023.024.023a.025.025 0 0 0 .023-.023M11.71 5.242l-.03.035s.023 0 .047.016q.03.03.07.023c.027 0 .039-.027.031-.039q0-.034-.058-.05c-.04-.016-.051 0-.06.015m.087.145c-.078.008-.184-.078-.184-.078-.011.066-.05.109-.117.117l.004.004s.063.03.137.043a.2.2 0 0 0 .097-.008c.04-.008.09-.02.118-.04.046-.027.03-.1.03-.1s-.007.058-.085.062m-.309-.078c-.031-.012-.078-.036-.101-.04-.02 0-.047 0-.043.036s.043.054.078.054a.13.13 0 0 0 .082-.023q.04-.017-.016-.027m-.246-.137a.4.4 0 0 0-.066-.035c-.008.004-.024.066-.012.105q.02.047.078.047c.031 0 .078-.02.067-.047a.2.2 0 0 0-.067-.07M11.3 5.348q0-.019-.027-.02c-.015 0-.027.008-.027.02 0 .011.012.02.027.02q.026-.002.028-.02M11.352 5.04a.44.44 0 0 1 .078-.368.6.6 0 0 1 .273-.203l.059-.07c.054-.06.164-.137.164-.137l-.203.062a.1.1 0 0 1-.024.063.08.08 0 0 1-.062.031c-.02 0-.04-.004-.051-.016a.8.8 0 0 0-.207.114l.012.046c0 .051-.04.09-.086.094q-.023-.001-.04-.008l-.011.02-.066.144q.04.024.039.079c-.004.058-.032.086-.079.093v.059c.004.027.016.047.067.062.05.012.12.106.12.106.005 0 .04-.066.017-.172" style="stroke:none;fill-rule:nonzero;fill:#d4af3a;fill-opacity:1"/><path d="M11.664 4.367q.031-.03.008-.054-.03-.025-.059.003-.038.031-.008.055.024.019.06-.004m-.333.223q.034-.037.012-.067-.03-.02-.07.004c-.04.028-.024.051-.008.067.02.02.043.015.07-.004ZM11.188 4.875a.05.05 0 0 0-.051-.05.05.05 0 0 0-.051.05c0 .031.023.055.05.055s.052-.024.052-.055M12.238 4.156c-.027.004-.074.028-.148.063q.083.005.09.074c0 .043-.043.09-.094.09a.1.1 0 0 1-.063-.024q-.03-.024-.023-.066l.004-.027-.066.05a.67.67 0 0 0-.282.317c-.078.148-.11.316-.078.41.04.098.164.117.168.117q-.007.002-.02-.031l.012-.063v-.082s.032-.004.047.016l.055.066.062.059s.024-.04.024-.082-.028-.09-.035-.172A.6.6 0 0 1 12 4.555a.9.9 0 0 1 .258-.215.09.09 0 0 0 .05-.07l.012-.079c0-.046-.039-.043-.078-.035Zm0 0" style="stroke:none;fill-rule:nonzero;fill:#d4af3a;fill-opacity:1"/><path d="M12.078 4.336a.06.06 0 0 0 .055-.055c-.004-.023-.02-.039-.051-.039-.035 0-.05.016-.055.04-.004.042.024.054.051.054m.242.965q.065.016.102-.008a.044.044 0 0 0 .004-.07.07.07 0 0 0-.082-.008l-.078.05s.015.02.054.036" style="stroke:none;fill-rule:nonzero;fill:#d4af3a;fill-opacity:1"/><path d="M12.445 5.344c-.015.023-.027.035-.07.039-.04 0-.09 0-.117-.031l-.051-.067h-.047s-.015.067-.039.082c-.023.016-.098.024-.129 0-.035-.027-.062-.054-.07-.05q-.012.006.035.054c.047.047.059.05.113.05h.313s.062 0 .078-.038q.03-.054.012-.067-.017-.012-.028.028" style="stroke:none;fill-rule:nonzero;fill:#d4af3a;fill-opacity:1"/><path d="M11.969 5.293c.047.023.074.008.09-.012l.023-.031-.066-.027q-.03-.03-.059-.024l-.023.004s-.012.063.039.086Zm0 0" style="stroke:none;fill-rule:nonzero;fill:#d4af3a;fill-opacity:1"/><path d="M11.852 4.824a.104.104 0 0 0-.106-.101.104.104 0 0 0-.105.101.105.105 0 1 0 .21 0M11.926 4.46c-.04-.026-.102-.015-.137.024a.09.09 0 0 0 .016.133c.039.028.101.016.136-.027.032-.043.028-.102-.015-.13" style="stroke:none;fill-rule:nonzero;fill:#b96b29;fill-opacity:1"/><path d="M11.805 4.809c0-.032-.028-.059-.063-.059s-.062.027-.062.059c0 .035.027.058.062.058s.063-.023.063-.058M11.883 4.473a.09.09 0 0 0-.078.03c-.012.028.004.048.039.056.066.011.097-.07.039-.086m-1.59 8.156s-.16.078-.211.09l-.062.015s-.11.098-.192.149a.7.7 0 0 1-.277.097 6 6 0 0 1-.625.004c-.156-.007-.25.032-.317.106-.066.074-.082.187 0 .27.086.081.18.038.211-.008.032-.051.016-.118 0-.149-.011-.031.028-.039.07-.043.145 0 .29.031.419.094.05.027.023.031-.012.027a1 1 0 0 1-.137-.043.4.4 0 0 0-.156-.043c-.063 0-.027.024-.02.04l.04.062c.003.015-.012.074-.012.074l.02.04.03-.06c.008-.019-.003-.058.004-.078q.02-.03.067.016.052.06.07.137a.27.27 0 0 1-.012.133s.032.027.04.043l-.012.09s.023.011.039-.028a.6.6 0 0 0 .05-.14c.005-.028.024-.079.055-.044a.24.24 0 0 1 .059.106l.008.039s.07-.066.093-.11a.7.7 0 0 1 .141-.156c.066-.054.18-.168.234-.207a3 3 0 0 1 .25-.14c.043-.028.051-.032.059-.11.008-.074.047-.148.063-.199ZM7.723 9.71c0-.016-.028-.059-.032-.086-.003-.023-.03-.012-.03-.012s-.052.032-.09.043c-.04.012-.04 0-.048-.027l-.02-.125c-.007-.04-.015-.04-.03-.031l-.094.039c-.035.011-.024.027-.012.047l.063.125c.02.027 0 .039-.016.05l-.09.024q-.05.02-.031.039c0 .012.031.066.043.09s.027.008.027.008.043-.04.078-.055c.036-.016.04-.012.047.015l.059.192q.011.034.039.015l.062-.015c.02-.008.028-.05.028-.05l-.098-.177c-.02-.039 0-.043.016-.047.015-.003.062-.007.101-.02.04-.01.028-.03.028-.046Zm.87 3.82c-.003-.035 0-.07-.023-.094a.3.3 0 0 1-.07-.117c-.012-.039.012-.062.008-.086-.004-.027-.04-.027-.067 0-.03.028-.074.051-.074.125s.028.168.133.2c.102.03.102.007.094-.024Zm.106-.039s-.02-.012-.031.008c-.008.023-.008.031.02.078.027.04.046.05.078.07.03.02.007-.02.004-.03q-.001-.023-.008-.04c-.008-.02-.012-.02-.012-.05 0-.036-.05-.036-.05-.036" style="stroke:none;fill-rule:nonzero;fill:#d4af3a;fill-opacity:1"/><path d="M8.828 13.855c.02-.03.04-.039.082-.062.05-.02.11-.031.164-.04.028 0 .098-.054.086-.116a.11.11 0 0 0-.09-.086q-.064-.023-.082.008-.015.03-.078.054c-.062.024-.043.028-.07.04-.024.003-.004.019-.027.038-.024.02-.051 0-.083-.011-.03-.012-.039-.016-.074-.016l-.133-.008h-.027c-.023 0-.023 0-.035.024-.012.023.004.082.027.113.024.035.102.043.153.062l.117.032c.047.004.05 0 .07-.032m.477.047c.039-.027.015-.078.008-.109-.008-.027-.067-.035-.098-.035q-.04 0-.059.015a.2.2 0 0 1-.078.051c-.047.012-.078.028-.14.051-.06.023-.079.063-.102.078-.024.016-.074 0-.074 0s-.035-.008-.047 0q-.018.018.023.059c.024.023.07.023.117.039.055.015.063 0 .082-.012s.04-.039.07-.062c.04-.024.118-.028.153-.032a.4.4 0 0 0 .145-.043m0-.183c.015.015.039.039.05.011.012-.027.04-.078.024-.109q-.031-.059-.04-.059l-.038.118q-.024.024 0 .039Zm-.157-.278c0-.046-.039-.109-.039-.109s-.011.047-.035.086q-.034.063-.039.062l.067.016c.02 0 .043 0 .043-.05Zm-.296.114q.075-.016.105-.055c.023-.02.04-.074.023-.102-.015-.027-.054-.054-.07-.054H8.88s-.016.05-.04.078a.09.09 0 0 0-.038.074c0 .035-.004.07.05.059m.11-.25a.07.07 0 0 0-.024-.075l-.03-.03-.009.066-.003.023.027.024c.015.003.039.015.039-.008m-.676-1.414.04-.239a1.6 1.6 0 0 0-.247-.609 2.6 2.6 0 0 1-.234-.523 1.5 1.5 0 0 1-.078-.395c0-.09.039-.137.039-.137s.02-.023.004-.039c-.016-.02-.04 0-.067.024a.24.24 0 0 0-.058.101l-.012.043s-.047-.012-.129-.004q-.117.007-.117.032c-.004.015.015.03.066.054.059.024.094.035.121.07.032.036.102.204.125.29.024.082.07.308.09.48q.035.3.156.57c.032.059.176.336.301.278Zm.145.41c-.055.035-.051.254-.028.37a.8.8 0 0 0 .168.298c.035.039.04.039.059.027l.027-.008s.047-.02.082-.047c.035-.03.024-.101.016-.16-.004-.062-.055-.191-.14-.336-.087-.144-.13-.175-.184-.144m.058-.176a.13.13 0 0 0-.133-.129.13.13 0 0 0-.082.024c-.074.07-.027.23.079.23a.15.15 0 0 0 .105-.031.1.1 0 0 0 .031-.094m1.035 2.086a.4.4 0 0 1-.085-.047.4.4 0 0 1-.122-.121c-.011-.027-.011-.027-.054-.016-.04.016-.098.012-.14.016-.04 0 .007.05.038.098.027.046.016.199.016.199l-.004.035q-.008.042.008.043.01.014.05-.043c.032-.035.086-.125.086-.125l.055.012a.4.4 0 0 0 .16-.008c.04-.012.024-.04-.008-.043" style="stroke:none;fill-rule:nonzero;fill:#d4af3a;fill-opacity:1"/><path d="M9.344 14.328q-.028-.002-.04.008l-.023.055q-.005.016.008.039l.031.02s.016.019.032.027c.015.007.02-.016.02-.036l.01-.078c0-.02-.01-.031-.038-.035" style="stroke:none;fill-rule:nonzero;fill:#d4af3a;fill-opacity:1"/><path d="M16.992 12.832c-.05-.016-.078-.027-.074-.031q.001-.013-.04.027c-.01.031-.077.07-.077.07s-.086.028-.098.09c-.012.059.031.078.07.075.043-.008.145-.028.192-.083.043-.054.05-.09.058-.109s.016-.027-.035-.039Zm.137-.488a.59.59 0 0 0-.29-.395l-.081.297c-.02.07-.02.066.035.082l.262.063c.035.011.093.039.074-.047m-.805-.13c.04.005.04-.01.051-.066l.082-.324s-.176-.004-.332.07c-.152.075-.219.215-.219.215s.04.016.145.04c.105.023.234.058.273.062Zm-.41.368-.086-.016s.04.153.106.239.136.129.273.133c.137.003.234-.079.254-.137s.043-.102.043-.102-.242-.031-.344-.054Zm0 0" style="stroke:none;fill-rule:nonzero;fill:#1d5e91;fill-opacity:1"/><path d="m15.871 12.488.606.117c.043.02.074.02.085.008.012-.011.02-.02.063-.035s.043-.058.043-.058l.016-.086c.007-.04.03-.055.078-.004.05.05.058.125.066.199.012.078.125.094.172.101q.06.013.09-.05c.027-.04.039-.13.047-.184.008-.055 0-.047-.055-.062l-.363-.086c-.047-.008-.04-.043-.028-.078.004-.032.11-.364.11-.364a.75.75 0 0 0-.301-.09l-.09.395c-.012.05-.047.05-.098.039-.054-.008-.44-.098-.44-.098l-.032.07a.6.6 0 0 0-.043.208c0 .047.015.047.074.058" style="stroke:none;fill-rule:nonzero;fill:#d4af3a;fill-opacity:1"/><path d="M17.2 12.797c-.052-.035-.09-.043-.118.02-.027.062-.027.16-.094.222-.07.066-.164.133-.258.125-.093-.008-.144-.027-.125-.137.02-.109.168-.144.2-.199q.053-.093-.024-.164c-.05-.043-.12-.055-.14-.039a.3.3 0 0 0-.11.145c-.027.078-.047.148-.11.199a.47.47 0 0 1-.35.078c-.122-.031-.169-.07-.216-.2-.046-.12-.101-.327-.125-.355-.027-.02-.058-.039-.109 0-.055.04-.059.094-.066.145q-.02.065.054.16c.055.066.11.133.13.2.019.066.077.171-.005.175-.086.008-.125.008-.187-.055-.067-.062-.32-.238-.39-.293l-.098-.078a.57.57 0 0 1-.352-.133s.07.176.082.242q.018.105.012.106l.355.18q.205.109.403.23c.097.059.183.16.355.117.176-.035.527-.14.645-.175.113-.036.43-.118.546-.2.118-.078.125-.074.145-.156.02-.074 0-.129-.05-.16m-.673-1.227.086-.011c.059-.004.04.05.028.074l-.055.11c-.023.038.008.046.023.054l.09.023c.051.012.04-.023.04-.039l.011-.152c.004-.035.04-.024.047-.02l.066.04q.041.011.04-.016l.03-.078c.008-.04-.015-.032-.038-.032H16.8c-.04 0-.016-.039-.016-.039l.05-.086c.024-.035.017-.039-.007-.046l-.11-.028q-.028-.006-.027.012l-.003.11c0 .027 0 .038-.04.038-.027 0-.05-.015-.078-.043-.027-.035-.039-.023-.039-.007l-.031.117c-.008.027.004.023.023.023Zm.188.864s-.004.066-.012.09c-.008.027-.023.062.004.07a.2.2 0 0 0 .07.015c.02-.004.012-.039 0-.066a.3.3 0 0 0-.043-.086Zm.41.277q.016.028.04.027.03.011.038-.02a.1.1 0 0 0-.02-.085c-.019-.035-.03-.055-.042-.008q-.029.052-.016.086m-1.434-.277.055.015s0-.066.012-.11c.008-.05.027-.081.012-.081q-.023 0-.04.035c-.011.02-.043.023-.054.082-.012.055.004.055.015.055Zm0 0" style="stroke:none;fill-rule:nonzero;fill:#d4af3a;fill-opacity:1"/><path d="M16.063 12.316a.09.09 0 0 0-.09-.09.09.09 0 0 0-.09.09c0 .051.039.094.09.094s.09-.043.09-.094M16.324 12.383a.096.096 0 0 0-.094-.098.096.096 0 0 0 0 .192c.051 0 .094-.043.094-.094M17.07 12.543a.095.095 0 0 0-.093-.094.096.096 0 0 0 0 .191c.05 0 .093-.042.093-.097M16.582 12.445a.093.093 0 0 0-.094-.093c-.05 0-.093.039-.093.093 0 .051.043.094.093.094s.094-.043.094-.094M16.648 12.215a.095.095 0 0 0-.093-.094.095.095 0 0 0-.094.094c0 .055.043.094.094.094.05 0 .093-.04.093-.094M16.715 11.988a.095.095 0 0 0-.094-.093.096.096 0 0 0 0 .191c.05 0 .094-.043.094-.098m0 0" style="stroke:none;fill-rule:nonzero;fill:#b96b29;fill-opacity:1"/><path d="M16.027 12.305a.047.047 0 0 0-.047-.047.047.047 0 0 0-.046.047c0 .027.02.05.046.05.028 0 .047-.023.047-.05M16.281 12.375a.045.045 0 0 0-.047-.047.045.045 0 0 0-.047.047c0 .023.02.047.047.047a.047.047 0 0 0 .047-.047M17.031 12.531a.045.045 0 0 0-.047-.047.045.045 0 0 0-.047.047c0 .028.02.047.047.047.028 0 .047-.02.047-.047M16.54 12.434a.045.045 0 0 0-.048-.047.045.045 0 0 0-.047.047c0 .027.02.046.047.046.028 0 .047-.02.047-.046M16.61 12.207a.045.045 0 0 0-.047-.047.045.045 0 0 0-.047.047c0 .027.02.047.047.047s.046-.02.046-.047M16.676 11.977a.047.047 0 0 0-.047-.047.047.047 0 0 0-.047.047c0 .027.02.05.047.05s.047-.023.047-.05M13.652 14.215l-.203-.145a.5.5 0 0 1-.152-.156h.039q.04-.005.039-.059a1 1 0 0 0-.008-.164c-.008-.07.012-.129.012-.129s.05.043.121.079c.074.039.102.023.102.023l.02-.074.077.144c.04.082.16.168.246.23.086.067.18.134.25.161.07.023.032.059.032.059s-.07.07-.254.105c-.184.031-.274-.039-.32-.074" style="stroke:none;fill-rule:nonzero;fill:#d4af3a;fill-opacity:1"/><path d="M13.016 14.145q.099-.006.117-.106a2 2 0 0 0-.004-.223l.047.047c.023.032.078.04.078.04s.008.023.035.062a.36.36 0 0 0 .117.125c.063.043.137.09.184.129q.075.07.164.12c.07.04.125.106.14.188.024.094.004.121-.066.118s-.078 0-.195-.028c-.117-.031-.285-.16-.406-.238-.122-.074-.211-.234-.211-.234" style="stroke:none;fill-rule:nonzero;fill:#d4af3a;fill-opacity:1"/><path d="M12.695 14.25s.047-.062.063-.133l.055-.215.054.13c.02.05.059.09.11.109 0 0 0 .035.058.105a1 1 0 0 0 .219.191.8.8 0 0 1 .254.2c.058.09.062.175.039.215-.031.039-.07-.004-.125-.036-.059-.027-.219-.05-.438-.175-.218-.118-.293-.391-.293-.391Zm0 0" style="stroke:none;fill-rule:nonzero;fill:#d4af3a;fill-opacity:1"/><path d="M12.598 14.754c-.063-.098-.07-.316-.07-.316l.05-.043c.027-.028.086-.114.086-.114l.078.153c.04.07.055.093.14.168.079.078.196.156.24.238.05.078.023.242-.009.297-.031.054-.078.039-.12-.004l-.141-.13c-.082-.07-.196-.16-.254-.25" style="stroke:none;fill-rule:nonzero;fill:#d4af3a;fill-opacity:1"/><path d="M13.32 12.875a2 2 0 0 0-.097-.187l-.051-.09s.078.074.11.125c.03.05.05.105.062.156q.023.093-.024 0Zm-.312.063-.02-.079s-.011-.039-.008-.043c.012-.004.036.028.063.102.023.07.059.176.05.18a.6.6 0 0 1-.085-.16m-.246.195-.016-.031s-.023-.079-.023-.098.007-.04.027.004c.02.043.023.086.027.101.004.02.028.082.02.09s-.02-.035-.04-.066Zm.761.762.036-.02.046.059q.05.03.079.066c.027.04.066.07.109.09q.075.04.059.047c-.008.008-.043-.012-.043-.012s-.016 0-.079-.043c-.058-.035-.074-.055-.113-.09Zm-.265.32c-.024-.024-.047-.04-.035-.055q.021-.022.05.008l.114.102.078.058c.027.024.09.055.117.074.027.016 0 .02 0 .02l-.047-.02-.094-.043-.066-.039a1 1 0 0 1-.117-.105m-.305.219c-.02-.043 0-.032.031-.016.036.012.11.094.153.121a.6.6 0 0 0 .117.063c.031.015.031.027.031.035q-.004.012-.031 0l-.066-.035-.04-.008q-.03 0-.093-.063c-.043-.039-.082-.058-.102-.097m-.144.285a.5.5 0 0 1 .171.156q.042.077.036.09c-.012.008-.04-.008-.047-.027l-.04-.047s-.093-.094-.124-.118a.3.3 0 0 1-.106-.12c-.011-.04 0-.055 0-.055s.055.082.11.12" style="stroke:none;fill-rule:nonzero;fill:#b96b29;fill-opacity:1"/><path d="M14.258 6.73a.8.8 0 0 1 .324-.105c.14-.012.25.008.371.04a.36.36 0 0 0 .219.01c.101-.027.18-.116.207-.234 0 0 .094.122 0 .258a.27.27 0 0 1-.168.114c-.2.039-.395-.079-.559-.094-.16-.008-.285.093-.285.093s-.039.032-.094 0q-.08-.042-.015-.085Zm0 0" style="stroke:none;fill-rule:nonzero;fill:#c52126;fill-opacity:1"/><path d="m14.828 12.566.047-.007c.027 0 .086-.024.105-.032.024-.011.043-.004.063.012.02.02.16.11.16.11h-.234c-.082 0-.137-.083-.137-.083Zm0 0" style="stroke:none;fill-rule:nonzero;fill:#d4af3a;fill-opacity:1"/><path d="M14.164 12.523v-.02l.031-.07s.04.024.07.06c.047.05.098.116.118.148.039.05.097.097.05.02-.046-.083-.062-.122-.101-.177l-.062-.078.132-.02a.43.43 0 0 0 .207-.081l.13-.075s.167.075.234.094c.062.016.097.024.039.055-.063.031-.117.039-.145.059a.5.5 0 0 1-.18.046c-.058 0-.156 0-.117.04a.9.9 0 0 1 .164.515l-.004.098s-.07-.078-.257-.196a2 2 0 0 0-.29-.175c-.035-.016-.05-.016-.046-.059Zm0 0" style="stroke:none;fill-rule:nonzero;fill:#d4af3a;fill-opacity:1"/><path d="m13.453 11.953.031-.015h.012c.02.011.133.093.18.167s.094.079.039 0a.8.8 0 0 0-.125-.168l-.04-.03q.149-.071.286-.165.025.04.066.098c.04.039.125.078.125.078s-.07-.078-.093-.129l-.032-.101c.07-.051.133-.114.188-.18.012.05.05.164.164.293.144.164.437.25.437.25s.102.011.02.035c-.082.02-.14.059-.305.031l-.195-.043c-.02-.008-.078 0 0 .028.082.03.273.058.344.054s.172-.023.066.031c-.101.055-.144.079-.207.079-.062 0-.09.02-.156.02-.059 0-.078-.013-.117-.02q-.069-.012-.075.023c0 .016.059.07.059.188a.7.7 0 0 1-.023.238c-.012.039-.04.094-.055.125-.016.031-.024.066-.04-.004-.015-.07-.058-.172-.073-.242l-.032-.106c-.004-.035-.043-.062-.023 0l.047.207c.015.059.043.164-.008.078-.05-.078-.25-.304-.281-.347l-.082-.114c-.028-.03-.094-.074-.125-.12a1 1 0 0 0-.157-.157Zm2.715-5.113c-.004.12-.137.355-.215.484-.074.117-.101.18-.082.18.012.008.043-.055.086-.11l.191-.285c.067-.097.165-.332.18-.351.016-.02.016-.035.05-.008.036.027.102.285.02.457-.078.176-.195.3-.242.367-.047.063-.117.156-.105.16.012.008.027-.015.09-.078q.228-.215.375-.496c.007-.012.02-.012.03 0 .02.02.056.07.04.211a.67.67 0 0 1-.207.402c-.09.098-.18.18-.168.196.016.011.105-.07.168-.133.062-.063.219-.211.25-.254.039-.043.086-.023.082.145 0 .171-.184.335-.262.43-.078.093-.168.148-.16.167s.082-.027.133-.062l.273-.184c.035-.027.051.024.004.184a.72.72 0 0 1-.262.343c-.078.06-.21.13-.203.149q.019.017.137-.043c.078-.04.168-.07.234-.09.063-.02.063.027.063.027s.016.141-.082.247a.52.52 0 0 1-.313.171c-.101.02-.117.024-.117.04q.002.02.04.019l.206.008q.136 0 .137.062c0 .063 0 .09-.129.184-.137.09-.285.101-.348.117-.062.016-.062.016-.05.035s.039.016.14.028c.098.007.157.046.172.078.012.027-.008.105-.09.16q-.11.081-.34.062c-.156-.011-.195-.011-.203.012q.001.04.125.047c.079.016.141.016.184.055.043.035.012.113-.066.168-.075.054-.262.054-.34.05-.078-.007-.2-.035-.207-.015-.008.02.058.054.136.086.082.031.106.047.122.082.015.035 0 .066-.094.101a.48.48 0 0 1-.313 0c-.07-.03-.113-.043-.125-.03q-.013.016.016.042c.016.02.078.07.16.094.078.023.09.023.117.086.028.062-.043.117-.191.125a1 1 0 0 1-.402-.09c-.06-.04-.09-.047-.098-.031q-.018.012.023.043c.032.023.13.097.18.109s.055.055.055.086c0 .039.015.101-.118.137a.52.52 0 0 1-.425-.094.3.3 0 0 1-.086-.078q.017-.164-.012-.32a.4.4 0 0 0 .133-.036c.078-.031.11-.101.129-.14s.047-.04.078-.032q.04.018.105.024a.3.3 0 0 0 .207-.113c.067-.079.055-.157.059-.196 0-.039.062-.011.094-.011a.4.4 0 0 0 .207-.079c.086-.054.086-.132.094-.168a.1.1 0 0 1 .066-.062.3.3 0 0 0 .125-.07.25.25 0 0 0 .078-.172c.008-.031.04-.031.156-.094.117-.066.11-.187.102-.238 0-.051-.059-.094-.059-.114s.04-.023.078-.046c.04-.024.141-.063.141-.211 0-.149-.094-.164-.094-.164l.059-.032c.039-.023.144-.097.144-.187a.18.18 0 0 0-.066-.149c-.027-.023-.105-.039-.105-.039s.046-.039.07-.105c.02-.067.027-.152-.024-.211-.05-.063-.132-.066-.175-.066s-.086.023-.102.011q-.024-.012 0-.058a.26.26 0 0 0 .004-.145c-.012-.027-.016-.09-.129-.129s-.23.04-.266.063c-.039.023-.02-.032-.02-.067 0-.039.075-.129.161-.261.086-.133.125-.2.223-.403q.112-.256.172-.531c.015-.063.039-.031.039-.031s.027.008.086.164c.05.129.074.273.066.414" style="stroke:none;fill-rule:nonzero;fill:#d4af3a;fill-opacity:1"/><path d="M14.195 9.555a.29.29 0 0 0 .223-.14c.066-.102.168-.122.344-.122.175.004.258-.078.3-.203.04-.121-.007-.262-.187-.356-.176-.086-.258-.183-.266-.34-.004-.152.18-.343.364-.558.183-.211.332-.52.332-.52s.054.07.054.145c0 .07-.027.148 0 .168.028.02.036-.031.145-.082.105-.047.195-.055.262.027.066.078 0 .211-.063.274-.058.07-.11.12-.094.14s.11-.035.137-.054c.027-.02.102-.102.207-.094.106.008.14.043.152.133s-.093.164-.164.203q-.1.053-.078.078.028.012.067-.012a.3.3 0 0 1 .168 0c.054.024.14.098.062.188-.082.093-.25.129-.285.133-.031.007-.05 0-.055.023s.07.027.164.031c.09.004.118.094.106.16-.016.07-.168.145-.25.157-.086.015-.117 0-.121.027q-.011.035.054.047c.047.012.141.023.157.101.015.075.02.106-.051.172-.07.063-.184.055-.219.047s-.074-.043-.11-.012c-.034.032.032.067.09.106.06.039.055.117-.042.172a.27.27 0 0 1-.235.02c-.039-.012-.097-.079-.125-.04-.027.043.086.059.133.121.047.055.031.149-.062.207-.094.063-.25.016-.278-.007q-.047-.036-.078-.012c-.023.02.008.078.027.12.02.052.06.188-.085.247-.145.055-.27-.07-.293-.094-.028-.02-.047-.027-.067-.02q-.022.022.008.055a.147.147 0 0 1-.047.2c-.055.039-.121.054-.184.039-.027-.075-.05-.172-.078-.285h.02q.019.01.02.027-.005.017.007.015c.012 0 .012.008.031.02q.023.024.04.02c.011-.008-.036-.032-.047-.047-.012-.016-.04-.04-.04-.055q0-.018-.03-.043l-.02-.023-.047-.286-.016-.218Zm2.88-2.13c-.153.31-.364.481-.364.481l.039-.129c.012-.054.004-.113.004-.113s.055-.066.152-.223c.098-.152.149-.378.149-.378s-.09.226-.16.347c-.075.117-.157.219-.157.219s-.027-.11-.047-.113q-.03-.005-.054.03c-.02.02-.028.028-.032.028l.06-.113.062-.086c.054-.09.175-.262.234-.434q.129-.352.223-.722c.027-.125.05-.055.074.035s.055.226.035.422a2.2 2.2 0 0 1-.219.75m-.195.832-.137.097.02-.066.011-.113.114-.102c.082-.07.152-.152.218-.238.114-.14.02-.055-.074.05-.09.102-.27.247-.27.247v-.031a.12.12 0 0 0-.027-.075c-.015-.023-.007-.023.09-.101.293-.274.528-.602.688-.969 0 0 .058.36-.157.742-.21.39-.421.516-.476.559m-1.113 2.226c-.118-.046-.086-.16-.086-.16s.07.02.136.047q.141.053.293.07c.063 0 .063-.007.067-.015s-.051 0-.145-.016a1.2 1.2 0 0 1-.281-.12c-.027-.02-.023-.028.02-.028a.2.2 0 0 0 .09-.04c.015-.011.058.005.163.036.274.066.563.078.84.027.028-.008.055.008-.027.145-.082.14-.363.21-.563.21s-.39-.113-.507-.156m.523-.285c-.203 0-.281-.058-.281-.058l.027-.051c.027-.043.024-.113.024-.113l.132.023q.13.023.293.004c.164-.02.063-.031-.023-.02-.102 0-.207-.015-.305-.043-.054-.02-.035-.039 0-.05s.137-.075.137-.075.246.032.477.008c.23-.023.375-.086.421-.094.043-.007.043.012.043.012s.012.024-.066.145c-.078.129-.234.21-.367.25q-.253.066-.512.062m.05-.48.024-.051c.012-.043-.023-.078-.023-.078s.047-.012.195-.031c.156-.02.164-.032.254-.051q.148-.042.156-.059.001-.017-.086.024-.275.057-.558.074c-.016-.012-.078-.027-.078-.027l.093-.02a.3.3 0 0 0 .125-.05c.028-.02.04-.024.16-.04.126-.012.227-.05.45-.137a1.7 1.7 0 0 0 .43-.214c.046-.043.042-.016.03.039-.011.043-.007.101-.12.234-.114.133-.168.191-.45.293-.28.105-.601.094-.601.094m.836-.7a1.5 1.5 0 0 1-.606.254c-.011-.015.016-.078 0-.109-.011-.043-.039-.043-.101-.047-.059-.004-.02-.015-.004-.015l.117-.028c.098-.031.2-.047.336-.097.14-.055.18-.09.176-.102s-.063.031-.192.078c-.125.05-.273.07-.351.09-.086.02-.016-.02.023-.04.04-.019.094-.108.094-.108s.09-.016.234-.06q.204-.062.391-.167l.125-.086.203-.148c.05-.04.035-.008.027.015a.9.9 0 0 1-.117.242c-.078.121-.105.153-.351.329Zm.039-.5c-.242.196-.457.262-.492.278-.035.015-.032-.008-.028-.027l.012-.09.188-.11c.097-.054.207-.136.28-.187.071-.051.028-.047.005-.028-.024.02-.121.079-.223.145l-.25.152s0-.035-.023-.054c-.024-.02-.075-.016-.075-.016l.04-.05c.019-.024.101-.052.19-.098a2.4 2.4 0 0 0 .376-.266c.12-.105.355-.363.37-.387q.024-.03.028.012c0 .023.012.039-.015.16a1.1 1.1 0 0 1-.38.567Zm-.867-1.87a2 2 0 0 1-.078.144l-.06.094v-.055a.4.4 0 0 0 0-.137c-.003-.035-.007-.062-.007-.093a.4.4 0 0 1 .016-.075l.062-.277a2.3 2.3 0 0 0 .032-.383c-.004-.133-.02-.062-.02 0a2.4 2.4 0 0 1-.105.68s-.004-.035-.024-.082l-.074-.168c-.024-.063-.016-.074-.016-.074s.09-.418.11-.618c.02-.199.062-.718.062-.718.125.129.219.468.234.793a2.4 2.4 0 0 1-.039.554q-.028.27-.097.414Zm.28.667c0-.097-.023-.171-.085-.191 0 0 .055-.094.102-.23q.045-.147.07-.305c.035-.223.062-.453-.004-.078-.066.383-.148.515-.148.515l-.094.157a.8.8 0 0 0 .011-.192.8.8 0 0 0-.039-.258s.118-.238.196-.515q.121-.44.12-.899s.118.09.157.551c.04.5-.059 1-.285 1.445m-1.297 3.504.074-.05c.059-.036.04-.145.04-.145l.202.125c.055.023.082.04.118.047.039.012.027 0 0-.02-.032-.015-.04-.027-.118-.054-.078-.032-.226-.164-.226-.164l.098-.004c.062 0 .14-.04.14-.04s.063.06.313.169q.221.1.46.136s-.023.13-.144.172c-.102.043-.234.07-.508.008a1.7 1.7 0 0 1-.449-.18m-.328.258a.22.22 0 0 1 .039-.18l.05.043c.04.036.09.098.196.153.106.058.145.05.04-.008a1.4 1.4 0 0 1-.247-.207l.04-.016c.038-.015.105.012.39.18.277.172.445.18.445.18s-.125.152-.469.14c-.34-.011-.465-.175-.484-.285m-.649-.121s.04.05.09.086c.051.035.188.055.188.055l.031.05c.024.04.082.118.145.157.058.047.156.078.156.062.008-.012-.05-.031-.11-.07-.058-.04-.113-.102-.152-.145-.039-.047.02-.043.02-.043h.136c.067-.007.051 0 .07.032l.094.117.172.203c.04.047.012.059.012.059s-.02.027-.172.046a.5.5 0 0 1-.3-.062 1 1 0 0 1-.204-.18c-.183-.203-.176-.367-.176-.367m-.078.414.059.074s-.027-.082-.05-.12l-.036-.055a.8.8 0 0 0 .063-.188 1.3 1.3 0 0 0 .132.32c.078.13.149.176.102.211s-.133.04-.235-.008c-.093-.046-.117-.128-.132-.199l.047-.082a.2.2 0 0 1 .05.047M14.223 6.277c0-.035.03-.062.07-.062.039 0 .07.027.07.062s-.031.063-.07.063-.07-.027-.07-.063m0 0" style="stroke:none;fill-rule:nonzero;fill:#d4af3a;fill-opacity:1"/><path d="M14.441 6.156c-.062 0-.097-.031-.168-.023q-.177.034-.332.129a.6.6 0 0 1-.382.035 1 1 0 0 1-.114-.055c-.168-.094-.125-.281-.125-.281a.66.66 0 0 0 .414.129l-.035.031c-.023.024-.066.055-.054.066.011.012.078-.046.128-.085a.7.7 0 0 1 .254-.13c.13-.038.274-.038.368.016.093.055.105.121.093.149q-.017.021-.047.02m-1.804 1.37c.031-.007.078-.015.148-.078q.135-.13.246-.277.03-.048-.039-.078a.24.24 0 0 1-.074-.078s.098-.043.168-.09.219-.188.242-.223c.02-.043.012-.043-.02-.055q-.044-.021-.038-.03c.007-.009.07-.048.136-.102l.156-.145c.102.043.258.027.344.008.149-.027.262-.09.262-.09l.023.07c.02.051.086.075.157.032.07-.047.054-.149.054-.149s.055-.039.172-.078a.37.37 0 0 1 .301-.008c.094.043.14.172.14.278 0 .093-.05.05-.062.039s-.031-.082-.148-.106c-.117-.02-.227.043-.36.153-.133.109-.164.117-.234.19-.063.071-.012.106.105.145.118.04.262-.039.27-.035.02.012-.05.117-.152.16-.102.04-.227.012-.325-.035-.066-.023-.078 0-.097.024a.6.6 0 0 0-.157.36.17.17 0 0 1-.101-.122c-.004-.023-.012-.07-.047-.039-.039.039-.07.238-.07.324 0 .09.027.211.027.211h-.027l-.09-.047q-.052-.033-.047.051c.004.082-.016.14-.078.309-.063.168-.156.218-.156.218s-.02-.03-.04-.101a1.3 1.3 0 0 1-.03-.305c0-.11.027-.348.027-.348s-.133.168-.274.207c-.14.04-.277.016-.336-.05-.058-.07-.008-.102.024-.11" style="stroke:none;fill-rule:nonzero;fill:#d4af3a;fill-opacity:1"/><path d="M13.555 7.957s.039.098.062.129c.024.031.035.047.035.039s-.043.043-.105.059l-.117.03s.07-.097.093-.163l.028-.09Zm-.84-.05.035-.087a.6.6 0 0 0 .316-.066s-.062.133-.129.18l-.07.046s.063.012.149-.078c.086-.082.125-.183.125-.183s-.02.23.015.367l.04.16s-.18.035-.383-.023c-.204-.055-.22-.078-.22-.078s-.023-.004.009-.047a1 1 0 0 0 .117-.196Zm0 0" style="stroke:none;fill-rule:nonzero;fill:#d4af3a;fill-opacity:1"/><path d="m13.086 7.402.066-.09s.024.02 0 .051a.6.6 0 0 1-.164.145c-.062.035-.12.047-.12.047v-.016s.155-.066.214-.137Zm.246.477.016-.332c0-.04.023-.031.023-.031l.031.011-.058.422c-.008.047-.028.04-.04.04.02-.012.024-.098.028-.11m.383-1.246c.023-.024.074-.04.023.015-.05.059-.117.13-.133.188-.02.055-.03.129 0 .113.032-.015.055-.015.09-.047.04-.027.102-.078.13-.082.027-.004.077 0 .038.04a1 1 0 0 1-.156.144l-.234.152s.039-.238.101-.336q.06-.1.14-.187m1.25 3.93c.048.039.11.05.11.05s.028 0 .028.008-.036 0-.07-.004a.4.4 0 0 1-.102-.055c-.016-.015-.043-.035-.035-.058.007-.024.023.02.07.059m-.406.214.09.075.05.027q.037.012.031.023 0 .012-.03 0a.7.7 0 0 1-.137-.093c-.028-.016-.036-.032-.028-.04q.018-.004.024.008m1.64-2.945c-.015.016-.035.043-.039.04-.008-.013-.004-.024.016-.044l.031-.035.043-.059c.016-.015.04-.027.012.012Zm.121.277-.05.051c-.02.024-.036.047-.047.035s.027-.039.047-.062l.054-.055.051-.031Zm-.047.446c-.03.035-.078.043-.078.03-.008-.01 0-.026.028-.038.062-.035.125-.074.18-.121.007 0-.04.058-.055.066a.4.4 0 0 0-.075.063m-.085.355q-.008-.019.019-.02l.063-.007s.05-.02.054-.008-.039.031-.062.031l-.055.016q-.019.006-.02-.012m-.039.387c.055 0 .102-.012.106 0-.004.008-.024.02-.055.027-.027.012-.078.012-.117.016q-.046 0-.039-.024c0-.02.05-.02.105-.02m-.43.43q.008-.005.055 0a.4.4 0 0 0 .11.02l.094-.004.039.008c0 .008-.051.008-.118.016-.07.007-.117-.008-.148-.012q-.041-.017-.035-.027Zm-.179.301.082.016.09.012s.027 0 .023.015c-.004.012-.015 0-.039-.004h-.093a.4.4 0 0 1-.098-.02c-.027-.003-.059-.019-.043-.038.016-.02.043.008.078.02m-.351.23.097.07.043.024c.031.015.027.023.024.03-.004.009-.024-.01-.04-.019l-.097-.062c-.027-.024-.063-.04-.055-.063.004-.011.012-.008.031.02Zm.582-2.961-.067.09c-.062.078-.027.004-.015-.016l.132-.18c.032-.035.04-.02.02 0Zm.125.387c-.008-.008.011-.016.043-.059l.105-.133.023-.039c.008.004-.023.07-.05.098-.028.031-.063.082-.082.11q-.029.04-.04.023m-.167.73c0-.02.07-.02.101-.023l.086-.02s.063-.012.063 0q0 .01-.047.02l-.13.03c-.038.005-.073.013-.073-.007m.168-.394-.098.066c-.027.023-.043.027-.055.02q-.018-.022.047-.043l.059-.036.039-.02c.02-.01.05-.023.008.013m-.391-.258.055-.04s.035-.03.039-.019c.007.012-.04.04-.059.063-.02.02-.059.074-.078.062s.02-.043.047-.066Zm.258 1.02.058.015q.049.011-.015.015c-.063.004-.063-.011-.106-.019s-.058-.012-.05-.027q.011-.018.046 0Zm-.07.366c.003.008-.032 0-.055-.007-.024-.008-.067-.036-.094-.04q-.034-.012-.027-.03c.007-.024.027 0 .062.007a.2.2 0 0 1 .078.047l.04.023Zm-.47.223q-.044-.03-.027-.043.018-.017.047.008l.078.062.043.02c.02.008.047.027.04.039-.008.004-.048 0-.067-.023-.02-.024-.078-.04-.113-.063m-.22.297c-.015-.012-.054-.027-.07-.043-.019-.012-.03-.05-.015-.055.012 0 .027.016.055.04l.136.097.028.012q.034.014-.008.015c-.027-.004-.04-.004-.07-.027Zm-.327.281a.4.4 0 0 1-.086-.07c-.02-.016-.047-.04-.031-.05q.024-.012.054.023l.082.085s.008 0 .04.032c.03.027 0 .02-.012.011Zm0 0" style="stroke:none;fill-rule:nonzero;fill:#b96b29;fill-opacity:1"/><path d="m13.21 5.64.157-.038.098.078-.121.054Zm0 0" style="stroke:none;fill-rule:nonzero;fill:#d4af3a;fill-opacity:1"/><path d="M12.797 5.625c0-.066.055-.121.125-.121s.125.055.125.121a.123.123 0 0 1-.125.121.123.123 0 0 1-.125-.121m0 0" style="stroke:none;fill-rule:nonzero;fill:#b96b29;fill-opacity:1"/><path d="M12.848 5.598a.074.074 0 1 1 .148 0c0 .039-.035.074-.074.074a.077.077 0 0 1-.074-.074M13.184 5.203c-.032.012-.075.008-.075.008s-.011-.059.02-.086l.078-.066.02-.024v.078c.003.032-.012.074-.043.09M13.094 5.266c0-.016.011-.024.023-.024s.024.008.024.024a.025.025 0 0 1-.024.023.025.025 0 0 1-.023-.023M13.29 5.242l.03.035s-.027 0-.047.016a.1.1 0 0 1-.074.023.04.04 0 0 1-.031-.039q.006-.034.059-.05c.039-.016.05 0 .062.015m-.086.145c.078.008.18-.078.18-.078.012.066.05.109.117.117v.004s-.066.03-.137.043a.2.2 0 0 1-.097-.008.3.3 0 0 1-.118-.04c-.046-.027-.035-.1-.035-.1s.008.058.086.062Zm.305-.078c.031-.012.078-.036.101-.04.02 0 .051 0 .043.036 0 .039-.039.054-.078.054s-.058-.011-.078-.023q-.035-.017.012-.027m.246-.137c.043-.024.062-.035.066-.035a.2.2 0 0 1 .012.105c-.012.04-.039.047-.074.047s-.082-.02-.07-.047c.011-.023.035-.043.066-.07M13.695 5.348c0-.012.012-.02.028-.02.015 0 .027.008.027.02 0 .011-.012.02-.027.02-.016 0-.028-.009-.028-.02M13.648 5.04a.47.47 0 0 0-.078-.368.6.6 0 0 0-.273-.203l-.055-.074c-.055-.06-.168-.137-.168-.137l.203.062q0 .037.024.067a.1.1 0 0 0 .066.027.1.1 0 0 0 .051-.016c.039.004.172.086.203.114l-.012.047c0 .05.04.093.09.093a.1.1 0 0 0 .04-.007l.011.02.063.144q-.041.024-.04.078c0 .054.04.093.079.093v.06q.004.038-.067.062c-.05.011-.117.105-.117.105-.008 0-.043-.066-.016-.172Zm0 0" style="stroke:none;fill-rule:nonzero;fill:#d4af3a;fill-opacity:1"/><path d="M13.332 4.367q-.023-.03-.004-.054.024-.025.059.003c.035.024.023.04.008.055q-.023.019-.063-.004m.332.223q-.03-.037-.008-.067.03-.02.067.004.039.042.007.067-.03.031-.066-.004M13.809 4.875c0-.027.023-.05.05-.05s.051.023.051.05c0 .031-.023.055-.05.055s-.051-.024-.051-.055M12.758 4.156c.027.004.074.028.148.063q-.082.005-.09.074c0 .043.047.09.098.09.05 0 .086-.043.086-.09a.1.1 0 0 0-.008-.027l.07.05c.165.11.2.16.282.317.078.148.11.316.074.41-.035.094-.164.117-.164.117s.016-.012.016-.031l-.008-.063c-.008-.039 0-.082 0-.082s-.032-.004-.047.016l-.059.066-.058.059s-.028-.04-.028-.082.032-.09.04-.172a.6.6 0 0 0-.114-.316.9.9 0 0 0-.258-.215.09.09 0 0 1-.05-.07l-.008-.079c-.004-.046.039-.043.078-.035" style="stroke:none;fill-rule:nonzero;fill:#d4af3a;fill-opacity:1"/><path d="M12.922 4.336a.056.056 0 0 1-.055-.055c0-.023.016-.039.051-.039q.046.002.05.04 0 .056-.046.054m-.242.965a.13.13 0 0 1-.106-.008c-.02-.012-.027-.05 0-.07.024-.02.051-.02.078-.008l.078.05s-.011.02-.05.036" style="stroke:none;fill-rule:nonzero;fill:#d4af3a;fill-opacity:1"/><path d="M12.555 5.344q.012.034.066.039c.043 0 .09 0 .117-.031l.051-.067h.05s.016.067.04.082c.023.016.094.024.129 0 .035-.023.062-.054.066-.05q.01.006-.031.054c-.043.047-.059.05-.117.05h-.309s-.062 0-.078-.038q-.03-.054-.012-.067c.004-.007.016 0 .028.028" style="stroke:none;fill-rule:nonzero;fill:#d4af3a;fill-opacity:1"/><path d="M13.027 5.293c-.047.023-.074.008-.09-.012l-.019-.031.066-.027q.03-.03.059-.024l.023.004s.008.063-.039.086Zm0 0" style="stroke:none;fill-rule:nonzero;fill:#d4af3a;fill-opacity:1"/><path d="M13.148 4.824c0-.054.047-.101.106-.101s.105.047.105.101a.105.105 0 0 1-.105.106.105.105 0 0 1-.106-.106M13.074 4.46c.04-.026.102-.015.137.024.031.043.027.102-.016.133-.039.028-.101.016-.136-.027s-.028-.102.015-.13" style="stroke:none;fill-rule:nonzero;fill:#b96b29;fill-opacity:1"/><path d="M13.195 4.809c0-.032.028-.059.063-.059s.062.027.062.059c0 .035-.027.058-.062.058s-.063-.023-.063-.058M13.117 4.473q.046-.007.074.03.019.043-.039.056c-.066.011-.097-.07-.039-.086Zm0 0" style="stroke:none;fill-rule:nonzero;fill:#d4af3a;fill-opacity:1"/></svg>