<svg xmlns="http://www.w3.org/2000/svg" width="25" height="px" viewBox="0 0 25 19"><path d="M0 0h24.996v19H0Zm0 0" style="stroke:none;fill-rule:evenodd;fill:#3b5aa3;fill-opacity:1"/><path d="M0 18.484 24.996 0v3.445L0 19Zm0 0" style="stroke:none;fill-rule:evenodd;fill:#e2ae57;fill-opacity:1"/><path d="M.875 19 25 7.094l-.004-3.782L0 19ZM6.852.602l-.25 4.07-1.055-2.598.406 2.762-1.637-2.23 1.075 2.542-2.149-1.683 1.672 2.12-2.426-1.093 2.125 1.633-2.644-.36 2.5 1.008-3.922.364 3.93.265-2.489 1.035 2.617-.355-2.12 1.586 2.46-1.094-1.68 2.137 2.133-1.633-1.054 2.488 1.703-2.164-.461 2.696L6.66 9.574l.242 3.989.38-3.977.925 2.535-.352-2.73 1.696 2.168-1.117-2.536 2.132 1.743-1.695-2.172 2.535 1.07-2.242-1.66 2.73.469-2.617-1.02 4.067-.258-4.063-.383 2.676-.902-2.773.356 2.289-1.621L8.895 5.69l1.78-2.187-2.171 1.719 1.043-2.63-1.684 2.231.364-2.785-1.004 2.633-.375-4.07Zm0 0" style="stroke:none;fill-rule:evenodd;fill:#fff;fill-opacity:1"/></svg>