<svg xmlns="http://www.w3.org/2000/svg" width="25" height="px" viewBox="0 0 25 19"><path d="M0 0h25v19H0z" style="fill:#d20000;fill-opacity:1;stroke:none"/><path d="M0 0h3.75l8.75 9.16L21.25 0H25L0 19h3.75l8.75-9.16L21.25 19H25Zm25 7.602v3.796L0 7.602v3.796ZM10.938 0 12.5 8.14 14.063 0Zm0 19 1.562-8.14L14.063 19Zm0 0" style="stroke:none;fill-rule:nonzero;fill:#ffe600;fill-opacity:1"/><path d="M397.1 240c0-42.533-34.5-77.072-77.1-77.072s-77.1 34.54-77.1 77.072 34.5 77.072 77.1 77.072 77.1-34.54 77.1-77.072Zm0 0" style="fill-rule:nonzero;fill:#ffe600;fill-opacity:1;stroke-width:17.1;stroke-linecap:butt;stroke-linejoin:miter;stroke:#d20000;stroke-opacity:1;stroke-miterlimit:4" transform="scale(.03906 .03958)"/></svg>