<?xml version="1.0" encoding="UTF-8"?>
<svg xmlns="http://www.w3.org/2000/svg" xmlns:xlink="http://www.w3.org/1999/xlink" width="25px" height="px" viewBox="0 0 25 19" version="1.1">
<g id="surface1">
<rect x="0" y="0" width="25" height="19" style="fill:rgb(85.490197%,12.54902%,19.607843%);fill-opacity:1;stroke:none;"/>
<path style=" stroke:none;fill-rule:nonzero;fill:rgb(0%,40.000001%,70.19608%);fill-opacity:1;" d="M 8.332031 0 L 16.667969 0 L 16.667969 19 L 8.332031 19 Z M 8.332031 0 "/>
<path style=" stroke:none;fill-rule:nonzero;fill:rgb(100%,85.09804%,0%);fill-opacity:1;" d="M 5.730469 7.195312 C 5.730469 6.320312 5.03125 5.613281 4.167969 5.613281 C 3.304688 5.613281 2.605469 6.320312 2.605469 7.195312 C 2.605469 8.070312 3.304688 8.78125 4.167969 8.78125 C 5.03125 8.78125 5.730469 8.070312 5.730469 7.195312 Z M 5.730469 7.195312 "/>
<path style=" stroke:none;fill-rule:nonzero;fill:rgb(85.490197%,12.54902%,19.607843%);fill-opacity:1;" d="M 5.871094 6.476562 C 5.871094 5.523438 5.109375 4.75 4.167969 4.75 C 3.226562 4.75 2.464844 5.523438 2.464844 6.476562 C 2.464844 7.429688 3.226562 8.203125 4.167969 8.203125 C 5.109375 8.203125 5.871094 7.429688 5.871094 6.476562 Z M 5.871094 6.476562 "/>
<path style=" stroke:none;fill-rule:nonzero;fill:rgb(100%,85.09804%,0%);fill-opacity:1;" d="M 5.304688 6.765625 C 5.304688 6.128906 4.796875 5.613281 4.167969 5.613281 C 3.539062 5.613281 3.03125 6.128906 3.03125 6.765625 C 3.03125 7.402344 3.539062 7.917969 4.167969 7.917969 C 4.796875 7.917969 5.304688 7.402344 5.304688 6.765625 Z M 5.304688 6.765625 "/>
<path style=" stroke:none;fill-rule:nonzero;fill:rgb(100%,85.09804%,0%);fill-opacity:1;" d="M 4.285156 3.023438 C 4.167969 3.078125 4.089844 3.191406 4.082031 3.320312 C 4.074219 3.421875 4.117188 3.53125 4.121094 3.625 C 4.121094 3.792969 3.953125 3.847656 3.953125 4.082031 C 3.953125 4.160156 4.027344 4.25 4.027344 4.460938 C 4.011719 4.570312 3.949219 4.597656 3.882812 4.609375 C 3.84375 4.609375 3.808594 4.59375 3.78125 4.5625 C 3.753906 4.535156 3.742188 4.5 3.742188 4.460938 C 3.742188 4.425781 3.757812 4.390625 3.78125 4.363281 L 3.796875 4.351562 C 3.828125 4.316406 3.875 4.300781 3.875 4.214844 C 3.875 4.171875 3.84375 4.128906 3.816406 4.050781 C 3.789062 3.96875 3.808594 3.84375 3.871094 3.769531 C 3.769531 3.808594 3.710938 3.902344 3.675781 3.988281 C 3.644531 4.097656 3.675781 4.15625 3.628906 4.246094 C 3.601562 4.300781 3.570312 4.328125 3.539062 4.375 C 3.5 4.429688 3.460938 4.546875 3.460938 4.609375 C 3.488281 4.984375 3.796875 5.273438 4.171875 5.273438 C 4.542969 5.273438 4.851562 4.984375 4.878906 4.609375 C 4.878906 4.546875 4.835938 4.429688 4.800781 4.375 C 4.765625 4.328125 4.734375 4.300781 4.707031 4.246094 C 4.660156 4.15625 4.691406 4.097656 4.65625 3.988281 C 4.625 3.902344 4.566406 3.808594 4.464844 3.769531 C 4.527344 3.847656 4.542969 3.972656 4.519531 4.050781 C 4.492188 4.128906 4.464844 4.167969 4.464844 4.214844 C 4.464844 4.300781 4.507812 4.316406 4.542969 4.351562 L 4.554688 4.363281 C 4.578125 4.390625 4.59375 4.425781 4.59375 4.460938 C 4.59375 4.5 4.582031 4.535156 4.554688 4.5625 C 4.527344 4.59375 4.492188 4.609375 4.453125 4.609375 C 4.375 4.59375 4.316406 4.558594 4.308594 4.460938 C 4.308594 4.183594 4.425781 4.167969 4.425781 3.960938 C 4.425781 3.667969 4.167969 3.53125 4.167969 3.316406 C 4.167969 3.246094 4.183594 3.121094 4.285156 3.023438 M 1.042969 9.066406 L 2.460938 9.066406 L 2.460938 15.972656 L 1.042969 15.972656 Z M 5.871094 9.066406 L 7.292969 9.066406 L 7.292969 15.972656 L 5.871094 15.972656 Z M 2.746094 9.066406 L 5.585938 9.066406 L 4.167969 9.925781 Z M 2.746094 10.210938 L 5.585938 10.210938 L 5.585938 10.789062 L 2.746094 10.789062 Z M 2.746094 14.246094 L 5.585938 14.246094 L 5.585938 14.824219 L 2.746094 14.824219 Z M 2.746094 15.109375 L 5.585938 15.109375 L 4.167969 15.972656 Z M 2.746094 15.109375 "/>
<path style=" stroke:none;fill-rule:nonzero;fill:rgb(100%,85.09804%,0%);fill-opacity:1;" d="M 5.589844 12.523438 C 5.589844 11.726562 4.953125 11.082031 4.167969 11.082031 C 3.382812 11.082031 2.746094 11.726562 2.746094 12.523438 C 2.746094 13.320312 3.382812 13.964844 4.167969 13.964844 C 4.953125 13.964844 5.589844 13.320312 5.589844 12.523438 Z M 5.589844 12.523438 "/>
<path style=" stroke:none;fill-rule:nonzero;fill:rgb(85.490197%,12.54902%,19.607843%);fill-opacity:1;" d="M 4.449219 11.757812 C 4.449219 11.601562 4.324219 11.472656 4.167969 11.472656 C 4.007812 11.472656 3.882812 11.601562 3.882812 11.757812 C 3.882812 11.917969 4.007812 12.046875 4.167969 12.046875 C 4.324219 12.046875 4.449219 11.917969 4.449219 11.757812 Z M 4.449219 11.757812 "/>
<path style=" stroke:none;fill-rule:nonzero;fill:rgb(85.490197%,12.54902%,19.607843%);fill-opacity:1;" d="M 4.449219 13.285156 C 4.449219 13.125 4.324219 12.996094 4.167969 12.996094 C 4.007812 12.996094 3.882812 13.125 3.882812 13.285156 C 3.882812 13.445312 4.007812 13.574219 4.167969 13.574219 C 4.324219 13.574219 4.449219 13.445312 4.449219 13.285156 Z M 4.449219 13.285156 "/>
<path style=" stroke:none;fill-rule:nonzero;fill:rgb(85.490197%,12.54902%,19.607843%);fill-opacity:1;" d="M 4.167969 10.910156 C 4.628906 10.910156 5.003906 11.289062 5.003906 11.757812 C 5.003906 12.226562 4.628906 12.609375 4.167969 12.609375 C 3.796875 12.609375 3.5 12.910156 3.5 13.285156 C 3.5 13.65625 3.796875 13.960938 4.167969 13.960938 L 4.167969 14.132812 C 3.703125 14.132812 3.328125 13.753906 3.328125 13.285156 C 3.328125 12.816406 3.703125 12.433594 4.167969 12.433594 C 4.535156 12.433594 4.832031 12.132812 4.832031 11.757812 C 4.832031 11.386719 4.535156 11.082031 4.167969 11.082031 Z M 4.167969 10.910156 "/>
</g>
</svg>
