<?xml version="1.0" encoding="UTF-8"?>
<svg xmlns="http://www.w3.org/2000/svg" xmlns:xlink="http://www.w3.org/1999/xlink" width="25px" height="px" viewBox="0 0 25 19" version="1.1">
<g id="surface1">
<rect x="0" y="0" width="25" height="19" style="fill:rgb(0%,47.058824%,36.862746%);fill-opacity:1;stroke:none;"/>
<path style=" stroke:none;fill-rule:nonzero;fill:rgb(98.431373%,81.960785%,8.627451%);fill-opacity:1;" d="M 11.523438 4.300781 L 13.105469 5.46875 L 12.5 3.582031 L 11.894531 5.46875 L 13.480469 4.300781 Z M 11.523438 4.300781 "/>
<path style=" stroke:none;fill-rule:nonzero;fill:rgb(100%,100%,100%);fill-opacity:1;" d="M 12.5 13.125 L 8.496094 13.125 L 8.347656 12.96875 L 12.5 12.96875 C 12.535156 12.976562 12.554688 13.011719 12.554688 13.046875 C 12.554688 13.082031 12.535156 13.109375 12.5 13.125 M 12.5 11.886719 C 12.546875 11.792969 12.5625 11.6875 12.546875 11.585938 C 12.539062 11.535156 12.523438 11.484375 12.5 11.4375 C 12.140625 11.78125 11.707031 12.039062 11.230469 12.1875 C 10.933594 12.28125 10.625 12.324219 10.3125 12.328125 L 7.847656 12.328125 L 8.074219 12.644531 L 10.457031 12.644531 C 11.238281 12.644531 11.949219 12.359375 12.5 11.886719 M 8.21875 10.910156 C 8.097656 10.957031 7.96875 10.980469 7.839844 10.988281 C 8.441406 11.679688 9.304688 12.078125 10.214844 12.078125 C 11.078125 12.078125 11.902344 11.71875 12.5 11.085938 C 12.609375 10.316406 12.667969 9.539062 12.675781 8.761719 C 12.683594 7.863281 12.625 6.96875 12.5 6.078125 C 12.242188 6.316406 11.757812 6.820312 11.53125 7.597656 C 11.445312 7.894531 11.402344 8.199219 11.40625 8.511719 C 11.40625 9.144531 11.59375 9.765625 11.941406 10.292969 C 11.511719 9.730469 11.277344 9.042969 11.277344 8.332031 C 11.28125 7.835938 11.382812 7.378906 11.582031 6.957031 C 11.445312 6.8125 11.347656 6.636719 11.289062 6.445312 C 11.019531 6.925781 10.878906 7.472656 10.878906 8.027344 C 10.878906 8.738281 11.109375 9.402344 11.5 9.929688 C 10.757812 9.140625 9.710938 8.714844 8.632812 8.769531 C 8.742188 8.867188 8.832031 8.988281 8.898438 9.121094 C 9.910156 9.121094 10.878906 9.542969 11.578125 10.285156 C 10.910156 9.714844 10.066406 9.40625 9.195312 9.40625 C 8.703125 9.402344 8.214844 9.503906 7.761719 9.695312 C 8.261719 11.035156 9.578125 11.878906 10.988281 11.761719 C 10.804688 11.792969 10.617188 11.8125 10.425781 11.8125 C 9.605469 11.8125 8.8125 11.488281 8.222656 10.910156 Z M 12.5 14.425781 L 10.425781 14.425781 C 11.085938 14.6875 11.789062 14.824219 12.5 14.824219 C 12.53125 14.761719 12.550781 14.695312 12.550781 14.625 C 12.550781 14.554688 12.53125 14.484375 12.5 14.425781 M 12.5 13.453125 L 8.84375 13.453125 L 9.148438 13.699219 L 12.5 13.699219 C 12.53125 13.667969 12.546875 13.621094 12.550781 13.578125 C 12.550781 13.53125 12.535156 13.484375 12.5 13.453125 M 12.5 13.949219 L 9.503906 13.949219 C 9.683594 14.066406 9.875 14.171875 10.066406 14.265625 L 12.5 14.265625 C 12.53125 14.214844 12.546875 14.160156 12.546875 14.097656 C 12.542969 14.046875 12.527344 13.996094 12.5 13.949219 "/>
<path style=" stroke:none;fill-rule:nonzero;fill:rgb(98.431373%,81.960785%,8.627451%);fill-opacity:1;" d="M 7.832031 6.917969 L 8.824219 7.851562 L 8.5625 6.507812 L 7.992188 7.75 L 9.175781 7.085938 Z M 9.273438 5.652344 L 10.628906 5.675781 L 9.546875 4.84375 L 9.941406 6.164062 L 10.382812 4.859375 Z M 9.273438 5.652344 "/>
<path style=" stroke:none;fill-rule:nonzero;fill:rgb(100%,100%,100%);fill-opacity:1;" d="M 12.5 13.125 L 16.503906 13.125 L 16.652344 12.96875 L 12.5 12.96875 C 12.464844 12.976562 12.445312 13.011719 12.445312 13.046875 C 12.445312 13.082031 12.464844 13.109375 12.5 13.125 M 12.5 11.886719 C 12.453125 11.792969 12.4375 11.6875 12.453125 11.585938 C 12.460938 11.535156 12.476562 11.484375 12.5 11.4375 C 12.859375 11.78125 13.292969 12.039062 13.769531 12.1875 C 14.066406 12.28125 14.375 12.324219 14.6875 12.328125 L 17.152344 12.328125 L 16.925781 12.644531 L 14.542969 12.644531 C 13.761719 12.644531 13.050781 12.359375 12.5 11.886719 M 16.78125 10.910156 C 16.902344 10.957031 17.03125 10.980469 17.160156 10.988281 C 16.558594 11.679688 15.695312 12.078125 14.785156 12.078125 C 13.921875 12.078125 13.097656 11.71875 12.5 11.085938 C 12.390625 10.316406 12.332031 9.539062 12.324219 8.761719 C 12.316406 7.863281 12.375 6.96875 12.5 6.078125 C 12.757812 6.316406 13.242188 6.820312 13.46875 7.597656 C 13.554688 7.894531 13.597656 8.199219 13.59375 8.511719 C 13.59375 9.144531 13.40625 9.765625 13.058594 10.292969 C 13.488281 9.730469 13.722656 9.042969 13.722656 8.332031 C 13.71875 7.835938 13.617188 7.378906 13.417969 6.957031 C 13.554688 6.8125 13.652344 6.636719 13.710938 6.445312 C 13.980469 6.925781 14.121094 7.472656 14.121094 8.027344 C 14.121094 8.738281 13.890625 9.402344 13.5 9.929688 C 14.242188 9.140625 15.289062 8.714844 16.367188 8.769531 C 16.257812 8.867188 16.167969 8.988281 16.101562 9.121094 C 15.089844 9.121094 14.121094 9.542969 13.421875 10.285156 C 14.089844 9.714844 14.933594 9.40625 15.804688 9.40625 C 16.296875 9.402344 16.785156 9.503906 17.238281 9.695312 C 16.738281 11.035156 15.421875 11.878906 14.011719 11.761719 C 14.195312 11.792969 14.382812 11.8125 14.574219 11.8125 C 15.394531 11.8125 16.1875 11.488281 16.777344 10.910156 Z M 12.5 14.425781 L 14.574219 14.425781 C 13.914062 14.6875 13.210938 14.824219 12.5 14.824219 C 12.46875 14.761719 12.449219 14.695312 12.449219 14.625 C 12.449219 14.554688 12.46875 14.484375 12.5 14.425781 M 12.5 13.453125 L 16.15625 13.453125 L 15.851562 13.699219 L 12.5 13.699219 C 12.46875 13.667969 12.453125 13.621094 12.449219 13.578125 C 12.449219 13.53125 12.464844 13.484375 12.5 13.453125 M 12.5 13.949219 L 15.496094 13.949219 C 15.316406 14.066406 15.125 14.171875 14.933594 14.265625 L 12.5 14.265625 C 12.46875 14.214844 12.453125 14.160156 12.453125 14.097656 C 12.457031 14.046875 12.472656 13.996094 12.5 13.949219 "/>
<path style=" stroke:none;fill-rule:nonzero;fill:rgb(98.431373%,81.960785%,8.627451%);fill-opacity:1;" d="M 17.167969 6.917969 L 16.175781 7.851562 L 16.4375 6.507812 L 17.007812 7.75 L 15.824219 7.085938 Z M 15.726562 5.652344 L 14.371094 5.675781 L 15.453125 4.84375 L 15.058594 6.164062 L 14.617188 4.859375 Z M 15.726562 5.652344 "/>
</g>
</svg>
