<svg xmlns="http://www.w3.org/2000/svg" width="25" height="px" viewBox="0 0 25 19"><path d="M0 0h25v19H0z" style="fill:#00785e;fill-opacity:1;stroke:none"/><path d="m11.523 4.3 1.582 1.169-.605-1.887-.605 1.887L13.48 4.3Zm0 0" style="stroke:none;fill-rule:nonzero;fill:#fbd116;fill-opacity:1"/><path d="M12.5 13.125H8.496l-.148-.156H12.5c.035.008.055.043.055.078q-.001.053-.055.078m0-1.238a.5.5 0 0 0 0-.45 3.17 3.17 0 0 1-2.187.89l-2.465.001.226.317h2.383c.781 0 1.492-.286 2.043-.758m-4.281-.977a1.3 1.3 0 0 1-.38.078 3.15 3.15 0 0 0 2.376 1.09c.863 0 1.687-.36 2.285-.992a17.8 17.8 0 0 0 0-5.008c-.258.238-.742.742-.969 1.52a3.1 3.1 0 0 0-.125.914c0 .633.188 1.254.535 1.781a3.23 3.23 0 0 1-.359-3.336 1.3 1.3 0 0 1-.293-.512A3.24 3.24 0 0 0 11.5 9.93a3.68 3.68 0 0 0-2.867-1.16c.11.097.199.218.265.351 1.012 0 1.98.422 2.68 1.164a3.67 3.67 0 0 0-2.383-.879 3.6 3.6 0 0 0-1.433.29 3.17 3.17 0 0 0 3.226 2.066q-.274.048-.562.05c-.82 0-1.614-.324-2.203-.902Zm4.281 3.516h-2.074c.66.261 1.363.398 2.074.398a.44.44 0 0 0 .05-.199.4.4 0 0 0-.05-.2m0-.972H8.844l.304.246H12.5a.2.2 0 0 0 .05-.12.17.17 0 0 0-.05-.126m0 .496H9.504c.18.117.371.223.562.317H12.5a.3.3 0 0 0 .047-.168.35.35 0 0 0-.047-.149" style="stroke:none;fill-rule:nonzero;fill:#fff;fill-opacity:1"/><path d="m7.832 6.918.992.934-.261-1.344-.57 1.242 1.183-.664Zm1.441-1.266 1.356.024-1.082-.832.394 1.32.442-1.305Zm0 0" style="stroke:none;fill-rule:nonzero;fill:#fbd116;fill-opacity:1"/><path d="M12.5 13.125h4.004l.148-.156H12.5c-.035.008-.055.043-.055.078q.001.053.055.078m0-1.238a.5.5 0 0 1 0-.45 3.17 3.17 0 0 0 2.188.89l2.464.001-.226.317h-2.383a3.12 3.12 0 0 1-2.043-.758m4.281-.977c.121.047.25.07.38.078a3.15 3.15 0 0 1-2.376 1.09c-.863 0-1.687-.36-2.285-.992a17.8 17.8 0 0 1 0-5.008c.258.238.742.742.969 1.52q.13.445.125.914c0 .633-.188 1.254-.535 1.781a3.23 3.23 0 0 0 .359-3.336 1.3 1.3 0 0 0 .293-.512A3.24 3.24 0 0 1 13.5 9.93a3.68 3.68 0 0 1 2.867-1.16c-.11.097-.199.218-.265.351-1.012 0-1.98.422-2.68 1.164a3.67 3.67 0 0 1 2.383-.879c.492-.004.98.098 1.433.29a3.17 3.17 0 0 1-3.226 2.066q.274.048.562.05c.82 0 1.614-.324 2.203-.902ZM12.5 14.426h2.074a5.6 5.6 0 0 1-2.074.398.44.44 0 0 1-.05-.199c0-.07.019-.14.05-.2m0-.972h3.656l-.304.246H12.5a.2.2 0 0 1-.05-.12c0-.048.015-.095.05-.126m0 .496h2.996a5 5 0 0 1-.562.317H12.5a.3.3 0 0 1-.047-.168.35.35 0 0 1 .047-.149" style="stroke:none;fill-rule:nonzero;fill:#fff;fill-opacity:1"/><path d="m17.168 6.918-.992.934.262-1.344.57 1.242-1.184-.664Zm-1.441-1.266-1.356.024 1.082-.832-.394 1.32-.442-1.305Zm0 0" style="stroke:none;fill-rule:nonzero;fill:#fbd116;fill-opacity:1"/></svg>