<svg xmlns="http://www.w3.org/2000/svg" width="25" height="px" viewBox="0 0 25 19"><path d="M0 0h25v19H0z" style="fill:#0071bc;fill-opacity:1;stroke:none"/><path d="M370 365.724s15.2-16.086 29.8-13.027c4.4-16.973 21-18.355 21-18.355s-1.7-18.75 19.5-22.796c.6-12.73 13.5-23.388 13.5-23.388s-2.6-19.638 10.8-24.276c-8.2-15.593 2.8-26.941 2.7-27.237-.2-.296-14-24.869-1.6-31.875-13-10.954-8.8-23.388-8.8-23.388s-14.2-3.652-9.1-20.724c-11.7-1.974-14-20.822-14-20.822s-18 3.65-20.2-12.04c-12 1.875-13.2-9.77-13.4-9.77-.1 0-23.5 6.316-28.2-11.447-9.1 4.737-13-3.651-13-3.651s-13 6.513-20.8-6.02c-15.5 9.67-24.2-.395-24.2-.395s-20.3 13.421-27 2.96c-12 12.238-22.8 7.007-22.8 7.007s-9 15.987-23.7 12.04c-3.3 14.901-20.2 15.197-20.2 15.197s1.8 13.125-18.4 16.678c-2.6 15.493-13.2 17.96-13.2 17.96s1 15.198-8.5 20.033c3.4 8.487-5.4 18.948-5.4 18.948s9.4 11.644-3.4 24.868c12.3 3.158 3.4 24.375 3.4 24.375s17 7.599 6.3 21.71c12.2 4.047 8.4 13.619 8.5 19.343 7.8 3.454 14.6 1.776 11.3 17.368 23.8 2.664 12.6 15.79 12.6 15.79s11 .493 6.7 9.276c20.3-.494 23.3 15.197 23.3 15.197s18.8-4.934 21.3 2.369c2.5 7.302-8.2 56.644-8.2 56.644s-16 0-27.8-12.73c-27.8-.79-21.6-19.046-22-19.046-.5 0-9.3 3.355-13.8-11.94-18.6 3.848-18-11.744-18.2-11.942-.2-.197-8.3-3.848-5.3-11.546-19.1 1.777-17.7-16.973-17.7-16.973-4.2-1.678-5.7-5.625-5.1-9.474-2.5-.888-19.5-1.184-10.7-23.586-16.2-9.868-6.1-21.02-6.1-21.02s-22.4-11.644-5.1-25.065c-13-18.947 1-28.421 1-28.421s-17.9-18.158.3-30.987c-3-27.533 13.4-34.145 13.4-34.145s-8.6-22.401 14.8-31.776c1.5-22.697 17.9-23.29 17.9-23.29s.4-18.059 26.2-16.282c5-16.086 22.5-12.83 22.5-12.83s5.4-19.539 29.3-10.164c12.1-23.684 30.2-11.546 30.2-11.546s11.4-7.401 17-5.033c7.3-12.434 22.8-.592 32.7 1.875 3.7-1.48 16.6-11.151 26.5 1.086 13.2-8.586 24.5 7.006 24.5 7.006s18.1-9.276 26.6 11.744c38.5-3.454 33 21.71 33 21.71s30.2-6.908 23.6 23.29c27.6 1.875 24.8 20.033 24.8 20.033s17.4 13.223 9.8 24.967c15.5.79 9.8 15.69 9.8 15.69s11.9 4.639 2 22.994c22.7 18.158 4.4 36.217 4.3 36.02-.2-.099 12.1 14.605 1 31.579 3.4 27.04-10.2 33.848-10.2 33.848s3.5 17.467-11.7 22.402c-.3 20.427-19.7 22.993-19.7 22.993s5.2 8.98-14 18.257c-.8 13.717-20.8 14.802-20.8 14.802s-1.9 25.263-27.4 18.454c-6.1 20.132-36 14.21-36.6 14.013-.5-.296-5.7-43.42-5.7-43.52Zm0 0" style="fill-rule:evenodd;fill:#fff;fill-opacity:1;stroke-width:1.9;stroke-linecap:butt;stroke-linejoin:miter;stroke:#000;stroke-opacity:1;stroke-miterlimit:4" transform="scale(.03906 .03958)"/><path d="M185 124.046s6.4 5.526 5.2 13.915c-1.2 8.486-6 19.934-5 28.52.6 3.552.3 9.67.3 9.67s-5.7-8.19-5.8-16.973 6.2-17.073 6.2-23.586-1.1-11.645-1-11.447Zm-3.2 2.566s-8.4 7.993-9.5 15.69c-.8 4.047-1 22.698-1.2 30.987-.2 2.468-1.2 12.533-1.4 16.185-.3 3.651 6.1-6.217 6.5-14.31-.2-8.289-.2-25.756.6-28.42.8-3.455.6-7.106 1.8-10.56Zm0 0" style="fill-rule:evenodd;fill:#217900;fill-opacity:1;stroke-width:1.9;stroke-linecap:butt;stroke-linejoin:round;stroke:#000;stroke-opacity:1;stroke-miterlimit:4" transform="scale(.03906 .03958)"/><path d="M366 100.46s10.8-4.934 14-14.407c3.2-9.375-9.5-9.375-11.1-6.316-1.7 2.96 1.4 10.263.6 12.237-.8 2.072-5.2 6.612-3.5 8.388Zm0 0" style="fill-rule:evenodd;fill:#ffd200;fill-opacity:1;stroke-width:1.9;stroke-linecap:butt;stroke-linejoin:miter;stroke:#ef8a10;stroke-opacity:1;stroke-miterlimit:4" transform="scale(.03906 .03958)"/><path d="M269.8 103.914s7-9.67 5.2-19.44c-1.9-9.573-12.8-3.553-12.8-.198 0 3.454 6.2 8.29 6.5 10.46.3 2.073-1.3 8.389 1 9.08Zm-19.1 5.724s7-9.77 5.2-19.342-12.8-3.651-12.8-.296 6.3 8.388 6.6 10.46c.3 2.172-1.3 8.389 1 9.178Zm-21.1 6.415s7-9.573 5.2-19.244c-1.9-9.67-12.8-3.75-12.8-.296 0 3.355 6.2 8.388 6.5 10.46.3 2.172-1.3 8.29 1 9.08Zm-15 14.9s7.1-9.67 5.3-19.242-12.8-3.75-12.8-.297c0 3.356 6.3 8.389 6.5 10.461.2 2.171-1.3 8.29 1 9.079ZM199 145.363s7-9.671 5.2-19.342-12.8-3.652-12.8-.198c0 3.356 6.3 8.29 6.6 10.362s-1.3 8.388 1 9.178Zm0 0" style="fill-rule:evenodd;fill:#ffd200;fill-opacity:1;stroke-width:2.5;stroke-linecap:butt;stroke-linejoin:miter;stroke:#ef8a10;stroke-opacity:1;stroke-miterlimit:4" transform="scale(.03906 .03958)"/><path d="M235 61.678s-9.4 7.4-10.2 17.27c-.8 9.77 11.3 6.907 12.2 3.65 1-3.256-3.7-9.67-3.4-11.841.3-1.974 3.5-7.698 1.4-8.98Zm31.3-9.573s-9.3 7.402-10.2 17.171c-.9 9.869 11.3 7.007 12.3 3.75 1-3.355-3.8-9.868-3.5-11.94.3-2.073 3.5-7.698 1.4-8.98ZM149.6 136.58s2 11.842 10.2 17.368c8.2 5.428 11.5-6.611 9.1-9.079-2.4-2.368-10.3-1.381-12-2.565-1.7-1.185-5-6.81-7.3-5.724ZM134 176.645s0 11.94 7.3 18.651c7.3 6.71 12.4-4.737 10.4-7.401-2-2.665-10-2.96-11.4-4.54-1.5-1.579-4-7.5-6.3-6.612Zm36 44.802s-4.2-11.25-13.3-15c-9.1-3.65-10 8.783-7.2 10.658 2.9 1.777 10.4-.69 12.3.198s6.3 5.625 8.3 4.046Zm-7.4-19.44s7.2-9.474 5.6-19.145c-1.6-9.573-12.7-3.948-12.8-.592 0 3.454 6 8.487 6.3 10.658.3 2.072-1.5 8.29.9 9.177Zm225.6-91.875s10.8-5.033 14-14.31c3.2-9.276-9.5-9.375-11.1-6.513-1.7 2.96 1.4 10.362.6 12.336-.8 1.875-5.2 6.612-3.5 8.487Zm32.8 16.381s6.4-10.066 3.9-19.638c-2.5-9.474-13-2.763-12.8.592s6.8 7.895 7.2 10.066c.4 2.072-.7 8.388 1.7 8.98Zm89.6 92.96s-4.3-11.052-13.4-14.9c-9.1-3.652-10 8.782-7.2 10.657 2.9 1.875 10.5-.69 12.3.198 2 .986 6.3 5.625 8.3 4.046Zm-43.8 7.007s.2-11.94 7.5-18.552 12.4 4.835 10.4 7.598c-2.1 2.665-10 2.763-11.6 4.244-1.4 1.579-4 7.401-6.3 6.612Zm-7-126.809s-11.3-4.243-20 0c-9 4.44-.2 13.421 3 12.533s6.4-8.29 8.4-9.079 8.4-.987 8.5-3.454ZM434 78.257s-11.1-4.244-20 0c-8.8 4.44-.1 13.42 3.2 12.532 3.2-.986 6.4-8.289 8.3-9.078 1.9-.79 8.4-.987 8.5-3.454Zm-38-20.33s-9.5 7.303-10.4 16.974c-1 9.77 11.2 7.106 12.2 3.948 1-3.356-3.7-9.869-3.4-11.941s3.6-7.599 1.6-8.98Zm-24.8-6.02s-4.4 11.054-.1 20.034c4.3 8.881 13.3.197 12.4-3.06-.9-3.157-8.2-6.513-9-8.388s-.9-8.486-3.3-8.585Zm-70.5 43.027s7.7-9.276 6.6-19.046c-1.1-9.67-12.5-4.44-12.7-1.085-.3 3.355 5.6 8.783 5.7 10.855.1 2.17-1.9 8.29.4 9.178Zm0 0" style="fill-rule:evenodd;fill:#ffd200;fill-opacity:1;stroke-width:1.9;stroke-linecap:butt;stroke-linejoin:miter;stroke:#ef8a10;stroke-opacity:1;stroke-miterlimit:4" transform="scale(.03906 .03958)"/><path d="M342.8 114.375s18.5 1.184 19.4 11.842c.9 10.56-4.4 17.072-4.4 17.072s2.3 22.994-15.8 29.704c-19.4 2.27-49.9.494-49.9.494s-9 2.17-12.6-16.283c-2.1-10.46-3.6-21.02-4.6-31.579 0 0 1.8-10.46 14.9-11.053 13-.69 52.8 0 53-.197Zm0 0" style="fill-rule:evenodd;fill:#8c8a8c;fill-opacity:1;stroke-width:1.9;stroke-linecap:butt;stroke-linejoin:miter;stroke:#000;stroke-opacity:1;stroke-miterlimit:4" transform="scale(.03906 .03958)"/><path d="M357.7 143.19s-10 12.435-9 17.468" style="fill:none;stroke-width:1.9;stroke-linecap:round;stroke-linejoin:miter;stroke:#000;stroke-opacity:1;stroke-miterlimit:4" transform="scale(.03906 .03958)"/><path d="M344.3 172.303c2.5 2.072 4.8 4.44 5.3 12.04l1 15.394 13 116.546 11.4 84.276.8 13.027s-2.7 9.67-10.4 10.559c-5.5 11.546-35.7 15-38.7 14.901-2.7-.197-12.3-4.243-18.1-3.75s-16 4.44-20.5 3.849c-4.5-.691-14.8-4.244-16.6-11.645-12.7-4.046-14.7-13.717-14.7-13.717l13.7-97.5 13.3-123.355s1.6-16.382 8.2-18.948c6.9-.592 42.4.691 52.3-1.677Zm0 0" style="fill-rule:evenodd;fill:#8c8a8c;fill-opacity:1;stroke-width:1.9;stroke-linecap:butt;stroke-linejoin:miter;stroke:#000;stroke-opacity:1;stroke-miterlimit:4" transform="scale(.03906 .03958)"/><path d="m274.4 341.053-2.7 86.348m86.5-74.901 7.6 71.151" style="fill:none;stroke-width:1.9;stroke-linecap:butt;stroke-linejoin:miter;stroke:#000;stroke-opacity:1;stroke-miterlimit:4" transform="scale(.03906 .03958)"/><path d="m136.6 296.349-.3.987M495 293.19l.3.987" style="fill:none;stroke-width:1;stroke-linecap:butt;stroke-linejoin:miter;stroke:#000;stroke-opacity:1;stroke-miterlimit:4" transform="scale(.03906 .03958)"/><path d="M127 179.803s5.6 7.894 6.7 12.434c1 4.44 2.9 13.322 5.3 16.974 2.5 3.65 16.6 23.881 17.4 32.27.1 5.624-5.9 15-14.7 15.197-5.6-.198-19.8-3.75-20.4-15.987-.6-12.336 4.3-12.533 5-20.033.5-7.401.7-40.658.7-40.855Zm0 0" style="fill:none;stroke-width:1.9;stroke-linecap:butt;stroke-linejoin:round;stroke:#6b18b5;stroke-opacity:1;stroke-miterlimit:4" transform="scale(.03906 .03958)"/><path d="M224.5 72.829s-6 .395-10.4 2.862c-3.5 2.072-9.5 5.329-13.6 11.052-10.6 8.191-26.5 11.941-31.5 18.948-3 4.638-2.8 15.69 4.7 20.526 4.8 2.665 19 7.007 25.8-3.158 6.8-10.066 2.7-12.927 6-19.54a116.2 116.2 0 0 1 19-30.69ZM367 58.026s-4.4-4.046-9.3-5.526c-4-.987-10.6-.592-17.5-1.283-13.3-1.776-27-11.447-35.3-10.263-5.4 1.085-13.3 9.079-11.5 17.664 1.3 5.428 7.3 16.185 19.4 14.112 12.1-2.17 12-4.835 19-7.006 17.4-9.77 35-7.698 35.2-7.698Zm141.4 137.369c1-2.27-.9-6.612-2.2-11.448-1.2-4.046-3.1-10.065-7.7-15.592-5.4-12.138-4.5-28.914-10-35.329-3.7-4.046-14.6-6.612-21-.394-3.9 3.947-11.4 16.579-3.2 25.657 8.2 9.08 11.8 5.724 17.4 10.56 13.5 8.98 20 24.967 26.7 26.546Zm-4.9 106.579c1.9-2.467 5.2-7.402 4.8-11.448-.3-3.256 1.5-13.026 1.7-17.368 1.2-13.224 9.5-24.178 7.2-35.625-1.3-5.428-9.2-13.026-17.8-10.855-5.2 1.579-17 7.993-14.3 20.033 2.7 11.94 6.6 11.644 9.1 18.65 7.3 14.507 2.7 31.777 9.3 36.613Zm0 0" style="fill:none;stroke-width:1;stroke-linecap:butt;stroke-linejoin:round;stroke:#6b18b5;stroke-opacity:1;stroke-miterlimit:4" transform="scale(.03906 .03958)"/><path d="M405.5 386.842s-2.3 4.342 6.8 8.19m11.3-18.453s10-2.467 16.8 0m13.2-25.362c0 .197-1.4 4.44 6.6 10.757m-.8-22.007s5.9 4.342 15.8 4.046m-75.4 8.586s.3 11.546-5.6 16.776m25.4-34.44s9.7 2.368 17.7-1.678m44.6-15.296s2.1 3.059 12.9 2.565m-54.9-9.375c.3.296 12.7 4.244 20.5.691m4.2-47.862s.5-.69 4.3 12.73m5.2-50.427s-.5 7.105-6.2 10.263m42.9-39.474s-8.4 6.81-6.8 9.573m-34.7-14.408s4.3 7.302-2.8 12.237m-18.3-43.52s7.5-.296 10.8 6.118m-24.8-27.236h5.7m24-26.053c0 .099 1.5 1.48-1.4 4.54m-52-3.85s4 6.218 3.3 13.915m19.8-35.131c1.8-.198 7.7-2.764 7.7-2.764m-33.4-22.006c-.1 0-2.2 7.697 1.6 10.56m-11.1 24.966c0 8.388 6.6 6.316 2 14.31m-18.2-21.316a58 58 0 0 0-10.4 9.375m-16.4-13.718s4.4 4.343 3.3 10.264m-16-13.717s-2.2 6.611-5.1 8.289m-18-9.967c-.1.296-3.6 7.796-6 9.079m-25.6-8.98c.2 0 3.5 7.006-.8 11.94m-6.5-47.96c.2.197.7 5.427-2.6 9.967m-28.7 1.875c0 .099 1.4 5.921-7.8 7.895m-9.9 45.197c.2.296 8.9 1.678 8.9 1.678M210 136.579c.2-.197 10.6-3.257 10.6-3.257m-27.4 16.283c.3 0 7.3 1.283 9 .395m-14 6.02s2.3 1.283.4 13.026m-34.2-43.52 4.2 6.217m-18.5 25.954c0-.197 4.2 6.217 9.8 7.402m23 25.164c2.7-.395 5.4-1.085 8-1.974M170 213.85c.2 0-.1-4.342 5.2-7.303M163 224.704c0 .197 5 6.414 8.5 7.303m-11.5 4.736c.6-.197 6-4.934 12.2-4.54m-13.9 20.626s.2 5.329 16.2 3.947m-14.6 15c0-.197 4.7-10.756 14.2-14.802m-1.4 28.42s1.4-4.637 9.4-7.697m-.5 25.46s5.7-4.637 7.8-5.23m-.7 19.244s3.5 3.651 12.2-2.664m-54 5.625c1-.198 13.7-3.158 18 3.454m-13 7.006s13.4-1.776 15.1-.395m32.7 3.06s-1.8 3.75 14.7-2.369m5.8 8.98c-3 5.033.7 9.08-3.2 11.35m-47-4.343c.5-.395 6-2.27 5.2-10.263m-.2 22.302c.7-.197 9.9-4.243 11.8-2.072m6.3 13.619s1.2-8.191 3.8-8.98m10 21.315s7.7-.099 11-2.566m3.8-25.066c.2.198 7.1 3.85 22 .198m-16.4 33.06s2 10.558 2 13.025" style="fill:none;stroke-width:1.9;stroke-linecap:butt;stroke-linejoin:miter;stroke:#000;stroke-opacity:1;stroke-miterlimit:4" transform="scale(.03906 .03958)"/><path d="M232.805 118.973c.005-1.964-.794-3.966-2.035-4.95-1.417-1.065-2.84-1.119-4.16-.029-2.01 1.602-2.13 3.016-2.134 4.98.088 2.214.741 3.9 2.013 5.126 1.539 1.08 2.97 1.075 4.23-.022 1.878-1.558 2.182-2.95 2.071-4.988Zm0 0" style="fill-rule:evenodd;fill:#de2010;fill-opacity:1;stroke-width:1.5;stroke-linecap:butt;stroke-linejoin:miter;stroke:#000;stroke-opacity:1;stroke-miterlimit:4" transform="matrix(.06285 -.00796 .0081 .06561 3.703 2.969)"/><path d="M232.803 118.994c.004-1.964-.795-3.966-2.028-5.009-1.417-1.065-2.847-1.06-4.168.03-2.01 1.602-2.122 2.958-2.134 4.98.088 2.214.741 3.9 2.013 5.127 1.547 1.02 2.97 1.074 4.23-.023 1.886-1.617 2.19-3.009 2.071-4.988Zm0 0" style="fill-rule:evenodd;fill:#de2010;fill-opacity:1;stroke-width:1.5;stroke-linecap:butt;stroke-linejoin:miter;stroke:#000;stroke-opacity:1;stroke-miterlimit:4" transform="matrix(.06285 -.00796 .0081 .06561 3.648 2.268)"/><path d="M232.814 119.005c.001-1.994-.82-3.979-2.04-5.02-1.474-1.033-2.851-1.08-4.171.034-1.991 1.578-2.118 3.002-2.12 4.996.081 2.192.773 3.908 2.027 5.077 1.522 1.104 2.912 1.093 4.16.024 1.93-1.59 2.25-3.034 2.118-4.995Zm0 0" style="fill-rule:evenodd;fill:#de2010;fill-opacity:1;stroke-width:1.5;stroke-linecap:butt;stroke-linejoin:miter;stroke:#000;stroke-opacity:1;stroke-miterlimit:4" transform="matrix(.06191 -.01353 .01375 .06464 3.047 2.93)"/><path d="M232.822 119.01c-.052-2.013-.82-3.982-2.002-5.029-1.457-1.05-2.914-1.04-4.236.031-2.01 1.593-2.122 2.996-2.07 5.01.053 2.146.74 3.876 1.976 5.082 1.511 1.077 2.97 1.067 4.208.021 1.9-1.647 2.205-3.021 2.07-5.01Zm0 0" style="fill-rule:evenodd;fill:#de2010;fill-opacity:1;stroke-width:1.5;stroke-linecap:butt;stroke-linejoin:miter;stroke:#000;stroke-opacity:1;stroke-miterlimit:4" transform="matrix(.05646 -.02907 .02956 .05895 2.184 6.452)"/><path d="M232.82 119.017c-.054-2.014-.794-4.036-2.003-5.03-1.457-1.05-2.915-1.04-4.236.032-2.01 1.592-2.095 2.943-2.07 5.009.053 2.146.739 3.876 1.975 5.082 1.54 1.024 2.97 1.067 4.237-.031 1.872-1.595 2.176-2.969 2.069-5.01Zm0 0" style="fill-rule:evenodd;fill:#de2010;fill-opacity:1;stroke-width:1.5;stroke-linecap:butt;stroke-linejoin:miter;stroke:#000;stroke-opacity:1;stroke-miterlimit:4" transform="matrix(.05646 -.02907 .02956 .05895 1.91 5.823)"/><path d="M232.834 118.998c-.045-1.974-.86-3.993-2.042-4.982-1.477-1.097-2.858-1.094-4.195-.022-1.964 1.598-2.061 3-2.1 4.992.054 2.187.756 3.93 2.031 5.114q2.263 1.57 4.143-.01c1.964-1.598 2.197-2.987 2.1-4.992Zm0 0" style="fill-rule:evenodd;fill:#de2010;fill-opacity:1;stroke-width:1.5;stroke-linecap:butt;stroke-linejoin:miter;stroke:#000;stroke-opacity:1;stroke-miterlimit:4" transform="matrix(.05383 -.03381 .03438 .0562 1.563 6.626)"/><path d="M232.822 118.998c-.033-2.031-.803-4.013-2.04-5.004q-2.134-1.58-4.2.012c-1.954 1.6-2.104 2.974-2.071 5.005.057 2.197.741 3.892 1.966 5.097q2.336 1.618 4.199-.012c1.955-1.599 2.19-2.985 2.12-4.968Zm0 0" style="fill-rule:evenodd;fill:#de2010;fill-opacity:1;stroke-width:1.5;stroke-linecap:butt;stroke-linejoin:miter;stroke:#000;stroke-opacity:1;stroke-miterlimit:4" transform="matrix(.05035 -.03893 .03958 .05257 1.32 7.64)"/><path d="M232.821 119.018c.011-2.018-.801-4.009-2.009-5.04-1.467-1.035-2.853-1.06-4.202.051-2.001 1.562-2.096 2.99-2.106 5.009.075 2.188.716 3.84 2.009 5.04 1.51 1.079 2.897 1.104 4.202.033 1.871-1.606 2.182-2.988 2.106-5.008Zm0 0" style="fill-rule:evenodd;fill:#de2010;fill-opacity:1;stroke-width:1.5;stroke-linecap:butt;stroke-linejoin:miter;stroke:#000;stroke-opacity:1;stroke-miterlimit:4" transform="matrix(.04425 -.04591 .04668 .0462 1.379 9.46)"/><path d="M232.835 118.998c-.018-1.99-.819-3.98-2.065-5.003-1.42-1.04-2.853-1.068-4.176-.026-1.994 1.646-2.09 3.032-2.072 5.022.04 2.205.693 3.925 1.97 5.078 1.544 1.097 2.939 1.078 4.176.027 1.946-1.61 2.215-2.977 2.11-4.977Zm0 0" style="fill-rule:evenodd;fill:#de2010;fill-opacity:1;stroke-width:1.5;stroke-linecap:butt;stroke-linejoin:miter;stroke:#000;stroke-opacity:1;stroke-miterlimit:4" transform="matrix(.0399 -.04984 .05068 .04166 1.34 10.399)"/><path d="M232.8 118.966c-.032-1.977-.777-3.975-1.982-4.964-1.456-1.058-2.88-1.101-4.211-.027-1.983 1.639-2.094 3.007-2.115 5.012.102 2.214.748 3.923 1.991 5.097 1.54 1.08 2.933 1.072 4.211.027 1.93-1.61 2.23-3.013 2.114-5.012Zm0 0" style="fill-rule:evenodd;fill:#de2010;fill-opacity:1;stroke-width:1.5;stroke-linecap:butt;stroke-linejoin:miter;stroke:#000;stroke-opacity:1;stroke-miterlimit:4" transform="matrix(.03118 -.05586 .0568 .03255 2.027 12.469)"/><path d="M232.81 119.017c-.008-2.031-.81-4.044-2.003-5.032-1.492-1.055-2.885-1.036-4.206.001-1.996 1.596-2.074 3.01-2.09 4.986.03 2.22.704 3.96 1.974 5.112 1.572 1.085 2.965 1.066 4.205-.002 1.94-1.571 2.21-3.003 2.09-4.986Zm0 0" style="fill-rule:evenodd;fill:#de2010;fill-opacity:1;stroke-width:1.5;stroke-linecap:butt;stroke-linejoin:miter;stroke:#000;stroke-opacity:1;stroke-miterlimit:4" transform="matrix(.02603 -.0585 .05949 .02718 2.219 13.355)"/><path d="M232.769 119c.017-1.986-.758-4.006-1.973-4.972-1.45-1.073-2.878-1.068-4.167-.027-2.037 1.63-2.099 2.994-2.116 4.98.07 2.212.715 3.895 1.959 5.106 1.586 1.087 2.956 1.103 4.224.006 1.923-1.59 2.234-2.98 2.116-4.98Zm0 0" style="fill-rule:evenodd;fill:#de2010;fill-opacity:1;stroke-width:1.5;stroke-linecap:butt;stroke-linejoin:miter;stroke:#000;stroke-opacity:1;stroke-miterlimit:4" transform="matrix(.0221 -.06014 .06115 .02308 2.262 13.95)"/><path d="M232.824 119.001c-.019-1.988-.808-4.01-2.044-4.973-1.462-1.087-2.85-1.073-4.184-.015-1.991 1.615-2.084 3.011-2.065 4.999.012 2.177.716 3.911 1.96 5.12 1.58 1.055 2.969 1.04 4.227-.058 1.874-1.582 2.16-2.97 2.065-4.999Zm0 0" style="fill-rule:evenodd;fill:#de2010;fill-opacity:1;stroke-width:1.5;stroke-linecap:butt;stroke-linejoin:miter;stroke:#000;stroke-opacity:1;stroke-miterlimit:4" transform="matrix(.0175 -.06168 .06271 .01828 2.46 14.662)"/><path d="M232.787 119.026c.04-2.056-.766-4.009-2-5.004-1.43-1.092-2.842-1.1-4.175-.032-1.997 1.632-2.121 3.035-2.108 5.025.036 2.167.75 3.89 2.008 5.064 1.55 1.077 2.902 1.092 4.175.031 1.936-1.624 2.19-2.983 2.108-5.024Zm0 0" style="fill-rule:evenodd;fill:#de2010;fill-opacity:1;stroke-width:1.5;stroke-linecap:butt;stroke-linejoin:miter;stroke:#000;stroke-opacity:1;stroke-miterlimit:4" transform="matrix(.00792 -.06368 .06474 .00827 3.7 16.186)"/><path d="M232.8 119.013c-.024-2.036-.777-4.044-1.975-5.015q-2.259-1.62-4.203-.016c-2.004 1.635-2.13 3.018-2.108 4.994.03 2.216.71 3.927 1.979 5.135q2.35 1.617 4.203.016c1.882-1.63 2.19-3.02 2.106-5.054Zm0 0" style="fill-rule:evenodd;fill:#de2010;fill-opacity:1;stroke-width:1.5;stroke-linecap:butt;stroke-linejoin:miter;stroke:#000;stroke-opacity:1;stroke-miterlimit:4" transform="matrix(.00254 -.06413 .0652 .00265 4.152 16.918)"/><path d="M232.804 119.013c-.023-2.036-.776-4.044-1.974-5.016q-2.259-1.62-4.203-.015c-2.004 1.635-2.13 3.018-2.108 4.994.03 2.216.71 3.927 1.979 5.135q2.259 1.62 4.203.016c1.882-1.63 2.19-3.02 2.106-5.054Zm0 0" style="fill-rule:evenodd;fill:#de2010;fill-opacity:1;stroke-width:1.5;stroke-linecap:butt;stroke-linejoin:miter;stroke:#000;stroke-opacity:1;stroke-miterlimit:4" transform="matrix(.00254 -.06413 .0652 .00265 3.469 16.942)"/><path d="M232.77 119.006c.038-2.017-.75-3.973-1.95-4.976-1.496-1.069-2.87-1.067-4.24-.02-1.997 1.583-2.076 2.978-2.055 5.01.053 2.16.705 3.901 1.982 5.106 1.51 1.01 2.943 1.021 4.195-.052 1.864-1.551 2.194-2.952 2.113-4.996Zm0 0" style="fill-rule:evenodd;fill:#de2010;fill-opacity:1;stroke-width:1.5;stroke-linecap:butt;stroke-linejoin:miter;stroke:#000;stroke-opacity:1;stroke-miterlimit:4" transform="matrix(-.01411 -.06257 .06361 -.01474 6.738 18.743)"/><path d="M232.785 118.993c.017-2.004-.795-4.013-2-5.012-1.439-1.071-2.846-1.065-4.164.036-2.045 1.569-2.126 2.988-2.143 4.993.12 2.172.775 3.88 2.04 5.087 1.496 1.089 2.903 1.083 4.144.02 1.93-1.603 2.261-3.009 2.144-4.992Zm0 0" style="fill-rule:evenodd;fill:#de2010;fill-opacity:1;stroke-width:1.5;stroke-linecap:butt;stroke-linejoin:miter;stroke:#000;stroke-opacity:1;stroke-miterlimit:4" transform="matrix(-.01916 -.06117 .0622 -.02 7.355 19.23)"/><path d="M232.782 119.024c.015-2.032-.787-4.03-1.994-5.022-1.453-1.036-2.847-1.06-4.205-.015-1.968 1.631-2.086 3.025-2.076 5.003.044 2.19.702 3.926 2.023 5.1 1.51 1.061 2.903 1.084 4.15-.01 1.942-1.575 2.197-2.975 2.131-4.977Zm0 0" style="fill-rule:evenodd;fill:#de2010;fill-opacity:1;stroke-width:1.5;stroke-linecap:butt;stroke-linejoin:miter;stroke:#000;stroke-opacity:1;stroke-miterlimit:4" transform="matrix(-.02621 -.05842 .0594 -.02737 8.668 19.756)"/><path d="M232.834 119c-.026-2.006-.816-4.017-2.044-5.03-1.418-1.049-2.895-1.03-4.211.037-1.975 1.6-2.079 2.986-2.053 4.991.04 2.22.74 3.906 1.983 5.134 1.501 1.025 2.895 1.03 4.211-.037 1.892-1.578 2.162-3.01 2.053-4.991Zm0 0" style="fill-rule:evenodd;fill:#de2010;fill-opacity:1;stroke-width:1.5;stroke-linecap:butt;stroke-linejoin:miter;stroke:#000;stroke-opacity:1;stroke-miterlimit:4" transform="matrix(-.03104 -.05595 .05688 -.0324 9.43 20.12)"/><path d="M232.777 119.016c.014-2.05-.789-4.007-1.968-5.046-1.485-1.032-2.892-1.052-4.208.022-2.016 1.618-2.09 3.039-2.118 5.006.098 2.203.725 3.89 2.017 5.081 1.535 1.066 2.942 1.086 4.172.026 1.93-1.603 2.225-3.018 2.118-5.006Zm0 0" style="fill-rule:evenodd;fill:#de2010;fill-opacity:1;stroke-width:1.5;stroke-linecap:butt;stroke-linejoin:miter;stroke:#000;stroke-opacity:1;stroke-miterlimit:4" transform="matrix(-.03685 -.0522 .05307 -.03847 10.61 20.401)"/><path d="M232.78 118.985c-.02-1.982-.822-3.983-1.94-4.986-1.516-1.097-2.904-1.065-4.255.02-1.965 1.6-2.076 3.001-2.057 4.983.038 2.234.729 3.907 1.992 5.109 1.516 1.096 2.904 1.064 4.17-.013 1.877-1.592 2.208-2.97 2.142-4.99Zm0 0" style="fill-rule:evenodd;fill:#de2010;fill-opacity:1;stroke-width:1.5;stroke-linecap:butt;stroke-linejoin:miter;stroke:#000;stroke-opacity:1;stroke-miterlimit:4" transform="matrix(-.04108 -.04885 .04967 -.04289 11.422 20.591)"/><path d="M232.804 119.005c-.002-2.018-.785-4.026-2-5.018-1.474-1.072-2.86-1.053-4.201.017-2.034 1.585-2.12 3.016-2.073 4.992.046 2.228.742 3.9 2 5.102 1.474 1.073 2.903 1.094 4.158.025 1.904-1.624 2.206-3.016 2.116-5.034Zm0 0" style="fill-rule:evenodd;fill:#de2010;fill-opacity:1;stroke-width:1.5;stroke-linecap:butt;stroke-linejoin:miter;stroke:#000;stroke-opacity:1;stroke-miterlimit:4" transform="matrix(-.04443 -.04574 .0465 -.04639 12.066 20.825)"/><path d="M232.8 118.964c-.01-1.94-.796-3.931-2.014-4.94q-2.205-1.666-4.171-.028c-2.005 1.593-2.126 3.018-2.078 5.002.027 2.236.709 3.925 2 5.108 1.516 1.072 2.906 1.08 4.13-.017 1.919-1.599 2.253-2.967 2.165-4.996Zm0 0" style="fill-rule:evenodd;fill:#de2010;fill-opacity:1;stroke-width:1.5;stroke-linecap:butt;stroke-linejoin:miter;stroke:#000;stroke-opacity:1;stroke-miterlimit:4" transform="matrix(-.04805 -.04181 .04251 -.05017 12.945 20.963)"/><path d="M232.83 119.015c0-2.008-.836-4.031-2.054-5.01-1.423-1.058-2.837-1.046-4.19.002-1.997 1.62-2.087 2.97-2.087 4.978.088 2.236.733 3.885 1.988 5.127 1.56 1.038 2.922 1.06 4.19-.003 1.911-1.634 2.223-2.99 2.137-5.012Zm0 0" style="fill-rule:evenodd;fill:#de2010;fill-opacity:1;stroke-width:1.5;stroke-linecap:butt;stroke-linejoin:miter;stroke:#000;stroke-opacity:1;stroke-miterlimit:4" transform="matrix(-.05218 -.03638 .03699 -.05447 14.16 20.825)"/><path d="M232.784 118.979c.023-1.96-.803-3.997-2.004-4.958-1.47-1.1-2.82-1.084-4.155-.035-2.02 1.614-2.103 3.017-2.102 5.03.022 2.2.697 3.915 1.998 5.09 1.527 1.076 2.932 1.035 4.212.01 1.882-1.618 2.16-3.041 2.045-5.005Zm0 0" style="fill-rule:evenodd;fill:#de2010;fill-opacity:1;stroke-width:1.5;stroke-linecap:butt;stroke-linejoin:miter;stroke:#000;stroke-opacity:1;stroke-miterlimit:4" transform="matrix(-.05757 -.02676 .0272 -.0601 16.246 19.95)"/><path d="M232.806 118.988c-.008-2.002-.796-3.987-2.018-5.01-1.436-1.074-2.858-1.025-4.188-.006-2.022 1.633-2.1 3.037-2.092 5.04.07 2.168.697 3.895 1.98 5.084 1.574 1.09 2.937 1.062 4.188.007 1.906-1.593 2.237-3.022 2.113-4.984Zm0 0" style="fill-rule:evenodd;fill:#de2010;fill-opacity:1;stroke-width:1.5;stroke-linecap:butt;stroke-linejoin:miter;stroke:#000;stroke-opacity:1;stroke-miterlimit:4" transform="matrix(-.05972 -.02136 .02172 -.06236 17.137 19.693)"/><path d="M232.81 118.998c-.005-1.998-.816-3.997-2.026-4.998-1.463-1.053-2.829-1.078-4.211.009-1.955 1.582-2.067 2.998-2.062 4.996.087 2.212.747 3.929 1.971 5.077 1.532 1.12 2.952 1.066 4.212-.01 1.893-1.576 2.197-2.935 2.123-5.001Zm0 0" style="fill-rule:evenodd;fill:#de2010;fill-opacity:1;stroke-width:1.5;stroke-linecap:butt;stroke-linejoin:miter;stroke:#000;stroke-opacity:1;stroke-miterlimit:4" transform="matrix(-.06306 -.00475 .00603 -.05278 19.55 16.07)"/><path d="M232.778 119.008c.035-2.007-.753-4.014-1.999-5.01q-2.18-1.609-4.172.013c-2.028 1.6-2.078 3.005-2.112 5.012.066 2.166.726 3.899 2.012 5.068q2.271 1.588 4.172-.014c1.908-1.573 2.212-2.973 2.126-4.954Zm0 0" style="fill-rule:evenodd;fill:#de2010;fill-opacity:1;stroke-width:1.5;stroke-linecap:butt;stroke-linejoin:miter;stroke:#000;stroke-opacity:1;stroke-miterlimit:4" transform="matrix(-.06175 -.01426 .0145 -.06447 18.297 19.032)"/><path d="M18.75 7.707q.122-.14.262-.082c-.04-.242-.11-.324-.203-.293-.09.027-.133.148-.059.375m.129.719c.09-.082.168-.102.266-.063-.016-.238-.086-.328-.18-.304-.094.02-.14.144-.086.367m-.305-1.383q.082-.16.235-.148c-.098-.223-.188-.282-.274-.23-.078.054-.086.183.04.382Zm-.316-.656q.082-.165.234-.149c-.097-.226-.191-.285-.273-.234s-.086.184.039.383m-.762-1.211c.035-.114.106-.176.203-.18-.129-.207-.23-.25-.3-.187-.07.062-.06.199.097.367m-.504-.524c.04-.12.094-.175.195-.191-.132-.2-.234-.238-.304-.176-.07.07-.055.2.11.367m-1.044-.89c0-.13.04-.2.13-.246-.188-.149-.302-.153-.345-.067-.043.082.008.2.215.313m.547.414q.02-.177.168-.219c-.164-.176-.27-.203-.328-.129-.059.074-.027.203.156.348Zm-1.172-.766c-.011-.12.02-.195.106-.254-.203-.129-.313-.12-.352-.031-.039.086.031.2.25.285Zm-.629-.281c-.03-.121-.011-.2.067-.27-.219-.097-.328-.078-.352.02-.023.094.059.191.285.25m-.683-.215c-.043-.121-.032-.2.043-.277-.227-.075-.332-.043-.352.05-.012.094.078.192.309.227m-.676-.137q-.072-.159.027-.277c-.234-.059-.336-.02-.343.082-.012.094.085.18.316.195m-.711-.054q-.093-.154 0-.278c-.238-.035-.34.016-.336.114 0 .097.106.171.336.164m-1.395.109q-.123-.129-.07-.27c-.234.024-.32.094-.297.188.024.098.145.145.367.082m.688-.094q-.111-.14-.035-.277c-.238-.008-.332.05-.32.152.011.094.124.157.351.125Zm-1.363.239q-.142-.107-.106-.254c-.234.058-.304.144-.27.23.04.09.165.117.376.024m-1.29.601q-.158-.077-.152-.23c-.218.105-.273.199-.218.277.05.078.18.09.37-.047m.626-.32q-.157-.094-.125-.246c-.23.07-.297.16-.254.246s.172.11.375 0Zm-1.782 1.14q-.171-.04-.195-.199c-.195.153-.226.254-.16.32.066.067.195.047.351-.12Zm.551-.46c-.113-.036-.176-.106-.18-.204-.203.125-.246.227-.183.305.062.07.195.059.363-.101m-1.043.949q-.17-.024-.21-.176c-.18.16-.204.273-.13.332.075.062.196.027.34-.16Zm-.441.574c-.121-.004-.2-.055-.227-.149-.164.176-.18.286-.101.34s.199.008.328-.191m-.367.594c-.125.008-.196-.028-.25-.117-.133.203-.133.316-.047.355s.199-.023.297-.238m-.325.636c-.113.024-.199-.003-.261-.09-.106.22-.09.329 0 .356.09.035.195-.047.261-.27Zm-.257.645c-.118.043-.196.031-.274-.04-.07.227-.039.337.059.352.093.012.183-.082.215-.316Zm-.176.719q-.158.08-.274-.02c-.054.238-.015.336.078.344.098.012.184-.086.196-.324m-.07.601q-.146.084-.274.02c-.027.195.023.27.117.261.094-.007.168-.093.156-.28M17.973 5.8q.06-.177.207-.184c-.125-.207-.223-.25-.297-.191-.074.062-.063.199.09.375m.984 3.363c.086-.086.176-.11.266-.062-.016-.243-.086-.329-.18-.309s-.14.14-.086.371" style="stroke:none;fill-rule:evenodd;fill:#ffe300;fill-opacity:1"/><path d="M461.3 132.04s-7 6.907-5.7 15.197 6.5 18.552 5.5 27.237-2.5 14.309-2.5 14.309 8-9.08 8-17.96c.2-8.685-5.4-20.33-5.4-26.744s.3-12.138.1-11.94Zm12.7 27.927s-5.3 4.046-4.8 13.026 10 25.856 10 25.856 6.8 13.914 6.5 17.664c-.3 3.651 1.3-3.552.6-11.546s-11-25.756-11-25.756-2.2-3.652-2-9.672c.2-6.118.8-9.473.8-9.572Zm0 0" style="fill-rule:evenodd;fill:#217900;fill-opacity:1;stroke-width:1.9;stroke-linecap:butt;stroke-linejoin:round;stroke:#000;stroke-opacity:1;stroke-miterlimit:4" transform="scale(.03906 .03958)"/><path d="M12.227 1.875c0-.07-.086-.133-.188-.133-.101 0-.184.063-.184.133 0 .074.079.137.184.137.106 0 .184-.059.184-.137Zm.078.316c0-.07-.086-.128-.196-.128-.101 0-.187.054-.187.124 0 .075.086.133.191.133s.188-.058.188-.132Zm.234-.37s-.219.163-.129.23c.09.066.336-.145.336-.145Zm6.379 3.777q-.001-.076-.055-.118a.13.13 0 0 0-.117 0 .14.14 0 0 0-.055.118c0 .074.02.09.055.113a.11.11 0 0 0 .117 0 .13.13 0 0 0 .055-.113m-.082-.317c0-.078-.055-.14-.117-.14s-.121.066-.121.144.054.137.117.137c.062 0 .12-.063.12-.137Zm.059.64q-.006-.07-.047-.07c-.04-.003-.047.032-.047.07 0 .04.02.075.047.075s.047-.035.047-.074m.19-.57c-.003-.051-.019-.082-.046-.082q-.04.005-.047.078c-.004.07.02.086.047.086s.047-.04.047-.082m-.523.054c-.004-.043-.02-.062-.047-.066-.04-.004-.047.031-.047.066s.02.07.047.07.047-.03.047-.07m.082.453c0-.058-.043-.109-.098-.109s-.098.05-.098.11c0 .058.04.109.098.109s.098-.047.098-.11m-.258-.199c0-.05-.04-.094-.082-.094s-.086.04-.086.094c0 .055.039.094.086.094q.071 0 .078-.094Zm-.04-.27a.08.08 0 0 0-.038-.066.08.08 0 0 0-.075 0 .08.08 0 0 0-.035.067c0 .03.016.058.04.07a.08.08 0 0 0 .07 0q.04-.024.039-.07m1.175 1.363c-.105-.145-.277-.203-.382-.137-.102.07-.102.238.007.387.106.14.274.2.38.133.105-.07.105-.239 0-.383Zm.305 2.64c.02-.18-.062-.332-.187-.351-.125-.012-.243.121-.266.293-.023.176.066.332.191.348s.243-.121.262-.29m.063 1.536c.039-.176-.036-.336-.157-.364-.125-.023-.254.094-.289.266s.04.336.157.36c.125.027.253-.094.289-.266Zm.293-1.442c0-.066-.047-.12-.102-.12s-.105.054-.105.12c0 .067.046.125.105.125s.102-.054.102-.125m-.254.29-.211.245s-.2.004-.188.07c.012.067.274.262.274.34-.004.079.172-.019.172-.019l.144-.437s-.008-.305-.086-.301-.098.097-.105.101M5.969 9.684c.008-.043-.008-.086-.043-.106a.1.1 0 0 0-.114 0c-.035.02-.05.063-.042.106a.1.1 0 0 0 .097.082c.051 0 .094-.036.102-.082m.097-.317a.104.104 0 0 0-.101-.105c-.055 0-.102.047-.102.11 0 .058.047.105.102.105a.116.116 0 0 0 .101-.106Zm-.832-1.48c-.039-.09-.117-.137-.175-.11-.059.028-.079.121-.04.207.04.086.118.133.176.106.063-.027.078-.117.04-.203m.253.926c-.054-.114-.16-.176-.242-.141s-.105.156-.055.265c.051.11.157.176.243.141.086-.039.105-.156.054-.265m.266.68c.02-.138-.04-.27-.125-.286-.086-.016-.172.078-.191.219-.02.136.039.265.128.285.09.02.172-.082.188-.219m-.43.098c.055-.13.035-.27-.043-.309s-.187.028-.242.16c-.055.13-.035.266.047.309s.184-.027.238-.16" style="stroke:none;fill-rule:evenodd;fill:#6b18b5;fill-opacity:1"/><path d="M5.129 9.293a.114.114 0 0 0-.113-.117.117.117 0 0 0-.114.117c0 .066.051.121.118.121.066 0 .109-.05.109-.121m-.09-.297a.104.104 0 0 0-.101-.105.1.1 0 0 0-.075.035.1.1 0 0 0-.027.074c0 .059.047.11.101.11s.102-.051.102-.114m.094-.566c0-.102-.043-.18-.098-.18s-.098.078-.098.18c0 .105.043.183.098.183s.098-.078.098-.183m.305-.043c.011-.098-.02-.184-.079-.196-.05-.004-.105.07-.117.168-.015.098.02.188.074.196.055.008.106-.067.118-.168Zm2.148-4.352c.043-.144 0-.285-.09-.316-.09-.04-.195.05-.234.191-.04.145 0 .285.09.317.09.035.195-.051.234-.192m-.406.63c.117-.11.172-.25.117-.321-.059-.078-.203-.051-.324.054-.121.102-.168.247-.114.317.059.074.204.05.32-.05m-.234-.349c.117-.093.164-.214.11-.277-.055-.066-.196-.043-.313.047-.12.09-.172.21-.117.277.055.063.195.04.316-.047Zm.918-.617c.078-.062.114-.148.078-.191-.039-.04-.136-.028-.218.035-.082.062-.114.144-.075.191.04.043.133.028.215-.035" style="stroke:none;fill-rule:evenodd;fill:#6b18b5;fill-opacity:1"/><path d="M7.383 4.293c.054-.086.058-.176.008-.203s-.137.015-.192.101-.058.18-.008.207c.051.028.137-.02.192-.105m.691-.367c.086-.074.117-.168.078-.219-.047-.047-.156-.023-.242.05-.086.071-.117.169-.074.216.043.05.152.023.238-.047m-1.25.855c.078 0 .14-.043.133-.09 0-.043-.074-.078-.156-.074-.078.004-.14.047-.133.09.004.047.078.078.156.078Zm1.512-1.308c.055-.09.059-.18.008-.207-.047-.028-.133.015-.188.101-.054.09-.058.18-.008.207.051.028.133-.015.188-.101" style="stroke:none;fill-rule:evenodd;fill:#6b18b5;fill-opacity:1"/><path d="M446.8 153.355s6.4-10.066 4-19.638-13-2.763-12.8.69c.2 3.257 6.8 7.896 7.2 9.968.4 2.171-.8 8.29 1.6 8.98Zm0 0" style="fill-rule:evenodd;fill:#ffd200;fill-opacity:1;stroke-width:1;stroke-linecap:butt;stroke-linejoin:miter;stroke:#ef8a10;stroke-opacity:1;stroke-miterlimit:4" transform="scale(.03906 .03958)"/><path d="M324.9 69.276s23 .888 23.1 15.79c0 2.368 0 5.033-.8 11.743 4.6-2.467 7.6-9.276 7-13.717.1-15.099-20.5-25.46-29.3-13.816Zm0 0" style="fill-rule:evenodd;fill:#217900;fill-opacity:1;stroke-width:2.3;stroke-linecap:butt;stroke-linejoin:round;stroke:#000;stroke-opacity:1;stroke-miterlimit:4" transform="scale(.03906 .03958)"/><path d="M310.3 68.586s18.5-3.75 18.7 11.052c.1 15-6 17.27-6 17.27s14.3-2.96 14.4-18.06c.1-15.197-18.3-21.907-27.1-10.262Zm0 0" style="fill-rule:evenodd;fill:#217900;fill-opacity:1;stroke-width:2.3;stroke-linecap:butt;stroke-linejoin:round;stroke:#000;stroke-opacity:1;stroke-miterlimit:4" transform="scale(.03906 .03958)"/><path d="M373.3 390s86.8-24.572 113-130.954C471 368.092 376 403.026 376 403.026L373.2 390Zm0 0" style="fill-rule:evenodd;fill:#f7df73;fill-opacity:1;stroke-width:2.5;stroke-linecap:butt;stroke-linejoin:round;stroke:#000;stroke-opacity:1;stroke-miterlimit:4" transform="scale(.03906 .03958)"/><path d="M14.93 15.7c.105 0 .363-.294.511-.325s.164-.187-.004-.191c-.171-.008-.32.199-.32.199s-.148.125-.305.14c-.156.016-.054.215.118.176" style="stroke:none;fill-rule:evenodd;fill:#8c1800;fill-opacity:1"/><path d="M432.2 359.31s-9 5.23-7.8 6.512c1.2 1.283 9.3-5.033 9.5-5.033.1-.197 3.4-4.144-1.7-1.48Zm0 0" style="fill-rule:evenodd;fill:#8c1800;fill-opacity:1;stroke-width:2.5;stroke-linecap:butt;stroke-linejoin:miter;stroke:#8c1800;stroke-opacity:1;stroke-miterlimit:4" transform="scale(.03906 .03958)"/><path d="M15.652 15.16s-.105-.039.164-.14c.274-.11.254-.23.344-.282.086-.054.274-.187.313-.11.039.083-.196.24-.254.255-.055.015-.324.27-.403.289-.078.023-.132.015-.164-.012" style="stroke:none;fill-rule:evenodd;fill:#8c1800;fill-opacity:1"/><path d="M445.6 345.987c-6 6.71-6 6.513-6 6.513" style="fill:none;stroke-width:3;stroke-linecap:round;stroke-linejoin:miter;stroke:#8c1800;stroke-opacity:1;stroke-miterlimit:4" transform="scale(.03906 .03958)"/><path d="m454.5 335.23-5.7 6.908" style="fill:none;stroke-width:2.8;stroke-linecap:round;stroke-linejoin:miter;stroke:#8c1800;stroke-opacity:1;stroke-miterlimit:4" transform="scale(.03906 .03958)"/><path d="m463.4 321.02-6.4 10.164" style="fill:none;stroke-width:2.5;stroke-linecap:round;stroke-linejoin:miter;stroke:#8c1800;stroke-opacity:1;stroke-miterlimit:4" transform="scale(.03906 .03958)"/><path d="m470.9 306.612-5.3 10.46m8.6-17.96-1.6 3.552" style="fill:none;stroke-width:2.3;stroke-linecap:round;stroke-linejoin:miter;stroke:#8c1800;stroke-opacity:1;stroke-miterlimit:4" transform="scale(.03906 .03958)"/><path d="m478 289.046-1.4 4.342" style="fill:none;stroke-width:1.4;stroke-linecap:round;stroke-linejoin:miter;stroke:#8c1800;stroke-opacity:1;stroke-miterlimit:4" transform="scale(.03906 .03958)"/><path d="M160.275 215.998s52.015-14.681 67.602-78.513c-9.062 65.514-65.97 86.23-65.97 86.23Zm0 0" style="fill-rule:evenodd;fill:#f7df73;fill-opacity:1;stroke-width:1.5;stroke-linecap:butt;stroke-linejoin:round;stroke:#000;stroke-opacity:1;stroke-miterlimit:4" transform="matrix(-.06466 0 0 .06732 20.5 .807)"/><path d="M9.793 15.613c-.105 0-.36-.297-.508-.332-.148-.031-.164-.187.004-.195.172 0 .316.2.316.2s.149.132.301.152c.153.019.055.214-.113.175" style="stroke:none;fill-rule:evenodd;fill:#8c1800;fill-opacity:1"/><path d="M195.496 197.603s-5.377 3.191-4.592 4.004c.725.696 5.498-3.018 5.619-3.134.06-.058 1.993-2.495-1.027-.87Zm0 0" style="fill-rule:evenodd;fill:#8c1800;fill-opacity:1;stroke-width:1.5;stroke-linecap:butt;stroke-linejoin:miter;stroke:#8c1800;stroke-opacity:1;stroke-miterlimit:4" transform="matrix(-.06466 0 0 .06732 20.5 .807)"/><path d="M9.078 15.066s.102-.039-.164-.148c-.266-.105-.254-.238-.34-.285s-.273-.184-.312-.106c-.04.078.195.239.254.254.054.02.32.278.398.297q.117.03.164-.012" style="stroke:none;fill-rule:evenodd;fill:#8c1800;fill-opacity:1"/><path d="m203.47 189.711-3.443 3.888" style="fill:none;stroke-width:1.8;stroke-linecap:round;stroke-linejoin:miter;stroke:#8c1800;stroke-opacity:1;stroke-miterlimit:4" transform="matrix(-.06466 0 0 .06732 20.5 .807)"/><path d="m208.907 183.212-3.383 4.062" style="fill:none;stroke-width:1.7;stroke-linecap:round;stroke-linejoin:miter;stroke:#8c1800;stroke-opacity:1;stroke-miterlimit:4" transform="matrix(-.06466 0 0 .06732 20.5 .807)"/><path d="m214.224 174.682-3.806 6.093" style="fill:none;stroke-width:1.5;stroke-linecap:round;stroke-linejoin:miter;stroke:#8c1800;stroke-opacity:1;stroke-miterlimit:4" transform="matrix(-.06466 0 0 .06732 20.5 .807)"/><path d="m218.694 166.093-3.202 6.326m5.196-10.91-.967 2.205" style="fill:none;stroke-width:1.4;stroke-linecap:round;stroke-linejoin:miter;stroke:#8c1800;stroke-opacity:1;stroke-miterlimit:4" transform="matrix(-.06466 0 0 .06732 20.5 .807)"/><path d="m222.983 155.474-.906 2.728" style="fill:none;stroke-width:.8;stroke-linecap:round;stroke-linejoin:miter;stroke:#8c1800;stroke-opacity:1;stroke-miterlimit:4" transform="matrix(-.06466 0 0 .06732 20.5 .807)"/><path d="M490.4 239.31c.5 6.71 7 13.026 4.4 24.67-3.2 13.323-14.8 44.704-12.8 50.23-3.4-4.736-2.8-8.98-3-15.592-.4-6.513 9.4-30.888 10.3-39.079 0-7.4.7-17.565 1.1-20.23Zm0 0" style="fill-rule:evenodd;fill:#217900;fill-opacity:1;stroke-width:2.3;stroke-linecap:butt;stroke-linejoin:round;stroke:#000;stroke-opacity:1;stroke-miterlimit:4" transform="scale(.03906 .03958)"/><path d="M490.4 239.408s10.7 13.52 10.1 24.178c-.6 10.756-6.5 23.19-4.5 28.717-3.1-4.046-4.8-9.08-4.6-14.21-.3-6.514 5.3-13.817 4.1-20.922-1.1-7.007-5.2-17.763-5-17.763Zm-349.3 2.96c-.4 6.71-5.4 12.73-2.8 24.375 3.2 13.224 15 30 13 49.145 3.5-4.737 4.5-9.967 4.8-16.48s-13-28.52-13.8-36.81c0-7.4-.8-17.466-1.2-20.23Zm0 0" style="fill-rule:evenodd;fill:#217900;fill-opacity:1;stroke-width:2.3;stroke-linecap:butt;stroke-linejoin:round;stroke:#000;stroke-opacity:1;stroke-miterlimit:4" transform="scale(.03906 .03958)"/><path d="M141.1 242.566s-10.4 13.026-9.8 23.783c.1 7.006 13.2 36.71 11.2 42.335 3.5-4.638 4.4-4.046 4.3-11.151-3.8-18.355-10.7-29.901-9.5-37.007s4-18.059 3.8-18.059Zm0 0" style="fill-rule:evenodd;fill:#217900;fill-opacity:1;stroke-width:2.3;stroke-linecap:butt;stroke-linejoin:round;stroke:#000;stroke-opacity:1;stroke-miterlimit:4" transform="scale(.03906 .03958)"/><path d="m99.986 125.766 21.972 68.255h72.007l-57.932 42.172 22.057 68.17-58.018-42.088-57.932 42.087 21.971-68.17-58.103-42.171h71.75Zm0 0" style="fill-rule:nonzero;fill:#fff;fill-opacity:1;stroke-width:1.7;stroke-linecap:square;stroke-linejoin:round;stroke:#000;stroke-opacity:1;stroke-miterlimit:4" transform="matrix(.04551 0 0 .04613 7.89 -.934)"/></svg>