<?xml version="1.0" encoding="UTF-8"?>
<svg xmlns="http://www.w3.org/2000/svg" xmlns:xlink="http://www.w3.org/1999/xlink" width="25px" height="px" viewBox="0 0 25 19" version="1.1">
<g id="surface1">
<rect x="0" y="0" width="25" height="19" style="fill:rgb(0%,44.313726%,73.725492%);fill-opacity:1;stroke:none;"/>
<path style="fill-rule:evenodd;fill:rgb(100%,100%,100%);fill-opacity:1;stroke-width:1.9;stroke-linecap:butt;stroke-linejoin:miter;stroke:rgb(0%,0%,0%);stroke-opacity:1;stroke-miterlimit:4;" d="M 370 365.723684 C 370 365.723684 385.2 349.638158 399.8 352.697368 C 404.2 335.723684 420.8 334.342105 420.8 334.342105 C 420.8 334.342105 419.1 315.592105 440.3 311.546053 C 440.9 298.815789 453.8 288.157895 453.8 288.157895 C 453.8 288.157895 451.2 268.519737 464.6 263.881579 C 456.4 248.289474 467.4 236.940789 467.3 236.644737 C 467.1 236.348684 453.3 211.776316 465.7 204.769737 C 452.7 193.815789 456.9 181.381579 456.9 181.381579 C 456.9 181.381579 442.7 177.730263 447.8 160.657895 C 436.1 158.684211 433.8 139.835526 433.8 139.835526 C 433.8 139.835526 415.8 143.486842 413.6 127.796053 C 401.6 129.671053 400.4 118.026316 400.2 118.026316 C 400.1 118.026316 376.7 124.342105 372 106.578947 C 362.9 111.315789 359 102.927632 359 102.927632 C 359 102.927632 346 109.440789 338.2 96.907895 C 322.7 106.578947 314 96.513158 314 96.513158 C 314 96.513158 293.7 109.934211 287 99.473684 C 275 111.710526 264.2 106.480263 264.2 106.480263 C 264.2 106.480263 255.2 122.467105 240.5 118.519737 C 237.2 133.421053 220.3 133.717105 220.3 133.717105 C 220.3 133.717105 222.1 146.842105 201.9 150.394737 C 199.3 165.888158 188.7 168.355263 188.7 168.355263 C 188.7 168.355263 189.7 183.552632 180.2 188.388158 C 183.6 196.875 174.8 207.335526 174.8 207.335526 C 174.8 207.335526 184.2 218.980263 171.4 232.203947 C 183.7 235.361842 174.8 256.578947 174.8 256.578947 C 174.8 256.578947 191.8 264.177632 181.1 278.289474 C 193.3 282.335526 189.5 291.907895 189.6 297.631579 C 197.4 301.085526 204.2 299.407895 200.9 315 C 224.7 317.664474 213.5 330.789474 213.5 330.789474 C 213.5 330.789474 224.5 331.282895 220.2 340.065789 C 240.5 339.572368 243.5 355.263158 243.5 355.263158 C 243.5 355.263158 262.3 350.328947 264.8 357.631579 C 267.3 364.934211 256.6 414.276316 256.6 414.276316 C 256.6 414.276316 240.6 414.276316 228.8 401.546053 C 201 400.756579 207.2 382.5 206.8 382.5 C 206.3 382.5 197.5 385.855263 193 370.559211 C 174.4 374.407895 175 358.815789 174.8 358.618421 C 174.6 358.421053 166.5 354.769737 169.5 347.072368 C 150.4 348.848684 151.8 330.098684 151.8 330.098684 C 147.6 328.421053 146.1 324.473684 146.7 320.625 C 144.2 319.736842 127.2 319.440789 136 297.039474 C 119.8 287.171053 129.9 276.019737 129.9 276.019737 C 129.9 276.019737 107.5 264.375 124.8 250.953947 C 111.8 232.006579 125.8 222.532895 125.8 222.532895 C 125.8 222.532895 107.9 204.375 126.1 191.546053 C 123.1 164.013158 139.5 157.401316 139.5 157.401316 C 139.5 157.401316 130.9 135 154.3 125.625 C 155.8 102.927632 172.2 102.335526 172.2 102.335526 C 172.2 102.335526 172.6 84.276316 198.4 86.052632 C 203.4 69.967105 220.9 73.223684 220.9 73.223684 C 220.9 73.223684 226.3 53.684211 250.2 63.059211 C 262.3 39.375 280.4 51.513158 280.4 51.513158 C 280.4 51.513158 291.8 44.111842 297.4 46.480263 C 304.7 34.046053 320.2 45.888158 330.1 48.355263 C 333.8 46.875 346.7 37.203947 356.6 49.440789 C 369.8 40.855263 381.1 56.447368 381.1 56.447368 C 381.1 56.447368 399.2 47.171053 407.7 68.190789 C 446.2 64.736842 440.7 89.901316 440.7 89.901316 C 440.7 89.901316 470.9 82.993421 464.3 113.190789 C 491.9 115.065789 489.1 133.223684 489.1 133.223684 C 489.1 133.223684 506.5 146.447368 498.9 158.190789 C 514.4 158.980263 508.7 173.881579 508.7 173.881579 C 508.7 173.881579 520.6 178.519737 510.7 196.875 C 533.4 215.032895 515.1 233.092105 515 232.894737 C 514.8 232.796053 527.1 247.5 516 264.473684 C 519.4 291.513158 505.8 298.322368 505.8 298.322368 C 505.8 298.322368 509.3 315.789474 494.1 320.723684 C 493.8 341.151316 474.4 343.717105 474.4 343.717105 C 474.4 343.717105 479.6 352.697368 460.4 361.973684 C 459.6 375.690789 439.6 376.776316 439.6 376.776316 C 439.6 376.776316 437.7 402.039474 412.2 395.230263 C 406.1 415.361842 376.2 409.440789 375.6 409.243421 C 375.1 408.947368 369.9 365.822368 369.9 365.723684 Z M 370 365.723684 " transform="matrix(0.0390625,0,0,0.0395833,0,0)"/>
<path style="fill-rule:evenodd;fill:rgb(12.941177%,47.450981%,0%);fill-opacity:1;stroke-width:1.9;stroke-linecap:butt;stroke-linejoin:round;stroke:rgb(0%,0%,0%);stroke-opacity:1;stroke-miterlimit:4;" d="M 185 124.046053 C 185 124.046053 191.4 129.572368 190.2 137.960526 C 189 146.447368 184.2 157.894737 185.2 166.480263 C 185.8 170.032895 185.5 176.151316 185.5 176.151316 C 185.5 176.151316 179.8 167.960526 179.7 159.177632 C 179.6 150.394737 185.9 142.105263 185.9 135.592105 C 185.9 129.078947 184.8 123.947368 184.9 124.144737 Z M 181.8 126.611842 C 181.8 126.611842 173.4 134.605263 172.3 142.302632 C 171.5 146.348684 171.3 165 171.1 173.289474 C 170.9 175.756579 169.9 185.822368 169.7 189.473684 C 169.4 193.125 175.8 183.256579 176.2 175.164474 C 176 166.875 176 149.407895 176.8 146.743421 C 177.6 143.289474 177.4 139.638158 178.6 136.184211 Z M 181.8 126.611842 " transform="matrix(0.0390625,0,0,0.0395833,0,0)"/>
<path style="fill-rule:evenodd;fill:rgb(100%,82.352942%,0%);fill-opacity:1;stroke-width:1.9;stroke-linecap:butt;stroke-linejoin:miter;stroke:rgb(93.725491%,54.11765%,6.27451%);stroke-opacity:1;stroke-miterlimit:4;" d="M 366 100.460526 C 366 100.460526 376.8 95.526316 380 86.052632 C 383.2 76.677632 370.5 76.677632 368.9 79.736842 C 367.2 82.697368 370.3 90 369.5 91.973684 C 368.7 94.046053 364.3 98.585526 366 100.361842 Z M 366 100.460526 " transform="matrix(0.0390625,0,0,0.0395833,0,0)"/>
<path style="fill-rule:evenodd;fill:rgb(100%,82.352942%,0%);fill-opacity:1;stroke-width:2.5;stroke-linecap:butt;stroke-linejoin:miter;stroke:rgb(93.725491%,54.11765%,6.27451%);stroke-opacity:1;stroke-miterlimit:4;" d="M 269.8 103.914474 C 269.8 103.914474 276.8 94.243421 275 84.473684 C 273.1 74.901316 262.2 80.921053 262.2 84.276316 C 262.2 87.730263 268.4 92.565789 268.7 94.736842 C 269 96.809211 267.4 103.125 269.7 103.815789 Z M 250.7 109.638158 C 250.7 109.638158 257.7 99.868421 255.9 90.296053 C 254.1 80.723684 243.1 86.644737 243.1 90 C 243.1 93.355263 249.4 98.388158 249.7 100.460526 C 250 102.631579 248.4 108.848684 250.7 109.638158 Z M 229.6 116.052632 C 229.6 116.052632 236.6 106.480263 234.8 96.809211 C 232.9 87.138158 222 93.059211 222 96.513158 C 222 99.868421 228.2 104.901316 228.5 106.973684 C 228.8 109.144737 227.2 115.263158 229.5 116.052632 Z M 214.6 130.953947 C 214.6 130.953947 221.7 121.282895 219.9 111.710526 C 218.1 102.138158 207.1 107.960526 207.1 111.414474 C 207.1 114.769737 213.4 119.802632 213.6 121.875 C 213.8 124.046053 212.3 130.164474 214.6 130.953947 Z M 199 145.361842 C 199 145.361842 206 135.690789 204.2 126.019737 C 202.4 116.348684 191.4 122.368421 191.4 125.822368 C 191.4 129.177632 197.7 134.111842 198 136.184211 C 198.3 138.256579 196.7 144.572368 199 145.361842 Z M 199 145.361842 " transform="matrix(0.0390625,0,0,0.0395833,0,0)"/>
<path style="fill-rule:evenodd;fill:rgb(100%,82.352942%,0%);fill-opacity:1;stroke-width:1.9;stroke-linecap:butt;stroke-linejoin:miter;stroke:rgb(93.725491%,54.11765%,6.27451%);stroke-opacity:1;stroke-miterlimit:4;" d="M 235 61.677632 C 235 61.677632 225.6 69.078947 224.8 78.947368 C 224 88.717105 236.1 85.855263 237 82.598684 C 238 79.342105 233.3 72.927632 233.6 70.756579 C 233.9 68.782895 237.1 63.059211 235 61.776316 Z M 266.3 52.105263 C 266.3 52.105263 257 59.506579 256.1 69.276316 C 255.2 79.144737 267.4 76.282895 268.4 73.026316 C 269.4 69.671053 264.6 63.157895 264.9 61.085526 C 265.2 59.013158 268.4 53.388158 266.3 52.105263 Z M 149.6 136.578947 C 149.6 136.578947 151.6 148.421053 159.8 153.947368 C 168 159.375 171.3 147.335526 168.9 144.868421 C 166.5 142.5 158.6 143.486842 156.9 142.302632 C 155.2 141.118421 151.9 135.493421 149.6 136.578947 Z M 134 176.644737 C 134 176.644737 134 188.585526 141.3 195.296053 C 148.6 202.006579 153.7 190.559211 151.7 187.894737 C 149.7 185.230263 141.7 184.934211 140.3 183.355263 C 138.8 181.776316 136.3 175.855263 134 176.743421 Z M 170 221.447368 C 170 221.447368 165.8 210.197368 156.7 206.447368 C 147.6 202.796053 146.7 215.230263 149.5 217.105263 C 152.4 218.881579 159.9 216.414474 161.8 217.302632 C 163.7 218.190789 168.1 222.927632 170.1 221.348684 Z M 162.6 202.006579 C 162.6 202.006579 169.8 192.532895 168.2 182.861842 C 166.6 173.289474 155.5 178.914474 155.4 182.269737 C 155.4 185.723684 161.4 190.756579 161.7 192.927632 C 162 195 160.2 201.217105 162.6 202.105263 Z M 388.2 110.131579 C 388.2 110.131579 399 105.098684 402.2 95.822368 C 405.4 86.546053 392.7 86.447368 391.1 89.309211 C 389.4 92.269737 392.5 99.671053 391.7 101.644737 C 390.9 103.519737 386.5 108.256579 388.2 110.131579 Z M 421 126.513158 C 421 126.513158 427.4 116.447368 424.9 106.875 C 422.4 97.401316 411.9 104.111842 412.1 107.467105 C 412.3 110.822368 418.9 115.361842 419.3 117.532895 C 419.7 119.605263 418.6 125.921053 421 126.513158 Z M 510.6 219.473684 C 510.6 219.473684 506.3 208.421053 497.2 204.572368 C 488.1 200.921053 487.2 213.355263 490 215.230263 C 492.9 217.105263 500.5 214.539474 502.3 215.427632 C 504.3 216.414474 508.6 221.052632 510.6 219.473684 Z M 466.8 226.480263 C 466.8 226.480263 467 214.539474 474.3 207.927632 C 481.6 201.315789 486.7 212.763158 484.7 215.526316 C 482.6 218.190789 474.7 218.289474 473.1 219.769737 C 471.7 221.348684 469.1 227.171053 466.8 226.381579 Z M 459.8 99.671053 C 459.8 99.671053 448.5 95.427632 439.8 99.671053 C 430.8 104.111842 439.6 113.092105 442.8 112.203947 C 446 111.315789 449.2 103.914474 451.2 103.125 C 453.2 102.335526 459.6 102.138158 459.7 99.671053 Z M 434 78.256579 C 434 78.256579 422.9 74.013158 414 78.256579 C 405.2 82.697368 413.9 91.677632 417.2 90.789474 C 420.4 89.802632 423.6 82.5 425.5 81.710526 C 427.4 80.921053 433.9 80.723684 434 78.256579 Z M 396 57.927632 C 396 57.927632 386.5 65.230263 385.6 74.901316 C 384.6 84.671053 396.8 82.006579 397.8 78.848684 C 398.8 75.493421 394.1 68.980263 394.4 66.907895 C 394.7 64.835526 398 59.309211 396 57.927632 Z M 371.2 51.907895 C 371.2 51.907895 366.8 62.960526 371.1 71.940789 C 375.4 80.822368 384.4 72.138158 383.5 68.881579 C 382.6 65.723684 375.3 62.368421 374.5 60.493421 C 373.7 58.618421 373.6 52.006579 371.2 51.907895 Z M 300.7 94.934211 C 300.7 94.934211 308.4 85.657895 307.3 75.888158 C 306.2 66.217105 294.8 71.447368 294.6 74.802632 C 294.3 78.157895 300.2 83.585526 300.3 85.657895 C 300.4 87.828947 298.4 93.947368 300.7 94.835526 Z M 300.7 94.934211 " transform="matrix(0.0390625,0,0,0.0395833,0,0)"/>
<path style="fill-rule:evenodd;fill:rgb(54.901963%,54.11765%,54.901963%);fill-opacity:1;stroke-width:1.9;stroke-linecap:butt;stroke-linejoin:miter;stroke:rgb(0%,0%,0%);stroke-opacity:1;stroke-miterlimit:4;" d="M 342.8 114.375 C 342.8 114.375 361.3 115.559211 362.2 126.217105 C 363.1 136.776316 357.8 143.289474 357.8 143.289474 C 357.8 143.289474 360.1 166.282895 342 172.993421 C 322.6 175.263158 292.1 173.486842 292.1 173.486842 C 292.1 173.486842 283.1 175.657895 279.5 157.203947 C 277.4 146.743421 275.9 136.184211 274.9 125.625 C 274.9 125.625 276.7 115.164474 289.8 114.572368 C 302.8 113.881579 342.6 114.572368 342.8 114.375 Z M 342.8 114.375 " transform="matrix(0.0390625,0,0,0.0395833,0,0)"/>
<path style="fill:none;stroke-width:1.9;stroke-linecap:round;stroke-linejoin:miter;stroke:rgb(0%,0%,0%);stroke-opacity:1;stroke-miterlimit:4;" d="M 357.7 143.190789 C 357.7 143.190789 347.7 155.625 348.7 160.657895 " transform="matrix(0.0390625,0,0,0.0395833,0,0)"/>
<path style="fill-rule:evenodd;fill:rgb(54.901963%,54.11765%,54.901963%);fill-opacity:1;stroke-width:1.9;stroke-linecap:butt;stroke-linejoin:miter;stroke:rgb(0%,0%,0%);stroke-opacity:1;stroke-miterlimit:4;" d="M 344.3 172.302632 C 346.8 174.375 349.1 176.743421 349.6 184.342105 L 350.6 199.736842 L 363.6 316.282895 L 375 400.559211 L 375.8 413.585526 C 375.8 413.585526 373.1 423.256579 365.4 424.144737 C 359.9 435.690789 329.7 439.144737 326.7 439.046053 C 324 438.848684 314.4 434.802632 308.6 435.296053 C 302.8 435.789474 292.6 439.736842 288.1 439.144737 C 283.6 438.453947 273.3 434.901316 271.5 427.5 C 258.8 423.453947 256.8 413.782895 256.8 413.782895 L 270.5 316.282895 L 283.8 192.927632 C 283.8 192.927632 285.4 176.546053 292 173.980263 C 298.9 173.388158 334.4 174.671053 344.3 172.302632 Z M 344.3 172.302632 " transform="matrix(0.0390625,0,0,0.0395833,0,0)"/>
<path style="fill:none;stroke-width:1.9;stroke-linecap:butt;stroke-linejoin:miter;stroke:rgb(0%,0%,0%);stroke-opacity:1;stroke-miterlimit:4;" d="M 274.4 341.052632 L 271.7 427.401316 M 358.2 352.5 L 365.8 423.651316 " transform="matrix(0.0390625,0,0,0.0395833,0,0)"/>
<path style="fill:none;stroke-width:1;stroke-linecap:butt;stroke-linejoin:miter;stroke:rgb(0%,0%,0%);stroke-opacity:1;stroke-miterlimit:4;" d="M 136.6 296.348684 L 136.3 297.335526 M 495 293.190789 L 495.3 294.177632 " transform="matrix(0.0390625,0,0,0.0395833,0,0)"/>
<path style="fill:none;stroke-width:1.9;stroke-linecap:butt;stroke-linejoin:round;stroke:rgb(41.960785%,9.411765%,70.980394%);stroke-opacity:1;stroke-miterlimit:4;" d="M 127 179.802632 C 127 179.802632 132.6 187.697368 133.7 192.236842 C 134.7 196.677632 136.6 205.559211 139 209.210526 C 141.5 212.861842 155.6 233.092105 156.4 241.480263 C 156.5 247.105263 150.5 256.480263 141.7 256.677632 C 136.1 256.480263 121.9 252.927632 121.3 240.690789 C 120.7 228.355263 125.6 228.157895 126.3 220.657895 C 126.8 213.256579 127 180 127 179.802632 Z M 127 179.802632 " transform="matrix(0.0390625,0,0,0.0395833,0,0)"/>
<path style="fill:none;stroke-width:1;stroke-linecap:butt;stroke-linejoin:round;stroke:rgb(41.960785%,9.411765%,70.980394%);stroke-opacity:1;stroke-miterlimit:4;" d="M 224.5 72.828947 C 224.5 72.828947 218.5 73.223684 214.1 75.690789 C 210.6 77.763158 204.6 81.019737 200.5 86.743421 C 189.9 94.934211 174 98.684211 169 105.690789 C 166 110.328947 166.2 121.381579 173.7 126.217105 C 178.5 128.881579 192.7 133.223684 199.5 123.059211 C 206.3 112.993421 202.2 110.131579 205.5 103.519737 C 210.2 92.368421 216.6 82.006579 224.5 72.828947 Z M 367 58.026316 C 367 58.026316 362.6 53.980263 357.7 52.5 C 353.7 51.513158 347.1 51.907895 340.2 51.217105 C 326.9 49.440789 313.2 39.769737 304.9 40.953947 C 299.5 42.039474 291.6 50.032895 293.4 58.618421 C 294.7 64.046053 300.7 74.802632 312.8 72.730263 C 324.9 70.559211 324.8 67.894737 331.8 65.723684 C 349.2 55.953947 366.8 58.026316 367 58.026316 Z M 508.4 195.394737 C 509.4 193.125 507.5 188.782895 506.2 183.947368 C 505 179.901316 503.1 173.881579 498.5 168.355263 C 493.1 156.217105 494 139.440789 488.5 133.026316 C 484.8 128.980263 473.9 126.414474 467.5 132.631579 C 463.6 136.578947 456.1 149.210526 464.3 158.289474 C 472.5 167.368421 476.1 164.013158 481.7 168.848684 C 495.2 177.828947 501.7 193.815789 508.4 195.394737 Z M 503.5 301.973684 C 505.4 299.506579 508.7 294.572368 508.3 290.526316 C 508 287.269737 509.8 277.5 510 273.157895 C 511.2 259.934211 519.5 248.980263 517.2 237.532895 C 515.9 232.105263 508 224.506579 499.4 226.677632 C 494.2 228.256579 482.4 234.671053 485.1 246.710526 C 487.8 258.651316 491.7 258.355263 494.2 265.361842 C 501.5 279.868421 496.9 297.138158 503.5 301.973684 Z M 503.5 301.973684 " transform="matrix(0.0390625,0,0,0.0395833,0,0)"/>
<path style="fill:none;stroke-width:1.9;stroke-linecap:butt;stroke-linejoin:miter;stroke:rgb(0%,0%,0%);stroke-opacity:1;stroke-miterlimit:4;" d="M 405.5 386.842105 C 405.5 386.842105 403.2 391.184211 412.3 395.032895 M 423.6 376.578947 C 423.6 376.578947 433.6 374.111842 440.4 376.578947 M 453.6 351.217105 C 453.6 351.414474 452.2 355.657895 460.2 361.973684 M 459.4 339.967105 C 459.4 339.967105 465.3 344.309211 475.2 344.013158 M 399.8 352.598684 C 399.8 352.598684 400.1 364.144737 394.2 369.375 M 419.6 334.934211 C 419.6 334.934211 429.3 337.302632 437.3 333.256579 M 481.9 317.960526 C 481.9 317.960526 484 321.019737 494.8 320.526316 M 439.9 311.151316 C 440.2 311.447368 452.6 315.394737 460.4 311.842105 M 464.6 263.980263 C 464.6 263.980263 465.1 263.289474 468.9 276.710526 M 474.1 226.282895 C 474.1 226.282895 473.6 233.388158 467.9 236.546053 M 510.8 197.072368 C 510.8 197.072368 502.4 203.881579 504 206.644737 M 469.3 192.236842 C 469.3 192.236842 473.6 199.539474 466.5 204.473684 M 448.2 160.953947 C 448.2 160.953947 455.7 160.657895 459 167.072368 M 434.2 139.835526 L 439.9 139.835526 M 463.9 113.782895 C 463.9 113.881579 465.4 115.263158 462.5 118.322368 M 410.5 114.473684 C 410.5 114.473684 414.5 120.690789 413.8 128.388158 M 433.6 93.256579 C 435.4 93.059211 441.3 90.493421 441.3 90.493421 M 407.9 68.486842 C 407.8 68.486842 405.7 76.184211 409.5 79.046053 M 398.4 104.013158 C 398.4 112.401316 405 110.328947 400.4 118.322368 M 382.2 97.006579 C 378.4 99.671053 374.9 102.828947 371.8 106.381579 M 355.4 92.664474 C 355.4 92.664474 359.8 97.006579 358.7 102.927632 M 342.7 89.210526 C 342.7 89.210526 340.5 95.822368 337.6 97.5 M 319.6 87.532895 C 319.5 87.828947 316 95.328947 313.6 96.611842 M 288 87.631579 C 288.2 87.631579 291.5 94.638158 287.2 99.572368 M 280.7 51.611842 C 280.9 51.809211 281.4 57.039474 278.1 61.578947 M 249.4 63.453947 C 249.4 63.552632 250.8 69.375 241.6 71.348684 M 231.7 116.546053 C 231.9 116.842105 240.6 118.223684 240.6 118.223684 M 210 136.578947 C 210.2 136.381579 220.6 133.322368 220.6 133.322368 M 193.2 149.605263 C 193.5 149.605263 200.5 150.888158 202.2 150 M 188.2 156.019737 C 188.2 156.019737 190.5 157.302632 188.6 169.046053 M 154.4 125.526316 L 158.6 131.743421 M 140.1 157.697368 C 140.1 157.5 144.3 163.914474 149.9 165.098684 M 172.9 190.263158 C 175.6 189.868421 178.3 189.177632 180.9 188.289474 M 170 213.848684 C 170.2 213.848684 169.9 209.506579 175.2 206.546053 M 163 224.703947 C 163 224.901316 168 231.118421 171.5 232.006579 M 160 236.743421 C 160.6 236.546053 166 231.809211 172.2 232.203947 M 158.3 252.828947 C 158.3 252.828947 158.5 258.157895 174.5 256.776316 M 159.9 271.776316 C 159.9 271.578947 164.6 261.019737 174.1 256.973684 M 172.7 285.394737 C 172.7 285.394737 174.1 280.756579 182.1 277.697368 M 181.6 303.157895 C 181.6 303.157895 187.3 298.519737 189.4 297.927632 M 188.7 317.171053 C 188.7 317.171053 192.2 320.822368 200.9 314.506579 M 146.9 320.131579 C 147.9 319.934211 160.6 316.973684 164.9 323.585526 M 151.9 330.592105 C 151.9 330.592105 165.3 328.815789 167 330.197368 M 199.7 333.256579 C 199.7 333.256579 197.9 337.006579 214.4 330.888158 M 220.2 339.868421 C 217.2 344.901316 220.9 348.947368 217 351.217105 M 170 346.875 C 170.5 346.480263 176 344.605263 175.2 336.611842 M 175 358.914474 C 175.7 358.717105 184.9 354.671053 186.8 356.842105 M 193.1 370.460526 C 193.1 370.460526 194.3 362.269737 196.9 361.480263 M 206.9 382.796053 C 206.9 382.796053 214.6 382.697368 217.9 380.230263 M 221.7 355.164474 C 221.9 355.361842 228.8 359.013158 243.7 355.361842 M 227.3 388.421053 C 227.3 388.421053 229.3 398.980263 229.3 401.447368 " transform="matrix(0.0390625,0,0,0.0395833,0,0)"/>
<path style="fill-rule:evenodd;fill:rgb(87.058824%,12.54902%,6.27451%);fill-opacity:1;stroke-width:1.5;stroke-linecap:butt;stroke-linejoin:miter;stroke:rgb(0%,0%,0%);stroke-opacity:1;stroke-miterlimit:4;" d="M 232.8053 118.972919 C 232.809625 117.008832 232.010802 115.006843 230.770091 114.02285 C 229.35333 112.957965 227.930632 112.904433 226.609298 113.994338 C 224.600471 115.596174 224.480489 117.010426 224.476164 118.974513 C 224.564042 121.18792 225.217012 122.874547 226.488725 124.100435 C 228.027886 125.180169 229.458134 125.175084 230.718268 124.077754 C 232.597145 122.519686 232.900727 121.127708 232.790202 119.090155 Z M 232.8053 118.972919 " transform="matrix(0.0628457,-0.00796021,0.00809375,0.0656141,3.703125,2.96875)"/>
<path style="fill-rule:evenodd;fill:rgb(87.058824%,12.54902%,6.27451%);fill-opacity:1;stroke-width:1.5;stroke-linecap:butt;stroke-linejoin:miter;stroke:rgb(0%,0%,0%);stroke-opacity:1;stroke-miterlimit:4;" d="M 232.802583 118.994022 C 232.806908 117.029935 232.008085 115.027945 230.774924 113.985335 C 229.358163 112.920451 227.927915 112.925536 226.606581 114.015441 C 224.597755 115.617277 224.485322 116.972911 224.473447 118.995616 C 224.561325 121.209023 225.214295 122.89565 226.486008 124.121538 C 228.032719 125.142654 229.455417 125.196187 230.715551 124.098857 C 232.601977 122.482172 232.905559 121.090193 232.787485 119.111257 Z M 232.802583 118.994022 " transform="matrix(0.0628457,-0.00796021,0.00809375,0.0656141,3.648438,2.268125)"/>
<path style="fill-rule:evenodd;fill:rgb(87.058824%,12.54902%,6.27451%);fill-opacity:1;stroke-width:1.5;stroke-linecap:butt;stroke-linejoin:miter;stroke:rgb(0%,0%,0%);stroke-opacity:1;stroke-miterlimit:4;" d="M 232.813902 119.005144 C 232.815162 117.011177 231.994164 115.026449 230.774235 113.985576 C 229.300318 112.951989 227.922619 112.905435 226.60266 114.019156 C 224.611815 115.596809 224.484838 117.020589 224.483578 119.014557 C 224.564419 121.206997 225.255853 122.922889 226.510418 124.091871 C 228.031799 125.195822 229.422324 125.184628 230.669167 124.116039 C 232.599721 122.52577 232.920397 121.08209 232.788248 119.120639 Z M 232.813902 119.005144 " transform="matrix(0.0619129,-0.0135256,0.0137523,0.0646396,3.046875,2.929167)"/>
<path style="fill-rule:evenodd;fill:rgb(87.058824%,12.54902%,6.27451%);fill-opacity:1;stroke-width:1.5;stroke-linecap:butt;stroke-linejoin:miter;stroke:rgb(0%,0%,0%);stroke-opacity:1;stroke-miterlimit:4;" d="M 232.822435 119.010397 C 232.769768 116.99656 232.001831 115.027554 230.820191 113.980984 C 229.363471 112.93128 227.905514 112.941161 226.583861 114.012193 C 224.573888 115.605183 224.462218 117.007879 224.514884 119.021716 C 224.567396 121.168001 225.253087 122.89766 226.489558 124.103795 C 228.001263 125.180615 229.45922 125.170734 230.698319 124.125252 C 232.598321 122.478029 232.902517 121.104016 232.767295 119.115729 Z M 232.822435 119.010397 " transform="matrix(0.0564648,-0.0290724,0.0295586,0.0589515,2.183594,6.452083)"/>
<path style="fill-rule:evenodd;fill:rgb(87.058824%,12.54902%,6.27451%);fill-opacity:1;stroke-width:1.5;stroke-linecap:butt;stroke-linejoin:miter;stroke:rgb(0%,0%,0%);stroke-opacity:1;stroke-miterlimit:4;" d="M 232.819128 119.016714 C 232.766462 117.002876 232.026094 114.981205 230.816885 113.987301 C 229.360164 112.937597 227.902207 112.947478 226.580554 114.01851 C 224.570582 115.611499 224.486481 116.96153 224.511577 119.028033 C 224.564089 121.174318 225.249781 122.903977 226.486251 124.110111 C 228.025527 125.134266 229.455914 125.177051 230.722582 124.078902 C 232.595014 122.484346 232.89921 121.110333 232.791558 119.069379 Z M 232.819128 119.016714 " transform="matrix(0.0564648,-0.0290724,0.0295586,0.0589515,1.910156,5.822709)"/>
<path style="fill-rule:evenodd;fill:rgb(87.058824%,12.54902%,6.27451%);fill-opacity:1;stroke-width:1.5;stroke-linecap:butt;stroke-linejoin:miter;stroke:rgb(0%,0%,0%);stroke-opacity:1;stroke-miterlimit:4;" d="M 232.834323 118.997634 C 232.788585 117.024052 231.973807 115.004811 230.791523 114.01551 C 229.315063 112.918727 227.934249 112.922021 226.59666 113.993855 C 224.63252 115.59227 224.535769 116.99361 224.497018 118.985863 C 224.551401 121.173152 225.25269 122.915609 226.528107 124.099946 C 228.036634 125.146519 229.417448 125.143224 230.670549 124.090062 C 232.634689 122.491647 232.868351 121.103174 232.770191 119.098054 Z M 232.834323 118.997634 " transform="matrix(0.053832,-0.0338133,0.0343793,0.0562032,1.5625,6.62625)"/>
<path style="fill-rule:evenodd;fill:rgb(87.058824%,12.54902%,6.27451%);fill-opacity:1;stroke-width:1.5;stroke-linecap:butt;stroke-linejoin:miter;stroke:rgb(0%,0%,0%);stroke-opacity:1;stroke-miterlimit:4;" d="M 232.821576 118.997589 C 232.788635 116.966998 232.019043 114.985352 230.781068 113.99434 C 229.359072 112.941365 227.959604 112.945325 226.582665 114.006218 C 224.627725 115.605055 224.477781 116.980097 224.510722 119.010688 C 224.567895 121.207831 225.252103 122.90334 226.477394 124.10787 C 228.034377 125.186497 229.433844 125.182538 230.675797 124.095993 C 232.630736 122.497155 232.866633 121.111457 232.796774 119.127832 Z M 232.821576 118.997589 " transform="matrix(0.0503543,-0.0389286,0.0395809,0.0525714,1.320312,7.639583)"/>
<path style="fill-rule:evenodd;fill:rgb(87.058824%,12.54902%,6.27451%);fill-opacity:1;stroke-width:1.5;stroke-linecap:butt;stroke-linejoin:miter;stroke:rgb(0%,0%,0%);stroke-opacity:1;stroke-miterlimit:4;" d="M 232.821434 119.01847 C 232.832187 117.000043 232.01968 115.008954 230.812161 113.978059 C 229.344736 112.942518 227.95857 112.91774 226.609673 114.0291 C 224.608547 115.591403 224.514295 117.019573 224.503542 119.038 C 224.578528 121.226178 225.219557 122.877765 226.512815 124.078411 C 228.023334 125.156777 229.4095 125.181555 230.714855 124.111471 C 232.586253 122.504795 232.896869 121.122547 232.820986 119.102571 Z M 232.821434 119.01847 " transform="matrix(0.0442539,-0.0459143,0.0466828,0.0462025,1.378906,9.460417)"/>
<path style="fill-rule:evenodd;fill:rgb(87.058824%,12.54902%,6.27451%);fill-opacity:1;stroke-width:1.5;stroke-linecap:butt;stroke-linejoin:miter;stroke:rgb(0%,0%,0%);stroke-opacity:1;stroke-miterlimit:4;" d="M 232.834613 118.998449 C 232.817107 117.008207 232.016083 115.018173 230.769564 113.995481 C 229.350801 112.954234 227.917155 112.926715 226.593602 113.968692 C 224.599856 115.615361 224.504036 117.001119 224.521542 118.991361 C 224.561066 121.195503 225.215096 122.915869 226.49205 124.068757 C 228.035789 125.165772 229.430582 125.1468 230.668012 124.095546 C 232.614489 122.48609 232.882554 121.118887 232.778926 119.119367 Z M 232.834613 118.998449 " transform="matrix(0.0398977,-0.0498441,0.0506793,0.0416551,1.339844,10.398542)"/>
<path style="fill-rule:evenodd;fill:rgb(87.058824%,12.54902%,6.27451%);fill-opacity:1;stroke-width:1.5;stroke-linecap:butt;stroke-linejoin:miter;stroke:rgb(0%,0%,0%);stroke-opacity:1;stroke-miterlimit:4;" d="M 232.800668 118.965599 C 232.767835 116.989233 232.02305 114.991038 230.817568 114.002221 C 229.362065 112.944327 227.93816 112.90067 226.606574 113.97546 C 224.624377 115.613699 224.512528 116.981763 224.492382 118.98721 C 224.593683 121.201081 225.239638 122.909664 226.483227 124.083881 C 228.02207 125.164799 229.415614 125.156351 230.694221 124.110641 C 232.62344 122.501483 232.924585 121.098283 232.808413 119.098892 Z M 232.800668 118.965599 " transform="matrix(0.0311785,-0.0558647,0.0568,0.0325517,2.027344,12.46875)"/>
<path style="fill-rule:evenodd;fill:rgb(87.058824%,12.54902%,6.27451%);fill-opacity:1;stroke-width:1.5;stroke-linecap:butt;stroke-linejoin:miter;stroke:rgb(0%,0%,0%);stroke-opacity:1;stroke-miterlimit:4;" d="M 232.810595 119.017376 C 232.801562 116.985725 231.999955 114.972584 230.806579 113.984521 C 229.315212 112.929866 227.921871 112.948614 226.601208 113.986191 C 224.605144 115.581984 224.52714 116.995076 224.510824 118.972154 C 224.54042 121.1918 225.21528 122.932084 226.484705 124.083861 C 228.056907 125.168807 229.450247 125.15006 230.690076 124.082191 C 232.630654 122.510679 232.900464 121.079317 232.780459 119.096228 Z M 232.810595 119.017376 " transform="matrix(0.026032,-0.0585081,0.0594879,0.0271779,2.21875,13.355416)"/>
<path style="fill-rule:evenodd;fill:rgb(87.058824%,12.54902%,6.27451%);fill-opacity:1;stroke-width:1.5;stroke-linecap:butt;stroke-linejoin:miter;stroke:rgb(0%,0%,0%);stroke-opacity:1;stroke-miterlimit:4;" d="M 232.768618 119.000231 C 232.785862 117.013801 232.011035 114.994262 230.796036 114.028098 C 229.345355 112.955485 227.918336 112.960235 226.629056 114.001117 C 224.591821 115.631719 224.530461 116.995321 224.513217 118.981752 C 224.582066 121.192575 225.227754 122.875524 226.471807 124.086696 C 228.058087 125.174177 229.428068 125.190042 230.695825 124.093062 C 232.618985 122.50369 232.930019 121.113726 232.811664 119.112428 Z M 232.768618 119.000231 " transform="matrix(0.0221023,-0.0601449,0.0611523,0.0230755,2.261719,13.949166)"/>
<path style="fill-rule:evenodd;fill:rgb(87.058824%,12.54902%,6.27451%);fill-opacity:1;stroke-width:1.5;stroke-linecap:butt;stroke-linejoin:miter;stroke:rgb(0%,0%,0%);stroke-opacity:1;stroke-miterlimit:4;" d="M 232.824164 119.001272 C 232.805032 117.013378 232.015791 114.991326 230.780371 114.028167 C 229.318326 112.94141 227.929192 112.955494 226.595919 114.012888 C 224.604534 115.627744 224.51167 117.02402 224.530802 119.011914 C 224.542588 121.188724 225.246585 122.923131 226.491707 124.132736 C 228.070738 125.186833 229.459872 125.17275 230.717603 124.074156 C 232.592003 122.49196 232.877394 121.104224 232.78272 119.075131 Z M 232.824164 119.001272 " transform="matrix(0.0175078,-0.0616788,0.0627121,0.0182788,2.460938,14.661666)"/>
<path style="fill-rule:evenodd;fill:rgb(87.058824%,12.54902%,6.27451%);fill-opacity:1;stroke-width:1.5;stroke-linecap:butt;stroke-linejoin:miter;stroke:rgb(0%,0%,0%);stroke-opacity:1;stroke-miterlimit:4;" d="M 232.787262 119.026491 C 232.826798 116.970221 232.020932 115.017437 230.787355 114.022051 C 229.357185 112.930058 227.945159 112.921896 226.61166 113.990173 C 224.615271 115.622283 224.490843 117.025247 224.503975 119.014734 C 224.54026 121.182395 225.254871 122.905005 226.5116 124.078565 C 228.062541 125.155775 229.414182 125.171329 230.687295 124.110444 C 232.623299 122.485725 232.876216 121.127369 232.79498 119.085883 Z M 232.787262 119.026491 " transform="matrix(0.007925,-0.0636753,0.0647414,0.0082741,3.699219,16.185625)"/>
<path style="fill-rule:evenodd;fill:rgb(87.058824%,12.54902%,6.27451%);fill-opacity:1;stroke-width:1.5;stroke-linecap:butt;stroke-linejoin:miter;stroke:rgb(0%,0%,0%);stroke-opacity:1;stroke-miterlimit:4;" d="M 232.79946 119.012965 C 232.776134 116.976946 232.023027 114.969371 230.82547 113.997585 C 229.318887 112.918024 227.917665 112.91273 226.621804 113.981703 C 224.618434 115.61744 224.492907 117.000255 224.513759 118.97646 C 224.544509 121.191919 225.224428 122.902798 226.492699 124.111467 C 228.060097 125.188657 229.461318 125.193951 230.696365 124.127349 C 232.578105 122.496353 232.886076 121.106427 232.801935 119.072778 Z M 232.79946 119.012965 " transform="matrix(0.00254141,-0.0641282,0.0652023,0.00265327,4.152344,16.917916)"/>
<path style="fill-rule:evenodd;fill:rgb(87.058824%,12.54902%,6.27451%);fill-opacity:1;stroke-width:1.5;stroke-linecap:butt;stroke-linejoin:miter;stroke:rgb(0%,0%,0%);stroke-opacity:1;stroke-miterlimit:4;" d="M 232.804329 119.012775 C 232.781003 116.976756 232.027896 114.969182 230.830339 113.997395 C 229.323756 112.917834 227.922534 112.91254 226.626673 113.981513 C 224.623303 115.61725 224.497776 117.000065 224.518628 118.976271 C 224.549378 121.191729 225.229296 122.902608 226.497568 124.111277 C 228.00415 125.190838 229.405372 125.196132 230.701234 124.127159 C 232.582974 122.496163 232.890945 121.106237 232.806804 119.072588 Z M 232.804329 119.012775 " transform="matrix(0.00254141,-0.0641282,0.0652023,0.00265327,3.46875,16.941667)"/>
<path style="fill-rule:evenodd;fill:rgb(87.058824%,12.54902%,6.27451%);fill-opacity:1;stroke-width:1.5;stroke-linecap:butt;stroke-linejoin:miter;stroke:rgb(0%,0%,0%);stroke-opacity:1;stroke-miterlimit:4;" d="M 232.769688 119.006423 C 232.807898 116.988521 232.019788 115.032905 230.820029 114.029849 C 229.323599 112.96097 227.949527 112.963132 226.579146 114.010005 C 224.582908 115.593479 224.504135 116.988327 224.525259 119.019393 C 224.578229 121.180337 225.229569 122.921391 226.506764 124.125844 C 228.016938 125.136367 229.450344 125.147369 230.702057 124.074167 C 232.565882 122.52272 232.895736 121.122174 232.815278 119.077943 Z M 232.769688 119.006423 " transform="matrix(-0.0141141,-0.0625654,0.0636141,-0.0147353,6.738281,18.742708)"/>
<path style="fill-rule:evenodd;fill:rgb(87.058824%,12.54902%,6.27451%);fill-opacity:1;stroke-width:1.5;stroke-linecap:butt;stroke-linejoin:miter;stroke:rgb(0%,0%,0%);stroke-opacity:1;stroke-miterlimit:4;" d="M 232.784909 118.993231 C 232.801771 116.988716 231.989838 114.980129 230.784082 113.980699 C 229.346274 112.909792 227.939392 112.916069 226.621448 114.017399 C 224.576169 115.585533 224.495159 117.005058 224.478296 119.009574 C 224.598161 121.181811 225.252666 122.890693 226.51848 124.097033 C 228.014301 125.185809 229.421184 125.179532 230.662458 124.11739 C 232.591711 122.513517 232.92343 121.108411 232.80561 119.125214 Z M 232.784909 118.993231 " transform="matrix(-0.0191582,-0.0611729,0.062198,-0.0200019,7.355469,19.229583)"/>
<path style="fill-rule:evenodd;fill:rgb(87.058824%,12.54902%,6.27451%);fill-opacity:1;stroke-width:1.5;stroke-linecap:butt;stroke-linejoin:miter;stroke:rgb(0%,0%,0%);stroke-opacity:1;stroke-miterlimit:4;" d="M 232.781512 119.024007 C 232.797118 116.992399 231.994683 114.994373 230.788187 114.001695 C 229.334537 112.965717 227.941254 112.942745 226.582812 113.987273 C 224.615497 115.617984 224.497182 117.012451 224.507102 118.989565 C 224.551258 121.17906 225.208643 122.915808 226.530308 124.09082 C 228.039365 125.151247 229.432648 125.174219 230.680276 124.080794 C 232.622065 122.504577 232.876721 121.104513 232.811393 119.10295 Z M 232.781512 119.024007 " transform="matrix(-0.0262121,-0.058425,0.0594035,-0.0273671,8.667969,19.756042)"/>
<path style="fill-rule:evenodd;fill:rgb(87.058824%,12.54902%,6.27451%);fill-opacity:1;stroke-width:1.5;stroke-linecap:butt;stroke-linejoin:miter;stroke:rgb(0%,0%,0%);stroke-opacity:1;stroke-miterlimit:4;" d="M 232.83391 118.999138 C 232.808403 116.993737 232.01794 114.983009 230.789586 113.969462 C 229.371839 112.921254 227.894984 112.939547 226.578634 114.006819 C 224.60411 115.607725 224.500002 116.993034 224.525508 118.998435 C 224.566461 121.218278 225.265587 122.904487 226.509387 124.132477 C 228.010413 125.157449 229.403989 125.162391 230.720339 124.09512 C 232.611584 122.517448 232.88225 121.08567 232.773465 119.103503 Z M 232.83391 118.999138 " transform="matrix(-0.0310352,-0.0559459,0.0568828,-0.0324021,9.429687,20.120208)"/>
<path style="fill-rule:evenodd;fill:rgb(87.058824%,12.54902%,6.27451%);fill-opacity:1;stroke-width:1.5;stroke-linecap:butt;stroke-linejoin:miter;stroke:rgb(0%,0%,0%);stroke-opacity:1;stroke-miterlimit:4;" d="M 232.77662 119.01611 C 232.791388 116.965456 231.988175 115.009258 230.8088 113.969529 C 229.323764 112.938371 227.916731 112.918225 226.601316 113.99215 C 224.5855 115.610195 224.511307 117.030756 224.482924 118.998351 C 224.580774 121.200808 225.208252 122.887772 226.500245 124.079304 C 228.034782 125.144834 229.441815 125.16498 230.671843 124.105369 C 232.602273 122.501638 232.89674 121.086821 232.790236 119.099168 Z M 232.77662 119.01611 " transform="matrix(-0.0368509,-0.0521975,0.0530713,-0.0384735,10.609343,20.401209)"/>
<path style="fill-rule:evenodd;fill:rgb(87.058824%,12.54902%,6.27451%);fill-opacity:1;stroke-width:1.5;stroke-linecap:butt;stroke-linejoin:miter;stroke:rgb(0%,0%,0%);stroke-opacity:1;stroke-miterlimit:4;" d="M 232.77971 118.984882 C 232.760579 117.00286 231.958164 115.002199 230.839998 113.998762 C 229.323866 112.902127 227.936278 112.934229 226.584581 114.018439 C 224.6202 115.618348 224.508731 117.020468 224.527861 119.00249 C 224.565965 121.236148 225.256754 122.908543 226.520224 124.110804 C 228.036356 125.207439 229.423944 125.175337 230.689313 124.098375 C 232.567364 122.505715 232.897818 121.127413 232.832361 119.107076 Z M 232.77971 118.984882 " transform="matrix(-0.041078,-0.0488495,0.0496675,-0.042887,11.421968,20.591271)"/>
<path style="fill-rule:evenodd;fill:rgb(87.058824%,12.54902%,6.27451%);fill-opacity:1;stroke-width:1.5;stroke-linecap:butt;stroke-linejoin:miter;stroke:rgb(0%,0%,0%);stroke-opacity:1;stroke-miterlimit:4;" d="M 232.804272 119.005226 C 232.801566 116.986769 232.019084 114.979321 230.804747 113.987218 C 229.330372 112.914684 227.944104 112.934257 226.602567 114.004498 C 224.568572 115.589141 224.483847 117.020105 224.529818 118.9959 C 224.576127 121.224002 225.271516 122.896264 226.529456 124.09801 C 228.003831 125.170545 229.433476 125.192411 230.688372 124.123393 C 232.592347 122.498534 232.893733 121.106563 232.804385 119.089329 Z M 232.804272 119.005226 " transform="matrix(-0.0444285,-0.04574,0.0465059,-0.046385,12.066499,20.824781)"/>
<path style="fill-rule:evenodd;fill:rgb(87.058824%,12.54902%,6.27451%);fill-opacity:1;stroke-width:1.5;stroke-linecap:butt;stroke-linejoin:miter;stroke:rgb(0%,0%,0%);stroke-opacity:1;stroke-miterlimit:4;" d="M 232.799075 118.964187 C 232.790441 117.02478 232.003819 115.032988 230.785728 114.023704 C 229.315448 112.913143 227.925217 112.903828 226.615034 113.995762 C 224.610107 115.588843 224.488703 117.013713 224.536988 118.997937 C 224.563849 121.233609 225.245801 122.923315 226.536053 124.106051 C 228.053124 125.177615 229.443356 125.18693 230.667096 124.089176 C 232.585579 122.490274 232.91952 121.121863 232.831584 119.092821 Z M 232.799075 118.964187 " transform="matrix(-0.0480511,-0.0418106,0.042511,-0.0501676,12.94538,20.963341)"/>
<path style="fill-rule:evenodd;fill:rgb(87.058824%,12.54902%,6.27451%);fill-opacity:1;stroke-width:1.5;stroke-linecap:butt;stroke-linejoin:miter;stroke:rgb(0%,0%,0%);stroke-opacity:1;stroke-miterlimit:4;" d="M 232.830359 119.014591 C 232.829718 117.007203 231.994162 114.98374 230.77597 114.004602 C 229.352656 112.94733 227.938759 112.959385 226.585089 114.006834 C 224.589083 115.626675 224.498764 116.977734 224.499405 118.985123 C 224.587241 121.221111 225.2321 122.869974 226.486676 124.111644 C 228.04611 125.149718 229.409198 125.171595 230.677558 124.109412 C 232.588252 122.474837 232.900003 121.119314 232.814051 119.097191 Z M 232.830359 119.014591 " transform="matrix(-0.052177,-0.0363803,0.0369895,-0.0544746,14.160156,20.824791)"/>
<path style="fill-rule:evenodd;fill:rgb(87.058824%,12.54902%,6.27451%);fill-opacity:1;stroke-width:1.5;stroke-linecap:butt;stroke-linejoin:miter;stroke:rgb(0%,0%,0%);stroke-opacity:1;stroke-miterlimit:4;" d="M 232.783713 118.978636 C 232.807311 117.018377 231.980558 114.981736 230.780268 114.021273 C 229.310298 112.920899 227.960713 112.936785 226.624705 113.986496 C 224.605349 115.600388 224.521558 117.002518 224.523335 119.016473 C 224.545177 121.216471 225.21968 122.93094 226.521469 124.106185 C 228.0475 125.181601 229.453145 125.140758 230.733093 124.116005 C 232.614953 122.498331 232.8923 121.075025 232.778402 119.110984 Z M 232.783713 118.978636 " transform="matrix(-0.057568,-0.0267571,0.0272051,-0.0601037,16.246094,19.95)"/>
<path style="fill-rule:evenodd;fill:rgb(87.058824%,12.54902%,6.27451%);fill-opacity:1;stroke-width:1.5;stroke-linecap:butt;stroke-linejoin:miter;stroke:rgb(0%,0%,0%);stroke-opacity:1;stroke-miterlimit:4;" d="M 232.806157 118.98792 C 232.797762 116.986164 232.010416 115.000641 230.788457 113.978364 C 229.351506 112.904439 227.930181 112.952765 226.600296 113.972087 C 224.577689 115.604551 224.499855 117.009395 224.50825 119.01115 C 224.57741 121.180026 225.20532 122.906937 226.488044 124.096334 C 228.061573 125.186123 229.424736 125.157718 230.676206 124.102611 C 232.582491 122.50999 232.913224 121.081167 232.788507 119.119255 Z M 232.806157 118.98792 " transform="matrix(-0.0597246,-0.0213584,0.021716,-0.0623556,17.136719,19.692708)"/>
<path style="fill-rule:evenodd;fill:rgb(87.058824%,12.54902%,6.27451%);fill-opacity:1;stroke-width:1.5;stroke-linecap:butt;stroke-linejoin:miter;stroke:rgb(0%,0%,0%);stroke-opacity:1;stroke-miterlimit:4;" d="M 232.810026 118.997603 C 232.804927 116.999866 231.994458 115.00063 230.783852 113.999513 C 229.320585 112.947135 227.955492 112.922021 226.57276 114.008602 C 224.617981 115.590729 224.505568 117.006988 224.510666 119.004724 C 224.598213 121.217059 225.257809 122.93385 226.482439 124.081719 C 228.014131 125.201943 229.433624 125.148153 230.693531 124.072629 C 232.586899 122.496031 232.890561 121.136562 232.817038 119.070979 Z M 232.810026 118.997603 " transform="matrix(-0.0630645,-0.00475198,0.00602695,-0.052782,19.550781,16.070833)"/>
<path style="fill-rule:evenodd;fill:rgb(87.058824%,12.54902%,6.27451%);fill-opacity:1;stroke-width:1.5;stroke-linecap:butt;stroke-linejoin:miter;stroke:rgb(0%,0%,0%);stroke-opacity:1;stroke-miterlimit:4;" d="M 232.77807 119.007924 C 232.812786 117.000782 232.025184 114.99379 230.778995 113.997093 C 229.325354 112.925112 227.934776 112.929794 226.607263 114.011139 C 224.579164 115.611011 224.529456 117.015571 224.494739 119.022713 C 224.560734 121.189343 225.220574 122.921652 226.507339 124.091141 C 228.021115 125.149819 229.411693 125.145137 230.679071 124.077095 C 232.586903 122.503829 232.890673 121.103654 232.805121 119.123119 Z M 232.77807 119.007924 " transform="matrix(-0.061751,-0.0142625,0.0145013,-0.0644705,18.296954,19.031559)"/>
<path style=" stroke:none;fill-rule:evenodd;fill:rgb(100%,89.019608%,0%);fill-opacity:1;" d="M 18.75 7.707031 C 18.832031 7.613281 18.917969 7.585938 19.011719 7.625 C 18.972656 7.382812 18.902344 7.300781 18.808594 7.332031 C 18.71875 7.359375 18.675781 7.480469 18.75 7.707031 M 18.878906 8.425781 C 18.96875 8.34375 19.046875 8.324219 19.144531 8.363281 C 19.128906 8.125 19.058594 8.035156 18.964844 8.058594 C 18.871094 8.078125 18.824219 8.203125 18.878906 8.425781 M 18.574219 7.042969 C 18.628906 6.9375 18.707031 6.886719 18.808594 6.894531 C 18.710938 6.671875 18.621094 6.613281 18.535156 6.664062 C 18.457031 6.71875 18.449219 6.847656 18.574219 7.046875 Z M 18.257812 6.386719 C 18.3125 6.277344 18.390625 6.226562 18.492188 6.238281 C 18.394531 6.011719 18.300781 5.953125 18.21875 6.003906 C 18.136719 6.054688 18.132812 6.1875 18.257812 6.386719 M 17.496094 5.175781 C 17.53125 5.0625 17.601562 5 17.699219 4.996094 C 17.570312 4.789062 17.46875 4.746094 17.398438 4.808594 C 17.328125 4.871094 17.339844 5.007812 17.496094 5.175781 M 16.992188 4.652344 C 17.03125 4.53125 17.085938 4.476562 17.1875 4.460938 C 17.054688 4.261719 16.953125 4.222656 16.882812 4.285156 C 16.8125 4.355469 16.828125 4.484375 16.992188 4.652344 M 15.949219 3.761719 C 15.949219 3.632812 15.988281 3.5625 16.078125 3.515625 C 15.890625 3.367188 15.777344 3.363281 15.734375 3.449219 C 15.691406 3.53125 15.742188 3.648438 15.949219 3.761719 M 16.496094 4.175781 C 16.507812 4.058594 16.566406 3.984375 16.664062 3.957031 C 16.5 3.78125 16.394531 3.753906 16.335938 3.828125 C 16.277344 3.902344 16.308594 4.03125 16.492188 4.175781 Z M 15.324219 3.410156 C 15.3125 3.289062 15.34375 3.214844 15.429688 3.15625 C 15.226562 3.027344 15.117188 3.035156 15.078125 3.125 C 15.039062 3.210938 15.109375 3.324219 15.328125 3.410156 Z M 14.695312 3.128906 C 14.664062 3.007812 14.683594 2.929688 14.761719 2.859375 C 14.542969 2.761719 14.433594 2.78125 14.410156 2.878906 C 14.386719 2.972656 14.46875 3.070312 14.695312 3.128906 M 14.011719 2.914062 C 13.96875 2.792969 13.980469 2.714844 14.054688 2.636719 C 13.828125 2.5625 13.722656 2.59375 13.703125 2.6875 C 13.691406 2.78125 13.78125 2.878906 14.011719 2.914062 M 13.335938 2.777344 C 13.289062 2.671875 13.296875 2.578125 13.363281 2.5 C 13.128906 2.441406 13.027344 2.480469 13.019531 2.582031 C 13.007812 2.675781 13.105469 2.761719 13.335938 2.777344 M 12.625 2.722656 C 12.5625 2.621094 12.5625 2.527344 12.625 2.445312 C 12.386719 2.410156 12.285156 2.460938 12.289062 2.558594 C 12.289062 2.65625 12.394531 2.730469 12.625 2.722656 M 11.230469 2.832031 C 11.148438 2.746094 11.125 2.65625 11.160156 2.5625 C 10.925781 2.585938 10.839844 2.65625 10.863281 2.75 C 10.886719 2.847656 11.007812 2.894531 11.230469 2.832031 M 11.917969 2.738281 C 11.84375 2.644531 11.832031 2.550781 11.882812 2.460938 C 11.644531 2.453125 11.550781 2.511719 11.5625 2.613281 C 11.574219 2.707031 11.6875 2.769531 11.914062 2.738281 Z M 10.554688 2.976562 C 10.460938 2.90625 10.425781 2.820312 10.449219 2.722656 C 10.214844 2.78125 10.144531 2.867188 10.179688 2.953125 C 10.21875 3.042969 10.34375 3.070312 10.554688 2.976562 M 9.265625 3.578125 C 9.160156 3.527344 9.109375 3.449219 9.113281 3.347656 C 8.894531 3.453125 8.839844 3.546875 8.894531 3.625 C 8.945312 3.703125 9.074219 3.714844 9.265625 3.578125 M 9.890625 3.257812 C 9.785156 3.195312 9.746094 3.113281 9.765625 3.011719 C 9.535156 3.082031 9.46875 3.171875 9.511719 3.257812 C 9.554688 3.34375 9.683594 3.367188 9.886719 3.257812 Z M 8.109375 4.398438 C 7.996094 4.371094 7.929688 4.304688 7.914062 4.199219 C 7.71875 4.351562 7.6875 4.453125 7.753906 4.519531 C 7.820312 4.585938 7.949219 4.566406 8.105469 4.398438 Z M 8.660156 3.9375 C 8.546875 3.902344 8.484375 3.832031 8.480469 3.734375 C 8.277344 3.859375 8.234375 3.960938 8.296875 4.039062 C 8.359375 4.109375 8.492188 4.097656 8.660156 3.9375 M 7.617188 4.886719 C 7.503906 4.871094 7.433594 4.8125 7.40625 4.710938 C 7.226562 4.871094 7.203125 4.984375 7.277344 5.042969 C 7.351562 5.105469 7.472656 5.070312 7.617188 4.882812 Z M 7.175781 5.460938 C 7.054688 5.457031 6.976562 5.40625 6.949219 5.3125 C 6.785156 5.488281 6.769531 5.597656 6.847656 5.652344 C 6.925781 5.707031 7.046875 5.660156 7.175781 5.460938 M 6.808594 6.054688 C 6.683594 6.0625 6.613281 6.027344 6.558594 5.9375 C 6.425781 6.140625 6.425781 6.253906 6.511719 6.292969 C 6.597656 6.332031 6.710938 6.269531 6.808594 6.054688 M 6.484375 6.691406 C 6.371094 6.714844 6.285156 6.6875 6.222656 6.601562 C 6.117188 6.820312 6.132812 6.929688 6.222656 6.957031 C 6.3125 6.992188 6.417969 6.910156 6.484375 6.6875 Z M 6.226562 7.335938 C 6.109375 7.378906 6.03125 7.367188 5.953125 7.296875 C 5.882812 7.523438 5.914062 7.632812 6.011719 7.648438 C 6.105469 7.660156 6.195312 7.566406 6.226562 7.332031 Z M 6.050781 8.054688 C 5.945312 8.109375 5.855469 8.101562 5.777344 8.035156 C 5.722656 8.273438 5.761719 8.371094 5.855469 8.378906 C 5.953125 8.390625 6.039062 8.292969 6.050781 8.054688 M 5.980469 8.65625 C 5.882812 8.710938 5.792969 8.71875 5.707031 8.675781 C 5.679688 8.871094 5.730469 8.945312 5.824219 8.9375 C 5.917969 8.929688 5.992188 8.84375 5.980469 8.65625 M 17.972656 5.800781 C 18.011719 5.683594 18.082031 5.621094 18.179688 5.617188 C 18.054688 5.410156 17.957031 5.367188 17.882812 5.425781 C 17.808594 5.488281 17.820312 5.625 17.972656 5.800781 M 18.957031 9.164062 C 19.042969 9.078125 19.132812 9.054688 19.222656 9.101562 C 19.207031 8.859375 19.136719 8.773438 19.042969 8.792969 C 18.949219 8.8125 18.902344 8.933594 18.957031 9.164062 "/>
<path style="fill-rule:evenodd;fill:rgb(12.941177%,47.450981%,0%);fill-opacity:1;stroke-width:1.9;stroke-linecap:butt;stroke-linejoin:round;stroke:rgb(0%,0%,0%);stroke-opacity:1;stroke-miterlimit:4;" d="M 461.3 132.039474 C 461.3 132.039474 454.3 138.947368 455.6 147.236842 C 456.9 155.526316 462.1 165.789474 461.1 174.473684 C 460.1 183.157895 458.6 188.782895 458.6 188.782895 C 458.6 188.782895 466.6 179.703947 466.6 170.822368 C 466.8 162.138158 461.2 150.493421 461.2 144.078947 C 461.2 137.664474 461.5 131.940789 461.3 132.138158 Z M 474 159.967105 C 474 159.967105 468.7 164.013158 469.2 172.993421 C 469.7 181.973684 479.2 198.848684 479.2 198.848684 C 479.2 198.848684 486 212.763158 485.7 216.513158 C 485.4 220.164474 487 212.960526 486.3 204.967105 C 485.6 196.973684 475.3 179.210526 475.3 179.210526 C 475.3 179.210526 473.1 175.559211 473.3 169.539474 C 473.5 163.421053 474.1 160.065789 474.1 159.967105 Z M 474 159.967105 " transform="matrix(0.0390625,0,0,0.0395833,0,0)"/>
<path style=" stroke:none;fill-rule:evenodd;fill:rgb(41.960785%,9.411765%,70.980394%);fill-opacity:1;" d="M 12.226562 1.875 C 12.226562 1.804688 12.140625 1.742188 12.039062 1.742188 C 11.9375 1.742188 11.855469 1.804688 11.855469 1.875 C 11.855469 1.949219 11.933594 2.011719 12.039062 2.011719 C 12.144531 2.011719 12.222656 1.953125 12.222656 1.875 Z M 12.304688 2.191406 C 12.304688 2.121094 12.21875 2.0625 12.109375 2.0625 C 12.007812 2.0625 11.921875 2.117188 11.921875 2.1875 C 11.921875 2.261719 12.007812 2.320312 12.113281 2.320312 C 12.21875 2.320312 12.300781 2.261719 12.300781 2.1875 Z M 12.539062 1.820312 C 12.539062 1.820312 12.320312 1.984375 12.410156 2.050781 C 12.5 2.117188 12.746094 1.90625 12.746094 1.90625 Z M 18.917969 5.597656 C 18.917969 5.546875 18.898438 5.507812 18.863281 5.480469 C 18.828125 5.460938 18.78125 5.460938 18.746094 5.480469 C 18.710938 5.507812 18.691406 5.546875 18.691406 5.597656 C 18.691406 5.671875 18.710938 5.6875 18.746094 5.710938 C 18.78125 5.734375 18.828125 5.734375 18.863281 5.710938 C 18.898438 5.683594 18.917969 5.648438 18.917969 5.597656 M 18.835938 5.28125 C 18.835938 5.203125 18.78125 5.140625 18.71875 5.140625 C 18.65625 5.140625 18.597656 5.207031 18.597656 5.285156 C 18.597656 5.363281 18.652344 5.421875 18.714844 5.421875 C 18.777344 5.421875 18.835938 5.359375 18.835938 5.285156 Z M 18.894531 5.921875 C 18.890625 5.875 18.875 5.851562 18.847656 5.851562 C 18.808594 5.847656 18.800781 5.882812 18.800781 5.921875 C 18.800781 5.960938 18.820312 5.996094 18.847656 5.996094 C 18.875 5.996094 18.894531 5.960938 18.894531 5.921875 M 19.085938 5.351562 C 19.082031 5.300781 19.066406 5.269531 19.039062 5.269531 C 19.011719 5.273438 18.996094 5.300781 18.992188 5.347656 C 18.988281 5.417969 19.011719 5.433594 19.039062 5.433594 C 19.066406 5.433594 19.085938 5.394531 19.085938 5.351562 M 18.5625 5.40625 C 18.558594 5.363281 18.542969 5.34375 18.515625 5.339844 C 18.476562 5.335938 18.46875 5.371094 18.46875 5.40625 C 18.46875 5.441406 18.488281 5.476562 18.515625 5.476562 C 18.542969 5.476562 18.5625 5.445312 18.5625 5.40625 M 18.644531 5.859375 C 18.644531 5.800781 18.601562 5.75 18.546875 5.75 C 18.492188 5.75 18.449219 5.800781 18.449219 5.859375 C 18.449219 5.917969 18.488281 5.96875 18.546875 5.96875 C 18.605469 5.96875 18.644531 5.921875 18.644531 5.859375 M 18.386719 5.660156 C 18.386719 5.609375 18.347656 5.566406 18.304688 5.566406 C 18.261719 5.566406 18.21875 5.605469 18.21875 5.660156 C 18.21875 5.714844 18.257812 5.753906 18.304688 5.753906 C 18.351562 5.753906 18.378906 5.722656 18.382812 5.660156 Z M 18.347656 5.390625 C 18.347656 5.363281 18.332031 5.335938 18.308594 5.324219 C 18.285156 5.3125 18.257812 5.3125 18.234375 5.324219 C 18.210938 5.339844 18.199219 5.363281 18.199219 5.390625 C 18.199219 5.421875 18.214844 5.449219 18.238281 5.460938 C 18.261719 5.472656 18.285156 5.472656 18.308594 5.460938 C 18.335938 5.445312 18.347656 5.421875 18.347656 5.390625 M 19.523438 6.753906 C 19.417969 6.609375 19.246094 6.550781 19.140625 6.617188 C 19.039062 6.6875 19.039062 6.855469 19.148438 7.003906 C 19.253906 7.144531 19.421875 7.203125 19.527344 7.136719 C 19.632812 7.066406 19.632812 6.898438 19.527344 6.753906 Z M 19.828125 9.394531 C 19.847656 9.214844 19.765625 9.0625 19.640625 9.042969 C 19.515625 9.03125 19.398438 9.164062 19.375 9.335938 C 19.351562 9.511719 19.441406 9.667969 19.566406 9.683594 C 19.691406 9.699219 19.808594 9.5625 19.828125 9.394531 M 19.890625 10.929688 C 19.929688 10.753906 19.855469 10.59375 19.734375 10.566406 C 19.609375 10.542969 19.480469 10.660156 19.445312 10.832031 C 19.410156 11.003906 19.484375 11.167969 19.601562 11.191406 C 19.726562 11.21875 19.855469 11.097656 19.890625 10.925781 Z M 20.183594 9.488281 C 20.183594 9.421875 20.136719 9.367188 20.082031 9.367188 C 20.027344 9.367188 19.976562 9.421875 19.976562 9.488281 C 19.976562 9.554688 20.023438 9.613281 20.082031 9.613281 C 20.140625 9.613281 20.183594 9.558594 20.183594 9.488281 M 19.929688 9.777344 L 19.71875 10.023438 C 19.71875 10.023438 19.519531 10.027344 19.53125 10.09375 C 19.542969 10.160156 19.804688 10.355469 19.804688 10.433594 C 19.800781 10.511719 19.976562 10.414062 19.976562 10.414062 L 20.121094 9.976562 C 20.121094 9.976562 20.113281 9.671875 20.035156 9.675781 C 19.957031 9.679688 19.9375 9.773438 19.929688 9.777344 M 5.96875 9.683594 C 5.976562 9.640625 5.960938 9.597656 5.925781 9.578125 C 5.890625 9.554688 5.847656 9.554688 5.8125 9.578125 C 5.777344 9.597656 5.761719 9.640625 5.769531 9.683594 C 5.777344 9.730469 5.820312 9.765625 5.867188 9.765625 C 5.917969 9.765625 5.960938 9.730469 5.96875 9.683594 M 6.066406 9.367188 C 6.066406 9.308594 6.019531 9.261719 5.964844 9.261719 C 5.910156 9.261719 5.863281 9.308594 5.863281 9.371094 C 5.863281 9.429688 5.910156 9.476562 5.964844 9.476562 C 6.019531 9.46875 6.0625 9.425781 6.066406 9.371094 Z M 5.234375 7.886719 C 5.195312 7.796875 5.117188 7.75 5.058594 7.777344 C 5 7.804688 4.980469 7.898438 5.019531 7.984375 C 5.058594 8.070312 5.136719 8.117188 5.195312 8.089844 C 5.257812 8.0625 5.273438 7.972656 5.234375 7.886719 M 5.488281 8.8125 C 5.433594 8.699219 5.328125 8.636719 5.246094 8.671875 C 5.164062 8.707031 5.140625 8.828125 5.191406 8.9375 C 5.242188 9.046875 5.347656 9.113281 5.433594 9.078125 C 5.519531 9.039062 5.539062 8.921875 5.488281 8.8125 M 5.753906 9.492188 C 5.773438 9.355469 5.714844 9.222656 5.628906 9.207031 C 5.542969 9.191406 5.457031 9.285156 5.4375 9.425781 C 5.417969 9.5625 5.476562 9.691406 5.566406 9.710938 C 5.65625 9.730469 5.738281 9.628906 5.753906 9.492188 M 5.324219 9.589844 C 5.378906 9.460938 5.359375 9.320312 5.28125 9.28125 C 5.203125 9.242188 5.09375 9.308594 5.039062 9.441406 C 4.984375 9.570312 5.003906 9.707031 5.085938 9.75 C 5.167969 9.792969 5.269531 9.722656 5.324219 9.589844 "/>
<path style=" stroke:none;fill-rule:evenodd;fill:rgb(41.960785%,9.411765%,70.980394%);fill-opacity:1;" d="M 5.128906 9.292969 C 5.128906 9.226562 5.078125 9.175781 5.015625 9.175781 C 4.953125 9.175781 4.902344 9.230469 4.902344 9.292969 C 4.902344 9.359375 4.953125 9.414062 5.019531 9.414062 C 5.085938 9.414062 5.128906 9.363281 5.128906 9.292969 M 5.039062 8.996094 C 5.039062 8.9375 4.992188 8.890625 4.9375 8.890625 C 4.910156 8.890625 4.882812 8.902344 4.863281 8.925781 C 4.84375 8.945312 4.835938 8.972656 4.835938 9 C 4.835938 9.058594 4.882812 9.109375 4.9375 9.109375 C 4.992188 9.109375 5.039062 9.058594 5.039062 8.996094 M 5.132812 8.429688 C 5.132812 8.328125 5.089844 8.25 5.035156 8.25 C 4.980469 8.25 4.9375 8.328125 4.9375 8.429688 C 4.9375 8.535156 4.980469 8.613281 5.035156 8.613281 C 5.089844 8.613281 5.132812 8.535156 5.132812 8.429688 M 5.4375 8.386719 C 5.449219 8.289062 5.417969 8.203125 5.359375 8.191406 C 5.308594 8.1875 5.253906 8.261719 5.242188 8.359375 C 5.226562 8.457031 5.261719 8.546875 5.316406 8.554688 C 5.371094 8.5625 5.421875 8.488281 5.433594 8.386719 Z M 7.585938 4.035156 C 7.628906 3.890625 7.585938 3.75 7.496094 3.71875 C 7.40625 3.679688 7.300781 3.769531 7.261719 3.910156 C 7.222656 4.054688 7.261719 4.195312 7.351562 4.226562 C 7.441406 4.261719 7.546875 4.175781 7.585938 4.035156 M 7.179688 4.664062 C 7.296875 4.554688 7.351562 4.414062 7.296875 4.34375 C 7.238281 4.265625 7.09375 4.292969 6.972656 4.398438 C 6.851562 4.5 6.804688 4.644531 6.859375 4.714844 C 6.917969 4.789062 7.0625 4.765625 7.179688 4.664062 M 6.945312 4.316406 C 7.0625 4.222656 7.109375 4.101562 7.054688 4.039062 C 7 3.972656 6.859375 3.996094 6.742188 4.085938 C 6.621094 4.175781 6.570312 4.296875 6.625 4.363281 C 6.679688 4.425781 6.820312 4.402344 6.941406 4.316406 Z M 7.863281 3.699219 C 7.941406 3.636719 7.976562 3.550781 7.941406 3.507812 C 7.902344 3.46875 7.804688 3.480469 7.722656 3.542969 C 7.640625 3.605469 7.609375 3.6875 7.648438 3.734375 C 7.6875 3.777344 7.78125 3.761719 7.863281 3.699219 "/>
<path style=" stroke:none;fill-rule:evenodd;fill:rgb(41.960785%,9.411765%,70.980394%);fill-opacity:1;" d="M 7.382812 4.292969 C 7.4375 4.207031 7.441406 4.117188 7.390625 4.089844 C 7.339844 4.0625 7.253906 4.105469 7.199219 4.191406 C 7.144531 4.277344 7.140625 4.371094 7.191406 4.398438 C 7.242188 4.425781 7.328125 4.378906 7.382812 4.292969 M 8.074219 3.925781 C 8.160156 3.851562 8.191406 3.757812 8.152344 3.707031 C 8.105469 3.660156 7.996094 3.683594 7.910156 3.757812 C 7.824219 3.828125 7.792969 3.925781 7.835938 3.972656 C 7.878906 4.023438 7.988281 3.996094 8.074219 3.925781 M 6.824219 4.78125 C 6.902344 4.78125 6.964844 4.738281 6.957031 4.691406 C 6.957031 4.648438 6.882812 4.613281 6.800781 4.617188 C 6.722656 4.621094 6.660156 4.664062 6.667969 4.707031 C 6.671875 4.753906 6.746094 4.785156 6.824219 4.785156 Z M 8.335938 3.472656 C 8.390625 3.382812 8.394531 3.292969 8.34375 3.265625 C 8.296875 3.238281 8.210938 3.28125 8.15625 3.367188 C 8.101562 3.457031 8.097656 3.546875 8.148438 3.574219 C 8.199219 3.601562 8.28125 3.558594 8.335938 3.472656 "/>
<path style="fill-rule:evenodd;fill:rgb(100%,82.352942%,0%);fill-opacity:1;stroke-width:1;stroke-linecap:butt;stroke-linejoin:miter;stroke:rgb(93.725491%,54.11765%,6.27451%);stroke-opacity:1;stroke-miterlimit:4;" d="M 446.8 153.355263 C 446.8 153.355263 453.2 143.289474 450.8 133.717105 C 448.4 124.144737 437.8 130.953947 438 134.407895 C 438.2 137.664474 444.8 142.302632 445.2 144.375 C 445.6 146.546053 444.4 152.664474 446.8 153.355263 Z M 446.8 153.355263 " transform="matrix(0.0390625,0,0,0.0395833,0,0)"/>
<path style="fill-rule:evenodd;fill:rgb(12.941177%,47.450981%,0%);fill-opacity:1;stroke-width:2.3;stroke-linecap:butt;stroke-linejoin:round;stroke:rgb(0%,0%,0%);stroke-opacity:1;stroke-miterlimit:4;" d="M 324.9 69.276316 C 324.9 69.276316 347.9 70.164474 348 85.065789 C 348 87.434211 348 90.098684 347.2 96.809211 C 351.8 94.342105 354.8 87.532895 354.2 83.092105 C 354.3 67.993421 333.7 57.631579 324.9 69.276316 Z M 324.9 69.276316 " transform="matrix(0.0390625,0,0,0.0395833,0,0)"/>
<path style="fill-rule:evenodd;fill:rgb(12.941177%,47.450981%,0%);fill-opacity:1;stroke-width:2.3;stroke-linecap:butt;stroke-linejoin:round;stroke:rgb(0%,0%,0%);stroke-opacity:1;stroke-miterlimit:4;" d="M 310.3 68.585526 C 310.3 68.585526 328.8 64.835526 329 79.638158 C 329.1 94.638158 323 96.907895 323 96.907895 C 323 96.907895 337.3 93.947368 337.4 78.848684 C 337.5 63.651316 319.1 56.940789 310.3 68.585526 Z M 310.3 68.585526 " transform="matrix(0.0390625,0,0,0.0395833,0,0)"/>
<path style="fill-rule:evenodd;fill:rgb(96.862745%,87.450981%,45.09804%);fill-opacity:1;stroke-width:2.5;stroke-linecap:butt;stroke-linejoin:round;stroke:rgb(0%,0%,0%);stroke-opacity:1;stroke-miterlimit:4;" d="M 373.3 390 C 373.3 390 460.1 365.427632 486.3 259.046053 C 471 368.092105 376 403.026316 376 403.026316 L 373.2 390 Z M 373.3 390 " transform="matrix(0.0390625,0,0,0.0395833,0,0)"/>
<path style=" stroke:none;fill-rule:evenodd;fill:rgb(54.901963%,9.411765%,0%);fill-opacity:1;" d="M 14.929688 15.699219 C 15.035156 15.699219 15.292969 15.40625 15.441406 15.375 C 15.589844 15.34375 15.605469 15.1875 15.4375 15.183594 C 15.265625 15.175781 15.117188 15.382812 15.117188 15.382812 C 15.117188 15.382812 14.96875 15.507812 14.8125 15.523438 C 14.65625 15.539062 14.757812 15.738281 14.929688 15.699219 "/>
<path style="fill-rule:evenodd;fill:rgb(54.901963%,9.411765%,0%);fill-opacity:1;stroke-width:2.5;stroke-linecap:butt;stroke-linejoin:miter;stroke:rgb(54.901963%,9.411765%,0%);stroke-opacity:1;stroke-miterlimit:4;" d="M 432.2 359.309211 C 432.2 359.309211 423.2 364.539474 424.4 365.822368 C 425.6 367.105263 433.7 360.789474 433.9 360.789474 C 434 360.592105 437.3 356.644737 432.2 359.309211 Z M 432.2 359.309211 " transform="matrix(0.0390625,0,0,0.0395833,0,0)"/>
<path style=" stroke:none;fill-rule:evenodd;fill:rgb(54.901963%,9.411765%,0%);fill-opacity:1;" d="M 15.652344 15.160156 C 15.652344 15.160156 15.546875 15.121094 15.816406 15.019531 C 16.089844 14.910156 16.070312 14.789062 16.160156 14.738281 C 16.246094 14.683594 16.433594 14.550781 16.472656 14.628906 C 16.511719 14.710938 16.277344 14.867188 16.21875 14.882812 C 16.164062 14.898438 15.894531 15.152344 15.816406 15.171875 C 15.738281 15.195312 15.683594 15.1875 15.652344 15.160156 "/>
<path style="fill:none;stroke-width:3;stroke-linecap:round;stroke-linejoin:miter;stroke:rgb(54.901963%,9.411765%,0%);stroke-opacity:1;stroke-miterlimit:4;" d="M 445.6 345.986842 C 439.6 352.697368 439.6 352.5 439.6 352.5 " transform="matrix(0.0390625,0,0,0.0395833,0,0)"/>
<path style="fill:none;stroke-width:2.8;stroke-linecap:round;stroke-linejoin:miter;stroke:rgb(54.901963%,9.411765%,0%);stroke-opacity:1;stroke-miterlimit:4;" d="M 454.5 335.230263 L 448.8 342.138158 " transform="matrix(0.0390625,0,0,0.0395833,0,0)"/>
<path style="fill:none;stroke-width:2.5;stroke-linecap:round;stroke-linejoin:miter;stroke:rgb(54.901963%,9.411765%,0%);stroke-opacity:1;stroke-miterlimit:4;" d="M 463.4 321.019737 L 457 331.184211 " transform="matrix(0.0390625,0,0,0.0395833,0,0)"/>
<path style="fill:none;stroke-width:2.3;stroke-linecap:round;stroke-linejoin:miter;stroke:rgb(54.901963%,9.411765%,0%);stroke-opacity:1;stroke-miterlimit:4;" d="M 470.9 306.611842 L 465.6 317.072368 M 474.2 299.111842 L 472.6 302.664474 " transform="matrix(0.0390625,0,0,0.0395833,0,0)"/>
<path style="fill:none;stroke-width:1.4;stroke-linecap:round;stroke-linejoin:miter;stroke:rgb(54.901963%,9.411765%,0%);stroke-opacity:1;stroke-miterlimit:4;" d="M 478 289.046053 L 476.6 293.388158 " transform="matrix(0.0390625,0,0,0.0395833,0,0)"/>
<path style="fill-rule:evenodd;fill:rgb(96.862745%,87.450981%,45.09804%);fill-opacity:1;stroke-width:1.5;stroke-linecap:butt;stroke-linejoin:round;stroke:rgb(0%,0%,0%);stroke-opacity:1;stroke-miterlimit:4;" d="M 160.274992 215.997843 C 160.274992 215.997843 212.290361 201.316665 227.876848 137.485458 C 218.814937 202.999488 161.906136 223.715616 161.906136 223.715616 Z M 160.274992 215.997843 " transform="matrix(-0.0646594,0,0,0.0673162,20.5,0.8075)"/>
<path style=" stroke:none;fill-rule:evenodd;fill:rgb(54.901963%,9.411765%,0%);fill-opacity:1;" d="M 9.792969 15.613281 C 9.6875 15.613281 9.433594 15.316406 9.285156 15.28125 C 9.136719 15.25 9.121094 15.09375 9.289062 15.085938 C 9.460938 15.085938 9.605469 15.285156 9.605469 15.285156 C 9.605469 15.285156 9.753906 15.417969 9.90625 15.4375 C 10.058594 15.457031 9.960938 15.652344 9.792969 15.613281 "/>
<path style="fill-rule:evenodd;fill:rgb(54.901963%,9.411765%,0%);fill-opacity:1;stroke-width:1.5;stroke-linecap:butt;stroke-linejoin:miter;stroke:rgb(54.901963%,9.411765%,0%);stroke-opacity:1;stroke-miterlimit:4;" d="M 195.495619 197.602849 C 195.495619 197.602849 190.118886 200.79441 190.904251 201.606807 C 191.629204 202.303147 196.401811 198.589332 196.522636 198.473275 C 196.583049 198.415247 198.516256 195.978055 195.495619 197.602849 Z M 195.495619 197.602849 " transform="matrix(-0.0646594,0,0,0.0673162,20.5,0.8075)"/>
<path style=" stroke:none;fill-rule:evenodd;fill:rgb(54.901963%,9.411765%,0%);fill-opacity:1;" d="M 9.078125 15.066406 C 9.078125 15.066406 9.179688 15.027344 8.914062 14.917969 C 8.648438 14.8125 8.660156 14.679688 8.574219 14.632812 C 8.488281 14.585938 8.300781 14.449219 8.261719 14.527344 C 8.222656 14.605469 8.457031 14.765625 8.515625 14.78125 C 8.570312 14.800781 8.835938 15.058594 8.914062 15.078125 C 8.992188 15.097656 9.046875 15.09375 9.078125 15.066406 "/>
<path style="fill:none;stroke-width:1.8;stroke-linecap:round;stroke-linejoin:miter;stroke:rgb(54.901963%,9.411765%,0%);stroke-opacity:1;stroke-miterlimit:4;" d="M 203.470101 189.710991 L 200.026575 193.598892 " transform="matrix(-0.0646594,0,0,0.0673162,20.5,0.8075)"/>
<path style="fill:none;stroke-width:1.7;stroke-linecap:round;stroke-linejoin:miter;stroke:rgb(54.901963%,9.411765%,0%);stroke-opacity:1;stroke-miterlimit:4;" d="M 208.907248 183.211814 L 205.524134 187.2738 " transform="matrix(-0.0646594,0,0,0.0673162,20.5,0.8075)"/>
<path style="fill:none;stroke-width:1.5;stroke-linecap:round;stroke-linejoin:miter;stroke:rgb(54.901963%,9.411765%,0%);stroke-opacity:1;stroke-miterlimit:4;" d="M 214.223569 174.681643 L 210.417566 180.774622 " transform="matrix(-0.0646594,0,0,0.0673162,20.5,0.8075)"/>
<path style="fill:none;stroke-width:1.4;stroke-linecap:round;stroke-linejoin:miter;stroke:rgb(54.901963%,9.411765%,0%);stroke-opacity:1;stroke-miterlimit:4;" d="M 218.694112 166.093444 L 215.492236 172.418537 M 220.687732 161.509203 L 219.721128 163.714281 " transform="matrix(-0.0646594,0,0,0.0673162,20.5,0.8075)"/>
<path style="fill:none;stroke-width:0.8;stroke-linecap:round;stroke-linejoin:miter;stroke:rgb(54.901963%,9.411765%,0%);stroke-opacity:1;stroke-miterlimit:4;" d="M 222.983416 155.474253 L 222.077225 158.201586 " transform="matrix(-0.0646594,0,0,0.0673162,20.5,0.8075)"/>
<path style="fill-rule:evenodd;fill:rgb(12.941177%,47.450981%,0%);fill-opacity:1;stroke-width:2.3;stroke-linecap:butt;stroke-linejoin:round;stroke:rgb(0%,0%,0%);stroke-opacity:1;stroke-miterlimit:4;" d="M 490.4 239.309211 C 490.9 246.019737 497.4 252.335526 494.8 263.980263 C 491.6 277.302632 480 308.684211 482 314.210526 C 478.6 309.473684 479.2 305.230263 479 298.618421 C 478.6 292.105263 488.4 267.730263 489.3 259.539474 C 489.3 252.138158 490 241.973684 490.4 239.309211 Z M 490.4 239.309211 " transform="matrix(0.0390625,0,0,0.0395833,0,0)"/>
<path style="fill-rule:evenodd;fill:rgb(12.941177%,47.450981%,0%);fill-opacity:1;stroke-width:2.3;stroke-linecap:butt;stroke-linejoin:round;stroke:rgb(0%,0%,0%);stroke-opacity:1;stroke-miterlimit:4;" d="M 490.4 239.407895 C 490.4 239.407895 501.1 252.927632 500.5 263.585526 C 499.9 274.342105 494 286.776316 496 292.302632 C 492.9 288.256579 491.2 283.223684 491.4 278.092105 C 491.1 271.578947 496.7 264.276316 495.5 257.171053 C 494.4 250.164474 490.3 239.407895 490.5 239.407895 Z M 141.1 242.368421 C 140.7 249.078947 135.7 255.098684 138.3 266.743421 C 141.5 279.967105 153.3 296.743421 151.3 315.888158 C 154.8 311.151316 155.8 305.921053 156.1 299.407895 C 156.4 292.894737 143.1 270.888158 142.3 262.598684 C 142.3 255.197368 141.5 245.131579 141.1 242.368421 Z M 141.1 242.368421 " transform="matrix(0.0390625,0,0,0.0395833,0,0)"/>
<path style="fill-rule:evenodd;fill:rgb(12.941177%,47.450981%,0%);fill-opacity:1;stroke-width:2.3;stroke-linecap:butt;stroke-linejoin:round;stroke:rgb(0%,0%,0%);stroke-opacity:1;stroke-miterlimit:4;" d="M 141.1 242.565789 C 141.1 242.565789 130.7 255.592105 131.3 266.348684 C 131.4 273.355263 144.5 303.059211 142.5 308.684211 C 146 304.046053 146.9 304.638158 146.8 297.532895 C 143 279.177632 136.1 267.631579 137.3 260.526316 C 138.5 253.421053 141.3 242.467105 141.1 242.467105 Z M 141.1 242.565789 " transform="matrix(0.0390625,0,0,0.0395833,0,0)"/>
<path style="fill-rule:nonzero;fill:rgb(100%,100%,100%);fill-opacity:1;stroke-width:1.7;stroke-linecap:square;stroke-linejoin:round;stroke:rgb(0%,0%,0%);stroke-opacity:1;stroke-miterlimit:4;" d="M 99.986273 125.766329 L 121.957506 194.020638 L 193.964787 194.020638 L 136.032826 236.192656 L 158.089884 304.362283 L 100.072098 262.274948 L 42.140137 304.362283 L 64.11137 236.192656 L 6.007759 194.020638 L 77.757565 194.020638 Z M 99.986273 125.766329 " transform="matrix(0.0455141,0,0,0.046128,7.890625,-0.934167)"/>
</g>
</svg>
