<svg xmlns="http://www.w3.org/2000/svg" width="25" height="px" viewBox="0 0 25 19"><path d="M0 0h25v19H0z" style="fill:#cd2a3e;fill-opacity:1;stroke:none"/><path d="M0 2.852h25v13.296H0Zm0 0" style="stroke:none;fill-rule:nonzero;fill:#006233;fill-opacity:1"/><path d="M18.36 6.121c0 3.277-2.626 5.938-5.86 5.938S6.64 9.399 6.64 6.12a6.3 6.3 0 0 0-.195 1.55c0 3.388 2.711 6.138 6.055 6.138s6.055-2.75 6.055-6.137c0-.524-.067-1.047-.196-1.55" style="stroke:none;fill-rule:nonzero;fill:#ffc400;fill-opacity:1"/><path d="m12.5 3.715-.527 1.64h-1.7l1.38 1.012-.528 1.64 1.379-1.01 1.379 1.01-.528-1.64 1.38-1.012H13.03Zm0 0" style="stroke:none;fill-rule:nonzero;fill:#ffc400;fill-opacity:1"/></svg>