<?xml version="1.0" encoding="UTF-8"?>
<svg xmlns="http://www.w3.org/2000/svg" xmlns:xlink="http://www.w3.org/1999/xlink" width="25px" height="px" viewBox="0 0 25 19" version="1.1">
<g id="surface1">
<rect x="0" y="0" width="25" height="19" style="fill:rgb(0.392157%,12.941177%,41.176471%);fill-opacity:1;stroke:none;"/>
<path style=" stroke:none;fill-rule:nonzero;fill:rgb(100%,100%,100%);fill-opacity:1;" d="M 15.035156 4.394531 L 23.0625 4.394531 L 23.050781 10.183594 C 23.117188 12.507812 21.6875 13.953125 19.054688 14.605469 C 17.183594 14.132812 15.03125 13.160156 15.023438 10.253906 Z M 15.035156 4.394531 "/>
<path style="fill-rule:nonzero;fill:rgb(0%,63.529414%,74.117649%);fill-opacity:1;stroke-width:1.8;stroke-linecap:butt;stroke-linejoin:miter;stroke:rgb(0%,0%,0%);stroke-opacity:1;stroke-miterlimit:4;" d="M 389.4 115.361842 L 585.8 115.361842 L 585.6 255.592105 C 587.2 311.940789 552.2 346.776316 487.8 362.565789 C 442 351.217105 389.3 327.631579 389.2 257.171053 Z M 389.4 115.361842 " transform="matrix(0.0390625,0,0,0.0395833,0,0)"/>
<path style=" stroke:none;fill-rule:nonzero;fill:rgb(64.705884%,23.921569%,3.137255%);fill-opacity:1;" d="M 22.824219 10.773438 C 22.542969 12.898438 20.925781 13.832031 19.054688 14.324219 C 17.394531 13.875 15.609375 13.152344 15.265625 10.78125 Z M 22.824219 10.773438 "/>
<path style=" stroke:none;fill-rule:nonzero;fill:rgb(0%,0%,0%);fill-opacity:1;" d="M 18.75 5.601562 L 18.738281 4.90625 L 19.285156 4.910156 L 19.289062 5.601562 L 20.78125 5.601562 L 20.785156 6.144531 L 19.289062 6.152344 L 19.277344 12.539062 L 18.746094 12.542969 L 18.738281 6.144531 L 17.253906 6.152344 L 17.253906 5.597656 Z M 18.75 5.601562 "/>
<path style="fill-rule:evenodd;fill:rgb(100%,60.392159%,3.137255%);fill-opacity:1;stroke-width:0.8;stroke-linecap:butt;stroke-linejoin:miter;stroke:rgb(0%,0%,0%);stroke-opacity:1;stroke-miterlimit:4;" d="M 449 278.782895 L 484 315.098684 C 496.1 301.776316 487.7 252.138158 471.8 242.960526 C 469.9 248.881579 466.7 255.986842 463.2 258.157895 C 455.7 263.388158 437.1 269.407895 443.3 273.157895 C 444.7 271.282895 448.4 269.506579 450.2 273.848684 C 452.2 280.657895 442.4 281.052632 442.4 281.052632 C 442.4 281.052632 436.2 280.263158 435.1 274.144737 C 434.1 267.730263 444.4 261.907895 445.3 261.513158 C 446.1 261.217105 459.6 257.467105 461.9 245.625 C 464.8 233.782895 467.7 235.559211 468.2 235.361842 C 485.9 237.138158 497.4 268.717105 498.1 290.921053 C 498.8 313.125 489.1 327.927632 487.3 328.914474 C 485.6 329.802632 445.3 280.953947 445.3 280.953947 Z M 449 278.782895 " transform="matrix(0.0390625,0,0,0.0395833,0,0)"/>
<path style="fill-rule:nonzero;fill:rgb(100%,60.392159%,3.137255%);fill-opacity:1;stroke-width:0.8;stroke-linecap:butt;stroke-linejoin:miter;stroke:rgb(0%,0%,0%);stroke-opacity:1;stroke-miterlimit:4;" d="M 474.6 245.032895 L 474.8 310.460526 M 470.6 246.315789 L 470.9 305.723684 M 466.4 254.901316 L 466.6 302.072368 M 462.9 258.157895 L 463.1 297.335526 M 459.2 260.032895 L 459.2 292.993421 M 455.2 262.598684 L 455.2 288.651316 M 451.7 264.671053 L 451.7 284.703947 " transform="matrix(0.0390625,0,0,0.0395833,0,0)"/>
<path style="fill:none;stroke-width:0.8;stroke-linecap:round;stroke-linejoin:miter;stroke:rgb(100%,87.450981%,0%);stroke-opacity:1;stroke-miterlimit:4;" d="M 448.5 283.026316 L 484.5 324.177632 " transform="matrix(0.0390625,0,0,0.0395833,0,0)"/>
<path style="fill:none;stroke-width:1.4;stroke-linecap:round;stroke-linejoin:miter;stroke:rgb(100%,87.450981%,0%);stroke-opacity:1;stroke-miterlimit:4;" d="M 486.3 256.973684 C 486.3 256.973684 502.7 292.697368 487.5 322.006579 M 444.3 275.427632 C 444.3 275.427632 445.5 272.269737 447 273.552632 M 441.5 266.348684 C 441.5 266.348684 434.9 271.973684 438.5 275.822368 " transform="matrix(0.0390625,0,0,0.0395833,0,0)"/>
<path style="fill-rule:nonzero;fill:rgb(0%,50.196081%,12.941177%);fill-opacity:1;stroke-width:0.3;stroke-linecap:butt;stroke-linejoin:miter;stroke:rgb(0%,0%,0%);stroke-opacity:1;stroke-miterlimit:4;" d="M 494 175.361842 C 496.3 173.388158 497.6 172.105263 499.1 172.401316 C 500.6 172.697368 502.6 172.401316 504.1 172.006579 C 508 171.118421 512.1 170.921053 516.1 171.611842 C 517.1 171.809211 518.6 172.302632 520.7 174.078947 C 522.8 175.855263 525.9 179.111842 524.9 187.697368 C 523.9 196.282895 524.2 200.032895 523.7 204.868421 C 522.9 213.355263 521 220.361842 517.7 219.868421 C 522.2 227.861842 522.7 234.868421 525.7 240.394737 C 528.7 245.921053 530.5 257.171053 529.4 269.407895 C 528.2 281.743421 525 309.078947 534.7 327.631579 C 533.1 328.717105 529.2 327.631579 525.7 323.881579 C 522.2 320.230263 520.7 320.328947 517.9 322.5 C 509.1 329.210526 500.9 337.302632 488.8 329.210526 C 486 327.434211 485.2 325.164474 487.2 319.539474 C 492.2 305.526316 494.7 286.085526 493.9 277.105263 Z M 494 175.361842 " transform="matrix(0.0390625,0,0,0.0395833,0,0)"/>
<path style="fill-rule:nonzero;fill:rgb(100%,88.235295%,81.176472%);fill-opacity:1;stroke-width:0.3;stroke-linecap:butt;stroke-linejoin:miter;stroke:rgb(0%,0%,0%);stroke-opacity:1;stroke-miterlimit:4;" d="M 502.3 166.776316 C 503.1 169.046053 503 171.414474 502.2 173.585526 C 501 176.348684 501.2 179.407895 502.7 181.973684 C 505.4 178.026316 509.3 178.815789 511.7 176.644737 C 513.9 174.276316 514.4 172.105263 516.1 171.611842 C 514.4 170.131579 511.8 168.355263 512.3 164.111842 C 512.9 159.671053 519 156.118421 513.5 149.506579 C 511.8 147.335526 509.2 146.25 506.5 146.447368 C 503.8 146.644737 501.4 148.322368 500.1 150.690789 C 499.8 151.480263 500.3 153.059211 499.4 154.144737 C 498.8 154.934211 498.1 155.526316 497.3 156.118421 C 496.6 156.513158 496.6 157.006579 497.1 157.697368 C 497.3 157.993421 497.6 158.092105 498.1 158.092105 L 497.3 159.572368 C 497 159.868421 497.1 160.164474 497.5 160.559211 C 497 161.940789 497.9 162.138158 497.3 163.125 C 496.7 164.111842 496.1 165.098684 497.9 166.085526 C 498.5 166.381579 500.9 166.875 502.3 166.776316 Z M 479.8 189.769737 C 476.6 190.559211 471.4 189.177632 467.5 189.572368 C 465.7 189.769737 464.3 188.881579 464.5 187.203947 C 464.7 185.526316 465.1 182.763158 464.7 180.394737 C 464.8 175.263158 466.1 170.131579 468.5 165.592105 C 470.5 162.039474 471.8 158.092105 472.3 154.046053 C 472.3 152.072368 472.5 150.098684 474.1 149.013158 C 475.3 148.322368 475.5 147.631579 475.9 147.039474 C 476.9 145.460526 477.9 145.164474 477.9 145.953947 C 478 146.447368 477.9 147.039474 477.4 147.631579 C 478.4 146.842105 480.2 145.756579 480.6 145.559211 C 481 145.164474 483 143.782895 483.1 145.164474 C 484 144.769737 484.5 144.769737 484.7 145.164474 C 484.8 145.559211 484.7 145.953947 484.4 146.151316 C 485 146.151316 485.6 147.138158 484.4 148.026316 C 485.1 147.828947 485.7 148.815789 484.6 149.703947 C 483.6 150.690789 482.2 151.282895 481.9 152.072368 C 481.6 152.861842 478.7 155.032895 477.6 155.427632 C 476.5 155.921053 476.4 156.513158 476.4 158.092105 C 476.4 175.855263 474.4 174.375 474.4 178.815789 C 474.4 179.802632 474.1 180.888158 475.2 180.592105 C 476.7 180.098684 478.2 179.802632 479.8 179.703947 Z M 480.5 227.960526 C 485.7 225.394737 491.7 224.407895 494.8 223.618421 C 498.4 222.434211 501.9 220.953947 505.2 219.177632 C 507.7 217.894737 509.7 216.217105 511.1 215.723684 C 512.7 215.131579 514.1 213.947368 514.9 212.467105 C 518.9 205.855263 521.2 198.355263 521.8 190.657895 C 521.8 186.710526 520.8 182.072368 516.8 185.328947 C 512.7 188.782895 509.7 193.421053 508 198.453947 C 506.4 204.868421 505 206.447368 504.7 207.631579 C 504.3 208.914474 503.1 208.914474 501.5 209.210526 C 496.5 210 491.7 212.269737 487.9 215.625 C 483.4 218.980263 478.6 222.039474 473.7 224.802632 C 470 226.875 469.3 227.072368 468.5 228.848684 C 467.7 230.427632 467 231.710526 466.3 232.401316 C 465.5 233.190789 465.2 234.078947 465.5 234.967105 C 465.6 235.756579 465.3 239.210526 465.2 240.394737 C 465.1 241.578947 465.5 241.776316 465.9 241.875 C 466.3 241.875 466.9 241.677632 467.2 240.296053 C 467 241.677632 468.9 241.282895 469 240.197368 C 469 241.677632 471 240.789474 471 239.407895 C 471 240.394737 472.7 239.703947 472.7 239.407895 C 473 238.026316 473.4 236.940789 473.9 235.953947 C 474.5 234.572368 475.2 232.796053 476.6 232.006579 C 478.1 230.822368 477.4 229.638158 480.5 227.960526 Z M 517.9 322.5 C 518.2 323.782895 518.9 325.164474 519.1 326.052632 C 519.3 327.039474 518.9 327.236842 518.7 327.730263 C 517.4 330.493421 516.4 333.453947 515.9 336.513158 C 515.9 337.697368 514.9 338.881579 514.6 339.671053 C 514.1 340.460526 514.3 341.25 515.4 342.039474 C 515.8 342.335526 517.4 341.842105 517.5 340.953947 C 518.3 341.644737 519 341.447368 519.6 340.460526 C 520.3 340.953947 520.9 340.756579 521.6 339.769737 C 522.1 340.065789 522.9 339.473684 523.2 338.980263 C 524 339.375 524.8 338.980263 524.8 337.401316 C 524.9 336.907895 525 336.513158 525.3 336.118421 C 525.5 335.625 525.6 335.032895 525.6 334.440789 C 525.6 333.651316 525.9 332.368421 526.5 331.578947 C 527.1 330.592105 528 329.111842 527.6 327.631579 C 527.2 326.151316 526.6 326.348684 526.1 324.375 C 524.8 322.993421 523.1 321.217105 521.3 321.019737 C 519.5 321.019737 518.5 322.105263 517.9 322.5 Z M 485 332.368421 C 486.7 334.046053 490.3 334.046053 492.8 331.381579 C 491.9 330.986842 489.8 330 489 329.407895 C 487.9 330.690789 486.5 331.677632 485 332.368421 Z M 485 332.368421 " transform="matrix(0.0390625,0,0,0.0395833,0,0)"/>
<path style="fill-rule:nonzero;fill:rgb(52.941179%,5.882353%,0%);fill-opacity:1;stroke-width:0.3;stroke-linecap:butt;stroke-linejoin:miter;stroke:rgb(0%,0%,0%);stroke-opacity:1;stroke-miterlimit:4;" d="M 501.4 149.013158 C 502 144.967105 504.9 144.967105 506.7 145.460526 C 507.5 145.559211 509.3 145.756579 511.1 145.263158 C 514.5 144.375 517.1 145.559211 516.7 148.914474 C 517.7 149.605263 518.7 151.184211 518.4 152.565789 C 518.2 153.947368 518.7 154.638158 519.8 154.736842 C 521.1 154.934211 523.8 156.513158 522 158.684211 C 523.7 159.671053 525 162.434211 524.1 164.111842 C 523.2 165.789474 520.5 166.184211 519.3 164.605263 C 518 165.197368 516 165.296053 514.7 164.013158 C 513.8 165 511.7 164.901316 511.2 164.013158 C 510.8 163.026316 510.2 162.532895 509.3 162.335526 C 508.4 162.039474 508.3 159.473684 509.7 159.177632 C 509.6 158.289474 509.7 157.697368 510 157.203947 C 510.3 156.710526 510 156.118421 509.2 155.427632 C 508.4 154.736842 507.7 152.368421 508.5 150.986842 C 507.1 151.480263 504.1 150.098684 503.5 149.210526 C 502.7 148.223684 502 148.223684 501.4 149.013158 Z M 501.4 149.013158 " transform="matrix(0.0390625,0,0,0.0395833,0,0)"/>
<path style="fill:none;stroke-width:0.3;stroke-linecap:butt;stroke-linejoin:miter;stroke:rgb(0%,0%,0%);stroke-opacity:1;stroke-miterlimit:4;" d="M 502.3 166.776316 C 504.5 166.480263 505.3 165.197368 506.9 165.197368 M 497.5 160.460526 L 498 160.756579 C 498.5 161.052632 498.9 161.151316 499.4 161.151316 M 498.1 158.092105 L 499.1 158.684211 M 503.3 149.013158 C 502 147.730263 505.5 145.164474 509.3 148.815789 C 510.1 149.605263 511.8 149.605263 512.3 149.407895 M 508.5 150.986842 C 510.3 150.592105 512.8 150.592105 513.6 152.565789 C 514.4 154.638158 515.9 153.157895 517.1 155.625 C 518.3 157.894737 520.1 160.361842 522.1 158.585526 M 514.7 164.013158 C 514.1 163.026316 514 161.842105 514.3 160.756579 C 513.6 159.967105 513.9 158.289474 514.3 157.5 M 509.7 159.177632 C 509.7 159.868421 510.7 161.151316 512.1 161.447368 M 519.3 164.605263 C 518.6 163.618421 518.5 162.631579 518.8 161.447368 " transform="matrix(0.0390625,0,0,0.0395833,0,0)"/>
<path style="fill:none;stroke-width:0.3;stroke-linecap:butt;stroke-linejoin:miter;stroke:rgb(0%,0%,0%);stroke-opacity:1;stroke-miterlimit:4;" d="M 510.9 152.960526 C 510.9 154.144737 511.5 155.526316 512.5 156.019737 C 512.8 156.611842 513.9 158.190789 516.3 157.993421 M 516.7 149.013158 C 515.2 147.730263 513.4 146.743421 511.5 146.447368 M 502.7 181.973684 C 500.7 184.736842 499.5 188.388158 500.3 193.618421 C 501.3 198.848684 502.7 206.447368 499 209.802632 M 517.6 219.868421 C 515 219.177632 511.2 219.177632 509.1 220.756579 C 507.1 222.335526 503.5 222.434211 501.2 221.151316 " transform="matrix(0.0390625,0,0,0.0395833,0,0)"/>
<path style="fill:none;stroke-width:0.3;stroke-linecap:butt;stroke-linejoin:miter;stroke:rgb(0%,0%,0%);stroke-opacity:1;stroke-miterlimit:4;" d="M 512 219.572368 C 509.7 219.967105 508.7 221.743421 508.7 225.986842 C 508.7 230.230263 507.7 236.447368 508.5 242.565789 M 507.9 221.546053 C 506.3 221.940789 504.7 221.940789 505.1 225.986842 M 500 225.986842 C 500.1 223.618421 501 221.151316 502.6 221.743421 M 516.7 226.578947 C 516.7 220.953947 515.5 219.473684 513.9 219.572368 C 516.1 219.572368 517.6 219.868421 518.6 228.848684 C 519.2 235.559211 520.6 237.828947 522.3 243.157895 C 526.4 256.776316 524.3 277.697368 526.4 285.197368 M 513.5 228.157895 C 519.3 244.144737 519.1 261.611842 513.1 277.5 C 517.9 290.921053 522.7 300.592105 523.6 306.118421 M 499.7 258.059211 C 500.5 255.197368 497.5 254.901316 500.1 244.835526 C 501.2 240.493421 501.4 237.730263 500.7 236.447368 " transform="matrix(0.0390625,0,0,0.0395833,0,0)"/>
<path style="fill:none;stroke-width:0.3;stroke-linecap:butt;stroke-linejoin:miter;stroke:rgb(0%,0%,0%);stroke-opacity:1;stroke-miterlimit:4;" d="M 500.7 242.368421 C 499.7 246.809211 504 255.197368 501.9 261.414474 M 496.4 262.5 C 496.4 266.546053 497.3 271.480263 497.1 275.526316 C 496.9 279.375 498.5 281.151316 500.3 284.901316 C 507.1 298.322368 511.5 307.796053 511 320.427632 C 510.8 322.796053 511.6 327.631579 509.2 329.013158 M 496.6 332.368421 C 497.3 332.368421 498 331.973684 498.9 330 C 501.1 322.5 501.9 314.703947 501.3 307.006579 M 502.7 316.578947 C 503.1 319.243421 503.1 324.572368 501.4 329.013158 " transform="matrix(0.0390625,0,0,0.0395833,0,0)"/>
<path style="fill:none;stroke-width:0.3;stroke-linecap:butt;stroke-linejoin:miter;stroke:rgb(0%,0%,0%);stroke-opacity:1;stroke-miterlimit:4;" d="M 507.1 308.684211 C 508.1 314.309211 508.1 319.440789 507.2 322.993421 M 504.8 322.993421 C 505 325.164474 506 330.986842 504.3 331.480263 M 513.5 296.151316 C 517.8 302.861842 521.1 319.440789 524.7 322.796053 M 517.1 320.230263 C 517.1 318.355263 517 315.789474 515.9 314.605263 M 471 239.407895 C 471.1 238.223684 470.9 237.039474 472.3 234.967105 M 469 240.197368 C 469.2 235.756579 469.1 235.361842 470.4 234.177632 M 467.2 240.296053 C 467.2 237.138158 466.9 235.953947 468.2 233.980263 M 483.1 145.164474 L 478.6 148.618421 M 484.4 146.151316 C 483.9 146.348684 482.3 147.532895 479.4 149.802632 M 484.5 148.026316 C 483.5 148.421053 481.9 150 480.3 151.184211 M 477.4 147.730263 L 475.8 149.309211 M 517.5 340.953947 C 517.3 340.756579 517.3 339.671053 517.8 338.585526 M 519.7 340.460526 C 519.3 340.164474 519.7 338.782895 519.9 337.894737 M 521.6 339.769737 C 521.1 339.572368 521.1 338.881579 521.6 337.796053 M 523.1 338.980263 C 522.8 338.980263 522.9 338.388158 523.2 337.203947 " transform="matrix(0.0390625,0,0,0.0395833,0,0)"/>
<path style=" stroke:none;fill-rule:nonzero;fill:rgb(0%,0%,0%);fill-opacity:1;" d="M 19.550781 6.042969 C 19.582031 6.082031 19.617188 6.082031 19.621094 6.109375 C 19.628906 6.140625 19.632812 6.140625 19.636719 6.148438 C 19.640625 6.15625 19.621094 6.15625 19.613281 6.148438 L 19.558594 6.148438 C 19.542969 6.148438 19.527344 6.128906 19.535156 6.128906 C 19.546875 6.125 19.546875 6.121094 19.542969 6.113281 C 19.542969 6.097656 19.546875 6.089844 19.558594 6.082031 L 19.554688 6.070312 C 19.546875 6.058594 19.542969 6.03125 19.550781 6.039062 Z M 19.570312 6 C 19.621094 6.007812 19.667969 6.027344 19.703125 6.0625 C 19.730469 6.097656 19.707031 6.089844 19.695312 6.089844 C 19.683594 6.089844 19.65625 6.078125 19.640625 6.0625 C 19.621094 6.042969 19.59375 6.027344 19.566406 6.015625 C 19.554688 6.015625 19.542969 6 19.566406 6 Z M 19.570312 6 "/>
<path style=" stroke:none;fill-rule:nonzero;fill:rgb(0.392157%,12.941177%,41.176471%);fill-opacity:1;" d="M 0 0 L 12.5 0 L 12.5 9.5 L 0 9.5 Z M 0 0 "/>
<path style=" stroke:none;fill-rule:nonzero;fill:rgb(100%,100%,100%);fill-opacity:1;" d="M 1.464844 0 L 6.230469 3.582031 L 10.976562 0 L 12.5 0 L 12.5 1.226562 L 7.8125 4.769531 L 12.5 8.292969 L 12.5 9.5 L 10.9375 9.5 L 6.25 5.957031 L 1.582031 9.5 L 0 9.5 L 0 8.3125 L 4.667969 4.789062 L 0 1.265625 L 0 0 Z M 1.464844 0 "/>
<path style=" stroke:none;fill-rule:nonzero;fill:rgb(78.431374%,6.27451%,18.039216%);fill-opacity:1;" d="M 8.28125 5.5625 L 12.5 8.707031 L 12.5 9.5 L 7.207031 5.5625 Z M 4.6875 5.957031 L 4.804688 6.648438 L 1.054688 9.5 L 0 9.5 Z M 12.5 0 L 12.5 0.0585938 L 7.636719 3.78125 L 7.675781 2.910156 L 11.523438 0 Z M 0 0 L 4.667969 3.484375 L 3.496094 3.484375 L 0 0.832031 Z M 0 0 "/>
<path style=" stroke:none;fill-rule:nonzero;fill:rgb(100%,100%,100%);fill-opacity:1;" d="M 4.707031 0 L 4.707031 9.5 L 7.832031 9.5 L 7.832031 0 Z M 0 3.167969 L 0 6.332031 L 12.5 6.332031 L 12.5 3.167969 Z M 0 3.167969 "/>
<path style=" stroke:none;fill-rule:nonzero;fill:rgb(78.431374%,6.27451%,18.039216%);fill-opacity:1;" d="M 0 3.820312 L 0 5.71875 L 12.5 5.71875 L 12.5 3.820312 Z M 5.332031 0 L 5.332031 9.5 L 7.207031 9.5 L 7.207031 0 Z M 5.332031 0 "/>
</g>
</svg>
