<?xml version="1.0" encoding="UTF-8"?>
<svg xmlns="http://www.w3.org/2000/svg" xmlns:xlink="http://www.w3.org/1999/xlink" width="25px" height="px" viewBox="0 0 25 19" version="1.1">
<g id="surface1">
<rect x="0" y="0" width="25" height="19" style="fill:rgb(100%,100%,100%);fill-opacity:1;stroke:none;"/>
<path style=" stroke:none;fill-rule:nonzero;fill:rgb(81.176472%,7.843138%,16.862746%);fill-opacity:1;" d="M 12.5 0 L 25 0 L 25 19 L 12.5 19 Z M 12.5 0 "/>
<path style="fill:none;stroke-width:512;stroke-linecap:butt;stroke-linejoin:miter;stroke:rgb(81.176472%,7.843138%,16.862746%);stroke-opacity:1;stroke-miterlimit:4;" d="M -2047.619231 -7165.771902 L 2047.618816 -7165.771902 L 2047.618816 -3278.822431 C 2360.543982 -3298.962066 2687.07459 -3171.411047 2931.972547 -2929.735432 C 3170.067782 -2688.059818 3299.319481 -2365.825665 3278.911318 -2050.304723 L 7170.067735 -2050.304723 L 7170.067735 2044.754305 L 3278.911318 2044.754305 C 3299.319481 2360.275246 3170.067782 2689.222611 2931.972547 2930.898225 C 2687.07459 3172.57384 2360.543982 3300.124859 2047.618816 3279.985224 L 2047.618816 7166.934695 L -2047.619231 7166.934695 L -2047.619231 3279.985224 C -2360.544397 3300.124859 -2687.075006 3172.57384 -2931.972962 2930.898225 C -3170.068197 2689.222611 -3299.319896 2360.275246 -3278.911733 2044.754305 L -7170.06815 2044.754305 L -7170.06815 -2050.304723 L -3278.911733 -2050.304723 C -3299.319896 -2365.825665 -3170.068197 -2688.059818 -2931.972962 -2929.735432 C -2687.075006 -3171.411047 -2360.544397 -3298.962066 -2047.619231 -3278.822431 Z M -2047.619231 -7165.771902 " transform="matrix(0.000574219,0,0,0.000581875,6.320313,6.357084)"/>
<path style=" stroke:none;fill-rule:nonzero;fill:rgb(100%,100%,100%);fill-opacity:1;" d="M 7.484375 4.453125 C 7.667969 4.433594 7.859375 4.507812 8.003906 4.652344 C 8.144531 4.796875 8.21875 4.992188 8.199219 5.179688 L 8.199219 7.535156 C 8.21875 7.722656 8.144531 7.917969 8.003906 8.0625 C 7.859375 8.207031 7.667969 8.28125 7.484375 8.261719 L 5.15625 8.261719 C 4.972656 8.28125 4.78125 8.207031 4.636719 8.0625 C 4.496094 7.917969 4.421875 7.722656 4.441406 7.535156 L 4.441406 5.179688 C 4.421875 4.992188 4.496094 4.796875 4.636719 4.652344 C 4.78125 4.507812 4.972656 4.433594 5.15625 4.453125 Z M 7.484375 4.453125 "/>
<path style="fill-rule:nonzero;fill:rgb(100%,100%,100%);fill-opacity:1;stroke-width:48;stroke-linecap:butt;stroke-linejoin:miter;stroke:rgb(0%,0%,0%);stroke-opacity:1;stroke-miterlimit:4;" d="M -2027.211068 -7145.632267 L 2027.210653 -7145.632267 L 2027.210653 7146.79506 L -2027.211068 7146.79506 Z M -7142.857266 -2023.451877 L 7142.856851 -2023.451877 L 7142.856851 2024.61467 L -7142.857266 2024.61467 Z M -7142.857266 -2023.451877 " transform="matrix(0.000574219,0,0,0.000581875,6.320313,6.357084)"/>
<path style="fill-rule:nonzero;fill:rgb(100%,100%,100%);fill-opacity:1;stroke-width:96;stroke-linecap:butt;stroke-linejoin:miter;stroke:rgb(0%,0%,0%);stroke-opacity:1;stroke-miterlimit:4;" d="M -1789.115833 -6910.669864 L 1789.115417 -6910.669864 L 1789.115417 6911.832657 L -1789.115833 6911.832657 Z M -6911.564751 -1795.202685 L 6911.564336 -1795.202685 L 6911.564336 1789.652267 L -6911.564751 1789.652267 Z M -6911.564751 -1795.202685 " transform="matrix(0.000574219,0,0,0.000581875,6.320313,6.357084)"/>
<path style="fill-rule:nonzero;fill:rgb(100%,100%,100%);fill-opacity:1;stroke-width:96;stroke-linecap:butt;stroke-linejoin:miter;stroke:rgb(0%,0%,0%);stroke-opacity:1;stroke-miterlimit:4;" d="M 3197.278666 -2.775209 C 3197.278666 -1768.349839 1768.707254 -3198.263893 -0.000207603 -3198.263893 C -1768.70767 -3198.263893 -3197.279081 -1768.349839 -3197.279081 -2.775209 C -3197.279081 1769.512632 -1768.70767 3199.426686 -0.000207603 3199.426686 C 1768.707254 3199.426686 3197.278666 1769.512632 3197.278666 -2.775209 Z M 3197.278666 -2.775209 " transform="matrix(0.000574219,0,0,0.000581875,6.320313,6.357084)"/>
<path style="fill-rule:nonzero;fill:rgb(100%,100%,100%);fill-opacity:1;stroke-width:96;stroke-linecap:butt;stroke-linejoin:miter;stroke:rgb(0%,0%,0%);stroke-opacity:1;stroke-miterlimit:4;" d="M 2367.346703 -2.775209 C 2367.346703 -1305.138244 1306.122226 -2365.825665 -0.000207603 -2365.825665 C -1306.122641 -2365.825665 -2367.347118 -1305.138244 -2367.347118 -2.775209 C -2367.347118 1306.301037 -1306.122641 2366.988458 -0.000207603 2366.988458 C 1306.122226 2366.988458 2367.346703 1306.301037 2367.346703 -2.775209 Z M 2367.346703 -2.775209 " transform="matrix(0.000574219,0,0,0.000581875,6.320313,6.357084)"/>
<path style="fill-rule:nonzero;fill:rgb(100%,100%,100%);fill-opacity:1;stroke-width:48;stroke-linecap:butt;stroke-linejoin:round;stroke:rgb(0%,0%,0%);stroke-opacity:1;stroke-miterlimit:4;" d="M 3081.632409 -2567.22201 C 2972.788873 -2479.95026 2761.904522 -2265.127492 2632.652822 -2104.010415 L 2517.006565 -2177.855742 C 2680.271869 -2318.833184 2904.761663 -2526.942741 3027.210641 -2674.633395 Z M 2986.394315 -2748.478721 C 2782.312685 -2688.059818 2401.360308 -2580.648433 2231.292283 -2473.237049 L 2197.278678 -2526.942741 C 2265.305888 -2627.640914 2346.93854 -3030.433605 2340.135819 -3151.271413 L 2469.387518 -3117.705355 C 2428.571192 -3017.007182 2387.754866 -2808.897625 2374.149424 -2667.920183 C 2503.401123 -2688.059818 2809.523569 -2788.75799 2897.958942 -2855.890106 Z M 2986.394315 -2748.478721 " transform="matrix(0.000574219,0,0,0.000581875,6.320313,6.357084)"/>
<path style="fill-rule:nonzero;fill:rgb(100%,100%,100%);fill-opacity:1;stroke-width:48;stroke-linecap:butt;stroke-linejoin:round;stroke:rgb(0%,0%,0%);stroke-opacity:1;stroke-miterlimit:4;" d="M 3238.094992 -2291.980338 L 3081.632409 -2291.980338 C 3108.843293 -2466.523837 2986.394315 -2714.912664 2775.509964 -2889.456163 C 2564.625612 -3070.712874 2326.530377 -3137.84499 2204.081399 -3043.860028 C 2074.8297 -2956.588278 2095.237863 -2735.052298 2244.897725 -2513.516318 C 2401.360308 -2291.980338 2646.258264 -2130.863261 2836.734453 -2117.436838 L 2952.38071 -2251.701069 L 3088.43513 -2117.436838 L 2938.775268 -1963.032973 C 2646.258264 -2003.312243 2367.346703 -2171.142531 2183.673236 -2412.818145 C 1993.197048 -2661.206972 1918.367117 -2963.30149 1959.183443 -3245.256374 C 2238.095004 -3285.535643 2537.414728 -3211.690316 2782.312685 -3030.433605 C 3020.40792 -2849.176894 3190.475945 -2580.648433 3238.094992 -2291.980338 Z M 3238.094992 -2291.980338 " transform="matrix(0.000574219,0,0,0.000581875,6.320313,6.357084)"/>
<path style="fill-rule:nonzero;fill:rgb(100%,100%,100%);fill-opacity:1;stroke-width:48;stroke-linecap:butt;stroke-linejoin:round;stroke:rgb(0%,0%,0%);stroke-opacity:1;stroke-miterlimit:4;" d="M 3085.30209 -2564.625612 C 2971.177494 -2482.99296 2763.067937 -2265.305888 2635.516918 -2102.040584 L 2514.679111 -2176.870515 C 2675.796188 -2319.727656 2904.045379 -2530.612007 3031.596398 -2680.271869 Z M 2984.603917 -2748.29908 C 2783.207572 -2693.877311 2400.554515 -2578.231054 2232.724227 -2476.190239 L 2199.15817 -2523.809286 C 2266.290285 -2625.850101 2346.848823 -3034.013362 2340.135611 -3149.659619 L 2467.68663 -3122.448735 C 2427.407361 -3020.40792 2387.128092 -2802.720848 2373.701669 -2666.666427 C 2501.252688 -2687.07459 2810.060418 -2789.115406 2897.332168 -2850.339895 Z M 2984.603917 -2748.29908 " transform="matrix(0,0.000581875,-0.000574219,0,6.320313,6.357084)"/>
<path style="fill-rule:nonzero;fill:rgb(100%,100%,100%);fill-opacity:1;stroke-width:48;stroke-linecap:butt;stroke-linejoin:round;stroke:rgb(0%,0%,0%);stroke-opacity:1;stroke-miterlimit:4;" d="M 3239.705955 -2292.516772 L 3085.30209 -2292.516772 C 3112.154936 -2462.584797 2984.603917 -2714.285474 2776.49436 -2891.156221 C 2561.671592 -3074.829688 2326.709188 -3136.054177 2199.15817 -3047.618804 C 2078.320362 -2959.183431 2091.746785 -2734.693638 2246.15065 -2517.006565 C 2400.554515 -2292.516772 2642.23013 -2129.251468 2836.913264 -2115.646026 L 2951.03786 -2251.700446 L 3092.015302 -2115.646026 L 2937.611437 -1959.183443 C 2642.23013 -1999.999769 2366.988458 -2170.067794 2185.731746 -2414.96575 C 1997.761824 -2659.863706 1917.203286 -2965.986152 1964.195766 -3244.897713 C 2239.437439 -3285.714039 2534.818746 -3210.884108 2776.49436 -3027.210641 C 3024.883187 -2850.339895 3192.713475 -2578.231054 3239.705955 -2292.516772 Z M 3239.705955 -2292.516772 " transform="matrix(0,0.000581875,-0.000574219,0,6.320313,6.357084)"/>
<path style="fill-rule:nonzero;fill:rgb(100%,100%,100%);fill-opacity:1;stroke-width:48;stroke-linecap:butt;stroke-linejoin:round;stroke:rgb(0%,0%,0%);stroke-opacity:1;stroke-miterlimit:4;" d="M 3081.632824 -2561.671592 C 2972.789288 -2481.113053 2761.904937 -2266.290285 2632.653238 -2105.173208 L 2517.00698 -2179.018535 C 2680.272285 -2319.995977 2904.762078 -2528.105534 3027.211056 -2675.796188 Z M 2986.39473 -2749.641514 C 2782.3131 -2689.222611 2401.360723 -2575.098015 2231.292698 -2474.399842 L 2197.279093 -2528.105534 C 2265.306303 -2622.090495 2346.938955 -3031.596398 2340.136234 -3145.720994 L 2469.387933 -3118.868148 C 2428.571607 -3018.169975 2387.755281 -2803.347206 2374.149839 -2669.082976 C 2503.401538 -2689.222611 2809.523984 -2789.920783 2897.959357 -2850.339687 Z M 2986.39473 -2749.641514 " transform="matrix(-0.000574219,0,0,-0.000581875,6.320313,6.357084)"/>
<path style="fill-rule:nonzero;fill:rgb(100%,100%,100%);fill-opacity:1;stroke-width:48;stroke-linecap:butt;stroke-linejoin:round;stroke:rgb(0%,0%,0%);stroke-opacity:1;stroke-miterlimit:4;" d="M 3238.095407 -2293.143131 L 3081.632824 -2293.143131 C 3108.843708 -2460.973419 2986.39473 -2716.075457 2775.510379 -2890.618956 C 2564.626028 -3071.875667 2326.530792 -3139.007782 2204.081814 -3045.022821 C 2074.830115 -2957.751071 2095.238278 -2736.215091 2244.89814 -2514.679111 C 2401.360723 -2293.143131 2646.25868 -2132.026054 2836.734868 -2118.599631 L 2952.381125 -2252.863862 L 3088.435545 -2111.88642 L 2938.775683 -1957.482555 C 2646.25868 -2004.475035 2367.347118 -2172.305323 2183.673651 -2413.980938 C 1993.197463 -2662.369764 1918.367532 -2964.464283 1959.183858 -3239.705955 C 2238.095419 -3286.698436 2537.415143 -3212.853109 2782.3131 -3031.596398 C 3020.408335 -2850.339687 3190.47636 -2581.811226 3238.095407 -2293.143131 Z M 3238.095407 -2293.143131 " transform="matrix(-0.000574219,0,0,-0.000581875,6.320313,6.357084)"/>
<path style="fill-rule:nonzero;fill:rgb(100%,100%,100%);fill-opacity:1;stroke-width:48;stroke-linecap:butt;stroke-linejoin:round;stroke:rgb(0%,0%,0%);stroke-opacity:1;stroke-miterlimit:4;" d="M 3084.139297 -2564.626028 C 2970.014701 -2482.993375 2761.905144 -2265.306303 2634.354125 -2102.040999 L 2513.516318 -2176.87093 C 2681.346606 -2319.728071 2902.882586 -2530.612422 3030.433605 -2680.272285 Z M 2983.441125 -2748.299495 C 2782.044779 -2693.877727 2399.391722 -2578.23147 2231.561434 -2476.190654 L 2197.995377 -2523.809701 C 2265.127492 -2625.850517 2345.68603 -3034.013777 2338.972819 -3149.660034 L 2466.523837 -3122.44915 C 2426.244568 -3020.408335 2385.965299 -2802.721263 2372.538876 -2666.666843 C 2506.803107 -2687.075006 2808.897625 -2789.115821 2896.169375 -2850.34031 Z M 2983.441125 -2748.299495 " transform="matrix(0,-0.000581875,0.000574219,0,6.320313,6.357084)"/>
<path style="fill-rule:nonzero;fill:rgb(100%,100%,100%);fill-opacity:1;stroke-width:48;stroke-linecap:butt;stroke-linejoin:round;stroke:rgb(0%,0%,0%);stroke-opacity:1;stroke-miterlimit:4;" d="M 3238.543162 -2292.517187 L 3084.139297 -2292.517187 C 3110.992143 -2462.585212 2983.441125 -2714.28589 2775.331567 -2891.156636 C 2560.508799 -3074.830103 2325.546396 -3136.054592 2197.995377 -3047.619219 C 2077.157569 -2959.183846 2097.297204 -2734.694053 2244.987857 -2517.00698 C 2399.391722 -2292.517187 2641.067337 -2129.251883 2842.463683 -2115.646441 L 2949.875067 -2251.700861 L 3090.852509 -2115.646441 L 2936.448644 -1959.183858 C 2641.067337 -2000.000184 2372.538876 -2170.068209 2184.568954 -2414.966165 C 1996.599031 -2659.864122 1916.040493 -2965.986567 1963.032973 -3244.898128 C 2238.274646 -3285.714454 2533.655953 -3210.884523 2782.044779 -3027.211056 C 3023.720394 -2850.34031 3191.550682 -2578.23147 3238.543162 -2292.517187 Z M 3238.543162 -2292.517187 " transform="matrix(0,-0.000581875,0.000574219,0,6.320313,6.357084)"/>
<path style=" stroke:none;fill-rule:nonzero;fill:rgb(0%,0%,0%);fill-opacity:1;" d="M 4.859375 7.398438 C 4.820312 7.324219 4.765625 7.230469 4.734375 7.207031 C 4.753906 7.195312 4.777344 7.175781 4.792969 7.171875 C 4.789062 7.21875 4.859375 7.316406 4.859375 7.316406 L 4.960938 7.246094 C 4.933594 7.203125 4.910156 7.167969 4.886719 7.15625 C 4.914062 7.136719 4.941406 7.121094 4.949219 7.117188 C 4.949219 7.140625 4.960938 7.179688 5 7.226562 C 5 7.226562 5.09375 7.175781 5.125 7.136719 L 5.167969 7.203125 C 5.121094 7.210938 4.921875 7.335938 4.859375 7.398438 M 4.71875 6.515625 C 4.613281 6.535156 4.558594 6.628906 4.574219 6.730469 C 4.59375 6.835938 4.6875 6.910156 4.789062 6.890625 C 4.890625 6.875 4.949219 6.777344 4.929688 6.667969 C 4.910156 6.558594 4.828125 6.496094 4.71875 6.515625 M 4.734375 6.578125 C 4.820312 6.5625 4.894531 6.605469 4.90625 6.671875 C 4.917969 6.742188 4.863281 6.808594 4.777344 6.824219 C 4.691406 6.839844 4.621094 6.78125 4.613281 6.726562 C 4.601562 6.667969 4.648438 6.59375 4.734375 6.578125 M 4.945312 5.9375 C 4.910156 5.996094 4.832031 6.046875 4.761719 6.097656 C 4.75 6.046875 4.714844 6.015625 4.671875 6.011719 C 4.625 6.007812 4.582031 6.046875 4.574219 6.070312 C 4.5625 6.105469 4.546875 6.25 4.546875 6.25 C 4.636719 6.242188 4.832031 6.257812 4.898438 6.28125 L 4.90625 6.207031 C 4.863281 6.21875 4.761719 6.195312 4.761719 6.195312 L 4.765625 6.164062 L 4.867188 6.082031 C 4.882812 6.070312 4.960938 5.996094 4.960938 5.945312 C 4.960938 5.925781 4.949219 5.933594 4.945312 5.9375 M 4.738281 6.195312 C 4.695312 6.195312 4.613281 6.191406 4.589844 6.179688 C 4.597656 6.097656 4.621094 6.070312 4.667969 6.074219 C 4.707031 6.078125 4.75 6.101562 4.738281 6.195312 M 5.128906 5.164062 C 5.050781 5.171875 4.953125 5.246094 4.957031 5.308594 C 4.957031 5.34375 4.96875 5.390625 5.011719 5.421875 C 5.054688 5.457031 5.101562 5.46875 5.136719 5.460938 C 5.171875 5.453125 5.230469 5.402344 5.230469 5.375 C 5.230469 5.351562 5.167969 5.273438 5.128906 5.273438 L 5.195312 5.203125 C 5.210938 5.246094 5.277344 5.304688 5.300781 5.3125 C 5.273438 5.378906 5.238281 5.453125 5.164062 5.484375 C 5.089844 5.519531 5.015625 5.519531 4.945312 5.453125 C 4.878906 5.390625 4.90625 5.269531 4.945312 5.222656 C 4.992188 5.171875 5.078125 5.148438 5.078125 5.109375 Z M 5.496094 4.773438 L 5.507812 5.035156 C 5.507812 5.035156 5.515625 5.128906 5.492188 5.1875 L 5.574219 5.132812 C 5.542969 5.105469 5.550781 5.027344 5.550781 5.027344 L 5.679688 4.957031 C 5.679688 4.957031 5.742188 4.996094 5.734375 5.046875 L 5.847656 5 C 5.78125 4.972656 5.703125 4.917969 5.703125 4.917969 Z M 5.539062 4.855469 L 5.65625 4.933594 L 5.539062 5 Z M 6.121094 4.578125 C 6.105469 4.644531 6.125 4.769531 6.148438 4.875 C 6.226562 4.871094 6.289062 4.859375 6.316406 4.824219 L 6.324219 4.914062 C 6.246094 4.914062 6.15625 4.921875 6.078125 4.9375 C 6.078125 4.816406 6.066406 4.660156 6.03125 4.59375 Z M 6.730469 4.617188 C 6.691406 4.671875 6.660156 4.796875 6.644531 4.902344 C 6.722656 4.925781 6.785156 4.941406 6.824219 4.917969 L 6.796875 5.003906 C 6.722656 4.976562 6.640625 4.949219 6.558594 4.933594 C 6.601562 4.824219 6.648438 4.671875 6.640625 4.597656 Z M 7.34375 4.898438 L 7.117188 5.03125 C 7.117188 5.03125 7.039062 5.078125 6.976562 5.085938 L 7.0625 5.132812 C 7.070312 5.09375 7.144531 5.0625 7.144531 5.0625 L 7.265625 5.148438 C 7.265625 5.148438 7.257812 5.222656 7.210938 5.238281 L 7.300781 5.320312 C 7.296875 5.25 7.308594 5.152344 7.308594 5.152344 Z M 7.292969 4.972656 L 7.273438 5.121094 L 7.164062 5.042969 Z M 7.464844 5.515625 L 7.429688 5.449219 C 7.488281 5.445312 7.664062 5.339844 7.746094 5.285156 L 7.757812 5.308594 L 7.683594 5.660156 C 7.75 5.632812 7.859375 5.574219 7.886719 5.542969 L 7.925781 5.621094 C 7.851562 5.609375 7.710938 5.679688 7.605469 5.746094 L 7.597656 5.726562 L 7.660156 5.386719 C 7.660156 5.386719 7.488281 5.464844 7.464844 5.515625 M 8 6.023438 C 7.992188 5.972656 7.992188 5.9375 7.96875 5.925781 L 7.964844 5.902344 L 8.027344 5.894531 C 8.050781 5.960938 8.082031 6.152344 8.078125 6.199219 L 8.015625 6.210938 L 8.011719 6.191406 C 8.03125 6.167969 8.011719 6.078125 8.011719 6.078125 C 7.914062 6.089844 7.75 6.117188 7.726562 6.148438 L 7.710938 6.058594 C 7.746094 6.070312 7.910156 6.054688 8 6.023438 M 7.691406 6.792969 C 7.726562 6.738281 7.808594 6.6875 7.875 6.636719 C 7.886719 6.6875 7.921875 6.722656 7.964844 6.722656 C 8.011719 6.726562 8.058594 6.691406 8.066406 6.664062 C 8.078125 6.632812 8.09375 6.488281 8.09375 6.488281 C 8.003906 6.492188 7.808594 6.476562 7.742188 6.449219 L 7.730469 6.527344 C 7.777344 6.515625 7.875 6.539062 7.875 6.539062 L 7.875 6.570312 L 7.769531 6.652344 C 7.757812 6.664062 7.679688 6.738281 7.675781 6.789062 C 7.675781 6.804688 7.6875 6.800781 7.691406 6.792969 M 7.902344 6.539062 C 7.941406 6.539062 8.027344 6.542969 8.050781 6.554688 C 8.039062 6.636719 8.015625 6.667969 7.972656 6.664062 C 7.929688 6.65625 7.890625 6.632812 7.902344 6.539062 M 7.574219 7.027344 L 7.523438 7.117188 C 7.5625 7.113281 7.621094 7.144531 7.667969 7.175781 C 7.683594 7.21875 7.746094 7.324219 7.738281 7.429688 L 7.808594 7.308594 C 7.777344 7.296875 7.742188 7.28125 7.71875 7.167969 C 7.808594 7.132812 7.878906 7.125 7.90625 7.140625 L 7.96875 7.035156 C 7.898438 7.078125 7.730469 7.121094 7.703125 7.113281 C 7.675781 7.097656 7.59375 7.070312 7.574219 7.027344 "/>
<path style=" stroke:none;fill-rule:nonzero;fill:rgb(0%,0%,0%);fill-opacity:1;" d="M 7.238281 7.730469 C 7.238281 7.691406 7.207031 7.65625 7.167969 7.65625 C 7.128906 7.65625 7.09375 7.691406 7.09375 7.730469 C 7.09375 7.769531 7.128906 7.804688 7.167969 7.804688 C 7.207031 7.804688 7.238281 7.769531 7.238281 7.730469 Z M 7.238281 7.730469 "/>
<path style=" stroke:none;fill-rule:nonzero;fill:rgb(0%,0%,0%);fill-opacity:1;" d="M 5.546875 7.730469 C 5.546875 7.691406 5.511719 7.65625 5.472656 7.65625 C 5.433594 7.65625 5.402344 7.691406 5.402344 7.730469 C 5.402344 7.769531 5.433594 7.804688 5.472656 7.804688 C 5.511719 7.804688 5.546875 7.769531 5.546875 7.730469 Z M 5.546875 7.730469 "/>
<path style=" stroke:none;fill-rule:nonzero;fill:rgb(0%,0%,0%);fill-opacity:1;" d="M 6.433594 8.132812 C 6.425781 8.136719 6.40625 8.125 6.398438 8.109375 C 6.398438 8.117188 6.398438 8.132812 6.390625 8.140625 C 6.367188 8.164062 6.339844 8.152344 6.320312 8.152344 C 6.300781 8.152344 6.273438 8.164062 6.25 8.140625 C 6.242188 8.132812 6.242188 8.117188 6.242188 8.109375 C 6.234375 8.125 6.214844 8.136719 6.207031 8.132812 C 6.203125 8.125 6.203125 8.105469 6.21875 8.09375 C 6.214844 8.097656 6.199219 8.101562 6.1875 8.09375 C 6.15625 8.078125 6.160156 8.050781 6.15625 8.03125 C 6.148438 8.011719 6.128906 7.992188 6.144531 7.960938 C 6.148438 7.949219 6.164062 7.941406 6.167969 7.941406 C 6.152344 7.941406 6.136719 7.925781 6.140625 7.917969 C 6.140625 7.90625 6.164062 7.90625 6.179688 7.914062 C 6.175781 7.910156 6.167969 7.898438 6.167969 7.882812 C 6.175781 7.851562 6.203125 7.84375 6.21875 7.832031 C 6.234375 7.820312 6.246094 7.796875 6.28125 7.800781 C 6.292969 7.804688 6.304688 7.816406 6.308594 7.820312 C 6.300781 7.804688 6.3125 7.785156 6.320312 7.785156 C 6.328125 7.785156 6.339844 7.804688 6.332031 7.820312 C 6.335938 7.816406 6.347656 7.804688 6.359375 7.800781 C 6.394531 7.796875 6.40625 7.820312 6.421875 7.832031 C 6.4375 7.84375 6.464844 7.851562 6.472656 7.882812 C 6.472656 7.898438 6.464844 7.910156 6.460938 7.914062 C 6.476562 7.90625 6.5 7.90625 6.5 7.917969 C 6.503906 7.925781 6.488281 7.941406 6.472656 7.941406 C 6.476562 7.941406 6.492188 7.949219 6.496094 7.960938 C 6.511719 7.992188 6.492188 8.011719 6.484375 8.03125 C 6.480469 8.050781 6.484375 8.078125 6.453125 8.09375 C 6.441406 8.101562 6.425781 8.097656 6.421875 8.09375 C 6.4375 8.105469 6.4375 8.125 6.433594 8.132812 M 6.265625 8.050781 C 6.277344 8.058594 6.25 8.078125 6.261719 8.105469 C 6.273438 8.136719 6.300781 8.125 6.320312 8.125 C 6.339844 8.125 6.367188 8.136719 6.378906 8.105469 C 6.390625 8.078125 6.363281 8.058594 6.375 8.050781 C 6.382812 8.042969 6.394531 8.074219 6.421875 8.074219 C 6.457031 8.070312 6.457031 8.039062 6.460938 8.023438 C 6.464844 8.003906 6.484375 7.980469 6.460938 7.957031 C 6.4375 7.941406 6.410156 7.957031 6.40625 7.949219 C 6.402344 7.9375 6.433594 7.933594 6.441406 7.90625 C 6.453125 7.875 6.421875 7.867188 6.40625 7.855469 C 6.394531 7.84375 6.375 7.816406 6.347656 7.835938 C 6.324219 7.851562 6.332031 7.882812 6.320312 7.882812 C 6.308594 7.882812 6.316406 7.851562 6.292969 7.835938 C 6.265625 7.816406 6.246094 7.84375 6.234375 7.855469 C 6.21875 7.867188 6.1875 7.875 6.199219 7.90625 C 6.207031 7.933594 6.238281 7.9375 6.234375 7.949219 C 6.230469 7.957031 6.203125 7.941406 6.179688 7.957031 C 6.15625 7.980469 6.175781 8.003906 6.179688 8.023438 C 6.183594 8.039062 6.183594 8.070312 6.21875 8.074219 C 6.246094 8.074219 6.257812 8.042969 6.265625 8.050781 "/>
<path style=" stroke:none;fill-rule:nonzero;fill:rgb(0%,0%,0%);fill-opacity:1;" d="M 6.320312 8.09375 C 6.316406 8.09375 6.308594 8.078125 6.3125 8.070312 C 6.3125 8.074219 6.304688 8.078125 6.296875 8.082031 C 6.277344 8.082031 6.269531 8.070312 6.257812 8.0625 C 6.25 8.054688 6.234375 8.050781 6.230469 8.03125 C 6.226562 8.023438 6.234375 8.015625 6.234375 8.011719 C 6.226562 8.019531 6.214844 8.015625 6.210938 8.011719 C 6.210938 8.007812 6.21875 7.996094 6.230469 7.996094 C 6.226562 7.996094 6.21875 7.992188 6.214844 7.984375 C 6.207031 7.96875 6.21875 7.957031 6.222656 7.945312 C 6.222656 7.933594 6.222656 7.914062 6.238281 7.90625 C 6.246094 7.902344 6.257812 7.902344 6.257812 7.90625 C 6.25 7.898438 6.25 7.886719 6.253906 7.882812 C 6.257812 7.878906 6.269531 7.886719 6.273438 7.894531 C 6.273438 7.890625 6.273438 7.882812 6.277344 7.878906 C 6.292969 7.863281 6.308594 7.871094 6.320312 7.871094 C 6.332031 7.871094 6.347656 7.863281 6.363281 7.878906 C 6.367188 7.882812 6.367188 7.890625 6.367188 7.894531 C 6.371094 7.886719 6.382812 7.878906 6.386719 7.882812 C 6.390625 7.886719 6.390625 7.898438 6.382812 7.90625 C 6.382812 7.902344 6.394531 7.902344 6.402344 7.90625 C 6.417969 7.914062 6.417969 7.933594 6.417969 7.945312 C 6.421875 7.957031 6.433594 7.96875 6.425781 7.984375 C 6.421875 7.992188 6.414062 7.996094 6.410156 7.996094 C 6.421875 7.996094 6.429688 8.007812 6.429688 8.011719 C 6.425781 8.015625 6.414062 8.019531 6.40625 8.011719 C 6.40625 8.015625 6.414062 8.023438 6.410156 8.03125 C 6.40625 8.050781 6.390625 8.054688 6.382812 8.0625 C 6.371094 8.070312 6.363281 8.082031 6.34375 8.082031 C 6.335938 8.078125 6.328125 8.074219 6.328125 8.070312 C 6.332031 8.078125 6.324219 8.09375 6.320312 8.09375 M 6.320312 8.027344 C 6.328125 8.027344 6.324219 8.042969 6.335938 8.050781 C 6.347656 8.0625 6.359375 8.046875 6.367188 8.042969 C 6.375 8.035156 6.390625 8.03125 6.386719 8.011719 C 6.382812 8 6.363281 7.996094 6.367188 7.992188 C 6.367188 7.984375 6.382812 7.996094 6.394531 7.984375 C 6.410156 7.972656 6.398438 7.960938 6.398438 7.949219 C 6.394531 7.941406 6.394531 7.925781 6.375 7.921875 C 6.359375 7.921875 6.355469 7.9375 6.347656 7.9375 C 6.34375 7.933594 6.359375 7.921875 6.351562 7.90625 C 6.347656 7.890625 6.328125 7.894531 6.320312 7.894531 C 6.3125 7.894531 6.292969 7.890625 6.289062 7.90625 C 6.28125 7.921875 6.296875 7.933594 6.292969 7.9375 C 6.285156 7.9375 6.28125 7.921875 6.265625 7.921875 C 6.246094 7.925781 6.246094 7.941406 6.242188 7.949219 C 6.242188 7.960938 6.230469 7.972656 6.246094 7.984375 C 6.257812 7.996094 6.273438 7.984375 6.273438 7.992188 C 6.277344 7.996094 6.257812 8 6.253906 8.011719 C 6.25 8.03125 6.265625 8.035156 6.273438 8.042969 C 6.28125 8.046875 6.292969 8.0625 6.304688 8.050781 C 6.316406 8.042969 6.3125 8.027344 6.320312 8.027344 "/>
<path style=" stroke:none;fill-rule:nonzero;fill:rgb(0%,0%,0%);fill-opacity:1;" d="M 6.347656 7.976562 C 6.347656 7.960938 6.335938 7.949219 6.320312 7.949219 C 6.304688 7.949219 6.292969 7.960938 6.292969 7.976562 C 6.292969 7.992188 6.304688 8.003906 6.320312 8.003906 C 6.335938 8.003906 6.347656 7.992188 6.347656 7.976562 Z M 6.347656 7.976562 "/>
<path style="fill:none;stroke-width:0.7;stroke-linecap:round;stroke-linejoin:round;stroke:rgb(0%,0%,0%);stroke-opacity:1;stroke-miterlimit:4;" d="M 137.9 185.822368 C 153.9 185.131579 169.9 185.131579 185.9 185.822368 " transform="matrix(0.0390625,0,0,0.0395833,0,0)"/>
<path style="fill:none;stroke-width:0.4;stroke-linecap:round;stroke-linejoin:round;stroke:rgb(0%,0%,0%);stroke-opacity:1;stroke-miterlimit:4;" d="M 160 143.289474 L 161.3 144.769737 M 163.3 164.013158 C 163.2 165.296053 163.3 166.381579 163.5 167.171053 M 160.3 164.210526 C 160.7 164.703947 161.3 166.480263 161.3 167.171053 " transform="matrix(0.0390625,0,0,0.0395833,0,0)"/>
<path style="fill-rule:nonzero;fill:rgb(100%,100%,100%);fill-opacity:1;stroke-width:0.5;stroke-linecap:round;stroke-linejoin:round;stroke:rgb(0%,0%,0%);stroke-opacity:1;stroke-miterlimit:4;" d="M 170.2 185.625 C 169.6 185.822368 168.6 186.414474 168.6 186.907895 C 168.6 187.401316 169.8 187.5 170.2 187.598684 C 169.5 187.796053 167.5 188.190789 166.6 187.796053 C 166 188.092105 161.4 187.105263 160.4 187.105263 C 159.8 187.105263 159 186.513158 159.1 185.427632 C 159.1 185.230263 159.3 184.638158 159.8 184.440789 C 159.5 183.848684 160.9 182.861842 162.3 181.973684 C 160.3 182.269737 157.6 181.480263 156.9 180.690789 C 155.3 180.098684 154.6 180.690789 153.9 182.072368 C 153.9 184.539474 152.6 185.723684 150.9 185.526316 C 149.9 185.328947 149.6 185.822368 149.3 186.019737 L 152.6 187.006579 C 154.8 188.980263 153.6 190.559211 153.1 190.953947 C 152.6 191.447368 151.4 191.052632 150.7 191.052632 C 149.9 191.052632 149.9 191.447368 149.7 191.546053 C 149 191.842105 148.6 191.940789 148.4 191.743421 C 148.4 191.447368 148.7 189.967105 149.6 189.769737 C 150.1 189.769737 151.1 189.473684 151.1 188.980263 C 151.1 188.486842 149.3 188.585526 147.9 188.092105 C 146.8 187.697368 146.4 187.105263 146.8 185.230263 C 147.1 183.157895 149.5 182.861842 150.7 182.861842 C 150.5 182.072368 150.7 180.592105 151.7 179.605263 C 153.3 178.125 155.7 178.618421 157.8 178.815789 C 159 178.125 161.2 177.138158 163.4 177.039474 C 165.4 177.039474 174 174.671053 177.9 175.164474 C 176.9 173.881579 177.2 170.822368 178.8 169.934211 C 180.8 168.651316 183 171.907895 183.6 171.315789 C 184.2 170.723684 182.9 169.934211 181.4 168.256579 C 181 167.664474 181.1 167.664474 181.1 167.467105 C 181.1 166.973684 181.2 166.578947 181.4 166.282895 C 181.6 166.184211 182.8 166.578947 183.1 167.072368 C 183.6 167.763158 184 167.960526 184.4 167.565789 C 184.9 167.171053 184.2 167.368421 183.9 166.578947 C 183.8 166.085526 183.4 165.690789 183.5 165.296053 C 184.2 164.605263 184.9 164.111842 185.8 163.717105 C 186.1 164.210526 186.4 164.605263 186.7 165 C 187.4 166.085526 188.1 165.789474 188.6 166.578947 C 188.6 166.973684 188.8 167.565789 189.1 168.256579 C 189.9 169.736842 191.1 171.019737 192.6 171.907895 C 192.9 172.105263 193.1 172.302632 193.2 172.598684 C 193.2 173.092105 193.1 173.388158 192.8 173.585526 C 192.6 173.782895 191.8 173.782895 191.2 173.486842 C 190.3 172.993421 189.6 172.697368 189.1 172.796053 C 187.7 172.993421 186.8 175.164474 184.8 175.164474 C 183 174.967105 181.8 172.302632 180.7 173.092105 C 179.6 173.881579 183.2 176.052632 182.7 177.138158 C 183.1 177.335526 183.6 178.125 183.4 178.815789 C 185 178.519737 186.4 177.532895 187.3 176.052632 C 188.3 174.769737 189 174.078947 189.5 173.881579 C 190.1 173.585526 190.8 173.881579 190.8 174.375 L 191.7 174.671053 C 192.1 175.065789 192.2 175.361842 191.9 175.657895 L 191.3 175.263158 C 191 175.263158 190.6 175.460526 190.1 175.855263 C 189.8 176.447368 189.4 177.039474 188.9 177.631579 L 186.9 179.802632 C 187.1 180.296053 187.2 180.789474 187.1 181.282895 C 187.3 181.282895 187.5 181.381579 187.8 181.480263 C 187.9 181.578947 187.9 181.776316 187.8 182.171053 C 187.8 182.664474 185.8 184.934211 185.4 184.835526 C 184.6 184.835526 184 183.848684 184.1 183.453947 C 183.2 183.947368 182.8 182.861842 182.8 182.467105 C 182.2 183.157895 181.4 183.651316 180.6 184.046053 C 180.2 184.243421 179.9 184.046053 179.8 183.552632 C 179.7 184.046053 178.5 184.440789 178.2 184.539474 C 176.7 184.835526 175.1 185.526316 173.6 185.526316 L 169.8 185.427632 Z M 170.2 185.625 " transform="matrix(0.0390625,0,0,0.0395833,0,0)"/>
<path style="fill-rule:nonzero;fill:rgb(100%,100%,100%);fill-opacity:1;stroke-width:0.3;stroke-linecap:round;stroke-linejoin:round;stroke:rgb(0%,0%,0%);stroke-opacity:1;stroke-miterlimit:4;" d="M 175.5 171.414474 C 175.5 172.006579 174.6 173.388158 175.9 174.572368 C 176.7 175.164474 178 175.657895 178.4 176.644737 C 178.8 177.335526 178.3 177.927632 178.1 177.927632 C 177.3 177.730263 176.2 179.111842 175.8 180.098684 C 175.4 178.717105 174.5 179.111842 173.3 179.309211 C 173.5 177.730263 172.6 176.940789 170.7 176.743421 C 171 176.447368 170.5 175.953947 170.1 175.559211 C 169.7 175.164474 168.3 175.460526 168.1 175.164474 C 168.1 174.868421 168.8 174.177632 168.4 173.684211 C 168 172.993421 166.4 173.388158 165.8 173.190789 C 166 172.5 165.9 171.907895 165.6 171.217105 C 165.1 170.230263 163.4 170.723684 162.5 170.526316 C 163.2 169.934211 163.4 169.243421 163.1 168.355263 C 162.7 167.368421 160.7 168.453947 160.7 167.368421 C 160.8 166.875 163.1 166.578947 164 166.480263 C 164.9 166.381579 167.7 167.171053 170.5 167.763158 C 171.1 168.355263 175.5 169.736842 175.5 171.414474 " transform="matrix(0.0390625,0,0,0.0395833,0,0)"/>
<path style="fill:none;stroke-width:0.5;stroke-linecap:round;stroke-linejoin:round;stroke:rgb(0%,0%,0%);stroke-opacity:1;stroke-miterlimit:4;" d="M 182.8 182.565789 C 184.3 181.875 185.7 180.888158 186.9 179.802632 M 161.3 178.815789 C 162.5 178.815789 165.2 179.210526 166 180.197368 C 166.7 181.184211 167.2 182.861842 161.9 184.243421 C 163.5 184.243421 165.9 183.947368 166.7 184.144737 C 167.5 183.947368 169.2 183.355263 169.9 183.552632 C 169.6 183.651316 168.7 184.046053 168.7 184.638158 C 168.7 184.934211 169.1 185.230263 169.8 185.427632 M 174.9 181.776316 C 176.8 182.171053 179.5 181.578947 179.9 183.552632 " transform="matrix(0.0390625,0,0,0.0395833,0,0)"/>
<path style="fill:none;stroke-width:0.4;stroke-linecap:round;stroke-linejoin:round;stroke:rgb(0%,0%,0%);stroke-opacity:1;stroke-miterlimit:4;" d="M 181.2 166.776316 C 181.7 167.368421 183.2 168.256579 183.9 168.848684 C 184.9 169.638158 185.3 168.651316 184.6 167.368421 " transform="matrix(0.0390625,0,0,0.0395833,0,0)"/>
<path style="fill:none;stroke-width:0.3;stroke-linecap:round;stroke-linejoin:round;stroke:rgb(0%,0%,0%);stroke-opacity:1;stroke-miterlimit:4;" d="M 168.1 175.164474 C 170.1 174.769737 172.1 174.572368 174.2 174.473684 M 165.8 173.190789 C 168.8 172.401316 172 172.697368 174 172.697368 M 173.5 179.111842 L 176.1 176.644737 M 170.7 176.644737 C 171.7 176.348684 173.3 175.559211 174.7 175.361842 M 170.5 167.763158 C 172.1 166.282895 173.9 166.480263 175.7 165.592105 C 176.7 165 177.7 163.618421 178.7 162.532895 C 179.1 162.039474 179.8 161.842105 180.7 161.842105 C 182.2 162.039474 182.1 162.236842 180.6 162.532895 C 179.4 162.730263 179.3 163.223684 178.9 164.111842 C 178.5 164.901316 178.9 165.789474 179.1 166.381579 L 178.3 168.552632 C 178.3 168.848684 178.5 169.243421 178.8 169.736842 M 162.5 170.526316 C 166.5 169.638158 172.5 171.217105 173.6 171.217105 " transform="matrix(0.0390625,0,0,0.0395833,0,0)"/>
<path style="fill:none;stroke-width:0.2;stroke-linecap:round;stroke-linejoin:round;stroke:rgb(0%,0%,0%);stroke-opacity:1;stroke-miterlimit:4;" d="M 187.7 177.039474 C 189 176.348684 189 174.967105 190.7 174.375 M 184.1 183.453947 C 185.8 182.664474 186.1 181.973684 187.1 181.282895 M 188 167.565789 C 187.7 167.565789 187.5 167.467105 187.2 167.269737 C 186.9 166.875 186.9 166.677632 187.1 166.480263 C 187.2 166.282895 187.4 166.381579 187.8 166.677632 C 188.4 167.171053 188.1 167.368421 188 167.565789 M 188.3 170.625 C 187.5 170.822368 187.3 170.131579 186.6 170.032895 C 185.7 169.835526 185.2 170.427632 185.2 170.921053 C 185.2 171.414474 185.7 171.907895 186.2 171.907895 C 186.7 171.907895 187.2 171.611842 188.3 171.710526 M 184.5 164.506579 C 185.2 164.605263 185.7 164.605263 186.2 164.309211 " transform="matrix(0.0390625,0,0,0.0395833,0,0)"/>
<path style="fill-rule:nonzero;fill:rgb(100%,100%,100%);fill-opacity:1;stroke-width:0.1;stroke-linecap:round;stroke-linejoin:round;stroke:rgb(0%,0%,0%);stroke-opacity:1;stroke-miterlimit:4;" d="M 162.7 150.690789 C 162.6 150.690789 162.5 150.493421 162.5 150.394737 C 162.4 150.197368 162.5 150.098684 162.5 150 C 162.4 150 162.3 149.802632 162.3 149.703947 C 162.2 149.506579 162.3 149.407895 162.3 149.309211 C 162.2 149.309211 162.1 149.111842 162.1 149.013158 C 162 148.815789 162.1 148.717105 162.1 148.618421 C 162 148.519737 162 148.421053 161.9 148.223684 C 161.9 148.125 161.9 147.927632 162 147.927632 C 161.9 147.927632 161.8 147.730263 161.8 147.631579 C 161.7 147.434211 161.7 147.335526 161.8 147.236842 C 161.7 147.138158 161.7 147.039474 161.6 146.842105 C 161.6 146.743421 161.6 146.546053 161.7 146.546053 C 161.6 146.546053 161.5 146.348684 161.5 146.151316 C 161.4 145.953947 161.5 145.756579 161.6 145.657895 C 161.5 145.657895 161.5 145.559211 161.4 145.361842 C 161.4 145.263158 161.4 145.065789 161.5 144.967105 C 161.4 144.967105 161.4 144.868421 161.3 144.671053 C 161.3 144.572368 161.3 144.375 161.4 144.276316 C 161.3 144.276316 161.2 144.078947 161.2 143.881579 C 161.2 143.684211 161.3 143.486842 161.4 143.486842 C 161.3 143.486842 161.3 143.388158 161.2 143.190789 C 161.2 143.092105 161.2 142.894737 161.3 142.796053 C 161.2 142.796053 161.1 142.697368 161.1 142.401316 C 161.1 142.203947 161.2 142.006579 161.3 142.006579 C 161.2 142.006579 161.1 141.907895 161.1 141.710526 C 161.1 141.414474 161.2 141.217105 161.3 141.217105 C 161.2 141.118421 161.2 141.019737 161.2 140.822368 C 161.3 140.723684 161.3 140.526316 161.4 140.526316 C 161.3 140.427632 161.2 140.230263 161.3 140.032895 C 161.4 139.835526 161.5 139.638158 161.6 139.736842 C 161.5 139.638158 161.5 139.539474 161.5 139.342105 C 161.6 139.243421 161.6 139.046053 161.7 139.046053 C 161.6 139.046053 161.5 138.848684 161.6 138.552632 C 161.6 138.355263 161.8 138.157895 161.9 138.157895 C 161.8 138.157895 161.9 137.960526 161.9 137.763158 C 162 137.664474 162.1 137.467105 162.2 137.467105 C 162.1 137.467105 162.1 137.269737 162.2 137.072368 C 162.3 136.973684 162.4 136.875 162.5 136.776316 C 162.4 136.776316 162.4 136.578947 162.5 136.480263 C 162.5 136.282895 162.7 136.085526 162.8 136.085526 C 162.7 135.986842 162.7 135.789474 162.9 135.592105 C 163 135.394737 163.2 135.296053 163.3 135.394737 C 163.2 135.394737 163.2 135.197368 163.3 135 C 163.5 134.802632 163.7 134.605263 163.8 134.703947 C 163.7 134.605263 163.8 134.506579 163.9 134.309211 C 164 134.210526 164.2 134.111842 164.3 134.111842 C 164.2 134.013158 164.2 133.815789 164.3 133.618421 C 164.5 133.519737 164.8 133.322368 164.9 133.421053 " transform="matrix(0.0390625,0,0,0.0395833,0,0)"/>
<path style="fill:none;stroke-width:0.1;stroke-linecap:round;stroke-linejoin:round;stroke:rgb(0%,0%,0%);stroke-opacity:1;stroke-miterlimit:4;" d="M 163.6 150.394737 L 162.7 150.690789 M 163.4 149.703947 L 162.5 150 M 163.3 149.013158 L 162.3 149.309211 M 163.2 148.322368 L 162.2 148.618421 M 163.1 147.730263 L 162 147.927632 M 163 146.940789 L 161.8 147.236842 M 162.8 146.151316 L 161.7 146.546053 M 162.8 145.460526 L 161.6 145.657895 M 162.8 144.868421 L 161.4 144.868421 M 162.8 144.177632 L 161.4 144.177632 M 162.8 143.486842 L 161.3 143.486842 M 162.8 142.796053 L 161.3 142.796053 M 162.9 142.105263 L 161.3 142.006579 M 163 141.414474 L 161.4 141.217105 M 163.1 140.822368 L 161.4 140.526316 M 163.3 140.131579 L 161.6 139.736842 M 163.5 139.539474 L 161.7 139.046053 M 163.7 138.848684 L 161.9 138.157895 M 163.9 138.157895 L 162.2 137.467105 M 164.2 137.664474 L 162.5 136.677632 M 164.6 137.072368 L 162.8 136.085526 M 165 136.578947 L 163.3 135.394737 M 165.4 136.085526 L 163.8 134.703947 M 165.9 135.690789 L 164.3 134.111842 M 166.4 135.098684 L 164.9 133.421053 " transform="matrix(0.0390625,0,0,0.0395833,0,0)"/>
<path style="fill-rule:nonzero;fill:rgb(100%,100%,100%);fill-opacity:1;stroke-width:0.5;stroke-linecap:round;stroke-linejoin:round;stroke:rgb(0%,0%,0%);stroke-opacity:1;stroke-miterlimit:4;" d="M 173 140.723684 L 170.5 141.019737 C 170.3 141.513158 170.3 142.894737 170.3 143.388158 C 172.6 145.657895 174.9 148.618421 175.1 151.282895 C 175.8 151.875 176.4 152.664474 176.7 153.552632 C 178.4 152.664474 180.1 151.282895 181.5 150.888158 C 182.5 150.690789 184.1 150.592105 185 151.085526 L 190.6 154.539474 C 191.8 155.328947 192.7 156.118421 193.2 157.105263 C 193.7 157.894737 193.8 159.375 193.6 159.769737 L 190.2 158.782895 C 190.1 158.289474 190.2 157.697368 190.5 157.105263 C 190.7 156.513158 190.7 156.513158 190.2 156.118421 C 189.8 155.921053 189.5 155.921053 189.2 156.118421 C 188.7 156.118421 188.3 155.921053 188 155.526316 C 186.6 154.638158 185.1 153.848684 183.5 153.256579 C 182.8 153.157895 182.1 153.355263 181.3 153.947368 C 180.9 154.539474 179.7 156.315789 178.8 157.203947 C 178.6 157.401316 178.6 157.697368 178.7 157.993421 L 182.3 158.092105 C 183.7 158.289474 185.3 159.671053 186.1 160.559211 C 189.6 163.815789 190.9 165.592105 192 166.578947 C 192.6 167.072368 192.9 167.664474 193 168.355263 L 189.6 168.355263 C 189.6 167.171053 189.5 166.282895 189.2 165.592105 C 188.8 165.098684 188.1 165.296053 187.8 165.296053 C 187.5 165.197368 187.1 164.901316 186.8 164.309211 C 186.3 163.322368 184.5 162.039474 183.7 161.546053 C 182.9 160.953947 182.6 161.151316 181.7 161.052632 C 181 160.855263 180.2 160.855263 179.2 161.052632 C 178.3 161.447368 175.8 162.236842 173.5 162.532895 C 172.7 162.927632 170.2 163.322368 167.5 163.914474 C 165.5 164.309211 161 165.098684 160.1 165.098684 C 159.8 167.171053 157.5 170.328947 156.9 170.625 C 156.2 171.611842 156.2 172.302632 156.7 172.598684 C 157.2 173.092105 160.6 173.092105 161.4 173.092105 L 164.3 173.190789 C 164.8 173.289474 165.6 173.980263 166.5 174.473684 C 167.1 174.769737 167.2 175.164474 167.6 175.756579 C 167.9 176.151316 168.2 176.644737 168.4 177.039474 L 164.4 177.039474 C 164.3 175.953947 164 175.361842 163.4 175.263158 C 162.8 175.657895 162.1 176.151316 161.3 175.855263 C 158.2 175.657895 156.2 175.855263 153.3 175.559211 C 152.4 175.559211 151.7 174.375 152 173.289474 C 152.3 172.401316 152.3 171.513158 152 170.723684 C 151.7 171.019737 150.5 172.105263 149.9 172.894737 C 148.9 173.980263 149.5 175.164474 149.9 175.855263 C 150.4 176.447368 153.8 179.605263 154.2 180.493421 C 154.5 181.085526 155.9 182.072368 157.2 183.157895 C 157.7 184.046053 158.3 184.736842 159 185.328947 L 154 185.328947 L 154.2 184.046053 C 154.2 183.651316 153.9 183.059211 153.2 183.157895 C 152.5 183.256579 152 182.467105 151.8 181.875 C 151.6 181.282895 149.3 178.322368 148.6 177.730263 L 145.6 174.769737 C 145.2 174.671053 145.1 173.980263 145.6 173.486842 C 146.5 172.401316 147.1 171.019737 147.6 169.736842 C 147.9 168.848684 147.6 168.651316 147.4 168.453947 C 145.2 166.875 143.4 164.802632 142 162.532895 C 140.7 162.828947 139.3 162.730263 138 162.236842 C 136.9 161.546053 135.9 161.644737 135.1 162.631579 C 134.7 163.322368 134.7 164.407895 135.4 164.901316 C 136.4 165.789474 137.5 166.875 138.7 168.256579 C 139.7 169.638158 138.8 170.625 137.4 171.809211 C 137.6 172.302632 137.4 172.203947 137.6 173.092105 C 138.1 173.782895 138.1 175.460526 137.5 175.756579 C 136.8 176.151316 136.2 176.644737 135.5 177.434211 C 134.7 178.322368 134.5 177.434211 134.7 175.953947 C 134.9 175.065789 134.2 174.375 133.6 173.684211 C 133 172.993421 133.3 171.118421 133.6 170.526316 C 134.1 169.934211 134.4 168.848684 133.6 167.861842 C 132.7 167.072368 131.1 165.296053 131.3 162.927632 C 131.4 161.644737 132 160.559211 133.1 159.967105 C 134.1 159.276316 135.4 159.177632 136.5 159.572368 C 139.5 160.855263 141.2 160.559211 142.1 160.361842 C 142.9 158.980263 144.2 157.697368 145.9 156.611842 C 147.6 155.625 150.9 154.342105 154.2 153.848684 L 162.3 150.789474 C 163.4 150.592105 163.3 149.605263 163.3 149.013158 C 162.3 143.486842 162.5 137.664474 167 134.802632 C 167.5 134.309211 167.3 133.125 168 132.236842 L 169.3 134.407895 C 171.3 135.098684 174.7 136.282895 176.1 136.973684 C 176.8 137.171053 177.3 137.368421 177.8 137.467105 C 178.3 137.664474 178.6 137.960526 178.8 138.453947 C 179 139.144737 178.9 139.638158 178.4 140.032895 C 178.1 140.131579 176.5 139.638158 176.1 140.032895 C 176.1 140.328947 176.6 140.625 177.5 141.019737 C 177.8 141.217105 177.2 142.006579 176.8 142.006579 C 176.5 142.006579 176.2 141.907895 175.9 141.710526 C 174.9 141.513158 173.9 141.118421 172.9 140.723684 " transform="matrix(0.0390625,0,0,0.0395833,0,0)"/>
<path style="fill:none;stroke-width:0.5;stroke-linecap:round;stroke-linejoin:round;stroke:rgb(0%,0%,0%);stroke-opacity:1;stroke-miterlimit:4;" d="M 167.3 137.072368 C 167.3 140.526316 168.4 142.203947 170.3 143.388158 M 176.7 153.552632 C 177 154.934211 177 156.315789 176.7 157.598684 M 152 170.625 C 154.5 169.539474 156.8 166.578947 156.7 164.802632 C 156.7 163.815789 155.8 162.335526 153.6 162.236842 M 156.6 164.802632 C 157.4 165.098684 158.9 164.901316 160.1 165.098684 M 172.7 156.809211 C 174.7 156.907895 177.3 158.092105 178.7 157.993421 M 171.7 160.756579 C 173.5 161.151316 173.5 162.039474 177 161.842105 M 171 149.605263 C 172.9 149.605263 174 150.592105 175 151.282895 " transform="matrix(0.0390625,0,0,0.0395833,0,0)"/>
<path style="fill:none;stroke-width:0.3;stroke-linecap:round;stroke-linejoin:round;stroke:rgb(0%,0%,0%);stroke-opacity:1;stroke-miterlimit:4;" d="M 156.3 166.381579 C 157.7 166.578947 158.7 166.085526 159.3 165 M 167.3 137.072368 C 167.3 139.934211 168.3 140.625 170.5 141.019737 " transform="matrix(0.0390625,0,0,0.0395833,0,0)"/>
<path style="fill:none;stroke-width:0.2;stroke-linecap:round;stroke-linejoin:round;stroke:rgb(0%,0%,0%);stroke-opacity:1;stroke-miterlimit:4;" d="M 178 137.565789 C 177.9 138.256579 177.8 138.947368 179 138.848684 M 172.9 135.690789 C 172 137.861842 176.5 138.157895 176.6 139.736842 M 151.6 154.440789 C 153.8 155.427632 153.6 159.671053 153.6 162.236842 " transform="matrix(0.0390625,0,0,0.0395833,0,0)"/>
<path style="fill-rule:nonzero;fill:rgb(100%,100%,100%);fill-opacity:1;stroke-width:0.2;stroke-linecap:round;stroke-linejoin:round;stroke:rgb(0%,0%,0%);stroke-opacity:1;stroke-miterlimit:4;" d="M 175.6 139.736842 C 174.9 141.118421 173.3 143.190789 171.8 144.276316 C 169.5 146.052632 166.8 147.236842 163.7 148.026316 C 163.2 148.223684 162.7 148.223684 162.1 148.125 C 161.4 148.125 160.9 147.631579 160.4 146.743421 C 160.2 146.348684 160.3 144.078947 161.1 143.782895 C 161.9 143.486842 162.7 143.388158 163.5 143.388158 C 164.1 143.388158 164.4 143.684211 164.5 144.177632 C 164.4 144.769737 164.1 144.967105 163.5 144.868421 C 162.9 144.671053 162 144.276316 161.5 144.671053 C 161.1 144.868421 160.8 145.855263 161.1 146.447368 C 161.4 147.039474 161.8 147.434211 162.2 147.434211 L 163.5 147.335526 C 166.4 146.546053 169 145.263158 171.3 143.684211 C 172.8 142.697368 174.3 140.328947 174.9 139.342105 Z M 163.6 143.980263 C 162.7 143.782895 161.2 143.980263 161.1 144.375 C 161.8 144.078947 162.6 144.078947 163.6 144.375 C 163.9 144.375 163.9 144.177632 163.6 143.980263 M 169.6 136.480263 L 169.9 135.789474 C 170 135.690789 169.7 134.111842 171.3 134.901316 C 173 135.888158 171.7 136.578947 171.6 136.677632 L 171.2 137.368421 " transform="matrix(0.0390625,0,0,0.0395833,0,0)"/>
<path style="fill:none;stroke-width:0.4;stroke-linecap:round;stroke-linejoin:round;stroke:rgb(0%,0%,0%);stroke-opacity:1;stroke-miterlimit:4;" d="M 166.7 135 L 176.2 140.032895 " transform="matrix(0.0390625,0,0,0.0395833,0,0)"/>
<path style="fill-rule:nonzero;fill:rgb(100%,100%,100%);fill-opacity:1;stroke-width:0.3;stroke-linecap:round;stroke-linejoin:round;stroke:rgb(0%,0%,0%);stroke-opacity:1;stroke-miterlimit:4;" d="M 154.7 135.394737 C 152.6 135.493421 150.4 135.296053 148.3 134.901316 C 147.5 134.802632 145.2 138.059211 144 138.256579 C 142.8 138.552632 141.6 135.888158 139.9 136.480263 C 139 137.171053 139.9 140.526316 139.4 140.822368 C 138.9 141.315789 137.4 139.243421 136.4 139.835526 C 135.4 140.625 137.2 144.868421 136.7 145.361842 C 136.2 145.855263 134.1 143.486842 133.4 143.980263 C 132.7 144.473684 134.1 151.184211 133.4 151.480263 C 132.8 151.875 129.7 149.703947 129.4 150.592105 C 128.9 151.578947 133.7 153.651316 135 153.848684 L 136.3 153.256579 C 136.7 153.453947 140.5 153.848684 140.9 153.848684 L 143 151.578947 C 146.3 147.335526 150 143.289474 154.7 143.585526 Z M 154.7 135.394737 " transform="matrix(0.0390625,0,0,0.0395833,0,0)"/>
<path style="fill:none;stroke-width:0.3;stroke-linecap:round;stroke-linejoin:round;stroke:rgb(0%,0%,0%);stroke-opacity:1;stroke-miterlimit:4;" d="M 140.2 136.480263 L 146.5 136.184211 M 136.4 139.835526 L 139.4 138.848684 M 133.4 143.782895 L 136.3 142.598684 M 129.3 150.592105 L 133.3 147.039474 M 136.3 153.157895 C 138 150.197368 141.3 147.039474 144.2 145.263158 M 133.5 151.480263 C 135.9 148.618421 142.6 143.881579 144.8 143.486842 M 139.4 140.822368 C 142.2 139.638158 146.2 139.440789 149.4 139.144737 M 143.9 138.256579 C 144.3 138.256579 149.1 137.664474 151.2 137.763158 M 136.7 145.460526 C 140.3 143.289474 144.1 141.513158 148.2 140.230263 " transform="matrix(0.0390625,0,0,0.0395833,0,0)"/>
<path style="fill-rule:nonzero;fill:rgb(100%,100%,100%);fill-opacity:1;stroke-width:0.4;stroke-linecap:round;stroke-linejoin:round;stroke:rgb(0%,0%,0%);stroke-opacity:1;stroke-miterlimit:4;" d="M 168.2 191.151316 C 168.5 191.348684 168.8 192.039474 168.8 192.039474 C 168.8 192.039474 168.2 192.335526 168 192.236842 L 138.5 183.355263 C 137.7 183.157895 138 181.776316 138.9 182.072368 Z M 140.2 150.197368 C 139.9 149.506579 139.5 149.013158 139 148.914474 C 138.8 148.914474 138.1 149.605263 138.2 149.802632 C 138.2 150.197368 139.1 150.789474 139.4 150.789474 Z M 142.9 151.184211 L 140.4 153.651316 C 140.1 154.046053 140.7 154.539474 141 154.243421 L 143.5 151.776316 C 143.8 151.480263 143.2 150.888158 142.9 151.184211 M 141.7 153.552632 L 149.4 161.546053 L 150.9 161.743421 L 150.7 160.065789 L 142.7 152.467105 Z M 141.7 153.552632 " transform="matrix(0.0390625,0,0,0.0395833,0,0)"/>
<path style="fill:none;stroke-width:0.1;stroke-linecap:round;stroke-linejoin:round;stroke:rgb(0%,0%,0%);stroke-opacity:1;stroke-miterlimit:4;" d="M 149.8 160.559211 L 142.2 152.960526 " transform="matrix(0.0390625,0,0,0.0395833,0,0)"/>
<path style="fill-rule:nonzero;fill:rgb(100%,100%,100%);fill-opacity:1;stroke-width:0.5;stroke-linecap:round;stroke-linejoin:round;stroke:rgb(0%,0%,0%);stroke-opacity:1;stroke-miterlimit:4;" d="M 160 138.552632 C 160 138.157895 160.2 137.763158 160.5 137.565789 C 161 137.269737 160.8 137.467105 161.1 137.565789 L 161.9 138.059211 C 162.1 138.256579 162.2 138.256579 162.3 138.059211 C 162.3 137.861842 162.4 137.565789 162.6 137.269737 L 162.8 137.072368 C 163 137.072368 163.1 136.973684 163 136.776316 C 162.9 136.578947 163 136.480263 163.3 136.381579 C 163.5 136.381579 163.9 136.677632 163.9 136.381579 L 164.2 134.802632 C 164.8 134.901316 164.6 134.210526 164.8 134.210526 C 165.4 134.407895 165.7 133.421053 165.3 133.026316 C 165.4 132.236842 165.9 131.940789 167 132.039474 C 166.9 131.546053 166.1 131.348684 165.6 130.559211 C 165.1 129.868421 163.6 128.980263 161.8 128.980263 C 160 128.980263 158.7 130.559211 158 131.348684 C 157.3 132.039474 156 132.335526 155.7 132.335526 C 155.4 132.138158 155 131.940789 154.7 131.940789 L 153 131.940789 C 152.4 131.940789 152.2 132.335526 151.5 132.236842 C 151.1 132.236842 149.5 132.236842 149 132.434211 C 148.5 132.631579 149 133.618421 149.5 133.717105 C 149.7 133.717105 151 133.717105 151.5 134.013158 C 152 134.309211 153.5 134.407895 154.1 134.111842 C 155.4 133.717105 156.2 134.506579 157.6 134.901316 L 158.1 135 C 158.2 135.789474 158 136.184211 157.7 136.085526 L 156.5 136.085526 L 155.2 135.493421 C 154.6 135.493421 154.2 135.592105 154 135.690789 C 152.3 136.381579 146.3 141.118421 145.7 142.203947 C 145 143.388158 144 144.078947 143.1 145.855263 C 142.6 146.940789 141.6 148.125 141 149.703947 C 140 150.197368 138.9 151.085526 138.7 151.381579 C 138.7 151.677632 138.8 151.875 139.1 151.973684 C 139.1 152.171053 139.3 152.368421 139.7 152.467105 C 139.6 152.763158 139.8 152.861842 140.1 152.861842 C 140.1 153.256579 140.3 153.453947 140.6 153.552632 L 143 151.085526 C 143.1 150 143.5 149.013158 144 148.322368 C 145.3 146.743421 146.4 145.065789 147.4 143.388158 C 147.7 142.993421 150.6 141.907895 151.4 141.217105 C 151.1 142.697368 151.1 144.276316 151.4 145.756579 C 151.9 147.828947 152.5 149.111842 152.9 150.789474 C 153.3 152.467105 152.9 153.453947 152.9 154.342105 C 152.9 154.736842 153.2 155.131579 153.9 155.328947 C 154.4 155.723684 156.8 155.328947 157.5 155.625 C 159 155.921053 160 156.118421 160.6 156.217105 C 161.8 155.921053 163 156.217105 164.1 156.809211 C 164.7 157.302632 165.8 159.769737 166.2 160.756579 C 166.6 161.842105 168.8 162.927632 169.2 163.519737 C 169.7 164.013158 170.1 165.493421 170 166.184211 C 169.9 166.875 170.1 167.171053 170.7 166.973684 C 171.2 166.973684 173.2 167.269737 173.5 167.467105 C 173.9 167.664474 174.7 168.355263 175 168.355263 C 175.3 168.355263 176.7 168.552632 177.4 168.453947 C 178.1 168.355263 178 167.368421 177.7 167.269737 L 175.7 166.875 C 174.7 166.381579 173.7 165.690789 173 164.802632 C 172.5 164.013158 172 163.125 171.7 162.335526 L 168.6 157.796053 L 167 154.046053 C 166.7 153.256579 166.2 153.256579 165.7 153.059211 C 163.9 152.565789 163.2 152.368421 161.3 152.072368 C 160 151.776316 159.7 151.677632 159.5 150.690789 C 159.5 149.901316 158.9 148.519737 159.2 147.532895 L 159.6 145.657895 C 159.6 145.164474 160 144.375 160 143.980263 L 160.2 141.019737 Z M 161.4 146.842105 C 161.2 146.842105 160.4 147.039474 159.9 146.842105 C 159.8 146.842105 159.9 146.447368 159.9 146.447368 C 159.9 146.447368 159.7 146.052632 159.9 145.953947 C 159.8 145.855263 159.8 145.756579 159.9 145.559211 C 159.7 145.361842 159.7 145.263158 159.9 145.065789 L 161.3 144.967105 C 161.6 145.559211 161.6 146.151316 161.4 146.842105 " transform="matrix(0.0390625,0,0,0.0395833,0,0)"/>
<path style="fill:none;stroke-width:0.5;stroke-linecap:round;stroke-linejoin:round;stroke:rgb(0%,0%,0%);stroke-opacity:1;stroke-miterlimit:4;" d="M 158.1 135.098684 C 158.5 135.394737 158.5 135.098684 159.2 134.901316 C 159.9 134.703947 160.5 135.296053 160.2 135.888158 C 159.9 136.578947 160.1 136.973684 160.8 137.072368 C 161.8 137.269737 161.8 136.381579 162 136.085526 L 162.7 135.394737 C 162.9 134.605263 163.7 134.802632 164.2 134.901316 M 165.2 133.026316 C 164.9 133.223684 164 132.532895 163.8 131.940789 C 163.6 131.052632 163 130.559211 162 130.460526 C 160.5 130.361842 159 131.052632 158.7 132.236842 L 158.4 133.914474 C 158 133.914474 157.8 134.013158 157.7 134.111842 L 157.6 134.901316 M 151.3 141.217105 L 153.3 140.230263 " transform="matrix(0.0390625,0,0,0.0395833,0,0)"/>
<path style="fill:none;stroke-width:0.3;stroke-linecap:round;stroke-linejoin:round;stroke:rgb(0%,0%,0%);stroke-opacity:1;stroke-miterlimit:4;" d="M 153.4 140.328947 C 153.9 141.611842 154.4 142.894737 155.1 143.289474 M 156.2 143.782895 C 157 144.177632 157.8 144.276316 158.7 143.980263 M 153.6 153.453947 C 155.7 153.453947 156.6 154.539474 158.3 155.131579 C 160.1 155.625 162.5 155.328947 164.8 156.414474 M 152.9 146.743421 C 153.6 147.138158 154.2 147.335526 154.9 147.335526 M 155.8 147.335526 C 157 147.532895 157.8 148.026316 158.1 148.717105 M 155.3 149.802632 C 156.3 150.789474 158.3 151.578947 159.5 151.578947 " transform="matrix(0.0390625,0,0,0.0395833,0,0)"/>
<path style="fill:none;stroke-width:0.2;stroke-linecap:round;stroke-linejoin:round;stroke:rgb(0%,0%,0%);stroke-opacity:1;stroke-miterlimit:4;" d="M 157 135.986842 C 157.9 139.243421 158 140.427632 160.2 141.019737 M 156.1 135.888158 C 157.1 139.046053 158.1 140.723684 160.2 140.921053 M 155.2 135.493421 C 156.2 138.552632 157.6 140.822368 160.2 140.921053 M 171.8 165.690789 C 171.4 165.394737 171.1 165 170.8 164.407895 L 170.1 162.828947 L 169.6 163.125 C 169.2 163.125 169.1 162.927632 169.4 162.730263 L 169.8 162.532895 L 169.2 161.348684 C 169 161.348684 169.1 161.151316 169.4 160.953947 C 169.7 160.756579 169.9 160.756579 169.8 160.953947 L 170.4 162.236842 L 170.8 162.039474 C 171.1 161.842105 171.3 162.335526 171 162.434211 L 170.5 162.631579 L 171.3 164.210526 C 171.7 164.901316 171.8 165.098684 171.8 165.690789 M 171.7 162.335526 L 169.3 163.618421 M 167.1 161.842105 L 170.3 160.164474 M 166.6 161.151316 L 169.9 159.572368 " transform="matrix(0.0390625,0,0,0.0395833,0,0)"/>
<path style="fill:none;stroke-width:0.1;stroke-linecap:round;stroke-linejoin:round;stroke:rgb(0%,0%,0%);stroke-opacity:1;stroke-miterlimit:4;" d="M 140.1 152.960526 L 141.2 151.973684 M 139.7 152.467105 L 140.7 151.480263 M 139.1 151.973684 L 140.2 150.986842 M 160 146.447368 L 161 146.447368 M 159.9 145.559211 L 160.9 145.559211 M 159.9 145.953947 L 160.9 145.953947 M 162.2 136.776316 L 162.8 137.072368 " transform="matrix(0.0390625,0,0,0.0395833,0,0)"/>
</g>
</svg>
