<svg xmlns="http://www.w3.org/2000/svg" width="25" height="px" viewBox="0 0 25 19"><path d="M0 0h25v19H0z" style="fill:#fff;fill-opacity:1;stroke:none"/><path d="M12.5 0H25v19H12.5Zm0 0" style="stroke:none;fill-rule:nonzero;fill:#cf142b;fill-opacity:1"/><path d="M-2047.62-7165.772H2047.62v3886.95c312.925-20.14 639.456 107.411 884.354 349.087 238.095 241.675 367.346 563.91 346.938 879.43h3891.157v4095.06H3278.91c20.408 315.52-108.843 644.468-346.938 886.143-244.898 241.676-571.429 369.227-884.354 349.087v3886.95H-2047.62v-3886.95c-312.925 20.14-639.456-107.411-884.354-349.087-238.095-241.675-367.347-570.623-346.939-886.144h-3891.156v-4095.059h3891.156c-20.408-315.52 108.844-637.755 346.939-879.43 244.898-241.676 571.429-369.227 884.354-349.087Zm0 0" style="fill:none;stroke-width:512;stroke-linecap:butt;stroke-linejoin:miter;stroke:#cf142b;stroke-opacity:1;stroke-miterlimit:4" transform="matrix(.00057 0 0 .00058 6.32 6.357)"/><path d="M7.484 4.453a.65.65 0 0 1 .52.2.67.67 0 0 1 .195.527v2.355a.67.67 0 0 1-.195.527.65.65 0 0 1-.52.2H5.156a.65.65 0 0 1-.52-.2.67.67 0 0 1-.195-.527V5.18a.67.67 0 0 1 .196-.528.65.65 0 0 1 .52-.199Zm0 0" style="stroke:none;fill-rule:nonzero;fill:#fff;fill-opacity:1"/><path d="M-2027.211-7145.632H2027.21V7146.795h-4054.422Zm-5115.646 5122.18H7142.857v4048.067H-7142.857Zm0 0" style="fill-rule:nonzero;fill:#fff;fill-opacity:1;stroke-width:48;stroke-linecap:butt;stroke-linejoin:miter;stroke:#000;stroke-opacity:1;stroke-miterlimit:4" transform="matrix(.00057 0 0 .00058 6.32 6.357)"/><path d="M-1789.116-6910.67h3578.231V6911.833h-3578.23Zm-5122.449 5115.467h13823.13v3584.855h-13823.13Zm0 0" style="fill-rule:nonzero;fill:#fff;fill-opacity:1;stroke-width:96;stroke-linecap:butt;stroke-linejoin:miter;stroke:#000;stroke-opacity:1;stroke-miterlimit:4" transform="matrix(.00057 0 0 .00058 6.32 6.357)"/><path d="M3197.279-2.775c0-1765.575-1428.572-3195.489-3197.28-3195.489-1768.707 0-3197.278 1429.914-3197.278 3195.489 0 1772.288 1428.571 3202.202 3197.279 3202.202S3197.279 1769.513 3197.279-2.775Zm0 0" style="fill-rule:nonzero;fill:#fff;fill-opacity:1;stroke-width:96;stroke-linecap:butt;stroke-linejoin:miter;stroke:#000;stroke-opacity:1;stroke-miterlimit:4" transform="matrix(.00057 0 0 .00058 6.32 6.357)"/><path d="M2367.347-2.775c0-1302.363-1061.225-2363.05-2367.347-2363.05S-2367.347-1305.139-2367.347-2.776C-2367.347 1306.3-1306.123 2366.988 0 2366.988c1306.122 0 2367.347-1060.687 2367.347-2369.763Zm0 0" style="fill-rule:nonzero;fill:#fff;fill-opacity:1;stroke-width:96;stroke-linecap:butt;stroke-linejoin:miter;stroke:#000;stroke-opacity:1;stroke-miterlimit:4" transform="matrix(.00057 0 0 .00058 6.32 6.357)"/><path d="M3081.632-2567.222c-108.843 87.272-319.727 302.095-448.98 463.212l-115.645-73.846c163.265-140.977 387.755-349.087 510.204-496.777Zm-95.238-181.257c-204.081 60.42-585.034 167.83-755.102 275.242l-34.013-53.706c68.027-100.698 149.66-503.49 142.857-624.328l129.252 33.566c-40.817 100.698-81.633 308.807-95.239 449.785 129.252-20.14 435.375-120.838 523.81-187.97Zm0 0" style="fill-rule:nonzero;fill:#fff;fill-opacity:1;stroke-width:48;stroke-linecap:butt;stroke-linejoin:round;stroke:#000;stroke-opacity:1;stroke-miterlimit:4" transform="matrix(.00057 0 0 .00058 6.32 6.357)"/><path d="M3238.095-2291.98h-156.463c27.211-174.544-95.238-422.933-306.122-597.476-210.884-181.257-448.98-248.389-571.429-154.404-129.251 87.272-108.843 308.808 40.817 530.344 156.462 221.536 401.36 382.653 591.836 396.08l115.647-134.265 136.054 134.264-149.66 154.404c-292.517-40.28-571.428-208.11-755.102-449.785-190.476-248.389-265.306-550.483-224.49-832.438 278.912-40.28 578.232 33.566 823.13 214.822 238.095 181.257 408.163 449.786 455.782 738.454Zm0 0" style="fill-rule:nonzero;fill:#fff;fill-opacity:1;stroke-width:48;stroke-linecap:butt;stroke-linejoin:round;stroke:#000;stroke-opacity:1;stroke-miterlimit:4" transform="matrix(.00057 0 0 .00058 6.32 6.357)"/><path d="M3085.302-2564.626c-114.125 81.633-322.234 299.32-449.785 462.585l-120.838-74.83c161.117-142.857 389.366-353.741 516.917-503.4Zm-100.698-183.673c-201.396 54.422-584.05 170.068-751.88 272.109l-33.566-47.62c67.132-102.04 147.69-510.203 140.978-625.85l127.55 27.211c-40.279 102.041-80.558 319.728-93.984 455.783 127.55-20.409 436.358-122.45 523.63-183.674Zm0 0" style="fill-rule:nonzero;fill:#fff;fill-opacity:1;stroke-width:48;stroke-linecap:butt;stroke-linejoin:round;stroke:#000;stroke-opacity:1;stroke-miterlimit:4" transform="matrix(0 .00058 -.00057 0 6.32 6.357)"/><path d="M3239.706-2292.517h-154.404c26.853-170.068-100.698-421.768-308.808-598.64-214.822-183.673-449.785-244.897-577.336-156.462-120.838 88.436-107.411 312.925 46.993 530.612 154.404 224.49 396.08 387.756 590.762 401.361l114.125-136.054 140.977 136.054-154.404 156.463c-295.38-40.817-570.623-210.885-751.88-455.783-187.97-244.898-268.528-551.02-221.535-829.932 275.241-40.816 570.623 34.014 812.298 217.687 248.39 176.871 416.22 448.98 463.212 734.694Zm0 0" style="fill-rule:nonzero;fill:#fff;fill-opacity:1;stroke-width:48;stroke-linecap:butt;stroke-linejoin:round;stroke:#000;stroke-opacity:1;stroke-miterlimit:4" transform="matrix(0 .00058 -.00057 0 6.32 6.357)"/><path d="M3081.633-2561.672c-108.844 80.559-319.728 295.382-448.98 456.499l-115.646-73.846c163.265-140.977 387.755-349.087 510.204-496.777Zm-95.238-187.97c-204.082 60.42-585.034 174.544-755.102 275.242l-34.014-53.706c68.027-93.984 149.66-503.49 142.857-617.615l129.252 26.853c-40.816 100.698-81.633 315.52-95.238 449.785 129.252-20.14 435.374-120.838 523.81-181.257Zm0 0" style="fill-rule:nonzero;fill:#fff;fill-opacity:1;stroke-width:48;stroke-linecap:butt;stroke-linejoin:round;stroke:#000;stroke-opacity:1;stroke-miterlimit:4" transform="matrix(-.00057 0 0 -.00058 6.32 6.357)"/><path d="M3238.095-2293.143h-156.462c27.21-167.83-95.238-422.932-306.123-597.476-210.884-181.257-448.98-248.389-571.428-154.404-129.252 87.272-108.844 308.808 40.816 530.344 156.463 221.536 401.36 382.653 591.837 396.08l115.646-134.265 136.055 140.978-149.66 154.403c-292.517-46.992-571.429-214.822-755.102-456.498-190.477-248.389-265.306-550.483-224.49-825.725 278.911-46.992 578.231 26.853 823.13 208.11 238.094 181.256 408.162 449.785 455.781 738.453Zm0 0" style="fill-rule:nonzero;fill:#fff;fill-opacity:1;stroke-width:48;stroke-linecap:butt;stroke-linejoin:round;stroke:#000;stroke-opacity:1;stroke-miterlimit:4" transform="matrix(-.00057 0 0 -.00058 6.32 6.357)"/><path d="M3084.14-2564.626c-114.125 81.633-322.235 299.32-449.786 462.585l-120.838-74.83c167.83-142.857 389.367-353.741 516.918-503.401Zm-100.699-183.673c-201.396 54.421-584.05 170.068-751.88 272.108l-33.566-47.619c67.132-102.04 147.691-510.204 140.978-625.85l127.55 27.21c-40.278 102.042-80.558 319.729-93.984 455.783 134.264-20.408 436.359-122.449 523.63-183.673Zm0 0" style="fill-rule:nonzero;fill:#fff;fill-opacity:1;stroke-width:48;stroke-linecap:butt;stroke-linejoin:round;stroke:#000;stroke-opacity:1;stroke-miterlimit:4" transform="matrix(0 -.00058 .00057 0 6.32 6.357)"/><path d="M3238.543-2292.517H3084.14c26.853-170.068-100.698-421.769-308.807-598.64-214.823-183.673-449.786-244.898-577.337-156.462-120.837 88.435-100.698 312.925 46.993 530.612 154.404 224.49 396.08 387.755 597.476 401.36l107.411-136.054 140.978 136.055-154.404 156.462c-295.382-40.816-563.91-210.884-751.88-455.782s-268.529-551.02-221.536-829.932c275.242-40.816 570.623 34.013 819.012 217.687 241.675 176.87 409.506 448.98 456.498 734.694Zm0 0" style="fill-rule:nonzero;fill:#fff;fill-opacity:1;stroke-width:48;stroke-linecap:butt;stroke-linejoin:round;stroke:#000;stroke-opacity:1;stroke-miterlimit:4" transform="matrix(0 -.00058 .00057 0 6.32 6.357)"/><path d="M4.86 7.398a.8.8 0 0 0-.126-.191c.02-.012.043-.031.059-.035-.004.047.066.144.066.144l.102-.07c-.027-.043-.05-.078-.074-.09a1 1 0 0 1 .062-.039c0 .024.012.063.051.11 0 0 .094-.051.125-.09l.043.066a1.2 1.2 0 0 0-.309.195m-.14-.882c-.106.02-.16.113-.145.214.02.106.114.18.215.16.102-.015.16-.113.14-.222-.019-.11-.1-.172-.21-.152m.015.062c.086-.016.16.027.172.094.012.07-.043.137-.129.152-.086.016-.156-.043-.164-.097-.011-.059.035-.133.121-.149m.211-.64c-.035.058-.113.109-.183.16-.012-.051-.047-.082-.09-.086-.047-.004-.09.035-.098.058-.011.035-.027.18-.027.18.09-.008.285.008.351.031l.008-.074c-.043.012-.144-.012-.144-.012l.004-.03.101-.083c.016-.012.094-.086.094-.137 0-.02-.012-.011-.016-.008m-.207.258a.5.5 0 0 1-.148-.015c.008-.082.031-.11.078-.106.039.004.082.028.07.121m.39-1.03c-.077.007-.175.081-.171.144 0 .035.012.082.055.113.043.035.09.047.125.039s.093-.059.093-.086c0-.023-.062-.102-.101-.102l.066-.07a.26.26 0 0 0 .106.11c-.028.066-.063.14-.137.171-.074.036-.148.036-.219-.03-.066-.063-.039-.184 0-.231.047-.051.133-.075.133-.114Zm.368-.392.012.262s.008.094-.016.152l.082-.054c-.031-.028-.023-.106-.023-.106l.129-.07s.062.04.054.09L5.848 5c-.067-.027-.145-.082-.145-.082Zm.043.082.117.079L5.54 5Zm.582-.277c-.016.067.004.192.027.297.079-.004.141-.016.168-.05l.008.09c-.078 0-.168.007-.246.022 0-.12-.012-.277-.047-.343Zm.61.04a.8.8 0 0 0-.086.284c.078.024.14.04.18.016l-.028.086a1.5 1.5 0 0 0-.238-.07c.043-.11.09-.262.082-.336Zm.613.28-.227.133s-.078.047-.14.055l.085.047c.008-.04.083-.07.083-.07l.12.085s-.007.075-.054.09l.09.082c-.004-.07.008-.168.008-.168Zm-.051.075-.02.148-.109-.078Zm.172.543-.035-.067c.058-.004.234-.11.316-.164l.012.024-.074.351a.8.8 0 0 0 .203-.117l.039.078c-.074-.012-.215.059-.32.125l-.008-.02.062-.34s-.172.079-.195.13M8 6.023c-.008-.05-.008-.085-.031-.097l-.004-.024.062-.007c.024.066.055.257.051.304l-.062.012-.004-.02c.02-.023 0-.113 0-.113-.098.012-.262.04-.285.07l-.016-.09c.035.012.2-.003.289-.035m-.309.77c.036-.055.118-.106.184-.156.012.05.047.086.09.086.047.004.094-.032.101-.059.012-.031.028-.176.028-.176a1.2 1.2 0 0 1-.352-.039l-.012.078c.047-.011.145.012.145.012v.031l-.105.082c-.012.012-.09.086-.094.137 0 .016.011.012.015.004m.211-.254c.04 0 .125.004.149.016-.012.082-.035.113-.078.11-.043-.009-.082-.032-.07-.126m-.329.488-.05.09c.038-.004.097.028.144.059.016.043.078.148.07.254l.07-.121c-.03-.012-.066-.028-.09-.141.09-.035.16-.043.188-.027l.063-.106a.7.7 0 0 1-.266.078c-.027-.015-.11-.043-.129-.086M7.238 7.73c0-.039-.031-.074-.07-.074a.077.077 0 0 0-.074.074c0 .04.035.075.074.075s.07-.035.07-.075M5.547 7.73a.077.077 0 0 0-.074-.074c-.04 0-.07.035-.07.074 0 .04.03.075.07.075.039 0 .074-.035.074-.075M6.434 8.133c-.008.004-.028-.008-.036-.024 0 .008 0 .024-.007.032-.024.023-.051.011-.07.011s-.048.012-.071-.011c-.008-.008-.008-.024-.008-.032-.008.016-.027.028-.035.024-.004-.008-.004-.028.012-.04-.004.005-.02.009-.032 0-.03-.015-.027-.042-.03-.062-.009-.02-.028-.039-.012-.07.003-.012.02-.02.023-.02-.016 0-.031-.015-.027-.023 0-.012.023-.012.039-.004a.05.05 0 0 1-.012-.031c.008-.031.035-.04.05-.051.016-.012.028-.035.063-.031a.1.1 0 0 1 .028.02c-.008-.016.003-.036.011-.036s.02.02.012.035c.004-.004.016-.015.027-.02.036-.003.047.02.063.032s.043.02.05.05a.05.05 0 0 1-.011.032c.016-.008.039-.008.039.004.004.008-.012.023-.027.023.004 0 .02.008.023.02.016.031-.004.05-.012.07-.004.02 0 .047-.03.063-.013.008-.028.004-.032 0 .016.011.016.031.012.039m-.168-.082c.011.008-.016.027-.004.054.011.032.039.02.058.02s.047.012.059-.02c.012-.027-.016-.046-.004-.054.008-.008.02.023.047.023.035-.004.035-.035.039-.05.004-.02.023-.044 0-.067-.024-.016-.05 0-.055-.008-.004-.011.028-.015.035-.043.012-.031-.02-.039-.035-.05-.011-.012-.031-.04-.058-.02-.024.016-.016.047-.028.047-.011 0-.004-.031-.027-.047-.027-.02-.047.008-.059.02-.015.011-.046.019-.035.05.008.028.04.032.035.043-.004.008-.03-.008-.054.008-.024.023-.004.047 0 .066.004.016.004.047.039.051.027 0 .039-.031.047-.023" style="stroke:none;fill-rule:nonzero;fill:#000;fill-opacity:1"/><path d="M6.32 8.094c-.004 0-.011-.016-.008-.024q-.002.006-.015.012c-.02 0-.027-.012-.04-.02-.007-.007-.023-.011-.027-.03-.003-.009.004-.016.004-.02-.007.008-.02.004-.023 0 0-.004.008-.016.02-.016q-.008 0-.016-.012c-.008-.015.004-.027.008-.039 0-.011 0-.03.015-.039.008-.004.02-.004.02 0-.008-.008-.008-.02-.004-.023.004-.004.016.004.02.012q0-.008.003-.016c.016-.016.032-.008.043-.008.012 0 .028-.008.043.008q.005.008.004.016c.004-.008.016-.016.02-.012s.004.015-.004.023c0-.004.012-.004.02 0 .015.008.015.028.015.04.004.011.016.023.008.038q-.008.012-.016.012c.012 0 .02.012.02.016-.004.004-.016.008-.024 0 0 .004.008.011.004.02-.004.019-.02.023-.027.03-.012.008-.02.02-.04.02-.007-.004-.015-.008-.015-.012.004.008-.004.024-.008.024m0-.067c.008 0 .004.016.016.024.012.011.023-.004.031-.008.008-.008.024-.012.02-.031-.004-.012-.024-.016-.02-.02 0-.008.016.004.028-.008.015-.011.003-.023.003-.035-.003-.008-.003-.023-.023-.027-.016 0-.02.016-.027.016-.004-.004.011-.016.004-.032-.004-.015-.024-.011-.032-.011s-.027-.004-.03.011c-.009.016.007.028.003.032-.008 0-.012-.016-.027-.016-.02.004-.02.02-.024.027 0 .012-.012.024.004.035.012.012.027 0 .027.008.004.004-.015.008-.02.02-.003.02.013.023.02.031.008.004.02.02.032.008.011-.008.008-.024.015-.024" style="stroke:none;fill-rule:nonzero;fill:#000;fill-opacity:1"/><path d="M6.348 7.977a.027.027 0 0 0-.028-.028.027.027 0 0 0-.027.028c0 .015.012.027.027.027a.027.027 0 0 0 .028-.027m0 0" style="stroke:none;fill-rule:nonzero;fill:#000;fill-opacity:1"/><path d="M137.9 185.822q24-1.035 48 0" style="fill:none;stroke-width:.7;stroke-linecap:round;stroke-linejoin:round;stroke:#000;stroke-opacity:1;stroke-miterlimit:4" transform="scale(.03906 .03958)"/><path d="m160 143.29 1.3 1.48m2 19.243c-.1 1.283 0 2.369.2 3.158m-3.2-2.96c.4.493 1 2.27 1 2.96" style="fill:none;stroke-width:.4;stroke-linecap:round;stroke-linejoin:round;stroke:#000;stroke-opacity:1;stroke-miterlimit:4" transform="scale(.03906 .03958)"/><path d="M170.2 185.625c-.6.197-1.6.79-1.6 1.283s1.2.592 1.6.69c-.7.198-2.7.593-3.6.198-.6.296-5.2-.69-6.2-.69-.6 0-1.4-.593-1.3-1.678 0-.198.2-.79.7-.987-.3-.592 1.1-1.58 2.5-2.467-2 .296-4.7-.494-5.4-1.283-1.6-.592-2.3 0-3 1.381 0 2.467-1.3 3.652-3 3.454-1-.197-1.3.296-1.6.494l3.3.987c2.2 1.973 1 3.552.5 3.947-.5.493-1.7.099-2.4.099-.8 0-.8.394-1 .493-.7.296-1.1.395-1.3.197 0-.296.3-1.776 1.2-1.973.5 0 1.5-.296 1.5-.79 0-.493-1.8-.394-3.2-.888-1.1-.395-1.5-.987-1.1-2.862.3-2.072 2.7-2.368 3.9-2.368-.2-.79 0-2.27 1-3.257 1.6-1.48 4-.987 6.1-.79 1.2-.69 3.4-1.677 5.6-1.776 2 0 10.6-2.368 14.5-1.875-1-1.282-.7-4.342.9-5.23 2-1.283 4.2 1.974 4.8 1.382s-.7-1.382-2.2-3.06c-.4-.592-.3-.592-.3-.789q0-.74.3-1.184c.2-.099 1.4.296 1.7.79.5.69.9.888 1.3.493.5-.395-.2-.198-.5-.987-.1-.493-.5-.888-.4-1.283.7-.69 1.4-1.184 2.3-1.579.3.494.6.888.9 1.283.7 1.086 1.4.79 1.9 1.579 0 .395.2.987.5 1.678.8 1.48 2 2.763 3.5 3.65.3.198.5.396.6.692 0 .493-.1.79-.4.987-.2.197-1 .197-1.6-.1-.9-.493-1.6-.789-2.1-.69-1.4.197-2.3 2.368-4.3 2.368-1.8-.197-3-2.861-4.1-2.072s2.5 2.96 2 4.046c.4.198.9.987.7 1.678 1.6-.296 3-1.283 3.9-2.763 1-1.283 1.7-1.974 2.2-2.171.6-.296 1.3 0 1.3.493l.9.296c.4.395.5.69.2.987l-.6-.395q-.45 0-1.2.592a9.3 9.3 0 0 1-1.2 1.777l-2 2.17c.2.494.3.987.2 1.48.2 0 .4.1.7.198.1.099.1.296 0 .691 0 .493-2 2.763-2.4 2.665-.8 0-1.4-.987-1.3-1.382-.9.493-1.3-.592-1.3-.987-.6.69-1.4 1.184-2.2 1.58-.4.196-.7 0-.8-.494-.1.493-1.3.888-1.6.986-1.5.297-3.1.987-4.6.987l-3.8-.098Zm0 0" style="fill-rule:nonzero;fill:#fff;fill-opacity:1;stroke-width:.5;stroke-linecap:round;stroke-linejoin:round;stroke:#000;stroke-opacity:1;stroke-miterlimit:4" transform="scale(.03906 .03958)"/><path d="M175.5 171.414c0 .593-.9 1.974.4 3.158.8.592 2.1 1.086 2.5 2.073.4.69-.1 1.283-.3 1.283-.8-.198-1.9 1.184-2.3 2.17-.4-1.38-1.3-.986-2.5-.789.2-1.579-.7-2.368-2.6-2.566.3-.296-.2-.79-.6-1.184-.4-.395-1.8-.098-2-.395 0-.296.7-.986.3-1.48-.4-.69-2-.296-2.6-.493.2-.691.1-1.283-.2-1.974-.5-.987-2.2-.493-3.1-.69.7-.593.9-1.284.6-2.172-.4-.987-2.4.099-2.4-.987.1-.493 2.4-.79 3.3-.888s3.7.691 6.5 1.283c.6.592 5 1.974 5 3.651" style="fill-rule:nonzero;fill:#fff;fill-opacity:1;stroke-width:.3;stroke-linecap:round;stroke-linejoin:round;stroke:#000;stroke-opacity:1;stroke-miterlimit:4" transform="scale(.03906 .03958)"/><path d="M182.8 182.566c1.5-.691 2.9-1.678 4.1-2.763m-25.6-.987c1.2 0 3.9.395 4.7 1.381.7.987 1.2 2.665-4.1 4.046 1.6 0 4-.296 4.8-.098.8-.198 2.5-.79 3.2-.592-.3.098-1.2.493-1.2 1.085 0 .296.4.592 1.1.79m5.1-3.652c1.9.395 4.6-.197 5 1.777" style="fill:none;stroke-width:.5;stroke-linecap:round;stroke-linejoin:round;stroke:#000;stroke-opacity:1;stroke-miterlimit:4" transform="scale(.03906 .03958)"/><path d="M181.2 166.776c.5.592 2 1.48 2.7 2.073 1 .79 1.4-.198.7-1.48" style="fill:none;stroke-width:.4;stroke-linecap:round;stroke-linejoin:round;stroke:#000;stroke-opacity:1;stroke-miterlimit:4" transform="scale(.03906 .03958)"/><path d="M168.1 175.164c2-.394 4-.592 6.1-.69m-8.4-1.283c3-.79 6.2-.494 8.2-.494m-.5 6.415 2.6-2.467m-5.4 0c1-.296 2.6-1.086 4-1.283m-4.2-7.599c1.6-1.48 3.4-1.283 5.2-2.17 1-.593 2-1.975 3-3.06.4-.494 1.1-.69 2-.69 1.5.196 1.4.394-.1.69-1.2.197-1.3.69-1.7 1.579-.4.79 0 1.677.2 2.27l-.8 2.17c0 .297.2.691.5 1.185m-16.3.79c4-.889 10 .69 11.1.69" style="fill:none;stroke-width:.3;stroke-linecap:round;stroke-linejoin:round;stroke:#000;stroke-opacity:1;stroke-miterlimit:4" transform="scale(.03906 .03958)"/><path d="M187.7 177.04c1.3-.691 1.3-2.073 3-2.665m-6.6 9.079c1.7-.79 2-1.48 3-2.171m.9-13.717c-.3 0-.5-.099-.8-.296-.3-.395-.3-.592-.1-.79.1-.197.3-.098.7.198.6.493.3.69.2.888m.3 3.059c-.8.197-1-.493-1.7-.592-.9-.197-1.4.395-1.4.888s.5.987 1 .987 1-.296 2.1-.197m-3.8-7.204c.7.098 1.2.098 1.7-.198" style="fill:none;stroke-width:.2;stroke-linecap:round;stroke-linejoin:round;stroke:#000;stroke-opacity:1;stroke-miterlimit:4" transform="scale(.03906 .03958)"/><path d="M162.7 150.69c-.1 0-.2-.197-.2-.295-.1-.198 0-.296 0-.395-.1 0-.2-.197-.2-.296-.1-.197 0-.296 0-.395-.1 0-.2-.197-.2-.296-.1-.197 0-.296 0-.395-.1-.098-.1-.197-.2-.394 0-.099 0-.296.1-.296-.1 0-.2-.198-.2-.296-.1-.198-.1-.296 0-.395-.1-.099-.1-.198-.2-.395 0-.099 0-.296.1-.296-.1 0-.2-.197-.2-.395-.1-.197 0-.394.1-.493-.1 0-.1-.099-.2-.296 0-.099 0-.296.1-.395-.1 0-.1-.099-.2-.296 0-.099 0-.296.1-.395-.1 0-.2-.197-.2-.394 0-.198.1-.395.2-.395-.1 0-.1-.099-.2-.296 0-.099 0-.296.1-.395-.1 0-.2-.099-.2-.395 0-.197.1-.394.2-.394-.1 0-.2-.1-.2-.296 0-.297.1-.494.2-.494-.1-.099-.1-.197-.1-.395.1-.098.1-.296.2-.296-.1-.098-.2-.296-.1-.493s.2-.395.3-.296c-.1-.099-.1-.198-.1-.395.1-.099.1-.296.2-.296-.1 0-.2-.197-.1-.493 0-.198.2-.395.3-.395-.1 0 0-.197 0-.395.1-.099.2-.296.3-.296-.1 0-.1-.197 0-.395l.3-.296c-.1 0-.1-.197 0-.296 0-.197.2-.394.3-.394-.1-.1-.1-.297.1-.494.1-.197.3-.296.4-.197-.1 0-.1-.198 0-.395.2-.197.4-.395.5-.296-.1-.099 0-.197.1-.395.1-.098.3-.197.4-.197-.1-.099-.1-.296 0-.494.2-.098.5-.296.6-.197" style="fill-rule:nonzero;fill:#fff;fill-opacity:1;stroke-width:.1;stroke-linecap:round;stroke-linejoin:round;stroke:#000;stroke-opacity:1;stroke-miterlimit:4" transform="scale(.03906 .03958)"/><path d="m163.6 150.395-.9.296m.7-.987-.9.296m.8-.987-1 .296m.9-.987-1 .296m.9-.888-1.1.198m1-.987-1.2.296m1-1.086-1.1.395m1.1-1.085-1.2.197m1.2-.79h-1.4m1.4-.69h-1.4m1.4-.691h-1.5m1.5-.69h-1.5m1.6-.692-1.6-.098m1.7-.593-1.6-.197m1.7-.395-1.7-.296m1.9-.394-1.7-.395m1.9-.198-1.8-.493m2-.197-1.8-.691m2 0-1.7-.69m2 .196-1.7-.986m2.1.394-1.8-.986m2.2.493-1.7-1.184m2.1.69-1.6-1.381m2.1.987-1.6-1.58m2.1.988-1.5-1.678" style="fill:none;stroke-width:.1;stroke-linecap:round;stroke-linejoin:round;stroke:#000;stroke-opacity:1;stroke-miterlimit:4" transform="scale(.03906 .03958)"/><path d="m173 140.724-2.5.296c-.2.493-.2 1.875-.2 2.368 2.3 2.27 4.6 5.23 4.8 7.895.7.592 1.3 1.381 1.6 2.27 1.7-.889 3.4-2.27 4.8-2.665 1-.197 2.6-.296 3.5.198l5.6 3.453c1.2.79 2.1 1.58 2.6 2.566.5.79.6 2.27.4 2.665l-3.4-.987c-.1-.494 0-1.086.3-1.678.2-.592.2-.592-.3-.987-.4-.197-.7-.197-1 0q-.75 0-1.2-.592c-1.4-.888-2.9-1.677-4.5-2.27-.7-.098-1.4.1-2.2.691-.4.592-1.6 2.369-2.5 3.257-.2.197-.2.493-.1.79l3.6.098c1.4.197 3 1.58 3.8 2.467 3.5 3.257 4.8 5.033 5.9 6.02a2.7 2.7 0 0 1 1 1.776h-3.4c0-1.184-.1-2.072-.4-2.763-.4-.493-1.1-.296-1.4-.296-.3-.099-.7-.395-1-.987-.5-.987-2.3-2.27-3.1-2.763-.8-.592-1.1-.395-2-.493-.7-.198-1.5-.198-2.5 0-.9.394-3.4 1.184-5.7 1.48-.8.395-3.3.79-6 1.381-2 .395-6.5 1.185-7.4 1.185-.3 2.072-2.6 5.23-3.2 5.526-.7.987-.7 1.678-.2 1.974.5.493 3.9.493 4.7.493l2.9.099c.5.098 1.3.79 2.2 1.283.6.296.7.69 1.1 1.283.3.394.6.888.8 1.282h-4c-.1-1.085-.4-1.677-1-1.776-.6.395-1.3.888-2.1.592-3.1-.197-5.1 0-8-.296-.9 0-1.6-1.184-1.3-2.27.3-.888.3-1.776 0-2.565-.3.296-1.5 1.381-2.1 2.17-1 1.086-.4 2.27 0 2.961.5.592 3.9 3.75 4.3 4.638.3.593 1.7 1.58 3 2.665a7.8 7.8 0 0 0 1.8 2.17h-5l.2-1.282c0-.395-.3-.987-1-.888s-1.2-.69-1.4-1.283c-.2-.592-2.5-3.553-3.2-4.145l-3-2.96c-.4-.099-.5-.79 0-1.283.9-1.086 1.5-2.467 2-3.75.3-.888 0-1.086-.2-1.283-2.2-1.579-4-3.651-5.4-5.921-1.3.296-2.7.197-4-.296-1.1-.69-2.1-.592-2.9.395-.4.69-.4 1.776.3 2.27 1 .887 2.1 1.973 3.3 3.355 1 1.381.1 2.368-1.3 3.552.2.494 0 .395.2 1.283.5.69.5 2.369-.1 2.665-.7.394-1.3.888-2 1.677-.8.888-1 0-.8-1.48.2-.888-.5-1.579-1.1-2.27-.6-.69-.3-2.566 0-3.158.5-.592.8-1.677 0-2.664-.9-.79-2.5-2.566-2.3-4.934.1-1.283.7-2.369 1.8-2.96 1-.692 2.3-.79 3.4-.396 3 1.283 4.7.987 5.6.79.8-1.382 2.1-2.665 3.8-3.75 1.7-.987 5-2.27 8.3-2.763l8.1-3.06c1.1-.197 1-1.184 1-1.776-1-5.526-.8-11.349 3.7-14.21.5-.494.3-1.678 1-2.566l1.3 2.17c2 .692 5.4 1.876 6.8 2.567.7.197 1.2.394 1.7.493.5.197.8.494 1 .987.2.69.1 1.184-.4 1.579-.3.099-1.9-.395-2.3 0 0 .296.5.592 1.4.987.3.197-.3.987-.7.987q-.45-.001-.9-.296c-1-.198-2-.593-3-.987" style="fill-rule:nonzero;fill:#fff;fill-opacity:1;stroke-width:.5;stroke-linecap:round;stroke-linejoin:round;stroke:#000;stroke-opacity:1;stroke-miterlimit:4" transform="scale(.03906 .03958)"/><path d="M167.3 137.072c0 3.454 1.1 5.132 3 6.316m6.4 10.165c.3 1.381.3 2.763 0 4.046M152 170.625c2.5-1.086 4.8-4.046 4.7-5.822 0-.987-.9-2.467-3.1-2.566m3 2.566c.8.296 2.3.098 3.5.296m12.6-8.29c2 .099 4.6 1.283 6 1.184m-7 2.764c1.8.394 1.8 1.282 5.3 1.085m-6-12.237c1.9 0 3 .987 4 1.678" style="fill:none;stroke-width:.5;stroke-linecap:round;stroke-linejoin:round;stroke:#000;stroke-opacity:1;stroke-miterlimit:4" transform="scale(.03906 .03958)"/><path d="M156.3 166.382c1.4.197 2.4-.296 3-1.382m8-27.928c0 2.862 1 3.553 3.2 3.948" style="fill:none;stroke-width:.3;stroke-linecap:round;stroke-linejoin:round;stroke:#000;stroke-opacity:1;stroke-miterlimit:4" transform="scale(.03906 .03958)"/><path d="M178 137.566c-.1.69-.2 1.381 1 1.283m-6.1-3.158c-.9 2.17 3.6 2.467 3.7 4.046m-25 14.704c2.2.987 2 5.23 2 7.796" style="fill:none;stroke-width:.2;stroke-linecap:round;stroke-linejoin:round;stroke:#000;stroke-opacity:1;stroke-miterlimit:4" transform="scale(.03906 .03958)"/><path d="M175.6 139.737c-.7 1.381-2.3 3.454-3.8 4.54-2.3 1.776-5 2.96-8.1 3.75-.5.197-1 .197-1.6.098-.7 0-1.2-.493-1.7-1.382-.2-.394-.1-2.664.7-2.96s1.6-.395 2.4-.395c.6 0 .9.296 1 .79-.1.592-.4.79-1 .69-.6-.197-1.5-.592-2-.197-.4.197-.7 1.184-.4 1.776s.7.987 1.1.987l1.3-.098c2.9-.79 5.5-2.073 7.8-3.652 1.5-.987 3-3.355 3.6-4.342Zm-12 4.243c-.9-.197-2.4 0-2.5.395.7-.296 1.5-.296 2.5 0 .3 0 .3-.197 0-.395m6-7.5.3-.69c.1-.1-.2-1.678 1.4-.889 1.7.987.4 1.678.3 1.777l-.4.69" style="fill-rule:nonzero;fill:#fff;fill-opacity:1;stroke-width:.2;stroke-linecap:round;stroke-linejoin:round;stroke:#000;stroke-opacity:1;stroke-miterlimit:4" transform="scale(.03906 .03958)"/><path d="m166.7 135 9.5 5.033" style="fill:none;stroke-width:.4;stroke-linecap:round;stroke-linejoin:round;stroke:#000;stroke-opacity:1;stroke-miterlimit:4" transform="scale(.03906 .03958)"/><path d="M154.7 135.395c-2.1.098-4.3-.099-6.4-.494-.8-.098-3.1 3.158-4.3 3.356-1.2.296-2.4-2.369-4.1-1.777-.9.691 0 4.046-.5 4.342-.5.494-2-1.579-3-.986-1 .789.8 5.032.3 5.526s-2.6-1.875-3.3-1.382.7 7.204 0 7.5c-.6.395-3.7-1.776-4-.888-.5.987 4.3 3.06 5.6 3.257l1.3-.592c.4.197 4.2.592 4.6.592l2.1-2.27c3.3-4.243 7-8.29 11.7-7.993Zm0 0" style="fill-rule:nonzero;fill:#fff;fill-opacity:1;stroke-width:.3;stroke-linecap:round;stroke-linejoin:round;stroke:#000;stroke-opacity:1;stroke-miterlimit:4" transform="scale(.03906 .03958)"/><path d="m140.2 136.48 6.3-.296m-10.1 3.652 3-.987m-6 4.934 2.9-1.184m-7 7.993 4-3.553m3 6.119c1.7-2.96 5-6.119 7.9-7.895m-10.7 6.217c2.4-2.862 9.1-7.598 11.3-7.993m-5.4-2.665c2.8-1.184 6.8-1.381 10-1.677m-5.5-.888c.4 0 5.2-.593 7.3-.494m-14.5 7.698c3.6-2.172 7.4-3.948 11.5-5.23" style="fill:none;stroke-width:.3;stroke-linecap:round;stroke-linejoin:round;stroke:#000;stroke-opacity:1;stroke-miterlimit:4" transform="scale(.03906 .03958)"/><path d="M168.2 191.151c.3.198.6.888.6.888s-.6.297-.8.198l-29.5-8.882c-.8-.197-.5-1.579.4-1.283Zm-28-40.954c-.3-.69-.7-1.184-1.2-1.283-.2 0-.9.691-.8.889 0 .394.9.986 1.2.986Zm2.7.987-2.5 2.467c-.3.395.3.888.6.592l2.5-2.467c.3-.296-.3-.888-.6-.592m-1.2 2.369 7.7 7.993 1.5.197-.2-1.677-8-7.599Zm0 0" style="fill-rule:nonzero;fill:#fff;fill-opacity:1;stroke-width:.4;stroke-linecap:round;stroke-linejoin:round;stroke:#000;stroke-opacity:1;stroke-miterlimit:4" transform="scale(.03906 .03958)"/><path d="m149.8 160.56-7.6-7.6" style="fill:none;stroke-width:.1;stroke-linecap:round;stroke-linejoin:round;stroke:#000;stroke-opacity:1;stroke-miterlimit:4" transform="scale(.03906 .03958)"/><path d="M160 138.553c0-.395.2-.79.5-.987.5-.296.3-.099.6 0l.8.493c.2.198.3.198.4 0 0-.197.1-.493.3-.79l.2-.197c.2 0 .3-.098.2-.296s0-.296.3-.394c.2 0 .6.296.6 0l.3-1.58c.6.1.4-.591.6-.591.6.197.9-.79.5-1.185.1-.79.6-1.085 1.7-.987-.1-.493-.9-.69-1.4-1.48-.5-.69-2-1.579-3.8-1.579s-3.1 1.58-3.8 2.369c-.7.69-2 .987-2.3.987-.3-.198-.7-.395-1-.395H153c-.6 0-.8.395-1.5.296-.4 0-2 0-2.5.197-.5.198 0 1.184.5 1.283.2 0 1.5 0 2 .296s2 .395 2.6.099c1.3-.395 2.1.395 3.5.79l.5.098c.1.79-.1 1.184-.4 1.086h-1.2l-1.3-.593c-.6 0-1 .1-1.2.198-1.7.69-7.7 5.427-8.3 6.513-.7 1.184-1.7 1.875-2.6 3.651-.5 1.086-1.5 2.27-2.1 3.849-1 .493-2.1 1.382-2.3 1.678 0 .296.1.493.4.592 0 .197.2.394.6.493-.1.296.1.395.4.395 0 .395.2.592.5.69l2.4-2.466c.1-1.086.5-2.073 1-2.764 1.3-1.579 2.4-3.256 3.4-4.934.3-.395 3.2-1.48 4-2.17-.3 1.48-.3 3.058 0 4.539.5 2.072 1.1 3.355 1.5 5.032s0 2.665 0 3.553c0 .395.3.79 1 .987.5.395 2.9 0 3.6.296 1.5.296 2.5.493 3.1.592 1.2-.296 2.4 0 3.5.592.6.494 1.7 2.96 2.1 3.948.4 1.085 2.6 2.17 3 2.763.5.493.9 1.973.8 2.664s.1.987.7.79c.5 0 2.5.296 2.8.493.4.197 1.2.888 1.5.888s1.7.198 2.4.099.6-1.086.3-1.184l-2-.395c-1-.493-2-1.184-2.7-2.072-.5-.79-1-1.678-1.3-2.467l-3.1-4.54-1.6-3.75c-.3-.79-.8-.79-1.3-.987-1.8-.493-2.5-.69-4.4-.987-1.3-.296-1.6-.394-1.8-1.381 0-.79-.6-2.171-.3-3.158l.4-1.875c0-.494.4-1.283.4-1.678l.2-2.96Zm1.4 8.29c-.2 0-1 .196-1.5 0-.1 0 0-.396 0-.396s-.2-.394 0-.493c-.1-.099-.1-.197 0-.395-.2-.197-.2-.296 0-.493l1.4-.099c.3.592.3 1.184.1 1.875" style="fill-rule:nonzero;fill:#fff;fill-opacity:1;stroke-width:.5;stroke-linecap:round;stroke-linejoin:round;stroke:#000;stroke-opacity:1;stroke-miterlimit:4" transform="scale(.03906 .03958)"/><path d="M158.1 135.099c.4.296.4 0 1.1-.198.7-.197 1.3.395 1 .987q-.45 1.036.6 1.184c1 .198 1-.69 1.2-.986l.7-.691c.2-.79 1-.592 1.5-.494m1-1.875c-.3.198-1.2-.493-1.4-1.085q-.3-1.333-1.8-1.48c-1.5-.1-3 .592-3.3 1.776l-.3 1.677c-.4 0-.6.1-.7.198l-.1.79m-6.3 6.315 2-.987" style="fill:none;stroke-width:.5;stroke-linecap:round;stroke-linejoin:round;stroke:#000;stroke-opacity:1;stroke-miterlimit:4" transform="scale(.03906 .03958)"/><path d="M153.4 140.329c.5 1.283 1 2.566 1.7 2.96m1.1.494c.8.395 1.6.493 2.5.197m-5.1 9.474c2.1 0 3 1.085 4.7 1.678 1.8.493 4.2.197 6.5 1.282m-11.9-9.67c.7.394 1.3.592 2 .592m.9 0c1.2.197 2 .69 2.3 1.381m-2.8 1.086c1 .986 3 1.776 4.2 1.776" style="fill:none;stroke-width:.3;stroke-linecap:round;stroke-linejoin:round;stroke:#000;stroke-opacity:1;stroke-miterlimit:4" transform="scale(.03906 .03958)"/><path d="M157 135.987c.9 3.256 1 4.44 3.2 5.033m-4.1-5.132c1 3.158 2 4.836 4.1 5.033m-5-5.428c1 3.06 2.4 5.33 5 5.428m11.6 24.77c-.4-.296-.7-.691-1-1.283l-.7-1.58-.5.297c-.4 0-.5-.197-.2-.395l.4-.197-.6-1.184c-.2 0-.1-.198.2-.395s.5-.197.4 0l.6 1.283.4-.198c.3-.197.5.297.2.395l-.5.198.8 1.579c.4.69.5.888.5 1.48m-.1-3.355-2.4 1.282m-2.2-1.776 3.2-1.678m-3.7.987 3.3-1.579" style="fill:none;stroke-width:.2;stroke-linecap:round;stroke-linejoin:round;stroke:#000;stroke-opacity:1;stroke-miterlimit:4" transform="scale(.03906 .03958)"/><path d="m140.1 152.96 1.1-.986m-1.5.493 1-.987m-1.6.494 1.1-.987m19.8-4.54h1m-1.1-.888h1m-1 .395h1m1.3-9.178.6.296" style="fill:none;stroke-width:.1;stroke-linecap:round;stroke-linejoin:round;stroke:#000;stroke-opacity:1;stroke-miterlimit:4" transform="scale(.03906 .03958)"/></svg>