<svg xmlns="http://www.w3.org/2000/svg" width="25" height="px" viewBox="0 0 25 19"><path d="M0 0h25v19H0z" style="fill:#d21034;fill-opacity:1;stroke:none"/><path d="M4.688 4.75h15.625v9.5H4.688Zm0 0" style="stroke:none;fill-rule:nonzero;fill:#007e3a;fill-opacity:1"/><path d="M16.797 9.5c0-1.75-1.399-3.168-3.125-3.168-1.727 0-3.125 1.418-3.125 3.168s1.398 3.168 3.125 3.168c1.726 0 3.125-1.418 3.125-3.168m0 0" style="stroke:none;fill-rule:nonzero;fill:#fff;fill-opacity:1"/><path d="M17.969 9.5c0-1.75-1.399-3.168-3.125-3.168-1.727 0-3.125 1.418-3.125 3.168s1.398 3.168 3.125 3.168c1.726 0 3.125-1.418 3.125-3.168m0 0" style="stroke:none;fill-rule:nonzero;fill:#007e3a;fill-opacity:1"/></svg>