<?xml version="1.0" encoding="UTF-8"?>
<svg xmlns="http://www.w3.org/2000/svg" xmlns:xlink="http://www.w3.org/1999/xlink" width="25px" height="px" viewBox="0 0 25 19" version="1.1">
<g id="surface1">
<rect x="0" y="0" width="25" height="19" style="fill:rgb(95.686275%,7.843138%,3.137255%);fill-opacity:1;stroke:none;"/>
<path style=" stroke:none;fill-rule:evenodd;fill:rgb(12.941177%,52.941179%,23.137255%);fill-opacity:1;" d="M 0 12.667969 L 25 12.667969 L 25 19 L 0 19 Z M 0 12.667969 "/>
<path style=" stroke:none;fill-rule:evenodd;fill:rgb(0%,0%,0.392157%);fill-opacity:1;" d="M 0 0 L 25 0 L 25 6.332031 L 0 6.332031 Z M 0 0 "/>
<path style=" stroke:none;fill-rule:evenodd;fill:rgb(95.294118%,8.235294%,3.529412%);fill-opacity:1;" d="M 8.613281 5.582031 C 9.484375 3.632812 11.914062 2.699219 14.035156 3.503906 C 15.042969 3.847656 15.863281 4.601562 16.300781 5.582031 Z M 7.597656 5.835938 C 6.910156 5.785156 6.222656 5.683594 5.550781 5.527344 C 5.390625 5.472656 5.382812 5.382812 5.402344 5.316406 C 5.421875 5.25 5.523438 5.171875 5.644531 5.199219 C 5.863281 5.253906 6.769531 5.472656 7.597656 5.835938 M 12.464844 2.433594 C 12.300781 1.601562 12.261719 0.691406 12.277344 0.535156 C 12.292969 0.378906 12.382812 0.355469 12.460938 0.355469 C 12.539062 0.355469 12.644531 0.425781 12.644531 0.542969 C 12.644531 0.753906 12.640625 1.609375 12.464844 2.441406 Z M 12.917969 2.453125 C 12.851562 1.820312 12.847656 1.179688 12.90625 0.546875 C 12.9375 0.390625 13.03125 0.371094 13.105469 0.378906 C 13.183594 0.382812 13.28125 0.464844 13.269531 0.578125 C 13.25 0.789062 13.167969 1.644531 12.917969 2.453125 M 13.324219 2.503906 C 13.316406 1.664062 13.441406 0.753906 13.484375 0.605469 C 13.527344 0.453125 13.625 0.4375 13.699219 0.453125 C 13.777344 0.464844 13.867188 0.550781 13.847656 0.660156 C 13.808594 0.871094 13.644531 1.714844 13.324219 2.503906 M 13.753906 2.59375 C 13.824219 1.753906 14.039062 0.859375 14.097656 0.710938 C 14.15625 0.566406 14.253906 0.5625 14.324219 0.578125 C 14.402344 0.597656 14.480469 0.6875 14.453125 0.800781 C 14.390625 1 14.152344 1.828125 13.757812 2.59375 Z M 14.179688 2.71875 C 14.332031 1.886719 14.628906 1.011719 14.699219 0.871094 C 14.773438 0.730469 14.867188 0.730469 14.941406 0.757812 C 15.011719 0.78125 15.085938 0.882812 15.046875 0.984375 C 14.8125 1.589844 14.519531 2.171875 14.179688 2.71875 M 14.574219 2.871094 C 14.800781 2.050781 15.179688 1.207031 15.265625 1.070312 C 15.351562 0.933594 15.445312 0.945312 15.515625 0.976562 C 15.585938 1.003906 15.648438 1.113281 15.597656 1.214844 C 15.5 1.40625 15.109375 2.179688 14.574219 2.871094 M 14.964844 3.054688 C 15.195312 2.449219 15.484375 1.867188 15.824219 1.316406 C 15.917969 1.191406 16.015625 1.210938 16.082031 1.246094 C 16.121094 1.269531 16.148438 1.308594 16.160156 1.355469 C 16.171875 1.402344 16.164062 1.449219 16.140625 1.488281 C 16.023438 1.671875 15.558594 2.414062 14.964844 3.054688 M 15.332031 3.273438 C 15.710938 2.503906 16.242188 1.730469 16.351562 1.609375 C 16.460938 1.492188 16.554688 1.519531 16.617188 1.558594 C 16.65625 1.585938 16.679688 1.628906 16.6875 1.675781 C 16.695312 1.71875 16.683594 1.765625 16.65625 1.804688 C 16.519531 1.980469 15.984375 2.679688 15.328125 3.269531 Z M 15.675781 3.519531 C 16.128906 2.78125 16.730469 2.054688 16.851562 1.949219 C 16.96875 1.835938 17.0625 1.867188 17.121094 1.914062 C 17.15625 1.945312 17.175781 1.988281 17.179688 2.035156 C 17.179688 2.082031 17.164062 2.128906 17.132812 2.160156 C 16.984375 2.324219 16.386719 2.980469 15.675781 3.519531 M 16 3.792969 C 16.394531 3.261719 16.839844 2.769531 17.320312 2.320312 C 17.449219 2.21875 17.535156 2.261719 17.589844 2.308594 C 17.621094 2.339844 17.640625 2.386719 17.636719 2.433594 C 17.636719 2.480469 17.613281 2.527344 17.578125 2.558594 C 17.417969 2.707031 16.757812 3.3125 16 3.792969 M 16.296875 4.089844 C 16.738281 3.59375 17.226562 3.136719 17.75 2.730469 C 17.890625 2.640625 17.972656 2.6875 18.023438 2.742188 C 18.070312 2.792969 18.082031 2.917969 17.984375 2.988281 C 17.453125 3.402344 16.890625 3.769531 16.296875 4.089844 M 16.550781 4.398438 C 17.039062 3.9375 17.566406 3.519531 18.125 3.152344 C 18.269531 3.070312 18.347656 3.128906 18.390625 3.1875 C 18.4375 3.242188 18.433594 3.363281 18.335938 3.429688 C 18.148438 3.546875 17.386719 4.046875 16.550781 4.398438 M 16.78125 4.726562 C 17.308594 4.308594 17.871094 3.9375 18.460938 3.613281 C 18.617188 3.546875 18.691406 3.605469 18.730469 3.664062 C 18.769531 3.730469 18.753906 3.847656 18.652344 3.902344 C 18.050781 4.230469 17.421875 4.503906 16.777344 4.726562 Z M 16.992188 5.105469 C 17.5625 4.734375 18.160156 4.410156 18.78125 4.140625 C 18.941406 4.085938 19.007812 4.152344 19.039062 4.214844 C 19.074219 4.277344 19.050781 4.398438 18.9375 4.445312 C 18.730469 4.53125 17.882812 4.894531 16.992188 5.105469 M 17.15625 5.46875 C 17.757812 5.144531 18.386719 4.871094 19.03125 4.648438 C 19.195312 4.609375 19.253906 4.679688 19.28125 4.746094 C 19.304688 4.808594 19.269531 4.929688 19.15625 4.964844 C 18.941406 5.039062 18.0625 5.332031 17.15625 5.46875 M 17.289062 5.859375 C 17.917969 5.582031 18.570312 5.359375 19.234375 5.1875 C 19.398438 5.164062 19.453125 5.238281 19.472656 5.308594 C 19.492188 5.375 19.445312 5.484375 19.328125 5.519531 C 19.105469 5.570312 18.203125 5.796875 17.289062 5.859375 M 12.023438 2.453125 C 11.839844 1.84375 11.710938 1.214844 11.644531 0.578125 C 11.644531 0.421875 11.734375 0.386719 11.808594 0.378906 C 11.886719 0.375 12.003906 0.4375 12.011719 0.550781 C 12.03125 0.761719 12.113281 1.613281 12.027344 2.453125 Z M 11.59375 2.503906 C 11.347656 1.914062 11.164062 1.296875 11.035156 0.667969 C 11.019531 0.511719 11.105469 0.472656 11.179688 0.460938 C 11.253906 0.449219 11.375 0.5 11.398438 0.609375 C 11.519531 1.234375 11.585938 1.867188 11.59375 2.503906 M 11.164062 2.59375 C 10.863281 2.019531 10.617188 1.421875 10.429688 0.804688 C 10.398438 0.648438 10.480469 0.601562 10.554688 0.582031 C 10.628906 0.5625 10.75 0.605469 10.785156 0.714844 C 10.84375 0.917969 11.085938 1.746094 11.160156 2.589844 Z M 10.753906 2.710938 C 10.40625 2.167969 10.105469 1.589844 9.863281 0.988281 C 9.820312 0.839844 9.894531 0.785156 9.964844 0.761719 C 10.035156 0.734375 10.164062 0.769531 10.207031 0.871094 C 10.285156 1.070312 10.605469 1.875 10.753906 2.707031 Z M 10.359375 2.851562 C 9.957031 2.335938 9.605469 1.785156 9.304688 1.207031 C 9.25 1.0625 9.320312 0.996094 9.390625 0.96875 C 9.460938 0.941406 9.585938 0.960938 9.640625 1.066406 C 9.738281 1.253906 10.128906 2.035156 10.359375 2.851562 M 9.957031 3.046875 C 9.507812 2.570312 9.101562 2.050781 8.746094 1.496094 C 8.679688 1.359375 8.742188 1.289062 8.808594 1.253906 C 8.875 1.21875 9.003906 1.230469 9.066406 1.328125 C 9.183594 1.511719 9.652344 2.253906 9.957031 3.046875 M 9.589844 3.261719 C 9.097656 2.820312 8.648438 2.332031 8.242188 1.808594 C 8.160156 1.675781 8.214844 1.601562 8.28125 1.558594 C 8.339844 1.519531 8.476562 1.519531 8.542969 1.613281 C 8.675781 1.785156 9.210938 2.484375 9.589844 3.257812 Z M 9.25 3.5 C 8.71875 3.097656 8.222656 2.648438 7.769531 2.15625 C 7.675781 2.03125 7.726562 1.960938 7.785156 1.910156 C 7.871094 1.859375 7.980469 1.871094 8.050781 1.945312 C 8.199219 2.101562 8.800781 2.761719 9.25 3.5 M 8.917969 3.777344 C 8.351562 3.417969 7.816406 3.011719 7.316406 2.5625 C 7.207031 2.441406 7.25 2.363281 7.304688 2.3125 C 7.386719 2.25 7.5 2.253906 7.574219 2.324219 C 7.738281 2.46875 8.394531 3.074219 8.917969 3.773438 Z M 8.628906 4.054688 C 8.03125 3.742188 7.460938 3.378906 6.921875 2.96875 C 6.804688 2.859375 6.839844 2.777344 6.890625 2.722656 C 6.9375 2.667969 7.066406 2.640625 7.160156 2.710938 C 7.6875 3.117188 8.179688 3.566406 8.628906 4.058594 Z M 8.355469 4.378906 C 7.730469 4.113281 7.125 3.800781 6.550781 3.4375 C 6.421875 3.335938 6.449219 3.25 6.492188 3.195312 C 6.535156 3.136719 6.660156 3.09375 6.761719 3.160156 C 6.949219 3.28125 7.710938 3.773438 8.355469 4.378906 M 8.109375 4.726562 C 7.242188 4.449219 6.355469 4.03125 6.21875 3.9375 C 6.078125 3.851562 6.101562 3.765625 6.136719 3.699219 C 6.171875 3.636719 6.292969 3.589844 6.402344 3.644531 C 6.597656 3.753906 7.410156 4.179688 8.109375 4.726562 M 7.902344 5.082031 C 7.011719 4.871094 6.09375 4.527344 5.945312 4.449219 C 5.800781 4.371094 5.808594 4.28125 5.84375 4.21875 C 5.878906 4.15625 5.988281 4.097656 6.101562 4.140625 C 6.308594 4.230469 7.15625 4.589844 7.902344 5.082031 M 7.738281 5.4375 C 7.058594 5.332031 6.386719 5.171875 5.730469 4.957031 C 5.574219 4.890625 5.582031 4.800781 5.605469 4.738281 C 5.632812 4.671875 5.742188 4.605469 5.855469 4.640625 C 6.074219 4.714844 6.949219 5.007812 7.738281 5.4375 "/>
<path style=" stroke:none;fill-rule:evenodd;fill:rgb(95.294118%,8.235294%,3.529412%);fill-opacity:1;" d="M 7.597656 5.835938 C 6.910156 5.785156 6.222656 5.683594 5.550781 5.527344 C 5.390625 5.472656 5.382812 5.382812 5.402344 5.316406 C 5.421875 5.25 5.523438 5.171875 5.644531 5.199219 C 5.863281 5.253906 6.769531 5.472656 7.597656 5.835938 "/>
<path style=" stroke:none;fill-rule:evenodd;fill:rgb(0%,0%,0%);fill-opacity:1;" d="M 5.054688 5.601562 L 19.945312 5.601562 L 19.945312 6.101562 L 5.054688 6.101562 Z M 5.054688 5.601562 "/>
</g>
</svg>
