<svg xmlns="http://www.w3.org/2000/svg" width="25" height="px" viewBox="0 0 25 19"><path d="M0 0h25v19H0z" style="fill:#f41408;fill-opacity:1;stroke:none"/><path d="M0 12.668h25V19H0Zm0 0" style="stroke:none;fill-rule:evenodd;fill:#21873b;fill-opacity:1"/><path d="M0 0h25v6.332H0Zm0 0" style="stroke:none;fill-rule:evenodd;fill:#000001;fill-opacity:1"/><path d="M8.613 5.582c.871-1.95 3.301-2.883 5.422-2.078a3.85 3.85 0 0 1 2.266 2.078Zm-1.015.254a13.4 13.4 0 0 1-2.047-.309c-.16-.054-.168-.144-.149-.21.02-.067.121-.145.243-.118.218.055 1.125.274 1.953.637m4.867-3.402C12.3 1.602 12.262.69 12.277.535s.106-.18.184-.18.184.07.184.188c0 .21-.004 1.066-.18 1.898Zm.453.02a9.7 9.7 0 0 1-.012-1.907c.031-.156.125-.176.2-.168a.185.185 0 0 1 .164.2c-.02.21-.102 1.066-.352 1.874m.406.05c-.008-.839.117-1.75.16-1.898.043-.152.141-.167.215-.152.078.012.168.098.149.207-.04.211-.203 1.055-.524 1.844m.43.09c.07-.84.285-1.735.344-1.883.058-.145.156-.148.226-.133.078.02.156.11.13.223-.063.199-.302 1.027-.696 1.793Zm.426.125c.152-.832.449-1.707.52-1.848.073-.14.167-.14.241-.113.07.023.145.125.106.226a10.4 10.4 0 0 1-.867 1.735m.394.152c.227-.82.606-1.664.692-1.8s.18-.126.25-.094c.07.027.132.136.082.238-.098.191-.489.965-1.024 1.656m.39.184q.348-.91.86-1.739c.094-.125.192-.105.258-.07q.06.038.078.11a.17.17 0 0 1-.02.132c-.117.184-.581.926-1.175 1.567m.367.218c.379-.77.91-1.543 1.02-1.664.109-.117.203-.09.265-.05.04.027.063.07.07.117a.17.17 0 0 1-.03.129c-.137.175-.673.875-1.329 1.465Zm.344.247c.453-.739 1.054-1.465 1.176-1.57.117-.114.21-.083.27-.036a.18.18 0 0 1 .058.121.18.18 0 0 1-.047.125c-.149.164-.746.82-1.457 1.36m.324.273c.395-.531.84-1.023 1.32-1.473.13-.101.215-.058.27-.011.031.03.05.078.047.125a.17.17 0 0 1-.059.125c-.16.148-.82.753-1.578 1.234m.297.297c.441-.496.93-.953 1.453-1.36.14-.09.223-.042.273.012.047.051.059.176-.039.246q-.796.621-1.687 1.102m.254.308c.488-.46 1.015-.878 1.574-1.246.145-.082.223-.023.266.035.047.055.043.176-.055.243-.188.117-.95.617-1.785.968m.23.329q.793-.628 1.68-1.114c.156-.066.23-.008.27.051.039.066.023.184-.079.238-.601.328-1.23.602-1.875.825Zm.211.378c.57-.37 1.168-.695 1.79-.964.16-.055.226.011.257.074.035.062.012.183-.102.23-.207.086-1.054.45-1.945.66m.164.364c.602-.324 1.23-.598 1.875-.82.164-.04.223.03.25.097.024.063-.011.184-.125.219a12.3 12.3 0 0 1-2 .504m.133.39c.629-.277 1.281-.5 1.945-.671.164-.024.22.05.239.12.02.067-.028.176-.145.212-.223.05-1.125.277-2.039.34m-5.266-3.407a10 10 0 0 1-.378-1.875c0-.156.09-.191.164-.2.078-.003.195.06.203.173.02.21.101 1.062.015 1.902Zm-.43.05a10 10 0 0 1-.558-1.835c-.015-.156.07-.195.145-.207s.195.039.218.148q.184.938.196 1.895m-.43.09q-.452-.862-.734-1.79c-.032-.156.05-.202.125-.222a.2.2 0 0 1 .23.133c.059.203.3 1.031.375 1.875Zm-.41.117a10.4 10.4 0 0 1-.89-1.723c-.044-.148.03-.203.1-.226.071-.028.2.008.243.11.078.198.398 1.003.547 1.835Zm-.395.14a10.7 10.7 0 0 1-1.054-1.644c-.055-.145.015-.21.086-.238a.21.21 0 0 1 .25.097c.097.188.488.97.718 1.786m-.402.195q-.676-.717-1.21-1.55c-.067-.138-.005-.208.062-.243a.21.21 0 0 1 .257.074c.118.184.586.926.891 1.719m-.367.215c-.492-.442-.942-.93-1.348-1.453-.082-.133-.027-.207.04-.25.058-.04.195-.04.261.054.133.172.668.871 1.047 1.645Zm-.34.238a11 11 0 0 1-1.48-1.344c-.094-.125-.043-.195.015-.246a.214.214 0 0 1 .266.035c.148.157.75.817 1.199 1.555m-.332.277a12 12 0 0 1-1.602-1.215c-.109-.12-.066-.199-.011-.25a.21.21 0 0 1 .27.012c.163.145.82.75 1.343 1.45Zm-.29.278a12 12 0 0 1-1.706-1.086c-.117-.11-.082-.192-.031-.246.046-.055.175-.082.27-.012q.792.609 1.468 1.348Zm-.273.324a12.6 12.6 0 0 1-1.804-.941c-.13-.102-.102-.188-.059-.243.043-.058.168-.101.27-.035.187.121.949.613 1.593 1.219m-.246.348c-.867-.278-1.754-.696-1.89-.79-.14-.085-.117-.171-.082-.238.035-.062.156-.11.265-.054.196.109 1.008.535 1.707 1.082m-.207.355c-.89-.21-1.808-.555-1.957-.633-.144-.078-.136-.168-.101-.23.035-.063.144-.121.258-.078.207.09 1.054.449 1.8.941m-.164.356a13 13 0 0 1-2.008-.481c-.156-.066-.148-.156-.125-.219.028-.066.137-.133.25-.097.22.074 1.094.367 1.883.797" style="stroke:none;fill-rule:evenodd;fill:#f31509;fill-opacity:1"/><path d="M7.598 5.836a13.4 13.4 0 0 1-2.047-.309c-.16-.054-.168-.144-.149-.21.02-.067.121-.145.243-.118.218.055 1.125.274 1.953.637" style="stroke:none;fill-rule:evenodd;fill:#f31509;fill-opacity:1"/><path d="M5.055 5.602h14.89v.5H5.055Zm0 0" style="stroke:none;fill-rule:evenodd;fill:#000;fill-opacity:1"/></svg>