<svg xmlns="http://www.w3.org/2000/svg" width="25" height="px" viewBox="0 0 25 19"><path d="M0 0h25v19H0z" style="fill:#c00;fill-opacity:1;stroke:none"/><path d="M0 0h25v1.36H0Zm0 0" style="stroke:none;fill-rule:nonzero;fill:#c00;fill-opacity:1"/><path d="M0 1.36h25v1.355H0Zm0 0" style="stroke:none;fill-rule:nonzero;fill:#fff;fill-opacity:1"/><path d="M0 2.715h25v1.36H0Zm0 0" style="stroke:none;fill-rule:nonzero;fill:#c00;fill-opacity:1"/><path d="M0 4.074h25v1.348H0Zm0 0" style="stroke:none;fill-rule:nonzero;fill:#fff;fill-opacity:1"/><path d="M0 5.426h25v1.36H0Zm0 0" style="stroke:none;fill-rule:nonzero;fill:#c00;fill-opacity:1"/><path d="M0 6.785h25v1.356H0Zm0 0" style="stroke:none;fill-rule:nonzero;fill:#fff;fill-opacity:1"/><path d="M0 8.14h25V9.5H0Zm0 0" style="stroke:none;fill-rule:nonzero;fill:#c00;fill-opacity:1"/><path d="M0 9.5h25v1.36H0Zm0 0" style="stroke:none;fill-rule:nonzero;fill:#fff;fill-opacity:1"/><path d="M0 10.86h25v1.355H0Zm0 0" style="stroke:none;fill-rule:nonzero;fill:#c00;fill-opacity:1"/><path d="M0 12.215h25v1.36H0Zm0 0" style="stroke:none;fill-rule:nonzero;fill:#fff;fill-opacity:1"/><path d="M0 13.574h25v1.348H0Zm0 0" style="stroke:none;fill-rule:nonzero;fill:#c00;fill-opacity:1"/><path d="M0 14.926h25v1.36H0Zm0 0" style="stroke:none;fill-rule:nonzero;fill:#fff;fill-opacity:1"/><path d="M0 16.285h25v1.356H0Zm0 0" style="stroke:none;fill-rule:nonzero;fill:#c00;fill-opacity:1"/><path d="M0 17.64h25V19H0Zm0 0" style="stroke:none;fill-rule:nonzero;fill:#fff;fill-opacity:1"/><path d="M0 .02h12.5v10.859H0Zm0 0" style="stroke:none;fill-rule:nonzero;fill:#006;fill-opacity:1"/><path d="m8.105 2.922.235 1.61.898-1.344-.484 1.55 1.387-.824-1.098 1.188 1.602-.125-1.497.585 1.497.586-1.602-.128 1.098 1.187-1.387-.82.48 1.554-.898-1.351-.234 1.613-.23-1.613-.9 1.348.485-1.551-1.387.82L7.164 6.02l-1.601.128 1.5-.585-1.497-.586 1.602.125L6.07 3.914l1.387.824-.484-1.554.898 1.347Zm-1.3.066A2.73 2.73 0 0 0 4.16 3.2a2.82 2.82 0 0 0-1.262 2.364A2.82 2.82 0 0 0 4.16 7.926a2.74 2.74 0 0 0 2.645.207 3.09 3.09 0 0 1-3.25.246 3.17 3.17 0 0 1-1.696-2.816c0-1.188.657-2.274 1.7-2.817a3.09 3.09 0 0 1 3.246.242" style="stroke:none;fill-rule:nonzero;fill:#fc0;fill-opacity:1"/></svg>