<svg xmlns="http://www.w3.org/2000/svg" width="25" height="px" viewBox="0 0 25 19"><path d="M0 0h28.125v5.938H0Zm0 0" style="stroke:none;fill-rule:evenodd;fill:#009a00;fill-opacity:1"/><path d="M0 5.938h28.125v.593H0Zm0 0" style="stroke:none;fill-rule:evenodd;fill:#fff;fill-opacity:1"/><path d="M0 6.531h28.125v5.938H0Zm0 0" style="stroke:none;fill-rule:evenodd;fill:#000001;fill-opacity:1"/><path d="M0 12.469h28.125v.594H0Zm0 0" style="stroke:none;fill-rule:evenodd;fill:#fff;fill-opacity:1"/><path d="M0 13.063h28.125V19H0Zm0 0" style="stroke:none;fill-rule:evenodd;fill:#ffca00;fill-opacity:1"/><path d="M0 0v19l12.305-9.5Zm0 0" style="stroke:none;fill-rule:evenodd;fill:red;fill-opacity:1"/><path d="m7.27 12.36-1.875-1.395-1.875 1.394.73-2.238-1.887-1.379 2.325.008.707-2.242.71 2.246 2.325-.012-1.887 1.38Zm0 0" style="stroke:none;fill-rule:evenodd;fill:#ffca00;fill-opacity:1"/><path d="M102.827 290.947h37.013c2.987 3.264 9.493 4.632 15.787 0 11.626-6.42 34.026 0 34.026 0l4.374-4.736-10.774-35.264-3.84-4.105s-8.32-5.053-24-3.368c-15.68 1.684-21.226-.527-21.226-.527s-13.654 1.685-17.6 3.685l-4.374 4.315Zm0 0" style="fill-rule:evenodd;fill:#fff;fill-opacity:1;stroke-width:1.1;stroke-linecap:round;stroke-linejoin:round;stroke:#000;stroke-opacity:1;stroke-miterlimit:4" transform="scale(.03662 .0371)"/><path d="M110.293 281.79s35.2-4.422 45.44 9.157c-5.76 4-10.88 4.21-16.213.21.747-1.473 12.587-13.789 42.667-9.683" style="fill:none;stroke-width:1.1;stroke-linecap:round;stroke-linejoin:round;stroke:#000;stroke-opacity:1;stroke-miterlimit:4" transform="scale(.03662 .0371)"/><path d="m148.053 246.632-.32 38.736m31.68-38.315L186.027 278" style="fill:none;stroke-width:1.2;stroke-linecap:butt;stroke-linejoin:miter;stroke:#000;stroke-opacity:1;stroke-miterlimit:4" transform="scale(.03662 .0371)"/><path d="m117.013 246.632-3.733 16" style="fill:none;stroke-width:1.1;stroke-linecap:round;stroke-linejoin:round;stroke:#000;stroke-opacity:1;stroke-miterlimit:4" transform="scale(.03662 .0371)"/><path d="m78.933 295.053 8.534 10.21c1.066.632 2.026.632 2.986 0l12.8-15.368 5.334-6.737c.853-1.053 1.173-2 1.066-2.947L120 270.947l2.24.106c-1.067-.106-1.707-.632-1.067-1.79l2.454-1.79 1.813 2.316s-2.667 3.369-2.987 3.369h-2.773l-5.333 4.947 2.346 2 3.52 9.79 4.374-3.053-2.774-10 6.08-6.737-2.24-3.579 1.6-2s21.227 13.369 29.547 9.79c.213 0 .533-9.58.533-9.58s-22.186-2.315-22.72-6.736 5.014-5.053 5.014-5.053l-2.454-3.158.534-1.789 3.946 4.842 8.64-7.474L201.813 304c2.774-1.053 3.414-1.79 3.627-4.632l-50.453-57.894 3.84-4.106c.746-.842.96-1.157.96-2.526l5.973-5.158c1.6.527 2.987 1.58 3.84 3.053l16.427-13.79c.426.421 1.706.842 2.56.421l26.88-25.894-29.227 20.737-1.067-.737c0-.842 1.067-.948 0-2.527-1.173-1.473-2.88 1.264-3.093 1.264s-4.267-1.369-5.227-3.158l-.106 4.631-7.574 7.053-5.653-.316-8.213 8-.96 2.947 1.28 2.737s-4.374 3.79-4.374 3.58c0-.317-.96-1.159-1.066-1.264l3.84-3.474.426-2.21-1.173-2c-.427.21-5.227 5.368-5.44 4.737L133.76 218l.853-2.947-8.746-9.474c-3.2-1.053-8.214-1.263-9.28 5.684-.747 1.684-7.36.21-7.36.21l-3.627.843-20.373 28.737 11.306 13.579 23.147-29.369.747-8.316 4.8 5.474c1.6.316 3.2.105 4.693-.526l13.653 15.263-2.24 2.316 1.92 2.21 2.454-1.579.853 1.263c-1.067.737-2.027 1.369-3.093 2.106-1.814-1.158-3.52-2.632-3.52-4.948l-7.68 6.421-.214 1.158-22.933 18.948-2.027.315-.533 6 14.933-12.315v-1.895l1.494 1.368 11.626-9.368s.747 1.053.534 1.053c-.32 0-10.347 9.263-10.347 9.263l-.213 1.052-1.814 1.58-.96-.843-13.973 12.421h-2.027l-7.68 7.684c-2.026.21-3.733.421-5.44 1.58Zm0 0" style="fill-rule:evenodd;fill:#000;fill-opacity:1;stroke-width:1.1;stroke-linecap:round;stroke-linejoin:round;stroke:#000;stroke-opacity:1;stroke-miterlimit:4" transform="scale(.03662 .0371)"/></svg>