<svg xmlns="http://www.w3.org/2000/svg" width="25" height="px" viewBox="0 0 25 19"><path d="M0 0h25v19H0z" style="fill:#009543;fill-opacity:1;stroke:none"/><path d="M0 0h25v12.668H0Zm0 0" style="stroke:none;fill-rule:nonzero;fill:#ed4135;fill-opacity:1"/><path d="M0 0h25v6.332H0Zm0 0" style="stroke:none;fill-rule:nonzero;fill:#0035ad;fill-opacity:1"/><path d="M397.3 240c0-86.842-70.4-157.303-157.3-157.303S82.7 153.157 82.7 240c0 86.842 70.4 157.303 157.3 157.303S397.3 326.843 397.3 240Zm0 0" style="fill-rule:nonzero;fill:#fae600;fill-opacity:1;stroke-width:5.3;stroke-linecap:butt;stroke-linejoin:miter;stroke:#000;stroke-opacity:1;stroke-miterlimit:4" transform="scale(.03906 .03958)"/><path d="M213.3 263.487h53.3m-53.3-39.474h53.3M240 83.191v268.816" style="fill-rule:nonzero;fill:#000;fill-opacity:1;stroke-width:6.4;stroke-linecap:butt;stroke-linejoin:miter;stroke:#000;stroke-opacity:1;stroke-miterlimit:4" transform="scale(.03906 .03958)"/><path d="M6.898 15.215c2.508 1.043 4.86.066 4.86.066s-.887-.972-1.34-1.351c-.445-.371-1.75-.356-2.195 0q-.692.61-1.325 1.285M10.063 12.371c0-.562-.31-1.016-.688-1.016-.379 0-.687.454-.687 1.016 0 .559.308 1.012.687 1.012s.688-.453.688-1.012M10.207 9.645c0-.293-.371-.532-.832-.532s-.832.239-.832.532c0 .296.371.535.832.535s.832-.239.832-.535M10.207 7.176a.84.84 0 0 0-.832-.844.84.84 0 0 0-.832.844c0 .465.371.844.832.844s.832-.38.832-.844m0 0" style="stroke:none;fill-rule:nonzero;fill:#000001;fill-opacity:1"/><path d="M10.375 4.035s.07.117-.078.395C9.57 5.754 8.84 5.78 8.703 5.898c-.156.125-.219.118-.219.118.012-.114.02-.578.028-.621.113-.622 1.035-.614 1.758-1.247.113-.097.105-.117.105-.117ZM7.938 6.883s.167.476.187.949c.04.762.758.781 1.25.781v-.422c-.371 0-.691-.058-.957-.609a5 5 0 0 0-.48-.7m-.02 6.122s.262-.328.57-1.098c.157-.398.54-.633.887-.633v-.593c-.793 0-1.172.297-1.21.734q-.078.803-.247 1.59" style="stroke:none;fill-rule:nonzero;fill:#000001;fill-opacity:1"/><path d="M10.813 6.883s-.168.476-.188.949c-.04.762-.758.781-1.25.781v-.418c.371 0 .691-.058.957-.613q.21-.37.48-.7m.02 6.126s-.262-.332-.57-1.102c-.157-.398-.54-.633-.887-.633v-.585c.793 0 1.172.296 1.21.734q.078.801.247 1.586" style="stroke:none;fill-rule:nonzero;fill:#000;fill-opacity:1"/></svg>