<?xml version="1.0" encoding="UTF-8"?>
<svg xmlns="http://www.w3.org/2000/svg" xmlns:xlink="http://www.w3.org/1999/xlink" width="25px" height="px" viewBox="0 0 25 19" version="1.1">
<g id="surface1">
<rect x="0" y="0" width="25" height="19" style="fill:rgb(0%,58.431375%,26.274511%);fill-opacity:1;stroke:none;"/>
<path style=" stroke:none;fill-rule:nonzero;fill:rgb(92.941177%,25.490198%,20.784314%);fill-opacity:1;" d="M 0 0 L 25 0 L 25 12.667969 L 0 12.667969 Z M 0 0 "/>
<path style=" stroke:none;fill-rule:nonzero;fill:rgb(0%,20.784314%,67.843139%);fill-opacity:1;" d="M 0 0 L 25 0 L 25 6.332031 L 0 6.332031 Z M 0 0 "/>
<path style="fill-rule:nonzero;fill:rgb(98.039216%,90.196079%,0%);fill-opacity:1;stroke-width:5.3;stroke-linecap:butt;stroke-linejoin:miter;stroke:rgb(0%,0%,0%);stroke-opacity:1;stroke-miterlimit:4;" d="M 397.3 240 C 397.3 153.157895 326.9 82.697368 240 82.697368 C 153.1 82.697368 82.7 153.157895 82.7 240 C 82.7 326.842105 153.1 397.302632 240 397.302632 C 326.9 397.302632 397.3 326.842105 397.3 240 Z M 397.3 240 " transform="matrix(0.0390625,0,0,0.0395833,0,0)"/>
<path style="fill-rule:nonzero;fill:rgb(0%,0%,0%);fill-opacity:1;stroke-width:6.4;stroke-linecap:butt;stroke-linejoin:miter;stroke:rgb(0%,0%,0%);stroke-opacity:1;stroke-miterlimit:4;" d="M 213.3 263.486842 L 266.6 263.486842 M 213.3 224.013158 L 266.6 224.013158 M 240 83.190789 L 240 352.006579 " transform="matrix(0.0390625,0,0,0.0395833,0,0)"/>
<path style=" stroke:none;fill-rule:nonzero;fill:rgb(0%,0%,0.392157%);fill-opacity:1;" d="M 6.898438 15.214844 C 9.40625 16.257812 11.757812 15.28125 11.757812 15.28125 C 11.757812 15.28125 10.871094 14.308594 10.417969 13.929688 C 9.972656 13.558594 8.667969 13.574219 8.222656 13.929688 C 7.761719 14.335938 7.320312 14.765625 6.898438 15.214844 "/>
<path style=" stroke:none;fill-rule:nonzero;fill:rgb(0%,0%,0.392157%);fill-opacity:1;" d="M 10.0625 12.371094 C 10.0625 11.808594 9.753906 11.355469 9.375 11.355469 C 8.996094 11.355469 8.6875 11.808594 8.6875 12.371094 C 8.6875 12.929688 8.996094 13.382812 9.375 13.382812 C 9.753906 13.382812 10.0625 12.929688 10.0625 12.371094 Z M 10.0625 12.371094 "/>
<path style=" stroke:none;fill-rule:nonzero;fill:rgb(0%,0%,0.392157%);fill-opacity:1;" d="M 10.207031 9.644531 C 10.207031 9.351562 9.835938 9.113281 9.375 9.113281 C 8.914062 9.113281 8.542969 9.351562 8.542969 9.644531 C 8.542969 9.941406 8.914062 10.179688 9.375 10.179688 C 9.835938 10.179688 10.207031 9.941406 10.207031 9.644531 Z M 10.207031 9.644531 "/>
<path style=" stroke:none;fill-rule:nonzero;fill:rgb(0%,0%,0.392157%);fill-opacity:1;" d="M 10.207031 7.175781 C 10.207031 6.710938 9.835938 6.332031 9.375 6.332031 C 8.914062 6.332031 8.542969 6.710938 8.542969 7.175781 C 8.542969 7.640625 8.914062 8.019531 9.375 8.019531 C 9.835938 8.019531 10.207031 7.640625 10.207031 7.175781 Z M 10.207031 7.175781 "/>
<path style=" stroke:none;fill-rule:nonzero;fill:rgb(0%,0%,0.392157%);fill-opacity:1;" d="M 10.375 4.035156 C 10.375 4.035156 10.445312 4.152344 10.296875 4.429688 C 9.570312 5.753906 8.839844 5.78125 8.703125 5.898438 C 8.546875 6.023438 8.484375 6.015625 8.484375 6.015625 C 8.496094 5.902344 8.503906 5.4375 8.511719 5.394531 C 8.625 4.773438 9.546875 4.78125 10.269531 4.148438 C 10.382812 4.050781 10.375 4.03125 10.375 4.03125 Z M 7.9375 6.882812 C 7.9375 6.882812 8.105469 7.359375 8.125 7.832031 C 8.164062 8.59375 8.882812 8.613281 9.375 8.613281 L 9.375 8.191406 C 9.003906 8.191406 8.683594 8.132812 8.417969 7.582031 C 8.277344 7.335938 8.117188 7.101562 7.9375 6.882812 M 7.917969 13.003906 C 7.917969 13.003906 8.179688 12.675781 8.488281 11.90625 C 8.644531 11.507812 9.027344 11.273438 9.375 11.273438 L 9.375 10.679688 C 8.582031 10.679688 8.203125 10.976562 8.164062 11.414062 C 8.113281 11.949219 8.03125 12.480469 7.917969 13.003906 "/>
<path style=" stroke:none;fill-rule:nonzero;fill:rgb(0%,0%,0%);fill-opacity:1;" d="M 10.8125 6.882812 C 10.8125 6.882812 10.644531 7.359375 10.625 7.832031 C 10.585938 8.59375 9.867188 8.613281 9.375 8.613281 L 9.375 8.195312 C 9.746094 8.195312 10.066406 8.136719 10.332031 7.582031 C 10.472656 7.335938 10.632812 7.101562 10.8125 6.882812 M 10.832031 13.007812 C 10.832031 13.007812 10.570312 12.675781 10.261719 11.90625 C 10.105469 11.507812 9.722656 11.273438 9.375 11.273438 L 9.375 10.6875 C 10.167969 10.6875 10.546875 10.984375 10.585938 11.421875 C 10.636719 11.957031 10.71875 12.484375 10.832031 13.007812 "/>
</g>
</svg>
