<?xml version="1.0" encoding="UTF-8"?>
<svg xmlns="http://www.w3.org/2000/svg" xmlns:xlink="http://www.w3.org/1999/xlink" width="25px" height="px" viewBox="0 0 25 19" version="1.1">
<g id="surface1">
<path style=" stroke:none;fill-rule:evenodd;fill:rgb(100%,100%,100%);fill-opacity:1;" d="M 7.609375 0 L 17.390625 0 L 17.390625 19 L 7.609375 19 Z M 7.609375 0 "/>
<path style=" stroke:none;fill-rule:evenodd;fill:rgb(9.803922%,50.980395%,0%);fill-opacity:1;" d="M 0 0 L 7.609375 0 L 7.609375 19 L 0 19 Z M 17.390625 0 L 25 0 L 25 19 L 17.390625 19 Z M 17.390625 0 "/>
<path style="fill-rule:evenodd;fill:rgb(9.803922%,50.980395%,0%);fill-opacity:1;stroke-width:0.7;stroke-linecap:round;stroke-linejoin:round;stroke:rgb(0%,0%,0%);stroke-opacity:1;stroke-miterlimit:4;" d="M 313.5 351.315789 L 313.5 403.914474 L 334.8 404.111842 C 334.8 404.111842 328 358.322368 331.7 352.105263 C 335.4 346.085526 338.9 346.875 338.9 346.875 C 338.9 346.875 352.8 351.118421 354.3 350.427632 C 355.8 349.835526 354.1 345.197368 361.5 345.789474 C 363.9 344.901316 362.6 340.756579 364.8 340.559211 C 367 340.361842 409.3 352.401316 418.5 340.953947 C 416.1 334.638158 407.8 340.460526 405.6 340.756579 C 403.6 340.756579 395.3 336.809211 390.5 340.756579 C 386.1 337.5 366.1 335.328947 366.1 335.328947 C 363.5 332.664474 413.7 336.611842 416.6 334.638158 C 422.5 328.717105 405.6 329.407895 403 331.282895 C 398.7 328.717105 393.3 328.519737 388.8 330.690789 C 387.1 326.644737 370.8 328.322368 361.8 327.236842 C 358.8 325.460526 359.3 324.473684 361.3 323.388158 C 380.3 324.177632 399.1 326.743421 418.1 325.855263 C 423.2 319.243421 411.6 316.578947 404.5 322.401316 C 400.3 315.394737 391.8 322.105263 386.1 321.414474 C 380.4 320.723684 383.1 313.815789 390.3 314.901316 C 397.5 315.986842 410.4 314.506579 412.8 311.151316 C 415.2 307.894737 411.4 304.539474 399.5 307.697368 C 395.5 303.651316 386.5 307.697368 382.4 308.980263 C 376.8 305.921053 363.9 308.486842 359.6 309.572368 C 355.3 307.006579 382.1 302.565789 382.1 302.565789 C 392.5 302.368421 398.4 300.592105 401.6 299.802632 C 417.3 291.414474 401.4 290.526316 393.2 296.644737 C 388.1 292.598684 383.2 296.940789 378.6 298.421053 C 374.3 299.901316 369.8 300.493421 365.2 300.394737 C 365.2 299.802632 377.8 292.105263 377.8 292.105263 C 377.8 292.105263 393.1 291.019737 396.2 290.625 C 399.2 290.131579 415 282.138158 393.5 287.467105 C 386.1 288.059211 381.7 287.664474 378.8 287.861842 C 362.3 286.184211 380.4 284.605263 380.4 284.605263 C 380.4 284.605263 403.8 282.532895 404.1 281.348684 C 404.5 272.269737 385 276.513158 384.8 276.513158 C 384.8 270 366.6 276.710526 366.6 276.513158 C 363.1 274.539474 368.6 272.368421 368.6 272.368421 C 373.4 271.184211 380.6 270.789474 382.5 269.309211 C 382.5 269.309211 396.1 269.210526 397.7 265.559211 C 394.4 256.282895 368.9 267.236842 365.5 268.815789 C 360.9 268.815789 368.5 261.414474 368.8 261.217105 C 369 260.921053 389.8 260.131579 399.7 246.710526 C 400.4 238.618421 388.1 251.348684 388.1 251.348684 C 387.1 240.690789 374.7 252.039474 367.5 252.828947 C 360.2 253.815789 360 249.473684 365 248.782895 C 370 248.190789 375.8 248.684211 378.6 240.986842 C 381.5 233.289474 390 241.381579 391.6 238.618421 C 393.1 235.657895 388.5 233.289474 388.5 233.289474 C 388.5 233.289474 394.9 226.677632 384.5 226.973684 C 374.3 227.171053 360.9 225.592105 360.9 225.592105 C 360.9 225.592105 371.6 221.546053 381.7 221.644737 C 391.7 221.940789 386.3 214.539474 376.7 214.539474 C 367.1 214.539474 362 211.184211 362 211.184211 L 378.4 204.967105 L 377.4 200.427632 C 377.4 200.427632 387 192.730263 373.4 194.506579 L 358.2 196.480263 L 330.8 200.625 C 330.6 200.625 323.4 198.355263 330.4 196.578947 C 337.4 194.802632 362.2 189.868421 365.9 191.151316 C 369.6 192.532895 365.5 181.973684 352.3 180.690789 C 339.1 179.407895 331 184.046053 331 184.046053 C 331 184.046053 322.5 180.888158 330.4 178.322368 C 338.3 175.559211 350.8 179.210526 350.8 179.210526 C 350.8 179.210526 364.8 174.967105 353.2 173.190789 C 341.6 171.414474 337.9 174.769737 332.6 174.967105 C 330.5 172.302632 350.8 171.710526 352.1 169.539474 C 349.9 165.493421 337.3 169.539474 329.9 169.539474 C 326.9 168.157895 326.6 165.986842 330.2 164.703947 C 337.7 164.407895 344.8 164.802632 352.3 164.506579 C 352.1 160.460526 352.3 155.822368 352.1 151.677632 C 342.5 150 331.3 152.960526 326 152.664474 C 327.4 148.421053 348 147.236842 350.3 145.953947 C 355.1 140.032895 330.2 145.953947 329.9 145.953947 C 325.6 145.361842 325.9 142.598684 328.6 141.019737 C 335 140.328947 349.2 142.006579 348.2 137.565789 C 347.4 133.618421 338.2 135.690789 334.6 136.578947 C 330.8 137.467105 325.3 136.776316 325.3 136.776316 C 323 133.618421 346.8 134.901316 346.6 132.434211 C 346.3 129.572368 331.5 131.644737 326.4 131.842105 C 322.5 129.078947 345.4 127.302632 345.7 127.006579 C 346.6 119.703947 330.4 127.006579 327.3 127.006579 C 324.2 127.006579 325.8 122.368421 325.8 122.368421 C 325.8 122.368421 332.1 119.506579 331.9 119.111842 C 330.3 118.223684 328.5 117.532895 326.7 117.138158 C 326.2 117.138158 326.7 112.105263 326.7 112.105263 C 326.7 112.105263 331.9 108.059211 331.5 106.973684 C 331.1 105.888158 325.3 107.861842 325.3 107.861842 L 325.3 103.519737 C 325.3 103.519737 329.5 103.125 329.9 101.052632 C 330.4 99.078947 324.9 98.881579 324.9 98.881579 L 322.7 75.888158 L 320.7 97.401316 L 313.5 98.388158 C 313.5 98.388158 318.5 101.348684 319.5 104.210526 C 320.3 106.973684 313.3 106.184211 313.3 106.184211 C 313.3 106.184211 319 111.019737 319.4 112.697368 C 319.9 114.473684 311.5 114.868421 311.5 114.868421 C 311.5 114.868421 318.5 119.901316 319 122.763158 C 319.4 125.625 319 127.203947 319 127.203947 C 319 127.203947 307.4 117.138158 300 119.901316 C 296 121.875 308.8 122.861842 317.2 130.164474 C 317.2 131.940789 296.7 125.230263 296 129.375 C 296.4 130.460526 317.9 133.618421 319.4 136.381579 C 311.6 136.677632 295.4 134.703947 296 137.269737 C 294.3 140.328947 311.2 138.552632 318.3 141.019737 C 320.4 143.388158 320.2 145.361842 316.6 145.559211 C 309.7 142.302632 294.5 139.934211 294.4 144.078947 C 294.5 145.065789 310.2 144.473684 315.9 148.223684 C 308.3 150 282.5 144.671053 282.4 147.236842 C 283.1 148.519737 287.2 153.651316 294.2 153.453947 C 301.2 153.256579 317.5 156.315789 318.6 158.486842 C 319.7 160.657895 297.5 153.947368 289.2 157.894737 C 280.8 161.940789 313.1 159.375 318.3 164.210526 C 323.6 169.144737 307.8 163.815789 307.8 163.815789 C 307.8 163.815789 285.8 160.756579 282.6 162.335526 C 279.3 163.815789 275.6 167.269737 275.6 167.269737 C 275.6 167.269737 277.8 171.710526 280 170.822368 C 282.2 169.934211 279.3 173.486842 279.3 173.486842 C 279.3 173.486842 310 180.888158 316.8 187.5 C 323.6 194.111842 277.8 177.236842 277.8 177.236842 C 277.8 177.236842 259.3 184.046053 278.8 184.440789 C 276.6 187.697368 280 189.671053 280 189.671053 C 280 189.671053 312.4 196.480263 315.7 201.710526 C 319 206.940789 293.6 196.677632 287.8 193.815789 C 282.1 190.953947 265.9 195.592105 266.1 196.677632 C 266.4 197.664474 274.1 199.342105 274.2 201.315789 C 274.5 203.289474 264.8 203.881579 264.8 205.657895 C 264.8 207.434211 305.8 216.019737 316.8 225.197368 C 327.8 234.375 284.6 214.243421 284.6 214.243421 C 284.6 214.243421 287 217.5 284.6 218.388158 C 282.1 219.276316 273.6 206.052632 259.6 214.243421 C 257 217.598684 271.8 220.164474 275.6 220.559211 C 274.3 223.914474 273.2 225 278.4 228.256579 C 283.6 231.611842 268.1 223.519737 268.1 223.914474 L 269.2 229.638158 C 264.4 225.592105 258.5 224.506579 253 228.453947 C 253 228.453947 252.8 232.5 258.5 234.868421 C 255.4 241.184211 262 239.210526 272.5 245.230263 C 256.9 241.085526 255.6 248.684211 266.8 250.361842 C 278 252.138158 308.7 253.322368 315.9 262.697368 C 323.1 272.072368 305.6 259.144737 303.6 258.651316 C 303.2 259.046053 302.8 263.585526 302.8 263.585526 C 298.1 260.921053 293.8 258.355263 288.2 257.269737 C 287.7 258.157895 287.9 259.440789 287.4 260.328947 C 282.4 256.578947 277.9 254.111842 270.5 253.717105 L 269.6 257.171053 C 269.6 257.171053 263.5 249.473684 251.4 257.171053 C 244.7 262.105263 276.9 259.046053 282.1 264.671053 C 287.4 270.394737 283.2 271.282895 283.2 271.282895 L 270.1 266.447368 C 270.1 266.447368 254.5 263.585526 250.1 267.138158 C 245.7 270.592105 314.1 279.078947 316.1 288.552632 C 317.5 293.585526 300.1 283.223684 285 278.684211 L 283.2 283.717105 C 283.2 283.717105 277.2 277.697368 270.5 276.710526 C 270.3 276.710526 271.8 282.730263 271.8 282.730263 C 271.8 282.730263 255 274.736842 246.4 278.881579 C 237.8 283.125 276.2 285.296053 279.7 289.243421 C 283.2 293.092105 268.1 286.578947 266.7 289.243421 C 265.5 291.907895 246.8 284.407895 247.1 287.861842 C 247.4 291.414474 249.7 293.388158 249.7 293.388158 C 249.7 293.388158 288.5 297.138158 289.8 301.677632 C 291.1 306.315789 268.3 299.111842 268.3 299.111842 C 268.3 299.111842 266.1 302.368421 267.9 303.947368 C 269.6 305.526316 254.7 295.164474 256.1 301.875 C 251.2 300 238.7 294.078947 240.5 298.717105 C 242.3 303.256579 275.8 309.868421 275.8 309.868421 C 275.8 309.868421 261.1 310.855263 261.8 314.703947 C 242.8 303.157895 243.3 310.460526 243.8 310.657895 C 244.3 310.855263 219.4 304.638158 238.1 314.703947 C 256.8 324.769737 248.1 322.993421 248.4 323.190789 C 248.6 323.388158 250.4 328.223684 249.9 328.223684 C 249.4 328.223684 237.2 321.710526 233 321.217105 C 228.8 320.723684 209.1 326.743421 230.2 336.019737 C 251.3 345.296053 264.2 333.848684 275.8 335.032895 C 287.4 336.414474 292.8 338.388158 291.8 342.039474 C 290.7 345.789474 279.9 329.901316 268.6 343.717105 C 255.6 341.052632 246.9 339.671053 253.6 349.144737 C 232.6 341.151316 219.6 351.513158 246.2 355.657895 C 272.2 356.546053 288.2 349.342105 288.2 349.342105 C 288.2 349.342105 292.7 357.434211 299 351.710526 C 305.3 345.986842 305.6 353.881579 305.8 353.881579 L 312 351.315789 Z M 313.5 351.315789 " transform="matrix(0.0390625,0,0,0.0395833,0,0)"/>
<path style="fill-rule:evenodd;fill:rgb(100%,100%,100%);fill-opacity:1;stroke-width:0.8;stroke-linecap:round;stroke-linejoin:round;stroke:rgb(0%,0%,0%);stroke-opacity:1;stroke-miterlimit:4;" d="M 316 320.230263 L 316 316.480263 C 316 316.480263 307.8 315 303.7 315.789474 C 301.4 314.506579 299.1 312.730263 296.2 314.210526 C 295.7 315.394737 301.5 318.453947 303.4 318.453947 C 307.5 319.736842 311.8 320.328947 316.1 320.230263 Z M 316 326.151316 C 316 326.151316 307.7 323.092105 304.4 326.644737 C 304.9 330.296053 314.1 332.072368 316.1 331.085526 C 318 330.098684 316.1 326.348684 316 326.052632 Z M 330 327.631579 L 330 330.197368 C 330 330.197368 339.8 332.072368 341.6 330 C 343.4 327.927632 333.6 326.546053 329.9 327.631579 Z M 329.5 317.368421 L 329.8 320.328947 C 329.8 320.328947 338.4 322.203947 341.7 317.467105 C 345 312.828947 334.2 317.467105 329.5 317.368421 M 329.9 307.401316 L 329.9 309.375 C 329.9 309.375 336.4 310.361842 337.9 307.598684 C 339.3 304.835526 330.1 307.598684 329.9 307.401316 M 316.5 301.381579 C 315.5 300.098684 312 296.644737 302.7 295.559211 C 296.2 295.559211 314.4 305.131579 316.5 301.480263 Z M 329.7 291.710526 L 329.5 294.375 C 329.5 294.375 351.5 287.763158 356.6 288.256579 C 361.2 286.973684 362.2 283.815789 362 283.815789 C 358 280.855263 339.1 286.085526 329.7 291.710526 M 330.2 283.914474 L 329.9 286.480263 C 329.9 286.480263 345.4 283.519737 349.6 280.460526 C 353.8 277.5 330.4 284.013158 330.2 283.914474 M 329.6 276.315789 L 329.6 278.881579 C 329.6 278.881579 339.9 278.486842 342.1 276.513158 C 343.4 274.440789 332.9 276.217105 329.6 276.315789 M 351.2 298.026316 C 351.2 298.026316 356.6 298.815789 357.6 297.236842 C 357.4 294.375 351.2 298.223684 351.2 298.026316 M 330 266.644737 L 330.1 272.269737 C 330.1 272.269737 355 264.375 356.6 262.993421 C 358.1 261.513158 361.6 256.973684 330 266.644737 M 329.3 258.651316 L 329.3 262.894737 C 329.3 262.894737 339.3 262.105263 343.9 258.355263 C 348.5 254.703947 329.3 258.848684 329.3 258.651316 M 317.3 249.375 L 317.9 253.125 L 285 242.467105 C 285.1 242.467105 283.4 237.138158 317.3 249.375 M 317.8 236.052632 C 317.8 236.546053 317.8 239.703947 317.6 239.605263 C 317.6 239.605263 294.8 230.131579 293.9 230.921053 C 290.9 223.914474 317.9 236.348684 317.9 236.052632 Z M 328.9 242.072368 L 329.3 245.230263 C 329.3 245.230263 343.3 242.269737 344.1 240.888158 C 344.9 239.506579 328.9 242.072368 328.9 241.973684 Z M 329.2 249.473684 C 329.4 250.164474 329.6 252.828947 329.6 252.828947 C 329.6 252.828947 335.2 252.335526 336.1 250.953947 C 336.9 249.671053 329.2 249.473684 329.2 249.473684 M 328.4 232.5 L 328.4 235.460526 C 328.4 235.460526 343.8 232.5 345.4 231.118421 C 347.1 229.638158 328.1 232.5 328.4 232.5 M 328.4 224.013158 C 328.4 224.210526 327.9 227.072368 328.3 227.072368 C 328.7 227.072368 346.9 224.111842 349.8 221.447368 C 352.6 218.881579 328.8 224.309211 328.5 224.013158 Z M 328.2 209.111842 L 328.2 212.368421 C 328.2 212.368421 340 209.901316 342.2 207.434211 C 344.4 204.868421 328.2 209.407895 328.2 209.111842 M 326.2 187.5 L 326.4 192.335526 C 326.4 192.335526 342.4 190.065789 344.6 187.5 C 346.9 184.835526 326.1 187.5 326.2 187.5 M 318.8 150.986842 L 318.8 154.046053 C 318.8 154.046053 311.3 153.651316 313.1 152.368421 C 314.9 151.085526 318.8 151.282895 318.8 150.986842 M 325.8 155.032895 L 326 159.177632 C 326 159.177632 335.7 158.190789 336.4 156.710526 C 337.1 155.230263 326 155.131579 325.8 155.131579 Z M 325.2 160.953947 C 325.2 160.953947 325.4 163.618421 325.6 163.618421 C 325.8 163.618421 329.5 163.322368 330.3 162.335526 C 331.1 161.348684 325.6 161.348684 325.3 160.953947 Z M 317 172.796053 C 317 173.092105 317.3 176.842105 317 176.644737 C 316.7 176.447368 295.8 170.526316 293.8 170.625 C 291.9 170.625 291.4 165.690789 317 172.796053 M 318.7 179.703947 C 318.7 180.394737 319.2 184.342105 318.4 184.144737 C 317.7 183.947368 304.1 179.605263 305.5 178.322368 C 306.9 177.039474 318.7 180 318.7 179.703947 M 317.5 208.717105 L 317.6 212.171053 C 317.6 212.171053 293.9 204.967105 293.1 203.782895 C 292.3 202.598684 290 196.973684 317.5 208.717105 M 318.5 217.203947 L 318.5 220.460526 L 286.3 209.210526 C 286.3 209.210526 283.7 200.822368 318.4 217.203947 Z M 318.5 217.203947 " transform="matrix(0.0390625,0,0,0.0395833,0,0)"/>
<path style="fill-rule:evenodd;fill:rgb(100%,100%,100%);fill-opacity:1;stroke-width:0.8;stroke-linecap:butt;stroke-linejoin:round;stroke:rgb(0%,0%,0%);stroke-opacity:1;stroke-miterlimit:4;" d="M 280.3 328.717105 L 280.1 332.171053 C 280.1 332.171053 273.9 330.394737 271.9 326.940789 C 275.5 325.855263 280.4 328.815789 280.3 328.717105 Z M 280.3 328.717105 " transform="matrix(0.0390625,0,0,0.0395833,0,0)"/>
</g>
</svg>
