<svg xmlns="http://www.w3.org/2000/svg" width="25" height="px" viewBox="0 0 25 19"><path d="M7.61 0h9.78v19H7.61Zm0 0" style="stroke:none;fill-rule:evenodd;fill:#fff;fill-opacity:1"/><path d="M0 0h7.61v19H0Zm17.39 0H25v19h-7.61Zm0 0" style="stroke:none;fill-rule:evenodd;fill:#198200;fill-opacity:1"/><path d="M313.5 351.316v52.598l21.3.198s-6.8-45.79-3.1-52.007c3.7-6.02 7.2-5.23 7.2-5.23s13.9 4.243 15.4 3.553c1.5-.592-.2-5.23 7.2-4.639 2.4-.888 1.1-5.032 3.3-5.23 2.2-.197 44.5 11.842 53.7.395-2.4-6.316-10.7-.493-12.9-.197-2 0-10.3-3.948-15.1 0-4.4-3.257-24.4-5.428-24.4-5.428-2.6-2.665 47.6 1.283 50.5-.69 5.9-5.922-11-5.231-13.6-3.356-4.3-2.566-9.7-2.763-14.2-.592-1.7-4.046-18-2.369-27-3.454-3-1.776-2.5-2.763-.5-3.849 19 .79 37.8 3.355 56.8 2.467 5.1-6.612-6.5-9.276-13.6-3.454-4.2-7.006-12.7-.296-18.4-.987-5.7-.69-3-7.598 4.2-6.513 7.2 1.086 20.1-.394 22.5-3.75 2.4-3.256-1.4-6.612-13.3-3.454-4-4.046-13 0-17.1 1.283-5.6-3.059-18.5-.493-22.8.592-4.3-2.565 22.5-7.006 22.5-7.006 10.4-.198 16.3-1.974 19.5-2.763 15.7-8.389-.2-9.277-8.4-3.158-5.1-4.046-10 .296-14.6 1.776-4.3 1.48-8.8 2.072-13.4 1.974 0-.592 12.6-8.29 12.6-8.29s15.3-1.085 18.4-1.48c3-.493 18.8-8.487-2.7-3.158-7.4.592-11.8.197-14.7.395-16.5-1.678 1.6-3.257 1.6-3.257s23.4-2.072 23.7-3.256c.4-9.08-19.1-4.836-19.3-4.836 0-6.513-18.2.198-18.2 0-3.5-1.974 2-4.145 2-4.145 4.8-1.184 12-1.579 13.9-3.059 0 0 13.6-.098 15.2-3.75-3.3-9.276-28.8 1.678-32.2 3.257-4.6 0 3-7.402 3.3-7.599.2-.296 21-1.085 30.9-14.506.7-8.093-11.6 4.638-11.6 4.638-1-10.658-13.4.69-20.6 1.48-7.3.987-7.5-3.355-2.5-4.046 5-.592 10.8-.099 13.6-7.796 2.9-7.698 11.4.395 13-2.369 1.5-2.96-3.1-5.329-3.1-5.329s6.4-6.611-4-6.315c-10.2.197-23.6-1.382-23.6-1.382s10.7-4.046 20.8-3.947c10 .296 4.6-7.106-5-7.106s-14.7-3.355-14.7-3.355l16.4-6.217-1-4.54s9.6-7.697-4-5.92l-15.2 1.973-27.4 4.145c-.2 0-7.4-2.27-.4-4.046s31.8-6.71 35.5-5.428c3.7 1.382-.4-9.177-13.6-10.46s-21.3 3.355-21.3 3.355-8.5-3.158-.6-5.724c7.9-2.763 20.4.889 20.4.889s14-4.244 2.4-6.02c-11.6-1.777-15.3 1.579-20.6 1.776-2.1-2.664 18.2-3.256 19.5-5.428-2.2-4.046-14.8 0-22.2 0-3-1.381-3.3-3.552.3-4.835 7.5-.296 14.6.099 22.1-.197-.2-4.046 0-8.685-.2-12.83-9.6-1.677-20.8 1.284-26.1.987 1.4-4.243 22-5.427 24.3-6.71 4.8-5.921-20.1 0-20.4 0-4.3-.592-4-3.355-1.3-4.934 6.4-.691 20.6.987 19.6-3.454-.8-3.948-10-1.875-13.6-.987-3.8.888-9.3.197-9.3.197-2.3-3.158 21.5-1.875 21.3-4.342-.3-2.862-15.1-.79-20.2-.592-3.9-2.763 19-4.54 19.3-4.835.9-7.303-15.3 0-18.4 0s-1.5-4.639-1.5-4.639 6.3-2.861 6.1-3.256c-1.6-.888-3.4-1.58-5.2-1.974-.5 0 0-5.033 0-5.033s5.2-4.046 4.8-5.131c-.4-1.086-6.2.888-6.2.888v-4.342s4.2-.395 4.6-2.467c.5-1.974-5-2.171-5-2.171l-2.2-22.994-2 21.513-7.2.987s5 2.96 6 5.823c.8 2.763-6.2 1.973-6.2 1.973s5.7 4.836 6.1 6.513c.5 1.777-7.9 2.171-7.9 2.171s7 5.033 7.5 7.895c.4 2.862 0 4.44 0 4.44s-11.6-10.065-19-7.302c-4 1.974 8.8 2.96 17.2 10.263 0 1.777-20.5-4.934-21.2-.789.4 1.086 21.9 4.243 23.4 7.007-7.8.296-24-1.678-23.4.888-1.7 3.059 15.2 1.283 22.3 3.75 2.1 2.368 1.9 4.342-1.7 4.54-6.9-3.257-22.1-5.626-22.2-1.481.1.987 15.8.395 21.5 4.145-7.6 1.776-33.4-3.553-33.5-.987.7 1.283 4.8 6.414 11.8 6.217s23.3 2.862 24.4 5.033c1.1 2.17-21.1-4.54-29.4-.592-8.4 4.046 23.9 1.48 29.1 6.316 5.3 4.934-10.5-.395-10.5-.395s-22-3.06-25.2-1.48c-3.3 1.48-7 4.934-7 4.934s2.2 4.44 4.4 3.552-.7 2.665-.7 2.665 30.7 7.401 37.5 14.013-39-10.263-39-10.263-18.5 6.81 1 7.204c-2.2 3.256 1.2 5.23 1.2 5.23s32.4 6.81 35.7 12.04-22.1-5.033-27.9-7.895c-5.7-2.862-21.9 1.776-21.7 2.862.3.986 8 2.664 8.1 4.638.3 1.973-9.4 2.566-9.4 4.342s41 10.362 52 19.54-32.2-10.955-32.2-10.955 2.4 3.257 0 4.145c-2.5.888-11-12.335-25-4.145-2.6 3.356 12.2 5.921 16 6.316-1.3 3.355-2.4 4.441 2.8 7.698 5.2 3.355-10.3-4.737-10.3-4.343l1.1 5.724c-4.8-4.046-10.7-5.131-16.2-1.184 0 0-.2 4.046 5.5 6.414-3.1 6.316 3.5 4.343 14 10.362-15.6-4.144-16.9 3.454-5.7 5.132 11.2 1.776 41.9 2.96 49.1 12.335s-10.3-3.552-12.3-4.046c-.4.395-.8 4.935-.8 4.935-4.7-2.665-9-5.23-14.6-6.316-.5.888-.3 2.17-.8 3.059-5-3.75-9.5-6.217-16.9-6.612l-.9 3.454s-6.1-7.697-18.2 0c-6.7 4.934 25.5 1.875 30.7 7.5 5.3 5.724 1.1 6.612 1.1 6.612l-13.1-4.836s-15.6-2.861-20 .691c-4.4 3.454 64 11.94 66 21.415 1.4 5.033-16-5.33-31.1-9.869l-1.8 5.033s-6-6.02-12.7-7.006c-.2 0 1.3 6.02 1.3 6.02s-16.8-7.994-25.4-3.85c-8.6 4.244 29.8 6.415 33.3 10.362 3.5 3.85-11.6-2.664-13 0-1.2 2.665-19.9-4.835-19.6-1.381.3 3.552 2.6 5.526 2.6 5.526s38.8 3.75 40.1 8.29c1.3 4.638-21.5-2.566-21.5-2.566s-2.2 3.256-.4 4.835c1.7 1.58-13.2-8.783-11.8-2.072-4.9-1.875-17.4-7.796-15.6-3.158 1.8 4.54 35.3 11.151 35.3 11.151s-14.7.987-14 4.836c-19-11.546-18.5-4.243-18-4.046s-24.4-6.02-5.7 4.046 10 8.29 10.3 8.487c.2.197 2 5.033 1.5 5.033s-12.7-6.513-16.9-7.007-23.9 5.526-2.8 14.803c21.1 9.276 34-2.171 45.6-.987 11.6 1.381 17 3.355 16 7.006-1.1 3.75-11.9-12.138-23.2 1.678-13-2.664-21.7-4.046-15 5.428-21-7.994-34 2.368-7.4 6.513 26 .888 42-6.316 42-6.316s4.5 8.092 10.8 2.369 6.6 2.17 6.8 2.17l6.2-2.565Zm0 0" style="fill-rule:evenodd;fill:#198200;fill-opacity:1;stroke-width:.7;stroke-linecap:round;stroke-linejoin:round;stroke:#000;stroke-opacity:1;stroke-miterlimit:4" transform="scale(.03906 .03958)"/><path d="M316 320.23v-3.75s-8.2-1.48-12.3-.69c-2.3-1.283-4.6-3.06-7.5-1.58-.5 1.185 5.3 4.244 7.2 4.244 4.1 1.283 8.4 1.875 12.7 1.776Zm0 5.921s-8.3-3.059-11.6.494c.5 3.651 9.7 5.427 11.7 4.44 1.9-.986 0-4.736-.1-5.032Zm14 1.48v2.566s9.8 1.875 11.6-.197-8-3.454-11.7-2.368Zm-.5-10.263.3 2.96s8.6 1.876 11.9-2.86c3.3-4.64-7.5 0-12.2-.1m.4-9.967v1.974s6.5.987 8-1.776c1.4-2.763-7.8 0-8-.198m-13.4-6.02c-1-1.282-4.5-4.736-13.8-5.822-6.5 0 11.7 9.573 13.8 5.921Zm13.2-9.67-.2 2.664s22-6.612 27.1-6.118c4.6-1.283 5.6-4.441 5.4-4.441-4-2.96-22.9 2.27-32.3 7.895m.5-7.797-.3 2.566s15.5-2.96 19.7-6.02c4.2-2.96-19.2 3.553-19.4 3.454m-.6-7.598v2.566s10.3-.395 12.5-2.369c1.3-2.072-9.2-.296-12.5-.197m21.6 21.71s5.4.79 6.4-.79c-.2-2.861-6.4.988-6.4.79M330 266.645l.1 5.625s24.9-7.895 26.5-9.277c1.5-1.48 5-6.02-26.6 3.652m-.7-7.994v4.244s10-.79 14.6-4.54c4.6-3.651-14.6.494-14.6.296m-12-9.276.6 3.75-32.9-10.658c.1 0-1.6-5.329 32.3 6.908m.5-13.322c0 .493 0 3.65-.2 3.552 0 0-22.8-9.473-23.7-8.684-3-7.007 24 5.428 24 5.132Zm11.1 6.02.4 3.157s14-2.96 14.8-4.342-15.2 1.184-15.2 1.086Zm.3 7.4c.2.691.4 3.356.4 3.356s5.6-.493 6.5-1.875c.8-1.283-6.9-1.48-6.9-1.48m-.8-16.974v2.96s15.4-2.96 17-4.342c1.7-1.48-17.3 1.382-17 1.382m0-8.487c0 .198-.5 3.06-.1 3.06s18.6-2.961 21.5-5.626c2.8-2.565-21 2.862-21.3 2.566Zm-.2-14.901v3.256s11.8-2.467 14-4.934c2.2-2.566-14 1.974-14 1.678m-2-21.612.2 4.836s16-2.27 18.2-4.836c2.3-2.664-18.5 0-18.4 0m-7.4-36.513v3.06s-7.5-.396-5.7-1.679 5.7-1.085 5.7-1.381m7 4.046.2 4.145s9.7-.987 10.4-2.467-10.4-1.58-10.6-1.58Zm-.6 5.92s.2 2.665.4 2.665 3.9-.296 4.7-1.282c.8-.987-4.7-.987-5-1.382Zm-8.2 11.843c0 .296.3 4.046 0 3.849s-21.2-6.119-23.2-6.02c-1.9 0-2.4-4.934 23.2 2.171m1.7 6.908c0 .69.5 4.638-.3 4.44-.7-.197-14.3-4.539-12.9-5.822s13.2 1.678 13.2 1.382m-1.2 29.013.1 3.454s-23.7-7.204-24.5-8.388-3.1-6.81 24.4 4.934m1 8.487v3.257l-32.2-11.25s-2.6-8.389 32.1 7.993Zm0 0" style="fill-rule:evenodd;fill:#fff;fill-opacity:1;stroke-width:.8;stroke-linecap:round;stroke-linejoin:round;stroke:#000;stroke-opacity:1;stroke-miterlimit:4" transform="scale(.03906 .03958)"/><path d="m280.3 328.717-.2 3.454s-6.2-1.776-8.2-5.23c3.6-1.086 8.5 1.875 8.4 1.776Zm0 0" style="fill-rule:evenodd;fill:#fff;fill-opacity:1;stroke-width:.8;stroke-linecap:butt;stroke-linejoin:round;stroke:#000;stroke-opacity:1;stroke-miterlimit:4" transform="scale(.03906 .03958)"/></svg>