<svg xmlns="http://www.w3.org/2000/svg" xmlns:xlink="http://www.w3.org/1999/xlink" width="25" height="px" viewBox="0 0 25 19"><defs><clipPath id="U"><path d="M11 7h3v3h-3Zm0 0"/></clipPath><clipPath id="V"><path d="m12.5 7.168-1.992 3.496h3.984Zm0 0"/></clipPath><clipPath id="W"><path d="M10 7h5v4h-5Zm0 0"/></clipPath><clipPath id="X"><path d="m12.5 7.168-1.992 3.496h3.984Zm0 0"/></clipPath><clipPath id="b"><path d="M0 0h25v19H0z"/></clipPath><clipPath id="aa"><path d="M12 8h1v1h-1Zm0 0"/></clipPath><clipPath id="ab"><path d="m12.5 7.168-1.992 3.496h3.984Zm0 0"/></clipPath><clipPath id="ac"><path d="M10 7h5v4h-5Zm0 0"/></clipPath><clipPath id="ad"><path d="m12.5 7.168-1.992 3.496h3.984Zm0 0"/></clipPath><clipPath id="c"><path d="M0 0h25v19H0z"/></clipPath><clipPath id="ag"><path d="M12 8h1v1h-1Zm0 0"/></clipPath><clipPath id="ah"><path d="m12.5 7.168-1.992 3.496h3.984Zm0 0"/></clipPath><clipPath id="ai"><path d="M10 7h5v4h-5Zm0 0"/></clipPath><clipPath id="aj"><path d="m12.5 7.168-1.992 3.496h3.984Zm0 0"/></clipPath><clipPath id="d"><path d="M0 0h25v19H0z"/></clipPath><clipPath id="am"><path d="M12 9h1v1h-1Zm0 0"/></clipPath><clipPath id="an"><path d="m12.5 7.168-1.992 3.496h3.984Zm0 0"/></clipPath><clipPath id="ao"><path d="M10 7h5v4h-5Zm0 0"/></clipPath><clipPath id="ap"><path d="m12.5 7.168-1.992 3.496h3.984Zm0 0"/></clipPath><clipPath id="e"><path d="M0 0h25v19H0z"/></clipPath><clipPath id="as"><path d="M12 9h1v1h-1Zm0 0"/></clipPath><clipPath id="at"><path d="m12.5 7.168-1.992 3.496h3.984Zm0 0"/></clipPath><clipPath id="au"><path d="M10 7h5v4h-5Zm0 0"/></clipPath><clipPath id="av"><path d="m12.5 7.168-1.992 3.496h3.984Zm0 0"/></clipPath><clipPath id="f"><path d="M0 0h25v19H0z"/></clipPath><clipPath id="ay"><path d="M12 8h1v1h-1Zm0 0"/></clipPath><clipPath id="az"><path d="m12.5 7.168-1.992 3.496h3.984Zm0 0"/></clipPath><clipPath id="aA"><path d="M10 7h5v4h-5Zm0 0"/></clipPath><clipPath id="aB"><path d="m12.5 7.168-1.992 3.496h3.984Zm0 0"/></clipPath><clipPath id="g"><path d="M0 0h25v19H0z"/></clipPath><clipPath id="aE"><path d="M12 8h1v1h-1Zm0 0"/></clipPath><clipPath id="aF"><path d="m12.5 7.168-1.992 3.496h3.984Zm0 0"/></clipPath><clipPath id="aG"><path d="M10 7h5v4h-5Zm0 0"/></clipPath><clipPath id="aH"><path d="m12.5 7.168-1.992 3.496h3.984Zm0 0"/></clipPath><clipPath id="h"><path d="M0 0h25v19H0z"/></clipPath><clipPath id="aK"><path d="M12 8h1v2h-1Zm0 0"/></clipPath><clipPath id="aL"><path d="m12.5 7.168-1.992 3.496h3.984Zm0 0"/></clipPath><clipPath id="aM"><path d="M10 7h5v4h-5Zm0 0"/></clipPath><clipPath id="aN"><path d="m12.5 7.168-1.992 3.496h3.984Zm0 0"/></clipPath><clipPath id="i"><path d="M0 0h25v19H0z"/></clipPath><clipPath id="aQ"><path d="M12 9h1v1h-1Zm0 0"/></clipPath><clipPath id="aR"><path d="m12.5 7.168-1.992 3.496h3.984Zm0 0"/></clipPath><clipPath id="aS"><path d="M10 7h5v4h-5Zm0 0"/></clipPath><clipPath id="aT"><path d="m12.5 7.168-1.992 3.496h3.984Zm0 0"/></clipPath><clipPath id="j"><path d="M0 0h25v19H0z"/></clipPath><clipPath id="aW"><path d="M12 9h1v1h-1Zm0 0"/></clipPath><clipPath id="aX"><path d="m12.5 7.168-1.992 3.496h3.984Zm0 0"/></clipPath><clipPath id="aY"><path d="M10 7h5v4h-5Zm0 0"/></clipPath><clipPath id="aZ"><path d="m12.5 7.168-1.992 3.496h3.984Zm0 0"/></clipPath><clipPath id="k"><path d="M0 0h25v19H0z"/></clipPath><clipPath id="bc"><path d="M12 8h1v1h-1Zm0 0"/></clipPath><clipPath id="bd"><path d="m12.5 7.168-1.992 3.496h3.984Zm0 0"/></clipPath><clipPath id="be"><path d="M10 7h5v4h-5Zm0 0"/></clipPath><clipPath id="bf"><path d="m12.5 7.168-1.992 3.496h3.984Zm0 0"/></clipPath><clipPath id="l"><path d="M0 0h25v19H0z"/></clipPath><clipPath id="bi"><path d="M12 8h1v1h-1Zm0 0"/></clipPath><clipPath id="bj"><path d="m12.5 7.168-1.992 3.496h3.984Zm0 0"/></clipPath><clipPath id="bk"><path d="M10 7h5v4h-5Zm0 0"/></clipPath><clipPath id="bl"><path d="m12.5 7.168-1.992 3.496h3.984Zm0 0"/></clipPath><clipPath id="m"><path d="M0 0h25v19H0z"/></clipPath><clipPath id="bo"><path d="M12 9h1v1h-1Zm0 0"/></clipPath><clipPath id="bp"><path d="m12.5 7.168-1.992 3.496h3.984Zm0 0"/></clipPath><clipPath id="bq"><path d="M10 7h5v4h-5Zm0 0"/></clipPath><clipPath id="br"><path d="m12.5 7.168-1.992 3.496h3.984Zm0 0"/></clipPath><clipPath id="n"><path d="M0 0h25v19H0z"/></clipPath><clipPath id="bu"><path d="M12 9h1v1h-1Zm0 0"/></clipPath><clipPath id="bv"><path d="m12.5 7.168-1.992 3.496h3.984Zm0 0"/></clipPath><clipPath id="bw"><path d="M10 7h5v4h-5Zm0 0"/></clipPath><clipPath id="bx"><path d="m12.5 7.168-1.992 3.496h3.984Zm0 0"/></clipPath><clipPath id="o"><path d="M0 0h25v19H0z"/></clipPath><clipPath id="bA"><path d="M12 9h1v1h-1Zm0 0"/></clipPath><clipPath id="bB"><path d="m12.5 7.168-1.992 3.496h3.984Zm0 0"/></clipPath><clipPath id="bC"><path d="M10 7h5v4h-5Zm0 0"/></clipPath><clipPath id="bD"><path d="m12.5 7.168-1.992 3.496h3.984Zm0 0"/></clipPath><clipPath id="p"><path d="M0 0h25v19H0z"/></clipPath><clipPath id="bG"><path d="M12 8h1v1h-1Zm0 0"/></clipPath><clipPath id="bH"><path d="m12.5 7.168-1.992 3.496h3.984Zm0 0"/></clipPath><clipPath id="bI"><path d="M10 7h5v4h-5Zm0 0"/></clipPath><clipPath id="bJ"><path d="m12.5 7.168-1.992 3.496h3.984Zm0 0"/></clipPath><clipPath id="q"><path d="M0 0h25v19H0z"/></clipPath><clipPath id="bM"><path d="M12 8h1v1h-1Zm0 0"/></clipPath><clipPath id="bN"><path d="m12.5 7.168-1.992 3.496h3.984Zm0 0"/></clipPath><clipPath id="bO"><path d="M10 7h5v4h-5Zm0 0"/></clipPath><clipPath id="bP"><path d="m12.5 7.168-1.992 3.496h3.984Zm0 0"/></clipPath><clipPath id="r"><path d="M0 0h25v19H0z"/></clipPath><clipPath id="bS"><path d="M12 9h1v1h-1Zm0 0"/></clipPath><clipPath id="bT"><path d="m12.5 7.168-1.992 3.496h3.984Zm0 0"/></clipPath><clipPath id="bU"><path d="M10 7h5v4h-5Zm0 0"/></clipPath><clipPath id="bV"><path d="m12.5 7.168-1.992 3.496h3.984Zm0 0"/></clipPath><clipPath id="s"><path d="M0 0h25v19H0z"/></clipPath><clipPath id="bY"><path d="M12 9h1v1h-1Zm0 0"/></clipPath><clipPath id="bZ"><path d="m12.5 7.168-1.992 3.496h3.984Zm0 0"/></clipPath><clipPath id="ca"><path d="M10 7h5v4h-5Zm0 0"/></clipPath><clipPath id="cb"><path d="m12.5 7.168-1.992 3.496h3.984Zm0 0"/></clipPath><clipPath id="t"><path d="M0 0h25v19H0z"/></clipPath><clipPath id="ce"><path d="M12 9h1v1h-1Zm0 0"/></clipPath><clipPath id="cf"><path d="m12.5 7.168-1.992 3.496h3.984Zm0 0"/></clipPath><clipPath id="cg"><path d="M10 7h5v4h-5Zm0 0"/></clipPath><clipPath id="ch"><path d="m12.5 7.168-1.992 3.496h3.984Zm0 0"/></clipPath><clipPath id="u"><path d="M0 0h25v19H0z"/></clipPath><clipPath id="ck"><path d="M12 8h1v1h-1Zm0 0"/></clipPath><clipPath id="cl"><path d="m12.5 7.168-1.992 3.496h3.984Zm0 0"/></clipPath><clipPath id="cm"><path d="M10 7h5v4h-5Zm0 0"/></clipPath><clipPath id="cn"><path d="m12.5 7.168-1.992 3.496h3.984Zm0 0"/></clipPath><clipPath id="v"><path d="M0 0h25v19H0z"/></clipPath><clipPath id="cq"><path d="M12 8h1v1h-1Zm0 0"/></clipPath><clipPath id="cr"><path d="m12.5 7.168-1.992 3.496h3.984Zm0 0"/></clipPath><clipPath id="cs"><path d="M10 7h5v4h-5Zm0 0"/></clipPath><clipPath id="ct"><path d="m12.5 7.168-1.992 3.496h3.984Zm0 0"/></clipPath><clipPath id="w"><path d="M0 0h25v19H0z"/></clipPath><clipPath id="cw"><path d="M12 9h1v1h-1Zm0 0"/></clipPath><clipPath id="cx"><path d="m12.5 7.168-1.992 3.496h3.984Zm0 0"/></clipPath><clipPath id="cy"><path d="M10 7h5v4h-5Zm0 0"/></clipPath><clipPath id="cz"><path d="m12.5 7.168-1.992 3.496h3.984Zm0 0"/></clipPath><clipPath id="x"><path d="M0 0h25v19H0z"/></clipPath><clipPath id="cC"><path d="M12 9h1v1h-1Zm0 0"/></clipPath><clipPath id="cD"><path d="m12.5 7.168-1.992 3.496h3.984Zm0 0"/></clipPath><clipPath id="cE"><path d="M10 7h5v4h-5Zm0 0"/></clipPath><clipPath id="cF"><path d="m12.5 7.168-1.992 3.496h3.984Zm0 0"/></clipPath><clipPath id="y"><path d="M0 0h25v19H0z"/></clipPath><clipPath id="cI"><path d="M12 9h1v1h-1Zm0 0"/></clipPath><clipPath id="cJ"><path d="m12.5 7.168-1.992 3.496h3.984Zm0 0"/></clipPath><clipPath id="cK"><path d="M10 7h5v4h-5Zm0 0"/></clipPath><clipPath id="cL"><path d="m12.5 7.168-1.992 3.496h3.984Zm0 0"/></clipPath><clipPath id="z"><path d="M0 0h25v19H0z"/></clipPath><clipPath id="cO"><path d="M12 8h1v1h-1Zm0 0"/></clipPath><clipPath id="cP"><path d="m12.5 7.168-1.992 3.496h3.984Zm0 0"/></clipPath><clipPath id="cQ"><path d="M10 7h5v4h-5Zm0 0"/></clipPath><clipPath id="cR"><path d="m12.5 7.168-1.992 3.496h3.984Zm0 0"/></clipPath><clipPath id="A"><path d="M0 0h25v19H0z"/></clipPath><clipPath id="cU"><path d="M12 8h1v1h-1Zm0 0"/></clipPath><clipPath id="cV"><path d="m12.5 7.168-1.992 3.496h3.984Zm0 0"/></clipPath><clipPath id="cW"><path d="M10 7h5v4h-5Zm0 0"/></clipPath><clipPath id="cX"><path d="m12.5 7.168-1.992 3.496h3.984Zm0 0"/></clipPath><clipPath id="B"><path d="M0 0h25v19H0z"/></clipPath><clipPath id="da"><path d="M12 9h1v1h-1Zm0 0"/></clipPath><clipPath id="db"><path d="m12.5 7.168-1.992 3.496h3.984Zm0 0"/></clipPath><clipPath id="dc"><path d="M10 7h5v4h-5Zm0 0"/></clipPath><clipPath id="dd"><path d="m12.5 7.168-1.992 3.496h3.984Zm0 0"/></clipPath><clipPath id="C"><path d="M0 0h25v19H0z"/></clipPath><clipPath id="dg"><path d="M12 9h1v1h-1Zm0 0"/></clipPath><clipPath id="dh"><path d="m12.5 7.168-1.992 3.496h3.984Zm0 0"/></clipPath><clipPath id="di"><path d="M10 7h5v4h-5Zm0 0"/></clipPath><clipPath id="dj"><path d="m12.5 7.168-1.992 3.496h3.984Zm0 0"/></clipPath><clipPath id="D"><path d="M0 0h25v19H0z"/></clipPath><clipPath id="dm"><path d="M12 9h1v1h-1Zm0 0"/></clipPath><clipPath id="dn"><path d="m12.5 7.168-1.992 3.496h3.984Zm0 0"/></clipPath><clipPath id="do"><path d="M10 7h5v4h-5Zm0 0"/></clipPath><clipPath id="dp"><path d="m12.5 7.168-1.992 3.496h3.984Zm0 0"/></clipPath><clipPath id="E"><path d="M0 0h25v19H0z"/></clipPath><clipPath id="ds"><path d="M12 8h1v1h-1Zm0 0"/></clipPath><clipPath id="dt"><path d="m12.5 7.168-1.992 3.496h3.984Zm0 0"/></clipPath><clipPath id="du"><path d="M10 7h5v4h-5Zm0 0"/></clipPath><clipPath id="dv"><path d="m12.5 7.168-1.992 3.496h3.984Zm0 0"/></clipPath><clipPath id="F"><path d="M0 0h25v19H0z"/></clipPath><clipPath id="dy"><path d="M12 8h1v1h-1Zm0 0"/></clipPath><clipPath id="dz"><path d="m12.5 7.168-1.992 3.496h3.984Zm0 0"/></clipPath><clipPath id="dA"><path d="M10 7h5v4h-5Zm0 0"/></clipPath><clipPath id="dB"><path d="m12.5 7.168-1.992 3.496h3.984Zm0 0"/></clipPath><clipPath id="G"><path d="M0 0h25v19H0z"/></clipPath><clipPath id="dE"><path d="M12 9h1v1h-1Zm0 0"/></clipPath><clipPath id="dF"><path d="m12.5 7.168-1.992 3.496h3.984Zm0 0"/></clipPath><clipPath id="dG"><path d="M10 7h5v4h-5Zm0 0"/></clipPath><clipPath id="dH"><path d="m12.5 7.168-1.992 3.496h3.984Zm0 0"/></clipPath><clipPath id="H"><path d="M0 0h25v19H0z"/></clipPath><clipPath id="dK"><path d="M12 9h1v1h-1Zm0 0"/></clipPath><clipPath id="dL"><path d="m12.5 7.168-1.992 3.496h3.984Zm0 0"/></clipPath><clipPath id="dM"><path d="M10 7h5v4h-5Zm0 0"/></clipPath><clipPath id="dN"><path d="m12.5 7.168-1.992 3.496h3.984Zm0 0"/></clipPath><clipPath id="I"><path d="M0 0h25v19H0z"/></clipPath><clipPath id="dQ"><path d="M12 9h1v1h-1Zm0 0"/></clipPath><clipPath id="dR"><path d="m12.5 7.168-1.992 3.496h3.984Zm0 0"/></clipPath><clipPath id="dS"><path d="M10 7h5v4h-5Zm0 0"/></clipPath><clipPath id="dT"><path d="m12.5 7.168-1.992 3.496h3.984Zm0 0"/></clipPath><clipPath id="J"><path d="M0 0h25v19H0z"/></clipPath><clipPath id="dW"><path d="M12 8h1v1h-1Zm0 0"/></clipPath><clipPath id="dX"><path d="m12.5 7.168-1.992 3.496h3.984Zm0 0"/></clipPath><clipPath id="dY"><path d="M10 7h5v4h-5Zm0 0"/></clipPath><clipPath id="dZ"><path d="m12.5 7.168-1.992 3.496h3.984Zm0 0"/></clipPath><clipPath id="K"><path d="M0 0h25v19H0z"/></clipPath><clipPath id="ec"><path d="M12 8h1v1h-1Zm0 0"/></clipPath><clipPath id="ed"><path d="m12.5 7.168-1.992 3.496h3.984Zm0 0"/></clipPath><clipPath id="ee"><path d="M10 7h5v4h-5Zm0 0"/></clipPath><clipPath id="ef"><path d="m12.5 7.168-1.992 3.496h3.984Zm0 0"/></clipPath><clipPath id="L"><path d="M0 0h25v19H0z"/></clipPath><clipPath id="ei"><path d="M12 9h1v1h-1Zm0 0"/></clipPath><clipPath id="ej"><path d="m12.5 7.168-1.992 3.496h3.984Zm0 0"/></clipPath><clipPath id="ek"><path d="M10 7h5v4h-5Zm0 0"/></clipPath><clipPath id="el"><path d="m12.5 7.168-1.992 3.496h3.984Zm0 0"/></clipPath><clipPath id="M"><path d="M0 0h25v19H0z"/></clipPath><clipPath id="eo"><path d="M12 9h1v1h-1Zm0 0"/></clipPath><clipPath id="ep"><path d="m12.5 7.168-1.992 3.496h3.984Zm0 0"/></clipPath><clipPath id="eq"><path d="M10 7h5v4h-5Zm0 0"/></clipPath><clipPath id="er"><path d="m12.5 7.168-1.992 3.496h3.984Zm0 0"/></clipPath><clipPath id="N"><path d="M0 0h25v19H0z"/></clipPath><clipPath id="eu"><path d="M12 9h1v1h-1Zm0 0"/></clipPath><clipPath id="ev"><path d="m12.5 7.168-1.992 3.496h3.984Zm0 0"/></clipPath><clipPath id="ew"><path d="M10 7h5v4h-5Zm0 0"/></clipPath><clipPath id="ex"><path d="m12.5 7.168-1.992 3.496h3.984Zm0 0"/></clipPath><clipPath id="O"><path d="M0 0h25v19H0z"/></clipPath><clipPath id="eA"><path d="M12 8h1v1h-1Zm0 0"/></clipPath><clipPath id="eB"><path d="m12.5 7.168-1.992 3.496h3.984Zm0 0"/></clipPath><clipPath id="eC"><path d="M10 7h5v4h-5Zm0 0"/></clipPath><clipPath id="eD"><path d="m12.5 7.168-1.992 3.496h3.984Zm0 0"/></clipPath><clipPath id="P"><path d="M0 0h25v19H0z"/></clipPath><clipPath id="eG"><path d="M12 8h1v1h-1Zm0 0"/></clipPath><clipPath id="eH"><path d="m12.5 7.168-1.992 3.496h3.984Zm0 0"/></clipPath><clipPath id="eI"><path d="M10 7h5v4h-5Zm0 0"/></clipPath><clipPath id="eJ"><path d="m12.5 7.168-1.992 3.496h3.984Zm0 0"/></clipPath><clipPath id="Q"><path d="M0 0h25v19H0z"/></clipPath><clipPath id="eM"><path d="M12 9h1v1h-1Zm0 0"/></clipPath><clipPath id="eN"><path d="m12.5 7.168-1.992 3.496h3.984Zm0 0"/></clipPath><clipPath id="eO"><path d="M10 7h5v4h-5Zm0 0"/></clipPath><clipPath id="eP"><path d="m12.5 7.168-1.992 3.496h3.984Zm0 0"/></clipPath><clipPath id="R"><path d="M0 0h25v19H0z"/></clipPath><clipPath id="eS"><path d="M12 9h1v1h-1Zm0 0"/></clipPath><clipPath id="eT"><path d="m12.5 7.168-1.992 3.496h3.984Zm0 0"/></clipPath><clipPath id="eU"><path d="M10 7h5v4h-5Zm0 0"/></clipPath><clipPath id="eV"><path d="m12.5 7.168-1.992 3.496h3.984Zm0 0"/></clipPath><clipPath id="S"><path d="M0 0h25v19H0z"/></clipPath><clipPath id="eY"><path d="M12 8h1v2h-1Zm0 0"/></clipPath><clipPath id="eZ"><path d="m12.5 7.168-1.992 3.496h3.984Zm0 0"/></clipPath><clipPath id="fa"><path d="M10 7h5v4h-5Zm0 0"/></clipPath><clipPath id="fb"><path d="m12.5 7.168-1.992 3.496h3.984Zm0 0"/></clipPath><clipPath id="T"><path d="M0 0h25v19H0z"/></clipPath><clipPath id="fe"><path d="M12 8h1v1h-1Zm0 0"/></clipPath><clipPath id="ff"><path d="m12.5 7.168-1.992 3.496h3.984Zm0 0"/></clipPath><clipPath id="fg"><path d="M11 8h3v2h-3Zm0 0"/></clipPath><clipPath id="fh"><path d="m12.5 7.168-1.992 3.496h3.984Zm0 0"/></clipPath><clipPath id="fi"><path d="M12 9h1v1h-1Zm0 0"/></clipPath><clipPath id="fj"><path d="m12.5 7.168-1.992 3.496h3.984Zm0 0"/></clipPath><clipPath id="fk"><path d="M12 8h1v2h-1Zm0 0"/></clipPath><clipPath id="fl"><path d="m12.5 7.168-1.992 3.496h3.984Zm0 0"/></clipPath><clipPath id="fn"><path d="M12 8h1v1h-1Zm0 0"/></clipPath><clipPath id="fo"><path d="m12.5 7.168-1.992 3.496h3.984Zm0 0"/></clipPath><clipPath id="fp"><path d="M12 9h1v1h-1Zm0 0"/></clipPath><clipPath id="fq"><path d="m12.5 7.168-1.992 3.496h3.984Zm0 0"/></clipPath><clipPath id="fs"><path d="M10 9h5v2h-5Zm0 0"/></clipPath><clipPath id="ft"><path d="m12.5 7.168-1.992 3.496h3.984Zm0 0"/></clipPath><clipPath id="fu"><path d="M10 10h5v1h-5Zm0 0"/></clipPath><clipPath id="fv"><path d="m12.5 7.168-1.992 3.496h3.984Zm0 0"/></clipPath><clipPath id="fC"><path d="M10 9h5v2h-5Zm0 0"/></clipPath><clipPath id="fD"><path d="m12.5 7.168-1.992 3.496h3.984Zm0 0"/></clipPath><clipPath id="fF"><path d="M10 9h5v1h-5Zm0 0"/></clipPath><clipPath id="fG"><path d="m12.5 7.168-1.992 3.496h3.984Zm0 0"/></clipPath><clipPath id="fK"><path d="M11 9h3v1h-3Zm0 0"/></clipPath><clipPath id="fL"><path d="m12.5 7.168-1.992 3.496h3.984Zm0 0"/></clipPath><clipPath id="fM"><path d="M12 9h3v2h-3Zm0 0"/></clipPath><clipPath id="fN"><path d="m12.5 7.168-1.992 3.496h3.984Zm0 0"/></clipPath><clipPath id="fP"><path d="M12 9h2v2h-2Zm0 0"/></clipPath><clipPath id="fQ"><path d="m12.5 7.168-1.992 3.496h3.984Zm0 0"/></clipPath><clipPath id="fR"><path d="M13 9h1v2h-1Zm0 0"/></clipPath><clipPath id="fS"><path d="m12.5 7.168-1.992 3.496h3.984Zm0 0"/></clipPath><clipPath id="fT"><path d="M12 9h2v2h-2Zm0 0"/></clipPath><clipPath id="fU"><path d="m12.5 7.168-1.992 3.496h3.984Zm0 0"/></clipPath><clipPath id="fV"><path d="M11 9h3v2h-3Zm0 0"/></clipPath><clipPath id="fW"><path d="m12.5 7.168-1.992 3.496h3.984Zm0 0"/></clipPath><clipPath id="fY"><path d="M12 9h1v2h-1Zm0 0"/></clipPath><clipPath id="fZ"><path d="m12.5 7.168-1.992 3.496h3.984Zm0 0"/></clipPath><clipPath id="ga"><path d="M11 9h3v2h-3Zm0 0"/></clipPath><clipPath id="gb"><path d="m12.5 7.168-1.992 3.496h3.984Zm0 0"/></clipPath><clipPath id="gd"><path d="M11 9h2v2h-2Zm0 0"/></clipPath><clipPath id="ge"><path d="m12.5 7.168-1.992 3.496h3.984Zm0 0"/></clipPath><clipPath id="gf"><path d="M12 9h1v2h-1Zm0 0"/></clipPath><clipPath id="gg"><path d="m12.5 7.168-1.992 3.496h3.984Zm0 0"/></clipPath><clipPath id="gh"><path d="M11 9h2v2h-2Zm0 0"/></clipPath><clipPath id="gi"><path d="m12.5 7.168-1.992 3.496h3.984Zm0 0"/></clipPath><clipPath id="gj"><path d="M12 9h2v2h-2Zm0 0"/></clipPath><clipPath id="gk"><path d="m12.5 7.168-1.992 3.496h3.984Zm0 0"/></clipPath><clipPath id="gl"><path d="M12 9h1v2h-1Zm0 0"/></clipPath><clipPath id="gm"><path d="m12.5 7.168-1.992 3.496h3.984Zm0 0"/></clipPath><clipPath id="gn"><path d="M11 9h2v2h-2Zm0 0"/></clipPath><clipPath id="go"><path d="m12.5 7.168-1.992 3.496h3.984Zm0 0"/></clipPath><clipPath id="gq"><path d="M11 9h1v2h-1Zm0 0"/></clipPath><clipPath id="gr"><path d="m12.5 7.168-1.992 3.496h3.984Zm0 0"/></clipPath><clipPath id="gs"><path d="M12 9h1v2h-1Zm0 0"/></clipPath><clipPath id="gt"><path d="m12.5 7.168-1.992 3.496h3.984Zm0 0"/></clipPath><clipPath id="gu"><path d="M10 9h3v2h-3Zm0 0"/></clipPath><clipPath id="gv"><path d="m12.5 7.168-1.992 3.496h3.984Zm0 0"/></clipPath><clipPath id="gx"><path d="M10 9h2v2h-2Zm0 0"/></clipPath><clipPath id="gy"><path d="m12.5 7.168-1.992 3.496h3.984Zm0 0"/></clipPath><clipPath id="gz"><path d="M11 9h2v2h-2Zm0 0"/></clipPath><clipPath id="gA"><path d="m12.5 7.168-1.992 3.496h3.984Zm0 0"/></clipPath><clipPath id="gB"><path d="M11 9h1v2h-1Zm0 0"/></clipPath><clipPath id="gC"><path d="m12.5 7.168-1.992 3.496h3.984Zm0 0"/></clipPath><clipPath id="gD"><path d="M11 9h2v2h-2Zm0 0"/></clipPath><clipPath id="gE"><path d="m12.5 7.168-1.992 3.496h3.984Zm0 0"/></clipPath><clipPath id="gF"><path d="M10 10h5v1h-5Zm0 0"/></clipPath><clipPath id="gG"><path d="m12.5 7.168-1.992 3.496h3.984Zm0 0"/></clipPath><clipPath id="gR"><path d="M14 10h1v1h-1Zm0 0"/></clipPath><clipPath id="gS"><path d="m12.5 7.168-1.992 3.496h3.984Zm0 0"/></clipPath><mask id="Z"><g filter="url(#a)"><path d="M0 0h25v19H0z" style="fill:#000;fill-opacity:.6;stroke:none"/></g></mask><mask id="af"><g filter="url(#a)"><path d="M0 0h25v19H0z" style="fill:#000;fill-opacity:.6;stroke:none"/></g></mask><mask id="al"><g filter="url(#a)"><path d="M0 0h25v19H0z" style="fill:#000;fill-opacity:.6;stroke:none"/></g></mask><mask id="ar"><g filter="url(#a)"><path d="M0 0h25v19H0z" style="fill:#000;fill-opacity:.6;stroke:none"/></g></mask><mask id="ax"><g filter="url(#a)"><path d="M0 0h25v19H0z" style="fill:#000;fill-opacity:.6;stroke:none"/></g></mask><mask id="aD"><g filter="url(#a)"><path d="M0 0h25v19H0z" style="fill:#000;fill-opacity:.6;stroke:none"/></g></mask><mask id="aJ"><g filter="url(#a)"><path d="M0 0h25v19H0z" style="fill:#000;fill-opacity:.6;stroke:none"/></g></mask><mask id="aP"><g filter="url(#a)"><path d="M0 0h25v19H0z" style="fill:#000;fill-opacity:.6;stroke:none"/></g></mask><mask id="aV"><g filter="url(#a)"><path d="M0 0h25v19H0z" style="fill:#000;fill-opacity:.6;stroke:none"/></g></mask><mask id="bb"><g filter="url(#a)"><path d="M0 0h25v19H0z" style="fill:#000;fill-opacity:.6;stroke:none"/></g></mask><mask id="bh"><g filter="url(#a)"><path d="M0 0h25v19H0z" style="fill:#000;fill-opacity:.6;stroke:none"/></g></mask><mask id="bn"><g filter="url(#a)"><path d="M0 0h25v19H0z" style="fill:#000;fill-opacity:.6;stroke:none"/></g></mask><mask id="bt"><g filter="url(#a)"><path d="M0 0h25v19H0z" style="fill:#000;fill-opacity:.6;stroke:none"/></g></mask><mask id="bz"><g filter="url(#a)"><path d="M0 0h25v19H0z" style="fill:#000;fill-opacity:.6;stroke:none"/></g></mask><mask id="bF"><g filter="url(#a)"><path d="M0 0h25v19H0z" style="fill:#000;fill-opacity:.6;stroke:none"/></g></mask><mask id="bL"><g filter="url(#a)"><path d="M0 0h25v19H0z" style="fill:#000;fill-opacity:.6;stroke:none"/></g></mask><mask id="bR"><g filter="url(#a)"><path d="M0 0h25v19H0z" style="fill:#000;fill-opacity:.6;stroke:none"/></g></mask><mask id="bX"><g filter="url(#a)"><path d="M0 0h25v19H0z" style="fill:#000;fill-opacity:.6;stroke:none"/></g></mask><mask id="cd"><g filter="url(#a)"><path d="M0 0h25v19H0z" style="fill:#000;fill-opacity:.6;stroke:none"/></g></mask><mask id="cj"><g filter="url(#a)"><path d="M0 0h25v19H0z" style="fill:#000;fill-opacity:.6;stroke:none"/></g></mask><mask id="cp"><g filter="url(#a)"><path d="M0 0h25v19H0z" style="fill:#000;fill-opacity:.6;stroke:none"/></g></mask><mask id="cv"><g filter="url(#a)"><path d="M0 0h25v19H0z" style="fill:#000;fill-opacity:.6;stroke:none"/></g></mask><mask id="cB"><g filter="url(#a)"><path d="M0 0h25v19H0z" style="fill:#000;fill-opacity:.6;stroke:none"/></g></mask><mask id="cH"><g filter="url(#a)"><path d="M0 0h25v19H0z" style="fill:#000;fill-opacity:.6;stroke:none"/></g></mask><mask id="cN"><g filter="url(#a)"><path d="M0 0h25v19H0z" style="fill:#000;fill-opacity:.6;stroke:none"/></g></mask><mask id="cT"><g filter="url(#a)"><path d="M0 0h25v19H0z" style="fill:#000;fill-opacity:.6;stroke:none"/></g></mask><mask id="cZ"><g filter="url(#a)"><path d="M0 0h25v19H0z" style="fill:#000;fill-opacity:.6;stroke:none"/></g></mask><mask id="df"><g filter="url(#a)"><path d="M0 0h25v19H0z" style="fill:#000;fill-opacity:.6;stroke:none"/></g></mask><mask id="dl"><g filter="url(#a)"><path d="M0 0h25v19H0z" style="fill:#000;fill-opacity:.6;stroke:none"/></g></mask><mask id="dr"><g filter="url(#a)"><path d="M0 0h25v19H0z" style="fill:#000;fill-opacity:.6;stroke:none"/></g></mask><mask id="dx"><g filter="url(#a)"><path d="M0 0h25v19H0z" style="fill:#000;fill-opacity:.6;stroke:none"/></g></mask><mask id="dD"><g filter="url(#a)"><path d="M0 0h25v19H0z" style="fill:#000;fill-opacity:.6;stroke:none"/></g></mask><mask id="dJ"><g filter="url(#a)"><path d="M0 0h25v19H0z" style="fill:#000;fill-opacity:.6;stroke:none"/></g></mask><mask id="dP"><g filter="url(#a)"><path d="M0 0h25v19H0z" style="fill:#000;fill-opacity:.6;stroke:none"/></g></mask><mask id="dV"><g filter="url(#a)"><path d="M0 0h25v19H0z" style="fill:#000;fill-opacity:.6;stroke:none"/></g></mask><mask id="eb"><g filter="url(#a)"><path d="M0 0h25v19H0z" style="fill:#000;fill-opacity:.6;stroke:none"/></g></mask><mask id="eh"><g filter="url(#a)"><path d="M0 0h25v19H0z" style="fill:#000;fill-opacity:.6;stroke:none"/></g></mask><mask id="en"><g filter="url(#a)"><path d="M0 0h25v19H0z" style="fill:#000;fill-opacity:.6;stroke:none"/></g></mask><mask id="et"><g filter="url(#a)"><path d="M0 0h25v19H0z" style="fill:#000;fill-opacity:.6;stroke:none"/></g></mask><mask id="ez"><g filter="url(#a)"><path d="M0 0h25v19H0z" style="fill:#000;fill-opacity:.6;stroke:none"/></g></mask><mask id="eF"><g filter="url(#a)"><path d="M0 0h25v19H0z" style="fill:#000;fill-opacity:.6;stroke:none"/></g></mask><mask id="eL"><g filter="url(#a)"><path d="M0 0h25v19H0z" style="fill:#000;fill-opacity:.6;stroke:none"/></g></mask><mask id="eR"><g filter="url(#a)"><path d="M0 0h25v19H0z" style="fill:#000;fill-opacity:.6;stroke:none"/></g></mask><mask id="eX"><g filter="url(#a)"><path d="M0 0h25v19H0z" style="fill:#000;fill-opacity:.6;stroke:none"/></g></mask><mask id="fd"><g filter="url(#a)"><path d="M0 0h25v19H0z" style="fill:#000;fill-opacity:.6;stroke:none"/></g></mask><g id="Y" clip-path="url(#b)"><path d="m500 226.357-2.375 4.07L500 285.445l2.375-55.016Zm0 0" style="fill-rule:nonzero;fill:#17c0eb;fill-opacity:1;stroke-width:.1;stroke-linecap:butt;stroke-linejoin:miter;stroke:#17c0eb;stroke-opacity:1;stroke-miterlimit:4" transform="matrix(.03125 0 0 .03167 -3.125 0)"/></g><g id="ae" clip-path="url(#c)"><path d="m499.966 226.344-2.368 4.094 2.387 54.926 2.418-54.942Zm0 0" style="fill-rule:nonzero;fill:#17c0eb;fill-opacity:1;stroke-width:.1;stroke-linecap:butt;stroke-linejoin:miter;stroke:#17c0eb;stroke-opacity:1;stroke-miterlimit:4" transform="matrix(.00966 .03012 -.02972 .00979 16.157 -8.811)"/></g><g id="ak" clip-path="url(#d)"><path d="m499.986 226.399-2.452 4.012 2.506 55.034 2.297-55.051Zm0 0" style="fill-rule:nonzero;fill:#17c0eb;fill-opacity:1;stroke-width:.1;stroke-linecap:butt;stroke-linejoin:miter;stroke:#17c0eb;stroke-opacity:1;stroke-miterlimit:4" transform="matrix(-.02528 .01861 -.01837 -.02562 30.385 7.048)"/></g><g id="aq" clip-path="url(#e)"><path d="m500.014 226.399-2.351 3.995 2.297 55.051 2.506-55.034Zm0 0" style="fill-rule:nonzero;fill:#17c0eb;fill-opacity:1;stroke-width:.1;stroke-linecap:butt;stroke-linejoin:miter;stroke:#17c0eb;stroke-opacity:1;stroke-miterlimit:4" transform="matrix(-.02528 -.01861 .01837 -.02562 19.897 25.662)"/></g><g id="aw" clip-path="url(#f)"><path d="m500.034 226.344-2.437 4.078 2.418 54.942 2.387-54.926Zm0 0" style="fill-rule:nonzero;fill:#17c0eb;fill-opacity:1;stroke-width:.1;stroke-linecap:butt;stroke-linejoin:miter;stroke:#17c0eb;stroke-opacity:1;stroke-miterlimit:4" transform="matrix(.00966 -.03012 .02972 .00979 -.814 21.305)"/></g><g id="aC" clip-path="url(#g)"><path d="m500.024 226.395-2.473 3.96 2.441 55.09 2.366-55.018Zm0 0" style="fill-rule:nonzero;fill:#17c0eb;fill-opacity:1;stroke-width:.1;stroke-linecap:butt;stroke-linejoin:miter;stroke:#17c0eb;stroke-opacity:1;stroke-miterlimit:4" transform="matrix(.03095 .0044 -.00435 .03136 -1.731 -2.116)"/></g><g id="aI" clip-path="url(#h)"><path d="m499.977 226.347-2.339 4.03 2.329 54.99 2.418-54.914Zm0 0" style="fill-rule:nonzero;fill:#17c0eb;fill-opacity:1;stroke-width:.1;stroke-linecap:butt;stroke-linejoin:miter;stroke:#17c0eb;stroke-opacity:1;stroke-miterlimit:4" transform="matrix(.00543 .03119 -.03078 .0055 18.573 -8.122)"/></g><g id="aO" clip-path="url(#i)"><path d="m499.969 226.45-2.364 3.913 2.427 55.077 2.368-55.043Zm0 0" style="fill-rule:nonzero;fill:#17c0eb;fill-opacity:1;stroke-width:.1;stroke-linecap:butt;stroke-linejoin:miter;stroke:#17c0eb;stroke-opacity:1;stroke-miterlimit:4" transform="matrix(-.0276 .01487 -.01467 -.02796 30.485 9.59)"/></g><g id="aU" clip-path="url(#j)"><path d="m499.969 226.446-2.38 4.013 2.454 54.906 2.377-54.941Zm0 0" style="fill-rule:nonzero;fill:#17c0eb;fill-opacity:1;stroke-width:.1;stroke-linecap:butt;stroke-linejoin:miter;stroke:#17c0eb;stroke-opacity:1;stroke-miterlimit:4" transform="matrix(-.02248 -.022 .0217 -.02278 17.542 26.543)"/></g><g id="ba" clip-path="url(#k)"><path d="m500.045 226.371-2.452 3.978 2.402 55.014 2.41-54.997Zm0 0" style="fill-rule:nonzero;fill:#17c0eb;fill-opacity:1;stroke-width:.1;stroke-linecap:butt;stroke-linejoin:miter;stroke:#17c0eb;stroke-opacity:1;stroke-miterlimit:4" transform="matrix(.0137 -.02846 .02809 .01388 -2.368 19.308)"/></g><g id="bg" clip-path="url(#l)"><path d="m499.964 226.422-2.36 4.013 2.38 55.011 2.406-55.1Zm0 0" style="fill-rule:nonzero;fill:#17c0eb;fill-opacity:1;stroke-width:.1;stroke-linecap:butt;stroke-linejoin:miter;stroke:#17c0eb;stroke-opacity:1;stroke-miterlimit:4" transform="matrix(.03004 .00873 -.00861 .03044 -.06 -4.014)"/></g><g id="bm" clip-path="url(#m)"><path d="m500.035 226.34-2.486 4.04 2.4 54.993 2.412-54.95Zm0 0" style="fill-rule:nonzero;fill:#17c0eb;fill-opacity:1;stroke-width:.1;stroke-linecap:butt;stroke-linejoin:miter;stroke:#17c0eb;stroke-opacity:1;stroke-miterlimit:4" transform="matrix(.0011 .03165 -.03123 .0011 20.871 -7.098)"/></g><g id="bs" clip-path="url(#n)"><path d="m499.98 226.349-2.383 3.99 2.426 55.098 2.35-55.067Zm0 0" style="fill-rule:nonzero;fill:#17c0eb;fill-opacity:1;stroke-width:.1;stroke-linecap:butt;stroke-linejoin:miter;stroke:#17c0eb;stroke-opacity:1;stroke-miterlimit:4" transform="matrix(-.02937 .01083 -.01069 -.02976 30.234 12.121)"/></g><g id="by" clip-path="url(#o)"><path d="m500.074 226.39-2.459 3.948 2.409 55.022 2.375-54.933Zm0 0" style="fill-rule:nonzero;fill:#17c0eb;fill-opacity:1;stroke-width:.1;stroke-linecap:butt;stroke-linejoin:miter;stroke:#17c0eb;stroke-opacity:1;stroke-miterlimit:4" transform="matrix(-.01924 -.02495 .02463 -.0195 15.09 27.084)"/></g><g id="bE" clip-path="url(#p)"><path d="m499.951 226.428-2.359 4.004 2.384 54.933 2.357-54.964Zm0 0" style="fill-rule:nonzero;fill:#17c0eb;fill-opacity:1;stroke-width:.1;stroke-linecap:butt;stroke-linejoin:miter;stroke:#17c0eb;stroke-opacity:1;stroke-miterlimit:4" transform="matrix(.01747 -.02625 .0259 .0177 -3.634 17.112)"/></g><g id="bK" clip-path="url(#q)"><path d="m499.977 226.441-2.372 3.892 2.372 55.116 2.427-55.092Zm0 0" style="fill-rule:nonzero;fill:#17c0eb;fill-opacity:1;stroke-width:.1;stroke-linecap:butt;stroke-linejoin:miter;stroke:#17c0eb;stroke-opacity:1;stroke-miterlimit:4" transform="matrix(.02855 .01288 -.01271 .02893 1.855 -5.658)"/></g><g id="bQ" clip-path="url(#r)"><path d="m500.06 226.42-2.43 4.026 2.424 54.923 2.29-54.916Zm0 0" style="fill-rule:nonzero;fill:#17c0eb;fill-opacity:1;stroke-width:.1;stroke-linecap:butt;stroke-linejoin:miter;stroke:#17c0eb;stroke-opacity:1;stroke-miterlimit:4" transform="matrix(-.00327 .0315 -.03108 -.00331 23.006 -5.76)"/></g><g id="bW" clip-path="url(#s)"><path d="m500.035 226.418-2.391 4.032 2.37 54.984 2.36-54.987Zm0 0" style="fill-rule:nonzero;fill:#17c0eb;fill-opacity:1;stroke-width:.1;stroke-linecap:butt;stroke-linejoin:miter;stroke:#17c0eb;stroke-opacity:1;stroke-miterlimit:4" transform="matrix(-.03057 .00658 -.0065 -.03097 29.639 14.592)"/></g><g id="cc" clip-path="url(#t)"><path d="m499.972 226.45-2.42 3.943 2.452 54.965 2.368-54.924Zm0 0" style="fill-rule:nonzero;fill:#17c0eb;fill-opacity:1;stroke-width:.1;stroke-linecap:butt;stroke-linejoin:miter;stroke:#17c0eb;stroke-opacity:1;stroke-miterlimit:4" transform="matrix(-.01563 -.02742 .02706 -.01583 12.586 27.273)"/></g><g id="ci" clip-path="url(#u)"><path d="m500.018 226.444-2.38 3.993 2.32 54.933 2.43-55.004Zm0 0" style="fill-rule:nonzero;fill:#17c0eb;fill-opacity:1;stroke-width:.1;stroke-linecap:butt;stroke-linejoin:miter;stroke:#17c0eb;stroke-opacity:1;stroke-miterlimit:4" transform="matrix(.02091 -.02353 .02322 .02119 -4.585 14.758)"/></g><g id="co" clip-path="url(#v)"><path d="m500.038 226.354-2.493 4.03 2.425 55.069 2.446-55.057Zm0 0" style="fill-rule:nonzero;fill:#17c0eb;fill-opacity:1;stroke-width:.1;stroke-linecap:butt;stroke-linejoin:miter;stroke:#17c0eb;stroke-opacity:1;stroke-miterlimit:4" transform="matrix(.0265 .01678 -.01656 .02685 3.977 -7.017)"/></g><g id="cu" clip-path="url(#w)"><path d="m499.95 226.381-2.296 4.05 2.381 54.931 2.32-54.943Zm0 0" style="fill-rule:nonzero;fill:#17c0eb;fill-opacity:1;stroke-width:.1;stroke-linecap:butt;stroke-linejoin:miter;stroke:#17c0eb;stroke-opacity:1;stroke-miterlimit:4" transform="matrix(-.00756 .03073 -.03032 -.00766 24.937 -4.135)"/></g><g id="cA" clip-path="url(#x)"><path d="m499.994 226.448-2.404 3.912 2.415 55.073 2.341-54.987Zm0 0" style="fill-rule:nonzero;fill:#17c0eb;fill-opacity:1;stroke-width:.1;stroke-linecap:butt;stroke-linejoin:miter;stroke:#17c0eb;stroke-opacity:1;stroke-miterlimit:4" transform="matrix(-.03117 .0022 -.00218 -.03159 28.71 16.955)"/></g><g id="cG" clip-path="url(#y)"><path d="m499.974 226.44-2.372 3.895 2.382 55.024 2.391-54.983Zm0 0" style="fill-rule:nonzero;fill:#17c0eb;fill-opacity:1;stroke-width:.1;stroke-linecap:butt;stroke-linejoin:miter;stroke:#17c0eb;stroke-opacity:1;stroke-miterlimit:4" transform="matrix(-.0117 -.02936 .02897 -.01186 10.081 27.108)"/></g><g id="cM" clip-path="url(#z)"><path d="m500.026 226.351-2.438 4.073 2.352 54.953 2.407-54.985Zm0 0" style="fill-rule:nonzero;fill:#17c0eb;fill-opacity:1;stroke-width:.1;stroke-linecap:butt;stroke-linejoin:miter;stroke:#17c0eb;stroke-opacity:1;stroke-miterlimit:4" transform="matrix(.02394 -.02035 .02009 .02426 -5.204 12.293)"/></g><g id="cS" clip-path="url(#A)"><path d="m499.974 226.351-2.32 4.041 2.406 54.985 2.352-54.953Zm0 0" style="fill-rule:nonzero;fill:#17c0eb;fill-opacity:1;stroke-width:.1;stroke-linecap:butt;stroke-linejoin:miter;stroke:#17c0eb;stroke-opacity:1;stroke-miterlimit:4" transform="matrix(.02394 .02035 -.02009 .02426 6.265 -8.062)"/></g><g id="cY" clip-path="url(#B)"><path d="m500.026 226.44-2.401 3.936 2.39 54.983 2.383-55.024Zm0 0" style="fill-rule:nonzero;fill:#17c0eb;fill-opacity:1;stroke-width:.1;stroke-linecap:butt;stroke-linejoin:miter;stroke:#17c0eb;stroke-opacity:1;stroke-miterlimit:4" transform="matrix(-.0117 .02936 -.02897 -.01186 26.625 -2.253)"/></g><g id="de" clip-path="url(#C)"><path d="m500.006 226.448-2.352 3.998 2.341 54.987 2.415-55.073Zm0 0" style="fill-rule:nonzero;fill:#17c0eb;fill-opacity:1;stroke-width:.1;stroke-linecap:butt;stroke-linejoin:miter;stroke:#17c0eb;stroke-opacity:1;stroke-miterlimit:4" transform="matrix(-.03117 -.0022 .00218 -.03159 27.465 19.164)"/></g><g id="dk" clip-path="url(#D)"><path d="m500.05 226.381-2.405 4.038 2.32 54.943 2.38-54.93Zm0 0" style="fill-rule:nonzero;fill:#17c0eb;fill-opacity:1;stroke-width:.1;stroke-linecap:butt;stroke-linejoin:miter;stroke:#17c0eb;stroke-opacity:1;stroke-miterlimit:4" transform="matrix(-.00756 -.03073 .03032 -.00766 7.623 26.591)"/></g><g id="dq" clip-path="url(#E)"><path d="m499.962 226.354-2.378 4.042 2.446 55.057 2.425-55.068Zm0 0" style="fill-rule:nonzero;fill:#17c0eb;fill-opacity:1;stroke-width:.1;stroke-linecap:butt;stroke-linejoin:miter;stroke:#17c0eb;stroke-opacity:1;stroke-miterlimit:4" transform="matrix(.0265 -.01678 .01656 .02685 -5.479 9.764)"/></g><g id="dw" clip-path="url(#F)"><path d="m499.982 226.444-2.37 3.922 2.43 55.004 2.32-54.933Zm0 0" style="fill-rule:nonzero;fill:#17c0eb;fill-opacity:1;stroke-width:.1;stroke-linecap:butt;stroke-linejoin:miter;stroke:#17c0eb;stroke-opacity:1;stroke-miterlimit:4" transform="matrix(.02091 .02353 -.02322 .02119 8.675 -8.775)"/></g><g id="dC" clip-path="url(#G)"><path d="m500.028 226.45-2.4 3.984 2.368 54.924 2.451-54.965Zm0 0" style="fill-rule:nonzero;fill:#17c0eb;fill-opacity:1;stroke-width:.1;stroke-linecap:butt;stroke-linejoin:miter;stroke:#17c0eb;stroke-opacity:1;stroke-miterlimit:4" transform="matrix(-.01563 .02742 -.02706 -.01583 28.04 -.15)"/></g><g id="dI" clip-path="url(#H)"><path d="m499.965 226.418-2.338 4.029 2.359 54.987 2.37-54.984Zm0 0" style="fill-rule:nonzero;fill:#17c0eb;fill-opacity:1;stroke-width:.1;stroke-linecap:butt;stroke-linejoin:miter;stroke:#17c0eb;stroke-opacity:1;stroke-miterlimit:4" transform="matrix(-.03057 -.00658 .0065 -.03097 25.929 21.176)"/></g><g id="dO" clip-path="url(#I)"><path d="m499.94 226.42-2.284 4.033 2.29 54.916 2.424-54.923Zm0 0" style="fill-rule:nonzero;fill:#17c0eb;fill-opacity:1;stroke-width:.1;stroke-linecap:butt;stroke-linejoin:miter;stroke:#17c0eb;stroke-opacity:1;stroke-miterlimit:4" transform="matrix(-.00327 -.0315 .03108 -.00331 5.26 25.732)"/></g><g id="dU" clip-path="url(#J)"><path d="m500.023 226.441-2.427 3.916 2.427 55.092 2.372-55.116Zm0 0" style="fill-rule:nonzero;fill:#17c0eb;fill-opacity:1;stroke-width:.1;stroke-linecap:butt;stroke-linejoin:miter;stroke:#17c0eb;stroke-opacity:1;stroke-miterlimit:4" transform="matrix(.02855 -.01288 .01271 .02893 -5.403 7.222)"/></g><g id="ea" clip-path="url(#K)"><path d="m500.049 226.428-2.382 3.973 2.357 54.964 2.384-54.933Zm0 0" style="fill-rule:nonzero;fill:#17c0eb;fill-opacity:1;stroke-width:.1;stroke-linecap:butt;stroke-linejoin:miter;stroke:#17c0eb;stroke-opacity:1;stroke-miterlimit:4" transform="matrix(.01747 .02625 -.0259 .0177 11.16 -9.141)"/></g><g id="eg" clip-path="url(#L)"><path d="m499.926 226.39-2.325 4.037 2.375 54.933 2.409-55.022Zm0 0" style="fill-rule:nonzero;fill:#17c0eb;fill-opacity:1;stroke-width:.1;stroke-linecap:butt;stroke-linejoin:miter;stroke:#17c0eb;stroke-opacity:1;stroke-miterlimit:4" transform="matrix(-.01924 .02495 -.02463 -.0195 29.15 2.13)"/></g><g id="em" clip-path="url(#M)"><path d="m500.02 226.349-2.394 4.021 2.35 55.067 2.427-55.099Zm0 0" style="fill-rule:nonzero;fill:#17c0eb;fill-opacity:1;stroke-width:.1;stroke-linecap:butt;stroke-linejoin:miter;stroke:#17c0eb;stroke-opacity:1;stroke-miterlimit:4" transform="matrix(-.02937 -.01083 .01069 -.02976 24.131 22.952)"/></g><g id="es" clip-path="url(#N)"><path d="m499.965 226.34-2.326 4.084 2.413 54.95 2.4-54.993Zm0 0" style="fill-rule:nonzero;fill:#17c0eb;fill-opacity:1;stroke-width:.1;stroke-linecap:butt;stroke-linejoin:miter;stroke:#17c0eb;stroke-opacity:1;stroke-miterlimit:4" transform="matrix(.0011 -.03165 .03123 .0011 3.038 24.549)"/></g><g id="ey" clip-path="url(#O)"><path d="m500.036 226.422-2.426 3.924 2.405 55.1 2.38-55.01Zm0 0" style="fill-rule:nonzero;fill:#17c0eb;fill-opacity:1;stroke-width:.1;stroke-linecap:butt;stroke-linejoin:miter;stroke:#17c0eb;stroke-opacity:1;stroke-miterlimit:4" transform="matrix(.03004 -.00873 .00861 .03044 -4.979 4.714)"/></g><g id="eE" clip-path="url(#P)"><path d="m499.955 226.371-2.36 3.995 2.41 54.997 2.402-55.014Zm0 0" style="fill-rule:nonzero;fill:#17c0eb;fill-opacity:1;stroke-width:.1;stroke-linecap:butt;stroke-linejoin:miter;stroke:#17c0eb;stroke-opacity:1;stroke-miterlimit:4" transform="matrix(.0137 .02846 -.02809 .01388 13.67 -9.153)"/></g><g id="eK" clip-path="url(#Q)"><path d="m500.031 226.446-2.451 3.978 2.377 54.94 2.454-54.905Zm0 0" style="fill-rule:nonzero;fill:#17c0eb;fill-opacity:1;stroke-width:.1;stroke-linecap:butt;stroke-linejoin:miter;stroke:#17c0eb;stroke-opacity:1;stroke-miterlimit:4" transform="matrix(-.02248 .022 -.0217 -.02278 29.937 4.546)"/></g><g id="eQ" clip-path="url(#R)"><path d="m500.031 226.45-2.431 3.947 2.368 55.043 2.427-55.077Zm0 0" style="fill-rule:nonzero;fill:#17c0eb;fill-opacity:1;stroke-width:.1;stroke-linecap:butt;stroke-linejoin:miter;stroke:#17c0eb;stroke-opacity:1;stroke-miterlimit:4" transform="matrix(-.0276 -.01487 .01467 -.02796 22.107 24.457)"/></g><g id="eW" clip-path="url(#S)"><path d="m500.023 226.347-2.408 4.106 2.418 54.914 2.329-54.99Zm0 0" style="fill-rule:nonzero;fill:#17c0eb;fill-opacity:1;stroke-width:.1;stroke-linecap:butt;stroke-linejoin:miter;stroke:#17c0eb;stroke-opacity:1;stroke-miterlimit:4" transform="matrix(.00543 -.03119 .03078 .0055 1 23.064)"/></g><g id="fc" clip-path="url(#T)"><path d="m499.976 226.395-2.334 4.032 2.366 55.018 2.44-55.09Zm0 0" style="fill-rule:nonzero;fill:#17c0eb;fill-opacity:1;stroke-width:.1;stroke-linecap:butt;stroke-linejoin:miter;stroke:#17c0eb;stroke-opacity:1;stroke-miterlimit:4" transform="matrix(.03095 -.0044 .00435 .03136 -4.215 2.292)"/></g><linearGradient id="fm" x1="498.7" x2="500.6" y1="289.1" y2="283.4" gradientTransform="matrix(.03125 0 0 .03167 -3.125 0)" gradientUnits="userSpaceOnUse"><stop offset="0" style="stop-color:#510000;stop-opacity:1"/><stop offset=".3" style="stop-color:#8a0000;stop-opacity:1"/><stop offset="1" style="stop-color:#a00;stop-opacity:1"/></linearGradient><linearGradient id="fr" x1="501.4" x2="502.9" y1="291.4" y2="287.4" gradientTransform="matrix(.03125 0 0 .03167 -3.125 0)" gradientUnits="userSpaceOnUse"><stop offset="0" style="stop-color:#ff2a2a;stop-opacity:1"/><stop offset="1" style="stop-color:red;stop-opacity:1"/></linearGradient><linearGradient id="fw" x1="444.5" x2="634.4" y1="317.5" y2="317.5" gradientTransform="matrix(.03125 0 0 .03167 -3.125 0)" gradientUnits="userSpaceOnUse"><stop offset="0" style="stop-color:#025;stop-opacity:1"/><stop offset=".5" style="stop-color:#04a;stop-opacity:1"/><stop offset="1" style="stop-color:#025;stop-opacity:1"/></linearGradient><linearGradient id="fx" x1="444.5" x2="634.4" y1="317.5" y2="317.5" gradientTransform="matrix(.03125 0 0 .03167 -3.125 -.035)" gradientUnits="userSpaceOnUse"><stop offset="0" style="stop-color:#025;stop-opacity:1"/><stop offset=".5" style="stop-color:#04a;stop-opacity:1"/><stop offset="1" style="stop-color:#025;stop-opacity:1"/></linearGradient><linearGradient id="fy" x1="444.5" x2="634.4" y1="317.5" y2="317.5" gradientTransform="matrix(.03125 0 0 .03167 -3.125 -.07)" gradientUnits="userSpaceOnUse"><stop offset="0" style="stop-color:#025;stop-opacity:1"/><stop offset=".5" style="stop-color:#04a;stop-opacity:1"/><stop offset="1" style="stop-color:#025;stop-opacity:1"/></linearGradient><linearGradient id="fz" x1="444.5" x2="634.4" y1="317.5" y2="317.5" gradientTransform="matrix(.03125 0 0 .03167 -3.125 -.104)" gradientUnits="userSpaceOnUse"><stop offset="0" style="stop-color:#025;stop-opacity:1"/><stop offset=".5" style="stop-color:#04a;stop-opacity:1"/><stop offset="1" style="stop-color:#025;stop-opacity:1"/></linearGradient><linearGradient id="fA" x1="444.5" x2="634.4" y1="317.5" y2="317.5" gradientTransform="matrix(.03125 0 0 .03167 -3.125 -.14)" gradientUnits="userSpaceOnUse"><stop offset="0" style="stop-color:#025;stop-opacity:1"/><stop offset=".5" style="stop-color:#04a;stop-opacity:1"/><stop offset="1" style="stop-color:#025;stop-opacity:1"/></linearGradient><linearGradient id="fB" x1="444.5" x2="634.4" y1="317.5" y2="317.5" gradientTransform="matrix(.03125 0 0 .03167 -3.125 -.174)" gradientUnits="userSpaceOnUse"><stop offset="0" style="stop-color:#025;stop-opacity:1"/><stop offset=".5" style="stop-color:#04a;stop-opacity:1"/><stop offset="1" style="stop-color:#025;stop-opacity:1"/></linearGradient><linearGradient id="fE" x1="444.5" x2="634.4" y1="317.5" y2="317.5" gradientTransform="matrix(.03125 0 0 .03167 -3.125 -.212)" gradientUnits="userSpaceOnUse"><stop offset="0" style="stop-color:#025;stop-opacity:1"/><stop offset=".5" style="stop-color:#04a;stop-opacity:1"/><stop offset="1" style="stop-color:#025;stop-opacity:1"/></linearGradient><linearGradient id="fH" x1="444.5" x2="634.4" y1="317.5" y2="317.5" gradientTransform="matrix(.03125 0 0 .03167 -3.125 -.247)" gradientUnits="userSpaceOnUse"><stop offset="0" style="stop-color:#025;stop-opacity:1"/><stop offset=".5" style="stop-color:#04a;stop-opacity:1"/><stop offset="1" style="stop-color:#025;stop-opacity:1"/></linearGradient><linearGradient id="fI" x1="444.5" x2="634.4" y1="317.5" y2="317.5" gradientTransform="matrix(.03125 0 0 .03167 -3.125 -.282)" gradientUnits="userSpaceOnUse"><stop offset="0" style="stop-color:#025;stop-opacity:1"/><stop offset=".5" style="stop-color:#04a;stop-opacity:1"/><stop offset="1" style="stop-color:#025;stop-opacity:1"/></linearGradient><linearGradient id="fJ" x1="444.5" x2="634.4" y1="317.5" y2="317.5" gradientTransform="matrix(.03125 0 0 .03167 -3.125 0)" gradientUnits="userSpaceOnUse"><stop offset="0" style="stop-color:#025;stop-opacity:1"/><stop offset=".5" style="stop-color:#04a;stop-opacity:1"/><stop offset="1" style="stop-color:#025;stop-opacity:1"/></linearGradient><linearGradient id="fO" x1="484.8" x2="484.8" y1="311.7" y2="317.6" gradientTransform="matrix(.03125 0 0 .03167 -3.125 0)" gradientUnits="userSpaceOnUse"><stop offset="0" style="stop-color:#f5f549;stop-opacity:1"/><stop offset="1" style="stop-color:#97c924;stop-opacity:1"/></linearGradient><linearGradient id="fX" x1="484.8" x2="484.8" y1="311.7" y2="317.6" gradientTransform="matrix(.03125 0 0 .03167 -3.603 0)" gradientUnits="userSpaceOnUse"><stop offset="0" style="stop-color:#f5f549;stop-opacity:1"/><stop offset="1" style="stop-color:#97c924;stop-opacity:1"/></linearGradient><linearGradient id="gc" x1="484.8" x2="484.8" y1="311.7" y2="317.6" gradientTransform="matrix(.03125 0 0 .03167 -3.125 0)" gradientUnits="userSpaceOnUse"><stop offset="0" style="stop-color:#f5f549;stop-opacity:1"/><stop offset="1" style="stop-color:#97c924;stop-opacity:1"/></linearGradient><linearGradient id="gp" x1="484.8" x2="484.8" y1="311.7" y2="317.6" gradientTransform="matrix(.03125 0 0 .03167 -3.125 0)" gradientUnits="userSpaceOnUse"><stop offset="0" style="stop-color:#f5f549;stop-opacity:1"/><stop offset="1" style="stop-color:#97c924;stop-opacity:1"/></linearGradient><linearGradient id="gw" x1="484.8" x2="484.8" y1="311.7" y2="317.6" gradientTransform="matrix(.03125 0 0 .03167 -3.606 0)" gradientUnits="userSpaceOnUse"><stop offset="0" style="stop-color:#f5f549;stop-opacity:1"/><stop offset="1" style="stop-color:#97c924;stop-opacity:1"/></linearGradient><linearGradient id="gH" x1="98.9" x2="125" y1="1440.2" y2="1440.2" gradientTransform="matrix(.13929 0 0 .0071 -3.125 0)" gradientUnits="userSpaceOnUse"><stop offset="0" style="stop-color:#025;stop-opacity:1"/><stop offset=".5" style="stop-color:#04a;stop-opacity:1"/><stop offset="1" style="stop-color:#025;stop-opacity:1"/></linearGradient><linearGradient id="gI" x1="47.9" x2="61.7" y1="3054.2" y2="3054.2" gradientTransform="matrix(.28513 0 0 .00347 -3.125 0)" gradientUnits="userSpaceOnUse"><stop offset="0" style="stop-color:#025;stop-opacity:1"/><stop offset=".5" style="stop-color:#04a;stop-opacity:1"/><stop offset="1" style="stop-color:#025;stop-opacity:1"/></linearGradient><linearGradient id="gJ" x1="47.9" x2="61.7" y1="3054.2" y2="3054.2" gradientTransform="matrix(.28513 0 0 .00347 -3.125 -.041)" gradientUnits="userSpaceOnUse"><stop offset="0" style="stop-color:#025;stop-opacity:1"/><stop offset=".5" style="stop-color:#04a;stop-opacity:1"/><stop offset="1" style="stop-color:#025;stop-opacity:1"/></linearGradient><linearGradient id="gK" x1="47.9" x2="61.7" y1="3054.2" y2="3054.2" gradientTransform="matrix(.28513 0 0 .00347 -3.125 -.082)" gradientUnits="userSpaceOnUse"><stop offset="0" style="stop-color:#025;stop-opacity:1"/><stop offset=".5" style="stop-color:#04a;stop-opacity:1"/><stop offset="1" style="stop-color:#025;stop-opacity:1"/></linearGradient><linearGradient id="gL" x1="47.9" x2="61.7" y1="3054.2" y2="3054.2" gradientTransform="matrix(.28513 0 0 .00347 -3.125 -.123)" gradientUnits="userSpaceOnUse"><stop offset="0" style="stop-color:#025;stop-opacity:1"/><stop offset=".5" style="stop-color:#04a;stop-opacity:1"/><stop offset="1" style="stop-color:#025;stop-opacity:1"/></linearGradient><linearGradient id="gM" x1="47.9" x2="61.7" y1="3054.2" y2="3054.2" gradientTransform="matrix(.28513 0 0 .00347 -3.125 -.165)" gradientUnits="userSpaceOnUse"><stop offset="0" style="stop-color:#025;stop-opacity:1"/><stop offset=".5" style="stop-color:#04a;stop-opacity:1"/><stop offset="1" style="stop-color:#025;stop-opacity:1"/></linearGradient><linearGradient id="gN" x1="47.9" x2="61.7" y1="3054.2" y2="3054.2" gradientTransform="matrix(.28513 0 0 .00347 -3.125 -.206)" gradientUnits="userSpaceOnUse"><stop offset="0" style="stop-color:#025;stop-opacity:1"/><stop offset=".5" style="stop-color:#04a;stop-opacity:1"/><stop offset="1" style="stop-color:#025;stop-opacity:1"/></linearGradient><linearGradient id="gO" x1="47.9" x2="61.7" y1="3054.2" y2="3054.2" gradientTransform="matrix(.28513 0 0 .00347 -3.125 -.244)" gradientUnits="userSpaceOnUse"><stop offset="0" style="stop-color:#025;stop-opacity:1"/><stop offset=".5" style="stop-color:#04a;stop-opacity:1"/><stop offset="1" style="stop-color:#025;stop-opacity:1"/></linearGradient><linearGradient id="gP" x1="47.9" x2="61.7" y1="3054.2" y2="3054.2" gradientTransform="matrix(.28513 0 0 .00347 -3.125 -.285)" gradientUnits="userSpaceOnUse"><stop offset="0" style="stop-color:#025;stop-opacity:1"/><stop offset=".5" style="stop-color:#04a;stop-opacity:1"/><stop offset="1" style="stop-color:#025;stop-opacity:1"/></linearGradient><linearGradient id="gQ" x1="47.9" x2="61.7" y1="3054.2" y2="3054.2" gradientTransform="matrix(.28513 0 0 .00347 -3.125 -.326)" gradientUnits="userSpaceOnUse"><stop offset="0" style="stop-color:#025;stop-opacity:1"/><stop offset=".5" style="stop-color:#04a;stop-opacity:1"/><stop offset="1" style="stop-color:#025;stop-opacity:1"/></linearGradient><filter id="a" width="100%" height="100%" x="0%" y="0%" filterUnits="objectBoundingBox"><feColorMatrix in="SourceGraphic" values="0 0 0 0 1 0 0 0 0 1 0 0 0 0 1 0 0 0 1 0"/></filter></defs><path d="M0 0h25v19H0z" style="fill:#0067c6;fill-opacity:1;stroke:none"/><path d="M0 6.332h25v6.336H0Zm0 0" style="stroke:none;fill-rule:nonzero;fill:#fff;fill-opacity:1"/><path d="M9.688 9.48 10 9.5v-.047l-.117-.008.008-.152.129-.094.003-.058-.136.097a.1.1 0 0 0-.055-.078.1.1 0 0 0-.09.012.12.12 0 0 0-.039.098Zm.046-.043.012-.16q.001-.04.031-.07a.04.04 0 0 1 .036-.004q.017.006.023.024.017.059.004.128l-.004.086Zm-.007-.445.304.074.07-.3-.042-.012-.059.254-.094-.02.055-.226-.043-.016-.055.23-.078-.019.055-.246-.047-.008Zm.109-.414.297.106.015-.043-.117-.04.047-.136a.2.2 0 0 0-.004-.121.12.12 0 0 0-.078-.04.09.09 0 0 0-.078.06.5.5 0 0 0-.05.136Zm.059-.027.046-.137a.15.15 0 0 1 .051-.059q.02-.002.031.008c.008.008.016.016.016.028.008.039-.012.082-.023.12l-.028.075ZM10 8.195l.168.102q.053.028.105.008a.3.3 0 0 0 .094-.117c.016-.043.031-.09.008-.13a.3.3 0 0 0-.105-.078l-.106-.062-.023.039.156.094a.08.08 0 0 1 .043.074.24.24 0 0 1-.047.102.1.1 0 0 1-.078.039.4.4 0 0 1-.086-.047l-.106-.063L10 8.2Zm.227-.37.246.19.117-.152a.14.14 0 0 0 .027-.117.13.13 0 0 0-.078-.055.1.1 0 0 0-.047.016c.008-.035-.02-.066-.047-.074-.039-.012-.078.012-.101.039l-.078.098Zm.062-.013q.04-.057.086-.109c.016-.016.04-.039.059-.023.02.008.027.035.015.05a.3.3 0 0 1-.062.09l-.032.043Zm.102.083.09-.122c.015-.015.039-.039.062-.03q.039.01.031.05a.4.4 0 0 1-.07.11l-.04.05Zm.117-.407.215.23.183-.179-.031-.031-.148.144h-.004l-.184-.199Zm.273-.246.192.25.039-.027-.196-.25Zm.281-.191a.2.2 0 0 0-.078.07.16.16 0 0 0-.004.168.2.2 0 0 0 .063.059q.035.016.078.015a.3.3 0 0 0 .106-.039.2.2 0 0 0 .078-.082.13.13 0 0 0 .011-.094l-.039.016c.008.063-.03.094-.078.121q-.11.071-.18-.023c-.042-.074 0-.133.063-.172.043-.027.086-.047.125-.02l.035-.03a.1.1 0 0 0-.078-.024.16.16 0 0 0-.101.039Zm.372-.188-.036.356.051-.02.008-.11.156-.062.086.07.047-.019-.266-.234Zm.039.04.105.09-.117.046Zm.644-.239.02.32.168-.011c.05 0 .093-.02.12-.055.04-.04.048-.106.028-.16a.17.17 0 0 0-.105-.098 1 1 0 0 0-.141 0l-.09.008Zm.047.047.137-.004a.1.1 0 0 1 .07.02c.035.023.05.058.047.097-.008.043-.035.082-.078.094a.3.3 0 0 1-.074.012l-.086.004Zm.39-.063-.019.317.305.02v-.048l-.258-.015.004-.094.234.012v-.043l-.23-.012.004-.086.25.016v-.05Zm.813.133-.113.297.039.016.094-.239v-.007l.008.011.109.317.05.02.114-.298-.04-.015-.089.238-.004.008-.008-.012-.105-.316Zm.422.184-.144.277-.04-.02.141-.28Zm.234.14a.3.3 0 0 0-.093-.039.16.16 0 0 0-.157.059.15.15 0 0 0-.023.082.2.2 0 0 0 .023.086q.024.035.079.078.046.031.105.04a.16.16 0 0 0 .086-.028l-.031-.035c-.055.039-.098.011-.14-.016q-.114-.075-.056-.18c.047-.07.121-.05.184-.011.04.027.078.058.07.105l.04.016a.14.14 0 0 0-.012-.078.2.2 0 0 0-.075-.079m.297.227-.324.133.04.035.1-.04.13.114-.028.106.04.035.081-.348Zm-.011.055-.032.133-.097-.079Zm.25.164-.243.199.028.04.097-.08.094.118-.027.16.035.043.031-.168a.09.09 0 0 0 .098.02q.047-.029.055-.074a.2.2 0 0 0-.051-.11Zm-.008.066.101.125c.016.024.036.055.016.078-.012.024-.043.024-.063.008a.5.5 0 0 1-.093-.101l-.04-.043Zm.37.438-.35.015.027.047.109-.004.086.153-.063.09.028.046.191-.3Zm-.026.047-.079.12-.058-.113Zm.23.375a.25.25 0 0 0-.105-.137.155.155 0 0 0-.176.039.17.17 0 0 0-.028.156q.02.095.079.16l-.024.008.016.043.148-.05-.058-.16-.032.01.04.118-.047.02a.27.27 0 0 1-.083-.149.14.14 0 0 1 .02-.129c.04-.039.102-.05.145-.02a.23.23 0 0 1 .078.137q.018.06-.016.102-.007.005.004.016l.012.02a.1.1 0 0 0 .043-.087.3.3 0 0 0-.016-.097m.09.246-.176.03a.14.14 0 0 0-.074.036.1.1 0 0 0-.031.059v.093c.011.04.023.067.039.09q.017.043.047.043c.027.004.05.004.078 0l.175-.035-.007-.043-.172.031c-.078.016-.102-.023-.117-.093s0-.118.074-.13l.172-.034Zm.094.539-.325-.14.004.054.102.039.012.176-.094.058.004.051.3-.187Zm-.047.027-.117.078-.008-.129Zm-5.332.793-.047.012.05.195.047-.012Zm5.14 0 .047.012-.05.195-.047-.012Zm-4.656.813-.351.039.03.043.11-.012.094.14-.055.102.031.04.168-.31Zm-.027.05-.067.117-.07-.101Zm.16.14-.223.212.031.031.188-.176-.102.274.04.039.265-.082-.184.172.032.03.222-.21-.046-.047-.274.078.102-.261Zm.324.333-.187.258.242.183.027-.035-.207-.16.059-.078.183.148.028-.043-.184-.136.05-.067.196.149.027-.04Zm.305.23-.145.278.04.023.058-.11.133.071.031.16.05.028-.034-.168q.057.023.097-.024a.08.08 0 0 0 .024-.082c-.008-.039-.051-.062-.082-.082Zm.02.059.14.082c.023.016.05.035.047.063 0 .027-.028.039-.051.035a.5.5 0 0 1-.125-.055l-.059-.031Zm.335.129-.117.293.04.02.116-.294Zm.281.098a.3.3 0 0 0-.101-.016.16.16 0 0 0-.133.102.16.16 0 0 0 0 .085q-.001.043.04.079a.2.2 0 0 0 .093.05.2.2 0 0 0 .113.008.11.11 0 0 0 .078-.047l-.039-.023c-.039.05-.09.039-.14.02-.082-.028-.118-.079-.098-.157.027-.082.105-.082.172-.062.047.015.09.039.094.086l.046.007a.13.13 0 0 0-.035-.082.2.2 0 0 0-.09-.05m.313.07-.203.289.05.008.063-.09.172.027.035.106.051.008-.117-.34Zm.02.055.046.132-.125-.02Zm.714-.051a.3.3 0 0 0-.093.039.16.16 0 0 0-.067.152.14.14 0 0 0 .04.078q.022.029.07.04a.17.17 0 0 0 .109 0 .2.2 0 0 0 .102-.047.12.12 0 0 0 .043-.079h-.047c-.012.063-.059.079-.11.086-.086.016-.14-.011-.16-.09-.016-.082.05-.12.117-.136.051-.008.098-.012.125.027l.04-.015a.12.12 0 0 0-.063-.055.24.24 0 0 0-.106 0m.207-.04.09.305.293-.085-.015-.043-.246.074-.028-.094.223-.066-.012-.043-.223.066-.023-.082.234-.07-.011-.043Zm.34-.105.13.29.038-.02-.11-.238.306.14h.02l.038-.023-.133-.29-.039.024.11.234-.313-.14Zm.344-.164.023.043.11-.082h.008l.144.227.04-.028-.145-.222v-.004l.113-.078-.023-.035Zm.313-.219.21.235.036-.035-.082-.09.109-.102.156.024.047-.04-.168-.023a.11.11 0 0 0 .008-.105q-.024-.047-.074-.047c-.04 0-.078.031-.106.055Zm.062.004.117-.113c.024-.016.055-.035.078-.02q.042.03.012.063a.6.6 0 0 1-.094.106l-.043.039-.07-.079Zm.3-.375.141.332.032-.043-.04-.101.106-.133.106.024.035-.04-.344-.082Zm.055.012.137.031-.078.098Zm.082-.187.262.168.137-.211-.04-.024-.105.168-.004.008h-.003l-.223-.148Zm0 0" style="stroke:none;fill-rule:nonzero;fill:#c8a400;fill-opacity:1"/><g clip-path="url(#U)"><g clip-path="url(#V)"><path d="m12.5 7.168-.984 1.727-.48.847h2.929l-.457-.805Zm0 0" style="stroke:none;fill-rule:nonzero;fill:#fff;fill-opacity:1"/></g></g><g clip-path="url(#W)"><g clip-path="url(#X)"><use xlink:href="#Y" mask="url(#Z)"/></g></g><g clip-path="url(#aa)"><g clip-path="url(#ab)"><path d="M12.5 8.79h-.004l.004.093.004-.094Zm0 0" style="stroke:none;fill-rule:nonzero;fill:#fff;fill-opacity:1"/></g></g><g clip-path="url(#ac)"><g clip-path="url(#ad)"><use xlink:href="#ae" mask="url(#af)"/></g></g><g clip-path="url(#ag)"><g clip-path="url(#ah)"><path d="m12.738 8.96-.09.032.09-.027Zm0 0" style="stroke:none;fill-rule:nonzero;fill:#fff;fill-opacity:1"/></g></g><g clip-path="url(#ai)"><g clip-path="url(#aj)"><use xlink:href="#ak" mask="url(#al)"/></g></g><g clip-path="url(#am)"><g clip-path="url(#an)"><path d="M12.648 9.246v-.004l-.054-.074.05.078Zm0 0" style="stroke:none;fill-rule:nonzero;fill:#fff;fill-opacity:1"/></g></g><g clip-path="url(#ao)"><g clip-path="url(#ap)"><use xlink:href="#aq" mask="url(#ar)"/></g></g><g clip-path="url(#as)"><g clip-path="url(#at)"><path d="M12.352 9.246h.003l.051-.078-.054.074Zm0 0" style="stroke:none;fill-rule:nonzero;fill:#fff;fill-opacity:1"/></g></g><g clip-path="url(#au)"><g clip-path="url(#av)"><use xlink:href="#aw" mask="url(#ax)"/></g></g><g clip-path="url(#ay)"><g clip-path="url(#az)"><path d="M12.262 8.96v.005l.09.027Zm0 0" style="stroke:none;fill-rule:nonzero;fill:#fff;fill-opacity:1"/></g></g><g clip-path="url(#aA)"><g clip-path="url(#aB)"><use xlink:href="#aC" mask="url(#aD)"/></g></g><g clip-path="url(#aE)"><g clip-path="url(#aF)"><path d="M12.535 8.79h-.004l-.008.093.016-.094Zm0 0" style="stroke:none;fill-rule:nonzero;fill:#fff;fill-opacity:1"/></g></g><g clip-path="url(#aG)"><g clip-path="url(#aH)"><use xlink:href="#aI" mask="url(#aJ)"/></g></g><g clip-path="url(#aK)"><g clip-path="url(#aL)"><path d="M12.746 8.996v-.004l-.094.02.094-.012Zm0 0" style="stroke:none;fill-rule:nonzero;fill:#fff;fill-opacity:1"/></g></g><g clip-path="url(#aM)"><g clip-path="url(#aN)"><use xlink:href="#aO" mask="url(#aP)"/></g></g><g clip-path="url(#aQ)"><g clip-path="url(#aR)"><path d="m12.617 9.266.004-.004-.047-.082.04.086Zm0 0" style="stroke:none;fill-rule:nonzero;fill:#fff;fill-opacity:1"/></g></g><g clip-path="url(#aS)"><g clip-path="url(#aT)"><use xlink:href="#aU" mask="url(#aV)"/></g></g><g clip-path="url(#aW)"><g clip-path="url(#aX)"><path d="M12.328 9.223v.004l.063-.07-.067.066Zm0 0" style="stroke:none;fill-rule:nonzero;fill:#fff;fill-opacity:1"/></g></g><g clip-path="url(#aY)"><g clip-path="url(#aZ)"><use xlink:href="#ba" mask="url(#bb)"/></g></g><g clip-path="url(#bc)"><g clip-path="url(#bd)"><path d="M12.273 8.93v.004l.086.039-.082-.047Zm0 0" style="stroke:none;fill-rule:nonzero;fill:#fff;fill-opacity:1"/></g></g><g clip-path="url(#be)"><g clip-path="url(#bf)"><use xlink:href="#bg" mask="url(#bh)"/></g></g><g clip-path="url(#bi)"><g clip-path="url(#bj)"><path d="M12.57 8.797h-.004l-.023.09Zm0 0" style="stroke:none;fill-rule:nonzero;fill:#fff;fill-opacity:1"/></g></g><g clip-path="url(#bk)"><g clip-path="url(#bl)"><use xlink:href="#bm" mask="url(#bn)"/></g></g><g clip-path="url(#bo)"><g clip-path="url(#bp)"><path d="M12.75 9.031v-.004l-.094.008h.094Zm0 0" style="stroke:none;fill-rule:nonzero;fill:#fff;fill-opacity:1"/></g></g><g clip-path="url(#bq)"><g clip-path="url(#br)"><use xlink:href="#bs" mask="url(#bt)"/></g></g><g clip-path="url(#bu)"><g clip-path="url(#bv)"><path d="M12.586 9.277h.004l-.035-.086.027.09Zm0 0" style="stroke:none;fill-rule:nonzero;fill:#fff;fill-opacity:1"/></g></g><g clip-path="url(#bw)"><g clip-path="url(#bx)"><use xlink:href="#by" mask="url(#bz)"/></g></g><g clip-path="url(#bA)"><g clip-path="url(#bB)"><path d="M12.305 9.195V9.2l.07-.062-.074.058Zm0 0" style="stroke:none;fill-rule:nonzero;fill:#fff;fill-opacity:1"/></g></g><g clip-path="url(#bC)"><g clip-path="url(#bD)"><use xlink:href="#bE" mask="url(#bF)"/></g></g><g clip-path="url(#bG)"><g clip-path="url(#bH)"><path d="m12.293 8.898-.004.004.082.051Zm0 0" style="stroke:none;fill-rule:nonzero;fill:#fff;fill-opacity:1"/></g></g><g clip-path="url(#bI)"><g clip-path="url(#bJ)"><use xlink:href="#bK" mask="url(#bL)"/></g></g><g clip-path="url(#bM)"><g clip-path="url(#bN)"><path d="M12.602 8.809h-.004l-.036.086.043-.082Zm0 0" style="stroke:none;fill-rule:nonzero;fill:#fff;fill-opacity:1"/></g></g><g clip-path="url(#bO)"><g clip-path="url(#bP)"><use xlink:href="#bQ" mask="url(#bR)"/></g></g><g clip-path="url(#bS)"><g clip-path="url(#bT)"><path d="M12.75 9.066v-.004l-.094-.003.094.011Zm0 0" style="stroke:none;fill-rule:nonzero;fill:#fff;fill-opacity:1"/></g></g><g clip-path="url(#bU)"><g clip-path="url(#bV)"><use xlink:href="#bW" mask="url(#bX)"/></g></g><g clip-path="url(#bY)"><g clip-path="url(#bZ)"><path d="M12.55 9.29h.005l-.024-.095Zm0 0" style="stroke:none;fill-rule:nonzero;fill:#fff;fill-opacity:1"/></g></g><g clip-path="url(#ca)"><g clip-path="url(#cb)"><use xlink:href="#cc" mask="url(#cd)"/></g></g><g clip-path="url(#ce)"><g clip-path="url(#cf)"><path d="M12.285 9.168v.004l.078-.05-.082.042Zm0 0" style="stroke:none;fill-rule:nonzero;fill:#fff;fill-opacity:1"/></g></g><g clip-path="url(#cg)"><g clip-path="url(#ch)"><use xlink:href="#ci" mask="url(#cj)"/></g></g><g clip-path="url(#ck)"><g clip-path="url(#cl)"><path d="M12.313 8.871v.004l.07.059-.067-.067Zm0 0" style="stroke:none;fill-rule:nonzero;fill:#fff;fill-opacity:1"/></g></g><g clip-path="url(#cm)"><g clip-path="url(#cn)"><use xlink:href="#co" mask="url(#cp)"/></g></g><g clip-path="url(#cq)"><g clip-path="url(#cr)"><path d="M12.633 8.824h-.004l-.047.082.055-.078Zm0 0" style="stroke:none;fill-rule:nonzero;fill:#fff;fill-opacity:1"/></g></g><g clip-path="url(#cs)"><g clip-path="url(#ct)"><use xlink:href="#cu" mask="url(#cv)"/></g></g><g clip-path="url(#cw)"><g clip-path="url(#cx)"><path d="M12.742 9.102v-.004l-.09-.02.09.027Zm0 0" style="stroke:none;fill-rule:nonzero;fill:#fff;fill-opacity:1"/></g></g><g clip-path="url(#cy)"><g clip-path="url(#cz)"><use xlink:href="#cA" mask="url(#cB)"/></g></g><g clip-path="url(#cC)"><g clip-path="url(#cD)"><path d="M12.516 9.293h.004l-.008-.094Zm0 0" style="stroke:none;fill-rule:nonzero;fill:#fff;fill-opacity:1"/></g></g><g clip-path="url(#cE)"><g clip-path="url(#cF)"><use xlink:href="#cG" mask="url(#cH)"/></g></g><g clip-path="url(#cI)"><g clip-path="url(#cJ)"><path d="m12.27 9.137.085-.035-.09.03Zm0 0" style="stroke:none;fill-rule:nonzero;fill:#fff;fill-opacity:1"/></g></g><g clip-path="url(#cK)"><g clip-path="url(#cL)"><use xlink:href="#cM" mask="url(#cN)"/></g></g><g clip-path="url(#cO)"><g clip-path="url(#cP)"><path d="M12.34 8.848h-.004l.062.07-.058-.074Zm0 0" style="stroke:none;fill-rule:nonzero;fill:#fff;fill-opacity:1"/></g></g><g clip-path="url(#cQ)"><g clip-path="url(#cR)"><use xlink:href="#cS" mask="url(#cT)"/></g></g><g clip-path="url(#cU)"><g clip-path="url(#cV)"><path d="M12.66 8.848v-.004l-.058.074.062-.07Zm0 0" style="stroke:none;fill-rule:nonzero;fill:#fff;fill-opacity:1"/></g></g><g clip-path="url(#cW)"><g clip-path="url(#cX)"><use xlink:href="#cY" mask="url(#cZ)"/></g></g><g clip-path="url(#da)"><g clip-path="url(#db)"><path d="m12.73 9.137.004-.004-.09-.031Zm0 0" style="stroke:none;fill-rule:nonzero;fill:#fff;fill-opacity:1"/></g></g><g clip-path="url(#dc)"><g clip-path="url(#dd)"><use xlink:href="#de" mask="url(#df)"/></g></g><g clip-path="url(#dg)"><g clip-path="url(#dh)"><path d="m12.484 9.293.004-.094-.008.094Zm0 0" style="stroke:none;fill-rule:nonzero;fill:#fff;fill-opacity:1"/></g></g><g clip-path="url(#di)"><g clip-path="url(#dj)"><use xlink:href="#dk" mask="url(#dl)"/></g></g><g clip-path="url(#dm)"><g clip-path="url(#dn)"><path d="M12.258 9.102v.003l.09-.027-.09.02Zm0 0" style="stroke:none;fill-rule:nonzero;fill:#fff;fill-opacity:1"/></g></g><g clip-path="url(#do)"><g clip-path="url(#dp)"><use xlink:href="#dq" mask="url(#dr)"/></g></g><g clip-path="url(#ds)"><g clip-path="url(#dt)"><path d="m12.367 8.824-.004.004.055.078-.047-.082Zm0 0" style="stroke:none;fill-rule:nonzero;fill:#fff;fill-opacity:1"/></g></g><g clip-path="url(#du)"><g clip-path="url(#dv)"><use xlink:href="#dw" mask="url(#dx)"/></g></g><g clip-path="url(#dy)"><g clip-path="url(#dz)"><path d="m12.688 8.871-.004-.004-.067.067.07-.059Zm0 0" style="stroke:none;fill-rule:nonzero;fill:#fff;fill-opacity:1"/></g></g><g clip-path="url(#dA)"><g clip-path="url(#dB)"><use xlink:href="#dC" mask="url(#dD)"/></g></g><g clip-path="url(#dE)"><g clip-path="url(#dF)"><path d="m12.715 9.168.004-.004-.082-.043.078.05Zm0 0" style="stroke:none;fill-rule:nonzero;fill:#fff;fill-opacity:1"/></g></g><g clip-path="url(#dG)"><g clip-path="url(#dH)"><use xlink:href="#dI" mask="url(#dJ)"/></g></g><g clip-path="url(#dK)"><g clip-path="url(#dL)"><path d="m12.45 9.29.019-.095-.024.094Zm0 0" style="stroke:none;fill-rule:nonzero;fill:#fff;fill-opacity:1"/></g></g><g clip-path="url(#dM)"><g clip-path="url(#dN)"><use xlink:href="#dO" mask="url(#dP)"/></g></g><g clip-path="url(#dQ)"><g clip-path="url(#dR)"><path d="M12.25 9.066v.004l.094-.011-.094.004Zm0 0" style="stroke:none;fill-rule:nonzero;fill:#fff;fill-opacity:1"/></g></g><g clip-path="url(#dS)"><g clip-path="url(#dT)"><use xlink:href="#dU" mask="url(#dV)"/></g></g><g clip-path="url(#dW)"><g clip-path="url(#dX)"><path d="m12.398 8.809-.003.004.043.082-.036-.086Zm0 0" style="stroke:none;fill-rule:nonzero;fill:#fff;fill-opacity:1"/></g></g><g clip-path="url(#dY)"><g clip-path="url(#dZ)"><use xlink:href="#ea" mask="url(#eb)"/></g></g><g clip-path="url(#ec)"><g clip-path="url(#ed)"><path d="m12.707 8.898-.078.055.082-.05Zm0 0" style="stroke:none;fill-rule:nonzero;fill:#fff;fill-opacity:1"/></g></g><g clip-path="url(#ee)"><g clip-path="url(#ef)"><use xlink:href="#eg" mask="url(#eh)"/></g></g><g clip-path="url(#ei)"><g clip-path="url(#ej)"><path d="M12.695 9.195h.004l-.074-.058.07.062Zm0 0" style="stroke:none;fill-rule:nonzero;fill:#fff;fill-opacity:1"/></g></g><g clip-path="url(#ek)"><g clip-path="url(#el)"><use xlink:href="#em" mask="url(#en)"/></g></g><g clip-path="url(#eo)"><g clip-path="url(#ep)"><path d="m12.414 9.277.004.004.027-.09-.035.086Zm0 0" style="stroke:none;fill-rule:nonzero;fill:#fff;fill-opacity:1"/></g></g><g clip-path="url(#eq)"><g clip-path="url(#er)"><use xlink:href="#es" mask="url(#et)"/></g></g><g clip-path="url(#eu)"><g clip-path="url(#ev)"><path d="M12.25 9.031v.004h.094l-.094-.008Zm0 0" style="stroke:none;fill-rule:nonzero;fill:#fff;fill-opacity:1"/></g></g><g clip-path="url(#ew)"><g clip-path="url(#ex)"><use xlink:href="#ey" mask="url(#ez)"/></g></g><g clip-path="url(#eA)"><g clip-path="url(#eB)"><path d="m12.43 8.797.027.09-.023-.09Zm0 0" style="stroke:none;fill-rule:nonzero;fill:#fff;fill-opacity:1"/></g></g><g clip-path="url(#eC)"><g clip-path="url(#eD)"><use xlink:href="#eE" mask="url(#eF)"/></g></g><g clip-path="url(#eG)"><g clip-path="url(#eH)"><path d="m12.727 8.93-.004-.004-.082.047.086-.04Zm0 0" style="stroke:none;fill-rule:nonzero;fill:#fff;fill-opacity:1"/></g></g><g clip-path="url(#eI)"><g clip-path="url(#eJ)"><use xlink:href="#eK" mask="url(#eL)"/></g></g><g clip-path="url(#eM)"><g clip-path="url(#eN)"><path d="M12.672 9.223h.004l-.067-.067.063.07Zm0 0" style="stroke:none;fill-rule:nonzero;fill:#fff;fill-opacity:1"/></g></g><g clip-path="url(#eO)"><g clip-path="url(#eP)"><use xlink:href="#eQ" mask="url(#eR)"/></g></g><g clip-path="url(#eS)"><g clip-path="url(#eT)"><path d="M12.383 9.266h.004l.039-.086-.047.082Zm0 0" style="stroke:none;fill-rule:nonzero;fill:#fff;fill-opacity:1"/></g></g><g clip-path="url(#eU)"><g clip-path="url(#eV)"><use xlink:href="#eW" mask="url(#eX)"/></g></g><g clip-path="url(#eY)"><g clip-path="url(#eZ)"><path d="M12.254 8.996V9l.094.012-.094-.02Zm0 0" style="stroke:none;fill-rule:nonzero;fill:#fff;fill-opacity:1"/></g></g><g clip-path="url(#fa)"><g clip-path="url(#fb)"><use xlink:href="#fc" mask="url(#fd)"/></g></g><g clip-path="url(#fe)"><g clip-path="url(#ff)"><path d="M12.465 8.79h-.004l.016.093-.008-.094Zm0 0" style="stroke:none;fill-rule:nonzero;fill:#fff;fill-opacity:1"/></g></g><g clip-path="url(#fg)"><g clip-path="url(#fh)"><path d="M12.5 8.418a1.38 1.38 0 0 0-.906.34l-.457.805a1.5 1.5 0 0 0-.024.261h.157a1.24 1.24 0 0 1 1.23-1.183c.656 0 1.195.523 1.227 1.183h.156a1.2 1.2 0 0 0-.02-.261l-.457-.805a1.38 1.38 0 0 0-.906-.34" style="stroke:none;fill-rule:nonzero;fill:red;fill-opacity:1"/><path d="M12.5 8.445c-.352 0-.691.14-.945.387l-.375.66q-.042.164-.043.332h.136a1.237 1.237 0 0 1 1.227-1.16c.645 0 1.184.508 1.227 1.16h.136q0-.171-.043-.332l-.375-.66a1.36 1.36 0 0 0-.945-.387" style="stroke:none;fill-rule:nonzero;fill:#f60;fill-opacity:1"/><path d="M12.5 8.473c-.383 0-.746.164-1 .449l-.273.476a1.4 1.4 0 0 0-.063.426h.106a1.24 1.24 0 0 1 1.23-1.183c.656 0 1.195.523 1.227 1.183h.109c0-.144-.02-.289-.063-.422l-.277-.48a1.34 1.34 0 0 0-.996-.45" style="stroke:none;fill-rule:nonzero;fill:#ff0;fill-opacity:1"/><path d="M12.5 8.496c-.437 0-.848.223-1.09.59l-.09.156c-.086.18-.133.383-.133.582h.086A1.234 1.234 0 0 1 12.5 8.668c.645 0 1.184.504 1.227 1.156h.085c0-.199-.046-.402-.132-.582l-.09-.16a1.31 1.31 0 0 0-1.09-.59Zm0 0" style="stroke:none;fill-rule:nonzero;fill:#0f0;fill-opacity:1"/><path d="M12.5 8.52a1.26 1.26 0 0 0-.914.378 1.32 1.32 0 0 0-.375.926h.062A1.234 1.234 0 0 1 12.5 8.668c.645 0 1.184.504 1.227 1.156h.062c0-.344-.133-.68-.375-.926a1.26 1.26 0 0 0-.914-.378" style="stroke:none;fill-rule:nonzero;fill:#0cf;fill-opacity:1"/><path d="M12.5 8.543c-.695 0-1.262.574-1.262 1.281h.043c0-.683.547-1.234 1.219-1.234s1.219.55 1.219 1.234h.043A1.27 1.27 0 0 0 12.5 8.551Zm0 0" style="stroke:none;fill-rule:nonzero;fill:#00f;fill-opacity:1"/><path d="M12.5 8.57a1.24 1.24 0 0 0-.883.375c-.234.242-.36.567-.355.903h.027v-.024a1.22 1.22 0 0 1 1.223-1.219 1.22 1.22 0 0 1 1.199 1.243h.027v-.024c0-.695-.554-1.254-1.238-1.254m0 0" style="stroke:none;fill-rule:nonzero;fill:purple;fill-opacity:1"/></g></g><g clip-path="url(#fi)"><g clip-path="url(#fj)"><path d="M12.512 9.125c-.02 0-.035-.02-.055-.02q-.03.025-.023.067c.011.004.011.012.027.027.02.016.016.024.016.063 0 .011 0 .047.015.05q.03.005.035-.039a.1.1 0 0 1 .024-.05c.008-.059-.008-.082-.04-.098" style="stroke:none;fill-rule:nonzero;fill:#510000;fill-opacity:1"/></g></g><g clip-path="url(#fk)"><g clip-path="url(#fl)"><path d="M12.414 8.977c-.02 0-.05.03-.062.015q-.018-.018 0-.043a.14.14 0 0 1 .066-.074c.07-.043.125-.031.156.031.035.059.07.121.074.172 0 .016.008.047-.007.063-.04.043-.145-.051-.203-.036-.02.004-.043.02-.063.008-.012-.008 0-.031.008-.039a.2.2 0 0 0 .047-.101c0-.016 0 .004-.016.004" style="stroke:none;fill-rule:nonzero;fill:red;fill-opacity:1"/><path d="M12.406 8.95c-.039.01-.031.03-.05.046.007.004.027.012.042-.008q.012-.011.024-.011L12.398 9a.2.2 0 0 0-.043.059c-.007.023-.011.05-.007.054 0 0 .011.028.047.04.062.023.074.077.14.077.05 0 .043-.035.082-.027.031.004.055-.023.02-.039a.4.4 0 0 0-.168 0c-.012-.125 0-.082-.004-.14-.004-.051-.02-.055 0-.102-.016.031-.035.023-.063.023Zm0 0" style="stroke:none;fill-rule:nonzero;fill:url(#fm)"/></g></g><g clip-path="url(#fn)"><g clip-path="url(#fo)"><path d="m12.531 8.86-.004.019.012.031.004.031a.04.04 0 0 0 .023.02c.012.012 0 .031.008.035.008 0 .016-.031.016-.039v-.02l-.02-.039-.035-.035-.008-.004Zm0 0" style="stroke:none;fill-rule:nonzero;fill:#ff2a2a;fill-opacity:1"/></g></g><g clip-path="url(#fp)"><g clip-path="url(#fq)"><path d="m12.54 9.102-.063-.024c-.04-.012-.079-.039-.11-.023q-.012.002-.012.027c0 .016-.015.043 0 .031.016-.008.075.028.094.035.012.008.031.02.035.032.008.02 0 .058 0 .078 0 .015.008.055.024.062.02 0 .031-.011.039-.043a1 1 0 0 1 .023-.058q.022-.029.043-.028c.02 0 .043.016.043-.007 0-.012-.011-.028-.008-.043.004-.016-.011-.016-.027-.02Zm0 0" style="stroke:none;fill-rule:nonzero;fill:url(#fr)"/><path d="M12.45 9.148c-.012-.007-.071-.046-.095-.03q-.01 0-.011-.013l.008-.027q-.002-.018.015-.031c.02-.02.07.015.094.027Zm0 0" style="stroke:none;fill-rule:nonzero;fill:#910000;fill-opacity:1"/><path d="M12.555 9.227c.03-.051.047-.043.082-.043q.017 0 .011-.024c-.007.02-.05 0-.078.012-.047.02-.035.117-.062.125.027.023.035-.055.047-.07" style="stroke:none;fill-rule:nonzero;fill:#ff3a3a;fill-opacity:1"/></g></g><g clip-path="url(#fs)"><g clip-path="url(#ft)"><path d="m11.035 9.742-.312.547h3.558l-.312-.547Zm0 0" style="stroke:none;fill-rule:nonzero;fill:#fff;fill-opacity:1"/></g></g><g clip-path="url(#fu)"><g clip-path="url(#fv)"><path d="m10.93 10.176-.149.011-.015.028q.11-.019.226-.02c.098 0 .192.024.301.024h.145c.109 0 .199-.024.304-.024.102 0 .195.024.305.024h.144c.11 0 .2-.024.301-.024.106 0 .2.024.309.024h.14c.11 0 .204-.024.305-.024.106 0 .2.024.309.024h.14c.11 0 .203-.024.305-.024q.117.007.234.02l-.015-.031-.137-.008h-.14c-.11 0-.204.023-.31.027-.1 0-.194-.027-.304-.027h-.14c-.11 0-.204.023-.305.027-.106 0-.2-.027-.309-.027h-.136c-.11 0-.204.023-.305.027-.106 0-.2-.027-.309-.027h-.14c-.11 0-.204.023-.305.027-.106 0-.195-.027-.305-.027Zm0 0" style="stroke:none;fill-rule:nonzero;fill:url(#fw)"/><path d="m10.93 10.145-.149.007-.015.028q.11-.019.226-.02c.098 0 .192.024.301.024h.145c.109 0 .199-.024.304-.024.102 0 .195.024.305.024h.144c.11 0 .2-.024.301-.024.106 0 .2.024.309.024h.14c.11 0 .204-.024.305-.024.106 0 .2.024.309.024h.14c.11 0 .203-.024.305-.024q.117.007.234.02l-.015-.032-.137-.003h-.14c-.11 0-.204.02-.31.023-.1 0-.194-.023-.304-.023h-.14c-.11 0-.204.02-.305.023-.106 0-.2-.023-.309-.023h-.136c-.11 0-.204.02-.305.023-.106 0-.2-.023-.309-.023h-.14c-.11 0-.204.02-.305.023-.106 0-.195-.023-.305-.023Zm0 0" style="stroke:none;fill-rule:nonzero;fill:url(#fx)"/><path d="m10.93 10.11-.149.007-.015.028q.11-.019.226-.02c.098 0 .192.023.301.023h.145c.109 0 .199-.023.304-.023.102 0 .195.023.305.023h.144c.11 0 .2-.023.301-.023.106 0 .2.023.309.023h.14c.11 0 .204-.023.305-.023.106 0 .2.023.309.023h.14c.11 0 .203-.023.305-.023q.117.007.234.02l-.015-.032-.137-.004h-.14c-.11 0-.204.02-.31.024-.1 0-.194-.024-.304-.024h-.14c-.11 0-.204.02-.305.024-.106 0-.2-.024-.309-.024h-.136c-.11 0-.204.02-.305.024-.106 0-.2-.024-.309-.024h-.14c-.11 0-.204.02-.305.024-.106 0-.195-.024-.305-.024Zm0 0" style="stroke:none;fill-rule:nonzero;fill:url(#fy)"/><path d="m10.93 10.074-.149.008-.015.027q.11-.018.226-.02c.098 0 .192.024.301.024h.145c.109 0 .199-.023.304-.023.102 0 .195.023.305.023h.144c.11 0 .2-.023.301-.023.106 0 .2.023.309.023h.14c.11 0 .204-.023.305-.023.106 0 .2.023.309.023h.14c.11 0 .203-.023.305-.023q.117.007.234.02l-.015-.032-.137-.004h-.14c-.11 0-.204.02-.31.024-.1 0-.194-.024-.304-.024h-.14c-.11 0-.204.02-.305.024-.106 0-.2-.024-.309-.024h-.136c-.11 0-.204.02-.305.024-.106 0-.2-.024-.309-.024h-.14c-.11 0-.204.02-.305.024-.106 0-.195-.024-.305-.024Zm0 0" style="stroke:none;fill-rule:nonzero;fill:url(#fz)"/><path d="m10.93 10.04-.149.007-.015.031q.11-.023.226-.023c.098 0 .192.023.301.023h.145c.109 0 .199-.023.304-.023.102 0 .195.023.305.023h.144c.11 0 .2-.023.301-.023.106 0 .2.023.309.023h.14c.11 0 .204-.023.305-.023.106 0 .2.023.309.023h.14c.11 0 .203-.023.305-.023q.117.005.234.023l-.015-.035-.137-.004h-.14c-.11 0-.204.02-.31.024-.1 0-.194-.024-.304-.024h-.14c-.11 0-.204.02-.305.024-.106 0-.2-.024-.309-.024h-.136c-.11 0-.204.02-.305.024-.106 0-.2-.024-.309-.024h-.14c-.11 0-.204.02-.305.024-.106 0-.195-.024-.305-.024Zm0 0" style="stroke:none;fill-rule:nonzero;fill:url(#fA)"/><path d="m10.93 10.004-.149.008-.015.031q.11-.024.226-.023c.098 0 .192.023.301.023h.145c.109 0 .199-.023.304-.023.102 0 .195.023.305.023h.144c.11 0 .2-.023.301-.023.106 0 .2.023.309.023h.14c.11 0 .204-.023.305-.023.106 0 .2.023.309.023h.14c.11 0 .203-.023.305-.023q.117.005.234.023l-.015-.031-.137-.008h-.14c-.11 0-.204.023-.31.023-.1 0-.194-.023-.304-.023h-.14c-.11 0-.204.023-.305.023-.106 0-.2-.023-.309-.023h-.136c-.11 0-.204.023-.305.023-.106 0-.2-.023-.309-.023h-.14c-.11 0-.204.023-.305.023-.106 0-.195-.023-.305-.023Zm0 0" style="stroke:none;fill-rule:nonzero;fill:url(#fB)"/></g></g><g clip-path="url(#fC)"><g clip-path="url(#fD)"><path d="m10.93 9.965-.149.012-.015.027q.11-.018.226-.024c.098 0 .192.028.301.028h.145c.109 0 .199-.028.304-.028.102 0 .195.028.305.028h.144c.11 0 .2-.028.301-.028.106 0 .2.028.309.028h.14c.11 0 .204-.028.305-.028.106 0 .2.028.309.028h.14c.11 0 .203-.028.305-.028q.117.006.234.024l-.015-.031-.137-.008h-.14c-.11 0-.204.023-.31.027-.1 0-.194-.027-.304-.027h-.14c-.11 0-.204.023-.305.027-.106 0-.2-.027-.309-.027h-.136c-.11 0-.204.023-.305.027-.106 0-.2-.027-.309-.027h-.14c-.11 0-.204.023-.305.027-.106 0-.195-.027-.305-.027Zm0 0" style="stroke:none;fill-rule:nonzero;fill:url(#fE)"/></g></g><g clip-path="url(#fF)"><g clip-path="url(#fG)"><path d="m10.93 9.93-.149.011-.015.028q.11-.018.226-.024c.098 0 .192.028.301.028h.145c.109 0 .199-.028.304-.028.102 0 .195.028.305.028h.144c.11 0 .2-.028.301-.028.106 0 .2.028.309.028h.14c.11 0 .204-.028.305-.028.106 0 .2.028.309.028h.14c.11 0 .203-.028.305-.028q.117.006.234.024l-.015-.031-.137-.008h-.14c-.11 0-.204.023-.31.027-.1 0-.194-.027-.304-.027h-.14c-.11 0-.204.023-.305.027-.106 0-.2-.027-.309-.027h-.136c-.11 0-.204.023-.305.027-.106 0-.2-.027-.309-.027h-.14c-.11 0-.204.023-.305.027-.106 0-.195-.027-.305-.027Zm0 0" style="stroke:none;fill-rule:nonzero;fill:url(#fH)"/><path d="m10.93 9.895-.149.011-.015.028q.11-.018.226-.024c.098 0 .192.027.301.027h.145c.109 0 .199-.027.304-.027.102 0 .195.027.305.027h.144c.11 0 .2-.027.301-.027.106 0 .2.027.309.027h.14c.11 0 .204-.027.305-.027.106 0 .2.027.309.027h.14c.11 0 .203-.027.305-.027q.117.006.234.024l-.015-.032-.137-.007h-.14c-.11 0-.204.023-.31.027-.1 0-.194-.027-.304-.027h-.14c-.11 0-.204.023-.305.027-.106 0-.2-.027-.309-.027h-.136c-.11 0-.204.023-.305.027-.106 0-.2-.027-.309-.027h-.14c-.11 0-.204.023-.305.027-.106 0-.195-.027-.305-.027Zm0 0" style="stroke:none;fill-rule:nonzero;fill:url(#fI)"/><path d="M11.04 9.738v.004h2.925l-.004-.004Zm-.009.008-.004.012h2.942l-.004-.012h-2.938Zm-.008.012-.003.012h2.96l-.003-.012Zm-.007.02-.008.015h2.984l-.008-.016Zm-.012.019-.012.015h3.016l-.012-.015Zm-.012.023-.008.012h3.032l-.008-.012Zm-.015.024-.004.011h3.058l-.008-.011Zm-.012.02-.008.019h3.086l-.008-.02Zm0 0" style="stroke:none;fill-rule:nonzero;fill:url(#fJ)"/></g></g><g clip-path="url(#fK)"><g clip-path="url(#fL)"><path d="M11.168 9.89c.105.02.117 0 .117 0Zm2.547 0s.012.02.117 0Zm0 0" style="stroke:none;fill-rule:nonzero;fill:#000;fill-opacity:1"/></g></g><g clip-path="url(#fM)"><g clip-path="url(#fN)"><path d="M13.457 9.406c-.055 0-.07.028-.07.028-.082.336-.367.675-.707.675h-.25v.34h1.922l-.196-.347c-.304-.043-.55-.36-.629-.668 0 0-.02-.028-.07-.028" style="stroke:none;fill-rule:nonzero;fill:url(#fO)"/><path d="M13.457 9.422a.1.1 0 0 0-.047.008l-.012.011a1.1 1.1 0 0 1-.261.465c-.125.13-.282.219-.457.219h-.239v.313h1.903l-.18-.317a.7.7 0 0 1-.387-.215 1.1 1.1 0 0 1-.261-.465l-.008-.011a.08.08 0 0 0-.051-.008" style="stroke:none;fill-rule:nonzero;fill:#97c924;fill-opacity:1"/></g></g><g clip-path="url(#fP)"><g clip-path="url(#fQ)"><path d="M13.457 9.422h.012v.34a.4.4 0 0 1-.063.203c-.015.05-.031.031-.07.094-.055.015-.11.03-.164.035a1 1 0 0 1-.34.004.7.7 0 0 0 .305-.188l.066-.082a1 1 0 0 0 .094-.137l.031-.066.04-.09.03-.094.012-.011.02-.004Zm0 0" style="stroke:none;fill-rule:nonzero;fill:#ede71f;fill-opacity:1"/></g></g><g clip-path="url(#fR)"><g clip-path="url(#fS)"><path d="M13.438 9.465c-.016.191-.07.418-.211.562-.047.043-.114.082-.172.075.207-.176.336-.442.379-.637Zm0 0" style="stroke:none;fill-rule:nonzero;fill:#c6cb24;fill-opacity:1"/></g></g><g clip-path="url(#fT)"><g clip-path="url(#fU)"><path d="M13.266 9.793c-.032.086-.149.215-.274.316h-.094c.079-.004.262-.156.368-.316" style="stroke:none;fill-rule:nonzero;fill:#9ecb34;fill-opacity:1"/></g></g><g clip-path="url(#fV)"><g clip-path="url(#fW)"><path d="M12.977 9.406c-.051 0-.067.028-.067.028-.086.336-.37.675-.707.675h-.25v.34h1.918l-.191-.347c-.305-.043-.551-.36-.63-.668 0 0-.019-.028-.073-.028" style="stroke:none;fill-rule:nonzero;fill:url(#fX)"/><path d="M12.977 9.422a.2.2 0 0 0-.047.008l-.008.011a1.1 1.1 0 0 1-.262.465c-.125.13-.281.219-.457.219h-.242v.313h1.906l-.18-.317a.7.7 0 0 1-.386-.215 1.1 1.1 0 0 1-.262-.465l-.012-.011a.07.07 0 0 0-.05-.008" style="stroke:none;fill-rule:nonzero;fill:#97c924;fill-opacity:1"/></g></g><g clip-path="url(#fY)"><g clip-path="url(#fZ)"><path d="M12.977 9.422h.015v.34a.44.44 0 0 1-.062.203c-.016.05-.032.031-.075.094a.7.7 0 0 1-.16.035 1 1 0 0 1-.343.004.74.74 0 0 0 .308-.188l.067-.082a1 1 0 0 0 .093-.137l.032-.066.039-.09.03-.094.009-.011.02-.004Zm0 0" style="stroke:none;fill-rule:nonzero;fill:#ede71f;fill-opacity:1"/><path d="M12.96 9.465c-.015.191-.073.418-.21.562-.05.043-.117.082-.176.075.211-.176.34-.442.383-.637Zm0 0" style="stroke:none;fill-rule:nonzero;fill:#c6cb24;fill-opacity:1"/><path d="M12.79 9.793c-.032.086-.153.215-.278.316h-.09c.078-.004.258-.156.367-.316" style="stroke:none;fill-rule:nonzero;fill:#9ecb34;fill-opacity:1"/></g></g><g clip-path="url(#ga)"><g clip-path="url(#gb)"><path d="M12.57 9.438c.086.332.367.671.703.671h.254v.34h-2.054v-.34h.25c.336 0 .62-.34.707-.675 0 0 .015-.028.07-.028s.07.028.07.028Zm0 0" style="stroke:none;fill-rule:nonzero;fill:url(#gc)"/><path d="M12.5 9.422q.035.001.047.008l.008.011c.05.172.14.332.265.465.125.13.282.219.453.219h.243v.313h-2.032v-.317h.243a.64.64 0 0 0 .453-.215c.125-.133.215-.293.261-.465l.008-.011a.08.08 0 0 1 .051-.008" style="stroke:none;fill-rule:nonzero;fill:#97c924;fill-opacity:1"/></g></g><g clip-path="url(#gd)"><g clip-path="url(#ge)"><path d="M12.477 9.422h-.008l-.02.008-.008.011-.03.094-.04.094-.031.062a1 1 0 0 1-.094.137l-.066.078a.7.7 0 0 1-.305.192c.086.023.125 0 .203-.012a1 1 0 0 0 .188-.04c.046-.062.03-.038.046-.089.04-.07.094-.133.106-.215.05-.094.059-.27.059-.32" style="stroke:none;fill-rule:nonzero;fill:#ede71f;fill-opacity:1"/></g></g><g clip-path="url(#gf)"><g clip-path="url(#gg)"><path d="M12.477 9.465c-.012.191-.07.418-.207.562-.051.043-.114.082-.176.075.21-.176.34-.442.383-.637" style="stroke:none;fill-rule:nonzero;fill:#c6cb24;fill-opacity:1"/></g></g><g clip-path="url(#gh)"><g clip-path="url(#gi)"><path d="M12.305 9.793a.9.9 0 0 1-.274.316h-.086c.078-.004.254-.156.36-.316" style="stroke:none;fill-rule:nonzero;fill:#9ecb34;fill-opacity:1"/></g></g><g clip-path="url(#gj)"><g clip-path="url(#gk)"><path d="m12.531 9.426.016.004.012.011.03.094.04.094.031.062q.041.072.094.137l.066.078a.7.7 0 0 0 .305.203c-.227 0-.324-.015-.406-.125a.6.6 0 0 1-.133-.222c-.016-.063-.063-.203-.059-.336Zm0 0" style="stroke:none;fill-rule:nonzero;fill:#ede71f;fill-opacity:1"/></g></g><g clip-path="url(#gl)"><g clip-path="url(#gm)"><path d="M12.547 9.465c.012.191.07.379.207.527.05.043.113.082.176.07a.96.96 0 0 1-.383-.597" style="stroke:none;fill-rule:nonzero;fill:#c6cb24;fill-opacity:1"/></g></g><g clip-path="url(#gn)"><g clip-path="url(#go)"><path d="M12.023 9.406c-.054 0-.07.028-.07.028-.078.308-.367.707-.672.754l-.148.261h1.531v-.355c-.277-.078-.5-.371-.57-.66 0 0-.016-.028-.07-.028m0 0" style="stroke:none;fill-rule:nonzero;fill:url(#gp)"/><path d="M12.023 9.422a.1.1 0 0 0-.046.008l-.012.011q-.077.26-.254.473c-.106.137-.3.274-.438.285l-.132.239h1.5v-.34a.7.7 0 0 1-.297-.188 1.1 1.1 0 0 1-.262-.469l-.012-.011a.06.06 0 0 0-.047-.008" style="stroke:none;fill-rule:nonzero;fill:#97c924;fill-opacity:1"/></g></g><g clip-path="url(#gq)"><g clip-path="url(#gr)"><path d="M11.98 9.465c-.02.285-.175.648-.351.71-.059.02-.16.028-.195.032.28-.156.48-.426.55-.742Zm0 0" style="stroke:none;fill-rule:nonzero;fill:#93bc30;fill-opacity:1"/></g></g><g clip-path="url(#gs)"><g clip-path="url(#gt)"><path d="M12.023 9.422h-.015v.34q.008.104.062.203l.008.015c.016.036.024.047.07.086.137.098.301.141.465.13a.6.6 0 0 0-.105-.079l.14-.015a.7.7 0 0 1-.304-.196L12.3 9.86l-.02-.027a2 2 0 0 1-.101-.14l-.032-.067-.046-.121-.02-.063-.012-.011-.015-.004Zm0 0" style="stroke:none;fill-rule:nonzero;fill:#ede71f;fill-opacity:1"/><path d="M12.043 9.465c.016.191.074.418.21.562.052.043.114.082.177.075a1.26 1.26 0 0 1-.387-.637" style="stroke:none;fill-rule:nonzero;fill:#ccd11e;fill-opacity:1"/><path d="M12.176 9.73c.101.204.258.368.457.473h.078c-.14-.074-.36-.183-.531-.476Zm0 0" style="stroke:none;fill-rule:nonzero;fill:#9ecb34;fill-opacity:1"/></g></g><g clip-path="url(#gu)"><g clip-path="url(#gv)"><path d="M11.543 9.406c-.055 0-.07.028-.07.028-.078.308-.371.707-.672.754l-.153.261h1.532v-.355c-.274-.078-.496-.371-.567-.66 0 0-.015-.028-.074-.028Zm0 0" style="stroke:none;fill-rule:nonzero;fill:url(#gw)"/><path d="M11.543 9.422a.2.2 0 0 0-.05.008l-.009.011q-.076.26-.254.473c-.105.137-.3.274-.437.285l-.133.239h1.5v-.34a.7.7 0 0 1-.297-.188 1.1 1.1 0 0 1-.261-.469l-.012-.011a.07.07 0 0 0-.047-.008" style="stroke:none;fill-rule:nonzero;fill:#97c924;fill-opacity:1"/></g></g><g clip-path="url(#gx)"><g clip-path="url(#gy)"><path d="M11.5 9.465c-.02.285-.176.648-.352.71-.062.02-.16.028-.195.032.277-.156.48-.426.55-.742Zm0 0" style="stroke:none;fill-rule:nonzero;fill:#93bc30;fill-opacity:1"/></g></g><g clip-path="url(#gz)"><g clip-path="url(#gA)"><path d="M11.543 9.422h-.016v.34c.004.07.028.136.063.203l.008.015c.015.036.023.047.07.086.137.098.3.141.465.13a.6.6 0 0 0-.11-.079l.141-.015a.7.7 0 0 1-.3-.196l-.044-.047-.02-.027c-.038-.043-.07-.094-.1-.14l-.032-.067-.05-.121-.016-.063-.012-.011-.02-.004-.03-.004Zm0 0" style="stroke:none;fill-rule:nonzero;fill:#ede71f;fill-opacity:1"/></g></g><g clip-path="url(#gB)"><g clip-path="url(#gC)"><path d="M11.563 9.465c.015.191.07.418.21.562.047.043.11.082.172.075a1.25 1.25 0 0 1-.383-.637" style="stroke:none;fill-rule:nonzero;fill:#c6cb24;fill-opacity:1"/></g></g><g clip-path="url(#gD)"><g clip-path="url(#gE)"><path d="M11.695 9.73c.102.204.258.368.453.473h.079c-.137-.074-.36-.183-.532-.476Zm0 0" style="stroke:none;fill-rule:nonzero;fill:#9ecb34;fill-opacity:1"/></g></g><g clip-path="url(#gF)"><g clip-path="url(#gG)"><path d="M14.266 10.281c-.02.008-.137-.004-.2 0l-.043.012h-.101c-.113 0-.211.031-.317.031-.105 0-.203-.031-.312-.031h-.105c-.114 0-.211.031-.317.031-.105 0-.203-.031-.312-.031h-.106c-.113 0-.21.031-.312.031-.11 0-.203-.031-.317-.031h-.105c-.114 0-.207.031-.313.031-.105 0-.203-.031-.316-.031h-.106c-.086 0-.195.02-.277.023l-.2.348h3.985Zm0 0" style="stroke:none;fill-rule:nonzero;fill:#fff;fill-opacity:1"/><path d="M14 10.23h-.02c-.097.004-.175.036-.347.036-.176 0-.195-.032-.395-.024-.187 0-.261.035-.367.035-.101 0-.262-.02-.39-.007-.13.011-.274.043-.376.043-.12 0-.242-.024-.367-.012-.125.011-.187.047-.347.047-.137 0-.282-.02-.399-.02-.11 0-.226.031-.312.043l-.032.047c.075-.008.27-.04.34-.04.075 0 .332.017.477.009.148-.004.164-.04.336-.04.117 0 .207.016.328.016.078 0 .144-.039.262-.039l.086-.004c.097-.015.265 0 .375.008.105.004.171-.02.28-.023l.141-.004c.11-.008.2.02.301.02.102-.008.2-.032.309-.032l.14-.008c.07 0 .184 0 .258.016l-.023-.043c-.078-.004-.168-.024-.258-.024" style="stroke:none;fill-rule:nonzero;fill:url(#gH)"/><path d="M10.945 10.602c-.105 0-.199.027-.297.027l-.113-.008-.015.024h.187c.11 0 .2-.024.3-.028.102.004.192.031.302.031h.14c.106 0 .2-.027.301-.03.102.003.195.03.305.03h.14c.11 0 .2-.027.301-.03.102.003.191.03.3.03h.142c.105 0 .199-.027.304-.03.098.003.192.03.297.03h.14c.11 0 .204-.027.301-.03.106.003.196.03.305.03h.14l.055-.003-.015-.024q-.046.007-.098.008c-.105 0-.195-.031-.305-.031h-.14c-.106 0-.2.03-.3.03-.102 0-.192-.03-.302-.03h-.14c-.11 0-.203.03-.301.03-.106 0-.195-.03-.305-.03h-.14c-.11 0-.2.03-.301.03-.102 0-.192-.03-.301-.03h-.14c-.106 0-.2.03-.301.03-.102 0-.196-.03-.305-.03h-.14Zm0 0" style="stroke:none;fill-rule:nonzero;fill:url(#gI)"/><path d="M10.945 10.563c-.105 0-.199.023-.297.027l-.113-.012-.015.027h.187c.11 0 .2-.027.3-.027.102 0 .192.031.302.031h.14c.106 0 .2-.03.301-.03.102 0 .195.03.305.03h.14c.11 0 .2-.03.301-.03.102 0 .191.03.3.03h.142c.105 0 .199-.03.304-.03.098 0 .192.03.297.03h.14c.11 0 .204-.03.301-.03.106 0 .196.03.305.03h.14l.055-.004-.015-.027c-.031.008-.063.008-.098.012-.105 0-.195-.031-.305-.031h-.14c-.106 0-.2.03-.3.03-.102-.003-.192-.03-.302-.03h-.14c-.11 0-.203.03-.301.03-.106-.003-.195-.03-.305-.03h-.14c-.11 0-.2.03-.301.03-.102-.003-.192-.03-.301-.03h-.14c-.106 0-.2.03-.301.03-.102-.003-.196-.03-.305-.03h-.14Zm0 0" style="stroke:none;fill-rule:nonzero;fill:url(#gJ)"/><path d="M10.945 10.52c-.105 0-.199.027-.297.027l-.113-.008-.015.024h.187c.11 0 .2-.024.3-.028.102.004.192.031.302.031h.14c.106 0 .2-.027.301-.03.102.003.195.03.305.03h.14c.11 0 .2-.027.301-.03.102.003.191.03.3.03h.142c.105 0 .199-.027.304-.03.098.003.192.03.297.03h.14c.11 0 .204-.027.301-.03.106.003.196.03.305.03h.14l.055-.004-.015-.023a1 1 0 0 1-.098.008c-.105 0-.195-.031-.305-.031h-.14c-.106 0-.2.03-.3.03-.102 0-.192-.03-.302-.03h-.14c-.11 0-.203.03-.301.03-.106 0-.195-.03-.305-.03h-.14c-.11 0-.2.03-.301.03-.102 0-.192-.03-.301-.03h-.14c-.106 0-.2.03-.301.03-.102 0-.196-.03-.305-.03h-.14Zm0 0" style="stroke:none;fill-rule:nonzero;fill:url(#gK)"/><path d="M10.945 10.477c-.105 0-.199.027-.297.03l-.113-.01-.015.026h.187c.11 0 .2-.027.3-.027.102 0 .192.031.302.031h.14c.106 0 .2-.03.301-.03.102 0 .195.03.305.03h.14c.11 0 .2-.03.301-.03.102 0 .191.03.3.03h.142c.105 0 .199-.03.304-.03.098 0 .192.03.297.03h.14c.11 0 .204-.03.301-.03.106 0 .196.03.305.03h.14l.055-.004-.015-.027-.098.012c-.105 0-.195-.031-.305-.031h-.14c-.106 0-.2.03-.3.03-.102-.003-.192-.03-.302-.03h-.14c-.11 0-.203.03-.301.03-.106-.003-.195-.03-.305-.03h-.14c-.11 0-.2.03-.301.03-.102-.003-.192-.03-.301-.03h-.14c-.106 0-.2.03-.301.03-.102-.003-.196-.03-.305-.03Zm0 0" style="stroke:none;fill-rule:nonzero;fill:url(#gL)"/><path d="M10.945 10.438c-.105 0-.199.023-.297.027l-.113-.008-.015.023h.187c.11 0 .2-.023.3-.027.102.004.192.031.302.031h.14c.106 0 .2-.027.301-.03.102.003.195.03.305.03h.14c.11 0 .2-.027.301-.03.102.003.191.03.3.03h.142c.105 0 .199-.027.304-.03.098.003.192.03.297.03h.14c.11 0 .204-.027.301-.03.106.003.196.03.305.03h.14l.055-.004-.015-.023a1 1 0 0 1-.098.008c-.105 0-.195-.031-.305-.031h-.14c-.106 0-.2.03-.3.03-.102-.003-.192-.03-.302-.03h-.14c-.11 0-.203.03-.301.03-.106-.003-.195-.03-.305-.03h-.14c-.11 0-.2.03-.301.03-.102-.003-.192-.03-.301-.03h-.14c-.106 0-.2.03-.301.03-.102-.003-.196-.03-.305-.03h-.14Zm0 0" style="stroke:none;fill-rule:nonzero;fill:url(#gM)"/><path d="M10.945 10.395c-.105 0-.199.027-.297.03l-.113-.01-.015.026h.187c.11 0 .2-.027.3-.03.102.003.192.034.302.034h.14c.106 0 .2-.03.301-.035.102.004.195.035.305.035h.14c.11 0 .2-.03.301-.035.102.004.191.035.3.035h.142c.105 0 .199-.03.304-.035.098.004.192.035.297.035h.14c.11 0 .204-.03.301-.035.106.004.196.035.305.035h.14l.055-.004-.015-.027-.098.012c-.105 0-.195-.031-.305-.031h-.14c-.106 0-.2.03-.3.03-.102-.003-.192-.03-.302-.03h-.14c-.11 0-.203.03-.301.03-.106-.003-.195-.03-.305-.03h-.14c-.11 0-.2.03-.301.03-.102-.003-.192-.03-.301-.03h-.14c-.106 0-.2.03-.301.03-.102-.003-.196-.03-.305-.03Zm0 0" style="stroke:none;fill-rule:nonzero;fill:url(#gN)"/><path d="M10.945 10.36c-.105 0-.199.023-.297.027l-.113-.008-.015.023h.187c.11 0 .2-.023.3-.027.102.004.192.031.302.031h.14c.106 0 .2-.027.301-.031.102.004.195.031.305.031h.14c.11 0 .2-.027.301-.031.102.004.191.031.3.031h.142c.105 0 .199-.027.304-.031.098.004.192.031.297.031h.14c.11 0 .204-.027.301-.031.106.004.196.031.305.031h.14l.055-.004-.015-.023q-.046.004-.098.008c-.105 0-.195-.032-.305-.032h-.14c-.106 0-.2.032-.3.032-.102-.004-.192-.032-.302-.032h-.14c-.11 0-.203.032-.301.032-.106-.004-.195-.032-.305-.032h-.14c-.11 0-.2.032-.301.032-.102-.004-.192-.032-.301-.032h-.14c-.106 0-.2.032-.301.032-.102-.004-.196-.032-.305-.032h-.14Zm0 0" style="stroke:none;fill-rule:nonzero;fill:url(#gO)"/><path d="M10.945 10.316c-.105 0-.199.028-.297.028l-.113-.008-.015.027h.187c.11 0 .2-.027.3-.031.102.004.192.031.302.031h.14c.106 0 .2-.027.301-.031.102.004.195.031.305.031h.14c.11 0 .2-.027.301-.031.102.004.191.031.3.031h.142c.105 0 .199-.027.304-.031.098.004.192.031.297.031h.14c.11 0 .204-.027.301-.031.106.004.196.031.305.031h.195l-.015-.027q-.046.007-.098.008c-.105 0-.195-.031-.305-.031h-.14c-.106 0-.2.03-.3.03-.102 0-.192-.03-.302-.03h-.14c-.11 0-.203.03-.301.03-.106 0-.195-.03-.305-.03h-.14c-.11 0-.2.03-.301.03-.102 0-.192-.03-.301-.03h-.14c-.106 0-.2.03-.301.03-.102 0-.196-.03-.305-.03h-.14Zm0 0" style="stroke:none;fill-rule:nonzero;fill:url(#gP)"/><path d="M10.945 10.277c-.105 0-.199.024-.297.028l-.113-.012-.015.027h.187c.11 0 .2-.027.3-.027.102 0 .192.031.302.031h.14c.106 0 .2-.031.301-.031.102 0 .195.031.305.031h.14c.11 0 .2-.031.301-.031.102 0 .191.031.3.031h.142c.105 0 .199-.031.304-.031.098 0 .192.031.297.031h.14c.11 0 .204-.031.301-.031.106 0 .196.031.305.031h.14l.055-.004-.015-.027c-.031.008-.063.008-.098.012-.105 0-.195-.032-.305-.032h-.14c-.106 0-.2.032-.3.032-.102-.004-.192-.032-.302-.032h-.14c-.11 0-.203.032-.301.032-.106-.004-.195-.032-.305-.032h-.14c-.11 0-.2.032-.301.032-.102-.004-.192-.032-.301-.032h-.14c-.106 0-.2.032-.301.032-.102-.004-.196-.032-.305-.032h-.14Zm0 0" style="stroke:none;fill-rule:nonzero;fill:url(#gQ)"/><path d="m10.746 10.281-.078.133c.09-.016.223-.05.336-.05s.25.027.387.03c.156 0 .218-.039.343-.05.125-.016.25.015.375.02.098 0 .246-.036.375-.052.125-.015.243.012.391.012.152.004.18-.039.363-.043.2-.004.219.031.395.031.129.004.246-.03.363-.035.121-.007.172 0 .262 0l-.063-.101-3.164.07Zm0 0" style="stroke:none;fill-rule:nonzero;fill:#97c924;fill-opacity:1"/></g></g><g clip-path="url(#gR)"><g clip-path="url(#gS)"><path d="m14.063 10.277.124.012.09.008-.011-.016c-.02.008-.137-.004-.2 0Zm0 0" style="stroke:none;fill-rule:nonzero;fill:#fff;fill-opacity:1"/></g></g><path d="m12.5 7.121-1.004 1.762-1.027 1.805h4.062l-1.004-1.766Zm0 .094.984 1.73.965 1.696h-3.898l.984-1.735Zm0 0" style="stroke:none;fill-rule:nonzero;fill:#c8a400;fill-opacity:1"/></svg>