<?xml version="1.0" encoding="UTF-8"?>
<svg xmlns="http://www.w3.org/2000/svg" xmlns:xlink="http://www.w3.org/1999/xlink" width="25px" height="px" viewBox="0 0 25 19" version="1.1">
<g id="surface1">
<path style="fill-rule:evenodd;fill:rgb(80.784315%,0%,0%);fill-opacity:1;stroke-width:13.8;stroke-linecap:butt;stroke-linejoin:miter;stroke:rgb(0%,0%,38.82353%);stroke-opacity:1;stroke-miterlimit:4;" d="M 6.506667 489.473684 L 385.28 489.473684 L 137.386667 238.105263 L 394.666667 238.421053 L 6.613333 -9.473684 L 6.613333 489.473684 Z M 6.506667 489.473684 " transform="matrix(0.0366211,0,0,0.0371094,0,0.59375)"/>
<path style=" stroke:none;fill-rule:evenodd;fill:rgb(100%,100%,100%);fill-opacity:1;" d="M 6.617188 13.796875 L 5.628906 14.132812 L 6.40625 14.867188 L 5.359375 14.800781 L 5.789062 15.773438 L 4.855469 15.316406 L 4.875 16.375 L 4.1875 15.601562 L 3.792969 16.585938 L 3.457031 15.613281 L 2.714844 16.375 L 2.78125 15.347656 L 1.792969 15.773438 L 2.257812 14.84375 L 1.183594 14.867188 L 1.96875 14.1875 L 0.96875 13.796875 L 1.960938 13.464844 L 1.179688 12.726562 L 2.21875 12.796875 L 1.792969 11.824219 L 2.730469 12.28125 L 2.714844 11.21875 L 3.402344 11.992188 L 3.792969 11.007812 L 4.128906 11.984375 L 4.875 11.21875 L 4.804688 12.246094 L 5.792969 11.824219 L 5.328125 12.75 L 6.40625 12.726562 L 5.617188 13.40625 Z M 5.429688 6.941406 L 5.015625 7.253906 L 5.222656 7.425781 C 5.703125 7.085938 6.089844 6.625 6.347656 6.089844 C 6.414062 6.878906 5.699219 8.648438 3.832031 8.667969 C 3.140625 8.675781 2.476562 8.40625 1.984375 7.917969 C 1.492188 7.425781 1.214844 6.757812 1.210938 6.058594 C 1.578125 6.734375 1.804688 7.0625 2.382812 7.414062 L 2.554688 7.25 L 2.167969 6.921875 L 2.667969 6.789062 L 2.398438 6.328125 L 2.925781 6.363281 L 2.859375 5.828125 L 3.320312 6.105469 L 3.46875 5.601562 L 3.796875 6.003906 L 4.109375 5.621094 L 4.277344 6.140625 L 4.710938 5.835938 L 4.65625 6.367188 L 5.175781 6.304688 L 4.929688 6.792969 Z M 5.429688 6.941406 "/>
</g>
</svg>
