<svg xmlns="http://www.w3.org/2000/svg" width="25" height="px" viewBox="0 0 25 19"><path d="M6.507 489.474H385.28L137.387 238.105l257.28.316L6.613-9.474v498.948Zm0 0" style="fill-rule:evenodd;fill:#ce0000;fill-opacity:1;stroke-width:13.8;stroke-linecap:butt;stroke-linejoin:miter;stroke:#000063;stroke-opacity:1;stroke-miterlimit:4" transform="matrix(.03662 0 0 .0371 0 .594)"/><path d="m6.617 13.797-.988.336.777.734-1.047-.066.43.972-.934-.457.02 1.059-.687-.773-.395.984-.336-.973-.742.762.066-1.027-.988.425.465-.93-1.074.024.785-.68-1-.39.992-.332-.781-.738 1.039.07-.426-.973.937.457-.015-1.062.687.773.391-.984.336.976.746-.765-.07 1.027.988-.422-.465.926 1.078-.023-.789.68ZM5.43 6.94l-.414.313.207.172c.48-.34.867-.801 1.125-1.336.066.789-.649 2.558-2.516 2.578a2.58 2.58 0 0 1-1.848-.75 2.65 2.65 0 0 1-.773-1.86c.367.676.594 1.005 1.172 1.356l.172-.164-.387-.328.5-.133-.27-.46.528.034-.067-.535.461.277.149-.503.328.402.312-.383.168.52.434-.305-.055.531.52-.062-.246.488Zm0 0" style="stroke:none;fill-rule:evenodd;fill:#fff;fill-opacity:1"/></svg>