<svg xmlns="http://www.w3.org/2000/svg" width="25" height="px" viewBox="0 0 25 19"><path d="M0 0h25v19H0z" style="fill:#fedd00;fill-opacity:1;stroke:none"/><path d="M0 0h12.5v9.5H0Zm0 0" style="stroke:none;fill-rule:nonzero;fill:#012169;fill-opacity:1"/><path d="M1.465 0 6.23 3.582 10.977 0H12.5v1.227L7.813 4.77 12.5 8.293V9.5h-1.562L6.25 5.957 1.582 9.5H0V8.313l4.668-3.524L0 1.266V0Zm0 0" style="stroke:none;fill-rule:nonzero;fill:#fff;fill-opacity:1"/><path d="M8.281 5.563 12.5 8.707V9.5L7.207 5.563Zm-3.594.394.118.691L1.055 9.5H0ZM12.5 0v.059L7.637 3.78l.039-.87L11.523 0ZM0 0l4.668 3.484H3.496L0 .832Zm0 0" style="stroke:none;fill-rule:nonzero;fill:#c8102e;fill-opacity:1"/><path d="M4.707 0v9.5h3.125V0ZM0 3.168v3.164h12.5V3.168Zm0 0" style="stroke:none;fill-rule:nonzero;fill:#fff;fill-opacity:1"/><path d="M0 3.82V5.72h12.5V3.82ZM5.332 0v9.5h1.875V0Zm0 0" style="stroke:none;fill-rule:nonzero;fill:#c8102e;fill-opacity:1"/><path d="M7.844 4.75c0-.89-.715-1.613-1.594-1.613s-1.594.722-1.594 1.613c0 .89.715 1.613 1.594 1.613s1.594-.722 1.594-1.613m0 0" style="stroke:none;fill-rule:nonzero;fill:#012169;fill-opacity:1"/><path d="m6.25 3.137.938 2.918L4.733 4.25h3.032L5.313 6.055M2.605 3.89l.547 1.718-1.437-1.058H3.5L2.055 5.613m7.84-1.722.55 1.718-1.441-1.062h1.785L9.344 5.609M6.25 7.06l.55 1.718-1.445-1.062h1.786L5.695 8.777M6.25.723 6.8 2.44 5.356 1.383h1.786L5.695 2.44" style="stroke:none;fill-rule:nonzero;fill:#fedd00;fill-opacity:1"/></svg>