<svg xmlns="http://www.w3.org/2000/svg" width="25" height="px" viewBox="0 0 25 19"><path d="M0 0h25v19H0z" style="fill:#00247d;fill-opacity:1;stroke:none"/><path d="M19.156 4.242v.602l1.188-.602Zm0 0" style="stroke:none;fill-rule:nonzero;fill:#fff;fill-opacity:1"/><path d="m19.395 4.965-.239-.48 1.188-.243ZM19.156 4.242v.602l-1.183-.602Zm0 0" style="stroke:none;fill-rule:nonzero;fill:#fff;fill-opacity:1"/><path d="m18.922 4.965.234-.48-1.183-.243Zm0 0" style="stroke:none;fill-rule:nonzero;fill:#fff;fill-opacity:1"/><path d="m19.496 4.492-.562.184.93.957Zm0 0" style="stroke:none;fill-rule:nonzero;fill:#fff;fill-opacity:1"/><path d="m18.89 4.941.38-.375.593 1.067Zm0 0" style="stroke:none;fill-rule:nonzero;fill:#fff;fill-opacity:1"/><path d="m18.82 4.492.563.184-.2-1.324Zm0 0" style="stroke:none;fill-rule:nonzero;fill:#fff;fill-opacity:1"/><path d="m19.57 4.484-.527.082.14-1.214Zm0 0" style="stroke:none;fill-rule:nonzero;fill:#fff;fill-opacity:1"/><path d="m18.82 4.492.563.184-.93.957Zm0 0" style="stroke:none;fill-rule:nonzero;fill:#fff;fill-opacity:1"/><path d="m19.422 4.941-.379-.375-.59 1.067Zm0 0" style="stroke:none;fill-rule:nonzero;fill:#fff;fill-opacity:1"/><path d="M19.156 4.363v.399l.785-.399Zm0 0" style="stroke:none;fill-rule:nonzero;fill:#cc142b;fill-opacity:1"/><path d="m19.313 4.84-.157-.317.785-.16ZM19.156 4.363v.399l-.781-.399Zm0 0" style="stroke:none;fill-rule:nonzero;fill:#cc142b;fill-opacity:1"/><path d="m19 4.84.156-.317-.781-.16Zm0 0" style="stroke:none;fill-rule:nonzero;fill:#cc142b;fill-opacity:1"/><path d="m19.379 4.531-.371.121.613.633Zm0 0" style="stroke:none;fill-rule:nonzero;fill:#cc142b;fill-opacity:1"/><path d="m18.98 4.828.25-.25.391.707Zm0 0" style="stroke:none;fill-rule:nonzero;fill:#cc142b;fill-opacity:1"/><path d="m18.934 4.531.37.121-.128-.879Zm0 0" style="stroke:none;fill-rule:nonzero;fill:#cc142b;fill-opacity:1"/><path d="m19.43 4.527-.348.051.094-.805ZM18.934 4.531l.37.121-.613.633Zm0 0" style="stroke:none;fill-rule:nonzero;fill:#cc142b;fill-opacity:1"/><path d="m19.332 4.828-.25-.25-.39.707Zm0 0" style="stroke:none;fill-rule:nonzero;fill:#cc142b;fill-opacity:1"/><path d="M22.262 7.016v.53l1.054-.53Zm0 0" style="stroke:none;fill-rule:nonzero;fill:#fff;fill-opacity:1"/><path d="m22.473 7.656-.211-.43 1.054-.21ZM22.262 7.016v.53l-1.055-.53Zm0 0" style="stroke:none;fill-rule:nonzero;fill:#fff;fill-opacity:1"/><path d="m22.05 7.656.212-.43-1.055-.21Zm0 0" style="stroke:none;fill-rule:nonzero;fill:#fff;fill-opacity:1"/><path d="m22.563 7.234-.5.168.828.852Zm0 0" style="stroke:none;fill-rule:nonzero;fill:#fff;fill-opacity:1"/><path d="m22.027 7.637.336-.336.528.953Zm0 0" style="stroke:none;fill-rule:nonzero;fill:#fff;fill-opacity:1"/><path d="m21.96 7.234.505.168-.176-1.183Zm0 0" style="stroke:none;fill-rule:nonzero;fill:#fff;fill-opacity:1"/><path d="m22.629 7.23-.465.07.125-1.081ZM21.96 7.234l.505.168-.828.852Zm0 0" style="stroke:none;fill-rule:nonzero;fill:#fff;fill-opacity:1"/><path d="m22.5 7.637-.336-.336-.527.953Zm0 0" style="stroke:none;fill-rule:nonzero;fill:#fff;fill-opacity:1"/><path d="M22.262 7.137v.332l.652-.332Zm0 0" style="stroke:none;fill-rule:nonzero;fill:#cc142b;fill-opacity:1"/><path d="m22.395 7.531-.133-.261.652-.133ZM22.262 7.137v.332l-.653-.332Zm0 0" style="stroke:none;fill-rule:nonzero;fill:#cc142b;fill-opacity:1"/><path d="m22.133 7.531.129-.261-.653-.133Zm0 0" style="stroke:none;fill-rule:nonzero;fill:#cc142b;fill-opacity:1"/><path d="m22.45 7.273-.313.102.511.527Zm0 0" style="stroke:none;fill-rule:nonzero;fill:#cc142b;fill-opacity:1"/><path d="m22.117 7.523.207-.21.324.59Zm0 0" style="stroke:none;fill-rule:nonzero;fill:#cc142b;fill-opacity:1"/><path d="m22.078 7.273.309.102-.11-.73Zm0 0" style="stroke:none;fill-rule:nonzero;fill:#cc142b;fill-opacity:1"/><path d="m22.488 7.27-.289.043.078-.668Zm0 0" style="stroke:none;fill-rule:nonzero;fill:#cc142b;fill-opacity:1"/><path d="m22.078 7.273.309.102-.512.527Zm0 0" style="stroke:none;fill-rule:nonzero;fill:#cc142b;fill-opacity:1"/><path d="m22.41 7.523-.21-.21-.325.59Zm0 0" style="stroke:none;fill-rule:nonzero;fill:#cc142b;fill-opacity:1"/><path d="M15.54 7.934v.601l1.187-.601Zm0 0" style="stroke:none;fill-rule:nonzero;fill:#fff;fill-opacity:1"/><path d="m15.777 8.652-.238-.48 1.188-.238Zm0 0" style="stroke:none;fill-rule:nonzero;fill:#fff;fill-opacity:1"/><path d="M15.54 7.934v.601l-1.185-.601Zm0 0" style="stroke:none;fill-rule:nonzero;fill:#fff;fill-opacity:1"/><path d="m15.305 8.652.234-.48-1.184-.238Zm0 0" style="stroke:none;fill-rule:nonzero;fill:#fff;fill-opacity:1"/><path d="m15.879 8.184-.563.183.93.957Zm0 0" style="stroke:none;fill-rule:nonzero;fill:#fff;fill-opacity:1"/><path d="m15.277 8.633.375-.375.594 1.066Zm0 0" style="stroke:none;fill-rule:nonzero;fill:#fff;fill-opacity:1"/><path d="m15.203 8.184.563.183-.196-1.328Zm0 0" style="stroke:none;fill-rule:nonzero;fill:#fff;fill-opacity:1"/><path d="m15.953 8.176-.527.082.144-1.219Zm0 0" style="stroke:none;fill-rule:nonzero;fill:#fff;fill-opacity:1"/><path d="m15.203 8.184.563.183-.93.957Zm0 0" style="stroke:none;fill-rule:nonzero;fill:#fff;fill-opacity:1"/><path d="m15.805 8.633-.38-.375-.59 1.066Zm0 0" style="stroke:none;fill-rule:nonzero;fill:#fff;fill-opacity:1"/><path d="M15.54 8.055v.398l.784-.398Zm0 0" style="stroke:none;fill-rule:nonzero;fill:#cc142b;fill-opacity:1"/><path d="m15.695 8.531-.156-.316.785-.16Zm0 0" style="stroke:none;fill-rule:nonzero;fill:#cc142b;fill-opacity:1"/><path d="M15.54 8.055v.398l-.782-.398Zm0 0" style="stroke:none;fill-rule:nonzero;fill:#cc142b;fill-opacity:1"/><path d="m15.383 8.531.156-.316-.781-.16Zm0 0" style="stroke:none;fill-rule:nonzero;fill:#cc142b;fill-opacity:1"/><path d="m15.766 8.219-.375.125.613.629Zm0 0" style="stroke:none;fill-rule:nonzero;fill:#cc142b;fill-opacity:1"/><path d="m15.367 8.52.246-.25.39.703Zm0 0" style="stroke:none;fill-rule:nonzero;fill:#cc142b;fill-opacity:1"/><path d="m15.316 8.219.371.125-.128-.88Zm0 0" style="stroke:none;fill-rule:nonzero;fill:#cc142b;fill-opacity:1"/><path d="m15.813 8.215-.348.055.094-.805Zm0 0" style="stroke:none;fill-rule:nonzero;fill:#cc142b;fill-opacity:1"/><path d="m15.316 8.219.371.125-.613.629Zm0 0" style="stroke:none;fill-rule:nonzero;fill:#cc142b;fill-opacity:1"/><path d="m15.715 8.52-.25-.25-.39.703Zm0 0" style="stroke:none;fill-rule:nonzero;fill:#cc142b;fill-opacity:1"/><path d="M19.156 13.727v.664l1.317-.664Zm0 0" style="stroke:none;fill-rule:nonzero;fill:#fff;fill-opacity:1"/><path d="m19.422 14.527-.266-.535 1.317-.265ZM19.156 13.727v.664l-1.316-.664Zm0 0" style="stroke:none;fill-rule:nonzero;fill:#fff;fill-opacity:1"/><path d="m18.895 14.527.261-.535-1.316-.265Zm0 0" style="stroke:none;fill-rule:nonzero;fill:#fff;fill-opacity:1"/><path d="m19.531 14.004-.625.203 1.032 1.063Zm0 0" style="stroke:none;fill-rule:nonzero;fill:#fff;fill-opacity:1"/><path d="m18.863 14.504.418-.418.657 1.184Zm0 0" style="stroke:none;fill-rule:nonzero;fill:#fff;fill-opacity:1"/><path d="m18.781 14.004.625.203-.218-1.473Zm0 0" style="stroke:none;fill-rule:nonzero;fill:#fff;fill-opacity:1"/><path d="m19.613 13.996-.582.09.157-1.352Zm0 0" style="stroke:none;fill-rule:nonzero;fill:#fff;fill-opacity:1"/><path d="m18.781 14.004.625.203-1.031 1.063Zm0 0" style="stroke:none;fill-rule:nonzero;fill:#fff;fill-opacity:1"/><path d="m19.453 14.504-.422-.418-.656 1.184Zm0 0" style="stroke:none;fill-rule:nonzero;fill:#fff;fill-opacity:1"/><path d="M19.156 13.848v.464l.914-.464Zm0 0" style="stroke:none;fill-rule:nonzero;fill:#cc142b;fill-opacity:1"/><path d="m19.34 14.402-.184-.37.914-.184ZM19.156 13.848v.464l-.914-.464Zm0 0" style="stroke:none;fill-rule:nonzero;fill:#cc142b;fill-opacity:1"/><path d="m18.973 14.402.183-.37-.914-.184Zm0 0" style="stroke:none;fill-rule:nonzero;fill:#cc142b;fill-opacity:1"/><path d="m19.418 14.04-.434.144.715.738Zm0 0" style="stroke:none;fill-rule:nonzero;fill:#cc142b;fill-opacity:1"/><path d="m18.953 14.387.29-.29.456.825Zm0 0" style="stroke:none;fill-rule:nonzero;fill:#cc142b;fill-opacity:1"/><path d="m18.898 14.04.434.144-.152-1.024Zm0 0" style="stroke:none;fill-rule:nonzero;fill:#cc142b;fill-opacity:1"/><path d="m19.473 14.035-.403.063.11-.938Zm0 0" style="stroke:none;fill-rule:nonzero;fill:#cc142b;fill-opacity:1"/><path d="m18.898 14.04.434.144-.719.738Zm0 0" style="stroke:none;fill-rule:nonzero;fill:#cc142b;fill-opacity:1"/><path d="m19.363 14.387-.293-.29-.457.825Zm0 0" style="stroke:none;fill-rule:nonzero;fill:#cc142b;fill-opacity:1"/><path d="M0 0h12.5v9.5H0Zm0 0" style="stroke:none;fill-rule:nonzero;fill:#012169;fill-opacity:1"/><path d="M1.465 0 6.23 3.582 10.977 0H12.5v1.227L7.813 4.77 12.5 8.293V9.5h-1.562L6.25 5.957 1.582 9.5H0V8.313l4.668-3.524L0 1.266V0Zm0 0" style="stroke:none;fill-rule:nonzero;fill:#fff;fill-opacity:1"/><path d="M8.281 5.563 12.5 8.707V9.5L7.207 5.563Zm-3.594.394.118.691L1.055 9.5H0ZM12.5 0v.059L7.637 3.78l.039-.87L11.523 0ZM0 0l4.668 3.484H3.496L0 .832Zm0 0" style="stroke:none;fill-rule:nonzero;fill:#c8102e;fill-opacity:1"/><path d="M4.707 0v9.5h3.125V0ZM0 3.168v3.164h12.5V3.168Zm0 0" style="stroke:none;fill-rule:nonzero;fill:#fff;fill-opacity:1"/><path d="M0 3.82V5.72h12.5V3.82ZM5.332 0v9.5h1.875V0Zm0 0" style="stroke:none;fill-rule:nonzero;fill:#c8102e;fill-opacity:1"/></svg>