<svg xmlns="http://www.w3.org/2000/svg" width="25" height="px" viewBox="0 0 25 19"><path d="M0 0h25v19H0z" style="fill:#ef2d29;fill-opacity:1;stroke:none"/><path d="M6.82 12.559h20.926v8.222H6.82Zm0 0" style="stroke:none;fill-rule:evenodd;fill:#009025;fill-opacity:1"/><path d="M6.82-1.402h22.067V6.12H6.817Zm0 0" style="stroke:none;fill-rule:evenodd;fill:#fff;fill-opacity:1"/><path d="M29.222 467.608H144.6c6.046 0 11.084 5.562 11.084 11.68v61.733c0 6.673-5.038 11.679-11.084 11.679H29.222c-6.55 0-11.588-5.006-11.588-11.68v-61.733c0-6.117 5.038-11.679 11.588-11.679Zm0 0" style="fill-rule:evenodd;fill:#fff;fill-opacity:1;stroke-width:1.4;stroke-linecap:butt;stroke-linejoin:miter;stroke:#ef2d28;stroke-opacity:1;stroke-miterlimit:4" transform="matrix(.00775 0 0 .00702 4.348 -.53)"/><path d="M32.245 471.501h109.331c6.046 0 10.58 4.45 10.58 10.567v56.172c0 6.117-4.534 11.123-10.58 11.123H32.245c-6.046 0-11.084-5.006-11.084-11.123v-56.172c0-6.118 5.038-10.567 11.084-10.567Zm0 0" style="fill-rule:evenodd;fill:#fff;fill-opacity:1;stroke-width:1.3;stroke-linecap:butt;stroke-linejoin:miter;stroke:#ef2d28;stroke-opacity:1;stroke-miterlimit:4" transform="matrix(.00775 0 0 .00702 4.348 -.53)"/><path d="M64.786 396.335h9.616l.74 5.702 8.137 5.702 5.918-6.653 7.398 4.752-6.658 5.702 1.48 8.554 8.877-.95v10.453h-6.658l-3.699 6.653 7.398 7.603-5.918 5.702-6.658-6.652-9.617 2.85.74 9.504-11.096.95-1.48-8.553-8.137-5.702-5.178 6.653-7.398-4.752 4.439-7.603-5.179-4.752h-8.137v-13.305l7.398.95 5.178-8.553-5.918-5.702 8.137-6.653 5.178 5.703 9.617-1.901Zm0 0" style="fill-rule:evenodd;fill:#fff;fill-opacity:1;stroke-width:1.3;stroke-linecap:butt;stroke-linejoin:miter;stroke:#ef2d28;stroke-opacity:1;stroke-miterlimit:4" transform="matrix(.00528 0 0 .00411 4.642 1.3)"/><path d="M80.367 426.805c0-5.544-5.358-10.295-11.482-10.295s-10.717 4.751-10.717 10.295 4.593 9.504 10.717 9.504 11.482-3.96 11.482-9.504Zm0 0" style="fill-rule:evenodd;fill:#fff;fill-opacity:1;stroke-width:1.3;stroke-linecap:butt;stroke-linejoin:miter;stroke:#ef2d28;stroke-opacity:1;stroke-miterlimit:4" transform="matrix(.0051 0 0 .00493 4.648 .942)"/><path d="m38.795 474.838-10.58 10.567m17.633-10.567-10.58 10.567m17.634-10.567-10.58 10.567m17.634-10.567-10.58 10.567m18.137-10.567-10.58 10.567m17.634-10.567-10.58 10.567m17.633-10.567-10.58 10.567m17.634-10.567-10.58 10.567m17.634-10.567-10.58 10.567m17.633-10.567-10.58 10.567m17.634-10.567-10.58 10.567m17.633-10.567-10.58 10.567m-17.634-10.567-10.58 10.567m45.848-10.567-10.58 10.567m17.634-10.567-10.58 10.567m17.633-10.567-10.58 10.567m17.634-10.567-10.58 10.567m0-10.567 10.58 10.567m-17.634-10.567 10.58 10.567m-17.634-10.567 10.58 10.567m-17.633-10.567 10.58 10.567m-17.634-10.567 10.58 10.567m-17.634-10.567 10.58 10.567m-17.633-10.567 10.58 10.567m-17.634-10.567 10.58 10.567M77.59 474.838l11.084 10.567M71.04 474.838l10.58 10.567m-18.138-10.567 10.58 10.567M56.43 474.838l10.58 10.567m18.138-10.567 10.58 10.567m-46.352-10.567 10.58 10.567m-17.633-10.567 10.58 10.567m-17.634-10.567 10.58 10.567m-17.634-10.567 10.58 10.567m0 49.498-10.58 10.567m17.634-10.567-10.58 10.567m18.138-10.567L42.322 545.47m17.634-10.567-10.58 10.567m18.137-10.567-10.58 10.567m17.634-10.567-10.58 10.567m17.633-10.567L71.04 545.47m17.634-10.567-10.58 10.567m17.634-10.567-10.58 10.567m17.633-10.567-10.58 10.567m17.634-10.567-10.58 10.567m17.633-10.567-10.58 10.567m-17.634-10.567-10.58 10.567m45.848-10.567-10.58 10.567m17.634-10.567-10.58 10.567m17.633-10.567-10.58 10.567m17.634-10.567-10.58 10.567m0-10.567 10.58 10.567m-17.634-10.567 10.58 10.567m-17.634-10.567 10.58 10.567m-17.633-10.567 10.58 10.567m-17.634-10.567 10.58 10.567m-17.634-10.567 10.58 10.567m-17.633-10.567 10.58 10.567m-17.634-10.567 10.58 10.567m-17.634-10.567 10.58 10.567M71.04 534.903l10.58 10.567m-17.634-10.567 10.58 10.567m-17.633-10.567 10.58 10.567m17.634-10.567 10.58 10.567M49.88 534.903l10.077 10.567m-17.634-10.567 11.084 10.567m-18.138-10.567 10.58 10.567m-17.634-10.567 10.58 10.567" style="fill-rule:evenodd;fill:#fff;fill-opacity:1;stroke-width:1.3;stroke-linecap:butt;stroke-linejoin:miter;stroke:#ef2d28;stroke-opacity:1;stroke-miterlimit:4" transform="matrix(.00775 0 0 .00702 4.348 -.53)"/><path d="M29.222 467.653H144.6c6.046 0 11.084 5.561 11.084 11.679v61.733c0 6.118-5.038 11.68-11.084 11.68H29.222c-6.55 0-11.588-5.562-11.588-11.68v-61.733c0-6.118 5.038-11.68 11.588-11.68Zm0 0" style="fill-rule:evenodd;fill:#fff;fill-opacity:1;stroke-width:1.4;stroke-linecap:butt;stroke-linejoin:miter;stroke:#ef2d28;stroke-opacity:1;stroke-miterlimit:4" transform="matrix(.00775 0 0 .00702 .746 -.554)"/><path d="M32.245 471.546h109.331c6.046 0 10.58 4.449 10.58 10.567v56.171c0 6.118-4.534 11.123-10.58 11.123H32.246c-6.047 0-11.085-5.005-11.085-11.123v-56.171c0-6.118 5.038-10.567 11.084-10.567Zm0 0" style="fill-rule:evenodd;fill:#fff;fill-opacity:1;stroke-width:1.3;stroke-linecap:butt;stroke-linejoin:miter;stroke:#ef2d28;stroke-opacity:1;stroke-miterlimit:4" transform="matrix(.00775 0 0 .00702 .746 -.554)"/><path d="M64.786 396.41h9.616l.74 5.703 8.137 5.702 5.918-6.653 7.398 4.752-6.658 5.702 1.48 8.554 8.877-.95v10.453h-6.658l-3.699 6.653 7.398 7.603-5.918 5.702-6.658-6.652-9.617 2.85.74 9.504-11.096.95-1.48-9.503-8.137-4.752-5.178 6.653-7.398-4.752 4.439-7.603-5.179-4.752h-8.137V418.27l7.398.95 5.178-8.553-5.918-5.702 8.137-7.603 5.178 5.702 9.617-.95Zm0 0" style="fill-rule:evenodd;fill:#fff;fill-opacity:1;stroke-width:1.3;stroke-linecap:butt;stroke-linejoin:miter;stroke:#ef2d28;stroke-opacity:1;stroke-miterlimit:4" transform="matrix(.00528 0 0 .00411 1.04 1.277)"/><path d="M80.367 426.869c0-5.544-5.358-10.296-11.482-10.296s-10.717 4.752-10.717 10.296 4.593 9.503 10.717 9.503 11.482-3.96 11.482-9.503Zm0 0" style="fill-rule:evenodd;fill:#fff;fill-opacity:1;stroke-width:1.3;stroke-linecap:butt;stroke-linejoin:miter;stroke:#ef2d28;stroke-opacity:1;stroke-miterlimit:4" transform="matrix(.0051 0 0 .00493 1.047 .918)"/><path d="m38.795 474.883-10.58 10.566m17.633-10.566-10.58 10.566m17.634-10.566-10.58 10.566m17.634-10.566-10.58 10.566m18.137-10.566-10.58 10.566m17.634-10.566-10.58 10.566m17.633-10.566-10.58 10.566m17.634-10.566-10.58 10.566m17.634-10.566-10.58 10.566m17.633-10.566-10.58 10.566m17.634-10.566-10.58 10.566m17.633-10.566-10.58 10.566m-17.634-10.566-10.58 10.566m45.848-10.566-10.58 10.566m17.634-10.566-10.58 10.566m17.633-10.566-10.58 10.566m17.634-10.566-10.58 10.566m0-10.566 10.58 10.566m-17.634-10.566 10.58 10.566m-17.634-10.566 10.58 10.566m-17.633-10.566 10.58 10.566m-17.634-10.566 10.58 10.566m-17.634-10.566 10.58 10.566m-17.633-10.566 10.58 10.566m-17.634-10.566 10.58 10.566M77.59 474.883l11.084 10.566M71.04 474.883l10.58 10.566m-18.138-10.566 10.58 10.566M56.43 474.883l10.58 10.566m18.138-10.566 10.58 10.566m-46.352-10.566 10.58 10.566m-17.633-10.566 10.58 10.566m-17.634-10.566 10.58 10.566m-17.634-10.566 10.58 10.566m0 49.498-10.58 10.567m17.634-10.567-10.58 10.567m18.138-10.567-11.084 10.567m17.634-10.567-10.58 10.567m18.137-10.567-10.58 10.567m17.634-10.567-10.58 10.567m17.633-10.567-10.58 10.567m17.634-10.567-10.58 10.567m17.634-10.567-10.58 10.567m17.633-10.567-10.58 10.567m17.634-10.567-10.58 10.567m17.633-10.567-10.58 10.567m-17.634-10.567-10.58 10.567m45.848-10.567-10.58 10.567m17.634-10.567-10.58 10.567m17.633-10.567-10.58 10.567m17.634-10.567-10.58 10.567m0-10.567 10.58 10.567m-17.634-10.567 10.58 10.567m-17.634-10.567 10.58 10.567m-17.633-10.567 10.58 10.567m-17.634-10.567 10.58 10.567m-17.634-10.567 10.58 10.567m-17.633-10.567 10.58 10.567m-17.634-10.567 10.58 10.567m-17.633-10.567 10.58 10.567M71.04 534.947l10.58 10.567m-17.634-10.567 10.58 10.567m-17.633-10.567 10.58 10.567m17.634-10.567 10.58 10.567M49.88 534.947l10.077 10.567m-17.634-10.567 11.084 10.567m-18.138-10.567 10.58 10.567m-17.634-10.567 10.58 10.567" style="fill-rule:evenodd;fill:#fff;fill-opacity:1;stroke-width:1.3;stroke-linecap:butt;stroke-linejoin:miter;stroke:#ef2d28;stroke-opacity:1;stroke-miterlimit:4" transform="matrix(.00775 0 0 .00702 .746 -.554)"/><path d="M538.544 531.468c1.9 166.633 24.833 202.004 3.716 201.935-21.56.14-32.02-91.826-31.971-205.506-.171-113.33 14.04-205.437 35.38-205.228 21.337-.281-9.1 31.87-7.125 208.8Zm0 0" style="fill-rule:evenodd;fill:#fff;fill-opacity:1;stroke-width:1.3;stroke-linecap:butt;stroke-linejoin:miter;stroke:#ef2d28;stroke-opacity:1;stroke-miterlimit:4" transform="matrix(-.01255 -.00502 -.00787 .008 13.512 2.43)"/><path d="m545.647 779.611-60.46 17.797c56.933 60.065 120.92 84.536 138.553 73.969 17.634-10.567-32.245-35.038-78.093-91.766Zm0 0" style="fill-rule:evenodd;fill:#fff;fill-opacity:1;stroke-width:1.2;stroke-linecap:butt;stroke-linejoin:miter;stroke:#ef2d28;stroke-opacity:1;stroke-miterlimit:4" transform="matrix(-.00775 0 0 .00702 5.676 -.53)"/><path d="m547.223 786.651-50.688 15.038c56.377 60.152 112.754 77.504 127.237 69.985s-30.517-28.341-76.55-85.023Zm0 0" style="fill-rule:evenodd;fill:#fff;fill-opacity:1;stroke-width:1.3;stroke-linecap:butt;stroke-linejoin:miter;stroke:#ef2d28;stroke-opacity:1;stroke-miterlimit:4" transform="matrix(-.00755 0 0 .00675 5.578 -.32)"/><path d="M353.413 634.587c0 .795.715 6.36.715 8.744 0 3.18.715 5.565.715 8.745.716 1.59.716 3.974 3.577 4.77.716 1.59 2.862 3.18 5.008 3.974 1.431 1.59 3.577 3.18 5.724 3.975 2.861.795 5.007 1.59 7.869.795 2.146-1.59 3.577-3.18 5.723-4.77 0-1.59.716-4.77.716-6.36-.716 2.385-.716 4.77-.716 7.95s.716 4.77 2.147 7.154" style="fill:none;stroke-width:1.8;stroke-linecap:butt;stroke-linejoin:miter;stroke:#ef2d28;stroke-opacity:1;stroke-miterlimit:4" transform="matrix(-.00546 0 0 .00491 4.805 .807)"/><path d="m389.183 681.563.715-.795c-1.43 1.59-.715.795 2.862-.795 2.146-1.59 5.008-2.385 7.87-2.385h8.584c3.578 0 5.724 0 8.585.795 1.431 2.385 4.293 3.18 5.724 4.77 2.146.795 3.577 3.18 4.292 4.77 1.431 1.59 2.146 4.769 4.293 5.564.715 3.18 2.146 3.18 2.861 4.77-2.861.795-5.008.795-7.154 3.18-2.146.794 2.146-1.59 3.577-3.18 2.146 0 2.146-.795 5.723-.795 2.862-.795 4.293.795 7.155.795 2.146 1.59 2.146 1.59 4.292 1.59" style="fill:none;stroke-width:1.8;stroke-linecap:butt;stroke-linejoin:miter;stroke:#ef2d28;stroke-opacity:1;stroke-miterlimit:4" transform="matrix(-.00546 0 0 .00491 4.879 .78)"/><path d="M437.83 724.649c1.432 0 7.155 1.59 10.017 0 2.146-.795 3.577-1.59 5.007-3.975.716-1.59 0 3.18 0 4.77.716 3.974 1.431 3.974 3.578 6.36 1.43.794 3.577 2.384 5.723 3.974 1.43.795 3.577 2.385 5.008 3.18 2.146.795 4.292 1.59 5.723 2.385 2.146 1.59 2.146 3.974 3.577 6.36-.715 2.384-.715 4.769-2.862 5.564-.715 2.384-2.146 4.77-3.577 5.564-1.43 3.18-3.577 4.77.716 5.565 2.146.795 3.577 0 5.723 0" style="fill:none;stroke-width:1.8;stroke-linecap:butt;stroke-linejoin:miter;stroke:#ef2d28;stroke-opacity:1;stroke-miterlimit:4" transform="matrix(-.00546 0 0 .00491 4.96 .72)"/><path d="M480.755 771.593c1.431 0 7.155-2.385 9.3-3.18h8.586c3.577.795 4.292 1.59 7.154 2.385 1.43 2.385 2.861 3.18 5.723 4.77 1.43 1.59 3.577 4.77 5.008 7.154.715 2.385.715 4.77.715 7.95s-.715 3.974-.715 7.154c-.715 3.18-2.146 5.564-4.292 7.95 0 0 0 .794-.716.794" style="fill:none;stroke-width:1.8;stroke-linecap:butt;stroke-linejoin:miter;stroke:#ef2d28;stroke-opacity:1;stroke-miterlimit:4" transform="matrix(-.00546 0 0 .00491 4.977 .705)"/><path d="m538.09 817.578 2.015 4.028c3.023 3.022 4.03 3.022 8.061 3.022s3.023-1.007 6.046-2.015c1.008-2.014 3.023-4.028 5.038-6.042 1.008-2.014 1.008-5.035 3.023-6.043 1.008-2.014 2.016-3.02 3.023-5.035 1.008 0 2.016-1.007 3.023-1.007-3.023 0-3.023 2.014-6.046 3.021l-3.023 6.043c0 3.021-1.007 5.035-1.007 8.056 0 4.029 0 6.043 1.007 9.064 2.016 1.007 3.023 3.021 5.039 4.029 1.007 2.014 3.023 3.02 4.03 5.035l5.039 4.028c2.015 1.007 4.03 2.014 7.053 2.014 4.03 0 5.038-1.007 8.061-2.014 2.016-2.014 4.031-3.021 6.046-5.035 2.016-1.007 3.023-3.021 4.031-4.028 4.03-1.008 6.046-1.008 8.061 1.007 1.008 1.007 3.023 2.014 4.03 4.028 1.009 1.007 3.024 2.014 4.032 3.021" style="fill:none;stroke-width:2.3;stroke-linecap:butt;stroke-linejoin:miter;stroke:#ef2d28;stroke-opacity:1;stroke-miterlimit:4" transform="matrix(-.00388 0 0 .00388 4.277 1.536)"/><path d="M504.134 836.364c-.81 0-4.053 2.42-5.674 3.228-.81 2.42-1.62 4.035-2.431 6.456 0 2.42-.811 5.648-.811 8.876.81 3.228 2.432 5.649 3.242 8.07 2.432 1.614 3.242 2.42 5.674 4.035h8.105c2.431.807 5.673 1.614 8.105 0 2.431 0 4.863-.807 6.484-2.421 2.431-.807 4.052-2.421 6.484-3.228.81-1.614 3.242-4.035 4.863-5.649 1.62-2.42 2.431-3.228 4.052-5.649-1.62 2.421-2.431 4.842-3.242 7.263-1.62 2.421-2.431 4.035-2.431 6.456-1.621 3.228-.81 6.456-.81 8.877 0 2.42 0 6.455.81 8.07v1.613" style="fill:none;stroke-width:1.9;stroke-linecap:butt;stroke-linejoin:miter;stroke:#ef2d28;stroke-opacity:1;stroke-miterlimit:4" transform="matrix(-.00482 0 0 .00484 4.352 .764)"/><path d="M541.112 799.077v.556c.504-1.669 0-.556-.503 2.78-1.008 1.113-4.031 1.669-6.046 1.113-2.016-1.669-2.016-2.78-5.542-3.893-4.031.556-5.039 1.668-7.054 2.78-2.52.557-4.03 2.225-5.038 4.45-1.008 1.668-1.008 3.337 1.007 4.449 2.016 1.112 4.535 2.225 7.054 2.225 3.023 0 5.038 0 6.55 1.112 1.511 2.225 1.511 3.337 1.511 7.23.504 1.112 1.008 4.45 1.512 5.562 1.511 1.112 3.527 1.112 5.542 1.112.504-2.225 1.511-5.562 2.015-7.23.504-2.225.504-5.562 1.512-7.23 1.511-1.669 3.023-3.337 4.534-4.45 1.008-1.112 2.015-1.668 3.527-2.224-2.52 1.112-2.52 2.78-3.023 5.562 2.015 1.112 3.023 1.668 6.55 1.668s4.03-1.112 5.542-2.78c0 2.78 1.007 3.892 2.015 6.673 1.008 2.225 1.512 3.893 3.023 6.118-.504 3.337-2.015 3.337-2.015 7.23-1.008 2.224-1.008 4.449-2.52 6.117-1.007 1.113-1.51 1.113-3.022 1.113 3.526 0 5.542-.556 8.06-1.669l5.04-3.893c2.015-1.668 4.534-2.78 7.557-3.893 3.023 0 5.038 0 6.046 1.669 2.015 1.112 3.023 3.337 4.03 6.117.504 3.337.504 5.562-1.007 7.23-1.008 2.781-1.008 3.337 0 6.674 1.511 1.669 3.526 2.225 7.053 2.781 2.52 0 4.535-.556 6.046-1.112" style="fill:none;stroke-width:1.2;stroke-linecap:butt;stroke-linejoin:miter;stroke:#ef2d28;stroke-opacity:1;stroke-miterlimit:4" transform="matrix(-.00775 0 0 .00702 5.676 -.53)"/><path d="M531.404 359.418c.023-164.883 8.254-299.377 17.722-299.066 9.908.05 17.776 134.08 17.753 298.962Zm0 0" style="fill-rule:evenodd;fill:#fff;fill-opacity:1;stroke-width:1.3;stroke-linecap:butt;stroke-linejoin:miter;stroke:#ef2d28;stroke-opacity:1;stroke-miterlimit:4" transform="matrix(-.01102 -.00516 -.00358 .00628 11.233 3.27)"/><path d="M531.283 359.66c-.016-165.14 8.278-299.461 17.966-299.312 9.887-.36 17.572 133.883 17.588 299.023" style="fill-rule:evenodd;fill:#fff;fill-opacity:1;stroke-width:1.3;stroke-linecap:butt;stroke-linejoin:miter;stroke:#ef2d28;stroke-opacity:1;stroke-miterlimit:4" transform="matrix(-.00882 -.00413 -.00345 .00606 9.977 2.783)"/><path d="M563.277 301.046c.25 18.986.143 40.18.074 60.154l-28.443.28c.068-19.974-.104-41.399-.075-60.153Zm0 0" style="fill-rule:evenodd;fill:#fff;fill-opacity:1;stroke-width:1.3;stroke-linecap:butt;stroke-linejoin:miter;stroke:#ef2d28;stroke-opacity:1;stroke-miterlimit:4" transform="matrix(-.01102 -.00516 -.00356 .00624 11.233 3.272)"/><path d="M560.003 304.6c-.189 19.249-.06 33.126-.13 53.1l-21.252-.037c.068-19.974-.34-34.082.129-53.1Zm0 0" style="fill-rule:evenodd;fill:#fff;fill-opacity:1;stroke-width:1.3;stroke-linecap:butt;stroke-linejoin:miter;stroke:#ef2d28;stroke-opacity:1;stroke-miterlimit:4" transform="matrix(-.01102 -.00516 -.00356 .00624 11.233 3.272)"/><path d="m542.11 311.722 14.222-.14.023 39.454-14.063-.354Zm0 0 14.245 39.314m-14.063-.354 14.04-39.1m-14.297-198.35 14.222-.14" style="fill-rule:evenodd;fill:#fff;fill-opacity:1;stroke-width:1.3;stroke-linecap:butt;stroke-linejoin:miter;stroke:#ef2d28;stroke-opacity:1;stroke-miterlimit:4" transform="matrix(-.01102 -.00516 -.00356 .00624 11.233 3.272)"/><path d="M549.15 92.25c.142-2.154-1.486-3.8-3.33-3.623-2.213-.068-3.758 1.433-3.605 3.503.079 1.738 1.411 3.47 3.624 3.538 1.844-.178 3.39-1.68 3.311-3.418Zm0 0" style="fill-rule:evenodd;fill:#ef0000;fill-opacity:1;stroke-width:1.3;stroke-linecap:butt;stroke-linejoin:miter;stroke:#ef2d28;stroke-opacity:1;stroke-miterlimit:4" transform="matrix(-.01244 .00319 .0028 .01109 11.374 -1.73)"/><path d="M538.527 531.496c1.899 166.633 24.832 202.004 3.716 201.935-21.56.14-32.02-91.826-31.972-205.506-.17-113.33 14.04-205.437 35.38-205.228 21.337-.28-8.88 31.52-7.124 208.8Zm0 0" style="fill-rule:evenodd;fill:#fff;fill-opacity:1;stroke-width:1.3;stroke-linecap:butt;stroke-linejoin:miter;stroke:#ef2d28;stroke-opacity:1;stroke-miterlimit:4" transform="matrix(.01255 -.00502 .00787 .008 -7.09 2.407)"/><path d="m545.647 779.656-60.46 17.797c56.933 60.064 120.92 84.535 138.553 73.968 17.634-10.567-32.245-35.037-78.093-91.765Zm0 0" style="fill-rule:evenodd;fill:#fff;fill-opacity:1;stroke-width:1.2;stroke-linecap:butt;stroke-linejoin:miter;stroke:#ef2d28;stroke-opacity:1;stroke-miterlimit:4" transform="matrix(.00775 0 0 .00702 .746 -.554)"/><path d="m547.222 786.705-50.687 15.038c56.377 60.152 112.754 77.504 127.237 69.985s-30.517-28.341-76.55-85.023Zm0 0" style="fill-rule:evenodd;fill:#fff;fill-opacity:1;stroke-width:1.3;stroke-linecap:butt;stroke-linejoin:miter;stroke:#ef2d28;stroke-opacity:1;stroke-miterlimit:4" transform="matrix(.00755 0 0 .00675 .844 -.348)"/><path d="M353.412 633.866c0 1.59.716 7.155.716 9.54 0 3.18.715 5.564.715 7.949.716 2.385.716 4.77 3.577 5.565.716 1.59 2.862 3.18 5.008 3.974 1.431 1.59 3.577 3.18 5.724 3.975 2.861.795 5.007 1.59 7.869.795 2.146-1.59 3.577-3.18 5.723-4.77 0-1.59.716-4.77.716-6.36-.716 2.386-.716 4.77-.716 7.95s.716 3.975 2.147 6.36" style="fill:none;stroke-width:1.8;stroke-linecap:butt;stroke-linejoin:miter;stroke:#ef2d28;stroke-opacity:1;stroke-miterlimit:4" transform="matrix(.00546 0 0 .00491 1.617 .78)"/><path d="m389.183 681.637.715-.795c-1.43 1.59-.715.795 2.862-.795 2.146-1.59 5.008-2.385 7.87-2.385h8.584c3.578 0 5.724 0 8.585.795 1.431 1.59 4.293 3.18 5.724 4.77 2.146.795 3.577 3.18 4.292 4.77 1.431 1.59 2.146 3.974 4.293 5.564.715 3.18 2.146 3.18 2.861 4.77-2.861.795-5.008.795-7.154 2.385s2.146-.795 3.577-2.385c2.146 0 2.146-.795 5.723-.795 2.862-.795 4.293.795 7.155.795 2.146 1.59 2.146 1.59 4.292 1.59" style="fill:none;stroke-width:1.8;stroke-linecap:butt;stroke-linejoin:miter;stroke:#ef2d28;stroke-opacity:1;stroke-miterlimit:4" transform="matrix(.00546 0 0 .00491 1.543 .752)"/><path d="M437.83 724.712c1.432 0 7.155 1.59 10.017 0 2.146-.795 3.577-1.59 5.007-3.974.716-1.59 0 2.384 0 4.77.716 3.974 1.431 3.974 3.578 6.359 1.43.795 3.577 2.385 5.723 3.975 1.43.794 3.577 2.384 5.008 2.384 2.146 1.59 4.292 2.385 5.723 3.18 2.146 1.59 2.146 3.975 3.577 6.36-.715 2.384-.715 4.77-2.862 5.564-.715 2.385-2.146 4.77-3.577 5.565-1.43 3.18-3.577 4.77.716 5.564 2.146.795 3.577 0 5.723 0" style="fill:none;stroke-width:1.8;stroke-linecap:butt;stroke-linejoin:miter;stroke:#ef2d28;stroke-opacity:1;stroke-miterlimit:4" transform="matrix(.00546 0 0 .00491 1.46 .697)"/><path d="M480.755 771.656c1.431 0 7.155-2.384 9.3-3.18h8.586c3.577.796 4.292 1.59 7.154 2.385 1.43 2.385 2.861 3.18 5.723 4.77 1.43 1.59 3.577 4.77 5.008 7.155.715 2.384.715 4.77.715 7.949s-.715 3.975-.715 7.154c-.715 3.18-2.146 5.565-4.292 7.95 0 0 0 .795-.716.795" style="fill:none;stroke-width:1.8;stroke-linecap:butt;stroke-linejoin:miter;stroke:#ef2d28;stroke-opacity:1;stroke-miterlimit:4" transform="matrix(.00546 0 0 .00491 1.445 .68)"/><path d="m538.09 817.659 2.015 4.028c3.023 3.021 4.03 3.021 8.061 3.021s3.023-1.007 6.046-2.014c1.008-2.014 3.023-4.028 5.038-7.05 1.008-1.007 1.008-4.028 3.023-5.035 1.008-2.014 2.016-3.021 3.023-5.035 1.008-1.007 2.016-1.007 3.023-1.007-3.023 0-3.023 2.014-6.046 3.02l-3.023 6.043c0 3.022-1.007 5.036-1.007 8.057s0 6.042 1.007 9.064c2.016 1.007 3.023 3.021 5.039 4.028 1.007 2.014 3.023 3.021 4.03 5.035l5.039 4.029c2.015 1.007 4.03 2.014 7.053 2.014 4.03 0 5.038-1.007 8.061-2.014 2.016-2.014 4.031-3.021 6.046-5.036 2.016-1.007 3.023-3.02 4.031-5.035 4.03 0 6.046 0 8.061 2.014 1.008 1.007 3.023 2.014 4.03 4.028 1.009 1.008 3.024 2.015 4.032 3.022" style="fill:none;stroke-width:2.3;stroke-linecap:butt;stroke-linejoin:miter;stroke:#ef2d28;stroke-opacity:1;stroke-miterlimit:4" transform="translate(2.148 1.512)scale(.00388)"/><path d="M504.134 836.44c-.81 0-4.053 2.42-5.674 2.42-.81 3.228-1.621 4.842-2.431 7.263 0 2.42-.811 5.649-.811 8.877.81 3.227 2.432 5.648 3.242 8.07 2.432 1.613 3.242 2.42 5.674 3.227 2.431.807 5.673.807 8.105.807 2.431.807 5.673.807 8.105 0 2.431 0 4.863-.807 6.484-2.42 2.431-.808 4.052-2.422 6.484-3.229.81-2.42 3.242-4.035 4.863-5.648 1.62-2.421 2.431-3.228 4.052-5.65-1.62 2.422-2.431 4.843-3.242 7.263-1.62 2.421-2.431 3.228-2.431 6.456-1.621 3.228-.81 6.456-.81 8.877 0 2.42 0 5.649.81 8.07v1.613" style="fill:none;stroke-width:1.9;stroke-linecap:butt;stroke-linejoin:miter;stroke:#ef2d28;stroke-opacity:1;stroke-miterlimit:4" transform="matrix(.00482 0 0 .00484 2.07 .736)"/><path d="M541.112 799.121v.556c.504-1.668 0-.556-.503 2.781-1.008 1.112-4.031 1.669-6.046 1.112-2.016-1.668-2.016-2.78-5.542-3.893-4.031.556-5.039 1.669-7.054 2.781-2.52.556-4.03 2.225-5.038 4.45-1.008 1.668-1.008 3.336 1.007 4.449 2.016 1.112 4.535 2.224 7.054 2.224 3.023 0 5.038-.556 6.55 1.112 1.511 2.225 1.511 3.337 1.511 7.23.504 1.113 1.008 4.45 1.512 5.562 1.511.556 3.526 1.112 5.542 1.112.504-2.224 1.511-5.561 2.015-7.23.504-2.224.504-5.561 1.512-7.23 1.511-1.668 3.023-3.337 4.534-4.449 1.008-1.112 2.015-1.668 3.527-2.225-2.52 1.113-2.52 2.781-3.023 5.562 2.015 1.112 3.023 1.668 6.55 1.668s4.03-1.112 5.542-2.78c0 2.78 1.007 3.893 2.015 6.674 1.008 1.668 1.512 3.893 3.023 6.117-.504 3.337-2.015 3.337-2.015 7.23-1.008 2.225-1.008 4.45-2.52 6.118-1.007 1.112-1.51 1.112-3.022 1.112 3.526 0 5.542-.556 8.06-1.668l5.04-3.893c2.015-1.669 4.534-2.781 7.557-3.893 3.023 0 5.038 0 6.046 1.112 2.015 1.668 3.023 3.893 4.03 6.674.504 3.337.504 5.561-1.007 7.23-1.008 2.78-1.008 3.337 0 6.118 1.511 2.224 3.526 2.78 7.053 3.336 2.52 0 4.535-.556 6.046-1.112" style="fill:none;stroke-width:1.2;stroke-linecap:butt;stroke-linejoin:miter;stroke:#ef2d28;stroke-opacity:1;stroke-miterlimit:4" transform="matrix(.00775 0 0 .00702 .746 -.554)"/><path d="M531.391 359.457c.023-164.882 8.254-299.376 17.722-299.065 9.908.05 17.776 134.079 17.753 298.962Zm0 0" style="fill-rule:evenodd;fill:#fff;fill-opacity:1;stroke-width:1.3;stroke-linecap:butt;stroke-linejoin:miter;stroke:#ef2d28;stroke-opacity:1;stroke-miterlimit:4" transform="matrix(.01102 -.00516 .00358 .00628 -4.811 3.246)"/><path d="M531.268 359.702c.182-165.65 8.277-299.462 17.965-299.313 9.887-.36 17.572 133.883 17.588 299.023" style="fill-rule:evenodd;fill:#fff;fill-opacity:1;stroke-width:1.3;stroke-linecap:butt;stroke-linejoin:miter;stroke:#ef2d28;stroke-opacity:1;stroke-miterlimit:4" transform="matrix(.00882 -.00413 .00345 .00606 -3.555 2.76)"/><path d="M563.264 301.086c.25 18.985.143 40.179.075 60.153l-28.444.28c.068-19.973-.104-41.398.085-60.647Zm0 0" style="fill-rule:evenodd;fill:#fff;fill-opacity:1;stroke-width:1.3;stroke-linecap:butt;stroke-linejoin:miter;stroke:#ef2d28;stroke-opacity:1;stroke-miterlimit:4" transform="matrix(.01102 -.00516 .00356 .00624 -4.81 3.249)"/><path d="M559.99 304.64c-.029 18.754-.06 33.125-.129 53.1l-21.253-.037c.069-19.974-.34-34.082.13-53.1Zm0 0" style="fill-rule:evenodd;fill:#fff;fill-opacity:1;stroke-width:1.3;stroke-linecap:butt;stroke-linejoin:miter;stroke:#ef2d28;stroke-opacity:1;stroke-miterlimit:4" transform="matrix(.01102 -.00516 .00356 .00624 -4.81 3.249)"/><path d="m542.097 311.761 14.222-.14.023 39.454-14.063-.354Zm0 0 14.245 39.314m-14.063-.354 14.04-39.1m-14.297-198.35 14.222-.14" style="fill-rule:evenodd;fill:#fff;fill-opacity:1;stroke-width:1.3;stroke-linecap:butt;stroke-linejoin:miter;stroke:#ef2d28;stroke-opacity:1;stroke-miterlimit:4" transform="matrix(.01102 -.00516 .00356 .00624 -4.81 3.249)"/><path d="M549.156 92.277c.142-2.155-1.486-3.8-3.33-3.623-2.213-.069-3.758 1.432-3.605 3.502.078 1.739 1.411 3.47 3.624 3.538 1.844-.178 3.39-1.679 3.311-3.417Zm0 0" style="fill-rule:evenodd;fill:#ef0000;fill-opacity:1;stroke-width:1.3;stroke-linecap:butt;stroke-linejoin:miter;stroke:#ef2d28;stroke-opacity:1;stroke-miterlimit:4" transform="matrix(.01244 .00319 -.0028 .01109 -4.952 -1.754)"/><path d="M305.421 397.02c0 124.023.756 170.74-5.29 176.858-6.046 7.23-167.402 0-167.402 35.594s133.015 71.188 172.692 71.188c53.281 0 80.11-35.594 79.733-106.782V397.021Zm0 0" style="fill-rule:evenodd;fill:#fff;fill-opacity:1;stroke-width:1.3;stroke-linecap:butt;stroke-linejoin:miter;stroke:#ef2d28;stroke-opacity:1;stroke-miterlimit:4" transform="matrix(.01034 0 0 .00702 -.353 -.554)"/><path d="M266.022 396.663v17.797c34.764 6.117 71.04 6.117 105.804 0v-17.797c-34.764 6.117-71.04 6.117-105.804 0Zm0 0" style="fill-rule:evenodd;fill:#fff;fill-opacity:1;stroke-width:1.3;stroke-linecap:butt;stroke-linejoin:miter;stroke:#ef2d28;stroke-opacity:1;stroke-miterlimit:4" transform="matrix(.00775 0 0 .00702 .746 -.306)"/><path d="M266.022 397.025v17.797c34.764 5.562 71.04 5.562 105.804 0v-17.797c-34.764 5.561-71.04 5.561-105.804 0Zm0 0" style="fill-rule:evenodd;fill:#fff;fill-opacity:1;stroke-width:1.3;stroke-linecap:butt;stroke-linejoin:miter;stroke:#ef2d28;stroke-opacity:1;stroke-miterlimit:4" transform="matrix(.00775 0 0 .00702 .746 -.554)"/><path d="M266.022 397.122v17.24c34.764 6.118 71.04 6.118 105.804 0v-17.24c-34.764 5.561-71.04 5.561-105.804 0Zm0 0" style="fill-rule:evenodd;fill:#fff;fill-opacity:1;stroke-width:1.3;stroke-linecap:butt;stroke-linejoin:miter;stroke:#ef2d28;stroke-opacity:1;stroke-miterlimit:4" transform="matrix(.00775 0 0 .00702 .746 -.43)"/><path d="M266.022 396.76v17.797c34.764 6.117 71.04 6.117 105.804 0V396.76c-34.764 6.117-71.04 6.117-105.804 0Zm0 0" style="fill-rule:evenodd;fill:#fff;fill-opacity:1;stroke-width:1.3;stroke-linecap:butt;stroke-linejoin:miter;stroke:#ef2d28;stroke-opacity:1;stroke-miterlimit:4" transform="matrix(.00775 0 0 .00702 .746 -.181)"/><path d="M266.009 212.254c0-15.467-4.619-27.067-9.237-27.067s-8.313 11.6-8.313 27.067c0 11.6 3.694 27.068 8.313 27.068 4.618 0 9.237-15.467 9.237-27.068Zm0 0" style="fill-rule:evenodd;fill:#fff;fill-opacity:1;stroke-width:4.4;stroke-linecap:butt;stroke-linejoin:miter;stroke:#ef2d28;stroke-opacity:1;stroke-miterlimit:4" transform="matrix(.00423 0 0 .00101 1.758 2.215)"/><path d="M301.11 246.103c0-15.467-3.696-27.067-9.238-27.067-4.618 0-8.313 11.6-8.313 27.067s3.695 27.067 8.313 27.067c5.542 0 9.237-11.6 9.237-27.067Zm0 0" style="fill-rule:evenodd;fill:#fff;fill-opacity:1;stroke-width:4.4;stroke-linecap:butt;stroke-linejoin:miter;stroke:#ef2d28;stroke-opacity:1;stroke-miterlimit:4" transform="matrix(.00423 0 0 .00101 1.758 2.193)"/><path d="M337.133 265.742c0-15.467-4.618-27.068-9.237-27.068s-9.237 11.6-9.237 27.068c0 11.6 4.619 23.2 9.237 23.2s9.237-11.6 9.237-23.2ZM372.234 265.742c0-15.467-3.695-27.068-9.237-27.068-4.619 0-8.313 11.6-8.313 27.068 0 11.6 3.694 23.2 8.313 23.2 5.542 0 9.237-11.6 9.237-23.2Zm0 0" style="fill-rule:evenodd;fill:#fff;fill-opacity:1;stroke-width:4.4;stroke-linecap:butt;stroke-linejoin:miter;stroke:#ef2d28;stroke-opacity:1;stroke-miterlimit:4" transform="matrix(.00423 0 0 .00101 1.758 2.189)"/><path d="M407.334 246.103c0-15.467-3.695-27.067-8.313-27.067-5.542 0-9.237 11.6-9.237 27.067s3.695 27.067 9.237 27.067c4.618 0 8.313-11.6 8.313-27.067Zm0 0" style="fill-rule:evenodd;fill:#fff;fill-opacity:1;stroke-width:4.4;stroke-linecap:butt;stroke-linejoin:miter;stroke:#ef2d28;stroke-opacity:1;stroke-miterlimit:4" transform="matrix(.00423 0 0 .00101 1.758 2.193)"/><path d="M443.358 212.254c0-15.467-4.618-27.067-9.237-27.067s-9.237 11.6-9.237 27.067c0 11.6 4.619 27.068 9.237 27.068s9.237-15.467 9.237-27.068Zm0 0" style="fill-rule:evenodd;fill:#fff;fill-opacity:1;stroke-width:4.4;stroke-linecap:butt;stroke-linejoin:miter;stroke:#ef2d28;stroke-opacity:1;stroke-miterlimit:4" transform="matrix(.00423 0 0 .00101 1.758 2.215)"/><path d="m266.022 485.45 105.804 95.658m-95.224-95.659 95.728 85.092m-81.62-81.755 81.62 71.188m-71.04-71.188 71.04 60.621m-60.46-60.62 59.956 50.053m-49.375-50.054 49.375 39.487m-38.795-39.487 38.795 28.364m-28.215-28.364 28.719 21.69m-18.138-21.69 18.138 14.46m-7.558-14.46 7.054 7.23m-105.804 0 105.804 95.66m0-106.227L254.938 591.675M361.245 485.45l-102.78 92.322m88.673-88.985-81.62 71.188m71.04-71.188-71.04 60.621m60.46-60.62-59.956 50.053m49.375-50.054-49.375 39.487m38.795-39.487-38.795 28.364m28.214-28.364-28.718 21.69m17.634-21.69-17.634 14.46m7.054-14.46-7.054 7.23m106.308 0L254.938 602.242m116.888-95.659L254.938 612.81m116.888-95.659L254.938 623.376m116.888-95.659L254.938 634.5m116.888-95.659L254.938 645.066m116.888-95.659L254.938 655.633m116.888-95.659L254.938 666.2m116.888-95.659L254.938 676.767m116.888-95.659L261.99 680.104m109.835-88.429-99.254 88.429m95.727-73.969-78.093 70.632m74.566-56.728-63.482 56.728m56.429-38.93L325.977 666.2m-59.955-159.617 102.277 92.322M266.022 517.15l102.277 92.322m-102.277-81.199 98.75 88.43m-98.75-78.419 98.75 88.985m-98.75-77.862 95.223 84.536m-99.254-77.862 95.728 85.092m-95.728-73.969 88.674 77.862m-92.2-71.188 88.673 77.862m-92.2-70.632 85.147 74.525m-85.147-63.958 81.62 70.632m-81.62-60.065 71.04 63.958" style="fill-rule:evenodd;fill:#fff;fill-opacity:1;stroke-width:1.3;stroke-linecap:butt;stroke-linejoin:miter;stroke:#ef2d28;stroke-opacity:1;stroke-miterlimit:4" transform="matrix(.00775 0 0 .00702 .746 -.554)"/><path d="M266.022 396.756v17.798c34.764 6.117 71.04 6.117 105.804 0v-17.798c-34.764 6.118-71.04 6.118-105.804 0Zm0 0" style="fill-rule:evenodd;fill:#fff;fill-opacity:1;stroke-width:1.3;stroke-linecap:butt;stroke-linejoin:miter;stroke:#ef2d28;stroke-opacity:1;stroke-miterlimit:4" transform="matrix(.00775 0 0 .00702 .746 -.056)"/><path d="m254.938 612.81 63.986 56.727m-63.986-45.605 56.932 49.498m-56.932-39.487 49.879 42.824m-49.88-31.7 35.772 31.7m-35.771-21.134 28.214 24.47M254.938 666.2l17.634 13.904" style="fill-rule:evenodd;fill:#fff;fill-opacity:1;stroke-width:1.3;stroke-linecap:butt;stroke-linejoin:miter;stroke:#ef2d28;stroke-opacity:1;stroke-miterlimit:4" transform="matrix(.00775 0 0 .00702 .746 -.554)"/><path d="M266.009 209.715c0-15.467-4.619-27.067-9.237-27.067s-8.313 11.6-8.313 27.067 3.694 27.067 8.313 27.067c4.618 0 9.237-11.6 9.237-27.067Zm0 0" style="fill-rule:evenodd;fill:#fff;fill-opacity:1;stroke-width:4.4;stroke-linecap:butt;stroke-linejoin:miter;stroke:#ef2d28;stroke-opacity:1;stroke-miterlimit:4" transform="matrix(.00423 0 0 .00101 1.758 2.589)"/><path d="M301.11 247.43c0-15.466-3.696-27.067-9.238-27.067-4.618 0-8.313 11.6-8.313 27.068 0 15.467 3.695 27.067 8.313 27.067 5.542 0 9.237-11.6 9.237-27.067Zm0 0" style="fill-rule:evenodd;fill:#fff;fill-opacity:1;stroke-width:4.4;stroke-linecap:butt;stroke-linejoin:miter;stroke:#ef2d28;stroke-opacity:1;stroke-miterlimit:4" transform="matrix(.00423 0 0 .00101 1.758 2.566)"/><path d="M337.133 263.898c0-15.467-4.618-27.068-9.237-27.068s-9.237 11.6-9.237 27.068c0 15.467 4.619 27.067 9.237 27.067s9.237-11.6 9.237-27.067ZM372.234 263.898c0-15.467-3.695-27.068-9.237-27.068-4.619 0-8.313 11.6-8.313 27.068 0 15.467 3.694 27.067 8.313 27.067 5.542 0 9.237-11.6 9.237-27.067Zm0 0" style="fill-rule:evenodd;fill:#fff;fill-opacity:1;stroke-width:4.4;stroke-linecap:butt;stroke-linejoin:miter;stroke:#ef2d28;stroke-opacity:1;stroke-miterlimit:4" transform="matrix(.00423 0 0 .00101 1.758 2.562)"/><path d="M407.334 247.43c0-15.466-3.695-27.067-8.313-27.067-5.542 0-9.237 11.6-9.237 27.068 0 15.467 3.695 27.067 9.237 27.067 4.618 0 8.313-11.6 8.313-27.067Zm0 0" style="fill-rule:evenodd;fill:#fff;fill-opacity:1;stroke-width:4.4;stroke-linecap:butt;stroke-linejoin:miter;stroke:#ef2d28;stroke-opacity:1;stroke-miterlimit:4" transform="matrix(.00423 0 0 .00101 1.758 2.566)"/><path d="M443.358 209.715c0-15.467-4.618-27.067-9.237-27.067s-9.237 11.6-9.237 27.067 4.619 27.067 9.237 27.067 9.237-11.6 9.237-27.067Zm0 0" style="fill-rule:evenodd;fill:#fff;fill-opacity:1;stroke-width:4.4;stroke-linecap:butt;stroke-linejoin:miter;stroke:#ef2d28;stroke-opacity:1;stroke-miterlimit:4" transform="matrix(.00423 0 0 .00101 1.758 2.589)"/><path d="M113.362 651.74 240.83 577.77m-134.522 70.632 120.415-70.632m-123.942 63.402 109.835-63.402M99.254 634.5l95.728-56.728M92.2 627.27l88.17-49.498m-84.643 38.931 59.955-35.594m-63.482 28.364 45.848-28.364m-45.848 17.797 31.741-17.797m0 74.525 120.415-71.188M134.522 658.97l113.362-67.295m-102.781 71.188 106.308-63.958M155.683 666.2l88.674-53.39M169.79 666.2l78.094-46.16m-67.513 49.497 67.513-38.931M190.95 673.43l53.406-32.257m-38.795 32.257 42.322-25.027m-28.215 28.364 28.215-17.797m-14.107 17.797 18.138-10.567" style="fill-rule:evenodd;fill:#fff;fill-opacity:1;stroke-width:1.3;stroke-linecap:butt;stroke-linejoin:miter;stroke:#ef2d28;stroke-opacity:1;stroke-miterlimit:4" transform="matrix(.00775 0 0 .00702 .746 -.554)"/><path d="M265.578 397.04v17.634c35.594 6.046 71.188 6.046 106.226 0V397.04c-35.038 5.542-70.632 5.542-106.226 0Zm0 0" style="fill-rule:evenodd;fill:#fff;fill-opacity:1;stroke-width:1.3;stroke-linecap:butt;stroke-linejoin:miter;stroke:#ef2d28;stroke-opacity:1;stroke-miterlimit:4" transform="matrix(0 .00702 -.00775 0 5.828 1.611)"/><path d="m49.375 623.376 42.826-35.038m-42.826 10.567 42.826 42.268" style="fill-rule:evenodd;fill:#fff;fill-opacity:1;stroke-width:1.3;stroke-linecap:butt;stroke-linejoin:miter;stroke:#ef2d28;stroke-opacity:1;stroke-miterlimit:4" transform="matrix(.00775 0 0 .00702 .746 -.554)"/><path d="m260.225 388.048 5.269 26.451c36.004 6.298 65.86 6.298 100.986 0l11.416-26.451c-36.004 5.668-82.545 5.668-117.671 0Zm0 0" style="fill-rule:evenodd;fill:#fff;fill-opacity:1;stroke-width:1.3;stroke-linecap:butt;stroke-linejoin:miter;stroke:#ef2d28;stroke-opacity:1;stroke-miterlimit:4" transform="matrix(0 .00445 -.0062 0 4.032 2.37)"/><path d="M258.577 350.595v-17.797c-10.424.556-17.822-10.567-17.822-21.134h-35.308c0 10.567-7.062 21.69-17.486 21.69v17.24Zm0 0" style="fill-rule:evenodd;fill:#fff;fill-opacity:1;stroke-width:1.3;stroke-linecap:butt;stroke-linejoin:miter;stroke:#ef2d28;stroke-opacity:1;stroke-miterlimit:4" transform="matrix(.01162 0 0 .00702 .625 -.181)"/><path d="M296.252 343.63h45.344v21.134h-45.344Zm3.526-21.134h37.788v21.134h-37.788Zm0-21.134h37.788v21.134h-37.788Zm4.031-28.364h30.23v28.364h-30.23Zm-1.512-25.027h33.253v25.027h-33.253Zm0 0" style="fill-rule:evenodd;fill:#fff;fill-opacity:1;stroke-width:1.4;stroke-linecap:butt;stroke-linejoin:miter;stroke:#ef2d28;stroke-opacity:1;stroke-miterlimit:4" transform="matrix(.00775 0 0 .00702 .746 -.554)"/><path d="M280.143 161.369c0-18.91-19.503-33.926-42.908-33.926-23.404 0-42.42 15.016-42.42 33.926 0 18.353 19.016 33.37 42.42 33.37s42.908-15.017 42.908-33.37Zm0 0" style="fill-rule:evenodd;fill:#fff;fill-opacity:1;stroke-width:1.3;stroke-linecap:butt;stroke-linejoin:miter;stroke:#ef2d28;stroke-opacity:1;stroke-miterlimit:4" transform="matrix(.00801 0 0 .00702 1.33 -.106)"/><path d="M258.69 159.144c0 9.455 10.726 25.027 10.726 25.027-7.801 6.118-20.478 10.567-32.18 10.567-11.703 0-26.33-2.225-31.694-10.567 0 0 10.727-15.572 10.727-24.47 0-9.455-10.727-21.69-10.727-21.69 9.264-6.675 20.479-10.568 32.181-10.568 11.215 0 23.892 4.45 31.693 10.567 0 0-10.727 12.236-10.727 21.69Zm0 0" style="fill-rule:evenodd;fill:#fff;fill-opacity:1;stroke-width:1.3;stroke-linecap:butt;stroke-linejoin:miter;stroke:#ef2d28;stroke-opacity:1;stroke-miterlimit:4" transform="matrix(.00801 0 0 .00702 1.33 -.106)"/><path d="M251.376 159.144c0 9.455 10.727 28.92 10.727 28.92-7.802 5.562-12.678 6.674-24.868 6.674-11.702 0-19.016 1.112-24.867-6.674 0 0 10.727-19.465 10.727-28.92 0-8.898-10.727-24.47-10.727-24.47 7.802-6.118 13.165-7.23 24.867-7.23s17.066 1.112 24.868 7.23c0 0-10.727 15.572-10.727 24.47Zm0 0" style="fill-rule:evenodd;fill:#fff;fill-opacity:1;stroke-width:1.3;stroke-linecap:butt;stroke-linejoin:miter;stroke:#ef2d28;stroke-opacity:1;stroke-miterlimit:4" transform="matrix(.00801 0 0 .00702 1.33 -.106)"/><path d="M205.542 166.637c0-6.117-4.876-10.567-10.727-10.567s-10.727 4.45-10.727 10.567c0 5.562 4.876 10.567 10.727 10.567 5.85 0 10.727-5.005 10.727-10.567Zm0 0" style="fill-rule:evenodd;fill:#fff;fill-opacity:1;stroke-width:1.3;stroke-linecap:butt;stroke-linejoin:miter;stroke:#ef2d28;stroke-opacity:1;stroke-miterlimit:4" transform="matrix(.00801 0 0 .00702 1.33 -.131)"/><path d="M205.316 166.637c0-6.117-4.389-10.567-10.24-10.567-5.85 0-10.727 4.45-10.727 10.567 0 5.562 4.876 10.567 10.727 10.567s10.24-5.005 10.24-10.567Zm0 0" style="fill-rule:evenodd;fill:#fff;fill-opacity:1;stroke-width:1.3;stroke-linecap:butt;stroke-linejoin:miter;stroke:#ef2d28;stroke-opacity:1;stroke-miterlimit:4" transform="matrix(.00801 0 0 .00702 2.011 -.131)"/><path d="M205.38 166.637c0-6.117-4.388-10.567-10.24-10.567-6.338 0-10.726 4.45-10.726 10.567 0 5.562 4.388 10.567 10.727 10.567 5.851 0 10.24-5.005 10.24-10.567Zm0 0" style="fill-rule:evenodd;fill:#fff;fill-opacity:1;stroke-width:1.3;stroke-linecap:butt;stroke-linejoin:miter;stroke:#ef2d28;stroke-opacity:1;stroke-miterlimit:4" transform="matrix(.00801 0 0 .00702 1.671 -.131)"/><path d="M205.38 166.443c0-5.561-4.388-10.567-10.24-10.567-6.338 0-10.726 5.006-10.726 10.567 0 6.118 4.388 10.567 10.727 10.567 5.851 0 10.24-4.449 10.24-10.567Zm0 0" style="fill-rule:evenodd;fill:#fff;fill-opacity:1;stroke-width:1.3;stroke-linecap:butt;stroke-linejoin:miter;stroke:#ef2d28;stroke-opacity:1;stroke-miterlimit:4" transform="matrix(.00801 0 0 .00702 1.671 -.38)"/><path d="M205.362 166.328c0-5.562-4.708-10.567-10.357-10.567-6.12 0-10.828 5.005-10.828 10.567 0 6.117 4.708 10.567 10.828 10.567 5.65 0 10.357-4.45 10.357-10.567Zm0 0" style="fill-rule:evenodd;fill:#fff;fill-opacity:1;stroke-width:1.3;stroke-linecap:butt;stroke-linejoin:miter;stroke:#ef2d28;stroke-opacity:1;stroke-miterlimit:4" transform="matrix(.0083 0 0 .00702 1.366 1.039)"/><path d="M205.701 166.328c0-5.562-5.178-10.567-10.828-10.567s-10.357 5.005-10.357 10.567c0 6.117 4.708 10.567 10.357 10.567 5.65 0 10.828-4.45 10.828-10.567Zm0 0" style="fill-rule:evenodd;fill:#fff;fill-opacity:1;stroke-width:1.3;stroke-linecap:butt;stroke-linejoin:miter;stroke:#ef2d28;stroke-opacity:1;stroke-miterlimit:4" transform="matrix(.0083 0 0 .00702 1.836 1.039)"/><path d="M212.503 311.664h49.903l-24.951 32.257Zm0 0" style="fill-rule:evenodd;fill:#fff;fill-opacity:1;stroke-width:1.3;stroke-linecap:butt;stroke-linejoin:miter;stroke:#ef2d28;stroke-opacity:1;stroke-miterlimit:4" transform="matrix(.0083 0 0 .00702 1.248 -.181)"/><path d="M205.563 166.572c0-5.84-4.943-10.845-10.592-10.845-6.002 0-10.592 5.005-10.592 10.845S188.97 177 194.971 177c5.65 0 10.592-4.588 10.592-10.428Zm0 0" style="fill-rule:evenodd;fill:#fff;fill-opacity:1;stroke-width:1.3;stroke-linecap:butt;stroke-linejoin:miter;stroke:#ef2d28;stroke-opacity:1;stroke-miterlimit:4" transform="matrix(.01106 0 0 .00936 1.062 .624)"/><path d="M266.526 524.202h73.055c2.015 0 4.03 1.669 4.03 3.893V542c0 2.225-2.015 3.893-4.03 3.893h-73.055c-2.52 0-4.535-1.668-4.535-3.893v-13.904c0-2.224 2.015-3.893 4.535-3.893Zm0 0" style="fill-rule:evenodd;fill:#fff;fill-opacity:1;stroke-width:1.2;stroke-linecap:butt;stroke-linejoin:miter;stroke:#ef2d28;stroke-opacity:1;stroke-miterlimit:4" transform="matrix(.00775 0 0 .00702 .734 -.756)"/><path d="M368.3 506.962c-9.574 0-17.635 7.786-17.635 18.353v16.128c0 4.45 2.015 9.455 5.038 12.792 3.527 3.337 8.062 5.561 12.596 5.561 5.038 0 9.573-2.224 13.1-5.561 3.023-3.337 5.038-8.343 5.038-12.792v-16.128c0-5.006-2.015-9.455-5.038-12.792-3.527-3.893-8.062-5.561-13.1-5.561Zm0 6.673c-5.543 0-10.581 6.674-10.581 15.017v9.454c0 7.786 5.038 14.46 10.58 14.46 6.046 0 10.58-6.674 10.58-14.46v-9.454c0-8.343-4.534-15.017-10.58-15.017Zm-91.698-3.336c-6.046 0-10.58 6.673-10.58 15.016v16.128c0 8.343 4.534 15.016 10.58 15.016 5.542 0 10.58-6.673 10.58-15.016V524.76c0-7.787-5.038-14.46-10.58-14.46Zm0-7.23c-5.038 0-9.573 2.224-13.1 5.561-3.022 3.337-5.038 8.342-5.038 13.348v22.802c0 5.006 2.016 9.455 5.039 12.792 3.526 3.893 8.06 5.561 13.1 5.561 9.572 0 17.633-7.786 17.633-18.353v-22.802c0-5.006-1.511-10.011-5.038-13.348s-8.061-5.562-12.596-5.562Zm0 0" style="fill-rule:evenodd;fill:#fff;fill-opacity:1;stroke-width:1.2;stroke-linecap:butt;stroke-linejoin:miter;stroke:#ef2d28;stroke-opacity:1;stroke-miterlimit:4" transform="matrix(.00775 0 0 .00702 .734 -.756)"/><path d="M247.884 517.529c-5.542 0-10.58 6.117-10.58 14.46v3.893c0 8.342 5.038 15.016 10.58 15.016 6.046 0 10.58-6.674 10.58-15.016v-3.893c0-8.343-4.534-14.46-10.58-14.46Zm0-7.23c-4.535 0-9.069 2.224-12.596 5.561s-5.038 8.342-5.038 12.792v10.567c0 5.005 1.511 9.454 5.038 13.347 3.527 3.337 8.061 5.006 12.596 5.562 10.077 0 18.138-8.342 18.138-18.91v-10.566c0-4.45-2.016-9.455-5.039-12.792-3.526-3.337-8.06-5.561-13.1-5.561Zm0 0" style="fill-rule:evenodd;fill:#fff;fill-opacity:1;stroke-width:1.2;stroke-linecap:butt;stroke-linejoin:miter;stroke:#ef2d28;stroke-opacity:1;stroke-miterlimit:4" transform="matrix(.00775 0 0 .00702 .734 -.756)"/><path d="M478.368 237.4c-5.878 0-10.636 6.469-10.636 14.929v16.421c0 7.963 4.758 14.93 10.636 14.93s10.636-6.967 10.636-14.93V252.33c0-8.46-4.758-14.93-10.636-14.93Zm0-6.967c-4.758 0-9.237 1.99-12.596 5.474s-5.318 7.962-5.038 12.938v23.389c-.28 4.479 1.4 9.455 4.758 12.938 3.36 3.484 8.118 5.474 12.876 5.474 9.797 0 17.634-8.46 17.634-18.412v-23.389c.28-4.976-1.68-9.455-4.758-12.938-3.36-3.484-8.118-5.474-12.876-5.474Zm0 0" style="fill-rule:evenodd;fill:#fff;fill-opacity:1;stroke-width:.9;stroke-linecap:butt;stroke-linejoin:miter;stroke:#ef2d28;stroke-opacity:1;stroke-miterlimit:4" transform="matrix(.01396 0 0 .00785 -4.348 .945)"/><path d="M478.34 237.254c-5.878 0-10.636 6.967-10.636 14.929v16.422c0 7.962 4.758 14.929 10.636 14.929s10.637-6.47 10.637-14.93v-16.421c0-7.962-4.759-14.93-10.637-14.93Zm0-6.967c-4.758 0-9.237 1.99-12.596 5.474s-5.318 8.46-5.038 12.938v23.389c-.28 4.976 1.4 9.455 4.758 12.938 3.36 3.484 8.118 5.474 12.876 5.474 9.797 0 17.634-7.962 17.634-18.412v-23.389c.28-4.478-1.4-9.455-4.758-12.938-3.36-3.484-8.117-5.474-12.876-5.474Zm0 0" style="fill-rule:evenodd;fill:#fff;fill-opacity:1;stroke-width:.9;stroke-linecap:butt;stroke-linejoin:miter;stroke:#ef2d28;stroke-opacity:1;stroke-miterlimit:4" transform="matrix(.01396 0 0 .00785 -2.562 .97)"/><path d="M377.872 524.202h37.787c1.512 0 2.52 1.669 2.52 3.893V542c0 2.225-1.008 3.893-2.52 3.893h-37.787c-1.008 0-2.52-1.668-2.52-3.893v-13.904c0-2.224 1.512-3.893 2.52-3.893ZM338.07 520.865h22.168c.504 0 1.007 2.225 1.007 5.006v18.353c0 2.78-.503 5.005-1.007 5.005h-22.169c-1.007 0-1.511-2.224-1.511-5.005v-18.353c0-2.78.504-5.006 1.511-5.006ZM221.181 520.865h22.168c.504 0 1.008 2.225 1.008 5.006v18.353c0 2.78-.504 5.005-1.008 5.005h-22.168c-1.008 0-1.512-2.224-1.512-5.005v-18.353c0-2.78.504-5.006 1.512-5.006ZM144.095 517.529h44.84c1.009 0 2.52 2.224 2.52 6.117v22.803c0 3.337-1.511 6.117-2.52 6.117h-44.84c-1.008 0-2.519-2.78-2.519-6.117v-22.803c0-3.893 1.511-6.117 2.52-6.117ZM452.439 520.865h41.314c1.007 0 2.519 2.781 2.519 6.118v23.359c0 3.337-1.512 6.117-2.52 6.117H452.44c-1.512 0-2.52-2.78-2.52-6.117v-23.359c0-3.337 1.008-6.118 2.52-6.118Zm0 0" style="fill-rule:evenodd;fill:#fff;fill-opacity:1;stroke-width:1.2;stroke-linecap:butt;stroke-linejoin:miter;stroke:#ef2d28;stroke-opacity:1;stroke-miterlimit:4" transform="matrix(.00775 0 0 .00702 .734 -.756)"/></svg>