<?xml version="1.0" encoding="UTF-8"?>
<svg xmlns="http://www.w3.org/2000/svg" xmlns:xlink="http://www.w3.org/1999/xlink" width="25px" height="px" viewBox="0 0 25 19" version="1.1">
<g id="surface1">
<rect x="0" y="0" width="25" height="19" style="fill:rgb(93.725491%,17.647059%,16.078432%);fill-opacity:1;stroke:none;"/>
<path style=" stroke:none;fill-rule:evenodd;fill:rgb(0%,56.470591%,14.509805%);fill-opacity:1;" d="M 6.820312 12.558594 L 27.746094 12.558594 L 27.746094 20.78125 L 6.820312 20.78125 Z M 6.820312 12.558594 "/>
<path style=" stroke:none;fill-rule:evenodd;fill:rgb(100%,100%,100%);fill-opacity:1;" d="M 6.820312 -1.402344 L 28.886719 -1.402344 L 28.886719 6.121094 L 6.816406 6.121094 Z M 6.820312 -1.402344 "/>
<path style="fill-rule:evenodd;fill:rgb(100%,100%,100%);fill-opacity:1;stroke-width:1.4;stroke-linecap:butt;stroke-linejoin:miter;stroke:rgb(93.725491%,17.647059%,15.686275%);stroke-opacity:1;stroke-miterlimit:4;" d="M 29.222073 467.608019 L 144.59894 467.608019 C 150.64489 467.608019 155.683181 473.169572 155.683181 479.287282 L 155.683181 541.020528 C 155.683181 547.694392 150.64489 552.699791 144.59894 552.699791 L 29.222073 552.699791 C 22.672295 552.699791 17.634004 547.694392 17.634004 541.020528 L 17.634004 479.287282 C 17.634004 473.169572 22.672295 467.608019 29.222073 467.608019 Z M 29.222073 467.608019 " transform="matrix(0.00775312,0,0,0.00702367,4.347656,-0.530417)"/>
<path style="fill-rule:evenodd;fill:rgb(100%,100%,100%);fill-opacity:1;stroke-width:1.3;stroke-linecap:butt;stroke-linejoin:miter;stroke:rgb(93.725491%,17.647059%,15.686275%);stroke-opacity:1;stroke-miterlimit:4;" d="M 32.245048 471.501106 L 141.575966 471.501106 C 147.621915 471.501106 152.156377 475.950349 152.156377 482.068058 L 152.156377 538.239751 C 152.156377 544.35746 147.621915 549.362858 141.575966 549.362858 L 32.245048 549.362858 C 26.199099 549.362858 21.160807 544.35746 21.160807 538.239751 L 21.160807 482.068058 C 21.160807 475.950349 26.199099 471.501106 32.245048 471.501106 Z M 32.245048 471.501106 " transform="matrix(0.00775312,0,0,0.00702367,4.347656,-0.530417)"/>
<path style="fill-rule:evenodd;fill:rgb(100%,100%,100%);fill-opacity:1;stroke-width:1.3;stroke-linecap:butt;stroke-linejoin:miter;stroke:rgb(93.725491%,17.647059%,15.686275%);stroke-opacity:1;stroke-miterlimit:4;" d="M 64.785534 396.334575 L 74.402287 396.334575 L 75.142038 402.036784 L 83.279291 407.738992 L 89.197293 401.086416 L 96.594796 405.838256 L 89.937043 411.540464 L 91.416544 420.093776 L 100.293547 419.143408 L 100.293547 429.597456 L 93.635795 429.597456 L 89.937043 436.250032 L 97.334546 443.852976 L 91.416544 449.555184 L 84.758791 442.902608 L 75.142038 445.753712 L 75.881788 455.257392 L 64.785534 456.20776 L 63.306033 447.654448 L 55.16878 441.95224 L 49.990528 448.604816 L 42.593025 443.852976 L 47.031527 436.250032 L 41.853275 431.498192 L 33.716021 431.498192 L 33.716021 418.19304 L 41.113524 419.143408 L 46.291776 410.590096 L 40.373774 404.887888 L 48.511027 398.235312 L 53.689279 403.93752 L 63.306033 402.036784 Z M 64.785534 396.334575 " transform="matrix(0.0052805,0,0,0.00411025,4.642275,1.300653)"/>
<path style="fill-rule:evenodd;fill:rgb(100%,100%,100%);fill-opacity:1;stroke-width:1.3;stroke-linecap:butt;stroke-linejoin:miter;stroke:rgb(93.725491%,17.647059%,15.686275%);stroke-opacity:1;stroke-miterlimit:4;" d="M 80.367193 426.80518 C 80.367193 421.261366 75.008857 416.509526 68.885043 416.509526 C 62.76123 416.509526 58.168369 421.261366 58.168369 426.80518 C 58.168369 432.348994 62.76123 436.30886 68.885043 436.30886 C 75.008857 436.30886 80.367193 432.348994 80.367193 426.80518 Z M 80.367193 426.80518 " transform="matrix(0.00510303,0,0,0.0049323,4.648478,0.941744)"/>
<path style="fill-rule:evenodd;fill:rgb(100%,100%,100%);fill-opacity:1;stroke-width:1.3;stroke-linecap:butt;stroke-linejoin:miter;stroke:rgb(93.725491%,17.647059%,15.686275%);stroke-opacity:1;stroke-miterlimit:4;" d="M 38.794826 474.838039 L 28.214415 485.404991 M 45.848434 474.838039 L 35.268023 485.404991 M 52.902042 474.838039 L 42.32163 485.404991 M 59.955649 474.838039 L 49.375238 485.404991 M 67.513086 474.838039 L 56.932674 485.404991 M 74.566693 474.838039 L 63.986282 485.404991 M 81.620301 474.838039 L 71.03989 485.404991 M 88.673909 474.838039 L 78.093497 485.404991 M 95.727516 474.838039 L 85.147105 485.404991 M 102.781124 474.838039 L 92.200712 485.404991 M 109.834731 474.838039 L 99.25432 485.404991 M 116.888339 474.838039 L 106.307928 485.404991 M 88.673909 474.838039 L 78.093497 485.404991 M 123.941947 474.838039 L 113.361535 485.404991 M 130.995554 474.838039 L 120.415143 485.404991 M 138.049162 474.838039 L 127.46875 485.404991 M 145.102769 474.838039 L 134.522358 485.404991 M 134.522358 474.838039 L 145.102769 485.404991 M 127.46875 474.838039 L 138.049162 485.404991 M 120.415143 474.838039 L 130.995554 485.404991 M 113.361535 474.838039 L 123.941947 485.404991 M 106.307928 474.838039 L 116.888339 485.404991 M 99.25432 474.838039 L 109.834731 485.404991 M 92.200712 474.838039 L 102.781124 485.404991 M 85.147105 474.838039 L 95.727516 485.404991 M 77.589668 474.838039 L 88.673909 485.404991 M 71.03989 474.838039 L 81.620301 485.404991 M 63.482453 474.838039 L 74.062864 485.404991 M 56.428845 474.838039 L 67.009257 485.404991 M 85.147105 474.838039 L 95.727516 485.404991 M 49.375238 474.838039 L 59.955649 485.404991 M 42.32163 474.838039 L 52.902042 485.404991 M 35.268023 474.838039 L 45.848434 485.404991 M 28.214415 474.838039 L 38.794826 485.404991 M 38.794826 534.902819 L 28.214415 545.469771 M 45.848434 534.902819 L 35.268023 545.469771 M 53.405871 534.902819 L 42.32163 545.469771 M 59.955649 534.902819 L 49.375238 545.469771 M 67.513086 534.902819 L 56.932674 545.469771 M 74.566693 534.902819 L 63.986282 545.469771 M 81.620301 534.902819 L 71.03989 545.469771 M 88.673909 534.902819 L 78.093497 545.469771 M 95.727516 534.902819 L 85.147105 545.469771 M 102.781124 534.902819 L 92.200712 545.469771 M 109.834731 534.902819 L 99.25432 545.469771 M 116.888339 534.902819 L 106.307928 545.469771 M 88.673909 534.902819 L 78.093497 545.469771 M 123.941947 534.902819 L 113.361535 545.469771 M 130.995554 534.902819 L 120.415143 545.469771 M 138.049162 534.902819 L 127.46875 545.469771 M 145.102769 534.902819 L 134.522358 545.469771 M 134.522358 534.902819 L 145.102769 545.469771 M 127.46875 534.902819 L 138.049162 545.469771 M 120.415143 534.902819 L 130.995554 545.469771 M 113.361535 534.902819 L 123.941947 545.469771 M 106.307928 534.902819 L 116.888339 545.469771 M 99.25432 534.902819 L 109.834731 545.469771 M 92.200712 534.902819 L 102.781124 545.469771 M 85.147105 534.902819 L 95.727516 545.469771 M 78.093497 534.902819 L 88.673909 545.469771 M 71.03989 534.902819 L 81.620301 545.469771 M 63.986282 534.902819 L 74.566693 545.469771 M 56.932674 534.902819 L 67.513086 545.469771 M 85.147105 534.902819 L 95.727516 545.469771 M 49.879067 534.902819 L 59.955649 545.469771 M 42.32163 534.902819 L 53.405871 545.469771 M 35.268023 534.902819 L 45.848434 545.469771 M 28.214415 534.902819 L 38.794826 545.469771 " transform="matrix(0.00775312,0,0,0.00702367,4.347656,-0.530417)"/>
<path style="fill-rule:evenodd;fill:rgb(100%,100%,100%);fill-opacity:1;stroke-width:1.4;stroke-linecap:butt;stroke-linejoin:miter;stroke:rgb(93.725491%,17.647059%,15.686275%);stroke-opacity:1;stroke-miterlimit:4;" d="M 29.222087 467.652513 L 144.598954 467.652513 C 150.644903 467.652513 155.683194 473.214067 155.683194 479.331776 L 155.683194 541.065022 C 155.683194 547.182731 150.644903 552.744285 144.598954 552.744285 L 29.222087 552.744285 C 22.672308 552.744285 17.634017 547.182731 17.634017 541.065022 L 17.634017 479.331776 C 17.634017 473.214067 22.672308 467.652513 29.222087 467.652513 Z M 29.222087 467.652513 " transform="matrix(0.00775312,0,0,0.00702367,0.746094,-0.554167)"/>
<path style="fill-rule:evenodd;fill:rgb(100%,100%,100%);fill-opacity:1;stroke-width:1.3;stroke-linecap:butt;stroke-linejoin:miter;stroke:rgb(93.725491%,17.647059%,15.686275%);stroke-opacity:1;stroke-miterlimit:4;" d="M 32.245061 471.545601 L 141.575979 471.545601 C 147.621928 471.545601 152.15639 475.994844 152.15639 482.112553 L 152.15639 538.284245 C 152.15639 544.401955 147.621928 549.407353 141.575979 549.407353 L 32.245061 549.407353 C 26.199112 549.407353 21.160821 544.401955 21.160821 538.284245 L 21.160821 482.112553 C 21.160821 475.994844 26.199112 471.545601 32.245061 471.545601 Z M 32.245061 471.545601 " transform="matrix(0.00775312,0,0,0.00702367,0.746094,-0.554167)"/>
<path style="fill-rule:evenodd;fill:rgb(100%,100%,100%);fill-opacity:1;stroke-width:1.3;stroke-linecap:butt;stroke-linejoin:miter;stroke:rgb(93.725491%,17.647059%,15.686275%);stroke-opacity:1;stroke-miterlimit:4;" d="M 64.785553 396.410609 L 74.402307 396.410609 L 75.142057 402.112817 L 83.27931 407.815025 L 89.197313 401.162449 L 96.594816 405.914289 L 89.937063 411.616497 L 91.416564 420.169809 L 100.293567 419.219441 L 100.293567 429.673489 L 93.635814 429.673489 L 89.937063 436.326065 L 97.334566 443.929009 L 91.416564 449.631217 L 84.758811 442.978641 L 75.142057 445.829745 L 75.881808 455.333425 L 64.785553 456.283793 L 63.306053 446.780113 L 55.1688 442.028273 L 49.990548 448.680849 L 42.593045 443.929009 L 47.031546 436.326065 L 41.853294 431.574225 L 33.716041 431.574225 L 33.716041 418.269073 L 41.113544 419.219441 L 46.291796 410.666129 L 40.373794 404.963921 L 48.511047 397.360977 L 53.689299 403.063185 L 63.306053 402.112817 Z M 64.785553 396.410609 " transform="matrix(0.0052805,0,0,0.00411025,1.040713,1.276903)"/>
<path style="fill-rule:evenodd;fill:rgb(100%,100%,100%);fill-opacity:1;stroke-width:1.3;stroke-linecap:butt;stroke-linejoin:miter;stroke:rgb(93.725491%,17.647059%,15.686275%);stroke-opacity:1;stroke-miterlimit:4;" d="M 80.367214 426.868541 C 80.367214 421.324727 75.008877 416.572887 68.885064 416.572887 C 62.76125 416.572887 58.16839 421.324727 58.16839 426.868541 C 58.16839 432.412355 62.76125 436.372221 68.885064 436.372221 C 75.008877 436.372221 80.367214 432.412355 80.367214 426.868541 Z M 80.367214 426.868541 " transform="matrix(0.00510303,0,0,0.0049323,1.046915,0.917994)"/>
<path style="fill-rule:evenodd;fill:rgb(100%,100%,100%);fill-opacity:1;stroke-width:1.3;stroke-linecap:butt;stroke-linejoin:miter;stroke:rgb(93.725491%,17.647059%,15.686275%);stroke-opacity:1;stroke-miterlimit:4;" d="M 38.79484 474.882533 L 28.214428 485.449485 M 45.848447 474.882533 L 35.268036 485.449485 M 52.902055 474.882533 L 42.321644 485.449485 M 59.955663 474.882533 L 49.375251 485.449485 M 67.513099 474.882533 L 56.932688 485.449485 M 74.566707 474.882533 L 63.986295 485.449485 M 81.620314 474.882533 L 71.039903 485.449485 M 88.673922 474.882533 L 78.093511 485.449485 M 95.72753 474.882533 L 85.147118 485.449485 M 102.781137 474.882533 L 92.200726 485.449485 M 109.834745 474.882533 L 99.254333 485.449485 M 116.888352 474.882533 L 106.307941 485.449485 M 88.673922 474.882533 L 78.093511 485.449485 M 123.94196 474.882533 L 113.361549 485.449485 M 130.995568 474.882533 L 120.415156 485.449485 M 138.049175 474.882533 L 127.468764 485.449485 M 145.102783 474.882533 L 134.522371 485.449485 M 134.522371 474.882533 L 145.102783 485.449485 M 127.468764 474.882533 L 138.049175 485.449485 M 120.415156 474.882533 L 130.995568 485.449485 M 113.361549 474.882533 L 123.94196 485.449485 M 106.307941 474.882533 L 116.888352 485.449485 M 99.254333 474.882533 L 109.834745 485.449485 M 92.200726 474.882533 L 102.781137 485.449485 M 85.147118 474.882533 L 95.72753 485.449485 M 77.589682 474.882533 L 88.673922 485.449485 M 71.039903 474.882533 L 81.620314 485.449485 M 63.482466 474.882533 L 74.062878 485.449485 M 56.428859 474.882533 L 67.00927 485.449485 M 85.147118 474.882533 L 95.72753 485.449485 M 49.375251 474.882533 L 59.955663 485.449485 M 42.321644 474.882533 L 52.902055 485.449485 M 35.268036 474.882533 L 45.848447 485.449485 M 28.214428 474.882533 L 38.79484 485.449485 M 38.79484 534.947313 L 28.214428 545.514265 M 45.848447 534.947313 L 35.268036 545.514265 M 53.405884 534.947313 L 42.321644 545.514265 M 59.955663 534.947313 L 49.375251 545.514265 M 67.513099 534.947313 L 56.932688 545.514265 M 74.566707 534.947313 L 63.986295 545.514265 M 81.620314 534.947313 L 71.039903 545.514265 M 88.673922 534.947313 L 78.093511 545.514265 M 95.72753 534.947313 L 85.147118 545.514265 M 102.781137 534.947313 L 92.200726 545.514265 M 109.834745 534.947313 L 99.254333 545.514265 M 116.888352 534.947313 L 106.307941 545.514265 M 88.673922 534.947313 L 78.093511 545.514265 M 123.94196 534.947313 L 113.361549 545.514265 M 130.995568 534.947313 L 120.415156 545.514265 M 138.049175 534.947313 L 127.468764 545.514265 M 145.102783 534.947313 L 134.522371 545.514265 M 134.522371 534.947313 L 145.102783 545.514265 M 127.468764 534.947313 L 138.049175 545.514265 M 120.415156 534.947313 L 130.995568 545.514265 M 113.361549 534.947313 L 123.94196 545.514265 M 106.307941 534.947313 L 116.888352 545.514265 M 99.254333 534.947313 L 109.834745 545.514265 M 92.200726 534.947313 L 102.781137 545.514265 M 85.147118 534.947313 L 95.72753 545.514265 M 78.093511 534.947313 L 88.673922 545.514265 M 71.039903 534.947313 L 81.620314 545.514265 M 63.986295 534.947313 L 74.566707 545.514265 M 56.932688 534.947313 L 67.513099 545.514265 M 85.147118 534.947313 L 95.72753 545.514265 M 49.87908 534.947313 L 59.955663 545.514265 M 42.321644 534.947313 L 53.405884 545.514265 M 35.268036 534.947313 L 45.848447 545.514265 M 28.214428 534.947313 L 38.79484 545.514265 " transform="matrix(0.00775312,0,0,0.00702367,0.746094,-0.554167)"/>
<path style="fill-rule:evenodd;fill:rgb(100%,100%,100%);fill-opacity:1;stroke-width:1.3;stroke-linecap:butt;stroke-linejoin:miter;stroke:rgb(93.725491%,17.647059%,15.686275%);stroke-opacity:1;stroke-miterlimit:4;" d="M 538.544427 531.4682 C 540.443199 698.100852 563.37685 733.471632 542.260122 733.402536 C 520.700396 733.543589 510.240331 641.577356 510.288978 527.897264 C 510.117938 414.567398 524.329462 322.459973 545.669501 322.669145 C 567.005916 322.388016 536.569532 354.539203 538.544427 531.4682 Z M 538.544427 531.4682 " transform="matrix(-0.0125531,-0.00502075,-0.00787422,0.00800415,13.511719,2.430417)"/>
<path style="fill-rule:evenodd;fill:rgb(100%,100%,100%);fill-opacity:1;stroke-width:1.2;stroke-linecap:butt;stroke-linejoin:miter;stroke:rgb(93.725491%,17.647059%,15.686275%);stroke-opacity:1;stroke-miterlimit:4;" d="M 545.646945 779.611182 L 485.187452 797.408154 C 542.120142 857.472934 606.106439 881.94377 623.740458 871.376818 C 641.374477 860.809866 591.495395 836.33903 545.646945 779.611182 Z M 545.646945 779.611182 " transform="matrix(-0.00775312,0,0,0.00702367,5.675781,-0.530417)"/>
<path style="fill-rule:evenodd;fill:rgb(100%,100%,100%);fill-opacity:1;stroke-width:1.3;stroke-linecap:butt;stroke-linejoin:miter;stroke:rgb(93.725491%,17.647059%,15.686275%);stroke-opacity:1;stroke-miterlimit:4;" d="M 547.222515 786.651189 L 496.534609 801.689224 C 552.911974 861.841365 609.28934 879.192944 623.771599 871.673926 C 638.253858 864.154908 593.25541 843.333014 547.222515 786.651189 Z M 547.222515 786.651189 " transform="matrix(-0.00755234,0,0,0.00675371,5.578125,-0.320625)"/>
<path style="fill:none;stroke-width:1.8;stroke-linecap:butt;stroke-linejoin:miter;stroke:rgb(93.725491%,17.647059%,15.686275%);stroke-opacity:1;stroke-miterlimit:4;" d="M 353.412506 634.587005 C 353.412506 635.381948 354.127916 640.946548 354.127916 643.331377 C 354.127916 646.511148 354.843326 648.895977 354.843326 652.075748 C 355.558736 653.665634 355.558736 656.050463 358.420375 656.845406 C 359.135785 658.435291 361.282015 660.025177 363.428245 660.82012 C 364.859065 662.410006 367.005294 663.999892 369.151524 664.794834 C 372.013164 665.589777 374.159394 666.38472 377.021033 665.589777 C 379.167263 663.999892 380.598083 662.410006 382.744313 660.82012 C 382.744313 659.230234 383.459723 656.050463 383.459723 654.460577 C 382.744313 656.845406 382.744313 659.230234 382.744313 662.410006 C 382.744313 665.589777 383.459723 667.179663 384.890543 669.564492 " transform="matrix(-0.00546016,0,0,0.00491388,4.804688,0.8075)"/>
<path style="fill:none;stroke-width:1.8;stroke-linecap:butt;stroke-linejoin:miter;stroke:rgb(93.725491%,17.647059%,15.686275%);stroke-opacity:1;stroke-miterlimit:4;" d="M 389.183013 681.56282 L 389.898423 680.767877 C 388.467603 682.357763 389.183013 681.56282 392.760063 679.972935 C 394.906293 678.383049 397.767932 677.588106 400.629572 677.588106 L 409.214491 677.588106 C 412.791541 677.588106 414.937771 677.588106 417.79941 678.383049 C 419.23023 680.767877 422.09187 681.56282 423.52269 683.152706 C 425.66892 683.947649 427.09974 686.332478 427.815149 687.922363 C 429.245969 689.512249 429.961379 692.692021 432.107609 693.486964 C 432.823019 696.666735 434.253839 696.666735 434.969249 698.256621 C 432.107609 699.051564 429.961379 699.051564 427.815149 701.436392 C 425.66892 702.231335 429.961379 699.846507 431.392199 698.256621 C 433.538429 698.256621 433.538429 697.461678 437.115479 697.461678 C 439.977118 696.666735 441.407938 698.256621 444.269578 698.256621 C 446.415808 699.846507 446.415808 699.846507 448.562037 699.846507 " transform="matrix(-0.00546016,0,0,0.00491388,4.878906,0.779792)"/>
<path style="fill:none;stroke-width:1.8;stroke-linecap:butt;stroke-linejoin:miter;stroke:rgb(93.725491%,17.647059%,15.686275%);stroke-opacity:1;stroke-miterlimit:4;" d="M 437.830878 724.648724 C 439.261697 724.648724 444.984977 726.23861 447.846617 724.648724 C 449.992846 723.853782 451.423666 723.058839 452.854486 720.67401 C 453.569896 719.084124 452.854486 723.853782 452.854486 725.443667 C 453.569896 729.418382 454.285306 729.418382 456.431536 731.80321 C 457.862356 732.598153 460.008585 734.188039 462.154815 735.777925 C 463.585635 736.572868 465.731865 738.162753 467.162685 738.957696 C 469.308915 739.752639 471.455144 740.547582 472.885964 741.342525 C 475.032194 742.932411 475.032194 745.317239 476.463014 747.702068 C 475.747604 750.086897 475.747604 752.471725 473.601374 753.266668 C 472.885964 755.651497 471.455144 758.036325 470.024324 758.831268 C 468.593505 762.01104 466.447275 763.600925 470.739734 764.395868 C 472.885964 765.190811 474.316784 764.395868 476.463014 764.395868 " transform="matrix(-0.00546016,0,0,0.00491388,4.960938,0.720417)"/>
<path style="fill:none;stroke-width:1.8;stroke-linecap:butt;stroke-linejoin:miter;stroke:rgb(93.725491%,17.647059%,15.686275%);stroke-opacity:1;stroke-miterlimit:4;" d="M 480.755484 771.592764 C 482.186304 771.592764 487.909584 769.207935 490.055813 768.412992 L 498.640733 768.412992 C 502.217782 769.207935 502.933192 770.002878 505.794832 770.797821 C 507.225652 773.182649 508.656472 773.977592 511.518111 775.567478 C 512.948931 777.157364 515.095161 780.337135 516.525981 782.721964 C 517.241391 785.106792 517.241391 787.491621 517.241391 790.671393 C 517.241391 793.851164 516.525981 794.646107 516.525981 797.825879 C 515.810571 801.00565 514.379751 803.390479 512.233521 805.775307 C 512.233521 805.775307 512.233521 806.57025 511.518111 806.57025 " transform="matrix(-0.00546016,0,0,0.00491388,4.976563,0.704583)"/>
<path style="fill:none;stroke-width:2.3;stroke-linecap:butt;stroke-linejoin:miter;stroke:rgb(93.725491%,17.647059%,15.686275%);stroke-opacity:1;stroke-miterlimit:4;" d="M 538.089493 817.578074 C 538.089493 817.578074 539.097151 819.592243 540.10481 821.606412 C 543.127784 824.627666 544.135443 824.627666 548.166076 824.627666 C 552.196708 824.627666 551.18905 823.620581 554.212025 822.613496 C 555.219683 820.599327 557.235 818.585158 559.250316 816.570989 C 560.257974 814.55682 560.257974 811.535567 562.273291 810.528482 C 563.280949 808.514313 564.288607 807.507229 565.296265 805.49306 C 566.303924 805.49306 567.311582 804.485975 568.31924 804.485975 C 565.296265 804.485975 565.296265 806.500144 562.273291 807.507229 L 559.250316 813.549736 C 559.250316 816.570989 558.242658 818.585158 558.242658 821.606412 C 558.242658 825.63475 558.242658 827.648919 559.250316 830.670173 C 561.265632 831.677257 562.273291 833.691426 564.288607 834.698511 C 565.296265 836.71268 567.311582 837.719764 568.31924 839.733933 L 573.357531 843.762271 C 575.372848 844.769356 577.388164 845.77644 580.411139 845.77644 C 584.441772 845.77644 585.44943 844.769356 588.472405 843.762271 C 590.487721 841.748102 592.503038 840.741018 594.518354 838.726849 C 596.53367 837.719764 597.541329 835.705595 598.548987 834.698511 C 602.57962 833.691426 604.594936 833.691426 606.610253 835.705595 C 607.617911 836.71268 609.633227 837.719764 610.640886 839.733933 C 611.648544 840.741018 613.66386 841.748102 614.671519 842.755187 " transform="matrix(-0.00387656,0,0,0.00387877,4.277344,1.535833)"/>
<path style="fill:none;stroke-width:1.9;stroke-linecap:butt;stroke-linejoin:miter;stroke:rgb(93.725491%,17.647059%,15.686275%);stroke-opacity:1;stroke-miterlimit:4;" d="M 504.133592 836.363953 C 503.323088 836.363953 500.081071 838.78486 498.460063 839.591828 C 497.649559 842.012735 496.839055 843.626672 496.028551 846.047579 C 496.028551 848.468485 495.218046 851.69636 495.218046 854.924235 C 496.028551 858.15211 497.649559 860.573016 498.460063 862.993923 C 500.891575 864.60786 501.70208 865.414829 504.133592 867.028766 C 506.565104 867.028766 509.807121 867.028766 512.238633 867.028766 C 514.670146 867.835735 517.912162 868.642704 520.343675 867.028766 C 522.775187 867.028766 525.2067 866.221798 526.827708 864.60786 C 529.259221 863.800891 530.880229 862.186954 533.311741 861.379985 C 534.122245 859.766048 536.553758 857.345141 538.174766 855.731204 C 539.795774 853.310297 540.606279 852.503329 542.227287 850.082422 C 540.606279 852.503329 539.795774 854.924235 538.98527 857.345141 C 537.364262 859.766048 536.553758 861.379985 536.553758 863.800891 C 534.93275 867.028766 535.743254 870.256642 535.743254 872.677548 C 535.743254 875.098454 535.743254 879.133298 536.553758 880.747235 L 536.553758 882.361173 " transform="matrix(-0.00481953,0,0,0.00484065,4.351563,0.763958)"/>
<path style="fill:none;stroke-width:1.2;stroke-linecap:butt;stroke-linejoin:miter;stroke:rgb(93.725491%,17.647059%,15.686275%);stroke-opacity:1;stroke-miterlimit:4;" d="M 541.112483 799.07662 L 541.112483 799.632775 C 541.616312 797.964309 541.112483 799.07662 540.608654 802.413552 C 539.600996 803.525863 536.578021 804.082018 534.562705 803.525863 C 532.547388 801.857397 532.547388 800.745086 529.020585 799.632775 C 524.989952 800.188931 523.982293 801.301242 521.966977 802.413552 C 519.447831 802.969708 517.936344 804.638174 516.928686 806.862795 C 515.921028 808.531261 515.921028 810.199728 517.936344 811.312038 C 519.951661 812.424349 522.470806 813.53666 524.989952 813.53666 C 528.012926 813.53666 530.028243 813.53666 531.53973 814.64897 C 533.051217 816.873592 533.051217 817.985903 533.051217 821.87899 C 533.555047 822.991301 534.058876 826.328233 534.562705 827.440544 C 536.074192 828.552855 538.089509 828.552855 540.104825 828.552855 C 540.608654 826.328233 541.616312 822.991301 542.120142 821.322835 C 542.623971 819.098213 542.623971 815.761281 543.631629 814.092815 C 545.143116 812.424349 546.654604 810.755883 548.166091 809.643572 C 549.173749 808.531261 550.181407 807.975106 551.692895 807.418951 C 549.173749 808.531261 549.173749 810.199728 548.66992 812.980504 C 550.685236 814.092815 551.692895 814.64897 555.219698 814.64897 C 558.746502 814.64897 559.250331 813.53666 560.761819 811.868194 C 560.761819 814.64897 561.769477 815.761281 562.777135 818.542058 C 563.784793 820.76668 564.288623 822.435146 565.80011 824.659767 C 565.296281 827.996699 563.784793 827.996699 563.784793 831.889787 C 562.777135 834.114408 562.777135 836.33903 561.265648 838.007496 C 560.25799 839.119807 559.754161 839.119807 558.242673 839.119807 C 561.769477 839.119807 563.784793 838.563651 566.303939 837.451341 L 571.34223 833.558253 C 573.357547 831.889787 575.876692 830.777476 578.899667 829.665166 C 581.922641 829.665166 583.937958 829.665166 584.945616 831.333632 C 586.960933 832.445942 587.968591 834.670564 588.976249 837.451341 C 589.480078 840.788273 589.480078 843.012894 587.968591 844.681361 C 586.960933 847.462137 586.960933 848.018293 587.968591 851.355225 C 589.480078 853.023691 591.495395 853.579846 595.022198 854.136002 C 597.541344 854.136002 599.55666 853.579846 601.068148 853.023691 " transform="matrix(-0.00775312,0,0,0.00702367,5.675781,-0.530417)"/>
<path style="fill-rule:evenodd;fill:rgb(100%,100%,100%);fill-opacity:1;stroke-width:1.3;stroke-linecap:butt;stroke-linejoin:miter;stroke:rgb(93.725491%,17.647059%,15.686275%);stroke-opacity:1;stroke-miterlimit:4;" d="M 531.403822 359.418043 C 531.427266 194.535293 539.658029 60.041313 549.126132 60.35225 C 559.033521 60.401797 566.901946 194.43154 566.878502 359.31429 Z M 531.403822 359.418043 " transform="matrix(-0.0110218,-0.00515699,-0.00357892,0.0062774,11.233221,3.269387)"/>
<path style="fill-rule:evenodd;fill:rgb(100%,100%,100%);fill-opacity:1;stroke-width:1.3;stroke-linecap:butt;stroke-linejoin:miter;stroke:rgb(93.725491%,17.647059%,15.686275%);stroke-opacity:1;stroke-miterlimit:4;" d="M 531.283471 359.660944 C 531.266915 194.520776 539.561377 60.198935 549.248967 60.348365 C 559.13594 59.988592 566.820778 194.230916 566.837335 359.371084 " transform="matrix(-0.00881763,-0.00412563,-0.00345262,0.00605588,9.977215,2.783349)"/>
<path style="fill-rule:evenodd;fill:rgb(100%,100%,100%);fill-opacity:1;stroke-width:1.3;stroke-linecap:butt;stroke-linejoin:miter;stroke:rgb(93.725491%,17.647059%,15.686275%);stroke-opacity:1;stroke-miterlimit:4;" d="M 563.276747 301.046055 C 563.527426 320.031903 563.41984 341.225509 563.351497 361.199633 L 534.907904 361.480396 C 534.976246 341.506272 534.804055 320.08146 534.833154 301.326818 Z M 563.276747 301.046055 " transform="matrix(-0.0110218,-0.00515706,-0.00355789,0.00624045,11.232524,3.272284)"/>
<path style="fill-rule:evenodd;fill:rgb(100%,100%,100%);fill-opacity:1;stroke-width:1.3;stroke-linecap:butt;stroke-linejoin:miter;stroke:rgb(93.725491%,17.647059%,15.686275%);stroke-opacity:1;stroke-miterlimit:4;" d="M 560.002978 304.600199 C 559.814368 323.848979 559.942244 337.725693 559.873901 357.699817 L 538.620961 357.66332 C 538.689304 337.689196 538.281651 323.581276 538.750038 304.563702 Z M 560.002978 304.600199 " transform="matrix(-0.0110218,-0.00515706,-0.00355789,0.00624045,11.232524,3.272284)"/>
<path style="fill-rule:evenodd;fill:rgb(100%,100%,100%);fill-opacity:1;stroke-width:1.3;stroke-linecap:butt;stroke-linejoin:miter;stroke:rgb(93.725491%,17.647059%,15.686275%);stroke-opacity:1;stroke-miterlimit:4;" d="M 542.109903 311.721964 L 556.3317 311.581583 L 556.354525 351.035693 L 542.292239 350.681936 Z M 542.109903 311.721964 L 556.354525 351.035693 M 542.292239 350.681936 L 556.3317 311.581583 M 542.035021 113.231931 L 556.256817 113.091549 " transform="matrix(-0.0110218,-0.00515706,-0.00355789,0.00624045,11.232524,3.272284)"/>
<path style="fill-rule:evenodd;fill:rgb(93.725491%,0%,0%);fill-opacity:1;stroke-width:1.3;stroke-linecap:butt;stroke-linejoin:miter;stroke:rgb(93.725491%,17.647059%,15.686275%);stroke-opacity:1;stroke-miterlimit:4;" d="M 549.150032 92.250041 C 549.291762 90.095583 547.664316 88.449622 545.820472 88.627293 C 543.6071 88.558886 542.06192 90.059863 542.215052 92.129571 C 542.293518 93.868453 543.626102 95.599164 545.839474 95.66757 C 547.683318 95.489899 549.228498 93.988923 549.150032 92.250041 Z M 549.150032 92.250041 " transform="matrix(-0.0124407,0.00318699,0.00280779,0.0110883,11.373553,-1.730059)"/>
<path style="fill-rule:evenodd;fill:rgb(100%,100%,100%);fill-opacity:1;stroke-width:1.3;stroke-linecap:butt;stroke-linejoin:miter;stroke:rgb(93.725491%,17.647059%,15.686275%);stroke-opacity:1;stroke-miterlimit:4;" d="M 538.52686 531.496234 C 540.425633 698.128887 563.359284 733.499667 542.242556 733.430571 C 520.68283 733.571624 510.222764 641.60539 510.271411 527.925299 C 510.100372 414.595433 524.311895 322.488007 545.651935 322.69718 C 566.98835 322.416051 536.771652 354.217012 538.52686 531.496234 Z M 538.52686 531.496234 " transform="matrix(0.0125531,-0.00502075,0.00787422,0.00800415,-7.089844,2.406667)"/>
<path style="fill-rule:evenodd;fill:rgb(100%,100%,100%);fill-opacity:1;stroke-width:1.2;stroke-linecap:butt;stroke-linejoin:miter;stroke:rgb(93.725491%,17.647059%,15.686275%);stroke-opacity:1;stroke-miterlimit:4;" d="M 545.646928 779.655677 L 485.187434 797.452649 C 542.120124 857.517429 606.106422 881.988265 623.740441 871.421313 C 641.37446 860.854361 591.495377 836.383525 545.646928 779.655677 Z M 545.646928 779.655677 " transform="matrix(0.00775312,0,0,0.00702367,0.746094,-0.554167)"/>
<path style="fill-rule:evenodd;fill:rgb(100%,100%,100%);fill-opacity:1;stroke-width:1.3;stroke-linecap:butt;stroke-linejoin:miter;stroke:rgb(93.725491%,17.647059%,15.686275%);stroke-opacity:1;stroke-miterlimit:4;" d="M 547.222498 786.70517 L 496.534591 801.743206 C 552.911957 861.895346 609.289322 879.246925 623.771581 871.727908 C 638.25384 864.20889 593.255392 843.386995 547.222498 786.70517 Z M 547.222498 786.70517 " transform="matrix(0.00755234,0,0,0.00675371,0.84375,-0.348333)"/>
<path style="fill:none;stroke-width:1.8;stroke-linecap:butt;stroke-linejoin:miter;stroke:rgb(93.725491%,17.647059%,15.686275%);stroke-opacity:1;stroke-miterlimit:4;" d="M 353.412495 633.866248 C 353.412495 635.456133 354.127905 641.020733 354.127905 643.405562 C 354.127905 646.585334 354.843315 648.970162 354.843315 651.354991 C 355.558725 653.73982 355.558725 656.124648 358.420364 656.919591 C 359.135774 658.509477 361.282004 660.099363 363.428234 660.894305 C 364.859054 662.484191 367.005284 664.074077 369.151513 664.86902 C 372.013153 665.663963 374.159383 666.458906 377.021023 665.663963 C 379.167252 664.074077 380.598072 662.484191 382.744302 660.894305 C 382.744302 659.30442 383.459712 656.124648 383.459712 654.534762 C 382.744302 656.919591 382.744302 659.30442 382.744302 662.484191 C 382.744302 665.663963 383.459712 666.458906 384.890532 668.843734 " transform="matrix(0.00546016,0,0,0.00491388,1.617188,0.779792)"/>
<path style="fill:none;stroke-width:1.8;stroke-linecap:butt;stroke-linejoin:miter;stroke:rgb(93.725491%,17.647059%,15.686275%);stroke-opacity:1;stroke-miterlimit:4;" d="M 389.183002 681.637021 L 389.898412 680.842078 C 388.467592 682.431964 389.183002 681.637021 392.760052 680.047135 C 394.906282 678.45725 397.767921 677.662307 400.629561 677.662307 L 409.21448 677.662307 C 412.79153 677.662307 414.93776 677.662307 417.799399 678.45725 C 419.230219 680.047135 422.091859 681.637021 423.522679 683.226907 C 425.668909 684.02185 427.099729 686.406678 427.815139 687.996564 C 429.245958 689.58645 429.961368 691.971279 432.107598 693.561164 C 432.823008 696.740936 434.253828 696.740936 434.969238 698.330822 C 432.107598 699.125764 429.961368 699.125764 427.815139 700.71565 C 425.668909 702.305536 429.961368 699.920707 431.392188 698.330822 C 433.538418 698.330822 433.538418 697.535879 437.115468 697.535879 C 439.977107 696.740936 441.407927 698.330822 444.269567 698.330822 C 446.415797 699.920707 446.415797 699.920707 448.562027 699.920707 " transform="matrix(0.00546016,0,0,0.00491388,1.542969,0.752083)"/>
<path style="fill:none;stroke-width:1.8;stroke-linecap:butt;stroke-linejoin:miter;stroke:rgb(93.725491%,17.647059%,15.686275%);stroke-opacity:1;stroke-miterlimit:4;" d="M 437.830867 724.712323 C 439.261687 724.712323 444.984966 726.302209 447.846606 724.712323 C 449.992835 723.91738 451.423655 723.122437 452.854475 720.737608 C 453.569885 719.147723 452.854475 723.122437 452.854475 725.507266 C 453.569885 729.48198 454.285295 729.48198 456.431525 731.866809 C 457.862345 732.661752 460.008574 734.251637 462.154804 735.841523 C 463.585624 736.636466 465.731854 738.226352 467.162674 738.226352 C 469.308904 739.816238 471.455133 740.61118 472.885953 741.406123 C 475.032183 742.996009 475.032183 745.380838 476.463003 747.765666 C 475.747593 750.150495 475.747593 752.535324 473.601363 753.330267 C 472.885953 755.715095 471.455133 758.099924 470.024314 758.894867 C 468.593494 762.074638 466.447264 763.664524 470.739723 764.459467 C 472.885953 765.25441 474.316773 764.459467 476.463003 764.459467 " transform="matrix(0.00546016,0,0,0.00491388,1.460938,0.696667)"/>
<path style="fill:none;stroke-width:1.8;stroke-linecap:butt;stroke-linejoin:miter;stroke:rgb(93.725491%,17.647059%,15.686275%);stroke-opacity:1;stroke-miterlimit:4;" d="M 480.755473 771.656347 C 482.186293 771.656347 487.909573 769.271518 490.055802 768.476575 L 498.640722 768.476575 C 502.217771 769.271518 502.933181 770.066461 505.794821 770.861404 C 507.225641 773.246232 508.656461 774.041175 511.5181 775.631061 C 512.94892 777.220947 515.09515 780.400718 516.52597 782.785547 C 517.24138 785.170376 517.24138 787.555204 517.24138 790.734976 C 517.24138 793.914747 516.52597 794.70969 516.52597 797.889462 C 515.81056 801.069233 514.37974 803.454062 512.23351 805.83889 C 512.23351 805.83889 512.23351 806.633833 511.5181 806.633833 " transform="matrix(0.00546016,0,0,0.00491388,1.445312,0.680833)"/>
<path style="fill:none;stroke-width:2.3;stroke-linecap:butt;stroke-linejoin:miter;stroke:rgb(93.725491%,17.647059%,15.686275%);stroke-opacity:1;stroke-miterlimit:4;" d="M 538.089493 817.658625 C 538.089493 817.658625 539.097151 819.672794 540.10481 821.686963 C 543.127784 824.708217 544.135443 824.708217 548.166076 824.708217 C 552.196708 824.708217 551.18905 823.701132 554.212025 822.694048 C 555.219683 820.679879 557.235 818.66571 559.250316 815.644456 C 560.257974 814.637372 560.257974 811.616118 562.273291 810.609033 C 563.280949 808.594864 564.288607 807.58778 565.296265 805.573611 C 566.303924 804.566526 567.311582 804.566526 568.31924 804.566526 C 565.296265 804.566526 565.296265 806.580695 562.273291 807.58778 L 559.250316 813.630287 C 559.250316 816.651541 558.242658 818.66571 558.242658 821.686963 C 558.242658 824.708217 558.242658 827.72947 559.250316 830.750724 C 561.265632 831.757808 562.273291 833.771977 564.288607 834.779062 C 565.296265 836.793231 567.311582 837.800315 568.31924 839.814484 L 573.357531 843.842823 C 575.372848 844.849907 577.388164 845.856992 580.411139 845.856992 C 584.441772 845.856992 585.44943 844.849907 588.472405 843.842823 C 590.487721 841.828653 592.503038 840.821569 594.518354 838.8074 C 596.53367 837.800315 597.541329 835.786146 598.548987 833.771977 C 602.57962 833.771977 604.594936 833.771977 606.610253 835.786146 C 607.617911 836.793231 609.633227 837.800315 610.640886 839.814484 C 611.648544 840.821569 613.66386 841.828653 614.671519 842.835738 " transform="matrix(0.00387656,0,0,0.00387877,2.148438,1.512083)"/>
<path style="fill:none;stroke-width:1.9;stroke-linecap:butt;stroke-linejoin:miter;stroke:rgb(93.725491%,17.647059%,15.686275%);stroke-opacity:1;stroke-miterlimit:4;" d="M 504.13358 836.439261 C 503.323075 836.439261 500.081059 838.860167 498.460051 838.860167 C 497.649546 842.088043 496.839042 843.70198 496.028538 846.122886 C 496.028538 848.543793 495.218034 851.771668 495.218034 854.999543 C 496.028538 858.227418 497.649546 860.648324 498.460051 863.06923 C 500.891563 864.683168 501.702067 865.490137 504.13358 866.297105 C 506.565092 867.104074 509.807109 867.104074 512.238621 867.104074 C 514.670134 867.911043 517.91215 867.911043 520.343663 867.104074 C 522.775175 867.104074 525.206687 866.297105 526.827696 864.683168 C 529.259208 863.876199 530.880216 862.262262 533.311729 861.455293 C 534.122233 859.034387 536.553746 857.420449 538.174754 855.806512 C 539.795762 853.385605 540.606266 852.578636 542.227275 850.15773 C 540.606266 852.578636 539.795762 854.999543 538.985258 857.420449 C 537.36425 859.841355 536.553746 860.648324 536.553746 863.876199 C 534.932737 867.104074 535.743241 870.331949 535.743241 872.752856 C 535.743241 875.173762 535.743241 878.401637 536.553746 880.822543 L 536.553746 882.436481 " transform="matrix(0.00481953,0,0,0.00484065,2.070312,0.73625)"/>
<path style="fill:none;stroke-width:1.2;stroke-linecap:butt;stroke-linejoin:miter;stroke:rgb(93.725491%,17.647059%,15.686275%);stroke-opacity:1;stroke-miterlimit:4;" d="M 541.112466 799.121115 L 541.112466 799.67727 C 541.616295 798.008804 541.112466 799.121115 540.608637 802.458047 C 539.600979 803.570358 536.578004 804.126513 534.562688 803.570358 C 532.547371 801.901892 532.547371 800.789581 529.020567 799.67727 C 524.989934 800.233425 523.982276 801.345736 521.96696 802.458047 C 519.447814 803.014202 517.936327 804.682668 516.928669 806.90729 C 515.92101 808.575756 515.92101 810.244222 517.936327 811.356533 C 519.951643 812.468844 522.470789 813.581154 524.989934 813.581154 C 528.012909 813.581154 530.028226 813.024999 531.539713 814.693465 C 533.0512 816.918087 533.0512 818.030397 533.0512 821.923485 C 533.555029 823.035796 534.058858 826.372728 534.562688 827.485039 C 536.074175 828.041194 538.089491 828.597349 540.104808 828.597349 C 540.608637 826.372728 541.616295 823.035796 542.120124 821.36733 C 542.623953 819.142708 542.623953 815.805776 543.631612 814.13731 C 545.143099 812.468844 546.654586 810.800377 548.166074 809.688067 C 549.173732 808.575756 550.18139 808.019601 551.692877 807.463445 C 549.173732 808.575756 549.173732 810.244222 548.669903 813.024999 C 550.685219 814.13731 551.692877 814.693465 555.219681 814.693465 C 558.746485 814.693465 559.250314 813.581154 560.761801 811.912688 C 560.761801 814.693465 561.76946 815.805776 562.777118 818.586553 C 563.784776 820.255019 564.288605 822.47964 565.800093 824.704262 C 565.296263 828.041194 563.784776 828.041194 563.784776 831.934282 C 562.777118 834.158903 562.777118 836.383525 561.265631 838.051991 C 560.257972 839.164301 559.754143 839.164301 558.242656 839.164301 C 561.76946 839.164301 563.784776 838.608146 566.303922 837.495835 L 571.342213 833.602748 C 573.357529 831.934282 575.876675 830.821971 578.89965 829.70966 C 581.922624 829.70966 583.937941 829.70966 584.945599 830.821971 C 586.960915 832.490437 587.968574 834.715058 588.976232 837.495835 C 589.480061 840.832768 589.480061 843.057389 587.968574 844.725855 C 586.960915 847.506632 586.960915 848.062787 587.968574 850.843564 C 589.480061 853.068186 591.495377 853.624341 595.022181 854.180496 C 597.541327 854.180496 599.556643 853.624341 601.068131 853.068186 " transform="matrix(0.00775312,0,0,0.00702367,0.746094,-0.554167)"/>
<path style="fill-rule:evenodd;fill:rgb(100%,100%,100%);fill-opacity:1;stroke-width:1.3;stroke-linecap:butt;stroke-linejoin:miter;stroke:rgb(93.725491%,17.647059%,15.686275%);stroke-opacity:1;stroke-miterlimit:4;" d="M 531.391051 359.457335 C 531.414495 194.574585 539.645258 60.080605 549.113361 60.391543 C 559.02075 60.441089 566.889175 194.470833 566.865731 359.353583 Z M 531.391051 359.457335 " transform="matrix(0.0110218,-0.00515699,0.00357892,0.0062774,-4.811346,3.245637)"/>
<path style="fill-rule:evenodd;fill:rgb(100%,100%,100%);fill-opacity:1;stroke-width:1.3;stroke-linecap:butt;stroke-linejoin:miter;stroke:rgb(93.725491%,17.647059%,15.686275%);stroke-opacity:1;stroke-miterlimit:4;" d="M 531.267508 359.701674 C 531.450334 194.052303 539.545414 60.239665 549.233004 60.389095 C 559.119977 60.029322 566.804815 194.271646 566.821371 359.411814 " transform="matrix(0.00881763,-0.00412563,0.00345262,0.00605588,-3.55534,2.759599)"/>
<path style="fill-rule:evenodd;fill:rgb(100%,100%,100%);fill-opacity:1;stroke-width:1.3;stroke-linecap:butt;stroke-linejoin:miter;stroke:rgb(93.725491%,17.647059%,15.686275%);stroke-opacity:1;stroke-miterlimit:4;" d="M 563.263976 301.08558 C 563.514655 320.071428 563.407069 341.265034 563.338726 361.239158 L 534.895133 361.519921 C 534.963475 341.545797 534.791284 320.120985 534.979894 300.872205 Z M 563.263976 301.08558 " transform="matrix(0.0110218,-0.00515706,0.00355789,0.00624045,-4.810649,3.248534)"/>
<path style="fill-rule:evenodd;fill:rgb(100%,100%,100%);fill-opacity:1;stroke-width:1.3;stroke-linecap:butt;stroke-linejoin:miter;stroke:rgb(93.725491%,17.647059%,15.686275%);stroke-opacity:1;stroke-miterlimit:4;" d="M 559.990207 304.639724 C 559.961108 323.394366 559.929473 337.765218 559.86113 357.739342 L 538.60819 357.702845 C 538.676533 337.728721 538.26888 323.620801 538.737267 304.603227 Z M 559.990207 304.639724 " transform="matrix(0.0110218,-0.00515706,0.00355789,0.00624045,-4.810649,3.248534)"/>
<path style="fill-rule:evenodd;fill:rgb(100%,100%,100%);fill-opacity:1;stroke-width:1.3;stroke-linecap:butt;stroke-linejoin:miter;stroke:rgb(93.725491%,17.647059%,15.686275%);stroke-opacity:1;stroke-miterlimit:4;" d="M 542.097132 311.761489 L 556.318929 311.621108 L 556.341754 351.075218 L 542.279468 350.721461 Z M 542.097132 311.761489 L 556.341754 351.075218 M 542.279468 350.721461 L 556.318929 311.621108 M 542.02225 113.271456 L 556.244046 113.131074 " transform="matrix(0.0110218,-0.00515706,0.00355789,0.00624045,-4.810649,3.248534)"/>
<path style="fill-rule:evenodd;fill:rgb(93.725491%,0%,0%);fill-opacity:1;stroke-width:1.3;stroke-linecap:butt;stroke-linejoin:miter;stroke:rgb(93.725491%,17.647059%,15.686275%);stroke-opacity:1;stroke-miterlimit:4;" d="M 549.155995 92.276511 C 549.297726 90.122053 547.670279 88.476092 545.826435 88.653763 C 543.613063 88.585357 542.067883 90.086333 542.221015 92.156042 C 542.299481 93.894924 543.632065 95.625634 545.845438 95.69404 C 547.689281 95.51637 549.234461 94.015393 549.155995 92.276511 Z M 549.155995 92.276511 " transform="matrix(0.0124407,0.00318699,-0.00280779,0.0110883,-4.951678,-1.753809)"/>
<path style="fill-rule:evenodd;fill:rgb(100%,100%,100%);fill-opacity:1;stroke-width:1.3;stroke-linecap:butt;stroke-linejoin:miter;stroke:rgb(93.725491%,17.647059%,15.686275%);stroke-opacity:1;stroke-miterlimit:4;" d="M 305.42109 397.020781 C 305.42109 521.043429 306.176853 567.76048 300.130752 573.878189 C 294.084652 581.108209 132.729344 573.878189 132.729344 609.472133 C 132.729344 645.066077 265.743555 680.660021 305.42109 680.660021 C 358.702351 680.660021 385.531922 645.066077 385.154041 573.878189 L 385.154041 397.020781 Z M 305.42109 397.020781 " transform="matrix(0.0103372,0,0,0.00702367,-0.352524,-0.554167)"/>
<path style="fill-rule:evenodd;fill:rgb(100%,100%,100%);fill-opacity:1;stroke-width:1.3;stroke-linecap:butt;stroke-linejoin:miter;stroke:rgb(93.725491%,17.647059%,15.686275%);stroke-opacity:1;stroke-miterlimit:4;" d="M 266.02177 396.66254 L 266.02177 414.45969 C 300.785979 420.57746 337.061675 420.57746 371.825884 414.45969 L 371.825884 396.66254 C 337.061675 402.78031 300.785979 402.78031 266.02177 396.66254 Z M 266.02177 396.66254 " transform="matrix(0.00775312,0,0,0.0070236,0.746094,-0.305529)"/>
<path style="fill-rule:evenodd;fill:rgb(100%,100%,100%);fill-opacity:1;stroke-width:1.3;stroke-linecap:butt;stroke-linejoin:miter;stroke:rgb(93.725491%,17.647059%,15.686275%);stroke-opacity:1;stroke-miterlimit:4;" d="M 266.02177 397.024757 L 266.02177 414.821907 C 300.785979 420.383516 337.061675 420.383516 371.825884 414.821907 L 371.825884 397.024757 C 337.061675 402.586366 300.785979 402.586366 266.02177 397.024757 Z M 266.02177 397.024757 " transform="matrix(0.00775312,0,0,0.0070236,0.746094,-0.554167)"/>
<path style="fill-rule:evenodd;fill:rgb(100%,100%,100%);fill-opacity:1;stroke-width:1.3;stroke-linecap:butt;stroke-linejoin:miter;stroke:rgb(93.725491%,17.647059%,15.686275%);stroke-opacity:1;stroke-miterlimit:4;" d="M 266.02177 397.121729 L 266.02177 414.362718 C 300.785979 420.480488 337.061675 420.480488 371.825884 414.362718 L 371.825884 397.121729 C 337.061675 402.683338 300.785979 402.683338 266.02177 397.121729 Z M 266.02177 397.121729 " transform="matrix(0.00775312,0,0,0.0070236,0.746094,-0.429848)"/>
<path style="fill-rule:evenodd;fill:rgb(100%,100%,100%);fill-opacity:1;stroke-width:1.3;stroke-linecap:butt;stroke-linejoin:miter;stroke:rgb(93.725491%,17.647059%,15.686275%);stroke-opacity:1;stroke-miterlimit:4;" d="M 266.02177 396.759516 L 266.02177 414.556666 C 300.785979 420.674436 337.061675 420.674436 371.825884 414.556666 L 371.825884 396.759516 C 337.061675 402.877286 300.785979 402.877286 266.02177 396.759516 Z M 266.02177 396.759516 " transform="matrix(0.00775312,0,0,0.0070236,0.746094,-0.18121)"/>
<path style="fill-rule:evenodd;fill:rgb(100%,100%,100%);fill-opacity:1;stroke-width:4.4;stroke-linecap:butt;stroke-linejoin:miter;stroke:rgb(93.725491%,17.647059%,15.686275%);stroke-opacity:1;stroke-miterlimit:4;" d="M 266.008856 212.254478 C 266.008856 196.787459 261.390384 185.187194 256.771912 185.187194 C 252.153439 185.187194 248.458662 196.787459 248.458662 212.254478 C 248.458662 223.854743 252.153439 239.321763 256.771912 239.321763 C 261.390384 239.321763 266.008856 223.854743 266.008856 212.254478 Z M 266.008856 212.254478 " transform="matrix(0.00422894,0,0,0.00101021,1.757877,2.215265)"/>
<path style="fill-rule:evenodd;fill:rgb(100%,100%,100%);fill-opacity:1;stroke-width:4.4;stroke-linecap:butt;stroke-linejoin:miter;stroke:rgb(93.725491%,17.647059%,15.686275%);stroke-opacity:1;stroke-miterlimit:4;" d="M 301.109245 246.103104 C 301.109245 230.636084 297.414468 219.035819 291.872301 219.035819 C 287.253829 219.035819 283.559051 230.636084 283.559051 246.103104 C 283.559051 261.570123 287.253829 273.170388 291.872301 273.170388 C 297.414468 273.170388 301.109245 261.570123 301.109245 246.103104 Z M 301.109245 246.103104 " transform="matrix(0.00422894,0,0,0.00101021,1.757877,2.192789)"/>
<path style="fill-rule:evenodd;fill:rgb(100%,100%,100%);fill-opacity:1;stroke-width:4.4;stroke-linecap:butt;stroke-linejoin:miter;stroke:rgb(93.725491%,17.647059%,15.686275%);stroke-opacity:1;stroke-miterlimit:4;" d="M 337.133329 265.741757 C 337.133329 250.274737 332.514857 238.674473 327.896384 238.674473 C 323.277912 238.674473 318.65944 250.274737 318.65944 265.741757 C 318.65944 277.342022 323.277912 288.942287 327.896384 288.942287 C 332.514857 288.942287 337.133329 277.342022 337.133329 265.741757 Z M 337.133329 265.741757 " transform="matrix(0.00422894,0,0,0.00101021,1.757877,2.188575)"/>
<path style="fill-rule:evenodd;fill:rgb(100%,100%,100%);fill-opacity:1;stroke-width:4.4;stroke-linecap:butt;stroke-linejoin:miter;stroke:rgb(93.725491%,17.647059%,15.686275%);stroke-opacity:1;stroke-miterlimit:4;" d="M 372.233718 265.741757 C 372.233718 250.274737 368.53894 238.674473 362.996774 238.674473 C 358.378301 238.674473 354.683524 250.274737 354.683524 265.741757 C 354.683524 277.342022 358.378301 288.942287 362.996774 288.942287 C 368.53894 288.942287 372.233718 277.342022 372.233718 265.741757 Z M 372.233718 265.741757 " transform="matrix(0.00422894,0,0,0.00101021,1.757877,2.188575)"/>
<path style="fill-rule:evenodd;fill:rgb(100%,100%,100%);fill-opacity:1;stroke-width:4.4;stroke-linecap:butt;stroke-linejoin:miter;stroke:rgb(93.725491%,17.647059%,15.686275%);stroke-opacity:1;stroke-miterlimit:4;" d="M 407.334107 246.103104 C 407.334107 230.636084 403.63933 219.035819 399.020857 219.035819 C 393.478691 219.035819 389.783913 230.636084 389.783913 246.103104 C 389.783913 261.570123 393.478691 273.170388 399.020857 273.170388 C 403.63933 273.170388 407.334107 261.570123 407.334107 246.103104 Z M 407.334107 246.103104 " transform="matrix(0.00422894,0,0,0.00101021,1.757877,2.192789)"/>
<path style="fill-rule:evenodd;fill:rgb(100%,100%,100%);fill-opacity:1;stroke-width:4.4;stroke-linecap:butt;stroke-linejoin:miter;stroke:rgb(93.725491%,17.647059%,15.686275%);stroke-opacity:1;stroke-miterlimit:4;" d="M 443.358191 212.254478 C 443.358191 196.787459 438.739719 185.187194 434.121247 185.187194 C 429.502774 185.187194 424.884302 196.787459 424.884302 212.254478 C 424.884302 223.854743 429.502774 239.321763 434.121247 239.321763 C 438.739719 239.321763 443.358191 223.854743 443.358191 212.254478 Z M 443.358191 212.254478 " transform="matrix(0.00422894,0,0,0.00101021,1.757877,2.215265)"/>
<path style="fill-rule:evenodd;fill:rgb(100%,100%,100%);fill-opacity:1;stroke-width:1.3;stroke-linecap:butt;stroke-linejoin:miter;stroke:rgb(93.725491%,17.647059%,15.686275%);stroke-opacity:1;stroke-miterlimit:4;" d="M 266.02177 485.449485 L 371.825884 581.108209 M 276.602181 485.449485 L 372.329713 570.541257 M 290.709397 488.786417 L 372.329713 559.974305 M 301.289808 488.786417 L 372.329713 549.407353 M 311.870219 488.786417 L 371.825884 538.840401 M 322.450631 488.786417 L 371.825884 528.273449 M 333.031042 488.786417 L 371.825884 517.150341 M 343.611454 488.786417 L 372.329713 510.476477 M 354.191865 488.786417 L 372.329713 503.246457 M 364.772276 488.786417 L 371.825884 496.016437 M 266.02177 496.016437 L 371.825884 591.675161 M 371.825884 485.449485 L 254.93753 591.675161 M 361.245472 485.449485 L 258.464333 577.771277 M 347.138257 488.786417 L 265.517941 559.974305 M 336.557846 488.786417 L 265.517941 549.407353 M 325.977435 488.786417 L 266.02177 538.840401 M 315.397023 488.786417 L 266.02177 528.273449 M 304.816612 488.786417 L 266.02177 517.150341 M 294.2362 488.786417 L 265.517941 510.476477 M 283.15196 488.786417 L 265.517941 503.246457 M 272.571548 488.786417 L 265.517941 496.016437 M 371.825884 496.016437 L 254.93753 602.242113 M 371.825884 506.583389 L 254.93753 612.809065 M 371.825884 517.150341 L 254.93753 623.376017 M 371.825884 527.717293 L 254.93753 634.499125 M 371.825884 538.840401 L 254.93753 645.066077 M 371.825884 549.407353 L 254.93753 655.633029 M 371.825884 559.974305 L 254.93753 666.199981 M 371.825884 570.541257 L 254.93753 676.766933 M 371.825884 581.108209 L 261.991137 680.103865 M 371.825884 591.675161 L 272.571548 680.103865 M 368.29908 606.135201 L 290.205567 676.766933 M 364.772276 620.039085 L 301.289808 676.766933 M 357.718669 637.836057 L 325.977435 666.199981 M 266.02177 506.583389 L 368.29908 598.905181 M 266.02177 517.150341 L 368.29908 609.472133 M 266.02177 528.273449 L 364.772276 616.702153 M 266.02177 538.284245 L 364.772276 627.269105 M 266.02177 549.407353 L 361.245472 633.942969 M 261.991137 556.081217 L 357.718669 641.172989 M 261.991137 567.204325 L 350.665061 645.066077 M 258.464333 573.878189 L 347.138257 651.739941 M 254.93753 581.108209 L 340.08465 655.633029 M 254.93753 591.675161 L 336.557846 662.306893 M 254.93753 602.242113 L 325.977435 666.199981 " transform="matrix(0.00775312,0,0,0.00702367,0.746094,-0.554167)"/>
<path style="fill-rule:evenodd;fill:rgb(100%,100%,100%);fill-opacity:1;stroke-width:1.3;stroke-linecap:butt;stroke-linejoin:miter;stroke:rgb(93.725491%,17.647059%,15.686275%);stroke-opacity:1;stroke-miterlimit:4;" d="M 266.02177 396.756485 L 266.02177 414.553635 C 300.785979 420.671405 337.061675 420.671405 371.825884 414.553635 L 371.825884 396.756485 C 337.061675 402.874255 300.785979 402.874255 266.02177 396.756485 Z M 266.02177 396.756485 " transform="matrix(0.00775312,0,0,0.0070236,0.746094,-0.0561887)"/>
<path style="fill-rule:evenodd;fill:rgb(100%,100%,100%);fill-opacity:1;stroke-width:1.3;stroke-linecap:butt;stroke-linejoin:miter;stroke:rgb(93.725491%,17.647059%,15.686275%);stroke-opacity:1;stroke-miterlimit:4;" d="M 254.93753 612.809065 L 318.923827 669.536913 M 254.93753 623.932173 L 311.870219 673.430001 M 254.93753 633.942969 L 304.816612 676.766933 M 254.93753 645.066077 L 290.709397 676.766933 M 254.93753 655.633029 L 283.15196 680.103865 M 254.93753 666.199981 L 272.571548 680.103865 " transform="matrix(0.00775312,0,0,0.00702367,0.746094,-0.554167)"/>
<path style="fill-rule:evenodd;fill:rgb(100%,100%,100%);fill-opacity:1;stroke-width:4.4;stroke-linecap:butt;stroke-linejoin:miter;stroke:rgb(93.725491%,17.647059%,15.686275%);stroke-opacity:1;stroke-miterlimit:4;" d="M 266.008856 209.715009 C 266.008856 194.247989 261.390384 182.647724 256.771912 182.647724 C 252.153439 182.647724 248.458662 194.247989 248.458662 209.715009 C 248.458662 225.182029 252.153439 236.782293 256.771912 236.782293 C 261.390384 236.782293 266.008856 225.182029 266.008856 209.715009 Z M 266.008856 209.715009 " transform="matrix(0.00422894,0,0,0.00101021,1.757877,2.588924)"/>
<path style="fill-rule:evenodd;fill:rgb(100%,100%,100%);fill-opacity:1;stroke-width:4.4;stroke-linecap:butt;stroke-linejoin:miter;stroke:rgb(93.725491%,17.647059%,15.686275%);stroke-opacity:1;stroke-miterlimit:4;" d="M 301.109245 247.430601 C 301.109245 231.963581 297.414468 220.363316 291.872301 220.363316 C 287.253829 220.363316 283.559051 231.963581 283.559051 247.430601 C 283.559051 262.897621 287.253829 274.497886 291.872301 274.497886 C 297.414468 274.497886 301.109245 262.897621 301.109245 247.430601 Z M 301.109245 247.430601 " transform="matrix(0.00422894,0,0,0.00101021,1.757877,2.566448)"/>
<path style="fill-rule:evenodd;fill:rgb(100%,100%,100%);fill-opacity:1;stroke-width:4.4;stroke-linecap:butt;stroke-linejoin:miter;stroke:rgb(93.725491%,17.647059%,15.686275%);stroke-opacity:1;stroke-miterlimit:4;" d="M 337.133329 263.897595 C 337.133329 248.430575 332.514857 236.830311 327.896384 236.830311 C 323.277912 236.830311 318.65944 248.430575 318.65944 263.897595 C 318.65944 279.364615 323.277912 290.96488 327.896384 290.96488 C 332.514857 290.96488 337.133329 279.364615 337.133329 263.897595 Z M 337.133329 263.897595 " transform="matrix(0.00422894,0,0,0.00101021,1.757877,2.561532)"/>
<path style="fill-rule:evenodd;fill:rgb(100%,100%,100%);fill-opacity:1;stroke-width:4.4;stroke-linecap:butt;stroke-linejoin:miter;stroke:rgb(93.725491%,17.647059%,15.686275%);stroke-opacity:1;stroke-miterlimit:4;" d="M 372.233718 263.897595 C 372.233718 248.430575 368.53894 236.830311 362.996774 236.830311 C 358.378301 236.830311 354.683524 248.430575 354.683524 263.897595 C 354.683524 279.364615 358.378301 290.96488 362.996774 290.96488 C 368.53894 290.96488 372.233718 279.364615 372.233718 263.897595 Z M 372.233718 263.897595 " transform="matrix(0.00422894,0,0,0.00101021,1.757877,2.561532)"/>
<path style="fill-rule:evenodd;fill:rgb(100%,100%,100%);fill-opacity:1;stroke-width:4.4;stroke-linecap:butt;stroke-linejoin:miter;stroke:rgb(93.725491%,17.647059%,15.686275%);stroke-opacity:1;stroke-miterlimit:4;" d="M 407.334107 247.430601 C 407.334107 231.963581 403.63933 220.363316 399.020857 220.363316 C 393.478691 220.363316 389.783913 231.963581 389.783913 247.430601 C 389.783913 262.897621 393.478691 274.497886 399.020857 274.497886 C 403.63933 274.497886 407.334107 262.897621 407.334107 247.430601 Z M 407.334107 247.430601 " transform="matrix(0.00422894,0,0,0.00101021,1.757877,2.566448)"/>
<path style="fill-rule:evenodd;fill:rgb(100%,100%,100%);fill-opacity:1;stroke-width:4.4;stroke-linecap:butt;stroke-linejoin:miter;stroke:rgb(93.725491%,17.647059%,15.686275%);stroke-opacity:1;stroke-miterlimit:4;" d="M 443.358191 209.715009 C 443.358191 194.247989 438.739719 182.647724 434.121247 182.647724 C 429.502774 182.647724 424.884302 194.247989 424.884302 209.715009 C 424.884302 225.182029 429.502774 236.782293 434.121247 236.782293 C 438.739719 236.782293 443.358191 225.182029 443.358191 209.715009 Z M 443.358191 209.715009 " transform="matrix(0.00422894,0,0,0.00101021,1.757877,2.588924)"/>
<path style="fill-rule:evenodd;fill:rgb(100%,100%,100%);fill-opacity:1;stroke-width:1.3;stroke-linecap:butt;stroke-linejoin:miter;stroke:rgb(93.725491%,17.647059%,15.686275%);stroke-opacity:1;stroke-miterlimit:4;" d="M 113.361549 651.739941 L 240.830314 577.771277 M 106.307941 648.403009 L 226.723099 577.771277 M 102.781137 641.172989 L 212.615884 577.771277 M 99.254333 634.499125 L 194.981865 577.771277 M 92.200726 627.269105 L 180.370821 577.771277 M 95.72753 616.702153 L 155.683194 581.108209 M 92.200726 609.472133 L 138.049175 581.108209 M 92.200726 598.905181 L 123.94196 581.108209 M 123.94196 655.633029 L 244.357118 584.445141 M 134.522371 658.969961 L 247.883922 591.675161 M 145.102783 662.863049 L 251.410726 598.905181 M 155.683194 666.199981 L 244.357118 612.809065 M 169.790409 666.199981 L 247.883922 620.039085 M 180.370821 669.536913 L 247.883922 630.606037 M 190.951232 673.430001 L 244.357118 641.172989 M 205.562276 673.430001 L 247.883922 648.403009 M 219.669492 676.766933 L 247.883922 658.969961 M 233.776707 676.766933 L 251.914555 666.199981 " transform="matrix(0.00775312,0,0,0.00702367,0.746094,-0.554167)"/>
<path style="fill-rule:evenodd;fill:rgb(100%,100%,100%);fill-opacity:1;stroke-width:1.3;stroke-linecap:butt;stroke-linejoin:miter;stroke:rgb(93.725491%,17.647059%,15.686275%);stroke-opacity:1;stroke-miterlimit:4;" d="M 265.578201 397.039642 L 265.578201 414.673838 C 301.172145 420.719848 336.766089 420.719848 371.803877 414.673838 L 371.803877 397.039642 C 336.766089 402.581818 301.172145 402.581818 265.578201 397.039642 Z M 265.578201 397.039642 " transform="matrix(0,0.00702367,-0.00775305,0,5.828267,1.61123)"/>
<path style="fill-rule:evenodd;fill:rgb(100%,100%,100%);fill-opacity:1;stroke-width:1.3;stroke-linecap:butt;stroke-linejoin:miter;stroke:rgb(93.725491%,17.647059%,15.686275%);stroke-opacity:1;stroke-miterlimit:4;" d="M 49.375251 623.376017 L 92.200726 588.338229 M 49.375251 598.905181 L 92.200726 641.172989 " transform="matrix(0.00775312,0,0,0.00702367,0.746094,-0.554167)"/>
<path style="fill-rule:evenodd;fill:rgb(100%,100%,100%);fill-opacity:1;stroke-width:1.3;stroke-linecap:butt;stroke-linejoin:miter;stroke:rgb(93.725491%,17.647059%,15.686275%);stroke-opacity:1;stroke-miterlimit:4;" d="M 260.224882 388.048043 L 265.49375 414.499071 C 301.497683 420.796935 331.354603 420.796935 366.480391 414.499071 L 377.896272 388.048043 C 341.892339 393.716121 295.35067 393.716121 260.224882 388.048043 Z M 260.224882 388.048043 " transform="matrix(0,0.0044483,-0.0062025,0,4.031868,2.369786)"/>
<path style="fill-rule:evenodd;fill:rgb(100%,100%,100%);fill-opacity:1;stroke-width:1.3;stroke-linecap:butt;stroke-linejoin:miter;stroke:rgb(93.725491%,17.647059%,15.686275%);stroke-opacity:1;stroke-miterlimit:4;" d="M 258.576984 350.594647 L 258.576984 332.797675 C 248.152701 333.353831 240.754823 322.230723 240.754823 311.663771 L 205.446769 311.663771 C 205.446769 322.230723 198.385158 333.353831 187.960875 333.353831 L 187.960875 350.594647 Z M 258.576984 350.594647 " transform="matrix(0.0116165,0,0,0.00702367,0.625145,-0.18121)"/>
<path style="fill-rule:evenodd;fill:rgb(100%,100%,100%);fill-opacity:1;stroke-width:1.4;stroke-linecap:butt;stroke-linejoin:miter;stroke:rgb(93.725491%,17.647059%,15.686275%);stroke-opacity:1;stroke-miterlimit:4;" d="M 296.251517 343.629865 L 341.596137 343.629865 L 341.596137 364.76377 L 296.251517 364.76377 Z M 299.778321 322.495961 L 337.565504 322.495961 L 337.565504 343.629865 L 299.778321 343.629865 Z M 299.778321 301.362057 L 337.565504 301.362057 L 337.565504 322.495961 L 299.778321 322.495961 Z M 303.808954 272.998133 L 334.0387 272.998133 L 334.0387 301.362057 L 303.808954 301.362057 Z M 302.297466 247.971142 L 335.550188 247.971142 L 335.550188 272.998133 L 302.297466 272.998133 Z M 302.297466 247.971142 " transform="matrix(0.00775312,0,0,0.00702367,0.746094,-0.554167)"/>
<path style="fill-rule:evenodd;fill:rgb(100%,100%,100%);fill-opacity:1;stroke-width:1.3;stroke-linecap:butt;stroke-linejoin:miter;stroke:rgb(93.725491%,17.647059%,15.686275%);stroke-opacity:1;stroke-miterlimit:4;" d="M 280.143483 161.368772 C 280.143483 142.45949 260.639793 127.443294 237.235364 127.443294 C 213.830935 127.443294 194.814836 142.45949 194.814836 161.368772 C 194.814836 179.721899 213.830935 194.738094 237.235364 194.738094 C 260.639793 194.738094 280.143483 179.721899 280.143483 161.368772 Z M 280.143483 161.368772 " transform="matrix(0.0080113,0,0,0.00702367,1.329904,-0.106057)"/>
<path style="fill-rule:evenodd;fill:rgb(100%,100%,100%);fill-opacity:1;stroke-width:1.3;stroke-linecap:butt;stroke-linejoin:miter;stroke:rgb(93.725491%,17.647059%,15.686275%);stroke-opacity:1;stroke-miterlimit:4;" d="M 258.689424 159.144151 C 258.689424 168.598792 269.416453 184.171142 269.416453 184.171142 C 261.614977 190.288851 248.937578 194.738094 237.235364 194.738094 C 225.533149 194.738094 210.905381 192.513473 205.541866 184.171142 C 205.541866 184.171142 216.268896 168.598792 216.268896 159.700306 C 216.268896 150.245665 205.541866 138.010247 205.541866 138.010247 C 214.806119 131.336382 226.020741 127.443294 237.722956 127.443294 C 248.937578 127.443294 261.614977 131.892537 269.416453 138.010247 C 269.416453 138.010247 258.689424 150.245665 258.689424 159.700306 Z M 258.689424 159.144151 " transform="matrix(0.0080113,0,0,0.00702367,1.329904,-0.106057)"/>
<path style="fill-rule:evenodd;fill:rgb(100%,100%,100%);fill-opacity:1;stroke-width:1.3;stroke-linecap:butt;stroke-linejoin:miter;stroke:rgb(93.725491%,17.647059%,15.686275%);stroke-opacity:1;stroke-miterlimit:4;" d="M 251.375539 159.144151 C 251.375539 168.598792 262.102569 188.06423 262.102569 188.06423 C 254.301093 193.625784 249.42517 194.738094 237.235364 194.738094 C 225.533149 194.738094 218.219265 195.850405 212.368158 188.06423 C 212.368158 188.06423 223.095188 168.598792 223.095188 159.144151 C 223.095188 150.245665 212.368158 134.673314 212.368158 134.673314 C 220.169634 128.555605 225.533149 127.443294 237.235364 127.443294 C 248.937578 127.443294 254.301093 128.555605 262.102569 134.673314 C 262.102569 134.673314 251.375539 150.245665 251.375539 159.144151 Z M 251.375539 159.144151 " transform="matrix(0.0080113,0,0,0.00702367,1.329904,-0.106057)"/>
<path style="fill-rule:evenodd;fill:rgb(100%,100%,100%);fill-opacity:1;stroke-width:1.3;stroke-linecap:butt;stroke-linejoin:miter;stroke:rgb(93.725491%,17.647059%,15.686275%);stroke-opacity:1;stroke-miterlimit:4;" d="M 205.541866 166.637237 C 205.541866 160.519528 200.665943 156.070285 194.814836 156.070285 C 188.963729 156.070285 184.087806 160.519528 184.087806 166.637237 C 184.087806 172.19879 188.963729 177.204189 194.814836 177.204189 C 200.665943 177.204189 205.541866 172.19879 205.541866 166.637237 Z M 205.541866 166.637237 " transform="matrix(0.0080113,0,0,0.00702367,1.329904,-0.131342)"/>
<path style="fill-rule:evenodd;fill:rgb(100%,100%,100%);fill-opacity:1;stroke-width:1.3;stroke-linecap:butt;stroke-linejoin:miter;stroke:rgb(93.725491%,17.647059%,15.686275%);stroke-opacity:1;stroke-miterlimit:4;" d="M 205.31567 166.637237 C 205.31567 160.519528 200.92734 156.070285 195.076233 156.070285 C 189.225125 156.070285 184.349203 160.519528 184.349203 166.637237 C 184.349203 172.19879 189.225125 177.204189 195.076233 177.204189 C 200.92734 177.204189 205.31567 172.19879 205.31567 166.637237 Z M 205.31567 166.637237 " transform="matrix(0.0080113,0,0,0.00702367,2.011404,-0.131342)"/>
<path style="fill-rule:evenodd;fill:rgb(100%,100%,100%);fill-opacity:1;stroke-width:1.3;stroke-linecap:butt;stroke-linejoin:miter;stroke:rgb(93.725491%,17.647059%,15.686275%);stroke-opacity:1;stroke-miterlimit:4;" d="M 205.380377 166.637237 C 205.380377 160.519528 200.992046 156.070285 195.140939 156.070285 C 188.802239 156.070285 184.413909 160.519528 184.413909 166.637237 C 184.413909 172.19879 188.802239 177.204189 195.140939 177.204189 C 200.992046 177.204189 205.380377 172.19879 205.380377 166.637237 Z M 205.380377 166.637237 " transform="matrix(0.0080113,0,0,0.00702367,1.671042,-0.131342)"/>
<path style="fill-rule:evenodd;fill:rgb(100%,100%,100%);fill-opacity:1;stroke-width:1.3;stroke-linecap:butt;stroke-linejoin:miter;stroke:rgb(93.725491%,17.647059%,15.686275%);stroke-opacity:1;stroke-miterlimit:4;" d="M 205.380377 166.443294 C 205.380377 160.881741 200.992046 155.876342 195.140939 155.876342 C 188.802239 155.876342 184.413909 160.881741 184.413909 166.443294 C 184.413909 172.561004 188.802239 177.010247 195.140939 177.010247 C 200.992046 177.010247 205.380377 172.561004 205.380377 166.443294 Z M 205.380377 166.443294 " transform="matrix(0.0080113,0,0,0.00702367,1.671042,-0.37998)"/>
<path style="fill-rule:evenodd;fill:rgb(100%,100%,100%);fill-opacity:1;stroke-width:1.3;stroke-linecap:butt;stroke-linejoin:miter;stroke:rgb(93.725491%,17.647059%,15.686275%);stroke-opacity:1;stroke-miterlimit:4;" d="M 205.361921 166.32769 C 205.361921 160.766137 200.654117 155.760738 195.004753 155.760738 C 188.884608 155.760738 184.176805 160.766137 184.176805 166.32769 C 184.176805 172.4454 188.884608 176.894643 195.004753 176.894643 C 200.654117 176.894643 205.361921 172.4454 205.361921 166.32769 Z M 205.361921 166.32769 " transform="matrix(0.00829739,0,0,0.00702367,1.366344,1.038801)"/>
<path style="fill-rule:evenodd;fill:rgb(100%,100%,100%);fill-opacity:1;stroke-width:1.3;stroke-linecap:butt;stroke-linejoin:miter;stroke:rgb(93.725491%,17.647059%,15.686275%);stroke-opacity:1;stroke-miterlimit:4;" d="M 205.701405 166.32769 C 205.701405 160.766137 200.522822 155.760738 194.873457 155.760738 C 189.224093 155.760738 184.51629 160.766137 184.51629 166.32769 C 184.51629 172.4454 189.224093 176.894643 194.873457 176.894643 C 200.522822 176.894643 205.701405 172.4454 205.701405 166.32769 Z M 205.701405 166.32769 " transform="matrix(0.00829739,0,0,0.00702367,1.836183,1.038801)"/>
<path style="fill-rule:evenodd;fill:rgb(100%,100%,100%);fill-opacity:1;stroke-width:1.3;stroke-linecap:butt;stroke-linejoin:miter;stroke:rgb(93.725491%,17.647059%,15.686275%);stroke-opacity:1;stroke-miterlimit:4;" d="M 212.503166 311.663771 L 262.405883 311.663771 L 237.454524 343.920783 Z M 212.503166 311.663771 " transform="matrix(0.00829739,0,0,0.00702367,1.248496,-0.18121)"/>
<path style="fill-rule:evenodd;fill:rgb(100%,100%,100%);fill-opacity:1;stroke-width:1.3;stroke-linecap:butt;stroke-linejoin:miter;stroke:rgb(93.725491%,17.647059%,15.686275%);stroke-opacity:1;stroke-miterlimit:4;" d="M 205.563203 166.572238 C 205.563203 160.732461 200.62024 155.726937 194.97114 155.726937 C 188.968972 155.726937 184.379078 160.732461 184.379078 166.572238 C 184.379078 172.412016 188.968972 177.000412 194.97114 177.000412 C 200.62024 177.000412 205.563203 172.412016 205.563203 166.572238 Z M 205.563203 166.572238 " transform="matrix(0.0110637,0,0,0.00936465,1.061646,0.623702)"/>
<path style="fill-rule:evenodd;fill:rgb(100%,100%,100%);fill-opacity:1;stroke-width:1.2;stroke-linecap:butt;stroke-linejoin:miter;stroke:rgb(93.725491%,17.647059%,15.686275%);stroke-opacity:1;stroke-miterlimit:4;" d="M 266.525605 524.202394 L 339.580826 524.202394 C 341.596143 524.202394 343.611459 525.87086 343.611459 528.095481 L 343.611459 541.999366 C 343.611459 544.223987 341.596143 545.892453 339.580826 545.892453 L 266.525605 545.892453 C 264.006459 545.892453 261.991143 544.223987 261.991143 541.999366 L 261.991143 528.095481 C 261.991143 525.87086 264.006459 524.202394 266.525605 524.202394 Z M 266.525605 524.202394 " transform="matrix(0.00775312,0,0,0.00702367,0.734375,-0.756042)"/>
<path style="fill-rule:evenodd;fill:rgb(100%,100%,100%);fill-opacity:1;stroke-width:1.2;stroke-linecap:butt;stroke-linejoin:miter;stroke:rgb(93.725491%,17.647059%,15.686275%);stroke-opacity:1;stroke-miterlimit:4;" d="M 368.299086 506.961577 C 358.726333 506.961577 350.665067 514.747752 350.665067 525.314704 L 350.665067 541.44321 C 350.665067 545.892453 352.680383 550.897851 355.703358 554.234784 C 359.230162 557.571716 363.764624 559.796337 368.299086 559.796337 C 373.337377 559.796337 377.871839 557.571716 381.398643 554.234784 C 384.421617 550.897851 386.436934 545.892453 386.436934 541.44321 L 386.436934 525.314704 C 386.436934 520.309306 384.421617 515.860063 381.398643 512.523131 C 377.871839 508.630043 373.337377 506.961577 368.299086 506.961577 Z M 368.299086 513.635442 C 362.756966 513.635442 357.718674 520.309306 357.718674 528.651637 L 357.718674 538.106278 C 357.718674 545.892453 362.756966 552.566318 368.299086 552.566318 C 374.345035 552.566318 378.879497 545.892453 378.879497 538.106278 L 378.879497 528.651637 C 378.879497 520.309306 374.345035 513.635442 368.299086 513.635442 Z M 276.602187 510.298509 C 270.556238 510.298509 266.021776 516.972374 266.021776 525.314704 L 266.021776 541.44321 C 266.021776 549.785541 270.556238 556.459405 276.602187 556.459405 C 282.144307 556.459405 287.182599 549.785541 287.182599 541.44321 L 287.182599 524.758549 C 287.182599 516.972374 282.144307 510.298509 276.602187 510.298509 Z M 276.602187 503.06849 C 271.563896 503.06849 267.029434 505.293111 263.50263 508.630043 C 260.479656 511.966975 258.464339 516.972374 258.464339 521.977772 L 258.464339 544.780142 C 258.464339 549.785541 260.479656 554.234784 263.50263 557.571716 C 267.029434 561.464804 271.563896 563.13327 276.602187 563.13327 C 286.17494 563.13327 294.236206 555.347094 294.236206 544.780142 L 294.236206 521.977772 C 294.236206 516.972374 292.724719 511.966975 289.197915 508.630043 C 285.671111 505.293111 281.136649 503.06849 276.602187 503.06849 Z M 276.602187 503.06849 " transform="matrix(0.00775312,0,0,0.00702367,0.734375,-0.756042)"/>
<path style="fill-rule:evenodd;fill:rgb(100%,100%,100%);fill-opacity:1;stroke-width:1.2;stroke-linecap:butt;stroke-linejoin:miter;stroke:rgb(93.725491%,17.647059%,15.686275%);stroke-opacity:1;stroke-miterlimit:4;" d="M 247.883928 517.528529 C 242.341807 517.528529 237.303516 523.646238 237.303516 531.988569 L 237.303516 535.881656 C 237.303516 544.223987 242.341807 550.897851 247.883928 550.897851 C 253.929877 550.897851 258.464339 544.223987 258.464339 535.881656 L 258.464339 531.988569 C 258.464339 523.646238 253.929877 517.528529 247.883928 517.528529 Z M 247.883928 510.298509 C 243.349466 510.298509 238.815004 512.523131 235.2882 515.860063 C 231.761396 519.196995 230.249909 524.202394 230.249909 528.651637 L 230.249909 539.218589 C 230.249909 544.223987 231.761396 548.67323 235.2882 552.566318 C 238.815004 555.90325 243.349466 557.571716 247.883928 558.127871 C 257.96051 558.127871 266.021776 549.785541 266.021776 539.218589 L 266.021776 528.651637 C 266.021776 524.202394 264.006459 519.196995 260.983485 515.860063 C 257.456681 512.523131 252.922219 510.298509 247.883928 510.298509 Z M 247.883928 510.298509 " transform="matrix(0.00775312,0,0,0.00702367,0.734375,-0.756042)"/>
<path style="fill-rule:evenodd;fill:rgb(100%,100%,100%);fill-opacity:1;stroke-width:0.9;stroke-linecap:butt;stroke-linejoin:miter;stroke:rgb(93.725491%,17.647059%,15.686275%);stroke-opacity:1;stroke-miterlimit:4;" d="M 478.367947 237.399556 C 472.489941 237.399556 467.731555 243.868794 467.731555 252.328566 L 467.731555 268.750477 C 467.731555 276.712616 472.489941 283.679488 478.367947 283.679488 C 484.245954 283.679488 489.00434 276.712616 489.00434 268.750477 L 489.00434 252.328566 C 489.00434 243.868794 484.245954 237.399556 478.367947 237.399556 Z M 478.367947 230.432685 C 473.609561 230.432685 469.13108 232.42322 465.772219 235.906655 C 462.413358 239.390091 460.454023 243.868794 460.733928 248.845131 L 460.733928 272.233913 C 460.454023 276.712616 462.133453 281.688953 465.492314 285.172389 C 468.851175 288.655824 473.609561 290.646359 478.367947 290.646359 C 488.164625 290.646359 496.001967 282.186586 496.001967 272.233913 L 496.001967 248.845131 C 496.281872 243.868794 494.322536 239.390091 491.24358 235.906655 C 487.88472 232.42322 483.126333 230.432685 478.367947 230.432685 Z M 478.367947 230.432685 " transform="matrix(0.0139556,0,0,0.00784965,-4.347798,0.94509)"/>
<path style="fill-rule:evenodd;fill:rgb(100%,100%,100%);fill-opacity:1;stroke-width:0.9;stroke-linecap:butt;stroke-linejoin:miter;stroke:rgb(93.725491%,17.647059%,15.686275%);stroke-opacity:1;stroke-miterlimit:4;" d="M 478.340123 237.253647 C 472.462117 237.253647 467.703731 244.220519 467.703731 252.182657 L 467.703731 268.604569 C 467.703731 276.566707 472.462117 283.533579 478.340123 283.533579 C 484.21813 283.533579 488.976516 277.064341 488.976516 268.604569 L 488.976516 252.182657 C 488.976516 244.220519 484.21813 237.253647 478.340123 237.253647 Z M 478.340123 230.286776 C 473.581737 230.286776 469.103256 232.277311 465.744395 235.760746 C 462.385534 239.244182 460.426199 244.220519 460.706104 248.699222 L 460.706104 272.088004 C 460.426199 277.064341 462.105629 281.543044 465.46449 285.02648 C 468.823351 288.509915 473.581737 290.50045 478.340123 290.50045 C 488.136801 290.50045 495.974143 282.538311 495.974143 272.088004 L 495.974143 248.699222 C 496.254048 244.220519 494.574617 239.244182 491.215757 235.760746 C 487.856896 232.277311 483.09851 230.286776 478.340123 230.286776 Z M 478.340123 230.286776 " transform="matrix(0.0139556,0,0,0.00784965,-2.562254,0.969673)"/>
<path style="fill-rule:evenodd;fill:rgb(100%,100%,100%);fill-opacity:1;stroke-width:1.2;stroke-linecap:butt;stroke-linejoin:miter;stroke:rgb(93.725491%,17.647059%,15.686275%);stroke-opacity:1;stroke-miterlimit:4;" d="M 377.871839 524.202394 L 415.659023 524.202394 C 417.17051 524.202394 418.178168 525.87086 418.178168 528.095481 L 418.178168 541.999366 C 418.178168 544.223987 417.17051 545.892453 415.659023 545.892453 L 377.871839 545.892453 C 376.864181 545.892453 375.352693 544.223987 375.352693 541.999366 L 375.352693 528.095481 C 375.352693 525.87086 376.864181 524.202394 377.871839 524.202394 Z M 377.871839 524.202394 " transform="matrix(0.00775312,0,0,0.00702367,0.734375,-0.756042)"/>
<path style="fill-rule:evenodd;fill:rgb(100%,100%,100%);fill-opacity:1;stroke-width:1.2;stroke-linecap:butt;stroke-linejoin:miter;stroke:rgb(93.725491%,17.647059%,15.686275%);stroke-opacity:1;stroke-miterlimit:4;" d="M 338.069339 520.865461 L 360.23782 520.865461 C 360.741649 520.865461 361.245478 523.090083 361.245478 525.87086 L 361.245478 544.223987 C 361.245478 547.004764 360.741649 549.229385 360.23782 549.229385 L 338.069339 549.229385 C 337.061681 549.229385 336.557852 547.004764 336.557852 544.223987 L 336.557852 525.87086 C 336.557852 523.090083 337.061681 520.865461 338.069339 520.865461 Z M 338.069339 520.865461 " transform="matrix(0.00775312,0,0,0.00702367,0.734375,-0.756042)"/>
<path style="fill-rule:evenodd;fill:rgb(100%,100%,100%);fill-opacity:1;stroke-width:1.2;stroke-linecap:butt;stroke-linejoin:miter;stroke:rgb(93.725491%,17.647059%,15.686275%);stroke-opacity:1;stroke-miterlimit:4;" d="M 221.180985 520.865461 L 243.349466 520.865461 C 243.853295 520.865461 244.357124 523.090083 244.357124 525.87086 L 244.357124 544.223987 C 244.357124 547.004764 243.853295 549.229385 243.349466 549.229385 L 221.180985 549.229385 C 220.173326 549.229385 219.669497 547.004764 219.669497 544.223987 L 219.669497 525.87086 C 219.669497 523.090083 220.173326 520.865461 221.180985 520.865461 Z M 221.180985 520.865461 " transform="matrix(0.00775312,0,0,0.00702367,0.734375,-0.756042)"/>
<path style="fill-rule:evenodd;fill:rgb(100%,100%,100%);fill-opacity:1;stroke-width:1.2;stroke-linecap:butt;stroke-linejoin:miter;stroke:rgb(93.725491%,17.647059%,15.686275%);stroke-opacity:1;stroke-miterlimit:4;" d="M 144.09513 517.528529 L 188.935921 517.528529 C 189.94358 517.528529 191.455067 519.753151 191.455067 523.646238 L 191.455067 546.448608 C 191.455067 549.785541 189.94358 552.566318 188.935921 552.566318 L 144.09513 552.566318 C 143.087472 552.566318 141.575985 549.785541 141.575985 546.448608 L 141.575985 523.646238 C 141.575985 519.753151 143.087472 517.528529 144.09513 517.528529 Z M 144.09513 517.528529 " transform="matrix(0.00775312,0,0,0.00702367,0.734375,-0.756042)"/>
<path style="fill-rule:evenodd;fill:rgb(100%,100%,100%);fill-opacity:1;stroke-width:1.2;stroke-linecap:butt;stroke-linejoin:miter;stroke:rgb(93.725491%,17.647059%,15.686275%);stroke-opacity:1;stroke-miterlimit:4;" d="M 452.438548 520.865461 L 493.752535 520.865461 C 494.760193 520.865461 496.271681 523.646238 496.271681 526.98317 L 496.271681 550.341696 C 496.271681 553.678628 494.760193 556.459405 493.752535 556.459405 L 452.438548 556.459405 C 450.92706 556.459405 449.919402 553.678628 449.919402 550.341696 L 449.919402 526.98317 C 449.919402 523.646238 450.92706 520.865461 452.438548 520.865461 Z M 452.438548 520.865461 " transform="matrix(0.00775312,0,0,0.00702367,0.734375,-0.756042)"/>
</g>
</svg>
