<svg xmlns="http://www.w3.org/2000/svg" width="25" height="px" viewBox="0 0 25 19"><path d="M0 0h25v19H0z" style="fill:#fff;fill-opacity:1;stroke:none"/><path d="M3.613 0h18.64v19H3.61Zm0 0" style="stroke:none;fill-rule:evenodd;fill:#fff;fill-opacity:1"/><path d="M12.617.14h13.985v8.778H12.617Zm0 0" style="stroke:none;fill-rule:evenodd;fill:#db0000;fill-opacity:1"/><path d="M.125 8.918h12.496V19H.125Zm8.266-1.883L6.75 5.871 5.121 7.043l.606-1.902-1.625-1.184 2.015-.016.625-1.898.637 1.894h2.016L7.773 5.126l.622 1.902Zm0 0" style="stroke:none;fill-rule:evenodd;fill:#0000ab;fill-opacity:1"/><path d="m20.191 16.383-1.656-1.098-1.644 1.11.609-1.805-1.64-1.11 2.03-.02.633-1.796.641 1.793h2.031l-1.633 1.129.625 1.797Zm0 0" style="stroke:none;fill-rule:evenodd;fill:#d80000;fill-opacity:1"/></svg>