<svg xmlns="http://www.w3.org/2000/svg" width="25" height="px" viewBox="0 0 25 19"><path d="M0 0h25v19H0z" style="fill:#003da5;fill-opacity:1;stroke:none"/><path d="m5.879 10.531.3-.148-.046-.336.234.242.297-.148-.152.297.23.242-.328-.055-.152.3-.051-.335ZM18.473 10.402l-.328.059-.043.336-.16-.297-.329.066.227-.246-.156-.297.3.141.227-.246-.04.34ZM18.516 9.246l-.313.117.016.34-.211-.262-.309.121.18-.28-.207-.266.32.086.18-.282.02.336ZM17.992 7.008l-.254.219.137.312-.29-.172-.25.227.071-.328-.285-.176.332-.035.07-.328.137.308ZM18.352 8.102l-.286.171.079.332-.254-.222-.286.18.125-.313-.25-.223.332.028.13-.313.078.332ZM16.723 5.094l-.16.297.234.246-.328-.059-.157.3-.046-.335-.328-.059.296-.148L16.187 5l.235.242ZM14.871 3.758l-.043.336.3.144-.327.063-.043.336-.16-.293-.325.058.227-.246-.164-.293.305.14ZM15.855 4.344l-.101.32.27.195-.333.004-.101.324-.106-.32h-.332l.266-.203-.105-.316.273.195ZM17.441 5.992l-.207.266.184.281-.313-.117-.203.266.008-.336-.308-.118.32-.093.008-.336.191.277ZM12.676 3.168l.074.328.332.027-.285.176.078.328-.254-.215-.285.172.129-.312-.254-.219.332.024ZM10.414 3.398l.184.282.32-.094-.203.266.183.28-.308-.112-.207.261.008-.336-.313-.113.32-.098ZM11.535 3.18l.13.308.331-.031-.246.223.133.312-.285-.172-.25.223.066-.328-.285-.168.332-.04ZM8.375 4.418l.27.2.27-.204-.099.324.27.196-.332.003-.102.32-.105-.316-.332.004.265-.207ZM6.824 6.102l.32.09.184-.286.016.336.324.086-.309.125.016.336-.21-.262-.31.125.176-.289ZM7.523 5.188l.301.148.23-.25-.042.336.304.144-.324.067-.047.332-.16-.293-.328.062.227-.25ZM9.348 3.816l.23.243.3-.149-.155.297.234.242-.324-.054-.16.296-.047-.332-.328-.058.297-.153ZM13.8 3.363l.012.336.325.09-.313.121.02.336-.211-.258-.309.117.18-.285-.211-.257.324.082ZM5.953 8.23l.332-.03.074-.333.133.309.332-.035-.246.226.133.309-.29-.168-.245.226.066-.332ZM5.816 9.375l.32-.09.012-.34.188.282.32-.094-.203.265.184.282-.313-.114-.203.266.008-.34ZM6.61 12.71l.23-.241-.16-.297.3.14.227-.246-.039.332.3.149-.323.062-.043.336-.165-.297ZM8.05 14.492l.13-.308-.254-.223.332.027.129-.312.078.328.332.027-.281.176.078.328-.258-.215ZM7.25 13.668l.184-.281-.211-.262.324.086.18-.285.02.336.32.086-.31.125.02.336-.215-.262ZM6.148 11.656l.27-.199-.106-.324.27.195.27-.2-.098.321.27.196-.333.007-.097.32-.114-.32ZM6.293 7.125l.332.031.129-.316.078.332.336.023-.285.18.074.328-.254-.219-.281.176.125-.312ZM8.984 15.16l.07-.328-.288-.172.332-.035.07-.328.137.305.328-.032-.246.227.136.305-.289-.165ZM10.02 15.648l.011-.34-.316-.113.324-.093.008-.34.187.277.32-.09-.202.266.187.277-.316-.11Zm0 0" style="stroke:none;fill-rule:nonzero;fill:#fff;fill-opacity:1"/><path d="M444.9 313.026c-29.4 55.263-89.8 86.645-151.9 78.948" style="fill:none;stroke-width:13.7;stroke-linecap:butt;stroke-linejoin:miter;stroke:#00aec7;stroke-opacity:1;stroke-miterlimit:4" transform="scale(.03906 .03958)"/><path d="M18.527 11.418s-.988-.445-2.98-.453-4.11.55-5.277.535c-1.172-.012-1.516-.012-2.215-.148 0 0 1.054.355 2.18.46 1.12.106 3.718-.414 5.015-.496 1.328-.082 2.36-.082 3.273.102" style="stroke:none;fill-rule:nonzero;fill:#fff;fill-opacity:1"/><path d="M10.742 12s.75.043 2.188-.117c1.445-.16 2.46-.371 3.597-.403 1.137-.03 2.391.172 2.657.239 0 0-1.895-.051-2.688.066-.793.113-2.851.375-3.933.402-1.083.028-1.458-.124-1.82-.187m-3.145-1.098s1.992.54 3.797.184c2.043-.402 3.242-.395 4.156-.395.914-.007 1.87.227 1.87.227s-3.75-3.969-7.675-6.07c0 0-.293 3.347-2.148 6.054" style="stroke:none;fill-rule:nonzero;fill:#00aec7;fill-opacity:1"/><path d="M10.71 7.816s-.054-.207-.323-.175c0 0 .172-.082.25-.04.078.044.093.055.078.215m-.656-.37s.058-.02.086-.012c0 0 .039.128.125.18 0 0-.149-.012-.211-.169m.867.2a.5.5 0 0 0-.34-.192c-.07 0-.234.14-.234.14-.04-.081-.02-.136-.02-.136.078.008.145.04.145.04-.032-.102-.079-.15-.079-.15.157-.038.344.098.344.098a.67.67 0 0 0-.43-.27c-.046-.003-.105.063-.105.063-.305 0-.387.172-.387.172.13.203.39.25.39.25-.46-.05-.448.317-.448.317l.425-.227c-.164.953-.82 1.387-.874 1.438-.055.054-.02.117.058.124.043 0 .098.043.242-.132.352-.39.575-.88.64-1.403l.009.008c.047.117.015.215.023.29.008.073.172.238.172.238s.09-.18.078-.282c-.02-.105-.215-.3-.215-.3.305-.06.32.46.32.46.118-.14.094-.289.094-.289s.246-.183.192-.254" style="stroke:none;fill-rule:nonzero;fill:#fff;fill-opacity:1"/></svg>