<svg xmlns="http://www.w3.org/2000/svg" width="25" height="px" viewBox="0 0 25 19"><path d="M0 0h25v19H0z" style="fill:#fff;fill-opacity:1;stroke:none"/><path d="M3.125 0h18.75v19H3.125Zm0 0" style="stroke:none;fill-rule:nonzero;fill:#fff;fill-opacity:1"/><path d="M277.3 340.757s10.8-8.783 21.4-8.783 13.4 7.302 20.8 7.894c7.3.593 13.4-7.302 22.5-7.598s20.5 6.414 20.5 6.414l-39.8 12.04-45.4-10.066Zm-22.9-12.928 135.4.69s-11.7-12.73-25.5-13.026c-13.8-.197-10 6.02-20.5 6.81-10.6.888-13.2-6.415-22.9-6.217-9.7.197-15.2 6.217-22.5 6.513s-16.7-7.303-22.3-7.007-25.5 8.684-25.5 8.684l3.8 3.652Zm-17.3-15.987 167 .494c2.7-3.85-8.2-12.928-18.1-13.718-8.2.296-14 8.487-20.8 8.783s-14.4-8.487-22-8.19c-7.6.296-15.5 8.19-23.1 8.19s-13.2-8.487-22.9-8.487-14 9.277-21.4 8.783-13.8-9.375-20.8-9.375-18.7 10.46-21 9.967c-2.4-.69 2.9 4.343 3.1 3.454Zm0 0" style="fill-rule:evenodd;fill:#083d9c;fill-opacity:1;stroke-width:2.5;stroke-linecap:butt;stroke-linejoin:miter;stroke:#083d9c;stroke-opacity:1;stroke-miterlimit:4" transform="scale(.03906 .03958)"/><path d="m301.3 218.882 38.4 10.263v-54.869c-17.6.987-32.2-33.355-1.2-35.723-30.5-4.342-34 3.552-37.5 12.04Zm0 0" style="fill-rule:evenodd;fill:red;fill-opacity:1;stroke-width:2.5;stroke-linecap:butt;stroke-linejoin:round;stroke:#000;stroke-opacity:1;stroke-miterlimit:4" transform="scale(.03906 .03958)"/><path d="m277 258.651 86.7.395" style="fill-rule:evenodd;fill:#083d9c;fill-opacity:1;stroke-width:5;stroke-linecap:round;stroke-linejoin:miter;stroke:#083d9c;stroke-opacity:1;stroke-miterlimit:4" transform="scale(.03906 .03958)"/><path d="m281.1 238.026 10.3 13.717m-10.3 0 11.1-13.52m-5.2-1.184-.3 8.487m10.8-7.598 10.3 13.815m-10.3 0 11.1-13.52m-5.2-1.184-.3 8.487m11.1-7.598 10.3 13.815m-10.3 0 11.1-13.52m-5.2-1.184-.3 8.487m11.7-7.598 10.2 13.815m-10.2 0 11.1-13.52m-5.3-1.184-.2 8.487m11-7.598 10.3 13.815m-10.2 0 11.1-13.52m-5.3-1.184-.3 8.487" style="fill:none;stroke-width:4;stroke-linecap:round;stroke-linejoin:miter;stroke:#000;stroke-opacity:1;stroke-miterlimit:4" transform="scale(.03906 .03958)"/><path d="m8.543 10.277 1.441.012v-.914l-1.648-.086Zm-.07-1.27 1.535.157-.012-.648-1.5-.606-.023 1.102Zm.312-1.292 1.176.578.168-.18s-.11-.074-.102-.144c0-.067.11-.078.11-.16 0-.067-.117-.079-.121-.145-.008-.078.093-.16.093-.16l-1.062-.938-.266 1.149Zm7.735 2.574h-1.524l-.012-.894 1.672-.13Zm-1.512-1.105 1.808-.223-.39-1.055-1.43.617Zm1.316-1.567-1.304.696c-.02-.079-.036-.153-.125-.211 0 0 .078-.047.078-.125 0-.079-.102-.094-.102-.141 0-.043.094-.086.102-.191-.012-.07-.102-.176-.086-.196l1.015-.785Zm-2.828 1.547.652-.027.012-.266Zm-1.992-.02-.684-.019v-.277l.688.297Zm0-.078-.684-.359v-.465s-.078.012-.07-.082c.004-.191.504.356.758.531Zm1.992-.046v-.305s.617-.563.746-.668c0 .121-.07.207-.07.207v.441ZM9.492 6.484l.695.778c.016-.07.176-.082.336-.07s.286-.012.286.105c0 .113-.079.098-.079.18s.118.074.118.18c0 .1-.086.081-.086.16 0 .07.093.074.093.074l.649.636v-.683l-1.336-2.125Zm1.07-.808.91 1.879s.008-1.73.16-1.825l-.253-.472Zm3.946.074-1.016 1.832v-.773s.086-.125-.047-.118-.293-.007-.293-.007l.407-1.45Zm1.039.781c-.012.02-.684.711-.684.711-.031-.078-.234-.039-.43-.039s-.218.063-.206.117c.02.13.085.032.085.157s-.093.078-.105.168c.012.105.148.078.066.156l-.777.761V7.84l1.45-2.277Zm0 0" style="stroke:none;fill-rule:evenodd;fill:#ef7d08;fill-opacity:1"/><path d="M309.8 268.421c-8.3 13.816-30.6 9.671-35.9 0-1.5-.395-.6-59.507-.6-59.507s-2.5-1.085-2.6-3.059c-.1-1.875 3.4-1.973 3.4-4.243s-3.6-1.382-3.7-3.849c0-2.17 3.9-1.974 3.7-3.947-.2-2.369-4.3-1.974-4.5-4.244 0-1.677 3-3.158 3.8-3.947h-2.8l-6.4.099c-4.6 0 0 .987 0 3.552 0 1.678-2.3 2.96-2.5 4.342-.1 1.58 3.2 2.566 3.3 4.441 0 1.678-3.3 1.777-3.2 3.355.2 2.468 3 3.06 2.9 4.639 0 1.579-3.6 2.17-3.7 3.355.2 2.368.6 60.79.6 60.79 5.7 29.802 38.8 37.302 48.2-1.777Zm21.9 0c8.3 13.816 30.6 9.671 35.8 0 1.6-.395.7-59.507.7-59.507s2.5-1.085 2.6-3.059c.1-1.875-3.2-1.973-3.2-4.243s3.4-1.382 3.4-3.849c0-2.17-3.5-1.974-3.3-4.145s3-1.973 3.1-4.243c.1-1.875-1.7-2.96-2.6-3.75h2.7l6.4.099c4.5 0 0 .987 0 3.552 0 1.678 2.3 2.96 2.5 4.342 0 1.58-3.2 2.566-3.3 4.441 0 1.678 3.3 1.777 3.2 3.355-.2 2.468-3 3.06-3 4.639.1 1.579 3.7 2.17 3.7 3.355l-.5 60.79C374.2 300 341 307.5 331.7 268.42Zm0 0" style="fill-rule:evenodd;fill:red;fill-opacity:1;stroke-width:2.5;stroke-linecap:butt;stroke-linejoin:round;stroke:#000;stroke-opacity:1;stroke-miterlimit:4" transform="scale(.03906 .03958)"/><path d="M301.7 295.56H339c.3-.297-8.4-12.928-18.6-11.942-11.5.296-19.3 11.941-18.7 11.941Zm118.9-.988h-51s6.6-3.75 8.4-7.4c3.3 1.874 2.4 3.65 9 3.946s12.9-7.5 19.2-7.204 14.4 10.954 14.4 10.757Zm-201 0h51s-6.6-3.75-8.4-7.4c-3.3 1.874-2.4 3.65-9 3.946s-13-7.5-19.2-7.204c-6.3.297-14.4 10.954-14.4 10.757Zm3.8-15.986 36.3.296s-2.3-4.935-2.6-11.053c-9.4-3.257-17 7.007-23.8 7.303-6.7.296-13.7-7.303-13.7-7.303Zm194 0-36.4.296s2.3-4.935 2.6-11.053c9.4-3.257 17 7.007 23.8 7.303 6.7.296 13.7-7.303 13.7-7.303Zm-106.4.394 18.4-.493s.3-5.625-9.3-5.625-8.8 6.414-9.1 6.118Zm-11.2-7.894c3.5-1.48 6.4-4.244 8.2-7.6l-12.6.297s-5.8 3.553-8.7 7.303Zm40.8 0c-3.5-1.48-6.4-4.244-8.2-7.6l12.6.297s5.8 3.553 8.7 7.303Zm0 0" style="fill-rule:evenodd;fill:#083d9c;fill-opacity:1;stroke-width:2.5;stroke-linecap:butt;stroke-linejoin:miter;stroke:#083d9c;stroke-opacity:1;stroke-miterlimit:4" transform="scale(.03906 .03958)"/><path d="M-1.562 14.25h28.125V19H-1.562Zm0-14.25h28.125v4.75H-1.562Zm0 0" style="stroke:none;fill-rule:evenodd;fill:#de2010;fill-opacity:1"/></svg>