<?xml version="1.0" encoding="UTF-8"?>
<svg xmlns="http://www.w3.org/2000/svg" xmlns:xlink="http://www.w3.org/1999/xlink" width="25px" height="px" viewBox="0 0 25 19" version="1.1">
<g id="surface1">
<path style=" stroke:none;fill-rule:evenodd;fill:rgb(0%,0%,0.392157%);fill-opacity:1;" d="M 0.0625 0 L 0.0429688 19 L 25.042969 19 Z M 0.0625 0 "/>
<path style=" stroke:none;fill-rule:evenodd;fill:rgb(100%,0%,0%);fill-opacity:1;" d="M 25.023438 19 L 25.042969 0 L 0.0429688 0 Z M 25.023438 19 "/>
<path style="fill-rule:nonzero;fill:rgb(100%,80.000001%,0%);fill-opacity:1;stroke-width:1.1;stroke-linecap:butt;stroke-linejoin:miter;stroke:rgb(100%,80.000001%,0%);stroke-opacity:1;stroke-miterlimit:4;" d="M 177.981782 53.983332 L 174.197811 53.804875 C 172.981535 50.994173 169.693084 50.012657 167.620909 51.217244 L 155.998712 50.994173 L 163.116182 54.117175 C 165.008167 58.980137 170.999455 60.006266 170.999455 60.006266 C 170.41384 68.795288 162.080094 58.890908 155.097767 63.887712 C 150.097519 66.921486 150.097519 70.401404 147.394683 76.201266 C 146.493737 77.807381 142.98005 82.001128 142.98005 82.001128 L 148.881243 81.51037 L 146.989257 84.008772 L 154.016632 82.982643 L 152.485025 84.410301 C 153.521112 84.588759 160.50344 82.714957 160.50344 82.714957 L 160.00792 84.990288 L 167.981287 82.090357 C 167.981287 82.090357 169.602989 83.384172 170.999455 84.008772 L 171.990495 79.993483 L 175.999702 81.019613 L 176.990742 77.004324 C 182.98203 84.990288 185.009157 93.020866 196.000692 94.983896 L 195.009652 91.013221 L 203.703776 94.983896 L 204.604722 93.288552 C 209.379733 96.679241 213.298846 96.590012 216.001682 96.991541 L 214.019602 91.994737 L 216.001682 93.020866 L 212.983515 84.990288 L 216.001682 86.016417 L 211.992475 79.993483 L 213.479035 79.011968 L 212.983515 75.978194 C 219.01985 77.985839 226.993217 81.019613 227.984257 87.979447 C 229.020345 98.999185 216.992722 101.988345 209.019355 101.00683 C 215.010642 106.003634 226.002177 103.99599 231.002425 98.999185 C 232.984505 96.991541 234.020592 94.002381 235.011632 91.013221 C 236.002672 94.002381 237.984752 98.01767 237.984752 101.988345 C 236.993712 111.000439 225.011137 113.989598 216.992722 115.015728 C 226.002177 120.012532 241.99396 113.989598 242.985 101.00683 C 242.985 89.987092 236.002672 84.990288 232.984505 79.993483 L 231.993465 74.59515 L 235.011632 75.978194 C 235.011632 75.978194 233.209741 72.721348 232.984505 72.007519 C 232.984505 72.007519 229.92129 63.486183 228.795108 61.612382 L 231.002425 62.013911 L 222.803821 51.708002 L 225.101232 51.48493 C 225.101232 51.48493 215.596257 43.989724 212.983515 43.008209 L 216.001682 41.982079 C 210.010395 38.992919 202.98302 41.000564 196.991732 45.015853 L 197.982772 41.982079 L 196.180881 42.205151 L 196.180881 38.680619 L 197.982772 36.00376 L 195.009652 35.022245 L 196.991732 29.980826 L 194.018612 31.006955 L 195.009652 26.010151 C 195.009652 26.010151 192.802336 26.991666 191.40587 26.902437 L 192.982525 23.511749 C 191.991485 21.994862 192.982525 19.005702 192.982525 19.005702 C 186.000197 19.987217 185.009157 21.013347 180.99995 26.991666 C 175.008662 38.011404 176.990742 43.008209 177.981782 53.983332 Z M 177.981782 53.983332 " transform="matrix(0.0867145,0,0,0.087556,0.0429688,0)"/>
<path style="fill-rule:evenodd;fill:rgb(100%,0%,0%);fill-opacity:1;stroke-width:1.4;stroke-linecap:butt;stroke-linejoin:miter;stroke:rgb(100%,0%,0%);stroke-opacity:1;stroke-miterlimit:4;" d="M 215.821493 70.401404 C 216.317013 71.29369 221.99297 74.015164 226.182366 76.379723 C 225.101232 71.784448 216.812533 70.802933 215.821493 70.401404 Z M 215.821493 70.401404 " transform="matrix(0.0867145,0,0,0.087556,0.0429688,0)"/>
<path style=" stroke:none;fill-rule:evenodd;fill:rgb(100%,100%,100%);fill-opacity:1;" d="M 6.835938 15.792969 L 6.28125 15.4375 L 5.539062 15.796875 L 5.707031 15.15625 L 5.140625 14.558594 L 5.792969 14.519531 L 6.183594 13.789062 L 6.421875 14.40625 L 7.230469 14.554688 L 6.722656 14.972656 Z M 8.25 12.667969 L 7.992188 12.546875 L 7.746094 12.691406 L 7.785156 12.40625 L 7.574219 12.210938 L 7.851562 12.160156 L 7.96875 11.898438 L 8.105469 12.152344 L 8.386719 12.183594 L 8.191406 12.390625 Z M 9.5 10.878906 L 8.933594 10.601562 L 8.390625 10.910156 L 8.480469 10.289062 L 8.019531 9.859375 L 8.632812 9.75 L 8.890625 9.179688 L 9.1875 9.734375 L 9.804688 9.804688 L 9.375 10.261719 Z M 6.929688 8.382812 L 6.265625 8.046875 L 5.621094 8.40625 L 5.730469 7.671875 L 5.191406 7.15625 L 5.921875 7.039062 L 6.234375 6.363281 L 6.574219 7.027344 L 7.308594 7.117188 L 6.789062 7.648438 Z M 4.554688 10.972656 L 3.890625 10.578125 L 3.226562 10.984375 L 3.394531 10.21875 L 2.804688 9.707031 L 3.574219 9.632812 L 3.875 8.910156 L 4.183594 9.628906 L 4.957031 9.695312 L 4.375 10.207031 Z M 4.554688 10.972656 "/>
</g>
</svg>
