<svg xmlns="http://www.w3.org/2000/svg" width="25" height="px" viewBox="0 0 25 19"><path d="m.063 0-.02 19h25Zm0 0" style="stroke:none;fill-rule:evenodd;fill:#000001;fill-opacity:1"/><path d="m25.023 19 .02-19h-25Zm0 0" style="stroke:none;fill-rule:evenodd;fill:red;fill-opacity:1"/><path d="m177.982 53.983-3.784-.178c-1.216-2.81-4.505-3.792-6.577-2.588l-11.622-.223 7.117 3.123c1.892 4.863 7.883 5.89 7.883 5.89-.585 8.788-8.919-1.116-15.901 3.88-5 3.034-5 6.514-7.703 12.314-.901 1.606-4.415 5.8-4.415 5.8l5.901-.49-1.892 2.498 7.028-1.026-1.532 1.427c1.036.179 8.018-1.695 8.018-1.695l-.495 2.275 7.973-2.9s1.622 1.294 3.018 1.919l.991-4.016L176 81.02l.99-4.016c5.992 7.986 8.02 16.017 19.01 17.98l-.99-3.97 8.694 3.97.9-1.695c4.776 3.39 8.695 3.301 11.398 3.703l-1.982-4.997 1.982 1.026-3.018-8.03 3.018 1.025-4.01-6.023 1.487-.981-.495-3.034c6.036 2.008 14.01 5.042 15 12.001 1.036 11.02-10.991 14.01-18.965 13.028 5.992 4.997 16.983 2.989 21.983-2.008 1.983-2.007 3.019-4.997 4.01-7.986.99 2.99 2.973 7.005 2.973 10.975-.991 9.012-12.974 12.002-20.992 13.028 9.01 4.997 25.001-1.026 25.992-14.01 0-11.019-6.982-16.016-10-21.013l-.992-5.398 3.019 1.383s-1.802-3.257-2.027-3.97c0 0-3.064-8.522-4.19-10.396l2.207.402-8.198-10.306 2.297-.223s-9.505-7.495-12.117-8.477l3.018-1.026c-5.992-2.99-13.019-.981-19.01 3.034l.99-3.034-1.801.223v-3.524l1.802-2.677-2.973-.982 1.982-5.041-2.973 1.026.99-4.997s-2.207.982-3.603.892l1.577-3.39c-.992-1.517 0-4.506 0-4.506-6.983.981-7.974 2.007-11.983 7.986-5.991 11.02-4.01 16.016-3.018 26.991Zm0 0" style="fill-rule:nonzero;fill:#fc0;fill-opacity:1;stroke-width:1.1;stroke-linecap:butt;stroke-linejoin:miter;stroke:#fc0;stroke-opacity:1;stroke-miterlimit:4" transform="matrix(.08671 0 0 .08756 .043 0)"/><path d="M215.821 70.401c.496.893 6.172 3.614 10.361 5.979-1.08-4.596-9.37-5.577-10.36-5.979Zm0 0" style="fill-rule:evenodd;fill:red;fill-opacity:1;stroke-width:1.4;stroke-linecap:butt;stroke-linejoin:miter;stroke:red;stroke-opacity:1;stroke-miterlimit:4" transform="matrix(.08671 0 0 .08756 .043 0)"/><path d="m6.836 15.793-.555-.355-.742.359.168-.64-.566-.598.652-.04.39-.73.239.617.808.149-.507.418Zm1.414-3.125-.258-.121-.246.144.04-.285-.212-.195.278-.05.117-.263.136.254.282.032-.196.207Zm1.25-1.79-.566-.276-.543.308.09-.62-.461-.43.613-.11.258-.57.297.554.617.07-.43.458ZM6.93 8.384l-.664-.336-.645.36.11-.735-.54-.516.73-.117.313-.676.34.664.735.09-.52.531Zm-2.375 2.59-.664-.395-.664.406.168-.765-.59-.512.77-.074.3-.723.309.719.773.066-.582.512Zm0 0" style="stroke:none;fill-rule:evenodd;fill:#fff;fill-opacity:1"/></svg>