<svg xmlns="http://www.w3.org/2000/svg" width="25" height="px" viewBox="0 0 25 19"><path d="M0 0h25v9.5H0Zm0 0" style="stroke:none;fill-rule:nonzero;fill:#0038a8;fill-opacity:1"/><path d="M0 9.5h25V19H0Zm0 0" style="stroke:none;fill-rule:nonzero;fill:#ce1126;fill-opacity:1"/><path d="M16.238 9.5 0 19V0" style="stroke:none;fill-rule:nonzero;fill:#fff;fill-opacity:1"/><path d="m1.043 1.68.559.496.648-.364-.29.692.548.516-.742-.063-.317.68-.168-.73-.734-.098.637-.395ZM13.691 8.5l.016.75.703.25-.703.246-.016.75-.449-.598-.71.22.421-.618-.422-.617.711.219ZM1.453 15.363l.313.68.742-.063-.543.516.289.692-.649-.36-.562.488.14-.738-.636-.387.738-.097Zm4.461-9.855-.242.242.121 1.863-.117.012-.223-1.7-.2.2.298 1.52a1.9 1.9 0 0 0-.672.28L4.03 6.642H3.75L4.781 8l-.093.078-1.215-1.406h-.344v.351L4.512 8.25l-.078.098-1.34-1.04v.282l1.27.855a1.9 1.9 0 0 0-.278.684l-1.496-.3-.2.194 1.676.227a1 1 0 0 0-.011.125l-1.836-.121-.242.246.242.246 1.836-.125.011.125-1.675.227.195.195 1.5-.3c.047.241.14.476.277.683l-1.27.855v.285l1.34-1.039.079.094-1.383 1.227v.351h.348l1.21-1.402.098.078-1.035 1.36h.281l.848-1.29q.304.205.672.282l-.297 1.52.195.198.223-1.699q.057.012.121.012l-.117 1.863.238.242.246-.242-.12-1.863.116-.012.223 1.703.2-.203-.298-1.52c.239-.046.469-.144.672-.28l.848 1.288h.281L7.051 11l.094-.078 1.214 1.402h.344v-.351L7.32 10.746l.078-.094 1.34 1.04v-.286l-1.27-.855c.137-.207.227-.434.278-.684l1.496.301.2-.195-1.676-.227a.7.7 0 0 0 .011-.125l1.836.121.242-.242-.242-.246-1.836.121-.011-.121 1.675-.227-.195-.195-1.5.297a1.9 1.9 0 0 0-.277-.684l1.27-.855v-.281l-1.34 1.039-.079-.094 1.383-1.227v-.355H8.36L7.15 8.078 7.05 8l1.031-1.36h-.281l-.848 1.286a1.9 1.9 0 0 0-.672-.281l.297-1.516-.195-.2-.223 1.696-.12-.012.116-1.863Zm0 0" style="stroke:none;fill-rule:nonzero;fill:#fcd116;fill-opacity:1"/></svg>