<svg xmlns="http://www.w3.org/2000/svg" width="25" height="px" viewBox="0 0 25 19"><defs><clipPath id="a"><path d="M0 0h24.996v19H0Zm0 0"/></clipPath></defs><g clip-path="url(#a)"><path d="M0 0h25v19H0z" style="fill:#0c590b;fill-opacity:1;stroke:none"/></g><path d="M-1.566 0h7.05v19h-7.05ZM16.7 8.363l-1.145-.242-.602 1.012-.121-1.172-1.137-.27 1.063-.48-.098-1.176.781.875 1.075-.46-.582 1.023.77.89Zm0 0" style="stroke:none;fill-rule:evenodd;fill:#fff;fill-opacity:1"/><path d="M17.125 11.355a4.45 4.45 0 0 1-2.5 2.352 4.37 4.37 0 0 1-3.406-.148 4.52 4.52 0 0 1-2.32-2.547 4.62 4.62 0 0 1 .14-3.469 4.4 4.4 0 0 1 2.617-2.387 6 6 0 0 0-.433.407 4.21 4.21 0 0 0 .191 5.789 4.077 4.077 0 0 0 5.715.003Zm0 0" style="stroke:none;fill-rule:evenodd;fill:#fff;fill-opacity:1"/></svg>