<?xml version="1.0" encoding="UTF-8"?>
<svg xmlns="http://www.w3.org/2000/svg" xmlns:xlink="http://www.w3.org/1999/xlink" width="25px" height="px" viewBox="0 0 25 19" version="1.1">
<g id="surface1">
<rect x="0" y="0" width="25" height="19" style="fill:rgb(0%,14.117648%,49.019608%);fill-opacity:1;stroke:none;"/>
<path style=" stroke:none;fill-rule:nonzero;fill:rgb(0.392157%,12.941177%,41.176471%);fill-opacity:1;" d="M 0 0 L 12.5 0 L 12.5 9.5 L 0 9.5 Z M 0 0 "/>
<path style=" stroke:none;fill-rule:nonzero;fill:rgb(100%,100%,100%);fill-opacity:1;" d="M 1.464844 0 L 6.230469 3.582031 L 10.976562 0 L 12.5 0 L 12.5 1.226562 L 7.8125 4.769531 L 12.5 8.292969 L 12.5 9.5 L 10.9375 9.5 L 6.25 5.957031 L 1.582031 9.5 L 0 9.5 L 0 8.3125 L 4.667969 4.789062 L 0 1.265625 L 0 0 Z M 1.464844 0 "/>
<path style=" stroke:none;fill-rule:nonzero;fill:rgb(78.431374%,6.27451%,18.039216%);fill-opacity:1;" d="M 8.28125 5.5625 L 12.5 8.707031 L 12.5 9.5 L 7.207031 5.5625 Z M 4.6875 5.957031 L 4.804688 6.648438 L 1.054688 9.5 L 0 9.5 Z M 12.5 0 L 12.5 0.0585938 L 7.636719 3.78125 L 7.675781 2.910156 L 11.523438 0 Z M 0 0 L 4.667969 3.484375 L 3.496094 3.484375 L 0 0.832031 Z M 0 0 "/>
<path style=" stroke:none;fill-rule:nonzero;fill:rgb(100%,100%,100%);fill-opacity:1;" d="M 4.707031 0 L 4.707031 9.5 L 7.832031 9.5 L 7.832031 0 Z M 0 3.167969 L 0 6.332031 L 12.5 6.332031 L 12.5 3.167969 Z M 0 3.167969 "/>
<path style=" stroke:none;fill-rule:nonzero;fill:rgb(78.431374%,6.27451%,18.039216%);fill-opacity:1;" d="M 0 3.820312 L 0 5.71875 L 12.5 5.71875 L 12.5 3.820312 Z M 5.332031 0 L 5.332031 9.5 L 7.207031 9.5 L 7.207031 0 Z M 5.332031 0 "/>
<path style="fill-rule:nonzero;fill:rgb(96.862745%,87.843138%,9.019608%);fill-opacity:1;stroke-width:0.4;stroke-linecap:butt;stroke-linejoin:miter;stroke:rgb(0%,0%,0%);stroke-opacity:1;stroke-miterlimit:4;" d="M 410.1 252.335526 C 401.1 259.440789 394.5 269.111842 391.1 280.065789 C 385.4 307.401316 377.8 313.519737 366.1 307.598684 C 366.1 322.302632 379 323.388158 384.6 314.901316 C 384.6 328.618421 389.6 340.460526 400.8 350.723684 C 405.6 354.967105 406.5 352.105263 404.2 347.269737 C 402 342.631579 402 327.335526 397.5 318.453947 C 404.7 323.585526 415.3 320.723684 414.5 306.513158 C 405.2 311.940789 396 311.743421 395 298.815789 C 393.9 283.815789 399.7 261.809211 410.1 252.335526 Z M 399.1 143.684211 C 399.8 138.157895 398.6 132.730263 394.6 129.177632 C 387 122.467105 379.5 124.736842 373.9 130.164474 C 365.6 125.625 361.1 141.611842 351.7 138.947368 C 353.2 144.078947 355.7 146.348684 360.5 144.473684 C 355.5 149.013158 360.5 154.539474 354.6 159.868421 C 365.2 163.322368 370.8 157.401316 370.4 147.236842 C 372.3 148.914474 374.8 149.901316 377.4 149.703947 C 380 149.605263 382.4 148.421053 384.1 146.546053 C 378.5 144.671053 378.5 139.835526 380.7 135.296053 C 384.1 128.486842 400 128.782895 399.1 143.684211 Z M 399.1 143.684211 " transform="matrix(0.0390625,0,0,0.0395833,0,0)"/>
<path style="fill-rule:nonzero;fill:rgb(20%,45.09804%,12.941177%);fill-opacity:1;stroke-width:0.4;stroke-linecap:butt;stroke-linejoin:miter;stroke:rgb(0%,0%,0%);stroke-opacity:1;stroke-miterlimit:4;" d="M 423.6 222.138158 C 411.6 228.453947 389.8 225.789474 387.7 210.098684 C 385.7 194.605263 400.8 187.598684 404.9 185.625 C 411.2 182.368421 416.2 188.092105 414.1 194.605263 C 421.1 192.236842 422.7 184.046053 419.3 179.309211 C 428.6 180 437.1 172.993421 440.7 163.125 C 437.5 166.085526 428.7 164.111842 421.4 163.618421 C 423.6 161.052632 423.6 156.315789 422.9 153.848684 C 415.3 161.743421 404.2 158.092105 389.6 180.789474 C 393 168.453947 396.2 156.118421 399.2 143.684211 C 400 128.684211 384.2 128.486842 380.8 135.296053 C 384.5 139.539474 382.5 144.276316 381.2 151.776316 C 379.6 160.460526 376.2 180.789474 373.3 187.598684 C 372.4 177.039474 365.4 176.348684 364.1 171.118421 C 362.1 172.5 360.9 176.052632 361.4 178.618421 C 358.9 175.855263 350.3 179.309211 347.1 175.164474 C 343.8 181.875 349.1 188.684211 354.8 191.743421 C 351.5 191.940789 350.8 195.789474 347.1 195.789474 C 352 201.513158 357 203.782895 362.7 204.177632 C 368.5 204.572368 372.7 206.842105 376.2 213.848684 C 381.9 225.098684 403.4 232.401316 423.6 222.138158 Z M 423.6 222.138158 " transform="matrix(0.0390625,0,0,0.0395833,0,0)"/>
<path style="fill-rule:nonzero;fill:rgb(96.862745%,87.843138%,9.019608%);fill-opacity:1;stroke-width:0.4;stroke-linecap:butt;stroke-linejoin:miter;stroke:rgb(0%,0%,0%);stroke-opacity:1;stroke-miterlimit:4;" d="M 453.4 208.421053 C 446.6 227.072368 428.1 240.394737 419.8 242.368421 C 405.6 245.921053 376.6 260.032895 368.8 267.236842 C 367.7 266.940789 366.6 266.546053 365.6 265.855263 C 361.8 263.190789 358.6 254.407895 365.4 246.907895 C 386.6 227.072368 409.4 235.657895 423.6 222.138158 C 411.6 228.355263 389.8 225.690789 387.8 210.098684 C 407.6 215.230263 428.5 209.013158 442.3 193.914474 C 446.4 198.355263 450.1 203.190789 453.3 208.421053 Z M 453.4 208.421053 " transform="matrix(0.0390625,0,0,0.0395833,0,0)"/>
<path style="fill-rule:nonzero;fill:rgb(20%,45.09804%,12.941177%);fill-opacity:1;stroke-width:0.4;stroke-linecap:butt;stroke-linejoin:miter;stroke:rgb(0%,0%,0%);stroke-opacity:1;stroke-miterlimit:4;" d="M 410.1 252.335526 C 399.4 261.315789 393.9 283.717105 395 298.815789 C 395.3 302.960526 396.4 305.822368 398.3 307.598684 C 399.1 299.013158 405 276.907895 420.3 267.039474 C 433.1 258.651316 453.2 240 460.6 218.486842 C 459.2 214.539474 456.4 211.282895 452.7 209.309211 C 445.3 229.539474 425.6 239.210526 410.1 252.335526 Z M 410.1 252.335526 " transform="matrix(0.0390625,0,0,0.0395833,0,0)"/>
<path style="fill-rule:nonzero;fill:rgb(19.215687%,42.745098%,22.745098%);fill-opacity:1;stroke-width:0.4;stroke-linecap:butt;stroke-linejoin:miter;stroke:rgb(0%,0%,0%);stroke-opacity:1;stroke-miterlimit:4;" d="M 446.5 199.736842 C 441.2 207.138158 434 212.861842 425.6 216.513158 C 427.2 214.539474 428.1 212.171053 428.1 209.703947 C 414.9 213.453947 401 213.651316 387.7 210.197368 C 407.5 215.328947 428.5 209.111842 442.3 194.013158 C 444 195.690789 445.4 197.565789 446.5 199.736842 Z M 446.5 199.736842 " transform="matrix(0.0390625,0,0,0.0395833,0,0)"/>
<path style="fill-rule:nonzero;fill:rgb(20%,45.09804%,12.941177%);fill-opacity:1;stroke-width:0.4;stroke-linecap:butt;stroke-linejoin:miter;stroke:rgb(0%,0%,0%);stroke-opacity:1;stroke-miterlimit:4;" d="M 365.4 247.006579 C 348.2 262.993421 359.6 277.203947 366.4 280.263158 C 364.5 291.611842 375.1 290.328947 374.9 299.703947 C 379.2 297.335526 380.3 290.723684 379.6 285.493421 C 385.1 291.414474 398.8 284.802632 401.7 295.657895 C 403.6 283.717105 394.3 271.677632 382.8 272.861842 C 387.6 268.618421 384.8 261.611842 380.3 259.835526 C 379.4 268.618421 369.5 268.618421 365.7 265.756579 C 361.8 263.190789 358.7 254.407895 365.4 246.907895 Z M 365.4 247.006579 " transform="matrix(0.0390625,0,0,0.0395833,0,0)"/>
<path style="fill-rule:nonzero;fill:rgb(96.862745%,87.843138%,9.019608%);fill-opacity:1;stroke-width:0.4;stroke-linecap:butt;stroke-linejoin:miter;stroke:rgb(0%,0%,0%);stroke-opacity:1;stroke-miterlimit:4;" d="M 402.7 349.638158 C 400.9 350.625 401 353.092105 402.2 354.572368 C 404.5 357.828947 400.5 365.032895 408.2 366.513158 C 410.4 367.006579 412.2 365.526316 413 362.960526 C 415.4 355.855263 407.8 355.065789 407.1 351.710526 C 406.5 348.256579 404.3 348.651316 402.7 349.638158 Z M 402.7 349.638158 " transform="matrix(0.0390625,0,0,0.0395833,0,0)"/>
<path style="fill-rule:nonzero;fill:rgb(96.862745%,87.843138%,9.019608%);fill-opacity:1;stroke-width:0.4;stroke-linecap:butt;stroke-linejoin:miter;stroke:rgb(0%,0%,0%);stroke-opacity:1;stroke-miterlimit:4;" d="M 409.2 362.861842 C 406.7 364.144737 404.4 365.723684 405.5 373.914474 C 405.9 377.171053 405.7 385.263158 402.7 385.361842 C 404.5 386.447368 408.4 387.434211 410 385.164474 C 411.5 387.828947 415 387.039474 416.3 383.881579 C 418.1 385.263158 420.6 382.894737 420.6 380.723684 C 422.1 381.710526 425.3 380.328947 424.5 375.394737 C 426.5 376.085526 428.9 374.703947 429.8 373.519737 C 427 372.927632 419.8 369.078947 418.2 366.118421 C 416.5 362.960526 412.2 361.480263 409.2 362.861842 Z M 409.2 362.861842 " transform="matrix(0.0390625,0,0,0.0395833,0,0)"/>
<path style="fill:none;stroke-width:0.4;stroke-linecap:butt;stroke-linejoin:miter;stroke:rgb(0%,0%,0%);stroke-opacity:1;stroke-miterlimit:4;" d="M 370 134.703947 C 371.2 133.125 372.5 131.546053 374 130.065789 M 413 164.605263 C 415.1 163.519737 417.9 163.223684 421.4 163.618421 M 410 385.164474 C 409.2 384.078947 408.9 379.440789 409.4 376.480263 M 416.3 383.881579 C 415 382.894737 412.7 379.638158 412.3 376.776316 M 420.6 380.723684 C 417.7 378.453947 415.5 375.296053 414.3 371.842105 M 424.5 375.394737 C 422.6 375 416.9 371.348684 414.5 367.401316 " transform="matrix(0.0390625,0,0,0.0395833,0,0)"/>
<path style="fill-rule:nonzero;fill:rgb(96.862745%,87.843138%,9.019608%);fill-opacity:1;stroke-width:0.4;stroke-linecap:butt;stroke-linejoin:miter;stroke:rgb(0%,0%,0%);stroke-opacity:1;stroke-miterlimit:4;" d="M 528.5 247.203947 C 556.2 270.394737 558 288.947368 553.8 299.703947 C 551.5 289.638158 540 273.848684 528 269.703947 Z M 528.5 247.203947 " transform="matrix(0.0390625,0,0,0.0395833,0,0)"/>
<path style="fill-rule:nonzero;fill:rgb(20%,45.09804%,12.941177%);fill-opacity:1;stroke-width:0.4;stroke-linecap:butt;stroke-linejoin:miter;stroke:rgb(0%,0%,0%);stroke-opacity:1;stroke-miterlimit:4;" d="M 478.9 233.980263 L 530.3 233.980263 L 530.3 294.967105 C 530.3 346.875 501.5 377.467105 472.1 393.848684 C 435.4 374.703947 412.9 336.315789 414 294.967105 L 414 233.980263 L 450 233.980263 C 450 237.236842 450.4 241.973684 454 246.710526 C 462.6 245.921053 472.2 239.506579 478.9 234.078947 Z M 478.9 233.980263 " transform="matrix(0.0390625,0,0,0.0395833,0,0)"/>
<path style="fill-rule:nonzero;fill:rgb(0%,43.137255%,78.039217%);fill-opacity:1;stroke-width:0.4;stroke-linecap:butt;stroke-linejoin:miter;stroke:rgb(0%,0%,0%);stroke-opacity:1;stroke-miterlimit:4;" d="M 530.3 233.980263 L 530.3 294.967105 C 530.2 310.559211 527.8 324.375 523.3 336.315789 L 472 242.565789 L 421 336.315789 C 416.3 324.276316 414 310.559211 413.9 294.967105 L 413.9 233.980263 Z M 530.3 233.980263 " transform="matrix(0.0390625,0,0,0.0395833,0,0)"/>
<path style=" stroke:none;fill-rule:nonzero;fill:rgb(96.862745%,87.843138%,9.019608%);fill-opacity:1;" d="M 20.5 13.136719 C 20.457031 13.273438 20.40625 13.402344 20.351562 13.535156 L 18.4375 9.933594 L 16.535156 13.539062 C 16.484375 13.425781 16.421875 13.25 16.386719 13.140625 L 18.445312 9.277344 Z M 20.5 13.136719 "/>
<path style="fill-rule:nonzero;fill:rgb(96.862745%,87.843138%,9.019608%);fill-opacity:1;stroke-width:0.4;stroke-linecap:butt;stroke-linejoin:miter;stroke:rgb(0%,0%,0%);stroke-opacity:1;stroke-miterlimit:4;" d="M 495.3 365.328947 L 500.3 367.598684 C 502.9 361.381579 503.6 354.473684 502.5 347.763158 C 499.6 355.164474 489.7 354.967105 487 359.506579 C 488.7 360.394737 490.2 361.381579 491.5 362.368421 C 488.1 365.822368 480.2 371.447368 475.7 372.828947 L 475.7 324.375 C 475.7 321.019737 474.5 318.157895 474.5 315.394737 L 474.5 305.427632 C 474.5 303.059211 474.1 299.802632 472.1 299.802632 C 470.1 299.802632 469.6 303.059211 469.6 305.427632 L 469.6 315.394737 C 469.6 318.157895 468.5 321.414474 468.5 324.375 L 468.5 372.828947 C 466 365.625 456.3 367.993421 451.8 360.789474 C 453.6 360.394737 455.4 360.296053 457.2 360.592105 C 453.8 349.144737 444.5 348.157895 442.8 344.802632 C 442.8 349.638158 440.8 360.592105 443.9 365.427632 C 444.6 364.440789 445.6 363.651316 446.9 362.861842 C 450.8 371.151316 468 371.151316 472.1 384.967105 C 475.4 380.032895 487.1 374.013158 495.3 365.328947 Z M 495.3 365.328947 " transform="matrix(0.0390625,0,0,0.0395833,0,0)"/>
<path style="fill-rule:nonzero;fill:rgb(96.862745%,87.843138%,9.019608%);fill-opacity:1;stroke-width:0.4;stroke-linecap:butt;stroke-linejoin:miter;stroke:rgb(0%,0%,0%);stroke-opacity:1;stroke-miterlimit:4;" d="M 472.1 324.967105 C 475.9 324.967105 488.1 323.782895 492.5 323.782895 C 493.7 323.782895 494.6 322.006579 494.6 319.934211 C 494.6 317.763158 493.7 316.085526 492.6 316.085526 C 488.1 316.085526 476 314.901316 472.1 314.901316 C 468.2 314.901316 456.1 316.085526 451.7 316.085526 C 450.5 316.085526 449.6 317.763158 449.6 319.934211 C 449.6 322.006579 450.6 323.782895 451.6 323.782895 C 456.1 323.782895 468.3 324.967105 472.1 324.967105 Z M 469.6 305.230263 C 468.8 304.539474 467.8 304.243421 466.6 304.243421 C 464 304.243421 461.9 306.019737 461.9 308.289474 C 461.9 310.657895 464 312.631579 466.6 312.631579 C 469.1 312.631579 471.2 310.559211 471.2 308.289474 C 471.2 306.513158 473.8 306.513158 473.8 308.289474 C 473.8 312.039474 470.6 315 466.6 315 C 462.6 315 459.3 312.039474 459.3 308.289474 C 459.3 304.736842 462.6 301.677632 466.6 301.677632 C 467.7 301.776316 468.9 301.973684 469.9 302.467105 C 469.8 303.157895 469.7 304.046053 469.6 305.230263 Z M 469.6 305.230263 " transform="matrix(0.0390625,0,0,0.0395833,0,0)"/>
<path style="fill-rule:nonzero;fill:rgb(96.862745%,87.843138%,9.019608%);fill-opacity:1;stroke-width:0.4;stroke-linecap:butt;stroke-linejoin:miter;stroke:rgb(0%,0%,0%);stroke-opacity:1;stroke-miterlimit:4;" d="M 451.7 323.782895 C 452.8 323.782895 453.7 322.006579 453.7 319.934211 C 453.7 317.763158 452.8 316.085526 451.7 316.085526 " transform="matrix(0.0390625,0,0,0.0395833,0,0)"/>
<path style="fill-rule:nonzero;fill:rgb(96.862745%,87.843138%,9.019608%);fill-opacity:1;stroke-width:0.4;stroke-linecap:butt;stroke-linejoin:miter;stroke:rgb(0%,0%,0%);stroke-opacity:1;stroke-miterlimit:4;" d="M 453.4 323.782895 C 454.5 323.782895 455.4 322.006579 455.4 319.934211 C 455.4 317.763158 454.5 316.085526 453.4 316.085526 M 464.5 324.473684 C 465.9 324.473684 467 322.5 467 319.934211 C 467 317.269737 466 315.296053 464.5 315.296053 M 467.1 324.671053 C 468.6 324.671053 469.7 322.598684 469.7 319.934211 C 469.7 317.171053 468.6 315.098684 467.1 315.098684 M 475.8 324.769737 C 477.3 324.769737 478.4 322.598684 478.4 319.934211 C 478.4 317.171053 477.2 315 475.8 315 M 478.5 324.572368 C 479.9 324.572368 481.1 322.598684 481.1 319.934211 C 481.1 317.269737 479.9 315.197368 478.5 315.197368 M 490.6 323.782895 C 491.8 323.782895 492.7 322.105263 492.7 319.934211 C 492.7 317.664474 491.8 315.888158 490.7 315.888158 M 447 362.861842 C 448.3 361.973684 449.9 361.282895 451.8 360.888158 M 492.9 363.256579 L 491.5 362.269737 M 495.3 365.328947 C 498.6 361.875 501.1 358.026316 502.6 353.585526 " transform="matrix(0.0390625,0,0,0.0395833,0,0)"/>
<path style="fill-rule:nonzero;fill:rgb(100%,100%,100%);fill-opacity:1;stroke-width:0.4;stroke-linecap:butt;stroke-linejoin:miter;stroke:rgb(0%,0%,0%);stroke-opacity:1;stroke-miterlimit:4;" d="M 461.8 277.203947 C 461.8 276.019737 462.7 275.625 463.8 274.835526 C 465 273.848684 465.5 273.355263 466.7 273.355263 L 481.5 273.355263 C 482.4 273.355263 482.9 273.75 482.8 274.736842 L 482.8 294.671053 C 482.9 295.657895 482.5 296.052632 481.5 296.052632 L 461.8 296.052632 L 461.8 276.907895 " transform="matrix(0.0390625,0,0,0.0395833,0,0)"/>
<path style="fill-rule:nonzero;fill:rgb(89.803922%,89.803922%,89.803922%);fill-opacity:1;stroke-width:0.4;stroke-linecap:butt;stroke-linejoin:miter;stroke:rgb(0%,0%,0%);stroke-opacity:1;stroke-miterlimit:4;" d="M 477.8 297.828947 C 479.8 297.828947 479.4 297.828947 480.8 296.447368 C 482.2 294.967105 482.1 295.065789 482.1 293.782895 L 482.1 275.427632 C 482.2 274.440789 481.7 274.046053 480.8 274.243421 L 467.1 274.243421 C 466.1 274.243421 465.6 274.638158 464.4 275.526316 C 463.4 276.315789 462.6 276.710526 462.6 277.697368 L 462.6 297.828947 Z M 477.8 297.828947 " transform="matrix(0.0390625,0,0,0.0395833,0,0)"/>
<path style="fill-rule:nonzero;fill:rgb(100%,100%,100%);fill-opacity:1;stroke-width:0.4;stroke-linecap:butt;stroke-linejoin:miter;stroke:rgb(0%,0%,0%);stroke-opacity:1;stroke-miterlimit:4;" d="M 479.3 297.434211 C 479.4 298.322368 478.9 298.815789 477.9 298.717105 L 463.1 298.717105 C 462.1 298.815789 461.7 298.322368 461.8 297.434211 L 461.8 277.302632 C 461.7 276.414474 462.1 275.921053 463.1 276.019737 L 477.9 276.019737 C 478.9 275.921053 479.4 276.414474 479.3 277.302632 Z M 479.3 297.434211 " transform="matrix(0.0390625,0,0,0.0395833,0,0)"/>
<path style="fill-rule:nonzero;fill:rgb(58.823532%,52.941179%,49.019608%);fill-opacity:1;stroke-width:0.4;stroke-linecap:butt;stroke-linejoin:miter;stroke:rgb(0%,0%,0%);stroke-opacity:1;stroke-miterlimit:4;" d="M 508 222.335526 C 510.8 225.493421 511.8 229.835526 510.2 234.078947 L 506 234.078947 C 507.8 228.552632 506.7 223.519737 499 222.828947 C 487.6 221.842105 474.2 244.046053 454.1 246.710526 C 448.3 239.703947 448.6 226.381579 456.1 220.065789 C 452.2 209.407895 446.2 199.736842 438.4 191.546053 C 434.9 190.953947 431.3 190.657895 427.7 190.756579 C 430.7 184.440789 439 177.828947 445.8 175.065789 L 449.2 170.625 C 449.9 161.940789 491.2 165.888158 499.9 171.315789 C 499.9 181.085526 503.8 213.453947 508.1 222.335526 Z M 508 222.335526 " transform="matrix(0.0390625,0,0,0.0395833,0,0)"/>
<path style=" stroke:none;fill-rule:nonzero;fill:rgb(0%,0%,0%);fill-opacity:1;" d="M 17.890625 9.03125 C 17.851562 8.4375 17.613281 7.949219 17.277344 7.617188 C 17.519531 7.671875 17.769531 7.628906 17.980469 7.496094 C 18.273438 7.300781 19.035156 6.957031 19.308594 7.105469 C 19.332031 7.15625 19.347656 7.261719 19.328125 7.339844 C 19.261719 7.160156 18.53125 7.433594 18.324219 7.519531 C 18.128906 7.613281 18.039062 7.738281 18.109375 8.019531 C 17.992188 7.921875 18.03125 7.828125 17.914062 7.757812 C 17.960938 7.875 18 8.082031 18.015625 8.253906 C 17.96875 8.132812 17.890625 7.875 17.71875 7.71875 C 17.898438 8.152344 17.976562 8.625 17.9375 9.097656 C 18.054688 9.097656 18.320312 8.976562 18.421875 8.898438 C 18.332031 9.027344 18.0625 9.125 17.894531 9.160156 C 17.808594 9.300781 17.765625 9.460938 17.765625 9.625 C 17.753906 9.460938 17.804688 9.0625 17.886719 9.03125 Z M 19.84375 8.800781 C 19.695312 8.632812 19.425781 8.546875 19.078125 8.640625 C 19.164062 8.597656 19.25 8.570312 19.34375 8.550781 C 19.332031 8.457031 19.25 8.054688 19.234375 7.957031 L 19.332031 7.917969 C 19.382812 8.15625 19.441406 8.433594 19.480469 8.550781 C 19.511719 8.554688 19.582031 8.570312 19.644531 8.601562 C 19.617188 8.507812 19.46875 7.832031 19.472656 7.761719 L 19.605469 7.691406 C 19.644531 8.066406 19.722656 8.4375 19.839844 8.800781 Z M 19.84375 8.800781 "/>
<path style="fill-rule:nonzero;fill:rgb(58.823532%,52.941179%,49.019608%);fill-opacity:1;stroke-width:0.4;stroke-linecap:butt;stroke-linejoin:miter;stroke:rgb(0%,0%,0%);stroke-opacity:1;stroke-miterlimit:4;" d="M 506 233.980263 C 507.7 228.651316 506.6 223.519737 499 222.828947 C 493 222.335526 486.6 228.059211 479 234.078947 Z M 456.1 185.526316 C 451.1 185.822368 446.1 185.328947 441.3 184.046053 C 441.5 183.059211 441.9 181.973684 442.4 180.789474 C 439.3 182.763158 436.5 185.032895 433.9 187.598684 C 439.3 188.782895 450.5 189.276316 456.1 185.526316 Z M 456.1 185.526316 " transform="matrix(0.0390625,0,0,0.0395833,0,0)"/>
<path style="fill:none;stroke-width:0.4;stroke-linecap:butt;stroke-linejoin:miter;stroke:rgb(0%,0%,0%);stroke-opacity:1;stroke-miterlimit:4;" d="M 456 219.967105 C 457.3 223.717105 458 227.171053 458.1 230.328947 M 445.7 175.065789 C 443.7 178.125 441.9 181.282895 441.3 184.144737 C 446.1 185.328947 451.1 185.822368 456.1 185.526316 " transform="matrix(0.0390625,0,0,0.0395833,0,0)"/>
<path style="fill:none;stroke-width:0.4;stroke-linecap:butt;stroke-linejoin:miter;stroke:rgb(0%,0%,0%);stroke-opacity:1;stroke-miterlimit:4;" d="M 438.4 191.546053 C 439.8 191.743421 441.1 192.039474 442.4 192.434211 C 446.4 193.519737 454.7 193.519737 460.4 189.375 C 466.1 185.328947 481.4 172.697368 498.7 171.414474 " transform="matrix(0.0390625,0,0,0.0395833,0,0)"/>
<path style="fill:none;stroke-width:0.4;stroke-linecap:butt;stroke-linejoin:miter;stroke:rgb(0%,0%,0%);stroke-opacity:1;stroke-miterlimit:4;" d="M 433.9 187.598684 C 439.3 188.782895 450.5 189.276316 456.1 185.526316 C 467.3 177.138158 480.6 172.006579 494.5 170.723684 " transform="matrix(0.0390625,0,0,0.0395833,0,0)"/>
<path style="fill-rule:nonzero;fill:rgb(20%,45.09804%,12.941177%);fill-opacity:1;stroke-width:0.4;stroke-linecap:butt;stroke-linejoin:miter;stroke:rgb(0%,0%,0%);stroke-opacity:1;stroke-miterlimit:4;" d="M 528.5 247.203947 C 547.5 260.230263 561.5 272.861842 565.5 293.190789 C 569.5 313.519737 577.2 318.947368 586.7 313.519737 C 584.5 325.164474 572.7 326.546053 562.8 317.467105 C 563.8 331.085526 558.3 347.269737 544.3 353.190789 C 543.4 345.098684 548.8 338.585526 547.3 331.973684 C 546.6 329.013158 546.3 322.302632 550.2 319.144737 C 542.7 321.611842 531 316.875 529.9 305.822368 C 538.5 309.769737 549.5 310.460526 553.8 299.703947 C 558.1 288.947368 556.2 270.394737 528.5 247.203947 Z M 552.4 141.611842 C 558.3 126.315789 573.6 127.894737 578.8 134.407895 C 593.9 125.822368 596 145.164474 608.8 141.414474 C 608.6 144.967105 604.3 148.421053 599.6 148.125 C 604.6 152.565789 597.6 159.375 608.1 163.519737 C 599.1 167.960526 586.5 163.322368 583.1 150.789474 C 580.1 156.710526 569.6 156.710526 565.3 151.973684 C 574.5 149.506579 573.9 141.019737 568.7 137.467105 C 563.4 134.111842 554.2 135.493421 552.4 141.611842 Z M 506.7 175.361842 C 511 188.684211 518.7 200.723684 529 210.197368 C 539.8 220.164474 556.1 217.598684 565.3 208.223684 C 565.5 226.973684 545.9 228.453947 535.1 222.631579 C 530.3 219.967105 526.4 221.348684 531 225.592105 C 538 231.809211 553.3 236.644737 571.4 240.394737 C 602.9 247.203947 591.7 272.171053 582.4 271.973684 C 585.1 271.973684 587.3 269.111842 583.4 265.657895 C 556 240.986842 500.4 250.657895 501.2 195.690789 C 495.4 210.197368 471.2 204.473684 482.5 187.401316 C 486.1 190.263158 492.5 190.460526 494.2 186.019737 C 495.6 182.467105 494.7 176.447368 488.4 171.118421 C 489.4 171.118421 491.7 171.118421 491.4 168.453947 C 491.7 170.131579 493.1 172.302632 496.7 171.513158 C 497.7 173.190789 498.7 174.177632 500.2 173.585526 C 500.5 173.585526 501.3 173.092105 501 171.513158 C 501.2 174.473684 504.8 175.559211 506.7 175.361842 Z M 506.7 175.361842 " transform="matrix(0.0390625,0,0,0.0395833,0,0)"/>
<path style="fill-rule:nonzero;fill:rgb(96.862745%,87.843138%,9.019608%);fill-opacity:1;stroke-width:0.4;stroke-linecap:butt;stroke-linejoin:miter;stroke:rgb(0%,0%,0%);stroke-opacity:1;stroke-miterlimit:4;" d="M 535 222.631579 C 548.1 231.118421 563 231.118421 576.5 215.427632 C 580.8 210.394737 587.5 206.052632 592.3 205.657895 C 597.1 205.164474 596.8 200.723684 600.4 199.736842 C 598.2 199.144737 597.3 196.381579 593.9 196.677632 C 602.4 193.815789 599.9 187.006579 604 183.651316 C 600.6 185.032895 595.4 180 590.5 186.414474 C 591.8 183.355263 590 180 588.8 178.618421 C 589.3 181.973684 582.2 182.565789 580.8 191.151316 C 580.1 195.986842 577.4 195.789474 577 188.289474 C 576.7 182.861842 574 167.763158 571 160.065789 C 567.8 152.467105 567 141.907895 571.3 140.427632 C 570.7 139.243421 569.8 138.355263 568.7 137.565789 C 563.4 134.210526 554.2 135.592105 552.4 141.611842 C 546.6 157.006579 563 165.789474 561.7 182.467105 C 559.2 170.131579 539.1 166.875 539.3 154.736842 C 532.8 157.697368 533.7 163.125 536.2 167.368421 C 532.2 161.052632 522.9 171.414474 515 162.927632 C 514 174.177632 524 178.421053 532.1 178.914474 C 528.1 186.118421 533.5 192.236842 538.9 194.210526 C 539.1 181.578947 565 186.710526 565.3 208.421053 C 565.5 226.875 545.6 228.355263 535 222.631579 Z M 571.4 240.394737 C 602.9 247.203947 591.7 272.171053 582.4 271.973684 C 576.5 271.776316 570.9 266.940789 570.6 262.598684 C 563.8 266.151316 565.6 273.256579 570.8 276.118421 C 556.6 274.539474 550.6 283.815789 550.3 294.078947 C 552.9 289.342105 560.7 289.144737 563.7 290.131579 C 566.7 291.118421 574.2 291.611842 577.2 288.059211 C 574.7 290.328947 578.8 295.263158 575.2 299.111842 C 587.2 298.717105 592.3 287.565789 590.2 282.828947 C 605.6 268.815789 602.7 246.019737 571.4 240.394737 Z M 547.3 347.565789 C 549.3 348.848684 549.1 351.611842 547.7 353.289474 C 544.9 356.743421 549.1 364.835526 540.5 366.315789 C 537.9 366.513158 536.2 365.131579 535.3 362.072368 C 532.9 354.078947 541.4 353.486842 542.3 349.835526 C 543.2 346.085526 545.6 346.480263 547.3 347.565789 Z M 547.3 347.565789 " transform="matrix(0.0390625,0,0,0.0395833,0,0)"/>
<path style="fill-rule:nonzero;fill:rgb(96.862745%,87.843138%,9.019608%);fill-opacity:1;stroke-width:0.4;stroke-linecap:butt;stroke-linejoin:miter;stroke:rgb(0%,0%,0%);stroke-opacity:1;stroke-miterlimit:4;" d="M 539.6 362.072368 C 542.3 363.453947 544.7 365.526316 543.3 374.506579 C 542.6 378.157895 542.5 387.335526 545.8 387.532895 C 543.8 388.519737 539.4 389.407895 537.8 387.039474 C 535.9 389.802632 532.1 388.815789 530.8 385.164474 C 528.6 386.842105 526 383.881579 526.1 381.513158 C 524.3 382.5 520.8 380.822368 521.9 375.493421 C 519.7 376.085526 517 374.506579 516.1 373.125 C 519.2 372.532895 527.3 368.585526 529.4 365.328947 C 531.4 361.875 536.4 360.493421 539.6 362.072368 Z M 539.6 362.072368 " transform="matrix(0.0390625,0,0,0.0395833,0,0)"/>
<path style="fill:none;stroke-width:0.4;stroke-linecap:butt;stroke-linejoin:miter;stroke:rgb(0%,0%,0%);stroke-opacity:1;stroke-miterlimit:4;" d="M 537.7 387.039474 C 538.7 385.756579 539.2 380.526316 538.7 377.269737 M 530.7 385.164474 C 532.2 384.177632 534.9 380.723684 535.5 377.467105 M 526 381.513158 C 529.3 379.046053 531.9 375.690789 533.4 371.842105 M 521.9 375.493421 C 523.9 375.098684 530.5 371.151316 533.3 366.907895 " transform="matrix(0.0390625,0,0,0.0395833,0,0)"/>
<path style="fill-rule:nonzero;fill:rgb(96.862745%,87.843138%,9.019608%);fill-opacity:1;stroke-width:0.4;stroke-linecap:butt;stroke-linejoin:miter;stroke:rgb(0%,0%,0%);stroke-opacity:1;stroke-miterlimit:4;" d="M 501.2 195.789474 C 500.8 218.782895 510.4 230.625 523.8 238.223684 C 518.8 235.164474 521 225.098684 514.3 221.842105 C 515.9 221.743421 518.3 223.914474 522.3 223.026316 C 520.3 218.782895 517.3 212.171053 509.9 211.282895 C 511.9 211.085526 515.9 211.776316 518.7 210.789474 C 514.9 204.769737 504.7 207.730263 501.2 195.789474 Z M 498.8 173.782895 C 498 173.486842 497.3 172.697368 496.7 171.611842 C 493.1 172.401316 491.7 170.131579 491.4 168.552632 C 491.7 171.217105 489.4 171.118421 488.4 171.217105 C 494.7 176.447368 495.6 182.467105 494.2 186.019737 C 492.4 190.460526 486.2 190.263158 482.5 187.401316 C 482 196.973684 494.5 200.131579 499 188.092105 C 499 190.065789 501.6 189.868421 502.2 192.631579 C 505.4 187.401316 503 179.901316 498.8 173.782895 Z M 498.8 173.782895 " transform="matrix(0.0390625,0,0,0.0395833,0,0)"/>
<path style="fill-rule:nonzero;fill:rgb(20%,45.09804%,12.941177%);fill-opacity:1;stroke-width:0.4;stroke-linecap:butt;stroke-linejoin:miter;stroke:rgb(0%,0%,0%);stroke-opacity:1;stroke-miterlimit:4;" d="M 479 127.993421 C 473.9 122.960526 471.1 116.25 471 109.144737 C 471.2 104.111842 473.2 98.782895 480.5 101.052632 C 478.2 101.052632 479.8 105.493421 477.5 105.986842 C 479.3 106.677632 481.9 105.098684 482.3 104.013158 C 482.7 105.592105 485.7 105.197368 485.9 106.973684 C 487 106.085526 485.8 101.743421 484.1 100.756579 C 485.3 100.065789 486.1 96.611842 485.5 94.934211 C 484.3 95.131579 482.6 96.710526 482.3 98.980263 C 482.9 97.203947 482.2 92.664474 479 91.973684 C 478.1 93.157895 477.9 96.315789 479.1 97.993421 C 476.2 97.302632 471.9 99.177632 470.9 101.743421 C 471.1 98.684211 471.5 94.440789 473.4 91.677632 C 474 90.888158 472.4 89.309211 471.3 91.381579 C 469.1 87.138158 463.3 84.868421 460.6 87.039474 C 458 89.210526 454.6 85.953947 452.4 89.407895 C 450.2 92.763158 443 93.059211 443.4 96.710526 C 443.6 98.881579 443.1 102.236842 442 103.421053 C 439.4 106.282895 443.3 108.355263 444 111.019737 C 443.5 102.532895 457.1 85.756579 470.8 92.269737 C 469.1 95.921053 468.2 99.868421 468.1 103.914474 C 467.5 111.611842 468.7 122.368421 476.1 128.782895 Z M 479 127.993421 " transform="matrix(0.0390625,0,0,0.0395833,0,0)"/>
<path style="fill-rule:nonzero;fill:rgb(78.431374%,6.27451%,18.039216%);fill-opacity:1;stroke-width:0.4;stroke-linecap:butt;stroke-linejoin:miter;stroke:rgb(0%,0%,0%);stroke-opacity:1;stroke-miterlimit:4;" d="M 483 101.052632 C 483 99.078947 486.5 96.414474 491.2 96.513158 C 496.9 96.513158 501.2 101.743421 505.8 101.151316 C 510.4 100.657895 508.2 103.223684 507.2 104.013158 C 506.1 104.703947 505.7 105.592105 506 106.875 C 506.3 108.059211 505.8 108.947368 504 107.763158 C 499.9 105.197368 495.8 108.848684 490.4 106.776316 C 485.9 105.098684 483.2 104.111842 483 101.052632 Z M 483 101.052632 " transform="matrix(0.0390625,0,0,0.0395833,0,0)"/>
<path style="fill-rule:nonzero;fill:rgb(58.823532%,52.941179%,49.019608%);fill-opacity:1;stroke-width:0.4;stroke-linecap:butt;stroke-linejoin:miter;stroke:rgb(0%,0%,0%);stroke-opacity:1;stroke-miterlimit:4;" d="M 459.8 154.440789 C 456.8 147.335526 451.5 141.414474 444.8 137.664474 L 444.6 133.914474 C 448.3 131.842105 451.7 129.276316 454.7 126.315789 C 471.7 134.309211 494.7 122.861842 505.3 111.019737 L 509.3 113.388158 L 507.3 116.052632 L 505.2 114.967105 C 500.5 120.098684 495.4 124.835526 490 129.177632 C 493.9 130.164474 499.3 130.855263 500.8 130.756579 C 510.2 124.046053 517.7 117.927632 521.3 117.532895 L 524.3 121.480263 L 521.6 123.453947 L 519.5 122.171053 C 508.1 133.125 499.1 146.348684 493.3 160.953947 C 487 159.572368 464.4 160.460526 459.8 154.440789 Z M 459.8 154.440789 " transform="matrix(0.0390625,0,0,0.0395833,0,0)"/>
<path style="fill:none;stroke-width:0.4;stroke-linecap:butt;stroke-linejoin:miter;stroke:rgb(0%,0%,0%);stroke-opacity:1;stroke-miterlimit:4;" d="M 490 129.177632 C 488.4 128.782895 487.2 128.388158 486.5 127.993421 C 482.9 130.263158 478.7 131.447368 474.4 131.447368 " transform="matrix(0.0390625,0,0,0.0395833,0,0)"/>
<path style="fill:none;stroke-width:0.4;stroke-linecap:butt;stroke-linejoin:miter;stroke:rgb(0%,0%,0%);stroke-opacity:1;stroke-miterlimit:4;" d="M 460.7 151.875 C 459.2 143.486842 461.7 134.111842 465.9 131.348684 C 476.7 137.565789 490.1 137.368421 500.7 130.756579 " transform="matrix(0.0390625,0,0,0.0395833,0,0)"/>
<path style="fill:none;stroke-width:0.4;stroke-linecap:butt;stroke-linejoin:miter;stroke:rgb(0%,0%,0%);stroke-opacity:1;stroke-miterlimit:4;" d="M 460.7 147.532895 C 467.9 147.335526 483.7 148.519737 487.4 149.013158 C 491.3 149.605263 497.7 151.184211 496.8 153.059211 M 464 146.348684 L 466.1 144.276316 L 464.1 142.203947 L 462 144.177632 Z M 464 146.348684 " transform="matrix(0.0390625,0,0,0.0395833,0,0)"/>
<path style="fill-rule:nonzero;fill:rgb(20%,45.09804%,12.941177%);fill-opacity:1;stroke-width:0.4;stroke-linecap:butt;stroke-linejoin:miter;stroke:rgb(0%,0%,0%);stroke-opacity:1;stroke-miterlimit:4;" d="M 469 104.309211 C 466.4 100.657895 459.2 99.473684 457.7 104.309211 C 457 106.480263 456 108.848684 454.3 109.835526 C 452.6 110.822368 453 113.881579 453.7 115.164474 C 455.5 118.519737 453.9 121.677632 457.4 123.848684 C 457.4 121.184211 461.3 118.519737 464.5 117.828947 C 467.8 117.236842 472.8 114.177632 473.5 111.019737 C 474.1 107.565789 475.3 105 469 104.309211 Z M 469 104.309211 " transform="matrix(0.0390625,0,0,0.0395833,0,0)"/>
<path style="fill-rule:nonzero;fill:rgb(58.823532%,52.941179%,49.019608%);fill-opacity:1;stroke-width:0.4;stroke-linecap:butt;stroke-linejoin:miter;stroke:rgb(0%,0%,0%);stroke-opacity:1;stroke-miterlimit:4;" d="M 452.7 136.776316 L 453.7 136.776316 L 453.7 142.894737 L 454.2 143.190789 L 459.5 140.230263 L 460 140.921053 L 454.6 143.980263 L 454.6 144.572368 L 460 147.631579 L 459.5 148.421053 L 454.1 145.361842 C 454 145.559211 453.8 145.657895 453.6 145.657895 L 453.6 151.875 L 452.7 151.875 L 452.7 145.657895 L 452.2 145.361842 L 446.9 148.519737 L 446.4 147.730263 L 451.7 144.671053 L 451.7 143.980263 L 446.4 141.019737 L 446.9 140.230263 L 452.2 143.190789 L 452.7 142.894737 Z M 452.7 136.776316 " transform="matrix(0.0390625,0,0,0.0395833,0,0)"/>
<path style="fill-rule:nonzero;fill:rgb(58.823532%,52.941179%,49.019608%);fill-opacity:1;stroke-width:0.4;stroke-linecap:butt;stroke-linejoin:miter;stroke:rgb(0%,0%,0%);stroke-opacity:1;stroke-miterlimit:4;" d="M 460.7 151.776316 C 457.6 154.934211 452.8 155.921053 448.7 154.046053 C 444.6 152.171053 442.1 148.026316 442.4 143.585526 C 442.7 139.144737 445.7 135.296053 450 134.013158 C 454.3 132.730263 458.9 134.210526 461.6 137.763158 C 461 139.638158 460.6 141.513158 460.4 143.486842 C 460 139.539474 456.6 136.677632 452.7 136.875 C 448.7 137.171053 445.7 140.427632 445.8 144.375 C 446 148.322368 449.2 151.480263 453.1 151.480263 C 456.5 151.480263 459.4 149.210526 460.3 146.052632 C 460.3 147.532895 460.3 150.690789 460.7 151.776316 Z M 460.7 151.776316 " transform="matrix(0.0390625,0,0,0.0395833,0,0)"/>
<path style="fill-rule:nonzero;fill:rgb(20%,45.09804%,12.941177%);fill-opacity:1;stroke-width:0.4;stroke-linecap:butt;stroke-linejoin:miter;stroke:rgb(0%,0%,0%);stroke-opacity:1;stroke-miterlimit:4;" d="M 448.6 162.039474 C 448 161.151316 446.7 158.980263 446.9 157.5 C 448.3 157.5 449.6 158.092105 450.7 158.980263 C 450.6 157.796053 450.1 155.427632 450.4 154.243421 C 451.6 154.736842 454.2 156.217105 455.1 157.796053 C 454.9 156.710526 454.4 153.848684 454.9 151.973684 C 456.2 152.763158 458.5 154.934211 458.9 156.414474 C 459.1 154.144737 459.9 150.394737 460.5 149.407895 C 461.5 150.394737 463.1 151.381579 464.1 152.763158 C 464.3 150.888158 465.3 148.815789 466.6 148.322368 C 467.6 149.309211 469.2 151.973684 469.6 154.934211 C 470.6 154.638158 471.9 152.861842 472.5 151.875 C 473 152.861842 473.6 154.440789 473.2 156.414474 C 474.5 155.230263 476 153.651316 476.2 152.269737 C 477.2 152.960526 478.9 154.736842 479.3 156.513158 C 479.1 155.032895 479.3 152.368421 478.8 150.888158 C 480.4 151.875 481.8 153.355263 482.1 155.131579 C 482.6 153.453947 483.6 150.690789 484.5 150.098684 C 485.4 151.875 486.3 154.144737 486.2 155.822368 C 486.8 154.736842 487.6 152.565789 488.5 152.171053 C 489.3 153.355263 489.2 156.217105 489 157.598684 C 489.8 156.513158 491.3 155.131579 492.2 154.638158 C 492.2 155.427632 492.4 156.710526 492.2 157.697368 C 493.6 156.217105 494.7 154.440789 495.4 152.467105 C 497 153.256579 498.6 156.019737 498.7 157.401316 C 499.9 156.907895 502.1 154.934211 502.7 153.848684 C 502.7 154.638158 503.1 156.809211 502.7 158.388158 C 503.4 157.697368 504 156.414474 504.4 155.822368 C 504.8 156.907895 504.4 159.572368 504 161.052632 C 504.9 160.263158 506.1 159.769737 507.4 159.572368 C 507.1 162.335526 506.3 165 504.9 167.368421 C 494.1 164.407895 471.4 163.322368 448.6 162.039474 Z M 448.6 162.039474 " transform="matrix(0.0390625,0,0,0.0395833,0,0)"/>
<path style=" stroke:none;fill-rule:nonzero;fill:rgb(96.862745%,87.843138%,9.019608%);fill-opacity:1;" d="M 19 4.050781 C 19 4.015625 19.070312 3.941406 19.199219 3.941406 C 19.355469 3.941406 19.5 4.0625 19.625 4.050781 C 19.75 4.039062 19.6875 4.085938 19.664062 4.09375 C 19.632812 4.105469 19.621094 4.121094 19.625 4.140625 C 19.640625 4.167969 19.621094 4.171875 19.570312 4.15625 C 19.460938 4.117188 19.347656 4.171875 19.203125 4.140625 C 19.078125 4.113281 19.003906 4.101562 19 4.050781 "/>
<path style="fill-rule:nonzero;fill:rgb(96.862745%,87.843138%,9.019608%);fill-opacity:1;stroke-width:0.4;stroke-linecap:butt;stroke-linejoin:miter;stroke:rgb(0%,0%,0%);stroke-opacity:1;stroke-miterlimit:4;" d="M 452.1 168.848684 C 448.8 172.796053 445.4 172.203947 444.7 169.638158 C 444 166.973684 446.5 165.789474 445.6 163.519737 C 444.7 161.151316 447.1 160.164474 448.2 161.151316 C 449.3 162.236842 453 158.980263 454.5 162.434211 C 456.1 165.789474 457.3 168.059211 456.5 169.440789 C 455.5 170.822368 452.8 170.131579 452.1 168.848684 Z M 466.7 162.730263 C 466.1 161.151316 469.6 158.289474 471.4 160.361842 C 473.2 162.434211 476 158.190789 477.6 161.447368 C 479.2 164.605263 479.6 166.282895 480.5 168.059211 C 481.2 169.934211 476.2 170.822368 474.6 169.342105 C 474.8 170.328947 470.2 171.217105 469 168.059211 Z M 490.1 164.605263 C 489.3 163.026316 493.4 160.657895 495.6 163.618421 C 496.1 162.434211 500.2 162.236842 500.5 165.592105 L 501 172.5 C 501.1 173.782895 498.5 175.065789 496.7 171.611842 C 493.3 172.302632 491.8 170.427632 491.4 168.453947 C 491 166.578947 490.6 165.493421 490.1 164.506579 Z M 490.1 164.605263 " transform="matrix(0.0390625,0,0,0.0395833,0,0)"/>
<path style="fill-rule:nonzero;fill:rgb(20%,45.09804%,12.941177%);fill-opacity:1;stroke-width:0.4;stroke-linecap:butt;stroke-linejoin:miter;stroke:rgb(0%,0%,0%);stroke-opacity:1;stroke-miterlimit:4;" d="M 454.3 162.335526 C 453.8 161.151316 457.3 158.881579 459.5 160.559211 C 461.7 162.335526 465 159.177632 466.5 162.236842 C 469.2 168.355263 469.3 168.848684 468.5 170.032895 C 467.7 171.217105 464 170.723684 463.1 169.046053 C 463 170.230263 459.8 170.032895 458.2 169.144737 C 456.4 168.059211 455.1 164.309211 454.3 162.335526 Z M 478 162.631579 C 477.3 160.756579 482.6 159.276316 485 162.434211 C 486.1 161.348684 488.7 161.151316 490.1 164.605263 C 491.6 167.763158 491.8 169.835526 490.8 170.625 C 490 171.217105 487.3 171.611842 486.4 170.131579 C 485.1 170.921053 481.3 170.230263 480.4 168.059211 C 479.6 165.986842 478.8 164.111842 478.1 162.631579 Z M 500.5 165.986842 C 500.5 164.309211 503.3 163.618421 504.4 165.986842 C 505.4 168.157895 508.9 166.085526 509.2 170.032895 C 509.2 170.723684 508.8 173.486842 507.7 174.868421 C 506.7 176.151316 501.4 174.868421 501 172.006579 Z M 500.5 165.986842 " transform="matrix(0.0390625,0,0,0.0395833,0,0)"/>
<path style="fill:none;stroke-width:0.4;stroke-linecap:butt;stroke-linejoin:miter;stroke:rgb(0%,0%,0%);stroke-opacity:1;stroke-miterlimit:4;" d="M 452.1 168.848684 C 450.9 167.072368 449.2 164.407895 447.1 167.269737 M 463.2 169.046053 C 462.4 168.059211 461.5 166.480263 461.2 165.296053 M 474.6 169.342105 C 473.8 168.651316 472.6 167.565789 472 166.381579 M 473.6 163.421053 C 475.6 163.618421 476.9 165.394737 477.5 166.282895 C 478.1 167.171053 479.5 168.651316 480.5 168.848684 M 486.4 170.131579 C 485.6 169.046053 485.1 168.059211 484.9 167.269737 M 485 162.434211 C 485.6 163.322368 486.1 164.210526 486.5 165 M 496.6 171.611842 C 495.8 169.934211 494.6 168.651316 493.1 167.664474 M 496.2 165.394737 C 496.3 168.651316 500.7 169.046053 500.9 171.414474 M 504.4 165.986842 C 504.8 166.677632 505 167.664474 505 169.046053 " transform="matrix(0.0390625,0,0,0.0395833,0,0)"/>
</g>
</svg>
