<svg xmlns="http://www.w3.org/2000/svg" width="25" height="px" viewBox="0 0 25 19"><path d="M0 0h25v19H0z" style="fill:#00247d;fill-opacity:1;stroke:none"/><path d="M0 0h12.5v9.5H0Zm0 0" style="stroke:none;fill-rule:nonzero;fill:#012169;fill-opacity:1"/><path d="M1.465 0 6.23 3.582 10.977 0H12.5v1.227L7.813 4.77 12.5 8.293V9.5h-1.562L6.25 5.957 1.582 9.5H0V8.313l4.668-3.524L0 1.266V0Zm0 0" style="stroke:none;fill-rule:nonzero;fill:#fff;fill-opacity:1"/><path d="M8.281 5.563 12.5 8.707V9.5L7.207 5.563Zm-3.594.394.118.691L1.055 9.5H0ZM12.5 0v.059L7.637 3.78l.039-.87L11.523 0ZM0 0l4.668 3.484H3.496L0 .832Zm0 0" style="stroke:none;fill-rule:nonzero;fill:#c8102e;fill-opacity:1"/><path d="M4.707 0v9.5h3.125V0ZM0 3.168v3.164h12.5V3.168Zm0 0" style="stroke:none;fill-rule:nonzero;fill:#fff;fill-opacity:1"/><path d="M0 3.82V5.72h12.5V3.82ZM5.332 0v9.5h1.875V0Zm0 0" style="stroke:none;fill-rule:nonzero;fill:#c8102e;fill-opacity:1"/><path d="M410.1 252.336c-9 7.105-15.6 16.776-19 27.73-5.7 27.335-13.3 33.454-25 27.533 0 14.704 12.9 15.79 18.5 7.302 0 13.717 5 25.56 16.2 35.823 4.8 4.243 5.7 1.381 3.4-3.454-2.2-4.638-2.2-19.934-6.7-28.816 7.2 5.132 17.8 2.27 17-11.94-9.3 5.427-18.5 5.23-19.5-7.698-1.1-15 4.7-37.007 15.1-46.48Zm-11-108.652c.7-5.526-.5-10.954-4.5-14.506-7.6-6.71-15.1-4.441-20.7.986-8.3-4.539-12.8 11.448-22.2 8.783 1.5 5.132 4 7.402 8.8 5.527-5 4.54 0 10.065-5.9 15.394 10.6 3.454 16.2-2.467 15.8-12.631 1.9 1.677 4.4 2.664 7 2.467 2.6-.099 5-1.283 6.7-3.158-5.6-1.875-5.6-6.71-3.4-11.25 3.4-6.81 19.3-6.513 18.4 8.388Zm0 0" style="fill-rule:nonzero;fill:#f7e017;fill-opacity:1;stroke-width:.4;stroke-linecap:butt;stroke-linejoin:miter;stroke:#000;stroke-opacity:1;stroke-miterlimit:4" transform="scale(.03906 .03958)"/><path d="M423.6 222.138c-12 6.316-33.8 3.651-35.9-12.04-2-15.493 13.1-22.5 17.2-24.473 6.3-3.257 11.3 2.467 9.2 8.98 7-2.368 8.6-10.559 5.2-15.296 9.3.691 17.8-6.316 21.4-16.184-3.2 2.96-12 .987-19.3.493 2.2-2.565 2.2-7.302 1.5-9.77-7.6 7.895-18.7 4.244-33.3 26.941 3.4-12.335 6.6-24.67 9.6-37.105.8-15-15-15.197-18.4-8.388 3.7 4.243 1.7 8.98.4 16.48-1.6 8.685-5 29.013-7.9 35.823-.9-10.56-7.9-11.25-9.2-16.48-2 1.381-3.2 4.934-2.7 7.5-2.5-2.764-11.1.69-14.3-3.455-3.3 6.711 2 13.52 7.7 16.58-3.3.197-4 4.045-7.7 4.045 4.9 5.724 9.9 7.994 15.6 8.389 5.8.394 10 2.664 13.5 9.67 5.7 11.25 27.2 18.553 47.4 8.29Zm0 0" style="fill-rule:nonzero;fill:#337321;fill-opacity:1;stroke-width:.4;stroke-linecap:butt;stroke-linejoin:miter;stroke:#000;stroke-opacity:1;stroke-miterlimit:4" transform="scale(.03906 .03958)"/><path d="M453.4 208.421c-6.8 18.651-25.3 31.974-33.6 33.947-14.2 3.553-43.2 17.665-51 24.869-1.1-.296-2.2-.69-3.2-1.382-3.8-2.664-7-11.447-.2-18.947 21.2-19.836 44-11.25 58.2-24.77-12 6.217-33.8 3.553-35.8-12.04 19.8 5.132 40.7-1.085 54.5-16.184 4.1 4.441 7.8 9.277 11 14.507Zm0 0" style="fill-rule:nonzero;fill:#f7e017;fill-opacity:1;stroke-width:.4;stroke-linecap:butt;stroke-linejoin:miter;stroke:#000;stroke-opacity:1;stroke-miterlimit:4" transform="scale(.03906 .03958)"/><path d="M410.1 252.336c-10.7 8.98-16.2 31.381-15.1 46.48.3 4.145 1.4 7.006 3.3 8.783.8-8.586 6.7-30.691 22-40.56 12.8-8.388 32.9-27.039 40.3-48.552a16.7 16.7 0 0 0-7.9-9.178c-7.4 20.23-27.1 29.902-42.6 43.027Zm0 0" style="fill-rule:nonzero;fill:#337321;fill-opacity:1;stroke-width:.4;stroke-linecap:butt;stroke-linejoin:miter;stroke:#000;stroke-opacity:1;stroke-miterlimit:4" transform="scale(.03906 .03958)"/><path d="M446.5 199.737c-5.3 7.401-12.5 13.125-20.9 16.776 1.6-1.974 2.5-4.342 2.5-6.81-13.2 3.75-27.1 3.948-40.4.494a55.19 55.19 0 0 0 54.6-16.184c1.7 1.678 3.1 3.553 4.2 5.724Zm0 0" style="fill-rule:nonzero;fill:#316d3a;fill-opacity:1;stroke-width:.4;stroke-linecap:butt;stroke-linejoin:miter;stroke:#000;stroke-opacity:1;stroke-miterlimit:4" transform="scale(.03906 .03958)"/><path d="M365.4 247.007c-17.2 15.986-5.8 30.197 1 33.256-1.9 11.349 8.7 10.066 8.5 19.44 4.3-2.367 5.4-8.98 4.7-14.21 5.5 5.921 19.2-.69 22.1 10.165 1.9-11.94-7.4-23.98-18.9-22.796 4.8-4.244 2-11.25-2.5-13.026-.9 8.782-10.8 8.782-14.6 5.92-3.9-2.565-7-11.348-.3-18.848Zm0 0" style="fill-rule:nonzero;fill:#337321;fill-opacity:1;stroke-width:.4;stroke-linecap:butt;stroke-linejoin:miter;stroke:#000;stroke-opacity:1;stroke-miterlimit:4" transform="scale(.03906 .03958)"/><path d="M402.7 349.638c-1.8.987-1.7 3.454-.5 4.934 2.3 3.257-1.7 10.46 6 11.941 2.2.494 4-.987 4.8-3.552 2.4-7.106-5.2-7.895-5.9-11.25-.6-3.454-2.8-3.06-4.4-2.073Zm0 0" style="fill-rule:nonzero;fill:#f7e017;fill-opacity:1;stroke-width:.4;stroke-linecap:butt;stroke-linejoin:miter;stroke:#000;stroke-opacity:1;stroke-miterlimit:4" transform="scale(.03906 .03958)"/><path d="M409.2 362.862c-2.5 1.283-4.8 2.862-3.7 11.052.4 3.257.2 11.35-2.8 11.448 1.8 1.085 5.7 2.072 7.3-.198 1.5 2.665 5 1.875 6.3-1.282 1.8 1.381 4.3-.987 4.3-3.158 1.5.987 4.7-.395 3.9-5.33 2 .692 4.4-.69 5.3-1.874-2.8-.592-10-4.441-11.6-7.402-1.7-3.157-6-4.638-9-3.256Zm0 0" style="fill-rule:nonzero;fill:#f7e017;fill-opacity:1;stroke-width:.4;stroke-linecap:butt;stroke-linejoin:miter;stroke:#000;stroke-opacity:1;stroke-miterlimit:4" transform="scale(.03906 .03958)"/><path d="M370 134.704c1.2-1.579 2.5-3.158 4-4.638m39 34.54c2.1-1.086 4.9-1.382 8.4-.988M410 385.164c-.8-1.085-1.1-5.723-.6-8.684m6.9 7.402c-1.3-.987-3.6-4.244-4-7.106m8.3 3.948c-2.9-2.27-5.1-5.428-6.3-8.882m10.2 3.553c-1.9-.395-7.6-4.046-10-7.994" style="fill:none;stroke-width:.4;stroke-linecap:butt;stroke-linejoin:miter;stroke:#000;stroke-opacity:1;stroke-miterlimit:4" transform="scale(.03906 .03958)"/><path d="M528.5 247.204c27.7 23.19 29.5 41.743 25.3 52.5-2.3-10.066-13.8-25.855-25.8-30Zm0 0" style="fill-rule:nonzero;fill:#f7e017;fill-opacity:1;stroke-width:.4;stroke-linecap:butt;stroke-linejoin:miter;stroke:#000;stroke-opacity:1;stroke-miterlimit:4" transform="scale(.03906 .03958)"/><path d="M478.9 233.98h51.4v60.987c0 51.908-28.8 82.5-58.2 98.882-36.7-19.145-59.2-57.533-58.1-98.882V233.98h36c0 3.257.4 7.994 4 12.73 8.6-.789 18.2-7.203 24.9-12.631Zm0 0" style="fill-rule:nonzero;fill:#337321;fill-opacity:1;stroke-width:.4;stroke-linecap:butt;stroke-linejoin:miter;stroke:#000;stroke-opacity:1;stroke-miterlimit:4" transform="scale(.03906 .03958)"/><path d="M530.3 233.98v60.987c-.1 15.592-2.5 29.408-7 41.349l-51.3-93.75-51 93.75c-4.7-12.04-7-25.757-7.1-41.349V233.98Zm0 0" style="fill-rule:nonzero;fill:#006ec7;fill-opacity:1;stroke-width:.4;stroke-linecap:butt;stroke-linejoin:miter;stroke:#000;stroke-opacity:1;stroke-miterlimit:4" transform="scale(.03906 .03958)"/><path d="M20.5 13.137a5 5 0 0 1-.148.398l-1.915-3.601-1.902 3.605a5 5 0 0 1-.148-.398l2.058-3.864Zm0 0" style="stroke:none;fill-rule:nonzero;fill:#f7e017;fill-opacity:1"/><path d="m495.3 365.329 5 2.27c2.6-6.217 3.3-13.125 2.2-19.836-2.9 7.401-12.8 7.204-15.5 11.744 1.7.888 3.2 1.875 4.5 2.861-3.4 3.454-11.3 9.08-15.8 10.46v-48.453c0-3.355-1.2-6.217-1.2-8.98v-9.967c0-2.369-.4-5.625-2.4-5.625s-2.5 3.256-2.5 5.625v9.967c0 2.763-1.1 6.02-1.1 8.98v48.454c-2.5-7.204-12.2-4.836-16.7-12.04 1.8-.394 3.6-.493 5.4-.197-3.4-11.447-12.7-12.434-14.4-15.79 0 4.836-2 15.79 1.1 20.626.7-.987 1.7-1.777 3-2.566 3.9 8.29 21.1 8.29 25.2 22.105 3.3-4.934 15-10.954 23.2-19.638Zm0 0" style="fill-rule:nonzero;fill:#f7e017;fill-opacity:1;stroke-width:.4;stroke-linecap:butt;stroke-linejoin:miter;stroke:#000;stroke-opacity:1;stroke-miterlimit:4" transform="scale(.03906 .03958)"/><path d="M472.1 324.967c3.8 0 16-1.184 20.4-1.184 1.2 0 2.1-1.776 2.1-3.849 0-2.17-.9-3.848-2-3.848-4.5 0-16.6-1.185-20.5-1.185s-16 1.185-20.4 1.185c-1.2 0-2.1 1.677-2.1 3.848 0 2.073 1 3.849 2 3.849 4.5 0 16.7 1.184 20.5 1.184Zm-2.5-19.737c-.8-.69-1.8-.987-3-.987-2.6 0-4.7 1.777-4.7 4.046 0 2.369 2.1 4.343 4.7 4.343 2.5 0 4.6-2.073 4.6-4.343 0-1.776 2.6-1.776 2.6 0 0 3.75-3.2 6.711-7.2 6.711s-7.3-2.96-7.3-6.71c0-3.553 3.3-6.612 7.3-6.612 1.1.098 2.3.296 3.3.79-.1.69-.2 1.578-.3 2.762Zm0 0" style="fill-rule:nonzero;fill:#f7e017;fill-opacity:1;stroke-width:.4;stroke-linecap:butt;stroke-linejoin:miter;stroke:#000;stroke-opacity:1;stroke-miterlimit:4" transform="scale(.03906 .03958)"/><path d="M451.7 323.783c1.1 0 2-1.776 2-3.849 0-2.17-.9-3.848-2-3.848" style="fill-rule:nonzero;fill:#f7e017;fill-opacity:1;stroke-width:.4;stroke-linecap:butt;stroke-linejoin:miter;stroke:#000;stroke-opacity:1;stroke-miterlimit:4" transform="scale(.03906 .03958)"/><path d="M453.4 323.783c1.1 0 2-1.776 2-3.849 0-2.17-.9-3.848-2-3.848m11.1 8.388c1.4 0 2.5-1.974 2.5-4.54 0-2.664-1-4.638-2.5-4.638m2.6 9.375c1.5 0 2.6-2.072 2.6-4.737 0-2.763-1.1-4.835-2.6-4.835m8.7 9.67c1.5 0 2.6-2.17 2.6-4.835 0-2.763-1.2-4.934-2.6-4.934m2.7 9.572c1.4 0 2.6-1.973 2.6-4.638s-1.2-4.737-2.6-4.737m12.1 8.586c1.2 0 2.1-1.678 2.1-3.849 0-2.27-.9-4.046-2-4.046M447 362.862c1.3-.888 2.9-1.58 4.8-1.974m41.1 2.369-1.4-.987m3.8 3.059c3.3-3.454 5.8-7.303 7.3-11.743" style="fill-rule:nonzero;fill:#f7e017;fill-opacity:1;stroke-width:.4;stroke-linecap:butt;stroke-linejoin:miter;stroke:#000;stroke-opacity:1;stroke-miterlimit:4" transform="scale(.03906 .03958)"/><path d="M461.8 277.204c0-1.184.9-1.579 2-2.368 1.2-.987 1.7-1.48 2.9-1.48h14.8c.9 0 1.4.394 1.3 1.38v19.935c.1.987-.3 1.382-1.3 1.382h-19.7v-19.145" style="fill-rule:nonzero;fill:#fff;fill-opacity:1;stroke-width:.4;stroke-linecap:butt;stroke-linejoin:miter;stroke:#000;stroke-opacity:1;stroke-miterlimit:4" transform="scale(.03906 .03958)"/><path d="M477.8 297.829c2 0 1.6 0 3-1.382 1.4-1.48 1.3-1.381 1.3-2.664v-18.355c.1-.987-.4-1.382-1.3-1.185h-13.7c-1 0-1.5.395-2.7 1.283-1 .79-1.8 1.185-1.8 2.171v20.132Zm0 0" style="fill-rule:nonzero;fill:#e5e5e5;fill-opacity:1;stroke-width:.4;stroke-linecap:butt;stroke-linejoin:miter;stroke:#000;stroke-opacity:1;stroke-miterlimit:4" transform="scale(.03906 .03958)"/><path d="M479.3 297.434c.1.888-.4 1.382-1.4 1.283h-14.8c-1 .099-1.4-.395-1.3-1.283v-20.131c-.1-.889.3-1.382 1.3-1.283h14.8c1-.099 1.5.394 1.4 1.283Zm0 0" style="fill-rule:nonzero;fill:#fff;fill-opacity:1;stroke-width:.4;stroke-linecap:butt;stroke-linejoin:miter;stroke:#000;stroke-opacity:1;stroke-miterlimit:4" transform="scale(.03906 .03958)"/><path d="M508 222.336c2.8 3.157 3.8 7.5 2.2 11.743H506c1.8-5.526.7-10.56-7-11.25-11.4-.987-24.8 21.217-44.9 23.882-5.8-7.007-5.5-20.33 2-26.645a82.25 82.25 0 0 0-17.7-28.52c-3.5-.592-7.1-.888-10.7-.79 3-6.315 11.3-12.927 18.1-15.69l3.4-4.441c.7-8.684 42-4.737 50.7.69 0 9.77 3.9 42.139 8.2 51.02Zm0 0" style="fill-rule:nonzero;fill:#96877d;fill-opacity:1;stroke-width:.4;stroke-linecap:butt;stroke-linejoin:miter;stroke:#000;stroke-opacity:1;stroke-miterlimit:4" transform="scale(.03906 .03958)"/><path d="M17.89 9.031c-.038-.594-.277-1.082-.613-1.414a.93.93 0 0 0 .703-.12c.293-.196 1.055-.54 1.329-.392.023.051.039.157.02.235-.067-.18-.798.094-1.005.18-.195.093-.285.218-.215.5-.117-.098-.078-.192-.195-.262.047.117.086.324.102.496-.047-.121-.125-.379-.297-.535.18.433.258.906.218 1.379.118 0 .383-.121.485-.2-.09.13-.36.227-.527.262a.9.9 0 0 0-.13.465c-.011-.164.04-.562.122-.594Zm1.954-.23c-.149-.168-.418-.254-.766-.16.086-.043.172-.07.266-.09-.012-.094-.094-.496-.11-.594l.098-.039c.05.238.11.516.148.633a.6.6 0 0 1 .165.05c-.028-.093-.176-.769-.172-.84l.132-.07q.06.564.235 1.11Zm0 0" style="stroke:none;fill-rule:nonzero;fill:#000;fill-opacity:1"/><path d="M506 233.98c1.7-5.329.6-10.46-7-11.151-6-.493-12.4 5.23-20 11.25Zm-49.9-48.454c-5 .296-10-.197-14.8-1.48.2-.987.6-2.072 1.1-3.257-3.1 1.974-5.9 4.244-8.5 6.81 5.4 1.184 16.6 1.677 22.2-2.073Zm0 0" style="fill-rule:nonzero;fill:#96877d;fill-opacity:1;stroke-width:.4;stroke-linecap:butt;stroke-linejoin:miter;stroke:#000;stroke-opacity:1;stroke-miterlimit:4" transform="scale(.03906 .03958)"/><path d="M456 219.967q1.95 5.625 2.1 10.362m-12.4-55.263c-2 3.059-3.8 6.217-4.4 9.079 4.8 1.184 9.8 1.677 14.8 1.381" style="fill:none;stroke-width:.4;stroke-linecap:butt;stroke-linejoin:miter;stroke:#000;stroke-opacity:1;stroke-miterlimit:4" transform="scale(.03906 .03958)"/><path d="M438.4 191.546c1.4.197 2.7.493 4 .888 4 1.086 12.3 1.086 18-3.059 5.7-4.046 21-16.678 38.3-17.96" style="fill:none;stroke-width:.4;stroke-linecap:butt;stroke-linejoin:miter;stroke:#000;stroke-opacity:1;stroke-miterlimit:4" transform="scale(.03906 .03958)"/><path d="M433.9 187.599c5.4 1.184 16.6 1.677 22.2-2.073a75.7 75.7 0 0 1 38.4-14.802" style="fill:none;stroke-width:.4;stroke-linecap:butt;stroke-linejoin:miter;stroke:#000;stroke-opacity:1;stroke-miterlimit:4" transform="scale(.03906 .03958)"/><path d="M528.5 247.204c19 13.026 33 25.658 37 45.987s11.7 25.756 21.2 20.329c-2.2 11.644-14 13.026-23.9 3.947 1 13.619-4.5 29.803-18.5 35.724-.9-8.092 4.5-14.605 3-21.217-.7-2.96-1-9.671 2.9-12.83-7.5 2.468-19.2-2.269-20.3-13.322 8.6 3.948 19.6 4.639 23.9-6.118s2.4-29.31-25.3-52.5Zm23.9-105.592c5.9-15.296 21.2-13.717 26.4-7.204 15.1-8.586 17.2 10.756 30 7.006-.2 3.553-4.5 7.007-9.2 6.711 5 4.44-2 11.25 8.5 15.395-9 4.44-21.6-.198-25-12.73-3 5.92-13.5 5.92-17.8 1.184 9.2-2.467 8.6-10.954 3.4-14.507-5.3-3.355-14.5-1.974-16.3 4.145Zm-45.7 33.75a81.34 81.34 0 0 0 22.3 34.835c10.8 9.967 27.1 7.402 36.3-1.973.2 18.75-19.4 20.23-30.2 14.408-4.8-2.665-8.7-1.283-4.1 2.96 7 6.217 22.3 11.053 40.4 14.803 31.5 6.809 20.3 31.776 11 31.579 2.7 0 4.9-2.862 1-6.316-27.4-24.671-83-15-82.2-69.967-5.8 14.506-30 8.783-18.7-8.29 3.6 2.862 10 3.06 11.7-1.381 1.4-3.553.5-9.573-5.8-14.902 1 0 3.3 0 3-2.664.3 1.678 1.7 3.849 5.3 3.06 1 1.677 2 2.664 3.5 2.072.3 0 1.1-.494.8-2.073.2 2.96 3.8 4.046 5.7 3.849Zm0 0" style="fill-rule:nonzero;fill:#337321;fill-opacity:1;stroke-width:.4;stroke-linecap:butt;stroke-linejoin:miter;stroke:#000;stroke-opacity:1;stroke-miterlimit:4" transform="scale(.03906 .03958)"/><path d="M535 222.632c13.1 8.486 28 8.486 41.5-7.204 4.3-5.033 11-9.375 15.8-9.77 4.8-.494 4.5-4.934 8.1-5.921-2.2-.592-3.1-3.355-6.5-3.06 8.5-2.861 6-9.67 10.1-13.026-3.4 1.382-8.6-3.651-13.5 2.763 1.3-3.059-.5-6.414-1.7-7.796.5 3.356-6.6 3.948-8 12.533-.7 4.836-3.4 4.638-3.8-2.862-.3-5.427-3-20.526-6-28.223-3.2-7.599-4-18.158.3-19.638-.6-1.185-1.5-2.073-2.6-2.862-5.3-3.355-14.5-1.974-16.3 4.046-5.8 15.395 10.6 24.177 9.3 40.855-2.5-12.335-22.6-15.592-22.4-27.73-6.5 2.96-5.6 8.388-3.1 12.631-4-6.315-13.3 4.046-21.2-4.44-1 11.25 9 15.493 17.1 15.986-4 7.204 1.4 13.323 6.8 15.297.2-12.632 26.1-7.5 26.4 14.21.2 18.454-19.7 19.934-30.3 14.21Zm36.4 17.763c31.5 6.809 20.3 31.776 11 31.579-5.9-.198-11.5-5.033-11.8-9.375-6.8 3.552-5 10.658.2 13.52-14.2-1.58-20.2 7.697-20.5 17.96 2.6-4.737 10.4-4.934 13.4-3.947 3 .986 10.5 1.48 13.5-2.073-2.5 2.27 1.6 7.204-2 11.053 12-.395 17.1-11.546 15-16.283 15.4-14.013 12.5-36.81-18.8-42.434Zm-24.1 107.17c2 1.284 1.8 4.047.4 5.724-2.8 3.454 1.4 11.547-7.2 13.027-2.6.197-4.3-1.184-5.2-4.244-2.4-7.993 6.1-8.585 7-12.236.9-3.75 3.3-3.356 5-2.27Zm0 0" style="fill-rule:nonzero;fill:#f7e017;fill-opacity:1;stroke-width:.4;stroke-linecap:butt;stroke-linejoin:miter;stroke:#000;stroke-opacity:1;stroke-miterlimit:4" transform="scale(.03906 .03958)"/><path d="M539.6 362.072c2.7 1.382 5.1 3.454 3.7 12.435-.7 3.65-.8 12.829 2.5 13.026-2 .987-6.4 1.875-8-.494-1.9 2.764-5.7 1.777-7-1.875-2.2 1.678-4.8-1.282-4.7-3.65-1.8.986-5.3-.692-4.2-6.02-2.2.592-4.9-.987-5.8-2.369 3.1-.592 11.2-4.54 13.3-7.796 2-3.454 7-4.836 10.2-3.257Zm0 0" style="fill-rule:nonzero;fill:#f7e017;fill-opacity:1;stroke-width:.4;stroke-linecap:butt;stroke-linejoin:miter;stroke:#000;stroke-opacity:1;stroke-miterlimit:4" transform="scale(.03906 .03958)"/><path d="M537.7 387.04c1-1.283 1.5-6.514 1-9.77m-8 7.894c1.5-.986 4.2-4.44 4.8-7.697m-9.5 4.046c3.3-2.467 5.9-5.822 7.4-9.67m-11.5 3.65c2-.394 8.6-4.342 11.4-8.585" style="fill:none;stroke-width:.4;stroke-linecap:butt;stroke-linejoin:miter;stroke:#000;stroke-opacity:1;stroke-miterlimit:4" transform="scale(.03906 .03958)"/><path d="M501.2 195.79c-.4 22.993 9.2 34.835 22.6 42.434-5-3.06-2.8-13.125-9.5-16.382 1.6-.099 4 2.072 8 1.184-2-4.243-5-10.855-12.4-11.743 2-.197 6 .493 8.8-.494-3.8-6.02-14-3.059-17.5-15Zm-2.4-22.007c-.8-.296-1.5-1.086-2.1-2.171-3.6.79-5-1.48-5.3-3.06.3 2.665-2 2.566-3 2.665 6.3 5.23 7.2 11.25 5.8 14.803-1.8 4.44-8 4.243-11.7 1.381-.5 9.573 12 12.73 16.5.691 0 1.974 2.6 1.776 3.2 4.54 3.2-5.23.8-12.73-3.4-18.85Zm0 0" style="fill-rule:nonzero;fill:#f7e017;fill-opacity:1;stroke-width:.4;stroke-linecap:butt;stroke-linejoin:miter;stroke:#000;stroke-opacity:1;stroke-miterlimit:4" transform="scale(.03906 .03958)"/><path d="M479 127.993c-5.1-5.032-7.9-11.743-8-18.848.2-5.033 2.2-10.362 9.5-8.092-2.3 0-.7 4.44-3 4.934 1.8.69 4.4-.888 4.8-1.974.4 1.58 3.4 1.184 3.6 2.96 1.1-.887-.1-5.23-1.8-6.216 1.2-.691 2-4.145 1.4-5.823-1.2.198-2.9 1.777-3.2 4.046.6-1.776-.1-6.316-3.3-7.006-.9 1.184-1.1 4.342.1 6.02-2.9-.691-7.2 1.184-8.2 3.75.2-3.06.6-7.303 2.5-10.066.6-.79-1-2.369-2.1-.296-2.2-4.244-8-6.514-10.7-4.343-2.6 2.172-6-1.085-8.2 2.369-2.2 3.355-9.4 3.651-9 7.303.2 2.17-.3 5.526-1.4 6.71-2.6 2.862 1.3 4.934 2 7.599-.5-8.487 13.1-25.263 26.8-18.75-1.7 3.651-2.6 7.598-2.7 11.644-.6 7.698.6 18.454 8 24.869Zm0 0" style="fill-rule:nonzero;fill:#337321;fill-opacity:1;stroke-width:.4;stroke-linecap:butt;stroke-linejoin:miter;stroke:#000;stroke-opacity:1;stroke-miterlimit:4" transform="scale(.03906 .03958)"/><path d="M483 101.053c0-1.974 3.5-4.639 8.2-4.54 5.7 0 10 5.23 14.6 4.638 4.6-.493 2.4 2.073 1.4 2.862-1.1.69-1.5 1.58-1.2 2.862.3 1.184-.2 2.072-2 .888-4.1-2.566-8.2 1.086-13.6-.987-4.5-1.677-7.2-2.664-7.4-5.723Zm0 0" style="fill-rule:nonzero;fill:#c8102e;fill-opacity:1;stroke-width:.4;stroke-linecap:butt;stroke-linejoin:miter;stroke:#000;stroke-opacity:1;stroke-miterlimit:4" transform="scale(.03906 .03958)"/><path d="M459.8 154.44c-3-7.104-8.3-13.026-15-16.776l-.2-3.75c3.7-2.072 7.1-4.638 10.1-7.598 17 7.993 40-3.454 50.6-15.296l4 2.368-2 2.665-2.1-1.086c-4.7 5.132-9.8 9.869-15.2 14.21 3.9.987 9.3 1.678 10.8 1.58 9.4-6.71 16.9-12.83 20.5-13.224l3 3.947-2.7 1.974-2.1-1.283c-11.4 10.954-20.4 24.178-26.2 38.783-6.3-1.382-28.9-.493-33.5-6.513Zm0 0" style="fill-rule:nonzero;fill:#96877d;fill-opacity:1;stroke-width:.4;stroke-linecap:butt;stroke-linejoin:miter;stroke:#000;stroke-opacity:1;stroke-miterlimit:4" transform="scale(.03906 .03958)"/><path d="M490 129.178c-1.6-.395-2.8-.79-3.5-1.185-3.6 2.27-7.8 3.454-12.1 3.454" style="fill:none;stroke-width:.4;stroke-linecap:butt;stroke-linejoin:miter;stroke:#000;stroke-opacity:1;stroke-miterlimit:4" transform="scale(.03906 .03958)"/><path d="M460.7 151.875c-1.5-8.388 1-17.763 5.2-20.526 10.8 6.217 24.2 6.02 34.8-.592" style="fill:none;stroke-width:.4;stroke-linecap:butt;stroke-linejoin:miter;stroke:#000;stroke-opacity:1;stroke-miterlimit:4" transform="scale(.03906 .03958)"/><path d="M460.7 147.533c7.2-.197 23 .987 26.7 1.48 3.9.592 10.3 2.171 9.4 4.046m-32.8-6.71 2.1-2.073-2-2.072-2.1 1.974Zm0 0" style="fill:none;stroke-width:.4;stroke-linecap:butt;stroke-linejoin:miter;stroke:#000;stroke-opacity:1;stroke-miterlimit:4" transform="scale(.03906 .03958)"/><path d="M469 104.31c-2.6-3.652-9.8-4.836-11.3 0-.7 2.17-1.7 4.539-3.4 5.526-1.7.986-1.3 4.046-.6 5.328 1.8 3.356.2 6.514 3.7 8.685 0-2.665 3.9-5.33 7.1-6.02 3.3-.592 8.3-3.651 9-6.81.6-3.453 1.8-6.019-4.5-6.71Zm0 0" style="fill-rule:nonzero;fill:#337321;fill-opacity:1;stroke-width:.4;stroke-linecap:butt;stroke-linejoin:miter;stroke:#000;stroke-opacity:1;stroke-miterlimit:4" transform="scale(.03906 .03958)"/><path d="M452.7 136.776h1v6.119l.5.296 5.3-2.96.5.69-5.4 3.06v.591l5.4 3.06-.5.79-5.4-3.06c-.1.197-.3.296-.5.296v6.217h-.9v-6.217l-.5-.296-5.3 3.158-.5-.79 5.3-3.059v-.69l-5.3-2.961.5-.79 5.3 2.96.5-.295Zm0 0" style="fill-rule:nonzero;fill:#96877d;fill-opacity:1;stroke-width:.4;stroke-linecap:butt;stroke-linejoin:miter;stroke:#000;stroke-opacity:1;stroke-miterlimit:4" transform="scale(.03906 .03958)"/><path d="M460.7 151.776c-3.1 3.158-7.9 4.145-12 2.27s-6.6-6.02-6.3-10.46 3.3-8.29 7.6-9.573 8.9.198 11.6 3.75c-.6 1.875-1 3.75-1.2 5.724a7.347 7.347 0 0 0-7.7-6.612c-4 .296-7 3.553-6.9 7.5.2 3.947 3.4 7.105 7.3 7.105 3.4 0 6.3-2.27 7.2-5.427 0 1.48 0 4.638.4 5.723Zm0 0" style="fill-rule:nonzero;fill:#96877d;fill-opacity:1;stroke-width:.4;stroke-linecap:butt;stroke-linejoin:miter;stroke:#000;stroke-opacity:1;stroke-miterlimit:4" transform="scale(.03906 .03958)"/><path d="M448.6 162.04c-.6-.889-1.9-3.06-1.7-4.54 1.4 0 2.7.592 3.8 1.48-.1-1.184-.6-3.552-.3-4.737 1.2.494 3.8 1.974 4.7 3.553-.2-1.085-.7-3.947-.2-5.822 1.3.79 3.6 2.96 4 4.44.2-2.27 1-6.02 1.6-7.006 1 .987 2.6 1.974 3.6 3.355.2-1.875 1.2-3.947 2.5-4.44 1 .986 2.6 3.65 3 6.611 1-.296 2.3-2.072 2.9-3.059.5.987 1.1 2.566.7 4.54 1.3-1.185 2.8-2.764 3-4.145 1 .69 2.7 2.467 3.1 4.243-.2-1.48 0-4.145-.5-5.625 1.6.987 3 2.467 3.3 4.244.5-1.678 1.5-4.441 2.4-5.033.9 1.776 1.8 4.046 1.7 5.723.6-1.085 1.4-3.256 2.3-3.65.8 1.183.7 4.045.5 5.427.8-1.086 2.3-2.467 3.2-2.96 0 .789.2 2.072 0 3.058 1.4-1.48 2.5-3.256 3.2-5.23 1.6.79 3.2 3.553 3.3 4.934 1.2-.493 3.4-2.467 4-3.552 0 .79.4 2.96 0 4.54.7-.692 1.3-1.975 1.7-2.567.4 1.086 0 3.75-.4 5.23.9-.789 2.1-1.282 3.4-1.48-.3 2.764-1.1 5.428-2.5 7.796-10.8-2.96-33.5-4.046-56.3-5.329Zm0 0" style="fill-rule:nonzero;fill:#337321;fill-opacity:1;stroke-width:.4;stroke-linecap:butt;stroke-linejoin:miter;stroke:#000;stroke-opacity:1;stroke-miterlimit:4" transform="scale(.03906 .03958)"/><path d="M19 4.05c0-.034.07-.109.2-.109.155 0 .3.122.425.11s.063.035.04.043q-.047.017-.04.047.023.039-.055.015c-.11-.039-.222.016-.367-.015-.125-.028-.2-.04-.203-.09" style="stroke:none;fill-rule:nonzero;fill:#f7e017;fill-opacity:1"/><path d="M452.1 168.849c-3.3 3.947-6.7 3.355-7.4.79-.7-2.665 1.8-3.85.9-6.12-.9-2.368 1.5-3.355 2.6-2.368 1.1 1.086 4.8-2.17 6.3 1.283 1.6 3.355 2.8 5.625 2 7.007-1 1.381-3.7.69-4.4-.592Zm14.6-6.119c-.6-1.579 2.9-4.44 4.7-2.368s4.6-2.171 6.2 1.085c1.6 3.158 2 4.836 2.9 6.612.7 1.875-4.3 2.763-5.9 1.283.2.987-4.4 1.875-5.6-1.283Zm23.4 1.875c-.8-1.579 3.3-3.947 5.5-.987.5-1.184 4.6-1.381 4.9 1.974l.5 6.908c.1 1.283-2.5 2.566-4.3-.888-3.4.69-4.9-1.184-5.3-3.158-.4-1.875-.8-2.96-1.3-3.947Zm0 0" style="fill-rule:nonzero;fill:#f7e017;fill-opacity:1;stroke-width:.4;stroke-linecap:butt;stroke-linejoin:miter;stroke:#000;stroke-opacity:1;stroke-miterlimit:4" transform="scale(.03906 .03958)"/><path d="M454.3 162.336c-.5-1.185 3-3.454 5.2-1.777 2.2 1.777 5.5-1.381 7 1.678 2.7 6.118 2.8 6.612 2 7.796s-4.5.69-5.4-.987c-.1 1.184-3.3.987-4.9.099-1.8-1.086-3.1-4.836-3.9-6.81Zm23.7.296c-.7-1.875 4.6-3.356 7-.198 1.1-1.085 3.7-1.283 5.1 2.171 1.5 3.158 1.7 5.23.7 6.02-.8.592-3.5.987-4.4-.493-1.3.79-5.1.098-6-2.073-.8-2.072-1.6-3.947-2.3-5.427Zm22.5 3.355c0-1.678 2.8-2.369 3.9 0 1 2.17 4.5.099 4.8 4.046 0 .69-.4 3.454-1.5 4.835-1 1.283-6.3 0-6.7-2.861Zm0 0" style="fill-rule:nonzero;fill:#337321;fill-opacity:1;stroke-width:.4;stroke-linecap:butt;stroke-linejoin:miter;stroke:#000;stroke-opacity:1;stroke-miterlimit:4" transform="scale(.03906 .03958)"/><path d="M452.1 168.849c-1.2-1.777-2.9-4.441-5-1.58m16.1 1.777c-.8-.987-1.7-2.566-2-3.75m13.4 4.046c-.8-.69-2-1.776-2.6-2.96m1.6-2.96c2 .196 3.3 1.973 3.9 2.86.6.89 2 2.37 3 2.567m5.9 1.283c-.8-1.086-1.3-2.073-1.5-2.862m.1-4.836c.6.888 1.1 1.777 1.5 2.566m10.1 6.612c-.8-1.678-2-2.96-3.5-3.948m3.1-2.27c.1 3.257 4.5 3.652 4.7 6.02m3.5-5.427c.4.69.6 1.677.6 3.06" style="fill:none;stroke-width:.4;stroke-linecap:butt;stroke-linejoin:miter;stroke:#000;stroke-opacity:1;stroke-miterlimit:4" transform="scale(.03906 .03958)"/></svg>