<?xml version="1.0" encoding="UTF-8"?>
<svg xmlns="http://www.w3.org/2000/svg" xmlns:xlink="http://www.w3.org/1999/xlink" width="25px" height="px" viewBox="0 0 25 19" version="1.1">
<g id="surface1">
<path style=" stroke:none;fill-rule:nonzero;fill:rgb(100%,0%,0%);fill-opacity:1;" d="M 10 0 L 25 0 L 25 19 L 10 19 Z M 10 0 "/>
<path style=" stroke:none;fill-rule:nonzero;fill:rgb(0%,40.000001%,0%);fill-opacity:1;" d="M 0 0 L 10 0 L 10 19 L 0 19 Z M 0 0 "/>
<path style="fill-rule:evenodd;fill:rgb(100%,100%,0%);fill-opacity:1;stroke-width:0.6;stroke-linecap:round;stroke-linejoin:round;stroke:rgb(0%,0%,0%);stroke-opacity:1;stroke-miterlimit:4;" d="M 339.5 306.217105 C 307.2 305.230263 159.5 212.960526 158.5 198.157895 L 166.6 184.736842 C 181.3 205.953947 332.3 295.657895 347.2 292.5 Z M 339.5 306.217105 " transform="matrix(0.0390625,0,0,0.0395833,0,0)"/>
<path style="fill-rule:evenodd;fill:rgb(100%,100%,0%);fill-opacity:1;stroke-width:0.6;stroke-linecap:round;stroke-linejoin:round;stroke:rgb(0%,0%,0%);stroke-opacity:1;stroke-miterlimit:4;" d="M 164.9 182.763158 C 162 190.559211 203.5 216.217105 253.3 246.611842 C 303.1 277.006579 346.2 295.559211 349.3 292.993421 L 350.8 290.230263 C 350.2 291.315789 348.8 291.513158 346.5 290.822368 C 333 286.875 297.9 270.789474 254.4 244.440789 C 210.8 217.993421 173 193.717105 167.1 183.355263 C 166.6 182.467105 166.4 181.381579 166.5 180.296053 L 166.3 180.296053 L 165.1 182.467105 Z M 340.2 306.611842 C 339.7 307.5 338.6 307.697368 336.7 307.401316 C 324.7 306.118421 288.1 288.256579 244.8 262.401316 C 194.4 232.203947 152.8 204.769737 157.4 197.565789 L 158.6 195.394737 L 158.8 195.493421 C 154.8 207.730263 240.9 256.875 246 260.131579 C 295.8 290.921053 337.8 308.980263 341.5 304.342105 Z M 340.2 306.611842 " transform="matrix(0.0390625,0,0,0.0395833,0,0)"/>
<path style="fill-rule:evenodd;fill:rgb(100%,100%,0%);fill-opacity:1;stroke-width:0.6;stroke-linecap:round;stroke-linejoin:round;stroke:rgb(0%,0%,0%);stroke-opacity:1;stroke-miterlimit:4;" d="M 256.2 207.236842 C 288.4 206.940789 328.2 202.796053 351.2 193.618421 L 346.2 185.625 C 332.7 193.125 292.7 198.059211 255.9 198.848684 C 212.5 198.355263 181.8 194.309211 166.4 184.046053 L 161.8 192.631579 C 190 204.572368 219 207.138158 256.2 207.236842 " transform="matrix(0.0390625,0,0,0.0395833,0,0)"/>
<path style="fill-rule:evenodd;fill:rgb(100%,100%,0%);fill-opacity:1;stroke-width:0.6;stroke-linecap:round;stroke-linejoin:round;stroke:rgb(0%,0%,0%);stroke-opacity:1;stroke-miterlimit:4;" d="M 352.5 193.815789 C 351.7 195.098684 336.7 200.230263 314.7 203.980263 C 295.3 206.940789 275.7 208.421053 256.1 208.322368 C 237.3 208.322368 218.5 207.138158 199.9 204.671053 C 176.8 201.118421 164.9 196.085526 160.4 194.309211 L 161.5 192.138158 C 174.2 197.072368 186.2 200.131579 200.2 202.302632 C 218.7 204.769737 237.3 206.052632 256 205.953947 C 275.5 206.052632 295 204.572368 314.3 201.710526 C 336.8 197.960526 349.1 193.322368 350.9 191.151316 Z M 348.1 185.723684 C 345.7 187.697368 333.5 192.039474 312.1 195.394737 C 293.6 198.059211 275 199.440789 256.3 199.440789 C 234.3 199.440789 216.2 197.763158 202.5 195.789474 C 180.7 193.026316 169.1 187.796053 164.9 186.414474 L 166.2 184.243421 C 169.5 185.921053 180.6 190.361842 202.7 193.519737 C 220.5 195.888158 238.4 196.973684 256.3 196.875 C 274.8 196.875 293.4 195.592105 311.7 192.927632 C 333.2 189.868421 344.8 184.539474 346.6 183.059211 Z M 150.3 246.019737 C 170.1 256.677632 214.2 262.006579 255.9 262.401316 C 293.9 262.5 343.3 256.578947 361.8 246.809211 L 361.3 236.052632 C 355.5 245.131579 302.5 253.815789 255.5 253.519737 C 208.5 253.223684 164.8 245.921053 150.2 236.546053 L 150.2 246.019737 " transform="matrix(0.0390625,0,0,0.0395833,0,0)"/>
<path style="fill-rule:evenodd;fill:rgb(100%,100%,0%);fill-opacity:1;stroke-width:0.6;stroke-linecap:round;stroke-linejoin:round;stroke:rgb(0%,0%,0%);stroke-opacity:1;stroke-miterlimit:4;" d="M 362.8 244.539474 L 362.8 247.006579 C 360 250.361842 342.6 255.394737 320.8 259.046053 C 299.1 262.105263 277.3 263.585526 255.4 263.388158 C 234.7 263.585526 213.9 262.105263 193.4 259.144737 C 178.1 257.368421 163.1 253.322368 149 247.105263 L 149 244.243421 C 158.7 250.559211 184.9 255.394737 193.7 256.776316 C 209.5 259.243421 229.8 261.019737 255.4 261.019737 C 282.3 261.019737 303.8 259.144737 320.4 256.578947 C 336.1 254.309211 358.4 248.388158 362.8 244.539474 M 362.8 235.460526 L 362.8 238.026316 C 360 241.282895 342.6 246.315789 320.8 249.868421 C 299.1 253.026316 277.3 254.506579 255.4 254.407895 C 234.7 254.506579 213.9 253.125 193.4 250.065789 C 178.1 248.289474 163.1 244.243421 149 238.125 L 149 235.065789 C 158.7 241.578947 185 246.315789 193.7 247.697368 C 214.1 250.657895 234.8 252.138158 255.4 252.039474 C 282.3 252.039474 303.9 249.967105 320.4 247.5 C 336.1 245.328947 358.4 239.407895 362.8 235.460526 M 255.8 304.342105 C 210.2 304.144737 171.1 291.907895 162.8 289.934211 L 168.8 299.309211 C 196.9 309.276316 226.4 314.111842 256.2 313.618421 C 290.9 312.631579 321.2 309.868421 342.5 299.506579 L 348.7 289.736842 C 334.2 296.644737 284.7 304.342105 255.7 304.342105 " transform="matrix(0.0390625,0,0,0.0395833,0,0)"/>
<path style="fill-rule:evenodd;fill:rgb(100%,100%,0%);fill-opacity:1;stroke-width:0.6;stroke-linecap:round;stroke-linejoin:round;stroke:rgb(0%,0%,0%);stroke-opacity:1;stroke-miterlimit:4;" d="M 344.9 297.335526 L 342.1 301.282895 C 332.1 304.934211 316.1 308.684211 309.5 309.671053 C 291.8 313.026316 273.8 314.703947 255.8 314.703947 C 215.4 314.111842 182.3 306.217105 166.8 299.407895 L 165.5 297.335526 L 165.7 296.940789 L 167.8 297.828947 C 196.3 307.203947 226 312.138158 256 312.335526 C 274.8 312.335526 293.5 310.164474 308.6 307.5 C 331.8 302.763158 341.2 299.309211 344.1 297.730263 L 344.8 297.335526 Z M 350.2 288.453947 L 348.2 292.006579 C 342.8 293.980263 328.2 298.223684 306.9 301.184211 C 292.9 303.059211 284.2 305.032895 256.3 305.526316 C 224.4 305.230263 192.7 300.493421 162.1 291.513158 L 161 289.046053 C 192.1 297.631579 224.1 302.269737 256.4 302.960526 C 281.9 302.467105 292.8 300.592105 306.7 298.717105 C 331.5 294.868421 344 290.723684 347.7 289.638158 L 347.7 289.440789 L 350.3 288.355263 Z M 350.2 288.453947 " transform="matrix(0.0390625,0,0,0.0395833,0,0)"/>
<path style="fill-rule:evenodd;fill:rgb(100%,100%,0%);fill-opacity:1;stroke-width:0.6;stroke-linecap:round;stroke-linejoin:round;stroke:rgb(0%,0%,0%);stroke-opacity:1;stroke-miterlimit:4;" d="M 350.8 237.631579 C 350.9 267.631579 335.5 294.572368 323.2 306.414474 C 305.1 324.177632 280.8 334.243421 255.4 334.638158 C 225.1 335.131579 196.6 315.394737 188.9 306.710526 C 171.7 288.453947 161.9 264.375 161.4 239.309211 C 163.2 206.546053 176.1 183.651316 194.7 167.960526 C 212.8 153.157895 235.5 145.164474 258.9 145.263158 C 286.5 146.644737 312.3 159.572368 329.9 180.888158 C 342.4 196.085526 347.9 212.565789 350.8 237.631579 M 255.6 135 C 313.8 135 361.2 181.973684 361.6 240.197368 C 361.6 298.618421 314.3 345.888158 255.9 345.888158 C 197.5 345.888158 150.2 298.618421 150.2 240.197368 C 150.1 182.171053 197.5 135 255.6 135 " transform="matrix(0.0390625,0,0,0.0395833,0,0)"/>
<path style="fill-rule:evenodd;fill:rgb(100%,100%,0%);fill-opacity:1;stroke-width:0.6;stroke-linecap:round;stroke-linejoin:round;stroke:rgb(0%,0%,0%);stroke-opacity:1;stroke-miterlimit:4;" d="M 255.9 134.506579 C 314.1 134.506579 361.5 181.875 361.5 240.098684 C 361.5 298.322368 314.1 345.690789 256 345.690789 C 197.9 345.690789 150.4 298.322368 150.4 240.098684 C 150.4 181.875 197.8 134.506579 256 134.506579 Z M 152.6 240 C 152.6 296.842105 199.3 343.322368 255.9 343.322368 C 312.5 343.322368 359.2 296.842105 359.2 240 C 359.2 183.157895 312.5 136.677632 255.9 136.677632 C 199.3 136.677632 152.6 183.157895 152.6 240 " transform="matrix(0.0390625,0,0,0.0395833,0,0)"/>
<path style="fill-rule:evenodd;fill:rgb(100%,100%,0%);fill-opacity:1;stroke-width:0.6;stroke-linecap:round;stroke-linejoin:round;stroke:rgb(0%,0%,0%);stroke-opacity:1;stroke-miterlimit:4;" d="M 256 143.289474 C 309.3 143.486842 352.5 186.710526 352.7 240 C 352.6 293.388158 309.4 336.611842 256 336.809211 C 203 336.809211 159.3 293.190789 159.3 240 C 159.5 186.710526 202.7 143.486842 256 143.289474 M 161.6 240 C 161.6 292.006579 204.2 334.440789 256 334.440789 C 307.8 334.440789 350.4 291.907895 350.4 240 C 350.4 188.092105 307.8 145.559211 256 145.559211 C 204 145.953947 161.9 187.993421 161.6 240 " transform="matrix(0.0390625,0,0,0.0395833,0,0)"/>
<path style="fill-rule:evenodd;fill:rgb(100%,100%,0%);fill-opacity:1;stroke-width:0.6;stroke-linecap:round;stroke-linejoin:round;stroke:rgb(0%,0%,0%);stroke-opacity:1;stroke-miterlimit:4;" d="M 260.3 134.013158 L 251.2 134.013158 L 251.2 346.282895 L 260.2 346.282895 Z M 260.3 134.013158 " transform="matrix(0.0390625,0,0,0.0395833,0,0)"/>
<path style="fill-rule:evenodd;fill:rgb(100%,100%,0%);fill-opacity:1;stroke-width:0.6;stroke-linecap:round;stroke-linejoin:round;stroke:rgb(0%,0%,0%);stroke-opacity:1;stroke-miterlimit:4;" d="M 259.3 132.828947 L 261.6 132.828947 L 261.6 347.467105 L 259.4 347.467105 L 259.4 132.828947 Z M 250.3 132.828947 L 252.7 132.828947 L 252.7 347.467105 L 250.4 347.467105 Z M 250.3 132.828947 " transform="matrix(0.0390625,0,0,0.0395833,0,0)"/>
<path style="fill-rule:evenodd;fill:rgb(100%,100%,0%);fill-opacity:1;stroke-width:0.6;stroke-linecap:round;stroke-linejoin:round;stroke:rgb(0%,0%,0%);stroke-opacity:1;stroke-miterlimit:4;" d="M 361.6 244.243421 L 361.6 236.447368 L 355.2 230.427632 L 318.9 220.756579 L 266.7 215.526316 L 203.7 218.684211 L 158.9 229.342105 L 149.9 235.953947 L 149.9 243.947368 L 172.8 233.585526 L 227.2 225.098684 L 279.5 225.098684 L 317.9 229.342105 L 344.5 235.657895 Z M 361.6 244.243421 " transform="matrix(0.0390625,0,0,0.0395833,0,0)"/>
<path style="fill-rule:evenodd;fill:rgb(100%,100%,0%);fill-opacity:1;stroke-width:0.6;stroke-linecap:round;stroke-linejoin:round;stroke:rgb(0%,0%,0%);stroke-opacity:1;stroke-miterlimit:4;" d="M 256 223.815789 C 280.9 223.815789 305 226.085526 324.3 229.835526 C 344.1 233.782895 358 238.815789 362.8 244.342105 L 362.8 247.105263 C 357 240.098684 338.3 235.065789 323.8 232.105263 C 304.8 228.453947 280.8 226.085526 255.9 226.085526 C 229.8 226.085526 205.4 228.651316 186.6 232.302632 C 171.6 235.263158 151.5 241.282895 149 247.105263 L 149 244.243421 C 150.3 240.197368 165.3 234.177632 186.3 229.934211 C 205.2 226.184211 229.6 223.815789 255.9 223.815789 Z M 256 214.736842 C 278.9 214.638158 301.8 216.710526 324.3 220.657895 C 344.1 224.703947 358 229.736842 362.8 235.263158 L 362.8 238.026316 C 357 231.118421 338.3 225.986842 323.8 223.125 C 304.8 219.375 280.8 217.105263 255.9 217.105263 C 232.7 217.006579 209.5 219.078947 186.7 223.322368 C 172.2 225.986842 151.3 232.203947 149 238.026316 L 149 235.164474 C 150.4 231.217105 165.6 224.901316 186.3 220.855263 C 205.3 217.203947 229.6 214.736842 256 214.736842 M 255.4 168.453947 C 294.7 168.256579 329 173.980263 344.7 181.973684 L 350.4 192.039474 C 336.8 184.638158 299.8 177.039474 255.5 178.026316 C 219.4 178.322368 180.8 181.973684 161.5 192.434211 L 168.3 180.986842 C 184.2 172.697368 221.6 168.453947 255.4 168.453947 " transform="matrix(0.0390625,0,0,0.0395833,0,0)"/>
<path style="fill-rule:evenodd;fill:rgb(100%,100%,0%);fill-opacity:1;stroke-width:0.6;stroke-linecap:round;stroke-linejoin:round;stroke:rgb(0%,0%,0%);stroke-opacity:1;stroke-miterlimit:4;" d="M 256 176.743421 C 276.5 176.348684 297 177.828947 317.3 180.986842 C 333.3 184.046053 348.6 188.388158 350.8 190.756579 L 352.5 193.815789 C 347.2 190.361842 333.9 186.513158 316.9 183.256579 C 299.9 180.098684 278.2 179.013158 255.9 179.111842 C 230.6 179.013158 210.9 180.296053 194.1 183.256579 C 182.5 184.934211 171.3 188.388158 160.8 193.618421 L 162.5 190.460526 C 168.5 187.5 177.8 183.848684 193.6 180.888158 C 211.1 177.730263 231 176.842105 256 176.743421 M 256 167.664474 C 277.4 167.467105 298.6 168.651316 315.1 171.710526 C 325.8 173.289474 336.1 176.644737 345.7 181.677632 L 348.2 185.723684 C 344 180.986842 328.2 176.546053 314.1 174.078947 C 297.7 171.217105 277.4 170.131579 256 169.934211 C 236.1 169.736842 216.2 171.217105 196.5 174.276316 C 186.2 175.756579 176.2 178.815789 166.9 183.355263 L 169.1 180.098684 C 174.9 177.138158 184.3 174.276316 196.1 172.006579 C 215.9 168.848684 235.9 167.368421 256 167.565789 Z M 308.4 284.013158 C 291.1 280.953947 273.5 279.671053 255.9 279.967105 C 190.4 280.756579 169.3 293.486842 166.7 297.335526 L 161.7 289.342105 C 178.5 277.302632 214.1 270.493421 256.3 271.085526 C 278.2 271.480263 297.1 273.059211 312.9 276.118421 L 308.4 284.111842 " transform="matrix(0.0390625,0,0,0.0395833,0,0)"/>
<path style="fill-rule:evenodd;fill:rgb(100%,100%,0%);fill-opacity:1;stroke-width:0.6;stroke-linecap:round;stroke-linejoin:round;stroke:rgb(0%,0%,0%);stroke-opacity:1;stroke-miterlimit:4;" d="M 255.6 278.881579 C 273.8 279.177632 291.6 279.868421 308.9 283.125 L 307.7 285.296053 C 291.7 282.335526 274.5 281.348684 255.7 281.348684 C 231.4 281.052632 207 283.421053 185.7 289.539474 C 179 291.414474 167.9 295.657895 166.7 299.309211 L 165.5 297.335526 C 165.9 295.065789 172.5 290.723684 185.1 287.269737 C 209.5 280.263158 232.3 278.980263 255.6 278.881579 M 256.4 269.703947 C 275.6 269.703947 294.8 271.381579 313.7 274.736842 L 312.4 277.006579 C 293.9 273.651316 275.2 271.973684 256.4 272.072368 C 232.2 272.072368 206.5 273.947368 183.1 280.657895 C 175.6 282.927632 162.5 287.664474 162.1 291.414474 L 160.9 289.243421 C 161.1 285.789474 172.4 281.348684 182.6 278.388158 C 206.1 271.480263 231.9 269.802632 256.4 269.703947 " transform="matrix(0.0390625,0,0,0.0395833,0,0)"/>
<path style="fill-rule:evenodd;fill:rgb(100%,100%,0%);fill-opacity:1;stroke-width:0.6;stroke-linecap:round;stroke-linejoin:round;stroke:rgb(0%,0%,0%);stroke-opacity:1;stroke-miterlimit:4;" d="M 349.4 290.526316 L 341.6 302.763158 L 318.9 282.730263 L 260.3 243.157895 L 194.1 206.940789 L 159.8 195.197368 L 167.1 181.578947 L 169.6 180.296053 L 190.9 185.625 L 261.3 221.940789 L 301.9 247.5 L 336 271.973684 L 349.9 287.960526 Z M 349.4 290.526316 " transform="matrix(0.0390625,0,0,0.0395833,0,0)"/>
<path style="fill-rule:evenodd;fill:rgb(100%,100%,0%);fill-opacity:1;stroke-width:0.6;stroke-linecap:round;stroke-linejoin:round;stroke:rgb(0%,0%,0%);stroke-opacity:1;stroke-miterlimit:4;" d="M 158.6 195.493421 C 164.6 191.546053 208.8 211.085526 255.2 239.111842 C 301.3 267.138158 345.5 298.717105 341.5 304.638158 L 340.2 306.710526 L 339.6 307.203947 C 339.7 307.105263 340.4 306.217105 339.6 304.144737 C 337.6 297.631579 306.2 272.565789 254.3 241.184211 C 203.6 211.085526 161.4 192.927632 157.3 198.059211 Z M 351 290.427632 C 354.8 282.828947 313.8 251.940789 262.9 221.842105 C 210.9 192.335526 173.3 174.868421 166.4 180.098684 L 165 182.960526 C 164.9 182.960526 165.1 182.861842 165.4 182.467105 C 166.6 181.480263 168.7 181.480263 169.6 181.480263 C 181.4 181.677632 215.1 197.171053 262.4 224.309211 C 283.2 236.348684 350 279.276316 349.7 291.315789 C 349.7 292.302632 349.8 292.5 349.4 293.092105 L 351.1 290.526316 Z M 351 290.427632 " transform="matrix(0.0390625,0,0,0.0395833,0,0)"/>
<path style="fill-rule:nonzero;fill:rgb(100%,100%,100%);fill-opacity:1;stroke-width:0.7;stroke-linecap:butt;stroke-linejoin:miter;stroke:rgb(0%,0%,0%);stroke-opacity:1;stroke-miterlimit:4;" d="M 180.561946 210.977559 C 180.655695 226.705307 186.936926 241.692925 198.093142 252.702349 C 209.155608 263.896804 224.155562 270.28042 239.905514 270.28042 C 255.655465 270.372936 270.749169 264.081837 281.905385 252.887381 C 293.0616 241.877957 299.249081 226.797823 299.342831 211.070075 L 299.342831 131.876239 L 180.561946 131.691207 Z M 180.561946 210.977559 " transform="matrix(0.0416668,0,0,0.0422224,0,1.056875)"/>
<path style="fill-rule:nonzero;fill:rgb(100%,0%,0%);fill-opacity:1;stroke-width:0.5;stroke-linecap:butt;stroke-linejoin:miter;stroke:rgb(0%,0%,0%);stroke-opacity:1;stroke-miterlimit:4;" d="M 182.999438 211.070075 C 182.999438 226.15021 189.09317 240.582731 199.780637 251.129574 C 210.468104 261.768933 224.90556 267.874999 239.999263 267.874999 C 255.092967 267.874999 269.530423 261.953965 280.21789 251.314606 C 290.905357 240.767764 296.905339 226.335242 296.905339 211.255107 L 296.905339 134.281659 L 182.999438 134.281659 L 182.999438 211.070075 M 274.030409 157.4107 L 274.030409 206.259235 L 273.936659 211.44014 C 274.030409 220.414208 270.37417 229.110727 263.90544 235.401826 C 257.530459 241.785441 248.905486 245.393572 239.905514 245.393572 C 230.530542 245.393572 222.186818 241.415377 215.999337 235.216794 C 209.624357 228.833178 206.061867 220.229175 205.968118 211.162591 L 205.968118 157.225668 Z M 274.030409 157.4107 " transform="matrix(0.0416668,0,0,0.0422224,0,1.056875)"/>
<path style=" stroke:none;fill-rule:nonzero;fill:rgb(100%,100%,0%);fill-opacity:1;" d="M 7.925781 7.574219 C 7.929688 7.34375 8.089844 7.289062 8.089844 7.289062 C 8.097656 7.289062 8.269531 7.347656 8.269531 7.582031 Z M 7.925781 7.574219 "/>
<path style="fill-rule:nonzero;fill:rgb(100%,100%,0%);fill-opacity:1;stroke-width:0.5;stroke-linecap:butt;stroke-linejoin:miter;stroke:rgb(0%,0%,0%);stroke-opacity:1;stroke-miterlimit:4;" d="M 186.843176 147.696503 L 186.093179 153.987602 L 190.311916 153.987602 C 190.311916 148.806697 194.343153 147.974052 194.343153 147.974052 C 194.436903 147.974052 198.280641 149.084246 198.374391 153.987602 L 202.593128 153.987602 L 201.84313 147.603987 Z M 185.81193 154.080118 L 202.780628 154.080118 C 203.155626 154.080118 203.343126 154.357667 203.436876 154.820248 C 203.436876 155.375345 203.155626 155.560377 202.780628 155.560377 L 185.81193 155.560377 C 185.436931 155.560377 185.249431 155.375345 185.155682 154.820248 C 185.155682 154.357667 185.436931 154.080118 185.905679 154.080118 Z M 185.81193 154.080118 " transform="matrix(0.0416668,0,0,0.0422224,0,1.056875)"/>
<path style="fill-rule:nonzero;fill:rgb(100%,100%,0%);fill-opacity:1;stroke-width:0.5;stroke-linecap:butt;stroke-linejoin:miter;stroke:rgb(0%,0%,0%);stroke-opacity:1;stroke-miterlimit:4;" d="M 191.999411 153.987602 C 191.999411 150.65702 194.343153 149.824375 194.343153 149.824375 C 194.343153 149.824375 196.593147 150.842053 196.593147 153.987602 L 191.999411 153.987602 M 186.186928 145.013534 L 202.499378 145.013534 C 202.874377 145.106051 203.061877 145.291083 203.061877 145.84618 C 203.061877 146.123728 202.874377 146.308761 202.499378 146.401277 L 186.186928 146.401277 C 185.905679 146.401277 185.62443 146.123728 185.62443 145.661148 C 185.62443 145.383599 185.81193 145.198567 186.186928 145.106051 Z M 186.561927 146.493793 L 202.03063 146.493793 C 202.311879 146.493793 202.499378 146.771342 202.593128 147.233922 C 202.686878 147.696503 202.499378 147.881535 202.03063 147.881535 L 186.468178 147.881535 C 186.093179 147.881535 185.905679 147.696503 185.905679 147.233922 C 185.905679 146.771342 186.093179 146.493793 186.468178 146.493793 Z M 191.624412 135.854434 L 192.843158 135.854434 L 192.843158 136.68708 L 193.686905 136.68708 L 193.686905 135.854434 L 194.999401 135.854434 L 194.999401 136.779596 L 195.936899 136.779596 L 195.936899 135.761918 L 197.061895 135.761918 L 197.061895 137.797274 C 197.061895 138.167338 196.968145 138.444887 196.593147 138.444887 L 192.18691 138.444887 C 191.905661 138.444887 191.624412 138.259854 191.624412 137.88979 Z M 196.218148 138.629919 L 196.499397 145.013534 L 192.18691 145.013534 L 192.468159 138.537403 L 196.218148 138.537403 " transform="matrix(0.0416668,0,0,0.0422224,0,1.056875)"/>
<path style="fill-rule:nonzero;fill:rgb(100%,100%,0%);fill-opacity:1;stroke-width:0.5;stroke-linecap:butt;stroke-linejoin:miter;stroke:rgb(0%,0%,0%);stroke-opacity:1;stroke-miterlimit:4;" d="M 190.968164 141.590436 L 190.968164 145.013534 L 187.030676 145.013534 L 187.030676 141.590436 Z M 190.968164 141.590436 " transform="matrix(0.0416668,0,0,0.0422224,0,1.056875)"/>
<path style="fill-rule:nonzero;fill:rgb(100%,100%,0%);fill-opacity:1;stroke-width:0.5;stroke-linecap:butt;stroke-linejoin:miter;stroke:rgb(0%,0%,0%);stroke-opacity:1;stroke-miterlimit:4;" d="M 190.961881 141.590436 L 190.961881 145.013534 L 187.024393 145.013534 L 187.024393 141.590436 Z M 190.961881 141.590436 " transform="matrix(0.0416668,0,0,0.0422224,0.441668,1.056875)"/>
<path style="fill-rule:nonzero;fill:rgb(100%,100%,0%);fill-opacity:1;stroke-width:0.5;stroke-linecap:butt;stroke-linejoin:miter;stroke:rgb(0%,0%,0%);stroke-opacity:1;stroke-miterlimit:4;" d="M 186.280678 138.999984 L 187.499424 138.999984 L 187.499424 140.017662 L 188.436922 140.017662 L 188.436922 138.999984 L 189.561918 138.999984 L 189.561918 140.017662 L 190.499415 140.017662 L 190.499415 138.999984 L 191.718161 138.999984 L 191.718161 141.035339 C 191.718161 141.405404 191.530662 141.590436 191.155663 141.590436 L 186.936926 141.590436 C 186.655677 141.49792 186.374428 141.312888 186.280678 141.035339 Z M 186.280678 138.999984 " transform="matrix(0.0416668,0,0,0.0422224,0,1.056875)"/>
<path style="fill-rule:nonzero;fill:rgb(100%,100%,0%);fill-opacity:1;stroke-width:0.5;stroke-linecap:butt;stroke-linejoin:miter;stroke:rgb(0%,0%,0%);stroke-opacity:1;stroke-miterlimit:4;" d="M 186.274395 138.999984 L 187.493142 138.999984 L 187.493142 140.017662 L 188.430639 140.017662 L 188.430639 138.999984 L 189.555635 138.999984 L 189.555635 140.017662 L 190.493132 140.017662 L 190.493132 138.999984 L 191.711879 138.999984 L 191.711879 141.035339 C 191.711879 141.405404 191.524379 141.590436 191.24313 141.590436 L 186.930643 141.590436 C 186.649394 141.49792 186.368145 141.312888 186.274395 141.035339 Z M 186.274395 138.999984 " transform="matrix(0.0416668,0,0,0.0422224,0.441668,1.056875)"/>
<path style=" stroke:none;fill-rule:nonzero;fill:rgb(0%,0%,0.392157%);fill-opacity:1;" d="M 8.078125 6.992188 C 8.078125 6.96875 8.117188 6.96875 8.117188 6.992188 L 8.117188 7.0625 L 8.078125 7.0625 Z M 8.078125 6.992188 "/>
<path style=" stroke:none;fill-rule:nonzero;fill:rgb(0%,0%,0.392157%);fill-opacity:1;" d="M 7.859375 7.085938 C 7.859375 7.0625 7.890625 7.0625 7.890625 7.085938 L 7.890625 7.136719 L 7.859375 7.136719 Z M 7.859375 7.085938 "/>
<path style=" stroke:none;fill-rule:nonzero;fill:rgb(0%,0%,0.392157%);fill-opacity:1;" d="M 8.300781 7.085938 C 8.300781 7.0625 8.332031 7.0625 8.332031 7.085938 L 8.332031 7.136719 L 8.300781 7.136719 Z M 8.300781 7.085938 "/>
<path style=" stroke:none;fill-rule:nonzero;fill:rgb(100%,100%,0%);fill-opacity:1;" d="M 7.925781 9.53125 C 7.929688 9.296875 8.089844 9.242188 8.089844 9.242188 C 8.097656 9.242188 8.269531 9.304688 8.269531 9.535156 Z M 7.925781 9.53125 "/>
<path style="fill-rule:nonzero;fill:rgb(100%,100%,0%);fill-opacity:1;stroke-width:0.5;stroke-linecap:butt;stroke-linejoin:miter;stroke:rgb(0%,0%,0%);stroke-opacity:1;stroke-miterlimit:4;" d="M 186.843176 147.654586 L 186.093179 154.038201 L 190.311916 154.038201 C 190.311916 148.76478 194.343153 148.02465 194.343153 148.02465 C 194.436903 148.02465 198.280641 149.134844 198.374391 154.038201 L 202.593128 154.038201 L 201.84313 147.562069 Z M 185.81193 154.130717 L 202.780628 154.130717 C 203.155626 154.130717 203.343126 154.315749 203.436876 154.77833 C 203.436876 155.333427 203.155626 155.610976 202.780628 155.610976 L 185.81193 155.610976 C 185.436931 155.610976 185.249431 155.333427 185.155682 154.77833 C 185.155682 154.315749 185.436931 154.130717 185.905679 154.130717 Z M 185.81193 154.130717 " transform="matrix(0.0416668,0,0,0.0422224,0,3.01177)"/>
<path style="fill-rule:nonzero;fill:rgb(100%,100%,0%);fill-opacity:1;stroke-width:0.5;stroke-linecap:butt;stroke-linejoin:miter;stroke:rgb(0%,0%,0%);stroke-opacity:1;stroke-miterlimit:4;" d="M 191.999411 154.038201 C 191.999411 150.707619 194.343153 149.782457 194.343153 149.782457 C 194.343153 149.782457 196.593147 150.800135 196.593147 154.038201 L 191.999411 154.038201 M 186.186928 144.971617 L 202.499378 144.971617 C 202.874377 145.064133 203.061877 145.341682 203.061877 145.804262 C 203.061877 146.174327 202.874377 146.359359 202.499378 146.359359 L 186.186928 146.359359 C 185.905679 146.359359 185.62443 146.174327 185.62443 145.711746 C 185.62443 145.341682 185.81193 145.156649 186.186928 145.064133 Z M 186.561927 146.544392 L 202.03063 146.544392 C 202.311879 146.544392 202.499378 146.729424 202.593128 147.192005 C 202.686878 147.654586 202.499378 147.932134 202.03063 147.932134 L 186.468178 147.932134 C 186.093179 147.932134 185.905679 147.654586 185.905679 147.192005 C 185.905679 146.729424 186.093179 146.544392 186.468178 146.544392 Z M 191.624412 135.905033 L 192.843158 135.905033 L 192.843158 136.737678 L 193.686905 136.737678 L 193.686905 135.905033 L 194.999401 135.905033 L 194.999401 136.830194 L 195.936899 136.830194 L 195.936899 135.812517 L 197.061895 135.812517 L 197.061895 137.755356 C 197.061895 138.217937 196.968145 138.402969 196.593147 138.402969 L 192.18691 138.402969 C 191.905661 138.402969 191.624412 138.217937 191.624412 137.940388 Z M 196.218148 138.588002 L 196.499397 144.971617 L 192.18691 144.971617 L 192.468159 138.495485 L 196.218148 138.495485 " transform="matrix(0.0416668,0,0,0.0422224,0,3.01177)"/>
<path style="fill-rule:nonzero;fill:rgb(100%,100%,0%);fill-opacity:1;stroke-width:0.5;stroke-linecap:butt;stroke-linejoin:miter;stroke:rgb(0%,0%,0%);stroke-opacity:1;stroke-miterlimit:4;" d="M 190.968164 141.641035 L 190.968164 144.971617 L 187.030676 144.971617 L 187.030676 141.641035 Z M 190.968164 141.641035 " transform="matrix(0.0416668,0,0,0.0422224,0,3.01177)"/>
<path style="fill-rule:nonzero;fill:rgb(100%,100%,0%);fill-opacity:1;stroke-width:0.5;stroke-linecap:butt;stroke-linejoin:miter;stroke:rgb(0%,0%,0%);stroke-opacity:1;stroke-miterlimit:4;" d="M 190.961881 141.641035 L 190.961881 144.971617 L 187.024393 144.971617 L 187.024393 141.641035 Z M 190.961881 141.641035 " transform="matrix(0.0416668,0,0,0.0422224,0.441668,3.01177)"/>
<path style="fill-rule:nonzero;fill:rgb(100%,100%,0%);fill-opacity:1;stroke-width:0.5;stroke-linecap:butt;stroke-linejoin:miter;stroke:rgb(0%,0%,0%);stroke-opacity:1;stroke-miterlimit:4;" d="M 186.280678 138.958066 L 187.499424 138.958066 L 187.499424 139.975744 L 188.436922 139.975744 L 188.436922 138.958066 L 189.561918 138.958066 L 189.561918 139.975744 L 190.499415 139.975744 L 190.499415 138.958066 L 191.718161 138.958066 L 191.718161 140.993422 C 191.718161 141.363486 191.530662 141.641035 191.155663 141.641035 L 186.936926 141.641035 C 186.655677 141.456003 186.374428 141.27097 186.280678 140.993422 Z M 186.280678 138.958066 " transform="matrix(0.0416668,0,0,0.0422224,0,3.01177)"/>
<path style="fill-rule:nonzero;fill:rgb(100%,100%,0%);fill-opacity:1;stroke-width:0.5;stroke-linecap:butt;stroke-linejoin:miter;stroke:rgb(0%,0%,0%);stroke-opacity:1;stroke-miterlimit:4;" d="M 186.274395 138.958066 L 187.493142 138.958066 L 187.493142 139.975744 L 188.430639 139.975744 L 188.430639 138.958066 L 189.555635 138.958066 L 189.555635 139.975744 L 190.493132 139.975744 L 190.493132 138.958066 L 191.711879 138.958066 L 191.711879 140.993422 C 191.711879 141.363486 191.524379 141.641035 191.24313 141.641035 L 186.930643 141.641035 C 186.649394 141.456003 186.368145 141.27097 186.274395 140.993422 Z M 186.274395 138.958066 " transform="matrix(0.0416668,0,0,0.0422224,0.441668,3.01177)"/>
<path style=" stroke:none;fill-rule:nonzero;fill:rgb(0%,0%,0.392157%);fill-opacity:1;" d="M 8.078125 8.949219 C 8.078125 8.921875 8.117188 8.921875 8.117188 8.949219 L 8.117188 9.015625 L 8.078125 9.015625 Z M 8.078125 8.949219 "/>
<path style=" stroke:none;fill-rule:nonzero;fill:rgb(0%,0%,0.392157%);fill-opacity:1;" d="M 7.859375 9.042969 C 7.859375 9.015625 7.890625 9.015625 7.890625 9.042969 L 7.890625 9.089844 L 7.859375 9.089844 Z M 7.859375 9.042969 "/>
<path style=" stroke:none;fill-rule:nonzero;fill:rgb(0%,0%,0.392157%);fill-opacity:1;" d="M 8.300781 9.042969 C 8.300781 9.015625 8.332031 9.015625 8.332031 9.042969 L 8.332031 9.089844 L 8.300781 9.089844 Z M 8.300781 9.042969 "/>
<path style=" stroke:none;fill-rule:nonzero;fill:rgb(100%,100%,0%);fill-opacity:1;" d="M 8.675781 11.566406 C 8.515625 11.402344 8.59375 11.246094 8.59375 11.246094 C 8.597656 11.242188 8.761719 11.160156 8.921875 11.324219 Z M 8.675781 11.566406 "/>
<path style="fill-rule:nonzero;fill:rgb(100%,100%,0%);fill-opacity:1;stroke-width:0.5;stroke-linecap:butt;stroke-linejoin:miter;stroke:rgb(0%,0%,0%);stroke-opacity:1;stroke-miterlimit:4;" d="M 186.767097 147.727291 L 186.062307 153.97629 L 190.2769 154.018914 C 190.32646 148.816952 194.340812 148.00145 194.340812 148.00145 C 194.340812 148.00145 198.295292 149.095106 198.376614 154.034976 L 202.590794 153.945888 L 201.780758 147.615715 Z M 185.799308 154.105338 L 202.788971 154.145454 C 203.11803 154.082928 203.382267 154.349017 203.449564 154.810675 C 203.451214 155.337523 203.188627 155.598284 202.793509 155.594288 L 185.803845 155.554172 C 185.474786 155.616698 185.276196 155.285419 185.208899 154.823761 C 185.207249 154.296913 185.40419 154.101342 185.931014 154.10667 Z M 185.799308 154.105338 " transform="matrix(0.0293598,-0.0299597,0.0295655,0.0297513,-1.472184,12.67307)"/>
<path style="fill-rule:nonzero;fill:rgb(100%,100%,0%);fill-opacity:1;stroke-width:0.5;stroke-linecap:butt;stroke-linejoin:miter;stroke:rgb(0%,0%,0%);stroke-opacity:1;stroke-miterlimit:4;" d="M 191.989078 154.03623 C 191.978766 150.743428 194.280527 149.778897 194.280527 149.778897 C 194.280527 149.778897 196.588476 150.790048 196.598376 153.951138 L 191.989078 154.03623 M 186.165964 145.021199 L 202.497098 145.054655 C 202.826569 145.123841 203.024747 145.323407 203.092043 145.785066 C 203.093281 146.180202 202.896341 146.375772 202.501223 146.371776 L 186.236148 146.404842 C 185.84103 146.400846 185.642852 146.20128 185.575556 145.739622 C 185.574318 145.344485 185.771258 145.148915 186.232023 145.087721 Z M 186.565619 146.474028 L 201.974811 146.49816 C 202.369929 146.502156 202.50246 146.766913 202.569757 147.228571 C 202.637053 147.690229 202.440113 147.885799 202.044995 147.881803 L 186.504098 147.856339 C 186.10898 147.852343 185.910802 147.652777 185.843505 147.191119 C 185.907914 146.730793 186.104855 146.535222 186.499973 146.539218 Z M 191.603096 135.922486 L 192.78845 135.934474 L 192.790925 136.724746 L 193.712867 136.73407 L 193.710392 135.943798 L 194.961393 135.890596 L 194.96428 136.812581 L 195.886222 136.821905 L 195.882922 135.768208 L 197.068277 135.780196 L 197.140523 137.822399 C 197.141761 138.217536 196.94482 138.413106 196.549702 138.40911 L 192.203404 138.365154 C 191.874345 138.42768 191.676167 138.228114 191.609283 137.898167 Z M 196.221056 138.603348 L 196.50468 145.059905 L 192.158382 145.015949 L 192.467228 138.49953 L 196.220644 138.471636 " transform="matrix(0.0293598,-0.0299597,0.0295655,0.0297513,-1.472184,12.67307)"/>
<path style="fill-rule:nonzero;fill:rgb(100%,100%,0%);fill-opacity:1;stroke-width:0.5;stroke-linecap:butt;stroke-linejoin:miter;stroke:rgb(0%,0%,0%);stroke-opacity:1;stroke-miterlimit:4;" d="M 190.962303 141.579446 L 190.973027 145.003961 L 187.021847 144.964001 L 186.945475 141.604676 Z M 190.962303 141.579446 " transform="matrix(0.0293598,-0.0299597,0.0295655,0.0297513,-1.472184,12.67307)"/>
<path style="fill-rule:nonzero;fill:rgb(100%,100%,0%);fill-opacity:1;stroke-width:0.5;stroke-linecap:butt;stroke-linejoin:miter;stroke:rgb(0%,0%,0%);stroke-opacity:1;stroke-miterlimit:4;" d="M 190.96443 141.620816 L 191.040802 144.980141 L 187.023975 145.005371 L 187.01325 141.580856 Z M 190.96443 141.620816 " transform="matrix(0.0293598,-0.0299597,0.0295655,0.0297513,-1.16097,12.355497)"/>
<path style="fill-rule:nonzero;fill:rgb(100%,100%,0%);fill-opacity:1;stroke-width:0.5;stroke-linecap:butt;stroke-linejoin:miter;stroke:rgb(0%,0%,0%);stroke-opacity:1;stroke-miterlimit:4;" d="M 186.278695 138.963774 L 187.46405 138.975762 L 187.46735 140.029459 L 188.389292 140.038783 L 188.385992 138.985086 L 189.571346 138.997074 L 189.640293 139.985581 L 190.496588 140.060095 L 190.493288 139.006398 L 191.678642 139.018386 L 191.68483 140.994068 C 191.686067 141.389204 191.489127 141.584774 191.225715 141.58211 L 186.945475 141.604676 C 186.616004 141.53549 186.351767 141.269402 186.350942 141.005978 Z M 186.278695 138.963774 " transform="matrix(0.0293598,-0.0299597,0.0295655,0.0297513,-1.472184,12.67307)"/>
<path style="fill-rule:nonzero;fill:rgb(100%,100%,0%);fill-opacity:1;stroke-width:0.5;stroke-linecap:butt;stroke-linejoin:miter;stroke:rgb(0%,0%,0%);stroke-opacity:1;stroke-miterlimit:4;" d="M 186.280823 139.005144 L 187.466177 139.017132 L 187.535124 140.005639 L 188.391007 139.948441 L 188.388119 139.026456 L 189.573474 139.038444 L 189.576361 139.960429 L 190.498303 139.969753 L 190.495416 139.047768 L 191.746417 138.994566 L 191.686957 141.035438 C 191.688195 141.430574 191.556901 141.560954 191.227842 141.62348 L 186.881544 141.579524 C 186.617719 141.445148 186.419542 141.245582 186.287011 140.980826 Z M 186.280823 139.005144 " transform="matrix(0.0293598,-0.0299597,0.0295655,0.0297513,-1.16097,12.355497)"/>
<path style=" stroke:none;fill-rule:nonzero;fill:rgb(0%,0%,0.392157%);fill-opacity:1;" d="M 8.378906 11.046875 C 8.359375 11.027344 8.386719 11.003906 8.402344 11.019531 L 8.453125 11.066406 L 8.425781 11.09375 Z M 8.378906 11.046875 "/>
<path style=" stroke:none;fill-rule:nonzero;fill:rgb(0%,0%,0.392157%);fill-opacity:1;" d="M 8.285156 11.269531 C 8.269531 11.253906 8.292969 11.230469 8.308594 11.246094 L 8.347656 11.28125 L 8.324219 11.308594 Z M 8.285156 11.269531 "/>
<path style=" stroke:none;fill-rule:nonzero;fill:rgb(0%,0%,0.392157%);fill-opacity:1;" d="M 8.597656 10.953125 C 8.582031 10.9375 8.605469 10.910156 8.621094 10.929688 L 8.65625 10.964844 L 8.632812 10.988281 Z M 8.597656 10.953125 "/>
<path style=" stroke:none;fill-rule:nonzero;fill:rgb(100%,100%,0%);fill-opacity:1;" d="M 9.828125 7.574219 C 9.832031 7.34375 9.996094 7.289062 9.996094 7.289062 C 10 7.289062 10.175781 7.347656 10.175781 7.582031 Z M 9.828125 7.574219 "/>
<path style="fill-rule:nonzero;fill:rgb(100%,100%,0%);fill-opacity:1;stroke-width:0.5;stroke-linecap:butt;stroke-linejoin:miter;stroke:rgb(0%,0%,0%);stroke-opacity:1;stroke-miterlimit:4;" d="M 186.799286 147.696503 L 186.143038 153.987602 L 190.268025 153.987602 C 190.268025 148.806697 194.299263 147.974052 194.299263 147.974052 C 194.393012 147.974052 198.3305 149.084246 198.42425 153.987602 L 202.642987 153.987602 L 201.79924 147.603987 Z M 185.768039 154.080118 L 202.830486 154.080118 C 203.111735 154.080118 203.299235 154.357667 203.392985 154.820248 C 203.392985 155.375345 203.205485 155.560377 202.830486 155.560377 L 185.768039 155.560377 C 185.48679 155.560377 185.29929 155.375345 185.20554 154.820248 C 185.20554 154.357667 185.39304 154.080118 185.861788 154.080118 Z M 185.768039 154.080118 " transform="matrix(0.0416668,0,0,0.0422224,1.904173,1.056875)"/>
<path style="fill-rule:nonzero;fill:rgb(100%,100%,0%);fill-opacity:1;stroke-width:0.5;stroke-linecap:butt;stroke-linejoin:miter;stroke:rgb(0%,0%,0%);stroke-opacity:1;stroke-miterlimit:4;" d="M 191.95552 153.987602 C 191.95552 150.65702 194.299263 149.824375 194.299263 149.824375 C 194.299263 149.824375 196.643005 150.842053 196.643005 153.987602 L 191.95552 153.987602 M 186.236787 145.013534 L 202.455487 145.013534 C 202.830486 145.106051 203.017986 145.291083 203.111735 145.84618 C 203.111735 146.123728 202.924236 146.308761 202.455487 146.401277 L 186.236787 146.401277 C 185.861788 146.401277 185.674289 146.123728 185.580539 145.661148 C 185.580539 145.383599 185.768039 145.198567 186.236787 145.106051 Z M 186.611786 146.493793 L 201.986739 146.493793 C 202.361738 146.493793 202.549237 146.771342 202.642987 147.233922 C 202.642987 147.696503 202.455487 147.881535 201.986739 147.881535 L 186.518036 147.881535 C 186.143038 147.881535 185.861788 147.696503 185.861788 147.233922 C 185.861788 146.771342 186.143038 146.493793 186.518036 146.493793 Z M 191.580521 135.854434 L 192.799267 135.854434 L 192.799267 136.68708 L 193.736764 136.68708 L 193.736764 135.854434 L 194.955511 135.854434 L 194.955511 136.779596 L 195.893008 136.779596 L 195.893008 135.761918 L 197.111754 135.761918 L 197.111754 137.797274 C 197.111754 138.167338 196.924254 138.444887 196.643005 138.444887 L 192.236769 138.444887 C 191.86177 138.444887 191.674271 138.259854 191.580521 137.88979 Z M 196.174257 138.629919 L 196.455506 145.013534 L 192.236769 145.013534 L 192.518018 138.537403 L 196.174257 138.537403 " transform="matrix(0.0416668,0,0,0.0422224,1.904173,1.056875)"/>
<path style="fill-rule:nonzero;fill:rgb(100%,100%,0%);fill-opacity:1;stroke-width:0.5;stroke-linecap:butt;stroke-linejoin:miter;stroke:rgb(0%,0%,0%);stroke-opacity:1;stroke-miterlimit:4;" d="M 191.018023 141.590436 L 191.018023 145.013534 L 186.986785 145.013534 L 186.986785 141.590436 Z M 191.018023 141.590436 " transform="matrix(0.0416668,0,0,0.0422224,1.904173,1.056875)"/>
<path style="fill-rule:nonzero;fill:rgb(100%,100%,0%);fill-opacity:1;stroke-width:0.5;stroke-linecap:butt;stroke-linejoin:miter;stroke:rgb(0%,0%,0%);stroke-opacity:1;stroke-miterlimit:4;" d="M 191.01174 141.590436 L 191.01174 145.013534 L 186.980502 145.013534 L 186.980502 141.590436 Z M 191.01174 141.590436 " transform="matrix(0.0416668,0,0,0.0422224,2.345841,1.056875)"/>
<path style="fill-rule:nonzero;fill:rgb(100%,100%,0%);fill-opacity:1;stroke-width:0.5;stroke-linecap:butt;stroke-linejoin:miter;stroke:rgb(0%,0%,0%);stroke-opacity:1;stroke-miterlimit:4;" d="M 186.330537 138.999984 L 187.455534 138.999984 L 187.455534 140.017662 L 188.393031 140.017662 L 188.393031 138.999984 L 189.611777 138.999984 L 189.611777 140.017662 L 190.455524 140.017662 L 190.455524 138.999984 L 191.674271 138.999984 L 191.674271 141.035339 C 191.674271 141.405404 191.486771 141.590436 191.205522 141.590436 L 186.893035 141.590436 C 186.611786 141.49792 186.424287 141.312888 186.330537 141.035339 Z M 186.330537 138.999984 " transform="matrix(0.0416668,0,0,0.0422224,1.904173,1.056875)"/>
<path style="fill-rule:nonzero;fill:rgb(100%,100%,0%);fill-opacity:1;stroke-width:0.5;stroke-linecap:butt;stroke-linejoin:miter;stroke:rgb(0%,0%,0%);stroke-opacity:1;stroke-miterlimit:4;" d="M 186.324254 138.999984 L 187.543 138.999984 L 187.543 140.017662 L 188.386748 140.017662 L 188.386748 138.999984 L 189.605494 138.999984 L 189.605494 140.017662 L 190.542991 140.017662 L 190.542991 138.999984 L 191.667988 138.999984 L 191.667988 141.035339 C 191.667988 141.405404 191.574238 141.590436 191.199239 141.590436 L 186.886752 141.590436 C 186.605503 141.49792 186.418004 141.312888 186.324254 141.035339 Z M 186.324254 138.999984 " transform="matrix(0.0416668,0,0,0.0422224,2.345841,1.056875)"/>
<path style=" stroke:none;fill-rule:nonzero;fill:rgb(0%,0%,0.392157%);fill-opacity:1;" d="M 9.984375 6.992188 C 9.984375 6.96875 10.019531 6.96875 10.019531 6.992188 L 10.019531 7.0625 L 9.984375 7.0625 Z M 9.984375 6.992188 "/>
<path style=" stroke:none;fill-rule:nonzero;fill:rgb(0%,0%,0.392157%);fill-opacity:1;" d="M 9.761719 7.085938 C 9.761719 7.0625 9.796875 7.0625 9.796875 7.085938 L 9.796875 7.136719 L 9.761719 7.136719 Z M 9.761719 7.085938 "/>
<path style=" stroke:none;fill-rule:nonzero;fill:rgb(0%,0%,0.392157%);fill-opacity:1;" d="M 10.203125 7.085938 C 10.203125 7.0625 10.238281 7.0625 10.238281 7.085938 L 10.238281 7.136719 L 10.203125 7.136719 Z M 10.203125 7.085938 "/>
<path style=" stroke:none;fill-rule:nonzero;fill:rgb(100%,100%,0%);fill-opacity:1;" d="M 12.066406 7.574219 C 12.0625 7.34375 11.898438 7.289062 11.898438 7.289062 C 11.894531 7.289062 11.722656 7.347656 11.722656 7.582031 Z M 12.066406 7.574219 "/>
<path style="fill-rule:nonzero;fill:rgb(100%,100%,0%);fill-opacity:1;stroke-width:0.5;stroke-linecap:butt;stroke-linejoin:miter;stroke:rgb(0%,0%,0%);stroke-opacity:1;stroke-miterlimit:4;" d="M 186.832137 147.696503 L 186.082139 153.987602 L 190.300876 153.987602 C 190.300876 148.806697 194.332114 147.974052 194.332114 147.974052 C 194.425864 147.974052 198.269602 149.084246 198.363352 153.987602 L 202.582089 153.987602 L 201.832091 147.603987 Z M 185.80089 154.080118 L 202.769588 154.080118 C 203.144587 154.080118 203.332086 154.357667 203.425836 154.820248 C 203.425836 155.375345 203.238337 155.560377 202.769588 155.560377 L 185.80089 155.560377 C 185.425891 155.560377 185.238392 155.375345 185.238392 154.820248 C 185.238392 154.357667 185.425891 154.080118 185.89464 154.080118 Z M 185.80089 154.080118 " transform="matrix(-0.0416668,0,0,0.0422224,19.991728,1.056875)"/>
<path style="fill-rule:nonzero;fill:rgb(100%,100%,0%);fill-opacity:1;stroke-width:0.5;stroke-linecap:butt;stroke-linejoin:miter;stroke:rgb(0%,0%,0%);stroke-opacity:1;stroke-miterlimit:4;" d="M 191.988371 153.987602 C 191.988371 150.65702 194.332114 149.824375 194.332114 149.824375 C 194.332114 149.824375 196.582107 150.842053 196.582107 153.987602 L 191.988371 153.987602 M 186.175889 145.013534 L 202.488339 145.013534 C 202.863338 145.106051 203.050837 145.291083 203.144587 145.84618 C 203.144587 146.123728 202.863338 146.308761 202.488339 146.401277 L 186.175889 146.401277 C 185.89464 146.401277 185.707141 146.123728 185.613391 145.661148 C 185.613391 145.383599 185.80089 145.198567 186.175889 145.106051 Z M 186.644638 146.493793 L 202.01959 146.493793 C 202.30084 146.493793 202.488339 146.771342 202.582089 147.233922 C 202.675838 147.696503 202.488339 147.881535 202.01959 147.881535 L 186.457138 147.881535 C 186.082139 147.881535 185.89464 147.696503 185.89464 147.233922 C 185.89464 146.771342 186.082139 146.493793 186.457138 146.493793 Z M 191.613372 135.854434 L 192.832119 135.854434 L 192.832119 136.68708 L 193.675866 136.68708 L 193.675866 135.854434 L 194.988362 135.854434 L 194.988362 136.779596 L 195.925859 136.779596 L 195.925859 135.761918 L 197.144605 135.761918 L 197.144605 137.797274 C 197.144605 138.167338 196.957106 138.444887 196.582107 138.444887 L 192.175871 138.444887 C 191.894622 138.444887 191.707122 138.259854 191.613372 137.88979 Z M 196.207108 138.629919 L 196.488357 145.013534 L 192.175871 145.013534 L 192.45712 138.537403 L 196.207108 138.537403 " transform="matrix(-0.0416668,0,0,0.0422224,19.991728,1.056875)"/>
<path style="fill-rule:nonzero;fill:rgb(100%,100%,0%);fill-opacity:1;stroke-width:0.5;stroke-linecap:butt;stroke-linejoin:miter;stroke:rgb(0%,0%,0%);stroke-opacity:1;stroke-miterlimit:4;" d="M 190.957124 141.590436 L 190.957124 145.013534 L 187.019637 145.013534 L 187.019637 141.590436 Z M 190.957124 141.590436 " transform="matrix(-0.0416668,0,0,0.0422224,19.991728,1.056875)"/>
<path style="fill-rule:nonzero;fill:rgb(100%,100%,0%);fill-opacity:1;stroke-width:0.5;stroke-linecap:butt;stroke-linejoin:miter;stroke:rgb(0%,0%,0%);stroke-opacity:1;stroke-miterlimit:4;" d="M 191.044591 141.590436 L 191.044591 145.013534 L 187.013354 145.013534 L 187.013354 141.590436 Z M 191.044591 141.590436 " transform="matrix(-0.0416668,0,0,0.0422224,19.550059,1.056875)"/>
<path style="fill-rule:nonzero;fill:rgb(100%,100%,0%);fill-opacity:1;stroke-width:0.5;stroke-linecap:butt;stroke-linejoin:miter;stroke:rgb(0%,0%,0%);stroke-opacity:1;stroke-miterlimit:4;" d="M 186.269639 138.999984 L 187.488385 138.999984 L 187.488385 140.017662 L 188.425882 140.017662 L 188.425882 138.999984 L 189.644628 138.999984 L 189.644628 140.017662 L 190.488376 140.017662 L 190.488376 138.999984 L 191.707122 138.999984 L 191.707122 141.035339 C 191.707122 141.405404 191.519623 141.590436 191.238374 141.590436 L 186.925887 141.590436 C 186.644638 141.49792 186.363389 141.312888 186.269639 141.035339 Z M 186.269639 138.999984 " transform="matrix(-0.0416668,0,0,0.0422224,19.991728,1.056875)"/>
<path style="fill-rule:nonzero;fill:rgb(100%,100%,0%);fill-opacity:1;stroke-width:0.5;stroke-linecap:butt;stroke-linejoin:miter;stroke:rgb(0%,0%,0%);stroke-opacity:1;stroke-miterlimit:4;" d="M 186.263356 138.999984 L 187.482102 138.999984 L 187.482102 140.017662 L 188.419599 140.017662 L 188.419599 138.999984 L 189.638346 138.999984 L 189.638346 140.017662 L 190.482093 140.017662 L 190.482093 138.999984 L 191.700839 138.999984 L 191.700839 141.035339 C 191.700839 141.405404 191.51334 141.590436 191.232091 141.590436 L 186.919604 141.590436 C 186.638355 141.49792 186.357106 141.312888 186.263356 141.035339 Z M 186.263356 138.999984 " transform="matrix(-0.0416668,0,0,0.0422224,19.550059,1.056875)"/>
<path style=" stroke:none;fill-rule:nonzero;fill:rgb(0%,0%,0.392157%);fill-opacity:1;" d="M 11.914062 6.992188 C 11.914062 6.96875 11.875 6.96875 11.875 6.992188 L 11.875 7.0625 L 11.914062 7.0625 Z M 11.914062 6.992188 "/>
<path style=" stroke:none;fill-rule:nonzero;fill:rgb(0%,0%,0.392157%);fill-opacity:1;" d="M 12.132812 7.085938 C 12.132812 7.0625 12.101562 7.0625 12.101562 7.085938 L 12.101562 7.136719 L 12.132812 7.136719 Z M 12.132812 7.085938 "/>
<path style=" stroke:none;fill-rule:nonzero;fill:rgb(0%,0%,0.392157%);fill-opacity:1;" d="M 11.691406 7.085938 C 11.691406 7.0625 11.660156 7.0625 11.660156 7.085938 L 11.660156 7.136719 L 11.691406 7.136719 Z M 11.691406 7.085938 "/>
<path style=" stroke:none;fill-rule:nonzero;fill:rgb(100%,100%,0%);fill-opacity:1;" d="M 12.066406 9.53125 C 12.0625 9.296875 11.898438 9.242188 11.898438 9.242188 C 11.894531 9.242188 11.722656 9.304688 11.722656 9.535156 Z M 12.066406 9.53125 "/>
<path style="fill-rule:nonzero;fill:rgb(100%,100%,0%);fill-opacity:1;stroke-width:0.5;stroke-linecap:butt;stroke-linejoin:miter;stroke:rgb(0%,0%,0%);stroke-opacity:1;stroke-miterlimit:4;" d="M 186.832137 147.654586 L 186.082139 154.038201 L 190.300876 154.038201 C 190.300876 148.76478 194.332114 148.02465 194.332114 148.02465 C 194.425864 148.02465 198.269602 149.134844 198.363352 154.038201 L 202.582089 154.038201 L 201.832091 147.562069 Z M 185.80089 154.130717 L 202.769588 154.130717 C 203.144587 154.130717 203.332086 154.315749 203.425836 154.77833 C 203.425836 155.333427 203.238337 155.610976 202.769588 155.610976 L 185.80089 155.610976 C 185.425891 155.610976 185.238392 155.333427 185.238392 154.77833 C 185.238392 154.315749 185.425891 154.130717 185.89464 154.130717 Z M 185.80089 154.130717 " transform="matrix(-0.0416668,0,0,0.0422224,19.991728,3.01177)"/>
<path style="fill-rule:nonzero;fill:rgb(100%,100%,0%);fill-opacity:1;stroke-width:0.5;stroke-linecap:butt;stroke-linejoin:miter;stroke:rgb(0%,0%,0%);stroke-opacity:1;stroke-miterlimit:4;" d="M 191.988371 154.038201 C 191.988371 150.707619 194.332114 149.782457 194.332114 149.782457 C 194.332114 149.782457 196.582107 150.800135 196.582107 154.038201 L 191.988371 154.038201 M 186.175889 144.971617 L 202.488339 144.971617 C 202.863338 145.064133 203.050837 145.341682 203.144587 145.804262 C 203.144587 146.174327 202.863338 146.359359 202.488339 146.359359 L 186.175889 146.359359 C 185.89464 146.359359 185.707141 146.174327 185.613391 145.711746 C 185.613391 145.341682 185.80089 145.156649 186.175889 145.064133 Z M 186.644638 146.544392 L 202.01959 146.544392 C 202.30084 146.544392 202.488339 146.729424 202.582089 147.192005 C 202.675838 147.654586 202.488339 147.932134 202.01959 147.932134 L 186.457138 147.932134 C 186.082139 147.932134 185.89464 147.654586 185.89464 147.192005 C 185.89464 146.729424 186.082139 146.544392 186.457138 146.544392 Z M 191.613372 135.905033 L 192.832119 135.905033 L 192.832119 136.737678 L 193.675866 136.737678 L 193.675866 135.905033 L 194.988362 135.905033 L 194.988362 136.830194 L 195.925859 136.830194 L 195.925859 135.812517 L 197.144605 135.812517 L 197.144605 137.755356 C 197.144605 138.217937 196.957106 138.402969 196.582107 138.402969 L 192.175871 138.402969 C 191.894622 138.402969 191.707122 138.217937 191.613372 137.940388 Z M 196.207108 138.588002 L 196.488357 144.971617 L 192.175871 144.971617 L 192.45712 138.495485 L 196.207108 138.495485 " transform="matrix(-0.0416668,0,0,0.0422224,19.991728,3.01177)"/>
<path style="fill-rule:nonzero;fill:rgb(100%,100%,0%);fill-opacity:1;stroke-width:0.5;stroke-linecap:butt;stroke-linejoin:miter;stroke:rgb(0%,0%,0%);stroke-opacity:1;stroke-miterlimit:4;" d="M 190.957124 141.641035 L 190.957124 144.971617 L 187.019637 144.971617 L 187.019637 141.641035 Z M 190.957124 141.641035 " transform="matrix(-0.0416668,0,0,0.0422224,19.991728,3.01177)"/>
<path style="fill-rule:nonzero;fill:rgb(100%,100%,0%);fill-opacity:1;stroke-width:0.5;stroke-linecap:butt;stroke-linejoin:miter;stroke:rgb(0%,0%,0%);stroke-opacity:1;stroke-miterlimit:4;" d="M 191.044591 141.641035 L 191.044591 144.971617 L 187.013354 144.971617 L 187.013354 141.641035 Z M 191.044591 141.641035 " transform="matrix(-0.0416668,0,0,0.0422224,19.550059,3.01177)"/>
<path style="fill-rule:nonzero;fill:rgb(100%,100%,0%);fill-opacity:1;stroke-width:0.5;stroke-linecap:butt;stroke-linejoin:miter;stroke:rgb(0%,0%,0%);stroke-opacity:1;stroke-miterlimit:4;" d="M 186.269639 138.958066 L 187.488385 138.958066 L 187.488385 139.975744 L 188.425882 139.975744 L 188.425882 138.958066 L 189.644628 138.958066 L 189.644628 139.975744 L 190.488376 139.975744 L 190.488376 138.958066 L 191.707122 138.958066 L 191.707122 140.993422 C 191.707122 141.363486 191.519623 141.641035 191.238374 141.641035 L 186.925887 141.641035 C 186.644638 141.456003 186.363389 141.27097 186.269639 140.993422 Z M 186.269639 138.958066 " transform="matrix(-0.0416668,0,0,0.0422224,19.991728,3.01177)"/>
<path style="fill-rule:nonzero;fill:rgb(100%,100%,0%);fill-opacity:1;stroke-width:0.5;stroke-linecap:butt;stroke-linejoin:miter;stroke:rgb(0%,0%,0%);stroke-opacity:1;stroke-miterlimit:4;" d="M 186.263356 138.958066 L 187.482102 138.958066 L 187.482102 139.975744 L 188.419599 139.975744 L 188.419599 138.958066 L 189.638346 138.958066 L 189.638346 139.975744 L 190.482093 139.975744 L 190.482093 138.958066 L 191.700839 138.958066 L 191.700839 140.993422 C 191.700839 141.363486 191.51334 141.641035 191.232091 141.641035 L 186.919604 141.641035 C 186.638355 141.456003 186.357106 141.27097 186.263356 140.993422 Z M 186.263356 138.958066 " transform="matrix(-0.0416668,0,0,0.0422224,19.550059,3.01177)"/>
<path style=" stroke:none;fill-rule:nonzero;fill:rgb(0%,0%,0.392157%);fill-opacity:1;" d="M 11.914062 8.949219 C 11.914062 8.921875 11.875 8.921875 11.875 8.949219 L 11.875 9.015625 L 11.914062 9.015625 Z M 11.914062 8.949219 "/>
<path style=" stroke:none;fill-rule:nonzero;fill:rgb(0%,0%,0.392157%);fill-opacity:1;" d="M 12.132812 9.042969 C 12.132812 9.015625 12.101562 9.015625 12.101562 9.042969 L 12.101562 9.089844 L 12.132812 9.089844 Z M 12.132812 9.042969 "/>
<path style=" stroke:none;fill-rule:nonzero;fill:rgb(0%,0%,0.392157%);fill-opacity:1;" d="M 11.691406 9.042969 C 11.691406 9.015625 11.660156 9.015625 11.660156 9.042969 L 11.660156 9.089844 L 11.691406 9.089844 Z M 11.691406 9.042969 "/>
<path style=" stroke:none;fill-rule:nonzero;fill:rgb(100%,100%,0%);fill-opacity:1;" d="M 11.316406 11.566406 C 11.472656 11.402344 11.398438 11.246094 11.398438 11.246094 C 11.394531 11.242188 11.230469 11.160156 11.066406 11.324219 Z M 11.316406 11.566406 "/>
<path style="fill-rule:nonzero;fill:rgb(100%,100%,0%);fill-opacity:1;stroke-width:0.5;stroke-linecap:butt;stroke-linejoin:miter;stroke:rgb(0%,0%,0%);stroke-opacity:1;stroke-miterlimit:4;" d="M 186.759318 147.719458 L 186.120588 154.034979 L 190.269121 154.011081 C 190.318681 148.809119 194.333033 147.993616 194.333033 147.993616 C 194.399092 148.060138 198.287514 149.087273 198.368835 154.027143 L 202.649074 154.004577 L 201.772979 147.607882 Z M 185.791529 154.097505 L 202.781193 154.137621 C 203.110252 154.075095 203.374489 154.341183 203.441785 154.802842 C 203.443435 155.32969 203.180848 155.59045 202.78573 155.586454 L 185.796067 155.546338 C 185.467008 155.608865 185.268417 155.277586 185.201121 154.815928 C 185.199471 154.289079 185.396411 154.093509 185.923235 154.098837 Z M 185.791529 154.097505 " transform="matrix(-0.0293598,-0.0299597,-0.0295655,0.0297513,21.463912,12.67307)"/>
<path style="fill-rule:nonzero;fill:rgb(100%,100%,0%);fill-opacity:1;stroke-width:0.5;stroke-linecap:butt;stroke-linejoin:miter;stroke:rgb(0%,0%,0%);stroke-opacity:1;stroke-miterlimit:4;" d="M 191.981299 154.028397 C 191.970987 150.735595 194.272749 149.771064 194.272749 149.771064 C 194.272749 149.771064 196.580698 150.782215 196.590597 153.943305 L 191.981299 154.028397 M 186.158185 145.013366 L 202.489319 145.046822 C 202.81879 145.116008 203.016968 145.315574 203.084265 145.777233 C 203.085502 146.172369 202.888562 146.367939 202.493444 146.363943 L 186.228369 146.397009 C 185.833251 146.393013 185.635074 146.193447 185.567777 145.731789 C 185.566539 145.336652 185.76348 145.141082 186.224245 145.079888 Z M 186.6239 146.532717 L 201.967032 146.490327 C 202.36215 146.494323 202.494681 146.759079 202.561978 147.220738 C 202.629275 147.682396 202.432334 147.877966 202.037216 147.87397 L 186.496319 147.848506 C 186.101201 147.84451 185.903023 147.644944 185.901786 147.249808 C 185.900136 146.722959 186.097076 146.527389 186.492194 146.531385 Z M 191.595317 135.914653 L 192.780671 135.926641 L 192.783146 136.716913 L 193.705088 136.726237 L 193.702613 135.935965 L 194.953614 135.882763 L 194.956502 136.804747 L 195.878444 136.814071 L 195.875144 135.760374 L 197.126557 135.838885 L 197.132744 137.814566 C 197.133982 138.209702 196.937042 138.405273 196.541924 138.401277 L 192.195625 138.357321 C 191.866566 138.419847 191.668389 138.22028 191.601504 137.890334 Z M 196.213277 138.595515 L 196.496901 145.052072 L 192.150603 145.008116 L 192.45945 138.491697 L 196.212865 138.463803 " transform="matrix(-0.0293598,-0.0299597,-0.0295655,0.0297513,21.463912,12.67307)"/>
<path style="fill-rule:nonzero;fill:rgb(100%,100%,0%);fill-opacity:1;stroke-width:0.5;stroke-linecap:butt;stroke-linejoin:miter;stroke:rgb(0%,0%,0%);stroke-opacity:1;stroke-miterlimit:4;" d="M 191.020583 141.638135 L 190.965249 144.996128 L 187.014068 144.956168 L 186.937697 141.596843 Z M 191.020583 141.638135 " transform="matrix(-0.0293598,-0.0299597,-0.0295655,0.0297513,21.463912,12.67307)"/>
<path style="fill-rule:nonzero;fill:rgb(100%,100%,0%);fill-opacity:1;stroke-width:0.5;stroke-linecap:butt;stroke-linejoin:miter;stroke:rgb(0%,0%,0%);stroke-opacity:1;stroke-miterlimit:4;" d="M 190.956652 141.612983 L 191.033023 144.972308 L 187.016196 144.997538 L 187.005471 141.573023 Z M 190.956652 141.612983 " transform="matrix(-0.0293598,-0.0299597,-0.0295655,0.0297513,21.152697,12.355497)"/>
<path style="fill-rule:nonzero;fill:rgb(100%,100%,0%);fill-opacity:1;stroke-width:0.5;stroke-linecap:butt;stroke-linejoin:miter;stroke:rgb(0%,0%,0%);stroke-opacity:1;stroke-miterlimit:4;" d="M 186.336976 139.022463 L 187.52233 139.034451 L 187.459571 140.021626 L 188.381513 140.03095 L 188.378213 138.977253 L 189.563567 138.989241 L 189.632514 139.977748 L 190.488809 140.052262 L 190.485509 138.998565 L 191.670863 139.010553 L 191.677051 140.986235 C 191.678288 141.381371 191.547407 141.643463 191.217936 141.574277 L 186.937697 141.596843 C 186.608225 141.527657 186.410048 141.328091 186.343163 140.998145 Z M 186.336976 139.022463 " transform="matrix(-0.0293598,-0.0299597,-0.0295655,0.0297513,21.463912,12.67307)"/>
<path style="fill-rule:nonzero;fill:rgb(100%,100%,0%);fill-opacity:1;stroke-width:0.5;stroke-linecap:butt;stroke-linejoin:miter;stroke:rgb(0%,0%,0%);stroke-opacity:1;stroke-miterlimit:4;" d="M 186.273044 138.997311 L 187.458399 139.009299 L 187.527345 139.997806 L 188.449287 140.00713 L 188.380341 139.018623 L 189.565695 139.030611 L 189.634642 140.019118 L 190.490524 139.96192 L 190.487637 139.039935 L 191.738638 138.986733 L 191.679179 141.027605 C 191.680416 141.422741 191.549122 141.553121 191.220064 141.615647 L 186.873765 141.571691 C 186.676 141.503837 186.411763 141.237749 186.279232 140.972993 Z M 186.273044 138.997311 " transform="matrix(-0.0293598,-0.0299597,-0.0295655,0.0297513,21.152697,12.355497)"/>
<path style=" stroke:none;fill-rule:nonzero;fill:rgb(0%,0%,0.392157%);fill-opacity:1;" d="M 11.613281 11.046875 C 11.632812 11.027344 11.605469 11.003906 11.585938 11.019531 L 11.539062 11.066406 L 11.566406 11.09375 Z M 11.613281 11.046875 "/>
<path style=" stroke:none;fill-rule:nonzero;fill:rgb(0%,0%,0.392157%);fill-opacity:1;" d="M 11.703125 11.269531 C 11.722656 11.253906 11.699219 11.230469 11.679688 11.246094 L 11.644531 11.28125 L 11.667969 11.308594 Z M 11.703125 11.269531 "/>
<path style=" stroke:none;fill-rule:nonzero;fill:rgb(0%,0%,0.392157%);fill-opacity:1;" d="M 11.394531 10.953125 C 11.410156 10.9375 11.386719 10.910156 11.371094 10.929688 L 11.335938 10.964844 L 11.359375 10.988281 Z M 11.394531 10.953125 "/>
<path style=" stroke:none;fill-rule:nonzero;fill:rgb(0%,20%,60.000002%);fill-opacity:1;" d="M 9.691406 9.601562 C 9.691406 9.691406 9.722656 9.777344 9.785156 9.84375 C 9.839844 9.90625 9.917969 9.945312 10.003906 9.945312 C 10.09375 9.9375 10.167969 9.90625 10.226562 9.84375 C 10.285156 9.777344 10.320312 9.691406 10.316406 9.601562 L 10.316406 9.148438 L 9.691406 9.148438 Z M 9.691406 9.601562 "/>
<path style=" stroke:none;fill-rule:nonzero;fill:rgb(100%,100%,100%);fill-opacity:1;" d="M 9.898438 9.320312 C 9.898438 9.285156 9.871094 9.257812 9.835938 9.257812 C 9.804688 9.257812 9.773438 9.285156 9.773438 9.320312 C 9.773438 9.355469 9.804688 9.382812 9.835938 9.382812 C 9.871094 9.382812 9.898438 9.355469 9.898438 9.320312 Z M 9.898438 9.320312 "/>
<path style=" stroke:none;fill-rule:nonzero;fill:rgb(100%,100%,100%);fill-opacity:1;" d="M 10.246094 9.320312 C 10.246094 9.285156 10.21875 9.257812 10.183594 9.257812 C 10.148438 9.257812 10.121094 9.285156 10.121094 9.320312 C 10.121094 9.355469 10.148438 9.382812 10.183594 9.382812 C 10.21875 9.382812 10.246094 9.355469 10.246094 9.320312 Z M 10.246094 9.320312 "/>
<path style=" stroke:none;fill-rule:nonzero;fill:rgb(100%,100%,100%);fill-opacity:1;" d="M 10.070312 9.488281 C 10.070312 9.453125 10.042969 9.425781 10.007812 9.425781 C 9.972656 9.425781 9.945312 9.453125 9.945312 9.488281 C 9.945312 9.523438 9.972656 9.550781 10.007812 9.550781 C 10.042969 9.550781 10.070312 9.523438 10.070312 9.488281 Z M 10.070312 9.488281 "/>
<path style=" stroke:none;fill-rule:nonzero;fill:rgb(100%,100%,100%);fill-opacity:1;" d="M 9.898438 9.664062 C 9.898438 9.632812 9.871094 9.601562 9.835938 9.601562 C 9.804688 9.601562 9.773438 9.632812 9.773438 9.664062 C 9.773438 9.699219 9.804688 9.730469 9.835938 9.730469 C 9.871094 9.730469 9.898438 9.699219 9.898438 9.664062 Z M 9.898438 9.664062 "/>
<path style=" stroke:none;fill-rule:nonzero;fill:rgb(100%,100%,100%);fill-opacity:1;" d="M 10.246094 9.664062 C 10.246094 9.632812 10.21875 9.601562 10.183594 9.601562 C 10.148438 9.601562 10.121094 9.632812 10.121094 9.664062 C 10.121094 9.699219 10.148438 9.730469 10.183594 9.730469 C 10.21875 9.730469 10.246094 9.699219 10.246094 9.664062 Z M 10.246094 9.664062 "/>
<path style=" stroke:none;fill-rule:nonzero;fill:rgb(0%,20%,60.000002%);fill-opacity:1;" d="M 9.691406 8.503906 C 9.691406 8.59375 9.722656 8.679688 9.785156 8.746094 C 9.839844 8.808594 9.917969 8.847656 10.003906 8.847656 C 10.09375 8.839844 10.167969 8.808594 10.226562 8.746094 C 10.285156 8.679688 10.320312 8.59375 10.316406 8.503906 L 10.316406 8.050781 L 9.691406 8.050781 Z M 9.691406 8.503906 "/>
<path style=" stroke:none;fill-rule:nonzero;fill:rgb(100%,100%,100%);fill-opacity:1;" d="M 9.898438 8.222656 C 9.898438 8.1875 9.871094 8.160156 9.835938 8.160156 C 9.804688 8.160156 9.773438 8.1875 9.773438 8.222656 C 9.773438 8.257812 9.804688 8.285156 9.835938 8.285156 C 9.871094 8.285156 9.898438 8.257812 9.898438 8.222656 Z M 9.898438 8.222656 "/>
<path style=" stroke:none;fill-rule:nonzero;fill:rgb(100%,100%,100%);fill-opacity:1;" d="M 10.246094 8.222656 C 10.246094 8.1875 10.21875 8.160156 10.183594 8.160156 C 10.148438 8.160156 10.121094 8.1875 10.121094 8.222656 C 10.121094 8.257812 10.148438 8.285156 10.183594 8.285156 C 10.21875 8.285156 10.246094 8.257812 10.246094 8.222656 Z M 10.246094 8.222656 "/>
<path style=" stroke:none;fill-rule:nonzero;fill:rgb(100%,100%,100%);fill-opacity:1;" d="M 10.070312 8.390625 C 10.070312 8.355469 10.042969 8.328125 10.007812 8.328125 C 9.972656 8.328125 9.945312 8.355469 9.945312 8.390625 C 9.945312 8.425781 9.972656 8.453125 10.007812 8.453125 C 10.042969 8.453125 10.070312 8.425781 10.070312 8.390625 Z M 10.070312 8.390625 "/>
<path style=" stroke:none;fill-rule:nonzero;fill:rgb(100%,100%,100%);fill-opacity:1;" d="M 9.898438 8.566406 C 9.898438 8.535156 9.871094 8.503906 9.835938 8.503906 C 9.804688 8.503906 9.773438 8.535156 9.773438 8.566406 C 9.773438 8.601562 9.804688 8.632812 9.835938 8.632812 C 9.871094 8.632812 9.898438 8.601562 9.898438 8.566406 Z M 9.898438 8.566406 "/>
<path style=" stroke:none;fill-rule:nonzero;fill:rgb(100%,100%,100%);fill-opacity:1;" d="M 10.246094 8.566406 C 10.246094 8.535156 10.21875 8.503906 10.183594 8.503906 C 10.148438 8.503906 10.121094 8.535156 10.121094 8.566406 C 10.121094 8.601562 10.148438 8.632812 10.183594 8.632812 C 10.21875 8.632812 10.246094 8.601562 10.246094 8.566406 Z M 10.246094 8.566406 "/>
<path style=" stroke:none;fill-rule:nonzero;fill:rgb(0%,20%,60.000002%);fill-opacity:1;" d="M 8.824219 9.601562 C 8.824219 9.691406 8.855469 9.777344 8.917969 9.84375 C 8.972656 9.90625 9.054688 9.945312 9.136719 9.945312 C 9.226562 9.9375 9.300781 9.90625 9.359375 9.84375 C 9.417969 9.777344 9.453125 9.691406 9.449219 9.601562 L 9.449219 9.148438 L 8.824219 9.148438 Z M 8.824219 9.601562 "/>
<path style=" stroke:none;fill-rule:nonzero;fill:rgb(100%,100%,100%);fill-opacity:1;" d="M 9.035156 9.320312 C 9.035156 9.285156 9.003906 9.257812 8.972656 9.257812 C 8.9375 9.257812 8.910156 9.285156 8.910156 9.320312 C 8.910156 9.355469 8.9375 9.382812 8.972656 9.382812 C 9.003906 9.382812 9.035156 9.355469 9.035156 9.320312 Z M 9.035156 9.320312 "/>
<path style=" stroke:none;fill-rule:nonzero;fill:rgb(100%,100%,100%);fill-opacity:1;" d="M 9.378906 9.320312 C 9.378906 9.285156 9.351562 9.257812 9.316406 9.257812 C 9.28125 9.257812 9.253906 9.285156 9.253906 9.320312 C 9.253906 9.355469 9.28125 9.382812 9.316406 9.382812 C 9.351562 9.382812 9.378906 9.355469 9.378906 9.320312 Z M 9.378906 9.320312 "/>
<path style=" stroke:none;fill-rule:nonzero;fill:rgb(100%,100%,100%);fill-opacity:1;" d="M 9.203125 9.488281 C 9.203125 9.453125 9.175781 9.425781 9.140625 9.425781 C 9.105469 9.425781 9.078125 9.453125 9.078125 9.488281 C 9.078125 9.523438 9.105469 9.550781 9.140625 9.550781 C 9.175781 9.550781 9.203125 9.523438 9.203125 9.488281 Z M 9.203125 9.488281 "/>
<path style=" stroke:none;fill-rule:nonzero;fill:rgb(100%,100%,100%);fill-opacity:1;" d="M 9.035156 9.664062 C 9.035156 9.632812 9.003906 9.601562 8.972656 9.601562 C 8.9375 9.601562 8.910156 9.632812 8.910156 9.664062 C 8.910156 9.699219 8.9375 9.730469 8.972656 9.730469 C 9.003906 9.730469 9.035156 9.699219 9.035156 9.664062 Z M 9.035156 9.664062 "/>
<path style=" stroke:none;fill-rule:nonzero;fill:rgb(100%,100%,100%);fill-opacity:1;" d="M 9.378906 9.664062 C 9.378906 9.632812 9.351562 9.601562 9.316406 9.601562 C 9.28125 9.601562 9.253906 9.632812 9.253906 9.664062 C 9.253906 9.699219 9.28125 9.730469 9.316406 9.730469 C 9.351562 9.730469 9.378906 9.699219 9.378906 9.664062 Z M 9.378906 9.664062 "/>
<path style=" stroke:none;fill-rule:nonzero;fill:rgb(0%,20%,60.000002%);fill-opacity:1;" d="M 10.558594 9.601562 C 10.554688 9.691406 10.589844 9.777344 10.648438 9.84375 C 10.707031 9.90625 10.785156 9.945312 10.871094 9.945312 C 10.960938 9.9375 11.035156 9.90625 11.089844 9.84375 C 11.152344 9.777344 11.183594 9.691406 11.183594 9.601562 L 11.183594 9.148438 L 10.558594 9.148438 Z M 10.558594 9.601562 "/>
<path style=" stroke:none;fill-rule:nonzero;fill:rgb(100%,100%,100%);fill-opacity:1;" d="M 10.765625 9.320312 C 10.765625 9.285156 10.738281 9.257812 10.703125 9.257812 C 10.667969 9.257812 10.640625 9.285156 10.640625 9.320312 C 10.640625 9.355469 10.667969 9.382812 10.703125 9.382812 C 10.738281 9.382812 10.765625 9.355469 10.765625 9.320312 Z M 10.765625 9.320312 "/>
<path style=" stroke:none;fill-rule:nonzero;fill:rgb(100%,100%,100%);fill-opacity:1;" d="M 11.113281 9.320312 C 11.113281 9.285156 11.085938 9.257812 11.050781 9.257812 C 11.015625 9.257812 10.988281 9.285156 10.988281 9.320312 C 10.988281 9.355469 11.015625 9.382812 11.050781 9.382812 C 11.085938 9.382812 11.113281 9.355469 11.113281 9.320312 Z M 11.113281 9.320312 "/>
<path style=" stroke:none;fill-rule:nonzero;fill:rgb(100%,100%,100%);fill-opacity:1;" d="M 10.9375 9.488281 C 10.9375 9.453125 10.910156 9.425781 10.875 9.425781 C 10.839844 9.425781 10.8125 9.453125 10.8125 9.488281 C 10.8125 9.523438 10.839844 9.550781 10.875 9.550781 C 10.910156 9.550781 10.9375 9.523438 10.9375 9.488281 Z M 10.9375 9.488281 "/>
<path style=" stroke:none;fill-rule:nonzero;fill:rgb(100%,100%,100%);fill-opacity:1;" d="M 10.765625 9.664062 C 10.765625 9.632812 10.738281 9.601562 10.703125 9.601562 C 10.667969 9.601562 10.640625 9.632812 10.640625 9.664062 C 10.640625 9.699219 10.667969 9.730469 10.703125 9.730469 C 10.738281 9.730469 10.765625 9.699219 10.765625 9.664062 Z M 10.765625 9.664062 "/>
<path style=" stroke:none;fill-rule:nonzero;fill:rgb(100%,100%,100%);fill-opacity:1;" d="M 11.113281 9.664062 C 11.113281 9.632812 11.085938 9.601562 11.050781 9.601562 C 11.015625 9.601562 10.988281 9.632812 10.988281 9.664062 C 10.988281 9.699219 11.015625 9.730469 11.050781 9.730469 C 11.085938 9.730469 11.113281 9.699219 11.113281 9.664062 Z M 11.113281 9.664062 "/>
<path style=" stroke:none;fill-rule:nonzero;fill:rgb(0%,20%,60.000002%);fill-opacity:1;" d="M 9.691406 10.691406 C 9.691406 10.78125 9.722656 10.867188 9.785156 10.933594 C 9.839844 10.996094 9.917969 11.035156 10.003906 11.035156 C 10.09375 11.027344 10.167969 10.996094 10.226562 10.933594 C 10.285156 10.867188 10.320312 10.78125 10.316406 10.691406 L 10.316406 10.234375 L 9.691406 10.234375 Z M 9.691406 10.691406 "/>
<path style=" stroke:none;fill-rule:nonzero;fill:rgb(100%,100%,100%);fill-opacity:1;" d="M 9.898438 10.410156 C 9.898438 10.375 9.871094 10.347656 9.835938 10.347656 C 9.804688 10.347656 9.773438 10.375 9.773438 10.410156 C 9.773438 10.445312 9.804688 10.472656 9.835938 10.472656 C 9.871094 10.472656 9.898438 10.445312 9.898438 10.410156 Z M 9.898438 10.410156 "/>
<path style=" stroke:none;fill-rule:nonzero;fill:rgb(100%,100%,100%);fill-opacity:1;" d="M 10.246094 10.410156 C 10.246094 10.375 10.21875 10.347656 10.183594 10.347656 C 10.148438 10.347656 10.121094 10.375 10.121094 10.410156 C 10.121094 10.445312 10.148438 10.472656 10.183594 10.472656 C 10.21875 10.472656 10.246094 10.445312 10.246094 10.410156 Z M 10.246094 10.410156 "/>
<path style=" stroke:none;fill-rule:nonzero;fill:rgb(100%,100%,100%);fill-opacity:1;" d="M 10.070312 10.578125 C 10.070312 10.542969 10.042969 10.515625 10.007812 10.515625 C 9.972656 10.515625 9.945312 10.542969 9.945312 10.578125 C 9.945312 10.613281 9.972656 10.640625 10.007812 10.640625 C 10.042969 10.640625 10.070312 10.613281 10.070312 10.578125 Z M 10.070312 10.578125 "/>
<path style=" stroke:none;fill-rule:nonzero;fill:rgb(100%,100%,100%);fill-opacity:1;" d="M 9.898438 10.753906 C 9.898438 10.71875 9.871094 10.691406 9.835938 10.691406 C 9.804688 10.691406 9.773438 10.71875 9.773438 10.753906 C 9.773438 10.789062 9.804688 10.820312 9.835938 10.820312 C 9.871094 10.820312 9.898438 10.789062 9.898438 10.753906 Z M 9.898438 10.753906 "/>
<path style=" stroke:none;fill-rule:nonzero;fill:rgb(100%,100%,100%);fill-opacity:1;" d="M 10.246094 10.753906 C 10.246094 10.71875 10.21875 10.691406 10.183594 10.691406 C 10.148438 10.691406 10.121094 10.71875 10.121094 10.753906 C 10.121094 10.789062 10.148438 10.820312 10.183594 10.820312 C 10.21875 10.820312 10.246094 10.789062 10.246094 10.753906 Z M 10.246094 10.753906 "/>
</g>
</svg>
