<svg xmlns="http://www.w3.org/2000/svg" width="25" height="px" viewBox="0 0 25 19"><path d="M10 0h15v19H10Zm0 0" style="stroke:none;fill-rule:nonzero;fill:red;fill-opacity:1"/><path d="M0 0h10v19H0Zm0 0" style="stroke:none;fill-rule:nonzero;fill:#060;fill-opacity:1"/><path d="M339.5 306.217c-32.3-.987-180-93.256-181-108.06l8.1-13.42c14.7 21.217 165.7 110.92 180.6 107.763Zm0 0" style="fill-rule:evenodd;fill:#ff0;fill-opacity:1;stroke-width:.6;stroke-linecap:round;stroke-linejoin:round;stroke:#000;stroke-opacity:1;stroke-miterlimit:4" transform="scale(.03906 .03958)"/><path d="M164.9 182.763c-2.9 7.796 38.6 33.454 88.4 63.849s92.9 48.947 96 46.381l1.5-2.763c-.6 1.086-2 1.283-4.3.592-13.5-3.947-48.6-20.033-92.1-46.381-43.6-26.448-81.4-50.724-87.3-61.086-.5-.888-.7-1.973-.6-3.059h-.2l-1.2 2.171Zm175.3 123.849c-.5.888-1.6 1.085-3.5.79-12-1.284-48.6-19.145-91.9-45-50.4-30.198-92-57.632-87.4-64.836l1.2-2.171.2.098c-4 12.237 82.1 61.382 87.2 64.639 49.8 30.79 91.8 48.848 95.5 44.21Zm0 0" style="fill-rule:evenodd;fill:#ff0;fill-opacity:1;stroke-width:.6;stroke-linecap:round;stroke-linejoin:round;stroke:#000;stroke-opacity:1;stroke-miterlimit:4" transform="scale(.03906 .03958)"/><path d="M256.2 207.237c32.2-.296 72-4.44 95-13.619l-5-7.993c-13.5 7.5-53.5 12.434-90.3 13.224-43.4-.494-74.1-4.54-89.5-14.803l-4.6 8.586c28.2 11.94 57.2 14.506 94.4 14.605" style="fill-rule:evenodd;fill:#ff0;fill-opacity:1;stroke-width:.6;stroke-linecap:round;stroke-linejoin:round;stroke:#000;stroke-opacity:1;stroke-miterlimit:4" transform="scale(.03906 .03958)"/><path d="M352.5 193.816c-.8 1.283-15.8 6.414-37.8 10.164-19.4 2.96-39 4.441-58.6 4.342-18.8 0-37.6-1.184-56.2-3.65-23.1-3.554-35-8.586-39.5-10.363l1.1-2.17c12.7 4.933 24.7 7.993 38.7 10.164 18.5 2.467 37.1 3.75 55.8 3.65 19.5.1 39-1.38 58.3-4.242 22.5-3.75 34.8-8.389 36.6-10.56Zm-4.4-8.092c-2.4 1.973-14.6 6.315-36 9.67-18.5 2.665-37.1 4.047-55.8 4.047-22 0-40.1-1.678-53.8-3.652-21.8-2.763-33.4-7.993-37.6-9.375l1.3-2.17c3.3 1.677 14.4 6.118 36.5 9.276 17.8 2.368 35.7 3.454 53.6 3.355 18.5 0 37.1-1.283 55.4-3.947 21.5-3.06 33.1-8.389 34.9-9.869ZM150.3 246.02c19.8 10.658 63.9 15.987 105.6 16.381 38 .099 87.4-5.822 105.9-15.592l-.5-10.756c-5.8 9.079-58.8 17.763-105.8 17.467s-90.7-7.599-105.3-16.974v9.474" style="fill-rule:evenodd;fill:#ff0;fill-opacity:1;stroke-width:.6;stroke-linecap:round;stroke-linejoin:round;stroke:#000;stroke-opacity:1;stroke-miterlimit:4" transform="scale(.03906 .03958)"/><path d="M362.8 244.54v2.467c-2.8 3.355-20.2 8.388-42 12.04-21.7 3.058-43.5 4.539-65.4 4.341-20.7.198-41.5-1.283-62-4.243-15.3-1.777-30.3-5.823-44.4-12.04v-2.862c9.7 6.316 35.9 11.152 44.7 12.533 15.8 2.467 36.1 4.244 61.7 4.244 26.9 0 48.4-1.875 65-4.441 15.7-2.27 38-8.19 42.4-12.04m0-9.078v2.565c-2.8 3.257-20.2 8.29-42 11.842-21.7 3.158-43.5 4.639-65.4 4.54-20.7.099-41.5-1.283-62-4.342a157.3 157.3 0 0 1-44.4-11.941v-3.06c9.7 6.514 36 11.25 44.7 12.632 20.4 2.96 41.1 4.441 61.7 4.342 26.9 0 48.5-2.072 65-4.539 15.7-2.171 38-8.092 42.4-12.04m-107 68.882c-45.6-.197-84.7-12.434-93-14.408l6 9.375a248.7 248.7 0 0 0 87.4 14.31c34.7-.987 65-3.75 86.3-14.112l6.2-9.77c-14.5 6.908-64 14.605-93 14.605" style="fill-rule:evenodd;fill:#ff0;fill-opacity:1;stroke-width:.6;stroke-linecap:round;stroke-linejoin:round;stroke:#000;stroke-opacity:1;stroke-miterlimit:4" transform="scale(.03906 .03958)"/><path d="m344.9 297.336-2.8 3.947c-10 3.651-26 7.401-32.6 8.388a288.5 288.5 0 0 1-53.7 5.033c-40.4-.592-73.5-8.487-89-15.296l-1.3-2.072.2-.395 2.1.888c28.5 9.375 58.2 14.31 88.2 14.507 18.8 0 37.5-2.172 52.6-4.836 23.2-4.737 32.6-8.19 35.5-9.77l.7-.394Zm5.3-8.882-2 3.553c-5.4 1.973-20 6.217-41.3 9.177-14 1.875-22.7 3.849-50.6 4.342-31.9-.296-63.6-5.033-94.2-14.013l-1.1-2.467c31.1 8.586 63.1 13.224 95.4 13.915 25.5-.494 36.4-2.369 50.3-4.244 24.8-3.849 37.3-7.993 41-9.079v-.197l2.6-1.086Zm0 0" style="fill-rule:evenodd;fill:#ff0;fill-opacity:1;stroke-width:.6;stroke-linecap:round;stroke-linejoin:round;stroke:#000;stroke-opacity:1;stroke-miterlimit:4" transform="scale(.03906 .03958)"/><path d="M350.8 237.632c.1 30-15.3 56.94-27.6 68.782-18.1 17.764-42.4 27.83-67.8 28.224-30.3.494-58.8-19.243-66.5-27.927-17.2-18.257-27-42.336-27.5-67.402 1.8-32.763 14.7-55.658 33.3-71.348 18.1-14.803 40.8-22.797 64.2-22.698 27.6 1.382 53.4 14.31 71 35.625 12.5 15.198 18 31.678 20.9 56.744M255.6 135c58.2 0 105.6 46.974 106 105.197 0 58.421-47.3 105.691-105.7 105.691s-105.7-47.27-105.7-105.69C150.1 182.17 197.5 135 255.6 135" style="fill-rule:evenodd;fill:#ff0;fill-opacity:1;stroke-width:.6;stroke-linecap:round;stroke-linejoin:round;stroke:#000;stroke-opacity:1;stroke-miterlimit:4" transform="scale(.03906 .03958)"/><path d="M255.9 134.507c58.2 0 105.6 47.368 105.6 105.592S314.1 345.69 256 345.69s-105.6-47.369-105.6-105.592S197.8 134.507 256 134.507ZM152.6 240c0 56.842 46.7 103.322 103.3 103.322S359.2 296.842 359.2 240s-46.7-103.322-103.3-103.322S152.6 183.158 152.6 240" style="fill-rule:evenodd;fill:#ff0;fill-opacity:1;stroke-width:.6;stroke-linecap:round;stroke-linejoin:round;stroke:#000;stroke-opacity:1;stroke-miterlimit:4" transform="scale(.03906 .03958)"/><path d="M256 143.29c53.3.197 96.5 43.42 96.7 96.71-.1 53.388-43.3 96.612-96.7 96.81-53 0-96.7-43.62-96.7-96.81.2-53.29 43.4-96.513 96.7-96.71M161.6 240c0 52.007 42.6 94.44 94.4 94.44s94.4-42.532 94.4-94.44-42.6-94.44-94.4-94.44c-52 .394-94.1 42.433-94.4 94.44" style="fill-rule:evenodd;fill:#ff0;fill-opacity:1;stroke-width:.6;stroke-linecap:round;stroke-linejoin:round;stroke:#000;stroke-opacity:1;stroke-miterlimit:4" transform="scale(.03906 .03958)"/><path d="M260.3 134.013h-9.1v212.27h9Zm0 0" style="fill-rule:evenodd;fill:#ff0;fill-opacity:1;stroke-width:.6;stroke-linecap:round;stroke-linejoin:round;stroke:#000;stroke-opacity:1;stroke-miterlimit:4" transform="scale(.03906 .03958)"/><path d="M259.3 132.829h2.3v214.638h-2.2V132.83Zm-9 0h2.4v214.638h-2.3Zm0 0" style="fill-rule:evenodd;fill:#ff0;fill-opacity:1;stroke-width:.6;stroke-linecap:round;stroke-linejoin:round;stroke:#000;stroke-opacity:1;stroke-miterlimit:4" transform="scale(.03906 .03958)"/><path d="M361.6 244.243v-7.796l-6.4-6.02-36.3-9.67-52.2-5.23-63 3.157-44.8 10.658-9 6.612v7.993l22.9-10.361 54.4-8.487h52.3l38.4 4.243 26.6 6.316Zm0 0" style="fill-rule:evenodd;fill:#ff0;fill-opacity:1;stroke-width:.6;stroke-linecap:round;stroke-linejoin:round;stroke:#000;stroke-opacity:1;stroke-miterlimit:4" transform="scale(.03906 .03958)"/><path d="M256 223.816c24.9 0 49 2.27 68.3 6.02 19.8 3.947 33.7 8.98 38.5 14.506v2.763c-5.8-7.006-24.5-12.04-39-15-19-3.651-43-6.02-67.9-6.02-26.1 0-50.5 2.566-69.3 6.218-15 2.96-35.1 8.98-37.6 14.802v-2.862c1.3-4.046 16.3-10.065 37.3-14.309 18.9-3.75 43.3-6.118 69.6-6.118Zm0-9.08c22.9-.098 45.8 1.975 68.3 5.922 19.8 4.046 33.7 9.079 38.5 14.605v2.763c-5.8-6.908-24.5-12.04-39-14.901-19-3.75-43-6.02-67.9-6.02-23.2-.098-46.4 1.974-69.2 6.217-14.5 2.665-35.4 8.882-37.7 14.704v-2.862c1.4-3.947 16.6-10.263 37.3-14.309 19-3.651 43.3-6.118 69.7-6.118m-.6-46.283c39.3-.197 73.6 5.526 89.3 13.52l5.7 10.065c-13.6-7.4-50.6-15-94.9-14.013-36.1.296-74.7 3.948-94 14.408l6.8-11.447c15.9-8.29 53.3-12.533 87.1-12.533" style="fill-rule:evenodd;fill:#ff0;fill-opacity:1;stroke-width:.6;stroke-linecap:round;stroke-linejoin:round;stroke:#000;stroke-opacity:1;stroke-miterlimit:4" transform="scale(.03906 .03958)"/><path d="M256 176.743c20.5-.394 41 1.086 61.3 4.244 16 3.06 31.3 7.401 33.5 9.77l1.7 3.059c-5.3-3.454-18.6-7.303-35.6-10.56-17-3.157-38.7-4.243-61-4.144-25.3-.099-45 1.184-61.8 4.145-11.6 1.677-22.8 5.131-33.3 10.361l1.7-3.157c6-2.961 15.3-6.612 31.1-9.573 17.5-3.158 37.4-4.046 62.4-4.145m0-9.079c21.4-.197 42.6.987 59.1 4.047 10.7 1.578 21 4.934 30.6 9.967l2.5 4.046c-4.2-4.737-20-9.178-34.1-11.645-16.4-2.862-36.7-3.947-58.1-4.145-19.9-.197-39.8 1.283-59.5 4.342a99.9 99.9 0 0 0-29.6 9.08l2.2-3.257c5.8-2.96 15.2-5.823 27-8.092 19.8-3.158 39.8-4.639 59.9-4.441Zm52.4 116.35c-17.3-3.06-34.9-4.343-52.5-4.047-65.5.79-86.6 13.52-89.2 17.369l-5-7.994c16.8-12.04 52.4-18.849 94.6-18.256 21.9.394 40.8 1.973 56.6 5.032l-4.5 7.994" style="fill-rule:evenodd;fill:#ff0;fill-opacity:1;stroke-width:.6;stroke-linecap:round;stroke-linejoin:round;stroke:#000;stroke-opacity:1;stroke-miterlimit:4" transform="scale(.03906 .03958)"/><path d="M255.6 278.882c18.2.296 36 .986 53.3 4.243l-1.2 2.171c-16-2.96-33.2-3.947-52-3.947-24.3-.296-48.7 2.072-70 8.19-6.7 1.875-17.8 6.119-19 9.77l-1.2-1.973c.4-2.27 7-6.612 19.6-10.066 24.4-7.007 47.2-8.29 70.5-8.388m.8-9.178c19.2 0 38.4 1.678 57.3 5.033l-1.3 2.27c-18.5-3.356-37.2-5.033-56-4.935-24.2 0-49.9 1.875-73.3 8.586-7.5 2.27-20.6 7.006-21 10.756l-1.2-2.17c.2-3.455 11.5-7.895 21.7-10.856 23.5-6.908 49.3-8.585 73.8-8.684" style="fill-rule:evenodd;fill:#ff0;fill-opacity:1;stroke-width:.6;stroke-linecap:round;stroke-linejoin:round;stroke:#000;stroke-opacity:1;stroke-miterlimit:4" transform="scale(.03906 .03958)"/><path d="m349.4 290.526-7.8 12.237-22.7-20.033-58.6-39.572-66.2-36.217-34.3-11.744 7.3-13.618 2.5-1.283 21.3 5.329 70.4 36.316 40.6 25.559 34.1 24.474 13.9 15.987Zm0 0" style="fill-rule:evenodd;fill:#ff0;fill-opacity:1;stroke-width:.6;stroke-linecap:round;stroke-linejoin:round;stroke:#000;stroke-opacity:1;stroke-miterlimit:4" transform="scale(.03906 .03958)"/><path d="M158.6 195.493c6-3.947 50.2 15.593 96.6 43.619 46.1 28.026 90.3 59.605 86.3 65.526l-1.3 2.073-.6.493c.1-.099.8-.987 0-3.06-2-6.512-33.4-31.578-85.3-62.96-50.7-30.098-92.9-48.256-97-43.125ZM351 290.428c3.8-7.6-37.2-38.487-88.1-68.586-52-29.506-89.6-46.974-96.5-41.743l-1.4 2.862c-.1 0 .1-.1.4-.494 1.2-.987 3.3-.987 4.2-.987 11.8.198 45.5 15.691 92.8 42.83 20.8 12.039 87.6 54.966 87.3 67.006 0 .987.1 1.184-.3 1.776l1.7-2.566Zm0 0" style="fill-rule:evenodd;fill:#ff0;fill-opacity:1;stroke-width:.6;stroke-linecap:round;stroke-linejoin:round;stroke:#000;stroke-opacity:1;stroke-miterlimit:4" transform="scale(.03906 .03958)"/><path d="M180.562 210.978c.094 15.727 6.375 30.715 17.531 41.724 11.063 11.195 26.063 17.578 41.813 17.578 15.75.093 30.843-6.198 42-17.393 11.156-11.009 17.343-26.09 17.437-41.817v-79.194l-118.781-.185Zm0 0" style="fill-rule:nonzero;fill:#fff;fill-opacity:1;stroke-width:.7;stroke-linecap:butt;stroke-linejoin:miter;stroke:#000;stroke-opacity:1;stroke-miterlimit:4" transform="matrix(.04167 0 0 .04222 0 1.057)"/><path d="M183 211.07c0 15.08 6.093 29.513 16.78 40.06 10.688 10.639 25.126 16.745 40.22 16.745s29.53-5.921 40.218-16.56c10.687-10.547 16.687-24.98 16.687-40.06v-76.973H183v76.788m91.031-53.66v48.85l-.093 5.18c.093 8.974-3.563 17.67-10.032 23.962-6.375 6.383-15 9.992-24 9.992-9.374 0-17.718-3.979-23.906-10.177-6.375-6.384-9.937-14.988-10.03-24.054v-53.937Zm0 0" style="fill-rule:nonzero;fill:red;fill-opacity:1;stroke-width:.5;stroke-linecap:butt;stroke-linejoin:miter;stroke:#000;stroke-opacity:1;stroke-miterlimit:4" transform="matrix(.04167 0 0 .04222 0 1.057)"/><path d="M7.926 7.574c.004-.23.164-.285.164-.285.008 0 .18.059.18.293Zm0 0" style="stroke:none;fill-rule:nonzero;fill:#ff0;fill-opacity:1"/><path d="m186.843 147.697-.75 6.29h4.219c0-5.18 4.031-6.013 4.031-6.013.094 0 3.938 1.11 4.031 6.014h4.22l-.75-6.384Zm-1.031 6.383h16.969c.375 0 .562.278.656.74 0 .555-.281.74-.656.74h-16.97c-.374 0-.562-.185-.655-.74 0-.462.28-.74.75-.74Zm0 0" style="fill-rule:nonzero;fill:#ff0;fill-opacity:1;stroke-width:.5;stroke-linecap:butt;stroke-linejoin:miter;stroke:#000;stroke-opacity:1;stroke-miterlimit:4" transform="matrix(.04167 0 0 .04222 0 1.057)"/><path d="M192 153.988c0-3.331 2.343-4.164 2.343-4.164s2.25 1.018 2.25 4.164H192m-5.812-8.974h16.312c.375.092.563.277.563.832q0 .417-.563.555h-16.312c-.281 0-.563-.277-.563-.74q0-.415.563-.555Zm.375 1.48h15.469c.28 0 .468.277.562.74s-.094.648-.562.648h-15.563c-.375 0-.562-.185-.562-.648s.187-.74.562-.74Zm5.062-10.64h1.22v.833h.843v-.833h1.312v.926h.938v-1.018h1.125v2.035c0 .37-.094.648-.469.648h-4.406c-.281 0-.563-.185-.563-.555Zm4.594 2.776.281 6.384h-4.312l.281-6.477h3.75M190.968 141.59v3.424h-3.937v-3.424Zm0 0" style="fill-rule:nonzero;fill:#ff0;fill-opacity:1;stroke-width:.5;stroke-linecap:butt;stroke-linejoin:miter;stroke:#000;stroke-opacity:1;stroke-miterlimit:4" transform="matrix(.04167 0 0 .04222 0 1.057)"/><path d="M190.962 141.59v3.424h-3.938v-3.424Zm0 0" style="fill-rule:nonzero;fill:#ff0;fill-opacity:1;stroke-width:.5;stroke-linecap:butt;stroke-linejoin:miter;stroke:#000;stroke-opacity:1;stroke-miterlimit:4" transform="matrix(.04167 0 0 .04222 .442 1.057)"/><path d="M186.28 139h1.22v1.018h.937V139h1.125v1.018h.937V139h1.22v2.035q0 .555-.563.555h-4.22c-.28-.092-.562-.277-.655-.555Zm0 0" style="fill-rule:nonzero;fill:#ff0;fill-opacity:1;stroke-width:.5;stroke-linecap:butt;stroke-linejoin:miter;stroke:#000;stroke-opacity:1;stroke-miterlimit:4" transform="matrix(.04167 0 0 .04222 0 1.057)"/><path d="M186.274 139h1.22v1.018h.937V139h1.125v1.018h.937V139h1.219v2.035c0 .37-.188.555-.469.555h-4.312c-.282-.092-.563-.277-.657-.555Zm0 0" style="fill-rule:nonzero;fill:#ff0;fill-opacity:1;stroke-width:.5;stroke-linecap:butt;stroke-linejoin:miter;stroke:#000;stroke-opacity:1;stroke-miterlimit:4" transform="matrix(.04167 0 0 .04222 .442 1.057)"/><path d="M8.078 6.992c0-.023.04-.023.04 0v.07h-.04ZM7.86 7.086c0-.024.03-.024.03 0v.05h-.03ZM8.3 7.086c0-.024.032-.024.032 0v.05h-.031Zm0 0" style="stroke:none;fill-rule:nonzero;fill:#000001;fill-opacity:1"/><path d="M7.926 9.531c.004-.234.164-.289.164-.289.008 0 .18.063.18.293Zm0 0" style="stroke:none;fill-rule:nonzero;fill:#ff0;fill-opacity:1"/><path d="m186.843 147.655-.75 6.383h4.219c0-5.273 4.031-6.013 4.031-6.013.094 0 3.938 1.11 4.031 6.013h4.22l-.75-6.476Zm-1.031 6.476h16.969c.375 0 .562.185.656.647 0 .555-.281.833-.656.833h-16.97c-.374 0-.562-.278-.655-.833 0-.462.28-.647.75-.647Zm0 0" style="fill-rule:nonzero;fill:#ff0;fill-opacity:1;stroke-width:.5;stroke-linecap:butt;stroke-linejoin:miter;stroke:#000;stroke-opacity:1;stroke-miterlimit:4" transform="matrix(.04167 0 0 .04222 0 3.012)"/><path d="M192 154.038c0-3.33 2.343-4.256 2.343-4.256s2.25 1.018 2.25 4.256H192m-5.812-9.066h16.312q.563.138.563.832 0 .555-.563.555h-16.312c-.281 0-.563-.185-.563-.647 0-.37.188-.555.563-.648Zm.375 1.572h15.469c.28 0 .468.185.562.648s-.094.74-.562.74h-15.563c-.375 0-.562-.277-.562-.74s.187-.648.562-.648Zm5.062-10.639h1.22v.833h.843v-.833h1.312v.925h.938v-1.017h1.125v1.942c0 .463-.094.648-.469.648h-4.406c-.281 0-.563-.185-.563-.463Zm4.594 2.683.281 6.384h-4.312l.281-6.477h3.75M190.968 141.641v3.33h-3.937v-3.33Zm0 0" style="fill-rule:nonzero;fill:#ff0;fill-opacity:1;stroke-width:.5;stroke-linecap:butt;stroke-linejoin:miter;stroke:#000;stroke-opacity:1;stroke-miterlimit:4" transform="matrix(.04167 0 0 .04222 0 3.012)"/><path d="M190.962 141.641v3.33h-3.938v-3.33Zm0 0" style="fill-rule:nonzero;fill:#ff0;fill-opacity:1;stroke-width:.5;stroke-linecap:butt;stroke-linejoin:miter;stroke:#000;stroke-opacity:1;stroke-miterlimit:4" transform="matrix(.04167 0 0 .04222 .442 3.012)"/><path d="M186.28 138.958h1.22v1.018h.937v-1.018h1.125v1.018h.937v-1.018h1.22v2.035c0 .37-.188.648-.563.648h-4.22c-.28-.185-.562-.37-.655-.648Zm0 0" style="fill-rule:nonzero;fill:#ff0;fill-opacity:1;stroke-width:.5;stroke-linecap:butt;stroke-linejoin:miter;stroke:#000;stroke-opacity:1;stroke-miterlimit:4" transform="matrix(.04167 0 0 .04222 0 3.012)"/><path d="M186.274 138.958h1.22v1.018h.937v-1.018h1.125v1.018h.937v-1.018h1.219v2.035c0 .37-.188.648-.469.648h-4.312c-.282-.185-.563-.37-.657-.648Zm0 0" style="fill-rule:nonzero;fill:#ff0;fill-opacity:1;stroke-width:.5;stroke-linecap:butt;stroke-linejoin:miter;stroke:#000;stroke-opacity:1;stroke-miterlimit:4" transform="matrix(.04167 0 0 .04222 .442 3.012)"/><path d="M8.078 8.95c0-.028.04-.028.04 0v.066h-.04ZM7.86 9.043c0-.027.03-.027.03 0v.047h-.03ZM8.3 9.043c0-.027.032-.027.032 0v.047h-.031Zm0 0" style="stroke:none;fill-rule:nonzero;fill:#000001;fill-opacity:1"/><path d="M8.676 11.566c-.16-.164-.082-.32-.082-.32.004-.004.168-.086.328.078Zm0 0" style="stroke:none;fill-rule:nonzero;fill:#ff0;fill-opacity:1"/><path d="m186.767 147.727-.705 6.25 4.215.042c.05-5.202 4.064-6.018 4.064-6.018s3.954 1.094 4.036 6.034l4.214-.09-.81-6.33Zm-.968 6.378 16.99.04c.329-.062.593.204.66.666.002.527-.26.787-.655.783l-16.99-.04c-.33.063-.528-.269-.595-.73-.002-.527.195-.723.722-.717Zm0 0" style="fill-rule:nonzero;fill:#ff0;fill-opacity:1;stroke-width:.5;stroke-linecap:butt;stroke-linejoin:miter;stroke:#000;stroke-opacity:1;stroke-miterlimit:4" transform="matrix(.02936 -.02996 .02957 .02975 -1.472 12.673)"/><path d="M191.99 154.036c-.011-3.293 2.29-4.257 2.29-4.257s2.308 1.011 2.318 4.172l-4.609.085m-5.823-9.015 16.331.034c.33.069.528.268.595.73q.001.592-.59.587l-16.266.033c-.395-.004-.593-.204-.66-.665-.002-.396.195-.591.656-.652Zm.4 1.453 15.409.024c.395.004.527.269.595.73.067.462-.13.658-.525.654l-15.54-.026c-.396-.004-.594-.203-.661-.665.064-.46.26-.656.656-.652Zm5.037-10.552 1.185.012.003.79.922.01-.003-.79 1.251-.053.003.922.922.009-.003-1.054 1.185.012.073 2.042q0 .593-.591.587l-4.347-.044c-.329.063-.527-.137-.594-.467Zm4.618 2.681.284 6.457-4.347-.044.31-6.516 3.753-.028M190.962 141.58l.011 3.424-3.951-.04-.077-3.36Zm0 0" style="fill-rule:nonzero;fill:#ff0;fill-opacity:1;stroke-width:.5;stroke-linecap:butt;stroke-linejoin:miter;stroke:#000;stroke-opacity:1;stroke-miterlimit:4" transform="matrix(.02936 -.02996 .02957 .02975 -1.472 12.673)"/><path d="m190.964 141.62.077 3.36-4.017.025-.01-3.424Zm0 0" style="fill-rule:nonzero;fill:#ff0;fill-opacity:1;stroke-width:.5;stroke-linecap:butt;stroke-linejoin:miter;stroke:#000;stroke-opacity:1;stroke-miterlimit:4" transform="rotate(-44.82 14.4 7.585)scale(.04194)skewY(-.759)"/><path d="m186.279 138.964 1.185.012.003 1.053.922.01-.003-1.054 1.185.012.07.989.856.074-.004-1.054 1.186.012.006 1.976c.001.395-.196.59-.46.588l-4.28.023c-.329-.07-.593-.336-.594-.599Zm0 0" style="fill-rule:nonzero;fill:#ff0;fill-opacity:1;stroke-width:.5;stroke-linecap:butt;stroke-linejoin:miter;stroke:#000;stroke-opacity:1;stroke-miterlimit:4" transform="matrix(.02936 -.02996 .02957 .02975 -1.472 12.673)"/><path d="m186.28 139.005 1.186.012.07.989.855-.058-.003-.922 1.185.012.003.922.922.01-.003-.922 1.251-.053-.059 2.04c.001.396-.13.526-.46.588l-4.345-.043a1.3 1.3 0 0 1-.595-.6Zm0 0" style="fill-rule:nonzero;fill:#ff0;fill-opacity:1;stroke-width:.5;stroke-linecap:butt;stroke-linejoin:miter;stroke:#000;stroke-opacity:1;stroke-miterlimit:4" transform="rotate(-44.82 14.4 7.585)scale(.04194)skewY(-.759)"/><path d="M8.379 11.047c-.02-.02.008-.043.023-.027l.051.046-.027.028ZM8.285 11.27c-.015-.016.008-.04.024-.024l.039.035-.024.028ZM8.598 10.953c-.016-.015.007-.043.023-.023l.035.035-.023.023Zm0 0" style="stroke:none;fill-rule:nonzero;fill:#000001;fill-opacity:1"/><path d="M9.828 7.574c.004-.23.168-.285.168-.285.004 0 .18.059.18.293Zm0 0" style="stroke:none;fill-rule:nonzero;fill:#ff0;fill-opacity:1"/><path d="m186.8 147.697-.657 6.29h4.125c0-5.18 4.031-6.013 4.031-6.013.094 0 4.031 1.11 4.125 6.014h4.219l-.844-6.384Zm-1.032 6.383h17.062c.282 0 .47.278.563.74 0 .555-.188.74-.563.74h-17.062c-.281 0-.469-.185-.562-.74 0-.462.187-.74.656-.74Zm0 0" style="fill-rule:nonzero;fill:#ff0;fill-opacity:1;stroke-width:.5;stroke-linecap:butt;stroke-linejoin:miter;stroke:#000;stroke-opacity:1;stroke-miterlimit:4" transform="matrix(.04167 0 0 .04222 1.904 1.057)"/><path d="M191.956 153.988c0-3.331 2.343-4.164 2.343-4.164s2.344 1.018 2.344 4.164h-4.687m-5.72-8.974h16.22c.374.092.562.277.656.832 0 .278-.188.463-.657.555h-16.218c-.375 0-.563-.277-.656-.74 0-.277.187-.462.656-.555Zm.376 1.48h15.375c.375 0 .562.277.656.74 0 .463-.188.648-.656.648h-15.469c-.375 0-.656-.185-.656-.648s.281-.74.656-.74Zm4.969-10.64h1.218v.833h.938v-.833h1.219v.926h.937v-1.018h1.219v2.035c0 .37-.188.648-.469.648h-4.406c-.375 0-.563-.185-.656-.555Zm4.593 2.776.282 6.384h-4.22l.282-6.477h3.656M191.018 141.59v3.424h-4.031v-3.424Zm0 0" style="fill-rule:nonzero;fill:#ff0;fill-opacity:1;stroke-width:.5;stroke-linecap:butt;stroke-linejoin:miter;stroke:#000;stroke-opacity:1;stroke-miterlimit:4" transform="matrix(.04167 0 0 .04222 1.904 1.057)"/><path d="M191.012 141.59v3.424h-4.031v-3.424Zm0 0" style="fill-rule:nonzero;fill:#ff0;fill-opacity:1;stroke-width:.5;stroke-linecap:butt;stroke-linejoin:miter;stroke:#000;stroke-opacity:1;stroke-miterlimit:4" transform="matrix(.04167 0 0 .04222 2.346 1.057)"/><path d="M186.33 139h1.126v1.018h.937V139h1.219v1.018h.844V139h1.218v2.035c0 .37-.187.555-.468.555h-4.313a.84.84 0 0 1-.562-.555Zm0 0" style="fill-rule:nonzero;fill:#ff0;fill-opacity:1;stroke-width:.5;stroke-linecap:butt;stroke-linejoin:miter;stroke:#000;stroke-opacity:1;stroke-miterlimit:4" transform="matrix(.04167 0 0 .04222 1.904 1.057)"/><path d="M186.324 139h1.219v1.018h.844V139h1.218v1.018h.938V139h1.125v2.035c0 .37-.094.555-.469.555h-4.312a.84.84 0 0 1-.563-.555Zm0 0" style="fill-rule:nonzero;fill:#ff0;fill-opacity:1;stroke-width:.5;stroke-linecap:butt;stroke-linejoin:miter;stroke:#000;stroke-opacity:1;stroke-miterlimit:4" transform="matrix(.04167 0 0 .04222 2.346 1.057)"/><path d="M9.984 6.992c0-.023.036-.023.036 0v.07h-.036ZM9.762 7.086c0-.024.035-.024.035 0v.05h-.035ZM10.203 7.086c0-.024.035-.024.035 0v.05h-.035Zm0 0" style="stroke:none;fill-rule:nonzero;fill:#000001;fill-opacity:1"/><path d="M12.066 7.574c-.004-.23-.168-.285-.168-.285-.003 0-.175.059-.175.293Zm0 0" style="stroke:none;fill-rule:nonzero;fill:#ff0;fill-opacity:1"/><path d="m186.832 147.697-.75 6.29h4.219c0-5.18 4.031-6.013 4.031-6.013.094 0 3.938 1.11 4.031 6.014h4.22l-.75-6.384Zm-1.031 6.383h16.969c.375 0 .562.278.656.74 0 .555-.188.74-.656.74H185.8c-.374 0-.562-.185-.562-.74 0-.462.188-.74.657-.74Zm0 0" style="fill-rule:nonzero;fill:#ff0;fill-opacity:1;stroke-width:.5;stroke-linecap:butt;stroke-linejoin:miter;stroke:#000;stroke-opacity:1;stroke-miterlimit:4" transform="matrix(-.04167 0 0 .04222 19.992 1.057)"/><path d="M191.988 153.988c0-3.331 2.344-4.164 2.344-4.164s2.25 1.018 2.25 4.164h-4.594m-5.812-8.974h16.312c.375.092.563.277.657.832 0 .278-.282.463-.657.555h-16.312c-.281 0-.469-.277-.563-.74q0-.415.563-.555Zm.469 1.48h15.375c.28 0 .468.277.562.74s-.094.648-.562.648h-15.563c-.375 0-.562-.185-.562-.648s.187-.74.562-.74Zm4.968-10.64h1.22v.833h.843v-.833h1.312v.926h.938v-1.018h1.219v2.035c0 .37-.188.648-.563.648h-4.406q-.422 0-.563-.555Zm4.594 2.776.281 6.384h-4.312l.281-6.477h3.75M190.957 141.59v3.424h-3.937v-3.424Zm0 0" style="fill-rule:nonzero;fill:#ff0;fill-opacity:1;stroke-width:.5;stroke-linecap:butt;stroke-linejoin:miter;stroke:#000;stroke-opacity:1;stroke-miterlimit:4" transform="matrix(-.04167 0 0 .04222 19.992 1.057)"/><path d="M191.045 141.59v3.424h-4.032v-3.424Zm0 0" style="fill-rule:nonzero;fill:#ff0;fill-opacity:1;stroke-width:.5;stroke-linecap:butt;stroke-linejoin:miter;stroke:#000;stroke-opacity:1;stroke-miterlimit:4" transform="matrix(-.04167 0 0 .04222 19.55 1.057)"/><path d="M186.27 139h1.218v1.018h.938V139h1.219v1.018h.843V139h1.22v2.035c0 .37-.188.555-.47.555h-4.312c-.281-.092-.563-.277-.656-.555Zm0 0" style="fill-rule:nonzero;fill:#ff0;fill-opacity:1;stroke-width:.5;stroke-linecap:butt;stroke-linejoin:miter;stroke:#000;stroke-opacity:1;stroke-miterlimit:4" transform="matrix(-.04167 0 0 .04222 19.992 1.057)"/><path d="M186.263 139h1.22v1.018h.937V139h1.218v1.018h.844V139h1.219v2.035c0 .37-.188.555-.469.555h-4.312c-.282-.092-.563-.277-.657-.555Zm0 0" style="fill-rule:nonzero;fill:#ff0;fill-opacity:1;stroke-width:.5;stroke-linecap:butt;stroke-linejoin:miter;stroke:#000;stroke-opacity:1;stroke-miterlimit:4" transform="matrix(-.04167 0 0 .04222 19.55 1.057)"/><path d="M11.914 6.992c0-.023-.039-.023-.039 0v.07h.04ZM12.133 7.086c0-.024-.031-.024-.031 0v.05h.03ZM11.691 7.086c0-.024-.03-.024-.03 0v.05h.03Zm0 0" style="stroke:none;fill-rule:nonzero;fill:#000001;fill-opacity:1"/><path d="M12.066 9.531c-.004-.234-.168-.289-.168-.289-.003 0-.175.063-.175.293Zm0 0" style="stroke:none;fill-rule:nonzero;fill:#ff0;fill-opacity:1"/><path d="m186.832 147.655-.75 6.383h4.219c0-5.273 4.031-6.013 4.031-6.013.094 0 3.938 1.11 4.031 6.013h4.22l-.75-6.476Zm-1.031 6.476h16.969c.375 0 .562.185.656.647 0 .555-.188.833-.656.833H185.8q-.561 0-.562-.833c0-.462.188-.647.657-.647Zm0 0" style="fill-rule:nonzero;fill:#ff0;fill-opacity:1;stroke-width:.5;stroke-linecap:butt;stroke-linejoin:miter;stroke:#000;stroke-opacity:1;stroke-miterlimit:4" transform="matrix(-.04167 0 0 .04222 19.992 3.012)"/><path d="M191.988 154.038c0-3.33 2.344-4.256 2.344-4.256s2.25 1.018 2.25 4.256h-4.594m-5.812-9.066h16.312c.375.092.563.37.657.832 0 .37-.282.555-.657.555h-16.312c-.281 0-.469-.185-.563-.647 0-.37.188-.555.563-.648Zm.469 1.572h15.375c.28 0 .468.185.562.648s-.094.74-.562.74h-15.563c-.375 0-.562-.277-.562-.74s.187-.648.562-.648Zm4.968-10.639h1.22v.833h.843v-.833h1.312v.925h.938v-1.017h1.219v1.942c0 .463-.188.648-.563.648h-4.406c-.281 0-.469-.185-.563-.463Zm4.594 2.683.281 6.384h-4.312l.281-6.477h3.75M190.957 141.641v3.33h-3.937v-3.33Zm0 0" style="fill-rule:nonzero;fill:#ff0;fill-opacity:1;stroke-width:.5;stroke-linecap:butt;stroke-linejoin:miter;stroke:#000;stroke-opacity:1;stroke-miterlimit:4" transform="matrix(-.04167 0 0 .04222 19.992 3.012)"/><path d="M191.045 141.641v3.33h-4.032v-3.33Zm0 0" style="fill-rule:nonzero;fill:#ff0;fill-opacity:1;stroke-width:.5;stroke-linecap:butt;stroke-linejoin:miter;stroke:#000;stroke-opacity:1;stroke-miterlimit:4" transform="matrix(-.04167 0 0 .04222 19.55 3.012)"/><path d="M186.27 138.958h1.218v1.018h.938v-1.018h1.219v1.018h.843v-1.018h1.22v2.035c0 .37-.188.648-.47.648h-4.312c-.281-.185-.563-.37-.656-.648Zm0 0" style="fill-rule:nonzero;fill:#ff0;fill-opacity:1;stroke-width:.5;stroke-linecap:butt;stroke-linejoin:miter;stroke:#000;stroke-opacity:1;stroke-miterlimit:4" transform="matrix(-.04167 0 0 .04222 19.992 3.012)"/><path d="M186.263 138.958h1.22v1.018h.937v-1.018h1.218v1.018h.844v-1.018h1.219v2.035c0 .37-.188.648-.469.648h-4.312c-.282-.185-.563-.37-.657-.648Zm0 0" style="fill-rule:nonzero;fill:#ff0;fill-opacity:1;stroke-width:.5;stroke-linecap:butt;stroke-linejoin:miter;stroke:#000;stroke-opacity:1;stroke-miterlimit:4" transform="matrix(-.04167 0 0 .04222 19.55 3.012)"/><path d="M11.914 8.95c0-.028-.039-.028-.039 0v.066h.04ZM12.133 9.043c0-.027-.031-.027-.031 0v.047h.03ZM11.691 9.043c0-.027-.03-.027-.03 0v.047h.03Zm0 0" style="stroke:none;fill-rule:nonzero;fill:#000001;fill-opacity:1"/><path d="M11.316 11.566c.157-.164.082-.32.082-.32-.003-.004-.168-.086-.332.078Zm0 0" style="stroke:none;fill-rule:nonzero;fill:#ff0;fill-opacity:1"/><path d="m186.76 147.72-.64 6.315 4.15-.024c.049-5.202 4.063-6.017 4.063-6.017.066.066 3.955 1.093 4.036 6.033l4.28-.022-.876-6.397Zm-.968 6.378 16.99.04c.328-.063.592.203.66.665.001.527-.261.787-.656.783l-16.99-.04c-.329.063-.528-.268-.595-.73-.002-.527.195-.722.722-.717Zm0 0" style="fill-rule:nonzero;fill:#ff0;fill-opacity:1;stroke-width:.5;stroke-linecap:butt;stroke-linejoin:miter;stroke:#000;stroke-opacity:1;stroke-miterlimit:4" transform="matrix(-.02936 -.02996 -.02957 .02975 21.464 12.673)"/><path d="M191.981 154.028c-.01-3.292 2.292-4.257 2.292-4.257s2.308 1.011 2.318 4.172l-4.61.085m-5.823-9.015 16.331.034c.33.069.528.269.595.73q.003.592-.59.587l-16.266.033c-.395-.004-.593-.204-.66-.665-.001-.395.195-.59.656-.652Zm.466 1.52 15.343-.043c.395.004.528.27.595.73.067.462-.13.658-.525.654l-15.54-.025q-.594-.006-.595-.6c-.002-.526.195-.722.59-.718Zm4.971-10.618 1.186.012.002.79.922.01-.002-.791 1.25-.053.004.922.921.01-.003-1.055 1.252.079.006 1.976q.002.592-.591.586l-4.346-.044c-.33.063-.528-.137-.594-.467Zm4.618 2.68.284 6.457-4.346-.044.308-6.516 3.754-.028M191.02 141.638l-.055 3.358-3.95-.04-.077-3.36Zm0 0" style="fill-rule:nonzero;fill:#ff0;fill-opacity:1;stroke-width:.5;stroke-linecap:butt;stroke-linejoin:miter;stroke:#000;stroke-opacity:1;stroke-miterlimit:4" transform="matrix(-.02936 -.02996 -.02957 .02975 21.464 12.673)"/><path d="m190.957 141.613.076 3.36-4.017.025-.01-3.425Zm0 0" style="fill-rule:nonzero;fill:#ff0;fill-opacity:1;stroke-width:.5;stroke-linecap:butt;stroke-linejoin:miter;stroke:#000;stroke-opacity:1;stroke-miterlimit:4" transform="matrix(-.02936 -.02996 -.02957 .02975 21.153 12.355)"/><path d="m186.337 139.022 1.185.012-.062.988.922.009-.004-1.054 1.186.012.069.989.856.074-.003-1.053 1.185.012.006 1.975c.001.395-.13.657-.46.588l-4.28.023q-.494-.105-.594-.599Zm0 0" style="fill-rule:nonzero;fill:#ff0;fill-opacity:1;stroke-width:.5;stroke-linecap:butt;stroke-linejoin:miter;stroke:#000;stroke-opacity:1;stroke-miterlimit:4" transform="matrix(-.02936 -.02996 -.02957 .02975 21.464 12.673)"/><path d="m186.273 138.997 1.185.012.07.989.921.01-.069-.99 1.186.013.069.988.856-.057-.003-.922 1.25-.053-.059 2.04c.001.396-.13.526-.459.589l-4.346-.044c-.198-.068-.462-.334-.595-.599Zm0 0" style="fill-rule:nonzero;fill:#ff0;fill-opacity:1;stroke-width:.5;stroke-linecap:butt;stroke-linejoin:miter;stroke:#000;stroke-opacity:1;stroke-miterlimit:4" transform="matrix(-.02936 -.02996 -.02957 .02975 21.153 12.355)"/><path d="M11.613 11.047c.02-.02-.008-.043-.027-.027l-.047.046.027.028ZM11.703 11.27c.02-.016-.004-.04-.023-.024l-.035.035.023.028ZM11.395 10.953c.015-.015-.008-.043-.024-.023l-.035.035.023.023Zm0 0" style="stroke:none;fill-rule:nonzero;fill:#000001;fill-opacity:1"/><path d="M9.691 9.602c0 .09.032.175.094.242a.3.3 0 0 0 .219.101.33.33 0 0 0 .223-.101.35.35 0 0 0 .09-.242v-.454H9.69Zm0 0" style="stroke:none;fill-rule:nonzero;fill:#039;fill-opacity:1"/><path d="M9.898 9.32a.06.06 0 0 0-.062-.062.064.064 0 0 0-.063.062c0 .035.032.063.063.063a.06.06 0 0 0 .062-.063M10.246 9.32a.06.06 0 0 0-.062-.062.06.06 0 0 0-.063.062c0 .035.027.063.063.063a.06.06 0 0 0 .062-.063M10.07 9.488a.06.06 0 0 0-.062-.062.06.06 0 0 0-.063.062c0 .035.028.063.063.063a.06.06 0 0 0 .062-.063M9.898 9.664a.064.064 0 0 0-.062-.062.07.07 0 0 0-.063.062c0 .035.032.066.063.066.035 0 .062-.03.062-.066M10.246 9.664a.064.064 0 0 0-.062-.062.064.064 0 0 0-.063.062c0 .035.027.066.063.066.035 0 .062-.03.062-.066m0 0" style="stroke:none;fill-rule:nonzero;fill:#fff;fill-opacity:1"/><path d="M9.691 8.504c0 .09.032.176.094.242a.3.3 0 0 0 .219.102.33.33 0 0 0 .223-.102.35.35 0 0 0 .09-.242V8.05H9.69Zm0 0" style="stroke:none;fill-rule:nonzero;fill:#039;fill-opacity:1"/><path d="M9.898 8.223a.06.06 0 0 0-.062-.063.064.064 0 0 0-.063.063c0 .035.032.062.063.062a.06.06 0 0 0 .062-.062M10.246 8.223a.06.06 0 0 0-.062-.063.06.06 0 0 0-.063.063c0 .035.027.062.063.062a.06.06 0 0 0 .062-.062M10.07 8.39a.06.06 0 0 0-.062-.062.06.06 0 0 0-.063.063c0 .035.028.062.063.062a.06.06 0 0 0 .062-.062M9.898 8.566a.064.064 0 0 0-.062-.062.07.07 0 0 0-.063.062c0 .036.032.067.063.067.035 0 .062-.031.062-.067M10.246 8.566a.064.064 0 0 0-.062-.062.064.064 0 0 0-.063.062c0 .036.027.067.063.067.035 0 .062-.031.062-.067m0 0" style="stroke:none;fill-rule:nonzero;fill:#fff;fill-opacity:1"/><path d="M8.824 9.602c0 .09.031.175.094.242a.3.3 0 0 0 .219.101.33.33 0 0 0 .222-.101.35.35 0 0 0 .09-.242v-.454h-.625Zm0 0" style="stroke:none;fill-rule:nonzero;fill:#039;fill-opacity:1"/><path d="M9.035 9.32a.064.064 0 0 0-.062-.062.06.06 0 0 0-.063.062c0 .035.027.063.063.063a.064.064 0 0 0 .062-.063M9.379 9.32a.06.06 0 0 0-.063-.062.06.06 0 0 0-.062.062c0 .035.027.063.062.063a.06.06 0 0 0 .063-.063M9.203 9.488a.06.06 0 0 0-.062-.062.06.06 0 0 0-.063.062c0 .035.027.063.063.063a.06.06 0 0 0 .062-.063M9.035 9.664a.07.07 0 0 0-.062-.062.064.064 0 0 0-.063.062c0 .035.027.066.063.066.03 0 .062-.03.062-.066M9.379 9.664a.064.064 0 0 0-.063-.062.064.064 0 0 0-.062.062c0 .035.027.066.062.066s.063-.03.063-.066m0 0" style="stroke:none;fill-rule:nonzero;fill:#fff;fill-opacity:1"/><path d="M10.559 9.602a.35.35 0 0 0 .09.242.3.3 0 0 0 .222.101.31.31 0 0 0 .219-.101.35.35 0 0 0 .094-.242v-.454h-.625Zm0 0" style="stroke:none;fill-rule:nonzero;fill:#039;fill-opacity:1"/><path d="M10.766 9.32a.06.06 0 0 0-.063-.062.06.06 0 0 0-.062.062c0 .035.027.063.062.063a.06.06 0 0 0 .063-.063M11.113 9.32a.06.06 0 0 0-.062-.062.06.06 0 0 0-.063.062c0 .035.028.063.063.063a.06.06 0 0 0 .062-.063M10.938 9.488a.06.06 0 0 0-.063-.062.06.06 0 0 0-.062.062c0 .035.027.063.062.063a.06.06 0 0 0 .063-.063M10.766 9.664a.064.064 0 0 0-.063-.062.064.064 0 0 0-.062.062c0 .035.027.066.062.066s.063-.03.063-.066M11.113 9.664a.064.064 0 0 0-.062-.062.064.064 0 0 0-.063.062c0 .035.028.066.063.066s.062-.03.062-.066m0 0" style="stroke:none;fill-rule:nonzero;fill:#fff;fill-opacity:1"/><path d="M9.691 10.691c0 .09.032.176.094.243a.3.3 0 0 0 .219.101.33.33 0 0 0 .223-.101.35.35 0 0 0 .09-.243v-.457H9.69Zm0 0" style="stroke:none;fill-rule:nonzero;fill:#039;fill-opacity:1"/><path d="M9.898 10.41a.06.06 0 0 0-.062-.062.064.064 0 0 0-.063.062c0 .035.032.063.063.063a.06.06 0 0 0 .062-.063M10.246 10.41a.06.06 0 0 0-.062-.062.06.06 0 0 0-.063.062c0 .035.027.063.063.063a.06.06 0 0 0 .062-.063M10.07 10.578a.06.06 0 0 0-.062-.062.06.06 0 0 0-.063.062c0 .035.028.063.063.063a.06.06 0 0 0 .062-.063M9.898 10.754a.06.06 0 0 0-.062-.063.064.064 0 0 0-.063.063c0 .035.032.066.063.066.035 0 .062-.03.062-.066M10.246 10.754a.06.06 0 0 0-.062-.063.06.06 0 0 0-.063.063c0 .035.027.066.063.066.035 0 .062-.03.062-.066m0 0" style="stroke:none;fill-rule:nonzero;fill:#fff;fill-opacity:1"/></svg>