<?xml version="1.0" encoding="UTF-8"?>
<svg xmlns="http://www.w3.org/2000/svg" xmlns:xlink="http://www.w3.org/1999/xlink" width="25px" height="px" viewBox="0 0 25 19" version="1.1">
<g id="surface1">
<path style=" stroke:none;fill-rule:nonzero;fill:rgb(0%,21.960784%,65.882355%);fill-opacity:1;" d="M 0 12.65625 L 25 12.65625 L 25 19 L 0 19 Z M 0 12.65625 "/>
<path style=" stroke:none;fill-rule:nonzero;fill:rgb(100%,100%,100%);fill-opacity:1;" d="M 0 6.332031 L 25 6.332031 L 25 12.667969 L 0 12.667969 Z M 0 6.332031 "/>
<path style=" stroke:none;fill-rule:nonzero;fill:rgb(83.529413%,16.862746%,11.764706%);fill-opacity:1;" d="M 0 0 L 25 0 L 25 6.332031 L 0 6.332031 Z M 0 0 "/>
<path style="fill:none;stroke-width:1.1;stroke-linecap:butt;stroke-linejoin:miter;stroke:rgb(0%,0%,0%);stroke-opacity:1;stroke-miterlimit:4;" d="M 342.167675 164.999481 C 342.167675 141.660739 323.330234 122.799778 300.024058 122.799778 C 276.717881 122.799778 257.81169 141.660739 257.81169 164.999481 C 257.81169 188.338224 276.717881 207.199184 300.024058 207.199184 C 323.330234 207.199184 342.167675 188.338224 342.167675 164.999481 Z M 342.167675 164.999481 " transform="matrix(0.0568184,0,0,0.0575759,-4.546875,0)"/>
<path style="fill:none;stroke-width:0.5;stroke-linecap:butt;stroke-linejoin:miter;stroke:rgb(0%,0%,0%);stroke-opacity:1;stroke-miterlimit:4;" d="M 334.673949 164.999481 C 334.673949 145.86714 319.136498 130.330594 300.024058 130.330594 C 280.842868 130.330594 265.305417 145.86714 265.305417 164.999481 C 265.305417 184.131822 280.842868 199.668369 300.024058 199.668369 C 319.136498 199.668369 334.673949 184.131822 334.673949 164.999481 Z M 334.673949 164.999481 " transform="matrix(0.0568184,0,0,0.0575759,-4.546875,0)"/>
<path style="fill:none;stroke-width:0.4;stroke-linecap:butt;stroke-linejoin:miter;stroke:rgb(0%,0%,0%);stroke-opacity:1;stroke-miterlimit:4;" d="M 326.630224 164.999481 C 326.630224 150.277077 314.667762 138.40417 300.024058 138.40417 C 285.311604 138.40417 273.417891 150.277077 273.417891 164.999481 C 273.417891 179.721886 285.311604 191.594792 300.024058 191.594792 C 314.667762 191.594792 326.630224 179.721886 326.630224 164.999481 Z M 326.630224 164.999481 " transform="matrix(0.0568184,0,0,0.0575759,-4.546875,0)"/>
<path style=" stroke:none;fill-rule:nonzero;fill:rgb(0%,0%,0%);fill-opacity:1;" d="M 11.222656 10.4375 L 10.945312 10.605469 L 10.859375 10.457031 L 10.832031 10.394531 C 10.828125 10.378906 10.828125 10.359375 10.835938 10.34375 C 10.84375 10.328125 10.855469 10.3125 10.875 10.304688 C 10.886719 10.296875 10.902344 10.292969 10.917969 10.292969 L 10.960938 10.300781 L 10.992188 10.324219 L 10.992188 10.273438 L 11.003906 10.253906 L 11.0625 10.160156 L 11.117188 10.261719 L 11.0625 10.355469 L 11.050781 10.386719 L 11.054688 10.410156 L 11.058594 10.417969 L 11.175781 10.351562 Z M 11.007812 10.449219 L 10.984375 10.410156 L 10.96875 10.390625 L 10.949219 10.382812 L 10.929688 10.386719 L 10.914062 10.410156 C 10.914062 10.417969 10.917969 10.429688 10.929688 10.445312 L 10.949219 10.484375 Z M 10.746094 10.230469 L 10.660156 9.976562 L 10.726562 9.953125 L 10.777344 10.113281 L 10.828125 10.097656 L 10.777344 9.949219 L 10.839844 9.925781 L 10.890625 10.074219 L 10.949219 10.054688 L 10.894531 9.886719 L 10.964844 9.867188 L 11.050781 10.128906 Z M 10.632812 9.847656 L 10.617188 9.683594 C 10.613281 9.644531 10.617188 9.617188 10.632812 9.597656 C 10.648438 9.574219 10.671875 9.5625 10.703125 9.558594 C 10.734375 9.558594 10.761719 9.566406 10.78125 9.582031 C 10.800781 9.601562 10.8125 9.628906 10.820312 9.671875 L 10.824219 9.726562 L 10.941406 9.710938 L 10.957031 9.8125 Z M 10.761719 9.730469 L 10.757812 9.707031 C 10.757812 9.6875 10.753906 9.675781 10.742188 9.667969 L 10.714844 9.660156 L 10.691406 9.675781 C 10.6875 9.679688 10.683594 9.691406 10.683594 9.714844 L 10.6875 9.742188 Z M 10.625 9.234375 L 10.636719 9.132812 L 10.824219 9.15625 L 10.878906 9.171875 C 10.894531 9.179688 10.90625 9.191406 10.917969 9.203125 C 10.929688 9.214844 10.9375 9.230469 10.941406 9.242188 C 10.949219 9.265625 10.949219 9.292969 10.945312 9.316406 L 10.9375 9.371094 C 10.933594 9.386719 10.925781 9.402344 10.917969 9.414062 C 10.902344 9.4375 10.875 9.457031 10.847656 9.464844 L 10.792969 9.464844 L 10.601562 9.445312 L 10.613281 9.34375 L 10.808594 9.367188 C 10.824219 9.367188 10.835938 9.363281 10.847656 9.359375 C 10.859375 9.351562 10.867188 9.339844 10.871094 9.316406 C 10.875 9.304688 10.871094 9.289062 10.859375 9.277344 C 10.847656 9.265625 10.835938 9.257812 10.820312 9.253906 Z M 10.664062 8.996094 L 10.730469 8.816406 C 10.738281 8.785156 10.753906 8.765625 10.773438 8.753906 C 10.792969 8.746094 10.816406 8.742188 10.835938 8.746094 C 10.855469 8.753906 10.867188 8.769531 10.875 8.785156 C 10.882812 8.792969 10.886719 8.808594 10.886719 8.824219 C 10.898438 8.804688 10.914062 8.792969 10.929688 8.785156 C 10.949219 8.777344 10.964844 8.777344 10.984375 8.785156 C 11.015625 8.792969 11.039062 8.820312 11.042969 8.855469 L 11.042969 8.894531 L 11.03125 8.933594 L 10.972656 9.101562 Z M 10.820312 8.941406 L 10.835938 8.898438 L 10.835938 8.867188 C 10.835938 8.863281 10.832031 8.855469 10.820312 8.847656 L 10.796875 8.847656 C 10.789062 8.855469 10.78125 8.867188 10.777344 8.878906 L 10.761719 8.917969 Z M 10.9375 8.980469 L 10.957031 8.933594 C 10.960938 8.917969 10.960938 8.90625 10.957031 8.894531 L 10.941406 8.878906 L 10.914062 8.878906 L 10.894531 8.914062 L 10.878906 8.960938 Z M 10.820312 8.601562 L 10.871094 8.515625 L 11.082031 8.640625 L 11.160156 8.507812 L 11.230469 8.546875 L 11.097656 8.769531 Z M 11.015625 8.300781 L 11.078125 8.222656 L 11.328125 8.429688 L 11.265625 8.511719 Z M 11.449219 8.128906 L 11.535156 8.089844 C 11.546875 8.117188 11.550781 8.140625 11.554688 8.15625 L 11.542969 8.21875 C 11.53125 8.238281 11.515625 8.261719 11.496094 8.277344 C 11.476562 8.296875 11.449219 8.3125 11.417969 8.320312 C 11.390625 8.328125 11.367188 8.328125 11.339844 8.320312 C 11.308594 8.304688 11.28125 8.285156 11.261719 8.257812 C 11.222656 8.21875 11.207031 8.175781 11.210938 8.132812 C 11.214844 8.089844 11.238281 8.046875 11.273438 8.019531 C 11.296875 7.996094 11.328125 7.984375 11.363281 7.980469 C 11.390625 7.976562 11.417969 7.980469 11.453125 8 L 11.398438 8.074219 L 11.375 8.0625 L 11.347656 8.0625 L 11.324219 8.078125 C 11.308594 8.09375 11.300781 8.113281 11.300781 8.132812 C 11.304688 8.148438 11.3125 8.167969 11.332031 8.191406 C 11.355469 8.214844 11.375 8.230469 11.394531 8.238281 C 11.410156 8.238281 11.425781 8.234375 11.441406 8.222656 C 11.457031 8.207031 11.464844 8.195312 11.464844 8.183594 C 11.464844 8.164062 11.460938 8.144531 11.449219 8.128906 M 11.792969 8.003906 L 11.695312 8.058594 L 11.707031 8.113281 L 11.617188 8.160156 L 11.570312 7.816406 L 11.667969 7.765625 L 11.925781 7.996094 L 11.832031 8.046875 Z M 11.742188 7.953125 L 11.65625 7.863281 L 11.679688 7.984375 Z M 12.046875 7.617188 L 12.195312 7.59375 L 12.265625 7.59375 C 12.285156 7.59375 12.304688 7.605469 12.316406 7.621094 C 12.335938 7.644531 12.34375 7.648438 12.351562 7.667969 C 12.363281 7.6875 12.367188 7.707031 12.367188 7.726562 C 12.375 7.761719 12.375 7.789062 12.371094 7.804688 L 12.347656 7.859375 L 12.308594 7.898438 L 12.25 7.917969 L 12.105469 7.941406 Z M 12.160156 7.671875 L 12.191406 7.847656 L 12.214844 7.84375 C 12.234375 7.84375 12.25 7.835938 12.253906 7.828125 C 12.265625 7.824219 12.269531 7.816406 12.273438 7.800781 L 12.273438 7.746094 C 12.265625 7.710938 12.253906 7.691406 12.242188 7.679688 C 12.230469 7.664062 12.210938 7.660156 12.183594 7.667969 Z M 12.464844 7.558594 L 12.730469 7.574219 L 12.730469 7.644531 L 12.5625 7.636719 L 12.558594 7.6875 L 12.714844 7.695312 L 12.710938 7.761719 L 12.554688 7.753906 L 12.554688 7.816406 L 12.726562 7.824219 L 12.722656 7.902344 L 12.449219 7.890625 Z M 12.855469 7.59375 L 12.949219 7.617188 L 12.890625 7.851562 L 13.046875 7.894531 L 13.023438 7.972656 L 12.777344 7.910156 Z M 13.371094 7.765625 L 13.515625 7.851562 C 13.546875 7.871094 13.566406 7.894531 13.570312 7.917969 C 13.574219 7.941406 13.570312 7.96875 13.558594 7.996094 C 13.542969 8.019531 13.519531 8.039062 13.492188 8.046875 C 13.464844 8.050781 13.4375 8.042969 13.402344 8.023438 L 13.355469 7.996094 L 13.292969 8.097656 L 13.207031 8.046875 Z M 13.386719 7.941406 L 13.410156 7.953125 L 13.449219 7.964844 L 13.472656 7.949219 L 13.472656 7.921875 C 13.472656 7.910156 13.464844 7.898438 13.449219 7.890625 L 13.425781 7.878906 Z M 13.667969 8.320312 L 13.585938 8.242188 L 13.539062 8.269531 L 13.460938 8.203125 L 13.773438 8.042969 L 13.851562 8.121094 L 13.71875 8.441406 L 13.640625 8.371094 Z M 13.699219 8.253906 L 13.753906 8.140625 L 13.648438 8.207031 Z M 13.738281 8.472656 L 14.007812 8.285156 L 14.097656 8.421875 L 14.136719 8.492188 L 14.132812 8.539062 C 14.125 8.558594 14.113281 8.574219 14.09375 8.582031 C 14.082031 8.59375 14.066406 8.597656 14.054688 8.597656 L 14.007812 8.589844 C 14 8.585938 13.988281 8.582031 13.976562 8.570312 L 13.984375 8.597656 L 13.96875 8.644531 L 13.917969 8.734375 L 13.855469 8.644531 L 13.90625 8.542969 L 13.917969 8.515625 L 13.910156 8.488281 L 13.90625 8.480469 L 13.796875 8.558594 Z M 13.953125 8.445312 L 13.980469 8.484375 L 13.996094 8.5 C 14.003906 8.507812 14.011719 8.507812 14.015625 8.507812 L 14.035156 8.503906 L 14.046875 8.480469 C 14.046875 8.472656 14.042969 8.457031 14.035156 8.441406 L 14.007812 8.40625 Z M 14.054688 8.9375 L 14.015625 8.828125 L 13.957031 8.835938 L 13.917969 8.734375 L 14.265625 8.730469 L 14.304688 8.835938 L 14.050781 9.074219 L 14.011719 8.96875 Z M 14.113281 8.890625 L 14.207031 8.8125 L 14.085938 8.824219 Z M 14.195312 9.246094 L 14.261719 9.238281 L 14.285156 9.394531 L 14.148438 9.414062 L 14.097656 9.339844 L 14.074219 9.261719 C 14.066406 9.230469 14.070312 9.195312 14.078125 9.164062 C 14.089844 9.136719 14.105469 9.117188 14.128906 9.101562 C 14.15625 9.082031 14.183594 9.070312 14.214844 9.066406 C 14.246094 9.058594 14.277344 9.0625 14.308594 9.074219 C 14.335938 9.085938 14.359375 9.101562 14.375 9.128906 C 14.386719 9.152344 14.398438 9.179688 14.40625 9.214844 L 14.40625 9.292969 L 14.382812 9.34375 C 14.371094 9.359375 14.355469 9.371094 14.335938 9.382812 L 14.304688 9.285156 C 14.316406 9.285156 14.324219 9.277344 14.332031 9.261719 C 14.339844 9.25 14.339844 9.234375 14.332031 9.222656 C 14.328125 9.203125 14.320312 9.1875 14.304688 9.175781 C 14.292969 9.164062 14.265625 9.160156 14.226562 9.167969 C 14.203125 9.167969 14.179688 9.179688 14.160156 9.195312 C 14.144531 9.214844 14.140625 9.234375 14.144531 9.253906 C 14.144531 9.269531 14.148438 9.277344 14.15625 9.285156 L 14.175781 9.316406 L 14.207031 9.316406 Z M 14.40625 9.722656 L 14.398438 9.824219 L 14.203125 9.808594 L 14.152344 9.792969 L 14.113281 9.761719 L 14.089844 9.71875 L 14.082031 9.644531 L 14.089844 9.59375 L 14.109375 9.546875 L 14.140625 9.515625 L 14.179688 9.5 L 14.234375 9.492188 L 14.429688 9.511719 L 14.417969 9.609375 L 14.222656 9.59375 C 14.203125 9.59375 14.1875 9.597656 14.179688 9.605469 C 14.164062 9.613281 14.15625 9.628906 14.160156 9.644531 C 14.160156 9.664062 14.164062 9.679688 14.171875 9.6875 C 14.179688 9.699219 14.191406 9.707031 14.210938 9.707031 Z M 14.050781 10.070312 L 14.085938 9.960938 L 14.039062 9.925781 L 14.070312 9.828125 L 14.34375 10.050781 L 14.304688 10.152344 L 13.960938 10.167969 L 13.996094 10.070312 Z M 14.125 10.070312 L 14.242188 10.074219 L 14.144531 10.003906 Z M 14.242188 10.339844 L 14.183594 10.433594 L 14.054688 10.433594 L 14.113281 10.550781 L 14.058594 10.644531 L 13.960938 10.4375 L 13.84375 10.367188 L 13.898438 10.28125 L 14.015625 10.351562 Z M 14.242188 10.339844 "/>
<path style="fill-rule:nonzero;fill:rgb(0%,60.784316%,22.745098%);fill-opacity:1;stroke-width:0.1;stroke-linecap:butt;stroke-linejoin:miter;stroke:rgb(0%,0%,0%);stroke-opacity:1;stroke-miterlimit:4;" d="M 328.1 211.282895 C 328.1 211.282895 351.5 221.447368 347.4 242.171053 C 343.3 262.993421 330.4 262.796053 325.2 265.164474 C 320.2 267.434211 316.6 270.690789 314.6 270.197368 C 312.6 269.703947 309.9 268.223684 309.9 268.223684 C 309.9 268.223684 309.7 271.677632 313.8 272.171053 C 317.9 272.861842 323.3 266.940789 325.8 266.151316 C 328.4 265.559211 344.3 263.782895 348.2 242.664474 C 352.7 220.065789 328.2 211.973684 328.2 211.282895 Z M 328.1 211.282895 " transform="matrix(0.0390625,0,0,0.0395833,0,0)"/>
<path style="fill-rule:nonzero;fill:rgb(0%,60.784316%,22.745098%);fill-opacity:1;stroke-width:0.1;stroke-linecap:butt;stroke-linejoin:miter;stroke:rgb(0%,0%,0%);stroke-opacity:1;stroke-miterlimit:4;" d="M 339.9 215.822368 C 340 216.907895 339.9 217.598684 339.6 217.598684 C 339.3 217.598684 338.8 216.907895 338.4 215.822368 C 337.9 214.539474 337.6 212.960526 337.7 212.072368 C 337.8 211.184211 338.2 211.184211 338.7 212.072368 C 339.3 212.960526 339.7 214.539474 339.9 215.822368 Z M 339.9 215.822368 " transform="matrix(0.0390625,0,0,0.0395833,0,0)"/>
<path style="fill-rule:nonzero;fill:rgb(0%,60.784316%,22.745098%);fill-opacity:1;stroke-width:0.1;stroke-linecap:butt;stroke-linejoin:miter;stroke:rgb(0%,0%,0%);stroke-opacity:1;stroke-miterlimit:4;" d="M 339.1 216.019737 C 340 217.697368 340.3 219.276316 339.9 219.375 C 339.6 219.473684 338.6 218.190789 337.7 216.513158 C 336.8 214.736842 336.5 213.256579 336.9 213.157895 C 337.2 212.960526 338.2 214.243421 339.1 216.019737 Z M 336.8 217.5 C 338.3 217.993421 339.4 218.684211 339.3 219.078947 C 339.3 219.473684 338.1 219.473684 336.6 219.078947 C 335.1 218.585526 334 217.894737 334.1 217.5 C 334.1 217.105263 335.3 217.105263 336.8 217.5 Z M 336.8 217.5 " transform="matrix(0.0390625,0,0,0.0395833,0,0)"/>
<path style="fill-rule:nonzero;fill:rgb(0%,60.784316%,22.745098%);fill-opacity:1;stroke-width:0.1;stroke-linecap:butt;stroke-linejoin:miter;stroke:rgb(0%,0%,0%);stroke-opacity:1;stroke-miterlimit:4;" d="M 337.1 216.710526 C 338.7 217.796053 339.8 218.881579 339.6 219.276316 C 339.4 219.671053 338 219.078947 336.4 217.993421 C 334.8 216.907895 333.7 215.822368 333.9 215.427632 C 334.1 215.032895 335.5 215.625 337.1 216.710526 Z M 337.1 216.710526 " transform="matrix(0.0390625,0,0,0.0395833,0,0)"/>
<path style="fill-rule:nonzero;fill:rgb(0%,60.784316%,22.745098%);fill-opacity:1;stroke-width:0.1;stroke-linecap:butt;stroke-linejoin:miter;stroke:rgb(0%,0%,0%);stroke-opacity:1;stroke-miterlimit:4;" d="M 338.1 216.315789 C 339.4 217.598684 340.2 218.881579 339.9 219.177632 C 339.6 219.473684 338.4 218.585526 337.1 217.302632 C 335.8 216.019737 335 214.638158 335.3 214.440789 C 335.6 214.144737 336.8 214.934211 338.1 216.315789 Z M 338.1 216.315789 " transform="matrix(0.0390625,0,0,0.0395833,0,0)"/>
<path style="fill-rule:nonzero;fill:rgb(0%,60.784316%,22.745098%);fill-opacity:1;stroke-width:0.1;stroke-linecap:butt;stroke-linejoin:miter;stroke:rgb(0%,0%,0%);stroke-opacity:1;stroke-miterlimit:4;" d="M 339.7 219.177632 L 338.7 219.769737 C 338.4 219.769737 338.1 219.473684 337.5 219.769737 C 336.9 220.065789 336.5 220.657895 336.4 220.953947 C 336.3 221.447368 336.6 221.447368 337.3 221.052632 C 338 220.756579 338.4 220.361842 338.5 219.967105 L 339.8 219.276316 L 340.6 217.993421 C 340.9 217.598684 341.8 217.006579 342.2 216.217105 C 342.5 215.526316 342.4 215.230263 342 215.328947 C 341.5 215.625 341.1 216.019737 340.8 216.611842 C 340.6 217.006579 340.8 217.598684 340.5 217.993421 Z M 347 221.644737 C 347 224.506579 346.6 226.776316 346 226.578947 C 345.4 226.480263 344.8 224.013158 344.8 221.052632 C 344.8 218.190789 345.2 215.921053 345.8 216.118421 C 346.4 216.217105 347 218.684211 347 221.644737 Z M 347 221.644737 " transform="matrix(0.0390625,0,0,0.0395833,0,0)"/>
<path style="fill-rule:nonzero;fill:rgb(0%,60.784316%,22.745098%);fill-opacity:1;stroke-width:0.1;stroke-linecap:butt;stroke-linejoin:miter;stroke:rgb(0%,0%,0%);stroke-opacity:1;stroke-miterlimit:4;" d="M 345.8 221.546053 C 346.4 224.407895 346.4 226.875 345.8 226.875 C 345.2 226.875 344.2 224.506579 343.6 221.644737 C 343 218.782895 343 216.611842 343.6 216.611842 C 344.2 216.611842 345.1 218.782895 345.7 221.644737 Z M 345.8 221.546053 " transform="matrix(0.0390625,0,0,0.0395833,0,0)"/>
<path style="fill-rule:nonzero;fill:rgb(0%,60.784316%,22.745098%);fill-opacity:1;stroke-width:0.1;stroke-linecap:butt;stroke-linejoin:miter;stroke:rgb(0%,0%,0%);stroke-opacity:1;stroke-miterlimit:4;" d="M 342 222.730263 C 344.2 224.111842 345.7 225.789474 345.6 226.480263 C 345.4 227.072368 343.5 226.381579 341.3 224.901316 C 339.1 223.421053 337.6 221.743421 337.7 221.151316 C 337.9 220.559211 339.8 221.25 342 222.730263 Z M 342 222.730263 " transform="matrix(0.0390625,0,0,0.0395833,0,0)"/>
<path style="fill-rule:nonzero;fill:rgb(0%,60.784316%,22.745098%);fill-opacity:1;stroke-width:0.1;stroke-linecap:butt;stroke-linejoin:miter;stroke:rgb(0%,0%,0%);stroke-opacity:1;stroke-miterlimit:4;" d="M 342.8 221.644737 C 344.6 223.815789 345.8 225.986842 345.4 226.480263 C 345 226.875 343.2 225.394737 341.4 223.223684 C 339.6 221.052632 338.5 218.980263 338.9 218.486842 C 339.3 218.092105 341 219.572368 342.8 221.743421 Z M 342.8 221.644737 " transform="matrix(0.0390625,0,0,0.0395833,0,0)"/>
<path style="fill-rule:nonzero;fill:rgb(0%,60.784316%,22.745098%);fill-opacity:1;stroke-width:0.1;stroke-linecap:butt;stroke-linejoin:miter;stroke:rgb(0%,0%,0%);stroke-opacity:1;stroke-miterlimit:4;" d="M 344.3 221.546053 C 345.7 224.013158 346.4 226.381579 345.9 226.578947 C 345.4 226.875 343.9 225.098684 342.5 222.532895 C 341.1 219.967105 340.4 217.697368 340.9 217.401316 C 341.4 217.105263 342.9 218.980263 344.3 221.546053 Z M 344.3 221.546053 " transform="matrix(0.0390625,0,0,0.0395833,0,0)"/>
<path style="fill-rule:nonzero;fill:rgb(0%,60.784316%,22.745098%);fill-opacity:1;stroke-width:0.1;stroke-linecap:butt;stroke-linejoin:miter;stroke:rgb(0%,0%,0%);stroke-opacity:1;stroke-miterlimit:4;" d="M 345.6 226.381579 L 343.8 226.776316 C 343.5 226.776316 343.2 226.085526 342.3 226.282895 C 341.4 226.578947 340.7 226.973684 340.3 227.467105 C 340 228.059211 340.4 228.256579 341.5 228.059211 C 342.7 227.861842 343.1 227.072368 343.7 227.072368 C 344.4 226.875 345 226.776316 345.7 226.677632 C 345.9 226.282895 346.7 225.493421 347.2 225.098684 C 347.7 224.703947 349.2 224.111842 349.9 223.322368 C 350.6 222.532895 350.6 221.743421 349.9 221.842105 C 349.1 222.039474 348.5 222.532895 347.9 223.125 C 347.4 223.717105 347.5 224.605263 347 225.098684 Z M 350.7 231.315789 C 350.2 234.078947 349.4 236.151316 348.9 235.855263 C 348.3 235.559211 348.2 233.092105 348.7 230.328947 C 349.2 227.565789 350 225.493421 350.5 225.789474 C 351.1 226.085526 351.2 228.552632 350.7 231.315789 Z M 350.7 231.315789 " transform="matrix(0.0390625,0,0,0.0395833,0,0)"/>
<path style="fill-rule:nonzero;fill:rgb(0%,60.784316%,22.745098%);fill-opacity:1;stroke-width:0.1;stroke-linecap:butt;stroke-linejoin:miter;stroke:rgb(0%,0%,0%);stroke-opacity:1;stroke-miterlimit:4;" d="M 349.6 231.019737 C 349.7 232.894737 349.6 234.671053 349.3 235.657895 C 349 236.644737 348.6 236.546053 348.2 235.559211 C 347.8 234.473684 347.6 232.598684 347.6 230.723684 C 347.5 228.75 347.6 226.973684 347.9 225.986842 C 348.2 225.098684 348.6 225.098684 349 226.184211 C 349.4 227.269737 349.6 229.144737 349.6 231.019737 Z M 349.6 231.019737 " transform="matrix(0.0390625,0,0,0.0395833,0,0)"/>
<path style="fill-rule:nonzero;fill:rgb(0%,60.784316%,22.745098%);fill-opacity:1;stroke-width:0.1;stroke-linecap:butt;stroke-linejoin:miter;stroke:rgb(0%,0%,0%);stroke-opacity:1;stroke-miterlimit:4;" d="M 345.7 231.414474 C 347.1 232.598684 348.5 234.276316 349.1 235.361842 C 349.8 236.546053 349.5 237.039474 348.5 236.644737 C 347.5 236.151316 346 234.868421 344.7 233.388158 C 343.3 232.203947 341.9 230.526316 341.3 229.440789 C 340.6 228.256579 340.9 227.763158 341.9 228.157895 C 342.9 228.651316 344.4 229.934211 345.7 231.414474 Z M 345.7 231.414474 " transform="matrix(0.0390625,0,0,0.0395833,0,0)"/>
<path style="fill-rule:nonzero;fill:rgb(0%,60.784316%,22.745098%);fill-opacity:1;stroke-width:0.1;stroke-linecap:butt;stroke-linejoin:miter;stroke:rgb(0%,0%,0%);stroke-opacity:1;stroke-miterlimit:4;" d="M 346.7 230.526316 C 348.1 233.092105 348.8 235.460526 348.4 235.756579 C 347.9 236.151316 346.4 234.375 345 231.809211 C 343.6 229.243421 342.9 226.875 343.3 226.480263 C 343.8 226.184211 345.3 227.960526 346.7 230.526316 Z M 346.7 230.526316 " transform="matrix(0.0390625,0,0,0.0395833,0,0)"/>
<path style="fill-rule:nonzero;fill:rgb(0%,60.784316%,22.745098%);fill-opacity:1;stroke-width:0.1;stroke-linecap:butt;stroke-linejoin:miter;stroke:rgb(0%,0%,0%);stroke-opacity:1;stroke-miterlimit:4;" d="M 348.1 230.723684 C 349 233.388158 349.2 235.756579 348.7 235.953947 C 348.2 236.151316 347.1 234.078947 346.2 231.414474 C 345.3 228.552632 345 226.085526 345.6 225.888158 C 346.1 225.690789 347.3 227.861842 348.2 230.723684 Z M 348.1 230.723684 " transform="matrix(0.0390625,0,0,0.0395833,0,0)"/>
<path style="fill-rule:nonzero;fill:rgb(0%,60.784316%,22.745098%);fill-opacity:1;stroke-width:0.1;stroke-linecap:butt;stroke-linejoin:miter;stroke:rgb(0%,0%,0%);stroke-opacity:1;stroke-miterlimit:4;" d="M 348.5 235.756579 L 346.8 235.756579 C 346.5 235.756579 346.3 234.967105 345.4 234.967105 C 344.6 234.967105 343.9 235.263158 343.3 235.756579 C 342.9 236.25 343.2 236.546053 344.3 236.644737 C 345.9 236.743421 346 236.052632 346.6 235.953947 L 348.6 235.953947 L 350.4 234.769737 C 351 234.375 352.5 234.177632 353.4 233.486842 C 354.1 232.894737 354.3 232.105263 353.7 232.105263 C 352.9 232.203947 352.1 232.5 351.4 232.993421 C 350.9 233.388158 350.8 234.276316 350.2 234.671053 C 349.8 234.868421 348.6 235.756579 348.5 235.657895 M 351 242.072368 C 349.5 244.440789 348 245.921053 347.6 245.427632 C 347.3 245.032895 348.1 242.763158 349.6 240.394737 C 351.1 238.026316 352.6 236.546053 353 237.039474 C 353.3 237.532895 352.5 239.802632 351 242.072368 " transform="matrix(0.0390625,0,0,0.0395833,0,0)"/>
<path style="fill-rule:nonzero;fill:rgb(0%,60.784316%,22.745098%);fill-opacity:1;stroke-width:0.1;stroke-linecap:butt;stroke-linejoin:miter;stroke:rgb(0%,0%,0%);stroke-opacity:1;stroke-miterlimit:4;" d="M 350.1 241.282895 C 349.1 243.947368 347.8 245.921053 347.3 245.625 C 346.8 245.328947 347.3 242.861842 348.3 240.197368 C 349.3 237.532895 350.6 235.657895 351.1 235.953947 C 351.6 236.25 351.1 238.618421 350.1 241.282895 M 346.4 240.098684 C 347.4 242.861842 347.9 245.427632 347.4 245.822368 C 346.9 246.217105 345.6 244.342105 344.6 241.578947 C 343.6 238.914474 343.1 236.348684 343.6 235.953947 C 344.1 235.460526 345.4 237.335526 346.4 240.098684 " transform="matrix(0.0390625,0,0,0.0395833,0,0)"/>
<path style="fill-rule:nonzero;fill:rgb(0%,60.784316%,22.745098%);fill-opacity:1;stroke-width:0.1;stroke-linecap:butt;stroke-linejoin:miter;stroke:rgb(0%,0%,0%);stroke-opacity:1;stroke-miterlimit:4;" d="M 347.6 239.703947 C 347.9 242.565789 347.6 244.934211 347.1 245.131579 C 346.5 245.230263 345.9 243.059211 345.6 240.197368 C 345.3 237.335526 345.6 234.967105 346.1 234.769737 C 346.7 234.671053 347.3 236.842105 347.6 239.703947 " transform="matrix(0.0390625,0,0,0.0395833,0,0)"/>
<path style="fill-rule:nonzero;fill:rgb(0%,60.784316%,22.745098%);fill-opacity:1;stroke-width:0.1;stroke-linecap:butt;stroke-linejoin:miter;stroke:rgb(0%,0%,0%);stroke-opacity:1;stroke-miterlimit:4;" d="M 349 240.394737 C 348.7 243.256579 348.1 245.526316 347.5 245.526316 C 347 245.526316 346.7 243.157895 347 240.296053 C 347.3 237.434211 347.9 235.164474 348.5 235.164474 C 349 235.164474 349.3 237.532895 349 240.394737 " transform="matrix(0.0390625,0,0,0.0395833,0,0)"/>
<path style="fill-rule:nonzero;fill:rgb(0%,60.784316%,22.745098%);fill-opacity:1;stroke-width:0.1;stroke-linecap:butt;stroke-linejoin:miter;stroke:rgb(0%,0%,0%);stroke-opacity:1;stroke-miterlimit:4;" d="M 347.3 245.328947 C 347.3 245.328947 345.9 244.835526 345.7 244.638158 C 345.5 244.440789 345.6 243.848684 344.7 243.256579 C 344 243.059211 343.2 243.059211 342.5 243.256579 C 342 243.453947 342.2 243.75 343.1 244.342105 C 344.1 244.934211 344.9 244.539474 345.4 244.736842 L 347.2 245.625 C 347.7 245.427632 348.8 245.328947 349.4 245.230263 C 350 245.131579 351.5 245.625 352.6 245.230263 C 353.5 244.934211 353.9 244.243421 353.3 244.046053 C 352.5 243.848684 351.8 243.848684 351 244.046053 C 350.3 244.144737 349.9 245.032895 349.2 245.032895 C 348.7 245.032895 347.3 245.427632 347.2 245.328947 M 348.2 253.026316 C 346.6 254.506579 344.7 255.789474 343.6 256.282895 C 342.4 256.677632 342.2 256.085526 342.9 254.901316 C 343.7 253.618421 345.4 251.940789 347.1 250.559211 C 348.8 248.980263 350.7 247.5 352 247.105263 C 353.2 246.611842 353.5 247.203947 352.6 248.585526 C 351.7 249.868421 349.9 251.743421 348.1 253.026316 " transform="matrix(0.0390625,0,0,0.0395833,0,0)"/>
<path style="fill-rule:nonzero;fill:rgb(0%,60.784316%,22.745098%);fill-opacity:1;stroke-width:0.1;stroke-linecap:butt;stroke-linejoin:miter;stroke:rgb(0%,0%,0%);stroke-opacity:1;stroke-miterlimit:4;" d="M 347.3 251.940789 C 345.3 254.407895 343.4 255.986842 343 255.493421 C 342.5 254.901316 343.8 252.434211 345.8 249.868421 C 347.8 247.401316 349.7 245.822368 350.1 246.315789 C 350.6 246.907895 349.3 249.375 347.3 251.940789 " transform="matrix(0.0390625,0,0,0.0395833,0,0)"/>
<path style="fill-rule:nonzero;fill:rgb(0%,60.784316%,22.745098%);fill-opacity:1;stroke-width:0.1;stroke-linecap:butt;stroke-linejoin:miter;stroke:rgb(0%,0%,0%);stroke-opacity:1;stroke-miterlimit:4;" d="M 343.7 249.177632 C 344.1 251.348684 344.1 253.914474 343.7 255.493421 C 343.4 257.171053 342.8 257.368421 342.2 256.184211 C 341.7 254.901316 341.3 252.532895 341.3 250.164474 C 340.9 247.993421 340.9 245.427632 341.3 243.848684 C 341.6 242.269737 342.2 241.973684 342.8 243.256579 C 343.3 244.440789 343.7 246.907895 343.7 249.177632 " transform="matrix(0.0390625,0,0,0.0395833,0,0)"/>
<path style="fill-rule:nonzero;fill:rgb(0%,60.784316%,22.745098%);fill-opacity:1;stroke-width:0.1;stroke-linecap:butt;stroke-linejoin:miter;stroke:rgb(0%,0%,0%);stroke-opacity:1;stroke-miterlimit:4;" d="M 345.1 249.177632 C 344.5 251.644737 343.7 253.223684 343.1 253.223684 C 342.6 253.125 342.5 251.447368 342.8 248.980263 C 343.1 246.611842 343.8 243.947368 344.5 242.467105 C 345.2 240.986842 345.8 241.085526 346 242.565789 C 346.1 244.046053 345.7 246.710526 345.1 249.078947 " transform="matrix(0.0390625,0,0,0.0395833,0,0)"/>
<path style="fill-rule:nonzero;fill:rgb(0%,60.784316%,22.745098%);fill-opacity:1;stroke-width:0.1;stroke-linecap:butt;stroke-linejoin:miter;stroke:rgb(0%,0%,0%);stroke-opacity:1;stroke-miterlimit:4;" d="M 346.3 250.361842 C 345.5 252.828947 344.3 255.296053 343.3 256.677632 C 342.3 257.960526 341.8 257.763158 342 256.184211 C 342.2 254.506579 343.1 251.842105 344.2 249.572368 C 345 247.203947 346.2 244.638158 347.2 243.355263 C 348.2 241.973684 348.7 242.171053 348.5 243.848684 C 348.3 245.526316 347.4 248.190789 346.3 250.361842 " transform="matrix(0.0390625,0,0,0.0395833,0,0)"/>
<path style="fill-rule:nonzero;fill:rgb(0%,60.784316%,22.745098%);fill-opacity:1;stroke-width:0.1;stroke-linecap:butt;stroke-linejoin:miter;stroke:rgb(0%,0%,0%);stroke-opacity:1;stroke-miterlimit:4;" d="M 343 255.296053 L 341.4 253.914474 C 341.2 253.618421 341.5 252.927632 340.7 252.138158 C 339.9 251.348684 338.9 251.052632 338.3 251.052632 C 337.6 251.25 337.7 251.743421 338.6 252.730263 C 339.6 253.717105 340.6 253.519737 341 253.914474 C 341.7 254.407895 342.2 254.901316 342.7 255.493421 L 345.3 255.888158 C 346 255.888158 347.5 256.973684 348.8 256.973684 C 349.8 256.973684 350.6 256.480263 350 255.986842 C 349.2 255.394737 348.3 255.098684 347.4 255 C 346.6 255 345.9 255.789474 345.2 255.592105 L 342.9 255.296053 M 340.6 262.598684 C 337.3 263.092105 334.7 262.894737 334.8 262.105263 C 334.9 261.315789 337.6 260.230263 340.9 259.736842 C 344.2 259.144737 346.8 259.342105 346.7 260.131579 C 346.6 261.019737 343.9 262.105263 340.6 262.598684 " transform="matrix(0.0390625,0,0,0.0395833,0,0)"/>
<path style="fill-rule:nonzero;fill:rgb(0%,60.784316%,22.745098%);fill-opacity:1;stroke-width:0.1;stroke-linecap:butt;stroke-linejoin:miter;stroke:rgb(0%,0%,0%);stroke-opacity:1;stroke-miterlimit:4;" d="M 340.5 261.019737 C 337.2 262.302632 334.4 262.697368 334.3 262.006579 C 334.1 261.315789 336.7 259.638158 340 258.355263 C 343.4 257.072368 346.3 256.578947 346.4 257.368421 C 346.6 258.157895 343.9 259.736842 340.5 261.118421 " transform="matrix(0.0390625,0,0,0.0395833,0,0)"/>
<path style="fill-rule:nonzero;fill:rgb(0%,60.784316%,22.745098%);fill-opacity:1;stroke-width:0.1;stroke-linecap:butt;stroke-linejoin:miter;stroke:rgb(0%,0%,0%);stroke-opacity:1;stroke-miterlimit:4;" d="M 338.4 256.381579 C 337.1 258.848684 335.6 260.526316 335 260.427632 C 334.3 260.328947 334.6 258.453947 335.6 255.888158 C 336.5 253.717105 337.8 251.546053 338.9 250.361842 C 339.9 249.276316 340.6 249.375 340.5 250.657895 C 340.4 252.039474 339.5 254.309211 338.4 256.381579 " transform="matrix(0.0390625,0,0,0.0395833,0,0)"/>
<path style="fill-rule:nonzero;fill:rgb(0%,60.784316%,22.745098%);fill-opacity:1;stroke-width:0.1;stroke-linecap:butt;stroke-linejoin:miter;stroke:rgb(0%,0%,0%);stroke-opacity:1;stroke-miterlimit:4;" d="M 339.9 257.171053 C 337.4 260.032895 334.9 261.907895 334.3 261.513158 C 333.6 261.118421 335.1 258.552632 337.6 255.690789 C 340.1 252.927632 342.6 250.953947 343.2 251.348684 C 343.9 251.743421 342.4 254.407895 339.9 257.171053 " transform="matrix(0.0390625,0,0,0.0395833,0,0)"/>
<path style="fill-rule:nonzero;fill:rgb(0%,60.784316%,22.745098%);fill-opacity:1;stroke-width:0.1;stroke-linecap:butt;stroke-linejoin:miter;stroke:rgb(0%,0%,0%);stroke-opacity:1;stroke-miterlimit:4;" d="M 340.3 259.144737 C 338.3 260.723684 336.1 262.105263 334.7 262.598684 C 333.3 263.190789 333 262.697368 333.8 261.513158 C 334.7 260.328947 336.6 258.552632 338.7 257.072368 C 341.2 255.296053 343.4 254.309211 343.8 254.802632 C 344.2 255.296053 342.7 257.171053 340.3 259.144737 " transform="matrix(0.0390625,0,0,0.0395833,0,0)"/>
<path style="fill-rule:nonzero;fill:rgb(0%,60.784316%,22.745098%);fill-opacity:1;stroke-width:0.1;stroke-linecap:butt;stroke-linejoin:miter;stroke:rgb(0%,0%,0%);stroke-opacity:1;stroke-miterlimit:4;" d="M 334.4 261.710526 L 333.7 259.539474 C 333.6 259.144737 334.3 258.651316 334 257.467105 C 333.7 256.480263 333 255.690789 332.1 255.197368 C 331.4 254.901316 331.3 255.394737 331.6 256.776316 C 332 258.157895 333 258.651316 333.3 259.440789 L 334.1 261.809211 L 336.3 263.684211 C 336.9 264.177632 337.8 266.052632 339 266.842105 C 340 267.532895 341 267.335526 340.8 266.644737 C 340.4 265.657895 339.7 264.769737 338.8 264.177632 C 338.1 263.585526 337 263.881579 336.3 263.388158 C 335.9 262.894737 334.3 261.809211 334.3 261.710526 " transform="matrix(0.0390625,0,0,0.0395833,0,0)"/>
<path style="fill-rule:nonzero;fill:rgb(0%,60.784316%,22.745098%);fill-opacity:1;stroke-width:0.1;stroke-linecap:butt;stroke-linejoin:miter;stroke:rgb(0%,0%,0%);stroke-opacity:1;stroke-miterlimit:4;" d="M 330.8 268.026316 C 328.1 267.828947 326.1 267.138158 326.1 266.348684 C 326.1 265.460526 328.1 264.769737 330.8 264.473684 C 333.5 264.671053 335.5 265.361842 335.5 266.151316 C 335.5 267.039474 333.5 267.730263 330.8 268.026316 " transform="matrix(0.0390625,0,0,0.0395833,0,0)"/>
<path style="fill-rule:nonzero;fill:rgb(0%,60.784316%,22.745098%);fill-opacity:1;stroke-width:0.1;stroke-linecap:butt;stroke-linejoin:miter;stroke:rgb(0%,0%,0%);stroke-opacity:1;stroke-miterlimit:4;" d="M 330 262.5 C 327.8 265.361842 325.4 267.138158 324.7 266.546053 C 324 265.855263 325.1 263.092105 327.3 260.328947 C 329.4 257.565789 331.7 255.789474 332.5 256.381579 C 333.2 257.072368 332 259.736842 329.9 262.5 " transform="matrix(0.0390625,0,0,0.0395833,0,0)"/>
<path style="fill-rule:nonzero;fill:rgb(0%,60.784316%,22.745098%);fill-opacity:1;stroke-width:0.1;stroke-linecap:butt;stroke-linejoin:miter;stroke:rgb(0%,0%,0%);stroke-opacity:1;stroke-miterlimit:4;" d="M 330.8 265.263158 C 327.6 266.644737 324.7 267.039474 324.3 266.151316 C 324 265.263158 326.4 263.388158 329.6 262.006579 C 332.8 260.625 335.7 260.230263 336.1 261.118421 C 336.4 262.006579 334 263.881579 330.8 265.263158 M 332.5 211.875 C 333.9 213.256579 334.7 214.440789 334.3 214.638158 C 333.9 214.835526 332.5 213.947368 331 212.664474 C 329.9 211.776316 329 210.789474 328.7 210.098684 C 328.4 209.506579 328.7 209.309211 329.5 209.703947 C 330.3 210.098684 331.5 210.888158 332.5 211.875 M 330.6 213.355263 C 332.3 213.75 333.5 214.243421 333.6 214.539474 C 333.7 214.934211 332.6 215.131579 330.9 215.032895 C 329.3 214.934211 327.7 214.539474 326.7 214.144737 C 325.7 213.75 325.6 213.355263 326.5 213.157895 C 327.4 213.059211 329 213.059211 330.6 213.355263 " transform="matrix(0.0390625,0,0,0.0395833,0,0)"/>
<path style="fill-rule:nonzero;fill:rgb(0%,60.784316%,22.745098%);fill-opacity:1;stroke-width:0.1;stroke-linecap:butt;stroke-linejoin:miter;stroke:rgb(0%,0%,0%);stroke-opacity:1;stroke-miterlimit:4;" d="M 331.4 212.368421 C 333.5 213.453947 335.1 214.638158 334.9 215.032895 C 334.7 215.427632 332.7 214.835526 330.6 213.651316 C 328.5 212.565789 326.9 211.480263 327.1 211.085526 C 327.3 210.690789 329.3 211.282895 331.4 212.368421 M 303.7 262.006579 C 303.7 262.006579 308.8 263.092105 313.3 264.671053 C 317.8 266.348684 324.6 271.875 326.4 272.269737 C 328.4 272.269737 331.3 271.578947 332.4 268.717105 C 329.2 269.506579 327.4 270.789474 324.4 269.210526 C 323.3 268.815789 319.8 265.559211 315.9 263.881579 C 312.1 262.203947 304.4 260.328947 304.4 260.328947 L 303.7 262.006579 M 309.2 215.526316 L 315.1 212.368421 L 308.6 214.144737 L 307.8 215.230263 L 309.2 215.526316 " transform="matrix(0.0390625,0,0,0.0395833,0,0)"/>
<path style="fill-rule:nonzero;fill:rgb(0%,60.784316%,22.745098%);fill-opacity:1;stroke-width:0.1;stroke-linecap:butt;stroke-linejoin:miter;stroke:rgb(0%,0%,0%);stroke-opacity:1;stroke-miterlimit:4;" d="M 314.8 217.006579 C 312.5 216.513158 309 215.723684 306.8 215.625 C 308.3 213.947368 310.4 210.888158 311.8 209.210526 C 310.8 210.888158 309.5 213.157895 309 214.736842 C 310.5 215.625 313 216.315789 314.8 216.907895 " transform="matrix(0.0390625,0,0,0.0395833,0,0)"/>
<path style="fill-rule:nonzero;fill:rgb(0%,60.784316%,22.745098%);fill-opacity:1;stroke-width:0.1;stroke-linecap:butt;stroke-linejoin:miter;stroke:rgb(0%,0%,0%);stroke-opacity:1;stroke-miterlimit:4;" d="M 308.1 215.921053 L 313.4 211.776316 L 307.3 214.539474 L 306.7 215.822368 L 308.1 215.822368 " transform="matrix(0.0390625,0,0,0.0395833,0,0)"/>
<path style="fill-rule:nonzero;fill:rgb(0%,60.784316%,22.745098%);fill-opacity:1;stroke-width:0.1;stroke-linecap:butt;stroke-linejoin:miter;stroke:rgb(0%,0%,0%);stroke-opacity:1;stroke-miterlimit:4;" d="M 313.7 216.907895 C 311.4 216.414474 307.9 215.625 305.7 215.427632 C 307.1 213.651316 309.2 210.690789 310.5 208.815789 C 309.7 210.592105 308.3 212.861842 307.8 214.638158 C 309.4 215.526316 311.9 216.217105 313.8 216.907895 " transform="matrix(0.0390625,0,0,0.0395833,0,0)"/>
<path style="fill-rule:nonzero;fill:rgb(0%,60.784316%,22.745098%);fill-opacity:1;stroke-width:0.1;stroke-linecap:butt;stroke-linejoin:miter;stroke:rgb(0%,0%,0%);stroke-opacity:1;stroke-miterlimit:4;" d="M 307.3 216.217105 L 313.4 213.552632 L 306.8 214.736842 L 305.9 215.723684 L 307.2 216.217105 " transform="matrix(0.0390625,0,0,0.0395833,0,0)"/>
<path style="fill-rule:nonzero;fill:rgb(0%,60.784316%,22.745098%);fill-opacity:1;stroke-width:0.1;stroke-linecap:butt;stroke-linejoin:miter;stroke:rgb(0%,0%,0%);stroke-opacity:1;stroke-miterlimit:4;" d="M 313 217.006579 C 310.7 216.710526 307 216.315789 304.8 216.414474 C 306.1 214.440789 307.8 211.085526 308.9 209.111842 C 308.3 210.986842 307.2 213.453947 306.9 215.230263 C 308.6 216.019737 311.2 216.414474 313 216.907895 " transform="matrix(0.0390625,0,0,0.0395833,0,0)"/>
<path style="fill-rule:nonzero;fill:rgb(0%,60.784316%,22.745098%);fill-opacity:1;stroke-width:0.1;stroke-linecap:butt;stroke-linejoin:miter;stroke:rgb(0%,0%,0%);stroke-opacity:1;stroke-miterlimit:4;" d="M 306.6 216.217105 L 310.8 211.184211 L 305.5 215.131579 L 305.2 216.414474 L 306.6 216.217105 " transform="matrix(0.0390625,0,0,0.0395833,0,0)"/>
<path style="fill-rule:nonzero;fill:rgb(0%,60.784316%,22.745098%);fill-opacity:1;stroke-width:0.1;stroke-linecap:butt;stroke-linejoin:miter;stroke:rgb(0%,0%,0%);stroke-opacity:1;stroke-miterlimit:4;" d="M 313 217.302632 C 310.5 217.302632 306.6 217.006579 304.2 217.302632 C 305.4 215.032895 306.9 211.282895 307.8 209.013158 C 307.4 211.085526 306.5 214.046053 306.4 215.921053 C 308.2 216.513158 311 216.907895 313 217.302632 " transform="matrix(0.0390625,0,0,0.0395833,0,0)"/>
<path style="fill-rule:nonzero;fill:rgb(0%,60.784316%,22.745098%);fill-opacity:1;stroke-width:0.1;stroke-linecap:butt;stroke-linejoin:miter;stroke:rgb(0%,0%,0%);stroke-opacity:1;stroke-miterlimit:4;" d="M 305.8 217.401316 L 310.8 212.467105 L 304.7 216.019737 L 304.3 217.401316 L 305.8 217.401316 " transform="matrix(0.0390625,0,0,0.0395833,0,0)"/>
<path style="fill-rule:nonzero;fill:rgb(0%,60.784316%,22.745098%);fill-opacity:1;stroke-width:0.1;stroke-linecap:butt;stroke-linejoin:miter;stroke:rgb(0%,0%,0%);stroke-opacity:1;stroke-miterlimit:4;" d="M 311.9 217.401316 C 309.2 217.401316 305.1 217.302632 302.4 217.598684 C 304.2 215.131579 306.6 210.986842 308 208.519737 C 307 210.789474 305.6 213.947368 305 216.019737 C 306.9 216.710526 309.8 217.006579 311.9 217.401316 " transform="matrix(0.0390625,0,0,0.0395833,0,0)"/>
<path style="fill-rule:nonzero;fill:rgb(0%,60.784316%,22.745098%);fill-opacity:1;stroke-width:0.1;stroke-linecap:butt;stroke-linejoin:miter;stroke:rgb(0%,0%,0%);stroke-opacity:1;stroke-miterlimit:4;" d="M 304 217.796053 L 310.6 212.269737 L 303.2 216.217105 L 302.4 217.796053 L 304 217.796053 " transform="matrix(0.0390625,0,0,0.0395833,0,0)"/>
<path style="fill-rule:nonzero;fill:rgb(0%,60.784316%,22.745098%);fill-opacity:1;stroke-width:0.1;stroke-linecap:butt;stroke-linejoin:miter;stroke:rgb(0%,0%,0%);stroke-opacity:1;stroke-miterlimit:4;" d="M 311 217.598684 C 308.3 217.993421 304.1 218.388158 301.6 219.078947 C 302.9 216.414474 304.7 212.072368 305.8 209.407895 C 305.2 211.776316 304.1 215.032895 303.8 217.203947 C 305.8 217.598684 308.8 217.5 310.9 217.598684 " transform="matrix(0.0390625,0,0,0.0395833,0,0)"/>
<path style="fill-rule:nonzero;fill:rgb(0%,60.784316%,22.745098%);fill-opacity:1;stroke-width:0.1;stroke-linecap:butt;stroke-linejoin:miter;stroke:rgb(0%,0%,0%);stroke-opacity:1;stroke-miterlimit:4;" d="M 303.2 218.881579 L 308.2 211.875 L 301.9 217.598684 L 301.6 219.276316 L 303.2 218.881579 " transform="matrix(0.0390625,0,0,0.0395833,0,0)"/>
<path style="fill-rule:nonzero;fill:rgb(0%,60.784316%,22.745098%);fill-opacity:1;stroke-width:0.1;stroke-linecap:butt;stroke-linejoin:miter;stroke:rgb(0%,0%,0%);stroke-opacity:1;stroke-miterlimit:4;" d="M 309.4 218.388158 C 306.8 218.684211 302.6 218.881579 300 219.375 C 301.5 216.809211 303.5 212.565789 304.8 210 C 304 212.269737 302.8 215.526316 302.4 217.697368 C 304.4 218.190789 307.4 218.190789 309.4 218.388158 " transform="matrix(0.0390625,0,0,0.0395833,0,0)"/>
<path style="fill-rule:nonzero;fill:rgb(0%,60.784316%,22.745098%);fill-opacity:1;stroke-width:0.1;stroke-linecap:butt;stroke-linejoin:miter;stroke:rgb(0%,0%,0%);stroke-opacity:1;stroke-miterlimit:4;" d="M 302.3 219.572368 L 308.7 214.144737 L 301.4 217.993421 L 300.7 219.572368 L 302.3 219.572368 " transform="matrix(0.0390625,0,0,0.0395833,0,0)"/>
<path style="fill-rule:nonzero;fill:rgb(0%,60.784316%,22.745098%);fill-opacity:1;stroke-width:0.1;stroke-linecap:butt;stroke-linejoin:miter;stroke:rgb(0%,0%,0%);stroke-opacity:1;stroke-miterlimit:4;" d="M 308.7 218.684211 C 306 219.276316 301.8 219.967105 299.3 220.756579 C 300.5 218.092105 302.1 213.651316 303.1 210.986842 C 302.6 213.355263 301.7 216.611842 301.5 218.782895 C 303.5 219.078947 306.5 218.782895 308.7 218.684211 " transform="matrix(0.0390625,0,0,0.0395833,0,0)"/>
<path style="fill-rule:nonzero;fill:rgb(0%,60.784316%,22.745098%);fill-opacity:1;stroke-width:0.1;stroke-linecap:butt;stroke-linejoin:miter;stroke:rgb(0%,0%,0%);stroke-opacity:1;stroke-miterlimit:4;" d="M 301.2 219.967105 L 305.2 212.269737 L 299.8 218.881579 L 299.7 220.559211 L 301.2 219.868421 " transform="matrix(0.0390625,0,0,0.0395833,0,0)"/>
<path style="fill-rule:nonzero;fill:rgb(0%,60.784316%,22.745098%);fill-opacity:1;stroke-width:0.1;stroke-linecap:butt;stroke-linejoin:miter;stroke:rgb(0%,0%,0%);stroke-opacity:1;stroke-miterlimit:4;" d="M 308.7 219.078947 C 305.7 219.868421 301.3 220.855263 298.7 221.940789 C 299.7 218.782895 300.8 213.947368 301.6 210.789474 C 301.3 213.453947 300.7 217.105263 300.8 219.572368 C 303.1 219.769737 306.3 219.276316 308.6 219.078947 " transform="matrix(0.0390625,0,0,0.0395833,0,0)"/>
<path style="fill-rule:nonzero;fill:rgb(0%,60.784316%,22.745098%);fill-opacity:1;stroke-width:0.1;stroke-linecap:butt;stroke-linejoin:miter;stroke:rgb(0%,0%,0%);stroke-opacity:1;stroke-miterlimit:4;" d="M 300.4 221.743421 L 305.6 214.144737 L 299 220.164474 L 298.7 222.236842 L 300.4 221.743421 " transform="matrix(0.0390625,0,0,0.0395833,0,0)"/>
<path style="fill-rule:nonzero;fill:rgb(0%,60.784316%,22.745098%);fill-opacity:1;stroke-width:0.1;stroke-linecap:butt;stroke-linejoin:miter;stroke:rgb(0%,0%,0%);stroke-opacity:1;stroke-miterlimit:4;" d="M 307.5 219.967105 C 304.7 220.855263 300.3 222.138158 297.7 223.322368 C 298.5 220.065789 299.5 215.230263 300.1 212.072368 C 300 214.835526 299.6 218.388158 299.8 220.756579 C 302 220.855263 305.2 220.164474 307.5 219.967105 " transform="matrix(0.0390625,0,0,0.0395833,0,0)"/>
<path style="fill-rule:nonzero;fill:rgb(0%,60.784316%,22.745098%);fill-opacity:1;stroke-width:0.1;stroke-linecap:butt;stroke-linejoin:miter;stroke:rgb(0%,0%,0%);stroke-opacity:1;stroke-miterlimit:4;" d="M 299.4 222.828947 L 303.3 214.440789 L 297.7 221.644737 L 297.7 223.618421 L 299.4 222.828947 " transform="matrix(0.0390625,0,0,0.0395833,0,0)"/>
<path style="fill-rule:nonzero;fill:rgb(0%,60.784316%,22.745098%);fill-opacity:1;stroke-width:0.1;stroke-linecap:butt;stroke-linejoin:miter;stroke:rgb(0%,0%,0%);stroke-opacity:1;stroke-miterlimit:4;" d="M 306.4 221.151316 C 303.6 221.842105 299.1 222.730263 296.4 223.618421 C 297.5 220.559211 298.9 215.625 299.8 212.565789 C 299.4 215.328947 298.7 218.980263 298.7 221.348684 C 300.9 221.644737 304.1 221.151316 306.4 221.052632 " transform="matrix(0.0390625,0,0,0.0395833,0,0)"/>
<path style="fill-rule:nonzero;fill:rgb(0%,60.784316%,22.745098%);fill-opacity:1;stroke-width:0.1;stroke-linecap:butt;stroke-linejoin:miter;stroke:rgb(0%,0%,0%);stroke-opacity:1;stroke-miterlimit:4;" d="M 298.4 223.618421 L 304.8 217.006579 L 297.3 221.940789 L 296.7 223.717105 L 298.4 223.618421 " transform="matrix(0.0390625,0,0,0.0395833,0,0)"/>
<path style="fill-rule:nonzero;fill:rgb(0%,60.784316%,22.745098%);fill-opacity:1;stroke-width:0.1;stroke-linecap:butt;stroke-linejoin:miter;stroke:rgb(0%,0%,0%);stroke-opacity:1;stroke-miterlimit:4;" d="M 305.2 222.335526 C 302.3 222.730263 297.9 223.125 295.2 223.815789 C 296.5 220.756579 298.2 216.019737 299.2 212.960526 C 298.6 215.723684 297.7 219.276316 297.5 221.743421 C 299.7 222.236842 302.9 222.138158 305.2 222.335526 " transform="matrix(0.0390625,0,0,0.0395833,0,0)"/>
<path style="fill-rule:nonzero;fill:rgb(0%,60.784316%,22.745098%);fill-opacity:1;stroke-width:0.1;stroke-linecap:butt;stroke-linejoin:miter;stroke:rgb(0%,0%,0%);stroke-opacity:1;stroke-miterlimit:4;" d="M 297.2 223.026316 L 301.5 214.736842 L 295.6 221.743421 L 295.6 223.618421 L 297.2 222.927632 " transform="matrix(0.0390625,0,0,0.0395833,0,0)"/>
<path style="fill-rule:nonzero;fill:rgb(0%,60.784316%,22.745098%);fill-opacity:1;stroke-width:0.1;stroke-linecap:butt;stroke-linejoin:miter;stroke:rgb(0%,0%,0%);stroke-opacity:1;stroke-miterlimit:4;" d="M 305.5 221.348684 C 302.5 222.631579 297.5 224.309211 294.6 225.888158 C 295.6 222.236842 296.6 216.414474 297.2 212.763158 C 297.2 215.921053 296.7 220.164474 296.9 222.927632 C 299.4 222.927632 302.9 221.842105 305.5 221.348684 " transform="matrix(0.0390625,0,0,0.0395833,0,0)"/>
<path style="fill-rule:nonzero;fill:rgb(0%,60.784316%,22.745098%);fill-opacity:1;stroke-width:0.1;stroke-linecap:butt;stroke-linejoin:miter;stroke:rgb(0%,0%,0%);stroke-opacity:1;stroke-miterlimit:4;" d="M 296.6 225.394737 L 301.8 216.019737 L 294.9 224.013158 L 294.7 226.184211 L 296.6 225.394737 " transform="matrix(0.0390625,0,0,0.0395833,0,0)"/>
<path style="fill-rule:nonzero;fill:rgb(0%,60.784316%,22.745098%);fill-opacity:1;stroke-width:0.1;stroke-linecap:butt;stroke-linejoin:miter;stroke:rgb(0%,0%,0%);stroke-opacity:1;stroke-miterlimit:4;" d="M 304.3 222.532895 C 301.3 223.914474 296.5 225.888158 293.7 227.565789 C 294.5 224.013158 295.2 218.092105 295.7 214.638158 C 295.7 217.598684 295.5 221.940789 295.8 224.605263 C 298.3 224.309211 301.8 223.125 304.3 222.532895 " transform="matrix(0.0390625,0,0,0.0395833,0,0)"/>
<path style="fill-rule:nonzero;fill:rgb(0%,60.784316%,22.745098%);fill-opacity:1;stroke-width:0.1;stroke-linecap:butt;stroke-linejoin:miter;stroke:rgb(0%,0%,0%);stroke-opacity:1;stroke-miterlimit:4;" d="M 295.5 226.776316 L 299.3 216.710526 L 293.6 225.690789 L 293.8 227.960526 L 295.5 226.776316 " transform="matrix(0.0390625,0,0,0.0395833,0,0)"/>
<path style="fill-rule:nonzero;fill:rgb(0%,60.784316%,22.745098%);fill-opacity:1;stroke-width:0.1;stroke-linecap:butt;stroke-linejoin:miter;stroke:rgb(0%,0%,0%);stroke-opacity:1;stroke-miterlimit:4;" d="M 303 223.322368 C 300 224.802632 295.2 226.776316 292.4 228.552632 C 293.1 224.901316 293.8 219.078947 294.3 215.526316 C 294.3 218.486842 294.1 222.828947 294.5 225.493421 C 297 225.197368 300.5 223.914474 303 223.322368 " transform="matrix(0.0390625,0,0,0.0395833,0,0)"/>
<path style="fill-rule:nonzero;fill:rgb(0%,60.784316%,22.745098%);fill-opacity:1;stroke-width:0.1;stroke-linecap:butt;stroke-linejoin:miter;stroke:rgb(0%,0%,0%);stroke-opacity:1;stroke-miterlimit:4;" d="M 294.7 227.960526 L 300.5 219.078947 L 293.1 226.381579 L 292.8 228.552632 L 294.7 227.960526 " transform="matrix(0.0390625,0,0,0.0395833,0,0)"/>
<path style="fill-rule:nonzero;fill:rgb(0%,60.784316%,22.745098%);fill-opacity:1;stroke-width:0.1;stroke-linecap:butt;stroke-linejoin:miter;stroke:rgb(0%,0%,0%);stroke-opacity:1;stroke-miterlimit:4;" d="M 302.7 222.828947 C 300 225 295.7 228.157895 293.3 230.625 C 293.3 226.776316 292.8 221.052632 292.5 217.598684 C 293.1 220.460526 293.8 224.605263 294.8 227.072368 C 297.2 226.184211 300.3 224.111842 302.8 222.927632 " transform="matrix(0.0390625,0,0,0.0395833,0,0)"/>
<path style="fill-rule:nonzero;fill:rgb(0%,60.784316%,22.745098%);fill-opacity:1;stroke-width:0.1;stroke-linecap:butt;stroke-linejoin:miter;stroke:rgb(0%,0%,0%);stroke-opacity:1;stroke-miterlimit:4;" d="M 295 228.453947 L 295.6 217.796053 L 292.8 228.157895 L 293.6 230.230263 L 295 228.453947 " transform="matrix(0.0390625,0,0,0.0395833,0,0)"/>
<path style="fill-rule:nonzero;fill:rgb(0%,60.784316%,22.745098%);fill-opacity:1;stroke-width:0.1;stroke-linecap:butt;stroke-linejoin:miter;stroke:rgb(0%,0%,0%);stroke-opacity:1;stroke-miterlimit:4;" d="M 302 223.815789 C 299.2 225.986842 295 229.144737 292.5 231.513158 C 292.5 227.763158 292 222.039474 291.7 218.486842 C 292.4 221.546053 293 225.493421 294 227.960526 C 296.4 227.171053 299.5 225 302 223.815789 " transform="matrix(0.0390625,0,0,0.0395833,0,0)"/>
<path style="fill-rule:nonzero;fill:rgb(0%,60.784316%,22.745098%);fill-opacity:1;stroke-width:0.1;stroke-linecap:butt;stroke-linejoin:miter;stroke:rgb(0%,0%,0%);stroke-opacity:1;stroke-miterlimit:4;" d="M 294.3 230.328947 L 297 219.769737 L 292.3 229.440789 L 292.6 231.611842 L 294.3 230.328947 " transform="matrix(0.0390625,0,0,0.0395833,0,0)"/>
<path style="fill-rule:nonzero;fill:rgb(0%,60.784316%,22.745098%);fill-opacity:1;stroke-width:0.1;stroke-linecap:butt;stroke-linejoin:miter;stroke:rgb(0%,0%,0%);stroke-opacity:1;stroke-miterlimit:4;" d="M 301.6 224.013158 C 299.1 226.578947 295 230.427632 292.7 232.993421 C 292.3 229.342105 291.2 223.421053 290.5 219.769737 C 291.5 222.828947 292.6 226.875 293.9 229.342105 C 296.2 228.157895 299.3 225.690789 301.6 224.111842 " transform="matrix(0.0390625,0,0,0.0395833,0,0)"/>
<path style="fill-rule:nonzero;fill:rgb(0%,60.784316%,22.745098%);fill-opacity:1;stroke-width:0.1;stroke-linecap:butt;stroke-linejoin:miter;stroke:rgb(0%,0%,0%);stroke-opacity:1;stroke-miterlimit:4;" d="M 294.3 231.611842 L 294.8 220.460526 L 292.1 231.315789 L 292.9 233.289474 L 294.3 231.611842 " transform="matrix(0.0390625,0,0,0.0395833,0,0)"/>
<path style="fill-rule:nonzero;fill:rgb(0%,60.784316%,22.745098%);fill-opacity:1;stroke-width:0.1;stroke-linecap:butt;stroke-linejoin:miter;stroke:rgb(0%,0%,0%);stroke-opacity:1;stroke-miterlimit:4;" d="M 300.8 225.986842 C 298.1 228.157895 293.8 231.513158 291.2 233.980263 C 291.2 230.230263 290.5 224.210526 290.2 220.460526 C 290.9 223.519737 291.7 227.763158 292.7 230.427632 C 295.2 229.440789 298.4 227.269737 300.8 225.888158 " transform="matrix(0.0390625,0,0,0.0395833,0,0)"/>
<path style="fill-rule:nonzero;fill:rgb(0%,60.784316%,22.745098%);fill-opacity:1;stroke-width:0.1;stroke-linecap:butt;stroke-linejoin:miter;stroke:rgb(0%,0%,0%);stroke-opacity:1;stroke-miterlimit:4;" d="M 293.5 232.894737 L 297.3 222.434211 L 291.5 231.710526 L 291.7 233.980263 L 293.5 232.894737 " transform="matrix(0.0390625,0,0,0.0395833,0,0)"/>
<path style="fill-rule:nonzero;fill:rgb(0%,60.784316%,22.745098%);fill-opacity:1;stroke-width:0.1;stroke-linecap:butt;stroke-linejoin:miter;stroke:rgb(0%,0%,0%);stroke-opacity:1;stroke-miterlimit:4;" d="M 300.8 225.986842 C 298.3 228.453947 294.5 232.401316 292.3 235.065789 C 291.9 231.315789 290.8 225.296053 290.2 221.743421 C 291.2 224.703947 292.2 228.947368 293.4 231.315789 C 295.7 230.131579 298.5 227.565789 300.8 225.986842 " transform="matrix(0.0390625,0,0,0.0395833,0,0)"/>
<path style="fill-rule:nonzero;fill:rgb(0%,60.784316%,22.745098%);fill-opacity:1;stroke-width:0.1;stroke-linecap:butt;stroke-linejoin:miter;stroke:rgb(0%,0%,0%);stroke-opacity:1;stroke-miterlimit:4;" d="M 293.6 233.388158 L 293.2 222.434211 L 291.4 233.388158 L 292.4 235.263158 L 293.6 233.388158 " transform="matrix(0.0390625,0,0,0.0395833,0,0)"/>
<path style="fill-rule:nonzero;fill:rgb(0%,60.784316%,22.745098%);fill-opacity:1;stroke-width:0.1;stroke-linecap:butt;stroke-linejoin:miter;stroke:rgb(0%,0%,0%);stroke-opacity:1;stroke-miterlimit:4;" d="M 299.6 226.776316 C 297.2 229.440789 293.5 233.289474 291.4 236.052632 C 290.9 232.105263 289.6 226.282895 288.9 222.631579 C 289.9 225.592105 291.2 229.835526 292.4 232.203947 C 294.6 231.019737 297.4 228.355263 299.6 226.776316 " transform="matrix(0.0390625,0,0,0.0395833,0,0)"/>
<path style="fill-rule:nonzero;fill:rgb(0%,60.784316%,22.745098%);fill-opacity:1;stroke-width:0.1;stroke-linecap:butt;stroke-linejoin:miter;stroke:rgb(0%,0%,0%);stroke-opacity:1;stroke-miterlimit:4;" d="M 293 234.473684 L 294.2 223.322368 L 290.9 233.881579 L 291.6 236.052632 L 293 234.473684 " transform="matrix(0.0390625,0,0,0.0395833,0,0)"/>
<path style="fill-rule:nonzero;fill:rgb(0%,60.784316%,22.745098%);fill-opacity:1;stroke-width:0.1;stroke-linecap:butt;stroke-linejoin:miter;stroke:rgb(0%,0%,0%);stroke-opacity:1;stroke-miterlimit:4;" d="M 299 227.171053 C 297 230.131579 293.5 234.177632 291.6 237.236842 C 290.8 233.388158 289.1 227.664474 288.1 224.210526 C 289.4 226.973684 290.9 231.019737 292.3 233.289474 C 294.4 231.907895 297 229.144737 299.1 227.269737 " transform="matrix(0.0390625,0,0,0.0395833,0,0)"/>
<path style="fill-rule:nonzero;fill:rgb(0%,60.784316%,22.745098%);fill-opacity:1;stroke-width:0.1;stroke-linecap:butt;stroke-linejoin:miter;stroke:rgb(0%,0%,0%);stroke-opacity:1;stroke-miterlimit:4;" d="M 293 235.559211 L 292.2 224.309211 L 290.8 235.460526 L 291.8 237.532895 L 292.9 235.460526 " transform="matrix(0.0390625,0,0,0.0395833,0,0)"/>
<path style="fill-rule:nonzero;fill:rgb(0%,60.784316%,22.745098%);fill-opacity:1;stroke-width:0.1;stroke-linecap:butt;stroke-linejoin:miter;stroke:rgb(0%,0%,0%);stroke-opacity:1;stroke-miterlimit:4;" d="M 298.9 227.861842 C 296.9 230.921053 293.6 235.164474 291.9 238.322368 C 290.9 234.473684 288.9 228.848684 287.7 225.296053 C 289.1 228.059211 290.8 232.105263 292.4 234.276316 C 294.4 232.796053 296.9 229.835526 298.9 227.861842 " transform="matrix(0.0390625,0,0,0.0395833,0,0)"/>
<path style="fill-rule:nonzero;fill:rgb(0%,60.784316%,22.745098%);fill-opacity:1;stroke-width:0.1;stroke-linecap:butt;stroke-linejoin:miter;stroke:rgb(0%,0%,0%);stroke-opacity:1;stroke-miterlimit:4;" d="M 293.6 236.644737 L 294.8 225.296053 L 291.6 235.855263 L 292.2 238.223684 L 293.6 236.644737 " transform="matrix(0.0390625,0,0,0.0395833,0,0)"/>
<path style="fill-rule:nonzero;fill:rgb(0%,60.784316%,22.745098%);fill-opacity:1;stroke-width:0.1;stroke-linecap:butt;stroke-linejoin:miter;stroke:rgb(0%,0%,0%);stroke-opacity:1;stroke-miterlimit:4;" d="M 298.4 229.046053 C 296.7 232.105263 293.9 237.039474 292.4 240.296053 C 291.1 236.743421 288.6 231.315789 287.1 227.861842 C 288.8 230.526316 290.8 234.177632 292.6 236.348684 C 294.5 234.473684 296.6 231.118421 298.4 228.947368 " transform="matrix(0.0390625,0,0,0.0395833,0,0)"/>
<path style="fill-rule:nonzero;fill:rgb(0%,60.784316%,22.745098%);fill-opacity:1;stroke-width:0.1;stroke-linecap:butt;stroke-linejoin:miter;stroke:rgb(0%,0%,0%);stroke-opacity:1;stroke-miterlimit:4;" d="M 293.3 237.631579 L 290.1 226.776316 L 291.1 238.125 L 292.6 239.703947 L 293.2 237.631579 " transform="matrix(0.0390625,0,0,0.0395833,0,0)"/>
<path style="fill-rule:nonzero;fill:rgb(0%,60.784316%,22.745098%);fill-opacity:1;stroke-width:0.1;stroke-linecap:butt;stroke-linejoin:miter;stroke:rgb(0%,0%,0%);stroke-opacity:1;stroke-miterlimit:4;" d="M 298.4 230.230263 C 296.6 233.388158 293.6 238.223684 292.1 241.480263 C 290.8 237.927632 288.3 232.5 286.7 229.243421 C 288.4 231.809211 290.5 235.460526 292.3 237.532895 C 294.3 235.657895 296.5 232.401316 298.3 230.230263 " transform="matrix(0.0390625,0,0,0.0395833,0,0)"/>
<path style="fill-rule:nonzero;fill:rgb(0%,60.784316%,22.745098%);fill-opacity:1;stroke-width:0.1;stroke-linecap:butt;stroke-linejoin:miter;stroke:rgb(0%,0%,0%);stroke-opacity:1;stroke-miterlimit:4;" d="M 293.4 239.605263 L 292.2 228.256579 L 291.2 239.605263 L 292.3 241.578947 L 293.4 239.605263 " transform="matrix(0.0390625,0,0,0.0395833,0,0)"/>
<path style="fill-rule:nonzero;fill:rgb(0%,60.784316%,22.745098%);fill-opacity:1;stroke-width:0.1;stroke-linecap:butt;stroke-linejoin:miter;stroke:rgb(0%,0%,0%);stroke-opacity:1;stroke-miterlimit:4;" d="M 298.6 231.217105 C 296.7 234.276316 293.6 239.111842 292.1 242.269737 C 290.8 238.717105 288.4 233.289474 286.9 229.934211 C 288.6 232.5 290.6 236.348684 292.4 238.322368 C 294.4 236.644737 296.7 233.289474 298.6 231.217105 " transform="matrix(0.0390625,0,0,0.0395833,0,0)"/>
<path style="fill-rule:nonzero;fill:rgb(0%,60.784316%,22.745098%);fill-opacity:1;stroke-width:0.1;stroke-linecap:butt;stroke-linejoin:miter;stroke:rgb(0%,0%,0%);stroke-opacity:1;stroke-miterlimit:4;" d="M 293.3 240.493421 L 291.2 229.539474 L 291.1 240.690789 L 292.4 242.467105 L 293.3 240.493421 " transform="matrix(0.0390625,0,0,0.0395833,0,0)"/>
<path style="fill-rule:nonzero;fill:rgb(0%,60.784316%,22.745098%);fill-opacity:1;stroke-width:0.1;stroke-linecap:butt;stroke-linejoin:miter;stroke:rgb(0%,0%,0%);stroke-opacity:1;stroke-miterlimit:4;" d="M 297.8 232.796053 C 295.8 235.756579 292.5 240.296053 290.8 243.453947 C 289.7 239.802632 287.5 234.078947 286.2 230.723684 C 287.7 233.388158 289.6 237.335526 291.2 239.506579 C 293.3 237.927632 295.8 234.769737 297.8 232.796053 " transform="matrix(0.0390625,0,0,0.0395833,0,0)"/>
<path style="fill-rule:nonzero;fill:rgb(0%,60.784316%,22.745098%);fill-opacity:1;stroke-width:0.1;stroke-linecap:butt;stroke-linejoin:miter;stroke:rgb(0%,0%,0%);stroke-opacity:1;stroke-miterlimit:4;" d="M 292.3 241.677632 L 293.3 230.427632 L 290.2 241.085526 L 290.9 243.256579 L 292.3 241.677632 " transform="matrix(0.0390625,0,0,0.0395833,0,0)"/>
<path style="fill-rule:nonzero;fill:rgb(0%,60.784316%,22.745098%);fill-opacity:1;stroke-width:0.1;stroke-linecap:butt;stroke-linejoin:miter;stroke:rgb(0%,0%,0%);stroke-opacity:1;stroke-miterlimit:4;" d="M 297.9 232.993421 C 296.2 236.348684 293.3 241.282895 291.9 244.638158 C 290.5 241.085526 287.9 235.756579 286.2 232.598684 C 288 234.967105 290.2 238.618421 292 240.592105 C 294 238.717105 296 235.263158 297.9 233.092105 " transform="matrix(0.0390625,0,0,0.0395833,0,0)"/>
<path style="fill-rule:nonzero;fill:rgb(0%,60.784316%,22.745098%);fill-opacity:1;stroke-width:0.1;stroke-linecap:butt;stroke-linejoin:miter;stroke:rgb(0%,0%,0%);stroke-opacity:1;stroke-miterlimit:4;" d="M 292 242.664474 L 288.5 232.105263 L 289.8 243.256579 L 291.3 244.934211 L 291.9 242.664474 " transform="matrix(0.0390625,0,0,0.0395833,0,0)"/>
<path style="fill-rule:nonzero;fill:rgb(0%,60.784316%,22.745098%);fill-opacity:1;stroke-width:0.1;stroke-linecap:butt;stroke-linejoin:miter;stroke:rgb(0%,0%,0%);stroke-opacity:1;stroke-miterlimit:4;" d="M 297.4 233.881579 C 296.2 237.532895 294.2 242.861842 293.4 246.611842 C 291.4 243.355263 287.9 238.815789 285.8 235.855263 C 287.9 238.026316 290.7 241.085526 292.8 242.565789 C 294.4 240.296053 296 236.644737 297.4 233.881579 " transform="matrix(0.0390625,0,0,0.0395833,0,0)"/>
<path style="fill-rule:nonzero;fill:rgb(0%,60.784316%,22.745098%);fill-opacity:1;stroke-width:0.1;stroke-linecap:butt;stroke-linejoin:miter;stroke:rgb(0%,0%,0%);stroke-opacity:1;stroke-miterlimit:4;" d="M 295 243.453947 L 291.3 233.092105 L 292.9 244.342105 L 294.4 245.723684 L 295 243.453947 " transform="matrix(0.0390625,0,0,0.0395833,0,0)"/>
<path style="fill-rule:nonzero;fill:rgb(0%,60.784316%,22.745098%);fill-opacity:1;stroke-width:0.1;stroke-linecap:butt;stroke-linejoin:miter;stroke:rgb(0%,0%,0%);stroke-opacity:1;stroke-miterlimit:4;" d="M 297.4 234.967105 C 296.2 238.618421 294.2 244.144737 293.4 247.697368 C 291.4 244.539474 288 240 285.8 237.236842 C 287.9 239.210526 290.7 242.171053 292.8 243.848684 C 294.4 241.480263 296 237.730263 297.4 234.967105 " transform="matrix(0.0390625,0,0,0.0395833,0,0)"/>
<path style="fill-rule:nonzero;fill:rgb(0%,60.784316%,22.745098%);fill-opacity:1;stroke-width:0.1;stroke-linecap:butt;stroke-linejoin:miter;stroke:rgb(0%,0%,0%);stroke-opacity:1;stroke-miterlimit:4;" d="M 295 245.328947 L 290.2 235.559211 L 293 246.414474 L 294.7 247.598684 L 295.1 245.328947 " transform="matrix(0.0390625,0,0,0.0395833,0,0)"/>
<path style="fill-rule:nonzero;fill:rgb(0%,60.784316%,22.745098%);fill-opacity:1;stroke-width:0.1;stroke-linecap:butt;stroke-linejoin:miter;stroke:rgb(0%,0%,0%);stroke-opacity:1;stroke-miterlimit:4;" d="M 297 235.855263 C 296.3 239.605263 295 245.427632 294.5 249.078947 C 292.2 246.217105 288.2 242.072368 285.8 239.703947 C 288.1 241.381579 291.2 244.144737 293.5 245.230263 C 294.8 242.664474 295.9 238.717105 297 235.855263 " transform="matrix(0.0390625,0,0,0.0395833,0,0)"/>
<path style="fill-rule:nonzero;fill:rgb(0%,60.784316%,22.745098%);fill-opacity:1;stroke-width:0.1;stroke-linecap:butt;stroke-linejoin:miter;stroke:rgb(0%,0%,0%);stroke-opacity:1;stroke-miterlimit:4;" d="M 295.4 246.809211 L 292.8 235.855263 L 293.2 247.203947 L 294.6 248.881579 L 295.4 246.907895 " transform="matrix(0.0390625,0,0,0.0395833,0,0)"/>
<path style="fill-rule:nonzero;fill:rgb(0%,60.784316%,22.745098%);fill-opacity:1;stroke-width:0.1;stroke-linecap:butt;stroke-linejoin:miter;stroke:rgb(0%,0%,0%);stroke-opacity:1;stroke-miterlimit:4;" d="M 297 237.039474 C 296.6 240.888158 295.8 246.809211 295.8 250.460526 C 293.2 247.993421 288.9 244.539474 286.3 242.368421 C 288.7 243.848684 292 246.019737 294.4 246.809211 C 295.4 244.243421 296.2 240 297 237.138158 " transform="matrix(0.0390625,0,0,0.0395833,0,0)"/>
<path style="fill-rule:nonzero;fill:rgb(0%,60.784316%,22.745098%);fill-opacity:1;stroke-width:0.1;stroke-linecap:butt;stroke-linejoin:miter;stroke:rgb(0%,0%,0%);stroke-opacity:1;stroke-miterlimit:4;" d="M 295.5 247.598684 L 288.6 239.802632 L 293.8 249.276316 L 295.8 249.868421 L 295.5 247.598684 " transform="matrix(0.0390625,0,0,0.0395833,0,0)"/>
<path style="fill-rule:nonzero;fill:rgb(0%,60.784316%,22.745098%);fill-opacity:1;stroke-width:0.1;stroke-linecap:butt;stroke-linejoin:miter;stroke:rgb(0%,0%,0%);stroke-opacity:1;stroke-miterlimit:4;" d="M 297.2 238.421053 C 296.8 242.171053 296 248.092105 295.9 251.842105 C 293.3 249.276316 289 245.822368 286.4 243.552632 C 288.9 245.032895 292.2 247.302632 294.5 248.092105 C 295.6 245.526316 296.3 241.282895 297.2 238.421053 " transform="matrix(0.0390625,0,0,0.0395833,0,0)"/>
<path style="fill-rule:nonzero;fill:rgb(0%,60.784316%,22.745098%);fill-opacity:1;stroke-width:0.1;stroke-linecap:butt;stroke-linejoin:miter;stroke:rgb(0%,0%,0%);stroke-opacity:1;stroke-miterlimit:4;" d="M 296.3 249.375 L 291 240 L 294.3 250.657895 L 296 251.842105 L 296.3 249.473684 " transform="matrix(0.0390625,0,0,0.0395833,0,0)"/>
<path style="fill-rule:nonzero;fill:rgb(0%,60.784316%,22.745098%);fill-opacity:1;stroke-width:0.1;stroke-linecap:butt;stroke-linejoin:miter;stroke:rgb(0%,0%,0%);stroke-opacity:1;stroke-miterlimit:4;" d="M 297.5 240 C 297.2 243.848684 296.7 249.671053 296.7 253.519737 C 293.6 250.756579 290.3 248.289474 286.9 245.921053 C 289.5 247.105263 292.9 249.177632 295.2 249.868421 C 296.2 247.203947 296.8 242.861842 297.5 239.901316 " transform="matrix(0.0390625,0,0,0.0395833,0,0)"/>
<path style="fill-rule:nonzero;fill:rgb(0%,60.784316%,22.745098%);fill-opacity:1;stroke-width:0.1;stroke-linecap:butt;stroke-linejoin:miter;stroke:rgb(0%,0%,0%);stroke-opacity:1;stroke-miterlimit:4;" d="M 297 251.151316 L 290.4 242.861842 L 295.2 252.730263 L 297 253.519737 L 297 251.151316 " transform="matrix(0.0390625,0,0,0.0395833,0,0)"/>
<path style="fill-rule:nonzero;fill:rgb(0%,60.784316%,22.745098%);fill-opacity:1;stroke-width:0.1;stroke-linecap:butt;stroke-linejoin:miter;stroke:rgb(0%,0%,0%);stroke-opacity:1;stroke-miterlimit:4;" d="M 297.6 241.776316 C 297.3 245.625 296.8 251.546053 296.9 255.296053 C 294.2 252.927632 289.8 249.671053 287 247.697368 C 289.6 248.980263 293 250.953947 295.4 251.743421 C 296.4 248.980263 296.9 244.736842 297.6 241.677632 " transform="matrix(0.0390625,0,0,0.0395833,0,0)"/>
<path style="fill-rule:nonzero;fill:rgb(0%,60.784316%,22.745098%);fill-opacity:1;stroke-width:0.1;stroke-linecap:butt;stroke-linejoin:miter;stroke:rgb(0%,0%,0%);stroke-opacity:1;stroke-miterlimit:4;" d="M 297.5 252.631579 L 293 242.565789 L 295.5 253.618421 L 297.1 254.901316 L 297.5 252.631579 " transform="matrix(0.0390625,0,0,0.0395833,0,0)"/>
<path style="fill-rule:nonzero;fill:rgb(0%,60.784316%,22.745098%);fill-opacity:1;stroke-width:0.1;stroke-linecap:butt;stroke-linejoin:miter;stroke:rgb(0%,0%,0%);stroke-opacity:1;stroke-miterlimit:4;" d="M 297.7 242.861842 C 297.9 246.809211 297.9 252.730263 298.3 256.480263 C 294.9 254.309211 291.5 252.236842 287.9 250.263158 C 290.5 251.151316 294 252.730263 296.5 253.125 C 297.2 250.164474 297.3 246.019737 297.7 242.861842 " transform="matrix(0.0390625,0,0,0.0395833,0,0)"/>
<path style="fill-rule:nonzero;fill:rgb(0%,60.784316%,22.745098%);fill-opacity:1;stroke-width:0.1;stroke-linecap:butt;stroke-linejoin:miter;stroke:rgb(0%,0%,0%);stroke-opacity:1;stroke-miterlimit:4;" d="M 298.3 252.236842 L 290 246.513158 L 297 254.309211 L 299 254.407895 L 298.3 252.236842 " transform="matrix(0.0390625,0,0,0.0395833,0,0)"/>
<path style="fill-rule:nonzero;fill:rgb(0%,60.784316%,22.745098%);fill-opacity:1;stroke-width:0.1;stroke-linecap:butt;stroke-linejoin:miter;stroke:rgb(0%,0%,0%);stroke-opacity:1;stroke-miterlimit:4;" d="M 298 243.256579 C 298.3 247.203947 298.7 253.125 299.3 256.776316 C 296.3 254.901316 291.5 252.532895 288.5 250.953947 C 291.2 251.842105 294.8 253.223684 297.3 253.519737 C 297.8 250.559211 297.7 246.414474 298 243.256579 " transform="matrix(0.0390625,0,0,0.0395833,0,0)"/>
<path style="fill-rule:nonzero;fill:rgb(0%,60.784316%,22.745098%);fill-opacity:1;stroke-width:0.1;stroke-linecap:butt;stroke-linejoin:miter;stroke:rgb(0%,0%,0%);stroke-opacity:1;stroke-miterlimit:4;" d="M 299.3 254.309211 L 292.3 246.315789 L 297.6 255.888158 L 299.5 256.578947 L 299.2 254.309211 " transform="matrix(0.0390625,0,0,0.0395833,0,0)"/>
<path style="fill-rule:nonzero;fill:rgb(0%,60.784316%,22.745098%);fill-opacity:1;stroke-width:0.1;stroke-linecap:butt;stroke-linejoin:miter;stroke:rgb(0%,0%,0%);stroke-opacity:1;stroke-miterlimit:4;" d="M 298.6 244.835526 C 299.1 248.585526 299.6 254.506579 300.5 258.157895 C 297.5 256.480263 292.5 254.407895 289.5 253.125 C 292.2 253.717105 295.9 254.901316 298.3 255.098684 C 298.7 252.138158 298.5 247.894737 298.6 244.835526 " transform="matrix(0.0390625,0,0,0.0395833,0,0)"/>
<path style="fill-rule:nonzero;fill:rgb(0%,60.784316%,22.745098%);fill-opacity:1;stroke-width:0.1;stroke-linecap:butt;stroke-linejoin:miter;stroke:rgb(0%,0%,0%);stroke-opacity:1;stroke-miterlimit:4;" d="M 300.6 255.690789 L 292.3 249.769737 L 299.3 257.763158 L 301.3 257.861842 L 300.6 255.690789 " transform="matrix(0.0390625,0,0,0.0395833,0,0)"/>
<path style="fill-rule:nonzero;fill:rgb(0%,60.784316%,22.745098%);fill-opacity:1;stroke-width:0.1;stroke-linecap:butt;stroke-linejoin:miter;stroke:rgb(0%,0%,0%);stroke-opacity:1;stroke-miterlimit:4;" d="M 298.9 246.414474 C 299.6 250.164474 300.6 256.085526 301.6 259.736842 C 298.5 258.157895 293.4 256.578947 290.3 255.592105 C 293.1 255.888158 296.8 256.776316 299.3 256.578947 C 299.5 253.717105 299 249.572368 298.9 246.414474 " transform="matrix(0.0390625,0,0,0.0395833,0,0)"/>
<path style="fill-rule:nonzero;fill:rgb(0%,60.784316%,22.745098%);fill-opacity:1;stroke-width:0.1;stroke-linecap:butt;stroke-linejoin:miter;stroke:rgb(0%,0%,0%);stroke-opacity:1;stroke-miterlimit:4;" d="M 301.6 256.875 L 294.6 248.684211 L 299.8 258.355263 L 301.8 259.243421 L 301.6 256.875 " transform="matrix(0.0390625,0,0,0.0395833,0,0)"/>
<path style="fill-rule:nonzero;fill:rgb(0%,60.784316%,22.745098%);fill-opacity:1;stroke-width:0.1;stroke-linecap:butt;stroke-linejoin:miter;stroke:rgb(0%,0%,0%);stroke-opacity:1;stroke-miterlimit:4;" d="M 299.3 247.401316 C 300.4 251.052632 301.9 256.875 303.3 260.427632 C 300 259.440789 294.9 258.355263 291.7 257.763158 C 294.5 257.763158 298.2 258.059211 300.7 257.664474 C 300.7 254.703947 299.7 250.559211 299.3 247.5 " transform="matrix(0.0390625,0,0,0.0395833,0,0)"/>
<path style="fill-rule:nonzero;fill:rgb(0%,60.784316%,22.745098%);fill-opacity:1;stroke-width:0.1;stroke-linecap:butt;stroke-linejoin:miter;stroke:rgb(0%,0%,0%);stroke-opacity:1;stroke-miterlimit:4;" d="M 302 256.875 L 292.3 254.901316 L 301.4 259.440789 L 303.3 258.651316 L 301.9 256.875 " transform="matrix(0.0390625,0,0,0.0395833,0,0)"/>
<path style="fill-rule:nonzero;fill:rgb(0%,60.784316%,22.745098%);fill-opacity:1;stroke-width:0.1;stroke-linecap:butt;stroke-linejoin:miter;stroke:rgb(0%,0%,0%);stroke-opacity:1;stroke-miterlimit:4;" d="M 300 248.585526 C 301 252.335526 302.5 257.960526 303.8 261.513158 C 300.6 260.526316 295.5 259.539474 292.3 258.947368 C 295.1 258.947368 298.8 259.243421 301.3 258.947368 C 301.3 255.888158 300.3 251.743421 300 248.585526 " transform="matrix(0.0390625,0,0,0.0395833,0,0)"/>
<path style="fill-rule:nonzero;fill:rgb(0%,60.784316%,22.745098%);fill-opacity:1;stroke-width:0.1;stroke-linecap:butt;stroke-linejoin:miter;stroke:rgb(0%,0%,0%);stroke-opacity:1;stroke-miterlimit:4;" d="M 303.5 257.861842 L 294.3 253.421053 L 302.5 260.131579 L 304.5 259.934211 L 303.5 257.861842 " transform="matrix(0.0390625,0,0,0.0395833,0,0)"/>
<path style="fill-rule:nonzero;fill:rgb(0%,60.784316%,22.745098%);fill-opacity:1;stroke-width:0.1;stroke-linecap:butt;stroke-linejoin:miter;stroke:rgb(0%,0%,0%);stroke-opacity:1;stroke-miterlimit:4;" d="M 299.5 249.177632 C 301.3 252.631579 304 257.861842 306 260.921053 C 302.6 260.723684 297.4 260.921053 294.2 260.921053 C 296.9 260.427632 300.6 259.934211 302.9 258.947368 C 302.2 255.986842 300.5 252.236842 299.5 249.177632 " transform="matrix(0.0390625,0,0,0.0395833,0,0)"/>
<path style="fill-rule:nonzero;fill:rgb(0%,60.784316%,22.745098%);fill-opacity:1;stroke-width:0.1;stroke-linecap:butt;stroke-linejoin:miter;stroke:rgb(0%,0%,0%);stroke-opacity:1;stroke-miterlimit:4;" d="M 305 258.947368 L 295.4 256.282895 L 304.4 261.315789 L 306.2 260.822368 L 304.9 258.848684 " transform="matrix(0.0390625,0,0,0.0395833,0,0)"/>
<path style="fill-rule:nonzero;fill:rgb(0%,60.784316%,22.745098%);fill-opacity:1;stroke-width:0.1;stroke-linecap:butt;stroke-linejoin:miter;stroke:rgb(0%,0%,0%);stroke-opacity:1;stroke-miterlimit:4;" d="M 300.4 250.657895 C 302.3 254.013158 305 259.342105 307.1 262.302632 C 303.7 262.105263 298.5 262.302632 295.3 262.5 C 297.9 261.809211 301.7 261.315789 303.9 260.328947 C 303.3 257.368421 301.5 253.618421 300.5 250.657895 " transform="matrix(0.0390625,0,0,0.0395833,0,0)"/>
<path style="fill-rule:nonzero;fill:rgb(0%,60.784316%,22.745098%);fill-opacity:1;stroke-width:0.1;stroke-linecap:butt;stroke-linejoin:miter;stroke:rgb(0%,0%,0%);stroke-opacity:1;stroke-miterlimit:4;" d="M 306.1 259.736842 L 297.2 254.407895 L 305 261.809211 L 307 261.809211 L 306.1 259.736842 " transform="matrix(0.0390625,0,0,0.0395833,0,0)"/>
<path style="fill-rule:nonzero;fill:rgb(0%,60.784316%,22.745098%);fill-opacity:1;stroke-width:0.1;stroke-linecap:butt;stroke-linejoin:miter;stroke:rgb(0%,0%,0%);stroke-opacity:1;stroke-miterlimit:4;" d="M 301.2 251.546053 C 303.3 254.605263 306.5 259.539474 308.8 262.401316 C 304.9 262.697368 301 263.289474 297.2 264.078947 C 299.8 263.092105 303.4 262.105263 305.6 260.822368 C 304.6 257.960526 302.5 254.309211 301.2 251.546053 " transform="matrix(0.0390625,0,0,0.0395833,0,0)"/>
<path style="fill-rule:nonzero;fill:rgb(0%,60.784316%,22.745098%);fill-opacity:1;stroke-width:0.1;stroke-linecap:butt;stroke-linejoin:miter;stroke:rgb(0%,0%,0%);stroke-opacity:1;stroke-miterlimit:4;" d="M 306.8 260.526316 L 297.2 260.230263 L 306.7 263.092105 L 308.4 262.006579 L 306.8 260.526316 M 312.4 213.947368 L 319.3 212.763158 L 312.4 212.861842 L 311.2 213.453947 L 312.4 213.947368 " transform="matrix(0.0390625,0,0,0.0395833,0,0)"/>
<path style="fill-rule:nonzero;fill:rgb(0%,60.784316%,22.745098%);fill-opacity:1;stroke-width:0.1;stroke-linecap:butt;stroke-linejoin:miter;stroke:rgb(0%,0%,0%);stroke-opacity:1;stroke-miterlimit:4;" d="M 316.2 215.427632 C 314.2 214.835526 311.2 213.848684 309.1 213.355263 L 316.5 209.901316 C 315 210.888158 312.7 212.072368 311.5 213.059211 C 312.7 213.947368 314.8 214.736842 316.2 215.427632 " transform="matrix(0.0390625,0,0,0.0395833,0,0)"/>
<path style="fill-rule:nonzero;fill:rgb(0%,60.784316%,22.745098%);fill-opacity:1;stroke-width:0.1;stroke-linecap:butt;stroke-linejoin:miter;stroke:rgb(0%,0%,0%);stroke-opacity:1;stroke-miterlimit:4;" d="M 312 214.144737 L 318.8 212.269737 L 311.8 213.157895 L 310.8 213.947368 L 312.1 214.144737 " transform="matrix(0.0390625,0,0,0.0395833,0,0)"/>
<path style="fill-rule:nonzero;fill:rgb(0%,60.784316%,22.745098%);fill-opacity:1;stroke-width:0.1;stroke-linecap:butt;stroke-linejoin:miter;stroke:rgb(0%,0%,0%);stroke-opacity:1;stroke-miterlimit:4;" d="M 316.5 215.921053 C 314.1 215.625 310.5 215.230263 308.2 215.230263 C 310 213.552632 312.4 211.085526 313.9 209.506579 C 312.9 210.986842 311.3 212.861842 310.6 214.342105 C 312.2 215.032895 314.7 215.427632 316.5 215.921053 " transform="matrix(0.0390625,0,0,0.0395833,0,0)"/>
<path style="fill-rule:nonzero;fill:rgb(0%,60.784316%,22.745098%);fill-opacity:1;stroke-width:0.1;stroke-linecap:butt;stroke-linejoin:miter;stroke:rgb(0%,0%,0%);stroke-opacity:1;stroke-miterlimit:4;" d="M 309.6 214.638158 L 316.6 213.848684 L 309.8 213.552632 L 308.5 214.243421 L 309.5 214.638158 " transform="matrix(0.0390625,0,0,0.0395833,0,0)"/>
<path style="fill-rule:nonzero;fill:rgb(0%,60.784316%,22.745098%);fill-opacity:1;stroke-width:0.1;stroke-linecap:butt;stroke-linejoin:miter;stroke:rgb(0%,0%,0%);stroke-opacity:1;stroke-miterlimit:4;" d="M 314.7 216.118421 L 307.2 214.835526 L 314.1 210.986842 C 312.7 211.973684 310.7 213.355263 309.7 214.440789 C 311 215.032895 313.2 215.625 314.7 216.118421 " transform="matrix(0.0390625,0,0,0.0395833,0,0)"/>
<path style="fill-rule:nonzero;fill:rgb(0%,60.784316%,22.745098%);fill-opacity:1;stroke-width:0.1;stroke-linecap:butt;stroke-linejoin:miter;stroke:rgb(0%,0%,0%);stroke-opacity:1;stroke-miterlimit:4;" d="M 309 214.638158 L 315.1 211.875 L 308.4 213.651316 L 307.6 214.539474 L 309 214.539474 " transform="matrix(0.0390625,0,0,0.0395833,0,0)"/>
<path style="fill-rule:nonzero;fill:rgb(0%,60.784316%,22.745098%);fill-opacity:1;stroke-width:0.1;stroke-linecap:butt;stroke-linejoin:miter;stroke:rgb(0%,0%,0%);stroke-opacity:1;stroke-miterlimit:4;" d="M 314.5 216.907895 C 312.8 216.217105 310 214.934211 308.3 214.440789 L 312.7 209.605263 C 311.9 210.888158 310.7 212.565789 310.1 214.046053 C 311.3 215.032895 313.1 216.019737 314.5 216.907895 " transform="matrix(0.0390625,0,0,0.0395833,0,0)"/>
<path style="fill-rule:nonzero;fill:rgb(0%,60.784316%,22.745098%);fill-opacity:1;stroke-width:0.1;stroke-linecap:butt;stroke-linejoin:miter;stroke:rgb(0%,0%,0%);stroke-opacity:1;stroke-miterlimit:4;" d="M 309.3 215.032895 L 314.1 212.960526 L 308.9 213.552632 L 308.3 214.638158 L 309.3 215.032895 M 305.3 259.638158 L 295.5 259.638158 L 305.5 262.105263 L 307.1 261.118421 L 305.3 259.638158 " transform="matrix(0.0390625,0,0,0.0395833,0,0)"/>
<path style="fill-rule:nonzero;fill:rgb(0%,60.784316%,22.745098%);fill-opacity:1;stroke-width:0.1;stroke-linecap:butt;stroke-linejoin:miter;stroke:rgb(0%,0%,0%);stroke-opacity:1;stroke-miterlimit:4;" d="M 307.1 260.230263 L 297.1 257.861842 L 306.7 262.598684 L 308.7 262.006579 L 307.1 260.230263 " transform="matrix(0.0390625,0,0,0.0395833,0,0)"/>
<path style="fill-rule:nonzero;fill:rgb(0%,60.784316%,22.745098%);fill-opacity:1;stroke-width:0.1;stroke-linecap:butt;stroke-linejoin:miter;stroke:rgb(0%,0%,0%);stroke-opacity:1;stroke-miterlimit:4;" d="M 308.8 260.921053 L 298.8 260.427632 L 308.8 263.388158 L 310.5 262.401316 L 308.8 260.921053 " transform="matrix(0.0390625,0,0,0.0395833,0,0)"/>
<path style="fill-rule:nonzero;fill:rgb(0%,60.784316%,22.745098%);fill-opacity:1;stroke-width:0.1;stroke-linecap:butt;stroke-linejoin:miter;stroke:rgb(0%,0%,0%);stroke-opacity:1;stroke-miterlimit:4;" d="M 302.5 253.914474 C 305 256.677632 308.9 261.315789 311.6 263.782895 C 308.3 264.276316 303.3 265.559211 300.2 266.546053 C 302.6 265.263158 306.2 263.881579 308.2 262.5 C 306.8 259.934211 304.2 256.480263 302.5 253.914474 " transform="matrix(0.0390625,0,0,0.0395833,0,0)"/>
<path style="fill-rule:nonzero;fill:rgb(0%,60.784316%,22.745098%);fill-opacity:1;stroke-width:0.1;stroke-linecap:butt;stroke-linejoin:miter;stroke:rgb(0%,0%,0%);stroke-opacity:1;stroke-miterlimit:4;" d="M 310.1 261.414474 L 300.1 258.059211 L 309.5 263.684211 L 311.5 263.289474 L 310.1 261.315789 " transform="matrix(0.0390625,0,0,0.0395833,0,0)"/>
<path style="fill-rule:nonzero;fill:rgb(0%,60.784316%,22.745098%);fill-opacity:1;stroke-width:0.1;stroke-linecap:butt;stroke-linejoin:miter;stroke:rgb(0%,0%,0%);stroke-opacity:1;stroke-miterlimit:4;" d="M 303.4 254.506579 C 306.2 257.072368 310.4 261.217105 313.4 263.486842 C 310.2 264.375 305.4 266.348684 302.4 267.532895 C 304.7 266.052632 308 264.276316 309.8 262.5 C 308.2 260.131579 305.3 256.973684 303.4 254.506579 " transform="matrix(0.0390625,0,0,0.0395833,0,0)"/>
<path style="fill-rule:nonzero;fill:rgb(0%,60.784316%,22.745098%);fill-opacity:1;stroke-width:0.1;stroke-linecap:butt;stroke-linejoin:miter;stroke:rgb(0%,0%,0%);stroke-opacity:1;stroke-miterlimit:4;" d="M 311 262.006579 L 301.5 263.881579 L 311.5 264.473684 L 312.9 263.190789 L 310.9 262.006579 " transform="matrix(0.0390625,0,0,0.0395833,0,0)"/>
<path style="fill-rule:nonzero;fill:rgb(0%,60.784316%,22.745098%);fill-opacity:1;stroke-width:0.1;stroke-linecap:butt;stroke-linejoin:miter;stroke:rgb(0%,0%,0%);stroke-opacity:1;stroke-miterlimit:4;" d="M 309 261.414474 L 299.2 262.203947 L 309.3 263.881579 L 310.9 262.697368 L 308.9 261.414474 " transform="matrix(0.0390625,0,0,0.0395833,0,0)"/>
<path style="fill-rule:nonzero;fill:rgb(0%,60.784316%,22.745098%);fill-opacity:1;stroke-width:0.1;stroke-linecap:butt;stroke-linejoin:miter;stroke:rgb(0%,0%,0%);stroke-opacity:1;stroke-miterlimit:4;" d="M 310.8 262.006579 L 300.6 260.328947 L 310.6 264.276316 L 312.4 263.585526 Z M 310.8 262.006579 " transform="matrix(0.0390625,0,0,0.0395833,0,0)"/>
<path style="fill-rule:nonzero;fill:rgb(0%,60.784316%,22.745098%);fill-opacity:1;stroke-width:0.1;stroke-linecap:butt;stroke-linejoin:miter;stroke:rgb(0%,0%,0%);stroke-opacity:1;stroke-miterlimit:4;" d="M 312.5 262.5 L 302.5 262.697368 L 312.7 264.967105 L 314.3 263.881579 Z M 312.5 262.5 " transform="matrix(0.0390625,0,0,0.0395833,0,0)"/>
<path style="fill-rule:nonzero;fill:rgb(0%,60.784316%,22.745098%);fill-opacity:1;stroke-width:0.1;stroke-linecap:butt;stroke-linejoin:miter;stroke:rgb(0%,0%,0%);stroke-opacity:1;stroke-miterlimit:4;" d="M 305.7 255.986842 C 308.5 258.552632 312.7 262.796053 315.6 265.164474 C 312.3 265.855263 307.3 267.631579 304.3 268.618421 C 306.7 267.335526 310.1 265.657895 312 264.078947 C 310.4 261.611842 307.6 258.355263 305.7 255.888158 Z M 305.7 255.986842 " transform="matrix(0.0390625,0,0,0.0395833,0,0)"/>
<path style="fill-rule:nonzero;fill:rgb(0%,60.784316%,22.745098%);fill-opacity:1;stroke-width:0.1;stroke-linecap:butt;stroke-linejoin:miter;stroke:rgb(0%,0%,0%);stroke-opacity:1;stroke-miterlimit:4;" d="M 313.9 262.894737 L 303.7 260.328947 L 313.5 265.263158 L 315.4 264.671053 Z M 313.9 262.894737 " transform="matrix(0.0390625,0,0,0.0395833,0,0)"/>
<path style="fill-rule:nonzero;fill:rgb(0%,60.784316%,22.745098%);fill-opacity:1;stroke-width:0.1;stroke-linecap:butt;stroke-linejoin:miter;stroke:rgb(0%,0%,0%);stroke-opacity:1;stroke-miterlimit:4;" d="M 306.6 256.480263 C 309.6 258.947368 314.2 262.697368 317.3 264.671053 C 314.1 265.756579 309.5 268.223684 306.7 269.605263 C 308.9 267.927632 312 265.855263 313.7 264.078947 C 311.9 261.710526 308.7 258.848684 306.7 256.480263 Z M 306.6 256.480263 " transform="matrix(0.0390625,0,0,0.0395833,0,0)"/>
<path style="fill-rule:nonzero;fill:rgb(0%,60.784316%,22.745098%);fill-opacity:1;stroke-width:0.1;stroke-linecap:butt;stroke-linejoin:miter;stroke:rgb(0%,0%,0%);stroke-opacity:1;stroke-miterlimit:4;" d="M 314.8 263.388158 L 305.5 265.953947 L 315.5 265.953947 L 316.8 264.473684 L 314.8 263.486842 Z M 314.8 263.388158 " transform="matrix(0.0390625,0,0,0.0395833,0,0)"/>
<path style="fill-rule:nonzero;fill:rgb(99.607843%,87.450981%,0%);fill-opacity:1;stroke-width:0.4;stroke-linecap:butt;stroke-linejoin:miter;stroke:rgb(0%,0%,0%);stroke-opacity:1;stroke-miterlimit:4;" d="M 327.6 249.473684 L 320 244.243421 L 312.4 249.473684 L 315.3 241.085526 L 308.6 235.855263 L 317.2 235.855263 L 320 227.467105 L 322.8 235.855263 L 331.4 235.855263 L 324.7 241.085526 Z M 327.6 249.473684 " transform="matrix(0.0390625,0,0,0.0395833,0,0)"/>
</g>
</svg>
