<svg xmlns="http://www.w3.org/2000/svg" width="25" height="px" viewBox="0 0 25 19"><path d="M0 0h25v19H0z" style="fill:#20603d;fill-opacity:1;stroke:none"/><path d="M0 0h25v14.25H0Zm0 0" style="stroke:none;fill-rule:nonzero;fill:#fad201;fill-opacity:1"/><path d="M0 0h25v9.5H0Zm0 0" style="stroke:none;fill-rule:nonzero;fill:#00a1de;fill-opacity:1"/><path d="m22.984 4.965-2.093.12 1.988.673-2.05-.43 1.753 1.168-1.875-.957 1.39 1.59-1.566-1.41.942 1.898-1.153-1.773.422 2.074-.66-2.012-.121 2.121-.027-3.09Zm0 0" style="stroke:none;fill-rule:nonzero;fill:#e5be01;fill-opacity:1"/><path d="m22.984 4.965-2.093-.125 1.988-.672-2.05.43 1.753-1.164-1.875.953 1.39-1.59-1.566 1.414.942-1.902-1.153 1.777.422-2.078-.66 2.015-.121-2.125-.027 3.09Zm0 0" style="stroke:none;fill-rule:nonzero;fill:#e5be01;fill-opacity:1"/><path d="m16.938 4.965 2.093.12-1.988.673 2.05-.43-1.753 1.168 1.875-.957-1.39 1.59 1.566-1.41-.942 1.898 1.153-1.773-.422 2.074.66-2.012.12 2.121.028-3.09Zm0 0" style="stroke:none;fill-rule:nonzero;fill:#e5be01;fill-opacity:1"/><path d="m16.938 4.965 2.093-.125-1.988-.672 2.05.43-1.753-1.164 1.875.953-1.39-1.59L19.39 4.21l-.942-1.902 1.153 1.777-.422-2.078.66 2.015.12-2.125.028 3.09Zm0 0" style="stroke:none;fill-rule:nonzero;fill:#e5be01;fill-opacity:1"/><path d="M34.35.041C34.35-18.906 18.9-34.3 0-34.3S-34.35-18.906-34.35.04-18.9 34.235 0 34.235 34.35 18.99 34.35.041Zm0 0" style="fill-rule:nonzero;fill:#e5be01;fill-opacity:1;stroke-width:3.4;stroke-linecap:butt;stroke-linejoin:miter;stroke:#00a1de;stroke-opacity:1;stroke-miterlimit:4" transform="matrix(.02604 0 0 .02639 19.96 4.964)"/></svg>