<?xml version="1.0" encoding="UTF-8"?>
<svg xmlns="http://www.w3.org/2000/svg" xmlns:xlink="http://www.w3.org/1999/xlink" width="25px" height="px" viewBox="0 0 25 19" version="1.1">
<g id="surface1">
<rect x="0" y="0" width="25" height="19" style="fill:rgb(8.627451%,36.470589%,19.215687%);fill-opacity:1;stroke:none;"/>
<path style=" stroke:none;fill-rule:evenodd;fill:rgb(100%,100%,100%);fill-opacity:1;" d="M 5.523438 5.382812 C 5.496094 5.828125 5.449219 6.609375 5.828125 6.691406 C 6.277344 6.734375 6.027344 5.917969 6.195312 5.769531 C 6.222656 5.695312 6.277344 5.695312 6.28125 5.789062 L 6.28125 6.484375 C 6.28125 6.707031 6.429688 6.773438 6.539062 6.816406 C 6.65625 6.808594 6.734375 6.816406 6.78125 6.929688 L 6.839844 8.125 C 6.839844 8.125 7.109375 8.207031 7.125 7.457031 C 7.136719 7.011719 7.035156 6.640625 7.09375 6.558594 C 7.09375 6.472656 7.203125 6.46875 7.277344 6.507812 C 7.394531 6.589844 7.445312 6.695312 7.628906 6.65625 C 7.90625 6.574219 8.078125 6.4375 8.078125 6.222656 C 8.074219 6.011719 8.03125 5.804688 7.953125 5.605469 C 7.964844 5.570312 7.898438 5.46875 7.914062 5.433594 C 7.960938 5.515625 8.039062 5.507812 8.054688 5.433594 C 8.007812 5.277344 7.933594 5.125 7.816406 5.0625 C 7.71875 4.972656 7.570312 4.988281 7.523438 5.171875 C 7.492188 5.382812 7.597656 5.632812 7.746094 5.839844 C 7.78125 5.917969 7.824219 6.050781 7.804688 6.171875 C 7.722656 6.214844 7.644531 6.199219 7.574219 6.125 C 7.574219 6.125 7.355469 5.960938 7.355469 5.917969 C 7.414062 5.539062 7.367188 5.496094 7.332031 5.386719 C 7.3125 5.242188 7.242188 5.195312 7.1875 5.097656 C 7.132812 5.039062 7.058594 5.039062 7.023438 5.097656 C 6.921875 5.269531 6.96875 5.636719 7.039062 5.804688 C 7.089844 5.957031 7.167969 6.050781 7.132812 6.050781 C 7.101562 6.136719 7.039062 6.117188 6.992188 6.015625 C 6.9375 5.804688 6.914062 5.585938 6.914062 5.371094 C 6.898438 5.199219 6.875 4.835938 6.761719 4.738281 C 6.695312 4.648438 6.597656 4.695312 6.558594 4.777344 C 6.550781 4.941406 6.554688 5.109375 6.570312 5.273438 C 6.644531 5.546875 6.671875 5.792969 6.707031 6.070312 C 6.71875 6.445312 6.492188 6.234375 6.503906 6.046875 C 6.554688 5.808594 6.550781 5.5625 6.492188 5.324219 C 6.457031 5.230469 6.417969 5.207031 6.324219 5.222656 C 6.257812 5.222656 6.078125 5.417969 6.023438 5.753906 C 6.023438 5.753906 5.980469 5.921875 5.964844 6.074219 C 5.9375 6.246094 5.828125 6.371094 5.746094 6.050781 C 5.679688 5.820312 5.636719 5.25 5.527344 5.382812 Z M 5.523438 5.382812 "/>
<path style=" stroke:none;fill-rule:evenodd;fill:rgb(100%,100%,100%);fill-opacity:1;" d="M 6.75 7.207031 L 5.578125 7.777344 C 5.589844 7.507812 6.132812 7.019531 6.503906 7.015625 C 6.742188 7.019531 6.683594 7.109375 6.746094 7.207031 Z M 6.75 7.207031 "/>
<path style=" stroke:none;fill-rule:evenodd;fill:rgb(100%,100%,100%);fill-opacity:1;" d="M 6.542969 7.578125 C 5.925781 9.191406 7.988281 9.417969 8.21875 7.644531 C 8.242188 7.570312 8.328125 7.5 8.34375 7.617188 C 8.296875 9.226562 6.746094 9.332031 6.484375 8.828125 C 6.421875 8.65625 6.390625 8.472656 6.390625 8.285156 C 6.355469 7.972656 6.191406 8.09375 6.164062 8.40625 C 6.140625 8.578125 6.144531 8.628906 6.144531 8.796875 C 6.226562 10.0625 8.222656 9.519531 8.546875 8.472656 C 8.71875 7.894531 8.519531 7.464844 8.609375 7.464844 C 8.808594 7.683594 9.085938 7.496094 9.148438 7.421875 C 9.175781 7.386719 9.242188 7.359375 9.285156 7.40625 C 9.4375 7.519531 9.710938 7.464844 9.769531 7.269531 C 9.800781 7.070312 9.824219 6.871094 9.832031 6.667969 C 9.707031 6.707031 9.613281 6.730469 9.601562 6.789062 L 9.578125 6.957031 C 9.566406 7.015625 9.460938 7.015625 9.453125 6.941406 C 9.40625 6.71875 9.207031 6.695312 9.085938 7.035156 C 9.011719 7.101562 8.863281 7.117188 8.847656 7.015625 C 8.867188 6.789062 8.777344 6.757812 8.59375 6.867188 L 8.417969 5.523438 C 8.488281 5.523438 8.5625 5.578125 8.632812 5.488281 C 8.558594 5.246094 8.394531 4.757812 8.304688 4.71875 C 8.261719 4.667969 8.226562 4.703125 8.167969 4.714844 C 8.074219 4.746094 7.984375 4.828125 8.015625 4.992188 C 8.125 5.6875 8.195312 6.21875 8.3125 6.921875 C 8.328125 7 8.261719 7.105469 8.175781 7.09375 C 8.027344 6.996094 7.992188 6.789062 7.734375 6.796875 C 7.550781 6.796875 7.347656 7.003906 7.320312 7.195312 C 7.289062 7.351562 7.277344 7.519531 7.320312 7.652344 C 7.449219 7.808594 7.605469 7.792969 7.738281 7.757812 C 7.847656 7.710938 7.941406 7.601562 7.980469 7.625 C 8.007812 7.660156 7.984375 8.03125 7.457031 8.3125 C 7.140625 8.460938 6.882812 8.492188 6.746094 8.226562 C 6.664062 8.058594 6.753906 7.433594 6.542969 7.578125 "/>
<path style=" stroke:none;fill-rule:evenodd;fill:rgb(100%,100%,100%);fill-opacity:1;" d="M 9.167969 5.9375 C 9.289062 5.894531 9.875 5.210938 9.875 5.210938 L 9.785156 5.136719 C 9.753906 5.109375 9.753906 5.082031 9.785156 5.054688 C 9.933594 4.964844 9.886719 4.78125 9.8125 4.691406 C 9.710938 4.640625 9.59375 4.644531 9.492188 4.695312 C 9.390625 4.792969 9.367188 4.953125 9.449219 5.050781 C 9.527344 5.085938 9.601562 5.167969 9.550781 5.214844 C 9.308594 5.472656 8.65625 5.921875 8.730469 5.9375 C 8.746094 5.960938 9.152344 5.960938 9.164062 5.9375 Z M 5.617188 8.351562 C 5.394531 8.707031 5.378906 9.238281 5.5 9.394531 C 5.5625 9.46875 5.671875 9.503906 5.746094 9.476562 C 5.886719 9.417969 5.949219 9.132812 5.914062 9.03125 C 5.871094 8.957031 5.828125 8.949219 5.785156 9.007812 C 5.6875 9.207031 5.648438 9.070312 5.636719 8.957031 C 5.625 8.769531 5.636719 8.582031 5.667969 8.394531 C 5.691406 8.238281 5.667969 8.28125 5.617188 8.351562 M 15.03125 7.78125 C 14.816406 7.3125 14.523438 6.855469 14.429688 6.679688 C 14.144531 6.222656 13.839844 5.777344 13.523438 5.34375 C 13.292969 5.070312 13.894531 5.457031 13.449219 4.910156 L 13.121094 4.632812 C 13.050781 4.578125 12.875 4.484375 12.84375 4.640625 C 12.828125 4.78125 12.835938 4.855469 12.859375 4.96875 C 12.878906 5.042969 12.988281 5.171875 13.042969 5.246094 C 13.792969 6.253906 14.453125 7.328125 15.011719 8.457031 C 15.109375 8.410156 15.085938 7.859375 15.03125 7.78125 "/>
<path style=" stroke:none;fill-rule:evenodd;fill:rgb(100%,100%,100%);fill-opacity:1;" d="M 14.097656 9.332031 C 14.054688 9.382812 14.199219 9.585938 14.390625 9.585938 C 14.703125 9.546875 14.984375 9.371094 15.238281 8.894531 C 15.34375 8.738281 15.410156 8.558594 15.433594 8.367188 C 15.464844 7.46875 15.394531 6.566406 15.222656 5.679688 C 15.210938 5.605469 15.222656 5.519531 15.226562 5.496094 C 15.25 5.46875 15.320312 5.496094 15.355469 5.433594 C 15.410156 5.378906 15.210938 4.914062 15.101562 4.738281 C 15.0625 4.65625 15.046875 4.605469 14.980469 4.746094 C 14.898438 4.902344 14.863281 5.074219 14.871094 5.25 C 15.019531 6.308594 15.066406 7.234375 15.164062 8.289062 C 15.171875 8.394531 15.160156 8.542969 15.089844 8.601562 C 14.8125 8.914062 14.476562 9.164062 14.097656 9.332031 M 18.363281 9.328125 C 18.136719 9.464844 18.136719 9.613281 18.320312 9.617188 C 18.632812 9.582031 19.007812 9.554688 19.265625 9.164062 C 19.355469 8.976562 19.40625 8.773438 19.417969 8.570312 C 19.464844 7.679688 19.40625 6.792969 19.246094 5.917969 C 19.238281 5.84375 19.207031 5.671875 19.214844 5.648438 C 19.238281 5.597656 19.339844 5.652344 19.378906 5.59375 C 19.429688 5.535156 19.109375 5.121094 18.996094 4.941406 C 18.960938 4.863281 18.945312 4.808594 18.875 4.949219 C 18.800781 5.105469 18.777344 5.285156 18.808594 5.453125 C 18.976562 6.605469 19.101562 7.464844 19.128906 8.484375 C 19.113281 8.578125 19.109375 8.632812 19.066406 8.753906 C 18.96875 8.878906 18.859375 9.042969 18.753906 9.121094 C 18.652344 9.195312 18.433594 9.269531 18.363281 9.328125 "/>
<path style=" stroke:none;fill-rule:evenodd;fill:rgb(100%,100%,100%);fill-opacity:1;" d="M 18.53125 8.300781 C 18.535156 8.03125 18.53125 7.796875 18.527344 7.597656 C 18.527344 7.421875 18.488281 7.253906 18.417969 7.09375 C 18.351562 6.941406 18.390625 6.820312 18.359375 6.65625 C 18.328125 6.492188 18.335938 6.25 18.292969 6.058594 C 18.277344 5.984375 18.242188 5.746094 18.253906 5.71875 C 18.269531 5.667969 18.339844 5.71875 18.378906 5.660156 C 18.429688 5.601562 18.195312 4.992188 18.078125 4.816406 C 18.035156 4.738281 17.957031 4.765625 17.863281 4.890625 C 17.773438 4.976562 17.804688 5.164062 17.84375 5.347656 C 18.066406 6.546875 18.238281 7.632812 18.203125 8.773438 C 18.1875 8.871094 18.53125 8.484375 18.53125 8.300781 M 16.859375 6.816406 C 16.714844 6.808594 16.417969 6.53125 16.332031 6.371094 C 16.300781 6.292969 16.308594 6.207031 16.34375 6.128906 C 16.398438 6.09375 16.480469 6.054688 16.542969 6.09375 C 16.542969 6.09375 16.605469 6.183594 16.59375 6.195312 C 16.667969 6.230469 16.703125 6.210938 16.710938 6.179688 C 16.714844 6.125 16.6875 6.089844 16.6875 6.03125 C 16.722656 5.859375 16.910156 5.832031 16.980469 5.941406 C 17.035156 6.007812 17.054688 6.144531 17.058594 6.238281 C 17.058594 6.285156 16.984375 6.230469 16.9375 6.238281 C 16.898438 6.253906 16.886719 6.304688 16.882812 6.347656 C 16.875 6.472656 16.863281 6.667969 16.859375 6.8125 Z M 14.226562 8.597656 C 14.265625 8.234375 14.214844 7.585938 14.210938 7.371094 C 14.191406 6.816406 14.144531 6.265625 14.074219 5.714844 C 14.03125 5.402344 14.199219 5.75 14.175781 5.566406 C 14.121094 5.257812 13.953125 5.046875 13.753906 4.769531 C 13.691406 4.675781 13.691406 4.65625 13.589844 4.789062 C 13.480469 5.039062 13.578125 5.214844 13.605469 5.410156 C 13.75 6.046875 13.832031 6.636719 13.875 7.21875 C 13.914062 7.824219 13.921875 8.429688 13.886719 9.035156 C 13.996094 9.039062 14.167969 8.863281 14.226562 8.597656 "/>
<path style=" stroke:none;fill-rule:evenodd;fill:rgb(100%,100%,100%);fill-opacity:1;" d="M 19.019531 8.015625 C 18.765625 7.585938 18.390625 7.125 18.285156 6.949219 C 17.945312 6.46875 17.589844 6.003906 17.21875 5.546875 C 16.90625 5.214844 17.363281 5.492188 17.15625 5.234375 C 16.984375 5.042969 16.9375 4.980469 16.789062 4.863281 C 16.714844 4.816406 16.671875 4.722656 16.640625 4.882812 C 16.628906 5.023438 16.628906 5.160156 16.632812 5.300781 C 16.632812 5.363281 16.699219 5.484375 16.757812 5.558594 C 17.515625 6.503906 18.347656 7.46875 19.015625 8.683594 C 19.109375 8.636719 19.078125 8.089844 19.015625 8.015625 Z M 19.019531 8.015625 "/>
<path style=" stroke:none;fill-rule:evenodd;fill:rgb(8.627451%,36.470589%,19.215687%);fill-opacity:1;" d="M 7.613281 7.226562 C 7.597656 7.257812 7.554688 7.300781 7.570312 7.339844 C 7.59375 7.375 7.625 7.390625 7.664062 7.386719 C 7.707031 7.386719 7.765625 7.398438 7.777344 7.378906 C 7.800781 7.347656 7.808594 7.308594 7.796875 7.253906 C 7.753906 7.144531 7.636719 7.1875 7.613281 7.226562 "/>
<path style=" stroke:none;fill-rule:evenodd;fill:rgb(100%,100%,100%);fill-opacity:1;" d="M 16.097656 13.453125 C 16.433594 13.46875 16.652344 13.46875 16.949219 13.503906 L 17.300781 13.46875 C 17.6875 13.429688 17.703125 14.027344 17.703125 14.027344 C 17.703125 14.378906 17.570312 14.398438 17.394531 14.4375 C 17.296875 14.449219 17.25 14.375 17.195312 14.300781 C 17.113281 14.328125 17.023438 14.332031 16.9375 14.316406 C 16.796875 14.3125 16.65625 14.304688 16.515625 14.296875 C 16.371094 14.285156 16.289062 14.316406 16.140625 14.300781 C 16.109375 14.351562 16.066406 14.417969 15.980469 14.398438 C 15.90625 14.386719 15.8125 14.175781 15.839844 14.007812 C 15.894531 13.890625 15.875 13.929688 15.875 13.878906 C 14.5 13.84375 13.113281 13.777344 11.765625 13.796875 C 10.710938 13.800781 9.667969 13.84375 8.625 13.890625 C 8.070312 13.882812 7.644531 13.792969 7.351562 13.359375 C 7.378906 13.359375 8.773438 13.4375 9.179688 13.410156 C 9.929688 13.402344 10.617188 13.339844 11.382812 13.320312 C 12.890625 13.34375 14.390625 13.34375 15.898438 13.453125 C 15.753906 13.351562 15.753906 13.117188 15.972656 13.058594 C 15.988281 13.042969 16 13.171875 16.035156 13.171875 C 16.214844 13.160156 16.132812 13.402344 16.097656 13.453125 M 10.03125 5.019531 C 9.804688 5.679688 10.164062 6.410156 10.414062 6.339844 C 10.59375 6.414062 10.707031 6.0625 10.777344 5.683594 C 10.832031 5.578125 10.871094 5.566406 10.894531 5.621094 C 10.890625 6.125 10.933594 6.242188 11.0625 6.394531 C 11.347656 6.617188 11.585938 6.421875 11.601562 6.40625 L 11.824219 6.179688 C 11.875 6.125 11.9375 6.121094 12.007812 6.167969 C 12.078125 6.230469 12.066406 6.339844 12.214844 6.414062 C 12.339844 6.464844 12.597656 6.425781 12.660156 6.320312 C 12.742188 6.175781 12.765625 6.125 12.800781 6.074219 C 12.859375 5.996094 12.957031 6.03125 12.957031 6.054688 C 12.945312 6.101562 12.886719 6.140625 12.929688 6.222656 C 13 6.273438 13.015625 6.242188 13.054688 6.230469 C 13.203125 6.15625 13.3125 5.835938 13.3125 5.835938 C 13.316406 5.71875 13.25 5.726562 13.207031 5.753906 L 13.09375 5.832031 C 13.019531 5.84375 12.882812 5.894531 12.816406 5.785156 C 12.746094 5.660156 12.746094 5.476562 12.695312 5.347656 C 12.695312 5.339844 12.597656 5.144531 12.6875 5.132812 C 12.730469 5.140625 12.820312 5.164062 12.835938 5.085938 C 12.882812 5.011719 12.742188 4.789062 12.644531 4.679688 C 12.558594 4.585938 12.441406 4.574219 12.328125 4.671875 C 12.246094 4.746094 12.257812 4.828125 12.242188 4.90625 C 12.214844 5.019531 12.242188 5.140625 12.316406 5.230469 C 12.398438 5.382812 12.539062 5.589844 12.492188 5.878906 C 12.492188 5.878906 12.410156 6.011719 12.261719 5.992188 C 12.199219 5.980469 12.101562 5.957031 12.050781 5.554688 C 12.007812 5.257812 12.058594 4.835938 11.933594 4.636719 C 11.882812 4.515625 11.851562 4.402344 11.742188 4.605469 C 11.710938 4.6875 11.585938 4.808594 11.675781 5.058594 C 11.761719 5.28125 11.789062 5.527344 11.75 5.761719 C 11.695312 5.84375 11.683594 5.871094 11.613281 5.949219 C 11.519531 6.058594 11.414062 6.03125 11.332031 5.988281 C 11.257812 5.941406 11.199219 5.914062 11.164062 5.75 C 11.171875 5.488281 11.183594 5.0625 11.136719 4.972656 C 11.066406 4.832031 10.953125 4.882812 10.90625 4.929688 C 10.691406 5.171875 10.542969 5.476562 10.484375 5.800781 C 10.421875 6.015625 10.351562 5.953125 10.304688 5.867188 C 10.1875 5.753906 10.175781 4.875 10.03125 5.019531 "/>
<path style=" stroke:none;fill-rule:evenodd;fill:rgb(100%,100%,100%);fill-opacity:1;" d="M 10.71875 6.460938 C 10.828125 6.386719 10.777344 6.335938 10.933594 6.492188 C 11.132812 6.847656 11.246094 7.242188 11.269531 7.652344 C 11.261719 7.75 11.328125 7.808594 11.359375 7.785156 C 11.375 7.5625 11.914062 7.25 12.410156 7.207031 C 12.480469 7.1875 12.445312 7.042969 12.457031 6.96875 C 12.425781 6.691406 12.609375 6.4375 12.867188 6.421875 C 13.21875 6.472656 13.335938 6.660156 13.34375 6.945312 C 13.300781 7.503906 12.730469 7.597656 12.414062 7.640625 C 12.363281 7.660156 12.34375 7.679688 12.414062 7.707031 L 13.753906 7.714844 L 13.820312 7.753906 C 13.828125 7.789062 13.800781 7.757812 13.75 7.847656 C 13.675781 7.980469 13.628906 8.125 13.613281 8.273438 C 13.214844 8.410156 12.800781 8.460938 12.382812 8.515625 C 12.234375 8.589844 12.164062 8.691406 12.191406 8.800781 C 12.242188 8.925781 12.566406 9.050781 12.566406 9.054688 C 12.628906 9.089844 12.699219 9.183594 12.546875 9.375 C 11.894531 9.34375 11.386719 9.0625 11.210938 8.664062 C 11.160156 8.625 11.101562 8.664062 11.0625 8.71875 C 10.808594 9.050781 10.558594 9.347656 10.125 9.511719 C 9.867188 9.578125 9.601562 9.46875 9.476562 9.300781 C 9.390625 9.199219 9.394531 9.089844 9.367188 9.070312 C 9.222656 9.132812 8.015625 9.652344 8.167969 9.40625 C 8.460938 9.089844 8.972656 8.855469 9.421875 8.542969 C 9.453125 8.433594 9.511719 8.078125 9.6875 7.964844 C 9.699219 7.964844 9.660156 8.171875 9.664062 8.261719 C 9.664062 8.335938 9.660156 8.359375 9.671875 8.34375 C 9.707031 8.324219 10.246094 7.890625 10.296875 7.753906 C 10.347656 7.679688 10.304688 7.488281 10.304688 7.480469 C 10.203125 7.214844 10.0625 7.191406 10.011719 7.058594 C 9.960938 6.882812 9.984375 6.683594 10.082031 6.625 C 10.171875 6.546875 10.269531 6.554688 10.371094 6.640625 C 10.480469 6.742188 10.578125 6.9375 10.605469 7.085938 C 10.589844 7.140625 10.460938 7.046875 10.421875 7.074219 C 10.492188 7.15625 10.539062 7.253906 10.558594 7.363281 C 10.632812 7.667969 10.609375 7.785156 10.539062 7.980469 C 10.296875 8.496094 9.988281 8.648438 9.71875 8.84375 C 9.710938 8.84375 9.707031 8.972656 9.804688 9.042969 C 9.839844 9.082031 9.984375 9.097656 10.148438 9.042969 C 10.5 8.84375 10.785156 8.542969 10.964844 8.179688 C 10.996094 7.902344 10.964844 7.621094 10.878906 7.355469 C 10.773438 7.105469 10.648438 6.753906 10.648438 6.746094 C 10.644531 6.589844 10.65625 6.539062 10.71875 6.460938 M 7.210938 5.027344 C 7.367188 5.101562 7.660156 5.070312 7.644531 4.816406 L 7.636719 4.703125 C 7.609375 4.628906 7.519531 4.644531 7.5 4.71875 C 7.492188 4.746094 7.511719 4.785156 7.492188 4.796875 C 7.476562 4.8125 7.429688 4.804688 7.429688 4.734375 C 7.425781 4.710938 7.417969 4.691406 7.402344 4.675781 C 7.398438 4.671875 7.386719 4.667969 7.371094 4.667969 C 7.347656 4.667969 7.347656 4.671875 7.335938 4.691406 C 7.332031 4.707031 7.328125 4.726562 7.324219 4.75 C 7.324219 4.773438 7.3125 4.785156 7.296875 4.785156 C 7.273438 4.785156 7.277344 4.785156 7.257812 4.78125 C 7.25 4.773438 7.242188 4.761719 7.242188 4.742188 L 7.230469 4.683594 C 7.222656 4.671875 7.210938 4.664062 7.195312 4.660156 C 7.109375 4.660156 7.101562 4.761719 7.109375 4.796875 C 7.101562 4.804688 7.097656 4.980469 7.210938 5.027344 "/>
<path style=" stroke:none;fill-rule:evenodd;fill:rgb(100%,100%,100%);fill-opacity:1;" d="M 11.734375 6.964844 C 11.886719 7.039062 12.257812 7 12.167969 6.757812 L 12.160156 6.640625 C 12.125 6.566406 12.042969 6.582031 12.023438 6.660156 C 12.015625 6.683594 12.035156 6.722656 12.007812 6.734375 C 12 6.75 11.945312 6.742188 11.949219 6.675781 C 11.949219 6.652344 11.941406 6.628906 11.925781 6.613281 C 11.917969 6.609375 11.90625 6.605469 11.886719 6.605469 C 11.871094 6.605469 11.871094 6.613281 11.859375 6.632812 C 11.851562 6.648438 11.847656 6.667969 11.847656 6.691406 C 11.84375 6.710938 11.832031 6.722656 11.816406 6.726562 C 11.796875 6.726562 11.800781 6.726562 11.785156 6.71875 C 11.773438 6.710938 11.765625 6.699219 11.765625 6.683594 L 11.753906 6.625 C 11.746094 6.613281 11.734375 6.605469 11.714844 6.601562 C 11.632812 6.601562 11.625 6.699219 11.628906 6.734375 C 11.625 6.742188 11.621094 6.921875 11.738281 6.964844 Z M 14.371094 6.164062 C 14.523438 6.238281 14.816406 6.203125 14.804688 5.957031 L 14.796875 5.835938 C 14.761719 5.761719 14.679688 5.78125 14.660156 5.855469 C 14.652344 5.882812 14.671875 5.921875 14.644531 5.9375 C 14.636719 5.949219 14.582031 5.941406 14.585938 5.871094 C 14.585938 5.847656 14.578125 5.828125 14.5625 5.8125 C 14.554688 5.804688 14.542969 5.804688 14.523438 5.804688 C 14.507812 5.804688 14.5 5.8125 14.496094 5.828125 L 14.484375 5.886719 C 14.484375 5.910156 14.472656 5.921875 14.453125 5.921875 C 14.421875 5.921875 14.4375 5.921875 14.421875 5.914062 C 14.410156 5.90625 14.402344 5.898438 14.402344 5.882812 C 14.402344 5.855469 14.398438 5.835938 14.390625 5.820312 C 14.378906 5.808594 14.367188 5.800781 14.351562 5.800781 C 14.269531 5.800781 14.261719 5.898438 14.265625 5.933594 C 14.261719 5.941406 14.257812 6.117188 14.375 6.164062 Z M 15.738281 8.179688 C 15.46875 8.488281 15.585938 8.996094 15.648438 9.105469 C 15.738281 9.285156 15.808594 9.398438 15.980469 9.488281 C 16.136719 9.605469 16.261719 9.535156 16.328125 9.453125 C 16.484375 9.285156 16.488281 8.859375 16.5625 8.777344 C 16.613281 8.621094 16.746094 8.648438 16.804688 8.71875 C 16.867188 8.800781 16.945312 8.867188 17.035156 8.914062 C 17.179688 9.042969 17.355469 9.070312 17.53125 8.949219 C 17.648438 8.878906 17.726562 8.796875 17.796875 8.621094 C 17.867188 8.414062 17.832031 7.449219 17.8125 6.875 L 17.660156 6.078125 C 17.660156 6.070312 17.640625 5.699219 17.625 5.613281 C 17.625 5.578125 17.613281 5.566406 17.648438 5.570312 C 17.6875 5.605469 17.691406 5.605469 17.722656 5.617188 C 17.757812 5.625 17.796875 5.554688 17.769531 5.496094 L 17.402344 4.804688 C 17.375 4.777344 17.335938 4.746094 17.285156 4.8125 C 17.226562 4.863281 17.195312 4.9375 17.199219 5.015625 C 17.214844 5.183594 17.230469 5.347656 17.246094 5.511719 L 17.394531 6.347656 C 17.441406 6.941406 17.453125 7.433594 17.5 8.03125 C 17.492188 8.28125 17.414062 8.5 17.339844 8.535156 C 17.339844 8.535156 17.230469 8.597656 17.15625 8.527344 C 17.101562 8.503906 16.886719 8.160156 16.886719 8.160156 C 16.777344 8.058594 16.703125 8.085938 16.628906 8.160156 C 16.40625 8.375 16.3125 8.769531 16.164062 9.042969 C 16.125 9.105469 16.015625 9.15625 15.898438 9.039062 C 15.597656 8.621094 15.773438 8.027344 15.738281 8.179688 M 14.441406 4.703125 C 14.578125 4.757812 14.675781 5.042969 14.644531 5.183594 C 14.617188 5.351562 14.542969 5.535156 14.492188 5.515625 C 14.433594 5.492188 14.527344 5.34375 14.472656 5.1875 C 14.445312 5.082031 14.253906 4.898438 14.277344 4.847656 C 14.238281 4.730469 14.355469 4.679688 14.441406 4.699219 Z M 14.441406 4.703125 "/>
<path style=" stroke:none;fill-rule:evenodd;fill:rgb(100%,100%,100%);fill-opacity:1;" d="M 16.183594 8.351562 C 16.210938 8.007812 16.164062 7.800781 16.15625 7.601562 C 16.148438 7.398438 15.929688 5.871094 15.886719 5.722656 C 15.832031 5.433594 16.097656 5.683594 16.066406 5.515625 C 15.976562 5.308594 15.75 5 15.683594 4.816406 C 15.636719 4.742188 15.65625 4.667969 15.5625 4.796875 C 15.480469 5.027344 15.449219 5.269531 15.476562 5.511719 C 15.703125 6.710938 15.933594 7.703125 15.898438 8.84375 C 16.007812 8.84375 16.128906 8.59375 16.183594 8.351562 M 18.542969 5.183594 C 18.671875 5.246094 18.742188 5.601562 18.730469 5.703125 C 18.703125 5.890625 18.636719 6.089844 18.589844 6.0625 C 18.535156 6.042969 18.601562 5.789062 18.574219 5.710938 C 18.546875 5.601562 18.375 5.398438 18.390625 5.339844 C 18.355469 5.214844 18.464844 5.160156 18.542969 5.183594 M 9.179688 7.703125 C 9.300781 7.753906 9.371094 8.011719 9.363281 8.085938 C 9.332031 8.222656 9.269531 8.371094 9.222656 8.351562 C 9.175781 8.335938 9.234375 8.148438 9.210938 8.089844 C 9.199219 7.953125 9.03125 7.878906 9.035156 7.820312 C 9.007812 7.707031 9.109375 7.6875 9.183594 7.703125 Z M 9.179688 7.703125 "/>
<path style=" stroke:none;fill-rule:evenodd;fill:rgb(8.627451%,36.470589%,19.215687%);fill-opacity:1;" d="M 12.09375 8.097656 C 12.246094 8.105469 12.324219 8.230469 12.179688 8.28125 C 12.035156 8.332031 11.898438 8.371094 11.894531 8.578125 C 11.949219 8.875 11.824219 8.773438 11.75 8.734375 C 11.660156 8.667969 11.414062 8.511719 11.375 8.179688 C 11.371094 8.101562 11.433594 8.03125 11.53125 8.03125 C 11.679688 8.070312 11.898438 8.074219 12.09375 8.097656 "/>
<path style=" stroke:none;fill-rule:evenodd;fill:rgb(100%,100%,100%);fill-opacity:1;" d="M 5.960938 4.617188 C 6.136719 4.667969 6.144531 4.9375 6.136719 5.011719 C 6.109375 5.15625 6.046875 5.304688 6.003906 5.289062 C 5.953125 5.269531 6.003906 5.078125 5.976562 5.015625 C 5.953125 4.9375 5.800781 4.78125 5.816406 4.734375 C 5.785156 4.640625 5.890625 4.597656 5.960938 4.617188 M 9.472656 5.863281 C 9.332031 5.9375 9.28125 6.160156 9.367188 6.292969 C 9.445312 6.40625 9.570312 6.363281 9.585938 6.363281 C 9.71875 6.378906 9.800781 6.109375 9.800781 6.109375 C 9.800781 6.109375 9.804688 6.035156 9.648438 6.179688 C 9.578125 6.191406 9.574219 6.164062 9.554688 6.125 C 9.539062 6.054688 9.546875 5.980469 9.574219 5.914062 C 9.601562 5.847656 9.546875 5.820312 9.472656 5.863281 M 10.496094 4.511719 C 10.421875 4.5625 10.289062 4.707031 10.285156 4.867188 C 10.28125 4.960938 10.261719 4.960938 10.320312 5.015625 C 10.367188 5.085938 10.410156 5.082031 10.496094 5.03125 C 10.542969 5.003906 10.570312 4.957031 10.582031 4.90625 C 10.601562 4.800781 10.472656 4.957031 10.457031 4.839844 C 10.425781 4.726562 10.511719 4.683594 10.59375 4.578125 C 10.59375 4.503906 10.59375 4.457031 10.492188 4.511719 Z M 11.316406 4.660156 C 11.285156 4.796875 11.265625 4.933594 11.257812 5.074219 C 11.238281 5.175781 11.367188 5.222656 11.421875 5.085938 C 11.511719 4.847656 11.511719 4.742188 11.519531 4.640625 C 11.492188 4.484375 11.386719 4.488281 11.316406 4.660156 M 16.515625 7.34375 C 16.53125 7.324219 17.25 6.808594 17.25 6.808594 C 17.324219 6.785156 17.304688 7.078125 17.273438 7.074219 C 17.050781 7.289062 16.792969 7.46875 16.515625 7.605469 C 16.476562 7.628906 16.445312 7.40625 16.515625 7.34375 Z M 17.164062 7.335938 C 17.292969 7.398438 17.34375 7.773438 17.332031 7.875 C 17.332031 8.074219 17.210938 8.230469 17.15625 8.207031 C 17.105469 8.183594 17.164062 7.960938 17.140625 7.882812 C 17.109375 7.769531 17.003906 7.566406 17.023438 7.507812 C 16.984375 7.382812 17.089844 7.3125 17.167969 7.335938 Z M 12.917969 8.945312 C 12.976562 8.875 13.046875 8.816406 13.121094 8.765625 C 13.195312 8.726562 13.261719 8.796875 13.257812 8.792969 C 13.269531 8.867188 13.214844 8.929688 13.234375 9.023438 C 13.246094 9.0625 13.257812 9.105469 13.328125 9.09375 C 13.441406 9 13.546875 8.992188 13.65625 8.988281 C 13.75 8.992188 13.753906 9.144531 13.695312 9.144531 C 13.484375 9.1875 13.394531 9.246094 13.242188 9.304688 C 13.171875 9.347656 13.113281 9.292969 13.113281 9.289062 C 13.113281 9.285156 13.070312 9.246094 13.097656 9.152344 C 13.105469 9.070312 13.074219 9.035156 13.007812 9.039062 C 12.964844 9.070312 12.921875 9.085938 12.898438 9.027344 C 12.882812 8.992188 12.890625 8.96875 12.917969 8.945312 M 17.921875 9.148438 C 17.949219 9.183594 17.972656 9.222656 17.917969 9.289062 L 17.78125 9.40625 C 17.757812 9.445312 17.746094 9.511719 17.816406 9.53125 C 17.949219 9.566406 18.257812 9.363281 18.257812 9.359375 C 18.308594 9.320312 18.292969 9.246094 18.285156 9.246094 C 18.257812 9.214844 18.191406 9.238281 18.148438 9.230469 C 18.125 9.230469 18.054688 9.222656 18.089844 9.15625 C 18.113281 9.121094 18.132812 9.085938 18.148438 9.046875 C 18.167969 9.003906 18.144531 8.972656 18.074219 8.945312 C 17.996094 8.933594 17.964844 8.941406 17.878906 8.945312 C 17.839844 8.953125 17.816406 8.980469 17.808594 9.03125 C 17.8125 9.117188 17.863281 9.113281 17.921875 9.144531 Z M 17.921875 9.148438 "/>
<path style=" stroke:none;fill-rule:evenodd;fill:rgb(8.627451%,36.470589%,19.215687%);fill-opacity:1;" d="M 12.941406 7.039062 C 12.925781 7.078125 12.859375 7.078125 12.796875 7.039062 C 12.734375 7.003906 12.699219 6.941406 12.71875 6.910156 C 12.742188 6.875 12.804688 6.875 12.867188 6.910156 C 12.929688 6.941406 12.960938 7.007812 12.941406 7.039062 M 9.683594 5.050781 C 9.648438 5.0625 9.597656 5.027344 9.574219 4.976562 C 9.550781 4.925781 9.5625 4.878906 9.601562 4.867188 C 9.636719 4.859375 9.683594 4.894531 9.710938 4.941406 C 9.734375 4.992188 9.71875 5.042969 9.679688 5.054688 Z M 16.132812 13.914062 C 16.476562 13.929688 16.800781 13.914062 17.140625 13.933594 C 17.203125 13.992188 17.15625 14.121094 17.117188 14.113281 L 16.832031 14.101562 C 16.828125 13.992188 16.550781 14.007812 16.558594 14.105469 C 16.40625 14.125 16.273438 14.101562 16.117188 14.09375 C 16.074219 14.039062 16.082031 13.9375 16.132812 13.914062 "/>
</g>
</svg>
