<svg xmlns="http://www.w3.org/2000/svg" width="25" height="px" viewBox="0 0 25 19"><path d="M0 18.82 36.16 0H0Zm0 0" style="stroke:none;fill-rule:evenodd;fill:#0000d6;fill-opacity:1"/><path d="M37.5 0 .996 19H37.5Zm0 0" style="stroke:none;fill-rule:evenodd;fill:#006000;fill-opacity:1"/><path d="M37.5 0h-2.012L0 18.012V19h2.012L37.5 1.023Zm0 0" style="stroke:none;fill-rule:evenodd;fill:#fc0;fill-opacity:1"/><path d="m2.613.336.434 1.281h1.41l-1.14.785.437 1.274-1.14-.781-1.137.785.433-1.274-1.137-.793H2.18Zm7 0 .434 1.281h1.41l-1.14.79.437 1.273-1.145-.785-1.136.789.437-1.274-1.144-.793h1.41Zm0 5.363.434 1.281h1.41l-1.14.786.437 1.277-1.14-.79-1.137.79.437-1.277-1.144-.79h1.41Zm-3.48-2.648.437 1.277h1.407l-1.137.79.433 1.277-1.136-.793-1.14.793.437-1.278-1.141-.789h1.41Zm-3.52 2.648.434 1.281h1.41l-1.14.786.437 1.277-1.14-.79-1.137.79.437-1.277-1.144-.79h1.406Zm0 0" style="stroke:none;fill-rule:evenodd;fill:#fff;fill-opacity:1"/></svg>