<?xml version="1.0" encoding="UTF-8"?>
<svg xmlns="http://www.w3.org/2000/svg" xmlns:xlink="http://www.w3.org/1999/xlink" width="25px" height="px" viewBox="0 0 25 19" version="1.1">
<g id="surface1">
<rect x="0" y="0" width="25" height="19" style="fill:rgb(100%,100%,100%);fill-opacity:1;stroke:none;"/>
<path style=" stroke:none;fill-rule:evenodd;fill:rgb(87.450981%,0%,0%);fill-opacity:1;" d="M -0.78125 0 L 27.34375 0 L 27.34375 9.5 L -0.78125 9.5 Z M -0.78125 0 "/>
<path style=" stroke:none;fill-rule:evenodd;fill:rgb(100%,100%,100%);fill-opacity:1;" d="M 5.703125 1.589844 C 4.179688 1.921875 3.089844 3.292969 3.097656 4.875 C 3.105469 6.453125 4.207031 7.8125 5.734375 8.128906 C 4.875 8.382812 3.957031 8.277344 3.171875 7.839844 C 2.390625 7.402344 1.816406 6.664062 1.570312 5.796875 C 1.070312 3.992188 2.097656 2.117188 3.875 1.597656 C 4.5 1.417969 5.078125 1.414062 5.707031 1.589844 Z M 5.703125 1.589844 "/>
<path style=" stroke:none;fill-rule:evenodd;fill:rgb(100%,100%,100%);fill-opacity:1;" d="M 5.195312 4.355469 L 5.386719 4.949219 L 4.878906 4.582031 L 4.378906 4.957031 L 4.5625 4.355469 L 4.0625 3.984375 L 4.683594 3.976562 L 4.878906 3.382812 L 5.074219 3.976562 L 5.691406 3.976562 Z M 5.878906 6.414062 L 6.074219 7.011719 L 5.566406 6.644531 L 5.0625 7.015625 L 5.25 6.417969 L 4.75 6.042969 L 5.371094 6.039062 L 5.5625 5.441406 L 5.757812 6.035156 L 6.382812 6.035156 Z M 8.164062 6.398438 L 8.355469 7 L 7.847656 6.628906 L 7.347656 7 L 7.53125 6.402344 L 7.03125 6.03125 L 7.652344 6.023438 L 7.847656 5.429688 L 8.042969 6.023438 L 8.660156 6.023438 Z M 8.84375 4.355469 L 9.035156 4.953125 L 8.527344 4.585938 L 8.027344 4.957031 L 8.214844 4.359375 L 7.710938 3.984375 L 8.335938 3.980469 L 8.523438 3.382812 L 8.71875 3.976562 L 9.34375 3.976562 Z M 7.035156 2.996094 L 7.230469 3.597656 L 6.722656 3.230469 L 6.21875 3.601562 L 6.40625 3 L 5.90625 2.628906 L 6.523438 2.625 L 6.71875 2.027344 L 6.914062 2.621094 L 7.539062 2.621094 Z M 7.035156 2.996094 "/>
</g>
</svg>
