<svg xmlns="http://www.w3.org/2000/svg" width="25" height="px" viewBox="0 0 25 19"><path d="M0 0h25v19H0z" style="fill:#fff;fill-opacity:1;stroke:none"/><path d="M-.781 0h28.125v9.5H-.781Zm0 0" style="stroke:none;fill-rule:evenodd;fill:#df0000;fill-opacity:1"/><path d="M5.703 1.59C4.18 1.922 3.09 3.293 3.098 4.875c.007 1.578 1.109 2.938 2.636 3.254a3.32 3.32 0 0 1-2.562-.29A3.4 3.4 0 0 1 1.57 5.798c-.5-1.805.528-3.68 2.305-4.2a3.2 3.2 0 0 1 1.832-.007Zm0 0" style="stroke:none;fill-rule:evenodd;fill:#fff;fill-opacity:1"/><path d="m5.195 4.355.192.594-.508-.367-.5.375.184-.602-.5-.37.62-.008.196-.594.195.594h.617Zm.684 2.06.195.597-.508-.367-.503.37.187-.597-.5-.375.621-.004.191-.598.196.594h.625Zm2.285-.017L8.355 7l-.507-.371-.5.371.183-.598-.5-.37.621-.009.196-.593.195.593h.617Zm.68-2.043.191.598-.508-.367-.5.371.188-.598-.504-.375.625-.004.187-.597.196.594h.625ZM7.035 2.996l.195.602-.507-.368-.504.372L6.406 3l-.5-.371.617-.004.196-.598.195.594h.625Zm0 0" style="stroke:none;fill-rule:evenodd;fill:#fff;fill-opacity:1"/></svg>