<svg xmlns="http://www.w3.org/2000/svg" width="25" height="px" viewBox="0 0 25 19"><path d="M0 0h25v19H0z" style="fill:#006;fill-opacity:1;stroke:none"/><path d="M0 0h12.5v9.5H0Zm0 0" style="stroke:none;fill-rule:nonzero;fill:#012169;fill-opacity:1"/><path d="M1.465 0 6.23 3.582 10.977 0H12.5v1.227L7.813 4.77 12.5 8.293V9.5h-1.562L6.25 5.957 1.582 9.5H0V8.313l4.668-3.524L0 1.266V0Zm0 0" style="stroke:none;fill-rule:nonzero;fill:#fff;fill-opacity:1"/><path d="M8.281 5.563 12.5 8.707V9.5L7.207 5.563Zm-3.594.394.118.691L1.055 9.5H0ZM12.5 0v.059L7.637 3.78l.039-.87L11.523 0ZM0 0l4.668 3.484H3.496L0 .832Zm0 0" style="stroke:none;fill-rule:nonzero;fill:#c8102e;fill-opacity:1"/><path d="M4.707 0v9.5h3.125V0ZM0 3.168v3.164h12.5V3.168Zm0 0" style="stroke:none;fill-rule:nonzero;fill:#fff;fill-opacity:1"/><path d="M0 3.82V5.72h12.5V3.82ZM5.332 0v9.5h1.875V0Zm0 0" style="stroke:none;fill-rule:nonzero;fill:#c8102e;fill-opacity:1"/><path d="M22.7 7.797c-.009 2.683-.43 5.582-3.884 6.96-3.457-1.382-3.878-4.277-3.886-6.96Zm0 0" style="stroke:none;fill-rule:nonzero;fill:#128bbf;fill-opacity:1"/><path d="M18.816 14.758c1.563-.625 2.54-1.649 3.098-2.73a.6.6 0 0 0-.336-.012c-.086-.008-3.34-.246-3.723-.391-.335-.117-1.601.11-2.195.316.55 1.16 1.508 2.157 3.156 2.813Zm0 0" style="stroke:none;fill-rule:nonzero;fill:#e8ece9;fill-opacity:1"/><path d="M16.398 13.09a.7.7 0 0 1 .196-.008c.047.012.054.016.07-.039.016-.047.055-.035.086-.012.027.028.105.016.137-.027q.036-.058.066-.008c.031.027.04.02.074.012a.2.2 0 0 0 .106-.09c.023-.05.062-.066.082-.043q.032.042.074.043c.031-.012.04.023.035.059s.012.046.082-.012c.067.062.086.039.086-.027q0-.184-.039-.36a.45.45 0 0 1-.058-.207c-.008-.148-.008-.156-.184-.242 0-.05-.012-.074-.133-.066 0-.016-.02-.07-.043-.09s-.031-.032-.02-.09c.051.004.11-.004.137-.047s.13-.031.188-.008q.081.04.25.012a4 4 0 0 1 .195-.117c.074-.04.094-.059.098-.118a.9.9 0 0 0-.082-.41c-.043-.086-.059-.183-.117-.312-.063-.14-.063-.176-.137-.258-.02-.023-.04-.043-.047-.094a.24.24 0 0 0-.07-.156c-.13-.117-.18-.5-.23-.785-.028-.156-.009-.543-.079-.602-.113-.093-.168-.078-.246-.105-.055-.078-.078-.23-.129-.367-.078.015-.137.097-.195.129-.051.027-.063.027-.063.105q0 .125-.117.3c-.078.122-.203.09-.312.266-.235-.285-.235-.367-.254-.445s-.055-.098-.188-.215c0-.035-.015-.168 0-.25-.101-.078-.172-.066-.219-.008-.046.059-.078.153-.156.188-.039.055-.172.195-.277.355.098 1.493.43 2.97 1.433 4.149" style="stroke:none;fill-rule:nonzero;fill:#69522b;fill-opacity:1"/><path d="M22.7 7.797c.003-1.012-.052-1.992-.028-2.852-1.29-.582-2.992-.703-3.856-.703s-2.57.121-3.859.703c.023.86-.031 1.84-.027 2.848Zm0 0" style="stroke:none;fill-rule:nonzero;fill:#bca76b;fill-opacity:1"/><path d="M15.14 8.969c.04.066.118.187.126.25.03-.063.054-.09.058-.125s.051-.121.04-.16c-.02-.04-.032-.07.011-.04.047.028.04.079.031.157-.031.21-.117.254-.129.398.125.293.032.399.168.692.02.011.078-.012.094-.008.074-.051.125-.031.23-.012.102.024.157.094.157.16 0 .063 0 .078.02.117.019.04.066.098.054.145-.008.039.012.066.023.09.012.023-.003.066-.02.097q-.027.04.044.133c.05.063.172.332.172.489 0 .16.008.234.07.261.066.032.086.055.078.125-.008.067.031.422.04.477.007.055.027.043.054.074.027.035.039.066.125.066s.168-.011.223 0a.8.8 0 0 1 .14.336c.02.09.016.211.047.211s.059.004.05-.105c-.007-.11-.015-.125-.054-.184-.039-.054-.058-.078-.039-.117a.2.2 0 0 0 .016-.129c-.008-.039-.02-.11.05-.02l.118.133q.03.053.023.141-.006.075.035.047c.032-.027.067.016.051.07q-.023.082.055.106.075.021.086.066c.011.043.054.059.054-.02 0-.078-.027-.234-.05-.292a.8.8 0 0 1-.04-.223c-.007-.066-.019-.082-.05-.098q-.047-.012-.059-.062c-.004-.027-.031-.04-.047-.04q-.03.002-.047-.038-.015-.024-.043-.024c-.023 0-.054.012-.066-.023a.6.6 0 0 0-.047-.113c-.02-.032-.039-.036-.043-.13 0-.093-.004-.109-.035-.144-.027-.035-.078-.125-.102-.16-.019-.04-.039-.078-.039 0 0 .082 0 .125.047.156.051.031.067.031.043.074-.02.04 0 .07.008.102.012.027.027.059 0 .09s-.05.02-.047-.027a.3.3 0 0 0-.031-.141c-.023-.04-.04-.063-.066-.04-.024.02-.047-.003-.028-.023.012-.02.012-.03 0-.043-.012-.007-.012-.027 0-.05.024-.028.024-.04.012-.098a2.7 2.7 0 0 0-.148-.43c-.043-.066-.04-.117.015-.05.055.066.102.128.11.183.003.05.011.09.03.11q.029.037.04-.032c.008-.047.039-.031-.016-.117-.062-.094-.172-.242-.215-.516-.039-.265-.058-.441-.101-.515-.04-.078-.055-.09-.059-.156-.004-.067 0-.141-.031-.192-.027-.05-.05-.058-.055.016 0 .078.004.25.028.277.023.027.007.106 0 .152 0 .04-.067.086.07.168.055.036.047.079.039.114-.004.03-.02.027-.047-.024a.4.4 0 0 0-.09-.11c-.027-.026-.035-.042-.027-.1 0-.06.016-.106 0-.126s-.027-.004-.04.028c-.003.039-.01.132-.03.156q-.02.041-.04-.047a.45.45 0 0 1 .04-.238.6.6 0 0 0 .02-.328c-.028-.133-.017-.172-.114-.278-.098-.105-.207-.207-.254-.34-.047-.136-.055-.25-.106-.308a.7.7 0 0 0-.171-.16v-.196c.004-.05-.024-.07-.079-.07q-.076.026-.117.121c-.039.067-.062.04-.11.145-.046.117-.116.172-.116.289Zm0 0" style="stroke:none;fill-rule:nonzero;fill:#cfa763;fill-opacity:1"/><path d="M15.445 10.219c.035.02.067.043.117.011.051-.027.114-.101.18-.027a.46.46 0 0 1 .106.285c0 .098 0 .27.105.371.106.098.164.196.168.329q.017.187.063.374.018.084.078.145c.031.035.058.133.062.238.004.102-.012.172 0 .223.012.05 0 .094-.039.07a.16.16 0 0 1-.066-.078c-.024-.047-.047-.039-.028.027.02.067.086.122.141.122s.074.007.105.043c.04.039.04.054.098.054.063 0 .07 0 .125.016.055.015.055.008.086 0q.042-.012.078.07c.031.082.059.168.074.254 0 .04 0 .086.032.129.027.043.02.086-.016.063-.035-.028-.031-.02-.059-.016-.027.008-.039-.012-.078-.031-.03-.024-.011-.016-.043-.067q-.058-.082-.058-.031c0 .05 0 .086-.028.062q-.035-.023-.058 0c-.024.024-.031.04-.059 0-.023-.046-.054-.046-.078-.054-.023-.008-.027-.008-.039-.047q-.029-.052-.086-.047c-.035 0-.05-.016-.055-.039a.14.14 0 0 0-.039-.059c-.02-.015-.011-.043-.015-.074s-.032-.015-.047-.023c-.016-.008-.031-.004-.031-.047s-.016-.055-.028-.086c-.015-.027 0-.063.008-.094.008-.039 0-.055-.023-.086-.024-.031 0-.058-.07-.117-.067-.062-.102-.008-.126-.152-.02-.14-.062-.434-.101-.477a.26.26 0 0 0-.102-.098c-.039-.011-.062 0-.066-.082-.004-.078-.031-.187-.078-.238l-.102-.086c-.023-.023-.035-.062 0-.136.035-.07.02-.168.016-.215s-.016-.11-.008-.16a.4.4 0 0 0-.008-.149c-.012-.035-.031-.039-.008-.07" style="stroke:none;fill-rule:nonzero;fill:#cfa763;fill-opacity:1"/><path d="M16.738 12.559c-.027.05-.058.03-.082.007-.023-.023-.054-.027-.043-.074s.008-.055-.023-.078l-.016-.008h-.039c-.058 0-.062-.02-.098-.05l-.019-.02v.031c0 .047 0 .04-.047.051-.047.012-.039-.047-.047-.086l-.008-.023c-.05-.012-.105-.067-.125-.121-.02-.063.004-.075.028-.032.023.043.027.055.066.078.04.024.05-.015.04-.066l-.005-.055a.08.08 0 0 0-.039-.039c-.066-.027-.047-.039-.039-.094.004-.05-.015-.062-.055-.027q-.052.048-.046-.086c.007-.133-.055-.086-.067-.027s-.035.023-.058-.063c-.024-.09-.063-.109-.067-.023q0 .1-.066.043l.02.133c.023.144.058.09.124.152.067.059.047.086.07.117q.042.04.024.086c-.008.031-.023.067-.008.094.012.031.028.043.028.086 0 .039.015.039.03.047l.036.004a.2.2 0 0 1 .031-.04c.051-.054.13 0 .157.063.027.07.054.082.09.031.038-.05.027-.039.07.004.039.051.058.04.058.04s.04-.02.075.011c.027.023.046.02.101-.062.055-.079-.027-.055-.05-.004" style="stroke:none;fill-rule:nonzero;fill:#d7c99c;fill-opacity:1"/><path d="M16.773 13.156c.102-.008.38-.09.41-.117.067.05.188.113.235.113q-.142.026-.184-.007c.012.027.047.078.067.082-.094-.004-.196-.028-.235-.063a.37.37 0 0 1-.293-.008m.184.13c.04.01.219.038.242.038-.062.051-.012.102.09.094-.05.004-.102.023-.066.031.086.016.324-.047.37-.074-.077.105-.472.203-.636-.09m.164.262c.047-.024.168-.016.227.012-.067.023-.192.023-.227-.012" style="stroke:none;fill-rule:nonzero;fill:#7fb8c1;fill-opacity:1"/><path d="M17.305 13.543c.086-.016.332.043.418-.008-.032.078-.184.086-.239.07s-.105-.039-.14-.035c.02-.011-.012-.011-.04-.027m.087.117c.066.012.3-.015.375-.043.078.024.226.067.261.059-.074.047-.21.02-.257 0a.43.43 0 0 1-.38-.012Zm0 0" style="stroke:none;fill-rule:nonzero;fill:#7fb8c1;fill-opacity:1"/><path d="M17.504 13.703q.136.025.266-.027a.4.4 0 0 0 .164.027c.039.024.097.059.156.063a.7.7 0 0 1-.313-.024 1 1 0 0 0-.332.059c0-.028.016-.07.059-.098m-.113-.48c.074.023.34.011.476-.055.055-.023.086.016.024.039-.22.082-.391.11-.52.043-.05-.027-.055-.055.02-.027m1.304-.368c-.328.16-.547.2-1 .063-.039-.016-.07 0-.023.031.047.028.297.098.355.102.063 0 .04.031 0 .039-.03.012-.043.039.004.02a.86.86 0 0 1 .434.03q.07.036.058 0c0-.015.02-.03.059-.035q.063-.004.027-.027-.039-.01-.007-.027.03-.017-.012-.028c-.031-.003-.05-.011-.024-.027a.4.4 0 0 1 .11-.031c.008-.024-.004-.086.02-.11" style="stroke:none;fill-rule:nonzero;fill:#7fb8c1;fill-opacity:1"/><path d="M18.152 12.895c.188.011.532-.07.715-.25.063.039.153.078.195.09.051.007.094.05.02.05a.6.6 0 0 1-.219-.05c-.246.148-.527.199-.707.183-.05 0-.062-.027-.004-.023m-.297-.532c-.023.004-.132.032-.164.028-.027 0-.058.007-.054.027 0 .02.008.035-.04.031a.11.11 0 0 0-.09.024c-.01.011-.019.027.028.03.043 0 .067.009.117-.015.051-.023.102-.058.157-.062.054 0 .109-.074.046-.063" style="stroke:none;fill-rule:nonzero;fill:#7fb8c1;fill-opacity:1"/><path d="M17.703 12.492c.047.031.274.11.36.102s.066.039.003.05a.5.5 0 0 1-.394-.117c-.055-.039-.004-.054.031-.035" style="stroke:none;fill-rule:nonzero;fill:#7fb8c1;fill-opacity:1"/><path d="M18.79 12.605a.77.77 0 0 1-.427.02c-.07-.02-.136-.027-.09.023.047.047.207.079.297.055-.316.074-.398.067-.476.055a1.4 1.4 0 0 0-.29-.004c-.046 0-.113 0-.14-.02s-.035-.05.047-.039c.082.008.094-.011.023-.02-.074-.01-.172.02-.078.079.102.062.313 0 .45.035a.78.78 0 0 0 .703-.156c.011-.008.039-.043-.016-.028Zm-.407-.175a.4.4 0 0 1-.137-.035c-.035-.016-.078-.016-.047.03.04.052.196.079.25.055.055-.023.031-.05.086-.015a.3.3 0 0 0 .156.055c.04 0 .055 0 .008-.024-.043-.02-.066-.035-.07-.055 0-.02-.012-.03.031-.02.04.013.086.04.117.02a.3.3 0 0 1 .145-.054l.015-.032c-.078-.007-.128.016-.148.024a.3.3 0 0 1-.102.008c-.039-.008-.093-.012-.105-.02q-.024-.017.023-.027c.032-.008.043-.035 0-.024a.7.7 0 0 1-.242-.02c-.066-.019-.093-.023-.117-.01-.031.01-.027.042.016.042.039.004.129.016.16.043q.052.04-.008.016c-.035-.012-.102-.004-.031.043m1.535-.117c-.125.097-.277.12-.461.128-.055.004-.039.02.008.024.191.02.41-.05.484-.125.02-.027.02-.063-.031-.027m-.867.218q.157.024.308.074c.043-.003.063-.015.051-.035-.008-.015-.015-.035.07-.03h.313c.031-.009.098-.06.129-.063-.078.003-.395.023-.438.015a.15.15 0 0 0-.086.016q-.03.03-.07.008c-.035-.012-.09-.028-.121-.008s-.098 0-.156.023" style="stroke:none;fill-rule:nonzero;fill:#7fb8c1;fill-opacity:1"/><path d="M19.797 12.543c.027-.012.094-.063.125-.066.055-.004.117.02.148.023.032.004.063 0 .04-.023-.02-.024 0-.067.085-.055s.133.027.22.015c.085-.011.12.055.28-.007-.011.062.02.07.047.054q.042-.022.117.032c.075.054.36.039.43.027.078-.012.113.027.059.043q-.077.034-.055.062c.012.02.023.04-.043.032s-.078.011-.117.039c-.031.023-.04.031-.133.015-.094-.015-.113-.004-.164.004a.2.2 0 0 1-.117-.008.4.4 0 0 0-.227-.011c-.066.02-.117.039-.176.023-.062-.015-.066-.008-.027-.047s.047-.03.117-.039c.074-.011.13-.031.078-.066-.05-.027-.066-.024-.136.008-.067.043-.102.058-.176.015-.078-.043-.117-.035-.168-.023-.05.012-.137-.016-.207-.047m.254.129c-.098.015-.125-.047-.227-.035-.031.004-.09.047-.012.039.079-.008.165.039.243.031s.039-.039 0-.035Zm-.113.078c.05-.023.156.012.203.004.043-.008.086.02.039.035s-.157-.027-.211-.012c-.051.012-.102-.004-.032-.03Zm-1.016.273c.07 0 .324-.007.422-.222q.006-.03.047 0c.035.015.152.086.37.105.06.012.126.043 0 .031-.116-.007-.312-.042-.382-.082-.11.172-.309.196-.457.192-.09 0-.067-.027 0-.024" style="stroke:none;fill-rule:nonzero;fill:#7fb8c1;fill-opacity:1"/><path d="M19.469 12.73c-.035.047-.153.13-.203.133-.055 0-.215-.011-.254-.027s-.09-.008-.032.031c.06.04.2.07.258.059.055-.016.121-.035.168-.004.047.027.125.078.176.07a.35.35 0 0 1 .18 0c.031.02.086.063.004.04-.082-.024-.149-.009-.188-.024.04.058.137.156.219.156.02 0 .035.031-.008.055.04.02.133.035.184-.016q-.019.03.015.043c.02.012.047.024.008.027-.039.008-.125.016-.152.008a.77.77 0 0 0 .515.094c.043-.008.067-.027 0-.023-.144.003-.152 0-.175-.012-.028-.016-.024-.027.02-.04a.7.7 0 0 1 .183-.03c.039 0 .086-.016 0-.016s-.196 0-.235-.016c-.047-.011-.078-.035-.035-.066.047-.027.094-.02.117-.047-.144 0-.312-.078-.218-.145q.035-.021-.024-.02a.6.6 0 0 1-.183-.065c-.047-.024-.016-.043.02-.051-.083.015-.25-.031-.36-.114m1.25 0a.6.6 0 0 1-.285.079q-.095.008-.02.027c.047.004.102.012.121.004s.035-.008.067.008c.05.02.105.023.156.004a.7.7 0 0 1 .199-.024c.04.004.086 0 .004-.02a.6.6 0 0 0-.242 0c-.032.008-.117 0-.074-.011a.4.4 0 0 0 .113-.055Zm-.043.16a.5.5 0 0 1-.258.106c.086.031.164.121.219.117a.2.2 0 0 1-.098.047.34.34 0 0 0 .227-.043c.125.035.293.012.347-.039a.4.4 0 0 1-.226-.062.16.16 0 0 0 .097-.051c-.097.02-.261-.027-.308-.074" style="stroke:none;fill-rule:nonzero;fill:#7fb8c1;fill-opacity:1"/><path d="M20.54 13.16c.038-.004.07-.031.097-.047-.07.024-.375-.023-.469-.105-.09-.078-.09-.02-.027.039.066.055.18.14.398.113m.227.2a.8.8 0 0 1-.282.019q-.087-.019-.07.016c.016.023.023.046-.027.039a.5.5 0 0 0-.172.015c-.035.012-.078.047-.004.031.078-.011.144-.027.203-.011.059.015.262.02.3 0 .04-.02.016-.016-.003-.016-.02 0-.027-.012 0-.023.027-.012.047-.051.055-.07m-1.77-.25a2 2 0 0 1-.398.109.6.6 0 0 1-.196.058.33.33 0 0 0 .192.04c-.028.023-.086.054-.106.066.067-.008.149.008.184.012a.5.5 0 0 1-.277.058q.03.058.09.063a.5.5 0 0 1-.235.007q.035.06.078.07c-.07.009-.156.02-.226-.019q.082.104.359.074a.8.8 0 0 0 .379-.136.8.8 0 0 1-.23.004q.193-.054.363-.16a.24.24 0 0 1-.118-.032q.17.005.332-.039a.24.24 0 0 1-.144-.101c.23.07.477.078.71.023.036-.008.04-.05-.03-.047a1.3 1.3 0 0 1-.407-.055c.055.04.122.067.168.079-.109.03-.261.05-.488-.079Zm0 0" style="stroke:none;fill-rule:nonzero;fill:#7fb8c1;fill-opacity:1"/><path d="M18.488 13.383c.02-.012.078-.04.106-.067a.33.33 0 0 1-.192-.039.6.6 0 0 0 .196-.058c-.157-.004-.258-.004-.313-.04a.4.4 0 0 0-.195-.011c-.04.008-.027.074.133.059a.55.55 0 0 1-.317.046q.03.089.012.141.207.098.437.11c-.101-.044-.156-.086-.07-.094.082-.008.13-.028.203-.047m-.265.277c.203-.015.476-.02.695-.207.055-.047.09-.031.039.02a1.17 1.17 0 0 1-.672.246c-.113 0-.164-.051-.062-.059m1.523-.336c-.05.02-.195.04-.234.04-.04-.012-.106-.012-.137.007q-.064.034.008.04l.137.007a.2.2 0 0 0-.07.062.4.4 0 0 1 .226.036.08.08 0 0 1-.078-.016c.113.121.453.121.507.102a.16.16 0 0 1-.078.043c.098.02.207.015.317-.047a1 1 0 0 1-.172-.008.2.2 0 0 1 .082-.047.6.6 0 0 0-.207.012.2.2 0 0 1 .062-.07c-.168 0-.37 0-.445-.04.117.008.25-.058.305-.058-.094-.004-.196-.024-.223-.063m-.426.094c-.082.016-.207.05-.242.066-.035.02-.07.036.004.036l.027-.008c-.03 0-.066 0-.011-.02.058-.02.129-.058.222-.078Zm-.168.2c.032 0 .157 0 .211-.044.051.04.157.094.219.094.066 0 .063.02 0 .023a.4.4 0 0 1-.223-.07c-.078.031-.14.008-.207-.004m-.984.574c.133.051.309.09.434.047.074.063.222.067.3.051a.43.43 0 0 1 .243.004c.085.031.273.031.324.074-.047 0-.145 0-.168.008q-.035.01.031.043a.9.9 0 0 0-.469.121.27.27 0 0 1 .246-.16c-.078-.024-.324-.027-.402.023a.3.3 0 0 1-.05-.086c-.13.075-.387-.03-.489-.125m-.336-.238a.65.65 0 0 0 .313-.117c.023.023.14.047.265.012-.027.015-.027.054-.02.074a1 1 0 0 0-.292.066c-.051.028-.207.047-.258.02q-.077-.043-.008-.055" style="stroke:none;fill-rule:nonzero;fill:#7fb8c1;fill-opacity:1"/><path d="M18.39 13.922a1 1 0 0 0-.292.066q.018.043.02.078c.206-.058.421-.082.636-.066-.063.004-.184.07-.25.078.125-.004.246.004.367.035q.065.018.02.07c-.047.051-.047.04.023.04s.207-.008.273-.07c-.027-.028-.093-.016-.117-.036a.3.3 0 0 0 .117-.074c-.117 0-.156 0-.195-.012-.039-.011-.066-.02-.02-.043a.3.3 0 0 0 .087-.062c-.086.023-.215.039-.325-.043.04.008.137 0 .172-.012a.2.2 0 0 0-.097-.035.57.57 0 0 1 .472.008.8.8 0 0 1 .301.015c.04-.035.11-.12.145-.14-.25.023-.704-.024-.692-.156a.44.44 0 0 1-.351.148c-.004.039.027.086.058.113a1 1 0 0 1-.297.02c.04.039.11.07.153.066-.09 0-.137.016-.207.012" style="stroke:none;fill-rule:nonzero;fill:#7fb8c1;fill-opacity:1"/><path d="M18.914 14.223c.066 0 .207-.008.273-.07-.027-.028-.093-.016-.117-.036a.3.3 0 0 0 .117-.074c.18-.012.34-.004.415-.027.074-.024.273-.012.312-.024-.172.028-.203.043-.215.07s.055.055.098.055c-.078 0-.172.078-.18.11-.105-.059-.152.007-.164.03-.039-.015-.183-.01-.254.052a.5.5 0 0 0-.25-.028c.059-.015.047-.05-.039-.058Zm.813-.504h.23a1 1 0 0 0-.078.054c.144-.02.344-.027.398-.02-.07-.01-.14.036-.175.063-.04.02-.016.04.03.04.052.007.118.046.028.035a2 2 0 0 0-.308-.008c-.04.008-.067-.012-.004-.024a.5.5 0 0 0 .132-.043.5.5 0 0 1-.18 0c-.03-.015-.046-.027-.01-.035.034-.008.007-.02-.028-.015a.35.35 0 0 0-.18.093q.087-.093.145-.14m-.645.101q.094.118.281.125c.028 0 .078.04.016.04-.18.007-.27-.036-.348-.15-.015-.023.016-.058.051-.015m2.266-.976c-.055.039-.125.101-.078.191l.015-.008q.304-.375.54-.797v-.027a.7.7 0 0 1-.188.121c.023.063-.094.156-.157.18.024.039.016.105-.039.121.012.04-.03.04-.078.059-.05.015-.086.039-.097.062.027-.016.066-.027.086-.02.02.008.027.04-.012.047q-.06.016-.078.043c.058-.02.136-.007.082.028Zm-3.75-.973c.066.043.18.117.324.106.074.062.183.109.234.12-.097.04-.203.075-.23.106-.043-.039-.102-.039-.117-.058q-.055.054-.008.074a.9.9 0 0 0 .297.039c.05-.016.066.027.023.039-.117.047-.34.004-.414-.117s-.145-.172-.352-.055c-.023-.062-.023-.078-.062-.078-.04 0-.117-.055-.059-.05a.7.7 0 0 0 .364-.126" style="stroke:none;fill-rule:nonzero;fill:#7fb8c1;fill-opacity:1"/><path d="M17.648 12.145c-.035.011-.132.066-.171.07-.036 0-.098.055-.032.055.067 0 .149-.067.196-.079.047 0 .05-.054.007-.046m.282.203v.058c-.008.016-.008.035.02.016.027-.02.046-.047.073-.035a.3.3 0 0 0 .13.011q.054-.006-.005-.03a.3.3 0 0 0-.117-.024.3.3 0 0 1-.078-.012q-.035-.013-.023.016m1.008.007-.016.032c.078 0 .273.015.332.054.058-.046.05-.062.09-.054.043.011.097.023.12.011a.08.08 0 0 1 .067-.003.3.3 0 0 0 .114-.028.4.4 0 0 1 .132-.043c.04 0 .086-.011.016-.023a.6.6 0 0 0-.211.027c-.039.012-.145.02-.207.02-.066 0-.152.03-.227.011-.074-.02-.171-.004-.21-.004m1.207-.03c.093.046.28.081.43.077.023 0 .077.024.01.032a.75.75 0 0 1-.452-.086c-.04-.02-.024-.043.012-.024m.097 0q.219-.015.297.04a1 1 0 0 1 .266-.036c.03.008.07-.012-.008-.031a1.1 1.1 0 0 0-.32-.012 1.5 1.5 0 0 1-.293.008q.03.001.058.031m.559.055c.066-.035.265 0 .324-.027-.043.05.137.054.29.015-.06.04-.188.043-.243.067-.055.023-.086.007-.125-.012a.5.5 0 0 0-.246-.04Zm0 0" style="stroke:none;fill-rule:nonzero;fill:#7fb8c1;fill-opacity:1"/><path d="M21.414 12.367c-.156.04-.332.04-.289-.015-.059.027-.258-.008-.324.027.07-.04.125-.008.176-.098.03.008.105.012.128-.023.047.012.125.031.149.055.023.027.058-.008.031-.043.067-.028.024.027.188-.012.035-.008.117-.024.144-.024-.062.051-.129.098-.203.133" style="stroke:none;fill-rule:nonzero;fill:#7fb8c1;fill-opacity:1"/><path d="M581.1 196.974c-.2 67.796-11 141.02-99.4 175.855-88.5-34.934-99.3-108.06-99.5-175.855Zm0 0" style="fill:none;stroke-width:2;stroke-linecap:butt;stroke-linejoin:miter;stroke:#000;stroke-opacity:1;stroke-miterlimit:4" transform="scale(.03906 .03958)"/><path d="M16.473 9.004a.8.8 0 0 1-.2.2c-.078.054-.183.097-.125.198.055.094.102.106.114.18.011.078.027.137.086.156.054.016.078.004.078.121 0 .121 0 .168.05.211.051.047.047.094.067.2.023.109.023.343.094.503.066.16.218.461.203.524-.02.062-.04.105.027.183.067.075.117.18.117.243.008.066.02.09.086.066a.3.3 0 0 0 .125-.078q.04-.036.133.012c.063.039.156.07.215.039.055-.043.082-.09.133-.09.078-.055.11-.176.125-.207.02-.04.008-.04-.028-.074-.035-.036-.015-.09-.023-.145q0-.082-.094-.27c-.07-.12-.11-.277-.156-.316-.043-.039-.066-.14-.07-.183-.008-.047-.059-.086-.094-.118-.031-.039-.066-.086-.106-.289s-.07-.34-.07-.375q.007-.04-.039-.05c-.031-.012-.05-.07-.039-.098s-.012-.055-.023-.09c-.012-.035 0-.094.023-.133.023-.035.02-.129-.004-.207-.023-.082-.047-.152-.137-.16-.09-.016-.109-.039-.14-.11a2 2 0 0 1-.078-.238c-.016-.023-.032-.03-.098.028-.07.054-.09.074-.09.183 0 .067.008.09.031.13.024.038.028.05.047.16.02.105.114.277-.011.374-.125.098-.11.118-.102.192.008.07-.035.11-.059.015q-.03-.14.07-.199c.067-.047.13-.101.083-.168a.7.7 0 0 1-.067-.277q-.002-.11-.054-.04Zm0 0" style="stroke:none;fill-rule:nonzero;fill:#cfa763;fill-opacity:1"/><path d="M15.46 10.457q0 .076.013.14c.004.048.015.145-.016.216-.039.078-.027.113 0 .136.07-.02.078-.097.063-.136a.14.14 0 0 1 .007-.13q.036-.053 0-.09c-.015-.027-.015-.027.008-.109.02-.07-.031-.07-.074-.027m.726 1.11a2 2 0 0 1-.066-.38.42.42 0 0 0-.164-.328c-.082-.082-.102-.199-.105-.293-.063-.043-.09-.023-.082.047.003.078.078.114.07.227-.012.11-.012.082.039.137q.088.082.047.125c-.028.023-.031.066.008.082.039.015.043.054.039.093-.004.04.03.047.054.078.02.028.024.098 0 .137-.023.04-.023.102.016.067.039-.032.059 0 .086.05.027.047.05.032.078.02l-.02-.066Zm-.332-2.376c-.043 0-.07.04-.046.172.015.078-.047.059-.07.02-.02-.043-.04-.125-.083-.2-.043-.074-.023.051-.031.118-.004.07.04.07.078.129.04.054.008.078-.039.078s-.02.09-.008.156c.012.063-.011.074-.047.024-.035-.055-.011-.137-.004-.231.008-.094.012-.074-.05-.094-.063-.023-.055-.043-.032-.097.024-.055.047-.082.02-.11q-.046-.046.02-.05c.046-.008.03-.04.07-.055.039-.012.055.008.062-.067.004-.062.024-.101.07-.078.028.09.063.239.09.285m1.036 1.02c.015-.121.004-.246.054-.293.051-.043.117-.137.11.059-.008.191-.012.18-.051.226-.04.047-.074.059-.035.133s.047.078.039.191c-.004.114-.004.16.039.215s.058.063.07.13c.016.07.051.14.102.19.05.043.11.18.113.27s.086.113.156.176c.078.062-.015.11-.07.078-.059-.027-.035 0-.07.039-.035.04-.043.047-.075-.02-.027-.07-.12-.117-.168-.128-.046-.02-.085-.094-.125-.168a.23.23 0 0 0-.164-.118q.03.076.024.106c-.02.062-.04.105.027.183.067.075.117.18.117.243.008.066.02.09.086.066a.3.3 0 0 0 .125-.078q.04-.036.133.012c.063.039.156.07.215.039.055-.043.082-.09.133-.09.078-.055.11-.176.125-.207.02-.04.008-.04-.028-.074-.035-.036-.015-.09-.023-.145q0-.082-.094-.27c-.07-.12-.11-.277-.156-.316-.043-.039-.066-.14-.07-.183-.008-.047-.059-.086-.094-.118-.031-.039-.066-.086-.106-.289l-.066-.336q-.06.093-.078.04c-.02-.055-.043-.083-.066-.047-.024.03-.028-.032-.028-.059 0-.031-.004-.035-.035-.035-.027 0-.004-.047-.016-.13-.011-.085-.027-.097-.039.005-.011.101-.07.168-.047.187q.03.036-.011.137a.2.2 0 0 0 .008.156c.015.043-.012.13-.024.203-.012.075.047.149.063.02m-.47-.352c0 .121 0 .168.056.211.05.047.046.09.066.2.02.105.023.343.094.503l.078.172a.3.3 0 0 0 .078-.113c.02-.039-.031-.117-.074-.184s.008-.09.047-.18c.039-.081-.004-.09-.067-.113-.062-.02-.062-.078-.097-.171-.036-.09-.028-.13-.008-.18q.035-.082-.04-.106c-.042-.011-.03-.043-.015-.101.016-.055.027-.067-.039-.05-.043.01-.07.026-.078.038Zm0 0" style="stroke:none;fill-rule:nonzero;fill:#d7c99c;fill-opacity:1"/><path d="m447.9 247.993-3.5 37.994m14-14.803c-1.5 6.71-3.3 13.421-5.3 20.033m50.7-38.29c2.7 2.468 6.2 2.961 10.1 4.935m7.4 11.94-2 14.606m0-14.013-3.4 15M456 271.678c-1.7 6.217-3.7 12.138-5.9 17.861" style="fill:none;stroke-width:.5;stroke-linecap:butt;stroke-linejoin:miter;stroke:#000;stroke-opacity:1;stroke-miterlimit:4" transform="scale(.03906 .03958)"/><path d="m20.758 12.152-.012.004h-.023l-.012.004h-.012l-.012.004-.015.016-.008.011-.008.008-.011.016-.012.012-.004.007a.2.2 0 0 1-.106.047.3.3 0 0 1-.12 0 .22.22 0 0 1-.141-.027c-.04-.02-.086-.004-.117.012-.024.011-.028.039-.055.043-.016.027-.086.023-.117.015a.3.3 0 0 1-.145-.035c-.027-.02-.078-.035-.11 0-.019.024-.05.035-.085.043-.059 0-.13.012-.176-.016-.05-.004-.066-.03-.117-.046-.05-.008-.074.02-.11.03-.027.024-.066.032-.125.028-.054 0-.117.008-.156-.02-.039 0-.07-.027-.105-.042-.032-.028-.09 0-.117.015-.051.008-.067.047-.13.043-.05-.008-.081-.031-.128-.043-.043-.02-.078-.05-.149-.047q-.039.041-.113.04-.057.002-.11-.008c-.081 0-.12-.09-.179-.137l-.3-.293c.015-.05.023-.063-.005-.098.008-.054-.027-.062-.011-.113.023-.04-.04-.035-.055-.055-.04-.008-.05-.035-.086-.047l-.09-.05-.086-.047-.07-.051-.067-.055a1 1 0 0 1-.07-.043.3.3 0 0 0-.078-.05c-.035-.012-.066-.04-.11-.047-.027 0-.035-.067.016-.063.04 0 .059.028.086.043.043.02.086.035.137.047l.09.04c.031.023.07.026.105.05.035.015.078.031.094.05.031.012.047.032.078.044l.05.043q.04.01.079.039a.2.2 0 0 1 .066.039c.024.008.188.09.18.078.16.031.234.039.39.066l1.177.016.425-.176.13-.21.628-.114c-.012-.012 1.102-.043 1.125.055.012.039.04.117.004.136-.023.012-1.055-.129-1.066-.039-.008.04 0 .297.007.336l.016.121.02.125.015.121Zm0 0" style="stroke:none;fill-rule:nonzero;fill:#666;fill-opacity:1"/><path d="M449.8 266.645c-4.8 5.427-9.6 9.868-14.8 14.013m41.5-36.513 15.7-13.52m-22.7 26.842c3.1 2.27 6.6 4.145 11.4 5.33m-13.6-25.758c2 2.961 4.2 5.922 11 7.895m-15.5-38.783c-2.7 3.356-6.1 5.921-9.9 7.698m15.6 11.348c2.5 2.073 5.4 3.652 8.5 4.639m-8.5 42.434c1.3 6.908 2.8 13.618 4.7 20.329" style="fill:none;stroke-width:.5;stroke-linecap:butt;stroke-linejoin:miter;stroke:#000;stroke-opacity:1;stroke-miterlimit:4" transform="scale(.03906 .03958)"/><path d="M467.2 292.5c8.1-8.388 15-17.27 19.6-27.632m16.6-30.098c2.6 2.763 5.3 4.835 9.5 6.02m1.8-15.987c2.2 4.046 4.9 6.908 7.4 10.065m-31.5-22.5c-.2 4.046-2.6 7.895-4.3 11.35" style="fill:none;stroke-width:.5;stroke-linecap:butt;stroke-linejoin:miter;stroke:#000;stroke-opacity:1;stroke-miterlimit:4" transform="scale(.03906 .03958)"/><path d="M496.3 214.342c-3 3.257-5.7 6.612-9.7 8.684m10.2-22.697c-2.2 1.48-4.5 2.664-7 3.651m36.6 26.25c-2.4 2.862-4.8 6.217-8.7 8.684m9.2 15c-3.1 2.961-5.9 6.415-9.4 8.586m27.1 8.29c-5.4 4.44-11.1 8.289-17.2 11.546m3 .493c5-3.257 9.7-7.599 14.2-12.04m-15.8-39.967c1 2.566 3.3 5.527 5.6 7.303" style="fill:none;stroke-width:.5;stroke-linecap:butt;stroke-linejoin:miter;stroke:#000;stroke-opacity:1;stroke-miterlimit:4" transform="scale(.03906 .03958)"/><path d="m525.5 204.967-.5 77.96 5.7-.295-2.4-77.96Zm0 0" style="fill-rule:nonzero;fill:#bca76b;fill-opacity:1;stroke-width:.4;stroke-linecap:butt;stroke-linejoin:miter;stroke:#472b1f;stroke-opacity:1;stroke-miterlimit:4" transform="scale(.03906 .03958)"/><path d="m529.2 305.428 3.1 2.565c2.7 2.369 4.2 2.369 7.8 0 1.3.198 2.6.987 4 .691 1.4-.098 2.7-.197 3.9-.493 1.4-.395 1.7-2.073 2.2-3.355.7-1.382 1.3-3.06 2.4-4.145 1.3-.987 2.7-1.777 3.6-3.158.9-1.184 1.1-2.665.7-4.244l-.3-3.947c-.2-1.974 1.3-3.256 1-5.033-.7-.69-2.2-.987-3.3-1.283-2.1-.493-4.2-.888-6.3-.987l-5.3-.296-5-.296c-2-.098-3.9-.098-5.8.1-1.3.295-3 .196-4.2.789-.4 1.282-.7 2.565-.7 3.947l-.3 3.651c0 2.27-.3 4.441.4 6.612l1 5.132c0 1.381 0 2.763 1 3.75Zm0 0" style="fill-rule:nonzero;fill:#333;fill-opacity:1;stroke-width:1.3;stroke-linecap:butt;stroke-linejoin:miter;stroke:#000;stroke-opacity:1;stroke-miterlimit:4" transform="scale(.03906 .03958)"/><path d="m535.7 267.533 7.8 14.506m11.5.691c-2.2-2.467-4-5.23-5.4-8.487" style="fill:none;stroke-width:.5;stroke-linecap:butt;stroke-linejoin:miter;stroke:#000;stroke-opacity:1;stroke-miterlimit:4" transform="scale(.03906 .03958)"/><path d="m21.66 10.3.102.071h.004c-.032-.027-.063-.062-.106-.07m-.207.027-.012.004-.14.555Zm.664.024a.3.3 0 0 0-.101.03l.058-.019.078-.011h-.039Zm-.648.503-.028.004a.1.1 0 0 1 .07.02Zm.054.028c.036.023.07.047.11.062Zm.325.031-.188.04a.7.7 0 0 0 .188-.04" style="stroke:none;fill-rule:nonzero;fill:#472b1f;fill-opacity:1"/><path d="m21.457 10.293-.156.594.168-.035.176.101.265-.055.137.02c.039-.191.027-.414.137-.574l-.11.02-.176.058-.14-.05-.11-.079Zm0 0" style="stroke:none;fill-rule:nonzero;fill:#fff;fill-opacity:1"/><path d="M21.715 10.367a.34.34 0 0 0-.063.176l-.117-.04h-.133v.005l-.039.144s.106-.015.157-.007a.4.4 0 0 1 .093.039l-.05.222.035.02.07.02.031-.005a.7.7 0 0 1 .059-.214s.11.027.168.023l.148-.012.02-.14c-.02.004-.114.027-.164.023a.6.6 0 0 1-.13-.05.8.8 0 0 1 .055-.15Zm0 0" style="stroke:none;fill-rule:nonzero;fill:#c8102e;fill-opacity:1"/><path d="M546.4 260.033c-1.9-5.033-4.1-13.125-5-19.638" style="fill:none;stroke-width:.7;stroke-linecap:butt;stroke-linejoin:miter;stroke:#000;stroke-opacity:1;stroke-miterlimit:4" transform="scale(.03906 .03958)"/><path d="M548 261.217s4.4-.987 6.3-.69c2 .394 3.1 2.565 5.2 2.96 2.3.296 4.2-1.776 6.6-1.974l3.3.296-1.6 5.527-1.3 4.539v4.145s-3.7-.987-5.7-.592c-2.5.197-4.4 1.48-6.8 1.283-1.8-.395-2.6-1.875-4.5-2.27-1.3-.395-5 .592-5 .592Zm0 0" style="fill:none;stroke-width:1.3;stroke-linecap:butt;stroke-linejoin:miter;stroke:#472b1f;stroke-opacity:1;stroke-miterlimit:4" transform="scale(.03906 .03958)"/><path d="m548.8 261.02-1.8.098-5.6 19.935 2.6.296Zm0 0" style="fill-rule:nonzero;fill:#bca76b;fill-opacity:1;stroke-width:.3;stroke-linecap:butt;stroke-linejoin:miter;stroke:#472b1f;stroke-opacity:1;stroke-miterlimit:4" transform="scale(.03906 .03958)"/><path d="M547 261.118c-.8-.394-1.3-1.677-1-2.565.5-.987 2-1.086 3-.79 1.1.296 2.6 1.48 2.2 2.566-.4 1.283-3 1.48-4.2.79Zm0 0" style="fill-rule:nonzero;fill:#bca76b;fill-opacity:1;stroke-width:.3;stroke-linecap:butt;stroke-linejoin:miter;stroke:#472b1f;stroke-opacity:1;stroke-miterlimit:4" transform="scale(.03906 .03958)"/><path d="M22.176 10.355c-.106.157-.098.368-.137.555l.09.016v-.16l.055-.184.058-.215Zm0 0" style="stroke:none;fill-rule:nonzero;fill:#472b1f;fill-opacity:1"/><path d="M535.4 245.329c2.9 1.974 5.7 7.007 9.7 10.954m-4.4-18.257c-2.3-6.809-3.6-13.914-4-21.02m-4.2 53.191 4.4 11.645m0-70.362c-3.9-.987-7.5-3.552-8-5.822m-17 9.67c2.5.198 11.2-6.216 12.5-9.67m9.6 62.862 6.1 13.026m-6.6-8.684 4.5-1.58m-3.7 4.047 4.7-2.072m-2.8 7.006 5.2-2.17m-10.5-23.488 6.3 6.71m-19.5 9.474-4.3 14.507m3.1-11.25h4.4m-5.4 3.553 5 .098m-6.2 3.652 5.5.987" style="fill:none;stroke-width:.5;stroke-linecap:butt;stroke-linejoin:miter;stroke:#000;stroke-opacity:1;stroke-miterlimit:4" transform="scale(.03906 .03958)"/><path d="M528.8 202.993c-1-.296-3.8-.394-4.9.494-.5.395 0 1.974.7 1.974 1.4 0 3.3 0 4-.297.5-.493.9-1.973.2-2.17Zm0 0" style="fill-rule:nonzero;fill:#bca76b;fill-opacity:1;stroke-width:.4;stroke-linecap:butt;stroke-linejoin:miter;stroke:#472b1f;stroke-opacity:1;stroke-miterlimit:4" transform="scale(.03906 .03958)"/><path d="M513 215.23c1.9 7.599 9.9 6.316 9.6-.592" style="fill-rule:nonzero;fill:#bca76b;fill-opacity:1;stroke-width:.5;stroke-linecap:butt;stroke-linejoin:miter;stroke:#472b1f;stroke-opacity:1;stroke-miterlimit:4" transform="scale(.03906 .03958)"/><path d="M520.4 214.836c2.5 8.782 13 7.4 12.5-.593" style="fill-rule:nonzero;fill:#bca76b;fill-opacity:1;stroke-width:.7;stroke-linecap:butt;stroke-linejoin:miter;stroke:#472b1f;stroke-opacity:1;stroke-miterlimit:4" transform="scale(.03906 .03958)"/><path d="M529.3 214.737c2.4 6.316 5.7 5.131 9.7-.69m2.3-2.37-29.6 1.678v2.073l30-1.58ZM514 241.383c2 8.19 10.3 7.006 10-.593" style="fill-rule:nonzero;fill:#bca76b;fill-opacity:1;stroke-width:.5;stroke-linecap:butt;stroke-linejoin:miter;stroke:#472b1f;stroke-opacity:1;stroke-miterlimit:4" transform="scale(.03906 .03958)"/><path d="M521.8 240.987c2.4 9.67 13.3 8.19 12.9-.395" style="fill-rule:nonzero;fill:#bca76b;fill-opacity:1;stroke-width:.7;stroke-linecap:butt;stroke-linejoin:miter;stroke:#472b1f;stroke-opacity:1;stroke-miterlimit:4" transform="scale(.03906 .03958)"/><path d="M531 240.987c2.4 7.006 5.8 5.724 10.1-.592m2.4-2.369-30.7 1.185v2.17l31-1.085Zm-30.2 26.842c2 8.586 10.5 7.204 10.2-.69" style="fill-rule:nonzero;fill:#bca76b;fill-opacity:1;stroke-width:.5;stroke-linecap:butt;stroke-linejoin:miter;stroke:#472b1f;stroke-opacity:1;stroke-miterlimit:4" transform="scale(.03906 .03958)"/><path d="M521.2 264.572c2 12.73 13.8 8.092 13.2-.986" style="fill-rule:nonzero;fill:#bca76b;fill-opacity:1;stroke-width:.7;stroke-linecap:butt;stroke-linejoin:miter;stroke:#472b1f;stroke-opacity:1;stroke-miterlimit:4" transform="scale(.03906 .03958)"/><path d="M530.6 264.276c2.7 7.204 6.2 5.823 10.4-.79" style="fill-rule:nonzero;fill:#bca76b;fill-opacity:1;stroke-width:.7;stroke-linecap:butt;stroke-linejoin:miter;stroke:#472b1f;stroke-opacity:1;stroke-miterlimit:4" transform="scale(.03906 .03958)"/><path d="m543.5 261.02-31.5 1.776v2.171l31.8-1.678Zm0 0" style="fill-rule:nonzero;fill:#bca76b;fill-opacity:1;stroke-width:.5;stroke-linecap:butt;stroke-linejoin:miter;stroke:#472b1f;stroke-opacity:1;stroke-miterlimit:4" transform="scale(.03906 .03958)"/><path d="m533 226.875-11.7.296v3.06l11.8-.1Zm0 24.77-11.6.296v2.96l11.8-.098Zm0 0" style="fill-rule:nonzero;fill:#bca76b;fill-opacity:1;stroke-width:.3;stroke-linecap:butt;stroke-linejoin:miter;stroke:#472b1f;stroke-opacity:1;stroke-miterlimit:4" transform="scale(.03906 .03958)"/><path d="m503.7 265.066 8.7 20.822m-52.4-14.21c-1 6.513-2.5 14.802-4.2 21.118" style="fill:none;stroke-width:.7;stroke-linecap:butt;stroke-linejoin:miter;stroke:#000;stroke-opacity:1;stroke-miterlimit:4" transform="scale(.03906 .03958)"/><path d="M556.9 284.31c-8.7-1.777-17.7-2.172-26.5-1.284-5.8.395-11.7.592-17.1 2.27-.9.296-1.6.592-2.1.987-1.6 1.48-1.7 4.046-3 5.724s-6 4.54-7.9 5.723c-12.5.198-26.5 0-42.3-2.368l-2-2.467-1-.888 2.4.986h5.6l13.7-.394s11.5 0 17.2-.296l9.8-.79c.8.099 1.5-.099 2-.395 1-.592 1.3-1.776 2-2.96.6-.79 1-1.974 2-2.566 2.4-1.678 5.6-1.579 8.2-2.072 3.3-.691 6.2-.79 9.5-1.283l11.2-1.086c2.4-.098 4.8-.098 7.3 0 3.6.296 7.7 0 10.9 1.875.6.198 1.7.888 1.3 1.48-.3.395-.8-.197-1.3-.197Zm0 0" style="fill-rule:nonzero;fill:#000;fill-opacity:1;stroke-width:.4;stroke-linecap:butt;stroke-linejoin:miter;stroke:#000;stroke-opacity:1;stroke-miterlimit:4" transform="scale(.03906 .03958)"/><path d="M499.5 200.329c1.9 1.48 5.3 2.664 8.7 3.158m-12.6 49.54c-4 2.762-8.1 4.835-12.4 6.216m23.5 30.79-6.9-18.06m1.4-5.92 8 20.625m-9-15.296 5.3-1.777" style="fill:none;stroke-width:.5;stroke-linecap:butt;stroke-linejoin:miter;stroke:#000;stroke-opacity:1;stroke-miterlimit:4" transform="scale(.03906 .03958)"/><path d="m496.6 197.566-1.6 95.822 5.7-.296-1-95.428Zm0 0" style="fill-rule:nonzero;fill:#bca76b;fill-opacity:1;stroke-width:.4;stroke-linecap:butt;stroke-linejoin:miter;stroke:#472b1f;stroke-opacity:1;stroke-miterlimit:4" transform="scale(.03906 .03958)"/><path d="M503.5 212.368c2.1 4.343 5.8 7.6 10.9 10.066" style="fill:none;stroke-width:.7;stroke-linecap:butt;stroke-linejoin:miter;stroke:#000;stroke-opacity:1;stroke-miterlimit:4" transform="scale(.03906 .03958)"/><path d="M484.8 206.645c1.8 8.19 10.3 6.908 10-.691" style="fill-rule:nonzero;fill:#bca76b;fill-opacity:1;stroke-width:.5;stroke-linecap:butt;stroke-linejoin:miter;stroke:#472b1f;stroke-opacity:1;stroke-miterlimit:4" transform="scale(.03906 .03958)"/><path d="M492.6 206.349c2.3 9.572 13.2 8.092 12.8-.592" style="fill-rule:nonzero;fill:#bca76b;fill-opacity:1;stroke-width:.7;stroke-linecap:butt;stroke-linejoin:miter;stroke:#472b1f;stroke-opacity:1;stroke-miterlimit:4" transform="scale(.03906 .03958)"/><path d="M501.7 206.349c2.4 6.908 6.6 7.598 10.2-.79m2.5-2.467-30.9 1.382v2.27l31.1-1.382Zm-29.6 22.796c1.8 8.19 10.3 7.007 10-.592" style="fill-rule:nonzero;fill:#bca76b;fill-opacity:1;stroke-width:.5;stroke-linecap:butt;stroke-linejoin:miter;stroke:#472b1f;stroke-opacity:1;stroke-miterlimit:4" transform="scale(.03906 .03958)"/><path d="M492.6 225.592c2.3 9.572 13.2 8.092 12.8-.493" style="fill-rule:nonzero;fill:#bca76b;fill-opacity:1;stroke-width:.7;stroke-linecap:butt;stroke-linejoin:miter;stroke:#472b1f;stroke-opacity:1;stroke-miterlimit:4" transform="scale(.03906 .03958)"/><path d="M501.7 225.592c2.4 7.007 9.5 5.822 10.2-.69m2.5-2.468-30.9 1.382v2.17l31.1-1.282Zm0 0" style="fill-rule:nonzero;fill:#bca76b;fill-opacity:1;stroke-width:.5;stroke-linecap:butt;stroke-linejoin:miter;stroke:#472b1f;stroke-opacity:1;stroke-miterlimit:4" transform="scale(.03906 .03958)"/><path d="M494 236.546c-2.7 1.875-5.2 3.947-8.9 5.132" style="fill:none;stroke-width:.7;stroke-linecap:butt;stroke-linejoin:miter;stroke:#000;stroke-opacity:1;stroke-miterlimit:4" transform="scale(.03906 .03958)"/><path d="M483.9 244.046c1.8 8.19 10.2 6.908 10-.592" style="fill-rule:nonzero;fill:#bca76b;fill-opacity:1;stroke-width:.5;stroke-linecap:butt;stroke-linejoin:miter;stroke:#472b1f;stroke-opacity:1;stroke-miterlimit:4" transform="scale(.03906 .03958)"/><path d="M491.6 243.553c2.4 9.77 13.3 8.388 13-.395" style="fill-rule:nonzero;fill:#bca76b;fill-opacity:1;stroke-width:.7;stroke-linecap:butt;stroke-linejoin:miter;stroke:#472b1f;stroke-opacity:1;stroke-miterlimit:4" transform="scale(.03906 .03958)"/><path d="M500.8 243.553c2.4 7.006 8.7 4.835 10.1-.494m2.5-2.467-30.8 1.283v2.27l31.1-1.382Zm0 0" style="fill-rule:nonzero;fill:#bca76b;fill-opacity:1;stroke-width:.5;stroke-linecap:butt;stroke-linejoin:miter;stroke:#472b1f;stroke-opacity:1;stroke-miterlimit:4" transform="scale(.03906 .03958)"/><path d="M487.9 265.757c-.8 9.572-4.6 18.059-7.1 27.04m10.5-26.942c-.8 9.277-3.7 17.862-6 26.546m8.9-27.335c-.8 9.177-2.4 18.256-4.6 27.237" style="fill:none;stroke-width:.5;stroke-linecap:butt;stroke-linejoin:miter;stroke:#000;stroke-opacity:1;stroke-miterlimit:4" transform="scale(.03906 .03958)"/><path d="M484.3 261.316c1.8 8.29 10.2 7.105 10-.494" style="fill-rule:nonzero;fill:#bca76b;fill-opacity:1;stroke-width:.5;stroke-linecap:butt;stroke-linejoin:miter;stroke:#472b1f;stroke-opacity:1;stroke-miterlimit:4" transform="scale(.03906 .03958)"/><path d="M492 261.02c2.4 9.572 13.3 8.19 12.9-.494" style="fill-rule:nonzero;fill:#bca76b;fill-opacity:1;stroke-width:.7;stroke-linecap:butt;stroke-linejoin:miter;stroke:#472b1f;stroke-opacity:1;stroke-miterlimit:4" transform="scale(.03906 .03958)"/><path d="M501.2 261.02c2.4 7.006 8.6 5.723 10.1-.592m2.5-2.566-30.8 1.381v2.171l31-1.282Zm0 0" style="fill-rule:nonzero;fill:#bca76b;fill-opacity:1;stroke-width:.5;stroke-linecap:butt;stroke-linejoin:miter;stroke:#472b1f;stroke-opacity:1;stroke-miterlimit:4" transform="scale(.03906 .03958)"/><path d="m504 216.02-11 .493v2.96h11Zm-.4 18.75-9.9.197v2.862h9.9Zm.5 18.158-10.5.394v2.862h10.6Zm0 0" style="fill-rule:nonzero;fill:#bca76b;fill-opacity:1;stroke-width:.3;stroke-linecap:butt;stroke-linejoin:miter;stroke:#472b1f;stroke-opacity:1;stroke-miterlimit:4" transform="scale(.03906 .03958)"/><path d="m487.7 269.31 5.7 1.085m-7 4.243 6.6.198m-7.7 3.65 6.9 1.975m-8.7 4.046 8-.296m-9.5 5.328 8.5-.197m-10.4-23.783c-1 9.77 5.3 18.948 8.4 27.04m17.5-5.033 5.4-1.678m-6.7-1.283 6.1-2.566m-8-2.072 6.3-1.875m-7.8-2.467 6.2-1.579" style="fill:none;stroke-width:.5;stroke-linecap:butt;stroke-linejoin:miter;stroke:#000;stroke-opacity:1;stroke-miterlimit:4" transform="scale(.03906 .03958)"/><path d="M18.281 12.258q-.045-.002-.086-.016l-.078-.027q-.042-.023-.078-.05l-.066-.056-.078-.074-.07-.082a.4.4 0 0 1-.071-.074c-.02-.02-.024-.059-.04-.078-.03-.008-.073-.012-.077-.055-.008-.027-.012-.055-.04-.05-.015 0-.019.019-.011.007-.016-.008-.012.031-.012.008l-.02.043c-.015.031-.007.055.024.062.031.004.04.04.067.055q.031.04.074.07l.058.079a.3.3 0 0 0 .059.062l.05.066.071.059.07.04q.037.022.078.034a.3.3 0 0 0 .098.016.14.14 0 0 0 .09-.02c.027-.02 0-.015-.016-.02Zm1.75-.863a1 1 0 0 1-.18.308c.258.055.465-.02.696-.058a1.1 1.1 0 0 1-.016-.329c-.183.02-.312.063-.5.079" style="stroke:none;fill-rule:nonzero;fill:#000;fill-opacity:1"/><path d="M20.055 11.422c-.032.086-.059.172-.121.242.21.047.382-.02.574-.055-.04-.078-.028-.156-.016-.246z" style="stroke:none;fill-rule:nonzero;fill:#333;fill-opacity:1"/><path d="m17.832 11.805.746.054c.602.02 1.29-.007 1.883-.078.023 0 .066-.008.074.016.008.023-.031.062-.058.066-.684.09-1.375.055-2.063.051l-.406-.043Zm0 0" style="stroke:none;fill-rule:nonzero;fill:#000;fill-opacity:1"/><path d="M463.5 255.296c-5 3.849-9.8 7.599-15.4 9.77m16.1-27.83c-4.5 3.257-9 7.303-13.7 9.178" style="fill:none;stroke-width:.7;stroke-linecap:butt;stroke-linejoin:miter;stroke:#000;stroke-opacity:1;stroke-miterlimit:4" transform="scale(.03906 .03958)"/><path d="m462.6 204.276-.1 89.507 4.9-.395-2.9-89.605Zm0 0" style="fill-rule:nonzero;fill:#bca76b;fill-opacity:1;stroke-width:.4;stroke-linecap:butt;stroke-linejoin:miter;stroke:#472b1f;stroke-opacity:1;stroke-miterlimit:4" transform="scale(.03906 .03958)"/><path d="M464.5 203.783c4 4.44 7.2 6.81 10.5 9.572" style="fill:none;stroke-width:.7;stroke-linecap:butt;stroke-linejoin:miter;stroke:#000;stroke-opacity:1;stroke-miterlimit:4" transform="scale(.03906 .03958)"/><path d="M465.8 201.217c-1-.493-3.7-.592-4.7.69-.6.593-.1 2.863.6 2.863 1.4 0 3.2.098 3.8-.494s1-2.664.3-2.96Zm0 0" style="fill-rule:nonzero;fill:#bca76b;fill-opacity:1;stroke-width:.5;stroke-linecap:butt;stroke-linejoin:miter;stroke:#472b1f;stroke-opacity:1;stroke-miterlimit:4" transform="scale(.03906 .03958)"/><path d="M463 305.329c.2-.69.7-.987 1.4-.987.9-.197 1.7-.099 2.3.099l1.4.69 1.3.987c1.6.494.8-1.282 1.7-1.381s1.6-.296 2.2 0c.5.197.9.493 1.2.987l.9.79c.1.493 1.9 1.282 2 .197.3-.691.1-1.974 1.3-1.875 1.3 0 2.6.197 3.7.394.6.198 1.2.494 1.7.987.5.197.4.79.8.69 1.3.988 1-.69 1.4-1.282.3-.493 1.2-.296 1.6-.69.8-.297 1.7-.396 2.6-.396l1.8.987c.4.198.7.691 1 1.283.1.592.7 1.086 1.2.592.3-.592.8-.592 1.3-.987.5-.098.9-.394 1.2-.789.3 0 .6-.69 1-.987.6-.296 1.4-.395 2.4-.395 1 .198 1.8.395 2.3.79.3.395.6.69 1 .987.3.493 1 0 1.4-.198l1.4-.79c.4-.394 1-.69 1.9-.69 1-.099 1.5.395 2.2.494.9.197 1.5.394 2 .789.7.493 1.3.592 1.8.197.7 0 .2-1.283.4-1.579.8-.69 2.7-.69 3.7-.197l2.4.197c.4.198.7.593.8 1.185.3.493 1.8.493 2.3.098.4 0-.1-.69-.3-.888l-.8-1.085c.7-.395 1 .394 1.7.493.3.197.7.395 1.2.79.5.296 1.1.394 2 .394.8.296.5 1.48-.5 1.184-.7.297-1.9 0-2.7.1h-4.2c-.8.098-1.7.197-2.6.295-.8.099-1.6.099-2.4.099-1 .099-2 .197-3 .099-.8.098-1.6.197-2.5.296-.7.098-1.5.098-2.4.098-1.2.296-2.7 0-4 .099-.9.099-1.6.197-2.3.197l-2.5.198c-.9.098-1.8.098-2.6.098-1.5.296-3 0-4.5.1-.8 0-1.6-.1-2.5-.198H487c-.6-.296-1.7 0-2.3-.296h-9.9c-.5-.296-1.5 0-2.3-.198h-3.7c-1-.197-2 0-2.9-.394-1.3-.198-3-.593-2.8-1.678Zm0 0" style="fill-rule:nonzero;fill:#000;fill-opacity:1;stroke-width:.9;stroke-linecap:butt;stroke-linejoin:miter;stroke:#000;stroke-opacity:1;stroke-miterlimit:4" transform="scale(.03906 .03958)"/><path d="M452.1 215.428c1.6 5.625 9 4.736 8.7-.395" style="fill-rule:nonzero;fill:#bca76b;fill-opacity:1;stroke-width:.4;stroke-linecap:butt;stroke-linejoin:miter;stroke:#472b1f;stroke-opacity:1;stroke-miterlimit:4" transform="scale(.03906 .03958)"/><path d="M458.8 215.033c2.1 6.81 11.7 5.822 11.3-.197" style="fill-rule:nonzero;fill:#bca76b;fill-opacity:1;stroke-width:.5;stroke-linecap:butt;stroke-linejoin:miter;stroke:#472b1f;stroke-opacity:1;stroke-miterlimit:4" transform="scale(.03906 .03958)"/><path d="M467 215.033c2 4.934 5.7 5.428 8.8-.296m2.1-1.776-27 1.085v1.382l27.2-.79Zm0 0" style="fill-rule:nonzero;fill:#bca76b;fill-opacity:1;stroke-width:.4;stroke-linecap:butt;stroke-linejoin:miter;stroke:#472b1f;stroke-opacity:1;stroke-miterlimit:4" transform="scale(.03906 .03958)"/><path d="M459.5 225.987c-2.4 1.974-6.8 4.737-8.8 4.54" style="fill:none;stroke-width:.7;stroke-linecap:butt;stroke-linejoin:miter;stroke:#000;stroke-opacity:1;stroke-miterlimit:4" transform="scale(.03906 .03958)"/><path d="M454.7 218.487c-5.8 21.81-12.6 43.224-20.5 64.342" style="fill:none;stroke-width:.7;stroke-linecap:butt;stroke-linejoin:miter;stroke:#000;stroke-opacity:1;stroke-miterlimit:4" transform="scale(.03906 .03958)"/><path d="M451.9 232.007c1.5 6.315 9.1 5.329 8.9-.395" style="fill-rule:nonzero;fill:#bca76b;fill-opacity:1;stroke-width:.4;stroke-linecap:butt;stroke-linejoin:miter;stroke:#472b1f;stroke-opacity:1;stroke-miterlimit:4" transform="scale(.03906 .03958)"/><path d="M458.2 231.908c2 8.388 12 7.006 11.6-.395" style="fill-rule:nonzero;fill:#bca76b;fill-opacity:1;stroke-width:.7;stroke-linecap:butt;stroke-linejoin:miter;stroke:#472b1f;stroke-opacity:1;stroke-miterlimit:4" transform="scale(.03906 .03958)"/><path d="M467 231.81c2.3 5.23 6.7 5.723 10-.297m1.2-2.566-27.5 1.283v1.974l27.8-.987Zm-27.9 19.046c1.8 7.698 10 6.514 9.7-.493" style="fill-rule:nonzero;fill:#bca76b;fill-opacity:1;stroke-width:.5;stroke-linecap:butt;stroke-linejoin:miter;stroke:#472b1f;stroke-opacity:1;stroke-miterlimit:4" transform="scale(.03906 .03958)"/><path d="M457.9 247.993c2.4 11.053 13.8 9.474 13.4-.69" style="fill-rule:nonzero;fill:#bca76b;fill-opacity:1;stroke-width:.8;stroke-linecap:butt;stroke-linejoin:miter;stroke:#472b1f;stroke-opacity:1;stroke-miterlimit:4" transform="scale(.03906 .03958)"/><path d="M466.8 247.796c2.4 6.415 6.6 7.007 9.9-.493m2.3-2.369-31.5 1.283.2 1.776 31.6-.888Zm-29.2 21.71c1.8 8.192 10.7 6.909 10.5-.493" style="fill-rule:nonzero;fill:#bca76b;fill-opacity:1;stroke-width:.5;stroke-linecap:butt;stroke-linejoin:miter;stroke:#472b1f;stroke-opacity:1;stroke-miterlimit:4" transform="scale(.03906 .03958)"/><path d="M473.1 270.888c1.9 7.796 4.1 15 6.5 21.71m-8.9-22.006c1 7.599 3.1 14.901 5.3 22.007" style="fill:none;stroke-width:.7;stroke-linecap:butt;stroke-linejoin:miter;stroke:#000;stroke-opacity:1;stroke-miterlimit:4" transform="scale(.03906 .03958)"/><path d="M457.9 266.349c2.2 10.954 13.8 10.065 13.6-.592" style="fill-rule:nonzero;fill:#bca76b;fill-opacity:1;stroke-width:.7;stroke-linecap:butt;stroke-linejoin:miter;stroke:#472b1f;stroke-opacity:1;stroke-miterlimit:4" transform="scale(.03906 .03958)"/><path d="M467.6 266.349c2.6 6.908 7 7.598 10.6-.592m2.5-2.862-34.9 1.283v2.664l35.5-1.381Zm0 0" style="fill-rule:nonzero;fill:#bca76b;fill-opacity:1;stroke-width:.7;stroke-linecap:butt;stroke-linejoin:miter;stroke:#472b1f;stroke-opacity:1;stroke-miterlimit:4" transform="scale(.03906 .03958)"/><path d="m469.4 223.52-10 .296v2.17h10.2Zm0 16.283-10 .197v2.27h10.2Zm.7 17.664-10.8.296v2.27h11Zm0 0" style="fill-rule:nonzero;fill:#bca76b;fill-opacity:1;stroke-width:.3;stroke-linecap:butt;stroke-linejoin:miter;stroke:#472b1f;stroke-opacity:1;stroke-miterlimit:4" transform="scale(.03906 .03958)"/><path d="m474.1 273.158-5.7 1.283m6.6 3.059-5.7 1.184m7 3.652-5.8-.297m7.5 4.737-6 .987m-20.8-1.875 6 1.184m-4.3-6.118 5.4 1.283m-4-5.033 5 1.283m-4-4.638 4.5.888" style="fill:none;stroke-width:.5;stroke-linecap:butt;stroke-linejoin:miter;stroke:#000;stroke-opacity:1;stroke-miterlimit:4" transform="scale(.03906 .03958)"/><path d="M526.9 293.882c10-.494 22-1.678 30.2 1.48m-29.5 1.875c9.2-1.48 20-2.171 28 .888m-27 5.822c7.2-1.677 14.7-1.776 22-.394m-21.3 1.973c6.8 1.58 13.9 1.58 20.8.198" style="fill:none;stroke-width:1;stroke-linecap:butt;stroke-linejoin:miter;stroke:#000;stroke-opacity:1;stroke-miterlimit:4" transform="scale(.03906 .03958)"/><path d="m16.855 11.168.848.512.02-.02-.266-.183c-.195-.122-.383-.239-.602-.309" style="stroke:none;fill-rule:nonzero;fill:#000;fill-opacity:1"/><path d="m535.7 292.796-.2-7.204m2.4 0v7.5m4 0v-7.697m4.6.69v7.402m2.7-7.5v7.599m3.6-6.81v7.007m1.8-7.105v7.894m-18 1.382v6.81m-2.3-6.415v6.414m6-6.71-.3 6.513m2.5-6.612-.1 6.513m3.4-6.513-.4 6.217m3.5-5.329-1.2 5.724" style="fill:none;stroke-width:.5;stroke-linecap:butt;stroke-linejoin:miter;stroke:#000;stroke-opacity:1;stroke-miterlimit:4" transform="scale(.03906 .03958)"/><path d="M527 285.987c10-1.184 19.9.296 29.8 1.283" style="fill:none;stroke-width:1;stroke-linecap:butt;stroke-linejoin:miter;stroke:#000;stroke-opacity:1;stroke-miterlimit:4" transform="scale(.03906 .03958)"/><path d="M581.1 196.974c.1-25.56-1.3-50.33-.7-72.04-33-14.704-76.6-17.763-98.7-17.763s-65.8 3.06-98.8 17.763c.6 21.71-.8 46.48-.7 71.941Zm0 0" style="fill:none;stroke-width:2;stroke-linecap:butt;stroke-linejoin:miter;stroke:#000;stroke-opacity:1;stroke-miterlimit:4" transform="scale(.03906 .03958)"/><path d="M475.7 155.428s3.6 5.329 4.6 8.19c.5 1.48.6 2.96.5 4.343-.2 2.763-1.2 5.328-2 7.796-.6 1.875-2 3.256-1.2 4.934.3.79.7 1.579 1.6 1.48.5-.099.8-.79 1.2-1.184l1-.592c.5-.198 1.2.098 1.6-.296.4-.395.5-.888.3-1.382-.3-.296-.8 0-1.3 0s-1.2.494-1.7.197c-.5-.296-.8-1.677-.8-1.677l1.6-4.44c.5-1.185 1.3-2.27 1.5-3.554v-1.282c0-.691-.2-1.382.3-1.974.2-.198 1 .197 1.2-.198.6-1.48-2.1-2.467-2.8-3.947 0-.592-.1-1.184-.2-1.776-.5-1.283-2-3.454-2-3.454Zm0 0" style="fill-rule:nonzero;fill:#69737c;fill-opacity:1;stroke-width:.7;stroke-linecap:butt;stroke-linejoin:miter;stroke:#000;stroke-opacity:1;stroke-miterlimit:4" transform="scale(.03906 .03958)"/><path d="M486.9 159.572s3.1 4.046 3.5 6.316c-.1.494-.3.987-.4 1.58 0 .789.5 1.677.5 2.565-.2 2.664-1.6 5.131-2.3 7.796l-1.4 6.71 2-.197.4-3.454 1.5-5.822 1-3.948c.5-.79.9-1.677 1.3-2.565.2-1.185.6-2.467 0-3.553-.3-.296-.6-.592-1-.69a9.5 9.5 0 0 1-1.6-2.468c-.5-1.085-1-3.06-1-3.06-.5.297-2.5.79-2.5.79Zm0 0" style="fill-rule:nonzero;fill:#66452b;fill-opacity:1;stroke-width:.7;stroke-linecap:butt;stroke-linejoin:miter;stroke:#000;stroke-opacity:1;stroke-miterlimit:4" transform="scale(.03906 .03958)"/><path d="m18.434 6.027.09.078.148.09.074.008.078.027.102-.003.074.078.016.011.086-.011.03-.035.157-.239-.039-.394-.742.043Zm0 0" style="stroke:none;fill-rule:nonzero;fill:#fff;fill-opacity:1"/><path d="M19.234 5.36q.154.123.278.277c.058.07.093.172.187.215.125.132.66.293.664.335-.125-.05-.18.118-.3.09-.11.032-.204-.039-.297-.078-.149-.008-.297 0-.426.074-.07.04-.152-.02-.207 0l-.016.016m-.683-.258c-.086-.043-.149-.125-.23-.172-.06-.09-.142-.18-.138-.293-.007-.12-.039-.285.016-.398-.039-.09-.094-.117-.14-.2-.032-.124-.153-.195-.079-.284.078-.075.137-.16.242-.2a.45.45 0 0 1 .258.02c.106.012.164.105.223.187q.104.165.133.36c.05.101.183.125.281.172.078.039.164.074.234.136" style="stroke:none;fill-rule:nonzero;fill:#fff;fill-opacity:1"/><path d="M19.82 6.063c-.039-.004-.14.042-.117-.028-.101-.008-.21.016-.312-.02a2 2 0 0 0-.325-.113c-.105 0-.234.02-.316-.066-.086-.055-.21-.016-.29-.094a.36.36 0 0 1-.128-.27c-.012-.1-.05-.238.063-.304.078-.023.148 0 .195-.078a.4.4 0 0 1 .262.066c.097.051.207.082.3.137.09.059.164.137.25.207.067.078.145.145.188.238.05.106.156.16.246.215.05.016.18.078.059.09a.3.3 0 0 1-.079.02Zm0 0" style="stroke:none;fill-rule:nonzero;fill:#000;fill-opacity:1"/><path d="M18.77 5.723a.3.3 0 0 1-.157-.051c-.027-.02-.117-.07-.058-.11.043-.003.097.02.136-.015.063-.012.125-.012.184-.04.055-.034.117-.01.172-.034.039-.02.031-.102.094-.086.058-.016.039.093-.008.058-.035.043.055.063.078.09.047.055-.059.067-.066.106-.067.02-.118-.063-.18-.04-.012.02 0 .067-.043.055-.059-.035-.106.004-.156.012.015.012-.024.059 0 .055Zm1.136.398c-.031-.016-.07 0-.105 0a.3.3 0 0 1-.067-.008c-.035 0-.097-.043-.109.012 0 .02.059.031.012.04a.3.3 0 0 1-.13-.032c-.019-.016-.054-.04-.042 0 .012.039-.024.05-.055.05a.2.2 0 0 1-.117-.042c-.023.023.031.062.062.066.032.023-.046.016-.066.012a.1.1 0 0 0-.078.008c-.04.007-.04.043.004.039.039.011.086.027.129.007a.4.4 0 0 1 .14-.054l.118-.02h.16a.14.14 0 0 0 .117-.02c.027-.007.094-.034.047-.054q-.007-.006-.02 0Zm0 0" style="stroke:none;fill-rule:nonzero;fill:#69737c;fill-opacity:1"/><path d="M19.766 6.195a.2.2 0 0 0 .054-.008l.067-.023c.027 0 .039-.039.011-.043l-.05-.027-.055-.035.039-.047.059-.012h.047l.066.027.066.032.059.015q.03.017.066.028c.024.007.032.03.059.027a.14.14 0 0 1 .07.027q.031.012.04.035c-.02 0-.04-.02-.06-.011-.019 0-.03.02-.05.015-.008.024-.04.02-.055.043l-.074.043a.1.1 0 0 1-.062 0q-.042-.004-.07-.008a.2.2 0 0 1-.075-.003.1.1 0 0 1-.055-.036l-.082-.027-.023-.012Zm-1.602-1.722q-.029.001-.062.007a.2.2 0 0 0-.094.055.5.5 0 0 1-.102.098.15.15 0 0 0-.047.05q.044.029.075-.007a.25.25 0 0 1 .09-.067c.03-.011.062.008.093.008q.037.022.078.031l.063.012.086.024q.053.005.101 0h.024l-.008.023q.001.03.02.059l.03.05.028.063.023.055q.005.029.028.05l.039.055.031.05c.012.013.027.032.047.028q.032.002.063-.008h-.008a.1.1 0 0 1-.04-.05L18.716 5a.1.1 0 0 0-.016-.059l-.015-.05c-.012-.02-.016-.036-.02-.051l-.027-.059-.028-.054-.03-.051-.024-.02a.04.04 0 0 0-.012-.027.2.2 0 0 1-.043-.063.23.23 0 0 0-.098-.05l-.117-.036-.098-.007Zm0 0" style="stroke:none;fill-rule:nonzero;fill:#000;fill-opacity:1"/><path d="M18.54 5.008c0-.028-.04-.02-.052 0a1 1 0 0 1-.05.058c-.04.028-.079.032-.118.055a.14.14 0 0 1-.058.059.16.16 0 0 0-.07.062c-.005.02-.02.051 0 .067.027.011 0 .039.003.054.012.02.047.028.067.016q.04-.03.07-.059a.24.24 0 0 1 .09-.078.2.2 0 0 0 .058-.039c.02-.02 0-.043.032-.05a.1.1 0 0 0 .05-.051c.016-.024-.011-.043-.007-.067q0-.01-.012-.027Zm0 0" style="stroke:none;fill-rule:nonzero;fill:#69737c;fill-opacity:1"/><path d="M485.2 185.033h-3.7c-.6-.197-1-1.184-1.9-.79-.7.198-1.3.494-1.9.987-.6.296-1.2.691-1.6 1.283-.1.395-1.2.79-.2.79.8.098 1.3-.79 2-.889.7-.296 1.5 0 2-.098h1.8l2 .197c.9 0-.4.592-.7.79-.7.296-1.4.394-2.3.493s-1.6.197-2.3.296c-.7.296-1.3.79-2 1.184-.4.198-1.4.691-.4.691.7 0 1.3-.099 1.9-.296l3.4-.888c.8-.197 1.6-.395 2.3-.592.5 0 1.7-.296 1.3.592-.5.592-1.1 1.085-1.8 1.283-.5.395-1.2.69-1.9.79-.5-.198-1.7.197-.8.887.4.691 1.3.198 1.8 0l2-.986 2.2-.987c.7-.198 1.3-.395 2-.79.7-.296 1.2-.79 1.7-1.48.3-.592.7-.987 1.3-1.184.7-.198 1.4 0 2-.198.8 0 .6-1.381-.1-1.48l-1.8-1.283c-.7-.296-1.4-.394-2.3-.394-.7.098-1.3.493-1.6 1.085-.4.493-.5 1.382-1.3 1.184-.4 0-.8 0-1.1-.197Zm-18 4.54s.6-2.468 1.5-3.356c2-1.875 7.2-3.256 7.2-3.256-2.3 1.085-5 .197-7.2.986-1.8.494-4.9 2.862-4.9 2.862s1.2-2.467 2-3.552c2.7-2.862 6.8-3.158 10-2.665l3.6.395s.6.395.3.987c-.5 1.085-2.2 1.875-3.4 2.368-3.2 1.678-7.2 2.96-9.2 5.23Zm0 0" style="fill-rule:nonzero;fill:#66452b;fill-opacity:1;stroke-width:.7;stroke-linecap:butt;stroke-linejoin:miter;stroke:#000;stroke-opacity:1;stroke-miterlimit:4" transform="scale(.03906 .03958)"/><path d="M478 180.592c-2.9 1.875-9.5 5.428-9.3 5.625 0 0 5.7-1.283 8.3-2.664.9-.395 2.2-.691 2.5-1.678.1-.493-.1-.987-.5-1.382a.92.92 0 0 0-1 0Zm0 0" style="fill-rule:nonzero;fill:#69737c;fill-opacity:1;stroke-width:.7;stroke-linecap:butt;stroke-linejoin:miter;stroke:#000;stroke-opacity:1;stroke-miterlimit:4" transform="scale(.03906 .03958)"/><path d="M19.207 6.547c-.023 0-.027.05-.031.078 0 .02 0 .059.02.059.019 0 .03-.043.03-.07 0-.02.004-.063-.019-.067" style="stroke:none;fill-rule:nonzero;fill:#69737c;fill-opacity:1"/><path d="M488.8 184.342c0-.493-.7-.197-1-.099-.7.1-1.3.395-1.9.889l-1.4.888-2.9 1.48-1.3.493c-.3.1-.2.198.1.198.7.197 1.3.197 2-.099l2.2-.69c.5-.297 1.1-.494 1.6-.691.3-.198 1.3-.395 1.6-.494.6-.395.4-.79 1.1-.79.5 0 .5-.69 0-.789v-.296Zm0 0" style="fill-rule:nonzero;fill:#69737c;fill-opacity:1;stroke-width:.7;stroke-linecap:butt;stroke-linejoin:miter;stroke:#000;stroke-opacity:1;stroke-miterlimit:4" transform="scale(.03906 .03958)"/><path d="M482.3 190.362q.75 0 1.5-.296l1.9-.592.8-.395c.5-.395.9-.79 1.2-1.382l.7-1.283q0-.591-.6-.296l-2 1.58c-.3.493-.6.888-1 1.38l-.6.396-1.6.69Zm0 0" style="fill-rule:nonzero;fill:#69737c;fill-opacity:1;stroke-width:.7;stroke-linecap:butt;stroke-linejoin:miter;stroke:#000;stroke-opacity:1;stroke-miterlimit:4" transform="scale(.03906 .03958)"/><path d="M489.2 152.862c.2.395.3.69.4 1.085l.2 1.48c0 .494-.5.79-.6 1.284v.986c-.2.494 0 .987-.2 1.58-.3.493-1 .098-1.5.197-.5.197-.9.098-1.1-.296l-1.2-1.185c-.5-.493-1-.986-1.3-1.48l-.9-1.381-.2-.494m1.7 2.665h-2.6c-.3 0-1 0-1.2-.296-.3 0-.5-.1-.8-.296-.3-.1-.5-.1-.7 0-.3-.494-.6-.889-.9-1.086l-.7-.493-.5-.593-.5-.888-.4-.79v-.197m3 4.047c-.1.493-.8 0-1.1-.198l-.8-.296-.7-.395-.8-.493-1-.493-1-.79c-.5-.296-.9-.69-1.2-1.085-.5-.198-.7-.494-.7-.987l-.3-1.185c-.1-.098-.1-.296-.1-.493" style="fill:none;stroke-width:.7;stroke-linecap:butt;stroke-linejoin:miter;stroke:#000;stroke-opacity:1;stroke-miterlimit:4" transform="scale(.03906 .03958)"/><path d="m19.82 6.215.094-.016a.06.06 0 0 1 .043-.02c.02 0 .04-.003.05-.007a.04.04 0 0 1 .04-.016q.024-.002.043.008l.043.012.039.02c.015.007-.008.019-.012.023-.015.008-.031 0-.043.011q-.024.013-.031.032a.05.05 0 0 1-.04.015h-.038a.07.07 0 0 1-.04 0l-.038-.007q-.02-.016-.04-.02l-.058-.027Zm0 0" style="stroke:none;fill-rule:nonzero;fill:#bca76b;fill-opacity:1"/><path d="M459.6 122.664c-.9-.197-1.8.198-2.6.198h-5.2c-1.3.296-2.6.987-3.9 1.085-1.8 0-3.6.1-5.3.1-1.3.098 0-1.58.8-1.58 1.6-.493 3.2-.888 4.9-1.184 1.3-.197 2.6-.395 3.7-.69l3-.79c1.1-.296 2.2-.296 3.2-.198 1.1-.296 2.2-.592 3.3-.987 1-.493 2-.197 3-.79.5-.789 1.5-.69 2.5-.69 1.1.099 1.9.592 2.5 1.382.7.987-1.4.888-.8 1.973-.5.296-1 .395-1.6.395-.9 0-1.1 0-1.5-.197-.8-.395-1.5-.79-2.2-1.283-.8-.197-.9 1.283-1.8 1.085-1.2.494-2.6.296-3.9.395q1.35.444 2.4 1.184c.3.395-.2.395-.5.494Zm0 0" style="fill-rule:nonzero;fill:#000;fill-opacity:1;stroke-width:.5;stroke-linecap:butt;stroke-linejoin:miter;stroke:#000;stroke-opacity:1;stroke-miterlimit:4" transform="scale(.03906 .03958)"/><path d="m18.156 4.715.032-.012.019-.031s.027.039.012.055c-.016.015-.063-.012-.063-.012m.086-.078c.004 0-.027-.024 0-.032.024-.03.063-.007.094.004a.3.3 0 0 1 .156.094c.059.063.07.149.117.227l.04.11c.011.026.054.058.03.089-.027.016-.054-.008-.077-.012-.04-.004-.02.035 0 .04.027.011.039.054 0 .05l-.102-.016c-.027-.015.008-.039.023-.05.016-.012.047-.028.04-.055 0-.047-.032-.09-.04-.137a.5.5 0 0 0-.035-.11c-.015-.077-.086-.128-.156-.152l-.09-.042Zm0 0" style="stroke:none;fill-rule:nonzero;fill:#fff;fill-opacity:1"/><path d="m18.496 4.676.031.015.032.047.007.028q.004.016.02.027l.012.039.015.04.012.03q.011.018-.008.024l-.023-.012-.028-.043-.007-.023-.012-.04-.016-.027-.015-.039c-.004-.012-.028-.043-.024-.058Zm-.23-.09-.016-.012-.023-.011c-.016.003-.004-.012-.012-.008l-.008-.02-.012-.015s-.008-.008 0-.008l.024.004.02.004h.042q.006.004.012.003a.03.03 0 0 1 .016.016q.005.01.011.02v.015l-.02.008-.023.008Zm0 0" style="stroke:none;fill-rule:nonzero;fill:#bca76b;fill-opacity:1"/><path d="M18.246 4.574q-.017.005-.039.004l-.016.016-.023.011-.02-.015-.011-.012-.016-.008q-.007 0-.008-.015v-.02l.016-.008h.039c.012 0 .02-.004.027-.004l.016.012Zm.063-.035.027-.008.027.004q.019 0 .032.012l.03.016.028.011.027.016.024.027q.006.014-.012.016l-.027-.016q-.011-.001-.027-.008l-.028-.015-.039-.016-.02-.004-.035-.02q-.006-.001-.007-.015" style="stroke:none;fill-rule:nonzero;fill:#fff;fill-opacity:1"/><path d="M18.453 4.75c-.039 0-.078.016-.117 0-.027 0-.05.023-.078.031-.031-.004-.04.043-.067.04-.027 0-.054-.02-.078-.012.051.023.102.046.149.078q.035.036.078.054c.027.012.05.032.039.059-.008.031-.055.04-.055.07-.004.032-.039.047-.05.07s-.04.04-.04.067c.004.031.04.008.04-.02.007-.019.027-.054.054-.039.02.028.047-.023.07-.011q.03.037.051.004c.02-.008.047-.02.028-.04 0-.027.03-.027.046-.038.02-.008.04-.04.02-.055-.02-.028 0-.067-.023-.09-.02-.031 0-.07-.016-.098a.16.16 0 0 0-.047-.07Zm0 0" style="stroke:none;fill-rule:nonzero;fill:#000;fill-opacity:1"/><path d="M19.5 5.828c-.04 0-.078.035-.125.04-.047.003.016.03.031.038.043.032.094.04.14.059a.23.23 0 0 0 .145.023c.043-.011.012-.054 0-.078-.027-.039-.078-.058-.109-.094q-.048-.03-.078.012Zm0 0" style="stroke:none;fill-rule:nonzero;fill:#69737c;fill-opacity:1"/><path d="M19.469 5.926q-.018.005-.047.004a.1.1 0 0 1-.059-.004l-.054-.02q-.028-.013-.043-.031c-.012-.016.011-.016.023-.016a.1.1 0 0 1 .063-.007l.066.03q.032.014.05.032Zm.218-.016c.004.02-.027 0-.039.008a.2.2 0 0 1-.062-.012.4.4 0 0 0-.106-.039c-.015-.004-.05-.02-.023-.039a.1.1 0 0 1 .066-.031.3.3 0 0 1 .07.023.2.2 0 0 1 .067.04q.03.021.031.05Zm0 0" style="stroke:none;fill-rule:nonzero;fill:#fff;fill-opacity:1"/><path d="M19.086 5.691a.18.18 0 0 1-.11.028c-.035.011-.09-.02-.101.023-.016.04.027.059.05.074.071.04.15.04.223.04.024 0 .09-.008.055-.032a.5.5 0 0 1-.098-.11Zm.383.024-.047-.012-.055-.031a1 1 0 0 0-.078-.04q-.018-.016 0-.023c.016 0 .023-.02.04-.004q.023.011.042.04c.012.02.031.027.055.03.015.013.039.02.039.04Zm-.055.07s-.066.024-.098.012a.3.3 0 0 1-.07-.027.2.2 0 0 1-.078-.051c-.02-.02 0-.055.031-.047.016-.004.008-.04.04-.024.03.016.066.032.093.055l.059.05Zm-.516-.488c.047.012.102.031.13.078.038.043-.04.074-.079.043q-.087-.042-.176-.078c-.062.012.024.047.04.058q.051.037.05.079c-.039.035-.09 0-.133-.008-.046-.004-.078-.047-.105-.078q-.035-.042-.078-.024c0 .04.031.051.05.086.016.02.079.074.02.078a.2.2 0 0 1-.113-.09c-.027-.027-.047-.086.008-.093a.34.34 0 0 1 .164-.04c.058-.007.12 0 .183-.015.008 0 .047-.02.04 0Zm0 0" style="stroke:none;fill-rule:nonzero;fill:#69737c;fill-opacity:1"/><path d="m18.434 5.332-.016.04v.046l.016.039c.007.016.02.027.03.031q.014.017.032.028l.027.015.04.008c.011 0 .023-.004.027-.012q.011-.011-.008-.02-.017 0-.027-.023l-.028-.027q0-.013-.015-.031l-.024-.028-.027-.027-.023-.031Zm.406.156-.102-.02a.17.17 0 0 1-.086-.062 1 1 0 0 0-.078-.066c-.035-.012-.047.035-.027.05l.062.079.078.058q.059.028.122.032.045-.005.062-.04-.007-.029-.031-.023Zm-.094.215a.2.2 0 0 1-.066-.012.1.1 0 0 1-.04-.046q-.028-.037-.058-.043c-.02-.004-.047.007-.039.03a.08.08 0 0 0 .031.052.3.3 0 0 0 .078.043.07.07 0 0 0 .047.007c.02 0 .04.008.047-.011Zm.23-.066q.031.016.02.05-.025.034-.066.032l-.063-.004-.066-.031c-.024-.008-.028-.036-.04-.051-.011-.016.02-.028.036-.024.02.008.039.032.055.04l.058.019c.016 0 .04.008.047-.008l.016-.023Zm.196-.051c.02.016.008.05-.02.059a.1.1 0 0 1-.054 0l-.078-.04a.1.1 0 0 1-.051-.035c-.008-.023.02-.039.039-.03a.3.3 0 0 1 .094.03c.02.008.039.016.066.02Zm0 0" style="stroke:none;fill-rule:nonzero;fill:#fff;fill-opacity:1"/><path d="M492.4 135.395c2.6 2.072 5 4.44 7.1 7.006 1.5 1.777 2.4 4.342 4.8 5.428 3.2 3.355 16.9 7.401 17 8.487-3.2-1.283-4.6 2.96-7.7 2.27-2.8.789-5.2-.987-7.6-1.974-3.8-.198-7.6 0-10.9 1.875-1.8.987-3.9-.494-5.3 0l-.4.395m-17.5-6.514c-2.2-1.085-3.8-3.157-5.9-4.342-1.5-2.27-3.6-4.54-3.5-7.401-.2-3.06-1-7.204.4-10.066-1-2.27-2.4-2.96-3.6-5.033-.8-3.158-3.9-4.934-2-7.204 2-1.875 3.5-4.046 6.2-5.033 2.2-.493 4.5-.296 6.6.494 2.7.296 4.2 2.664 5.7 4.737 1.8 2.763 2.9 5.822 3.4 9.079 1.3 2.565 4.7 3.158 7.2 4.342 2 .987 4.2 1.875 6 3.454" style="fill:none;stroke-width:.7;stroke-linecap:butt;stroke-linejoin:miter;stroke:#000;stroke-opacity:1;stroke-miterlimit:4" transform="scale(.03906 .03958)"/></svg>