<svg xmlns="http://www.w3.org/2000/svg" width="25" height="px" viewBox="0 0 25 19"><path d="M0 0h25v19H0z" style="fill:#006;fill-opacity:1;stroke:none"/><path d="M574.5 199.737c0 63.651-10.2 132.434-93 165.296-82.6-32.862-92.7-101.645-93.1-165.296Zm0 0" style="fill-rule:nonzero;fill:#8fc5ff;fill-opacity:1;stroke-width:4.3;stroke-linecap:butt;stroke-linejoin:miter;stroke:#fff;stroke-opacity:1;stroke-miterlimit:4" transform="scale(.03906 .03958)"/><path d="M481.4 364.737c31.5-11.053 57.7-33.454 73.6-62.763h-7.8c-2.3-.395-79.4-7.796-88.7-11.645-7.9-2.862-38.4 2.664-52.4 7.796 15.5 31.184 42.5 55.066 75.4 66.513Zm0 0" style="fill-rule:nonzero;fill:#366cc9;fill-opacity:1;stroke-width:4.3;stroke-linecap:butt;stroke-linejoin:miter;stroke:#000;stroke-opacity:1;stroke-miterlimit:4" transform="scale(.03906 .03958)"/><path d="M423.6 325.56h4.7c1.1 0 1.1 0 1.5-1.185.4-1.184 1.6-.79 2.4-.395s2.3 0 3-.79c.9-.789.9-.789 1.7 0 .8.79 1.1.396 2 0 .3 0 1.9-.789 2.3-1.973s1.5-1.48 2-.69c.3.591 1 .887 1.9.789.6-.099.8.395.7 1.48 0 .79 0 1.184 2-.395 1.6 1.58 2 .79 2-.79 0-1.48 0-7.795-.8-8.19s-1.2-3.158-1.6-5.033c0-3.947 0-3.947-3.9-6.02 0-.986-.8-1.48-4-1.48.5-.395 0-1.48-.7-1.974-.8-.296-.8-.69 0-2.27.8 0 2.4 0 2.7-1.282.8-.69 3.2-.69 4.7 0 1.6.79 3.2.79 5.9 0l4.7-2.27c2-1.184 2.3-1.579 2.3-3.06 0-4.045-1.1-7.795-2-9.868-1-1.973-1-3.947-2.7-7.4-1.5-3.159-1.5-3.948-3-5.823-.9-.888-1.3-1.283-1.3-2.369-.1-1.48-.8-2.96-2-3.947-3-2.763-3.8-11.743-5.4-18.355-.8-3.948 0-12.928-1.5-14.507-2.8-1.974-4-1.579-6-2.27-1.5-1.973-1.9-5.526-3.4-8.98-2 .395-3.2 2.27-4.3 2.96-1.2.889-1.6.889-1.6 2.863 0 1.578-1.2 3.947-2.7 7.006-1.6 3.158-5.1 1.974-7.9 6.217-5.4-6.513-5.4-8.585-5.8-10.46 0-1.974-1.2-2.369-4.3-5.132v-5.92c-2.8-2.073-4.3-1.58-5.5 0-1.2 1.183-2 3.058-3.9 3.946-.8 1.48-4 4.639-6.3 8.98 2.4 35.132 10.2 70.363 34 98.488Zm0 0" style="fill-rule:nonzero;fill:#5d3100;fill-opacity:1;stroke-width:.4;stroke-linecap:butt;stroke-linejoin:miter;stroke:#000;stroke-opacity:1;stroke-miterlimit:4" transform="scale(.03906 .03958)"/><path d="M574.5 199.737c0-24.375-1.2-47.862-.8-67.994-29.4-11.447-60.7-17.17-92.3-16.973-20.7 0-61.4 3.158-92.2 16.875.7 20.23-.8 43.717-.8 67.993Zm0 0" style="fill-rule:nonzero;fill:#ff0;fill-opacity:1;stroke-width:4.3;stroke-linecap:butt;stroke-linejoin:miter;stroke:#fff;stroke-opacity:1;stroke-miterlimit:4" transform="scale(.03906 .03958)"/><path d="M15.371 9c.04.066.113.172.117.238.032-.062.055-.086.059-.12 0-.04.05-.11.031-.15-.02-.038-.027-.066.016-.038.043.027.035.078.027.152-.027.195-.105.234-.117.367.113.278.027.38.156.656.02.008.07-.011.086-.007.07-.047.117-.036.215-.012.094.02.144.086.144.148 0 .067 0 .079.024.114.023.035.055.09.05.132q-.01.06.02.082c.012.02-.008.07-.015.094-.016.028-.004.067.039.125.047.063.156.313.156.461 0 .153.012.223.07.25.059.028.078.051.07.113s.028.395.036.454c.004.05.027.039.054.066.028.027.04.059.118.059q.127-.006.203 0a.85.85 0 0 1 .136.32c.02.086.016.2.04.2.03 0 .058 0 .05-.102s-.015-.118-.05-.172q-.064-.07-.04-.106.028-.053.02-.125c-.008-.039-.023-.101.047-.023l.105.129c.02.027.028.082.024.133-.008.05.004.066.035.039.027-.024.058.02.039.07q-.018.076.059.105c.043.008.07.032.078.063.011.031.05.05.05-.024a1 1 0 0 0-.046-.273 1 1 0 0 1-.04-.215c-.007-.058-.015-.074-.042-.082a.11.11 0 0 1-.06-.062c0-.028-.026-.043-.042-.043q-.03.002-.047-.032-.011-.03-.039-.023c-.02-.004-.05.008-.062-.024a.3.3 0 0 0-.043-.101c-.02-.024-.036-.035-.04-.129-.003-.09 0-.102-.03-.133-.032-.031-.079-.117-.098-.152-.016-.04-.04-.074-.04 0 0 .082 0 .121.051.148.047.028.059.028.04.07-.024.04 0 .067.007.098.008.028.024.055 0 .078q-.039.047-.043-.02a.26.26 0 0 0-.035-.132c-.016-.039-.035-.062-.059-.039-.023.016-.043-.008-.027-.023q.024-.023 0-.04-.019-.011.004-.046c.023-.036.02-.036.008-.094a2.6 2.6 0 0 0-.137-.402c-.039-.067-.035-.11.012-.051.05.062.098.117.105.176q-.001.076.028.101.022.035.039-.031c0-.043.039-.027-.016-.113-.058-.082-.16-.223-.203-.48-.04-.255-.055-.419-.094-.485-.039-.07-.05-.086-.054-.149-.004-.066 0-.133-.028-.18-.027-.046-.047-.054-.05.016-.005.07 0 .239.023.262.023.027.008.101 0 .137-.008.043-.067.086.066.164.051.035.04.078.04.101q-.013.049-.048-.015a.3.3 0 0 0-.082-.102c-.027-.02-.035-.039-.027-.098q.018-.092 0-.12-.018-.023-.035.03c-.008.032-.012.122-.035.145-.02.024-.02.008-.032-.043a.46.46 0 0 1 .032-.226.6.6 0 0 0 .023-.309c-.023-.121-.015-.16-.101-.258-.094-.101-.2-.199-.239-.32-.047-.129-.054-.238-.105-.293a.7.7 0 0 0-.156-.149v-.183q0-.072-.07-.063-.076.014-.118.11c-.031.062-.055.035-.101.136-.047.106-.102.16-.102.27Zm0 0" style="stroke:none;fill-rule:nonzero;fill:#cf6200;fill-opacity:1"/><path d="M15.656 10.176c.04.023.067.035.117.011.043-.023.098-.093.168-.023a.44.44 0 0 1 .094.266c0 .09 0 .258.102.347.101.09.152.196.156.309q.013.182.055.36.022.076.074.136a.4.4 0 0 1 .058.219c.004.097-.011.16 0 .21.016.052 0 .09-.03.071-.04-.02-.048-.039-.071-.082-.027-.04-.031-.031-.02.031.02.09.078.117.13.117.05 0 .066.004.1.04.032.03.036.046.09.046.055 0 .063 0 .118.016.05.012.05.008.078 0s.055.016.074.066c.016.055.067.2.067.239s0 .082.027.12c.027.044.02.079-.012.06-.027-.024-.031-.02-.05-.012q-.03.008-.075-.032c-.031-.015-.011-.011-.043-.058q-.046-.08-.05-.031c0 .058-.012.074-.032.058q-.03-.03-.054 0c-.02.024-.028.04-.051 0-.024-.039-.051-.039-.078-.055-.02-.003-.02-.003-.032-.039-.011-.035-.05-.046-.078-.046-.035 0-.05-.012-.054-.04 0-.023-.024-.039-.04-.05-.015-.012-.007-.04-.011-.067s-.028-.02-.043-.023c-.02-.008-.027-.004-.027-.05 0-.044-.02-.052-.028-.08-.015-.03 0-.058.008-.085.004-.04 0-.055-.023-.078-.024-.035 0-.063-.067-.121-.066-.051-.098-.004-.117-.133a1.8 1.8 0 0 0-.094-.453c-.039-.04-.058-.078-.097-.09-.04-.012-.055 0-.06-.078-.003-.082-.026-.176-.077-.223l-.09-.086c-.023-.015-.035-.058 0-.12.035-.071.02-.165.016-.212-.004-.043-.016-.101-.008-.148a.4.4 0 0 0-.008-.137c-.008-.035-.027-.043-.008-.07Zm.957-1.14a.8.8 0 0 1-.183.183c-.075.054-.168.094-.117.187.054.09.097.102.105.168q.013.115.078.149c.059.015.078.007.078.117 0 .113 0 .16.047.2.047.038.04.085.063.183.023.105.023.328.086.476.058.149.207.438.187.492-.02.055-.031.102.027.172.067.07.106.172.118.23 0 .06.011.079.078.06a.26.26 0 0 0 .113-.067q.031-.04.121.008c.059.035.148.062.203.035.051-.035.078-.082.125-.082.074-.055.102-.168.117-.2.016-.03.004-.03-.027-.062-.031-.031-.016-.086-.02-.137a.8.8 0 0 0-.09-.257c-.062-.121-.105-.262-.144-.297s-.062-.133-.066-.176c-.004-.04-.055-.078-.086-.11-.035-.035-.063-.081-.102-.269a3 3 0 0 1-.062-.355c0-.032-.008-.032-.04-.051-.03-.016-.046-.063-.03-.086.003-.027-.016-.055-.028-.086s0-.09.023-.129c.02-.031.016-.117-.003-.195-.02-.07-.043-.137-.13-.153-.081-.007-.1-.03-.128-.101-.04-.067-.07-.192-.078-.219s-.028-.031-.09.024c-.063.054-.086.066-.086.171 0 .067.015.086.035.121.02.04.027.051.04.153.01.097.105.262-.009.355-.117.086-.101.11-.097.176.004.063-.032.106-.051.02-.024-.098 0-.149.062-.192.063-.043.121-.097.078-.16a.7.7 0 0 1-.066-.258c-.004-.066-.012-.09-.05-.039" style="stroke:none;fill-rule:nonzero;fill:#cf6200;fill-opacity:1"/><path d="m15.672 10.402.012.13c0 .046.015.14-.02.206q-.04.095 0 .125h.004a.094.094 0 0 0 .059-.129.12.12 0 0 1 .007-.117c.02-.035.02-.062 0-.09s-.02-.027 0-.101c.024-.067-.027-.067-.062-.024m.68 1.043c-.012-.05-.059-.238-.059-.36a.44.44 0 0 0-.156-.308c-.078-.07-.094-.183-.102-.277q-.087-.048-.074.05c0 .071.078.102.066.208-.011.11-.011.082.04.133.042.046.066.101.038.117-.027.02-.027.058.008.07.04.016.04.059.035.098-.003.039.036.043.051.066.024.028.024.094 0 .13-.015.038-.02.1.016.07.035-.036.055 0 .082.046.023.04.047.028.078.02l-.027-.063Zm.507.934c-.015.047-.043.035-.066.012s-.05-.024-.04-.075c.009-.043 0-.05-.026-.074l-.012-.012h-.031c-.059 0-.063-.011-.098-.046l-.02-.016v.031c0 .043 0 .031-.039.047s-.039-.043-.047-.078l-.003-.023a.16.16 0 0 1-.118-.114c-.02-.066 0-.07.024-.031.023.043.027.055.062.082.032.02.047-.02.032-.07v-.051q-.007-.022-.032-.04c-.07-.026-.047-.03-.047-.085q.018-.07-.046-.024c-.04.028-.04 0-.04-.09 0-.077-.054-.077-.066-.023-.012.063-.035.02-.055-.058-.02-.079-.058-.102-.058-.024q0 .1-.063.047l.016.125c.02.129.05.078.117.137.063.054.043.086.067.117q.03.035.023.078a.11.11 0 0 0-.012.086c.012.031.032.04.032.082s.007.04.027.05h.031l.027-.042c.051-.047.118 0 .145.07q.036.094.09.024c.039-.047.023-.04.062.004.04.043.055.039.055.039s.04-.016.07.007c.028.024.04.02.094-.054.05-.082-.023-.055-.047-.008Zm.149-2.211c.015-.117.004-.234.05-.277.051-.04.106-.13.106.058-.008.18-.016.168-.05.211-.036.043-.071.055-.04.125.043.067.047.078.043.18-.004.11-.004.156.035.207.043.055.055.055.067.117a.3.3 0 0 0 .093.18.47.47 0 0 1 .106.254c.004.086.078.105.148.168.07.066-.015.101-.066.074-.055-.024-.035 0-.066.039-.032.039-.04.043-.067-.024-.027-.066-.117-.109-.16-.125-.043-.015-.078-.085-.117-.156a.2.2 0 0 0-.152-.105q.024.07.019.097c-.016.059-.031.102.027.172.067.07.106.172.118.23 0 .06.011.079.078.06a.26.26 0 0 0 .113-.067c.02-.027.062-.027.121.008.059.031.148.062.203.031.051-.035.078-.078.125-.078.074-.055.102-.172.117-.2.016-.038.004-.038-.027-.066-.031-.031-.016-.086-.023-.136q.003-.084-.086-.254c-.067-.121-.106-.262-.145-.297s-.066-.133-.066-.176c-.008-.04-.055-.078-.086-.113s-.067-.082-.102-.266a6 6 0 0 1-.058-.316q-.06.095-.078.03c-.02-.046-.036-.07-.06-.038-.023.031-.026-.031-.026-.059 0-.031 0-.031-.036-.031s0-.04-.011-.125c-.012-.078-.028-.086-.035.008s-.067.16-.043.176q.023.035-.012.129a.23.23 0 0 0 0 .144c.015.04-.008.125-.016.191-.008.067.043.141.059.024Zm-.969-.957c-.039 0-.066.039-.043.16.016.078-.039.063-.062.024-.02-.04-.04-.122-.079-.188-.043-.066-.023.043-.027.11-.008.07.035.07.07.12.036.051.008.075-.03.075-.04 0-.028.086-.016.144.011.059-.012.07-.04.024-.039-.055-.011-.121-.007-.215.008-.09.011-.07-.047-.09-.059-.027-.051-.04-.024-.09.02-.055.04-.078.012-.105q-.041-.041.024-.047c.039-.008.023-.04.062-.047.04-.012.055 0 .059-.07.004-.063.023-.086.066-.075.027.09.059.23.082.27m.535.633c0 .113 0 .16.047.199s.04.086.063.184c.023.105.023.328.086.476l.07.16a.4.4 0 0 0 .078-.105c.012-.031-.035-.11-.07-.168-.04-.074.004-.094.039-.176.039-.074 0-.078-.063-.101-.054-.02-.054-.083-.086-.165-.031-.085-.027-.12-.008-.171q.03-.075-.035-.098c-.043-.012-.03-.04-.015-.094.015-.055.027-.062-.04-.05-.046.015-.058.027-.074.038Zm0 0" style="stroke:none;fill-rule:nonzero;fill:#00b800;fill-opacity:1"/><path d="M17.184 10.066a.3.3 0 0 1-.024.118c-.012.02-.008.046.012.09.02.027.023.074.012.132q-.019.095.039.117c.03.02.047 0 .039.082a.24.24 0 0 0 .066.184c.04.031.067.086.059.121.004.031.023.059.066.078.04.016.031.02.031.04 0 .019.016.023.055.034q.053.011.125.098c.047.063.117.09.106.027-.012-.066 0-.113-.063-.14-.062-.027-.113-.184-.137-.293a.7.7 0 0 0-.156-.281c-.012-.078 0-.114-.047-.149a.17.17 0 0 1-.066-.129.14.14 0 0 0-.047-.093q-.03-.019-.031-.07c0-.032-.032-.028-.04.038Zm0 0" style="stroke:none;fill-rule:nonzero;fill:#5d3100;fill-opacity:1"/><path d="M16.902 12.945q.196-.033.38-.113c.066.043.175.105.222.105q-.142.026-.172-.007c.012.027.04.074.063.078-.09 0-.188-.024-.22-.055-.077.031-.202.04-.273-.008m.168.117c.035.012.203.04.227.04-.055.046-.008.093.082.085-.04.008-.094.028-.059.036a1 1 0 0 0 .348-.075c-.078.102-.445.192-.598-.085m.157.242q.106-.03.207.011c-.055.024-.176.024-.211-.007Zm0 0" style="stroke:none;fill-rule:nonzero;fill:#00d860;fill-opacity:1"/><path d="M17.395 13.305c.078-.012.312.039.39-.008-.027.074-.168.086-.223.066a1 1 0 0 0-.132-.031c.023-.012-.008-.012-.04-.027Zm0 0" style="stroke:none;fill-rule:nonzero;fill:#000;fill-opacity:1"/><path d="M17.477 13.418c.117.004.238-.012.351-.043.067.023.211.063.242.059-.066.039-.195.015-.234 0a.42.42 0 0 1-.36-.016" style="stroke:none;fill-rule:nonzero;fill:#00d860;fill-opacity:1"/><path d="M17.578 13.453a.47.47 0 0 0 .254-.02c.027.008.09.024.152.024.04.02.09.055.145.063-.098.011-.2 0-.293-.032a.8.8 0 0 0-.313.063.13.13 0 0 1 .059-.094Zm0 0" style="stroke:none;fill-rule:nonzero;fill:#00d860;fill-opacity:1"/><path d="M17.477 13.008c.066.02.32.008.441-.051.055-.027.086.016.027.031-.203.078-.37.102-.488.04-.047-.024-.055-.048.02-.024Zm0 0" style="stroke:none;fill-rule:nonzero;fill:#000;fill-opacity:1"/><path d="M18.695 12.66c-.308.145-.508.188-.933.055-.04-.008-.067 0-.024.027q.16.071.332.102c.055.004.035.027 0 .039-.03.008-.039.035.004.015.043-.015.305-.027.41.032q.064.034.051 0c0-.02.02-.028.055-.035.031-.004.055-.016.027-.024-.027-.008-.031-.02-.012-.027q.035-.017-.007-.028c-.028-.007-.051-.015-.024-.027a.3.3 0 0 1 .102-.027c.008-.02-.004-.078.02-.102" style="stroke:none;fill-rule:nonzero;fill:#00d860;fill-opacity:1"/><path d="M18.188 12.695c.242.004.476-.082.664-.238.062.04.144.078.191.086.043.008.078.047.012.047a.6.6 0 0 1-.203-.047c-.2.125-.43.184-.665.172-.042 0-.054-.02 0-.016Zm0 0" style="stroke:none;fill-rule:nonzero;fill:#000;fill-opacity:1"/><path d="M17.668 11.73a.46.46 0 0 0 .305.102.6.6 0 0 0 .222.117c-.093.031-.195.067-.218.098-.04-.043-.098-.035-.11-.059-.039.043-.035.055-.008.075.09.023.18.039.274.035.047-.016.066.027.023.039-.105.039-.312 0-.383-.117-.078-.114-.136-.157-.332-.051-.02-.059-.02-.067-.058-.067-.04 0-.11-.05-.055-.05s.211-.024.34-.118Zm0 0" style="stroke:none;fill-rule:nonzero;fill:#00d860;fill-opacity:1"/><path d="M17.719 11.992c-.04.004-.13.059-.16.063-.036.008-.094.054-.036.054.067 0 .145-.066.188-.066s.047-.063.008-.055Zm.195.2a1 1 0 0 1-.156.03c-.028 0-.059 0-.055.024s.012.035-.035.027c-.04-.007-.074.012-.082.024s-.02.027.023.031c.04 0 .063.012.114-.02a.6.6 0 0 1 .14-.054c.051 0 .102-.07.047-.059Zm0 0" style="stroke:none;fill-rule:nonzero;fill:#00d860;fill-opacity:1"/><path d="M17.77 12.313c.043.039.257.105.332.105.078-.004.066.027.007.039a.49.49 0 0 1-.375-.105c-.047-.043 0-.059.032-.04Zm0 0" style="stroke:none;fill-rule:nonzero;fill:#000;fill-opacity:1"/><path d="M18.781 12.43a.86.86 0 0 1-.398.011c-.067-.023-.13-.023-.078.024.039.043.187.07.273.05-.297.067-.375.063-.445.051a1.6 1.6 0 0 0-.274-.007.2.2 0 0 1-.129-.016c-.027-.02-.035-.043.043-.035q.118-.001.024-.02c-.07-.011-.16.016-.07.078.093.059.289-.007.418.032.23.058.472.004.652-.149.012-.008.035-.039-.016-.023Zm-.804-.25q.01.036 0 .054c-.008.016-.004.036.02.016.023-.02.038-.047.07-.031.027.011.09.011.117.008q.053.001 0-.028a.3.3 0 0 0-.114-.023.12.12 0 0 1-.074-.012c-.035-.016-.023 0-.02.016" style="stroke:none;fill-rule:nonzero;fill:#00d860;fill-opacity:1"/><path d="M18.398 12.258a.3.3 0 0 1-.12-.04c-.032-.011-.079-.011-.048.04.036.047.18.07.235.047.05-.024.031-.047.078-.016a.3.3 0 0 0 .145.055c.062 0 .05 0 .011-.028-.039-.023-.062-.027-.07-.046-.008-.02-.008-.036.035-.02.04.012.078.031.11.016.03-.016.085-.051.136-.051l.008-.031c-.07 0-.117.02-.137.023q-.03.016-.093.008c-.067-.008-.086-.012-.098-.02q-.023-.017.02-.023c.03-.008.038-.027 0-.024a.7.7 0 0 1-.227-.011q-.078-.03-.11-.012c-.027.008-.023.04.012.04.04 0 .125.01.156.038q.04.04-.007.016c-.036-.016-.098-.008-.036.039" style="stroke:none;fill-rule:nonzero;fill:#00d860;fill-opacity:1"/><path d="m18.918 12.184-.012.03c.074 0 .25.016.313.052.054-.043.043-.059.078-.047.039.011.094.02.117.011a.1.1 0 0 1 .059-.007.3.3 0 0 0 .105-.024.3.3 0 0 1 .129-.039c.035 0 .078-.012.012-.023a.5.5 0 0 0-.196.023 1 1 0 0 1-.195.02c-.058 0-.14.027-.207.011-.07-.015-.164-.007-.207-.007Zm0 0" style="stroke:none;fill-rule:nonzero;fill:#00d860;fill-opacity:1"/><path d="M19.84 12.152c-.117.086-.266.106-.434.118-.05 0-.035.015.008.02.18.019.383-.048.453-.118.02-.024.016-.055-.027-.024Zm0 0" style="stroke:none;fill-rule:nonzero;fill:#000;fill-opacity:1"/><path d="M19.027 12.36q.146.018.285.066c.043-.004.063-.02.051-.035-.011-.016-.015-.032.067-.024h.293c.03-.012.09-.062.117-.062-.07 0-.371.02-.406.011q-.054-.002-.082.02c-.024.012-.036.02-.067.004-.039-.012-.082-.031-.117-.004-.023.016-.09 0-.14.023" style="stroke:none;fill-rule:nonzero;fill:#00d860;fill-opacity:1"/><path d="M19.723 12.367c.027-.012.09-.062.117-.066a.3.3 0 0 1 .137.027c.027.008.058 0 .039-.027-.02-.024 0-.063.078-.051.086.008.125.023.207.016.082-.008.113.05.262-.008-.008.058.019.066.046.05q.042-.018.106.032c.05.039.34.039.406.027.067-.012.102.024.05.04-.05.015-.062.038-.05.058s.024.035-.039.027c-.062-.008-.078.012-.105.031-.028.02-.04.04-.13.02s-.105-.004-.152 0c-.047.008-.058.012-.11-.004a.4.4 0 0 0-.214-.012c-.062.024-.105.04-.164.024-.059-.012-.059-.008-.023-.04.03-.038.039-.038.109-.042s.117-.028.074-.055c-.05-.027-.062-.023-.129.004-.062.031-.093.055-.168.016-.074-.04-.101-.036-.156-.02-.047.012-.125-.02-.191-.047m.238.117c-.094.016-.117-.043-.211-.035-.031.008-.086.047-.012.04.075-.009.157.034.227.03.07-.003.039-.039 0-.035Zm-.102.067c.043-.016.141.02.188.011.047-.007.078.016.031.036-.047.023-.144-.028-.195-.016-.043.016-.094-.004-.028-.031Zm-.953.265c.067 0 .305-.011.399-.21q.005-.024.039 0c.027.023.14.085.343.105.06 0 .118.031.004.027-.117-.008-.296-.039-.355-.078-.106.16-.29.18-.43.176-.082 0-.062-.024 0-.02" style="stroke:none;fill-rule:nonzero;fill:#00d860;fill-opacity:1"/><path d="M19.418 12.54a.46.46 0 0 1-.188.128 1 1 0 0 1-.238-.023c-.039-.012-.082-.012-.031.027a.44.44 0 0 0 .234.05c.063-.011.121-.03.164 0 .04.024.118.071.164.063a.4.4 0 0 1 .168 0c.032.016.082.063.004.04-.078-.024-.14-.009-.175-.024.039.054.128.148.203.148.02 0 .035.035 0 .051.03.016.117.035.168-.012-.012.016-.008.032.011.035.02.008.043.024.008.032a.3.3 0 0 1-.14 0c.078.05.273.133.48.09.04-.004.063-.024 0-.02-.137 0-.145 0-.168-.012q-.035-.022.023-.039l.168-.027c.04 0 .082-.012 0-.012-.078 0-.18 0-.222-.015-.04-.012-.067-.036-.024-.063.04-.027.082-.02.102-.039-.129 0-.29-.082-.203-.145q.03-.014-.016-.02a1 1 0 0 1-.176-.054c-.039-.02-.015-.043.02-.05a.53.53 0 0 1-.336-.106Zm1.164 0a.6.6 0 0 1-.266.081q-.085.007-.02.02c.048.004.099.015.118.007.02-.007.035-.007.063.008a.24.24 0 0 0 .148 0 1 1 0 0 1 .184-.023c.039.004.078.004 0-.02a.6.6 0 0 0-.227 0c-.031.012-.11 0-.066-.008a.3.3 0 0 0 .101-.054Zm-.039.16a.5.5 0 0 1-.238.09c.078.03.148.116.203.108a.3.3 0 0 1-.09.051.3.3 0 0 0 .21-.043c.118.035.274.012.325-.039-.078 0-.168-.023-.21-.062q.062-.004.089-.043a.45.45 0 0 1-.285-.07Zm0 0" style="stroke:none;fill-rule:nonzero;fill:#00d860;fill-opacity:1"/><path d="M20.418 12.945c.031 0 .066-.023.09-.043a.73.73 0 0 1-.434-.101c-.086-.074-.086-.016-.027.035a.43.43 0 0 0 .375.113Zm.21.184a.6.6 0 0 1-.26.02q-.09-.017-.071.019c.012.023.023.039-.024.031a.5.5 0 0 0-.156.024c-.039.007-.078.039-.008.027.075-.008.137-.023.196-.012.05.012.238.016.273 0 .035-.015.016-.011 0-.011q-.035-.001 0-.032.04-.018.05-.066m-1.651-.23a2.4 2.4 0 0 1-.375.101.5.5 0 0 1-.18.055.3.3 0 0 0 .176.035c-.024.027-.078.05-.098.066.066-.011.137.008.172.012a.45.45 0 0 1-.262.059c.024.023.05.05.086.05a.45.45 0 0 1-.215.008q.03.06.07.07c-.066.004-.144.016-.21-.023.05.066.164.094.336.07a.8.8 0 0 0 .351-.125.8.8 0 0 1-.21 0c.116-.03.23-.082.335-.148a.2.2 0 0 1-.11-.035q.16.008.313-.031a.25.25 0 0 1-.136-.09c.214.062.445.07.664.02.03-.009.03-.052-.028-.044a1.1 1.1 0 0 1-.383-.054.4.4 0 0 0 .157.07c-.098.031-.242.05-.453-.07Zm0 0" style="stroke:none;fill-rule:nonzero;fill:#00d860;fill-opacity:1"/><path d="M18.5 13.156c.02-.015.078-.039.098-.066-.043.012-.149-.012-.176-.04a.5.5 0 0 0 .18-.05c-.141-.004-.235-.004-.293-.035-.055-.031-.145-.016-.184-.008-.04.004-.023.066.129.05a.5.5 0 0 1-.297.04q.03.088.012.137c.082.05.3.109.41.101-.098-.035-.149-.078-.07-.09.078-.008.125-.023.195-.039Zm0 0" style="stroke:none;fill-rule:nonzero;fill:#00d860;fill-opacity:1"/><path d="M18.254 13.418c.187-.016.445-.02.648-.195.051-.043.086-.028.035.02-.18.14-.398.222-.625.234-.105 0-.152-.051-.058-.063Zm0 0" style="stroke:none;fill-rule:nonzero;fill:#000;fill-opacity:1"/><path d="M19.676 13.102a.7.7 0 0 1-.219.03.24.24 0 0 0-.129.009c-.035.023-.031.039.008.039l.129.008a.2.2 0 0 0-.07.062.4.4 0 0 1 .218.031.14.14 0 0 1-.078-.015c.106.117.426.117.477.093a.15.15 0 0 1-.067.04.38.38 0 0 0 .293-.04l-.164-.007a.16.16 0 0 1 .078-.047.5.5 0 0 0-.195.011.14.14 0 0 1 .059-.066c-.157 0-.348 0-.414-.043.105.02.23-.05.28-.05-.085 0-.179-.02-.202-.06Zm-.395.078c-.078.02-.195.058-.23.074-.031.02-.063.027.004.027l.023-.004c-.027 0-.058 0-.004-.02.055-.019.117-.054.203-.07Zm-.156.195c.027 0 .145 0 .195-.04a.5.5 0 0 0 .203.087q.089.006 0 .023a.45.45 0 0 1-.21-.066c-.07.027-.13.004-.196-.004Zm-.922.543c.125.055.266.07.402.043.07.059.207.062.282.047a.46.46 0 0 1 .23 0c.078.031.25.035.301.074l-.16.004q-.035.012.031.043a.83.83 0 0 0-.441.117.24.24 0 0 1 .234-.152c-.07-.024-.3-.028-.379.023a.3.3 0 0 1-.047-.082c-.12.07-.36-.035-.457-.117Zm-.312-.23a.55.55 0 0 0 .285-.11c.027.024.137.047.254.012-.024.015-.028.05-.02.066a.8.8 0 0 0-.273.07c-.047.024-.196.044-.242.016q-.066-.036-.008-.055Zm0 0" style="stroke:none;fill-rule:nonzero;fill:#00d860;fill-opacity:1"/><path d="M18.41 13.66a.8.8 0 0 0-.273.07l.02.067q.292-.081.597-.063c-.063.004-.176.075-.238.079a1 1 0 0 1 .343.03q.063.013.02.071c-.031.035-.043.027.02.035.062 0 .195-.011.253-.07-.027-.024-.086-.012-.105-.035a.3.3 0 0 0 .105-.067.7.7 0 0 1-.18-.011c-.03-.008-.058-.02-.015-.043a.3.3 0 0 0 .078-.059c-.078.02-.2.04-.305-.039.04.008.13 0 .16-.012a.2.2 0 0 0-.085-.031.54.54 0 0 1 .441.004 1 1 0 0 1 .277.016c.04-.032.102-.114.137-.13-.234.016-.656-.023-.644-.148-.078.102-.254.156-.328.14-.008.032.023.083.05.106a.9.9 0 0 1-.277.016c.039.035.102.066.14.066-.078 0-.124.016-.19.008" style="stroke:none;fill-rule:nonzero;fill:#00d860;fill-opacity:1"/><path d="M18.895 13.945c.07 0 .195-.008.257-.066-.027-.024-.086-.012-.105-.035a.3.3 0 0 0 .105-.067c.172-.015.317-.007.391-.027.07-.02.254-.012.289-.02-.16.028-.191.04-.195.067-.008.031.047.047.086.047-.067 0-.16.074-.172.105-.094-.054-.133.008-.149.031-.039-.015-.172-.011-.238.047-.086-.027-.144-.039-.234-.027.058-.012.047-.05-.032-.055Zm.761-.476c.055 0 .172.008.215 0l-.07.054c.137-.02.32-.03.375-.02-.07-.01-.137.04-.172.06q-.041.027.035.039c.047.007.106.039.023.03-.078-.007-.25-.01-.289-.007-.039.008-.062-.012 0-.023a.4.4 0 0 0 .122-.04.4.4 0 0 1-.168 0q-.054-.018-.012-.03c.035-.012.012-.016-.024-.012a.37.37 0 0 0-.168.082 1 1 0 0 1 .133-.13Zm0 0" style="stroke:none;fill-rule:nonzero;fill:#00d860;fill-opacity:1"/><path d="M19.055 13.566a.36.36 0 0 0 .265.118c.024 0 .078.035.012.039-.168.007-.25-.036-.324-.141-.016-.023.012-.055.047-.016m.996-1.41c.086.04.262.078.398.074.028 0 .07.024.012.028a.7.7 0 0 1-.422-.078c-.035-.02-.023-.04.012-.024" style="stroke:none;fill-rule:nonzero;fill:#000;fill-opacity:1"/><path d="M20.137 12.156c.136 0 .238 0 .273.035a1 1 0 0 1 .25-.027c.027.008.07-.012-.004-.027a1.1 1.1 0 0 0-.297-.012 1.3 1.3 0 0 1-.273.008q.029 0 .05.023m.524.051c.063-.031.246 0 .3-.023-.038.046.13.05.274.015-.054.031-.175.04-.226.063s-.078.004-.117-.012a.43.43 0 0 0-.23-.04Zm0 0" style="stroke:none;fill-rule:nonzero;fill:#00d860;fill-opacity:1"/><path d="M21.234 12.2c-.144.03-.312.03-.273-.016-.055.023-.234-.008-.3.023.07-.039.116-.004.163-.086.031.004.102.008.125-.023.04.011.117.027.137.05s.05-.007.027-.039c.067-.023.024.028.176-.011.035-.008.11-.024.137-.024a1 1 0 0 1-.196.125Zm0 0" style="stroke:none;fill-rule:nonzero;fill:#00d860;fill-opacity:1"/><path d="m471.6 291.118-.7-86.842c0-3.848-2-2.96-2 0v86.053Zm28.2-91.381 3.1 91.381-.4.79h-2l-1.9-92.171Zm26.6 77.368-1.6-74.309c0-2.368-2-1.974-2 .395l1.6 73.914Zm0 0" style="fill-rule:nonzero;fill:#ff0;fill-opacity:1;stroke-width:.4;stroke-linecap:butt;stroke-linejoin:miter;stroke:#000;stroke-opacity:1;stroke-miterlimit:4" transform="scale(.03906 .03958)"/><path d="m484.2 214.934-27.4-.395c-1.2 5.428 5.5 4.935 7.8 3.948 3.1 1.974 5.5 1.974 7 0 2.4 1.875 5.5 1.48 6.7 0 3.1 2.664 6.6 0 5.9-3.948Zm2 13.224h-27.5c-5 4.737 1.2 7.006 6.7 3.947.8 1.58 3.9 2.27 6.2 1.184 2.4 1.48 5.5.395 7-1.184 2.8 1.184 6.3 1.58 7.9-4.046Zm-.9 17.664h-26.6c-.3 4.244 5.1 3.85 7 2.665 2 3.256 6.7 2.368 8.3.395 2.7 1.973 5 1.579 6.2 0 2.8 2.467 5.5-.79 5.1-3.06Zm1.7 17.171-30.1-.394c-1.6 5.033 3.1 5.92 5 4.737.9 2.664 4.8 1.973 6 0 1.5 1.184 3.5.394 4.2-.79.4 2.665 4 3.06 6.7.79 5.5 3.848 10.5-.79 7.8-4.343Zm26.2-7.006h-24.6c1.1 4.638 3.5 5.724 7.4 3.06 3.1 3.157 7.8 1.973 9 .492 5.5 4.244 8.2-.888 8.2-4.046Zm-2.4-17.171-24.2-.79c.4 6.217 6.3 5.823 9.4 3.454 2 2.763 5.9 1.974 7.8 0 2.7 3.158 7.8 1.184 7-2.664Zm3.2-19.244h-26c0 4.342 5.8 6.612 10.1 2.764 1.2 5.032 5.9 3.453 7.9 1.578 3 3.85 9.7-.789 7.8-4.046Zm-1.6-12.927-23.5.493c0 3.849 5.5 5.428 7.5 2.27 1.2 1.974 5 1.579 6.2 0 1.6 2.763 4 .79 4.7 0 2.8 1.974 5.5.79 5.1-2.665Zm27 8.684-28.2-.395c0 2.665 2.8 3.948 4.7 2.665 0 3.158 4 4.046 6.7 1.579 1.5 2.763 6.6 3.158 8.6 0 3.9 3.552 8.6.79 7.8-3.948Zm-.4 22.993h-27.4c0 3.948 4.3 5.033 7 3.158.5 3.158 4 3.553 6 1.58 2.7 2.762 6.6 3.058 9 0 3 1.183 5.8-1.58 5.4-4.639Zm-1.6 20.823h-21.9c0 3.848 4.7 3.848 6.7 1.973 2.3 2.665 5.5 2.665 7.4.691 2.7 2.369 7.4 1.58 7.8-2.664Zm0 0" style="fill-rule:nonzero;fill:#fff;fill-opacity:1;stroke-width:.4;stroke-linecap:butt;stroke-linejoin:miter;stroke:#000;stroke-opacity:1;stroke-miterlimit:4" transform="scale(.03906 .03958)"/><path d="M502.5 292.007c-11.7 0-23.8 0-32-.889-8.2-.69-10.6-2.27-16.4-5.822L432 271.974c-1.9-.79-3.8.394-1.1 2.072l21.9 14.31c5 3.256 9.5 7.203 13.3 11.743 4.7 5.131 7.8 5.131 10.1 4.342 2.4-.79 5.5-2.073 9-1.184 3.2.79 7.8 1.184 10.2.79 2 1.973 7 1.578 9.8.789 2.6-.79 4.8-.889 6.6-.395h6.7c2 0 7-1.184 10.5-.79 4 .79 7.4 0 9.8 0 2.5-.592 5.2-.79 7.8-.394 2.4-1.58 3.1-3.553 4-5.428 2.3-.395 3-.79 3.4-2.072l2.4-6.119h.8v-2.467l-1.6-2.27.8-4.046 2-.69-.8-3.948-34.4.888c-1.2 1.184-2.1 2.665-2.4 4.342l-10.2 1.48c-1.1.395-2.3.395-3.5 1.974Zm0 0" style="fill-rule:nonzero;fill:#000;fill-opacity:1;stroke-width:.4;stroke-linecap:butt;stroke-linejoin:miter;stroke:#000;stroke-opacity:1;stroke-miterlimit:4" transform="scale(.03906 .03958)"/><path d="m543.6 276.71 5-19.243c.8-1.974-1.1-2.27-1.9 0l-5 19.244Zm0 0" style="fill-rule:nonzero;fill:#000;fill-opacity:1;stroke-width:.4;stroke-linecap:butt;stroke-linejoin:miter;stroke:#000;stroke-opacity:1;stroke-miterlimit:4" transform="scale(.03906 .03958)"/><path d="M563.5 255.197c-4.3 1.974-6.6 3.06-8.6 2.27s-4.3-1.184-5.8-.395v.395c-1.4 5.033-2.8 9.967-4.3 14.901 3 1.185 8.6 1.185 9.7 0 1.6-1.579 5.1-1.184 7-1.184 1.2-1.579 1.6-3.454 1.2-4.243-.4-.888 0-2.763 0-4.046 0-.987 1.6-5.428.8-7.698Zm0 0" style="fill-rule:nonzero;fill:#fff;fill-opacity:1;stroke-width:.4;stroke-linecap:butt;stroke-linejoin:miter;stroke:#000;stroke-opacity:1;stroke-miterlimit:4" transform="scale(.03906 .03958)"/><path d="M465 218.388c-7.6 19.737-18.1 38.29-31.3 54.77m7.8 4.737a211 211 0 0 0 44.6-49.342m-27.4 16.875c-1.1 10.559-4.3 29.309-5.8 39.079m10.1-15.593c-3.9 3.85-9 10.066-13.2 13.619m49.6-34.836c-3.1 3.158-6.6 7.007-10.2 7.895m12.2-7.006c2.9 3.256 6.5 5.822 10.5 7.4m-12.5-24.275c-3.4 2.96-7.4 5.328-11.7 6.71m13.3-6.414c2.3 2.27 5 5.032 8.6 6.71m-21.1-19.243c3.9-1.086 7.5-3.158 10.5-5.921m1.2 0c3 2.861 6.6 5.033 10.5 6.315m-21.5-12.927c3.7-.691 7-2.566 9.4-5.428m1.2-.79c2.7 2.37 7.8 5.428 10.6 5.922m12.5 3.059c-1.6 1.974-5.9 5.132-8.6 5.132m10.5-5.033c1.2 1.875 4.3 5.033 6.3 5.033m-18.8 23.486c4.2-1.579 8-4.144 11-7.5m2 .395c1.9 2.862 4.4 5.23 7.3 7.007m-16 20.329c1.6 0 5.9-2.369 7-4.935m2.4-1.282c2.1 2.664 4.8 4.934 7.8 6.71m-73.1 3.454c5-1.579 14.9-7.796 20-13.717m-9.4 7.401c3.9 2.862 9 6.02 12.5 6.71m-24.3-17.565c3.5-1.382 6.6-3.454 9.4-5.921m2-.395c1.1 1.58 9.3 6.71 12.9 6.71m-14.9-22.993c-3 2.27-6.3 4.046-9.8 5.33m11.8-5.428c2.7 1.973 8.6 5.427 12 5.427M469 207.04c-2.3 2.27-6.2 6.119-9.4 7.402m11.4-7.007c1.5 2.665 6.2 6.612 9.3 7.007m31.3 10.164c7.5 12.928 20.7 29.013 34 37.5m-55-52.006c10.9 15.592 32 49.737 52.3 62.17m4-13.223a70.4 70.4 0 0 1-19.2 17.96m17.5-13.717c-6.6-10.953-10.1-24.572-15.6-43.026m-54.7 48.553 7.8 23.388m-9.4-23.783 7.4 23.388m-9.3-24.572 7 24.177m-7.8-23.782 5.4 23.782m0-.69h6.7m-.8-2.467h-6.2m5.4-1.974h-6.2m5.4-1.875H474m5-2.27h-5m-.4-2.072h5m-5.4-1.58h5m-5.4-1.973h4.7m-5-1.48h4.2m-4.7-2.072h4m-4.4-1.48h4m-4.3-1.185h3.9m-4-1.48h3.6m-10.2 0-4.7 19.44m5.9-19.44-4 20.329m5.2-21.119-3.2 21.513m4.7-22.006-2.3 22.796m2.7-1.678h-7.8m7.8-1.973h-9m9-2.27h-8.2m7.8-1.974h-7.4m7.8-2.072h-7.4m7.4-2.27h-6.6m6.6-1.974h-6.6m6.2-1.875h-5.8m5.8-2.072h-5m5-1.875h-4.7m4.7-1.184h-4.3m4 21.612v-23.092m25.3-7.796L478 291.513m16.8-31.974-13.3 32.369m14.1-32.763L485 291.908m11.8-31.974-8.6 31.974m.4-1.086h-9.8m10.5-3.256H480m9.7-2.27h-7.8m9.4-2.368h-7.8m8.2-2.369h-7.4m8.2-2.368h-7m7.7-2.665H487m6.6-2.072h-5.8m6.6-2.27h-5.5m6-1.579h-5.2m5.5-1.48h-5.5m5.1-1.579h-3.9m4-1.283h-3.6m3.9-1.48H492m3.9-1.58h-3.1m3-1.183h-2.7m13.3-.395 6.7 22.007m-5.5-21.612 8.2 21.217m-7-21.217 9.8 20.822m2.3-2.072-11-19.145m11 19.54h-7.8m7-3.06h-7.8m6.7-2.368h-7.5m5.9-2.763h-6.7m5.1-2.369H510m4.3-2.664h-5.1m3.9-2.763h-4.7m3.1-2.369h-3.9m12.5.395-7 20.329m9-21.02-6.3 20.724m2.8-.395 4.7-19.638m1.1.79-3.9 18.453m-6.6-1.283h6.6m-5.8-2.27h6.6m-5.9-2.762h6.3m-5-2.369h5.8M517.4 270h5.5m-4.7-2.27h5m-3.9-2.862h4.7m-3.9-2.27h4m3.5.395 3 14.014m-1.9-14.803 4.3 14.507m-2.7-14.507 4.7 14.507m-2.8-13.718 5.1 13.718m-.4-1.185h-6.6m5.9-2.072h-6.3m5.5-1.875h-5.9m5-2.368h-5.8m4.7-1.974H528m4.7-1.974h-5m4.3-1.974h-4.7" style="fill:none;stroke-width:.4;stroke-linecap:butt;stroke-linejoin:miter;stroke:#000;stroke-opacity:1;stroke-miterlimit:4" transform="scale(.03906 .03958)"/><path d="M18.266 11.844a.44.44 0 0 1 .441.015c.129-.07.36-.05.465.047.164-.117.3-.133.457-.023a.405.405 0 0 1 .465.008c.144-.067.3-.121.437.023a.35.35 0 0 0-.441.027c-.137-.136-.38-.086-.461.012a.3.3 0 0 0-.227-.098.3.3 0 0 0-.222.106c-.145-.117-.356-.125-.47-.04a.5.5 0 0 0-.444-.077" style="stroke:none;fill-rule:nonzero;fill:#00b800;fill-opacity:1"/><path d="M20.434 11.668c-.63.113-2.008.039-2.305-.043-.106-.023-.078-.062.012-.04.347.08 1.09.08 1.496.056l.242-.336c.039-.051.055-.055.137-.067l.34-.058v.047c-.008.011-.016.023-.028.027 0 .078.016.281.035.355l.043-.011c.028-.008.055.066.028.07" style="stroke:none;fill-rule:nonzero;fill:#cf6200;fill-opacity:1"/><path d="M21.469 11.7h.086c.023 0 .062-.02.074-.06l.086-.25-.067-.097.036-.211.078-.035c.008-.012 0-.063-.016-.078l-1.234.039c-.04 0-.055 0-.067.05-.07.344.051.696.313.919.02.015.047 0 .012-.028a1 1 0 0 1-.168-.226h.203c.015.07.066.207.078.234.008.027.031.027.015-.012-.023-.078-.039-.175-.05-.226h.207l.015.207c0 .027.024.027.024-.004v-.207l.187-.008-.015.207c-.004.035.011.047.02 0l.026-.207.13-.008c0 .051-.044.176-.055.207-.012.04.008.04.02.004q.04-.1.062-.207Zm0 0" style="stroke:none;fill-rule:nonzero;fill:#cf6200;fill-opacity:1"/><path d="M20.566 11.668a1 1 0 0 1-.093-.316h.273c.008.085.031.27.047.312Zm.227-.324c.004.07.039.297.047.316h.219l-.016-.32Zm-.309-.278a2 2 0 0 0-.007.239l.261-.012-.023-.234Zm.286-.007.015.238.258-.008-.012-.238Zm.312-.012.008.238.223-.004c0-.05.011-.207.007-.242Zm.281-.008-.008.238.243-.007a2 2 0 0 0 .035-.239Zm.246.285-.257.008-.024.316.246-.007.09-.239c-.02-.039-.035-.05-.055-.078m-.52.016.009.316.187-.008.024-.316Zm-1.054-.063-.101.016-.247.348.364-.008Zm.047-.011.016.363.218-.016-.039-.379Zm0 0" style="stroke:none;fill-rule:nonzero;fill:#000;fill-opacity:1"/><path d="M486.9 262.993h-30.1v-.79l30 .396Zm23.5-24.177q.45 0 0 0l-23.5-.395q-.6 0 0 0h23.5Zm-25 6.612c.3 0 .3.394 0 .394h-26.7c-.3 0 0-.394 0-.394Zm.7-17.27c.4 0 .4.395 0 .395h-27.7c-.4 0-.4-.395 0-.395Zm-2-13.619c.4.1.4.198 0 .395h-27c-.3 0 0-.79 0-.79l27.4.395Zm0 0" style="fill-rule:nonzero;fill:#000;fill-opacity:1;stroke-width:.4;stroke-linecap:butt;stroke-linejoin:miter;stroke:#000;stroke-opacity:1;stroke-miterlimit:4" transform="scale(.03906 .03958)"/><path d="m512.3 206.743-23.5.395Zm0 0" style="fill-rule:nonzero;fill:#fff;fill-opacity:1;stroke-width:.4;stroke-linecap:butt;stroke-linejoin:miter;stroke:#000;stroke-opacity:1;stroke-miterlimit:4" transform="scale(.03906 .03958)"/><path d="M513.5 219.967q.6 0 0 0H488q-.6 0 0 0Zm25.4 18.06v.394h-27.4q-1.2 0 0 0H539Zm0-23.093c.8 0 .8.395 0 .395H511c-.4 0-.4-.395 0-.395h28.2ZM513 255.592c.4 0 .4.395 0 .395h-25v-.395Zm24.2 3.553q.6 0 0 0h-21.9Zm0 0" style="fill-rule:nonzero;fill:#000;fill-opacity:1;stroke-width:.4;stroke-linecap:butt;stroke-linejoin:miter;stroke:#000;stroke-opacity:1;stroke-miterlimit:4" transform="scale(.03906 .03958)"/><path d="M557.3 262.993c.4-1.776.4-3.65 0-5.526q-1.2.444-2.4 0l-1.2-.79c-.1 2.566-.6 5.132-1.5 7.5-1.2 0-4 0-5.1-.789l-1.2 3.948c1.9.394 4 .394 5.9 0 .1 2.27-.5 4.243-1.6 5.822 2 0 4 0 4.3-1.184 1.2-1.58 1.2-3.948 1.6-5.033l2-.395 1.9-.888 2.7-.395v-2.27l.8-1.579-6.2 1.974Zm0 0" style="fill-rule:nonzero;fill:#ef072d;fill-opacity:1;stroke-width:.4;stroke-linecap:butt;stroke-linejoin:miter;stroke:#000;stroke-opacity:1;stroke-miterlimit:4" transform="scale(.03906 .03958)"/><path d="M460.3 130.757c-3.1 0-10.2 0-11.7.888-1.2.79-1.6 1.184.8 1.579 2.3.394 6.6 1.973 9 3.059 2.3 1.579 3.9 4.046 3.9 7.796-1.8 9.868 2.9 19.835 11.7 24.77.4.394.8.69.4 2.27l-1.2 4.243c0 .79-.4 1.677.8 1.283l-4 6.118c-6.2-.69-11.6 0-11.6 7.007 0 .888 0 1.677.7 0 1.2-1.48 2.4-2.96 5.1-3.75-1.6 2.664-2.3 4.934-2 6.612 0 1.184.8 1.973 1.6 0 .4-1.678 2-3.158 3.2-4.343.7-.394.7-.394.3.79-.2 1.579.3 3.06 1.2 4.342.9.69 1.1.493.8-.79 0-1.677 0-4.342 2-5.032 2.3-1.58 4.6-.888 5.4.69 1.2 1.974 2 0 .8-1.578-1.2-1.48-2.3-3.553-3.9-3.553l4-6.513q.15-1.332 1.5-.888c0 .394.8.394 1.1-.79l2.8-5.428 2.3-.69 4 5.723v2.467c0 1.48-1.6 4.935-2 6.119-4.7 0-7 0-8.6 2.862-.8 1.085.4 1.48 1.5 1.085 1.2-.69 2.6-1.085 4-1.085.7 0 1.1.69 0 1.085-2.8 1.184-4.7 3.158-4.7 5.921 0 .79.7 1.185 1.1 0 1.1-1.973 3-3.355 5.1-4.046 0 1.974.4 5.23 2 6.02 1.1.69 1.1 0 .8-1.184-.8-1.974 0-4.046 1.1-5.132 2-2.27 6.7.79 7.9 1.58.7.69 1.5 1.183.7-1.185-.4-2.665-4.3-3.947-7.8-4.638l4.7-16.48c2 1.282 4-1.974 7-.79 5.3 2.368 10.2 5.23 14.9 8.586 1.6 1.282 2 .888 2.7 0 .8-.395 2 0 3.2 0 .7.394 1.5.888.4-1.58-2.2-4.045-5.5-7.5-9.4-10.065 3.1 0 7 0 7-.79s-4.7-2.467-6.6-2.467c2.3-.394 4.4-1.381 6.2-2.96.9-.888-.1-1.283-3.1-1.283-8.2 0-12.5 0-16.8-2.27-7-4.046-11.4-8.684-14.9-10.263-1.5-1.086-2.7-3.454-3.9-5.428-2-5.92-2-8.98-7-10.954-5-1.973-11.8.395-14.5 3.06Zm0 0" style="fill-rule:nonzero;fill:#000;fill-opacity:1;stroke-width:.4;stroke-linecap:butt;stroke-linejoin:miter;stroke:#000;stroke-opacity:1;stroke-miterlimit:4" transform="scale(.03906 .03958)"/><path d="M460.7 132.434h-6.6s-.8 0 0 0l5.8 1.58c1.2 0 .8 1.085 0 .69-.8-.296-1.5 0-.8.79 4 2.763 4.7 4.045 4 14.506l1.9 1.579c.8 0 .4.69 0 .296-.4-.395-2 0-.8.79 1.2.789 2 .789.8.789s-2.3.888 0 .493c2 0 3.1.79 0 1.185-2.3 0-1.6.79 0 .79 2.7 0 2 .69 1.2.69s-1.2.79.8.79h2.7c.4 0 .8 0 0 .394-.8 0-.8.79.4.79s2 0 .8.394c-.4 0-1.2.395 0 .79 2.7 0 3 .69 2.3 1.085-.7.494-1.2.494 0 .494s2.4.394 1.2.79c-.8 0-1.2.789 0 .789s2 .79 1.2 1.184c-.8.395-1.2.79 0 .79s1.4.197.7.69c-.6.79-1.3.79-2 0 0-.69-.7-.69-.7 0l-.8-1.085c-.4-1.185-1.2-1.185-1.2 0 0 1.184-.7.394-1.5 0 3.9 4.44 10.3 5.625 15.6 2.96.4 0 .8 0 1.2 1.382l2.3 4.243c.4.69 1.2 0 1.2-.79l2.4-6.71c0-1.085 1.5-1.974 1.1 1.184 1.2-.79 5.9-1.184 9.8 0 3.8 1.58 7.3 3.553 10.6 5.921.5.494 1.3.691 2 .395 1 0 1.5 0-.5-1.974s-1.1-2.763 0-1.973c1.1.69 2 .394.8-.79l-3.9-3.454c-.4 0-.4-.79-2.3-.79h-6c-.7 0-1.5 0 .9.79 2.3.691 6.6 3.948 7.8 4.638 1.2.79 1.6 2.369-.4.79-4.5-2.96-9.1-5.625-14-7.796-10.6 1.184-19.2 2.368-25.5-4.342-3.1-3.454-3.1-10.954 2-14.013-.7-.987-.9-1.48-.4-1.58v-2.368c-.9-.493-1.5-1.184-1.6-2.072-1.2 0-2-1.875-3.9-1.086-2 .79-2.3 0-3.1-.394-.4-.79-.8-.79-2-.79s-2 0-2-.79q0-1.035 2.4 0c2.7 1.185 5 1.974 7-.69 1.6-2.369-.7-4.342-3.9-5.132-3.5-.79-5.8 2.073-7.4 3.158Zm0 0" style="fill-rule:nonzero;fill:#fff;fill-opacity:1;stroke-width:.4;stroke-linecap:butt;stroke-linejoin:miter;stroke:#000;stroke-opacity:1;stroke-miterlimit:4" transform="scale(.03906 .03958)"/><path d="M477.9 131.151c-1.2-.987-2.5-1.776-4-2.27-1 0-1 .79-.7 1.185v2.368c.8.395 1.2 1.184 0 1.184-.8.79 0 3.454 1.2 2.665h.8s0 1.184.7 1.184c.8 0 0 .79 0 1.184h.8c.8 0 .4 1.58-.4 2.073 1.1-.198 1.7.098 1.6.69.4.79 1.6 1.185 1.6 2.27 0 1.184 0 1.184-1.6.79-1.6-.395-1.6 0-2 .79-.4.789-.7 1.282 0 1.282.8 0 1.6.395.4.79-1.1.296-2.3 0-2.7 1.085 0 1.184 0 1.579.8 1.184l2.7-1.579 2 .395c.8.395 0 1.974-.8 1.184s-1.6 0-2 .395l-2 .79c-.7 0-1.5 0-1 1.973 0 5.428 4.2 9.375 12 9.375h13c-2.3-1.677-4.1-2.368-5.2-2.368H492c.4-.395 0-1.184-.4-1.184s-1.2-.79-2 0l-3.9 1.973c-.8 0-2 0-.8-.79l3.6-1.578c.7 0 .3-.79.3-.79s0-1.184 1.2-.79c2.4 1.58 5.9 3.553 7 3.553 1.2 0 1.6-.789.8-1.184-.7-.394-1.1-1.184-1.1-1.579 0-.394.4-.79 2 0 1.5 1.185 3.8 1.974 5 2.369 1.2.394 2 .394 0-.79l-9-6.71c-1.2-1.086-1.2 0-.8.79.4.887-1.1 1.282-2 .394-.7-.79-1.1-1.184 0-1.579 1.2-.296.9-.69-.3-1.974-1.5-.987-2.1-.987-1.6 0 .5 1.283.3 1.875-.8 1.678-1.1-.395-2.3-1.184-1.1-1.579.7-.79 2-1.184 0-2.368-2-1.185-.8 0-1.2.79-.4.789-1.6.789-2 0-.4-.79-1.1-1.086-.7-1.481.3-.395.3-.888 1.1 0 .8.69 1.6 0 .4-1.283-1.2-1.184-1.5-.79-1.2 0 .3.888-.7 1.678-2.3 0-.8-.395-.8-1.184 0-1.58.8 0 .8-.394 0-1.085-2.7-4.736-1.6-8.29-4.7-11.842Zm0 0" style="fill-rule:nonzero;fill:#fff;fill-opacity:1;stroke-width:.4;stroke-linecap:butt;stroke-linejoin:miter;stroke:#000;stroke-opacity:1;stroke-miterlimit:4" transform="scale(.03906 .03958)"/><path d="M18.672 5.227c-.008.015-.012.011-.031.027-.02.016-.028.059.011.055a.1.1 0 0 0 .055-.032Zm-.117-.106q-.053.047-.024.047.024-.006 0 .023c-.015.024.024.036.04.016q.022-.03.027 0c.004.02.039 0 .05-.016q-.045-.034-.097-.07Zm-.059.176c-.039.02-.027.125.035.094q.03-.006.035.011v.028a.3.3 0 0 0 .067-.047c.035-.047 0-.04-.055-.04s-.066-.011-.015-.042c.05-.031.011-.047-.051-.04q.013.013-.016.036m.23.238c-.03-.035-.011-.05.02-.07l.016-.012-.028-.101a.2.2 0 0 0-.039.058c-.004.031-.02.043-.039.04-.027-.013-.05.015-.054.046h.02q.011.011.007.04c.074 0 .086.042.098.077q.022.053.039.012.012-.042-.04-.09" style="stroke:none;fill-rule:nonzero;fill:#cf6200;fill-opacity:1"/><path d="M18.746 5.953c-.016.031-.016.027-.058.027-.04.004-.094.012-.118.036-.011.011-.086.02-.086.05-.004.04.004.059.032.067q.045-.002.027.031c-.016.024-.023.059.031.066.055 0 .098-.011.11.016.015.04 0 .082.011.106.012.015.047.035.106.05.039.008.187.02.234.012.04-.008.024-.035-.02-.035q-.07 0-.09-.047c-.01-.035-.019-.05.009-.078.023-.031.046-.05.03-.098-.015-.047-.038-.101-.089-.117s-.035-.09-.09-.094a.1.1 0 0 0-.039.008" style="stroke:none;fill-rule:nonzero;fill:#ff0;fill-opacity:1"/><path d="M18.488 6.39c.047.008.082.02.047.032s-.058.031-.012.035c.047.004.09.023.051.031s-.039.04.004.04.067.015.035.038c-.035.016-.054.028-.078-.003q-.03-.052-.035-.02-.006.03-.035-.027c-.012-.032-.047-.047-.04-.02.012.027-.023.035-.058.02q.047.058.113.093c.047-.015.102 0 .118 0 .023 0 .082.016.117.036s.058-.016.043-.051-.016-.028-.031 0q-.03.016-.024-.055c0-.031-.023-.027-.027-.004-.008.02-.028-.015-.02-.035q.013-.035-.015-.023-.024.015-.024-.04c-.004-.042-.02-.039-.023-.019-.004.008-.024-.004-.051-.043-.02-.023-.04-.008-.082.004Zm0 0" style="stroke:none;fill-rule:nonzero;fill:#cf6200;fill-opacity:1"/><path d="M18.969 6.64c-.215.09-.371.051-.489-.03.047-.016.102 0 .122 0s.082.015.113.035.058-.016.043-.051q.04.064.086.058Zm-.461-1.019q-.02-.064-.051-.05-.029-.002-.062-.016c-.024-.012-.06 0-.063.05s-.039.07-.078.102a.12.12 0 0 0-.059.106c0 .046-.011.054-.039.093l-.043.051.047.027c.031.016.02.036-.008.028-.027-.008-.058.008-.007.015.046.012.066.04.023.04-.05-.012-.102.035-.012.023s.121.035.02.035c-.106 0-.067.035-.008.035.098 0 .066.027.039.027s-.035.04.031.028l.024-.04c.011-.03.02-.124.058-.152a.12.12 0 0 0 .055-.09c0-.023.059-.148.09-.175.039-.028.055-.09.039-.133Zm0 0" style="stroke:none;fill-rule:nonzero;fill:#ff0;fill-opacity:1"/><path d="M18.43 5.629c-.035-.027-.075-.008-.075.039-.003.039-.02.062-.054.078a.17.17 0 0 0-.07.094c0 .039.007.058-.016.09q-.04.04-.016.07c.024.016.024.016.028.04.011.022.054 0 .054-.028s.012-.028.04-.043c.03-.016.077-.094.066-.114-.008-.02-.04-.039 0-.07.039-.031.07-.039.07-.062q.001-.038.02-.051c.011-.012-.024-.027-.047-.04Zm0 0" style="stroke:none;fill-rule:nonzero;fill:#cf6200;fill-opacity:1"/><path d="M18.43 5.59c-.024-.008-.04.043-.004.05.035.008.039-.035 0-.046Zm-.004.066c-.028.004-.059.04-.016.04.047-.008.063-.04.012-.04Zm-.055.067c-.027.011-.02.05.02.023.039-.027.047-.059-.02-.023m-.039.054c-.027.016-.027.055.016.028.039-.028.05-.063-.016-.028" style="stroke:none;fill-rule:nonzero;fill:#000;fill-opacity:1"/><path d="M18.277 5.809c-.027.011-.011.046.028.023s.039-.062-.028-.023m.032.035c-.032.011-.012.047.027.023.039-.023.039-.058-.031-.023Zm0 0" style="stroke:none;fill-rule:nonzero;fill:#000;fill-opacity:1"/><path d="M18.258 5.855c-.024.016-.008.047.035.024.039-.024.035-.059-.035-.024m.035.04c-.031.011-.016.046.027.023.04-.027.04-.059-.03-.023Zm0 0" style="stroke:none;fill-rule:nonzero;fill:#000;fill-opacity:1"/><path d="M18.242 5.918c-.023.012-.008.047.035.023.04-.023.032-.058-.03-.023Zm0 0" style="stroke:none;fill-rule:nonzero;fill:#000;fill-opacity:1"/><path d="M18.242 5.95c-.02.015-.004.054.04.027.038-.028.03-.059-.04-.028" style="stroke:none;fill-rule:nonzero;fill:#000;fill-opacity:1"/><path d="M18.227 6.29c-.028 0-.047.042-.012.05q.048.012.043.035c0 .027.012.07.047.07.039 0 .07-.039.039-.05q-.06-.012-.067-.06c0-.026-.03-.046-.05-.046" style="stroke:none;fill-rule:nonzero;fill:#cf6200;fill-opacity:1"/><path d="m19.2 6.055.019.023c.027.024.078 0 .066-.02-.004-.015-.031-.078.04-.03l.359.257c.074.055.023.063-.008.043l-.196-.09c-.058-.035-.066-.02-.078-.011q-.006.024.024.054c-.035.004-.09 0-.11-.039-.02-.047-.066-.101-.101-.144q-.018-.029-.012-.04Zm0 0" style="stroke:none;fill-rule:nonzero;fill:#ff0;fill-opacity:1"/><path d="M21.172 12.648c-.05.036-.117.094-.074.176l.015-.004q.288-.351.504-.75v-.023a.8.8 0 0 1-.176.105c.024.067-.09.149-.144.176.023.04.015.102-.04.113.013.032-.027.032-.077.055q-.064.024-.082.059c.023-.016.062-.028.078-.02.015.008.023.035-.012.043a.3.3 0 0 0-.07.043c.05-.016.125-.012.078.027" style="stroke:none;fill-rule:nonzero;fill:#00d860;fill-opacity:1"/><path d="M481.8 151.184c-1.6-1.184-2-.395-1.6 0s0 1.48-1.1 1.974h-4c-.7 0-1.9 1.579 0 1.085l6.3-1.085c.8 0 1.6-.888 0-1.974Zm2.7 2.27c-1.1-1.184-1.5-.79-1.1 0 .4.888-.4 1.283-1.2 1.283l-5.5 1.48c-1.5 0-1.5 1.184.4 1.184 2 0 5.9-1.973 6.3-1.973s.8-1.086 1.1-.691 1.2 0 0-1.283Zm1.2 3.158-3.9 1.974c-1.2 0-2 1.184 0 1.184s4-1.974 4.7-2.369l1.6-.79s1.5-.394 0-1.48c-1.6-1.184-3.2 0-2.4.395s0 1.086 0 1.086Zm0 0" style="fill-rule:nonzero;fill:#000;fill-opacity:1;stroke-width:.4;stroke-linecap:butt;stroke-linejoin:miter;stroke:#000;stroke-opacity:1;stroke-miterlimit:4" transform="scale(.03906 .03958)"/><path d="M18.348 5.191c-.098-.066-.203.07-.098.145.094.066.195-.078.102-.145Zm0 0" style="stroke:none;fill-rule:nonzero;fill:#000;fill-opacity:1"/><path d="M18.227 5.254h.027c0 .031.027.078.07.066-.035.028-.101-.008-.097-.066m.375 1.465c.03.011.132.02.171.02l-.046.085c-.012.031-.016.028-.02-.011 0-.04-.023-.067-.043-.024l-.039.078c-.012.016-.027.02-.023-.023a1 1 0 0 0 0-.125" style="stroke:none;fill-rule:nonzero;fill:#fff;fill-opacity:1"/><path d="M574.5 199.737c0 63.651-10.2 132.434-93 165.296-82.6-32.862-92.7-101.645-93.1-165.296Zm0 0c0-24.375-1.2-47.862-.8-67.994-29.4-11.447-60.7-17.17-92.3-16.973-20.7 0-61.4 3.158-92.2 16.875.7 20.23-.8 43.717-.8 67.993Zm0 0" style="fill:none;stroke-width:1.2;stroke-linecap:butt;stroke-linejoin:miter;stroke:#000;stroke-opacity:1;stroke-miterlimit:4" transform="scale(.03906 .03958)"/><path d="M0 0h12.5v9.5H0Zm0 0" style="stroke:none;fill-rule:nonzero;fill:#012169;fill-opacity:1"/><path d="M1.465 0 6.23 3.582 10.977 0H12.5v1.227L7.813 4.77 12.5 8.293V9.5h-1.562L6.25 5.957 1.582 9.5H0V8.313l4.668-3.524L0 1.266V0Zm0 0" style="stroke:none;fill-rule:nonzero;fill:#fff;fill-opacity:1"/><path d="M8.281 5.563 12.5 8.707V9.5L7.207 5.563Zm-3.594.394.118.691L1.055 9.5H0ZM12.5 0v.059L7.637 3.78l.039-.87L11.523 0ZM0 0l4.668 3.484H3.496L0 .832Zm0 0" style="stroke:none;fill-rule:nonzero;fill:#c8102e;fill-opacity:1"/><path d="M4.707 0v9.5h3.125V0ZM0 3.168v3.164h12.5V3.168Zm0 0" style="stroke:none;fill-rule:nonzero;fill:#fff;fill-opacity:1"/><path d="M0 3.82V5.72h12.5V3.82ZM5.332 0v9.5h1.875V0Zm0 0" style="stroke:none;fill-rule:nonzero;fill:#c8102e;fill-opacity:1"/></svg>