<?xml version="1.0" encoding="UTF-8"?>
<svg xmlns="http://www.w3.org/2000/svg" xmlns:xlink="http://www.w3.org/1999/xlink" width="25px" height="px" viewBox="0 0 25 19" version="1.1">
<g id="surface1">
<rect x="0" y="0" width="25" height="19" style="fill:rgb(0%,0%,40.000001%);fill-opacity:1;stroke:none;"/>
<path style="fill-rule:nonzero;fill:rgb(56.078434%,77.254903%,100%);fill-opacity:1;stroke-width:4.3;stroke-linecap:butt;stroke-linejoin:miter;stroke:rgb(100%,100%,100%);stroke-opacity:1;stroke-miterlimit:4;" d="M 574.5 199.736842 C 574.5 263.388158 564.3 332.171053 481.5 365.032895 C 398.9 332.171053 388.8 263.388158 388.4 199.736842 Z M 574.5 199.736842 " transform="matrix(0.0390625,0,0,0.0395833,0,0)"/>
<path style="fill-rule:nonzero;fill:rgb(21.176471%,42.352942%,78.823531%);fill-opacity:1;stroke-width:4.3;stroke-linecap:butt;stroke-linejoin:miter;stroke:rgb(0%,0%,0%);stroke-opacity:1;stroke-miterlimit:4;" d="M 481.4 364.736842 C 512.9 353.684211 539.1 331.282895 555 301.973684 L 547.2 301.973684 C 544.9 301.578947 467.8 294.177632 458.5 290.328947 C 450.6 287.467105 420.1 292.993421 406.1 298.125 C 421.6 329.309211 448.6 353.190789 481.5 364.638158 Z M 481.4 364.736842 " transform="matrix(0.0390625,0,0,0.0395833,0,0)"/>
<path style="fill-rule:nonzero;fill:rgb(36.470589%,19.215687%,0%);fill-opacity:1;stroke-width:0.4;stroke-linecap:butt;stroke-linejoin:miter;stroke:rgb(0%,0%,0%);stroke-opacity:1;stroke-miterlimit:4;" d="M 423.6 325.559211 L 428.3 325.559211 C 429.4 325.559211 429.4 325.559211 429.8 324.375 C 430.2 323.190789 431.4 323.585526 432.2 323.980263 C 433 324.375 434.5 323.980263 435.2 323.190789 C 436.1 322.401316 436.1 322.401316 436.9 323.190789 C 437.7 323.980263 438 323.585526 438.9 323.190789 C 439.2 323.190789 440.8 322.401316 441.2 321.217105 C 441.6 320.032895 442.7 319.736842 443.2 320.526316 C 443.5 321.118421 444.2 321.414474 445.1 321.315789 C 445.7 321.217105 445.9 321.710526 445.8 322.796053 C 445.8 323.585526 445.8 323.980263 447.8 322.401316 C 449.4 323.980263 449.8 323.190789 449.8 321.611842 C 449.8 320.131579 449.8 313.815789 449 313.421053 C 448.2 313.026316 447.8 310.263158 447.4 308.388158 C 447.4 304.440789 447.4 304.440789 443.5 302.368421 C 443.5 301.381579 442.7 300.888158 439.5 300.888158 C 440 300.493421 439.5 299.407895 438.8 298.914474 C 438 298.618421 438 298.223684 438.8 296.644737 C 439.6 296.644737 441.2 296.644737 441.5 295.361842 C 442.3 294.671053 444.7 294.671053 446.2 295.361842 C 447.8 296.151316 449.4 296.151316 452.1 295.361842 L 456.8 293.092105 C 458.8 291.907895 459.1 291.513158 459.1 290.032895 C 459.1 285.986842 458 282.236842 457.1 280.164474 C 456.1 278.190789 456.1 276.217105 454.4 272.763158 C 452.9 269.605263 452.9 268.815789 451.4 266.940789 C 450.5 266.052632 450.1 265.657895 450.1 264.572368 C 450 263.092105 449.3 261.611842 448.1 260.625 C 445.1 257.861842 444.3 248.881579 442.7 242.269737 C 441.9 238.322368 442.7 229.342105 441.2 227.763158 C 438.4 225.789474 437.2 226.184211 435.2 225.493421 C 433.7 223.519737 433.3 219.967105 431.8 216.513158 C 429.8 216.907895 428.6 218.782895 427.5 219.473684 C 426.3 220.361842 425.9 220.361842 425.9 222.335526 C 425.9 223.914474 424.7 226.282895 423.2 229.342105 C 421.6 232.5 418.1 231.315789 415.3 235.559211 C 409.9 229.046053 409.9 226.973684 409.5 225.098684 C 409.5 223.125 408.3 222.730263 405.2 219.967105 L 405.2 214.046053 C 402.4 211.973684 400.9 212.467105 399.7 214.046053 C 398.5 215.230263 397.7 217.105263 395.8 217.993421 C 395 219.473684 391.8 222.631579 389.5 226.973684 C 391.9 262.105263 399.7 297.335526 423.5 325.460526 Z M 423.6 325.559211 " transform="matrix(0.0390625,0,0,0.0395833,0,0)"/>
<path style="fill-rule:nonzero;fill:rgb(100%,100%,0%);fill-opacity:1;stroke-width:4.3;stroke-linecap:butt;stroke-linejoin:miter;stroke:rgb(100%,100%,100%);stroke-opacity:1;stroke-miterlimit:4;" d="M 574.5 199.736842 C 574.5 175.361842 573.3 151.875 573.7 131.743421 C 544.3 120.296053 513 114.572368 481.4 114.769737 C 460.7 114.769737 420 117.927632 389.2 131.644737 C 389.9 151.875 388.4 175.361842 388.4 199.638158 Z M 574.5 199.736842 " transform="matrix(0.0390625,0,0,0.0395833,0,0)"/>
<path style=" stroke:none;fill-rule:nonzero;fill:rgb(81.176472%,38.431373%,0%);fill-opacity:1;" d="M 15.371094 9 C 15.410156 9.066406 15.484375 9.171875 15.488281 9.238281 C 15.519531 9.175781 15.542969 9.152344 15.546875 9.117188 C 15.546875 9.078125 15.597656 9.007812 15.578125 8.96875 C 15.558594 8.929688 15.550781 8.902344 15.59375 8.929688 C 15.636719 8.957031 15.628906 9.007812 15.621094 9.082031 C 15.59375 9.277344 15.515625 9.316406 15.503906 9.449219 C 15.617188 9.726562 15.53125 9.828125 15.660156 10.105469 C 15.679688 10.113281 15.730469 10.09375 15.746094 10.097656 C 15.816406 10.050781 15.863281 10.0625 15.960938 10.085938 C 16.054688 10.105469 16.105469 10.171875 16.105469 10.234375 C 16.105469 10.300781 16.105469 10.3125 16.128906 10.347656 C 16.152344 10.382812 16.183594 10.4375 16.179688 10.480469 C 16.171875 10.519531 16.179688 10.546875 16.199219 10.5625 C 16.210938 10.582031 16.191406 10.632812 16.183594 10.65625 C 16.167969 10.683594 16.179688 10.722656 16.222656 10.78125 C 16.269531 10.84375 16.378906 11.09375 16.378906 11.242188 C 16.378906 11.394531 16.390625 11.464844 16.449219 11.492188 C 16.507812 11.519531 16.527344 11.542969 16.519531 11.605469 C 16.511719 11.667969 16.546875 12 16.554688 12.058594 C 16.558594 12.109375 16.582031 12.097656 16.609375 12.125 C 16.636719 12.152344 16.648438 12.183594 16.726562 12.183594 C 16.8125 12.179688 16.878906 12.179688 16.929688 12.183594 C 17.007812 12.28125 17.046875 12.421875 17.066406 12.503906 C 17.085938 12.589844 17.082031 12.703125 17.105469 12.703125 C 17.136719 12.703125 17.164062 12.703125 17.15625 12.601562 C 17.148438 12.5 17.140625 12.484375 17.105469 12.429688 C 17.0625 12.382812 17.050781 12.347656 17.066406 12.324219 C 17.085938 12.289062 17.089844 12.246094 17.085938 12.199219 C 17.078125 12.160156 17.0625 12.097656 17.132812 12.175781 L 17.238281 12.304688 C 17.257812 12.332031 17.265625 12.386719 17.261719 12.4375 C 17.253906 12.488281 17.265625 12.503906 17.296875 12.476562 C 17.324219 12.453125 17.355469 12.496094 17.335938 12.546875 C 17.324219 12.597656 17.34375 12.632812 17.394531 12.652344 C 17.4375 12.660156 17.464844 12.683594 17.472656 12.714844 C 17.484375 12.746094 17.523438 12.765625 17.523438 12.691406 C 17.519531 12.597656 17.503906 12.507812 17.476562 12.417969 C 17.457031 12.371094 17.441406 12.265625 17.4375 12.203125 C 17.429688 12.144531 17.421875 12.128906 17.394531 12.121094 C 17.363281 12.105469 17.34375 12.082031 17.335938 12.058594 C 17.335938 12.03125 17.308594 12.015625 17.292969 12.015625 C 17.273438 12.015625 17.257812 12.007812 17.246094 11.984375 C 17.238281 11.964844 17.226562 11.957031 17.207031 11.960938 C 17.1875 11.957031 17.15625 11.96875 17.144531 11.9375 C 17.136719 11.90625 17.121094 11.859375 17.101562 11.835938 C 17.082031 11.8125 17.066406 11.800781 17.0625 11.707031 C 17.058594 11.617188 17.0625 11.605469 17.03125 11.574219 C 17 11.542969 16.953125 11.457031 16.933594 11.421875 C 16.917969 11.382812 16.894531 11.347656 16.894531 11.421875 C 16.894531 11.503906 16.894531 11.542969 16.945312 11.570312 C 16.992188 11.597656 17.003906 11.597656 16.984375 11.640625 C 16.960938 11.679688 16.984375 11.707031 16.992188 11.738281 C 17 11.765625 17.015625 11.792969 16.992188 11.816406 C 16.964844 11.847656 16.953125 11.839844 16.949219 11.796875 C 16.949219 11.75 16.9375 11.703125 16.914062 11.664062 C 16.898438 11.625 16.878906 11.601562 16.855469 11.625 C 16.832031 11.640625 16.8125 11.617188 16.828125 11.601562 C 16.84375 11.585938 16.84375 11.574219 16.828125 11.5625 C 16.816406 11.554688 16.816406 11.539062 16.832031 11.515625 C 16.855469 11.480469 16.851562 11.480469 16.839844 11.421875 C 16.828125 11.367188 16.742188 11.082031 16.703125 11.019531 C 16.664062 10.953125 16.667969 10.910156 16.714844 10.96875 C 16.765625 11.03125 16.8125 11.085938 16.820312 11.144531 C 16.820312 11.195312 16.828125 11.230469 16.847656 11.246094 C 16.863281 11.269531 16.875 11.257812 16.886719 11.214844 C 16.886719 11.171875 16.925781 11.1875 16.871094 11.101562 C 16.8125 11.019531 16.710938 10.878906 16.667969 10.621094 C 16.628906 10.367188 16.613281 10.203125 16.574219 10.136719 C 16.535156 10.066406 16.523438 10.050781 16.519531 9.988281 C 16.515625 9.921875 16.519531 9.855469 16.492188 9.808594 C 16.464844 9.761719 16.445312 9.753906 16.441406 9.824219 C 16.4375 9.894531 16.441406 10.0625 16.464844 10.085938 C 16.488281 10.113281 16.472656 10.1875 16.464844 10.222656 C 16.457031 10.265625 16.398438 10.308594 16.53125 10.386719 C 16.582031 10.421875 16.570312 10.464844 16.570312 10.488281 C 16.5625 10.519531 16.546875 10.515625 16.523438 10.472656 C 16.503906 10.433594 16.476562 10.398438 16.441406 10.371094 C 16.414062 10.351562 16.40625 10.332031 16.414062 10.273438 C 16.425781 10.210938 16.425781 10.171875 16.414062 10.152344 C 16.402344 10.136719 16.390625 10.148438 16.378906 10.183594 C 16.371094 10.214844 16.367188 10.304688 16.34375 10.328125 C 16.324219 10.351562 16.324219 10.335938 16.3125 10.285156 C 16.300781 10.226562 16.3125 10.152344 16.34375 10.058594 C 16.371094 9.972656 16.390625 9.867188 16.367188 9.75 C 16.34375 9.628906 16.351562 9.589844 16.265625 9.492188 C 16.171875 9.390625 16.066406 9.292969 16.027344 9.171875 C 15.980469 9.042969 15.972656 8.933594 15.921875 8.878906 C 15.878906 8.820312 15.824219 8.773438 15.765625 8.730469 L 15.765625 8.546875 C 15.765625 8.5 15.742188 8.476562 15.695312 8.484375 C 15.644531 8.492188 15.605469 8.53125 15.578125 8.59375 C 15.546875 8.65625 15.523438 8.628906 15.476562 8.730469 C 15.429688 8.835938 15.375 8.890625 15.375 9 Z M 15.371094 9 "/>
<path style=" stroke:none;fill-rule:nonzero;fill:rgb(81.176472%,38.431373%,0%);fill-opacity:1;" d="M 15.65625 10.175781 C 15.695312 10.199219 15.722656 10.210938 15.773438 10.1875 C 15.816406 10.164062 15.871094 10.09375 15.941406 10.164062 C 16 10.242188 16.035156 10.332031 16.035156 10.429688 C 16.035156 10.519531 16.035156 10.6875 16.136719 10.777344 C 16.238281 10.867188 16.289062 10.972656 16.292969 11.085938 C 16.300781 11.207031 16.320312 11.328125 16.347656 11.445312 C 16.363281 11.496094 16.386719 11.542969 16.421875 11.582031 C 16.449219 11.613281 16.476562 11.703125 16.480469 11.800781 C 16.484375 11.898438 16.46875 11.960938 16.480469 12.011719 C 16.496094 12.0625 16.480469 12.101562 16.449219 12.082031 C 16.410156 12.0625 16.402344 12.042969 16.378906 12 C 16.351562 11.960938 16.347656 11.96875 16.359375 12.03125 C 16.378906 12.121094 16.4375 12.148438 16.488281 12.148438 C 16.539062 12.148438 16.554688 12.152344 16.589844 12.1875 C 16.621094 12.21875 16.625 12.234375 16.679688 12.234375 C 16.734375 12.234375 16.742188 12.234375 16.796875 12.25 C 16.847656 12.261719 16.847656 12.257812 16.875 12.25 C 16.902344 12.242188 16.929688 12.265625 16.949219 12.316406 C 16.964844 12.371094 17.015625 12.515625 17.015625 12.554688 C 17.015625 12.59375 17.015625 12.636719 17.042969 12.675781 C 17.070312 12.71875 17.0625 12.753906 17.03125 12.734375 C 17.003906 12.710938 17 12.714844 16.980469 12.722656 C 16.960938 12.726562 16.9375 12.71875 16.90625 12.691406 C 16.875 12.675781 16.894531 12.679688 16.863281 12.632812 C 16.832031 12.578125 16.816406 12.570312 16.8125 12.601562 C 16.8125 12.660156 16.800781 12.675781 16.78125 12.660156 C 16.761719 12.640625 16.742188 12.640625 16.726562 12.660156 C 16.707031 12.683594 16.699219 12.699219 16.675781 12.660156 C 16.652344 12.621094 16.625 12.621094 16.597656 12.605469 C 16.578125 12.601562 16.578125 12.601562 16.566406 12.566406 C 16.554688 12.53125 16.515625 12.519531 16.488281 12.519531 C 16.453125 12.519531 16.4375 12.507812 16.433594 12.480469 C 16.433594 12.457031 16.410156 12.441406 16.394531 12.429688 C 16.378906 12.417969 16.386719 12.390625 16.382812 12.363281 C 16.378906 12.335938 16.355469 12.34375 16.339844 12.339844 C 16.320312 12.332031 16.3125 12.335938 16.3125 12.289062 C 16.3125 12.246094 16.292969 12.238281 16.285156 12.210938 C 16.269531 12.179688 16.285156 12.152344 16.292969 12.125 C 16.296875 12.085938 16.292969 12.070312 16.269531 12.046875 C 16.246094 12.011719 16.269531 11.984375 16.203125 11.925781 C 16.136719 11.875 16.105469 11.921875 16.085938 11.792969 C 16.074219 11.636719 16.042969 11.484375 15.992188 11.339844 C 15.953125 11.300781 15.933594 11.261719 15.894531 11.25 C 15.855469 11.238281 15.839844 11.25 15.835938 11.171875 C 15.832031 11.089844 15.808594 10.996094 15.757812 10.949219 L 15.667969 10.863281 C 15.644531 10.847656 15.632812 10.804688 15.667969 10.742188 C 15.703125 10.671875 15.6875 10.578125 15.683594 10.53125 C 15.679688 10.488281 15.667969 10.429688 15.675781 10.382812 C 15.683594 10.335938 15.675781 10.277344 15.667969 10.246094 C 15.660156 10.210938 15.640625 10.203125 15.660156 10.175781 Z M 16.613281 9.035156 C 16.5625 9.105469 16.5 9.167969 16.429688 9.21875 C 16.355469 9.273438 16.261719 9.3125 16.3125 9.40625 C 16.367188 9.496094 16.410156 9.507812 16.417969 9.574219 C 16.425781 9.652344 16.453125 9.699219 16.496094 9.722656 C 16.554688 9.738281 16.574219 9.730469 16.574219 9.839844 C 16.574219 9.953125 16.574219 10 16.621094 10.039062 C 16.667969 10.078125 16.660156 10.125 16.683594 10.222656 C 16.707031 10.328125 16.707031 10.550781 16.769531 10.699219 C 16.828125 10.847656 16.976562 11.136719 16.957031 11.191406 C 16.9375 11.246094 16.925781 11.292969 16.984375 11.363281 C 17.050781 11.433594 17.089844 11.535156 17.101562 11.59375 C 17.101562 11.652344 17.113281 11.671875 17.179688 11.652344 C 17.222656 11.640625 17.261719 11.617188 17.292969 11.585938 C 17.3125 11.558594 17.355469 11.5625 17.414062 11.59375 C 17.472656 11.628906 17.5625 11.65625 17.617188 11.628906 C 17.667969 11.59375 17.695312 11.546875 17.742188 11.546875 C 17.816406 11.492188 17.84375 11.378906 17.859375 11.347656 C 17.875 11.316406 17.863281 11.316406 17.832031 11.285156 C 17.800781 11.253906 17.816406 11.199219 17.8125 11.148438 C 17.808594 11.09375 17.78125 11.007812 17.722656 10.890625 C 17.660156 10.769531 17.617188 10.628906 17.578125 10.59375 C 17.539062 10.558594 17.515625 10.460938 17.511719 10.417969 C 17.507812 10.378906 17.457031 10.339844 17.425781 10.308594 C 17.390625 10.273438 17.363281 10.226562 17.324219 10.039062 C 17.285156 9.847656 17.261719 9.722656 17.261719 9.683594 C 17.261719 9.652344 17.253906 9.652344 17.222656 9.632812 C 17.191406 9.617188 17.175781 9.570312 17.191406 9.546875 C 17.195312 9.519531 17.175781 9.492188 17.164062 9.460938 C 17.152344 9.429688 17.164062 9.371094 17.1875 9.332031 C 17.207031 9.300781 17.203125 9.214844 17.183594 9.136719 C 17.164062 9.066406 17.140625 9 17.054688 8.984375 C 16.972656 8.976562 16.953125 8.953125 16.925781 8.882812 C 16.886719 8.816406 16.855469 8.691406 16.847656 8.664062 C 16.839844 8.636719 16.820312 8.632812 16.757812 8.6875 C 16.695312 8.742188 16.671875 8.753906 16.671875 8.859375 C 16.671875 8.925781 16.6875 8.945312 16.707031 8.980469 C 16.726562 9.019531 16.734375 9.03125 16.746094 9.132812 C 16.757812 9.230469 16.851562 9.394531 16.738281 9.488281 C 16.621094 9.574219 16.636719 9.597656 16.640625 9.664062 C 16.644531 9.726562 16.609375 9.769531 16.589844 9.683594 C 16.566406 9.585938 16.589844 9.535156 16.652344 9.492188 C 16.714844 9.449219 16.773438 9.394531 16.730469 9.332031 C 16.691406 9.25 16.671875 9.164062 16.664062 9.074219 C 16.660156 9.007812 16.652344 8.984375 16.613281 9.035156 "/>
<path style=" stroke:none;fill-rule:nonzero;fill:rgb(0%,72.156864%,0%);fill-opacity:1;" d="M 15.671875 10.402344 L 15.683594 10.53125 C 15.683594 10.578125 15.699219 10.671875 15.664062 10.738281 C 15.636719 10.800781 15.636719 10.84375 15.664062 10.863281 L 15.667969 10.863281 C 15.734375 10.84375 15.746094 10.769531 15.726562 10.734375 C 15.707031 10.695312 15.710938 10.652344 15.734375 10.617188 C 15.753906 10.582031 15.753906 10.554688 15.734375 10.527344 C 15.714844 10.5 15.714844 10.5 15.734375 10.425781 C 15.757812 10.359375 15.707031 10.359375 15.671875 10.402344 M 16.351562 11.445312 C 16.339844 11.394531 16.292969 11.207031 16.292969 11.085938 C 16.289062 10.972656 16.234375 10.867188 16.136719 10.777344 C 16.058594 10.707031 16.042969 10.59375 16.035156 10.5 C 15.976562 10.46875 15.953125 10.484375 15.960938 10.550781 C 15.960938 10.621094 16.039062 10.652344 16.027344 10.757812 C 16.015625 10.867188 16.015625 10.839844 16.066406 10.890625 C 16.109375 10.9375 16.132812 10.992188 16.105469 11.007812 C 16.078125 11.027344 16.078125 11.066406 16.113281 11.078125 C 16.152344 11.09375 16.152344 11.136719 16.148438 11.175781 C 16.144531 11.214844 16.183594 11.21875 16.199219 11.242188 C 16.222656 11.269531 16.222656 11.335938 16.199219 11.371094 C 16.183594 11.410156 16.179688 11.472656 16.214844 11.441406 C 16.25 11.40625 16.269531 11.441406 16.296875 11.488281 C 16.320312 11.527344 16.34375 11.515625 16.375 11.507812 L 16.347656 11.445312 Z M 16.859375 12.378906 C 16.84375 12.425781 16.816406 12.414062 16.792969 12.390625 C 16.769531 12.367188 16.742188 12.367188 16.753906 12.316406 C 16.761719 12.273438 16.753906 12.265625 16.726562 12.242188 L 16.714844 12.230469 L 16.683594 12.230469 C 16.625 12.230469 16.621094 12.21875 16.585938 12.183594 L 16.566406 12.167969 L 16.566406 12.199219 C 16.566406 12.242188 16.566406 12.230469 16.527344 12.246094 C 16.488281 12.261719 16.488281 12.203125 16.480469 12.167969 L 16.476562 12.144531 C 16.417969 12.132812 16.375 12.085938 16.359375 12.03125 C 16.339844 11.964844 16.359375 11.960938 16.382812 12 C 16.40625 12.042969 16.410156 12.054688 16.445312 12.082031 C 16.476562 12.101562 16.492188 12.0625 16.476562 12.011719 L 16.476562 11.960938 C 16.472656 11.945312 16.460938 11.933594 16.445312 11.921875 C 16.375 11.894531 16.398438 11.890625 16.398438 11.835938 C 16.410156 11.789062 16.394531 11.78125 16.351562 11.8125 C 16.3125 11.839844 16.3125 11.8125 16.3125 11.722656 C 16.3125 11.644531 16.257812 11.644531 16.246094 11.699219 C 16.234375 11.761719 16.210938 11.71875 16.191406 11.640625 C 16.171875 11.5625 16.132812 11.539062 16.132812 11.617188 C 16.132812 11.683594 16.113281 11.699219 16.070312 11.664062 L 16.085938 11.789062 C 16.105469 11.917969 16.136719 11.867188 16.203125 11.925781 C 16.265625 11.980469 16.246094 12.011719 16.269531 12.042969 C 16.289062 12.066406 16.296875 12.09375 16.292969 12.121094 C 16.277344 12.152344 16.273438 12.179688 16.28125 12.207031 C 16.292969 12.238281 16.3125 12.246094 16.3125 12.289062 C 16.3125 12.332031 16.320312 12.328125 16.339844 12.339844 L 16.371094 12.339844 L 16.398438 12.296875 C 16.449219 12.25 16.515625 12.296875 16.542969 12.367188 C 16.566406 12.429688 16.597656 12.4375 16.632812 12.390625 C 16.671875 12.34375 16.65625 12.351562 16.695312 12.394531 C 16.734375 12.4375 16.75 12.433594 16.75 12.433594 C 16.75 12.433594 16.789062 12.417969 16.820312 12.441406 C 16.847656 12.464844 16.859375 12.460938 16.914062 12.386719 C 16.964844 12.304688 16.890625 12.332031 16.867188 12.378906 Z M 17.007812 10.167969 C 17.023438 10.050781 17.011719 9.933594 17.058594 9.890625 C 17.109375 9.851562 17.164062 9.761719 17.164062 9.949219 C 17.15625 10.128906 17.148438 10.117188 17.113281 10.160156 C 17.078125 10.203125 17.042969 10.214844 17.074219 10.285156 C 17.117188 10.351562 17.121094 10.363281 17.117188 10.464844 C 17.113281 10.574219 17.113281 10.621094 17.152344 10.671875 C 17.195312 10.726562 17.207031 10.726562 17.21875 10.789062 C 17.230469 10.859375 17.261719 10.921875 17.3125 10.96875 C 17.359375 11.015625 17.414062 11.136719 17.417969 11.222656 C 17.421875 11.308594 17.496094 11.328125 17.566406 11.390625 C 17.636719 11.457031 17.550781 11.492188 17.5 11.464844 C 17.445312 11.441406 17.464844 11.464844 17.433594 11.503906 C 17.402344 11.542969 17.394531 11.546875 17.367188 11.480469 C 17.339844 11.414062 17.25 11.371094 17.207031 11.355469 C 17.164062 11.339844 17.128906 11.269531 17.089844 11.199219 C 17.058594 11.140625 17.003906 11.101562 16.9375 11.09375 C 16.953125 11.140625 16.960938 11.171875 16.957031 11.191406 C 16.941406 11.25 16.925781 11.292969 16.984375 11.363281 C 17.050781 11.433594 17.089844 11.535156 17.101562 11.59375 C 17.101562 11.652344 17.113281 11.671875 17.179688 11.652344 C 17.222656 11.640625 17.261719 11.617188 17.292969 11.585938 C 17.3125 11.558594 17.355469 11.558594 17.414062 11.59375 C 17.472656 11.625 17.5625 11.65625 17.617188 11.625 C 17.667969 11.589844 17.695312 11.546875 17.742188 11.546875 C 17.816406 11.492188 17.84375 11.375 17.859375 11.347656 C 17.875 11.308594 17.863281 11.308594 17.832031 11.28125 C 17.800781 11.25 17.816406 11.195312 17.808594 11.144531 C 17.8125 11.089844 17.78125 11.003906 17.722656 10.890625 C 17.65625 10.769531 17.617188 10.628906 17.578125 10.59375 C 17.539062 10.558594 17.511719 10.460938 17.511719 10.417969 C 17.503906 10.378906 17.457031 10.339844 17.425781 10.304688 C 17.394531 10.269531 17.359375 10.222656 17.324219 10.039062 C 17.292969 9.886719 17.273438 9.78125 17.265625 9.722656 C 17.226562 9.785156 17.199219 9.796875 17.1875 9.753906 C 17.167969 9.707031 17.152344 9.683594 17.128906 9.714844 C 17.105469 9.746094 17.101562 9.683594 17.101562 9.65625 C 17.101562 9.625 17.101562 9.625 17.066406 9.625 C 17.03125 9.625 17.066406 9.585938 17.054688 9.5 C 17.042969 9.421875 17.027344 9.414062 17.019531 9.507812 C 17.011719 9.601562 16.953125 9.667969 16.976562 9.683594 C 16.992188 9.707031 16.988281 9.75 16.964844 9.8125 C 16.949219 9.859375 16.949219 9.910156 16.964844 9.957031 C 16.980469 9.996094 16.957031 10.082031 16.949219 10.148438 C 16.941406 10.214844 16.992188 10.289062 17.007812 10.171875 Z M 16.039062 9.210938 C 16 9.210938 15.972656 9.25 15.996094 9.371094 C 16.011719 9.449219 15.957031 9.433594 15.933594 9.394531 C 15.914062 9.355469 15.894531 9.273438 15.855469 9.207031 C 15.8125 9.140625 15.832031 9.25 15.828125 9.316406 C 15.820312 9.386719 15.863281 9.386719 15.898438 9.4375 C 15.933594 9.488281 15.90625 9.511719 15.867188 9.511719 C 15.828125 9.511719 15.839844 9.597656 15.851562 9.65625 C 15.863281 9.714844 15.839844 9.726562 15.8125 9.679688 C 15.773438 9.625 15.800781 9.558594 15.804688 9.464844 C 15.8125 9.375 15.816406 9.394531 15.757812 9.375 C 15.699219 9.347656 15.707031 9.335938 15.734375 9.285156 C 15.753906 9.230469 15.773438 9.207031 15.746094 9.179688 C 15.71875 9.152344 15.726562 9.136719 15.769531 9.132812 C 15.808594 9.125 15.792969 9.09375 15.832031 9.085938 C 15.871094 9.074219 15.886719 9.085938 15.890625 9.015625 C 15.894531 8.953125 15.914062 8.929688 15.957031 8.941406 C 15.984375 9.03125 16.015625 9.171875 16.039062 9.210938 M 16.574219 9.84375 C 16.574219 9.957031 16.574219 10.003906 16.621094 10.042969 C 16.667969 10.082031 16.660156 10.128906 16.683594 10.226562 C 16.707031 10.332031 16.707031 10.554688 16.769531 10.703125 L 16.839844 10.863281 C 16.871094 10.832031 16.898438 10.796875 16.917969 10.757812 C 16.929688 10.726562 16.882812 10.648438 16.847656 10.589844 C 16.808594 10.515625 16.851562 10.496094 16.886719 10.414062 C 16.925781 10.339844 16.886719 10.335938 16.824219 10.3125 C 16.769531 10.292969 16.769531 10.230469 16.738281 10.148438 C 16.707031 10.0625 16.710938 10.027344 16.730469 9.976562 C 16.75 9.925781 16.738281 9.894531 16.695312 9.878906 C 16.652344 9.867188 16.664062 9.839844 16.679688 9.785156 C 16.695312 9.730469 16.707031 9.722656 16.640625 9.734375 C 16.59375 9.75 16.582031 9.761719 16.566406 9.773438 Z M 16.574219 9.84375 "/>
<path style=" stroke:none;fill-rule:nonzero;fill:rgb(36.470589%,19.215687%,0%);fill-opacity:1;" d="M 17.183594 10.066406 C 17.179688 10.125 17.171875 10.167969 17.160156 10.183594 C 17.148438 10.203125 17.152344 10.230469 17.171875 10.273438 C 17.191406 10.300781 17.195312 10.347656 17.183594 10.40625 C 17.171875 10.46875 17.183594 10.507812 17.222656 10.523438 C 17.253906 10.542969 17.269531 10.523438 17.261719 10.605469 C 17.257812 10.671875 17.28125 10.742188 17.328125 10.789062 C 17.367188 10.820312 17.394531 10.875 17.386719 10.910156 C 17.390625 10.941406 17.410156 10.96875 17.453125 10.988281 C 17.492188 11.003906 17.484375 11.007812 17.484375 11.027344 C 17.484375 11.046875 17.5 11.050781 17.539062 11.0625 C 17.574219 11.070312 17.617188 11.101562 17.664062 11.160156 C 17.710938 11.222656 17.78125 11.25 17.769531 11.1875 C 17.757812 11.121094 17.769531 11.074219 17.707031 11.046875 C 17.644531 11.019531 17.59375 10.863281 17.570312 10.753906 C 17.542969 10.648438 17.488281 10.554688 17.414062 10.472656 C 17.402344 10.394531 17.414062 10.359375 17.367188 10.324219 C 17.328125 10.292969 17.300781 10.246094 17.300781 10.195312 C 17.300781 10.164062 17.277344 10.117188 17.253906 10.101562 C 17.234375 10.089844 17.222656 10.066406 17.222656 10.03125 C 17.222656 10 17.191406 10.003906 17.183594 10.070312 Z M 17.183594 10.066406 "/>
<path style=" stroke:none;fill-rule:nonzero;fill:rgb(0%,84.705883%,37.64706%);fill-opacity:1;" d="M 16.902344 12.945312 C 17.03125 12.921875 17.160156 12.886719 17.28125 12.832031 C 17.347656 12.875 17.457031 12.9375 17.503906 12.9375 C 17.410156 12.953125 17.351562 12.953125 17.332031 12.929688 C 17.34375 12.957031 17.371094 13.003906 17.394531 13.007812 C 17.304688 13.007812 17.207031 12.984375 17.175781 12.953125 C 17.097656 12.984375 16.972656 12.992188 16.902344 12.945312 M 17.070312 13.0625 C 17.105469 13.074219 17.273438 13.101562 17.296875 13.101562 C 17.242188 13.148438 17.289062 13.195312 17.378906 13.1875 C 17.339844 13.195312 17.285156 13.214844 17.320312 13.222656 C 17.441406 13.21875 17.558594 13.195312 17.667969 13.148438 C 17.589844 13.25 17.222656 13.339844 17.070312 13.0625 M 17.226562 13.304688 C 17.296875 13.285156 17.367188 13.289062 17.433594 13.316406 C 17.378906 13.339844 17.257812 13.339844 17.222656 13.308594 Z M 17.226562 13.304688 "/>
<path style=" stroke:none;fill-rule:nonzero;fill:rgb(0%,0%,0%);fill-opacity:1;" d="M 17.394531 13.304688 C 17.472656 13.292969 17.707031 13.34375 17.785156 13.296875 C 17.757812 13.371094 17.617188 13.382812 17.5625 13.363281 C 17.511719 13.347656 17.464844 13.335938 17.429688 13.332031 C 17.453125 13.320312 17.421875 13.320312 17.390625 13.304688 Z M 17.394531 13.304688 "/>
<path style=" stroke:none;fill-rule:nonzero;fill:rgb(0%,84.705883%,37.64706%);fill-opacity:1;" d="M 17.476562 13.417969 C 17.59375 13.421875 17.714844 13.40625 17.828125 13.375 C 17.894531 13.398438 18.039062 13.4375 18.070312 13.433594 C 18.003906 13.472656 17.875 13.449219 17.835938 13.433594 C 17.71875 13.484375 17.589844 13.476562 17.476562 13.417969 "/>
<path style=" stroke:none;fill-rule:nonzero;fill:rgb(0%,84.705883%,37.64706%);fill-opacity:1;" d="M 17.578125 13.453125 C 17.664062 13.46875 17.75 13.464844 17.832031 13.433594 C 17.859375 13.441406 17.921875 13.457031 17.984375 13.457031 C 18.023438 13.476562 18.074219 13.511719 18.128906 13.519531 C 18.03125 13.53125 17.929688 13.519531 17.835938 13.488281 C 17.730469 13.488281 17.621094 13.507812 17.523438 13.550781 C 17.527344 13.511719 17.550781 13.476562 17.582031 13.457031 Z M 17.578125 13.453125 "/>
<path style=" stroke:none;fill-rule:nonzero;fill:rgb(0%,0%,0%);fill-opacity:1;" d="M 17.476562 13.007812 C 17.542969 13.027344 17.796875 13.015625 17.917969 12.957031 C 17.972656 12.929688 18.003906 12.972656 17.945312 12.988281 C 17.742188 13.066406 17.574219 13.089844 17.457031 13.027344 C 17.410156 13.003906 17.402344 12.980469 17.476562 13.003906 Z M 17.476562 13.007812 "/>
<path style=" stroke:none;fill-rule:nonzero;fill:rgb(0%,84.705883%,37.64706%);fill-opacity:1;" d="M 18.695312 12.660156 C 18.386719 12.804688 18.1875 12.847656 17.761719 12.714844 C 17.722656 12.707031 17.695312 12.714844 17.738281 12.742188 C 17.84375 12.789062 17.957031 12.824219 18.070312 12.84375 C 18.125 12.847656 18.105469 12.871094 18.070312 12.882812 C 18.039062 12.890625 18.03125 12.917969 18.074219 12.898438 C 18.117188 12.882812 18.378906 12.871094 18.484375 12.929688 C 18.527344 12.953125 18.542969 12.953125 18.535156 12.929688 C 18.535156 12.910156 18.554688 12.902344 18.589844 12.894531 C 18.621094 12.890625 18.644531 12.878906 18.617188 12.871094 C 18.589844 12.863281 18.585938 12.851562 18.605469 12.84375 C 18.628906 12.832031 18.625 12.824219 18.597656 12.816406 C 18.570312 12.808594 18.546875 12.800781 18.574219 12.789062 C 18.605469 12.773438 18.640625 12.765625 18.675781 12.761719 C 18.683594 12.742188 18.671875 12.683594 18.695312 12.660156 "/>
<path style=" stroke:none;fill-rule:nonzero;fill:rgb(0%,0%,0%);fill-opacity:1;" d="M 18.1875 12.695312 C 18.429688 12.699219 18.664062 12.613281 18.851562 12.457031 C 18.914062 12.496094 18.996094 12.535156 19.042969 12.542969 C 19.085938 12.550781 19.121094 12.589844 19.054688 12.589844 C 18.988281 12.589844 18.898438 12.5625 18.851562 12.542969 C 18.652344 12.667969 18.421875 12.726562 18.1875 12.714844 C 18.144531 12.714844 18.132812 12.695312 18.1875 12.699219 Z M 18.1875 12.695312 "/>
<path style=" stroke:none;fill-rule:nonzero;fill:rgb(0%,84.705883%,37.64706%);fill-opacity:1;" d="M 17.667969 11.730469 C 17.730469 11.773438 17.835938 11.84375 17.972656 11.832031 C 18.039062 11.886719 18.113281 11.925781 18.195312 11.949219 C 18.101562 11.980469 18 12.015625 17.976562 12.046875 C 17.9375 12.003906 17.878906 12.011719 17.867188 11.988281 C 17.828125 12.03125 17.832031 12.042969 17.859375 12.0625 C 17.949219 12.085938 18.039062 12.101562 18.132812 12.097656 C 18.179688 12.082031 18.199219 12.125 18.15625 12.136719 C 18.050781 12.175781 17.84375 12.136719 17.773438 12.019531 C 17.695312 11.90625 17.636719 11.863281 17.441406 11.96875 C 17.421875 11.910156 17.421875 11.902344 17.382812 11.902344 C 17.34375 11.902344 17.273438 11.851562 17.328125 11.851562 C 17.382812 11.851562 17.539062 11.828125 17.667969 11.734375 Z M 17.667969 11.730469 "/>
<path style=" stroke:none;fill-rule:nonzero;fill:rgb(0%,84.705883%,37.64706%);fill-opacity:1;" d="M 17.71875 11.992188 C 17.679688 11.996094 17.589844 12.050781 17.558594 12.054688 C 17.523438 12.0625 17.464844 12.109375 17.523438 12.109375 C 17.589844 12.109375 17.667969 12.042969 17.710938 12.042969 C 17.753906 12.042969 17.757812 11.980469 17.71875 11.988281 Z M 17.914062 12.191406 C 17.886719 12.199219 17.785156 12.222656 17.757812 12.222656 C 17.730469 12.222656 17.699219 12.222656 17.703125 12.246094 C 17.707031 12.269531 17.714844 12.28125 17.667969 12.273438 C 17.628906 12.265625 17.59375 12.285156 17.585938 12.296875 C 17.578125 12.308594 17.566406 12.324219 17.609375 12.328125 C 17.648438 12.328125 17.671875 12.339844 17.722656 12.308594 C 17.765625 12.285156 17.8125 12.265625 17.863281 12.253906 C 17.914062 12.253906 17.964844 12.183594 17.910156 12.195312 Z M 17.914062 12.191406 "/>
<path style=" stroke:none;fill-rule:nonzero;fill:rgb(0%,0%,0%);fill-opacity:1;" d="M 17.769531 12.3125 C 17.8125 12.351562 18.027344 12.417969 18.101562 12.417969 C 18.179688 12.414062 18.167969 12.445312 18.109375 12.457031 C 17.976562 12.476562 17.839844 12.4375 17.734375 12.351562 C 17.6875 12.308594 17.734375 12.292969 17.765625 12.3125 Z M 17.769531 12.3125 "/>
<path style=" stroke:none;fill-rule:nonzero;fill:rgb(0%,84.705883%,37.64706%);fill-opacity:1;" d="M 18.78125 12.429688 C 18.652344 12.464844 18.515625 12.46875 18.382812 12.441406 C 18.316406 12.417969 18.253906 12.417969 18.304688 12.464844 C 18.34375 12.507812 18.492188 12.535156 18.578125 12.515625 C 18.28125 12.582031 18.203125 12.578125 18.132812 12.566406 C 18.042969 12.554688 17.949219 12.554688 17.859375 12.558594 C 17.816406 12.566406 17.769531 12.5625 17.730469 12.542969 C 17.703125 12.523438 17.695312 12.5 17.773438 12.507812 C 17.851562 12.507812 17.859375 12.5 17.796875 12.488281 C 17.726562 12.476562 17.636719 12.503906 17.726562 12.566406 C 17.820312 12.625 18.015625 12.558594 18.144531 12.597656 C 18.375 12.65625 18.617188 12.601562 18.796875 12.449219 C 18.808594 12.441406 18.832031 12.410156 18.78125 12.425781 Z M 17.976562 12.179688 C 17.984375 12.203125 17.984375 12.222656 17.976562 12.234375 C 17.96875 12.25 17.972656 12.269531 17.996094 12.25 C 18.019531 12.230469 18.035156 12.203125 18.066406 12.21875 C 18.09375 12.230469 18.15625 12.230469 18.183594 12.226562 C 18.21875 12.226562 18.21875 12.21875 18.183594 12.199219 C 18.148438 12.183594 18.109375 12.175781 18.070312 12.175781 C 18.042969 12.179688 18.019531 12.175781 17.996094 12.164062 C 17.960938 12.148438 17.972656 12.164062 17.976562 12.179688 "/>
<path style=" stroke:none;fill-rule:nonzero;fill:rgb(0%,84.705883%,37.64706%);fill-opacity:1;" d="M 18.398438 12.257812 C 18.367188 12.257812 18.304688 12.234375 18.277344 12.21875 C 18.246094 12.207031 18.199219 12.207031 18.230469 12.257812 C 18.265625 12.304688 18.410156 12.328125 18.464844 12.304688 C 18.515625 12.28125 18.496094 12.257812 18.542969 12.289062 C 18.597656 12.324219 18.644531 12.34375 18.6875 12.34375 C 18.75 12.34375 18.738281 12.34375 18.699219 12.316406 C 18.660156 12.292969 18.636719 12.289062 18.628906 12.269531 C 18.621094 12.25 18.621094 12.234375 18.664062 12.25 C 18.703125 12.261719 18.742188 12.28125 18.773438 12.265625 C 18.804688 12.25 18.859375 12.214844 18.910156 12.214844 L 18.917969 12.183594 C 18.847656 12.183594 18.800781 12.203125 18.78125 12.207031 C 18.761719 12.21875 18.730469 12.21875 18.6875 12.214844 C 18.621094 12.207031 18.601562 12.203125 18.589844 12.195312 C 18.574219 12.183594 18.582031 12.175781 18.609375 12.171875 C 18.640625 12.164062 18.648438 12.144531 18.609375 12.148438 C 18.570312 12.15625 18.445312 12.15625 18.382812 12.136719 C 18.332031 12.117188 18.292969 12.113281 18.273438 12.125 C 18.246094 12.132812 18.25 12.164062 18.285156 12.164062 C 18.324219 12.164062 18.410156 12.175781 18.441406 12.203125 C 18.46875 12.230469 18.464844 12.234375 18.433594 12.21875 C 18.398438 12.203125 18.335938 12.210938 18.398438 12.257812 "/>
<path style=" stroke:none;fill-rule:nonzero;fill:rgb(0%,84.705883%,37.64706%);fill-opacity:1;" d="M 18.917969 12.183594 L 18.90625 12.214844 C 18.980469 12.214844 19.15625 12.230469 19.21875 12.265625 C 19.273438 12.222656 19.261719 12.207031 19.296875 12.21875 C 19.335938 12.230469 19.390625 12.238281 19.414062 12.230469 C 19.433594 12.222656 19.453125 12.21875 19.472656 12.222656 C 19.496094 12.222656 19.550781 12.214844 19.578125 12.199219 C 19.609375 12.179688 19.671875 12.160156 19.707031 12.160156 C 19.742188 12.160156 19.785156 12.148438 19.71875 12.136719 C 19.652344 12.125 19.554688 12.148438 19.523438 12.160156 C 19.484375 12.171875 19.386719 12.179688 19.328125 12.179688 C 19.269531 12.179688 19.1875 12.207031 19.121094 12.191406 C 19.050781 12.175781 18.957031 12.183594 18.914062 12.183594 Z M 18.917969 12.183594 "/>
<path style=" stroke:none;fill-rule:nonzero;fill:rgb(0%,0%,0%);fill-opacity:1;" d="M 19.839844 12.152344 C 19.722656 12.238281 19.574219 12.257812 19.40625 12.269531 C 19.355469 12.269531 19.371094 12.285156 19.414062 12.289062 C 19.59375 12.308594 19.796875 12.242188 19.867188 12.171875 C 19.886719 12.148438 19.882812 12.117188 19.839844 12.148438 Z M 19.839844 12.152344 "/>
<path style=" stroke:none;fill-rule:nonzero;fill:rgb(0%,84.705883%,37.64706%);fill-opacity:1;" d="M 19.027344 12.359375 C 19.125 12.371094 19.21875 12.394531 19.3125 12.425781 C 19.355469 12.421875 19.375 12.40625 19.363281 12.390625 C 19.351562 12.375 19.347656 12.359375 19.429688 12.367188 L 19.722656 12.367188 C 19.753906 12.355469 19.8125 12.304688 19.839844 12.304688 C 19.769531 12.304688 19.46875 12.324219 19.433594 12.316406 C 19.398438 12.316406 19.371094 12.320312 19.351562 12.335938 C 19.328125 12.347656 19.316406 12.355469 19.285156 12.339844 C 19.246094 12.328125 19.203125 12.308594 19.167969 12.335938 C 19.144531 12.351562 19.078125 12.335938 19.027344 12.359375 "/>
<path style=" stroke:none;fill-rule:nonzero;fill:rgb(0%,84.705883%,37.64706%);fill-opacity:1;" d="M 19.722656 12.367188 C 19.75 12.355469 19.8125 12.304688 19.839844 12.300781 C 19.894531 12.296875 19.949219 12.316406 19.976562 12.328125 C 20.003906 12.335938 20.035156 12.328125 20.015625 12.300781 C 19.996094 12.277344 20.015625 12.238281 20.09375 12.25 C 20.179688 12.257812 20.21875 12.273438 20.300781 12.265625 C 20.382812 12.257812 20.414062 12.316406 20.5625 12.257812 C 20.554688 12.316406 20.582031 12.324219 20.609375 12.308594 C 20.636719 12.296875 20.671875 12.304688 20.714844 12.339844 C 20.765625 12.378906 21.054688 12.378906 21.121094 12.367188 C 21.1875 12.355469 21.222656 12.390625 21.171875 12.40625 C 21.121094 12.421875 21.109375 12.445312 21.121094 12.464844 C 21.132812 12.484375 21.144531 12.5 21.082031 12.492188 C 21.019531 12.484375 21.003906 12.503906 20.976562 12.523438 C 20.949219 12.542969 20.9375 12.5625 20.847656 12.542969 C 20.757812 12.523438 20.742188 12.539062 20.695312 12.542969 C 20.648438 12.550781 20.636719 12.554688 20.585938 12.539062 C 20.515625 12.515625 20.441406 12.511719 20.371094 12.527344 C 20.308594 12.550781 20.265625 12.566406 20.207031 12.550781 C 20.148438 12.539062 20.148438 12.542969 20.183594 12.511719 C 20.214844 12.472656 20.222656 12.472656 20.292969 12.46875 C 20.363281 12.464844 20.410156 12.441406 20.367188 12.414062 C 20.316406 12.386719 20.304688 12.390625 20.238281 12.417969 C 20.175781 12.449219 20.144531 12.472656 20.070312 12.433594 C 19.996094 12.394531 19.96875 12.398438 19.914062 12.414062 C 19.867188 12.425781 19.789062 12.394531 19.722656 12.367188 M 19.960938 12.484375 C 19.867188 12.5 19.84375 12.441406 19.75 12.449219 C 19.71875 12.457031 19.664062 12.496094 19.738281 12.488281 C 19.8125 12.480469 19.894531 12.523438 19.964844 12.519531 C 20.035156 12.515625 20.003906 12.480469 19.964844 12.484375 Z M 19.859375 12.550781 C 19.902344 12.535156 20 12.570312 20.046875 12.5625 C 20.09375 12.554688 20.125 12.578125 20.078125 12.597656 C 20.03125 12.621094 19.933594 12.570312 19.882812 12.582031 C 19.839844 12.597656 19.789062 12.578125 19.855469 12.550781 Z M 18.90625 12.816406 C 18.972656 12.816406 19.210938 12.804688 19.304688 12.605469 C 19.308594 12.589844 19.320312 12.589844 19.34375 12.605469 C 19.371094 12.628906 19.484375 12.691406 19.6875 12.710938 C 19.746094 12.710938 19.804688 12.742188 19.691406 12.738281 C 19.574219 12.730469 19.394531 12.699219 19.335938 12.660156 C 19.230469 12.820312 19.046875 12.839844 18.90625 12.835938 C 18.824219 12.835938 18.84375 12.8125 18.90625 12.816406 "/>
<path style=" stroke:none;fill-rule:nonzero;fill:rgb(0%,84.705883%,37.64706%);fill-opacity:1;" d="M 19.417969 12.539062 C 19.386719 12.582031 19.277344 12.660156 19.230469 12.667969 C 19.179688 12.667969 19.027344 12.660156 18.992188 12.644531 C 18.953125 12.632812 18.910156 12.632812 18.960938 12.671875 C 19.03125 12.710938 19.113281 12.726562 19.195312 12.722656 C 19.257812 12.710938 19.316406 12.691406 19.359375 12.722656 C 19.398438 12.746094 19.476562 12.792969 19.523438 12.785156 C 19.570312 12.773438 19.660156 12.773438 19.691406 12.785156 C 19.722656 12.800781 19.773438 12.847656 19.695312 12.824219 C 19.617188 12.800781 19.554688 12.816406 19.519531 12.800781 C 19.558594 12.855469 19.648438 12.949219 19.722656 12.949219 C 19.742188 12.949219 19.757812 12.984375 19.722656 13 C 19.753906 13.015625 19.839844 13.035156 19.890625 12.988281 C 19.878906 13.003906 19.882812 13.019531 19.902344 13.023438 C 19.921875 13.03125 19.945312 13.046875 19.910156 13.054688 C 19.875 13.0625 19.792969 13.066406 19.769531 13.054688 C 19.847656 13.105469 20.042969 13.1875 20.25 13.144531 C 20.289062 13.140625 20.3125 13.121094 20.25 13.125 C 20.113281 13.125 20.105469 13.125 20.082031 13.113281 C 20.058594 13.097656 20.066406 13.085938 20.105469 13.074219 L 20.273438 13.046875 C 20.3125 13.046875 20.355469 13.035156 20.273438 13.035156 C 20.195312 13.035156 20.09375 13.035156 20.050781 13.019531 C 20.011719 13.007812 19.984375 12.984375 20.027344 12.957031 C 20.066406 12.929688 20.109375 12.9375 20.128906 12.917969 C 20 12.917969 19.839844 12.835938 19.925781 12.773438 C 19.945312 12.761719 19.941406 12.757812 19.910156 12.753906 C 19.851562 12.742188 19.789062 12.722656 19.734375 12.699219 C 19.695312 12.679688 19.71875 12.65625 19.753906 12.648438 C 19.675781 12.660156 19.519531 12.621094 19.417969 12.542969 Z M 20.582031 12.539062 C 20.511719 12.589844 20.375 12.621094 20.316406 12.621094 C 20.257812 12.625 20.253906 12.632812 20.296875 12.640625 C 20.34375 12.644531 20.394531 12.65625 20.414062 12.648438 C 20.433594 12.640625 20.449219 12.640625 20.476562 12.65625 C 20.523438 12.671875 20.578125 12.671875 20.625 12.65625 C 20.683594 12.640625 20.769531 12.632812 20.808594 12.632812 C 20.847656 12.636719 20.886719 12.636719 20.808594 12.613281 C 20.738281 12.59375 20.613281 12.605469 20.582031 12.613281 C 20.550781 12.625 20.472656 12.613281 20.515625 12.605469 C 20.558594 12.589844 20.59375 12.574219 20.617188 12.550781 Z M 20.542969 12.699219 C 20.472656 12.75 20.390625 12.78125 20.304688 12.789062 C 20.382812 12.820312 20.453125 12.90625 20.507812 12.898438 C 20.480469 12.921875 20.453125 12.9375 20.417969 12.949219 C 20.492188 12.960938 20.566406 12.945312 20.628906 12.90625 C 20.746094 12.941406 20.902344 12.917969 20.953125 12.867188 C 20.875 12.867188 20.785156 12.84375 20.742188 12.804688 C 20.785156 12.800781 20.8125 12.789062 20.832031 12.761719 C 20.742188 12.777344 20.597656 12.734375 20.546875 12.691406 Z M 20.542969 12.699219 "/>
<path style=" stroke:none;fill-rule:nonzero;fill:rgb(0%,84.705883%,37.64706%);fill-opacity:1;" d="M 20.417969 12.945312 C 20.449219 12.945312 20.484375 12.921875 20.507812 12.902344 C 20.355469 12.914062 20.203125 12.878906 20.074219 12.800781 C 19.988281 12.726562 19.988281 12.785156 20.046875 12.835938 C 20.148438 12.933594 20.285156 12.972656 20.421875 12.949219 Z M 20.628906 13.128906 C 20.59375 13.148438 20.421875 13.164062 20.367188 13.148438 C 20.308594 13.136719 20.285156 13.144531 20.296875 13.167969 C 20.308594 13.191406 20.320312 13.207031 20.273438 13.199219 C 20.21875 13.199219 20.167969 13.207031 20.117188 13.222656 C 20.078125 13.230469 20.039062 13.261719 20.109375 13.25 C 20.183594 13.242188 20.246094 13.226562 20.304688 13.238281 C 20.355469 13.25 20.542969 13.253906 20.578125 13.238281 C 20.613281 13.222656 20.59375 13.226562 20.578125 13.226562 C 20.554688 13.226562 20.554688 13.214844 20.578125 13.195312 C 20.605469 13.183594 20.621094 13.160156 20.628906 13.128906 M 18.976562 12.898438 C 18.855469 12.941406 18.730469 12.976562 18.601562 13 C 18.523438 13.035156 18.464844 13.054688 18.421875 13.054688 C 18.449219 13.078125 18.558594 13.101562 18.597656 13.089844 C 18.574219 13.117188 18.519531 13.140625 18.5 13.15625 C 18.566406 13.144531 18.636719 13.164062 18.671875 13.167969 C 18.589844 13.214844 18.5 13.234375 18.410156 13.226562 C 18.433594 13.25 18.460938 13.277344 18.496094 13.277344 C 18.425781 13.296875 18.351562 13.300781 18.28125 13.285156 C 18.300781 13.324219 18.324219 13.347656 18.351562 13.355469 C 18.285156 13.359375 18.207031 13.371094 18.140625 13.332031 C 18.191406 13.398438 18.304688 13.425781 18.476562 13.402344 C 18.648438 13.382812 18.789062 13.308594 18.828125 13.277344 C 18.757812 13.285156 18.660156 13.289062 18.617188 13.277344 C 18.734375 13.246094 18.847656 13.195312 18.953125 13.128906 C 18.914062 13.128906 18.875 13.117188 18.84375 13.09375 C 18.949219 13.097656 19.054688 13.089844 19.15625 13.0625 C 19.101562 13.050781 19.054688 13.015625 19.019531 12.972656 C 19.234375 13.035156 19.464844 13.042969 19.683594 12.992188 C 19.714844 12.984375 19.714844 12.941406 19.65625 12.949219 C 19.546875 12.957031 19.332031 12.925781 19.273438 12.894531 C 19.320312 12.929688 19.375 12.953125 19.429688 12.964844 C 19.332031 12.996094 19.1875 13.015625 18.976562 12.894531 Z M 18.976562 12.898438 "/>
<path style=" stroke:none;fill-rule:nonzero;fill:rgb(0%,84.705883%,37.64706%);fill-opacity:1;" d="M 18.5 13.15625 C 18.519531 13.140625 18.578125 13.117188 18.597656 13.089844 C 18.554688 13.101562 18.449219 13.078125 18.421875 13.050781 C 18.464844 13.050781 18.523438 13.035156 18.601562 13 C 18.460938 12.996094 18.367188 12.996094 18.308594 12.964844 C 18.253906 12.933594 18.164062 12.949219 18.125 12.957031 C 18.085938 12.960938 18.101562 13.023438 18.253906 13.007812 C 18.160156 13.050781 18.058594 13.0625 17.957031 13.046875 C 17.976562 13.105469 17.980469 13.152344 17.96875 13.183594 C 18.050781 13.234375 18.269531 13.292969 18.378906 13.285156 C 18.28125 13.25 18.230469 13.207031 18.308594 13.195312 C 18.386719 13.1875 18.433594 13.171875 18.503906 13.15625 Z M 18.5 13.15625 "/>
<path style=" stroke:none;fill-rule:nonzero;fill:rgb(0%,0%,0%);fill-opacity:1;" d="M 18.253906 13.417969 C 18.441406 13.402344 18.699219 13.398438 18.902344 13.222656 C 18.953125 13.179688 18.988281 13.195312 18.9375 13.242188 C 18.757812 13.382812 18.539062 13.464844 18.3125 13.476562 C 18.207031 13.476562 18.160156 13.425781 18.253906 13.414062 Z M 18.253906 13.417969 "/>
<path style=" stroke:none;fill-rule:nonzero;fill:rgb(0%,84.705883%,37.64706%);fill-opacity:1;" d="M 19.675781 13.101562 C 19.605469 13.125 19.53125 13.132812 19.457031 13.132812 C 19.414062 13.125 19.371094 13.125 19.328125 13.140625 C 19.292969 13.164062 19.296875 13.179688 19.335938 13.179688 L 19.464844 13.1875 C 19.4375 13.203125 19.414062 13.222656 19.394531 13.25 C 19.464844 13.234375 19.578125 13.261719 19.613281 13.28125 C 19.585938 13.285156 19.558594 13.277344 19.535156 13.265625 C 19.640625 13.382812 19.960938 13.382812 20.011719 13.359375 C 19.984375 13.382812 19.964844 13.394531 19.945312 13.398438 C 20.035156 13.425781 20.132812 13.414062 20.238281 13.359375 L 20.074219 13.351562 C 20.097656 13.328125 20.121094 13.3125 20.152344 13.304688 C 20.113281 13.296875 19.988281 13.300781 19.957031 13.316406 C 19.96875 13.289062 19.988281 13.265625 20.015625 13.25 C 19.859375 13.25 19.667969 13.25 19.601562 13.207031 C 19.707031 13.226562 19.832031 13.15625 19.882812 13.15625 C 19.796875 13.15625 19.703125 13.136719 19.679688 13.097656 Z M 19.28125 13.179688 C 19.203125 13.199219 19.085938 13.238281 19.050781 13.253906 C 19.019531 13.273438 18.988281 13.28125 19.054688 13.28125 L 19.078125 13.277344 C 19.050781 13.277344 19.019531 13.277344 19.074219 13.257812 C 19.128906 13.238281 19.191406 13.203125 19.277344 13.1875 Z M 19.125 13.375 C 19.152344 13.375 19.269531 13.375 19.320312 13.335938 C 19.367188 13.367188 19.464844 13.421875 19.523438 13.421875 C 19.582031 13.425781 19.582031 13.433594 19.523438 13.445312 C 19.449219 13.441406 19.375 13.417969 19.3125 13.378906 C 19.242188 13.40625 19.183594 13.382812 19.117188 13.375 Z M 18.203125 13.917969 C 18.328125 13.972656 18.46875 13.988281 18.605469 13.960938 C 18.675781 14.019531 18.8125 14.023438 18.886719 14.007812 C 18.960938 13.992188 19.03125 13.984375 19.117188 14.007812 C 19.195312 14.039062 19.367188 14.042969 19.417969 14.082031 L 19.257812 14.085938 C 19.234375 14.09375 19.246094 14.109375 19.289062 14.128906 C 19.132812 14.125 18.980469 14.167969 18.847656 14.246094 C 18.886719 14.148438 18.980469 14.089844 19.082031 14.09375 C 19.011719 14.070312 18.78125 14.066406 18.703125 14.117188 C 18.683594 14.09375 18.667969 14.066406 18.65625 14.035156 C 18.535156 14.105469 18.296875 14 18.199219 13.917969 Z M 17.890625 13.6875 C 17.992188 13.679688 18.09375 13.640625 18.175781 13.578125 C 18.203125 13.601562 18.3125 13.625 18.429688 13.589844 C 18.40625 13.605469 18.402344 13.640625 18.410156 13.65625 C 18.316406 13.664062 18.222656 13.6875 18.136719 13.726562 C 18.089844 13.75 17.941406 13.769531 17.894531 13.742188 C 17.851562 13.71875 17.847656 13.699219 17.886719 13.6875 Z M 17.890625 13.6875 "/>
<path style=" stroke:none;fill-rule:nonzero;fill:rgb(0%,84.705883%,37.64706%);fill-opacity:1;" d="M 18.410156 13.660156 C 18.316406 13.667969 18.222656 13.691406 18.136719 13.730469 L 18.15625 13.796875 C 18.351562 13.742188 18.550781 13.722656 18.753906 13.734375 C 18.691406 13.738281 18.578125 13.808594 18.515625 13.8125 C 18.671875 13.796875 18.820312 13.832031 18.859375 13.84375 C 18.902344 13.851562 18.90625 13.875 18.878906 13.914062 C 18.847656 13.949219 18.835938 13.941406 18.898438 13.949219 C 18.960938 13.949219 19.09375 13.9375 19.152344 13.878906 C 19.125 13.855469 19.066406 13.867188 19.046875 13.84375 C 19.085938 13.828125 19.121094 13.808594 19.152344 13.777344 C 19.09375 13.78125 19.03125 13.777344 18.972656 13.765625 C 18.941406 13.757812 18.914062 13.746094 18.957031 13.722656 C 18.988281 13.707031 19.011719 13.6875 19.035156 13.664062 C 18.957031 13.683594 18.835938 13.703125 18.730469 13.625 C 18.769531 13.632812 18.859375 13.625 18.890625 13.613281 C 18.863281 13.59375 18.835938 13.585938 18.804688 13.582031 C 18.882812 13.542969 19.039062 13.503906 19.246094 13.585938 C 19.339844 13.578125 19.433594 13.582031 19.523438 13.601562 C 19.5625 13.570312 19.625 13.488281 19.660156 13.472656 C 19.425781 13.488281 19.003906 13.449219 19.015625 13.324219 C 18.9375 13.425781 18.761719 13.480469 18.6875 13.464844 C 18.679688 13.496094 18.710938 13.546875 18.738281 13.570312 C 18.660156 13.585938 18.523438 13.601562 18.460938 13.585938 C 18.5 13.621094 18.5625 13.652344 18.601562 13.652344 C 18.523438 13.652344 18.476562 13.667969 18.410156 13.660156 "/>
<path style=" stroke:none;fill-rule:nonzero;fill:rgb(0%,84.705883%,37.64706%);fill-opacity:1;" d="M 18.894531 13.945312 C 18.964844 13.945312 19.089844 13.9375 19.152344 13.878906 C 19.125 13.855469 19.066406 13.867188 19.046875 13.84375 C 19.085938 13.828125 19.121094 13.808594 19.152344 13.777344 C 19.324219 13.761719 19.46875 13.769531 19.542969 13.75 C 19.613281 13.730469 19.796875 13.738281 19.832031 13.730469 C 19.671875 13.757812 19.640625 13.769531 19.636719 13.796875 C 19.628906 13.828125 19.683594 13.84375 19.722656 13.84375 C 19.65625 13.84375 19.5625 13.917969 19.550781 13.949219 C 19.457031 13.894531 19.417969 13.957031 19.402344 13.980469 C 19.363281 13.964844 19.230469 13.96875 19.164062 14.027344 C 19.078125 14 19.019531 13.988281 18.929688 14 C 18.988281 13.988281 18.976562 13.949219 18.898438 13.945312 Z M 19.65625 13.46875 C 19.710938 13.46875 19.828125 13.476562 19.871094 13.46875 L 19.800781 13.523438 C 19.9375 13.503906 20.121094 13.492188 20.175781 13.503906 C 20.105469 13.492188 20.039062 13.542969 20.003906 13.5625 C 19.976562 13.582031 19.988281 13.59375 20.039062 13.601562 C 20.085938 13.609375 20.144531 13.640625 20.0625 13.632812 C 19.984375 13.625 19.8125 13.621094 19.773438 13.625 C 19.734375 13.632812 19.710938 13.613281 19.773438 13.601562 C 19.816406 13.59375 19.855469 13.582031 19.894531 13.5625 C 19.847656 13.574219 19.757812 13.574219 19.726562 13.5625 C 19.691406 13.550781 19.6875 13.539062 19.714844 13.53125 C 19.75 13.519531 19.726562 13.515625 19.691406 13.519531 C 19.65625 13.519531 19.574219 13.558594 19.523438 13.601562 C 19.574219 13.542969 19.621094 13.5 19.65625 13.472656 Z M 19.65625 13.46875 "/>
<path style=" stroke:none;fill-rule:nonzero;fill:rgb(0%,0%,0%);fill-opacity:1;" d="M 19.054688 13.566406 C 19.121094 13.640625 19.21875 13.683594 19.320312 13.683594 C 19.34375 13.683594 19.398438 13.71875 19.332031 13.722656 C 19.164062 13.730469 19.082031 13.6875 19.007812 13.582031 C 18.992188 13.558594 19.019531 13.527344 19.054688 13.566406 M 20.050781 12.15625 C 20.136719 12.195312 20.3125 12.234375 20.449219 12.230469 C 20.476562 12.230469 20.519531 12.253906 20.460938 12.257812 C 20.316406 12.277344 20.167969 12.25 20.039062 12.179688 C 20.003906 12.160156 20.015625 12.140625 20.050781 12.15625 "/>
<path style=" stroke:none;fill-rule:nonzero;fill:rgb(0%,84.705883%,37.64706%);fill-opacity:1;" d="M 20.136719 12.15625 C 20.273438 12.15625 20.375 12.15625 20.410156 12.191406 C 20.488281 12.171875 20.632812 12.15625 20.660156 12.164062 C 20.6875 12.171875 20.730469 12.152344 20.65625 12.136719 C 20.582031 12.121094 20.414062 12.113281 20.359375 12.125 C 20.304688 12.136719 20.136719 12.140625 20.085938 12.132812 C 20.105469 12.132812 20.121094 12.140625 20.136719 12.15625 M 20.660156 12.207031 C 20.722656 12.175781 20.90625 12.207031 20.960938 12.183594 C 20.921875 12.230469 21.089844 12.234375 21.234375 12.199219 C 21.179688 12.230469 21.058594 12.238281 21.007812 12.261719 C 20.957031 12.285156 20.929688 12.265625 20.890625 12.25 C 20.820312 12.214844 20.738281 12.203125 20.660156 12.210938 Z M 20.660156 12.207031 "/>
<path style=" stroke:none;fill-rule:nonzero;fill:rgb(0%,84.705883%,37.64706%);fill-opacity:1;" d="M 21.234375 12.199219 C 21.089844 12.230469 20.921875 12.230469 20.960938 12.183594 C 20.90625 12.207031 20.726562 12.175781 20.660156 12.207031 C 20.730469 12.167969 20.777344 12.203125 20.824219 12.121094 C 20.855469 12.125 20.925781 12.128906 20.949219 12.097656 C 20.988281 12.109375 21.066406 12.125 21.085938 12.148438 C 21.105469 12.171875 21.136719 12.140625 21.113281 12.109375 C 21.179688 12.085938 21.136719 12.136719 21.289062 12.097656 C 21.324219 12.089844 21.398438 12.074219 21.425781 12.074219 C 21.367188 12.125 21.300781 12.164062 21.230469 12.199219 Z M 21.234375 12.199219 "/>
<path style="fill-rule:nonzero;fill:rgb(100%,100%,0%);fill-opacity:1;stroke-width:0.4;stroke-linecap:butt;stroke-linejoin:miter;stroke:rgb(0%,0%,0%);stroke-opacity:1;stroke-miterlimit:4;" d="M 471.6 291.118421 L 470.9 204.276316 C 470.9 200.427632 468.9 201.315789 468.9 204.276316 L 468.9 290.328947 Z M 499.8 199.736842 L 502.9 291.118421 L 502.5 291.907895 L 500.5 291.907895 L 498.6 199.736842 Z M 526.4 277.105263 L 524.8 202.796053 C 524.8 200.427632 522.8 200.822368 522.8 203.190789 L 524.4 277.105263 Z M 526.4 277.105263 " transform="matrix(0.0390625,0,0,0.0395833,0,0)"/>
<path style="fill-rule:nonzero;fill:rgb(100%,100%,100%);fill-opacity:1;stroke-width:0.4;stroke-linecap:butt;stroke-linejoin:miter;stroke:rgb(0%,0%,0%);stroke-opacity:1;stroke-miterlimit:4;" d="M 484.2 214.934211 L 456.8 214.539474 C 455.6 219.967105 462.3 219.473684 464.6 218.486842 C 467.7 220.460526 470.1 220.460526 471.6 218.486842 C 474 220.361842 477.1 219.967105 478.3 218.486842 C 481.4 221.151316 484.9 218.486842 484.2 214.539474 Z M 486.2 228.157895 L 458.7 228.157895 C 453.7 232.894737 459.9 235.164474 465.4 232.105263 C 466.2 233.684211 469.3 234.375 471.6 233.289474 C 474 234.769737 477.1 233.684211 478.6 232.105263 C 481.4 233.289474 484.9 233.684211 486.5 228.059211 Z M 485.3 245.822368 L 458.7 245.822368 C 458.4 250.065789 463.8 249.671053 465.7 248.486842 C 467.7 251.743421 472.4 250.855263 474 248.881579 C 476.7 250.855263 479 250.460526 480.2 248.881579 C 483 251.348684 485.7 248.092105 485.3 245.822368 Z M 487 262.993421 L 456.9 262.598684 C 455.3 267.631579 460 268.519737 461.9 267.335526 C 462.8 270 466.7 269.309211 467.9 267.335526 C 469.4 268.519737 471.4 267.730263 472.1 266.546053 C 472.5 269.210526 476.1 269.605263 478.8 267.335526 C 484.3 271.184211 489.3 266.546053 486.6 262.993421 Z M 513.2 255.986842 L 488.6 255.986842 C 489.7 260.625 492.1 261.710526 496 259.046053 C 499.1 262.203947 503.8 261.019737 505 259.539474 C 510.5 263.782895 513.2 258.651316 513.2 255.493421 Z M 510.8 238.815789 L 486.6 238.026316 C 487 244.243421 492.9 243.848684 496 241.480263 C 498 244.243421 501.9 243.453947 503.8 241.480263 C 506.5 244.638158 511.6 242.664474 510.8 238.815789 Z M 514 219.572368 L 488 219.572368 C 488 223.914474 493.8 226.184211 498.1 222.335526 C 499.3 227.368421 504 225.789474 506 223.914474 C 509 227.763158 515.7 223.125 513.8 219.868421 Z M 512.4 206.644737 L 488.9 207.138158 C 488.9 210.986842 494.4 212.565789 496.4 209.407895 C 497.6 211.381579 501.4 210.986842 502.6 209.407895 C 504.2 212.171053 506.6 210.197368 507.3 209.407895 C 510.1 211.381579 512.8 210.197368 512.4 206.743421 Z M 539.4 215.328947 L 511.2 214.934211 C 511.2 217.598684 514 218.881579 515.9 217.598684 C 515.9 220.756579 519.9 221.644737 522.6 219.177632 C 524.1 221.940789 529.2 222.335526 531.2 219.177632 C 535.1 222.730263 539.8 219.967105 539 215.230263 Z M 539 238.322368 L 511.6 238.322368 C 511.6 242.269737 515.9 243.355263 518.6 241.480263 C 519.1 244.638158 522.6 245.032895 524.6 243.059211 C 527.3 245.822368 531.2 246.118421 533.6 243.059211 C 536.6 244.243421 539.4 241.480263 539 238.421053 Z M 537.4 259.144737 L 515.5 259.144737 C 515.5 262.993421 520.2 262.993421 522.2 261.118421 C 524.5 263.782895 527.7 263.782895 529.6 261.809211 C 532.3 264.177632 537 263.388158 537.4 259.144737 Z M 537.4 259.144737 " transform="matrix(0.0390625,0,0,0.0395833,0,0)"/>
<path style="fill-rule:nonzero;fill:rgb(0%,0%,0%);fill-opacity:1;stroke-width:0.4;stroke-linecap:butt;stroke-linejoin:miter;stroke:rgb(0%,0%,0%);stroke-opacity:1;stroke-miterlimit:4;" d="M 502.5 292.006579 C 490.8 292.006579 478.7 292.006579 470.5 291.118421 C 462.3 290.427632 459.9 288.848684 454.1 285.296053 L 432 271.973684 C 430.1 271.184211 428.2 272.368421 430.9 274.046053 L 452.8 288.355263 C 457.8 291.611842 462.3 295.559211 466.1 300.098684 C 470.8 305.230263 473.9 305.230263 476.2 304.440789 C 478.6 303.651316 481.7 302.368421 485.2 303.256579 C 488.4 304.046053 493 304.440789 495.4 304.046053 C 497.4 306.019737 502.4 305.625 505.2 304.835526 C 507.8 304.046053 510 303.947368 511.8 304.440789 L 518.5 304.440789 C 520.5 304.440789 525.5 303.256579 529 303.651316 C 533 304.440789 536.4 303.651316 538.8 303.651316 C 541.3 303.059211 544 302.861842 546.6 303.256579 C 549 301.677632 549.7 299.703947 550.6 297.828947 C 552.9 297.434211 553.6 297.039474 554 295.756579 L 556.4 289.638158 L 557.2 289.638158 L 557.2 287.171053 L 555.6 284.901316 L 556.4 280.855263 L 558.4 280.164474 L 557.6 276.217105 L 523.2 277.105263 C 522 278.289474 521.1 279.769737 520.8 281.447368 L 510.6 282.927632 C 509.5 283.322368 508.3 283.322368 507.1 284.901316 Z M 502.5 292.006579 " transform="matrix(0.0390625,0,0,0.0395833,0,0)"/>
<path style="fill-rule:nonzero;fill:rgb(0%,0%,0%);fill-opacity:1;stroke-width:0.4;stroke-linecap:butt;stroke-linejoin:miter;stroke:rgb(0%,0%,0%);stroke-opacity:1;stroke-miterlimit:4;" d="M 543.6 276.710526 L 548.6 257.467105 C 549.4 255.493421 547.5 255.197368 546.7 257.467105 L 541.7 276.710526 Z M 543.6 276.710526 " transform="matrix(0.0390625,0,0,0.0395833,0,0)"/>
<path style="fill-rule:nonzero;fill:rgb(100%,100%,100%);fill-opacity:1;stroke-width:0.4;stroke-linecap:butt;stroke-linejoin:miter;stroke:rgb(0%,0%,0%);stroke-opacity:1;stroke-miterlimit:4;" d="M 563.5 255.197368 C 559.2 257.171053 556.9 258.256579 554.9 257.467105 C 552.9 256.677632 550.6 256.282895 549.1 257.072368 L 549.1 257.467105 C 547.7 262.5 546.3 267.434211 544.8 272.368421 C 547.8 273.552632 553.4 273.552632 554.5 272.368421 C 556.1 270.789474 559.6 271.184211 561.5 271.184211 C 562.7 269.605263 563.1 267.730263 562.7 266.940789 C 562.3 266.052632 562.7 264.177632 562.7 262.894737 C 562.7 261.907895 564.3 257.467105 563.5 255.197368 Z M 563.5 255.197368 " transform="matrix(0.0390625,0,0,0.0395833,0,0)"/>
<path style="fill:none;stroke-width:0.4;stroke-linecap:butt;stroke-linejoin:miter;stroke:rgb(0%,0%,0%);stroke-opacity:1;stroke-miterlimit:4;" d="M 465 218.388158 C 457.4 238.125 446.9 256.677632 433.7 273.157895 M 441.5 277.894737 C 458.9 263.881579 473.9 247.302632 486.1 228.552632 M 458.7 245.427632 C 457.6 255.986842 454.4 274.736842 452.9 284.506579 M 463 268.914474 C 459.1 272.763158 454 278.980263 449.8 282.532895 M 499.4 247.697368 C 496.3 250.855263 492.8 254.703947 489.2 255.592105 M 501.4 248.585526 C 504.3 251.842105 507.9 254.407895 511.9 255.986842 M 499.4 231.710526 C 496 234.671053 492 237.039474 487.7 238.421053 M 501 232.006579 C 503.3 234.276316 506 237.039474 509.6 238.717105 M 488.5 219.473684 C 492.4 218.388158 496 216.315789 499 213.552632 M 500.2 213.552632 C 503.2 216.414474 506.8 218.585526 510.7 219.868421 M 489.2 206.940789 C 492.9 206.25 496.2 204.375 498.6 201.513158 M 499.8 200.723684 C 502.5 203.092105 507.6 206.151316 510.4 206.644737 M 522.9 209.703947 C 521.3 211.677632 517 214.835526 514.3 214.835526 M 524.8 209.802632 C 526 211.677632 529.1 214.835526 531.1 214.835526 M 512.3 238.322368 C 516.5 236.743421 520.3 234.177632 523.3 230.822368 M 525.3 231.217105 C 527.2 234.078947 529.7 236.447368 532.6 238.223684 M 516.6 258.552632 C 518.2 258.552632 522.5 256.184211 523.6 253.618421 M 526 252.335526 C 528.1 255 530.8 257.269737 533.8 259.046053 M 460.7 262.5 C 465.7 260.921053 475.6 254.703947 480.7 248.782895 M 471.3 256.184211 C 475.2 259.046053 480.3 262.203947 483.8 262.894737 M 459.5 245.328947 C 463 243.947368 466.1 241.875 468.9 239.407895 M 470.9 239.013158 C 472 240.592105 480.2 245.723684 483.8 245.723684 M 468.9 222.730263 C 465.9 225 462.6 226.776316 459.1 228.059211 M 470.9 222.631579 C 473.6 224.605263 479.5 228.059211 482.9 228.059211 M 469 207.039474 C 466.7 209.309211 462.8 213.157895 459.6 214.440789 M 471 207.434211 C 472.5 210.098684 477.2 214.046053 480.3 214.440789 M 511.6 224.605263 C 519.1 237.532895 532.3 253.618421 545.6 262.105263 M 490.6 210.098684 C 501.5 225.690789 522.6 259.835526 542.9 272.269737 M 546.9 259.046053 C 541.7 266.151316 535.2 272.269737 527.7 277.006579 M 545.2 263.289474 C 538.6 252.335526 535.1 238.717105 529.6 220.263158 M 474.9 268.815789 L 482.7 292.203947 M 473.3 268.421053 L 480.7 291.809211 M 471.4 267.236842 L 478.4 291.414474 M 470.6 267.631579 L 476 291.414474 M 476 290.723684 L 482.7 290.723684 M 481.9 288.256579 L 475.7 288.256579 M 481.1 286.282895 L 474.9 286.282895 M 480.3 284.407895 L 474 284.407895 M 479 282.138158 L 474 282.138158 M 473.6 280.065789 L 478.6 280.065789 M 473.2 278.486842 L 478.2 278.486842 M 472.8 276.513158 L 477.5 276.513158 M 472.5 275.032895 L 476.7 275.032895 M 472 272.960526 L 476 272.960526 M 471.6 271.480263 L 475.6 271.480263 M 471.3 270.296053 L 475.2 270.296053 M 471.2 268.815789 L 474.8 268.815789 M 464.6 268.815789 L 459.9 288.256579 M 465.8 268.815789 L 461.8 289.144737 M 467 268.026316 L 463.8 289.539474 M 468.5 267.532895 L 466.2 290.328947 M 468.9 288.651316 L 461.1 288.651316 M 468.9 286.677632 L 459.9 286.677632 M 468.9 284.407895 L 460.7 284.407895 M 468.5 282.434211 L 461.1 282.434211 M 468.9 280.361842 L 461.5 280.361842 M 468.9 278.092105 L 462.3 278.092105 M 468.9 276.118421 L 462.3 276.118421 M 468.5 274.243421 L 462.7 274.243421 M 468.5 272.171053 L 463.5 272.171053 M 468.5 270.296053 L 463.8 270.296053 M 468.5 269.111842 L 464.2 269.111842 M 468.2 290.723684 L 468.2 267.631579 M 493.5 259.835526 L 478 291.513158 M 494.8 259.539474 L 481.5 291.907895 M 495.6 259.144737 L 485 291.907895 M 496.8 259.934211 L 488.2 291.907895 M 488.6 290.822368 L 478.8 290.822368 M 489.3 287.565789 L 480 287.565789 M 489.7 285.296053 L 481.9 285.296053 M 491.3 282.927632 L 483.5 282.927632 M 491.7 280.559211 L 484.3 280.559211 M 492.5 278.190789 L 485.5 278.190789 M 493.2 275.526316 L 487 275.526316 M 493.6 273.453947 L 487.8 273.453947 M 494.4 271.184211 L 488.9 271.184211 M 494.9 269.605263 L 489.7 269.605263 M 495.2 268.125 L 489.7 268.125 M 494.8 266.546053 L 490.9 266.546053 M 494.9 265.263158 L 491.3 265.263158 M 495.2 263.782895 L 492 263.782895 M 495.9 262.203947 L 492.8 262.203947 M 495.8 261.019737 L 493.1 261.019737 M 506.4 260.625 L 513.1 282.631579 M 507.6 261.019737 L 515.8 282.236842 M 508.8 261.019737 L 518.6 281.842105 M 520.9 279.769737 L 509.9 260.625 M 520.9 280.164474 L 513.1 280.164474 M 520.1 277.105263 L 512.3 277.105263 M 519 274.736842 L 511.5 274.736842 M 517.4 271.973684 L 510.7 271.973684 M 515.8 269.605263 L 510 269.605263 M 514.3 266.940789 L 509.2 266.940789 M 513.1 264.177632 L 508.4 264.177632 M 511.5 261.809211 L 507.6 261.809211 M 520.1 262.203947 L 513.1 282.532895 M 522.1 261.513158 L 515.8 282.236842 M 518.6 281.842105 L 523.3 262.203947 M 524.4 262.993421 L 520.5 281.447368 M 513.9 280.164474 L 520.5 280.164474 M 514.7 277.894737 L 521.3 277.894737 M 515.4 275.131579 L 521.7 275.131579 M 516.7 272.763158 L 522.5 272.763158 M 517.4 270 L 522.9 270 M 518.2 267.730263 L 523.2 267.730263 M 519.3 264.868421 L 524 264.868421 M 520.1 262.598684 L 524.1 262.598684 M 527.6 262.993421 L 530.6 277.006579 M 528.7 262.203947 L 533 276.710526 M 530.3 262.203947 L 535 276.710526 M 532.2 262.993421 L 537.3 276.710526 M 536.9 275.526316 L 530.3 275.526316 M 536.2 273.453947 L 529.9 273.453947 M 535.4 271.578947 L 529.5 271.578947 M 534.5 269.210526 L 528.7 269.210526 M 533.4 267.236842 L 528 267.236842 M 532.7 265.263158 L 527.7 265.263158 M 532 263.289474 L 527.3 263.289474 " transform="matrix(0.0390625,0,0,0.0395833,0,0)"/>
<path style=" stroke:none;fill-rule:nonzero;fill:rgb(0%,72.156864%,0%);fill-opacity:1;" d="M 18.265625 11.84375 C 18.386719 11.765625 18.597656 11.777344 18.707031 11.859375 C 18.835938 11.789062 19.066406 11.808594 19.171875 11.90625 C 19.335938 11.789062 19.472656 11.773438 19.628906 11.882812 C 19.769531 11.789062 19.957031 11.789062 20.09375 11.890625 C 20.238281 11.824219 20.394531 11.769531 20.53125 11.914062 C 20.394531 11.816406 20.210938 11.828125 20.089844 11.941406 C 19.953125 11.804688 19.710938 11.855469 19.628906 11.953125 C 19.570312 11.890625 19.488281 11.855469 19.402344 11.855469 C 19.316406 11.859375 19.234375 11.894531 19.179688 11.960938 C 19.035156 11.84375 18.824219 11.835938 18.710938 11.921875 C 18.582031 11.828125 18.417969 11.796875 18.265625 11.84375 "/>
<path style=" stroke:none;fill-rule:nonzero;fill:rgb(81.176472%,38.431373%,0%);fill-opacity:1;" d="M 20.433594 11.667969 C 19.804688 11.78125 18.425781 11.707031 18.128906 11.625 C 18.023438 11.601562 18.050781 11.5625 18.140625 11.585938 C 18.488281 11.664062 19.230469 11.664062 19.636719 11.640625 L 19.878906 11.304688 C 19.917969 11.253906 19.933594 11.25 20.015625 11.238281 L 20.355469 11.179688 L 20.355469 11.226562 C 20.347656 11.238281 20.339844 11.25 20.328125 11.253906 C 20.328125 11.332031 20.34375 11.535156 20.363281 11.609375 L 20.40625 11.597656 C 20.433594 11.589844 20.460938 11.664062 20.433594 11.667969 "/>
<path style=" stroke:none;fill-rule:nonzero;fill:rgb(81.176472%,38.431373%,0%);fill-opacity:1;" d="M 21.46875 11.699219 L 21.554688 11.699219 C 21.578125 11.699219 21.617188 11.679688 21.628906 11.640625 L 21.714844 11.390625 L 21.648438 11.292969 L 21.683594 11.082031 L 21.761719 11.046875 C 21.769531 11.035156 21.761719 10.984375 21.746094 10.96875 L 20.511719 11.007812 C 20.472656 11.007812 20.457031 11.007812 20.445312 11.058594 C 20.375 11.402344 20.496094 11.753906 20.757812 11.976562 C 20.777344 11.992188 20.804688 11.976562 20.769531 11.949219 C 20.703125 11.882812 20.648438 11.808594 20.601562 11.722656 L 20.804688 11.722656 C 20.820312 11.792969 20.871094 11.929688 20.882812 11.957031 C 20.890625 11.984375 20.914062 11.984375 20.898438 11.945312 C 20.875 11.867188 20.859375 11.769531 20.847656 11.71875 L 21.054688 11.71875 L 21.070312 11.925781 C 21.070312 11.953125 21.09375 11.953125 21.09375 11.921875 L 21.09375 11.714844 L 21.28125 11.707031 L 21.265625 11.914062 C 21.261719 11.949219 21.277344 11.960938 21.285156 11.914062 L 21.3125 11.707031 L 21.441406 11.699219 C 21.441406 11.75 21.398438 11.875 21.386719 11.90625 C 21.375 11.945312 21.394531 11.945312 21.40625 11.910156 C 21.433594 11.84375 21.453125 11.773438 21.46875 11.703125 Z M 21.46875 11.699219 "/>
<path style=" stroke:none;fill-rule:nonzero;fill:rgb(0%,0%,0%);fill-opacity:1;" d="M 20.566406 11.667969 C 20.546875 11.625 20.476562 11.46875 20.472656 11.351562 L 20.746094 11.351562 C 20.753906 11.4375 20.777344 11.621094 20.792969 11.664062 Z M 20.792969 11.34375 C 20.796875 11.414062 20.832031 11.640625 20.839844 11.660156 L 21.058594 11.660156 L 21.042969 11.339844 Z M 20.484375 11.066406 C 20.476562 11.144531 20.472656 11.226562 20.476562 11.304688 L 20.738281 11.292969 L 20.714844 11.058594 Z M 20.769531 11.058594 L 20.785156 11.296875 L 21.042969 11.289062 L 21.03125 11.050781 Z M 21.082031 11.046875 L 21.089844 11.285156 L 21.3125 11.28125 C 21.3125 11.230469 21.324219 11.074219 21.320312 11.039062 Z M 21.363281 11.039062 L 21.355469 11.277344 L 21.597656 11.269531 C 21.609375 11.21875 21.632812 11.082031 21.632812 11.03125 Z M 21.609375 11.324219 L 21.351562 11.332031 L 21.328125 11.648438 L 21.574219 11.640625 L 21.664062 11.402344 C 21.644531 11.363281 21.628906 11.351562 21.609375 11.324219 M 21.089844 11.339844 L 21.097656 11.65625 L 21.285156 11.648438 L 21.308594 11.332031 Z M 20.035156 11.277344 L 19.933594 11.292969 L 19.6875 11.640625 L 20.050781 11.632812 Z M 20.082031 11.265625 L 20.097656 11.628906 L 20.316406 11.613281 L 20.277344 11.234375 Z M 20.082031 11.265625 "/>
<path style="fill-rule:nonzero;fill:rgb(0%,0%,0%);fill-opacity:1;stroke-width:0.4;stroke-linecap:butt;stroke-linejoin:miter;stroke:rgb(0%,0%,0%);stroke-opacity:1;stroke-miterlimit:4;" d="M 486.9 262.993421 L 456.8 262.993421 L 456.8 262.203947 L 486.8 262.598684 Z M 510.4 238.815789 C 510.7 238.815789 510.7 238.815789 510.4 238.815789 L 486.9 238.421053 C 486.5 238.421053 486.5 238.421053 486.9 238.421053 L 510.4 238.421053 Z M 485.4 245.427632 C 485.7 245.427632 485.7 245.822368 485.4 245.822368 L 458.7 245.822368 C 458.4 245.822368 458.7 245.427632 458.7 245.427632 Z M 486.1 228.157895 C 486.5 228.157895 486.5 228.552632 486.1 228.552632 L 458.4 228.552632 C 458 228.552632 458 228.157895 458.4 228.157895 Z M 484.1 214.539474 C 484.5 214.638158 484.5 214.736842 484.1 214.934211 L 457.1 214.934211 C 456.8 214.934211 457.1 214.144737 457.1 214.144737 L 484.5 214.539474 Z M 484.1 214.539474 " transform="matrix(0.0390625,0,0,0.0395833,0,0)"/>
<path style="fill-rule:nonzero;fill:rgb(100%,100%,100%);fill-opacity:1;stroke-width:0.4;stroke-linecap:butt;stroke-linejoin:miter;stroke:rgb(0%,0%,0%);stroke-opacity:1;stroke-miterlimit:4;" d="M 512.3 206.743421 L 488.8 207.138158 Z M 512.3 206.743421 " transform="matrix(0.0390625,0,0,0.0395833,0,0)"/>
<path style="fill-rule:nonzero;fill:rgb(0%,0%,0%);fill-opacity:1;stroke-width:0.4;stroke-linecap:butt;stroke-linejoin:miter;stroke:rgb(0%,0%,0%);stroke-opacity:1;stroke-miterlimit:4;" d="M 513.5 219.967105 C 513.9 219.967105 513.9 219.967105 513.5 219.967105 L 488 219.967105 C 487.6 219.967105 487.6 219.967105 488 219.967105 Z M 538.9 238.026316 L 538.9 238.421053 L 511.5 238.421053 C 510.7 238.421053 510.7 238.421053 511.5 238.421053 L 539 238.421053 Z M 538.9 214.934211 C 539.7 214.934211 539.7 215.328947 538.9 215.328947 L 511 215.328947 C 510.6 215.328947 510.6 214.934211 511 214.934211 L 539.2 214.934211 Z M 513 255.592105 C 513.4 255.592105 513.4 255.986842 513 255.986842 L 488 255.986842 L 488 255.592105 Z M 537.2 259.144737 C 537.6 259.144737 537.6 259.144737 537.2 259.144737 L 515.3 259.144737 Z M 537.2 259.144737 " transform="matrix(0.0390625,0,0,0.0395833,0,0)"/>
<path style="fill-rule:nonzero;fill:rgb(93.725491%,2.745098%,17.647059%);fill-opacity:1;stroke-width:0.4;stroke-linecap:butt;stroke-linejoin:miter;stroke:rgb(0%,0%,0%);stroke-opacity:1;stroke-miterlimit:4;" d="M 557.3 262.993421 C 557.7 261.217105 557.7 259.342105 557.3 257.467105 C 556.5 257.763158 555.7 257.763158 554.9 257.467105 L 553.7 256.677632 C 553.6 259.243421 553.1 261.809211 552.2 264.177632 C 551 264.177632 548.2 264.177632 547.1 263.388158 L 545.9 267.335526 C 547.8 267.730263 549.9 267.730263 551.8 267.335526 C 551.9 269.605263 551.3 271.578947 550.2 273.157895 C 552.2 273.157895 554.2 273.157895 554.5 271.973684 C 555.7 270.394737 555.7 268.026316 556.1 266.940789 L 558.1 266.546053 L 560 265.657895 L 562.7 265.263158 L 562.7 262.993421 L 563.5 261.414474 L 557.3 263.388158 Z M 557.3 262.993421 " transform="matrix(0.0390625,0,0,0.0395833,0,0)"/>
<path style="fill-rule:nonzero;fill:rgb(0%,0%,0%);fill-opacity:1;stroke-width:0.4;stroke-linecap:butt;stroke-linejoin:miter;stroke:rgb(0%,0%,0%);stroke-opacity:1;stroke-miterlimit:4;" d="M 460.3 130.756579 C 457.2 130.756579 450.1 130.756579 448.6 131.644737 C 447.4 132.434211 447 132.828947 449.4 133.223684 C 451.7 133.618421 456 135.197368 458.4 136.282895 C 460.7 137.861842 462.3 140.328947 462.3 144.078947 C 460.5 153.947368 465.2 163.914474 474 168.848684 C 474.4 169.243421 474.8 169.539474 474.4 171.118421 L 473.2 175.361842 C 473.2 176.151316 472.8 177.039474 474 176.644737 L 470 182.763158 C 463.8 182.072368 458.4 182.763158 458.4 189.769737 C 458.4 190.657895 458.4 191.447368 459.1 189.769737 C 460.3 188.289474 461.5 186.809211 464.2 186.019737 C 462.6 188.684211 461.9 190.953947 462.2 192.631579 C 462.2 193.815789 463 194.605263 463.8 192.631579 C 464.2 190.953947 465.8 189.473684 467 188.289474 C 467.7 187.894737 467.7 187.894737 467.3 189.078947 C 467.1 190.657895 467.6 192.138158 468.5 193.421053 C 469.4 194.111842 469.6 193.914474 469.3 192.631579 C 469.3 190.953947 469.3 188.289474 471.3 187.598684 C 473.6 186.019737 475.9 186.710526 476.7 188.289474 C 477.9 190.263158 478.7 188.289474 477.5 186.710526 C 476.3 185.230263 475.2 183.157895 473.6 183.157895 L 477.6 176.644737 C 477.7 175.756579 478.2 175.460526 479.1 175.756579 C 479.1 176.151316 479.9 176.151316 480.2 174.967105 L 483 169.539474 L 485.3 168.848684 L 489.3 174.572368 L 489.3 177.039474 C 489.3 178.519737 487.7 181.973684 487.3 183.157895 C 482.6 183.157895 480.3 183.157895 478.7 186.019737 C 477.9 187.105263 479.1 187.5 480.2 187.105263 C 481.4 186.414474 482.8 186.019737 484.2 186.019737 C 484.9 186.019737 485.3 186.710526 484.2 187.105263 C 481.4 188.289474 479.5 190.263158 479.5 193.026316 C 479.5 193.815789 480.2 194.210526 480.6 193.026316 C 481.7 191.052632 483.6 189.671053 485.7 188.980263 C 485.7 190.953947 486.1 194.210526 487.7 195 C 488.8 195.690789 488.8 195 488.5 193.815789 C 487.7 191.842105 488.5 189.769737 489.6 188.684211 C 491.6 186.414474 496.3 189.473684 497.5 190.263158 C 498.2 190.953947 499 191.447368 498.2 189.078947 C 497.8 186.414474 493.9 185.131579 490.4 184.440789 L 495.1 167.960526 C 497.1 169.243421 499.1 165.986842 502.1 167.171053 C 507.4 169.539474 512.3 172.401316 517 175.756579 C 518.6 177.039474 519 176.644737 519.7 175.756579 C 520.5 175.361842 521.7 175.756579 522.9 175.756579 C 523.6 176.151316 524.4 176.644737 523.3 174.177632 C 521.1 170.131579 517.8 166.677632 513.9 164.111842 C 517 164.111842 520.9 164.111842 520.9 163.322368 C 520.9 162.532895 516.2 160.855263 514.3 160.855263 C 516.6 160.460526 518.7 159.473684 520.5 157.894737 C 521.4 157.006579 520.4 156.611842 517.4 156.611842 C 509.2 156.611842 504.9 156.611842 500.6 154.342105 C 493.6 150.296053 489.2 145.657895 485.7 144.078947 C 484.2 142.993421 483 140.625 481.8 138.651316 C 479.8 132.730263 479.8 129.671053 474.8 127.697368 C 469.8 125.723684 463 128.092105 460.3 130.756579 Z M 460.3 130.756579 " transform="matrix(0.0390625,0,0,0.0395833,0,0)"/>
<path style="fill-rule:nonzero;fill:rgb(100%,100%,100%);fill-opacity:1;stroke-width:0.4;stroke-linecap:butt;stroke-linejoin:miter;stroke:rgb(0%,0%,0%);stroke-opacity:1;stroke-miterlimit:4;" d="M 460.7 132.434211 L 454.1 132.434211 C 454.1 132.434211 453.3 132.434211 454.1 132.434211 L 459.9 134.013158 C 461.1 134.013158 460.7 135.098684 459.9 134.703947 C 459.1 134.407895 458.4 134.703947 459.1 135.493421 C 463.1 138.256579 463.8 139.539474 463.1 150 L 465 151.578947 C 465.8 151.578947 465.4 152.269737 465 151.875 C 464.6 151.480263 463 151.875 464.2 152.664474 C 465.4 153.453947 466.2 153.453947 465 153.453947 C 463.8 153.453947 462.7 154.342105 465 153.947368 C 467 153.947368 468.1 154.736842 465 155.131579 C 462.7 155.131579 463.4 155.921053 465 155.921053 C 467.7 155.921053 467 156.611842 466.2 156.611842 C 465.4 156.611842 465 157.401316 467 157.401316 L 469.7 157.401316 C 470.1 157.401316 470.5 157.401316 469.7 157.796053 C 468.9 157.796053 468.9 158.585526 470.1 158.585526 C 471.3 158.585526 472.1 158.585526 470.9 158.980263 C 470.5 158.980263 469.7 159.375 470.9 159.769737 C 473.6 159.769737 473.9 160.460526 473.2 160.855263 C 472.5 161.348684 472 161.348684 473.2 161.348684 C 474.4 161.348684 475.6 161.743421 474.4 162.138158 C 473.6 162.138158 473.2 162.927632 474.4 162.927632 C 475.6 162.927632 476.4 163.717105 475.6 164.111842 C 474.8 164.506579 474.4 164.901316 475.6 164.901316 C 476.8 164.901316 477 165.098684 476.3 165.592105 C 475.7 166.381579 475 166.381579 474.3 165.592105 C 474.3 164.901316 473.6 164.901316 473.6 165.592105 L 472.8 164.506579 C 472.4 163.322368 471.6 163.322368 471.6 164.506579 C 471.6 165.690789 470.9 164.901316 470.1 164.506579 C 474 168.947368 480.4 170.131579 485.7 167.467105 C 486.1 167.467105 486.5 167.467105 486.9 168.848684 L 489.2 173.092105 C 489.6 173.782895 490.4 173.092105 490.4 172.302632 L 492.8 165.592105 C 492.8 164.506579 494.3 163.618421 493.9 166.776316 C 495.1 165.986842 499.8 165.592105 503.7 166.776316 C 507.5 168.355263 511 170.328947 514.3 172.697368 C 514.8 173.190789 515.6 173.388158 516.3 173.092105 C 517.3 173.092105 517.8 173.092105 515.8 171.118421 C 513.8 169.144737 514.7 168.355263 515.8 169.144737 C 516.9 169.835526 517.8 169.539474 516.6 168.355263 L 512.7 164.901316 C 512.3 164.901316 512.3 164.111842 510.4 164.111842 L 504.4 164.111842 C 503.7 164.111842 502.9 164.111842 505.3 164.901316 C 507.6 165.592105 511.9 168.848684 513.1 169.539474 C 514.3 170.328947 514.7 171.907895 512.7 170.328947 C 508.2 167.368421 503.6 164.703947 498.7 162.532895 C 488.1 163.717105 479.5 164.901316 473.2 158.190789 C 470.1 154.736842 470.1 147.236842 475.2 144.177632 C 474.5 143.190789 474.3 142.697368 474.8 142.598684 L 474.8 140.230263 C 473.9 139.736842 473.3 139.046053 473.2 138.157895 C 472 138.157895 471.2 136.282895 469.3 137.072368 C 467.3 137.861842 467 137.072368 466.2 136.677632 C 465.8 135.888158 465.4 135.888158 464.2 135.888158 C 463 135.888158 462.2 135.888158 462.2 135.098684 C 462.2 134.407895 463 134.407895 464.6 135.098684 C 467.3 136.282895 469.6 137.072368 471.6 134.407895 C 473.2 132.039474 470.9 130.065789 467.7 129.276316 C 464.2 128.486842 461.9 131.348684 460.3 132.434211 Z M 460.7 132.434211 " transform="matrix(0.0390625,0,0,0.0395833,0,0)"/>
<path style="fill-rule:nonzero;fill:rgb(100%,100%,100%);fill-opacity:1;stroke-width:0.4;stroke-linecap:butt;stroke-linejoin:miter;stroke:rgb(0%,0%,0%);stroke-opacity:1;stroke-miterlimit:4;" d="M 477.9 131.151316 C 476.7 130.164474 475.4 129.375 473.9 128.881579 C 472.9 128.881579 472.9 129.671053 473.2 130.065789 L 473.2 132.434211 C 474 132.828947 474.4 133.618421 473.2 133.618421 C 472.4 134.407895 473.2 137.072368 474.4 136.282895 L 475.2 136.282895 C 475.2 136.282895 475.2 137.467105 475.9 137.467105 C 476.7 137.467105 475.9 138.256579 475.9 138.651316 L 476.7 138.651316 C 477.5 138.651316 477.1 140.230263 476.3 140.723684 C 477.4 140.526316 478 140.822368 477.9 141.414474 C 478.3 142.203947 479.5 142.598684 479.5 143.684211 C 479.5 144.868421 479.5 144.868421 477.9 144.473684 C 476.3 144.078947 476.3 144.473684 475.9 145.263158 C 475.5 146.052632 475.2 146.546053 475.9 146.546053 C 476.7 146.546053 477.5 146.940789 476.3 147.335526 C 475.2 147.631579 474 147.335526 473.6 148.421053 C 473.6 149.605263 473.6 150 474.4 149.605263 L 477.1 148.026316 L 479.1 148.421053 C 479.9 148.815789 479.1 150.394737 478.3 149.605263 C 477.5 148.815789 476.7 149.605263 476.3 150 L 474.3 150.789474 C 473.6 150.789474 472.8 150.789474 473.3 152.763158 C 473.3 158.190789 477.5 162.138158 485.3 162.138158 L 498.3 162.138158 C 496 160.460526 494.2 159.769737 493.1 159.769737 L 492 159.769737 C 492.4 159.375 492 158.585526 491.6 158.585526 C 491.2 158.585526 490.4 157.796053 489.6 158.585526 L 485.7 160.559211 C 484.9 160.559211 483.7 160.559211 484.9 159.769737 L 488.5 158.190789 C 489.2 158.190789 488.8 157.401316 488.8 157.401316 C 488.8 157.401316 488.8 156.217105 490 156.611842 C 492.4 158.190789 495.9 160.164474 497 160.164474 C 498.2 160.164474 498.6 159.375 497.8 158.980263 C 497.1 158.585526 496.7 157.796053 496.7 157.401316 C 496.7 157.006579 497.1 156.611842 498.7 157.401316 C 500.2 158.585526 502.5 159.375 503.7 159.769737 C 504.9 160.164474 505.7 160.164474 503.7 158.980263 L 494.7 152.269737 C 493.5 151.184211 493.5 152.269737 493.9 153.059211 C 494.3 153.947368 492.8 154.342105 491.9 153.453947 C 491.2 152.664474 490.8 152.269737 491.9 151.875 C 493.1 151.578947 492.8 151.184211 491.6 149.901316 C 490.1 148.914474 489.5 148.914474 490 149.901316 C 490.5 151.184211 490.3 151.776316 489.2 151.578947 C 488.1 151.184211 486.9 150.394737 488.1 150 C 488.8 149.210526 490.1 148.815789 488.1 147.631579 C 486.1 146.447368 487.3 147.631579 486.9 148.421053 C 486.5 149.210526 485.3 149.210526 484.9 148.421053 C 484.5 147.631579 483.8 147.335526 484.2 146.940789 C 484.5 146.546053 484.5 146.052632 485.3 146.940789 C 486.1 147.631579 486.9 146.940789 485.7 145.657895 C 484.5 144.473684 484.2 144.868421 484.5 145.657895 C 484.8 146.546053 483.8 147.335526 482.2 145.657895 C 481.4 145.263158 481.4 144.473684 482.2 144.078947 C 483 144.078947 483 143.684211 482.2 142.993421 C 479.5 138.256579 480.6 134.703947 477.5 131.151316 Z M 477.9 131.151316 " transform="matrix(0.0390625,0,0,0.0395833,0,0)"/>
<path style=" stroke:none;fill-rule:nonzero;fill:rgb(81.176472%,38.431373%,0%);fill-opacity:1;" d="M 18.671875 5.226562 C 18.664062 5.242188 18.660156 5.238281 18.640625 5.253906 C 18.621094 5.269531 18.613281 5.3125 18.652344 5.308594 C 18.675781 5.304688 18.695312 5.292969 18.707031 5.277344 Z M 18.554688 5.121094 C 18.519531 5.152344 18.511719 5.167969 18.53125 5.167969 C 18.546875 5.164062 18.546875 5.171875 18.53125 5.191406 C 18.515625 5.214844 18.554688 5.226562 18.570312 5.207031 C 18.585938 5.1875 18.59375 5.1875 18.597656 5.207031 C 18.601562 5.226562 18.636719 5.207031 18.648438 5.191406 C 18.617188 5.167969 18.585938 5.144531 18.550781 5.121094 Z M 18.496094 5.296875 C 18.457031 5.316406 18.46875 5.421875 18.53125 5.390625 C 18.550781 5.386719 18.5625 5.390625 18.566406 5.402344 L 18.566406 5.429688 C 18.589844 5.417969 18.613281 5.402344 18.632812 5.382812 C 18.667969 5.335938 18.632812 5.34375 18.578125 5.34375 C 18.523438 5.34375 18.511719 5.332031 18.5625 5.300781 C 18.613281 5.269531 18.574219 5.253906 18.511719 5.261719 C 18.519531 5.269531 18.515625 5.28125 18.496094 5.296875 M 18.726562 5.535156 C 18.695312 5.5 18.714844 5.484375 18.746094 5.464844 L 18.761719 5.453125 L 18.734375 5.351562 C 18.722656 5.359375 18.703125 5.394531 18.695312 5.410156 C 18.691406 5.441406 18.675781 5.453125 18.65625 5.449219 C 18.628906 5.4375 18.605469 5.464844 18.601562 5.496094 L 18.621094 5.496094 C 18.628906 5.503906 18.632812 5.515625 18.628906 5.535156 C 18.703125 5.535156 18.714844 5.578125 18.726562 5.613281 C 18.742188 5.648438 18.753906 5.652344 18.765625 5.625 C 18.773438 5.597656 18.761719 5.566406 18.726562 5.535156 "/>
<path style=" stroke:none;fill-rule:nonzero;fill:rgb(100%,100%,0%);fill-opacity:1;" d="M 18.746094 5.953125 C 18.730469 5.984375 18.730469 5.980469 18.6875 5.980469 C 18.648438 5.984375 18.59375 5.992188 18.570312 6.015625 C 18.558594 6.027344 18.484375 6.035156 18.484375 6.066406 C 18.480469 6.105469 18.488281 6.125 18.515625 6.132812 C 18.546875 6.132812 18.554688 6.140625 18.542969 6.164062 C 18.527344 6.1875 18.519531 6.222656 18.574219 6.230469 C 18.628906 6.230469 18.671875 6.21875 18.683594 6.246094 C 18.699219 6.285156 18.683594 6.328125 18.695312 6.351562 C 18.707031 6.367188 18.742188 6.386719 18.800781 6.402344 C 18.839844 6.410156 18.988281 6.421875 19.035156 6.414062 C 19.074219 6.40625 19.058594 6.378906 19.015625 6.378906 C 18.96875 6.378906 18.9375 6.363281 18.925781 6.332031 C 18.914062 6.296875 18.90625 6.28125 18.933594 6.253906 C 18.957031 6.222656 18.980469 6.203125 18.964844 6.15625 C 18.949219 6.109375 18.925781 6.054688 18.875 6.039062 C 18.824219 6.023438 18.839844 5.949219 18.785156 5.945312 C 18.765625 5.945312 18.753906 5.949219 18.746094 5.953125 "/>
<path style=" stroke:none;fill-rule:nonzero;fill:rgb(81.176472%,38.431373%,0%);fill-opacity:1;" d="M 18.488281 6.390625 C 18.535156 6.398438 18.570312 6.410156 18.535156 6.421875 C 18.5 6.433594 18.476562 6.453125 18.523438 6.457031 C 18.570312 6.460938 18.613281 6.480469 18.574219 6.488281 C 18.535156 6.496094 18.535156 6.527344 18.578125 6.527344 C 18.621094 6.527344 18.644531 6.542969 18.613281 6.566406 C 18.578125 6.582031 18.558594 6.59375 18.535156 6.5625 C 18.515625 6.527344 18.503906 6.523438 18.5 6.542969 C 18.496094 6.5625 18.484375 6.554688 18.464844 6.515625 C 18.453125 6.484375 18.417969 6.46875 18.425781 6.496094 C 18.4375 6.523438 18.402344 6.53125 18.367188 6.515625 C 18.398438 6.554688 18.4375 6.585938 18.480469 6.609375 C 18.527344 6.59375 18.582031 6.609375 18.597656 6.609375 C 18.621094 6.609375 18.679688 6.625 18.714844 6.644531 C 18.75 6.664062 18.773438 6.628906 18.757812 6.59375 C 18.742188 6.558594 18.742188 6.566406 18.726562 6.59375 C 18.707031 6.605469 18.699219 6.585938 18.703125 6.539062 C 18.703125 6.507812 18.679688 6.511719 18.675781 6.535156 C 18.667969 6.554688 18.648438 6.519531 18.65625 6.5 C 18.664062 6.476562 18.660156 6.46875 18.640625 6.476562 C 18.625 6.488281 18.617188 6.472656 18.617188 6.4375 C 18.613281 6.394531 18.597656 6.398438 18.59375 6.417969 C 18.589844 6.425781 18.570312 6.414062 18.542969 6.375 C 18.523438 6.351562 18.503906 6.367188 18.460938 6.378906 Z M 18.488281 6.390625 "/>
<path style=" stroke:none;fill-rule:nonzero;fill:rgb(100%,100%,0%);fill-opacity:1;" d="M 18.96875 6.640625 C 18.753906 6.730469 18.597656 6.691406 18.480469 6.609375 C 18.527344 6.59375 18.582031 6.609375 18.601562 6.609375 C 18.621094 6.609375 18.683594 6.625 18.714844 6.644531 C 18.746094 6.664062 18.773438 6.628906 18.757812 6.59375 C 18.785156 6.636719 18.8125 6.65625 18.84375 6.652344 Z M 18.507812 5.621094 C 18.496094 5.578125 18.476562 5.5625 18.457031 5.570312 C 18.4375 5.570312 18.417969 5.5625 18.394531 5.554688 C 18.371094 5.542969 18.335938 5.554688 18.332031 5.605469 C 18.328125 5.65625 18.292969 5.675781 18.253906 5.707031 C 18.214844 5.730469 18.195312 5.765625 18.195312 5.8125 C 18.195312 5.859375 18.183594 5.867188 18.15625 5.90625 L 18.113281 5.957031 L 18.160156 5.984375 C 18.191406 6 18.179688 6.019531 18.152344 6.011719 C 18.125 6.003906 18.09375 6.019531 18.144531 6.027344 C 18.191406 6.039062 18.210938 6.066406 18.167969 6.066406 C 18.117188 6.054688 18.066406 6.101562 18.15625 6.089844 C 18.246094 6.078125 18.277344 6.125 18.175781 6.125 C 18.070312 6.125 18.109375 6.160156 18.167969 6.160156 C 18.265625 6.160156 18.234375 6.1875 18.207031 6.1875 C 18.179688 6.1875 18.171875 6.226562 18.238281 6.214844 L 18.261719 6.175781 C 18.273438 6.144531 18.28125 6.050781 18.320312 6.023438 C 18.359375 5.996094 18.375 5.957031 18.375 5.933594 C 18.375 5.910156 18.433594 5.785156 18.464844 5.757812 C 18.503906 5.730469 18.519531 5.667969 18.503906 5.625 Z M 18.507812 5.621094 "/>
<path style=" stroke:none;fill-rule:nonzero;fill:rgb(81.176472%,38.431373%,0%);fill-opacity:1;" d="M 18.429688 5.628906 C 18.394531 5.601562 18.355469 5.621094 18.355469 5.667969 C 18.351562 5.707031 18.335938 5.730469 18.300781 5.746094 C 18.265625 5.769531 18.242188 5.800781 18.230469 5.839844 C 18.230469 5.878906 18.238281 5.898438 18.214844 5.929688 C 18.1875 5.957031 18.183594 5.980469 18.199219 6 C 18.222656 6.015625 18.222656 6.015625 18.226562 6.039062 C 18.238281 6.0625 18.28125 6.039062 18.28125 6.011719 C 18.28125 5.984375 18.292969 5.984375 18.320312 5.96875 C 18.351562 5.953125 18.398438 5.875 18.386719 5.855469 C 18.378906 5.835938 18.347656 5.816406 18.386719 5.785156 C 18.425781 5.753906 18.457031 5.746094 18.457031 5.722656 C 18.457031 5.699219 18.464844 5.679688 18.476562 5.671875 C 18.488281 5.660156 18.453125 5.644531 18.429688 5.632812 Z M 18.429688 5.628906 "/>
<path style=" stroke:none;fill-rule:nonzero;fill:rgb(0%,0%,0%);fill-opacity:1;" d="M 18.429688 5.589844 C 18.40625 5.582031 18.390625 5.632812 18.425781 5.640625 C 18.460938 5.648438 18.464844 5.605469 18.425781 5.59375 Z M 18.425781 5.65625 C 18.398438 5.660156 18.367188 5.695312 18.410156 5.695312 C 18.457031 5.6875 18.472656 5.65625 18.421875 5.65625 Z M 18.371094 5.722656 C 18.34375 5.734375 18.351562 5.773438 18.390625 5.746094 C 18.429688 5.71875 18.4375 5.6875 18.371094 5.722656 M 18.332031 5.777344 C 18.304688 5.792969 18.304688 5.832031 18.347656 5.804688 C 18.386719 5.777344 18.398438 5.742188 18.332031 5.777344 "/>
<path style=" stroke:none;fill-rule:nonzero;fill:rgb(0%,0%,0%);fill-opacity:1;" d="M 18.277344 5.808594 C 18.25 5.820312 18.265625 5.855469 18.304688 5.832031 C 18.34375 5.808594 18.34375 5.769531 18.277344 5.808594 M 18.308594 5.84375 C 18.277344 5.855469 18.296875 5.890625 18.335938 5.867188 C 18.375 5.84375 18.375 5.808594 18.304688 5.84375 Z M 18.308594 5.84375 "/>
<path style=" stroke:none;fill-rule:nonzero;fill:rgb(0%,0%,0%);fill-opacity:1;" d="M 18.257812 5.855469 C 18.234375 5.871094 18.25 5.902344 18.292969 5.878906 C 18.332031 5.855469 18.328125 5.820312 18.257812 5.855469 M 18.292969 5.894531 C 18.261719 5.90625 18.277344 5.941406 18.320312 5.917969 C 18.359375 5.890625 18.359375 5.859375 18.289062 5.894531 Z M 18.292969 5.894531 "/>
<path style=" stroke:none;fill-rule:nonzero;fill:rgb(0%,0%,0%);fill-opacity:1;" d="M 18.242188 5.917969 C 18.21875 5.929688 18.234375 5.964844 18.277344 5.941406 C 18.316406 5.917969 18.308594 5.882812 18.246094 5.917969 Z M 18.242188 5.917969 "/>
<path style=" stroke:none;fill-rule:nonzero;fill:rgb(0%,0%,0%);fill-opacity:1;" d="M 18.242188 5.949219 C 18.222656 5.964844 18.238281 6.003906 18.28125 5.976562 C 18.320312 5.949219 18.3125 5.917969 18.242188 5.949219 "/>
<path style=" stroke:none;fill-rule:nonzero;fill:rgb(81.176472%,38.431373%,0%);fill-opacity:1;" d="M 18.226562 6.289062 C 18.199219 6.289062 18.179688 6.332031 18.214844 6.339844 C 18.246094 6.347656 18.261719 6.359375 18.257812 6.375 C 18.257812 6.402344 18.269531 6.445312 18.304688 6.445312 C 18.34375 6.445312 18.375 6.40625 18.34375 6.394531 C 18.304688 6.386719 18.28125 6.367188 18.277344 6.335938 C 18.277344 6.308594 18.246094 6.289062 18.226562 6.289062 "/>
<path style=" stroke:none;fill-rule:nonzero;fill:rgb(100%,100%,0%);fill-opacity:1;" d="M 19.199219 6.054688 L 19.21875 6.078125 C 19.246094 6.101562 19.296875 6.078125 19.285156 6.058594 C 19.28125 6.042969 19.253906 5.980469 19.324219 6.027344 L 19.683594 6.285156 C 19.757812 6.339844 19.707031 6.347656 19.675781 6.328125 L 19.480469 6.238281 C 19.421875 6.203125 19.414062 6.21875 19.402344 6.226562 C 19.398438 6.242188 19.40625 6.261719 19.425781 6.28125 C 19.390625 6.285156 19.335938 6.28125 19.316406 6.242188 C 19.296875 6.195312 19.25 6.140625 19.214844 6.097656 C 19.203125 6.078125 19.199219 6.066406 19.203125 6.058594 Z M 19.199219 6.054688 "/>
<path style=" stroke:none;fill-rule:nonzero;fill:rgb(0%,84.705883%,37.64706%);fill-opacity:1;" d="M 21.171875 12.648438 C 21.121094 12.683594 21.054688 12.742188 21.097656 12.824219 L 21.113281 12.820312 C 21.304688 12.585938 21.472656 12.335938 21.617188 12.070312 L 21.617188 12.046875 C 21.5625 12.089844 21.503906 12.125 21.441406 12.152344 C 21.464844 12.21875 21.351562 12.300781 21.296875 12.328125 C 21.320312 12.367188 21.3125 12.429688 21.257812 12.441406 C 21.269531 12.472656 21.230469 12.472656 21.179688 12.496094 C 21.136719 12.511719 21.109375 12.53125 21.097656 12.554688 C 21.121094 12.539062 21.160156 12.527344 21.175781 12.535156 C 21.191406 12.542969 21.199219 12.570312 21.164062 12.578125 C 21.132812 12.59375 21.109375 12.605469 21.09375 12.621094 C 21.144531 12.605469 21.21875 12.609375 21.171875 12.648438 "/>
<path style="fill-rule:nonzero;fill:rgb(0%,0%,0%);fill-opacity:1;stroke-width:0.4;stroke-linecap:butt;stroke-linejoin:miter;stroke:rgb(0%,0%,0%);stroke-opacity:1;stroke-miterlimit:4;" d="M 481.8 151.184211 C 480.2 150 479.8 150.789474 480.2 151.184211 C 480.6 151.578947 480.2 152.664474 479.1 153.157895 L 475.1 153.157895 C 474.4 153.157895 473.2 154.736842 475.1 154.243421 L 481.4 153.157895 C 482.2 153.157895 483 152.269737 481.4 151.184211 Z M 484.5 153.453947 C 483.4 152.269737 483 152.664474 483.4 153.453947 C 483.8 154.342105 483 154.736842 482.2 154.736842 L 476.7 156.217105 C 475.2 156.217105 475.2 157.401316 477.1 157.401316 C 479.1 157.401316 483 155.427632 483.4 155.427632 C 483.8 155.427632 484.2 154.342105 484.5 154.736842 C 484.8 155.131579 485.7 154.736842 484.5 153.453947 Z M 485.7 156.611842 L 481.8 158.585526 C 480.6 158.585526 479.8 159.769737 481.8 159.769737 C 483.8 159.769737 485.8 157.796053 486.5 157.401316 L 488.1 156.611842 C 488.1 156.611842 489.6 156.217105 488.1 155.131579 C 486.5 153.947368 484.9 155.131579 485.7 155.526316 C 486.5 155.921053 485.7 156.611842 485.7 156.611842 Z M 485.7 156.611842 " transform="matrix(0.0390625,0,0,0.0395833,0,0)"/>
<path style=" stroke:none;fill-rule:nonzero;fill:rgb(0%,0%,0%);fill-opacity:1;" d="M 18.347656 5.191406 C 18.25 5.125 18.144531 5.261719 18.25 5.335938 C 18.34375 5.402344 18.445312 5.257812 18.351562 5.191406 Z M 18.347656 5.191406 "/>
<path style=" stroke:none;fill-rule:nonzero;fill:rgb(100%,100%,100%);fill-opacity:1;" d="M 18.226562 5.253906 L 18.253906 5.253906 C 18.253906 5.285156 18.28125 5.332031 18.324219 5.320312 C 18.289062 5.347656 18.222656 5.3125 18.226562 5.253906 M 18.601562 6.71875 C 18.632812 6.730469 18.734375 6.738281 18.773438 6.738281 L 18.726562 6.824219 C 18.714844 6.855469 18.710938 6.851562 18.707031 6.8125 C 18.707031 6.773438 18.683594 6.746094 18.664062 6.789062 L 18.625 6.867188 C 18.613281 6.882812 18.597656 6.886719 18.601562 6.84375 C 18.605469 6.800781 18.605469 6.757812 18.601562 6.71875 "/>
<path style="fill:none;stroke-width:1.2;stroke-linecap:butt;stroke-linejoin:miter;stroke:rgb(0%,0%,0%);stroke-opacity:1;stroke-miterlimit:4;" d="M 574.5 199.736842 C 574.5 263.388158 564.3 332.171053 481.5 365.032895 C 398.9 332.171053 388.8 263.388158 388.4 199.736842 Z M 574.5 199.736842 C 574.5 175.361842 573.3 151.875 573.7 131.743421 C 544.3 120.296053 513 114.572368 481.4 114.769737 C 460.7 114.769737 420 117.927632 389.2 131.644737 C 389.9 151.875 388.4 175.361842 388.4 199.638158 Z M 574.5 199.736842 " transform="matrix(0.0390625,0,0,0.0395833,0,0)"/>
<path style=" stroke:none;fill-rule:nonzero;fill:rgb(0.392157%,12.941177%,41.176471%);fill-opacity:1;" d="M 0 0 L 12.5 0 L 12.5 9.5 L 0 9.5 Z M 0 0 "/>
<path style=" stroke:none;fill-rule:nonzero;fill:rgb(100%,100%,100%);fill-opacity:1;" d="M 1.464844 0 L 6.230469 3.582031 L 10.976562 0 L 12.5 0 L 12.5 1.226562 L 7.8125 4.769531 L 12.5 8.292969 L 12.5 9.5 L 10.9375 9.5 L 6.25 5.957031 L 1.582031 9.5 L 0 9.5 L 0 8.3125 L 4.667969 4.789062 L 0 1.265625 L 0 0 Z M 1.464844 0 "/>
<path style=" stroke:none;fill-rule:nonzero;fill:rgb(78.431374%,6.27451%,18.039216%);fill-opacity:1;" d="M 8.28125 5.5625 L 12.5 8.707031 L 12.5 9.5 L 7.207031 5.5625 Z M 4.6875 5.957031 L 4.804688 6.648438 L 1.054688 9.5 L 0 9.5 Z M 12.5 0 L 12.5 0.0585938 L 7.636719 3.78125 L 7.675781 2.910156 L 11.523438 0 Z M 0 0 L 4.667969 3.484375 L 3.496094 3.484375 L 0 0.832031 Z M 0 0 "/>
<path style=" stroke:none;fill-rule:nonzero;fill:rgb(100%,100%,100%);fill-opacity:1;" d="M 4.707031 0 L 4.707031 9.5 L 7.832031 9.5 L 7.832031 0 Z M 0 3.167969 L 0 6.332031 L 12.5 6.332031 L 12.5 3.167969 Z M 0 3.167969 "/>
<path style=" stroke:none;fill-rule:nonzero;fill:rgb(78.431374%,6.27451%,18.039216%);fill-opacity:1;" d="M 0 3.820312 L 0 5.71875 L 12.5 5.71875 L 12.5 3.820312 Z M 5.332031 0 L 5.332031 9.5 L 7.207031 9.5 L 7.207031 0 Z M 5.332031 0 "/>
</g>
</svg>
