<svg xmlns="http://www.w3.org/2000/svg" width="25" height="px" viewBox="0 0 25 19"><defs><clipPath id="a"><path d="M0 0h25v19H-.004Zm0 0"/></clipPath><clipPath id="b"><path d="M0 12h25v7H0Zm0 0"/></clipPath><clipPath id="c"><path d="M0 0h25v19H-.004Zm0 0"/></clipPath><clipPath id="d"><path d="M0 6h25v7H0Zm0 0"/></clipPath><clipPath id="e"><path d="M0 0h25v19H-.004Zm0 0"/></clipPath><clipPath id="f"><path d="M3 2h6v8H3Zm0 0"/></clipPath><clipPath id="g"><path d="M0 0h25v19H-.004Zm0 0"/></clipPath><clipPath id="h"><path d="M3 2h6v7H3Zm0 0"/></clipPath><clipPath id="i"><path d="M0 0h25v19H-.004Zm0 0"/></clipPath><clipPath id="j"><path d="M5 4h2v1H5Zm0 0"/></clipPath><clipPath id="k"><path d="M0 0h25v19H-.004Zm0 0"/></clipPath><clipPath id="l"><path d="M4 5h5v4H4Zm0 0"/></clipPath><clipPath id="m"><path d="M0 0h25v19H-.004Zm0 0"/></clipPath><clipPath id="n"><path d="M5 3h3v1H5Zm0 0"/></clipPath><clipPath id="o"><path d="M0 0h25v19H-.004Zm0 0"/></clipPath><clipPath id="p"><path d="M4 7h4v1H4Zm0 0"/></clipPath><clipPath id="q"><path d="M0 0h25v19H-.004Zm0 0"/></clipPath></defs><g clip-path="url(#a)"><path d="M0 0h25v19H0z" style="fill:#fff;fill-opacity:1;stroke:none"/></g><g clip-path="url(#b)"><g clip-path="url(#c)"><path d="M-1.719 12.664h37.5V19h-37.5Zm0 0" style="stroke:none;fill-rule:evenodd;fill:#d50000;fill-opacity:1"/></g></g><g clip-path="url(#d)"><g clip-path="url(#e)"><path d="M-1.719 6.336h37.5v6.328h-37.5Zm0 0" style="stroke:none;fill-rule:evenodd;fill:#0000bf;fill-opacity:1"/></g></g><g clip-path="url(#f)"><g clip-path="url(#g)"><path d="M8.914 3.453C8.77 5.738 8.68 6.993 8.34 7.57c-.375.625-.73 1.078-2.188 1.633-1.449-.555-1.808-1.008-2.18-1.633-.343-.578-.429-1.832-.577-4.117l.214-.078c.43-.133.754-.238.993-.29.34-.073.632-.155 1.546-.17.918.015 1.211.1 1.551.175q.357.081 1 .285Zm0 0" style="stroke:none;fill-rule:evenodd;fill:#d50000;fill-opacity:1"/></g></g><g clip-path="url(#h)"><g clip-path="url(#i)"><path d="M8.703 3.375c-.14 2.285-.258 3.332-.441 3.832-.352.86-.907 1.332-2.11 1.781-1.199-.449-1.757-.922-2.113-1.781-.18-.504-.293-1.547-.43-3.832.426-.14.754-.234.993-.29.34-.073.632-.155 1.546-.17.918.015 1.211.097 1.551.17q.511.12 1.004.29m0 0" style="stroke:none;fill-rule:evenodd;fill:#0000bf;fill-opacity:1"/></g></g><g clip-path="url(#j)"><g clip-path="url(#k)"><path d="m6.152 4.074.055.137.258.039-.164.098.156.109-.23.035-.075.13-.07-.13-.223-.031.149-.113-.153-.098.243-.04Zm0 0" style="stroke:none;fill-rule:evenodd;fill:#ffdf00;fill-opacity:1"/></g></g><g clip-path="url(#l)"><g clip-path="url(#m)"><path d="m8.18 6.664-.145-.11-.098-.171-.199-.176-.105-.172-.195-.183-.098-.172-.11-.086-.066-.07-.184.156-.093.175-.121.114-.137-.11-.098-.18-.379-.675-.375.676-.097.18-.137.109-.121-.114-.098-.175-.18-.157-.07.067-.105.09-.098.172-.195.183-.11.172-.195.176-.098.172-.144.11c.082.51.32.983.68 1.347.394.34.851.597 1.34.761.496-.16.956-.418 1.347-.761.215-.223.61-.715.684-1.348" style="stroke:none;fill-rule:evenodd;fill:#fff;fill-opacity:1"/></g></g><g clip-path="url(#n)"><g clip-path="url(#o)"><path d="m6.754 3.113.059.137.257.04-.168.097.16.11-.23.034-.074.13-.074-.134-.22-.027.15-.113-.157-.098.242-.039Zm-1.207 0 .058.137.254.035-.164.098.16.11-.234.034-.07.13-.074-.13-.22-.03.145-.114-.152-.098.246-.039Zm0 0" style="stroke:none;fill-rule:evenodd;fill:#ffdf00;fill-opacity:1"/></g></g><g clip-path="url(#p)"><g clip-path="url(#q)"><path d="M7.863 7.531h-.27l-.257-.015-.305-.149h-.343l-.297.149-.239.02-.234-.02-.297-.149h-.348l-.304.149-.254.02-.277-.005-.133-.226.004-.008.41.07.254-.02.3-.152h.348l.297.149.234.023.239-.023.297-.149h.343l.309.149.254.023.394-.074.008.016ZM4.7 7.887l.274-.02.3-.148h.348l.297.148.234.02.235-.02.3-.148h.344l.305.148.277.02.176-.223h-.004l-.191.05-.254-.019-.305-.148h-.344l-.3.148-.235.024-.238-.024-.297-.148h-.348l-.304.148-.254.024-.184-.047v.008l.164.207Zm0 0" style="stroke:none;fill-rule:evenodd;fill:#0000bf;fill-opacity:1"/></g></g></svg>