<?xml version="1.0" encoding="UTF-8"?>
<svg xmlns="http://www.w3.org/2000/svg" xmlns:xlink="http://www.w3.org/1999/xlink" width="25px" height="px" viewBox="0 0 25 19" version="1.1">
<g id="surface1">
<rect x="0" y="0" width="25" height="19" style="fill:rgb(93.333334%,10.980392%,14.509805%);fill-opacity:1;stroke:none;"/>
<path style=" stroke:none;fill-rule:nonzero;fill:rgb(4.313726%,30.588236%,63.529414%);fill-opacity:1;" d="M 0 0 L 25 0 L 25 12.667969 L 0 12.667969 Z M 0 0 "/>
<path style=" stroke:none;fill-rule:nonzero;fill:rgb(100%,100%,100%);fill-opacity:1;" d="M 0 0 L 25 0 L 25 6.332031 L 0 6.332031 Z M 0 0 "/>
<path style=" stroke:none;fill-rule:nonzero;fill:rgb(100%,100%,100%);fill-opacity:1;" d="M 9.101562 14.675781 C 7.421875 13.859375 5.015625 12.226562 5.015625 9.007812 C 5.015625 5.785156 5.171875 4.324219 5.171875 4.324219 L 13.035156 4.324219 C 13.035156 4.324219 13.1875 5.785156 13.1875 9.007812 C 13.1875 12.230469 10.78125 13.855469 9.101562 14.675781 "/>
<path style=" stroke:none;fill-rule:nonzero;fill:rgb(93.333334%,10.980392%,14.509805%);fill-opacity:1;" d="M 9.101562 14.25 C 7.558594 13.496094 5.351562 12 5.351562 9.046875 C 5.351562 6.097656 5.492188 4.75 5.492188 4.75 L 12.710938 4.75 C 12.710938 4.75 12.847656 6.097656 12.847656 9.046875 C 12.851562 12.003906 10.644531 13.496094 9.101562 14.25 "/>
<path style=" stroke:none;fill-rule:nonzero;fill:rgb(100%,100%,100%);fill-opacity:1;" d="M 9.429688 8.273438 C 9.847656 8.28125 10.664062 8.296875 11.386719 8.050781 C 11.386719 8.050781 11.371094 8.316406 11.371094 8.621094 C 11.371094 8.925781 11.390625 9.191406 11.390625 9.191406 C 10.726562 8.964844 9.902344 8.960938 9.429688 8.964844 L 9.429688 10.597656 L 8.773438 10.597656 L 8.773438 8.964844 C 8.304688 8.960938 7.480469 8.964844 6.816406 9.191406 C 6.816406 9.191406 6.835938 8.925781 6.835938 8.621094 C 6.835938 8.316406 6.816406 8.050781 6.816406 8.050781 C 7.539062 8.296875 8.355469 8.28125 8.769531 8.273438 L 8.769531 7.246094 C 8.390625 7.246094 7.84375 7.261719 7.222656 7.472656 C 7.222656 7.472656 7.242188 7.210938 7.242188 6.902344 C 7.242188 6.597656 7.222656 6.332031 7.222656 6.332031 C 7.84375 6.542969 8.390625 6.5625 8.769531 6.558594 C 8.75 5.910156 8.5625 5.09375 8.5625 5.09375 C 8.5625 5.09375 8.949219 5.121094 9.101562 5.121094 C 9.253906 5.121094 9.640625 5.09375 9.640625 5.09375 C 9.640625 5.09375 9.453125 5.910156 9.433594 6.558594 C 9.8125 6.5625 10.359375 6.542969 10.980469 6.332031 C 10.980469 6.332031 10.960938 6.597656 10.960938 6.902344 C 10.960938 7.207031 10.980469 7.472656 10.980469 7.472656 C 10.480469 7.308594 9.957031 7.234375 9.429688 7.246094 L 9.429688 8.277344 Z M 9.429688 8.273438 "/>
<path style=" stroke:none;fill-rule:nonzero;fill:rgb(4.313726%,30.588236%,63.529414%);fill-opacity:1;" d="M 9.101562 10.421875 C 8.324219 10.421875 7.910156 11.511719 7.910156 11.511719 C 7.910156 11.511719 7.675781 10.996094 7.042969 10.996094 C 6.613281 10.996094 6.300781 11.378906 6.097656 11.742188 C 6.878906 12.996094 8.125 13.769531 9.101562 14.25 C 10.078125 13.773438 11.328125 12.996094 12.105469 11.742188 C 11.902344 11.382812 11.589844 10.996094 11.160156 10.996094 C 10.527344 10.996094 10.292969 11.511719 10.292969 11.511719 C 10.292969 11.511719 9.882812 10.421875 9.101562 10.421875 "/>
</g>
</svg>
