<svg xmlns="http://www.w3.org/2000/svg" width="25" height="px" viewBox="0 0 25 19"><path d="M0 0h25v19H0z" style="fill:#ee1c25;fill-opacity:1;stroke:none"/><path d="M0 0h25v12.668H0Zm0 0" style="stroke:none;fill-rule:nonzero;fill:#0b4ea2;fill-opacity:1"/><path d="M0 0h25v6.332H0Zm0 0" style="stroke:none;fill-rule:nonzero;fill:#fff;fill-opacity:1"/><path d="M9.102 14.676c-1.68-.817-4.086-2.45-4.086-5.668 0-3.223.156-4.684.156-4.684h7.863s.152 1.461.152 4.684-2.406 4.847-4.085 5.668" style="stroke:none;fill-rule:nonzero;fill:#fff;fill-opacity:1"/><path d="M9.102 14.25c-1.543-.754-3.75-2.25-3.75-5.203 0-2.95.14-4.297.14-4.297h7.219s.137 1.348.137 4.297c.004 2.957-2.203 4.45-3.746 5.203" style="stroke:none;fill-rule:nonzero;fill:#ee1c25;fill-opacity:1"/><path d="M9.43 8.273c.418.008 1.234.024 1.957-.222 0 0-.016.265-.016.57s.02.57.02.57c-.664-.226-1.489-.23-1.961-.226v1.633h-.657V8.965c-.468-.004-1.293 0-1.957.226 0 0 .02-.265.02-.57s-.02-.57-.02-.57c.723.246 1.54.23 1.954.222V7.246c-.38 0-.926.016-1.547.227 0 0 .02-.262.02-.57 0-.305-.02-.571-.02-.571.62.211 1.168.23 1.547.227-.02-.649-.207-1.465-.207-1.465s.386.027.539.027c.152 0 .539-.027.539-.027s-.188.816-.207 1.465c.379.003.925-.016 1.546-.227 0 0-.02.266-.02.57 0 .305.02.57.02.57a4.6 4.6 0 0 0-1.55-.226v1.031Zm0 0" style="stroke:none;fill-rule:nonzero;fill:#fff;fill-opacity:1"/><path d="M9.102 10.422c-.778 0-1.192 1.09-1.192 1.09s-.234-.516-.867-.516c-.43 0-.742.383-.945.746.78 1.254 2.027 2.028 3.004 2.508.976-.477 2.226-1.254 3.003-2.508-.203-.36-.515-.746-.945-.746-.633 0-.867.516-.867.516s-.41-1.09-1.191-1.09" style="stroke:none;fill-rule:nonzero;fill:#0b4ea2;fill-opacity:1"/></svg>