<svg xmlns="http://www.w3.org/2000/svg" width="25" height="px" viewBox="0 0 25 19"><path d="M0 9.5h25V19H0Zm0 0" style="stroke:none;fill-rule:evenodd;fill:#19b6ef;fill-opacity:1"/><path d="M0 0h25v9.5H0Zm0 0" style="stroke:none;fill-rule:evenodd;fill:#fff;fill-opacity:1"/><path d="M317 339.178c52.6-39.178 109-119.21 42.9-161.35-12.3-2.466-26-1.775-32.7 3.554-3.5-1.974-6.3-1.777-9.8 1.875-2.5-2.96-5-4.343-10-2.862-9.7-5.132-21-6.217-31.5-2.96C218 211.775 253.4 293.98 317 339.078Zm0 0" style="fill-rule:evenodd;fill:#fd0;fill-opacity:1;stroke-width:2.4;stroke-linecap:butt;stroke-linejoin:miter;stroke:#7d6c00;stroke-opacity:1;stroke-miterlimit:4" transform="scale(.03906 .03958)"/><path d="M414 250.066s6-7.994 6.2-7.994c5.9-3.355 6.5-7.894 6.5-7.894 5.9-1.777 4-6.71 4.5-7.303 2-1.776 2.6-4.638 1.4-7.105 0-.79 2-8.388-.8-9.375.1-7.994-4.8-7.303-8.8-1.974-4.2 1.184-5.1 4.638-3.6 8.487-5.5 0-5.7 7.993-4.1 12.434-7.3-.197-3.3 7.994-3.5 8.388-2.4 1.184 1.9 12.73 2.3 12.336Zm-46 68.19 3.6 2.27c.8 2.763 3.4 4.54 5.3 4.046 1 4.342 5.6 3.75 9 1.185 2.7 4.046 6 4.046 10.6 2.763 4 2.96 9.3 1.677 12.8-1.382 3.7 2.96 6.2.79 8.1-2.566 3 .79 5.2.296 6.3-2.565 5.7-.494 2.9-5.921-1.8-8.191 3.7-3.257 7.9-9.967 2-11.053-1.8-1.283-5.3-.987-7.9.198-.7-2.961-4.8-3.652-9.4-.395-1.5-3.257-7-1.678-9.5.592-3.3-2.763-7.2-2.763-12.9.395Zm0-8.684c.6-3.75-2-10.559 2-11.15-.7-6.317.3-13.323 7.5-12.731 1.2-5.921 1-11.349 7.8-12.237 0 0 5.5-19.046 11.2-5.822 2.2 3.848 1.8 10.164-2.7 8.98.9 4.737-.7 8.881-5.9 8.684 2.3 3.355 1.6 7.895-1 9.967Zm33.1-23.881 6-1.184c6-4.046 8.5-5.724 11.5-1.185 5.1-.986 10-.592 9.8 3.356 6 .493 6 4.342 5.3 7.4 1 5.33-1.4 12.336-5 3.85-11.9-7.204-18.6-6.217-37.3-2.073Zm3.1-5.921c.2-.198 17.5-4.638 15.7-9.967 4.9-.79 5.9-5.724 6-5.724 10.3-3.158 9.7-9.079 9.7-9.079 2.9-3.06 8-6.316 6.9-11.842.3-6.217.9-10.165-7.6-6.02-6.3-.592-8.5 2.96-10.3 8.487-3-3.553-7.8 2.072-8.4 7.105 0 0-7.7 7.599-7.7 7.796l-6.5 11.941Zm0 0" style="fill-rule:evenodd;fill:#4fd46b;fill-opacity:1;stroke-width:2.4;stroke-linecap:butt;stroke-linejoin:round;stroke:#3a9d4f;stroke-opacity:1;stroke-miterlimit:4" transform="scale(.03906 .03958)"/><path d="M404.5 266.447c-4.1-3.158-6.4-6.908-5.7-10.658-2.7-3.65-4.6-5.92-2-9.177l-2-7.5c-5.4-1.974-3.1-6.513-1.7-8.092-2.5-3.652-2.6-7.106-.2-10.46 0-6.415 4.6-3.948 8.3 0 0 0 6.4 4.539 1.7 8.585 4.7 1.677 6 5.625 3.4 7.401 4.1 1.776 4.7 5.428 2.5 7.993 4.1 3.158 2.6 7.402 3.8 11.053Zm0 0" style="fill-rule:evenodd;fill:#4fd46b;fill-opacity:1;stroke-width:2.4;stroke-linecap:butt;stroke-linejoin:round;stroke:#3a9d4f;stroke-opacity:1;stroke-miterlimit:4" transform="scale(.03906 .03958)"/><path d="M411.8 235.954c-.2-.099-6.9-8.684-5-9.276-.5-2.566-2.5-5.527-1.3-8.092-3.3-3.356-3.4-7.303-.8-10.362-2.2-3.06-1.2-7.106 1.8-9.869-1-4.934 2.6-6.118 5.7-7.006 2.3-8.092 6-6.02 8.2.197 3.2 2.763 2.7 6.908 1.6 10.165 3.8 2.467 1.5 5.723-.2 7.006Zm0 0" style="fill-rule:evenodd;fill:#4fd46b;fill-opacity:1;stroke-width:2.4;stroke-linecap:butt;stroke-linejoin:round;stroke:#3a9d4f;stroke-opacity:1;stroke-miterlimit:4" transform="scale(.03906 .03958)"/><path d="m410.8 193.125-5.7-5.724c1.5-2.96 2.7-8.29-1.6-10.756-2.4-5.724-14.2-12.928-16.1.79-1.8-4.146-5.6-8.192-8.3-3.455-6.2-5.329-9.5-3.651-6.3 3.06 0 0-2.9 4.44 4.6 7.993.6.592-2.4 8.092 6.6 8.29-1.7 2.565 1 6.216 4.6 6.02-2.5 3.058 1.8 6.414 4.5 5.13-1.1 3.553-1 5.23 3.9 5.724l5.5 6.316 4.5 6.119Zm0 0" style="fill-rule:evenodd;fill:#4fd46b;fill-opacity:1;stroke-width:2.4;stroke-linecap:butt;stroke-linejoin:round;stroke:#3a9d4f;stroke-opacity:1;stroke-miterlimit:4" transform="scale(.03906 .03958)"/><path d="M414.3 246.513c.3-.296 11-24.77 12.4-32.17m-11.3-11.35s1.8 20.033-3.1 34.639m-29.7-54.77s21.9 21.02 24 29.704m-8.7-31.974s1.4 17.27 7.5 34.342m31 28.323s-21.8 18.552-32.4 34.736m11.8 30s-28.8 4.046-41.4 4.343m32 7.993s-35.8-.79-38.4-3.454m20.5-42.928c0 .395-18.2 30.296-18.8 39.967" style="fill:none;stroke-width:2.2;stroke-linecap:round;stroke-linejoin:miter;stroke:#3a9d4f;stroke-opacity:1;stroke-miterlimit:4" transform="scale(.03906 .03958)"/><path d="M316.9 333.355c-37.8-35.526-76.5-102.335-38-136.184 6.8 3.849 14.9.395 26-3.947 3.4 3.651 7.7 4.54 12 1.776 3.6 1.776 8 .888 10.7-2.072 11 6.315 24.9 9.572 28.2 3.256 37.8 36.02-.6 103.224-39 137.27Zm0 0" style="fill-rule:evenodd;fill:#65c7ff;fill-opacity:1;stroke-width:2.4;stroke-linecap:butt;stroke-linejoin:miter;stroke:#7d6c00;stroke-opacity:1;stroke-miterlimit:4" transform="scale(.03906 .03958)"/><path d="M12.383 13.156a8.5 8.5 0 0 1-1.653-2.277c.079-.07.114-.09.153-.2.226.032.347.04.644-.015.063.23.075.418.215.61l.301-.594c.21.054.434.054.645 0 .124.168.078.422.3.617.133-.395.262-.418.395-.633.195.07.32.04.48-.012.078.098.04.094.196.239a7.7 7.7 0 0 1-1.672 2.265Zm0 0" style="stroke:none;fill-rule:evenodd;fill:#8fc753;fill-opacity:1"/><path d="M272.6 164.31c.2 1.282-.4 2.664-1.5 3.453-1.1.69-2.6.69-3.7 0-1.1-.79-1.7-2.17-1.5-3.454 0-1.875 1.5-3.454 3.4-3.454s3.4 1.58 3.4 3.454Zm-3.5-7.698c.3 1.381-.2 2.763-1.4 3.651-1.1.79-2.7.79-3.8 0-1.2-.888-1.7-2.27-1.4-3.651.3-1.678 1.7-2.862 3.3-2.862 1.7 0 3.1 1.184 3.4 2.862Zm-4-7.105c.2 1.282-.4 2.664-1.5 3.454-1.1.69-2.6.69-3.7 0-1.1-.79-1.7-2.172-1.5-3.454.3-1.678 1.7-2.862 3.4-2.862 1.6 0 3 1.184 3.3 2.862Zm-2.8-7.007c.2 1.382-.4 2.664-1.5 3.454-1.1.69-2.6.69-3.7 0-1.1-.79-1.7-2.072-1.5-3.454.3-1.678 1.7-2.862 3.4-2.862 1.6 0 3 1.184 3.3 2.862Zm.5-7.599c.2 1.382-.4 2.665-1.5 3.454-1.1.691-2.6.691-3.7 0-1.1-.79-1.7-2.072-1.5-3.454.3-1.677 1.7-2.862 3.4-2.862 1.6 0 3 1.185 3.3 2.862Zm17.6-12.533c.2 1.382-.4 2.665-1.5 3.454s-2.6.79-3.7 0-1.7-2.072-1.5-3.454c.3-1.579 1.7-2.763 3.4-2.763 1.6 0 3 1.184 3.3 2.763Zm0 0" style="fill-rule:evenodd;fill:#fff;fill-opacity:1;stroke-width:1.1;stroke-linecap:butt;stroke-linejoin:miter;stroke:#000;stroke-opacity:1;stroke-miterlimit:4" transform="scale(.03906 .03958)"/><path d="M273.8 123.553c.2 1.381-.4 2.763-1.5 3.454-1.1.79-2.6.79-3.7 0-1.1-.691-1.7-2.073-1.5-3.454.3-1.58 1.7-2.764 3.4-2.764 1.6 0 3 1.185 3.3 2.764Zm-7.3 4.342c.2 1.381-.4 2.664-1.5 3.454-1.1.69-2.6.69-3.7 0-1.1-.79-1.7-2.073-1.5-3.454.3-1.58 1.7-2.862 3.4-2.862 1.6 0 3 1.283 3.3 2.862Zm22.4-5.428c.3 1.382-.2 2.862-1.4 3.651-1.1.79-2.7.79-3.8 0-1.2-.79-1.7-2.27-1.4-3.65.4-1.481 1.7-2.567 3.3-2.567s2.9 1.086 3.3 2.566Zm9.4.79c.2 1.381-.4 2.763-1.5 3.454-1.1.789-2.6.789-3.7 0-1.1-.691-1.7-2.073-1.5-3.454.3-1.58 1.7-2.764 3.3-2.764 1.7 0 3.1 1.185 3.4 2.764Zm8.2-.494c.3 1.382-.2 2.862-1.4 3.651-1.1.79-2.7.79-3.8 0-1.2-.789-1.7-2.27-1.4-3.65.3-1.58 1.7-2.764 3.3-2.764 1.7 0 3.1 1.184 3.4 2.763Zm0 0" style="fill-rule:evenodd;fill:#fff;fill-opacity:1;stroke-width:1.1;stroke-linecap:butt;stroke-linejoin:miter;stroke:#000;stroke-opacity:1;stroke-miterlimit:4" transform="scale(.03906 .03958)"/><path d="M325.9 117.533c0 4.737-3.9 8.585-8.6 8.585s-8.6-3.848-8.6-8.585 3.9-8.586 8.6-8.586 8.6 3.85 8.6 8.586Zm0 0" style="fill-rule:evenodd;fill:#fd0;fill-opacity:1;stroke-width:1.1;stroke-linecap:butt;stroke-linejoin:miter;stroke:#7d6c00;stroke-opacity:1;stroke-miterlimit:4" transform="scale(.03906 .03958)"/><path d="M335 122.664c0 1.875-1.5 3.454-3.4 3.454s-3.4-1.579-3.4-3.454c.3-1.578 1.7-2.763 3.3-2.763 1.7 0 3.1 1.185 3.4 2.763Zm8.6.691c.3 1.382-.2 2.862-1.4 3.652-1.1.79-2.7.79-3.8 0-1.2-.79-1.7-2.27-1.4-3.652.3-1.579 1.7-2.763 3.4-2.763 1.6 0 3 1.184 3.3 2.763Zm8.5-.394c.2 1.381-.4 2.763-1.5 3.453-1.1.79-2.6.79-3.7 0-1.1-.69-1.7-2.072-1.5-3.453.3-1.58 1.7-2.764 3.4-2.764 1.6 0 3 1.185 3.3 2.764Zm7.1-.297c.2 1.382-.4 2.764-1.5 3.454-1.1.79-2.6.79-3.7 0-1.1-.69-1.7-2.072-1.5-3.454.3-1.578 1.7-2.763 3.3-2.763 1.7 0 3.1 1.185 3.4 2.763Zm8.9.987c.2 1.382-.4 2.763-1.5 3.454-1.1.79-2.6.79-3.7 0-1.1-.69-1.7-2.072-1.5-3.454.3-1.579 1.7-2.763 3.4-2.763 1.6 0 3 1.184 3.3 2.763Zm7 4.441c.2 1.382-.4 2.665-1.5 3.454-1.1.69-2.6.69-3.7 0-1.1-.79-1.7-2.072-1.5-3.454.3-1.579 1.7-2.763 3.4-2.763 1.6 0 3 1.184 3.3 2.763Zm0 0" style="fill-rule:evenodd;fill:#fff;fill-opacity:1;stroke-width:1.1;stroke-linecap:butt;stroke-linejoin:miter;stroke:#000;stroke-opacity:1;stroke-miterlimit:4" transform="scale(.03906 .03958)"/><path d="m269.4 151.678 8.6 16.48h79.2l9.2-15.888c-5.4-3.652-9-6.513-16.7-4.737-4.3-6.217-9-7.303-16-6.71-2.1-2.172-4-3.455-7.6-4.047l-16.6.494c-4.4.394-7.8 3.848-8 3.848-7-.888-13.5-.69-15.2 6.218-6.5-1.678-11 .197-16.9 4.342Zm0 0" style="fill-rule:evenodd;fill:#e40000;fill-opacity:1;stroke-width:2.4;stroke-linecap:butt;stroke-linejoin:miter;stroke:#ac0000;stroke-opacity:1;stroke-miterlimit:4" transform="scale(.03906 .03958)"/><path d="M378 135.296c.2 1.382-.4 2.665-1.5 3.454-1.1.69-2.6.69-3.7 0-1.1-.79-1.7-2.072-1.5-3.454.3-1.579 1.7-2.862 3.3-2.862 1.7 0 3.1 1.283 3.4 2.862Zm.6 7.993c.2 1.382-.4 2.665-1.5 3.454-1.1.691-2.6.691-3.7 0-1.1-.79-1.7-2.072-1.5-3.454.3-1.578 1.7-2.763 3.3-2.763 1.7 0 3.1 1.185 3.4 2.763Zm-2.5 7.204c.2 1.382-.4 2.665-1.5 3.454-1.1.691-2.6.691-3.7 0-1.1-.79-1.7-2.072-1.5-3.454.3-1.579 1.7-2.763 3.4-2.763 1.6 0 3 1.184 3.3 2.763Zm-3 6.02c0 1.875-1.5 3.355-3.4 3.355s-3.4-1.48-3.4-3.355c.3-1.677 1.7-2.862 3.3-2.862 1.7 0 3.1 1.185 3.4 2.862Zm-3.7 7.5c.2 1.283-.4 2.665-1.5 3.454-1.1.69-2.6.69-3.7 0-1.1-.79-1.7-2.17-1.5-3.454.3-1.677 1.7-2.862 3.4-2.862 1.6 0 3 1.185 3.3 2.862Zm-46.8-9.572c0 2.763-2.2 4.934-5 4.934s-5-2.171-5-4.934 2.2-5.033 5-5.033 5 2.27 5 5.033ZM323.6 142.993a6 6 0 1 1-12 0 6 6 0 1 1 12 0Zm0 0" style="fill-rule:evenodd;fill:#fff;fill-opacity:1;stroke-width:1.1;stroke-linecap:butt;stroke-linejoin:miter;stroke:#000;stroke-opacity:1;stroke-miterlimit:4" transform="scale(.03906 .03958)"/><path d="M322.7 132.04c0 2.96-2.4 5.328-5.4 5.328s-5.4-2.368-5.4-5.329c0-3.059 2.4-5.427 5.4-5.427s5.4 2.368 5.4 5.427Zm0 0" style="fill-rule:evenodd;fill:#fff;fill-opacity:1;stroke-width:1.1;stroke-linecap:butt;stroke-linejoin:miter;stroke:#000;stroke-opacity:1;stroke-miterlimit:4" transform="scale(.03906 .03958)"/><path d="M315.5 109.046v-4.243l-3.6-.1.2-3.157h3v-2.862h4.5v2.467h3.5l-.1 3.454h-3.6v4.54h-4Zm0 0" style="fill-rule:evenodd;fill:#fd0;fill-opacity:1;stroke-width:1.1;stroke-linecap:butt;stroke-linejoin:miter;stroke:#7d6c00;stroke-opacity:1;stroke-miterlimit:4" transform="scale(.03906 .03958)"/><path d="M277.6 168.158c-7.1-11.94-17.6-28.322-11-35.428 8.9-10.164 29.9-.987 43.3-6.809 1 11.349-2.2 30.395 2.9 34.243l-4.8 4.244c-3-3.75-8.4-8.783-15.2.197-4-3.454-8.3-2.763-10.4 1.678-2 .296-1.9 1.085-4.8 1.875Zm80-.494c7.2-11.94 17.6-28.223 11.1-35.328-9-10.165-30-.987-43.3-6.908-1 11.447 2.2 30.493-3 34.342l4.8 4.243c4.7-6.513 10.4-6.71 15.3.198 3.9-3.454 7.9-3.06 10.4 1.677 2 .296 1.8.987 4.8 1.776Zm0 0" style="fill:none;stroke-width:3.3;stroke-linecap:butt;stroke-linejoin:miter;stroke:#fd0;stroke-opacity:1;stroke-miterlimit:4" transform="scale(.03906 .03958)"/><path d="M277.3 177.138c26.4-2.467 52.9-2.467 79.3 0l3.1-9.079c-27.7-4.934-46.8-5.526-83-.592Zm0 0" style="fill-rule:evenodd;fill:#fd0;fill-opacity:1;stroke-width:2.4;stroke-linecap:butt;stroke-linejoin:miter;stroke:#7d6c00;stroke-opacity:1;stroke-miterlimit:4" transform="scale(.03906 .03958)"/><path d="m12.27 13.04.023-.169c.113.031.195.02.289-.016l.094-.144-.07-.082c-.063.012-.118.07-.157.121-.062.004-.117-.027-.18-.04l-.058-.253c-.059-.07-.184-.066-.156.059l.011.097c.024.063.036.145.075.188v.101Zm.046-.727c-.078.042-.18-.032-.285-.075-.097-.004-.172.078-.289.051.024-.062.074-.074.11-.11-.028-.163.058-.218.082-.218.023 0 .12.023.12.023l.094.012c.059.11.137.2.168.316" style="stroke:none;fill-rule:evenodd;fill:#c76e2e;fill-opacity:1"/><path d="M300.8 366.02c7-11.448 56.2-34.441 102.4-84.178-47 45.296-76.4 56.349-114.8 83.98l12.4.296Zm0 0" style="fill-rule:evenodd;fill:#ffe100;fill-opacity:1;stroke-width:2.4;stroke-linecap:butt;stroke-linejoin:miter;stroke:#e9bf00;stroke-opacity:1;stroke-miterlimit:4" transform="scale(.03906 .03958)"/><path d="M368.4 313.224c0 1.973-1.6 3.552-3.6 3.552s-3.6-1.579-3.6-3.552 1.6-3.652 3.6-3.652 3.6 1.678 3.6 3.652Zm34.4-34.935c0 2.27-1.8 4.047-4.1 4.047-2.2 0-4-1.777-4-4.047 0-2.17 1.8-3.947 4-3.947s4 1.776 4 3.947Zm11.4-29.605c.2 1.382-.4 2.862-1.6 3.652-1.2.789-2.7.789-3.9 0-1.2-.79-1.8-2.27-1.6-3.652.3-1.677 1.8-2.96 3.5-2.96 1.8 0 3.3 1.283 3.6 2.96ZM403 210.296c.2 1.382-.4 2.862-1.6 3.651-1.2.79-2.7.79-3.9 0s-1.8-2.27-1.6-3.65c.3-1.777 1.8-2.961 3.5-2.961 1.8 0 3.3 1.184 3.6 2.96Zm0 0" style="fill-rule:evenodd;fill:#9d4916;fill-opacity:1;stroke-width:1.1;stroke-linecap:butt;stroke-linejoin:miter;stroke:#68300e;stroke-opacity:1;stroke-miterlimit:4" transform="scale(.03906 .03958)"/><path d="M279.1 269.605v-15.197l-1.5-1.184v-3.652l2.8-.296.5-16.973-1.8-.987-.2-2.862s2 .888 2 .395l.5-3.454s-1.3-.198-1.3-.691 1.6-1.776 1.6-1.776-.8-.79-1-1.283l-.8-2.862.8-2.862-.5-1.48-1.3-2.369 1.8-1.776-.5-2.763q.45-1.629 1.5-2.96c.3-.198 2.3-2.961 2.3-2.961l4.4-.987 5.1.69 2.8 1.777.5 4.638s-.5 2.763-.7 2.763l-2.3.987s-2.6.296-2.9 0 .8 3.257.8 3.257v2.96l-.2 3.948s0 1.776-.3 1.973-.8.987-.8.987l-.2 3.948 4 1.085-.2 2.27-2.8.197.5 15.691 4.1.69v4.442l-1.8.986-.5 15.691Zm62.4.296v-15.197l-1.5-1.283v-3.651l2.8-.198.5-16.973-1.8-.987-.2-2.763s2 .69 2 .197l.5-3.355s-1.3-.296-1.3-.79c0-.493 1.6-1.776 1.6-1.776s-.8-.69-1-1.283l-.8-2.862.8-2.763-.6-1.48-1.2-2.369 1.8-1.776-.6-2.862c.4-1.085.9-1.973 1.6-2.862l2.3-2.96 4.4-1.086 5.1.79 2.8 1.776.5 4.638s-.5 2.763-.7 2.763l-2.3.987s-2.6.296-2.9 0 .8 3.158.8 3.158v3.06l-.3 3.947s0 1.677-.2 1.973l-.8.987-.2 3.948 4 .987-.2 2.27-2.8.295.5 15.592 4.1.79v4.44l-1.8.988-.5 15.69Zm-31.6.494v-15.198l-1.5-1.184v-3.75l2.8-.197.5-16.974-1.8-.987-.2-2.763s2 .79 2 .296l.5-3.454s-1.2-.197-1.2-.69c0-.494 1.5-1.876 1.5-1.876s-.8-.69-1-1.184l-.8-2.96.8-2.763-.5-1.48-1.3-2.37 1.8-1.775-.5-2.862c.3-1.086.8-1.974 1.5-2.862.3-.198 2.3-2.96 2.3-2.96l4.4-.988 5.1.691 2.8 1.777.6 4.638s-.6 2.763-.8 2.763l-2.3.987s-2.6.296-2.8 0 .7 3.158.7 3.158v3.059l-.2 3.947s0 1.777-.3 1.974l-.8.987-.2 3.947 4 .987-.2 2.27-2.8.296.5 15.69 4.1.691v4.441l-1.8.987-.5 15.69Zm0 0" style="fill-rule:evenodd;fill:#fff;fill-opacity:1;stroke-width:1.1;stroke-linecap:butt;stroke-linejoin:miter;stroke:#a9a9a9;stroke-opacity:1;stroke-miterlimit:4" transform="scale(.03906 .03958)"/><path d="M11.055 10.668v-.477h.258v.496Zm1.226.039.012-.484h.234v.472l-.246.008Zm1.211-.012-.015-.457.253-.008v.477l-.234-.012ZM11.117 9.27h.149v.242h-.149Zm1.184.007h.207v.239H12.3Zm1.21.02h.18v.226h-.175Zm0 0" style="stroke:none;fill-rule:evenodd;fill:#000;fill-opacity:1"/><path d="M286.6 207.04c4 4.539 4.3 4.539 4.3 4.539m26.2-4.54c.8 1.48 2 4.737 3.6 5.033m29.3-4.342s1.3 3.553 3 4.046" style="fill:none;stroke-width:1.1;stroke-linecap:butt;stroke-linejoin:miter;stroke:#a8a8a8;stroke-opacity:1;stroke-miterlimit:4" transform="scale(.03906 .03958)"/><path d="M11.023 7.68c.47-.157-.109-.461-.207 0-.148.027-.168.136-.496.09-.797 1.308-.207 3.425 2.114 5.613-4.157-3.586-2.47-6.238-1.317-6.137.625.043.313.832-.094.438Zm0 0" style="stroke:none;fill-rule:evenodd;fill:#b97700;fill-opacity:1"/><path d="M285.6 177.04s9.7 2.664 9.7 6.809m0-7.5s6.8 2.96 8.3 5.526m45.1-4.44s-8.6 1.183-10.5 3.75m-2.6-2.961s-5 4.046-4.5 5.23m3.4 12.73c-.8-.296-4.2-4.835-3.4-10.46m-29.8 7.5s2.3-2.665 2.3-7.5m13.5-1.875.4 10.954m9.4-1.58c0-.69 3-7.894-.4-11.348m-20.3-1.48s-2.6 7.204-.7 13.223m20-6.809s-4.2 1.184-6 2.96m-11.8-1.874c0-.296 4.6-.987 6 1.579" style="fill:none;stroke-width:2.4;stroke-linecap:butt;stroke-linejoin:miter;stroke:#7d6c00;stroke-opacity:1;stroke-miterlimit:4" transform="scale(.03906 .03958)"/><path d="M11.742 11.95c.008 0 .149-.028.149-.095.07-.046.02-.18.02-.18l-.134-.023-.18-.203c-.007-.066.012-.125-.027-.191-.125.031-.195.137-.234.258.027.039.031.078.09.113.058.008.097-.027.152-.016.027.051.02.094.031.145.075.05.09.125.133.191m-.16-.879v-.246l-.172-.008c-.023.043-.062.059-.086.09l-.12.063c.05.058.112.094.148.125q.13.041.23-.024m-.539.364-.094-.16a.27.27 0 0 1 .184.011s.039.098.012.133c-.016.039-.106.023-.102.016m1.426.16a.2.2 0 0 0 .105-.13l-.176-.202-.156-.004a.17.17 0 0 0-.14-.047s.046.078.109.09c.047.101.242.293.258.293m.168.023c0-.004.156-.055.234-.05-.004-.063.117-.212.117-.212l.219.29c-.039.03-.11.023-.164.03 0 0-.105.106-.117.11s-.203.05-.297-.008c-.04-.082.012-.172.008-.16m.125-.508a.56.56 0 0 0 0-.3h-.25l-.164.082s.05.164.117.148c.027.082.113.063.156.098Zm.972-.25c-.039.106-.054.215-.007.317.046.011.101.039.14.031l.2-.363q-.206-.071-.337.015Zm0 0" style="stroke:none;fill-rule:evenodd;fill:#c76e2e;fill-opacity:1"/><path d="M13.793 7.648c-.469-.156.11-.464.207 0 .152.024.172.137.5.09.793 1.305.203 3.426-2.117 5.614 4.16-3.586 2.469-6.239 1.316-6.141-.625.039-.312.832.094.437" style="stroke:none;fill-rule:evenodd;fill:#b97700;fill-opacity:1"/><path d="M13.84 11.27c-.008 0-.117.078-.117.078l-.164.066-.172.004-.04-.117.133-.117a.36.36 0 0 0-.312.109s0 .129.078.2c.043.054.176.155.176.155a.27.27 0 0 0 .21-.039Zm-.906 1.19c.054.017.441-.503.441-.503a.38.38 0 0 0-.191-.21s-.188.222-.192.3c-.031.066-.117.328-.078.363-.004.008-.02.113.02.05" style="stroke:none;fill-rule:evenodd;fill:#c76e2e;fill-opacity:1"/><path d="M266.4 317.368c-14.8-12.829-34.8-19.934-62.7-10.263 7.5 3.158 15.6 4.342 22.5 7.895Zm0 0" style="fill-rule:evenodd;fill:#006800;fill-opacity:1;stroke-width:2.4;stroke-linecap:butt;stroke-linejoin:round;stroke:#004100;stroke-opacity:1;stroke-miterlimit:4" transform="scale(.03906 .03958)"/><path d="M223.4 308.29c29.3.592 37.8 7.894 36.3 6.71" style="fill:none;stroke-width:2.2;stroke-linecap:round;stroke-linejoin:miter;stroke:#00a400;stroke-opacity:1;stroke-miterlimit:4" transform="scale(.03906 .03958)"/><path d="M267 319.046c-8.8 1.579-20.8 9.967-24.4 9.671-9.5-1.085-18.5-5.033-27.7-7.993-3.8-1.185-7.7 0-11.6 0 32.8-15.494 44-13.421 63.7-1.777Zm0 0" style="fill-rule:evenodd;fill:#006800;fill-opacity:1;stroke-width:2.2;stroke-linecap:butt;stroke-linejoin:round;stroke:#004100;stroke-opacity:1;stroke-miterlimit:4" transform="scale(.03906 .03958)"/><path d="M245.4 295.954s-11 1.678-15.9 1.974c-4.8-.296-12-4.836-19.8-13.027-4-4.638-13.4-4.046-13.4-4.046 20.6-4.342 36.7-.197 49 15.198Zm-15-21.118c-14.9-.987-33.5-14.31-37.7-30.198 0 .198 5.5 3.454 4.6 4.244 24.4 6.217 26 11.25 33.1 25.954Zm25 25.46c2.1-13.52 2.7-22.401-3.6-30.395-5.3-6.02-6.6-9.67-10.4-18.256-1.1 17.763-5 32.467 14 48.651ZM232 262.993c11-16.085 13-28.322 11.2-47.467-.3 1.48-4 10.954-4.2 10.954-16.5 10.362-9.2 26.546-7 36.513Zm0 0" style="fill-rule:evenodd;fill:#006800;fill-opacity:1;stroke-width:2.4;stroke-linecap:butt;stroke-linejoin:round;stroke:#004100;stroke-opacity:1;stroke-miterlimit:4" transform="scale(.03906 .03958)"/><path d="M222.2 185.033c11 16.085 9.4 31.283 7.6 50.428-.3-1.48-4-10.954-4.2-10.954-16.5-10.264-5.5-29.507-3.4-39.474Zm0 0" style="fill-rule:evenodd;fill:#006800;fill-opacity:1;stroke-width:2.4;stroke-linecap:butt;stroke-linejoin:round;stroke:#004100;stroke-opacity:1;stroke-miterlimit:4" transform="scale(.03906 .03958)"/><path d="M231.3 210c26.8-13.618 16.5-30.69 21.4-44.013-18.6 13.914-21 28.618-21.3 44.013Zm0 0" style="fill-rule:evenodd;fill:#006800;fill-opacity:1;stroke-width:2.4;stroke-linecap:butt;stroke-linejoin:round;stroke:#004100;stroke-opacity:1;stroke-miterlimit:4" transform="scale(.03906 .03958)"/><path d="M235 206.645c3.4-9.573 10-25.658 10.7-25.658M227 226.382c-.6-6.71-4-24.671-4.3-26.448" style="fill:none;stroke-width:2.2;stroke-linecap:round;stroke-linejoin:miter;stroke:#00a400;stroke-opacity:1;stroke-miterlimit:4" transform="scale(.03906 .03958)"/><path d="M228.3 256.48c-15-.987-31-21.316-35.3-37.105 0 .197 5.5 3.454 4.6 4.243 21.4 9.573 23.6 18.158 30.7 32.862Zm-4.4-14.013c-11-16.085-13-28.224-11.3-47.467.3 1.48 4 10.954 4.3 10.954 16.4 10.362 9.1 26.546 7 36.513Zm9.9-28.224c27.7-12.335 19.2-25.263 27.4-38.782-18.6 13.815-27.1 23.486-27.4 38.782Zm0 0" style="fill-rule:evenodd;fill:#006800;fill-opacity:1;stroke-width:2.4;stroke-linecap:butt;stroke-linejoin:round;stroke:#004100;stroke-opacity:1;stroke-miterlimit:4" transform="scale(.03906 .03958)"/><path d="M235 211.382c6.3-5.921 11.4-12.928 15.2-20.724" style="fill:none;stroke-width:2.2;stroke-linecap:round;stroke-linejoin:miter;stroke:#00a400;stroke-opacity:1;stroke-miterlimit:4" transform="scale(.03906 .03958)"/><path d="m333.6 366.414 13.4.198c-44.7-42.04-130.5-60.198-118.6-137.369-12.3 83.685 70.1 91.48 105.2 137.171Zm0 0" style="fill-rule:evenodd;fill:#ffe100;fill-opacity:1;stroke-width:2.4;stroke-linecap:butt;stroke-linejoin:miter;stroke:#e9bf00;stroke-opacity:1;stroke-miterlimit:4" transform="scale(.03906 .03958)"/><path d="M235.4 212.664c0 2.369-1.9 4.343-4.3 4.343s-4.3-1.974-4.3-4.343 1.9-4.243 4.3-4.243 4.3 1.875 4.3 4.243Zm-2.6 23.685c0 2.17-1.8 4.046-4 4.046-2.3 0-4.1-1.875-4.1-4.046 0-2.27 1.8-4.046 4-4.046s4 1.776 4 4.046ZM236.6 270c0 1.974-1.6 3.553-3.6 3.553s-3.6-1.58-3.6-3.553c0-1.974 1.6-3.553 3.6-3.553s3.6 1.58 3.6 3.553Zm31.3 37.204c0 1.974-1.6 3.553-3.6 3.553s-3.6-1.58-3.6-3.553c0-1.974 1.6-3.651 3.6-3.651s3.6 1.677 3.6 3.65Zm4.5 10.658c0 2.072-1.6 3.651-3.6 3.651s-3.6-1.579-3.6-3.651c0-1.974 1.6-3.553 3.6-3.553s3.6 1.58 3.6 3.553Zm0 0" style="fill-rule:evenodd;fill:#9d4916;fill-opacity:1;stroke-width:1.1;stroke-linecap:butt;stroke-linejoin:miter;stroke:#68300e;stroke-opacity:1;stroke-miterlimit:4" transform="scale(.03906 .03958)"/><path d="M288.2 349.046c-2-1.579-3.7-3.553-4.8-5.822l-14-1.48-.2 7.993Zm0 0" style="fill-rule:evenodd;fill:#fff;fill-opacity:1;stroke-width:1.1;stroke-linecap:butt;stroke-linejoin:miter;stroke:#000;stroke-opacity:1;stroke-miterlimit:4" transform="scale(.03906 .03958)"/><path d="M185.3 339.572c8.2 1.48 20.5-.79 24.5 4.54 4.8 5.427-15.1 13.914-12.3 18.552 6.2 6.514 12.5 3.85 19.4.198 1.7-3.454 3-9.77 3.8-11.645-2.5-5.724-9.3-8.585-7.5-17.27 11.3-4.243 33.2-3.947 35.6-2.27 1.8 3.652.1 5.23.5 8.093-1.9 3.75-6.7 9.868-6.7 13.125 12 4.243 15-.592 25.8-.395 12.6.197 20.2 3.553 23-1.382-2-4.44-13.5-.79-17.8-3.65-2.2-.692-3.6-2.468-5.5-4.343-1.9-1.974-7.2-2.072-8-6.908 2.2-10.263 17-8.585 19.3-10.263l38.4 2.763c7-.197 11 12.237 1.5 15.987-9.4 3.75-37.1-5.526-49.2.888-.6-2.566-9.3-6.612-9.9-6.71-3.7.986-10.9.69-10.9.69-1.7 3.257-3.8 5.625-5.5 8.882-8-3.454-15.5 2.763-24.2.987l-13.6 1.48-8.6-.79-13.2 3.75 9.4-8.289Zm0 0" style="fill-rule:evenodd;fill:#fff;fill-opacity:1;stroke-width:1.1;stroke-linecap:butt;stroke-linejoin:round;stroke:#000;stroke-opacity:1;stroke-miterlimit:4" transform="scale(.03906 .03958)"/><path d="M184.7 337.993c0 1.974-1.6 3.652-3.6 3.652s-3.6-1.678-3.6-3.652c0-1.973 1.6-3.552 3.6-3.552s3.6 1.579 3.6 3.552Zm-1 17.96c0 2.073-1.6 3.652-3.6 3.652s-3.6-1.579-3.6-3.651c0-1.974 1.6-3.651 3.7-3.651 2 0 3.6 1.677 3.6 3.65ZM346.3 349.145c2.3-2.171 3.8-3.553 4.7-5.823l14-1.579.3 7.994Zm0 0" style="fill-rule:evenodd;fill:#fff;fill-opacity:1;stroke-width:1.1;stroke-linecap:butt;stroke-linejoin:miter;stroke:#000;stroke-opacity:1;stroke-miterlimit:4" transform="scale(.03906 .03958)"/><path d="M449.1 339.572c-8.1 1.48-20.4-.69-24.4 4.54-4.9 5.526 15 14.013 12.2 18.552-6.2 6.612-12.5 3.948-19.4.297-1.6-3.454-2.9-9.77-3.8-11.645 2.6-5.823 9.3-8.586 7.6-17.27-11.4-4.342-33.3-4.046-35.6-2.368-1.9 3.75-.2 5.329-.6 8.19 2 3.652 6.8 9.869 6.8 13.027-12 4.342-15.1-.592-25.8-.296-12.6.197-20.3 3.454-23-1.48 1.9-4.343 13.4-.79 17.8-3.553 2.2-.79 3.6-2.467 5.5-4.441 1.9-2.072 7.2-2.072 8-6.81-2.2-10.262-17-8.683-19.4-10.262l-38.4 2.664c-7-.197-10.9 12.237-1.5 16.086 9.4 3.75 37.2-5.625 49.2.79.7-2.567 9.3-6.514 10-6.711 3.6 1.085 10.8.69 10.8.69 1.8 3.356 3.8 5.724 5.6 8.98 8-3.552 15.5 2.764 24.2.889l13.5 1.48 8.7-.69 13.2 3.65-9.4-8.19 8.2-6.02Zm0 0" style="fill-rule:evenodd;fill:#fff;fill-opacity:1;stroke-width:1.1;stroke-linecap:butt;stroke-linejoin:round;stroke:#000;stroke-opacity:1;stroke-miterlimit:4" transform="scale(.03906 .03958)"/><path d="M449.7 337.993c0 1.974 1.6 3.652 3.7 3.652 2 0 3.6-1.678 3.6-3.652 0-1.973-1.6-3.65-3.6-3.65-2.1 0-3.7 1.677-3.7 3.65Zm1 17.96c0 2.073 1.6 3.652 3.6 3.652s3.6-1.579 3.6-3.651c0-1.974-1.6-3.553-3.6-3.553s-3.6 1.58-3.6 3.553Zm0 0" style="fill-rule:evenodd;fill:#fff;fill-opacity:1;stroke-width:1.1;stroke-linecap:butt;stroke-linejoin:miter;stroke:#000;stroke-opacity:1;stroke-miterlimit:4" transform="scale(.03906 .03958)"/><path d="M12.383 13.035c-.125-.023-.172-.015-.258-.023l-.2.625c.313.027.598.027.598.027-.187-.039-.144-.625-.14-.629" style="stroke:none;fill-rule:evenodd;fill:#fff;fill-opacity:1"/><path d="M11.07 13.465v-.422h.07v.355h.196v.067ZM11.395 13.484v-.421h.074v.421ZM11.719 13.52h-.13v-.418l.126-.008q.066 0 .098.027.04.035.039.082c0 .035-.016.059-.051.082q.076.025.078.113a.1.1 0 0 1-.047.09.16.16 0 0 1-.11.035Zm-.051-.364v.102h.039q.065 0 .066-.059 0-.042-.066-.043Zm0 .16v.137h.039q.048 0 .066-.015.029-.011.028-.051t-.02-.051c-.011-.012-.039-.02-.074-.02ZM12.055 13.18v.11h.133v.065h-.133v.122h.195v.07h-.27v-.426h.262v.066ZM12.586 13.555l-.11-.18h-.054v.18h-.07v-.426h.046l.063-.008q.165 0 .164.129a.13.13 0 0 1-.02.066.2.2 0 0 1-.058.043l.129.196Zm-.164-.36v.114h.035l.063-.008c.02-.008.027-.028.027-.051a.07.07 0 0 0-.02-.05.2.2 0 0 0-.078-.012h-.027ZM12.887 13.18v.36h-.078v-.36h-.133v-.063h.347v.063ZM13.309 13.477l-.032-.082h-.144l-.028.082h-.082l.168-.426h.032l.172.426Zm-.106-.297-.043.16h.098ZM13.453 13.445l.024-.066q.045.028.085.027.066 0 .067-.047l-.016-.039-.062-.043-.067-.039-.027-.043-.004-.047c0-.03.012-.062.031-.085a.2.2 0 0 1 .09-.024c.051 0 .086.008.114.024l-.028.066a.14.14 0 0 0-.086-.031.07.07 0 0 0-.039.011q-.012.014-.012.04.001.033.079.074.046.016.066.039l.023.039.008.054q.002.054-.039.082a.16.16 0 0 1-.105.036q-.065.006-.102-.036Zm0 0" style="stroke:none;fill-rule:nonzero;fill:#000;fill-opacity:1"/><path d="M231.3 318.553c10.1 1.283 24.1.394 30.2 0M216 284.21c8.6 6.71 27.1 10.657 26.8 10.657m10.7 1.875c-2.8-14.013-5.8-17.467-8.3-26.25m-43.5-15.79c14.3 6.415 16.5 10.56 25.6 16.975m5.2-14.014c1.2-17.27 3.6-21.907 7.9-25.855m-38.7-1.973c5.2 5.625 22.2 23.684 22.2 23.684m-7-39.573c6.4 4.441 6.4 20.921 6.4 20.921" style="fill:none;stroke-width:2.2;stroke-linecap:round;stroke-linejoin:miter;stroke:#00a400;stroke-opacity:1;stroke-miterlimit:4" transform="scale(.03906 .03958)"/></svg>