<?xml version="1.0" encoding="UTF-8"?>
<svg xmlns="http://www.w3.org/2000/svg" xmlns:xlink="http://www.w3.org/1999/xlink" width="25px" height="px" viewBox="0 0 25 19" version="1.1">
<g id="surface1">
<path style=" stroke:none;fill-rule:evenodd;fill:rgb(9.803922%,71.372551%,93.725491%);fill-opacity:1;" d="M 0 9.5 L 25 9.5 L 25 19 L 0 19 Z M 0 9.5 "/>
<path style=" stroke:none;fill-rule:evenodd;fill:rgb(100%,100%,100%);fill-opacity:1;" d="M 0 0 L 25 0 L 25 9.5 L 0 9.5 Z M 0 0 "/>
<path style="fill-rule:evenodd;fill:rgb(100%,86.666667%,0%);fill-opacity:1;stroke-width:2.4;stroke-linecap:butt;stroke-linejoin:miter;stroke:rgb(49.019608%,42.352942%,0%);stroke-opacity:1;stroke-miterlimit:4;" d="M 317 339.177632 C 369.6 300 426 219.967105 359.9 177.828947 C 347.6 175.361842 333.9 176.052632 327.2 181.381579 C 323.7 179.407895 320.9 179.605263 317.4 183.256579 C 314.9 180.296053 312.4 178.914474 307.4 180.394737 C 297.7 175.263158 286.4 174.177632 275.9 177.434211 C 218 211.776316 253.4 293.980263 317 339.078947 Z M 317 339.177632 " transform="matrix(0.0390625,0,0,0.0395833,0,0)"/>
<path style="fill-rule:evenodd;fill:rgb(30.980393%,83.137256%,41.960785%);fill-opacity:1;stroke-width:2.4;stroke-linecap:butt;stroke-linejoin:round;stroke:rgb(22.745098%,61.56863%,30.980393%);stroke-opacity:1;stroke-miterlimit:4;" d="M 414 250.065789 C 414 250.065789 420 242.072368 420.2 242.072368 C 426.1 238.717105 426.7 234.177632 426.7 234.177632 C 432.6 232.401316 430.7 227.467105 431.2 226.875 C 433.2 225.098684 433.8 222.236842 432.6 219.769737 C 432.6 218.980263 434.6 211.381579 431.8 210.394737 C 431.9 202.401316 427 203.092105 423 208.421053 C 418.8 209.605263 417.9 213.059211 419.4 216.907895 C 413.9 216.907895 413.7 224.901316 415.3 229.342105 C 408 229.144737 412 237.335526 411.8 237.730263 C 409.4 238.914474 413.7 250.460526 414.1 250.065789 Z M 368 318.256579 L 371.6 320.526316 C 372.4 323.289474 375 325.065789 376.9 324.572368 C 377.9 328.914474 382.5 328.322368 385.9 325.756579 C 388.6 329.802632 391.9 329.802632 396.5 328.519737 C 400.5 331.480263 405.8 330.197368 409.3 327.138158 C 413 330.098684 415.5 327.927632 417.4 324.572368 C 420.4 325.361842 422.6 324.868421 423.7 322.006579 C 429.4 321.513158 426.6 316.085526 421.9 313.815789 C 425.6 310.559211 429.8 303.848684 423.9 302.763158 C 422.1 301.480263 418.6 301.776316 416 302.960526 C 415.3 300 411.2 299.309211 406.6 302.565789 C 405.1 299.309211 399.6 300.888158 397.1 303.157895 C 393.8 300.394737 389.9 300.394737 384.2 303.552632 Z M 368 309.572368 C 368.6 305.822368 366 299.013158 370 298.421053 C 369.3 292.105263 370.3 285.098684 377.5 285.690789 C 378.7 279.769737 378.5 274.342105 385.3 273.453947 C 385.3 273.453947 390.8 254.407895 396.5 267.631579 C 398.7 271.480263 398.3 277.796053 393.8 276.611842 C 394.7 281.348684 393.1 285.493421 387.9 285.296053 C 390.2 288.651316 389.5 293.190789 386.9 295.263158 Z M 401.1 285.690789 L 407.1 284.506579 C 413.1 280.460526 415.6 278.782895 418.6 283.322368 C 423.7 282.335526 428.6 282.730263 428.4 286.677632 C 434.4 287.171053 434.4 291.019737 433.7 294.078947 C 434.7 299.407895 432.3 306.414474 428.7 297.927632 C 416.8 290.723684 410.1 291.710526 391.4 295.855263 Z M 404.2 279.769737 C 404.4 279.572368 421.7 275.131579 419.9 269.802632 C 424.8 269.013158 425.8 264.078947 425.9 264.078947 C 436.2 260.921053 435.6 255 435.6 255 C 438.5 251.940789 443.6 248.684211 442.5 243.157895 C 442.8 236.940789 443.4 232.993421 434.9 237.138158 C 428.6 236.546053 426.4 240.098684 424.6 245.625 C 421.6 242.072368 416.8 247.697368 416.2 252.730263 C 416.2 252.730263 408.5 260.328947 408.5 260.526316 L 402 272.467105 Z M 404.2 279.769737 " transform="matrix(0.0390625,0,0,0.0395833,0,0)"/>
<path style="fill-rule:evenodd;fill:rgb(30.980393%,83.137256%,41.960785%);fill-opacity:1;stroke-width:2.4;stroke-linecap:butt;stroke-linejoin:round;stroke:rgb(22.745098%,61.56863%,30.980393%);stroke-opacity:1;stroke-miterlimit:4;" d="M 404.5 266.447368 C 400.4 263.289474 398.1 259.539474 398.8 255.789474 C 396.1 252.138158 394.2 249.868421 396.8 246.611842 L 394.8 239.111842 C 389.4 237.138158 391.7 232.598684 393.1 231.019737 C 390.6 227.368421 390.5 223.914474 392.9 220.559211 C 392.9 214.144737 397.5 216.611842 401.2 220.559211 C 401.2 220.559211 407.6 225.098684 402.9 229.144737 C 407.6 230.822368 408.9 234.769737 406.3 236.546053 C 410.4 238.322368 411 241.973684 408.8 244.539474 C 412.9 247.697368 411.4 251.940789 412.6 255.592105 Z M 404.5 266.447368 " transform="matrix(0.0390625,0,0,0.0395833,0,0)"/>
<path style="fill-rule:evenodd;fill:rgb(30.980393%,83.137256%,41.960785%);fill-opacity:1;stroke-width:2.4;stroke-linecap:butt;stroke-linejoin:round;stroke:rgb(22.745098%,61.56863%,30.980393%);stroke-opacity:1;stroke-miterlimit:4;" d="M 411.8 235.953947 C 411.6 235.855263 404.9 227.269737 406.8 226.677632 C 406.3 224.111842 404.3 221.151316 405.5 218.585526 C 402.2 215.230263 402.1 211.282895 404.7 208.223684 C 402.5 205.164474 403.5 201.118421 406.5 198.355263 C 405.5 193.421053 409.1 192.236842 412.2 191.348684 C 414.5 183.256579 418.2 185.328947 420.4 191.546053 C 423.6 194.309211 423.1 198.453947 422 201.710526 C 425.8 204.177632 423.5 207.434211 421.8 208.717105 Z M 411.8 235.953947 " transform="matrix(0.0390625,0,0,0.0395833,0,0)"/>
<path style="fill-rule:evenodd;fill:rgb(30.980393%,83.137256%,41.960785%);fill-opacity:1;stroke-width:2.4;stroke-linecap:butt;stroke-linejoin:round;stroke:rgb(22.745098%,61.56863%,30.980393%);stroke-opacity:1;stroke-miterlimit:4;" d="M 410.8 193.125 L 405.1 187.401316 C 406.6 184.440789 407.8 179.111842 403.5 176.644737 C 401.1 170.921053 389.3 163.717105 387.4 177.434211 C 385.6 173.289474 381.8 169.243421 379.1 173.980263 C 372.9 168.651316 369.6 170.328947 372.8 177.039474 C 372.8 177.039474 369.9 181.480263 377.4 185.032895 C 378 185.625 375 193.125 384 193.322368 C 382.3 195.888158 385 199.539474 388.6 199.342105 C 386.1 202.401316 390.4 205.756579 393.1 204.473684 C 392 208.026316 392.1 209.703947 397 210.197368 L 402.5 216.513158 L 407 222.631579 Z M 410.8 193.125 " transform="matrix(0.0390625,0,0,0.0395833,0,0)"/>
<path style="fill:none;stroke-width:2.2;stroke-linecap:round;stroke-linejoin:miter;stroke:rgb(22.745098%,61.56863%,30.980393%);stroke-opacity:1;stroke-miterlimit:4;" d="M 414.3 246.513158 C 414.6 246.217105 425.3 221.743421 426.7 214.342105 M 415.4 202.993421 C 415.4 202.993421 417.2 223.026316 412.3 237.631579 M 382.6 182.861842 C 382.6 182.861842 404.5 203.881579 406.6 212.565789 M 397.9 180.592105 C 397.9 180.592105 399.3 197.861842 405.4 214.934211 M 436.4 243.256579 C 436.4 243.256579 414.6 261.809211 404 277.993421 M 415.8 307.993421 C 415.8 307.993421 387 312.039474 374.4 312.335526 M 406.4 320.328947 C 406.4 320.328947 370.6 319.539474 368 316.875 M 388.5 273.947368 C 388.5 274.342105 370.3 304.243421 369.7 313.914474 " transform="matrix(0.0390625,0,0,0.0395833,0,0)"/>
<path style="fill-rule:evenodd;fill:rgb(39.607844%,78.039217%,100%);fill-opacity:1;stroke-width:2.4;stroke-linecap:butt;stroke-linejoin:miter;stroke:rgb(49.019608%,42.352942%,0%);stroke-opacity:1;stroke-miterlimit:4;" d="M 316.9 333.355263 C 279.1 297.828947 240.4 231.019737 278.9 197.171053 C 285.7 201.019737 293.8 197.565789 304.9 193.223684 C 308.3 196.875 312.6 197.763158 316.9 195 C 320.5 196.776316 324.9 195.888158 327.6 192.927632 C 338.6 199.243421 352.5 202.5 355.8 196.184211 C 393.6 232.203947 355.2 299.407895 316.8 333.453947 Z M 316.9 333.355263 " transform="matrix(0.0390625,0,0,0.0395833,0,0)"/>
<path style=" stroke:none;fill-rule:evenodd;fill:rgb(56.078434%,78.039217%,32.549021%);fill-opacity:1;" d="M 12.382812 13.15625 C 11.710938 12.496094 11.152344 11.726562 10.730469 10.878906 C 10.808594 10.808594 10.84375 10.789062 10.882812 10.679688 C 11.109375 10.710938 11.230469 10.71875 11.527344 10.664062 C 11.589844 10.894531 11.601562 11.082031 11.742188 11.273438 L 12.042969 10.679688 C 12.253906 10.734375 12.476562 10.734375 12.6875 10.679688 C 12.8125 10.847656 12.765625 11.101562 12.988281 11.296875 C 13.121094 10.902344 13.25 10.878906 13.382812 10.664062 C 13.578125 10.734375 13.703125 10.703125 13.863281 10.652344 C 13.941406 10.75 13.902344 10.746094 14.058594 10.890625 C 13.644531 11.742188 13.078125 12.511719 12.386719 13.15625 Z M 12.382812 13.15625 "/>
<path style="fill-rule:evenodd;fill:rgb(100%,100%,100%);fill-opacity:1;stroke-width:1.1;stroke-linecap:butt;stroke-linejoin:miter;stroke:rgb(0%,0%,0%);stroke-opacity:1;stroke-miterlimit:4;" d="M 272.6 164.309211 C 272.8 165.592105 272.2 166.973684 271.1 167.763158 C 270 168.453947 268.5 168.453947 267.4 167.763158 C 266.3 166.973684 265.7 165.592105 265.9 164.309211 C 265.9 162.434211 267.4 160.855263 269.3 160.855263 C 271.2 160.855263 272.7 162.434211 272.7 164.309211 Z M 269.1 156.611842 C 269.4 157.993421 268.9 159.375 267.7 160.263158 C 266.6 161.052632 265 161.052632 263.9 160.263158 C 262.7 159.375 262.2 157.993421 262.5 156.611842 C 262.8 154.934211 264.2 153.75 265.8 153.75 C 267.5 153.75 268.9 154.934211 269.2 156.611842 Z M 265.1 149.506579 C 265.3 150.789474 264.7 152.171053 263.6 152.960526 C 262.5 153.651316 261 153.651316 259.9 152.960526 C 258.8 152.171053 258.2 150.789474 258.4 149.506579 C 258.7 147.828947 260.1 146.644737 261.8 146.644737 C 263.4 146.644737 264.8 147.828947 265.1 149.506579 Z M 262.3 142.5 C 262.5 143.881579 261.9 145.164474 260.8 145.953947 C 259.7 146.644737 258.2 146.644737 257.1 145.953947 C 256 145.164474 255.4 143.881579 255.6 142.5 C 255.9 140.822368 257.3 139.638158 259 139.638158 C 260.6 139.638158 262 140.822368 262.3 142.5 Z M 262.8 134.901316 C 263 136.282895 262.4 137.565789 261.3 138.355263 C 260.2 139.046053 258.7 139.046053 257.6 138.355263 C 256.5 137.565789 255.9 136.282895 256.1 134.901316 C 256.4 133.223684 257.8 132.039474 259.5 132.039474 C 261.1 132.039474 262.5 133.223684 262.8 134.901316 Z M 280.4 122.368421 C 280.6 123.75 280 125.032895 278.9 125.822368 C 277.8 126.611842 276.3 126.611842 275.2 125.822368 C 274.1 125.032895 273.5 123.75 273.7 122.368421 C 274 120.789474 275.4 119.605263 277.1 119.605263 C 278.7 119.605263 280.1 120.789474 280.4 122.368421 Z M 280.4 122.368421 " transform="matrix(0.0390625,0,0,0.0395833,0,0)"/>
<path style="fill-rule:evenodd;fill:rgb(100%,100%,100%);fill-opacity:1;stroke-width:1.1;stroke-linecap:butt;stroke-linejoin:miter;stroke:rgb(0%,0%,0%);stroke-opacity:1;stroke-miterlimit:4;" d="M 273.8 123.552632 C 274 124.934211 273.4 126.315789 272.3 127.006579 C 271.2 127.796053 269.7 127.796053 268.6 127.006579 C 267.5 126.315789 266.9 124.934211 267.1 123.552632 C 267.4 121.973684 268.8 120.789474 270.5 120.789474 C 272.1 120.789474 273.5 121.973684 273.8 123.552632 Z M 266.5 127.894737 C 266.7 129.276316 266.1 130.559211 265 131.348684 C 263.9 132.039474 262.4 132.039474 261.3 131.348684 C 260.2 130.559211 259.6 129.276316 259.8 127.894737 C 260.1 126.315789 261.5 125.032895 263.2 125.032895 C 264.8 125.032895 266.2 126.315789 266.5 127.894737 Z M 288.9 122.467105 C 289.2 123.848684 288.7 125.328947 287.5 126.118421 C 286.4 126.907895 284.8 126.907895 283.7 126.118421 C 282.5 125.328947 282 123.848684 282.3 122.467105 C 282.7 120.986842 284 119.901316 285.6 119.901316 C 287.2 119.901316 288.5 120.986842 288.9 122.467105 Z M 298.3 123.256579 C 298.5 124.638158 297.9 126.019737 296.8 126.710526 C 295.7 127.5 294.2 127.5 293.1 126.710526 C 292 126.019737 291.4 124.638158 291.6 123.256579 C 291.9 121.677632 293.3 120.493421 294.9 120.493421 C 296.6 120.493421 298 121.677632 298.3 123.256579 Z M 306.5 122.763158 C 306.8 124.144737 306.3 125.625 305.1 126.414474 C 304 127.203947 302.4 127.203947 301.3 126.414474 C 300.1 125.625 299.6 124.144737 299.9 122.763158 C 300.2 121.184211 301.6 120 303.2 120 C 304.9 120 306.3 121.184211 306.6 122.763158 Z M 306.5 122.763158 " transform="matrix(0.0390625,0,0,0.0395833,0,0)"/>
<path style="fill-rule:evenodd;fill:rgb(100%,86.666667%,0%);fill-opacity:1;stroke-width:1.1;stroke-linecap:butt;stroke-linejoin:miter;stroke:rgb(49.019608%,42.352942%,0%);stroke-opacity:1;stroke-miterlimit:4;" d="M 325.9 117.532895 C 325.9 122.269737 322 126.118421 317.3 126.118421 C 312.6 126.118421 308.7 122.269737 308.7 117.532895 C 308.7 112.796053 312.6 108.947368 317.3 108.947368 C 322 108.947368 325.9 112.796053 325.9 117.532895 Z M 325.9 117.532895 " transform="matrix(0.0390625,0,0,0.0395833,0,0)"/>
<path style="fill-rule:evenodd;fill:rgb(100%,100%,100%);fill-opacity:1;stroke-width:1.1;stroke-linecap:butt;stroke-linejoin:miter;stroke:rgb(0%,0%,0%);stroke-opacity:1;stroke-miterlimit:4;" d="M 335 122.664474 C 335 124.539474 333.5 126.118421 331.6 126.118421 C 329.7 126.118421 328.2 124.539474 328.2 122.664474 C 328.5 121.085526 329.9 119.901316 331.5 119.901316 C 333.2 119.901316 334.6 121.085526 334.9 122.664474 Z M 343.6 123.355263 C 343.9 124.736842 343.4 126.217105 342.2 127.006579 C 341.1 127.796053 339.5 127.796053 338.4 127.006579 C 337.2 126.217105 336.7 124.736842 337 123.355263 C 337.3 121.776316 338.7 120.592105 340.4 120.592105 C 342 120.592105 343.4 121.776316 343.7 123.355263 Z M 352.1 122.960526 C 352.3 124.342105 351.7 125.723684 350.6 126.414474 C 349.5 127.203947 348 127.203947 346.9 126.414474 C 345.8 125.723684 345.2 124.342105 345.4 122.960526 C 345.7 121.381579 347.1 120.197368 348.8 120.197368 C 350.4 120.197368 351.8 121.381579 352.1 122.960526 Z M 359.2 122.664474 C 359.4 124.046053 358.8 125.427632 357.7 126.118421 C 356.6 126.907895 355.1 126.907895 354 126.118421 C 352.9 125.427632 352.3 124.046053 352.5 122.664474 C 352.8 121.085526 354.2 119.901316 355.8 119.901316 C 357.5 119.901316 358.9 121.085526 359.2 122.664474 Z M 368.1 123.651316 C 368.3 125.032895 367.7 126.414474 366.6 127.105263 C 365.5 127.894737 364 127.894737 362.9 127.105263 C 361.8 126.414474 361.2 125.032895 361.4 123.651316 C 361.7 122.072368 363.1 120.888158 364.8 120.888158 C 366.4 120.888158 367.8 122.072368 368.1 123.651316 Z M 375.1 128.092105 C 375.3 129.473684 374.7 130.756579 373.6 131.546053 C 372.5 132.236842 371 132.236842 369.9 131.546053 C 368.8 130.756579 368.2 129.473684 368.4 128.092105 C 368.7 126.513158 370.1 125.328947 371.8 125.328947 C 373.4 125.328947 374.8 126.513158 375.1 128.092105 Z M 375.1 128.092105 " transform="matrix(0.0390625,0,0,0.0395833,0,0)"/>
<path style="fill-rule:evenodd;fill:rgb(89.411765%,0%,0%);fill-opacity:1;stroke-width:2.4;stroke-linecap:butt;stroke-linejoin:miter;stroke:rgb(67.450982%,0%,0%);stroke-opacity:1;stroke-miterlimit:4;" d="M 269.4 151.677632 L 278 168.157895 L 357.2 168.157895 L 366.4 152.269737 C 361 148.618421 357.4 145.756579 349.7 147.532895 C 345.4 141.315789 340.7 140.230263 333.7 140.822368 C 331.6 138.651316 329.7 137.368421 326.1 136.776316 L 309.5 137.269737 C 305.1 137.664474 301.7 141.118421 301.5 141.118421 C 294.5 140.230263 288 140.427632 286.3 147.335526 C 279.8 145.657895 275.3 147.532895 269.4 151.677632 Z M 269.4 151.677632 " transform="matrix(0.0390625,0,0,0.0395833,0,0)"/>
<path style="fill-rule:evenodd;fill:rgb(100%,100%,100%);fill-opacity:1;stroke-width:1.1;stroke-linecap:butt;stroke-linejoin:miter;stroke:rgb(0%,0%,0%);stroke-opacity:1;stroke-miterlimit:4;" d="M 378 135.296053 C 378.2 136.677632 377.6 137.960526 376.5 138.75 C 375.4 139.440789 373.9 139.440789 372.8 138.75 C 371.7 137.960526 371.1 136.677632 371.3 135.296053 C 371.6 133.717105 373 132.434211 374.6 132.434211 C 376.3 132.434211 377.7 133.717105 378 135.296053 Z M 378.6 143.289474 C 378.8 144.671053 378.2 145.953947 377.1 146.743421 C 376 147.434211 374.5 147.434211 373.4 146.743421 C 372.3 145.953947 371.7 144.671053 371.9 143.289474 C 372.2 141.710526 373.6 140.526316 375.2 140.526316 C 376.9 140.526316 378.3 141.710526 378.6 143.289474 Z M 376.1 150.493421 C 376.3 151.875 375.7 153.157895 374.6 153.947368 C 373.5 154.638158 372 154.638158 370.9 153.947368 C 369.8 153.157895 369.2 151.875 369.4 150.493421 C 369.7 148.914474 371.1 147.730263 372.8 147.730263 C 374.4 147.730263 375.8 148.914474 376.1 150.493421 Z M 373.1 156.513158 C 373.1 158.388158 371.6 159.868421 369.7 159.868421 C 367.8 159.868421 366.3 158.388158 366.3 156.513158 C 366.6 154.835526 368 153.651316 369.6 153.651316 C 371.3 153.651316 372.7 154.835526 373 156.513158 Z M 369.4 164.013158 C 369.6 165.296053 369 166.677632 367.9 167.467105 C 366.8 168.157895 365.3 168.157895 364.2 167.467105 C 363.1 166.677632 362.5 165.296053 362.7 164.013158 C 363 162.335526 364.4 161.151316 366.1 161.151316 C 367.7 161.151316 369.1 162.335526 369.4 164.013158 Z M 322.6 154.440789 C 322.6 157.203947 320.4 159.375 317.6 159.375 C 314.8 159.375 312.6 157.203947 312.6 154.440789 C 312.6 151.677632 314.8 149.407895 317.6 149.407895 C 320.4 149.407895 322.6 151.677632 322.6 154.440789 Z M 322.6 154.440789 " transform="matrix(0.0390625,0,0,0.0395833,0,0)"/>
<path style="fill-rule:evenodd;fill:rgb(100%,100%,100%);fill-opacity:1;stroke-width:1.1;stroke-linecap:butt;stroke-linejoin:miter;stroke:rgb(0%,0%,0%);stroke-opacity:1;stroke-miterlimit:4;" d="M 323.6 142.993421 C 323.6 146.348684 320.9 149.013158 317.6 149.013158 C 314.3 149.013158 311.6 146.348684 311.6 142.993421 C 311.6 139.638158 314.3 136.973684 317.6 136.973684 C 320.9 136.973684 323.6 139.638158 323.6 142.993421 Z M 323.6 142.993421 " transform="matrix(0.0390625,0,0,0.0395833,0,0)"/>
<path style="fill-rule:evenodd;fill:rgb(100%,100%,100%);fill-opacity:1;stroke-width:1.1;stroke-linecap:butt;stroke-linejoin:miter;stroke:rgb(0%,0%,0%);stroke-opacity:1;stroke-miterlimit:4;" d="M 322.7 132.039474 C 322.7 135 320.3 137.368421 317.3 137.368421 C 314.3 137.368421 311.9 135 311.9 132.039474 C 311.9 128.980263 314.3 126.611842 317.3 126.611842 C 320.3 126.611842 322.7 128.980263 322.7 132.039474 Z M 322.7 132.039474 " transform="matrix(0.0390625,0,0,0.0395833,0,0)"/>
<path style="fill-rule:evenodd;fill:rgb(100%,86.666667%,0%);fill-opacity:1;stroke-width:1.1;stroke-linecap:butt;stroke-linejoin:miter;stroke:rgb(49.019608%,42.352942%,0%);stroke-opacity:1;stroke-miterlimit:4;" d="M 315.5 109.046053 L 315.5 104.802632 L 311.9 104.703947 L 312.1 101.546053 L 315.1 101.546053 L 315.1 98.684211 L 319.6 98.684211 L 319.6 101.151316 L 323.1 101.151316 L 323 104.605263 L 319.4 104.605263 L 319.4 109.144737 L 315.4 109.144737 Z M 315.5 109.046053 " transform="matrix(0.0390625,0,0,0.0395833,0,0)"/>
<path style="fill:none;stroke-width:3.3;stroke-linecap:butt;stroke-linejoin:miter;stroke:rgb(100%,86.666667%,0%);stroke-opacity:1;stroke-miterlimit:4;" d="M 277.6 168.157895 C 270.5 156.217105 260 139.835526 266.6 132.730263 C 275.5 122.565789 296.5 131.743421 309.9 125.921053 C 310.9 137.269737 307.7 156.315789 312.8 160.164474 L 308 164.407895 C 305 160.657895 299.6 155.625 292.8 164.605263 C 288.8 161.151316 284.5 161.842105 282.4 166.282895 C 280.4 166.578947 280.5 167.368421 277.6 168.157895 Z M 357.6 167.664474 C 364.8 155.723684 375.2 139.440789 368.7 132.335526 C 359.7 122.171053 338.7 131.348684 325.4 125.427632 C 324.4 136.875 327.6 155.921053 322.4 159.769737 L 327.2 164.013158 C 331.9 157.5 337.6 157.302632 342.5 164.210526 C 346.4 160.756579 350.4 161.151316 352.9 165.888158 C 354.9 166.184211 354.7 166.875 357.7 167.664474 Z M 357.6 167.664474 " transform="matrix(0.0390625,0,0,0.0395833,0,0)"/>
<path style="fill-rule:evenodd;fill:rgb(100%,86.666667%,0%);fill-opacity:1;stroke-width:2.4;stroke-linecap:butt;stroke-linejoin:miter;stroke:rgb(49.019608%,42.352942%,0%);stroke-opacity:1;stroke-miterlimit:4;" d="M 277.3 177.138158 C 303.7 174.671053 330.2 174.671053 356.6 177.138158 L 359.7 168.059211 C 332 163.125 312.9 162.532895 276.7 167.467105 Z M 277.3 177.138158 " transform="matrix(0.0390625,0,0,0.0395833,0,0)"/>
<path style=" stroke:none;fill-rule:evenodd;fill:rgb(78.039217%,43.137255%,18.039216%);fill-opacity:1;" d="M 12.269531 13.039062 L 12.292969 12.871094 C 12.40625 12.902344 12.488281 12.890625 12.582031 12.855469 L 12.675781 12.710938 L 12.605469 12.628906 C 12.542969 12.640625 12.488281 12.699219 12.449219 12.75 C 12.386719 12.753906 12.332031 12.722656 12.269531 12.710938 L 12.210938 12.457031 C 12.152344 12.386719 12.027344 12.390625 12.054688 12.515625 L 12.066406 12.613281 C 12.089844 12.675781 12.101562 12.757812 12.140625 12.800781 L 12.140625 12.902344 Z M 12.316406 12.3125 C 12.238281 12.355469 12.136719 12.28125 12.03125 12.238281 C 11.933594 12.234375 11.859375 12.316406 11.742188 12.289062 C 11.765625 12.226562 11.816406 12.214844 11.851562 12.179688 C 11.824219 12.015625 11.910156 11.960938 11.933594 11.960938 C 11.957031 11.960938 12.054688 11.984375 12.054688 11.984375 L 12.148438 11.996094 C 12.207031 12.105469 12.285156 12.195312 12.316406 12.3125 "/>
<path style="fill-rule:evenodd;fill:rgb(100%,88.235295%,0%);fill-opacity:1;stroke-width:2.4;stroke-linecap:butt;stroke-linejoin:miter;stroke:rgb(91.37255%,74.901962%,0%);stroke-opacity:1;stroke-miterlimit:4;" d="M 300.8 366.019737 C 307.8 354.572368 357 331.578947 403.2 281.842105 C 356.2 327.138158 326.8 338.190789 288.4 365.822368 L 300.8 366.118421 Z M 300.8 366.019737 " transform="matrix(0.0390625,0,0,0.0395833,0,0)"/>
<path style="fill-rule:evenodd;fill:rgb(61.56863%,28.627452%,8.627451%);fill-opacity:1;stroke-width:1.1;stroke-linecap:butt;stroke-linejoin:miter;stroke:rgb(40.784314%,18.82353%,5.490196%);stroke-opacity:1;stroke-miterlimit:4;" d="M 368.4 313.223684 C 368.4 315.197368 366.8 316.776316 364.8 316.776316 C 362.8 316.776316 361.2 315.197368 361.2 313.223684 C 361.2 311.25 362.8 309.572368 364.8 309.572368 C 366.8 309.572368 368.4 311.25 368.4 313.223684 Z M 402.8 278.289474 C 402.8 280.559211 401 282.335526 398.7 282.335526 C 396.5 282.335526 394.7 280.559211 394.7 278.289474 C 394.7 276.118421 396.5 274.342105 398.7 274.342105 C 400.9 274.342105 402.7 276.118421 402.7 278.289474 Z M 414.2 248.684211 C 414.4 250.065789 413.8 251.546053 412.6 252.335526 C 411.4 253.125 409.9 253.125 408.7 252.335526 C 407.5 251.546053 406.9 250.065789 407.1 248.684211 C 407.4 247.006579 408.9 245.723684 410.6 245.723684 C 412.4 245.723684 413.9 247.006579 414.2 248.684211 Z M 403 210.296053 C 403.2 211.677632 402.6 213.157895 401.4 213.947368 C 400.2 214.736842 398.7 214.736842 397.5 213.947368 C 396.3 213.157895 395.7 211.677632 395.9 210.296053 C 396.2 208.519737 397.7 207.335526 399.4 207.335526 C 401.2 207.335526 402.7 208.519737 403 210.296053 Z M 403 210.296053 " transform="matrix(0.0390625,0,0,0.0395833,0,0)"/>
<path style="fill-rule:evenodd;fill:rgb(100%,100%,100%);fill-opacity:1;stroke-width:1.1;stroke-linecap:butt;stroke-linejoin:miter;stroke:rgb(66.274512%,66.274512%,66.274512%);stroke-opacity:1;stroke-miterlimit:4;" d="M 279.1 269.605263 L 279.1 254.407895 L 277.6 253.223684 L 277.6 249.572368 L 280.4 249.276316 L 280.9 232.302632 L 279.1 231.315789 L 278.9 228.453947 C 278.9 228.453947 280.9 229.342105 280.9 228.848684 L 281.4 225.394737 C 281.4 225.394737 280.1 225.197368 280.1 224.703947 C 280.1 224.210526 281.7 222.927632 281.7 222.927632 C 281.7 222.927632 280.9 222.138158 280.7 221.644737 L 279.9 218.782895 L 280.7 215.921053 L 280.2 214.440789 L 278.9 212.072368 L 280.7 210.296053 L 280.2 207.532895 C 280.5 206.447368 281 205.460526 281.7 204.572368 C 282 204.375 284 201.611842 284 201.611842 L 288.4 200.625 L 293.5 201.315789 L 296.3 203.092105 L 296.8 207.730263 C 296.8 207.730263 296.3 210.493421 296.1 210.493421 L 293.8 211.480263 C 293.8 211.480263 291.2 211.776316 290.9 211.480263 C 290.6 211.184211 291.7 214.736842 291.7 214.736842 L 291.7 217.697368 L 291.5 221.644737 C 291.5 221.644737 291.5 223.421053 291.2 223.618421 C 290.9 223.815789 290.4 224.605263 290.4 224.605263 L 290.2 228.552632 L 294.2 229.638158 L 294 231.907895 L 291.2 232.105263 L 291.7 247.796053 L 295.8 248.486842 L 295.8 252.927632 L 294 253.914474 L 293.5 269.605263 Z M 341.5 269.901316 L 341.5 254.703947 L 340 253.421053 L 340 249.769737 L 342.8 249.572368 L 343.3 232.598684 L 341.5 231.611842 L 341.3 228.848684 C 341.3 228.848684 343.3 229.539474 343.3 229.046053 L 343.8 225.690789 C 343.8 225.690789 342.5 225.394737 342.5 224.901316 C 342.5 224.407895 344.1 223.125 344.1 223.125 C 344.1 223.125 343.3 222.434211 343.1 221.842105 L 342.3 218.980263 L 343.1 216.217105 L 342.5 214.736842 L 341.3 212.368421 L 343.1 210.592105 L 342.5 207.730263 C 342.9 206.644737 343.4 205.756579 344.1 204.868421 L 346.4 201.907895 L 350.8 200.822368 L 355.9 201.611842 L 358.7 203.388158 L 359.2 208.026316 C 359.2 208.026316 358.7 210.789474 358.5 210.789474 L 356.2 211.776316 C 356.2 211.776316 353.6 212.072368 353.3 211.776316 C 353 211.480263 354.1 214.934211 354.1 214.934211 L 354.1 217.993421 L 353.8 221.940789 C 353.8 221.940789 353.8 223.618421 353.6 223.914474 L 352.8 224.901316 L 352.6 228.848684 L 356.6 229.835526 L 356.4 232.105263 L 353.6 232.401316 L 354.1 247.993421 L 358.2 248.782895 L 358.2 253.223684 L 356.4 254.210526 L 355.9 269.901316 Z M 309.9 270.394737 L 309.9 255.197368 L 308.4 254.013158 L 308.4 250.263158 L 311.2 250.065789 L 311.7 233.092105 L 309.9 232.105263 L 309.7 229.342105 C 309.7 229.342105 311.7 230.131579 311.7 229.638158 L 312.2 226.184211 C 312.2 226.184211 311 225.986842 311 225.493421 C 311 225 312.5 223.618421 312.5 223.618421 C 312.5 223.618421 311.7 222.927632 311.5 222.434211 L 310.7 219.473684 L 311.5 216.710526 L 311 215.230263 L 309.7 212.861842 L 311.5 211.085526 L 311 208.223684 C 311.3 207.138158 311.8 206.25 312.5 205.361842 C 312.8 205.164474 314.8 202.401316 314.8 202.401316 L 319.2 201.414474 L 324.3 202.105263 L 327.1 203.881579 L 327.7 208.519737 C 327.7 208.519737 327.1 211.282895 326.9 211.282895 L 324.6 212.269737 C 324.6 212.269737 322 212.565789 321.8 212.269737 C 321.6 211.973684 322.5 215.427632 322.5 215.427632 L 322.5 218.486842 L 322.3 222.434211 C 322.3 222.434211 322.3 224.210526 322 224.407895 L 321.2 225.394737 L 321 229.342105 L 325 230.328947 L 324.8 232.598684 L 322 232.894737 L 322.5 248.585526 L 326.6 249.276316 L 326.6 253.717105 L 324.8 254.703947 L 324.3 270.394737 Z M 309.9 270.394737 " transform="matrix(0.0390625,0,0,0.0395833,0,0)"/>
<path style=" stroke:none;fill-rule:evenodd;fill:rgb(0%,0%,0%);fill-opacity:1;" d="M 11.054688 10.667969 L 11.054688 10.191406 L 11.3125 10.191406 L 11.3125 10.6875 Z M 12.28125 10.707031 L 12.292969 10.222656 L 12.527344 10.222656 L 12.527344 10.695312 L 12.28125 10.703125 Z M 13.492188 10.695312 L 13.476562 10.238281 L 13.730469 10.230469 L 13.730469 10.707031 L 13.496094 10.695312 Z M 11.117188 9.269531 L 11.265625 9.269531 L 11.265625 9.511719 L 11.117188 9.511719 Z M 12.300781 9.277344 L 12.507812 9.277344 L 12.507812 9.515625 L 12.300781 9.515625 Z M 13.511719 9.296875 L 13.691406 9.296875 L 13.691406 9.523438 L 13.515625 9.523438 Z M 13.511719 9.296875 "/>
<path style="fill:none;stroke-width:1.1;stroke-linecap:butt;stroke-linejoin:miter;stroke:rgb(65.882355%,65.882355%,65.882355%);stroke-opacity:1;stroke-miterlimit:4;" d="M 286.6 207.039474 C 290.6 211.578947 290.9 211.578947 290.9 211.578947 M 317.1 207.039474 C 317.9 208.519737 319.1 211.776316 320.7 212.072368 M 350 207.730263 C 350 207.730263 351.3 211.282895 353 211.776316 " transform="matrix(0.0390625,0,0,0.0395833,0,0)"/>
<path style=" stroke:none;fill-rule:evenodd;fill:rgb(72.549021%,46.666667%,0%);fill-opacity:1;" d="M 11.023438 7.679688 C 11.492188 7.523438 10.914062 7.21875 10.816406 7.679688 C 10.667969 7.707031 10.648438 7.816406 10.320312 7.769531 C 9.523438 9.078125 10.113281 11.195312 12.433594 13.382812 C 8.277344 9.796875 9.964844 7.144531 11.117188 7.246094 C 11.742188 7.289062 11.429688 8.078125 11.023438 7.683594 Z M 11.023438 7.679688 "/>
<path style="fill:none;stroke-width:2.4;stroke-linecap:butt;stroke-linejoin:miter;stroke:rgb(49.019608%,42.352942%,0%);stroke-opacity:1;stroke-miterlimit:4;" d="M 285.6 177.039474 C 285.6 177.039474 295.3 179.703947 295.3 183.848684 M 295.3 176.348684 C 295.3 176.348684 302.1 179.309211 303.6 181.875 M 348.7 177.434211 C 348.7 177.434211 340.1 178.618421 338.2 181.184211 M 335.6 178.223684 C 335.6 178.223684 330.6 182.269737 331.1 183.453947 M 334.5 196.184211 C 333.7 195.888158 330.3 191.348684 331.1 185.723684 M 301.3 193.223684 C 301.3 193.223684 303.6 190.559211 303.6 185.723684 M 317.1 183.848684 L 317.5 194.802632 M 326.9 193.223684 C 326.9 192.532895 329.9 185.328947 326.5 181.875 M 306.2 180.394737 C 306.2 180.394737 303.6 187.598684 305.5 193.618421 M 325.5 186.809211 C 325.5 186.809211 321.3 187.993421 319.5 189.769737 M 307.7 187.894737 C 307.7 187.598684 312.3 186.907895 313.7 189.473684 " transform="matrix(0.0390625,0,0,0.0395833,0,0)"/>
<path style=" stroke:none;fill-rule:evenodd;fill:rgb(78.039217%,43.137255%,18.039216%);fill-opacity:1;" d="M 11.742188 11.949219 C 11.75 11.949219 11.890625 11.921875 11.890625 11.855469 C 11.960938 11.808594 11.910156 11.675781 11.910156 11.675781 L 11.777344 11.652344 L 11.597656 11.449219 C 11.589844 11.382812 11.609375 11.324219 11.570312 11.257812 C 11.445312 11.289062 11.375 11.394531 11.335938 11.515625 C 11.363281 11.554688 11.367188 11.59375 11.425781 11.628906 C 11.484375 11.636719 11.523438 11.601562 11.578125 11.613281 C 11.605469 11.664062 11.597656 11.707031 11.609375 11.757812 C 11.683594 11.808594 11.699219 11.882812 11.742188 11.949219 M 11.582031 11.070312 L 11.582031 10.824219 L 11.410156 10.816406 C 11.386719 10.859375 11.347656 10.875 11.324219 10.90625 L 11.203125 10.96875 C 11.253906 11.027344 11.316406 11.0625 11.351562 11.09375 C 11.4375 11.121094 11.515625 11.113281 11.582031 11.070312 M 11.042969 11.433594 L 10.949219 11.273438 C 11.011719 11.253906 11.074219 11.261719 11.132812 11.285156 C 11.132812 11.285156 11.171875 11.382812 11.144531 11.417969 C 11.128906 11.457031 11.039062 11.441406 11.042969 11.433594 M 12.46875 11.59375 C 12.519531 11.570312 12.558594 11.519531 12.574219 11.464844 L 12.398438 11.261719 L 12.242188 11.257812 C 12.199219 11.21875 12.152344 11.203125 12.101562 11.210938 C 12.101562 11.210938 12.148438 11.289062 12.210938 11.300781 C 12.257812 11.402344 12.453125 11.59375 12.46875 11.59375 M 12.636719 11.617188 C 12.636719 11.613281 12.792969 11.5625 12.871094 11.566406 C 12.867188 11.503906 12.988281 11.355469 12.988281 11.355469 L 13.207031 11.644531 C 13.167969 11.675781 13.097656 11.667969 13.042969 11.675781 C 13.042969 11.675781 12.9375 11.78125 12.925781 11.785156 C 12.914062 11.789062 12.722656 11.835938 12.628906 11.777344 C 12.589844 11.695312 12.640625 11.605469 12.636719 11.617188 M 12.761719 11.109375 C 12.789062 11.011719 12.789062 10.910156 12.761719 10.808594 L 12.511719 10.808594 L 12.347656 10.890625 C 12.347656 10.890625 12.398438 11.054688 12.464844 11.039062 C 12.492188 11.121094 12.578125 11.101562 12.621094 11.136719 Z M 13.734375 10.859375 C 13.695312 10.964844 13.679688 11.074219 13.726562 11.175781 C 13.773438 11.1875 13.828125 11.214844 13.867188 11.207031 L 14.066406 10.84375 C 13.929688 10.796875 13.816406 10.800781 13.730469 10.859375 Z M 13.734375 10.859375 "/>
<path style=" stroke:none;fill-rule:evenodd;fill:rgb(72.549021%,46.666667%,0%);fill-opacity:1;" d="M 13.792969 7.648438 C 13.324219 7.492188 13.902344 7.183594 14 7.648438 C 14.152344 7.671875 14.171875 7.785156 14.5 7.738281 C 15.292969 9.042969 14.703125 11.164062 12.382812 13.351562 C 16.542969 9.765625 14.851562 7.113281 13.699219 7.210938 C 13.074219 7.25 13.386719 8.042969 13.792969 7.648438 "/>
<path style=" stroke:none;fill-rule:evenodd;fill:rgb(78.039217%,43.137255%,18.039216%);fill-opacity:1;" d="M 13.839844 11.269531 C 13.832031 11.269531 13.722656 11.347656 13.722656 11.347656 L 13.558594 11.414062 L 13.386719 11.417969 L 13.347656 11.300781 L 13.480469 11.183594 C 13.367188 11.167969 13.261719 11.203125 13.167969 11.292969 C 13.167969 11.292969 13.167969 11.421875 13.246094 11.492188 C 13.289062 11.546875 13.421875 11.648438 13.421875 11.648438 C 13.496094 11.664062 13.570312 11.652344 13.632812 11.609375 Z M 12.933594 12.460938 C 12.988281 12.476562 13.375 11.957031 13.375 11.957031 C 13.339844 11.863281 13.273438 11.789062 13.183594 11.746094 C 13.183594 11.746094 12.996094 11.96875 12.992188 12.046875 C 12.960938 12.113281 12.875 12.375 12.914062 12.410156 C 12.910156 12.417969 12.894531 12.523438 12.933594 12.460938 "/>
<path style="fill-rule:evenodd;fill:rgb(0%,40.784314%,0%);fill-opacity:1;stroke-width:2.4;stroke-linecap:butt;stroke-linejoin:round;stroke:rgb(0%,25.490198%,0%);stroke-opacity:1;stroke-miterlimit:4;" d="M 266.4 317.368421 C 251.6 304.539474 231.6 297.434211 203.7 307.105263 C 211.2 310.263158 219.3 311.447368 226.2 315 Z M 266.4 317.368421 " transform="matrix(0.0390625,0,0,0.0395833,0,0)"/>
<path style="fill:none;stroke-width:2.2;stroke-linecap:round;stroke-linejoin:miter;stroke:rgb(0%,64.313728%,0%);stroke-opacity:1;stroke-miterlimit:4;" d="M 223.4 308.289474 C 252.7 308.881579 261.2 316.184211 259.7 315 " transform="matrix(0.0390625,0,0,0.0395833,0,0)"/>
<path style="fill-rule:evenodd;fill:rgb(0%,40.784314%,0%);fill-opacity:1;stroke-width:2.2;stroke-linecap:butt;stroke-linejoin:round;stroke:rgb(0%,25.490198%,0%);stroke-opacity:1;stroke-miterlimit:4;" d="M 267 319.046053 C 258.2 320.625 246.2 329.013158 242.6 328.717105 C 233.1 327.631579 224.1 323.684211 214.9 320.723684 C 211.1 319.539474 207.2 320.723684 203.3 320.723684 C 236.1 305.230263 247.3 307.302632 267 318.947368 Z M 267 319.046053 " transform="matrix(0.0390625,0,0,0.0395833,0,0)"/>
<path style="fill-rule:evenodd;fill:rgb(0%,40.784314%,0%);fill-opacity:1;stroke-width:2.4;stroke-linecap:butt;stroke-linejoin:round;stroke:rgb(0%,25.490198%,0%);stroke-opacity:1;stroke-miterlimit:4;" d="M 245.4 295.953947 C 245.4 295.953947 234.4 297.631579 229.5 297.927632 C 224.7 297.631579 217.5 293.092105 209.7 284.901316 C 205.7 280.263158 196.3 280.855263 196.3 280.855263 C 216.9 276.513158 233 280.657895 245.3 296.052632 Z M 230.4 274.835526 C 215.5 273.848684 196.9 260.526316 192.7 244.638158 C 192.7 244.835526 198.2 248.092105 197.3 248.881579 C 221.7 255.098684 223.3 260.131579 230.4 274.835526 Z M 255.4 300.296053 C 257.5 286.776316 258.1 277.894737 251.8 269.901316 C 246.5 263.881579 245.2 260.230263 241.4 251.644737 C 240.3 269.407895 236.4 284.111842 255.4 300.296053 Z M 232 262.993421 C 243 246.907895 245 234.671053 243.2 215.526316 C 242.9 217.006579 239.2 226.480263 239 226.480263 C 222.5 236.842105 229.8 253.026316 232 262.993421 Z M 232 262.993421 " transform="matrix(0.0390625,0,0,0.0395833,0,0)"/>
<path style="fill-rule:evenodd;fill:rgb(0%,40.784314%,0%);fill-opacity:1;stroke-width:2.4;stroke-linecap:butt;stroke-linejoin:round;stroke:rgb(0%,25.490198%,0%);stroke-opacity:1;stroke-miterlimit:4;" d="M 222.2 185.032895 C 233.2 201.118421 231.6 216.315789 229.8 235.460526 C 229.5 233.980263 225.8 224.506579 225.6 224.506579 C 209.1 214.243421 220.1 195 222.2 185.032895 Z M 222.2 185.032895 " transform="matrix(0.0390625,0,0,0.0395833,0,0)"/>
<path style="fill-rule:evenodd;fill:rgb(0%,40.784314%,0%);fill-opacity:1;stroke-width:2.4;stroke-linecap:butt;stroke-linejoin:round;stroke:rgb(0%,25.490198%,0%);stroke-opacity:1;stroke-miterlimit:4;" d="M 231.3 210 C 258.1 196.381579 247.8 179.309211 252.7 165.986842 C 234.1 179.901316 231.7 194.605263 231.4 210 Z M 231.3 210 " transform="matrix(0.0390625,0,0,0.0395833,0,0)"/>
<path style="fill:none;stroke-width:2.2;stroke-linecap:round;stroke-linejoin:miter;stroke:rgb(0%,64.313728%,0%);stroke-opacity:1;stroke-miterlimit:4;" d="M 235 206.644737 C 238.4 197.072368 245 180.986842 245.7 180.986842 M 227 226.381579 C 226.4 219.671053 223 201.710526 222.7 199.934211 " transform="matrix(0.0390625,0,0,0.0395833,0,0)"/>
<path style="fill-rule:evenodd;fill:rgb(0%,40.784314%,0%);fill-opacity:1;stroke-width:2.4;stroke-linecap:butt;stroke-linejoin:round;stroke:rgb(0%,25.490198%,0%);stroke-opacity:1;stroke-miterlimit:4;" d="M 228.3 256.480263 C 213.3 255.493421 197.3 235.164474 193 219.375 C 193 219.572368 198.5 222.828947 197.6 223.618421 C 219 233.190789 221.2 241.776316 228.3 256.480263 Z M 223.9 242.467105 C 212.9 226.381579 210.9 214.243421 212.6 195 C 212.9 196.480263 216.6 205.953947 216.9 205.953947 C 233.3 216.315789 226 232.5 223.9 242.467105 Z M 233.8 214.243421 C 261.5 201.907895 253 188.980263 261.2 175.460526 C 242.6 189.276316 234.1 198.947368 233.8 214.243421 Z M 233.8 214.243421 " transform="matrix(0.0390625,0,0,0.0395833,0,0)"/>
<path style="fill:none;stroke-width:2.2;stroke-linecap:round;stroke-linejoin:miter;stroke:rgb(0%,64.313728%,0%);stroke-opacity:1;stroke-miterlimit:4;" d="M 235 211.381579 C 241.3 205.460526 246.4 198.453947 250.2 190.657895 " transform="matrix(0.0390625,0,0,0.0395833,0,0)"/>
<path style="fill-rule:evenodd;fill:rgb(100%,88.235295%,0%);fill-opacity:1;stroke-width:2.4;stroke-linecap:butt;stroke-linejoin:miter;stroke:rgb(91.37255%,74.901962%,0%);stroke-opacity:1;stroke-miterlimit:4;" d="M 333.6 366.414474 L 347 366.611842 C 302.3 324.572368 216.5 306.414474 228.4 229.243421 C 216.1 312.927632 298.5 320.723684 333.6 366.414474 Z M 333.6 366.414474 " transform="matrix(0.0390625,0,0,0.0395833,0,0)"/>
<path style="fill-rule:evenodd;fill:rgb(61.56863%,28.627452%,8.627451%);fill-opacity:1;stroke-width:1.1;stroke-linecap:butt;stroke-linejoin:miter;stroke:rgb(40.784314%,18.82353%,5.490196%);stroke-opacity:1;stroke-miterlimit:4;" d="M 235.4 212.664474 C 235.4 215.032895 233.5 217.006579 231.1 217.006579 C 228.7 217.006579 226.8 215.032895 226.8 212.664474 C 226.8 210.296053 228.7 208.421053 231.1 208.421053 C 233.5 208.421053 235.4 210.296053 235.4 212.664474 Z M 232.8 236.348684 C 232.8 238.519737 231 240.394737 228.8 240.394737 C 226.5 240.394737 224.7 238.519737 224.7 236.348684 C 224.7 234.078947 226.5 232.302632 228.7 232.302632 C 230.9 232.302632 232.7 234.078947 232.7 236.348684 Z M 236.6 270 C 236.6 271.973684 235 273.552632 233 273.552632 C 231 273.552632 229.4 271.973684 229.4 270 C 229.4 268.026316 231 266.447368 233 266.447368 C 235 266.447368 236.6 268.026316 236.6 270 Z M 267.9 307.203947 C 267.9 309.177632 266.3 310.756579 264.3 310.756579 C 262.3 310.756579 260.7 309.177632 260.7 307.203947 C 260.7 305.230263 262.3 303.552632 264.3 303.552632 C 266.3 303.552632 267.9 305.230263 267.9 307.203947 Z M 272.4 317.861842 C 272.4 319.934211 270.8 321.513158 268.8 321.513158 C 266.8 321.513158 265.2 319.934211 265.2 317.861842 C 265.2 315.888158 266.8 314.309211 268.8 314.309211 C 270.8 314.309211 272.4 315.888158 272.4 317.861842 Z M 272.4 317.861842 " transform="matrix(0.0390625,0,0,0.0395833,0,0)"/>
<path style="fill-rule:evenodd;fill:rgb(100%,100%,100%);fill-opacity:1;stroke-width:1.1;stroke-linecap:butt;stroke-linejoin:miter;stroke:rgb(0%,0%,0%);stroke-opacity:1;stroke-miterlimit:4;" d="M 288.2 349.046053 C 286.2 347.467105 284.5 345.493421 283.4 343.223684 L 269.4 341.743421 L 269.2 349.736842 Z M 288.2 349.046053 " transform="matrix(0.0390625,0,0,0.0395833,0,0)"/>
<path style="fill-rule:evenodd;fill:rgb(100%,100%,100%);fill-opacity:1;stroke-width:1.1;stroke-linecap:butt;stroke-linejoin:round;stroke:rgb(0%,0%,0%);stroke-opacity:1;stroke-miterlimit:4;" d="M 185.3 339.572368 C 193.5 341.052632 205.8 338.782895 209.8 344.111842 C 214.6 349.539474 194.7 358.026316 197.5 362.664474 C 203.7 369.177632 210 366.513158 216.9 362.861842 C 218.6 359.407895 219.9 353.092105 220.7 351.217105 C 218.2 345.493421 211.4 342.631579 213.2 333.947368 C 224.5 329.703947 246.4 330 248.8 331.677632 C 250.6 335.328947 248.9 336.907895 249.3 339.769737 C 247.4 343.519737 242.6 349.638158 242.6 352.894737 C 254.6 357.138158 257.6 352.302632 268.4 352.5 C 281 352.697368 288.6 356.052632 291.4 351.118421 C 289.4 346.677632 277.9 350.328947 273.6 347.467105 C 271.4 346.776316 270 345 268.1 343.125 C 266.2 341.151316 260.9 341.052632 260.1 336.217105 C 262.3 325.953947 277.1 327.631579 279.4 325.953947 L 317.8 328.717105 C 324.8 328.519737 328.8 340.953947 319.3 344.703947 C 309.9 348.453947 282.2 339.177632 270.1 345.592105 C 269.5 343.026316 260.8 338.980263 260.2 338.881579 C 256.5 339.868421 249.3 339.572368 249.3 339.572368 C 247.6 342.828947 245.5 345.197368 243.8 348.453947 C 235.8 345 228.3 351.217105 219.6 349.440789 L 206 350.921053 L 197.4 350.131579 L 184.2 353.881579 L 193.6 345.592105 Z M 185.3 339.572368 " transform="matrix(0.0390625,0,0,0.0395833,0,0)"/>
<path style="fill-rule:evenodd;fill:rgb(100%,100%,100%);fill-opacity:1;stroke-width:1.1;stroke-linecap:butt;stroke-linejoin:miter;stroke:rgb(0%,0%,0%);stroke-opacity:1;stroke-miterlimit:4;" d="M 184.7 337.993421 C 184.7 339.967105 183.1 341.644737 181.1 341.644737 C 179.1 341.644737 177.5 339.967105 177.5 337.993421 C 177.5 336.019737 179.1 334.440789 181.1 334.440789 C 183.1 334.440789 184.7 336.019737 184.7 337.993421 Z M 183.7 355.953947 C 183.7 358.026316 182.1 359.605263 180.1 359.605263 C 178.1 359.605263 176.5 358.026316 176.5 355.953947 C 176.5 353.980263 178.1 352.302632 180.2 352.302632 C 182.2 352.302632 183.8 353.980263 183.8 355.953947 Z M 183.7 355.953947 " transform="matrix(0.0390625,0,0,0.0395833,0,0)"/>
<path style="fill-rule:evenodd;fill:rgb(100%,100%,100%);fill-opacity:1;stroke-width:1.1;stroke-linecap:butt;stroke-linejoin:miter;stroke:rgb(0%,0%,0%);stroke-opacity:1;stroke-miterlimit:4;" d="M 346.3 349.144737 C 348.6 346.973684 350.1 345.592105 351 343.322368 L 365 341.743421 L 365.3 349.736842 Z M 346.3 349.144737 " transform="matrix(0.0390625,0,0,0.0395833,0,0)"/>
<path style="fill-rule:evenodd;fill:rgb(100%,100%,100%);fill-opacity:1;stroke-width:1.1;stroke-linecap:butt;stroke-linejoin:round;stroke:rgb(0%,0%,0%);stroke-opacity:1;stroke-miterlimit:4;" d="M 449.1 339.572368 C 441 341.052632 428.7 338.881579 424.7 344.111842 C 419.8 349.638158 439.7 358.125 436.9 362.664474 C 430.7 369.276316 424.4 366.611842 417.5 362.960526 C 415.9 359.506579 414.6 353.190789 413.7 351.315789 C 416.3 345.493421 423 342.730263 421.3 334.046053 C 409.9 329.703947 388 330 385.7 331.677632 C 383.8 335.427632 385.5 337.006579 385.1 339.868421 C 387.1 343.519737 391.9 349.736842 391.9 352.894737 C 379.9 357.236842 376.8 352.302632 366.1 352.598684 C 353.5 352.796053 345.8 356.052632 343.1 351.118421 C 345 346.776316 356.5 350.328947 360.9 347.565789 C 363.1 346.776316 364.5 345.098684 366.4 343.125 C 368.3 341.052632 373.6 341.052632 374.4 336.315789 C 372.2 326.052632 357.4 327.631579 355 326.052632 L 316.6 328.717105 C 309.6 328.519737 305.7 340.953947 315.1 344.802632 C 324.5 348.552632 352.3 339.177632 364.3 345.592105 C 365 343.026316 373.6 339.078947 374.3 338.881579 C 377.9 339.967105 385.1 339.572368 385.1 339.572368 C 386.9 342.927632 388.9 345.296053 390.7 348.552632 C 398.7 345 406.2 351.315789 414.9 349.440789 L 428.4 350.921053 L 437.1 350.230263 L 450.3 353.881579 L 440.9 345.690789 L 449.1 339.671053 Z M 449.1 339.572368 " transform="matrix(0.0390625,0,0,0.0395833,0,0)"/>
<path style="fill-rule:evenodd;fill:rgb(100%,100%,100%);fill-opacity:1;stroke-width:1.1;stroke-linecap:butt;stroke-linejoin:miter;stroke:rgb(0%,0%,0%);stroke-opacity:1;stroke-miterlimit:4;" d="M 449.7 337.993421 C 449.7 339.967105 451.3 341.644737 453.4 341.644737 C 455.4 341.644737 457 339.967105 457 337.993421 C 457 336.019737 455.4 334.342105 453.4 334.342105 C 451.3 334.342105 449.7 336.019737 449.7 337.993421 Z M 450.7 355.953947 C 450.7 358.026316 452.3 359.605263 454.3 359.605263 C 456.3 359.605263 457.9 358.026316 457.9 355.953947 C 457.9 353.980263 456.3 352.401316 454.3 352.401316 C 452.3 352.401316 450.7 353.980263 450.7 355.953947 Z M 450.7 355.953947 " transform="matrix(0.0390625,0,0,0.0395833,0,0)"/>
<path style=" stroke:none;fill-rule:evenodd;fill:rgb(100%,100%,100%);fill-opacity:1;" d="M 12.382812 13.035156 C 12.257812 13.011719 12.210938 13.019531 12.125 13.011719 L 11.925781 13.636719 C 12.238281 13.664062 12.523438 13.664062 12.523438 13.664062 C 12.335938 13.625 12.378906 13.039062 12.382812 13.035156 "/>
<path style=" stroke:none;fill-rule:nonzero;fill:rgb(0%,0%,0%);fill-opacity:1;" d="M 11.070312 13.464844 L 11.070312 13.042969 L 11.140625 13.042969 L 11.140625 13.398438 L 11.335938 13.398438 L 11.335938 13.464844 Z M 11.070312 13.464844 "/>
<path style=" stroke:none;fill-rule:nonzero;fill:rgb(0%,0%,0%);fill-opacity:1;" d="M 11.394531 13.484375 L 11.394531 13.0625 L 11.46875 13.0625 L 11.46875 13.484375 Z M 11.394531 13.484375 "/>
<path style=" stroke:none;fill-rule:nonzero;fill:rgb(0%,0%,0%);fill-opacity:1;" d="M 11.71875 13.519531 L 11.589844 13.519531 L 11.589844 13.101562 L 11.714844 13.09375 C 11.757812 13.09375 11.792969 13.101562 11.8125 13.121094 C 11.839844 13.144531 11.851562 13.171875 11.851562 13.203125 C 11.851562 13.238281 11.835938 13.261719 11.800781 13.285156 C 11.851562 13.300781 11.878906 13.339844 11.878906 13.398438 C 11.878906 13.4375 11.863281 13.46875 11.832031 13.488281 C 11.804688 13.511719 11.769531 13.523438 11.722656 13.523438 Z M 11.667969 13.15625 L 11.667969 13.257812 L 11.707031 13.257812 C 11.75 13.257812 11.773438 13.238281 11.773438 13.199219 C 11.773438 13.171875 11.75 13.15625 11.707031 13.15625 Z M 11.667969 13.316406 L 11.667969 13.453125 L 11.707031 13.453125 C 11.738281 13.453125 11.761719 13.449219 11.773438 13.4375 C 11.792969 13.429688 11.800781 13.414062 11.800781 13.386719 C 11.800781 13.359375 11.792969 13.34375 11.78125 13.335938 C 11.769531 13.324219 11.742188 13.316406 11.707031 13.316406 Z M 11.667969 13.316406 "/>
<path style=" stroke:none;fill-rule:nonzero;fill:rgb(0%,0%,0%);fill-opacity:1;" d="M 12.054688 13.179688 L 12.054688 13.289062 L 12.1875 13.289062 L 12.1875 13.355469 L 12.054688 13.355469 L 12.054688 13.476562 L 12.25 13.476562 L 12.25 13.546875 L 11.980469 13.546875 L 11.980469 13.121094 L 12.242188 13.121094 L 12.242188 13.1875 Z M 12.054688 13.179688 "/>
<path style=" stroke:none;fill-rule:nonzero;fill:rgb(0%,0%,0%);fill-opacity:1;" d="M 12.585938 13.554688 L 12.476562 13.375 L 12.421875 13.375 L 12.421875 13.554688 L 12.351562 13.554688 L 12.351562 13.128906 L 12.398438 13.128906 L 12.460938 13.121094 C 12.570312 13.121094 12.625 13.164062 12.625 13.25 C 12.625 13.273438 12.617188 13.296875 12.605469 13.316406 C 12.585938 13.335938 12.566406 13.351562 12.546875 13.359375 L 12.675781 13.554688 Z M 12.421875 13.195312 L 12.421875 13.308594 L 12.457031 13.308594 L 12.519531 13.300781 C 12.539062 13.292969 12.546875 13.273438 12.546875 13.25 C 12.546875 13.226562 12.539062 13.210938 12.527344 13.199219 C 12.507812 13.191406 12.484375 13.1875 12.449219 13.1875 L 12.421875 13.1875 Z M 12.421875 13.195312 "/>
<path style=" stroke:none;fill-rule:nonzero;fill:rgb(0%,0%,0%);fill-opacity:1;" d="M 12.886719 13.179688 L 12.886719 13.539062 L 12.808594 13.539062 L 12.808594 13.179688 L 12.675781 13.179688 L 12.675781 13.117188 L 13.023438 13.117188 L 13.023438 13.179688 Z M 12.886719 13.179688 "/>
<path style=" stroke:none;fill-rule:nonzero;fill:rgb(0%,0%,0%);fill-opacity:1;" d="M 13.308594 13.476562 L 13.277344 13.394531 L 13.132812 13.394531 L 13.105469 13.476562 L 13.023438 13.476562 L 13.191406 13.050781 L 13.222656 13.050781 L 13.394531 13.476562 Z M 13.203125 13.179688 L 13.160156 13.339844 L 13.257812 13.339844 Z M 13.203125 13.179688 "/>
<path style=" stroke:none;fill-rule:nonzero;fill:rgb(0%,0%,0%);fill-opacity:1;" d="M 13.453125 13.445312 L 13.476562 13.378906 C 13.507812 13.398438 13.535156 13.40625 13.5625 13.40625 C 13.605469 13.40625 13.628906 13.390625 13.628906 13.359375 L 13.613281 13.320312 L 13.550781 13.277344 L 13.484375 13.238281 L 13.457031 13.195312 L 13.453125 13.148438 C 13.453125 13.117188 13.464844 13.085938 13.484375 13.0625 C 13.511719 13.046875 13.539062 13.039062 13.574219 13.039062 C 13.625 13.039062 13.660156 13.046875 13.6875 13.0625 L 13.660156 13.128906 C 13.632812 13.109375 13.605469 13.097656 13.574219 13.097656 C 13.558594 13.097656 13.546875 13.101562 13.535156 13.109375 C 13.527344 13.117188 13.523438 13.132812 13.523438 13.148438 C 13.523438 13.171875 13.550781 13.195312 13.601562 13.222656 C 13.632812 13.234375 13.65625 13.246094 13.667969 13.261719 L 13.691406 13.300781 L 13.699219 13.355469 C 13.699219 13.390625 13.6875 13.417969 13.660156 13.4375 C 13.632812 13.460938 13.597656 13.472656 13.554688 13.472656 C 13.511719 13.476562 13.476562 13.464844 13.453125 13.4375 Z M 13.453125 13.445312 "/>
<path style="fill:none;stroke-width:2.2;stroke-linecap:round;stroke-linejoin:miter;stroke:rgb(0%,64.313728%,0%);stroke-opacity:1;stroke-miterlimit:4;" d="M 231.3 318.552632 C 241.4 319.835526 255.4 318.947368 261.5 318.552632 M 216 284.210526 C 224.6 290.921053 243.1 294.868421 242.8 294.868421 M 253.5 296.743421 C 250.7 282.730263 247.7 279.276316 245.2 270.493421 M 201.7 254.703947 C 216 261.118421 218.2 265.263158 227.3 271.677632 M 232.5 257.664474 C 233.7 240.394737 236.1 235.756579 240.4 231.809211 M 201.7 229.835526 C 206.9 235.460526 223.9 253.519737 223.9 253.519737 M 216.9 213.947368 C 223.3 218.388158 223.3 234.868421 223.3 234.868421 " transform="matrix(0.0390625,0,0,0.0395833,0,0)"/>
</g>
</svg>
