<svg xmlns="http://www.w3.org/2000/svg" width="25" height="px" viewBox="0 0 25 19"><path d="M0 0h25v19H0z" style="fill:#12ad2b;fill-opacity:1;stroke:none"/><path d="M0 5.426h25v8.152H0Zm0 0" style="stroke:none;fill-rule:nonzero;fill:#ffce00;fill-opacity:1"/><path d="M0 0v19l9.375-9.5" style="stroke:none;fill-rule:nonzero;fill:#d21034;fill-opacity:1"/><path d="m13.734 6.785-.828 2.582 1.274.418" style="stroke:none;fill-rule:nonzero;fill:#000001;fill-opacity:1"/><path d="m13.734 6.785.829 2.582-1.274.418" style="stroke:none;fill-rule:nonzero;fill:#000001;fill-opacity:1"/><path d="M16.281 8.66h-2.68v1.36" style="stroke:none;fill-rule:nonzero;fill:#000001;fill-opacity:1"/><path d="m16.281 8.66-2.168 1.598-.785-1.098" style="stroke:none;fill-rule:nonzero;fill:#000001;fill-opacity:1"/><path d="m15.309 11.695-.829-2.582-1.273.422" style="stroke:none;fill-rule:nonzero;fill:#000001;fill-opacity:1"/><path d="m15.309 11.695-2.168-1.593.789-1.098" style="stroke:none;fill-rule:nonzero;fill:#000001;fill-opacity:1"/><path d="m12.16 11.695 2.168-1.593-.789-1.098" style="stroke:none;fill-rule:nonzero;fill:#000001;fill-opacity:1"/><path d="m12.16 11.695.828-2.582 1.274.422" style="stroke:none;fill-rule:nonzero;fill:#000001;fill-opacity:1"/><path d="m11.188 8.66 2.167 1.598.786-1.098" style="stroke:none;fill-rule:nonzero;fill:#000001;fill-opacity:1"/><path d="M11.188 8.66h2.68v1.36M20.64 6.785l-.828 2.582 1.274.418" style="stroke:none;fill-rule:nonzero;fill:#000001;fill-opacity:1"/><path d="m20.64 6.785.829 2.582-1.274.418" style="stroke:none;fill-rule:nonzero;fill:#000001;fill-opacity:1"/><path d="M23.188 8.66h-2.68v1.36" style="stroke:none;fill-rule:nonzero;fill:#000001;fill-opacity:1"/><path d="m23.188 8.66-2.168 1.598-.786-1.098" style="stroke:none;fill-rule:nonzero;fill:#000001;fill-opacity:1"/><path d="m22.215 11.695-.828-2.582-1.274.422" style="stroke:none;fill-rule:nonzero;fill:#000001;fill-opacity:1"/><path d="m22.215 11.695-2.168-1.593.789-1.098" style="stroke:none;fill-rule:nonzero;fill:#000001;fill-opacity:1"/><path d="m19.066 11.695 2.168-1.593-.789-1.098" style="stroke:none;fill-rule:nonzero;fill:#000001;fill-opacity:1"/><path d="m19.066 11.695.829-2.582 1.273.422" style="stroke:none;fill-rule:nonzero;fill:#000001;fill-opacity:1"/><path d="m18.094 8.66 2.168 1.598.785-1.098" style="stroke:none;fill-rule:nonzero;fill:#000001;fill-opacity:1"/><path d="M18.094 8.66h2.68v1.36" style="stroke:none;fill-rule:nonzero;fill:#000001;fill-opacity:1"/></svg>