<svg xmlns="http://www.w3.org/2000/svg" width="25" height="px" viewBox="0 0 25 19"><path d="M0 0h28.125v9.5H12.5Zm0 0" style="stroke:none;fill-rule:evenodd;fill:#ed2939;fill-opacity:1"/><path d="M0 19h28.125V9.5H12.5Zm0 0" style="stroke:none;fill-rule:evenodd;fill:#002395;fill-opacity:1"/><path d="m0 0 12.5 9.5L0 19Zm0 0" style="stroke:none;fill-rule:evenodd;fill:#fff;fill-opacity:1"/><path d="m6.309 7.168.003-.148s-.074-.125.016-.258c0 0-.195-.106-.148-.27 0 0-.172-.043-.164-.234 0 0-.184-.012-.203-.176 0 0-.188.031-.274-.125 0 0-.18.035-.234-.094 0 0-.18.059-.282-.093 0 0-.187.078-.265-.067-.078.145-.27.067-.27.067-.101.152-.281.09-.281.09-.05.128-.23.093-.23.093-.082.16-.27.125-.27.125-.02.164-.207.18-.207.18a.22.22 0 0 1-.16.234c.047.16-.145.266-.145.266.094.137.016.258.016.258l-.004.14Zm0 0" style="stroke:none;fill-rule:nonzero;fill:#ff0;fill-opacity:1"/><path d="M377.157 843.083v-3.49s-1.767-3.03.466-5.97c0 0-4.653-2.48-3.536-6.337 0 0-4.187-1.01-3.908-5.602 0 0-4.466-.276-5.024-4.042 0 0-4.373.643-6.234-3.03 0 0-4.466.826-5.583-2.205 0 0-4.373 1.47-6.792-2.112 0 0-4.56 1.837-6.327-1.562-1.954 3.399-6.42 1.562-6.42 1.562-2.42 3.49-6.7 2.02-6.7 2.02-1.21 3.123-5.49 2.297-5.49 2.297-2.046 3.673-6.512 3.03-6.512 3.03-.373 3.674-4.932 3.95-4.932 3.95.465 2.571-1.21 4.96-3.629 5.602.93 3.766-3.535 6.246-3.535 6.246 2.233 3.122.279 6.153.279 6.153v3.215Zm0 0" style="fill:none;stroke-width:.3;stroke-linecap:butt;stroke-linejoin:miter;stroke:#000;stroke-opacity:1;stroke-miterlimit:4" transform="matrix(.04198 0 0 .04253 -9.521 -28.69)"/><path d="M6.238 6.984c-.488-.046-1.05-.168-1.48.082-.293-.175-.695-.164-1.04-.128-.187.035-.405.035-.605.066l-.031.004c-.355.023-.676-.082-.988-.223.101.563.21 1.137.265 1.727.118.879-.406 1.61-.199 2.472.13.414.578.657.988.704q.599.04 1.18.167.105.03.203.07.136.065.242.177c.22-.235.547-.301.868-.336.578-.07 1.293-.032 1.648-.563v-.031c.191-.297.168-.742.082-1.074-.008-.118-.035-.22-.055-.332-.351-.946-.046-2.008.102-2.97a2.2 2.2 0 0 1-.598.208c-.168.02-.347.012-.515.004Zm0 0" style="stroke:none;fill-rule:nonzero;fill:red;fill-opacity:1"/><path d="M6.965 9.703c0 .059.035.113.043.168.07.414.133.965-.285 1.223-.47.297-1.075.168-1.614.328a1 1 0 0 0-.332.2c-.05-.032-.097-.083-.16-.11-.441-.239-1.02-.16-1.52-.29-.253-.077-.511-.277-.577-.538-.16-.684.226-1.266.183-1.946a8.6 8.6 0 0 0-.234-1.5c.39.188.84.219 1.281.13a1.9 1.9 0 0 1 1.012.089c.168-.074.363-.105.547-.125.343.04.71.098 1.066.098q.356-.03.66-.176c-.12.8-.36 1.64-.07 2.45" style="stroke:none;fill-rule:nonzero;fill:#80cfe1;fill-opacity:1"/><path d="M6.262 9.863v-.758h.09l-1.137-.742-.004-.386h.11l-.571-.41-.562.41h.109v.386l-1.133.742h.09v.754h3.008" style="stroke:none;fill-rule:nonzero;fill:#fff;fill-opacity:1"/><path d="M376.04 906.456V888.73h2.048l-26.983-17.542-.093-9.001h2.605l-13.584-9.827-13.492 9.735h2.605l.093 9.093-27.076 17.542h2.233v17.634Zm0 0" style="fill:none;stroke-width:1.2;stroke-linecap:butt;stroke-linejoin:miter;stroke:#000;stroke-opacity:1;stroke-miterlimit:4" transform="matrix(.04198 0 0 .04253 -9.521 -28.69)"/><path d="M6.613 10.855v.235H2.95v-.238Zm0 0" style="stroke:none;fill-rule:nonzero;fill:#fff;fill-opacity:1"/><path d="M384.415 929.785v5.51h-87.37v-5.602h87.37Zm0 0" style="fill:none;stroke-width:1.2;stroke-linecap:butt;stroke-linejoin:miter;stroke:#000;stroke-opacity:1;stroke-miterlimit:4" transform="matrix(.04198 0 0 .04253 -9.521 -28.69)"/><path d="M3.191 10.84v-.797h.145l-.008.805.008-.801-.211-.004v-.176l3.273.008v.168H6.2v.809l-.004-.809h.149l.008.8" style="stroke:none;fill-rule:nonzero;fill:#fff;fill-opacity:1"/><path d="M302.815 929.417V910.59h3.442l-.186 19.012.186-18.828-4.931-.184v-3.95l77.972.093v3.949h-4.839l.186 19.012-.279-19.012h3.629l.093 18.828" style="fill:none;stroke-width:1.2;stroke-linecap:butt;stroke-linejoin:miter;stroke:#000;stroke-opacity:1;stroke-miterlimit:4" transform="matrix(.04198 0 0 .04253 -9.521 -28.69)"/><path d="M319.563 924.825v-13.134h-10.607v13.042l10.514.092" style="fill:none;stroke-width:1.2;stroke-linecap:butt;stroke-linejoin:miter;stroke:#000;stroke-opacity:1;stroke-miterlimit:4" transform="matrix(.04198 0 0 .04253 -9.521 -28.69)"/><path d="M312.026 914.355v7.623h4.745v-7.623h-4.838m58.99 10.47-.093-13.042h-10.42v13.042h10.513" style="fill:none;stroke-width:1.2;stroke-linecap:butt;stroke-linejoin:miter;stroke:#000;stroke-opacity:1;stroke-miterlimit:4" transform="matrix(.04198 0 0 .04253 -9.521 -28.69)"/><path d="M363.2 914.538v7.532h4.84v-7.532h-4.84m7.63-11.02v-13.043h-10.514v13.042Zm0 0" style="fill:none;stroke-width:1.2;stroke-linecap:butt;stroke-linejoin:miter;stroke:#000;stroke-opacity:1;stroke-miterlimit:4" transform="matrix(.04198 0 0 .04253 -9.521 -28.69)"/><path d="M363.108 893.23v7.532h4.838v-7.531h-4.838m-43.638 10.286v-13.134h-10.514v13.042h10.514Zm0 0" style="fill:none;stroke-width:1.2;stroke-linecap:butt;stroke-linejoin:miter;stroke:#000;stroke-opacity:1;stroke-miterlimit:4" transform="matrix(.04198 0 0 .04253 -9.521 -28.69)"/><path d="M311.933 893.139v7.531h4.745v-7.531h-4.745m26.61 10.378v-13.134H328.03v13.042h10.514" style="fill:none;stroke-width:1.2;stroke-linecap:butt;stroke-linejoin:miter;stroke:#000;stroke-opacity:1;stroke-miterlimit:4" transform="matrix(.04198 0 0 .04253 -9.521 -28.69)"/><path d="M330.821 893.139v7.531h4.745v-7.531h-4.745m22.238 10.378v-13.042l-10.421-.092v13.042l10.42.092" style="fill:none;stroke-width:1.2;stroke-linecap:butt;stroke-linejoin:miter;stroke:#000;stroke-opacity:1;stroke-miterlimit:4" transform="matrix(.04198 0 0 .04253 -9.521 -28.69)"/><path d="M345.43 893.139v7.531h4.838v-7.531h-4.839" style="fill:none;stroke-width:1.2;stroke-linecap:butt;stroke-linejoin:miter;stroke:#000;stroke-opacity:1;stroke-miterlimit:4" transform="matrix(.04198 0 0 .04253 -9.521 -28.69)"/><path d="m5.41 9.566.008 1.286H4.137l-.004-1.286Zm0 0" style="stroke:none;fill-rule:nonzero;fill:#fff;fill-opacity:1"/><path d="m355.664 899.476.093 30.217h-30.24l-.092-30.217Zm-30.426 8.633h30.52m-26.798 21.584v-21.4m23.168 21.4v-21.308m14.702-21.767-17.028-12.4h-19.26l-17.027 12.4h53.315m-34.8-22.778v7.532h16.19v-7.532h-16.19" style="fill:none;stroke-width:1.2;stroke-linecap:butt;stroke-linejoin:miter;stroke:#000;stroke-opacity:1;stroke-miterlimit:4" transform="matrix(.04198 0 0 .04253 -9.521 -28.69)"/><path d="M336.404 865.677v3.858h7.35v-3.858h-7.35m3.629-10.654 8.932 6.337H331.1l9.026-6.337" style="fill:none;stroke-width:1.2;stroke-linecap:butt;stroke-linejoin:miter;stroke:#000;stroke-opacity:1;stroke-miterlimit:4" transform="matrix(.04198 0 0 .04253 -9.521 -28.69)"/><path d="M6.277 7.496c.106 0 .133.445.133.668.094.031.297.16.387.274H5.766c.086-.114.289-.243.379-.27 0-.223.023-.676.132-.668" style="stroke:none;fill-rule:nonzero;fill:#fff;fill-opacity:1"/><path d="M376.32 850.798c2.605 0 3.164 10.47 3.164 15.798 2.233.642 7.071 3.673 9.211 6.429h-24.564c2.047-2.756 6.979-5.787 9.026-6.43 0-5.326.65-15.797 3.163-15.797m-49.5 49.505h2.14l-.558 1.194s1.023 1.377 0 3.03l.558 1.01h-2.14l.558-1.01s-1.023-1.836 0-3.03l-.558-1.194m4.466 0h2.233l-.65 1.194s1.023 1.377 0 3.03l.65 1.01h-2.233l.652-1.01s-1.024-1.836 0-3.03l-.652-1.194m5.025 0h2.047l-.559 1.194s1.024 1.377 0 3.03l.559 1.01h-2.047l.465-1.01s-.93-1.836 0-3.03l-.558-1.194Zm5.49 0h2.233l-.745 1.285s1.117 1.286 0 2.94l.651 1.01h-2.14l.559-1.01s-.93-1.837 0-3.031Zm4.93 0h2.14l-.65 1.285s1.116 1.286 0 2.94l.558 1.01h-1.954l.465-1.01s-1.023-1.837 0-3.031l-.558-1.103m4.838 0h2.233l-.744 1.194s1.116 1.286 0 2.94l.651 1.01h-2.047l.558-1.01s-1.023-1.837 0-3.031l-.65-1.103" style="fill:none;stroke-width:1.2;stroke-linecap:butt;stroke-linejoin:miter;stroke:#000;stroke-opacity:1;stroke-miterlimit:4" transform="matrix(.04198 0 0 .04253 -9.521 -28.69)"/><path d="M4.777 12.5c.477 0 1.063-.102 1.34-.242l.602-.055.015.746c-.511.285-1.691.348-1.953.344-.258-.004-1.453-.059-1.968-.344l.007-.75.606.055c.43.168.89.254 1.351.246" style="stroke:none;fill-rule:nonzero;fill:#ff0;fill-opacity:1"/><path d="M340.684 968.36c11.444 0 25.308-2.297 31.914-5.695l14.33-1.194.278 17.542c-12.096 6.705-40.288 8.175-46.43 8.083-6.047-.092-34.705-1.378-46.987-8.174l.186-17.543 14.422 1.286c6.606 3.398 21.028 5.694 32.287 5.694" style="fill:none;stroke-width:.3;stroke-linecap:butt;stroke-linejoin:miter;stroke:#000;stroke-opacity:1;stroke-miterlimit:4" transform="matrix(.04198 0 0 .04253 -9.521 -28.69)"/><path d="m1.258 9.313.531.171-.16.871-.5.082s-.086-.457.129-1.124" style="stroke:none;fill-rule:nonzero;fill:#ff0;fill-opacity:1"/><path d="m256.943 893.598 12.562 4.041-3.815 20.481-12.003 1.837s-1.954-10.745 3.256-26.36Zm0 0" style="fill:none;stroke-width:.3;stroke-linecap:butt;stroke-linejoin:miter;stroke:#000;stroke-opacity:1;stroke-miterlimit:4" transform="matrix(.04198 0 0 .04253 -9.521 -28.69)"/><path d="m1.629 10.352-.5.085.316-.457Zm0 0" style="stroke:none;fill-rule:nonzero;fill:#7e7e7e;fill-opacity:1"/><path d="m265.69 917.937-12.003 1.928 7.63-10.653 4.373 8.725" style="fill:none;stroke-width:.3;stroke-linecap:butt;stroke-linejoin:miter;stroke:#000;stroke-opacity:1;stroke-miterlimit:4" transform="matrix(.04198 0 0 .04253 -9.521 -28.69)"/><path d="m.941 9.945.512.04c.012.437.067 2.113 2.043 2.206l-.062.614c-2.407.02-2.586-2.063-2.489-2.86" style="stroke:none;fill-rule:nonzero;fill:#ff0;fill-opacity:1"/><path d="m249.314 908.385 12.189.827c.279 10.378 1.488 49.78 48.662 51.984l-1.489 14.42c-57.408.55-61.688-48.403-59.362-67.231Zm44.754 70.077 14.422-3.03" style="fill:none;stroke-width:.3;stroke-linecap:butt;stroke-linejoin:miter;stroke:#000;stroke-opacity:1;stroke-miterlimit:4" transform="matrix(.04198 0 0 .04253 -9.521 -28.69)"/><path d="m8.254 9.32-.527.172.168.867.507.082s.078-.457-.148-1.12" style="stroke:none;fill-rule:nonzero;fill:#ff0;fill-opacity:1"/><path d="m423.494 893.69-12.561 4.04 4 20.482 12.004 2.02s1.953-10.837-3.443-26.542Zm0 0" style="fill:none;stroke-width:.3;stroke-linecap:butt;stroke-linejoin:miter;stroke:#000;stroke-opacity:1;stroke-miterlimit:4" transform="matrix(.04198 0 0 .04253 -9.521 -28.69)"/><path d="m7.895 10.352.503.093-.324-.46-.183.367" style="stroke:none;fill-rule:nonzero;fill:#7e7e7e;fill-opacity:1"/><path d="m414.934 918.029 12.003 2.112-7.723-10.746-4.28 8.634" style="fill:none;stroke-width:.3;stroke-linecap:butt;stroke-linejoin:miter;stroke:#000;stroke-opacity:1;stroke-miterlimit:4" transform="matrix(.04198 0 0 .04253 -9.521 -28.69)"/><path d="m8.582 9.95-.516.034c-.007.442-.046 2.118-2.023 2.211l.074.61c2.406.027 2.57-2.059 2.469-2.856" style="stroke:none;fill-rule:nonzero;fill:#ff0;fill-opacity:1"/><path d="m431.217 908.477-12.19.826c-.185 10.379-1.023 49.872-48.197 51.984l1.582 14.328c57.409.643 61.317-48.31 58.805-67.046Zm-44.197 69.985-14.422-2.939" style="fill:none;stroke-width:.3;stroke-linecap:butt;stroke-linejoin:miter;stroke:#000;stroke-opacity:1;stroke-miterlimit:4" transform="matrix(.04198 0 0 .04253 -9.521 -28.69)"/><path d="M4.46 12.867c-.015.008-.034.008-.054.008l-.097-.004.007-.125.098.008a.07.07 0 0 1 .043.012q.026.01.027.05-.002.035-.027.051m-.156.184.004-.145.113.008a.1.1 0 0 0 .082-.027q.03-.019.031-.067a.13.13 0 0 0-.023-.074.1.1 0 0 0-.074-.031l-.16-.012-.024.348Zm.344-.285h.117l.039.007c.015.008.027.028.027.051q-.001.04-.02.051c-.015.008-.035.012-.05.008h-.113Zm0 .304v-.148l.109.004q.03-.002.043.008.025.01.027.043v.085l.008.012h.059v-.008l-.016-.02-.004-.026v-.051q.001-.03-.016-.043l-.027-.024a.1.1 0 0 0 .035-.027.2.2 0 0 0 .016-.055c0-.039-.02-.066-.05-.082l-.067-.011h-.164v.347Zm.363-.074a.2.2 0 0 1-.035-.098c0-.046.011-.085.03-.109.02-.027.056-.039.087-.039a.11.11 0 0 1 .09.031.15.15 0 0 1 .039.094.16.16 0 0 1-.024.105q-.024.048-.09.047c-.066 0-.074-.004-.097-.03m-.055-.22a.2.2 0 0 0-.031.121c.004.055.02.094.05.125.036.036.083.051.133.051s.098-.023.13-.066a.23.23 0 0 0 .035-.133.18.18 0 0 0-.043-.117c-.032-.035-.079-.055-.145-.051a.14.14 0 0 0-.129.07m1.61-.5a.2.2 0 0 1 .09.004q.058.018.081.082l-.046.008a.1.1 0 0 0-.043-.047.2.2 0 0 0-.075-.008.1.1 0 0 0-.074.047c-.02.028-.023.063-.02.114q.012.054.047.097c.024.02.055.031.094.024a.12.12 0 0 0 .074-.04q.028-.035.02-.093l-.113.02-.004-.04.156-.023.027.183h-.03l-.02-.035-.036.035a.15.15 0 0 1-.074.036.14.14 0 0 1-.117-.028.2.2 0 0 1-.07-.125.18.18 0 0 1 .027-.148.13.13 0 0 1 .11-.063m.343-.027.11-.04q.02-.009.043-.007.03 0 .042.035t0 .055a.1.1 0 0 1-.046.031l-.106.035Zm.11.285-.051-.137.101-.039.043-.007q.028 0 .043.035l.024.05.008.028.007.012.055-.024v-.008q-.019 0-.02-.015-.01-.006-.015-.024l-.02-.047a.1.1 0 0 0-.023-.035l-.04-.008.024-.043a.3.3 0 0 0-.008-.054q-.022-.06-.074-.059a.2.2 0 0 0-.07.012l-.152.055.125.328.043-.016m.402-.176-.192-.289.211-.14.028.039-.176.109.059.09.164-.106.02.036-.165.105.066.098.184-.117.024.035Zm.172-.511.054-.063c.032-.027.059-.043.086-.035q.048 0 .094.047.037.032.055.074a.2.2 0 0 1 0 .059l-.028.039-.054.058Zm.297.136a.14.14 0 0 0 .027-.148.3.3 0 0 0-.063-.078.2.2 0 0 0-.113-.055.13.13 0 0 0-.113.05l-.098.102.266.235zm.207-.27-.305-.183.027-.039.301.184Zm.12-.206-.331-.133.097-.234.04.015-.079.192.102.039.07-.176.04.015-.075.176.11.047.085-.195.036.015Zm.145-.41-.343-.075.015-.054.317-.11-.282-.062.012-.043.344.074-.012.05-.316.114.28.063Zm-.027-.446.004-.043q.029-.001.05-.008.037-.021.044-.078l-.004-.05q-.012-.041-.047-.047-.037 0-.043.011a.14.14 0 0 0-.027.059l-.02.043a.1.1 0 0 1-.027.062q-.022.035-.067.028a.12.12 0 0 1-.074-.04.11.11 0 0 1-.023-.093c0-.04.015-.07.035-.09q.03-.039.09-.031l-.004.047a.2.2 0 0 0-.047.008.1.1 0 0 0-.035.07.08.08 0 0 0 .015.062q.018.019.035.02.031.006.043-.012l.024-.066.015-.047a.1.1 0 0 1 .028-.05.1.1 0 0 1 .074-.028q.064.008.082.05a.3.3 0 0 1 .016.102.14.14 0 0 1-.043.098.11.11 0 0 1-.094.023m-7.164-.015.012.043q-.036.006-.047.023c-.02.02-.028.047-.02.09l.016.043a.06.06 0 0 0 .062.031q.024 0 .035-.023l.012-.059v-.05q0-.049.012-.067c.012-.024.031-.035.062-.043q.048-.008.079.02.035.023.046.081a.17.17 0 0 1-.007.098q-.022.04-.079.05l-.007-.038.035-.024c.02-.015.023-.043.02-.078q-.009-.042-.028-.054a.1.1 0 0 0-.047-.012.04.04 0 0 0-.035.027l-.004.067-.004.046-.015.06c-.008.026-.036.042-.063.046a.09.09 0 0 1-.09-.031.15.15 0 0 1-.043-.09.14.14 0 0 1 .016-.106.1.1 0 0 1 .082-.046m-.024.453.344-.102.074.242-.039.012-.066-.195-.102.03.063.185-.043.011-.059-.187-.117.039.067.199-.036.012Zm.153.422.308-.168.04.058-.215.227.308-.051.035.055-.312.168-.024-.04.184-.097.035-.016.047-.027-.312.059-.02-.043.21-.23-.01.007-.071.039-.184.094Zm.578.464q-.024-.009-.043-.03l-.066-.067.085-.082.067.066.027.04c.008.019 0 .034-.02.054q-.027.024-.05.02m-.25.027.11-.102.073.078c.032.028.055.04.083.04q.04-.001.07-.032a.1.1 0 0 0 .031-.074q0-.036-.035-.07l-.11-.11-.253.238Zm.309.277.187-.297.219.137-.024.035-.183-.11-.055.09.168.102-.02.035-.167-.101L2 12.28l.184.11-.024.039Zm.55-.059.114.04.035.015c.015.016.015.035.008.059-.004.023-.016.039-.036.039l-.054-.004-.106-.035Zm-.097.293.046-.14.106.035c.02.004.031.012.039.016.012.015.016.03.012.054l-.02.055-.004.027v.008l.055.02v-.008l-.008-.024.008-.027.016-.043q.006-.035 0-.047 0-.018-.024-.031.03-.001.047-.02a.07.07 0 0 0 .027-.043q.024-.058-.023-.093l-.059-.035-.156-.047-.11.328Zm0 0" style="stroke:none;fill-rule:nonzero;fill:#009fc5;fill-opacity:1"/><path d="M2.875 6.516c.035-.098.414-.371 1.64-.25 0 0 .208.129.329.109.074-.008-.035.008-.13-.07-.093-.075-.112-.235.098-.227.211.004 1 .047 1.016.121.012.074-.418.102-.578.098s-.145.078.016.074c.504-.023 1.047-.2 1.62.215.071.05-.171.055-.355-.02 0 0-.515.024-.734-.011 0 0-.164.14-.387.125.027.074-.082.34-.77.136-.117.04-.53.11-.488-.02-.109 0-.3.04-.328-.023-.031-.062.336-.156.403-.222 0 0-.778.008-.922-.051 0 0-.461.105-.43.016" style="stroke:none;fill-rule:nonzero;fill:#bc715f;fill-opacity:1"/><path d="M3.125 7.613c.012-.02.02-.066.059-.062.07.02.125.164.218.07.035-.008.047.04.075.047.015.078.082-.02.125-.012a.6.6 0 0 1 .347-.039c0 .082-.058.168-.133.211 0 .074.075.129.07.207-.011.027 0 .074-.046.086-.059-.012-.11-.016-.156-.05a.02.02 0 0 0-.02-.012c-.008.027.035.054.05.078-.03.05-.073.004-.112.004-.012.03 0 .062-.032.082-.047 0-.058-.055-.086-.082-.035.035.02.054.028.078-.024.105-.02.203-.117.273l-.07.031c-.016-.05-.009-.128-.016-.183a.8.8 0 0 1-.13.18c-.074-.024-.109-.102-.124-.172a.22.22 0 0 1 .047-.23c-.02-.04-.09-.032-.102-.09-.11-.075-.164.12-.234.023a.34.34 0 0 1 .074-.285c-.02-.036-.07-.028-.102-.051-.066-.059-.164-.117-.156-.223a.51.51 0 0 1 .54.121" style="stroke:none;fill-rule:nonzero;fill:#008737;fill-opacity:1"/><path d="M3.219 7.605c-.004.082.054.02.101.075-.035-.016-.062.062-.097.015l-.024.024c.016.031.04.035.016.066-.035.016-.047-.035-.067-.055q.01-.016-.007-.03a.08.08 0 0 1-.07.023c-.009-.016-.028-.04-.009-.051.028-.04.075.012.094-.012.004-.027-.02-.055.012-.074.02.004.043-.008.05.02m.227.07c.004.011-.007.035.016.05q.046-.016.074.024c.004.02 0 .031-.015.043l-.043-.012c0-.004-.008-.011-.016-.023q-.03 0-.043.023c.012.016.035.028.027.047-.023.024-.035-.023-.066-.008-.02-.008.004-.05-.024-.066-.039 0-.011.062-.058.039q-.029-.03-.016-.063a.07.07 0 0 1 .07.008c.028-.035.028-.152.098-.062m-.285.12c.02.032-.008.067.02.099.035-.075.07.011.117.007.011.016.004.04.008.059-.055.016-.122.031-.172-.012l-.012.016c.027.023.055.058.031.101-.039.008-.105.012-.125-.03-.011-.04.028-.06-.015-.09-.024.034-.024.081-.079.046a.076.076 0 0 1-.03-.09c.038-.062.105 0 .14-.027.008-.05-.012-.098.035-.121.04-.008.055.02.082.043" style="stroke:none;fill-rule:nonzero;fill:#ff0;fill-opacity:1"/><path d="M3.316 7.828c-.015.086-.078 0-.109-.004.04-.074.063.02.11.004m.199.094c-.043.012-.036-.043-.059-.067l.02-.015c.011.027.027.055.039.082" style="stroke:none;fill-rule:nonzero;fill:#fff;fill-opacity:1"/><path d="M3.457 7.906c.012.028-.027.055.008.07l.027-.023q.054.001.09.043c.02.063-.039.063-.074.082h-.035c.007-.023-.02-.027-.024-.035-.015-.008-.031-.004-.039.012.008.035.055.07.008.105-.047 0-.11.016-.106-.043-.015-.039.043-.086-.019-.09-.023.047-.043.09-.098.047l.004-.066c.055 0 .114.012.137-.047.016-.043-.023-.082.012-.113.054-.016.082.023.109.058" style="stroke:none;fill-rule:nonzero;fill:#ff0;fill-opacity:1"/><path d="M3.422 8c.008.035-.024.04-.043.055a.07.07 0 0 1-.05-.024c-.013-.039.019-.047.038-.058.024-.012.035.015.055.027" style="stroke:none;fill-rule:nonzero;fill:#000;fill-opacity:1"/><path d="M3.387 8.023a.03.03 0 0 1-.02.008l-.008-.039q.035-.002.028.031" style="stroke:none;fill-rule:nonzero;fill:#fff;fill-opacity:1"/></svg>