<?xml version="1.0" encoding="UTF-8"?>
<svg xmlns="http://www.w3.org/2000/svg" xmlns:xlink="http://www.w3.org/1999/xlink" width="25px" height="px" viewBox="0 0 25 19" version="1.1">
<g id="surface1">
<path style=" stroke:none;fill-rule:evenodd;fill:rgb(92.941177%,16.078432%,22.352941%);fill-opacity:1;" d="M 0 0 L 28.125 0 L 28.125 9.5 L 12.5 9.5 Z M 0 0 "/>
<path style=" stroke:none;fill-rule:evenodd;fill:rgb(0%,13.725491%,58.431375%);fill-opacity:1;" d="M 0 19 L 28.125 19 L 28.125 9.5 L 12.5 9.5 Z M 0 19 "/>
<path style=" stroke:none;fill-rule:evenodd;fill:rgb(100%,100%,100%);fill-opacity:1;" d="M 0 0 L 12.5 9.5 L 0 19 Z M 0 0 "/>
<path style=" stroke:none;fill-rule:nonzero;fill:rgb(100%,100%,0%);fill-opacity:1;" d="M 6.308594 7.167969 L 6.3125 7.019531 C 6.3125 7.019531 6.238281 6.894531 6.328125 6.761719 C 6.328125 6.761719 6.132812 6.65625 6.179688 6.492188 C 6.179688 6.492188 6.007812 6.449219 6.015625 6.257812 C 6.015625 6.257812 5.832031 6.246094 5.8125 6.082031 C 5.8125 6.082031 5.625 6.113281 5.539062 5.957031 C 5.539062 5.957031 5.359375 5.992188 5.304688 5.863281 C 5.304688 5.863281 5.125 5.921875 5.023438 5.769531 C 5.023438 5.769531 4.835938 5.847656 4.757812 5.703125 C 4.679688 5.847656 4.488281 5.769531 4.488281 5.769531 C 4.386719 5.921875 4.207031 5.859375 4.207031 5.859375 C 4.15625 5.988281 3.976562 5.953125 3.976562 5.953125 C 3.894531 6.113281 3.707031 6.078125 3.707031 6.078125 C 3.6875 6.242188 3.5 6.257812 3.5 6.257812 C 3.511719 6.363281 3.445312 6.464844 3.339844 6.492188 C 3.386719 6.652344 3.195312 6.757812 3.195312 6.757812 C 3.289062 6.894531 3.210938 7.015625 3.210938 7.015625 L 3.207031 7.15625 Z M 6.308594 7.167969 "/>
<path style="fill:none;stroke-width:0.3;stroke-linecap:butt;stroke-linejoin:miter;stroke:rgb(0%,0%,0%);stroke-opacity:1;stroke-miterlimit:4;" d="M 377.157487 843.083355 L 377.157487 839.593258 C 377.157487 839.593258 375.389634 836.562385 377.622711 833.623356 C 377.622711 833.623356 372.970466 831.14355 374.087005 827.286075 C 374.087005 827.286075 369.899985 826.275784 370.17912 821.683551 C 370.17912 821.683551 365.712965 821.408017 365.154695 817.642387 C 365.154695 817.642387 360.781585 818.285299 358.920687 814.611513 C 358.920687 814.611513 354.454532 815.438115 353.337993 812.407242 C 353.337993 812.407242 348.964883 813.876756 346.545716 810.294815 C 346.545716 810.294815 341.986516 812.131708 340.218663 808.733456 C 338.26472 812.131708 333.798565 810.294815 333.798565 810.294815 C 331.379398 813.784911 327.099333 812.315397 327.099333 812.315397 C 325.889749 815.438115 321.609684 814.611513 321.609684 814.611513 C 319.562696 818.285299 315.096541 817.642387 315.096541 817.642387 C 314.724361 821.316173 310.165161 821.591707 310.165161 821.591707 C 310.630386 824.163357 308.955578 826.551318 306.536411 827.19423 C 307.46686 830.959861 303.000704 833.439667 303.000704 833.439667 C 305.233782 836.562385 303.279839 839.593258 303.279839 839.593258 L 303.279839 842.807821 Z M 377.157487 843.083355 " transform="matrix(0.0419824,0,0,0.0425311,-9.521484,-28.689257)"/>
<path style=" stroke:none;fill-rule:nonzero;fill:rgb(100%,0%,0%);fill-opacity:1;" d="M 6.238281 6.984375 C 5.75 6.9375 5.1875 6.816406 4.757812 7.066406 C 4.464844 6.890625 4.0625 6.902344 3.71875 6.9375 C 3.53125 6.972656 3.3125 6.972656 3.113281 7.003906 L 3.082031 7.007812 C 2.726562 7.03125 2.40625 6.925781 2.09375 6.785156 C 2.195312 7.347656 2.304688 7.921875 2.359375 8.511719 C 2.476562 9.390625 1.953125 10.121094 2.160156 10.984375 C 2.289062 11.398438 2.738281 11.640625 3.148438 11.6875 C 3.546875 11.714844 3.941406 11.769531 4.328125 11.855469 C 4.398438 11.875 4.464844 11.898438 4.53125 11.925781 C 4.621094 11.96875 4.703125 12.027344 4.773438 12.101562 C 4.992188 11.867188 5.320312 11.800781 5.640625 11.765625 C 6.21875 11.695312 6.933594 11.734375 7.289062 11.203125 L 7.289062 11.171875 C 7.480469 10.875 7.457031 10.429688 7.371094 10.097656 C 7.363281 9.980469 7.335938 9.878906 7.316406 9.765625 C 6.964844 8.820312 7.269531 7.757812 7.417969 6.796875 C 7.230469 6.894531 7.027344 6.964844 6.820312 7.003906 C 6.652344 7.023438 6.472656 7.015625 6.304688 7.007812 Z M 6.238281 6.984375 "/>
<path style=" stroke:none;fill-rule:nonzero;fill:rgb(50.196081%,81.176472%,88.235295%);fill-opacity:1;" d="M 6.964844 9.703125 C 6.964844 9.761719 7 9.816406 7.007812 9.871094 C 7.078125 10.285156 7.140625 10.835938 6.722656 11.09375 C 6.253906 11.390625 5.648438 11.261719 5.109375 11.421875 C 5 11.453125 4.851562 11.550781 4.777344 11.621094 C 4.726562 11.589844 4.679688 11.539062 4.617188 11.511719 C 4.175781 11.273438 3.597656 11.351562 3.097656 11.222656 C 2.84375 11.144531 2.585938 10.945312 2.519531 10.683594 C 2.359375 10 2.746094 9.417969 2.703125 8.738281 C 2.671875 8.21875 2.585938 7.726562 2.46875 7.238281 C 2.859375 7.425781 3.308594 7.457031 3.75 7.367188 C 4.089844 7.304688 4.4375 7.335938 4.761719 7.457031 C 4.929688 7.382812 5.125 7.351562 5.308594 7.332031 C 5.652344 7.371094 6.019531 7.429688 6.375 7.429688 C 6.613281 7.410156 6.832031 7.351562 7.035156 7.253906 C 6.914062 8.054688 6.675781 8.894531 6.964844 9.703125 "/>
<path style=" stroke:none;fill-rule:nonzero;fill:rgb(100%,100%,100%);fill-opacity:1;" d="M 6.261719 9.863281 L 6.261719 9.105469 L 6.351562 9.105469 L 5.214844 8.363281 L 5.210938 7.976562 L 5.320312 7.976562 L 4.75 7.566406 L 4.1875 7.976562 L 4.296875 7.976562 L 4.296875 8.363281 L 3.164062 9.105469 L 3.253906 9.105469 L 3.253906 9.859375 L 6.261719 9.859375 "/>
<path style="fill:none;stroke-width:1.2;stroke-linecap:butt;stroke-linejoin:miter;stroke:rgb(0%,0%,0%);stroke-opacity:1;stroke-miterlimit:4;" d="M 376.040948 906.456164 L 376.040948 888.730146 L 378.087936 888.730146 L 351.104916 871.187818 L 351.011871 862.187042 L 353.617128 862.187042 L 340.032573 852.359665 L 326.541063 862.095198 L 329.14632 862.095198 L 329.239365 871.187818 L 302.1633 888.730146 L 304.396378 888.730146 L 304.396378 906.364319 Z M 376.040948 906.456164 " transform="matrix(0.0419824,0,0,0.0425311,-9.521484,-28.689257)"/>
<path style=" stroke:none;fill-rule:nonzero;fill:rgb(100%,100%,100%);fill-opacity:1;" d="M 6.613281 10.855469 L 6.613281 11.089844 L 2.949219 11.089844 L 2.949219 10.851562 Z M 6.613281 10.855469 "/>
<path style="fill:none;stroke-width:1.2;stroke-linecap:butt;stroke-linejoin:miter;stroke:rgb(0%,0%,0%);stroke-opacity:1;stroke-miterlimit:4;" d="M 384.414989 929.784705 L 384.414989 935.295384 L 297.045831 935.295384 L 297.045831 929.69286 L 384.414989 929.69286 Z M 384.414989 929.784705 " transform="matrix(0.0419824,0,0,0.0425311,-9.521484,-28.689257)"/>
<path style=" stroke:none;fill-rule:nonzero;fill:rgb(100%,100%,100%);fill-opacity:1;" d="M 3.191406 10.839844 L 3.191406 10.042969 L 3.335938 10.042969 L 3.328125 10.847656 L 3.335938 10.046875 L 3.125 10.042969 L 3.125 9.867188 L 6.398438 9.875 L 6.398438 10.042969 L 6.199219 10.042969 L 6.199219 10.851562 L 6.195312 10.042969 L 6.34375 10.042969 L 6.351562 10.84375 "/>
<path style="fill:none;stroke-width:1.2;stroke-linecap:butt;stroke-linejoin:miter;stroke:rgb(0%,0%,0%);stroke-opacity:1;stroke-miterlimit:4;" d="M 302.814615 929.417326 L 302.814615 910.589173 L 306.257276 910.589173 L 306.071186 929.601016 L 306.257276 910.772862 L 301.325896 910.589173 L 301.325896 906.639853 L 379.297519 906.731698 L 379.297519 910.681018 L 374.459185 910.681018 L 374.645275 929.69286 L 374.36614 910.681018 L 377.994891 910.681018 L 378.087936 929.509171 " transform="matrix(0.0419824,0,0,0.0425311,-9.521484,-28.689257)"/>
<path style="fill:none;stroke-width:1.2;stroke-linecap:butt;stroke-linejoin:miter;stroke:rgb(0%,0%,0%);stroke-opacity:1;stroke-miterlimit:4;" d="M 319.562696 924.825094 L 319.562696 911.691309 L 308.955578 911.691309 L 308.955578 924.733249 L 319.469651 924.825094 " transform="matrix(0.0419824,0,0,0.0425311,-9.521484,-28.689257)"/>
<path style="fill:none;stroke-width:1.2;stroke-linecap:butt;stroke-linejoin:miter;stroke:rgb(0%,0%,0%);stroke-opacity:1;stroke-miterlimit:4;" d="M 312.026059 914.354804 L 312.026059 921.97791 L 316.771349 921.97791 L 316.771349 914.354804 L 311.933015 914.354804 M 370.923479 924.825094 L 370.830434 911.783153 L 360.409405 911.783153 L 360.409405 924.825094 L 370.923479 924.825094 " transform="matrix(0.0419824,0,0,0.0425311,-9.521484,-28.689257)"/>
<path style="fill:none;stroke-width:1.2;stroke-linecap:butt;stroke-linejoin:miter;stroke:rgb(0%,0%,0%);stroke-opacity:1;stroke-miterlimit:4;" d="M 363.200752 914.538493 L 363.200752 922.069754 L 368.039087 922.069754 L 368.039087 914.538493 L 363.200752 914.538493 M 370.830434 903.517135 L 370.830434 890.475194 L 360.316361 890.475194 L 360.316361 903.517135 Z M 370.830434 903.517135 " transform="matrix(0.0419824,0,0,0.0425311,-9.521484,-28.689257)"/>
<path style="fill:none;stroke-width:1.2;stroke-linecap:butt;stroke-linejoin:miter;stroke:rgb(0%,0%,0%);stroke-opacity:1;stroke-miterlimit:4;" d="M 363.107707 893.230534 L 363.107707 900.761795 L 367.946042 900.761795 L 367.946042 893.230534 L 363.107707 893.230534 M 319.469651 903.517135 L 319.469651 890.38335 L 308.955578 890.38335 L 308.955578 903.42529 L 319.469651 903.42529 Z M 319.469651 903.517135 " transform="matrix(0.0419824,0,0,0.0425311,-9.521484,-28.689257)"/>
<path style="fill:none;stroke-width:1.2;stroke-linecap:butt;stroke-linejoin:miter;stroke:rgb(0%,0%,0%);stroke-opacity:1;stroke-miterlimit:4;" d="M 311.933015 893.138689 L 311.933015 900.669951 L 316.678304 900.669951 L 316.678304 893.138689 L 311.933015 893.138689 M 338.543855 903.517135 L 338.543855 890.38335 L 328.029782 890.38335 L 328.029782 903.42529 L 338.543855 903.42529 " transform="matrix(0.0419824,0,0,0.0425311,-9.521484,-28.689257)"/>
<path style="fill:none;stroke-width:1.2;stroke-linecap:butt;stroke-linejoin:miter;stroke:rgb(0%,0%,0%);stroke-opacity:1;stroke-miterlimit:4;" d="M 330.821128 893.138689 L 330.821128 900.669951 L 335.566418 900.669951 L 335.566418 893.138689 L 330.821128 893.138689 M 353.058859 903.517135 L 353.058859 890.475194 L 342.63783 890.38335 L 342.63783 903.42529 L 353.058859 903.517135 " transform="matrix(0.0419824,0,0,0.0425311,-9.521484,-28.689257)"/>
<path style="fill:none;stroke-width:1.2;stroke-linecap:butt;stroke-linejoin:miter;stroke:rgb(0%,0%,0%);stroke-opacity:1;stroke-miterlimit:4;" d="M 345.429177 893.138689 L 345.429177 900.669951 L 350.267512 900.669951 L 350.267512 893.138689 L 345.429177 893.138689 " transform="matrix(0.0419824,0,0,0.0425311,-9.521484,-28.689257)"/>
<path style=" stroke:none;fill-rule:nonzero;fill:rgb(100%,100%,100%);fill-opacity:1;" d="M 5.410156 9.566406 L 5.417969 10.851562 L 4.136719 10.851562 L 4.132812 9.566406 Z M 5.410156 9.566406 "/>
<path style="fill:none;stroke-width:1.2;stroke-linecap:butt;stroke-linejoin:miter;stroke:rgb(0%,0%,0%);stroke-opacity:1;stroke-miterlimit:4;" d="M 355.664116 899.47597 L 355.757161 929.69286 L 325.517569 929.69286 L 325.424524 899.47597 Z M 325.238435 908.109367 L 355.757161 908.109367 M 328.960231 929.69286 L 328.960231 908.293057 M 352.12841 929.69286 L 352.12841 908.384901 M 366.829503 886.617719 L 349.802287 874.218691 L 330.541994 874.218691 L 313.514778 886.617719 L 366.829503 886.617719 M 332.030712 863.840246 L 332.030712 871.371507 L 348.220524 871.371507 L 348.220524 863.840246 L 332.030712 863.840246 " transform="matrix(0.0419824,0,0,0.0425311,-9.521484,-28.689257)"/>
<path style="fill:none;stroke-width:1.2;stroke-linecap:butt;stroke-linejoin:miter;stroke:rgb(0%,0%,0%);stroke-opacity:1;stroke-miterlimit:4;" d="M 336.403822 865.677139 L 336.403822 869.534614 L 343.754369 869.534614 L 343.754369 865.677139 L 336.403822 865.677139 M 340.032573 855.023159 L 348.964883 861.36044 L 331.100263 861.36044 L 340.125618 855.023159 " transform="matrix(0.0419824,0,0,0.0425311,-9.521484,-28.689257)"/>
<path style=" stroke:none;fill-rule:nonzero;fill:rgb(100%,100%,100%);fill-opacity:1;" d="M 6.277344 7.496094 C 6.382812 7.496094 6.410156 7.941406 6.410156 8.164062 C 6.503906 8.195312 6.707031 8.324219 6.796875 8.4375 L 5.765625 8.4375 C 5.851562 8.324219 6.054688 8.195312 6.144531 8.167969 C 6.144531 7.945312 6.167969 7.492188 6.277344 7.5 "/>
<path style="fill:none;stroke-width:1.2;stroke-linecap:butt;stroke-linejoin:miter;stroke:rgb(0%,0%,0%);stroke-opacity:1;stroke-miterlimit:4;" d="M 376.320083 850.798306 C 378.92534 850.798306 379.483609 861.268596 379.483609 866.595585 C 381.716687 867.238498 386.555021 870.269371 388.695054 873.024711 L 364.131201 873.024711 C 366.178189 870.269371 371.109569 867.238498 373.156556 866.595585 C 373.156556 861.268596 373.807871 850.798306 376.320083 850.798306 M 326.820198 900.302572 L 328.960231 900.302572 L 328.401961 901.496553 C 328.401961 901.496553 329.425455 902.874222 328.401961 904.527426 L 328.960231 905.537717 L 326.820198 905.537717 L 327.378467 904.527426 C 327.378467 904.527426 326.354973 902.690533 327.378467 901.496553 L 326.820198 900.302572 M 331.286353 900.302572 L 333.51943 900.302572 L 332.868116 901.496553 C 332.868116 901.496553 333.89161 902.874222 332.868116 904.527426 L 333.51943 905.537717 L 331.286353 905.537717 L 331.937667 904.527426 C 331.937667 904.527426 330.914173 902.690533 331.937667 901.496553 L 331.286353 900.302572 M 336.310777 900.302572 L 338.357765 900.302572 L 337.799496 901.496553 C 337.799496 901.496553 338.82299 902.874222 337.799496 904.527426 L 338.357765 905.537717 L 336.310777 905.537717 L 336.776002 904.527426 C 336.776002 904.527426 335.845553 902.690533 336.776002 901.496553 L 336.217732 900.302572 Z M 341.800426 900.302572 L 344.033504 900.302572 L 343.289145 901.588397 C 343.289145 901.588397 344.405683 902.874222 343.289145 904.527426 L 343.940459 905.537717 L 341.800426 905.537717 L 342.358696 904.527426 C 342.358696 904.527426 341.428247 902.690533 342.358696 901.496553 Z M 346.731806 900.302572 L 348.871838 900.302572 L 348.220524 901.588397 C 348.220524 901.588397 349.337063 902.874222 348.220524 904.527426 L 348.778793 905.537717 L 346.824851 905.537717 L 347.290075 904.527426 C 347.290075 904.527426 346.266581 902.690533 347.290075 901.496553 L 346.731806 900.394417 M 351.57014 900.394417 L 353.803218 900.394417 L 353.058859 901.588397 C 353.058859 901.588397 354.175397 902.874222 353.058859 904.527426 L 353.710173 905.537717 L 351.663185 905.537717 L 352.221455 904.527426 C 352.221455 904.527426 351.197961 902.690533 352.221455 901.496553 L 351.57014 900.394417 " transform="matrix(0.0419824,0,0,0.0425311,-9.521484,-28.689257)"/>
<path style=" stroke:none;fill-rule:nonzero;fill:rgb(100%,100%,0%);fill-opacity:1;" d="M 4.777344 12.5 C 5.253906 12.5 5.839844 12.398438 6.117188 12.257812 L 6.71875 12.203125 L 6.734375 12.949219 C 6.222656 13.234375 5.042969 13.296875 4.78125 13.292969 C 4.523438 13.289062 3.328125 13.234375 2.8125 12.949219 L 2.820312 12.199219 L 3.425781 12.253906 C 3.855469 12.421875 4.316406 12.507812 4.777344 12.5 "/>
<path style="fill:none;stroke-width:0.3;stroke-linecap:butt;stroke-linejoin:miter;stroke:rgb(0%,0%,0%);stroke-opacity:1;stroke-miterlimit:4;" d="M 340.683887 968.359458 C 352.12841 968.359458 365.992099 966.063342 372.598287 962.66509 L 386.927201 961.471109 L 387.206336 979.013437 C 375.110499 985.718097 346.917895 987.187611 340.776932 987.095767 C 334.729014 987.003922 306.071186 985.718097 293.78926 978.921593 L 293.97535 961.379265 L 308.397308 962.66509 C 315.003496 966.063342 329.425455 968.359458 340.683887 968.359458 " transform="matrix(0.0419824,0,0,0.0425311,-9.521484,-28.689257)"/>
<path style=" stroke:none;fill-rule:nonzero;fill:rgb(100%,100%,0%);fill-opacity:1;" d="M 1.257812 9.3125 L 1.789062 9.484375 L 1.628906 10.355469 L 1.128906 10.4375 C 1.128906 10.4375 1.042969 9.980469 1.257812 9.3125 "/>
<path style="fill:none;stroke-width:0.3;stroke-linecap:butt;stroke-linejoin:miter;stroke:rgb(0%,0%,0%);stroke-opacity:1;stroke-miterlimit:4;" d="M 256.943481 893.597913 L 269.504542 897.639077 L 265.689701 918.120434 L 253.68691 919.957327 C 253.68691 919.957327 251.732967 909.211503 256.943481 893.597913 Z M 256.943481 893.597913 " transform="matrix(0.0419824,0,0,0.0425311,-9.521484,-28.689257)"/>
<path style=" stroke:none;fill-rule:nonzero;fill:rgb(49.411765%,49.411765%,49.411765%);fill-opacity:1;" d="M 1.628906 10.351562 L 1.128906 10.4375 L 1.445312 9.980469 Z M 1.628906 10.351562 "/>
<path style="fill:none;stroke-width:0.3;stroke-linecap:butt;stroke-linejoin:miter;stroke:rgb(0%,0%,0%);stroke-opacity:1;stroke-miterlimit:4;" d="M 265.689701 917.936745 L 253.68691 919.865483 L 261.316591 909.211503 L 265.689701 917.936745 " transform="matrix(0.0419824,0,0,0.0425311,-9.521484,-28.689257)"/>
<path style=" stroke:none;fill-rule:nonzero;fill:rgb(100%,100%,0%);fill-opacity:1;" d="M 0.941406 9.945312 L 1.453125 9.984375 C 1.464844 10.421875 1.519531 12.097656 3.496094 12.191406 L 3.433594 12.804688 C 1.027344 12.824219 0.847656 10.742188 0.945312 9.945312 "/>
<path style="fill:none;stroke-width:0.3;stroke-linecap:butt;stroke-linejoin:miter;stroke:rgb(0%,0%,0%);stroke-opacity:1;stroke-miterlimit:4;" d="M 249.313799 908.384901 L 261.502681 909.211503 C 261.781815 919.589949 262.991399 958.991304 310.165161 961.195575 L 308.676443 975.615185 C 251.267742 976.166253 246.987677 927.213055 249.313799 908.384901 Z M 294.068394 978.46237 L 308.490353 975.431496 " transform="matrix(0.0419824,0,0,0.0425311,-9.521484,-28.689257)"/>
<path style=" stroke:none;fill-rule:nonzero;fill:rgb(100%,100%,0%);fill-opacity:1;" d="M 8.253906 9.320312 L 7.726562 9.492188 L 7.894531 10.359375 L 8.402344 10.441406 C 8.402344 10.441406 8.480469 9.984375 8.253906 9.320312 "/>
<path style="fill:none;stroke-width:0.3;stroke-linecap:butt;stroke-linejoin:miter;stroke:rgb(0%,0%,0%);stroke-opacity:1;stroke-miterlimit:4;" d="M 423.493845 893.689757 L 410.932784 897.730922 L 414.933715 918.212279 L 426.936506 920.232861 C 426.936506 920.232861 428.890449 909.395192 423.493845 893.689757 Z M 423.493845 893.689757 " transform="matrix(0.0419824,0,0,0.0425311,-9.521484,-28.689257)"/>
<path style=" stroke:none;fill-rule:nonzero;fill:rgb(49.411765%,49.411765%,49.411765%);fill-opacity:1;" d="M 7.894531 10.351562 L 8.398438 10.445312 L 8.074219 9.984375 L 7.890625 10.351562 "/>
<path style="fill:none;stroke-width:0.3;stroke-linecap:butt;stroke-linejoin:miter;stroke:rgb(0%,0%,0%);stroke-opacity:1;stroke-miterlimit:4;" d="M 414.933715 918.02859 L 426.936506 920.141017 L 419.21378 909.395192 L 414.933715 918.02859 " transform="matrix(0.0419824,0,0,0.0425311,-9.521484,-28.689257)"/>
<path style=" stroke:none;fill-rule:nonzero;fill:rgb(100%,100%,0%);fill-opacity:1;" d="M 8.582031 9.949219 L 8.066406 9.984375 C 8.058594 10.425781 8.019531 12.101562 6.042969 12.195312 L 6.117188 12.804688 C 8.523438 12.832031 8.6875 10.746094 8.585938 9.949219 "/>
<path style="fill:none;stroke-width:0.3;stroke-linecap:butt;stroke-linejoin:miter;stroke:rgb(0%,0%,0%);stroke-opacity:1;stroke-miterlimit:4;" d="M 431.216571 908.476746 L 419.02769 909.303348 C 418.8416 919.681793 418.004196 959.174993 370.830434 961.28742 L 372.412197 975.615185 C 429.820898 976.258098 433.728784 927.304899 431.216571 908.568591 Z M 387.020246 978.46237 L 372.598287 975.523341 " transform="matrix(0.0419824,0,0,0.0425311,-9.521484,-28.689257)"/>
<path style=" stroke:none;fill-rule:nonzero;fill:rgb(0%,62.352943%,77.254903%);fill-opacity:1;" d="M 4.460938 12.867188 C 4.445312 12.875 4.425781 12.875 4.40625 12.875 L 4.308594 12.871094 L 4.316406 12.746094 L 4.414062 12.753906 C 4.433594 12.753906 4.445312 12.757812 4.457031 12.765625 C 4.472656 12.773438 4.484375 12.789062 4.484375 12.816406 C 4.484375 12.839844 4.472656 12.855469 4.457031 12.867188 M 4.300781 13.050781 L 4.304688 12.90625 L 4.417969 12.914062 C 4.453125 12.917969 4.480469 12.90625 4.5 12.886719 C 4.519531 12.875 4.53125 12.851562 4.53125 12.820312 C 4.53125 12.792969 4.523438 12.769531 4.507812 12.746094 C 4.488281 12.726562 4.460938 12.714844 4.433594 12.714844 L 4.273438 12.703125 L 4.25 13.050781 Z M 4.644531 12.765625 L 4.761719 12.765625 L 4.800781 12.773438 C 4.816406 12.78125 4.828125 12.800781 4.828125 12.824219 C 4.828125 12.851562 4.820312 12.867188 4.808594 12.875 C 4.792969 12.882812 4.773438 12.886719 4.757812 12.882812 L 4.644531 12.882812 Z M 4.644531 13.070312 L 4.644531 12.921875 L 4.753906 12.925781 C 4.773438 12.925781 4.789062 12.925781 4.796875 12.933594 C 4.8125 12.941406 4.824219 12.953125 4.824219 12.976562 L 4.824219 13.0625 L 4.832031 13.074219 L 4.890625 13.074219 L 4.890625 13.066406 L 4.875 13.046875 L 4.871094 13.019531 L 4.871094 12.96875 C 4.871094 12.949219 4.867188 12.933594 4.855469 12.925781 L 4.828125 12.902344 C 4.84375 12.894531 4.855469 12.886719 4.863281 12.875 C 4.871094 12.859375 4.875 12.84375 4.878906 12.820312 C 4.878906 12.78125 4.859375 12.753906 4.828125 12.738281 L 4.761719 12.726562 L 4.597656 12.726562 L 4.597656 13.074219 Z M 5.007812 12.996094 C 4.988281 12.96875 4.976562 12.933594 4.972656 12.898438 C 4.972656 12.851562 4.984375 12.8125 5.003906 12.789062 C 5.023438 12.761719 5.058594 12.75 5.089844 12.75 C 5.121094 12.746094 5.15625 12.757812 5.179688 12.78125 C 5.203125 12.804688 5.214844 12.835938 5.21875 12.875 C 5.222656 12.914062 5.214844 12.949219 5.195312 12.980469 C 5.179688 13.011719 5.148438 13.027344 5.105469 13.027344 C 5.039062 13.027344 5.03125 13.023438 5.007812 12.996094 M 4.953125 12.777344 C 4.929688 12.8125 4.917969 12.855469 4.921875 12.898438 C 4.925781 12.953125 4.941406 12.992188 4.972656 13.023438 C 5.007812 13.058594 5.054688 13.074219 5.105469 13.074219 C 5.15625 13.074219 5.203125 13.050781 5.234375 13.007812 C 5.257812 12.96875 5.273438 12.921875 5.269531 12.875 C 5.269531 12.832031 5.253906 12.789062 5.226562 12.757812 C 5.195312 12.722656 5.148438 12.703125 5.082031 12.707031 C 5.023438 12.707031 4.980469 12.730469 4.953125 12.777344 M 6.5625 12.277344 C 6.597656 12.269531 6.628906 12.273438 6.652344 12.28125 C 6.691406 12.292969 6.71875 12.320312 6.734375 12.363281 L 6.6875 12.371094 C 6.679688 12.351562 6.664062 12.332031 6.644531 12.324219 C 6.621094 12.316406 6.59375 12.3125 6.570312 12.316406 C 6.539062 12.320312 6.511719 12.339844 6.496094 12.363281 C 6.476562 12.390625 6.472656 12.425781 6.476562 12.476562 C 6.484375 12.511719 6.5 12.546875 6.523438 12.574219 C 6.546875 12.59375 6.578125 12.605469 6.617188 12.597656 C 6.644531 12.59375 6.671875 12.582031 6.691406 12.558594 C 6.710938 12.535156 6.714844 12.503906 6.710938 12.464844 L 6.597656 12.484375 L 6.59375 12.445312 L 6.75 12.421875 L 6.777344 12.605469 L 6.746094 12.605469 L 6.726562 12.570312 L 6.691406 12.605469 C 6.671875 12.625 6.648438 12.632812 6.617188 12.640625 C 6.578125 12.648438 6.535156 12.640625 6.5 12.613281 C 6.460938 12.582031 6.4375 12.539062 6.429688 12.488281 C 6.417969 12.4375 6.425781 12.382812 6.457031 12.339844 C 6.480469 12.300781 6.523438 12.277344 6.566406 12.277344 M 6.910156 12.25 L 7.019531 12.210938 C 7.035156 12.203125 7.046875 12.203125 7.0625 12.203125 C 7.082031 12.203125 7.097656 12.214844 7.105469 12.238281 C 7.113281 12.261719 7.113281 12.28125 7.105469 12.292969 C 7.09375 12.308594 7.078125 12.316406 7.058594 12.324219 L 6.953125 12.359375 Z M 7.019531 12.535156 L 6.96875 12.398438 L 7.070312 12.359375 L 7.113281 12.351562 C 7.132812 12.351562 7.144531 12.363281 7.15625 12.386719 L 7.179688 12.4375 L 7.1875 12.464844 L 7.195312 12.476562 L 7.25 12.453125 L 7.25 12.445312 C 7.238281 12.445312 7.230469 12.441406 7.230469 12.429688 C 7.222656 12.425781 7.21875 12.417969 7.214844 12.40625 L 7.195312 12.359375 C 7.1875 12.34375 7.179688 12.332031 7.171875 12.324219 L 7.132812 12.316406 L 7.15625 12.273438 C 7.15625 12.257812 7.152344 12.238281 7.148438 12.21875 C 7.132812 12.179688 7.109375 12.160156 7.074219 12.160156 C 7.050781 12.160156 7.027344 12.164062 7.003906 12.171875 L 6.851562 12.226562 L 6.976562 12.554688 L 7.019531 12.539062 M 7.421875 12.363281 L 7.230469 12.074219 L 7.441406 11.933594 L 7.46875 11.972656 L 7.292969 12.082031 L 7.351562 12.171875 L 7.515625 12.066406 L 7.535156 12.101562 L 7.371094 12.207031 L 7.4375 12.304688 L 7.621094 12.1875 L 7.644531 12.222656 Z M 7.59375 11.851562 L 7.648438 11.789062 C 7.679688 11.761719 7.707031 11.746094 7.734375 11.753906 C 7.765625 11.753906 7.796875 11.769531 7.828125 11.800781 C 7.851562 11.820312 7.871094 11.847656 7.882812 11.875 C 7.886719 11.898438 7.886719 11.917969 7.882812 11.933594 L 7.855469 11.972656 L 7.800781 12.03125 Z M 7.890625 11.988281 C 7.929688 11.945312 7.9375 11.894531 7.917969 11.839844 C 7.902344 11.808594 7.878906 11.78125 7.855469 11.761719 C 7.824219 11.730469 7.785156 11.710938 7.742188 11.707031 C 7.699219 11.703125 7.660156 11.71875 7.628906 11.757812 L 7.53125 11.859375 L 7.796875 12.09375 L 7.890625 11.988281 M 8.097656 11.71875 L 7.792969 11.535156 L 7.820312 11.496094 L 8.121094 11.679688 Z M 8.21875 11.511719 L 7.886719 11.378906 L 7.984375 11.144531 L 8.023438 11.160156 L 7.945312 11.351562 L 8.046875 11.390625 L 8.117188 11.214844 L 8.15625 11.230469 L 8.082031 11.40625 L 8.191406 11.453125 L 8.277344 11.257812 L 8.3125 11.273438 Z M 8.363281 11.101562 L 8.019531 11.027344 L 8.035156 10.972656 L 8.351562 10.863281 L 8.070312 10.800781 L 8.082031 10.757812 L 8.425781 10.832031 L 8.414062 10.882812 L 8.097656 10.996094 L 8.378906 11.058594 Z M 8.335938 10.65625 L 8.339844 10.613281 C 8.359375 10.613281 8.375 10.609375 8.390625 10.605469 C 8.414062 10.589844 8.429688 10.566406 8.433594 10.527344 L 8.429688 10.476562 C 8.421875 10.449219 8.40625 10.433594 8.382812 10.429688 C 8.359375 10.429688 8.34375 10.433594 8.339844 10.441406 C 8.328125 10.453125 8.320312 10.472656 8.3125 10.5 L 8.292969 10.542969 C 8.289062 10.574219 8.277344 10.59375 8.265625 10.605469 C 8.25 10.628906 8.230469 10.636719 8.199219 10.632812 C 8.171875 10.628906 8.144531 10.617188 8.125 10.59375 C 8.105469 10.570312 8.09375 10.539062 8.101562 10.5 C 8.101562 10.460938 8.117188 10.429688 8.136719 10.410156 C 8.15625 10.382812 8.1875 10.375 8.226562 10.378906 L 8.222656 10.425781 C 8.203125 10.425781 8.1875 10.429688 8.175781 10.433594 C 8.15625 10.449219 8.144531 10.472656 8.140625 10.503906 C 8.136719 10.53125 8.144531 10.550781 8.15625 10.566406 C 8.167969 10.578125 8.179688 10.585938 8.191406 10.585938 C 8.210938 10.589844 8.226562 10.585938 8.234375 10.574219 L 8.257812 10.507812 L 8.273438 10.460938 C 8.28125 10.4375 8.289062 10.421875 8.300781 10.410156 C 8.320312 10.390625 8.347656 10.382812 8.375 10.382812 C 8.417969 10.386719 8.445312 10.40625 8.457031 10.433594 C 8.46875 10.464844 8.472656 10.5 8.472656 10.535156 C 8.472656 10.570312 8.457031 10.605469 8.429688 10.632812 C 8.40625 10.652344 8.375 10.664062 8.335938 10.65625 M 1.171875 10.640625 L 1.183594 10.683594 C 1.160156 10.6875 1.144531 10.695312 1.136719 10.707031 C 1.117188 10.726562 1.109375 10.753906 1.117188 10.796875 L 1.132812 10.839844 C 1.144531 10.863281 1.167969 10.875 1.195312 10.871094 C 1.210938 10.871094 1.222656 10.863281 1.230469 10.847656 L 1.242188 10.789062 L 1.242188 10.738281 C 1.242188 10.707031 1.246094 10.683594 1.253906 10.671875 C 1.265625 10.648438 1.285156 10.636719 1.316406 10.628906 C 1.347656 10.625 1.375 10.628906 1.394531 10.648438 C 1.417969 10.664062 1.433594 10.691406 1.441406 10.730469 C 1.449219 10.765625 1.445312 10.796875 1.433594 10.828125 C 1.417969 10.855469 1.394531 10.871094 1.355469 10.878906 L 1.347656 10.839844 L 1.382812 10.816406 C 1.402344 10.800781 1.40625 10.773438 1.402344 10.738281 C 1.398438 10.710938 1.386719 10.691406 1.375 10.683594 C 1.359375 10.675781 1.34375 10.671875 1.328125 10.671875 C 1.3125 10.671875 1.296875 10.683594 1.292969 10.699219 L 1.289062 10.765625 L 1.285156 10.8125 L 1.269531 10.871094 C 1.261719 10.898438 1.234375 10.914062 1.207031 10.917969 C 1.167969 10.925781 1.140625 10.914062 1.117188 10.886719 C 1.09375 10.863281 1.078125 10.832031 1.074219 10.796875 C 1.066406 10.761719 1.070312 10.722656 1.089844 10.691406 C 1.109375 10.664062 1.140625 10.644531 1.171875 10.644531 M 1.148438 11.097656 L 1.492188 10.996094 L 1.566406 11.238281 L 1.527344 11.25 L 1.460938 11.054688 L 1.359375 11.085938 L 1.421875 11.269531 L 1.378906 11.28125 L 1.320312 11.09375 L 1.203125 11.132812 L 1.269531 11.332031 L 1.234375 11.34375 Z M 1.300781 11.519531 L 1.609375 11.351562 L 1.648438 11.410156 L 1.433594 11.636719 L 1.742188 11.585938 L 1.777344 11.640625 L 1.464844 11.808594 L 1.441406 11.769531 L 1.625 11.671875 L 1.660156 11.65625 L 1.707031 11.628906 L 1.394531 11.6875 L 1.375 11.644531 L 1.585938 11.414062 L 1.574219 11.421875 L 1.503906 11.460938 L 1.320312 11.554688 Z M 1.878906 11.984375 C 1.863281 11.976562 1.847656 11.96875 1.835938 11.953125 L 1.769531 11.886719 L 1.855469 11.804688 L 1.921875 11.871094 L 1.949219 11.910156 C 1.957031 11.929688 1.949219 11.945312 1.929688 11.964844 C 1.910156 11.980469 1.894531 11.988281 1.878906 11.984375 M 1.628906 12.011719 L 1.738281 11.910156 L 1.8125 11.988281 C 1.84375 12.015625 1.867188 12.027344 1.894531 12.027344 C 1.921875 12.027344 1.945312 12.015625 1.964844 11.996094 C 1.984375 11.976562 1.996094 11.949219 1.996094 11.921875 C 1.996094 11.898438 1.984375 11.875 1.960938 11.851562 L 1.851562 11.742188 L 1.597656 11.980469 Z M 1.9375 12.289062 L 2.125 11.992188 L 2.34375 12.128906 L 2.320312 12.164062 L 2.136719 12.054688 L 2.082031 12.144531 L 2.25 12.246094 L 2.230469 12.28125 L 2.0625 12.179688 L 2 12.28125 L 2.183594 12.390625 L 2.160156 12.429688 Z M 2.488281 12.230469 L 2.601562 12.269531 L 2.636719 12.285156 C 2.652344 12.300781 2.652344 12.320312 2.644531 12.34375 C 2.640625 12.367188 2.628906 12.382812 2.609375 12.382812 L 2.554688 12.378906 L 2.449219 12.34375 Z M 2.390625 12.523438 L 2.4375 12.382812 L 2.542969 12.417969 C 2.5625 12.421875 2.574219 12.429688 2.582031 12.433594 C 2.59375 12.449219 2.597656 12.464844 2.59375 12.488281 L 2.574219 12.542969 L 2.570312 12.570312 L 2.570312 12.578125 L 2.625 12.597656 L 2.625 12.589844 L 2.617188 12.566406 L 2.625 12.539062 L 2.640625 12.496094 C 2.644531 12.472656 2.644531 12.457031 2.640625 12.449219 C 2.640625 12.4375 2.632812 12.425781 2.617188 12.417969 C 2.636719 12.417969 2.652344 12.410156 2.664062 12.398438 C 2.679688 12.386719 2.6875 12.371094 2.691406 12.355469 C 2.707031 12.316406 2.699219 12.285156 2.667969 12.261719 L 2.609375 12.226562 L 2.453125 12.179688 L 2.34375 12.507812 Z M 2.390625 12.523438 "/>
<path style=" stroke:none;fill-rule:nonzero;fill:rgb(73.725492%,44.313726%,37.254903%);fill-opacity:1;" d="M 2.875 6.515625 C 2.910156 6.417969 3.289062 6.144531 4.515625 6.265625 C 4.515625 6.265625 4.722656 6.394531 4.84375 6.375 C 4.917969 6.367188 4.808594 6.382812 4.714844 6.304688 C 4.621094 6.230469 4.601562 6.070312 4.8125 6.078125 C 5.023438 6.082031 5.8125 6.125 5.828125 6.199219 C 5.839844 6.273438 5.410156 6.300781 5.25 6.296875 C 5.089844 6.292969 5.105469 6.375 5.265625 6.371094 C 5.769531 6.347656 6.3125 6.171875 6.886719 6.585938 C 6.957031 6.636719 6.714844 6.640625 6.53125 6.566406 C 6.53125 6.566406 6.015625 6.589844 5.796875 6.554688 C 5.796875 6.554688 5.632812 6.695312 5.410156 6.679688 C 5.4375 6.753906 5.328125 7.019531 4.640625 6.816406 C 4.523438 6.855469 4.109375 6.925781 4.152344 6.796875 C 4.042969 6.796875 3.851562 6.835938 3.824219 6.773438 C 3.792969 6.710938 4.160156 6.617188 4.226562 6.550781 C 4.226562 6.550781 3.449219 6.558594 3.304688 6.5 C 3.304688 6.5 2.84375 6.605469 2.875 6.515625 "/>
<path style=" stroke:none;fill-rule:nonzero;fill:rgb(0%,52.941179%,21.568628%);fill-opacity:1;" d="M 3.125 7.613281 C 3.136719 7.59375 3.144531 7.546875 3.183594 7.550781 C 3.253906 7.570312 3.308594 7.714844 3.402344 7.621094 C 3.4375 7.613281 3.449219 7.660156 3.476562 7.667969 C 3.492188 7.746094 3.558594 7.648438 3.601562 7.65625 C 3.707031 7.609375 3.824219 7.597656 3.949219 7.617188 C 3.949219 7.699219 3.890625 7.785156 3.816406 7.828125 C 3.816406 7.902344 3.890625 7.957031 3.886719 8.035156 C 3.875 8.0625 3.886719 8.109375 3.839844 8.121094 C 3.78125 8.109375 3.730469 8.105469 3.683594 8.070312 C 3.679688 8.0625 3.671875 8.058594 3.664062 8.058594 C 3.65625 8.085938 3.699219 8.113281 3.714844 8.136719 C 3.683594 8.1875 3.640625 8.140625 3.601562 8.140625 C 3.589844 8.171875 3.601562 8.203125 3.570312 8.222656 C 3.523438 8.222656 3.511719 8.167969 3.484375 8.140625 C 3.449219 8.175781 3.503906 8.195312 3.511719 8.21875 C 3.488281 8.324219 3.492188 8.421875 3.394531 8.492188 L 3.324219 8.523438 C 3.308594 8.472656 3.316406 8.394531 3.308594 8.339844 C 3.273438 8.40625 3.230469 8.464844 3.179688 8.519531 C 3.105469 8.496094 3.070312 8.417969 3.054688 8.347656 C 3.027344 8.265625 3.042969 8.175781 3.101562 8.117188 C 3.082031 8.078125 3.011719 8.085938 3 8.027344 C 2.890625 7.953125 2.835938 8.148438 2.765625 8.050781 C 2.746094 7.949219 2.773438 7.84375 2.839844 7.765625 C 2.820312 7.730469 2.769531 7.738281 2.738281 7.714844 C 2.671875 7.65625 2.574219 7.597656 2.582031 7.492188 C 2.769531 7.421875 2.980469 7.472656 3.121094 7.613281 "/>
<path style=" stroke:none;fill-rule:nonzero;fill:rgb(100%,100%,0%);fill-opacity:1;" d="M 3.21875 7.605469 C 3.214844 7.6875 3.273438 7.625 3.320312 7.679688 C 3.285156 7.664062 3.257812 7.742188 3.222656 7.695312 L 3.199219 7.71875 C 3.214844 7.75 3.238281 7.753906 3.214844 7.785156 C 3.179688 7.800781 3.167969 7.75 3.148438 7.730469 C 3.15625 7.71875 3.152344 7.710938 3.140625 7.699219 C 3.121094 7.71875 3.097656 7.726562 3.070312 7.722656 C 3.0625 7.707031 3.042969 7.683594 3.0625 7.671875 C 3.089844 7.632812 3.136719 7.683594 3.15625 7.660156 C 3.160156 7.632812 3.136719 7.605469 3.167969 7.585938 C 3.1875 7.589844 3.210938 7.578125 3.21875 7.605469 M 3.445312 7.675781 C 3.449219 7.6875 3.4375 7.710938 3.460938 7.726562 C 3.492188 7.714844 3.515625 7.722656 3.535156 7.75 C 3.539062 7.769531 3.535156 7.78125 3.519531 7.792969 L 3.476562 7.78125 C 3.476562 7.777344 3.46875 7.769531 3.460938 7.757812 C 3.441406 7.757812 3.425781 7.765625 3.417969 7.78125 C 3.429688 7.796875 3.453125 7.808594 3.445312 7.828125 C 3.421875 7.851562 3.410156 7.804688 3.378906 7.820312 C 3.359375 7.8125 3.382812 7.769531 3.355469 7.753906 C 3.316406 7.753906 3.34375 7.816406 3.296875 7.792969 C 3.277344 7.773438 3.273438 7.753906 3.28125 7.730469 C 3.304688 7.71875 3.332031 7.722656 3.351562 7.738281 C 3.378906 7.703125 3.378906 7.585938 3.449219 7.675781 M 3.164062 7.796875 C 3.183594 7.828125 3.15625 7.863281 3.183594 7.894531 C 3.21875 7.820312 3.253906 7.90625 3.300781 7.902344 C 3.3125 7.917969 3.304688 7.941406 3.308594 7.960938 C 3.253906 7.976562 3.1875 7.992188 3.136719 7.949219 L 3.125 7.964844 C 3.152344 7.988281 3.179688 8.023438 3.15625 8.066406 C 3.117188 8.074219 3.050781 8.078125 3.03125 8.035156 C 3.019531 7.996094 3.058594 7.976562 3.015625 7.945312 C 2.992188 7.980469 2.992188 8.027344 2.9375 7.992188 C 2.90625 7.972656 2.894531 7.933594 2.90625 7.902344 C 2.945312 7.839844 3.011719 7.902344 3.046875 7.875 C 3.054688 7.824219 3.035156 7.777344 3.082031 7.753906 C 3.121094 7.746094 3.136719 7.773438 3.164062 7.796875 "/>
<path style=" stroke:none;fill-rule:nonzero;fill:rgb(100%,100%,100%);fill-opacity:1;" d="M 3.316406 7.828125 C 3.300781 7.914062 3.238281 7.828125 3.207031 7.824219 C 3.246094 7.75 3.269531 7.84375 3.316406 7.828125 M 3.515625 7.921875 C 3.472656 7.933594 3.480469 7.878906 3.457031 7.855469 L 3.476562 7.839844 C 3.488281 7.867188 3.503906 7.894531 3.515625 7.921875 "/>
<path style=" stroke:none;fill-rule:nonzero;fill:rgb(100%,100%,0%);fill-opacity:1;" d="M 3.457031 7.90625 C 3.46875 7.933594 3.429688 7.960938 3.464844 7.976562 L 3.492188 7.953125 C 3.527344 7.953125 3.558594 7.96875 3.582031 7.996094 C 3.601562 8.058594 3.542969 8.058594 3.507812 8.078125 L 3.472656 8.078125 C 3.480469 8.054688 3.453125 8.050781 3.449219 8.042969 C 3.433594 8.035156 3.417969 8.039062 3.410156 8.054688 C 3.417969 8.089844 3.464844 8.125 3.417969 8.160156 C 3.371094 8.160156 3.308594 8.175781 3.3125 8.117188 C 3.296875 8.078125 3.355469 8.03125 3.292969 8.027344 C 3.269531 8.074219 3.25 8.117188 3.195312 8.074219 L 3.199219 8.007812 C 3.253906 8.007812 3.3125 8.019531 3.335938 7.960938 C 3.351562 7.917969 3.3125 7.878906 3.347656 7.847656 C 3.402344 7.832031 3.429688 7.871094 3.457031 7.90625 "/>
<path style=" stroke:none;fill-rule:nonzero;fill:rgb(0%,0%,0%);fill-opacity:1;" d="M 3.421875 8 C 3.429688 8.035156 3.398438 8.039062 3.378906 8.054688 C 3.359375 8.054688 3.34375 8.046875 3.328125 8.03125 C 3.316406 7.992188 3.347656 7.984375 3.367188 7.972656 C 3.390625 7.960938 3.402344 7.988281 3.421875 8 "/>
<path style=" stroke:none;fill-rule:nonzero;fill:rgb(100%,100%,100%);fill-opacity:1;" d="M 3.386719 8.023438 C 3.382812 8.027344 3.375 8.03125 3.367188 8.03125 L 3.359375 7.992188 C 3.382812 7.992188 3.390625 8 3.386719 8.023438 "/>
</g>
</svg>
