<svg xmlns="http://www.w3.org/2000/svg" width="25" height="px" viewBox="0 0 25 19"><path d="M0 0h25v19H0z" style="fill:#3e5eb9;fill-opacity:1;stroke:none"/><path d="M0 3.563h25v11.875H0Zm0 0" style="stroke:none;fill-rule:nonzero;fill:#ffd900;fill-opacity:1"/><path d="M0 4.75h25v9.5H0Zm0 0" style="stroke:none;fill-rule:nonzero;fill:#b10c0c;fill-opacity:1"/><path d="m492.917 154.276-24.334 8.635 24.25 8.47 24.25-8.47Zm0 0" style="fill-rule:nonzero;fill:#fff;fill-opacity:1;stroke-width:1;stroke-linecap:butt;stroke-linejoin:miter;stroke:#000;stroke-opacity:1;stroke-miterlimit:4" transform="matrix(.04688 0 0 .0475 -1.688 0)"/><path d="M125.917 160.033h350.916c1.667 0 3.084 1.233 3.084 2.796s-1.417 2.878-3.084 2.878H125.917c-1.75 0-3.084-1.316-3.084-2.878s1.334-2.796 3.084-2.796Zm0 0" style="fill-rule:nonzero;fill:#ffd900;fill-opacity:1;stroke-width:1;stroke-linecap:butt;stroke-linejoin:miter;stroke:#000;stroke-opacity:1;stroke-miterlimit:4" transform="matrix(.04688 0 0 .0475 -1.688 0)"/><path d="M471.417 165.707a3.106 3.106 0 0 0 2.916-2.796c-.083-1.562-1.333-2.878-2.916-2.878m-2.834 5.674c1.5-.082 2.75-1.316 2.834-2.796-.084-1.562-1.25-2.796-2.834-2.878m-2.916 5.674c1.583-.082 2.833-1.233 2.916-2.796 0-1.562-1.333-2.878-2.916-2.878" style="fill-rule:nonzero;fill:#ffd900;fill-opacity:1;stroke-width:1;stroke-linecap:butt;stroke-linejoin:miter;stroke:#000;stroke-opacity:1;stroke-miterlimit:4" transform="matrix(.04688 0 0 .0475 -1.688 0)"/><path d="m492.883 154.282-24.25 8.634 24.167 8.47 24.333-8.47Zm0 0" style="fill-rule:nonzero;fill:#fff;fill-opacity:1;stroke-width:1;stroke-linecap:butt;stroke-linejoin:miter;stroke:#000;stroke-opacity:1;stroke-miterlimit:4" transform="matrix(.04688 0 0 .0475 -2.78 .812)"/><path d="M125.883 160.038H476.8c1.75 0 3.083 1.234 3.083 2.796 0 1.563-1.333 2.878-3.083 2.878H125.883c-1.666 0-3.083-1.315-3.083-2.878 0-1.562 1.417-2.796 3.083-2.796Zm0 0" style="fill-rule:nonzero;fill:#ffd900;fill-opacity:1;stroke-width:1;stroke-linecap:butt;stroke-linejoin:miter;stroke:#000;stroke-opacity:1;stroke-miterlimit:4" transform="matrix(.04688 0 0 .0475 -2.78 .812)"/><path d="M471.383 165.712c1.584-.082 2.834-1.233 2.917-2.796-.083-1.562-1.333-2.878-2.917-2.878m-2.75 5.674c1.5-.082 2.667-1.315 2.75-2.796 0-1.562-1.25-2.796-2.75-2.878m-2.916 5.674a3.106 3.106 0 0 0 2.916-2.796c-.083-1.562-1.333-2.878-2.916-2.878" style="fill-rule:nonzero;fill:#ffd900;fill-opacity:1;stroke-width:1;stroke-linecap:butt;stroke-linejoin:miter;stroke:#000;stroke-opacity:1;stroke-miterlimit:4" transform="matrix(.04688 0 0 .0475 -2.78 .812)"/><path d="M64 195.724h477.333c2.25 0 4.167 1.891 4.167 4.276s-1.917 4.276-4.167 4.276H64c-2.333 0-4.167-1.891-4.167-4.276s1.834-4.276 4.167-4.276Zm0 0" style="fill-rule:nonzero;fill:#ffd900;fill-opacity:1;stroke-width:1.1;stroke-linecap:butt;stroke-linejoin:miter;stroke:#000;stroke-opacity:1;stroke-miterlimit:4" transform="matrix(.04688 0 0 .0475 -1.688 0)"/><path d="M488.2 240c-34.3 34.342-80 102.928-171.4 102.928-80 0-137.1-68.586-171.4-102.928 34.2-34.342 91.4-102.928 171.4-102.928 91.4 0 137.1 68.586 171.4 102.928Zm0 0" style="fill-rule:nonzero;fill:#fff;fill-opacity:1;stroke-width:1.2;stroke-linecap:butt;stroke-linejoin:miter;stroke:#000;stroke-opacity:1;stroke-miterlimit:4" transform="scale(.03906 .03958)"/><path d="M11.906 6.848c.36.402.059.566.438.593.398.028.172.43.508.446.234.008-.024.957.199 1.265.23.328.422.098.43.332 0 .246-.626.22-.637.97-.02.433-.531.46-.555.737-.031.262 1.008.407.992.641-.011.238-1.12.2-1.172.461-.023.238 1.524.437 1.649 1.129-.235.078-.887.148-1.383.152-3.125 0-5.355-2.715-6.695-4.078 1.34-1.355 3.57-4.07 6.695-4.07 0 0-.926.86-.469 1.418Zm0 0" style="stroke:none;fill-rule:nonzero;fill:#000;fill-opacity:1"/><path d="M214 192.434V169.49m13.833 0v22.944m13.75-22.944v22.944" style="fill-rule:nonzero;fill:#000;fill-opacity:1;stroke-width:6.9;stroke-linecap:butt;stroke-linejoin:miter;stroke:#fff;stroke-opacity:1;stroke-miterlimit:4" transform="matrix(.04688 0 0 .0475 -1.688 0)"/><path d="M214 192.41v-22.944m13.833 0v22.944m13.75-22.944v22.944" style="fill-rule:nonzero;fill:#000;fill-opacity:1;stroke-width:6.9;stroke-linecap:butt;stroke-linejoin:miter;stroke:#fff;stroke-opacity:1;stroke-miterlimit:4" transform="matrix(.04688 0 0 .0475 -1.688 1.81)"/><path d="M213.983 192.434V169.49m13.834 0v22.944m13.75-22.944v22.944" style="fill-rule:nonzero;fill:#000;fill-opacity:1;stroke-width:6.9;stroke-linecap:butt;stroke-linejoin:miter;stroke:#fff;stroke-opacity:1;stroke-miterlimit:4" transform="matrix(.04688 0 0 .0475 .263 0)"/><path d="M213.983 192.41v-22.944m13.834 0v22.944m13.75-22.944v22.944" style="fill-rule:nonzero;fill:#000;fill-opacity:1;stroke-width:6.9;stroke-linecap:butt;stroke-linejoin:miter;stroke:#fff;stroke-opacity:1;stroke-miterlimit:4" transform="matrix(.04688 0 0 .0475 .263 1.81)"/><path d="M214.033 192.434V169.49m13.75 0v22.944m13.834-22.944v22.944" style="fill-rule:nonzero;fill:#000;fill-opacity:1;stroke-width:6.9;stroke-linecap:butt;stroke-linejoin:miter;stroke:#000;stroke-opacity:1;stroke-miterlimit:4" transform="matrix(.04688 0 0 .0475 3.225 0)"/><path d="M214.033 192.41v-22.944m13.75 0v22.944m13.834-22.944v22.944" style="fill-rule:nonzero;fill:#000;fill-opacity:1;stroke-width:6.9;stroke-linecap:butt;stroke-linejoin:miter;stroke:#000;stroke-opacity:1;stroke-miterlimit:4" transform="matrix(.04688 0 0 .0475 3.225 1.81)"/><path d="M214.017 192.434V169.49m13.75 0v22.944M241.6 169.49v22.944" style="fill-rule:nonzero;fill:#000;fill-opacity:1;stroke-width:6.9;stroke-linecap:butt;stroke-linejoin:miter;stroke:#000;stroke-opacity:1;stroke-miterlimit:4" transform="matrix(.04688 0 0 .0475 5.175 0)"/><path d="M214.017 192.41v-22.944m13.75 0v22.944m13.833-22.944v22.944" style="fill-rule:nonzero;fill:#000;fill-opacity:1;stroke-width:6.9;stroke-linecap:butt;stroke-linejoin:miter;stroke:#000;stroke-opacity:1;stroke-miterlimit:4" transform="matrix(.04688 0 0 .0475 5.175 1.81)"/><path d="M570.4 235.954c-5.2 8.98 4-2.96 26.4 12.04 4.6 3.848 7.4 9.374 7.8 15.295-1-.69-1.9-2.27-3-3.157-1.6 1.579 1.6 8.98 2 12.434-3.5-1.974-3.2-2.763-4.3-5.132.2 2.763-.7 10.757.8 14.013-2.8-.888-2.6-3.059-4-3.552 1 3.552-.9 7.204-.4 11.25-1.6-1.678-3.4-2.96-4.1-3.553-.2 1.974-3.1 6.81-3.2 8.586-1-.691-1.7-1.777-2-2.96-3.2 3.75-5.9 7.894-8 12.335-4.7-3.948-16.6-13.915-18.2-19.342-1.4 2.96-3.4 3.947-7.2 6.217-1.6-8.389-7.5-17.862-4.4-25.165l-6.1 4.244c3.7-14.902 14-27.336 28-33.652Zm0 0" style="fill-rule:nonzero;fill:#333;fill-opacity:1;stroke-width:1;stroke-linecap:butt;stroke-linejoin:miter;stroke:#000;stroke-opacity:1;stroke-miterlimit:4" transform="scale(.03906 .03958)"/><path d="M21.523 11.102c.086-.168.165-.223.22-.336.093-.188.109-.348.195-.325.078.024.078.106-.028.293-.105.192-.156.23-.387.368m.57.406c-.007-.13.028-.184.024-.266-.015-.152-.074-.25.004-.258.078-.004.113.043.113.192 0 .148-.023.187-.14.332m.433.254c-.035-.18-.007-.258-.03-.38-.04-.202-.114-.339-.04-.359s.117.047.145.258c.023.207.011.266-.075.485Zm.45-1.27c-.106-.078-.168-.086-.235-.137-.117-.093-.18-.19-.219-.144-.039.05-.011.105.118.187s.164.09.336.094m-.075.602c-.054-.117-.117-.145-.148-.219-.063-.137-.063-.25-.137-.223-.066.032-.074.09 0 .223.078.125.117.148.281.219Zm0 0" style="stroke:none;fill-rule:nonzero;fill:#b3b3b3;fill-opacity:1"/><path d="M53.8 244.638c-.4-2.664.2-3.06-1.4-5.033 2.4.987 2.4 3.652 5.3 1.777 1-.494 1.5-.494.2-3.454 3 .197 12.7 3.454 14.3 3.552 4.1.198 11.6-4.243 16.8 1.184 5 5.033 3.2 10.362 3.2 17.27-2-.987-1-1.381-3.2-3.947 1.6 6.217 0 17.072 0 23.585-.8-1.579-.7-.888-1.5-2.467-2 5.921-4.6 7.007-4.6 14.112-.8-2.862 0-2.17-.9-3.651-2 4.54-16 8.29-10.6 12.829-4.8-2.763-7-2.566-9-5.033-1 .592-1.9 1.677-2.6 3.256-8.5-3.848-5.5-12.236-12.1-17.96-1.2 2.467-.7 2.17-2 5.92-1.2-5.23-1.6-8.683-3.1-12.532-1.3 2.171-1.2 1.283-3.6 4.54-1-6.415-2.5-7.994-2-12.237-2.4 1.776-.8.987-3.3 3.158 2.4-16.48 12.6-28.816 20-24.968Zm0 0" style="fill-rule:nonzero;fill:#333;fill-opacity:1;stroke-width:1.3;stroke-linecap:butt;stroke-linejoin:miter;stroke:#000;stroke-opacity:1;stroke-miterlimit:4" transform="scale(.03906 .03958)"/><path d="M1.695 10.754c.082-.211.157-.277.215-.41.098-.242.113-.438.195-.41.079.035.079.129-.03.367-.11.234-.157.285-.38.453m.32.527c.032-.191.087-.254.11-.379.04-.214.02-.375.094-.367.078.012.094.094.043.305-.051.215-.086.265-.25.441Zm.383.371c.012-.18.055-.257.063-.375.012-.207-.031-.355.039-.355.078 0 .102.074.078.281-.023.203-.047.262-.18.45m.829-1.204c-.157-.156-.25-.187-.352-.293-.18-.18-.27-.347-.336-.289-.066.059-.023.149.168.317.188.18.254.203.523.265Zm-.094.617c-.102-.156-.18-.199-.246-.308-.117-.176-.157-.332-.223-.297s-.05.121.074.297c.125.18.176.207.395.308" style="stroke:none;fill-rule:nonzero;fill:#b3b3b3;fill-opacity:1"/><path d="M261.4 155.428c-4.8 9.177 8.3-3.06 28.8 12.335 5 5.33 8.2 12.138 9.2 19.342a65 65 0 0 1-12-5.329s9 9.178 9 19.638c-3.2-1.973-4.8-1.677-6-4.144 0 3.355 3 5.526 3 10.756-2-1.579-4.1-3.059-6.3-4.243 3 5.329-5.5 15.493-1.2 18.849-7.3-1.086-13.8-5.033-18.1-11.053-1.6.987-1.8 2.763-1.9 4.638.3.099-11.3-8.684-10.2-12.04-1.3 1.678-2.1 3.75-2.2 5.823a31.34 31.34 0 0 1-9.6-13.816c-1.8 2.369-2 2.369-3.9 5.033-1.4-8.684-1.4-8.388 1.4-15.79l-5.6 4.244a50.08 50.08 0 0 1 25.6-34.243Zm0 0" style="fill-rule:nonzero;fill:#333;fill-opacity:1;stroke-width:1;stroke-linecap:butt;stroke-linejoin:miter;stroke:#000;stroke-opacity:1;stroke-miterlimit:4" transform="scale(.03906 .03958)"/><path d="M9.75 7.926c.031-.25.094-.34.117-.508.031-.277-.008-.492.094-.484.094.007.125.113.078.398-.05.281-.094.348-.285.598Zm.52.457c-.02-.203.02-.301.003-.434-.02-.238-.093-.406-.007-.418s.132.067.14.309c.008.238-.011.305-.136.543m.812.383c-.09-.188-.168-.239-.223-.36-.101-.207-.125-.375-.199-.347-.078.03-.074.12.04.324.109.199.16.242.378.383Zm.277-1.645c-.226-.117-.34-.117-.484-.2-.254-.132-.402-.28-.453-.194-.055.078.015.16.277.285.262.12.344.125.656.11Zm.079.684c-.157-.133-.258-.157-.364-.246-.187-.157-.277-.305-.336-.243-.062.063-.023.141.172.29.195.144.262.16.531.199Zm0 0" style="stroke:none;fill-rule:nonzero;fill:#b3b3b3;fill-opacity:1"/></svg>