<?xml version="1.0" encoding="UTF-8"?>
<svg xmlns="http://www.w3.org/2000/svg" xmlns:xlink="http://www.w3.org/1999/xlink" width="25px" height="px" viewBox="0 0 25 19" version="1.1">
<g id="surface1">
<rect x="0" y="0" width="25" height="19" style="fill:rgb(24.313726%,36.862746%,72.549021%);fill-opacity:1;stroke:none;"/>
<path style=" stroke:none;fill-rule:nonzero;fill:rgb(100%,85.09804%,0%);fill-opacity:1;" d="M 0 3.5625 L 25 3.5625 L 25 15.4375 L 0 15.4375 Z M 0 3.5625 "/>
<path style=" stroke:none;fill-rule:nonzero;fill:rgb(69.411767%,4.705882%,4.705882%);fill-opacity:1;" d="M 0 4.75 L 25 4.75 L 25 14.25 L 0 14.25 Z M 0 4.75 "/>
<path style="fill-rule:nonzero;fill:rgb(100%,100%,100%);fill-opacity:1;stroke-width:1;stroke-linecap:butt;stroke-linejoin:miter;stroke:rgb(0%,0%,0%);stroke-opacity:1;stroke-miterlimit:4;" d="M 492.916648 154.27631 L 468.583315 162.911178 L 492.833314 171.381572 L 517.083313 162.911178 Z M 492.916648 154.27631 " transform="matrix(0.046875,0,0,0.0475,-1.6875,0)"/>
<path style="fill-rule:nonzero;fill:rgb(100%,85.09804%,0%);fill-opacity:1;stroke-width:1;stroke-linecap:butt;stroke-linejoin:miter;stroke:rgb(0%,0%,0%);stroke-opacity:1;stroke-miterlimit:4;" d="M 125.916662 160.032888 L 476.833315 160.032888 C 478.499982 160.032888 479.916648 161.266441 479.916648 162.828941 C 479.916648 164.391441 478.499982 165.70723 476.833315 165.70723 L 125.916662 165.70723 C 124.166662 165.70723 122.833329 164.391441 122.833329 162.828941 C 122.833329 161.266441 124.166662 160.032888 125.916662 160.032888 Z M 125.916662 160.032888 " transform="matrix(0.046875,0,0,0.0475,-1.6875,0)"/>
<path style="fill-rule:nonzero;fill:rgb(100%,85.09804%,0%);fill-opacity:1;stroke-width:1;stroke-linecap:butt;stroke-linejoin:miter;stroke:rgb(0%,0%,0%);stroke-opacity:1;stroke-miterlimit:4;" d="M 471.416649 165.70723 C 472.916649 165.624993 474.166648 164.473678 474.333315 162.911178 C 474.249982 161.348678 472.999982 160.032888 471.416649 160.032888 M 468.583315 165.70723 C 470.083315 165.624993 471.333315 164.391441 471.416649 162.911178 C 471.333315 161.348678 470.166649 160.115125 468.583315 160.032888 M 465.666649 165.70723 C 467.249982 165.624993 468.499982 164.473678 468.583315 162.911178 C 468.583315 161.348678 467.249982 160.032888 465.666649 160.032888 " transform="matrix(0.046875,0,0,0.0475,-1.6875,0)"/>
<path style="fill-rule:nonzero;fill:rgb(100%,100%,100%);fill-opacity:1;stroke-width:1;stroke-linecap:butt;stroke-linejoin:miter;stroke:rgb(0%,0%,0%);stroke-opacity:1;stroke-miterlimit:4;" d="M 492.883315 154.281572 L 468.633316 162.91644 L 492.799981 171.386834 L 517.133314 162.91644 Z M 492.883315 154.281572 " transform="matrix(0.046875,0,0,0.0475,-2.779688,0.81225)"/>
<path style="fill-rule:nonzero;fill:rgb(100%,85.09804%,0%);fill-opacity:1;stroke-width:1;stroke-linecap:butt;stroke-linejoin:miter;stroke:rgb(0%,0%,0%);stroke-opacity:1;stroke-miterlimit:4;" d="M 125.883329 160.03815 L 476.799982 160.03815 C 478.549982 160.03815 479.883315 161.271703 479.883315 162.834203 C 479.883315 164.396703 478.549982 165.712492 476.799982 165.712492 L 125.883329 165.712492 C 124.216663 165.712492 122.799996 164.396703 122.799996 162.834203 C 122.799996 161.271703 124.216663 160.03815 125.883329 160.03815 Z M 125.883329 160.03815 " transform="matrix(0.046875,0,0,0.0475,-2.779688,0.81225)"/>
<path style="fill-rule:nonzero;fill:rgb(100%,85.09804%,0%);fill-opacity:1;stroke-width:1;stroke-linecap:butt;stroke-linejoin:miter;stroke:rgb(0%,0%,0%);stroke-opacity:1;stroke-miterlimit:4;" d="M 471.383315 165.712492 C 472.966649 165.630256 474.216649 164.47894 474.299982 162.91644 C 474.216649 161.35394 472.966649 160.03815 471.383315 160.03815 M 468.633316 165.712492 C 470.133315 165.630256 471.299982 164.396703 471.383315 162.91644 C 471.383315 161.35394 470.133315 160.120387 468.633316 160.03815 M 465.716649 165.712492 C 467.216649 165.630256 468.466649 164.47894 468.633316 162.91644 C 468.549982 161.35394 467.299982 160.03815 465.716649 160.03815 " transform="matrix(0.046875,0,0,0.0475,-2.779688,0.81225)"/>
<path style="fill-rule:nonzero;fill:rgb(100%,85.09804%,0%);fill-opacity:1;stroke-width:1.1;stroke-linecap:butt;stroke-linejoin:miter;stroke:rgb(0%,0%,0%);stroke-opacity:1;stroke-miterlimit:4;" d="M 63.999998 195.723676 L 541.333312 195.723676 C 543.583312 195.723676 545.499979 197.615124 545.499979 199.999992 C 545.499979 202.38486 543.583312 204.276308 541.333312 204.276308 L 63.999998 204.276308 C 61.666665 204.276308 59.833332 202.38486 59.833332 199.999992 C 59.833332 197.615124 61.666665 195.723676 63.999998 195.723676 Z M 63.999998 195.723676 " transform="matrix(0.046875,0,0,0.0475,-1.6875,0)"/>
<path style="fill-rule:nonzero;fill:rgb(100%,100%,100%);fill-opacity:1;stroke-width:1.2;stroke-linecap:butt;stroke-linejoin:miter;stroke:rgb(0%,0%,0%);stroke-opacity:1;stroke-miterlimit:4;" d="M 488.2 240 C 453.9 274.342105 408.2 342.927632 316.8 342.927632 C 236.8 342.927632 179.7 274.342105 145.4 240 C 179.6 205.657895 236.8 137.072368 316.8 137.072368 C 408.2 137.072368 453.9 205.657895 488.2 240 Z M 488.2 240 " transform="matrix(0.0390625,0,0,0.0395833,0,0)"/>
<path style=" stroke:none;fill-rule:nonzero;fill:rgb(0%,0%,0%);fill-opacity:1;" d="M 11.90625 6.847656 C 12.265625 7.25 11.964844 7.414062 12.34375 7.441406 C 12.742188 7.46875 12.515625 7.871094 12.851562 7.886719 C 13.085938 7.894531 12.828125 8.84375 13.050781 9.152344 C 13.28125 9.480469 13.472656 9.25 13.480469 9.484375 C 13.480469 9.730469 12.855469 9.703125 12.84375 10.453125 C 12.824219 10.886719 12.3125 10.914062 12.289062 11.191406 C 12.257812 11.453125 13.296875 11.597656 13.28125 11.832031 C 13.269531 12.070312 12.160156 12.03125 12.109375 12.292969 C 12.085938 12.53125 13.632812 12.730469 13.757812 13.421875 C 13.523438 13.5 12.871094 13.570312 12.375 13.574219 C 9.25 13.574219 7.019531 10.859375 5.679688 9.496094 C 7.019531 8.140625 9.25 5.425781 12.375 5.425781 C 12.375 5.425781 11.449219 6.285156 11.90625 6.84375 Z M 11.90625 6.847656 "/>
<path style="fill-rule:nonzero;fill:rgb(0%,0%,0%);fill-opacity:1;stroke-width:6.9;stroke-linecap:butt;stroke-linejoin:miter;stroke:rgb(100%,100%,100%);stroke-opacity:1;stroke-miterlimit:4;" d="M 213.999992 192.434203 L 213.999992 169.490125 M 227.833325 169.490125 L 227.833325 192.434203 M 241.583324 169.490125 L 241.583324 192.434203 " transform="matrix(0.046875,0,0,0.0475,-1.6875,0)"/>
<path style="fill-rule:nonzero;fill:rgb(0%,0%,0%);fill-opacity:1;stroke-width:6.9;stroke-linecap:butt;stroke-linejoin:miter;stroke:rgb(100%,100%,100%);stroke-opacity:1;stroke-miterlimit:4;" d="M 213.999992 192.409861 L 213.999992 169.465783 M 227.833325 169.465783 L 227.833325 192.409861 M 241.583324 169.465783 L 241.583324 192.409861 " transform="matrix(0.046875,0,0,0.0475,-1.6875,1.80975)"/>
<path style="fill-rule:nonzero;fill:rgb(0%,0%,0%);fill-opacity:1;stroke-width:6.9;stroke-linecap:butt;stroke-linejoin:miter;stroke:rgb(100%,100%,100%);stroke-opacity:1;stroke-miterlimit:4;" d="M 213.983325 192.434203 L 213.983325 169.490125 M 227.816658 169.490125 L 227.816658 192.434203 M 241.566658 169.490125 L 241.566658 192.434203 " transform="matrix(0.046875,0,0,0.0475,0.2625,0)"/>
<path style="fill-rule:nonzero;fill:rgb(0%,0%,0%);fill-opacity:1;stroke-width:6.9;stroke-linecap:butt;stroke-linejoin:miter;stroke:rgb(100%,100%,100%);stroke-opacity:1;stroke-miterlimit:4;" d="M 213.983325 192.409861 L 213.983325 169.465783 M 227.816658 169.465783 L 227.816658 192.409861 M 241.566658 169.465783 L 241.566658 192.409861 " transform="matrix(0.046875,0,0,0.0475,0.2625,1.80975)"/>
<path style="fill-rule:nonzero;fill:rgb(0%,0%,0%);fill-opacity:1;stroke-width:6.9;stroke-linecap:butt;stroke-linejoin:miter;stroke:rgb(0%,0%,0%);stroke-opacity:1;stroke-miterlimit:4;" d="M 214.033318 192.434203 L 214.033318 169.490125 M 227.783318 169.490125 L 227.783318 192.434203 M 241.61665 169.490125 L 241.61665 192.434203 " transform="matrix(0.046875,0,0,0.0475,3.225,0)"/>
<path style="fill-rule:nonzero;fill:rgb(0%,0%,0%);fill-opacity:1;stroke-width:6.9;stroke-linecap:butt;stroke-linejoin:miter;stroke:rgb(0%,0%,0%);stroke-opacity:1;stroke-miterlimit:4;" d="M 214.033318 192.409861 L 214.033318 169.465783 M 227.783318 169.465783 L 227.783318 192.409861 M 241.61665 169.465783 L 241.61665 192.409861 " transform="matrix(0.046875,0,0,0.0475,3.225,1.80975)"/>
<path style="fill-rule:nonzero;fill:rgb(0%,0%,0%);fill-opacity:1;stroke-width:6.9;stroke-linecap:butt;stroke-linejoin:miter;stroke:rgb(0%,0%,0%);stroke-opacity:1;stroke-miterlimit:4;" d="M 214.016651 192.434203 L 214.016651 169.490125 M 227.766651 169.490125 L 227.766651 192.434203 M 241.599984 169.490125 L 241.599984 192.434203 " transform="matrix(0.046875,0,0,0.0475,5.175,0)"/>
<path style="fill-rule:nonzero;fill:rgb(0%,0%,0%);fill-opacity:1;stroke-width:6.9;stroke-linecap:butt;stroke-linejoin:miter;stroke:rgb(0%,0%,0%);stroke-opacity:1;stroke-miterlimit:4;" d="M 214.016651 192.409861 L 214.016651 169.465783 M 227.766651 169.465783 L 227.766651 192.409861 M 241.599984 169.465783 L 241.599984 192.409861 " transform="matrix(0.046875,0,0,0.0475,5.175,1.80975)"/>
<path style="fill-rule:nonzero;fill:rgb(20%,20%,20%);fill-opacity:1;stroke-width:1;stroke-linecap:butt;stroke-linejoin:miter;stroke:rgb(0%,0%,0%);stroke-opacity:1;stroke-miterlimit:4;" d="M 570.4 235.953947 C 565.2 244.934211 574.4 232.993421 596.8 247.993421 C 601.4 251.842105 604.2 257.368421 604.6 263.289474 C 603.6 262.598684 602.7 261.019737 601.6 260.131579 C 600 261.710526 603.2 269.111842 603.6 272.565789 C 600.1 270.592105 600.4 269.802632 599.3 267.434211 C 599.5 270.197368 598.6 278.190789 600.1 281.447368 C 597.3 280.559211 597.5 278.388158 596.1 277.894737 C 597.1 281.447368 595.2 285.098684 595.7 289.144737 C 594.1 287.467105 592.3 286.184211 591.6 285.592105 C 591.4 287.565789 588.5 292.401316 588.4 294.177632 C 587.4 293.486842 586.7 292.401316 586.4 291.217105 C 583.2 294.967105 580.5 299.111842 578.4 303.552632 C 573.7 299.605263 561.8 289.638158 560.2 284.210526 C 558.8 287.171053 556.8 288.157895 553 290.427632 C 551.4 282.039474 545.5 272.565789 548.6 265.263158 L 542.5 269.506579 C 546.2 254.605263 556.5 242.171053 570.5 235.855263 Z M 570.4 235.953947 " transform="matrix(0.0390625,0,0,0.0395833,0,0)"/>
<path style=" stroke:none;fill-rule:nonzero;fill:rgb(70.19608%,70.19608%,70.19608%);fill-opacity:1;" d="M 21.523438 11.101562 C 21.609375 10.933594 21.6875 10.878906 21.742188 10.765625 C 21.835938 10.578125 21.851562 10.417969 21.9375 10.441406 C 22.015625 10.464844 22.015625 10.546875 21.910156 10.734375 C 21.804688 10.925781 21.753906 10.964844 21.523438 11.101562 M 22.09375 11.507812 C 22.085938 11.378906 22.121094 11.324219 22.117188 11.242188 C 22.101562 11.089844 22.042969 10.992188 22.121094 10.984375 C 22.199219 10.980469 22.234375 11.027344 22.234375 11.175781 C 22.234375 11.324219 22.210938 11.363281 22.09375 11.507812 M 22.527344 11.761719 C 22.492188 11.582031 22.519531 11.503906 22.496094 11.382812 C 22.457031 11.179688 22.382812 11.042969 22.457031 11.023438 C 22.53125 11.003906 22.574219 11.070312 22.601562 11.28125 C 22.625 11.488281 22.613281 11.546875 22.527344 11.765625 Z M 22.976562 10.492188 C 22.871094 10.414062 22.808594 10.40625 22.742188 10.355469 C 22.625 10.261719 22.5625 10.164062 22.523438 10.210938 C 22.484375 10.261719 22.511719 10.316406 22.640625 10.398438 C 22.769531 10.480469 22.804688 10.488281 22.976562 10.492188 M 22.902344 11.09375 C 22.847656 10.976562 22.785156 10.949219 22.753906 10.875 C 22.691406 10.738281 22.691406 10.625 22.617188 10.652344 C 22.550781 10.683594 22.542969 10.742188 22.617188 10.875 C 22.695312 11 22.734375 11.023438 22.898438 11.09375 Z M 22.902344 11.09375 "/>
<path style="fill-rule:nonzero;fill:rgb(20%,20%,20%);fill-opacity:1;stroke-width:1.3;stroke-linecap:butt;stroke-linejoin:miter;stroke:rgb(0%,0%,0%);stroke-opacity:1;stroke-miterlimit:4;" d="M 53.8 244.638158 C 53.4 241.973684 54 241.578947 52.4 239.605263 C 54.8 240.592105 54.8 243.256579 57.7 241.381579 C 58.7 240.888158 59.2 240.888158 57.9 237.927632 C 60.9 238.125 70.6 241.381579 72.2 241.480263 C 76.3 241.677632 83.8 237.236842 89 242.664474 C 94 247.697368 92.2 253.026316 92.2 259.934211 C 90.2 258.947368 91.2 258.552632 89 255.986842 C 90.6 262.203947 89 273.059211 89 279.572368 C 88.2 277.993421 88.3 278.684211 87.5 277.105263 C 85.5 283.026316 82.9 284.111842 82.9 291.217105 C 82.1 288.355263 82.9 289.046053 82 287.565789 C 80 292.105263 66 295.855263 71.4 300.394737 C 66.6 297.631579 64.4 297.828947 62.4 295.361842 C 61.4 295.953947 60.5 297.039474 59.8 298.618421 C 51.3 294.769737 54.3 286.381579 47.7 280.657895 C 46.5 283.125 47 282.828947 45.7 286.578947 C 44.5 281.348684 44.1 277.894737 42.6 274.046053 C 41.3 276.217105 41.4 275.328947 39 278.585526 C 38 272.171053 36.5 270.592105 37 266.348684 C 34.6 268.125 36.2 267.335526 33.7 269.506579 C 36.1 253.026316 46.3 240.690789 53.7 244.539474 Z M 53.8 244.638158 " transform="matrix(0.0390625,0,0,0.0395833,0,0)"/>
<path style=" stroke:none;fill-rule:nonzero;fill:rgb(70.19608%,70.19608%,70.19608%);fill-opacity:1;" d="M 1.695312 10.753906 C 1.777344 10.542969 1.851562 10.476562 1.910156 10.34375 C 2.007812 10.101562 2.023438 9.90625 2.105469 9.933594 C 2.183594 9.96875 2.183594 10.0625 2.074219 10.300781 C 1.964844 10.535156 1.917969 10.585938 1.695312 10.753906 M 2.015625 11.28125 C 2.046875 11.089844 2.101562 11.027344 2.125 10.902344 C 2.164062 10.6875 2.144531 10.527344 2.21875 10.535156 C 2.296875 10.546875 2.3125 10.628906 2.261719 10.839844 C 2.210938 11.054688 2.175781 11.105469 2.011719 11.28125 Z M 2.398438 11.652344 C 2.410156 11.472656 2.453125 11.394531 2.460938 11.277344 C 2.472656 11.070312 2.429688 10.921875 2.5 10.921875 C 2.578125 10.921875 2.601562 10.996094 2.578125 11.203125 C 2.554688 11.40625 2.53125 11.464844 2.398438 11.652344 M 3.226562 10.449219 C 3.070312 10.292969 2.976562 10.261719 2.875 10.15625 C 2.695312 9.976562 2.605469 9.808594 2.539062 9.867188 C 2.472656 9.925781 2.515625 10.015625 2.707031 10.183594 C 2.894531 10.363281 2.960938 10.386719 3.230469 10.449219 Z M 3.132812 11.066406 C 3.03125 10.910156 2.953125 10.867188 2.886719 10.757812 C 2.769531 10.582031 2.730469 10.425781 2.664062 10.460938 C 2.597656 10.496094 2.613281 10.582031 2.738281 10.757812 C 2.863281 10.9375 2.914062 10.964844 3.132812 11.066406 "/>
<path style="fill-rule:nonzero;fill:rgb(20%,20%,20%);fill-opacity:1;stroke-width:1;stroke-linecap:butt;stroke-linejoin:miter;stroke:rgb(0%,0%,0%);stroke-opacity:1;stroke-miterlimit:4;" d="M 261.4 155.427632 C 256.6 164.605263 269.7 152.368421 290.2 167.763158 C 295.2 173.092105 298.4 179.901316 299.4 187.105263 C 295.2 185.723684 291.2 183.947368 287.4 181.776316 C 287.4 181.776316 296.4 190.953947 296.4 201.414474 C 293.2 199.440789 291.6 199.736842 290.4 197.269737 C 290.4 200.625 293.4 202.796053 293.4 208.026316 C 291.4 206.447368 289.3 204.967105 287.1 203.782895 C 290.1 209.111842 281.6 219.276316 285.9 222.631579 C 278.6 221.546053 272.1 217.598684 267.8 211.578947 C 266.2 212.565789 266 214.342105 265.9 216.217105 C 266.2 216.315789 254.6 207.532895 255.7 204.177632 C 254.4 205.855263 253.6 207.927632 253.5 210 C 249.1 206.348684 245.8 201.611842 243.9 196.184211 C 242.1 198.552632 241.9 198.552632 240 201.217105 C 238.6 192.532895 238.6 192.828947 241.4 185.427632 L 235.8 189.671053 C 238.8 174.967105 248.2 162.434211 261.4 155.427632 Z M 261.4 155.427632 " transform="matrix(0.0390625,0,0,0.0395833,0,0)"/>
<path style=" stroke:none;fill-rule:nonzero;fill:rgb(70.19608%,70.19608%,70.19608%);fill-opacity:1;" d="M 9.75 7.925781 C 9.78125 7.675781 9.84375 7.585938 9.867188 7.417969 C 9.898438 7.140625 9.859375 6.925781 9.960938 6.933594 C 10.054688 6.941406 10.085938 7.046875 10.039062 7.332031 C 9.988281 7.613281 9.945312 7.679688 9.753906 7.929688 Z M 10.269531 8.382812 C 10.25 8.179688 10.289062 8.082031 10.273438 7.949219 C 10.253906 7.710938 10.179688 7.542969 10.265625 7.53125 C 10.351562 7.519531 10.398438 7.597656 10.40625 7.839844 C 10.414062 8.078125 10.394531 8.144531 10.269531 8.382812 M 11.082031 8.765625 C 10.992188 8.578125 10.914062 8.527344 10.859375 8.40625 C 10.757812 8.199219 10.734375 8.03125 10.660156 8.058594 C 10.582031 8.089844 10.585938 8.179688 10.699219 8.382812 C 10.808594 8.582031 10.859375 8.625 11.078125 8.765625 Z M 11.359375 7.121094 C 11.132812 7.003906 11.019531 7.003906 10.875 6.921875 C 10.621094 6.789062 10.472656 6.640625 10.421875 6.726562 C 10.367188 6.804688 10.4375 6.886719 10.699219 7.011719 C 10.960938 7.132812 11.042969 7.136719 11.355469 7.121094 Z M 11.4375 7.804688 C 11.28125 7.671875 11.179688 7.648438 11.074219 7.558594 C 10.886719 7.402344 10.796875 7.253906 10.738281 7.316406 C 10.675781 7.378906 10.714844 7.457031 10.910156 7.605469 C 11.105469 7.75 11.171875 7.765625 11.441406 7.804688 Z M 11.4375 7.804688 "/>
</g>
</svg>
