<?xml version="1.0" encoding="UTF-8"?>
<svg xmlns="http://www.w3.org/2000/svg" xmlns:xlink="http://www.w3.org/1999/xlink" width="25px" height="px" viewBox="0 0 25 19" version="1.1">
<g id="surface1">
<rect x="0" y="0" width="25" height="19" style="fill:rgb(0%,15.686275%,40.784314%);fill-opacity:1;stroke:none;"/>
<path style="fill-rule:nonzero;fill:rgb(98.823529%,81.960785%,8.627451%);fill-opacity:1;stroke-width:8;stroke-linecap:butt;stroke-linejoin:miter;stroke:rgb(0%,0%,0%);stroke-opacity:1;stroke-miterlimit:4;" d="M 590 174.572368 L 590 264.572368 C 590 324.572368 560 389.210526 485 424.243421 C 410 389.210526 380 324.572368 380 264.572368 L 380 174.572368 Z M 590 174.572368 " transform="matrix(0.0390625,0,0,0.0395833,0,0)"/>
<path style="fill:none;stroke-width:7;stroke-linecap:butt;stroke-linejoin:miter;stroke:rgb(100%,100%,100%);stroke-opacity:1;stroke-miterlimit:4;" d="M 590 174.572368 L 590 264.572368 C 590 324.572368 560 389.210526 485 424.243421 C 410 389.210526 380 324.572368 380 264.572368 L 380 174.572368 Z M 590 174.572368 " transform="matrix(0.0390625,0,0,0.0395833,0,0)"/>
<path style="fill-rule:nonzero;fill:rgb(98.823529%,67.843139%,33.725491%);fill-opacity:1;stroke-width:0.3;stroke-linecap:round;stroke-linejoin:round;stroke:rgb(0%,0%,0%);stroke-opacity:1;stroke-miterlimit:4;" d="M 447.1 273.651316 C 444.4 278.388158 439.7 279.375 436.1 277.894737 C 432.4 276.414474 429 267.631579 425.2 262.894737 C 421.6 258.157895 420.6 260.230263 418.2 257.467105 C 414.7 254.309211 410.6 251.842105 406.2 250.065789 C 402.9 248.585526 399.5 247.203947 397.2 241.480263 C 398.2 239.210526 400.1 237.434211 402.4 236.447368 C 404.3 235.657895 405.8 232.993421 406 230.625 C 406.3 228.355263 408.3 225.888158 411 224.013158 C 409.7 224.210526 407.1 223.717105 405.9 222.927632 C 404.8 221.940789 402.9 222.138158 401.8 222.927632 C 400.7 223.717105 399.1 224.013158 397.2 223.717105 C 398 223.125 399.4 221.743421 399.5 220.460526 C 399.6 219.276316 401.1 218.585526 404 218.585526 C 406.8 218.585526 408.6 215.427632 410.9 215.427632 C 409.3 215.427632 409.6 212.565789 410.5 212.368421 C 406.5 211.677632 407 208.421053 408.6 208.421053 C 408.5 208.026316 408 207.434211 406.1 206.940789 C 404.4 206.151316 405.2 204.572368 406.6 203.585526 C 405.4 201.118421 406.5 199.243421 408.5 197.565789 C 405.7 197.467105 408.8 193.618421 409.5 191.546053 C 410.3 189.473684 410.6 189.177632 411.5 190.460526 C 412.5 191.644737 414.8 194.210526 417.4 195 C 419.9 195.690789 421.4 197.072368 421.9 199.243421 C 422.4 201.513158 423.4 202.598684 426.1 203.585526 C 429 204.473684 432.9 206.940789 432.4 212.171053 C 434.3 212.269737 436.1 212.960526 437.6 214.144737 " transform="matrix(0.0390625,0,0,0.0395833,0,0)"/>
<path style="fill-rule:nonzero;fill:rgb(100%,63.137257%,63.137257%);fill-opacity:1;stroke-width:0.3;stroke-linecap:round;stroke-linejoin:round;stroke:rgb(0%,0%,0%);stroke-opacity:1;stroke-miterlimit:4;" d="M 454 205.953947 C 454 208.519737 455.1 210.888158 457.1 212.368421 C 459 213.947368 460.6 215.131579 460.2 217.006579 C 459.9 218.980263 460.6 220.164474 462.2 221.546053 C 464 222.730263 465.2 224.210526 464.8 226.677632 C 464.4 229.243421 464.6 230.723684 465.6 232.598684 C 466.6 234.473684 468.4 235.953947 467.6 239.013158 C 466.8 241.973684 467.2 246.019737 468.2 247.993421 C 469.2 249.868421 468.2 251.447368 466.5 254.703947 C 464.7 257.960526 463.7 259.243421 460.1 260.526316 C 456.4 261.611842 456.1 263.881579 456.1 267.730263 C 456.1 271.875 453.6 273.552632 448.6 272.960526 C 443.6 277.105263 440.5 272.171053 439.2 266.052632 C 437.9 260.032895 437.8 253.322368 430.4 247.993421 C 423.1 242.467105 426 233.190789 432.1 229.539474 C 438.2 225.789474 437.5 215.131579 436.7 208.519737 C 436.1 201.907895 440.5 198.059211 443.9 194.506579 C 448.4 196.184211 454 203.092105 454 205.953947 " transform="matrix(0.0390625,0,0,0.0395833,0,0)"/>
<path style="fill-rule:nonzero;fill:rgb(94.509804%,69.803923%,86.274511%);fill-opacity:1;stroke-width:0.3;stroke-linecap:round;stroke-linejoin:round;stroke:rgb(0%,0%,0%);stroke-opacity:1;stroke-miterlimit:4;" d="M 443.4 248.585526 C 442 245.427632 440.5 242.072368 444.1 235.065789 C 447.9 227.960526 445.5 222.631579 444.4 218.980263 C 443.3 215.526316 443 212.171053 444.4 210.690789 C 445.9 209.407895 446.5 208.519737 446.6 206.052632 C 446.7 203.881579 448.6 204.572368 448.9 205.657895 C 449.2 206.842105 449.4 208.717105 447.4 212.072368 C 445.4 215.526316 453 224.111842 449.5 233.190789 C 447.1 239.605263 450.3 247.697368 451.5 253.421053 C 452.7 259.144737 453.5 272.368421 445.2 274.440789 C 450.9 271.677632 445.6 253.914474 443.4 248.585526 " transform="matrix(0.0390625,0,0,0.0395833,0,0)"/>
<path style="fill:none;stroke-width:0.3;stroke-linecap:round;stroke-linejoin:round;stroke:rgb(0%,0%,0%);stroke-opacity:1;stroke-miterlimit:4;" d="M 406.3 247.598684 C 407.6 247.894737 408.3 247.105263 408.7 246.217105 C 409.1 245.328947 409.4 244.934211 410.7 244.736842 C 411.9 244.736842 413.9 244.440789 414.4 243.355263 C 414.9 242.368421 416.3 243.157895 417.6 240.690789 C 418.9 238.125 419.7 235.065789 423.1 233.980263 M 432.4 212.171053 C 431.1 212.171053 427.5 212.368421 426 215.625 M 415.6 196.677632 C 418.6 197.565789 417.4 199.638158 418.9 200.723684 C 421.6 202.894737 419.1 205.065789 421.4 205.657895 C 423.7 206.348684 423.5 206.743421 423 209.210526 C 422.2 212.072368 425 212.171053 424 214.144737 M 411 224.013158 C 412.8 222.434211 417.1 221.052632 418.1 219.375 M 410.9 215.427632 C 413.5 215.230263 417 216.217105 417.5 215.230263 M 410.5 212.467105 C 411.8 212.467105 414.4 211.578947 414.9 209.901316 M 408.6 208.519737 C 410.1 208.519737 412 208.421053 413.9 207.039474 M 406.6 203.585526 C 407.7 202.697368 409.7 203.684211 411.6 202.5 M 408.5 197.565789 C 409.4 197.565789 411.3 197.368421 411.3 198.453947 " transform="matrix(0.0390625,0,0,0.0395833,0,0)"/>
<path style="fill-rule:nonzero;fill:rgb(61.960787%,32.941177%,3.921569%);fill-opacity:1;stroke-width:2.2;stroke-linecap:round;stroke-linejoin:round;stroke:rgb(0%,0%,0%);stroke-opacity:1;stroke-miterlimit:4;" d="M -55.2 -233.115838 C -55.2 -233.115838 -124.8 -292.326365 -183.2 -331.800049 C -240.8 -372.063207 -311.2 -421.010575 -311.2 -431.273733 C -300 -439.16847 -240.8 -401.273733 -160 -352.326365 C -78.4 -301.800049 -32 -252.85268 -32 -252.85268 Z M -60 -192.85268 C -60 -192.85268 -128 -233.905312 -195.2 -263.115838 C -264.8 -292.326365 -369.6 -292.326365 -380.8 -301.800049 C -380.8 -312.063207 -259.2 -318.378996 -172 -282.85268 C -83.2 -241.800049 -36.8 -213.378996 -36.8 -213.378996 Z M -60.8 -124.957944 C -60.8 -124.957944 -135.2 -158.905312 -207.2 -174.694786 C -276.8 -191.273733 -376.8 -184.957944 -388.8 -193.642154 C -388.8 -203.905312 -264.8 -223.642154 -172 -193.642154 C -78.4 -165.221101 -38.4 -144.694786 -38.4 -144.694786 Z M -64.8 -56.273733 C -64.8 -56.273733 -120.8 -94.16847 -195.2 -102.063207 C -264.8 -109.16847 -358.4 -56.273733 -369.6 -65.747417 C -369.6 -76.010575 -288.8 -135.221101 -188 -124.957944 C -88.8 -114.694786 -41.6 -76.010575 -41.6 -76.010575 Z M -41.6 -274.16847 C -41.6 -274.16847 -112.8 -338.905312 -112.8 -383.115838 C -112.8 -421.800049 -70.4 -481.800049 -51.2 -481.800049 C -60.8 -462.063207 -94.4 -421.800049 -94.4 -383.115838 C -94.4 -342.85268 -19.2 -293.905312 -19.2 -293.905312 Z M -41.6 -274.16847 " transform="matrix(0.00488281,0,0,0.00494792,20.898438,9.88)"/>
<path style="fill-rule:nonzero;fill:rgb(61.960787%,32.941177%,3.921569%);fill-opacity:1;stroke-width:2.2;stroke-linecap:round;stroke-linejoin:round;stroke:rgb(0%,0%,0%);stroke-opacity:1;stroke-miterlimit:4;" d="M -41.6 -274.16847 C -41.6 -274.16847 -28 -338.905312 -28 -383.115838 C -28 -442.326365 -70.4 -496.010575 -65.6 -511.010575 C -51.2 -496.010575 -8.8 -451.800049 -8.8 -383.115838 C -8.8 -323.115838 -19.2 -293.905312 -19.2 -293.905312 Z M -41.6 -274.16847 " transform="matrix(0.00488281,0,0,0.00494792,20.898438,9.88)"/>
<path style="fill-rule:nonzero;fill:rgb(61.960787%,32.941177%,3.921569%);fill-opacity:1;stroke-width:12;stroke-linecap:round;stroke-linejoin:round;stroke:rgb(98.823529%,81.960785%,8.627451%);stroke-opacity:1;stroke-miterlimit:4;" d="M -24.8 -294.694786 C -24.8 -313.642154 -32 -331.010575 -44 -343.642154 C -60 -363.378996 -84 -368.905312 -108.8 -364.957944 C -139.2 -360.221101 -163.2 -342.063207 -177.6 -313.642154 C -198.4 -277.326365 -200 -237.063207 -200.8 -198.378996 C -200.8 -63.378996 -196 -8.115838 -192 125.305214 C -191.2 163.989425 -184 243.726267 -201.6 306.884162 C -208.8 333.726267 -216.8 358.989425 -228.8 385.042056 C -220.8 351.884162 -216.8 335.305214 -212.8 310.042056 C -201.6 245.305214 -204.8 183.726267 -207.2 123.726267 C -211.2 1.357846 -217.6 -61.800049 -222.4 -211.010575 C -223.2 -256.010575 -219.2 -289.957944 -198.4 -326.273733 C -176 -363.378996 -137.6 -390.221101 -95.2 -390.221101 C -76.8 -390.221101 -62.4 -387.063207 -47.2 -378.378996 C -16.8 -361.800049 -3.2 -328.642154 -3.2 -296.273733 Z M -24.8 -294.694786 " transform="matrix(0.00488281,0,0,0.00494792,20.898438,9.88)"/>
<path style=" stroke:none;fill-rule:nonzero;fill:rgb(61.960787%,32.941177%,3.921569%);fill-opacity:1;" d="M 20.777344 8.421875 C 20.777344 8.328125 20.742188 8.242188 20.683594 8.179688 C 20.605469 8.082031 20.488281 8.054688 20.367188 8.074219 C 20.21875 8.097656 20.101562 8.1875 20.03125 8.328125 C 19.929688 8.507812 19.921875 8.707031 19.917969 8.898438 C 19.917969 9.566406 19.941406 9.839844 19.960938 10.5 C 19.964844 10.691406 20 11.085938 19.914062 11.398438 C 19.878906 11.53125 19.839844 11.65625 19.78125 11.785156 C 19.820312 11.621094 19.839844 11.539062 19.859375 11.414062 C 19.914062 11.09375 19.898438 10.789062 19.886719 10.492188 C 19.867188 9.886719 19.835938 9.574219 19.8125 8.835938 C 19.808594 8.613281 19.828125 8.445312 19.929688 8.265625 C 20.039062 8.082031 20.226562 7.949219 20.433594 7.949219 C 20.523438 7.949219 20.59375 7.964844 20.667969 8.007812 C 20.816406 8.089844 20.882812 8.253906 20.882812 8.414062 Z M 20.777344 8.421875 "/>
<path style="fill-rule:nonzero;fill:rgb(61.960787%,32.941177%,3.921569%);fill-opacity:1;stroke-width:2.2;stroke-linecap:round;stroke-linejoin:round;stroke:rgb(0%,0%,0%);stroke-opacity:1;stroke-miterlimit:4;" d="M -19.2 186.884162 C -19.2 186.884162 -47.2 236.621004 -68 272.936793 C -88.8 309.252583 -105.6 317.14732 -121.6 306.094688 C -136.8 295.042056 -124 265.83153 -112 251.621004 C -100 238.199951 -32.8 172.673635 -32.8 172.673635 Z M -19.2 186.884162 " transform="matrix(0.00488281,0,0,0.00494792,20.898438,9.88)"/>
<path style="fill-rule:nonzero;fill:rgb(61.960787%,32.941177%,3.921569%);fill-opacity:1;stroke-width:2.2;stroke-linecap:round;stroke-linejoin:round;stroke:rgb(0%,0%,0%);stroke-opacity:1;stroke-miterlimit:4;" d="M -12 190.83153 C -12 190.83153 -23.2 247.673635 -32 288.726267 C -40 329.778899 -54.4 343.989425 -71.2 339.252583 C -88.8 335.305214 -86.4 302.14732 -79.2 284.778899 C -72 268.199951 -30.4 182.14732 -30.4 182.14732 Z M -12 190.83153 " transform="matrix(0.00488281,0,0,0.00494792,20.898438,9.88)"/>
<path style="fill-rule:nonzero;fill:rgb(61.960787%,32.941177%,3.921569%);fill-opacity:1;stroke-width:2.2;stroke-linecap:round;stroke-linejoin:round;stroke:rgb(0%,0%,0%);stroke-opacity:1;stroke-miterlimit:4;" d="M 0 193.199951 L 0 292.673635 C 0 335.305214 -9.6 351.884162 -28.8 351.094688 C -47.2 350.305214 -51.2 317.936793 -47.2 298.989425 C -44 280.83153 -19.2 187.673635 -19.2 187.673635 Z M 0 193.199951 " transform="matrix(0.00488281,0,0,0.00494792,20.898438,9.88)"/>
<path style="fill-rule:nonzero;fill:rgb(61.960787%,32.941177%,3.921569%);fill-opacity:1;stroke-width:2.2;stroke-linecap:round;stroke-linejoin:round;stroke:rgb(0%,0%,0%);stroke-opacity:1;stroke-miterlimit:4;" d="M -55.2 -233.115838 C -55.2 -233.115838 -124.8 -292.326365 -183.2 -331.800049 C -240.8 -372.063207 -311.2 -421.010575 -311.2 -431.273733 C -300 -439.16847 -240.8 -401.273733 -160 -352.326365 C -78.4 -301.800049 -32 -252.85268 -32 -252.85268 Z M -60 -192.85268 C -60 -192.85268 -128 -233.905312 -195.2 -263.115838 C -264.8 -292.326365 -369.6 -292.326365 -380.8 -301.800049 C -380.8 -312.063207 -259.2 -318.378996 -172 -282.85268 C -83.2 -241.800049 -36.8 -213.378996 -36.8 -213.378996 Z M -60.8 -124.957944 C -60.8 -124.957944 -135.2 -158.905312 -207.2 -174.694786 C -276.8 -191.273733 -376.8 -184.957944 -388.8 -193.642154 C -388.8 -203.905312 -264.8 -223.642154 -172 -193.642154 C -78.4 -165.221101 -38.4 -144.694786 -38.4 -144.694786 Z M -64.8 -56.273733 C -64.8 -56.273733 -120.8 -94.16847 -195.2 -102.063207 C -264.8 -109.16847 -358.4 -56.273733 -369.6 -65.747417 C -369.6 -76.010575 -288.8 -135.221101 -188 -124.957944 C -88.8 -114.694786 -41.6 -76.010575 -41.6 -76.010575 Z M -41.6 -274.16847 C -41.6 -274.16847 -112.8 -338.905312 -112.8 -383.115838 C -112.8 -421.800049 -70.4 -481.800049 -51.2 -481.800049 C -60.8 -462.063207 -94.4 -421.800049 -94.4 -383.115838 C -94.4 -342.85268 -19.2 -293.905312 -19.2 -293.905312 Z M -41.6 -274.16847 " transform="matrix(-0.00488281,0,0,0.00494792,20.898438,9.88)"/>
<path style="fill-rule:nonzero;fill:rgb(61.960787%,32.941177%,3.921569%);fill-opacity:1;stroke-width:2.2;stroke-linecap:round;stroke-linejoin:round;stroke:rgb(0%,0%,0%);stroke-opacity:1;stroke-miterlimit:4;" d="M -41.6 -274.16847 C -41.6 -274.16847 -28 -338.905312 -28 -383.115838 C -28 -442.326365 -70.4 -496.010575 -65.6 -511.010575 C -51.2 -496.010575 -8.8 -451.800049 -8.8 -383.115838 C -8.8 -323.115838 -19.2 -293.905312 -19.2 -293.905312 Z M -41.6 -274.16847 " transform="matrix(-0.00488281,0,0,0.00494792,20.898438,9.88)"/>
<path style="fill-rule:nonzero;fill:rgb(61.960787%,32.941177%,3.921569%);fill-opacity:1;stroke-width:12;stroke-linecap:round;stroke-linejoin:round;stroke:rgb(98.823529%,81.960785%,8.627451%);stroke-opacity:1;stroke-miterlimit:4;" d="M -24.8 -294.694786 C -24.8 -313.642154 -32 -331.010575 -44 -343.642154 C -60 -363.378996 -84 -368.905312 -108.8 -364.957944 C -139.2 -360.221101 -163.2 -342.063207 -177.6 -313.642154 C -198.4 -277.326365 -200 -237.063207 -200.8 -198.378996 C -200.8 -63.378996 -196 -8.115838 -192 125.305214 C -191.2 163.989425 -184 243.726267 -201.6 306.884162 C -208.8 333.726267 -216.8 358.989425 -228.8 385.042056 C -220.8 351.884162 -216.8 335.305214 -212.8 310.042056 C -201.6 245.305214 -204.8 183.726267 -207.2 123.726267 C -211.2 1.357846 -217.6 -61.800049 -222.4 -211.010575 C -223.2 -256.010575 -219.2 -289.957944 -198.4 -326.273733 C -176 -363.378996 -137.6 -390.221101 -95.2 -390.221101 C -76.8 -390.221101 -62.4 -387.063207 -47.2 -378.378996 C -16.8 -361.800049 -3.2 -328.642154 -3.2 -296.273733 Z M -24.8 -294.694786 " transform="matrix(-0.00488281,0,0,0.00494792,20.898438,9.88)"/>
<path style=" stroke:none;fill-rule:nonzero;fill:rgb(61.960787%,32.941177%,3.921569%);fill-opacity:1;" d="M 21.019531 8.421875 C 21.019531 8.328125 21.054688 8.242188 21.113281 8.179688 C 21.191406 8.082031 21.308594 8.054688 21.429688 8.074219 C 21.578125 8.097656 21.695312 8.1875 21.765625 8.328125 C 21.867188 8.507812 21.875 8.707031 21.878906 8.898438 C 21.878906 9.566406 21.855469 9.839844 21.835938 10.5 C 21.832031 10.691406 21.796875 11.085938 21.882812 11.398438 C 21.917969 11.53125 21.957031 11.65625 22.015625 11.785156 C 21.976562 11.621094 21.957031 11.539062 21.9375 11.414062 C 21.882812 11.09375 21.898438 10.789062 21.910156 10.492188 C 21.929688 9.886719 21.960938 9.574219 21.984375 8.835938 C 21.988281 8.613281 21.96875 8.445312 21.867188 8.265625 C 21.757812 8.082031 21.570312 7.949219 21.363281 7.949219 C 21.273438 7.949219 21.203125 7.964844 21.128906 8.007812 C 20.980469 8.089844 20.914062 8.253906 20.914062 8.414062 Z M 21.019531 8.421875 "/>
<path style="fill-rule:nonzero;fill:rgb(61.960787%,32.941177%,3.921569%);fill-opacity:1;stroke-width:2.2;stroke-linecap:round;stroke-linejoin:round;stroke:rgb(0%,0%,0%);stroke-opacity:1;stroke-miterlimit:4;" d="M -19.2 186.884162 C -19.2 186.884162 -47.2 236.621004 -68 272.936793 C -88.8 309.252583 -105.6 317.14732 -121.6 306.094688 C -136.8 295.042056 -124 265.83153 -112 251.621004 C -100 238.199951 -32.8 172.673635 -32.8 172.673635 Z M -19.2 186.884162 " transform="matrix(-0.00488281,0,0,0.00494792,20.898438,9.88)"/>
<path style="fill-rule:nonzero;fill:rgb(61.960787%,32.941177%,3.921569%);fill-opacity:1;stroke-width:2.2;stroke-linecap:round;stroke-linejoin:round;stroke:rgb(0%,0%,0%);stroke-opacity:1;stroke-miterlimit:4;" d="M -12 190.83153 C -12 190.83153 -23.2 247.673635 -32 288.726267 C -40 329.778899 -54.4 343.989425 -71.2 339.252583 C -88.8 335.305214 -86.4 302.14732 -79.2 284.778899 C -72 268.199951 -30.4 182.14732 -30.4 182.14732 Z M -12 190.83153 " transform="matrix(-0.00488281,0,0,0.00494792,20.898438,9.88)"/>
<path style="fill-rule:nonzero;fill:rgb(61.960787%,32.941177%,3.921569%);fill-opacity:1;stroke-width:2.2;stroke-linecap:round;stroke-linejoin:round;stroke:rgb(0%,0%,0%);stroke-opacity:1;stroke-miterlimit:4;" d="M 0 193.199951 L 0 292.673635 C 0 335.305214 -9.6 351.884162 -28.8 351.094688 C -47.2 350.305214 -51.2 317.936793 -47.2 298.989425 C -44 280.83153 -19.2 187.673635 -19.2 187.673635 Z M 0 193.199951 " transform="matrix(-0.00488281,0,0,0.00494792,20.898438,9.88)"/>
<path style="fill-rule:nonzero;fill:rgb(61.960787%,32.941177%,3.921569%);fill-opacity:1;stroke-width:2.2;stroke-linecap:round;stroke-linejoin:round;stroke:rgb(0%,0%,0%);stroke-opacity:1;stroke-miterlimit:4;" d="M 0 191.621004 C -52.8 190.83153 -57.6 171.884162 -57.6 171.884162 C -57.6 171.884162 -64.8 148.199951 -65.6 133.199951 C -67.2 130.83153 -80.8 100.83153 -76.8 88.199951 C -81.6 76.357846 -94.4 47.14732 -83.2 41.621004 C -88 28.199951 -96 11.621004 -96.8 -3.378996 C -100.8 -13.642154 -111.2 -38.115838 -103.2 -46.010575 C -103.2 -46.010575 -121.6 -86.273733 -112.8 -95.747417 C -112.8 -95.747417 -121.6 -135.221101 -112.8 -144.694786 C -112.8 -144.694786 -112.8 -184.957944 -103.2 -195.221101 C -103.2 -195.221101 -103.2 -233.905312 -94.4 -244.16847 C -94.4 -241.800049 -65.6 -298.642154 0 -298.642154 L -0.8 -214.16847 L 0 -214.16847 Z M 0 191.621004 " transform="matrix(0.00488281,0,0,0.00494792,20.898438,9.88)"/>
<path style="fill:none;stroke-width:2.2;stroke-linecap:round;stroke-linejoin:round;stroke:rgb(0%,0%,0%);stroke-opacity:1;stroke-miterlimit:4;" d="M 0 -26.273733 C -84.8 -27.063207 -103.2 -46.010575 -103.2 -46.010575 M 0 -76.010575 C -84.8 -76.010575 -112.8 -95.747417 -112.8 -95.747417 M 0 -124.957944 C -84.8 -125.747417 -112.8 -144.694786 -112.8 -144.694786 M 0 -174.694786 C -84.8 -176.273733 -103.2 -195.221101 -103.2 -195.221101 M -0.8 -214.16847 C 0 -214.16847 -64.8 -214.16847 -75.2 -223.642154 L -94.4 -243.378996 M 0 152.14732 C -24.8 152.14732 -52.8 148.199951 -65.6 133.199951 M 0 111.884162 C -47.2 111.884162 -75.2 92.936793 -75.2 92.936793 C -75.2 92.936793 -76 91.357846 -76.8 88.199951 M 0 62.936793 C -62.4 62.14732 -79.2 48.726267 -83.2 41.621004 M 0 22.673635 C -84.8 22.673635 -94.4 2.936793 -94.4 2.936793 L -96.8 -3.378996 " transform="matrix(0.00488281,0,0,0.00494792,20.898438,9.88)"/>
<path style="fill-rule:nonzero;fill:rgb(61.960787%,32.941177%,3.921569%);fill-opacity:1;stroke-width:2.2;stroke-linecap:round;stroke-linejoin:round;stroke:rgb(0%,0%,0%);stroke-opacity:1;stroke-miterlimit:4;" d="M 0 191.621004 C -52.8 190.83153 -57.6 171.884162 -57.6 171.884162 C -57.6 171.884162 -64.8 148.199951 -65.6 133.199951 C -67.2 130.83153 -80.8 100.83153 -76.8 88.199951 C -81.6 76.357846 -94.4 47.14732 -83.2 41.621004 C -88 28.199951 -96 11.621004 -96.8 -3.378996 C -100.8 -13.642154 -111.2 -38.115838 -103.2 -46.010575 C -103.2 -46.010575 -121.6 -86.273733 -112.8 -95.747417 C -112.8 -95.747417 -121.6 -135.221101 -112.8 -144.694786 C -112.8 -144.694786 -112.8 -184.957944 -103.2 -195.221101 C -103.2 -195.221101 -103.2 -233.905312 -94.4 -244.16847 C -94.4 -241.800049 -65.6 -298.642154 0 -298.642154 L -0.8 -214.16847 L 0 -214.16847 Z M 0 191.621004 " transform="matrix(-0.00488281,0,0,0.00494792,20.898438,9.88)"/>
<path style="fill:none;stroke-width:2.2;stroke-linecap:round;stroke-linejoin:round;stroke:rgb(0%,0%,0%);stroke-opacity:1;stroke-miterlimit:4;" d="M 0 -26.273733 C -84.8 -27.063207 -103.2 -46.010575 -103.2 -46.010575 M 0 -76.010575 C -84.8 -76.010575 -112.8 -95.747417 -112.8 -95.747417 M 0 -124.957944 C -84.8 -125.747417 -112.8 -144.694786 -112.8 -144.694786 M 0 -174.694786 C -84.8 -176.273733 -103.2 -195.221101 -103.2 -195.221101 M -0.8 -214.16847 C 0 -214.16847 -64.8 -214.16847 -75.2 -223.642154 L -94.4 -243.378996 M 0 152.14732 C -24.8 152.14732 -52.8 148.199951 -65.6 133.199951 M 0 111.884162 C -47.2 111.884162 -75.2 92.936793 -75.2 92.936793 C -75.2 92.936793 -76 91.357846 -76.8 88.199951 M 0 62.936793 C -62.4 62.14732 -79.2 48.726267 -83.2 41.621004 M 0 22.673635 C -84.8 22.673635 -94.4 2.936793 -94.4 2.936793 L -96.8 -3.378996 " transform="matrix(-0.00488281,0,0,0.00494792,20.898438,9.88)"/>
<path style="fill-rule:nonzero;fill:rgb(0%,61.960787%,28.627452%);fill-opacity:1;stroke-width:2.2;stroke-linecap:round;stroke-linejoin:round;stroke:rgb(0%,0%,0%);stroke-opacity:1;stroke-miterlimit:4;" d="M 0 712.14732 C -43.2 751.621004 -126.4 726.357846 -152 708.199951 C -179.2 716.884162 -251.2 689.252583 -270.4 657.673635 C -321.6 664.778899 -340 591.357846 -331.2 571.621004 C -316.8 543.989425 -342.4 525.83153 -324 506.884162 C -299.2 483.199951 -337.6 460.305214 -313.6 443.726267 C -289.6 427.14732 -320 398.726267 -296 381.357846 C -271.2 361.621004 -308.8 336.357846 -283.2 322.936793 C -256.8 310.305214 -286.4 276.357846 -264 262.936793 C -241.6 250.305214 -276.8 217.14732 -247.2 202.14732 C -217.6 187.14732 -244 161.094688 -220.8 150.042056 C -196 136.621004 -219.2 109.778899 -196 101.094688 C -169.6 90.042056 -188.8 60.83153 -167.2 52.936793 C -148 45.83153 -160 27.673635 -148 11.884162 L 0 11.884162 " transform="matrix(0.00488281,0,0,0.00494792,18.945312,11.859167)"/>
<path style="fill:none;stroke-width:2.2;stroke-linecap:round;stroke-linejoin:round;stroke:rgb(0%,0%,0%);stroke-opacity:1;stroke-miterlimit:4;" d="M -99.2 18.199951 C -119.2 37.936793 -95.2 52.936793 -115.2 76.621004 C -136 101.884162 -116.8 115.305214 -134.4 136.621004 C -151.2 158.726267 -126.4 169.778899 -144.8 195.042056 C -164 218.726267 -140.8 233.726267 -161.6 254.252583 C -182.4 274.778899 -158.4 292.936793 -179.2 315.042056 C -199.2 337.936793 -175.2 352.936793 -195.2 372.673635 C -216 393.989425 -192 416.094688 -212 435.83153 C -232 457.14732 -208 483.199951 -231.2 506.884162 C -252.8 531.357846 -227.2 550.305214 -244.8 567.673635 C -264 586.621004 -247.2 606.357846 -260 618.989425 C -272.8 631.621004 -275.2 649.778899 -270.4 657.673635 M -60 25.305214 C -78.4 49.778899 -49.6 60.83153 -67.2 81.357846 C -84 101.884162 -60 108.989425 -72.8 132.673635 C -86.4 157.14732 -63.2 162.673635 -80 187.14732 C -96.8 210.83153 -71.2 229.778899 -88.8 254.252583 C -108 277.936793 -80 291.357846 -96.8 315.042056 C -112.8 340.305214 -88.8 352.936793 -104 371.094688 C -119.2 390.042056 -92.8 408.199951 -112 431.094688 C -129.6 453.199951 -104 469.778899 -119.2 490.305214 C -134.4 510.83153 -112.8 532.936793 -126.4 550.305214 C -139.2 566.094688 -116.8 591.357846 -136 612.673635 C -153.6 634.778899 -132 649.778899 -143.2 664.778899 C -153.6 679.778899 -163.2 701.884162 -152 708.199951 " transform="matrix(0.00488281,0,0,0.00494792,18.945312,11.859167)"/>
<path style="fill-rule:nonzero;fill:rgb(0%,61.960787%,28.627452%);fill-opacity:1;stroke-width:2.2;stroke-linecap:round;stroke-linejoin:round;stroke:rgb(0%,0%,0%);stroke-opacity:1;stroke-miterlimit:4;" d="M 0 712.14732 C -43.2 751.621004 -126.4 726.357846 -152 708.199951 C -179.2 716.884162 -251.2 689.252583 -270.4 657.673635 C -321.6 664.778899 -340 591.357846 -331.2 571.621004 C -316.8 543.989425 -342.4 525.83153 -324 506.884162 C -299.2 483.199951 -337.6 460.305214 -313.6 443.726267 C -289.6 427.14732 -320 398.726267 -296 381.357846 C -271.2 361.621004 -308.8 336.357846 -283.2 322.936793 C -256.8 310.305214 -286.4 276.357846 -264 262.936793 C -241.6 250.305214 -276.8 217.14732 -247.2 202.14732 C -217.6 187.14732 -244 161.094688 -220.8 150.042056 C -196 136.621004 -219.2 109.778899 -196 101.094688 C -169.6 90.042056 -188.8 60.83153 -167.2 52.936793 C -148 45.83153 -160 27.673635 -148 11.884162 L 0 11.884162 " transform="matrix(-0.00488281,0,0,0.00494792,18.945312,11.859167)"/>
<path style="fill:none;stroke-width:2.2;stroke-linecap:round;stroke-linejoin:round;stroke:rgb(0%,0%,0%);stroke-opacity:1;stroke-miterlimit:4;" d="M -99.2 18.199951 C -119.2 37.936793 -95.2 52.936793 -115.2 76.621004 C -136 101.884162 -116.8 115.305214 -134.4 136.621004 C -151.2 158.726267 -126.4 169.778899 -144.8 195.042056 C -164 218.726267 -140.8 233.726267 -161.6 254.252583 C -182.4 274.778899 -158.4 292.936793 -179.2 315.042056 C -199.2 337.936793 -175.2 352.936793 -195.2 372.673635 C -216 393.989425 -192 416.094688 -212 435.83153 C -232 457.14732 -208 483.199951 -231.2 506.884162 C -252.8 531.357846 -227.2 550.305214 -244.8 567.673635 C -264 586.621004 -247.2 606.357846 -260 618.989425 C -272.8 631.621004 -275.2 649.778899 -270.4 657.673635 M -60 25.305214 C -78.4 49.778899 -49.6 60.83153 -67.2 81.357846 C -84 101.884162 -60 108.989425 -72.8 132.673635 C -86.4 157.14732 -63.2 162.673635 -80 187.14732 C -96.8 210.83153 -71.2 229.778899 -88.8 254.252583 C -108 277.936793 -80 291.357846 -96.8 315.042056 C -112.8 340.305214 -88.8 352.936793 -104 371.094688 C -119.2 390.042056 -92.8 408.199951 -112 431.094688 C -129.6 453.199951 -104 469.778899 -119.2 490.305214 C -134.4 510.83153 -112.8 532.936793 -126.4 550.305214 C -139.2 566.094688 -116.8 591.357846 -136 612.673635 C -153.6 634.778899 -132 649.778899 -143.2 664.778899 C -153.6 679.778899 -163.2 701.884162 -152 708.199951 " transform="matrix(-0.00488281,0,0,0.00494792,18.945312,11.859167)"/>
<path style="fill:none;stroke-width:2.2;stroke-linecap:round;stroke-linejoin:round;stroke:rgb(0%,61.960787%,28.627452%);stroke-opacity:1;stroke-miterlimit:4;" d="M 0 712.14732 L 0 11.884162 " transform="matrix(0.00488281,0,0,0.00494792,18.945312,11.859167)"/>
<path style="fill:none;stroke-width:2.2;stroke-linecap:round;stroke-linejoin:round;stroke:rgb(0%,0%,0%);stroke-opacity:1;stroke-miterlimit:4;" d="M 0 48.199951 C -8.8 86.884162 12.8 120.83153 0 153.989425 C -12.8 186.357846 8.8 198.989425 1.6 225.042056 C -6.4 251.094688 11.2 270.042056 0 297.673635 C -11.2 326.094688 15.2 348.199951 0 385.305214 C -15.2 420.83153 9.6 430.305214 0 466.621004 C -11.2 509.252583 19.2 531.357846 0 561.357846 C -19.2 591.357846 16.8 597.673635 1.6 631.621004 C -12.8 664.778899 11.2 678.199951 0 712.14732 " transform="matrix(0.00488281,0,0,0.00494792,18.945312,11.859167)"/>
<path style="fill-rule:nonzero;fill:rgb(98.823529%,81.960785%,8.627451%);fill-opacity:1;stroke-width:2.2;stroke-linecap:round;stroke-linejoin:round;stroke:rgb(0%,0%,0%);stroke-opacity:1;stroke-miterlimit:4;" d="M 15.2 173.726267 C 9.6 184.778899 30.4 210.83153 19.2 231.357846 C 7.2 250.305214 24.8 280.305214 12.8 303.989425 C 0.8 327.673635 32 357.673635 20 386.094688 C 7.2 413.726267 25.6 449.252583 20 475.305214 C 15.2 501.357846 32.8 551.094688 20 569.252583 C 7.2 588.199951 32.8 592.936793 17.6 638.726267 C 3.2 685.305214 -7.2 645.83153 1.6 631.621004 C 20.8 600.83153 -19.2 591.357846 0 561.357846 C 19.2 531.357846 -11.2 509.252583 0 466.621004 C 9.6 430.305214 -15.2 420.83153 0 385.305214 C 15.2 348.199951 -11.2 326.094688 0 297.673635 C 11.2 270.042056 -6.4 251.094688 1.6 225.042056 C 8.8 198.989425 -12.8 186.357846 0 153.989425 C 9.6 121.621004 20 162.673635 15.2 173.726267 M -68.8 206.094688 C -76 217.936793 -56.8 240.83153 -73.6 263.726267 C -86.4 280.305214 -65.6 299.252583 -83.2 322.14732 C -94.4 337.936793 -72 357.673635 -87.2 381.357846 C -96.8 393.989425 -80 419.252583 -92 438.199951 C -104 457.936793 -86.4 473.726267 -107.2 499.778899 C -119.2 513.989425 -97.6 548.726267 -111.2 559.778899 C -124 570.83153 -112 614.252583 -120.8 619.778899 C -128.8 626.884162 -120.8 657.673635 -143.2 664.778899 C -132 649.778899 -153.6 634.778899 -136 612.673635 C -116.8 591.357846 -139.2 566.094688 -126.4 550.305214 C -112.8 532.936793 -134.4 510.83153 -119.2 490.305214 C -104 469.778899 -129.6 453.199951 -112 431.094688 C -92.8 408.199951 -119.2 390.042056 -104 371.094688 C -88.8 352.936793 -112.8 340.305214 -96.8 315.042056 C -80 291.357846 -108 277.936793 -88.8 254.252583 C -71.2 229.778899 -96.8 210.83153 -80 187.14732 C -63.2 162.673635 -86.4 157.14732 -72.8 132.673635 C -48.8 142.14732 -60.8 194.252583 -68.8 206.094688 M -119.2 141.357846 C -128.8 157.14732 -115.2 176.094688 -129.6 195.83153 C -144.8 217.14732 -129.6 243.199951 -144.8 259.778899 C -160 276.357846 -140.8 307.936793 -160 321.357846 C -179.2 333.989425 -167.2 372.673635 -182.4 386.094688 C -196.8 398.726267 -182.4 435.83153 -199.2 454.778899 C -216 473.726267 -208 513.199951 -217.6 521.884162 C -227.2 531.357846 -204.8 550.305214 -220.8 562.936793 C -238.4 576.357846 -238.4 601.621004 -260 618.989425 C -247.2 606.357846 -264 586.621004 -244.8 567.673635 C -227.2 550.305214 -252.8 531.357846 -231.2 506.884162 C -208 483.199951 -232 457.14732 -212 435.83153 C -192 416.094688 -216 393.989425 -195.2 372.673635 C -175.2 352.936793 -199.2 337.936793 -179.2 315.042056 C -158.4 292.936793 -182.4 274.778899 -161.6 254.252583 C -140.8 233.726267 -164 218.726267 -144.8 195.042056 C -126.4 169.778899 -151.2 158.726267 -134.4 136.621004 C -126.4 127.14732 -126.4 117.673635 -126.4 109.778899 C -113.6 78.989425 -113.6 132.673635 -119.2 141.357846 " transform="matrix(0.00488281,0,0,0.00494792,18.945312,11.859167)"/>
<path style="fill-rule:nonzero;fill:rgb(80.784315%,6.666667%,14.901961%);fill-opacity:1;stroke-width:2.2;stroke-linecap:round;stroke-linejoin:round;stroke:rgb(0%,0%,0%);stroke-opacity:1;stroke-miterlimit:4;" d="M -139.2 34.778899 C -139.2 -175.221101 -110.4 -247.85268 0 -247.85268 C 110.4 -247.85268 139.2 -175.221101 139.2 34.778899 Z M -139.2 34.778899 " transform="matrix(0.00488281,0,0,0.00494792,18.945312,11.859167)"/>
<path style="fill-rule:nonzero;fill:rgb(0%,0%,0.392157%);fill-opacity:1;stroke-width:2.2;stroke-linecap:round;stroke-linejoin:round;stroke:rgb(0%,0%,0%);stroke-opacity:1;stroke-miterlimit:4;" d="M -139.2 34.778899 C -139.2 -175.221101 -110.4 -247.85268 0 -247.85268 C -49.6 -247.85268 -80.8 -209.16847 -88.8 -183.115838 C -97.6 -157.063207 -92.8 -158.642154 -81.6 -168.905312 C -71.2 -179.16847 -76 -157.063207 -86.4 -145.221101 C -95.2 -133.378996 -104 -97.85268 -91.2 -108.905312 C -78.4 -120.747417 -68 -108.115838 -81.6 -88.378996 C -96 -68.642154 -108 -22.85268 -94.4 -38.642154 C -80 -55.221101 -76.8 -29.16847 -86.4 -15.747417 C -94.4 -3.115838 -92.8 8.726267 -86.4 3.199951 C -78.4 -3.115838 -79.2 23.726267 -86.4 34.778899 Z M 52 30.83153 C 52 0.0420564 52.8 -73.378996 36 -97.063207 C 24 -116.010575 24 -135.747417 38.4 -113.642154 C 52 -92.326365 59.2 -103.378996 48.8 -124.694786 C 36.8 -153.115838 20.8 -183.905312 24.8 -190.221101 C 30.4 -197.326365 32.8 -194.16847 43.2 -179.16847 C 52.8 -164.16847 55.2 -186.273733 44 -201.273733 C 32.8 -214.694786 33.6 -217.85268 56.8 -208.378996 C 97.6 -191.010575 118.4 -142.063207 118.4 22.936793 Z M 52 30.83153 " transform="matrix(0.00488281,0,0,0.00494792,18.945312,11.859167)"/>
<path style="fill-rule:nonzero;fill:rgb(80.784315%,6.666667%,14.901961%);fill-opacity:1;stroke-width:2.2;stroke-linecap:round;stroke-linejoin:round;stroke:rgb(0%,0%,0%);stroke-opacity:1;stroke-miterlimit:4;" d="M 0 64.778899 C -44 64.778899 -92 57.673635 -124 45.042056 C -161.6 30.042056 -164 16.621004 -151.2 0.83153 C -140.8 -11.010575 -120.8 -3.905312 -100.8 4.778899 C -81.6 12.673635 -28 18.989425 0 18.989425 C 28 18.989425 81.6 12.673635 100.8 3.989425 C 120.8 -3.905312 140.8 -11.010575 151.2 0.83153 C 164 16.621004 161.6 30.042056 124 45.042056 C 92 57.673635 44 64.778899 0 64.778899 " transform="matrix(0.00488281,0,0,0.00494792,18.945312,11.859167)"/>
<path style=" stroke:none;fill-rule:nonzero;fill:rgb(0.392157%,12.941177%,41.176471%);fill-opacity:1;" d="M 0 0 L 12.5 0 L 12.5 9.5 L 0 9.5 Z M 0 0 "/>
<path style=" stroke:none;fill-rule:nonzero;fill:rgb(100%,100%,100%);fill-opacity:1;" d="M 1.464844 0 L 6.230469 3.582031 L 10.976562 0 L 12.5 0 L 12.5 1.226562 L 7.8125 4.769531 L 12.5 8.292969 L 12.5 9.5 L 10.9375 9.5 L 6.25 5.957031 L 1.582031 9.5 L 0 9.5 L 0 8.3125 L 4.667969 4.789062 L 0 1.265625 L 0 0 Z M 1.464844 0 "/>
<path style=" stroke:none;fill-rule:nonzero;fill:rgb(78.431374%,6.27451%,18.039216%);fill-opacity:1;" d="M 8.28125 5.5625 L 12.5 8.707031 L 12.5 9.5 L 7.207031 5.5625 Z M 4.6875 5.957031 L 4.804688 6.648438 L 1.054688 9.5 L 0 9.5 Z M 12.5 0 L 12.5 0.0585938 L 7.636719 3.78125 L 7.675781 2.910156 L 11.523438 0 Z M 0 0 L 4.667969 3.484375 L 3.496094 3.484375 L 0 0.832031 Z M 0 0 "/>
<path style=" stroke:none;fill-rule:nonzero;fill:rgb(100%,100%,100%);fill-opacity:1;" d="M 4.707031 0 L 4.707031 9.5 L 7.832031 9.5 L 7.832031 0 Z M 0 3.167969 L 0 6.332031 L 12.5 6.332031 L 12.5 3.167969 Z M 0 3.167969 "/>
<path style=" stroke:none;fill-rule:nonzero;fill:rgb(78.431374%,6.27451%,18.039216%);fill-opacity:1;" d="M 0 3.820312 L 0 5.71875 L 12.5 5.71875 L 12.5 3.820312 Z M 5.332031 0 L 5.332031 9.5 L 7.207031 9.5 L 7.207031 0 Z M 5.332031 0 "/>
</g>
</svg>
