<svg xmlns="http://www.w3.org/2000/svg" width="25" height="px" viewBox="0 0 25 19"><path d="M0 0h25v19H0z" style="fill:#002868;fill-opacity:1;stroke:none"/><path d="M590 174.572v90c0 60-30 124.639-105 159.671-75-35.032-105-99.67-105-159.67v-90Zm0 0" style="fill-rule:nonzero;fill:#fcd116;fill-opacity:1;stroke-width:8;stroke-linecap:butt;stroke-linejoin:miter;stroke:#000;stroke-opacity:1;stroke-miterlimit:4" transform="scale(.03906 .03958)"/><path d="M590 174.572v90c0 60-30 124.639-105 159.671-75-35.032-105-99.67-105-159.67v-90Zm0 0" style="fill:none;stroke-width:7;stroke-linecap:butt;stroke-linejoin:miter;stroke:#fff;stroke-opacity:1;stroke-miterlimit:4" transform="scale(.03906 .03958)"/><path d="M447.1 273.651c-2.7 4.737-7.4 5.724-11 4.244-3.7-1.48-7.1-10.263-10.9-15-3.6-4.737-4.6-2.665-7-5.428-3.5-3.158-7.6-5.625-12-7.401-3.3-1.48-6.7-2.862-9-8.586 1-2.27 2.9-4.046 5.2-5.033 1.9-.79 3.4-3.454 3.6-5.822.3-2.27 2.3-4.737 5-6.612-1.3.198-3.9-.296-5.1-1.085-1.1-.987-3-.79-4.1 0s-2.7 1.085-4.6.79c.8-.593 2.2-1.975 2.3-3.257.1-1.185 1.6-1.875 4.5-1.875 2.8 0 4.6-3.158 6.9-3.158-1.6 0-1.3-2.862-.4-3.06-4-.69-3.5-3.947-1.9-3.947-.1-.395-.6-.987-2.5-1.48-1.7-.79-.9-2.369.5-3.355-1.2-2.468-.1-4.343 1.9-6.02-2.8-.099.3-3.948 1-6.02.8-2.072 1.1-2.368 2-1.085 1 1.184 3.3 3.75 5.9 4.539 2.5.69 4 2.072 4.5 4.243.5 2.27 1.5 3.356 4.2 4.343 2.9.888 6.8 3.355 6.3 8.585 1.9.099 3.7.79 5.2 1.974" style="fill-rule:nonzero;fill:#fcad56;fill-opacity:1;stroke-width:.3;stroke-linecap:round;stroke-linejoin:round;stroke:#000;stroke-opacity:1;stroke-miterlimit:4" transform="scale(.03906 .03958)"/><path d="M454 205.954c0 2.566 1.1 4.934 3.1 6.414 1.9 1.58 3.5 2.764 3.1 4.639-.3 1.973.4 3.157 2 4.54 1.8 1.183 3 2.664 2.6 5.13-.4 2.566-.2 4.047.8 5.922s2.8 3.355 2 6.414c-.8 2.96-.4 7.007.6 8.98 1 1.875 0 3.454-1.7 6.71-1.8 3.258-2.8 4.54-6.4 5.823-3.7 1.086-4 3.356-4 7.204 0 4.145-2.5 5.823-7.5 5.23-5 4.145-8.1-.789-9.4-6.907-1.3-6.02-1.4-12.73-8.8-18.06-7.3-5.526-4.4-14.802 1.7-18.454 6.1-3.75 5.4-14.407 4.6-21.02-.6-6.611 3.8-10.46 7.2-14.012 4.5 1.677 10.1 8.585 10.1 11.447" style="fill-rule:nonzero;fill:#ffa1a1;fill-opacity:1;stroke-width:.3;stroke-linecap:round;stroke-linejoin:round;stroke:#000;stroke-opacity:1;stroke-miterlimit:4" transform="scale(.03906 .03958)"/><path d="M443.4 248.586c-1.4-3.158-2.9-6.514.7-13.52 3.8-7.105 1.4-12.434.3-16.086-1.1-3.454-1.4-6.809 0-8.29 1.5-1.282 2.1-2.17 2.2-4.637.1-2.171 2-1.48 2.3-.395.3 1.184.5 3.06-1.5 6.414-2 3.454 5.6 12.04 2.1 21.119-2.4 6.414.8 14.506 2 20.23s2 18.947-6.3 21.02c5.7-2.763.4-20.527-1.8-25.855" style="fill-rule:nonzero;fill:#f1b2dc;fill-opacity:1;stroke-width:.3;stroke-linecap:round;stroke-linejoin:round;stroke:#000;stroke-opacity:1;stroke-miterlimit:4" transform="scale(.03906 .03958)"/><path d="M406.3 247.599c1.3.296 2-.494 2.4-1.382s.7-1.283 2-1.48c1.2 0 3.2-.296 3.7-1.382.5-.987 1.9-.197 3.2-2.664 1.3-2.566 2.1-5.625 5.5-6.71m9.3-21.81c-1.3 0-4.9.197-6.4 3.454m-10.4-18.947c3 .888 1.8 2.96 3.3 4.046 2.7 2.17.2 4.342 2.5 4.934 2.3.69 2.1 1.085 1.6 3.553-.8 2.861 2 2.96 1 4.934m-13 9.868c1.8-1.579 6.1-2.96 7.1-4.638m-7.2-3.947c2.6-.198 6.1.79 6.6-.198m-7-2.763c1.3 0 3.9-.888 4.4-2.566m-6.3-1.381c1.5 0 3.4-.099 5.3-1.48m-7.3-3.454c1.1-.889 3.1.098 5-1.086m-3.1-4.934c.9 0 2.8-.198 2.8.888" style="fill:none;stroke-width:.3;stroke-linecap:round;stroke-linejoin:round;stroke:#000;stroke-opacity:1;stroke-miterlimit:4" transform="scale(.03906 .03958)"/><path d="M-55.2-233.116s-69.6-59.21-128-98.684c-57.6-40.263-128-89.21-128-99.474 11.2-7.894 70.4 30 151.2 78.948 81.6 50.526 128 99.473 128 99.473Zm-4.8 40.263s-68-41.052-135.2-70.263c-69.6-29.21-174.4-29.21-185.6-38.684 0-10.263 121.6-16.579 208.8 18.947 88.8 41.053 135.2 69.474 135.2 69.474Zm-.8 67.895s-74.4-33.947-146.4-49.737c-69.6-16.579-169.6-10.263-181.6-18.947 0-10.263 124-30 216.8 0 93.6 28.42 133.6 48.947 133.6 48.947Zm-4 68.684s-56-37.894-130.4-45.79c-69.6-7.104-163.2 45.79-174.4 36.317 0-10.264 80.8-69.474 181.6-59.21 99.2 10.262 146.4 48.946 146.4 48.946Zm23.2-217.894s-71.2-64.737-71.2-108.948c0-38.684 42.4-98.684 61.6-98.684-9.6 19.737-43.2 60-43.2 98.684 0 40.263 75.2 89.21 75.2 89.21Zm0 0" style="fill-rule:nonzero;fill:#9e540a;fill-opacity:1;stroke-width:2.2;stroke-linecap:round;stroke-linejoin:round;stroke:#000;stroke-opacity:1;stroke-miterlimit:4" transform="matrix(.00488 0 0 .00495 20.898 9.88)"/><path d="M-41.6-274.168S-28-338.905-28-383.116c0-59.21-42.4-112.895-37.6-127.895 14.4 15 56.8 59.211 56.8 127.895 0 60-10.4 89.21-10.4 89.21Zm0 0" style="fill-rule:nonzero;fill:#9e540a;fill-opacity:1;stroke-width:2.2;stroke-linecap:round;stroke-linejoin:round;stroke:#000;stroke-opacity:1;stroke-miterlimit:4" transform="matrix(.00488 0 0 .00495 20.898 9.88)"/><path d="M-24.8-294.695c0-18.947-7.2-36.316-19.2-48.947-16-19.737-40-25.263-64.8-21.316-30.4 4.737-54.4 22.895-68.8 51.316-20.8 36.316-22.4 76.579-23.2 115.263 0 135 4.8 190.263 8.8 323.684.8 38.684 8 118.421-9.6 181.58-7.2 26.841-15.2 52.104-27.2 78.157 8-33.158 12-49.737 16-75 11.2-64.737 8-126.316 5.6-186.316-4-122.368-10.4-185.526-15.2-334.737-.8-45 3.2-78.947 24-115.263 22.4-37.105 60.8-63.947 103.2-63.947 18.4 0 32.8 3.158 48 11.842 30.4 16.579 44 49.737 44 82.105Zm0 0" style="fill-rule:nonzero;fill:#9e540a;fill-opacity:1;stroke-width:12;stroke-linecap:round;stroke-linejoin:round;stroke:#fcd116;stroke-opacity:1;stroke-miterlimit:4" transform="matrix(.00488 0 0 .00495 20.898 9.88)"/><path d="M20.777 8.422a.35.35 0 0 0-.093-.242c-.079-.098-.196-.125-.317-.106a.45.45 0 0 0-.336.254c-.101.18-.11.379-.113.57 0 .668.023.942.043 1.602.004.191.039.586-.047.898a2.4 2.4 0 0 1-.133.387c.04-.164.059-.246.078-.37.055-.321.04-.626.028-.923-.02-.605-.051-.918-.075-1.656-.003-.223.016-.39.118-.57.11-.184.297-.317.504-.317.09 0 .16.016.234.059.148.082.215.246.215.406Zm0 0" style="stroke:none;fill-rule:nonzero;fill:#9e540a;fill-opacity:1"/><path d="M-19.2 186.884s-28 49.737-48.8 86.053-37.6 44.21-53.6 33.158c-15.2-11.053-2.4-40.263 9.6-54.474 12-13.421 79.2-78.947 79.2-78.947Zm0 0" style="fill-rule:nonzero;fill:#9e540a;fill-opacity:1;stroke-width:2.2;stroke-linecap:round;stroke-linejoin:round;stroke:#000;stroke-opacity:1;stroke-miterlimit:4" transform="matrix(.00488 0 0 .00495 20.898 9.88)"/><path d="M-12 190.832s-11.2 56.842-20 97.894c-8 41.053-22.4 55.263-39.2 50.527-17.6-3.948-15.2-37.106-8-54.474C-72 268.2-30.4 182.147-30.4 182.147Zm0 0" style="fill-rule:nonzero;fill:#9e540a;fill-opacity:1;stroke-width:2.2;stroke-linecap:round;stroke-linejoin:round;stroke:#000;stroke-opacity:1;stroke-miterlimit:4" transform="matrix(.00488 0 0 .00495 20.898 9.88)"/><path d="M0 193.2v99.474c0 42.631-9.6 59.21-28.8 58.42-18.4-.789-22.4-33.157-18.4-52.105 3.2-18.157 28-111.315 28-111.315Zm0 0" style="fill-rule:nonzero;fill:#9e540a;fill-opacity:1;stroke-width:2.2;stroke-linecap:round;stroke-linejoin:round;stroke:#000;stroke-opacity:1;stroke-miterlimit:4" transform="matrix(.00488 0 0 .00495 20.898 9.88)"/><path d="M-55.2-233.116s-69.6-59.21-128-98.684c-57.6-40.263-128-89.21-128-99.474 11.2-7.894 70.4 30 151.2 78.948 81.6 50.526 128 99.473 128 99.473Zm-4.8 40.263s-68-41.052-135.2-70.263c-69.6-29.21-174.4-29.21-185.6-38.684 0-10.263 121.6-16.579 208.8 18.947 88.8 41.053 135.2 69.474 135.2 69.474Zm-.8 67.895s-74.4-33.947-146.4-49.737c-69.6-16.579-169.6-10.263-181.6-18.947 0-10.263 124-30 216.8 0 93.6 28.42 133.6 48.947 133.6 48.947Zm-4 68.684s-56-37.894-130.4-45.79c-69.6-7.104-163.2 45.79-174.4 36.317 0-10.264 80.8-69.474 181.6-59.21 99.2 10.262 146.4 48.946 146.4 48.946Zm23.2-217.894s-71.2-64.737-71.2-108.948c0-38.684 42.4-98.684 61.6-98.684-9.6 19.737-43.2 60-43.2 98.684 0 40.263 75.2 89.21 75.2 89.21Zm0 0" style="fill-rule:nonzero;fill:#9e540a;fill-opacity:1;stroke-width:2.2;stroke-linecap:round;stroke-linejoin:round;stroke:#000;stroke-opacity:1;stroke-miterlimit:4" transform="matrix(-.00488 0 0 .00495 20.898 9.88)"/><path d="M-41.6-274.168S-28-338.905-28-383.116c0-59.21-42.4-112.895-37.6-127.895 14.4 15 56.8 59.211 56.8 127.895 0 60-10.4 89.21-10.4 89.21Zm0 0" style="fill-rule:nonzero;fill:#9e540a;fill-opacity:1;stroke-width:2.2;stroke-linecap:round;stroke-linejoin:round;stroke:#000;stroke-opacity:1;stroke-miterlimit:4" transform="matrix(-.00488 0 0 .00495 20.898 9.88)"/><path d="M-24.8-294.695c0-18.947-7.2-36.316-19.2-48.947-16-19.737-40-25.263-64.8-21.316-30.4 4.737-54.4 22.895-68.8 51.316-20.8 36.316-22.4 76.579-23.2 115.263 0 135 4.8 190.263 8.8 323.684.8 38.684 8 118.421-9.6 181.58-7.2 26.841-15.2 52.104-27.2 78.157 8-33.158 12-49.737 16-75 11.2-64.737 8-126.316 5.6-186.316-4-122.368-10.4-185.526-15.2-334.737-.8-45 3.2-78.947 24-115.263 22.4-37.105 60.8-63.947 103.2-63.947 18.4 0 32.8 3.158 48 11.842 30.4 16.579 44 49.737 44 82.105Zm0 0" style="fill-rule:nonzero;fill:#9e540a;fill-opacity:1;stroke-width:12;stroke-linecap:round;stroke-linejoin:round;stroke:#fcd116;stroke-opacity:1;stroke-miterlimit:4" transform="matrix(-.00488 0 0 .00495 20.898 9.88)"/><path d="M21.02 8.422c0-.094.035-.18.093-.242.078-.098.196-.125.317-.106a.45.45 0 0 1 .336.254c.101.18.109.379.113.57 0 .668-.024.942-.043 1.602-.004.191-.04.586.047.898.035.133.074.258.133.387a4 4 0 0 1-.078-.37c-.055-.321-.04-.626-.028-.923.02-.605.05-.918.074-1.656.004-.223-.015-.39-.117-.57-.11-.184-.297-.317-.504-.317-.09 0-.16.016-.234.059-.149.082-.215.246-.215.406Zm0 0" style="stroke:none;fill-rule:nonzero;fill:#9e540a;fill-opacity:1"/><path d="M-19.2 186.884s-28 49.737-48.8 86.053-37.6 44.21-53.6 33.158c-15.2-11.053-2.4-40.263 9.6-54.474 12-13.421 79.2-78.947 79.2-78.947Zm0 0" style="fill-rule:nonzero;fill:#9e540a;fill-opacity:1;stroke-width:2.2;stroke-linecap:round;stroke-linejoin:round;stroke:#000;stroke-opacity:1;stroke-miterlimit:4" transform="matrix(-.00488 0 0 .00495 20.898 9.88)"/><path d="M-12 190.832s-11.2 56.842-20 97.894c-8 41.053-22.4 55.263-39.2 50.527-17.6-3.948-15.2-37.106-8-54.474C-72 268.2-30.4 182.147-30.4 182.147Zm0 0" style="fill-rule:nonzero;fill:#9e540a;fill-opacity:1;stroke-width:2.2;stroke-linecap:round;stroke-linejoin:round;stroke:#000;stroke-opacity:1;stroke-miterlimit:4" transform="matrix(-.00488 0 0 .00495 20.898 9.88)"/><path d="M0 193.2v99.474c0 42.631-9.6 59.21-28.8 58.42-18.4-.789-22.4-33.157-18.4-52.105 3.2-18.157 28-111.315 28-111.315Zm0 0" style="fill-rule:nonzero;fill:#9e540a;fill-opacity:1;stroke-width:2.2;stroke-linecap:round;stroke-linejoin:round;stroke:#000;stroke-opacity:1;stroke-miterlimit:4" transform="matrix(-.00488 0 0 .00495 20.898 9.88)"/><path d="M0 191.621c-52.8-.79-57.6-19.737-57.6-19.737s-7.2-23.684-8-38.684c-1.6-2.368-15.2-32.368-11.2-45-4.8-11.842-17.6-41.053-6.4-46.579-4.8-13.421-12.8-30-13.6-45-4-10.263-14.4-34.737-6.4-42.632 0 0-18.4-40.263-9.6-49.736 0 0-8.8-39.474 0-48.948 0 0 0-40.263 9.6-50.526 0 0 0-38.684 8.8-48.947 0 2.368 28.8-54.474 94.4-54.474l-.8 84.474H0Zm0 0" style="fill-rule:nonzero;fill:#9e540a;fill-opacity:1;stroke-width:2.2;stroke-linecap:round;stroke-linejoin:round;stroke:#000;stroke-opacity:1;stroke-miterlimit:4" transform="matrix(.00488 0 0 .00495 20.898 9.88)"/><path d="M0-26.274c-84.8-.79-103.2-19.737-103.2-19.737M0-76.01c-84.8 0-112.8-19.736-112.8-19.736M0-124.957c-84.8-.79-112.8-19.738-112.8-19.738m112.8-30c-84.8-1.579-103.2-20.526-103.2-20.526M-.8-214.168c.8 0-64 0-74.4-9.474l-19.2-19.737M0 152.147c-24.8 0-52.8-3.947-65.6-18.947M0 111.884c-47.2 0-75.2-18.947-75.2-18.947s-.8-1.58-1.6-4.737M0 62.937c-62.4-.79-79.2-14.21-83.2-21.316M0 22.674c-84.8 0-94.4-19.737-94.4-19.737l-2.4-6.316" style="fill:none;stroke-width:2.2;stroke-linecap:round;stroke-linejoin:round;stroke:#000;stroke-opacity:1;stroke-miterlimit:4" transform="matrix(.00488 0 0 .00495 20.898 9.88)"/><path d="M0 191.621c-52.8-.79-57.6-19.737-57.6-19.737s-7.2-23.684-8-38.684c-1.6-2.368-15.2-32.368-11.2-45-4.8-11.842-17.6-41.053-6.4-46.579-4.8-13.421-12.8-30-13.6-45-4-10.263-14.4-34.737-6.4-42.632 0 0-18.4-40.263-9.6-49.736 0 0-8.8-39.474 0-48.948 0 0 0-40.263 9.6-50.526 0 0 0-38.684 8.8-48.947 0 2.368 28.8-54.474 94.4-54.474l-.8 84.474H0Zm0 0" style="fill-rule:nonzero;fill:#9e540a;fill-opacity:1;stroke-width:2.2;stroke-linecap:round;stroke-linejoin:round;stroke:#000;stroke-opacity:1;stroke-miterlimit:4" transform="matrix(-.00488 0 0 .00495 20.898 9.88)"/><path d="M0-26.274c-84.8-.79-103.2-19.737-103.2-19.737M0-76.01c-84.8 0-112.8-19.736-112.8-19.736M0-124.957c-84.8-.79-112.8-19.738-112.8-19.738m112.8-30c-84.8-1.579-103.2-20.526-103.2-20.526M-.8-214.168c.8 0-64 0-74.4-9.474l-19.2-19.737M0 152.147c-24.8 0-52.8-3.947-65.6-18.947M0 111.884c-47.2 0-75.2-18.947-75.2-18.947s-.8-1.58-1.6-4.737M0 62.937c-62.4-.79-79.2-14.21-83.2-21.316M0 22.674c-84.8 0-94.4-19.737-94.4-19.737l-2.4-6.316" style="fill:none;stroke-width:2.2;stroke-linecap:round;stroke-linejoin:round;stroke:#000;stroke-opacity:1;stroke-miterlimit:4" transform="matrix(-.00488 0 0 .00495 20.898 9.88)"/><path d="M0 712.147c-43.2 39.474-126.4 14.21-152-3.947-27.2 8.684-99.2-18.947-118.4-50.526-51.2 7.105-69.6-66.316-60.8-86.053 14.4-27.632-11.2-45.79 7.2-64.737 24.8-23.684-13.6-46.579 10.4-63.158s-6.4-45 17.6-62.368c24.8-19.737-12.8-45 12.8-58.421 26.4-12.632-3.2-46.58 19.2-60 22.4-12.632-12.8-45.79 16.8-60.79s3.2-41.052 26.4-52.105c24.8-13.421 1.6-40.263 24.8-48.947 26.4-11.053 7.2-40.263 28.8-48.158 19.2-7.105 7.2-25.263 19.2-41.053H0" style="fill-rule:nonzero;fill:#009e49;fill-opacity:1;stroke-width:2.2;stroke-linecap:round;stroke-linejoin:round;stroke:#000;stroke-opacity:1;stroke-miterlimit:4" transform="matrix(.00488 0 0 .00495 18.945 11.86)"/><path d="M-99.2 18.2c-20 19.737 4 34.737-16 58.421-20.8 25.263-1.6 38.684-19.2 60-16.8 22.105 8 33.158-10.4 58.421-19.2 23.684 4 38.684-16.8 59.21s3.2 38.685-17.6 60.79c-20 22.895 4 37.895-16 57.632-20.8 21.315 3.2 43.42-16.8 63.158-20 21.315 4 47.368-19.2 71.052-21.6 24.474 4 43.421-13.6 60.79-19.2 18.947-2.4 38.684-15.2 51.315s-15.2 30.79-10.4 38.685M-60 25.305c-18.4 24.474 10.4 35.527-7.2 56.053-16.8 20.526 7.2 27.631-5.6 51.316-13.6 24.473 9.6 30-7.2 54.473-16.8 23.685 8.8 42.632-8.8 67.106-19.2 23.684 8.8 37.105-8 60.79-16 25.262 8 37.894-7.2 56.052-15.2 18.947 11.2 37.105-8 60-17.6 22.105 8 38.684-7.2 59.21s6.4 42.632-7.2 60c-12.8 15.79 9.6 41.053-9.6 62.369-17.6 22.105 4 37.105-7.2 52.105-10.4 15-20 37.105-8.8 43.421" style="fill:none;stroke-width:2.2;stroke-linecap:round;stroke-linejoin:round;stroke:#000;stroke-opacity:1;stroke-miterlimit:4" transform="matrix(.00488 0 0 .00495 18.945 11.86)"/><path d="M0 712.147c-43.2 39.474-126.4 14.21-152-3.947-27.2 8.684-99.2-18.947-118.4-50.526-51.2 7.105-69.6-66.316-60.8-86.053 14.4-27.632-11.2-45.79 7.2-64.737 24.8-23.684-13.6-46.579 10.4-63.158s-6.4-45 17.6-62.368c24.8-19.737-12.8-45 12.8-58.421 26.4-12.632-3.2-46.58 19.2-60 22.4-12.632-12.8-45.79 16.8-60.79s3.2-41.052 26.4-52.105c24.8-13.421 1.6-40.263 24.8-48.947 26.4-11.053 7.2-40.263 28.8-48.158 19.2-7.105 7.2-25.263 19.2-41.053H0" style="fill-rule:nonzero;fill:#009e49;fill-opacity:1;stroke-width:2.2;stroke-linecap:round;stroke-linejoin:round;stroke:#000;stroke-opacity:1;stroke-miterlimit:4" transform="matrix(-.00488 0 0 .00495 18.945 11.86)"/><path d="M-99.2 18.2c-20 19.737 4 34.737-16 58.421-20.8 25.263-1.6 38.684-19.2 60-16.8 22.105 8 33.158-10.4 58.421-19.2 23.684 4 38.684-16.8 59.21s3.2 38.685-17.6 60.79c-20 22.895 4 37.895-16 57.632-20.8 21.315 3.2 43.42-16.8 63.158-20 21.315 4 47.368-19.2 71.052-21.6 24.474 4 43.421-13.6 60.79-19.2 18.947-2.4 38.684-15.2 51.315s-15.2 30.79-10.4 38.685M-60 25.305c-18.4 24.474 10.4 35.527-7.2 56.053-16.8 20.526 7.2 27.631-5.6 51.316-13.6 24.473 9.6 30-7.2 54.473-16.8 23.685 8.8 42.632-8.8 67.106-19.2 23.684 8.8 37.105-8 60.79-16 25.262 8 37.894-7.2 56.052-15.2 18.947 11.2 37.105-8 60-17.6 22.105 8 38.684-7.2 59.21s6.4 42.632-7.2 60c-12.8 15.79 9.6 41.053-9.6 62.369-17.6 22.105 4 37.105-7.2 52.105-10.4 15-20 37.105-8.8 43.421" style="fill:none;stroke-width:2.2;stroke-linecap:round;stroke-linejoin:round;stroke:#000;stroke-opacity:1;stroke-miterlimit:4" transform="matrix(-.00488 0 0 .00495 18.945 11.86)"/><path d="M0 712.147V11.884" style="fill:none;stroke-width:2.2;stroke-linecap:round;stroke-linejoin:round;stroke:#009e49;stroke-opacity:1;stroke-miterlimit:4" transform="matrix(.00488 0 0 .00495 18.945 11.86)"/><path d="M0 48.2c-8.8 38.684 12.8 72.632 0 105.79-12.8 32.368 8.8 45 1.6 71.052-8 26.053 9.6 45-1.6 72.632-11.2 28.42 15.2 50.526 0 87.631-15.2 35.527 9.6 45 0 81.316-11.2 42.632 19.2 64.737 0 94.737s16.8 36.316 1.6 70.263c-14.4 33.158 9.6 46.579-1.6 80.526" style="fill:none;stroke-width:2.2;stroke-linecap:round;stroke-linejoin:round;stroke:#000;stroke-opacity:1;stroke-miterlimit:4" transform="matrix(.00488 0 0 .00495 18.945 11.86)"/><path d="M15.2 173.726c-5.6 11.053 15.2 37.106 4 57.632-12 18.947 5.6 48.947-6.4 72.631-12 23.685 19.2 53.685 7.2 82.106-12.8 27.631 5.6 63.158 0 89.21-4.8 26.053 12.8 75.79 0 93.948-12.8 18.947 12.8 23.684-2.4 69.473-14.4 46.58-24.8 7.106-16-7.105 19.2-30.79-20.8-40.263-1.6-70.263s-11.2-52.105 0-94.737c9.6-36.316-15.2-45.79 0-81.316 15.2-37.105-11.2-59.21 0-87.631 11.2-27.632-6.4-46.58 1.6-72.632C8.8 198.99-12.8 186.358 0 153.99c9.6-32.368 20 8.685 15.2 19.737m-84 32.369c-7.2 11.842 12 34.737-4.8 57.631-12.8 16.58 8 35.527-9.6 58.421-11.2 15.79 11.2 35.527-4 59.21-9.6 12.632 7.2 37.896-4.8 56.843-12 19.737 5.6 35.526-15.2 61.579-12 14.21 9.6 48.947-4 60-12.8 11.053-.8 54.474-9.6 60-8 7.105 0 37.895-22.4 45 11.2-15-10.4-30 7.2-52.105 19.2-21.316-3.2-46.58 9.6-62.369 13.6-17.368-8-39.473 7.2-60 15.2-20.526-10.4-37.105 7.2-59.21 19.2-22.895-7.2-41.053 8-60 15.2-18.158-8.8-30.79 7.2-56.053 16.8-23.684-11.2-37.105 8-60.79 17.6-24.473-8-43.42 8.8-67.105 16.8-24.473-6.4-30 7.2-54.473 24 9.473 12 61.579 4 73.42m-50.4-64.736c-9.6 15.79 4 34.737-10.4 54.474-15.2 21.315 0 47.368-15.2 63.947s4 48.158-15.2 61.579c-19.2 12.631-7.2 51.316-22.4 64.737-14.4 12.631 0 49.737-16.8 68.684s-8.8 58.421-18.4 67.105c-9.6 9.474 12.8 28.421-3.2 41.053-17.6 13.42-17.6 38.684-39.2 56.052 12.8-12.631-4-32.368 15.2-51.315 17.6-17.369-8-36.316 13.6-60.79 23.2-23.684-.8-49.737 19.2-71.052 20-19.737-4-41.843 16.8-63.158 20-19.737-4-34.737 16-57.632 20.8-22.105-3.2-40.263 17.6-60.79 20.8-20.526-2.4-35.526 16.8-59.21 18.4-25.263-6.4-36.316 10.4-58.421 8-9.474 8-18.947 8-26.842 12.8-30.79 12.8 22.895 7.2 31.579" style="fill-rule:nonzero;fill:#fcd116;fill-opacity:1;stroke-width:2.2;stroke-linecap:round;stroke-linejoin:round;stroke:#000;stroke-opacity:1;stroke-miterlimit:4" transform="matrix(.00488 0 0 .00495 18.945 11.86)"/><path d="M-139.2 34.779c0-210 28.8-282.632 139.2-282.632S139.2-175.22 139.2 34.78Zm0 0" style="fill-rule:nonzero;fill:#ce1126;fill-opacity:1;stroke-width:2.2;stroke-linecap:round;stroke-linejoin:round;stroke:#000;stroke-opacity:1;stroke-miterlimit:4" transform="matrix(.00488 0 0 .00495 18.945 11.86)"/><path d="M-139.2 34.779c0-210 28.8-282.632 139.2-282.632-49.6 0-80.8 38.685-88.8 64.737-8.8 26.053-4 24.474 7.2 14.21 10.4-10.262 5.6 11.843-4.8 23.685-8.8 11.842-17.6 47.368-4.8 36.316 12.8-11.842 23.2.79 9.6 20.526C-96-68.642-108-22.853-94.4-38.642c14.4-16.58 17.6 9.474 8 22.895-8 12.631-6.4 24.473 0 18.947 8-6.316 7.2 20.526 0 31.579ZM52 30.832c0-30.79.8-104.211-16-127.895-12-18.948-12-38.684 2.4-16.58 13.6 21.317 20.8 10.264 10.4-11.052-12-28.42-28-59.21-24-65.526 5.6-7.105 8-3.947 18.4 11.053 9.6 15 12-7.106.8-22.106-11.2-13.42-10.4-16.579 12.8-7.105 40.8 17.368 61.6 66.316 61.6 231.316Zm0 0" style="fill-rule:nonzero;fill:#000001;fill-opacity:1;stroke-width:2.2;stroke-linecap:round;stroke-linejoin:round;stroke:#000;stroke-opacity:1;stroke-miterlimit:4" transform="matrix(.00488 0 0 .00495 18.945 11.86)"/><path d="M0 64.779c-44 0-92-7.105-124-19.737-37.6-15-40-28.421-27.2-44.21 10.4-11.843 30.4-4.737 50.4 3.947C-81.6 12.674-28 18.989 0 18.989s81.6-6.315 100.8-15c20-7.894 40-15 50.4-3.157 12.8 15.789 10.4 29.21-27.2 44.21C92 57.674 44 64.78 0 64.78" style="fill-rule:nonzero;fill:#ce1126;fill-opacity:1;stroke-width:2.2;stroke-linecap:round;stroke-linejoin:round;stroke:#000;stroke-opacity:1;stroke-miterlimit:4" transform="matrix(.00488 0 0 .00495 18.945 11.86)"/><path d="M0 0h12.5v9.5H0Zm0 0" style="stroke:none;fill-rule:nonzero;fill:#012169;fill-opacity:1"/><path d="M1.465 0 6.23 3.582 10.977 0H12.5v1.227L7.813 4.77 12.5 8.293V9.5h-1.562L6.25 5.957 1.582 9.5H0V8.313l4.668-3.524L0 1.266V0Zm0 0" style="stroke:none;fill-rule:nonzero;fill:#fff;fill-opacity:1"/><path d="M8.281 5.563 12.5 8.707V9.5L7.207 5.563Zm-3.594.394.118.691L1.055 9.5H0ZM12.5 0v.059L7.637 3.78l.039-.87L11.523 0ZM0 0l4.668 3.484H3.496L0 .832Zm0 0" style="stroke:none;fill-rule:nonzero;fill:#c8102e;fill-opacity:1"/><path d="M4.707 0v9.5h3.125V0ZM0 3.168v3.164h12.5V3.168Zm0 0" style="stroke:none;fill-rule:nonzero;fill:#fff;fill-opacity:1"/><path d="M0 3.82V5.72h12.5V3.82ZM5.332 0v9.5h1.875V0Zm0 0" style="stroke:none;fill-rule:nonzero;fill:#c8102e;fill-opacity:1"/></svg>