<svg xmlns="http://www.w3.org/2000/svg" width="25" height="px" viewBox="0 0 25 19"><path d="M0 0h25v19H0z" style="fill:#002395;fill-opacity:1;stroke:none"/><path d="M0 0h11.438v7.79H0Zm0 0" style="stroke:none;fill-rule:nonzero;fill:#fff;fill-opacity:1"/><path d="M0 0h3.75v7.602H0Zm0 0" style="stroke:none;fill-rule:nonzero;fill:#002395;fill-opacity:1"/><path d="M7.5 0h3.75v7.602H7.5Zm0 0" style="stroke:none;fill-rule:nonzero;fill:#ed2939;fill-opacity:1"/><path d="m16.64 8.691.602.977h1.719v3.395l-1.29-2.043-1.733 2.804h.843l.89-1.617 1.829 3.324 1.828-3.324.89 1.617h.845l-1.735-2.804-1.289 2.043v-1.876h.773l.575-.925h-1.348v-.594h1.719l.601-.977Zm2.016 4.157h-1.875v.668h1.875Zm3.563 0h-1.875v.668h1.875ZM19.5 16.2l.578 1.804-1.515-1.117h1.875l-1.516 1.117ZM17.39 14.582l.579 1.805-1.516-1.117h1.875l-1.515 1.117ZM21.61 14.582l.578 1.805-1.516-1.117h1.875l-1.516 1.117Zm0 0" style="stroke:none;fill-rule:nonzero;fill:#fff;fill-opacity:1"/><path d="m15.61 9.785.578 1.805-1.516-1.117h1.875L15.03 11.59ZM23.39 9.785l.579 1.805-1.516-1.117h1.875l-1.515 1.117Zm0 0" style="stroke:none;fill-rule:nonzero;fill:#fff;fill-opacity:1"/></svg>