<svg xmlns="http://www.w3.org/2000/svg" width="25" height="px" viewBox="0 0 25 19"><path d="M0 0h25v19H0z" style="fill:#ffe300;fill-opacity:1;stroke:none"/><path d="M0 7.723h28.11v3.816H0ZM0 .008h28.11v3.816H0Zm0 0" style="stroke:none;fill-rule:evenodd;fill:#118600;fill-opacity:1"/><path d="M0 .012h11.223v11.527H0Zm0 0" style="stroke:none;fill-rule:evenodd;fill:#d80000;fill-opacity:1"/><path d="M4.922 4.766c0-.032.691-1.97.691-1.97l.625 1.938s2.102.063 2.102.032c0-.036-1.66 1.273-1.66 1.273s.785 2.227.75 2.16c-.032-.07-1.817-1.336-1.817-1.336s-1.82 1.27-1.785 1.27c.027 0 .688-2.094.688-2.094l-1.63-1.242Zm0 0" style="stroke:none;fill-rule:evenodd;fill:#fff;fill-opacity:1"/><path d="M0 15.184h28.11V19H0Zm0 0" style="stroke:none;fill-rule:evenodd;fill:#118600;fill-opacity:1"/></svg>