<?xml version="1.0" encoding="UTF-8"?>
<svg xmlns="http://www.w3.org/2000/svg" xmlns:xlink="http://www.w3.org/1999/xlink" width="25px" height="px" viewBox="0 0 25 19" version="1.1">
<g id="surface1">
<rect x="0" y="0" width="25" height="19" style="fill:rgb(0%,40.000001%,0%);fill-opacity:1;stroke:none;"/>
<path style=" stroke:none;fill-rule:nonzero;fill:rgb(100%,100%,100%);fill-opacity:1;" d="M 0 0 L 25 0 L 25 13.574219 L 0 13.574219 Z M 0 0 "/>
<path style=" stroke:none;fill-rule:nonzero;fill:rgb(80.000001%,0%,0%);fill-opacity:1;" d="M 0 0 L 25 0 L 25 5.425781 L 0 5.425781 Z M 0 0 "/>
<path style=" stroke:none;fill-rule:nonzero;fill:rgb(97.254902%,76.47059%,0%);fill-opacity:1;" d="M 11.75 9.246094 C 11.824219 9.117188 11.976562 9.054688 12.121094 9.089844 C 12.265625 9.125 12.367188 9.253906 12.375 9.40625 L 12.375 10.765625 L 12.625 10.765625 L 12.625 9.410156 C 12.632812 9.257812 12.734375 9.128906 12.878906 9.09375 C 13.023438 9.058594 13.175781 9.121094 13.25 9.25 C 13.355469 8.921875 13.242188 8.558594 12.964844 8.355469 C 12.6875 8.152344 12.3125 8.152344 12.035156 8.355469 C 11.757812 8.558594 11.644531 8.921875 11.75 9.25 "/>
<path style=" stroke:none;fill-rule:nonzero;fill:rgb(100%,100%,100%);fill-opacity:1;" d="M 11.929688 8.894531 C 12.152344 8.851562 12.382812 8.953125 12.5 9.152344 C 12.617188 8.953125 12.847656 8.851562 13.070312 8.894531 C 13.035156 8.601562 12.792969 8.378906 12.5 8.378906 C 12.207031 8.378906 11.964844 8.601562 11.929688 8.894531 "/>
<path style=" stroke:none;fill-rule:nonzero;fill:rgb(97.254902%,76.47059%,0%);fill-opacity:1;" d="M 12.375 10.222656 C 12.339844 10.617188 12.085938 10.957031 11.722656 11.097656 C 11.359375 11.238281 10.945312 11.152344 10.664062 10.882812 C 10.546875 11.191406 10.292969 11.425781 9.976562 11.515625 C 9.664062 11.609375 9.328125 11.550781 9.0625 11.355469 C 9.160156 12.347656 10.625 12.144531 10.734375 11.183594 C 11.191406 12 12.203125 11.765625 12.5 10.761719 Z M 12.375 10.222656 "/>
<path style=" stroke:none;fill-rule:nonzero;fill:rgb(97.254902%,76.47059%,0%);fill-opacity:1;" d="M 12.625 10.222656 C 12.660156 10.617188 12.914062 10.957031 13.277344 11.097656 C 13.640625 11.238281 14.054688 11.152344 14.335938 10.882812 C 14.453125 11.191406 14.707031 11.425781 15.023438 11.515625 C 15.335938 11.609375 15.671875 11.550781 15.9375 11.355469 C 15.839844 12.347656 14.375 12.144531 14.265625 11.183594 C 13.808594 12 12.796875 11.765625 12.5 10.761719 Z M 12.625 10.222656 "/>
<path style=" stroke:none;fill-rule:nonzero;fill:rgb(97.254902%,76.47059%,0%);fill-opacity:1;" d="M 11.398438 11.976562 C 11.191406 12.425781 10.785156 12.5 10.429688 12.140625 C 10.429688 12.140625 10.570312 12.039062 10.726562 12.007812 C 10.695312 11.886719 10.753906 11.710938 10.839844 11.621094 C 10.953125 11.699219 11.039062 11.8125 11.078125 11.941406 C 11.292969 11.914062 11.398438 11.980469 11.398438 11.980469 Z M 11.398438 11.976562 "/>
<path style=" stroke:none;fill-rule:nonzero;fill:rgb(97.254902%,76.47059%,0%);fill-opacity:1;" d="M 13 11.929688 C 12.722656 12.335938 12.3125 12.339844 12.019531 11.925781 C 12.019531 11.925781 12.171875 11.847656 12.332031 11.847656 C 12.320312 11.722656 12.40625 11.558594 12.507812 11.484375 C 12.605469 11.578125 12.671875 11.703125 12.691406 11.839844 C 12.90625 11.847656 13 11.933594 13 11.933594 Z M 13 11.929688 "/>
<path style=" stroke:none;fill-rule:nonzero;fill:rgb(97.254902%,76.47059%,0%);fill-opacity:1;" d="M 14.570312 12.140625 C 14.234375 12.496094 13.824219 12.433594 13.601562 11.980469 C 13.601562 11.980469 13.769531 11.925781 13.925781 11.953125 C 13.933594 11.824219 14.042969 11.679688 14.15625 11.621094 C 14.238281 11.730469 14.28125 11.863281 14.277344 12 C 14.492188 12.046875 14.570312 12.144531 14.570312 12.144531 Z M 14.570312 12.140625 "/>
<path style="fill:none;stroke-width:11;stroke-linecap:butt;stroke-linejoin:miter;stroke:rgb(97.254902%,76.47059%,0%);stroke-opacity:1;stroke-miterlimit:4;" d="M 253.5 327.828947 C 296.9 314.901316 343.1 314.901316 386.5 327.828947 " transform="matrix(0.0390625,0,0,0.0395833,0,0)"/>
<path style=" stroke:none;fill-rule:nonzero;fill:rgb(97.254902%,76.47059%,0%);fill-opacity:1;" d="M 12.90625 7.078125 L 11.847656 6.300781 L 13.152344 6.300781 L 12.09375 7.078125 L 12.5 5.816406 Z M 12.90625 7.078125 "/>
<path style=" stroke:none;fill-rule:nonzero;fill:rgb(97.254902%,76.47059%,0%);fill-opacity:1;" d="M 11.03125 7.589844 L 9.972656 6.808594 L 11.277344 6.808594 L 10.21875 7.589844 L 10.625 6.328125 Z M 11.03125 7.589844 "/>
<path style=" stroke:none;fill-rule:nonzero;fill:rgb(97.254902%,76.47059%,0%);fill-opacity:1;" d="M 9.65625 8.980469 L 8.597656 8.199219 L 9.90625 8.199219 L 8.847656 8.980469 L 9.253906 7.71875 Z M 9.65625 8.980469 "/>
<path style=" stroke:none;fill-rule:nonzero;fill:rgb(97.254902%,76.47059%,0%);fill-opacity:1;" d="M 9.15625 10.878906 L 8.097656 10.101562 L 9.40625 10.101562 L 8.34375 10.878906 L 8.75 9.617188 Z M 9.15625 10.878906 "/>
<path style=" stroke:none;fill-rule:nonzero;fill:rgb(97.254902%,76.47059%,0%);fill-opacity:1;" d="M 13.96875 7.589844 L 15.027344 6.808594 L 13.722656 6.808594 L 14.78125 7.589844 L 14.375 6.328125 Z M 13.96875 7.589844 "/>
<path style=" stroke:none;fill-rule:nonzero;fill:rgb(97.254902%,76.47059%,0%);fill-opacity:1;" d="M 15.34375 8.980469 L 16.402344 8.199219 L 15.09375 8.199219 L 16.152344 8.980469 L 15.746094 7.71875 Z M 15.34375 8.980469 "/>
<path style=" stroke:none;fill-rule:nonzero;fill:rgb(97.254902%,76.47059%,0%);fill-opacity:1;" d="M 15.84375 10.878906 L 16.902344 10.101562 L 15.59375 10.101562 L 16.65625 10.878906 L 16.25 9.617188 Z M 15.84375 10.878906 "/>
</g>
</svg>
