<svg xmlns="http://www.w3.org/2000/svg" width="25" height="px" viewBox="0 0 25 19"><path d="M0 0h25v19H0z" style="fill:#060;fill-opacity:1;stroke:none"/><path d="M0 0h25v13.574H0Zm0 0" style="stroke:none;fill-rule:nonzero;fill:#fff;fill-opacity:1"/><path d="M0 0h25v5.426H0Zm0 0" style="stroke:none;fill-rule:nonzero;fill:#c00;fill-opacity:1"/><path d="M11.75 9.246a.34.34 0 0 1 .371-.156.34.34 0 0 1 .254.316v1.36h.25V9.41a.34.34 0 0 1 .254-.316.34.34 0 0 1 .371.156.805.805 0 0 0-.285-.895.785.785 0 0 0-.93 0 .805.805 0 0 0-.285.895" style="stroke:none;fill-rule:nonzero;fill:#f8c300;fill-opacity:1"/><path d="M11.93 8.895a.54.54 0 0 1 .57.257c.117-.199.348-.3.57-.257a.58.58 0 0 0-.57-.516.58.58 0 0 0-.57.516" style="stroke:none;fill-rule:nonzero;fill:#fff;fill-opacity:1"/><path d="M12.375 10.223c-.035.394-.29.734-.652.875-.364.14-.778.054-1.059-.215a1.04 1.04 0 0 1-.687.633 1.03 1.03 0 0 1-.915-.16c.098.992 1.563.789 1.672-.172.457.816 1.47.582 1.766-.422Zm0 0" style="stroke:none;fill-rule:nonzero;fill:#f8c300;fill-opacity:1"/><path d="M12.625 10.223c.035.394.29.734.652.875.364.14.778.054 1.059-.215.117.308.371.543.687.633.313.093.649.035.915-.16-.098.992-1.563.789-1.672-.172-.457.816-1.47.582-1.766-.422ZM11.398 11.977c-.207.449-.613.523-.968.164 0 0 .14-.102.297-.133a.47.47 0 0 1 .113-.387c.113.078.2.191.238.32.215-.027.32.04.32.04ZM13 11.93c-.277.406-.687.41-.98-.004 0 0 .152-.078.312-.078a.46.46 0 0 1 .176-.364.6.6 0 0 1 .183.356c.215.008.309.094.309.094Zm0 0" style="stroke:none;fill-rule:nonzero;fill:#f8c300;fill-opacity:1"/><path d="M14.57 12.14c-.336.356-.746.294-.968-.16 0 0 .168-.054.324-.027a.45.45 0 0 1 .23-.332c.082.11.125.242.121.379.215.047.293.145.293.145Zm0 0" style="stroke:none;fill-rule:nonzero;fill:#f8c300;fill-opacity:1"/><path d="M253.5 327.829a232.9 232.9 0 0 1 133 0" style="fill:none;stroke-width:11;stroke-linecap:butt;stroke-linejoin:miter;stroke:#f8c300;stroke-opacity:1;stroke-miterlimit:4" transform="scale(.03906 .03958)"/><path d="m12.906 7.078-1.058-.777h1.304l-1.058.777.406-1.262ZM11.031 7.59l-1.058-.781h1.304l-1.058.78.406-1.26ZM9.656 8.98 8.598 8.2h1.308l-1.058.78.406-1.261ZM9.156 10.879l-1.058-.777h1.308l-1.062.777.406-1.262ZM13.969 7.59l1.058-.781h-1.304l1.058.78-.406-1.26ZM15.344 8.98l1.058-.78h-1.308l1.058.78-.406-1.261ZM15.844 10.879l1.058-.777h-1.308l1.062.777-.406-1.262Zm0 0" style="stroke:none;fill-rule:nonzero;fill:#f8c300;fill-opacity:1"/></svg>