<svg xmlns="http://www.w3.org/2000/svg" width="25" height="px" viewBox="0 0 25 19"><path d="M0 0h25v19H0z" style="fill:#00247d;fill-opacity:1;stroke:none"/><path d="M4.223 14.035c-.262-.004 2.453-1.465 4.722-3.34 2.977-2.457 9.387-6.386 11.274-7.03.195-.067-.403.339-.48.472-2.012 2.414-.407 6.965 2.109 9.258.757.585.718.617 2.12.671v.137Zm-.164.266s-.192.14-.192.242c0 .113.215.266.215.266l19.473.218.36-.242-.5-.312Zm0 0" style="stroke:none;fill-rule:nonzero;fill:#fed100;fill-opacity:1"/><path d="m4.172 4.32-.156.48.406-.296.402.297-.152-.48.402-.298h-.5l-.152-.484-.156.484h-.5Zm3.05 2.27.337-.25H7.14l-.13-.399-.128.399h-.414l.336.25-.13.402.337-.25.34.25Zm-5.671.515-.156-.484-.153.484h-.5l.403.297-.153.485.403-.297.406.297-.156-.485.406-.297Zm3.05 4.84-.18-.562-.179.562h-.586l.473.344-.18.566.473-.347.473.347-.184-.566.473-.344Zm0 0" style="stroke:none;fill-rule:nonzero;fill:#fff;fill-opacity:1"/></svg>