<?xml version="1.0" encoding="UTF-8"?>
<svg xmlns="http://www.w3.org/2000/svg" xmlns:xlink="http://www.w3.org/1999/xlink" width="25px" height="px" viewBox="0 0 25 19" version="1.1">
<g id="surface1">
<rect x="0" y="0" width="25" height="19" style="fill:rgb(0%,14.117648%,49.019608%);fill-opacity:1;stroke:none;"/>
<path style=" stroke:none;fill-rule:nonzero;fill:rgb(99.607843%,81.960785%,0%);fill-opacity:1;" d="M 4.222656 14.035156 C 3.960938 14.03125 6.675781 12.570312 8.945312 10.695312 C 11.921875 8.238281 18.332031 4.308594 20.21875 3.664062 C 20.414062 3.597656 19.816406 4.003906 19.738281 4.136719 C 17.726562 6.550781 19.332031 11.101562 21.847656 13.394531 C 22.605469 13.980469 22.566406 14.011719 23.96875 14.066406 L 23.96875 14.203125 Z M 4.058594 14.300781 C 4.058594 14.300781 3.867188 14.441406 3.867188 14.542969 C 3.867188 14.65625 4.082031 14.808594 4.082031 14.808594 L 23.554688 15.027344 L 23.914062 14.785156 L 23.414062 14.472656 Z M 4.058594 14.300781 "/>
<path style=" stroke:none;fill-rule:nonzero;fill:rgb(100%,100%,100%);fill-opacity:1;" d="M 4.171875 4.320312 L 4.015625 4.800781 L 4.421875 4.503906 L 4.824219 4.800781 L 4.671875 4.320312 L 5.074219 4.023438 L 4.574219 4.023438 L 4.421875 3.539062 L 4.265625 4.023438 L 3.765625 4.023438 Z M 7.222656 6.589844 L 7.558594 6.339844 L 7.140625 6.339844 L 7.011719 5.941406 L 6.882812 6.339844 L 6.46875 6.339844 L 6.804688 6.589844 L 6.675781 6.992188 L 7.011719 6.742188 L 7.351562 6.992188 Z M 1.550781 7.105469 L 1.394531 6.621094 L 1.242188 7.105469 L 0.742188 7.105469 L 1.144531 7.402344 L 0.992188 7.886719 L 1.394531 7.589844 L 1.800781 7.886719 L 1.644531 7.402344 L 2.050781 7.105469 Z M 4.601562 11.945312 L 4.421875 11.382812 L 4.242188 11.945312 L 3.65625 11.945312 L 4.128906 12.289062 L 3.949219 12.855469 L 4.421875 12.507812 L 4.894531 12.855469 L 4.710938 12.289062 L 5.183594 11.945312 Z M 4.601562 11.945312 "/>
</g>
</svg>
