<svg xmlns="http://www.w3.org/2000/svg" width="25" height="px" viewBox="0 0 25 19"><path d="M0 0h25v19H0z" style="fill:#00843d;fill-opacity:1;stroke:none"/><path d="M13.969 2.098a2.375 2.375 0 0 1 .027 4.265c-.809.399-1.77.29-2.473-.281a2.31 2.31 0 0 0 2.883-.926 2.39 2.39 0 0 0-.449-3.035ZM11.758 3.84l.25-.824-.692.511h.856l-.695-.511Zm0-1.211.25-.824-.692.511h.856l-.695-.523Zm1.18.617.25-.824-.696.512h.86l-.696-.512Zm-2.383 1.2.27-.825-.696.508h.86l-.696-.508Zm1.183.609.266-.82-.691.507h.855l-.695-.508Zm0 0" style="stroke:none;fill-rule:nonzero;fill:#fff;fill-opacity:1"/><path d="M3.383 0h5.062v19H3.383Zm0 0" style="stroke:none;fill-rule:nonzero;fill:#d22630;fill-opacity:1"/><path d="M4.61 0h-.165l-.324.3-.117-.132h.117L4.09.047h-.192L3.5.402v.153h.195V.434l.086.09-.207.18.098.089-.293.27v.195l.488-.453-.086-.106.192-.18-.164-.164.105-.117.219.203ZM3.397 0v.344l.098-.106V.09h.117l.11-.09Zm.883 0h-.117l.016.09Zm0 0" style="stroke:none;fill-rule:nonzero;fill:#383739;fill-opacity:1"/><path d="M4.594 0h-.149l-.312.3-.145-.148h.133L4.09.043h-.176l-.387.375v.121h.149V.387l.133.136-.207.18.09.09-.297.3v.15l.445-.45-.09-.09.207-.18L3.781.36 3.93.227l.203.207L4.578 0ZM3.383 0v.328l.086-.101V.074h.133L3.692 0Zm.883 0h-.07v.059Zm0 0" style="stroke:none;fill-rule:nonzero;fill:#ffc72c;fill-opacity:1"/><path d="M3.383 2.2v.195l.281.27-.105.085.207.2-.09.07v-.118H3.5v.149l.398.379h.196l.027-.153h-.137l.118-.105.324.3-.324.27-.118-.11h.118l-.032-.144H3.88l-.383.403v.148h.195v-.148l.086.086-.207.183.102.102-.293.27v.183l.488-.453-.086-.102.192-.183-.164-.16.105-.11.219.184.488-.45-.488-.449-.219.211-.105-.11.164-.16-.196-.199.09-.082-.469-.453Zm0 .894v.722l.101-.12v-.15h.118l.105-.089-.105-.094h-.118V3.22Zm.812.258v.195l.102-.09Zm0 0" style="stroke:none;fill-rule:nonzero;fill:#383739;fill-opacity:1"/><path d="M3.383 2.23v.149l.293.285-.086.086.207.2-.133.1v-.132h-.148v.117l.382.375h.176l.031-.105h-.148l.164-.149.34.301-.34.3-.148-.152h.132l-.03-.09h-.177l-.382.356v.121h.148v-.148l.133.133-.207.183.086.102-.293.285v.152l.441-.453-.09-.086.207-.183-.175-.16.148-.137.219.21.46-.433-.472-.437-.223.21-.132-.12.175-.16-.207-.2.106-.086Zm0 .899v.656l.086-.09v-.148h.133l.09-.09-.09-.078h-.133V3.23Zm.824.25v.137l.078-.059Zm0 0" style="stroke:none;fill-rule:nonzero;fill:#ffc72c;fill-opacity:1"/><path d="M3.383 5.773v.211l.281.27-.105.09.207.18-.09.09v-.118H3.5v.145L3.898 7h.196l.027-.121h-.137l.118-.117.324.285-.324.3-.118-.136h.118l-.032-.133H3.88l-.399.371v.153h.208V7.48l.09.075-.208.195.102.086-.293.273v.196l.488-.453-.086-.102.192-.2-.164-.144.105-.117.219.191.488-.449-.488-.449-.219.211-.105-.121.164-.149-.196-.199.09-.086-.469-.445Zm0 .899v.703l.101-.105V7.12h.118l.105-.09-.105-.105h-.118v-.133Zm.812.254v.199l.102-.105Zm0 0" style="stroke:none;fill-rule:nonzero;fill:#383739;fill-opacity:1"/><path d="M3.383 5.793v.144l.293.301-.082.094.207.18-.133.117v-.145h-.152v.145l.382.344h.176l.031-.102h-.148l.164-.148.34.3-.34.313-.148-.152h.132l-.03-.102h-.177l-.382.371v.121h.148v-.148l.133.117-.207.195.086.09-.293.297v.152l.441-.449-.09-.09.207-.199-.175-.144.148-.153.219.238.46-.445-.472-.418-.223.207-.132-.133.175-.148-.207-.2.106-.085Zm0 .894v.672l.086-.105v-.149h.133l.09-.074-.09-.09h-.133v-.148l-.086-.09Zm.824.266v.137l.078-.07Zm0 0" style="stroke:none;fill-rule:nonzero;fill:#ffc72c;fill-opacity:1"/><path d="M3.383 9.348v.183l.281.27-.105.086.207.199-.09.086v-.117H3.5v.148l.398.36h.196l.027-.137h-.137l.118-.102.324.285-.324.282-.118-.121h.118l-.032-.133H3.88l-.399.375v.152h.208v-.121l.09.07-.208.2.102.085-.293.27v.2l.488-.458-.086-.105.192-.196-.164-.148.105-.117.219.207.488-.446-.488-.453-.219.2-.105-.106.164-.152-.196-.211.09-.086-.469-.453Zm0 .902v.703l.101-.121v-.137h.118l.109-.086-.106-.109h-.117v-.129Zm.812.25v.2l.102-.106Zm0 0" style="stroke:none;fill-rule:nonzero;fill:#383739;fill-opacity:1"/><path d="M3.383 9.367v.149l.293.297-.086.078.207.191-.133.117v-.144h-.148v.133l.382.359h.176l.031-.106h-.148l.164-.148.34.3-.34.317-.148-.156h.132l-.03-.102h-.177l-.382.356v.14h.148v-.152l.133.117-.207.2.082.085-.293.301v.149l.445-.45-.09-.09.207-.195-.175-.148.148-.149.219.223.46-.445-.472-.422-.223.21-.132-.132.175-.152-.207-.211.106-.086Zm0 .899v.672l.086-.11v-.14h.133l.09-.079-.09-.09h-.133v-.148l-.086-.086Zm.824.265v.137l.078-.078Zm0 0" style="stroke:none;fill-rule:nonzero;fill:#ffc72c;fill-opacity:1"/><path d="M3.383 12.93v.175l.281.27-.105.09.207.195-.09.074v-.117H3.5v.145l.398.379h.196l.027-.137h-.137l.118-.117.324.297-.324.285-.118-.121h.118l-.032-.133H3.88l-.399.37v.153h.208v-.136l.09.085-.208.2.102.086-.293.27v.183l.488-.453-.086-.086.192-.2-.164-.16.105-.105.219.207.488-.445-.488-.45-.219.196-.105-.106.164-.164-.196-.2.09-.081Zm0 .894v.703l.101-.117v-.137h.118l.105-.105-.105-.09h-.118v-.148Zm.812.254v.18l.102-.09Zm0 0" style="stroke:none;fill-rule:nonzero;fill:#383739;fill-opacity:1"/><path d="M3.383 12.945v.145l.289.289-.086.09.207.195-.133.117v-.148h-.144v.133l.382.359h.176l.031-.105h-.148l.164-.145.34.297-.34.316-.148-.152h.132l-.03-.106h-.177l-.382.36v.137h.148v-.153l.133.117-.207.2.086.086-.293.3v.137l.441-.453-.09-.078.207-.195-.175-.16.148-.137.219.21.46-.433-.472-.438-.223.215-.132-.117.175-.168-.207-.2.106-.085Zm0 .895v.672l.086-.09v-.149h.133l.09-.09-.09-.074h-.133v-.152l-.086-.102Zm.824.25v.152l.078-.074Zm0 0" style="stroke:none;fill-rule:nonzero;fill:#ffc72c;fill-opacity:1"/><path d="M7.207 0h.176l.297.3.148-.148h-.117l.027-.12h.192l.398.355v.152h-.203V.418l-.09.094.207.176-.101.093.297.27v.191L7.945.793l.086-.106L7.84.513l.164-.168-.106-.117-.218.222Zm1.238 0v.344L8.328.238V.09h-.117L8.105 0Zm-.93 0h.118L7.62.09Zm0 0" style="stroke:none;fill-rule:nonzero;fill:#383739;fill-opacity:1"/><path d="M7.234 0h.118l.343.3.145-.148h-.133l.031-.109h.176l.387.375v.121h-.149V.387l-.117.136.192.18-.09.106.297.285v.148L7.988.793l.09-.09-.207-.18.176-.164-.149-.132-.191.222L7.227 0Zm1.211 0v.328L8.344.227V.074H8.21L8.133 0Zm-.914 0h.09v.059Zm0 0" style="stroke:none;fill-rule:nonzero;fill:#ffc72c;fill-opacity:1"/><path d="M8.445 2.2v.195l-.293.27.102.085-.207.2.09.07v-.118h.175v.149l-.398.379h-.191l-.028-.153h.117l-.117-.105-.312.3.297.27.133-.11h-.118l.028-.144h.195l.394.387v.152h-.187v-.136l-.09.086.207.183-.101.102.297.27v.183l-.489-.453.086-.102-.191-.183.164-.16-.106-.11-.218.184-.497-.45.489-.449.219.211.105-.11-.164-.16.195-.199-.09-.086.489-.449Zm0 .894v.722l-.117-.12v-.15h-.117l-.106-.089.106-.094h.117V3.22Zm-.824.258.012.105-.012.09-.105-.09Zm0 0" style="stroke:none;fill-rule:nonzero;fill:#383739;fill-opacity:1"/><path d="M8.445 2.23v.149l-.324.27.09.09-.195.195.117.101v-.133h.152v.118l-.387.375h-.175l-.028-.106h.145l-.16-.144-.34.296.34.301.148-.152h-.133l.028-.09h.175l.387.36v.117h-.148v-.145l-.117.133.19.18-.089.101.297.285v.153l-.45-.45.09-.09-.206-.18.175-.163-.144-.137-.207.211-.473-.434.469-.437.223.215.132-.121-.175-.164.207-.2-.102-.086Zm0 .899v.656l-.101-.09v-.148H8.21l-.078-.09.078-.078h.133V3.23Zm-.84.25.016.082v.055l-.09-.059Zm0 0" style="stroke:none;fill-rule:nonzero;fill:#ffc72c;fill-opacity:1"/><path d="M8.445 5.773v.211l-.293.27.102.09-.207.18.09.09v-.118h.175v.145L7.915 7h-.191l-.043-.121h.117l-.117-.117-.297.27.297.3.133-.137h-.118l.028-.133h.195l.394.372v.152h-.187v-.121l-.09.074.207.195-.101.09.297.27v.195l-.493-.453.086-.102-.191-.199.164-.144-.106-.121-.218.21-.489-.449.489-.449.218.211.106-.121-.164-.149.195-.199-.09-.086.489-.445Zm0 .899v.703l-.117-.105V7.12h-.117l-.106-.09.106-.105h.117v-.133Zm-.824.254.012.094-.012.101-.105-.101Zm0 0" style="stroke:none;fill-rule:nonzero;fill:#383739;fill-opacity:1"/><path d="M8.445 5.793v.144l-.312.301.094.09-.196.18.117.117V6.48h.153v.145l-.387.344h-.176l-.031-.102h.148l-.175-.133-.34.297.34.317.148-.153h-.133l.028-.105h.175l.387.375v.12h-.148v-.151l-.117.117.19.199-.089.086.297.3v.153l-.45-.453.09-.086-.206-.2.175-.144-.144-.152-.207.226-.473-.449.469-.418.223.207.132-.133-.175-.148.207-.2-.102-.085Zm0 .894v.672l-.101-.105v-.149H8.21l-.078-.074.078-.09h.133v-.148l.101-.09Zm-.84.266.016.067v.07l-.09-.07Zm0 0" style="stroke:none;fill-rule:nonzero;fill:#ffc72c;fill-opacity:1"/><path d="M8.445 9.348v.183l-.293.27.102.086-.207.199.09.086v-.117h.175v.148l-.398.36h-.191l-.028-.137h.117l-.117-.102-.312.285.297.282.133-.121h-.118l.028-.133h.195l.394.375v.152h-.187v-.121l-.09.07.207.2-.101.085.297.27v.2l-.489-.454.086-.105-.191-.196.164-.148-.106-.117-.218.207-.497-.446.489-.453.219.2L8 10.25l-.164-.152.195-.211-.09-.086.489-.453Zm0 .902v.703l-.117-.121v-.137h-.117l-.106-.086.106-.109h.117v-.129Zm-.824.25.012.094-.012.101-.105-.101Zm0 0" style="stroke:none;fill-rule:nonzero;fill:#383739;fill-opacity:1"/><path d="M8.445 9.367v.149l-.312.297.094.078-.196.191.117.117v-.144h.153v.133l-.387.359h-.176l-.031-.106h.148l-.16-.148-.34.3.34.317.145-.156h-.133l.031-.102h.176l.387.356v.14h-.149v-.152l-.117.117.192.2-.09.085.297.301v.149l-.446-.45.09-.09-.207-.195.176-.148-.149-.149-.203.223-.472-.445.468-.422.223.21.133-.132-.176-.152.207-.211-.105-.086Zm0 .899v.672l-.101-.11v-.14H8.21l-.078-.079.078-.09h.133v-.148l.101-.086Zm-.84.265.016.063v.074l-.09-.078Zm0 0" style="stroke:none;fill-rule:nonzero;fill:#ffc72c;fill-opacity:1"/><path d="M8.445 12.93v.175l-.293.27.102.09-.207.195.09.074v-.117h.175v.145l-.398.379h-.191l-.028-.137h.117l-.117-.117-.312.297.297.285.133-.121h-.118l.028-.133h.195l.394.37v.153h-.187v-.136l-.09.085.207.2-.101.086.297.27v.183l-.489-.453.086-.086-.191-.2.164-.16-.106-.105-.218.207-.489-.445.489-.45.218.196.106-.106-.164-.164.195-.2-.09-.085Zm0 .894v.703l-.117-.117v-.137h-.117l-.106-.105.106-.09h.117v-.148Zm-.824.254.012.09-.012.09-.105-.09Zm0 0" style="stroke:none;fill-rule:nonzero;fill:#383739;fill-opacity:1"/><path d="M8.445 12.945v.145l-.32.289.09.09-.195.195.117.117v-.148h.152v.133l-.387.359h-.175l-.028-.105h.145l-.16-.145-.34.297.34.316.148-.152h-.137l.028-.106h.175l.387.36v.137h-.148v-.153l-.117.117.19.2-.089.086.297.3v.137l-.45-.453.09-.078-.206-.195.175-.16-.144-.137-.207.21-.473-.433.469-.438.223.215.132-.117-.175-.168.207-.2-.102-.085Zm0 .895v.672l-.101-.09v-.149H8.21l-.078-.09.078-.074h.133v-.152l.101-.102Zm-.84.25.016.082v.07l-.09-.074ZM3.781 16.816c.028.106.117.18.149.301.027-.12.058-.226.039-.347-.028-.09-.102-.149-.102-.25-.086.07-.101.175-.086.296m-.015.45a.7.7 0 0 0 .28.222c-.03-.086 0-.152.06-.222.042-.078.074-.149.027-.258a.5.5 0 0 1-.07.137.4.4 0 0 0-.09.207c-.059-.043-.075-.102-.106-.16a.53.53 0 0 0-.203-.212c.027.106.04.196.102.286m.398.297-.031.152-.16-.121c-.075-.078-.164-.106-.223-.196 0 .114.059.22.148.286l.313.195c-.016-.106.027-.195.055-.3a.28.28 0 0 0-.059-.24c0 .075-.027.15-.043.208Zm.207.343.117.211a1.5 1.5 0 0 1-.293-.148c-.105-.063-.222-.09-.328-.18a.51.51 0 0 0 .356.356c.132.03.234.015.382.078a1.2 1.2 0 0 0-.101-.301l-.09-.207a.23.23 0 0 0-.043.195Zm.383.285q.06.094.148.153c-.148 0-.265-.078-.414-.094-.086 0-.176.035-.265.02.117.074.222.148.351.148.164.027.328 0 .52 0a.7.7 0 0 1-.192-.227c-.074-.117-.148-.195-.28-.207l.148.207Zm.52.239c-.254.047-.504.105-.77.105.277.121.59.125.871.016.148-.047.281-.09.398-.078.176 0 .383.093.622.332l.09-.075a1.39 1.39 0 0 0-1.212-.3" style="stroke:none;fill-rule:nonzero;fill:#ffc72c;fill-opacity:1"/><path d="m4.016 2.23-.414-.25V1.38l.414-.258V.793l.37-.223H4.7l.586-.343h1.242l.59.343h.297l.414.223v.328l.399.258v.594l-.399.257v.317l-.387.234H7.13l-.586.328H5.301l-.59-.328h-.297L4 2.547Zm0 0" style="stroke:none;fill-rule:nonzero;fill:#383739;fill-opacity:1"/><path d="M5.285.238 4.7.582h-.297l-.386.227v.316l-.399.254v.594l.399.238v.336l.386.219h.293l.59.328h1.242l.59-.328h.297l.383-.22v-.335l.398-.234v-.598l-.398-.258V.81L7.414.582h-.297l-.59-.344Zm.031.133h1.18l.594.332h.293l.297.164v.328l.398.258v.445l-.414.254v.317l-.281.18H7.09l-.594.328h-1.18l-.59-.325H4.43l-.297-.18v-.316l-.399-.258v-.445l.414-.258V.871l.297-.164h.293Zm0 0" style="stroke:none;fill-rule:nonzero;fill:#00843d;fill-opacity:1"/><path d="M5.906 1.676V.37h-.59l-.578.344h-.293l-.297.152v.328l-.398.258v.211h2.156v1.297h.59l.594-.328h.293l.265-.164v-.332l.415-.254v-.207Zm0 0" style="stroke:none;fill-rule:nonzero;fill:#ffc72c;fill-opacity:1"/><path d="M3.75 1.676v.207l.414.254v.332l.266.148h.312l.586.344h.578V1.664h2.157v-.21l-.415-.259V.898L7.383.711H7.09L6.496.367H5.91v1.309Zm0 0" style="stroke:none;fill-rule:nonzero;fill:#fff;fill-opacity:1"/><path d="M4.637.84 4.535.73l-.09.063.102.105-.145.075h.293l.235.238.078-.09L4.77.898V.75Zm0 0" style="stroke:none;fill-rule:nonzero;fill:#383739;fill-opacity:1"/><path d="m5.11.793-.102-.09-.09.063.102.086L4.87.93h.297l.234.238.078-.09-.222-.226V.703Zm-.505.3L4.504 1l-.102.082.102.086-.133.074h.297l.234.238.075-.09-.235-.222v-.152Zm0 0" style="stroke:none;fill-rule:nonzero;fill:#383739;fill-opacity:1"/><path d="M5.906.371h-.25l-.133.121h-.265l-.18.106.047.105.16-.09h.078l.262.301.281-.164Zm0 0" style="stroke:none;fill-rule:nonzero;fill:#383739;fill-opacity:1"/><path d="m4.531.75.09.09-.074.043L4.46.809Zm.239.031v.117l.222.223-.058.063-.235-.227h-.238l.293-.195Zm.234-.066.09.082-.074.055-.086-.086Zm.238 0V.87l.223.211-.059.074-.234-.254h-.238L5.227.72Zm0 0" style="stroke:none;fill-rule:nonzero;fill:#d22630;fill-opacity:1"/><path d="m4.504 1.027.09.082-.078.043-.086-.074Zm.223 0v.16l.234.208-.059.062-.234-.227h-.234Zm1.18-.656h-.25l-.134.152h-.25l-.18.079.032.086.148-.094h.102l.234.3.297-.148Zm0 0" style="stroke:none;fill-rule:nonzero;fill:#d22630;fill-opacity:1"/><path d="m4.637 2.512-.102.093-.09-.058.102-.094-.145-.09h.293l.235-.226.078.093-.242.223v.152Zm0 0" style="stroke:none;fill-rule:nonzero;fill:#383739;fill-opacity:1"/><path d="m5.11 2.547-.102.101-.09-.058.102-.094-.149-.086h.297l.234-.226.078.078-.222.218v.153Zm-.505-.3-.101.089-.102-.063.102-.09-.133-.09h.297l.234-.226.075.082-.235.219v.152Zm0 0" style="stroke:none;fill-rule:nonzero;fill:#383739;fill-opacity:1"/><path d="M5.906 2.977h-.25l-.133-.133h-.265l-.18-.094.047-.117.16.09h.078l.262-.301.297.183Zm0 0" style="stroke:none;fill-rule:nonzero;fill:#383739;fill-opacity:1"/><path d="m4.531 2.59.09-.094-.074-.043-.086.094Zm.239-.016v-.136l.222-.227-.058-.059-.235.227h-.238l.293.2Zm.234.059.09-.086-.074-.05-.086.093Zm.238-.016V2.47l.223-.207-.059-.063-.234.223h-.238l.293.2Zm0 0" style="stroke:none;fill-rule:nonzero;fill:#d22630;fill-opacity:1"/><path d="m4.504 2.32.09-.09-.078-.046-.086.09Zm.223-.015v-.137l.234-.223-.059-.062-.234.226h-.234Zm1.18.656h-.25l-.134-.133h-.25l-.18-.09.032-.078.148.078h.102l.25-.3.281.167Zm0 0" style="stroke:none;fill-rule:nonzero;fill:#d22630;fill-opacity:1"/><path d="m4.473 1.254-.118-.04-.16.102v.032l-.254.328.254.316v.028l.145.117.133-.04-.07-.062v-.09l.027-.03h.133v-.478h-.149l-.012-.03v-.102Zm0 0" style="stroke:none;fill-rule:nonzero;fill:#383739;fill-opacity:1"/><path d="m4.207 1.328.148-.101.09.027-.058.047v.105l.027.047h.133v.445h-.133l-.027.047v.106l.058.027-.09.047-.148-.105v-.028l-.25-.316.25-.328Zm0 0" style="stroke:none;fill-rule:nonzero;fill:#d22630;fill-opacity:1"/><path d="M7.176.84 7.28.73l.086.063-.086.105.117.075h-.28l-.235.238-.078-.09.238-.223V.75Zm0 0" style="stroke:none;fill-rule:nonzero;fill:#383739;fill-opacity:1"/><path d="m6.703.793.106-.09.086.063-.086.086.117.078H6.64l-.235.238-.078-.09.238-.226V.703Zm.504.3L7.309 1l.105.082-.105.086.132.074h-.293l-.222.254-.074-.09.234-.222v-.157Zm0 0" style="stroke:none;fill-rule:nonzero;fill:#383739;fill-opacity:1"/><path d="M5.906.371h.25l.149.121h.25l.195.106-.047.105-.176-.09h-.074l-.266.301-.28-.164Zm0 0" style="stroke:none;fill-rule:nonzero;fill:#383739;fill-opacity:1"/><path d="m7.281.75-.09.09.075.043.09-.074ZM7.06.781v.117l-.235.223.059.063.234-.227h.235L7.059.762ZM6.793.715l-.09.082.078.055.086-.086Zm-.223 0V.87l-.218.211.058.074.235-.254h.234L6.586.72Zm0 0" style="stroke:none;fill-rule:nonzero;fill:#d22630;fill-opacity:1"/><path d="m7.309 1.027-.086.082.07.043.09-.074Zm-.22 0v.16l-.237.208.058.062.235-.227h.238ZM5.907.375h.25l.133.152h.254l.176.078-.032.086-.144-.09h-.09l-.266.301-.28-.148Zm0 0" style="stroke:none;fill-rule:nonzero;fill:#d22630;fill-opacity:1"/><path d="m7.176 2.512.105.093.086-.058-.086-.094.117-.09h-.28l-.235-.226-.078.093.238.223v.152Zm0 0" style="stroke:none;fill-rule:nonzero;fill:#383739;fill-opacity:1"/><path d="m6.703 2.547.106.101.086-.058-.086-.094.117-.086H6.64l-.235-.226-.078.078.238.218v.153Zm.504-.3.098.089.105-.063-.105-.09.133-.09h-.29l-.234-.226-.078.082.234.219v.152Zm0 0" style="stroke:none;fill-rule:nonzero;fill:#383739;fill-opacity:1"/><path d="M5.906 2.977h.25l.149-.133h.25l.195-.094-.047-.117-.176.09h-.074l-.266-.301-.28.183Zm0 0" style="stroke:none;fill-rule:nonzero;fill:#383739;fill-opacity:1"/><path d="m7.281 2.59-.093-.098.078-.039.09.094Zm-.222-.016v-.136l-.235-.227.059-.059.234.227h.235Zm-.25.059-.09-.086.074-.05.09.093Zm-.223-.016V2.47l-.234-.196.054-.058.235.226h.234l-.293.2Zm0 0" style="stroke:none;fill-rule:nonzero;fill:#d22630;fill-opacity:1"/><path d="m7.309 2.32-.086-.09.07-.046.09.09Zm-.22-.015v-.137l-.237-.223.058-.062.235.226h.238Zm-1.183.656h.25l.133-.133h.254l.176-.09-.032-.078-.144.078h-.09l-.266-.3-.28.167Zm0 0" style="stroke:none;fill-rule:nonzero;fill:#d22630;fill-opacity:1"/><path d="m7.34 1.254.117-.04.164.102v.032l.25.328-.25.316v.028l-.148.117-.133-.04.074-.062v-.09l-.031-.03H7.25v-.478h.148l.016-.03v-.102Zm0 0" style="stroke:none;fill-rule:nonzero;fill:#383739;fill-opacity:1"/><path d="m7.605 1.328-.148-.101-.09.027.059.047v.105l-.028.047h-.132v.445h.132l.028.047v.106l-.059.027.09.047.148-.105v-.028l.25-.316-.25-.328Zm0 0" style="stroke:none;fill-rule:nonzero;fill:#d22630;fill-opacity:1"/><path d="m4.254 1.945-.059-.062v-.024l-.148-.18.148-.179v-.035l.059-.059.133.106h-.078l.105.101h.234l.196-.148v-.387H5.3L5.848.73V.645l-.09-.047-.102.078v.039L5.578.613 5.73.496l.16-.11h.06l.148.11h.03l.15.117-.079.102-.011-.04-.106-.077h-.027l-.09.058v.098l.547.344h.472v.386l.176.153h.235L7.5 1.53h-.059l.118-.105.062.058v.032l.145.18-.145.175v.031l-.062.063-.118-.106H7.5l-.102-.105h-.234l-.18.148v.391h-.488l-.547.328v.09l.09.059h.016l.101-.06v-.042l.078.102-.136.109h-.016l-.16.117h-.063l-.148-.117H5.68l-.145-.121.086-.09v.043l.106.059h.015l.086-.06v-.089l-.547-.328h-.457v-.395l-.191-.148h-.235l-.101.11h.074Zm0 0" style="stroke:none;fill-rule:nonzero;fill:#383739;fill-opacity:1"/><path d="m5.906 2.77.074.039-.074.05Zm-.176.074.149.117h.027v-.086l-.086-.066.09-.063v-.172l-.59-.36h-.43v-.359l-.218-.18h-.34l-.078.106-.086-.105h-.106l.145.164v.027l.047.067.086-.082H4.3V1.84l.102-.117h.25l.207.144v.395h.442l.562.343v.102l-.09.059H5.73l-.09-.059V2.68l-.058.058.117.106ZM4.254 1.586l.059.078H4.18ZM5.906.496 5.848.54l.058.043ZM7.5 1.691l.059.059.078-.074ZM6.082.496 5.938.375h-.032v.09l.09.078-.09.055v.156l.59.355h.43V1.5l.222.164h.34l.07-.094.09.094h.106l-.149-.152v-.047l-.046-.04-.086.071h.043l-.102.133H7.16L6.97 1.48v-.402H6.5L5.953.75V.645L6.04.582h.043l.09.063v.027L6.23.598 6.113.496Zm0 0" style="stroke:none;fill-rule:nonzero;fill:#ffc72c;fill-opacity:1"/><path d="m5.906 2.86-.058-.047.058-.047ZM4.313 1.675l-.06.078-.077-.078Zm1.769 1.168-.144.117h-.032v-.086l.09-.062-.09-.063v-.176l.59-.36h.43v-.359l.222-.18h.34l.07.106.09-.105h.106l-.149.164v.027l-.046.067-.086-.082h.043V1.84l-.102-.117H7.16l-.191.144v.395H6.5l-.562.343v.102l.085.059h.047l.086-.059V2.68l.059.058-.117.106Zm1.477-1.258-.059.078h.133ZM5.73.496 5.88.375h.027v.09l-.09.078.09.055v.156l-.59.355h-.43V1.5l-.218.152h-.34L4.25 1.56l-.086.093h-.101l.144-.152v-.043l.047-.047.086.078H4.3l.102.13h.25l.207-.15v-.386h.442l.578-.328V.648l-.09-.062h-.047l-.09.062v.028L5.594.602 5.71.5h.031Zm.176.102L5.98.555 5.906.512Zm0 0" style="stroke:none;fill-rule:nonzero;fill:#fff;fill-opacity:1"/><path d="M5.906 1.676V.78l-.59.356h-.414v.36l-.207.167h1.211v.895l.59-.36h.418v-.344l.207-.18Zm0 0" style="stroke:none;fill-rule:nonzero;fill:#00843d;fill-opacity:1"/><path d="m4.695 1.676.207.18v.343h.414l.59.36v-.895h1.211l-.207-.168v-.355h-.414L5.91.78v.895Zm0 0" style="stroke:none;fill-rule:nonzero;fill:#d22630;fill-opacity:1"/><path d="m5.285 1.242-.101-.105-.09.078.09.086-.118.078h.278l.234.234.078-.086-.234-.226v-.153Zm1.242.867.102.09.105-.062-.105-.086.117-.09h-.25l-.25-.227-.074.079.234.222v.149Zm-1.242 0-.101.09-.09-.062.09-.086-.118-.09h.278l.234-.227.078.079-.234.222v.149Zm1.242-.87.102-.102.105.078-.105.086.117.078h-.25l-.25.234-.074-.086.234-.226v-.153Zm0 0" style="stroke:none;fill-rule:nonzero;fill:#383739;fill-opacity:1"/><path d="m6.629 2.184-.086-.09.074-.043.086.086Zm-.219-.016v-.133l-.234-.226.054-.059.235.227h.238Zm-1.242-1 .09.074-.078.043-.086-.074Zm.223 0v.148l.234.211-.059.059-.234-.223h-.234l.293-.18Zm0 0" style="stroke:none;fill-rule:nonzero;fill:#d22630;fill-opacity:1"/><path d="m6.629 1.168-.086.074.074.043.086-.074Zm-.219 0v.148l-.234.211.054.059.235-.223h.238ZM5.168 2.195l.09-.086-.078-.043-.086.086Zm.223-.011V2.05l.234-.227-.059-.058-.234.226h-.234Zm0 0" style="stroke:none;fill-rule:nonzero;fill:#00843d;fill-opacity:1"/><path d="m6.523 1.676-.613.422-.62-.418.624-.422Zm0 0" style="stroke:none;fill-rule:nonzero;fill:#383739;fill-opacity:1"/><path d="m5.906 1.27-.59.394h1.18Zm0 0v.793l.586-.387h-1.18l.59.39Zm0 0" style="stroke:none;fill-rule:nonzero;fill:#fff;fill-opacity:1"/><path d="M6.07 1.809v.117h-.312v-.117h-.219v-.282h.219V1.41h.297v.117h.222v.293Zm0 0" style="stroke:none;fill-rule:nonzero;fill:#383739;fill-opacity:1"/><path d="M5.758 1.426v.117h-.219v.121h.367v-.238Zm.148.238h.371v-.121h-.222v-.117h-.149Zm-.367.012v.133h.219v.105h.148V1.68Zm.367.234h.149V1.81h.222v-.133h-.37Zm0 0" style="stroke:none;fill-rule:nonzero;fill:#d22630;fill-opacity:1"/><path d="M6.969 6.45v-.18h.504v-.2h.488V4.414h-.488v-.2h-.504V4.04h-.5v-.18H5.344v.18h-.5v.18h-.508v.195h-.48v1.66h.48v.207h.508v.153h.5v.18h1.125v-.18Zm0 0" style="stroke:none;fill-rule:nonzero;fill:#383739;fill-opacity:1"/><path d="M5.36 3.875v.164H4.87v.18h-.496v.195h-.492V6.06h.492v.18h.5v.199h.504v.175h1.094v-.18h.5v-.18h.504v-.198h.492v-1.64h-.5v-.18h-.532v-.18h-.503v-.176Zm.148.137h.812v.176h.5v.183h.504v.191h.504v1.364h-.504v.21H6.82v.145h-.5v.184h-.828V6.28h-.5v-.144h-.504v-.2H4V4.579h.492v-.195h.504v-.195h.5Zm0 0" style="stroke:none;fill-rule:nonzero;fill:#ffc72c;fill-opacity:1"/><path d="M5.02 6.281v-.176h-.516v-.18H4V4.579h.504v-.195h.516v-.18h.503v-.176h.797v.16h.5v.184h.504v.191h.504V5.91h-.504v.18h-.531v.195h-.504v.195h-.797v-.199Zm0 0" style="stroke:none;fill-rule:nonzero;fill:#d22630;fill-opacity:1"/><path d="m5.125 4.34-.133-.106v.196l-.117.074v-.117l-.117.117-.121-.117v.117l-.149-.078v.164l-.101.094v-.106l-.149.09-.117-.09v.106l-.137-.094v.527h-.148v.27h.148v.523l.133-.09v.117l.133-.101.133.101V5.82l.101.09v.18L4.633 6v.121L4.75 6l.117.121v-.137l.117.075v.195l.137-.106v.133l.133-.117.117.117v-.144l.117.086v.21l.18-.163v.18l.234-.153.235.152v-.168l.18.153v-.196l.117-.09v.133l.117-.117.148.117v-.144l.117.101V6.04l.118-.07v.12l.12-.12.118.12v-.105l.148.086v-.172l.102-.09v.118l.148-.102.117.106v-.117l.137.085v-.507h.145v-.258h-.145v-.52l-.133.09V4.59l-.136.094-.133-.094v.11l-.102-.09v-.165l-.148.07v-.117l-.117.118-.117-.118v.118l-.118-.07v-.2l-.136.11v-.137l-.118.12-.148-.12v.136l-.102-.093V4.07l-.175.149v-.18l-.235.149-.238-.149v.149l-.18-.149v.195l-.117.09v-.136l-.117.12-.133-.12Zm0 0" style="stroke:none;fill-rule:nonzero;fill:#383739;fill-opacity:1"/><path d="M4.133 4.71v-.12l.117.094.121-.094v.12l.117-.1v1.269l-.117-.086v.102l-.117-.09-.117.09v-.102L4 5.879v-.524h-.145V5.13H4v-.52Zm1.008-.476.117.106.101-.106v.137l.133-.11v1.954l-.133-.09v.133l-.101-.106-.117.106v-.133l-.133.102V4.28l.133.094Zm1.535 0-.106.106-.117-.106v.137l-.133-.11v1.954l.133-.09v.133l.117-.106.106.106v-.133l.133.102V4.28l-.133.094Zm1.004.477V4.59l-.117.094-.118-.094v.12l-.12-.1v1.269l.116-.086v.102l.118-.09.117.09v-.102l.136.086v-.524h.149V5.13h-.149v-.52Zm0 0" style="stroke:none;fill-rule:nonzero;fill:#00843d;fill-opacity:1"/><path d="m4.648 4.43.106.086.105-.086v.101l.149-.086v1.598l-.149-.09v.117l-.105-.101-.102.101v-.117l-.148.09V4.445l.148.086Zm1.036-.2-.176-.144v2.336l.176-.168v.18l.222-.153.223.153v-.196l.176.153V4.1l-.176.145V4.04l-.223.149-.222-.149Zm1.476.2-.101.086-.102-.086v.101l-.148-.086v1.598l.148-.09v.117l.102-.101.117.101v-.117l.133.09V4.445l-.149.086Zm0 0" style="stroke:none;fill-rule:nonzero;fill:#ffc72c;fill-opacity:1"/><path d="m4.195 5.012.059.031c.012 0 .043 0 .059-.031.042-.043.042-.137.042-.196l-.074.075-.027-.075-.047.075-.059-.075c0 .059 0 .153.047.2Zm.532-.137-.047-.043v-.078l-.086.094.144.148.18-.148-.09-.09v.074l-.043.043v-.148l.074-.059-.105-.09-.102.09.075.078Zm.484-.148-.027-.043V4.59l-.106.094.18.164.148-.149-.09-.11v.095l-.03.03v-.152l.077-.046-.105-.086-.106.086.059.062Zm0 0" style="stroke:none;fill-rule:nonzero;fill:#383739;fill-opacity:1"/><path d="m4.254 4.848.027.062.059-.062c0 .074-.012.136-.04.148a.06.06 0 0 1-.046.024.06.06 0 0 1-.047-.024c-.027-.012-.043-.074-.043-.148l.059.062Zm1.016-.285v.195l.062-.074V4.64l.059.058-.149.149-.148-.149.078-.058v.058l.055.074v-.199l-.059-.039.09-.078.074.078Zm0 0" style="stroke:none;fill-rule:nonzero;fill:#fff;fill-opacity:1"/><path d="M4.77 4.727v.183l.074-.062v-.063l.058.063-.148.148-.149-.148.063-.063v.063l.059.062v-.183l-.059-.059.086-.059.078.059Zm0 0" style="stroke:none;fill-rule:nonzero;fill:#d22630;fill-opacity:1"/><path d="m7.617 5.012-.058.031c-.012.004-.028-.004-.04-.031-.062-.043-.062-.137-.062-.196l.074.075.028-.075.046.075.06-.075c0 .059 0 .153-.044.2Zm-.515-.137.03-.043v-.078l.09.094-.148.148-.18-.148.09-.09v.074l.043.043v-.148l-.07-.059.102-.09.101.09-.058.078Zm-.5-.148.027-.043V4.59l.105.094-.164.164-.175-.149.101-.11v.095l.031.03v-.152l-.058-.046.101-.086.106.086-.078.062Zm0 0" style="stroke:none;fill-rule:nonzero;fill:#383739;fill-opacity:1"/><path d="m7.559 4.848-.028.062-.058-.062c0 .074.015.136.043.148q.017.019.046.02a.06.06 0 0 0 .043-.02c.028-.012.043-.074.043-.148l-.043.062Zm-1.016-.285v.195l-.059-.074V4.64l-.062.058.148.149.149-.149-.074-.058v.058l-.06.074v-.199l.06-.039-.075-.078-.086.078Zm0 0" style="stroke:none;fill-rule:nonzero;fill:#fff;fill-opacity:1"/><path d="M7.043 4.727v.183l-.059-.062v-.063l-.058.063.148.148.149-.148-.078-.063v.063l-.055.062v-.183l.058-.059-.09-.059-.074.059Zm0 0" style="stroke:none;fill-rule:nonzero;fill:#d22630;fill-opacity:1"/><path d="m6.098 4.79-.043-.09.133-.122-.133-.105v.074l-.043.043v-.145l.117-.078-.223-.18-.222.153.117.105v.133l-.04-.047v-.074l-.136.106.148.12-.058.075Zm0 0" style="stroke:none;fill-rule:nonzero;fill:#383739;fill-opacity:1"/><path d="m5.742 4.773.047-.078-.148-.12.105-.071v.043l.07.078v-.18l-.101-.078.195-.148.188.152-.102.074v.196l.074-.082v-.04l.102.07-.149.122.059.078Zm0 0" style="stroke:none;fill-rule:nonzero;fill:#d22630;fill-opacity:1"/><path d="m5.805 4.371.101.074.106-.078-.106-.074Zm0 0" style="stroke:none;fill-rule:nonzero;fill:#383739;fill-opacity:1"/><path d="m5.906 4.313.074.058-.074.043-.074-.043Zm0 0" style="stroke:none;fill-rule:nonzero;fill:#00843d;fill-opacity:1"/><path d="M4.195 5.473a.08.08 0 0 1 .059-.028c.012 0 .043 0 .059.028.042.05.042.136.042.199l-.074-.063-.027.059-.047-.059-.059.059c0-.059 0-.145.047-.195m.532.136-.047.047v.074l-.086-.09.144-.152.18.153-.09.09v-.079l-.043-.039v.145l.074.062-.105.09-.102-.09.075-.078Zm.484.149-.027.047v.09l-.106-.09.18-.164.148.164-.09.09v-.09l-.03-.032v.153l.077.043-.105.09-.106-.09.059-.059Zm0 0" style="stroke:none;fill-rule:nonzero;fill:#383739;fill-opacity:1"/><path d="m4.254 5.64.027-.058.059.059q.001-.119-.04-.153c-.01-.011-.027-.023-.046-.023-.02 0-.035.012-.047.023q-.039.035-.043.153l.059-.059Zm1.016.286v-.2l.062.083v.058l.059-.062-.149-.149-.148.149.078.062v-.062l.055-.075v.196l-.059.043.09.074.074-.074Zm0 0" style="stroke:none;fill-rule:nonzero;fill:#fff;fill-opacity:1"/><path d="M4.77 5.758v-.176l.074.059v.058l.058-.058-.148-.153-.149.153.063.058v-.058l.059-.059v.176l-.059.062.086.059.078-.059Zm0 0" style="stroke:none;fill-rule:nonzero;fill:#d22630;fill-opacity:1"/><path d="M7.617 5.473a.08.08 0 0 0-.058-.028c-.012-.004-.028.004-.04.028-.062.05-.062.136-.062.199l.074-.063.028.059.046-.059.06.059c0-.059 0-.145-.044-.195Zm-.515.136.03.047v.074l.09-.09-.148-.152-.18.153.09.09v-.079l.043-.039v.145l-.07.062.102.09.101-.09-.058-.078Zm-.5.149.027.047v.09l.105-.09-.164-.164-.175.164.101.09v-.09l.031-.032v.153l-.058.043.101.09.106-.09-.078-.059Zm0 0" style="stroke:none;fill-rule:nonzero;fill:#383739;fill-opacity:1"/><path d="m7.559 5.64-.028-.058-.058.059q0-.119.043-.153a.07.07 0 0 1 .046-.02q.025.002.043.02.04.035.043.153l-.043-.059Zm-1.016.286v-.2l-.059.083v.058l-.062-.062.148-.149.149.149-.074.062v-.062l-.06-.075v.196l.06.043-.075.074-.086-.074Zm0 0" style="stroke:none;fill-rule:nonzero;fill:#fff;fill-opacity:1"/><path d="M7.043 5.758v-.176l-.059.059v.058l-.058-.058.148-.153.149.153-.078.058v-.058l-.055-.059v.176l.058.062-.09.059-.074-.059Zm0 0" style="stroke:none;fill-rule:nonzero;fill:#d22630;fill-opacity:1"/><path d="m6.098 5.715-.043.078.133.117-.133.102v-.074l-.043-.04v.145l.117.078-.223.16-.222-.144.117-.11v-.129l-.04.043v.079l-.136-.106.148-.117-.058-.082Zm0 0" style="stroke:none;fill-rule:nonzero;fill:#383739;fill-opacity:1"/><path d="m5.742 5.73.047.063-.148.117.105.074v-.046l.07-.07v.175l-.101.078.195.149.188-.149-.102-.082v-.172l.074.07v.047l.102-.078-.149-.12.059-.056Zm0 0" style="stroke:none;fill-rule:nonzero;fill:#d22630;fill-opacity:1"/><path d="m5.805 6.137.101-.094.106.078-.106.074Zm0 0" style="stroke:none;fill-rule:nonzero;fill:#383739;fill-opacity:1"/><path d="m5.906 6.176.074-.055-.074-.05-.074.05Zm0 0" style="stroke:none;fill-rule:nonzero;fill:#00843d;fill-opacity:1"/><path d="M7.68 5.16h-.207v-.074h-.68l-.473-.3h-.828l-.469.3h-.687v.09h-.207v.152h.207v.102h.68l.472.3h.828l.47-.3h.683v-.09h.207Zm0 0" style="stroke:none;fill-rule:nonzero;fill:#383739;fill-opacity:1"/><path d="m5.492 4.79-.469.296H4.36v.09h-.21v.136h.206v.086h.665l.472.301h.828l.47-.3h.67v-.087h.224v-.136H7.46v-.09h-.664l-.473-.3Zm0 .038h.813l.445.29v.038h.469v.184h-.485v.047l-.43.27h-.796l-.442-.27V5.34h-.472v-.18h.484v-.043Zm0 0" style="stroke:none;fill-rule:nonzero;fill:#d22630;fill-opacity:1"/><path d="m6.305 4.828.414.3v.032h.488v.152h-.488v.06l-.414.284h-.797l-.414-.285v-.043h-.485v-.152h.489v-.059l.41-.289Zm0 0" style="stroke:none;fill-rule:nonzero;fill:#d22630;fill-opacity:1"/><path d="m5.3 5.398.177.153.117-.106-.055-.047-.062.032-.04-.032.676-.523H5.98Zm.4.211h.132l.68-.523-.176-.149-.117.106.07.043.047-.031.043.03Zm.296 0h.117l-.68-.523.044-.031.062.03.059-.042-.118-.09-.18.133Zm.383-.21-.043.03-.047-.03-.074.046.117.09.18-.137-.68-.523h-.148Zm-1.211-.145.117.074.117-.078-.117-.09Zm.621-.016.117.09.117-.078-.117-.09Zm.86 0-.122.09-.117-.078.117-.09Zm0 0" style="stroke:none;fill-rule:nonzero;fill:#383739;fill-opacity:1"/><path d="m6.496 5.398-.16.122-.106-.075.06-.03.046.03.059-.047-.665-.507h.102Zm-.414.2H5.98l-.664-.512.16-.117.106.074-.043.027-.062-.027-.059.043Zm-.25 0H5.73l.665-.512-.06-.043-.046.027-.059-.027.106-.078.148.12Zm.148-.707h.102l-.664.507.059.047.062-.03.04.03-.102.078-.145-.12Zm0 0" style="stroke:none;fill-rule:nonzero;fill:#ffc72c;fill-opacity:1"/><path d="m5.285 5.176.09.078-.09.059-.101-.06Zm.625 0 .102.078-.106.059-.101-.06Zm.617 0-.09.078.09.059.102-.06Zm0 0" style="stroke:none;fill-rule:nonzero;fill:#00843d;fill-opacity:1"/><path d="m3.766 8.676-.043.074.086.063-.086.074.043.058.101.016.09-.074.25.148v-.117l-.144-.105.144-.094v-.13l-.25.15-.09-.06Zm0-.446-.043.075.086.058-.086.075.043.062.101.016.09-.082.25.152v-.117l-.144-.106.144-.09v-.136l-.25.152-.09-.059Zm0 1.168-.043-.066.086-.07-.086-.063.043-.07h.101l.09.059.25-.153v.137l-.144.09.144.105v.117l-.25-.152-.09.082Zm4.28-.722.048.074-.09.063.09.074-.047.058-.102.016-.09-.074-.25.148v-.117l.149-.105-.149-.094v-.13l.25.15.09-.06Zm0-.446.048.075-.09.058.09.075-.047.062-.102.016-.09-.082-.25.152v-.117l.149-.106-.149-.09v-.136l.25.152.09-.059Zm0 1.168.048-.066-.09-.07.09-.063-.047-.07h-.102l-.093.055-.25-.153v.137l.148.09-.148.105v.117l.25-.152.09.082ZM7.09 7.48v.18h.133v.09h.132v-.148h-.117V7.48Zm.383.297v.153h.148v.074h.117v-.152h-.117v-.075ZM4.727 7.48v.18h-.133v.09H4.46v-.148h.117V7.48Zm2.363 2.692v-.176h.133v-.082h.132v.156h-.117v.117Zm-2.363 0v-.176h-.133v-.082H4.46v.156h.117v.117Zm2.746-.3v-.173h.148v-.094h.117v.153h-.117v.117ZM4.336 7.776v.153H4.19v.074h-.117v-.152h.117v-.075Zm0 2.11V9.71H4.19v-.094h-.117v.153h.117v.117Zm2.07-2.407-.105-.105-.102.09.086.09-.117.105h.164l.059-.058.058.058h.196l-.122-.101.09-.09-.105-.09Zm-.504 0-.101-.105-.106.09.09.09-.105.105h.164l.058-.058.059.058h.164l-.105-.105.09-.09-.102-.09Zm-.488 0 .106-.105.09.09-.09.09.117.105h-.164l-.059-.058-.059.058h-.19l.116-.105-.086-.09.102-.09.105.105Zm.977 2.692-.09.121-.102-.105.086-.075-.117-.117h.164l.059.059.058-.059h.196l-.122.117.09.075-.105.105Zm-.489 0-.101.121-.106-.105.09-.075-.105-.117h.164l.058.059.059-.059h.164l-.105.117.09.075-.102.105Zm-.488 0 .106.121.09-.105-.09-.075.117-.117h-.164l-.059.059-.059-.059h-.19l.116.117-.086.075.102.105.105-.105Zm0 0" style="stroke:none;fill-rule:nonzero;fill:#383739;fill-opacity:1"/><path d="M4.195 8.918v.102l-.234-.149-.094.078h-.086l-.047-.062.09-.075-.09-.062.047-.059h.086l.09.079.234-.153v.09l-.16.105Zm0-.45v.106l-.234-.152-.094.078h-.086l-.047-.062.09-.079-.09-.054.047-.059h.086l.09.07.234-.144v.086l-.16.105Zm0 .688v-.09l-.234.149-.094-.086h-.086l-.047.059.094.074-.09.07.047.05h.082l.09-.062.234.149v-.102l-.16-.105Zm3.426-.238v.102l.234-.149.106.078h.07l.047-.062-.09-.075.09-.062-.047-.059h-.058l-.102.079-.234-.153v.09l.16.105Zm0-.45v.106l.234-.152.106.078h.07l.047-.062-.09-.079.09-.054-.047-.059h-.058l-.102.07-.234-.144v.086l.16.105Zm0 .688v-.09l.234.149.106-.086h.07l.047.059-.09.074.09.07-.047.05h-.058L7.87 9.32l-.234.149v-.102l.16-.105ZM7.234 7.48v.122h.118v.117h-.118v-.086H7.09V7.48Zm.399.297v.11h.105v.117h-.105V7.93H7.5v-.153ZM4.578 7.48v.122h-.117v.117h.101v-.086h.149V7.48Zm2.656 2.676v-.133h.118v-.12h-.118v.077H7.09v.149Zm-2.629 0v-.133h-.117v-.12h.106v.077h.144v.149Zm3.028-.297v-.117h.105v-.12h-.105v.089H7.5v.148ZM4.207 7.777v.121H4.09v.118h.105V7.93h.133v-.153Zm0 2.098v-.117H4.09v-.125h.105v.094h.133v.144Zm2.098-2.484.09.105.101-.105.09.074-.09.09.106.09h-.149l-.058-.06-.06.06h-.132l.102-.09-.09-.09Zm-.5 0 .101.105.106-.105.07.074-.086.09.102.09h-.133l-.059-.06-.058.06h-.149l.117-.09-.086-.09Zm-.297 0-.09.105-.102-.105-.09.074.09.09-.09.09h.118l.078-.06.055.06h.136l-.105-.086.09-.09Zm.797 2.875.09-.094.101.094.09-.082-.09-.07.106-.102h-.149l-.058.058-.06-.058h-.132l.102.101-.09.075Zm-.5 0 .101-.094.106.094.07-.082-.086-.07.102-.102h-.133l-.059.058-.058-.058h-.149l.117.101-.086.075Zm-.297 0-.09-.094-.102.094-.09-.082.09-.07-.09-.102h.118l.078.058.055-.058h.136l-.105.101.09.075Zm0 0" style="stroke:none;fill-rule:nonzero;fill:#00843d;fill-opacity:1"/><path d="M4.578 9.71v.302h2.656V9.71h.387V7.93h-.387v-.297H4.578v.297h-.383v1.78Zm0 0" style="stroke:none;fill-rule:nonzero;fill:#383739;fill-opacity:1"/><path d="M4.594 7.645v.3h-.387v1.75h.371v.301h2.656v-.3h.387V7.93h-.387v-.297H4.578Zm.176.117h2.273v.285l.105.062H7.5v1.407h-.352l-.105.074v.281H4.77v-.293l-.102-.058h-.356V8.113h.352l.106-.062v-.297Zm0 0" style="stroke:none;fill-rule:nonzero;fill:#ffc72c;fill-opacity:1"/><path d="M4.785 7.777v.258l.34-.258Zm1.918 0 .324.258v-.258Zm-2.363.344v.258l.312-.238Zm2.82 0 .328.258V8.12Zm.328 1.14L7.16 9.5h.328Zm-3.164 0V9.5h.328Zm.446.34v.258h.351Zm2.257 0-.34.258h.34Zm0 0" style="stroke:none;fill-rule:nonzero;fill:#d22630;fill-opacity:1"/><path d="m6.676 7.777.812.602v.867l-.812.594H5.14l-.813-.594v-.871l.813-.61Zm0 0" style="stroke:none;fill-rule:nonzero;fill:#00843d;fill-opacity:1"/><path d="m4.52 9.332-.09-.102.09-.101-.09-.11.09-.101-.09-.105.09-.106-.09-.105.09-.102-.09-.094.09-.117h2.773l.09.117-.09.094.09.102-.09.105.09.105-.09.106.09.102-.09.109.09.101-.09.102Zm1.918-1.418L6.32 7.81l-.105.093-.102-.093-.101.093-.106-.093-.101.093-.106-.093-.101.093-.106-.093-.101.105v1.797l.101.101.106-.085.101.085.106-.085.101.085.106-.085.101.085.102-.085.105.085.102-.085Zm0 0" style="stroke:none;fill-rule:nonzero;fill:#383739;fill-opacity:1"/><path d="m6.203 7.93-.09-.094-.101.082v1.793l.101.09.09-.09Zm-.398 0-.106-.094-.086.082v1.793l.086.09.106-.09Zm0 0" style="stroke:none;fill-rule:nonzero;fill:#ffc72c;fill-opacity:1"/><path d="m4.531 9.332-.086-.102.09-.09h2.746l.086.09-.086.102Zm2.75-.613.086.094-.086.105h-2.75l-.09-.105.09-.094Zm0-.219.086-.094-.086-.101h-2.75l-.09.101.09.094Zm0 0" style="stroke:none;fill-rule:nonzero;fill:#ffc72c;fill-opacity:1"/><path d="m6.406 7.93-.086-.094-.105.082v1.793l.105.09.09-.09Zm-.793 0-.105-.094-.09.082v1.793l.09.09.105-.09Zm0 0" style="stroke:none;fill-rule:nonzero;fill:#d22630;fill-opacity:1"/><path d="m4.531 9.129-.086-.11.09-.09h2.746l.086.09-.086.11Zm0-.422-.086-.105.09-.086h2.746l.086.086-.086.105Zm0 0" style="stroke:none;fill-rule:nonzero;fill:#d22630;fill-opacity:1"/><path d="m6.012 9.727-.106.074-.09-.09V7.93l.09-.078.106.082Zm0 0" style="stroke:none;fill-rule:nonzero;fill:#d22630;fill-opacity:1"/><path d="M6.836 7.945h-1.86v.149h-.25V9.53h.235v.149h1.86V9.53h.269V8.094h-.238v-.149Zm0 0" style="stroke:none;fill-rule:nonzero;fill:#383739;fill-opacity:1"/><path d="M4.992 7.957v.152h-.234v1.407h.234v.152h.176l-.383-.336V8.289l.383-.328h-.191Zm1.64 0 .384.348v1.043l-.371.304h.195V9.5h.234V8.094H6.84v-.149h-.195Zm0 0" style="stroke:none;fill-rule:nonzero;fill:#d22630;fill-opacity:1"/><path d="m5.195 7.957-.383.348v1.027l.387.336h1.418L7 9.332V8.289l-.383-.328Zm.032.063h1.359l.371.296v.989l-.371.297h-1.36l-.367-.297v-.973Zm0 0" style="stroke:none;fill-rule:nonzero;fill:#00843d;fill-opacity:1"/><path d="m5.582 9.32.059.028.015.082-.078.054.121.106h-.117l-.074-.078-.074.078h-.118l.102-.106-.074-.058v-.078l.078-.028.07.063Zm.398 0 .06.028.015.082-.075.054.118.106H5.98l-.074-.078-.074.078H5.73l.102-.106-.074-.058v-.078l.078-.028.07.063Zm.25 0-.058.028-.016.082.078.054-.105.106h.101l.079-.078.07.078h.117l-.117-.106.074-.058v-.078L6.38 9.32l-.074.063Zm-.644-1.008.059-.027.015-.074-.078-.078.121-.102h-.117l-.074.074-.074-.078H5.32l.102.106-.074.078v.074l.078.027.07-.07Zm.398 0 .059-.027.016-.074-.075-.078.118-.102h-.118l-.074.074-.074-.078h-.102l.102.106-.074.078v.074l.078.027.07-.07Zm.25 0-.058-.027-.016-.074.078-.078-.105-.102h.101l.079.074.07-.078H6.5l-.117.106.074.078v.074l-.074.027-.074-.07Zm.711.106-.058.062.058.043v.09L6.84 8.54l-.059.059h-.074l-.027-.059.058-.059-.058-.062.027-.059h.078l.055.059.105-.074Zm0 .348-.058.043.058.058v.078l-.105-.078-.059.059h-.074l-.027-.059.058-.058-.058-.063.027-.043h.078l.055.043.105-.074Zm0 .445-.058-.059.058-.058v-.078l-.105.078-.059-.063h-.074l-.027.063.058.058-.058.059.027.047h.078l.055-.047.105.078Zm-2.07-.793.078.062-.078.043v.09l.105-.074.06.059h.073l.032-.059-.063-.059.063-.062-.032-.059H5.04l-.059.059-.105-.074Zm0 .348.078.043-.078.058v.078l.105-.078.06.059h.073l.032-.059-.063-.058.063-.063-.032-.043H5.04l-.059.043-.105-.074Zm0 .445.078-.059-.078-.058v-.078l.105.078.06-.063h.073l.032.063-.063.058.063.059-.032.047H5.04L4.98 9.21l-.105.078Zm0 0" style="stroke:none;fill-rule:nonzero;fill:#00843d;fill-opacity:1"/><path d="m5.227 8.035-.34.297.09.078.058-.062h.09l.027.074-.058.062.058.059-.027.059H5.02l-.06-.043-.1.074v.027l.1.078.06-.062.09.015.03.059-.062.063.063.058-.032.078h-.09l-.058-.062-.102.09v.011l.102.094.059-.062h.09l.03.078-.062.058.063.059-.032.058h-.09l-.058-.043-.09.075.34.297h.078l.117-.118-.078-.058v-.094l.09-.027.078.062.07-.062.079.027.011.094-.078.058.121.106.106-.106-.078-.058v-.094l.09-.027.078.062.07-.062.078.027.012.094-.075.058.102.106.117-.106-.07-.058v-.094l.086-.027.078.062.07-.062.078.027.012.094-.074.058.117.106h.078l.336-.3-.09-.06-.058.06-.086-.017-.031-.058.058-.059-.058-.058.03-.063.087-.015.058.062.106-.094v-.011l-.106-.09-.058.058H6.68l-.032-.074.059-.059-.059-.062.032-.059h.086l.058.043.106-.074v-.027l-.106-.078-.058.062-.086-.015-.032-.059.059-.059-.059-.062.032-.059.086-.015.058.058.09-.074-.34-.297H6.5l-.117.102.074.078v.09l-.09.027-.074-.059-.074.059-.07-.027-.016-.09.074-.078-.105-.102-.118.102.075.078v.09l-.09.027-.074-.059-.075.059-.07-.027-.016-.09.075-.078-.106-.102-.117.102.074.078v.09l-.09.027-.074-.059-.074.059-.074-.027-.012-.09.074-.078-.117-.102Zm-.352.75v.07l.04-.039Zm0 0" style="stroke:none;fill-rule:nonzero;fill:#d22630;fill-opacity:1"/><path d="m5.508 9.543-.059.047h.117Zm.398 0-.058.047h.117Zm.399 0-.059.047h.117Zm-.86-1.496.063.047.058-.059Zm.403 0 .058.047.059-.059Zm.398 0 .059.047.058-.059Zm.695.402-.046.035.046.032Zm0 .336-.046.027.046.043Zm0 .344-.046.027.046.031Zm-2.07-.691v.078l.047-.032Zm0 .347v.07l.047-.039Zm0 .328v.075l.047-.032Zm0 0" style="stroke:none;fill-rule:nonzero;fill:#fff;fill-opacity:1"/><path d="M6.25 8.707V8.59h-.121v-.14h-.445v.136h-.118v.117h-.16v.227h.16v.117h.118v.14h.449v-.152h.117V8.93h.164v-.223Zm0 0" style="stroke:none;fill-rule:nonzero;fill:#383739;fill-opacity:1"/><path d="M5.906 8.473v.129l-.191.105v.105h-.297V8.72h.148v-.117H5.7v-.153Zm0 .699V9.02l.196-.102v-.09h.293v.09h-.149v.117h-.133v.137Zm0 0" style="stroke:none;fill-rule:nonzero;fill:#ffc72c;fill-opacity:1"/><path d="M6.098 8.813v-.106l-.192-.105v-.153h.207v.153h.117v.117h.165v.094Zm-.68 0h.297v.105l.195.117v.137H5.7V9.02h-.118v-.102h-.164Zm0 0" style="stroke:none;fill-rule:nonzero;fill:#fff;fill-opacity:1"/><path d="M5.73 8.828v.09l.176.102v-.196Zm0 0" style="stroke:none;fill-rule:nonzero;fill:#d22630;fill-opacity:1"/><path d="m5.906 8.617-.176.102v.094h.176Zm0 0" style="stroke:none;fill-rule:nonzero;fill:#00843d;fill-opacity:1"/><path d="M6.082 8.813v-.094l-.176-.102v.2Zm0 0" style="stroke:none;fill-rule:nonzero;fill:#d22630;fill-opacity:1"/><path d="m5.906 9.023.176-.105v-.09h-.176Zm0 0" style="stroke:none;fill-rule:nonzero;fill:#00843d;fill-opacity:1"/><path d="M4.297 11.203v.375h-.34v.332h-.352v.953h.352v.344h.324v.363h1.27l.222.149-.101.058h-.445l-.043-.043h.43l-.118-.117h-.594l.266.281h.547l.195-.136.188.12h.547l.265-.28h-.59l-.117.117h.414l-.031.043h-.457l-.106-.075.223-.132h1.27v-.36h.34v-.332h.351v-.949h-.352v-.332h-.324v-.371h-1.27l-.222-.152.106-.059h.44l.044.043h-.43l.121.121h.59l-.265-.281h-.547L5.906 11l-.191-.117h-.547l-.266.297h.59l.117-.137H5.2L5.227 11h.457l.105.074-.223.137Zm0 0" style="stroke:none;fill-rule:nonzero;fill:#d22630;fill-opacity:1"/><path d="M6.25 13.555H7.5v-.36h.328v-.343h.352v-.93h-.352v-.344h-.34v-.355H6.23l-.527-.336h-.531l-.234.258h.546l.086-.094h-.398l.058-.074h.457l.594.375h1.102v.355h.351v.348h.36v.66h-.36v.344h-.351v.37H6.3l-.59.356h-.473l-.058-.07h.398l-.09-.09h-.547l.235.254h.547Zm-.727-.121H4.445v-.371h-.343v-.344H3.75v-.66h.352v-.344h.324v-.344h1.082l.59-.371h.472l.059.074H6.23l.09.094h.547l-.226-.281h-.547l-.516.332h-1.27v.355h-.324v.344h-.351v.93h.351v.343h.344v.36h1.27l.515.328h.532l.234-.254h-.547l-.086.09h.399l-.06.074H6.13Zm0 0" style="stroke:none;fill-rule:nonzero;fill:#ffc72c;fill-opacity:1"/><path d="M7.266 12.957v.355H6.262l-.352.227-.36-.223H4.548v-.355h-.34v-.352H3.84v-.445h.351v-.344h.344v-.355H5.54l.352-.215.355.21H7.25v.356h.34v.348h.383v.445H7.62v.348Zm0 0" style="stroke:none;fill-rule:nonzero;fill:#00843d;fill-opacity:1"/><path d="M4.68 12.824v.34h.562l-.562-.375Zm0-.87v-.356h.562l-.562.37Zm2.453.87v.34H6.57l.563-.375Zm0-.87v-.356H6.57l.563.37Zm0 0" style="stroke:none;fill-rule:nonzero;fill:#383739;fill-opacity:1"/><path d="m4.695 12.836.504.328h-.504Zm0-.899.504-.328h-.504Zm2.422.899-.5.328h.5Zm0-.899-.5-.328h.5Zm0 0" style="stroke:none;fill-rule:nonzero;fill:#d22630;fill-opacity:1"/><path d="M5.39 12.281v-.164h-.058l-.297-.18-.297.18H4.68v.18h-.145v.21h.145v.18h.058l.297.176.297-.175h.059v-.18h.207v-.238Zm0 0" style="stroke:none;fill-rule:nonzero;fill:#383739;fill-opacity:1"/><path d="m5.02 11.938.296.167h-.562Zm.296.734-.296.164-.266-.164Zm-.074-.375v.18h-.34v-.18Zm0 0" style="stroke:none;fill-rule:nonzero;fill:#d22630;fill-opacity:1"/><path d="M5.375 12.492v.164h-.34v-.164Zm-.352 0v.164H4.68v-.164Zm.559-.199v.184h-.324v-.18Zm-.695 0v.184h-.34v-.18Zm.488-.176v.164h-.34v-.148Zm-.352 0v.164H4.68v-.148Zm0 0" style="stroke:none;fill-rule:nonzero;fill:#ffc72c;fill-opacity:1"/><path d="M4.8 12.344v.09h-.152v-.09Zm.134-.18v.086h-.149v-.086Zm.351 0v.086h-.144v-.086Zm-.144.18v.09h-.149v-.09Zm.351 0v.09h-.148v-.09Zm-.207.176v.09h-.144v-.09Zm-.351 0v.09h-.149v-.09Zm0 0" style="stroke:none;fill-rule:nonzero;fill:#383739;fill-opacity:1"/><path d="M4.785 12.36h-.137v.058h.133Zm.149-.18h-.149v.058h.149Zm.34 0H5.14v.058h.132Zm-.149.18H5.02v.058h.117Zm.352 0h-.118v.058h.118Zm-.204.175h-.132v.059h.132Zm-.355 0h-.117v.059h.117Zm0 0" style="stroke:none;fill-rule:nonzero;fill:#fff;fill-opacity:1"/><path d="M6.422 12.281v-.164h.062l.293-.18.297.18h.074v.18h.133v.21h-.148v.18H7.09l-.297.176-.297-.175h-.059v-.18H6.23v-.238Zm0 0" style="stroke:none;fill-rule:nonzero;fill:#383739;fill-opacity:1"/><path d="m6.793 11.938-.297.167h.547Zm-.297.734.266.164.281-.164Zm.059-.375v.18h.34v-.18Zm0 0" style="stroke:none;fill-rule:nonzero;fill:#d22630;fill-opacity:1"/><path d="M6.438 12.492v.164h.34v-.164Zm.351 0v.164h.344v-.164Zm-.559-.199v.184h.34v-.18Zm.696 0v.184h.34v-.18Zm-.489-.176v.164h.34v-.148Zm.352 0v.164h.344v-.148Zm0 0" style="stroke:none;fill-rule:nonzero;fill:#ffc72c;fill-opacity:1"/><path d="M7.031 12.344v.09h.145v-.09Zm-.148-.18v.086h.144v-.086Zm-.356 0v.086h.149v-.086Zm.149.18v.09h.144v-.09Zm-.356 0v.09h.149v-.09Zm.207.176v.09h.149v-.09Zm.352 0v.09h.148v-.09Zm0 0" style="stroke:none;fill-rule:nonzero;fill:#383739;fill-opacity:1"/><path d="M7.031 12.36h.13v.058h-.13Zm-.136-.18h.117v.058h-.117Zm-.352 0h.133v.058h-.133Zm.144.18h.118v.058h-.117Zm-.351 0h.117v.058h-.101Zm.207.175h.133v.059h-.133Zm.352 0h.117v.059h-.117Zm0 0" style="stroke:none;fill-rule:nonzero;fill:#fff;fill-opacity:1"/><path d="M6.262 11.98v.184h-.059l-.297.195-.293-.199h-.066v-.18H5.37v-.19h.176v-.18h.062l.293-.2.297.2h.059v.18h.176v.179Zm0 0" style="stroke:none;fill-rule:nonzero;fill:#383739;fill-opacity:1"/><path d="m5.906 12.344.266-.18H5.64Zm.266-.746-.266-.149-.265.149Zm0 0" style="stroke:none;fill-rule:nonzero;fill:#ffc72c;fill-opacity:1"/><path d="M6.25 11.79v-.18h-.328v.18Zm-.344 0v-.18h-.34v.18Zm.516.179v-.149h-.34v.149Zm-.352 0v-.149h-.312v.149Zm-.34 0v-.149h-.34v.149Zm.516.18v-.169h-.324v.168Zm-.34 0v-.169h-.34v.168Zm0 0" style="stroke:none;fill-rule:nonzero;fill:#d22630;fill-opacity:1"/><path d="M5.805 11.652v.094h-.149v-.078Zm.351 0v.094h-.14v-.078Zm-.531.184v.101h-.148v-.117Zm.355 0v.101h-.148v-.117Zm.352 0v.101h-.144v-.117Zm-.527.195v.086h-.149v-.082Zm.351 0v.086h-.14v-.082Zm0 0" style="stroke:none;fill-rule:nonzero;fill:#383739;fill-opacity:1"/><path d="M5.79 11.668h-.118v.062h.117Zm.35 0h-.117v.062h.118Zm-.527.18h-.117v.078h.117Zm.352 0h-.117v.078h.117Zm.355 0h-.117v.078h.117Zm-.53.183h-.118v.074h.117Zm.35 0h-.117v.074h.118Zm0 0" style="stroke:none;fill-rule:nonzero;fill:#fff;fill-opacity:1"/><path d="M6.262 12.984v.196h-.059l-.297.18-.293-.18h-.066v-.196H5.37v-.195h.176v-.18h.062l.293-.191.297.195h.059v.176h.176v.2Zm0 0" style="stroke:none;fill-rule:nonzero;fill:#383739;fill-opacity:1"/><path d="m5.906 13.344.266-.164H5.64Zm.266-.75-.266-.145-.265.145Zm0 0" style="stroke:none;fill-rule:nonzero;fill:#ffc72c;fill-opacity:1"/><path d="M6.25 12.79v-.161h-.328v.16Zm-.344 0v-.161h-.34v.16Zm.516.183v-.168h-.34v.168Zm-.352 0v-.168h-.312v.168Zm-.34 0v-.168h-.34v.168Zm.516.191v-.176h-.324v.176Zm-.34 0v-.176h-.34v.176Zm0 0" style="stroke:none;fill-rule:nonzero;fill:#d22630;fill-opacity:1"/><path d="M5.805 12.656v.106h-.149v-.106Zm.351 0v.106h-.14v-.106Zm-.531.207v.094h-.148v-.094Zm.355 0v.094h-.148v-.094Zm.352 0v.094h-.144v-.094Zm-.527.153v.09h-.149v-.09Zm.351 0v.09h-.14v-.09Zm0 0" style="stroke:none;fill-rule:nonzero;fill:#383739;fill-opacity:1"/><path d="M5.79 12.672h-.118v.078h.117Zm.35 0h-.117v.078h.118Zm-.527.195h-.117v.063h.117Zm.352 0h-.117v.063h.117Zm.355 0h-.117v.063h.117Zm-.53.18h-.118v.058h.117Zm.35 0h-.117v.058h.118Zm0 0" style="stroke:none;fill-rule:nonzero;fill:#fff;fill-opacity:1"/><path d="m3.984 15.184 1.329-.715h1.183l1.328.715v1.183l-1.328.7h-1.18l-1.328-.7Zm0 0" style="stroke:none;fill-rule:nonzero;fill:#383739;fill-opacity:1"/><path d="m5.313 14.484-1.313.7v1.168l1.316.714h1.18l1.316-.714v-1.168l-1.3-.696Zm.019.086h1.164l1.242.672v1.051l-1.242.672H5.344l-1.239-.672v-1.055Zm0 0" style="stroke:none;fill-rule:nonzero;fill:#00843d;fill-opacity:1"/><path d="M5.906 15.77v1.195h.59l1.227-.672v-.512H5.906v-1.195h-.59l-1.226.656v.528Zm0 0" style="stroke:none;fill-rule:nonzero;fill:#ffc72c;fill-opacity:1"/><path d="M5.906 15.77v1.195h-.59l-1.226-.672v-.512h1.816v-1.195h.59l1.227.656v.528Zm0 0" style="stroke:none;fill-rule:nonzero;fill:#fff;fill-opacity:1"/><path d="M6.012 16.89v-.343l-.106.078-.101-.078v.344h-.356l.235-.18v-.238l-.352-.223h-.234v-.957h.218l.352-.227v-.238l-.2-.183h.352v.343l.106-.058.101.058v-.328h.356l-.235.18v.238l.352.227h.254v.957H6.5l-.352.226v.235l.235.183Zm0 0" style="stroke:none;fill-rule:nonzero;fill:#383739;fill-opacity:1"/><path d="M6.023 14.66v.36l-.117-.075v.106l.547.344h.176v.375h.09v-.45h-.235l-.37-.238v-.27l.206-.152Zm-.914 1.121v.453h.207l.368.235v.258l-.207.148h.296v-.355l.118.07v-.102l-.547-.347h-.176v-.356Zm0 0" style="stroke:none;fill-rule:nonzero;fill:#ffc72c;fill-opacity:1"/><path d="m5.492 14.66.207.152v.27l-.367.223h-.223v.449h.075v-.344h.175l.547-.344v-.105l-.117.074v-.375Zm1.137 1.121v.36h-.176l-.547.347v.102l.117-.07v.355h.297l-.207-.148v-.274l.371-.234h.235v-.45Zm0 0" style="stroke:none;fill-rule:nonzero;fill:#fff;fill-opacity:1"/><path d="M5.195 16.125h.164l.547.363.547-.36h.164v-.718h-.164l-.547-.344-.547.344h-.148Zm0 0" style="stroke:none;fill-rule:nonzero;fill:#d22630;fill-opacity:1"/><path d="M6.277 15.95h.118v-.06h-.09v-.109H6.5v.258h-.18v.18h-.37v-.254h.163v.101h-.058v.047h.148v-.09l-.68-.418h-.117v.043h.086v.106h-.176V15.5h.176v-.18h.371v.25h-.148v-.101h.043v-.043h-.145v.086Zm-.062-.438v-.086h-.16v.043h.058v.101H5.95v-.25h.371v.18h.176v.254h-.191v-.106h.09v-.043h-.118l-.664.403v.09h.145v-.047h-.055v-.098h.164v.254h-.37v-.18H5.32v-.254h.192v.102h-.09v.063h.117Zm0 0" style="stroke:none;fill-rule:nonzero;fill:#383739;fill-opacity:1"/><path d="M6.23 16.008v.117h-.175v-.074h.058v-.07H5.98v.222h.34v-.18h.176v-.23h-.144v.078h.07v.09h-.133l-.691-.453v-.102h.191v.074H5.73v.075h.149v-.223h-.356v.176h-.18v.226h.15v-.074h-.075v-.078h.133Zm.047-.418h.145v.078H6.32v.07h.176v-.222H6.32v-.176h-.34v.223h.133v-.079h-.058v-.07h.195v.117l-.7.438h-.132v-.098h.09v-.074h-.149v.226h.164v.18h.34v-.223H5.73v.07h.06v.079h-.196v-.117Zm0 0" style="stroke:none;fill-rule:nonzero;fill:#fff;fill-opacity:1"/><path d="M7.441 15.828v.375h-.148v-.133h-.16v.137h-.164v-.375h.148v.137h.164v-.137Zm-.558.492v.375h-.149v-.133H6.57v.133h-.148v-.375h.148v.133h.149v-.133Zm.558-.593v-.391h-.148v.133h-.16v-.133h-.164v.375h.148v-.14h.164v.152Zm-3.07.101v.375h.149v-.133h.16v.137h.164v-.375h-.149v.137h-.16v-.137Zm0-.117v-.375h.149v.133h.16v-.133h.164v.375h-.149v-.14h-.16v.152Zm2.512-.496v-.375h-.149v.133H6.57v-.13h-.148v.376h.148v-.137h.149v.148Zm-1.953 1.11v.37h.148v-.133h.164v.133h.164v-.375h-.148v.133h-.164v-.133Zm0-1.11v-.375h.148v.133h.164v-.13h.164v.376h-.148v-.137h-.164v.148Zm2.039-.254v.281h.52Zm-2.125 1.625v-.297h-.516Zm0-1.645v.297h-.516Zm2.125 1.645v-.297h.52Zm0 0" style="stroke:none;fill-rule:nonzero;fill:#383739;fill-opacity:1"/><path d="M7.293 16.05v.153h.133v-.36h-.133v.137h-.176v-.136H6.97v.344h.148v-.137Zm-.559.497v.148h.133v-.355h-.133v.129h-.18v-.133h-.132v.344h.133v-.133Zm.559-1.063v-.132h.133v.343h-.133v-.14h-.176v.152H6.97v-.36h.148v.133Zm-2.773.567v.152h-.133v-.36h.133v.137h.175v-.136h.149v.344h-.149v-.137Zm0-.567v-.132h-.133v.343h.133v-.14h.175v.152h.149v-.36h-.149v.133Zm2.214-.496v-.133h.133v.344h-.133v-.133h-.18v.149h-.132v-.356h.133v.13Zm-1.656 1.559v.148h-.133v-.355h.133v.129h.18v-.133h.148v.344h-.148v-.133Zm0-1.559v-.133h-.133v.344h.133v-.133h.18v.149h.148v-.356h-.148v.13Zm0 0" style="stroke:none;fill-rule:nonzero;fill:#d22630;fill-opacity:1"/><path d="M6.984 14.973v.257h.442ZM4.371 16.32l.441.239v-.239Zm0 0" style="stroke:none;fill-rule:nonzero;fill:#ffc72c;fill-opacity:1"/><path d="m4.828 14.973-.441.257h.441Zm2.156 1.347v.239l.442-.239Zm0 0" style="stroke:none;fill-rule:nonzero;fill:#fff;fill-opacity:1"/><path d="M8.031 16.816c-.027.106-.117.18-.133.301-.039-.12-.07-.226-.039-.347 0-.09.086-.149.102-.25q.1.11.07.296m.016.45a.7.7 0 0 1-.266.222c.016-.086-.027-.152-.074-.222-.043-.078-.074-.149-.027-.258q.029.074.074.137c.043.058.086.117.086.207.058-.043.078-.102.105-.16a.5.5 0 0 1 .207-.212c-.03.106-.047.196-.105.286m-.383.297.016.152.16-.121c.078-.078.164-.106.223-.196a.4.4 0 0 1-.149.286l-.293.195a.7.7 0 0 0-.078-.3.28.28 0 0 1 .078-.24q.001.113.043.208Zm-.223.343-.117.211c.098-.035.2-.086.297-.148.102-.063.219-.09.324-.18-.047.195-.18.297-.351.356-.121.03-.239.015-.39.078.019-.106.054-.203.105-.301l.105-.207q.046.082.027.195Zm-.382.285a.5.5 0 0 1-.149.153c.149 0 .266-.078.414-.094.09 0 .176.035.266.02-.102.074-.223.148-.352.148-.164.027-.328 0-.508 0 .09-.063.137-.148.18-.227.078-.117.149-.195.281-.207-.058.059-.09.149-.132.207m-.516.239c.25.047.5.105.766.105a1.14 1.14 0 0 1-.872.016c-.148-.047-.28-.09-.398-.078-.16 0-.383.093-.621.332l-.086-.075c.34-.3.781-.375 1.211-.3" style="stroke:none;fill-rule:nonzero;fill:#ffc72c;fill-opacity:1"/></svg>