<svg xmlns="http://www.w3.org/2000/svg" width="25" height="px" viewBox="0 0 25 19"><path d="M0 0h25v19H0z" style="fill:#e70013;fill-opacity:1;stroke:none"/><path d="M12.5 4.719c-2.594-.012-4.703 2.11-4.71 4.734-.013 2.629 2.077 4.766 4.67 4.777 2.595.012 4.704-2.109 4.712-4.738.012-2.625-2.078-4.762-4.672-4.773m2.813 6.879a3.49 3.49 0 0 1-3.926 1.265A3.56 3.56 0 0 1 8.969 9.48c0-1.539.976-2.902 2.418-3.382a3.49 3.49 0 0 1 3.925 1.265 2.787 2.787 0 0 0-3.906.137 2.883 2.883 0 0 0 0 3.96 2.787 2.787 0 0 0 3.906.138m-.183-.86-1.461-.476-.902 1.258V9.965l-1.461-.485 1.46-.484V7.441l.903 1.258 1.46-.476-.901 1.257Zm0 0" style="stroke:none;fill-rule:nonzero;fill:#fff;fill-opacity:1"/></svg>