<svg xmlns="http://www.w3.org/2000/svg" width="25" height="px" viewBox="0 0 25 19"><path d="M0 0h25v19H0z" style="fill:#e30a17;fill-opacity:1;stroke:none"/><path d="M15.898 9.797c0 2.621-2.132 4.746-4.765 4.746a4.756 4.756 0 0 1-4.766-4.75c0-2.625 2.133-4.742 4.766-4.742s4.765 2.125 4.765 4.746" style="stroke:none;fill-rule:evenodd;fill:#fff;fill-opacity:1"/><path d="M16.133 9.797a3.8 3.8 0 0 1-3.809 3.797 3.81 3.81 0 0 1-3.812-3.801C8.512 7.695 10.219 6 12.324 6c2.106 0 3.813 1.7 3.813 3.797Zm0 0" style="stroke:none;fill-rule:evenodd;fill:#e30a17;fill-opacity:1"/><path d="m16.824 7.582-.039 1.75-1.613.445 1.594.575-.04 1.609 1.036-1.258 1.57.555-.906-1.352 1.105-1.34-1.699.473-1.008-1.46Zm0 0" style="stroke:none;fill-rule:evenodd;fill:#fff;fill-opacity:1"/></svg>