<?xml version="1.0" encoding="UTF-8"?>
<svg xmlns="http://www.w3.org/2000/svg" xmlns:xlink="http://www.w3.org/1999/xlink" width="25px" height="px" viewBox="0 0 25 19" version="1.1">
<g id="surface1">
<rect x="0" y="0" width="25" height="19" style="fill:rgb(89.019608%,3.921569%,9.019608%);fill-opacity:1;stroke:none;"/>
<path style=" stroke:none;fill-rule:evenodd;fill:rgb(100%,100%,100%);fill-opacity:1;" d="M 15.898438 9.796875 C 15.898438 12.417969 13.765625 14.542969 11.132812 14.542969 C 8.5 14.542969 6.367188 12.417969 6.367188 9.792969 C 6.367188 7.167969 8.5 5.050781 11.132812 5.050781 C 13.765625 5.050781 15.898438 7.175781 15.898438 9.796875 "/>
<path style=" stroke:none;fill-rule:evenodd;fill:rgb(89.019608%,3.921569%,9.019608%);fill-opacity:1;" d="M 16.132812 9.796875 C 16.132812 11.894531 14.429688 13.59375 12.324219 13.59375 C 10.21875 13.59375 8.511719 11.890625 8.511719 9.792969 C 8.511719 7.695312 10.21875 6 12.324219 6 C 14.429688 6 16.136719 7.699219 16.136719 9.796875 Z M 16.132812 9.796875 "/>
<path style=" stroke:none;fill-rule:evenodd;fill:rgb(100%,100%,100%);fill-opacity:1;" d="M 16.824219 7.582031 L 16.785156 9.332031 L 15.171875 9.777344 L 16.765625 10.351562 L 16.726562 11.960938 L 17.761719 10.703125 L 19.332031 11.257812 L 18.425781 9.90625 L 19.53125 8.566406 L 17.832031 9.039062 L 16.824219 7.578125 Z M 16.824219 7.582031 "/>
</g>
</svg>
