<svg xmlns="http://www.w3.org/2000/svg" width="25" height="px" viewBox="0 0 25 19"><path d="M0 0h25v19H0z" style="fill:#009fca;fill-opacity:1;stroke:none"/><path d="M23.176 4.855h1.082l-.871.602.332.98-.871-.605-.868.606.332-.981-.87-.602h1.074l.332-.976Zm-2.703 7.793h1.078l-.871.602.332.977-.871-.606-.871.606.335-.977-.87-.602h1.07l.332-.98Zm2.703-1.765h1.082l-.871.601.332.977-.871-.606-.868.606.332-.977-.87-.601h1.074l.332-.98Zm-11.621 5.652h1.078l-.875.598.336.972-.871-.601-.871.601.335-.972-.874-.606h1.078l.332-.976ZM14 13.504h-1.078l.871-.606-.332-.972.871.601.871-.601-.336.972.871.606h-1.074l-.332.976Zm3.176-4.453h-1.082l.87-.602-.331-.976.87.605.872-.605-.336.976.871.602h-1.074l-.332.98Zm2.668-.922h-1.078l.875-.606-.336-.972.87.601.872-.601-.336.972.875.606h-1.078l-.332.976Zm-2.668 7.703h-1.082l.87-.602-.323-.98.87.602.872-.602-.336.977.871.601h-1.074l-.332.98Zm-3.176.79h-1.078l.871-.602-.332-.977.871.602.871-.602-.336.973.875.609h-1.074l-.332.977Zm0 0" style="stroke:none;fill-rule:evenodd;fill:#fff40d;fill-opacity:1"/><path d="M0 0h12.5v9.5H0Zm0 0" style="stroke:none;fill-rule:nonzero;fill:#012169;fill-opacity:1"/><path d="M1.465 0 6.23 3.582 10.977 0H12.5v1.227L7.813 4.77 12.5 8.293V9.5h-1.562L6.25 5.957 1.582 9.5H0V8.313l4.668-3.524L0 1.266V0Zm0 0" style="stroke:none;fill-rule:nonzero;fill:#fff;fill-opacity:1"/><path d="M8.281 5.563 12.5 8.707V9.5L7.207 5.563Zm-3.594.394.118.691L1.055 9.5H0ZM12.5 0v.059L7.637 3.78l.039-.87L11.523 0ZM0 0l4.668 3.484H3.496L0 .832Zm0 0" style="stroke:none;fill-rule:nonzero;fill:#c8102e;fill-opacity:1"/><path d="M4.707 0v9.5h3.125V0ZM0 3.168v3.164h12.5V3.168Zm0 0" style="stroke:none;fill-rule:nonzero;fill:#fff;fill-opacity:1"/><path d="M0 3.82V5.72h12.5V3.82ZM5.332 0v9.5h1.875V0Zm0 0" style="stroke:none;fill-rule:nonzero;fill:#c8102e;fill-opacity:1"/></svg>