<?xml version="1.0" encoding="UTF-8"?>
<svg xmlns="http://www.w3.org/2000/svg" xmlns:xlink="http://www.w3.org/1999/xlink" width="25px" height="px" viewBox="0 0 25 19" version="1.1">
<g id="surface1">
<rect x="0" y="0" width="25" height="19" style="fill:rgb(0%,62.352943%,79.215688%);fill-opacity:1;stroke:none;"/>
<path style=" stroke:none;fill-rule:evenodd;fill:rgb(100%,95.686275%,5.098039%);fill-opacity:1;" d="M 23.175781 4.855469 L 24.257812 4.855469 L 23.386719 5.457031 L 23.71875 6.4375 L 22.847656 5.832031 L 21.980469 6.4375 L 22.3125 5.457031 L 21.441406 4.855469 L 22.515625 4.855469 L 22.847656 3.878906 Z M 20.472656 12.648438 L 21.550781 12.648438 L 20.679688 13.25 L 21.011719 14.226562 L 20.140625 13.621094 L 19.269531 14.226562 L 19.605469 13.25 L 18.734375 12.648438 L 19.804688 12.648438 L 20.136719 11.667969 Z M 23.175781 10.882812 L 24.257812 10.882812 L 23.386719 11.484375 L 23.71875 12.460938 L 22.847656 11.855469 L 21.980469 12.460938 L 22.3125 11.484375 L 21.441406 10.882812 L 22.515625 10.882812 L 22.847656 9.902344 Z M 11.554688 16.535156 L 12.632812 16.535156 L 11.757812 17.132812 L 12.09375 18.105469 L 11.222656 17.503906 L 10.351562 18.105469 L 10.6875 17.132812 L 9.8125 16.527344 L 10.890625 16.527344 L 11.222656 15.550781 Z M 14 13.503906 L 12.921875 13.503906 L 13.792969 12.898438 L 13.460938 11.925781 L 14.332031 12.527344 L 15.203125 11.925781 L 14.867188 12.898438 L 15.738281 13.503906 L 14.664062 13.503906 L 14.332031 14.480469 Z M 17.175781 9.050781 L 16.09375 9.050781 L 16.964844 8.449219 L 16.632812 7.472656 L 17.503906 8.078125 L 18.375 7.472656 L 18.039062 8.449219 L 18.910156 9.050781 L 17.835938 9.050781 L 17.503906 10.03125 Z M 19.84375 8.128906 L 18.765625 8.128906 L 19.640625 7.523438 L 19.304688 6.550781 L 20.175781 7.152344 L 21.046875 6.550781 L 20.710938 7.523438 L 21.585938 8.128906 L 20.507812 8.128906 L 20.175781 9.105469 Z M 17.175781 15.832031 L 16.09375 15.832031 L 16.964844 15.230469 L 16.640625 14.25 L 17.511719 14.851562 L 18.382812 14.25 L 18.046875 15.226562 L 18.917969 15.828125 L 17.84375 15.828125 L 17.511719 16.808594 Z M 14 16.621094 L 12.921875 16.621094 L 13.792969 16.019531 L 13.460938 15.042969 L 14.332031 15.644531 L 15.203125 15.042969 L 14.867188 16.015625 L 15.742188 16.625 L 14.667969 16.625 L 14.335938 17.601562 Z M 14 16.621094 "/>
<path style=" stroke:none;fill-rule:nonzero;fill:rgb(0.392157%,12.941177%,41.176471%);fill-opacity:1;" d="M 0 0 L 12.5 0 L 12.5 9.5 L 0 9.5 Z M 0 0 "/>
<path style=" stroke:none;fill-rule:nonzero;fill:rgb(100%,100%,100%);fill-opacity:1;" d="M 1.464844 0 L 6.230469 3.582031 L 10.976562 0 L 12.5 0 L 12.5 1.226562 L 7.8125 4.769531 L 12.5 8.292969 L 12.5 9.5 L 10.9375 9.5 L 6.25 5.957031 L 1.582031 9.5 L 0 9.5 L 0 8.3125 L 4.667969 4.789062 L 0 1.265625 L 0 0 Z M 1.464844 0 "/>
<path style=" stroke:none;fill-rule:nonzero;fill:rgb(78.431374%,6.27451%,18.039216%);fill-opacity:1;" d="M 8.28125 5.5625 L 12.5 8.707031 L 12.5 9.5 L 7.207031 5.5625 Z M 4.6875 5.957031 L 4.804688 6.648438 L 1.054688 9.5 L 0 9.5 Z M 12.5 0 L 12.5 0.0585938 L 7.636719 3.78125 L 7.675781 2.910156 L 11.523438 0 Z M 0 0 L 4.667969 3.484375 L 3.496094 3.484375 L 0 0.832031 Z M 0 0 "/>
<path style=" stroke:none;fill-rule:nonzero;fill:rgb(100%,100%,100%);fill-opacity:1;" d="M 4.707031 0 L 4.707031 9.5 L 7.832031 9.5 L 7.832031 0 Z M 0 3.167969 L 0 6.332031 L 12.5 6.332031 L 12.5 3.167969 Z M 0 3.167969 "/>
<path style=" stroke:none;fill-rule:nonzero;fill:rgb(78.431374%,6.27451%,18.039216%);fill-opacity:1;" d="M 0 3.820312 L 0 5.71875 L 12.5 5.71875 L 12.5 3.820312 Z M 5.332031 0 L 5.332031 9.5 L 7.207031 9.5 L 7.207031 0 Z M 5.332031 0 "/>
</g>
</svg>
