<svg xmlns="http://www.w3.org/2000/svg" width="25" height="px" viewBox="0 0 25 19"><path d="M0 0h25v19H0z" style="fill:red;fill-opacity:1;stroke:none"/><path d="M0 0h14.063v9.5H0Zm0 0" style="stroke:none;fill-rule:nonzero;fill:#000095;fill-opacity:1"/><path d="m6.016 5.023-.098.38.367.105-.07-.281Zm1.832.204-.07.28.367-.105-.098-.379Zm-1.633-.954-.2.204.075.273ZM6.09 4.75l-.074.273.199.204Zm0 0" style="stroke:none;fill-rule:nonzero;fill:#fff;fill-opacity:1"/><path d="m6.016 4.477-.27.273.27.273.074-.273Zm.547 1.101.199.2.27-.075Zm.738.2.375.1.101-.37-.277.07Zm0 0" style="stroke:none;fill-rule:nonzero;fill:#fff;fill-opacity:1"/><path d="m7.5 5.578.277-.07.07-.281Zm-1.215-.07.102.37.375-.1-.2-.2Zm.746.195.27.074.199-.199Zm0 0" style="stroke:none;fill-rule:nonzero;fill:#fff;fill-opacity:1"/><path d="m6.762 5.777.27.274.269-.274-.27-.074Zm-.477-1.785-.367.106.098.379.199-.204Zm-.07 1.235.07.28.277.071Zm1.758-.477.074-.273-.2-.204ZM6.563 3.922l-.278.07-.07.281Zm1.285.351-.07-.28-.278-.071Zm.199.75.27-.273-.27-.273-.074.273Zm0 0" style="stroke:none;fill-rule:nonzero;fill:#fff;fill-opacity:1"/><path d="M7.848 4.273 7.5 3.922l-.469-.125-.468.125-.348.351-.125.477.125.477.348.351.468.125.469-.125.348-.351.125-.477Zm0 0" style="stroke:none;fill-rule:nonzero;fill:#fff;fill-opacity:1"/><path d="m7.848 5.227.199-.204-.074-.273Zm.199-.75.098-.38-.368-.105.07.281Zm-.27-.485-.101-.37-.375.1.199.2Zm-1.015-.27-.375-.1-.102.37.277-.07Zm.27.075-.27-.074-.2.199Zm0 0" style="stroke:none;fill-rule:nonzero;fill:#fff;fill-opacity:1"/><path d="m7.3 3.723-.269-.274-.27.274.27.074Zm0 0" style="stroke:none;fill-rule:nonzero;fill:#fff;fill-opacity:1"/><path d="m7.5 3.922-.2-.2-.269.075Zm-.738 1.855-.375.102.176.656.468-.484Zm-.2.758.47 1.777.468-1.777-.469-.484Zm-.277-1.027-.367-.106-.172.649.64-.172Zm0 0" style="stroke:none;fill-rule:nonzero;fill:#fff;fill-opacity:1"/><path d="m5.746 6.05-.469 1.786 1.285-1.3-.175-.657Zm-.469-.823L3.984 6.535l1.762-.484.172-.649Zm0 0" style="stroke:none;fill-rule:nonzero;fill:#fff;fill-opacity:1"/><path d="m6.016 5.023-.27-.273-.469.477.641.175Zm0-.546-.098-.38-.64.176.468.477Zm0 0" style="stroke:none;fill-rule:nonzero;fill:#fff;fill-opacity:1"/><path d="m5.277 4.273-1.761.477 1.761.477.47-.477Zm3.516.954-.648.175.171.649 1.762.484Zm0 0" style="stroke:none;fill-rule:nonzero;fill:#fff;fill-opacity:1"/><path d="m7.777 5.508-.101.37.64.173-.171-.649Zm-.476.27-.27.273.469.484.176-.656Zm.746-.755.098.38.648-.176-.477-.477Zm0 0" style="stroke:none;fill-rule:nonzero;fill:#fff;fill-opacity:1"/><path d="m7.5 6.535 1.293 1.3-.477-1.784-.64-.172Zm.277-2.543.368.106.171-.649-.64.172Zm0 0" style="stroke:none;fill-rule:nonzero;fill:#fff;fill-opacity:1"/><path d="m8.793 4.273 1.285-1.3-1.762.476-.171.649Zm-.477-.824.477-1.785L7.5 2.973l.176.648Zm.477 1.778 1.754-.477-1.754-.477-.477.477Zm0 0" style="stroke:none;fill-rule:nonzero;fill:#fff;fill-opacity:1"/><path d="m8.047 4.477.27.273.476-.477-.648-.175ZM6.562 2.973 5.278 1.664l.47 1.785.64.172ZM6.285 3.992l.102-.37-.64-.173.171.649ZM5.746 3.45l-1.762-.477 1.293 1.3.641-.175Zm1.555.273.375-.102-.176-.648-.469.476ZM7.5 2.973l-.469-1.785-.468 1.785.468.476Zm0 0" style="stroke:none;fill-rule:nonzero;fill:#fff;fill-opacity:1"/><path d="m6.762 3.723.27-.274-.47-.476-.175.648Zm0 0" style="stroke:none;fill-rule:nonzero;fill:#fff;fill-opacity:1"/><path d="M9.027 4.75c0-1.117-.894-2.023-1.996-2.023s-1.996.906-1.996 2.023.895 2.023 1.996 2.023c1.102 0 1.996-.906 1.996-2.023m0 0" style="stroke:none;fill-rule:nonzero;fill:#000095;fill-opacity:1"/><path d="M8.793 4.75c0-.984-.79-1.785-1.762-1.785s-1.761.8-1.761 1.785.789 1.785 1.761 1.785c.973 0 1.762-.8 1.762-1.785m0 0" style="stroke:none;fill-rule:nonzero;fill:#fff;fill-opacity:1"/></svg>