<?xml version="1.0" encoding="UTF-8"?>
<svg xmlns="http://www.w3.org/2000/svg" xmlns:xlink="http://www.w3.org/1999/xlink" width="25px" height="px" viewBox="0 0 25 19" version="1.1">
<defs>
<clipPath id="clip1">
  <path d="M 0.625 0.433594 L 1.796875 0.433594 L 1.796875 1.621094 L 0.625 1.621094 Z M 0.625 0.433594 "/>
</clipPath>
<clipPath id="clip2">
  <path d="M 3.007812 0.433594 L 4.179688 0.433594 L 4.179688 1.621094 L 3.007812 1.621094 Z M 3.007812 0.433594 "/>
</clipPath>
<clipPath id="clip3">
  <path d="M 5.390625 0.433594 L 6.5625 0.433594 L 6.5625 1.621094 L 5.390625 1.621094 Z M 5.390625 0.433594 "/>
</clipPath>
<clipPath id="clip4">
  <path d="M 7.773438 0.433594 L 8.945312 0.433594 L 8.945312 1.621094 L 7.773438 1.621094 Z M 7.773438 0.433594 "/>
</clipPath>
<clipPath id="clip5">
  <path d="M 10.15625 0.433594 L 11.328125 0.433594 L 11.328125 1.621094 L 10.15625 1.621094 Z M 10.15625 0.433594 "/>
</clipPath>
<clipPath id="clip6">
  <path d="M 12.5 0.433594 L 13.671875 0.433594 L 13.671875 1.621094 L 12.5 1.621094 Z M 12.5 0.433594 "/>
</clipPath>
<clipPath id="clip7">
  <path d="M 1.835938 1.464844 L 3 1.464844 L 3 2.652344 L 1.835938 2.652344 Z M 1.835938 1.464844 "/>
</clipPath>
<clipPath id="clip8">
  <path d="M 4.21875 1.464844 L 5.390625 1.464844 L 5.390625 2.652344 L 4.21875 2.652344 Z M 4.21875 1.464844 "/>
</clipPath>
<clipPath id="clip9">
  <path d="M 6.601562 1.464844 L 7.773438 1.464844 L 7.773438 2.652344 L 6.601562 2.652344 Z M 6.601562 1.464844 "/>
</clipPath>
<clipPath id="clip10">
  <path d="M 8.945312 1.464844 L 10.117188 1.464844 L 10.117188 2.652344 L 8.945312 2.652344 Z M 8.945312 1.464844 "/>
</clipPath>
<clipPath id="clip11">
  <path d="M 11.328125 1.464844 L 12.5 1.464844 L 12.5 2.652344 L 11.328125 2.652344 Z M 11.328125 1.464844 "/>
</clipPath>
<clipPath id="clip12">
  <path d="M 0.625 2.492188 L 1.796875 2.492188 L 1.796875 3.679688 L 0.625 3.679688 Z M 0.625 2.492188 "/>
</clipPath>
<clipPath id="clip13">
  <path d="M 3.007812 2.492188 L 4.179688 2.492188 L 4.179688 3.679688 L 3.007812 3.679688 Z M 3.007812 2.492188 "/>
</clipPath>
<clipPath id="clip14">
  <path d="M 5.390625 2.492188 L 6.5625 2.492188 L 6.5625 3.679688 L 5.390625 3.679688 Z M 5.390625 2.492188 "/>
</clipPath>
<clipPath id="clip15">
  <path d="M 7.773438 2.492188 L 8.945312 2.492188 L 8.945312 3.679688 L 7.773438 3.679688 Z M 7.773438 2.492188 "/>
</clipPath>
<clipPath id="clip16">
  <path d="M 10.15625 2.492188 L 11.328125 2.492188 L 11.328125 3.679688 L 10.15625 3.679688 Z M 10.15625 2.492188 "/>
</clipPath>
<clipPath id="clip17">
  <path d="M 12.5 2.492188 L 13.671875 2.492188 L 13.671875 3.679688 L 12.5 3.679688 Z M 12.5 2.492188 "/>
</clipPath>
<clipPath id="clip18">
  <path d="M 1.835938 3.523438 L 3 3.523438 L 3 4.710938 L 1.835938 4.710938 Z M 1.835938 3.523438 "/>
</clipPath>
<clipPath id="clip19">
  <path d="M 4.21875 3.523438 L 5.390625 3.523438 L 5.390625 4.710938 L 4.21875 4.710938 Z M 4.21875 3.523438 "/>
</clipPath>
<clipPath id="clip20">
  <path d="M 6.601562 3.523438 L 7.773438 3.523438 L 7.773438 4.710938 L 6.601562 4.710938 Z M 6.601562 3.523438 "/>
</clipPath>
<clipPath id="clip21">
  <path d="M 8.945312 3.523438 L 10.117188 3.523438 L 10.117188 4.710938 L 8.945312 4.710938 Z M 8.945312 3.523438 "/>
</clipPath>
<clipPath id="clip22">
  <path d="M 11.328125 3.523438 L 12.5 3.523438 L 12.5 4.710938 L 11.328125 4.710938 Z M 11.328125 3.523438 "/>
</clipPath>
<clipPath id="clip23">
  <path d="M 0.625 4.550781 L 1.796875 4.550781 L 1.796875 5.738281 L 0.625 5.738281 Z M 0.625 4.550781 "/>
</clipPath>
<clipPath id="clip24">
  <path d="M 3.007812 4.550781 L 4.179688 4.550781 L 4.179688 5.738281 L 3.007812 5.738281 Z M 3.007812 4.550781 "/>
</clipPath>
<clipPath id="clip25">
  <path d="M 5.390625 4.550781 L 6.5625 4.550781 L 6.5625 5.738281 L 5.390625 5.738281 Z M 5.390625 4.550781 "/>
</clipPath>
<clipPath id="clip26">
  <path d="M 7.773438 4.550781 L 8.945312 4.550781 L 8.945312 5.738281 L 7.773438 5.738281 Z M 7.773438 4.550781 "/>
</clipPath>
<clipPath id="clip27">
  <path d="M 10.15625 4.550781 L 11.328125 4.550781 L 11.328125 5.738281 L 10.15625 5.738281 Z M 10.15625 4.550781 "/>
</clipPath>
<clipPath id="clip28">
  <path d="M 12.5 4.550781 L 13.671875 4.550781 L 13.671875 5.738281 L 12.5 5.738281 Z M 12.5 4.550781 "/>
</clipPath>
<clipPath id="clip29">
  <path d="M 1.835938 5.582031 L 3 5.582031 L 3 6.769531 L 1.835938 6.769531 Z M 1.835938 5.582031 "/>
</clipPath>
<clipPath id="clip30">
  <path d="M 4.21875 5.582031 L 5.390625 5.582031 L 5.390625 6.769531 L 4.21875 6.769531 Z M 4.21875 5.582031 "/>
</clipPath>
<clipPath id="clip31">
  <path d="M 6.601562 5.582031 L 7.773438 5.582031 L 7.773438 6.769531 L 6.601562 6.769531 Z M 6.601562 5.582031 "/>
</clipPath>
<clipPath id="clip32">
  <path d="M 8.945312 5.582031 L 10.117188 5.582031 L 10.117188 6.769531 L 8.945312 6.769531 Z M 8.945312 5.582031 "/>
</clipPath>
<clipPath id="clip33">
  <path d="M 11.328125 5.582031 L 12.5 5.582031 L 12.5 6.769531 L 11.328125 6.769531 Z M 11.328125 5.582031 "/>
</clipPath>
<clipPath id="clip34">
  <path d="M 0.625 6.570312 L 1.796875 6.570312 L 1.796875 7.757812 L 0.625 7.757812 Z M 0.625 6.570312 "/>
</clipPath>
<clipPath id="clip35">
  <path d="M 3.007812 6.570312 L 4.179688 6.570312 L 4.179688 7.757812 L 3.007812 7.757812 Z M 3.007812 6.570312 "/>
</clipPath>
<clipPath id="clip36">
  <path d="M 5.390625 6.570312 L 6.5625 6.570312 L 6.5625 7.757812 L 5.390625 7.757812 Z M 5.390625 6.570312 "/>
</clipPath>
<clipPath id="clip37">
  <path d="M 7.773438 6.570312 L 8.945312 6.570312 L 8.945312 7.757812 L 7.773438 7.757812 Z M 7.773438 6.570312 "/>
</clipPath>
<clipPath id="clip38">
  <path d="M 10.15625 6.570312 L 11.328125 6.570312 L 11.328125 7.757812 L 10.15625 7.757812 Z M 10.15625 6.570312 "/>
</clipPath>
<clipPath id="clip39">
  <path d="M 12.5 6.570312 L 13.671875 6.570312 L 13.671875 7.757812 L 12.5 7.757812 Z M 12.5 6.570312 "/>
</clipPath>
<clipPath id="clip40">
  <path d="M 1.835938 7.601562 L 3 7.601562 L 3 8.789062 L 1.835938 8.789062 Z M 1.835938 7.601562 "/>
</clipPath>
<clipPath id="clip41">
  <path d="M 4.21875 7.601562 L 5.390625 7.601562 L 5.390625 8.789062 L 4.21875 8.789062 Z M 4.21875 7.601562 "/>
</clipPath>
<clipPath id="clip42">
  <path d="M 6.601562 7.601562 L 7.773438 7.601562 L 7.773438 8.789062 L 6.601562 8.789062 Z M 6.601562 7.601562 "/>
</clipPath>
<clipPath id="clip43">
  <path d="M 8.945312 7.601562 L 10.117188 7.601562 L 10.117188 8.789062 L 8.945312 8.789062 Z M 8.945312 7.601562 "/>
</clipPath>
<clipPath id="clip44">
  <path d="M 11.328125 7.601562 L 12.5 7.601562 L 12.5 8.789062 L 11.328125 8.789062 Z M 11.328125 7.601562 "/>
</clipPath>
<clipPath id="clip45">
  <path d="M 0.625 8.628906 L 1.796875 8.628906 L 1.796875 9.816406 L 0.625 9.816406 Z M 0.625 8.628906 "/>
</clipPath>
<clipPath id="clip46">
  <path d="M 3.007812 8.628906 L 4.179688 8.628906 L 4.179688 9.816406 L 3.007812 9.816406 Z M 3.007812 8.628906 "/>
</clipPath>
<clipPath id="clip47">
  <path d="M 5.390625 8.628906 L 6.5625 8.628906 L 6.5625 9.816406 L 5.390625 9.816406 Z M 5.390625 8.628906 "/>
</clipPath>
<clipPath id="clip48">
  <path d="M 7.773438 8.628906 L 8.945312 8.628906 L 8.945312 9.816406 L 7.773438 9.816406 Z M 7.773438 8.628906 "/>
</clipPath>
<clipPath id="clip49">
  <path d="M 10.15625 8.628906 L 11.328125 8.628906 L 11.328125 9.816406 L 10.15625 9.816406 Z M 10.15625 8.628906 "/>
</clipPath>
<clipPath id="clip50">
  <path d="M 12.5 8.628906 L 13.671875 8.628906 L 13.671875 9.816406 L 12.5 9.816406 Z M 12.5 8.628906 "/>
</clipPath>
</defs>
<g id="surface1">
<rect x="0" y="0" width="25" height="19" style="fill:rgb(74.117649%,23.921569%,26.666668%);fill-opacity:1;stroke:none;"/>
<path style="fill-rule:nonzero;fill:rgb(0%,0%,0%);fill-opacity:1;stroke-width:37;stroke-linecap:butt;stroke-linejoin:miter;stroke:rgb(100%,100%,100%);stroke-opacity:1;stroke-miterlimit:4;" d="M 0 55.263158 L 640 55.263158 M 0 128.980263 L 640 128.980263 M 0 202.993421 L 640 202.993421 M 0 277.006579 L 640 277.006579 M 0 351.019737 L 640 351.019737 M 0 425.032895 L 640 425.032895 " transform="matrix(0.0390625,0,0,0.0395833,0,0)"/>
<path style=" stroke:none;fill-rule:nonzero;fill:rgb(9.803922%,18.431373%,36.470589%);fill-opacity:1;" d="M 0 0 L 14.25 0 L 14.25 10.230469 L 0 10.230469 "/>
<g clip-path="url(#clip1)" clip-rule="nonzero">
<path style=" stroke:none;fill-rule:nonzero;fill:rgb(100%,100%,100%);fill-opacity:1;" d="M 1.171875 0.433594 L 1.523438 1.503906 L 0.625 0.832031 L 1.71875 0.832031 L 0.820312 1.503906 Z M 1.171875 0.433594 "/>
</g>
<g clip-path="url(#clip2)" clip-rule="nonzero">
<path style=" stroke:none;fill-rule:nonzero;fill:rgb(100%,100%,100%);fill-opacity:1;" d="M 3.554688 0.433594 L 3.90625 1.503906 L 3.007812 0.832031 L 4.101562 0.832031 L 3.203125 1.503906 Z M 3.554688 0.433594 "/>
</g>
<g clip-path="url(#clip3)" clip-rule="nonzero">
<path style=" stroke:none;fill-rule:nonzero;fill:rgb(100%,100%,100%);fill-opacity:1;" d="M 5.9375 0.433594 L 6.289062 1.503906 L 5.390625 0.832031 L 6.484375 0.832031 L 5.585938 1.503906 Z M 5.9375 0.433594 "/>
</g>
<g clip-path="url(#clip4)" clip-rule="nonzero">
<path style=" stroke:none;fill-rule:nonzero;fill:rgb(100%,100%,100%);fill-opacity:1;" d="M 8.320312 0.433594 L 8.671875 1.503906 L 7.773438 0.832031 L 8.867188 0.832031 L 7.96875 1.503906 Z M 8.320312 0.433594 "/>
</g>
<g clip-path="url(#clip5)" clip-rule="nonzero">
<path style=" stroke:none;fill-rule:nonzero;fill:rgb(100%,100%,100%);fill-opacity:1;" d="M 10.703125 0.433594 L 11.054688 1.503906 L 10.15625 0.832031 L 11.25 0.832031 L 10.351562 1.503906 Z M 10.703125 0.433594 "/>
</g>
<g clip-path="url(#clip6)" clip-rule="nonzero">
<path style=" stroke:none;fill-rule:nonzero;fill:rgb(100%,100%,100%);fill-opacity:1;" d="M 13.046875 0.433594 L 13.398438 1.503906 L 12.5 0.832031 L 13.59375 0.832031 L 12.695312 1.503906 Z M 13.046875 0.433594 "/>
</g>
<g clip-path="url(#clip7)" clip-rule="nonzero">
<path style=" stroke:none;fill-rule:nonzero;fill:rgb(100%,100%,100%);fill-opacity:1;" d="M 2.382812 1.464844 L 2.734375 2.535156 L 1.835938 1.859375 L 2.929688 1.859375 L 2.03125 2.535156 Z M 2.382812 1.464844 "/>
</g>
<g clip-path="url(#clip8)" clip-rule="nonzero">
<path style=" stroke:none;fill-rule:nonzero;fill:rgb(100%,100%,100%);fill-opacity:1;" d="M 4.765625 1.464844 L 5.117188 2.535156 L 4.21875 1.859375 L 5.3125 1.859375 L 4.414062 2.535156 Z M 4.765625 1.464844 "/>
</g>
<g clip-path="url(#clip9)" clip-rule="nonzero">
<path style=" stroke:none;fill-rule:nonzero;fill:rgb(100%,100%,100%);fill-opacity:1;" d="M 7.148438 1.464844 L 7.5 2.535156 L 6.601562 1.859375 L 7.695312 1.859375 L 6.796875 2.535156 Z M 7.148438 1.464844 "/>
</g>
<g clip-path="url(#clip10)" clip-rule="nonzero">
<path style=" stroke:none;fill-rule:nonzero;fill:rgb(100%,100%,100%);fill-opacity:1;" d="M 9.492188 1.464844 L 9.84375 2.535156 L 8.945312 1.859375 L 10.039062 1.859375 L 9.140625 2.535156 Z M 9.492188 1.464844 "/>
</g>
<g clip-path="url(#clip11)" clip-rule="nonzero">
<path style=" stroke:none;fill-rule:nonzero;fill:rgb(100%,100%,100%);fill-opacity:1;" d="M 11.875 1.464844 L 12.226562 2.535156 L 11.328125 1.859375 L 12.421875 1.859375 L 11.523438 2.535156 Z M 11.875 1.464844 "/>
</g>
<g clip-path="url(#clip12)" clip-rule="nonzero">
<path style=" stroke:none;fill-rule:nonzero;fill:rgb(100%,100%,100%);fill-opacity:1;" d="M 1.171875 2.492188 L 1.523438 3.5625 L 0.625 2.890625 L 1.71875 2.890625 L 0.820312 3.5625 Z M 1.171875 2.492188 "/>
</g>
<g clip-path="url(#clip13)" clip-rule="nonzero">
<path style=" stroke:none;fill-rule:nonzero;fill:rgb(100%,100%,100%);fill-opacity:1;" d="M 3.554688 2.492188 L 3.90625 3.5625 L 3.007812 2.890625 L 4.101562 2.890625 L 3.203125 3.5625 Z M 3.554688 2.492188 "/>
</g>
<g clip-path="url(#clip14)" clip-rule="nonzero">
<path style=" stroke:none;fill-rule:nonzero;fill:rgb(100%,100%,100%);fill-opacity:1;" d="M 5.9375 2.492188 L 6.289062 3.5625 L 5.390625 2.890625 L 6.484375 2.890625 L 5.585938 3.5625 Z M 5.9375 2.492188 "/>
</g>
<g clip-path="url(#clip15)" clip-rule="nonzero">
<path style=" stroke:none;fill-rule:nonzero;fill:rgb(100%,100%,100%);fill-opacity:1;" d="M 8.320312 2.492188 L 8.671875 3.5625 L 7.773438 2.890625 L 8.867188 2.890625 L 7.96875 3.5625 Z M 8.320312 2.492188 "/>
</g>
<g clip-path="url(#clip16)" clip-rule="nonzero">
<path style=" stroke:none;fill-rule:nonzero;fill:rgb(100%,100%,100%);fill-opacity:1;" d="M 10.703125 2.492188 L 11.054688 3.5625 L 10.15625 2.890625 L 11.25 2.890625 L 10.351562 3.5625 Z M 10.703125 2.492188 "/>
</g>
<g clip-path="url(#clip17)" clip-rule="nonzero">
<path style=" stroke:none;fill-rule:nonzero;fill:rgb(100%,100%,100%);fill-opacity:1;" d="M 13.046875 2.492188 L 13.398438 3.5625 L 12.5 2.890625 L 13.59375 2.890625 L 12.695312 3.5625 Z M 13.046875 2.492188 "/>
</g>
<g clip-path="url(#clip18)" clip-rule="nonzero">
<path style=" stroke:none;fill-rule:nonzero;fill:rgb(100%,100%,100%);fill-opacity:1;" d="M 2.382812 3.523438 L 2.734375 4.589844 L 1.835938 3.917969 L 2.929688 3.917969 L 2.03125 4.589844 Z M 2.382812 3.523438 "/>
</g>
<g clip-path="url(#clip19)" clip-rule="nonzero">
<path style=" stroke:none;fill-rule:nonzero;fill:rgb(100%,100%,100%);fill-opacity:1;" d="M 4.765625 3.523438 L 5.117188 4.589844 L 4.21875 3.917969 L 5.3125 3.917969 L 4.414062 4.589844 Z M 4.765625 3.523438 "/>
</g>
<g clip-path="url(#clip20)" clip-rule="nonzero">
<path style=" stroke:none;fill-rule:nonzero;fill:rgb(100%,100%,100%);fill-opacity:1;" d="M 7.148438 3.523438 L 7.5 4.589844 L 6.601562 3.917969 L 7.695312 3.917969 L 6.796875 4.589844 Z M 7.148438 3.523438 "/>
</g>
<g clip-path="url(#clip21)" clip-rule="nonzero">
<path style=" stroke:none;fill-rule:nonzero;fill:rgb(100%,100%,100%);fill-opacity:1;" d="M 9.492188 3.523438 L 9.84375 4.589844 L 8.945312 3.917969 L 10.039062 3.917969 L 9.140625 4.589844 Z M 9.492188 3.523438 "/>
</g>
<g clip-path="url(#clip22)" clip-rule="nonzero">
<path style=" stroke:none;fill-rule:nonzero;fill:rgb(100%,100%,100%);fill-opacity:1;" d="M 11.875 3.523438 L 12.226562 4.589844 L 11.328125 3.917969 L 12.421875 3.917969 L 11.523438 4.589844 Z M 11.875 3.523438 "/>
</g>
<g clip-path="url(#clip23)" clip-rule="nonzero">
<path style=" stroke:none;fill-rule:nonzero;fill:rgb(100%,100%,100%);fill-opacity:1;" d="M 1.171875 4.550781 L 1.523438 5.621094 L 0.625 4.949219 L 1.71875 4.949219 L 0.820312 5.621094 Z M 1.171875 4.550781 "/>
</g>
<g clip-path="url(#clip24)" clip-rule="nonzero">
<path style=" stroke:none;fill-rule:nonzero;fill:rgb(100%,100%,100%);fill-opacity:1;" d="M 3.554688 4.550781 L 3.90625 5.621094 L 3.007812 4.949219 L 4.101562 4.949219 L 3.203125 5.621094 Z M 3.554688 4.550781 "/>
</g>
<g clip-path="url(#clip25)" clip-rule="nonzero">
<path style=" stroke:none;fill-rule:nonzero;fill:rgb(100%,100%,100%);fill-opacity:1;" d="M 5.9375 4.550781 L 6.289062 5.621094 L 5.390625 4.949219 L 6.484375 4.949219 L 5.585938 5.621094 Z M 5.9375 4.550781 "/>
</g>
<g clip-path="url(#clip26)" clip-rule="nonzero">
<path style=" stroke:none;fill-rule:nonzero;fill:rgb(100%,100%,100%);fill-opacity:1;" d="M 8.320312 4.550781 L 8.671875 5.621094 L 7.773438 4.949219 L 8.867188 4.949219 L 7.96875 5.621094 Z M 8.320312 4.550781 "/>
</g>
<g clip-path="url(#clip27)" clip-rule="nonzero">
<path style=" stroke:none;fill-rule:nonzero;fill:rgb(100%,100%,100%);fill-opacity:1;" d="M 10.703125 4.550781 L 11.054688 5.621094 L 10.15625 4.949219 L 11.25 4.949219 L 10.351562 5.621094 Z M 10.703125 4.550781 "/>
</g>
<g clip-path="url(#clip28)" clip-rule="nonzero">
<path style=" stroke:none;fill-rule:nonzero;fill:rgb(100%,100%,100%);fill-opacity:1;" d="M 13.046875 4.550781 L 13.398438 5.621094 L 12.5 4.949219 L 13.59375 4.949219 L 12.695312 5.621094 Z M 13.046875 4.550781 "/>
</g>
<g clip-path="url(#clip29)" clip-rule="nonzero">
<path style=" stroke:none;fill-rule:nonzero;fill:rgb(100%,100%,100%);fill-opacity:1;" d="M 2.382812 5.582031 L 2.734375 6.648438 L 1.835938 5.976562 L 2.929688 5.976562 L 2.03125 6.648438 Z M 2.382812 5.582031 "/>
</g>
<g clip-path="url(#clip30)" clip-rule="nonzero">
<path style=" stroke:none;fill-rule:nonzero;fill:rgb(100%,100%,100%);fill-opacity:1;" d="M 4.765625 5.582031 L 5.117188 6.648438 L 4.21875 5.976562 L 5.3125 5.976562 L 4.414062 6.648438 Z M 4.765625 5.582031 "/>
</g>
<g clip-path="url(#clip31)" clip-rule="nonzero">
<path style=" stroke:none;fill-rule:nonzero;fill:rgb(100%,100%,100%);fill-opacity:1;" d="M 7.148438 5.582031 L 7.5 6.648438 L 6.601562 5.976562 L 7.695312 5.976562 L 6.796875 6.648438 Z M 7.148438 5.582031 "/>
</g>
<g clip-path="url(#clip32)" clip-rule="nonzero">
<path style=" stroke:none;fill-rule:nonzero;fill:rgb(100%,100%,100%);fill-opacity:1;" d="M 9.492188 5.582031 L 9.84375 6.648438 L 8.945312 5.976562 L 10.039062 5.976562 L 9.140625 6.648438 Z M 9.492188 5.582031 "/>
</g>
<g clip-path="url(#clip33)" clip-rule="nonzero">
<path style=" stroke:none;fill-rule:nonzero;fill:rgb(100%,100%,100%);fill-opacity:1;" d="M 11.875 5.582031 L 12.226562 6.648438 L 11.328125 5.976562 L 12.421875 5.976562 L 11.523438 6.648438 Z M 11.875 5.582031 "/>
</g>
<g clip-path="url(#clip34)" clip-rule="nonzero">
<path style=" stroke:none;fill-rule:nonzero;fill:rgb(100%,100%,100%);fill-opacity:1;" d="M 1.171875 6.570312 L 1.523438 7.640625 L 0.625 6.964844 L 1.71875 6.964844 L 0.820312 7.640625 Z M 1.171875 6.570312 "/>
</g>
<g clip-path="url(#clip35)" clip-rule="nonzero">
<path style=" stroke:none;fill-rule:nonzero;fill:rgb(100%,100%,100%);fill-opacity:1;" d="M 3.554688 6.570312 L 3.90625 7.640625 L 3.007812 6.964844 L 4.101562 6.964844 L 3.203125 7.640625 Z M 3.554688 6.570312 "/>
</g>
<g clip-path="url(#clip36)" clip-rule="nonzero">
<path style=" stroke:none;fill-rule:nonzero;fill:rgb(100%,100%,100%);fill-opacity:1;" d="M 5.9375 6.570312 L 6.289062 7.640625 L 5.390625 6.964844 L 6.484375 6.964844 L 5.585938 7.640625 Z M 5.9375 6.570312 "/>
</g>
<g clip-path="url(#clip37)" clip-rule="nonzero">
<path style=" stroke:none;fill-rule:nonzero;fill:rgb(100%,100%,100%);fill-opacity:1;" d="M 8.320312 6.570312 L 8.671875 7.640625 L 7.773438 6.964844 L 8.867188 6.964844 L 7.96875 7.640625 Z M 8.320312 6.570312 "/>
</g>
<g clip-path="url(#clip38)" clip-rule="nonzero">
<path style=" stroke:none;fill-rule:nonzero;fill:rgb(100%,100%,100%);fill-opacity:1;" d="M 10.703125 6.570312 L 11.054688 7.640625 L 10.15625 6.964844 L 11.25 6.964844 L 10.351562 7.640625 Z M 10.703125 6.570312 "/>
</g>
<g clip-path="url(#clip39)" clip-rule="nonzero">
<path style=" stroke:none;fill-rule:nonzero;fill:rgb(100%,100%,100%);fill-opacity:1;" d="M 13.046875 6.570312 L 13.398438 7.640625 L 12.5 6.964844 L 13.59375 6.964844 L 12.695312 7.640625 Z M 13.046875 6.570312 "/>
</g>
<g clip-path="url(#clip40)" clip-rule="nonzero">
<path style=" stroke:none;fill-rule:nonzero;fill:rgb(100%,100%,100%);fill-opacity:1;" d="M 2.382812 7.601562 L 2.734375 8.667969 L 1.835938 7.996094 L 2.929688 7.996094 L 2.03125 8.667969 Z M 2.382812 7.601562 "/>
</g>
<g clip-path="url(#clip41)" clip-rule="nonzero">
<path style=" stroke:none;fill-rule:nonzero;fill:rgb(100%,100%,100%);fill-opacity:1;" d="M 4.765625 7.601562 L 5.117188 8.667969 L 4.21875 7.996094 L 5.3125 7.996094 L 4.414062 8.667969 Z M 4.765625 7.601562 "/>
</g>
<g clip-path="url(#clip42)" clip-rule="nonzero">
<path style=" stroke:none;fill-rule:nonzero;fill:rgb(100%,100%,100%);fill-opacity:1;" d="M 7.148438 7.601562 L 7.5 8.667969 L 6.601562 7.996094 L 7.695312 7.996094 L 6.796875 8.667969 Z M 7.148438 7.601562 "/>
</g>
<g clip-path="url(#clip43)" clip-rule="nonzero">
<path style=" stroke:none;fill-rule:nonzero;fill:rgb(100%,100%,100%);fill-opacity:1;" d="M 9.492188 7.601562 L 9.84375 8.667969 L 8.945312 7.996094 L 10.039062 7.996094 L 9.140625 8.667969 Z M 9.492188 7.601562 "/>
</g>
<g clip-path="url(#clip44)" clip-rule="nonzero">
<path style=" stroke:none;fill-rule:nonzero;fill:rgb(100%,100%,100%);fill-opacity:1;" d="M 11.875 7.601562 L 12.226562 8.667969 L 11.328125 7.996094 L 12.421875 7.996094 L 11.523438 8.667969 Z M 11.875 7.601562 "/>
</g>
<g clip-path="url(#clip45)" clip-rule="nonzero">
<path style=" stroke:none;fill-rule:nonzero;fill:rgb(100%,100%,100%);fill-opacity:1;" d="M 1.171875 8.628906 L 1.523438 9.699219 L 0.625 9.023438 L 1.71875 9.023438 L 0.820312 9.699219 Z M 1.171875 8.628906 "/>
</g>
<g clip-path="url(#clip46)" clip-rule="nonzero">
<path style=" stroke:none;fill-rule:nonzero;fill:rgb(100%,100%,100%);fill-opacity:1;" d="M 3.554688 8.628906 L 3.90625 9.699219 L 3.007812 9.023438 L 4.101562 9.023438 L 3.203125 9.699219 Z M 3.554688 8.628906 "/>
</g>
<g clip-path="url(#clip47)" clip-rule="nonzero">
<path style=" stroke:none;fill-rule:nonzero;fill:rgb(100%,100%,100%);fill-opacity:1;" d="M 5.9375 8.628906 L 6.289062 9.699219 L 5.390625 9.023438 L 6.484375 9.023438 L 5.585938 9.699219 Z M 5.9375 8.628906 "/>
</g>
<g clip-path="url(#clip48)" clip-rule="nonzero">
<path style=" stroke:none;fill-rule:nonzero;fill:rgb(100%,100%,100%);fill-opacity:1;" d="M 8.320312 8.628906 L 8.671875 9.699219 L 7.773438 9.023438 L 8.867188 9.023438 L 7.96875 9.699219 Z M 8.320312 8.628906 "/>
</g>
<g clip-path="url(#clip49)" clip-rule="nonzero">
<path style=" stroke:none;fill-rule:nonzero;fill:rgb(100%,100%,100%);fill-opacity:1;" d="M 10.703125 8.628906 L 11.054688 9.699219 L 10.15625 9.023438 L 11.25 9.023438 L 10.351562 9.699219 Z M 10.703125 8.628906 "/>
</g>
<g clip-path="url(#clip50)" clip-rule="nonzero">
<path style=" stroke:none;fill-rule:nonzero;fill:rgb(100%,100%,100%);fill-opacity:1;" d="M 13.046875 8.628906 L 13.398438 9.699219 L 12.5 9.023438 L 13.59375 9.023438 L 12.695312 9.699219 Z M 13.046875 8.628906 "/>
</g>
</g>
</svg>
