<?xml version="1.0" encoding="UTF-8"?>
<svg xmlns="http://www.w3.org/2000/svg" xmlns:xlink="http://www.w3.org/1999/xlink" width="25px" height="px" viewBox="0 0 25 19" version="1.1">
<g id="surface1">
<rect x="0" y="0" width="25" height="19" style="fill:rgb(29.411766%,57.254905%,85.882354%);fill-opacity:1;stroke:none;"/>
<path style=" stroke:none;fill-rule:nonzero;fill:rgb(100%,100%,100%);fill-opacity:1;" d="M 13.972656 13.941406 C 13.90625 14.015625 13.832031 14.085938 13.75 14.144531 C 13.253906 13.621094 12.667969 13.046875 12.113281 13.046875 C 11.769531 13.046875 11.523438 13.3125 11.230469 13.5 C 10.832031 13.761719 10.28125 13.90625 9.808594 13.714844 C 9.542969 13.625 9.304688 13.460938 9.125 13.242188 C 9.53125 13.496094 10.03125 13.539062 10.472656 13.359375 C 10.933594 13.164062 11.40625 12.90625 11.933594 12.90625 C 12.714844 12.90625 13.453125 13.441406 13.972656 13.941406 M 8.21875 12.300781 C 8.734375 12.894531 9.574219 12.707031 10.261719 12.851562 C 10.359375 12.878906 10.449219 12.90625 10.550781 12.890625 C 10.46875 12.839844 10.359375 12.832031 10.265625 12.796875 C 9.730469 12.59375 9.648438 12.011719 9.355469 11.617188 C 9.730469 11.867188 10.039062 12.210938 10.386719 12.535156 C 10.632812 12.742188 10.933594 12.875 11.25 12.921875 C 11.171875 12.949219 11.074219 12.945312 10.992188 12.960938 C 10.429688 13.105469 9.804688 13.328125 9.203125 13.128906 C 8.785156 12.988281 8.433594 12.695312 8.21875 12.300781 Z M 7.394531 10.925781 C 7.714844 11.664062 8.523438 11.722656 9.058594 12.175781 C 9.152344 12.261719 9.257812 12.332031 9.375 12.394531 L 9.378906 12.386719 C 9.25 12.269531 9.128906 12.140625 9.027344 11.996094 C 8.71875 11.542969 8.820312 10.925781 8.582031 10.449219 C 8.804688 10.695312 8.984375 10.976562 9.125 11.277344 C 9.324219 11.757812 9.390625 12.304688 9.839844 12.671875 C 9.355469 12.507812 8.796875 12.539062 8.363281 12.253906 C 7.902344 11.949219 7.480469 11.46875 7.394531 10.925781 Z M 7.046875 9.433594 C 7.09375 10.085938 7.773438 10.429688 8.101562 10.964844 C 8.171875 11.078125 8.242188 11.199219 8.34375 11.289062 C 8.328125 11.21875 8.273438 11.15625 8.242188 11.089844 C 8.132812 10.851562 8.089844 10.585938 8.117188 10.324219 C 8.148438 9.992188 8.285156 9.683594 8.230469 9.332031 C 8.511719 9.949219 8.421875 10.714844 8.582031 11.378906 C 8.621094 11.527344 8.707031 11.652344 8.761719 11.792969 C 8.488281 11.582031 8.125 11.390625 7.824219 11.152344 C 7.523438 10.933594 7.289062 10.632812 7.144531 10.285156 C 7.050781 10.011719 7.019531 9.722656 7.046875 9.433594 M 7.066406 8.238281 C 7.101562 8.089844 7.125 7.941406 7.1875 7.808594 C 7.070312 8.421875 7.472656 8.863281 7.609375 9.394531 C 7.660156 9.59375 7.679688 9.804688 7.757812 9.992188 C 7.765625 9.992188 7.773438 9.992188 7.777344 9.984375 C 7.578125 9.417969 7.871094 8.898438 8.152344 8.453125 C 8.222656 8.332031 8.269531 8.199219 8.296875 8.0625 C 8.328125 8.316406 8.273438 8.613281 8.226562 8.875 C 8.167969 9.214844 8.054688 9.535156 7.960938 9.859375 C 7.914062 10.074219 7.910156 10.296875 7.949219 10.511719 L 7.921875 10.488281 C 7.710938 10.09375 7.292969 9.785156 7.167969 9.351562 C 7.050781 8.992188 7.015625 8.613281 7.066406 8.238281 M 7.289062 7.578125 C 7.296875 7.140625 7.453125 6.71875 7.734375 6.390625 C 7.742188 6.382812 7.75 6.378906 7.757812 6.378906 C 7.464844 6.832031 7.734375 7.40625 7.691406 7.921875 L 7.65625 8.449219 C 7.660156 8.453125 7.660156 8.46875 7.675781 8.460938 C 7.691406 8.402344 7.699219 8.339844 7.707031 8.277344 C 7.777344 7.851562 8.148438 7.558594 8.460938 7.257812 C 8.53125 7.1875 8.585938 7.105469 8.625 7.011719 C 8.597656 7.226562 8.539062 7.441406 8.445312 7.632812 C 8.203125 8.128906 7.738281 8.527344 7.65625 9.089844 C 7.617188 8.550781 7.289062 8.148438 7.289062 7.578125 M 8.0625 6.011719 C 8.199219 5.847656 8.378906 5.726562 8.578125 5.664062 C 8.191406 5.933594 8.214844 6.410156 8.097656 6.808594 C 8.054688 6.953125 7.992188 7.089844 7.957031 7.242188 L 7.96875 7.25 C 8.035156 7.070312 8.144531 6.910156 8.285156 6.777344 C 8.554688 6.523438 8.957031 6.363281 9.09375 5.988281 C 9.085938 6.511719 8.644531 6.910156 8.242188 7.21875 C 8.0625 7.359375 7.917969 7.535156 7.816406 7.738281 C 7.828125 7.59375 7.839844 7.472656 7.824219 7.332031 C 7.78125 6.875 7.753906 6.359375 8.066406 6.011719 Z M 9.621094 5.128906 C 9.339844 5.382812 9.148438 5.710938 8.929688 6 C 8.746094 6.246094 8.496094 6.394531 8.285156 6.601562 C 8.402344 6.359375 8.417969 6.078125 8.566406 5.84375 C 8.816406 5.4375 9.234375 5.28125 9.621094 5.128906 "/>
<path style=" stroke:none;fill-rule:nonzero;fill:rgb(100%,100%,100%);fill-opacity:1;" d="M 11.03125 13.941406 C 11.097656 14.015625 11.171875 14.085938 11.253906 14.144531 C 11.75 13.621094 12.335938 13.046875 12.890625 13.046875 C 13.234375 13.046875 13.480469 13.3125 13.773438 13.5 C 14.171875 13.761719 14.722656 13.90625 15.195312 13.714844 C 15.460938 13.625 15.699219 13.460938 15.878906 13.242188 C 15.472656 13.496094 14.972656 13.539062 14.53125 13.359375 C 14.070312 13.164062 13.597656 12.90625 13.070312 12.90625 C 12.292969 12.90625 11.550781 13.441406 11.03125 13.941406 M 16.785156 12.300781 C 16.269531 12.894531 15.429688 12.707031 14.742188 12.851562 C 14.648438 12.878906 14.554688 12.90625 14.453125 12.890625 C 14.535156 12.839844 14.644531 12.832031 14.738281 12.796875 C 15.273438 12.59375 15.355469 12.011719 15.648438 11.617188 C 15.273438 11.867188 14.964844 12.210938 14.617188 12.535156 C 14.371094 12.742188 14.074219 12.875 13.757812 12.921875 C 13.832031 12.949219 13.929688 12.945312 14.015625 12.960938 C 14.578125 13.105469 15.199219 13.328125 15.800781 13.128906 C 16.21875 12.988281 16.570312 12.695312 16.785156 12.300781 Z M 17.613281 10.925781 C 17.289062 11.664062 16.480469 11.722656 15.949219 12.175781 C 15.851562 12.261719 15.746094 12.332031 15.632812 12.394531 L 15.625 12.386719 C 15.757812 12.269531 15.875 12.140625 15.976562 11.996094 C 16.285156 11.542969 16.183594 10.925781 16.421875 10.449219 C 16.203125 10.695312 16.019531 10.976562 15.878906 11.277344 C 15.679688 11.757812 15.613281 12.304688 15.164062 12.671875 C 15.648438 12.507812 16.207031 12.539062 16.640625 12.253906 C 17.101562 11.949219 17.523438 11.46875 17.613281 10.925781 Z M 17.957031 9.433594 C 17.910156 10.085938 17.230469 10.429688 16.902344 10.964844 C 16.832031 11.078125 16.761719 11.199219 16.660156 11.289062 C 16.675781 11.21875 16.730469 11.15625 16.761719 11.089844 C 16.871094 10.851562 16.914062 10.585938 16.886719 10.324219 C 16.855469 9.992188 16.722656 9.683594 16.773438 9.332031 C 16.492188 9.949219 16.582031 10.714844 16.421875 11.378906 C 16.382812 11.527344 16.296875 11.652344 16.242188 11.792969 C 16.515625 11.582031 16.878906 11.390625 17.179688 11.152344 C 17.480469 10.933594 17.714844 10.632812 17.859375 10.285156 C 17.953125 10.011719 17.984375 9.722656 17.957031 9.433594 M 17.9375 8.238281 C 17.90625 8.089844 17.878906 7.941406 17.816406 7.808594 C 17.933594 8.421875 17.53125 8.863281 17.394531 9.394531 C 17.34375 9.59375 17.324219 9.804688 17.246094 9.992188 C 17.238281 9.992188 17.230469 9.992188 17.226562 9.984375 C 17.425781 9.417969 17.132812 8.898438 16.851562 8.453125 C 16.785156 8.332031 16.734375 8.199219 16.707031 8.0625 C 16.675781 8.316406 16.730469 8.613281 16.777344 8.875 C 16.835938 9.214844 16.949219 9.535156 17.042969 9.859375 C 17.089844 10.074219 17.09375 10.296875 17.054688 10.511719 L 17.085938 10.488281 C 17.296875 10.09375 17.710938 9.785156 17.835938 9.351562 C 17.957031 8.992188 17.988281 8.613281 17.9375 8.238281 M 17.714844 7.578125 C 17.707031 7.140625 17.550781 6.71875 17.269531 6.390625 C 17.261719 6.382812 17.253906 6.378906 17.246094 6.378906 C 17.542969 6.832031 17.273438 7.40625 17.3125 7.921875 L 17.347656 8.449219 C 17.34375 8.453125 17.34375 8.46875 17.332031 8.460938 C 17.3125 8.402344 17.308594 8.339844 17.296875 8.277344 C 17.226562 7.851562 16.855469 7.558594 16.546875 7.257812 C 16.472656 7.1875 16.417969 7.105469 16.382812 7.011719 C 16.40625 7.226562 16.464844 7.441406 16.558594 7.632812 C 16.800781 8.128906 17.265625 8.527344 17.347656 9.089844 C 17.390625 8.550781 17.714844 8.148438 17.714844 7.578125 M 16.941406 6.011719 C 16.808594 5.847656 16.628906 5.726562 16.425781 5.664062 C 16.8125 5.933594 16.792969 6.410156 16.910156 6.808594 C 16.949219 6.953125 17.015625 7.089844 17.050781 7.242188 L 17.039062 7.25 C 16.96875 7.070312 16.859375 6.910156 16.722656 6.777344 C 16.453125 6.523438 16.046875 6.363281 15.914062 5.988281 C 15.917969 6.511719 16.359375 6.910156 16.761719 7.21875 C 16.941406 7.359375 17.089844 7.535156 17.191406 7.738281 C 17.175781 7.59375 17.167969 7.472656 17.179688 7.332031 C 17.222656 6.875 17.25 6.359375 16.9375 6.011719 Z M 15.382812 5.128906 C 15.667969 5.382812 15.855469 5.710938 16.078125 6 C 16.257812 6.246094 16.507812 6.394531 16.722656 6.601562 C 16.605469 6.359375 16.585938 6.078125 16.4375 5.84375 C 16.1875 5.4375 15.769531 5.28125 15.382812 5.128906 "/>
<path style=" stroke:none;fill-rule:nonzero;fill:rgb(100%,100%,100%);fill-opacity:1;" d="M 15.976562 10.371094 L 15.894531 10.324219 C 15.714844 10.695312 15.480469 11.035156 15.195312 11.328125 L 14.707031 10.828125 C 14.941406 10.582031 15.136719 10.296875 15.28125 9.988281 L 15.199219 9.9375 C 15.058594 10.242188 14.867188 10.523438 14.636719 10.761719 L 14.191406 10.3125 C 14.378906 10.113281 14.535156 9.886719 14.644531 9.632812 L 14.5625 9.585938 C 14.457031 9.832031 14.308594 10.050781 14.125 10.246094 L 13.636719 9.75 C 13.769531 9.605469 13.875 9.433594 13.949219 9.25 L 13.867188 9.203125 C 13.796875 9.378906 13.699219 9.539062 13.570312 9.679688 L 13.121094 9.226562 C 13.246094 9.085938 13.320312 8.902344 13.332031 8.710938 L 13.964844 8.710938 C 13.960938 8.878906 13.925781 9.046875 13.867188 9.203125 L 13.949219 9.25 C 14.015625 9.078125 14.054688 8.898438 14.058594 8.710938 L 14.753906 8.710938 C 14.746094 9.015625 14.679688 9.3125 14.558594 9.585938 L 14.644531 9.632812 C 14.773438 9.34375 14.839844 9.03125 14.847656 8.710938 L 15.480469 8.710938 C 15.472656 9.136719 15.378906 9.554688 15.199219 9.9375 L 15.28125 9.988281 C 15.464844 9.585938 15.566406 9.152344 15.570312 8.710938 L 16.269531 8.710938 C 16.261719 9.269531 16.136719 9.820312 15.894531 10.324219 Z M 15.976562 10.371094 C 16.230469 9.839844 16.363281 9.257812 16.367188 8.667969 C 16.367188 8.164062 16.273438 7.667969 16.085938 7.199219 L 16 7.238281 C 16.175781 7.679688 16.269531 8.148438 16.273438 8.621094 L 15.574219 8.621094 C 15.570312 8.242188 15.496094 7.867188 15.359375 7.511719 L 15.273438 7.550781 C 15.40625 7.894531 15.480469 8.253906 15.484375 8.621094 L 14.84375 8.621094 C 14.839844 8.34375 14.785156 8.066406 14.6875 7.804688 L 14.601562 7.84375 C 14.695312 8.09375 14.746094 8.355469 14.75 8.621094 L 14.0625 8.621094 C 14.058594 8.449219 14.027344 8.28125 13.96875 8.121094 L 13.882812 8.160156 C 13.933594 8.308594 13.964844 8.464844 13.96875 8.621094 L 13.335938 8.621094 C 13.324219 8.429688 13.25 8.25 13.125 8.105469 L 13.574219 7.652344 C 13.710938 7.796875 13.816406 7.96875 13.882812 8.15625 L 13.96875 8.121094 C 13.894531 7.921875 13.785156 7.738281 13.640625 7.585938 L 14.132812 7.085938 C 14.339844 7.304688 14.5 7.5625 14.609375 7.84375 L 14.695312 7.804688 C 14.582031 7.511719 14.410156 7.246094 14.195312 7.019531 L 14.644531 6.566406 C 14.917969 6.851562 15.128906 7.1875 15.273438 7.554688 L 15.359375 7.515625 C 15.210938 7.136719 14.988281 6.792969 14.707031 6.5 L 15.199219 6 C 15.542969 6.355469 15.816406 6.777344 16 7.238281 L 16.085938 7.199219 C 15.890625 6.714844 15.601562 6.273438 15.234375 5.902344 C 14.867188 5.527344 14.429688 5.234375 13.945312 5.035156 L 13.914062 5.125 C 14.371094 5.3125 14.785156 5.585938 15.136719 5.933594 L 14.644531 6.433594 C 14.359375 6.152344 14.027344 5.933594 13.660156 5.78125 L 13.621094 5.871094 C 13.976562 6.015625 14.300781 6.230469 14.578125 6.503906 L 14.132812 6.953125 C 13.917969 6.746094 13.667969 6.578125 13.390625 6.464844 L 13.359375 6.550781 C 13.621094 6.660156 13.859375 6.820312 14.0625 7.019531 L 13.574219 7.515625 C 13.4375 7.386719 13.277344 7.28125 13.105469 7.207031 L 13.070312 7.300781 C 13.230469 7.367188 13.378906 7.464844 13.507812 7.585938 L 13.054688 8.035156 C 12.914062 7.90625 12.734375 7.832031 12.546875 7.820312 L 12.546875 7.179688 C 12.726562 7.1875 12.902344 7.226562 13.066406 7.296875 L 13.101562 7.207031 C 12.925781 7.132812 12.738281 7.089844 12.546875 7.085938 L 12.546875 6.378906 C 12.824219 6.386719 13.097656 6.441406 13.355469 6.546875 L 13.390625 6.460938 C 13.121094 6.351562 12.835938 6.289062 12.546875 6.285156 L 12.546875 5.644531 C 12.914062 5.648438 13.28125 5.726562 13.621094 5.867188 L 13.652344 5.777344 C 13.300781 5.636719 12.925781 5.558594 12.546875 5.554688 L 12.546875 4.84375 C 13.015625 4.851562 13.476562 4.945312 13.910156 5.121094 L 13.941406 5.03125 C 13.484375 4.847656 12.992188 4.753906 12.5 4.753906 C 11.902344 4.753906 11.308594 4.894531 10.773438 5.164062 L 10.8125 5.246094 C 11.324219 4.988281 11.882812 4.851562 12.453125 4.847656 L 12.453125 5.554688 C 11.996094 5.558594 11.546875 5.667969 11.136719 5.875 L 11.179688 5.953125 C 11.578125 5.753906 12.011719 5.648438 12.453125 5.644531 L 12.453125 6.285156 C 12.113281 6.292969 11.78125 6.375 11.476562 6.523438 L 11.515625 6.605469 C 11.808594 6.464844 12.128906 6.386719 12.453125 6.378906 L 12.453125 7.085938 C 12.242188 7.09375 12.03125 7.144531 11.839844 7.234375 L 11.878906 7.316406 C 12.058594 7.230469 12.253906 7.183594 12.453125 7.179688 L 12.453125 7.820312 C 12.359375 7.828125 12.265625 7.847656 12.179688 7.886719 L 12.21875 7.964844 C 12.308594 7.929688 12.402344 7.910156 12.5 7.914062 C 12.695312 7.914062 12.882812 7.992188 13.023438 8.128906 C 13.164062 8.273438 13.242188 8.46875 13.242188 8.667969 C 13.242188 9.085938 12.910156 9.421875 12.5 9.421875 C 12.304688 9.421875 12.113281 9.339844 11.976562 9.199219 C 11.835938 9.058594 11.757812 8.867188 11.757812 8.667969 C 11.757812 8.46875 11.835938 8.277344 11.976562 8.132812 C 12.046875 8.066406 12.128906 8.007812 12.21875 7.972656 L 12.175781 7.890625 C 12.089844 7.925781 12.011719 7.976562 11.941406 8.039062 L 11.496094 7.585938 C 11.609375 7.476562 11.742188 7.386719 11.882812 7.320312 L 11.839844 7.238281 C 11.691406 7.308594 11.550781 7.402344 11.429688 7.515625 L 10.9375 7.019531 C 11.109375 6.851562 11.304688 6.714844 11.515625 6.609375 L 11.476562 6.53125 C 11.253906 6.640625 11.050781 6.78125 10.875 6.953125 L 10.425781 6.492188 C 10.648438 6.273438 10.902344 6.09375 11.179688 5.953125 L 11.140625 5.875 C 10.851562 6.015625 10.589844 6.203125 10.359375 6.429688 L 9.867188 5.925781 C 10.148438 5.652344 10.46875 5.421875 10.816406 5.246094 L 10.773438 5.160156 C 10.019531 5.546875 9.410156 6.167969 9.035156 6.933594 L 9.113281 6.972656 C 9.289062 6.613281 9.523438 6.28125 9.800781 5.992188 L 10.296875 6.496094 C 10.066406 6.734375 9.875 7.011719 9.730469 7.316406 L 9.808594 7.359375 C 9.949219 7.0625 10.132812 6.792969 10.359375 6.558594 L 10.808594 7.011719 C 10.625 7.203125 10.476562 7.421875 10.367188 7.664062 L 10.445312 7.707031 C 10.554688 7.472656 10.699219 7.261719 10.875 7.078125 L 11.367188 7.578125 C 11.238281 7.710938 11.136719 7.871094 11.0625 8.042969 L 11.144531 8.089844 C 11.210938 7.925781 11.308594 7.773438 11.429688 7.644531 L 11.878906 8.09375 C 11.75 8.238281 11.675781 8.421875 11.667969 8.613281 L 11.035156 8.613281 C 11.039062 8.433594 11.078125 8.257812 11.144531 8.089844 L 11.066406 8.042969 C 10.988281 8.222656 10.949219 8.417969 10.941406 8.613281 L 10.246094 8.613281 C 10.253906 8.300781 10.320312 7.992188 10.449219 7.707031 L 10.371094 7.667969 C 10.234375 7.964844 10.160156 8.285156 10.152344 8.613281 L 9.519531 8.613281 C 9.527344 8.179688 9.625 7.75 9.8125 7.359375 L 9.730469 7.316406 C 9.539062 7.71875 9.433594 8.164062 9.429688 8.613281 L 8.730469 8.613281 C 8.738281 8.046875 8.871094 7.488281 9.117188 6.980469 L 9.035156 6.933594 C 8.773438 7.472656 8.636719 8.0625 8.636719 8.660156 C 8.636719 9.035156 8.6875 9.40625 8.792969 9.765625 L 8.882812 9.742188 C 8.785156 9.40625 8.734375 9.058594 8.730469 8.707031 L 9.429688 8.707031 C 9.433594 9 9.476562 9.289062 9.558594 9.566406 L 9.648438 9.542969 C 9.566406 9.273438 9.523438 8.992188 9.519531 8.707031 L 10.15625 8.707031 C 10.160156 8.941406 10.195312 9.167969 10.265625 9.390625 L 10.359375 9.367188 C 10.292969 9.152344 10.253906 8.929688 10.25 8.707031 L 10.9375 8.707031 C 10.941406 8.875 10.972656 9.035156 11.027344 9.191406 L 11.117188 9.167969 C 11.066406 9.019531 11.035156 8.863281 11.03125 8.707031 L 11.664062 8.707031 C 11.675781 8.898438 11.75 9.082031 11.875 9.222656 L 11.425781 9.679688 C 11.289062 9.53125 11.183594 9.359375 11.117188 9.167969 L 11.027344 9.191406 C 11.101562 9.398438 11.214844 9.585938 11.363281 9.746094 L 10.867188 10.246094 C 10.632812 9.996094 10.457031 9.695312 10.351562 9.367188 L 10.257812 9.390625 C 10.367188 9.734375 10.554688 10.050781 10.804688 10.3125 L 10.359375 10.765625 C 10.03125 10.421875 9.789062 10.003906 9.652344 9.546875 L 9.5625 9.570312 C 9.703125 10.046875 9.953125 10.476562 10.292969 10.832031 L 9.804688 11.332031 C 9.375 10.886719 9.058594 10.34375 8.886719 9.746094 L 8.792969 9.769531 C 8.976562 10.398438 9.3125 10.96875 9.769531 11.433594 C 10.078125 11.746094 10.441406 12.007812 10.835938 12.199219 L 10.882812 12.117188 C 10.507812 11.9375 10.164062 11.695312 9.867188 11.398438 L 10.359375 10.902344 C 10.613281 11.148438 10.902344 11.347656 11.222656 11.496094 L 11.269531 11.414062 C 10.957031 11.273438 10.671875 11.074219 10.425781 10.832031 L 10.871094 10.382812 C 11.078125 10.582031 11.320312 10.746094 11.582031 10.859375 L 11.628906 10.773438 C 11.371094 10.664062 11.136719 10.511719 10.9375 10.316406 L 11.429688 9.816406 C 11.585938 9.964844 11.773438 10.082031 11.976562 10.152344 L 12.019531 10.070312 C 11.824219 10.003906 11.644531 9.894531 11.496094 9.75 L 11.945312 9.292969 C 12.085938 9.421875 12.265625 9.496094 12.453125 9.507812 L 12.453125 10.148438 C 12.308594 10.144531 12.160156 10.117188 12.023438 10.070312 L 11.972656 10.148438 C 12.125 10.207031 12.289062 10.238281 12.453125 10.246094 L 12.453125 10.949219 C 12.171875 10.945312 11.890625 10.882812 11.628906 10.773438 L 11.582031 10.855469 C 11.859375 10.972656 12.152344 11.039062 12.453125 11.042969 L 12.453125 11.683594 C 12.042969 11.679688 11.640625 11.585938 11.269531 11.414062 L 11.222656 11.496094 C 11.609375 11.675781 12.027344 11.773438 12.453125 11.78125 L 12.453125 12.484375 C 11.910156 12.480469 11.375 12.351562 10.882812 12.117188 L 10.835938 12.195312 C 11.355469 12.449219 11.925781 12.578125 12.5 12.578125 C 13.117188 12.578125 13.710938 12.433594 14.242188 12.160156 L 14.195312 12.074219 C 13.683594 12.335938 13.121094 12.476562 12.546875 12.484375 L 12.546875 11.777344 C 13.007812 11.769531 13.460938 11.65625 13.875 11.449219 L 13.835938 11.363281 C 13.433594 11.566406 12.996094 11.675781 12.546875 11.679688 L 12.546875 11.046875 C 12.894531 11.039062 13.234375 10.953125 13.546875 10.792969 L 13.503906 10.710938 C 13.207031 10.863281 12.878906 10.941406 12.546875 10.949219 L 12.546875 10.246094 C 12.769531 10.238281 12.984375 10.183594 13.183594 10.085938 L 13.144531 10 C 12.957031 10.09375 12.753906 10.144531 12.546875 10.148438 L 12.546875 9.507812 C 12.734375 9.496094 12.914062 9.421875 13.054688 9.292969 L 13.503906 9.75 C 13.394531 9.851562 13.273438 9.933594 13.140625 10 L 13.183594 10.085938 C 13.324219 10.015625 13.457031 9.925781 13.570312 9.816406 L 14.0625 10.3125 C 13.898438 10.472656 13.710938 10.605469 13.503906 10.710938 L 13.542969 10.792969 C 13.757812 10.6875 13.957031 10.546875 14.128906 10.378906 L 14.574219 10.828125 C 14.355469 11.046875 14.105469 11.226562 13.832031 11.363281 L 13.878906 11.449219 C 14.160156 11.304688 14.414062 11.117188 14.640625 10.898438 L 15.128906 11.394531 C 14.851562 11.667969 14.539062 11.898438 14.195312 12.074219 L 14.242188 12.160156 C 14.609375 11.972656 14.941406 11.726562 15.230469 11.433594 C 15.535156 11.121094 15.789062 10.765625 15.976562 10.371094 "/>
<path style=" stroke:none;fill-rule:nonzero;fill:rgb(100%,100%,100%);fill-opacity:1;" d="M 12.722656 7.757812 L 12.699219 7.757812 L 12.699219 7.785156 L 12.722656 7.785156 Z M 12.664062 7.71875 L 12.695312 7.71875 L 12.695312 7.742188 L 12.664062 7.742188 Z M 12.609375 7.710938 L 12.632812 7.714844 L 12.636719 7.691406 L 12.609375 7.691406 Z M 12.585938 7.703125 L 12.558594 7.703125 L 12.558594 7.675781 L 12.589844 7.679688 Z M 12.359375 7.671875 L 12.390625 7.671875 L 12.390625 7.695312 L 12.359375 7.695312 Z M 12.292969 7.71875 L 12.320312 7.722656 L 12.320312 7.699219 L 12.296875 7.699219 Z M 12.292969 7.757812 L 12.265625 7.746094 L 12.265625 7.722656 L 12.300781 7.734375 Z M 12.238281 7.785156 L 12.238281 7.761719 L 12.257812 7.757812 L 12.261719 7.78125 Z M 9.167969 10.222656 L 9.167969 10.203125 L 9.148438 10.203125 L 9.148438 10.246094 L 9.179688 10.246094 L 9.179688 10.296875 L 9.203125 10.296875 L 9.203125 10.234375 Z M 9.460938 10.582031 L 9.421875 10.542969 L 9.386719 10.496094 L 9.371094 10.457031 L 9.34375 10.386719 L 9.402344 10.417969 L 9.421875 10.472656 L 9.449219 10.492188 L 9.476562 10.554688 Z M 10.269531 11.652344 L 10.265625 11.617188 L 10.230469 11.570312 L 10.28125 11.578125 L 10.328125 11.621094 L 10.351562 11.671875 L 10.320312 11.6875 L 10.308594 11.664062 Z M 12.378906 8.015625 L 12.339844 8.015625 L 12.328125 7.929688 L 12.351562 7.914062 L 12.351562 7.871094 L 12.214844 7.871094 L 12.214844 7.824219 L 12.230469 7.8125 L 12.199219 7.800781 L 12.175781 7.832031 L 12.167969 7.871094 L 12.128906 7.878906 L 12.128906 7.898438 L 12.101562 7.898438 L 12.101562 7.949219 L 11.992188 8.039062 L 11.773438 8.03125 C 11.761719 8.070312 11.722656 8.03125 11.722656 8.03125 C 11.710938 8.003906 11.660156 8.03125 11.660156 8.03125 C 11.660156 8.070312 11.582031 8.007812 11.582031 8.007812 L 11.449219 7.910156 C 11.371094 7.835938 11.253906 7.929688 11.25 7.949219 C 11.25 8.003906 11.160156 7.960938 11.160156 7.960938 C 11.160156 7.960938 11.082031 7.9375 11.070312 7.96875 C 11.058594 8 11.007812 7.992188 11.007812 7.992188 L 11 8.007812 L 10.960938 8.015625 L 10.953125 8.039062 L 10.90625 8.046875 L 11.023438 8.046875 C 11.054688 8.039062 11.011719 8.113281 10.992188 8.109375 L 10.9375 8.109375 L 10.917969 8.132812 L 10.867188 8.132812 L 10.84375 8.167969 L 10.769531 8.160156 C 10.769531 8.160156 10.730469 8.199219 10.730469 8.210938 C 10.734375 8.222656 10.722656 8.257812 10.710938 8.257812 C 10.699219 8.257812 10.675781 8.296875 10.683594 8.304688 C 10.691406 8.316406 10.660156 8.355469 10.660156 8.355469 L 10.652344 8.394531 L 10.628906 8.40625 L 10.628906 8.515625 L 10.582031 8.546875 L 10.582031 8.59375 L 10.511719 8.671875 L 10.519531 8.730469 L 10.460938 8.800781 L 10.46875 8.863281 L 10.433594 8.875 L 10.425781 8.902344 L 10.410156 8.984375 L 10.449219 8.988281 C 10.46875 8.980469 10.464844 9.039062 10.449219 9.050781 C 10.433594 9.0625 10.390625 9.078125 10.414062 9.09375 C 10.4375 9.109375 10.351562 9.105469 10.351562 9.082031 C 10.351562 9.058594 10.304688 9.03125 10.292969 9.039062 C 10.28125 9.046875 10.261719 9.003906 10.261719 9.003906 C 10.222656 8.964844 10.089844 9.007812 10.089844 9.007812 L 10.070312 9.078125 C 10.027344 9.082031 10 9.15625 10 9.15625 C 9.960938 9.167969 9.9375 9.210938 9.949219 9.222656 C 9.960938 9.234375 9.929688 9.238281 9.929688 9.238281 L 9.929688 9.324219 L 9.910156 9.355469 L 9.910156 9.453125 C 9.9375 9.453125 9.933594 9.492188 9.933594 9.492188 C 9.894531 9.5 9.902344 9.550781 9.902344 9.550781 L 9.820312 9.578125 L 9.804688 9.601562 L 9.703125 9.601562 L 9.675781 9.625 L 9.648438 9.597656 L 9.453125 9.597656 L 9.445312 9.578125 L 9.40625 9.570312 L 9.40625 9.527344 L 9.34375 9.527344 L 9.332031 9.554688 L 9.269531 9.558594 C 9.273438 9.597656 9.207031 9.660156 9.199219 9.640625 C 9.191406 9.625 9.148438 9.582031 9.167969 9.574219 L 9.238281 9.558594 L 9.238281 9.53125 L 9.09375 9.527344 L 9.078125 9.550781 L 9.019531 9.554688 L 9.019531 9.617188 L 8.992188 9.625 C 8.972656 9.636719 8.996094 9.683594 8.996094 9.683594 C 9.023438 9.710938 8.996094 9.757812 8.996094 9.757812 C 8.96875 9.78125 9.011719 9.824219 9.011719 9.824219 C 9.042969 9.832031 8.992188 9.855469 8.992188 9.855469 C 9 9.894531 9.023438 9.90625 9.023438 9.90625 C 9 9.949219 9.039062 9.96875 9.039062 9.96875 L 9.042969 10.035156 L 9.070312 10.050781 L 9.070312 10.097656 L 9.085938 10.125 L 9.148438 10.125 L 9.148438 10.023438 C 9.089844 9.960938 9.191406 9.941406 9.195312 9.96875 C 9.199219 9.992188 9.242188 10.007812 9.242188 10.007812 C 9.25 10.066406 9.320312 10.101562 9.335938 10.039062 C 9.355469 9.980469 9.375 10.015625 9.382812 10.042969 C 9.394531 10.074219 9.46875 10.140625 9.46875 10.140625 L 9.527344 10.140625 L 9.535156 10.195312 C 9.601562 10.191406 9.621094 10.195312 9.648438 10.292969 C 9.660156 10.347656 9.699219 10.390625 9.75 10.410156 L 9.804688 10.40625 C 9.804688 10.355469 9.859375 10.414062 9.859375 10.4375 C 9.859375 10.460938 9.964844 10.554688 9.964844 10.554688 L 10.070312 10.578125 L 10.167969 10.65625 L 10.242188 10.648438 L 10.273438 10.648438 C 10.292969 10.582031 10.386719 10.652344 10.390625 10.675781 C 10.394531 10.699219 10.460938 10.742188 10.46875 10.722656 C 10.476562 10.703125 10.519531 10.714844 10.527344 10.773438 C 10.535156 10.832031 10.566406 10.820312 10.566406 10.820312 L 10.785156 10.816406 L 10.863281 10.75 L 11.0625 10.746094 C 11.164062 10.742188 11.101562 10.601562 11.082031 10.601562 C 11.046875 10.574219 11.09375 10.457031 11.09375 10.457031 L 10.808594 10.1875 C 10.742188 10.1875 10.800781 10.09375 10.800781 10.09375 C 10.851562 10.0625 10.789062 10.007812 10.789062 10.007812 C 10.796875 9.960938 10.761719 9.902344 10.761719 9.902344 C 10.691406 9.855469 10.710938 9.765625 10.710938 9.765625 L 10.710938 9.699219 C 10.652344 9.640625 10.734375 9.632812 10.734375 9.632812 C 10.761719 9.585938 10.714844 9.550781 10.714844 9.550781 L 10.714844 9.5 L 10.648438 9.492188 L 10.640625 9.300781 L 10.5 9.101562 C 10.472656 9.09375 10.492188 9.039062 10.492188 9.039062 C 10.53125 9.019531 10.484375 8.972656 10.484375 8.972656 L 10.484375 8.886719 L 10.5625 8.878906 L 10.582031 8.847656 L 10.621094 8.847656 L 10.621094 8.742188 C 10.636719 8.6875 10.683594 8.714844 10.683594 8.714844 L 10.738281 8.71875 L 10.769531 8.660156 L 10.777344 8.613281 L 10.738281 8.613281 C 10.6875 8.582031 10.710938 8.480469 10.710938 8.480469 C 10.789062 8.363281 10.871094 8.429688 10.871094 8.429688 L 10.925781 8.425781 C 11.007812 8.484375 10.933594 8.585938 10.933594 8.585938 C 10.917969 8.609375 10.925781 8.683594 10.925781 8.683594 L 10.945312 8.816406 L 10.894531 8.855469 C 10.855469 8.882812 10.855469 8.9375 10.898438 8.949219 C 10.929688 8.953125 10.917969 9.027344 10.871094 8.976562 C 10.800781 8.976562 10.910156 9.039062 10.878906 9.023438 C 10.949219 9.066406 10.933594 8.992188 10.933594 8.992188 L 11.027344 8.917969 C 11.066406 8.890625 11.125 8.976562 11.125 8.988281 C 11.125 9 11.28125 8.992188 11.28125 8.992188 C 11.320312 9.019531 11.339844 9.097656 11.339844 9.097656 C 11.378906 9.035156 11.472656 9.09375 11.40625 9.125 C 11.46875 9.164062 11.46875 9.199219 11.46875 9.199219 C 11.519531 9.183594 11.519531 9.222656 11.519531 9.234375 L 11.535156 9.175781 C 11.476562 9.132812 11.613281 9.117188 11.574219 9.195312 L 11.550781 9.230469 L 11.589844 9.261719 L 11.589844 9.355469 C 11.679688 9.34375 11.65625 9.238281 11.65625 9.238281 L 11.695312 9.230469 C 11.695312 9.191406 11.722656 9.214844 11.722656 9.214844 C 11.695312 9.082031 11.785156 9.058594 11.785156 9.058594 C 11.835938 9.039062 11.839844 8.933594 11.839844 8.933594 C 11.800781 8.917969 11.824219 8.863281 11.863281 8.910156 C 11.902344 8.957031 11.839844 8.816406 11.839844 8.816406 L 11.808594 8.789062 L 11.765625 8.785156 L 11.761719 8.738281 L 11.691406 8.738281 L 11.679688 8.796875 L 11.652344 8.804688 L 11.644531 8.789062 L 11.632812 8.828125 L 11.5625 8.828125 L 11.558594 8.785156 L 11.597656 8.773438 L 11.617188 8.746094 L 11.628906 8.679688 L 11.679688 8.679688 L 11.746094 8.660156 C 11.746094 8.59375 11.785156 8.609375 11.785156 8.609375 L 11.808594 8.628906 L 11.84375 8.65625 L 11.84375 8.679688 L 11.824219 8.691406 L 11.820312 8.722656 L 11.832031 8.773438 L 11.859375 8.773438 C 11.871094 8.703125 11.953125 8.703125 11.976562 8.746094 L 12 8.6875 C 11.945312 8.660156 12 8.617188 12.015625 8.636719 C 12.03125 8.65625 12.066406 8.585938 12.066406 8.585938 C 12.066406 8.585938 12.09375 8.625 12.066406 8.574219 C 12.039062 8.527344 12.085938 8.503906 12.085938 8.503906 C 12.078125 8.453125 12.136719 8.464844 12.136719 8.464844 L 12.140625 8.394531 L 12.085938 8.394531 C 12.074219 8.449219 12.027344 8.398438 12.050781 8.386719 C 12.074219 8.375 12.097656 8.351562 12.097656 8.351562 L 12.097656 8.3125 L 12.121094 8.304688 L 12.125 8.265625 L 12.183594 8.265625 L 12.234375 8.242188 L 12.246094 8.222656 L 12.300781 8.21875 L 12.378906 8.144531 L 12.371094 8.113281 C 12.324219 8.113281 12.371094 8.074219 12.371094 8.074219 Z M 12.378906 8.015625 "/>
<path style=" stroke:none;fill-rule:nonzero;fill:rgb(100%,100%,100%);fill-opacity:1;" d="M 10.808594 8.8125 L 10.738281 8.804688 L 10.742188 8.832031 L 10.761719 8.832031 C 10.792969 8.886719 10.765625 9.019531 10.765625 9.019531 C 10.765625 9.019531 10.71875 9.023438 10.710938 9 C 10.703125 8.976562 10.683594 9.050781 10.699219 9.070312 C 10.714844 9.085938 10.769531 9.070312 10.777344 9.109375 C 10.777344 9.15625 10.808594 9.085938 10.808594 9.085938 Z M 10.808594 8.8125 "/>
<path style=" stroke:none;fill-rule:nonzero;fill:rgb(100%,100%,100%);fill-opacity:1;" d="M 10.808594 9.152344 L 10.832031 9.148438 L 10.835938 9.121094 L 10.777344 9.160156 L 10.738281 9.136719 L 10.738281 9.230469 L 10.800781 9.3125 L 10.824219 9.257812 L 10.832031 9.222656 L 10.804688 9.210938 Z M 10.839844 9.40625 L 10.839844 9.367188 L 10.8125 9.367188 L 10.8125 9.402344 Z M 10.804688 9.59375 L 10.804688 9.566406 L 10.773438 9.570312 L 10.773438 9.597656 Z M 10.851562 9.472656 C 10.859375 9.472656 10.867188 9.464844 10.867188 9.453125 C 10.867188 9.445312 10.859375 9.4375 10.851562 9.4375 C 10.847656 9.4375 10.84375 9.4375 10.839844 9.441406 C 10.835938 9.445312 10.835938 9.453125 10.835938 9.457031 C 10.835938 9.464844 10.839844 9.46875 10.851562 9.472656 "/>
<path style=" stroke:none;fill-rule:nonzero;fill:rgb(100%,100%,100%);fill-opacity:1;" d="M 10.894531 9.539062 C 10.894531 9.53125 10.886719 9.523438 10.878906 9.523438 C 10.871094 9.523438 10.863281 9.53125 10.863281 9.539062 C 10.863281 9.546875 10.871094 9.554688 10.878906 9.554688 C 10.886719 9.554688 10.894531 9.546875 10.894531 9.539062 Z M 10.894531 9.539062 "/>
<path style=" stroke:none;fill-rule:nonzero;fill:rgb(100%,100%,100%);fill-opacity:1;" d="M 10.894531 9.082031 C 10.894531 9.070312 10.886719 9.066406 10.878906 9.066406 C 10.871094 9.066406 10.863281 9.070312 10.863281 9.082031 C 10.863281 9.089844 10.871094 9.097656 10.878906 9.097656 C 10.886719 9.097656 10.894531 9.089844 10.894531 9.082031 Z M 10.894531 9.082031 "/>
<path style=" stroke:none;fill-rule:nonzero;fill:rgb(100%,100%,100%);fill-opacity:1;" d="M 12.203125 8.492188 L 12.164062 8.488281 L 12.152344 8.507812 L 12.132812 8.507812 L 12.132812 8.539062 L 12.152344 8.539062 L 12.15625 8.5625 L 12.140625 8.578125 L 12.132812 8.597656 L 12.101562 8.605469 L 12.03125 8.671875 L 12.03125 8.703125 L 12.007812 8.730469 L 11.984375 8.796875 L 11.90625 8.796875 L 11.886719 8.871094 L 11.898438 8.929688 L 11.96875 8.957031 L 11.976562 8.917969 L 12 8.90625 L 12.003906 8.867188 L 12.019531 8.839844 L 12.042969 8.8125 L 12.050781 8.78125 L 12.089844 8.753906 L 12.136719 8.742188 L 12.15625 8.71875 L 12.164062 8.671875 L 12.164062 8.636719 L 12.183594 8.613281 L 12.230469 8.59375 L 12.230469 8.515625 L 12.207031 8.515625 Z M 12.3125 8.765625 L 12.3125 8.703125 L 12.304688 8.652344 L 12.246094 8.625 L 12.207031 8.664062 L 12.195312 8.71875 L 12.195312 8.761719 L 12.15625 8.769531 L 12.148438 8.875 L 12.117188 8.886719 L 12.121094 8.925781 L 12.082031 8.9375 L 12.035156 8.949219 L 12.027344 9 L 11.996094 9.019531 L 11.980469 9.074219 L 11.960938 9.1875 C 11.960938 9.1875 12 9.253906 12.015625 9.222656 C 12.035156 9.191406 12.066406 9.183594 12.066406 9.183594 L 12.078125 9.160156 L 12.183594 9.160156 C 12.191406 9.121094 12.242188 9.136719 12.242188 9.15625 C 12.242188 9.175781 12.28125 9.15625 12.28125 9.15625 L 12.308594 9.117188 L 12.351562 9.117188 L 12.355469 9.066406 L 12.375 9.050781 L 12.375 8.984375 C 12.4375 8.964844 12.429688 8.90625 12.429688 8.90625 L 12.445312 8.886719 L 12.4375 8.859375 C 12.40625 8.847656 12.421875 8.820312 12.441406 8.828125 C 12.460938 8.835938 12.414062 8.789062 12.414062 8.789062 C 12.390625 8.8125 12.375 8.769531 12.375 8.769531 Z M 12.375 9.246094 C 12.375 9.292969 12.3125 9.308594 12.3125 9.308594 L 12.273438 9.296875 L 12.246094 9.277344 L 12.246094 9.222656 L 12.277344 9.21875 L 12.285156 9.242188 Z M 12.585938 8.988281 C 12.59375 9.027344 12.59375 8.933594 12.609375 8.9375 C 12.625 8.941406 12.613281 8.882812 12.613281 8.882812 L 12.542969 8.933594 C 12.578125 8.9375 12.582031 8.972656 12.585938 8.988281 M 12.792969 8.785156 C 12.808594 8.820312 12.804688 8.871094 12.863281 8.910156 C 12.882812 8.921875 12.851562 8.949219 12.832031 8.9375 L 12.753906 8.839844 L 12.753906 8.789062 C 12.769531 8.753906 12.785156 8.769531 12.792969 8.785156 M 12.804688 10.011719 L 12.816406 10.03125 L 12.84375 9.992188 L 12.820312 9.980469 L 12.792969 10 Z M 12.695312 9.933594 L 12.695312 9.984375 M 13.257812 9.878906 L 13.289062 9.859375 L 13.277344 9.835938 L 13.246094 9.855469 Z M 14.386719 10.710938 L 14.421875 10.730469 L 14.421875 10.796875 C 14.472656 10.847656 14.625 10.804688 14.625 10.792969 L 14.617188 10.644531 L 14.597656 10.625 L 14.59375 10.523438 C 14.609375 10.472656 14.515625 10.398438 14.511719 10.414062 C 14.507812 10.429688 14.453125 10.414062 14.453125 10.433594 C 14.453125 10.453125 14.421875 10.527344 14.4375 10.558594 C 14.453125 10.585938 14.425781 10.585938 14.421875 10.613281 C 14.417969 10.640625 14.378906 10.691406 14.382812 10.714844 Z M 14.300781 10.554688 C 14.292969 10.585938 14.261719 10.601562 14.25 10.59375 C 14.234375 10.578125 14.269531 10.609375 14.277344 10.625 C 14.289062 10.640625 14.304688 10.640625 14.316406 10.625 C 14.324219 10.609375 14.316406 10.574219 14.328125 10.558594 C 14.339844 10.542969 14.304688 10.535156 14.300781 10.558594 Z M 14.117188 9.816406 L 14.144531 9.816406 L 14.144531 9.894531 L 14.117188 9.894531 Z M 14.523438 9.046875 C 14.503906 9.023438 14.601562 8.980469 14.617188 9.03125 C 14.632812 9.085938 14.617188 9.074219 14.601562 9.070312 C 14.585938 9.066406 14.546875 9.082031 14.523438 9.046875 M 14.605469 8.511719 L 14.605469 8.535156 L 14.644531 8.542969 L 14.648438 8.519531 Z M 14.429688 8.574219 L 14.460938 8.59375 L 14.472656 8.59375 L 14.496094 8.578125 L 14.496094 8.585938 L 14.519531 8.578125 L 14.511719 8.558594 L 14.511719 8.546875 L 14.496094 8.550781 L 14.46875 8.570312 L 14.441406 8.550781 Z M 14.648438 7.601562 L 14.589844 7.601562 C 14.589844 7.601562 14.609375 7.609375 14.550781 7.554688 C 14.5 7.503906 14.464844 7.566406 14.464844 7.566406 L 14.402344 7.578125 L 14.402344 7.640625 L 14.371094 7.652344 L 14.371094 7.691406 L 14.417969 7.691406 C 14.417969 7.691406 14.417969 7.734375 14.429688 7.714844 C 14.441406 7.695312 14.539062 7.71875 14.53125 7.769531 C 14.527344 7.789062 14.628906 7.839844 14.617188 7.90625 C 14.667969 7.914062 14.65625 7.964844 14.65625 7.964844 L 14.722656 7.972656 L 14.742188 7.933594 L 14.761719 7.9375 L 14.761719 7.914062 L 14.71875 7.902344 L 14.710938 7.769531 L 14.683594 7.75 L 14.691406 7.71875 L 14.660156 7.707031 L 14.675781 7.65625 Z M 14.816406 8.007812 L 14.785156 8.007812 L 14.714844 8.015625 L 14.675781 8.09375 C 14.675781 8.09375 14.695312 8.105469 14.714844 8.132812 C 14.726562 8.160156 14.734375 8.324219 14.6875 8.351562 C 14.640625 8.378906 14.691406 8.363281 14.691406 8.363281 L 14.683594 8.453125 C 14.695312 8.496094 14.714844 8.476562 14.726562 8.453125 C 14.738281 8.433594 14.75 8.429688 14.765625 8.410156 C 14.78125 8.390625 14.804688 8.351562 14.808594 8.324219 C 14.8125 8.296875 14.832031 8.253906 14.820312 8.242188 C 14.808594 8.230469 14.832031 8.175781 14.832031 8.175781 C 14.832031 8.175781 14.847656 8.140625 14.832031 8.109375 C 14.816406 8.078125 14.835938 8.039062 14.847656 8.023438 Z M 14.863281 8.175781 L 14.867188 8.140625 L 14.890625 8.140625 L 14.890625 8.175781 Z M 14.863281 8.285156 L 14.84375 8.273438 L 14.855469 8.25 L 14.875 8.261719 Z M 14.828125 7.96875 L 14.8125 7.929688 C 14.8125 7.929688 14.8125 7.898438 14.820312 7.882812 C 14.828125 7.863281 14.804688 7.847656 14.792969 7.839844 C 14.78125 7.839844 14.785156 7.808594 14.78125 7.792969 C 14.777344 7.777344 14.75 7.765625 14.75 7.765625 L 14.742188 7.691406 C 14.742188 7.679688 14.707031 7.664062 14.71875 7.652344 L 14.75 7.617188 C 14.761719 7.609375 14.738281 7.550781 14.757812 7.5625 C 14.773438 7.578125 14.78125 7.59375 14.785156 7.613281 C 14.792969 7.628906 14.785156 7.683594 14.800781 7.695312 C 14.816406 7.707031 14.800781 7.75 14.828125 7.75 C 14.859375 7.75 14.839844 7.824219 14.839844 7.824219 C 14.839844 7.824219 14.832031 7.882812 14.851562 7.886719 C 14.871094 7.890625 14.859375 7.984375 14.859375 7.984375 Z M 14.578125 7.316406 C 14.589844 7.332031 14.613281 7.34375 14.613281 7.359375 C 14.613281 7.375 14.605469 7.386719 14.628906 7.390625 C 14.652344 7.390625 14.667969 7.394531 14.675781 7.40625 C 14.683594 7.425781 14.683594 7.460938 14.675781 7.476562 C 14.675781 7.5 14.683594 7.511719 14.703125 7.515625 C 14.730469 7.523438 14.726562 7.515625 14.726562 7.53125 C 14.726562 7.542969 14.75 7.488281 14.75 7.488281 C 14.730469 7.472656 14.710938 7.4375 14.710938 7.4375 L 14.695312 7.371094 C 14.695312 7.363281 14.667969 7.355469 14.65625 7.351562 C 14.644531 7.347656 14.625 7.3125 14.625 7.3125 Z M 14.617188 7.28125 C 14.605469 7.261719 14.59375 7.25 14.578125 7.242188 C 14.5625 7.234375 14.546875 7.230469 14.535156 7.226562 C 14.527344 7.226562 14.519531 7.222656 14.511719 7.214844 C 14.507812 7.207031 14.507812 7.195312 14.511719 7.1875 C 14.519531 7.171875 14.5 7.164062 14.5 7.148438 C 14.5 7.132812 14.511719 7.132812 14.53125 7.144531 C 14.550781 7.15625 14.546875 7.160156 14.5625 7.179688 C 14.578125 7.199219 14.585938 7.21875 14.601562 7.214844 C 14.617188 7.210938 14.628906 7.25 14.640625 7.238281 C 14.660156 7.226562 14.65625 7.265625 14.65625 7.265625 Z M 14.160156 7.730469 C 14.179688 7.753906 14.042969 7.746094 14.042969 7.730469 C 14.042969 7.714844 14.054688 7.660156 14.089844 7.671875 C 14.125 7.683594 14.128906 7.601562 14.128906 7.601562 C 14.128906 7.601562 14.097656 7.605469 14.125 7.589844 C 14.152344 7.574219 14.125 7.546875 14.113281 7.535156 L 14.089844 7.503906 L 14.144531 7.503906 C 14.167969 7.488281 14.175781 7.414062 14.175781 7.414062 C 14.222656 7.429688 14.246094 7.394531 14.246094 7.394531 L 14.269531 7.441406 C 14.285156 7.460938 14.230469 7.46875 14.25 7.480469 C 14.269531 7.492188 14.277344 7.527344 14.269531 7.539062 C 14.261719 7.550781 14.21875 7.539062 14.21875 7.527344 C 14.21875 7.515625 14.203125 7.546875 14.21875 7.566406 C 14.234375 7.589844 14.199219 7.617188 14.191406 7.617188 C 14.183594 7.617188 14.132812 7.625 14.175781 7.648438 C 14.214844 7.671875 14.265625 7.660156 14.265625 7.660156 C 14.265625 7.660156 14.300781 7.660156 14.3125 7.675781 C 14.320312 7.695312 14.3125 7.703125 14.289062 7.699219 L 14.171875 7.691406 C 14.171875 7.691406 14.148438 7.71875 14.160156 7.730469 M 13.910156 7.769531 C 13.929688 7.765625 13.976562 7.761719 13.988281 7.769531 C 13.992188 7.785156 13.957031 7.800781 13.957031 7.800781 L 13.910156 7.808594 C 13.890625 7.785156 13.890625 7.773438 13.910156 7.769531 M 14.414062 7.433594 C 14.445312 7.417969 14.511719 7.417969 14.507812 7.394531 C 14.503906 7.371094 14.546875 7.359375 14.546875 7.359375 L 14.558594 7.40625 L 14.59375 7.433594 L 14.59375 7.472656 L 14.566406 7.480469 C 14.523438 7.492188 14.550781 7.511719 14.550781 7.511719 L 14.453125 7.511719 L 14.441406 7.472656 L 14.410156 7.433594 Z M 14.257812 7.214844 C 14.285156 7.214844 14.253906 7.308594 14.316406 7.300781 C 14.378906 7.292969 14.316406 7.328125 14.367188 7.332031 C 14.414062 7.335938 14.402344 7.296875 14.417969 7.265625 C 14.433594 7.242188 14.425781 7.222656 14.398438 7.214844 C 14.371094 7.207031 14.371094 7.207031 14.359375 7.175781 C 14.355469 7.144531 14.320312 7.136719 14.320312 7.136719 L 14.3125 7.089844 L 14.261719 7.121094 L 14.210938 7.1875 C 14.210938 7.238281 14.238281 7.214844 14.261719 7.214844 Z M 14.363281 7.550781 L 14.375 7.527344 L 14.398438 7.539062 L 14.386719 7.5625 Z M 14.324219 7.511719 L 14.347656 7.511719 L 14.347656 7.542969 L 14.324219 7.542969 Z M 14.34375 6.984375 L 14.34375 7.019531 L 14.324219 7.019531 L 14.320312 6.988281 Z M 14.277344 7.355469 L 14.300781 7.355469 L 14.300781 7.375 L 14.277344 7.375 Z M 14.214844 7.355469 L 14.214844 7.332031 L 14.253906 7.332031 L 14.253906 7.351562 Z M 13.894531 7.742188 L 13.871094 7.730469 L 13.882812 7.703125 L 13.90625 7.714844 Z M 13.769531 7.667969 L 13.769531 7.644531 L 13.808594 7.644531 L 13.808594 7.664062 Z M 13.09375 7.660156 L 13.007812 7.664062 L 13.007812 7.6875 L 13.097656 7.6875 Z M 12.953125 7.695312 L 12.945312 7.660156 L 12.96875 7.65625 L 12.976562 7.691406 Z M 12.9375 7.71875 L 12.929688 7.699219 L 12.941406 7.695312 L 12.949219 7.714844 Z M 13.132812 7.652344 L 13.128906 7.679688 L 13.167969 7.683594 C 13.167969 7.683594 13.1875 7.699219 13.1875 7.710938 C 13.1875 7.722656 13.214844 7.734375 13.230469 7.734375 C 13.246094 7.734375 13.289062 7.703125 13.289062 7.703125 C 13.289062 7.703125 13.308594 7.648438 13.292969 7.652344 C 13.277344 7.65625 13.246094 7.679688 13.242188 7.65625 C 13.242188 7.632812 13.191406 7.644531 13.191406 7.644531 Z M 13.328125 7.613281 C 13.328125 7.621094 13.316406 7.636719 13.339844 7.640625 C 13.363281 7.644531 13.40625 7.625 13.410156 7.648438 C 13.414062 7.671875 13.414062 7.6875 13.449219 7.699219 L 13.519531 7.714844 L 13.597656 7.707031 C 13.597656 7.707031 13.648438 7.71875 13.660156 7.726562 C 13.703125 7.773438 13.730469 7.789062 13.742188 7.765625 C 13.753906 7.746094 13.742188 7.699219 13.734375 7.6875 C 13.734375 7.667969 13.675781 7.59375 13.65625 7.609375 C 13.636719 7.625 13.632812 7.609375 13.597656 7.621094 C 13.5625 7.632812 13.488281 7.625 13.484375 7.609375 C 13.484375 7.59375 13.425781 7.585938 13.425781 7.566406 C 13.425781 7.550781 13.386719 7.527344 13.390625 7.554688 C 13.394531 7.585938 13.363281 7.59375 13.355469 7.585938 C 13.347656 7.578125 13.324219 7.609375 13.324219 7.609375 Z M 14.222656 7.097656 L 14.25 7.007812 C 14.210938 7 14.21875 6.953125 14.21875 6.953125 C 14.214844 6.914062 14.160156 6.875 14.140625 6.890625 C 14.121094 6.90625 14.128906 6.808594 14.128906 6.808594 C 14.128906 6.808594 14.164062 6.785156 14.179688 6.796875 C 14.195312 6.808594 14.046875 6.59375 14.015625 6.613281 C 13.984375 6.632812 13.914062 6.59375 13.917969 6.558594 C 13.921875 6.519531 13.777344 6.402344 13.777344 6.402344 C 13.777344 6.402344 13.730469 6.367188 13.722656 6.394531 C 13.714844 6.417969 13.699219 6.433594 13.722656 6.449219 C 13.746094 6.464844 13.742188 6.429688 13.769531 6.457031 C 13.796875 6.484375 13.847656 6.519531 13.828125 6.542969 C 13.804688 6.5625 13.792969 6.574219 13.789062 6.574219 L 13.8125 6.605469 L 13.855469 6.605469 L 13.863281 6.671875 C 13.863281 6.671875 13.910156 6.699219 13.921875 6.726562 C 13.933594 6.75 13.933594 6.773438 13.921875 6.789062 C 13.910156 6.804688 13.886719 6.828125 13.890625 6.859375 C 13.894531 6.886719 13.929688 6.898438 13.929688 6.898438 L 13.957031 6.898438 L 13.980469 6.914062 L 13.980469 6.964844 C 14.011719 6.957031 14.0625 7.007812 14.058594 7.03125 C 14.058594 7.058594 14.066406 7.042969 14.105469 7.070312 C 14.144531 7.097656 14.132812 7.101562 14.160156 7.125 C 14.1875 7.144531 14.210938 7.132812 14.222656 7.09375 Z M 14.222656 7.097656 "/>
<path style=" stroke:none;fill-rule:nonzero;fill:rgb(100%,100%,100%);fill-opacity:1;" d="M 13.574219 6.554688 C 13.574219 6.539062 13.5625 6.484375 13.585938 6.488281 C 13.609375 6.488281 13.59375 6.488281 13.625 6.5 C 13.65625 6.511719 13.652344 6.480469 13.652344 6.480469 L 13.695312 6.480469 L 13.75 6.519531 L 13.742188 6.558594 L 13.703125 6.558594 C 13.683594 6.53125 13.644531 6.542969 13.652344 6.570312 C 13.660156 6.597656 13.632812 6.648438 13.617188 6.652344 C 13.601562 6.65625 13.550781 6.65625 13.554688 6.632812 Z M 13.542969 6.449219 L 13.542969 6.414062 C 13.542969 6.414062 13.542969 6.378906 13.519531 6.378906 C 13.496094 6.378906 13.464844 6.355469 13.472656 6.339844 C 13.480469 6.324219 13.40625 6.308594 13.40625 6.308594 C 13.40625 6.308594 13.339844 6.246094 13.367188 6.253906 C 13.386719 6.261719 13.375 6.226562 13.375 6.226562 C 13.375 6.226562 13.328125 6.234375 13.316406 6.226562 C 13.304688 6.226562 13.308594 6.1875 13.308594 6.1875 C 13.308594 6.1875 13.261719 6.179688 13.261719 6.1875 C 13.261719 6.195312 13.277344 6.203125 13.285156 6.226562 C 13.292969 6.25 13.289062 6.289062 13.324219 6.296875 C 13.359375 6.304688 13.367188 6.3125 13.371094 6.328125 C 13.375 6.34375 13.417969 6.347656 13.417969 6.347656 L 13.449219 6.363281 Z M 13.125 6.035156 L 13.113281 6.003906 L 13.082031 5.996094 L 13.082031 6.035156 Z M 13.113281 5.871094 C 13.074219 5.839844 13.167969 5.894531 13.167969 5.894531 C 13.199219 5.894531 13.21875 5.917969 13.21875 5.929688 C 13.21875 5.941406 13.257812 5.9375 13.257812 5.9375 L 13.261719 5.910156 L 13.230469 5.871094 L 13.203125 5.851562 C 13.203125 5.851562 13.164062 5.847656 13.164062 5.835938 C 13.164062 5.824219 13.125 5.882812 13.109375 5.871094 Z M 13.828125 5.894531 C 13.816406 5.929688 13.8125 5.976562 13.792969 5.976562 C 13.773438 5.976562 13.78125 6.027344 13.78125 6.027344 L 13.847656 6.03125 C 13.863281 6.035156 13.863281 6.074219 13.863281 6.074219 C 13.921875 6.074219 13.945312 6.15625 13.941406 6.175781 C 13.929688 6.195312 13.960938 6.195312 13.960938 6.195312 C 13.960938 6.195312 13.960938 6.257812 13.953125 6.273438 C 13.945312 6.289062 14.003906 6.300781 14.019531 6.324219 C 14.035156 6.347656 14.011719 6.429688 14 6.433594 C 13.988281 6.4375 14.03125 6.453125 14.027344 6.472656 C 14.023438 6.492188 14.039062 6.472656 14.042969 6.503906 L 14.054688 6.601562 L 14.109375 6.605469 C 14.117188 6.554688 14.21875 6.550781 14.234375 6.558594 C 14.300781 6.582031 14.351562 6.6875 14.351562 6.710938 C 14.351562 6.734375 14.308594 6.738281 14.308594 6.738281 L 14.316406 6.855469 C 14.382812 6.875 14.433594 6.972656 14.429688 6.988281 C 14.421875 7.003906 14.476562 7 14.476562 7 C 14.484375 6.925781 14.550781 6.949219 14.554688 6.972656 C 14.554688 7 14.570312 7.054688 14.570312 7.054688 L 14.589844 7.085938 L 14.617188 7.113281 L 14.65625 7.113281 L 14.671875 7.136719 L 14.71875 7.144531 C 14.71875 7.144531 14.761719 7.191406 14.765625 7.203125 C 14.769531 7.214844 14.828125 7.210938 14.84375 7.214844 C 14.863281 7.214844 14.878906 7.226562 14.886719 7.25 C 14.890625 7.269531 14.914062 7.304688 14.914062 7.304688 C 14.914062 7.304688 14.960938 7.316406 14.964844 7.332031 L 14.988281 7.382812 L 15.027344 7.414062 L 15.03125 7.453125 L 15.074219 7.453125 L 15.085938 7.503906 L 15.15625 7.5 L 15.195312 7.472656 C 15.230469 7.457031 15.261719 7.429688 15.285156 7.394531 C 15.289062 7.375 15.296875 7.316406 15.335938 7.328125 C 15.375 7.339844 15.347656 7.238281 15.347656 7.238281 C 15.347656 7.238281 15.292969 7.199219 15.296875 7.179688 C 15.300781 7.160156 15.242188 7.121094 15.246094 7.101562 C 15.25 7.089844 15.195312 7.054688 15.199219 7.039062 C 15.203125 7.023438 15.171875 6.980469 15.171875 6.980469 L 15.117188 6.925781 L 15.109375 6.886719 L 15.0625 6.886719 L 14.96875 6.769531 L 14.972656 6.738281 L 14.945312 6.738281 L 14.945312 6.691406 L 14.917969 6.671875 L 14.878906 6.671875 L 14.789062 6.574219 L 14.78125 6.53125 L 14.742188 6.53125 L 14.75 6.449219 C 14.777344 6.410156 14.761719 6.339844 14.761719 6.339844 C 14.761719 6.339844 14.707031 6.367188 14.679688 6.355469 C 14.652344 6.34375 14.691406 6.316406 14.691406 6.316406 L 14.691406 6.285156 L 14.667969 6.261719 C 14.667969 6.261719 14.601562 6.269531 14.597656 6.257812 L 14.582031 6.195312 L 14.578125 6.128906 L 14.550781 6.117188 L 14.546875 6.089844 L 14.503906 6.09375 L 14.503906 6.042969 L 14.480469 6.035156 L 14.457031 6.023438 L 14.453125 5.976562 L 14.367188 5.972656 L 14.339844 5.933594 L 14.308594 5.886719 L 14.210938 5.878906 L 14.1875 5.855469 L 14.148438 5.847656 L 14.121094 5.835938 L 14.109375 5.855469 L 14.03125 5.855469 L 14.03125 5.882812 C 13.992188 5.902344 13.835938 5.882812 13.835938 5.898438 Z M 14.238281 5.785156 C 14.230469 5.757812 14.316406 5.726562 14.335938 5.75 C 14.355469 5.773438 14.410156 5.777344 14.414062 5.902344 C 14.417969 5.941406 14.347656 5.859375 14.347656 5.859375 L 14.289062 5.839844 C 14.257812 5.828125 14.242188 5.8125 14.238281 5.792969 Z M 13.09375 5.839844 L 13.074219 5.828125 L 13.089844 5.792969 L 13.109375 5.804688 Z M 12.894531 5.441406 L 12.84375 5.390625 L 12.84375 5.351562 L 12.828125 5.332031 L 12.8125 5.277344 L 12.761719 5.261719 L 12.710938 5.28125 L 12.65625 5.316406 L 12.597656 5.324219 L 12.566406 5.363281 L 12.691406 5.371094 L 12.714844 5.410156 L 12.804688 5.417969 L 12.863281 5.476562 C 12.914062 5.5 12.925781 5.46875 12.894531 5.441406 M 12.886719 5.246094 C 12.878906 5.214844 12.828125 5.292969 12.878906 5.308594 C 12.929688 5.324219 12.980469 5.308594 12.980469 5.308594 L 12.992188 5.285156 L 13.1875 5.289062 C 13.203125 5.273438 13.210938 5.25 13.210938 5.25 C 13.210938 5.25 13.257812 5.234375 13.277344 5.242188 C 13.296875 5.25 13.277344 5.183594 13.261719 5.191406 C 13.246094 5.203125 13.203125 5.191406 13.203125 5.191406 L 13.132812 5.191406 C 13.128906 5.167969 13.066406 5.179688 13.0625 5.191406 C 13.058594 5.214844 13.035156 5.21875 13.035156 5.21875 L 12.945312 5.226562 C 12.9375 5.25 12.890625 5.265625 12.886719 5.25 Z M 12.5 5.925781 C 12.558594 5.945312 12.582031 5.925781 12.585938 5.914062 C 12.585938 5.902344 12.597656 5.894531 12.617188 5.890625 C 12.640625 5.886719 12.613281 5.839844 12.589844 5.84375 C 12.5625 5.84375 12.546875 5.832031 12.539062 5.816406 C 12.535156 5.792969 12.496094 5.738281 12.492188 5.777344 C 12.488281 5.820312 12.464844 5.820312 12.46875 5.851562 C 12.472656 5.878906 12.484375 5.917969 12.5 5.925781 M 12.050781 5.96875 C 12.050781 5.953125 12.128906 5.953125 12.140625 5.964844 C 12.152344 5.976562 12.144531 5.996094 12.179688 5.996094 C 12.214844 5.996094 12.199219 6.019531 12.195312 6.035156 C 12.195312 6.042969 12.15625 6.039062 12.148438 6.027344 C 12.148438 6.015625 12.085938 6.011719 12.085938 6.011719 C 12.085938 6.011719 12.054688 5.988281 12.050781 5.96875 M 13.378906 5.109375 L 13.347656 5.132812 L 13.328125 5.113281 L 13.308594 5.132812 L 13.34375 5.167969 L 13.351562 5.160156 L 13.390625 5.128906 Z M 13.164062 5.039062 L 13.136719 5.023438 L 13.125 5.042969 L 13.15625 5.0625 L 13.167969 5.0625 L 13.210938 5.035156 L 13.199219 5.015625 Z M 13.035156 5.863281 L 12.996094 5.859375 L 12.996094 5.882812 L 13.027344 5.882812 L 13.050781 5.921875 L 13.070312 5.910156 L 13.042969 5.871094 Z M 11.746094 6.980469 L 11.75 7.023438 L 11.808594 7.023438 C 11.832031 7.023438 11.789062 6.996094 11.789062 6.996094 C 11.789062 6.996094 11.742188 7 11.75 6.980469 Z M 11.824219 6.980469 L 11.835938 6.960938 L 11.859375 6.984375 L 11.84375 7 Z M 11.113281 6.230469 L 11.128906 6.214844 L 11.152344 6.238281 L 11.136719 6.253906 Z M 12.246094 11.386719 L 12.207031 11.367188 L 12.195312 11.386719 L 12.21875 11.398438 L 12.210938 11.40625 L 12.226562 11.425781 L 12.257812 11.394531 Z M 11.941406 11.097656 L 11.925781 11.078125 L 11.902344 11.097656 L 11.890625 11.109375 L 11.90625 11.117188 L 11.933594 11.140625 L 11.945312 11.117188 L 11.929688 11.105469 Z M 14.839844 10.339844 C 14.835938 10.320312 14.8125 10.3125 14.808594 10.308594 L 14.800781 10.332031 L 14.808594 10.335938 L 14.8125 10.355469 L 14.808594 10.363281 L 14.824219 10.378906 C 14.839844 10.367188 14.84375 10.351562 14.839844 10.339844 M 14.878906 10.261719 L 14.839844 10.261719 L 14.839844 10.222656 L 14.878906 10.230469 Z M 15.777344 9.953125 C 15.796875 9.9375 15.816406 9.917969 15.816406 9.96875 C 15.8125 10.011719 15.792969 9.996094 15.777344 10.011719 C 15.765625 10.027344 15.753906 9.96875 15.777344 9.953125 M 15.976562 9.78125 L 15.96875 9.753906 L 15.949219 9.765625 L 15.953125 9.78125 C 15.953125 9.789062 15.957031 9.796875 15.960938 9.800781 C 15.964844 9.804688 15.96875 9.804688 15.976562 9.800781 L 15.972656 9.78125 Z M 15.925781 9.800781 L 15.941406 9.847656 L 15.960938 9.839844 L 15.949219 9.792969 Z M 15.839844 9.894531 L 15.816406 9.894531 C 15.816406 9.910156 15.816406 9.933594 15.835938 9.933594 L 15.84375 9.914062 Z M 15.738281 9.421875 L 15.722656 9.402344 C 15.703125 9.394531 15.683594 9.402344 15.664062 9.417969 L 15.675781 9.4375 C 15.695312 9.425781 15.707031 9.421875 15.714844 9.421875 Z M 14.65625 8.136719 C 14.640625 8.152344 14.605469 8.160156 14.605469 8.160156 L 14.59375 8.203125 L 14.578125 8.222656 L 14.578125 8.261719 C 14.578125 8.289062 14.539062 8.304688 14.539062 8.304688 L 14.523438 8.324219 L 14.417969 8.324219 C 14.378906 8.308594 14.40625 8.261719 14.429688 8.265625 C 14.453125 8.269531 14.425781 8.199219 14.425781 8.199219 L 14.457031 8.195312 C 14.457031 8.195312 14.457031 8.121094 14.472656 8.121094 C 14.480469 8.117188 14.472656 8.105469 14.453125 8.082031 C 14.4375 8.070312 14.414062 8.03125 14.402344 8.035156 L 14.324219 8.035156 L 14.3125 8.058594 L 14.269531 8.066406 L 14.265625 8.105469 C 14.242188 8.136719 14.148438 8.199219 14.1875 8.097656 L 14.203125 8.070312 L 14.203125 8.035156 L 14.132812 8.035156 C 14.132812 8.035156 14.09375 8.019531 14.09375 8.003906 L 14.09375 7.96875 L 14.011719 7.878906 L 13.914062 7.863281 L 13.90625 7.84375 L 13.847656 7.835938 C 13.777344 7.796875 13.714844 7.832031 13.730469 7.894531 C 13.738281 7.953125 13.757812 7.976562 13.71875 7.976562 C 13.679688 7.976562 13.671875 7.945312 13.671875 7.945312 C 13.671875 7.945312 13.640625 7.933594 13.640625 7.949219 C 13.640625 7.964844 13.628906 7.996094 13.640625 8.011719 C 13.652344 8.027344 13.625 8.050781 13.613281 8.039062 C 13.601562 8.027344 13.574219 7.992188 13.578125 7.980469 C 13.585938 7.96875 13.523438 7.894531 13.585938 7.882812 C 13.648438 7.871094 13.585938 7.832031 13.605469 7.824219 L 13.636719 7.808594 L 13.667969 7.808594 L 13.6875 7.792969 L 13.636719 7.785156 L 13.605469 7.78125 L 13.546875 7.777344 C 13.515625 7.796875 13.488281 7.828125 13.476562 7.863281 C 13.445312 7.925781 13.371094 7.839844 13.398438 7.808594 C 13.425781 7.777344 13.3125 7.804688 13.292969 7.820312 C 13.273438 7.835938 13.214844 7.828125 13.214844 7.828125 C 13.203125 7.863281 13.148438 7.824219 13.164062 7.800781 C 13.175781 7.777344 13.183594 7.761719 13.179688 7.761719 L 13.160156 7.753906 L 13.136719 7.800781 C 13.085938 7.800781 13.070312 7.832031 13.078125 7.851562 C 13.089844 7.875 13.0625 7.847656 13.054688 7.878906 C 13.046875 7.90625 13.0625 7.90625 13.082031 7.917969 C 13.105469 7.929688 13.070312 7.929688 13.085938 7.949219 C 13.101562 7.96875 13.148438 7.949219 13.125 7.976562 C 13.09375 8.003906 13.042969 7.992188 13.042969 7.992188 C 13.039062 8.03125 12.964844 8.019531 12.957031 8.007812 L 12.890625 7.925781 L 12.8125 7.921875 C 12.808594 7.863281 12.851562 7.894531 12.867188 7.847656 C 12.882812 7.804688 12.890625 7.730469 12.890625 7.730469 C 12.890625 7.730469 12.828125 7.730469 12.824219 7.746094 C 12.820312 7.761719 12.78125 7.78125 12.78125 7.78125 C 12.78125 7.78125 12.75 7.792969 12.761719 7.808594 C 12.773438 7.824219 12.738281 7.832031 12.738281 7.832031 C 12.738281 7.832031 12.742188 7.855469 12.734375 7.871094 C 12.703125 7.902344 12.625 7.871094 12.613281 7.859375 L 12.566406 7.839844 L 12.519531 7.808594 L 12.464844 7.832031 L 12.449219 7.847656 L 12.390625 7.847656 L 12.386719 7.898438 L 12.492188 7.910156 L 12.5 8.007812 L 12.457031 7.992188 L 12.429688 7.992188 L 12.417969 7.96875 L 12.394531 7.96875 L 12.394531 8.050781 L 12.417969 8.070312 L 12.4375 8.089844 L 12.476562 8.09375 L 12.484375 8.144531 L 12.582031 8.144531 L 12.59375 8.171875 L 12.652344 8.171875 L 12.765625 8.289062 L 12.757812 8.328125 L 12.738281 8.335938 C 12.746094 8.363281 12.6875 8.347656 12.6875 8.347656 L 12.6875 8.371094 L 12.714844 8.375 L 12.742188 8.390625 L 12.78125 8.324219 C 12.820312 8.296875 12.84375 8.335938 12.847656 8.363281 C 12.847656 8.382812 12.828125 8.378906 12.828125 8.378906 L 12.828125 8.4375 L 12.851562 8.445312 C 12.890625 8.496094 12.835938 8.523438 12.835938 8.523438 L 12.824219 8.5625 C 12.8125 8.597656 12.769531 8.589844 12.769531 8.589844 L 12.753906 8.613281 L 12.707031 8.625 L 12.800781 8.636719 C 12.8125 8.605469 12.828125 8.597656 12.839844 8.613281 C 12.855469 8.628906 12.855469 8.65625 12.855469 8.65625 L 12.878906 8.660156 L 12.875 8.703125 L 12.898438 8.710938 L 12.898438 8.84375 L 12.925781 8.875 C 12.972656 8.855469 12.972656 8.886719 12.949219 8.902344 C 12.925781 8.917969 12.941406 8.988281 12.941406 8.988281 L 12.921875 9.007812 L 12.921875 9.039062 L 12.898438 9.058594 L 12.898438 9.105469 C 12.859375 9.085938 12.8125 9.09375 12.800781 9.105469 C 12.761719 9.082031 12.691406 9.089844 12.691406 9.105469 C 12.714844 9.140625 12.664062 9.144531 12.664062 9.144531 L 12.636719 9.179688 C 12.65625 9.21875 12.617188 9.222656 12.617188 9.222656 L 12.617188 9.300781 L 12.570312 9.339844 L 12.570312 9.449219 C 12.570312 9.476562 12.632812 9.480469 12.644531 9.464844 C 12.65625 9.449219 12.703125 9.496094 12.703125 9.496094 L 12.738281 9.496094 L 12.746094 9.425781 L 12.722656 9.414062 L 12.722656 9.292969 L 12.761719 9.253906 C 12.808594 9.234375 12.792969 9.355469 12.792969 9.367188 C 12.792969 9.414062 12.816406 9.40625 12.832031 9.398438 C 12.871094 9.382812 12.84375 9.445312 12.8125 9.4375 C 12.78125 9.4375 12.800781 9.476562 12.800781 9.476562 L 12.820312 9.488281 L 12.78125 9.515625 L 12.753906 9.550781 L 12.714844 9.539062 L 12.667969 9.535156 L 12.652344 9.507812 L 12.625 9.503906 L 12.621094 9.558594 L 12.601562 9.582031 L 12.554688 9.628906 C 12.617188 9.628906 12.546875 9.675781 12.53125 9.675781 C 12.566406 9.6875 12.527344 9.722656 12.4375 9.695312 L 12.4375 9.722656 L 12.40625 9.726562 L 12.433594 9.761719 L 12.464844 9.761719 L 12.453125 9.832031 C 12.453125 9.882812 12.324219 9.847656 12.3125 9.832031 L 12.3125 9.910156 L 12.285156 9.910156 L 12.289062 9.960938 L 12.289062 10.027344 L 12.328125 10.019531 L 12.328125 10.046875 L 12.433594 10.050781 L 12.585938 9.886719 L 12.675781 9.867188 C 12.683594 9.828125 12.722656 9.875 12.722656 9.875 C 12.761719 9.871094 12.769531 9.898438 12.769531 9.898438 L 12.820312 9.90625 C 12.859375 9.917969 12.835938 9.921875 12.839844 9.9375 C 12.839844 9.964844 12.863281 9.957031 12.863281 9.957031 L 12.871094 9.902344 L 12.894531 9.90625 L 12.871094 9.878906 L 12.828125 9.859375 L 12.78125 9.839844 C 12.75 9.796875 12.789062 9.800781 12.820312 9.808594 L 12.871094 9.808594 C 12.871094 9.808594 12.929688 9.886719 12.929688 9.90625 C 12.929688 9.925781 12.957031 9.929688 12.957031 9.929688 L 12.992188 9.929688 L 13.003906 9.957031 L 13.039062 9.957031 L 13.050781 9.980469 L 13.121094 9.980469 L 13.121094 9.941406 L 13.058594 9.929688 L 13.054688 9.890625 L 13.007812 9.878906 C 12.992188 9.8125 13.019531 9.792969 13.039062 9.824219 L 13.0625 9.824219 L 13.054688 9.769531 L 13.082031 9.761719 L 13.074219 9.675781 L 13.050781 9.667969 L 13.050781 9.636719 L 13.148438 9.640625 C 13.144531 9.589844 13.144531 9.566406 13.148438 9.566406 L 13.179688 9.566406 L 13.179688 9.585938 L 13.300781 9.597656 L 13.386719 9.5 C 13.382812 9.492188 13.394531 9.488281 13.386719 9.480469 C 13.371094 9.46875 13.355469 9.480469 13.335938 9.46875 C 13.316406 9.457031 13.335938 9.390625 13.335938 9.371094 C 13.328125 9.355469 13.398438 9.328125 13.386719 9.371094 C 13.375 9.402344 13.386719 9.421875 13.386719 9.421875 C 13.4375 9.371094 13.480469 9.421875 13.476562 9.4375 C 13.476562 9.449219 13.503906 9.460938 13.523438 9.449219 C 13.542969 9.4375 13.566406 9.484375 13.5625 9.507812 C 13.550781 9.53125 13.484375 9.527344 13.476562 9.503906 C 13.472656 9.484375 13.464844 9.484375 13.453125 9.5 C 13.441406 9.515625 13.417969 9.519531 13.390625 9.507812 L 13.386719 9.5 L 13.300781 9.597656 L 13.304688 9.597656 C 13.351562 9.625 13.328125 9.664062 13.3125 9.671875 C 13.296875 9.679688 13.273438 9.679688 13.273438 9.679688 L 13.261719 9.695312 L 13.160156 9.703125 L 13.152344 9.742188 C 13.105469 9.738281 13.085938 9.792969 13.097656 9.820312 C 13.109375 9.847656 13.097656 9.871094 13.097656 9.871094 L 13.136719 9.890625 L 13.195312 9.875 C 13.203125 9.835938 13.234375 9.828125 13.265625 9.804688 C 13.296875 9.78125 13.347656 9.84375 13.332031 9.878906 C 13.320312 9.910156 13.3125 9.925781 13.316406 9.921875 L 13.320312 9.964844 L 13.28125 9.976562 L 13.25 9.992188 L 13.25 10.011719 L 13.140625 10.011719 L 13.125 10.03125 L 13.074219 10.035156 L 13.058594 10.0625 L 13.019531 10.0625 C 13.019531 10.0625 12.964844 10.09375 12.988281 10.125 C 13.011719 10.15625 12.890625 10.152344 12.863281 10.109375 C 12.855469 10.148438 12.8125 10.109375 12.8125 10.109375 L 12.769531 10.101562 L 12.765625 10.042969 C 12.757812 10.003906 12.683594 10.003906 12.6875 10.03125 C 12.6875 10.058594 12.546875 10.042969 12.546875 10.042969 L 12.5 10.0625 L 12.457031 10.089844 L 12.453125 10.109375 L 12.382812 10.117188 L 12.351562 10.132812 L 12.339844 10.109375 L 12.308594 10.109375 L 12.277344 10.148438 C 12.199219 10.15625 12.121094 10.203125 12.125 10.226562 C 12.132812 10.246094 12.09375 10.269531 12.09375 10.269531 L 12.058594 10.277344 L 12.035156 10.316406 L 11.988281 10.328125 L 11.980469 10.414062 L 11.957031 10.429688 L 11.957031 10.464844 L 11.929688 10.472656 L 11.929688 10.492188 L 11.890625 10.492188 L 11.914062 10.558594 L 11.945312 10.574219 C 12 10.582031 11.976562 10.652344 11.976562 10.652344 L 12.007812 10.652344 L 12.023438 10.695312 L 12.054688 10.761719 C 12.066406 10.808594 12.101562 10.796875 12.117188 10.792969 C 12.132812 10.789062 12.148438 10.84375 12.148438 10.84375 L 12.304688 10.847656 C 12.304688 10.847656 12.296875 10.863281 12.324219 10.871094 C 12.351562 10.878906 12.53125 10.886719 12.539062 10.875 C 12.53125 10.839844 12.636719 10.828125 12.679688 10.863281 C 12.71875 10.894531 12.78125 10.875 12.78125 10.875 L 12.839844 10.945312 L 12.878906 11.035156 L 12.945312 11.054688 L 12.992188 11.066406 L 13.007812 11.136719 L 13.042969 11.136719 L 13.054688 11.183594 C 13.09375 11.214844 13.042969 11.28125 13.042969 11.28125 L 13.042969 11.371094 L 13.074219 11.386719 L 13.070312 11.417969 L 13.121094 11.472656 L 13.179688 11.472656 L 13.324219 11.632812 L 13.441406 11.671875 L 13.460938 11.738281 L 13.492188 11.734375 L 13.515625 11.710938 L 13.609375 11.707031 L 13.65625 11.660156 L 13.707031 11.652344 L 14.136719 11.28125 L 14.097656 11.257812 L 14.097656 11.171875 C 14.171875 11.117188 14.175781 11.023438 14.109375 11.015625 C 14.058594 11.011719 14.082031 10.957031 14.128906 10.949219 L 14.15625 10.9375 L 14.15625 10.902344 L 14.246094 10.816406 L 14.246094 10.753906 L 14.050781 10.589844 C 13.964844 10.558594 14.050781 10.363281 14.109375 10.367188 C 14.167969 10.371094 14.105469 10.074219 14.105469 10.074219 L 14.074219 10.058594 L 14.082031 9.960938 L 14.039062 9.960938 L 13.96875 10.054688 L 13.949219 10.117188 C 13.941406 10.199219 13.699219 10.183594 13.6875 10.171875 C 13.675781 10.160156 13.59375 10.125 13.59375 10.125 C 13.59375 10.125 13.53125 10.074219 13.519531 10.085938 C 13.507812 10.105469 13.453125 10.070312 13.453125 10.082031 C 13.453125 10.09375 13.402344 10.050781 13.402344 10.050781 L 13.324219 10.023438 L 13.382812 10.011719 L 13.371094 9.964844 L 13.472656 10.015625 C 13.484375 10.03125 13.535156 10.027344 13.535156 10.027344 L 13.550781 10.046875 C 13.550781 10.046875 13.582031 10.046875 13.601562 10.066406 C 13.621094 10.09375 13.722656 10.074219 13.722656 10.074219 L 13.75 10.097656 L 13.792969 10.113281 L 13.914062 10.113281 L 13.917969 10.039062 L 13.941406 10.015625 L 13.941406 9.96875 L 13.964844 9.941406 L 13.964844 9.902344 L 13.988281 9.894531 L 13.992188 9.808594 L 14.011719 9.804688 L 14.011719 9.609375 L 13.953125 9.554688 C 13.949219 9.574219 13.886719 9.574219 13.886719 9.574219 C 13.886719 9.574219 13.871094 9.601562 13.859375 9.601562 C 13.847656 9.601562 13.875 9.640625 13.867188 9.664062 C 13.859375 9.683594 13.828125 9.6875 13.828125 9.6875 L 13.769531 9.703125 L 13.753906 9.722656 L 13.691406 9.722656 L 13.683594 9.671875 L 13.753906 9.652344 L 13.792969 9.628906 L 13.8125 9.589844 C 13.816406 9.550781 13.863281 9.554688 13.863281 9.554688 C 13.863281 9.554688 13.953125 9.476562 13.957031 9.445312 C 13.960938 9.40625 13.992188 9.304688 14.046875 9.304688 L 14.148438 9.304688 C 14.1875 9.289062 14.175781 9.238281 14.175781 9.238281 L 14.226562 9.230469 L 14.234375 9.257812 C 14.234375 9.257812 14.304688 9.265625 14.3125 9.257812 C 14.320312 9.242188 14.335938 9.21875 14.351562 9.226562 C 14.375 9.238281 14.4375 9.199219 14.4375 9.199219 C 14.4375 9.171875 14.539062 9.183594 14.539062 9.183594 L 14.550781 9.144531 C 14.550781 9.144531 14.484375 9.050781 14.472656 9.050781 C 14.460938 9.050781 14.394531 8.996094 14.390625 9.015625 C 14.328125 9 14.332031 8.914062 14.332031 8.914062 L 14.308594 8.859375 C 14.308594 8.828125 14.25 8.761719 14.238281 8.769531 C 14.21875 8.757812 14.207031 8.738281 14.207031 8.714844 C 14.207031 8.695312 14.21875 8.675781 14.238281 8.664062 C 14.253906 8.664062 14.292969 8.605469 14.292969 8.605469 L 14.3125 8.550781 L 14.378906 8.53125 L 14.386719 8.480469 L 14.347656 8.476562 C 14.347656 8.476562 14.386719 8.398438 14.410156 8.398438 C 14.433594 8.398438 14.558594 8.398438 14.566406 8.390625 C 14.582031 8.382812 14.605469 8.320312 14.605469 8.3125 C 14.605469 8.296875 14.636719 8.292969 14.644531 8.289062 C 14.660156 8.289062 14.683594 8.253906 14.695312 8.238281 C 14.703125 8.222656 14.675781 8.117188 14.65625 8.136719 "/>
<path style=" stroke:none;fill-rule:nonzero;fill:rgb(100%,100%,100%);fill-opacity:1;" d="M 12.5 9.578125 C 12.503906 9.578125 12.511719 9.597656 12.523438 9.59375 C 12.535156 9.589844 12.542969 9.617188 12.527344 9.617188 C 12.523438 9.621094 12.519531 9.628906 12.519531 9.636719 C 12.519531 9.644531 12.515625 9.65625 12.507812 9.671875 C 12.5 9.675781 12.492188 9.675781 12.480469 9.667969 C 12.46875 9.660156 12.457031 9.660156 12.445312 9.660156 C 12.433594 9.660156 12.445312 9.683594 12.445312 9.683594 C 12.445312 9.683594 12.382812 9.683594 12.394531 9.671875 C 12.410156 9.664062 12.414062 9.65625 12.410156 9.65625 C 12.40625 9.652344 12.40625 9.644531 12.410156 9.628906 C 12.414062 9.613281 12.4375 9.621094 12.429688 9.613281 C 12.421875 9.605469 12.429688 9.570312 12.445312 9.589844 L 12.453125 9.570312 C 12.445312 9.558594 12.453125 9.558594 12.433594 9.550781 C 12.414062 9.542969 12.429688 9.511719 12.429688 9.511719 L 12.429688 9.484375 C 12.4375 9.457031 12.496094 9.453125 12.5 9.480469 L 12.5 9.523438 L 12.519531 9.53125 C 12.519531 9.53125 12.515625 9.546875 12.5 9.546875 C 12.484375 9.546875 12.5 9.554688 12.492188 9.566406 L 12.5 9.582031 Z M 12.304688 9.609375 C 12.316406 9.59375 12.335938 9.515625 12.359375 9.539062 C 12.382812 9.5625 12.398438 9.539062 12.398438 9.539062 C 12.398438 9.539062 12.410156 9.550781 12.402344 9.578125 C 12.398438 9.601562 12.390625 9.617188 12.378906 9.625 C 12.367188 9.628906 12.351562 9.632812 12.332031 9.640625 C 12.316406 9.640625 12.308594 9.609375 12.308594 9.609375 Z M 12.304688 9.609375 "/>
</g>
</svg>
