<svg xmlns="http://www.w3.org/2000/svg" width="25" height="px" viewBox="0 0 25 19"><path d="M0 0h25v19H0z" style="fill:#4b92db;fill-opacity:1;stroke:none"/><path d="M13.973 13.941q-.1.114-.223.204c-.496-.524-1.082-1.098-1.637-1.098-.343 0-.59.265-.883.453-.398.262-.949.406-1.421.215a1.5 1.5 0 0 1-.684-.473c.406.254.906.297 1.348.117.46-.195.933-.453 1.46-.453.782 0 1.52.535 2.04 1.035m-5.754-1.64c.515.594 1.355.406 2.043.55.097.028.187.055.289.04-.082-.051-.192-.059-.285-.094-.536-.203-.618-.785-.91-1.18.374.25.683.594 1.03.918.247.207.548.34.864.387-.078.027-.176.023-.258.039-.562.144-1.187.367-1.789.168a1.76 1.76 0 0 1-.984-.828m-.824-1.375c.32.738 1.128.797 1.664 1.25.093.086.199.156.316.219l.004-.008a2.4 2.4 0 0 1-.352-.39c-.308-.454-.207-1.071-.445-1.548.223.246.402.528.543.828.2.48.266 1.028.715 1.395-.485-.164-1.043-.133-1.477-.418-.46-.305-.883-.785-.968-1.328m-.348-1.492c.047.652.726.996 1.055 1.53.07.114.14.235.242.325-.016-.07-.07-.133-.102-.2a1.47 1.47 0 0 1-.125-.765c.031-.332.168-.64.113-.992.282.617.192 1.383.352 2.047.04.148.125.273.18.414-.274-.211-.637-.402-.938-.64-.3-.22-.535-.52-.68-.868a2 2 0 0 1-.097-.851m.02-1.196c.035-.148.058-.297.12-.43-.117.614.286 1.055.422 1.587.051.199.07.41.149.597q.012.002.02-.008c-.2-.566.093-1.086.374-1.53q.105-.185.145-.392c.031.254-.024.551-.07.813-.059.34-.172.66-.266.984-.047.215-.05.438-.012.653l-.027-.024c-.211-.394-.629-.703-.754-1.136a2.5 2.5 0 0 1-.102-1.114m.223-.66c.008-.437.164-.86.445-1.187q.012-.012.024-.012c-.293.453-.024 1.027-.067 1.543l-.035.527c.004.004.004.02.02.012q.02-.089.031-.184c.07-.425.441-.718.754-1.02a.8.8 0 0 0 .164-.245c-.027.215-.086.43-.18.62-.242.497-.707.895-.789 1.458-.039-.54-.367-.942-.367-1.512m.774-1.566c.136-.164.316-.285.515-.348-.387.27-.363.746-.48 1.145-.043.144-.106.28-.141.433l.012.008c.066-.18.176-.34.316-.473.27-.254.672-.414.809-.789-.008.524-.45.922-.852 1.23q-.271.214-.426.52c.012-.144.024-.265.008-.406-.043-.457-.07-.973.242-1.32Zm1.558-.883c-.281.254-.473.582-.691.871-.184.246-.434.395-.645.602.117-.243.133-.524.281-.758.25-.407.668-.563 1.055-.715" style="stroke:none;fill-rule:nonzero;fill:#fff;fill-opacity:1"/><path d="M11.031 13.941q.1.114.223.204c.496-.524 1.082-1.098 1.637-1.098.343 0 .59.265.882.453.399.262.95.406 1.422.215.266-.09.504-.254.684-.473a1.48 1.48 0 0 1-1.348.117c-.46-.195-.933-.453-1.46-.453-.778 0-1.52.535-2.04 1.035m5.754-1.64c-.515.594-1.355.406-2.043.55a.66.66 0 0 1-.289.04c.082-.051.192-.059.285-.094.535-.203.617-.785.91-1.18-.375.25-.683.594-1.03.918-.247.207-.544.34-.86.387.074.027.172.023.258.039.562.144 1.183.367 1.785.168.418-.14.77-.434.984-.828m.828-1.375c-.324.738-1.133.797-1.664 1.25a1.8 1.8 0 0 1-.316.219l-.008-.008q.2-.175.352-.39c.308-.454.207-1.071.445-1.548a3.5 3.5 0 0 0-.543.828c-.2.48-.266 1.028-.715 1.395.484-.164 1.043-.133 1.477-.418.46-.305.882-.785.972-1.328m.344-1.492c-.047.652-.727.996-1.055 1.53-.07.114-.14.235-.242.325.016-.07.07-.133.102-.2.11-.237.152-.503.125-.765-.032-.332-.164-.64-.114-.992-.28.617-.191 1.383-.351 2.047-.04.148-.125.273-.18.414.274-.211.637-.402.938-.64.3-.22.535-.52.68-.868.093-.273.124-.562.097-.851m-.02-1.196c-.03-.148-.058-.297-.12-.43.117.614-.286 1.055-.422 1.587-.051.199-.07.41-.149.597q-.013.002-.02-.008c.2-.566-.093-1.086-.374-1.53a1.4 1.4 0 0 1-.145-.392c-.031.254.023.551.07.813.059.34.172.66.266.984.047.215.05.438.012.653l.03-.024c.212-.394.626-.703.75-1.136.122-.36.153-.739.102-1.114m-.222-.66a1.88 1.88 0 0 0-.445-1.187q-.012-.012-.024-.012c.297.453.027 1.027.067 1.543l.035.527c-.004.004-.004.02-.016.012-.02-.059-.023-.121-.035-.184-.07-.425-.442-.718-.75-1.02a.65.65 0 0 1-.164-.245c.023.215.082.43.176.62.242.497.707.895.789 1.458.043-.54.367-.942.367-1.512m-.774-1.566a1.07 1.07 0 0 0-.515-.348c.387.27.367.746.484 1.145.04.144.106.28.14.433l-.01.008c-.071-.18-.18-.34-.317-.473-.27-.254-.676-.414-.809-.789.004.524.445.922.848 1.23.18.141.328.317.43.52a2 2 0 0 1-.012-.406c.043-.457.07-.973-.242-1.32Zm-1.558-.883c.285.254.472.582.695.871.18.246.43.395.645.602-.118-.243-.137-.524-.285-.758-.25-.407-.668-.563-1.055-.715M15.977 10.371l-.082-.047c-.18.371-.415.711-.7 1.004l-.488-.5c.234-.246.43-.531.574-.84l-.082-.05c-.14.304-.332.585-.562.824l-.446-.45c.188-.199.344-.425.454-.68l-.082-.046a2.3 2.3 0 0 1-.438.66l-.488-.496a1.7 1.7 0 0 0 .312-.5l-.082-.047a1.6 1.6 0 0 1-.297.477l-.449-.453c.125-.141.2-.325.211-.516h.633c-.004.168-.04.336-.098.492l.082.047q.102-.258.11-.54h.695a2.3 2.3 0 0 1-.195.876l.086.047a2.4 2.4 0 0 0 .203-.922h.632a3 3 0 0 1-.28 1.226l.081.051c.184-.402.285-.836.29-1.277h.699a3.85 3.85 0 0 1-.375 1.613Zm0 0a3.943 3.943 0 0 0 .11-3.172l-.087.04c.176.44.27.91.273 1.382h-.699a3.2 3.2 0 0 0-.215-1.11l-.086.04c.133.344.207.703.211 1.07h-.64a2.4 2.4 0 0 0-.156-.816l-.086.039q.14.377.148.777h-.687a1.6 1.6 0 0 0-.094-.5l-.086.04c.05.148.082.304.086.46h-.633a.87.87 0 0 0-.211-.516l.45-.453c.136.145.241.317.308.504l.086-.035a1.6 1.6 0 0 0-.328-.535l.492-.5c.207.219.367.476.476.758l.086-.04a2.4 2.4 0 0 0-.5-.784l.45-.454c.273.286.484.622.628.989l.086-.04a3.1 3.1 0 0 0-.652-1.015l.492-.5c.344.355.617.777.801 1.238l.086-.039a3.94 3.94 0 0 0-2.14-2.164l-.032.09c.457.188.871.46 1.223.809l-.492.5a3.1 3.1 0 0 0-.985-.653l-.039.09c.356.145.68.36.957.633l-.445.45a2.4 2.4 0 0 0-.742-.49l-.032.087c.262.11.5.27.704.469l-.489.496a1.6 1.6 0 0 0-.469-.309l-.035.094c.16.066.309.164.438.285l-.453.45a.83.83 0 0 0-.508-.216v-.64q.271.012.52.117l.035-.09a1.5 1.5 0 0 0-.555-.121v-.707c.277.008.55.062.808.168l.036-.086a2.3 2.3 0 0 0-.844-.176v-.64c.367.003.734.082 1.074.222l.031-.09a3.1 3.1 0 0 0-1.105-.222v-.711c.469.008.93.101 1.363.277l.031-.09a3.846 3.846 0 0 0-3.168.133l.04.082a3.7 3.7 0 0 1 1.64-.398v.707a3 3 0 0 0-1.316.32l.043.078a2.9 2.9 0 0 1 1.273-.308v.64a2.35 2.35 0 0 0-.976.238l.039.082c.293-.14.613-.218.937-.226v.707a1.6 1.6 0 0 0-.613.148l.039.082c.18-.086.375-.132.574-.136v.64a.8.8 0 0 0-.273.067l.039.078a.752.752 0 0 1 .805.164c.14.144.218.34.218.539a.747.747 0 0 1-.742.754.75.75 0 0 1-.742-.754c0-.2.078-.39.219-.535a.8.8 0 0 1 .242-.16l-.043-.082a.8.8 0 0 0-.235.148l-.445-.453c.113-.11.246-.2.387-.266l-.043-.082c-.149.07-.29.164-.41.278l-.492-.496a2.3 2.3 0 0 1 .578-.41l-.04-.079a2.3 2.3 0 0 0-.601.422l-.45-.46a3 3 0 0 1 .755-.54l-.04-.078c-.288.14-.55.328-.78.555l-.493-.504a3.9 3.9 0 0 1 .95-.68l-.044-.086a3.94 3.94 0 0 0-1.738 1.774l.078.039c.176-.36.41-.692.688-.98l.496.503c-.23.238-.422.516-.567.82l.079.043c.14-.296.324-.566.55-.8l.45.453q-.277.288-.442.652l.078.043q.165-.352.43-.629l.492.5c-.129.133-.23.293-.305.465l.083.047c.066-.164.164-.317.285-.445l.449.449a.83.83 0 0 0-.211.52h-.633q.008-.271.11-.524l-.079-.047c-.078.18-.117.375-.125.57h-.695a2.3 2.3 0 0 1 .203-.906l-.078-.039a2.4 2.4 0 0 0-.219.945H9.52c.007-.433.105-.863.293-1.254l-.083-.043a3.1 3.1 0 0 0-.3 1.297h-.7c.008-.566.141-1.125.387-1.633l-.082-.046a3.95 3.95 0 0 0-.242 2.832l.09-.024a3.9 3.9 0 0 1-.153-1.035h.7q.006.441.129.86l.09-.024a3 3 0 0 1-.13-.836h.637q.005.35.11.684l.093-.024a2.4 2.4 0 0 1-.109-.66h.688q.006.251.09.484l.09-.023a1.6 1.6 0 0 1-.087-.461h.633a.86.86 0 0 0 .211.516l-.45.457a1.5 1.5 0 0 1-.308-.512l-.09.023c.075.207.188.395.336.555l-.496.5c-.234-.25-.41-.55-.515-.879l-.094.024c.11.343.297.66.547.922l-.446.453a3 3 0 0 1-.707-1.22l-.09.024c.141.477.391.907.731 1.262l-.488.5a3.8 3.8 0 0 1-.918-1.586l-.094.024c.184.628.52 1.199.977 1.664.308.312.671.574 1.066.765l.047-.082a3.7 3.7 0 0 1-1.016-.719l.492-.496q.382.37.864.594l.047-.082a2.9 2.9 0 0 1-.844-.582l.445-.45c.207.2.45.364.711.477l.047-.086a2.2 2.2 0 0 1-.691-.457l.492-.5c.156.149.343.266.547.336l.043-.082a1.4 1.4 0 0 1-.524-.32l.45-.457c.14.129.32.203.507.215v.64a1.5 1.5 0 0 1-.43-.078l-.05.078c.152.059.316.09.48.098v.703a2.2 2.2 0 0 1-.824-.176l-.047.082c.277.118.57.184.871.188v.64a2.9 2.9 0 0 1-1.183-.269l-.047.082c.386.18.804.277 1.23.285v.703a3.7 3.7 0 0 1-1.57-.367l-.047.078c.52.254 1.09.383 1.664.383.617 0 1.21-.144 1.742-.418l-.047-.086a3.7 3.7 0 0 1-1.648.41v-.707c.46-.007.914-.12 1.328-.328l-.04-.086c-.401.203-.839.313-1.288.317v-.633a2.3 2.3 0 0 0 1-.254l-.043-.082c-.297.152-.625.23-.957.238v-.703q.336-.012.637-.16l-.04-.086c-.187.094-.39.145-.597.148v-.64a.83.83 0 0 0 .508-.215l.449.457q-.164.152-.363.25l.043.086c.14-.07.273-.16.386-.27l.492.496q-.247.24-.558.399l.039.082c.215-.105.414-.246.586-.414l.445.45a2.9 2.9 0 0 1-.742.534l.047.086c.281-.144.535-.332.762-.55l.488.496c-.277.273-.59.503-.934.68l.047.085c.367-.187.7-.433.988-.726.305-.313.56-.668.747-1.063" style="stroke:none;fill-rule:nonzero;fill:#fff;fill-opacity:1"/><path d="M12.723 7.758h-.024v.027h.024Zm-.059-.04h.031v.024h-.03Zm-.055-.007.024.004.004-.024h-.028Zm-.023-.008h-.027v-.027l.03.004Zm-.227-.031h.032v.023h-.032Zm-.066.047.027.004v-.024h-.023Zm0 .039-.027-.012v-.023l.035.011Zm-.055.027v-.023l.02-.004.004.023Zm-3.07 2.438v-.02h-.02v.043h.032v.05h.023v-.062Zm.293.359-.04-.039-.034-.047-.016-.039-.027-.07.058.031.02.055.027.02.028.062Zm.809 1.07-.004-.035-.036-.047.051.008.047.043.024.05-.032.017-.011-.024Zm2.109-3.636h-.04l-.01-.086.023-.016v-.043h-.137v-.047l.015-.011-.03-.012-.024.031-.008.04-.04.007v.02h-.026v.05l-.11.09-.219-.008c-.011.04-.05 0-.05 0-.012-.027-.063 0-.063 0 0 .04-.078-.023-.078-.023l-.133-.098c-.078-.074-.195.02-.199.04 0 .054-.09.01-.09.01s-.078-.022-.09.009-.062.023-.062.023L11 8.008l-.04.008-.007.023-.047.008h.117c.032-.008-.011.066-.03.062h-.056l-.019.024h-.05l-.024.035-.074-.008s-.04.04-.04.05c.004.013-.007.048-.02.048-.01 0-.034.039-.026.047.007.011-.024.05-.024.05l-.008.04-.023.011v.11l-.047.03v.048l-.07.078.008.058-.06.07.009.063-.035.012-.008.027-.016.082.04.004c.019-.008.015.051 0 .063-.016.011-.06.027-.036.043s-.062.011-.062-.012-.047-.05-.059-.043-.031-.035-.031-.035c-.04-.04-.172.004-.172.004l-.02.07c-.043.004-.07.078-.07.078-.04.012-.062.055-.05.067.01.011-.02.015-.02.015v.086l-.02.031v.098c.027 0 .024.04.024.04-.04.007-.032.058-.032.058l-.082.027-.015.024h-.102l-.027.023-.028-.027h-.195l-.008-.02-.039-.008v-.043h-.062l-.012.028-.062.004c.003.039-.063.101-.07.082-.009-.016-.052-.059-.032-.067l.07-.015V9.53l-.144-.004-.016.024-.058.004v.062l-.028.008c-.02.012.004.059.004.059.027.027 0 .074 0 .074-.027.023.016.066.016.066.031.008-.02.031-.02.031.008.04.031.051.031.051a.043.043 0 0 0 .016.063l.004.066.027.016v.047l.016.027h.062v-.102c-.058-.062.043-.082.047-.054.004.023.047.039.047.039.008.058.078.094.094.031.02-.059.039-.023.047.004.012.031.086.098.086.098h.058l.008.054c.067-.004.086 0 .113.098.012.055.051.098.102.117l.055-.004c0-.05.054.008.054.031 0 .024.106.118.106.118l.105.023.098.078.074-.008h.031c.02-.066.114.004.118.028.004.023.07.066.078.047s.05-.008.058.05.04.047.04.047l.218-.004.078-.066.2-.004c.101-.004.039-.144.019-.144-.035-.028.012-.145.012-.145l-.285-.27c-.067 0-.008-.093-.008-.093.05-.031-.012-.086-.012-.086.008-.047-.027-.106-.027-.106-.07-.047-.051-.136-.051-.136v-.067c-.059-.058.023-.066.023-.066.028-.047-.02-.082-.02-.082V9.5l-.066-.008-.007-.191-.141-.2c-.027-.007-.008-.062-.008-.062.04-.02-.008-.066-.008-.066v-.086l.079-.008.019-.031h.04v-.106c.015-.055.062-.027.062-.027l.054.004.032-.059.007-.047h-.039c-.05-.031-.027-.133-.027-.133.078-.117.16-.05.16-.05l.055-.004c.082.058.008.16.008.16-.016.023-.008.098-.008.098l.02.132-.051.04c-.04.027-.04.082.003.093.032.004.02.078-.027.028-.07 0 .04.062.008.046.07.043.055-.03.055-.03l.093-.075c.04-.027.098.059.098.07s.156.004.156.004c.04.028.059.106.059.106.039-.063.133-.004.066.027.063.04.063.074.063.074.05-.015.05.024.05.035l.016-.058c-.058-.043.078-.059.04.02l-.024.034.039.032v.093c.09-.011.066-.117.066-.117l.04-.008c0-.039.027-.015.027-.015-.028-.133.062-.156.062-.156.05-.02.055-.125.055-.125-.04-.016-.016-.07.023-.024.04.047-.023-.094-.023-.094l-.031-.027-.043-.004-.004-.047h-.07l-.012.059-.028.008-.007-.016-.012.04h-.07l-.004-.044.039-.012.02-.027.01-.066h.052l.066-.02c0-.066.04-.05.04-.05l.023.019.035.027v.024l-.02.011-.004.032.012.05h.027c.012-.07.094-.07.118-.027L12 8.687c-.055-.027 0-.07.016-.05.015.02.05-.051.05-.051s.028.039 0-.012c-.027-.047.02-.07.02-.07-.008-.05.05-.04.05-.04l.005-.07h-.055c-.012.055-.059.004-.035-.007.023-.012.047-.035.047-.035v-.04l.023-.007.004-.04h.059l.05-.023.012-.02.055-.003.078-.074-.008-.032c-.047 0 0-.039 0-.039Zm0 0" style="stroke:none;fill-rule:nonzero;fill:#fff;fill-opacity:1"/><path d="m10.809 8.813-.07-.008.003.027h.02c.031.055.004.188.004.188s-.047.003-.055-.02-.027.05-.012.07c.016.016.07 0 .078.04 0 .046.032-.024.032-.024Zm0 0" style="stroke:none;fill-rule:nonzero;fill:#fff;fill-opacity:1"/><path d="m10.809 9.152.023-.004.004-.027-.059.04-.039-.024v.093l.063.082.023-.054.008-.035-.027-.012Zm.03.254v-.039h-.027v.035Zm-.034.188v-.028l-.032.004v.028Zm.047-.121c.007 0 .015-.008.015-.02a.02.02 0 0 0-.015-.015q-.006 0-.012.003c-.004.004-.004.012-.004.016q-.001.011.016.016M10.895 9.54a.02.02 0 0 0-.016-.017.02.02 0 0 0-.016.016c0 .008.008.016.016.016a.02.02 0 0 0 .016-.016M10.895 9.082c0-.012-.008-.016-.016-.016s-.016.004-.016.016c0 .008.008.016.016.016a.02.02 0 0 0 .016-.016M12.203 8.492l-.039-.004-.012.02h-.02v.031h.02l.004.024-.015.015-.008.02-.031.007-.07.067v.031l-.024.027-.024.067h-.078l-.02.074.012.059.07.027.009-.039.023-.012.004-.039.016-.027.023-.027.008-.032.039-.027.047-.012.02-.023.007-.047v-.035l.02-.024.046-.02v-.077h-.023Zm.11.274v-.063l-.008-.05-.059-.028-.039.04-.012.054v.043l-.039.008-.008.105-.03.012.003.039-.039.011-.047.012-.008.051-.03.02-.017.054-.02.114s.04.066.056.035c.02-.032.05-.04.05-.04l.012-.023h.106c.007-.039.058-.023.058-.004 0 .02.04 0 .04 0l.027-.039h.043l.003-.05.02-.016v-.067c.063-.02.055-.078.055-.078l.015-.02-.008-.027c-.03-.011-.015-.039.004-.03.02.007-.027-.04-.027-.04-.023.024-.039-.02-.039-.02Zm.062.48c0 .047-.062.063-.062.063l-.04-.012-.027-.02v-.054l.031-.004.008.023Zm.21-.258c.009.04.009-.054.024-.05s.004-.055.004-.055l-.07.05c.035.005.039.04.043.055m.207-.203c.016.035.012.086.07.125.02.012-.011.04-.031.027l-.078-.097v-.05c.016-.036.031-.02.039-.005m.012 1.227.011.02.028-.04-.024-.012-.027.02Zm-.11-.078v.05m.563-.105.031-.02-.012-.023-.03.02Zm1.129.832.035.02v.066c.05.05.203.008.203-.004l-.008-.148-.02-.02-.003-.102c.015-.05-.078-.125-.082-.109s-.059 0-.059.02-.031.093-.015.125c.015.027-.012.027-.016.054-.004.028-.043.078-.04.102Zm-.086-.156c-.008.03-.04.047-.051.039-.016-.016.02.015.027.031.012.016.028.016.04 0 .007-.016 0-.05.011-.066.012-.016-.023-.024-.027 0Zm-.184-.739h.028v.079h-.028Zm.406-.77c-.02-.023.079-.066.094-.015.016.055 0 .043-.015.04-.016-.005-.055.011-.079-.024m.082-.535v.023l.04.008.003-.023Zm-.175.062.03.02h.013l.023-.016v.008l.024-.008-.008-.02v-.011l-.016.004-.027.02-.028-.02Zm.218-.972h-.058s.02.007-.04-.047c-.05-.051-.085.011-.085.011l-.063.012v.063l-.03.011v.04h.046s0 .042.012.023c.011-.02.11.004.101.055-.004.02.098.07.086.136.051.008.04.059.04.059l.066.008.02-.04.019.005v-.024l-.043-.012-.008-.132-.027-.02.007-.031-.03-.012.015-.05Zm.168.406h-.03l-.071.008-.04.078s.02.011.04.039c.012.027.02.191-.027.219s.003.011.003.011l-.007.09c.011.043.03.024.043 0 .011-.02.023-.023.039-.043a.2.2 0 0 0 .043-.086c.004-.027.023-.07.011-.082-.011-.012.012-.066.012-.066s.016-.035 0-.067c-.016-.03.004-.07.016-.086Zm.047.168.004-.035h.024v.035Zm0 .11-.02-.013.012-.023.02.012Zm-.035-.317-.015-.04s0-.03.007-.046c.008-.02-.015-.035-.027-.043-.012 0-.008-.031-.012-.047s-.031-.027-.031-.027l-.008-.075c0-.011-.035-.027-.023-.039l.031-.035c.012-.008-.012-.066.008-.054a.1.1 0 0 1 .027.05c.008.016 0 .07.016.082.015.012 0 .055.027.055.031 0 .012.074.012.074s-.008.059.012.063.007.097.007.097Zm-.25-.653c.012.016.035.028.035.043 0 .016-.008.028.016.032q.035 0 .047.015a.1.1 0 0 1 0 .07q0 .035.027.04c.027.007.024 0 .024.015 0 .012.023-.043.023-.043a.2.2 0 0 1-.04-.05l-.015-.067c0-.008-.027-.016-.039-.02-.011-.003-.031-.038-.031-.038Zm.04-.035a.1.1 0 0 0-.04-.039q-.024-.011-.043-.015-.012 0-.023-.012a.03.03 0 0 1 0-.027c.008-.016-.012-.024-.012-.04q.001-.022.031-.003c.02.011.016.015.031.035.016.02.024.039.04.035.015-.004.027.035.039.023.02-.011.015.028.015.028Zm-.458.45c.02.023-.117.015-.117 0 0-.016.012-.07.047-.06.035.013.039-.07.039-.07s-.031.004-.004-.011c.027-.016 0-.043-.012-.055l-.023-.031h.055c.023-.016.03-.09.03-.09.048.016.071-.02.071-.02l.024.047c.015.02-.04.028-.02.04.02.011.027.046.02.058-.008.012-.051 0-.051-.012 0-.011-.016.02 0 .04.015.023-.02.05-.028.05-.007 0-.058.008-.015.031.039.024.09.012.09.012s.035 0 .046.016q.012.03-.023.023l-.117-.008s-.024.028-.012.04m-.25.039c.02-.004.067-.008.078 0 .004.015-.031.03-.031.03l-.047.009q-.03-.035 0-.04m.504-.335c.031-.016.098-.016.094-.04-.004-.023.039-.035.039-.035l.012.047.035.028v.039l-.028.007c-.043.012-.015.032-.015.032h-.098l-.012-.04-.03-.038Zm-.156-.22c.027 0-.004.095.058.087.063-.008 0 .027.051.031.047.004.035-.035.051-.066q.023-.037-.02-.051c-.027-.008-.027-.008-.039-.04-.004-.03-.039-.038-.039-.038l-.008-.047-.05.031-.051.066c0 .051.027.028.05.028Zm.105.337.012-.024.023.012-.011.024Zm-.039-.04h.024v.032h-.024Zm.02-.527v.036h-.02l-.004-.032Zm-.067.371h.024v.02h-.024Zm-.062 0v-.023h.039v.02Zm-.32.387-.024-.012.012-.027.023.012Zm-.125-.074v-.023h.039v.02Zm-.676-.008-.086.004v.024h.09Zm-.14.035-.009-.035.024-.004.008.035Zm-.017.024-.007-.02.011-.004.008.02Zm.196-.067-.004.028.039.004s.02.015.02.027.027.023.042.023.06-.03.06-.03.019-.056.003-.052-.047.028-.05.004c0-.023-.052-.011-.052-.011Zm.195-.039c0 .008-.012.024.012.028.023.004.066-.016.07.007.004.024.004.04.04.051l.07.016.078-.008s.05.012.062.02c.043.046.07.062.082.039.012-.02 0-.067-.008-.079 0-.019-.058-.093-.078-.078-.02.016-.023 0-.058.012s-.11.004-.114-.012c0-.015-.058-.023-.058-.043 0-.015-.04-.039-.035-.011.004.03-.028.039-.036.03-.007-.007-.03.024-.03.024Zm.895-.515.027-.09c-.04-.008-.031-.055-.031-.055-.004-.039-.059-.078-.078-.062-.02.015-.012-.082-.012-.082s.035-.024.05-.012c.016.012-.132-.203-.163-.184-.032.02-.102-.02-.098-.054.004-.04-.14-.157-.14-.157s-.048-.035-.055-.007c-.008.023-.024.039 0 .054.023.016.02-.02.047.008.027.027.078.063.058.086q-.034.03-.039.031l.024.031h.042l.008.067s.047.027.059.055q.018.036 0 .062c-.012.016-.035.04-.031.07.004.028.039.04.039.04h.027l.023.015v.05c.032-.007.082.044.079.067 0 .028.007.012.046.04.04.027.028.03.055.054q.042.029.063-.031Zm0 0" style="stroke:none;fill-rule:nonzero;fill:#fff;fill-opacity:1"/><path d="M13.574 6.555c0-.016-.011-.07.012-.067.023 0 .008 0 .039.012s.027-.02.027-.02h.043l.055.04-.008.039h-.039c-.02-.028-.058-.016-.05.011.007.028-.02.078-.036.082s-.066.004-.062-.02Zm-.031-.106v-.035s0-.035-.023-.035c-.024 0-.055-.024-.047-.04.007-.015-.067-.03-.067-.03s-.066-.063-.039-.055c.02.008.008-.027.008-.027s-.047.007-.059 0c-.011 0-.007-.04-.007-.04s-.047-.007-.047 0c0 .008.015.016.023.04.008.023.004.062.04.07.034.008.042.016.046.031.004.016.047.02.047.02l.031.015Zm-.418-.414-.012-.031-.031-.008v.04Zm-.012-.164c-.039-.031.055.024.055.024.031 0 .05.023.05.035 0 .011.04.008.04.008l.004-.028-.032-.039-.027-.02s-.039-.003-.039-.015-.039.047-.055.035Zm.715.024c-.012.035-.015.082-.035.082s-.012.05-.012.05l.067.004c.015.004.015.043.015.043.059 0 .082.082.078.102-.011.02.02.02.02.02s0 .062-.008.077c-.008.016.05.028.067.051.015.024-.008.106-.02.11-.012.003.031.02.027.039-.004.02.012 0 .016.03l.012.099.054.003c.008-.05.11-.054.125-.046.067.023.118.128.118.152s-.043.027-.043.027l.007.117c.067.02.118.118.114.133-.008.016.047.012.047.012.007-.074.074-.05.078-.027 0 .027.015.082.015.082l.02.03.027.028h.04l.015.024.047.008s.043.046.047.058.062.008.078.012q.03 0 .043.035c.004.02.027.055.027.055s.047.011.05.027l.024.05.04.032.003.04h.043l.012.05.07-.004.04-.027a.2.2 0 0 0 .09-.078c.003-.02.01-.079.05-.067.039.012.012-.09.012-.09s-.055-.039-.051-.058-.055-.059-.05-.078c.003-.012-.052-.047-.048-.063s-.027-.059-.027-.059l-.055-.054-.008-.04h-.046l-.094-.116.004-.032h-.028v-.047l-.027-.02h-.04l-.089-.097-.008-.043h-.039l.008-.082c.027-.039.012-.11.012-.11s-.055.028-.082.016c-.028-.011.011-.039.011-.039v-.03l-.023-.024s-.066.008-.07-.004l-.016-.063-.004-.066-.027-.012-.004-.027-.043.004v-.051l-.024-.008-.023-.012-.004-.046-.086-.004-.027-.04-.031-.046-.098-.008-.024-.024-.039-.007-.027-.012-.012.02h-.078v.027c-.039.02-.195 0-.195.015Zm.41-.11c-.008-.027.078-.058.098-.035s.074.027.078.152c.004.04-.066-.043-.066-.043l-.059-.02q-.046-.016-.05-.046Zm-1.144.055-.02-.012.016-.035.02.012Zm-.2-.399-.05-.05v-.04l-.016-.019-.015-.055-.051-.015-.051.02-.055.034-.058.008-.032.04.125.007.024.04.09.007.058.059c.051.023.063-.008.032-.036m-.008-.195c-.008-.031-.059.047-.008.063.05.015.101 0 .101 0l.012-.024.195.004c.016-.016.024-.039.024-.039s.047-.016.066-.008 0-.058-.015-.05c-.016.011-.059 0-.059 0h-.07c-.004-.024-.067-.012-.07 0-.004.023-.028.027-.028.027l-.09.008c-.008.023-.054.039-.058.023Zm-.387.68c.059.02.082 0 .086-.012q.001-.018.031-.023c.024-.004-.004-.051-.027-.047q-.04-.002-.05-.028c-.005-.023-.044-.078-.048-.039-.004.043-.027.043-.023.075.004.027.015.066.031.074m-.45.043c0-.016.079-.016.09-.004.012.012.005.031.04.031s.02.024.015.04c0 .007-.039.003-.047-.009 0-.011-.062-.015-.062-.015s-.031-.024-.035-.043m1.328-.86-.031.024-.02-.02-.02.02.036.035.008-.008.039-.031Zm-.215-.07-.027-.016-.012.02.031.02h.012l.043-.028-.012-.02Zm-.129.824-.039-.004v.024h.031l.024.039.02-.012-.028-.039ZM11.746 6.98l.004.043h.059c.023 0-.02-.027-.02-.027s-.047.004-.039-.016Zm.078 0 .012-.02.023.024-.015.016Zm-.71-.75.015-.015.023.023-.015.016Zm1.132 5.157-.039-.02-.012.02.024.011-.008.008.016.02.03-.031Zm-.305-.29-.015-.019-.024.02-.011.011.015.008.028.024.011-.024-.015-.012Zm2.899-.757c-.004-.02-.027-.027-.031-.031l-.008.023.008.004.004.02-.004.007.015.016q.023-.02.016-.04m.039-.077h-.04v-.04l.04.008Zm.898-.309c.02-.015.04-.035.04.016-.005.043-.024.027-.04.043-.011.015-.023-.043 0-.059m.2-.172-.008-.027-.02.012.004.015a.03.03 0 0 0 .008.02q.005.006.016 0l-.004-.02Zm-.051.02.015.047.02-.008-.012-.047Zm-.086.094h-.024c0 .015 0 .039.02.039l.008-.02Zm-.102-.473-.015-.02q-.03-.01-.059.016l.012.02q.029-.017.039-.016Zm-1.082-1.285c-.015.015-.05.023-.05.023l-.012.043-.016.02v.039c0 .027-.039.043-.039.043l-.016.02h-.105c-.04-.016-.012-.063.012-.06.023.005-.004-.066-.004-.066l.031-.004s0-.074.016-.074q.01-.005-.02-.039c-.015-.012-.039-.05-.05-.047h-.079l-.011.024-.043.007-.004.04c-.024.03-.118.093-.079-.008l.016-.028v-.035h-.07s-.04-.015-.04-.031v-.035l-.081-.09-.098-.016-.008-.02-.058-.007c-.07-.04-.133-.004-.118.059.008.058.028.082-.011.082-.04 0-.047-.032-.047-.032s-.031-.011-.031.004c0 .016-.012.047 0 .063.011.015-.016.039-.028.027-.011-.012-.039-.047-.035-.059.008-.011-.055-.085.008-.097.062-.012 0-.051.02-.059l.03-.015h.032l.02-.016-.051-.008-.032-.004-.058-.004a.17.17 0 0 0-.07.086c-.032.063-.106-.023-.079-.054.028-.032-.085-.004-.105.011-.02.016-.078.008-.078.008-.012.035-.067-.004-.05-.027.01-.024.019-.04.015-.04l-.02-.007-.023.047c-.051 0-.067.031-.059.05.012.024-.015-.003-.023.028-.008.027.008.027.027.039.023.012-.012.012.004.031.016.02.062 0 .039.028-.031.027-.082.015-.082.015-.004.04-.078.028-.086.016l-.066-.082-.079-.004c-.003-.059.04-.027.055-.074.016-.043.024-.118.024-.118s-.063 0-.067.016-.043.035-.043.035-.031.012-.02.028c.012.015-.023.023-.023.023s.004.023-.004.04c-.03.03-.109 0-.12-.013l-.048-.02-.046-.03-.055.023-.016.016h-.058l-.004.05.105.012.008.098-.043-.016h-.027l-.012-.023h-.023v.082l.023.02.02.019.039.004.007.05h.098l.012.028h.058l.114.117-.008.04-.02.007c.008.027-.05.012-.05.012v.023l.027.004.027.016.04-.067c.038-.027.062.012.066.04 0 .019-.02.015-.02.015v.059l.024.007c.039.051-.016.078-.016.078l-.012.04c-.011.035-.054.027-.054.027l-.016.023-.047.012.094.012c.011-.032.027-.04.039-.024.015.016.015.043.015.043l.024.004-.004.043.023.008v.133l.028.031c.047-.02.047.012.023.027-.023.016-.008.086-.008.086l-.02.02v.031l-.023.02v.046c-.039-.02-.085-.011-.097 0-.04-.023-.11-.015-.11 0 .024.036-.027.04-.027.04l-.027.035c.02.039-.02.043-.02.043V9.3l-.047.039v.11c0 .027.063.03.075.015.011-.016.058.031.058.031h.035l.008-.07-.023-.012v-.121l.039-.04c.047-.019.031.102.031.114 0 .047.023.04.039.031.04-.015.012.047-.02.04-.03 0-.011.039-.011.039l.02.011-.04.028-.027.035-.04-.012-.046-.004-.016-.027-.027-.004-.004.055-.02.023-.046.047c.062 0-.008.047-.024.047.035.011-.004.047-.094.02v.027l-.03.004.027.035h.03l-.01.07c0 .05-.13.016-.142 0v.078h-.027l.004.05v.067l.04-.007v.027l.105.004.152-.164.09-.02c.008-.039.047.008.047.008.039-.004.047.023.047.023l.05.008c.04.012.016.016.02.031 0 .028.023.02.023.02l.008-.055.024.004-.024-.027-.043-.02-.047-.02c-.031-.042.008-.038.04-.03h.05s.059.078.059.097.027.024.027.024h.035l.012.027h.035l.012.023h.07v-.039l-.062-.011-.004-.04-.047-.011c-.016-.066.012-.086.031-.055h.024l-.008-.054.027-.008-.008-.086-.023-.008v-.031l.097.004q-.004-.076 0-.075h.032v.02l.12.012.087-.098c-.004-.008.008-.012 0-.02-.016-.011-.032 0-.051-.011-.02-.012 0-.078 0-.098-.008-.016.062-.043.05 0-.011.031 0 .05 0 .05.052-.05.094 0 .09.017 0 .011.028.023.047.011.02-.011.043.035.04.059-.012.023-.079.02-.086-.004q-.006-.029-.024-.004-.02.025-.062.008l-.004-.008-.086.098h.004c.047.027.023.066.008.074-.016.008-.04.008-.04.008l-.011.015-.102.008-.008.04c-.047-.005-.066.05-.054.077.011.028 0 .051 0 .051l.039.02.058-.016c.008-.04.04-.047.07-.07.032-.024.083.039.067.074-.012.031-.02.047-.016.043l.004.043-.039.012-.031.015v.02h-.11l-.015.02-.05.003-.016.027h-.04s-.054.032-.03.063c.023.031-.098.027-.126-.016-.008.04-.05 0-.05 0l-.043-.007-.004-.059c-.008-.04-.082-.04-.079-.012 0 .028-.14.012-.14.012l-.047.02-.043.027-.004.02-.07.007-.031.016-.012-.024h-.031l-.032.04c-.078.007-.156.054-.152.078.008.02-.031.043-.031.043l-.035.007-.024.04-.047.011-.008.086-.023.016v.035l-.027.008v.02h-.04l.024.066.031.015c.055.008.032.078.032.078h.03l.016.043.032.067c.011.047.047.035.062.031.016-.004.031.05.031.05l.157.005s-.008.015.02.023a.8.8 0 0 0 .214.004c-.008-.035.098-.047.14-.012.04.032.102.012.102.012l.059.07.039.09.066.02.047.011.016.07h.035l.012.048c.039.03-.012.097-.012.097v.09l.031.016-.004.031.051.055h.059l.144.16.117.039.02.066.031-.004.024-.023.093-.004.047-.047.051-.008.43-.37-.04-.024v-.086c.075-.055.079-.149.012-.156-.05-.004-.027-.059.02-.067l.027-.011v-.036l.09-.086v-.062l-.195-.164c-.086-.031 0-.227.058-.223s-.004-.293-.004-.293l-.03-.015.007-.098h-.043l-.07.094-.02.062c-.008.082-.25.067-.261.055s-.094-.047-.094-.047-.063-.05-.074-.04c-.012.02-.067-.015-.067-.003s-.05-.031-.05-.031l-.079-.028.059-.011-.012-.047.102.05c.011.016.062.012.062.012l.016.02s.031 0 .05.02c.02.027.122.007.122.007l.027.024.043.015h.121l.004-.074.023-.023v-.047l.024-.028v-.039l.023-.007.004-.086.02-.004v-.196l-.059-.054c-.004.02-.066.02-.066.02s-.016.027-.028.027c-.011 0 .016.039.008.062-.008.02-.039.024-.039.024l-.058.015-.016.02h-.063l-.007-.051.07-.02.039-.023.02-.04c.003-.038.05-.034.05-.034s.09-.078.094-.11c.004-.039.035-.14.09-.14h.101c.04-.016.028-.067.028-.067l.05-.008.008.028s.07.008.079 0c.007-.016.023-.04.039-.031.023.011.085-.028.085-.028 0-.027.102-.015.102-.015l.012-.04s-.067-.093-.078-.093c-.012 0-.078-.055-.082-.035-.063-.016-.059-.102-.059-.102l-.023-.055c0-.03-.059-.097-.07-.09a.06.06 0 0 1-.032-.054c0-.02.012-.04.031-.05.016 0 .055-.06.055-.06l.02-.054.066-.02.008-.05-.04-.004s.04-.079.063-.079c.024 0 .149 0 .156-.007.016-.008.04-.07.04-.079 0-.015.03-.019.039-.023.015 0 .039-.035.05-.05.008-.016-.02-.122-.039-.102" style="stroke:none;fill-rule:nonzero;fill:#fff;fill-opacity:1"/><path d="M12.5 9.578c.004 0 .012.02.023.016.012-.004.02.023.004.023a.03.03 0 0 0-.007.02.1.1 0 0 1-.012.035q-.011.007-.028-.004t-.035-.008c-.011 0 0 .024 0 .024s-.062 0-.05-.012c.015-.008.02-.016.015-.016q-.006-.005 0-.027c.004-.016.027-.008.02-.016-.008-.008 0-.043.015-.023l.008-.02c-.008-.011 0-.011-.02-.02-.019-.007-.003-.038-.003-.038v-.028c.008-.027.066-.03.07-.004v.043l.02.008s-.004.016-.02.016 0 .008-.008.02l.008.015Zm-.195.031c.011-.015.03-.093.054-.07.024.024.04 0 .04 0s.011.012.003.04q-.006.034-.023.046-.017.005-.047.016c-.016 0-.023-.032-.023-.032Zm0 0" style="stroke:none;fill-rule:nonzero;fill:#fff;fill-opacity:1"/></svg>