<?xml version="1.0" encoding="UTF-8"?>
<svg xmlns="http://www.w3.org/2000/svg" xmlns:xlink="http://www.w3.org/1999/xlink" width="25px" height="px" viewBox="0 0 25 19" version="1.1">
<g id="surface1">
<rect x="0" y="0" width="25" height="19" style="fill:rgb(100%,100%,100%);fill-opacity:1;stroke:none;"/>
<path style=" stroke:none;fill-rule:nonzero;fill:rgb(0%,21.960784%,65.882355%);fill-opacity:1;" d="M 10.390625 2.109375 L 25 2.109375 L 25 4.222656 L 10.390625 4.222656 Z M 10.390625 6.332031 L 25 6.332031 L 25 8.441406 L 10.390625 8.441406 Z M 0 10.558594 L 25 10.558594 L 25 12.667969 L 0 12.667969 Z M 0 14.777344 L 25 14.777344 L 25 16.890625 L 0 16.890625 Z M 0 14.777344 "/>
<path style="fill-rule:nonzero;fill:rgb(98.823529%,81.960785%,8.627451%);fill-opacity:1;stroke-width:0.6;stroke-linecap:square;stroke-linejoin:miter;stroke:rgb(0%,0%,0%);stroke-opacity:1;stroke-miterlimit:20;" d="M -2.011367 8.889213 L 0.988636 13.397293 C -11.386377 22.413451 -3.886369 27.594378 -12.613651 30.386696 C -7.193191 25.205769 -13.500016 24.701133 -8.897738 13.599147 " transform="matrix(0.114583,0,0,0.116111,5.207031,5.276458)"/>
<path style="fill:none;stroke-width:0.6;stroke-linecap:butt;stroke-linejoin:miter;stroke:rgb(0%,0%,0%);stroke-opacity:1;stroke-miterlimit:20;" d="M -4.193188 10.201266 C -11.011377 21.40418 -6.613645 27.594378 -12.613651 30.487623 " transform="matrix(0.114583,0,0,0.116111,5.207031,5.276458)"/>
<path style="fill-rule:nonzero;fill:rgb(98.823529%,81.960785%,8.627451%);fill-opacity:1;stroke-width:0.6;stroke-linecap:butt;stroke-linejoin:miter;stroke:rgb(0%,0%,0%);stroke-opacity:1;stroke-miterlimit:20;" d="M -0.00000104037 0.00762457 L 6.000006 0.00762457 L -0.00000104037 33.010801 L -6.000008 0.00762457 L -0.00000104037 0.00762457 L -0.00000104037 33.010801 " transform="matrix(0.114583,0,0,0.116111,5.207031,5.276458)"/>
<path style="fill-rule:nonzero;fill:rgb(98.823529%,81.960785%,8.627451%);fill-opacity:1;stroke-width:0.6;stroke-linecap:square;stroke-linejoin:miter;stroke:rgb(0%,0%,0%);stroke-opacity:1;stroke-miterlimit:20;" d="M -1.993182 8.902704 L 0.994369 13.384823 C -11.39767 22.398859 -3.888987 27.593372 -12.600113 30.404885 C -7.201651 25.196734 -13.496156 24.687654 -8.896996 13.617953 " transform="matrix(0.0810226,0.0821029,-0.0810226,0.0821029,5.207031,5.276458)"/>
<path style="fill:none;stroke-width:0.6;stroke-linecap:butt;stroke-linejoin:miter;stroke:rgb(0%,0%,0%);stroke-opacity:1;stroke-miterlimit:20;" d="M -4.204902 10.210451 C -11.007852 21.390533 -6.594879 27.587345 -12.600747 30.500675 " transform="matrix(0.0810226,0.0821029,-0.0810226,0.0821029,5.207031,5.276458)"/>
<path style="fill-rule:nonzero;fill:rgb(98.823529%,81.960785%,8.627451%);fill-opacity:1;stroke-width:0.6;stroke-linecap:butt;stroke-linejoin:miter;stroke:rgb(0%,0%,0%);stroke-opacity:1;stroke-miterlimit:20;" d="M 0.00539065 0.00539212 L 5.991911 0.0136389 L 0.002536 32.979463 L -5.981129 -0.00285465 L 0.00539065 0.00539212 L 0.002536 32.979463 " transform="matrix(0.0810226,0.0821029,-0.0810226,0.0821029,5.207031,5.276458)"/>
<path style="fill-rule:nonzero;fill:rgb(98.823529%,81.960785%,8.627451%);fill-opacity:1;stroke-width:0.6;stroke-linecap:square;stroke-linejoin:miter;stroke:rgb(0%,0%,0%);stroke-opacity:1;stroke-miterlimit:20;" d="M -2.010918 8.897738 L 0.983254 13.397743 C -11.397143 22.397753 -3.894892 27.613668 -12.608269 30.409126 C -7.191845 25.193211 -13.516613 24.715938 -8.907607 13.602289 " transform="matrix(0.000000000000000007,0.116111,-0.114583,0.000000000000000007,5.207031,5.276458)"/>
<path style="fill:none;stroke-width:0.6;stroke-linecap:butt;stroke-linejoin:miter;stroke:rgb(0%,0%,0%);stroke-opacity:1;stroke-miterlimit:20;" d="M -4.197673 10.193194 C -10.993434 21.409116 -6.586282 27.613668 -12.608269 30.511399 " transform="matrix(0.000000000000000007,0.116111,-0.114583,0.000000000000000007,5.207031,5.276458)"/>
<path style="fill-rule:nonzero;fill:rgb(98.823529%,81.960785%,8.627451%);fill-opacity:1;stroke-width:0.6;stroke-linecap:butt;stroke-linejoin:miter;stroke:rgb(0%,0%,0%);stroke-opacity:1;stroke-miterlimit:20;" d="M 0.00762457 0.00000104037 L 5.995969 0.00000104037 L 0.00762457 33.000038 L -6.014362 0.00000104037 L 0.00762457 0.00000104037 L 0.00762457 33.000038 " transform="matrix(0.000000000000000007,0.116111,-0.114583,0.000000000000000007,5.207031,5.276458)"/>
<path style="fill-rule:nonzero;fill:rgb(98.823529%,81.960785%,8.627451%);fill-opacity:1;stroke-width:0.6;stroke-linecap:square;stroke-linejoin:miter;stroke:rgb(0%,0%,0%);stroke-opacity:1;stroke-miterlimit:20;" d="M -1.995084 8.889384 L 1.004203 13.411151 C -11.412259 22.40457 -3.882642 27.602889 -12.604552 30.394737 C -7.203235 25.186268 -13.504401 24.689559 -8.908414 13.584967 " transform="matrix(-0.0810226,0.0821029,-0.0810226,-0.0821029,5.207031,5.276458)"/>
<path style="fill:none;stroke-width:0.6;stroke-linecap:butt;stroke-linejoin:miter;stroke:rgb(0%,0%,0%);stroke-opacity:1;stroke-miterlimit:20;" d="M -4.213465 10.191739 C -10.987868 21.401636 -6.588534 27.608915 -12.603918 30.490526 " transform="matrix(-0.0810226,0.0821029,-0.0810226,-0.0821029,5.207031,5.276458)"/>
<path style="fill-rule:nonzero;fill:rgb(98.823529%,81.960785%,8.627451%);fill-opacity:1;stroke-width:0.6;stroke-linecap:butt;stroke-linejoin:miter;stroke:rgb(0%,0%,0%);stroke-opacity:1;stroke-miterlimit:20;" d="M 0.00539212 -0.00539065 L 5.991912 -0.0136374 L -0.015542 32.992469 L -5.981128 0.00285612 L 0.00539212 -0.00539065 L -0.015542 32.992469 " transform="matrix(-0.0810226,0.0821029,-0.0810226,-0.0821029,5.207031,5.276458)"/>
<path style="fill-rule:nonzero;fill:rgb(98.823529%,81.960785%,8.627451%);fill-opacity:1;stroke-width:0.6;stroke-linecap:square;stroke-linejoin:miter;stroke:rgb(0%,0%,0%);stroke-opacity:1;stroke-miterlimit:20;" d="M -2.011365 8.907607 L 0.988639 13.415686 C -11.386375 22.398202 -3.886367 27.612771 -12.613649 30.405089 C -7.193189 25.19052 -13.500014 24.685884 -8.897736 13.583898 " transform="matrix(-0.114583,0,0,-0.116111,5.207031,5.276458)"/>
<path style="fill:none;stroke-width:0.6;stroke-linecap:butt;stroke-linejoin:miter;stroke:rgb(0%,0%,0%);stroke-opacity:1;stroke-miterlimit:20;" d="M -4.193185 10.186017 C -11.011375 21.38893 -6.613643 27.612771 -12.613649 30.506016 " transform="matrix(-0.114583,0,0,-0.116111,5.207031,5.276458)"/>
<path style="fill-rule:nonzero;fill:rgb(98.823529%,81.960785%,8.627451%);fill-opacity:1;stroke-width:0.6;stroke-linecap:butt;stroke-linejoin:miter;stroke:rgb(0%,0%,0%);stroke-opacity:1;stroke-miterlimit:20;" d="M 0.00000104037 -0.00762457 L 6.000008 -0.00762457 L 0.00000104037 32.995552 L -6.000006 -0.00762457 L 0.00000104037 -0.00762457 L 0.00000104037 32.995552 " transform="matrix(-0.114583,0,0,-0.116111,5.207031,5.276458)"/>
<path style="fill-rule:nonzero;fill:rgb(98.823529%,81.960785%,8.627451%);fill-opacity:1;stroke-width:0.6;stroke-linecap:square;stroke-linejoin:miter;stroke:rgb(0%,0%,0%);stroke-opacity:1;stroke-miterlimit:20;" d="M -2.003963 8.89192 L 1.007376 13.397828 C -11.408452 22.388075 -3.899769 27.582587 -12.610894 30.394101 C -7.188644 25.209738 -13.483149 24.700659 -8.907778 13.607169 " transform="matrix(-0.0810226,-0.0821029,0.0810226,-0.0821029,5.207031,5.276458)"/>
<path style="fill:none;stroke-width:0.6;stroke-linecap:butt;stroke-linejoin:miter;stroke:rgb(0%,0%,0%);stroke-opacity:1;stroke-miterlimit:20;" d="M -4.215683 10.199667 C -10.994845 21.403537 -6.581872 27.60035 -12.611528 30.489891 " transform="matrix(-0.0810226,-0.0821029,0.0810226,-0.0821029,5.207031,5.276458)"/>
<path style="fill-rule:nonzero;fill:rgb(98.823529%,81.960785%,8.627451%);fill-opacity:1;stroke-width:0.6;stroke-linecap:butt;stroke-linejoin:miter;stroke:rgb(0%,0%,0%);stroke-opacity:1;stroke-miterlimit:20;" d="M -0.00539065 -0.00539212 L 5.981129 0.00285465 L 0.0155435 32.992468 L -5.991911 -0.0136389 L -0.00539065 -0.00539212 L 0.0155435 32.992468 " transform="matrix(-0.0810226,-0.0821029,0.0810226,-0.0821029,5.207031,5.276458)"/>
<path style="fill-rule:nonzero;fill:rgb(98.823529%,81.960785%,8.627451%);fill-opacity:1;stroke-width:0.6;stroke-linecap:square;stroke-linejoin:miter;stroke:rgb(0%,0%,0%);stroke-opacity:1;stroke-miterlimit:20;" d="M -1.992525 8.897736 L 1.001647 13.397741 C -11.412392 22.397751 -3.910141 27.613666 -12.589875 30.409124 C -7.207094 25.193209 -13.49822 24.715936 -8.889213 13.602287 " transform="matrix(-0.000000000000000007,-0.116111,0.114583,-0.000000000000000007,5.207031,5.276458)"/>
<path style="fill:none;stroke-width:0.6;stroke-linecap:butt;stroke-linejoin:miter;stroke:rgb(0%,0%,0%);stroke-opacity:1;stroke-miterlimit:20;" d="M -4.212922 10.193192 C -11.008683 21.409114 -6.601531 27.613666 -12.589875 30.511397 " transform="matrix(-0.000000000000000007,-0.116111,0.114583,-0.000000000000000007,5.207031,5.276458)"/>
<path style="fill-rule:nonzero;fill:rgb(98.823529%,81.960785%,8.627451%);fill-opacity:1;stroke-width:0.6;stroke-linecap:butt;stroke-linejoin:miter;stroke:rgb(0%,0%,0%);stroke-opacity:1;stroke-miterlimit:20;" d="M -0.00762457 -0.00000104037 L 6.014362 -0.00000104037 L -0.00762457 33.000036 L -5.995969 -0.00000104037 L -0.00762457 -0.00000104037 L -0.00762457 33.000036 " transform="matrix(-0.000000000000000007,-0.116111,0.114583,-0.000000000000000007,5.207031,5.276458)"/>
<path style="fill-rule:nonzero;fill:rgb(98.823529%,81.960785%,8.627451%);fill-opacity:1;stroke-width:0.6;stroke-linecap:square;stroke-linejoin:miter;stroke:rgb(0%,0%,0%);stroke-opacity:1;stroke-miterlimit:20;" d="M -2.005868 8.900165 L 1.017207 13.398143 C -11.399255 22.391562 -3.893426 27.61367 -12.615336 30.405518 C -7.21402 25.197049 -13.515186 24.70034 -8.919198 13.595749 " transform="matrix(0.0810226,-0.0821029,0.0810226,0.0821029,5.207031,5.276458)"/>
<path style="fill:none;stroke-width:0.6;stroke-linecap:butt;stroke-linejoin:miter;stroke:rgb(0%,0%,0%);stroke-opacity:1;stroke-miterlimit:20;" d="M -4.20046 10.178732 C -10.998652 21.412417 -6.599318 27.619696 -12.614702 30.501308 " transform="matrix(0.0810226,-0.0821029,0.0810226,0.0821029,5.207031,5.276458)"/>
<path style="fill-rule:nonzero;fill:rgb(98.823529%,81.960785%,8.627451%);fill-opacity:1;stroke-width:0.6;stroke-linecap:butt;stroke-linejoin:miter;stroke:rgb(0%,0%,0%);stroke-opacity:1;stroke-miterlimit:20;" d="M -0.00539212 0.00539065 L 5.981128 -0.00285612 L -0.00253747 32.979462 L -5.991912 0.0136374 L -0.00539212 0.00539065 L -0.00253747 32.979462 " transform="matrix(0.0810226,-0.0821029,0.0810226,0.0821029,5.207031,5.276458)"/>
<path style="fill-rule:nonzero;fill:rgb(98.823529%,81.960785%,8.627451%);fill-opacity:1;stroke-width:0.6;stroke-linecap:butt;stroke-linejoin:miter;stroke:rgb(0%,0%,0%);stroke-opacity:1;stroke-miterlimit:20;" d="M 11.011375 0.00762457 C 11.011375 -6.081647 6.068188 -10.993434 -0.00000104037 -10.993434 C -6.06819 -10.993434 -11.011377 -6.081647 -11.011377 0.00762457 C -11.011377 6.063253 -6.06819 11.008683 -0.00000104037 11.008683 C 6.068188 11.008683 11.011375 6.063253 11.011375 0.00762457 Z M 11.011375 0.00762457 " transform="matrix(0.114583,0,0,0.116111,5.207031,5.276458)"/>
<path style=" stroke:none;fill-rule:nonzero;fill:rgb(0%,0%,0%);fill-opacity:1;" d="M 6.136719 4.765625 C 6.054688 4.859375 6.007812 4.695312 5.722656 4.695312 C 5.4375 4.695312 5.390625 4.871094 5.34375 4.835938 C 5.296875 4.800781 5.585938 4.589844 5.675781 4.578125 C 5.769531 4.566406 6.03125 4.660156 6.136719 4.765625 M 5.804688 4.871094 C 5.882812 4.941406 5.8125 5.089844 5.734375 5.089844 C 5.652344 5.089844 5.503906 4.953125 5.574219 4.859375 "/>
<path style=" stroke:none;fill-rule:nonzero;fill:rgb(0%,0%,0%);fill-opacity:1;" d="M 5.425781 4.972656 C 5.4375 4.835938 5.550781 4.8125 5.734375 4.8125 C 5.917969 4.8125 5.996094 4.953125 6.066406 4.984375 C 5.984375 4.984375 5.917969 4.871094 5.734375 4.871094 C 5.550781 4.871094 5.550781 4.871094 5.425781 4.984375 M 5.460938 5.007812 C 5.503906 4.941406 5.5625 5.078125 5.6875 5.078125 C 5.8125 5.078125 5.882812 5.042969 5.964844 4.984375 C 6.042969 4.929688 5.847656 5.125 5.722656 5.125 C 5.597656 5.125 5.425781 5.054688 5.460938 5.007812 "/>
<path style=" stroke:none;fill-rule:nonzero;fill:rgb(0%,0%,0%);fill-opacity:1;" d="M 5.847656 5.078125 C 5.996094 4.996094 5.90625 4.882812 5.847656 4.859375 C 5.871094 4.882812 5.964844 4.996094 5.847656 5.078125 M 5.207031 5.777344 C 5.277344 5.777344 5.296875 5.753906 5.390625 5.753906 C 5.480469 5.753906 5.699219 5.878906 5.824219 5.832031 C 5.5625 5.9375 5.664062 5.867188 5.207031 5.867188 L 5.148438 5.867188 M 5.871094 5.9375 C 5.824219 5.855469 5.835938 5.878906 5.746094 5.753906 C 5.835938 5.820312 5.859375 5.855469 5.871094 5.9375 M 5.207031 6.054688 C 5.492188 6.054688 5.449219 5.996094 5.824219 5.832031 C 5.550781 5.867188 5.492188 5.960938 5.207031 5.960938 L 5.148438 5.960938 M 5.207031 5.625 C 5.289062 5.625 5.308594 5.566406 5.402344 5.566406 C 5.492188 5.566406 5.621094 5.601562 5.675781 5.648438 C 5.6875 5.660156 5.640625 5.554688 5.550781 5.542969 C 5.460938 5.53125 5.492188 5.382812 5.390625 5.359375 C 5.390625 5.402344 5.425781 5.390625 5.4375 5.460938 C 5.4375 5.519531 5.332031 5.519531 5.308594 5.460938 C 5.332031 5.554688 5.265625 5.554688 5.207031 5.554688 "/>
<path style=" stroke:none;fill-rule:nonzero;fill:rgb(0%,0%,0%);fill-opacity:1;" d="M 4.277344 4.765625 C 4.359375 4.859375 4.40625 4.695312 4.691406 4.695312 C 4.976562 4.695312 5.023438 4.871094 5.070312 4.835938 C 5.117188 4.800781 4.828125 4.589844 4.738281 4.578125 C 4.644531 4.566406 4.382812 4.660156 4.277344 4.765625 M 4.609375 4.871094 C 4.53125 4.941406 4.601562 5.089844 4.679688 5.089844 C 4.761719 5.089844 4.910156 4.953125 4.839844 4.859375 "/>
<path style=" stroke:none;fill-rule:nonzero;fill:rgb(0%,0%,0%);fill-opacity:1;" d="M 4.988281 4.972656 C 4.976562 4.835938 4.863281 4.8125 4.679688 4.8125 C 4.496094 4.8125 4.417969 4.953125 4.347656 4.984375 C 4.429688 4.984375 4.496094 4.871094 4.679688 4.871094 C 4.863281 4.871094 4.863281 4.871094 4.988281 4.984375 M 4.953125 5.007812 C 4.910156 4.941406 4.851562 5.078125 4.726562 5.078125 C 4.601562 5.078125 4.53125 5.042969 4.449219 4.984375 C 4.371094 4.929688 4.566406 5.125 4.691406 5.125 C 4.816406 5.125 4.988281 5.054688 4.953125 5.007812 "/>
<path style=" stroke:none;fill-rule:nonzero;fill:rgb(0%,0%,0%);fill-opacity:1;" d="M 4.566406 5.078125 C 4.417969 4.996094 4.507812 4.882812 4.566406 4.859375 C 4.542969 4.882812 4.449219 4.996094 4.566406 5.078125 M 5.207031 5.777344 C 5.136719 5.777344 5.117188 5.753906 5.023438 5.753906 C 4.933594 5.753906 4.714844 5.878906 4.589844 5.832031 C 4.851562 5.9375 4.75 5.867188 5.207031 5.867188 L 5.265625 5.867188 M 4.542969 5.9375 C 4.589844 5.855469 4.578125 5.878906 4.667969 5.753906 C 4.578125 5.820312 4.554688 5.855469 4.542969 5.9375 M 5.207031 6.054688 C 4.921875 6.054688 4.964844 5.996094 4.589844 5.832031 C 4.863281 5.867188 4.921875 5.960938 5.207031 5.960938 L 5.265625 5.960938 M 5.207031 5.625 C 5.125 5.625 5.105469 5.566406 5.011719 5.566406 C 4.921875 5.566406 4.792969 5.601562 4.738281 5.648438 C 4.726562 5.660156 4.773438 5.554688 4.863281 5.542969 C 4.953125 5.53125 4.921875 5.382812 5.023438 5.359375 C 5.023438 5.402344 4.988281 5.390625 4.976562 5.460938 C 4.976562 5.519531 5.082031 5.519531 5.105469 5.460938 C 5.082031 5.554688 5.148438 5.554688 5.207031 5.554688 "/>
<path style=" stroke:none;fill-rule:nonzero;fill:rgb(0%,0%,0%);fill-opacity:1;" d="M 5.207031 6.160156 C 5.148438 6.160156 5 6.195312 5.207031 6.195312 C 5.414062 6.195312 5.265625 6.160156 5.207031 6.160156 "/>
</g>
</svg>
