<svg xmlns="http://www.w3.org/2000/svg" width="25" height="px" viewBox="0 0 25 19"><path d="M0 0h25v19H0z" style="fill:#fff;fill-opacity:1;stroke:none"/><path d="M10.39 2.11H25v2.113H10.39Zm0 4.222H25v2.11H10.39ZM0 10.559h25v2.109H0Zm0 4.218h25v2.114H0Zm0 0" style="stroke:none;fill-rule:nonzero;fill:#0038a8;fill-opacity:1"/><path d="m-2.011 8.89 3 4.507c-12.375 9.016-4.875 14.197-13.603 16.99 5.42-5.181-.886-5.686 3.716-16.788" style="fill-rule:nonzero;fill:#fcd116;fill-opacity:1;stroke-width:.6;stroke-linecap:square;stroke-linejoin:miter;stroke:#000;stroke-opacity:1;stroke-miterlimit:20" transform="matrix(.11458 0 0 .11611 5.207 5.276)"/><path d="M-4.193 10.201c-6.818 11.203-2.42 17.393-8.42 20.287" style="fill:none;stroke-width:.6;stroke-linecap:butt;stroke-linejoin:miter;stroke:#000;stroke-opacity:1;stroke-miterlimit:20" transform="matrix(.11458 0 0 .11611 5.207 5.276)"/><path d="M0 .008h6L0 33.01-6 .008h6V33.01" style="fill-rule:nonzero;fill:#fcd116;fill-opacity:1;stroke-width:.6;stroke-linecap:butt;stroke-linejoin:miter;stroke:#000;stroke-opacity:1;stroke-miterlimit:20" transform="matrix(.11458 0 0 .11611 5.207 5.276)"/><path d="m-1.993 8.903 2.987 4.482c-12.392 9.014-4.883 14.208-13.594 17.02 5.398-5.208-.896-5.717 3.703-16.787" style="fill-rule:nonzero;fill:#fcd116;fill-opacity:1;stroke-width:.6;stroke-linecap:square;stroke-linejoin:miter;stroke:#000;stroke-opacity:1;stroke-miterlimit:20" transform="matrix(.08102 .0821 -.08102 .0821 5.207 5.276)"/><path d="M-4.205 10.21c-6.803 11.18-2.39 17.377-8.396 20.29" style="fill:none;stroke-width:.6;stroke-linecap:butt;stroke-linejoin:miter;stroke:#000;stroke-opacity:1;stroke-miterlimit:20" transform="matrix(.08102 .0821 -.08102 .0821 5.207 5.276)"/><path d="m.005.005 5.987.009-5.99 32.965L-5.98-.003.005.005.003 32.98" style="fill-rule:nonzero;fill:#fcd116;fill-opacity:1;stroke-width:.6;stroke-linecap:butt;stroke-linejoin:miter;stroke:#000;stroke-opacity:1;stroke-miterlimit:20" transform="matrix(.08102 .0821 -.08102 .0821 5.207 5.276)"/><path d="m-2.01 8.898 2.993 4.5c-12.38 9-4.878 14.216-13.591 17.011 5.416-5.216-.909-5.693 3.7-16.807" style="fill-rule:nonzero;fill:#fcd116;fill-opacity:1;stroke-width:.6;stroke-linecap:square;stroke-linejoin:miter;stroke:#000;stroke-opacity:1;stroke-miterlimit:20" transform="matrix(0 .11611 -.11458 0 5.207 5.276)"/><path d="M-4.198 10.193c-6.795 11.216-2.388 17.42-8.41 20.318" style="fill:none;stroke-width:.6;stroke-linecap:butt;stroke-linejoin:miter;stroke:#000;stroke-opacity:1;stroke-miterlimit:20" transform="matrix(0 .11611 -.11458 0 5.207 5.276)"/><path d="M.008 0h5.988L.008 33-6.014 0H.008v33" style="fill-rule:nonzero;fill:#fcd116;fill-opacity:1;stroke-width:.6;stroke-linecap:butt;stroke-linejoin:miter;stroke:#000;stroke-opacity:1;stroke-miterlimit:20" transform="matrix(0 .11611 -.11458 0 5.207 5.276)"/><path d="m-1.995 8.89 3 4.521c-12.417 8.994-4.888 14.192-13.61 16.984 5.402-5.209-.9-5.705 3.697-16.81" style="fill-rule:nonzero;fill:#fcd116;fill-opacity:1;stroke-width:.6;stroke-linecap:square;stroke-linejoin:miter;stroke:#000;stroke-opacity:1;stroke-miterlimit:20" transform="matrix(-.08102 .0821 -.08102 -.0821 5.207 5.276)"/><path d="M-4.213 10.192c-6.775 11.21-2.376 17.417-8.39 20.299" style="fill:none;stroke-width:.6;stroke-linecap:butt;stroke-linejoin:miter;stroke:#000;stroke-opacity:1;stroke-miterlimit:20" transform="matrix(-.08102 .0821 -.08102 -.0821 5.207 5.276)"/><path d="m.005-.005 5.987-.009-6.008 33.006L-5.98.002.005-.004l-.02 32.997" style="fill-rule:nonzero;fill:#fcd116;fill-opacity:1;stroke-width:.6;stroke-linecap:butt;stroke-linejoin:miter;stroke:#000;stroke-opacity:1;stroke-miterlimit:20" transform="matrix(-.08102 .0821 -.08102 -.0821 5.207 5.276)"/><path d="m-2.011 8.908 3 4.508c-12.375 8.982-4.875 14.197-13.603 16.99 5.42-5.215-.886-5.72 3.716-16.822" style="fill-rule:nonzero;fill:#fcd116;fill-opacity:1;stroke-width:.6;stroke-linecap:square;stroke-linejoin:miter;stroke:#000;stroke-opacity:1;stroke-miterlimit:20" transform="matrix(-.11458 0 0 -.11611 5.207 5.276)"/><path d="M-4.193 10.186c-6.818 11.203-2.42 17.427-8.42 20.32" style="fill:none;stroke-width:.6;stroke-linecap:butt;stroke-linejoin:miter;stroke:#000;stroke-opacity:1;stroke-miterlimit:20" transform="matrix(-.11458 0 0 -.11611 5.207 5.276)"/><path d="M0-.008h6L0 32.996-6-.008h6v33.004" style="fill-rule:nonzero;fill:#fcd116;fill-opacity:1;stroke-width:.6;stroke-linecap:butt;stroke-linejoin:miter;stroke:#000;stroke-opacity:1;stroke-miterlimit:20" transform="matrix(-.11458 0 0 -.11611 5.207 5.276)"/><path d="m-2.004 8.892 3.011 4.506C-11.408 22.388-3.9 27.583-12.61 30.394c5.422-5.184-.872-5.693 3.703-16.787" style="fill-rule:nonzero;fill:#fcd116;fill-opacity:1;stroke-width:.6;stroke-linecap:square;stroke-linejoin:miter;stroke:#000;stroke-opacity:1;stroke-miterlimit:20" transform="matrix(-.08102 -.0821 .08102 -.0821 5.207 5.276)"/><path d="M-4.216 10.2c-6.779 11.204-2.366 17.4-8.396 20.29" style="fill:none;stroke-width:.6;stroke-linecap:butt;stroke-linejoin:miter;stroke:#000;stroke-opacity:1;stroke-miterlimit:20" transform="matrix(-.08102 -.0821 .08102 -.0821 5.207 5.276)"/><path d="M-.005-.005 5.98.003.016 32.993-5.992-.015l5.987.009.02 32.997" style="fill-rule:nonzero;fill:#fcd116;fill-opacity:1;stroke-width:.6;stroke-linecap:butt;stroke-linejoin:miter;stroke:#000;stroke-opacity:1;stroke-miterlimit:20" transform="matrix(-.08102 -.0821 .08102 -.0821 5.207 5.276)"/><path d="m-1.993 8.898 2.995 4.5c-12.414 9-4.912 14.216-13.592 17.011 5.383-5.216-.908-5.693 3.7-16.807" style="fill-rule:nonzero;fill:#fcd116;fill-opacity:1;stroke-width:.6;stroke-linecap:square;stroke-linejoin:miter;stroke:#000;stroke-opacity:1;stroke-miterlimit:20" transform="matrix(0 -.11611 .11458 0 5.207 5.276)"/><path d="M-4.213 10.193c-6.796 11.216-2.389 17.42-8.377 20.318" style="fill:none;stroke-width:.6;stroke-linecap:butt;stroke-linejoin:miter;stroke:#000;stroke-opacity:1;stroke-miterlimit:20" transform="matrix(0 -.11611 .11458 0 5.207 5.276)"/><path d="M-.008 0h6.022L-.008 33-5.996 0h5.988v33" style="fill-rule:nonzero;fill:#fcd116;fill-opacity:1;stroke-width:.6;stroke-linecap:butt;stroke-linejoin:miter;stroke:#000;stroke-opacity:1;stroke-miterlimit:20" transform="matrix(0 -.11611 .11458 0 5.207 5.276)"/><path d="m-2.006 8.9 3.023 4.498c-12.416 8.994-4.91 14.216-13.632 17.008 5.401-5.209-.9-5.706 3.696-16.81" style="fill-rule:nonzero;fill:#fcd116;fill-opacity:1;stroke-width:.6;stroke-linecap:square;stroke-linejoin:miter;stroke:#000;stroke-opacity:1;stroke-miterlimit:20" transform="matrix(.08102 -.0821 .08102 .0821 5.207 5.276)"/><path d="M-4.2 10.179C-11 21.412-6.6 27.619-12.615 30.5" style="fill:none;stroke-width:.6;stroke-linecap:butt;stroke-linejoin:miter;stroke:#000;stroke-opacity:1;stroke-miterlimit:20" transform="matrix(.08102 -.0821 .08102 .0821 5.207 5.276)"/><path d="M-.005.005 5.98-.003-.003 32.98-5.992.014-.005.005l.002 32.974" style="fill-rule:nonzero;fill:#fcd116;fill-opacity:1;stroke-width:.6;stroke-linecap:butt;stroke-linejoin:miter;stroke:#000;stroke-opacity:1;stroke-miterlimit:20" transform="matrix(.08102 -.0821 .08102 .0821 5.207 5.276)"/><path d="M11.011.008c0-6.09-4.943-11.001-11.011-11.001s-11.011 4.911-11.011 11C-11.011 6.064-6.068 11.01 0 11.01S11.011 6.063 11.011.008Zm0 0" style="fill-rule:nonzero;fill:#fcd116;fill-opacity:1;stroke-width:.6;stroke-linecap:butt;stroke-linejoin:miter;stroke:#000;stroke-opacity:1;stroke-miterlimit:20" transform="matrix(.11458 0 0 .11611 5.207 5.276)"/><path d="M6.137 4.766c-.082.093-.13-.07-.414-.07-.285 0-.332.175-.38.14-.046-.035.243-.246.333-.258.094-.012.355.082.46.188m-.331.105c.078.07.008.219-.07.219-.083 0-.231-.137-.16-.23" style="stroke:none;fill-rule:nonzero;fill:#000;fill-opacity:1"/><path d="M5.426 4.973c.011-.137.125-.16.308-.16.184 0 .262.14.332.171-.082 0-.148-.113-.332-.113-.183 0-.183 0-.308.113m.035.024c.043-.067.101.07.226.07a.42.42 0 0 0 .278-.094c.078-.054-.117.141-.242.141s-.297-.07-.262-.117" style="stroke:none;fill-rule:nonzero;fill:#000;fill-opacity:1"/><path d="M5.848 5.078c.148-.082.058-.195 0-.219.023.024.117.137 0 .22m-.641.698c.07 0 .09-.023.184-.023.09 0 .308.125.433.078-.261.106-.16.035-.617.035h-.059m.723.07c-.047-.082-.035-.058-.125-.183.09.066.113.101.125.184m-.664.117c.285 0 .242-.059.617-.223-.273.035-.332.129-.617.129h-.059m.059-.336c.082 0 .102-.059.195-.059.09 0 .22.036.274.082.011.012-.035-.093-.125-.105s-.059-.16-.16-.184c0 .043.035.032.046.102 0 .059-.105.059-.128 0 .023.094-.043.094-.102.094M4.277 4.766c.082.093.13-.07.414-.07.286 0 .332.175.38.14.046-.035-.243-.246-.333-.258-.093-.012-.355.082-.46.188m.331.105c-.078.07-.007.219.07.219.083 0 .231-.137.16-.23" style="stroke:none;fill-rule:nonzero;fill:#000;fill-opacity:1"/><path d="M4.988 4.973c-.011-.137-.125-.16-.308-.16-.184 0-.262.14-.332.171.082 0 .148-.113.332-.113.183 0 .183 0 .308.113m-.035.024c-.043-.067-.101.07-.226.07a.42.42 0 0 1-.278-.094c-.078-.054.117.141.242.141s.297-.07.262-.117" style="stroke:none;fill-rule:nonzero;fill:#000;fill-opacity:1"/><path d="M4.566 5.078c-.148-.082-.058-.195 0-.219-.023.024-.117.137 0 .22m.641.698c-.07 0-.09-.023-.184-.023-.09 0-.308.125-.433.078.262.106.16.035.617.035h.059m-.723.07c.047-.082.035-.058.125-.183-.09.066-.113.101-.125.184m.664.117c-.285 0-.242-.059-.617-.223.273.035.332.129.617.129h.059m-.059-.336c-.082 0-.102-.059-.195-.059a.5.5 0 0 0-.274.082c-.011.012.035-.093.125-.105s.059-.16.16-.184c0 .043-.035.032-.046.102 0 .059.105.059.128 0-.023.094.043.094.102.094M5.207 6.16c-.059 0-.207.035 0 .035s.059-.035 0-.035" style="stroke:none;fill-rule:nonzero;fill:#000;fill-opacity:1"/></svg>