<?xml version="1.0" encoding="UTF-8"?>
<svg xmlns="http://www.w3.org/2000/svg" xmlns:xlink="http://www.w3.org/1999/xlink" width="25px" height="px" viewBox="0 0 25 19" version="1.1">
<g id="surface1">
<path style=" stroke:none;fill-rule:nonzero;fill:rgb(11.764706%,70.980394%,22.745098%);fill-opacity:1;" d="M 0 12.667969 L 25 12.667969 L 25 19 L 0 19 Z M 0 12.667969 "/>
<path style=" stroke:none;fill-rule:nonzero;fill:rgb(0%,60.000002%,70.980394%);fill-opacity:1;" d="M 0 0 L 25 0 L 25 6.332031 L 0 6.332031 Z M 0 0 "/>
<path style=" stroke:none;fill-rule:nonzero;fill:rgb(80.784315%,6.666667%,14.901961%);fill-opacity:1;" d="M 0 6.078125 L 25 6.078125 L 25 12.921875 L 0 12.921875 Z M 0 6.078125 "/>
<path style=" stroke:none;fill-rule:nonzero;fill:rgb(100%,100%,100%);fill-opacity:1;" d="M 0 6.460938 L 25 6.460938 L 25 12.539062 L 0 12.539062 Z M 0 6.460938 "/>
<path style=" stroke:none;fill-rule:nonzero;fill:rgb(100%,100%,100%);fill-opacity:1;" d="M 7.5 3.039062 C 7.5 1.78125 6.492188 0.761719 5.25 0.761719 C 4.007812 0.761719 3 1.78125 3 3.039062 C 3 4.300781 4.007812 5.320312 5.25 5.320312 C 6.492188 5.320312 7.5 4.300781 7.5 3.039062 Z M 7.5 3.039062 "/>
<path style=" stroke:none;fill-rule:nonzero;fill:rgb(0%,60.000002%,70.980394%);fill-opacity:1;" d="M 8.25 3.039062 C 8.25 1.78125 7.242188 0.761719 6 0.761719 C 4.757812 0.761719 3.75 1.78125 3.75 3.039062 C 3.75 4.300781 4.757812 5.320312 6 5.320312 C 7.242188 5.320312 8.25 4.300781 8.25 3.039062 Z M 8.25 3.039062 "/>
<path style=" stroke:none;fill-rule:nonzero;fill:rgb(100%,100%,100%);fill-opacity:1;" d="M 10.199219 4.410156 L 10.058594 4.84375 L 10.273438 4.917969 "/>
<path style=" stroke:none;fill-rule:nonzero;fill:rgb(100%,100%,100%);fill-opacity:1;" d="M 10.199219 4.410156 L 10.339844 4.84375 L 10.125 4.917969 "/>
<path style=" stroke:none;fill-rule:nonzero;fill:rgb(100%,100%,100%);fill-opacity:1;" d="M 10.628906 4.722656 L 10.175781 4.71875 L 10.171875 4.953125 "/>
<path style=" stroke:none;fill-rule:nonzero;fill:rgb(100%,100%,100%);fill-opacity:1;" d="M 10.628906 4.722656 L 10.265625 4.996094 L 10.125 4.808594 "/>
<path style=" stroke:none;fill-rule:nonzero;fill:rgb(100%,100%,100%);fill-opacity:1;" d="M 9.769531 4.722656 L 10.132812 4.996094 L 10.273438 4.808594 "/>
<path style=" stroke:none;fill-rule:nonzero;fill:rgb(100%,100%,100%);fill-opacity:1;" d="M 9.769531 4.722656 L 10.222656 4.71875 L 10.226562 4.953125 "/>
<path style=" stroke:none;fill-rule:nonzero;fill:rgb(100%,100%,100%);fill-opacity:1;" d="M 10.464844 5.234375 L 10.328125 4.796875 L 10.109375 4.867188 "/>
<path style=" stroke:none;fill-rule:nonzero;fill:rgb(100%,100%,100%);fill-opacity:1;" d="M 10.464844 5.234375 L 10.097656 4.96875 L 10.230469 4.777344 "/>
<path style=" stroke:none;fill-rule:nonzero;fill:rgb(100%,100%,100%);fill-opacity:1;" d="M 9.933594 5.234375 L 10.300781 4.96875 L 10.167969 4.777344 "/>
<path style=" stroke:none;fill-rule:nonzero;fill:rgb(100%,100%,100%);fill-opacity:1;" d="M 9.933594 5.234375 L 10.070312 4.796875 L 10.289062 4.867188 "/>
<path style=" stroke:none;fill-rule:nonzero;fill:rgb(100%,100%,100%);fill-opacity:1;" d="M 10.199219 2.585938 L 10.058594 3.019531 L 10.273438 3.09375 "/>
<path style=" stroke:none;fill-rule:nonzero;fill:rgb(100%,100%,100%);fill-opacity:1;" d="M 10.199219 2.585938 L 10.339844 3.019531 L 10.125 3.09375 "/>
<path style=" stroke:none;fill-rule:nonzero;fill:rgb(100%,100%,100%);fill-opacity:1;" d="M 10.628906 2.898438 L 10.175781 2.894531 L 10.171875 3.128906 "/>
<path style=" stroke:none;fill-rule:nonzero;fill:rgb(100%,100%,100%);fill-opacity:1;" d="M 10.628906 2.898438 L 10.265625 3.171875 L 10.125 2.984375 "/>
<path style=" stroke:none;fill-rule:nonzero;fill:rgb(100%,100%,100%);fill-opacity:1;" d="M 9.769531 2.898438 L 10.132812 3.171875 L 10.273438 2.984375 "/>
<path style=" stroke:none;fill-rule:nonzero;fill:rgb(100%,100%,100%);fill-opacity:1;" d="M 9.769531 2.898438 L 10.222656 2.894531 L 10.226562 3.128906 "/>
<path style=" stroke:none;fill-rule:nonzero;fill:rgb(100%,100%,100%);fill-opacity:1;" d="M 10.464844 3.410156 L 10.328125 2.972656 L 10.109375 3.042969 "/>
<path style=" stroke:none;fill-rule:nonzero;fill:rgb(100%,100%,100%);fill-opacity:1;" d="M 10.464844 3.410156 L 10.097656 3.144531 L 10.230469 2.953125 "/>
<path style=" stroke:none;fill-rule:nonzero;fill:rgb(100%,100%,100%);fill-opacity:1;" d="M 9.933594 3.410156 L 10.300781 3.144531 L 10.167969 2.953125 "/>
<path style=" stroke:none;fill-rule:nonzero;fill:rgb(100%,100%,100%);fill-opacity:1;" d="M 9.933594 3.410156 L 10.070312 2.972656 L 10.289062 3.042969 "/>
<path style=" stroke:none;fill-rule:nonzero;fill:rgb(100%,100%,100%);fill-opacity:1;" d="M 10.199219 0.761719 L 10.058594 1.195312 L 10.273438 1.269531 "/>
<path style=" stroke:none;fill-rule:nonzero;fill:rgb(100%,100%,100%);fill-opacity:1;" d="M 10.199219 0.761719 L 10.339844 1.195312 L 10.125 1.269531 "/>
<path style=" stroke:none;fill-rule:nonzero;fill:rgb(100%,100%,100%);fill-opacity:1;" d="M 10.628906 1.074219 L 10.175781 1.074219 L 10.171875 1.304688 "/>
<path style=" stroke:none;fill-rule:nonzero;fill:rgb(100%,100%,100%);fill-opacity:1;" d="M 10.628906 1.074219 L 10.265625 1.347656 L 10.125 1.160156 "/>
<path style=" stroke:none;fill-rule:nonzero;fill:rgb(100%,100%,100%);fill-opacity:1;" d="M 9.769531 1.074219 L 10.132812 1.347656 L 10.273438 1.160156 "/>
<path style=" stroke:none;fill-rule:nonzero;fill:rgb(100%,100%,100%);fill-opacity:1;" d="M 9.769531 1.074219 L 10.222656 1.074219 L 10.226562 1.304688 "/>
<path style=" stroke:none;fill-rule:nonzero;fill:rgb(100%,100%,100%);fill-opacity:1;" d="M 10.464844 1.585938 L 10.328125 1.148438 L 10.109375 1.21875 "/>
<path style=" stroke:none;fill-rule:nonzero;fill:rgb(100%,100%,100%);fill-opacity:1;" d="M 10.464844 1.585938 L 10.097656 1.320312 L 10.230469 1.128906 "/>
<path style=" stroke:none;fill-rule:nonzero;fill:rgb(100%,100%,100%);fill-opacity:1;" d="M 9.933594 1.585938 L 10.300781 1.320312 L 10.167969 1.128906 "/>
<path style=" stroke:none;fill-rule:nonzero;fill:rgb(100%,100%,100%);fill-opacity:1;" d="M 9.933594 1.585938 L 10.070312 1.148438 L 10.289062 1.21875 "/>
<path style=" stroke:none;fill-rule:nonzero;fill:rgb(100%,100%,100%);fill-opacity:1;" d="M 12 4.410156 L 11.855469 4.84375 L 12.074219 4.917969 "/>
<path style=" stroke:none;fill-rule:nonzero;fill:rgb(100%,100%,100%);fill-opacity:1;" d="M 12 4.410156 L 12.140625 4.84375 L 11.925781 4.917969 "/>
<path style=" stroke:none;fill-rule:nonzero;fill:rgb(100%,100%,100%);fill-opacity:1;" d="M 12.425781 4.722656 L 11.976562 4.71875 L 11.972656 4.953125 "/>
<path style=" stroke:none;fill-rule:nonzero;fill:rgb(100%,100%,100%);fill-opacity:1;" d="M 12.425781 4.722656 L 12.066406 4.996094 L 11.925781 4.808594 "/>
<path style=" stroke:none;fill-rule:nonzero;fill:rgb(100%,100%,100%);fill-opacity:1;" d="M 11.570312 4.722656 L 11.933594 4.996094 L 12.074219 4.808594 "/>
<path style=" stroke:none;fill-rule:nonzero;fill:rgb(100%,100%,100%);fill-opacity:1;" d="M 11.570312 4.722656 L 12.023438 4.71875 L 12.027344 4.953125 "/>
<path style=" stroke:none;fill-rule:nonzero;fill:rgb(100%,100%,100%);fill-opacity:1;" d="M 12.265625 5.234375 L 12.128906 4.796875 L 11.90625 4.867188 "/>
<path style=" stroke:none;fill-rule:nonzero;fill:rgb(100%,100%,100%);fill-opacity:1;" d="M 12.265625 5.234375 L 11.898438 4.96875 L 12.027344 4.777344 "/>
<path style=" stroke:none;fill-rule:nonzero;fill:rgb(100%,100%,100%);fill-opacity:1;" d="M 11.734375 5.234375 L 12.101562 4.96875 L 11.96875 4.777344 "/>
<path style=" stroke:none;fill-rule:nonzero;fill:rgb(100%,100%,100%);fill-opacity:1;" d="M 11.734375 5.234375 L 11.871094 4.796875 L 12.089844 4.867188 "/>
<path style=" stroke:none;fill-rule:nonzero;fill:rgb(100%,100%,100%);fill-opacity:1;" d="M 12 2.585938 L 11.855469 3.019531 L 12.074219 3.09375 "/>
<path style=" stroke:none;fill-rule:nonzero;fill:rgb(100%,100%,100%);fill-opacity:1;" d="M 12 2.585938 L 12.140625 3.019531 L 11.925781 3.09375 "/>
<path style=" stroke:none;fill-rule:nonzero;fill:rgb(100%,100%,100%);fill-opacity:1;" d="M 12.425781 2.898438 L 11.976562 2.894531 L 11.972656 3.128906 "/>
<path style=" stroke:none;fill-rule:nonzero;fill:rgb(100%,100%,100%);fill-opacity:1;" d="M 12.425781 2.898438 L 12.066406 3.171875 L 11.925781 2.984375 "/>
<path style=" stroke:none;fill-rule:nonzero;fill:rgb(100%,100%,100%);fill-opacity:1;" d="M 11.570312 2.898438 L 11.933594 3.171875 L 12.074219 2.984375 "/>
<path style=" stroke:none;fill-rule:nonzero;fill:rgb(100%,100%,100%);fill-opacity:1;" d="M 11.570312 2.898438 L 12.023438 2.894531 L 12.027344 3.128906 "/>
<path style=" stroke:none;fill-rule:nonzero;fill:rgb(100%,100%,100%);fill-opacity:1;" d="M 12.265625 3.410156 L 12.128906 2.972656 L 11.90625 3.042969 "/>
<path style=" stroke:none;fill-rule:nonzero;fill:rgb(100%,100%,100%);fill-opacity:1;" d="M 12.265625 3.410156 L 11.898438 3.144531 L 12.027344 2.953125 "/>
<path style=" stroke:none;fill-rule:nonzero;fill:rgb(100%,100%,100%);fill-opacity:1;" d="M 11.734375 3.410156 L 12.101562 3.144531 L 11.96875 2.953125 "/>
<path style=" stroke:none;fill-rule:nonzero;fill:rgb(100%,100%,100%);fill-opacity:1;" d="M 11.734375 3.410156 L 11.871094 2.972656 L 12.089844 3.042969 "/>
<path style=" stroke:none;fill-rule:nonzero;fill:rgb(100%,100%,100%);fill-opacity:1;" d="M 12 0.761719 L 11.855469 1.195312 L 12.074219 1.269531 "/>
<path style=" stroke:none;fill-rule:nonzero;fill:rgb(100%,100%,100%);fill-opacity:1;" d="M 12 0.761719 L 12.140625 1.195312 L 11.925781 1.269531 "/>
<path style=" stroke:none;fill-rule:nonzero;fill:rgb(100%,100%,100%);fill-opacity:1;" d="M 12.425781 1.074219 L 11.976562 1.074219 L 11.972656 1.304688 "/>
<path style=" stroke:none;fill-rule:nonzero;fill:rgb(100%,100%,100%);fill-opacity:1;" d="M 12.425781 1.074219 L 12.066406 1.347656 L 11.925781 1.160156 "/>
<path style=" stroke:none;fill-rule:nonzero;fill:rgb(100%,100%,100%);fill-opacity:1;" d="M 11.570312 1.074219 L 11.933594 1.347656 L 12.074219 1.160156 "/>
<path style=" stroke:none;fill-rule:nonzero;fill:rgb(100%,100%,100%);fill-opacity:1;" d="M 11.570312 1.074219 L 12.023438 1.074219 L 12.027344 1.304688 "/>
<path style=" stroke:none;fill-rule:nonzero;fill:rgb(100%,100%,100%);fill-opacity:1;" d="M 12.265625 1.585938 L 12.128906 1.148438 L 11.90625 1.21875 "/>
<path style=" stroke:none;fill-rule:nonzero;fill:rgb(100%,100%,100%);fill-opacity:1;" d="M 12.265625 1.585938 L 11.898438 1.320312 L 12.027344 1.128906 "/>
<path style=" stroke:none;fill-rule:nonzero;fill:rgb(100%,100%,100%);fill-opacity:1;" d="M 11.734375 1.585938 L 12.101562 1.320312 L 11.96875 1.128906 "/>
<path style=" stroke:none;fill-rule:nonzero;fill:rgb(100%,100%,100%);fill-opacity:1;" d="M 11.734375 1.585938 L 11.871094 1.148438 L 12.089844 1.21875 "/>
<path style=" stroke:none;fill-rule:nonzero;fill:rgb(100%,100%,100%);fill-opacity:1;" d="M 13.800781 4.410156 L 13.65625 4.84375 L 13.875 4.917969 "/>
<path style=" stroke:none;fill-rule:nonzero;fill:rgb(100%,100%,100%);fill-opacity:1;" d="M 13.800781 4.410156 L 13.941406 4.84375 L 13.722656 4.917969 "/>
<path style=" stroke:none;fill-rule:nonzero;fill:rgb(100%,100%,100%);fill-opacity:1;" d="M 14.226562 4.722656 L 13.777344 4.71875 L 13.773438 4.953125 "/>
<path style=" stroke:none;fill-rule:nonzero;fill:rgb(100%,100%,100%);fill-opacity:1;" d="M 14.226562 4.722656 L 13.863281 4.996094 L 13.726562 4.808594 "/>
<path style=" stroke:none;fill-rule:nonzero;fill:rgb(100%,100%,100%);fill-opacity:1;" d="M 13.371094 4.722656 L 13.734375 4.996094 L 13.871094 4.808594 "/>
<path style=" stroke:none;fill-rule:nonzero;fill:rgb(100%,100%,100%);fill-opacity:1;" d="M 13.371094 4.722656 L 13.820312 4.71875 L 13.824219 4.953125 "/>
<path style=" stroke:none;fill-rule:nonzero;fill:rgb(100%,100%,100%);fill-opacity:1;" d="M 14.0625 5.234375 L 13.925781 4.796875 L 13.707031 4.867188 "/>
<path style=" stroke:none;fill-rule:nonzero;fill:rgb(100%,100%,100%);fill-opacity:1;" d="M 14.0625 5.234375 L 13.695312 4.96875 L 13.828125 4.777344 "/>
<path style=" stroke:none;fill-rule:nonzero;fill:rgb(100%,100%,100%);fill-opacity:1;" d="M 13.535156 5.234375 L 13.902344 4.96875 L 13.769531 4.777344 "/>
<path style=" stroke:none;fill-rule:nonzero;fill:rgb(100%,100%,100%);fill-opacity:1;" d="M 13.535156 5.234375 L 13.671875 4.796875 L 13.890625 4.867188 "/>
<path style=" stroke:none;fill-rule:nonzero;fill:rgb(100%,100%,100%);fill-opacity:1;" d="M 13.800781 2.585938 L 13.65625 3.019531 L 13.875 3.09375 "/>
<path style=" stroke:none;fill-rule:nonzero;fill:rgb(100%,100%,100%);fill-opacity:1;" d="M 13.800781 2.585938 L 13.941406 3.019531 L 13.722656 3.09375 "/>
<path style=" stroke:none;fill-rule:nonzero;fill:rgb(100%,100%,100%);fill-opacity:1;" d="M 14.226562 2.898438 L 13.777344 2.894531 L 13.773438 3.128906 "/>
<path style=" stroke:none;fill-rule:nonzero;fill:rgb(100%,100%,100%);fill-opacity:1;" d="M 14.226562 2.898438 L 13.863281 3.171875 L 13.726562 2.984375 "/>
<path style=" stroke:none;fill-rule:nonzero;fill:rgb(100%,100%,100%);fill-opacity:1;" d="M 13.371094 2.898438 L 13.734375 3.171875 L 13.871094 2.984375 "/>
<path style=" stroke:none;fill-rule:nonzero;fill:rgb(100%,100%,100%);fill-opacity:1;" d="M 13.371094 2.898438 L 13.820312 2.894531 L 13.824219 3.128906 "/>
<path style=" stroke:none;fill-rule:nonzero;fill:rgb(100%,100%,100%);fill-opacity:1;" d="M 14.0625 3.410156 L 13.925781 2.972656 L 13.707031 3.042969 "/>
<path style=" stroke:none;fill-rule:nonzero;fill:rgb(100%,100%,100%);fill-opacity:1;" d="M 14.0625 3.410156 L 13.695312 3.144531 L 13.828125 2.953125 "/>
<path style=" stroke:none;fill-rule:nonzero;fill:rgb(100%,100%,100%);fill-opacity:1;" d="M 13.535156 3.410156 L 13.902344 3.144531 L 13.769531 2.953125 "/>
<path style=" stroke:none;fill-rule:nonzero;fill:rgb(100%,100%,100%);fill-opacity:1;" d="M 13.535156 3.410156 L 13.671875 2.972656 L 13.890625 3.042969 "/>
<path style=" stroke:none;fill-rule:nonzero;fill:rgb(100%,100%,100%);fill-opacity:1;" d="M 13.800781 0.761719 L 13.65625 1.195312 L 13.875 1.269531 "/>
<path style=" stroke:none;fill-rule:nonzero;fill:rgb(100%,100%,100%);fill-opacity:1;" d="M 13.800781 0.761719 L 13.941406 1.195312 L 13.722656 1.269531 "/>
<path style=" stroke:none;fill-rule:nonzero;fill:rgb(100%,100%,100%);fill-opacity:1;" d="M 14.226562 1.074219 L 13.777344 1.074219 L 13.773438 1.304688 "/>
<path style=" stroke:none;fill-rule:nonzero;fill:rgb(100%,100%,100%);fill-opacity:1;" d="M 14.226562 1.074219 L 13.863281 1.347656 L 13.726562 1.160156 "/>
<path style=" stroke:none;fill-rule:nonzero;fill:rgb(100%,100%,100%);fill-opacity:1;" d="M 13.371094 1.074219 L 13.734375 1.347656 L 13.871094 1.160156 "/>
<path style=" stroke:none;fill-rule:nonzero;fill:rgb(100%,100%,100%);fill-opacity:1;" d="M 13.371094 1.074219 L 13.820312 1.074219 L 13.824219 1.304688 "/>
<path style=" stroke:none;fill-rule:nonzero;fill:rgb(100%,100%,100%);fill-opacity:1;" d="M 14.0625 1.585938 L 13.925781 1.148438 L 13.707031 1.21875 "/>
<path style=" stroke:none;fill-rule:nonzero;fill:rgb(100%,100%,100%);fill-opacity:1;" d="M 14.0625 1.585938 L 13.695312 1.320312 L 13.828125 1.128906 "/>
<path style=" stroke:none;fill-rule:nonzero;fill:rgb(100%,100%,100%);fill-opacity:1;" d="M 13.535156 1.585938 L 13.902344 1.320312 L 13.769531 1.128906 "/>
<path style=" stroke:none;fill-rule:nonzero;fill:rgb(100%,100%,100%);fill-opacity:1;" d="M 13.535156 1.585938 L 13.671875 1.148438 L 13.890625 1.21875 "/>
<path style=" stroke:none;fill-rule:nonzero;fill:rgb(100%,100%,100%);fill-opacity:1;" d="M 6.597656 4.410156 L 6.457031 4.84375 L 6.675781 4.917969 "/>
<path style=" stroke:none;fill-rule:nonzero;fill:rgb(100%,100%,100%);fill-opacity:1;" d="M 6.597656 4.410156 L 6.742188 4.84375 L 6.523438 4.917969 "/>
<path style=" stroke:none;fill-rule:nonzero;fill:rgb(100%,100%,100%);fill-opacity:1;" d="M 7.027344 4.722656 L 6.578125 4.71875 L 6.574219 4.953125 "/>
<path style=" stroke:none;fill-rule:nonzero;fill:rgb(100%,100%,100%);fill-opacity:1;" d="M 7.027344 4.722656 L 6.664062 4.996094 L 6.527344 4.808594 "/>
<path style=" stroke:none;fill-rule:nonzero;fill:rgb(100%,100%,100%);fill-opacity:1;" d="M 6.171875 4.722656 L 6.535156 4.996094 L 6.671875 4.808594 "/>
<path style=" stroke:none;fill-rule:nonzero;fill:rgb(100%,100%,100%);fill-opacity:1;" d="M 6.171875 4.722656 L 6.621094 4.71875 L 6.625 4.953125 "/>
<path style=" stroke:none;fill-rule:nonzero;fill:rgb(100%,100%,100%);fill-opacity:1;" d="M 6.863281 5.234375 L 6.726562 4.796875 L 6.507812 4.867188 "/>
<path style=" stroke:none;fill-rule:nonzero;fill:rgb(100%,100%,100%);fill-opacity:1;" d="M 6.863281 5.234375 L 6.496094 4.96875 L 6.628906 4.777344 "/>
<path style=" stroke:none;fill-rule:nonzero;fill:rgb(100%,100%,100%);fill-opacity:1;" d="M 6.335938 5.234375 L 6.703125 4.96875 L 6.570312 4.777344 "/>
<path style=" stroke:none;fill-rule:nonzero;fill:rgb(100%,100%,100%);fill-opacity:1;" d="M 6.335938 5.234375 L 6.472656 4.796875 L 6.691406 4.867188 "/>
<path style=" stroke:none;fill-rule:nonzero;fill:rgb(100%,100%,100%);fill-opacity:1;" d="M 8.398438 4.410156 L 8.257812 4.84375 L 8.472656 4.917969 "/>
<path style=" stroke:none;fill-rule:nonzero;fill:rgb(100%,100%,100%);fill-opacity:1;" d="M 8.398438 4.410156 L 8.542969 4.84375 L 8.324219 4.917969 "/>
<path style=" stroke:none;fill-rule:nonzero;fill:rgb(100%,100%,100%);fill-opacity:1;" d="M 8.828125 4.722656 L 8.375 4.71875 L 8.371094 4.953125 "/>
<path style=" stroke:none;fill-rule:nonzero;fill:rgb(100%,100%,100%);fill-opacity:1;" d="M 8.828125 4.722656 L 8.464844 4.996094 L 8.324219 4.808594 "/>
<path style=" stroke:none;fill-rule:nonzero;fill:rgb(100%,100%,100%);fill-opacity:1;" d="M 7.972656 4.722656 L 8.332031 4.996094 L 8.472656 4.808594 "/>
<path style=" stroke:none;fill-rule:nonzero;fill:rgb(100%,100%,100%);fill-opacity:1;" d="M 7.972656 4.722656 L 8.421875 4.71875 L 8.425781 4.953125 "/>
<path style=" stroke:none;fill-rule:nonzero;fill:rgb(100%,100%,100%);fill-opacity:1;" d="M 8.664062 5.234375 L 8.527344 4.796875 L 8.308594 4.867188 "/>
<path style=" stroke:none;fill-rule:nonzero;fill:rgb(100%,100%,100%);fill-opacity:1;" d="M 8.664062 5.234375 L 8.296875 4.96875 L 8.429688 4.777344 "/>
<path style=" stroke:none;fill-rule:nonzero;fill:rgb(100%,100%,100%);fill-opacity:1;" d="M 8.132812 5.234375 L 8.5 4.96875 L 8.371094 4.777344 "/>
<path style=" stroke:none;fill-rule:nonzero;fill:rgb(100%,100%,100%);fill-opacity:1;" d="M 8.132812 5.234375 L 8.269531 4.796875 L 8.492188 4.867188 "/>
<path style=" stroke:none;fill-rule:nonzero;fill:rgb(100%,100%,100%);fill-opacity:1;" d="M 8.398438 2.585938 L 8.257812 3.019531 L 8.472656 3.09375 "/>
<path style=" stroke:none;fill-rule:nonzero;fill:rgb(100%,100%,100%);fill-opacity:1;" d="M 8.398438 2.585938 L 8.542969 3.019531 L 8.324219 3.09375 "/>
<path style=" stroke:none;fill-rule:nonzero;fill:rgb(100%,100%,100%);fill-opacity:1;" d="M 8.828125 2.898438 L 8.375 2.894531 L 8.371094 3.128906 "/>
<path style=" stroke:none;fill-rule:nonzero;fill:rgb(100%,100%,100%);fill-opacity:1;" d="M 8.828125 2.898438 L 8.464844 3.171875 L 8.324219 2.984375 "/>
<path style=" stroke:none;fill-rule:nonzero;fill:rgb(100%,100%,100%);fill-opacity:1;" d="M 7.972656 2.898438 L 8.332031 3.171875 L 8.472656 2.984375 "/>
<path style=" stroke:none;fill-rule:nonzero;fill:rgb(100%,100%,100%);fill-opacity:1;" d="M 7.972656 2.898438 L 8.421875 2.894531 L 8.425781 3.128906 "/>
<path style=" stroke:none;fill-rule:nonzero;fill:rgb(100%,100%,100%);fill-opacity:1;" d="M 8.664062 3.410156 L 8.527344 2.972656 L 8.308594 3.042969 "/>
<path style=" stroke:none;fill-rule:nonzero;fill:rgb(100%,100%,100%);fill-opacity:1;" d="M 8.664062 3.410156 L 8.296875 3.144531 L 8.429688 2.953125 "/>
<path style=" stroke:none;fill-rule:nonzero;fill:rgb(100%,100%,100%);fill-opacity:1;" d="M 8.132812 3.410156 L 8.5 3.144531 L 8.371094 2.953125 "/>
<path style=" stroke:none;fill-rule:nonzero;fill:rgb(100%,100%,100%);fill-opacity:1;" d="M 8.132812 3.410156 L 8.269531 2.972656 L 8.492188 3.042969 "/>
</g>
</svg>
