<svg xmlns="http://www.w3.org/2000/svg" width="25" height="px" viewBox="0 0 25 19"><path d="M12.5 0H25v19H12.5Zm0 0" style="stroke:none;fill-rule:nonzero;fill:#fff;fill-opacity:1"/><path d="M0 0h12.5v19H0Zm0 0" style="stroke:none;fill-rule:nonzero;fill:#ffe000;fill-opacity:1"/><path d="m1781.25 990.44 16.146 3.598 25.52 4.112 11.459 1.542-1.563 49.856s-3.125 32.894-7.812 48.828c-3.646 11.821-16.146 33.409-16.146 33.409l-7.292 11.821-45.312-39.576s7.292-10.794 10.417-16.962c3.645-7.71 7.812-23.643 7.812-23.643l4.167-26.213 2.604-32.38Zm-57.292 151.11 41.667 36.493s-8.854 7.195-13.542 9.251c-9.896 5.14-20.833 7.196-31.77 7.71-7.813-.514-15.105-3.084-22.396-6.168-15.625-7.195-32.813-14.905-43.23-28.783-3.645-5.14-4.687-11.821-4.687-17.989 0-6.682 6.25-19.531 6.25-19.531s2.604 8.224 5.208 11.821c4.688 5.14 10.938 9.766 17.709 12.336 10.937 5.654 24.479 6.168 35.937 1.028 3.646-1.028 8.854-6.168 8.854-6.168m0 0" style="fill-rule:nonzero;fill:#fff;fill-opacity:1;stroke-width:3.2;stroke-linecap:round;stroke-linejoin:round;stroke:#000;stroke-opacity:1;stroke-miterlimit:4" transform="matrix(.0075 0 0 .0076 4.805 0)"/><path d="M1658.854 877.878s3.125 6.168 4.167 9.766a114.5 114.5 0 0 1 3.125 18.503c-.521 6.682-1.563 12.85-3.646 19.017-2.604 8.738-5.73 17.476-9.896 26.213-2.604 5.14-6.25 10.28-8.854 15.934-4.167 8.738-6.77 17.99-10.417 26.727-3.125 7.196-7.291 14.391-9.375 22.101-3.125 10.28-4.687 21.073-5.729 31.353-1.562 9.251-2.083 18.503-2.604 27.755 0 10.793.52 22.1 2.604 32.38 1.563 10.794 4.688 21.588 9.375 31.353 6.771 14.392 18.23 26.727 31.771 34.437 5.73 3.598 11.98 5.654 18.23 8.224 8.332 3.083 25.52 9.251 25.52 9.251s-23.958-11.821-31.77-21.587c-6.772-8.738-10.938-18.503-13.022-28.783-2.083-12.335-2.604-24.67-1.041-36.492 1.562-13.364 4.687-26.213 8.854-38.549 4.687-13.363 10.416-25.699 15.625-38.548 4.166-9.252 8.333-17.99 11.979-27.755 4.687-10.794 8.854-21.588 12.5-32.895 2.083-7.196 4.687-13.878 5.208-21.073.521-7.71 0-15.42-2.083-23.13-2.083-10.793-5.73-21.587-11.98-30.838-3.645-5.654-8.853-9.766-14.583-13.364-5.729-2.57-12.5-5.14-18.75-4.112-2.083.514-5.208 4.112-5.208 4.112" style="fill-rule:nonzero;fill:#fff;fill-opacity:1;stroke-width:3.2;stroke-linecap:round;stroke-linejoin:round;stroke:#000;stroke-opacity:1;stroke-miterlimit:4" transform="matrix(.0075 0 0 .0076 4.805 0)"/><path d="M1711.458 945.724s4.688-17.99 5.209-27.241c.52-7.71.52-15.934-.521-23.643-1.042-8.738-1.563-17.99-4.688-26.213-7.291-16.962-21.354-30.325-38.541-37.007-8.855-3.084-18.23-4.626-27.605-4.626-13.02-.514-26.041 1.028-38.02 4.112-4.167 1.542-11.98 5.654-11.98 5.654l30.209 48.828s9.375-5.654 14.583-6.682c5.208-1.542 10.938-2.056 16.667-1.542s11.979 1.028 17.187 3.598c6.771 3.084 12.5 7.71 17.709 13.364 6.25 6.167 11.458 13.363 14.583 21.587 3.125 7.71 3.646 15.933 4.687 24.157.521 2.056.521 5.654.521 5.654" style="fill-rule:nonzero;fill:#fff;fill-opacity:1;stroke-width:3.2;stroke-linecap:round;stroke-linejoin:round;stroke:#000;stroke-opacity:1;stroke-miterlimit:4" transform="matrix(.0075 0 0 .0076 4.805 0)"/><path d="M1717.187 906.661s-5.729-16.447-10.416-23.643c-5.73-8.224-13.542-14.905-22.396-19.531-9.375-4.626-30.73-6.168-30.73-6.168l10.938 21.073-19.791-.514-10.417-17.475-19.27 8.738-9.376-15.934 20.313-9.251-9.375-14.906 20.312-2.056 8.854 14.392s16.146 0 23.959 2.056c9.895 2.056 19.791 7.195 27.083 14.391 4.687 4.112 8.854 8.738 11.98 13.878 3.124 5.14 6.77 16.96 6.77 16.96Zm0 0" style="fill-rule:nonzero;fill:#ce9d09;fill-opacity:1;stroke-width:3.2;stroke-linecap:round;stroke-linejoin:round;stroke:#000;stroke-opacity:1;stroke-miterlimit:4" transform="matrix(.0075 0 0 .0076 4.805 0)"/><path d="m1581.77 844.984 31.772 46.772m-18.23-54.996-14.583 8.738-14.583 11.307 31.25 46.772 13.541-10.28 14.063-8.223Zm58.334 198.91 18.229-37.006 18.75 7.71 7.812-19.018-18.75-8.738 9.896-21.073-14.062-6.682-10.938 20.56-18.75-7.71-8.854 19.531 18.75 7.71-17.187 37.007Zm143.229-10.793 18.23-.514v21.073l17.707 1.028-3.125 21.073-16.145-1.028s-3.125 12.85-5.209 18.503c-2.604 6.168-9.896 17.476-9.896 17.476l-19.27-4.626s6.77-11.308 9.375-16.962c2.604-5.653 5.729-16.96 5.729-16.96l-19.792-2.57 3.646-20.046 18.23 1.028Zm0 0" style="fill-rule:nonzero;fill:#ce9d09;fill-opacity:1;stroke-width:3.2;stroke-linecap:round;stroke-linejoin:round;stroke:#000;stroke-opacity:1;stroke-miterlimit:4" transform="matrix(.0075 0 0 .0076 4.805 0)"/><path d="m1780.82 990.44 16.147 3.598 26.041 4.112 11.459 1.542-2.084 49.856s-2.604 32.894-7.812 48.828c-3.125 11.821-15.625 33.409-15.625 33.409l-7.292 11.821-45.833-39.576s7.812-10.794 10.937-16.962c3.125-7.71 7.292-23.643 7.292-23.643l4.688-26.213 2.604-32.38Zm-56.77 151.11 41.146 36.493s-8.333 7.195-13.02 9.251c-9.897 5.14-20.834 7.196-31.772 7.71-7.812-.514-15.104-3.084-22.396-6.168-15.625-7.195-32.812-14.905-43.229-28.783-3.646-5.14-4.687-11.821-4.687-17.989 0-6.682 6.25-19.531 6.25-19.531s2.604 8.224 5.208 11.821c4.688 5.14 10.938 9.766 17.708 12.336 10.938 5.654 24.48 6.168 35.938 1.028 3.125-1.028 8.854-6.168 8.854-6.168m0 0" style="fill-rule:nonzero;fill:#fff;fill-opacity:1;stroke-width:3.2;stroke-linecap:round;stroke-linejoin:round;stroke:#000;stroke-opacity:1;stroke-miterlimit:4" transform="matrix(-.0075 0 0 .0076 32.688 0)"/><path d="M1658.946 877.878s3.125 6.168 4.167 9.766c1.562 6.168 2.604 12.335 2.604 18.503 0 6.682-1.042 12.85-3.125 19.017-2.604 8.738-6.25 17.476-10.417 26.213-2.604 5.14-5.73 10.28-8.333 15.934-4.167 8.738-7.292 17.99-10.417 26.727-3.125 7.196-7.292 14.391-9.375 22.101-3.125 10.28-4.687 21.073-6.25 31.353-1.042 9.251-2.083 18.503-2.083 27.755 0 10.793.52 22.1 2.083 32.38 2.083 10.794 5.208 21.588 9.896 31.353 6.77 14.392 18.23 26.727 31.77 34.437 5.73 3.598 11.98 5.654 18.23 8.224 8.333 3.083 25.52 9.251 25.52 9.251s-23.958-11.821-31.77-21.587c-6.77-8.738-10.938-18.503-13.02-28.783-2.605-12.335-2.605-24.67-1.043-36.492 1.563-13.364 4.688-26.213 8.855-38.549 4.166-13.363 10.416-25.699 15.625-38.548 3.645-9.252 8.333-17.99 11.979-27.755 4.687-10.794 8.854-21.588 12.5-32.895 2.083-7.196 4.687-13.878 5.208-21.073.52-7.71 0-15.42-2.083-23.13-2.084-10.793-6.25-21.587-11.98-30.838-3.645-5.654-8.854-9.766-14.583-13.364-5.729-2.57-12.5-5.14-18.75-4.112-2.083.514-5.208 4.112-5.208 4.112" style="fill-rule:nonzero;fill:#fff;fill-opacity:1;stroke-width:3.2;stroke-linecap:round;stroke-linejoin:round;stroke:#000;stroke-opacity:1;stroke-miterlimit:4" transform="matrix(-.0075 0 0 .0076 32.688 0)"/><path d="M1711.55 945.724s4.688-17.99 5.208-27.241c.521-7.71.521-15.934-.52-23.643-1.042-8.738-1.563-17.99-4.688-26.213-7.292-16.962-21.354-30.325-38.542-37.007q-13.281-4.626-28.125-4.626c-12.5-.514-25.52 1.028-38.02 4.112-3.646 1.542-11.459 5.654-11.459 5.654l30.209 48.828s8.854-5.654 14.062-6.682q8.594-2.313 17.188-1.542c5.729.514 11.979 1.028 17.187 3.598 6.77 3.084 12.5 7.71 17.708 13.364 6.25 6.167 10.938 13.363 14.584 21.587 3.125 7.71 3.646 15.933 4.687 24.157.521 2.056.521 5.654.521 5.654" style="fill-rule:nonzero;fill:#fff;fill-opacity:1;stroke-width:3.2;stroke-linecap:round;stroke-linejoin:round;stroke:#000;stroke-opacity:1;stroke-miterlimit:4" transform="matrix(-.0075 0 0 .0076 32.688 0)"/><path d="M1716.758 906.661s-5.208-16.447-9.895-23.643c-5.73-8.224-13.542-14.905-22.396-19.531-9.375-4.626-31.25-6.168-31.25-6.168l11.458 21.073-19.792-.514-10.416-17.475-19.271 8.738-9.375-15.934 20.312-9.251-9.375-14.906 20.313-2.056 8.854 14.392s16.146 0 23.438 2.056c10.416 2.056 19.791 7.195 27.604 14.391 4.687 4.112 8.854 8.738 11.979 13.878s6.77 16.96 6.77 16.96Zm0 0" style="fill-rule:nonzero;fill:#ce9d09;fill-opacity:1;stroke-width:3.2;stroke-linecap:round;stroke-linejoin:round;stroke:#000;stroke-opacity:1;stroke-miterlimit:4" transform="matrix(-.0075 0 0 .0076 32.688 0)"/><path d="m1581.863 844.984 31.77 46.772m-18.229-54.996-15.104 8.738-14.062 11.307 30.729 46.772 14.062-10.28 14.063-8.223Zm58.334 198.91 17.708-37.006 19.27 7.71 7.813-19.018-18.75-8.738 9.375-21.073-13.541-6.682-10.938 20.56-19.27-7.71-8.334 19.531 18.75 7.71-17.188 37.007Zm143.229-10.793 18.229-.514v21.073l17.708 1.028-3.125 21.073-16.666-1.028s-2.605 12.85-4.688 18.503c-2.604 6.168-9.896 17.476-9.896 17.476l-19.27-4.626s6.77-11.308 9.374-16.962c2.605-5.653 5.73-16.96 5.73-16.96l-19.792-2.57 3.646-20.046 17.708 1.028Zm0 0" style="fill-rule:nonzero;fill:#ce9d09;fill-opacity:1;stroke-width:3.2;stroke-linecap:round;stroke-linejoin:round;stroke:#000;stroke-opacity:1;stroke-miterlimit:4" transform="matrix(-.0075 0 0 .0076 32.688 0)"/><path d="m1756.77 735.506-27.603 29.297 17.187 51.398 9.375 35.464-27.604 25.7 50.52 71.443-17.187 19.53c-2.083 2.57-2.604 5.655-2.083 8.738 0 3.084 1.562 5.14 3.646 7.196 4.166 4.112 10.937 5.14 17.187 6.682 20.834 5.654 42.709 8.224 64.584 9.766 4.687.514 14.062 0 14.062 0s9.375.514 14.063 0c21.875-1.542 43.75-4.112 64.583-9.766 6.25-1.542 13.02-2.57 17.187-6.682 4.688-4.112 5.209-10.793 1.563-15.933l-16.146-35.979 51.563-55.51-19.792-17.475-.52-43.174 17.187-51.398-25.521-25.7-22.917-61.163s-4.687-16.961-8.854-24.671c-2.604-4.626-5.73-8.738-9.375-12.85a79.8 79.8 0 0 0-12.5-13.877c-4.688-3.598-9.375-6.682-14.583-9.252-5.73-2.57-10.938-5.653-17.188-7.195-5.729-1.542-18.75-1.542-18.75-1.542s-12.5 0-18.75 1.542-11.458 4.625-17.187 7.195c-5.209 2.57-9.896 5.654-14.584 9.252a79.8 79.8 0 0 0-12.5 13.877c-3.646 4.112-6.77 8.224-9.375 12.85-4.166 7.71-8.854 24.671-8.854 24.671Zm0 0" style="fill-rule:nonzero;fill:#fff;fill-opacity:1;stroke-width:3.2;stroke-linecap:round;stroke-linejoin:round;stroke:#000;stroke-opacity:1;stroke-miterlimit:4" transform="matrix(.0075 0 0 .0076 4.805 0)"/><path d="M1963.542 932.874s-3.646-2.57-5.209-3.598c-3.646-2.57-7.812-4.626-11.979-6.167-5.729-2.056-11.458-3.084-17.187-4.626-14.584-3.598-29.688-5.654-44.271-5.654-8.854 0-26.042 1.028-26.042 1.028s-17.187-1.028-25.52-1.028c-15.105 0-30.209 2.056-44.792 5.654-5.73 1.542-11.459 2.57-17.188 4.626-4.167 1.541-8.333 3.597-11.979 6.167-1.563 1.028-5.208 3.598-5.208 3.598m219.27-42.66s-5.208-5.14-8.854-5.654c-2.083-.514-4.687 0-6.77 1.542-4.167 3.598-6.25 9.766-3.646 14.905.52 2.056 2.083 4.626 4.166 5.14 4.688 2.056 15.104-1.542 15.104-1.542Zm4.688-3.598c5.73.514 8.333 3.598 9.896 6.682m-243.23-3.084-.52 14.391s10.416 3.598 15.104 1.542c2.083-.514 3.646-3.084 4.167-5.14 2.604-5.14 1.041-11.307-3.646-14.905-2.084-1.542-4.167-2.056-6.771-1.542-3.646.514-8.333 6.168-8.333 6.168Zm-5.208-3.598c-5.729.514-8.333 3.598-9.375 6.682m197.917 1.542-8.333-1.028m-130.209 1.028 8.334-1.028m76.041.514c-2.604 0-7.291-4.112-7.291-4.112m-22.917 4.112c2.604 0 7.292-4.112 7.292-4.112m141.145-19.017s-4.166 3.083-7.291 3.597l-1.042.514s-2.083 5.654-3.646 8.224c-2.083 2.57-4.166 4.626-6.77 6.168 0 0-4.688-4.112-7.292-4.626s-4.167-.514-6.25 0q-3.125 1.542-4.688 4.626c-1.562 2.056-2.604 4.626-2.604 6.682 0 3.083 3.646 8.223 3.646 8.223l-2.604 4.626-3.646 2.57c-6.25-2.056-13.02-4.626-18.75-7.71-2.604-2.57-4.167-5.654-4.688-8.737 0 0 4.688-3.084 5.73-5.14 1.041-2.57 1.562-6.168 0-8.738s-5.209-3.598-8.334-3.598c-2.083 0-4.687 1.028-6.25 2.57s-3.125 4.626-2.604 7.196c.521 2.056 4.688 5.654 4.688 5.654s-1.563 4.626-3.646 5.14c-5.73 2.57-9.896 4.111-15.104 5.14-5.73 1.027-10.938 1.027-16.667 0-3.125-1.029-6.25-3.085-8.854-5.654-.521-1.028-.521-3.084-.521-3.084s6.25-1.542 8.854-3.598 5.208-4.626 5.73-7.71c.52-3.084-1.042-6.682-3.126-9.252-1.562-2.57-4.166-4.625-7.291-6.167-1.563-.514-4.167-.514-4.167-.514l-1.042 1.028c-1.562 1.542-3.125 2.57-4.687 3.597h-.521l-2.083 1.028-2.084.514s3.646 1.028 4.688 3.084c1.041.514 1.041 1.542 1.041 3.084l.521 2.056c0 1.028-.52 2.056-1.041 3.084 0 1.542-.521 2.57-1.563 3.598l-1.562 1.542c-1.042.514-2.084 1.028-3.646 1.542-1.042.514-4.167 0-4.167 0s5.73 0 7.813-1.542c2.083-2.056 3.645-4.626 3.645-7.196v-3.084c0-1.542-1.041-3.084-2.083-4.112-2.083-2.056-9.375-2.57-9.375-2.57s-6.77.514-9.375 2.57c-1.042 1.028-2.083 2.57-2.083 4.112v3.084l.52 2.57q.782 3.084 3.126 4.626c2.604 1.542 7.812 1.542 7.812 1.542s-3.125.514-4.167 0c-1.041 0-2.604-.514-3.645-1.542q-.781 0-1.563-1.542-1.562-1.542-1.562-3.084c-.521-1.028-1.042-2.57-1.042-3.598l.52-2.056c0-1.028.522-2.056 1.042-3.084 1.042-1.542 4.688-3.084 4.688-3.084l-2.083-.514H1850l-1.042-1.028c-2.083-1.027-3.646-2.055-5.208-3.597l-1.042-1.028s-2.604 0-4.166.514c-3.125 1.542-5.73 3.598-7.292 6.167-2.083 2.57-3.646 6.168-3.125 9.252s3.125 5.654 5.73 7.71c2.603 2.056 8.853 3.598 8.853 3.598s0 2.056-.52 3.084c-2.605 2.57-5.73 4.625-8.855 5.653-5.729 1.028-10.937 1.028-16.666 0-5.209-1.028-10.417-2.57-15.105-4.626-2.083-1.027-3.645-5.653-3.645-5.653s4.166-3.598 4.687-5.654c.521-2.57-1.042-5.14-2.604-7.196-1.563-1.542-4.167-2.57-6.25-2.57-3.125 0-6.77 1.542-8.333 4.112-1.563 2.056-1.042 5.654 0 8.224 1.041 2.056 5.729 5.14 5.729 5.14-.521 3.083-2.084 6.167-4.688 8.737-5.729 3.084-12.5 5.654-18.75 7.71l-3.646-2.57-2.604-4.112s3.646-5.654 3.646-8.223c.521-2.57-1.042-5.14-2.604-7.196q-1.562-3.084-4.688-4.626c-1.562-.514-3.645-.514-5.729 0-3.125 1.028-7.812 5.14-7.812 5.14s-4.688-4.112-6.771-6.168c-1.042-3.084-2.604-5.654-3.646-8.224l-1.042-1.028c-3.125-.514-7.291-3.597-7.291-3.597l-4.167 1.027s-4.167 2.056-4.687 4.112c0 2.57 4.166 3.598 5.729 5.654s2.604 4.112 4.166 5.654c1.042 2.056 2.605 3.598 3.646 5.654.521 2.056-1.041 5.14 0 7.195 1.042 2.57 3.646 5.654 6.25 6.168s7.813-2.57 7.813-2.57v19.532l9.896 9.251 9.895 20.56-3.645 5.14 1.041 10.279c7.292-9.766 20.313-13.878 32.292-17.476 15.625-4.625 44.27-4.625 57.812-4.625h7.292s44.271-1.542 65.104 4.625c11.98 3.598 25 7.71 32.292 17.476l1.042-10.28-3.646-5.14 9.896-20.559 9.895-9.251V904.09s5.209 3.084 7.813 2.57 5.208-3.598 6.77-6.168c.522-2.056-1.04-5.14 0-7.195.522-2.056 2.084-3.598 3.126-5.654 1.562-2.056 2.604-3.598 4.166-5.654s5.73-3.084 5.73-5.654c0-2.056-4.167-4.112-4.167-4.112Zm-148.437-2.57c1.042 1.028 3.125 2.57 5.208 3.597.521.514 1.042.514 2.084 1.028 2.604.514 7.812 0 7.812 0s5.208.514 7.813 0l2.083-1.028h.52c1.563-1.027 3.647-3.083 4.688-3.597.521-1.028 1.042-1.542 1.042-2.57 1.042-2.57 1.042-6.168 0-8.738-1.563-2.57-5.208-4.112-8.333-6.168-2.084-1.542-7.813-3.598-7.813-3.598-2.604 1.028-5.208 2.056-7.812 3.598-3.125 2.056-6.771 3.598-8.334 6.168-1.041 2.57-1.562 6.168 0 8.738 0 1.028.521 1.542 1.042 2.57" style="fill-rule:nonzero;fill:#ce9d09;fill-opacity:1;stroke-width:3.2;stroke-linecap:round;stroke-linejoin:round;stroke:#000;stroke-opacity:1;stroke-miterlimit:4" transform="matrix(.0075 0 0 .0076 4.805 0)"/><path d="M1980.73 829.564s-10.938-4.626-16.668-6.682c-10.416-3.083-21.354-5.14-31.77-7.195-12.5-2.57-25.521-3.084-37.5-6.168-4.167-.514-7.813-2.57-11.459-3.598-5.729-1.028-11.458-2.57-16.666-1.542-3.125.514-7.813 4.626-7.813 4.626s-4.687-4.112-7.812-4.626c-5.209-1.028-10.938.514-16.667 1.542-3.646 1.028-7.292 3.084-10.938 3.598-12.5 3.084-25.52 3.598-38.02 6.168-10.417 2.056-21.355 4.112-31.771 7.195-5.73 2.056-16.667 6.682-16.667 6.682m197.396-44.716s5.208-3.084 7.292-5.14c1.562-1.542 2.604-3.084 2.604-5.14 0-2.57-.521-5.14-2.084-6.681-1.562-1.542-4.166-2.056-6.25-2.056s-3.645.514-5.208 1.542c-1.562 1.541-2.604 3.597-3.125 5.653s.521 3.598 1.042 5.14c1.562 2.57 3.646 4.626 5.729 6.682m-151.042 0s4.167-4.112 5.209-6.682c1.041-1.542 1.562-3.084 1.562-5.14s-1.042-4.112-3.125-5.653c-1.042-1.028-3.125-1.542-5.208-1.542s-4.688.514-6.25 2.056c-1.563 2.055-2.084 4.111-2.084 6.681 0 2.056 1.042 3.598 2.605 5.14 2.083 2.056 7.291 5.14 7.291 5.14m-41.146 17.99-11.979 15.419s0 4.111 1.042 5.653c1.562 2.57 3.646 4.112 5.73 5.654l1.04 21.587-11.458 19.532-1.041.514 7.291 3.597h1.042c4.167 0 6.771-5.14 10.938-7.195 4.687-2.57 9.895-5.14 15.104-7.196 16.146-7.196 32.812-11.822 50-15.42 9.896-1.027 19.791-1.541 29.687-1.027 6.25.514 19.271 3.597 19.271 3.597s13.021-3.083 19.792-3.597c19.27-1.028 39.062 1.542 57.812 8.223 12.5 4.112 25 9.252 36.459 15.42 4.166 2.056 6.77 6.681 10.937 7.195h1.042l7.291-4.111h-1.041l-11.459-19.532 1.042-21.587s4.688-3.084 5.73-5.654c1.041-1.542 1.041-5.653 1.041-5.653l-11.98-15.42s-6.25 5.654-9.895 7.196c-2.083.514-4.167.514-6.77 0-2.084-1.028-4.168-3.084-6.25-4.626-4.688-3.598-8.855-7.71-13.022-11.821-2.083-3.084-3.646-5.654-5.208-8.738 0 0-13.02 9.765-20.833 11.821-7.292 2.056-15.625 1.542-23.438-.514-1.562-.514-4.687-3.083-4.687-3.083-7.813-5.654-17.188-8.224-26.563-7.71-9.375-.514-18.75 2.056-26.562 7.71 0 0-3.125 2.57-4.688 3.083-7.812 2.57-16.146 2.57-23.958.514-7.292-3.083-14.063-7.195-20.313-11.821 0 0-3.125 5.654-5.208 8.738-4.167 4.111-8.333 8.223-13.02 11.821-2.084 1.542-4.168 3.598-6.25 4.626-2.605.514-4.688.514-6.772 0-3.646-2.056-6.77-4.112-9.896-7.196" style="fill-rule:nonzero;fill:#ce9d09;fill-opacity:1;stroke-width:3.2;stroke-linecap:round;stroke-linejoin:round;stroke:#000;stroke-opacity:1;stroke-miterlimit:4" transform="matrix(.0075 0 0 .0076 4.805 0)"/><path d="M1985.937 796.155s.521-5.653 0-8.223c-1.041-2.57-2.083-5.14-3.125-7.196-1.562-2.056-5.729-5.654-5.729-5.654m-1.562 27.755s3.125 0 4.687-.514c2.604-1.542 6.25-6.682 6.25-6.682s6.771 4.626 10.417 4.112c1.562 0 3.125-1.542 4.167-3.598 1.041-1.542 1.562-3.597 1.041-5.653 0-1.542-1.562-2.57-2.604-3.598-2.604-2.056-6.25-1.542-7.812-4.112-1.563-2.056-.521-4.626 0-7.196 1.562-4.626 4.687-8.737 7.291-12.85 2.084-2.57 5.73-4.111 5.73-7.195.52-1.542-2.084-4.626-2.084-4.626s-5.208 0-7.292.514c-4.166 1.028-8.333 3.084-11.458 6.168-2.604 2.57-3.125 6.168-4.167 9.766-1.041 2.57-2.604 7.71-2.604 7.71s-5.729 0-8.854 1.027c-3.646 1.542-6.77 4.112-8.333 7.71-1.563 2.57-1.042 6.168 0 9.252 1.041 3.083 3.125 5.14 5.729 6.681 3.125 2.056 9.896 3.084 9.896 3.084m-234.896-27.755s-4.167 3.598-5.208 5.654c-1.563 2.056-2.605 4.626-3.646 7.196-.521 2.57 0 8.223 0 8.223m-16.667-45.23s-2.604 3.084-2.083 4.626c.52 3.084 3.646 5.14 5.729 7.196 2.604 4.112 5.73 8.223 7.292 12.85.52 2.57 1.562 5.139 0 7.195-1.042 2.57-5.209 2.57-7.813 4.112-1.042 1.028-2.083 2.056-2.604 3.598-.52 2.056 0 4.111 1.042 5.653 1.041 2.056 2.604 3.598 4.166 3.598 3.646.514 10.417-4.112 10.417-4.112s3.646 5.14 6.25 6.682c1.042.514 4.687.514 4.687.514s6.771-1.028 9.896-3.084c2.604-1.542 4.688-4.112 5.73-6.681 1.041-3.084 1.562-6.682 0-9.252-1.563-3.598-4.688-6.168-8.334-7.71-2.604-1.028-8.854-1.028-8.854-1.028s-1.563-5.14-2.604-7.71c-1.042-3.597-1.563-7.195-4.167-9.765-3.125-3.084-7.292-5.14-11.458-6.168-2.084-.514-7.292-.514-7.292-.514m135.417 14.392 8.333-2.57 8.333 2.57m-14.583 20.045s-6.25-6.168-7.812-9.766c-.521-2.056 0-4.112.52-5.654 1.042-2.055 5.73-4.625 5.73-4.625s-6.771-3.598-8.855-6.682c-1.041-2.056-1.041-4.112-.52-6.168 1.041-3.598 3.125-6.168 5.729-8.224 3.646-2.57 11.458-5.14 11.458-5.14s7.813 2.57 11.458 5.14c2.605 2.056 4.688 4.626 5.73 8.224.52 2.056.52 4.112-.521 6.168-2.084 3.084-9.375 6.682-9.375 6.682s5.208 2.57 6.25 4.625c1.041 1.542 1.041 3.598.52 5.654-1.562 3.598-7.812 9.766-7.812 9.766l-6.25.514Zm22.917-26.727s13.02 5.654 17.708 10.793c1.563 1.542 2.604 3.598 2.604 5.654-.52 6.682-10.416 17.99-10.416 17.99l-20.313-8.224h-12.5l-20.312 8.224s-9.896-11.308-9.896-17.99c-.521-2.056 1.041-4.112 2.083-5.654 4.167-5.14 17.708-10.793 17.708-10.793" style="fill-rule:nonzero;fill:#ce9d09;fill-opacity:1;stroke-width:3.2;stroke-linecap:round;stroke-linejoin:round;stroke:#000;stroke-opacity:1;stroke-miterlimit:4" transform="matrix(.0075 0 0 .0076 4.805 0)"/><path d="m1844.27 669.202 8.334-6.167h6.25-6.77s-3.126-2.57-4.167-4.112c-1.042-2.056-1.563-4.112-1.042-6.168.52-2.57 2.083-5.654 4.167-6.682 2.604-1.542 7.812-.514 7.812-.514s5.73-1.028 7.813.514c2.083 1.028 3.645 4.112 4.687 6.682 0 2.056 0 4.112-1.042 6.168-1.041 1.542-4.687 4.112-4.687 4.112h-6.77 6.25l8.332 6.167m52.605 5.14-2.605 4.626m32.292-20.045-7.292 1.028m8.334 8.737-11.459.514m-1.562-13.363c1.562.514 4.167 2.57 4.687 4.112.521 3.598-.52 7.195-3.125 9.251-2.083 2.056-9.375 1.542-9.375 1.542m-181.77 33.923 17.187-4.112c7.813-2.056 16.146-4.626 24.48-6.168 8.853-1.542 18.228-2.57 27.603-3.084 11.98-1.028 35.417-1.028 35.417-1.028s23.438 0 35.417 1.028c9.375.514 18.75 1.542 27.604 3.084 8.333 1.542 16.667 4.112 24.48 6.168l17.187 4.112m-171.875-30.325 2.604 4.626m-32.292-20.045 7.292 1.028m-8.334 8.737 11.459.514m-6.25 16.448s12.5-3.598 18.75-4.626c6.77-1.542 14.062-2.57 20.833-3.598 7.813-1.028 16.146-2.056 24.48-2.056 9.374-.514 28.645-.514 28.645-.514s19.271 0 29.167.514c15.104.514 30.208 2.57 44.791 5.654 6.25 1.028 19.271 4.626 19.271 4.626m-170.312-14.906s-6.771.514-9.375-1.028c-2.604-2.056-4.167-6.167-3.125-9.251.52-2.57 5.729-5.14 5.729-5.14m63.02 74.013c-11.978.514-23.958 1.028-35.937 3.598-12.5 2.056-24.479 5.14-35.937 9.765-11.459 3.598-22.917 22.616-32.292 14.906-2.083-1.542.521-5.14 1.563-7.196 2.083-4.626 4.687-8.737 7.812-12.85 2.604-2.57 7.813-3.083 8.333-6.681.521-2.57-3.125-3.598-4.166-6.168-1.042-3.598-1.042-6.682-.521-10.28 1.562-4.111 6.77-6.167 7.812-10.279 1.042-3.598-2.604-7.71-1.041-11.308 2.604-4.111 11.458-2.57 11.979-7.195.52-2.57-3.646-3.084-4.167-5.14-.52-1.542 0-3.084 0-5.14s.521-4.626-.52-6.168c-1.042-2.056-3.646-2.056-4.167-4.112s0-4.111 1.041-5.653c1.042-1.028 3.646.514 4.167-.514 1.563-2.57-2.604-5.654-3.646-8.224-1.562-3.084-3.125-6.168-4.166-9.766-.521-2.57-2.605-6.681-.521-8.223 3.125-1.542 5.729 3.084 8.333 5.14 3.125 2.57 6.771 4.625 9.375 8.223 1.563 2.57.521 6.682 3.125 8.738 2.604 2.57 7.292.514 10.417 2.57 2.083 2.056 4.166 5.654 3.646 8.737s-7.813 3.084-7.292 5.654c1.042 3.598 7.292 3.084 10.417 2.57 2.083 0 3.645-2.056 5.208-3.598 1.562-.514 2.604-2.056 4.167-2.57 1.562-1.028 5.208-1.028 5.208-1.028l-2.083-.514s-3.125-2.57-3.646-4.111c0-2.056.52-3.598 1.562-5.14 1.563-1.542 3.646-2.056 5.73-2.056 1.562 0 3.645.514 4.687 1.542 1.042 1.542 1.562 3.084 1.562 5.14 0 1.542-1.041 2.57-2.083 3.597q-2.343 1.542-4.687 1.542l2.083.514 6.25 8.738 26.562-1.542s3.125-3.598 2.605-5.14c-.521-2.056-2.605-3.084-5.73-2.57-8.333 0-10.416-7.195-9.895-12.335 0-4.112 5.208-7.196 9.375-8.738s10.937 3.598 12.5 0c1.562-3.598-5.73-5.14-6.771-8.737a7.04 7.04 0 0 1 0-4.626c2.083-3.598 5.729-6.168 9.375-7.71 1.562-1.028 5.208-1.028 5.208-1.028s3.646 0 5.208 1.028c3.646 1.542 7.292 4.112 9.375 7.71a7.04 7.04 0 0 1 0 4.626c-1.041 3.597-8.333 5.14-6.77 8.737 1.562 3.598 8.333-1.542 12.5 0 3.645 1.542 9.375 4.626 9.375 8.738.52 5.14-1.563 12.335-9.896 12.335-3.125-.514-5.209.514-5.73 2.57-.52 1.542 2.605 5.14 2.605 5.14l26.562 1.542 6.25-8.738 2.084-.514s-3.125-.514-4.167-1.542c-1.563-1.028-2.083-2.055-2.604-3.597 0-2.056.52-3.598 1.562-5.14 1.042-1.028 3.125-1.542 4.688-1.542 2.083 0 4.166.514 5.729 2.056 1.042 1.028 1.562 3.084 1.562 5.14-.52 1.541-3.645 4.111-3.645 4.111l-2.084.514s3.646 0 5.209 1.028c1.562.514 2.604 2.056 4.166 2.57 1.563 1.542 3.125 3.084 5.209 3.598 3.125.514 9.375 1.028 9.895-2.57 1.042-3.084-5.729-2.57-6.77-5.654-.521-3.083 1.562-6.681 3.645-8.737 3.125-2.056 8.334 0 10.938-2.57 2.083-2.056 1.042-6.168 2.604-8.738 2.604-3.598 6.25-5.654 9.375-8.223 2.604-2.056 5.73-6.682 8.333-5.14 2.084 1.542 0 5.653-.52 8.223-1.042 3.598-2.605 6.682-4.167 9.766-1.042 2.57-5.208 5.654-3.646 8.224.521 1.028 3.125-.514 4.167.514 1.041 1.542 1.562 3.598 1.041 5.653-.52 2.056-3.125 2.056-4.166 4.112-1.042 1.542-.521 4.112-.521 6.168s.52 3.598 0 5.14c-.52 2.056-4.688 2.57-4.167 5.14.521 4.625 9.896 3.084 11.98 7.195 1.562 3.598-2.084 7.71-1.042 11.308 1.041 4.112 6.25 6.168 7.812 10.28 1.042 3.083.521 6.681-.52 10.28-1.042 2.055-4.688 3.597-4.167 6.167.52 3.598 5.729 4.112 8.333 6.682 3.125 3.598 5.73 8.223 7.813 12.85 1.041 2.055 3.645 5.653 1.562 7.195-9.375 7.71-20.833-10.794-31.77-14.906-23.438-8.737-47.397-13.363-72.397-13.363-6.77-.514-20.833-.514-20.833-.514s-14.062 0-20.833.514m30.729-134.149-9.896.514-9.896-.514m16.667-33.923c2.604-5.14-2.083-9.251-6.77-13.363-4.688 3.598-9.376 8.224-6.772 13.363m14.063 47.287c4.166 0 8.854 4.111 11.458 1.542 1.563-1.542 1.042-3.598 0-5.14-1.562-4.112-8.333-5.14-8.333-9.252-.521-3.084 4.687-5.14 6.25-8.224.52-2.055.52-3.597 0-5.14-3.125-6.681-14.584-7.195-16.667-13.877-1.042-3.084 5.73-6.682 6.771-7.196 4.167-1.541 9.896 3.084 14.062 1.028 3.125-1.028 6.25-4.111 5.73-7.195 0-3.598-3.646-6.168-6.771-7.71-5.73-2.57-16.146 6.168-19.792.514-3.646-5.14 8.854-11.308 6.771-16.961-.52-3.084-6.77-5.654-6.77-5.654s-6.25 2.57-6.772 5.654c-1.562 5.653 10.417 11.821 6.771 16.961-3.646 5.654-13.542-3.084-19.792-.514-3.125 1.542-6.77 4.112-6.77 7.71 0 3.084 3.125 5.653 5.729 7.195 4.166 2.056 9.896-2.57 14.062-1.028 1.042.514 7.813 4.112 6.771 7.196-2.083 6.682-13.542 6.682-16.667 13.878-.52 1.542-.52 3.597 0 5.14 1.563 3.083 6.771 5.14 6.771 8.223-.52 4.112-7.291 5.14-8.854 9.252-1.042 1.542-1.562 3.598 0 5.14 3.125 2.57 7.813-1.542 11.458-1.542 2.605-.514 7.292 0 7.292 0s4.688-.514 7.292 0" style="fill-rule:nonzero;fill:#ce9d09;fill-opacity:1;stroke-width:3.2;stroke-linecap:round;stroke-linejoin:round;stroke:#000;stroke-opacity:1;stroke-miterlimit:4" transform="matrix(.0075 0 0 .0076 4.805 0)"/><path d="M1953.646 953.433s-7.292-3.084-10.938-4.111c-6.25-2.57-13.02-4.626-19.791-6.682-6.771-1.542-13.021-3.598-19.792-4.626-14.583-1.542-44.27 0-44.27 0s-29.168-1.542-43.75 0c-6.772 1.028-13.543 3.084-20.313 4.626-10.417 3.084-20.834 6.682-30.73 10.793m202.084-222.553s-11.98-4.626-18.23-6.682c-5.208-2.056-10.416-3.598-15.624-5.14a116 116 0 0 0-19.271-3.083c-17.709-2.57-35.938-3.598-54.167-3.598 0 0-17.187 0-25.52.514-16.147 1.028-32.292 3.084-47.917 6.167-5.209 1.542-10.417 3.084-15.625 5.14-6.25 2.056-17.709 6.682-17.709 6.682M1737.5 851.15s17.708-5.653 26.562-8.223c9.375-3.084 18.23-6.168 27.605-8.224 10.937-2.57 22.395-3.598 33.854-5.14 10.937-1.028 33.333-2.056 33.333-2.056s22.396 1.028 33.333 2.056c11.459 1.542 22.917 2.57 33.855 5.14 9.375 2.056 18.229 5.14 27.604 8.224l26.562 8.223" style="fill:none;stroke-width:3.2;stroke-linecap:round;stroke-linejoin:round;stroke:#000;stroke-opacity:1;stroke-miterlimit:4" transform="matrix(.0075 0 0 .0076 4.805 0)"/><path d="m1533.333 904.091 101.042 86.863s-5.208 10.794-7.292 16.961c-5.208 12.85-8.333 26.727-9.375 41.119L1500 940.584c1.562-24.671 15.625-33.409 33.333-36.493Zm0 0" style="fill-rule:nonzero;fill:#ccc;fill-opacity:1;stroke-width:3.2;stroke-linecap:butt;stroke-linejoin:round;stroke:#000;stroke-opacity:1;stroke-miterlimit:4" transform="matrix(.0075 0 0 .0076 4.805 0)"/><path d="m1518.75 958.06-23.958 27.24 15.104 14.906-23.438 22.615-15.104-14.906-25.52 27.241-.522 33.409 58.334 45.744 19.791-14.905-1.041-32.381 15.625 8.224 15.625-9.252.52 29.297-12.5-9.252-13.541 17.99-1.563 31.866 43.75 39.063 53.125-46.772-4.166-14.392-2.084-12.85-1.562-24.67 2.083-27.755Zm0 0" style="fill-rule:nonzero;fill:#ccc;fill-opacity:1;stroke-width:3.2;stroke-linecap:butt;stroke-linejoin:round;stroke:#000;stroke-opacity:1;stroke-miterlimit:4" transform="matrix(.0075 0 0 .0076 4.805 0)"/><path d="m1494.792 985.3-.521 30.325 15.625-15.42Zm0 0" style="fill-rule:nonzero;fill:#ccc;fill-opacity:1;stroke-width:3.2;stroke-linecap:butt;stroke-linejoin:round;stroke:#000;stroke-opacity:1;stroke-miterlimit:4" transform="matrix(.0075 0 0 .0076 4.805 0)"/><path d="m1571.875 1140.522-1.563 33.923m-18.75-139.289.521 31.867m-14.583-17.475.52 25.699m-14.062-36.493.521 29.297m-21.354 14.905v30.84m25-9.766 43.75 37.006 45.312-39.576m-171.354-66.818 57.813 49.342 18.75-16.961-15.104-12.85 16.666-15.419 13.021 10.794 14.583-14.392 19.271 17.99-17.187 13.363 15.625 14.905-15.104 13.878" style="fill:none;stroke-width:3.2;stroke-linecap:butt;stroke-linejoin:round;stroke:#000;stroke-opacity:1;stroke-miterlimit:4" transform="matrix(.0075 0 0 .0076 4.805 0)"/><path d="m1901.042 1229.44 48.958 44.203 10.937 31.867-63.02-6.682-35.417-35.465-38.02-34.95-164.063-142.373s3.645-12.85 5.729-19.531c3.125-9.252 6.77-18.503 10.416-27.24l3.125-7.197L1862.5 1194.49Zm0 0" style="fill-rule:nonzero;fill:#ccc;fill-opacity:1;stroke-width:3.2;stroke-linecap:butt;stroke-linejoin:round;stroke:#000;stroke-opacity:1;stroke-miterlimit:4" transform="matrix(.0075 0 0 .0076 4.805 0)"/><path d="M1942.708 1236.123c27.084 38.034 72.917 73.499 86.459 90.974 14.062 16.961 22.916 33.409 2.604 55.51-20.313 21.587-43.23 9.252-60.938-2.57-18.229-12.336-49.479-51.398-94.791-81.723Zm0 0" style="fill-rule:nonzero;fill:#ccc;fill-opacity:1;stroke-width:3.2;stroke-linecap:butt;stroke-linejoin:round;stroke:#000;stroke-opacity:1;stroke-miterlimit:4" transform="matrix(.0075 0 0 .0076 4.805 0)"/><path d="m1926.562 1299.856-34.895-15.933m40.625-38.549c2.604 8.224.52 16.962 3.645 24.671 3.125 7.71 14.063 20.045 14.063 20.045s-6.77 1.028-10.417 2.056c-4.687 2.056-11.979 2.57-13.02 7.71-1.042 4.112 4.166 8.224 7.291 11.308s6.25 5.653 10.417 7.71c5.729 3.597 11.979 7.195 19.27 8.737 8.855 1.542 25-10.794 26.563-2.056.521 3.598-7.292 1.542-10.937 3.084-7.813 3.598-11.459 11.822-4.688 17.99 4.688 3.597 11.458 2.055 17.188 2.57 5.208.513 11.458-2.57 16.666 0 5.209 3.083 12.5 11.307 9.375 16.96-3.125 6.168-14.583 5.654-19.791 2.056-4.167-3.083-3.125-9.765-3.646-14.391v-4.626M2284.375 1480.263c0-71.957-57.813-130.037-129.688-130.037S2025 1408.306 2025 1480.263c0 71.443 57.812 129.523 129.687 129.523s129.688-58.08 129.688-129.523Zm0 0" style="fill-rule:nonzero;fill:#ccc;fill-opacity:1;stroke-width:3.2;stroke-linecap:butt;stroke-linejoin:round;stroke:#000;stroke-opacity:1;stroke-miterlimit:4" transform="matrix(.0075 0 0 .0076 4.805 0)"/><path d="M2106.25 1485.917c-22.396 0-40.625 17.99-40.625 40.09 0 22.616 18.23 40.605 40.625 40.605 22.396 0 40.625-17.99 40.104-40.605l14.063-.514c0 22.616 18.229 40.605 40.625 40.605 22.395 0 40.625-17.99 40.625-40.605s-18.23-40.604-40.625-40.604l.52-7.71c22.396 0 40.625-17.989 40.625-40.604 0-22.101-18.229-40.605-40.625-40.605-22.395 0-40.104 18.504-40.104 40.605l-14.062-1.028c0-22.615-18.23-40.605-40.625-40.605-22.396 0-40.625 17.99-40.625 40.605 0 22.101 18.229 40.604 40.625 40.604Zm0 0" style="fill-rule:nonzero;fill:#fff;fill-opacity:1;stroke-width:3.2;stroke-linecap:butt;stroke-linejoin:round;stroke:#000;stroke-opacity:1;stroke-miterlimit:4" transform="matrix(.0075 0 0 .0076 4.805 0)"/><path d="M2169.27 1446.34c0-8.223-6.25-14.905-14.583-14.905-7.812 0-14.583 6.682-14.583 14.905 0 7.71 6.771 14.392 14.583 14.392 8.334 0 14.584-6.682 14.584-14.392ZM2204.167 1480.263c0-8.224-6.771-14.905-14.584-14.905-8.333 0-14.583 6.681-14.583 14.905 0 7.71 6.25 14.392 14.583 14.392 7.813 0 14.584-6.682 14.584-14.392ZM2169.792 1511.102c0-7.71-6.25-14.391-14.584-14.391-7.812 0-14.583 6.681-14.583 14.391 0 8.224 6.77 14.905 14.583 14.905 8.334 0 14.584-6.681 14.584-14.905ZM2133.854 1480.263c0-8.224-6.25-14.905-14.583-14.905-7.813 0-14.584 6.681-14.584 14.905 0 7.71 6.771 14.392 14.584 14.392 8.333 0 14.583-6.682 14.583-14.392Zm0 0" style="fill-rule:nonzero;fill:#ccc;fill-opacity:1;stroke-width:3.2;stroke-linecap:butt;stroke-linejoin:round;stroke:#000;stroke-opacity:1;stroke-miterlimit:4" transform="matrix(.0075 0 0 .0076 4.805 0)"/><path d="M2152.083 1558.388c-5.208 10.794-12.5 15.934-21.875 22.101 14.063 5.14 29.688 5.14 43.75 0-9.375-5.14-16.666-12.85-21.875-22.1Zm-76.562-80.18c-10.938-5.14-15.625-12.85-21.875-22.102-5.209 14.392-5.209 29.81 0 44.202 5.208-9.251 12.5-16.961 21.875-22.1Zm159.375 3.597c10.937-5.14 16.146-12.85 21.875-22.101 5.208 14.391 5.208 29.81 0 44.202-4.688-9.251-11.98-15.933-21.875-22.1Zm-78.646-80.695c-5.208-11.307-12.5-15.933-21.875-22.101 14.062-5.14 29.687-5.14 44.27 0-9.374 5.14-17.187 12.85-22.395 22.101Zm0 0" style="fill-rule:nonzero;fill:#fff;fill-opacity:1;stroke-width:3.2;stroke-linecap:butt;stroke-linejoin:round;stroke:#000;stroke-opacity:1;stroke-miterlimit:4" transform="matrix(.0075 0 0 .0076 4.805 0)"/><path d="M1533.333 903.577s1.042-4.626 0-7.195c-1.041-4.112-3.125-7.196-6.25-10.28q-3.906-3.084-9.375-4.626c-6.25-.514-12.5.514-17.708 4.112l-15.104 6.168-5.209 17.99s-3.645 5.653-4.166 8.737c-1.042 3.084-1.042 6.681-.521 9.765 1.042 4.112 3.125 7.71 6.25 10.28s6.77 4.112 10.417 4.112c2.604 0 5.729-1.028 8.333-2.056 1.562-18.503 9.896-32.38 33.333-36.493Zm0 0" style="fill-rule:nonzero;fill:#ce9d09;fill-opacity:1;stroke-width:3.2;stroke-linecap:butt;stroke-linejoin:round;stroke:#000;stroke-opacity:1;stroke-miterlimit:4" transform="matrix(.0075 0 0 .0076 4.805 0)"/><path d="m1500.52 885.588-39.062-16.961-3.125 3.084 20.834 38.034s6.25-8.738 9.375-12.85c3.645-4.111 11.979-11.307 11.979-11.307Zm0 0" style="fill-rule:nonzero;fill:#ce9d09;fill-opacity:1;stroke-width:3.2;stroke-linecap:butt;stroke-linejoin:round;stroke:#000;stroke-opacity:1;stroke-miterlimit:4" transform="matrix(.0075 0 0 .0076 4.805 0)"/><path d="M1473.437 865.543c0-9.252-7.291-16.448-16.145-16.448-8.855 0-16.146 7.196-16.146 16.448 0 8.737 7.291 15.933 16.146 15.933 8.854 0 16.145-7.196 16.145-15.933ZM1566.146 932.36c3.646 27.755 7.291 56.024 16.146 83.779l30.729 28.269c-6.25-29.297-18.23-58.08-18.23-87.377Zm0 0" style="fill-rule:nonzero;fill:#ce9d09;fill-opacity:1;stroke-width:3.2;stroke-linecap:butt;stroke-linejoin:round;stroke:#000;stroke-opacity:1;stroke-miterlimit:4" transform="matrix(.0075 0 0 .0076 4.805 0)"/><path d="m1613.02 972.45-85.416-6.681 27.083 25.185 78.125 3.598 1.042-4.112Zm105.21 94.573c-17.188 6.168-31.25 19.531-37.5 37.007-6.772.514-12.5.514-14.584-4.112 2.083-21.073 16.146-39.577 35.416-47.8 15.105-2.57 12.5 8.737 16.667 14.905Zm27.603 25.699c-17.708 6.168-31.25 20.045-38.02 37.52-6.25.515-11.98.515-14.063-4.111 2.083-21.587 16.146-39.577 35.417-47.8 15.104-3.084 12.5 8.737 16.666 14.391Zm313.021 262.13c-5.208 0-10.417.514-15.104 1.542 0 7.71-3.125 16.447-11.98 26.213-5.728 6.682-14.583 11.307-23.437 11.821 0 0-3.125 17.476 2.604 23.13 6.25 6.681 27.084 4.111 27.084 4.111l1.562-1.028c7.813-15.419 18.75-28.782 31.771-40.09l.521-1.028s3.125-16.447-2.083-21.587c-2.605-2.57-6.771-3.084-10.938 0ZM2272.396 1375.411c0-9.765-8.334-17.475-17.709-17.475-9.895 0-17.708 7.71-17.708 17.475s7.813 17.476 17.708 17.476c9.375 0 17.709-7.71 17.709-17.476ZM2278.125 1579.975c0-9.765-7.813-17.475-17.708-17.475-9.375 0-17.709 7.71-17.709 17.475s8.334 17.476 17.709 17.476c9.895 0 17.708-7.71 17.708-17.476ZM2079.687 1591.797c0-9.766-7.812-17.99-17.708-17.99s-17.708 8.224-17.708 17.99 7.812 17.475 17.708 17.475 17.708-7.71 17.708-17.475Zm0 0" style="fill-rule:nonzero;fill:#ce9d09;fill-opacity:1;stroke-width:3.2;stroke-linecap:butt;stroke-linejoin:round;stroke:#000;stroke-opacity:1;stroke-miterlimit:4" transform="matrix(.0075 0 0 .0076 4.805 0)"/><path d="m1533.333 904.091 101.042 86.863s-5.208 10.794-7.292 16.961c-5.208 12.85-8.333 26.727-9.375 41.119L1500 940.584c1.562-24.671 15.625-33.409 33.333-36.493Zm0 0" style="fill-rule:nonzero;fill:#ce9d09;fill-opacity:1;stroke-width:3.2;stroke-linecap:butt;stroke-linejoin:round;stroke:#000;stroke-opacity:1;stroke-miterlimit:4" transform="matrix(-.0075 0 0 .0076 32.695 0)"/><path d="m1518.75 958.06-23.958 27.24 15.104 14.906-23.438 22.615-15.104-14.906-25.52 27.241-.522 33.409 58.334 45.744 19.791-14.905-1.041-32.381 15.625 8.224 15.625-9.252.52 29.297-12.5-9.252-13.541 17.99-1.563 31.866 43.75 39.063 53.125-46.772-4.166-14.392-2.084-12.85-1.562-24.67 2.083-27.755Zm0 0" style="fill-rule:nonzero;fill:#ce9d09;fill-opacity:1;stroke-width:3.2;stroke-linecap:butt;stroke-linejoin:round;stroke:#000;stroke-opacity:1;stroke-miterlimit:4" transform="matrix(-.0075 0 0 .0076 32.695 0)"/><path d="m1494.792 985.3-.521 30.325 15.625-15.42Zm0 0" style="fill-rule:nonzero;fill:#ce9d09;fill-opacity:1;stroke-width:3.2;stroke-linecap:butt;stroke-linejoin:round;stroke:#000;stroke-opacity:1;stroke-miterlimit:4" transform="matrix(-.0075 0 0 .0076 32.695 0)"/><path d="m1571.875 1140.522-1.563 33.923m-18.75-139.289.521 31.867m-14.583-17.475.52 25.699m-14.062-36.493.521 29.297m-21.354 14.905v30.84m25-9.766 43.75 37.006 45.312-39.576m-171.354-66.818 57.813 49.342 18.75-16.961-15.104-12.85 16.666-15.419 13.021 10.794 14.583-14.392 19.271 17.99-17.187 13.363 15.625 14.905-15.104 13.878" style="fill:none;stroke-width:3.2;stroke-linecap:butt;stroke-linejoin:round;stroke:#000;stroke-opacity:1;stroke-miterlimit:4" transform="matrix(-.0075 0 0 .0076 32.695 0)"/><path d="m1901.042 1229.44 48.958 44.203 10.937 31.867-63.02-6.682-35.417-35.465-38.02-34.95-164.063-142.373s3.645-12.85 5.729-19.531c3.125-9.252 6.77-18.503 10.416-27.24l3.125-7.197L1862.5 1194.49Zm0 0" style="fill-rule:nonzero;fill:#ce9d09;fill-opacity:1;stroke-width:3.2;stroke-linecap:butt;stroke-linejoin:round;stroke:#000;stroke-opacity:1;stroke-miterlimit:4" transform="matrix(-.0075 0 0 .0076 32.695 0)"/><path d="M1942.708 1236.123c27.084 38.034 72.917 73.499 86.459 90.974 14.062 16.961 22.916 33.409 2.604 55.51-20.313 21.587-43.23 9.252-60.938-2.57-18.229-12.336-49.479-51.398-94.791-81.723Zm0 0" style="fill-rule:nonzero;fill:#ce9d09;fill-opacity:1;stroke-width:3.2;stroke-linecap:butt;stroke-linejoin:round;stroke:#000;stroke-opacity:1;stroke-miterlimit:4" transform="matrix(-.0075 0 0 .0076 32.695 0)"/><path d="m1926.562 1299.856-34.895-15.933m40.625-38.549c2.604 8.224.52 16.962 3.645 24.671 3.125 7.71 14.063 20.045 14.063 20.045s-6.77 1.028-10.417 2.056c-4.687 2.056-11.979 2.57-13.02 7.71-1.042 4.112 4.166 8.224 7.291 11.308s6.25 5.653 10.417 7.71c5.729 3.597 11.979 7.195 19.27 8.737 8.855 1.542 25-10.794 26.563-2.056.521 3.598-7.292 1.542-10.937 3.084-7.813 3.598-11.459 11.822-4.688 17.99 4.688 3.597 11.458 2.055 17.188 2.57 5.208.513 11.458-2.57 16.666 0 5.209 3.083 12.5 11.307 9.375 16.96-3.125 6.168-14.583 5.654-19.791 2.056-4.167-3.083-3.125-9.765-3.646-14.391v-4.626M2284.375 1480.263c0-71.957-57.813-130.037-129.688-130.037S2025 1408.306 2025 1480.263c0 71.443 57.812 129.523 129.687 129.523s129.688-58.08 129.688-129.523Zm0 0" style="fill-rule:nonzero;fill:#ce9d09;fill-opacity:1;stroke-width:3.2;stroke-linecap:butt;stroke-linejoin:round;stroke:#000;stroke-opacity:1;stroke-miterlimit:4" transform="matrix(-.0075 0 0 .0076 32.695 0)"/><path d="M2106.25 1485.917c-22.396 0-40.625 17.99-40.625 40.09 0 22.616 18.23 40.605 40.625 40.605 22.396 0 40.625-17.99 40.104-40.605l14.063-.514c0 22.616 18.229 40.605 40.625 40.605 22.395 0 40.625-17.99 40.625-40.605s-18.23-40.604-40.625-40.604l.52-7.71c22.396 0 40.625-17.989 40.625-40.604 0-22.101-18.229-40.605-40.625-40.605-22.395 0-40.104 18.504-40.104 40.605l-14.062-1.028c0-22.615-18.23-40.605-40.625-40.605-22.396 0-40.625 17.99-40.625 40.605 0 22.101 18.229 40.604 40.625 40.604Zm0 0" style="fill-rule:nonzero;fill:#fff;fill-opacity:1;stroke-width:3.2;stroke-linecap:butt;stroke-linejoin:round;stroke:#000;stroke-opacity:1;stroke-miterlimit:4" transform="matrix(-.0075 0 0 .0076 32.695 0)"/><path d="M2169.27 1446.34c0-8.223-6.25-14.905-14.583-14.905-7.812 0-14.583 6.682-14.583 14.905 0 7.71 6.771 14.392 14.583 14.392 8.334 0 14.584-6.682 14.584-14.392ZM2204.167 1480.263c0-8.224-6.771-14.905-14.584-14.905-8.333 0-14.583 6.681-14.583 14.905 0 7.71 6.25 14.392 14.583 14.392 7.813 0 14.584-6.682 14.584-14.392ZM2169.792 1511.102c0-7.71-6.25-14.391-14.584-14.391-7.812 0-14.583 6.681-14.583 14.391 0 8.224 6.77 14.905 14.583 14.905 8.334 0 14.584-6.681 14.584-14.905ZM2133.854 1480.263c0-8.224-6.25-14.905-14.583-14.905-7.813 0-14.584 6.681-14.584 14.905 0 7.71 6.771 14.392 14.584 14.392 8.333 0 14.583-6.682 14.583-14.392Zm0 0" style="fill-rule:nonzero;fill:#ce9d09;fill-opacity:1;stroke-width:3.2;stroke-linecap:butt;stroke-linejoin:round;stroke:#000;stroke-opacity:1;stroke-miterlimit:4" transform="matrix(-.0075 0 0 .0076 32.695 0)"/><path d="M2152.083 1558.388c-5.208 10.794-12.5 15.934-21.875 22.101 14.063 5.14 29.688 5.14 43.75 0-9.375-5.14-16.666-12.85-21.875-22.1Zm-76.562-80.18c-10.938-5.14-15.625-12.85-21.875-22.102-5.209 14.392-5.209 29.81 0 44.202 5.208-9.251 12.5-16.961 21.875-22.1Zm159.375 3.597c10.937-5.14 16.146-12.85 21.875-22.101 5.208 14.391 5.208 29.81 0 44.202-4.688-9.251-11.98-15.933-21.875-22.1Zm-78.646-80.695c-5.208-11.307-12.5-15.933-21.875-22.101 14.062-5.14 29.687-5.14 44.27 0-9.374 5.14-17.187 12.85-22.395 22.101Zm0 0" style="fill-rule:nonzero;fill:#fff;fill-opacity:1;stroke-width:3.2;stroke-linecap:butt;stroke-linejoin:round;stroke:#000;stroke-opacity:1;stroke-miterlimit:4" transform="matrix(-.0075 0 0 .0076 32.695 0)"/><path d="M1533.333 903.577s1.042-4.626 0-7.195c-1.041-4.112-3.125-7.196-6.25-10.28q-3.906-3.084-9.375-4.626c-6.25-.514-12.5.514-17.708 4.112l-15.104 6.168-5.209 17.99s-3.645 5.653-4.166 8.737c-1.042 3.084-1.042 6.681-.521 9.765 1.042 4.112 3.125 7.71 6.25 10.28s6.77 4.112 10.417 4.112c2.604 0 5.729-1.028 8.333-2.056 1.562-18.503 9.896-32.38 33.333-36.493Zm0 0" style="fill-rule:nonzero;fill:#ccc;fill-opacity:1;stroke-width:3.2;stroke-linecap:butt;stroke-linejoin:round;stroke:#000;stroke-opacity:1;stroke-miterlimit:4" transform="matrix(-.0075 0 0 .0076 32.695 0)"/><path d="m1500.52 885.588-39.062-16.961-3.125 3.084 20.834 38.034s6.25-8.738 9.375-12.85c3.645-4.111 11.979-11.307 11.979-11.307Zm0 0" style="fill-rule:nonzero;fill:#ccc;fill-opacity:1;stroke-width:3.2;stroke-linecap:butt;stroke-linejoin:round;stroke:#000;stroke-opacity:1;stroke-miterlimit:4" transform="matrix(-.0075 0 0 .0076 32.695 0)"/><path d="M1473.437 865.543c0-9.252-7.291-16.448-16.145-16.448-8.855 0-16.146 7.196-16.146 16.448 0 8.737 7.291 15.933 16.146 15.933 8.854 0 16.145-7.196 16.145-15.933ZM1566.146 932.36c3.646 27.755 7.291 56.024 16.146 83.779l30.729 28.269c-6.25-29.297-18.23-58.08-18.23-87.377Zm0 0" style="fill-rule:nonzero;fill:#ccc;fill-opacity:1;stroke-width:3.2;stroke-linecap:butt;stroke-linejoin:round;stroke:#000;stroke-opacity:1;stroke-miterlimit:4" transform="matrix(-.0075 0 0 .0076 32.695 0)"/><path d="m1613.02 972.45-85.416-6.681 27.083 25.185 78.125 3.598 1.042-4.112Zm105.21 94.573c-17.188 6.168-31.25 19.531-37.5 37.007-6.772.514-12.5.514-14.584-4.112 2.083-21.073 16.146-39.577 35.416-47.8 15.105-2.57 12.5 8.737 16.667 14.905Zm27.603 25.699c-17.708 6.168-31.25 20.045-38.02 37.52-6.25.515-11.98.515-14.063-4.111 2.083-21.587 16.146-39.577 35.417-47.8 15.104-3.084 12.5 8.737 16.666 14.391Zm313.021 262.13c-5.208 0-10.417.514-15.104 1.542 0 7.71-3.125 16.447-11.98 26.213-5.728 6.682-14.583 11.307-23.437 11.821 0 0-3.125 17.476 2.604 23.13 6.25 6.681 27.084 4.111 27.084 4.111l1.562-1.028c7.813-15.419 18.75-28.782 31.771-40.09l.521-1.028s3.125-16.447-2.083-21.587c-2.605-2.57-6.771-3.084-10.938 0ZM2272.396 1375.411c0-9.765-8.334-17.475-17.709-17.475-9.895 0-17.708 7.71-17.708 17.475s7.813 17.476 17.708 17.476c9.375 0 17.709-7.71 17.709-17.476ZM2278.125 1579.975c0-9.765-7.813-17.475-17.708-17.475-9.375 0-17.709 7.71-17.709 17.475s8.334 17.476 17.709 17.476c9.895 0 17.708-7.71 17.708-17.476ZM2079.687 1591.797c0-9.766-7.812-17.99-17.708-17.99s-17.708 8.224-17.708 17.99 7.812 17.475 17.708 17.475 17.708-7.71 17.708-17.475Zm0 0" style="fill-rule:nonzero;fill:#ccc;fill-opacity:1;stroke-width:3.2;stroke-linecap:butt;stroke-linejoin:round;stroke:#000;stroke-opacity:1;stroke-miterlimit:4" transform="matrix(-.0075 0 0 .0076 32.695 0)"/><path d="M1869.27 1175.987c0 5.14-4.687 7.196-13.54 7.196q-12.5 0-12.5-7.71c0-8.224 4.166-6.682 12.5-6.682 8.853 0 13.54 1.542 13.54 7.196Zm0 0" style="fill-rule:nonzero;fill:#fa0204;fill-opacity:1;stroke-width:3.2;stroke-linecap:butt;stroke-linejoin:round;stroke:#000;stroke-opacity:1;stroke-miterlimit:4" transform="matrix(.0075 0 0 .0076 4.805 0)"/><path d="M1869.12 1175.564c0 5.654-4.166 7.71-13.02 7.71s-13.02-2.57-13.02-8.224c.52-7.71 4.166-6.681 13.02-6.681s13.02 2.055 13.02 7.195Zm0 0" style="fill-rule:nonzero;fill:#fa0204;fill-opacity:1;stroke-width:3.2;stroke-linecap:butt;stroke-linejoin:round;stroke:#000;stroke-opacity:1;stroke-miterlimit:4" transform="matrix(.0075 0 0 .0076 4.853 .109)"/><path d="M1877.083 1208.882c-1.562 4.625-6.25 5.653-14.583 2.57-8.333-3.084-11.458-6.682-9.375-11.822 1.562-5.14 5.73-5.14 14.062-2.056 8.334 3.084 11.98 6.168 9.896 10.794ZM1877.604 1222.245c-1.042 5.654-6.25 6.682-14.583 5.14-8.334-2.056-11.98-5.14-10.938-10.28 1.042-5.654 5.209-6.168 14.063-4.112 8.333 1.542 12.5 4.112 11.458 9.252Zm0 0" style="fill-rule:nonzero;fill:#fa0204;fill-opacity:1;stroke-width:3.2;stroke-linecap:butt;stroke-linejoin:round;stroke:#000;stroke-opacity:1;stroke-miterlimit:4" transform="matrix(.0075 0 0 .0076 4.805 0)"/><path d="M1877.25 1222.592c-.52 5.14-5.73 6.168-14.063 4.626s-11.979-5.14-10.937-10.28 5.208-5.653 13.542-4.111c8.854 2.056 13.02 4.626 11.458 9.765Zm0 0" style="fill-rule:nonzero;fill:#fa0204;fill-opacity:1;stroke-width:3.2;stroke-linecap:butt;stroke-linejoin:round;stroke:#000;stroke-opacity:1;stroke-miterlimit:4" transform="matrix(.0075 0 0 .0076 4.835 .122)"/><path d="M1921.875 1216.077c-2.604-.514-2.604-5.14-1.563-7.71 1.042-4.111 8.334-9.251 8.334-9.251s1.562 5.654 1.041 8.224c-1.562 3.597-4.166 9.765-7.812 8.737Zm0 0" style="fill-rule:nonzero;fill:#fa0204;fill-opacity:1;stroke-width:3.2;stroke-linecap:butt;stroke-linejoin:round;stroke:#000;stroke-opacity:1;stroke-miterlimit:4" transform="matrix(.0075 0 0 .0076 4.805 0)"/><path d="M1912.5 1224.301c-3.125-.514-3.646-5.654-2.604-8.224 1.041-4.112 9.375-9.251 9.375-9.251s1.562 6.167.52 8.737c-1.041 3.598-3.645 9.766-7.291 8.738Zm-10.938 15.933c-4.166-1.542-3.645-9.251-2.604-13.363 1.042-3.598 3.646-9.252 7.292-8.224 4.167 1.028 4.167 8.224 3.125 12.336s-4.167 9.765-7.813 9.251Zm0 0" style="fill-rule:nonzero;fill:#fa0204;fill-opacity:1;stroke-width:3.2;stroke-linecap:butt;stroke-linejoin:round;stroke:#000;stroke-opacity:1;stroke-miterlimit:4" transform="matrix(.0075 0 0 .0076 4.805 0)"/><path d="M1888.542 1252.056c-4.167-1.028-5.73-7.71-4.688-11.822.521-4.111 5.208-10.28 9.375-9.251 4.688 1.028 6.25 8.223 5.208 12.85-1.041 4.111-5.729 9.25-9.895 8.223Zm-2.084 7.71c-1.041 4.625-7.291 6.681-11.458 5.14-4.167-1.029-9.375-6.682-8.333-12.336 1.041-5.14 8.333-6.682 11.979-5.14 4.166 1.542 8.854 7.196 7.812 12.336Zm-84.896-49.342s5.209 2.57 7.292 4.625c2.083 2.57 5.208 3.598 3.646 7.196s-5.73 2.056-8.333-.514c-2.084-2.056-2.605-11.307-2.605-11.307Zm25 8.737c5.73 1.028 5.209 7.196 2.605 10.794-2.605 3.598-10.938 8.737-16.146 7.71-5.73-1.028-4.688-7.71-2.084-11.308 3.125-4.112 10.938-8.224 15.625-7.196ZM1844.27 1230.469c4.688 2.056 3.647 8.223 0 11.307-3.645 3.084-12.5 6.168-17.708 4.112-5.208-2.57-3.125-8.738 1.042-11.821 3.646-3.084 11.98-5.654 16.667-3.598Zm0 0" style="fill-rule:nonzero;fill:#fa0204;fill-opacity:1;stroke-width:3.2;stroke-linecap:butt;stroke-linejoin:round;stroke:#000;stroke-opacity:1;stroke-miterlimit:4" transform="matrix(.0075 0 0 .0076 4.805 0)"/><path d="M1844.333 1230.562c4.688 2.056 3.125 8.224 0 11.308-3.646 3.084-12.5 6.168-17.708 3.598-5.208-2.056-3.125-8.224.52-11.308 3.647-3.084 12.5-5.654 17.188-3.598Zm0 0" style="fill-rule:nonzero;fill:#fa0204;fill-opacity:1;stroke-width:3.2;stroke-linecap:butt;stroke-linejoin:round;stroke:#000;stroke-opacity:1;stroke-miterlimit:4" transform="matrix(.0075 0 0 .0076 4.91 .081)"/><path d="M1863.02 1250.514c4.688 1.028 5.73 7.71 4.688 11.822-1.562 4.625-7.812 10.793-12.5 9.765-5.208-.514-6.25-7.71-4.166-12.335 1.562-4.112 7.291-9.766 11.979-9.252Zm0 0" style="fill-rule:nonzero;fill:#fa0204;fill-opacity:1;stroke-width:3.2;stroke-linecap:butt;stroke-linejoin:round;stroke:#000;stroke-opacity:1;stroke-miterlimit:4" transform="matrix(.0075 0 0 .0076 4.805 0)"/><path d="M1875 1265.42c4.167 2.055 3.125 9.251.52 13.363-2.603 4.112-9.895 8.738-14.062 6.168s-2.604-10.28 0-14.392c3.125-3.598 9.896-7.71 13.542-5.14Zm-85.938-40.091c4.167 0 7.292 6.168 7.292 10.794 0 4.625-3.646 12.335-7.812 12.849-4.688 0-7.292-6.682-7.292-11.822 0-4.625 3.646-11.307 7.812-11.821Zm0 0" style="fill-rule:nonzero;fill:#fa0204;fill-opacity:1;stroke-width:3.2;stroke-linecap:butt;stroke-linejoin:round;stroke:#000;stroke-opacity:1;stroke-miterlimit:4" transform="matrix(.0075 0 0 .0076 4.805 0)"/><path d="M1803.125 1237.664c3.646 1.028 4.687 7.71 3.125 12.336s-6.77 10.794-10.938 9.766c-4.166-1.028-5.208-8.738-3.125-13.364 1.563-4.112 6.771-9.765 10.938-8.738Zm0 0" style="fill-rule:nonzero;fill:#fa0204;fill-opacity:1;stroke-width:3.2;stroke-linecap:butt;stroke-linejoin:round;stroke:#000;stroke-opacity:1;stroke-miterlimit:4" transform="matrix(.0075 0 0 .0076 4.805 0)"/><path d="M1815.625 1246.402c5.208 1.028 6.25 9.766 4.167 14.906-1.563 5.653-7.813 13.363-13.021 12.335s-5.73-10.794-3.646-16.447c1.562-5.14 7.812-12.336 12.5-10.794Zm0 0" style="fill-rule:nonzero;fill:#fa0204;fill-opacity:1;stroke-width:3.2;stroke-linecap:butt;stroke-linejoin:round;stroke:#000;stroke-opacity:1;stroke-miterlimit:4" transform="matrix(.0075 0 0 .0076 4.805 0)"/><path d="M1826.042 1256.682c5.208-.514 9.375 7.195 9.375 12.85.52 6.167-3.125 15.419-8.334 15.933-5.208 1.028-8.854-7.71-8.854-13.878-.52-5.654 3.125-14.391 7.813-14.905Zm0 0" style="fill-rule:nonzero;fill:#fa0204;fill-opacity:1;stroke-width:3.2;stroke-linecap:butt;stroke-linejoin:round;stroke:#000;stroke-opacity:1;stroke-miterlimit:4" transform="matrix(.0075 0 0 .0076 4.805 0)"/><path d="M1838.542 1265.933c4.687-1.028 8.333 5.654 8.333 10.28.52 5.14-2.604 12.85-7.292 13.363-4.687.514-8.333-6.681-8.333-11.821 0-4.626 2.604-11.308 7.292-11.822Zm0 0" style="fill-rule:nonzero;fill:#fa0204;fill-opacity:1;stroke-width:3.2;stroke-linecap:butt;stroke-linejoin:round;stroke:#000;stroke-opacity:1;stroke-miterlimit:4" transform="matrix(.0075 0 0 .0076 4.805 0)"/><path d="M1838.762 1265.813c4.167-.514 7.813 5.654 8.334 10.28 0 5.14-2.604 12.85-7.292 13.363-5.208.514-8.854-6.682-8.854-11.307 0-4.626 3.125-11.822 7.812-12.336Zm0 0" style="fill-rule:nonzero;fill:#fa0204;fill-opacity:1;stroke-width:3.2;stroke-linecap:butt;stroke-linejoin:round;stroke:#000;stroke-opacity:1;stroke-miterlimit:4" transform="matrix(.0075 0 0 .0076 4.9 .079)"/><path d="M1929.167 1251.028c-3.125 2.57-9.375 0-12.5-3.084s-5.209-10.28-1.563-13.363c3.125-3.084 9.896 0 13.021 3.597 2.604 3.084 4.167 9.766 1.042 12.85Zm0 0" style="fill-rule:nonzero;fill:#fa0204;fill-opacity:1;stroke-width:3.2;stroke-linecap:butt;stroke-linejoin:round;stroke:#000;stroke-opacity:1;stroke-miterlimit:4" transform="matrix(.0075 0 0 .0076 4.805 0)"/><path d="M1929.396 1251.077c-3.646 2.57-9.896 0-12.5-3.083-3.125-3.084-5.73-10.28-2.084-13.364s10.417 0 13.542 3.598c2.604 3.084 4.167 9.766 1.042 12.85Zm0 0" style="fill-rule:nonzero;fill:#fa0204;fill-opacity:1;stroke-width:3.2;stroke-linecap:butt;stroke-linejoin:round;stroke:#000;stroke-opacity:1;stroke-miterlimit:4" transform="matrix(.0075 0 0 .0076 4.752 .097)"/><path d="M1929.396 1250.657c-3.646 3.084-9.896.514-12.5-2.57-3.125-3.598-5.73-10.793-2.084-13.363 3.646-3.084 10.417 0 13.542 3.598 2.604 3.083 4.167 9.765 1.042 12.335Zm0 0" style="fill-rule:nonzero;fill:#fa0204;fill-opacity:1;stroke-width:3.2;stroke-linecap:butt;stroke-linejoin:round;stroke:#000;stroke-opacity:1;stroke-miterlimit:4" transform="matrix(.0075 0 0 .0076 4.658 .179)"/><path d="M1905.208 1281.353c-1.041 4.112-7.812 5.654-11.979 4.112-4.687-.514-10.417-5.654-9.375-9.766 1.563-4.626 8.854-5.654 13.021-4.626 4.167 1.542 9.375 6.168 8.333 10.28Zm0 0" style="fill-rule:nonzero;fill:#fa0204;fill-opacity:1;stroke-width:3.2;stroke-linecap:butt;stroke-linejoin:round;stroke:#000;stroke-opacity:1;stroke-miterlimit:4" transform="matrix(.0075 0 0 .0076 4.805 0)"/><path d="M1886.98 1278.269c3.645 2.57 3.124 10.28.52 14.905-2.604 4.626-8.854 9.252-13.02 6.682-3.647-2.57-2.084-11.307.52-15.933 2.604-4.112 8.854-8.224 11.98-5.654Zm0 0" style="fill-rule:nonzero;fill:#fa0204;fill-opacity:1;stroke-width:3.2;stroke-linecap:butt;stroke-linejoin:round;stroke:#000;stroke-opacity:1;stroke-miterlimit:4" transform="matrix(.0075 0 0 .0076 4.805 0)"/><path d="M1869.792 1287.52c3.645 2.57 2.604 9.766 0 13.364-2.605 4.112-9.375 8.738-13.542 6.168-4.688-2.056-3.125-10.28 0-14.392 2.604-3.598 9.375-7.195 13.542-5.14ZM1831.25 1313.22c-3.125 3.083-.52 10.793 2.604 14.905 4.167 4.112 11.98 8.224 15.625 4.626 3.646-3.084.521-11.822-3.646-15.934-3.646-4.111-10.937-7.195-14.583-4.111Zm0 0" style="fill-rule:nonzero;fill:#fa0204;fill-opacity:1;stroke-width:3.2;stroke-linecap:butt;stroke-linejoin:round;stroke:#000;stroke-opacity:1;stroke-miterlimit:4" transform="matrix(.0075 0 0 .0076 4.805 0)"/><path d="M1831.258 1312.783c-3.125 3.084-.52 11.308 2.604 15.42 4.167 4.111 11.98 8.223 15.625 4.625 3.646-3.084.521-11.821-3.645-15.933-3.646-4.112-10.938-7.196-14.584-4.112Zm0 0" style="fill-rule:nonzero;fill:#fa0204;fill-opacity:1;stroke-width:3.2;stroke-linecap:butt;stroke-linejoin:round;stroke:#000;stroke-opacity:1;stroke-miterlimit:4" transform="matrix(.0075 0 0 .0076 4.75 .105)"/><path d="M1820.833 1339.433c-4.166 2.055-4.687 10.28-3.125 15.419 2.084 5.14 7.813 11.822 12.5 9.766 4.688-1.542 4.688-10.794 2.604-15.934s-7.812-10.793-11.979-9.251Zm0 0" style="fill-rule:nonzero;fill:#fa0204;fill-opacity:1;stroke-width:3.2;stroke-linecap:butt;stroke-linejoin:round;stroke:#000;stroke-opacity:1;stroke-miterlimit:4" transform="matrix(.0075 0 0 .0076 4.805 0)"/><path d="M1820.917 1339.438c-4.167 2.056-4.688 10.28-3.125 15.42s7.812 11.82 12.5 9.765c4.687-1.542 4.687-10.794 2.604-15.933-2.084-5.14-7.813-10.794-11.98-9.252Zm0 0" style="fill-rule:nonzero;fill:#fa0204;fill-opacity:1;stroke-width:3.2;stroke-linecap:butt;stroke-linejoin:round;stroke:#000;stroke-opacity:1;stroke-miterlimit:4" transform="matrix(.0075 0 0 .0076 4.726 .113)"/><path d="M1802.604 1370.785c-4.687 1.028-6.25 9.766-5.208 14.906 1.041 5.654 5.729 12.85 10.416 11.821 5.209-1.028 6.771-10.28 5.209-15.933-1.042-4.626-5.73-11.822-10.417-10.794Zm0 0" style="fill-rule:nonzero;fill:#fa0204;fill-opacity:1;stroke-width:3.2;stroke-linecap:butt;stroke-linejoin:round;stroke:#000;stroke-opacity:1;stroke-miterlimit:4" transform="matrix(.0075 0 0 .0076 4.805 0)"/><path d="M1802.808 1370.819c-4.687 1.028-6.77 9.251-5.729 14.905 1.042 5.14 6.25 12.85 10.938 11.822 4.687-1.028 6.25-10.28 5.208-15.934-1.042-5.14-6.25-11.821-10.417-10.793Zm0 0" style="fill-rule:nonzero;fill:#fa0204;fill-opacity:1;stroke-width:3.2;stroke-linecap:butt;stroke-linejoin:round;stroke:#000;stroke-opacity:1;stroke-miterlimit:4" transform="matrix(.0075 0 0 .0076 4.729 .12)"/><path d="M1783.854 1403.166c-4.687.514-7.812 8.224-7.812 13.364 0 5.653 3.645 13.877 8.333 13.877 4.687-.514 8.333-8.738 7.812-14.391 0-5.654-3.645-12.85-8.333-12.85Zm0 0" style="fill-rule:nonzero;fill:#fa0204;fill-opacity:1;stroke-width:3.2;stroke-linecap:butt;stroke-linejoin:round;stroke:#000;stroke-opacity:1;stroke-miterlimit:4" transform="matrix(.0075 0 0 .0076 4.805 0)"/><path d="M1784.258 1403.497c-4.687 0-8.333 7.71-8.333 12.85 0 5.654 3.646 14.391 8.333 13.877 5.209 0 8.334-8.737 8.334-14.391-.521-5.14-3.646-12.85-8.334-12.336Zm0 0" style="fill-rule:nonzero;fill:#fa0204;fill-opacity:1;stroke-width:3.2;stroke-linecap:butt;stroke-linejoin:round;stroke:#000;stroke-opacity:1;stroke-miterlimit:4" transform="matrix(.0075 0 0 .0076 4.727 .146)"/><path d="M1783.858 1403.173c-4.687.514-7.812 8.223-7.812 13.363 0 5.654 3.646 13.878 8.333 13.878 4.688-.514 8.333-8.738 7.813-14.392 0-5.654-3.646-12.85-8.334-12.85Zm0 0" style="fill-rule:nonzero;fill:#fa0204;fill-opacity:1;stroke-width:3.2;stroke-linecap:butt;stroke-linejoin:round;stroke:#000;stroke-opacity:1;stroke-miterlimit:4" transform="matrix(.0075 0 0 .0076 4.637 .281)"/><path d="M1783.858 1403.292c-4.687 0-7.812 8.224-7.812 13.364 0 5.653 3.646 13.877 8.333 13.877 4.688-.514 8.333-9.252 7.813-14.905 0-5.14-3.646-12.336-8.334-12.336Zm0 0" style="fill-rule:nonzero;fill:#fa0204;fill-opacity:1;stroke-width:3.2;stroke-linecap:butt;stroke-linejoin:round;stroke:#000;stroke-opacity:1;stroke-miterlimit:4" transform="matrix(.0075 0 0 .0076 4.543 .397)"/><path d="M1784.258 1403.484c-4.687 0-8.333 7.71-8.333 13.363 0 5.14 3.646 13.877 8.333 13.364 5.209 0 8.334-8.738 8.334-14.392-.521-5.14-3.646-12.85-8.334-12.335Zm0 0" style="fill-rule:nonzero;fill:#fa0204;fill-opacity:1;stroke-width:3.2;stroke-linecap:butt;stroke-linejoin:round;stroke:#000;stroke-opacity:1;stroke-miterlimit:4" transform="matrix(.0075 0 0 .0076 4.446 .505)"/><path d="M1783.875 1403.191c-4.688.514-7.813 8.224-7.813 13.364 0 5.653 3.646 13.877 8.334 13.877 4.687-.514 8.333-8.738 7.812-14.391 0-5.654-3.646-12.85-8.333-12.85Zm0 0" style="fill-rule:nonzero;fill:#fa0204;fill-opacity:1;stroke-width:3.2;stroke-linecap:butt;stroke-linejoin:round;stroke:#000;stroke-opacity:1;stroke-miterlimit:4" transform="matrix(.0075 0 0 .0076 4.34 .594)"/><path d="M1783.933 1403.54c-4.687 0-7.812 7.71-7.812 12.85 0 5.654 3.125 13.878 8.333 13.878 4.688 0 8.333-8.738 7.813-14.392 0-5.14-3.646-12.85-8.334-12.335Zm0 0" style="fill-rule:nonzero;fill:#fa0204;fill-opacity:1;stroke-width:3.2;stroke-linecap:butt;stroke-linejoin:round;stroke:#000;stroke-opacity:1;stroke-miterlimit:4" transform="matrix(.0075 0 0 .0076 4.238 .689)"/><path d="m1692.708 1500.308-5.208 20.56s3.125 7.195 6.25 6.681c5.208-.514 6.77-8.737 7.812-14.391 1.042-8.224-8.854-12.85-8.854-12.85Zm324.48 12.85c1.562 6.168 15.104 11.307 15.104 11.307l-6.25-27.754c-5.73.513-9.896 12.335-8.855 16.447Zm0 0" style="fill-rule:nonzero;fill:#fa0204;fill-opacity:1;stroke-width:3.2;stroke-linecap:butt;stroke-linejoin:round;stroke:#000;stroke-opacity:1;stroke-miterlimit:4" transform="matrix(.0075 0 0 .0076 4.805 0)"/><path d="M2016.146 1491.057c-4.688-2.056-10.417 4.112-13.021 8.737-2.083 5.14-2.083 13.878 2.604 15.934 4.167 2.056 10.938-4.626 13.021-9.766s1.562-13.363-2.604-14.905Zm0 0" style="fill-rule:nonzero;fill:#fa0204;fill-opacity:1;stroke-width:3.2;stroke-linecap:butt;stroke-linejoin:round;stroke:#000;stroke-opacity:1;stroke-miterlimit:4" transform="matrix(.0075 0 0 .0076 4.805 0)"/><path d="M2001.042 1478.721c-4.688-.514-8.855 7.196-9.375 12.336-.521 5.654 2.083 14.391 7.291 14.391 4.688.514 8.854-7.71 8.854-13.363.521-5.654-2.604-13.364-6.77-13.364Zm0 0" style="fill-rule:nonzero;fill:#fa0204;fill-opacity:1;stroke-width:3.2;stroke-linecap:butt;stroke-linejoin:round;stroke:#000;stroke-opacity:1;stroke-miterlimit:4" transform="matrix(.0075 0 0 .0076 4.805 0)"/><path d="M2000.9 1478.544c-4.688 0-8.854 7.195-9.375 12.85-.52 5.653 2.083 13.877 7.292 14.39 4.687 0 8.854-8.223 9.375-13.877 0-5.14-2.605-12.85-7.292-13.363Zm0 0" style="fill-rule:nonzero;fill:#fa0204;fill-opacity:1;stroke-width:3.2;stroke-linecap:butt;stroke-linejoin:round;stroke:#000;stroke-opacity:1;stroke-miterlimit:4" transform="matrix(.0075 0 0 .0076 4.704 -.104)"/><path d="M2000.9 1478.624c-4.688 0-8.854 7.196-9.375 12.336-.52 5.654 2.083 14.391 7.292 14.391 4.687.514 8.854-7.71 9.375-13.363 0-5.14-2.605-12.85-7.292-13.364Zm0 0" style="fill-rule:nonzero;fill:#fa0204;fill-opacity:1;stroke-width:3.2;stroke-linecap:butt;stroke-linejoin:round;stroke:#000;stroke-opacity:1;stroke-miterlimit:4" transform="matrix(.0075 0 0 .0076 4.61 -.222)"/><path d="M2000.68 1478.875c-4.688-.514-8.334 7.196-8.855 12.335-.52 5.654 2.083 13.878 6.77 14.392 5.21 0 8.855-8.224 9.376-13.878.52-5.14-2.604-12.85-7.292-12.85Zm0 0" style="fill-rule:nonzero;fill:#fa0204;fill-opacity:1;stroke-width:3.2;stroke-linecap:butt;stroke-linejoin:round;stroke:#000;stroke-opacity:1;stroke-miterlimit:4" transform="matrix(.0075 0 0 .0076 4.514 -.321)"/><path d="M2000.562 1478.886c-4.687-.514-8.333 7.195-8.854 12.335-.52 5.654 2.084 13.878 6.771 14.391 5.208 0 9.375-8.223 9.375-13.877.521-5.14-2.604-12.85-7.292-12.85Zm0 0" style="fill-rule:nonzero;fill:#fa0204;fill-opacity:1;stroke-width:3.2;stroke-linecap:butt;stroke-linejoin:round;stroke:#000;stroke-opacity:1;stroke-miterlimit:4" transform="matrix(.0075 0 0 .0076 4.437 -.458)"/><path d="M2000.925 1478.538c-4.688 0-8.854 7.196-9.375 12.85-.52 5.653 2.083 13.877 7.292 14.391 4.687 0 8.854-8.224 9.375-13.877 0-5.14-2.605-12.85-7.292-13.364Zm0 0" style="fill-rule:nonzero;fill:#fa0204;fill-opacity:1;stroke-width:3.2;stroke-linecap:butt;stroke-linejoin:round;stroke:#000;stroke-opacity:1;stroke-miterlimit:4" transform="matrix(.0075 0 0 .0076 4.352 -.58)"/><path d="M2000.808 1478.677c-4.687-.514-8.854 7.196-9.375 12.335-.52 5.654 2.604 14.392 7.292 14.392 5.208.514 8.854-7.71 9.375-13.364 0-5.653-2.604-13.363-7.292-13.363Zm0 0" style="fill-rule:nonzero;fill:#fa0204;fill-opacity:1;stroke-width:3.2;stroke-linecap:butt;stroke-linejoin:round;stroke:#000;stroke-opacity:1;stroke-miterlimit:4" transform="matrix(.0075 0 0 .0076 4.275 -.71)"/><path d="M2000.633 1478.946c-4.687-.514-8.333 7.195-8.854 12.335-.52 5.654 2.083 13.878 6.771 14.392 5.208 0 9.375-8.224 9.375-13.878.52-5.14-2.604-12.85-7.292-12.85Zm0 0" style="fill-rule:nonzero;fill:#fa0204;fill-opacity:1;stroke-width:3.2;stroke-linecap:butt;stroke-linejoin:round;stroke:#000;stroke-opacity:1;stroke-miterlimit:4" transform="matrix(.0075 0 0 .0076 4.206 -.861)"/><path d="M2000.737 1478.856c-4.687-.514-8.854 7.196-9.375 12.336-.52 5.654 2.605 13.877 7.292 14.391 5.208 0 8.854-8.223 9.375-13.877.521-5.14-2.604-12.85-7.292-12.85Zm0 0" style="fill-rule:nonzero;fill:#fa0204;fill-opacity:1;stroke-width:3.2;stroke-linecap:butt;stroke-linejoin:round;stroke:#000;stroke-opacity:1;stroke-miterlimit:4" transform="matrix(.0075 0 0 .0076 4.131 -.997)"/><path d="M2000.604 1478.57c-4.687 0-8.333 7.195-8.854 12.849-.52 5.14 2.083 13.877 6.77 14.391 5.21 0 9.376-8.224 9.376-13.877.52-5.14-2.604-12.85-7.292-13.364Zm0 0" style="fill-rule:nonzero;fill:#fa0204;fill-opacity:1;stroke-width:3.2;stroke-linecap:butt;stroke-linejoin:round;stroke:#000;stroke-opacity:1;stroke-miterlimit:4" transform="matrix(.0075 0 0 .0076 4.07 -1.159)"/><path d="M1883.854 1304.482s-1.562 26.727 7.813 28.269c6.25 1.028 10.937-14.906 10.937-14.906ZM1861.98 1610.814c-3.126 3.598 1.04 11.308 5.207 14.906 4.167 3.597 12.5 6.167 15.625 2.055 3.125-4.111-1.562-11.821-5.729-15.419-4.166-3.084-11.979-5.14-15.104-1.542Zm0 0" style="fill-rule:nonzero;fill:#fa0204;fill-opacity:1;stroke-width:3.2;stroke-linecap:butt;stroke-linejoin:round;stroke:#000;stroke-opacity:1;stroke-miterlimit:4" transform="matrix(.0075 0 0 .0076 4.805 0)"/><path d="M1861.908 1610.958c-2.604 3.598 1.042 10.794 5.209 14.392s13.02 6.167 15.625 2.57c3.125-4.112-1.563-11.822-5.73-15.42-4.166-3.084-11.979-5.654-15.104-1.542Zm0 0" style="fill-rule:nonzero;fill:#fa0204;fill-opacity:1;stroke-width:3.2;stroke-linecap:butt;stroke-linejoin:round;stroke:#000;stroke-opacity:1;stroke-miterlimit:4" transform="matrix(.0075 0 0 .0076 4.942 -.017)"/><path d="M1862.158 1610.96c-3.125 3.598 1.042 10.794 4.688 14.392 4.687 3.598 13.02 6.168 16.146 2.57 3.125-4.112-1.563-11.822-6.25-15.42-3.646-3.084-11.98-5.653-14.584-1.542Zm0 0" style="fill-rule:nonzero;fill:#fa0204;fill-opacity:1;stroke-width:3.2;stroke-linecap:butt;stroke-linejoin:round;stroke:#000;stroke-opacity:1;stroke-miterlimit:4" transform="matrix(.0075 0 0 .0076 5.08 -.044)"/><path d="M1916.146 1603.618c-2.084 4.112 2.604 11.308 7.291 13.878 4.688 3.084 13.542 4.626 15.625 0 2.605-4.112-3.125-11.308-7.812-14.392-4.688-2.57-13.02-3.083-15.104.514Zm0 0" style="fill-rule:nonzero;fill:#fa0204;fill-opacity:1;stroke-width:3.2;stroke-linecap:butt;stroke-linejoin:round;stroke:#000;stroke-opacity:1;stroke-miterlimit:4" transform="matrix(.0075 0 0 .0076 4.805 0)"/><path d="M1916.458 1603.735c-2.604 4.111 2.084 11.307 6.771 13.877 4.688 3.084 13.542 4.112 16.146 0 2.604-4.626-3.125-11.822-8.333-14.391-4.688-2.57-12.5-3.598-14.584.514Zm0 0" style="fill-rule:nonzero;fill:#fa0204;fill-opacity:1;stroke-width:3.2;stroke-linecap:butt;stroke-linejoin:round;stroke:#000;stroke-opacity:1;stroke-miterlimit:4" transform="matrix(.0075 0 0 .0076 4.955 -.024)"/><path d="M1953.646 1595.395c-2.084 4.112 3.646 10.793 8.333 12.85 4.688 2.57 14.063 3.083 16.146-1.029 1.562-4.626-4.688-11.307-9.896-13.877-4.687-2.056-13.02-2.056-14.583 2.056Zm0 0" style="fill-rule:nonzero;fill:#fa0204;fill-opacity:1;stroke-width:3.2;stroke-linecap:butt;stroke-linejoin:round;stroke:#000;stroke-opacity:1;stroke-miterlimit:4" transform="matrix(.0075 0 0 .0076 4.805 0)"/><path d="M1953.496 1595.34c-2.084 4.113 3.646 10.795 8.333 13.364 5.208 2.056 14.063 2.57 16.146-1.542 2.083-4.625-4.688-11.307-9.375-13.877-5.208-2.056-13.02-2.056-15.104 2.056Zm0 0" style="fill-rule:nonzero;fill:#fa0204;fill-opacity:1;stroke-width:3.2;stroke-linecap:butt;stroke-linejoin:round;stroke:#000;stroke-opacity:1;stroke-miterlimit:4" transform="matrix(.0075 0 0 .0076 4.946 -.043)"/><path d="M1991.146 1584.087c-1.563 4.112 4.166 10.28 9.375 12.336s14.062 2.056 15.625-2.57c2.083-4.626-4.688-10.794-9.896-12.85s-13.542-1.542-15.104 3.084Zm0 0" style="fill-rule:nonzero;fill:#fa0204;fill-opacity:1;stroke-width:3.2;stroke-linecap:butt;stroke-linejoin:round;stroke:#000;stroke-opacity:1;stroke-miterlimit:4" transform="matrix(.0075 0 0 .0076 4.805 0)"/><path d="M1991.217 1584.12c-1.563 4.111 4.166 10.279 9.375 12.335s14.062 2.056 15.625-2.57c1.562-4.626-4.688-10.794-10.417-12.85-4.688-2.055-13.02-1.541-14.583 3.084Zm0 0" style="fill-rule:nonzero;fill:#fa0204;fill-opacity:1;stroke-width:3.2;stroke-linecap:butt;stroke-linejoin:round;stroke:#000;stroke-opacity:1;stroke-miterlimit:4" transform="matrix(.0075 0 0 .0076 4.949 -.047)"/><path d="M1991.467 1583.696c-2.084 4.626 4.166 10.793 8.854 12.85 5.208 2.055 14.062 2.055 16.146-2.57 1.562-4.627-5.209-10.794-10.417-12.85s-13.02-1.542-14.583 2.57Zm0 0" style="fill-rule:nonzero;fill:#fa0204;fill-opacity:1;stroke-width:3.2;stroke-linecap:butt;stroke-linejoin:round;stroke:#000;stroke-opacity:1;stroke-miterlimit:4" transform="matrix(.0075 0 0 .0076 5.087 -.106)"/><path d="M1991.458 1583.672c-2.083 4.626 4.167 10.794 8.854 12.85 5.209 2.055 14.063 2.055 16.146-2.57 1.563-4.626-5.208-10.794-10.416-12.85s-13.021-1.542-14.584 2.57Zm0 0" style="fill-rule:nonzero;fill:#fa0204;fill-opacity:1;stroke-width:3.2;stroke-linecap:butt;stroke-linejoin:round;stroke:#000;stroke-opacity:1;stroke-miterlimit:4" transform="matrix(.0075 0 0 .0076 5.236 -.169)"/><path d="M1991.25 1583.904c-1.563 4.626 4.167 10.28 9.375 12.336 5.208 2.57 14.062 2.57 15.625-2.056 1.562-5.14-5.208-11.308-10.417-13.364-4.687-1.542-13.02-1.028-14.583 3.084Zm0 0" style="fill-rule:nonzero;fill:#fa0204;fill-opacity:1;stroke-width:3.2;stroke-linecap:butt;stroke-linejoin:round;stroke:#000;stroke-opacity:1;stroke-miterlimit:4" transform="matrix(.0075 0 0 .0076 5.386 -.217)"/><path d="M1991.454 1583.67c-2.083 4.627 4.167 10.794 8.854 12.85 5.209 2.056 14.063 2.056 16.146-2.57 1.563-4.625-5.208-10.793-10.417-12.849s-13.02-1.542-14.583 2.57Zm0 0" style="fill-rule:nonzero;fill:#fa0204;fill-opacity:1;stroke-width:3.2;stroke-linecap:butt;stroke-linejoin:round;stroke:#000;stroke-opacity:1;stroke-miterlimit:4" transform="matrix(.0075 0 0 .0076 5.404 -.337)"/><path d="M2066.667 1534.745s13.541 2.056 14.583-2.57c2.083-6.682-15.104-12.85-15.104-12.85ZM1701.562 1575.35c-4.166 2.57-3.125 11.307-.52 15.933s9.895 10.28 14.062 7.71 3.125-11.822 0-16.448c-2.604-4.626-9.375-9.251-13.542-7.196Zm0 0" style="fill-rule:nonzero;fill:#fa0204;fill-opacity:1;stroke-width:3.2;stroke-linecap:butt;stroke-linejoin:round;stroke:#000;stroke-opacity:1;stroke-miterlimit:4" transform="matrix(.0075 0 0 .0076 4.805 0)"/><path d="M1701.412 1575.773c-3.645 2.57-2.604 10.794 0 15.42s9.375 10.28 13.542 7.71c4.688-2.57 3.125-11.822 0-16.448-2.604-4.626-9.375-9.252-13.542-6.682Zm0 0" style="fill-rule:nonzero;fill:#fa0204;fill-opacity:1;stroke-width:3.2;stroke-linecap:butt;stroke-linejoin:round;stroke:#000;stroke-opacity:1;stroke-miterlimit:4" transform="matrix(.0075 0 0 .0076 4.946 .06)"/><path d="M1701.542 1575.543c-4.167 2.57-3.125 10.794-.521 15.42 3.125 5.14 9.896 10.793 14.062 7.71 4.167-2.57 3.125-11.308 0-16.448-2.604-4.112-9.375-9.252-13.541-6.682Zm0 0" style="fill-rule:nonzero;fill:#fa0204;fill-opacity:1;stroke-width:3.2;stroke-linecap:butt;stroke-linejoin:round;stroke:#000;stroke-opacity:1;stroke-miterlimit:4" transform="matrix(.0075 0 0 .0076 5.082 .08)"/><path d="M1701.533 1575.783c-4.166 2.57-3.125 10.793-.52 15.42 3.124 4.625 9.895 10.279 14.062 7.709s3.125-11.822 0-16.447c-2.604-4.626-9.375-9.252-13.542-6.682Zm0 0" style="fill-rule:nonzero;fill:#fa0204;fill-opacity:1;stroke-width:3.2;stroke-linecap:butt;stroke-linejoin:round;stroke:#000;stroke-opacity:1;stroke-miterlimit:4" transform="matrix(.0075 0 0 .0076 5.23 .118)"/><path d="M1701.342 1575.753c-3.646 2.57-2.605 10.793 0 15.42 2.604 4.625 9.895 10.279 14.062 7.709s2.604-11.822-.52-16.447c-2.605-4.626-9.376-9.252-13.542-6.682Zm0 0" style="fill-rule:nonzero;fill:#fa0204;fill-opacity:1;stroke-width:3.2;stroke-linecap:butt;stroke-linejoin:round;stroke:#000;stroke-opacity:1;stroke-miterlimit:4" transform="matrix(.0075 0 0 .0076 5.365 .138)"/><path d="M1701.45 1575.75c-3.646 2.57-2.604 10.794 0 15.42s9.375 10.28 13.542 7.71 3.125-11.822 0-16.448c-2.605-4.625-9.375-9.251-13.542-6.681Zm0 0" style="fill-rule:nonzero;fill:#fa0204;fill-opacity:1;stroke-width:3.2;stroke-linecap:butt;stroke-linejoin:round;stroke:#000;stroke-opacity:1;stroke-miterlimit:4" transform="matrix(.0075 0 0 .0076 5.497 .165)"/><path d="M1701.58 1575.376c-4.168 2.57-3.126 11.308-.522 15.934s9.896 10.28 14.063 7.71 3.125-11.822 0-16.448c-2.604-4.626-9.375-9.251-13.542-7.196Zm0 0" style="fill-rule:nonzero;fill:#fa0204;fill-opacity:1;stroke-width:3.2;stroke-linecap:butt;stroke-linejoin:round;stroke:#000;stroke-opacity:1;stroke-miterlimit:4" transform="matrix(.0075 0 0 .0076 5.633 .203)"/><path d="M1701.387 1575.774c-3.645 2.57-2.604 10.794 0 15.42s9.375 10.28 14.063 7.71c4.167-2.57 2.604-11.822-.52-16.448-2.605-4.626-9.376-9.252-13.543-6.682Zm0 0" style="fill-rule:nonzero;fill:#fa0204;fill-opacity:1;stroke-width:3.2;stroke-linecap:butt;stroke-linejoin:round;stroke:#000;stroke-opacity:1;stroke-miterlimit:4" transform="matrix(.0075 0 0 .0076 5.767 .227)"/><path d="M1701.837 1575.544c-4.166 2.57-3.125 10.794-.52 15.42 2.604 5.14 9.895 10.28 14.062 7.71s2.604-11.308-.52-16.448c-2.605-4.112-9.376-9.252-13.022-6.682Zm0 0" style="fill-rule:nonzero;fill:#fa0204;fill-opacity:1;stroke-width:3.2;stroke-linecap:butt;stroke-linejoin:round;stroke:#000;stroke-opacity:1;stroke-miterlimit:4" transform="matrix(.0075 0 0 .0076 5.904 .249)"/><path d="M1648.437 1517.27c-4.687-2.056-11.458 3.084-14.062 7.71-2.604 5.14-3.646 13.877 1.042 15.933 4.166 2.57 11.458-3.598 13.541-8.224 2.604-5.14 3.125-12.85-.52-15.42Zm0 0" style="fill-rule:nonzero;fill:#fa0204;fill-opacity:1;stroke-width:3.2;stroke-linecap:butt;stroke-linejoin:round;stroke:#000;stroke-opacity:1;stroke-miterlimit:4" transform="matrix(.0075 0 0 .0076 4.805 0)"/><path d="M1642.187 1534.231c-4.687-1.542-10.416 4.626-12.5 9.766s-2.083 13.877 2.605 15.42c4.687 1.541 10.937-5.14 13.02-10.28 1.563-5.14 1.042-13.364-3.125-14.906Zm0 0" style="fill-rule:nonzero;fill:#fa0204;fill-opacity:1;stroke-width:3.2;stroke-linecap:butt;stroke-linejoin:round;stroke:#000;stroke-opacity:1;stroke-miterlimit:4" transform="matrix(.0075 0 0 .0076 4.805 0)"/><path d="M1647.917 1550.164c-4.688-1.541-10.417 5.14-11.459 10.28-2.083 5.14-1.041 14.392 4.167 15.42 4.687 1.027 9.896-6.168 11.458-11.308 1.563-5.14 0-13.364-4.166-14.906Zm0 0" style="fill-rule:nonzero;fill:#fa0204;fill-opacity:1;stroke-width:3.2;stroke-linecap:butt;stroke-linejoin:round;stroke:#000;stroke-opacity:1;stroke-miterlimit:4" transform="matrix(.0075 0 0 .0076 4.805 0)"/><path d="M1662.5 1556.332c-4.688-1.542-10.417 5.14-11.98 9.766-1.562 5.654-1.04 14.391 3.647 15.933s10.416-5.654 11.979-11.307c1.562-5.14.52-13.364-3.646-14.392Zm0 0" style="fill-rule:nonzero;fill:#fa0204;fill-opacity:1;stroke-width:3.2;stroke-linecap:butt;stroke-linejoin:round;stroke:#000;stroke-opacity:1;stroke-miterlimit:4" transform="matrix(.0075 0 0 .0076 4.805 0)"/><path d="M1671.875 1558.902c-4.688 1.028-6.25 9.252-5.208 14.392 1.041 5.653 6.25 12.85 10.937 11.821 5.208-1.028 6.25-10.28 5.208-15.933-1.562-4.626-6.25-11.308-10.937-10.28Zm0 0" style="fill-rule:nonzero;fill:#fa0204;fill-opacity:1;stroke-width:3.2;stroke-linecap:butt;stroke-linejoin:round;stroke:#000;stroke-opacity:1;stroke-miterlimit:4" transform="matrix(.0075 0 0 .0076 4.805 0)"/><path d="M1671.742 1558.87c-4.167 1.028-6.25 9.252-4.688 14.391 1.042 5.654 5.73 12.85 10.938 11.822 4.687-1.028 6.25-10.28 4.687-15.934-1.042-4.625-6.25-11.307-10.937-10.28Zm0 0" style="fill-rule:nonzero;fill:#fa0204;fill-opacity:1;stroke-width:3.2;stroke-linecap:butt;stroke-linejoin:round;stroke:#000;stroke-opacity:1;stroke-miterlimit:4" transform="matrix(.0075 0 0 .0076 4.93 .047)"/><path d="M1831.504 1313.112c-3.646 3.084-1.042 11.308 2.604 14.905 3.646 4.626 11.98 8.224 15.625 4.626 3.125-3.084 0-11.821-3.646-15.933-3.645-3.598-11.458-6.682-14.583-3.598Zm0 0" style="fill-rule:nonzero;fill:#fa0204;fill-opacity:1;stroke-width:3.2;stroke-linecap:butt;stroke-linejoin:round;stroke:#000;stroke-opacity:1;stroke-miterlimit:4" transform="matrix(.0075 0 0 .0076 4.87 -.085)"/><path d="M1831.237 1312.887c-3.125 3.084-.52 11.308 2.605 15.42 4.166 4.112 11.979 8.223 15.625 4.626 3.645-3.598.52-11.822-3.646-15.934-3.646-4.112-10.938-7.196-14.584-4.112Zm0 0" style="fill-rule:nonzero;fill:#fa0204;fill-opacity:1;stroke-width:3.2;stroke-linecap:butt;stroke-linejoin:round;stroke:#000;stroke-opacity:1;stroke-miterlimit:4" transform="matrix(.0075 0 0 .0076 4.84 .05)"/><path d="M1831.558 1313.247c-3.646 3.083-1.041 10.793 2.604 14.905s11.98 8.224 15.105 4.626c3.645-3.084.52-11.822-3.125-15.934-4.167-4.111-11.459-7.195-14.584-4.111Zm0 0" style="fill-rule:nonzero;fill:#fa0204;fill-opacity:1;stroke-width:3.2;stroke-linecap:butt;stroke-linejoin:round;stroke:#000;stroke-opacity:1;stroke-miterlimit:4" transform="matrix(.0075 0 0 .0076 4.841 .203)"/><path d="M1831.237 1313.12c-3.125 3.084-.52 11.307 2.605 14.905 4.166 4.626 11.979 8.224 15.625 4.626 3.645-3.084.52-11.822-3.646-15.933-3.646-3.598-10.938-6.682-14.584-3.598Zm0 0" style="fill-rule:nonzero;fill:#fa0204;fill-opacity:1;stroke-width:3.2;stroke-linecap:butt;stroke-linejoin:round;stroke:#000;stroke-opacity:1;stroke-miterlimit:4" transform="matrix(.0075 0 0 .0076 4.84 .364)"/><path d="M1831.38 1312.979c-3.647 3.084-.522 11.308 2.603 15.42 3.646 4.111 11.98 7.709 15.625 4.625 3.646-3.598 0-12.335-3.646-16.447-3.645-3.598-11.458-6.682-14.583-3.598Zm0 0" style="fill-rule:nonzero;fill:#fa0204;fill-opacity:1;stroke-width:3.2;stroke-linecap:butt;stroke-linejoin:round;stroke:#000;stroke-opacity:1;stroke-miterlimit:4" transform="matrix(.0075 0 0 .0076 4.847 .521)"/><path d="M1831.133 1312.896c-3.125 3.084-.52 11.308 3.125 15.42 3.646 4.111 11.459 8.223 15.104 4.625 3.646-3.597.521-11.821-3.645-15.933-3.646-4.112-10.938-7.196-14.584-4.112Zm0 0" style="fill-rule:nonzero;fill:#fa0204;fill-opacity:1;stroke-width:3.2;stroke-linecap:butt;stroke-linejoin:round;stroke:#000;stroke-opacity:1;stroke-miterlimit:4" transform="matrix(.0075 0 0 .0076 4.821 .667)"/><path d="M1831.237 1313.083c-3.125 3.084-.52 11.308 2.605 14.906 4.166 4.626 11.979 8.223 15.625 5.14 3.645-3.598.52-12.336-3.646-16.448-3.646-3.598-10.938-6.682-14.584-3.598Zm0 0" style="fill-rule:nonzero;fill:#fa0204;fill-opacity:1;stroke-width:3.2;stroke-linecap:butt;stroke-linejoin:round;stroke:#000;stroke-opacity:1;stroke-miterlimit:4" transform="matrix(.0075 0 0 .0076 4.84 .83)"/><path d="M1831.133 1312.745c-3.125 3.598-.52 11.307 3.125 15.42 3.646 4.111 11.459 8.223 15.104 4.625 3.646-3.084.521-11.822-3.645-15.933-3.646-4.112-10.938-7.196-14.584-4.112Zm0 0" style="fill-rule:nonzero;fill:#fa0204;fill-opacity:1;stroke-width:3.2;stroke-linecap:butt;stroke-linejoin:round;stroke:#000;stroke-opacity:1;stroke-miterlimit:4" transform="matrix(.0075 0 0 .0076 4.821 .96)"/><path d="M1831.237 1313.12c-3.125 3.084-.52 11.308 2.605 14.905 4.166 4.626 11.979 8.224 15.625 4.626 3.645-3.084.52-11.821-3.646-15.933-3.646-3.598-10.938-6.682-14.584-3.598Zm0 0" style="fill-rule:nonzero;fill:#fa0204;fill-opacity:1;stroke-width:3.2;stroke-linecap:butt;stroke-linejoin:round;stroke:#000;stroke-opacity:1;stroke-miterlimit:4" transform="matrix(.0075 0 0 .0076 4.84 1.09)"/><path d="M1831.237 1312.765c-3.125 3.084-.52 11.308 2.605 15.42 4.166 4.112 11.979 8.223 15.625 4.626 3.645-3.084.52-11.822-3.646-15.934-3.646-4.112-10.938-7.196-14.584-4.112Zm0 0" style="fill-rule:nonzero;fill:#fa0204;fill-opacity:1;stroke-width:3.2;stroke-linecap:butt;stroke-linejoin:round;stroke:#000;stroke-opacity:1;stroke-miterlimit:4" transform="matrix(.0075 0 0 .0076 4.84 1.246)"/><path d="M1831.496 1312.81c-3.646 3.084-1.042 11.308 2.604 15.42s11.98 8.224 15.625 4.626c3.125-3.598 0-11.822-3.646-15.934-3.646-4.111-11.458-7.195-14.583-4.111Zm0 0" style="fill-rule:nonzero;fill:#fa0204;fill-opacity:1;stroke-width:3.2;stroke-linecap:butt;stroke-linejoin:round;stroke:#000;stroke-opacity:1;stroke-miterlimit:4" transform="matrix(.0075 0 0 .0076 4.83 1.398)"/><path d="M1831.196 1313.142c-3.125 3.084-.521 11.307 3.125 14.905 3.646 4.112 11.458 8.224 15.104 4.626 3.646-3.084.52-11.822-3.646-15.933-3.646-3.598-10.937-7.196-14.583-3.598Zm0 0" style="fill-rule:nonzero;fill:#fa0204;fill-opacity:1;stroke-width:3.2;stroke-linecap:butt;stroke-linejoin:round;stroke:#000;stroke-opacity:1;stroke-miterlimit:4" transform="matrix(.0075 0 0 .0076 4.832 1.544)"/><path d="M1831.537 1312.787c-3.645 3.084-1.041 11.308 2.605 15.42 3.645 4.111 11.979 8.223 15.104 4.625 3.646-3.084.52-11.821-3.125-15.933-4.167-4.112-11.459-7.196-14.584-4.112Zm0 0" style="fill-rule:nonzero;fill:#fa0204;fill-opacity:1;stroke-width:3.2;stroke-linecap:butt;stroke-linejoin:round;stroke:#000;stroke-opacity:1;stroke-miterlimit:4" transform="matrix(.0075 0 0 .0076 4.838 1.699)"/><path d="M1831.537 1313.032c-3.645 3.084-1.041 11.308 2.605 15.42 3.645 4.111 11.979 7.71 15.104 4.625 3.646-3.597.52-12.335-3.125-16.447-4.167-3.598-11.459-6.682-14.584-3.598Zm0 0" style="fill-rule:nonzero;fill:#fa0204;fill-opacity:1;stroke-width:3.2;stroke-linecap:butt;stroke-linejoin:round;stroke:#000;stroke-opacity:1;stroke-miterlimit:4" transform="matrix(.0075 0 0 .0076 4.838 1.85)"/><path d="M1831.196 1312.763c-3.125 3.084-.521 11.308 3.125 15.42s11.458 8.224 15.104 4.626c3.646-3.084.52-11.822-3.646-15.934-3.646-4.112-10.937-7.195-14.583-4.112Zm0 0" style="fill-rule:nonzero;fill:#fa0204;fill-opacity:1;stroke-width:3.2;stroke-linecap:butt;stroke-linejoin:round;stroke:#000;stroke-opacity:1;stroke-miterlimit:4" transform="matrix(.0075 0 0 .0076 4.832 2)"/><path d="M1831.354 1313.223c-3.646 3.084-.52 10.793 2.604 14.905 3.646 4.112 11.98 8.224 15.625 4.626 3.646-3.084 0-11.822-3.646-15.933s-11.458-7.196-14.583-4.112Zm0 0" style="fill-rule:nonzero;fill:#fa0204;fill-opacity:1;stroke-width:3.2;stroke-linecap:butt;stroke-linejoin:round;stroke:#000;stroke-opacity:1;stroke-miterlimit:4" transform="matrix(.0075 0 0 .0076 4.823 2.152)"/><path d="M1831.354 1312.91c-3.646 3.084-.52 11.307 2.604 15.42 3.646 4.111 11.98 8.223 15.625 4.625 3.646-3.598 0-11.821-3.646-15.933s-11.458-7.196-14.583-4.112Zm0 0" style="fill-rule:nonzero;fill:#fa0204;fill-opacity:1;stroke-width:3.2;stroke-linecap:butt;stroke-linejoin:round;stroke:#000;stroke-opacity:1;stroke-miterlimit:4" transform="matrix(.0075 0 0 .0076 4.823 2.319)"/><path d="M1831.433 1313.239c-3.646 3.084-1.041 10.794 2.604 14.905 3.646 4.112 11.98 8.224 15.625 4.626 3.646-3.084 0-11.821-3.645-15.933s-11.459-7.196-14.584-4.112Zm0 0" style="fill-rule:nonzero;fill:#fa0204;fill-opacity:1;stroke-width:3.2;stroke-linecap:butt;stroke-linejoin:round;stroke:#000;stroke-opacity:1;stroke-miterlimit:4" transform="matrix(.0075 0 0 .0076 4.819 2.492)"/><path d="M1831.433 1312.912c-3.646 3.084-1.041 11.308 2.604 15.42 3.646 4.111 11.98 8.223 15.625 4.625 3.646-3.597 0-11.821-3.645-15.933s-11.459-7.196-14.584-4.112Zm0 0" style="fill-rule:nonzero;fill:#fa0204;fill-opacity:1;stroke-width:3.2;stroke-linecap:butt;stroke-linejoin:round;stroke:#000;stroke-opacity:1;stroke-miterlimit:4" transform="matrix(.0075 0 0 .0076 4.819 2.655)"/><path d="M1831.433 1312.743c-3.646 3.598-1.041 11.308 2.604 15.42s11.98 8.223 15.625 4.626c3.646-3.084 0-11.822-3.645-15.934s-11.459-7.195-14.584-4.112Zm0 0" style="fill-rule:nonzero;fill:#fa0204;fill-opacity:1;stroke-width:3.2;stroke-linecap:butt;stroke-linejoin:round;stroke:#000;stroke-opacity:1;stroke-miterlimit:4" transform="matrix(.0075 0 0 .0076 4.819 2.804)"/><path d="M1831.512 1313.059c-3.645 3.083-1.041 11.307 2.605 14.905 3.645 4.626 11.979 8.224 15.625 5.14 3.125-3.598 0-12.336-3.646-16.448-3.646-3.597-11.459-6.681-14.584-3.597Zm0 0" style="fill-rule:nonzero;fill:#fa0204;fill-opacity:1;stroke-width:3.2;stroke-linecap:butt;stroke-linejoin:round;stroke:#000;stroke-opacity:1;stroke-miterlimit:4" transform="matrix(.0075 0 0 .0076 4.814 2.974)"/><path d="M1882.292 1303.454c2.604 3.598-1.563 10.794-5.209 13.877-4.166 3.084-11.979 5.14-14.583 1.542-2.604-4.111 2.083-11.821 6.25-14.905 3.646-3.084 10.937-4.626 13.542-1.028Zm0 0" style="fill-rule:nonzero;fill:#fa0204;fill-opacity:1;stroke-width:3.2;stroke-linecap:butt;stroke-linejoin:round;stroke:#000;stroke-opacity:1;stroke-miterlimit:4" transform="matrix(.0075 0 0 .0076 4.805 0)"/><path d="M1882.196 1303.287c2.604 3.598-1.042 10.794-5.209 13.878-3.645 3.084-11.979 5.654-14.583 1.542s2.083-11.308 6.25-14.392 10.938-4.626 13.542-1.028Zm0 0" style="fill-rule:nonzero;fill:#fa0204;fill-opacity:1;stroke-width:3.2;stroke-linecap:butt;stroke-linejoin:round;stroke:#000;stroke-opacity:1;stroke-miterlimit:4" transform="matrix(.0075 0 0 .0076 4.825 .122)"/><path d="M1881.975 1303.277c2.604 3.597-1.042 10.793-4.688 13.877-4.166 3.084-11.979 5.654-14.583 1.542s1.563-11.308 5.73-14.391c4.166-3.084 11.458-4.626 13.541-1.028Zm0 0" style="fill-rule:nonzero;fill:#fa0204;fill-opacity:1;stroke-width:3.2;stroke-linecap:butt;stroke-linejoin:round;stroke:#000;stroke-opacity:1;stroke-miterlimit:4" transform="matrix(.0075 0 0 .0076 4.823 .26)"/><path d="M1882.275 1302.966c2.604 4.112-1.563 10.794-5.208 14.391-4.167 3.084-11.98 5.14-14.584 1.542-2.604-4.112 2.084-11.821 6.25-14.905 3.646-3.084 10.938-4.626 13.542-1.028Zm0 0" style="fill-rule:nonzero;fill:#fa0204;fill-opacity:1;stroke-width:3.2;stroke-linecap:butt;stroke-linejoin:round;stroke:#000;stroke-opacity:1;stroke-miterlimit:4" transform="matrix(.0075 0 0 .0076 4.82 .398)"/><path d="M1882.054 1303.227c2.604 3.598-1.042 10.794-5.208 13.878-3.646 3.084-11.98 5.654-14.063 1.542-2.604-4.112 1.563-11.308 5.73-14.392 4.166-3.084 11.458-4.626 13.541-1.028Zm0 0" style="fill-rule:nonzero;fill:#fa0204;fill-opacity:1;stroke-width:3.2;stroke-linecap:butt;stroke-linejoin:round;stroke:#000;stroke-opacity:1;stroke-miterlimit:4" transform="matrix(.0075 0 0 .0076 4.818 .525)"/><path d="M1882.196 1303.217c2.604 3.597-1.042 10.793-5.209 13.877-3.645 3.084-11.979 5.654-14.583 1.542s2.083-11.308 6.25-14.391 10.938-4.626 13.542-1.028Zm0 0" style="fill-rule:nonzero;fill:#fa0204;fill-opacity:1;stroke-width:3.2;stroke-linecap:butt;stroke-linejoin:round;stroke:#000;stroke-opacity:1;stroke-miterlimit:4" transform="matrix(.0075 0 0 .0076 4.825 .662)"/><path d="M1882.354 1303.392c2.604 3.598-1.562 10.794-5.208 13.877-4.167 3.084-11.98 5.14-14.584 1.542-2.604-4.112 2.084-11.307 6.25-14.905 3.646-2.57 10.938-4.626 13.542-1.028Zm0 0" style="fill-rule:nonzero;fill:#fa0204;fill-opacity:1;stroke-width:3.2;stroke-linecap:butt;stroke-linejoin:round;stroke:#000;stroke-opacity:1;stroke-miterlimit:4" transform="matrix(.0075 0 0 .0076 4.816 .793)"/><path d="M1883.333 1425.781c2.604 4.112-1.562 11.308-5.729 14.906-4.687 3.084-13.02 5.653-16.146 1.542-2.604-4.112 2.084-11.822 6.771-14.906 4.167-3.084 12.5-5.14 15.104-1.028Zm0 0" style="fill-rule:nonzero;fill:#fa0204;fill-opacity:1;stroke-width:3.2;stroke-linecap:butt;stroke-linejoin:round;stroke:#000;stroke-opacity:1;stroke-miterlimit:4" transform="matrix(.0075 0 0 .0076 4.805 0)"/><path d="M1881.77 1443.77c3.647 3.084 1.042 11.308-2.603 14.906-3.646 4.626-11.459 8.224-15.105 5.14-3.645-3.598-.52-12.336 3.646-16.448 3.646-3.597 10.938-7.195 14.584-3.597Zm0 0" style="fill-rule:nonzero;fill:#fa0204;fill-opacity:1;stroke-width:3.2;stroke-linecap:butt;stroke-linejoin:round;stroke:#000;stroke-opacity:1;stroke-miterlimit:4" transform="matrix(.0075 0 0 .0076 4.805 0)"/><path d="M1882.212 1443.416c3.125 3.598.521 11.307-3.125 15.42-3.645 4.111-11.458 8.223-15.104 4.625s-.52-11.822 3.646-15.933c3.646-4.112 10.938-7.196 14.583-4.112Zm0 0" style="fill-rule:nonzero;fill:#fa0204;fill-opacity:1;stroke-width:3.2;stroke-linecap:butt;stroke-linejoin:round;stroke:#000;stroke-opacity:1;stroke-miterlimit:4" transform="matrix(.0075 0 0 .0076 4.81 .155)"/><path d="M1881.912 1443.361c3.646 3.598 1.042 11.308-2.604 15.42-3.646 4.111-11.979 8.223-15.104 4.625-3.646-3.084-.52-11.821 3.646-15.933 3.125-4.112 10.937-7.196 14.062-4.112Zm0 0" style="fill-rule:nonzero;fill:#fa0204;fill-opacity:1;stroke-width:3.2;stroke-linecap:butt;stroke-linejoin:round;stroke:#000;stroke-opacity:1;stroke-miterlimit:4" transform="matrix(.0075 0 0 .0076 4.811 .308)"/><path d="M1881.992 1443.348c3.645 3.598 1.041 11.308-2.605 15.42-3.645 4.111-11.979 8.223-15.625 4.625-3.125-3.083 0-11.821 3.646-15.933s11.459-7.196 14.584-4.112Zm0 0" style="fill-rule:nonzero;fill:#fa0204;fill-opacity:1;stroke-width:3.2;stroke-linecap:butt;stroke-linejoin:round;stroke:#000;stroke-opacity:1;stroke-miterlimit:4" transform="matrix(.0075 0 0 .0076 4.807 .472)"/><path d="M1881.912 1443.807c3.646 3.084 1.042 11.308-2.604 14.906-3.646 4.626-11.979 8.224-15.104 5.14-3.646-3.598-.52-12.336 3.646-16.448 3.125-3.598 10.937-7.195 14.062-3.598Zm0 0" style="fill-rule:nonzero;fill:#fa0204;fill-opacity:1;stroke-width:3.2;stroke-linecap:butt;stroke-linejoin:round;stroke:#000;stroke-opacity:1;stroke-miterlimit:4" transform="matrix(.0075 0 0 .0076 4.811 .625)"/><path d="M1881.992 1443.453c3.645 3.597 1.041 11.307-2.605 15.419s-11.979 8.224-15.625 4.626c-3.125-3.598 0-11.822 3.646-15.934 3.646-4.111 11.459-7.195 14.584-4.111Zm0 0" style="fill-rule:nonzero;fill:#fa0204;fill-opacity:1;stroke-width:3.2;stroke-linecap:butt;stroke-linejoin:round;stroke:#000;stroke-opacity:1;stroke-miterlimit:4" transform="matrix(.0075 0 0 .0076 4.807 .78)"/><path d="M1882.212 1443.612c3.125 3.084.521 11.307-3.125 15.42-3.645 4.111-11.458 7.709-15.104 4.625-3.646-3.598-.52-11.821 3.646-16.447 3.646-3.598 10.938-6.682 14.583-3.598Zm0 0" style="fill-rule:nonzero;fill:#fa0204;fill-opacity:1;stroke-width:3.2;stroke-linecap:butt;stroke-linejoin:round;stroke:#000;stroke-opacity:1;stroke-miterlimit:4" transform="matrix(.0075 0 0 .0076 4.81 .935)"/><path d="M1882.212 1443.471c3.125 3.084.521 11.308-3.125 15.42-3.645 4.111-11.458 8.223-15.104 4.625s-.52-11.821 3.646-15.933c3.646-4.112 10.938-7.196 14.583-4.112Zm0 0" style="fill-rule:nonzero;fill:#fa0204;fill-opacity:1;stroke-width:3.2;stroke-linecap:butt;stroke-linejoin:round;stroke:#000;stroke-opacity:1;stroke-miterlimit:4" transform="matrix(.0075 0 0 .0076 4.81 1.092)"/><path d="M1882.07 1443.844c3.647 3.084.522 11.308-2.603 14.906-3.646 4.112-11.98 8.223-15.625 4.625-3.646-3.083 0-11.821 3.645-15.933 3.646-3.598 11.459-7.196 14.584-3.598Zm0 0" style="fill-rule:nonzero;fill:#fa0204;fill-opacity:1;stroke-width:3.2;stroke-linecap:butt;stroke-linejoin:round;stroke:#000;stroke-opacity:1;stroke-miterlimit:4" transform="matrix(.0075 0 0 .0076 4.802 1.25)"/><path d="M1881.912 1443.448c3.646 3.597 1.042 11.307-2.604 15.419s-11.979 8.224-15.104 4.626c-3.646-3.598-.52-11.822 3.646-15.934 3.125-4.111 10.937-7.195 14.062-4.111Zm0 0" style="fill-rule:nonzero;fill:#fa0204;fill-opacity:1;stroke-width:3.2;stroke-linecap:butt;stroke-linejoin:round;stroke:#000;stroke-opacity:1;stroke-miterlimit:4" transform="matrix(.0075 0 0 .0076 4.811 1.393)"/><path d="M1881.912 1443.693c3.646 3.084 1.042 11.307-2.604 15.42-3.646 4.111-11.979 7.709-15.104 4.625-3.646-3.598-.52-12.336 3.646-16.447 3.125-3.598 10.937-6.682 14.062-3.598Zm0 0" style="fill-rule:nonzero;fill:#fa0204;fill-opacity:1;stroke-width:3.2;stroke-linecap:butt;stroke-linejoin:round;stroke:#000;stroke-opacity:1;stroke-miterlimit:4" transform="matrix(.0075 0 0 .0076 4.811 1.544)"/><path d="M1881.992 1443.466c3.645 3.084 1.041 11.308-2.605 15.42-3.645 4.111-11.979 8.223-15.625 4.625-3.125-3.598 0-11.821 3.646-15.933s11.459-7.196 14.584-4.112Zm0 0" style="fill-rule:nonzero;fill:#fa0204;fill-opacity:1;stroke-width:3.2;stroke-linecap:butt;stroke-linejoin:round;stroke:#000;stroke-opacity:1;stroke-miterlimit:4" transform="matrix(.0075 0 0 .0076 4.807 1.705)"/><path d="M1881.992 1443.54c3.645 3.083 1.041 11.307-2.605 15.419-3.645 4.111-11.979 7.71-15.625 4.625-3.125-3.597 0-11.821 3.646-15.933s11.459-7.196 14.584-4.112Zm0 0" style="fill-rule:nonzero;fill:#fa0204;fill-opacity:1;stroke-width:3.2;stroke-linecap:butt;stroke-linejoin:round;stroke:#000;stroke-opacity:1;stroke-miterlimit:4" transform="matrix(.0075 0 0 .0076 4.807 1.865)"/><path d="M1849.48 1848.273c15.624 5.14 32.812 5.654 48.437.514l-17.709-28.269" style="fill-rule:nonzero;fill:#fa0204;fill-opacity:1;stroke-width:3.2;stroke-linecap:butt;stroke-linejoin:round;stroke:#000;stroke-opacity:1;stroke-miterlimit:4" transform="matrix(.0075 0 0 .0076 4.805 0)"/><path d="m1888.542 1776.316-31.771-8.224s0-35.465 20.312-32.38c16.667 2.57 11.98 40.604 11.459 40.604Zm0 0" style="fill-rule:nonzero;fill:#ce9d09;fill-opacity:1;stroke-width:3.2;stroke-linecap:butt;stroke-linejoin:round;stroke:#000;stroke-opacity:1;stroke-miterlimit:4" transform="matrix(.0075 0 0 .0076 4.805 0)"/><path d="M1885.937 1722.862c0-7.196-5.729-12.85-13.02-12.85-7.292 0-13.021 5.654-13.021 12.85s5.729 12.85 13.02 12.85c7.292 0 13.021-5.654 13.021-12.85Zm0 0" style="fill-rule:nonzero;fill:#ce9d09;fill-opacity:1;stroke-width:3.2;stroke-linecap:butt;stroke-linejoin:round;stroke:#000;stroke-opacity:1;stroke-miterlimit:4" transform="matrix(.0075 0 0 .0076 4.805 0)"/><path d="M1885.417 1791.735c6.77 17.99 11.458 33.409 4.687 53.454m7.813 3.598c-10.417-8.224-36.98-6.168-48.438-.514-4.167 0-16.146-83.265 26.042-81.209 38.541 2.056 25 82.237 22.396 81.723Zm0 0" style="fill-rule:nonzero;fill:#fa0204;fill-opacity:1;stroke-width:3.2;stroke-linecap:butt;stroke-linejoin:round;stroke:#000;stroke-opacity:1;stroke-miterlimit:4" transform="matrix(.0075 0 0 .0076 4.805 0)"/><path d="M1815.104 1866.262c16.146 11.822 38.021 11.822 54.167.514l-40.104-42.146" style="fill-rule:nonzero;fill:#fa0204;fill-opacity:1;stroke-width:3.2;stroke-linecap:butt;stroke-linejoin:round;stroke:#000;stroke-opacity:1;stroke-miterlimit:4" transform="matrix(.0075 0 0 .0076 4.805 0)"/><path d="M1856.25 1738.281c0-7.195-5.73-12.85-13.02-12.85-6.772 0-12.5 5.655-12.5 12.85 0 7.196 5.728 12.85 12.5 12.85 7.29 0 13.02-5.654 13.02-12.85ZM1859.375 1779.914l-32.813-.514s-4.166-26.727 16.146-27.755c17.188-1.028 17.188 28.269 16.667 28.269Zm0 0" style="fill-rule:nonzero;fill:#ce9d09;fill-opacity:1;stroke-width:3.2;stroke-linecap:butt;stroke-linejoin:round;stroke:#000;stroke-opacity:1;stroke-miterlimit:4" transform="matrix(.0075 0 0 .0076 4.805 0)"/><path d="M1843.75 1860.609c-6.25-13.878-7.292-30.84-5.208-49.343m-9.375 50.37c-7.813-13.363-9.375-29.81-3.125-51.398m43.229 56.538c-4.688-6.167-40.104-8.737-54.167 0-4.687 0-18.229-94.058 29.167-91.488 43.75 2.056 28.125 92.002 25 91.488Zm0 0" style="fill-rule:nonzero;fill:#fa0204;fill-opacity:1;stroke-width:3.2;stroke-linecap:butt;stroke-linejoin:round;stroke:#000;stroke-opacity:1;stroke-miterlimit:4" transform="matrix(.0075 0 0 .0076 4.805 0)"/></svg>