<?xml version="1.0" encoding="UTF-8"?>
<svg xmlns="http://www.w3.org/2000/svg" xmlns:xlink="http://www.w3.org/1999/xlink" width="25px" height="px" viewBox="0 0 25 19" version="1.1">
<g id="surface1">
<rect x="0" y="0" width="25" height="19" style="fill:rgb(81.176472%,7.843138%,16.862746%);fill-opacity:1;stroke:none;"/>
<path style=" stroke:none;fill-rule:nonzero;fill:rgb(0%,14.117648%,49.019608%);fill-opacity:1;" d="M 0 0 L 25 0 L 25 12.667969 L 0 12.667969 Z M 0 0 "/>
<path style=" stroke:none;fill-rule:nonzero;fill:rgb(100%,80.000001%,0%);fill-opacity:1;" d="M 0 0 L 25 0 L 25 6.332031 L 0 6.332031 Z M 0 0 "/>
<path style=" stroke:none;fill-rule:nonzero;fill:rgb(100%,100%,100%);fill-opacity:1;" d="M 13.613281 6.90625 L 13.25 7.613281 L 13.65625 7.832031 Z M 13.613281 6.90625 "/>
<path style=" stroke:none;fill-rule:nonzero;fill:rgb(100%,100%,100%);fill-opacity:1;" d="M 13.613281 6.90625 L 13.714844 7.695312 L 13.257812 7.761719 Z M 13.613281 6.90625 "/>
<path style=" stroke:none;fill-rule:nonzero;fill:rgb(100%,100%,100%);fill-opacity:1;" d="M 14.25 7.578125 L 13.476562 7.445312 L 13.398438 7.90625 Z M 14.25 7.578125 "/>
<path style=" stroke:none;fill-rule:nonzero;fill:rgb(100%,100%,100%);fill-opacity:1;" d="M 14.25 7.578125 L 13.539062 7.917969 L 13.339844 7.5 Z M 14.25 7.578125 "/>
<path style=" stroke:none;fill-rule:nonzero;fill:rgb(100%,100%,100%);fill-opacity:1;" d="M 12.785156 7.316406 L 13.339844 7.882812 L 13.667969 7.558594 Z M 12.785156 7.316406 "/>
<path style=" stroke:none;fill-rule:nonzero;fill:rgb(100%,100%,100%);fill-opacity:1;" d="M 12.785156 7.316406 L 13.558594 7.460938 L 13.476562 7.921875 Z M 12.785156 7.316406 "/>
<path style=" stroke:none;fill-rule:nonzero;fill:rgb(100%,100%,100%);fill-opacity:1;" d="M 13.820312 8.398438 L 13.699219 7.609375 L 13.246094 7.675781 Z M 13.820312 8.398438 "/>
<path style=" stroke:none;fill-rule:nonzero;fill:rgb(100%,100%,100%);fill-opacity:1;" d="M 13.820312 8.398438 L 13.28125 7.820312 L 13.613281 7.496094 Z M 13.820312 8.398438 "/>
<path style=" stroke:none;fill-rule:nonzero;fill:rgb(100%,100%,100%);fill-opacity:1;" d="M 12.914062 8.238281 L 13.617188 7.878906 L 13.414062 7.460938 Z M 12.914062 8.238281 "/>
<path style=" stroke:none;fill-rule:nonzero;fill:rgb(100%,100%,100%);fill-opacity:1;" d="M 12.914062 8.238281 L 13.292969 7.539062 L 13.695312 7.757812 Z M 12.914062 8.238281 "/>
<path style=" stroke:none;fill-rule:nonzero;fill:rgb(100%,100%,100%);fill-opacity:1;" d="M 15.703125 7.679688 L 15.125 8.21875 L 15.433594 8.5625 Z M 15.703125 7.679688 "/>
<path style=" stroke:none;fill-rule:nonzero;fill:rgb(100%,100%,100%);fill-opacity:1;" d="M 15.703125 7.679688 L 15.53125 8.453125 L 15.082031 8.355469 Z M 15.703125 7.679688 "/>
<path style=" stroke:none;fill-rule:nonzero;fill:rgb(100%,100%,100%);fill-opacity:1;" d="M 16.078125 8.527344 L 15.390625 8.136719 L 15.164062 8.542969 Z M 16.078125 8.527344 "/>
<path style=" stroke:none;fill-rule:nonzero;fill:rgb(100%,100%,100%);fill-opacity:1;" d="M 16.078125 8.527344 L 15.292969 8.601562 L 15.246094 8.140625 Z M 16.078125 8.527344 "/>
<path style=" stroke:none;fill-rule:nonzero;fill:rgb(100%,100%,100%);fill-opacity:1;" d="M 14.789062 7.773438 L 15.117188 8.5 L 15.535156 8.308594 Z M 14.789062 7.773438 "/>
<path style=" stroke:none;fill-rule:nonzero;fill:rgb(100%,100%,100%);fill-opacity:1;" d="M 14.789062 7.773438 L 15.464844 8.179688 L 15.234375 8.582031 Z M 14.789062 7.773438 "/>
<path style=" stroke:none;fill-rule:nonzero;fill:rgb(100%,100%,100%);fill-opacity:1;" d="M 15.394531 9.152344 L 15.550781 8.371094 L 15.097656 8.273438 Z M 15.394531 9.152344 "/>
<path style=" stroke:none;fill-rule:nonzero;fill:rgb(100%,100%,100%);fill-opacity:1;" d="M 15.394531 9.152344 L 15.082031 8.421875 L 15.503906 8.230469 Z M 15.394531 9.152344 "/>
<path style=" stroke:none;fill-rule:nonzero;fill:rgb(100%,100%,100%);fill-opacity:1;" d="M 14.597656 8.6875 L 15.378906 8.59375 L 15.328125 8.128906 Z M 14.597656 8.6875 "/>
<path style=" stroke:none;fill-rule:nonzero;fill:rgb(100%,100%,100%);fill-opacity:1;" d="M 14.597656 8.6875 L 15.1875 8.160156 L 15.496094 8.507812 Z M 14.597656 8.6875 "/>
<path style=" stroke:none;fill-rule:nonzero;fill:rgb(100%,100%,100%);fill-opacity:1;" d="M 17.40625 9.128906 L 16.683594 9.433594 L 16.855469 9.863281 Z M 17.40625 9.128906 "/>
<path style=" stroke:none;fill-rule:nonzero;fill:rgb(100%,100%,100%);fill-opacity:1;" d="M 17.40625 9.128906 L 16.984375 9.796875 L 16.59375 9.550781 Z M 17.40625 9.128906 "/>
<path style=" stroke:none;fill-rule:nonzero;fill:rgb(100%,100%,100%);fill-opacity:1;" d="M 17.472656 10.054688 L 16.960938 9.453125 L 16.609375 9.75 Z M 17.472656 10.054688 "/>
<path style=" stroke:none;fill-rule:nonzero;fill:rgb(100%,100%,100%);fill-opacity:1;" d="M 17.472656 10.054688 L 16.710938 9.855469 L 16.824219 9.402344 Z M 17.472656 10.054688 "/>
<path style=" stroke:none;fill-rule:nonzero;fill:rgb(100%,100%,100%);fill-opacity:1;" d="M 16.515625 8.902344 L 16.578125 9.695312 L 17.039062 9.660156 Z M 16.515625 8.902344 "/>
<path style=" stroke:none;fill-rule:nonzero;fill:rgb(100%,100%,100%);fill-opacity:1;" d="M 16.515625 8.902344 L 17.015625 9.519531 L 16.660156 9.816406 Z M 16.515625 8.902344 "/>
<path style=" stroke:none;fill-rule:nonzero;fill:rgb(100%,100%,100%);fill-opacity:1;" d="M 16.621094 10.402344 L 17.027344 9.722656 L 16.636719 9.480469 Z M 16.621094 10.402344 "/>
<path style=" stroke:none;fill-rule:nonzero;fill:rgb(100%,100%,100%);fill-opacity:1;" d="M 16.621094 10.402344 L 16.574219 9.609375 L 17.03125 9.578125 Z M 16.621094 10.402344 "/>
<path style=" stroke:none;fill-rule:nonzero;fill:rgb(100%,100%,100%);fill-opacity:1;" d="M 16.03125 9.691406 L 16.792969 9.875 L 16.902344 9.421875 Z M 16.03125 9.691406 "/>
<path style=" stroke:none;fill-rule:nonzero;fill:rgb(100%,100%,100%);fill-opacity:1;" d="M 16.03125 9.691406 L 16.761719 9.402344 L 16.933594 9.832031 Z M 16.03125 9.691406 "/>
<path style=" stroke:none;fill-rule:nonzero;fill:rgb(100%,100%,100%);fill-opacity:1;" d="M 18.519531 11.078125 L 17.734375 11.117188 L 17.753906 11.582031 Z M 18.519531 11.078125 "/>
<path style=" stroke:none;fill-rule:nonzero;fill:rgb(100%,100%,100%);fill-opacity:1;" d="M 18.519531 11.078125 L 17.894531 11.5625 L 17.613281 11.195312 Z M 18.519531 11.078125 "/>
<path style=" stroke:none;fill-rule:nonzero;fill:rgb(100%,100%,100%);fill-opacity:1;" d="M 18.265625 11.972656 L 17.988281 11.230469 L 17.558594 11.390625 Z M 18.265625 11.972656 "/>
<path style=" stroke:none;fill-rule:nonzero;fill:rgb(100%,100%,100%);fill-opacity:1;" d="M 18.265625 11.972656 L 17.621094 11.523438 L 17.878906 11.136719 Z M 18.265625 11.972656 "/>
<path style=" stroke:none;fill-rule:nonzero;fill:rgb(100%,100%,100%);fill-opacity:1;" d="M 17.757812 10.558594 L 17.550781 11.328125 L 17.992188 11.453125 Z M 17.757812 10.558594 "/>
<path style=" stroke:none;fill-rule:nonzero;fill:rgb(100%,100%,100%);fill-opacity:1;" d="M 17.757812 10.558594 L 18.019531 11.3125 L 17.585938 11.46875 Z M 17.757812 10.558594 "/>
<path style=" stroke:none;fill-rule:nonzero;fill:rgb(100%,100%,100%);fill-opacity:1;" d="M 17.347656 12.007812 L 17.960938 11.507812 L 17.679688 11.144531 Z M 17.347656 12.007812 "/>
<path style=" stroke:none;fill-rule:nonzero;fill:rgb(100%,100%,100%);fill-opacity:1;" d="M 17.347656 12.007812 L 17.574219 11.242188 L 18.015625 11.375 Z M 17.347656 12.007812 "/>
<path style=" stroke:none;fill-rule:nonzero;fill:rgb(100%,100%,100%);fill-opacity:1;" d="M 17.035156 11.132812 L 17.691406 11.570312 L 17.945312 11.183594 Z M 17.035156 11.132812 "/>
<path style=" stroke:none;fill-rule:nonzero;fill:rgb(100%,100%,100%);fill-opacity:1;" d="M 17.035156 11.132812 L 17.820312 11.113281 L 17.835938 11.578125 Z M 17.035156 11.132812 "/>
<path style=" stroke:none;fill-rule:nonzero;fill:rgb(100%,100%,100%);fill-opacity:1;" d="M 6.480469 11.078125 L 7.105469 11.5625 L 7.386719 11.195312 Z M 6.480469 11.078125 "/>
<path style=" stroke:none;fill-rule:nonzero;fill:rgb(100%,100%,100%);fill-opacity:1;" d="M 6.480469 11.078125 L 7.265625 11.117188 L 7.246094 11.582031 Z M 6.480469 11.078125 "/>
<path style=" stroke:none;fill-rule:nonzero;fill:rgb(100%,100%,100%);fill-opacity:1;" d="M 7.242188 10.558594 L 6.980469 11.3125 L 7.414062 11.46875 Z M 7.242188 10.558594 "/>
<path style=" stroke:none;fill-rule:nonzero;fill:rgb(100%,100%,100%);fill-opacity:1;" d="M 7.242188 10.558594 L 7.449219 11.328125 L 7.007812 11.453125 Z M 7.242188 10.558594 "/>
<path style=" stroke:none;fill-rule:nonzero;fill:rgb(100%,100%,100%);fill-opacity:1;" d="M 6.734375 11.972656 L 7.378906 11.523438 L 7.121094 11.136719 Z M 6.734375 11.972656 "/>
<path style=" stroke:none;fill-rule:nonzero;fill:rgb(100%,100%,100%);fill-opacity:1;" d="M 6.734375 11.972656 L 7.011719 11.230469 L 7.441406 11.390625 Z M 6.734375 11.972656 "/>
<path style=" stroke:none;fill-rule:nonzero;fill:rgb(100%,100%,100%);fill-opacity:1;" d="M 7.964844 11.132812 L 7.179688 11.113281 L 7.164062 11.578125 Z M 7.964844 11.132812 "/>
<path style=" stroke:none;fill-rule:nonzero;fill:rgb(100%,100%,100%);fill-opacity:1;" d="M 7.964844 11.132812 L 7.308594 11.570312 L 7.054688 11.183594 Z M 7.964844 11.132812 "/>
<path style=" stroke:none;fill-rule:nonzero;fill:rgb(100%,100%,100%);fill-opacity:1;" d="M 7.652344 12.007812 L 7.425781 11.242188 L 6.984375 11.375 Z M 7.652344 12.007812 "/>
<path style=" stroke:none;fill-rule:nonzero;fill:rgb(100%,100%,100%);fill-opacity:1;" d="M 7.652344 12.007812 L 7.039062 11.507812 L 7.320312 11.144531 Z M 7.652344 12.007812 "/>
<path style=" stroke:none;fill-rule:nonzero;fill:rgb(100%,100%,100%);fill-opacity:1;" d="M 7.59375 9.128906 L 8.015625 9.796875 L 8.40625 9.550781 Z M 7.59375 9.128906 "/>
<path style=" stroke:none;fill-rule:nonzero;fill:rgb(100%,100%,100%);fill-opacity:1;" d="M 7.59375 9.128906 L 8.316406 9.433594 L 8.144531 9.863281 Z M 7.59375 9.128906 "/>
<path style=" stroke:none;fill-rule:nonzero;fill:rgb(100%,100%,100%);fill-opacity:1;" d="M 8.484375 8.902344 L 7.984375 9.519531 L 8.339844 9.816406 Z M 8.484375 8.902344 "/>
<path style=" stroke:none;fill-rule:nonzero;fill:rgb(100%,100%,100%);fill-opacity:1;" d="M 8.484375 8.902344 L 8.421875 9.695312 L 7.960938 9.660156 Z M 8.484375 8.902344 "/>
<path style=" stroke:none;fill-rule:nonzero;fill:rgb(100%,100%,100%);fill-opacity:1;" d="M 7.527344 10.054688 L 8.289062 9.855469 L 8.175781 9.402344 Z M 7.527344 10.054688 "/>
<path style=" stroke:none;fill-rule:nonzero;fill:rgb(100%,100%,100%);fill-opacity:1;" d="M 7.527344 10.054688 L 8.039062 9.453125 L 8.390625 9.75 Z M 7.527344 10.054688 "/>
<path style=" stroke:none;fill-rule:nonzero;fill:rgb(100%,100%,100%);fill-opacity:1;" d="M 8.96875 9.691406 L 8.238281 9.402344 L 8.066406 9.832031 Z M 8.96875 9.691406 "/>
<path style=" stroke:none;fill-rule:nonzero;fill:rgb(100%,100%,100%);fill-opacity:1;" d="M 8.96875 9.691406 L 8.207031 9.875 L 8.097656 9.421875 Z M 8.96875 9.691406 "/>
<path style=" stroke:none;fill-rule:nonzero;fill:rgb(100%,100%,100%);fill-opacity:1;" d="M 8.378906 10.402344 L 8.425781 9.609375 L 7.96875 9.578125 Z M 8.378906 10.402344 "/>
<path style=" stroke:none;fill-rule:nonzero;fill:rgb(100%,100%,100%);fill-opacity:1;" d="M 8.378906 10.402344 L 7.972656 9.722656 L 8.363281 9.480469 Z M 8.378906 10.402344 "/>
<path style=" stroke:none;fill-rule:nonzero;fill:rgb(100%,100%,100%);fill-opacity:1;" d="M 9.296875 7.679688 L 9.46875 8.453125 L 9.917969 8.355469 Z M 9.296875 7.679688 "/>
<path style=" stroke:none;fill-rule:nonzero;fill:rgb(100%,100%,100%);fill-opacity:1;" d="M 9.296875 7.679688 L 9.875 8.21875 L 9.566406 8.5625 Z M 9.296875 7.679688 "/>
<path style=" stroke:none;fill-rule:nonzero;fill:rgb(100%,100%,100%);fill-opacity:1;" d="M 10.210938 7.773438 L 9.535156 8.179688 L 9.765625 8.582031 Z M 10.210938 7.773438 "/>
<path style=" stroke:none;fill-rule:nonzero;fill:rgb(100%,100%,100%);fill-opacity:1;" d="M 10.210938 7.773438 L 9.882812 8.5 L 9.464844 8.308594 Z M 10.210938 7.773438 "/>
<path style=" stroke:none;fill-rule:nonzero;fill:rgb(100%,100%,100%);fill-opacity:1;" d="M 8.921875 8.527344 L 9.707031 8.601562 L 9.753906 8.140625 Z M 8.921875 8.527344 "/>
<path style=" stroke:none;fill-rule:nonzero;fill:rgb(100%,100%,100%);fill-opacity:1;" d="M 8.921875 8.527344 L 9.609375 8.136719 L 9.835938 8.542969 Z M 8.921875 8.527344 "/>
<path style=" stroke:none;fill-rule:nonzero;fill:rgb(100%,100%,100%);fill-opacity:1;" d="M 10.402344 8.6875 L 9.8125 8.160156 L 9.503906 8.507812 Z M 10.402344 8.6875 "/>
<path style=" stroke:none;fill-rule:nonzero;fill:rgb(100%,100%,100%);fill-opacity:1;" d="M 10.402344 8.6875 L 9.621094 8.59375 L 9.671875 8.128906 Z M 10.402344 8.6875 "/>
<path style=" stroke:none;fill-rule:nonzero;fill:rgb(100%,100%,100%);fill-opacity:1;" d="M 9.605469 9.152344 L 9.917969 8.421875 L 9.496094 8.230469 Z M 9.605469 9.152344 "/>
<path style=" stroke:none;fill-rule:nonzero;fill:rgb(100%,100%,100%);fill-opacity:1;" d="M 9.605469 9.152344 L 9.449219 8.371094 L 9.902344 8.273438 Z M 9.605469 9.152344 "/>
<path style=" stroke:none;fill-rule:nonzero;fill:rgb(100%,100%,100%);fill-opacity:1;" d="M 11.386719 6.90625 L 11.285156 7.695312 L 11.742188 7.761719 Z M 11.386719 6.90625 "/>
<path style=" stroke:none;fill-rule:nonzero;fill:rgb(100%,100%,100%);fill-opacity:1;" d="M 11.386719 6.90625 L 11.75 7.613281 L 11.34375 7.832031 Z M 11.386719 6.90625 "/>
<path style=" stroke:none;fill-rule:nonzero;fill:rgb(100%,100%,100%);fill-opacity:1;" d="M 12.214844 7.316406 L 11.441406 7.460938 L 11.523438 7.921875 Z M 12.214844 7.316406 "/>
<path style=" stroke:none;fill-rule:nonzero;fill:rgb(100%,100%,100%);fill-opacity:1;" d="M 12.214844 7.316406 L 11.660156 7.882812 L 11.332031 7.558594 Z M 12.214844 7.316406 "/>
<path style=" stroke:none;fill-rule:nonzero;fill:rgb(100%,100%,100%);fill-opacity:1;" d="M 10.75 7.578125 L 11.460938 7.917969 L 11.660156 7.5 Z M 10.75 7.578125 "/>
<path style=" stroke:none;fill-rule:nonzero;fill:rgb(100%,100%,100%);fill-opacity:1;" d="M 10.75 7.578125 L 11.523438 7.445312 L 11.601562 7.90625 Z M 10.75 7.578125 "/>
<path style=" stroke:none;fill-rule:nonzero;fill:rgb(100%,100%,100%);fill-opacity:1;" d="M 12.085938 8.238281 L 11.707031 7.539062 L 11.304688 7.757812 Z M 12.085938 8.238281 "/>
<path style=" stroke:none;fill-rule:nonzero;fill:rgb(100%,100%,100%);fill-opacity:1;" d="M 12.085938 8.238281 L 11.382812 7.878906 L 11.585938 7.460938 Z M 12.085938 8.238281 "/>
<path style=" stroke:none;fill-rule:nonzero;fill:rgb(100%,100%,100%);fill-opacity:1;" d="M 11.179688 8.398438 L 11.71875 7.820312 L 11.386719 7.496094 Z M 11.179688 8.398438 "/>
<path style=" stroke:none;fill-rule:nonzero;fill:rgb(100%,100%,100%);fill-opacity:1;" d="M 11.179688 8.398438 L 11.300781 7.609375 L 11.753906 7.675781 Z M 11.179688 8.398438 "/>
</g>
</svg>
