<svg xmlns="http://www.w3.org/2000/svg" width="25" height="px" viewBox="0 0 25 19"><defs><linearGradient id="a" x1="103.1" x2="92.6" y1="111.3" y2="107.8" gradientTransform="matrix(.99614 0 0 2.25255 703.8 -75)" gradientUnits="userSpaceOnUse"><stop offset="0" style="stop-color:red;stop-opacity:1"/><stop offset="1" style="stop-color:#ff0;stop-opacity:1"/></linearGradient><linearGradient id="b" x1="103.1" x2="92.6" y1="111.3" y2="107.8" gradientTransform="matrix(.99614 0 0 2.25255 703.8 -75)" gradientUnits="userSpaceOnUse"><stop offset="0" style="stop-color:red;stop-opacity:1"/><stop offset="1" style="stop-color:#ff0;stop-opacity:1"/></linearGradient><linearGradient id="c" x1="103.1" x2="92.6" y1="111.3" y2="107.8" gradientTransform="matrix(.99614 0 0 2.25255 703.8 -75)" gradientUnits="userSpaceOnUse"><stop offset="0" style="stop-color:red;stop-opacity:1"/><stop offset="1" style="stop-color:#ff0;stop-opacity:1"/></linearGradient><linearGradient id="d" x1="103.1" x2="92.6" y1="111.3" y2="107.8" gradientTransform="matrix(.99614 0 0 2.25255 703.8 -75)" gradientUnits="userSpaceOnUse"><stop offset="0" style="stop-color:red;stop-opacity:1"/><stop offset="1" style="stop-color:#ff0;stop-opacity:1"/></linearGradient><linearGradient id="e" x1="103.1" x2="92.6" y1="111.3" y2="107.8" gradientTransform="matrix(.99614 0 0 2.25255 703.8 -75)" gradientUnits="userSpaceOnUse"><stop offset="0" style="stop-color:red;stop-opacity:1"/><stop offset="1" style="stop-color:#ff0;stop-opacity:1"/></linearGradient><linearGradient id="f" x1="103.1" x2="92.6" y1="111.3" y2="107.8" gradientTransform="matrix(.99614 0 0 2.25255 703.8 -75)" gradientUnits="userSpaceOnUse"><stop offset="0" style="stop-color:red;stop-opacity:1"/><stop offset="1" style="stop-color:#ff0;stop-opacity:1"/></linearGradient><linearGradient id="g" x1="103.1" x2="92.6" y1="111.3" y2="107.8" gradientTransform="matrix(.99614 0 0 2.25255 703.8 -75)" gradientUnits="userSpaceOnUse"><stop offset="0" style="stop-color:red;stop-opacity:1"/><stop offset="1" style="stop-color:#ff0;stop-opacity:1"/></linearGradient><linearGradient id="h" x1="103.1" x2="92.6" y1="111.3" y2="107.8" gradientTransform="matrix(.99614 0 0 2.25255 703.8 -75)" gradientUnits="userSpaceOnUse"><stop offset="0" style="stop-color:red;stop-opacity:1"/><stop offset="1" style="stop-color:#ff0;stop-opacity:1"/></linearGradient><linearGradient id="i" x1="103.1" x2="92.6" y1="111.3" y2="107.8" gradientTransform="matrix(.99614 0 0 2.25255 703.8 -75)" gradientUnits="userSpaceOnUse"><stop offset="0" style="stop-color:red;stop-opacity:1"/><stop offset="1" style="stop-color:#ff0;stop-opacity:1"/></linearGradient><linearGradient id="j" x1="103.1" x2="92.6" y1="111.3" y2="107.8" gradientTransform="matrix(.99614 0 0 2.25255 703.8 -75)" gradientUnits="userSpaceOnUse"><stop offset="0" style="stop-color:red;stop-opacity:1"/><stop offset="1" style="stop-color:#ff0;stop-opacity:1"/></linearGradient><linearGradient id="k" x1="103.1" x2="92.6" y1="111.3" y2="107.8" gradientTransform="matrix(.99614 0 0 2.25255 703.8 -75)" gradientUnits="userSpaceOnUse"><stop offset="0" style="stop-color:red;stop-opacity:1"/><stop offset="1" style="stop-color:#ff0;stop-opacity:1"/></linearGradient><linearGradient id="l" x1="103.1" x2="92.6" y1="111.3" y2="107.8" gradientTransform="matrix(.99614 0 0 2.25255 703.8 -75)" gradientUnits="userSpaceOnUse"><stop offset="0" style="stop-color:red;stop-opacity:1"/><stop offset="1" style="stop-color:#ff0;stop-opacity:1"/></linearGradient></defs><path d="M0 0h25v19H0z" style="fill:#006;fill-opacity:1;stroke:none"/><path d="M0 0h12.5v9.5H0Zm0 0" style="stroke:none;fill-rule:nonzero;fill:#012169;fill-opacity:1"/><path d="M1.465 0 6.23 3.582 10.977 0H12.5v1.227L7.813 4.77 12.5 8.293V9.5h-1.562L6.25 5.957 1.582 9.5H0V8.313l4.668-3.524L0 1.266V0Zm0 0" style="stroke:none;fill-rule:nonzero;fill:#fff;fill-opacity:1"/><path d="M8.281 5.563 12.5 8.707V9.5L7.207 5.563Zm-3.594.394.118.691L1.055 9.5H0ZM12.5 0v.059L7.637 3.78l.039-.87L11.523 0ZM0 0l4.668 3.484H3.496L0 .832Zm0 0" style="stroke:none;fill-rule:nonzero;fill:#c8102e;fill-opacity:1"/><path d="M4.707 0v9.5h3.125V0ZM0 3.168v3.164h12.5V3.168Zm0 0" style="stroke:none;fill-rule:nonzero;fill:#fff;fill-opacity:1"/><path d="M0 3.82V5.72h12.5V3.82ZM5.332 0v9.5h1.875V0Zm0 0" style="stroke:none;fill-rule:nonzero;fill:#c8102e;fill-opacity:1"/><path d="m15.004 4.047 7.582-.027-.016 6.84s.266 1.042-3.18 2.62c1.239-.128 2.59-1.464 2.59-1.464s.547-.715.817-.317c.27.399.515.602.715.758.195.156.351.582.054.895-.293.316-.757.355-.886-.028-.196.102-1.403 1.582-3.88 1.653-2.519-.043-3.894-1.668-3.894-1.668s-.34.543-.82.117c-.461-.559-.11-.914-.11-.914s.391-.227.508-.383c.18-.215.239-.5.543-.5.371.031.508.328.508.328s1.266 1.352 2.633 1.523c-3.078-1.496-3.195-2.421-3.18-2.648Zm0 0" style="stroke:none;fill-rule:nonzero;fill:#fff;fill-opacity:1"/><path d="m782.353 150.038 238.719-1.4v214.694c.516 28.014-46.454 56.284-119.876 92.448-75.745-38.966-119.36-62.651-119.746-92.958Zm0 0" style="fill-rule:nonzero;fill:#006129;fill-opacity:1;stroke-width:1.9;stroke-linecap:butt;stroke-linejoin:miter;stroke:#000;stroke-opacity:1;stroke-miterlimit:4" transform="matrix(.03027 0 0 .03068 -8.496 -.372)"/><path d="m814.741 181.746 14.065-20.63 14.323 20.757" style="fill:none;stroke-width:1.9;stroke-linecap:butt;stroke-linejoin:miter;stroke:#ffc72c;stroke-opacity:1;stroke-miterlimit:4" transform="matrix(.03027 0 0 .03068 -8.496 -.372)"/><path d="M831.645 173.978c0 1.528-1.161 2.801-2.71 2.801s-2.839-1.273-2.839-2.801 1.29-2.802 2.84-2.802c1.548 0 2.71 1.274 2.71 2.802ZM817.451 197.154h21.807s.387-2.802-2.322-4.585c11.613-1.528 8.516-11.587 18.065-12.224 1.935.382-5.033 4.33-5.033 4.33s-5.677 4.074-2.967 6.112c1.935 1.655 2.967-1.019 3.225-2.93.13-2.037 9.291-3.31 8-9.04-2.064-4.712-14.71 3.183-14.71 3.183l-9.032-.127c-.645-1.019-2.968-4.966-5.549-4.966-3.097 0-5.29 4.966-5.29 4.966h-20.26s-.644 5.348 9.679 6.367c2.193 2.929 4 3.82 6.194 4.584-1.42 1.019-1.936 2.42-1.807 4.33Zm1.548-4.457h18.195" style="fill-rule:nonzero;fill:#ffc72c;fill-opacity:1;stroke-width:.9;stroke-linecap:butt;stroke-linejoin:miter;stroke:#000;stroke-opacity:1;stroke-miterlimit:4" transform="matrix(.03027 0 0 .03068 -8.496 -.372)"/><path d="M810.741 182s1.42 8.532 8.13 10.442" style="fill-rule:nonzero;fill:#ffc72c;fill-opacity:1;stroke-width:.9;stroke-linecap:butt;stroke-linejoin:miter;stroke:#000;stroke-opacity:1;stroke-miterlimit:4" transform="matrix(.03027 0 0 .03068 -8.496 -.372)"/><path d="M809.58 181.746c.645-3.184 1.935-3.693 3.226-7.895.258-4.075-3.226-3.566-2.194-6.113 1.678-2.929.903-5.475-2.452-7.64.646 3.693-4.516 7.258-4.516 10.187 0 3.056 2.71 2.42 2.323 7.004.258 2.674-.645 2.037-.904 4.457Zm0 0" style="fill-rule:nonzero;fill:url(#a);stroke-width:.9;stroke-linecap:butt;stroke-linejoin:miter;stroke:#000;stroke-opacity:1;stroke-miterlimit:4" transform="matrix(.03027 0 0 .03068 -8.496 -.372)"/><path d="M831.516 161.753c0 1.401-1.161 2.547-2.58 2.547s-2.581-1.146-2.581-2.547c0-1.528 1.16-2.674 2.58-2.674s2.581 1.146 2.581 2.674Zm0 0" style="fill-rule:nonzero;fill:#ffc72c;fill-opacity:1;stroke-width:.9;stroke-linecap:butt;stroke-linejoin:miter;stroke:#000;stroke-opacity:1;stroke-miterlimit:4" transform="matrix(.03027 0 0 .03068 -8.496 -.372)"/><path d="m814.767 181.83 14.065-20.755 14.323 20.883" style="fill:none;stroke-width:1.9;stroke-linecap:butt;stroke-linejoin:miter;stroke:#ffc72c;stroke-opacity:1;stroke-miterlimit:4" transform="matrix(.03027 0 0 .03068 -8.52 .895)"/><path d="M831.67 174.063c0 1.528-1.16 2.674-2.709 2.674-1.548 0-2.839-1.146-2.839-2.674 0-1.655 1.29-2.801 2.84-2.801 1.548 0 2.709 1.146 2.709 2.801ZM817.348 197.112h21.936s.258-2.802-2.323-4.457c11.485-1.656 8.517-11.715 18.066-12.225 1.935.255-5.033 4.33-5.033 4.33s-5.677 3.947-2.968 5.985c1.936 1.782 2.968-.892 3.226-2.93.13-2.037 9.29-3.31 8-9.04-2.193-4.712-14.71 3.183-14.71 3.183h-9.032c-.645-1.018-2.968-5.093-5.549-5.093-3.097 0-5.29 5.093-5.29 5.093h-20.26s-.774 5.221 9.55 6.24c2.322 3.056 4.129 3.82 6.193 4.584-1.29 1.146-1.935 2.547-1.806 4.33Zm1.677-4.457h18.194" style="fill-rule:nonzero;fill:#ffc72c;fill-opacity:1;stroke-width:.9;stroke-linecap:butt;stroke-linejoin:miter;stroke:#000;stroke-opacity:1;stroke-miterlimit:4" transform="matrix(.03027 0 0 .03068 -8.52 .895)"/><path d="M810.638 181.958s1.42 8.532 8.258 10.57" style="fill-rule:nonzero;fill:#ffc72c;fill-opacity:1;stroke-width:.9;stroke-linecap:butt;stroke-linejoin:miter;stroke:#000;stroke-opacity:1;stroke-miterlimit:4" transform="matrix(.03027 0 0 .03068 -8.52 .895)"/><path d="M809.606 181.83c.645-3.183 1.935-3.82 3.225-8.022.13-3.947-3.225-3.565-2.193-5.984 1.677-2.93.903-5.476-2.58-7.768.773 3.693-4.388 7.258-4.388 10.187 0 3.056 2.58 2.42 2.322 7.004.259 2.674-.645 2.037-1.032 4.584Zm0 0" style="fill-rule:nonzero;fill:url(#b);stroke-width:.9;stroke-linecap:butt;stroke-linejoin:miter;stroke:#000;stroke-opacity:1;stroke-miterlimit:4" transform="matrix(.03027 0 0 .03068 -8.52 .895)"/><path d="M831.542 161.711c0 1.401-1.161 2.547-2.58 2.547-1.55 0-2.71-1.146-2.71-2.547 0-1.4 1.16-2.674 2.71-2.674 1.419 0 2.58 1.274 2.58 2.674Zm0 0" style="fill-rule:nonzero;fill:#ffc72c;fill-opacity:1;stroke-width:.9;stroke-linecap:butt;stroke-linejoin:miter;stroke:#000;stroke-opacity:1;stroke-miterlimit:4" transform="matrix(.03027 0 0 .03068 -8.52 .895)"/><path d="m814.809 181.752 13.936-20.629 14.323 20.756" style="fill:none;stroke-width:1.9;stroke-linecap:butt;stroke-linejoin:miter;stroke:#ffc72c;stroke-opacity:1;stroke-miterlimit:4" transform="matrix(.03027 0 0 .03068 -8.53 2.143)"/><path d="M831.713 173.984c0 1.529-1.29 2.802-2.839 2.802s-2.71-1.273-2.71-2.802c0-1.528 1.162-2.801 2.71-2.801s2.839 1.273 2.839 2.801ZM817.39 197.16h21.936s.258-2.801-2.323-4.584c11.485-1.528 8.517-11.588 17.937-12.225 2.064.382-4.904 4.33-4.904 4.33s-5.678 4.075-3.097 6.112c2.065 1.656 3.097-1.018 3.226-3.056.258-1.91 9.29-3.183 8-8.914-2.064-4.711-14.71 3.184-14.71 3.184l-8.903-.128c-.646-1.018-3.097-4.966-5.678-4.966-2.968 0-5.162 4.966-5.162 4.966h-20.258s-.775 5.349 9.548 6.367c2.323 2.93 4.13 3.693 6.194 4.585-1.29 1.018-1.935 2.42-1.806 4.33Zm1.548-4.457h18.323" style="fill-rule:nonzero;fill:#ffc72c;fill-opacity:1;stroke-width:.9;stroke-linecap:butt;stroke-linejoin:miter;stroke:#000;stroke-opacity:1;stroke-miterlimit:4" transform="matrix(.03027 0 0 .03068 -8.53 2.143)"/><path d="M810.68 182.007s1.42 8.532 8.258 10.442" style="fill-rule:nonzero;fill:#ffc72c;fill-opacity:1;stroke-width:.9;stroke-linecap:butt;stroke-linejoin:miter;stroke:#000;stroke-opacity:1;stroke-miterlimit:4" transform="matrix(.03027 0 0 .03068 -8.53 2.143)"/><path d="M809.647 181.752c.517-3.183 1.807-3.693 3.097-7.895.258-4.075-3.097-3.565-2.193-6.112 1.806-2.929.903-5.476-2.452-7.64.645 3.692-4.387 7.258-4.387 10.187 0 3.056 2.58 2.419 2.322 7.003.13 2.547-.774 2.038-1.032 4.457Zm0 0" style="fill-rule:nonzero;fill:url(#c);stroke-width:.9;stroke-linecap:butt;stroke-linejoin:miter;stroke:#000;stroke-opacity:1;stroke-miterlimit:4" transform="matrix(.03027 0 0 .03068 -8.53 2.143)"/><path d="M831.455 161.76c0 1.4-1.162 2.547-2.581 2.547s-2.58-1.146-2.58-2.547c0-1.528 1.16-2.674 2.58-2.674s2.58 1.146 2.58 2.674Zm0 0" style="fill-rule:nonzero;fill:#ffc72c;fill-opacity:1;stroke-width:.9;stroke-linecap:butt;stroke-linejoin:miter;stroke:#000;stroke-opacity:1;stroke-miterlimit:4" transform="matrix(.03027 0 0 .03068 -8.53 2.143)"/><path d="m814.82 181.839 13.936-20.756 14.323 20.756" style="fill:none;stroke-width:1.9;stroke-linecap:butt;stroke-linejoin:miter;stroke:#ffc72c;stroke-opacity:1;stroke-miterlimit:4" transform="matrix(.03027 0 0 .03068 -7.721 3.496)"/><path d="M831.724 173.944c0 1.655-1.29 2.801-2.84 2.801-1.548 0-2.838-1.146-2.838-2.801 0-1.528 1.29-2.802 2.839-2.802s2.839 1.274 2.839 2.802ZM817.4 197.12h21.937s.258-2.802-2.323-4.457c11.484-1.656 8.517-11.715 17.936-12.225 2.065.255-4.903 4.202-4.903 4.202s-5.807 4.075-3.097 6.113c2.065 1.782 3.097-.892 3.226-2.93.258-2.037 9.29-3.31 8-9.04-2.064-4.712-14.71 3.183-14.71 3.183l-8.904-.127c-.645-.891-3.097-4.966-5.677-4.966-2.968 0-5.162 4.966-5.162 4.966h-20.259s-.774 5.348 9.55 6.367c2.322 3.056 4.128 3.82 6.193 4.584-1.29 1.019-1.936 2.547-1.807 4.33Zm1.549-4.457h18.194" style="fill-rule:nonzero;fill:#ffc72c;fill-opacity:1;stroke-width:.9;stroke-linecap:butt;stroke-linejoin:miter;stroke:#000;stroke-opacity:1;stroke-miterlimit:4" transform="matrix(.03027 0 0 .03068 -7.721 3.496)"/><path d="M810.69 181.966s1.42 8.532 8.259 10.57" style="fill-rule:nonzero;fill:#ffc72c;fill-opacity:1;stroke-width:.9;stroke-linecap:butt;stroke-linejoin:miter;stroke:#000;stroke-opacity:1;stroke-miterlimit:4" transform="matrix(.03027 0 0 .03068 -7.721 3.496)"/><path d="M809.658 181.839c.516-3.184 1.807-3.82 3.097-8.022.258-4.075-3.097-3.566-2.194-5.985 1.807-2.93.904-5.476-2.451-7.768.645 3.693-4.388 7.258-4.388 10.187 0 3.056 2.581 2.42 2.323 7.004.13 2.674-.774 2.037-1.032 4.584Zm0 0" style="fill-rule:nonzero;fill:url(#d);stroke-width:.9;stroke-linecap:butt;stroke-linejoin:miter;stroke:#000;stroke-opacity:1;stroke-miterlimit:4" transform="matrix(.03027 0 0 .03068 -7.721 3.496)"/><path d="M831.465 161.72c0 1.4-1.16 2.546-2.58 2.546s-2.581-1.146-2.581-2.547c0-1.4 1.161-2.674 2.58-2.674s2.581 1.274 2.581 2.674Zm0 0" style="fill-rule:nonzero;fill:#ffc72c;fill-opacity:1;stroke-width:.9;stroke-linecap:butt;stroke-linejoin:miter;stroke:#000;stroke-opacity:1;stroke-miterlimit:4" transform="matrix(.03027 0 0 .03068 -7.721 3.496)"/><path d="m814.825 181.776 13.936-20.629 14.323 20.756" style="fill:none;stroke-width:1.9;stroke-linecap:butt;stroke-linejoin:miter;stroke:#ffc72c;stroke-opacity:1;stroke-miterlimit:4" transform="matrix(.03027 0 0 .03068 -8.635 4.604)"/><path d="M831.729 174.008c0 1.528-1.29 2.802-2.839 2.802s-2.839-1.274-2.839-2.802 1.29-2.801 2.839-2.801 2.839 1.273 2.839 2.801ZM817.406 197.057h21.936s.258-2.802-2.323-4.457c11.485-1.656 8.517-11.588 17.937-12.225 2.064.382-4.904 4.33-4.904 4.33s-5.807 3.947-3.097 6.112c2.065 1.655 3.097-1.019 3.226-3.056.258-1.91 9.29-3.31 8-8.914-2.064-4.711-14.71 3.184-14.71 3.184l-9.032-.128c-.517-1.018-2.968-4.966-5.549-4.966-2.968 0-5.162 4.966-5.162 4.966h-20.387s-.646 5.349 9.677 6.24c2.323 3.056 4.13 3.82 6.194 4.711-1.29 1.02-1.935 2.42-1.806 4.203Zm1.548-4.33h18.194" style="fill-rule:nonzero;fill:#ffc72c;fill-opacity:1;stroke-width:.9;stroke-linecap:butt;stroke-linejoin:miter;stroke:#000;stroke-opacity:1;stroke-miterlimit:4" transform="matrix(.03027 0 0 .03068 -8.635 4.604)"/><path d="M810.696 182.03s1.42 8.532 8.258 10.442" style="fill-rule:nonzero;fill:#ffc72c;fill-opacity:1;stroke-width:.9;stroke-linecap:butt;stroke-linejoin:miter;stroke:#000;stroke-opacity:1;stroke-miterlimit:4" transform="matrix(.03027 0 0 .03068 -8.635 4.604)"/><path d="M809.663 181.776c.517-3.184 1.807-3.82 3.097-8.022.258-3.948-3.097-3.439-2.193-5.985 1.806-2.93.903-5.476-2.452-7.64.645 3.692-4.387 7.13-4.387 10.186 0 2.93 2.58 2.42 2.322 7.004.13 2.547-.774 2.038-1.032 4.457Zm0 0" style="fill-rule:nonzero;fill:url(#e);stroke-width:.9;stroke-linecap:butt;stroke-linejoin:miter;stroke:#000;stroke-opacity:1;stroke-miterlimit:4" transform="matrix(.03027 0 0 .03068 -8.635 4.604)"/><path d="M831.47 161.656c0 1.528-1.16 2.674-2.58 2.674s-2.58-1.146-2.58-2.674c0-1.4 1.16-2.546 2.58-2.546s2.58 1.146 2.58 2.546Zm0 0" style="fill-rule:nonzero;fill:#ffc72c;fill-opacity:1;stroke-width:.9;stroke-linecap:butt;stroke-linejoin:miter;stroke:#000;stroke-opacity:1;stroke-miterlimit:4" transform="matrix(.03027 0 0 .03068 -8.635 4.604)"/><path d="m814.8 181.835 14.064-20.757 14.194 20.884" style="fill:none;stroke-width:1.9;stroke-linecap:butt;stroke-linejoin:miter;stroke:#ffc72c;stroke-opacity:1;stroke-miterlimit:4" transform="matrix(.03027 0 0 .03068 -8.611 5.91)"/><path d="M831.703 173.94c0 1.655-1.29 2.801-2.839 2.801s-2.71-1.146-2.71-2.801c0-1.528 1.162-2.802 2.71-2.802s2.839 1.274 2.839 2.802ZM817.38 197.115h21.936s.258-2.801-2.322-4.456c11.484-1.656 8.516-11.716 18.065-12.225 1.935.255-5.033 4.33-5.033 4.33s-5.677 3.947-2.968 5.984c1.936 1.783 2.968-.891 3.097-2.928.258-2.038 9.291-3.311 8-9.041-2.064-4.712-14.71 3.183-14.71 3.183h-8.903c-.645-1.019-3.097-5.094-5.678-5.094-2.968 0-5.161 5.094-5.161 5.094h-20.26s-.773 5.22 9.55 6.24c2.322 3.056 4.129 3.82 6.193 4.584-1.29 1.019-1.935 2.547-1.806 4.33Zm1.677-4.456h18.195" style="fill-rule:nonzero;fill:#ffc72c;fill-opacity:1;stroke-width:.9;stroke-linecap:butt;stroke-linejoin:miter;stroke:#000;stroke-opacity:1;stroke-miterlimit:4" transform="matrix(.03027 0 0 .03068 -8.611 5.91)"/><path d="M810.67 181.962s1.42 8.532 8.258 10.57" style="fill-rule:nonzero;fill:#ffc72c;fill-opacity:1;stroke-width:.9;stroke-linecap:butt;stroke-linejoin:miter;stroke:#000;stroke-opacity:1;stroke-miterlimit:4" transform="matrix(.03027 0 0 .03068 -8.611 5.91)"/><path d="M809.638 181.835c.516-3.184 1.806-3.82 3.226-8.023.129-4.075-3.226-3.565-2.323-5.985 1.806-2.928.903-5.475-2.452-7.767.774 3.692-4.387 7.258-4.387 10.187 0 3.056 2.58 2.42 2.323 7.003.129 2.675-.775 2.038-1.033 4.585Zm0 0" style="fill-rule:nonzero;fill:url(#f);stroke-width:.9;stroke-linecap:butt;stroke-linejoin:miter;stroke:#000;stroke-opacity:1;stroke-miterlimit:4" transform="matrix(.03027 0 0 .03068 -8.611 5.91)"/><path d="M831.445 161.715c0 1.4-1.161 2.547-2.58 2.547s-2.582-1.146-2.582-2.547c0-1.4 1.162-2.674 2.581-2.674s2.58 1.273 2.58 2.674Zm0 0" style="fill-rule:nonzero;fill:#ffc72c;fill-opacity:1;stroke-width:.9;stroke-linecap:butt;stroke-linejoin:miter;stroke:#000;stroke-opacity:1;stroke-miterlimit:4" transform="matrix(.03027 0 0 .03068 -8.611 5.91)"/><path d="m814.77 181.81 14.065-20.757 14.323 20.884" style="fill:none;stroke-width:1.9;stroke-linecap:butt;stroke-linejoin:miter;stroke:#ffc72c;stroke-opacity:1;stroke-miterlimit:4" transform="matrix(.03027 0 0 .03068 -4.067 -.35)"/><path d="M831.673 174.042c0 1.528-1.29 2.801-2.71 2.801-1.548 0-2.838-1.273-2.838-2.801s1.29-2.802 2.839-2.802c1.419 0 2.71 1.274 2.71 2.802Zm0 0" style="fill-rule:nonzero;fill:#ffc72c;fill-opacity:1;stroke-width:.9;stroke-linecap:butt;stroke-linejoin:miter;stroke:#000;stroke-opacity:1;stroke-miterlimit:4" transform="matrix(.03027 0 0 .03068 -4.067 -.35)"/><path d="M817.35 197.09h21.937s.258-2.801-2.323-4.457c11.484-1.655 8.516-11.587 18.065-12.224 1.936.255-5.032 4.33-5.032 4.33s-5.678 3.947-2.968 6.112c1.935 1.655 2.968-1.019 3.226-3.056.129-2.038 9.29-3.311 8-9.042-2.194-4.711-14.71 3.184-14.71 3.184h-9.033c-.645-1.019-2.968-5.094-5.548-5.094-3.097 0-5.291 5.094-5.291 5.094h-20.259s-.774 5.22 9.549 6.24c2.323 3.056 4.13 3.82 6.194 4.584-1.29 1.146-1.936 2.547-1.807 4.33Zm1.678-4.33h18.194" style="fill-rule:nonzero;fill:#ffc72c;fill-opacity:1;stroke-width:.9;stroke-linecap:butt;stroke-linejoin:miter;stroke:#000;stroke-opacity:1;stroke-miterlimit:4" transform="matrix(.03027 0 0 .03068 -4.067 -.35)"/><path d="M810.64 181.937s1.42 8.532 8.259 10.57" style="fill-rule:nonzero;fill:#ffc72c;fill-opacity:1;stroke-width:.9;stroke-linecap:butt;stroke-linejoin:miter;stroke:#000;stroke-opacity:1;stroke-miterlimit:4" transform="matrix(.03027 0 0 .03068 -4.067 -.35)"/><path d="M809.608 181.81c.645-3.184 1.936-3.82 3.226-8.023.129-3.947-3.226-3.438-2.194-5.985 1.678-2.929.904-5.475-2.58-7.64.774 3.693-4.388 7.13-4.388 10.187 0 2.929 2.581 2.292 2.323 7.004.258 2.547-.645 1.91-1.032 4.457Zm0 0" style="fill-rule:nonzero;fill:url(#g);stroke-width:.9;stroke-linecap:butt;stroke-linejoin:miter;stroke:#000;stroke-opacity:1;stroke-miterlimit:4" transform="matrix(.03027 0 0 .03068 -4.067 -.35)"/><path d="M831.544 161.69c0 1.4-1.161 2.547-2.58 2.547-1.549 0-2.71-1.146-2.71-2.547 0-1.4 1.161-2.547 2.71-2.547 1.419 0 2.58 1.146 2.58 2.547Zm0 0" style="fill-rule:nonzero;fill:#ffc72c;fill-opacity:1;stroke-width:.9;stroke-linecap:butt;stroke-linejoin:miter;stroke:#000;stroke-opacity:1;stroke-miterlimit:4" transform="matrix(.03027 0 0 .03068 -4.067 -.35)"/><path d="m814.75 181.804 14.065-20.757 14.323 20.884" style="fill:none;stroke-width:1.9;stroke-linecap:butt;stroke-linejoin:miter;stroke:#ffc72c;stroke-opacity:1;stroke-miterlimit:4" transform="matrix(.03027 0 0 .03068 -4.11 .892)"/><path d="M831.654 174.036c0 1.528-1.161 2.801-2.71 2.801s-2.839-1.273-2.839-2.801 1.29-2.802 2.84-2.802c1.548 0 2.709 1.274 2.709 2.802Zm0 0" style="fill-rule:nonzero;fill:#ffc72c;fill-opacity:1;stroke-width:.9;stroke-linecap:butt;stroke-linejoin:miter;stroke:#000;stroke-opacity:1;stroke-miterlimit:4" transform="matrix(.03027 0 0 .03068 -4.11 .892)"/><path d="M817.46 197.084h21.807s.387-2.801-2.323-4.457c11.614-1.655 8.517-11.587 18.066-12.224 1.935.254-5.033 4.33-5.033 4.33s-5.677 3.947-2.968 6.112c1.936 1.655 2.968-1.02 3.226-3.057.13-2.037 9.291-3.31 8-9.04-2.193-4.585-14.71 3.31-14.71 3.31l-9.032-.127c-.645-1.019-2.968-5.094-5.549-5.094-3.097 0-5.29 5.094-5.29 5.094h-20.26s-.644 5.22 9.55 6.24c2.322 3.056 4.129 3.82 6.193 4.584-1.29 1.146-1.806 2.547-1.677 4.33Zm1.548-4.33h18.195" style="fill-rule:nonzero;fill:#ffc72c;fill-opacity:1;stroke-width:.9;stroke-linecap:butt;stroke-linejoin:miter;stroke:#000;stroke-opacity:1;stroke-miterlimit:4" transform="matrix(.03027 0 0 .03068 -4.11 .892)"/><path d="M810.75 182.058s1.29 8.405 8.13 10.442" style="fill-rule:nonzero;fill:#ffc72c;fill-opacity:1;stroke-width:.9;stroke-linecap:butt;stroke-linejoin:miter;stroke:#000;stroke-opacity:1;stroke-miterlimit:4" transform="matrix(.03027 0 0 .03068 -4.11 .892)"/><path d="M809.589 181.804c.645-3.184 1.935-3.82 3.226-8.023.129-3.947-3.226-3.438-2.194-5.985 1.677-2.929.903-5.475-2.58-7.64.773 3.693-4.388 7.13-4.388 10.187 0 2.929 2.71 2.42 2.323 7.004.258 2.546-.646 1.91-1.033 4.457Zm0 0" style="fill-rule:nonzero;fill:url(#h);stroke-width:.9;stroke-linecap:butt;stroke-linejoin:miter;stroke:#000;stroke-opacity:1;stroke-miterlimit:4" transform="matrix(.03027 0 0 .03068 -4.11 .892)"/><path d="M831.525 161.684c0 1.4-1.161 2.674-2.58 2.674s-2.582-1.273-2.582-2.674c0-1.4 1.162-2.547 2.581-2.547s2.58 1.146 2.58 2.547Zm0 0" style="fill-rule:nonzero;fill:#ffc72c;fill-opacity:1;stroke-width:.9;stroke-linecap:butt;stroke-linejoin:miter;stroke:#000;stroke-opacity:1;stroke-miterlimit:4" transform="matrix(.03027 0 0 .03068 -4.11 .892)"/><path d="m814.744 181.816 14.065-20.756 14.323 20.884" style="fill:none;stroke-width:1.9;stroke-linecap:butt;stroke-linejoin:miter;stroke:#ffc72c;stroke-opacity:1;stroke-miterlimit:4" transform="matrix(.03027 0 0 .03068 -4.164 2.165)"/><path d="M831.647 174.048c0 1.529-1.16 2.802-2.71 2.802-1.548 0-2.838-1.273-2.838-2.802 0-1.655 1.29-2.801 2.839-2.801s2.71 1.146 2.71 2.801Zm0 0" style="fill-rule:nonzero;fill:#ffc72c;fill-opacity:1;stroke-width:.9;stroke-linecap:butt;stroke-linejoin:miter;stroke:#000;stroke-opacity:1;stroke-miterlimit:4" transform="matrix(.03027 0 0 .03068 -4.164 2.165)"/><path d="M817.453 197.097h21.808s.387-2.802-2.323-4.457c11.613-1.655 8.516-11.588 18.065-12.225 1.936.255-5.032 4.33-5.032 4.33s-5.678 3.948-2.968 6.112c1.935 1.656 2.968-1.018 3.226-3.056.129-2.037 9.29-3.31 8-9.041-2.065-4.712-14.71 3.184-14.71 3.184h-9.033c-.645-1.02-2.968-5.094-5.548-5.094-3.097 0-5.29 5.094-5.29 5.094h-20.26s-.645 5.22 9.549 6.24c2.323 3.055 4.13 3.82 6.323 4.583-1.42 1.146-1.936 2.547-1.807 4.33Zm1.549-4.457h18.194" style="fill-rule:nonzero;fill:#ffc72c;fill-opacity:1;stroke-width:.9;stroke-linecap:butt;stroke-linejoin:miter;stroke:#000;stroke-opacity:1;stroke-miterlimit:4" transform="matrix(.03027 0 0 .03068 -4.164 2.165)"/><path d="M810.743 181.944s1.42 8.531 8.13 10.569" style="fill-rule:nonzero;fill:#ffc72c;fill-opacity:1;stroke-width:.9;stroke-linecap:butt;stroke-linejoin:miter;stroke:#000;stroke-opacity:1;stroke-miterlimit:4" transform="matrix(.03027 0 0 .03068 -4.164 2.165)"/><path d="M809.582 181.816c.645-3.183 1.936-3.82 3.226-8.022.129-3.948-3.226-3.438-2.194-5.985 1.678-2.929.904-5.476-2.451-7.768.645 3.82-4.517 7.258-4.517 10.315 0 2.928 2.71 2.292 2.323 7.003.258 2.547-.645 1.91-1.032 4.457Zm0 0" style="fill-rule:nonzero;fill:url(#i);stroke-width:.9;stroke-linecap:butt;stroke-linejoin:miter;stroke:#000;stroke-opacity:1;stroke-miterlimit:4" transform="matrix(.03027 0 0 .03068 -4.164 2.165)"/><path d="M831.518 161.697c0 1.4-1.161 2.546-2.58 2.546s-2.581-1.146-2.581-2.546c0-1.401 1.161-2.547 2.58-2.547s2.581 1.146 2.581 2.547Zm0 0" style="fill-rule:nonzero;fill:#ffc72c;fill-opacity:1;stroke-width:.9;stroke-linecap:butt;stroke-linejoin:miter;stroke:#000;stroke-opacity:1;stroke-miterlimit:4" transform="matrix(.03027 0 0 .03068 -4.164 2.165)"/><path d="m814.837 181.737 13.936-20.629 14.323 20.757" style="fill:none;stroke-width:1.9;stroke-linecap:butt;stroke-linejoin:miter;stroke:#ffc72c;stroke-opacity:1;stroke-miterlimit:4" transform="matrix(.03027 0 0 .03068 -4.1 3.413)"/><path d="M831.741 173.97c0 1.528-1.29 2.801-2.839 2.801s-2.839-1.273-2.839-2.801 1.29-2.802 2.84-2.802c1.548 0 2.838 1.274 2.838 2.802ZM817.418 197.146h21.936s.258-2.802-2.322-4.585c11.484-1.528 8.516-11.588 17.936-12.224 2.064.382-4.904 4.33-4.904 4.33s-5.806 4.074-3.097 6.112c2.065 1.782 3.097-1.02 3.226-2.93.258-2.037 9.291-3.31 8-9.04-2.064-4.712-14.71 3.183-14.71 3.183l-9.032-.127c-.516-1.019-2.968-4.966-5.549-4.966-2.968 0-5.161 4.966-5.161 4.966h-20.388s-.645 5.348 9.678 6.367c2.322 2.929 4.129 3.82 6.193 4.584-1.419 1.019-1.935 2.547-1.806 4.33Zm1.548-4.457h18.195" style="fill-rule:nonzero;fill:#ffc72c;fill-opacity:1;stroke-width:.9;stroke-linecap:butt;stroke-linejoin:miter;stroke:#000;stroke-opacity:1;stroke-miterlimit:4" transform="matrix(.03027 0 0 .03068 -4.1 3.413)"/><path d="M810.708 181.992s1.42 8.532 8.13 10.57" style="fill-rule:nonzero;fill:#ffc72c;fill-opacity:1;stroke-width:.9;stroke-linecap:butt;stroke-linejoin:miter;stroke:#000;stroke-opacity:1;stroke-miterlimit:4" transform="matrix(.03027 0 0 .03068 -4.1 3.413)"/><path d="M809.547 181.737c.645-3.183 1.935-3.692 3.226-7.895.258-4.074-3.226-3.565-2.194-5.985 1.806-2.928.903-5.602-2.452-7.767.645 3.693-4.387 7.258-4.387 10.187 0 3.056 2.58 2.42 2.323 7.004.129 2.674-.775 2.037-1.033 4.456Zm0 0" style="fill-rule:nonzero;fill:url(#j);stroke-width:.9;stroke-linecap:butt;stroke-linejoin:miter;stroke:#000;stroke-opacity:1;stroke-miterlimit:4" transform="matrix(.03027 0 0 .03068 -4.1 3.413)"/><path d="M831.483 161.745c0 1.4-1.161 2.547-2.58 2.547s-2.582-1.146-2.582-2.547c0-1.528 1.162-2.674 2.581-2.674s2.581 1.146 2.581 2.674Zm0 0" style="fill-rule:nonzero;fill:#ffc72c;fill-opacity:1;stroke-width:.9;stroke-linecap:butt;stroke-linejoin:miter;stroke:#000;stroke-opacity:1;stroke-miterlimit:4" transform="matrix(.03027 0 0 .03068 -4.1 3.413)"/><path d="m814.821 181.813 13.936-20.756 14.323 20.884" style="fill:none;stroke-width:1.9;stroke-linecap:butt;stroke-linejoin:miter;stroke:#ffc72c;stroke-opacity:1;stroke-miterlimit:4" transform="matrix(.03027 0 0 .03068 -4.116 4.665)"/><path d="M831.725 174.046c0 1.528-1.29 2.801-2.839 2.801s-2.839-1.273-2.839-2.801c0-1.656 1.29-2.802 2.84-2.802 1.548 0 2.838 1.146 2.838 2.802Zm0 0" style="fill-rule:nonzero;fill:#ffc72c;fill-opacity:1;stroke-width:.9;stroke-linecap:butt;stroke-linejoin:miter;stroke:#000;stroke-opacity:1;stroke-miterlimit:4" transform="matrix(.03027 0 0 .03068 -4.116 4.665)"/><path d="M817.402 197.094h21.936s.258-2.801-2.323-4.457c11.485-1.655 8.517-11.588 17.937-12.224 2.064.254-4.904 4.33-4.904 4.33s-5.806 3.947-3.097 6.111c2.065 1.656 3.097-1.018 3.226-3.056.258-2.037 9.29-3.31 8-9.04-2.064-4.712-14.71 3.183-14.71 3.183h-8.903c-.645-1.019-3.097-5.094-5.678-5.094-2.968 0-5.161 5.094-5.161 5.094h-20.388s-.645 5.22 9.678 6.24c2.322 3.056 4.129 3.82 6.193 4.584-1.29 1.146-1.935 2.546-1.806 4.33Zm1.548-4.457h18.194" style="fill-rule:nonzero;fill:#ffc72c;fill-opacity:1;stroke-width:.9;stroke-linecap:butt;stroke-linejoin:miter;stroke:#000;stroke-opacity:1;stroke-miterlimit:4" transform="matrix(.03027 0 0 .03068 -4.116 4.665)"/><path d="M810.692 181.94s1.42 8.532 8.258 10.57" style="fill-rule:nonzero;fill:#ffc72c;fill-opacity:1;stroke-width:.9;stroke-linecap:butt;stroke-linejoin:miter;stroke:#000;stroke-opacity:1;stroke-miterlimit:4" transform="matrix(.03027 0 0 .03068 -4.116 4.665)"/><path d="M809.66 181.813c.516-3.183 1.806-3.82 3.096-8.022.259-3.948-3.096-3.438-2.193-5.985 1.806-2.929.903-5.476-2.452-7.768.645 3.82-4.387 7.259-4.387 10.315 0 2.929 2.58 2.292 2.322 7.004.13 2.546-.774 1.91-1.032 4.456Zm0 0" style="fill-rule:nonzero;fill:url(#k);stroke-width:.9;stroke-linecap:butt;stroke-linejoin:miter;stroke:#000;stroke-opacity:1;stroke-miterlimit:4" transform="matrix(.03027 0 0 .03068 -4.116 4.665)"/><path d="M831.467 161.694c0 1.4-1.162 2.547-2.58 2.547-1.42 0-2.582-1.146-2.582-2.547s1.162-2.547 2.581-2.547 2.58 1.146 2.58 2.547Zm0 0" style="fill-rule:nonzero;fill:#ffc72c;fill-opacity:1;stroke-width:.9;stroke-linecap:butt;stroke-linejoin:miter;stroke:#000;stroke-opacity:1;stroke-miterlimit:4" transform="matrix(.03027 0 0 .03068 -4.116 4.665)"/><path d="m814.75 181.817 14.065-20.757 14.323 20.884" style="fill:none;stroke-width:1.9;stroke-linecap:butt;stroke-linejoin:miter;stroke:#ffc72c;stroke-opacity:1;stroke-miterlimit:4" transform="matrix(.03027 0 0 .03068 -4.11 5.923)"/><path d="M831.654 174.049c0 1.528-1.161 2.801-2.71 2.801s-2.839-1.273-2.839-2.801c0-1.655 1.29-2.801 2.84-2.801 1.548 0 2.709 1.146 2.709 2.801Zm0 0" style="fill-rule:nonzero;fill:#ffc72c;fill-opacity:1;stroke-width:.9;stroke-linecap:butt;stroke-linejoin:miter;stroke:#000;stroke-opacity:1;stroke-miterlimit:4" transform="matrix(.03027 0 0 .03068 -4.11 5.923)"/><path d="M817.46 197.097h21.807s.387-2.801-2.323-4.456c11.614-1.656 8.517-11.588 18.066-12.225 1.935.255-5.033 4.33-5.033 4.33s-5.677 3.947-2.968 6.112c1.936 1.655 2.968-1.019 3.226-3.056.13-2.038 9.291-3.311 8-9.041-2.193-4.712-14.71 3.183-14.71 3.183h-9.032c-.645-1.019-2.968-5.094-5.549-5.094-3.097 0-5.29 5.094-5.29 5.094h-20.26s-.644 5.22 9.55 6.24c2.322 3.056 4.129 3.82 6.193 4.584-1.29 1.146-1.806 2.547-1.677 4.33Zm1.548-4.456h18.195" style="fill-rule:nonzero;fill:#ffc72c;fill-opacity:1;stroke-width:.9;stroke-linecap:butt;stroke-linejoin:miter;stroke:#000;stroke-opacity:1;stroke-miterlimit:4" transform="matrix(.03027 0 0 .03068 -4.11 5.923)"/><path d="M810.75 181.944s1.29 8.532 8.13 10.57" style="fill-rule:nonzero;fill:#ffc72c;fill-opacity:1;stroke-width:.9;stroke-linecap:butt;stroke-linejoin:miter;stroke:#000;stroke-opacity:1;stroke-miterlimit:4" transform="matrix(.03027 0 0 .03068 -4.11 5.923)"/><path d="M809.589 181.817c.645-3.184 1.935-3.82 3.226-8.023.129-3.947-3.226-3.438-2.194-5.985 1.677-2.928.903-5.475-2.58-7.767.773 3.82-4.388 7.258-4.388 10.314 0 2.929 2.71 2.292 2.323 7.004.258 2.547-.646 1.91-1.033 4.457Zm0 0" style="fill-rule:nonzero;fill:url(#l);stroke-width:.9;stroke-linecap:butt;stroke-linejoin:miter;stroke:#000;stroke-opacity:1;stroke-miterlimit:4" transform="matrix(.03027 0 0 .03068 -4.11 5.923)"/><path d="M831.525 161.697c0 1.4-1.161 2.547-2.58 2.547s-2.582-1.146-2.582-2.547c0-1.4 1.162-2.547 2.581-2.547s2.58 1.146 2.58 2.547Zm0 0" style="fill-rule:nonzero;fill:#ffc72c;fill-opacity:1;stroke-width:.9;stroke-linecap:butt;stroke-linejoin:miter;stroke:#000;stroke-opacity:1;stroke-miterlimit:4" transform="matrix(.03027 0 0 .03068 -4.11 5.923)"/><path d="M915.777 406.245s5.678 13.243 12.259 5.094c6.452-8.023 4.13-11.588 4.13-11.588l-14.582-7.895-4.258 9.04Zm0 0" style="fill-rule:nonzero;fill:#ffc72c;fill-opacity:1;stroke-width:.9;stroke-linecap:butt;stroke-linejoin:miter;stroke:#000;stroke-opacity:1;stroke-miterlimit:4" transform="matrix(.03027 0 0 .03068 -8.496 -.372)"/><path d="M928.423 404.59s1.032.127 1.678-1.274c.774-1.4-1.678-2.037-2.84-3.565l-1.29 2.42Zm-33.033-3.566-12.775 7.004s-6.452 1.273-6.84 0c-.515-1.274.13-2.292 3.485-2.547 3.355-.127 12.387-8.405 12.387-8.405l3.743 4.075Zm.258-227.938.387 4.585c.129 1.655-2.581 4.966-2.581 4.839-.13-.255-1.549.127-1.29 1.146.129.891 1.935 1.273 1.935 1.273s-.645 3.31 0 3.438c.774.128-1.935 4.202 0 5.348 2.065 1.147 5.549 2.547 7.226 2.293 1.549-.255 0 6.112 0 6.112l-4.516 9.423 24.388-2.42-5.032-8.022s-2.323-1.655-1.807-6.24c.774-4.584-.258-25.34-.258-25.34l-17.42-2.42Zm-4.517 36.165s-7.871 3.693-7.613 13.498c-2.065 9.423-3.097 18.973-3.097 18.973s-9.42 10.57-12.258 14.517c-2.84 3.82-7.226 11.46-8.646 13.498-1.677 2.038-7.871 8.914-7.742 11.46.258 2.547-1.42 13.753 4.774 15.027 1.678.636 6.71-12.989 6.71-12.989s.387-5.858-1.42-7.004c-1.677-1.018 3.743-4.838 3.743-4.838l13.033-9.678c2.322-2.038 8.903-9.169 8.903-9.169Zm0 0" style="fill-rule:nonzero;fill:#ffc6b5;fill-opacity:1;stroke-width:.9;stroke-linecap:butt;stroke-linejoin:miter;stroke:#000;stroke-opacity:1;stroke-miterlimit:4" transform="matrix(.03027 0 0 .03068 -8.496 -.372)"/><path d="M900.164 201.738s2.064 5.603 6.58 4.711c4.646-1.018 10.066-5.22 10.066-5.22s4.258-.255 4.903.509c.645.637 11.613 11.206 11.226 14.517s-5.032 2.292-6.839 4.584c-1.806 2.165-4.645 7.767-3.742 11.97.775 3.947 3.097 9.423 2.84 11.46-.259 2.165-1.936 2.674-1.936 3.82s1.29 3.057 1.29 4.967c0 2.164-1.936 5.093-1.549 7.258.259 2.037.388 8.022.388 8.022l-.388 28.015s1.549.891 1.678 2.42c.258 1.528 10.84 47.624 10.84 47.624s-.517 1.528-1.678 1.274c-1.033-.128 4.387 7.13 4.516 9.168 0 2.165 5.549 18.21 5.29 20.502-.129 2.165-.903 7.13-1.29 7.258-.516.255 3.484 10.187 2.71 11.715-.516 1.529-6.968 1.529-6.968 1.529l-1.807-.382s.13 2.037-1.032 2.292c-1.29.127-10.71-.51-10.71-.51s-2.71 4.075-4.258 3.948-3.742-2.929-4.13-2.547c-.516.51 1.42 3.183 1.033 3.948-.645.764-8.646 2.546-10.194-1.274s1.032-2.801.387-3.565c-.387-.892-4-2.93-5.162-2.292-1.032.636 2.84 1.528 2.71 3.183-.258 1.528-3.484 3.948-4.774 3.948-1.161 0-4.258-5.858-8.775-5.349-4.387.764-7.226 1.91-7.226 1.91s-5.29 2.165-7.484 1.656c-2.194-.382-3.226-2.165-3.226-3.056 0-1.02 1.678-5.094 1.549-6.495-.258-1.146-1.549-2.42-1.549-4.33s3.742-8.404 3.742-8.404l-.258-29.16s-3.226 0-3.484-2.038c0-2.037 5.162-46.097 6.065-49.025l2.839-12.99s-2.452 1.147-2.71 0c0-1.018 7.226-26.231 7.226-26.231s1.29-12.607 1.29-15.917-.645-7.895-.645-7.895-6.58-2.802-6.71-7.004c-.645-6.622 6.194-10.315 6.968-12.607l3.226-8.913s3.484-5.985 9.162-7.004Zm0 0" style="fill-rule:nonzero;fill:#fff;fill-opacity:1;stroke-width:.9;stroke-linecap:butt;stroke-linejoin:miter;stroke:#000;stroke-opacity:1;stroke-miterlimit:4" transform="matrix(.03027 0 0 .03068 -8.496 -.372)"/><path d="M897.841 403.061s-15.484 7.895-17.678 8.66c-2.194.636-3.613-2.675-1.42-3.311 2.194-.764 5.807-1.019 5.807-1.019s-5.29-4.075-5.032-4.33l7.226-2.546c.129 0 2.194 3.947 3.613 3.82a37 37 0 0 0 5.549-3.566Zm0 0" style="fill-rule:nonzero;fill:#ffc72c;fill-opacity:1;stroke-width:.9;stroke-linecap:butt;stroke-linejoin:miter;stroke:#000;stroke-opacity:1;stroke-miterlimit:4" transform="matrix(.03027 0 0 .03068 -8.496 -.372)"/><path d="M919.39 407.391c1.549 1.91 2.065 5.094 5.42 3.183 3.226-1.91-1.677-5.348-1.677-5.348Zm0 0" style="fill-rule:nonzero;fill:#ffc6b5;fill-opacity:1;stroke-width:.9;stroke-linecap:butt;stroke-linejoin:miter;stroke:#000;stroke-opacity:1;stroke-miterlimit:4" transform="matrix(.03027 0 0 .03068 -8.496 -.372)"/><path d="M925.455 407.136s1.678 1.274 3.097-.254c1.29-1.401-2.839-4.33-2.839-4.33l-2.064 2.292Zm6.84-190.117c.257 0 5.16 15.535 5.935 19.61.516 3.947 2.71 19.737 1.806 22.03-.774 2.164-8.774 12.734-9.677 15.408s-6.71 12.988-6.71 12.988-1.42 10.187-2.065 10.697c-.645.382 1.678 2.929 1.42 3.693-.259 1.018-4.646 5.475-6.452 5.093-1.936-.382-5.033-2.801-5.033-4.839-.258-2.037 0-8.913 1.42-10.569 1.419-1.783 8.903-19.355 9.42-20.374.386-1.274 6.71-15.026 6.967-17.318.13-2.292-2.064-7.895-4.258-9.933-5.032-14.644-2.968-23.558 7.226-26.486Zm0 0" style="fill-rule:nonzero;fill:#ffc6b5;fill-opacity:1;stroke-width:.9;stroke-linecap:butt;stroke-linejoin:miter;stroke:#000;stroke-opacity:1;stroke-miterlimit:4" transform="matrix(.03027 0 0 .03068 -8.496 -.372)"/><path d="M895.002 172.195s3.613.51 5.549-.637c1.807-1.018 4-1.528 5.678.637 1.548 2.165 2.71 2.038 2.71 2.038s-2.452 5.985 0 6.621c2.322.51 3.483.51 3.612 1.4 0 .765-2.064 2.42-1.419 3.184.516.892 1.678 1.783 1.807 2.42.258.764-1.29 3.31-.904 4.075.516.51 1.936 3.056 2.84 3.056 1.031 0 .386 3.947 3.225 3.056 2.839-1.019 2.71-3.565 2.71-3.565s2.968-.383 3.742-3.057c.903-2.674 2.71-3.438 2.71-3.438s3.742-2.037-1.29-5.22c0-22.158-14.582-19.738-14.582-19.738s-1.677-4.075-4.645-3.566c-2.839.51-2.968 3.82-4.904 3.566-2.193-.382-2.58-1.783-2.71-1.656-.257.255-2.064 3.438-2.064 4.075 0 .892-5.42-.891-4.903 3.056.387 4.202 3.096 3.948 2.967 3.693Zm0 0" style="fill-rule:nonzero;fill:#9c5100;fill-opacity:1;stroke-width:.9;stroke-linecap:butt;stroke-linejoin:miter;stroke:#000;stroke-opacity:1;stroke-miterlimit:4" transform="matrix(.03027 0 0 .03068 -8.496 -.372)"/><path d="M920.81 207.977s-14.065 9.042-13.807 12.225m17.033-10.57s-3.226 3.44-3.484 3.44m7.613.381s-6.968 5.603-5.807 9.296m-27.098-15.536s-2.064 4.33-1.548 5.73 4 6.75 4.387 10.06c.516 3.439 0 5.73 0 5.73m-6.452-13.625s.517 4.967 1.549 5.985c1.032 1.02 3.484 5.349 3.742 7.004m-6.58 8.15s4.128 1.91 8-5.985m6.064-5.476c-.129 0-2.968 7.768 2.065 10.57 5.161 2.928 8.903 2.546 10.968 1.782 2.323-.764 4.774-2.292 4.774-2.292m-20-.51s.258 10.315 15.613 20.63m-14.968-10.824s-.13 9.168 5.806 13.243m-9.032-24.067s-4.517 13.625-8.259 15.026m6.968-5.093s-.258 9.805-1.548 13.37m-1.161 2.42s3.096 3.947 6.58 3.565 5.033-4.457 7.227-3.82c2.451.764 4.645 2.674 10.194 2.165m-8 4.075s0 8.022 1.548 8.913c1.42.764.645 8.15.645 8.15m-21.42-20.884s-.258 7.64-1.162 10.315-2.839 7.258-2.451 11.333m-6.065 4.33c.774-.255 3.484-2.675 3.484-2.675m1.42 1.656s-6.84 29.288-4.904 46.606m6.452-45.078s-3.484 21.775-1.936 25.977m.258-26.614 13.291.892m1.936-1.783s3.613 2.037 8.645 1.655m-10.323 9.041s-.516 37.31-1.548 45.588m21.033-37.056s4.129 32.854 6.58 35.782m-14.452-31.707s2.581 29.033 4 31.58m-40 10.187s5.032-1.655 9.419-6.367c5.032 6.877 12.775.382 12.775.382s12 8.15 17.42-1.018c8.258 5.348 12.387-.892 12.387-.892s2.968 4.712 5.162 4.202m-13.033 3.184s6.065 29.033 15.226 37.183" style="fill:none;stroke-width:.9;stroke-linecap:butt;stroke-linejoin:miter;stroke:#000;stroke-opacity:1;stroke-miterlimit:4" transform="matrix(.03027 0 0 .03068 -8.496 -.372)"/><path d="M888.938 347.669s.774 24.194 2.193 41.385m-3.355-14.007s-.774 15.79-1.677 17.063m-7.613 1.528s1.677 6.877 10.452.51c8.645-6.367 8.903 2.292 9.161 3.31.258.892 1.678 7.768 5.033 2.038m6.968-9.296s-1.42 14.007 11.097 3.82c12.517-10.314 14.581-.254 14.968 2.93m-25.807-230.103s-1.162 7.004 6.194 6.24c-.904 3.947 2.064 5.093 2.064 5.093m5.42 4.33c.129 0 3.355 2.037 0 4.584m-10.71.891s1.548 2.038 3.226 1.528c1.806-.51 4.645 1.656 4.645 1.656s2.452.891 2.71.382m-20.26 2.42s5.291 2.164 8.904-6.368m-18.839-2.547 3.097.128m-38.324 99.834.258 6.876m-6.71-7.513s4.516 7.513 4 11.46" style="fill:none;stroke-width:.9;stroke-linecap:butt;stroke-linejoin:miter;stroke:#000;stroke-opacity:1;stroke-miterlimit:4" transform="matrix(.03027 0 0 .03068 -8.496 -.372)"/><path d="M894.1 188.24h2.838l-2.452 1.019m17.162 110.785s3.355-.382 3.226 5.093c2.065-6.876 6.452-7.003 6.452-7.003" style="fill:none;stroke-width:.9;stroke-linecap:butt;stroke-linejoin:round;stroke:#000;stroke-opacity:1;stroke-miterlimit:4" transform="matrix(.03027 0 0 .03068 -8.496 -.372)"/><path d="M898.1 179.326c.515 0 2.193-.637 2.451-.127.387.382-1.807.764-2.452.127Zm0 0" style="fill:none;stroke-width:1.7;stroke-linecap:butt;stroke-linejoin:round;stroke:#000;stroke-opacity:1;stroke-miterlimit:4" transform="matrix(.03027 0 0 .03068 -8.496 -.372)"/><path d="M900.293 458.581c41.808-1.91 81.035-20.12 109.553-50.68-.388-.383 8.903-13.371 16.387-11.589 7.355 1.783 18.065 23.686 31.098 28.397 6.452 10.187-1.806 19.483-4.645 21.266s-15.356 7.003-17.162-.382c-1.936-7.513-5.678-5.985-5.678-5.985s-59.486 57.94-128.134 55.647c-70.97.382-129.553-55.774-129.553-55.774l-5.162 5.602s-5.548 5.985-8.387 5.603-14.968-8.404-15.872-16.3c-.774-7.894 7.485-12.988 7.485-12.988s20.517-15.79 22.84-24.067c4.645-4.711 13.42 3.184 13.42 3.184s53.937 61.76 113.81 57.94Zm0 0" style="fill-rule:nonzero;fill:#ffc72c;fill-opacity:1;stroke-width:1.9;stroke-linecap:butt;stroke-linejoin:miter;stroke:#000;stroke-opacity:1;stroke-miterlimit:4" transform="matrix(.03027 0 0 .03068 -8.496 -.372)"/><path d="M748.932 422.544s5.42-1.4 7.484 1.02c1.936 2.291 16.001 15.917 16.001 15.917" style="fill:none;stroke-width:1.9;stroke-linecap:butt;stroke-linejoin:miter;stroke:#000;stroke-opacity:1;stroke-miterlimit:4" transform="matrix(.03027 0 0 .03068 -8.496 -.372)"/><path d="m761.449 429.039-5.549 4.202s13.936 2.801 10.84 11.97m285.559-23.049s-2.71-1.4-6.968 1.783c-4.387 3.31-15.356 15.408-15.356 15.408" style="fill:none;stroke-width:1.9;stroke-linecap:butt;stroke-linejoin:miter;stroke:#000;stroke-opacity:1;stroke-miterlimit:4" transform="matrix(.03027 0 0 .03068 -8.496 -.372)"/><path d="m1039.911 428.657 5.936 4.584s-12.388 1.019-9.807 12.734" style="fill:none;stroke-width:1.9;stroke-linecap:butt;stroke-linejoin:miter;stroke:#000;stroke-opacity:1;stroke-miterlimit:4" transform="matrix(.03027 0 0 .03068 -8.496 -.372)"/><path d="M16.316 13.047c-.011.031-.039 0-.066.004-.059 0-.113.043-.168.074l-.559.328q-.018-.012-.007-.035l.152-.707c.004-.04.016-.09-.023-.121-.012-.012.011-.035.023-.012l.285.203c-.012.028-.027.008-.043-.004-.039-.039-.09 0-.086.047l-.101.465.379-.226c.043-.02.078-.083.03-.118-.015-.011-.046-.039-.015-.047Zm.204.98q-.013.028-.032.008l-.332-.183q-.001-.03.028-.012c.027.023.078.031.101-.008l.121-.223.168-.312c.028-.04 0-.086-.039-.102-.012-.004-.031-.011-.015-.023.007-.008.027.008.035.012l.32.18q-.005.024-.027.007c-.032-.023-.078-.031-.102.004l-.121.227-.172.312c-.023.035.004.086.04.102Zm1.289-.308-.094.258c-.04 0-.012-.051-.024-.075a.29.29 0 0 0-.21-.254c-.09-.023-.18.024-.235.098a.7.7 0 0 0-.137.375.23.23 0 0 0 .098.195c.055.032.117.051.18.047l.062-.195c.012-.043-.035-.07-.07-.078-.004-.012.008-.031.023-.016l.332.121c0 .04-.047-.004-.074.012-.039.016-.043.066-.062.102l-.04.117a.77.77 0 0 1-.433-.098c-.125-.078-.215-.238-.187-.39a.414.414 0 0 1 .578-.324.5.5 0 0 1 .16.105c.031.039.086.039.11-.004Zm.539.886c0 .012 0 .028-.016.016l-.383-.059c0-.015.004-.023.02-.015.031.004.078.004.09-.031q.021-.08.03-.16l.067-.45c.008-.031 0-.066-.035-.078q-.03-.011-.058-.015-.007-.022.015-.02l.383.062q.008.025-.02.02c-.027-.012-.074-.008-.09.031q-.018.076-.03.156l-.067.446c-.008.031 0 .07.039.082l.059.015Zm1.035-.253-.012.273-.687.035q-.006-.023.02-.023c.034 0 .077-.016.085-.055l-.012-.203-.02-.41c.005-.04-.03-.07-.07-.067-.011-.007-.042.012-.042-.011-.004-.016.023-.008.03-.012l.384-.02q.005.03-.024.024c-.031 0-.078.008-.09.05q.001.09.008.172l.02.43c0 .035.03.07.066.063.055-.004.113 0 .168-.016.074-.02.113-.098.137-.168.011-.02 0-.066.027-.062Zm.531-.668c-.02 0-.008.023-.016.035-.027.234-.058.46-.09.687-.007.055-.019.114-.066.137-.02.008-.004.035.016.02l.226-.07c-.004-.036-.047 0-.074-.009-.05 0-.058-.066-.05-.105q0-.041.007-.082l.262-.078c.035.039.066.082.101.129.024.043-.03.058-.062.07-.016 0-.004.031.012.016l.34-.102c0-.043-.047 0-.07-.031-.067-.047-.11-.114-.165-.176Zm0 .277.184.223-.223.066Zm1.168-.793.102.184c-.032.03-.051-.032-.079-.043a.15.15 0 0 0-.164-.016l-.062.035.297.563c.015.043.074.054.113.027.016-.016.023-.012.031.004q-.076.045-.16.086l-.195.11q-.018-.025.012-.032a.08.08 0 0 0 .046-.047.1.1 0 0 0-.011-.066l-.297-.555c-.05.031-.121.059-.133.125-.016.047.004.098.004.133-.016.02-.02-.004-.031-.016l-.082-.16Zm.465-.277.187.254c.043-.032.078-.082.067-.137.004-.043-.055-.09-.035-.121.011-.008.023.023.03.031l.22.293c-.032.031-.047-.035-.078-.043-.043-.031-.102-.047-.145-.012q-.046.02-.012.051.076.105.153.2c.03.03.074 0 .101-.024.07-.051.133-.13.133-.219.004-.043-.023-.086-.023-.125.02-.02.023.012.03.024l.102.183-.53.41c-.02-.015 0-.027.015-.035.047-.031.031-.098 0-.129l-.348-.457c-.027-.043-.082-.02-.11.008-.015.02-.03-.016-.011-.02l.5-.382.137.183c-.032.031-.059-.039-.094-.043-.066-.035-.145-.008-.2.04l-.093.07" style="stroke:none;fill-rule:nonzero;fill:#000;fill-opacity:1"/></svg>