<?xml version="1.0" encoding="UTF-8"?>
<svg xmlns="http://www.w3.org/2000/svg" xmlns:xlink="http://www.w3.org/1999/xlink" width="25px" height="px" viewBox="0 0 25 19" version="1.1">
<defs>
<linearGradient id="linear0" gradientUnits="userSpaceOnUse" x1="103.099998" y1="111.300003" x2="92.599998" y2="107.800003" gradientTransform="matrix(0.99614,0,0,2.25255,703.799988,-75)">
<stop offset="0" style="stop-color:rgb(100%,0%,0%);stop-opacity:1;"/>
<stop offset="1" style="stop-color:rgb(100%,100%,0%);stop-opacity:1;"/>
</linearGradient>
<linearGradient id="linear1" gradientUnits="userSpaceOnUse" x1="103.099998" y1="111.300003" x2="92.599998" y2="107.800003" gradientTransform="matrix(0.99614,0,0,2.25255,703.799988,-75)">
<stop offset="0" style="stop-color:rgb(100%,0%,0%);stop-opacity:1;"/>
<stop offset="1" style="stop-color:rgb(100%,100%,0%);stop-opacity:1;"/>
</linearGradient>
<linearGradient id="linear2" gradientUnits="userSpaceOnUse" x1="103.099998" y1="111.300003" x2="92.599998" y2="107.800003" gradientTransform="matrix(0.99614,0,0,2.25255,703.799988,-75)">
<stop offset="0" style="stop-color:rgb(100%,0%,0%);stop-opacity:1;"/>
<stop offset="1" style="stop-color:rgb(100%,100%,0%);stop-opacity:1;"/>
</linearGradient>
<linearGradient id="linear3" gradientUnits="userSpaceOnUse" x1="103.099998" y1="111.300003" x2="92.599998" y2="107.800003" gradientTransform="matrix(0.99614,0,0,2.25255,703.799988,-75)">
<stop offset="0" style="stop-color:rgb(100%,0%,0%);stop-opacity:1;"/>
<stop offset="1" style="stop-color:rgb(100%,100%,0%);stop-opacity:1;"/>
</linearGradient>
<linearGradient id="linear4" gradientUnits="userSpaceOnUse" x1="103.099998" y1="111.300003" x2="92.599998" y2="107.800003" gradientTransform="matrix(0.99614,0,0,2.25255,703.799988,-75)">
<stop offset="0" style="stop-color:rgb(100%,0%,0%);stop-opacity:1;"/>
<stop offset="1" style="stop-color:rgb(100%,100%,0%);stop-opacity:1;"/>
</linearGradient>
<linearGradient id="linear5" gradientUnits="userSpaceOnUse" x1="103.099998" y1="111.300003" x2="92.599998" y2="107.800003" gradientTransform="matrix(0.99614,0,0,2.25255,703.799988,-75)">
<stop offset="0" style="stop-color:rgb(100%,0%,0%);stop-opacity:1;"/>
<stop offset="1" style="stop-color:rgb(100%,100%,0%);stop-opacity:1;"/>
</linearGradient>
<linearGradient id="linear6" gradientUnits="userSpaceOnUse" x1="103.099998" y1="111.300003" x2="92.599998" y2="107.800003" gradientTransform="matrix(0.99614,0,0,2.25255,703.799988,-75)">
<stop offset="0" style="stop-color:rgb(100%,0%,0%);stop-opacity:1;"/>
<stop offset="1" style="stop-color:rgb(100%,100%,0%);stop-opacity:1;"/>
</linearGradient>
<linearGradient id="linear7" gradientUnits="userSpaceOnUse" x1="103.099998" y1="111.300003" x2="92.599998" y2="107.800003" gradientTransform="matrix(0.99614,0,0,2.25255,703.799988,-75)">
<stop offset="0" style="stop-color:rgb(100%,0%,0%);stop-opacity:1;"/>
<stop offset="1" style="stop-color:rgb(100%,100%,0%);stop-opacity:1;"/>
</linearGradient>
<linearGradient id="linear8" gradientUnits="userSpaceOnUse" x1="103.099998" y1="111.300003" x2="92.599998" y2="107.800003" gradientTransform="matrix(0.99614,0,0,2.25255,703.799988,-75)">
<stop offset="0" style="stop-color:rgb(100%,0%,0%);stop-opacity:1;"/>
<stop offset="1" style="stop-color:rgb(100%,100%,0%);stop-opacity:1;"/>
</linearGradient>
<linearGradient id="linear9" gradientUnits="userSpaceOnUse" x1="103.099998" y1="111.300003" x2="92.599998" y2="107.800003" gradientTransform="matrix(0.99614,0,0,2.25255,703.799988,-75)">
<stop offset="0" style="stop-color:rgb(100%,0%,0%);stop-opacity:1;"/>
<stop offset="1" style="stop-color:rgb(100%,100%,0%);stop-opacity:1;"/>
</linearGradient>
<linearGradient id="linear10" gradientUnits="userSpaceOnUse" x1="103.099998" y1="111.300003" x2="92.599998" y2="107.800003" gradientTransform="matrix(0.99614,0,0,2.25255,703.799988,-75)">
<stop offset="0" style="stop-color:rgb(100%,0%,0%);stop-opacity:1;"/>
<stop offset="1" style="stop-color:rgb(100%,100%,0%);stop-opacity:1;"/>
</linearGradient>
<linearGradient id="linear11" gradientUnits="userSpaceOnUse" x1="103.099998" y1="111.300003" x2="92.599998" y2="107.800003" gradientTransform="matrix(0.99614,0,0,2.25255,703.799988,-75)">
<stop offset="0" style="stop-color:rgb(100%,0%,0%);stop-opacity:1;"/>
<stop offset="1" style="stop-color:rgb(100%,100%,0%);stop-opacity:1;"/>
</linearGradient>
</defs>
<g id="surface1">
<rect x="0" y="0" width="25" height="19" style="fill:rgb(0%,0%,40.000001%);fill-opacity:1;stroke:none;"/>
<path style=" stroke:none;fill-rule:nonzero;fill:rgb(0.392157%,12.941177%,41.176471%);fill-opacity:1;" d="M 0 0 L 12.5 0 L 12.5 9.5 L 0 9.5 Z M 0 0 "/>
<path style=" stroke:none;fill-rule:nonzero;fill:rgb(100%,100%,100%);fill-opacity:1;" d="M 1.464844 0 L 6.230469 3.582031 L 10.976562 0 L 12.5 0 L 12.5 1.226562 L 7.8125 4.769531 L 12.5 8.292969 L 12.5 9.5 L 10.9375 9.5 L 6.25 5.957031 L 1.582031 9.5 L 0 9.5 L 0 8.3125 L 4.667969 4.789062 L 0 1.265625 L 0 0 Z M 1.464844 0 "/>
<path style=" stroke:none;fill-rule:nonzero;fill:rgb(78.431374%,6.27451%,18.039216%);fill-opacity:1;" d="M 8.28125 5.5625 L 12.5 8.707031 L 12.5 9.5 L 7.207031 5.5625 Z M 4.6875 5.957031 L 4.804688 6.648438 L 1.054688 9.5 L 0 9.5 Z M 12.5 0 L 12.5 0.0585938 L 7.636719 3.78125 L 7.675781 2.910156 L 11.523438 0 Z M 0 0 L 4.667969 3.484375 L 3.496094 3.484375 L 0 0.832031 Z M 0 0 "/>
<path style=" stroke:none;fill-rule:nonzero;fill:rgb(100%,100%,100%);fill-opacity:1;" d="M 4.707031 0 L 4.707031 9.5 L 7.832031 9.5 L 7.832031 0 Z M 0 3.167969 L 0 6.332031 L 12.5 6.332031 L 12.5 3.167969 Z M 0 3.167969 "/>
<path style=" stroke:none;fill-rule:nonzero;fill:rgb(78.431374%,6.27451%,18.039216%);fill-opacity:1;" d="M 0 3.820312 L 0 5.71875 L 12.5 5.71875 L 12.5 3.820312 Z M 5.332031 0 L 5.332031 9.5 L 7.207031 9.5 L 7.207031 0 Z M 5.332031 0 "/>
<path style=" stroke:none;fill-rule:nonzero;fill:rgb(100%,100%,100%);fill-opacity:1;" d="M 15.003906 4.046875 L 22.585938 4.019531 L 22.570312 10.859375 C 22.570312 10.859375 22.835938 11.902344 19.390625 13.480469 C 20.628906 13.351562 21.980469 12.015625 21.980469 12.015625 C 21.980469 12.015625 22.527344 11.300781 22.796875 11.699219 C 23.066406 12.097656 23.3125 12.300781 23.511719 12.457031 C 23.707031 12.613281 23.863281 13.039062 23.566406 13.351562 C 23.273438 13.667969 22.808594 13.707031 22.679688 13.324219 C 22.484375 13.425781 21.277344 14.90625 18.800781 14.976562 C 16.28125 14.933594 14.90625 13.308594 14.90625 13.308594 C 14.90625 13.308594 14.566406 13.851562 14.085938 13.425781 C 13.625 12.867188 13.976562 12.511719 13.976562 12.511719 C 13.976562 12.511719 14.367188 12.285156 14.484375 12.128906 C 14.664062 11.914062 14.722656 11.628906 15.027344 11.628906 C 15.398438 11.660156 15.535156 11.957031 15.535156 11.957031 C 15.535156 11.957031 16.800781 13.308594 18.167969 13.480469 C 15.089844 11.984375 14.972656 11.058594 14.988281 10.832031 Z M 15.003906 4.046875 "/>
<path style="fill-rule:nonzero;fill:rgb(0%,38.039216%,16.078432%);fill-opacity:1;stroke-width:1.9;stroke-linecap:butt;stroke-linejoin:miter;stroke:rgb(0%,0%,0%);stroke-opacity:1;stroke-miterlimit:4;" d="M 782.35287 150.038066 L 1021.07179 148.637333 L 1021.07179 363.331554 C 1021.587939 391.346221 974.618379 419.615566 901.196181 455.779955 C 825.451313 416.8141 781.836721 393.128972 781.44961 362.822196 Z M 782.35287 150.038066 " transform="matrix(0.0302723,0,0,0.0306759,-8.496094,-0.372083)"/>
<path style="fill:none;stroke-width:1.9;stroke-linecap:butt;stroke-linejoin:miter;stroke:rgb(100%,78.039217%,17.254902%);stroke-opacity:1;stroke-miterlimit:4;" d="M 814.741221 181.745576 L 828.806282 161.116594 L 843.129417 181.872915 " transform="matrix(0.0302723,0,0,0.0306759,-8.496094,-0.372083)"/>
<path style="fill-rule:nonzero;fill:rgb(100%,78.039217%,17.254902%);fill-opacity:1;stroke-width:0.9;stroke-linecap:butt;stroke-linejoin:miter;stroke:rgb(0%,0%,0%);stroke-opacity:1;stroke-miterlimit:4;" d="M 831.645101 173.977873 C 831.645101 175.505946 830.483766 176.779339 828.935319 176.779339 C 827.386872 176.779339 826.096499 175.505946 826.096499 173.977873 C 826.096499 172.4498 827.386872 171.176406 828.935319 171.176406 C 830.483766 171.176406 831.645101 172.4498 831.645101 173.977873 Z M 831.645101 173.977873 " transform="matrix(0.0302723,0,0,0.0306759,-8.496094,-0.372083)"/>
<path style="fill-rule:nonzero;fill:rgb(100%,78.039217%,17.254902%);fill-opacity:1;stroke-width:0.9;stroke-linecap:butt;stroke-linejoin:miter;stroke:rgb(0%,0%,0%);stroke-opacity:1;stroke-miterlimit:4;" d="M 817.451003 197.153643 L 839.258299 197.153643 C 839.258299 197.153643 839.645411 194.352176 836.935629 192.569424 C 848.548982 191.041352 845.452087 180.98154 855.000844 180.344843 C 856.936403 180.726861 849.968391 184.674382 849.968391 184.674382 C 849.968391 184.674382 844.290752 188.749243 847.000534 190.786673 C 848.936093 192.442085 849.968391 189.767958 850.226466 187.857867 C 850.355503 185.820437 859.517148 184.547043 858.226776 178.81677 C 856.16218 174.105212 843.516529 182.000255 843.516529 182.000255 L 834.483921 181.872915 C 833.838735 180.8542 831.516064 176.906679 828.935319 176.906679 C 825.838425 176.906679 823.644792 181.872915 823.644792 181.872915 L 803.385943 181.872915 C 803.385943 181.872915 802.740756 187.22117 813.063737 188.239885 C 815.25737 191.168691 817.063892 192.060067 819.257525 192.824103 C 817.838115 193.842818 817.321966 195.243552 817.451003 197.153643 Z M 818.99945 192.696764 L 837.193703 192.696764 " transform="matrix(0.0302723,0,0,0.0306759,-8.496094,-0.372083)"/>
<path style="fill-rule:nonzero;fill:rgb(100%,78.039217%,17.254902%);fill-opacity:1;stroke-width:0.9;stroke-linecap:butt;stroke-linejoin:miter;stroke:rgb(0%,0%,0%);stroke-opacity:1;stroke-miterlimit:4;" d="M 810.741066 182.000255 C 810.741066 182.000255 812.160476 190.531994 818.870413 192.442085 " transform="matrix(0.0302723,0,0,0.0306759,-8.496094,-0.372083)"/>
<path style="fill-rule:nonzero;fill:url(#linear0);stroke-width:0.9;stroke-linecap:butt;stroke-linejoin:miter;stroke:rgb(0%,0%,0%);stroke-opacity:1;stroke-miterlimit:4;" d="M 809.579731 181.745576 C 810.224917 178.562091 811.51529 178.052733 812.805662 173.850533 C 813.063737 169.775673 809.579731 170.28503 810.612029 167.738242 C 812.289513 164.809436 811.51529 162.262648 808.160321 160.097879 C 808.805507 163.790721 803.644017 167.356224 803.644017 170.28503 C 803.644017 173.341176 806.3538 172.704479 805.966688 177.288697 C 806.224762 179.962824 805.321501 179.326127 805.063427 181.745576 Z M 809.579731 181.745576 " transform="matrix(0.0302723,0,0,0.0306759,-8.496094,-0.372083)"/>
<path style="fill-rule:nonzero;fill:rgb(100%,78.039217%,17.254902%);fill-opacity:1;stroke-width:0.9;stroke-linecap:butt;stroke-linejoin:miter;stroke:rgb(0%,0%,0%);stroke-opacity:1;stroke-miterlimit:4;" d="M 831.516064 161.753291 C 831.516064 163.154024 830.354729 164.300079 828.935319 164.300079 C 827.515909 164.300079 826.354574 163.154024 826.354574 161.753291 C 826.354574 160.225218 827.515909 159.079164 828.935319 159.079164 C 830.354729 159.079164 831.516064 160.225218 831.516064 161.753291 Z M 831.516064 161.753291 " transform="matrix(0.0302723,0,0,0.0306759,-8.496094,-0.372083)"/>
<path style="fill:none;stroke-width:1.9;stroke-linecap:butt;stroke-linejoin:miter;stroke:rgb(100%,78.039217%,17.254902%);stroke-opacity:1;stroke-miterlimit:4;" d="M 814.766998 181.83088 L 828.832058 161.074559 L 843.155193 181.95822 " transform="matrix(0.0302723,0,0,0.0306759,-8.520312,0.894831)"/>
<path style="fill-rule:nonzero;fill:rgb(100%,78.039217%,17.254902%);fill-opacity:1;stroke-width:0.9;stroke-linecap:butt;stroke-linejoin:miter;stroke:rgb(0%,0%,0%);stroke-opacity:1;stroke-miterlimit:4;" d="M 831.670878 174.063177 C 831.670878 175.59125 830.509542 176.737304 828.961095 176.737304 C 827.412648 176.737304 826.122276 175.59125 826.122276 174.063177 C 826.122276 172.407765 827.412648 171.26171 828.961095 171.26171 C 830.509542 171.26171 831.670878 172.407765 831.670878 174.063177 Z M 831.670878 174.063177 " transform="matrix(0.0302723,0,0,0.0306759,-8.520312,0.894831)"/>
<path style="fill-rule:nonzero;fill:rgb(100%,78.039217%,17.254902%);fill-opacity:1;stroke-width:0.9;stroke-linecap:butt;stroke-linejoin:miter;stroke:rgb(0%,0%,0%);stroke-opacity:1;stroke-miterlimit:4;" d="M 817.347743 197.111608 L 839.284076 197.111608 C 839.284076 197.111608 839.54215 194.310141 836.961405 192.654729 C 848.445721 190.999317 845.477864 180.939504 855.026621 180.430147 C 856.96218 180.684826 849.994168 184.759686 849.994168 184.759686 C 849.994168 184.759686 844.316529 188.707207 847.026311 190.744638 C 848.96187 192.527389 849.994168 189.853262 850.252242 187.815832 C 850.38128 185.778401 859.542925 184.505007 858.252552 178.774735 C 856.058919 174.063177 843.542305 181.95822 843.542305 181.95822 L 834.509697 181.95822 C 833.864511 180.939504 831.541841 176.864644 828.961095 176.864644 C 825.864201 176.864644 823.670568 181.95822 823.670568 181.95822 L 803.411719 181.95822 C 803.411719 181.95822 802.637496 187.179135 812.960476 188.19785 C 815.283147 191.253995 817.089668 192.018032 819.154264 192.782068 C 817.863892 193.928123 817.218705 195.328856 817.347743 197.111608 Z M 819.025227 192.654729 L 837.21948 192.654729 " transform="matrix(0.0302723,0,0,0.0306759,-8.520312,0.894831)"/>
<path style="fill-rule:nonzero;fill:rgb(100%,78.039217%,17.254902%);fill-opacity:1;stroke-width:0.9;stroke-linecap:butt;stroke-linejoin:miter;stroke:rgb(0%,0%,0%);stroke-opacity:1;stroke-miterlimit:4;" d="M 810.637805 181.95822 C 810.637805 181.95822 812.057215 190.489959 818.89619 192.527389 " transform="matrix(0.0302723,0,0,0.0306759,-8.520312,0.894831)"/>
<path style="fill-rule:nonzero;fill:url(#linear1);stroke-width:0.9;stroke-linecap:butt;stroke-linejoin:miter;stroke:rgb(0%,0%,0%);stroke-opacity:1;stroke-miterlimit:4;" d="M 809.605507 181.83088 C 810.250694 178.647395 811.541066 178.010698 812.831439 173.808498 C 812.960476 169.860977 809.605507 170.242995 810.637805 167.823547 C 812.31529 164.894741 811.541066 162.347953 808.05706 160.055844 C 808.831284 163.748686 803.669794 167.314189 803.669794 170.242995 C 803.669794 173.299141 806.250539 172.662444 805.992464 177.246662 C 806.250539 179.920789 805.347278 179.284092 804.960166 181.83088 Z M 809.605507 181.83088 " transform="matrix(0.0302723,0,0,0.0306759,-8.520312,0.894831)"/>
<path style="fill-rule:nonzero;fill:rgb(100%,78.039217%,17.254902%);fill-opacity:1;stroke-width:0.9;stroke-linecap:butt;stroke-linejoin:miter;stroke:rgb(0%,0%,0%);stroke-opacity:1;stroke-miterlimit:4;" d="M 831.541841 161.711256 C 831.541841 163.111989 830.380505 164.258044 828.961095 164.258044 C 827.412648 164.258044 826.251313 163.111989 826.251313 161.711256 C 826.251313 160.310522 827.412648 159.037128 828.961095 159.037128 C 830.380505 159.037128 831.541841 160.310522 831.541841 161.711256 Z M 831.541841 161.711256 " transform="matrix(0.0302723,0,0,0.0306759,-8.520312,0.894831)"/>
<path style="fill:none;stroke-width:1.9;stroke-linecap:butt;stroke-linejoin:miter;stroke:rgb(100%,78.039217%,17.254902%);stroke-opacity:1;stroke-miterlimit:4;" d="M 814.808923 181.752146 L 828.744946 161.123164 L 843.068082 181.879486 " transform="matrix(0.0302723,0,0,0.0306759,-8.529393,2.14334)"/>
<path style="fill-rule:nonzero;fill:rgb(100%,78.039217%,17.254902%);fill-opacity:1;stroke-width:0.9;stroke-linecap:butt;stroke-linejoin:miter;stroke:rgb(0%,0%,0%);stroke-opacity:1;stroke-miterlimit:4;" d="M 831.712803 173.984443 C 831.712803 175.512516 830.422431 176.78591 828.873984 176.78591 C 827.325537 176.78591 826.164201 175.512516 826.164201 173.984443 C 826.164201 172.456371 827.325537 171.182977 828.873984 171.182977 C 830.422431 171.182977 831.712803 172.456371 831.712803 173.984443 Z M 831.712803 173.984443 " transform="matrix(0.0302723,0,0,0.0306759,-8.529393,2.14334)"/>
<path style="fill-rule:nonzero;fill:rgb(100%,78.039217%,17.254902%);fill-opacity:1;stroke-width:0.9;stroke-linecap:butt;stroke-linejoin:miter;stroke:rgb(0%,0%,0%);stroke-opacity:1;stroke-miterlimit:4;" d="M 817.389668 197.160213 L 839.326001 197.160213 C 839.326001 197.160213 839.584076 194.358747 837.003331 192.575995 C 848.487646 191.047922 845.519789 180.98811 854.939509 180.351413 C 857.004105 180.733431 850.036093 184.680953 850.036093 184.680953 C 850.036093 184.680953 844.358454 188.755813 846.939199 190.793244 C 849.003795 192.448656 850.036093 189.774528 850.165131 187.737098 C 850.423205 185.827007 859.455813 184.553613 858.16544 178.82334 C 856.100844 174.111783 843.455193 182.006825 843.455193 182.006825 L 834.551623 181.879486 C 833.906437 180.860771 831.454729 176.913249 828.873984 176.913249 C 825.906127 176.913249 823.712494 181.879486 823.712494 181.879486 L 803.453645 181.879486 C 803.453645 181.879486 802.679421 187.22774 813.002401 188.246456 C 815.325072 191.175262 817.131594 191.939298 819.19619 192.830674 C 817.905817 193.849389 817.260631 195.250122 817.389668 197.160213 Z M 818.938115 192.703334 L 837.261405 192.703334 " transform="matrix(0.0302723,0,0,0.0306759,-8.529393,2.14334)"/>
<path style="fill-rule:nonzero;fill:rgb(100%,78.039217%,17.254902%);fill-opacity:1;stroke-width:0.9;stroke-linecap:butt;stroke-linejoin:miter;stroke:rgb(0%,0%,0%);stroke-opacity:1;stroke-miterlimit:4;" d="M 810.679731 182.006825 C 810.679731 182.006825 812.099141 190.538565 818.938115 192.448656 " transform="matrix(0.0302723,0,0,0.0306759,-8.529393,2.14334)"/>
<path style="fill-rule:nonzero;fill:url(#linear2);stroke-width:0.9;stroke-linecap:butt;stroke-linejoin:miter;stroke:rgb(0%,0%,0%);stroke-opacity:1;stroke-miterlimit:4;" d="M 809.647433 181.752146 C 810.163582 178.568662 811.453954 178.059304 812.744327 173.857104 C 813.002401 169.782243 809.647433 170.291601 810.550694 167.744813 C 812.357215 164.816007 811.453954 162.269219 808.098986 160.104449 C 808.744172 163.797292 803.711719 167.362795 803.711719 170.291601 C 803.711719 173.347746 806.292464 172.711049 806.03439 177.295268 C 806.163427 179.842056 805.260166 179.332698 805.002092 181.752146 Z M 809.647433 181.752146 " transform="matrix(0.0302723,0,0,0.0306759,-8.529393,2.14334)"/>
<path style="fill-rule:nonzero;fill:rgb(100%,78.039217%,17.254902%);fill-opacity:1;stroke-width:0.9;stroke-linecap:butt;stroke-linejoin:miter;stroke:rgb(0%,0%,0%);stroke-opacity:1;stroke-miterlimit:4;" d="M 831.454729 161.759861 C 831.454729 163.160595 830.293393 164.306649 828.873984 164.306649 C 827.454574 164.306649 826.293239 163.160595 826.293239 161.759861 C 826.293239 160.231789 827.454574 159.085734 828.873984 159.085734 C 830.293393 159.085734 831.454729 160.231789 831.454729 161.759861 Z M 831.454729 161.759861 " transform="matrix(0.0302723,0,0,0.0306759,-8.529393,2.14334)"/>
<path style="fill:none;stroke-width:1.9;stroke-linecap:butt;stroke-linejoin:miter;stroke:rgb(100%,78.039217%,17.254902%);stroke-opacity:1;stroke-miterlimit:4;" d="M 814.819634 181.838918 L 828.755658 161.082597 L 843.078793 181.838918 " transform="matrix(0.0302723,0,0,0.0306759,-7.721124,3.496147)"/>
<path style="fill-rule:nonzero;fill:rgb(100%,78.039217%,17.254902%);fill-opacity:1;stroke-width:0.9;stroke-linecap:butt;stroke-linejoin:miter;stroke:rgb(0%,0%,0%);stroke-opacity:1;stroke-miterlimit:4;" d="M 831.723514 173.943876 C 831.723514 175.599288 830.433142 176.745342 828.884695 176.745342 C 827.336248 176.745342 826.045875 175.599288 826.045875 173.943876 C 826.045875 172.415803 827.336248 171.142409 828.884695 171.142409 C 830.433142 171.142409 831.723514 172.415803 831.723514 173.943876 Z M 831.723514 173.943876 " transform="matrix(0.0302723,0,0,0.0306759,-7.721124,3.496147)"/>
<path style="fill-rule:nonzero;fill:rgb(100%,78.039217%,17.254902%);fill-opacity:1;stroke-width:0.9;stroke-linecap:butt;stroke-linejoin:miter;stroke:rgb(0%,0%,0%);stroke-opacity:1;stroke-miterlimit:4;" d="M 817.400379 197.119646 L 839.336712 197.119646 C 839.336712 197.119646 839.594787 194.318179 837.014042 192.662767 C 848.498357 191.007355 845.530501 180.947542 854.95022 180.438185 C 857.014816 180.692864 850.046804 184.640385 850.046804 184.640385 C 850.046804 184.640385 844.240128 188.715245 846.94991 190.752676 C 849.014506 192.535427 850.046804 189.8613 850.175842 187.82387 C 850.433916 185.786439 859.466524 184.513045 858.176151 178.782773 C 856.111555 174.071215 843.465905 181.966258 843.465905 181.966258 L 834.562334 181.838918 C 833.917148 180.947542 831.46544 176.872682 828.884695 176.872682 C 825.916838 176.872682 823.723205 181.838918 823.723205 181.838918 L 803.464356 181.838918 C 803.464356 181.838918 802.690132 187.187173 813.013113 188.205888 C 815.335783 191.262033 817.142305 192.02607 819.206901 192.790106 C 817.916528 193.808821 817.271342 195.336894 817.400379 197.119646 Z M 818.948826 192.662767 L 837.143079 192.662767 " transform="matrix(0.0302723,0,0,0.0306759,-7.721124,3.496147)"/>
<path style="fill-rule:nonzero;fill:rgb(100%,78.039217%,17.254902%);fill-opacity:1;stroke-width:0.9;stroke-linecap:butt;stroke-linejoin:miter;stroke:rgb(0%,0%,0%);stroke-opacity:1;stroke-miterlimit:4;" d="M 810.690442 181.966258 C 810.690442 181.966258 812.109852 190.497997 818.948826 192.535427 " transform="matrix(0.0302723,0,0,0.0306759,-7.721124,3.496147)"/>
<path style="fill-rule:nonzero;fill:url(#linear3);stroke-width:0.9;stroke-linecap:butt;stroke-linejoin:miter;stroke:rgb(0%,0%,0%);stroke-opacity:1;stroke-miterlimit:4;" d="M 809.658144 181.838918 C 810.174293 178.655433 811.464666 178.018736 812.755038 173.816536 C 813.013113 169.741676 809.658144 170.251033 810.561405 167.831585 C 812.367926 164.902779 811.464666 162.355991 808.109697 160.063882 C 808.754883 163.756724 803.72243 167.322227 803.72243 170.251033 C 803.72243 173.307179 806.303175 172.670482 806.045101 177.2547 C 806.174138 179.928827 805.270877 179.29213 805.012803 181.838918 Z M 809.658144 181.838918 " transform="matrix(0.0302723,0,0,0.0306759,-7.721124,3.496147)"/>
<path style="fill-rule:nonzero;fill:rgb(100%,78.039217%,17.254902%);fill-opacity:1;stroke-width:0.9;stroke-linecap:butt;stroke-linejoin:miter;stroke:rgb(0%,0%,0%);stroke-opacity:1;stroke-miterlimit:4;" d="M 831.46544 161.719294 C 831.46544 163.120027 830.304105 164.266082 828.884695 164.266082 C 827.465285 164.266082 826.30395 163.120027 826.30395 161.719294 C 826.30395 160.31856 827.465285 159.045166 828.884695 159.045166 C 830.304105 159.045166 831.46544 160.31856 831.46544 161.719294 Z M 831.46544 161.719294 " transform="matrix(0.0302723,0,0,0.0306759,-7.721124,3.496147)"/>
<path style="fill:none;stroke-width:1.9;stroke-linecap:butt;stroke-linejoin:miter;stroke:rgb(100%,78.039217%,17.254902%);stroke-opacity:1;stroke-miterlimit:4;" d="M 814.824917 181.775969 L 828.76094 161.146986 L 843.084076 181.903308 " transform="matrix(0.0302723,0,0,0.0306759,-8.635346,4.603547)"/>
<path style="fill-rule:nonzero;fill:rgb(100%,78.039217%,17.254902%);fill-opacity:1;stroke-width:0.9;stroke-linecap:butt;stroke-linejoin:miter;stroke:rgb(0%,0%,0%);stroke-opacity:1;stroke-miterlimit:4;" d="M 831.728797 174.008265 C 831.728797 175.536338 830.438425 176.809732 828.889978 176.809732 C 827.341531 176.809732 826.051158 175.536338 826.051158 174.008265 C 826.051158 172.480193 827.341531 171.206799 828.889978 171.206799 C 830.438425 171.206799 831.728797 172.480193 831.728797 174.008265 Z M 831.728797 174.008265 " transform="matrix(0.0302723,0,0,0.0306759,-8.635346,4.603547)"/>
<path style="fill-rule:nonzero;fill:rgb(100%,78.039217%,17.254902%);fill-opacity:1;stroke-width:0.9;stroke-linecap:butt;stroke-linejoin:miter;stroke:rgb(0%,0%,0%);stroke-opacity:1;stroke-miterlimit:4;" d="M 817.405662 197.056696 L 839.341995 197.056696 C 839.341995 197.056696 839.60007 194.255229 837.019325 192.599817 C 848.50364 190.944405 845.535783 181.011932 854.955503 180.375235 C 857.020099 180.757253 850.052087 184.704775 850.052087 184.704775 C 850.052087 184.704775 844.245411 188.652296 846.955193 190.817066 C 849.019789 192.472478 850.052087 189.79835 850.181125 187.76092 C 850.439199 185.850829 859.471807 184.450096 858.181434 178.847162 C 856.116838 174.135605 843.471187 182.030647 843.471187 182.030647 L 834.43858 181.903308 C 833.922431 180.884593 831.470723 176.937072 828.889978 176.937072 C 825.922121 176.937072 823.728488 181.903308 823.728488 181.903308 L 803.340601 181.903308 C 803.340601 181.903308 802.695415 187.251563 813.018395 188.142938 C 815.341066 191.199084 817.147588 191.96312 819.212184 192.854496 C 817.921811 193.873211 817.276625 195.273944 817.405662 197.056696 Z M 818.954109 192.727157 L 837.148362 192.727157 " transform="matrix(0.0302723,0,0,0.0306759,-8.635346,4.603547)"/>
<path style="fill-rule:nonzero;fill:rgb(100%,78.039217%,17.254902%);fill-opacity:1;stroke-width:0.9;stroke-linecap:butt;stroke-linejoin:miter;stroke:rgb(0%,0%,0%);stroke-opacity:1;stroke-miterlimit:4;" d="M 810.695725 182.030647 C 810.695725 182.030647 812.115135 190.562387 818.954109 192.472478 " transform="matrix(0.0302723,0,0,0.0306759,-8.635346,4.603547)"/>
<path style="fill-rule:nonzero;fill:url(#linear4);stroke-width:0.9;stroke-linecap:butt;stroke-linejoin:miter;stroke:rgb(0%,0%,0%);stroke-opacity:1;stroke-miterlimit:4;" d="M 809.663427 181.775969 C 810.179576 178.592484 811.469948 177.955787 812.760321 173.753587 C 813.018395 169.806065 809.663427 170.315423 810.566688 167.768635 C 812.373209 164.839829 811.469948 162.293041 808.11498 160.128271 C 808.760166 163.821114 803.727713 167.259277 803.727713 170.315423 C 803.727713 173.244229 806.308458 172.734871 806.050384 177.31909 C 806.179421 179.865878 805.27616 179.35652 805.018086 181.775969 Z M 809.663427 181.775969 " transform="matrix(0.0302723,0,0,0.0306759,-8.635346,4.603547)"/>
<path style="fill-rule:nonzero;fill:rgb(100%,78.039217%,17.254902%);fill-opacity:1;stroke-width:0.9;stroke-linecap:butt;stroke-linejoin:miter;stroke:rgb(0%,0%,0%);stroke-opacity:1;stroke-miterlimit:4;" d="M 831.470723 161.656344 C 831.470723 163.184417 830.309388 164.330471 828.889978 164.330471 C 827.470568 164.330471 826.309233 163.184417 826.309233 161.656344 C 826.309233 160.255611 827.470568 159.109556 828.889978 159.109556 C 830.309388 159.109556 831.470723 160.255611 831.470723 161.656344 Z M 831.470723 161.656344 " transform="matrix(0.0302723,0,0,0.0306759,-8.635346,4.603547)"/>
<path style="fill:none;stroke-width:1.9;stroke-linecap:butt;stroke-linejoin:miter;stroke:rgb(100%,78.039217%,17.254902%);stroke-opacity:1;stroke-miterlimit:4;" d="M 814.799141 181.83466 L 828.864201 161.078338 L 843.058299 181.961999 " transform="matrix(0.0302723,0,0,0.0306759,-8.611128,5.91034)"/>
<path style="fill-rule:nonzero;fill:rgb(100%,78.039217%,17.254902%);fill-opacity:1;stroke-width:0.9;stroke-linecap:butt;stroke-linejoin:miter;stroke:rgb(0%,0%,0%);stroke-opacity:1;stroke-miterlimit:4;" d="M 831.703021 173.939617 C 831.703021 175.595029 830.412648 176.741084 828.864201 176.741084 C 827.315754 176.741084 826.154419 175.595029 826.154419 173.939617 C 826.154419 172.411545 827.315754 171.138151 828.864201 171.138151 C 830.412648 171.138151 831.703021 172.411545 831.703021 173.939617 Z M 831.703021 173.939617 " transform="matrix(0.0302723,0,0,0.0306759,-8.611128,5.91034)"/>
<path style="fill-rule:nonzero;fill:rgb(100%,78.039217%,17.254902%);fill-opacity:1;stroke-width:0.9;stroke-linecap:butt;stroke-linejoin:miter;stroke:rgb(0%,0%,0%);stroke-opacity:1;stroke-miterlimit:4;" d="M 817.379886 197.115387 L 839.316219 197.115387 C 839.316219 197.115387 839.574293 194.313921 836.993548 192.658508 C 848.477864 191.003096 845.510007 180.943284 855.058764 180.433926 C 856.994323 180.688605 850.026311 184.763466 850.026311 184.763466 C 850.026311 184.763466 844.348672 188.710987 847.058454 190.748418 C 848.994013 192.531169 850.026311 189.857042 850.155348 187.819611 C 850.413423 185.782181 859.44603 184.508787 858.155658 178.778514 C 856.091062 174.066957 843.445411 181.961999 843.445411 181.961999 L 834.54184 181.961999 C 833.896654 180.943284 831.444946 176.868423 828.864201 176.868423 C 825.896344 176.868423 823.702711 181.961999 823.702711 181.961999 L 803.443862 181.961999 C 803.443862 181.961999 802.669639 187.182914 812.992619 188.20163 C 815.31529 191.257775 817.121811 192.021811 819.186407 192.785848 C 817.896035 193.804563 817.250848 195.332636 817.379886 197.115387 Z M 819.05737 192.658508 L 837.251623 192.658508 " transform="matrix(0.0302723,0,0,0.0306759,-8.611128,5.91034)"/>
<path style="fill-rule:nonzero;fill:rgb(100%,78.039217%,17.254902%);fill-opacity:1;stroke-width:0.9;stroke-linecap:butt;stroke-linejoin:miter;stroke:rgb(0%,0%,0%);stroke-opacity:1;stroke-miterlimit:4;" d="M 810.669948 181.961999 C 810.669948 181.961999 812.089358 190.493739 818.928333 192.531169 " transform="matrix(0.0302723,0,0,0.0306759,-8.611128,5.91034)"/>
<path style="fill-rule:nonzero;fill:url(#linear5);stroke-width:0.9;stroke-linecap:butt;stroke-linejoin:miter;stroke:rgb(0%,0%,0%);stroke-opacity:1;stroke-miterlimit:4;" d="M 809.63765 181.83466 C 810.153799 178.651175 811.444172 178.014478 812.863582 173.812278 C 812.992619 169.737417 809.63765 170.246775 810.540911 167.827326 C 812.347433 164.89852 811.444172 162.351732 808.089203 160.059623 C 808.863427 163.752466 803.701937 167.317969 803.701937 170.246775 C 803.701937 173.30292 806.282682 172.666223 806.024607 177.250442 C 806.153645 179.924569 805.250384 179.287872 804.992309 181.83466 Z M 809.63765 181.83466 " transform="matrix(0.0302723,0,0,0.0306759,-8.611128,5.91034)"/>
<path style="fill-rule:nonzero;fill:rgb(100%,78.039217%,17.254902%);fill-opacity:1;stroke-width:0.9;stroke-linecap:butt;stroke-linejoin:miter;stroke:rgb(0%,0%,0%);stroke-opacity:1;stroke-miterlimit:4;" d="M 831.444946 161.715035 C 831.444946 163.115769 830.283611 164.261823 828.864201 164.261823 C 827.444791 164.261823 826.283456 163.115769 826.283456 161.715035 C 826.283456 160.314302 827.444791 159.040908 828.864201 159.040908 C 830.283611 159.040908 831.444946 160.314302 831.444946 161.715035 Z M 831.444946 161.715035 " transform="matrix(0.0302723,0,0,0.0306759,-8.611128,5.91034)"/>
<path style="fill:none;stroke-width:1.9;stroke-linecap:butt;stroke-linejoin:miter;stroke:rgb(100%,78.039217%,17.254902%);stroke-opacity:1;stroke-miterlimit:4;" d="M 814.769464 181.809612 L 828.834525 161.053291 L 843.15766 181.936952 " transform="matrix(0.0302723,0,0,0.0306759,-4.067261,-0.35061)"/>
<path style="fill-rule:nonzero;fill:rgb(100%,78.039217%,17.254902%);fill-opacity:1;stroke-width:0.9;stroke-linecap:butt;stroke-linejoin:miter;stroke:rgb(0%,0%,0%);stroke-opacity:1;stroke-miterlimit:4;" d="M 831.673344 174.041909 C 831.673344 175.569982 830.382972 176.843376 828.963562 176.843376 C 827.415115 176.843376 826.124742 175.569982 826.124742 174.041909 C 826.124742 172.513836 827.415115 171.240442 828.963562 171.240442 C 830.382972 171.240442 831.673344 172.513836 831.673344 174.041909 Z M 831.673344 174.041909 " transform="matrix(0.0302723,0,0,0.0306759,-4.067261,-0.35061)"/>
<path style="fill-rule:nonzero;fill:rgb(100%,78.039217%,17.254902%);fill-opacity:1;stroke-width:0.9;stroke-linecap:butt;stroke-linejoin:miter;stroke:rgb(0%,0%,0%);stroke-opacity:1;stroke-miterlimit:4;" d="M 817.350209 197.09034 L 839.286542 197.09034 C 839.286542 197.09034 839.544617 194.288873 836.963872 192.633461 C 848.448187 190.978049 845.48033 181.045576 855.029087 180.408879 C 856.964646 180.663558 849.996634 184.738418 849.996634 184.738418 C 849.996634 184.738418 844.318995 188.68594 847.028777 190.850709 C 848.964336 192.506121 849.996634 189.831994 850.254709 187.794564 C 850.383746 185.757134 859.545391 184.48374 858.255018 178.753467 C 856.061385 174.041909 843.544771 181.936952 843.544771 181.936952 L 834.512164 181.936952 C 833.866977 180.918237 831.544307 176.843376 828.963562 176.843376 C 825.866668 176.843376 823.673034 181.936952 823.673034 181.936952 L 803.414186 181.936952 C 803.414186 181.936952 802.639962 187.157867 812.962942 188.176582 C 815.285613 191.232728 817.092134 191.996764 819.156731 192.7608 C 817.866358 193.906855 817.221172 195.307588 817.350209 197.09034 Z M 819.027693 192.7608 L 837.221946 192.7608 " transform="matrix(0.0302723,0,0,0.0306759,-4.067261,-0.35061)"/>
<path style="fill-rule:nonzero;fill:rgb(100%,78.039217%,17.254902%);fill-opacity:1;stroke-width:0.9;stroke-linecap:butt;stroke-linejoin:miter;stroke:rgb(0%,0%,0%);stroke-opacity:1;stroke-miterlimit:4;" d="M 810.640272 181.936952 C 810.640272 181.936952 812.059682 190.468691 818.898656 192.506121 " transform="matrix(0.0302723,0,0,0.0306759,-4.067261,-0.35061)"/>
<path style="fill-rule:nonzero;fill:url(#linear6);stroke-width:0.9;stroke-linecap:butt;stroke-linejoin:miter;stroke:rgb(0%,0%,0%);stroke-opacity:1;stroke-miterlimit:4;" d="M 809.607974 181.809612 C 810.25316 178.626127 811.543533 177.98943 812.833905 173.78723 C 812.962942 169.839709 809.607974 170.349067 810.640272 167.802279 C 812.317756 164.873473 811.543533 162.326685 808.059527 160.161915 C 808.83375 163.854758 803.67226 167.292921 803.67226 170.349067 C 803.67226 173.277873 806.253005 172.641176 805.994931 177.352733 C 806.253005 179.899521 805.349744 179.262824 804.962633 181.809612 Z M 809.607974 181.809612 " transform="matrix(0.0302723,0,0,0.0306759,-4.067261,-0.35061)"/>
<path style="fill-rule:nonzero;fill:rgb(100%,78.039217%,17.254902%);fill-opacity:1;stroke-width:0.9;stroke-linecap:butt;stroke-linejoin:miter;stroke:rgb(0%,0%,0%);stroke-opacity:1;stroke-miterlimit:4;" d="M 831.544307 161.689988 C 831.544307 163.090721 830.382972 164.236776 828.963562 164.236776 C 827.415115 164.236776 826.253779 163.090721 826.253779 161.689988 C 826.253779 160.289254 827.415115 159.1432 828.963562 159.1432 C 830.382972 159.1432 831.544307 160.289254 831.544307 161.689988 Z M 831.544307 161.689988 " transform="matrix(0.0302723,0,0,0.0306759,-4.067261,-0.35061)"/>
<path style="fill:none;stroke-width:1.9;stroke-linecap:butt;stroke-linejoin:miter;stroke:rgb(100%,78.039217%,17.254902%);stroke-opacity:1;stroke-miterlimit:4;" d="M 814.750063 181.803539 L 828.815124 161.047218 L 843.138259 181.930879 " transform="matrix(0.0302723,0,0,0.0306759,-4.109643,0.891764)"/>
<path style="fill-rule:nonzero;fill:rgb(100%,78.039217%,17.254902%);fill-opacity:1;stroke-width:0.9;stroke-linecap:butt;stroke-linejoin:miter;stroke:rgb(0%,0%,0%);stroke-opacity:1;stroke-miterlimit:4;" d="M 831.653943 174.035836 C 831.653943 175.563909 830.492608 176.837303 828.944161 176.837303 C 827.395714 176.837303 826.105342 175.563909 826.105342 174.035836 C 826.105342 172.507763 827.395714 171.234369 828.944161 171.234369 C 830.492608 171.234369 831.653943 172.507763 831.653943 174.035836 Z M 831.653943 174.035836 " transform="matrix(0.0302723,0,0,0.0306759,-4.109643,0.891764)"/>
<path style="fill-rule:nonzero;fill:rgb(100%,78.039217%,17.254902%);fill-opacity:1;stroke-width:0.9;stroke-linecap:butt;stroke-linejoin:miter;stroke:rgb(0%,0%,0%);stroke-opacity:1;stroke-miterlimit:4;" d="M 817.459846 197.084267 L 839.267141 197.084267 C 839.267141 197.084267 839.654253 194.2828 836.944471 192.627388 C 848.557824 190.971976 845.46093 181.039503 855.009686 180.402806 C 856.945245 180.657485 849.977234 184.732345 849.977234 184.732345 C 849.977234 184.732345 844.299594 188.679867 847.009377 190.844636 C 848.944936 192.500048 849.977234 189.825921 850.235308 187.788491 C 850.364345 185.75106 859.52599 184.477666 858.235618 178.747394 C 856.041984 174.163175 843.525371 182.058218 843.525371 182.058218 L 834.492763 181.930879 C 833.847577 180.912163 831.524906 176.837303 828.944161 176.837303 C 825.847267 176.837303 823.653634 181.930879 823.653634 181.930879 L 803.394785 181.930879 C 803.394785 181.930879 802.749599 187.151794 812.943542 188.170509 C 815.266212 191.226654 817.072734 191.990691 819.13733 192.754727 C 817.846957 193.900782 817.330808 195.301515 817.459846 197.084267 Z M 819.008293 192.754727 L 837.202545 192.754727 " transform="matrix(0.0302723,0,0,0.0306759,-4.109643,0.891764)"/>
<path style="fill-rule:nonzero;fill:rgb(100%,78.039217%,17.254902%);fill-opacity:1;stroke-width:0.9;stroke-linecap:butt;stroke-linejoin:miter;stroke:rgb(0%,0%,0%);stroke-opacity:1;stroke-miterlimit:4;" d="M 810.749908 182.058218 C 810.749908 182.058218 812.040281 190.462618 818.879255 192.500048 " transform="matrix(0.0302723,0,0,0.0306759,-4.109643,0.891764)"/>
<path style="fill-rule:nonzero;fill:url(#linear7);stroke-width:0.9;stroke-linecap:butt;stroke-linejoin:miter;stroke:rgb(0%,0%,0%);stroke-opacity:1;stroke-miterlimit:4;" d="M 809.588573 181.803539 C 810.233759 178.620054 811.524132 177.983357 812.814504 173.781157 C 812.943542 169.833636 809.588573 170.342994 810.620871 167.796206 C 812.298355 164.8674 811.524132 162.320612 808.040126 160.155842 C 808.81435 163.848684 803.652859 167.286848 803.652859 170.342994 C 803.652859 173.2718 806.362642 172.762442 805.97553 177.34666 C 806.233604 179.893448 805.330344 179.256751 804.943232 181.803539 Z M 809.588573 181.803539 " transform="matrix(0.0302723,0,0,0.0306759,-4.109643,0.891764)"/>
<path style="fill-rule:nonzero;fill:rgb(100%,78.039217%,17.254902%);fill-opacity:1;stroke-width:0.9;stroke-linecap:butt;stroke-linejoin:miter;stroke:rgb(0%,0%,0%);stroke-opacity:1;stroke-miterlimit:4;" d="M 831.524906 161.683915 C 831.524906 163.084648 830.363571 164.358042 828.944161 164.358042 C 827.524751 164.358042 826.363416 163.084648 826.363416 161.683915 C 826.363416 160.283181 827.524751 159.137127 828.944161 159.137127 C 830.363571 159.137127 831.524906 160.283181 831.524906 161.683915 Z M 831.524906 161.683915 " transform="matrix(0.0302723,0,0,0.0306759,-4.109643,0.891764)"/>
<path style="fill:none;stroke-width:1.9;stroke-linecap:butt;stroke-linejoin:miter;stroke:rgb(100%,78.039217%,17.254902%);stroke-opacity:1;stroke-miterlimit:4;" d="M 814.743529 181.816186 L 828.80859 161.059864 L 843.131725 181.943525 " transform="matrix(0.0302723,0,0,0.0306759,-4.164132,2.164813)"/>
<path style="fill-rule:nonzero;fill:rgb(100%,78.039217%,17.254902%);fill-opacity:1;stroke-width:0.9;stroke-linecap:butt;stroke-linejoin:miter;stroke:rgb(0%,0%,0%);stroke-opacity:1;stroke-miterlimit:4;" d="M 831.64741 174.048483 C 831.64741 175.576556 830.486074 176.849949 828.937627 176.849949 C 827.38918 176.849949 826.098808 175.576556 826.098808 174.048483 C 826.098808 172.393071 827.38918 171.247016 828.937627 171.247016 C 830.486074 171.247016 831.64741 172.393071 831.64741 174.048483 Z M 831.64741 174.048483 " transform="matrix(0.0302723,0,0,0.0306759,-4.164132,2.164813)"/>
<path style="fill-rule:nonzero;fill:rgb(100%,78.039217%,17.254902%);fill-opacity:1;stroke-width:0.9;stroke-linecap:butt;stroke-linejoin:miter;stroke:rgb(0%,0%,0%);stroke-opacity:1;stroke-miterlimit:4;" d="M 817.453312 197.096913 L 839.260608 197.096913 C 839.260608 197.096913 839.647719 194.295447 836.937937 192.640034 C 848.55129 190.984622 845.454396 181.052149 855.003153 180.415453 C 856.938711 180.670131 849.9707 184.744992 849.9707 184.744992 C 849.9707 184.744992 844.293061 188.692513 847.002843 190.857283 C 848.938402 192.512695 849.9707 189.838568 850.228774 187.801137 C 850.357812 185.763707 859.519457 184.490313 858.229084 178.76004 C 856.164488 174.048483 843.518837 181.943525 843.518837 181.943525 L 834.486229 181.943525 C 833.841043 180.92481 831.518372 176.849949 828.937627 176.849949 C 825.840733 176.849949 823.6471 181.943525 823.6471 181.943525 L 803.388251 181.943525 C 803.388251 181.943525 802.743065 187.16444 812.937008 188.183156 C 815.259678 191.239301 817.0662 192.003337 819.259833 192.767374 C 817.840424 193.913428 817.324275 195.314162 817.453312 197.096913 Z M 819.001759 192.640034 L 837.196012 192.640034 " transform="matrix(0.0302723,0,0,0.0306759,-4.164132,2.164813)"/>
<path style="fill-rule:nonzero;fill:rgb(100%,78.039217%,17.254902%);fill-opacity:1;stroke-width:0.9;stroke-linecap:butt;stroke-linejoin:miter;stroke:rgb(0%,0%,0%);stroke-opacity:1;stroke-miterlimit:4;" d="M 810.743375 181.943525 C 810.743375 181.943525 812.162784 190.475265 818.872722 192.512695 " transform="matrix(0.0302723,0,0,0.0306759,-4.164132,2.164813)"/>
<path style="fill-rule:nonzero;fill:url(#linear8);stroke-width:0.9;stroke-linecap:butt;stroke-linejoin:miter;stroke:rgb(0%,0%,0%);stroke-opacity:1;stroke-miterlimit:4;" d="M 809.582039 181.816186 C 810.227226 178.632701 811.517598 177.996004 812.807971 173.793804 C 812.937008 169.846283 809.582039 170.35564 810.614337 167.808852 C 812.291822 164.880046 811.517598 162.333258 808.16263 160.041149 C 808.807816 163.861331 803.646326 167.299495 803.646326 170.35564 C 803.646326 173.284446 806.356108 172.647749 805.968996 177.359307 C 806.227071 179.906095 805.32381 179.269398 804.936698 181.816186 Z M 809.582039 181.816186 " transform="matrix(0.0302723,0,0,0.0306759,-4.164132,2.164813)"/>
<path style="fill-rule:nonzero;fill:rgb(100%,78.039217%,17.254902%);fill-opacity:1;stroke-width:0.9;stroke-linecap:butt;stroke-linejoin:miter;stroke:rgb(0%,0%,0%);stroke-opacity:1;stroke-miterlimit:4;" d="M 831.518372 161.696561 C 831.518372 163.097295 830.357037 164.243349 828.937627 164.243349 C 827.518218 164.243349 826.356882 163.097295 826.356882 161.696561 C 826.356882 160.295828 827.518218 159.149774 828.937627 159.149774 C 830.357037 159.149774 831.518372 160.295828 831.518372 161.696561 Z M 831.518372 161.696561 " transform="matrix(0.0302723,0,0,0.0306759,-4.164132,2.164813)"/>
<path style="fill:none;stroke-width:1.9;stroke-linecap:butt;stroke-linejoin:miter;stroke:rgb(100%,78.039217%,17.254902%);stroke-opacity:1;stroke-miterlimit:4;" d="M 814.837172 181.737448 L 828.773195 161.108466 L 843.096331 181.864788 " transform="matrix(0.0302723,0,0,0.0306759,-4.100561,3.413322)"/>
<path style="fill-rule:nonzero;fill:rgb(100%,78.039217%,17.254902%);fill-opacity:1;stroke-width:0.9;stroke-linecap:butt;stroke-linejoin:miter;stroke:rgb(0%,0%,0%);stroke-opacity:1;stroke-miterlimit:4;" d="M 831.741052 173.969745 C 831.741052 175.497818 830.45068 176.771212 828.902233 176.771212 C 827.353786 176.771212 826.063413 175.497818 826.063413 173.969745 C 826.063413 172.441673 827.353786 171.168279 828.902233 171.168279 C 830.45068 171.168279 831.741052 172.441673 831.741052 173.969745 Z M 831.741052 173.969745 " transform="matrix(0.0302723,0,0,0.0306759,-4.100561,3.413322)"/>
<path style="fill-rule:nonzero;fill:rgb(100%,78.039217%,17.254902%);fill-opacity:1;stroke-width:0.9;stroke-linecap:butt;stroke-linejoin:miter;stroke:rgb(0%,0%,0%);stroke-opacity:1;stroke-miterlimit:4;" d="M 817.417917 197.145515 L 839.35425 197.145515 C 839.35425 197.145515 839.612325 194.344049 837.03158 192.561297 C 848.515895 191.033224 845.548038 180.973412 854.967758 180.336715 C 857.032354 180.718733 850.064342 184.666254 850.064342 184.666254 C 850.064342 184.666254 844.257666 188.741115 846.967448 190.778545 C 849.032044 192.561297 850.064342 189.75983 850.19338 187.849739 C 850.451454 185.812309 859.484062 184.538915 858.193689 178.808642 C 856.129093 174.097085 843.483442 181.992127 843.483442 181.992127 L 834.450835 181.864788 C 833.934686 180.846073 831.482978 176.898551 828.902233 176.898551 C 825.934376 176.898551 823.740742 181.864788 823.740742 181.864788 L 803.352856 181.864788 C 803.352856 181.864788 802.70767 187.213042 813.03065 188.231758 C 815.353321 191.160564 817.159843 192.051939 819.224439 192.815976 C 817.805029 193.834691 817.28888 195.362764 817.417917 197.145515 Z M 818.966364 192.688636 L 837.160617 192.688636 " transform="matrix(0.0302723,0,0,0.0306759,-4.100561,3.413322)"/>
<path style="fill-rule:nonzero;fill:rgb(100%,78.039217%,17.254902%);fill-opacity:1;stroke-width:0.9;stroke-linecap:butt;stroke-linejoin:miter;stroke:rgb(0%,0%,0%);stroke-opacity:1;stroke-miterlimit:4;" d="M 810.70798 181.992127 C 810.70798 181.992127 812.12739 190.523867 818.837327 192.561297 " transform="matrix(0.0302723,0,0,0.0306759,-4.100561,3.413322)"/>
<path style="fill-rule:nonzero;fill:url(#linear9);stroke-width:0.9;stroke-linecap:butt;stroke-linejoin:miter;stroke:rgb(0%,0%,0%);stroke-opacity:1;stroke-miterlimit:4;" d="M 809.546645 181.737448 C 810.191831 178.553964 811.482203 178.044606 812.772576 173.842406 C 813.03065 169.767545 809.546645 170.276903 810.578943 167.857454 C 812.385464 164.928648 811.482203 162.254521 808.127235 160.089751 C 808.772421 163.782594 803.739968 167.348097 803.739968 170.276903 C 803.739968 173.333048 806.320713 172.696351 806.062639 177.28057 C 806.191676 179.954697 805.288415 179.318 805.030341 181.737448 Z M 809.546645 181.737448 " transform="matrix(0.0302723,0,0,0.0306759,-4.100561,3.413322)"/>
<path style="fill-rule:nonzero;fill:rgb(100%,78.039217%,17.254902%);fill-opacity:1;stroke-width:0.9;stroke-linecap:butt;stroke-linejoin:miter;stroke:rgb(0%,0%,0%);stroke-opacity:1;stroke-miterlimit:4;" d="M 831.482978 161.745163 C 831.482978 163.145897 830.321642 164.291951 828.902233 164.291951 C 827.482823 164.291951 826.321488 163.145897 826.321488 161.745163 C 826.321488 160.217091 827.482823 159.071036 828.902233 159.071036 C 830.321642 159.071036 831.482978 160.217091 831.482978 161.745163 Z M 831.482978 161.745163 " transform="matrix(0.0302723,0,0,0.0306759,-4.100561,3.413322)"/>
<path style="fill:none;stroke-width:1.9;stroke-linecap:butt;stroke-linejoin:miter;stroke:rgb(100%,78.039217%,17.254902%);stroke-opacity:1;stroke-miterlimit:4;" d="M 814.821023 181.813399 L 828.757046 161.057077 L 843.080182 181.940738 " transform="matrix(0.0302723,0,0,0.0306759,-4.115697,4.664899)"/>
<path style="fill-rule:nonzero;fill:rgb(100%,78.039217%,17.254902%);fill-opacity:1;stroke-width:0.9;stroke-linecap:butt;stroke-linejoin:miter;stroke:rgb(0%,0%,0%);stroke-opacity:1;stroke-miterlimit:4;" d="M 831.724903 174.045696 C 831.724903 175.573768 830.434531 176.847162 828.886084 176.847162 C 827.337637 176.847162 826.047264 175.573768 826.047264 174.045696 C 826.047264 172.390284 827.337637 171.244229 828.886084 171.244229 C 830.434531 171.244229 831.724903 172.390284 831.724903 174.045696 Z M 831.724903 174.045696 " transform="matrix(0.0302723,0,0,0.0306759,-4.115697,4.664899)"/>
<path style="fill-rule:nonzero;fill:rgb(100%,78.039217%,17.254902%);fill-opacity:1;stroke-width:0.9;stroke-linecap:butt;stroke-linejoin:miter;stroke:rgb(0%,0%,0%);stroke-opacity:1;stroke-miterlimit:4;" d="M 817.401768 197.094126 L 839.338101 197.094126 C 839.338101 197.094126 839.596176 194.29266 837.015431 192.637247 C 848.499746 190.981835 845.531889 181.049362 854.951609 180.412666 C 857.016205 180.667344 850.048193 184.742205 850.048193 184.742205 C 850.048193 184.742205 844.241517 188.689726 846.951299 190.854496 C 849.015895 192.509908 850.048193 189.835781 850.17723 187.79835 C 850.435305 185.76092 859.467913 184.487526 858.17754 178.757253 C 856.112944 174.045696 843.467293 181.940738 843.467293 181.940738 L 834.563723 181.940738 C 833.918537 180.922023 831.466829 176.847162 828.886084 176.847162 C 825.918227 176.847162 823.724593 181.940738 823.724593 181.940738 L 803.336707 181.940738 C 803.336707 181.940738 802.691521 187.161653 813.014501 188.180369 C 815.337172 191.236514 817.143694 192.00055 819.20829 192.764587 C 817.917917 193.910641 817.272731 195.311375 817.401768 197.094126 Z M 818.950215 192.637247 L 837.144468 192.637247 " transform="matrix(0.0302723,0,0,0.0306759,-4.115697,4.664899)"/>
<path style="fill-rule:nonzero;fill:rgb(100%,78.039217%,17.254902%);fill-opacity:1;stroke-width:0.9;stroke-linecap:butt;stroke-linejoin:miter;stroke:rgb(0%,0%,0%);stroke-opacity:1;stroke-miterlimit:4;" d="M 810.691831 181.940738 C 810.691831 181.940738 812.111241 190.472478 818.950215 192.509908 " transform="matrix(0.0302723,0,0,0.0306759,-4.115697,4.664899)"/>
<path style="fill-rule:nonzero;fill:url(#linear10);stroke-width:0.9;stroke-linecap:butt;stroke-linejoin:miter;stroke:rgb(0%,0%,0%);stroke-opacity:1;stroke-miterlimit:4;" d="M 809.659533 181.813399 C 810.175682 178.629914 811.466054 177.993217 812.756427 173.791017 C 813.014501 169.843496 809.659533 170.352853 810.562794 167.806065 C 812.369315 164.877259 811.466054 162.330471 808.111086 160.038362 C 808.756272 163.858544 803.723819 167.296708 803.723819 170.352853 C 803.723819 173.281659 806.304564 172.644962 806.04649 177.35652 C 806.175527 179.903308 805.272266 179.266611 805.014192 181.813399 Z M 809.659533 181.813399 " transform="matrix(0.0302723,0,0,0.0306759,-4.115697,4.664899)"/>
<path style="fill-rule:nonzero;fill:rgb(100%,78.039217%,17.254902%);fill-opacity:1;stroke-width:0.9;stroke-linecap:butt;stroke-linejoin:miter;stroke:rgb(0%,0%,0%);stroke-opacity:1;stroke-miterlimit:4;" d="M 831.466829 161.693774 C 831.466829 163.094508 830.305493 164.240562 828.886084 164.240562 C 827.466674 164.240562 826.305339 163.094508 826.305339 161.693774 C 826.305339 160.293041 827.466674 159.146986 828.886084 159.146986 C 830.305493 159.146986 831.466829 160.293041 831.466829 161.693774 Z M 831.466829 161.693774 " transform="matrix(0.0302723,0,0,0.0306759,-4.115697,4.664899)"/>
<path style="fill:none;stroke-width:1.9;stroke-linecap:butt;stroke-linejoin:miter;stroke:rgb(100%,78.039217%,17.254902%);stroke-opacity:1;stroke-miterlimit:4;" d="M 814.750063 181.816684 L 828.815124 161.060363 L 843.138259 181.944024 " transform="matrix(0.0302723,0,0,0.0306759,-4.109643,5.92261)"/>
<path style="fill-rule:nonzero;fill:rgb(100%,78.039217%,17.254902%);fill-opacity:1;stroke-width:0.9;stroke-linecap:butt;stroke-linejoin:miter;stroke:rgb(0%,0%,0%);stroke-opacity:1;stroke-miterlimit:4;" d="M 831.653943 174.048981 C 831.653943 175.577054 830.492608 176.850448 828.944161 176.850448 C 827.395714 176.850448 826.105342 175.577054 826.105342 174.048981 C 826.105342 172.393569 827.395714 171.247514 828.944161 171.247514 C 830.492608 171.247514 831.653943 172.393569 831.653943 174.048981 Z M 831.653943 174.048981 " transform="matrix(0.0302723,0,0,0.0306759,-4.109643,5.92261)"/>
<path style="fill-rule:nonzero;fill:rgb(100%,78.039217%,17.254902%);fill-opacity:1;stroke-width:0.9;stroke-linecap:butt;stroke-linejoin:miter;stroke:rgb(0%,0%,0%);stroke-opacity:1;stroke-miterlimit:4;" d="M 817.459846 197.097412 L 839.267141 197.097412 C 839.267141 197.097412 839.654253 194.295945 836.944471 192.640533 C 848.557824 190.985121 845.46093 181.052648 855.009686 180.415951 C 856.945245 180.67063 849.977234 184.74549 849.977234 184.74549 C 849.977234 184.74549 844.299594 188.693011 847.009377 190.857781 C 848.944936 192.513193 849.977234 189.839066 850.235308 187.801636 C 850.364345 185.764205 859.52599 184.490811 858.235618 178.760539 C 856.041984 174.048981 843.525371 181.944024 843.525371 181.944024 L 834.492763 181.944024 C 833.847577 180.925308 831.524906 176.850448 828.944161 176.850448 C 825.847267 176.850448 823.653634 181.944024 823.653634 181.944024 L 803.394785 181.944024 C 803.394785 181.944024 802.749599 187.164939 812.943542 188.183654 C 815.266212 191.239799 817.072734 192.003836 819.13733 192.767872 C 817.846957 193.913927 817.330808 195.31466 817.459846 197.097412 Z M 819.008293 192.640533 L 837.202545 192.640533 " transform="matrix(0.0302723,0,0,0.0306759,-4.109643,5.92261)"/>
<path style="fill-rule:nonzero;fill:rgb(100%,78.039217%,17.254902%);fill-opacity:1;stroke-width:0.9;stroke-linecap:butt;stroke-linejoin:miter;stroke:rgb(0%,0%,0%);stroke-opacity:1;stroke-miterlimit:4;" d="M 810.749908 181.944024 C 810.749908 181.944024 812.040281 190.475763 818.879255 192.513193 " transform="matrix(0.0302723,0,0,0.0306759,-4.109643,5.92261)"/>
<path style="fill-rule:nonzero;fill:url(#linear11);stroke-width:0.9;stroke-linecap:butt;stroke-linejoin:miter;stroke:rgb(0%,0%,0%);stroke-opacity:1;stroke-miterlimit:4;" d="M 809.588573 181.816684 C 810.233759 178.633199 811.524132 177.996502 812.814504 173.794302 C 812.943542 169.846781 809.588573 170.356139 810.620871 167.809351 C 812.298355 164.880545 811.524132 162.333757 808.040126 160.041648 C 808.81435 163.861829 803.652859 167.299993 803.652859 170.356139 C 803.652859 173.284945 806.362642 172.648248 805.97553 177.359805 C 806.233604 179.906593 805.330344 179.269896 804.943232 181.816684 Z M 809.588573 181.816684 " transform="matrix(0.0302723,0,0,0.0306759,-4.109643,5.92261)"/>
<path style="fill-rule:nonzero;fill:rgb(100%,78.039217%,17.254902%);fill-opacity:1;stroke-width:0.9;stroke-linecap:butt;stroke-linejoin:miter;stroke:rgb(0%,0%,0%);stroke-opacity:1;stroke-miterlimit:4;" d="M 831.524906 161.69706 C 831.524906 163.097793 830.363571 164.243848 828.944161 164.243848 C 827.524751 164.243848 826.363416 163.097793 826.363416 161.69706 C 826.363416 160.296326 827.524751 159.150272 828.944161 159.150272 C 830.363571 159.150272 831.524906 160.296326 831.524906 161.69706 Z M 831.524906 161.69706 " transform="matrix(0.0302723,0,0,0.0306759,-4.109643,5.92261)"/>
<path style="fill-rule:nonzero;fill:rgb(100%,78.039217%,17.254902%);fill-opacity:1;stroke-width:0.9;stroke-linecap:butt;stroke-linejoin:miter;stroke:rgb(0%,0%,0%);stroke-opacity:1;stroke-miterlimit:4;" d="M 915.777391 406.24493 C 915.777391 406.24493 921.45503 419.488227 928.03593 411.338506 C 934.487793 403.316124 932.165122 399.750621 932.165122 399.750621 L 917.583912 391.855578 L 913.325683 400.896675 Z M 915.777391 406.24493 " transform="matrix(0.0302723,0,0,0.0306759,-8.496094,-0.372083)"/>
<path style="fill-rule:nonzero;fill:rgb(100%,77.64706%,70.980394%);fill-opacity:1;stroke-width:0.9;stroke-linecap:butt;stroke-linejoin:miter;stroke:rgb(0%,0%,0%);stroke-opacity:1;stroke-miterlimit:4;" d="M 928.423042 404.589518 C 928.423042 404.589518 929.45534 404.716857 930.100526 403.316124 C 930.87475 401.91539 928.423042 401.278693 927.261706 399.750621 L 925.971334 402.170069 Z M 895.389505 401.024015 L 882.614817 408.027681 C 882.614817 408.027681 876.162954 409.301075 875.775842 408.027681 C 875.259693 406.754287 875.904879 405.735572 879.259848 405.480893 C 882.614817 405.353554 891.647424 397.076493 891.647424 397.076493 L 895.389505 401.151354 Z M 895.647579 173.086497 L 896.034691 177.670715 C 896.163728 179.326127 893.453946 182.636952 893.453946 182.509612 C 893.324909 182.254933 891.905499 182.636952 892.163573 183.655667 C 892.292611 184.547043 894.099132 184.929061 894.099132 184.929061 C 894.099132 184.929061 893.453946 188.239885 894.099132 188.367224 C 894.873356 188.494564 892.163573 192.569424 894.099132 193.715479 C 896.163728 194.861534 899.647734 196.262267 901.325218 196.007588 C 902.873665 195.752909 901.325218 202.119879 901.325218 202.119879 L 896.808914 211.542994 L 921.196955 209.123546 L 916.164503 201.101164 C 916.164503 201.101164 913.841832 199.445752 914.357981 194.861534 C 915.132205 190.277315 914.099907 169.520994 914.099907 169.520994 L 896.679877 167.101545 Z M 891.131275 209.250885 C 891.131275 209.250885 883.260003 212.943728 883.518077 222.748861 C 881.453481 232.171976 880.421183 241.722431 880.421183 241.722431 C 880.421183 241.722431 871.001464 252.291601 868.162644 256.239122 C 865.323825 260.059304 860.936558 267.699668 859.517148 269.737098 C 857.839664 271.774528 851.645876 278.650856 851.774913 281.197644 C 852.032987 283.744432 850.355503 294.950298 856.549291 296.223692 C 858.226776 296.860389 863.259228 283.235074 863.259228 283.235074 C 863.259228 283.235074 863.64634 277.377462 861.839819 276.231407 C 860.162334 275.212692 865.581899 271.39251 865.581899 271.39251 L 878.614662 261.714716 C 880.937332 259.677286 887.518232 252.54628 887.518232 252.54628 Z M 891.131275 209.250885 " transform="matrix(0.0302723,0,0,0.0306759,-8.496094,-0.372083)"/>
<path style="fill-rule:nonzero;fill:rgb(100%,100%,100%);fill-opacity:1;stroke-width:0.9;stroke-linecap:butt;stroke-linejoin:miter;stroke:rgb(0%,0%,0%);stroke-opacity:1;stroke-miterlimit:4;" d="M 900.163883 201.737861 C 900.163883 201.737861 902.228479 207.340794 906.744783 206.449419 C 911.390124 205.430703 916.809689 201.228503 916.809689 201.228503 C 916.809689 201.228503 921.067918 200.973825 921.713104 201.737861 C 922.358291 202.374558 933.326457 212.943728 932.939346 216.254552 C 932.552234 219.565376 927.906893 218.546661 926.100371 220.83877 C 924.29385 223.00354 921.45503 228.606473 922.358291 232.808673 C 923.132514 236.756195 925.455185 242.231789 925.19711 244.269219 C 924.939036 246.433989 923.261552 246.943346 923.261552 248.089401 C 923.261552 249.235455 924.551924 251.145546 924.551924 253.055637 C 924.551924 255.220407 922.616365 258.149213 923.003477 260.313983 C 923.261552 262.351413 923.390589 268.336365 923.390589 268.336365 L 923.003477 296.351032 C 923.003477 296.351032 924.551924 297.242407 924.680961 298.77048 C 924.939036 300.298553 935.520091 346.395414 935.520091 346.395414 C 935.520091 346.395414 935.003942 347.923487 933.842606 347.668808 C 932.810308 347.541469 938.229873 354.799814 938.35891 356.837244 C 938.35891 359.002014 943.907512 375.046778 943.649438 377.338887 C 943.5204 379.503657 942.746177 384.469893 942.359065 384.597233 C 941.842916 384.851911 945.843071 394.784384 945.068847 396.312457 C 944.552698 397.84053 938.100836 397.84053 938.100836 397.84053 L 936.294314 397.458511 C 936.294314 397.458511 936.423351 399.495942 935.262016 399.750621 C 933.971644 399.87796 924.551924 399.241263 924.551924 399.241263 C 924.551924 399.241263 921.842142 403.316124 920.293695 403.188784 C 918.745248 403.061445 916.551614 400.259978 916.164503 400.641996 C 915.648354 401.151354 917.583912 403.825481 917.196801 404.589518 C 916.551614 405.353554 908.551305 407.136306 907.002858 403.316124 C 905.454411 399.495942 908.035156 400.514657 907.389969 399.750621 C 907.002858 398.859245 903.389814 396.821815 902.228479 397.458511 C 901.196181 398.095208 905.067299 398.986584 904.938261 400.641996 C 904.680187 402.170069 901.454256 404.589518 900.163883 404.589518 C 899.002548 404.589518 895.905654 398.731905 891.38935 399.241263 C 887.002083 400.005299 884.163264 401.151354 884.163264 401.151354 C 884.163264 401.151354 878.872736 403.316124 876.679103 402.806766 C 874.48547 402.424748 873.453172 400.641996 873.453172 399.750621 C 873.453172 398.731905 875.130656 394.657045 875.001619 393.256311 C 874.743544 392.110257 873.453172 390.836863 873.453172 388.926772 C 873.453172 387.016681 877.195252 380.522372 877.195252 380.522372 L 876.937177 351.36165 C 876.937177 351.36165 873.711246 351.36165 873.453172 349.32422 C 873.453172 347.28679 878.614662 303.227359 879.517922 300.298553 L 882.356742 287.309935 C 882.356742 287.309935 879.905034 288.455989 879.64696 287.309935 C 879.64696 286.291219 886.873046 261.078019 886.873046 261.078019 C 886.873046 261.078019 888.163418 248.471419 888.163418 245.160595 C 888.163418 241.84977 887.518232 237.265552 887.518232 237.265552 C 887.518232 237.265552 880.937332 234.464086 880.808295 230.261885 C 880.163109 223.640237 887.002083 219.947394 887.776307 217.655285 L 891.002238 208.741528 C 891.002238 208.741528 894.486244 202.756576 900.163883 201.737861 Z M 900.163883 201.737861 " transform="matrix(0.0302723,0,0,0.0306759,-8.496094,-0.372083)"/>
<path style="fill-rule:nonzero;fill:rgb(100%,78.039217%,17.254902%);fill-opacity:1;stroke-width:0.9;stroke-linecap:butt;stroke-linejoin:miter;stroke:rgb(0%,0%,0%);stroke-opacity:1;stroke-miterlimit:4;" d="M 897.841213 403.061445 C 897.841213 403.061445 882.356742 410.956487 880.163109 411.720524 C 877.969475 412.357221 876.550066 409.046396 878.743699 408.409699 C 880.937332 407.645663 884.550375 407.390984 884.550375 407.390984 C 884.550375 407.390984 879.259848 403.316124 879.517922 403.061445 L 886.744009 400.514657 C 886.873046 400.514657 888.937642 404.462178 890.357052 404.334839 C 892.292611 403.316124 894.099132 402.170069 895.905654 400.769336 Z M 897.841213 403.061445 " transform="matrix(0.0302723,0,0,0.0306759,-8.496094,-0.372083)"/>
<path style="fill-rule:nonzero;fill:rgb(100%,77.64706%,70.980394%);fill-opacity:1;stroke-width:0.9;stroke-linecap:butt;stroke-linejoin:miter;stroke:rgb(0%,0%,0%);stroke-opacity:1;stroke-miterlimit:4;" d="M 919.390434 407.390984 C 920.938881 409.301075 921.45503 412.48456 924.809999 410.574469 C 928.03593 408.664378 923.132514 405.226215 923.132514 405.226215 Z M 919.390434 407.390984 " transform="matrix(0.0302723,0,0,0.0306759,-8.496094,-0.372083)"/>
<path style="fill-rule:nonzero;fill:rgb(100%,77.64706%,70.980394%);fill-opacity:1;stroke-width:0.9;stroke-linecap:butt;stroke-linejoin:miter;stroke:rgb(0%,0%,0%);stroke-opacity:1;stroke-miterlimit:4;" d="M 925.455185 407.136306 C 925.455185 407.136306 927.132669 408.409699 928.552079 406.881627 C 929.842451 405.480893 925.713259 402.552087 925.713259 402.552087 L 923.648663 404.844196 Z M 932.294159 217.018588 C 932.552234 217.018588 937.455649 232.553995 938.229873 236.628855 C 938.746022 240.576377 940.939655 256.366462 940.036395 258.658571 C 939.262171 260.82334 931.261861 271.39251 930.358601 274.066637 C 929.45534 276.740765 923.648663 287.055256 923.648663 287.055256 C 923.648663 287.055256 922.229254 297.242407 921.584067 297.751765 C 920.938881 298.133783 923.261552 300.680571 923.003477 301.444607 C 922.745403 302.463323 918.358136 306.920201 916.551614 306.538183 C 914.616056 306.156165 911.519161 303.736717 911.519161 301.699286 C 911.261087 299.661856 911.519161 292.785529 912.938571 291.130116 C 914.357981 289.347365 921.842142 271.774528 922.358291 270.755813 C 922.745403 269.482419 929.068228 255.729765 929.326302 253.437655 C 929.45534 251.145546 927.261706 245.542613 925.068073 243.505183 C 920.03562 228.861152 922.100216 219.947394 932.294159 217.018588 Z M 932.294159 217.018588 " transform="matrix(0.0302723,0,0,0.0306759,-8.496094,-0.372083)"/>
<path style="fill-rule:nonzero;fill:rgb(61.176473%,31.764707%,0%);fill-opacity:1;stroke-width:0.9;stroke-linecap:butt;stroke-linejoin:miter;stroke:rgb(0%,0%,0%);stroke-opacity:1;stroke-miterlimit:4;" d="M 895.002393 172.195121 C 895.002393 172.195121 898.615436 172.704479 900.550995 171.558424 C 902.357516 170.539709 904.55115 170.030352 906.228634 172.195121 C 907.777081 174.359891 908.938416 174.232552 908.938416 174.232552 C 908.938416 174.232552 906.486709 180.217503 908.938416 180.8542 C 911.261087 181.363558 912.422422 181.363558 912.551459 182.254933 C 912.551459 183.01897 910.486863 184.674382 911.13205 185.438418 C 911.648199 186.329794 912.809534 187.22117 912.938571 187.857867 C 913.196646 188.621903 911.648199 191.168691 912.03531 191.932728 C 912.551459 192.442085 913.970869 194.988873 914.87413 194.988873 C 915.906428 194.988873 915.261242 198.936394 918.100061 198.045018 C 920.938881 197.026303 920.809844 194.479515 920.809844 194.479515 C 920.809844 194.479515 923.777701 194.097497 924.551924 191.42337 C 925.455185 188.749243 927.261706 187.985206 927.261706 187.985206 C 927.261706 187.985206 931.003787 185.947776 925.971334 182.764291 C 925.971334 160.607236 911.390124 163.026685 911.390124 163.026685 C 911.390124 163.026685 909.71264 158.951824 906.744783 159.461182 C 903.905963 159.970539 903.776926 163.281364 901.841367 163.026685 C 899.647734 162.644667 899.260622 161.243933 899.131585 161.371273 C 898.873511 161.625951 897.066989 164.809436 897.066989 165.446133 C 897.066989 166.337509 891.647424 164.554758 892.163573 168.502279 C 892.550685 172.704479 895.260467 172.4498 895.13143 172.195121 Z M 895.002393 172.195121 " transform="matrix(0.0302723,0,0,0.0306759,-8.496094,-0.372083)"/>
<path style="fill:none;stroke-width:0.9;stroke-linecap:butt;stroke-linejoin:miter;stroke:rgb(0%,0%,0%);stroke-opacity:1;stroke-miterlimit:4;" d="M 920.809844 207.977491 C 920.809844 207.977491 906.744783 217.018588 907.002858 220.202073 M 924.035775 209.632903 C 924.035775 209.632903 920.809844 213.071067 920.551769 213.071067 M 928.164967 213.453085 C 928.164967 213.453085 921.196955 219.056019 922.358291 222.748861 M 895.260467 207.213455 C 895.260467 207.213455 893.195871 211.542994 893.71202 212.943728 C 894.228169 214.344461 897.712175 219.692716 898.099287 223.00354 C 898.615436 226.441704 898.099287 228.733813 898.099287 228.733813 M 891.647424 215.108497 C 891.647424 215.108497 892.163573 220.074734 893.195871 221.093449 C 894.228169 222.112164 896.679877 226.441704 896.937952 228.097116 M 890.357052 236.246837 C 890.357052 236.246837 894.486244 238.156928 898.357362 230.261885 M 904.422112 224.786291 C 904.293075 224.786291 901.454256 232.553995 906.486709 235.355461 C 911.648199 238.284267 915.390279 237.902249 917.454875 237.138213 C 919.777546 236.374176 922.229254 234.846104 922.229254 234.846104 M 902.228479 234.336746 C 902.228479 234.336746 902.486554 244.651237 917.841987 254.965728 M 902.873665 244.14188 C 902.873665 244.14188 902.744628 253.310316 908.680342 257.385177 M 899.647734 233.318031 C 899.647734 233.318031 895.13143 246.943346 891.38935 248.34408 M 898.357362 243.250504 C 898.357362 243.250504 898.099287 253.055637 896.808914 256.62114 M 895.647579 259.040589 C 895.647579 259.040589 898.744473 262.98811 902.228479 262.606092 C 905.712485 262.224074 907.260932 258.149213 909.454565 258.78591 C 911.906273 259.549946 914.099907 261.460037 919.648508 260.95068 M 911.648199 265.02554 C 911.648199 265.02554 911.648199 273.047922 913.196646 273.939298 C 914.616056 274.703334 913.841832 282.089019 913.841832 282.089019 M 892.421648 261.205359 C 892.421648 261.205359 892.163573 268.845722 891.260313 271.51985 C 890.357052 274.193977 888.421493 278.778195 888.808605 282.853056 M 882.743854 287.182595 C 883.518077 286.927916 886.22786 284.508468 886.22786 284.508468 M 887.647269 286.16388 C 887.647269 286.16388 880.808295 315.451941 882.743854 332.770099 M 889.195717 287.691953 C 889.195717 287.691953 885.711711 309.466989 887.260158 313.669189 M 887.518232 287.055256 L 900.809069 287.946632 M 902.744628 286.16388 C 902.744628 286.16388 906.357671 288.20131 911.390124 287.819292 M 901.067144 296.860389 C 901.067144 296.860389 900.550995 334.170832 899.518697 342.447893 M 920.551769 305.392129 C 920.551769 305.392129 924.680961 338.245693 927.132669 341.174499 M 912.680497 309.466989 C 912.680497 309.466989 915.261242 338.500371 916.680652 341.047159 M 876.679103 351.234311 C 876.679103 351.234311 881.711556 349.578899 886.098822 344.867341 C 891.131275 351.743669 898.873511 345.249359 898.873511 345.249359 C 898.873511 345.249359 910.873975 353.399081 916.29354 344.230644 C 924.551924 349.578899 928.681116 343.339268 928.681116 343.339268 C 928.681116 343.339268 931.648973 348.050826 933.842606 347.541469 M 920.809844 350.724953 C 920.809844 350.724953 926.874595 379.758336 936.03624 387.908057 " transform="matrix(0.0302723,0,0,0.0306759,-8.496094,-0.372083)"/>
<path style="fill:none;stroke-width:0.9;stroke-linecap:butt;stroke-linejoin:miter;stroke:rgb(0%,0%,0%);stroke-opacity:1;stroke-miterlimit:4;" d="M 888.937642 347.668808 C 888.937642 347.668808 889.711866 371.863293 891.131275 389.054111 M 887.776307 375.046778 C 887.776307 375.046778 887.002083 390.836863 886.098822 392.110257 M 878.485624 393.63833 C 878.485624 393.63833 880.163109 400.514657 888.937642 394.147687 C 897.583138 387.780717 897.841213 396.439796 898.099287 397.458511 C 898.357362 398.349887 899.776771 405.226215 903.13174 399.495942 M 910.099752 390.200166 C 910.099752 390.200166 908.680342 404.207499 921.196955 394.020348 C 933.713569 383.705857 935.778165 393.765669 936.165277 396.949154 M 910.357826 166.846867 C 910.357826 166.846867 909.196491 173.850533 916.551614 173.086497 C 915.648354 177.034018 918.61621 178.180073 918.61621 178.180073 M 924.035775 182.509612 C 924.164812 182.509612 927.390744 184.547043 924.035775 187.09383 M 913.325683 187.985206 C 913.325683 187.985206 914.87413 190.022637 916.551614 189.513279 C 918.358136 189.003921 921.196955 191.168691 921.196955 191.168691 C 921.196955 191.168691 923.648663 192.060067 923.906738 191.550709 M 903.647889 193.970158 C 903.647889 193.970158 908.938416 196.134928 912.551459 187.603188 M 893.71202 185.0564 L 896.808914 185.18374 M 858.48485 285.017825 L 858.742925 291.894153 M 852.032987 284.381128 C 852.032987 284.381128 856.549291 291.894153 856.033142 295.841674 " transform="matrix(0.0302723,0,0,0.0306759,-8.496094,-0.372083)"/>
<path style="fill:none;stroke-width:0.9;stroke-linecap:butt;stroke-linejoin:round;stroke:rgb(0%,0%,0%);stroke-opacity:1;stroke-miterlimit:4;" d="M 894.099132 188.239885 L 896.937952 188.239885 L 894.486244 189.2586 M 911.648199 300.043874 C 911.648199 300.043874 915.003167 299.661856 914.87413 305.13745 C 916.938726 298.261123 921.325993 298.133783 921.325993 298.133783 " transform="matrix(0.0302723,0,0,0.0306759,-8.496094,-0.372083)"/>
<path style="fill:none;stroke-width:1.7;stroke-linecap:butt;stroke-linejoin:round;stroke:rgb(0%,0%,0%);stroke-opacity:1;stroke-miterlimit:4;" d="M 898.099287 179.326127 C 898.615436 179.326127 900.29292 178.68943 900.550995 179.198788 C 900.938107 179.580806 898.744473 179.962824 898.099287 179.326127 Z M 898.099287 179.326127 " transform="matrix(0.0302723,0,0,0.0306759,-8.496094,-0.372083)"/>
<path style="fill-rule:nonzero;fill:rgb(100%,78.039217%,17.254902%);fill-opacity:1;stroke-width:1.9;stroke-linecap:butt;stroke-linejoin:miter;stroke:rgb(0%,0%,0%);stroke-opacity:1;stroke-miterlimit:4;" d="M 900.29292 458.581421 C 942.100991 456.67133 981.328316 438.461797 1009.845549 407.900342 C 1009.458437 407.518324 1018.749119 394.529705 1026.23328 396.312457 C 1033.588404 398.095208 1044.298496 419.997584 1057.331258 424.709142 C 1063.783121 434.896294 1055.524737 444.19207 1052.685917 445.974821 C 1049.847098 447.757573 1037.330484 452.978488 1035.523962 445.592803 C 1033.588404 438.079779 1029.846323 439.607851 1029.846323 439.607851 C 1029.846323 439.607851 970.360149 497.547276 901.71233 495.255167 C 830.741841 495.637185 772.158927 439.480512 772.158927 439.480512 L 766.997437 445.083445 C 766.997437 445.083445 761.448835 451.068397 758.610016 450.686379 C 755.771196 450.304361 743.641694 442.281979 742.738433 434.386936 C 741.96421 426.491894 750.222594 421.398318 750.222594 421.398318 C 750.222594 421.398318 770.739517 405.608233 773.062188 397.331172 C 777.707529 392.619614 786.482062 400.514657 786.482062 400.514657 C 786.482062 400.514657 840.419635 462.274264 900.29292 458.454082 Z M 900.29292 458.581421 " transform="matrix(0.0302723,0,0,0.0306759,-8.496094,-0.372083)"/>
<path style="fill:none;stroke-width:1.9;stroke-linecap:butt;stroke-linejoin:miter;stroke:rgb(0%,0%,0%);stroke-opacity:1;stroke-miterlimit:4;" d="M 748.932222 422.544372 C 748.932222 422.544372 754.351786 421.143639 756.416382 423.563088 C 758.351941 425.855197 772.417002 439.480512 772.417002 439.480512 " transform="matrix(0.0302723,0,0,0.0306759,-8.496094,-0.372083)"/>
<path style="fill:none;stroke-width:1.9;stroke-linecap:butt;stroke-linejoin:miter;stroke:rgb(0%,0%,0%);stroke-opacity:1;stroke-miterlimit:4;" d="M 761.448835 429.038682 L 755.900233 433.240882 C 755.900233 433.240882 769.836257 436.042348 766.739363 445.210785 M 1052.298805 422.162354 C 1052.298805 422.162354 1049.589023 420.761621 1045.330794 423.945106 C 1040.943527 427.25593 1029.975361 439.353173 1029.975361 439.353173 " transform="matrix(0.0302723,0,0,0.0306759,-8.496094,-0.372083)"/>
<path style="fill:none;stroke-width:1.9;stroke-linecap:butt;stroke-linejoin:miter;stroke:rgb(0%,0%,0%);stroke-opacity:1;stroke-miterlimit:4;" d="M 1039.911229 428.656663 L 1045.846943 433.240882 C 1045.846943 433.240882 1033.459366 434.259597 1036.040111 445.974821 " transform="matrix(0.0302723,0,0,0.0306759,-8.496094,-0.372083)"/>
<path style=" stroke:none;fill-rule:nonzero;fill:rgb(0%,0%,0%);fill-opacity:1;" d="M 16.316406 13.046875 C 16.304688 13.078125 16.277344 13.046875 16.25 13.050781 C 16.191406 13.050781 16.136719 13.09375 16.082031 13.125 L 15.523438 13.453125 C 15.511719 13.445312 15.507812 13.433594 15.515625 13.417969 L 15.667969 12.710938 C 15.671875 12.671875 15.683594 12.621094 15.644531 12.589844 C 15.632812 12.578125 15.65625 12.554688 15.667969 12.578125 L 15.953125 12.78125 C 15.941406 12.808594 15.925781 12.789062 15.910156 12.777344 C 15.871094 12.738281 15.820312 12.777344 15.824219 12.824219 L 15.722656 13.289062 C 15.847656 13.214844 15.976562 13.136719 16.101562 13.0625 C 16.144531 13.042969 16.179688 12.980469 16.132812 12.945312 C 16.117188 12.933594 16.085938 12.90625 16.117188 12.898438 Z M 16.519531 14.027344 C 16.511719 14.046875 16.5 14.046875 16.488281 14.035156 L 16.15625 13.851562 C 16.15625 13.832031 16.164062 13.828125 16.183594 13.839844 C 16.210938 13.863281 16.261719 13.871094 16.285156 13.832031 L 16.40625 13.609375 L 16.574219 13.296875 C 16.601562 13.257812 16.574219 13.210938 16.535156 13.195312 C 16.523438 13.191406 16.503906 13.183594 16.519531 13.171875 C 16.527344 13.164062 16.546875 13.179688 16.554688 13.183594 L 16.875 13.363281 C 16.871094 13.378906 16.863281 13.382812 16.847656 13.371094 C 16.816406 13.347656 16.769531 13.339844 16.746094 13.375 L 16.625 13.601562 L 16.453125 13.914062 C 16.429688 13.949219 16.457031 14 16.492188 14.015625 Z M 17.808594 13.71875 L 17.714844 13.976562 C 17.675781 13.976562 17.703125 13.925781 17.691406 13.902344 C 17.679688 13.78125 17.597656 13.679688 17.480469 13.648438 C 17.390625 13.625 17.300781 13.671875 17.246094 13.746094 C 17.164062 13.855469 17.121094 13.984375 17.109375 14.121094 C 17.105469 14.199219 17.144531 14.273438 17.207031 14.316406 C 17.261719 14.347656 17.324219 14.367188 17.386719 14.363281 L 17.449219 14.167969 C 17.460938 14.125 17.414062 14.097656 17.378906 14.089844 C 17.375 14.078125 17.386719 14.058594 17.402344 14.074219 L 17.734375 14.195312 C 17.734375 14.234375 17.6875 14.191406 17.660156 14.207031 C 17.621094 14.222656 17.617188 14.273438 17.597656 14.308594 L 17.558594 14.425781 C 17.40625 14.4375 17.261719 14.402344 17.125 14.328125 C 17 14.25 16.910156 14.089844 16.9375 13.9375 C 16.957031 13.804688 17.039062 13.683594 17.15625 13.625 C 17.265625 13.5625 17.398438 13.566406 17.515625 13.613281 C 17.574219 13.636719 17.628906 13.671875 17.675781 13.71875 C 17.707031 13.757812 17.761719 13.757812 17.785156 13.714844 Z M 18.347656 14.605469 C 18.347656 14.617188 18.347656 14.632812 18.332031 14.621094 L 17.949219 14.5625 C 17.949219 14.546875 17.953125 14.539062 17.96875 14.546875 C 18 14.550781 18.046875 14.550781 18.058594 14.515625 C 18.074219 14.460938 18.082031 14.410156 18.089844 14.355469 L 18.15625 13.90625 C 18.164062 13.875 18.15625 13.839844 18.121094 13.828125 C 18.101562 13.820312 18.082031 13.816406 18.0625 13.8125 C 18.058594 13.796875 18.0625 13.792969 18.078125 13.792969 L 18.460938 13.855469 C 18.464844 13.871094 18.460938 13.878906 18.441406 13.875 C 18.414062 13.863281 18.367188 13.867188 18.351562 13.90625 C 18.339844 13.957031 18.328125 14.007812 18.320312 14.0625 L 18.253906 14.507812 C 18.246094 14.539062 18.253906 14.578125 18.292969 14.589844 L 18.351562 14.605469 Z M 19.382812 14.351562 L 19.371094 14.625 L 18.683594 14.660156 C 18.679688 14.644531 18.6875 14.636719 18.703125 14.636719 C 18.738281 14.636719 18.78125 14.621094 18.789062 14.582031 L 18.777344 14.378906 L 18.757812 13.96875 C 18.761719 13.929688 18.726562 13.898438 18.6875 13.902344 C 18.675781 13.894531 18.644531 13.914062 18.644531 13.890625 C 18.640625 13.875 18.667969 13.882812 18.675781 13.878906 L 19.058594 13.859375 C 19.0625 13.878906 19.054688 13.886719 19.035156 13.882812 C 19.003906 13.882812 18.957031 13.890625 18.945312 13.933594 C 18.945312 13.992188 18.949219 14.050781 18.953125 14.105469 L 18.972656 14.535156 C 18.972656 14.570312 19.003906 14.605469 19.039062 14.597656 C 19.09375 14.59375 19.152344 14.597656 19.207031 14.582031 C 19.28125 14.5625 19.320312 14.484375 19.34375 14.414062 C 19.355469 14.394531 19.34375 14.347656 19.371094 14.351562 Z M 19.914062 13.683594 C 19.894531 13.683594 19.90625 13.707031 19.898438 13.71875 C 19.871094 13.953125 19.839844 14.179688 19.808594 14.40625 C 19.800781 14.460938 19.789062 14.519531 19.742188 14.542969 C 19.722656 14.550781 19.738281 14.578125 19.757812 14.5625 L 19.984375 14.492188 C 19.980469 14.457031 19.9375 14.492188 19.910156 14.484375 C 19.859375 14.484375 19.851562 14.417969 19.859375 14.378906 C 19.859375 14.351562 19.863281 14.324219 19.867188 14.296875 L 20.128906 14.21875 C 20.164062 14.257812 20.195312 14.300781 20.230469 14.347656 C 20.253906 14.390625 20.199219 14.40625 20.167969 14.417969 C 20.152344 14.417969 20.164062 14.449219 20.179688 14.433594 L 20.519531 14.332031 C 20.519531 14.289062 20.472656 14.332031 20.449219 14.300781 C 20.382812 14.253906 20.339844 14.1875 20.285156 14.125 Z M 19.914062 13.960938 L 20.097656 14.183594 L 19.875 14.25 Z M 21.082031 13.167969 L 21.183594 13.351562 C 21.152344 13.382812 21.132812 13.320312 21.105469 13.308594 C 21.058594 13.269531 20.996094 13.265625 20.941406 13.292969 L 20.878906 13.328125 L 21.175781 13.890625 C 21.191406 13.933594 21.25 13.945312 21.289062 13.917969 C 21.304688 13.902344 21.3125 13.90625 21.320312 13.921875 C 21.269531 13.953125 21.214844 13.980469 21.160156 14.007812 L 20.964844 14.117188 C 20.953125 14.101562 20.957031 14.089844 20.976562 14.085938 C 21 14.078125 21.015625 14.058594 21.023438 14.039062 C 21.027344 14.015625 21.023438 13.992188 21.011719 13.972656 L 20.714844 13.417969 C 20.664062 13.449219 20.59375 13.476562 20.582031 13.542969 C 20.566406 13.589844 20.585938 13.640625 20.585938 13.675781 C 20.570312 13.695312 20.566406 13.671875 20.554688 13.660156 L 20.472656 13.5 Z M 21.546875 12.890625 L 21.734375 13.144531 C 21.777344 13.113281 21.8125 13.0625 21.800781 13.007812 C 21.804688 12.964844 21.746094 12.917969 21.765625 12.886719 C 21.777344 12.878906 21.789062 12.910156 21.796875 12.917969 L 22.015625 13.210938 C 21.984375 13.242188 21.96875 13.175781 21.9375 13.167969 C 21.894531 13.136719 21.835938 13.121094 21.792969 13.15625 C 21.761719 13.167969 21.757812 13.1875 21.78125 13.207031 C 21.832031 13.277344 21.882812 13.34375 21.933594 13.40625 C 21.964844 13.4375 22.007812 13.40625 22.035156 13.382812 C 22.105469 13.332031 22.167969 13.253906 22.167969 13.164062 C 22.171875 13.121094 22.144531 13.078125 22.144531 13.039062 C 22.164062 13.019531 22.167969 13.050781 22.175781 13.0625 L 22.277344 13.246094 L 21.746094 13.65625 C 21.726562 13.640625 21.746094 13.628906 21.761719 13.621094 C 21.808594 13.589844 21.792969 13.523438 21.761719 13.492188 L 21.414062 13.035156 C 21.386719 12.992188 21.332031 13.015625 21.304688 13.042969 C 21.289062 13.0625 21.273438 13.027344 21.292969 13.023438 L 21.792969 12.640625 L 21.929688 12.824219 C 21.898438 12.855469 21.871094 12.785156 21.835938 12.78125 C 21.769531 12.746094 21.691406 12.773438 21.636719 12.820312 L 21.542969 12.890625 "/>
</g>
</svg>
