<svg xmlns="http://www.w3.org/2000/svg" width="25" height="px" viewBox="0 0 25 19"><path d="M0 0h25v19H0z" style="fill:#fff;fill-opacity:1;stroke:none"/><path d="M204.3 315s-.5-3.553 6.2-6.118c6.6-2.566 7.2-12.139 5.8-18.553 0 0-3.4 6.02-7.7 8.092 0 0-6.8 3.553-7.2 10.362 0 0 0 2.566-.5 4.54-.3.986-3.4-8.586 2.4-15.79 6-7.303 7.6-13.322 2.9-25.066 0 0-.5 7.007-5.1 11.151-4.7 3.948-5.3 4.343-5.2 14.014 0 0 0 3.355-1.7 4.44 0 0-3.6-5.23-4.6-8.783-1-3.453-1.4-5.032 2.8-8.98 0 0 13.2-8.684 3.7-27.434 0 0-.3 6.414-5 10.263-4.5 3.849-4.2 6.316-4.4 12.928-.2 6.71-.6 6.217-1.1 7.204 0 0-8.5-15.592-2-23.783 6.5-8.19 10.2-9.967 3-25.362 0 0 .3 7.993-5.5 11.743-5.7 4.046-4.4 13.027-4.4 13.027s.4 3.552-.8 6.02c0 0-8.1-15.889-.4-24.376 6.6-7.302 7-12.434 3.5-22.598 0 0-.4 4.638-4 7.302-3.7 2.566-6.6 5.033-5.9 15 0 0 .3 6.908-.6 8.98 0 0-3.4-6.414-4.4-10.559s-1.3-6.611 1.2-10.657c2.5-4.145 12.5-15.987.6-32.96 0 0-.3 5.427-3.4 10.46-3 5.032-1.6 10.855-1 15.394.6 4.54-1.5 8.882-1.5 8.882s-5.2-9.474-4-20.428q1.65-16.578-13.5-26.348s-7.3 16.973 2.7 25.657c0 0 8.5 8.389 10.7 18.652 0 0-6.5-.592-12.3-12.04-5.8-11.348-18-9.572-18.8-9.67 0 0 2 17.565 20.6 22.598 0 0 12 1.974 14.2 10.757 0 0 2 6.02 2.8 9.276 0 0-3.8-1.58-7.3-6.71-3.5-5.034-3-5.724-14.8-6.909 0 0-4.7-.493-7.2-3.947 0 0 5 18.651 17.7 18.553 0 0 11.6-1.283 18 14.013l-2.9-2.073c-1.7-1.085-6-3.256-14.5-2.27-8.5.988-10.9-.394-13-.986 0 0 8.6 15.69 20.7 10.954 12.1-4.638 18 12.434 18.2 12.73 0 0-1.7-1.184-3.8-3.256-2.2-2.172-6.6-4.737-15-2.073 0 0-6.1 2.369-12.3.395 0 0 6 11.546 19.8 9.572 7.5-1.579 15 2.862 17.3 10.165 0 0-1.8-.987-3-1.974-1.3-.987-6-3.75-16-.79-10 2.862-13.6-.394-13.6-.394s5.5 9.967 16.2 11.25c0 0 6-.099 8.4-.987s9.2-2.467 13.8 4.243c0 0-1.3.198-3.2-.79 0 0-7-2.466-12.5 2.073 0 0-4.8 4.836-11.6 3.948 0 0 8.8 8.487 22.8 1.283 0 0 4.7-3.356 8.2-.79 3.5 2.763 11.5-2.566 11.5-2.566Zm0 0" style="fill-rule:nonzero;fill:#369443;fill-opacity:1;stroke-width:1.5;stroke-linecap:butt;stroke-linejoin:miter;stroke:#010002;stroke-opacity:1;stroke-miterlimit:10" transform="scale(.03906 .03958)"/><path d="M282.2 103.717s-1.6-14.506 10-15.987c6-1.085 12.2-.69 18 1.184l5.5 10.56-2 7.204-7.4 3.454s1.3-11.053-8.8-11.25c-2.6 0-4 .986-8.1.296-4.1-.691-6.3 3.848-7.2 4.54Zm0 0" style="fill-rule:nonzero;fill:#f4c53d;fill-opacity:1;stroke-width:1.5;stroke-linecap:butt;stroke-linejoin:miter;stroke:#010002;stroke-opacity:1;stroke-miterlimit:10" transform="scale(.03906 .03958)"/><path d="M363.8 139.638c-1.8 2.171-8.7 2.96-8.7 2.96s7.1 5.527 10.2 13.323c3 7.697-82.4 0-82.4 0s3.8-2.664 6.3-7.599c0 0-3.8 1.382-7.6-2.467 0 0 2.8 1.086 6.5-4.54 0 0 5.5-7.006 9.4-8.98 0 0-1.8 1.185-6.1-1.282 0 0 7.4-.987 10-13.421 0 0 .5-2.862 3.3-7.007 2.8-4.046 2.2.888 7.4-5.428 0 0 2.4-4.44.3-7.006-2-2.763-4.3-1.777-8.6-4.342-4.4-2.665-6.3-4.046-4.8-8.092 1.5-3.948 5.3-3.356 5.9-3.356s.8-3.454 5.5-5.92c4.7-2.37 17.4-1.284 19.2-.297 2 .987 9.5 3.355 14 14.507 4.5 11.25-1.2 15.395 10.8 32.368 0 0-4.8 1.086-7.9 0 0 0 6.3 11.25 17.3 16.58Zm0 0" style="fill-rule:nonzero;fill:#f4c53d;fill-opacity:1;stroke-width:1.5;stroke-linecap:butt;stroke-linejoin:miter;stroke:#010002;stroke-opacity:1;stroke-miterlimit:10" transform="scale(.03906 .03958)"/><path d="M311 92.171c-10-.493-6.1-9.77-6.1-9.77" style="fill:none;stroke-width:1.5;stroke-linecap:butt;stroke-linejoin:miter;stroke:#010002;stroke-opacity:1;stroke-miterlimit:10" transform="scale(.03906 .03958)"/><path d="M328 93.454s-1.7-.79-3.2-2.763c-2-2.665-6.7-3.948-9.1-1.382 0 0-2.5 2.763-4.8 2.96 0 0 2.6.692 4.3 2.37 1.7 1.578 3.5 2.762 6.1 2.368s3-1.678 4.2-2.468c1.2-.888 2.5-1.085 2.5-1.085Zm0 0" style="fill-rule:nonzero;fill:#f4c53d;fill-opacity:1;stroke-width:1.5;stroke-linecap:butt;stroke-linejoin:miter;stroke:#010002;stroke-opacity:1;stroke-miterlimit:10" transform="scale(.03906 .03958)"/><path d="M202.8 336.513s-.2-6.414 7.8-6.81l23.5 32.665s-.9 2.171-11.5 1.974c0 0-1.2 0-1.8 1.184-.9 1.974-18-29.013-18-29.013Zm0 0" style="fill-rule:nonzero;fill:#369443;fill-opacity:1;stroke-width:1.5;stroke-linecap:butt;stroke-linejoin:miter;stroke:#010002;stroke-opacity:1;stroke-miterlimit:10" transform="scale(.03906 .03958)"/><path d="M1495.184 1808.177s-49.817 85.214-110.262 86.525c0 0-103.62-12.454-132.846 14.42-20.591 19.01-41.847 34.742-50.482 83.248-7.97 47.851 16.606 58.339 22.584 60.305 0 0 4.65 34.741 38.525 25.565 0 0 1.993 36.052 62.438 19.009s85.022-11.8 96.978-72.104c11.956-59.65 22.584-58.994 33.212-66.205 14.613-9.832 41.846-18.354 61.773-30.152 17.934-10.488 87.014-45.885 110.927-48.507 23.248-2.622 18.598-81.936 18.598-81.936h-61.11l-29.89-43.918Zm191.963-430.002s-61.11 49.817-112.255 0c0 0-20.591 24.908-61.773 17.698-41.847-7.21-48.49-28.842-52.475-41.296 0 0-35.868 20.976-65.759 4.589-29.89-16.388-29.89-41.296-29.89-41.296s-52.474 10.487-79.708-25.565c-26.569-35.396-10.627-70.793 3.986-74.726 0 0-56.46 15.077-72.401-34.085-7.971-22.287-1.329-47.195 16.605-62.272 0 0-119.561-.655-168.05-38.018 0 0-41.183-25.564-16.606-52.44 0 0-107.605-17.698-134.175-60.305 0 0-11.956-11.799-7.97-32.774 0 0 .664-11.144 12.62-11.8 0 0-122.883-19.008-158.087-59.649 0 0-17.27-18.354-8.635-43.262 0 0 1.993-6.555 4.65-11.144 0 0-111.591-23.597-166.722-73.415 0 0-31.884-28.186-15.278-66.204 0 0-186.649-51.129-143.474-133.065 0 0-87.014-28.186-59.78-106.845 0 0-71.738-36.708-40.519-95.046 30.555-55.062 122.883 9.832 231.817 39.985 0 0 296.911 93.08 442.378 117.988l415.145 617.473 241.78 93.08Zm0 0" style="fill-rule:nonzero;fill:#f4c53d;fill-opacity:1;stroke-width:10;stroke-linecap:butt;stroke-linejoin:miter;stroke:#010002;stroke-opacity:1;stroke-miterlimit:4" transform="matrix(.00588 0 0 .00596 .14 1.037)"/><path d="M1689.804 923.92s-38.525-29.498-108.27 5.243c0 0-23.248 15.732-41.846-1.966-7.97-7.21-11.956-18.354-11.292-29.497s6.642-20.976 15.942-27.53c51.81-38.675 71.072-153.386-7.971-201.237 0 0-113.584-67.515-532.05-173.705 0 0-35.204-9.832-53.802-5.244-18.599 4.589-33.212 19.01-37.861 38.019 0 0-18.599 53.094 44.503 83.902 0 0 28.562 12.455 57.788 20.976 0 0-32.547-6.555-46.496 24.909-12.62 30.152 5.978 61.616 65.095 81.28 0 0 15.941 6.556 38.525 11.8 0 0-50.481 14.42-25.905 55.716 0 0 21.92 42.607 98.306 49.818 0 0-57.124 6.555-17.27 60.96 0 0 17.935 29.498 73.73 40.64 0 0-42.51 1.312-21.255 39.33s71.737 58.995 120.89 62.928c0 0 26.569 1.31 45.832-3.278 0 0-47.16 23.598-19.927 62.927 0 0 20.59 28.186 71.072 26.875 0 0-12.62 43.918 24.577 60.306 28.562 13.11 53.138-7.866 53.138-7.866s-9.963 47.195 32.548 63.582c0 0 20.591 11.144 52.474 0 0 0 23.912 54.406 109.598 16.388s19.927-355.277 19.927-355.277Zm5.314 489.651s-12.62 66.86-112.255 152.074c0 0-77.05 67.516-75.058 145.52 1.992 79.314-13.285 88.49-43.84 115.366 0 0 62.438 4.588 92.329-36.708 0 0-1.329 68.827-9.964 75.382 0 0 19.263 1.31 47.825-29.497 0 0 16.606-18.354 32.547-24.909 0 0-18.598 47.195-3.985 91.769 0 0 4.65-17.043 28.562-24.909 0 0 44.503-9.177 61.109-72.76 0 0 11.292-41.95 80.372-79.314 0 0 77.715-29.497 75.722-67.515-1.992-38.674-173.364-244.499-173.364-244.499Zm0 0" style="fill-rule:nonzero;fill:#f4c53d;fill-opacity:1;stroke-width:10;stroke-linecap:butt;stroke-linejoin:miter;stroke:#010002;stroke-opacity:1;stroke-miterlimit:4" transform="matrix(.00588 0 0 .00596 .14 1.037)"/><path d="M2056.46 2282.097s-17.934 78.66-79.708 72.76c0 0-43.84-4.589-41.182-77.348 0 0-64.43 34.085-75.058-51.128 0 0-59.117 13.765-58.453-66.205 0 0-55.131 9.177-48.489-61.616 0 0-59.78 15.732-59.78-51.129 0 0-139.489-22.942 151.444-288.416l259.715 154.696Zm0 0" style="fill-rule:nonzero;fill:#f4c53d;fill-opacity:1;stroke-width:10;stroke-linecap:butt;stroke-linejoin:miter;stroke:#010002;stroke-opacity:1;stroke-miterlimit:10" transform="matrix(.00588 0 0 .00596 .14 1.037)"/><path d="M2085.686 1928.132s-43.84 38.674-74.394-19.01c0 0-41.847-1.966-48.489-33.43 0 0-33.876-3.277-40.518-36.051 0 0-46.496-4.589-45.168-43.918 0 0-85.021-6.555 0-102.912 84.358-95.702 227.832 159.284 227.832 159.284Zm47.825-23.598c41.846 0 89.67 262.197 77.05 420.17-3.985 57.028-35.204 103.568-77.05 103.568-41.847 0-72.402-46.54-77.051-103.568-11.956-157.973 35.204-420.17 77.05-420.17" style="fill-rule:nonzero;fill:#f4c53d;fill-opacity:1;stroke-width:10;stroke-linecap:butt;stroke-linejoin:miter;stroke:#010002;stroke-opacity:1;stroke-miterlimit:4" transform="matrix(.00588 0 0 .00596 .14 1.037)"/><path d="M2191.299 1902.568c0-47.851-25.905-85.87-57.788-85.87-31.884 0-57.789 38.019-57.789 85.87 0 47.195 25.905 85.87 57.789 85.87 31.883 0 57.788-38.675 57.788-85.87Zm0 0" style="fill-rule:nonzero;fill:#f4c53d;fill-opacity:1;stroke-width:10;stroke-linecap:butt;stroke-linejoin:miter;stroke:#010002;stroke-opacity:1;stroke-miterlimit:4" transform="matrix(.00588 0 0 .00596 .14 1.037)"/><path d="M1935.57 2277.509s6.642-138.964 126.868-337.578m-201.926 286.45s-18.599-79.97 150.78-317.258c0 0-19.927-56.372 40.518-92.424m-249.75 343.477s-5.315-87.18 160.743-284.483c0 0-14.613-51.129 45.168-91.77m-254.4 314.637s6.642-87.836 168.714-258.92c0 0-7.97-52.439 49.817-85.213M1693.79 2047.43s11.956-100.29 183.327-251.708c0 0-5.978-39.33 51.146-79.315" style="fill:none;stroke-width:10;stroke-linecap:butt;stroke-linejoin:miter;stroke:#010002;stroke-opacity:1;stroke-miterlimit:10" transform="matrix(.00588 0 0 .00596 .14 1.037)"/><path d="M371.97 432.3s134.838 77.349 553.304 155.352M431.75 539.146S795.75 657.79 965.128 672.211m-389.904 0s213.218 66.86 462.97 109.467m-280.97 30.152s241.115 57.684 356.027 67.516m-193.955 46.54s203.919 41.951 255.065 47.195m-125.54 57.683s148.788 22.287 207.904 20.976m-23.248 69.482s60.445-3.277 89.007-7.866m-33.211 104.223s51.146-13.765 81.036-32.774m-5.314 133.065s39.19-15.077 57.788-57.028m37.861 93.735s30.555-26.875 32.548-57.683m81.7 81.28s-11.292-9.832-3.985-52.438m-10.628-62.928s-5.978-11.798-3.985-31.463m-211.226-581.421s69.08 27.53 91.664 65.55c23.248 38.018 7.97 75.38 0 96.356-3.985 10.488-52.474 104.223 4.65 171.74m-95.65 73.414s.665 0 24.577-7.866M1200.93 957.35s41.182 8.522 81.036 9.177m-138.16-110.122s48.489 4.588 93.657 3.933M1072.069 750.87s69.744 13.765 106.941 14.42m-164.065-132.409s85.686 24.253 149.452 33.43m141.482 50.473s-61.774 57.028 12.62 110.123c0 0-31.219 48.506 30.555 98.979m-16.606 23.598s-9.3 92.424 103.62 92.424c0 0-21.256 81.936 87.014 79.314 0 0 12.62 65.55 91 52.44m-172.7 721.04s-17.935 4.588-56.46 0m-108.934 48.506s-54.467-8.521-51.81 110.123m84.357-83.248s-49.153-5.899-45.832 108.812m520.758-384.773s-23.913 4.588-39.854 23.597c-16.606 18.354-47.825 15.077-47.825 15.077s16.606-13.766 22.584-48.507c5.978-34.085 25.24-44.573 25.24-44.573m-56.459-32.775s-23.248 4.589-39.854 23.598c-16.605 18.354-47.824 15.076-47.824 15.076s16.605-13.765 22.584-48.506c5.978-34.086 25.24-44.573 25.24-44.573m23.913 188.126s-20.592 4.588-35.205 20.32c-14.613 16.387-41.846 13.765-41.846 13.765s15.277-12.454 19.927-42.607c5.314-30.152 21.92-38.674 21.92-38.674" style="fill:none;stroke-width:10;stroke-linecap:butt;stroke-linejoin:miter;stroke:#010002;stroke-opacity:1;stroke-miterlimit:4" transform="matrix(.00588 0 0 .00596 .14 1.037)"/><path d="M1495.184 1808.177s-49.817 85.214-110.262 86.525c0 0-103.62-12.454-132.846 14.42-20.591 19.01-41.847 34.742-50.482 83.248-7.97 47.851 16.606 58.339 22.584 60.305 0 0 4.65 34.741 38.526 25.565 0 0 1.992 36.052 62.437 19.009s85.022-11.8 96.978-72.104c11.956-59.65 22.584-58.994 33.212-66.205 14.613-9.832 41.846-18.354 61.773-30.152 17.934-10.488 87.014-45.885 110.927-48.507 23.248-2.622 18.598-81.936 18.598-81.936h-61.11l-29.89-43.918Zm191.963-430.002s-61.109 49.817-112.255 0c0 0-20.59 24.908-61.773 17.698-41.847-7.21-48.49-28.842-52.475-41.296 0 0-35.868 20.976-65.758 4.589-29.89-16.388-29.89-41.296-29.89-41.296s-52.475 10.487-79.709-25.565c-26.569-35.396-10.627-70.793 3.986-74.726 0 0-56.46 15.077-72.401-34.085-7.971-22.287-1.329-47.195 16.605-62.272 0 0-119.561-.655-168.05-38.018 0 0-41.182-25.564-16.606-52.44 0 0-107.605-17.698-134.175-60.305 0 0-11.956-11.799-7.97-32.774 0 0 .664-11.144 12.62-11.8 0 0-122.883-19.008-158.087-59.649 0 0-17.27-18.354-8.635-43.262 0 0 1.993-6.555 4.65-11.144 0 0-111.591-23.597-166.722-73.415 0 0-31.883-28.186-15.278-66.204 0 0-186.649-51.129-143.474-133.065 0 0-87.014-28.186-59.78-106.845 0 0-71.737-36.708-40.519-95.046 30.555-55.062 122.883 9.832 231.817 39.985 0 0 296.911 93.08 442.378 117.988l415.145 617.473 241.78 93.08Zm0 0" style="fill-rule:nonzero;fill:#f4c53d;fill-opacity:1;stroke-width:10;stroke-linecap:butt;stroke-linejoin:miter;stroke:#010002;stroke-opacity:1;stroke-miterlimit:4" transform="matrix(-.00588 0 0 .00596 25.14 1.037)"/><path d="M1689.804 923.92s-38.525-29.498-108.27 5.243c0 0-23.248 15.732-41.846-1.966-7.97-7.21-11.956-18.354-11.292-29.497s6.642-20.976 15.942-27.53c51.81-38.675 71.072-153.386-7.971-201.237 0 0-113.584-67.515-532.05-173.705 0 0-35.204-9.832-53.802-5.244-18.599 4.589-33.212 19.01-37.861 38.019 0 0-18.599 53.094 44.503 83.902 0 0 28.562 12.455 57.788 20.976 0 0-32.547-6.555-46.496 24.909-12.62 30.152 5.978 61.616 65.095 81.28 0 0 15.941 6.556 38.525 11.8 0 0-50.481 14.42-25.905 55.716 0 0 21.92 42.607 98.306 49.818 0 0-57.123 6.555-17.27 60.96 0 0 17.935 29.498 73.73 40.64 0 0-42.51 1.312-21.255 39.33s71.737 58.995 120.89 62.928c0 0 26.569 1.31 45.832-3.278 0 0-47.16 23.598-19.927 62.927 0 0 20.59 28.186 71.072 26.875 0 0-12.62 43.918 24.577 60.306 28.562 13.11 53.139-7.866 53.139-7.866s-9.964 47.195 32.547 63.582c0 0 20.591 11.144 52.474 0 0 0 23.912 54.406 109.598 16.388s19.927-355.277 19.927-355.277Zm5.314 489.651s-12.62 66.86-112.255 152.074c0 0-77.05 67.516-75.058 145.52 1.993 79.314-13.285 88.49-43.84 115.366 0 0 62.438 4.588 92.329-36.708 0 0-1.329 68.827-9.964 75.382 0 0 19.263 1.31 47.825-29.497 0 0 16.606-18.354 32.547-24.909 0 0-18.598 47.195-3.985 91.769 0 0 4.65-17.043 28.562-24.909 0 0 44.503-9.177 61.11-72.76 0 0 11.291-41.95 80.371-79.314 0 0 77.715-29.497 75.722-67.515-1.992-38.674-173.364-244.499-173.364-244.499Zm0 0" style="fill-rule:nonzero;fill:#f4c53d;fill-opacity:1;stroke-width:10;stroke-linecap:butt;stroke-linejoin:miter;stroke:#010002;stroke-opacity:1;stroke-miterlimit:4" transform="matrix(-.00588 0 0 .00596 25.14 1.037)"/><path d="M2056.46 2282.097s-17.934 78.66-79.708 72.76c0 0-43.84-4.589-41.182-77.348 0 0-64.43 34.085-75.058-51.128 0 0-59.117 13.765-58.453-66.205 0 0-55.13 9.177-48.489-61.616 0 0-59.78 15.732-59.78-51.129 0 0-139.489-22.942 151.444-288.416l259.715 154.696Zm0 0" style="fill-rule:nonzero;fill:#f4c53d;fill-opacity:1;stroke-width:10;stroke-linecap:butt;stroke-linejoin:miter;stroke:#010002;stroke-opacity:1;stroke-miterlimit:10" transform="matrix(-.00588 0 0 .00596 25.14 1.037)"/><path d="M2085.686 1928.132s-43.84 38.674-74.394-19.01c0 0-41.846-1.966-48.489-33.43 0 0-33.876-3.277-40.518-36.051 0 0-46.496-4.589-45.168-43.918 0 0-85.021-6.555 0-102.912 84.358-95.702 227.832 159.284 227.832 159.284Zm47.825-23.598c41.846 0 89.67 262.197 77.05 420.17-3.985 57.028-35.204 103.568-77.05 103.568-41.847 0-72.402-46.54-77.051-103.568-11.956-157.973 35.204-420.17 77.05-420.17" style="fill-rule:nonzero;fill:#f4c53d;fill-opacity:1;stroke-width:10;stroke-linecap:butt;stroke-linejoin:miter;stroke:#010002;stroke-opacity:1;stroke-miterlimit:4" transform="matrix(-.00588 0 0 .00596 25.14 1.037)"/><path d="M2191.299 1902.568c0-47.851-25.905-85.87-57.788-85.87s-57.788 38.019-57.788 85.87c0 47.195 25.905 85.87 57.788 85.87s57.788-38.675 57.788-85.87Zm0 0" style="fill-rule:nonzero;fill:#f4c53d;fill-opacity:1;stroke-width:10;stroke-linecap:butt;stroke-linejoin:miter;stroke:#010002;stroke-opacity:1;stroke-miterlimit:4" transform="matrix(-.00588 0 0 .00596 25.14 1.037)"/><path d="M1935.57 2277.509s6.642-138.964 126.868-337.578m-201.926 286.45s-18.599-79.97 150.78-317.258c0 0-19.927-56.372 40.518-92.424m-249.75 343.477s-5.315-87.18 160.743-284.483c0 0-14.613-51.129 45.168-91.77m-254.4 314.637s6.642-87.836 168.714-258.92c0 0-7.97-52.439 49.817-85.213M1693.79 2047.43s11.956-100.29 183.327-251.708c0 0-5.978-39.33 51.146-79.315" style="fill:none;stroke-width:10;stroke-linecap:butt;stroke-linejoin:miter;stroke:#010002;stroke-opacity:1;stroke-miterlimit:10" transform="matrix(-.00588 0 0 .00596 25.14 1.037)"/><path d="M371.97 432.3s134.838 77.349 553.304 155.352M431.75 539.146S795.75 657.79 965.128 672.211m-389.904 0s213.218 66.86 462.97 109.467m-280.97 30.152s241.116 57.684 356.028 67.516m-193.956 46.54s203.919 41.951 255.065 47.195m-125.54 57.683s148.788 22.287 207.904 20.976m-23.248 69.482s60.445-3.277 89.007-7.866m-33.211 104.223s51.146-13.765 81.036-32.774m-5.314 133.065s39.19-15.077 57.788-57.028m37.861 93.735s30.555-26.875 32.548-57.683m81.7 81.28s-11.292-9.832-3.985-52.438m-10.628-62.928s-5.978-11.798-3.985-31.463m-211.226-581.421s69.08 27.53 91.664 65.55c23.248 38.018 7.97 75.38 0 96.356-3.985 10.488-52.474 104.223 4.65 171.74m-95.65 73.414s.665 0 24.577-7.866M1200.93 957.35s41.182 8.522 81.036 9.177m-138.16-110.122s48.49 4.588 93.657 3.933M1072.069 750.87s69.744 13.765 106.941 14.42m-164.065-132.409s85.686 24.253 149.452 33.43m141.482 50.473s-61.774 57.028 12.62 110.123c0 0-31.219 48.506 30.555 98.979m-16.606 23.598s-9.3 92.424 103.62 92.424c0 0-21.255 81.936 87.014 79.314 0 0 12.62 65.55 91 52.44m-172.7 721.04s-17.934 4.588-56.46 0m-108.934 48.506s-54.467-8.521-51.81 110.123m84.358-83.248s-49.154-5.899-45.832 108.812m520.757-384.773s-23.913 4.588-39.854 23.597c-16.606 18.354-47.825 15.077-47.825 15.077s16.606-13.766 22.584-48.507c5.978-34.085 25.24-44.573 25.24-44.573m-56.459-32.775s-23.248 4.589-39.854 23.598c-16.605 18.354-47.824 15.076-47.824 15.076s16.606-13.765 22.584-48.506c5.978-34.086 25.24-44.573 25.24-44.573m23.913 188.126s-20.591 4.588-35.205 20.32c-14.613 16.387-41.846 13.765-41.846 13.765s15.277-12.454 19.927-42.607c5.314-30.152 21.92-38.674 21.92-38.674" style="fill:none;stroke-width:10;stroke-linecap:butt;stroke-linejoin:miter;stroke:#010002;stroke-opacity:1;stroke-miterlimit:4" transform="matrix(-.00588 0 0 .00596 25.14 1.037)"/><path d="m466 255.987-14.3 61.677-5.9-4.144 14-59.21-9.8.197 23.1-42.336 1.5 48.75Zm37 13.026-43 50.823-4.6-5.23 42.8-50.231-8.7-4.54 39.2-26.052-20.3 43.816Zm0 0" style="fill-rule:nonzero;fill:#0081c6;fill-opacity:1;stroke-width:1.5;stroke-linecap:butt;stroke-linejoin:miter;stroke:#010002;stroke-opacity:1;stroke-miterlimit:10" transform="scale(.03906 .03958)"/><path d="m492.6 241.974-38.5 74.013-5.9-3.454 38.7-73.816-9.4-2.368 32.7-34.638-10.5 47.467Zm-48 96.612-2.9 11.743 8 7.993-11.2 46.974-10-13.322-14.6 6.809 11.1-46.974 10.4-2.96 2.6-11.744s3.2-1.184 6.6 1.48Zm0 0" style="fill-rule:nonzero;fill:#0081c6;fill-opacity:1;stroke-width:1.5;stroke-linecap:butt;stroke-linejoin:miter;stroke:#010002;stroke-opacity:1;stroke-miterlimit:10" transform="scale(.03906 .03958)"/><path d="m447.3 330.79-5.7 10.657 5.7 9.671-22.4 42.435-6.3-15.592-15.9 2.664 22.4-42.434h10.7l5.5-10.56s4 0 6 3.158Zm0 0" style="fill-rule:nonzero;fill:#0081c6;fill-opacity:1;stroke-width:1.5;stroke-linecap:butt;stroke-linejoin:miter;stroke:#010002;stroke-opacity:1;stroke-miterlimit:10" transform="scale(.03906 .03958)"/><path d="m448.2 333.947-15 19.145 3.4 10.855-30.9 35.921-2.8-16.579-16-1.184 30.8-36.02 10.4 2.468 16-20.33s4.4 2.172 4.1 5.724Zm-382.7-45c3.6-1.579 6.2-2.96 6.2-6.71 0-1.086-.5-3.06-1.5-6.119L46 202.007c-.8-2.665-1.8-5.33-3-7.895-1.1-1.974-3.2-2.96-6.1-4.046h30.7c-3.3 1.579-6.4 2.763-6.3 6.316 0 1.381.4 3.256 1.1 5.723L81 260.132l18.5-58.027c.6-1.875 1-3.75 1.1-5.723 0-3.652-3.2-4.935-6.3-6.415h29.8c-2.7 1.086-5 2.072-6 4.145-1.2 2.566-2.2 5.23-3.1 7.993L90.8 276.02c-.7 1.973-1.2 4.046-1.5 6.118 0 0-1.1 4.638 6.2 6.71Zm515.3-7.598v-83.783c0-1.382-.3-2.467-.8-3.257-.8-1.184-2.5-2.96-5.5-4.243h27.7c-2.2.888-4.1 2.368-5.5 4.243-.5.79-.7 1.875-.7 3.257v83.783c0 1.381.2 2.565.7 3.355s2.5 2.763 5.5 4.243h-27.7c3-1.48 5-3.454 5.5-4.243s.8-1.974.8-3.355Zm0 0" style="fill-rule:nonzero;fill:#0081c6;fill-opacity:1;stroke-width:1.5;stroke-linecap:butt;stroke-linejoin:miter;stroke:#010002;stroke-opacity:1;stroke-miterlimit:10" transform="scale(.03906 .03958)"/><path d="M324.8 309.77s74.2-32.862 74.3-108.75H250.5c.2 75.987 74.3 108.75 74.3 108.75Zm0 0" style="fill-rule:nonzero;fill:#fff;fill-opacity:1;stroke-width:1.5;stroke-linecap:butt;stroke-linejoin:miter;stroke:#010002;stroke-opacity:1;stroke-miterlimit:4" transform="scale(.03906 .03958)"/><path d="M262 201.02v48.454s5.6 11.348 11.4 18.355v-66.81Zm22.8 0v79.934s7.2 7.007 11.4 10.46V201.02Zm22.9 0V299.9s8.1 5.23 11.4 7.007V200.92h-11.4Zm80 0v48.454s-5.7 11.348-11.5 18.355v-66.81Zm-22.9 0v79.934s-7.1 7.007-11.4 10.46V201.02Zm-22.8 0V299.9s-8.2 5.23-11.5 7.007V200.92H342Zm0 0" style="fill-rule:nonzero;fill:#a60032;fill-opacity:1;stroke-width:1.5;stroke-linecap:butt;stroke-linejoin:miter;stroke:#010002;stroke-opacity:1;stroke-miterlimit:4" transform="scale(.03906 .03958)"/><path d="M399.1 145.757s-36.4 19.046-74.3-1.58c-37.9 20.626-74.3 1.58-74.3 1.58v55.263h148.6Zm0 0" style="fill-rule:nonzero;fill:#162667;fill-opacity:1;stroke-width:1.5;stroke-linecap:butt;stroke-linejoin:miter;stroke:#010002;stroke-opacity:1;stroke-miterlimit:10" transform="scale(.03906 .03958)"/></svg>