<?xml version="1.0" encoding="UTF-8"?>
<svg xmlns="http://www.w3.org/2000/svg" xmlns:xlink="http://www.w3.org/1999/xlink" width="25px" height="px" viewBox="0 0 25 19" version="1.1">
<g id="surface1">
<rect x="0" y="0" width="25" height="19" style="fill:rgb(100%,100%,100%);fill-opacity:1;stroke:none;"/>
<path style="fill-rule:nonzero;fill:rgb(21.176471%,58.039218%,26.274511%);fill-opacity:1;stroke-width:1.5;stroke-linecap:butt;stroke-linejoin:miter;stroke:rgb(0.392157%,0%,0.784314%);stroke-opacity:1;stroke-miterlimit:10;" d="M 204.3 315 C 204.3 315 203.8 311.447368 210.5 308.881579 C 217.1 306.315789 217.7 296.743421 216.3 290.328947 C 216.3 290.328947 212.9 296.348684 208.6 298.421053 C 208.6 298.421053 201.8 301.973684 201.4 308.782895 C 201.4 308.782895 201.4 311.348684 200.9 313.322368 C 200.6 314.309211 197.5 304.736842 203.3 297.532895 C 209.3 290.230263 210.9 284.210526 206.2 272.467105 C 206.2 272.467105 205.7 279.473684 201.1 283.618421 C 196.4 287.565789 195.8 287.960526 195.9 297.631579 C 195.9 297.631579 195.9 300.986842 194.2 302.072368 C 194.2 302.072368 190.6 296.842105 189.6 293.289474 C 188.6 289.835526 188.2 288.256579 192.4 284.309211 C 192.4 284.309211 205.6 275.625 196.1 256.875 C 196.1 256.875 195.8 263.289474 191.1 267.138158 C 186.6 270.986842 186.9 273.453947 186.7 280.065789 C 186.5 286.776316 186.1 286.282895 185.6 287.269737 C 185.6 287.269737 177.1 271.677632 183.6 263.486842 C 190.1 255.296053 193.8 253.519737 186.6 238.125 C 186.6 238.125 186.9 246.118421 181.1 249.868421 C 175.4 253.914474 176.7 262.894737 176.7 262.894737 C 176.7 262.894737 177.1 266.447368 175.9 268.914474 C 175.9 268.914474 167.8 253.026316 175.5 244.539474 C 182.1 237.236842 182.5 232.105263 179 221.940789 C 179 221.940789 178.6 226.578947 175 229.243421 C 171.3 231.809211 168.4 234.276316 169.1 244.243421 C 169.1 244.243421 169.4 251.151316 168.5 253.223684 C 168.5 253.223684 165.1 246.809211 164.1 242.664474 C 163.1 238.519737 162.8 236.052632 165.3 232.006579 C 167.8 227.861842 177.8 216.019737 165.9 199.046053 C 165.9 199.046053 165.6 204.473684 162.5 209.506579 C 159.5 214.539474 160.9 220.361842 161.5 224.901316 C 162.1 229.440789 160 233.782895 160 233.782895 C 160 233.782895 154.8 224.309211 156 213.355263 C 157.1 202.302632 152.6 193.519737 142.5 187.006579 C 142.5 187.006579 135.2 203.980263 145.2 212.664474 C 145.2 212.664474 153.7 221.052632 155.9 231.315789 C 155.9 231.315789 149.4 230.723684 143.6 219.276316 C 137.8 207.927632 125.6 209.703947 124.8 209.605263 C 124.8 209.605263 126.8 227.171053 145.4 232.203947 C 145.4 232.203947 157.4 234.177632 159.6 242.960526 C 159.6 242.960526 161.6 248.980263 162.4 252.236842 C 162.4 252.236842 158.6 250.657895 155.1 245.526316 C 151.6 240.493421 152.1 239.802632 140.3 238.618421 C 140.3 238.618421 135.6 238.125 133.1 234.671053 C 133.1 234.671053 138.1 253.322368 150.8 253.223684 C 150.8 253.223684 162.4 251.940789 168.8 267.236842 L 165.9 265.164474 C 164.2 264.078947 159.9 261.907895 151.4 262.894737 C 142.9 263.881579 140.5 262.5 138.4 261.907895 C 138.4 261.907895 147 277.598684 159.1 272.861842 C 171.2 268.223684 177.1 285.296053 177.3 285.592105 C 177.3 285.592105 175.6 284.407895 173.5 282.335526 C 171.3 280.164474 166.9 277.598684 158.5 280.263158 C 158.5 280.263158 152.4 282.631579 146.2 280.657895 C 146.2 280.657895 152.2 292.203947 166 290.230263 C 173.5 288.651316 181 293.092105 183.3 300.394737 C 183.3 300.394737 181.5 299.407895 180.3 298.421053 C 179 297.434211 174.3 294.671053 164.3 297.631579 C 154.3 300.493421 150.7 297.236842 150.7 297.236842 C 150.7 297.236842 156.2 307.203947 166.9 308.486842 C 166.9 308.486842 172.9 308.388158 175.3 307.5 C 177.7 306.611842 184.5 305.032895 189.1 311.743421 C 189.1 311.743421 187.8 311.940789 185.9 310.953947 C 185.9 310.953947 178.9 308.486842 173.4 313.026316 C 173.4 313.026316 168.6 317.861842 161.8 316.973684 C 161.8 316.973684 170.6 325.460526 184.6 318.256579 C 184.6 318.256579 189.3 314.901316 192.8 317.467105 C 196.3 320.230263 204.3 314.901316 204.3 314.901316 Z M 204.3 315 " transform="matrix(0.0390625,0,0,0.0395833,0,0)"/>
<path style="fill-rule:nonzero;fill:rgb(95.686275%,77.254903%,23.921569%);fill-opacity:1;stroke-width:1.5;stroke-linecap:butt;stroke-linejoin:miter;stroke:rgb(0.392157%,0%,0.784314%);stroke-opacity:1;stroke-miterlimit:10;" d="M 282.2 103.717105 C 282.2 103.717105 280.6 89.210526 292.2 87.730263 C 298.2 86.644737 304.4 87.039474 310.2 88.914474 L 315.7 99.473684 L 313.7 106.677632 L 306.3 110.131579 C 306.3 110.131579 307.6 99.078947 297.5 98.881579 C 294.9 98.881579 293.5 99.868421 289.4 99.177632 C 285.3 98.486842 283.1 103.026316 282.2 103.717105 Z M 282.2 103.717105 " transform="matrix(0.0390625,0,0,0.0395833,0,0)"/>
<path style="fill-rule:nonzero;fill:rgb(95.686275%,77.254903%,23.921569%);fill-opacity:1;stroke-width:1.5;stroke-linecap:butt;stroke-linejoin:miter;stroke:rgb(0.392157%,0%,0.784314%);stroke-opacity:1;stroke-miterlimit:10;" d="M 363.8 139.638158 C 362 141.809211 355.1 142.598684 355.1 142.598684 C 355.1 142.598684 362.2 148.125 365.3 155.921053 C 368.3 163.618421 282.9 155.921053 282.9 155.921053 C 282.9 155.921053 286.7 153.256579 289.2 148.322368 C 289.2 148.322368 285.4 149.703947 281.6 145.855263 C 281.6 145.855263 284.4 146.940789 288.1 141.315789 C 288.1 141.315789 293.6 134.309211 297.5 132.335526 C 297.5 132.335526 295.7 133.519737 291.4 131.052632 C 291.4 131.052632 298.8 130.065789 301.4 117.631579 C 301.4 117.631579 301.9 114.769737 304.7 110.625 C 307.5 106.578947 306.9 111.513158 312.1 105.197368 C 312.1 105.197368 314.5 100.756579 312.4 98.190789 C 310.4 95.427632 308.1 96.414474 303.8 93.848684 C 299.4 91.184211 297.5 89.802632 299 85.756579 C 300.5 81.809211 304.3 82.401316 304.9 82.401316 C 305.5 82.401316 305.7 78.947368 310.4 76.480263 C 315.1 74.111842 327.8 75.197368 329.6 76.184211 C 331.6 77.171053 339.1 79.539474 343.6 90.690789 C 348.1 101.940789 342.4 106.085526 354.4 123.059211 C 354.4 123.059211 349.6 124.144737 346.5 123.059211 C 346.5 123.059211 352.8 134.309211 363.8 139.638158 Z M 363.8 139.638158 " transform="matrix(0.0390625,0,0,0.0395833,0,0)"/>
<path style="fill:none;stroke-width:1.5;stroke-linecap:butt;stroke-linejoin:miter;stroke:rgb(0.392157%,0%,0.784314%);stroke-opacity:1;stroke-miterlimit:10;" d="M 311 92.171053 C 301 91.677632 304.9 82.401316 304.9 82.401316 " transform="matrix(0.0390625,0,0,0.0395833,0,0)"/>
<path style="fill-rule:nonzero;fill:rgb(95.686275%,77.254903%,23.921569%);fill-opacity:1;stroke-width:1.5;stroke-linecap:butt;stroke-linejoin:miter;stroke:rgb(0.392157%,0%,0.784314%);stroke-opacity:1;stroke-miterlimit:10;" d="M 328 93.453947 C 328 93.453947 326.3 92.664474 324.8 90.690789 C 322.8 88.026316 318.1 86.743421 315.7 89.309211 C 315.7 89.309211 313.2 92.072368 310.9 92.269737 C 310.9 92.269737 313.5 92.960526 315.2 94.638158 C 316.9 96.217105 318.7 97.401316 321.3 97.006579 C 323.9 96.611842 324.3 95.328947 325.5 94.539474 C 326.7 93.651316 328 93.453947 328 93.453947 Z M 328 93.453947 " transform="matrix(0.0390625,0,0,0.0395833,0,0)"/>
<path style="fill-rule:nonzero;fill:rgb(21.176471%,58.039218%,26.274511%);fill-opacity:1;stroke-width:1.5;stroke-linecap:butt;stroke-linejoin:miter;stroke:rgb(0.392157%,0%,0.784314%);stroke-opacity:1;stroke-miterlimit:10;" d="M 202.8 336.513158 C 202.8 336.513158 202.6 330.098684 210.6 329.703947 L 234.1 362.368421 C 234.1 362.368421 233.2 364.539474 222.6 364.342105 C 222.6 364.342105 221.4 364.342105 220.8 365.526316 C 219.9 367.5 202.8 336.513158 202.8 336.513158 Z M 202.8 336.513158 " transform="matrix(0.0390625,0,0,0.0395833,0,0)"/>
<path style="fill-rule:nonzero;fill:rgb(95.686275%,77.254903%,23.921569%);fill-opacity:1;stroke-width:10;stroke-linecap:butt;stroke-linejoin:miter;stroke:rgb(0.392157%,0%,0.784314%);stroke-opacity:1;stroke-miterlimit:4;" d="M 1495.184395 1808.177115 C 1495.184395 1808.177115 1445.367056 1893.390984 1384.922019 1894.701967 C 1384.922019 1894.701967 1281.301954 1882.247632 1252.075782 1909.122775 C 1231.484615 1928.132023 1210.229217 1943.863814 1201.594212 1992.37017 C 1193.623438 2040.221035 1218.199992 2050.708896 1224.178072 2052.67537 C 1224.178072 2052.67537 1228.82769 2087.416409 1262.703481 2078.239531 C 1262.703481 2078.239531 1264.696174 2114.291552 1325.141212 2097.248778 C 1385.58625 2080.206004 1410.162804 2085.449935 1422.118965 2025.144735 C 1434.075126 1965.495027 1444.702825 1966.150518 1455.330524 1958.940114 C 1469.94361 1949.107744 1497.177089 1940.586358 1517.104024 1928.787514 C 1535.038266 1918.299653 1604.118309 1882.903123 1628.030632 1880.281158 C 1651.278723 1877.659193 1646.629105 1798.344746 1646.629105 1798.344746 L 1585.519836 1798.344746 L 1555.629433 1754.426828 Z M 1687.147207 1378.174822 C 1687.147207 1378.174822 1626.037938 1427.992161 1574.892137 1378.174822 C 1574.892137 1378.174822 1554.30097 1403.083492 1513.118637 1395.873088 C 1471.272072 1388.662683 1464.629761 1367.03147 1460.644374 1354.577136 C 1460.644374 1354.577136 1424.77589 1375.552857 1394.885486 1359.165575 C 1364.995083 1342.778292 1364.995083 1317.869623 1364.995083 1317.869623 C 1364.995083 1317.869623 1312.52082 1328.357484 1285.287341 1292.305462 C 1258.718094 1256.908932 1274.659642 1221.512402 1289.272728 1217.579454 C 1289.272728 1217.579454 1232.813078 1232.655754 1216.871529 1183.493906 C 1208.900755 1161.207202 1215.543067 1136.298533 1233.477309 1121.222233 C 1233.477309 1121.222233 1113.915696 1120.566742 1065.426819 1083.203738 C 1065.426819 1083.203738 1024.244486 1057.639577 1048.82104 1030.764434 C 1048.82104 1030.764434 941.215588 1013.066169 914.646341 970.459234 C 914.646341 970.459234 902.690179 958.660391 906.675566 937.684669 C 906.675566 937.684669 907.339798 926.541317 919.295959 925.885826 C 919.295959 925.885826 796.41319 906.876578 761.208937 866.236117 C 761.208937 866.236117 743.938926 847.882361 752.573932 822.973692 C 752.573932 822.973692 754.566625 816.418779 757.22355 811.83034 C 757.22355 811.83034 645.632711 788.232653 590.501523 738.415314 C 590.501523 738.415314 558.618426 710.229188 575.224206 672.210693 C 575.224206 672.210693 388.575243 621.082371 431.75027 539.145959 C 431.75027 539.145959 344.735985 510.959833 371.969463 432.300877 C 371.969463 432.300877 300.232496 395.593364 331.451361 337.254639 C 362.005996 282.193369 454.33413 347.087008 563.268044 377.239608 C 563.268044 377.239608 860.179384 470.319372 1005.646013 495.228042 L 1420.790503 1112.700846 L 1662.570653 1205.780611 Z M 1687.147207 1378.174822 " transform="matrix(0.00588086,0,0,0.00595927,0.140625,1.037083)"/>
<path style="fill-rule:nonzero;fill:rgb(95.686275%,77.254903%,23.921569%);fill-opacity:1;stroke-width:10;stroke-linecap:butt;stroke-linejoin:miter;stroke:rgb(0.392157%,0%,0.784314%);stroke-opacity:1;stroke-miterlimit:4;" d="M 1689.804132 923.919352 C 1689.804132 923.919352 1651.278723 894.422243 1581.534449 929.163282 C 1581.534449 929.163282 1558.286358 944.895073 1539.687884 927.196808 C 1531.71711 919.986404 1527.731723 908.843052 1528.395954 897.6997 C 1529.060185 886.556348 1535.038266 876.723978 1544.337503 870.169065 C 1596.147535 831.495079 1615.410239 716.784101 1536.366728 668.933236 C 1536.366728 668.933236 1422.783196 601.417632 1004.31755 495.228042 C 1004.31755 495.228042 969.113298 485.395672 950.514824 489.984111 C 931.916351 494.57255 917.303265 508.993359 912.653647 528.002607 C 912.653647 528.002607 894.055174 581.097402 957.157136 611.905493 C 957.157136 611.905493 985.719077 624.359828 1014.945249 632.881215 C 1014.945249 632.881215 982.397921 626.326302 968.449066 657.789884 C 955.828674 687.942484 974.427147 719.406066 1033.543722 739.070805 C 1033.543722 739.070805 1049.485271 745.625718 1072.069131 750.869649 C 1072.069131 750.869649 1021.587561 765.290457 1046.164115 806.586409 C 1046.164115 806.586409 1068.083744 849.193344 1144.47033 856.403748 C 1144.47033 856.403748 1087.346448 862.958661 1127.200319 917.364439 C 1127.200319 917.364439 1145.134561 946.861547 1200.929981 958.004899 C 1200.929981 958.004899 1158.419185 959.315882 1179.674583 997.334377 C 1200.929981 1035.352873 1251.411551 1056.328594 1300.564658 1060.261542 C 1300.564658 1060.261542 1327.133906 1061.572525 1346.39661 1056.984086 C 1346.39661 1056.984086 1299.236196 1080.581772 1326.469674 1119.91125 C 1326.469674 1119.91125 1347.060841 1148.097376 1397.542411 1146.786394 C 1397.542411 1146.786394 1384.922019 1190.704311 1422.118965 1207.091593 C 1450.680906 1220.201419 1475.25746 1199.225698 1475.25746 1199.225698 C 1475.25746 1199.225698 1465.293992 1246.421071 1507.804788 1262.808354 C 1507.804788 1262.808354 1528.395954 1273.951706 1560.279051 1262.808354 C 1560.279051 1262.808354 1584.191374 1317.214132 1669.877196 1279.195636 C 1755.563019 1241.177141 1689.804132 923.919352 1689.804132 923.919352 Z M 1695.117981 1413.571353 C 1695.117981 1413.571353 1682.497589 1480.431465 1582.862911 1565.645334 C 1582.862911 1565.645334 1505.812094 1633.160938 1507.804788 1711.164403 C 1509.797481 1790.47885 1494.520164 1799.655728 1463.965529 1826.530871 C 1463.965529 1826.530871 1526.403261 1831.119311 1556.293664 1789.823359 C 1556.293664 1789.823359 1554.965202 1858.649945 1546.330196 1865.204858 C 1546.330196 1865.204858 1565.592901 1866.515841 1594.154841 1835.70775 C 1594.154841 1835.70775 1610.760621 1817.353993 1626.702169 1810.79908 C 1626.702169 1810.79908 1608.103696 1857.994454 1622.716782 1902.567862 C 1622.716782 1902.567862 1627.366401 1885.525088 1651.278723 1877.659193 C 1651.278723 1877.659193 1695.782213 1868.482315 1712.387992 1804.899659 C 1712.387992 1804.899659 1723.679922 1762.948215 1792.759965 1725.585211 C 1792.759965 1725.585211 1870.475014 1696.088103 1868.48232 1658.069607 C 1866.489627 1619.395621 1695.117981 1413.571353 1695.117981 1413.571353 Z M 1695.117981 1413.571353 " transform="matrix(0.00588086,0,0,0.00595927,0.140625,1.037083)"/>
<path style="fill-rule:nonzero;fill:rgb(95.686275%,77.254903%,23.921569%);fill-opacity:1;stroke-width:10;stroke-linecap:butt;stroke-linejoin:miter;stroke:rgb(0.392157%,0%,0.784314%);stroke-opacity:1;stroke-miterlimit:10;" d="M 2056.459745 2282.097325 C 2056.459745 2282.097325 2038.525503 2360.756281 1976.752003 2354.856859 C 1976.752003 2354.856859 1932.912745 2350.26842 1935.56967 2277.508886 C 1935.56967 2277.508886 1871.139245 2311.594433 1860.511546 2226.380564 C 1860.511546 2226.380564 1801.394971 2240.145882 1802.059202 2160.175943 C 1802.059202 2160.175943 1746.928014 2169.352821 1753.570326 2098.559761 C 1753.570326 2098.559761 1693.789519 2114.291552 1693.789519 2047.431439 C 1693.789519 2047.431439 1554.30097 2024.489244 1845.234229 1759.015268 L 2104.948622 1913.711214 Z M 2056.459745 2282.097325 " transform="matrix(0.00588086,0,0,0.00595927,0.140625,1.037083)"/>
<path style="fill-rule:nonzero;fill:rgb(95.686275%,77.254903%,23.921569%);fill-opacity:1;stroke-width:10;stroke-linecap:butt;stroke-linejoin:miter;stroke:rgb(0.392157%,0%,0.784314%);stroke-opacity:1;stroke-miterlimit:4;" d="M 2085.685917 1928.132023 C 2085.685917 1928.132023 2041.846659 1966.80601 2011.292025 1909.122775 C 2011.292025 1909.122775 1969.44546 1907.156301 1962.803148 1875.692719 C 1962.803148 1875.692719 1928.927358 1872.415262 1922.285046 1839.640697 C 1922.285046 1839.640697 1875.788863 1835.052258 1877.117326 1795.72278 C 1877.117326 1795.72278 1792.095734 1789.167867 1877.117326 1692.810646 C 1961.474686 1597.108917 2104.948622 1852.095032 2104.948622 1852.095032 Z M 2133.510563 1904.534336 C 2175.357127 1904.534336 2223.181772 2166.730856 2210.56138 2324.704259 C 2206.575993 2381.732002 2175.357127 2428.271885 2133.510563 2428.271885 C 2091.663998 2428.271885 2061.109364 2381.732002 2056.459745 2324.704259 C 2044.503584 2166.730856 2091.663998 1904.534336 2133.510563 1904.534336 " transform="matrix(0.00588086,0,0,0.00595927,0.140625,1.037083)"/>
<path style="fill-rule:nonzero;fill:rgb(95.686275%,77.254903%,23.921569%);fill-opacity:1;stroke-width:10;stroke-linecap:butt;stroke-linejoin:miter;stroke:rgb(0.392157%,0%,0.784314%);stroke-opacity:1;stroke-miterlimit:4;" d="M 2191.298676 1902.567862 C 2191.298676 1854.716997 2165.393659 1816.698502 2133.510563 1816.698502 C 2101.627466 1816.698502 2075.72245 1854.716997 2075.72245 1902.567862 C 2075.72245 1949.763236 2101.627466 1988.437222 2133.510563 1988.437222 C 2165.393659 1988.437222 2191.298676 1949.763236 2191.298676 1902.567862 Z M 2191.298676 1902.567862 " transform="matrix(0.00588086,0,0,0.00595927,0.140625,1.037083)"/>
<path style="fill:none;stroke-width:10;stroke-linecap:butt;stroke-linejoin:miter;stroke:rgb(0.392157%,0%,0.784314%);stroke-opacity:1;stroke-miterlimit:10;" d="M 1935.56967 2277.508886 C 1935.56967 2277.508886 1942.211982 2138.54473 2062.437826 1939.930866 M 1860.511546 2226.380564 C 1860.511546 2226.380564 1841.913073 2146.410626 2011.292025 1909.122775 C 2011.292025 1909.122775 1991.365089 1852.750523 2051.810127 1816.698502 M 1802.059202 2160.175943 C 1802.059202 2160.175943 1796.745352 2072.9956 1962.803148 1875.692719 C 1962.803148 1875.692719 1948.190062 1824.564398 2007.970869 1783.923937 M 1753.570326 2098.559761 C 1753.570326 2098.559761 1760.212637 2010.723927 1922.285046 1839.640697 C 1922.285046 1839.640697 1914.314272 1787.201393 1972.102385 1754.426828 M 1693.789519 2047.431439 C 1693.789519 2047.431439 1705.74568 1947.141271 1877.117326 1795.72278 C 1877.117326 1795.72278 1871.139245 1756.393302 1928.263127 1716.408333 " transform="matrix(0.00588086,0,0,0.00595927,0.140625,1.037083)"/>
<path style="fill:none;stroke-width:10;stroke-linecap:butt;stroke-linejoin:miter;stroke:rgb(0.392157%,0%,0.784314%);stroke-opacity:1;stroke-miterlimit:4;" d="M 371.969463 432.300877 C 371.969463 432.300877 506.808394 509.64885 925.27404 587.652315 M 431.75027 539.145959 C 431.75027 539.145959 795.748959 657.789884 965.127911 672.210693 M 575.224206 672.210693 C 575.224206 672.210693 788.442416 739.070805 1038.193341 781.67774 M 757.22355 811.83034 C 757.22355 811.83034 998.33947 869.513574 1113.251464 879.345943 M 919.295959 925.885826 C 919.295959 925.885826 1123.214932 967.837269 1174.360733 973.081199 M 1048.82104 1030.764434 C 1048.82104 1030.764434 1197.608825 1053.051138 1256.7254 1051.740155 M 1233.477309 1121.222233 C 1233.477309 1121.222233 1293.922346 1117.944776 1322.484287 1113.356337 M 1289.272728 1217.579454 C 1289.272728 1217.579454 1340.418529 1203.814137 1370.308933 1184.804889 M 1364.995083 1317.869623 C 1364.995083 1317.869623 1404.184723 1302.793323 1422.783196 1260.84188 M 1460.644374 1354.577136 C 1460.644374 1354.577136 1491.199008 1327.701992 1493.191702 1296.893901 M 1574.892137 1378.174822 C 1574.892137 1378.174822 1563.600207 1368.342453 1570.90675 1325.735518 M 1560.279051 1262.808354 C 1560.279051 1262.808354 1554.30097 1251.00951 1556.293664 1231.344771 M 1345.068148 649.923989 C 1345.068148 649.923989 1414.148191 677.454623 1436.732051 715.473118 C 1459.980142 753.491614 1444.702825 790.854618 1436.732051 811.83034 C 1432.746664 822.3182 1384.257787 916.053456 1441.381669 983.56906 M 1345.732379 1056.984086 C 1345.732379 1056.984086 1346.39661 1056.984086 1370.308933 1049.11819 M 1200.929981 957.349408 C 1200.929981 957.349408 1242.112314 965.870795 1281.966185 966.526286 M 1143.806099 856.403748 C 1143.806099 856.403748 1192.294975 860.992187 1237.462696 860.336696 M 1072.069131 750.869649 C 1072.069131 750.869649 1141.813405 764.634966 1179.010352 765.290457 M 1014.945249 632.881215 C 1014.945249 632.881215 1100.631072 657.134393 1164.397266 666.311271 M 1305.878508 716.784101 C 1305.878508 716.784101 1244.105008 773.811844 1318.4989 826.906639 C 1318.4989 826.906639 1287.280035 875.412996 1349.053535 925.885826 M 1332.447755 949.483512 C 1332.447755 949.483512 1323.148519 1041.907786 1436.06782 1041.907786 C 1436.06782 1041.907786 1414.812422 1123.844198 1523.082105 1121.222233 C 1523.082105 1121.222233 1535.702497 1186.771363 1614.081777 1173.661537 M 1441.381669 1894.701967 C 1441.381669 1894.701967 1423.447427 1899.290406 1384.922019 1894.701967 M 1275.988104 1943.208323 C 1275.988104 1943.208323 1221.521147 1934.686936 1224.178072 2053.330861 M 1308.535432 1970.083466 C 1308.535432 1970.083466 1259.382325 1964.184044 1262.703481 2078.895022 M 1783.460729 1694.121629 C 1783.460729 1694.121629 1759.548406 1698.710068 1743.606858 1717.719316 C 1727.001078 1736.073072 1695.782213 1732.795616 1695.782213 1732.795616 C 1695.782213 1732.795616 1712.387992 1719.030298 1718.366073 1684.289259 C 1724.344153 1650.203712 1743.606858 1639.715851 1743.606858 1639.715851 M 1687.147207 1606.941286 C 1687.147207 1606.941286 1663.899116 1611.529725 1647.293336 1630.538973 C 1630.687557 1648.892729 1599.468691 1645.615273 1599.468691 1645.615273 C 1599.468691 1645.615273 1616.074471 1631.849955 1622.052551 1597.108917 C 1628.030632 1563.023369 1647.293336 1552.535508 1647.293336 1552.535508 M 1671.205659 1740.661511 C 1671.205659 1740.661511 1650.614492 1745.24995 1636.001406 1760.981741 C 1621.38832 1777.369024 1594.154841 1774.747059 1594.154841 1774.747059 C 1594.154841 1774.747059 1609.432159 1762.292724 1614.081777 1732.140124 C 1619.395626 1701.987525 1636.001406 1693.466138 1636.001406 1693.466138 " transform="matrix(0.00588086,0,0,0.00595927,0.140625,1.037083)"/>
<path style="fill-rule:nonzero;fill:rgb(95.686275%,77.254903%,23.921569%);fill-opacity:1;stroke-width:10;stroke-linecap:butt;stroke-linejoin:miter;stroke:rgb(0.392157%,0%,0.784314%);stroke-opacity:1;stroke-miterlimit:4;" d="M 1495.184476 1808.177115 C 1495.184476 1808.177115 1445.367137 1893.390984 1384.9221 1894.701967 C 1384.9221 1894.701967 1281.302035 1882.247632 1252.075863 1909.122775 C 1231.484696 1928.132023 1210.229298 1943.863814 1201.594293 1992.37017 C 1193.623519 2040.221035 1218.200073 2050.708896 1224.178153 2052.67537 C 1224.178153 2052.67537 1228.827772 2087.416409 1262.703562 2078.239531 C 1262.703562 2078.239531 1264.696255 2114.291552 1325.141293 2097.248778 C 1385.586331 2080.206004 1410.162885 2085.449935 1422.119046 2025.144735 C 1434.075207 1965.495027 1444.702906 1966.150518 1455.330605 1958.940114 C 1469.943691 1949.107744 1497.17717 1940.586358 1517.104105 1928.787514 C 1535.038347 1918.299653 1604.11839 1882.903123 1628.030713 1880.281158 C 1651.278804 1877.659193 1646.629186 1798.344746 1646.629186 1798.344746 L 1585.519917 1798.344746 L 1555.629514 1754.426828 Z M 1687.147288 1378.174822 C 1687.147288 1378.174822 1626.038019 1427.992161 1574.892218 1378.174822 C 1574.892218 1378.174822 1554.301052 1403.083492 1513.118718 1395.873088 C 1471.272154 1388.662683 1464.629842 1367.03147 1460.644455 1354.577136 C 1460.644455 1354.577136 1424.775971 1375.552857 1394.885567 1359.165575 C 1364.995164 1342.778292 1364.995164 1317.869623 1364.995164 1317.869623 C 1364.995164 1317.869623 1312.520901 1328.357484 1285.287422 1292.305462 C 1258.718175 1256.908932 1274.659723 1221.512402 1289.272809 1217.579454 C 1289.272809 1217.579454 1232.813159 1232.655754 1216.87161 1183.493906 C 1208.900836 1161.207202 1215.543148 1136.298533 1233.47739 1121.222233 C 1233.47739 1121.222233 1113.915777 1120.566742 1065.4269 1083.203738 C 1065.4269 1083.203738 1024.244567 1057.639577 1048.821121 1030.764434 C 1048.821121 1030.764434 941.215669 1013.066169 914.646422 970.459234 C 914.646422 970.459234 902.69026 958.660391 906.675647 937.684669 C 906.675647 937.684669 907.339879 926.541317 919.29604 925.885826 C 919.29604 925.885826 796.413271 906.876578 761.209018 866.236117 C 761.209018 866.236117 743.939007 847.882361 752.574013 822.973692 C 752.574013 822.973692 754.566706 816.418779 757.223631 811.83034 C 757.223631 811.83034 645.632792 788.232653 590.501604 738.415314 C 590.501604 738.415314 558.618507 710.229188 575.224287 672.210693 C 575.224287 672.210693 388.575324 621.082371 431.750351 539.145959 C 431.750351 539.145959 344.736066 510.959833 371.969545 432.300877 C 371.969545 432.300877 300.232577 395.593364 331.451442 337.254639 C 362.006077 282.193369 454.334211 347.087008 563.268125 377.239608 C 563.268125 377.239608 860.179465 470.319372 1005.646094 495.228042 L 1420.790584 1112.700846 L 1662.570734 1205.780611 Z M 1687.147288 1378.174822 " transform="matrix(-0.00588086,0,0,0.00595927,25.140625,1.037083)"/>
<path style="fill-rule:nonzero;fill:rgb(95.686275%,77.254903%,23.921569%);fill-opacity:1;stroke-width:10;stroke-linecap:butt;stroke-linejoin:miter;stroke:rgb(0.392157%,0%,0.784314%);stroke-opacity:1;stroke-miterlimit:4;" d="M 1689.804213 923.919352 C 1689.804213 923.919352 1651.278804 894.422243 1581.53453 929.163282 C 1581.53453 929.163282 1558.286439 944.895073 1539.687965 927.196808 C 1531.717191 919.986404 1527.731804 908.843052 1528.396035 897.6997 C 1529.060267 886.556348 1535.038347 876.723978 1544.337584 870.169065 C 1596.147616 831.495079 1615.41032 716.784101 1536.36681 668.933236 C 1536.36681 668.933236 1422.783277 601.417632 1004.317631 495.228042 C 1004.317631 495.228042 969.113379 485.395672 950.514906 489.984111 C 931.916432 494.57255 917.303346 508.993359 912.653728 528.002607 C 912.653728 528.002607 894.055255 581.097402 957.157217 611.905493 C 957.157217 611.905493 985.719158 624.359828 1014.94533 632.881215 C 1014.94533 632.881215 982.398002 626.326302 968.449148 657.789884 C 955.828755 687.942484 974.427228 719.406066 1033.543804 739.070805 C 1033.543804 739.070805 1049.485352 745.625718 1072.069212 750.869649 C 1072.069212 750.869649 1021.587642 765.290457 1046.164196 806.586409 C 1046.164196 806.586409 1068.083825 849.193344 1144.470411 856.403748 C 1144.470411 856.403748 1087.346529 862.958661 1127.2004 917.364439 C 1127.2004 917.364439 1145.134642 946.861547 1200.930062 958.004899 C 1200.930062 958.004899 1158.419266 959.315882 1179.674664 997.334377 C 1200.930062 1035.352873 1251.411632 1056.328594 1300.564739 1060.261542 C 1300.564739 1060.261542 1327.133987 1061.572525 1346.396691 1056.984086 C 1346.396691 1056.984086 1299.236277 1080.581772 1326.469756 1119.91125 C 1326.469756 1119.91125 1347.060922 1148.097376 1397.542492 1146.786394 C 1397.542492 1146.786394 1384.9221 1190.704311 1422.119046 1207.091593 C 1450.680987 1220.201419 1475.257541 1199.225698 1475.257541 1199.225698 C 1475.257541 1199.225698 1465.294073 1246.421071 1507.804869 1262.808354 C 1507.804869 1262.808354 1528.396035 1273.951706 1560.279132 1262.808354 C 1560.279132 1262.808354 1584.191455 1317.214132 1669.877277 1279.195636 C 1755.5631 1241.177141 1689.804213 923.919352 1689.804213 923.919352 Z M 1695.118062 1413.571353 C 1695.118062 1413.571353 1682.49767 1480.431465 1582.862992 1565.645334 C 1582.862992 1565.645334 1505.812175 1633.160938 1507.804869 1711.164403 C 1509.797562 1790.47885 1494.520245 1799.655728 1463.965611 1826.530871 C 1463.965611 1826.530871 1526.403342 1831.119311 1556.293745 1789.823359 C 1556.293745 1789.823359 1554.965283 1858.649945 1546.330277 1865.204858 C 1546.330277 1865.204858 1565.592982 1866.515841 1594.154923 1835.70775 C 1594.154923 1835.70775 1610.760702 1817.353993 1626.702251 1810.79908 C 1626.702251 1810.79908 1608.103777 1857.994454 1622.716863 1902.567862 C 1622.716863 1902.567862 1627.366482 1885.525088 1651.278804 1877.659193 C 1651.278804 1877.659193 1695.782294 1868.482315 1712.388073 1804.899659 C 1712.388073 1804.899659 1723.680003 1762.948215 1792.760046 1725.585211 C 1792.760046 1725.585211 1870.475095 1696.088103 1868.482401 1658.069607 C 1866.489708 1619.395621 1695.118062 1413.571353 1695.118062 1413.571353 Z M 1695.118062 1413.571353 " transform="matrix(-0.00588086,0,0,0.00595927,25.140625,1.037083)"/>
<path style="fill-rule:nonzero;fill:rgb(95.686275%,77.254903%,23.921569%);fill-opacity:1;stroke-width:10;stroke-linecap:butt;stroke-linejoin:miter;stroke:rgb(0.392157%,0%,0.784314%);stroke-opacity:1;stroke-miterlimit:10;" d="M 2056.459826 2282.097325 C 2056.459826 2282.097325 2038.525584 2360.756281 1976.752084 2354.856859 C 1976.752084 2354.856859 1932.912826 2350.26842 1935.569751 2277.508886 C 1935.569751 2277.508886 1871.139326 2311.594433 1860.511627 2226.380564 C 1860.511627 2226.380564 1801.395052 2240.145882 1802.059283 2160.175943 C 1802.059283 2160.175943 1746.928095 2169.352821 1753.570407 2098.559761 C 1753.570407 2098.559761 1693.7896 2114.291552 1693.7896 2047.431439 C 1693.7896 2047.431439 1554.301052 2024.489244 1845.23431 1759.015268 L 2104.948703 1913.711214 Z M 2056.459826 2282.097325 " transform="matrix(-0.00588086,0,0,0.00595927,25.140625,1.037083)"/>
<path style="fill-rule:nonzero;fill:rgb(95.686275%,77.254903%,23.921569%);fill-opacity:1;stroke-width:10;stroke-linecap:butt;stroke-linejoin:miter;stroke:rgb(0.392157%,0%,0.784314%);stroke-opacity:1;stroke-miterlimit:4;" d="M 2085.685998 1928.132023 C 2085.685998 1928.132023 2041.84674 1966.80601 2011.292106 1909.122775 C 2011.292106 1909.122775 1969.445541 1907.156301 1962.803229 1875.692719 C 1962.803229 1875.692719 1928.927439 1872.415262 1922.285127 1839.640697 C 1922.285127 1839.640697 1875.788944 1835.052258 1877.117407 1795.72278 C 1877.117407 1795.72278 1792.095815 1789.167867 1877.117407 1692.810646 C 1961.474767 1597.108917 2104.948703 1852.095032 2104.948703 1852.095032 Z M 2133.510644 1904.534336 C 2175.357208 1904.534336 2223.181854 2166.730856 2210.561461 2324.704259 C 2206.576074 2381.732002 2175.357208 2428.271885 2133.510644 2428.271885 C 2091.664079 2428.271885 2061.109445 2381.732002 2056.459826 2324.704259 C 2044.503665 2166.730856 2091.664079 1904.534336 2133.510644 1904.534336 " transform="matrix(-0.00588086,0,0,0.00595927,25.140625,1.037083)"/>
<path style="fill-rule:nonzero;fill:rgb(95.686275%,77.254903%,23.921569%);fill-opacity:1;stroke-width:10;stroke-linecap:butt;stroke-linejoin:miter;stroke:rgb(0.392157%,0%,0.784314%);stroke-opacity:1;stroke-miterlimit:4;" d="M 2191.298757 1902.567862 C 2191.298757 1854.716997 2165.393741 1816.698502 2133.510644 1816.698502 C 2101.627547 1816.698502 2075.722531 1854.716997 2075.722531 1902.567862 C 2075.722531 1949.763236 2101.627547 1988.437222 2133.510644 1988.437222 C 2165.393741 1988.437222 2191.298757 1949.763236 2191.298757 1902.567862 Z M 2191.298757 1902.567862 " transform="matrix(-0.00588086,0,0,0.00595927,25.140625,1.037083)"/>
<path style="fill:none;stroke-width:10;stroke-linecap:butt;stroke-linejoin:miter;stroke:rgb(0.392157%,0%,0.784314%);stroke-opacity:1;stroke-miterlimit:10;" d="M 1935.569751 2277.508886 C 1935.569751 2277.508886 1942.212063 2138.54473 2062.437907 1939.930866 M 1860.511627 2226.380564 C 1860.511627 2226.380564 1841.913154 2146.410626 2011.292106 1909.122775 C 2011.292106 1909.122775 1991.36517 1852.750523 2051.810208 1816.698502 M 1802.059283 2160.175943 C 1802.059283 2160.175943 1796.745434 2072.9956 1962.803229 1875.692719 C 1962.803229 1875.692719 1948.190143 1824.564398 2007.97095 1783.923937 M 1753.570407 2098.559761 C 1753.570407 2098.559761 1760.212718 2010.723927 1922.285127 1839.640697 C 1922.285127 1839.640697 1914.314353 1787.201393 1972.102466 1754.426828 M 1693.7896 2047.431439 C 1693.7896 2047.431439 1705.745761 1947.141271 1877.117407 1795.72278 C 1877.117407 1795.72278 1871.139326 1756.393302 1928.263208 1716.408333 " transform="matrix(-0.00588086,0,0,0.00595927,25.140625,1.037083)"/>
<path style="fill:none;stroke-width:10;stroke-linecap:butt;stroke-linejoin:miter;stroke:rgb(0.392157%,0%,0.784314%);stroke-opacity:1;stroke-miterlimit:4;" d="M 371.969545 432.300877 C 371.969545 432.300877 506.808475 509.64885 925.274121 587.652315 M 431.750351 539.145959 C 431.750351 539.145959 795.74904 657.789884 965.127992 672.210693 M 575.224287 672.210693 C 575.224287 672.210693 788.442497 739.070805 1038.193422 781.67774 M 757.223631 811.83034 C 757.223631 811.83034 998.339551 869.513574 1113.251546 879.345943 M 919.29604 925.885826 C 919.29604 925.885826 1123.215013 967.837269 1174.360814 973.081199 M 1048.821121 1030.764434 C 1048.821121 1030.764434 1197.608906 1053.051138 1256.725481 1051.740155 M 1233.47739 1121.222233 C 1233.47739 1121.222233 1293.922428 1117.944776 1322.484368 1113.356337 M 1289.272809 1217.579454 C 1289.272809 1217.579454 1340.41861 1203.814137 1370.309014 1184.804889 M 1364.995164 1317.869623 C 1364.995164 1317.869623 1404.184804 1302.793323 1422.783277 1260.84188 M 1460.644455 1354.577136 C 1460.644455 1354.577136 1491.199089 1327.701992 1493.191783 1296.893901 M 1574.892218 1378.174822 C 1574.892218 1378.174822 1563.600288 1368.342453 1570.906831 1325.735518 M 1560.279132 1262.808354 C 1560.279132 1262.808354 1554.301052 1251.00951 1556.293745 1231.344771 M 1345.068229 649.923989 C 1345.068229 649.923989 1414.148272 677.454623 1436.732132 715.473118 C 1459.980223 753.491614 1444.702906 790.854618 1436.732132 811.83034 C 1432.746745 822.3182 1384.257869 916.053456 1441.38175 983.56906 M 1345.73246 1056.984086 C 1345.73246 1056.984086 1346.396691 1056.984086 1370.309014 1049.11819 M 1200.930062 957.349408 C 1200.930062 957.349408 1242.112395 965.870795 1281.966266 966.526286 M 1143.80618 856.403748 C 1143.80618 856.403748 1192.295056 860.992187 1237.462777 860.336696 M 1072.069212 750.869649 C 1072.069212 750.869649 1141.813486 764.634966 1179.010433 765.290457 M 1014.94533 632.881215 C 1014.94533 632.881215 1100.631153 657.134393 1164.397347 666.311271 M 1305.878589 716.784101 C 1305.878589 716.784101 1244.105089 773.811844 1318.498981 826.906639 C 1318.498981 826.906639 1287.280116 875.412996 1349.053616 925.885826 M 1332.447836 949.483512 C 1332.447836 949.483512 1323.1486 1041.907786 1436.067901 1041.907786 C 1436.067901 1041.907786 1414.812503 1123.844198 1523.082186 1121.222233 C 1523.082186 1121.222233 1535.702578 1186.771363 1614.081858 1173.661537 M 1441.38175 1894.701967 C 1441.38175 1894.701967 1423.447508 1899.290406 1384.9221 1894.701967 M 1275.988186 1943.208323 C 1275.988186 1943.208323 1221.521229 1934.686936 1224.178153 2053.330861 M 1308.535514 1970.083466 C 1308.535514 1970.083466 1259.382406 1964.184044 1262.703562 2078.895022 M 1783.46081 1694.121629 C 1783.46081 1694.121629 1759.548487 1698.710068 1743.606939 1717.719316 C 1727.001159 1736.073072 1695.782294 1732.795616 1695.782294 1732.795616 C 1695.782294 1732.795616 1712.388073 1719.030298 1718.366154 1684.289259 C 1724.344235 1650.203712 1743.606939 1639.715851 1743.606939 1639.715851 M 1687.147288 1606.941286 C 1687.147288 1606.941286 1663.899197 1611.529725 1647.293417 1630.538973 C 1630.687638 1648.892729 1599.468772 1645.615273 1599.468772 1645.615273 C 1599.468772 1645.615273 1616.074552 1631.849955 1622.052632 1597.108917 C 1628.030713 1563.023369 1647.293417 1552.535508 1647.293417 1552.535508 M 1671.20574 1740.661511 C 1671.20574 1740.661511 1650.614573 1745.24995 1636.001487 1760.981741 C 1621.388401 1777.369024 1594.154923 1774.747059 1594.154923 1774.747059 C 1594.154923 1774.747059 1609.43224 1762.292724 1614.081858 1732.140124 C 1619.395708 1701.987525 1636.001487 1693.466138 1636.001487 1693.466138 " transform="matrix(-0.00588086,0,0,0.00595927,25.140625,1.037083)"/>
<path style="fill-rule:nonzero;fill:rgb(0%,50.588238%,77.64706%);fill-opacity:1;stroke-width:1.5;stroke-linecap:butt;stroke-linejoin:miter;stroke:rgb(0.392157%,0%,0.784314%);stroke-opacity:1;stroke-miterlimit:10;" d="M 466 255.986842 L 451.7 317.664474 L 445.8 313.519737 L 459.8 254.309211 L 450 254.506579 L 473.1 212.171053 L 474.6 260.921053 Z M 503 269.013158 L 460 319.835526 L 455.4 314.605263 L 498.2 264.375 L 489.5 259.835526 L 528.7 233.782895 L 508.4 277.598684 Z M 503 269.013158 " transform="matrix(0.0390625,0,0,0.0395833,0,0)"/>
<path style="fill-rule:nonzero;fill:rgb(0%,50.588238%,77.64706%);fill-opacity:1;stroke-width:1.5;stroke-linecap:butt;stroke-linejoin:miter;stroke:rgb(0.392157%,0%,0.784314%);stroke-opacity:1;stroke-miterlimit:10;" d="M 492.6 241.973684 L 454.1 315.986842 L 448.2 312.532895 L 486.9 238.717105 L 477.5 236.348684 L 510.2 201.710526 L 499.7 249.177632 Z M 444.6 338.585526 L 441.7 350.328947 L 449.7 358.322368 L 438.5 405.296053 L 428.5 391.973684 L 413.9 398.782895 L 425 351.809211 L 435.4 348.848684 L 438 337.105263 C 438 337.105263 441.2 335.921053 444.6 338.585526 Z M 444.6 338.585526 " transform="matrix(0.0390625,0,0,0.0395833,0,0)"/>
<path style="fill-rule:nonzero;fill:rgb(0%,50.588238%,77.64706%);fill-opacity:1;stroke-width:1.5;stroke-linecap:butt;stroke-linejoin:miter;stroke:rgb(0.392157%,0%,0.784314%);stroke-opacity:1;stroke-miterlimit:10;" d="M 447.3 330.789474 L 441.6 341.447368 L 447.3 351.118421 L 424.9 393.552632 L 418.6 377.960526 L 402.7 380.625 L 425.1 338.190789 L 435.8 338.190789 L 441.3 327.631579 C 441.3 327.631579 445.3 327.631579 447.3 330.789474 Z M 447.3 330.789474 " transform="matrix(0.0390625,0,0,0.0395833,0,0)"/>
<path style="fill-rule:nonzero;fill:rgb(0%,50.588238%,77.64706%);fill-opacity:1;stroke-width:1.5;stroke-linecap:butt;stroke-linejoin:miter;stroke:rgb(0.392157%,0%,0.784314%);stroke-opacity:1;stroke-miterlimit:10;" d="M 448.2 333.947368 L 433.2 353.092105 L 436.6 363.947368 L 405.7 399.868421 L 402.9 383.289474 L 386.9 382.105263 L 417.7 346.085526 L 428.1 348.552632 L 444.1 328.223684 C 444.1 328.223684 448.5 330.394737 448.2 333.947368 Z M 65.5 288.947368 C 69.1 287.368421 71.7 285.986842 71.7 282.236842 C 71.7 281.151316 71.2 279.177632 70.2 276.118421 L 46 202.006579 C 45.2 199.342105 44.2 196.677632 43 194.111842 C 41.9 192.138158 39.8 191.151316 36.9 190.065789 L 67.6 190.065789 C 64.3 191.644737 61.2 192.828947 61.3 196.381579 C 61.3 197.763158 61.7 199.638158 62.4 202.105263 L 81 260.131579 L 99.5 202.105263 C 100.1 200.230263 100.5 198.355263 100.6 196.381579 C 100.6 192.730263 97.4 191.447368 94.3 189.967105 L 124.1 189.967105 C 121.4 191.052632 119.1 192.039474 118.1 194.111842 C 116.9 196.677632 115.9 199.342105 115 202.105263 L 90.8 276.019737 C 90.1 277.993421 89.6 280.065789 89.3 282.138158 C 89.3 282.138158 88.2 286.776316 95.5 288.848684 Z M 580.8 281.348684 L 580.8 197.565789 C 580.8 196.184211 580.5 195.098684 580 194.309211 C 579.2 193.125 577.5 191.348684 574.5 190.065789 L 602.2 190.065789 C 600 190.953947 598.1 192.434211 596.7 194.309211 C 596.2 195.098684 596 196.184211 596 197.565789 L 596 281.348684 C 596 282.730263 596.2 283.914474 596.7 284.703947 C 597.2 285.493421 599.2 287.467105 602.2 288.947368 L 574.5 288.947368 C 577.5 287.467105 579.5 285.493421 580 284.703947 C 580.5 283.914474 580.8 282.730263 580.8 281.348684 Z M 580.8 281.348684 " transform="matrix(0.0390625,0,0,0.0395833,0,0)"/>
<path style="fill-rule:nonzero;fill:rgb(100%,100%,100%);fill-opacity:1;stroke-width:1.5;stroke-linecap:butt;stroke-linejoin:miter;stroke:rgb(0.392157%,0%,0.784314%);stroke-opacity:1;stroke-miterlimit:4;" d="M 324.8 309.769737 C 324.8 309.769737 399 276.907895 399.1 201.019737 L 250.5 201.019737 C 250.7 277.006579 324.8 309.769737 324.8 309.769737 Z M 324.8 309.769737 " transform="matrix(0.0390625,0,0,0.0395833,0,0)"/>
<path style="fill-rule:nonzero;fill:rgb(65.098041%,0%,19.607843%);fill-opacity:1;stroke-width:1.5;stroke-linecap:butt;stroke-linejoin:miter;stroke:rgb(0.392157%,0%,0.784314%);stroke-opacity:1;stroke-miterlimit:4;" d="M 262 201.019737 L 262 249.473684 C 262 249.473684 267.6 260.822368 273.4 267.828947 L 273.4 201.019737 Z M 284.8 201.019737 L 284.8 280.953947 C 284.8 280.953947 292 287.960526 296.2 291.414474 L 296.2 201.019737 Z M 307.7 201.019737 L 307.7 299.901316 C 307.7 299.901316 315.8 305.131579 319.1 306.907895 L 319.1 200.921053 L 307.7 200.921053 Z M 387.7 201.019737 L 387.7 249.473684 C 387.7 249.473684 382 260.822368 376.2 267.828947 L 376.2 201.019737 Z M 364.8 201.019737 L 364.8 280.953947 C 364.8 280.953947 357.7 287.960526 353.4 291.414474 L 353.4 201.019737 Z M 342 201.019737 L 342 299.901316 C 342 299.901316 333.8 305.131579 330.5 306.907895 L 330.5 200.921053 L 342 200.921053 Z M 342 201.019737 " transform="matrix(0.0390625,0,0,0.0395833,0,0)"/>
<path style="fill-rule:nonzero;fill:rgb(8.627451%,14.901961%,40.392157%);fill-opacity:1;stroke-width:1.5;stroke-linecap:butt;stroke-linejoin:miter;stroke:rgb(0.392157%,0%,0.784314%);stroke-opacity:1;stroke-miterlimit:10;" d="M 399.1 145.756579 C 399.1 145.756579 362.7 164.802632 324.8 144.177632 C 286.9 164.802632 250.5 145.756579 250.5 145.756579 L 250.5 201.019737 L 399.1 201.019737 Z M 399.1 145.756579 " transform="matrix(0.0390625,0,0,0.0395833,0,0)"/>
</g>
</svg>
