<svg xmlns="http://www.w3.org/2000/svg" width="25" height="px" viewBox="0 0 25 19"><defs><clipPath id="a"><path d="M0 0v19l11.668-7.8H25V7.8H11.668Zm0 0"/></clipPath></defs><path d="M0 0h25v19H0z" style="fill:#009543;fill-opacity:1;stroke:none"/><path d="M0 0h25v9.5H0Zm0 0" style="stroke:none;fill-rule:nonzero;fill:#d21034;fill-opacity:1"/><g clip-path="url(#a)"><path d="m0 0 420.048 195.019H900v84.96H420.048L0 475" style="fill-rule:nonzero;fill:#000;fill-opacity:1;stroke-width:110;stroke-linecap:butt;stroke-linejoin:miter;stroke:#fdce12;stroke-opacity:1;stroke-miterlimit:4" transform="scale(.02778 .04)"/><path d="m0 0 420.048 195.019H900m0 84.96H420.048L0 475" style="fill:none;stroke-width:60;stroke-linecap:butt;stroke-linejoin:miter;stroke:#000;stroke-opacity:1;stroke-miterlimit:4" transform="scale(.02778 .04)"/></g><path d="M3.36 11.32v1.078c.93 0 2.753-.718 2.753-3.043 0-2.324-1.949-2.753-2.527-2.753-.582 0-2.379.421-2.379 2.32 0 1.902 1.762 2.078 2.11 2.078s1.652-.32 1.5-1.742a1.405 1.405 0 0 1-1.399 1.258c-.945 0-1.54-.711-1.54-1.414 0-.707.579-1.649 1.579-1.649.996 0 1.727.899 1.727 1.805 0 .902-.704 2.058-1.825 2.058Zm0 0" style="stroke:none;fill-rule:nonzero;fill:#fdce12;fill-opacity:1"/><path d="m86.192 247.655 1.386 1.075s11.182-25.489 41.166-43.653c-3.859 2.051-23.849 12.012-42.552 42.578Zm0 0" style="fill-rule:nonzero;fill:#fdce12;fill-opacity:1;stroke-width:.8;stroke-linecap:butt;stroke-linejoin:miter;stroke:#fdce12;stroke-opacity:1;stroke-miterlimit:4" transform="matrix(.03947 0 0 .04 -.86 0)"/><path d="M2.656 9.73s-.133-.277-.015-.406c.12-.129.07.332.07.332l.05-.078s-.081-.344.009-.414c.085-.07.046.332.046.332l.055-.07s-.058-.336.027-.403c.086-.062.036.32.036.32l.062-.077s-.047-.32.059-.399c.11-.074.011.305.011.305l.075-.078s-.032-.293.058-.364c.09-.062.016.282.016.282l.062-.07s-.02-.274.067-.337c.086-.066.008.258.008.258l.066-.062s-.016-.278.098-.328c.109-.051-.02.254-.02.254l.078-.063s.02-.32.114-.348c.093-.03-.04.282-.04.282l.067-.059s.035-.27.14-.305-.066.25-.066.25l.07-.05s.075-.274.172-.305c.094-.027-.101.258-.101.258l.066-.047s.106-.246.195-.266c.086-.015-.101.207-.101.207l.082-.05s.14-.254.191-.18c.051.078-.199.195-.199.195l-.078.05s.297-.144.332-.073c.035.074-.406.12-.406.12l-.07.048s.296-.079.257-.004c-.035.078-.328.062-.328.062l-.07.047s.297-.07.258 0c-.04.063-.329.059-.329.059l-.07.062s.29-.082.246.012c-.043.09-.37.082-.37.082l-.079.082s.3-.11.273-.023c-.023.078-.37.117-.37.117l-.079.082s.328-.11.23-.008c-.097.101-.335.129-.335.129l-.09.117s.32-.2.273-.086c-.046.11-.363.188-.363.188l-.062.078s.293-.172.261-.078c-.027.097-.34.199-.34.199l-.05.07s.343-.207.316-.098c-.031.106-.36.18-.36.18l-.038.067s.312-.188.312-.094c.008.086-.37.176-.37.176Zm0 0" style="stroke:none;fill-rule:nonzero;fill:#fdce12;fill-opacity:1"/><path d="m86.209 247.655 1.385 1.075s11.182-25.489 41.068-43.653c-3.76 2.051-23.75 12.012-42.453 42.578Zm0 0" style="fill-rule:nonzero;fill:#fdce12;fill-opacity:1;stroke-width:.8;stroke-linecap:butt;stroke-linejoin:miter;stroke:#fdce12;stroke-opacity:1;stroke-miterlimit:4" transform="matrix(-.03947 0 0 .04 7.825 0)"/><path d="M4.309 9.73s.132-.277.015-.406-.066.332-.066.332l-.051-.078s.078-.344-.012-.414c-.086-.07-.047.332-.047.332l-.054-.07s.058-.336-.028-.403c-.086-.062-.035.32-.035.32l-.062-.077s.047-.32-.059-.399c-.11-.074-.012.305-.012.305l-.074-.078s.035-.293-.058-.364c-.09-.062-.016.282-.016.282l-.062-.07s.019-.274-.067-.337c-.086-.066-.008.258-.008.258l-.066-.062s.015-.278-.098-.328c-.11-.051.024.254.024.254l-.082-.063s-.02-.32-.114-.348c-.093-.03.04.282.04.282l-.067-.059s-.035-.27-.137-.305c-.11-.035.063.25.063.25l-.067-.05s-.078-.274-.175-.305c-.094-.027.101.258.101.258L2.97 8.34s-.106-.246-.196-.266c-.086-.015.102.207.102.207l-.082-.05s-.14-.254-.191-.18c-.051.078.199.195.199.195l.078.05s-.297-.144-.332-.073c-.035.074.406.12.406.12l.07.048s-.293-.079-.257-.004c.035.078.332.062.332.062l.066.047s-.297-.07-.258 0c.04.063.328.059.328.059l.07.062s-.288-.082-.245.012c.046.09.37.082.37.082l.083.082s-.305-.11-.278-.023c.024.078.371.117.371.117l.079.082s-.329-.11-.227-.008c.094.101.332.129.332.129l.094.117s-.324-.2-.278-.086c.047.11.364.188.364.188l.062.078s-.293-.172-.261-.078c.027.097.34.199.34.199l.05.07s-.344-.207-.312-.098c.03.106.359.18.359.18l.04.067s-.317-.188-.317-.094c-.008.086.37.176.37.176Zm0 0" style="stroke:none;fill-rule:nonzero;fill:#fdce12;fill-opacity:1"/></svg>