<?xml version="1.0" encoding="UTF-8"?>
<svg xmlns="http://www.w3.org/2000/svg" xmlns:xlink="http://www.w3.org/1999/xlink" width="25px" height="px" viewBox="0 0 25 19" version="1.1">
<g id="surface1">
<rect x="0" y="0" width="25" height="19" style="fill:rgb(80.784315%,6.666667%,14.901961%);fill-opacity:1;stroke:none;"/>
<path style=" stroke:none;fill-rule:evenodd;fill:rgb(0%,16.862746%,49.803922%);fill-opacity:1;" d="M 0 0 L 12.5 0 L 12.5 9.5 L 0 9.5 Z M 0 0 "/>
<path style=" stroke:none;fill-rule:evenodd;fill:rgb(100%,100%,100%);fill-opacity:1;" d="M 7.03125 9.078125 L 6.222656 8.523438 L 5.445312 9.082031 L 5.699219 8.09375 L 4.957031 7.492188 L 5.914062 7.433594 L 6.230469 6.5 L 6.574219 7.449219 L 7.511719 7.476562 L 6.769531 8.121094 Z M 6.890625 2.519531 L 6.242188 2.097656 L 5.617188 2.507812 L 5.789062 1.71875 L 5.21875 1.214844 L 5.976562 1.152344 L 6.257812 0.414062 L 6.546875 1.15625 L 7.292969 1.222656 L 6.71875 1.753906 Z M 4.039062 4.875 L 3.414062 4.441406 L 2.761719 4.875 L 2.964844 4.109375 L 2.375 3.601562 L 3.125 3.5625 L 3.398438 2.808594 L 3.664062 3.558594 L 4.429688 3.601562 L 3.84375 4.097656 Z M 9.765625 4.355469 L 9.164062 3.957031 L 8.578125 4.355469 L 8.75 3.628906 L 8.203125 3.164062 L 8.917969 3.101562 L 9.164062 2.421875 L 9.4375 3.109375 L 10.128906 3.152344 L 9.59375 3.636719 Z M 8.082031 6.070312 L 7.679688 5.820312 L 7.277344 6.078125 L 7.382812 5.59375 L 7.023438 5.265625 L 7.492188 5.226562 L 7.671875 4.765625 L 7.863281 5.226562 L 8.328125 5.265625 L 7.972656 5.59375 Z M 8.082031 6.070312 "/>
</g>
</svg>
