<?xml version="1.0" encoding="UTF-8"?>
<svg xmlns="http://www.w3.org/2000/svg" xmlns:xlink="http://www.w3.org/1999/xlink" width="25px" height="px" viewBox="0 0 25 19" version="1.1">
<g id="surface1">
<rect x="0" y="0" width="25" height="19" style="fill:rgb(14.117648%,29.019609%,64.705884%);fill-opacity:1;stroke:none;"/>
<path style=" stroke:none;fill-rule:nonzero;fill:rgb(81.568629%,65.098041%,31.37255%);fill-opacity:1;" d="M 9.882812 8.898438 C 9.882812 8.898438 9.929688 8.867188 9.945312 8.863281 C 9.960938 8.859375 10.023438 8.839844 10.023438 8.839844 C 10.023438 8.839844 10.0625 8.820312 10.082031 8.820312 C 10.101562 8.820312 10.144531 8.84375 10.160156 8.863281 C 10.175781 8.882812 10.238281 8.917969 10.238281 8.917969 C 10.238281 8.917969 10.285156 8.933594 10.296875 8.917969 C 10.308594 8.902344 10.324219 8.894531 10.347656 8.890625 C 10.367188 8.886719 10.375 8.875 10.371094 8.855469 C 10.367188 8.828125 10.378906 8.820312 10.394531 8.800781 C 10.414062 8.78125 10.445312 8.769531 10.445312 8.769531 C 10.445312 8.769531 10.492188 8.746094 10.496094 8.71875 C 10.5 8.691406 10.546875 8.671875 10.574219 8.667969 C 10.601562 8.667969 10.574219 8.652344 10.644531 8.660156 C 10.710938 8.667969 10.722656 8.644531 10.722656 8.625 C 10.726562 8.605469 10.722656 8.585938 10.765625 8.585938 C 10.808594 8.597656 10.828125 8.589844 10.828125 8.570312 C 10.828125 8.546875 10.867188 8.53125 10.800781 8.515625 C 10.730469 8.496094 10.738281 8.511719 10.730469 8.476562 C 10.730469 8.445312 10.730469 8.449219 10.6875 8.445312 C 10.644531 8.441406 10.664062 8.417969 10.660156 8.394531 C 10.65625 8.371094 10.648438 8.355469 10.636719 8.34375 C 10.625 8.328125 10.601562 8.328125 10.601562 8.304688 C 10.601562 8.28125 10.597656 8.265625 10.574219 8.265625 C 10.546875 8.269531 10.535156 8.261719 10.535156 8.246094 C 10.535156 8.21875 10.546875 8.207031 10.566406 8.207031 C 10.59375 8.199219 10.605469 8.183594 10.605469 8.15625 C 10.597656 8.132812 10.597656 8.082031 10.597656 8.082031 L 10.632812 8.042969 C 10.632812 8.042969 10.734375 7.960938 10.742188 7.945312 C 10.75 7.929688 10.785156 7.917969 10.800781 7.949219 C 10.816406 7.980469 10.824219 7.988281 10.839844 8.003906 C 10.851562 8.019531 10.890625 8.007812 10.898438 7.992188 C 10.90625 7.976562 10.910156 7.917969 10.933594 7.886719 C 10.960938 7.859375 10.972656 7.835938 10.976562 7.8125 C 10.980469 7.78125 10.996094 7.761719 11.023438 7.765625 C 11.046875 7.765625 11.0625 7.730469 11.0625 7.710938 C 11.0625 7.691406 11.078125 7.675781 11.109375 7.664062 C 11.140625 7.660156 11.160156 7.640625 11.171875 7.671875 C 11.183594 7.703125 11.195312 7.699219 11.214844 7.710938 C 11.242188 7.726562 11.265625 7.730469 11.285156 7.722656 C 11.304688 7.707031 11.3125 7.683594 11.335938 7.695312 C 11.359375 7.707031 11.375 7.699219 11.382812 7.667969 L 11.394531 7.59375 C 11.394531 7.59375 11.398438 7.574219 11.4375 7.574219 C 11.476562 7.574219 11.449219 7.546875 11.46875 7.53125 C 11.488281 7.515625 11.492188 7.5 11.519531 7.507812 C 11.546875 7.515625 11.589844 7.496094 11.570312 7.46875 C 11.550781 7.441406 11.5 7.40625 11.527344 7.375 C 11.554688 7.34375 11.566406 7.296875 11.539062 7.289062 C 11.511719 7.285156 11.46875 7.292969 11.464844 7.261719 C 11.460938 7.230469 11.449219 7.207031 11.484375 7.203125 C 11.519531 7.199219 11.570312 7.199219 11.589844 7.183594 C 11.609375 7.167969 11.660156 7.15625 11.660156 7.113281 C 11.660156 7.070312 11.675781 7.0625 11.683594 7.035156 C 11.691406 7.007812 11.6875 6.953125 11.664062 6.929688 C 11.640625 6.90625 11.609375 6.867188 11.605469 6.851562 C 11.597656 6.832031 11.578125 6.816406 11.542969 6.800781 C 11.511719 6.792969 11.480469 6.785156 11.480469 6.761719 C 11.480469 6.738281 11.503906 6.765625 11.503906 6.699219 C 11.503906 6.628906 11.460938 6.617188 11.460938 6.617188 L 11.394531 6.578125 C 11.394531 6.578125 11.277344 6.546875 11.246094 6.546875 C 11.214844 6.546875 11.175781 6.515625 11.210938 6.492188 C 11.246094 6.46875 11.257812 6.433594 11.246094 6.40625 C 11.230469 6.375 11.222656 6.351562 11.171875 6.339844 C 11.121094 6.332031 11.105469 6.316406 11.132812 6.285156 C 11.152344 6.257812 11.160156 6.234375 11.1875 6.257812 C 11.210938 6.277344 11.257812 6.285156 11.292969 6.269531 C 11.328125 6.253906 11.34375 6.238281 11.363281 6.257812 C 11.382812 6.277344 11.402344 6.289062 11.429688 6.265625 C 11.457031 6.242188 11.507812 6.234375 11.53125 6.246094 C 11.550781 6.261719 11.609375 6.257812 11.625 6.246094 C 11.640625 6.234375 11.679688 6.207031 11.679688 6.195312 C 11.679688 6.183594 11.703125 6.148438 11.722656 6.136719 C 11.742188 6.125 11.773438 6.078125 11.796875 6.078125 C 11.820312 6.078125 11.828125 6.050781 11.828125 6.039062 C 11.828125 6.019531 11.847656 5.984375 11.851562 5.972656 C 11.855469 5.960938 11.898438 5.941406 11.929688 5.972656 C 11.964844 5.992188 12.007812 6.003906 12.007812 6.003906 C 12.007812 6.003906 12.046875 6.011719 12.074219 6.003906 C 12.097656 5.988281 12.132812 5.988281 12.15625 6.003906 C 12.191406 6.027344 12.234375 6.027344 12.234375 6.027344 L 12.246094 5.976562 C 12.246094 5.960938 12.253906 5.929688 12.234375 5.917969 C 12.214844 5.90625 12.195312 5.890625 12.230469 5.863281 C 12.265625 5.835938 12.269531 5.84375 12.304688 5.84375 L 12.390625 5.847656 C 12.417969 5.847656 12.460938 5.875 12.460938 5.898438 C 12.464844 5.917969 12.476562 5.9375 12.5 5.953125 C 12.523438 5.964844 12.550781 5.976562 12.539062 6 C 12.53125 6.027344 12.539062 6.039062 12.5625 6.03125 C 12.589844 6.03125 12.601562 6.042969 12.597656 6.066406 C 12.59375 6.085938 12.609375 6.101562 12.636719 6.109375 C 12.664062 6.117188 12.675781 6.132812 12.675781 6.15625 C 12.675781 6.1875 12.667969 6.191406 12.675781 6.210938 L 12.714844 6.265625 C 12.714844 6.265625 12.765625 6.324219 12.699219 6.292969 C 12.636719 6.265625 12.621094 6.253906 12.601562 6.253906 L 12.5625 6.273438 L 12.511719 6.28125 C 12.488281 6.28125 12.464844 6.328125 12.503906 6.335938 C 12.539062 6.34375 12.554688 6.359375 12.550781 6.386719 C 12.546875 6.425781 12.539062 6.40625 12.519531 6.425781 C 12.5 6.445312 12.488281 6.433594 12.457031 6.433594 C 12.425781 6.433594 12.417969 6.460938 12.417969 6.484375 C 12.417969 6.507812 12.429688 6.507812 12.441406 6.523438 C 12.457031 6.550781 12.476562 6.550781 12.503906 6.53125 C 12.523438 6.511719 12.542969 6.496094 12.554688 6.535156 C 12.566406 6.574219 12.589844 6.574219 12.613281 6.574219 C 12.636719 6.578125 12.65625 6.570312 12.675781 6.558594 C 12.703125 6.546875 12.71875 6.558594 12.726562 6.59375 C 12.738281 6.621094 12.753906 6.636719 12.777344 6.644531 C 12.800781 6.652344 12.8125 6.667969 12.816406 6.6875 C 12.824219 6.710938 12.839844 6.71875 12.859375 6.707031 C 12.886719 6.6875 12.914062 6.6875 12.933594 6.703125 L 12.96875 6.75 L 12.96875 6.792969 L 13.058594 6.824219 L 13.066406 6.863281 C 13.066406 6.878906 13.078125 6.886719 13.105469 6.878906 L 13.167969 6.878906 C 13.167969 6.878906 13.199219 6.867188 13.199219 6.839844 C 13.199219 6.816406 13.210938 6.804688 13.238281 6.808594 C 13.257812 6.808594 13.308594 6.828125 13.320312 6.800781 C 13.332031 6.773438 13.375 6.769531 13.40625 6.78125 L 13.523438 6.828125 C 13.523438 6.828125 13.511719 6.828125 13.539062 6.871094 C 13.566406 6.914062 13.617188 6.914062 13.617188 6.914062 C 13.617188 6.914062 13.617188 6.953125 13.628906 6.96875 C 13.640625 6.988281 13.679688 6.996094 13.699219 6.980469 C 13.726562 6.957031 13.753906 6.945312 13.78125 6.9375 C 13.824219 6.929688 13.828125 6.9375 13.828125 6.921875 C 13.828125 6.90625 13.800781 6.894531 13.800781 6.867188 C 13.800781 6.839844 13.828125 6.84375 13.832031 6.816406 C 13.835938 6.792969 13.863281 6.816406 13.882812 6.832031 C 13.902344 6.847656 13.921875 6.863281 13.921875 6.878906 C 13.921875 6.898438 13.960938 6.957031 13.980469 6.964844 C 14 6.972656 14.0625 6.980469 14.082031 6.957031 C 14.101562 6.9375 14.144531 6.925781 14.140625 6.980469 C 14.136719 7.03125 14.125 7.035156 14.15625 7.050781 C 14.1875 7.066406 14.195312 7.128906 14.167969 7.144531 C 14.140625 7.160156 14.128906 7.164062 14.128906 7.191406 C 14.128906 7.21875 14.121094 7.253906 14.144531 7.269531 C 14.171875 7.289062 14.183594 7.304688 14.183594 7.320312 C 14.183594 7.339844 14.207031 7.414062 14.207031 7.414062 C 14.207031 7.414062 14.222656 7.488281 14.214844 7.503906 C 14.214844 7.523438 14.203125 7.550781 14.242188 7.546875 C 14.277344 7.539062 14.296875 7.550781 14.292969 7.578125 C 14.289062 7.617188 14.308594 7.625 14.285156 7.636719 C 14.261719 7.648438 14.246094 7.691406 14.269531 7.699219 C 14.292969 7.707031 14.308594 7.71875 14.316406 7.738281 C 14.320312 7.753906 14.355469 7.785156 14.378906 7.765625 C 14.402344 7.746094 14.40625 7.742188 14.425781 7.738281 C 14.445312 7.734375 14.457031 7.722656 14.4375 7.699219 C 14.417969 7.679688 14.417969 7.660156 14.433594 7.644531 C 14.453125 7.632812 14.460938 7.59375 14.460938 7.59375 C 14.460938 7.59375 14.488281 7.550781 14.519531 7.59375 C 14.550781 7.632812 14.558594 7.617188 14.578125 7.617188 C 14.597656 7.617188 14.609375 7.636719 14.609375 7.65625 C 14.609375 7.675781 14.65625 7.675781 14.65625 7.707031 L 14.664062 7.824219 C 14.664062 7.824219 14.664062 7.871094 14.691406 7.886719 C 14.71875 7.902344 14.71875 7.914062 14.699219 7.925781 C 14.691406 7.949219 14.6875 7.976562 14.691406 8.003906 C 14.695312 8.042969 14.699219 8.023438 14.679688 8.042969 C 14.652344 8.0625 14.648438 8.082031 14.660156 8.105469 C 14.671875 8.128906 14.667969 8.144531 14.703125 8.179688 C 14.742188 8.207031 14.738281 8.21875 14.738281 8.242188 C 14.738281 8.261719 14.773438 8.292969 14.773438 8.3125 C 14.773438 8.332031 14.800781 8.359375 14.824219 8.363281 C 14.847656 8.367188 14.871094 8.402344 14.871094 8.425781 L 14.875 8.503906 C 14.875 8.503906 14.875 8.515625 14.898438 8.515625 C 14.921875 8.515625 14.945312 8.546875 14.953125 8.515625 C 14.960938 8.476562 14.992188 8.476562 15.007812 8.464844 C 15.023438 8.449219 15.0625 8.4375 15.082031 8.449219 C 15.101562 8.464844 15.121094 8.464844 15.140625 8.464844 L 15.242188 8.46875 C 15.242188 8.46875 15.265625 8.46875 15.28125 8.5 C 15.292969 8.53125 15.332031 8.570312 15.3125 8.585938 C 15.292969 8.601562 15.289062 8.636719 15.3125 8.636719 C 15.335938 8.636719 15.371094 8.636719 15.371094 8.65625 C 15.367188 8.683594 15.375 8.691406 15.398438 8.683594 C 15.417969 8.671875 15.433594 8.671875 15.441406 8.683594 C 15.449219 8.699219 15.464844 8.707031 15.492188 8.710938 C 15.511719 8.722656 15.527344 8.71875 15.539062 8.699219 C 15.550781 8.683594 15.605469 8.667969 15.605469 8.667969 C 15.605469 8.667969 15.675781 8.648438 15.703125 8.65625 L 15.769531 8.683594 C 15.769531 8.683594 15.785156 8.722656 15.777344 8.75 C 15.769531 8.78125 15.757812 8.773438 15.769531 8.8125 C 15.78125 8.851562 15.757812 8.851562 15.742188 8.851562 C 15.71875 8.835938 15.707031 8.847656 15.703125 8.878906 C 15.703125 8.910156 15.6875 8.917969 15.6875 8.949219 C 15.6875 8.980469 15.6875 8.972656 15.667969 8.988281 C 15.648438 9.003906 15.648438 9.019531 15.671875 9.027344 C 15.699219 9.027344 15.691406 9.0625 15.691406 9.078125 L 15.6875 9.132812 C 15.6875 9.132812 15.6875 9.152344 15.660156 9.152344 C 15.632812 9.152344 15.601562 9.152344 15.597656 9.171875 C 15.59375 9.191406 15.558594 9.222656 15.585938 9.246094 C 15.613281 9.265625 15.613281 9.277344 15.589844 9.285156 C 15.574219 9.296875 15.558594 9.335938 15.597656 9.347656 C 15.628906 9.363281 15.632812 9.378906 15.605469 9.394531 C 15.582031 9.410156 15.539062 9.425781 15.539062 9.449219 C 15.539062 9.472656 15.527344 9.472656 15.5 9.476562 C 15.46875 9.484375 15.464844 9.511719 15.492188 9.554688 C 15.523438 9.597656 15.53125 9.59375 15.554688 9.59375 C 15.578125 9.59375 15.578125 9.554688 15.578125 9.554688 L 15.675781 9.5625 C 15.703125 9.5625 15.726562 9.558594 15.75 9.550781 C 15.769531 9.535156 15.816406 9.515625 15.816406 9.550781 C 15.816406 9.585938 15.828125 9.589844 15.847656 9.601562 C 15.871094 9.621094 15.875 9.605469 15.894531 9.632812 C 15.914062 9.660156 15.917969 9.632812 15.933594 9.605469 C 15.945312 9.578125 15.972656 9.550781 15.996094 9.582031 C 16.015625 9.617188 16.015625 9.605469 16.042969 9.605469 C 16.070312 9.605469 16.082031 9.621094 16.082031 9.640625 C 16.082031 9.664062 16.105469 9.664062 16.140625 9.660156 C 16.175781 9.65625 16.175781 9.679688 16.1875 9.699219 C 16.199219 9.71875 16.207031 9.714844 16.226562 9.714844 C 16.246094 9.714844 16.261719 9.710938 16.273438 9.699219 C 16.289062 9.683594 16.304688 9.660156 16.324219 9.6875 C 16.34375 9.714844 16.378906 9.707031 16.386719 9.679688 C 16.398438 9.644531 16.4375 9.621094 16.460938 9.65625 C 16.484375 9.691406 16.5 9.691406 16.523438 9.695312 C 16.550781 9.6875 16.570312 9.695312 16.589844 9.71875 C 16.605469 9.742188 16.648438 9.773438 16.617188 9.796875 C 16.585938 9.820312 16.550781 9.855469 16.578125 9.867188 C 16.601562 9.875 16.625 9.886719 16.640625 9.90625 C 16.660156 9.921875 16.71875 9.933594 16.746094 9.9375 C 16.773438 9.9375 16.792969 9.949219 16.824219 9.917969 C 16.855469 9.890625 16.890625 9.894531 16.886719 9.929688 C 16.882812 9.96875 16.898438 10.003906 16.898438 10.003906 C 16.898438 10.003906 16.921875 10.058594 16.921875 10.078125 C 16.921875 10.097656 16.917969 10.101562 16.960938 10.128906 C 17 10.152344 16.992188 10.167969 17.027344 10.144531 C 17.054688 10.125 17.070312 10.105469 17.066406 10.085938 L 17.066406 10.019531 C 17.066406 10.019531 17.113281 10.011719 17.128906 10 C 17.148438 9.984375 17.21875 9.949219 17.238281 9.964844 C 17.257812 9.980469 17.277344 9.976562 17.296875 9.96875 C 17.324219 9.960938 17.347656 9.960938 17.371094 9.960938 C 17.386719 9.960938 17.417969 9.964844 17.457031 9.933594 C 17.492188 9.902344 17.492188 9.910156 17.515625 9.933594 C 17.535156 9.957031 17.535156 9.976562 17.523438 10 C 17.507812 10.015625 17.523438 10.050781 17.554688 10.050781 C 17.585938 10.050781 17.59375 10.070312 17.59375 10.089844 L 17.605469 10.15625 C 17.605469 10.171875 17.605469 10.183594 17.660156 10.195312 C 17.707031 10.207031 17.699219 10.234375 17.707031 10.261719 C 17.722656 10.285156 17.71875 10.296875 17.691406 10.300781 C 17.652344 10.304688 17.652344 10.3125 17.652344 10.332031 C 17.644531 10.351562 17.605469 10.359375 17.605469 10.359375 L 17.566406 10.351562 C 17.566406 10.351562 17.535156 10.351562 17.523438 10.367188 C 17.511719 10.382812 17.484375 10.417969 17.5 10.445312 C 17.519531 10.476562 17.519531 10.496094 17.5 10.507812 C 17.484375 10.519531 17.472656 10.585938 17.457031 10.574219 C 17.4375 10.558594 17.417969 10.574219 17.398438 10.585938 C 17.378906 10.597656 17.382812 10.652344 17.417969 10.671875 C 17.453125 10.699219 17.46875 10.71875 17.464844 10.722656 L 17.503906 10.785156 C 17.503906 10.785156 17.492188 10.796875 17.484375 10.820312 C 17.472656 10.84375 17.445312 10.886719 17.472656 10.894531 C 17.5 10.902344 17.488281 10.949219 17.460938 10.949219 C 17.433594 10.949219 17.402344 10.933594 17.398438 10.96875 C 17.394531 11.003906 17.378906 10.992188 17.351562 10.988281 C 17.324219 10.984375 17.257812 10.96875 17.238281 11 C 17.21875 11.03125 17.214844 11.046875 17.183594 11.042969 C 17.152344 11.039062 17.164062 11.09375 17.175781 11.113281 L 17.214844 11.167969 C 17.214844 11.167969 17.242188 11.1875 17.242188 11.230469 C 17.238281 11.265625 17.226562 11.269531 17.203125 11.238281 C 17.1875 11.210938 17.152344 11.214844 17.148438 11.246094 C 17.144531 11.277344 17.136719 11.332031 17.109375 11.332031 C 17.078125 11.332031 17.058594 11.339844 17.046875 11.355469 C 17.035156 11.371094 17.011719 11.402344 17.011719 11.417969 C 17.011719 11.4375 17.007812 11.457031 16.984375 11.460938 C 16.960938 11.464844 16.957031 11.507812 16.957031 11.507812 C 16.957031 11.507812 16.902344 11.519531 16.898438 11.539062 C 16.894531 11.558594 16.902344 11.59375 16.859375 11.597656 C 16.824219 11.601562 16.792969 11.621094 16.773438 11.652344 C 16.753906 11.671875 16.753906 11.691406 16.773438 11.710938 C 16.800781 11.746094 16.804688 11.800781 16.828125 11.8125 C 16.851562 11.820312 16.863281 11.835938 16.863281 11.863281 C 16.859375 11.898438 16.832031 11.921875 16.867188 11.921875 C 16.910156 11.917969 16.925781 11.933594 16.914062 11.960938 C 16.898438 11.988281 16.898438 11.992188 16.875 12.003906 C 16.84375 12.019531 16.832031 12.019531 16.832031 12.054688 C 16.832031 12.085938 16.839844 12.089844 16.816406 12.101562 C 16.792969 12.113281 16.792969 12.128906 16.792969 12.15625 C 16.792969 12.183594 16.785156 12.171875 16.757812 12.199219 C 16.726562 12.226562 16.699219 12.234375 16.671875 12.222656 C 16.632812 12.207031 16.644531 12.214844 16.640625 12.1875 C 16.636719 12.160156 16.597656 12.164062 16.574219 12.167969 C 16.550781 12.171875 16.519531 12.195312 16.519531 12.195312 C 16.519531 12.195312 16.480469 12.222656 16.496094 12.242188 C 16.511719 12.261719 16.503906 12.296875 16.472656 12.292969 C 16.441406 12.289062 16.371094 12.328125 16.347656 12.289062 C 16.324219 12.253906 16.261719 12.226562 16.25 12.277344 C 16.242188 12.328125 16.277344 12.324219 16.273438 12.375 C 16.269531 12.425781 16.261719 12.425781 16.242188 12.441406 C 16.230469 12.457031 16.222656 12.472656 16.21875 12.492188 C 16.21875 12.511719 16.210938 12.558594 16.242188 12.574219 C 16.273438 12.589844 16.289062 12.640625 16.289062 12.667969 C 16.285156 12.695312 16.292969 12.710938 16.320312 12.71875 C 16.359375 12.722656 16.378906 12.710938 16.382812 12.683594 C 16.386719 12.65625 16.449219 12.636719 16.457031 12.695312 C 16.453125 12.75 16.460938 12.789062 16.484375 12.808594 C 16.503906 12.832031 16.523438 12.867188 16.542969 12.878906 C 16.5625 12.890625 16.589844 13 16.589844 13 C 16.546875 13.011719 16.535156 13.070312 16.507812 13.078125 C 16.492188 13.085938 16.472656 13.078125 16.457031 13.089844 C 16.453125 13.105469 16.445312 13.117188 16.433594 13.121094 C 16.398438 13.136719 16.40625 13.085938 16.363281 13.105469 C 16.328125 13.121094 16.324219 13.164062 16.273438 13.144531 C 16.246094 13.136719 16.230469 13.027344 16.222656 13.003906 L 16.179688 12.933594 C 16.148438 12.882812 16.089844 12.933594 16.070312 12.917969 C 16.039062 12.894531 16.050781 12.859375 16.003906 12.855469 C 15.910156 12.847656 15.976562 12.917969 15.9375 12.929688 C 15.859375 12.957031 15.859375 12.855469 15.804688 12.902344 C 15.785156 12.921875 15.84375 12.933594 15.828125 12.960938 C 15.816406 12.984375 15.761719 13.023438 15.761719 13.050781 C 15.769531 13.089844 15.808594 13.101562 15.820312 13.128906 C 15.859375 13.222656 15.800781 13.28125 15.714844 13.207031 C 15.667969 13.171875 15.65625 13.101562 15.585938 13.109375 C 15.570312 13.117188 15.558594 13.121094 15.546875 13.128906 C 15.527344 13.128906 15.515625 13.113281 15.496094 13.117188 C 15.46875 13.128906 15.496094 13.148438 15.488281 13.164062 C 15.488281 13.164062 15.449219 13.191406 15.449219 13.203125 C 15.425781 13.230469 15.433594 13.253906 15.402344 13.277344 C 15.378906 13.296875 15.359375 13.285156 15.332031 13.316406 C 15.304688 13.34375 15.300781 13.390625 15.265625 13.417969 C 15.246094 13.433594 15.234375 13.375 15.210938 13.414062 L 15.203125 13.429688 C 15.195312 13.441406 15.195312 13.449219 15.203125 13.457031 C 15.25 13.554688 15.148438 13.585938 15.117188 13.652344 C 15.105469 13.679688 15.140625 13.703125 15.128906 13.726562 L 15.070312 13.792969 C 15.070312 13.800781 15.0625 13.828125 15.054688 13.835938 C 15.046875 13.84375 15.015625 13.835938 15.015625 13.851562 C 15.015625 13.867188 15.046875 13.878906 15.054688 13.886719 C 15.0625 13.894531 15.046875 13.914062 15.054688 13.917969 C 15.101562 13.96875 15.074219 13.953125 15.097656 13.996094 C 15.101562 14.003906 15.117188 13.992188 15.125 14.007812 C 15.132812 14.023438 15.109375 14.023438 15.117188 14.039062 C 15.117188 14.046875 15.15625 14.09375 15.15625 14.09375 C 15.15625 14.113281 15.085938 14.144531 15.070312 14.144531 C 15.027344 14.144531 15.109375 14.054688 15.039062 14.054688 C 15.007812 14.054688 15.003906 14.125 15 14.136719 L 14.960938 14.136719 C 14.914062 14.136719 14.882812 14.191406 14.867188 14.195312 C 14.851562 14.199219 14.828125 14.1875 14.808594 14.195312 C 14.792969 14.195312 14.769531 14.214844 14.753906 14.214844 C 14.742188 14.214844 14.734375 14.210938 14.726562 14.199219 C 14.707031 14.1875 14.667969 14.183594 14.648438 14.175781 C 14.632812 14.175781 14.609375 14.191406 14.601562 14.1875 C 14.589844 14.179688 14.613281 14.148438 14.578125 14.132812 L 14.550781 14.0625 C 14.566406 14.023438 14.574219 13.984375 14.570312 13.941406 C 14.5625 13.898438 14.492188 13.863281 14.476562 13.824219 C 14.464844 13.796875 14.453125 13.726562 14.425781 13.710938 C 14.394531 13.6875 14.371094 13.660156 14.355469 13.625 C 14.355469 13.617188 14.367188 13.601562 14.355469 13.585938 C 14.339844 13.574219 14.328125 13.5625 14.316406 13.546875 C 14.3125 13.53125 14.316406 13.472656 14.296875 13.460938 C 14.277344 13.449219 14.140625 13.429688 14.101562 13.425781 C 14.085938 13.425781 14.074219 13.421875 14.0625 13.414062 L 14.039062 13.386719 L 14 13.394531 C 13.984375 13.390625 13.972656 13.390625 13.960938 13.394531 C 13.917969 13.421875 13.90625 13.460938 13.863281 13.496094 C 13.820312 13.53125 13.773438 13.53125 13.730469 13.566406 C 13.703125 13.589844 13.683594 13.648438 13.65625 13.675781 C 13.644531 13.6875 13.628906 13.675781 13.625 13.679688 C 13.597656 13.707031 13.574219 13.730469 13.546875 13.75 C 13.546875 13.757812 13.542969 13.765625 13.539062 13.769531 L 13.488281 13.785156 L 13.441406 13.785156 C 13.421875 13.792969 13.421875 13.820312 13.34375 13.835938 L 13.324219 13.847656 L 13.300781 13.867188 L 13.265625 13.867188 C 13.246094 13.867188 13.234375 13.886719 13.21875 13.886719 C 13.179688 13.894531 13.109375 13.867188 13.078125 13.882812 C 13.058594 13.886719 13.007812 13.949219 12.988281 13.953125 C 12.976562 13.957031 12.964844 13.953125 12.949219 13.949219 L 12.925781 14.035156 L 12.832031 14.121094 C 12.824219 14.132812 12.8125 14.144531 12.800781 14.160156 C 12.789062 14.171875 12.773438 14.179688 12.761719 14.179688 C 12.738281 14.171875 12.71875 14.167969 12.699219 14.164062 C 12.667969 14.15625 12.570312 14.152344 12.542969 14.160156 C 12.507812 14.164062 12.519531 14.253906 12.441406 14.261719 L 12.3125 14.277344 C 12.308594 14.277344 12.28125 14.261719 12.253906 14.265625 C 12.242188 14.269531 12.210938 14.304688 12.210938 14.3125 L 12.210938 14.332031 L 12.21875 14.347656 C 12.203125 14.367188 12.164062 14.402344 12.152344 14.429688 L 12.136719 14.445312 C 12.128906 14.453125 12.074219 14.472656 12.070312 14.480469 C 12.058594 14.511719 12.109375 14.542969 12.101562 14.554688 C 12.089844 14.59375 12.035156 14.632812 12.015625 14.671875 C 12.011719 14.6875 12.035156 14.742188 12.035156 14.757812 C 12.023438 14.8125 12.015625 14.867188 12.015625 14.917969 L 12.023438 14.984375 L 12.050781 15.007812 L 12.121094 15.148438 C 12.132812 15.234375 12.003906 15.203125 12.082031 15.292969 C 12.085938 15.308594 12.097656 15.320312 12.113281 15.332031 L 12.222656 15.421875 C 12.222656 15.4375 12.144531 15.449219 12.132812 15.460938 C 12.09375 15.5 12.066406 15.5625 12.03125 15.605469 C 12.007812 15.625 11.992188 15.601562 11.960938 15.65625 C 11.953125 15.675781 11.960938 15.71875 11.949219 15.734375 C 11.929688 15.75 11.917969 15.726562 11.898438 15.734375 C 11.890625 15.734375 11.886719 15.761719 11.878906 15.765625 C 11.859375 15.785156 11.675781 15.886719 11.660156 15.871094 C 11.652344 15.867188 11.640625 15.835938 11.640625 15.828125 C 11.636719 15.8125 11.628906 15.800781 11.617188 15.789062 C 11.570312 15.75 11.5 15.738281 11.453125 15.789062 C 11.445312 15.804688 11.4375 15.820312 11.425781 15.828125 L 11.347656 15.894531 L 11.328125 15.914062 C 11.308594 15.914062 11.265625 15.859375 11.25 15.84375 C 11.234375 15.820312 11.171875 15.765625 11.167969 15.738281 C 11.167969 15.644531 11.09375 15.542969 11.066406 15.453125 L 11.109375 15.453125 C 11.160156 15.417969 11.148438 15.335938 11.238281 15.367188 C 11.25 15.351562 11.25 15.335938 11.269531 15.328125 C 11.28125 15.320312 11.289062 15.316406 11.296875 15.308594 C 11.328125 15.257812 11.363281 15.078125 11.332031 15.03125 C 11.304688 14.988281 11.273438 14.988281 11.253906 14.921875 C 11.25 14.90625 11.25 14.882812 11.253906 14.859375 L 11.214844 14.738281 C 11.203125 14.726562 11.191406 14.71875 11.1875 14.710938 L 11.179688 14.585938 C 11.152344 14.5 11.046875 14.449219 11.042969 14.4375 L 11.003906 14.367188 C 10.992188 14.34375 10.984375 14.324219 10.980469 14.304688 C 10.976562 14.292969 10.957031 14.28125 10.957031 14.269531 C 10.957031 14.246094 11.019531 14.203125 11.015625 14.164062 C 11.015625 14.152344 10.976562 14.113281 10.984375 14.089844 C 10.992188 14.070312 11.03125 14.019531 11.03125 13.992188 C 11.03125 13.960938 10.96875 13.890625 10.960938 13.859375 C 10.957031 13.839844 10.984375 13.828125 10.976562 13.816406 C 10.96875 13.800781 10.90625 13.738281 10.898438 13.722656 C 10.886719 13.710938 10.917969 13.695312 10.898438 13.671875 C 10.875 13.652344 10.894531 13.65625 10.886719 13.640625 C 10.875 13.621094 10.863281 13.601562 10.847656 13.582031 C 10.839844 13.5625 10.785156 13.363281 10.789062 13.351562 C 10.777344 13.339844 10.765625 13.328125 10.753906 13.3125 L 10.738281 13.265625 C 10.738281 13.265625 10.675781 13.246094 10.664062 13.226562 C 10.65625 13.214844 10.652344 13.160156 10.636719 13.136719 C 10.625 13.128906 10.617188 13.125 10.609375 13.121094 C 10.605469 13.113281 10.601562 13.105469 10.597656 13.09375 C 10.578125 13.070312 10.542969 13.09375 10.519531 13 C 10.484375 12.976562 10.453125 12.953125 10.425781 12.929688 L 10.410156 12.910156 C 10.382812 12.90625 10.359375 12.898438 10.332031 12.882812 C 10.320312 12.882812 10.261719 12.882812 10.253906 12.875 L 10.238281 12.84375 C 10.207031 12.839844 10.152344 12.84375 10.125 12.820312 C 10.105469 12.800781 10.101562 12.710938 10.0625 12.722656 L 10.046875 12.722656 C 10.019531 12.683594 9.933594 12.683594 9.898438 12.660156 C 9.890625 12.65625 9.859375 12.660156 9.859375 12.652344 L 9.863281 12.597656 L 9.820312 12.542969 C 9.785156 12.535156 9.796875 12.53125 9.78125 12.519531 C 9.722656 12.519531 9.714844 12.527344 9.679688 12.558594 C 9.667969 12.566406 9.65625 12.574219 9.640625 12.574219 C 9.621094 12.585938 9.617188 12.625 9.589844 12.605469 L 9.566406 12.585938 C 9.550781 12.570312 9.542969 12.578125 9.535156 12.554688 C 9.488281 12.527344 9.359375 12.613281 9.332031 12.554688 C 9.308594 12.542969 9.292969 12.554688 9.273438 12.539062 C 9.265625 12.53125 9.300781 12.421875 9.207031 12.382812 L 9.269531 12.339844 C 9.273438 12.324219 9.273438 12.308594 9.269531 12.296875 C 9.269531 12.277344 9.28125 12.242188 9.277344 12.230469 L 9.257812 12.191406 C 9.253906 12.179688 9.253906 12.164062 9.25 12.144531 L 9.21875 12.128906 C 9.191406 12.113281 9.171875 12.09375 9.152344 12.074219 L 9.136719 12.054688 C 9.121094 12.042969 9.066406 12.019531 9.066406 11.996094 C 9.070312 11.992188 9.078125 11.984375 9.082031 11.976562 C 9.082031 11.964844 9.085938 11.953125 9.09375 11.945312 C 9.117188 11.90625 9.175781 11.925781 9.167969 11.859375 C 9.164062 11.828125 9.140625 11.804688 9.136719 11.773438 C 9.128906 11.765625 9.121094 11.753906 9.117188 11.746094 C 9.058594 11.742188 9.066406 11.679688 9.046875 11.664062 C 8.988281 11.625 8.941406 11.648438 9.007812 11.570312 C 9.015625 11.542969 8.949219 11.5 8.9375 11.488281 C 8.914062 11.464844 8.925781 11.410156 8.914062 11.386719 C 8.914062 11.375 8.871094 11.351562 8.859375 11.335938 L 8.839844 11.296875 L 8.839844 11.292969 C 8.851562 11.277344 8.851562 11.265625 8.839844 11.253906 C 8.835938 11.242188 8.816406 11.246094 8.8125 11.238281 C 8.761719 11.195312 8.695312 11.164062 8.621094 11.140625 C 8.601562 11.128906 8.609375 11.113281 8.589844 11.105469 L 8.472656 11.058594 C 8.464844 11.058594 8.457031 11.015625 8.449219 11 L 8.414062 10.960938 C 8.414062 10.921875 8.390625 10.921875 8.359375 10.898438 L 8.359375 10.875 L 8.382812 10.789062 C 8.386719 10.773438 8.40625 10.757812 8.402344 10.742188 L 8.386719 10.652344 C 8.355469 10.574219 8.320312 10.582031 8.339844 10.472656 C 8.335938 10.453125 8.339844 10.433594 8.351562 10.417969 L 8.359375 10.40625 L 8.40625 10.371094 C 8.421875 10.347656 8.433594 10.296875 8.453125 10.28125 L 8.523438 10.230469 C 8.53125 10.222656 8.539062 10.195312 8.535156 10.183594 C 8.519531 10.179688 8.503906 10.175781 8.488281 10.175781 C 8.476562 10.171875 8.464844 10.167969 8.445312 10.160156 C 8.441406 10.15625 8.4375 10.148438 8.433594 10.140625 L 8.425781 10.132812 C 8.40625 10.128906 8.386719 10.125 8.371094 10.113281 C 8.351562 10.109375 8.328125 10.101562 8.304688 10.09375 C 8.265625 10.074219 8.226562 10.015625 8.191406 10.007812 C 8.144531 9.996094 8.113281 10.011719 8.066406 10.015625 C 8.039062 10.015625 8.039062 10 8.015625 9.992188 C 7.984375 9.980469 8.007812 10.007812 7.9375 9.984375 C 7.925781 9.976562 7.9375 9.953125 7.9375 9.941406 L 7.898438 9.941406 C 7.84375 9.925781 7.863281 9.871094 7.847656 9.835938 C 7.84375 9.828125 7.816406 9.828125 7.808594 9.828125 C 7.804688 9.824219 7.800781 9.824219 7.800781 9.820312 L 7.808594 9.816406 C 7.816406 9.800781 7.78125 9.761719 7.78125 9.753906 C 7.785156 9.742188 7.859375 9.730469 7.867188 9.730469 C 7.867188 9.71875 7.863281 9.710938 7.859375 9.703125 C 7.863281 9.679688 7.867188 9.660156 7.878906 9.632812 L 7.878906 9.625 C 7.855469 9.613281 7.851562 9.597656 7.832031 9.585938 C 7.835938 9.578125 7.839844 9.566406 7.847656 9.558594 C 7.882812 9.460938 7.9375 9.539062 7.984375 9.449219 C 7.992188 9.4375 8 9.421875 8.007812 9.40625 L 8.015625 9.40625 C 8.027344 9.40625 8.035156 9.40625 8.046875 9.40625 C 8.054688 9.398438 8.066406 9.394531 8.078125 9.394531 L 8.097656 9.394531 C 8.183594 9.378906 8.164062 9.34375 8.214844 9.308594 C 8.230469 9.296875 8.269531 9.292969 8.285156 9.285156 C 8.304688 9.300781 8.332031 9.320312 8.367188 9.339844 C 8.394531 9.347656 8.484375 9.371094 8.5 9.382812 C 8.519531 9.390625 8.523438 9.414062 8.539062 9.421875 C 8.589844 9.453125 8.558594 9.40625 8.609375 9.414062 C 8.660156 9.421875 8.699219 9.46875 8.746094 9.488281 L 8.785156 9.484375 C 8.796875 9.480469 8.875 9.464844 8.882812 9.46875 L 8.914062 9.480469 C 8.925781 9.484375 8.933594 9.460938 8.945312 9.460938 C 8.976562 9.46875 8.976562 9.480469 9.023438 9.476562 C 9.023438 9.476562 9.046875 9.34375 9.070312 9.339844 C 9.082031 9.335938 9.117188 9.371094 9.125 9.375 C 9.140625 9.378906 9.125 9.34375 9.125 9.34375 C 9.117188 9.332031 9.09375 9.253906 9.097656 9.246094 C 9.101562 9.25 9.113281 9.25 9.128906 9.25 C 9.15625 9.246094 9.179688 9.234375 9.207031 9.214844 L 9.246094 9.15625 C 9.25 9.148438 9.238281 9.125 9.246094 9.117188 L 9.28125 9.09375 C 9.296875 9.078125 9.296875 9.050781 9.320312 9.039062 C 9.398438 9.03125 9.425781 8.96875 9.5 8.960938 L 9.523438 8.960938 L 9.539062 8.984375 C 9.539062 8.988281 9.589844 9.019531 9.597656 9.015625 C 9.605469 9.015625 9.613281 9.007812 9.617188 9 C 9.628906 9.003906 9.671875 8.980469 9.675781 8.964844 C 9.671875 8.964844 9.671875 8.957031 9.671875 8.941406 L 9.734375 8.894531 L 9.789062 8.894531 C 9.792969 8.90625 9.800781 8.914062 9.808594 8.917969 L 9.855469 8.917969 C 9.863281 8.917969 9.867188 8.898438 9.882812 8.898438 "/>
<path style=" stroke:none;fill-rule:nonzero;fill:rgb(100%,100%,100%);fill-opacity:1;" d="M 13.746094 2.90625 L 14.375 4.867188 L 12.726562 3.652344 L 14.765625 3.652344 L 13.117188 4.867188 Z M 16.199219 3.34375 L 16.824219 5.308594 L 15.179688 4.09375 L 17.214844 4.09375 L 15.566406 5.308594 Z M 18.539062 4.207031 L 19.164062 6.171875 L 17.519531 4.957031 L 19.554688 4.957031 L 17.90625 6.175781 L 18.539062 4.210938 Z M 11.253906 2.90625 L 10.625 4.867188 L 12.273438 3.652344 L 10.234375 3.652344 L 11.882812 4.867188 Z M 8.800781 3.34375 L 8.175781 5.308594 L 9.820312 4.09375 L 7.785156 4.09375 L 9.433594 5.308594 Z M 6.472656 4.207031 L 7.105469 6.171875 L 5.457031 4.957031 L 7.492188 4.957031 L 5.84375 6.171875 Z M 6.472656 4.207031 "/>
</g>
</svg>
