<svg xmlns="http://www.w3.org/2000/svg" width="25" height="px" viewBox="0 0 25 19"><path d="M0 0h25v19H0z" style="fill:#244aa5;fill-opacity:1;stroke:none"/><path d="M9.883 8.898s.047-.03.062-.035l.078-.023s.04-.02.059-.02c.02 0 .063.024.078.043.016.02.078.055.078.055s.047.016.059 0q.017-.023.05-.027.03-.006.024-.036c-.004-.027.008-.035.024-.054.02-.02.05-.031.05-.031s.047-.024.051-.051c.004-.028.05-.047.078-.051.028 0 0-.016.07-.008.067.008.079-.015.079-.035.004-.02 0-.04.043-.04.043.013.062.005.062-.015 0-.023.04-.039-.027-.054-.07-.02-.063-.004-.07-.04 0-.03 0-.027-.043-.03-.043-.005-.024-.028-.028-.051a.1.1 0 0 0-.023-.051c-.012-.016-.035-.016-.035-.04 0-.023-.004-.038-.028-.038q-.04.005-.039-.02.001-.04.031-.039.041-.01.04-.05c-.008-.024-.008-.075-.008-.075l.035-.039s.101-.082.11-.098c.007-.015.042-.027.058.004.015.031.023.04.039.055.012.016.05.004.058-.012.008-.015.012-.074.036-.105a.14.14 0 0 0 .043-.074c.003-.032.02-.051.046-.047.024 0 .04-.036.04-.055q0-.03.046-.047c.032-.004.051-.023.063.008s.023.027.043.039q.04.024.07.012c.02-.016.027-.04.05-.028q.036.019.048-.027l.012-.074s.003-.02.043-.02.011-.027.03-.043c.02-.015.024-.031.052-.023s.07-.012.05-.04c-.02-.027-.07-.062-.043-.093s.04-.078.012-.086c-.027-.004-.07.004-.074-.027-.004-.032-.016-.055.02-.059.035-.004.085-.004.105-.02.02-.015.07-.027.07-.07s.016-.05.024-.078c.007-.027.004-.082-.02-.105a.3.3 0 0 1-.059-.078q-.01-.03-.062-.051c-.031-.008-.063-.016-.063-.04 0-.023.024.005.024-.062 0-.07-.043-.082-.043-.082l-.066-.039s-.118-.031-.149-.031-.07-.031-.035-.055c.035-.023.047-.058.035-.086-.016-.031-.023-.054-.074-.066-.05-.008-.067-.024-.04-.055.02-.027.028-.05.056-.027a.11.11 0 0 0 .105.012c.035-.016.05-.032.07-.012s.04.031.067.008c.027-.024.078-.032.101-.02.02.016.078.012.094 0s.055-.039.055-.05.023-.048.043-.06.05-.058.074-.058.031-.027.031-.039c0-.02.02-.055.024-.066.003-.012.046-.032.078 0 .035.02.078.03.078.03s.039.009.066 0a.08.08 0 0 1 .082 0 .16.16 0 0 0 .078.024l.012-.05c0-.016.008-.047-.012-.059s-.039-.027-.004-.055c.036-.027.04-.02.075-.02l.086.005c.027 0 .07.027.07.05q.005.031.039.055c.023.012.05.024.04.047-.009.027 0 .04.023.031q.04 0 .035.035-.005.031.039.043.04.012.039.047c0 .032-.008.035 0 .055l.039.055s.05.058-.016.027c-.062-.027-.078-.04-.097-.04l-.04.02-.05.008c-.024 0-.047.047-.008.055q.052.01.047.05c-.004.04-.012.02-.031.04-.02.02-.032.008-.063.008s-.039.027-.039.05.012.024.023.04q.023.039.063.007c.02-.02.039-.035.05.004s.036.04.06.04c.023.003.042-.005.062-.016q.04-.018.05.035.017.04.051.05a.05.05 0 0 1 .04.043q.012.037.042.02.044-.029.075-.004l.035.047v.043l.09.031.007.04c0 .015.012.023.04.015h.062s.031-.012.031-.04q-.001-.035.04-.03c.019 0 .07.02.081-.008.012-.028.055-.031.086-.02l.117.047s-.011 0 .016.043.078.043.078.043 0 .04.012.055c.012.02.05.027.07.011a.2.2 0 0 1 .082-.043c.043-.007.047 0 .047-.015 0-.016-.027-.027-.027-.055 0-.027.027-.023.031-.05.004-.024.031 0 .05.015.02.016.04.031.04.047 0 .02.039.078.058.086s.082.015.102-.008c.02-.02.063-.031.059.023-.004.051-.016.055.015.07s.04.079.012.095c-.027.015-.04.02-.04.046 0 .028-.007.063.017.079q.04.029.039.05c0 .02.023.094.023.094s.016.074.008.09c0 .02-.012.047.027.043.035-.008.055.004.051.031-.004.04.016.047-.008.059-.023.011-.039.054-.015.062q.035.011.046.04c.004.015.04.046.063.027.023-.02.027-.024.047-.028s.031-.015.011-.039q-.028-.03-.003-.054c.02-.012.027-.051.027-.051s.027-.043.059 0c.03.039.039.023.058.023s.031.02.031.04c0 .019.047.019.047.05l.008.117s0 .047.027.063q.04.022.008.039-.012.035-.008.078c.004.039.008.02-.011.039q-.04.029-.02.062c.012.024.008.04.043.075.04.027.035.039.035.062 0 .02.035.051.035.07s.028.047.051.051c.024.004.047.04.047.063l.004.078s0 .012.023.012c.024 0 .047.03.055 0 .008-.04.04-.04.055-.051.015-.016.055-.027.074-.016.02.016.04.016.059.016l.101.004s.024 0 .04.031c.011.031.05.07.03.086-.019.016-.023.05 0 .05.024 0 .06 0 .06.02q-.008.04.026.028.031-.018.043 0 .011.022.051.027.03.018.047-.012c.012-.015.066-.031.066-.031s.07-.02.098-.012l.067.028s.015.039.007.066c-.007.031-.02.023-.007.063.011.039-.012.039-.028.039-.023-.016-.035-.004-.039.027 0 .031-.015.039-.015.07s0 .024-.02.04q-.031.024.004.038c.027 0 .02.036.02.051l-.005.055s0 .02-.027.02-.058 0-.062.019c-.004.02-.04.05-.012.074q.04.028.004.04c-.016.01-.031.05.008.062.03.015.035.03.007.047-.023.015-.066.03-.066.054s-.012.024-.039.028q-.048.012-.008.078c.031.043.04.039.063.039s.023-.04.023-.04l.098.008q.04 0 .074-.011c.02-.016.066-.035.066 0s.012.039.032.05c.023.02.027.004.047.032.02.027.023 0 .039-.028.011-.027.039-.054.062-.023.02.035.02.023.047.023s.039.016.039.036c0 .023.023.023.059.02.035-.005.035.019.047.038.011.02.019.016.039.016q.03.001.046-.016c.016-.015.032-.039.051-.011.02.027.055.019.063-.008.011-.035.05-.059.074-.024s.039.035.062.04c.028-.008.047 0 .067.023.015.023.058.054.027.078-.031.023-.066.058-.039.07q.038.011.063.04c.02.015.078.027.105.03.027 0 .047.012.078-.019.031-.027.067-.023.063.012-.004.039.011.074.011.074s.024.055.024.074c0 .02-.004.024.039.05.039.024.031.04.066.017q.043-.03.04-.06v-.065s.046-.008.062-.02c.02-.016.09-.05.11-.035.019.015.038.012.058.004q.04-.01.074-.008c.016 0 .047.004.086-.027.035-.032.035-.024.059 0q.028.033.007.066c-.015.016 0 .05.032.05.03 0 .039.02.039.04l.011.066c0 .016 0 .028.055.04.047.011.04.038.047.066q.025.034-.016.039c-.039.004-.039.011-.039.031-.007.02-.047.027-.047.027l-.039-.007s-.03 0-.043.015c-.011.016-.039.051-.023.078q.03.046 0 .063c-.016.012-.027.078-.043.066-.02-.015-.039 0-.059.012s-.015.066.02.086c.035.027.05.047.047.05l.039.063s-.012.012-.02.035c-.011.024-.039.067-.011.075.027.007.015.054-.012.054s-.059-.015-.063.02c-.003.035-.02.023-.046.02-.028-.005-.094-.02-.114.011s-.023.047-.054.043c-.032-.004-.02.05-.008.07l.039.055s.027.02.027.062q-.005.055-.039.008c-.015-.027-.05-.023-.055.008-.003.031-.011.086-.039.086q-.045 0-.062.023c-.012.016-.035.047-.035.063 0 .02-.004.039-.028.043-.023.004-.027.047-.027.047s-.055.012-.059.031c-.003.02.004.055-.039.059a.12.12 0 0 0-.086.054q-.03.03 0 .059c.028.035.032.09.055.101q.036.011.035.051c-.004.035-.031.059.004.059.043-.004.059.012.047.039-.016.027-.016.031-.039.043-.031.016-.043.016-.043.05 0 .032.008.036-.016.048-.023.011-.023.027-.023.054 0 .028-.008.016-.035.043q-.046.041-.086.024c-.04-.016-.027-.008-.031-.036s-.043-.023-.067-.019c-.023.004-.054.027-.054.027s-.04.028-.024.047c.016.02.008.055-.023.051-.032-.004-.102.035-.125-.004-.024-.035-.086-.062-.098-.012-.008.051.027.047.023.098-.003.05-.011.05-.03.066a.1.1 0 0 0-.024.051c0 .02-.008.067.023.082.031.016.047.067.047.094q-.008.04.031.05.059.007.063-.034c.004-.028.066-.047.074.011q-.007.083.027.114c.02.023.04.058.059.07.02.012.047.121.047.121-.043.012-.055.07-.082.078-.016.008-.035 0-.051.012q-.006.024-.023.031c-.036.016-.028-.035-.07-.016-.036.016-.04.06-.09.04-.028-.008-.044-.118-.051-.141l-.043-.07c-.032-.051-.09 0-.11-.016-.03-.023-.02-.059-.066-.063-.094-.007-.027.063-.067.075-.078.027-.078-.075-.132-.028-.02.02.039.032.023.059-.012.023-.066.062-.066.09.008.039.047.05.058.078.04.094-.02.152-.105.078-.047-.035-.059-.105-.13-.098q-.021.01-.038.02c-.02 0-.031-.016-.05-.012-.028.012 0 .031-.009.047 0 0-.039.027-.039.04-.023.026-.015.05-.047.073-.023.02-.043.008-.07.04-.027.027-.031.074-.066.101-.02.016-.032-.043-.055-.004l-.008.016q-.012.016 0 .027c.047.098-.055.129-.086.195-.012.028.024.051.012.075l-.059.066a.1.1 0 0 1-.015.043c-.008.008-.04 0-.04.016 0 .015.032.027.04.035s-.008.027 0 .031c.047.05.02.035.043.078.004.008.02-.004.027.012.008.015-.016.015-.008.031 0 .008.04.055.04.055 0 .02-.071.05-.087.05-.043 0 .04-.09-.03-.09-.032 0-.036.071-.04.083h-.04c-.046 0-.077.054-.093.058-.015.004-.039-.008-.058 0-.016 0-.04.02-.055.02q-.017.001-.027-.016c-.02-.011-.059-.015-.079-.023-.015 0-.039.015-.046.011-.012-.007.011-.039-.024-.054l-.027-.07a.26.26 0 0 0 .02-.122c-.008-.043-.079-.078-.094-.117-.012-.027-.024-.097-.051-.113a.2.2 0 0 1-.07-.086c0-.008.011-.023 0-.04a.2.2 0 0 1-.04-.038c-.004-.016 0-.074-.02-.086a1 1 0 0 0-.194-.035.07.07 0 0 1-.04-.012l-.023-.027-.039.008a.07.07 0 0 0-.04 0c-.042.027-.054.066-.097.101s-.09.035-.133.07c-.027.024-.046.082-.074.11-.011.011-.027 0-.031.004-.027.027-.05.05-.078.07a.03.03 0 0 1-.008.02l-.05.015h-.048c-.02.008-.02.035-.097.05l-.02.013-.023.02h-.035c-.02 0-.032.019-.047.019-.04.008-.11-.02-.14-.004-.02.004-.071.066-.09.07-.012.004-.024 0-.04-.004l-.023.086-.094.086q-.013.017-.031.04c-.012.01-.028.019-.04.019q-.033-.011-.062-.016a.5.5 0 0 0-.156-.004c-.035.004-.023.094-.102.102l-.129.015c-.003 0-.03-.015-.058-.011-.012.004-.043.039-.043.046v.02l.008.016c-.016.02-.055.054-.067.082l-.015.015c-.008.008-.063.028-.067.035-.011.032.04.063.032.075-.012.039-.067.078-.086.117-.004.015.02.07.02.086a1 1 0 0 0-.02.16l.007.066.028.024.07.14c.012.086-.117.055-.039.145q.007.022.031.039l.11.09c0 .015-.078.027-.09.039-.04.039-.067.101-.102.144-.023.02-.039-.003-.07.051-.008.02 0 .063-.012.078-.02.016-.031-.007-.05 0-.008 0-.012.028-.02.032-.02.02-.203.12-.219.105-.008-.004-.02-.035-.02-.043a.1.1 0 0 0-.023-.039c-.047-.039-.117-.05-.164 0q-.01.025-.027.04l-.078.066-.02.02c-.02 0-.062-.056-.078-.071-.016-.024-.078-.078-.082-.106 0-.093-.074-.195-.102-.285h.043c.051-.035.04-.117.13-.086.011-.015.011-.031.03-.039q.017-.01.028-.02c.031-.05.066-.23.035-.277-.027-.043-.059-.043-.078-.11a.2.2 0 0 1 0-.062l-.04-.12c-.01-.012-.023-.02-.027-.028l-.007-.125c-.028-.086-.133-.137-.137-.149l-.04-.07a.3.3 0 0 1-.023-.062c-.003-.012-.023-.024-.023-.035 0-.024.063-.067.059-.106 0-.012-.04-.05-.032-.074.008-.02.047-.07.047-.098 0-.031-.062-.101-.07-.133-.004-.02.023-.03.016-.043-.008-.015-.07-.078-.079-.093-.011-.012.02-.028 0-.051-.023-.02-.003-.016-.011-.031q-.017-.03-.04-.059a2 2 0 0 1-.058-.23q-.018-.017-.035-.04l-.016-.046s-.062-.02-.074-.04c-.008-.011-.012-.066-.027-.09l-.028-.015-.011-.027c-.02-.024-.055 0-.078-.094a1 1 0 0 1-.094-.07l-.016-.02a.2.2 0 0 1-.078-.027c-.012 0-.07 0-.078-.008l-.016-.031c-.031-.004-.086 0-.113-.024-.02-.02-.023-.11-.062-.097h-.016c-.027-.04-.113-.04-.149-.063-.007-.004-.039 0-.039-.008l.004-.054-.043-.055c-.035-.008-.023-.012-.039-.023-.058 0-.066.007-.101.039-.012.007-.024.015-.04.015-.019.012-.023.051-.05.031l-.024-.02c-.015-.015-.023-.007-.03-.03-.048-.028-.177.058-.204 0-.023-.012-.039 0-.059-.016-.007-.008.028-.117-.066-.156l.063-.043a.1.1 0 0 0 0-.043c0-.02.011-.055.007-.067l-.02-.039q-.003-.017-.007-.046l-.031-.016c-.028-.016-.047-.035-.067-.055l-.015-.02c-.016-.011-.07-.034-.07-.058l.015-.02q0-.018.012-.03c.023-.04.082-.02.074-.087-.004-.03-.027-.054-.031-.086a.1.1 0 0 1-.02-.027c-.058-.004-.05-.066-.07-.082-.059-.039-.106-.016-.04-.094.009-.027-.058-.07-.07-.082-.023-.023-.011-.078-.023-.101 0-.012-.043-.035-.055-.051l-.02-.04v-.003q.02-.022 0-.04c-.003-.01-.023-.007-.027-.015a.6.6 0 0 0-.19-.097c-.02-.012-.013-.028-.032-.036l-.117-.046c-.008 0-.016-.043-.024-.059l-.035-.04c0-.038-.023-.038-.055-.062v-.023l.024-.086c.004-.016.023-.031.02-.047l-.016-.09c-.032-.078-.067-.07-.047-.18q-.006-.03.012-.054l.007-.012.047-.035c.016-.023.028-.074.047-.09l.07-.05c.008-.008.016-.036.012-.047q-.023-.007-.047-.008l-.043-.016-.011-.02-.008-.007a.13.13 0 0 1-.055-.02q-.03-.006-.066-.02c-.04-.019-.078-.077-.114-.085-.046-.012-.078.004-.125.008-.027 0-.027-.016-.05-.024-.032-.012-.008.016-.079-.008-.011-.007 0-.03 0-.043h-.039c-.054-.015-.035-.07-.05-.105-.004-.008-.032-.008-.04-.008q-.006-.004-.007-.008l.008-.004c.007-.015-.028-.054-.028-.062.004-.012.078-.024.086-.024q-.001-.017-.008-.027a.3.3 0 0 1 .02-.07v-.008c-.024-.012-.027-.027-.047-.04.004-.007.008-.019.016-.026.035-.098.09-.02.136-.11l.024-.043h.038a.04.04 0 0 1 .032-.011h.02c.086-.016.066-.051.117-.086.015-.012.055-.016.07-.024q.03.024.082.055c.028.008.117.031.133.043.02.008.023.031.04.039.05.031.019-.016.07-.008.05.008.09.055.136.074l.04-.004a.5.5 0 0 1 .097-.015l.031.011c.012.004.02-.02.031-.02.032.009.032.02.078.017 0 0 .024-.133.047-.137.012-.004.047.031.055.035.016.004 0-.031 0-.031a.3.3 0 0 1-.027-.098q.007.005.03.004a.2.2 0 0 0 .079-.035l.04-.059c.003-.008-.009-.031 0-.039l.034-.023c.016-.016.016-.043.04-.055.077-.008.105-.07.179-.078h.023l.016.023c0 .004.05.036.059.032q.012-.002.02-.016c.01.004.054-.02.058-.035q-.005 0-.004-.024l.062-.046h.055a.04.04 0 0 0 .02.023h.046c.008 0 .012-.02.028-.02" style="stroke:none;fill-rule:nonzero;fill:#d0a650;fill-opacity:1"/><path d="m13.746 2.906.629 1.961-1.648-1.215h2.039l-1.649 1.215Zm2.453.438.625 1.965-1.644-1.215h2.035l-1.649 1.215Zm2.34.863.625 1.965-1.644-1.215h2.035l-1.649 1.219.633-1.965Zm-7.285-1.3-.629 1.96 1.648-1.215h-2.039l1.649 1.215ZM8.8 3.343l-.625 1.965L9.82 4.094H7.785l1.649 1.215Zm-2.328.863.632 1.965-1.648-1.215h2.035L5.844 6.172Zm0 0" style="stroke:none;fill-rule:nonzero;fill:#fff;fill-opacity:1"/></svg>