<?xml version="1.0" encoding="UTF-8"?>
<svg xmlns="http://www.w3.org/2000/svg" xmlns:xlink="http://www.w3.org/1999/xlink" width="25px" height="px" viewBox="0 0 25 19" version="1.1">
<g id="surface1">
<path style=" stroke:none;fill-rule:evenodd;fill:rgb(0%,0%,0.392157%);fill-opacity:1;" d="M 0 15.132812 L 0 3.875 L 8.273438 9.503906 Z M 0 15.132812 "/>
<path style=" stroke:none;fill-rule:evenodd;fill:rgb(0%,4.705882%,54.11765%);fill-opacity:1;" d="M 5.644531 19.003906 L 14.929688 12.671875 L 28.121094 12.671875 L 28.121094 19 L 5.644531 19 Z M 5.644531 19.003906 "/>
<path style=" stroke:none;fill-rule:evenodd;fill:rgb(88.235295%,22.352941%,17.647059%);fill-opacity:1;" d="M 5.050781 0 L 28.121094 0 L 28.121094 6.339844 L 14.925781 6.339844 C 14.925781 6.339844 5.171875 -0.0625 5.050781 0 "/>
<path style=" stroke:none;fill-rule:evenodd;fill:rgb(100%,72.549021%,8.235294%);fill-opacity:1;" d="M 0 2.375 L 0 3.875 L 8.273438 9.5 L -0.00390625 15.132812 L -0.00390625 16.628906 L 10.414062 9.503906 Z M 0 2.375 "/>
<path style=" stroke:none;fill-rule:evenodd;fill:rgb(0%,47.058824%,27.843139%);fill-opacity:1;" d="M 0 2.375 L 0 0 L 3.480469 0 L 14.507812 7.570312 L 28.125 7.570312 L 28.125 11.4375 L 14.507812 11.4375 L 3.476562 19 L 0 19 L 0 16.628906 L 10.414062 9.503906 L 0.00390625 2.375 Z M 0 2.375 "/>
<path style=" stroke:none;fill-rule:evenodd;fill:rgb(100%,100%,100%);fill-opacity:1;" d="M 3.476562 0 L 5.644531 0 L 14.929688 6.335938 L 28.121094 6.335938 L 28.121094 7.570312 L 14.507812 7.570312 Z M 3.476562 19.003906 L 5.644531 19.003906 L 14.929688 12.671875 L 28.121094 12.671875 L 28.121094 11.441406 L 14.507812 11.441406 L 3.476562 19 Z M 3.476562 19.003906 "/>
</g>
</svg>
