<svg xmlns="http://www.w3.org/2000/svg" width="25" height="px" viewBox="0 0 25 19"><path d="M0 15.133V3.875l8.273 5.629Zm0 0" style="stroke:none;fill-rule:evenodd;fill:#000001;fill-opacity:1"/><path d="m5.645 19.004 9.285-6.332H28.12V19H5.645Zm0 0" style="stroke:none;fill-rule:evenodd;fill:#000c8a;fill-opacity:1"/><path d="M5.05 0h23.071v6.34H14.926S5.172-.062 5.05 0" style="stroke:none;fill-rule:evenodd;fill:#e1392d;fill-opacity:1"/><path d="M0 2.375v1.5L8.273 9.5l-8.277 5.633v1.496l10.418-7.125Zm0 0" style="stroke:none;fill-rule:evenodd;fill:#ffb915;fill-opacity:1"/><path d="M0 2.375V0h3.48l11.028 7.57h13.617v3.867H14.508L3.477 19H0v-2.371l10.414-7.125L.004 2.375Zm0 0" style="stroke:none;fill-rule:evenodd;fill:#007847;fill-opacity:1"/><path d="M3.477 0h2.168l9.285 6.336H28.12V7.57H14.508Zm0 19.004h2.168l9.285-6.332H28.12v-1.23H14.508L3.477 19Zm0 0" style="stroke:none;fill-rule:evenodd;fill:#fff;fill-opacity:1"/></svg>