<svg xmlns="http://www.w3.org/2000/svg" width="25" height="px" viewBox="0 0 25 19"><path d="M0 0h25v19H0z" style="fill:#198a00;fill-opacity:1;stroke:none"/><path d="M21.7 6.828H25V19h-3.3Zm0 0" style="stroke:none;fill-rule:evenodd;fill:#ef7d00;fill-opacity:1"/><path d="M18.406 6.82H21.7v12.172h-3.293Zm0 0" style="stroke:none;fill-rule:evenodd;fill:#000001;fill-opacity:1"/><path d="M15.04 6.828h3.366V19h-3.37Zm0 0" style="stroke:none;fill-rule:evenodd;fill:#de2010;fill-opacity:1"/><path d="M451.627 65.579s33.92-14.526 37.12-17.474c1.6 1.79-13.547 20-42.88 26.737 26.666-6.21 49.28-26 54.08-25.474 1.28.316.96 19.369-60.054 35.79C482.133 74.21 506.56 53.789 506.347 56c.213.526-4.267 16-41.174 28.105 10.347-2.42 38.294-19.368 38.08-16.105.854 1.263-27.093 37.158-77.653 25.474 40.427 10.526 66.453-14.737 70.187-14.316.853.105-7.36 22-58.24 23.474 24.32-2.527 17.386-.106 17.386-.106s-14.293 11.158-31.68 3.58c13.547 3.683 15.04 3.894 15.36 4.947-.96 1.684-12.053 3.894-22.933-2 8.747 3.684 16.533 4.21 16.64 5.579-.107.315-5.653 3.579-10.667 1.263-4.906-2.316-50.24-30.106-50.24-30.106l77.44-21.263 2.774.948Zm-90.987 75.579c-6.827 0-7.04 6-7.04 6s-.533.526-.213 3.474l1.706-2.632c.854.105 3.947 1.053 8.854-2.842-4.587 4.737-1.814 6.42-1.814 6.42s-1.066 3.685 2.347 4.422c-.96-1.474-.427-2.842-.427-2.842s4.8-.421 4.587-6.21c.107 5.263 2.987 6.526 2.987 6.526s0 2.947 3.093 3.263c-1.6-1.58-1.28-3.79-1.28-3.79s3.947-3.052.64-8c2.027-1.263 3.733-4.526 3.733-4.526s-2.773-1.263-4.16-2.21c-.533-1.264 0-8.527 0-8.527l-1.706-9.263-4.8 14.526c.106-2 .213 6.21-6.507 6.21Zm0 0" style="fill-rule:evenodd;fill:#ef7d00;fill-opacity:1;stroke-width:1;stroke-linecap:butt;stroke-linejoin:round;stroke:#000;stroke-opacity:1;stroke-miterlimit:4" transform="matrix(.03662 0 0 .0371 6.25 0)"/><path d="M394.24 120.316c.213.105 5.013 5.579 9.813 5.263 1.814-1.474-3.626-4.632-3.626-5.474 1.92 1.79 10.026 8.842 15.36 6.316 2.026-3.053-3.84-2.526-10.24-10.632 4.586 3.053 15.786 9.474 21.013 7.053 2.133-2.42-11.627-9.895-16.32-15.79l-12.053-6-16.214 13.264 12.374 6Zm0 0" style="fill-rule:evenodd;fill:#ef7d00;fill-opacity:1;stroke-width:1;stroke-linecap:butt;stroke-linejoin:round;stroke:#000;stroke-opacity:1;stroke-miterlimit:4" transform="matrix(.03662 0 0 .0371 6.25 0)"/><path d="M375.893 74.842s5.547-3.263 27.627-1.684c2.347.316 14.933-4.21 19.093-5.684 6.4-1.158 26.987-5.58 32.427-9.79 3.947-.526-1.067 7.158-6.08 9.053-5.12 2.316-24.107 8.842-30.827 8 8.107.105 3.52 6.631-9.813 3.579 6.4 3.579 3.947 4.21 3.947 4.21s-11.307.527-14.294-2c7.574 2.842 4.374 4 4.374 4s-7.68.632-11.2-1.052c5.44 1.684 2.666 2.737 2.666 2.737s-4.48.736-8.213-.632c-3.84-1.263-9.387-10.632-9.707-10.632Zm0 0" style="fill-rule:evenodd;fill:#ef7d00;fill-opacity:1;stroke-width:1;stroke-linecap:round;stroke-linejoin:round;stroke:#000;stroke-opacity:1;stroke-miterlimit:4" transform="matrix(.03662 0 0 .0371 6.25 0)"/><path d="m384.747 123.368.746 14.632-.746 1.158c-.32.42-10.347-1.58-9.067 6 0 3.263 0 4 2.24 5.79-.533-2-.427-3.58-.427-3.58s2.88 1.685 5.654-2.947c-1.92 4.526-.64 6.316-.107 6.421.32.737-.853 4.421 2.987 4.316-1.494-1.369-.854-3.369-.854-3.369s4.054-.631 2.667-7.684c1.387-1.368 1.92 0 1.92 0s.427 4.21 3.947 3.263c1.493.948-.32 3.264-.32 3.264s2.56 0 3.306-2c.747-2.21 1.6-6-2.453-7.58-.533-1.578 1.6-1.684 1.6-1.684s2.56.948 3.307 2.21c.853 1.37.533-3.367-2.774-4-3.946 0-4.16-.841-4.16-.946l-.96-13.685Zm0 0" style="fill-rule:evenodd;fill:#ef7d00;fill-opacity:1;stroke-width:1;stroke-linecap:butt;stroke-linejoin:round;stroke:#000;stroke-opacity:1;stroke-miterlimit:4" transform="matrix(.03662 0 0 .0371 6.25 0)"/><path d="M398.613 135.79c0-.737-6.826-9.895-5.013-10.948 1.707.21 4.48 4.421 6.933 3.053-.746-1.58-2.88-.737-5.12-4.948-2.453-4.736-2.666-11.894-10.986-19.579 5.333 8.21 17.386 13.053 17.92 10.632.64-2.421-10.667-11.368-10.027-13.579 2.133 4.421 13.333 14.421 21.547 13.579.64-2-6.614-5.79-8.534-9.368-5.333-3.58-19.413-15.685-19.626-18.527-2.454-4.21-5.867-7.894-9.92-10.631l-.747-1.685c-3.2-7.473.96-10 3.413-10.315 2.027-.316 2.667 0 4.054-.632l-5.12-2c2.346 1.684 8 .21 6.826 4.947 2.454-.947 7.894-7.368-6.08-8.736-4.586-5.264-23.36-8.21-28.053 14.526.427.316.64.632 1.813 1.474-5.973-2.842-21.866-5.053-27.626-6.106-15.574-4.315-31.68-15.158-33.174-13.894-2.026 1.052 9.387 11.684 8.854 11.894-8.96-5.158-18.134-9.684-27.52-13.684-6.08-2.21-11.947-7.368-12.48-6.316-2.24 4.421 9.493 15.895 11.626 17.158 2.24 1.263 19.307 9.263 18.987 9.369-25.813-11.685-29.973-13.895-31.36-15.158-2.347-.527-7.787-8-9.28-7.474-.96.737.747 12.526 13.12 18 1.92 1.369 26.347 10.105 26.133 10.737 0 .21-27.946-11.474-29.013-12-5.333-2-11.947-9.368-13.12-8.526-1.28.736 2.987 8.736 8.32 11.263 2.987 1.158 13.867 6.631 23.68 10 .533.316-17.707-6.948-26.56-10.527-3.947-2.21-5.76-4.947-6.4-4.42-.96.631 1.387 12.42 29.76 19.052.64.421 9.92-2.105 9.493-1.79-5.226 1.264-10.56 2.211-15.786 2.737-.32.843 1.706 5.053 16.32 4.21 1.813-.104 12.053-3.683 11.093-2.946-4.8 1.79-9.707 3.473-14.72 4.842-.96 0-5.653.631-5.867 1.052-.213.737 3.52 3.79 11.307 4.21 7.04.317 20.267-4.21 20.053-3.894-.426.21-12.8 4.526-13.12 4.737-.533.316-5.013.526-5.226.947-.427.842 6.613 7.369 27.093.421-2.027 2.737-11.947 4.632-11.947 5.158s2.134 2.527 5.654 3.263c1.706.421 4.16.316 6.293 0 4.053-.736 8-2.315 13.333-7.157.64 1.473-13.12 8.526-12.48 9.052 2.987 2.842 12.907-.21 13.44-.631.747-.316 18.987-10.737 18.987-12 .32 1.579-23.68 14.631-23.36 15.157 1.493 2.422 9.707-.105 10.027-.42l10.773-5.79c.32-.105-11.84 7.053-10.773 8.21-.534 4.737 18.986-3.157 20.48-4.21.64-.526-9.387 4.421-9.387 6.737 3.307 5.473 13.653 3.79 15.253 2.631.854-.631-.96 4-.32 3.58 1.174-1.264 2.24-2.738 2.987-4.316-.213 1.578-1.493 4-2.027 6.736-.64 2.842-.96 6-1.813 9.264-.213 1.368 6.4-2.948 5.44-13.264.533 5.474-2.027 15.474-1.387 16 1.387 1.053 5.227-4.947 5.654-9.052 1.066 2 3.52 6.316 5.546 7.263-.106-3.053 0-2.947-.96-6 .534-4.105.854-9.474.854-16.105 5.546 10.736 7.893 15.368 6.293 23.579 1.707.631 4.267-5.79 4.053-9.053 1.174 5.579 5.867 9.684 11.52 10.21" style="fill-rule:evenodd;fill:#ef7d00;fill-opacity:1;stroke-width:1.1;stroke-linecap:round;stroke-linejoin:round;stroke:#000;stroke-opacity:1;stroke-miterlimit:4" transform="matrix(.03662 0 0 .0371 6.25 0)"/><path d="M305.387 67.684s-3.84 2.948-8.64 2.737c1.28 4.737 11.093 1.053 11.093 1.053s-4.693 5.368-8.107 6.105c1.92 1.684 10.56 1.158 11.947.316s4.053-4.21 4.053-4.21-8.853 10.21-10.026 10.104c-.32 1.158 9.066.843 10.986-.947 1.92-1.895 7.04-4.42 7.04-4.42s-13.013 8.946-13.546 8.946c4.8 1.264 14.506-1.579 20.693-5.368-9.173 6.105-10.027 7.158-14.72 9.263 4.267.948 6.293 3.684 20.373-2.316 8-3.894 12.587-10.842 12.587-10.842-6.08 7.158-13.44 13.263-21.653 18-.427.948 9.386 5.158 21.973-7.894" style="fill-rule:evenodd;fill:#ef7d00;fill-opacity:1;stroke-width:1.1;stroke-linecap:round;stroke-linejoin:round;stroke:#000;stroke-opacity:1;stroke-miterlimit:4" transform="matrix(.03662 0 0 .0371 6.25 0)"/><path d="M373.44 96s.853 4 4.267 6.947c3.413 3.053 3.626 6.106 3.626 6.106M371.84 70s1.067 3.684 4.587 6c3.52 2.21 8.96 9.368 9.28 10.737.426 1.474 2.453 12.526 2.346 13.79m-37.866-25.053c.213 1.579-5.014 8.315 2.24 16.42-6.614 8-6.614 9.053-6.614 9.053s3.734 2 10.24-3.684c10.774 13.263 7.147 19.263 7.147 19.263" style="fill-rule:evenodd;fill:#ef7d00;fill-opacity:1;stroke-width:1.1;stroke-linecap:round;stroke-linejoin:miter;stroke:#000;stroke-opacity:1;stroke-miterlimit:4" transform="matrix(.03662 0 0 .0371 6.25 0)"/><path d="M362.347 107.158s-1.067-1.369.746-6.632c1.6 2 3.414 2.316 4.054 2.948.853.947 9.066 2 9.493 7.473" style="fill-rule:evenodd;fill:#ef7d00;fill-opacity:1;stroke-width:1.1;stroke-linecap:round;stroke-linejoin:round;stroke:#000;stroke-opacity:1;stroke-miterlimit:4" transform="matrix(.03662 0 0 .0371 6.25 0)"/><path d="M371.947 57.474c0-.421-1.707-4-7.894.42 3.307.211 6.507 2.106 7.894-.42Zm0 0" style="fill-rule:evenodd;fill:#ef7d00;fill-opacity:1;stroke-width:1.1;stroke-linecap:butt;stroke-linejoin:miter;stroke:#000;stroke-opacity:1;stroke-miterlimit:4" transform="matrix(.03662 0 0 .0371 6.25 0)"/><path d="M430.08 73.474c.32.21 18.24 4 24.213 2.105-7.573 10.21-22.933 3.368-22.933 3.368 7.573 2.106 7.893 2 10.24 4.106.853 2-13.76 1.052-18.453-1.685 13.226 4.21 13.546 4 13.973 5.58.533 2.21-21.867-.632-23.68-3.58 5.973 4.632 9.173 5.58 12.48 7.58-4.053 1.894-11.52 3.684-25.173-6 17.92 16.315 34.24 15.368 36.8 18.21-6.294 9.368-30.614-5.474-41.814-12.947-11.2-7.474 24.427 18.105 27.734 17.684-1.6 2.526-13.334.316-14.187-.948" style="fill-rule:evenodd;fill:#ef7d00;fill-opacity:1;stroke-width:1.1;stroke-linecap:butt;stroke-linejoin:round;stroke:#000;stroke-opacity:1;stroke-miterlimit:4" transform="matrix(.03662 0 0 .0371 6.25 0)"/><path d="M434.667 90.737c-1.92.21-8.214.21-9.174.105" style="fill-rule:evenodd;fill:#ef7d00;fill-opacity:1;stroke-width:1.1;stroke-linecap:round;stroke-linejoin:miter;stroke:#000;stroke-opacity:1;stroke-miterlimit:4" transform="matrix(.03662 0 0 .0371 6.25 0)"/><path d="M300.053 65.053s13.654 7.158 19.414 6.631c-1.067.948-2.347 1.684-3.734 2 1.387.632 5.334 2.737 11.414 1.369l-3.307 3.052s5.12 2 10.987-1.052l-2.88 3.79 4.16.21" style="fill-rule:evenodd;fill:#ef7d00;fill-opacity:1;stroke-width:1.1;stroke-linecap:round;stroke-linejoin:round;stroke:#000;stroke-opacity:1;stroke-miterlimit:4" transform="matrix(.03662 0 0 .0371 6.25 0)"/></svg>