<?xml version="1.0" encoding="UTF-8"?>
<svg xmlns="http://www.w3.org/2000/svg" xmlns:xlink="http://www.w3.org/1999/xlink" width="25px" height="19px" viewBox="0 0 25 19" version="1.1">
<defs>
<clipPath id="clip1">
  <path d="M 0 0 L 24.996094 0 L 24.996094 19 L 0 19 Z M 0 0 "/>
</clipPath>
<clipPath id="clip2">
  <path d="M 0 2 L 24.996094 2 L 24.996094 17 L 0 17 Z M 0 2 "/>
</clipPath>
<clipPath id="clip3">
  <path d="M 0 5 L 24.996094 5 L 24.996094 14 L 0 14 Z M 0 5 "/>
</clipPath>
<clipPath id="clip4">
  <path d="M 0 8 L 24.996094 8 L 24.996094 11 L 0 11 Z M 0 8 "/>
</clipPath>
</defs>
<g id="surface1">
<g clip-path="url(#clip1)" clip-rule="nonzero">
<path style=" stroke:none;fill-rule:nonzero;fill:rgb(0%,39.215687%,0%);fill-opacity:1;" d="M -0.0898438 -0.00390625 L 38.371094 -0.00390625 L 38.371094 18.992188 L -0.0898438 18.992188 Z M -0.0898438 -0.00390625 "/>
</g>
<g clip-path="url(#clip2)" clip-rule="nonzero">
<path style=" stroke:none;fill-rule:nonzero;fill:rgb(100%,82.352942%,0%);fill-opacity:1;" d="M -0.0898438 2.710938 L 38.371094 2.710938 L 38.371094 16.277344 L -0.0898438 16.277344 Z M -0.0898438 2.710938 "/>
</g>
<g clip-path="url(#clip3)" clip-rule="nonzero">
<path style=" stroke:none;fill-rule:nonzero;fill:rgb(83.137256%,0%,0%);fill-opacity:1;" d="M -0.0898438 5.421875 L 38.371094 5.421875 L 38.371094 13.5625 L -0.0898438 13.5625 Z M -0.0898438 5.421875 "/>
</g>
<g clip-path="url(#clip4)" clip-rule="nonzero">
<path style=" stroke:none;fill-rule:nonzero;fill:rgb(0%,0%,0.392157%);fill-opacity:1;" d="M -0.0898438 8.136719 L 38.371094 8.136719 L 38.371094 10.851562 L -0.0898438 10.851562 Z M -0.0898438 8.136719 "/>
</g>
<path style="fill-rule:nonzero;fill:rgb(0%,0%,0%);fill-opacity:1;stroke-width:20;stroke-linecap:butt;stroke-linejoin:miter;stroke:rgb(0%,0%,0%);stroke-opacity:1;stroke-miterlimit:4;" d="M -0.0000000406788 0.00115158 L -0.0000000406788 420.009283 L 279.986359 209.962033 Z M -0.0000000406788 0.00115158 " transform="matrix(0.0457891,0,0,0.0452279,-0.0898437,-0.00395833)"/>
<path style=" stroke:none;fill-rule:nonzero;fill:rgb(100%,100%,100%);fill-opacity:1;" d="M -0.0898438 -0.00390625 L -0.0898438 18.992188 L 12.730469 9.492188 Z M -0.0898438 -0.00390625 "/>
<path style=" stroke:none;fill-rule:nonzero;fill:rgb(83.137256%,0%,0%);fill-opacity:1;" d="M 4.785156 4.71875 L 7.328125 12.4375 L 0.679688 7.667969 L 8.898438 7.667969 L 2.246094 12.4375 Z M 4.785156 4.71875 "/>
<path style=" stroke:none;fill-rule:nonzero;fill:rgb(100%,80.000001%,0%);fill-opacity:1;" d="M 3.703125 11.46875 L 4.148438 11.390625 L 4.980469 11.355469 L 5.285156 11.382812 L 5.972656 11.496094 L 6.023438 11.429688 L 6.023438 10.941406 L 6.105469 10.519531 L 6.242188 10.09375 L 6.394531 9.757812 L 6.585938 9.402344 L 6.898438 9.480469 L 6.980469 9.480469 L 6.988281 9.421875 L 6.328125 8.867188 L 5.644531 8.34375 L 4.648438 7.613281 L 4.558594 7.589844 L 4.453125 6.820312 L 4.375 6.589844 L 4.269531 6.5 L 4.074219 6.4375 L 3.851562 6.445312 L 3.75 6.5 L 3.542969 6.546875 L 3.429688 6.5625 L 3.359375 6.648438 L 3.347656 6.757812 L 3.65625 6.765625 L 3.734375 6.796875 L 3.722656 6.828125 L 3.550781 6.851562 L 3.46875 6.878906 L 3.5625 6.953125 L 3.664062 6.988281 L 3.792969 7.035156 L 3.820312 7.125 L 3.828125 8.289062 L 3.761719 8.472656 L 3.738281 8.8125 L 3.839844 9.21875 L 3.582031 9.507812 L 3.4375 9.765625 L 3.410156 9.921875 L 3.332031 10.082031 L 3.320312 10.179688 L 3.371094 10.289062 L 3.570312 10.933594 L 3.667969 11.460938 Z M 3.703125 11.46875 "/>
<path style=" stroke:none;fill-rule:nonzero;fill:rgb(0%,0%,0%);fill-opacity:1;" d="M 3.941406 6.417969 C 3.855469 6.417969 3.820312 6.425781 3.742188 6.46875 C 3.679688 6.503906 3.605469 6.527344 3.53125 6.53125 C 3.417969 6.53125 3.324219 6.613281 3.324219 6.71875 L 3.324219 6.785156 L 3.492188 6.78125 C 3.976562 6.792969 3.535156 6.839844 3.5 6.84375 C 3.382812 6.867188 3.527344 6.960938 3.667969 7.011719 C 3.820312 7.054688 3.8125 7.027344 3.8125 7.6875 C 3.8125 8.226562 3.8125 8.304688 3.765625 8.425781 C 3.707031 8.609375 3.707031 8.878906 3.765625 9.058594 C 3.792969 9.132812 3.8125 9.195312 3.8125 9.207031 C 3.8125 9.222656 3.738281 9.304688 3.652344 9.402344 C 3.492188 9.585938 3.394531 9.769531 3.394531 9.902344 C 3.390625 9.941406 3.375 9.984375 3.347656 10.019531 C 3.289062 10.09375 3.289062 10.226562 3.34375 10.277344 C 3.402344 10.332031 3.648438 11.261719 3.652344 11.4375 C 3.652344 11.503906 3.660156 11.503906 4.03125 11.429688 C 4.332031 11.371094 5.042969 11.355469 5.40625 11.402344 C 5.570312 11.425781 5.761719 11.460938 5.832031 11.476562 C 6.050781 11.535156 6.042969 11.542969 6.042969 11.28125 C 6.042969 10.867188 6.121094 10.457031 6.273438 10.074219 C 6.363281 9.855469 6.46875 9.640625 6.589844 9.441406 C 6.589844 9.441406 6.671875 9.449219 6.773438 9.476562 C 6.960938 9.519531 7.015625 9.515625 7.015625 9.429688 C 7.015625 9.386719 6.820312 9.222656 5.855469 8.480469 C 5.464844 8.164062 5.0625 7.867188 4.648438 7.582031 C 4.617188 7.582031 4.597656 7.570312 4.589844 7.550781 L 4.519531 7.121094 C 4.488281 6.898438 4.441406 6.679688 4.425781 6.636719 C 4.363281 6.503906 4.234375 6.429688 4.03125 6.417969 Z M 3.945312 6.464844 L 4.035156 6.464844 C 4.339844 6.480469 4.394531 6.5625 4.476562 7.097656 L 4.53125 7.523438 C 4.535156 7.554688 4.484375 7.605469 4.382812 7.671875 C 4.210938 7.792969 4.054688 7.9375 3.925781 8.101562 L 3.867188 8.183594 L 3.851562 7.992188 L 3.851562 7.457031 C 3.867188 7.066406 3.851562 7.027344 3.722656 6.984375 C 3.617188 6.949219 3.480469 6.910156 3.519531 6.890625 C 3.5625 6.863281 3.609375 6.878906 3.71875 6.847656 C 3.765625 6.839844 3.761719 6.84375 3.75 6.808594 C 3.742188 6.75 3.679688 6.71875 3.507812 6.726562 C 3.371094 6.734375 3.359375 6.730469 3.367188 6.695312 C 3.386719 6.621094 3.457031 6.578125 3.574219 6.5625 C 3.644531 6.554688 3.710938 6.535156 3.773438 6.503906 C 3.824219 6.472656 3.882812 6.457031 3.945312 6.460938 Z M 4.625 7.628906 L 4.644531 7.628906 C 4.722656 7.644531 6.972656 9.378906 6.972656 9.429688 C 6.972656 9.453125 6.957031 9.460938 6.925781 9.460938 C 6.90625 9.460938 6.335938 9.304688 5.65625 9.109375 C 4.574219 8.792969 4.421875 8.746094 4.375 8.6875 C 4.308594 8.609375 4.304688 8.492188 4.371094 8.410156 C 4.390625 8.382812 4.40625 8.351562 4.414062 8.316406 C 4.414062 8.265625 4.300781 8.398438 4.277344 8.476562 C 4.253906 8.566406 4.300781 8.71875 4.371094 8.769531 C 4.398438 8.792969 4.605469 8.859375 4.828125 8.929688 C 5.210938 9.035156 5.238281 9.050781 5.257812 9.113281 C 5.304688 9.261719 5.144531 9.441406 4.914062 9.488281 C 4.828125 9.511719 4.75 9.546875 4.675781 9.597656 C 4.4375 9.792969 4.175781 9.949219 3.890625 10.066406 C 3.871094 10.082031 3.847656 10.152344 3.835938 10.222656 C 3.808594 10.371094 3.796875 10.394531 3.75 10.394531 C 3.726562 10.398438 3.722656 10.375 3.742188 10.332031 C 3.773438 10.238281 3.769531 10.132812 3.738281 10.132812 C 3.714844 10.132812 3.707031 10.160156 3.707031 10.214844 C 3.707031 10.257812 3.691406 10.3125 3.675781 10.324219 C 3.652344 10.351562 3.648438 10.335938 3.65625 10.222656 C 3.664062 10.144531 3.660156 10.085938 3.652344 10.085938 C 3.628906 10.085938 3.585938 10.199219 3.574219 10.300781 C 3.566406 10.359375 3.558594 10.355469 3.546875 10.285156 C 3.53125 10.230469 3.535156 10.195312 3.578125 10.128906 C 3.605469 10.078125 3.621094 10.023438 3.625 9.96875 C 3.625 9.910156 3.667969 9.851562 3.882812 9.636719 C 4.023438 9.5 4.191406 9.320312 4.25 9.246094 C 4.355469 9.117188 4.359375 9.109375 4.355469 8.976562 C 4.355469 8.90625 4.347656 8.839844 4.339844 8.828125 C 4.308594 8.800781 4.273438 8.945312 4.292969 9.023438 C 4.300781 9.097656 4.292969 9.117188 4.140625 9.292969 C 4.03125 9.417969 3.917969 9.535156 3.796875 9.648438 C 3.617188 9.808594 3.554688 9.902344 3.554688 9.980469 C 3.554688 10.007812 3.535156 10.074219 3.507812 10.132812 C 3.480469 10.191406 3.472656 10.25 3.480469 10.261719 C 3.488281 10.277344 3.484375 10.277344 3.46875 10.261719 C 3.445312 10.246094 3.445312 10.199219 3.464844 10.128906 C 3.472656 10.089844 3.476562 10.050781 3.472656 10.007812 C 3.449219 9.964844 3.417969 10.019531 3.402344 10.132812 C 3.394531 10.195312 3.382812 10.246094 3.367188 10.234375 C 3.335938 10.21875 3.34375 10.101562 3.386719 10.035156 C 3.410156 10.003906 3.429688 9.933594 3.445312 9.875 C 3.476562 9.707031 3.550781 9.570312 3.710938 9.390625 L 3.855469 9.21875 L 3.8125 9.070312 C 3.75 8.867188 3.746094 8.652344 3.800781 8.449219 C 3.859375 8.28125 3.980469 8.105469 4.167969 7.921875 C 4.351562 7.742188 4.53125 7.636719 4.625 7.628906 M 5.3125 9.085938 C 5.324219 9.085938 5.335938 9.089844 5.34375 9.09375 C 5.355469 9.097656 5.359375 9.105469 5.359375 9.113281 C 5.351562 9.125 5.335938 9.132812 5.320312 9.132812 C 5.300781 9.132812 5.285156 9.125 5.28125 9.113281 C 5.28125 9.101562 5.292969 9.089844 5.3125 9.085938 M 5.429688 9.101562 C 5.4375 9.097656 5.449219 9.101562 5.460938 9.105469 C 5.46875 9.113281 5.472656 9.121094 5.472656 9.128906 C 5.46875 9.136719 5.453125 9.144531 5.433594 9.144531 C 5.417969 9.144531 5.402344 9.136719 5.394531 9.128906 C 5.394531 9.113281 5.410156 9.101562 5.429688 9.101562 M 5.546875 9.121094 C 5.558594 9.121094 5.570312 9.125 5.578125 9.128906 C 5.585938 9.136719 5.59375 9.140625 5.59375 9.148438 C 5.585938 9.160156 5.570312 9.167969 5.554688 9.167969 C 5.535156 9.167969 5.519531 9.160156 5.515625 9.148438 C 5.515625 9.136719 5.527344 9.125 5.546875 9.121094 M 5.65625 9.144531 C 5.667969 9.144531 5.679688 9.148438 5.6875 9.152344 C 5.699219 9.15625 5.703125 9.164062 5.703125 9.171875 C 5.695312 9.183594 5.679688 9.191406 5.664062 9.191406 C 5.644531 9.191406 5.628906 9.183594 5.625 9.171875 C 5.625 9.160156 5.636719 9.148438 5.65625 9.144531 M 5.367188 9.171875 C 5.378906 9.171875 5.390625 9.175781 5.398438 9.179688 C 5.410156 9.183594 5.414062 9.191406 5.414062 9.199219 C 5.410156 9.210938 5.394531 9.21875 5.375 9.21875 C 5.359375 9.21875 5.34375 9.210938 5.335938 9.199219 C 5.335938 9.1875 5.347656 9.175781 5.367188 9.171875 M 5.476562 9.191406 C 5.488281 9.191406 5.5 9.191406 5.511719 9.199219 C 5.519531 9.203125 5.523438 9.210938 5.523438 9.21875 C 5.519531 9.230469 5.503906 9.234375 5.484375 9.234375 C 5.46875 9.234375 5.453125 9.230469 5.445312 9.21875 C 5.445312 9.207031 5.457031 9.195312 5.476562 9.191406 M 5.714844 9.199219 C 5.726562 9.199219 5.738281 9.203125 5.75 9.207031 C 5.757812 9.210938 5.761719 9.21875 5.761719 9.226562 C 5.757812 9.238281 5.742188 9.246094 5.722656 9.246094 C 5.707031 9.246094 5.691406 9.238281 5.683594 9.226562 C 5.683594 9.214844 5.695312 9.203125 5.714844 9.199219 M 5.59375 9.199219 C 5.605469 9.199219 5.617188 9.203125 5.625 9.207031 C 5.632812 9.210938 5.636719 9.21875 5.636719 9.226562 C 5.632812 9.238281 5.617188 9.246094 5.597656 9.246094 C 5.582031 9.246094 5.566406 9.238281 5.558594 9.226562 C 5.558594 9.214844 5.574219 9.203125 5.59375 9.199219 M 5.820312 9.226562 C 5.824219 9.226562 5.992188 9.261719 6.1875 9.316406 L 6.550781 9.421875 L 6.480469 9.542969 L 6.371094 9.742188 C 6.324219 9.832031 6.316406 9.832031 6.097656 9.785156 C 5.859375 9.730469 5.484375 9.679688 5.097656 9.648438 L 4.730469 9.617188 L 4.867188 9.566406 L 5.113281 9.457031 C 5.203125 9.40625 5.238281 9.398438 5.382812 9.414062 C 5.589844 9.425781 5.722656 9.386719 5.78125 9.304688 L 5.824219 9.226562 Z M 5.417969 9.253906 C 5.429688 9.253906 5.441406 9.253906 5.449219 9.261719 C 5.460938 9.265625 5.464844 9.273438 5.464844 9.28125 C 5.457031 9.292969 5.441406 9.300781 5.425781 9.300781 C 5.40625 9.300781 5.390625 9.292969 5.386719 9.28125 C 5.386719 9.269531 5.398438 9.257812 5.417969 9.253906 M 5.675781 9.253906 C 5.6875 9.253906 5.699219 9.253906 5.707031 9.261719 C 5.714844 9.265625 5.722656 9.273438 5.722656 9.28125 C 5.714844 9.289062 5.699219 9.296875 5.683594 9.296875 C 5.667969 9.296875 5.65625 9.289062 5.648438 9.28125 C 5.648438 9.269531 5.660156 9.257812 5.679688 9.253906 Z M 5.308594 9.253906 C 5.320312 9.253906 5.332031 9.253906 5.339844 9.261719 C 5.347656 9.265625 5.355469 9.273438 5.355469 9.28125 C 5.347656 9.292969 5.332031 9.300781 5.316406 9.300781 C 5.296875 9.300781 5.28125 9.292969 5.277344 9.28125 C 5.277344 9.269531 5.292969 9.261719 5.308594 9.257812 Z M 5.550781 9.261719 C 5.574219 9.261719 5.59375 9.269531 5.597656 9.285156 C 5.589844 9.296875 5.574219 9.304688 5.558594 9.304688 C 5.539062 9.304688 5.523438 9.296875 5.519531 9.285156 C 5.523438 9.273438 5.535156 9.265625 5.550781 9.261719 M 5.25 9.3125 C 5.261719 9.3125 5.273438 9.316406 5.28125 9.320312 C 5.289062 9.324219 5.296875 9.332031 5.296875 9.339844 C 5.289062 9.351562 5.273438 9.359375 5.257812 9.359375 C 5.238281 9.359375 5.222656 9.351562 5.21875 9.339844 C 5.214844 9.328125 5.230469 9.316406 5.25 9.3125 M 5.363281 9.3125 C 5.375 9.3125 5.390625 9.316406 5.398438 9.320312 C 5.40625 9.328125 5.410156 9.335938 5.410156 9.34375 C 5.402344 9.355469 5.386719 9.363281 5.371094 9.363281 C 5.351562 9.363281 5.335938 9.355469 5.332031 9.34375 C 5.332031 9.332031 5.34375 9.320312 5.363281 9.316406 Z M 5.484375 9.320312 C 5.503906 9.320312 5.523438 9.332031 5.527344 9.34375 C 5.523438 9.355469 5.507812 9.363281 5.488281 9.363281 C 5.472656 9.363281 5.457031 9.355469 5.449219 9.34375 C 5.453125 9.332031 5.464844 9.324219 5.484375 9.320312 M 5.609375 9.320312 C 5.621094 9.320312 5.632812 9.324219 5.644531 9.328125 C 5.652344 9.335938 5.65625 9.339844 5.65625 9.347656 C 5.652344 9.359375 5.636719 9.367188 5.617188 9.367188 C 5.601562 9.367188 5.585938 9.359375 5.578125 9.347656 C 5.578125 9.335938 5.589844 9.324219 5.609375 9.320312 M 4.679688 9.6875 C 5.222656 9.703125 5.761719 9.765625 6.289062 9.878906 C 6.292969 9.882812 6.261719 9.992188 6.210938 10.121094 L 6.121094 10.394531 C 6.121094 10.414062 6.082031 10.417969 6.003906 10.40625 C 5.625 10.347656 4.527344 10.351562 4.105469 10.417969 C 3.863281 10.453125 3.828125 10.449219 3.847656 10.398438 L 3.894531 10.238281 L 3.921875 10.117188 L 4.167969 9.992188 C 4.332031 9.910156 4.488281 9.808594 4.636719 9.699219 L 4.675781 9.699219 Z M 3.445312 10.332031 C 3.460938 10.332031 3.484375 10.34375 3.519531 10.367188 C 3.5625 10.394531 3.617188 10.417969 3.640625 10.417969 C 3.761719 10.417969 3.824219 10.582031 3.925781 11.140625 L 3.960938 11.339844 C 3.972656 11.382812 3.960938 11.394531 3.855469 11.417969 C 3.730469 11.441406 3.695312 11.449219 3.695312 11.429688 C 3.695312 11.382812 3.570312 10.808594 3.515625 10.605469 L 3.441406 10.335938 L 3.445312 10.335938 Z M 4.753906 10.421875 L 4.886719 10.421875 L 4.839844 10.464844 C 4.765625 10.558594 4.726562 10.5625 4.671875 10.503906 L 4.625 10.433594 C 4.625 10.425781 4.6875 10.417969 4.753906 10.417969 Z M 5.035156 10.421875 L 5.28125 10.421875 L 5.226562 10.476562 C 5.164062 10.546875 5.15625 10.546875 5.089844 10.476562 L 5.035156 10.417969 Z M 5.410156 10.421875 L 5.46875 10.421875 C 5.5 10.421875 5.558594 10.421875 5.597656 10.429688 L 5.664062 10.445312 L 5.601562 10.503906 C 5.5625 10.539062 5.539062 10.558594 5.527344 10.558594 L 5.464844 10.484375 Z M 5.796875 10.433594 L 5.855469 10.449219 C 5.886719 10.457031 5.953125 10.460938 6.003906 10.464844 L 6.097656 10.464844 L 6.027344 10.523438 L 5.945312 10.582031 C 5.941406 10.582031 5.898438 10.546875 5.867188 10.507812 Z M 4.414062 10.4375 L 4.425781 10.4375 C 4.429688 10.453125 4.414062 10.480469 4.378906 10.515625 L 4.332031 10.578125 L 4.265625 10.523438 L 4.195312 10.464844 L 4.304688 10.453125 Z M 4.519531 10.449219 L 4.59375 10.511719 L 4.667969 10.578125 L 4.53125 10.589844 L 4.394531 10.59375 L 4.457031 10.523438 Z M 5.34375 10.449219 C 5.359375 10.449219 5.371094 10.453125 5.382812 10.460938 L 5.441406 10.539062 C 5.464844 10.570312 5.449219 10.585938 5.394531 10.582031 L 5.28125 10.5625 L 5.226562 10.546875 L 5.285156 10.488281 C 5.308594 10.457031 5.332031 10.445312 5.351562 10.445312 Z M 4.964844 10.449219 C 4.988281 10.445312 5.011719 10.464844 5.039062 10.507812 C 5.070312 10.558594 5.070312 10.558594 4.945312 10.558594 L 4.824219 10.558594 L 4.886719 10.496094 C 4.917969 10.46875 4.945312 10.453125 4.964844 10.453125 Z M 5.742188 10.457031 L 5.796875 10.511719 C 5.863281 10.570312 5.871094 10.601562 5.824219 10.601562 L 5.699219 10.589844 L 5.597656 10.578125 L 5.671875 10.519531 Z M 4.132812 10.488281 C 4.140625 10.488281 4.175781 10.511719 4.207031 10.542969 L 4.261719 10.601562 L 4.144531 10.621094 L 3.984375 10.644531 C 3.953125 10.652344 3.96875 10.628906 4.03125 10.570312 C 4.082031 10.519531 4.117188 10.492188 4.132812 10.488281 M 3.960938 10.488281 L 3.980469 10.488281 C 4.015625 10.496094 4.015625 10.507812 3.953125 10.570312 L 3.882812 10.636719 L 3.863281 10.578125 C 3.84375 10.535156 3.847656 10.519531 3.890625 10.503906 Z M 6.070312 10.570312 C 6.078125 10.570312 6.078125 10.578125 6.070312 10.597656 C 6.058594 10.632812 6.019531 10.644531 6.019531 10.605469 C 6.019531 10.597656 6.027344 10.585938 6.050781 10.574219 Z M 5.089844 10.644531 C 5.441406 10.644531 5.796875 10.652344 5.886719 10.660156 C 6.027344 10.679688 6.042969 10.683594 6.042969 10.738281 C 6.042969 10.800781 6.023438 10.804688 5.832031 10.773438 C 5.777344 10.761719 5.542969 10.742188 5.316406 10.722656 C 4.882812 10.699219 4.445312 10.714844 4.011719 10.769531 C 3.925781 10.777344 3.902344 10.769531 3.902344 10.742188 C 3.902344 10.683594 4.371094 10.644531 5.089844 10.644531 M 4.617188 10.773438 L 4.863281 10.773438 L 4.808594 10.832031 C 4.742188 10.90625 4.734375 10.90625 4.671875 10.832031 Z M 4.9375 10.773438 L 5 10.835938 L 5.066406 10.910156 L 4.933594 10.914062 L 4.800781 10.914062 L 4.867188 10.839844 Z M 5.035156 10.773438 L 5.28125 10.773438 L 5.226562 10.832031 C 5.164062 10.90625 5.15625 10.90625 5.089844 10.832031 Z M 4.449219 10.773438 C 4.457031 10.773438 4.445312 10.796875 4.414062 10.839844 C 4.378906 10.886719 4.355469 10.910156 4.347656 10.914062 C 4.332031 10.910156 4.308594 10.890625 4.277344 10.855469 L 4.222656 10.796875 L 4.304688 10.796875 C 4.347656 10.796875 4.390625 10.789062 4.429688 10.777344 Z M 4.539062 10.796875 L 4.597656 10.851562 L 4.667969 10.910156 L 4.546875 10.917969 L 4.414062 10.925781 L 4.480469 10.859375 Z M 5.335938 10.796875 L 5.398438 10.867188 C 5.472656 10.945312 5.46875 10.949219 5.304688 10.917969 L 5.226562 10.90625 Z M 5.429688 10.796875 L 5.539062 10.796875 C 5.652344 10.792969 5.675781 10.820312 5.601562 10.878906 C 5.546875 10.921875 5.546875 10.921875 5.484375 10.855469 Z M 4.027344 10.820312 C 4.082031 10.820312 4.078125 10.824219 4.007812 10.890625 C 3.957031 10.941406 3.953125 10.941406 3.933594 10.90625 C 3.925781 10.855469 3.957031 10.828125 4.027344 10.820312 M 5.804688 10.828125 C 5.824219 10.828125 5.855469 10.832031 5.894531 10.835938 L 6 10.855469 L 5.941406 10.910156 L 5.886719 10.964844 L 5.835938 10.902344 L 5.789062 10.828125 Z M 4.15625 10.851562 C 4.167969 10.851562 4.183594 10.859375 4.207031 10.882812 C 4.25 10.925781 4.25 10.925781 4.214844 10.945312 L 4.105469 10.964844 L 4.03125 10.964844 L 4.089844 10.902344 C 4.121094 10.871094 4.140625 10.855469 4.148438 10.851562 Z M 5.714844 10.863281 C 5.730469 10.859375 5.75 10.875 5.769531 10.910156 L 5.8125 10.964844 L 5.714844 10.964844 C 5.65625 10.964844 5.625 10.953125 5.625 10.9375 C 5.632812 10.914062 5.652344 10.894531 5.683594 10.878906 Z M 6.007812 10.921875 C 6.019531 10.921875 6.019531 10.929688 6.019531 10.945312 C 6.019531 10.992188 5.976562 11.023438 5.957031 10.992188 C 5.957031 10.976562 5.964844 10.960938 5.980469 10.941406 Z M 4.824219 10.976562 C 5.222656 10.976562 5.660156 11.003906 5.921875 11.050781 L 5.996094 11.0625 L 5.996094 11.261719 C 5.996094 11.410156 5.988281 11.460938 5.964844 11.460938 L 5.734375 11.417969 C 5.203125 11.328125 4.664062 11.3125 4.132812 11.371094 L 4.027344 11.382812 L 4 11.21875 L 3.980469 11.046875 C 3.980469 11.046875 4.085938 11.023438 4.210938 11.007812 C 4.359375 10.988281 4.585938 10.976562 4.824219 10.976562 "/>
<path style=" stroke:none;fill-rule:nonzero;fill:rgb(0%,0%,0%);fill-opacity:1;" d="M 5.625 9.847656 C 5.488281 9.847656 5.390625 9.941406 5.390625 10.082031 C 5.390625 10.300781 5.636719 10.40625 5.785156 10.253906 C 5.929688 10.101562 5.832031 9.847656 5.625 9.847656 M 5.625 9.902344 C 5.726562 9.902344 5.808594 9.980469 5.808594 10.082031 C 5.808594 10.21875 5.65625 10.308594 5.53125 10.25 C 5.410156 10.179688 5.417969 9.972656 5.550781 9.917969 Z M 5.625 9.902344 "/>
<path style=" stroke:none;fill-rule:nonzero;fill:rgb(0%,0%,0%);fill-opacity:1;" d="M 4.703125 9.820312 C 4.566406 9.820312 4.472656 9.914062 4.472656 10.054688 C 4.472656 10.273438 4.71875 10.378906 4.863281 10.226562 C 5.011719 10.074219 4.910156 9.820312 4.703125 9.820312 M 4.703125 9.875 C 4.804688 9.875 4.886719 9.953125 4.886719 10.054688 C 4.886719 10.191406 4.734375 10.28125 4.613281 10.222656 C 4.488281 10.152344 4.5 9.945312 4.632812 9.890625 Z M 4.703125 9.875 "/>
<path style=" stroke:none;fill-rule:nonzero;fill:rgb(0%,0%,0%);fill-opacity:1;" d="M 3.941406 6.566406 C 3.898438 6.570312 3.867188 6.601562 3.867188 6.644531 C 3.867188 6.691406 3.902344 6.726562 3.945312 6.726562 C 3.992188 6.726562 4.027344 6.691406 4.027344 6.644531 C 4.027344 6.621094 4.015625 6.601562 4 6.585938 C 3.984375 6.570312 3.960938 6.566406 3.941406 6.566406 M 3.945312 6.59375 C 3.972656 6.59375 3.996094 6.617188 4 6.644531 C 4 6.671875 3.972656 6.695312 3.945312 6.695312 C 3.914062 6.695312 3.890625 6.671875 3.890625 6.644531 C 3.890625 6.617188 3.914062 6.59375 3.945312 6.59375 "/>
</g>
</svg>
