<svg xmlns="http://www.w3.org/2000/svg" width="25" height="19" viewBox="0 0 25 19"><defs><clipPath id="a"><path d="M0 0h24.996v19H0Zm0 0"/></clipPath><clipPath id="b"><path d="M0 2h24.996v15H0Zm0 0"/></clipPath><clipPath id="c"><path d="M0 5h24.996v9H0Zm0 0"/></clipPath><clipPath id="d"><path d="M0 8h24.996v3H0Zm0 0"/></clipPath></defs><g clip-path="url(#a)"><path d="M-.09-.004h38.461v18.996H-.089Zm0 0" style="stroke:none;fill-rule:nonzero;fill:#006400;fill-opacity:1"/></g><g clip-path="url(#b)"><path d="M-.09 2.71h38.461v13.567H-.089Zm0 0" style="stroke:none;fill-rule:nonzero;fill:#ffd200;fill-opacity:1"/></g><g clip-path="url(#c)"><path d="M-.09 5.422h38.461v8.14H-.089Zm0 0" style="stroke:none;fill-rule:nonzero;fill:#d40000;fill-opacity:1"/></g><g clip-path="url(#d)"><path d="M-.09 8.137h38.461v2.715H-.089Zm0 0" style="stroke:none;fill-rule:nonzero;fill:#000001;fill-opacity:1"/></g><path d="M0 .001V420.01l279.986-210.047Zm0 0" style="fill-rule:nonzero;fill:#000;fill-opacity:1;stroke-width:20;stroke-linecap:butt;stroke-linejoin:miter;stroke:#000;stroke-opacity:1;stroke-miterlimit:4" transform="matrix(.04579 0 0 .04523 -.09 -.004)"/><path d="M-.09-.004v18.996l12.82-9.5Zm0 0" style="stroke:none;fill-rule:nonzero;fill:#fff;fill-opacity:1"/><path d="m4.785 4.719 2.543 7.719L.68 7.668h8.218l-6.652 4.77Zm0 0" style="stroke:none;fill-rule:nonzero;fill:#d40000;fill-opacity:1"/><path d="m3.703 11.469.445-.078.832-.036.305.028.688.113.05-.066v-.489l.082-.421.137-.426.153-.336.19-.356.313.078h.082l.008-.058-.66-.555-.683-.523-.997-.73-.09-.024-.105-.77-.078-.23-.105-.09-.196-.062-.222.007-.102.055-.207.047-.113.016-.07.085-.012.11.308.008.078.03-.011.032-.172.024-.082.027.094.074.101.035.129.047.027.09.008 1.164-.066.184-.024.34.102.406-.258.289-.144.258-.028.156-.078.16-.012.098.051.11.2.644.097.527Zm0 0" style="stroke:none;fill-rule:nonzero;fill:#fc0;fill-opacity:1"/><path d="M3.941 6.418a.33.33 0 0 0-.199.05.5.5 0 0 1-.21.063c-.114 0-.208.082-.208.188v.066l.168-.004c.485.012.043.059.008.063-.117.023.027.117.168.168.152.043.144.015.144.676 0 .539 0 .617-.046.738a1.16 1.16 0 0 0 0 .633 1 1 0 0 1 .046.148c0 .016-.074.098-.16.195-.16.184-.257.368-.257.5a.23.23 0 0 1-.047.118c-.059.074-.059.207-.004.257.058.055.304.985.308 1.16 0 .067.008.067.38-.007.3-.059 1.011-.075 1.374-.028.164.024.356.059.426.075.219.058.211.066.211-.196 0-.414.078-.824.23-1.207.09-.219.196-.433.317-.633 0 0 .082.008.183.036.188.043.243.039.243-.047 0-.043-.196-.207-1.16-.95q-.586-.472-1.208-.898-.046-.001-.058-.031l-.07-.43a4 4 0 0 0-.094-.484q-.093-.2-.395-.219Zm.004.047h.09c.305.015.36.098.442.633l.054.425q.005.048-.148.149a2.2 2.2 0 0 0-.457.43l-.059.082-.015-.192v-.535c.015-.39 0-.43-.13-.473-.105-.035-.242-.074-.202-.093.042-.028.09-.012.199-.043.047-.008.043-.004.031-.04-.008-.058-.07-.09-.242-.081-.137.007-.149.003-.14-.032q.03-.11.206-.133a.6.6 0 0 0 .2-.058.3.3 0 0 1 .171-.043Zm.68 1.164h.02c.078.016 2.328 1.75 2.328 1.8 0 .024-.016.032-.047.032-.02 0-.59-.156-1.27-.352-1.082-.316-1.234-.363-1.281-.421a.22.22 0 0 1-.004-.278.3.3 0 0 0 .043-.094c0-.05-.113.082-.137.16-.023.09.024.243.094.294.027.023.234.09.457.16.383.105.41.12.43.183.047.149-.113.328-.344.375a.8.8 0 0 0-.238.11q-.358.293-.785.468c-.02.016-.043.086-.055.157-.027.148-.04.172-.086.172q-.035.003-.008-.063c.031-.094.028-.2-.004-.2q-.033 0-.031.083c0 .043-.016.098-.031.11-.024.027-.028.01-.02-.102.008-.078.004-.137-.004-.137-.023 0-.066.113-.078.215q-.01.088-.027-.016c-.016-.055-.012-.09.031-.156a.4.4 0 0 0 .047-.16c0-.059.043-.117.258-.332.14-.137.308-.317.367-.39.105-.13.11-.138.105-.27a.5.5 0 0 0-.015-.149c-.031-.027-.067.117-.047.195.008.075 0 .094-.152.27q-.164.187-.344.355c-.18.16-.242.254-.242.332 0 .028-.02.094-.047.153-.028.058-.035.117-.028.129q.012.023-.011 0-.035-.026-.004-.133.013-.058.008-.121c-.024-.043-.055.012-.07.125-.008.062-.02.113-.036.101-.031-.015-.023-.132.02-.199a.6.6 0 0 0 .058-.16c.032-.168.106-.305.266-.484l.144-.172-.042-.149a1.1 1.1 0 0 1-.012-.62q.087-.254.367-.528c.184-.18.363-.285.457-.293m.688 1.457q.018.001.03.008.017.006.016.02a.05.05 0 0 1-.039.019q-.032-.001-.039-.02c0-.011.012-.023.032-.027m.117.016c.008-.004.02 0 .03.003q.013.012.013.024c-.004.008-.02.016-.04.016a.06.06 0 0 1-.038-.016c0-.016.015-.027.035-.027m.117.02q.018 0 .031.007c.008.008.016.012.016.02a.05.05 0 0 1-.04.019q-.03-.001-.038-.02c0-.011.011-.023.03-.027m.11.024q.019 0 .032.007.016.007.015.02a.05.05 0 0 1-.039.02q-.032-.001-.039-.02c0-.012.012-.024.031-.027m-.289.027q.02.001.031.008.017.006.016.02c-.004.01-.02.019-.039.019a.05.05 0 0 1-.04-.02c0-.011.013-.023.032-.027m.11.02q.017-.002.035.007a.02.02 0 0 1 .011.02c-.003.011-.02.015-.039.015q-.024 0-.039-.015.001-.02.032-.028m.238.008q.018.001.035.008a.02.02 0 0 1 .012.02q-.008.018-.04.02a.05.05 0 0 1-.038-.02q0-.02.03-.028m-.12 0q.018.001.031.008a.02.02 0 0 1 .012.02q-.008.018-.04.02a.05.05 0 0 1-.038-.02c0-.012.015-.024.035-.028m.226.028c.004 0 .172.035.367.09l.364.105-.07.121-.11.2c-.047.089-.055.089-.273.042a8 8 0 0 0-1-.137l-.368-.03.137-.052.246-.109c.09-.05.125-.059.27-.043q.31.016.398-.11l.043-.077Zm-.402.027q.019-.002.031.008.017.006.016.02a.05.05 0 0 1-.04.019q-.03-.001-.038-.02c0-.011.011-.023.031-.027m.258 0q.018-.002.031.008c.008.004.016.011.016.02a.06.06 0 0 1-.04.015.05.05 0 0 1-.035-.016c0-.011.012-.023.032-.027Zm-.367 0q.018-.002.03.008.015.006.016.02a.05.05 0 0 1-.039.019q-.032-.001-.039-.02c0-.011.016-.02.032-.023Zm.242.008c.023 0 .043.008.047.023a.05.05 0 0 1-.04.02c-.019 0-.035-.008-.038-.02q.006-.018.03-.023m-.3.05q.018.001.031.008t.016.02a.05.05 0 0 1-.04.02q-.03-.001-.038-.02c-.004-.012.011-.024.031-.027m.113 0c.012 0 .028.003.035.007q.012.012.012.024a.05.05 0 0 1-.039.02q-.031-.002-.039-.02.001-.02.031-.028Zm.121.007c.02 0 .04.012.043.024-.004.011-.02.02-.039.02a.05.05 0 0 1-.039-.02q.006-.018.035-.024m.125 0q.018.001.036.008.01.01.011.02c-.004.011-.02.02-.039.02a.05.05 0 0 1-.039-.02q.001-.02.031-.028m-.93.367a9 9 0 0 1 1.61.192 1.3 1.3 0 0 1-.078.242l-.09.274q0 .03-.117.011c-.379-.058-1.477-.054-1.899.012-.242.035-.277.031-.257-.02l.047-.16.027-.12.246-.126c.164-.082.32-.183.469-.293h.039Zm-1.234.645q.023 0 .075.035a.3.3 0 0 0 .12.051c.122 0 .184.164.286.723l.035.199c.012.043 0 .055-.106.078-.125.023-.16.031-.16.012 0-.047-.125-.621-.18-.825l-.074-.27h.004Zm1.309.09h.133l-.047.043c-.074.094-.113.098-.168.039l-.047-.07c0-.008.063-.016.129-.016Zm.281 0h.246l-.054.055c-.063.07-.07.07-.137 0l-.055-.059Zm.375 0h.059c.031 0 .09 0 .129.008l.066.015-.062.059q-.058.054-.075.055l-.062-.075Zm.387.012.058.015c.032.008.098.012.149.016h.094l-.07.058-.083.059a.4.4 0 0 1-.078-.074Zm-1.383.004h.012q.006.023-.047.078l-.047.062-.066-.055-.07-.058.109-.012Zm.106.011.074.063.074.066-.137.012-.136.004.062-.07Zm.824 0q.022 0 .039.012l.058.078q.035.048-.046.043l-.114-.02-.054-.015.058-.059q.037-.045.067-.043Zm-.38 0q.035-.006.075.059c.031.05.031.05-.094.05h-.12l.062-.062q.047-.042.078-.043Zm.778.008.055.055q.098.088.027.09L5.7 10.59l-.101-.012.074-.058Zm-1.61.031a.2.2 0 0 1 .075.055l.055.059-.117.02-.16.023q-.048.012.046-.075a.4.4 0 0 1 .102-.082m-.172 0h.02c.035.008.035.02-.028.082l-.07.067-.02-.059c-.02-.043-.015-.058.028-.074Zm2.11.082q.01-.001 0 .028c-.012.035-.051.047-.051.007 0-.007.007-.02.03-.03Zm-.981.075c.351 0 .707.007.797.015.14.02.156.024.156.078 0 .063-.02.067-.211.035-.055-.011-.289-.03-.516-.05a7.3 7.3 0 0 0-1.304.047c-.086.007-.11 0-.11-.028 0-.058.47-.097 1.188-.097m-.473.128h.246l-.054.059c-.067.074-.075.074-.137 0Zm.32 0 .063.063.066.074-.132.004H4.8l.066-.074Zm.098 0h.246l-.054.059c-.063.074-.07.074-.137 0Zm-.586 0q.012.001-.035.067a.3.3 0 0 1-.066.074q-.024-.005-.07-.059l-.055-.058h.082a.4.4 0 0 0 .125-.02Zm.09.024.059.055.07.058-.121.008-.133.008.066-.067Zm.797 0 .062.07c.075.078.07.082-.093.051l-.078-.012Zm.094 0h.11c.112-.004.136.023.062.082-.055.043-.055.043-.118-.024Zm-1.403.023c.055 0 .051.004-.02.07-.05.051-.054.051-.073.016q-.012-.075.093-.086m1.778.008q.03.001.09.008l.105.02-.059.054-.054.055-.051-.063-.047-.074Zm-1.649.024c.012 0 .028.007.051.03.043.044.043.044.008.063l-.11.02h-.074l.059-.063a.3.3 0 0 1 .058-.05Zm1.559.011q.024-.006.055.047l.043.055h-.098c-.059 0-.09-.012-.09-.027q.011-.035.059-.06Zm.293.059c.012 0 .012.008.012.023 0 .047-.043.078-.063.047q0-.022.023-.05Zm-1.184.055c.399 0 .836.027 1.098.074l.074.011v.2c0 .148-.008.199-.031.199l-.23-.043a5.8 5.8 0 0 0-1.602-.047l-.106.012L4 11.219l-.02-.172s.106-.024.23-.04c.15-.019.376-.03.614-.03" style="stroke:none;fill-rule:nonzero;fill:#000;fill-opacity:1"/><path d="M5.625 9.848a.224.224 0 0 0-.234.234c0 .219.246.324.394.172.145-.152.047-.406-.16-.406m0 .054a.18.18 0 0 1 .184.18c0 .137-.153.227-.278.168-.12-.07-.113-.277.02-.332ZM4.703 9.82c-.137 0-.23.094-.23.235 0 .218.246.324.39.172.149-.153.047-.407-.16-.407m0 .055a.18.18 0 0 1 .184.18c0 .136-.153.226-.274.168-.125-.07-.113-.278.02-.332ZM3.941 6.566c-.043.004-.074.036-.074.079a.08.08 0 0 0 .078.082A.08.08 0 0 0 4 6.586c-.016-.016-.04-.02-.059-.02m.004.028c.028 0 .051.023.055.05 0 .028-.027.051-.055.051-.03 0-.054-.023-.054-.05s.023-.051.054-.051" style="stroke:none;fill-rule:nonzero;fill:#000;fill-opacity:1"/></svg>